<?xml version="1.0" encoding="utf-8"?>
<!-- Generator: Adobe Illustrator 23.0.1, SVG Export Plug-In . SVG Version: 6.00 Build 0)  -->
<svg version="1.1"
	 id="Layer_1" inkscape:version="0.91 r13725" sodipodi:docname="Visa_2006.svg" xmlns:cc="http://creativecommons.org/ns#" xmlns:dc="http://purl.org/dc/elements/1.1/" xmlns:inkscape="http://www.inkscape.org/namespaces/inkscape" xmlns:rdf="http://www.w3.org/1999/02/22-rdf-syntax-ns#" xmlns:sodipodi="http://sodipodi.sourceforge.net/DTD/sodipodi-0.dtd" xmlns:svg="http://www.w3.org/2000/svg"
	 xmlns="http://www.w3.org/2000/svg" xmlns:xlink="http://www.w3.org/1999/xlink" x="0px" y="0px" viewBox="0 0 1000 323.7"
	 style="enable-background:new 0 0 1000 323.7;" xml:space="preserve">
<style type="text/css">
	.st0{fill:#283252;}
</style>
<sodipodi:namedview  bordercolor="#666666" borderopacity="1" gridtolerance="10" guidetolerance="10" id="namedview19" inkscape:current-layer="Layer_1" inkscape:cx="34.690897" inkscape:cy="131.15483" inkscape:pageopacity="0" inkscape:pageshadow="2" inkscape:window-height="705" inkscape:window-maximized="1" inkscape:window-width="1366" inkscape:window-x="-8" inkscape:window-y="-8" inkscape:zoom="0.35355339" objecttolerance="10" pagecolor="#ffffff" showgrid="false">
	</sodipodi:namedview>
<g>
	<polygon class="st0" points="403,5.7 352.3,319 433.4,319 484,5.7 	"/>
	<path class="st0" d="M647.4,131.3c-28.3-14.3-45.7-24-45.7-38.7c0.3-13.3,14.7-27,46.7-27c26.3-0.7,45.7,5.7,60.3,12L716,81
		l11-67.7C711,7,685.7,0,654.4,0c-80,0-136.3,42.7-136.7,103.7c-0.7,45,40.3,70,71,85c31.3,15.3,42,25.3,42,39
		c-0.3,21-25.3,30.7-48.6,30.7c-32.3,0-49.7-5-76-16.7l-10.7-5L484,307c19,8.7,54,16.3,90.3,16.7c85,0,140.3-42,141-107
		C715.7,181,694,153.7,647.4,131.3z"/>
	<path class="st0" d="M934.7,5.7L934.7,5.7H872c-19.3,0-34,5.7-42.3,26L709.4,319h85c0,0,14-38.7,17-47c9.3,0,92,0,104,0
		c2.3,11,9.7,47,9.7,47h75L934.7,5.7z M834.7,208c6.7-18,32.3-87.7,32.3-87.7c-0.3,0.7,6.7-18.3,10.7-30l5.7,27
		c0,0,15.3,75,18.7,90.7C889.4,208,850.7,208,834.7,208z"/>
	<path class="st0" d="M284.7,5.7L284.7,5.7l-79.3,213.6l-8.7-43.3l0,0L168.3,32c-4.7-20-19-25.7-36.7-26.3H1.3L0,12
		c31.8,8.1,60.2,19.8,85.1,34.4l72.2,272.2H243l127.3-313L284.7,5.7L284.7,5.7z"/>
</g>
</svg>
