<?xml version="1.0" encoding="utf-8"?>
<!-- Generator: Adobe Illustrator 23.0.1, SVG Export Plug-In . SVG Version: 6.00 Build 0)  -->
<svg version="1.1" xmlns="http://www.w3.org/2000/svg" xmlns:xlink="http://www.w3.org/1999/xlink" x="0px" y="0px"
	 viewBox="0 0 503.4 503.4" style="enable-background:new 0 0 503.4 503.4;" xml:space="preserve">
<style type="text/css">
	.st0{clip-path:url(#SVGID_2_);fill:#E7D7FF;}
	.st1{clip-path:url(#SVGID_2_);}
	.st2{fill:#671CC9;}
	.st3{fill:none;stroke:#263238;stroke-width:0.7242;stroke-linecap:round;stroke-linejoin:round;stroke-miterlimit:10;}
	.st4{fill:none;stroke:#263238;stroke-miterlimit:10;}
	.st5{fill:#D6D6D6;}
	.st6{fill:none;stroke:#263238;stroke-width:0.8211;stroke-linecap:round;stroke-linejoin:round;stroke-miterlimit:10;}
	.st7{fill:#263238;stroke:#263238;stroke-width:0.7251;stroke-linecap:round;stroke-linejoin:round;stroke-miterlimit:10;}
	.st8{fill:#263238;stroke:#263238;stroke-width:0.8831;stroke-linecap:round;stroke-linejoin:round;stroke-miterlimit:10;}
	.st9{fill:none;stroke:#263238;stroke-linecap:round;stroke-linejoin:round;stroke-miterlimit:10;}
	.st10{opacity:0.2;}
	.st11{fill:#FFFFFF;}
	.st12{fill:#B2B2B2;}
	.st13{fill:#671CC9;stroke:#263238;stroke-linecap:round;stroke-linejoin:round;stroke-miterlimit:10;}
	.st14{fill:#263238;stroke:#263238;stroke-linecap:round;stroke-linejoin:round;stroke-miterlimit:10;}
	.st15{fill:#FFFFFF;stroke:#263238;stroke-linecap:round;stroke-linejoin:round;stroke-miterlimit:10;}
	.st16{fill:none;stroke:#7D7D7D;stroke-linecap:round;stroke-linejoin:round;stroke-miterlimit:10;}
	.st17{fill:none;stroke:#263238;stroke-width:3;stroke-linecap:round;stroke-linejoin:round;stroke-miterlimit:10;}
	.st18{fill:#263238;}
	.st19{fill:#FFFFFF;stroke:#263238;stroke-width:0.7242;stroke-linecap:round;stroke-linejoin:round;stroke-miterlimit:10;}
	.st20{fill:#263238;stroke:#263238;stroke-width:0.7242;stroke-linecap:round;stroke-linejoin:round;stroke-miterlimit:10;}
	.st21{fill:#FFFFFF;stroke:#FFFFFF;stroke-width:3;stroke-linecap:round;stroke-linejoin:round;stroke-miterlimit:10;}
	.st22{fill:#A3A3A3;stroke:#263238;stroke-miterlimit:10;}
	.st23{fill:#A3A3A3;stroke:#263238;stroke-linecap:round;stroke-linejoin:round;stroke-miterlimit:10;}
	.st24{fill:none;stroke:#263238;stroke-width:0.5;stroke-linecap:round;stroke-linejoin:round;stroke-miterlimit:10;}
	.st25{fill:#A6A6A6;stroke:#263238;stroke-width:0.5;stroke-miterlimit:10;}
	.st26{fill:#808080;stroke:#263238;stroke-width:0.5;stroke-miterlimit:10;}
	.st27{fill:none;stroke:#263238;stroke-width:2;stroke-linecap:round;stroke-miterlimit:10;}
</style>
<g id="Background_Simple">
</g>
<g id="Wall">
</g>
<g id="Board">
</g>
<g id="Graphics">
</g>
<g id="Plants">
</g>
<g id="Clock">
</g>
<g id="Characters_3">
</g>
<g id="Character_1">
</g>
<g id="Device">
</g>
<g id="Characters_2">
</g>
<g id="Layer_11">
</g>
<g id="Layer_12">
	<g>
		<defs>
			<circle id="SVGID_1_" cx="251.7" cy="251.7" r="251.7"/>
		</defs>
		<clipPath id="SVGID_2_">
			<use xlink:href="#SVGID_1_"  style="overflow:visible;"/>
		</clipPath>
		<rect x="-2.1" y="-4.3" class="st0" width="507.7" height="507.7"/>
		<g class="st1">
			<g>
				<path class="st2" d="M52.8,231.6c3.7-0.3,11-4.3,11-4.3c0.1,0-4.1-4-4.4-4.2c-3.4-2.5-11.5-5.4-15.4-2.7c-2.8,2-2.9,5.9-0.7,8.3
					C45.6,231.3,49.7,231.8,52.8,231.6z"/>
				<path class="st2" d="M66.7,251.7c3.4-1.2,9-6.6,9.4-7c3,3.1,6.3,6.1,9.8,9c2,1.6,4.1,3.2,6.2,4.7c-1.1-0.6-2-1.1-2.2-1.1
					c-4-1.5-12.5-2.2-15.5,1.5c-2.2,2.7-1.2,6.4,1.5,8.2c2.8,1.9,6.9,1.3,9.9,0.3c3-1.1,7.9-5.6,9.2-6.8c0.8,0.6,1.6,1.2,2.4,1.8
					c3.9,2.8,7.8,5.6,11.6,8.4c1.3,1,2.6,2,3.9,3.1c-0.9-0.5-1.7-0.9-1.9-1c-4-1.5-12.5-2.2-15.5,1.5c-2.2,2.7-1.2,6.4,1.5,8.2
					c2.8,1.9,6.9,1.3,9.9,0.3c2.9-1,7.4-5.1,8.9-6.6c1.3,1.1,2.5,2.2,3.7,3.3c0.8,0.8,1.6,1.5,2.4,2.3c0.8,0.8,1.5,1.6,2.3,2.4
					c1.4,1.6,2.8,3.2,4.1,4.8c0.9,1.1,1.8,2.1,2.6,3.2c-1.3-1-3.9-2.9-4.1-3.1c-3.7-2.1-12-4.1-15.6-0.9c-2.5,2.3-2.2,6.2,0.3,8.4
					c2.5,2.3,6.6,2.4,9.7,1.8c3.4-0.7,9.5-4.9,10.3-5.5c1.4,1.7,2.8,3.5,4.1,5.1c3.4,4.4,6.2,8.3,8.4,11.5l2.8-1.5
					c-2.3-3.2-5.4-7.2-9-11.7c-1.4-1.8-3-3.7-4.6-5.6c0.4-0.5,2.6-3.1,4.3-5.7c3.4,1.2,10.3,1,11.2,1c0.2,2.2,0.4,4.4,0.6,6.5
					c0.4,5.4,0.6,10.1,0.7,13.9l3-1.6c-0.2-3.6-0.5-7.8-0.9-12.5c-0.2-2.3-0.5-4.7-0.8-7.2c0.9-0.3,8.1-2.3,10.7-4.6
					c2.4-2.1,4.9-5.4,4.7-8.7c-0.2-3.3-3-6-6.4-5.4c-4.7,0.8-8.4,8.5-9,12.7c0,0.2-0.1,3-0.2,4.7c-0.1-1-0.2-2-0.4-3.1
					c-0.3-2.1-0.6-4.1-1-6.3c-0.2-1.1-0.4-2.1-0.6-3.2c-0.2-1.1-0.5-2.2-0.8-3.3c-0.7-2.6-1.4-5.1-2.3-7.7c1.8-0.2,8.2-1.2,11-2.9
					c2.7-1.7,5.7-4.6,6-7.9c0.3-3.3-2.1-6.4-5.5-6.3c-4.8,0-9.6,7.1-10.9,11.2c-0.1,0.3-0.7,3.3-1,4.9c-0.5-1.5-1-3.1-1.6-4.6
					c-1.7-4.4-3.5-8.9-5.3-13.3c-0.6-1.4-1.1-2.7-1.6-4.1c0.6-0.1,8.3-1.1,11.3-3c2.7-1.7,5.7-4.6,6-7.9c0.3-3.3-2.1-6.4-5.5-6.3
					c-4.8,0-9.6,7.1-10.9,11.2c-0.1,0.3-0.9,4.6-1.1,5.8c-1.2-3-2.4-6-3.4-9c-1.4-4.1-2.6-8.3-3.4-12.4c0.3,0,8.3-1,11.4-3
					c2.7-1.7,5.7-4.6,6-7.9c0.3-3.3-2.1-6.4-5.5-6.3c-4.8,0-9.6,7.1-10.9,11.2c-0.1,0.3-1,5-1.1,5.8c0-0.2-0.1-0.5-0.2-0.7
					c-0.8-4.4-1.1-8.7-1.1-12.8c0-2.4,0.1-4.7,0.2-6.9c1.5,0,8.4-0.3,11.4-1.7c2.9-1.4,6.1-3.9,6.8-7.2c0.7-3.2-1.3-6.6-4.7-6.9
					c-4.7-0.5-10.3,6-12,9.9c-0.1,0.2-0.8,2.5-1.3,4.1c0.1-1,0.2-2,0.3-3c0.4-3.6,0.9-6.8,1.4-9.7c0.3-1.6,0.6-3.1,0.9-4.5
					c1.5-0.8,7.3-4.1,9.3-6.7c1.9-2.5,3.6-6.3,2.7-9.5c-0.9-3.2-4.2-5.2-7.4-3.9c-4.4,1.8-6.4,10.1-6.1,14.3c0,0.4,1.1,6.1,1.1,6
					c0,0,0.1,0,0.1,0c-0.3,1.3-0.6,2.7-1,4.3c-0.6,2.9-1.2,6.1-1.6,9.7c-0.5,3.6-0.8,7.5-0.9,11.6c0,4.2,0.1,8.5,0.9,13
					c0,0.1,0,0.1,0,0.2c-0.6-1.2-2.5-4.7-2.7-4.9c-2.4-3.5-9.2-8.7-13.8-7.3c-3.3,1-4.6,4.7-3.3,7.7c1.3,3.1,5,4.9,8.1,5.7
					c3.5,0.9,11.1-0.5,11.7-0.7c0.8,4.3,1.9,8.6,3.3,12.9c0.8,2.5,1.7,4.9,2.6,7.4c-0.6-1.1-1.1-2-1.2-2.1
					c-2.4-3.5-9.2-8.7-13.8-7.3c-3.3,1-4.6,4.7-3.3,7.7c1.3,3.1,5,4.9,8.1,5.7c3.1,0.8,9.7-0.3,11.4-0.6c0.4,0.9,0.7,1.9,1.1,2.8
					c1.7,4.5,3.5,9,5,13.4c0.6,1.6,1,3.1,1.5,4.7c-0.5-0.9-1-1.7-1-1.8c-2.4-3.5-9.2-8.7-13.8-7.3c-3.3,1-4.6,4.7-3.3,7.7
					c1.3,3.1,5,4.9,8.1,5.7c3,0.7,9-0.2,11.1-0.5c0.5,1.6,0.9,3.2,1.3,4.8c0.2,1.1,0.5,2.1,0.7,3.2c0.2,1.1,0.4,2.2,0.6,3.2
					c0.3,2.1,0.6,4.2,0.8,6.2c0.2,1.4,0.3,2.8,0.4,4.1c-0.5-1.6-1.6-4.6-1.8-4.8c-1.3-2.5-4.3-6.1-7.6-8c-0.2-0.4-0.4-0.7-0.6-1.1
					c-2-2.6-5.8-3.3-8.3-1c-3.5,3.2-2.3,11.7-0.5,15.6c0.1,0.2,1.5,2.6,2.4,4c-0.7-0.8-1.3-1.5-2-2.3c-1.4-1.6-2.8-3.1-4.3-4.8
					c-0.8-0.8-1.5-1.6-2.3-2.3c-0.8-0.8-1.7-1.5-2.5-2.3c-2-1.8-4-3.5-6.2-5.2c1.4-1.2,6.2-5.6,7.5-8.5c1.3-2.9,2.2-6.9,0.6-9.9
					c-1.6-2.9-5.2-4.2-8.1-2.3c-3.9,2.7-4.1,11.2-2.9,15.3c0.1,0.3,1.2,3.1,1.9,4.6c-1.3-1-2.6-2-3.9-3c-3.9-2.8-7.8-5.5-11.8-8.2
					c-1.2-0.8-2.4-1.7-3.6-2.5c0.5-0.4,6.3-5.5,7.8-8.7c1.3-2.9,2.2-6.9,0.6-9.9c-1.6-2.9-5.2-4.2-8.1-2.3
					c-3.9,2.7-4.1,11.2-2.9,15.3c0.1,0.3,1.8,4.4,2.3,5.4c-2.7-1.8-5.3-3.7-7.8-5.6c-3.5-2.7-6.7-5.5-9.7-8.4
					c0.2-0.2,6.4-5.4,7.9-8.8c1.3-2.9,2.2-6.9,0.6-9.9c-1.6-2.9-5.2-4.2-8.1-2.3c-3.9,2.7-4.1,11.2-2.9,15.3
					c0.1,0.3,1.9,4.7,2.3,5.5c-0.2-0.2-0.4-0.3-0.6-0.5c-3.1-3.2-5.7-6.7-8-10.1c-1.3-2-2.5-3.9-3.6-5.8c1.2-0.9,6.9-4.9,8.6-7.7
					c1.6-2.7,3-6.6,1.7-9.8c-1.2-3.1-4.7-4.7-7.8-3.1c-4.2,2.2-5.3,10.7-4.6,14.9c0,0.2,0.7,2.5,1.2,4.1c-0.5-0.9-1-1.8-1.4-2.6
					c-1.7-3.2-3-6.2-4.2-8.9c-0.6-1.5-1.2-2.9-1.7-4.2c0.8-1.5,3.8-7.5,4-10.7c0.2-3.2-0.4-7.3-3-9.4c-2.5-2.1-6.4-2-8.3,0.8
					c-2.7,3.9,0.3,11.9,2.8,15.3c0.2,0.3,4.2,4.5,4.3,4.4c0,0,0-0.1,0-0.1c0.5,1.3,1,2.6,1.6,4.1c1.1,2.7,2.4,5.8,4,9
					c1.6,3.2,3.4,6.7,5.7,10.2c2.3,3.5,4.8,7.1,7.9,10.4c0,0,0.1,0.1,0.1,0.1c-1.2-0.7-4.7-2.5-4.9-2.6c-4-1.5-12.5-2.2-15.5,1.5
					c-2.2,2.7-1.2,6.4,1.5,8.2C59.6,253.3,63.7,252.7,66.7,251.7z"/>
				<path class="st2" d="M128.5,193.9c0.1,0-1.2-5.6-1.4-6c-1.4-4-6.6-10.9-11.3-10.7c-3.4,0.1-5.6,3.3-5.2,6.6
					c0.5,3.3,3.5,6.1,6.3,7.6C120.1,193.2,128.4,193.9,128.5,193.9z"/>
			</g>
			<g>
				<path class="st2" d="M413.9,373.6c-2.8-0.2-8.2-3.2-8.2-3.2c-0.1,0,3.1-3,3.3-3.1c2.5-1.9,8.5-4,11.4-2c2.1,1.5,2.1,4.4,0.5,6.2
					C419.3,373.3,416.2,373.7,413.9,373.6z"/>
				<path class="st2" d="M403.6,388.5c-2.5-0.9-6.7-4.9-7-5.2c-2.2,2.3-4.7,4.6-7.3,6.7c-1.5,1.2-3,2.4-4.6,3.5
					c0.8-0.4,1.5-0.8,1.6-0.8c2.9-1.2,9.3-1.6,11.5,1.1c1.6,2,0.9,4.8-1.1,6.1c-2.1,1.4-5.1,1-7.4,0.2c-2.3-0.8-5.9-4.1-6.8-5
					c-0.6,0.4-1.2,0.9-1.8,1.3c-2.9,2.1-5.8,4.1-8.6,6.3c-1,0.7-1.9,1.5-2.9,2.3c0.7-0.4,1.3-0.7,1.4-0.7c2.9-1.2,9.3-1.6,11.5,1.1
					c1.6,2,0.9,4.8-1.1,6.1c-2.1,1.4-5.1,1-7.4,0.2c-2.2-0.8-5.5-3.8-6.6-4.9c-0.9,0.8-1.9,1.6-2.8,2.5c-0.6,0.6-1.2,1.1-1.8,1.7
					c-0.6,0.6-1.1,1.2-1.7,1.8c-1,1.2-2.1,2.4-3.1,3.5c-0.7,0.8-1.3,1.6-2,2.4c1-0.8,2.9-2.2,3.1-2.3c2.7-1.6,8.9-3,11.6-0.7
					c1.9,1.7,1.6,4.6-0.2,6.2c-1.9,1.7-4.9,1.8-7.2,1.3c-2.6-0.5-7.1-3.7-7.7-4.1c-1.1,1.3-2.1,2.6-3,3.8c-2.5,3.3-4.6,6.2-6.3,8.5
					l-2.1-1.1c1.7-2.4,4-5.4,6.7-8.7c1.1-1.3,2.2-2.7,3.4-4.1c-0.3-0.3-1.9-2.3-3.2-4.3c-2.5,0.9-7.7,0.8-8.4,0.7
					c-0.2,1.7-0.3,3.3-0.4,4.8c-0.3,4-0.4,7.5-0.5,10.3l-2.3-1.2c0.1-2.6,0.4-5.8,0.7-9.3c0.2-1.7,0.4-3.5,0.6-5.4
					c-0.7-0.2-6-1.7-8-3.4c-1.8-1.5-3.7-4-3.5-6.5c0.1-2.4,2.2-4.5,4.7-4c3.5,0.6,6.2,6.3,6.7,9.4c0,0.2,0.1,2.2,0.1,3.5
					c0.1-0.8,0.2-1.5,0.3-2.3c0.2-1.5,0.5-3.1,0.7-4.7c0.2-0.8,0.3-1.6,0.5-2.4c0.1-0.8,0.4-1.6,0.6-2.5c0.5-1.9,1.1-3.8,1.7-5.7
					c-1.3-0.2-6.1-0.9-8.1-2.2c-2-1.2-4.2-3.4-4.4-5.9c-0.2-2.4,1.5-4.7,4.1-4.7c3.5,0,7.1,5.3,8.1,8.3c0.1,0.2,0.5,2.4,0.7,3.7
					c0.4-1.1,0.8-2.3,1.2-3.4c1.2-3.3,2.6-6.6,4-9.9c0.4-1,0.8-2,1.2-3c-0.5-0.1-6.2-0.8-8.4-2.2c-2-1.2-4.2-3.4-4.4-5.9
					c-0.2-2.4,1.5-4.7,4.1-4.7c3.5,0,7.1,5.3,8.1,8.3c0.1,0.2,0.7,3.4,0.8,4.3c0.9-2.2,1.8-4.5,2.5-6.7c1.1-3.1,1.9-6.2,2.5-9.2
					c-0.2,0-6.2-0.8-8.5-2.2c-2-1.2-4.2-3.4-4.4-5.9c-0.2-2.4,1.5-4.7,4.1-4.7c3.5,0,7.1,5.3,8.1,8.3c0.1,0.2,0.7,3.7,0.8,4.3
					c0-0.2,0.1-0.4,0.1-0.5c0.6-3.3,0.8-6.5,0.8-9.5c0-1.8-0.1-3.5-0.2-5.1c-1.1,0-6.2-0.2-8.5-1.3c-2.1-1-4.6-2.9-5.1-5.3
					c-0.5-2.4,1-4.9,3.5-5.1c3.5-0.4,7.7,4.5,8.9,7.4c0.1,0.2,0.6,1.8,1,3.1c-0.1-0.7-0.1-1.5-0.2-2.2c-0.3-2.7-0.7-5.1-1.1-7.2
					c-0.2-1.2-0.5-2.3-0.7-3.3c-1.1-0.6-5.4-3.1-6.9-5c-1.4-1.9-2.7-4.7-2-7.1c0.7-2.4,3.1-3.9,5.5-2.9c3.3,1.3,4.7,7.5,4.5,10.7
					c0,0.3-0.8,4.5-0.8,4.5c0,0-0.1,0-0.1,0c0.2,1,0.5,2,0.7,3.2c0.4,2.1,0.9,4.6,1.2,7.2c0.3,2.7,0.6,5.6,0.7,8.7
					c0,3.1-0.1,6.3-0.6,9.7c0,0,0,0.1,0,0.1c0.5-0.9,1.9-3.5,2-3.7c1.8-2.6,6.9-6.5,10.2-5.5c2.4,0.8,3.4,3.5,2.4,5.7
					c-1,2.3-3.7,3.7-6,4.2c-2.6,0.6-8.3-0.4-8.7-0.5c-0.6,3.2-1.4,6.4-2.4,9.6c-0.6,1.8-1.2,3.7-1.9,5.5c0.4-0.8,0.8-1.5,0.9-1.6
					c1.8-2.6,6.9-6.5,10.2-5.5c2.4,0.8,3.4,3.5,2.4,5.7c-1,2.3-3.7,3.7-6,4.2c-2.3,0.6-7.2-0.2-8.5-0.4c-0.3,0.7-0.5,1.4-0.8,2.1
					c-1.3,3.3-2.6,6.7-3.7,10c-0.4,1.2-0.8,2.3-1.1,3.5c0.4-0.7,0.7-1.3,0.8-1.4c1.8-2.6,6.9-6.5,10.2-5.5c2.4,0.8,3.4,3.5,2.4,5.7
					c-1,2.3-3.7,3.7-6,4.2c-2.2,0.6-6.7-0.1-8.2-0.4c-0.3,1.2-0.7,2.4-1,3.6c-0.2,0.8-0.4,1.6-0.5,2.4c-0.1,0.8-0.3,1.6-0.4,2.4
					c-0.2,1.5-0.4,3.1-0.6,4.6c-0.1,1-0.2,2-0.3,3.1c0.4-1.2,1.2-3.4,1.3-3.6c0.9-1.9,3.2-4.5,5.6-6c0.1-0.3,0.3-0.5,0.5-0.8
					c1.5-2,4.3-2.5,6.2-0.8c2.6,2.4,1.7,8.7,0.4,11.6c-0.1,0.2-1.1,1.9-1.8,3c0.5-0.6,1-1.1,1.5-1.7c1-1.2,2.1-2.3,3.2-3.5
					c0.6-0.6,1.1-1.2,1.7-1.7c0.6-0.6,1.2-1.1,1.8-1.7c1.5-1.3,3-2.6,4.6-3.8c-1-0.9-4.6-4.1-5.6-6.3c-1-2.1-1.6-5.1-0.5-7.3
					c1.2-2.2,3.9-3.1,6-1.7c2.9,2,3,8.4,2.1,11.4c-0.1,0.2-0.9,2.3-1.4,3.4c1-0.7,1.9-1.5,2.9-2.2c2.9-2.1,5.8-4.1,8.8-6.1
					c0.9-0.6,1.8-1.2,2.7-1.9c-0.4-0.3-4.7-4.1-5.8-6.5c-1-2.1-1.6-5.1-0.5-7.3c1.2-2.2,3.9-3.1,6-1.7c2.9,2,3,8.4,2.1,11.4
					c-0.1,0.2-1.3,3.3-1.7,4c2-1.4,3.9-2.8,5.8-4.2c2.6-2,5-4.1,7.2-6.3c-0.2-0.1-4.7-4-5.9-6.5c-1-2.1-1.6-5.1-0.5-7.3
					c1.2-2.2,3.9-3.1,6-1.7c2.9,2,3,8.4,2.1,11.4c-0.1,0.2-1.4,3.5-1.7,4.1c0.1-0.1,0.3-0.3,0.4-0.4c2.3-2.4,4.3-5,6-7.5
					c1-1.5,1.9-2.9,2.7-4.3c-0.9-0.6-5.1-3.6-6.4-5.7c-1.2-2-2.2-4.9-1.3-7.3c0.9-2.3,3.5-3.5,5.8-2.3c3.1,1.6,3.9,8,3.4,11.1
					c0,0.2-0.5,1.9-0.9,3.1c0.4-0.7,0.7-1.3,1.1-2c1.2-2.4,2.2-4.6,3.1-6.6c0.5-1.1,0.9-2.2,1.3-3.2c-0.6-1.1-2.9-5.6-3-8
					c-0.1-2.4,0.3-5.4,2.2-7c1.9-1.6,4.7-1.5,6.2,0.6c2,2.9-0.2,8.9-2.1,11.4c-0.2,0.2-3.1,3.3-3.2,3.3c0,0,0-0.1,0-0.1
					c-0.3,0.9-0.7,2-1.2,3.1c-0.8,2-1.8,4.3-3,6.7c-1.2,2.4-2.5,5-4.2,7.6c-1.7,2.6-3.6,5.2-5.9,7.7c0,0-0.1,0.1-0.1,0.1
					c0.9-0.5,3.5-1.9,3.7-1.9c2.9-1.2,9.3-1.6,11.5,1.1c1.6,2,0.9,4.8-1.1,6.1C408.9,389.6,405.8,389.3,403.6,388.5z"/>
				<path class="st2" d="M357.7,345.5c-0.1,0,0.9-4.2,1-4.4c1.1-3,4.9-8.1,8.4-8c2.5,0.1,4.2,2.5,3.9,4.9c-0.3,2.5-2.6,4.5-4.7,5.7
					C363.9,345,357.7,345.5,357.7,345.5z"/>
			</g>
			<g>
				
					<ellipse transform="matrix(0.9971 -7.646020e-02 7.646020e-02 0.9971 -12.9283 31.6751)" class="st3" cx="407.2" cy="184.7" rx="33.2" ry="33.2"/>
				<g>
					<path class="st4" d="M407.1,192.9L407.1,192.9c-3.7,0-6.7-3-6.7-6.7v-21.2c0-3.7,3-6.7,6.7-6.7l0,0c3.7,0,6.7,3,6.7,6.7v21.2
						C413.8,189.9,410.8,192.9,407.1,192.9z"/>
					<g>
						<g>
							<path class="st4" d="M407.2,197.7c-6.5,0-11.8-5.3-11.8-11.8v-10c0-0.7,0.5-1.2,1.2-1.2c0.7,0,1.2,0.5,1.2,1.2v10
								c0,5.2,4.2,9.4,9.4,9.4c5.2,0,9.4-4.2,9.4-9.4v-10c0-0.7,0.5-1.2,1.2-1.2c0.7,0,1.2,0.5,1.2,1.2v10
								C419,192.4,413.7,197.7,407.2,197.7z"/>
						</g>
						<g>
							<path class="st4" d="M407.2,210.5c-0.7,0-1.2-0.5-1.2-1.2v-12.7c0-0.7,0.5-1.2,1.2-1.2c0.7,0,1.2,0.5,1.2,1.2v12.7
								C408.4,209.9,407.9,210.5,407.2,210.5z"/>
						</g>
						<g>
							<path class="st4" d="M415.4,211.1H399c-0.7,0-1.2-0.5-1.2-1.2c0-0.7,0.5-1.2,1.2-1.2h16.3c0.7,0,1.2,0.5,1.2,1.2
								C416.6,210.6,416,211.1,415.4,211.1z"/>
						</g>
					</g>
				</g>
			</g>
			<g>
				
					<ellipse transform="matrix(0.9229 -0.385 0.385 0.9229 -29.1839 44.6399)" class="st3" cx="96.9" cy="95.2" rx="30.8" ry="30.8"/>
				<path class="st4" d="M115.9,86.2l-9,5.2v-4.3c0-2-1.6-3.7-3.7-3.7H82.9c-2,0-3.7,1.6-3.7,3.7v16.4c0,2,1.6,3.7,3.7,3.7h20.3
					c2,0,3.7-1.6,3.7-3.7v-4.3l9,5.2V86.2z"/>
			</g>
			<g>
				<circle class="st3" cx="410.4" cy="277" r="17.4"/>
				<path class="st4" d="M421.1,271.9l-5.1,2.9v-2.4c0-1.1-0.9-2.1-2.1-2.1h-11.5c-1.1,0-2.1,0.9-2.1,2.1v9.2c0,1.1,0.9,2.1,2.1,2.1
					H414c1.1,0,2.1-0.9,2.1-2.1v-2.4l5.1,2.9V271.9z"/>
			</g>
			<g>
				
					<ellipse transform="matrix(0.9732 -0.2298 0.2298 0.9732 -86.1244 30.7047)" class="st3" cx="88.8" cy="385.2" rx="19.8" ry="19.8"/>
				<path class="st4" d="M98.8,381h-2h-2.8H83.5h-1.9h-2.9c-2.4,0-4.1,2.1-3.7,4.5l0.6,3.1c0.1,0.4,0.5,0.8,0.9,0.8h6
					c0.5,0,0.9-0.4,0.9-0.9V385h10.5v3.4c0,0.5,0.4,0.9,0.9,0.9h6c0.5,0,0.8-0.3,0.9-0.8l0.6-3.1C103,383.2,101.2,381,98.8,381z"/>
			</g>
			<g>
				<g>
					<g>
						<path class="st5" d="M331.4,62.9h-66.5l-2.8,5.1c-2.9,5.5-8.8,8.9-15.1,8.9c-6.3,0-12.1-3.4-15.1-8.9l-2.8-5.1h-66.5
							c-7.1,0-12.9,5.6-12.9,12.5v342.6c0,6.9,5.8,12.5,12.9,12.5h168.8c7.1,0,12.9-5.6,12.9-12.5V75.5
							C344.2,68.5,338.5,62.9,331.4,62.9z"/>
						<g>
							<rect x="317.4" y="67.9" class="st6" width="13.4" height="7.4"/>
							<rect x="317.4" y="67.9" class="st7" width="10.5" height="7.4"/>
							<rect x="330.8" y="69.9" class="st7" width="1.9" height="3.2"/>
						</g>
						<g>
							<rect x="160.8" y="70.1" class="st8" width="2.5" height="4.2"/>
							<rect x="164.7" y="68.7" class="st8" width="2.5" height="5.7"/>
							<rect x="168.6" y="66.9" class="st8" width="2.5" height="7.4"/>
						</g>
						<line class="st9" x1="155.7" y1="77.7" x2="338.3" y2="77.7"/>
					</g>
					<g>
						<path class="st10" d="M281.8,295.4c-0.6-4.2-1.3-8.8-1.8-12.4c4.7-6.1,8-14.2,8.9-21.2c0.6-4.3,0.5-11.9,0.1-20.2
							c1.1-0.8,2.2-2.2,3-4c1.9-4.6,8.4-19.1,0.9-23.4c-1.8-1-3.2-1.2-4.4-1c0.5-3,1.3-6.3,2.6-9.2c3.9-8.8,11.4-17.1,8.3-29.3
							c-3.1-12.3-16.2-18.8-20.1-13.6c-3.9,5.3-3.9,9.6-11.4,3.9c-7.4-5.7-18-13.6-34.1-9.2s-18,8.3-10.1,16.6
							c0,0-25.8-1.3-32.4,13.1c-4.6,10.1,3.1,14.7,7.9,17.2c-0.6,0.3-1.1,0.7-1.4,1.4l-13,25.2l3.3-33.7c0.2-2.1-1.3-4-3.4-4.2
							c-2-0.2-3.8,1.1-4.2,3l-7.8,34.2l-2.6-0.3l1.6-34.2c0.1-2.3-1.7-4.1-4-4c-1.8,0.1-3.2,1.4-3.5,3.2l-5.3,34.4l-4.7-0.3v-27.3
							c0-2.3-2.1-4.1-4.3-3.7v117.9l0.6-1.2l2.5,1.9l12.9-17.7l-5-2.6c4.5-7.6,11-19,11-19s12.6-2.3,16.3-8.7
							c3.6-6.5,6.1-14.5,10.5-20.6c4.4-6.1,8.5-8.5,10.1-13.3c0,0,0-0.1,0-0.1c2,4.9,5.9,9.6,7.6,11.8c2.3,3,5.4,4.2,6.8,2.7
							c0.1,0.9,0.2,1.9,0.4,2.9c1.5,7.6,3.3,14.7,5.1,18.5c1.4,2.9,3.7,5.9,6.5,8.9c-1.8-1-3.8-0.4-4.7,1.2c-0.7,0.8-1.4,2-2.2,3.6
							c-3.4,8.1-11,17.6-10.4,23.4c0,0.2,0,0.4,0.1,0.7c-8.8,0.8-31.3,2.9-34.7,5.7c-2.4,2-19.3,18.1-33.3,31.6v66.6l29.6-18
							l5.1,38.2h133V300.4c-14.8-2.7-34.5-5.2-34.5-5.2L281.8,295.4z M209.2,222.4c-1.8,1.8-2.2,4.2-1.8,6.8c-1.5-0.4-4.1,0.5-7,2.6
							c-5.2,4-10.5,8.5-10.5,8.5l9.8-24.7c0.1,0.1,0.2,0.1,0.2,0.2c3.8,2.8,8.5,4.2,10.4,5.5C210,221.6,209.6,222,209.2,222.4z"/>
						<g>
							<g>
								<path class="st11" d="M205.7,433.9h140.8V295.7c-15.7-2.8-36.6-5.5-36.6-5.5l-65.2,11.7c0,0-36,2.7-40.5,6.3
									c-4.5,3.6-55.4,52.8-55.4,52.8v63.4l51.5-31.3L205.7,433.9z"/>
								<g>
									<path class="st12" d="M295.2,421.9c-0.2,0.2-0.2,0.5,0,0.7l7.9,7.4c0.1,0.1,0.2,0.1,0.4,0.1c0.1,0,0.3-0.1,0.4-0.2
										c0.2-0.2,0.2-0.5,0-0.7l-7.9-7.4C295.7,421.7,295.4,421.7,295.2,421.9z"/>
									<path class="st12" d="M305.2,365.5c-0.2-0.2-0.5-0.2-0.7,0l-5.1,5.5c0-0.1,0-0.3-0.1-0.4c-0.2-0.2-0.5-0.2-0.7,0l-5.1,4.6
										c-0.2,0.2-0.2,0.5,0,0.7c0.1,0.1,0.2,0.2,0.4,0.2c0.1,0,0.2,0,0.3-0.1l4.1-3.8l-0.2,0.2c-0.2,0.2-0.2,0.5,0,0.7
										c0.1,0.1,0.2,0.1,0.4,0.1c0.1,0,0.3-0.1,0.4-0.2l6.5-6.9C305.4,366,305.4,365.7,305.2,365.5z"/>
									<path class="st12" d="M299.7,330c-0.2-0.2-0.5-0.3-0.7-0.1l-6.9,5.5c-0.2,0.2-0.3,0.5-0.1,0.7c0.1,0.1,0.3,0.2,0.4,0.2
										c0.1,0,0.2,0,0.3-0.1l6.9-5.5C299.8,330.5,299.8,330.2,299.7,330z"/>
									<path class="st12" d="M206.3,323.3l6.5-6.9c0.2-0.2,0.2-0.5,0-0.7c-0.2-0.2-0.5-0.2-0.7,0l-6.5,6.9c-0.2,0.2-0.2,0.5,0,0.7
										c0.1,0.1,0.2,0.1,0.4,0.1C206,323.4,206.2,323.4,206.3,323.3z"/>
									<path class="st12" d="M289.5,355.3c0.1,0,0.3-0.1,0.4-0.2c0.2-0.2,0.2-0.5,0-0.7L282,347c-0.2-0.2-0.5-0.2-0.7,0
										c-0.2,0.2-0.2,0.5,0,0.7l7.9,7.4C289.3,355.3,289.4,355.3,289.5,355.3z"/>
									<path class="st12" d="M274.3,373.8C274.3,373.8,274.3,373.8,274.3,373.8c0.4,0,0.5-0.3,0.5-0.6l-1.4-10.6
										c0-0.3-0.3-0.5-0.6-0.4c-0.3,0-0.5,0.3-0.4,0.6l1.4,10.6C273.8,373.6,274,373.8,274.3,373.8z"/>
									<path class="st12" d="M285.5,409.9l-6.5,6.9c-0.2,0.2-0.2,0.5,0,0.7c0.1,0.1,0.2,0.1,0.4,0.1c0.1,0,0.3-0.1,0.4-0.2
										l6.5-6.9c0.2-0.2,0.2-0.5,0-0.7C286,409.7,285.7,409.7,285.5,409.9z"/>
									<path class="st12" d="M205,375.7c0.1,0,0.1,0,0.2,0c0.3-0.1,0.4-0.4,0.3-0.7l-4.6-11.1c-0.1-0.3-0.4-0.4-0.7-0.3
										c-0.3,0.1-0.4,0.4-0.3,0.7l4.6,11.1C204.6,375.5,204.8,375.7,205,375.7z"/>
									<path class="st12" d="M306.2,411.3c0.1,0,0.2,0,0.3-0.1l6.9-5.5c0.2-0.2,0.3-0.5,0.1-0.7c-0.2-0.2-0.5-0.3-0.7-0.1
										l-6.9,5.5c-0.2,0.2-0.3,0.5-0.1,0.7C305.9,411.2,306,411.3,306.2,411.3z"/>
									<path class="st12" d="M304.8,344.4c-0.1-0.3-0.4-0.4-0.7-0.3c-0.3,0.1-0.4,0.4-0.3,0.7l4.6,11.1c0.1,0.2,0.3,0.3,0.5,0.3
										c0.1,0,0.1,0,0.2,0c0.3-0.1,0.4-0.4,0.3-0.7L304.8,344.4z"/>
									<path class="st12" d="M307.1,404.3C307.1,404.3,307.2,404.3,307.1,404.3c0.4,0,0.5-0.3,0.5-0.6l-1.4-10.6
										c0-0.3-0.3-0.5-0.6-0.4c-0.3,0-0.5,0.3-0.4,0.6l1.4,10.6C306.6,404.1,306.9,404.3,307.1,404.3z"/>
									<path class="st12" d="M150.8,420.8c0.2-0.2,0.2-0.5,0-0.7c-0.2-0.2-0.5-0.2-0.7,0l-1.2,1.1v1.4L150.8,420.8z"/>
									<path class="st12" d="M177.3,366.5c-0.2,0.2-0.2,0.5,0,0.7l7.9,7.4c0.1,0.1,0.2,0.1,0.4,0.1c0.1,0,0.3-0.1,0.4-0.2
										c0.2-0.2,0.2-0.5,0-0.7l-7.9-7.4C177.8,366.3,177.5,366.3,177.3,366.5z"/>
									<path class="st12" d="M187.3,343.4c-0.2-0.2-0.5-0.2-0.7,0l-5.1,4.6c-0.2,0.2-0.2,0.5,0,0.7c0.1,0.1,0.2,0.2,0.4,0.2
										c0.1,0,0.2,0,0.3-0.1l5.1-4.6C187.5,343.9,187.5,343.6,187.3,343.4z"/>
									<path class="st12" d="M196.6,328.7c0.1,0.2,0.3,0.3,0.5,0.3c0.1,0,0.1,0,0.2,0c0.3-0.1,0.4-0.4,0.3-0.7l-4.2-10
										c-0.3,0.3-0.5,0.5-0.8,0.8L196.6,328.7z"/>
									<path class="st12" d="M195.7,349.4c-0.2-0.2-0.5-0.3-0.7-0.1l-6.9,5.5c-0.2,0.2-0.3,0.5-0.1,0.7c0.1,0.1,0.3,0.2,0.4,0.2
										c0.1,0,0.2,0,0.3-0.1l6.9-5.5C195.8,349.9,195.8,349.6,195.7,349.4z"/>
									<path class="st12" d="M194.4,390l-5.1,4.6c-0.2,0.2-0.2,0.5,0,0.7c0.1,0.1,0.2,0.2,0.4,0.2c0.1,0,0.2,0,0.3-0.1l5.1-4.6
										c0.2-0.2,0.2-0.5,0-0.7C195,389.8,194.7,389.8,194.4,390z"/>
									<path class="st12" d="M170.3,393.2C170.3,393.2,170.3,393.2,170.3,393.2c0.3,0,0.5-0.3,0.5-0.6l-1.4-10.6
										c0-0.3-0.3-0.5-0.6-0.4c-0.3,0-0.5,0.3-0.4,0.6l1.4,10.6C169.8,393,170,393.2,170.3,393.2z"/>
									<path class="st12" d="M161.5,362.3c0.1,0,0.3-0.1,0.4-0.2l6.5-6.9c0.2-0.2,0.2-0.5,0-0.7c-0.2-0.2-0.5-0.2-0.7,0l-6.5,6.9
										c-0.2,0.2-0.2,0.5,0,0.7C161.3,362.2,161.4,362.3,161.5,362.3z"/>
									<path class="st12" d="M148.9,382l2.3-1.9c0.2-0.2,0.3-0.5,0.1-0.7c-0.2-0.2-0.5-0.3-0.7-0.1l-1.7,1.4V382z"/>
									<path class="st12" d="M155.8,393.6c-0.3,0.1-0.4,0.4-0.3,0.7l4.6,11.1c0.1,0.2,0.3,0.3,0.5,0.3c0.1,0,0.1,0,0.2,0
										c0.3-0.1,0.4-0.4,0.3-0.7l-4.6-11.1C156.3,393.6,156,393.5,155.8,393.6z"/>
									<path class="st12" d="M212.5,423.6c0.1,0.1,0.2,0.1,0.4,0.1c0.1,0,0.3-0.1,0.4-0.2l6.5-6.9c0.2-0.2,0.2-0.5,0-0.7
										c-0.2-0.2-0.5-0.2-0.7,0l-6.5,6.9C212.2,423.1,212.3,423.4,212.5,423.6z"/>
									<path class="st12" d="M252.1,425.3c-0.1-0.3-0.4-0.4-0.7-0.3c-0.3,0.1-0.4,0.4-0.3,0.7l3.4,8.1h1.1L252.1,425.3z"/>
									<path class="st12" d="M229.3,427.9c-0.2-0.2-0.5-0.2-0.7,0c-0.2,0.2-0.2,0.5,0,0.7l5.5,5.2h1.5L229.3,427.9z"/>
									<path class="st12" d="M314.9,377.5c-0.2-0.2-0.5-0.2-0.7,0c-0.2,0.2-0.2,0.5,0,0.7l7.9,7.4c0.1,0.1,0.2,0.1,0.4,0.1
										c0.1,0,0.3-0.1,0.4-0.2c0.2-0.2,0.2-0.5,0-0.7L314.9,377.5z"/>
									<path class="st12" d="M272.3,335c-0.2-0.2-0.5-0.2-0.7,0l-6.5,6.9c-0.2,0.2-0.2,0.5,0,0.7c0.1,0.1,0.2,0.1,0.4,0.1
										c0.1,0,0.3-0.1,0.4-0.2l6.5-6.9C272.6,335.5,272.5,335.2,272.3,335z"/>
									<path class="st12" d="M229.9,335.9c0.1,0,0.3-0.1,0.4-0.2c0.2-0.2,0.2-0.5,0-0.7l-7.9-7.4c-0.2-0.2-0.5-0.2-0.7,0
										c-0.2,0.2-0.2,0.5,0,0.7l7.9,7.4C229.7,335.9,229.8,335.9,229.9,335.9z"/>
									<path class="st12" d="M228.5,406.6C228.6,406.6,228.6,406.6,228.5,406.6c0.3,0,0.5-0.3,0.5-0.6l-1.4-10.6
										c0-0.3-0.3-0.5-0.6-0.4c-0.3,0-0.5,0.3-0.4,0.6l1.4,10.6C228.1,406.4,228.3,406.6,228.5,406.6z"/>
									<path class="st12" d="M331.3,401.1l-5.1,4.6c-0.2,0.2-0.2,0.5,0,0.7c0.1,0.1,0.2,0.2,0.4,0.2c0.1,0,0.2,0,0.3-0.1l5.1-4.6
										c0.2-0.2,0.2-0.5,0-0.7C331.8,400.9,331.5,400.9,331.3,401.1z"/>
									<path class="st12" d="M337.6,374.9c-0.1-0.3-0.4-0.4-0.7-0.3c-0.3,0.1-0.4,0.4-0.3,0.7l4.6,11.1c0.1,0.2,0.3,0.3,0.5,0.3
										c0.1,0,0.1,0,0.2,0c0.3-0.1,0.4-0.4,0.3-0.7L337.6,374.9z"/>
									<path class="st12" d="M332.5,360.5c-0.2-0.2-0.5-0.3-0.7-0.1l-6.9,5.5c-0.2,0.2-0.3,0.5-0.1,0.7c0.1,0.1,0.3,0.2,0.4,0.2
										c0.1,0,0.2,0,0.3-0.1l6.9-5.5C332.6,361,332.7,360.7,332.5,360.5z"/>
									<path class="st12" d="M318,419c-0.3,0.1-0.4,0.4-0.3,0.7l4.6,11.1c0.1,0.2,0.3,0.3,0.5,0.3c0.1,0,0.1,0,0.2,0
										c0.3-0.1,0.4-0.4,0.3-0.7l-4.6-11.1C318.6,419.1,318.3,418.9,318,419z"/>
									<path class="st12" d="M226.6,368.6c0.2-0.2,0.2-0.5,0-0.7c-0.2-0.2-0.5-0.2-0.7,0l-6.5,6.9c-0.2,0.2-0.2,0.5,0,0.7
										c0.1,0.1,0.2,0.1,0.4,0.1c0.1,0,0.3-0.1,0.4-0.2L226.6,368.6z"/>
									<path class="st12" d="M253.9,362.8c-0.2-0.2-0.5-0.3-0.7-0.1l-6.9,5.5c-0.2,0.2-0.3,0.5-0.1,0.7c0.1,0.1,0.3,0.2,0.4,0.2
										c0.1,0,0.2,0,0.3-0.1l6.9-5.5C254,363.4,254.1,363,253.9,362.8z"/>
									<path class="st12" d="M252.7,403.4l-5.1,4.6c-0.2,0.2-0.2,0.5,0,0.7c0.1,0.1,0.2,0.2,0.4,0.2c0.1,0,0.2,0,0.3-0.1l5.1-4.6
										c0.2-0.2,0.2-0.5,0-0.7C253.2,403.2,252.9,403.2,252.7,403.4z"/>
									<path class="st12" d="M234.1,356.7c0.1,0,0.2,0,0.3-0.1l5.1-4.6c0.2-0.2,0.2-0.5,0-0.7c-0.2-0.2-0.5-0.2-0.7,0l-5.1,4.6
										c-0.2,0.2-0.2,0.5,0,0.7C233.8,356.7,233.9,356.7,234.1,356.7z"/>
									<path class="st12" d="M258.4,377c-0.3,0.1-0.4,0.4-0.3,0.7l4.6,11.1c0.1,0.2,0.3,0.3,0.5,0.3c0.1,0,0.1,0,0.2,0
										c0.3-0.1,0.4-0.4,0.3-0.7l-4.6-11.1C258.9,377,258.6,376.9,258.4,377z"/>
									<path class="st12" d="M240,310.6c-0.2-0.2-0.5-0.3-0.7-0.1l-6.9,5.5c-0.2,0.2-0.3,0.5-0.1,0.7c0.1,0.1,0.3,0.2,0.4,0.2
										c0.1,0,0.2,0,0.3-0.1l6.9-5.5C240.2,311.1,240.2,310.8,240,310.6z"/>
									<path class="st12" d="M244.5,324.8c-0.3,0.1-0.4,0.4-0.3,0.7l4.6,11.1c0.1,0.2,0.3,0.3,0.5,0.3c0.1,0,0.1,0,0.2,0
										c0.3-0.1,0.4-0.4,0.3-0.7l-4.6-11.1C245.1,324.8,244.8,324.6,244.5,324.8z"/>
									<path class="st12" d="M239.6,417.3c0.1,0,0.2,0,0.3-0.1l6.9-5.5c0.2-0.2,0.3-0.5,0.1-0.7c-0.2-0.2-0.5-0.3-0.7-0.1
										l-6.9,5.5c-0.2,0.2-0.3,0.5-0.1,0.7C239.3,417.2,239.5,417.3,239.6,417.3z"/>
									<path class="st12" d="M214.7,354.4C214.7,354.4,214.7,354.4,214.7,354.4c0.3,0,0.5-0.3,0.5-0.6l-1.4-10.6
										c0-0.3-0.3-0.5-0.6-0.4c-0.3,0-0.5,0.3-0.4,0.6l1.4,10.6C214.2,354.2,214.4,354.4,214.7,354.4z"/>
									<path class="st12" d="M243.4,388c0.1,0.1,0.2,0.1,0.4,0.1c0.1,0,0.3-0.1,0.4-0.2c0.2-0.2,0.2-0.5,0-0.7l-7.9-7.4
										c-0.2-0.2-0.5-0.2-0.7,0c-0.2,0.2-0.2,0.5,0,0.7L243.4,388z"/>
								</g>
								<path class="st9" d="M205.7,433.9h140.8V295.7c-15.7-2.8-36.6-5.5-36.6-5.5l-65.2,11.7c0,0-36,2.7-40.5,6.3
									c-4.5,3.6-55.4,52.8-55.4,52.8v63.4l51.5-31.3L205.7,433.9z"/>
							</g>
							<g>
								<path class="st13" d="M296.9,337.9c0,0-9.9,18.4-14.8,34.6c-4.9,16.2-13,62.1-13,62.1h43.6c0,0,4.5-57.6,12.1-77.4
									c7.6-19.8,8.5-23.4,8.5-23.4L296.9,337.9z"/>
								<path class="st14" d="M253.1,327.3c0,0,21.4,19.6,45.5,27.6c24.1,7.9,40.5-9.6,42-15.7c1.4-6-40.9,0.5-59.5-5.7
									C262.4,327.3,251,320.5,253.1,327.3z"/>
								<path class="st14" d="M259.6,272.2c0,0-4-4-7.6,4.5c-3.3,7.8-10.1,27-10.3,26.1c1.8,5.8-0.9,14.4,14.8,26.5
									c15.7,12.1,40.7,21.1,54.9,21.1c15.3,0,25.6-4.5,29.2-11.2c3.6-6.7,4-14.8,4-20.2c0-5.4-1.3-10.3-4-18
									c-2.7-7.6-16.2-15.3-22.5-22.5c-6.3-7.2-0.4-5.4-13.5-10.3s-29.7-2.7-34.6-1.8C265,267.3,259.6,272.2,259.6,272.2z"/>
								<g>
									<path class="st15" d="M258.7,264.6c0,0,1.8,26.1,3.1,33.3c1.3,7.2,28.3,22.5,37.8,21.6c9.4-0.9,10.8-14.4,9.9-22.9
										c-0.9-8.5-3.6-25.2-3.6-25.2s-25.2,8.1-34.2,0.9C262.7,265,258.7,264.6,258.7,264.6z"/>
									<path class="st14" d="M262.1,292.4c19.4-2.6,34.8-8.8,34.8-8.8l9.8-7.4c-0.4-2.9-0.8-4.8-0.8-4.8s-25.2,8.1-34.2,0.9
										c-9-7.2-13-7.6-13-7.6s1.2,17.6,2.4,27.9C261.4,292.5,261.7,292.4,262.1,292.4z"/>
								</g>
								<g>
									<path class="st13" d="M337.8,296.5c0.4,3.7,0.1,11.1-8.5,13.1c-11.7,2.7-38.7,0-57.1-9c-15.9-7.7-17.7-23.4-18-27.7
										c-0.8,0.8-1.5,2.1-2.3,3.9c-3.6,8.5-11.7,18.7-11,24.7c0.2,2.2-0.2,15.7,15.5,27.9c15.7,12.1,40.7,21.1,54.9,21.1
										c15.3,0,25.6-4.5,29.2-11.2c3.6-6.7,4-14.8,4-20.2c0-5.4-1.3-10.3-4-18C340,299.5,339,298,337.8,296.5z"/>
									<path class="st9" d="M339.1,318.3c1.2-1.3,2.4-2.6,3.5-4.1"/>
									<path class="st9" d="M247.7,285.7c0,0-4.9,14.4,16.9,33.8c18.8,16.7,50.1,17.8,69.5,3.1"/>
									<path class="st9" d="M248.1,296.9c0,0-0.8,25.6,25.2,42.9"/>
								</g>
							</g>
							<g>
								<g>
									<path class="st14" d="M247.2,160.3c0,0-27.3-1.4-34.3,13.9s12.5,18.5,12.1,20.9c-0.5,2.3-7.9,7.4-2.8,11.1
										c5.1,3.7,11.6,5.1,12.1,7c0.5,1.9,4.2,9.7,4.2,9.7s4.6,2.8,7.9,0.9c3.2-1.9,2.3-10.2,5.1-14.4c2.8-4.2,2.8-9.3,12.1-16.2
										c9.3-7,31.1-7.4,34.8-6c3.7,1.4,9.3,1.9,11.6,5.6c2.3,3.7,1.9,22.7,3.7,22.7s0.9-12.5,5.1-21.8c4.2-9.3,12.1-18.1,8.8-31.1
										c-3.2-13-17.1-19.9-21.3-14.4c-4.2,5.6-4.2,10.2-12.1,4.2c-7.9-6-19-14.4-36.2-9.7C240.7,147.3,238.9,151.5,247.2,160.3z"
										/>
									<g>
										<path class="st16" d="M260.8,147.5c-1.9-0.6-3.2-0.9-3.7-0.9"/>
										<path class="st16" d="M279.1,181.1c0,0,9.5-4.8,9.5-12.1c0-8.4-12.1-15.3-21.4-19.1"/>
										<path class="st16" d="M276.6,181.9c0,0,3.1-10.6-7.9-15.8c-7.8-3.7-17.4-4.2-17.4-4.2"/>
										<path class="st16" d="M223.7,174.8c-1.2,0-2.2,0-3.1,0"/>
										<path class="st16" d="M268.3,178.2c0,0-5.4-6.2-19.1-5c-8.4,0.8-15.4,1.2-20.7,1.5"/>
										<path class="st16" d="M310.6,169.1c1.1-0.8,2.3-1.8,3.4-2.9c5.8-5.8,0-14.1,0-14.1"/>
										<path class="st16" d="M302,173.2c0,0,2.3-0.5,5.4-2.1"/>
										<path class="st16" d="M245,191c0,0-10.8,9.6-16.2,10.8"/>
									</g>
								</g>
								<path class="st15" d="M311,210.4c0,0,1.5-10.5,9.4-5.9c8,4.6,1.1,19.9-1,24.8c-2,4.9-6.3,7-7.5,2.5
									C310.8,227.2,311,210.4,311,210.4z"/>
								<g>
									<path class="st15" d="M242.6,216.4c0,0-4.2-9.7-10.7-3.2c-6.5,6.5,4.2,19.5,7.4,23.6c3.2,4.2,7.9,5.1,7.9,0.5
										S242.6,216.4,242.6,216.4z"/>
									<path class="st15" d="M243.7,209.8c0,0,3,40.9,8.6,52.5c5.6,11.6,25,26,38,25.5c13-0.5,24.1-18.5,26-32.9
										c1.9-14.4-3.2-64-3.2-64s-4.2-14.4-11.6-15.3c-7.4-0.9-15.3,6.5-23.2,7c-7.9,0.5-13.9-7.4-22.2-4.2
										c-8.3,3.2-12.1,10.2-8.8,13c3.2,2.8,6.5,5.1,2.8,10.2C246.3,206.7,243.7,209.8,243.7,209.8z"/>
									<path class="st17" d="M310.2,199.7c0,0-2.3-2.8-7.4-2.8s-8.8,2.8-8.8,2.8"/>
									<path class="st17" d="M274.6,204.3c0,0-9.7-4.2-17.1,4.2"/>
									<path class="st18" d="M270.4,217.5c0,2.4-1.1,4.4-2.5,4.4c-1.4,0-2.5-2-2.5-4.4s1.1-4.4,2.5-4.4
										C269.2,213.1,270.4,215.1,270.4,217.5z"/>
									<path class="st18" d="M300.5,213.8c0,2.4-1.1,4.4-2.5,4.4c-1.4,0-2.5-2-2.5-4.4s1.1-4.4,2.5-4.4
										C299.4,209.4,300.5,211.4,300.5,213.8z"/>
									<line class="st9" x1="262" y1="223.8" x2="271.3" y2="224.3"/>
									<line class="st9" x1="298.7" y1="222.4" x2="306.1" y2="218.7"/>
									<path class="st14" d="M316.3,254.9c0.7-5.6,0.4-16.4-0.3-27.6c-0.3,3.2-0.9,7.2-2,10.5c-2.3,6.5-2.3,8.8-3.7,10.2
										c-1.4,1.4-2.8-1.9-5.1-5.1s-23.2,0-23.2,0c-2.3-0.5-13.4,1.4-18.5,3.2c-5.1,1.9-6,7.9-5.6,10.2c0.5,2.3-5.1-3.2-7.9-11.1
										c-2.8-7.9-5.6-21.8-5.6-21.8s1.2,9.3,2.5,19.3c1.6,8.1,3.5,15.6,5.4,19.6c5.6,11.6,25,26,38,25.5
										C303.3,287.3,314.4,269.2,316.3,254.9z"/>
									<path class="st16" d="M261.6,272.6c0,0,5.7,7.5,17.2,12.3"/>
									<g>
										<path class="st15" d="M276.4,254.9c0,0,3.2,6,10.2,7c7,0.9,8.8-9.7,8.8-9.7l-18.1,0.9C277.3,253,275.5,252.1,276.4,254.9z
											"/>
										<path class="st15" d="M274.6,253c0,0,1.9,11.1,11.6,13c9.7,1.9,12.1-14.8,12.1-14.8L274.6,253z"/>
										<path class="st14" d="M280.8,253.4c0,0,0.9,5.5,5.7,6.4s5.9-7.3,5.9-7.3L280.8,253.4z"/>
										<path class="st15" d="M302.8,249.8c0,0-11.6,5.1-18.5,5.1c-7,0-14.4-2.3-14.4-2.3s13-3.7,19-3.7
											C294.9,248.8,302.8,249.8,302.8,249.8z"/>
									</g>
									<path class="st15" d="M292.6,202.5c0,0-5.6,7.9-5.1,9.3c0.5,1.4,7.4,26,4.2,29.7c-3.2,3.7-8.3,3.2-12.1,0.9
										c-3.7-2.3-7.4-6-6-7.9c1.4-1.9,3.7-2.3,3.7-2.3"/>
								</g>
							</g>
							<g>
								<g>
									<path class="st15" d="M153.9,289.3l7.8-19.8c0,0,0.9-1.8-2.9-7c-3.8-5.1-2.3-10.8,0.3-21.5c2.2-9.1,5.6-42.2,6.6-52
										c0.2-1.6,1.3-3,2.9-3.4l0,0c2.5-0.7,5.1,1.2,5.1,3.8v28.9l5,0.3l5.6-36.4c0.3-1.9,1.9-3.3,3.7-3.4l0,0
										c2.4-0.1,4.4,1.8,4.2,4.2l-1.7,36.2l2.8,0.4l8.2-36.2c0.5-2,2.4-3.4,4.5-3.2l0,0c2.2,0.2,3.8,2.2,3.6,4.5l-3.5,35.7
										l13.7-26.7c0.7-1.4,2.3-2.1,3.8-1.6l0,0c1.8,0.5,2.8,2.5,2.1,4.3l-14.1,35.5c0,0,5.6-4.7,11.1-9c5.6-4.3,10.2-3.8,8.5,1.3
										c-1.7,5.1-6,7.7-10.7,14.1c-4.7,6.4-7.3,14.9-11.1,21.8c-3.8,6.8-17.2,9.2-17.2,9.2s-14.8,26.2-16.1,27.1L153.9,289.3z"/>
									<line class="st9" x1="169.4" y1="218.3" x2="208.7" y2="221"/>
									<path class="st15" d="M181.6,264.6c0,0-4.1-8.2,5.7-20.6c9.8-12.4,15.4-10.7,15.4-10.7"/>
								</g>
								<g>
									<polygon class="st11" points="147.2,349.9 171.9,305.1 149.7,285.5 147.2,287.4 									"/>
									<g>
										<path class="st12" d="M149.5,308.2c0.1,0,0.2,0,0.3-0.1l6.9-5.5c0.2-0.2,0.3-0.5,0.1-0.7c-0.2-0.2-0.5-0.3-0.7-0.1
											l-6.9,5.5c-0.2,0.2-0.3,0.5-0.1,0.7C149.2,308.1,149.3,308.2,149.5,308.2z"/>
										<path class="st12" d="M162,316.2c-0.1-0.3-0.4-0.4-0.7-0.3c-0.3,0.1-0.4,0.4-0.3,0.7l1.9,4.7l0.6-1.2L162,316.2z"/>
									</g>
									<polygon class="st9" points="147.2,349.9 171.9,305.1 149.7,285.5 147.2,287.4 									"/>
								</g>
								<polygon class="st15" points="153.5,275.7 147.2,284.8 147.2,291.8 172.3,311.1 186,292.3 								"/>
							</g>
						</g>
					</g>
					<g>
						<g>
							
								<ellipse transform="matrix(0.9951 -9.881511e-02 9.881511e-02 0.9951 -39.0256 21.7966)" class="st19" cx="200.5" cy="404.9" rx="13.2" ry="13.2"/>
							<g>
								<path class="st18" d="M200.5,408.1L200.5,408.1c-1.5,0-2.7-1.2-2.7-2.7V397c0-1.5,1.2-2.7,2.7-2.7l0,0
									c1.5,0,2.7,1.2,2.7,2.7v8.5C203.2,406.9,202,408.1,200.5,408.1z"/>
								<g>
									<g>
										<path class="st18" d="M200.5,410.1c-2.6,0-4.7-2.1-4.7-4.7v-4c0-0.3,0.2-0.5,0.5-0.5s0.5,0.2,0.5,0.5v4
											c0,2.1,1.7,3.7,3.7,3.7c2.1,0,3.7-1.7,3.7-3.7v-4c0-0.3,0.2-0.5,0.5-0.5c0.3,0,0.5,0.2,0.5,0.5v4
											C205.3,407.9,203.1,410.1,200.5,410.1z"/>
									</g>
									<g>
										<path class="st18" d="M200.5,415.1c-0.3,0-0.5-0.2-0.5-0.5v-5.1c0-0.3,0.2-0.5,0.5-0.5c0.3,0,0.5,0.2,0.5,0.5v5.1
											C201,414.9,200.8,415.1,200.5,415.1z"/>
									</g>
									<g>
										<path class="st18" d="M203.8,415.4h-6.5c-0.3,0-0.5-0.2-0.5-0.5c0-0.3,0.2-0.5,0.5-0.5h6.5c0.3,0,0.5,0.2,0.5,0.5
											C204.3,415.2,204.1,415.4,203.8,415.4z"/>
									</g>
								</g>
							</g>
						</g>
						<g>
							
								<ellipse transform="matrix(0.9729 -0.2312 0.2312 0.9729 -85.7841 77.5926)" class="st19" cx="288.2" cy="404.9" rx="13.2" ry="13.2"/>
							<path class="st18" d="M296.4,401l-3.9,2.2v-1.8c0-0.9-0.7-1.6-1.6-1.6h-8.7c-0.9,0-1.6,0.7-1.6,1.6v7c0,0.9,0.7,1.6,1.6,1.6
								h8.7c0.9,0,1.6-0.7,1.6-1.6v-1.8l3.9,2.2V401z"/>
						</g>
						<g>
							
								<ellipse transform="matrix(0.9729 -0.2312 0.2312 0.9729 -86.9717 67.4565)" class="st20" cx="244.4" cy="404.9" rx="13.2" ry="13.2"/>
							<path class="st2" d="M251.1,402.1h-1.3h-1.9h-7h-1.2h-1.9c-1.6,0-2.8,1.4-2.5,3l0.4,2.1c0.1,0.3,0.3,0.5,0.6,0.5h4
								c0.3,0,0.6-0.3,0.6-0.6v-2.3h7v2.3c0,0.3,0.3,0.6,0.6,0.6h4c0.3,0,0.6-0.2,0.6-0.5l0.4-2.1
								C253.9,403.5,252.7,402.1,251.1,402.1z"/>
						</g>
					</g>
					<path class="st14" d="M353.7,180.7c0.8,0,1.4-0.6,1.4-1.4v-36.5c0-0.8-0.6-1.4-1.4-1.4h-3.5V71.7c0-9.7-7.9-17.5-17.5-17.5
						H161.4c-9.7,0-17.5,7.9-17.5,17.5v360.1c0,9.7,7.9,17.5,17.5,17.5h171.3c9.7,0,17.5-7.9,17.5-17.5V212.1h3.5
						c0.8,0,1.4-0.6,1.4-1.4v-16.3c0-0.8-0.6-1.4-1.4-1.4h-3.5v-12.4H353.7z M344.2,418.1c0,6.9-5.8,12.5-12.9,12.5H162.6
						c-7.1,0-12.9-5.6-12.9-12.5V75.5c0-6.9,5.8-12.5,12.9-12.5h66.5l2.8,5.1c2.9,5.5,8.8,8.9,15.1,8.9c6.3,0,12.1-3.4,15.1-8.9
						l2.8-5.1h66.5c7.1,0,12.9,5.6,12.9,12.5V418.1z"/>
					<path class="st15" d="M251.6,64.9c0-2.5-2.1-4.6-4.6-4.6c-2.5,0-4.6,2.1-4.6,4.6c0,2.5,2.1,4.6,4.6,4.6
						C249.5,69.5,251.6,67.4,251.6,64.9z"/>
				</g>
			</g>
			<g>
				<rect x="164" y="85.7" class="st21" width="56.5" height="97.3"/>
				<g>
					<path class="st13" d="M220.5,183v-29.7c-0.4-0.6-1-1.1-1.6-1.6c-4.7-3.6-19.4-1.7-22.2-1.6c-2.8,0.2-6.9,0.1-6.9,0.1
						s-8.2,0.3-15,0.6c-4.5,0.2-8.1,2.8-10.4,5.9V183H220.5z"/>
					<path class="st22" d="M183.8,150.3c0,0-6.4,0.9-7.4,7.9c-1,7,1.4,11.3,7.2,15.2s9.6,7.6,9.6,7.6s12.2-10.3,14-16.9
						c1.9-6.6-0.9-12.3-3.9-13.3C200.3,149.7,183.8,150.3,183.8,150.3z"/>
					<polygon class="st22" points="220.5,183 220.5,176 218.2,176.6 217.4,183 					"/>
					<polygon class="st22" points="170.1,183 169.6,180.9 164.4,180.4 164.4,183 					"/>
					<path class="st4" d="M166.8,167.9c1,4.2,1.9,8.3,2.9,12.5"/>
					<path class="st18" d="M218.2,138.1c0.5-0.4,1.4-1,2.3-1.7v-27.3c-1.1-0.9-2.7-1.5-3.1-2.7c-0.6-1.8,1.3-4.1,0-6.3
						c-1.3-2.2-6.5-0.2-9-0.8c-2.5-0.6-3.1-1.8-4-3.9c-1-2.2-4.6-1.2-5.7-1c-1.1,0.2,2.9-3.7,0.8-6.1c-2.1-2.4-9-0.2-9.7,2.2
						c-0.8,2.4-3.6,0-4.4-2c-0.8-2-6.3-3.7-6.3-0.2c0,1.7,0.7,2.8,1.4,3.6c-1.8-1.1-4.7-2.6-6.6-1.4c-2.9,1.8,1.5,4.1,1.5,4.1
						s-0.6,0-5.3,0c-1.7,0-3.8,0.7-5.6,1.6v7.3c0.1,0,0.1,0,0.1,0s0,0-0.1,0v45c2,0,3.5-0.6,3.5,0.4c0,1.6,0.6,4.5,3.6,3.3
						c3.1-1.2,5.5-3.3,5.5-1.8s1.5,4.5,3.4,3.7c1.9-0.8,3.2-4.7,4.4-2.9c1.1,1.8,4,4.5,5.9,2.6c1.9-2,2.9-3.5,5.2-0.6
						c2.3,2.9,5.2,3.5,5.9,0.6c0.8-2.9,2.5-1.6,5.3,0c2.9,1.6,7.1,0.8,7.1-2.2c0-2.9-1.5-5.5,0.4-5.9c1.9-0.4,5.7-1.6,4.8-3.5
						C218.5,140.2,216.6,139.2,218.2,138.1z"/>
					<path class="st4" d="M217.6,180.9c0.6-4.7,1.2-9.3,1.8-14"/>
					<g>
						<path class="st22" d="M184.4,160.7c0,0,0.4-7.6,0.4-10.2c0-2.6,0-6,0-6l13.8-0.9c0,0,0.7,10.7,3.6,15.2"/>
						<g>
							<path class="st23" d="M175.2,128.3c0,0-2.9,3.2-2.9,4.3c0,1.1,2,4,3.6,4.5s2.1-0.6,2.1-1.3
								C178,135.2,175.2,128.3,175.2,128.3z"/>
							<path class="st22" d="M204.5,127.1c0,0,3.9,1.8,4.4,2.8c0.4,1-0.3,4.5-1.5,5.5c-1.2,1-2.2,0.2-2.4-0.3
								C204.6,134.4,204.5,127.1,204.5,127.1z"/>
							<path class="st23" d="M179.7,110.3c0,0-5.3,3.5-5.9,8.4c-0.6,4.9,3.7,20.6,5.5,23.2c1.8,2.7,11.8,8.8,14.7,8.4
								c2.9-0.4,9.6-9.6,10.8-11.6c1.2-2,0.2-17.3-0.8-23.9c-1-6.5-8.2-8-14.9-8S179.7,110.3,179.7,110.3z"/>
							<path class="st18" d="M186.7,126.1c0,1-0.5,1.7-1.1,1.7c-0.6,0-1.1-0.8-1.1-1.7c0-1,0.5-1.7,1.1-1.7
								C186.2,124.4,186.7,125.2,186.7,126.1z"/>
							<path class="st18" d="M198.1,124.8c0,1-0.5,1.7-1.1,1.7s-1.1-0.8-1.1-1.7c0-1,0.5-1.7,1.1-1.7S198.1,123.9,198.1,124.8z"/>
							<path class="st9" d="M193.1,123.1c0,0-0.4,5.2,0.7,5.5c1.2,0.3,2.2,2.9,0,3.8c-2.2,0.9-3.2-0.1-3.5-1.2"/>
							<line class="st24" x1="182.6" y1="128.8" x2="186.5" y2="128.6"/>
							<line class="st24" x1="196.7" y1="127.5" x2="200.1" y2="125.9"/>
							<path class="st18" d="M177.8,108.7c0,0,3.5,1,2.2,2.7c-1.2,1.6-3.7,4.3-1.8,4.7c1.8,0.4,2.2,0.8,1,1.2
								c-1.2,0.4-3.5,2.2-0.2,2.7c3.3,0.4,4.7-0.4,5.7-3.3c1-2.9,1-2,3.5-0.6c2.4,1.4,4.3-3.1,3.3-4.7c-1-1.6-2.7-0.4-2.4-2.9
								c0.2-2.4,1.4-3.9,1.4-3.9l3.1,1.8c0,0-2.4,2-0.6,3.9c1.8,1.8,4.1,2.2,2.7,2.7c-1.4,0.4-3.5,2.9-0.8,3.3
								c2.7,0.4,4.5-1.4,4.5-3.1c0-1.6-1.2-3.3,0-4.5c1.2-1.2,2.7-2.7,2.7-2.7s-0.4-3.3-7.7-4.5c-7.3-1.2-13.3,1.8-14.5,3.1
								C178.4,105.8,177.8,108.7,177.8,108.7z"/>
							<g>
								<g>
									<path class="st25" d="M184.8,136.4c0,0,3,4.1,4.8,5.2c1.8,1,5.4,0.6,7-0.7c1.6-1.3,2.9-6,2.9-6s-3.7,1.9-7.9,2
										C187.5,137,184.8,136.4,184.8,136.4z"/>
									<path class="st15" d="M188,137.6c0,0,1.7,2.2,4.3,2c4.1-0.2,5.4-4,5.4-4l-11.1,1.1L188,137.6z"/>
								</g>
								<path class="st26" d="M199.8,134.2c0,0-1,0.8-2.9,0.9c-2,0.1-4.1,0.7-4.1,0.7s-1.1-0.4-3.4,0.1c-2.3,0.5-5.2,0.1-5.2,0.1
									s2.4,1.7,8.3,1.2C199.3,136.7,199.8,134.2,199.8,134.2z"/>
							</g>
							<path class="st27" d="M180.3,122.7c0.5-0.7,1.4-1.6,2.9-2.3c2.5-1.2,4-0.6,4-0.6"/>
							<path class="st27" d="M193.8,118.1c0,0,2.4-1.4,4.9-0.5c1.1,0.4,1.8,1,2.1,1.4"/>
						</g>
					</g>
				</g>
			</g>
			<line class="st9" x1="46.3" y1="449.3" x2="461.6" y2="449.3"/>
		</g>
	</g>
</g>
</svg>
