<?xml version="1.0" encoding="utf-8"?>
<!-- Generator: Adobe Illustrator 19.0.0, SVG Export Plug-In . SVG Version: 6.00 Build 0)  -->
<svg version="1.1" id="Calque_1" xmlns="http://www.w3.org/2000/svg" xmlns:xlink="http://www.w3.org/1999/xlink" x="0px" y="0px"
	 viewBox="-105 197 400 400" style="enable-background:new -105 197 400 400;" xml:space="preserve">
<style type="text/css">
	.st0{clip-path:url(#SVGID_2_);fill:#7B63D3;}
	.st1{clip-path:url(#SVGID_2_);fill:#5D4394;}
	.st2{clip-path:url(#SVGID_2_);fill:#9684EF;}
</style>
<g>
	<defs>
		<path id="SVGID_1_" d="M-87.4,376.3c0,0-23.3-41.5,0-60.3s128.9,17.6,176.6,11.3s134.5-35.2,154-44.6
			c19.5-9.4,57.8,30.8,39.6,79.8s-81.7,149-159.7,150.2C45.3,514-67.2,419.7-87.4,376.3z"/>
	</defs>
	<clipPath id="SVGID_2_">
		<use xlink:href="#SVGID_1_"  style="overflow:visible;"/>
	</clipPath>
	<path class="st0" d="M-87.4,376.3c0,0-23.3-41.5,0-60.3s128.9,17.6,176.6,11.3s134.5-35.2,154-44.6c19.5-9.4,57.8,30.8,39.6,79.8
		s-81.7,149-159.7,150.2C45.3,514-67.2,419.7-87.4,376.3z"/>
	<path class="st1" d="M-149.6,371.3c0,0,66.6,35.8,214.4,14.5s169.7-88.6,162.2-122c-7.5-33.3-264-53.4-304.3-26.4
		S-149.6,371.3-149.6,371.3z"/>
	<path class="st2" d="M88,555.5c0,0-40.2-40.9-32.1-80.5s174.8-12.1,191.7,18.8s-101.8,81.8-101.8,81.8L88,555.5z"/>
</g>
</svg>
