<?xml version="1.0" encoding="utf-8"?>
<!-- Generator: Adobe Illustrator 19.0.0, SVG Export Plug-In . SVG Version: 6.00 Build 0)  -->
<svg version="1.1" id="Calque_1" xmlns="http://www.w3.org/2000/svg" xmlns:xlink="http://www.w3.org/1999/xlink" x="0px" y="0px"
	 viewBox="-105 197 400 400" style="enable-background:new -105 197 400 400;" xml:space="preserve">
<style type="text/css">
	.st0{clip-path:url(#SVGID_2_);fill:#9684EF;}
	.st1{clip-path:url(#SVGID_2_);fill:#7E79CC;}
	.st2{clip-path:url(#SVGID_2_);fill:#ABA0F9;}
</style>
<g>
	<defs>
		<path id="SVGID_1_" d="M-32.8,227.2c0,0,154.8-70.5,263.9,62.4s61.6,302.6-15.8,295.6S90.3,475.3,62.2,464.7S-39,452-75.9,406.9
			S-129.6,262.4-32.8,227.2z"/>
	</defs>
	<clipPath id="SVGID_2_">
		<use xlink:href="#SVGID_1_"  style="overflow:visible;"/>
	</clipPath>
	<path class="st0" d="M-32.8,227.2c0,0,154.8-70.5,263.9,62.4s61.6,302.6-15.8,295.6S90.3,475.3,62.2,464.7S-39,452-75.9,406.9
		S-129.6,262.4-32.8,227.2z"/>
	<path class="st1" d="M-91,132c0,0,154,71,142,218s-84,195-84,195l-283-77l-26-183L-91,132z"/>
	<path class="st2" d="M222,235c0,0-60,44-38,103.5S308,398,327,390s20-121,20-121L222,235z"/>
</g>
</svg>
