<?xml version="1.0" encoding="utf-8"?>
<!-- Generator: Adobe Illustrator 25.2.0, SVG Export Plug-In . SVG Version: 6.00 Build 0)  -->
<svg version="1.1" id="Layer_1" xmlns="http://www.w3.org/2000/svg" xmlns:xlink="http://www.w3.org/1999/xlink" x="0px" y="0px"
	 viewBox="0 0 1346.7 916.7" style="enable-background:new 0 0 1346.7 916.7;" xml:space="preserve">
<style type="text/css">
	.st0{fill:#0C0C19;}
	.st1{opacity:7.000000e-02;fill:#2E2E47;}
	.st2{clip-path:url(#SVGID_2_);}
	.st3{opacity:0.23;fill:#FFFFFF;}
	.st4{fill:#2E2E47;}
	.st5{fill:#FFA982;}
	.st6{fill:#CC8B70;}
	.st7{fill:#82A7AF;}
	.st8{fill:#7703FC;}
	.st9{fill:#FFC97D;}
	.st10{clip-path:url(#SVGID_4_);}
	.st11{fill:#BA2F2F;}
	.st12{fill:#07070C;}
	.st13{clip-path:url(#SVGID_6_);}
	.st14{fill:#FFC0DD;}
	.st15{fill:#C69B75;}
	.st16{fill:#464660;}
	.st17{fill:#F2836D;}
	.st18{fill:#FFFFFF;}
	.st19{fill:#2BA573;}
	.st20{fill:#3EC68C;}
	.st21{fill:#9C6F43;}
	.st22{fill:#C7A9F7;}
	.st23{fill:#A385E0;}
	.st24{fill:#18182F;}
</style>
<g>
	<rect x="1039.4" y="518.7" class="st0" width="26.1" height="285.6"/>
	<g>
		<ellipse class="st1" cx="754.3" cy="779.3" rx="206.8" ry="25.2"/>
		<g>
			<defs>
				<path id="SVGID_1_" d="M709.1,366.7c0,0-41.2,60.4-64.6,86.1c0,0-8,17.6,18,33.8c11.3,7,21.7,3.6,21.7,3.6
					c32.5-34.2,51.6-81.6,53.4-95.7C740,375.3,724.2,345.2,709.1,366.7z"/>
			</defs>
			<use xlink:href="#SVGID_1_"  style="overflow:visible;fill:#7703FC;"/>
			<clipPath id="SVGID_2_">
				<use xlink:href="#SVGID_1_"  style="overflow:visible;"/>
			</clipPath>
			<g class="st2">
				
					<rect x="648.7" y="411.4" transform="matrix(0.9597 0.2811 -0.2811 0.9597 152.5648 -165.2637)" class="st3" width="7.2" height="75.4"/>
				
					<rect x="684.9" y="353.1" transform="matrix(0.9597 0.2811 -0.2811 0.9597 147.1229 -176.4325)" class="st3" width="7.2" height="142.8"/>
				
					<rect x="711.6" y="360.9" transform="matrix(0.9597 0.2812 -0.2812 0.9597 150.4115 -183.6376)" class="st3" width="7.2" height="142.8"/>
				
					<rect x="704.1" y="322.7" transform="matrix(-0.2811 0.9597 -0.9597 -0.2811 1263.4202 -202.8295)" class="st3" width="7.2" height="98.2"/>
				
					<rect x="696.3" y="349.4" transform="matrix(-0.2812 0.9597 -0.9597 -0.2812 1279.0468 -161.0756)" class="st3" width="7.2" height="98.2"/>
				
					<rect x="688.4" y="376.1" transform="matrix(-0.2812 0.9597 -0.9597 -0.2812 1294.6559 -119.3388)" class="st3" width="7.2" height="98.2"/>
				
					<rect x="680.6" y="402.8" transform="matrix(-0.2812 0.9597 -0.9597 -0.2812 1310.267 -77.6)" class="st3" width="7.2" height="98.2"/>
				
					<rect x="672.8" y="429.6" transform="matrix(-0.2812 0.9597 -0.9597 -0.2812 1325.8781 -35.8612)" class="st3" width="7.2" height="98.2"/>
			</g>
		</g>
		<path class="st4" d="M721.3,436.9c-4.9-16-11.1-32.5-16.4-38.3c0,0,0.9,44.3,0.2,65.5C711.4,455,716.8,445.7,721.3,436.9z"/>
		<path class="st5" d="M640.5,560.7c-23.5,12.4-18.8,42.3-14.8,52.4c3.6,9.1,63.9,151.7,68.2,161.3c4.2,9.6,19.3,3.6,24.2-2.9
			c4.9-6.4-38.6-158.1-38.6-158.1s5.2-0.6,13.4-1.7c-11.7-24.1-23.8-40.7-23.8-40.7C656.2,564.7,647.5,561.2,640.5,560.7z"/>
		<g>
			<g>
				<g>
					<path class="st6" d="M836.2,617.3c0,0-16.3,153.3-21.3,152c-1.5-0.4-4.6-0.3-5.3-3.8c-6-28.8,14.3-151.5,14.3-151.5
						L836.2,617.3z"/>
				</g>
				<g>
					<path class="st6" d="M865.3,616.2c0,0,39.4,148.5,34.4,149.2c-1.6,0.2-4.3,1.6-6.2-1.4c-15.8-24.2-40.7-146-40.7-146
						L865.3,616.2z"/>
				</g>
			</g>
			<g>
				<g>
					<path class="st6" d="M737.6,617.3c0,0-16.3,153.3-21.3,152c-1.5-0.4-4.6-0.3-5.3-3.8c-6-28.8,14.3-151.5,14.3-151.5
						L737.6,617.3z"/>
				</g>
				<g>
					<path class="st6" d="M766.7,616.2c0,0,39.4,148.5,34.4,149.2c-1.6,0.2-4.3,1.6-6.2-1.4c-15.8-24.2-40.7-146-40.7-146
						L766.7,616.2z"/>
				</g>
			</g>
			<path class="st0" d="M898.2,508.5c0,0,1.2-81.5-44.6-93.8s-80.2,86.4-91.1,94.5c-10.9,8.1-64.1,8-71.7,32
				c-7.6,24-9.2,65.9,30.3,77.6c39.5,11.7,138.1,17.4,162.4-5.8C907.9,589.7,898.2,508.5,898.2,508.5z"/>
		</g>
		<path class="st7" d="M762.2,514.8c-15.9-1.2-55.7,20.3-55.7,20.3s-48.7,17.4-60.6,21.5c-4,1.4-7.3,3.3-10.1,5.7
			c2.8,0.2,6.5,0.7,10.9,1.5c13.6,2.6,25.4,10.9,32.6,22.7c4.1,6.7,8.9,15.3,13.7,25.2c31.3-3.9,106.6-13.3,110.9-15
			c7.3-2.8,12.7-9.2,14.3-16.9c1.1-5.5,1.3-10.3,1.3-10.3S782,516.3,762.2,514.8z"/>
		<path class="st7" d="M776.4,541.6c-15.8,1.5-78.1,25.1-89.7,31.4c-6.6,11.3,8.7,36.4,53.4,54.2c8.5-2.7,40.7-13,102.5-28.2
			c7.6-1.9,17.6-5.5,19.1-20.9c0.6-5.6,1.5-22.4,1.5-22.4S796.2,539.7,776.4,541.6z"/>
		<path class="st8" d="M715.8,456.6c-2.4-36.1-28.9-80.7,8-103.5c30.5-18.9,63.2-7.5,90.3,19.9c52.6,53.1,52.5,208,52.5,208
			s-36.7-2.9-96.1-26.1c-6.7-2.6-47.2-12.9-49.2-13.4C708.9,538.6,720.4,525,715.8,456.6z"/>
		<g>
			<path class="st9" d="M679.2,816.1c-5.3,1.1-10.4,0.4-13.3-0.2c-0.2-1.1-3.2-4.1-1.9-7.7c1.4-3.9,5.8-3.3,12.8-6.6
				c7-3.3,6.7-8.4,11.8-15.8c5-7.4-4.1-20.5-1.3-22.7c2.8-2.2,12.2-1.7,21.4-4.5c9.2-2.8,11.2-4.5,11.2-4.5c5.8,2.9,3,8.4,4.4,13.3
				c1.5,4.9,3.2,5.1,7.4,10.9c4.1,5.8,4.6,10.3,4.6,10.3s-7.5,6.1-18.3,12C707.3,806.6,687.5,814.3,679.2,816.1z"/>
			<path class="st6" d="M665.9,816.2c0-0.1,0-0.2,0-0.3c2.9,0.6,8,1.4,13.3,0.2c8.3-1.8,28-9.5,38.8-15.5c10.8-6,18.3-12,18.3-12
				s1.1,0.1,1.9,1.4s4.7,6.6,4,8.1c-0.7,1.6-14.4,7.4-17.1,8.7c-2.8,1.3-3.4-2.2-4.8-2.8s-7.9,3.2-10.7,4.8
				c-2.8,1.5-0.8,1.4-0.7,2.6c0.2,1.3-1.7,1.3-7.2,3.6c-5.5,2.3-26.5,6.7-29.5,7.3c-3,0.7-5.3-0.5-6.4-2.5
				C664.8,817.9,665.5,817,665.9,816.2z"/>
			<path class="st4" d="M698.2,771.1c-0.9-0.8-2.3-7.2-2.8-9.9c3.9-0.5,8.6-1.1,13.3-2.5c4-1.2,6.7-2.2,8.4-3
				c0.5,3.7,1,9.6-0.4,11.2C714.7,769.3,699.3,772.1,698.2,771.1z"/>
		</g>
		<g>
			<defs>
				<path id="SVGID_3_" d="M715.8,456.6c-2.4-36.1-28.9-80.7,8-103.5c30.5-18.9,63.2-7.5,90.3,19.9c52.6,53.1,52.5,208,52.5,208
					s-36.7-2.9-96.1-26.1c-6.7-2.6-47.2-12.9-49.2-13.4C708.9,538.6,720.4,525,715.8,456.6z"/>
			</defs>
			<clipPath id="SVGID_4_">
				<use xlink:href="#SVGID_3_"  style="overflow:visible;"/>
			</clipPath>
			<g class="st10">
				
					<rect x="702.4" y="318.3" transform="matrix(0.9948 -0.102 0.102 0.9948 -44.1972 74.4587)" class="st11" width="7.2" height="302.2"/>
				
					<rect x="730.1" y="315.5" transform="matrix(0.9948 -0.102 0.102 0.9948 -43.7566 77.2554)" class="st3" width="7.2" height="302.2"/>
				
					<rect x="757.8" y="312.7" transform="matrix(0.9948 -0.102 0.102 0.9948 -43.33 80.08)" class="st3" width="7.2" height="302.2"/>
				
					<rect x="785.5" y="309.8" transform="matrix(0.9948 -0.102 0.102 0.9948 -42.8881 82.8726)" class="st3" width="7.2" height="302.2"/>
				
					<rect x="813.2" y="307" transform="matrix(0.9948 -0.102 0.102 0.9948 -42.4549 85.6836)" class="st3" width="7.2" height="302.2"/>
				
					<rect x="840.9" y="304.1" transform="matrix(0.9948 -0.102 0.102 0.9948 -42.0272 88.508)" class="st3" width="7.2" height="302.2"/>
				
					<rect x="757.8" y="233" transform="matrix(0.102 0.9948 -0.9948 0.102 1009.4855 -463.4135)" class="st11" width="7.2" height="188.9"/>
				
					<rect x="760.7" y="260.7" transform="matrix(0.102 0.9948 -0.9948 0.102 1039.6012 -441.3629)" class="st3" width="7.2" height="188.9"/>
				
					<rect x="763.5" y="288.4" transform="matrix(0.102 0.9948 -0.9948 0.102 1069.6868 -419.3227)" class="st3" width="7.2" height="188.9"/>
				
					<rect x="766.3" y="316.1" transform="matrix(0.102 0.9948 -0.9948 0.102 1099.7965 -397.2734)" class="st3" width="7.2" height="188.9"/>
				
					<rect x="769.2" y="343.7" transform="matrix(0.102 0.9948 -0.9948 0.102 1129.8835 -375.2335)" class="st3" width="7.2" height="188.9"/>
				
					<rect x="772" y="371.4" transform="matrix(0.102 0.9948 -0.9948 0.102 1159.9966 -353.1821)" class="st3" width="7.2" height="188.9"/>
				
					<rect x="774.9" y="399.1" transform="matrix(0.102 0.9948 -0.9948 0.102 1190.0973 -331.1359)" class="st11" width="7.2" height="188.9"/>
				
					<rect x="777.7" y="426.8" transform="matrix(0.102 0.9948 -0.9948 0.102 1220.1792 -309.0996)" class="st11" width="7.2" height="188.9"/>
				
					<rect x="780.5" y="454.5" transform="matrix(0.102 0.9948 -0.9948 0.102 1250.2783 -287.0548)" class="st11" width="7.2" height="188.9"/>
				
					<rect x="783.4" y="482.2" transform="matrix(0.102 0.9948 -0.9948 0.102 1280.395 -264.9997)" class="st3" width="7.2" height="188.9"/>
			</g>
		</g>
		<g>
			<path class="st4" d="M748.3,540.8c-0.1,0-0.1,0-0.2,0c-0.3-0.1-0.5-0.5-0.4-0.8c0-0.1,2.5-7.2,4.8-24.2c2.5-18.7-2.3-56-3.9-66.9
				c-1.4-9.7-4.4-21.5-7.1-31.9c-1.7-6.8-3.2-12.6-3.9-16.6c-1.7-9.7-4.1-30.5-4.1-30.7c0-0.4,0.2-0.7,0.6-0.7
				c0.4,0,0.7,0.2,0.7,0.6c0,0.2,2.5,20.9,4.1,30.6c0.7,3.9,2.2,9.7,3.9,16.5c2.7,10.4,5.7,22.3,7.1,32c1.6,11,6.4,48.4,3.9,67.3
				c-2.3,17.2-4.7,24.2-4.8,24.5C748.9,540.6,748.6,540.8,748.3,540.8z"/>
		</g>
		<rect x="440.3" y="522" class="st0" width="26.1" height="284.6"/>
		<rect x="263.1" y="556.4" class="st0" width="26.1" height="292.2"/>
		<rect x="969.7" y="556.4" class="st0" width="26.1" height="292.2"/>
		<g>
			<polygon class="st12" points="251.7,566.1 251.7,548.4 1148.1,506.1 1148.1,523.8 1004.8,565.2 			"/>
			<g>
				<polygon class="st0" points="251.7,548.4 470.7,506.1 1148.1,506.1 1004.8,547.5 				"/>
			</g>
		</g>
		<polygon class="st4" points="756.2,524.3 554.1,524.3 583.5,507.2 785.5,507.2 		"/>
		<g>
			<defs>
				<path id="SVGID_5_" d="M791.7,355c0,0,59.4,27.5,83.7,92.5c2.4,6.3,3.5,15.9,4.5,21.9c-14.3,16.9-43.3,3.1-67.2-4.7L791.7,355z"
					/>
			</defs>
			<use xlink:href="#SVGID_5_"  style="overflow:visible;fill:#7703FC;"/>
			<clipPath id="SVGID_6_">
				<use xlink:href="#SVGID_5_"  style="overflow:visible;"/>
			</clipPath>
			<g class="st13">
				
					<rect x="796.1" y="342.1" transform="matrix(0.9948 -0.102 0.102 0.9948 -37.6145 83.6916)" class="st3" width="7.2" height="135.3"/>
				
					<rect x="823.8" y="339.2" transform="matrix(0.9948 -0.102 0.102 0.9948 -37.1866 86.5173)" class="st3" width="7.2" height="135.3"/>
				
					<rect x="851.5" y="336.4" transform="matrix(0.9948 -0.102 0.102 0.9948 -36.746 89.3087)" class="st11" width="7.2" height="135.3"/>
				
					<rect x="819.4" y="315.8" transform="matrix(0.102 0.9948 -0.9948 0.102 1100.7543 -492.2672)" class="st3" width="7.2" height="95.4"/>
				
					<rect x="822.3" y="343.5" transform="matrix(0.102 0.9948 -0.9948 0.102 1130.8374 -470.2275)" class="st3" width="7.2" height="95.4"/>
				
					<rect x="825.1" y="371.2" transform="matrix(0.102 0.9948 -0.9948 0.102 1160.9545 -448.1758)" class="st3" width="7.2" height="95.4"/>
				
					<rect x="828" y="398.9" transform="matrix(0.102 0.9948 -0.9948 0.102 1191.0392 -426.1364)" class="st3" width="7.2" height="95.4"/>
			</g>
		</g>
		<path class="st5" d="M712.4,505.5c4.2-19.1,113.7-19.2,113.7-19.2l-1.1-29.1c23.2-8.7,40.6-7.3,48.5,5.5c6.9,39.5-2,61.4-58,63.6
			C765.7,528.1,708.6,522.7,712.4,505.5z"/>
		<g>
			<g>
				
					<rect x="359.3" y="453.5" transform="matrix(0.9893 -0.1458 0.1458 0.9893 -64.0762 58.2708)" class="st4" width="12.3" height="25.3"/>
				<path class="st14" d="M366.8,433.3c-0.1-0.9-1-1.6-2-1.5l-8.7,1.3c-0.9,0.1-1.6,1-1.5,2l2.9,19.5l12.1-1.8L366.8,433.3z"/>
			</g>
			<g>
				<rect x="374.6" y="452.5" class="st4" width="12.3" height="25.3"/>
				<path class="st8" d="M386.9,432.8c0-1-0.8-1.7-1.7-1.7l-8.8,0c-1,0-1.7,0.8-1.7,1.7l0,19.7l12.3,0L386.9,432.8z"/>
			</g>
			<polygon class="st15" points="389.7,537.9 357.2,538 344.9,465.8 398.3,465.6 			"/>
		</g>
		<path class="st4" d="M457.3,515.6c0,0,8.1-17.8,25.3-18.1c17.2-0.3,37.2,16.6,38.6,19.8c1.4,3.2-60.1,4.6-63.9,4
			C453.5,520.7,457.3,515.6,457.3,515.6z"/>
		<path class="st4" d="M740.1,627.3c0,0,3.4-1.2,1.1-5c-5.9-9.4-7.1-10.7-19.4-23c-10.8-10.8-38.6-19.2-36.5-17
			S732.9,627,740.1,627.3z"/>
		<g>
			<path class="st4" d="M832.1,370.5c0-2.4,1.9-4.4,4.4-4.5c20.7-0.7,109.9-4,154.3-13.1c26.2-5.4,44.4-10.9,49.8-12.6
				c0.8-0.3,1.7,0.4,1.7,1.2V445c0,4.3-2.8,8.2-6.9,9.5c-19.3,6.4-80.5,23-198.8,22.5c-2.5,0-4.5-2-4.5-4.5V370.5z"/>
			<polygon class="st4" points="945.6,459.7 945.6,527.2 971.2,523.5 971.2,453.2 			"/>
			<path class="st4" d="M1019,527.2c0,3.2-26.8,5.8-59.9,5.8c-33.1,0-59.9-2.6-59.9-5.8c0-3.2,26.8-5.8,59.9-5.8
				C992.2,521.4,1019,524,1019,527.2z"/>
		</g>
		<path class="st5" d="M626.8,470.6c-10.6,6.9-124,20.2-125.3,28.7c-2.7,17.7,95.1,21.2,143.9,9.8c12.7-3,26.2-14.5,36.1-26.5
			c0,0-3.1-10.5-15.5-20.2c-12.8-10-21.6-9.5-21.6-9.5C636.2,462,629.6,468.8,626.8,470.6z"/>
		<path class="st5" d="M522.8,492c0,0-20.6,2.5-22.8,2.1c-2.2-0.4-12.4-2.2-15.7-1.6c-3.2,0.6-9.1,3.6-12.1,4.8
			c-3,1.3-5.9,3.6-5.7,4.3c0.2,0.7,2.8,0.5,2.8,0.5s-4.7,2.4-3.6,4c1,1.6,3.1,1,3.9,0.7c0.9-0.3,12.8-0.7,12.8-0.7
			s-9.1,3.9-12.6,7.3c-3.5,3.4-2.7,6.3-0.3,5.2c2.4-1.1,16.9-6.8,18.3-6.9c1.4-0.1,11.3,0.3,11.9,0.8c0.7,0.4-14.9,4.4-16.5,6.1
			c-1.6,1.7-3,4.3-1.4,4.1c1.6-0.2,16.6-3.7,20.7-3.2c4.1,0.5,20-7,20.2-13.9C523.1,498.9,522.8,492,522.8,492z"/>
		<path class="st5" d="M686.7,573.1c-0.1,0-0.2,0.1-0.2,0.1c-24.8,13.8-17.1,46.5-12.7,58.5c6.5,17.6,62.5,131.4,68.3,140.1
			c5.8,8.7,18.7,2.2,22.4-5c3.7-7.2-29.5-141.3-25.2-143.7c0.4-0.2,1-0.5,1.8-0.7C728.2,597.5,701,580.6,686.7,573.1z"/>
		<g>
			<path class="st4" d="M609.5,480.6l-192.2-8.7c-1.7,0-3.1-1.4-3.1-3.1l-16.2-110.7c0-1.7,1.4-3.1,3.1-3.1l192.2,8.7
				c1.7,0,3.1,1.4,3.1,3.1l16.2,110.7C612.6,479.2,611.2,480.6,609.5,480.6z"/>
			<ellipse class="st16" cx="494.2" cy="536.2" rx="47.2" ry="9.7"/>
			<path class="st16" d="M478.7,410.1l23.4,1.3c1.6,0.1,2.7,1.5,2.5,3l-15.1,100.5l6.3,23.8l-32.5-1.5l-1.9-14.3
				c-0.9-6.7-0.8-13.4,0.2-20.1l14.3-90.5C476.1,411,477.3,410,478.7,410.1z"/>
		</g>
		<path class="st5" d="M726.2,497.9c0,0-22.8-0.8-35.2,0.1c-3.6,0.3-23.6,11.1-23.2,13c0.4,1.8,8.8-0.4,8.8-0.4s-10.1,5.7-9.9,6.7
			c0.2,1,3.9,0.8,3.9,0.8s-2.8,2.3-1.8,3.2c1,1,20.2-4.5,21.2-4.3c1,0.2-4.2,2-5.5,2.6c-1.3,0.6-5.5,1.6-5.2,3.5
			c0.3,1.9,16.1-3.3,19.7-3.6c3.6-0.3,6.6,3.9,17.2,2.5c7.1-0.9,17.2-7.8,16.8-14.9C732.5,500,726.2,497.9,726.2,497.9z"/>
		<g>
			<polygon class="st16" points="368.6,848 476.5,834.5 476.5,647 417.1,647 309.2,660.5 			"/>
			<rect x="309.2" y="660.5" class="st4" width="59.4" height="187.5"/>
		</g>
		<g>
			<path class="st9" d="M723.2,811.8c-5.3,1.1-10.4,0.4-13.3-0.2c-0.2-1.1-3.2-4.1-1.9-7.7c1.4-3.9,5.8-3.3,12.8-6.6
				c7-3.3,6.7-8.4,11.8-15.8c5-7.4-4.1-20.5-1.3-22.7c2.8-2.2,12.2-1.7,21.4-4.5c9.2-2.8,11.2-4.5,11.2-4.5c5.8,2.9,3,8.4,4.4,13.3
				c1.5,4.9,3.2,5.1,7.4,10.9c4.1,5.8,4.6,10.3,4.6,10.3s-7.5,6.1-18.3,12C751.2,802.3,731.5,810,723.2,811.8z"/>
			<path class="st6" d="M709.8,811.9c0-0.1,0-0.2,0-0.3c2.9,0.6,8,1.4,13.3,0.2c8.3-1.8,28-9.5,38.8-15.5c10.8-6,18.3-12,18.3-12
				s1.1,0.1,1.9,1.4s4.7,6.6,4,8.1c-0.7,1.6-14.4,7.4-17.1,8.7c-2.8,1.3-3.4-2.2-4.8-2.8c-1.4-0.6-7.9,3.2-10.7,4.8
				c-2.8,1.5-0.8,1.4-0.7,2.6c0.2,1.3-1.7,1.3-7.2,3.6c-5.5,2.3-26.5,6.7-29.5,7.3c-3,0.7-5.3-0.5-6.4-2.5
				C708.7,813.6,709.4,812.7,709.8,811.9z"/>
			<path class="st4" d="M742.1,766.7c-0.9-0.8-2.3-7.2-2.8-9.9c3.9-0.5,8.6-1.1,13.3-2.5c4-1.2,6.7-2.2,8.4-3
				c0.5,3.7,1,9.6-0.4,11.2C758.7,765,743.3,767.8,742.1,766.7z"/>
		</g>
		<g>
			<path class="st4" d="M700.3,689.5c-0.2,0-0.5-0.1-0.6-0.4c-0.2-0.4-19.9-42-25.4-54.4c-1.9-4.2-5.1-12.8-6.1-23.2
				c-0.9-9.6,0.6-18.1,4.2-24.5c7.9-14,20.7-17.8,21.2-17.9c0.4-0.1,0.7,0.1,0.8,0.5c0.1,0.4-0.1,0.7-0.5,0.8
				c-0.1,0-12.7,3.7-20.4,17.3c-3.5,6.1-4.9,14.3-4,23.7c0.7,7.5,2.9,15.8,6,22.8c5.5,12.4,25.2,54,25.4,54.4c0.2,0.3,0,0.7-0.3,0.9
				C700.5,689.5,700.4,689.5,700.3,689.5z"/>
		</g>
		<g>
			<path class="st4" d="M738.7,292.9c0,0,10,27.5,1.1,32.3c-14.3,7.6-18.9-26.9-17.1-30.6C724.5,290.8,735.5,290.2,738.7,292.9z"/>
			<path class="st5" d="M735.6,321.3c0,0,8.7,15.5,16.2,22.2c4.4,3.9-7.6,20.7-15.9,24.6c-8.3,3.8-5.8-15.8-7.7-20.8
				c-3.4-9.1-5.7-13.5-5.8-15.4C722.2,329.9,732.2,320,735.6,321.3z"/>
			<path class="st4" d="M736.2,333.6l-9.7,9.2c0.5,1.3,1.1,2.8,1.7,4.5c0.5,1.3,0.7,3.5,0.8,6.1c1.4-1.1,3.1-2.5,4.7-4.3
				C737.9,344.5,736.2,333.6,736.2,333.6z"/>
			<path class="st5" d="M687.7,300c0,0,1,15.3,1.3,20c0.3,4.7-0.3,9.4,1.1,16.2c1.3,6.8,6.8,18.3,19.6,17.2
				c12.8-1.1,24.4-7.9,25.9-15.3c1.5-7.4,0.3-15.1,0.3-15.1s4-0.3,5.2-5.7c1.2-5.4,2.3-12.5-2.4-12.4c-4.7,0.1-5.2,2.7-6.3,2.5
				c-1.1-0.1-7.7-11.7-13.7-12.5C712.7,294.2,690.1,293,687.7,300z"/>
			<g>
				<path class="st4" d="M704.1,310.6c-0.1,0-0.3,0-0.4-0.1c-0.3-0.2-0.4-0.6-0.2-0.9c0.1-0.1,1.5-2.2,4.4-2.3
					c2.7,0,6.3,1.4,6.5,1.4c0.3,0.1,0.5,0.5,0.4,0.9c-0.1,0.3-0.5,0.5-0.9,0.4c0,0-3.6-1.4-6-1.3c-2.2,0-3.2,1.6-3.3,1.7
					C704.5,310.5,704.3,310.6,704.1,310.6z"/>
			</g>
			<path class="st17" d="M717.9,321.6c0.3,1.5-1.8,3.3-4.7,3.9c-2.9,0.6-5.5-0.1-5.8-1.7c-0.3-1.5,1.8-3.3,4.7-3.9
				C715,319.3,717.6,320,717.9,321.6z"/>
			<path class="st17" d="M693.8,327.9c0.3,1.5-0.8,3.1-2.5,3.4c-1.7,0.4-3.4-0.6-3.7-2.1c-0.3-1.5,0.8-3.1,2.5-3.4
				C691.8,325.4,693.5,326.4,693.8,327.9z"/>
			<g>
				<g>
					<path class="st4" d="M704.6,317.2c-0.2,0-0.4-0.1-0.5-0.3c-0.2-0.3-0.2-0.7,0.1-0.9c3.8-2.9,8.9-2.6,9.1-2.5
						c0.4,0,0.6,0.3,0.6,0.7c0,0.4-0.3,0.6-0.7,0.6c0,0-4.8-0.3-8.2,2.3C704.9,317.2,704.8,317.2,704.6,317.2z"/>
				</g>
			</g>
			<g>
				<g>
					<path class="st4" d="M689.1,320.5c-0.2,0-0.5-0.1-0.6-0.3c-0.2-0.3-0.1-0.7,0.2-0.9c2.3-1.3,6.7-1.9,6.9-1.9
						c0.4,0,0.7,0.2,0.7,0.6c0,0.4-0.2,0.7-0.6,0.7c0,0-4.3,0.6-6.4,1.8C689.3,320.5,689.2,320.5,689.1,320.5z"/>
				</g>
			</g>
			<path class="st4" d="M735.4,303.9c0,0-2,9.4-5.7,10.9c-3.8,1.5-6-12.4-7-14.9c-1-2.5-3.8-5-3.8-5S737.9,291.5,735.4,303.9z"/>
			<g>
				<path class="st5" d="M697.7,322.2c0,0-1.9,4-0.4,5.9c1.5,1.9,4.9,1.9,7,0.7c2.1-1.3,2.9-2,3.1-3.1
					C707.5,324.4,703.6,317.1,697.7,322.2z"/>
				<g>
					<path class="st4" d="M701.5,330.3c-0.8,0-1.6-0.1-2.5-0.4c-1.4-0.5-2.3-1.2-2.7-2.3c-0.6-1.4-0.3-3.3,1-6
						c1.5-3.1-0.2-6.4-2.1-8.2c-2-1.8-6.2,0.5-6.2,0.5c-0.3,0.2-0.7,0.1-0.9-0.2c-0.2-0.3-0.1-0.7,0.2-0.9c0.2-0.1,5.1-2.9,7.8-0.4
						c2.3,2.1,4.2,6,2.4,9.7c-1.1,2.2-1.4,3.8-1,4.9c0.3,0.7,0.9,1.2,1.9,1.5c4,1.3,6.4-1.4,7.2-3.1c0.2-0.3,0.5-0.5,0.9-0.3
						c0.3,0.2,0.5,0.5,0.3,0.9C707.1,327.8,704.9,330.3,701.5,330.3z"/>
				</g>
			</g>
			<path class="st18" d="M711.1,331.8c0,0-9.4,3.6-14.5,4.7c0,0,2.3,2.7,7.4,2.1C709.1,338,711.1,331.8,711.1,331.8z"/>
			<path class="st4" d="M710.4,314.7c0,0,1.2,3.1-0.1,4.3c-1.3,1.1-2.3,0.3-2.8-0.6c-0.5-0.8-1-3.1-0.1-3.4
				C708.2,314.6,710,314.2,710.4,314.7z"/>
			<path class="st4" d="M693.3,318.9c0,0,1.4,2.8,0.3,3.8c-1.1,1.1-1.9,0.1-2.4-0.7c-0.5-0.9-0.9-2.5-0.1-2.9
				C691.8,318.8,693,318.4,693.3,318.9z"/>
			<g>
				<g>
					<path class="st4" d="M689.2,332.9c-0.6,0-1.3-0.2-2.2-0.9c-2.9-2.3-5.4-8.8-5.3-11.2c0.3-3.6,6.3-5,9.2-5.7
						c3.1-0.7,5,1.1,5.5,2.2c1,1.4,1.1,6.8,0.6,8.9c-0.5,2.2-3.4,5.3-7.2,6.5C689.8,332.9,689.5,332.9,689.2,332.9z M692.4,316.3
						c-0.3,0-0.7,0-1.1,0.1c-2.4,0.5-8,1.8-8.2,4.5c-0.2,2.1,2.2,8.1,4.8,10.1c0.6,0.5,1.2,0.7,1.7,0.5c3.2-1,5.8-3.7,6.3-5.6
						c0.5-2.1,0.1-7.1-0.4-7.8l-0.1-0.1C695.3,317.9,694.5,316.3,692.4,316.3z"/>
				</g>
				<g>
					<path class="st4" d="M711.9,325c-1.9,0-3.6-0.3-4.5-0.9c-1.8-1.1-5.8-5.2-5.9-7c-0.1-0.6-0.5-3.5,3.5-5.6
						c5.1-2.5,10.1-4.6,12.6-2.5c1.9,1.7,4,7.5,3.4,11.3c-0.3,2.2-1.4,3-2.3,3.4C716.4,324.6,714,325,711.9,325z M714.8,309.4
						c-2.8,0-7.1,2.2-9.2,3.2c-3.4,1.7-2.8,4.1-2.8,4.1l0,0.1l0,0.1c0,0.9,3.3,4.8,5.2,6c1.8,1,6.3,1.1,10.1-0.5
						c0.8-0.3,1.3-1.1,1.5-2.4c0.5-3.4-1.4-8.8-2.9-10.1C716.3,309.6,715.6,309.4,714.8,309.4z"/>
				</g>
				<g>
					<path class="st4" d="M697.2,322c-0.2,0-0.4-0.1-0.5-0.2c-0.2-0.3-0.2-0.7,0.1-0.9c3.1-2.8,6.4-2.4,6.6-2.4
						c0.4,0,0.6,0.4,0.6,0.7c0,0.4-0.4,0.6-0.7,0.6c-0.1,0-2.9-0.2-5.5,2.1C697.5,321.9,697.3,322,697.2,322z"/>
				</g>
				<g>
					<path class="st4" d="M718.7,312.4c-0.3,0-0.5-0.2-0.6-0.4c-0.1-0.3,0-0.7,0.4-0.9l14.1-5.8c0.3-0.1,0.7,0,0.9,0.4
						c0.1,0.3,0,0.7-0.4,0.9l-14.1,5.8C718.9,312.4,718.8,312.4,718.7,312.4z"/>
				</g>
			</g>
			<path class="st4" d="M685.7,279.2c10.3-8.8,18.3-8.7,29.8-6c0,0,0,0,0,0c0.3-0.1,15.6,1.8,17.6,4.2c1,1.2,1.9,3.2,1.4,5.1
				c7.5,5.9,4.3,10.5,4.3,10.5l-1.5,3.4c-0.8,1.8-10.7,6.9-14.2,2.5c-3.6-4.5-7.1-2.8-13.6-2.5c-6.5,0.2-11.5,5-14.6,5.2
				c-3.1,0.3-3.9,0.3-6.7,0.3C685.3,301.7,678.8,285.1,685.7,279.2z"/>
			<path class="st5" d="M719.6,296.6c0,0,12.8-11.4,11.4-9.1c-1.4,2.3-9.6,11-10.5,10.4C719.5,297.3,719.6,296.6,719.6,296.6z"/>
			<g>
				<path class="st4" d="M714.7,270.5c0.2-0.1,0.3-0.3,0.3-0.5c0-0.3-0.2-0.6-0.5-0.7c-0.6-0.1-14-1.6-23.6,6.5
					c-0.3,0.2-0.3,0.6-0.1,0.9c0.2,0.3,0.6,0.3,0.9,0.1c9.2-7.7,22.6-6.3,22.7-6.2C714.5,270.6,714.6,270.6,714.7,270.5z"/>
			</g>
		</g>
		<path class="st8" d="M735,364.4c0,0,7.7-6.7,10.5-12.8c2.1-4.8,3.4-9,3.9-10.7c0.1-0.4,0.5-0.5,0.8-0.3l8.8,5.9l-13.6,28.1
			l-11.4-5.2l-3.9,5.2l-3.7-8.3l2.7-11.3L735,364.4z"/>
		<path class="st14" d="M739.5,299.1c-0.6,0.1-2.8,0.3-3.4,0.3c-4,0.4-6.7,6.4-6,13.5c0.7,7.1,4.5,12.5,8.5,12.1
			c0.6-0.1,2.8-0.3,3.4-0.3c4-0.4,6.7-6.4,6-13.5C747.4,304.1,743.6,298.7,739.5,299.1z"/>
		<path class="st14" d="M735.7,296.3c-0.4,0.1-0.8-0.2-0.9-0.5c-1-2.7-5.3-13-12.4-17.6c-8.2-5.3-12.8-6.2-12.8-6.2s9.5,0.5,12,1.1
			c2.5,0.6,11.2,5.5,15.9,15c1.7,3.4,2.5,5.4,2.9,6.4c0.2,0.5-0.1,1.1-0.7,1.2L735.7,296.3z"/>
		<polygon class="st14" points="736.6,295.2 737.8,300.4 740,300.1 739,294.6 		"/>
		<g>
			<path class="st4" d="M730.3,375.5c-0.1,0-0.3,0-0.4-0.1c-1.4-0.5-2.3-3.3-3.4-7c-0.2-0.8-0.5-1.5-0.6-1.8
				c-0.3-0.7-0.3-1.3-0.1-1.8c0.2-0.5,0.6-0.7,0.9-0.8c0.4-0.1,0.7,0.1,0.8,0.5c0.1,0.3-0.1,0.7-0.4,0.8c0,0-0.1,0-0.1,0.1
				c0,0-0.1,0.2,0.1,0.7c0.2,0.4,0.4,1.1,0.7,2c0.4,1.5,1.7,5.9,2.6,6.1c1.6-1.3,3.2-4.9,3.2-4.9l0.3-0.7l0.7,0.4
				c4.5,2.7,9.7,5.4,10.9,5.1c0.5-0.3,2.6-3.4,7.2-13.4c3.2-6.9,5.7-12.9,5.9-13.9c0-0.2,0-0.4,0.1-0.5c0.2-0.3,0.6-0.4,0.9-0.2
				c0.3,0.2,0.4,0.5,0.3,0.9c-0.3,1.5-3.5,8.9-6.3,14.9c-6.1,13.1-7.3,13.4-7.8,13.5c-2,0.5-8.8-3.4-11.2-4.9
				c-0.6,1.2-1.9,3.6-3.3,4.7C730.8,375.4,730.6,375.5,730.3,375.5z M758.7,347.1C758.7,347.1,758.7,347.1,758.7,347.1
				C758.7,347.1,758.7,347.1,758.7,347.1z M758.7,347.1C758.7,347.1,758.7,347.1,758.7,347.1C758.7,347.1,758.7,347.1,758.7,347.1z"
				/>
		</g>
		<g>
			<path class="st4" d="M734.1,605.2c-0.3,0-0.5-0.2-0.6-0.4c-0.1-0.3,0.1-0.7,0.4-0.8c0.2-0.1,24.7-8.8,43.9-11.5
				c19.8-2.8,35.8-5.2,45.8-8.7c10.1-3.5,17.6-7.5,17.7-7.6c0.3-0.2,0.7-0.1,0.9,0.3c0.2,0.3,0.1,0.7-0.3,0.9
				c-0.1,0-7.7,4.1-17.9,7.7c-10.1,3.5-26.2,5.9-46,8.8c-19,2.7-43.4,11.3-43.6,11.4C734.3,605.2,734.2,605.2,734.1,605.2z"/>
		</g>
		<g>
			<path class="st4" d="M824.3,472.3c-0.1,0-0.2,0-0.3-0.1c-0.4-0.2-10.5-4.5-12.3-8.9c-1.2-3-4.2-19.8-6.6-33.4
				c-1-5.6-1.8-10.5-2.4-13.6c-2-10.5-11.6-51.8-11.7-52.2c-0.1-0.4,0.1-0.7,0.5-0.8c0.4-0.1,0.7,0.1,0.8,0.5
				c0.1,0.4,9.7,41.7,11.7,52.3c0.6,3.1,1.5,8,2.4,13.6c2.2,12.7,5.3,30.2,6.5,33.1c1.6,3.9,11.5,8.2,11.6,8.2
				c0.3,0.1,0.5,0.5,0.4,0.9C824.8,472.1,824.6,472.3,824.3,472.3z"/>
		</g>
		<g>
			<path class="st19" d="M1084.6,751.2c0.8,1.4,6.8,2.5,8.9,1.4l1.9-13c0,0,53.3-40.5,49.4-51.4c-3.9-10.9-42.1,28.8-42.1,28.8
				l5.6-21.6c0,0,40.4-21.9,35.5-30.8c-4.9-9-32.4,17.7-32.4,17.7l8.2-23.6c0,0,26.8-23.1,22.9-31.1c-3.9-7.9-20.5,16.2-20.5,16.2
				s7.8-36.1-0.8-34.3c-8.7,1.8-10.7,47.3-10.7,47.3s-2.1-15.3-7.6-15.8c-5.5-0.4,5.1,27.7,5.1,27.7l-2.9,14.2
				c0,0-11-31.8-17.5-26.8s13.9,38.7,13.9,38.7l-5.7,21c0,0-9.4-30.4-21.2-26.4c-11.8,4.1,14.3,46.7,14.3,46.7L1084.6,751.2z"/>
			<path class="st20" d="M1067.1,752.2l-3.3-20.8c0,0,46.7-71.7,30.9-70c-15.8,1.7-33.4,56.3-33.4,56.3l-6.3-13.8
				c0,0,34.6-58.4,24.2-65.9c-10.4-7.5-29.2,43.4-29.2,43.4l-6.3-20.8c0,0,31.3-36.7,20.8-42.1c-10.4-5.4-25,29.6-25,29.6l-4.6-23.8
				c0,0,15.8-31.7,7.1-36.7c-8.8-5-12.9,22.9-12.9,22.9s-12.1-34.2-20.4-28.8c-8.3,5.4,15.4,45,15.4,45s-11.1-12.1-17.2-10
				c-6.1,2.1,21.4,21.3,21.4,21.3l5,13.3c0,0-30-22.1-34.2-15c-4.2,7.1,37.1,26.7,37.1,26.7l5.8,20.4c0,0-27.5-21.7-37.9-12.9
				c-10.4,8.8,42.1,33.4,42.1,33.4l5,20c0,0-59.6-31.3-68-19.6c-8.3,11.7,70.9,29.2,70.9,29.2l3.3,20.8L1067.1,752.2z"/>
			<polygon class="st21" points="1014.1,745.2 1028.3,834.8 1109.7,834.8 1122.5,745.2 			"/>
		</g>
		<g>
			<path class="st22" d="M655.6,88H452.7c-15.7,0-28.6,12.9-28.6,28.6v105.8c0,15.7,12.9,28.6,28.6,28.6h202.9
				c15.7,0,28.6-12.9,28.6-28.6V116.6C684.2,100.9,671.3,88,655.6,88z"/>
			<polygon class="st22" points="588.5,247.7 617.9,278.2 617.9,247.7 			"/>
			<rect x="459.2" y="110.3" class="st23" width="9.1" height="9.1"/>
			<rect x="483" y="110.3" class="st23" width="89.2" height="9.1"/>
			<rect x="524.7" y="135.8" class="st23" width="63.4" height="9.1"/>
			<rect x="596.1" y="135.8" class="st8" width="34.8" height="9.1"/>
			<rect x="510.9" y="161.2" class="st23" width="35.3" height="9.1"/>
			<rect x="500.9" y="189.9" class="st23" width="35.3" height="9.1"/>
			<rect x="541" y="189.9" class="st8" width="91.8" height="9.1"/>
			<rect x="504.3" y="212.2" class="st23" width="99.7" height="9.1"/>
			<rect x="554.6" y="161.2" class="st8" width="15.7" height="9.1"/>
			<rect x="580.1" y="161.2" class="st23" width="34.8" height="9.1"/>
			<rect x="459.2" y="135.8" class="st23" width="9.1" height="9.1"/>
			<rect x="459.2" y="161.2" class="st23" width="9.1" height="9.1"/>
			<rect x="459.2" y="186.7" class="st23" width="9.1" height="9.1"/>
			<rect x="459.2" y="212.2" class="st23" width="9.1" height="9.1"/>
		</g>
		<g>
			<path class="st4" d="M709.7,197.1l7.8-39.9c-15.3-13.3-24.1-32.6-24.1-52.9c0-38.6,31.4-70.1,70.1-70.1
				c38.6,0,70.1,31.4,70.1,70.1s-31.4,70.1-70.1,70.1c-7.4,0-14.7-1.2-21.7-3.4L709.7,197.1z M763.5,35.5
				c-37.9,0-68.8,30.8-68.8,68.8c0,20,8.7,39,23.9,52.1l0.3,0.3l-7.2,37.1l29.8-24.3l0.3,0.1c7,2.3,14.2,3.5,21.6,3.5
				c37.9,0,68.8-30.8,68.8-68.8C832.2,66.4,801.4,35.5,763.5,35.5z"/>
		</g>
		<g>
			<path class="st8" d="M916.6,144.5H800.4c-19.2,0-34.9,15.7-34.9,34.9v53.4c0,19.2,15.7,34.9,34.9,34.9h72.4l28.5,28.8l3.5-28.8
				h11.8c19.2,0,34.9-15.7,34.9-34.9v-53.4C951.6,160.2,935.8,144.5,916.6,144.5z"/>
		</g>
		<g>
			<g>
				<path class="st8" d="M754.3,113.9c-13.9,0-25.2-11.3-25.2-25.2c0-13.9,11.3-25.2,25.2-25.2c13.9,0,25.2,11.3,25.2,25.2
					C779.6,102.6,768.3,113.9,754.3,113.9z M754.3,71.3c-9.6,0-17.4,7.8-17.4,17.4c0,9.6,7.8,17.4,17.4,17.4
					c9.6,0,17.4-7.8,17.4-17.4C771.7,79.1,763.9,71.3,754.3,71.3z"/>
			</g>
			<g>
				
					<rect x="771.8" y="101.5" transform="matrix(0.7071 -0.7071 0.7071 0.7071 150.3308 578.5059)" class="st8" width="3.3" height="12.7"/>
				<path class="st6" d="M774.7,109L774.7,109c-2.4,2.4-2.4,6.4,0,8.9l18.3,18.3c2.4,2.4,6.4,2.4,8.9,0l0,0c2.4-2.4,2.4-6.4,0-8.9
					L783.5,109C781.1,106.5,777.1,106.5,774.7,109z"/>
			</g>
		</g>
	</g>
</g>
<g>
	<circle class="st24" cx="827.9" cy="202.6" r="10.7"/>
	<circle class="st24" cx="858.5" cy="202.6" r="10.7"/>
	<circle class="st24" cx="889.2" cy="202.6" r="10.7"/>
</g>
</svg>
