<?xml version="1.0" encoding="utf-8"?>
<!-- Generator: Adobe Illustrator 25.2.0, SVG Export Plug-In . SVG Version: 6.00 Build 0)  -->
<svg version="1.1" id="Layer_1" xmlns="http://www.w3.org/2000/svg" xmlns:xlink="http://www.w3.org/1999/xlink" x="0px" y="0px"
	 viewBox="0 0 192.8 192.8" style="enable-background:new 0 0 192.8 192.8;" xml:space="preserve">
<style type="text/css">
	.st0{fill:#FFFFFF;}
	.st1{fill:#A21C81;}
	.st2{fill:#005299;}
	.st3{fill:#008ACF;}
	.st4{fill:#009540;}
	.st5{fill:#FBE800;}
	.st6{fill:#F08712;}
	.st7{fill:#E5282B;}
	.st8{fill:#0A0C0D;}
</style>
<g>
	<path class="st0" d="M94.9,65.8c-17.6,0-31.7,14.2-31.7,31.7s14.2,31.7,31.7,31.7s31.7-14.2,31.7-31.7
		C126.7,80,112.4,65.8,94.9,65.8"/>
	<path class="st1" d="M27.7,41.5c-0.1,0.3-0.1,0.7,0,1.2c0.1,0.1,0.3,0.3,0.4,0.4l33.6,19.6l0,0c0.3,0.1,0.7,0.1,1.2,0
		c0.1,0,0.1-0.1,0.3-0.3v-0.1c3.1-5.4,7.5-10.4,12.9-14.3c5.6-3.9,11.6-6.3,17.8-7.5c0,0,0,0,0.1,0c0.1,0,0.3,0,0.4-0.1
		c0.3-0.3,0.6-0.6,0.4-1l0,0L88.1,0.9l0,0c0-0.1,0-0.3-0.1-0.4C87.7,0.1,87.4,0,87,0l0,0l0,0C75.1,2.2,63.3,6.9,52.7,14.3
		C42,21.5,33.7,31,27.7,41.5"/>
	<path class="st2" d="M8.5,115.4c0.1,0.3,0.6,0.6,0.9,0.6c0.1,0,0.4,0,0.6,0l36.3-13.9l0,0c0.4-0.1,0.6-0.6,0.6-0.9
		c0-0.1,0-0.3,0-0.4v-0.1c-2.3-5.9-3.5-12.3-3.1-19c0.4-6.9,2.5-13.2,5.4-18.7c0,0,0,0,0-0.1s0-0.3,0.1-0.4c0-0.4-0.1-0.9-0.6-1l0,0
		L14.5,42.9l0,0c-0.1,0-0.3-0.1-0.4-0.1c-0.4,0-0.7,0.1-1,0.6l0,0l0,0C7.4,54,3.6,66.1,2.8,79C2,91.9,4.2,104.2,8.5,115.4"/>
	<path class="st3" d="M54.8,176.1c0.4,0,0.7,0,1-0.3c0.1-0.1,0.1-0.3,0.3-0.4l11.6-37.2l0,0c0.1-0.4,0-0.9-0.3-1.2
		c-0.1,0-0.1-0.1-0.3-0.1h-0.1c-6-1.8-11.8-4.8-16.8-9.4c-5-4.5-8.8-9.9-11.3-15.8c0,0,0,0,0-0.1c0-0.1-0.1-0.3-0.3-0.3
		c-0.6-0.4-1-0.4-1.3-0.3l0,0L1.4,126.4l0,0c-0.1,0-0.3,0.1-0.4,0.3c-0.3,0.3-0.3,0.7-0.1,1l0,0l0,0c4.8,11.1,12,21.5,21.7,30.1
		C32.1,166.6,43.2,172.8,54.8,176.1"/>
	<path class="st4" d="M130.6,178c0.3-0.3,0.4-0.6,0.4-1c0-0.1,0-0.3-0.1-0.6l-21.7-32.3l0,0c-0.3-0.3-0.6-0.6-1-0.4
		c-0.1,0-0.3,0-0.4,0.1c0,0-0.1,0-0.1,0.1c-5.3,3.7-11.3,6.1-17.8,7.2c-6.7,1.2-13.3,0.6-19.3-1.2c0,0,0,0-0.1,0c-0.1,0-0.3,0-0.4,0
		c-0.4,0-0.7,0.4-0.9,0.7l0,0l-10.4,37.6l0,0c0,0.1,0,0.3,0,0.4c0,0.4,0.3,0.7,0.7,0.9l0,0l0,0c11.6,3.2,24.3,4.2,37,2
		C109,189.6,120.6,184.9,130.6,178"/>
	<path class="st5" d="M180.1,120.1c0-0.4-0.1-0.7-0.6-1c-0.1,0-0.3-0.1-0.6-0.1l-38.8-3.1l0,0c-0.4,0-0.7,0.1-1,0.6
		c0,0.1-0.1,0.3-0.1,0.4v0.1c-0.4,6.3-2.2,12.6-5.4,18.4c-3.2,6-7.8,10.8-12.9,14.5c0,0,0,0-0.1,0c-0.1,0-0.1,0.1-0.3,0.3
		c-0.1,0.4-0.1,0.9,0,1.2l0,0l23.1,31.5l0,0c0,0.1,0.1,0.3,0.4,0.3c0.4,0.1,0.7,0.1,1.2,0l0,0l0,0c9.8-7.2,18.3-16.5,24.6-27.8
		C175.8,144.2,179.3,132.1,180.1,120.1"/>
	<path class="st6" d="M165.4,45.1c-0.3-0.3-0.7-0.3-1.2-0.1c-0.1,0-0.3,0.1-0.4,0.3L137,73.4l0,0c-0.3,0.3-0.3,0.7-0.1,1.2
		c0,0.1,0.1,0.3,0.1,0.3s0,0,0.1,0.1c4.7,4.2,8.5,9.7,11,15.8c2.5,6.3,3.5,12.7,3.1,19.2c0,0,0,0,0,0.1c0,0.1,0,0.3,0,0.4
		c0.1,0.4,0.6,0.6,0.9,0.6l0,0l38.9,1.9l0,0c0.1,0,0.3,0,0.4,0c0.4-0.1,0.6-0.6,0.6-0.9l0,0l0,0c0.6-12.1-1.2-24.6-6-36.6
		C181.5,63.6,174.3,53.4,165.4,45.1"/>
	<path class="st7" d="M97.3,10.4c-0.4,0-0.7,0.3-0.9,0.7c0,0.1,0,0.4,0,0.6l5.7,38.5l0,0c0,0.4,0.4,0.7,0.7,0.9c0.1,0,0.3,0,0.4,0
		h0.1c6.3-1,12.7-0.7,19.3,1.2c6.4,1.9,12.1,5.1,17,9.4c0,0,0,0,0.1,0c0.1,0,0.3,0.1,0.4,0.1c0.4,0.1,0.9,0,1.2-0.3l0,0L167,32l0,0
		c0.1-0.1,0.1-0.3,0.1-0.4c0.1-0.4,0-0.7-0.3-1l0,0l0,0c-9.1-7.9-20.2-14.2-32.5-17.7C121.8,9.1,109.3,8.5,97.3,10.4"/>
	<path class="st8" d="M94.9,65.4c-17.7,0-32.2,14.5-32.2,32.2s14.5,32.2,32.2,32.2S127,115.3,127,97.6
		C127.2,79.7,112.7,65.4,94.9,65.4 M118.4,115.7c0.6-1.3,0.6-2.8,0.7-4.1c-0.6,0.6-1.3,1.2-2,1.8c-2.2,1.6-4.7,2.6-6.9,3.1l-6.1-6.7
		l0,0l4.5,7.9c-1.2,2-2.9,4.1-5.1,5.7c-0.7,0.6-1.5,1-2.3,1.5c1.2,0.1,2.6,0.6,4.1,0.4c-3.1,1.2-6.4,1.8-9.9,1.8
		c-3.5,0-6.9-0.6-9.9-1.8c1.3,0,2.9-0.3,4.1-0.4c-0.7-0.4-1.6-0.9-2.3-1.5c-2.2-1.6-3.9-3.7-5.1-5.7l4.5-8l0,0l-6.3,6.7
		c-2.3-0.4-4.7-1.5-6.9-3.1c-0.7-0.6-1.5-1.2-2-1.8c0.1,1.2,0.3,2.8,0.7,4.1c-3.9-5-6.3-11.3-6.3-18.1c0-0.3,0-0.6,0-1
		c0.3,1.3,1.2,2.8,1.8,3.8c0.1-0.9,0.4-1.8,0.6-2.6c0.9-2.6,2.2-5,3.8-6.7l8.9,1.8v-0.1l-8.6-3.5c-0.3-2.3,0-4.8,0.9-7.5
		c0.3-0.9,0.6-1.8,1-2.5c-1.2,0.6-2.6,1.2-3.8,2.2C74.1,75.3,79.9,70.9,87,69c-1.3,0.7-2.5,2-3.4,2.9c0.9-0.1,1.8-0.1,2.8-0.1
		c2.8,0,5.4,0.6,7.5,1.6l1,9.1H95l1-9.1c2.2-1,4.7-1.6,7.5-1.6c0.9,0,1.8,0,2.8,0.1c-0.9-0.9-2-2.2-3.2-2.9
		c6.9,1.9,12.7,6.3,16.7,12.1c-1.2-1-2.6-1.6-3.8-2.2c0.4,0.7,0.7,1.6,1,2.5c0.9,2.6,1.2,5.3,0.9,7.5l-8.3,3.8v0.1l8.9-1.8
		c1.6,1.8,2.9,4.1,3.8,6.7c0.3,0.9,0.6,1.8,0.6,2.6c0.6-1.2,1.3-2.5,1.8-3.8c0,0.3,0,0.6,0,0.9C124.6,104.4,122.2,110.7,118.4,115.7
		"/>
	<polygon class="st8" points="82,93.3 87,108.7 103,108.7 108,93.3 95,84 	"/>
</g>
</svg>
