<?xml version="1.0" encoding="utf-8"?>
<!-- Generator: Adobe Illustrator 25.2.0, SVG Export Plug-In . SVG Version: 6.00 Build 0)  -->
<svg version="1.1" id="Layer_1" xmlns="http://www.w3.org/2000/svg" xmlns:xlink="http://www.w3.org/1999/xlink" x="0px" y="0px"
	 viewBox="0 0 192.8 192.8" style="enable-background:new 0 0 192.8 192.8;" xml:space="preserve">
<style type="text/css">
	.st0{fill:#999999;}
	.st1{fill:#8D8D8D;}
	.st2{fill:#666666;}
	.st3{fill:#E20613;}
	.st4{fill:#1D1D1B;}
	.st5{fill:url(#SVGID_1_);}
	.st6{fill:url(#SVGID_2_);}
	.st7{fill:#FFFFFF;}
	.st8{fill:#004F8B;}
</style>
<g>
	<path class="st0" d="M88.8,10.6L88.8,10.6L88.8,10.6L88.8,10.6c32.8,0,62,14.2,81.9,36.4c-16.5-28.1-47-47-81.9-47
		S23.3,18.9,6.9,47.1C26.8,24.8,56,10.6,88.8,10.6z"/>
	<path class="st1" d="M166.7,134.8c3.6-9,5.4-18.9,5.4-29.2c0-23.5-10-44.5-25.9-58.7c2.9,10,4.4,20.8,4.4,31.8
		c0,46.3-29.2,84.9-66.2,98c1.3,0,2.4,0.1,3.7,0.1C121,176.8,150.1,160.1,166.7,134.8z"/>
	<path class="st2" d="M179.8,67.8c1.1,5.7,1.7,11.6,1.7,17.6c0,18.2-5.4,35.2-14.9,49.4c-16.6,25.2-45.6,42-78.6,42
		c-1.3,0-2.4,0-3.7-0.1c-31.2-1.1-58.4-17.3-74.5-41.3c13.5,33.7,46.4,57.4,84.8,57.4c50.4,0,91.4-41,91.4-91.4
		C186.2,89.5,183.9,78.2,179.8,67.8z"/>
	<g>
		<g>
			<path class="st3" d="M91.2,44.4c-7.7,0.3-34.4,2-50.3,15l-5.4,4.4L33.6,71l-0.1,0.6c-0.4,2.1-10,54.9,44.8,93.7l12.2,8.7
				l14.5-8.7c54.9-39,45.3-91.5,44.8-93.7l-1.3-6.7l-5.6-5l-0.4-0.3c-15.6-13.2-42.3-15-50-15.2h-0.7H91.2z"/>
			<path class="st4" d="M91.2,43.7L91.2,43.7c-7.9,0.3-34.7,2-50.7,15.2l-5.6,4.6l-1.9,7.3l-0.1,0.6c-0.4,2.3-10,55.1,45.1,94.4
				l12.6,9l14.9-9c55.3-39.2,45.7-92.2,45.1-94.4l-1.4-6.9l-5.7-5.3l-0.4-0.4c-16-13.2-42.8-14.9-50.7-15.2L91.2,43.7z"/>
			
				<linearGradient id="SVGID_1_" gradientUnits="userSpaceOnUse" x1="33.506" y1="84.8517" x2="91.9476" y2="84.8517" gradientTransform="matrix(1 0 0 -1 0 194)">
				<stop  offset="0" style="stop-color:#BAC800"/>
				<stop  offset="0.1022" style="stop-color:#B3C000"/>
				<stop  offset="0.2578" style="stop-color:#9FAB00"/>
				<stop  offset="0.4476" style="stop-color:#7F8900"/>
				<stop  offset="0.6641" style="stop-color:#525900"/>
				<stop  offset="0.9003" style="stop-color:#1A1C00"/>
				<stop  offset="1" style="stop-color:#000000"/>
			</linearGradient>
			<path class="st5" d="M91.2,45.1c-7.7,0.3-34.1,1.9-49.8,14.8c0,0-4.9,4-5.2,4.3c-0.1,0.4-1.7,6.9-1.7,6.9l-0.1,0.6
				c-0.1,0.6-0.9,4.9-0.9,11.5c0,17.9,5.7,53.4,45.4,81.6c0,0,11,7.9,11.9,8.5c0.1-0.1,0.6-0.3,1.1-0.7V45.1
				C91.7,45.1,91.2,45.1,91.2,45.1z"/>
			
				<linearGradient id="SVGID_2_" gradientUnits="userSpaceOnUse" x1="91.8533" y1="85.0666" x2="150.251" y2="85.0666" gradientTransform="matrix(1 0 0 -1 0 194)">
				<stop  offset="0" style="stop-color:#1D1D1B"/>
				<stop  offset="3.896433e-02" style="stop-color:#291C1B"/>
				<stop  offset="0.2177" style="stop-color:#5D1A1A"/>
				<stop  offset="0.3936" style="stop-color:#881719"/>
				<stop  offset="0.563" style="stop-color:#A91518"/>
				<stop  offset="0.7241" style="stop-color:#C11417"/>
				<stop  offset="0.8736" style="stop-color:#CF1317"/>
				<stop  offset="1" style="stop-color:#D41317"/>
			</linearGradient>
			<path class="st6" d="M149.4,71.6c0,0-1.1-6-1.3-6.4c-0.3-0.3-5.3-4.9-5.3-4.9l-0.4-0.3c-15.6-12.9-42.1-14.6-49.7-14.8h-0.6l0,0
				v127.3c3.3-2,12.9-7.7,12.9-7.7c39.8-28.2,45.4-63.7,45.4-81.6C150.2,76.3,149.5,72.2,149.4,71.6z"/>
			<path class="st4" d="M91.8,64.7c-1,0-25.6,0.9-36.8,10l-0.1,0.1v0.3c-0.1,0.4-7.7,42.3,36.5,73.6l0.4,0.3l0.4-0.3
				c44.3-31.5,36.7-73.2,36.5-73.6v-0.3l-0.1-0.1C117.4,65.6,93,64.7,91.8,64.7L91.8,64.7L91.8,64.7z"/>
			<path class="st3" d="M91.8,64.7c-1,0-25.6,0.9-36.8,10l-0.1,0.1l-0.1,0.3c-0.1,0.4-7.7,42.3,36.7,73.8l0.4,0.3l0.6-0.3
				c44.3-31.5,36.7-73.3,36.7-73.8v-0.3l-0.3-0.1C117.6,65.6,93,64.7,91.8,64.7L91.8,64.7L91.8,64.7z"/>
			<path class="st4" d="M91.5,148.8c-44.3-31.4-36.7-73.2-36.7-73.6v-0.3l0.1-0.1c11.2-9.2,35.7-9.9,36.7-10l0,0
				c1,0,25.6,0.9,36.7,10l0.1,0.1v0.1c0.1,0.4,7.6,42.3-36.5,73.6l-0.4,0.3L91.5,148.8z"/>
			<path class="st4" d="M129,75.2v-0.1l-0.3-0.3c-11.2-9.2-35.8-10-36.8-10c-1.1,0-25.6,0.9-37,10h-0.1l-0.1,0.4
				c0,0.1-0.6,3-0.6,7.7c0,13.6,4.3,42.7,37.2,66l0.4,0.4l0.6-0.4C136.8,117.5,129.2,75.6,129,75.2z"/>
			<path class="st7" d="M91.8,66.2c0.4,0,24.8,0.9,35.7,9.5c0.1,0.6,0.4,3.2,0.4,7.3c0,13.3-4.2,41.5-36.1,64.5
				c-31.9-22.9-36.1-51.1-36.1-64.5c0-4.2,0.4-6.6,0.4-7.3C67,67,91.4,66.2,91.8,66.2z"/>
		</g>
		<g>
			<g>
				<g>
					<path class="st8" d="M86.1,70.6v13l0,0c0.1,3.2,2.6,5.6,5.7,5.6s5.6-2.4,5.7-5.6l0,0v-13H86.1z"/>
					<g>
						<path class="st7" d="M93.8,78.9c0,1-0.9,1.9-1.9,1.9c-1,0-1.9-0.9-1.9-1.9s0.9-1.9,1.9-1.9C93,76.9,93.8,77.8,93.8,78.9z"/>
						<g>
							<g>
								<path class="st7" d="M90.7,73.5c0,1-0.9,1.9-1.9,1.9c-1,0-1.9-0.9-1.9-1.9s0.9-1.9,1.9-1.9C89.8,71.5,90.7,72.3,90.7,73.5z"
									/>
								<path class="st7" d="M97,73.5c0,1-0.9,1.9-1.9,1.9c-1,0-1.9-0.9-1.9-1.9s0.9-1.9,1.9-1.9C96.1,71.5,97,72.3,97,73.5z"/>
							</g>
							<g>
								<path class="st7" d="M90.7,84.2c0,1-0.9,1.9-1.9,1.9c-1,0-1.9-0.9-1.9-1.9c0-1,0.9-1.9,1.9-1.9
									C89.8,82.4,90.7,83.2,90.7,84.2z"/>
								<path class="st7" d="M97,84.2c0,1-0.9,1.9-1.9,1.9c-1,0-1.9-0.9-1.9-1.9c0-1,0.9-1.9,1.9-1.9C96.1,82.4,97,83.2,97,84.2z"/>
							</g>
						</g>
					</g>
				</g>
				<g>
					<path class="st8" d="M86.1,118.3v13l0,0c0.1,3.2,2.6,5.6,5.7,5.6s5.6-2.4,5.7-5.6l0,0v-13H86.1z"/>
					<g>
						<path class="st7" d="M93.8,126.6c0,1-0.9,1.9-1.9,1.9c-1,0-1.9-0.9-1.9-1.9c0-1,0.9-1.9,1.9-1.9
							C93,124.6,93.8,125.5,93.8,126.6z"/>
						<g>
							<g>
								<path class="st7" d="M90.7,121.2c0,1-0.9,1.9-1.9,1.9c-1,0-1.9-0.9-1.9-1.9c0-1,0.9-1.9,1.9-1.9
									C89.8,119.3,90.7,120.2,90.7,121.2z"/>
								<path class="st7" d="M97,121.2c0,1-0.9,1.9-1.9,1.9c-1,0-1.9-0.9-1.9-1.9c0-1,0.9-1.9,1.9-1.9C96.1,119.3,97,120.2,97,121.2
									z"/>
							</g>
							<g>
								<path class="st7" d="M90.7,132.1c0,1-0.9,1.9-1.9,1.9c-1,0-1.9-0.9-1.9-1.9s0.9-1.9,1.9-1.9
									C89.8,130.1,90.7,130.9,90.7,132.1z"/>
								<path class="st7" d="M97,132.1c0,1-0.9,1.9-1.9,1.9c-1,0-1.9-0.9-1.9-1.9s0.9-1.9,1.9-1.9C96.1,130.1,97,130.9,97,132.1z"/>
							</g>
						</g>
					</g>
				</g>
			</g>
			<g>
				<g>
					<path class="st8" d="M70.9,94.4v13l0,0c0.1,3.2,2.6,5.6,5.7,5.6s5.6-2.4,5.7-5.6l0,0v-13H70.9z"/>
					<g>
						<path class="st7" d="M78.6,102.7c0,1-0.9,1.9-1.9,1.9c-1,0-1.9-0.9-1.9-1.9c0-1,0.9-1.9,1.9-1.9
							C77.8,100.8,78.6,101.7,78.6,102.7z"/>
						<g>
							<g>
								<path class="st7" d="M75.5,97.3c0,1-0.9,1.9-1.9,1.9c-1,0-1.9-0.9-1.9-1.9c0-1,0.9-1.9,1.9-1.9
									C74.6,95.4,75.5,96.3,75.5,97.3z"/>
								<path class="st7" d="M81.8,97.3c0,1-0.9,1.9-1.9,1.9c-1,0-1.9-0.9-1.9-1.9c0-1,0.9-1.9,1.9-1.9
									C80.9,95.4,81.8,96.3,81.8,97.3z"/>
							</g>
							<g>
								<path class="st7" d="M75.5,108.1c0,1-0.9,1.9-1.9,1.9c-1,0-1.9-0.9-1.9-1.9c0-1,0.9-1.9,1.9-1.9
									C74.6,106.3,75.5,107.1,75.5,108.1z"/>
								<path class="st7" d="M81.8,108.1c0,1-0.9,1.9-1.9,1.9c-1,0-1.9-0.9-1.9-1.9c0-1,0.9-1.9,1.9-1.9
									C80.9,106.3,81.8,107.1,81.8,108.1z"/>
							</g>
						</g>
					</g>
				</g>
				<g>
					<path class="st8" d="M86.1,94.4v13l0,0c0.1,3.2,2.6,5.6,5.7,5.6s5.6-2.4,5.7-5.6l0,0v-13H86.1z"/>
					<g>
						<path class="st7" d="M93.8,102.7c0,1-0.9,1.9-1.9,1.9c-1,0-1.9-0.9-1.9-1.9c0-1,0.9-1.9,1.9-1.9
							C93,100.8,93.8,101.7,93.8,102.7z"/>
						<g>
							<g>
								<path class="st7" d="M90.7,97.3c0,1-0.9,1.9-1.9,1.9c-1,0-1.9-0.9-1.9-1.9c0-1,0.9-1.9,1.9-1.9
									C89.8,95.4,90.7,96.3,90.7,97.3z"/>
								<path class="st7" d="M97,97.3c0,1-0.9,1.9-1.9,1.9c-1,0-1.9-0.9-1.9-1.9c0-1,0.9-1.9,1.9-1.9C96.1,95.4,97,96.3,97,97.3z"/>
							</g>
							<g>
								<path class="st7" d="M90.7,108.1c0,1-0.9,1.9-1.9,1.9c-1,0-1.9-0.9-1.9-1.9c0-1,0.9-1.9,1.9-1.9
									C89.8,106.3,90.7,107.1,90.7,108.1z"/>
								<path class="st7" d="M97,108.1c0,1-0.9,1.9-1.9,1.9c-1,0-1.9-0.9-1.9-1.9c0-1,0.9-1.9,1.9-1.9C96.1,106.3,97,107.1,97,108.1
									z"/>
							</g>
						</g>
					</g>
				</g>
				<g>
					<path class="st8" d="M101.3,94.4v13l0,0c0.1,3.2,2.6,5.6,5.7,5.6s5.6-2.4,5.7-5.6l0,0v-13H101.3z"/>
					<g>
						<path class="st7" d="M108.8,102.7c0,1-0.9,1.9-1.9,1.9c-1,0-1.9-0.9-1.9-1.9c0-1,0.9-1.9,1.9-1.9
							C108,100.8,108.8,101.7,108.8,102.7z"/>
						<g>
							<g>
								<path class="st7" d="M105.7,97.3c0,1-0.9,1.9-1.9,1.9c-1,0-1.9-0.9-1.9-1.9c0-1,0.9-1.9,1.9-1.9
									C104.8,95.4,105.7,96.3,105.7,97.3z"/>
								<path class="st7" d="M112.1,97.3c0,1-0.9,1.9-1.9,1.9c-1,0-1.9-0.9-1.9-1.9c0-1,0.9-1.9,1.9-1.9
									C111.3,95.4,112.1,96.3,112.1,97.3z"/>
							</g>
							<g>
								<path class="st7" d="M105.7,108.1c0,1-0.9,1.9-1.9,1.9c-1,0-1.9-0.9-1.9-1.9c0-1,0.9-1.9,1.9-1.9
									C104.8,106.3,105.7,107.1,105.7,108.1z"/>
								<path class="st7" d="M112.1,108.1c0,1-0.9,1.9-1.9,1.9c-1,0-1.9-0.9-1.9-1.9c0-1,0.9-1.9,1.9-1.9
									C111.3,106.3,112.1,107.1,112.1,108.1z"/>
							</g>
						</g>
					</g>
				</g>
			</g>
		</g>
	</g>
</g>
</svg>
