<?xml version="1.0" encoding="utf-8"?>
<!-- Generator: Adobe Illustrator 23.0.1, SVG Export Plug-In . SVG Version: 6.00 Build 0)  -->
<svg version="1.1" id="Слой_1" xmlns="http://www.w3.org/2000/svg" xmlns:xlink="http://www.w3.org/1999/xlink" x="0px" y="0px"
	 viewBox="0 0 2316.5 1449.1" style="enable-background:new 0 0 2316.5 1449.1;" xml:space="preserve">
<style type="text/css">
	.st0{fill:#5EEF9C;}
	.st1{fill:#82B378;}
	.st2{fill:#39D881;}
	.st3{fill:#7105FF;}
	.st4{fill:#C7DCFB;}
	.st5{fill:#DFEBFD;}
	.st6{fill:#78ACEA;}
	.st7{fill:#699DEE;}
	.st8{fill:#5288D8;}
	.st9{fill:#D7E9FF;}
	.st10{fill:#AFCDFB;}
	.st11{fill:#FFFFFF;}
	.st12{fill:#FFB27D;}
	.st13{fill:#233862;}
	.st14{fill:#5C05E5;}
	.st15{fill:#2B478B;}
	.st16{fill:#ED985F;}
	.st17{fill:#2C3A64;}
</style>
<g>
	<g>
		<path class="st0" d="M614.5,706.1c0,0-153.2-218.1-213.1-189.9C341.4,544.5,614.5,706.1,614.5,706.1z"/>
		<path class="st0" d="M604.7,647.5c0,0-23.4-164-60.3-157.6C507.5,496.3,604.7,647.5,604.7,647.5z"/>
		<g>
			<path class="st0" d="M475.2,1158.7c0,0,14.7-73-42.5-82.2c0,0-38.8-1.4-61.6,13.3c0,0,64.9,37.5,57.2,49.1
				c-7.7,11.6-69.3-46.9-69.3-46.9s-69.6,30.5-85.1,52.5c0,0,82.2,14.6,71.8,24c-10.3,9.4-96.6-1.9-96.6-1.9s-55.6,44.8-31.4,80.4
				c24.2,35.6,51.8,35.4,60.6,29.2c8.7-6.2,51.5-57.3,57-50.4c5.4,7-13.4,50.2-35.7,64.1c0,0,70,23.6,91-6.3
				c21.1-29.9,11.3-53.1,24.7-71.3c13.4-18.2,28.7-26.7,25.9-14.3c-2.7,12.5-30.7,38.7-30.8,62.6c-0.1,23.9-2.5,41.3,24.8,20.1
				c27.3-21.1,63.5-69.9,51.7-96.1C475.2,1158.7,475.2,1158.7,475.2,1158.7z"/>
			<g>
				<path class="st1" d="M248.5,1231.1c0,0,163.2-99.6,226.7-72.5c0,0,21.8,19.8,59.3,28.1l9.9,8.5c0,0-45.9-14.3-57.3-10.4
					C487,1184.8,470.1,1116.7,248.5,1231.1z"/>
				<path class="st1" d="M534.4,1186.7c0,0,50.6,6.5,79.5,52.4l-6.2,4.2c0,0-38.8-42.5-70.1-50.1
					C506.3,1185.6,534.4,1186.7,534.4,1186.7z"/>
			</g>
		</g>
		<g>
			<path class="st2" d="M525.1,945.7c0,0,118.5-66.4,63.2-156.4c0,0-44.2-55.3-91.6-69.5c0,0,25.3,134.3,0,137.5
				c-25.3,3.2-17.4-151.7-17.4-151.7s-124.8-60-173.8-55.3c0,0,77.4,131.1,52.1,128c-25.3-3.2-112.2-135.9-112.2-135.9
				s-128-23.7-148.5,52.1c-20.5,75.8,12.6,113.8,31.6,118.5c19,4.7,140.6,3.2,137.5,19c-3.2,15.8-85.3,41.1-131.1,26.9
				c0,0,50.6,124.8,116.9,118.5c66.4-6.3,86.9-47.4,128-50.6c41.1-3.2,71.1,7.9,50.6,19c-20.5,11.1-90.1,3.6-123.2,31.8
				c-33.2,28.2-60,45.6,1.6,58.2c61.6,12.6,172.2,4.7,194.3-42.7C525.1,945.7,525.1,945.7,525.1,945.7z"/>
			<g>
				<path class="st0" d="M155.4,718.2c0,0,331.8,107.4,369.7,227.5c0,0-1.6,53.7,31.6,115.3v23.7c0,0-34.8-80.6-53.7-91.6
					C503,993.1,577.2,888.8,155.4,718.2z"/>
				<path class="st1" d="M556.7,1061c0,0,51.2,77.7,22,172.3l-13.2-3.5c0,0,12.8-104.2-14-156.6C524.8,1020.8,556.7,1061,556.7,1061
					z"/>
			</g>
		</g>
		<path class="st3" d="M645.5,390.5l-177.3,916.6c-3.6,18.6,10.7,36,29.7,36h93.5L645.5,390.5z"/>
		<g>
			<path class="st4" d="M1824.1,652.9c0,0-79.8-50.9-37.7-111.3c0,0,33-36.7,66.5-44.7c0,0-22.9,92.4-5.5,95.6
				c17.5,3.2,18.1-104.8,18.1-104.8s89.2-36.8,123.1-31.5c0,0-59.1,88.1-41.4,86.9c17.7-1.2,83.4-90,83.4-90s89.9-11.4,101.2,42.2
				c11.3,53.6-13.3,78.6-26.7,81.1c-13.4,2.5-97.9-3.4-96.3,7.7c1.6,11.1,57.7,32,90.1,23.9c0,0-40.1,84.8-86,77.7
				c-45.9-7-58.5-36.4-87-40.3c-28.4-3.8-49.8,2.7-35.9,11.2c13.8,8.5,62.5,6.1,84.4,27.1c21.9,20.9,39.9,34.1-3.4,40.4
				c-43.4,6.3-119.9-3.6-133.4-37.4C1824.1,652.9,1824.1,652.9,1824.1,652.9z"/>
			<g>
				<path class="st4" d="M2090.3,509.4c0,0-235,61.5-266.2,143.5c0,0-1,37.4-26.6,78.9l-0.9,16.5c0,0,27.4-54.6,41-61.6
					C1837.6,686.7,1790.1,611.3,2090.3,509.4z"/>
				<path class="st4" d="M1797.5,731.8c0,0-38.7,52-22.2,118.9l9.3-1.9c0,0-4.7-73,16-108.3C1821.3,705.1,1797.5,731.8,1797.5,731.8
					z"/>
			</g>
		</g>
		<g>
			<path class="st5" d="M1609.4,432.1c0,0-122.5-26.9-97.8-121.3c0,0,24.3-60.7,62.4-86c0,0,13.6,125.5,36.8,121.5
				c23.2-4-25.3-138.7-25.3-138.7s94.3-86.5,138.8-95.5c0,0-33.3,136.7-11.8,127.1S1775.3,89,1775.3,89s106.8-55.2,145.3,6.3
				c38.5,61.5,19.3,103.9,3.8,113.2c-15.5,9.3-123.5,40.5-116.4,53.6c7,13.1,86.4,13.5,123.1-11.4c0,0-11.2,123.9-71.6,136.1
				c-60.4,12.2-89.5-18.6-126.7-10.4c-37.2,8.2-60.7,26-39.6,30.3c21.1,4.3,80.6-20.9,117.5-4.9c36.9,16,65.3,24.2,14.2,51.9
				c-51.1,27.7-151,50.3-183.2,14.4C1609.4,432.1,1609.4,432.1,1609.4,432.1z"/>
			<g>
				<path class="st5" d="M1875.2,131.9c0,0-264.5,183.9-265.9,300.2c0,0,15.8,47.1,3,110.4l6.4,21c0,0,9.1-80.5,22.9-95.4
					C1641.6,468,1548,395.8,1875.2,131.9z"/>
				<path class="st5" d="M1612.3,542.5c0,0-24.4,82.4,26.7,158.2l10.7-6.7c0,0-39.2-88.7-29.6-142.2
					C1629.8,498.4,1612.3,542.5,1612.3,542.5z"/>
			</g>
		</g>
		<path class="st6" d="M647.7,386.8l-117.5,900c-3.9,29.8,19.3,56.3,49.4,56.3H752l-97.2-959.5L647.7,386.8z"/>
		<path class="st7" d="M647.7,386.8L595.1,1281c-2,33.7,24.8,62,58.5,62h257.1L647.7,386.8z"/>
		<path class="st8" d="M645.7,394.1l25.6,886.9c-2,33.7,24.8,62,58.5,62h257.1L645.7,394.1z"/>
		<path class="st9" d="M1876.7,1343.1H862.9c-25.3,0-47-18.1-51.6-43L657.1,456.5c-7-38.3,22.4-73.6,61.4-73.6h1001.9
			c25.3,0,47,18.1,51.6,43l156.4,855.4C1934.2,1313.4,1909.4,1343.1,1876.7,1343.1z"/>
		<path class="st3" d="M677.2,566h1121l-28.7-159.3c-2.5-13.8-14.5-23.9-28.6-23.9H655c-5.9,0-10.4,5.4-9.3,11.2L677.2,566z"/>
		<g>
			<g>
				<g>
					<path class="st6" d="M703.4,334.9c-26.8,0-48.6,21.8-48.6,48.6h9.3c0-21.7,17.6-39.3,39.3-39.3c21.7,0,39.3,17.6,39.3,39.3
						c0,4.3-0.7,8.5-2,12.4c-3.9,11.5-12.9,20.7-24.4,24.7c-3.4,1.2-6.9,1.9-10.6,2.1v9.3c4.3-0.2,8.5-0.9,12.4-2.2
						c15.8-5,28.1-17.8,32.3-33.9c1-4,1.6-8.1,1.6-12.4C752,356.7,730.2,334.9,703.4,334.9z"/>
				</g>
				<path class="st6" d="M718.4,427.1c0,1-0.1,1.9-0.4,2.8c-1.2,4.5-5.3,7.7-10.1,7.7c-5.8,0-10.5-4.7-10.5-10.5
					c0-5.8,4.7-10.5,10.5-10.5c3.4,0,6.4,1.6,8.3,4.1C717.6,422.4,718.4,424.7,718.4,427.1z"/>
			</g>
			<g>
				<g>
					<path class="st6" d="M877.6,334.9c-26.8,0-48.6,21.8-48.6,48.6h9.3c0-21.7,17.6-39.3,39.3-39.3c21.7,0,39.3,17.6,39.3,39.3
						c0,4.3-0.7,8.5-2,12.4c-3.9,11.5-12.9,20.7-24.4,24.7c-3.4,1.2-6.9,1.9-10.6,2.1v9.3c4.3-0.2,8.5-0.9,12.4-2.2
						c15.8-5,28.1-17.8,32.3-33.9c1-4,1.6-8.1,1.6-12.4C926.2,356.7,904.4,334.9,877.6,334.9z"/>
				</g>
				<path class="st6" d="M892.7,427.1c0,1-0.1,1.9-0.4,2.8c-1.2,4.5-5.3,7.7-10.1,7.7c-5.8,0-10.5-4.7-10.5-10.5
					c0-5.8,4.7-10.5,10.5-10.5c3.4,0,6.4,1.6,8.3,4.1C891.8,422.4,892.7,424.7,892.7,427.1z"/>
			</g>
			<g>
				<g>
					<path class="st6" d="M1051.9,334.9c-26.8,0-48.6,21.8-48.6,48.6h9.3c0-21.7,17.6-39.3,39.3-39.3c21.7,0,39.3,17.6,39.3,39.3
						c0,4.3-0.7,8.5-2,12.4c-3.9,11.5-12.9,20.7-24.4,24.7c-3.4,1.2-6.9,1.9-10.6,2.1v9.3c4.3-0.2,8.5-0.9,12.4-2.2
						c15.8-5,28.1-17.8,32.3-33.9c1-4,1.6-8.1,1.6-12.4C1100.5,356.7,1078.7,334.9,1051.9,334.9z"/>
				</g>
				<path class="st6" d="M1066.9,427.1c0,1-0.1,1.9-0.4,2.8c-1.2,4.5-5.3,7.7-10.1,7.7c-5.8,0-10.5-4.7-10.5-10.5
					c0-5.8,4.7-10.5,10.5-10.5c3.4,0,6.4,1.6,8.3,4.1C1066.1,422.4,1066.9,424.7,1066.9,427.1z"/>
			</g>
			<g>
				<g>
					<path class="st6" d="M1226.1,334.9c-26.8,0-48.6,21.8-48.6,48.6h9.3c0-21.7,17.6-39.3,39.3-39.3c21.7,0,39.3,17.6,39.3,39.3
						c0,4.3-0.7,8.5-2,12.4c-3.9,11.5-12.9,20.7-24.4,24.7c-3.4,1.2-6.9,1.9-10.6,2.1v9.3c4.3-0.2,8.5-0.9,12.4-2.2
						c15.8-5,28.1-17.8,32.3-33.9c1-4,1.6-8.1,1.6-12.4C1274.7,356.7,1252.9,334.9,1226.1,334.9z"/>
				</g>
				<path class="st6" d="M1241.2,427.1c0,1-0.1,1.9-0.4,2.8c-1.2,4.5-5.3,7.7-10.1,7.7c-5.8,0-10.5-4.7-10.5-10.5
					c0-5.8,4.7-10.5,10.5-10.5c3.4,0,6.4,1.6,8.3,4.1C1240.4,422.4,1241.2,424.7,1241.2,427.1z"/>
			</g>
			<g>
				<g>
					<path class="st6" d="M1400.4,334.9c-26.8,0-48.6,21.8-48.6,48.6h9.3c0-21.7,17.6-39.3,39.3-39.3c21.7,0,39.3,17.6,39.3,39.3
						c0,4.3-0.7,8.5-2,12.4c-3.9,11.5-12.9,20.7-24.4,24.7c-3.3,1.2-6.9,1.9-10.6,2.1v9.3c4.3-0.2,8.5-0.9,12.4-2.2
						c15.8-5,28.1-17.8,32.3-33.9c1.1-4,1.6-8.1,1.6-12.4C1449,356.7,1427.2,334.9,1400.4,334.9z"/>
				</g>
				<path class="st6" d="M1415.4,427.1c0,1-0.1,1.9-0.4,2.8c-1.2,4.5-5.3,7.7-10.1,7.7c-5.8,0-10.5-4.7-10.5-10.5
					c0-5.8,4.7-10.5,10.5-10.5c3.4,0,6.4,1.6,8.3,4.1C1414.6,422.4,1415.4,424.7,1415.4,427.1z"/>
			</g>
			<g>
				<g>
					<path class="st6" d="M1574.6,334.9c-26.8,0-48.6,21.8-48.6,48.6h9.3c0-21.7,17.6-39.3,39.3-39.3c21.7,0,39.3,17.6,39.3,39.3
						c0,4.3-0.7,8.5-2,12.4c-3.9,11.5-12.9,20.7-24.4,24.7c-3.3,1.2-6.9,1.9-10.6,2.1v9.3c4.3-0.2,8.5-0.9,12.4-2.2
						c15.8-5,28.1-17.8,32.3-33.9c1-4,1.6-8.1,1.6-12.4C1623.2,356.7,1601.4,334.9,1574.6,334.9z"/>
				</g>
				<path class="st6" d="M1589.7,427.1c0,1-0.1,1.9-0.4,2.8c-1.2,4.5-5.3,7.7-10.1,7.7c-5.8,0-10.5-4.7-10.5-10.5
					c0-5.8,4.7-10.5,10.5-10.5c3.4,0,6.4,1.6,8.3,4.1C1588.9,422.4,1589.7,424.7,1589.7,427.1z"/>
			</g>
			<g>
				<g>
					<path class="st6" d="M1748.9,334.9c-26.8,0-48.6,21.8-48.6,48.6h9.3c0-21.7,17.6-39.3,39.3-39.3c21.7,0,39.3,17.6,39.3,39.3
						c0,4.3-0.7,8.5-2,12.4c-3.9,11.5-12.9,20.7-24.4,24.7c-3.4,1.2-6.9,1.9-10.6,2.1v9.3c4.3-0.2,8.5-0.9,12.4-2.2
						c15.8-5,28.1-17.8,32.3-33.9c1-4,1.6-8.1,1.6-12.4C1797.5,356.7,1775.7,334.9,1748.9,334.9z"/>
				</g>
				<path class="st6" d="M1763.9,427.1c0,1-0.1,1.9-0.4,2.8c-1.2,4.5-5.3,7.7-10.1,7.7c-5.8,0-10.5-4.7-10.5-10.5
					c0-5.8,4.7-10.5,10.5-10.5c3.4,0,6.4,1.6,8.3,4.1C1763.1,422.4,1763.9,424.7,1763.9,427.1z"/>
			</g>
		</g>
		<g>
			<path class="st10" d="M1325.5,865.2h-56.7c-6.6,0-12.9-5.4-14.2-11.9l-10.9-56.7c-1.3-6.6,3.1-11.9,9.6-11.9h56.7
				c6.6,0,12.9,5.4,14.2,11.9l10.9,56.7C1336.3,859.9,1332,865.2,1325.5,865.2z"/>
			<path class="st10" d="M1468.5,865.2h-56.7c-6.6,0-12.9-5.4-14.2-11.9l-10.9-56.7c-1.3-6.6,3.1-11.9,9.6-11.9h56.7
				c6.6,0,12.9,5.4,14.2,11.9l10.9,56.7C1479.3,859.9,1475,865.2,1468.5,865.2z"/>
			<path class="st6" d="M1611.5,865.2h-56.7c-6.6,0-12.9-5.4-14.2-11.9l-10.9-56.7c-1.3-6.6,3.1-11.9,9.6-11.9h56.7
				c6.6,0,12.9,5.4,14.2,11.9l10.9,56.7C1622.3,859.9,1618,865.2,1611.5,865.2z"/>
			<path class="st10" d="M896.5,865.2h-56.7c-6.6,0-12.9-5.4-14.2-11.9l-10.9-56.7c-1.3-6.6,3.1-11.9,9.6-11.9h56.7
				c6.6,0,12.9,5.4,14.2,11.9l10.9,56.7C907.3,859.9,903,865.2,896.5,865.2z"/>
			<path class="st3" d="M834.3,695.1H810c-2.8,0-5.6-2.3-6.1-5.1l-4.7-24.4c-0.5-2.8,1.3-5.1,4.1-5.1h24.4c2.8,0,5.6,2.3,6.1,5.1
				l4.7,24.4C839,692.8,837.2,695.1,834.3,695.1z"/>
			<path class="st10" d="M1039.5,865.2h-56.7c-6.6,0-12.9-5.4-14.2-11.9l-10.9-56.7c-1.3-6.6,3.1-11.9,9.6-11.9h56.7
				c6.6,0,12.9,5.4,14.2,11.9l10.9,56.7C1050.3,859.9,1046,865.2,1039.5,865.2z"/>
			<path class="st10" d="M1182.5,865.2h-56.7c-6.6,0-12.9-5.4-14.2-11.9l-10.9-56.7c-1.3-6.6,3.1-11.9,9.6-11.9h56.7
				c6.6,0,12.9,5.4,14.2,11.9l10.9,56.7C1193.3,859.9,1189,865.2,1182.5,865.2z"/>
			<path class="st6" d="M1754.5,865.2h-56.7c-6.6,0-12.9-5.4-14.2-11.9l-10.9-56.7c-1.3-6.6,3.1-11.9,9.6-11.9h56.7
				c6.6,0,12.9,5.4,14.2,11.9l10.9,56.7C1765.3,859.9,1761,865.2,1754.5,865.2z"/>
			<path class="st10" d="M1301.7,742.2H1245c-6.6,0-12.9-5.4-14.2-11.9l-10.9-56.7c-1.3-6.6,3.1-11.9,9.6-11.9h56.7
				c6.6,0,12.9,5.4,14.2,11.9l10.9,56.7C1312.6,736.8,1308.3,742.2,1301.7,742.2z"/>
			<path class="st10" d="M1444.7,742.2H1388c-6.6,0-12.9-5.4-14.2-11.9l-10.9-56.7c-1.3-6.6,3.1-11.9,9.6-11.9h56.7
				c6.6,0,12.9,5.4,14.2,11.9l10.9,56.7C1455.6,736.8,1451.3,742.2,1444.7,742.2z"/>
			<path class="st6" d="M1587.7,742.2H1531c-6.6,0-12.9-5.4-14.2-11.9l-10.9-56.7c-1.3-6.6,3.1-11.9,9.6-11.9h56.7
				c6.6,0,12.9,5.4,14.2,11.9l10.9,56.7C1598.6,736.8,1594.3,742.2,1587.7,742.2z"/>
			<path class="st6" d="M1730.7,742.2H1674c-6.6,0-12.9-5.4-14.2-11.9l-10.9-56.7c-1.3-6.6,3.1-11.9,9.6-11.9h56.7
				c6.6,0,12.9,5.4,14.2,11.9l10.9,56.7C1741.6,736.8,1737.3,742.2,1730.7,742.2z"/>
			<path class="st10" d="M1350.6,995.7H1294c-6.6,0-12.9-5.4-14.2-11.9l-10.9-56.7c-1.3-6.6,3.1-11.9,9.6-11.9h56.7
				c6.6,0,12.9,5.4,14.2,11.9l10.9,56.7C1361.5,990.3,1357.2,995.7,1350.6,995.7z"/>
			<path class="st10" d="M1493.6,995.7H1437c-6.6,0-12.9-5.4-14.2-11.9l-10.9-56.7c-1.3-6.6,3.1-11.9,9.6-11.9h56.7
				c6.6,0,12.9,5.4,14.2,11.9l10.9,56.7C1504.5,990.3,1500.2,995.7,1493.6,995.7z"/>
			<path class="st6" d="M1636.6,995.7H1580c-6.6,0-12.9-5.4-14.2-11.9l-10.9-56.7c-1.3-6.6,3.1-11.9,9.6-11.9h56.7
				c6.6,0,12.9,5.4,14.2,11.9l10.9,56.7C1647.5,990.3,1643.2,995.7,1636.6,995.7z"/>
			<path class="st10" d="M921.6,995.7h-56.7c-6.6,0-12.9-5.4-14.2-11.9l-10.9-56.7c-1.3-6.6,3.1-11.9,9.6-11.9h56.7
				c6.6,0,12.9,5.4,14.2,11.9l10.9,56.7C932.5,990.3,928.2,995.7,921.6,995.7z"/>
			<path class="st10" d="M1064.6,995.7h-56.7c-6.6,0-12.9-5.4-14.2-11.9l-10.9-56.7c-1.3-6.6,3.1-11.9,9.6-11.9h56.7
				c6.6,0,12.9,5.4,14.2,11.9l10.9,56.7C1075.5,990.3,1071.2,995.7,1064.6,995.7z"/>
			<path class="st10" d="M1207.6,995.7h-56.7c-6.6,0-12.9-5.4-14.2-11.9l-10.9-56.7c-1.3-6.6,3.1-11.9,9.6-11.9h56.7
				c6.6,0,12.9,5.4,14.2,11.9l10.9,56.7C1218.5,990.3,1214.2,995.7,1207.6,995.7z"/>
			<path class="st6" d="M1779.6,995.7H1723c-6.6,0-12.9-5.4-14.2-11.9l-10.9-56.7c-1.3-6.6,3.1-11.9,9.6-11.9h56.7
				c6.6,0,12.9,5.4,14.2,11.9l10.9,56.7C1790.5,990.3,1786.2,995.7,1779.6,995.7z"/>
			<path class="st10" d="M1375.8,1126.2h-56.7c-6.6,0-12.9-5.4-14.2-11.9l-10.9-56.7c-1.3-6.6,3.1-11.9,9.6-11.9h56.7
				c6.6,0,12.9,5.4,14.2,11.9l10.9,56.7C1386.7,1120.8,1382.3,1126.2,1375.8,1126.2z"/>
			<path class="st10" d="M1518.8,1126.2h-56.7c-6.6,0-12.9-5.4-14.2-11.9l-10.9-56.7c-1.3-6.6,3.1-11.9,9.6-11.9h56.7
				c6.6,0,12.9,5.4,14.2,11.9l10.9,56.7C1529.7,1120.8,1525.3,1126.2,1518.8,1126.2z"/>
			<path class="st6" d="M1661.8,1126.2h-56.7c-6.6,0-12.9-5.4-14.2-11.9l-10.9-56.7c-1.3-6.6,3.1-11.9,9.6-11.9h56.7
				c6.6,0,12.9,5.4,14.2,11.9l10.9,56.7C1672.7,1120.8,1668.3,1126.2,1661.8,1126.2z"/>
			<path class="st10" d="M946.8,1126.2h-56.7c-6.6,0-12.9-5.4-14.2-11.9l-10.9-56.7c-1.3-6.6,3.1-11.9,9.6-11.9h56.7
				c6.6,0,12.9,5.4,14.2,11.9l10.9,56.7C957.7,1120.8,953.3,1126.2,946.8,1126.2z"/>
			<path class="st3" d="M1089.8,1126.2h-56.7c-6.6,0-12.9-5.4-14.2-11.9l-10.9-56.7c-1.3-6.6,3.1-11.9,9.6-11.9h56.7
				c6.6,0,12.9,5.4,14.2,11.9l10.9,56.7C1100.7,1120.8,1096.3,1126.2,1089.8,1126.2z"/>
			<path class="st10" d="M1232.8,1126.2h-56.7c-6.6,0-12.9-5.4-14.2-11.9l-10.9-56.7c-1.3-6.6,3.1-11.9,9.6-11.9h56.7
				c6.6,0,12.9,5.4,14.2,11.9l10.9,56.7C1243.7,1120.8,1239.3,1126.2,1232.8,1126.2z"/>
			<path class="st6" d="M1804.8,1126.2h-56.7c-6.6,0-12.9-5.4-14.2-11.9l-10.9-56.7c-1.3-6.6,3.1-11.9,9.6-11.9h56.7
				c6.6,0,12.9,5.4,14.2,11.9l10.9,56.7C1815.7,1120.8,1811.3,1126.2,1804.8,1126.2z"/>
			<path class="st10" d="M1399.5,1249.2h-56.7c-6.6,0-12.9-5.4-14.2-11.9l-10.9-56.7c-1.3-6.6,3.1-11.9,9.6-11.9h56.7
				c6.6,0,12.9,5.4,14.2,11.9l10.9,56.7C1410.4,1243.9,1406.1,1249.2,1399.5,1249.2z"/>
			<path class="st10" d="M1542.5,1249.2h-56.7c-6.6,0-12.9-5.4-14.2-11.9l-10.9-56.7c-1.3-6.6,3.1-11.9,9.6-11.9h56.7
				c6.6,0,12.9,5.4,14.2,11.9l10.9,56.7C1553.4,1243.9,1549.1,1249.2,1542.5,1249.2z"/>
			<path class="st6" d="M1685.5,1249.2h-56.7c-6.6,0-12.9-5.4-14.2-11.9l-10.9-56.7c-1.3-6.6,3.1-11.9,9.6-11.9h56.7
				c6.6,0,12.9,5.4,14.2,11.9l10.9,56.7C1696.4,1243.9,1692.1,1249.2,1685.5,1249.2z"/>
			<path class="st10" d="M970.5,1249.2h-56.7c-6.6,0-12.9-5.4-14.2-11.9l-10.9-56.7c-1.3-6.6,3.1-11.9,9.6-11.9H955
				c6.6,0,12.9,5.4,14.2,11.9l10.9,56.7C981.4,1243.9,977.1,1249.2,970.5,1249.2z"/>
			<path class="st10" d="M1113.5,1249.2h-56.7c-6.6,0-12.9-5.4-14.2-11.9l-10.9-56.7c-1.3-6.6,3.1-11.9,9.6-11.9h56.7
				c6.6,0,12.9,5.4,14.2,11.9l10.9,56.7C1124.4,1243.9,1120.1,1249.2,1113.5,1249.2z"/>
			<path class="st10" d="M1256.5,1249.2h-56.7c-6.6,0-12.9-5.4-14.2-11.9l-10.9-56.7c-1.3-6.6,3.1-11.9,9.6-11.9h56.7
				c6.6,0,12.9,5.4,14.2,11.9l10.9,56.7C1267.4,1243.9,1263.1,1249.2,1256.5,1249.2z"/>
			<path class="st10" d="M1006.1,672.7H856c-2.2,0-4-1.8-4-4l0,0c0-2.2,1.8-4,4-4h150.1c2.2,0,4,1.8,4,4l0,0
				C1010.1,670.9,1008.3,672.7,1006.1,672.7z"/>
			<path class="st10" d="M1010.7,690.9H860.5c-2.2,0-4-1.8-4-4l0,0c0-2.2,1.8-4,4-4h150.1c2.2,0,4,1.8,4,4l0,0
				C1014.7,689.1,1012.9,690.9,1010.7,690.9z"/>
		</g>
		<g>
			<path class="st11" d="M845.1,537.4h-51.5c-4.2,0-7.7-3.5-7.7-7.7l0,0c0-4.2,3.5-7.7,7.7-7.7h51.5c4.2,0,7.7,3.5,7.7,7.7l0,0
				C852.8,533.9,849.3,537.4,845.1,537.4z"/>
			<path class="st11" d="M986.5,537.4h-51.5c-4.2,0-7.7-3.5-7.7-7.7l0,0c0-4.2,3.5-7.7,7.7-7.7h51.5c4.2,0,7.7,3.5,7.7,7.7l0,0
				C994.1,533.9,990.7,537.4,986.5,537.4z"/>
			<path class="st11" d="M1127.8,537.4h-51.5c-4.2,0-7.7-3.5-7.7-7.7l0,0c0-4.2,3.5-7.7,7.7-7.7h51.5c4.2,0,7.7,3.5,7.7,7.7l0,0
				C1135.5,533.9,1132,537.4,1127.8,537.4z"/>
			<path class="st11" d="M1269.2,537.4h-51.5c-4.2,0-7.7-3.5-7.7-7.7l0,0c0-4.2,3.5-7.7,7.7-7.7h51.5c4.2,0,7.7,3.5,7.7,7.7l0,0
				C1276.9,533.9,1273.4,537.4,1269.2,537.4z"/>
			<path class="st11" d="M1410.6,537.4H1359c-4.2,0-7.7-3.5-7.7-7.7l0,0c0-4.2,3.5-7.7,7.7-7.7h51.5c4.2,0,7.7,3.5,7.7,7.7l0,0
				C1418.2,533.9,1414.8,537.4,1410.6,537.4z"/>
			<path class="st11" d="M1551.9,537.4h-51.5c-4.2,0-7.7-3.5-7.7-7.7l0,0c0-4.2,3.5-7.7,7.7-7.7h51.5c4.2,0,7.7,3.5,7.7,7.7l0,0
				C1559.6,533.9,1556.1,537.4,1551.9,537.4z"/>
			<path class="st11" d="M1693.3,537.4h-51.5c-4.2,0-7.7-3.5-7.7-7.7l0,0c0-4.2,3.5-7.7,7.7-7.7h51.5c4.2,0,7.7,3.5,7.7,7.7l0,0
				C1701,533.9,1697.5,537.4,1693.3,537.4z"/>
		</g>
		<g>
			<path class="st3" d="M1367.4,743.3c-11.4,0-19.7-3.6-24.2-10.6c-8.7-13.4-2-32.3,19.9-56c16-17.3,34.6-31,34.8-31.2
				c0.7-0.5,1.8-0.4,2.3,0.4c0.5,0.7,0.4,1.8-0.4,2.3c-0.7,0.5-72.5,53.7-53.8,82.7c5.9,9.2,18.6,9.8,28.2,8.7
				c17.8-2.1,41-11.6,62-25.6c21.8-14.5,37.2-30.8,42.1-44.8c3.3-9.2,2.3-15.7-3-19.3c-6.8-4.7-21-4.7-38,0
				c-16.3,4.5-32.6,12.6-42.7,21.1c-0.7,0.6-1.7,0.5-2.3-0.2c-0.6-0.7-0.5-1.7,0.2-2.3c10.4-8.8,27.3-17.2,43.9-21.8
				c18.2-5,33-4.8,40.7,0.5c4.6,3.2,9,9.7,4.2,23.1c-5.2,14.6-21,31.5-43.4,46.4c-21.5,14.3-45.2,24-63.5,26.2
				C1372.1,743.1,1369.7,743.3,1367.4,743.3z"/>
		</g>
		<g>
			<path class="st12" d="M1664.9,649.9l-5.8-11c0,0,2.9-19.7-21.7-32.1c0,0-9-3.7-14.1,3.7c-4.7,6.8,8.9,5.5,8.2,17.1
				c-0.7,11.6,4.8,18.4,12.4,22.1l6.3,7.3L1664.9,649.9z"/>
			<path class="st13" d="M1897.7,623.5c0,0-21.2,103.8-137.6,137.8c-36.3,10.6-118.9-109.1-118.9-109.1s2.9-11,21.1-8.5
				c0,0,80.4,53.2,90.5,59c9,5.1,68-65.9,95-77.4C1874.7,613.8,1897.7,623.5,1897.7,623.5z"/>
			<g>
				
					<rect x="1610.2" y="558" transform="matrix(-0.1821 -0.9833 0.9833 -0.1821 1306.5125 2331.7192)" class="st3" width="25.6" height="128.9"/>
				<polygon class="st12" points="1530.2,639.7 1562,646.8 1557.3,621.6 				"/>
				<path class="st12" d="M1700.3,603.8l1.5,8c0.9,4.9-2.3,9.6-7.2,10.5l-5.9,1.1l-4.7-25.2l6.4-1.2
					C1695,596.1,1699.5,599.2,1700.3,603.8z"/>
			</g>
			<g>
				<path class="st13" d="M2036.7,1276.3c0,0,14.4,13.2,11.6,22.5c-2.8,9.4-15.9,15.6-17.6,27.1c-1.8,11.4-8.8,17.7-15.1,17.7
					c-6.3,0-30.2,0-30.2,0s-4.7-8.1,6.6-10.5c11.3-2.4,15.5-15.9,14.8-28.4c-0.7-12.5,1.1-29.1,1.1-29.1l24-5.5L2036.7,1276.3z"/>
				<path class="st13" d="M1859.5,1310.3c0,0,2.6,30-3.7,33.1l-81.1-0.2c0,0,0-9.4,13-11.4c13-2.1,35.9-9.7,39.8-26.7
					C1831.4,1288.1,1859.5,1310.3,1859.5,1310.3z"/>
				<path class="st3" d="M1791,886.6c0,0,4.3,52.6,9.3,115.8c6.8,85.9,15.1,191.3,15.9,211.3c1.4,34.7,7,90.2,7,90.2
					s13.4,13.2,40.2,7.6c0,0,23.9-79.2,30.7-163c0.1-1.4,0.2-2.8,0.3-4.1c6.3-85.3,16.2-265,16.2-265L1791,886.6z"/>
				<path class="st14" d="M1791,886.6c0,0,4.3,52.6,9.3,115.8l93.8,146.1c0.1-1.4,0.2-2.8,0.3-4.1c6.3-85.3,16.2-265,16.2-265
					L1791,886.6z"/>
				<path class="st3" d="M1810.6,892.9c0,0,77.1,190.4,127.9,279.9c50.7,89.5,66.6,114.5,66.6,114.5s29.1-11.4,31.7-19.3
					c0,0-19.4-172.8-53.4-214.9c-19.2-23.8-41.7-95.2-42.8-120.2c-1.1-25-6.9-74.4-6.9-74.4L1810.6,892.9z"/>
			</g>
			<path class="st12" d="M1912.1,599.4c0,0-52.2,25.2-82.3,15.8c0,0,7.4-9.3,20.4-16.3c-1-6-1.9-11.3-2.3-15.7
				c-1.3-10.3-1.3-16.1-1.3-16.1l20.1-15.8l19.1-15.2C1884.3,578.8,1912.1,599.4,1912.1,599.4z"/>
			<path class="st15" d="M1787.7,891c0.9,0.8,2,1.2,3.1,1.2c11.3-0.2,44.3,6,72.2,3.2c23.6-2.3,44.4-9.1,66.8-18.9
				c3-1.4,9.8-5,9.7-8.2c-0.1-3.6-0.5-8.8-0.9-15.4c-0.9-13-2.3-31.5-2.7-53.4c-0.3-16.2-0.1-34.4,1-53.6c0.1-1.3,0.1-2.6,0.2-3.9
				c0.3-7,0.5-14.1,0.5-21.1c0.1-22.3-1.5-43.6-4.7-62.7c-5.7-33.1-16.3-58.9-32.1-70.4c-2.1-1.6-15.1,4.7-27.1,10.5
				c-11,5.4-22,5.9-32.4,3.9l-10.4,9.1c-12.6,11.5-26.5,27.3-32.6,51.3c-5.1,20.3-8.1,57-9.7,95.1c-0.8,17.3-1.4,34.6-1.6,51.2v0.6
				c-0.1,1.7-0.1,3.4-0.1,5.1C1786.4,856.8,1786.9,890.4,1787.7,891z"/>
			<path class="st16" d="M1886.2,552.4c0,0-13.2,24-38.3,30.8c-1.3-10.3-1.3-16.1-1.3-16.1l20.1-15.8L1886.2,552.4z"/>
			<path class="st12" d="M1837.4,566.4c0,0,49.8,8.1,54.5-22.5c4.7-30.6,14.2-50.2-17.3-56.7c-31.6-6.5-39.6,4.3-43.7,14.1
				C1826.8,511.3,1824.6,563.5,1837.4,566.4z"/>
			<path class="st17" d="M1910,483.6c0.5-0.5,1.5-0.9,3.8-1.1c0,0-1.9-1.2-4.3-1.2c-0.5-3.2-2.2-8.9-7.8-10.3c0,0,3,1.6,3.4,5
				c-6.4-6.6-20.2-11.4-58.4-8.4c-50.3,4-33.7,36.2-27.2,40c6.5,3.8,22.9-6.7,35-5.7c12.1,1,14.4,18.5,18.6,20.9
				c4.1,2.4,2.5-1.8,8.1-4.4c5.6-2.5,6.1,6.7,4.5,12.7c-1.6,6,6,13.9,6,13.9s0,0,7.7-8.3c7.7-8.3,15-43.6,11.5-51.1
				C1910.6,485,1910.3,484.3,1910,483.6z"/>
			<path class="st12" d="M1659,638.3c0,0,1.7-6.8-3-9.8c-4.7-3-9-11.3-11-10.2c-4.1,2.3,2.2,9.5,1.1,18.5
				C1645.7,640,1653,648.3,1659,638.3z"/>
			<path class="st13" d="M1936,799.5c-0.3-16.2-0.1-34.4,1-53.6c0.1-1.3,0.1-2.6,0.2-3.9c-4.7-23.5-11.9-44.3-22.4-44.9
				C1914.8,697,1883.4,746.4,1936,799.5z"/>
			<path class="st12" d="M1977.5,884.5c0,0-2.6,25.4-5.5,30.3c-2.9,4.8-15.1,20.2-20.3,23.2c-5.2,3,3.2-20.3,2.1-24.8
				c-1.1-4.5-4.3,8.3-6.6,8.6c-2.3,0.3-1.7-11.2-1.8-15.4c-0.1-4.2,11.2-14.5,15.1-23.5C1964.6,874,1977.5,884.5,1977.5,884.5z"/>
			<path class="st15" d="M1900.9,587.5c0,0,31.5,14.9,46.6,37.9c23.4,35.6,50.6,165.2,51.1,177.3c0.5,12-19.8,96.8-19.8,96.8
				s-20.6-1.4-25.9-11.8c0,0,4.1-87.1,1.5-92.7c-2.6-5.6-85.9-116.8-76.6-140.6C1887.2,630.7,1900.9,587.5,1900.9,587.5z"/>
			<polygon class="st3" points="1546.5,628.8 1548.1,643.7 1530.2,639.7 			"/>
		</g>
		<path class="st0" d="M2228.3,1343.1h-90.8c-4.9-4.1,3.4-13.5,12-14.1c3.7-0.3,8.5,0.5,13.9,1.6c1.2-16.6,8.4-91.2,35.3-88.2
			c30.2,3.4,0,32.9-8.5,50.3c-6.3,12.9-13,31.5-16.1,40.2c2.5,0.5,5,1.1,7.6,1.5c4-12.3,18.9-53.7,37.9-51.3
			c22.3,2.8,13.3,19.4-2.5,29.3c-11.6,7.2-25.8,17.5-32.6,22.5c5.7,0.9,11.7,1.6,17.8,1.4C2217.7,1336,2225.3,1340.6,2228.3,1343.1z
			"/>
		<path class="st0" d="M155.6,1338.8c-4.8-7.6-19.3-27.2-38.6-24.6c-21,2.8,23.2,16.7,36.8,24.6c-3,0-5.6-0.2-7.5-0.9
			c-9.1-3.2-24.6,3-29.5,5.1h86.2c-0.6-2.1-2.1-5.4-6.2-7.9c-1.4-0.9-4.3-1-7.9-0.7c5.1-6,8.7-25.3-5.6-20.4
			c-10.4,3.6-10.4,15.4-9.4,22.4c-2.2,0.3-4.5,0.7-6.7,1c-4.3-21.9-19.5-86-50.2-87.7c-31.2-1.7,26.4,66.5,45.6,88.3
			C160.1,1338.4,157.7,1338.7,155.6,1338.8z"/>
	</g>
</g>
</svg>
