<svg id="Layer_1" data-name="Layer 1" xmlns="http://www.w3.org/2000/svg" viewBox="0 0 429.92 376.66"><defs><style>.cls-1,.cls-18,.cls-19,.cls-2,.cls-3{fill:none;}.cls-1,.cls-2,.cls-3,.cls-8{stroke:#d4d7dd;stroke-miterlimit:10;}.cls-1{stroke-dasharray:9.14 9.14;}.cls-2{stroke-dasharray:9.1 9.1;}.cls-3{stroke-dasharray:9.06 9.06;}.cls-4{fill:#ff3301;}.cls-5{fill:#00d199;}.cls-6{fill:#ffe000;}.cls-7{fill:#81ba31;}.cls-12,.cls-13,.cls-14,.cls-8{fill:#fff;}.cls-8{stroke-width:0.5px;}.cls-9{fill:#3b4263;}.cls-10{fill:#8784f4;}.cls-11{fill:#7703fc;}.cls-12{font-size:33.22px;}.cls-12,.cls-13,.cls-17{font-family:TransformersMovie, Transformers;}.cls-13{font-size:26.71px;}.cls-15{fill:#c1d3b9;}.cls-16{fill:#fcfbfa;}.cls-17{font-size:47.68px;}.cls-18{stroke:#262d44;stroke-width:3px;}.cls-18,.cls-19{stroke-linecap:round;stroke-linejoin:round;}.cls-19{stroke:#f93568;stroke-width:2px;}.cls-20{fill:#36c5f0;}.cls-20,.cls-21,.cls-22,.cls-23{fill-rule:evenodd;}.cls-21{fill:#2eb67d;}.cls-22{fill:#ecb22e;}.cls-23{fill:#e01e5a;}.cls-24{fill:#1a73e8;}.cls-25{fill:#ea4335;}.cls-26{fill:#4285f4;}.cls-27{fill:#fbbc04;}.cls-28{fill:#34a853;}.cls-29{fill:#0066da;}.cls-30{fill:#00ac47;}.cls-31{fill:#00832d;}.cls-32{fill:#2684fc;}.cls-33{fill:#ffba00;}.cls-34{fill:#ffcb00;}.cls-35{fill:#ff3d57;}.cls-36{fill:#00d647;}</style></defs><circle class="cls-1" cx="211.4" cy="189.24" r="43.67" transform="translate(-33.94 331.76) rotate(-71.99)"/><circle class="cls-2" cx="211.4" cy="189.24" r="84.02" transform="translate(-71.9 204.91) rotate(-45)"/><circle class="cls-3" cx="211.4" cy="189.24" r="141.37" transform="translate(-71.9 204.91) rotate(-45)"/><circle class="cls-4" cx="134.61" cy="64.76" r="22.96"/><circle class="cls-5" cx="78.86" cy="138.16" r="31.65"/><circle class="cls-6" cx="86.8" cy="249.89" r="20.13"/><circle class="cls-7" cx="161.2" cy="318.77" r="30.8"/><circle class="cls-8" cx="294.67" cy="304.69" r="20.13"/><circle class="cls-9" cx="351.6" cy="230.17" r="31.11"/><circle class="cls-8" cx="211.4" cy="189.24" r="22.82"/><circle class="cls-10" cx="340.59" cy="123.23" r="20.55"/><circle class="cls-11" cx="273.6" cy="59.4" r="32.31"/><text class="cls-12" transform="translate(259.3 68.91)">W</text><text class="cls-13" transform="translate(333.64 131.09)">S</text><path d="M91.55,248.87a1.85,1.85,0,0,1,.47,0,1.63,1.63,0,0,0,0-.9c-.12-.55-.27-.88-.59-.83s-.34.45-.22,1A1.71,1.71,0,0,0,91.55,248.87Z"/><path d="M88.8,249.31c.22.1.37.16.42.11s0-.11,0-.2a1.44,1.44,0,0,0-.59-.48,1.64,1.64,0,0,0-1.57.19c-.16.12-.3.27-.28.37s0,0,.08.06a8.79,8.79,0,0,1,1.08-.24A1.81,1.81,0,0,1,88.8,249.31Z"/><path d="M88.33,249.57a1.18,1.18,0,0,0-.57.24.34.34,0,0,0-.14.23.08.08,0,0,0,0,.05l0,0a.9.9,0,0,0,.22-.06,1.9,1.9,0,0,1,1-.1c.15,0,.22,0,.26,0a.1.1,0,0,0,0-.09A.85.85,0,0,0,88.33,249.57Z"/><path d="M90.62,250.54a.37.37,0,0,0,.5-.09c.07-.15,0-.35-.24-.45a.31.31,0,1,0-.26.54Z"/><path d="M91.92,249.4c-.16,0-.3.18-.3.4a.37.37,0,0,0,.29.42c.16,0,.3-.18.3-.41S92.09,249.4,91.92,249.4Z"/><path d="M80.86,253.47c0-.05-.11,0-.18,0l-.15,0a.31.31,0,0,1-.28-.14.51.51,0,0,1,0-.48.36.36,0,0,1,0-.09,1.44,1.44,0,0,0,.1-1.27,1.1,1.1,0,0,0-.86-.62,1.06,1.06,0,0,0-.94.34,1.37,1.37,0,0,0-.35,1.14.13.13,0,0,0,.09.1c.07,0,.16,0,.22-.2a.13.13,0,0,1,0-.05,2.28,2.28,0,0,1,.15-.35.66.66,0,0,1,.42-.29.68.68,0,0,1,.5.1.65.65,0,0,1,.25.78,1.73,1.73,0,0,0-.13.69.69.69,0,0,0,.61.71.53.53,0,0,0,.5-.25A.14.14,0,0,0,80.86,253.47Z"/><path d="M96.08,252.57l-.17-.56a4.75,4.75,0,0,0-.18-.49,1.78,1.78,0,0,0,.32-1.3,1.62,1.62,0,0,0-.48-.92,3.8,3.8,0,0,0-1.68-.84l-.43-.11s0-1,0-1.44a4.69,4.69,0,0,0-.19-1.26,3.45,3.45,0,0,0-.87-1.57,5.32,5.32,0,0,0,1.73-3.37c0-2-2.48-2.62-5.52-1.36l-.64.28-1.19-1.16c-3.47-3-14.32,9-10.85,12l.76.64a3.61,3.61,0,0,0-.21,1.72A3.36,3.36,0,0,0,77.61,255a3.55,3.55,0,0,0,2.29.93A8.79,8.79,0,0,0,88,261c3.88.12,7.13-1.7,8.5-5a6.88,6.88,0,0,0,.47-2.18C96.93,253,96.41,252.57,96.08,252.57ZM80.2,255l-.36,0a2.8,2.8,0,0,1-2.56-2.34A2.31,2.31,0,0,1,79.1,250a2.11,2.11,0,0,1,.52,0,2.23,2.23,0,0,1,2,2.11C81.8,253.43,81.47,254.81,80.2,255Zm-1.31-5.84A3,3,0,0,0,77,250.39a5,5,0,0,1-.8-.78c-.67-1.27.73-3.74,1.71-5.14,2.42-3.45,6.21-6.07,8-5.59.29.08,1.23,1.17,1.23,1.17a25.72,25.72,0,0,0-3.38,2.33A15.44,15.44,0,0,0,78.89,249.18Zm12.31,5.33a.1.1,0,0,0,0-.07.08.08,0,0,0-.08-.06,8.27,8.27,0,0,1-3.57-.36c.19-.62.7-.4,1.45-.34a10.47,10.47,0,0,0,3.51-.37A8,8,0,0,0,95.16,252a5.52,5.52,0,0,1,.37,1.25.58.58,0,0,1,.38.07c.17.1.29.31.21.86a4.75,4.75,0,0,1-1.33,2.61,5.6,5.6,0,0,1-1.6,1.2,7,7,0,0,1-1,.44c-2.75.9-5.56-.09-6.47-2.21a4.24,4.24,0,0,1-.18-.5,4.38,4.38,0,0,1,1-4.13h0a.41.41,0,0,0,.13-.25.48.48,0,0,0-.1-.23c-.36-.52-1.61-1.41-1.36-3.12a2.33,2.33,0,0,1,2.27-2.05h.25c.44,0,.82.08,1.18.1a2.35,2.35,0,0,0,1.78-.6,1.35,1.35,0,0,1,.68-.38.86.86,0,0,1,.26,0,.91.91,0,0,1,.44.14c.51.34.58,1.17.61,1.77,0,.35.06,1.18.07,1.42,0,.55.18.63.47.73l.54.15a3.08,3.08,0,0,1,1.33.63.93.93,0,0,1,.25.48c.08.59-.46,1.31-1.87,2a9.48,9.48,0,0,1-4.71.76l-.45-.06c-1-.14-1.63,1.2-1,2.12a3.29,3.29,0,0,0,2.58,1,6.75,6.75,0,0,0,5.13-2A.32.32,0,0,0,95,254s0-.08,0,0A8.83,8.83,0,0,1,89,255.5a4,4,0,0,1-.65-.18,1.14,1.14,0,0,1-.81-.85A5.44,5.44,0,0,0,91.2,254.51Zm-3.55-.42Zm-4.29-9.64a10.34,10.34,0,0,1,2.87-2.34,0,0,0,0,1,0,0,3.35,3.35,0,0,0-.27.65s0,.06.06,0a5.68,5.68,0,0,1,2.52-.89,0,0,0,0,1,0,.08,2.11,2.11,0,0,0-.4.39,0,0,0,0,0,0,.06,5,5,0,0,1,2.11.56s0,.09,0,.08a8.64,8.64,0,0,0-3.81,0,8.83,8.83,0,0,0-3.09,1.37A0,0,0,0,1,83.36,244.45Z"/><path class="cls-14" d="M172.28,306.7a.35.35,0,0,0-.3-.29l-2.84-.21s-1.88-1.86-2.08-2.07a.87.87,0,0,0-.77-.1l-1,.33c-.63-1.81-1.74-3.47-3.69-3.47h-.16a2.37,2.37,0,0,0-1.84-1.06c-4.54,0-6.71,5.68-7.39,8.57l-3.18,1c-1,.31-1,.34-1.14,1.27-.1.7-2.68,20.63-2.68,20.63l20.09,3.77,10.88-2.36s-3.82-25.82-3.85-26Zm-8.15-2-1.7.53v-.37a8.29,8.29,0,0,0-.41-2.74C163,302.24,163.7,303.39,164.13,304.7Zm-3.35-2.36a8.4,8.4,0,0,1,.46,3.06v.2l-3.51,1.08c.67-2.61,1.94-3.87,3.05-4.34Zm-1.35-1.28a1,1,0,0,1,.58.2c-1.45.68-3,2.41-3.67,5.85l-2.78.86c.77-2.63,2.61-6.91,5.87-6.91Z"/><path class="cls-15" d="M172,306.41l-2.84-.21s-1.88-1.86-2.08-2.07a.48.48,0,0,0-.29-.13l-1.52,31.06,10.88-2.36s-3.82-25.82-3.85-26a.35.35,0,0,0-.3-.29"/><path class="cls-7" d="M161.55,312.43l-1.34,4a6.13,6.13,0,0,0-2.62-.63c-2.11,0-2.21,1.33-2.21,1.66,0,1.82,4.75,2.52,4.75,6.79,0,3.36-2.13,5.52-5,5.52a7,7,0,0,1-5.21-2.14l.93-3.05a6.6,6.6,0,0,0,3.34,1.55,1.34,1.34,0,0,0,1.4-1.36c0-2.38-3.89-2.48-3.89-6.39,0-3.29,2.36-6.47,7.12-6.47a5.78,5.78,0,0,1,2.74.53"/><path class="cls-16" d="M134.6,60.61a1.08,1.08,0,0,0,1.15-.71l.59-6.64c0-.66-.77-1.2-1.73-1.2s-1.74.54-1.74,1.2l.59,6.64a1.08,1.08,0,0,0,1.15.71ZM131,62.69a1.07,1.07,0,0,0,0-1.35l-5.46-3.83c-.56-.33-1.42.07-1.9.9s-.4,1.78.17,2.1l6.05,2.82a1.1,1.1,0,0,0,1.19-.64Zm7.19,0a1.1,1.1,0,0,0,1.19.64l6-2.82c.57-.32.65-1.26.17-2.1s-1.33-1.23-1.9-.9l-5.46,3.83a1.09,1.09,0,0,0,0,1.35Zm-3.6,6.22a1.08,1.08,0,0,1,1.15.71l.59,6.64c0,.66-.77,1.2-1.73,1.2s-1.74-.54-1.74-1.2l.59-6.64a1.08,1.08,0,0,1,1.15-.71Zm3.6-2.07a1.07,1.07,0,0,1,1.19-.64l6,2.81c.57.33.65,1.26.17,2.1s-1.33,1.23-1.9.91l-5.46-3.83a1.09,1.09,0,0,1,0-1.35Zm-7.19,0a1.07,1.07,0,0,1,0,1.35L125.51,72c-.56.32-1.42-.07-1.9-.91s-.4-1.77.17-2.1l6.05-2.81a1.08,1.08,0,0,1,1.19.64Z"/><text class="cls-17" transform="translate(65.5 153.28)">T</text><rect x="85.47" y="148.69" width="4.87" height="4.87"/><rect x="85.1" y="131.09" width="5.24" height="5.24"/><path class="cls-14" d="M336.91,230.56a15.87,15.87,0,0,0,8.94,14.28l-7.57-20.74A16,16,0,0,0,336.91,230.56Zm26.58-.8a8.33,8.33,0,0,0-1.31-4.38c-.8-1.3-1.56-2.41-1.56-3.72a2.74,2.74,0,0,1,2.67-2.81h.2a15.85,15.85,0,0,0-24,3h1c1.66,0,4.23-.2,4.23-.2a.66.66,0,0,1,.1,1.31s-.86.1-1.82.15l5.78,17.19,3.48-10.42-2.48-6.77c-.85-.05-1.66-.15-1.66-.15a.66.66,0,0,1,.1-1.31s2.62.2,4.18.2,4.23-.2,4.23-.2a.66.66,0,0,1,.1,1.31s-.86.1-1.82.15l5.74,17.06,1.58-5.29a19,19,0,0,0,1.21-5.13ZM353.06,232l-4.76,13.83a15.83,15.83,0,0,0,9.75-.25,1.55,1.55,0,0,1-.12-.22L353.06,232Zm13.64-9a11.83,11.83,0,0,1,.11,1.63,14.87,14.87,0,0,1-1.21,5.68l-4.84,14A15.86,15.86,0,0,0,366.7,223Zm-13.92-10.89a18.5,18.5,0,1,0,18.5,18.5,18.52,18.52,0,0,0-18.5-18.5Zm0,36.15a17.65,17.65,0,1,1,17.65-17.65A17.67,17.67,0,0,1,352.78,248.21Z"/><circle class="cls-8" cx="129.22" cy="198.39" r="16.63"/><polyline class="cls-18" points="119.21 204.34 124.03 191.68 128.94 199.34 134.32 191.68 139.24 204.34"/><path class="cls-19" d="M123.79,202.12s5,6,10.63,0"/><circle class="cls-8" cx="226.94" cy="270.55" r="20.37"/><circle class="cls-8" cx="292.59" cy="170.38" r="17.1"/><circle class="cls-8" cx="200.64" cy="107.05" r="17.2"/><path class="cls-20" d="M223.78,258.68a2.38,2.38,0,0,0,0,4.75h2.37v-2.37a2.38,2.38,0,0,0-2.37-2.38h0m0,6.33h-6.32a2.37,2.37,0,0,0,0,4.74h6.32a2.37,2.37,0,0,0,0-4.74Z"/><path class="cls-21" d="M238.77,267.38a2.37,2.37,0,1,0-4.73,0v2.37h2.37A2.37,2.37,0,0,0,238.77,267.38Zm-6.31,0v-6.32a2.37,2.37,0,1,0-4.74,0v6.32a2.37,2.37,0,0,0,4.74,0Z"/><path class="cls-22" d="M230.09,282.41a2.38,2.38,0,0,0,0-4.75h-2.37V280A2.38,2.38,0,0,0,230.09,282.41Zm0-6.33h6.32a2.37,2.37,0,0,0,0-4.74h-6.32a2.37,2.37,0,1,0,0,4.74Z"/><path class="cls-23" d="M215.1,273.71a2.37,2.37,0,1,0,4.73,0v-2.37h-2.37A2.37,2.37,0,0,0,215.1,273.71Zm6.31,0V280a2.37,2.37,0,1,0,4.74,0v-6.33a2.37,2.37,0,0,0-4.74,0h0"/><path class="cls-24" d="M203,96.3a7.6,7.6,0,0,0-2.35-.36,7.76,7.76,0,0,0-5.94,2.76l3.67,3.08Z"/><path class="cls-25" d="M194.7,98.7a7.79,7.79,0,0,0-1.81,5,8.71,8.71,0,0,0,.77,3.7l4.71-5.61Z"/><path class="cls-26" d="M200.64,100.73a3,3,0,0,1,2.27,4.88l4.61-5.49A7.75,7.75,0,0,0,203,96.3l-4.61,5.49a3,3,0,0,1,2.27-1.06"/><path class="cls-27" d="M200.64,106.66a3,3,0,0,1-2.27-4.87l-4.71,5.6a27.13,27.13,0,0,0,3.52,5l5.73-6.81a3,3,0,0,1-2.27,1"/><path class="cls-28" d="M202.79,114.28c2.59-4,5.61-5.89,5.61-10.59a7.71,7.71,0,0,0-.88-3.58l-10.34,12.31c.44.57.88,1.18,1.31,1.86,1.58,2.43,1.14,3.89,2.15,3.89s.58-1.46,2.15-3.89"/><path class="cls-29" d="M284.24,176.11l.87,1.5a2,2,0,0,0,.75.74L289,173h-6.19a2,2,0,0,0,.27,1Z"/><path class="cls-30" d="M292.59,166.68l-3.1-5.36a2.1,2.1,0,0,0-.74.74L283,172a2,2,0,0,0-.27,1H289Z"/><path class="cls-25" d="M299.33,178.35a2.1,2.1,0,0,0,.74-.74l.36-.62,1.73-3a2,2,0,0,0,.27-1h-6.2l1.32,2.59Z"/><path class="cls-31" d="M292.59,166.68l3.1-5.36a2,2,0,0,0-1-.27h-4.17a2.13,2.13,0,0,0-1,.27Z"/><path class="cls-32" d="M296.23,173H289l-3.09,5.36a2,2,0,0,0,1,.27h11.45a2.06,2.06,0,0,0,1-.27Z"/><path class="cls-33" d="M299.3,167l-2.87-5a2.1,2.1,0,0,0-.74-.74l-3.1,5.36,3.64,6.31h6.19a2.08,2.08,0,0,0-.27-1Z"/><path class="cls-34" d="M295.37,311.66a3.45,3.45,0,0,1-2.86-5.29c1.71-2.76,3.44-5.5,5.17-8.25.35-.56.69-1.13,1.06-1.68a3.45,3.45,0,0,1,4.69-1.07,3.41,3.41,0,0,1,1.16,4.72q-3.1,5-6.28,10A3.29,3.29,0,0,1,295.37,311.66Z"/><path class="cls-35" d="M284.66,311.66a3.27,3.27,0,0,1-2.93-1.75,3.32,3.32,0,0,1,.1-3.56q2.76-4.43,5.54-8.84c.24-.38.47-.77.72-1.14a3.45,3.45,0,0,1,5.8,3.74q-3.09,5-6.23,9.93a3.36,3.36,0,0,1-3,1.62Z"/><path class="cls-36" d="M306.16,304.93a3.37,3.37,0,1,1-3.49,3.37,3.42,3.42,0,0,1,3.49-3.37Z"/><path class="cls-11" d="M211.41,201.43a2.78,2.78,0,0,1-1.42-.38l-8.1-4.68a2.83,2.83,0,0,1-1.41-2.44v-9.37a2.83,2.83,0,0,1,1.41-2.44l8.1-4.69a2.86,2.86,0,0,1,2.83,0l8.1,4.69a2.83,2.83,0,0,1,1.41,2.44v9.36a2.83,2.83,0,0,1-1.41,2.45l-8.1,4.69A2.86,2.86,0,0,1,211.41,201.43Zm0-23.31a1.7,1.7,0,0,0-.87.24L202.42,183a1.77,1.77,0,0,0-.88,1.52v9.37a1.78,1.78,0,0,0,.88,1.52l8.11,4.68a1.74,1.74,0,0,0,1.75,0l8.11-4.68a1.78,1.78,0,0,0,.88-1.53v-9.36a1.77,1.77,0,0,0-.88-1.52l-8.11-4.68A1.71,1.71,0,0,0,211.4,178.12Z"/><path class="cls-11" d="M212.63,196.68a3,3,0,0,1-.72-.09l-4.62-1.24a2.83,2.83,0,0,1-2-2l-1.24-4.62a2.86,2.86,0,0,1,.74-2.73l3.37-3.37a2.83,2.83,0,0,1,2.73-.74l4.62,1.24a2.83,2.83,0,0,1,2,2l1.24,4.62a2.84,2.84,0,0,1-.74,2.72l-3.38,3.38A2.81,2.81,0,0,1,212.63,196.68Zm-2.45-13.81a1.79,1.79,0,0,0-1.25.52l-3.38,3.38a1.77,1.77,0,0,0-.45,1.7l1.23,4.61a1.76,1.76,0,0,0,1.24,1.24l4.61,1.23a1.77,1.77,0,0,0,1.7-.45h0l3.38-3.38a1.77,1.77,0,0,0,.45-1.7l-1.23-4.61a1.76,1.76,0,0,0-1.24-1.24l-4.61-1.24A1.74,1.74,0,0,0,210.18,182.87Z"/></svg>