<?xml version="1.0" encoding="utf-8"?>
<!-- Generator: Adobe Illustrator 25.2.0, SVG Export Plug-In . SVG Version: 6.00 Build 0)  -->
<svg version="1.1" id="Layer_1" xmlns="http://www.w3.org/2000/svg" xmlns:xlink="http://www.w3.org/1999/xlink" x="0px" y="0px"
	 viewBox="0 0 500 500" style="enable-background:new 0 0 500 500;" xml:space="preserve">
<style type="text/css">
	.st0{fill-rule:evenodd;clip-rule:evenodd;fill:#2EB78D;}
	.st1{fill:#FFFFFF;}
	.st2{fill-rule:evenodd;clip-rule:evenodd;fill:#1B966D;}
	.st3{fill-rule:evenodd;clip-rule:evenodd;fill:#41D8AD;}
	.st4{fill-rule:evenodd;clip-rule:evenodd;fill:#FFFFFF;}
	.st5{fill-rule:evenodd;clip-rule:evenodd;fill:#8217FD;}
	.st6{fill-rule:evenodd;clip-rule:evenodd;fill:#00213D;}
	.st7{filter:url(#Adobe_OpacityMaskFilter);}
	.st8{fill:url(#SVGID_2_);}
	.st9{mask:url(#SVGID_1_);fill-rule:evenodd;clip-rule:evenodd;fill:#001324;}
	.st10{fill-rule:evenodd;clip-rule:evenodd;fill:#FFE0DB;}
	.st11{fill-rule:evenodd;clip-rule:evenodd;fill:#FFF2F0;}
	.st12{fill-rule:evenodd;clip-rule:evenodd;fill:#6513D8;}
	.st13{fill-rule:evenodd;clip-rule:evenodd;fill:#4B0BA8;}
	.st14{fill-rule:evenodd;clip-rule:evenodd;fill:#F24848;}
	.st15{fill-rule:evenodd;clip-rule:evenodd;fill:#FFC052;}
	.st16{filter:url(#Adobe_OpacityMaskFilter_1_);}
	.st17{fill:url(#SVGID_4_);}
	.st18{mask:url(#SVGID_3_);fill-rule:evenodd;clip-rule:evenodd;fill:#FF6C03;}
	.st19{filter:url(#Adobe_OpacityMaskFilter_2_);}
	.st20{fill:url(#SVGID_6_);}
	.st21{mask:url(#SVGID_5_);fill-rule:evenodd;clip-rule:evenodd;fill:#C90000;}
	.st22{fill-rule:evenodd;clip-rule:evenodd;fill:#FFC45E;}
	.st23{fill-rule:evenodd;clip-rule:evenodd;fill:#FF6C03;}
	.st24{fill-rule:evenodd;clip-rule:evenodd;fill:#C90000;}
	.st25{filter:url(#Adobe_OpacityMaskFilter_3_);}
	.st26{fill:url(#SVGID_8_);}
	.st27{mask:url(#SVGID_7_);fill-rule:evenodd;clip-rule:evenodd;fill:#FFEDB2;}
	.st28{filter:url(#Adobe_OpacityMaskFilter_4_);}
	.st29{fill:url(#SVGID_10_);}
	.st30{mask:url(#SVGID_9_);fill-rule:evenodd;clip-rule:evenodd;fill:#FF6C03;}
	.st31{fill-rule:evenodd;clip-rule:evenodd;fill:#4D2700;}
	.st32{filter:url(#Adobe_OpacityMaskFilter_5_);}
	.st33{fill:url(#SVGID_12_);}
	.st34{mask:url(#SVGID_11_);fill-rule:evenodd;clip-rule:evenodd;fill:#261000;}
	.st35{filter:url(#Adobe_OpacityMaskFilter_6_);}
	.st36{fill:url(#SVGID_14_);}
	.st37{mask:url(#SVGID_13_);fill-rule:evenodd;clip-rule:evenodd;fill:#7A3F04;}
	.st38{fill:#4D2700;}
	.st39{fill-rule:evenodd;clip-rule:evenodd;}
	.st40{filter:url(#Adobe_OpacityMaskFilter_7_);}
	.st41{fill:url(#SVGID_16_);}
	.st42{mask:url(#SVGID_15_);fill-rule:evenodd;clip-rule:evenodd;fill:#C90000;}
	.st43{fill-rule:evenodd;clip-rule:evenodd;fill:#893CF7;}
	.st44{filter:url(#Adobe_OpacityMaskFilter_8_);}
	.st45{fill:url(#SVGID_18_);}
	.st46{mask:url(#SVGID_17_);fill-rule:evenodd;clip-rule:evenodd;fill:#4B0BA8;}
	.st47{filter:url(#Adobe_OpacityMaskFilter_9_);}
	.st48{fill:url(#SVGID_20_);}
	.st49{mask:url(#SVGID_19_);fill-rule:evenodd;clip-rule:evenodd;fill:#4B0BA8;}
	.st50{filter:url(#Adobe_OpacityMaskFilter_10_);}
	.st51{fill:url(#SVGID_22_);}
	.st52{mask:url(#SVGID_21_);fill-rule:evenodd;clip-rule:evenodd;fill:#002342;}
	.st53{filter:url(#Adobe_OpacityMaskFilter_11_);}
	.st54{fill:url(#SVGID_24_);}
	.st55{mask:url(#SVGID_23_);fill-rule:evenodd;clip-rule:evenodd;fill:#4B0BA8;}
	.st56{filter:url(#Adobe_OpacityMaskFilter_12_);}
	.st57{fill:url(#SVGID_26_);}
	.st58{mask:url(#SVGID_25_);fill-rule:evenodd;clip-rule:evenodd;fill:#4B0BA8;}
	.st59{filter:url(#Adobe_OpacityMaskFilter_13_);}
	.st60{fill:url(#SVGID_28_);}
	.st61{mask:url(#SVGID_27_);fill-rule:evenodd;clip-rule:evenodd;fill:#002342;}
	.st62{filter:url(#Adobe_OpacityMaskFilter_14_);}
	.st63{fill:url(#SVGID_30_);}
	.st64{mask:url(#SVGID_29_);fill-rule:evenodd;clip-rule:evenodd;fill:#4B0BA8;}
	.st65{filter:url(#Adobe_OpacityMaskFilter_15_);}
	.st66{fill:url(#SVGID_32_);}
	.st67{mask:url(#SVGID_31_);fill-rule:evenodd;clip-rule:evenodd;fill:#8217FD;}
	.st68{filter:url(#Adobe_OpacityMaskFilter_16_);}
	.st69{fill:url(#SVGID_34_);}
	.st70{mask:url(#SVGID_33_);fill-rule:evenodd;clip-rule:evenodd;fill:#5D31BC;}
	.st71{fill-rule:evenodd;clip-rule:evenodd;fill:#23233A;stroke:#323249;stroke-miterlimit:10;}
	.st72{fill:#4B09AA;}
	.st73{filter:url(#Adobe_OpacityMaskFilter_17_);}
	.st74{fill:url(#SVGID_36_);}
	.st75{mask:url(#SVGID_35_);fill-rule:evenodd;clip-rule:evenodd;fill:#8217FD;}
	.st76{fill:#FF5703;}
	.st77{filter:url(#Adobe_OpacityMaskFilter_18_);}
	.st78{fill:url(#SVGID_38_);}
	.st79{mask:url(#SVGID_37_);fill-rule:evenodd;clip-rule:evenodd;fill:#FF6C03;}
	.st80{filter:url(#Adobe_OpacityMaskFilter_19_);}
	.st81{fill:url(#SVGID_40_);}
	.st82{mask:url(#SVGID_39_);fill-rule:evenodd;clip-rule:evenodd;fill:#FFEDB2;}
	.st83{fill-rule:evenodd;clip-rule:evenodd;fill:#3C3C56;}
	.st84{fill-rule:evenodd;clip-rule:evenodd;fill:#FFDF97;}
	.st85{fill-rule:evenodd;clip-rule:evenodd;fill:none;stroke:#10111E;stroke-miterlimit:10;}
	.st86{fill-rule:evenodd;clip-rule:evenodd;fill:#40BF91;}
	.st87{fill:#FCFCFC;}
</style>
<g>
	<path class="st0" d="M194.1,382.8c-8.9,52.9,16.1,105.8,62.7,132.4c8.3,2,12.5,3,12.5,3C277.1,461.4,246.5,406.3,194.1,382.8z"/>
	<path class="st1" d="M200.1,391.2c-0.3-0.5-0.9-0.7-1.5-0.5c-0.5,0.3-0.7,0.9-0.5,1.5l63.9,125c0.3,0.5,0.9,0.7,1.5,0.5
		c0.5-0.3,0.7-0.9,0.5-1.5L200.1,391.2z"/>
	<path class="st2" d="M108,489.9c39.2,36.6,97.1,45,145,20.8c6.2-5.8,9.4-8.8,9.4-8.8C219.3,464.2,156.4,459.3,108,489.9z"/>
	<path class="st1" d="M257.8,505.3l-139.5-15.7c-0.6-0.1-1.1,0.4-1.2,1c-0.1,0.6,0.4,1.1,1,1.2l139.5,15.7c0.6,0.1,1.1-0.4,1.2-1
		C258.8,505.9,258.4,505.4,257.8,505.3z"/>
	<path class="st3" d="M122.7,419.1c17.1,50.8,64.1,85.6,117.7,87.2c8.3-2.2,12.4-3.3,12.4-3.3C232.9,449.3,179.9,415.1,122.7,419.1z
		"/>
	<path class="st1" d="M131.9,423.7c-0.5-0.3-1.2-0.2-1.5,0.3s-0.2,1.2,0.3,1.5l115.4,80c0.5,0.3,1.2,0.2,1.5-0.3s0.2-1.2-0.3-1.5
		L131.9,423.7z"/>
	<path class="st4" d="M190.5,453.2c-1,0-1.8,0.8-1.8,1.8s0.8,1.8,1.8,1.8s1.8-0.8,1.8-1.8C192.3,454,191.5,453.2,190.5,453.2z"/>
</g>
<g>
	<path class="st0" d="M359.9,503.6c0,0,4.1-1.2,12.3-3.7c45-29.3,66.9-83.5,55-135.8C376.3,390.6,348.9,447.3,359.9,503.6z"/>
	<path class="st1" d="M423.2,372.3c-0.5-0.2-1.2,0-1.4,0.6l-56.7,128.4c-0.2,0.5,0,1.2,0.6,1.4c0.5,0.2,1.2,0,1.4-0.6l56.7-128.4
		C424,373.2,423.8,372.6,423.2,372.3z"/>
	<path class="st2" d="M340.4,483.8c0,0,2.8,3.2,8.4,9.7c45.2,28.9,103.6,26.6,146.4-5.8C450.2,452.2,387.2,450.6,340.4,483.8z"/>
	<path class="st1" d="M485,486.3l-140.4,1.2c-0.6,0-1.1,0.5-1.1,1.1s0.5,1.1,1.1,1.1l140.4-1.2c0.6,0,1.1-0.5,1.1-1.1
		S485.6,486.3,485,486.3z"/>
	<path class="st3" d="M359,501.5c0,0,4.1,1.1,12.4,3.3c53.6-1.5,100.6-36.3,117.7-87.2C432,413.6,379,447.8,359,501.5z"/>
	<path class="st1" d="M480,422.2l-115.4,80c-0.5,0.3-0.6,1-0.3,1.5c0.3,0.5,1,0.6,1.5,0.3l115.4-80c0.5-0.3,0.6-1,0.3-1.5
		C481.1,422,480.5,421.9,480,422.2z"/>
	<path class="st4" d="M423.7,450c-1,0-1.8,0.8-1.8,1.8s0.8,1.8,1.8,1.8s1.8-0.8,1.8-1.8C425.5,450.8,424.7,450,423.7,450z"/>
	<path class="st4" d="M410.7,458c-1.2,0-2.1,0.9-2.1,2.1s0.9,2.1,2.1,2.1s2.1-0.9,2.1-2.1C412.8,459,411.8,458,410.7,458z"/>
</g>
<path class="st4" d="M266.4,84.2c-2.8-0.7-5.7,0.1-7.8,2c-0.6-5.9-5.1-10.7-10.9-11.6c-5.9-0.9-11.6,2.2-14,7.7
	c-1.9-15.9-15.6-27.6-31.6-27.1c-16,0.5-28.9,13.2-29.7,29.2c-3.1-2.6-7.1-3.8-11.1-3.4c-4,0.4-7.7,2.4-10.2,5.5
	c-2.6-2.4-6.2-3.5-9.7-2.8c-3.5,0.7-6.5,2.9-8,6.1c0,0,46.3-0.1,139-0.3C271.4,86.8,269.2,84.8,266.4,84.2z"/>
<path class="st4" d="M96.6,110.6c-1.5-0.4-3,0-4.1,1.1c-0.3-3.1-2.7-5.7-5.8-6.2s-6.2,1.2-7.4,4.1c-1-8.4-8.3-14.7-16.8-14.4
	c-8.5,0.3-15.4,7-15.8,15.5c-1.6-1.4-3.8-2-5.9-1.8c-2.1,0.2-4.1,1.3-5.4,2.9c-1.4-1.3-3.3-1.8-5.2-1.5c-1.9,0.3-3.4,1.6-4.3,3.3
	c0,0,24.7-0.1,74-0.2C99.2,112,98,110.9,96.6,110.6z"/>
<path class="st5" d="M166,6.6c4.2,4.9,6.4,7.3,6.4,7.3c2.4-5.8,3.6-8.8,3.6-8.8c-2.7,3.3-4.1,4.9-4.1,4.9S169.9,8.9,166,6.6z"/>
<path class="st5" d="M189.6,32.4c3.1,3.5,4.6,5.2,4.6,5.2c1.7-4.2,2.6-6.3,2.6-6.3c-2,2.4-3,3.5-3,3.5S192.4,34,189.6,32.4z"/>
<path class="st5" d="M243,21.2c3.1,3.5,4.6,5.2,4.6,5.2c1.7-4.2,2.6-6.3,2.6-6.3c-2,2.4-3,3.5-3,3.5S245.8,22.9,243,21.2z"/>
<path class="st5" d="M138.8,33.9c2.5,2.8,3.7,4.3,3.7,4.3c1.4-3.4,2.1-5.1,2.1-5.1c-1.6,1.9-2.4,2.9-2.4,2.9S141,35.3,138.8,33.9z"
	/>
<path class="st5" d="M414.3,39.7c4.2,4.9,6.4,7.3,6.4,7.3c2.4-5.8,3.6-8.8,3.6-8.8c-2.7,3.3-4.1,4.9-4.1,4.9S418.2,42,414.3,39.7z"
	/>
<path class="st6" d="M373.7,367.1c-29.7-16.4-65.3-15.9-93.5,1.1c-28.2,17.1-43.4,28.3-41.9,61.7c-5,44.4-8.8,86.5-8.8,86.5
	c57.1,0,85.6,0,85.6,0c9.7-28.5,14.6-42.7,14.6-42.7c3.7,28.5,5.5,42.7,5.5,42.7c53.1,0,79.6,0,79.6,0s3-23,9.1-68.9
	C422.5,414.1,403.3,383.4,373.7,367.1z"/>
<defs>
	<filter id="Adobe_OpacityMaskFilter" filterUnits="userSpaceOnUse" x="258.1" y="414.6" width="69.3" height="101.9">
		<feColorMatrix  type="matrix" values="1 0 0 0 0  0 1 0 0 0  0 0 1 0 0  0 0 0 1 0"/>
	</filter>
</defs>
<mask maskUnits="userSpaceOnUse" x="258.1" y="414.6" width="69.3" height="101.9" id="SVGID_1_">
	<g class="st7">
		
			<linearGradient id="SVGID_2_" gradientUnits="userSpaceOnUse" x1="-557.4257" y1="649.7139" x2="-471.9457" y2="584.8839" gradientTransform="matrix(1 0 0 1 790.1271 -138.6624)">
			<stop  offset="0" style="stop-color:#000000"/>
			<stop  offset="1" style="stop-color:#FFFFFF"/>
		</linearGradient>
		<rect x="258.1" y="414.6" class="st8" width="69.3" height="101.9"/>
	</g>
</mask>
<path class="st9" d="M317.1,414.6c2.2,42.6-20.9,82.5-59,101.9c0,0,17.1,0,51.3,0c0,0,6-16.1,17.9-48.4c0,0-0.8-7.4-2.4-22.1
	C321.2,439.1,318.5,428.7,317.1,414.6z"/>
<path d="M317.2,465.4c-12.2-7.6-23.8-16.2-34.7-25.5c-10.9-9.3-21.1-19.5-30.5-30.4c-0.5-0.6-1.3-0.6-1.9-0.1
	c-0.6,0.5-0.6,1.3-0.1,1.9c9.5,11,19.8,21.2,30.8,30.7c11,9.4,22.7,18,35,25.7c0.6,0.4,1.4,0.2,1.8-0.4
	C318.1,466.6,317.9,465.8,317.2,465.4z"/>
<path d="M313.8,473.1c-7.6-2.5-15.2-5.1-22.7-7.8c-7.5-2.7-14.9-5.6-22.4-8.6c-0.7-0.3-1.5,0.1-1.7,0.7c-0.3,0.7,0.1,1.5,0.7,1.7
	c7.4,3,14.9,5.9,22.5,8.6c7.6,2.8,15.1,5.4,22.8,7.9c0.7,0.2,1.4-0.2,1.7-0.8C314.9,474.1,314.5,473.4,313.8,473.1z"/>
<path d="M386.1,446.8c-6.6,5.9-14.1,10.8-22.1,14.4c-8,3.6-16.6,6-25.4,7c-0.7,0.1-1.2,0.7-1.2,1.5c0.1,0.7,0.7,1.2,1.5,1.2
	c9.1-1.1,17.9-3.5,26.2-7.2c8.3-3.7,16-8.7,22.8-14.8c0.5-0.5,0.6-1.3,0.1-1.9C387.5,446.3,386.6,446.3,386.1,446.8z"/>
<path d="M326.3,446.5c0-0.1-0.1-0.2-0.1-0.3c-2.9-6.7-4.8-13.7-5.8-20.8c-0.9-7.1-0.9-14.3,0.2-21.5c0.1-0.7-0.4-1.4-1.1-1.5
	c-0.7-0.1-1.4,0.4-1.5,1.1c-1.1,7.4-1.1,14.8-0.2,22.2c1,7.3,3,14.5,5.9,21.4l4.8,26.9c0.1,0.7,0.8,1.2,1.5,1.1
	c0.7-0.1,1.2-0.8,1.1-1.5L326.3,446.5z"/>
<path class="st10" d="M285.7,164.4c0,0-2.3,69.3-6.8,207.9c25.8,17.6,58.9,20.6,87.4,7.9c8.8-147.5,13.2-221.3,13.2-221.3
	C349,146.1,314.4,148.2,285.7,164.4z"/>
<path class="st11" d="M361.3,161.3c-4.9-8.1-15.2-10.9-23.4-6.5l-2.9-1.4c-15.4-19.2-33.7-2.1-30.4,14.9c-2.7,4.5-3.3,10.1-1.4,15.2
	c0.2,0.7,0.4,1.4,0.7,2c0.3,0.8,0.6,1.5,0.9,2.3c-0.4,0.2-0.7,0.3-1.1,0.5c-0.7,0.3-1.3,0.7-2,1c-1.9,0.9-3.5,2.1-4.8,3.6l-1.1,1.1
	c-3.5,3.5-5.2,8-5.2,12.5h0v0.6c0,9.8,7.9,17.7,17.7,17.7c4.6,0,8.8-1.8,12-4.7c1.2-0.1,2.4-0.2,3.6-0.5c0.4,0.2,0.8,0.5,1.2,0.7
	c0.2,0.1,0.3,0.2,0.5,0.3c0.4,0.2,0.8,0.5,1.2,0.7c1.4,0.9,3.1,1.7,4.6,2.2l0.3,0.1c9.3,3.1,19.3-1.9,22.4-11.2
	c1.1-3.2,1.2-6.5,0.4-9.6c0.2-0.3,0.5-0.6,0.7-0.9c0.7-1,1.3-1.9,1.9-3l0.2-0.4c2.4-4.7,2.4-10,0.6-14.5
	C364.1,178.1,365.7,168.8,361.3,161.3z"/>
<path class="st12" d="M453.5,160.2c-5.2-5.1-12.9-9.7-23.6-14.1c-16.1-6.6-38.8-17.4-47.8-20.5l-86.3,14.9l-42.3,11.6l10.7,260.7
	c24.4-40.7,36.9-87.5,37.4-140.3c6.4,3.7,17.2,10.5,32.6,20.3c3.1,54.8,18.1,108.3,43.9,156.8c28.8,2.9,57.8-3,83.2-17l-32.5-131.8
	C447.3,250.9,479.3,185.5,453.5,160.2z M357.3,198.1l-0.2,0.4c-0.5,1.1-1.2,2-1.9,3c-0.2,0.3-0.4,0.6-0.7,0.9
	c0.7,3.1,0.6,6.4-0.4,9.6c-3.1,9.3-13.1,14.3-22.4,11.2l-0.3-0.1c-1.5-0.5-3.3-1.3-4.6-2.2c-0.4-0.2-0.8-0.5-1.2-0.7
	c-0.2-0.1-0.3-0.2-0.5-0.3c-0.4-0.2-0.8-0.4-1.2-0.7c-1.2,0.3-2.3,0.5-3.6,0.5c-3.2,2.9-7.4,4.7-12,4.7c-9.8,0-17.7-7.9-17.7-17.7
	v-0.6h0c0-4.5,1.7-9.1,5.2-12.5l1.1-1.1c1.4-1.4,3-2.6,4.8-3.6c0.7-0.3,1.3-0.7,2-1c0.4-0.2,0.7-0.4,1.1-0.5
	c-0.4-0.7-0.7-1.5-0.9-2.3c-0.3-0.7-0.5-1.3-0.7-2c-1.9-5.1-1.2-10.7,1.4-15.2c-3.3-17,15-34.1,30.4-14.9l2.9,1.4
	c8.3-4.4,18.6-1.6,23.4,6.5c4.5,7.4,2.8,16.8-3.4,22.3C359.7,188.2,359.6,193.4,357.3,198.1z"/>
<polygon class="st13" points="329.7,176.6 314.2,223.6 337.6,236.2 346.4,224.1 343,177.4 "/>
<path class="st14" d="M319.6,283.4c0,0,0.2,0.1,0.2,0.1L319.6,283.4z"/>
<path class="st13" d="M332.5,290.9c-0.6-0.1-1.1-0.3-1.6-0.6c-0.3-0.2-0.6-0.3-0.9-0.5c-0.2-0.1-0.3-0.2-0.5-0.4
	c-0.1-0.1-0.2-0.1-0.3-0.2c-0.1-0.1-0.3-0.2-0.4-0.3c-0.2-0.1-0.3-0.2-0.5-0.3c-0.2-0.1-0.4-0.3-0.5-0.4c-0.1-0.1-0.2-0.1-0.3-0.2
	c-0.1-0.1-0.3-0.2-0.4-0.3c-0.1-0.1-0.3-0.2-0.4-0.3c-0.2-0.1-0.3-0.2-0.5-0.2c-0.3-0.1-0.8-0.4-1-0.6c-0.2-0.1-0.3-0.2-0.5-0.3
	l-0.1,0c-0.2-0.1-0.4-0.2-0.6-0.3c-0.2-0.1-0.4-0.2-0.6-0.4c-0.2-0.1-0.4-0.2-0.5-0.3c-0.1,0-0.2-0.1-0.2-0.2
	c-0.2-0.1-0.3-0.2-0.5-0.3c-0.3-0.1-0.5-0.3-0.7-0.4c-0.3-0.1-0.5-0.2-0.7-0.4c-0.2-0.1-0.4-0.2-0.7-0.4c-0.2-0.1-0.3-0.2-0.5-0.3
	c-0.3-0.2-0.6-0.3-0.8-0.5c-0.4-0.2-0.7-0.3-1.1-0.6c-0.2-0.1-0.4-0.3-0.6-0.4c-0.1-0.1-0.2-0.1-0.3-0.2c-0.3-0.1-0.5-0.3-0.7-0.5
	c-0.3-0.2-0.6-0.4-1-0.6c-0.2-0.1-0.3-0.2-0.5-0.3c-0.4-0.2-0.7-0.3-1-0.6c-0.3-0.2-0.6-0.3-0.8-0.6c-0.1-0.1-0.2-0.1-0.3-0.2
	c-1-0.2-1.8-0.7-2.3-1.5c-0.8,0-1.6,0-2.5,0l-7.5,67.9l17.9,17.3l15.7-15.1l-1.3-55.9C332.6,291.5,332.6,291.2,332.5,290.9z"/>
<path class="st12" d="M335.5,157.6c-5.5,0.2-10.6,2.7-13.9,6.9c0.4,5.2,3.5,10,8.2,12.4c4.7,2.5,10.3,2.2,14.6-0.6
	c4.3-2.8,6.6-7.8,6.1-13C346.4,159.5,341,157.4,335.5,157.6z"/>
<path class="st11" d="M342.4,131.7c-16.8-2.2-27.8-3.4-32.8-3.4c-4.3,13.6-6.5,20.4-6.5,20.4s3.6,6.6,10.9,19.7
	c0,0,7.6-3.2,22.8-9.6c15.7,5.7,23.5,8.6,23.5,8.6c8.9-27.7,13.4-41.6,13.4-41.6C364.6,119.5,354.2,121.5,342.4,131.7z"/>
<path class="st15" d="M369,97c0,0-20.5,4.2-61.4,12.6c0.7,6.2,1.3,12.4,2,18.6c3.2,13,13.8,23,27,25.5c15.9-3.1,28.8-14.9,33.3-30.5
	C368.2,114.6,367.9,105.7,369,97z"/>
<defs>
	<filter id="Adobe_OpacityMaskFilter_1_" filterUnits="userSpaceOnUse" x="313.1" y="97" width="56.9" height="54.5">
		<feColorMatrix  type="matrix" values="1 0 0 0 0  0 1 0 0 0  0 0 1 0 0  0 0 0 1 0"/>
	</filter>
</defs>
<mask maskUnits="userSpaceOnUse" x="313.1" y="97" width="56.9" height="54.5" id="SVGID_3_">
	<g class="st16">
		
			<linearGradient id="SVGID_4_" gradientUnits="userSpaceOnUse" x1="-469.7317" y1="656.1008" x2="-517.6217" y2="616.1208" gradientTransform="matrix(1 0 0 1 845.0833 -503.5745)">
			<stop  offset="0" style="stop-color:#000000"/>
			<stop  offset="1" style="stop-color:#FFFFFF"/>
		</linearGradient>
		<rect x="313.1" y="97" class="st17" width="56.9" height="54.5"/>
	</g>
</mask>
<path class="st18" d="M369,97c-37.3,14.5-56,21.7-56,21.7c20.7,21.9,31,32.8,31,32.8c5.9-2.3,11.2-5.9,15.6-10.4
	c4.8-5,8.4-11.2,10.3-17.9C368.3,115.3,367.9,106.5,369,97z"/>
<defs>
	<filter id="Adobe_OpacityMaskFilter_2_" filterUnits="userSpaceOnUse" x="323.2" y="97" width="46.2" height="37.4">
		<feColorMatrix  type="matrix" values="1 0 0 0 0  0 1 0 0 0  0 0 1 0 0  0 0 0 1 0"/>
	</filter>
</defs>
<mask maskUnits="userSpaceOnUse" x="323.2" y="97" width="46.2" height="37.4" id="SVGID_5_">
	<g class="st19">
		
			<linearGradient id="SVGID_6_" gradientUnits="userSpaceOnUse" x1="-467.0591" y1="649.5525" x2="-527.8091" y2="630.4725" gradientTransform="matrix(1 0 0 1 855.1996 -520.7066)">
			<stop  offset="0" style="stop-color:#000000"/>
			<stop  offset="1" style="stop-color:#FFFFFF"/>
		</linearGradient>
		<rect x="323.2" y="97" class="st20" width="46.2" height="37.4"/>
	</g>
</mask>
<path class="st21" d="M369,97c-24,12.8-39.3,23.1-45.8,30.7c7,5.4,16,7.7,24.7,6.3c8.8-1.4,16.5-6.4,21.5-13.7
	C368.2,113.5,368.1,105.8,369,97z"/>
<path class="st22" d="M379.3,69.8c-6,0.3-11.9,6.4-13.3,13.7c-1.3,7.3,2.5,13,8.5,12.8c6-0.2,11.9-6.4,13.3-13.7
	C389.2,75.3,385.4,69.5,379.3,69.8z"/>
<path class="st23" d="M377.2,75c-3.7,0.2-7.3,3.9-8.1,8.4c-0.8,4.5,1.5,8,5.2,7.8c3.7-0.2,7.3-3.9,8.1-8.4
	C383.2,78.3,380.9,74.8,377.2,75z"/>
<path class="st24" d="M374.4,79c-1.9,0.1-3.8,2-4.2,4.3c-0.4,2.3,0.8,4.1,2.7,4c1.9-0.1,3.8-2,4.2-4.3
	C377.5,80.7,376.3,78.9,374.4,79z"/>
<ellipse transform="matrix(0.8679 -0.4967 0.4967 0.8679 -3.5894 157.6961)" class="st22" cx="294.7" cy="85.6" rx="10.3" ry="13.9"/>
<path class="st23" d="M294.1,77.6c-3.7,0-5.9,3.6-4.9,8c1,4.4,4.8,8,8.5,8c3.7,0,5.9-3.6,4.9-8C301.6,81.2,297.8,77.6,294.1,77.6z"
	/>
<path class="st24" d="M297.1,81.4c-1.9,0-3,1.9-2.5,4.2c0.5,2.3,2.5,4.2,4.4,4.2c1.9,0,3-1.9,2.5-4.2
	C300.9,83.3,299,81.4,297.1,81.4z"/>
<path class="st22" d="M356.2,35.7c-13.8-9-31.7-8.7-44.4,1.7c-12.4,10-15,26.5-11.5,42.9c-1.2,15.6,4.6,30.9,15.9,41.8
	c4.8,5.6,11.8,8.8,19.2,8.8c7.4,0,14.4-3.2,19.2-8.8c11.5-11.8,17.4-28,16.2-44.4C372.6,57.8,369.2,44.1,356.2,35.7z"/>
<defs>
	<filter id="Adobe_OpacityMaskFilter_3_" filterUnits="userSpaceOnUse" x="343.4" y="32.8" width="27.9" height="96.8">
		<feColorMatrix  type="matrix" values="1 0 0 0 0  0 1 0 0 0  0 0 1 0 0  0 0 0 1 0"/>
	</filter>
</defs>
<mask maskUnits="userSpaceOnUse" x="343.4" y="32.8" width="27.9" height="96.8" id="SVGID_7_">
	<g class="st25">
		
			<linearGradient id="SVGID_8_" gradientUnits="userSpaceOnUse" x1="-544.3623" y1="647.6107" x2="-494.9523" y2="570.7708" gradientTransform="matrix(1 0 0 1 875.414 -525.4982)">
			<stop  offset="0" style="stop-color:#000000"/>
			<stop  offset="1" style="stop-color:#FFFFFF"/>
		</linearGradient>
		<rect x="343.4" y="32.8" class="st26" width="27.9" height="96.8"/>
	</g>
</mask>
<path class="st27" d="M356.2,35.7c-1.6-1.1-3.4-2-5.1-2.8C358,45.5,362,59.9,362,75.4c0,20.5-6.9,39.3-18.6,54.3
	c4.3-1.4,8.2-4,11.3-7.5c11.5-11.8,17.4-28,16.2-44.4C372.6,57.8,369.2,44.1,356.2,35.7z"/>
<defs>
	<filter id="Adobe_OpacityMaskFilter_4_" filterUnits="userSpaceOnUse" x="295" y="43.5" width="41.7" height="74.8">
		<feColorMatrix  type="matrix" values="1 0 0 0 0  0 1 0 0 0  0 0 1 0 0  0 0 0 1 0"/>
	</filter>
</defs>
<mask maskUnits="userSpaceOnUse" x="295" y="43.5" width="41.7" height="74.8" id="SVGID_9_">
	<g class="st28">
		
			<linearGradient id="SVGID_10_" gradientUnits="userSpaceOnUse" x1="-484.4998" y1="631.8235" x2="-537.5399" y2="603.7435" gradientTransform="matrix(1 0 0 1 827.0297 -536.8612)">
			<stop  offset="0" style="stop-color:#000000"/>
			<stop  offset="1" style="stop-color:#FFFFFF"/>
		</linearGradient>
		<rect x="295" y="43.5" class="st29" width="41.7" height="74.8"/>
	</g>
</mask>
<path class="st30" d="M310.6,44.7C301,48,294.6,57.2,295,67.3c0,0,2.3,3,6.9,9.1c0.2,18,4.7,32,13.5,41.8
	c-2.9-11.8,10.9-15,8.5-27.6c-1.1-5.9-5.5-10.9-7.4-16.6c-4.1-12.6,7.3-23.9,20.2-21C330.8,44.8,320.2,41.4,310.6,44.7z"/>
<path class="st31" d="M360.7,22.7c-7.9-18.9-35-17.4-25.9-8.3c-20.2-7.8-35,2-42.3,12.7c-9.1,13.3-8.3,30.1-0.4,25.8
	c-0.4,7,0.8,14,3.5,20.4c2.6,1.5,4.3,4,4.6,7c-1.4-8.6-0.5-16.2,2.5-22.8c-0.7,5.3,16.5-1.4,21.6-7.9c2.9,6.6,23.5,5,35.2-8.6
	c0.6,10.7,10.9,14.8,11.3,36.7c-0.1-3.6,3.1-6.6,6.4-7.5c2.3-6.7,1.9-14.6,0.8-21.6c5.8,3.4,9.6-11.8,1-20.9
	C374.4,22.7,367.3,20.8,360.7,22.7z"/>
<defs>
	<filter id="Adobe_OpacityMaskFilter_5_" filterUnits="userSpaceOnUse" x="286" y="7.9" width="69.7" height="72.4">
		<feColorMatrix  type="matrix" values="1 0 0 0 0  0 1 0 0 0  0 0 1 0 0  0 0 0 1 0"/>
	</filter>
</defs>
<mask maskUnits="userSpaceOnUse" x="286" y="7.9" width="69.7" height="72.4" id="SVGID_11_">
	<g class="st32">
		
			<linearGradient id="SVGID_12_" gradientUnits="userSpaceOnUse" x1="-453.644" y1="589.4332" x2="-537.384" y2="646.1732" gradientTransform="matrix(1 0 0 1 818.0175 -574.8426)">
			<stop  offset="0" style="stop-color:#000000"/>
			<stop  offset="1" style="stop-color:#FFFFFF"/>
		</linearGradient>
		<rect x="286" y="7.9" class="st33" width="69.7" height="72.4"/>
	</g>
</mask>
<path class="st34" d="M334.8,14.4c-20.2-7.8-35,2-42.3,12.7c-9.1,13.3-8.3,30.1-0.4,25.8c-0.4,7,0.8,14,3.5,20.4
	c2.6,1.5,4.3,4,4.6,7c-1.4-8.6-0.5-16.2,2.5-22.8c-0.4,3.3,6.3,1.9,12.6-1.3c-1-5.6-0.6-11.5,1.3-17.3c5.5-16.6,22.2-26.4,39-23.8
	C345.1,4.5,327.2,6.8,334.8,14.4z"/>
<defs>
	<filter id="Adobe_OpacityMaskFilter_6_" filterUnits="userSpaceOnUse" x="333" y="7.9" width="51.1" height="69.7">
		<feColorMatrix  type="matrix" values="1 0 0 0 0  0 1 0 0 0  0 0 1 0 0  0 0 0 1 0"/>
	</filter>
</defs>
<mask maskUnits="userSpaceOnUse" x="333" y="7.9" width="51.1" height="69.7" id="SVGID_13_">
	<g class="st35">
		
			<linearGradient id="SVGID_14_" gradientUnits="userSpaceOnUse" x1="-531.7277" y1="617.5239" x2="-488.9176" y2="622.1439" gradientTransform="matrix(1 0 0 1 864.9955 -577.489)">
			<stop  offset="0" style="stop-color:#000000"/>
			<stop  offset="1" style="stop-color:#FFFFFF"/>
		</linearGradient>
		<rect x="333" y="7.9" class="st36" width="51.1" height="69.7"/>
	</g>
</mask>
<path class="st37" d="M360.7,22.7c-7.2-17.1-30.1-17.5-27.5-10.6c18.2,0.2,33.5,14.3,34.8,32.8c0.3,4.4-0.2,8.8-1.4,12.8
	c2.2,4.7,4.1,10.8,4.3,19.9c-0.1-3.6,3.1-6.6,6.4-7.5c2.3-6.7,1.9-14.6,0.8-21.6c5.8,3.4,9.6-11.8,1-20.9
	C374.4,22.7,367.3,20.8,360.7,22.7z"/>
<path class="st38" d="M352.3,59.6c-3.8-0.5-7.6,0.2-11.1,2.1c-0.6,0.3-0.8,1-0.5,1.6c0.3,0.6,1,0.8,1.6,0.5c3.1-1.7,6.5-2.2,9.8-1.8
	c3.3,0.4,6.5,1.8,9,4.2c0.5,0.4,1.2,0.4,1.6-0.1c0.4-0.5,0.4-1.2-0.1-1.6C359.7,61.6,356.1,60,352.3,59.6z"/>
<path class="st38" d="M327.3,62.6c-3.5-1.9-7.4-2.6-11.1-2.1c-3.8,0.5-7.4,2.1-10.3,4.8c-0.5,0.4-0.5,1.2-0.1,1.6
	c0.4,0.5,1.2,0.5,1.6,0.1c2.6-2.4,5.7-3.8,9-4.2c3.3-0.4,6.7,0.2,9.8,1.8c0.6,0.3,1.3,0.1,1.6-0.5C328.1,63.6,327.9,62.9,327.3,62.6
	z"/>
<path class="st39" d="M318,73.8c-1.1,0-2,0.9-2,2c0,1.1,0.9,2,2,2c1.1,0,2-0.9,2-2C320,74.7,319.1,73.8,318,73.8z"/>
<path class="st39" d="M351.2,73.7c-1,0-1.8,0.8-1.8,1.8c0,1,0.8,1.8,1.8,1.8c1,0,1.8-0.8,1.8-1.8C353.1,74.6,352.3,73.7,351.2,73.7z
	"/>
<path class="st4" d="M355.1,68.1c-1.5,0-2.7,1.2-2.7,2.7c0,1.5,1.2,2.7,2.7,2.7c1.5,0,2.7-1.2,2.7-2.7
	C357.8,69.3,356.6,68.1,355.1,68.1z"/>
<path class="st4" d="M323,69.6c-1.5,0-2.7,1.2-2.7,2.7c0,1.5,1.2,2.7,2.7,2.7c1.5,0,2.7-1.2,2.7-2.7C325.7,70.8,324.5,69.6,323,69.6
	z"/>
<path class="st24" d="M346.4,101.1c-3.3,3.1-7.2,4.7-11.1,4.7c-3.9,0-7.8-1.6-11.1-4.7c-0.4-0.4-1.1-0.4-1.5,0
	c-0.4,0.4-0.4,1.1,0,1.5c3.7,3.5,8.1,5.3,12.5,5.3c4.4,0,8.8-1.8,12.5-5.3c0.4-0.4,0.4-1.1,0-1.5
	C347.5,100.7,346.9,100.7,346.4,101.1z"/>
<path class="st24" d="M340.8,109.8c-1.6,1.5-3.6,2.3-5.5,2.3c-1.9,0-3.8-0.8-5.5-2.3c-0.2-0.2-0.5-0.2-0.7,0c-0.2,0.2-0.2,0.5,0,0.7
	c1.8,1.7,4,2.6,6.2,2.6s4.4-0.9,6.2-2.6c0.2-0.2,0.2-0.5,0-0.7C341.4,109.6,341,109.6,340.8,109.8z"/>
<defs>
	<filter id="Adobe_OpacityMaskFilter_7_" filterUnits="userSpaceOnUse" x="302" y="76.4" width="19.8" height="15.1">
		<feColorMatrix  type="matrix" values="1 0 0 0 0  0 1 0 0 0  0 0 1 0 0  0 0 0 1 0"/>
	</filter>
</defs>
<mask maskUnits="userSpaceOnUse" x="302" y="76.4" width="19.8" height="15.1" id="SVGID_15_">
	<g class="st40">
		
			<linearGradient id="SVGID_16_" gradientUnits="userSpaceOnUse" x1="-510.0687" y1="653.5334" x2="-539.3087" y2="638.9934" gradientTransform="matrix(1 0 0 1 833.9788 -563.5485)">
			<stop  offset="0" style="stop-color:#000000"/>
			<stop  offset="1" style="stop-color:#FFFFFF"/>
		</linearGradient>
		<rect x="302" y="76.4" class="st41" width="19.8" height="15.1"/>
	</g>
</mask>
<path class="st42" d="M305.8,77.2c0,0-1.3-0.3-3.9-0.8c0,2.8,0.2,5.6,0.4,8.4c1.8,3.4,5,5.7,8.8,6.5c3.7,0.7,7.6-0.2,10.6-2.7
	C314.3,89.4,307.5,84.5,305.8,77.2z"/>
<path class="st1" d="M376.9,69.3L364,75.8c-0.1-3.4-1.5-6.4-3.8-8.6c-2.3-2.3-5.6-3.8-9.1-3.8c-3.6,0-6.8,1.4-9.1,3.8
	c-1.3,1.3-2.3,2.8-2.9,4.5c-0.4-0.3-0.8-0.6-1.2-0.9c-1-0.6-2.1-0.9-3.2-0.9c-1.1,0-2.2,0.3-3.2,0.9c-0.4,0.3-0.8,0.6-1.2,0.9
	c-0.7-1.7-1.7-3.2-2.9-4.5c-2.3-2.3-5.6-3.8-9.1-3.8c-3.6,0-6.8,1.4-9.1,3.8c-2.3,2.3-3.7,5.5-3.8,9l-12.7-6.3c-0.4-0.2-1,0-1.2,0.4
	c-0.2,0.4,0,1,0.4,1.2l13.6,6.8c0.4,2.8,1.7,5.3,3.6,7.3c2.3,2.3,5.6,3.8,9.1,3.8c3.6,0,6.8-1.4,9.1-3.8c2.3-2.3,3.8-5.6,3.8-9.1
	c0-0.9-0.1-1.8-0.3-2.6c0.4-0.6,0.9-1,1.5-1.4c0.7-0.4,1.5-0.6,2.3-0.6c0.8,0,1.6,0.2,2.3,0.6c0.6,0.3,1.1,0.8,1.5,1.3
	c-0.2,0.9-0.3,1.8-0.3,2.7c0,3.6,1.4,6.8,3.8,9.1c2.3,2.3,5.6,3.8,9.1,3.8c3.6,0,6.8-1.4,9.1-3.8c2-2,3.3-4.6,3.7-7.6l13.8-6.9
	c0.4-0.2,0.6-0.7,0.4-1.2C377.8,69.3,377.3,69.1,376.9,69.3z M326,84.1c-2,2-4.8,3.3-7.9,3.3c-3.1,0-5.9-1.2-7.9-3.3
	c-2-2-3.3-4.8-3.3-7.9c0-3.1,1.2-5.9,3.3-7.9c2-2,4.8-3.3,7.9-3.3c3.1,0,5.9,1.2,7.9,3.3c2,2,3.3,4.8,3.3,7.9
	C329.3,79.3,328,82.1,326,84.1z M358.9,84.1c-2,2-4.8,3.3-7.9,3.3c-3.1,0-5.9-1.2-7.9-3.3c-2-2-3.3-4.8-3.3-7.9
	c0-3.1,1.2-5.9,3.3-7.9c2-2,4.8-3.3,7.9-3.3c3.1,0,5.9,1.2,7.9,3.3c2,2,3.3,4.8,3.3,7.9C362.2,79.3,360.9,82.1,358.9,84.1z"/>
<path class="st23" d="M341.5,85.3c-2.7-6.6-4-9.9-4-9.9c-0.5-1.2-1.7-2-3-2c-1.3,0-2.4,0.9-2.8,2.1c0,0-1,3.1-3.2,10
	c-7.7,2.1-7.9,6.5-0.6,8.7c4.5,4.2,8.9,4.4,13,0.1C348.7,91.9,349.4,87.3,341.5,85.3z"/>
<path class="st43" d="M290.9,156.2c8.5,1.7,12.7,2.5,12.7,2.5c-12,3.8-18,5.6-18,5.6c8.2,37.1,12.2,55.7,12.2,55.7
	c6.9,2.5,10.4,3.7,10.4,3.7s0.4-31.9,1.3-95.6c-9.2,8.2-13.9,12.3-13.9,12.3C292.5,151,290.9,156.2,290.9,156.2z"/>
<defs>
	<filter id="Adobe_OpacityMaskFilter_8_" filterUnits="userSpaceOnUse" x="337.6" y="130.1" width="67.1" height="124.9">
		<feColorMatrix  type="matrix" values="1 0 0 0 0  0 1 0 0 0  0 0 1 0 0  0 0 0 1 0"/>
	</filter>
</defs>
<mask maskUnits="userSpaceOnUse" x="337.6" y="130.1" width="67.1" height="124.9" id="SVGID_17_">
	<g class="st44">
		
			<linearGradient id="SVGID_18_" gradientUnits="userSpaceOnUse" x1="-462.7692" y1="509.1153" x2="-514.9092" y2="631.1852" gradientTransform="matrix(1 0 0 1 869.5933 -400.1187)">
			<stop  offset="0" style="stop-color:#000000"/>
			<stop  offset="1" style="stop-color:#FFFFFF"/>
		</linearGradient>
		<rect x="337.6" y="130.1" class="st45" width="67.1" height="124.9"/>
	</g>
</mask>
<path class="st46" d="M380.5,130.1c-11.2,22.8-16.8,34.3-16.8,34.3c-19.1,52.3-27.7,76-25.8,71.2c0,0,13.7,6.5,41.1,19.4
	c0,0,0.1-1.4,0.3-4.1c-18.5-16.7-19.1-45.3-0.8-62.4c2.5-2.3,5-4.4,7.6-6.4c10-7.8,19.6-14.5,18.5-29.4
	C403.8,141,394.6,131.2,380.5,130.1z"/>
<defs>
	<filter id="Adobe_OpacityMaskFilter_9_" filterUnits="userSpaceOnUse" x="252.8" y="217.2" width="45.5" height="68.3">
		<feColorMatrix  type="matrix" values="1 0 0 0 0  0 1 0 0 0  0 0 1 0 0  0 0 0 1 0"/>
	</filter>
</defs>
<mask maskUnits="userSpaceOnUse" x="252.8" y="217.2" width="45.5" height="68.3" id="SVGID_19_">
	<g class="st47">
		
			<linearGradient id="SVGID_20_" gradientUnits="userSpaceOnUse" x1="-496.1416" y1="673.0872" x2="-512.1917" y2="609.3271" gradientTransform="matrix(1 0 0 1 784.8 -369.6143)">
			<stop  offset="0" style="stop-color:#000000"/>
			<stop  offset="1" style="stop-color:#FFFFFF"/>
		</linearGradient>
		<rect x="252.8" y="217.2" class="st48" width="45.5" height="68.3"/>
	</g>
</mask>
<path class="st49" d="M289.9,242.2c2.7-6.1,1.8-13.1-2.3-18.3c-4.1-5.2-10.8-7.6-17.3-6.4c-6.5,1.3-11.8,6.1-13.6,12.5
	c-5.9,11.7-5,25.6,2.3,36.4c14.8,22,34.4,11.6,39,19c0.3-9.7,0.4-14.5,0.4-14.5c-9.3-6.4-14-9.6-14-9.6
	C291.2,250.1,293,243.7,289.9,242.2z"/>
<defs>
	<filter id="Adobe_OpacityMaskFilter_10_" filterUnits="userSpaceOnUse" x="410.6" y="268.3" width="3.8" height="5.7">
		<feColorMatrix  type="matrix" values="1 0 0 0 0  0 1 0 0 0  0 0 1 0 0  0 0 0 1 0"/>
	</filter>
</defs>
<mask maskUnits="userSpaceOnUse" x="410.6" y="268.3" width="3.8" height="5.7" id="SVGID_21_">
	<g class="st50">
		
			<linearGradient id="SVGID_22_" gradientUnits="userSpaceOnUse" x1="-472.5882" y1="530.3253" x2="-519.4781" y2="633.8052" gradientTransform="matrix(1 0 0 1 915.2201 -381.075)">
			<stop  offset="0" style="stop-color:#000000"/>
			<stop  offset="1" style="stop-color:#FFFFFF"/>
		</linearGradient>
		<rect x="383.2" y="166.1" class="st51" width="54.7" height="107.9"/>
	</g>
</mask>
<path class="st52" d="M410.6,268.3c1,2,2.3,4,3.8,5.7C413.4,272,412.1,270,410.6,268.3z"/>
<defs>
	<filter id="Adobe_OpacityMaskFilter_11_" filterUnits="userSpaceOnUse" x="383.2" y="166.1" width="54.7" height="102.2">
		<feColorMatrix  type="matrix" values="1 0 0 0 0  0 1 0 0 0  0 0 1 0 0  0 0 0 1 0"/>
	</filter>
</defs>
<mask maskUnits="userSpaceOnUse" x="383.2" y="166.1" width="54.7" height="102.2" id="SVGID_23_">
	<g class="st53">
		
			<linearGradient id="SVGID_24_" gradientUnits="userSpaceOnUse" x1="-472.5882" y1="530.3253" x2="-519.4781" y2="633.8052" gradientTransform="matrix(1 0 0 1 915.2201 -381.075)">
			<stop  offset="0" style="stop-color:#000000"/>
			<stop  offset="1" style="stop-color:#FFFFFF"/>
		</linearGradient>
		<rect x="383.2" y="166.1" class="st54" width="54.7" height="107.9"/>
	</g>
</mask>
<path class="st55" d="M437.9,166.2c-11.3-0.9-21.3,7-23,18.2c-21.1,48.7-31.7,73.1-31.7,73.1c10.5-1.3,20.8,2.9,27.4,10.8
	c-2.9-5.8-3.6-12.5-1.9-18.9c3.2-12,10.9-15.1,17.6-19.2c14.4-8.6,14.7-22.6,4.1-34.7c-3.9-4.4-7.5-8.7-5.5-16.8
	C426.4,172.4,431.5,167.5,437.9,166.2z"/>
<defs>
	<filter id="Adobe_OpacityMaskFilter_12_" filterUnits="userSpaceOnUse" x="340.5" y="296.5" width="83.8" height="118.3">
		<feColorMatrix  type="matrix" values="1 0 0 0 0  0 1 0 0 0  0 0 1 0 0  0 0 0 1 0"/>
	</filter>
</defs>
<mask maskUnits="userSpaceOnUse" x="340.5" y="296.5" width="83.8" height="118.3" id="SVGID_25_">
	<g class="st56">
		
			<linearGradient id="SVGID_26_" gradientUnits="userSpaceOnUse" x1="-455.6103" y1="633.6294" x2="-510.4702" y2="566.9194" gradientTransform="matrix(1 0 0 1 872.5221 -231.6419)">
			<stop  offset="0" style="stop-color:#000000"/>
			<stop  offset="1" style="stop-color:#FFFFFF"/>
		</linearGradient>
		<rect x="340.5" y="296.5" class="st57" width="83.8" height="126.9"/>
	</g>
</mask>
<path class="st58" d="M381.3,318.2c-15.3-8.7-28.9-16-40.8-21.6c2.3,38.8,11.2,78.3,26.7,118.3c-1.8-6.8-1.9-14,0-20.9
	c11-40.2,69.8-21.9,54.5-77.8C407.6,328.2,394.1,328.8,381.3,318.2z"/>
<defs>
	<filter id="Adobe_OpacityMaskFilter_13_" filterUnits="userSpaceOnUse" x="367.2" y="414.8" width="3.4" height="8.6">
		<feColorMatrix  type="matrix" values="1 0 0 0 0  0 1 0 0 0  0 0 1 0 0  0 0 0 1 0"/>
	</filter>
</defs>
<mask maskUnits="userSpaceOnUse" x="367.2" y="414.8" width="3.4" height="8.6" id="SVGID_27_">
	<g class="st59">
		
			<linearGradient id="SVGID_28_" gradientUnits="userSpaceOnUse" x1="-455.6103" y1="633.6294" x2="-510.4702" y2="566.9194" gradientTransform="matrix(1 0 0 1 872.5221 -231.6419)">
			<stop  offset="0" style="stop-color:#000000"/>
			<stop  offset="1" style="stop-color:#FFFFFF"/>
		</linearGradient>
		<rect x="340.5" y="296.5" class="st60" width="83.8" height="126.9"/>
	</g>
</mask>
<path class="st61" d="M367.2,414.8c0.8,3,1.9,5.9,3.4,8.6C369.5,420.6,368.3,417.7,367.2,414.8z"/>
<defs>
	<filter id="Adobe_OpacityMaskFilter_14_" filterUnits="userSpaceOnUse" x="290.9" y="236.2" width="123.1" height="83.3">
		<feColorMatrix  type="matrix" values="1 0 0 0 0  0 1 0 0 0  0 0 1 0 0  0 0 0 1 0"/>
	</filter>
</defs>
<mask maskUnits="userSpaceOnUse" x="290.9" y="236.2" width="123.1" height="83.3" id="SVGID_29_">
	<g class="st62">
		
			<linearGradient id="SVGID_30_" gradientUnits="userSpaceOnUse" x1="-460.5026" y1="549.1575" x2="-475.1026" y2="643.1274" gradientTransform="matrix(1 0 0 1 822.9674 -335.6422)">
			<stop  offset="0" style="stop-color:#000000"/>
			<stop  offset="1" style="stop-color:#FFFFFF"/>
		</linearGradient>
		<rect x="290.9" y="236.2" class="st63" width="123.1" height="83.3"/>
	</g>
</mask>
<path class="st64" d="M373.4,278.2c-10.7-4.2-23.7-2.8-35-2.7c-8.6,0.1-16.9-1.4-24.4-8.5c-8.3-7.9-11.8-19.7-9-30.9
	c-5.9,6.9-10.7,14.7-14,23.1c26.5,16.7,56.5,34.2,90,52.5c12.9,9.2,23.9,10.1,33.1,2.6C387.3,321,397.6,287.7,373.4,278.2z"/>
<path class="st43" d="M386.2,149l-4.2-23.3l-13.4-11c0.3,2.9,0.7,5.8,1.2,8.6l-36.7,110.2l2.8,2.2c0.5-0.1,1.2-0.2,1.7,0l0.4,0.1
	c0.4,0.1,0.8,0.2,1.2,0.5c0.3,0.1,0.5,0.2,0.8,0.4l0.6,0.3c0.3,0.1,0.5,0.3,0.8,0.5c0.2,0.1,0.5,0.3,0.7,0.4l0,0
	c0.4,0.1,0.7,0.3,1,0.6c0.3,0.1,0.6,0.2,0.9,0.4c0.1,0.1,0.3,0.1,0.4,0.2c14.2-26.7,29.2-52.9,45-78.7l-20.1-2.9L386.2,149z"/>
<defs>
	<filter id="Adobe_OpacityMaskFilter_15_" filterUnits="userSpaceOnUse" x="417.8" y="163.7" width="45.4" height="131.3">
		<feColorMatrix  type="matrix" values="1 0 0 0 0  0 1 0 0 0  0 0 1 0 0  0 0 0 1 0"/>
	</filter>
</defs>
<mask maskUnits="userSpaceOnUse" x="417.8" y="163.7" width="45.4" height="131.3" id="SVGID_31_">
	<g class="st65">
		
			<linearGradient id="SVGID_32_" gradientUnits="userSpaceOnUse" x1="-579.1603" y1="600.584" x2="-486.9803" y2="585.884" gradientTransform="matrix(1 0 0 1 949.8331 -360.1338)">
			<stop  offset="0" style="stop-color:#000000"/>
			<stop  offset="1" style="stop-color:#FFFFFF"/>
		</linearGradient>
		<rect x="417.8" y="163.7" class="st66" width="45.4" height="131.3"/>
	</g>
</mask>
<path class="st67" d="M456.5,163.7c-19.7,9.8-5.6,26.4-3.6,43.6c3.5,29.6-30.3,22.9-34.7,54.6c-1.8,12.5,3.1,25.1,12.9,33.1
	c7.5-18.9,14.2-36.4,20-52.5c5-13.9,8.6-26.9,10.7-38.8c1.6-9.3,1.8-17.3,0.9-24.1C461.9,173.7,459.8,168.4,456.5,163.7z"/>
<defs>
	<filter id="Adobe_OpacityMaskFilter_16_" filterUnits="userSpaceOnUse" x="318.8" y="228" width="97" height="59.6">
		<feColorMatrix  type="matrix" values="1 0 0 0 0  0 1 0 0 0  0 0 1 0 0  0 0 0 1 0"/>
	</filter>
</defs>
<mask maskUnits="userSpaceOnUse" x="318.8" y="228" width="97" height="59.6" id="SVGID_33_">
	<g class="st68">
		
			<linearGradient id="SVGID_34_" gradientUnits="userSpaceOnUse" x1="-559.167" y1="654.9155" x2="-445.317" y2="610.3655" gradientTransform="matrix(1 0 0 1 850.8243 -367.543)">
			<stop  offset="0" style="stop-color:#000000"/>
			<stop  offset="1" style="stop-color:#FFFFFF"/>
		</linearGradient>
		<rect x="318.8" y="228" class="st69" width="97" height="59.6"/>
	</g>
</mask>
<path class="st70" d="M405.4,263.5c-6.8-5.6-15.8-7.8-24.4-5.9c-13.8-8.7-34.5-18.5-62.1-29.6c-1.8,20.5,15.1,39.2,36,37.4
	c8.2-0.7,15.5-3.3,23.3,0.4c13.7,6.6,12.8,27.1,37.6,20.5C416,277.5,412.2,269.1,405.4,263.5z"/>
<path class="st71" d="M264,133.5H31.1c-2.9,0-5.3,2.4-5.3,5.3v298.8c0,2.9,2.4,5.3,5.3,5.3H264c2.9,0,5.3-2.4,5.3-5.3V138.8
	C269.3,135.9,266.9,133.5,264,133.5z"/>
<path class="st72" d="M425.8,339.6l-59,22.4c-0.7,0.3-1,1-0.8,1.7c0.3,0.7,1,1,1.7,0.8l59-22.4c0.7-0.3,1-1,0.8-1.7
	C427.2,339.7,426.4,339.3,425.8,339.6z"/>
<path class="st72" d="M429.3,299.7c-0.7-0.3-1.5,0-1.7,0.7c-5.5,13.3-12.3,20.7-20.1,23.1c-7.8,2.3-16.7-0.3-26.7-7c0,0-0.1,0-0.1,0
	l0,0c-9.3-5.4-19.4-11.1-29.4-16.8c-20.1-11.4-40.2-22.8-59.7-34.4c-0.8-0.5-1.9-1.2-3.4-2c-0.8-0.5-1.6-0.9-2.4-1.5
	c1-2.5,2.2-5,3.4-7.5c1.4-2.8,2.9-5.5,4.4-8.2c0.4-0.6,0.2-1.4-0.5-1.8c-0.6-0.4-1.4-0.2-1.8,0.5c-1.6,2.7-3.1,5.5-4.5,8.4
	c-1.4,2.8-2.7,5.7-3.9,8.7c-0.3,0.6,0,1.3,0.5,1.7c1,0.6,2.2,1.3,3.4,2.1c0.8,0.5,2,1.2,3.4,2c19.8,11.8,39.8,23.1,59.7,34.4
	c9.6,5.4,19.2,10.9,29.4,16.8c10.6,7.1,20.2,9.9,28.8,7.3c8.6-2.6,15.9-10.4,21.8-24.6C430.3,300.7,430,299.9,429.3,299.7z"/>
<path class="st72" d="M383.6,311.2c0.7,0.2,1.4-0.3,1.6-1c0.2-0.7-0.3-1.4-1-1.6c-5.9-1.3-12-7-18.4-17.2
	c-6.5-10.4-13.3-25.4-20.3-44.9c-0.2-0.7-1-1.1-1.7-0.8c-0.7,0.2-1.1,1-0.8,1.7c7,19.7,13.9,34.9,20.5,45.4
	C370.3,303.7,377,309.8,383.6,311.2z"/>
<path class="st72" d="M443.8,160.9c-3.8-1.1-7.7-1.4-11.5-0.9c-3.8,0.5-7.5,1.8-10.8,3.9c-3.3,2.1-6.1,4.8-8.3,8
	c-2.1,3.1-3.6,6.7-4.2,10.5l-30.8,71l-63.3-30.4c-0.2-0.1-0.5-0.2-0.8-0.2c-0.9,0.1-1.8,0.2-2.6,0.5c-0.8,0.2-1.7,0.5-2.5,0.9
	c-0.7,0.3-0.9,1.1-0.6,1.8c0.3,0.7,1.1,0.9,1.8,0.6c0.6-0.3,1.3-0.6,2-0.8c0.6-0.2,1.2-0.3,1.8-0.3l66.4,31.9
	c0.2,0.1,0.5,0.1,0.7,0.1l0,0c5.2-0.6,10.3,0.1,14.9,2c4.6,1.9,8.8,5,12.1,9c3.3,4,5.4,8.8,6.2,13.7c0.9,5,0.5,10.1-1.2,15
	c-0.2,0.7,0.1,1.4,0.8,1.7c0.7,0.2,1.4-0.1,1.7-0.8c1.8-5.3,2.2-11,1.3-16.3c-0.9-5.4-3.2-10.5-6.8-14.9c-3.5-4.4-8.1-7.7-13.1-9.8
	c-4.7-1.9-9.8-2.8-15-2.4c2.9-3.9,6.6-6.9,10.9-9c4.4-2.1,9.4-3.1,14.5-2.8c5.1,0.3,9.9,1.9,14,4.6c4.1,2.7,7.6,6.4,10,10.9
	c0.3,0.6,1.1,0.9,1.8,0.6c0.6-0.3,0.9-1.1,0.6-1.8c-2.6-4.9-6.4-8.9-10.9-11.8c-4.5-2.9-9.7-4.7-15.3-5c-5.5-0.4-10.9,0.7-15.8,3.1
	c-3.5,1.7-6.6,3.9-9.3,6.7l29-66.8c0-0.1,0.1-0.2,0.1-0.3h0c0.6-3.5,1.9-6.8,3.9-9.7c1.9-2.9,4.5-5.4,7.5-7.2c3-1.9,6.4-3.1,9.8-3.5
	c3.4-0.5,7-0.2,10.4,0.8c0.7,0.2,1.4-0.2,1.6-0.9C444.9,161.9,444.5,161.2,443.8,160.9z"/>
<defs>
	<filter id="Adobe_OpacityMaskFilter_17_" filterUnits="userSpaceOnUse" x="395.8" y="342.3" width="65.5" height="107.2">
		<feColorMatrix  type="matrix" values="1 0 0 0 0  0 1 0 0 0  0 0 1 0 0  0 0 0 1 0"/>
	</filter>
</defs>
<mask maskUnits="userSpaceOnUse" x="395.8" y="342.3" width="65.5" height="107.2" id="SVGID_35_">
	<g class="st73">
		
			<linearGradient id="SVGID_36_" gradientUnits="userSpaceOnUse" x1="-550.0037" y1="530.1028" x2="-456.4037" y2="661.8928" gradientTransform="matrix(1 0 0 1 927.8691 -205.6581)">
			<stop  offset="0" style="stop-color:#000000"/>
			<stop  offset="1" style="stop-color:#FFFFFF"/>
		</linearGradient>
		<rect x="395.8" y="342.3" class="st74" width="65.5" height="107.2"/>
	</g>
</mask>
<path class="st75" d="M418.4,382.1c-3.3,2.3-6.7,4.5-9.8,7.2c-17.8,15.4-16.3,44.5,0.4,60.2c18.4-2.1,36.2-7.8,52.4-16.7
	c0,0-7.4-30.2-22.3-90.5C437.2,367.5,427.9,375.4,418.4,382.1z"/>
<path class="st22" d="M141.3,441c-1.1-0.2-2.3,0.3-3,1.2c-0.5-3-4.2-4.2-6.5-2.2c-0.4-1.8-1.9-3-3.7-3.2c-1.8-0.2-3.5,0.9-4.2,2.5
	c-1-1.3-2.6-2-4.3-2c-1.7,0-3.2,0.8-4.2,2.1l-2.1,3.6H93.8c3.1,5,9,3.9,14,4.1c0,0,0,2.1,0,6.4c0.2,1.8,1.3,3.3,3,4
	c1.7,0.7,3.6,0.4,5-0.7c-0.4,2.3,0.8,4.7,3,5.6c2.2,0.9,4.7,0.2,6.1-1.7c0,0,0.2-0.4,0.7-1.3c0.8,2,2.8,3.4,5,3.3
	c2.2,0,4.1-1.4,4.9-3.5c1.3,1.5,3.2,2.2,5.1,2c1.9-0.3,3.6-1.5,4.4-3.3c4.9-4,8.8-9.2,11.4-15c-0.6,0-4.7,0-12.4,0
	C143.5,441.9,142.5,441.1,141.3,441z"/>
<path class="st76" d="M124,438.3c-0.6-0.3-1.3,0-1.5,0.6l-7.8,16.6c-0.3,0.6,0,1.3,0.6,1.5c0.6,0.3,1.3,0,1.5-0.6l7.8-16.6
	C124.9,439.3,124.6,438.6,124,438.3z"/>
<path class="st76" d="M113.9,441.8c-0.6-0.3-1.3,0-1.5,0.5l-3.5,7.1c-0.3,0.6,0,1.3,0.5,1.5c0.6,0.3,1.3,0,1.5-0.5l3.5-7.1
	C114.7,442.8,114.5,442.1,113.9,441.8z"/>
<path class="st76" d="M137.4,440.9c-0.6-0.1-1.2,0.3-1.3,0.9l-2.7,16.2c-0.1,0.6,0.3,1.2,0.9,1.3c0.6,0.1,1.2-0.3,1.3-0.9l2.7-16.2
	C138.4,441.6,138,441.1,137.4,440.9z"/>
<path class="st76" d="M131.4,438.9c-0.6-0.2-1.2,0.1-1.4,0.7l-5.9,18.5c-0.2,0.6,0.1,1.2,0.7,1.4c0.6,0.2,1.2-0.1,1.4-0.7l5.9-18.5
	C132.3,439.8,132,439.1,131.4,438.9z"/>
<path class="st76" d="M148.5,446.8c-1,0-2-0.2-2.8-0.6l-0.1,0c-0.8-0.4-1.5-0.9-2-1.5l0.1-1.8c0-0.6-0.5-1.2-1.1-1.2
	c-0.6,0-1.2,0.5-1.2,1.1l-0.5,10.5c0,0.3,0.1,0.6,0.3,0.8l1.5,1.8c0.4,0.5,1.1,0.6,1.6,0.1c0.5-0.4,0.6-1.1,0.1-1.6l-1.2-1.5
	l0.2-5.4c0.4,0.3,0.8,0.5,1.2,0.7c0,0,0,0,0.1,0c1.2,0.6,2.5,0.9,3.8,0.9c0.6,0,1.1-0.5,1.2-1.1
	C149.7,447.4,149.2,446.8,148.5,446.8z"/>
<path class="st22" d="M299,179.4c0.2-2.4-0.8-4.8-2.7-6.4c-1.9-1.6-4.4-2.1-6.7-1.5c-11.3-3.1-17-4.7-17-4.7
	c-15.4,4.6-23.2,6.9-23.2,6.9c-1,1-1.2,2.5-0.6,3.8c0.6,1.3,1.9,2.1,3.2,2c3-0.2,4.5-0.4,4.5-0.4c-5.6,6.5-8.4,9.8-8.4,9.8
	c-0.3,1.3,0.2,2.6,1.3,3.4c1,0.8,2.5,0.9,3.6,0.3c-0.9,3.8-1.3,5.6-1.3,5.6c-0.3,1.3,0.4,2.7,1.5,3.4c0,2,0,3,0,3
	c0.5,1.4,1.7,2.3,3.2,2.4c1.5,0.1,2.8-0.7,3.5-2c1-3.7,1.5-5.5,1.5-5.5c1.5,6.8,2.2,10.3,2.2,10.3c1.3,11.7,5.7,18.6,13.2,20.9
	c9.9,11.8,14.8,17.7,14.8,17.7c6.3-11.7,12.7-19.2,19.2-22.4c-7.5-10-11.2-15-11.2-15C299.2,189.9,299,179.4,299,179.4z"/>
<path class="st76" d="M286.2,172.6c-1.7-0.7-3.7-0.9-5.6-0.3l-16.1-1.8v0c-0.3,0-0.6,0.1-0.8,0.3l-8,7.6c-0.4,0.4-0.4,1,0,1.4
	c0.4,0.4,1,0.4,1.4,0l7.7-7.3l15.8,1.8c0.2,0,0.3,0,0.5-0.1c1.5-0.5,3-0.4,4.3,0.2c1.3,0.6,2.5,1.6,3.1,3.1c0.2,0.5,0.8,0.7,1.3,0.5
	c0.5-0.2,0.7-0.8,0.5-1.3C289.5,174.8,288,173.4,286.2,172.6z"/>
<path class="st76" d="M261.7,198.5c-0.8-0.2-1.5-0.8-1.9-1.4c-0.4-0.7-0.6-1.5-0.5-2.3c0.1-0.5-0.3-1-0.8-1.1
	c-0.5-0.1-1,0.3-1.1,0.8c-0.2,1.3,0.1,2.6,0.8,3.7c0.7,1.1,1.7,1.9,3,2.3c0.5,0.2,1.1-0.1,1.2-0.7
	C262.5,199.2,262.2,198.7,261.7,198.5z"/>
<path class="st76" d="M281.1,178.5c-1.4-0.5-3-0.6-4.5-0.2l-15-1.3v0c-0.3,0-0.7,0.1-0.9,0.4l-6.5,8.3l0,0c-0.1,0.1-0.1,0.2-0.2,0.4
	l-1.7,6.3c-0.1,0.5,0.2,1.1,0.7,1.2c0.3,0.1,0.5,0,0.8-0.1l-1.6,8c-0.1,0.5,0.2,1.1,0.8,1.2c0.5,0.1,1.1-0.2,1.2-0.8l2.4-12.1
	l11.8-3.1c0.2-0.1,0.4-0.2,0.5-0.3h0c0.8-1,1.9-1.6,3-1.9c1.2-0.3,2.4-0.1,3.6,0.4c0.5,0.2,1.1,0,1.3-0.5c0.2-0.5,0-1.1-0.5-1.3
	c-1.6-0.7-3.3-0.9-4.8-0.5c-1.5,0.3-2.9,1.1-3.9,2.3l-12,3.2l0.3-1.2l6.1-7.7l14.7,1.3c0.1,0,0.3,0,0.4,0c1.2-0.3,2.4-0.3,3.5,0.1
	c1.1,0.4,2.1,1.1,2.9,2c0.3,0.4,1,0.5,1.4,0.2c0.4-0.3,0.5-1,0.2-1.4C283.9,179.9,282.6,178.9,281.1,178.5z"/>
<defs>
	<filter id="Adobe_OpacityMaskFilter_18_" filterUnits="userSpaceOnUse" x="263.8" y="197.6" width="38.9" height="47.4">
		<feColorMatrix  type="matrix" values="1 0 0 0 0  0 1 0 0 0  0 0 1 0 0  0 0 0 1 0"/>
	</filter>
</defs>
<mask maskUnits="userSpaceOnUse" x="263.8" y="197.6" width="38.9" height="47.4" id="SVGID_37_">
	<g class="st77">
		
			<linearGradient id="SVGID_38_" gradientUnits="userSpaceOnUse" x1="-508.3654" y1="589.172" x2="-515.0054" y2="656.032" gradientTransform="matrix(1 0 0 1 795.8217 -410.0885)">
			<stop  offset="0" style="stop-color:#000000"/>
			<stop  offset="1" style="stop-color:#FFFFFF"/>
		</linearGradient>
		<rect x="263.8" y="197.6" class="st78" width="38.9" height="47.4"/>
	</g>
</mask>
<path class="st79" d="M290.3,231.6c-3.8-2.2-6.2-6.2-6.5-10.5c2.9-6.2,1.6-13.6-3.2-18.5c-4.4-4.5-11-6.1-16.9-4.2
	c1.5,6.9,2.3,10.4,2.3,10.4c1.3,10.9,5.6,17.6,12.7,20c8.9,10.8,13.4,16.2,13.4,16.2c1-0.2,1.5-0.3,1.5-0.3c3-5.1,6-9.3,9.1-12.6
	C298.8,234,294.1,233.8,290.3,231.6z"/>
<defs>
	<filter id="Adobe_OpacityMaskFilter_19_" filterUnits="userSpaceOnUse" x="289.5" y="171.2" width="19.9" height="56.5">
		<feColorMatrix  type="matrix" values="1 0 0 0 0  0 1 0 0 0  0 0 1 0 0  0 0 0 1 0"/>
	</filter>
</defs>
<mask maskUnits="userSpaceOnUse" x="289.5" y="171.2" width="19.9" height="56.5" id="SVGID_39_">
	<g class="st80">
		
			<linearGradient id="SVGID_40_" gradientUnits="userSpaceOnUse" x1="-569.2932" y1="623.4948" x2="-512.1932" y2="627.5948" gradientTransform="matrix(1 0 0 1 821.5577 -427.4246)">
			<stop  offset="0" style="stop-color:#000000"/>
			<stop  offset="1" style="stop-color:#FFFFFF"/>
		</linearGradient>
		<rect x="289.5" y="171.2" class="st81" width="19.9" height="56.5"/>
	</g>
</mask>
<path class="st82" d="M299,178.4c-0.1-2.3-1.3-4.3-3.1-5.7c-1.8-1.3-4.2-1.8-6.3-1.2c2,0.3,3.8,1.5,4.7,3.3c0.9,1.8,0.9,3.9,0,5.7
	c0,0-0.6,9.4-1.8,28.3c-2.1,4.8-1.2,10.3,2.2,14.2c3.4,3.9,8.8,5.6,13.8,4.2c0.3-0.2,0.5-0.3,0.8-0.5c0.1-1.8,0.2-2.7,0.2-2.7
	s-3.3-4.4-9.8-13.2C299.6,210.9,299.4,200,299,178.4z"/>
<path class="st4" d="M359.9,498.1c-1.4,0-2.6,1.2-2.6,2.6c0,1.4,1.2,2.6,2.6,2.6c1.4,0,2.6-1.2,2.6-2.6
	C362.5,499.3,361.3,498.1,359.9,498.1z"/>
<path class="st4" d="M350,488c-0.7,0-1.3,0.6-1.3,1.3c0,0.7,0.6,1.3,1.3,1.3c0.7,0,1.3-0.6,1.3-1.3C351.3,488.5,350.7,488,350,488z"
	/>
<path class="st4" d="M371.3,428.6c-0.7,0-1.3,0.6-1.3,1.3s0.6,1.3,1.3,1.3c0.7,0,1.3-0.6,1.3-1.3S372,428.6,371.3,428.6z"/>
<path class="st4" d="M288.1,488.6c-0.7,0-1.3,0.6-1.3,1.3c0,0.7,0.6,1.3,1.3,1.3c0.7,0,1.3-0.6,1.3-1.3
	C289.4,489.1,288.9,488.6,288.1,488.6z"/>
<path class="st4" d="M394.4,364c-0.9,0-1.7,0.8-1.7,1.7c0,0.9,0.8,1.7,1.7,1.7s1.7-0.8,1.7-1.7C396.1,364.8,395.3,364,394.4,364z"/>
<path class="st4" d="M285.9,314.3c-0.7,0-1.3,0.6-1.3,1.3c0,0.7,0.6,1.3,1.3,1.3c0.7,0,1.3-0.6,1.3-1.3
	C287.1,314.8,286.6,314.3,285.9,314.3z"/>
<path class="st4" d="M406.5,279.9c-0.7,0-1.3,0.6-1.3,1.3s0.6,1.3,1.3,1.3s1.3-0.6,1.3-1.3S407.2,279.9,406.5,279.9z"/>
<path class="st4" d="M433.4,233.7c-1.2,0-2.1,0.9-2.1,2.1c0,1.2,0.9,2.1,2.1,2.1c1.2,0,2.1-0.9,2.1-2.1
	C435.5,234.7,434.6,233.7,433.4,233.7z"/>
<path class="st4" d="M370.2,144.5c-0.3,0-0.6,0.3-0.6,0.6c0,0.3,0.3,0.6,0.6,0.6c0.3,0,0.6-0.3,0.6-0.6
	C370.9,144.8,370.6,144.5,370.2,144.5z"/>
<path class="st4" d="M301.9,172.7c-0.3,0-0.6,0.3-0.6,0.6c0,0.3,0.3,0.6,0.6,0.6c0.3,0,0.6-0.3,0.6-0.6
	C302.5,173,302.2,172.7,301.9,172.7z"/>
<path class="st4" d="M420.3,219.2c-0.6,0-1.1,0.5-1.1,1.1c0,0.6,0.5,1.1,1.1,1.1s1.1-0.5,1.1-1.1
	C421.3,219.7,420.9,219.2,420.3,219.2z"/>
<path class="st4" d="M433.7,198.5c-0.3,0-0.5,0.2-0.5,0.5c0,0.3,0.2,0.5,0.5,0.5c0.3,0,0.5-0.2,0.5-0.5
	C434.2,198.8,434,198.5,433.7,198.5z"/>
<g>
	<rect x="47" y="170.5" class="st83" width="201" height="80"/>
	<rect x="47" y="155.1" class="st83" width="201" height="5.2"/>
	<rect x="47" y="260.7" class="st83" width="201" height="5.2"/>
	<rect x="47" y="272.5" class="st83" width="84.2" height="91.6"/>
	<rect x="137.7" y="272.5" class="st83" width="109.9" height="3.8"/>
	<rect x="137.7" y="281.2" class="st83" width="109.9" height="3.8"/>
	<rect x="137.7" y="289.6" class="st83" width="106.5" height="3.8"/>
	<rect x="137.7" y="298.4" class="st83" width="109.9" height="3.8"/>
	<rect x="137.7" y="308.1" class="st83" width="104.7" height="3.8"/>
	<rect x="137.7" y="316.9" class="st83" width="109.9" height="3.8"/>
	<rect x="137.7" y="325.3" class="st83" width="100.3" height="3.8"/>
	<rect x="137.7" y="334" class="st83" width="109.9" height="3.8"/>
	<rect x="137.7" y="342.8" class="st83" width="87.4" height="3.8"/>
	<rect x="137.7" y="351.2" class="st83" width="103.1" height="3.8"/>
	<rect x="137.7" y="360" class="st83" width="70" height="3.8"/>
	<rect x="47" y="387.9" class="st83" width="42.1" height="9.7"/>
	<rect x="97.4" y="387.9" class="st83" width="42.1" height="9.7"/>
</g>
<rect x="176.7" y="387.9" class="st84" width="42.1" height="9.7"/>
<path class="st85" d="M179.7,396.5c4.2,0,8.3-1.4,11.6-4c0.9-0.7,1.9-1.6,2.2-2.8c0.3-1.2-0.2-2.6-1.3-3c-0.8-0.2-1.7,0.1-2.3,0.7
	s-1,1.4-1.3,2.2c-0.4,0.9-0.7,1.9-0.6,2.8c0,1,0.4,2,1.1,2.6c0.8,0.6,1.8,0.8,2.8,0.8c4.5,0.1,9.4-1.8,11.7-5.8
	c0.5-0.9,0.8-2.3-0.2-2.8c-0.6-0.3-1.3,0-1.9,0.4c-1.7,1.1-2.9,3.1-3,5.2c-0.1,0.8,0,1.6,0.5,2.2c0.5,0.7,1.3,1,2.1,1.2
	c2.3,0.5,4.7-0.2,6.9-1.2c2.2-1,4.4-2.3,5.6-4.5c0.6-1.1,0.7-2.6-0.3-3.3c-1-0.6-2.4,0.2-3.1,1.2c-1.2,1.6-1.6,3.7-0.9,5.6
	c0.7,1.8,2.7,3.1,4.7,2.8"/>
<circle class="st86" cx="147.5" cy="260.9" r="36.3"/>
<g>
	<path class="st87" d="M144.5,270.6c-0.7,0-1.3-0.3-1.8-0.8l-7.8-8c-1-1-0.9-2.6,0-3.5c1-1,2.6-0.9,3.5,0l6.1,6.3l14.5-13.5
		c1-0.9,2.6-0.9,3.5,0.1c0.9,1,0.9,2.6-0.1,3.5l-16.3,15.1C145.8,270.4,145.2,270.6,144.5,270.6z"/>
</g>
</svg>
