<?xml version="1.0" encoding="utf-8"?>
<!-- Generator: Adobe Illustrator 25.2.0, SVG Export Plug-In . SVG Version: 6.00 Build 0)  -->
<svg version="1.1" id="Layer_1" xmlns="http://www.w3.org/2000/svg" xmlns:xlink="http://www.w3.org/1999/xlink" x="0px" y="0px"
	 viewBox="0 0 800 625" style="enable-background:new 0 0 800 625;" xml:space="preserve">
<style type="text/css">
	.st0{opacity:0.16;fill-rule:evenodd;clip-rule:evenodd;fill:#EBEEFF;}
	.st1{fill-rule:evenodd;clip-rule:evenodd;fill:#FFFFFF;}
	.st2{fill-rule:evenodd;clip-rule:evenodd;fill:#DADDFA;}
	.st3{fill-rule:evenodd;clip-rule:evenodd;fill:#BFC6F2;}
	.st4{fill-rule:evenodd;clip-rule:evenodd;fill:#7703FC;}
	.st5{fill-rule:evenodd;clip-rule:evenodd;fill:#9FB1EB;}
	.st6{fill-rule:evenodd;clip-rule:evenodd;fill:#A686D9;}
	.st7{fill-rule:evenodd;clip-rule:evenodd;fill:#845FBF;}
	.st8{fill-rule:evenodd;clip-rule:evenodd;fill:#623C9E;}
	.st9{fill-rule:evenodd;clip-rule:evenodd;fill:#CBB1F5;}
	.st10{fill-rule:evenodd;clip-rule:evenodd;fill:#9CC2F0;}
	.st11{fill-rule:evenodd;clip-rule:evenodd;fill:#709DD4;}
	.st12{fill-rule:evenodd;clip-rule:evenodd;fill:#3470BA;}
	.st13{fill-rule:evenodd;clip-rule:evenodd;fill:#F5C151;}
	.st14{fill-rule:evenodd;clip-rule:evenodd;fill:#F29718;}
	.st15{fill-rule:evenodd;clip-rule:evenodd;fill:#E86705;}
	.st16{fill-rule:evenodd;clip-rule:evenodd;fill:#FCD358;}
	.st17{fill-rule:evenodd;clip-rule:evenodd;fill:#FFDA6B;}
	.st18{fill-rule:evenodd;clip-rule:evenodd;fill:#4D4D4D;}
	.st19{fill-rule:evenodd;clip-rule:evenodd;fill:#FCC44B;}
	.st20{fill-rule:evenodd;clip-rule:evenodd;fill:#4A1799;}
	.st21{fill-rule:evenodd;clip-rule:evenodd;fill:#350777;}
	.st22{fill-rule:evenodd;clip-rule:evenodd;fill:#F7C42A;}
	.st23{fill-rule:evenodd;clip-rule:evenodd;fill:#F59B00;}
	.st24{fill-rule:evenodd;clip-rule:evenodd;fill:#E66220;}
	.st25{fill-rule:evenodd;clip-rule:evenodd;fill:#FFFFCC;}
	.st26{fill-rule:evenodd;clip-rule:evenodd;fill:#FAB02F;}
	.st27{fill-rule:evenodd;clip-rule:evenodd;fill:#0F335E;}
	.st28{fill-rule:evenodd;clip-rule:evenodd;fill:#6394CF;}
	.st29{fill-rule:evenodd;clip-rule:evenodd;}
	.st30{fill-rule:evenodd;clip-rule:evenodd;fill:#ED6E1F;}
	.st31{fill-rule:evenodd;clip-rule:evenodd;fill:#CC370E;}
	.st32{fill-rule:evenodd;clip-rule:evenodd;fill:#EBEEFF;}
	.st33{fill-rule:evenodd;clip-rule:evenodd;fill:#A2BEE0;}
	.st34{fill:#FFFFFF;}
</style>
<g>
	<path class="st0" d="M205.7,397.2c-85.7,53.4-46,137.9,40.9,178c4.8-5.4,11.9-8.9,19.7-8.9c3.3,0,6.4,0.6,9.3,1.7l0.4,0.1
		c2.9,0.6,5.6,1.6,8,3c0.8,0.3,1.5,0.7,2.2,1.1c4.1,1.3,7.7,3.5,10.6,6.5l-7-7h53.6c1.9-0.4,3.9-0.7,5.9-0.7h9.7
		c2-0.4,3.9-0.9,6-1.2l6-0.7c1-0.1,1.9-0.2,2.9-0.2h12.4c1.3-0.2,2.5-0.4,3.8-0.6l3.5-0.3c3.2-1.3,6.6-1.8,9.8-1.8l1.1-0.3
		c1.8-0.5,3.6-0.8,5.4-1l2.3-0.8c2.6-1.2,5.3-2,8-2.4c0.1,0,0.5-0.1,0.4-0.1l-0.1,0c1.4-0.7,2.7-1.4,4.1-2c1.6-0.8,3.4-1.5,5.1-2.2
		l7.8-3.2c0.1-0.1,0.3-0.1,0.4-0.2c1.8-1.1,3.7-2,5.6-2.6c1.9-1,7.8-3.2,5.7-2.6l-0.5,0.2l2.4-1.4c1.1-0.6,2.3-1.2,3.4-1.8l5.3-3
		c1.9-1.1,3.8-2.3,5.8-3.3l6.1-3.1l3-2.1c1.2-0.9,2.5-1.6,3.8-2.3c2.2-2.2,4.5-3.9,7.3-5.2c1-0.9,2.1-1.7,3.2-2.4
		c0.6-0.4,1.2-0.8,1.9-1.2c0.6-0.5,1.2-1,1.9-1.5l5.9-4.2l2.7-2.1c2.4-1.9,5.2-3.3,7.9-4.8l4.4-3.4c1.7-1.3,3.5-2.5,5.3-3.8
		c1.8-1.3,3.6-2.7,5.4-4c3.1-2.2,6.1-4.5,9.2-6.6l2.4-1.9c1.7-1.4,3.7-2.6,5.5-3.8l8.9-6.4c1.6-1.1,3.3-2.1,5-3.2l3.1-2.7
		c1.3-1.1,2.7-2.2,4-3.2c0.5-0.4,1.1-0.8,1.7-1.2l0.2-0.2c2.2-2.2,4.5-3.6,7-5.3l1.6-1.9c1.7-2,3.8-3.8,6-5.2l2.8-1.7l1.2-1.2
		c3.6-3.6,7.9-5.9,12.5-7c1.4-0.3,2.7-0.7,4.1-1c2.1-3.2,4.2-6.4,6.2-9.8c59.9-108.7,38.8-208.3,3.8-275.3
		C527,4,296-3.1,298.3,231.6C297.7,301,271.7,355.8,205.7,397.2"/>
	<path class="st1" d="M438.2,161.2c-6.9,0-13.4,3.5-17.3,9.2c-3.9,5.7-4.7,13-2.2,19.5c0,0,43.3-25,129.9-75.1
		c-6.4-4.1-14.3-5.2-21.5-2.9c-7.2,2.3-13.1,7.7-16,14.7c-10.4-18.6-33.4-25.9-52.6-16.8C439.2,119,430.3,141.5,438.2,161.2"/>
	<path class="st2" d="M174.3,517.4c18.5,25.4,43.5,45.3,72.4,57.8c150.7-19.1,268.4-61.7,353-128c17.1-27.3,29.6-57.3,36.9-88.7
		c-33.6-6.6-67.1,11.8-79.5,43.7c-2.2,6.1-7.4,10.5-13.8,11.5c-6.3,1-12.7-1.5-16.7-6.5c-21.9-27.9-58.4-39.9-92.5-30.4
		c-34.1,9.5-59.2,38.7-63.5,73.8c-4.8,10.4-14.8,17.6-26.2,18.7c-11.4,1.1-22.6-3.9-29.4-13.2c-20.9-31.5-61.4-43.4-96-28.3
		C184.2,442.9,165.4,480.7,174.3,517.4"/>
	<path class="st3" d="M288.7,590.1c-18.1-4.6-35.6-11.2-52.2-19.9c-8.9-21.5-0.7-46.2,19.4-58c20.1-11.8,45.7-6.9,60.1,11.3
		c5.4,7.3,15.1,9.8,23.5,6.2c8.3-3.6,13.1-12.5,11.4-21.4c-2.2-39.5,22.7-75.5,60.4-87.5c37.8-11.9,78.8,3.3,99.7,36.9
		c3.9,6.1,10.8,9.6,18,9.2c7.2-0.5,13.6-4.8,16.7-11.3c5.4-10.5,14.9-18.4,26.2-21.8c11.3-3.4,23.5-2.1,33.9,3.6
		c-21.9,36.4-49.6,68.9-82.1,96.2c-6.9,0.2-13.2,3.1-17.8,7.7l-0.2,0.1c-2.9,1.5-5.5,3.5-7.6,5.8c-0.4,0.4-0.9,0.8-1.3,1.3
		c-0.3,0.3-0.6,0.6-0.9,0.9c-0.9,0.6-1.8,1.3-2.6,2c-0.7,0.3-1.4,0.7-2.1,1c-1.2,0.4-2.4,0.9-3.6,1.5c-0.7,0.2-1.5,0.4-2.2,0.7
		l-1.6,0.5c-1,0.1-2,0.3-3,0.5c-2.1,0.1-4.2,0.4-6.1,0.9l-1.7,0.4c-2.9,0-5.6,0.4-8.4,1.3c-3.9,0.1-7.5,1-10.8,2.5l2.6-1.3
		c-3.9,0-8,1-11.9,1.9h-7.2c-2.6,0-5.3,0.5-7.9,0.9l-3.2,0.4h-7.9c-2.7,0-5.5,0.5-8.1,0.9c-2.2,0.3-4.5,0.9-6.7,1.4l-3.2,0.5
		L397,566h-2.2c-2.7,0-5.2,0.4-7.6,1.1c-0.9,0.2-1.8,0.4-2.7,0.7l0.7-0.2l-5.6,0.4c-0.5,0-0.9,0.1-1.4,0.1c-2.5,0.3-5.1,0.6-7.6,1.1
		h-0.6c-3.9,0-7.6,0.8-10.9,2.3l-0.4,0.2c-2.2,0-4.3,0.4-6.3,0.9c-1.4,0.4-2.8,0.7-4.2,1.1c-1,0.1-2,0.3-3,0.5
		c-1.1,0-2.2,0.1-3.2,0.2c-2,0.3-4.1,0.5-6.1,0.8c-1.9,0.3-4,0.6-5.9,1.1l-5.1,1.3c-0.7,0.2-1.3,0.4-1.9,0.6l2.1-0.7h-14.1
		C301.7,577.4,293.3,582.5,288.7,590.1"/>
	<path class="st0" d="M237.2,199.5c32.2,14.1,43.4,60.8,25,104.3c-18.4,43.5-59.4,67.4-91.6,53.3c-32.2-14.1-43.4-60.8-25-104.3
		C164,209.3,205,185.5,237.2,199.5"/>
	<path class="st4" d="M329.2,27.2c-44.4-2-82,32.4-83.9,76.8c-1,21.6,6.7,41.5,19.9,56.6l50,76.4c2.6,3.9,7.2,4,10.2,0.1l58.3-73.8
		c13.1-13.6,21.4-31.8,22.3-52.2C407.9,66.8,373.6,29.2,329.2,27.2z M370.9,109.6c-1.1,25-22.3,44.4-47.3,43.3
		c-25-1.1-44.4-22.3-43.3-47.3c1.1-25,22.3-44.4,47.3-43.3C352.7,63.4,372.1,84.6,370.9,109.6z"/>
	<path class="st4" d="M326.3,92.9c8.1,0.4,14.4,7.2,14.1,15.4c-0.4,8.1-7.2,14.4-15.4,14.1c-8.1-0.4-14.4-7.2-14.1-15.4
		C311.3,98.8,318.1,92.5,326.3,92.9"/>
	<path class="st5" d="M436.5,583.3c-49.2,17.2-102.4,19.2-152.7,5.5c3.3-22.8,19.1-41.8,40.8-49.4c21.8-7.6,45.9-2.4,62.6,13.5
		c4.5,4.2,10.9,5.9,16.9,4.3c6-1.5,10.8-6,12.7-11.9c6.3-24,26.3-42,50.9-45.7c24.6-3.7,49,7.6,62.1,28.7
		C502.7,552.7,471,571.4,436.5,583.3"/>
	<path class="st6" d="M413.7,268.9c1.9,2,4,3.8,6.2,5.3l-62.8,42.9c-37,8.5-66.4,36.7-76.5,73.3c-9.7,35.6-23.2,60.4-37.1,75.1
		c-22.6,24.7-27.5,61.2-7,77.7c7.2,5.9,8.2,4.7,12-2.1c17-33.6,44.1-43.3,79.1-39.6c21.6,1.9,23.1-18.1,36.5-22.7
		c23.7-8.1,50.2-6.9,73.7,4.6c29.8,10.9,59.3,7.2,88.4-11.3c4.3-2.7,7.6-5.6-1-12.6C497.1,437,484,405.6,484.2,371
		c-13.2-38.3-26.9-68.4-41-90.3c2.4-0.1,4.9-0.5,7.3-1.1c13.3-3.4,23.6-13.8,27-27.1c-10.4-7.3-23.4-9.7-35.7-6.5
		C429.4,249.1,419.2,257.5,413.7,268.9"/>
	<path class="st7" d="M358.7,456.9c-1.7,22.1-46,44.1-59.2,24.4c-2.6-3.9-3-8.8-1-13.1c3.8-7.6,5.1-16.1,3.8-25.2
		c-3.4-15.1-20.4,3.5-49.1,16c10.3-12.5,23.4-31.4,39.2-56.7c0.9,0.2,1.8,0.4,2.7,0.8c1.5-22.9,15.1-44.2,36.8-54.7
		c57.6,14.4,91,31.3,100.3,50.8c-1.8,1-3.5,2.3-5,4l-2.8,3.3c-0.3,0.3-0.5,0.6-0.8,1c-2.2,3-4.3,6-6.4,9c-0.2,0.3-0.4,0.5-0.5,0.8
		l-4.2,6.7l-6.1,9.5l-6.1,8.8c-0.1,0.1-0.1,0.2-0.2,0.3l-5.4,8.1l-5.3,7.5C379.5,455.2,368.9,454.8,358.7,456.9"/>
	<path class="st8" d="M381,415.3c14.4-8.4,19.6-16.8,15.7-25.3c-9.1-25.9-36.3-40.6-62.9-34.1c-26.6,6.5-43.9,32.2-40,59.3
		c8.5-16.2,25.3-26.3,43.6-26.3C355.7,388.9,372.5,399.1,381,415.3"/>
	<path class="st9" d="M268.5,425.3c-7.7,17.4-16,30.8-25,40.3c25.1-16,45.4-38.4,58.7-65c12.5-26.9,29.8-41,52-42.5
		c-3.2-23.2-7.3-35.3-12.2-36.3c-29.2,9.8-52.9,35.3-62.1,65.3C274.7,405.2,271.9,418.2,268.5,425.3"/>
	<path class="st10" d="M511.1,255.8c-3.4,41.2-4.8,61.9-4.1,62c9.4,0.5,17.5-1,22.8-6.9c0,0,34.7-38.7,104-116
		c-12.3,0.4-22.6-9.3-23-21.6C610.8,173.3,577.5,200.8,511.1,255.8"/>
	<path class="st11" d="M539.7,293l74.1-81.7c-18.3,15.3-32.2,24.1-41.5,26.6c-12.3,3.7-20.2,7.1-23.7,10.2
		c-2.9,2.2-6.7,2.7-10.1,1.4c-3.4-1.3-5.8-4.3-6.5-7.8l-4.7,3.1c-3.8,9-6.8,16.6-9,22.8C527.7,273.8,535.2,282.6,539.7,293"/>
	<path class="st12" d="M513.7,287.2c2.7,12.2,4.6,20.9,5.7,26.1c1.1-0.6,2.4-1.5,4-2.8c3.7-3.4,9.2-9.2,16.4-17.5
		c4.7-6.3,4.2-15.1-1.3-20.7c-2.6-4.2-3.8-7.9-3.5-11.1c0.4-6.4-1.5-12.7-5.4-17.8c-1.7,1.3-2.5,1.9-2.5,1.9
		C513.7,270.4,509.2,284.4,513.7,287.2"/>
	<path class="st11" d="M504.6,343.9c-55.9,14.9-86.5,14.3-91.8-1.9c0.3-15.6,2.1-27.2,5.3-34.9c-6-20.2-1.7-33.6,14.6-41.5
		c7.9-3.8,16.5-8.1,32.1-8.1c33,10.9,49.6,16.4,49.6,16.4c-0.7,6,3,7.5,3,7.5C530.9,299.3,515.1,322.8,504.6,343.9"/>
	<path class="st12" d="M450.2,292.3c-8.6,4.7-13,14.5-10.7,24c2.2,9.5,10.6,16.3,20.3,16.7c9.8,0.3,18.5-5.9,21.4-15.2
		c-5.3-1-9.9-4.3-12.6-9c-2.7-4.7-3.2-10.3-1.4-15.4c-1.1-3.7-4.3-6.3-8.2-6.5C455.3,286.7,451.7,288.8,450.2,292.3"/>
	<path class="st12" d="M610.8,173.3c-2.2,6.4-0.4,13.6,4.5,18.2c5,4.7,12.2,6,18.5,3.4c1.6-6.4-0.4-13.1-5.2-17.6
		C623.9,172.8,617,171.3,610.8,173.3"/>
	<path class="st13" d="M624.2,163.8c-10.7,25-9.7,36.3,3,34c4.5-3.6,8.4-7.3,11.9-10.9c10.9-1.1,19.9-9,22.4-19.7
		c-17.5-8-26.2-12.1-26.2-12.1C623.9,153.6,620.1,156.5,624.2,163.8"/>
	<path class="st14" d="M615.5,187c-1.1,4,1.4,8.2,5.5,9c6.7-2.2,9.1-8.5,7.3-19l-0.9-6.4l3.7,2.7c1.1,0.7,2.2,1.1,3.1,1.1l2.9,3.7
		c3.1,4,9,4.7,12.9,1.5c4-3.1,4.7-9,1.5-12.9l-7.6-9.6c-3.1-4-9-4.7-12.9-1.5c-0.9,0.7-1.7,1.6-2.2,2.5c-1.8-1.1-4-1.2-5.9-0.4
		c-2.2,0.9-3.7,3-4,5.4L615.5,187z"/>
	<path class="st15" d="M628.2,170.1l-1.4-3.3l4.3,1.6c1.2,0.4,2.4,0.5,3.3,0.2l3.8,2.8c4.1,3,9.9,2.1,12.9-2c3-4.1,2.1-9.9-2-12.9
		l-9.9-7.2c-4.1-3-9.9-2.1-12.9,2v0c-0.7,0.9-1.2,2-1.4,3c-2-0.5-4.2-0.1-5.8,1.2c-1.9,1.5-2.8,3.9-2.4,6.2l0.5,3.5
		C620.9,166.6,624.7,168.2,628.2,170.1"/>
	<path class="st16" d="M632.7,138L632.7,138c5.4-4.3,13.3-3.3,17.6,2.1l10.3,13c4.3,5.4,3.3,13.3-2.1,17.6l0,0
		c-5.4,4.3-13.3,3.3-17.6-2.1l-10.3-13C626.4,150.2,627.3,142.3,632.7,138"/>
	<path class="st17" d="M611.5,180.7c-1.5,5.5,1.9,11.2,7.5,12.3c9.1-3,12.4-11.6,9.9-25.8l-1.2-8.7l5,3.6c6,4.2,12.4-0.9,6.3-8.4
		l-8.4-11.6c-2.6-2-6-2.4-9-1.2c-3,1.3-5.1,4.1-5.4,7.3L611.5,180.7z"/>
	<path class="st18" d="M401.9,489.9C401.9,489.9,401.9,489.9,401.9,489.9c2.3,1.3,3.9,3.6,4.6,6.4c0.8,2.8,0.7,6-0.5,8.9
		c-1.2,3-2.4,6-3.6,9c-1.2,3-2.4,6-3.6,9c-1.1,2.9-3.3,4.9-5.8,5.9c-2.5,0.9-5.5,0.7-8.2-0.8c0,0,0,0,0,0c-2.7-1.5-4.6-4-5.5-6.9
		c-0.9-2.8-0.7-6,0.7-8.7c1.4-2.9,2.8-5.8,4.2-8.6c1.4-2.9,2.8-5.8,4.3-8.6c1.4-2.8,3.6-4.8,6-5.7
		C397,488.6,399.6,488.7,401.9,489.9"/>
	<path class="st1" d="M406.2,489.1C406.2,489.1,406.2,489.1,406.2,489.1c2.3,1.3,3.9,3.6,4.6,6.4c0.8,2.8,0.7,6-0.5,8.9
		c-1.2,3-2.4,6-3.6,9c-1.2,3-2.4,6-3.6,9c-1.1,2.9-3.3,4.9-5.8,5.9c-2.5,0.9-5.5,0.7-8.2-0.8c0,0,0,0,0,0c-2.7-1.5-4.6-4-5.5-6.9
		c-0.9-2.8-0.7-6,0.7-8.7c1.4-2.9,2.8-5.8,4.2-8.6c1.4-2.9,2.8-5.8,4.3-8.6c1.4-2.8,3.6-4.8,6-5.7
		C401.3,487.8,403.9,487.8,406.2,489.1"/>
	<path class="st18" d="M337.9,518.7C337.9,518.7,337.9,518.7,337.9,518.7c2.7,0,5.2,1.3,7.3,3.3c2,2.1,3.6,4.9,4,8.1
		c0.5,3.3,0.9,6.5,1.4,9.7c0.5,3.2,0.9,6.5,1.3,9.7c0.2,1.4,0.1,2.8-0.2,4c0.5,0.1,0.9,0.4,1.2,0.7l-3.5,3.5
		c-0.2,0.2-0.3,0.3-0.5,0.5l0,0c-1.8,1.6-4.2,2.6-6.9,2.6c0,0,0,0,0,0c-3.1,0-6.1-1.3-8.3-3.3c-2.2-2.1-3.6-4.9-3.8-8.1
		c-0.2-3.2-0.4-6.5-0.6-9.7c-0.2-3.2-0.4-6.5-0.6-9.7c-0.2-3.1,0.8-6,2.4-8.1c0.2-0.2,0.4-0.5,0.6-0.7h0l0,0
		c0.1-0.1,0.2-0.2,0.3-0.3c2.3-2.3,3.5-3.5,3.6-3.6c0.4,0.4,0.6,0.8,0.7,1.3C336.9,518.7,337.4,518.7,337.9,518.7"/>
	<path class="st1" d="M341.6,514.9C341.6,514.9,341.6,514.9,341.6,514.9c2.7,0,5.2,1.3,7.3,3.3c2,2.1,3.6,4.9,4,8.1
		c0.5,3.3,0.9,6.5,1.4,9.7c0.5,3.2,0.9,6.5,1.3,9.7c0.4,3.1-0.4,6-2.2,8.1c-1.8,2.1-4.5,3.3-7.6,3.3c0,0,0,0,0,0
		c-3.1,0-6.1-1.3-8.3-3.3c-2.2-2.1-3.6-4.9-3.8-8.1c-0.2-3.2-0.4-6.5-0.6-9.7c-0.2-3.2-0.4-6.5-0.6-9.7c-0.2-3.1,0.8-6,2.4-8.1
		C336.6,516.2,338.9,514.9,341.6,514.9"/>
	<path class="st1" d="M462.3,260.8c35,9.1,52.5,13.6,52.5,13.6c0.5,12.1-6.8,23.3-18.1,27.6c-11.3,4.4-24.2,1.1-32-8.3
		C457,284.4,456,271.2,462.3,260.8"/>
	<path class="st19" d="M469,263.6c27.6,7.1,41.4,10.7,41.4,10.7c0.4,9.6-5.3,18.3-14.3,21.8c-8.9,3.5-19.1,0.8-25.2-6.5
		C464.8,282.3,464.1,271.8,469,263.6"/>
	<path class="st20" d="M488.7,363.7c-5,5.2-5.3,7.2-4,15.9c3.3,18.2,5.3,38.5,6,61.1c0.5,16.6-8.2,26.2-22.4,34
		c-17.6,9.6-37.6,19.5-59.8,29.3c-3.2-0.5-6.1-2.3-7.9-4.9c-1.8-2.7-2.4-6-1.6-9.1c0,0,7.6-8.7,22.3-25.7c10.2-12,18.2-17.4,28-22.3
		c2.5-1.3,1.6-2.1-1.5-6.5c-3.3-4.8-6.5-13.9-9.1-25.3c-1.3-4.9-2.3-5-3.5-1.7c-9.9,22.1-43.6,65.5-83.5,116
		c-6.1,1.9-12.8-0.4-16.5-5.6c3.5-30.2,11.7-52.4,22.4-68.2c4.3-6.3,11.5-19.5,14.9-42c3.3-25.5,14.5-47.2,33.1-65.6
		c3.3-3.3,5.6-5.4,8.3-4c6.1,3.3,13.4,3.9,20,1.6c7.5-2.7,13.3-8.8,15.5-16.5c0.6-2.2,1.6-3.5,3-3.8c17.1-3.9,34.9-3.3,51.6,1.8
		c2.7,0.9,3.6,3.3,2.6,6c-2.8,6.7-3.7,11.1-2.6,13.5c0.9,2.2,0.7,3-0.5,4.9C500,351.7,493.8,358.8,488.7,363.7"/>
	<path class="st8" d="M453.8,318.4c1.2,5.8,4.3,7.7,9.3,5.6c4.2-16.5,1.5-39.6-8.3-69.3c-3.1-0.9-6.5-0.1-8.8,2.1
		C454.3,274.7,456.9,295.2,453.8,318.4"/>
	<path class="st8" d="M513.1,277.4c3.7,1.6,6.6,4.8,8,8.6c-2.2,10.6-9.9,27.4-23,50.2c-3.7,1.9-6.4,0.5-8-4.2
		C503.7,308.5,511.4,290.3,513.1,277.4"/>
	<path class="st8" d="M455.6,339c-5.5,28.8-8.3,43.2-8.3,43.2c10,2.7,20.7-0.4,27.6-8.1c6.2-10.8,11.4-22.3,15.3-34.2
		C478.7,338,467.1,337.7,455.6,339"/>
	<path class="st14" d="M466.9,268.3c6.6-5.9,19.2-2.6,37.7,9.7c-3.9,6.2-10.3,10.4-17.6,11.3c-7.3,0.9-14.6-1.5-19.9-6.5
		C465.4,278.2,465.3,273,466.9,268.3"/>
	<path class="st15" d="M470.3,257c7.5-4.7,19.3,0.6,35.5,15.9c-4.8,5.5-11.9,8.5-19.2,8.2c-7.3-0.3-14.1-3.9-18.5-9.7
		C467.3,266.5,468,261.4,470.3,257"/>
	<path class="st21" d="M443.5,398.3c-2.9,0.2-3.5,3.6-1.7,11.2c3.1,12.1,6.1,20.4,9.2,24.7c3.4,5.4,3.2,8.3-0.4,10.1
		c-12.4,5.9-23.7,16.7-35.4,31.4c-3.7,4.4-7.2,8.3-10.4,11.9c-1.3,1.3-0.1,2.5,2.2,0.6c6.9-6.1,16-11.2,27.4-15.1
		c25.9-8,35.9-20.4,30.2-37.3c-1.7-6.3-2.1-11.4-1.1-15.1c1.3-5.8-0.3-11.9-4.2-16.3C455.3,399.9,449.4,397.6,443.5,398.3"/>
	<path class="st21" d="M341.9,494.2c6.2-17.5,11.3-31.6,19.3-42.3c7.3-9.8,12-25.7,15.7-42c2-8.7,3.6-15.8,4.8-21.2
		c35.4-2.5,53.2-3.8,53.2-3.8c-6.2,18.3-20.1,33-37.9,40.3c-8.9,4.7-15.2,13.4-18.9,26.2c-6.5,20.3-17.9,35.6-34.1,45.8
		C341.9,498.6,340.9,497.3,341.9,494.2"/>
	<path class="st14" d="M359.6,382.8c16.4-14.1,25.3-13.1,26.6,2.8c-2.1,6-8.1,9.9-14.4,9.2C365.4,394.1,360.4,389.1,359.6,382.8"/>
	<path class="st22" d="M385.1,320.8l43.6,34.7c-0.2-0.9-0.4-1.8-0.5-2.8c0,0,13.2-7.6,39.7-22.9c-10,28.7-15.4,43.9-16,45.8
		c0,0.1,0,0.1-0.1,0.2l0,0h0c-0.2,0.5-0.5,0.9-1,1.3l-40.6,29.7c-1.4,1-3.7,1-5,0l-71.2-56.7c-0.9-0.7-1.1-1.7-0.8-2.6l0,0
		c0,0,0-0.1,0.1-0.1c0.6-1.6,5.9-16.7,15.8-45.2c25.5,10.8,38.2,16.1,38.2,16.1C386.5,319.2,385.8,320,385.1,320.8"/>
	<path class="st23" d="M395.7,270.6l71.2,56.7c1.3,1.1,1.3,2.8-0.2,3.9l-40.6,29.7c-1.4,1-3.7,1-5,0l-71.2-56.7
		c-1.3-1.1-1.3-2.8,0.2-3.9l40.6-29.7C392.1,269.5,394.4,269.6,395.7,270.6"/>
	<path class="st24" d="M372.5,322.2c2.4,1.9,3.6,2.8,3.6,2.8s2.2,1.7,6.5,5.2c8-3.2,16.8-3.4,25-0.7c7.5,2.8,16,1.9,22.7-2.5
		c6.7-4.4,11-11.8,11.4-19.8C395.5,317.2,372.5,322.2,372.5,322.2"/>
	<path class="st1" d="M381.7,388.7c8.1,6.5,12.2,9.7,12.2,9.7s5.4-15.5,16.1-46.6c0,0,0.6-2-1.6-3.7c-2-1.6-4-5-10.5-5.9
		C387,373.2,381.7,388.7,381.7,388.7"/>
	<path class="st25" d="M443.7,308.2c7.8,6.2,11.6,9.3,11.6,9.3s-15.1,11.4-45.4,34.3c0,0-4-3.2-12.1-9.6
		C428.4,319.6,443.7,308.2,443.7,308.2"/>
	<path class="st23" d="M353,331c8.8,20.5,9.5,32.5,2.2,36c0,0-2.2-1.7-6.6-5.2C342.6,351.8,344.4,338.9,353,331 M379.3,327.6
		c-7.9,16.3-9.3,35.1-3.8,52.4c8.3-7,10.4-17,6.4-30c-2.3-6.4-2.1-13.5,0.6-19.8C380.4,328.5,379.3,327.6,379.3,327.6z"/>
	<path class="st6" d="M427.8,255.9c25.4-10.8,41.4-6.7,48.1,12.3c-7.1,7.4-17.7,10.4-27.6,7.8C438.4,273.4,430.6,265.8,427.8,255.9"
		/>
	<path class="st17" d="M483.8,215.9c-14.5,6-19.7,17.3-15.7,33.9c0.9,3.5,2.3,8.2,4.2,14c3.9,11.3,14.5,19.3,26.7,20.4
		c12.2,1.1,24.9-4.2,29.7-14.9c4.8-10.4,2.4-23.8-5.8-32.7c-3.8-4.3-5.6-9.1-6-14.1c-0.5-3.8-1.2-6.8-2.2-8.8
		C506,199.8,495.7,200.5,483.8,215.9"/>
	<path class="st26" d="M484.8,217.8c-13.5,5.6-18.4,16.1-14.6,31.7c0.9,3.3,2.2,7.6,3.9,13c3.3,9.3,11.4,16.3,21.2,18.5
		c-5.8-6.7-9.4-15.4-9.4-25c0-17.9,12.3-32.8,29-36.9c-0.3-1.3-0.7-2.5-1.2-3.4C505.6,202.7,496,203.4,484.8,217.8"/>
	<path class="st15" d="M484.8,217.8c-13.5,5.6-18.4,16.1-14.6,31.7c0.9,3.3,2.2,7.6,3.9,13c1,2.9,2.5,5.5,4.3,7.8
		c-2.5-17.2,2.9-35.2,16.1-48.5c4.7-4.7,9.9-8.3,15.5-11C502.7,203.2,494.3,205.5,484.8,217.8"/>
	<path class="st27" d="M456.4,243.2c4.8-10.6,11.1-16.1,18.8-16.5c-1.2,1.1-1.5,2.7-0.3,4.5c2,3.4,1.5,7.8-1.4,10.5
		c-2.8,2.8-3.2,5.9-1.8,9.5c1.5,4.1,1.1,5.3-0.8,3.5c-3.4-3.2-6.2-4.3-8.5-3.7c-2.4,0.6-3.8-0.4-4.3-2.7c-0.1-0.8-0.4-1.3-0.8-1.6
		C456,245.6,455.8,244.4,456.4,243.2"/>
	<path class="st27" d="M496.6,209.7c10-7.1,16.4-8.3,19.4-3.5c1,2.1,0.9,4.7-0.7,7.8c-0.4,0.9-0.8,1-1.1,0.3c-0.9-2.2-1.8-3-2.8-2.3
		c-1.5,1-2.7,0.7-3.6-0.8c-1.1-2.3-2.8-2.4-4.5-0.5c-0.9,1-2.3,1.5-3.6,1.3C498.4,211.7,497.3,210.9,496.6,209.7"/>
	<path class="st28" d="M474.4,181.3c-6,13.6-7.9,30.3-5.7,50c-3.1,1.8-6.3,5.5-9.4,11.3c-1.3,2.6-2.9,2.5-5.1-0.5
		C437.7,218.8,444.4,198.5,474.4,181.3"/>
	<path class="st1" d="M513.2,198.4c-15.3,1.2-30.5,11.7-45.4,31.5c-8.1-11.5-12.1-21.8-8.2-30.9c8.3-19.7,24-25.3,43-17.2
		C506.9,183.8,510.2,188.8,513.2,198.4"/>
	<path class="st29" d="M498.1,240.9c1.1-0.5,2.5,0,2.9,1.2c0.5,1.1,0,2.5-1.2,2.9c-1.1,0.5-2.5,0-2.9-1.2
		C496.4,242.7,496.9,241.4,498.1,240.9"/>
	<path class="st29" d="M516.4,233.1c1.1-0.5,2.5,0,3,1.2c0.5,1.1,0,2.5-1.2,3c-1.1,0.5-2.5,0-3-1.2
		C514.7,235,515.2,233.6,516.4,233.1"/>
	<rect x="462.2" y="247.9" transform="matrix(0.9521 -0.3057 0.3057 0.9521 -53.5224 156.3268)" width="20.4" height="2.3"/>
	<path class="st17" d="M469.1,253c10.4,11,7.1,18.2-7.3,14.3c-3.5-0.8-6.4-3.4-6.9-7c-0.6-3.6,1.2-7.1,4.4-8.8
		C462.5,249.9,466.5,250.5,469.1,253"/>
	<path class="st30" d="M467.9,256.1c5.4,5.7,3.7,9.4-3.8,7.5c-1.8-0.4-3.3-1.8-3.6-3.6c-0.3-1.9,0.6-3.7,2.3-4.6
		C464.6,254.5,466.6,254.8,467.9,256.1"/>
	<path class="st27" d="M486.6,228.3c0,0.9,0.7,1,1.2,0.1c1.3-2.3,3.5-3.9,6-4.4c0.8-0.2,1.3-0.8,1.3-1.6c-0.1-0.8-0.7-1.4-1.5-1.3
		C489.7,221.3,486.7,224.4,486.6,228.3"/>
	<path class="st27" d="M514,216.9c0.5,0.6,0.1,1.1-0.7,0.8c-2.1-0.7-4.5-0.5-6.4,0.6c-0.6,0.4-1.3,0.2-1.7-0.3
		c-0.4-0.5-0.3-1.3,0.2-1.7C507.9,214.2,511.7,214.5,514,216.9"/>
	<path class="st30" d="M521.2,245.1c-11.9-12.9-15.8-10-8.6,3.8c-1.1-0.3-2.2,0.2-2.8,1.2c-0.6,1-0.5,2.2,0.3,3c0.8,0.8,2,1.1,3,0.6
		c1.3-1.1,2.5-1.1,3.6,0C523.2,253.7,525.6,247,521.2,245.1"/>
	<path d="M498.9,231.9c-2.7-1.1-5.9-1.2-8.8,0c-2.9,1.2-5,3.6-6.1,6.3c-1.1,2.8-1.1,6,0.2,9c1.3,3,3.6,5.2,6.4,6.3
		c2.7,1.1,5.9,1.2,8.8,0c2.9-1.2,5-3.6,6.1-6.3c1.1-2.8,1.1-6-0.2-9C504,235.2,501.6,233,498.9,231.9 M522.5,222.3
		c-2.2-1.1-4.8-1.4-7-0.4c-2.2,1-3.8,2.9-4.5,5.3c-0.7,2.5-0.6,5.4,0.6,8.2c1.2,2.8,3.2,4.9,5.5,6.1c2.2,1.1,4.8,1.4,7,0.4
		c2.2-1,3.8-2.9,4.5-5.3c0.7-2.5,0.6-5.4-0.6-8.2C526.8,225.6,524.8,223.5,522.5,222.3z M489.2,229.8c3.5-1.5,7.3-1.4,10.6,0
		c2.7,1.1,5.2,3.2,6.8,5.9c0.3-0.2,0.6-0.3,0.9-0.5c0.4-0.2,0.9-0.4,1.3-0.6c-0.8-2.7-0.8-5.5,0-7.9c0.9-3.1,2.9-5.6,5.8-6.8
		c2.9-1.2,6.1-1,9,0.5c2.8,1.4,5.2,3.9,6.6,7.3c1.4,3.3,1.6,6.8,0.7,9.8c-0.9,3.1-2.9,5.6-5.8,6.8c-2.9,1.2-6.1,1-9-0.5
		c-2.7-1.4-5.1-3.8-6.5-6.9c-0.4,0.2-0.7,0.3-1.1,0.5c-0.3,0.2-0.6,0.3-0.9,0.5c1.4,3.4,1.3,7.1,0,10.3c-1.3,3.3-3.8,6.1-7.3,7.6
		c-3.5,1.5-7.3,1.4-10.6,0c-3.3-1.4-6.1-4-7.6-7.5c-1.5-3.6-1.5-7.4-0.2-10.7C483.2,234.1,485.7,231.3,489.2,229.8z"/>
	<path class="st31" d="M523.5,254.8c0.3-0.8,0.9-0.7,1.4,0.4c1,2.7,0.5,5.7-1.4,7.9c-1.8,2.2-4.7,3.2-7.6,2.7
		c-2.8-0.5-5.1-2.5-6.1-5.2c-0.5-1.1-0.2-1.5,0.9-1.1C515.6,261.4,521.9,259,523.5,254.8"/>
	<path class="st32" d="M483.7,213.3c-4.6,4.1-9.3,9.2-13.9,15.3c-7.1-10-10.6-19.1-7.2-27c2.3-5.5,5.4-9.8,8.9-12.8
		C472.2,198.3,476.6,207.1,483.7,213.3"/>
	<path class="st28" d="M493.2,209.4c-0.8,2.1-0.9,3.8-0.5,5c8.5-8.5,17.9-11.1,22.5-7.6c0.6,0.5,1.4,0.4,2.3,0.1
		c3.3-1.2,6.1-2.5,8.6-3.9c2.5-2,2.4-3.3-0.3-4.1C512.2,196.8,501.3,200.3,493.2,209.4"/>
	<path class="st1" d="M525.6,200.8c0.9,0.1,1.5,0.4,1.7,0.8l0.2-0.1l0.1-0.2c0.1-0.2,0.2-0.4,0.4-0.6l0,0c-0.2-0.5-0.4-0.9-0.5-1.4
		c-0.5-0.2-1-0.4-1.7-0.5c-23.8-4.4-44.9,5.9-56.2,28.7c-0.4-0.1-1.2,0.4-2.4,1.2c0,0,0.3,0.8,1,2.3c0,0,0,0,0,0l0,0l0,0
		c0.2,0.3,0.8,0.2,1.9-0.4c4.9-2.9,9.8-5.7,14.5-8.5c3.4-2,5.3-4.2,6.6-6C500,203.5,511.4,198.4,525.6,200.8"/>
	<path class="st33" d="M525.2,200c2.2,0.4,2.4,1.4,0.6,3.1c4.1-2.1,3.8-4.2-0.4-5.1c-24.7-5-46.5,5.4-57.7,29.1
		c-1,2-0.5,2.4,1.5,1.3c5-2.8,9.9-5.5,14.7-8.2c3.4-1.9,5.4-4.1,6.7-5.8C499.4,202.1,510.9,197.2,525.2,200"/>
	<path class="st11" d="M486.9,211.8h-1.5c-1.6,0-3.1-0.1-4.7-0.3c-3.3,3.2-6.2,7.3-8.4,12c-0.7,1.4-0.4,1.7,1.1,0.9
		c3.6-2,7.1-3.9,10.5-5.8c2.4-1.4,3.9-2.9,4.8-4.1c0.7-1,1.5-2,2.3-2.9C489.6,211.7,488.3,211.8,486.9,211.8"/>
	<path class="st10" d="M356.5,380.3c2.4,2.8,5.9,4.4,9.6,4.3c3.7-0.1,7.2-1.7,9.5-4.6c0,0,1.4-17,3.7-51c0.3-3.5,1.7-5.5,4.6-6
		c0,0,19.1-4.6,57.3-13.8c9.1-2.2,15.6-7.8,18.9-16c4.1-10.3,1.5-22-6.6-29.5c-8.1-7.5-20.3-9.6-29.9-4.3
		c-21.5,11.7-41.7,23.7-60.8,36.2c-9.1,5.6-13.4,13-12.1,24.2C354.5,360.1,356.5,380.3,356.5,380.3"/>
	<path class="st28" d="M365.4,333.8c1.4,2.6,2.6,5.5,3.6,8.9c1.3,5,5.5,9.6,6.2-10.7l0.3-4.4c0.3-4.5,3.2-7.4,8-8.6l7.9-2
		c4.9-3,10.4-5.3,16.2-6.8c2.8-0.7,5.6-1.2,8.5-1.5c2.7-0.5,5.4-0.8,8.1-0.9c0.7-0.2,1.4-0.4,2.1-0.6c0.8-0.2,1.6-0.4,2.5-0.6
		c1.4-0.5,2.9-0.9,4.3-1.3c0.7-0.2,1.4-0.4,2-0.6c0.7-0.2,1.5-0.5,2.2-0.7c0.5-0.2,1-0.3,1.5-0.5c2.5-1.6,5.1-2.9,7.8-4.1
		c1.9-1.5,3.8-2.9,5.8-4.1c4.6-6.8,5.4-15.5,2.3-23c-3.8,11.2-14.5,18.6-26.3,18.1c-18.7-1.5-32.7,3.6-42.1,15.5
		c-4.2,5.4-9,7.2-12.7,8.4C365.3,317.2,361.1,326,365.4,333.8"/>
	<path class="st12" d="M443.5,298.2c1.6-4.4,6.2-6.9,10.8-5.9c-2.8,5.9-7.8,10.5-13.9,12.6c-15,3.8-33.9,8.5-56.8,14.1
		c6.7-2.9,11.4-6.2,14.1-9.6c7.6-9.7,21-12.8,32-7.3c2.3,1.5,5.2,1.9,7.8,1.1C440.1,302.5,442.3,300.7,443.5,298.2"/>
	<path class="st34" d="M547.4,395.2c1.7,0.5,3.3,1.2,4.6,2.2c1.3,1,2.4,2.1,3.1,3.4c0.8,1.3,1.3,2.8,1.5,4.4c0.2,1.6,0,3.3-0.4,5
		c-0.5,1.9-1.3,3.5-2.3,4.9c-1,1.4-2.2,2.5-3.6,3.3c-1.4,0.8-3,1.3-4.7,1.5c-1.7,0.2-3.5,0-5.4-0.5c-1.7-0.5-3.3-1.2-4.6-2.2
		c-1.3-1-2.4-2.1-3.1-3.5c-0.8-1.3-1.2-2.8-1.4-4.5c-0.2-1.6,0-3.3,0.4-5c0.5-1.8,1.3-3.4,2.3-4.8c1-1.4,2.2-2.4,3.6-3.2
		c1.4-0.8,2.9-1.3,4.7-1.4C543.7,394.5,545.5,394.7,547.4,395.2 M545.3,400.9c-2.2-0.6-3.9,1.1-5,5.2c-0.5,2-0.6,3.6-0.3,4.8
		c0.3,1.3,1.1,2,2.2,2.4c1.2,0.3,2.2,0.1,3-0.7c0.8-0.8,1.5-2.3,2.1-4.4C548.5,404,547.8,401.6,545.3,400.9z M568.6,431
		c1.8,0.5,3.3,1.2,4.6,2.2c1.3,1,2.4,2.1,3.1,3.4c0.8,1.3,1.3,2.8,1.5,4.4c0.2,1.6,0,3.3-0.4,5c-0.5,1.9-1.3,3.5-2.3,4.9
		c-1,1.4-2.2,2.5-3.6,3.3c-1.4,0.8-3,1.3-4.7,1.5c-1.7,0.2-3.5,0-5.4-0.5c-1.7-0.5-3.3-1.2-4.6-2.2c-1.3-1-2.3-2.1-3.1-3.5
		c-0.7-1.3-1.2-2.8-1.4-4.5c-0.2-1.6-0.1-3.3,0.4-5c0.5-1.9,1.3-3.5,2.3-4.8c1-1.4,2.2-2.4,3.6-3.2c1.4-0.8,3-1.3,4.7-1.4
		C564.9,430.3,566.7,430.5,568.6,431z M566.5,436.7c-2.2-0.6-3.9,1.1-5,5.2c-0.5,2-0.6,3.6-0.3,4.8c0.4,1.2,1.1,2,2.2,2.3
		c1.2,0.3,2.2,0.1,3-0.7c0.8-0.8,1.5-2.3,2.1-4.4C569.7,439.8,569,437.4,566.5,436.7z M536.7,447.3l-7.2-2l42.3-42.4l7.2,2
		L536.7,447.3z"/>
	<path class="st1" d="M348.3,271.8c-2.7,0-5.2,1.3-6.7,3.5c-1.5,2.2-1.8,5-0.9,7.5c0,0,16.7-9.6,50-28.9c-2.5-1.6-5.5-2-8.3-1.1
		c-2.8,0.9-5,2.9-6.1,5.6c-4-7.1-12.9-10-20.2-6.4C348.7,255.6,345.3,264.2,348.3,271.8"/>
	<path class="st1" d="M529.8,359.1c-4,0-7.7,2-10,5.3c-2.3,3.3-2.7,7.5-1.3,11.2c0,0,25-14.4,74.9-43.3c-3.7-2.4-8.2-3-12.4-1.7
		c-4.2,1.3-7.5,4.4-9.2,8.5c-6-10.7-19.3-14.9-30.3-9.7C530.4,334.7,525.3,347.7,529.8,359.1"/>
	<path class="st1" d="M209.5,506.5c2.5,0,4.5,2,4.5,4.5c0,2.5-2,4.5-4.5,4.5c-2.5,0-4.5-2-4.5-4.5
		C205,508.5,207.1,506.5,209.5,506.5"/>
	<path class="st1" d="M252.6,512.8c1.8,0,3.2,1.4,3.2,3.2c0,1.8-1.4,3.2-3.2,3.2s-3.2-1.4-3.2-3.2
		C249.4,514.2,250.8,512.8,252.6,512.8"/>
	<path class="st1" d="M322.3,462.3c1.4,0,2.4,1.1,2.4,2.4c0,1.4-1.1,2.4-2.4,2.4c-1.4,0-2.4-1.1-2.4-2.4
		C319.8,463.4,320.9,462.3,322.3,462.3"/>
	<path class="st1" d="M270.6,547.2c1.3,0,2.3,1,2.3,2.3s-1,2.3-2.3,2.3c-1.3,0-2.3-1-2.3-2.3S269.3,547.2,270.6,547.2"/>
	<path class="st1" d="M387.2,567.2c1,0,1.8,0.8,1.8,1.8c0,1-0.8,1.8-1.8,1.8c-1,0-1.8-0.8-1.8-1.8
		C385.5,568,386.3,567.2,387.2,567.2"/>
	<path class="st1" d="M584.2,407.1c1.8,0,3.2,1.4,3.2,3.2c0,1.8-1.4,3.2-3.2,3.2s-3.2-1.4-3.2-3.2
		C581,408.5,582.4,407.1,584.2,407.1"/>
	<path class="st1" d="M423.8,387.3c0.9,0,1.6,0.7,1.6,1.6c0,0.9-0.7,1.6-1.6,1.6c-0.9,0-1.6-0.7-1.6-1.6
		C422.2,388,422.9,387.3,423.8,387.3"/>
	<path class="st1" d="M302.9,375.8c0.8,0,1.5,0.7,1.5,1.5c0,0.8-0.7,1.5-1.5,1.5c-0.8,0-1.5-0.7-1.5-1.5
		C301.3,376.5,302,375.8,302.9,375.8"/>
	<path class="st1" d="M429.1,302.1c0.8,0,1.4,0.6,1.4,1.4c0,0.8-0.6,1.4-1.4,1.4s-1.4-0.6-1.4-1.4
		C427.7,302.8,428.4,302.1,429.1,302.1"/>
	<path class="st1" d="M492.5,339c0.8,0,1.4,0.6,1.4,1.4c0,0.8-0.6,1.4-1.4,1.4c-0.8,0-1.4-0.6-1.4-1.4
		C491.1,339.6,491.8,339,492.5,339"/>
	<path class="st1" d="M191.4,441.9c1.4,0,2.5,1.1,2.5,2.5c0,1.4-1.1,2.5-2.5,2.5c-1.4,0-2.5-1.1-2.5-2.5
		C188.8,443,190,441.9,191.4,441.9"/>
	<path class="st1" d="M519,514.9c1.7,0,3.1,1.4,3.1,3.1c0,1.7-1.4,3.1-3.1,3.1c-1.7,0-3.1-1.4-3.1-3.1
		C515.9,516.2,517.3,514.9,519,514.9"/>
	<path class="st1" d="M547.4,261.9c1.3,0,2.3,1,2.3,2.3c0,1.3-1,2.3-2.3,2.3s-2.3-1-2.3-2.3C545.1,262.9,546.1,261.9,547.4,261.9"/>
	<path class="st1" d="M398.4,214.9c1.7,0,3.1,1.4,3.1,3.1c0,1.7-1.4,3.1-3.1,3.1c-1.7,0-3.1-1.4-3.1-3.1
		C395.3,216.3,396.7,214.9,398.4,214.9"/>
	<path class="st1" d="M575.7,208.6c0.8,0,1.5,0.7,1.5,1.5c0,0.8-0.7,1.5-1.5,1.5c-0.8,0-1.5-0.7-1.5-1.5
		C574.1,209.3,574.8,208.6,575.7,208.6"/>
</g>
</svg>
