<?xml version="1.0" encoding="utf-8"?>
<!-- Generator: Adobe Illustrator 25.2.0, SVG Export Plug-In . SVG Version: 6.00 Build 0)  -->
<svg version="1.1" id="Layer_1" xmlns="http://www.w3.org/2000/svg" xmlns:xlink="http://www.w3.org/1999/xlink" x="0px" y="0px"
	 viewBox="0 0 800 625" style="enable-background:new 0 0 800 625;" xml:space="preserve">
<style type="text/css">
	.st0{opacity:5.000000e-02;fill-rule:evenodd;clip-rule:evenodd;fill:#F2F3FF;}
	.st1{fill-rule:evenodd;clip-rule:evenodd;fill:#D9DDFF;}
	.st2{fill-rule:evenodd;clip-rule:evenodd;fill:#C9CFFF;}
	.st3{fill-rule:evenodd;clip-rule:evenodd;fill:#AEB7FC;}
	.st4{fill-rule:evenodd;clip-rule:evenodd;fill:#8E9AF2;}
	.st5{fill-rule:evenodd;clip-rule:evenodd;fill:#152A94;}
	.st6{fill-rule:evenodd;clip-rule:evenodd;fill:#4F02BC;}
	.st7{fill-rule:evenodd;clip-rule:evenodd;fill:#00155C;}
	.st8{fill-rule:evenodd;clip-rule:evenodd;fill:#7886F0;}
	.st9{fill-rule:evenodd;clip-rule:evenodd;fill:#7703FC;}
	.st10{fill-rule:evenodd;clip-rule:evenodd;fill:#B8C0FF;}
	.st11{fill-rule:evenodd;clip-rule:evenodd;fill:#051B5C;}
	.st12{fill-rule:evenodd;clip-rule:evenodd;fill:#39038E;}
	.st13{fill-rule:evenodd;clip-rule:evenodd;fill:#6D7ADE;}
	.st14{fill-rule:evenodd;clip-rule:evenodd;fill:#270170;}
	.st15{fill-rule:evenodd;clip-rule:evenodd;fill:#5E80EE;}
	.st16{fill-rule:evenodd;clip-rule:evenodd;fill:#4354D1;}
	.st17{fill-rule:evenodd;clip-rule:evenodd;fill:#FFFFFF;}
	.st18{fill-rule:evenodd;clip-rule:evenodd;fill:#D2E1F5;}
	.st19{fill-rule:evenodd;clip-rule:evenodd;fill:#8FB4E3;}
	.st20{fill-rule:evenodd;clip-rule:evenodd;fill:#6088B8;}
	.st21{fill-rule:evenodd;clip-rule:evenodd;fill:#AAC9F7;}
	.st22{fill-rule:evenodd;clip-rule:evenodd;fill:#203C91;}
	.st23{fill-rule:evenodd;clip-rule:evenodd;fill:#72A1E8;}
	.st24{fill-rule:evenodd;clip-rule:evenodd;fill:#D2DFFA;}
	.st25{fill-rule:evenodd;clip-rule:evenodd;fill:#110F5C;}
	.st26{fill-rule:evenodd;clip-rule:evenodd;fill:#8331F7;}
	.st27{fill-rule:evenodd;clip-rule:evenodd;fill:#E36200;}
	.st28{fill-rule:evenodd;clip-rule:evenodd;fill:#BD2F00;}
	.st29{fill-rule:evenodd;clip-rule:evenodd;fill:#FF9619;}
	.st30{fill-rule:evenodd;clip-rule:evenodd;fill:#F5660C;}
	.st31{fill-rule:evenodd;clip-rule:evenodd;fill:#001B75;}
	.st32{fill-rule:evenodd;clip-rule:evenodd;fill:#02218A;}
	.st33{fill-rule:evenodd;clip-rule:evenodd;fill:#0B2EA1;}
	.st34{fill-rule:evenodd;clip-rule:evenodd;fill:#8B97ED;}
	.st35{fill-rule:evenodd;clip-rule:evenodd;fill:#4452BD;}
	.st36{fill:#FFFFFF;}
</style>
<g>
	<path class="st0" d="M607.5,213.1c144.1-27.6,217,98.1,115.6,241.8c-3.3,4.5-6.7,8.8-10.3,13.1c-11.2,2.9-22.1,7.3-32.6,13
		c-7.1,3.2-14,7-20.7,11.4c-3.3,0.8-6.6,1.7-9.8,2.7c-9.7,1.3-19.4,3.7-28.8,7.1c-2.9,0.6-5.9,1.4-8.8,2.2c-3.2,0.7-6.3,1.4-9.5,2.3
		c-8.1,0.5-16.2,1.6-24.2,3.5c-8.3,1.1-16.7,2.9-24.9,5.6l-4.9,0.7c-7.1,0.9-14.3,2.4-21.4,4.4c-5.3,0.4-10.5,1.1-15.8,2.2
		c-2.4,0.3-4.9,0.7-7.3,1.2c-9.6,0.1-18.7,1.2-27.9,3.1c-4.7,0.4-9.3,1.1-14,2H286.3l5.2,1c-1.3-0.2-2.6-0.4-3.9-0.6
		c-5.2-1.3-10.5-2.3-15.9-3c-2.6-0.7-5.2-1.3-7.8-1.9c-3.8-1.1-7.7-2-11.6-2.8c-4.7-1.9-9.5-3.6-14.5-5c-2.4-0.9-4.9-1.8-7.3-2.5
		c-8.1-3.7-16.6-6.7-25.5-8.9c-1.1-0.4-2.2-0.8-3.3-1.1c-5.4-1.9-11-3.5-16.7-4.7c-1.4-0.6-2.9-1.2-4.4-1.7c-4.4-1.9-9-3.6-13.6-5.1
		c-1.2-0.4-2.4-0.8-3.5-1.2c-7-3.6-14.3-6.6-21.8-9c-0.4-0.2-0.8-0.4-1.2-0.6c-3.9-2-7.9-3.9-12.1-5.6c-1.5-1-3-2-4.5-3
		c-1.4-1-2.8-1.9-4.2-2.8c-3.3-2.7-6.8-5.3-10.4-7.8c-0.5-0.4-1-0.8-1.5-1.2c-1.5-1.5-3-3-4.5-4.4c-0.8-1.2-1.7-2.3-2.5-3.4
		c-2.3-3.9-4.8-7.8-7.4-11.5l-0.7-1.2c-5.5-9.7-12.1-18.9-19.9-27.2c-0.7-1.1-1.4-2.2-2.1-3.3c-5-12.7-12-24.9-20.8-36.1
		c-3.2-4.5-6.7-8.7-10.3-12.8c-1.6-5.7-3-11.5-4.3-17.4C-6.7,144.9,194.1-8.1,397.7,138.2C491.5,206.9,546.9,224.2,607.5,213.1"/>
	<path class="st1" d="M351.8,491c210.1-4.2,328.9-10.1,356.5-17.7c27.3-34.7,44.5-64.4,51.8-89.4c-50.5,29-100.7,21-150.5-24.2
		c-88.9-75.8-198.9-66.3-330.1,28.4c-45.3,29.8-102.3,35.2-152.4,14.4c-50-20.8-86.5-65-97.4-118.1c-0.3,22.7,1.6,42.8,5.5,60.2
		C98.1,490.7,203.6,539.5,351.8,491"/>
	<path class="st2" d="M94.2,470.4c-34.6-44-56.3-96.6-63-152.1c21.4,73.1,79.8,129.5,153.6,148.3c73.8,18.8,152.1-2.9,205.7-56.9
		c30.1-32.1,73.4-48.5,117.3-44.4c43.9,4.1,83.3,28.3,106.9,65.5c10.9,19.6,30.4,33,52.6,36.3c22.2,3.3,44.7-3.9,60.8-19.6
		c-11.8,17.5-25.7,33.5-41.4,47.6C379.4,538.7,181.9,530.4,94.2,470.4"/>
	<path class="st3" d="M71.5,437.5c22.8,38.3,54,70.9,91.1,95.5c88.9,22.7,249.4,21,481.6-5.1c24.2-15.5,46.1-34.3,65.2-55.8
		c-27.2,12.1-55.2,9.4-83.9-8.3c-69.4-48.8-161.2-51.3-233.2-6.5C294.1,527.1,160.4,518.9,71.5,437.5"/>
	<path class="st4" d="M614.9,545c-111.5,58.8-264,70.8-385.7,22.6l0,0c-17.2-6.7-33.7-14.7-49.6-24.1c-0.4-0.3-0.9-0.5-1.3-0.7h0
		c-16-9.5-31.3-20.4-45.6-32.5c80.3,25.3,166.2,27.8,247.8,7.1c96.1-23.4,173.7-23.4,232.8,0c15.1,5.4,29.8,5.9,44.1,1.3
		C644,528.6,629.7,537.3,614.9,545L614.9,545z"/>
	<path class="st5" d="M221.9,315.3l37.1,7.2c2.4,0.5,3.9,2.8,3.5,5.2l-7.4,38.3c-0.5,2.4-2.8,3.9-5.2,3.5l-37.1-7.2
		c-2.4-0.5-3.9-2.8-3.5-5.2l7.4-38.3C217.2,316.4,219.5,314.8,221.9,315.3"/>
	<path class="st6" d="M223.3,318l33.3,6.5c2.1,0.4,3.5,2.5,3.1,4.6l-6.7,34.4c-0.4,2.1-2.5,3.5-4.6,3.1l-6.6-1.3
		c-7.6-9-17.7-14.7-28.5-16.8l5.3-27.5C219.1,319,221.2,317.6,223.3,318"/>
	<polygon class="st7" points="219.5,370.3 238,371.8 232.5,398.1 214,396.6 	"/>
	<polygon class="st7" points="297.1,370.3 278.6,371.8 284.1,398.1 302.6,396.6 	"/>
	<path class="st8" d="M274.6,367.9l29.9,0.6c2.4,0.1,4.4,2.1,4.3,4.5l0,1.7c-0.1,2.4-2.1,4.4-4.5,4.3l-29.9-0.6
		c-2.4-0.1-4.4-2.1-4.3-4.5l0-1.7C270.2,369.8,272.2,367.8,274.6,367.9"/>
	<path class="st7" d="M302.3,410.4l0,10.7c0,7-5.7,12.8-12.7,13h0c-7,0.1-12.7-5.4-12.7-12.4l0-10.7c0-7,5.7-12.8,12.7-13h0
		C296.6,397.8,302.3,403.4,302.3,410.4"/>
	<path class="st7" d="M233.2,412.5l-2.1,10.5c-1.4,6.8-8.1,11.5-15,10.2l0,0c-6.9-1.2-11.4-7.8-10-14.7l2.1-10.5
		c1.4-6.8,8.1-11.5,15-10.2h0C230.1,399.1,234.6,405.7,233.2,412.5"/>
	<path class="st9" d="M223.6,382.5l5.6,1.2c9.2,1.9,15.1,11,13.2,20.2v0c-1.9,9.2-11,15.1-20.2,13.2l-5.6-1.2
		c-9.2-1.9-15.1-11-13.2-20.2v0C205.3,386.5,214.4,380.5,223.6,382.5"/>
	<path class="st8" d="M216.4,361.7l29.3,6.2c2.4,0.5,3.9,2.8,3.4,5.2l-0.3,1.6c-0.5,2.4-2.8,3.9-5.2,3.4l-29.3-6.2
		c-2.4-0.5-3.9-2.8-3.4-5.2l0.3-1.6C211.7,362.7,214,361.2,216.4,361.7"/>
	<path class="st9" d="M290.3,385c2,0,4.1-0.1,6.2-0.1c5.1-0.1,9.6,1.9,12.8,5.1c3.2,3.3,5,8,4.8,13l0,0c-0.2,5-2.5,9.5-6.1,12.4
		c-3.5,2.9-8.2,4.4-13.3,3.8c-2.1-0.2-4.1-0.5-6.2-0.7c-5.1-0.5-9.6-2.9-12.8-6c-3.2-3.1-5-7.2-4.8-11.5l0,0c0.2-4.3,2.6-8.2,6-11.1
		C280.5,387,285.2,385,290.3,385"/>
	<path class="st6" d="M228,415c-1.8,0.3-3.8,0.3-5.7-0.1l-4.9-1c-8.1-1.7-13.3-9.7-11.6-17.8c1.3-6.3,6.5-10.9,12.5-11.8
		c-0.6,2.5-1,5-1,7.7C217.3,401.3,221.4,409.5,228,415"/>
	<path class="st6" d="M308.1,411.6c-0.6,0.8-1.3,1.5-2.1,2.2c-3,2.5-7.2,3.8-11.6,3.3c-1.8-0.2-3.6-0.4-5.4-0.6
		c-4.4-0.5-8.4-2.5-11.2-5.3c-2.8-2.7-4.4-6.3-4.2-10c0.3-4.9,3.5-8.9,7.6-11.3C284.7,401.8,295.3,410.7,308.1,411.6"/>
	<path class="st10" d="M279.6,388.1c7,0,12.7,6.3,12.7,14c0,7.8-5.7,14-12.7,14c-7,0-12.7-6.3-12.7-14
		C267,394.4,272.6,388.1,279.6,388.1"/>
	<path class="st11" d="M279.6,393.8c4.2,0,7.6,3.7,7.6,8.4c0,4.6-3.4,8.4-7.6,8.4c-4.2,0-7.6-3.7-7.6-8.4
		C272.1,397.5,275.5,393.8,279.6,393.8"/>
	<path class="st6" d="M275.1,256.1c15.4,0,28,12.5,28,28s-12.5,28-28,28c-15.4,0-28-12.5-28-28S259.7,256.1,275.1,256.1"/>
	<path class="st12" d="M272.1,234.2c15.4,0,28,12.5,28,28c0,15.4-12.5,28-28,28c-15.4,0-28-12.5-28-28
		C244.1,246.7,256.6,234.2,272.1,234.2"/>
	<path class="st13" d="M306.4,202.6c3,1.1,5.5,3,6.9,6l17,38.6c2.4,5.4-0.1,11.8-5.5,14.1l0,0c-5.4,2.4-11.8-0.1-14.1-5.5l-17-38.6
		c-2.4-5.3,0-11.6,5.3-14.1c-1.1-1-1.7-2.3-1.7-3.8C296.5,199.1,299.5,200.2,306.4,202.6L306.4,202.6z"/>
	<path class="st14" d="M289.3,199.7L289.3,199.7c5.4-2.4,11.8,0.1,14.1,5.5l17,38.6c2.4,5.4-0.1,11.8-5.5,14.1
		c-5.4,2.4-11.8-0.1-14.1-5.5l-17-38.6C281.4,208.4,283.9,202,289.3,199.7"/>
	<path class="st10" d="M284,202.4c9.1,2.1,15,11.5,13.1,20.8c-1.9,9.4-10.8,15.2-19.9,13c-9.1-2.1-15-11.5-13.1-20.8
		C266,206.1,274.9,200.3,284,202.4"/>
	<path class="st12" d="M282.7,209c5.5,1.3,9.1,7,7.9,12.7c-1.1,5.7-6.6,9.2-12.1,7.9c-5.5-1.3-9.1-7-7.9-12.7
		C271.7,211.3,277.1,207.7,282.7,209"/>
	<path class="st15" d="M299.9,255.8c-6.6,10-9.9,15-9.9,15c-10.1-0.5-21.7,1.8-32.9,7.6c-11.7,6.1-19.6,4.3-23.6-5.6l-5-14.5
		l1.2-2.3c14.9-7.3,14.5-23.3,4.2-31.1c-4.1-3-8.3-8.1,2.9-11.4c30.8,3.6,46.2,5.5,46.2,5.5C292.5,230,298.1,242.2,299.9,255.8"/>
	<path class="st9" d="M296.9,246.3c-7.1,10.7-10.6,16.1-10.6,16.1c-10.8-0.5-23.3,1.9-35.2,8.2c-12.6,6.6-21,4.6-25.3-6l-6.8-17.8
		l2.7-0.2c16-7.8,15.5-25,4.5-33.3c-4.4-3.2-8.8-8.7,3.1-12.2c33,3.9,49.5,5.8,49.5,5.8C289.1,218.6,295.1,231.7,296.9,246.3"/>
	<path class="st6" d="M255.1,263.4c-1.4,0.6-2.7,1.2-4,1.9c-11.3,5.9-18.8,4.1-22.7-5.3l-4.8-13.9l1.1-2.2
		c14.3-7,13.9-22.4,4.1-29.8c-3.9-2.9-7.9-7.8,2.8-10.9l13.3,1.6c-3.4,6.7-5.3,14.4-5.3,22.4C239.6,241.4,245.5,254.2,255.1,263.4"
		/>
	<path class="st10" d="M220.2,205.7c11.2,2.6,18.4,14.1,16,25.6c-2.3,11.5-13.3,18.7-24.4,16c-11.2-2.6-18.4-14.1-16-25.6
		C198.1,210.2,209,203.1,220.2,205.7"/>
	<path class="st12" d="M218.5,213.9c6.8,1.6,11.2,8.6,9.8,15.5c-1.4,7-8.1,11.3-14.9,9.7c-6.8-1.6-11.2-8.6-9.8-15.5
		C205.1,216.6,211.7,212.3,218.5,213.9"/>
	<path class="st15" d="M254.2,195.9c13.7,1.4,24.8,6.3,24.8,11c0,4.6-11.1,7.3-24.8,5.8c-13.7-1.4-24.8-6.3-24.8-11
		C229.3,197.1,240.5,194.5,254.2,195.9"/>
	<path class="st14" d="M254.4,193.5c12.1,1.2,22,5.4,22,9.3c0,3.9-9.8,6.1-22,4.9c-12.1-1.2-22-5.4-22-9.3
		C232.4,194.5,242.3,192.3,254.4,193.5"/>
	<path class="st15" d="M264.1,200.1c0,1.7-4.3,2.7-9.7,2.2c-5.4-0.5-9.7-2.4-9.7-4.1c0-0.1,0-0.1,0-0.2l0.5-5.3
		c0.5,0.4,1.1,0.7,1.7,1l0.6,0.3c1.6,0.9,3.5,1.4,5.4,1.6c0.9,0.1,1.9,0.3,2.8,0.2l8.7-0.7l0,0.7L264.1,200.1z"/>
	<path class="st6" d="M264.5,194.8c0,1.7-4.3,2.7-9.7,2.2c-5.4-0.5-9.7-2.4-9.7-4.1c0-0.1,0-0.1,0-0.2l1.7-18.7
		c0-1.7,4.3-2.7,9.7-2.2c5.4,0.5,9.7,2.4,9.7,4.1v0c0,0,0,0,0,0.1l0,0l0,0h0c0,0,0,0.1,0,0.1C266.1,177.4,265.6,183.6,264.5,194.8"
		/>
	<path class="st14" d="M258.6,195.8c-1.1,0.1-2.3,0-3.6-0.1c-4.8-0.5-8.7-2.1-8.7-3.7c0-0.1,0-0.1,0-0.2l1.6-16.8
		c0-0.8,1-1.4,2.6-1.8C251.3,181.6,250.8,191.4,258.6,195.8"/>
	<path class="st16" d="M261.8,100c24.9,1.4,44,22.1,42.5,46.2c-1.4,24.1-22.8,42.6-47.8,41.2c-24.9-1.4-44-22.1-42.5-46.2
		C215.5,117,236.9,98.6,261.8,100"/>
	<path class="st6" d="M261.7,102.7c5.4,0.3,10.6,1.6,15.2,3.7c-17.6,7.8-29.8,25.4-29.8,45.8c0,12.4-0.1,27.7,12,32.5
		c-0.8,0-1.5,0-2.3-0.1c-23.4-1.3-41.2-20.7-39.9-43.3C218.3,118.7,238.3,101.4,261.7,102.7"/>
	<path class="st9" d="M267.6,104.5c21.7,1.2,38.3,19.3,37.1,40.3c-1.3,21-19.9,37.1-41.6,35.9c-21.7-1.2-38.3-19.3-37.1-40.3
		C227.3,119.3,245.9,103.3,267.6,104.5"/>
	<path class="st6" d="M267.4,107.7c2.6,0.1,5.2,0.6,7.6,1.2c-11.7,9.2-19.2,23.4-19.2,39.4c0,10.8-8.1,20.6,9.3,29.1
		c-0.6,0-1.3,0-1.9-0.1c-19.9-1.1-35.1-17.6-33.9-36.9C230.5,121.3,247.5,106.6,267.4,107.7"/>
	<path class="st14" d="M252.5,129l38.4,2.2c6.8,0.4,12.1,6.3,11.7,13.1l-0.2,2.8c-0.4,6.8-6.3,12.1-13.1,11.7l-38.4-2.2
		c-6.8-0.4-12.1-6.3-11.7-13.1l0.2-2.8C239.8,133.8,245.7,128.6,252.5,129"/>
	<path class="st17" d="M265.4,140.5c1.8,0.1,3.2,1.6,3.1,3.4c-0.1,1.8-1.6,3.2-3.4,3.1c-1.8-0.1-3.2-1.6-3.1-3.4
		C262,141.7,263.6,140.4,265.4,140.5"/>
	<path class="st17" d="M287.7,141.7c1.8,0.1,3.2,1.6,3.1,3.4c-0.1,1.8-1.6,3.2-3.4,3.1c-1.8-0.1-3.2-1.6-3.1-3.4
		C284.3,143,285.9,141.6,287.7,141.7"/>
	<path class="st18" d="M221.9,109.7c9.2,0.9,16.2,14,15.7,29.3c-0.5,15.1-8.1,26.2-17.2,26.2v0c-5,0-7.5,0-7.5,0c0-1,0.4-1.9,1-2.6
		c-6-4.7-10-15.1-9.6-26.8c0.4-11,4.6-20.2,10.3-24.1c-0.2-0.6-0.2-1.3,0-2c0,0,2.1,0,6.2,0l0,0
		C221.1,109.7,221.5,109.7,221.9,109.7"/>
	<path class="st19" d="M214.6,109.7c9.2,0.9,16.2,14,15.7,29.3c-0.5,15.3-8.4,27-17.6,26.1c-9.2-0.9-16.2-14-15.7-29.3
		C197.5,120.5,205.4,108.8,214.6,109.7"/>
	<path class="st6" d="M214.3,118.6c6.2,0.6,11,9.5,10.7,19.9c-0.4,10.4-5.7,18.3-12,17.7c-6.2-0.6-11-9.5-10.7-19.9
		C202.7,126,208,118,214.3,118.6"/>
	<path class="st17" d="M213.8,132.4c1.7,0.2,2.9,2.5,2.8,5.3c-0.1,2.8-1.5,4.9-3.2,4.7c-1.7-0.2-2.9-2.5-2.8-5.3
		C210.7,134.4,212.1,132.3,213.8,132.4"/>
	
		<rect x="243.2" y="53" transform="matrix(2.206650e-02 -0.9998 0.9998 2.206650e-02 197.2821 311.5157)" class="st20" width="29.3" height="3.9"/>
	<path class="st17" d="M217.4,106.3c20.3,13.1,44.9,15.2,65,5.6c11.2-26.4,0.3-40.6-21.7-45.6C237.4,60.9,213,76.4,217.4,106.3"/>
	<path class="st21" d="M232.8,107.6c19.9,13,43.7,13.3,63.3,3.6c1.4-30.3-10.3-42.5-30.7-45.1C246.3,63.7,227.3,76.8,232.8,107.6"/>
	<path class="st22" d="M258.4,27.5c4.7,0.1,8.4,4,8.3,8.7c-0.1,4.7-4,8.4-8.7,8.3c-4.7-0.1-8.4-4-8.3-8.7
		C249.8,31.1,253.7,27.4,258.4,27.5"/>
	<path class="st23" d="M236.9,107.5c14.3,10,31,11.8,46,6.8c-8-20.4-38-10.7-40.6-36.4C237.2,84.3,234.6,94,236.9,107.5"/>
	<path class="st17" d="M217.4,110.3c-0.3-0.3-0.6-0.7-0.5-1.1c0-2.5,0-3.8,0-3.8c1-0.8,2.5-0.5,3.5,0.5c0.7,0.8,0.9,1.9,0.5,2.7
		c32.2,5.9,59.5,8.6,71.9,6.2c3-0.6,5.2,0.2,6.6,0.9c11.8,5,18.5,9.9,21.1,14.1c0.4-0.1,0.9,0,1.3,0.2c0-0.4,0,0.8,0,3.7l0,0
		C322.2,148.4,264,150.3,217.4,110.3"/>
	<path class="st24" d="M217.4,106.4c-0.8-0.6-1.3-2.4,2.3-1.9c32.6,6.1,60.5,8.9,73,6.4c3-0.6,5.2,0.2,6.6,0.9
		C362.1,138.7,279.5,159.8,217.4,106.4"/>
	<path class="st23" d="M225.6,109.7c-0.6-0.5-1-1.9,1.8-1.5c9.5,1.8,18.5,3.2,26.6,4.1c21.9,2.3,7.1,14.3,22.4,21.7
		C262.4,130.6,242.4,122.2,225.6,109.7"/>
	<path class="st25" d="M315.8,495.9c-18.2-6.7-20.4,0.1-6.7,20.3C314.4,510.9,316.9,503.3,315.8,495.9"/>
	<path class="st26" d="M349,538.5c-30.3,8.9-57.5,10-81.7,3.4c-5.6-4.4-6.3-13.8-2.2-28.4c24.2-9.6,36.4-14.5,36.4-14.5
		c21.6,14.7,32.5,22.1,32.5,22.1C344.4,528,349.4,533.8,349,538.5"/>
	<path class="st6" d="M305.5,544.5c-12.3,0.5-23.9-0.7-34.8-3.8c-5-3.9-5.7-12.5-1.9-25.6l19.3-7.7
		C301.2,518,291.7,535.7,305.5,544.5"/>
	<path class="st25" d="M232.5,510.3c-16.8-9.9-36.9-12.4-55.6-7.1c-0.5,6.7,2.1,13.3,7,18c27.7,0.2,41.6,0.2,41.6,0.2
		C229.9,519.5,232.7,515.1,232.5,510.3"/>
	<path class="st26" d="M242.3,538.6c-28.4,10.3-51.9,11.2-70.7,2.8c1.4-12.2,6.7-23.6,16.1-34.1c20.2-17.6,33-16.2,38.4,4.3
		C227.9,522.5,233.3,531.4,242.3,538.6"/>
	<path class="st6" d="M204,544.2c-9.9,0.2-18.9-1.4-26.9-5c1.2-10.8,6-20.9,14.3-30.3c3.3-2.9,6.4-5.2,9.3-6.9
		C199.3,516.1,200.4,530.4,204,544.2"/>
	<path class="st9" d="M227.1,512.1c4.2,2.3,7.4,2.4,8.6-0.7c8.1-21.4,9.2-47.8,3.1-79.3c-0.7-4.3-3.8-5.4-10-4
		c-7.2,1.5-14.5-0.3-22-5.5c-4.5-3.1-7.7-4.2-9.6-1c-16.1,26-23.8,54.2-23.1,84.4c0,2.7,2.2,3.3,6.1,2.5
		C199.9,504.8,215.5,506,227.1,512.1"/>
	<path class="st9" d="M300,429.6c4.1-1.2,6.7-1.8,7.6,0.9c6.3,21.2,9.8,41.7,10.2,61.7c0,5.8-2.2,9.6-6.8,11.2
		c-8.3,2.6-20.1,7.5-34.8,16.3c-9.3,5.5-15.6,4.5-17.5-3.4c-6.8-29.2-4.2-57.3,7.8-84.4c2.8-6.4,7.8-6.7,14.8-4.2
		C289.1,430.4,295.2,431.1,300,429.6"/>
	<path class="st6" d="M208.7,428.6c-0.5-0.3-1.1-0.7-1.6-1.1c-4-2.7-6.8-3.7-8.6-0.9c-14.3,23.1-21.1,48.2-20.6,75.1
		c0,2.4,2,2.9,5.4,2.2c11.5-2.1,21.4-2.4,29.8-0.8C194.3,492.4,213.1,453.7,208.7,428.6"/>
	<path class="st6" d="M291,507.6c-5.4,2.4-6.8,3.3-13.7,7.5c-8.4,4.9-14,4-15.7-3c-6.1-26.2-3.8-51.5,7-75.8c2.5-5.7,7-6,13.3-3.8
		c4.8,1.7,9,2.5,12.5,2.4C297.9,450.7,280.5,492.6,291,507.6"/>
	<path class="st11" d="M177.6,538.3h62.7c3.9,0,7.1,3.2,7.1,7.1v5.4c0,3.9-3.2,7.1-7.1,7.1h-62.7c-3.9,0-7.1-3.2-7.1-7.1v-5.4
		C170.4,541.5,173.7,538.3,177.6,538.3"/>
	<path class="st11" d="M271,538.3h76.2c3.9,0,7.1,3.2,7.1,7.1v5.4c0,3.9-3.2,7.1-7.1,7.1H271c-3.9,0-7.1-3.2-7.1-7.1v-5.4
		C263.8,541.5,267,538.3,271,538.3"/>
	<path class="st17" d="M285.6,220.5h142.1c6.3,0,11.4,5.1,11.4,11.4V346c0,6.3-5.1,11.4-11.4,11.4H285.6c-6.3,0-11.4-5.1-11.4-11.4
		V231.9C274.2,225.6,279.3,220.5,285.6,220.5"/>
	<path class="st27" d="M275.2,227.9h49.5c2.7,0,4.9,2.2,4.9,4.9v126.9c0,2.7-2.2,4.9-4.9,4.9h-49.5c-2.7,0-4.9-2.2-4.9-4.9V232.9
		C270.3,230.2,272.5,227.9,275.2,227.9"/>
	<path class="st28" d="M331.3,240.9c1.5,0.8,2.6,2.2,2.6,3.9v114.1c0,2.4-2.2,4.4-4.9,4.4h-49.5c-2.7,0-4.9-2-4.9-4.4v-43.2
		C289.2,278.4,324.1,271.5,331.3,240.9"/>
	<path class="st29" d="M315.9,227.9h114.1c6.3,0,11.4,5.1,11.4,11.4v114.1c0,6.3-5.1,11.4-11.4,11.4H315.9
		c-6.3,0-11.4-5.1-11.4-11.4V239.3C304.5,233.1,309.6,227.9,315.9,227.9"/>
	<path class="st30" d="M431.5,358.7c-1.6,0.9-3.4,1.5-5.4,1.5H319.7c-5.8,0-10.6-4.8-10.6-10.6v-75.7
		C372.9,296.3,333.3,345.3,431.5,358.7"/>
	<path class="st17" d="M321.3,226.6h17.2c1.3,0,2.4,1.1,2.4,2.4v98c0,1.3-1.1,2.4-2.4,2.4h-17.2c-1.3,0-2.4-1.1-2.4-2.4v-98
		C318.9,227.7,320,226.6,321.3,226.6"/>
	<path class="st31" d="M283.7,369.9c8.1-0.3,16.2-2,23.8-5.2c1.6-2.2,1.6-5,0.1-7.1c-9.4,1.7-18.8,2.4-28.2,2
		C282.3,362.3,283.9,366,283.7,369.9"/>
	<path class="st32" d="M283.2,353.8c-1.8,1.1-3,2.9-3.3,4.9c-0.3,2,0.4,4,1.9,5.3c10.3,0.8,20.8-1,30.6-5.1c1.6-2.2,1.6-5,0.1-7.1
		C302.9,353.7,293,354.3,283.2,353.8"/>
	<path class="st33" d="M289,346.7c-1.8,1-3,2.7-3.3,4.7c-0.3,2,0.4,4,1.9,5.4c10.3,1.3,20.8,0.2,30.6-3.4c1.6-2.1,1.6-4.9,0.1-7.1
		C308.6,347.6,298.7,347.7,289,346.7"/>
	<path class="st25" d="M271,327.1c-4.6,2.9-6.5,8.6-4.4,13.7c2.1,5,7.5,7.7,12.8,6.4c5.3-1.3,8.8-6.2,8.4-11.6
		c5.7-1.9,11.9-0.5,16.2,3.7c1.5,0.3,3.1-0.2,4-1.5c0.5-0.7,0.8-1.5,0.8-2.4h0v0l0-0.1l0-4.8c-0.9-0.2-1.8,0.1-2.4,0.7
		C297.4,321.3,282.3,319.4,271,327.1"/>
	<path class="st9" d="M271,322c-4.6,2.9-6.5,8.6-4.4,13.7c2.1,5,7.5,7.7,12.8,6.4c5.3-1.3,8.8-6.2,8.4-11.6
		c5.7-1.9,11.9-0.5,16.2,3.7c1.5,0.3,3.1-0.2,4-1.5c0.9-1.2,1.1-2.9,0.4-4.3C299.6,316.6,283.2,313.8,271,322"/>
	<path class="st25" d="M298.7,336c-1.9,0.7-3.3,2.3-3.9,4.3c-0.5,2-0.1,4.1,1.2,5.6c10.1,2.7,20.6,2.9,30.8,0.7
		c0.8-0.8,1.3-1.8,1.5-2.8c0.6,0,1.3-0.2,2.2-0.6c0,0-0.9-1.2-2.7-3.6C318,339.5,308.2,338.3,298.7,336"/>
	<path class="st9" d="M301.4,340c-1.9,0.7-3.3,2.3-3.8,4.3c-0.5,2,0,4.1,1.3,5.6c10.1,2.5,20.7,2.6,30.8,0.2c1.8-1.9,2.2-4.7,0.9-7
		C320.8,343.3,310.9,342.2,301.4,340"/>
	<path class="st10" d="M301.8,337c-1.4,12.9-7.1,24.7-16.2,33.6c-11.1-1.4-23.7-9.3-37.6-23.8c12.2-11.6,18.3-17.4,18.3-17.4
		c2.1,4,6.2,6.6,10.7,6.9c4.5,0.2,8.6-2,10.8-5.8C293,330.9,298,333.2,301.8,337"/>
	<path class="st34" d="M293.6,356.8c-2.3,4.1-5.2,7.9-8.6,11.2c-10.1-1.3-21.6-8.5-34.3-21.7l5.2-5c6.8,6.8,15.7,11.6,25.6,13.4l0,0
		l0.9,0.3C286.2,356.1,289.9,356.7,293.6,356.8"/>
	<polygon class="st6" points="186.7,264.3 200.8,260.1 200.9,260.6 210.3,257.8 221.6,295.7 207.5,299.9 207.4,299.5 198,302.3 	"/>
	<path class="st14" d="M210,275.4c2.9-2.2,6.6-3.2,10.6-3.3c5.8,0,12.2,2.1,17.7,6.6c3.8,3.1,7.6,6.1,11.4,9.2
		c3.8,3.1,7.6,6.1,11.4,9.2c5.6,4.5,9.2,10.7,10.4,17.1c1.2,6.5,0.1,13.2-3.6,18.5c0,0,0,0,0,0c-1,1.4-2.1,2.5-3.3,3.7l-11.8,11
		c-0.2-0.9-0.3-1.8-0.3-2.7l-4.3,2.9c-0.6-2.4-0.4-4.8,0.4-6.8c-4.6-0.8-9.3-3.1-13.3-7c-3.6-3.4-7.1-6.8-10.7-10.2
		c-3.6-3.4-7.1-6.8-10.7-10.2c-5.2-5-8.6-11.4-10-17.7c-0.6-3-0.8-5.9-0.5-8.6c-2.5,0.3-2.8,0-5-1.9
		C198.6,285.2,201.8,281.6,210,275.4L210,275.4z"/>
	<path class="st14" d="M207.1,276.1 M196.5,202L196.5,202c9.1-1.2,17.9,7.4,19.6,19.1l4.5,31.8c1.7,11.7-4.4,22.2-13.5,23.3
		c-9.5,1.4-14.2,2.1-14.2,2.1c0.5-2.3,1.7-4.3,3.3-5.4c-4.4-3.4-7.7-9.1-8.6-15.8l-4.5-31.8c-0.9-6.3,0.5-12.3,3.4-16.7
		c-1.5-1-2.8-2.6-3.5-4.6l13.1-2C196.2,202,196.3,202,196.5,202L196.5,202L196.5,202L196.5,202z"/>
	<path class="st9" d="M182.3,204.1L182.3,204.1c9.1-1.2,17.6,5.3,18.9,14.4l5.8,41.1c1.3,9.1-5.1,17.5-14.2,18.6h0
		c-9.1,1.2-17.6-5.3-18.9-14.4l-5.8-41.1C166.8,213.6,173.2,205.3,182.3,204.1"/>
	<path class="st9" d="M197.9,285.9C197.9,285.9,197.9,285.9,197.9,285.9c3.6-4.1,9-5.7,14.8-5.1c5.8,0.6,12.1,3.4,17.3,8.5
		c3.5,3.4,7.1,6.9,10.6,10.3c3.5,3.4,7.1,6.9,10.6,10.3c5.2,5,8.2,11.5,8.9,18c0.6,6.5-1.2,12.9-5.4,17.7c0,0,0,0,0,0
		c-4.2,4.8-10.1,7-16,6.5c-5.9-0.4-12-3.5-16.8-9c-3.3-3.7-6.6-7.5-9.8-11.2c-3.3-3.7-6.6-7.5-9.8-11.2c-4.8-5.5-7.6-12.2-8.4-18.5
		C193,295.9,194.3,290,197.9,285.9"/>
	<path class="st6" d="M205,263c-1.3,6-6.2,10.9-12.7,11.7h0c-8.2,1.1-15.9-4.8-17.1-13l-5.3-37.2c-0.6-4,0.5-7.9,2.8-11
		c-0.5,6.2,0.3,12.7,2.4,19C180,247.3,185.9,271.1,205,263"/>
	<path class="st10" d="M179.4,210.8L179.4,210.8L179.4,210.8L179.4,210.8L179.4,210.8L179.4,210.8L179.4,210.8
		c5.5-0.1,10.6,5.1,11.6,12.2l2.9,20.2c1.1,7.4-2.8,14.1-8.6,14.8v0c-0.2,0-0.5,0-0.7,0.1c0.1,0,0,0-0.1,0l0,0l0,0l0,0v0
		c-0.1,0-0.2,0-0.3,0c-0.7,0-2.3,0-4.8,0.1c0-0.5,0-1,0.1-1.5c-3.3-2-5.9-6-6.6-10.8l-2.9-20.2c-0.8-5.7,1.3-10.9,4.9-13.4
		c-0.1-0.4-0.2-0.9-0.1-1.4C177.5,210.8,179.1,210.8,179.4,210.8"/>
	<path class="st8" d="M174,211L174,211c5.8-0.7,11.2,3.4,12,9.1l3.7,26.1c0.8,5.8-3.2,11.1-9,11.8h0c-5.8,0.7-11.2-3.4-12-9.1
		l-3.7-26.1C164.2,217,168.3,211.7,174,211"/>
	<path class="st35" d="M188,248.4c-0.5,3.9-3.6,7-7.5,7.5c-4.8,0.6-9.3-2.8-10-7.6l-3.1-21.8c-0.2-1.7,0-3.4,0.7-4.9
		C171.4,232.7,174.6,250.4,188,248.4"/>
	<path class="st6" d="M256.5,328.7c0,5-1.6,9.9-4.9,13.6c-3.6,4.1-8.8,6.2-14.3,5.8c-5.3-0.4-10.7-3.1-14.9-8
		c-5.8-6.6-11.7-13.3-17.5-19.9c-4-4.6-6.8-10.5-7.5-16.5c3.1,6.4,7.6,12.2,13.5,16.9C224.2,331.2,244.9,341.3,256.5,328.7"/>
	<path class="st10" d="M199.6,293.3C199.6,293.3,199.6,293.3,199.6,293.3c2.6-2.9,6.4-4,10.5-3.6c4.1,0.4,8.6,2.4,12.2,6
		c2.5,2.4,5,4.9,7.5,7.3c2.5,2.4,5,4.9,7.5,7.3c3.7,3.6,5.8,8.2,6.3,12.7c0.4,4.6-0.8,9.2-3.8,12.6c0,0,0,0,0,0
		c-3,3.4-7.1,4.9-11.4,4.6c-4.2-0.3-8.5-2.5-11.9-6.4c-2.3-2.6-4.7-5.3-7-7.9c-2.3-2.6-4.6-5.3-7-7.9c-3.4-3.9-5.4-8.6-6-13.1
		C196.1,300.4,197,296.2,199.6,293.3"/>
	<path class="st8" d="M195.4,296.2C195.4,296.2,195.4,296.2,195.4,296.2c2.6-2.9,6.4-4,10.5-3.6c4.1,0.4,8.6,2.4,12.2,6
		c2.5,2.4,5,4.9,7.5,7.3c2.5,2.4,5,4.9,7.5,7.3c3.7,3.6,5.8,8.2,6.3,12.7c0.4,4.6-0.8,9.2-3.8,12.6c0,0,0,0,0,0
		c-3,3.4-7.1,4.9-11.4,4.6c-4.2-0.3-8.5-2.5-11.9-6.4c-2.3-2.6-4.7-5.3-7-7.9c-2.3-2.6-4.6-5.3-7-7.9c-3.4-3.9-5.4-8.6-6-13.1
		C192,303.3,192.9,299.1,195.4,296.2"/>
	<path class="st35" d="M235.3,325.6c0.1,3.3-1,6.6-3.2,9.1c0,0,0,0,0,0c-2.4,2.8-5.8,4-9.3,3.8c-3.4-0.3-6.9-2-9.7-5.2
		c-3.8-4.3-7.6-8.6-11.4-13c-0.7-0.8-1.3-1.6-1.8-2.4c3.4,2.2,7.1,4,11.2,5.4l0.3,0.1c5.1,1.8,10.6,2.8,16.3,2.8h0.4
		C230.5,326.2,232.9,326,235.3,325.6"/>
	<path class="st31" d="M204.4,301.3c1.1,1.7,0.8,3.9-0.8,4.9c-1.5,1-3.7,0.4-4.8-1.2c-1.1-1.7-0.8-3.9,0.8-4.9
		C201.1,299.1,203.3,299.6,204.4,301.3"/>
	<path class="st36" d="M423.4,260.6v-10.9h-3.6l7.1-10.9l7.1,10.9h-3.6v10.9H423.4z M405.6,260.6v-10.9H402l7.1-10.9l7.1,10.9h-3.6
		v10.9H405.6z"/>
	<path class="st17" d="M505.2,480h72.4c3.4,0,6.2,2.8,6.2,6.2v61.7c0,3.4-2.8,6.2-6.2,6.2h-72.4c-3.4,0-6.2-2.8-6.2-6.2v-61.7
		C499.1,482.7,501.9,480,505.2,480"/>
	<path class="st27" d="M499.6,487.5h25.5c1.4,0,2.5,1.1,2.5,2.5v65.2c0,1.4-1.1,2.5-2.5,2.5h-25.5c-1.4,0-2.5-1.1-2.5-2.5V490
		C497.1,488.6,498.2,487.5,499.6,487.5"/>
	<path class="st28" d="M528.4,494.1c0.8,0.4,1.3,1.1,1.3,2v58.6c0,1.3-1.1,2.3-2.5,2.3h-25.5c-1.4,0-2.5-1-2.5-2.3v-22.2
		C506.8,513.4,524.7,509.9,528.4,494.1"/>
	<path class="st29" d="M521.1,480H586c3.6,0,6.5,2.9,6.5,6.5v64.9c0,3.6-2.9,6.5-6.5,6.5h-64.9c-3.6,0-6.5-2.9-6.5-6.5v-64.9
		C514.6,482.9,517.5,480,521.1,480"/>
	<path class="st30" d="M586.9,554.4c-0.9,0.5-1.9,0.8-3.1,0.8h-60.6c-3.3,0-6-2.7-6-6v-43C553.6,518.9,531,546.7,586.9,554.4"/>
	<path class="st17" d="M594.5,506.6v9.8c0,0.8-0.6,1.4-1.4,1.4h-51.5c-0.8,0-1.4-0.6-1.4-1.4v-9.8c0-0.8,0.6-1.4,1.4-1.4h51.5
		C593.8,505.2,594.5,505.8,594.5,506.6"/>
	<path class="st17" d="M371.4,443.4h108.3c5,0,9,4.1,9,9v90.6c0,5-4.1,9-9,9H371.4c-5,0-9-4.1-9-9v-90.6
		C362.4,447.5,366.4,443.4,371.4,443.4"/>
	<path class="st27" d="M363.2,452.9h38c2.1,0,3.8,1.7,3.8,3.8V554c0,2.1-1.7,3.8-3.8,3.8h-38c-2.1,0-3.8-1.7-3.8-3.8v-97.3
		C359.4,454.6,361.1,452.9,363.2,452.9"/>
	<path class="st28" d="M406.1,462.8c1.2,0.6,2,1.7,2,3v87.5c0,1.9-1.7,3.4-3.8,3.4h-38c-2.1,0-3.8-1.5-3.8-3.4v-33.1
		C373.9,491.6,400.6,486.3,406.1,462.8"/>
	<path class="st29" d="M395.2,441.6h96.8c5.3,0,9.7,4.3,9.7,9.7v96.8c0,5.3-4.3,9.7-9.7,9.7h-96.8c-5.3,0-9.7-4.3-9.7-9.7v-96.8
		C385.6,446,389.9,441.6,395.2,441.6"/>
	<path class="st30" d="M493.4,552.7c-1.3,0.8-2.9,1.2-4.6,1.2h-90.4c-5,0-9-4.1-9-9v-64.2C443.7,499.7,410,541.3,493.4,552.7"/>
	<path class="st17" d="M464.6,440.6h14.6c1.1,0,2,0.9,2,2v92.1c0,1.1-0.9,2-2,2h-14.6c-1.1,0-2-0.9-2-2v-92.1
		C462.5,441.5,463.4,440.6,464.6,440.6"/>
	<path class="st9" d="M417.6,37.5c36.2,0,65.5,29.3,65.5,65.5c0,19-8.1,36.2-21.1,48.2c-0.2,0.5-0.4,1-0.7,1.4l-41,56.8
		c-1.4,1.9-3.6,1.9-5,0l-41-56.8c-0.2-0.2-0.3-0.5-0.4-0.8c-13.4-12-21.8-29.4-21.8-48.8C352.1,66.8,381.4,37.5,417.6,37.5"/>
	<path class="st6" d="M411.1,195l-33.6-46.6c-0.2-0.2-0.3-0.4-0.4-0.7c-12.1-10.8-19.7-26.6-19.7-44.1c0-30.9,23.6-56.2,53.7-59V195
		z"/>
	<path class="st17" d="M417.6,68.9c-18.8,0-34,15.2-34,34c0,18.8,15.2,34,34,34c18.8,0,34-15.2,34-34
		C451.6,84.1,436.4,68.9,417.6,68.9z M417.6,121.2c-10.1,0-18.2-8.2-18.2-18.2c0-10.1,8.2-18.2,18.2-18.2c10.1,0,18.2,8.2,18.2,18.2
		C435.8,113,427.7,121.2,417.6,121.2z"/>
	<path class="st17" d="M90,421c2.2,0,4.1,1.8,4.1,4.1c0,2.2-1.8,4.1-4.1,4.1c-2.2,0-4.1-1.8-4.1-4.1C85.9,422.9,87.8,421,90,421"/>
	<path class="st17" d="M148.4,431.9c1.4,0,2.5,1.1,2.5,2.5c0,1.4-1.1,2.5-2.5,2.5c-1.4,0-2.5-1.1-2.5-2.5
		C145.9,433,147,431.9,148.4,431.9"/>
	<path class="st17" d="M210.5,492.8c1.4,0,2.5,1.1,2.5,2.5c0,1.4-1.1,2.5-2.5,2.5c-1.4,0-2.5-1.1-2.5-2.5
		C207.9,493.9,209.1,492.8,210.5,492.8"/>
	<path class="st17" d="M314.8,452.8c2.2,0,4.1,1.8,4.1,4.1c0,2.2-1.8,4.1-4.1,4.1c-2.2,0-4.1-1.8-4.1-4.1
		C310.7,454.6,312.5,452.8,314.8,452.8"/>
	<path class="st17" d="M230.3,363.7c1,0,1.8,0.8,1.8,1.8c0,1-0.8,1.8-1.8,1.8s-1.8-0.8-1.8-1.8C228.5,364.5,229.3,363.7,230.3,363.7
		"/>
	<path class="st17" d="M377.2,327.5c1.8,0,3.3,1.5,3.3,3.3c0,1.8-1.5,3.3-3.3,3.3c-1.8,0-3.3-1.5-3.3-3.3
		C373.9,329,375.4,327.5,377.2,327.5"/>
	<path class="st17" d="M413.6,562.5c2.2,0,4.1,1.8,4.1,4.1s-1.8,4.1-4.1,4.1c-2.2,0-4.1-1.8-4.1-4.1S411.3,562.5,413.6,562.5"/>
	<path class="st17" d="M486.2,416.7c1.8,0,3.3,1.5,3.3,3.3c0,1.8-1.5,3.3-3.3,3.3c-1.8,0-3.3-1.5-3.3-3.3
		C482.9,418.1,484.4,416.7,486.2,416.7"/>
	<path class="st17" d="M702.4,427.2c1.8,0,3.2,1.4,3.2,3.2s-1.4,3.2-3.2,3.2c-1.8,0-3.2-1.4-3.2-3.2S700.7,427.2,702.4,427.2"/>
	<path class="st17" d="M644.1,484.2c1.3,0,2.3,1,2.3,2.3c0,1.3-1,2.3-2.3,2.3c-1.3,0-2.3-1-2.3-2.3
		C641.8,485.2,642.8,484.2,644.1,484.2"/>
	<path class="st17" d="M566.3,530.9c0.9,0,1.7,0.7,1.7,1.7c0,0.9-0.7,1.7-1.7,1.7c-0.9,0-1.7-0.7-1.7-1.7
		C564.6,531.6,565.4,530.9,566.3,530.9"/>
	<path class="st17" d="M377.5,477.1c0.7,0,1.3,0.6,1.3,1.3c0,0.7-0.6,1.3-1.3,1.3c-0.7,0-1.3-0.6-1.3-1.3
		C376.1,477.7,376.7,477.1,377.5,477.1"/>
	<path class="st9" d="M617.2,204.3c22.3,0,40.4,18.1,40.4,40.4c0,11.7-5,22.3-13,29.7c-0.1,0.3-0.2,0.6-0.4,0.8l-25.3,35
		c-0.8,1.2-2.2,1.2-3.1,0l-25.3-35c-0.1-0.1-0.2-0.3-0.3-0.5c-8.3-7.4-13.4-18.1-13.4-30.1C576.8,222.4,594.9,204.3,617.2,204.3"/>
	<path class="st17" d="M617.2,223.7c-11.6,0-21,9.4-21,21c0,11.6,9.4,21,21,21c11.6,0,21-9.4,21-21
		C638.2,233.1,628.8,223.7,617.2,223.7z M617.2,256c-6.2,0-11.3-5-11.3-11.3c0-6.2,5-11.3,11.3-11.3c6.2,0,11.3,5,11.3,11.3
		C628.5,251,623.4,256,617.2,256z"/>
</g>
</svg>
