<?xml version="1.0" encoding="utf-8"?>
<!-- Generator: Adobe Illustrator 25.2.0, SVG Export Plug-In . SVG Version: 6.00 Build 0)  -->
<svg version="1.1" id="Layer_1" xmlns="http://www.w3.org/2000/svg" xmlns:xlink="http://www.w3.org/1999/xlink" x="0px" y="0px"
	 viewBox="0 0 600 400" style="enable-background:new 0 0 600 400;" xml:space="preserve">
<style type="text/css">
	.st0{fill-rule:evenodd;clip-rule:evenodd;fill:#7674AF;}
	.st1{fill-rule:evenodd;clip-rule:evenodd;fill:#F1EEF6;}
	.st2{fill-rule:evenodd;clip-rule:evenodd;fill:#F6F5FA;}
	.st3{fill-rule:evenodd;clip-rule:evenodd;fill:#FFFFFF;}
	.st4{fill-rule:evenodd;clip-rule:evenodd;fill:#D8D3E9;}
	.st5{fill-rule:evenodd;clip-rule:evenodd;fill:#C1BADC;}
	.st6{fill-rule:evenodd;clip-rule:evenodd;fill:#E8DFEE;}
	.st7{fill-rule:evenodd;clip-rule:evenodd;fill:#B6AFD6;}
	.st8{fill-rule:evenodd;clip-rule:evenodd;fill:#D2CBE5;}
	.st9{fill-rule:evenodd;clip-rule:evenodd;fill:#8372B3;}
	.st10{fill-rule:evenodd;clip-rule:evenodd;fill:#A297C9;}
	.st11{fill-rule:evenodd;clip-rule:evenodd;fill:#3B3470;}
	.st12{fill-rule:evenodd;clip-rule:evenodd;fill:#6E599B;}
	.st13{fill-rule:evenodd;clip-rule:evenodd;fill:#A392C5;}
	.st14{fill-rule:evenodd;clip-rule:evenodd;fill:#FCE0D7;}
	.st15{fill-rule:evenodd;clip-rule:evenodd;fill:#F9C4BF;}
	.st16{fill-rule:evenodd;clip-rule:evenodd;fill:#F7A79E;}
	.st17{fill-rule:evenodd;clip-rule:evenodd;fill:#E66657;}
	.st18{fill-rule:evenodd;clip-rule:evenodd;fill:#BC3526;}
	.st19{fill-rule:evenodd;clip-rule:evenodd;fill:#EE7B27;}
	.st20{fill-rule:evenodd;clip-rule:evenodd;fill:#2D225C;}
	.st21{fill-rule:evenodd;clip-rule:evenodd;fill:#654C99;}
	.st22{fill-rule:evenodd;clip-rule:evenodd;fill:#6E589A;}
	.st23{fill:#FFFFFF;}
	.st24{fill-rule:evenodd;clip-rule:evenodd;fill:#D8422F;}
	.st25{fill-rule:evenodd;clip-rule:evenodd;fill:#8A73B3;}
	.st26{fill-rule:evenodd;clip-rule:evenodd;fill:#392A6F;}
	.st27{fill-rule:evenodd;clip-rule:evenodd;fill:#CE4C27;}
	.st28{fill-rule:evenodd;clip-rule:evenodd;fill:#7B87C2;}
</style>
<g>
	<path class="st0" d="M406.7,90.3c-5.2-1.2-7.8-1.8-7.8-1.8c6.5,3.7,9.7,5.5,9.7,5.5c0.4-7.3,0.5-10.9,0.5-10.9
		C407.5,88,406.7,90.3,406.7,90.3"/>
	<path class="st0" d="M316.6,62.4c-3.5-0.8-5.2-1.2-5.2-1.2c4.4,2.5,6.5,3.7,6.5,3.7c0.2-4.9,0.4-7.3,0.4-7.3
		C317.1,60.8,316.6,62.4,316.6,62.4"/>
	<rect x="-86" y="0.2" class="st1" width="771.5" height="199.2"/>
	<path class="st2" d="M45.7,87.6c107.5,127.2,200.8,140.5,279.9,39.9c-4.8-18.8-21.2-32.3-40.6-33.5c-19.4-1.1-37.2,10.4-44.2,28.5
		c-5.5-10-16-16.2-27.4-16.2c-11.4,0-21.9,6.2-27.4,16.2c0.6-10.7-5.3-20.8-14.9-25.6c-9.6-4.8-21.2-3.3-29.4,3.7
		c-1.4-23.6-19.2-42.9-42.6-46.1C75.7,51.4,53.4,65.2,45.7,87.6"/>
	<path class="st3" d="M546.7,72.3C397.7,223.1,291.1,261.8,227,188.2c-4.8-17.2,3.5-35.4,19.7-43c16.2-7.6,35.5-2.3,45.6,12.4
		c-2.5-17.9,6.8-35.4,23.1-43.3c16.3-7.9,35.8-4.5,48.4,8.5c-2.3-16.1,4.7-32.1,18.2-41.2c13.5-9.1,31-9.7,45-1.5
		c-1.3-18.2,11.5-34.3,29.5-37.3c18-3,35.3,8.2,39.9,25.8c4.3-10.7,15-17.4,26.5-16.5C534.5,52.8,544.1,61.1,546.7,72.3"/>
	<path class="st4" d="M-86,43.7c237.7,200,368.3,252,391.9,155.8C225.5,168.5,185.3,153,185.3,153c-13.6,2.5-20.4,3.8-20.4,3.8
		c-42.6-26.9-64-40.3-64-40.3c-11-21.4-16.5-32-16.5-32c-25.9-8.8-38.8-13.2-38.8-13.2C24.4,46,13.8,33.4,13.8,33.4
		C-31.7,11.3-54.5,0.2-54.5,0.2c-21,0-31.6,0-31.6,0C-86,29.2-86,43.7-86,43.7"/>
	<path class="st5" d="M-86,143.1c176.2,167.7,296.6,202.7,361.2,105c-49.9-41-74.9-61.5-74.9-61.5c-14.3,1.7-21.4,2.6-21.4,2.6
		c-37.5-21.2-56.3-31.8-56.3-31.8c-5.8-13.6-8.8-20.5-8.8-20.5C94.1,128.3,84.2,124,84.2,124c-13.4-11.2-20.1-16.9-20.1-16.9
		c-68.6-40.6-102.9-61-102.9-61C-70.3,39.7-86,36.4-86,36.4C-86,107.5-86,143.1-86,143.1"/>
	<path class="st6" d="M559.1,31.8c53.1,45.6,95.4,53.4,126.9,23.5c0,0-0.2-18.4-0.5-55.1c0,0-24.1,0-72.2,0
		C613.3,0.2,595.2,10.8,559.1,31.8"/>
	<path class="st7" d="M475.1,97.8c109.9,55.6,180,61.7,210.4,18.5c0,0,0.2-25.8,0.5-77.3c0,0-10.2-1-30.5-2.9c0,0-4.8,1.9-14.3,5.7
		c0,0-3.7-3-11.1-9c0,0-10.8,2.8-32.3,8.4c0,0,9.1-8.1,27.3-24.2c0,0-22,4.9-66,14.8c0,0-5.9,7-17.7,21.1
		C541.3,52.9,519.2,67.9,475.1,97.8"/>
	<path class="st8" d="M560,185.4c76.1-18.3,118.1-31.4,126-39.6c0,0-0.2-9.8-0.5-29.5c0,0-24.2-3.6-72.7-10.7c0,0-6.3,2-18.8,6.1
		c0,0-4.6-0.1-13.7-0.4c0,0-29-7.1-87-21.2c0,0-46-1.1-137.9-3.3C491.8,152.5,560,185.4,560,185.4"/>
	<path class="st9" d="M-85.9,276.2c143.2-9.9,214.8-14.9,214.8-14.9c-50.6-50.7-75.9-76-75.9-76c-15.1-8.8-22.6-13.1-22.6-13.1
		C-47.2,138.5-86,121.6-86,121.6C-86,224.7-85.9,276.2-85.9,276.2"/>
	<path class="st10" d="M145.5,286.6C296.2,411.1,443.4,371.2,587,166.8c0,0-8.8-5.3-26.3-15.9c0,0-39.6-12.1-118.8-36.4
		c0,0,3.4-2.4,10.1-7.1c0,0-32.2-6.9-96.5-20.6c0,0,4.6,9.5,13.8,28.6c0,0,3.5,1,10.4,3c0,0,2.1,9.9,6.2,29.7c0,0-7.5,4.8-22.6,14.4
		c0,0-6-0.6-18-1.9c0,0-12.5,6.7-37.4,20.2c0,0-14.5,16.2-43.4,48.7C264.4,229.4,224.8,248.5,145.5,286.6"/>
	<path class="st11" d="M83.8,293.9v18.7H65.6v-9.7c1.9-0.9,3.7-1.8,5.5-2.9l1.6-1l9.5-4.5l-0.8,0.3C80.5,295.1,83,294.2,83.8,293.9
		 M164.1,256.8v55.8h-18.5v-51.8C151.9,260.4,158.1,259.1,164.1,256.8z M244.1,238.9v73.8h-18.2v-69.8
		C232.1,242.4,238.2,241.1,244.1,238.9z M328.7,219.9c-3.9,5.2-6.1,11.5-6.1,18.4v74.3h-0.1v53.6h-16.6c0-42.6,0-85.2,0-127.9
		c0-5.9-1.7-11.5-4.6-16.2c1.9-0.1,3.8-0.4,5.7-0.7c1.9-0.1,3.8-0.4,5.7-0.7h6.4C322.3,220.7,325.5,220.4,328.7,219.9z M461.3,185.4
		h178.8v127.2h-17.3v-74.3c0-17-13.9-30.9-30.9-30.9c-17,0-30.9,13.9-30.9,30.9v74.3h-18.2v-74.3c0-17-13.9-30.9-30.9-30.9
		s-30.9,13.9-30.9,30.9v74.3h-16.8v-74.3c0-17-13.9-30.9-30.9-30.9c-17,0-30.9,13.9-30.9,30.9v74.3h-18.2v-74.3
		c0-14.4-10-26.6-23.4-30c0.8-0.5,1.6-1.1,2.4-1.7c5.3-0.9,10.6-2.5,15.6-4.8c1.5-0.4,2.9-0.8,4.4-1.3c2.5-0.5,4.9-1.2,7.2-2
		c1.3-0.3,2.6-0.7,3.9-1.1c0.3-0.1,0.7-0.2,1-0.3c2.2-0.5,4.4-1.1,6.5-1.9c1.8-0.5,3.6-1,5.3-1.6c0.6-0.2,1.2-0.4,1.8-0.6
		c2.2-0.2,4.4-0.5,6.5-0.9c1.4-0.2,2.7-0.4,4.1-0.7c2.2-0.2,4.4-0.5,6.6-0.9h6.9c3.4,0,6.6-0.3,9.9-0.8
		C449.5,189.3,455.6,187.8,461.3,185.4z M3.8,311.2v1.4h-25.3v-4c5.3,1.7,10.9,2.6,16.8,2.6H3.8z"/>
	<path class="st12" d="M83.8,308.1v4.5H65.6v-0.3L83.8,308.1z M3.8,265.2v30.7l-25.3,5.8v-23.5c6.4-1.5,12.6-4.1,18.4-8l1.7-1.1
		C0.4,267.9,2.1,266.6,3.8,265.2z M83.8,237.7c0,0.2,0,0.4,0,0.6v39l-18.2,4.2v-43.2c0-1.3-0.1-2.6-0.2-3.8
		C71.2,236.6,77.4,237.7,83.8,237.7z M238.8,185.4h243.1l-113.1,26.1c-4.7-2.7-9.9-4.1-15.3-4.1c-10.6,0-19.9,5.4-25.5,13.5
		l-24.4,5.6c-4.8-11.5-16.1-19.1-28.6-19.1c-17,0-30.9,13.9-30.9,30.9v2l-18.2,4.2v-6.2c0-17-13.9-30.9-30.9-30.9
		c-17,0-30.9,13.9-30.9,30.9v20.5l-18.5,4.3v-24.7c0-9.3-4.2-17.7-10.7-23.4c6.7-6.1,12-13.8,15.2-22.5h43.8
		c7.3,0,14.4-1.4,21.1-4.1C223,189.1,231.1,188.1,238.8,185.4z"/>
	<path class="st13" d="M-21.5,185.4h278.1l-120.8,30.5c-5.5-5.2-13-8.4-21.2-8.4c-13.6,0-25.2,8.9-29.3,21.2l-20.1,5.1
		c-2.3-14.8-15.1-26.2-30.5-26.2c-17,0-30.9,13.9-30.9,30.9v10.9l-25.3,6.4V185.4z"/>
	<path class="st14" d="M685.5,131.7c0,85.7,0,128.6,0,128.6S541.9,300.5,254.7,381c0,0-113.5-43.9-340.6-131.6c0,0,0-10.7-0.1-32
		c0.6-6.6,4.8-12.3,10.8-15c6-2.7,13-2,18.4,1.8c0.4-6,3.8-11.4,9-14.3c5.2-3,11.5-3.1,16.9-0.4c3.5-6.4,10.7-9.8,17.9-8.3
		c7.1,1.5,12.4,7.5,13,14.8c5.5-2.2,11.8-1.3,16.5,2.3c4.7,3.7,7,9.6,6.1,15.5c3.3-4.2,8.8-6.2,14-5c5.3,1.1,9.4,5.1,10.7,10.4
		c5-3.9,11.8-4.5,17.5-1.7c5.7,2.8,9.2,8.7,9.1,15c4.4-6.1,12.2-8.8,19.4-6.8c7.3,2,12.5,8.3,13.1,15.8c5.9-3.7,13.6-3.1,18.8,1.5
		c5.2,4.6,6.7,12.2,3.7,18.5c5.2-4.4,12.6-5.3,18.8-2.3c6.1,3,9.9,9.4,9.6,16.3c4.4-8.4,13.6-13.2,23-12.1
		c9.4,1.1,17.2,7.9,19.5,17.1c6.5-7.6,17.9-8.7,25.7-2.4c7.8,6.3,9.2,17.6,3.1,25.6c7.8-1.9,16,0.7,21.3,6.9
		c5.2,6.1,6.6,14.6,3.5,22.1c2.6-5.4,8-8.8,14-8.6c6,0.2,11.3,3.8,13.5,9.3c0.6-8,4.7-15.2,11.3-19.8c6.6-4.5,14.8-5.8,22.5-3.6
		c-0.8-10.1,4.8-19.5,13.9-23.9c9.1-4.3,19.9-2.6,27.2,4.3c-0.1-6,3.4-11.5,8.8-14c5.4-2.6,11.8-1.7,16.4,2.1
		c-2.5-7.8,1-16.3,8.2-20.1c7.2-3.8,16.2-1.9,21.2,4.6c0.3-5.3,3.5-10.1,8.3-12.4c4.8-2.4,10.5-2,14.9,1c-3.2-7-2-15.3,3-21.1
		c5-5.9,13-8.3,20.4-6.2c-0.3-6.4,3.4-12.3,9.4-14.6c6-2.3,12.8-0.6,16.8,4.4c0.6-6.9,5-12.9,11.4-15.7c6.4-2.7,13.8-1.7,19.2,2.7
		c-1.1-7.8,2.2-15.6,8.7-20.2c6.5-4.6,14.9-5.1,21.9-1.4c0.4-6.4,4.2-12.1,9.9-15c5.7-2.9,12.5-2.5,17.9,0.9
		c2.7-5.5,8.5-8.8,14.6-8.3c6.1,0.5,11.3,4.7,13,10.6c0.1-6.3,4.2-11.9,10.2-13.8c6-1.9,12.6,0.2,16.3,5.3
		c-0.1-6.6,3.7-12.5,9.6-15.3c5.9-2.8,12.9-1.9,18,2.3c0.5-7.3,4.9-13.8,11.6-16.8C671.9,126.5,679.7,127.3,685.5,131.7"/>
	<path class="st15" d="M354.2,399.9c202.8-50.2,313.3-89.1,331.4-116.8c0,0,0-15.2,0-45.6c-2.3-8.2-9.7-13.9-18.3-13.9
		c-8.5,0-16,5.7-18.3,13.9c-1.7-13.6-12.7-24.1-26.4-25.2c-13.7-1.1-26.2,7.6-30,20.8c-11.3-6.6-25.8-3.7-33.7,6.7
		c-2.1-11.1-12.1-19-23.4-18.5c-11.3,0.5-20.5,9.2-21.7,20.5c-4.9-4.1-11.5-5.2-17.5-3.1c-6,2.1-10.3,7.3-11.5,13.5
		c-3.5-3.4-8.3-5.1-13.2-4.6c-4.8,0.4-9.3,3-12.1,7c-7.2-3.6-15.8-2.6-22,2.4c-6.2,5-9,13.2-7,21c-5.8,0.2-11.3,3-14.9,7.6
		c-3.6,4.6-5,10.5-3.8,16.3c-6.4-4.4-14.6-5.4-22-2.8c-7.4,2.6-13,8.6-15.2,16.1c-9.9-3.2-20.7,0.4-26.7,8.9
		c-10.3-5-22.6-4-31.9,2.8c-9.3,6.8-14.1,18.1-12.5,29.5c-7.8-3.7-17.1-2.4-23.7,3.2c-0.6,0.5-1.2,1.1-1.8,1.7
		c-1.4-5.3-4.7-10-9.5-13.1c-8.2-5.3-19-4.7-26.5,1.6c2-5.4,0.9-11.4-2.9-15.7c-3.8-4.3-9.7-6.1-15.2-4.7c3.4-7.1,2.2-15.6-3-21.4
		c-5.2-5.9-13.5-8-20.9-5.4c-3.7-6.7-10.6-11.1-18.3-11.7c-7.7-0.6-15.1,2.7-19.8,8.8c-2.3-7.3-8.8-12.4-16.4-12.9
		c-7.6-0.5-14.7,3.7-18,10.6c1-7.6-2.6-15-9-19c-6.5-4-14.7-3.9-21,0.4c-1.8-7.1-7.4-12.5-14.5-14.1c-7.1-1.6-14.5,1-19.1,6.7
		c-2.9-4.2-7.8-6.4-12.9-5.8c-5,0.6-9.3,3.9-11.2,8.6c-0.3-5.9-4-11.1-9.6-13.2c-5.6-2.1-11.8-0.6-15.9,3.7
		c-0.1-5.9-3.7-11.2-9.2-13.5c-5.5-2.2-11.8-1-16,3.2c-2-3.6-5.8-5.9-9.9-6c-4.1-0.1-8,2-10.2,5.5c-0.7-4-3.7-7.2-7.6-8.2
		c-3.9-1-8.1,0.5-10.6,3.6c-0.5-4.2-3.4-7.8-7.4-9.3c-4-1.5-8.5-0.6-11.7,2.3c-1.1-3.7-4.3-6.5-8.2-6.9c-3.9-0.4-7.6,1.5-9.5,5
		c0,41.6,0,62.3,0,62.3c209.5,65,314.2,97.4,314.2,97.4h25.9h0.2h0.4h0.4h0.3h0.3h0.3h0.3h0.3h0.3h0.2h0.1h0.1h0.2h0.2h0.2h0.2h0.2
		h0.1h0.1h0.1h0.1h0.1h0.1h0.1h0h0h0H354.2z"/>
	<path class="st16" d="M131.4,399.9c62.2,0,110.2,0,110.2,0c0.4-5.3-1.9-10.3-6.1-13.5c-4.2-3.2-9.7-4-14.7-2.1
		c2.3-6.9-0.2-14.5-6.1-18.8c-5.9-4.3-13.9-4.3-19.7,0c0.5-5.5-1.9-10.9-6.3-14.3c-4.5-3.3-10.3-4.1-15.5-2
		c-2.5-5.6-7.8-9.4-13.8-10c-6.1-0.6-12,2.1-15.6,7c0.3-6.2-3.1-12-8.6-14.8c-5.6-2.8-12.2-2-17,1.9c0.1-6.9-3.6-13.4-9.6-16.8
		c-6-3.4-13.4-3.3-19.3,0.3c1.7-4.7,0.5-10-3-13.5c-3.6-3.5-8.9-4.6-13.6-2.8c0.1-7-5.2-12.9-12.2-13.6c-7-0.7-13.3,4.1-14.6,11
		c-1.4-3.2-4.1-5.7-7.5-6.8c-3.4-1.1-7-0.6-10,1.3c-0.5-3.8-3.2-6.9-6.9-7.9c-3.7-0.9-7.6,0.5-9.9,3.6c-2.9-3.8-7.7-5.7-12.4-5
		c-4.8,0.7-8.8,3.9-10.5,8.4c-4.4-6.2-11.9-9.5-19.5-8.5c-7.6,1-14,6-16.7,13.2c-9,19.9-7,35.1,5.7,45.6
		C84.8,380.5,131.4,399.9,131.4,399.9"/>
	<path class="st16" d="M340.8,399.9c229.8,0,344.8,0,344.8,0s0-42.2,0-126.7c-3.5-1.2-7.3-0.1-9.7,2.7c-2.4,2.8-2.9,6.7-1.3,10
		c-2.6-5.7-8.5-9.2-14.8-8.5c-6.2,0.7-11.3,5.3-12.6,11.5c-0.4-5.2-3.8-9.6-8.7-11.4c-4.9-1.8-10.3-0.7-14.1,2.9
		c-0.6-6.2-5.9-11-12.2-10.8c-6.3,0.2-11.3,5.2-11.5,11.5c-4-3.1-9.3-3.9-14.1-2.2c-4.8,1.7-8.3,5.8-9.4,10.7
		c-3.8-1.5-8.1-0.9-11.5,1.5c-3.3,2.4-5.2,6.3-5,10.4c-3.2-5.7-9.5-9-16-8.2c-6.5,0.8-11.9,5.4-13.7,11.7c-2.8-4.6-8.6-6.5-13.6-4.3
		c-5,2.1-7.6,7.5-6.3,12.8c-5.3-1.8-11.2,0.1-14.5,4.7c-3.3,4.6-3.3,10.7,0,15.3c-3.7-3.4-9-4.6-13.9-3.1c-4.8,1.5-8.5,5.5-9.6,10.5
		c-2.9-6.8-10.1-10.7-17.3-9.3c-7.3,1.4-12.6,7.6-12.7,15c-5-4-11.6-5.2-17.7-3.1c-6,2-10.6,7-12.2,13.2c-4.2-6.6-12.6-9.2-19.8-6.1
		c-7.2,3.1-11.1,11-9.1,18.6c-4.7-0.3-9.2,1.6-12.4,5.1c-3.1,3.5-4.5,8.2-3.8,12.9c-5.2-3.3-11.7-3.7-17.3-1
		C345.3,388.5,341.5,393.8,340.8,399.9"/>
	<path class="st17" d="M-26.5,338.1c-21,41.2-31.5,61.9-31.5,61.9s65.2,0,195.6,0c1.2-3.8,0.1-7.9-2.7-10.6c-2.9-2.7-7-3.6-10.7-2.2
		c1.1-5.3-1.2-10.8-5.8-13.7c-4.6-2.9-10.5-2.8-14.9,0.3c-1.7-3.7-5.1-6.4-9.1-7.3c-4-0.9-8.2,0.2-11.3,2.9
		c0.3-5.2-2.4-10.1-6.9-12.7c-4.5-2.6-10.1-2.4-14.5,0.5c1.4-4.5-0.4-9.3-4.4-11.8c-4-2.4-9.2-1.8-12.5,1.5c1.5-6.1-1.5-12.4-7.2-15
		c-5.7-2.6-12.5-0.8-16.1,4.3c0.6-3.1-0.8-6.3-3.5-8c-2.7-1.7-6.1-1.7-8.7,0.1c-1.4-3-4.1-5.3-7.3-6.2c-3.2-0.9-6.7-0.3-9.5,1.5
		C-20.1,333.2-26.5,338.1-26.5,338.1"/>
	<path class="st17" d="M427.4,399.9c172.1,0,258.1,0,258.1,0s0-31.6,0-94.8c-2.6-0.9-5.5-0.1-7.3,2c-1.8,2.1-2.2,5-1,7.5
		c-1.9-4.3-6.4-6.9-11.1-6.4c-4.7,0.5-8.5,4-9.4,8.6c-0.3-3.9-2.9-7.2-6.5-8.6c-3.6-1.4-7.7-0.5-10.5,2.2c-0.4-4.7-4.4-8.2-9.1-8.1
		c-4.7,0.2-8.5,3.9-8.6,8.6c-3-2.3-7-3-10.6-1.7c-3.6,1.3-6.2,4.3-7.1,8c-2.9-1.1-6.1-0.7-8.6,1.1c-2.5,1.8-3.9,4.7-3.8,7.8
		c-2.4-4.3-7.1-6.7-12-6.2c-4.9,0.6-8.9,4-10.3,8.8c-2.1-3.4-6.4-4.8-10.2-3.2c-3.7,1.6-5.7,5.6-4.7,9.6c-4-1.3-8.4,0.1-10.9,3.5
		c-2.5,3.4-2.5,8,0,11.4c-2.8-2.6-6.8-3.5-10.4-2.3c-3.6,1.1-6.4,4.1-7.2,7.9c-2.1-5.1-7.5-8-13-7c-5.4,1-9.4,5.7-9.5,11.2
		c-3.7-3-8.7-3.9-13.2-2.3c-4.5,1.5-8,5.2-9.1,9.9c-3.1-5-9.4-6.9-14.8-4.6c-5.4,2.3-8.3,8.2-6.8,13.9c-3.5-0.2-6.9,1.2-9.3,3.8
		c-2.3,2.6-3.4,6.2-2.8,9.6c-3.9-2.5-8.8-2.8-12.9-0.8C430.8,391.4,428,395.4,427.4,399.9"/>
	<path class="st18" d="M556.4,175.8c-1.2,12.6,2.1,18.1,2.1,18.1c3,5.3,7.3,7,10.9,6.3c1.2,2.1,2.3,4.2,3.5,6.3
		c-2.8-2.8-7.2-4.5-13.1-3.5c-8.4,1.5-18.3,8.4-18.3,8.4c-3.9,2.8-3.3,3.9-0.4,6.4c12.9,10.7,20.9,10.5,20.9,10.5
		c11.5,0.2,16-9,13.9-16.4c3.1,5.4,6.3,10.7,9.6,15.9c1.8,2.9,3.6,5.7,5.4,8.5c-2.6-1.5-6-2.3-10.1-2.1c-9.9,0.7-22.5,7.9-22.5,7.9
		c-5,2.9-4.4,4.3-1.4,7.8c13.3,14.7,22.7,15.5,22.7,15.5c13.3,1.7,19.9-8.8,18.6-18.1c3.3,4.9,6.6,9.7,10.1,14.4
		c0.5,0.7,1.5,0.8,2.1,0.3c0.7-0.5,0.8-1.5,0.3-2.1c-4.8-6.7-9.5-13.4-14-20.3c6.5,5.7,18.5,3.8,22.6-10.6c2.5-9.5,0.7-23,0.7-23
		c-0.8-5.3-2.1-5.1-5.8-3c-16.1,9.3-19.6,18-19.6,18c-2.4,5.2-2.6,9.7-1.4,13.2c-1.7-2.7-3.4-5.4-5.1-8.1c-2.2-3.6-4.5-7.2-6.6-10.9
		c7.3,5.1,19.2-0.3,17.2-15.1c-1.3-8.5-7.5-18.7-7.5-18.7c-2.5-4-3.5-3.4-5.8-0.4c-9.6,13.2-9.4,21.4-9.4,21.4
		c0,1.4,0.1,2.7,0.3,3.9c-1.4-2.4-2.7-4.8-4.1-7.3c4.1-2.6,5.9-8.9,0.6-15.7c-4.3-5.2-12.5-9.6-12.5-9.6
		C557.2,172.1,556.8,172.9,556.4,175.8"/>
	<path class="st19" d="M554,282.3c0.4-0.2,1-0.2,1.4-0.1c4-7.3,11.3-11.9,19.7-13.2c4.9-0.6,5.5,3.7-1.3,10.4
		c-4.8,4.5-11.4,6-17.6,6.2c-0.6,6.7-2.6,13.7-7.6,18.7c-8.1,7.7-13,6.9-12.2,1.2C538.3,295.3,544.4,286.6,554,282.3 M513,243.5
		c6.3-1.8,12.8-5.1,16.6-11c5.5-9,3.8-13.4-1.3-11.5c-8.7,3.6-15.3,10.6-17.6,19.6c-1.6-2-3.2-4.1-4.8-6.2c5-3.1,9.7-7.4,11.5-13.4
		c2.4-8.8-0.1-12-3.9-9.2c-6.1,4.9-9.8,11.9-9.8,19.6c-1.4-1.9-2.7-3.9-4.1-5.9c0.5-5.5-0.1-11.5-3.5-16.3c-5.4-7.3-9.5-7.3-9.6-2.6
		c0.1,8.4,3.8,16.1,10.6,20.8c1.1,1.6,2.2,3.2,3.3,4.8c-7.4-3.2-15.6-2.3-22.7,1.7c-4,2.5-1.9,6,7.2,6.9c6.4,0.5,12.3-2.5,17-6.2
		c0.1-0.1,0.1-0.1,0.2-0.2c1,1.4,2,2.7,3,4c-9-0.3-17.5,4.2-23.5,11.6c-3.3,4.4,0.2,7.3,10.1,4.4c6.7-2.1,11.8-7.6,15.5-13.4
		c2,2.6,4.1,5.1,6.1,7.4c-9,0.3-17.2,5.2-22.8,13c-3.1,4.6,0.6,7.3,10.4,3.8c6.6-2.5,11.3-8.3,14.7-14.3c1.2,1.4,2.4,2.7,3.6,3.9
		c-7.5,3-12.7,9.8-14.7,18.2c-1,4.7,2.9,5.6,9.6-0.3c4.4-4.1,6.3-10.1,7.1-15.8c2.6,2.7,5.3,5.2,8,7.5c-7.8,4-12.9,11.4-14.5,20.2
		c-0.7,5.1,3.7,5.8,10.9-1.1c4.4-4.4,6.2-10.5,6.7-16.4c2.6,2.2,5.3,4.2,8,6c-9,4.4-14.8,12.8-16.6,22.8c-0.8,5.7,4.1,6.5,12.2-1.2
		c5.2-5.2,7.1-12.5,7.6-19.4c1.5,1,3.1,1.9,4.6,2.8c0.7,0.4,1.7,0.2,2.1-0.6c0.4-0.7,0.2-1.7-0.6-2.1c-0.7-0.4-1.4-0.8-2.1-1.2
		c5.3-2.6,10.4-6.5,12.9-12.2c3.6-8.9,1.4-12.6-2.9-10.1c-7.4,4.6-12.3,11.9-12.9,20.5c-4.5-2.9-8.9-6.2-13.2-10
		c6-1.3,12.4-3.9,16.3-9.3c5.5-7.9,4.1-12-0.6-10.5c-8.5,3-15,9.4-17.4,18.1c0,0.1,0,0.1,0,0.2c-2.4-2.2-4.8-4.5-7.2-7
		c-0.6-0.6-1.2-1.3-1.8-1.9c6.2-0.8,12.7-2.9,17.2-7.8c6.6-7.6,5.6-12,0.5-11c-9,2.1-16.4,7.9-19.9,16.5
		C516.5,247.6,514.7,245.6,513,243.5z"/>
	<path class="st20" d="M515.4,329c32.4,18.9,43.2,19.5,32.3,1.9c-32.5-31.8-57.7-46-75.5-42.7c4.9,2.1,8.4,6.3,8.8,14.3
		c0.8,9.7,7.5,15.2,17.3,18.3C507.4,323.7,513.1,326.5,515.4,329"/>
	<path class="st21" d="M549.1,335.5c-0.8,1.7-1.1,2.6-1.1,2.6c-7.2-15.8-16.3-23.6-27.2-23.5c-9.6,0-16.2-2.3-20.2-10
		c-6.2-12.1-14.3-16.6-24.3-13.3c-9.9,3.3-18.3,2-27.2-7.4c-4.9-5-7-8.8-1.2-9.1C490.8,272.4,530.9,296.5,549.1,335.5"/>
	<path class="st20" d="M481.9,335.5c-27.6,16.3-43.1,28.1-46.6,35.2c20,4,34.1-0.5,42.6-13.6c9.5-4.1,14.3-6.1,14.3-6.1
		c3.5,2.4,7.1,3.8,10.8,4.2v0l0,0c0.6,0.1,1.2,0.1,1.7,0.1c7.8,0.3,13.3,5.1,16.8,12.9c27.4-0.8,50.2,5.4,50.2,5.4
		c-1-6.6-9.1-23.2-15-26.2C539.5,331.2,511,330.1,481.9,335.5"/>
	<path class="st21" d="M556.9,347.5c1.1,2.2,1.6,3.3,1.6,3.3c-7.9,3.5-17.3,1.5-28-6.1c-10.6-8.2-25.8-6.9-34.4,3.7
		c-7.4,9-17.2,16.2-28.6,13.1c-11.2-3.2-23.3-0.2-28.2,11c-7.6,17.5-14.1,16.9-19.6-1.8c-4.3-16,14.1-31.5,52.1-40.8
		C507.4,320.7,535.8,326.5,556.9,347.5"/>
	<path class="st22" d="M661.5,367c-19.4,5.4-28.6,16.4-27.4,32.8c0,0,12.4,0,37.2,0c6.2-1.4,11-3.3,14.2-5.9c0-21.2,0-31.8,0-31.8
		C677.2,361.1,668.8,362.8,661.5,367 M577.5,379.8c5.6,13.6,8.4,20.4,8.4,20.4s-12,0-36,0c-5.6-5.5-13.4-8.1-21.2-7
		c-13.5,2-27.6-1.4-37.6-10.9c-8.2-7.7-7.6-13.5-1.9-14c6.4-0.7,16.5-1.6,31.9-6.7C541.9,354.3,565,361.7,577.5,379.8z"/>
	<path class="st23" d="M582.8,394c0.5,0.7,0.3,1.7-0.4,2.2c-0.7,0.5-1.7,0.3-2.2-0.4c-5.6-8.4-13.6-14.3-22.6-17.4
		c-9-3.1-19-3.3-28.5,0l0,0l0,0c-5.4,1.8-10.7,2.7-15.8,2.8c-5.1,0.1-10.1-0.7-14.8-2.4c-0.8-0.3-1.3-1.2-1-2c0.3-0.8,1.2-1.3,2-1
		c4.4,1.6,9,2.3,13.7,2.3c4.8-0.1,9.7-0.9,14.9-2.6l0,0c10.2-3.4,20.9-3.3,30.5,0C568.3,378.6,576.9,385,582.8,394"/>
	<path class="st24" d="M660.4,223.9c-1.3,2.1-2.5,4.1-3.8,6.2c2.3-2.3,5.9-3.8,10.7-3.6c7.8,0.5,17.6,5.8,17.6,5.8l0.4,0.2v6.1
		c-10.5,10.6-17.6,11.2-17.6,11.2c-11,1.4-15.9-7.2-14.1-14.4c-4.4,8-8.3,16.1-11.5,24.4c2.6-2.6,6.5-4.6,11.8-5.2
		c10.2-1,24,3.9,24,3.9c5.4,2,5,3.5,2.4,7.4c-11.7,16.6-21.2,18.9-21.2,18.9c-12.7,3.7-20.6-4.4-21.3-13.2
		c-4.4,13.4-7.4,27.1-8.8,41.2c-0.1,0.8-0.8,1.5-1.7,1.4c-0.8-0.1-1.5-0.8-1.4-1.7c1.6-15.5,5-30.5,10.2-45.3
		c-5.8,5.4-15.8,6.2-22.9-3.4c0,0-5.9-7.3-5.1-26.8c0.3-4.5,0.9-5.9,6.2-4.2c0,0,13.4,4.4,20.6,11.1c3.8,3.6,5.6,7.5,5.9,11.1
		c2.5-5.8,5.2-11.6,8.2-17.4c-5.5,4.9-14.7,5.6-21.2-3.4c0,0-5.5-6.8-4.7-25c0.3-4.2,0.8-5.5,5.8-3.9c0,0,12.5,4.1,19.2,10.4
		c4.7,4.6,6.2,9.6,5.5,13.9c1.4-2.4,2.8-4.7,4.3-7.1c-4.6-3.4-6.7-10.3-1-17.3c4.7-5.5,14.2-9.9,14.2-9.9c3.8-1.7,4.3-0.7,4.9,2.6
		c2.2,14.3-1.5,20.1-1.5,20.1C670.6,224.3,665,225.6,660.4,223.9 M679.5,305.2c-15.2,13.4-25,13.5-25,13.5
		c-24.6,1.2-23.5-33.6,1.9-30.5c10.2,1.4,22.4,9.3,22.4,9.3C683.7,300.6,683,302,679.5,305.2z"/>
	<path class="st25" d="M611.3,399.9c18.4,0,27.6,0,27.6,0c0.6-7.7,4.7-14.4,11-19.1c16.5-12.2,26.8-27.3,31-45.4
		c1.1-5.1,2.7-8.1,4.6-10.5c0-13,0-19.5,0-19.5c-8.1,0.3-16,3.4-22.2,8.6c-3.2,2.6-6.9,4.5-11.7,5.7c-11.3,2.7-18.3,9-21,18.9
		C617.7,379.5,611.3,399.9,611.3,399.9"/>
	<path class="st23" d="M678.5,315.4c0.9-0.2,1.7,0.3,1.9,1.2c0.2,0.9-0.3,1.7-1.2,1.9c-4.4,1.1-8.1,6-10.3,9.7
		c-3.5,5.9-7.1,11.2-11.1,16.3c-4,5-8.5,9.8-13.8,14.4l0,0c-12.2,10.8-18.5,24.3-18.9,40.7c0,0.1,0,0.2,0,0.3h-3.1
		c0-0.1,0-0.3,0-0.4c0.4-17.3,7.1-31.7,20-43l0,0l0,0c5.2-4.5,9.5-9.1,13.4-14c3.9-4.9,7.4-10.1,10.9-15.9
		C669,322,673.1,316.7,678.5,315.4"/>
	<path class="st21" d="M592.3,312.7c-6.3,18.4,1.3,44.5,23.1,78.5c19.4-14.3,27.3-33.7,20.5-58.7c-3-10.7-2.4-17.1-0.4-23.9
		c3.1-11.9,0.9-22.9-6.6-33c-6.3-8.6-8.3-16.8-7.3-24.6c1.1-10-9.6-8.1-20.7,6.8c-6.4,8.9-8.5,19.7-6.4,32.2
		C596.1,299.5,595.1,307,592.3,312.7"/>
	<path class="st23" d="M685.6,373.2c-7.7,1-14.7,4.8-19.7,10.7c-3.2,3.7-6.5,7.4-9.9,10.7l0,0c-2,1.9-4,3.7-5.9,5.3h-5.4
		c2.9-1.9,6-4.5,9.1-7.6l0,0l0,0c3.3-3.2,6.5-6.8,9.7-10.5c5.6-6.6,13.5-10.9,22.1-11.8V373.2z"/>
	<path class="st23" d="M611.8,260.6c0.3-0.8,1.2-1.2,2-0.9c0.8,0.3,1.2,1.2,0.9,2c-1.6,4.3-2.6,8.6-2.7,13c-0.2,4.4,0.5,8.9,2,13.6
		l0,0l0,0c2.4,7.3,3.8,13.8,4.3,19.6c0.5,5.9-0.1,11-1.6,15.3l0,0c-2.8,7.7-4.6,14.4-5,20.2c-0.4,5.7,0.5,10.6,3.2,15.1
		c0.4,0.8,0.2,1.7-0.6,2.2c-0.8,0.4-1.7,0.2-2.2-0.6c-3-5.1-4.1-10.6-3.6-16.9c0.4-6.2,2.3-13.1,5.2-21.1l0,0l0,0
		c1.4-3.9,1.9-8.6,1.5-14c-0.4-5.5-1.8-11.8-4.1-18.9l0,0c-1.7-5.1-2.4-10-2.2-14.7C609.1,269.8,610.1,265.1,611.8,260.6"/>
	<path class="st26" d="M617.3,399.9c-23.5,0-35.3,0-35.3,0c-7.9-4.9-12.7-14.1-14.3-27.7c-0.9-6.9-4.4-13.6-11.4-20.3
		c-10.9-10-14.6-23.4-10.7-43.2c1-4.4,1.8-14.7,2.4-31.1c0.2-18.4,12.8-21.6,18.3-3.2c2.2,7.4,7.8,14.4,16.6,20.8
		c6,4.5,8.6,9.5,9.5,19.3c0.8,9,3.7,16.6,12.2,24.5C615.6,349.1,619.8,369.4,617.3,399.9"/>
	<path class="st23" d="M601.2,399.9L601.2,399.9l-3.2,0l0-0.1c0.2-16.5-4-31.9-13.4-45.6l0,0c-3.7-5.3-6.6-10.2-8.6-14.8
		c-2-4.7-3.1-9.1-3.3-13.6h0c-0.2-4.9-1-8.9-2.3-12.4c-1.3-3.6-3.1-6.8-5.5-10.1l0,0c-6.6-8.9-10.1-18.8-9.2-29.9
		c0.1-0.9,0.8-1.5,1.7-1.5c0.9,0.1,1.5,0.8,1.5,1.7c-0.8,10.4,2.5,19.6,8.6,27.9c2.5,3.5,4.5,6.9,5.9,10.8c1.4,3.9,2.2,8.2,2.5,13.4
		h0l0,0c0.1,4,1.1,8.1,3,12.4c1.9,4.4,4.7,9.1,8.3,14.2l0,0l0,0C597.1,366.7,601.5,382.7,601.2,399.9"/>
	<path class="st3" d="M478.9,337.8c1.3,0,2.3,1,2.3,2.3c0,1.3-1,2.3-2.3,2.3c-1.3,0-2.3-1-2.3-2.3
		C476.6,338.8,477.7,337.8,478.9,337.8"/>
	<path class="st3" d="M564.2,344.7c0.9,0,1.6,0.7,1.6,1.6c0,0.9-0.7,1.6-1.6,1.6c-0.9,0-1.6-0.7-1.6-1.6
		C562.6,345.4,563.3,344.7,564.2,344.7"/>
	<path class="st3" d="M652.9,379.8c0.9,0,1.6,0.7,1.6,1.6c0,0.9-0.7,1.6-1.6,1.6s-1.6-0.7-1.6-1.6
		C651.3,380.5,652,379.8,652.9,379.8"/>
	<path class="st3" d="M498.2,387.2c0.6,0,1.1,0.5,1.1,1.1c0,0.6-0.5,1.1-1.1,1.1c-0.6,0-1.1-0.5-1.1-1.1
		C497.1,387.7,497.6,387.2,498.2,387.2"/>
	<path class="st3" d="M340.9,374.1c0.9,0,1.6,0.7,1.6,1.6c0,0.9-0.7,1.6-1.6,1.6c-0.9,0-1.6-0.7-1.6-1.6
		C339.4,374.8,340.1,374.1,340.9,374.1"/>
	<path class="st3" d="M610.1,220.4c0.8,0,1.5,0.7,1.5,1.5c0,0.8-0.7,1.5-1.5,1.5c-0.8,0-1.5-0.7-1.5-1.5
		C608.6,221,609.3,220.4,610.1,220.4"/>
	<path class="st3" d="M653.7,268.9c0.7,0,1.2,0.6,1.2,1.2c0,0.7-0.6,1.2-1.2,1.2c-0.7,0-1.2-0.6-1.2-1.2
		C652.4,269.4,653,268.9,653.7,268.9"/>
	<path class="st3" d="M501.9,258.3c0.7,0,1.2,0.6,1.2,1.2c0,0.7-0.6,1.2-1.2,1.2s-1.2-0.6-1.2-1.2
		C500.7,258.8,501.2,258.3,501.9,258.3"/>
	<path class="st18" d="M40.8,285.9c0.7,7.5-1.3,10.7-1.3,10.7c-1.8,3.2-4.3,4.1-6.5,3.7c-0.7,1.3-1.4,2.5-2.1,3.7
		c1.6-1.7,4.2-2.6,7.7-2.1c5,0.9,10.9,5,10.9,5c2.3,1.6,1.9,2.3,0.2,3.8c-7.6,6.4-12.4,6.2-12.4,6.2c-6.8,0.1-9.5-5.3-8.2-9.7
		c-1.8,3.2-3.7,6.3-5.7,9.4c-1.1,1.7-2.1,3.4-3.2,5.1c1.6-0.9,3.5-1.3,6-1.2c5.9,0.4,13.3,4.7,13.3,4.7c2.9,1.7,2.6,2.6,0.8,4.6
		C32.6,338.6,27,339,27,339c-7.9,1-11.8-5.2-11-10.7c-1.9,2.9-3.9,5.7-6,8.5c-0.3,0.4-0.9,0.5-1.3,0.2c-0.4-0.3-0.5-0.9-0.2-1.3
		c2.8-3.9,5.6-7.9,8.3-12c-3.8,3.4-10.9,2.3-13.4-6.3C1.9,311.8,3,303.8,3,303.8c0.4-3.2,1.2-3,3.5-1.8c9.5,5.5,11.6,10.7,11.6,10.7
		c1.4,3.1,1.5,5.7,0.8,7.8c1-1.6,2-3.2,3-4.8c1.3-2.1,2.6-4.3,3.9-6.5c-4.3,3-11.4-0.2-10.2-8.9c0.8-5.1,4.4-11.1,4.4-11.1
		c1.5-2.4,2.1-2,3.4-0.2c5.7,7.8,5.6,12.7,5.6,12.7c0,0.8,0,1.6-0.2,2.3c0.8-1.4,1.6-2.9,2.4-4.3c-2.4-1.6-3.5-5.3-0.3-9.3
		c2.5-3.1,7.4-5.7,7.4-5.7C40.3,283.7,40.6,284.2,40.8,285.9"/>
	<path class="st19" d="M-1.1,267.9c-5.2-1.5-10.4-4.2-13.5-9c-4.5-7.3-3.1-11,1.1-9.4c7.1,3,12.5,8.6,14.4,16
		c1.3-1.6,2.6-3.3,3.9-5.1c-4-2.5-7.9-6.1-9.4-10.9c-1.9-7.1,0.1-9.8,3.2-7.5c5,4,8,9.7,8,16c1.1-1.6,2.2-3.2,3.3-4.8
		c-0.4-4.5,0.1-9.4,2.9-13.3c4.4-5.9,7.7-6,7.8-2.1c-0.1,6.8-3.1,13.1-8.7,16.9c-0.9,1.3-1.8,2.6-2.7,3.9c6-2.6,12.7-1.9,18.5,1.4
		c3.2,2,1.5,4.9-5.8,5.6c-5.2,0.4-10-2.1-13.9-5c-0.1,0-0.1-0.1-0.1-0.1c-0.8,1.1-1.6,2.2-2.4,3.3c7.4-0.2,14.3,3.4,19.2,9.5
		c2.7,3.6-0.1,5.9-8.2,3.6c-5.5-1.7-9.6-6.2-12.6-10.9c-1.6,2.1-3.3,4.1-5,6.1c7.4,0.2,14,4.3,18.6,10.6c2.5,3.7-0.5,5.9-8.4,3.1
		c-5.4-2-9.2-6.8-11.9-11.6c-1,1.1-2,2.2-3,3.2c6.1,2.5,10.3,8,12,14.8c0.8,3.8-2.3,4.6-7.8-0.3c-3.6-3.3-5.1-8.2-5.8-12.9
		c-2.2,2.2-4.3,4.2-6.5,6.2c6.4,3.2,10.5,9.3,11.8,16.4c0.6,4.1-3,4.7-8.9-0.9c-3.6-3.6-5-8.6-5.5-13.4c-2.1,1.8-4.3,3.4-6.5,4.9
		c7.3,3.6,12,10.5,13.5,18.5c0.6,4.1-2.5,5.1-7.7,0.9c0.1-0.9,0.2-1.8,0.2-2.6c0-6.2-3.5-11.6-8.6-14.4c0-0.2,0-0.5-0.1-0.7
		l-0.6,0.4c-0.9-0.5-1.9-0.8-3-1.1l0.3-0.2c-4.3-2.1-8.5-5.3-10.5-10c-2.9-7.3-1.1-10.3,2.4-8.3c6,3.8,10,9.7,10.5,16.7
		c3.6-2.4,7.2-5.1,10.8-8.2c-4.9-1.1-10.1-3.2-13.2-7.6c-4.5-6.4-3.4-9.8,0.5-8.6c6.9,2.4,12.3,7.7,14.1,14.8c0,0,0,0.1,0,0.1
		c2.6-2.3,5-4.8,7.4-7.3c-5.1-0.6-10.4-2.3-14-6.4c-5.4-6.2-4.6-9.8-0.4-9c7.3,1.7,13.4,6.5,16.2,13.4C-4,271.3-2.5,269.6-1.1,267.9
		"/>
	<path class="st27" d="M-42.1,228.6c14-0.4,24.9,0.9,32.5,5.7c4,2.7,3.1,3.4-2.7,2.8c-9.3-0.9-19.9-3.4-30.9-7.3l-0.1,0
		c-2.5,2.6-4.8,5.2-7.1,7.9c13.7-1,24.4-0.4,32.1,4c4.1,2.5,3.3,3.2-2.5,3c-9.2-0.4-19.8-2.3-30.9-5.5c-2.6,3.1-5.1,6.3-7.5,9.4
		c12.8-3.1,22.9-3.6,30.5,0.7c4.2,2.6,3.4,3.7-2.4,4.3c-9,0.8-19.3,0.1-30.1-2.2c-2.2,3.1-4.3,6.2-6.3,9.5
		c13.3-3.3,23.7-3.9,31.4,0.5c4.2,2.6,3.4,3.7-2.4,4.3c-9.1,0.9-19.5,0.1-30.5-2.3c-1.9,3.1-3.6,6.2-5.2,9.4
		c12.1-3.1,21.6-3.8,28.6,0.1c3.7,2.3,3,3.3-2.1,3.7c-8.2,0.8-17.5,0-27.4-2.2c-3.2,6.4-5.9,12.8-8.2,19.4c-0.8-0.6-1.8-1.1-2.7-1.6
		c1.2-3.6,2.6-7.1,4.1-10.6l0,0c-1.4-1.8-2.7-3.6-4-5.4v-9.9c1.8,3.9,3.3,8.5,4.7,13.8c1.6-3.6,3.4-7.2,5.3-10.7l-0.2-0.3
		c-3.8-4.9-7-9.8-9.8-14.6v-10.2c4.6,5.2,7.8,13.2,10.7,23.8c1.8-3.3,3.8-6.7,5.9-9.9c-0.2-0.2-0.5-0.5-0.7-0.8
		c-6.5-8.4-11.9-17-15.8-25.2v-8.7l0.2,0.1c7.8,5.9,12.7,17.4,17,33.4l0.1,0.2c1.5-2.3,3-4.5,4.6-6.8c0-0.1,0.1-0.2,0.2-0.3l0.4-0.5
		l-0.2-0.3c-5.2-11.4-8.7-22.7-10.4-32.9c-1-6.3-0.3-7.5,3-3.7c6.1,7.4,8.2,19.3,8.8,35.2c2.5-3.4,5.2-6.8,8-10.1
		c-4.2-9.4-6.8-18.7-7.7-27c-0.5-5.2,0.3-6.1,3.3-2.9c5.3,6.1,6.6,15.5,6,27.9c2.1-2.4,4.2-4.8,6.4-7.2l0,0
		c-4.8-10.6-7.7-21-8.7-30.3c-0.6-5.8,0.3-6.8,3.7-3.2c6,6.9,7.4,17.6,6.6,31.8c2-2.1,4.1-4.2,6.3-6.3c-1.2-11.2-0.9-21.6,0.9-30.6
		c1.2-5.7,2.3-6.4,4.5-1.9c3.4,7.7,2,17.4-2.1,29.4c2-1.9,4.1-3.8,6.2-5.6c0-9.4,1.2-18,3.5-25.2c1.5-4.6,2.5-5.1,3.9-1.2
		c2.2,6.8,0.1,14.9-4.6,24.7c0.1,0,0.3,0.1,0.4,0.1c10.6-8.9,19.8-14.6,28.9-15.6c4.9-0.4,4.6,0.6-0.2,3.7
		c-7.6,4.9-16.3,9.8-27,13.6c-0.5,0.3-0.9,0.6-1.3,0.9l-1.3,1.1c11.1-3.6,20-5,27-2.6c3.8,1.4,3.1,2.3-1.6,3.1
		c-7.7,1.4-16.8,1.8-26.5,1c-0.2,0-0.4,0-0.5-0.1c-2.4,2.2-4.8,4.3-7.1,6.5c13.6-2.8,24.3-3.7,32.5-0.8c4.4,1.7,3.5,2.5-2.2,3
		c-9.3,0.9-20.1,0.6-31.5-0.8l-0.2,0C-38.6,225-40.4,226.8-42.1,228.6"/>
	<path class="st21" d="M-86,291.9c0.1,54.3,0.1,81.5,0.1,81.5c23.4-15,41.9-44.1,47.1-87.3c0.7-6.6,1.7-12.8,5.5-18.2
		c4.5-6.3-0.2-9.9-7.1-8.5C-59.5,263.1-75.1,275.7-86,291.9"/>
	<path class="st21" d="M-11.1,339.1c-22.3,9.9-30.2,23.2-23.6,39.9c-6.6,0.6-5.3,7.6,4,20.9c0,0,21.9,0,65.6,0
		c10.4-2.1,12.6-9.9,8.2-12.7c11.2-4,14.8-15.1,6.6-19.4c10.5-7.5,8-21.3-2-24.5c3.5-17.4-2.7-22.2-18.5-14.6
		c-5.9-7.4-13.4-6.4-22.2,2.9C0.9,328.2-5.1,330.7-11.1,339.1"/>
	<path class="st23" d="M-26.3,356.5c-0.1-0.8,0.4-1.6,1.3-1.8c0.8-0.1,1.6,0.4,1.8,1.3l7.1,43.5c0,0.2,0,0.3,0,0.5h-3L-26.3,356.5z
		 M-7.3,396.1l41.5-7c0.8-0.1,1.6,0.4,1.8,1.3c0.1,0.8-0.4,1.6-1.3,1.8l-44.7,7.5l-0.2,0.3h-3.9L-4,386.7l-4.4-46.9
		c-0.1-0.8,0.5-1.6,1.4-1.7c0.8-0.1,1.6,0.5,1.7,1.4l4.1,43.5l4.8-6.3l0.1-0.1l8.3-11l-0.9-33.6c0-0.8,0.7-1.6,1.5-1.6
		c0.8,0,1.6,0.7,1.6,1.5l0.8,29.7l23.4-30.9c0.5-0.7,1.5-0.8,2.2-0.3c0.7,0.5,0.8,1.5,0.3,2.2l-16.7,22.1l25.3-2.8
		c0.8-0.1,1.6,0.5,1.7,1.4c0.1,0.8-0.5,1.6-1.4,1.7l-28.2,3.1L8.2,375.7l32.4-3.9c0.8-0.1,1.6,0.5,1.7,1.3c0.1,0.8-0.5,1.6-1.4,1.7
		l-35.4,4.3L-7.3,396.1z"/>
	<path class="st26" d="M-86,399.9c27.9,0,41.8,0,41.8,0c13-1.7,15.3-12,3.4-17.1c27.8-9.2,37.1-28.4,21.5-32.5
		C1.8,339.1,7,321.9-6.4,322c12-8.4,11.2-23,2.2-22.2c10.6-14.2,0.3-25.7-11-7.8c-5.5-7.1-16-2.2-19.8,13c-8.6-8-19.4-0.8-17.7,24.9
		c-13-9.2-24.2,2.3-19.8,34.1c-6.1-6.1-12.5-1.6-13.4,11C-86,391.6-86,399.9-86,399.9"/>
	<path class="st23" d="M-8,289.7c0.5-0.7,1.4-0.9,2.1-0.4c0.7,0.5,0.9,1.4,0.4,2.1C-48,353.7-74,390.6-80.7,400.1h-3.8
		C-80.7,394.7-54,357.1-8,289.7"/>
	<path class="st23" d="M-41.9,266.7c0.6-0.6,1.6-0.6,2.2,0.1c0.6,0.6,0.6,1.6-0.1,2.2c-14.6,13.7-26.3,28.7-35.2,44.8
		c-4.3,7.8-7.9,15.9-10.9,24.2v-8.6c2.4-5.8,5.1-11.5,8.2-17.1C-68.6,295.9-56.7,280.7-41.9,266.7"/>
	<path class="st3" d="M-66.3,325.9c1,0,1.7,0.8,1.7,1.7s-0.8,1.7-1.7,1.7c-1,0-1.7-0.8-1.7-1.7S-67.2,325.9-66.3,325.9"/>
	<path class="st3" d="M-40.6,353.8c0.8,0,1.5,0.6,1.5,1.5c0,0.8-0.7,1.5-1.5,1.5c-0.8,0-1.5-0.6-1.5-1.5
		C-42.1,354.5-41.4,353.8-40.6,353.8"/>
	<path class="st3" d="M26.8,365.5c0.6,0,1,0.4,1,1c0,0.6-0.4,1-1,1c-0.6,0-1-0.4-1-1C25.8,366,26.2,365.5,26.8,365.5"/>
	<path class="st3" d="M-55.7,380.7c0.5,0,0.9,0.4,0.9,0.9c0,0.5-0.4,0.9-0.9,0.9c-0.5,0-0.9-0.4-0.9-0.9
		C-56.5,381.1-56.1,380.7-55.7,380.7"/>
	<path class="st3" d="M-46.9,287c0.7,0,1.2,0.6,1.2,1.2c0,0.7-0.6,1.2-1.2,1.2c-0.7,0-1.2-0.6-1.2-1.2
		C-48.1,287.6-47.6,287-46.9,287"/>
	<path class="st3" d="M27.6,323.4c0.5,0,0.9,0.4,0.9,0.9c0,0.5-0.4,0.9-0.9,0.9c-0.5,0-0.9-0.4-0.9-0.9
		C26.7,323.8,27.1,323.4,27.6,323.4"/>
	<path class="st3" d="M-67.3,232c0.7,0,1.2,0.5,1.2,1.2c0,0.7-0.5,1.2-1.2,1.2c-0.7,0-1.2-0.5-1.2-1.2
		C-68.5,232.5-67.9,232-67.3,232"/>
	<path class="st3" d="M91.4,375.4c0.8,0,1.4,0.6,1.4,1.4s-0.6,1.4-1.4,1.4c-0.8,0-1.4-0.6-1.4-1.4S90.6,375.4,91.4,375.4"/>
	<path class="st3" d="M138.4,373.6c0.6,0,1,0.4,1,1c0,0.6-0.4,1-1,1c-0.6,0-1-0.4-1-1C137.4,374,137.8,373.6,138.4,373.6"/>
	<path class="st3" d="M648.1,164c0.8,0,1.5,0.7,1.5,1.5c0,0.8-0.7,1.5-1.5,1.5c-0.8,0-1.5-0.7-1.5-1.5
		C646.6,164.7,647.3,164,648.1,164"/>
	<path class="st3" d="M417.5,310.2c0.7,0,1.3,0.6,1.3,1.3c0,0.7-0.6,1.3-1.3,1.3c-0.7,0-1.3-0.6-1.3-1.3
		C416.2,310.8,416.8,310.2,417.5,310.2"/>
	<path class="st3" d="M135.1,326.8c1.3,0,2.3,1,2.3,2.3c0,1.3-1,2.3-2.3,2.3c-1.3,0-2.3-1-2.3-2.3
		C132.8,327.9,133.9,326.8,135.1,326.8"/>
	<path class="st3" d="M577.1,270.3c9.5-4.7,18.7-5.4,20.5-1.7c1.8,3.7-4.4,10.5-13.9,15.1c-9.5,4.7-18.7,5.4-20.5,1.7
		S567.6,274.9,577.1,270.3"/>
	<path class="st17" d="M578.8,273.8c4.5-2.2,8.9-2.6,9.8-0.8c0.9,1.8-2.1,5-6.7,7.2c-4.5,2.2-8.9,2.6-9.8,0.8
		C571.3,279.2,574.2,276,578.8,273.8"/>
	<path class="st3" d="M626.9,280c6.5-3.2,12.8-3.7,14.1-1.2c1.2,2.5-3,7.2-9.6,10.4c-6.5,3.2-12.8,3.7-14.1,1.2
		C616.1,287.8,620.3,283.2,626.9,280"/>
	<path class="st17" d="M628,282.4c3.1-1.5,6.1-1.8,6.7-0.6c0.6,1.2-1.5,3.4-4.6,5c-3.1,1.5-6.1,1.8-6.7,0.6
		C622.9,286.1,624.9,283.9,628,282.4"/>
	<path class="st3" d="M551.9,306.9c7.2-0.6,13.3,1.2,13.5,4.1c0.2,2.8-5.5,5.6-12.7,6.1c-7.2,0.6-13.3-1.2-13.5-4.1
		C539,310.2,544.7,307.4,551.9,306.9"/>
	<path class="st17" d="M552.1,309.5c3.5-0.3,6.4,0.6,6.5,1.9c0.1,1.3-2.6,2.7-6.1,2.9c-3.5,0.3-6.4-0.6-6.5-1.9
		C546,311.1,548.7,309.8,552.1,309.5"/>
	<path class="st3" d="M547,343.9c5.7-2.8,11.2-3.3,12.3-1c1.1,2.2-2.7,6.3-8.4,9.1c-5.7,2.8-11.2,3.3-12.3,1
		C537.5,350.7,541.3,346.7,547,343.9"/>
	<path class="st17" d="M548,346c2.7-1.3,5.4-1.6,5.9-0.5c0.5,1.1-1.3,3-4,4.4c-2.7,1.3-5.4,1.6-5.9,0.5
		C543.5,349.3,545.3,347.3,548,346"/>
	<path class="st3" d="M-45.4,306.4c7,4.1,11.4,9.6,9.8,12.3c-1.6,2.7-8.6,1.6-15.6-2.4c-7-4.1-11.4-9.6-9.8-12.3
		C-59.4,301.3-52.4,302.4-45.4,306.4"/>
	<path class="st17" d="M-46.9,309c3.4,1.9,5.5,4.6,4.7,5.9c-0.8,1.3-4.1,0.8-7.4-1.2c-3.4-1.9-5.5-4.6-4.7-5.9
		C-53.6,306.5-50.3,307.1-46.9,309"/>
	<path class="st3" d="M-8,321.7c5.6,3.3,9.1,7.7,7.9,9.9c-1.3,2.2-6.9,1.3-12.5-1.9c-5.6-3.3-9.1-7.7-7.9-9.9
		C-19.2,317.5-13.6,318.4-8,321.7"/>
	<path class="st17" d="M-9.2,323.7c2.7,1.6,4.4,3.7,3.8,4.7c-0.6,1-3.3,0.6-6-0.9c-2.7-1.6-4.4-3.7-3.8-4.7
		C-14.6,321.8-11.9,322.2-9.2,323.7"/>
	<path class="st3" d="M-58.6,340.5c4.4,2.6,7.2,6,6.2,7.8c-1,1.7-5.4,1-9.8-1.5c-4.4-2.6-7.2-6-6.2-7.8
		C-67.4,337.3-63,338-58.6,340.5"/>
	<path class="st17" d="M-59.5,342.1c2.1,1.2,3.4,2.9,3,3.7c-0.5,0.8-2.6,0.5-4.7-0.7c-2.1-1.2-3.4-2.9-3-3.7
		C-63.7,340.6-61.6,340.9-59.5,342.1"/>
	<path class="st28" d="M161.9,47.7c-5.3-3-8-4.6-8-4.6c6.2,5.6,9.2,8.4,9.2,8.4c1.2-7.6,1.8-11.4,1.8-11.4
		C162.9,45.2,161.9,47.7,161.9,47.7"/>
	<path class="st28" d="M121,85.8c-6.6-3.8-9.9-5.6-9.9-5.6c7.6,7,11.4,10.4,11.4,10.4c1.5-9.4,2.2-14.1,2.2-14.1
		C122.2,82.7,121,85.8,121,85.8"/>
	<path class="st28" d="M238.9,89.5c-4.4-2.5-6.5-3.7-6.5-3.7c5.1,4.6,7.6,6.9,7.6,6.9c1-6.2,1.5-9.3,1.5-9.3
		C239.8,87.4,238.9,89.5,238.9,89.5"/>
</g>
</svg>
