<?xml version="1.0" encoding="utf-8"?>
<!-- Generator: Adobe Illustrator 25.2.0, SVG Export Plug-In . SVG Version: 6.00 Build 0)  -->
<svg version="1.1" id="Layer_1" xmlns="http://www.w3.org/2000/svg" xmlns:xlink="http://www.w3.org/1999/xlink" x="0px" y="0px"
	 viewBox="0 0 600 400" style="enable-background:new 0 0 600 400;" xml:space="preserve">
<style type="text/css">
	.st0{fill-rule:evenodd;clip-rule:evenodd;fill:#FFFFFF;}
	.st1{filter:url(#Adobe_OpacityMaskFilter);}
	.st2{fill:url(#SVGID_2_);}
	.st3{mask:url(#SVGID_1_);fill-rule:evenodd;clip-rule:evenodd;fill:#F3FAFC;}
	.st4{fill-rule:evenodd;clip-rule:evenodd;fill:#D8EFF6;}
	.st5{fill-rule:evenodd;clip-rule:evenodd;fill:#C5E4F0;}
	.st6{fill-rule:evenodd;clip-rule:evenodd;fill:#A9D2E1;}
	.st7{fill-rule:evenodd;clip-rule:evenodd;fill:#8CBCCD;}
	.st8{fill-rule:evenodd;clip-rule:evenodd;fill:#3E8DAA;}
	.st9{fill-rule:evenodd;clip-rule:evenodd;fill:#C2DFEA;}
	.st10{fill-rule:evenodd;clip-rule:evenodd;fill:#E6F4F8;}
	.st11{fill-rule:evenodd;clip-rule:evenodd;fill:#387390;}
	.st12{fill-rule:evenodd;clip-rule:evenodd;fill:#9DD0E2;}
	.st13{fill-rule:evenodd;clip-rule:evenodd;fill:#63B3C3;}
	.st14{fill-rule:evenodd;clip-rule:evenodd;fill:#377F98;}
	.st15{fill-rule:evenodd;clip-rule:evenodd;fill:#CC6747;}
	.st16{fill-rule:evenodd;clip-rule:evenodd;fill:#19586F;}
	.st17{fill-rule:evenodd;clip-rule:evenodd;fill:#142233;}
	.st18{fill-rule:evenodd;clip-rule:evenodd;fill:#4B879D;}
	.st19{fill-rule:evenodd;clip-rule:evenodd;fill:#59808E;}
	.st20{fill-rule:evenodd;clip-rule:evenodd;fill:#699EB1;}
	.st21{fill-rule:evenodd;clip-rule:evenodd;fill:#FFE188;}
	.st22{fill:#FFE188;}
	.st23{fill-rule:evenodd;clip-rule:evenodd;fill:#F3FAFC;}
	.st24{fill-rule:evenodd;clip-rule:evenodd;fill:#D4E8EF;}
	.st25{fill-rule:evenodd;clip-rule:evenodd;fill:#D4ECF4;}
</style>
<g>
	<rect x="-85.8" y="0" class="st0" width="771.7" height="118.7"/>
	<defs>
		<filter id="Adobe_OpacityMaskFilter" filterUnits="userSpaceOnUse" x="-85.8" y="0" width="771.7" height="118.7">
			<feColorMatrix  type="matrix" values="1 0 0 0 0  0 1 0 0 0  0 0 1 0 0  0 0 0 1 0"/>
		</filter>
	</defs>
	<mask maskUnits="userSpaceOnUse" x="-85.8" y="0" width="771.7" height="118.7" id="SVGID_1_">
		<g class="st1">
			
				<linearGradient id="SVGID_2_" gradientUnits="userSpaceOnUse" x1="8.5018" y1="633.5195" x2="-27.0799" y2="462.7221" gradientTransform="matrix(1 0 0 1 314.3132 -464.8961)">
				<stop  offset="0" style="stop-color:#000000"/>
				<stop  offset="1" style="stop-color:#FFFFFF"/>
			</linearGradient>
			<rect x="-85.8" y="0" class="st2" width="771.7" height="118.7"/>
		</g>
	</mask>
	<rect x="-85.8" y="0" class="st3" width="771.7" height="118.7"/>
	<path class="st0" d="M138.1,13.1c45.7,0,82.8,37.1,82.8,82.8s-37.1,82.8-82.8,82.8c-45.7,0-82.8-37.1-82.8-82.8
		S92.4,13.1,138.1,13.1"/>
	<path class="st4" d="M685.9,0c0,45.5,0,68.2,0,68.2C451,203.1,193.8,205-85.8,73.8c0,0,0-20.7,0-62.1
		C26.3,54.9,82.4,76.5,82.4,76.5c68.3,18.1,102.4,27.1,102.4,27.1c77.3-0.5,116-0.8,116-0.8c93.9-17.6,140.9-26.4,140.9-26.4
		C531.3,50.7,576,37.8,576,37.8C617,12.6,637.5,0,637.5,0C669.8,0,685.9,0,685.9,0"/>
	<path class="st5" d="M685.9,27.9c0,53.7,0,80.5,0,80.5s-180.1,40.7-540.3,122c0,0-77.1-47-231.3-141.1c0,0,0-10.4,0-31.2
		c0,0,52.5,20,157.5,59.9c0,0,34,6.6,101.9,19.7c0,0,20.5,0.5,61.6,1.5c109.3-27.1,163.9-40.6,163.9-40.6
		c76-10.3,114.1-15.4,114.1-15.4C628.3,46.4,685.9,27.9,685.9,27.9"/>
	<path class="st6" d="M685.9,54.8c0,35.8,0,53.7,0,53.7s-99.7,44.7-299.2,134.2c-19.8,23.8-100.1,29.9-240.7,18.5
		c0,0-77.2-49.1-231.7-147.2c0,0,0-16.4,0-49.2c0,0,45.9,23.8,137.7,71.4c0,0,10.7,10.5,32.2,31.5c0,0,42.7,12.9,128,38.7
		c0,0,15.8-0.8,47.4-2.4c76.5-35.8,114.7-53.7,114.7-53.7c31.6-23.4,47.4-35.2,47.4-35.2c98.2-14.6,147.3-21.9,147.3-21.9
		c64.5-24.1,96.8-36.2,96.8-36.2C679.1,55.6,685.9,54.8,685.9,54.8"/>
	<path class="st7" d="M685.9,161C462.4,314.5,262.5,359.4,86.1,295.9c0,0-57.3-45-171.9-134.9c0,0,0-18.7,0-56.1
		c0,0,44.6,19.1,133.7,57.3c0,0,14.4,15.7,43.2,47.1c0,0,18.1,7.1,54.4,21.2c0,0,36.4,8.8,109.1,26.4
		c68.7-14.6,103.1-21.9,103.1-21.9c15.1-12.7,22.6-19.1,22.6-19.1c36.3-17.4,54.4-26.1,54.4-26.1c19.8-19.3,29.7-29,29.7-29
		c82.9-23.1,124.3-34.6,124.3-34.6c46.1-29.7,69.2-44.5,69.2-44.5c18.7-2.9,28-4.3,28-4.3C685.9,133.2,685.9,161,685.9,161"/>
	<path class="st8" d="M685.9,161c-0.1,106.1-0.1,159.1-0.1,159.1s-257.2-3.1-771.6-9.4c0,0,0-55.9-0.1-167.7
		c0,0,50.1,22.5,150.2,67.5c0,0,20.3,19.1,60.9,57.4c0,0,42.7,6.8,128,20.3c85.3-15.9,128-23.8,128-23.8
		c46.5-32.4,69.7-48.6,69.7-48.6C607.6,179.3,685.9,161,685.9,161"/>
	<rect x="-85.8" y="284.6" class="st9" width="771.7" height="115.2"/>
	<path class="st10" d="M198.1,245.7l-6.7-40.9l13.3-66.3l-0.9-7.1c4.8,0.9,9.8,1.4,14.9,1.4c6,0,16,5.2,18.2-0.5l9.6-25
		c5.8-0.5,8.4,22.6,14.2,20.7l4.1-1.4c3.2-0.7,6.3-1.4,9.4-2.3c5.8-1.7,11.6-3.5,17.5-5.2c2-0.6,4-1.3,6-1.9c2.7-0.3,5.5-0.6,8.2-1
		l5,25l3.2,61.9c-8,11-13.2,24.1-14.5,38.4l-0.8,1.6c-0.5,0.8-1,1.5-1.5,2.3c-1.5,2.1-2.9,4.4-4.3,6.7L291,253
		c-2.3,0.7-4.7,1.4-7,2.3c-1.3,0.4-2.6,0.8-3.9,1.2c-3.7,0.7-7.3,1.6-10.9,2.9c-3.9,0.9-7.7,2.1-11.4,3.6l-0.5,0.1
		c-1.3,0.1-2.5,0.3-3.8,0.5c-1.9,0.2-3.9,0.5-5.8,0.9c-2.6,0.2-5.2,0.5-7.8,1l-0.9,0.1c-2.7-1.5-5.4-2.9-8.3-4.1
		C221,253.4,209.8,248.2,198.1,245.7"/>
	<path class="st10" d="M113.5,256.9c1.5,1.4,2.3,2.2,2.3,2.2s6-11.1,18-33.2c0,0,14-10.2,42-30.5c0,0,2.3-18.1,6.8-54.4
		c0,0,3.3-12.5,9.9-37.5c-3.1,0-4.6,0-4.6,0c-10.9,23.9-16.3,35.9-16.3,35.9c-7.9,34.1-11.9,51.1-11.9,51.1
		c-22.5,21.5-33.7,32.3-33.7,32.3C117.7,245.6,113.5,256.9,113.5,256.9"/>
	<path class="st10" d="M393.6,256.4c-17.1,18.8-25.6,28.2-25.6,28.2s-4.1,0-12.3,0c0,0,3.4-5.6,10.1-16.9c0,0,3.4-15.6,10.2-46.9
		c0,0-7.2-19.6-21.7-58.8c0,0-12.8-12.4-38.3-37.3c0,0-3.6-7.6-10.8-22.9c3-0.4,4.5-0.6,4.5-0.6c9.2,14.6,13.8,21.8,13.8,21.8
		c29.3,23.3,43.9,34.9,43.9,34.9c19.1,38.2,28.6,57.3,28.6,57.3C394.4,242.7,393.6,256.4,393.6,256.4"/>
	<path class="st11" d="M257.9,31.7c-4-2.3-6-3.5-6-3.5c4.5,3.9,6.8,5.9,6.8,5.9c0.6-5.6,0.9-8.5,0.9-8.5
		C258.4,29.7,257.9,31.7,257.9,31.7"/>
	<path class="st11" d="M441.4,37.7c-4.8-2.8-7.1-4.2-7.1-4.2c5.4,4.7,8.1,7,8.1,7c0.7-6.7,1.1-10.1,1.1-10.1
		C442.1,35.3,441.4,37.7,441.4,37.7"/>
	<path class="st11" d="M239.5,64.8c-3-1.8-4.6-2.7-4.6-2.7c3.5,3,5.2,4.5,5.2,4.5c0.5-4.3,0.7-6.5,0.7-6.5
		C239.9,63.3,239.5,64.8,239.5,64.8"/>
	<path class="st12" d="M-85.8,322.4c128.6-11.1,256.9,31.3,385.8,30.3c129-1,257.3-23.2,385.9-30.3c0,12.9,0,25.8,0,38.7
		c0,12.9,0,25.8,0,38.7c-128.6,0-257.4,0-385.9,0c-128.6,0-257.2,0-385.8,0c0-12.9,0-25.8,0-38.7C-85.8,348.2-85.8,335.3-85.8,322.4
		"/>
	<path class="st13" d="M685.9,363.5c-128.6,4.6-257.2,16-385.8,14.2C171.2,376,42.9,366.9-85.8,363.5c0,6.1,0,12.1,0,18.2
		c0,6,0,12.1,0,18.1c128.6,0,257.4,0,385.9,0c128.6,0,257.2,0,385.8,0c0-6,0-12.1,0-18.1C685.9,375.7,685.9,369.6,685.9,363.5"/>
	<polygon class="st14" points="-78.5,301.8 -85.9,301.6 -85.9,131.8 -77.4,133.9 -85.6,276.2 -67.4,136.2 -41.2,142.6 -74.6,276.1 
		-33.3,149.7 -16.9,154.4 	"/>
	<polygon class="st14" points="615.2,301.5 685.8,301.5 685.8,127.9 662.7,132.1 679.2,286.5 673.7,288.4 650.6,133.7 643.6,134.4 
		649.7,259.6 634.8,280.7 639.4,137.1 619.1,141.3 622.8,277.3 609.6,143.2 584.3,148.6 612.2,276.8 576.6,155.1 560.8,159.1 	"/>
	<path class="st15" d="M522,315.9c0.6,0.2,1.1,0.4,1.7,0.6c7.5-5.8,15.5-10.8,23.9-14.8l-3.7-13.5L522,315.9z"/>
	<path class="st15" d="M446.9,333.9c5.3-5.3,11.4-9.8,18-13.2c-1.7-1.1-3.4-2.1-5.1-3.2L446.9,333.9z"/>
	<path class="st15" d="M432.9,351.5c0.3,0.1,0.5,0.2,0.8,0.3c0.8-1.6,1.7-3.1,2.6-4.5L432.9,351.5z"/>
	<path class="st16" d="M74.6,399.8h87.2c-13.7-21.8-39.9-32.3-64.8-26c-18,4.5-36.7,2.1-52.7-6.2c2.9-0.5,5.8-1.4,9.1-2.7
		c7.2-3.1,6.5-5.6-1.9-5.9c-6.1-0.1-12.2,0.5-18.2,1.6c-1.2-0.9-2.3-1.8-3.5-2.8c2-2.9,4-5.7,6.1-8.4c0.6,0.3,1.4,0.6,2.4,0.8
		c7.6,2,14.3,2.1,23.1-1.9c6.4-3.1,5.8-5.6-1.7-5.9c-7-0.1-13.9,0.9-20.6,2.8c3.4-4.3,6.9-8.5,10.5-12.6c0.6,0.2,1.3,0.4,2.2,0.6
		c6.9,1.2,12.9,0.8,20.4-3.4c5.5-3.3,4.8-5.4-1.9-5.1c-5.6,0.4-11.2,1.6-16.5,3.4c3.9-4.1,7.9-8,12-11.8l0,0c5,3.4,9.8,5.2,17.1,4.6
		c5.4-0.6,5.6-2.5,0.3-4.7c-4.4-1.6-9.1-2.7-13.8-3.1c2.7-2.4,5.5-4.7,8.4-6.9c0.5,0.2,1.2,0.3,1.9,0.5c4.7,0.7,9.5,0.7,14.2,0
		c3.7-0.7,3.8-1.7,0.5-3.1c-3.5-1.5-6.8-2.2-10.7-1.9c1.7-1.2,3.3-2.4,5-3.5c0.5-0.1,1.2-0.2,1.9-0.5c4.5-1.5,8.8-3.8,12.6-6.6
		c2.9-2.3,2.6-3.3-1-3c-5.2,0.4-9.4,1.9-14,6.3c-0.5,0.5-0.9,1-1.2,1.4c-2.6,1.7-5.1,3.5-7.6,5.4c1.7-3.9,2.3-7.8,1.2-13.1
		c-1.1-4.6-2.8-4.6-4.1,0.2c-1.1,4.6-1.5,9.4-1.2,14.2c0.1,0.7,0.1,1.2,0.3,1.6c-3,2.3-5.9,4.7-8.7,7.3c1.9-4.1,2.6-8.2,1.4-13.7
		c-1.1-4.6-2.8-4.6-4.1,0.2c-1.1,4.6-1.5,9.4-1.2,14.2c0.1,1,0.3,1.8,0.5,2.3c-4,3.7-8,7.6-11.8,11.6c1.3-5.2,1.9-10.6,1.8-16
		c-0.3-4.6-1.5-5-3.8-1.1c-3.3,5.6-4.8,11-3.5,18.8c0.3,1.4,0.6,2.5,1,3.2c-2.8,3.1-5.4,6.2-8.1,9.5c1.9-7.2,2.9-14.5,3.2-21.8
		c0.1-6.3-1.3-6.7-4-1.3c-4,7.8-6.1,15.2-5.3,25.8c0.2,1.9,0.4,3.3,0.8,4.3c-2.1,2.8-4.2,5.7-6.3,8.7c-0.2-0.2-0.4-0.4-0.6-0.6
		c0.1-6.9-0.6-13.8-2.1-20.5c-1.5-6-3.1-6.1-4.8-0.3c-1.2,4.2-1.9,8.2-1.8,12.3c-14.4-13-30.8-23.3-48.5-30.6l48.6-120.2l-17.8-4.2
		l-37.7,121.8l-0.5-0.2L-8.1,185l-28.4-5.7L-50,309.6l-0.9-0.2l3.7-132.1l-22.8-4.5l4.5,133.4c-4.9-0.8-9.9-1.5-15-1.9l-1.2-1.5
		l6.9-132.9l-7.8-0.8l-3.5,22.1v156h0.2v5.3C-29.1,379.8,24.4,395.6,74.6,399.8"/>
	<path class="st16" d="M685.9,316.5c-0.1,34.4-0.1,51.6-0.1,51.6s-116.7,5.1-350.2,15.3c14-21.8,36.9-34.9,61.3-36.9
		c-7.7-4.8-15.3-9.7-22.8-14.7c2.5-3.9,5.5-7.4,9.1-10.4c0,0,7.6,8,22.9,24c0,0-6.3-10.2-19-30.5c3.4-1.5,6.8-2.8,10.2-4.1
		c0,0,4.7,11.2,14.2,33.5c0,0-2.4-12.6-7.3-37.8c5.5-1,11-1,16.5,0c0,0-0.5,11.4-1.5,34.2c0,0,2.3-10.5,6.9-31.6
		c4.6-0.3,9.1,1.2,12.7,4.1c0,0-5,11.8-15,35.5l23.5-39.1c-5.6-3.6-11.2-7.2-16.7-10.9c3.5-5.5,7.8-10.4,12.8-14.7l31.2,32.6
		c0.1,0,0.2-0.1,0.3-0.1l-26-41.8c4.8-2.1,9.6-4,14.5-5.8l19.2,45.3c0.1,0,0.3-0.1,0.4-0.1l-10-51.4c7.7-1.4,15.6-1.4,23.3,0
		c0,0-0.7,16.1-2.1,48.3c0,0,3.2-14.9,9.7-44.6c6.5-0.4,12.9,1.7,18,5.8l-17.1,40.4c0.5,0,1.1,0.1,1.6,0.1l27.4-45.7
		c1.6,0.3,3.1,0.8,4.6,1.2l-22.2-81.8c0,0,0.7-1,2-3c0,0,8.2,1,24.5,2.9l13.8,111.4c0.4-0.2,0.8-0.3,1.2-0.5l-2.5-105.4
		c0,0,1.3-0.8,4-2.4c0,0,7.6,1.2,22.8,3.5l-12.6,100.5c1.9-0.5,3.9-1,5.8-1.5l17.2-97.8c0,0,2,0.2,6,0.5c0,0-1.8,30.6-5.3,91.7
		l2.2,2.6c3.4-0.2,6.8-0.3,10.2-0.3l-3.5-92c0,0,5.8,1,17.5,3.1l-2.8,89.5c0.3,0,0.6,0,0.8,0.1l10.2-88.2c0,0,7.3,1.3,21.8,3.9
		l-21.9,85.6c0.2,0,0.5,0.1,0.7,0.1l27.8-81c0,0,4.5,1,13.6,2.9L634.3,292C652.7,296.2,670.3,304.4,685.9,316.5"/>
	<path class="st17" d="M-85.8,399.8c127.5,0,191.2,0,191.2,0c-19-15.7-44.2-21.5-68.2-15.7c-19.4,4.3-39.2-1.6-53.4-15.1
		c-18.8-17.3-44.4-25.2-69.6-21.5C-85.8,382.4-85.8,399.8-85.8,399.8"/>
	<path class="st17" d="M685.9,357.2c0,28.4,0,42.6,0,42.6s-125.4,0-376.2,0c26.8-21.5,60.5-32.6,94.8-31.4
		c37.3,2.3,74.5-5.8,107.5-23.4C567.3,314.3,635.5,319.1,685.9,357.2"/>
	<polygon class="st17" points="566.4,399.8 659.4,399.8 685.9,291.3 685.9,208.4 671,210.3 651,389.6 654.7,218.4 649.5,215 
		619.7,220.1 638.2,383.9 632.1,386 606.1,221.7 598.3,222.5 605.2,355.4 588.4,377.8 593.6,225.4 570.8,229.8 574.9,374.2 
		560,231.9 531.6,237.6 563,373.7 523,244.5 505.3,248.7 	"/>
	<path class="st17" d="M489.7,399.8c-15.1,0-22.7,0-22.7,0s-20-13.9-60-41.8c0,0-3.3-2.3-10-6.8c0,0,6.6-1.2,19.8-3.5
		c0,0,17.8,15.7,53.4,47c0,0-20-20.9-60-62.7c0,0-2.3-2.2-6.8-6.5c0,0,8.1-1.6,24.4-4.7c0,0,14.4,21.5,43.3,64.4
		c0,0-4.5-11.6-13.5-34.7c0,0-6.9-10-20.6-30c0,0,5.8-1,17.4-2.9c0,0,6.6,19.2,19.7,57.7c0,0-3.5-19.1-10.6-57.4c0,0,5,0.3,15,0.9
		c0,0,1.2,24.8,3.5,74.5c0,0,0.9-24.7,2.6-74.2c0,0,5.6,0.9,16.8,2.6c0,0-4.7,22.5-13.9,67.6c0,0,6.3-23.4,19-70.3c0,0,6.7,1,20,2.9
		C526.5,322.1,514.2,348,489.7,399.8"/>
	<path class="st11" d="M516,294.6c-0.7-2.3-1.7-4.5-3-6.8l-4.1,83.9c0,0,3.4,4.7,10.1,14.2L516,294.6z M476.5,218.7
		c1.3,1.6,2.5,3.2,3.6,4.8c-1-4-1.3-8.2-0.9-12.5c0.6-3.9,1.9-4.2,3.8-0.9c3,6,3.2,13.1,0.6,19.3c0.1,0.2,0.3,0.5,0.4,0.8
		c1.1,2.1,2,4.3,2.9,6.6c0.2-4.3,1.3-8.5,3.2-12.5c1.9-3.3,3.2-3,3.9,0.7c0.9,6.5-1,12.8-5.3,17.4c0.4,1.3,0.7,2.6,1,4
		c0,0,0,0.1,0,0.1c0.1,0.5,0.2,1,0.3,1.6c1.3-3.7,3.5-7,6.6-10c2.7-2.2,4-1.7,3.8,1.5c-0.8,5.4-4.1,9.9-9.3,12.7
		c0.8,2.7,1.8,5.3,3,7.8c0.7-3.9,2.4-7.3,5.3-10.4c2.3-2,3.5-1.6,3.6,1.3c-0.2,4.9-2.9,9.1-7.7,11.6c1.7,3,3.6,5.9,5.9,8.5
		c-0.3-3.7,0.5-7.1,2.6-10.3c1.7-2.2,3.1-2,4,0.8c1.2,4.6-0.4,8.9-4.4,11.9c0.2,0.2,0.4,0.4,0.5,0.5l0,0c1.5,1.4,2.9,2.8,4.1,4.2
		c-0.1-3.2,0.8-6.2,2.6-9c1.7-2.2,3.1-2,4,0.8c1.1,4.4-0.3,8.6-3.9,11.5c1.1,1.4,2.1,2.7,2.9,4.1c0.9,1.4,1.6,2.7,2.3,4.1l13.3,2.8
		c0,0-0.8,30.5-2.5,91.6c0,0,3-30.1,8.9-90.3c0,0,5.7,1.2,17,3.6c0,0-6.3,28.8-18.8,86.3c0,0,8-27.3,24-82c0,0,3.5,0.9,10.6,2.7
		c0,0-12.2,32-36.6,95.9c-37.2,0-55.8,0-55.8,0s-9.2-40-27.7-120.1c0,0,0.5-0.9,1.6-2.8c0,0,6.4,0.9,19.2,2.7c0,0,4,37.9,12,113.7
		c0,0-0.7-36.2-2.2-108.5c0,0,1-0.7,3.1-2.2c0,0,6,1.1,17.9,3.2c0,0-3.7,34.6-11.1,103.9c0,0,1.2,0.4,3.7,1.3
		c0,0,5.2-34.7,15.6-104.2l4.4,0.5c-0.2-0.3-0.4-0.7-0.6-1c-0.9-1.4-1.8-2.7-2.9-4.1c-5.7,1.9-11.1,1-14.8-2.7
		c-1.9-2.3-1.3-3.5,2-3.8c3.2,0,6.1,0.6,8.7,1.9c-0.8-0.8-1.6-1.6-2.5-2.4l0,0l0,0c-1.7-1.7-3.3-3.4-4.7-5.3c-5.8,2-11.2,1.1-15-2.6
		c-1.9-2.3-1.3-3.5,2-3.8c3.9,0,7.4,1,10.4,2.8c-0.8-1.3-1.6-2.6-2.3-3.9c-0.1-0.2-0.2-0.5-0.4-0.7c-5.8,0.8-10.7-1-13.6-5.2
		c-1.4-2.5-0.6-3.6,2.6-3.3c3.6,0.7,6.7,2.1,9.2,4.3c-0.7-1.8-1.4-3.8-1.9-5.7c-5.6-0.1-10.4-2.6-13.2-6.9c-1.4-2.6-0.6-3.4,2.5-2.7
		c4,1.4,7.3,3.5,9.9,6.4c-0.2-0.7-0.3-1.3-0.4-2l0,0c-0.4-1.6-0.8-3.2-1.2-4.8c-6-0.3-11.7-3.3-15.6-8.3c-2.1-3.1-1.4-4.2,2.3-3.3
		c4.5,1.5,8.4,3.9,11.7,7c-0.8-2.1-1.7-4.2-2.7-6.2c-0.4-0.7-0.7-1.4-1.1-2.1c-5.8-0.3-11.2-2.9-14.9-7.4c-2-2.7-1.3-3.6,2.1-2.7
		c3.7,1.2,7,3,9.8,5.3c-1.3-1.9-2.7-3.8-4.3-5.5c-3.8-2.3-7-5.3-9.6-9.2c-1.6-2.9-1-3.7,2-2.6C471,209.1,474.8,213.4,476.5,218.7z
		 M685.9,399.8h-34.1l-27.6-147.8l1.6-3.4l19.1,3.3l11.9,139.9l-2.2-133.6l3.1-2.7l17.8,4l-11.1,127.9l3.6,1.6l15.5-128.2l2.2,0.3
		v62.4l-1.6,41.7l1.9,2.9l0,28C686,396.6,686.1,398.7,685.9,399.8z"/>
	<path class="st18" d="M411.5,399.8c13.2,0,19.9,0,19.9,0s17.7-12.4,53.1-37.1c0,0-5.9-2.7-17.8-8.1c0,0-11.8,13.6-35.4,40.9
		l35.8-58.1l-11.5-0.2l-6.7,5.3l-22.4,50l19.8-58.1l-14.1,1.1l-8.8,50.3l2.7-49.1l-6.7,0.7l-0.8,56.5l-4.2-55.5l-14.2,2.6l11.2,52.4
		c-11.7-33.6-17.6-50.4-17.6-50.4c-9.6,1.9-14.4,2.9-14.4,2.9c3.1,3.1,4.6,4.6,4.6,4.6C402.4,383.4,411.5,399.8,411.5,399.8"/>
	<path class="st19" d="M603.3,399.8c36,0,54,0,54,0s9-33,26.9-99c0,0-0.5-0.8-1.5-2.3c0,0-6.2,0.7-18.6,2.2c0,0-3.9,31.2-11.6,93.7
		c0,0,0.7-29.8,2.1-89.5c0,0-1-0.6-3-1.8c0,0-5.8,0.9-17.3,2.7c0,0,3.6,28.6,10.8,85.7c0,0-1.2,0.4-3.6,1.1c0,0-5-28.6-15.1-85.9
		c0,0-1.5,0.1-4.5,0.4c0,0,1.3,23.2,4,69.5c0,0-3.2,3.9-9.7,11.7c0,0,1-26.6,3-79.7c0,0-4.4,0.8-13.2,2.3c0,0,0.8,25.2,2.4,75.5
		c0,0-2.9-24.8-8.6-74.4c0,0-5.5,1-16.5,3c0,0,6.1,23.7,18.2,71.2c0,0-7.7-22.5-23.2-67.6c0,0-3.4,0.7-10.3,2.2
		C567.8,320.8,579.6,347.2,603.3,399.8"/>
	<path class="st20" d="M385,399.8c15.2,0,22.7,0,22.7,0c15.7-19.9,23.5-29.8,23.5-29.8c-3.3-2.7-7.2-4.6-11.5-5.5
		c-13.1,21.8-19.6,32.6-19.6,32.6c8.4-19.7,12.5-29.6,12.5-29.6c-3-2.4-6.8-3.6-10.6-3.4c-3.8,17.5-5.7,26.3-5.7,26.3
		c0.8-19,1.2-28.5,1.2-28.5c-4.5-0.8-9.2-0.8-13.8,0c4.1,21,6.1,31.6,6.1,31.6c-7.9-18.6-11.8-27.9-11.8-27.9
		c-2.9,1.1-5.7,2.2-8.5,3.4c10.6,17,15.8,25.5,15.8,25.5c-12.7-13.3-19.1-20-19.1-20c-2.9,2.5-5.5,5.4-7.6,8.6
		C367.4,388.9,376.1,394.5,385,399.8"/>
	<path class="st18" d="M603.3,399.8c36,0,54,0,54,0s9-33,26.9-99c0,0-0.5-0.8-1.5-2.3c0,0-6.2,0.7-18.6,2.2c0,0-3.9,31.2-11.6,93.7
		c0,0,0.7-29.8,2.1-89.5c0,0-1-0.6-3-1.8c0,0-5.8,0.9-17.3,2.7c0,0,3.6,28.6,10.8,85.7c0,0-1.2,0.4-3.6,1.1c0,0-5-28.6-15.1-85.9
		c0,0-1.5,0.1-4.5,0.4c0,0,1.3,23.2,4,69.5c0,0-3.2,3.9-9.7,11.7c0,0,1-26.6,3-79.7c0,0-4.4,0.8-13.2,2.3c0,0,0.8,25.2,2.4,75.5
		c0,0-2.9-24.8-8.6-74.4c0,0-5.5,1-16.5,3c0,0,6.1,23.7,18.2,71.2c0,0-7.7-22.5-23.2-67.6c0,0-3.4,0.7-10.3,2.2
		C567.8,320.8,579.6,347.2,603.3,399.8"/>
	<path class="st17" d="M-67.1,399.8c28,0,42,0,42,0c53.7-66.3,80.6-99.4,80.6-99.4c-14.5-8.6-21.8-12.9-21.8-12.9
		c-39.4,66.8-59.1,100.2-59.1,100.2C8.7,315.9,25.8,280,25.8,280C13.2,271.7,7,267.6,7,267.6c-20.3,65.8-30.5,98.7-30.5,98.7
		C-9.7,296.5-2.8,261.6-2.8,261.6c-12.6-7.8-18.8-11.7-18.8-11.7C-31.2,343-36,389.6-36,389.6c2.5-96.9,3.8-145.4,3.8-145.4
		c-14.1-6.8-21.1-10.2-21.1-10.2c6.4,85.4,9.7,128.1,9.7,128.1c-14.2-90.7-21.3-136-21.3-136c-5.4-2.5-8.1-3.8-8.1-3.8
		c4.5,106.4,6.7,159.6,6.7,159.6C-79.3,272.6-85.8,218-85.8,218c0,93.2,0,139.8,0,139.8C-73.3,385.8-67.1,399.8-67.1,399.8"/>
	<path class="st18" d="M-86,399.8c25.6,0,38.3,0,38.3,0c34.2-54,51.3-81.1,51.3-81.1c-14.3-6.1-21.5-9.2-21.5-9.2
		c-21.1,52.1-31.7,78.1-31.7,78.1c14.5-54.5,21.8-81.7,21.8-81.7c-6.3-2.4-9.4-3.6-9.4-3.6c-17.8,62-26.7,93.1-26.7,93.1
		c11.2-65.9,16.8-98.8,16.8-98.8c-13.4-4.5-20-6.8-20-6.8c-1.4,46.9-2.1,70.4-2.1,70.4c-4.4-49.2-6.6-73.7-6.6-73.7
		c-6.8-2.4-10.3-3.6-10.3-3.6C-86,360.8-86,399.8-86,399.8"/>
	<path class="st20" d="M21.1,399.8c-21.6,0-32.4,0-32.4,0c-22.4-28.3-33.6-42.5-33.6-42.5c4.7-3.9,10.3-6.6,16.3-7.9
		c18.6,31,28,46.6,28,46.6c-11.9-28.1-17.9-42.2-17.9-42.2c4.3-3.4,9.6-5.2,15.1-4.9c5.4,25,8.2,37.5,8.2,37.5
		C3.6,359.4,3,345.8,3,345.8c6.5-1.2,13.1-1.2,19.6,0c-5.8,30-8.7,45-8.7,45c11.2-26.5,16.8-39.8,16.8-39.8
		c4.1,1.5,8.2,3.1,12.2,4.9c-15.1,24.2-22.6,36.3-22.6,36.3c18.2-19,27.3-28.5,27.3-28.5c4.2,3.5,7.8,7.7,10.8,12.3
		C46.1,384.2,33.7,392.2,21.1,399.8"/>
	<path class="st20" d="M531.5,399.8c21.6,0,32.4,0,32.4,0c22.4-28.3,33.6-42.5,33.6-42.5c-4.7-3.9-10.3-6.6-16.3-7.9
		c-18.6,31-28,46.6-28,46.6c11.9-28.1,17.9-42.2,17.9-42.2c-4.3-3.4-9.6-5.2-15.1-4.9c-5.4,25-8.2,37.5-8.2,37.5
		c1.2-27.1,1.7-40.7,1.7-40.7c-6.5-1.2-13.1-1.2-19.6,0c5.8,30,8.7,45,8.7,45c-11.2-26.5-16.8-39.8-16.8-39.8
		c-4.1,1.5-8.2,3.1-12.2,4.9c15.1,24.2,22.6,36.3,22.6,36.3c-18.2-19-27.3-28.5-27.3-28.5c-4.2,3.5-7.8,7.7-10.8,12.3
		C506.5,384.2,518.9,392.2,531.5,399.8"/>
	<path class="st21" d="M640.1,337.4c6.7,0,12.2,2.6,12.2,5.7c0,3.2-5.4,5.7-12.2,5.7c-6.7,0-12.2-2.6-12.2-5.7
		C627.9,340,633.4,337.4,640.1,337.4"/>
	<path class="st21" d="M601.3,347.4c5.3-1.5,10.1-0.7,10.8,1.8c0.7,2.5-3,5.7-8.3,7.2c-5.3,1.5-10.1,0.7-10.8-1.8
		C592.3,352.2,596,348.9,601.3,347.4"/>
	<path class="st21" d="M615.3,333.8c3.8-1.1,7.2-0.5,7.8,1.3c0.5,1.8-2.1,4.1-5.9,5.2c-3.8,1.1-7.2,0.5-7.8-1.3
		C608.9,337.2,611.6,334.9,615.3,333.8"/>
	<path class="st21" d="M665.5,344.5c3.9,0.3,7,2.1,6.8,3.9c-0.2,1.8-3.5,3.1-7.4,2.7c-3.9-0.3-7-2.1-6.8-3.9
		C658.3,345.4,661.6,344.2,665.5,344.5"/>
	<path class="st21" d="M628.6,357.4c6.9-1.3,13-0.3,13.6,2.3c0.7,2.6-4.4,5.8-11.2,7.1c-6.9,1.3-13,0.3-13.6-2.3
		C616.7,362,621.7,358.8,628.6,357.4"/>
	<path class="st21" d="M649.4,322.3c3.5,0.1,6.3,1.6,6.2,3.2c-0.1,1.6-2.9,2.9-6.4,2.7c-3.5-0.1-6.3-1.6-6.2-3.2
		C643,323.4,645.9,322.2,649.4,322.3"/>
	<path class="st21" d="M677.5,334.7c2.9,0.6,5.1,2.1,4.9,3.5c-0.3,1.4-2.9,2.1-5.8,1.5c-2.9-0.6-5.1-2.1-4.9-3.5
		C672,334.9,674.6,334.2,677.5,334.7"/>
	<path class="st21" d="M597.7,369.9c-3.4,1.4-5.7,3.6-5,4.8c0.6,1.3,3.9,1.2,7.3-0.2c3.4-1.4,5.7-3.6,5-4.8
		C604.4,368.4,601.1,368.5,597.7,369.9"/>
	<path class="st21" d="M623.1,309c4.9-1.1,9.2-0.1,9.8,2.2c0.5,2.3-3,5-7.9,6.1c-4.9,1.1-9.2,0.1-9.8-2.2
		C614.7,312.9,618.2,310.1,623.1,309"/>
	<path class="st21" d="M575.2,385.2c-2.9,1.2-4.7,3-4.2,4c0.5,1.1,3.3,1,6.1-0.2c2.9-1.2,4.7-3,4.2-4
		C580.8,384,578,384.1,575.2,385.2"/>
	<path class="st21" d="M678.4,364.6c2.9,0.5,5,2,4.7,3.4c-0.2,1.3-2.8,2-5.6,1.5c-2.9-0.5-5-2-4.7-3.4
		C673,364.8,675.5,364.1,678.4,364.6"/>
	<path class="st22" d="M677.1,366.4c0.4-0.5,1.1-0.5,1.5-0.2c0.5,0.4,0.5,1.1,0.2,1.5L653,400h-2.4c0-0.3,0-0.6,0.2-0.8L677.1,366.4
		z M597.9,372.8c-0.3-0.5-0.1-1.2,0.4-1.5c0.5-0.3,1.2-0.1,1.5,0.4l16.2,27.6c0.1,0.2,0.2,0.5,0.1,0.7h-2.3L597.9,372.8z
		 M615.2,337.2c-0.1-0.6,0.4-1.1,1-1.2c0.6-0.1,1.1,0.4,1.2,1l5.4,55.7l3.2,6.6c0.1,0.2,0.1,0.4,0.1,0.6h-2.2l-21-43.1
		c-0.3-0.5,0-1.2,0.5-1.5c0.5-0.3,1.2,0,1.5,0.5l15.2,31.1L615.2,337.2z M575.2,387.7c-0.3-0.5-0.1-1.2,0.4-1.5
		c0.5-0.3,1.2-0.1,1.5,0.4l7.1,12.7c0.1,0.2,0.2,0.5,0.1,0.7H582L575.2,387.7z M630.4,362.5c0.6-0.4,1.4-0.1,1.7,0.6l7.7,23
		l1.5-42.9c0-0.6,0.5-1.1,1.1-1.1c0.6,0,1.1,0.5,1.1,1.1l0,0.8l4.8-19c0.1-0.6,0.7-0.9,1.3-0.8c0.6,0.1,0.9,0.7,0.8,1.3l-4.9,19.6
		c-0.2,1-1.5,1.1-2,0.3l-1.6,46.9l22.4-44.9c0.3-0.5,0.9-0.8,1.5-0.5c0.5,0.3,0.8,0.9,0.5,1.5l-23.4,46.9l1.4,4.2
		c0.1,0.2,0.1,0.3,0,0.5h-2.2l-11.3-33.8l3.6,33.6c0,0.1,0,0.2,0,0.3h-2.2l-9.4-86.7c-0.1-0.6,0.4-1.1,1-1.2c0.6-0.1,1.1,0.4,1.2,1
		L630.4,362.5z"/>
	<path class="st21" d="M-48.8,374l-14.9,25.3c-0.1,0.2-0.2,0.5-0.1,0.7h2.3l14.8-25.1c3.1,1.1,5.9,1,6.5-0.1c0.6-1.3-1.6-3.4-5-4.8
		c-3.4-1.4-6.7-1.5-7.3-0.2C-53.2,370.8-51.5,372.6-48.8,374 M-25.8,388.6l-6,10.7c-0.1,0.2-0.2,0.5-0.1,0.7h2.2l5.9-10.5
		c2.5,0.8,4.7,0.8,5.2-0.2c0.5-1.1-1.3-2.9-4.2-4c-2.9-1.2-5.6-1.2-6.1-0.2C-29.3,386-28,387.5-25.8,388.6z M-86,388.9l7.3-22.1
		l0.1,0l-3.6,32.9c0,0.1,0,0.2,0,0.3h2.2l3.5-32.8c3.4,0.4,6.4,0.3,8.5-0.4l-2.5,25.9l-3.2,6.6c-0.1,0.2-0.1,0.4-0.1,0.6h2.2
		l21-43.1c0-0.1,0.1-0.1,0.1-0.2c4.9,1.1,9.1,0.3,9.8-2.1c0.7-2.5-3-5.7-8.3-7.2c-5.3-1.5-10.1-0.7-10.8,1.8
		c-0.7,2.3,2.5,5.3,7.2,6.9l-15.1,31l2.1-21.6c0.7-0.8,0.8-1.7,0.3-2.6l2.1-22.2c3.1,0.5,5.7-0.1,6.1-1.7c0.5-1.8-2.1-4.1-5.9-5.2
		c-3.8-1.1-7.2-0.5-7.8,1.3c-0.5,1.7,1.9,3.9,5.4,5l-2,20.7c-1.9-1.3-4.7-2.5-8.1-3.2l4.3-40c4.2,0.6,7.7-0.4,8.2-2.5
		c0.5-2.3-3-5-7.9-6.1c-4.9-1.1-9.2-0.1-9.8,2.2c-0.5,2.2,2.7,4.8,7.3,6l-2.7,24.7c-1.1-2.3-5.2-4.1-10.2-4.4v11.4
		c4.6-0.3,8.4-1.8,9.8-3.8l-1.3,12.2c-3.3-0.5-6.3-0.5-8.5,0v7.1c1.4,0.8,3.2,1.5,5.2,2l-5.2,15.7V388.9z"/>
	<path class="st0" d="M510.1,342.8c1.7,0,3.2,1.4,3.2,3.2c0,1.7-1.4,3.2-3.2,3.2c-1.7,0-3.2-1.4-3.2-3.2
		C506.9,344.3,508.3,342.8,510.1,342.8"/>
	<path class="st0" d="M464.2,301.9c0.9,0,1.6,0.7,1.6,1.6c0,0.9-0.7,1.6-1.6,1.6c-0.9,0-1.6-0.7-1.6-1.6
		C462.6,302.6,463.4,301.9,464.2,301.9"/>
	<path class="st0" d="M494.9,298.9c0.9,0,1.6,0.7,1.6,1.6c0,0.9-0.7,1.6-1.6,1.6c-0.9,0-1.6-0.7-1.6-1.6
		C493.3,299.6,494,298.9,494.9,298.9"/>
	<path class="st0" d="M408.3,253.7c0.9,0,1.6,0.7,1.6,1.6c0,0.9-0.7,1.6-1.6,1.6c-0.9,0-1.6-0.7-1.6-1.6
		C406.7,254.4,407.4,253.7,408.3,253.7"/>
	<path class="st0" d="M60.2,375.7c1.4,0,2.5,1.1,2.5,2.5c0,1.4-1.1,2.5-2.5,2.5c-1.4,0-2.5-1.1-2.5-2.5
		C57.7,376.8,58.8,375.7,60.2,375.7"/>
	<path class="st0" d="M-3.1,351.5c1.1,0,2,0.9,2,2c0,1.1-0.9,2-2,2c-1.1,0-2-0.9-2-2C-5.1,352.4-4.2,351.5-3.1,351.5"/>
	<path class="st0" d="M28.4,310.9c0.9,0,1.6,0.7,1.6,1.6c0,0.9-0.7,1.6-1.6,1.6c-0.9,0-1.6-0.7-1.6-1.6
		C26.8,311.7,27.5,310.9,28.4,310.9"/>
	<path class="st0" d="M450.7,372.6c0.8,0,1.5,0.7,1.5,1.5c0,0.8-0.7,1.5-1.5,1.5c-0.8,0-1.5-0.7-1.5-1.5
		C449.3,373.3,449.9,372.6,450.7,372.6"/>
	<path class="st0" d="M360.9,394.2c0.5,0,0.9,0.4,0.9,0.9c0,0.5-0.4,0.9-0.9,0.9c-0.5,0-0.9-0.4-0.9-0.9
		C360,394.6,360.4,394.2,360.9,394.2"/>
	<path class="st0" d="M663.6,277c0.8,0,1.5,0.7,1.5,1.5c0,0.8-0.7,1.5-1.5,1.5c-0.8,0-1.5-0.7-1.5-1.5
		C662.1,277.6,662.8,277,663.6,277"/>
	<path class="st0" d="M628.4,201.8c1.4,0,2.6,1.2,2.6,2.6c0,1.4-1.2,2.6-2.6,2.6s-2.6-1.2-2.6-2.6C625.8,203,627,201.8,628.4,201.8"
		/>
	<path class="st0" d="M615.2,141.3c0.7,0,1.3,0.6,1.3,1.3c0,0.7-0.6,1.3-1.3,1.3c-0.7,0-1.3-0.6-1.3-1.3
		C613.9,141.9,614.5,141.3,615.2,141.3"/>
	<path class="st0" d="M4,226.3c1.4,0,2.6,1.2,2.6,2.6c0,1.4-1.2,2.6-2.6,2.6s-2.6-1.2-2.6-2.6C1.4,227.4,2.6,226.3,4,226.3"/>
	<path class="st0" d="M29,232.8c1,0,1.9,0.8,1.9,1.9c0,1-0.8,1.9-1.9,1.9c-1,0-1.9-0.8-1.9-1.9C27.1,233.6,27.9,232.8,29,232.8"/>
	<path class="st0" d="M-63,248.6c1,0,1.9,0.8,1.9,1.9c0,1-0.8,1.9-1.9,1.9c-1,0-1.9-0.8-1.9-1.9C-64.9,249.4-64.1,248.6-63,248.6"/>
	<path class="st0" d="M-28.1,209.9c0.7,0,1.3,0.6,1.3,1.3c0,0.7-0.6,1.3-1.3,1.3c-0.7,0-1.3-0.6-1.3-1.3
		C-29.4,210.5-28.8,209.9-28.1,209.9"/>
	<path class="st0" d="M63.3,255c0.7,0,1.3,0.6,1.3,1.3c0,0.7-0.6,1.3-1.3,1.3c-0.7,0-1.3-0.6-1.3-1.3C62,255.6,62.5,255,63.3,255"/>
	<path class="st23" d="M230.7,301.6c-53.2-6-79.7-9-79.7-9c155.9-2.9,233.8-4.3,233.8-4.3c-104.9,16.1-157.3,24.1-157.3,24.1
		c82.4,1,123.5,1.5,123.5,1.5c-89.4,20-134.1,30-134.1,30c54.7,6.5,82,9.8,82,9.8c-35.7,14.8-53.5,22.3-53.5,22.3
		c16.3-11.3,24.4-16.9,24.4-16.9c-81.2-8.9-121.8-13.3-121.8-13.3c66.3-14.4,99.5-21.6,99.5-21.6c-59.9-4.3-89.8-6.5-89.8-6.5
		C206.3,306.9,230.7,301.6,230.7,301.6"/>
	<path class="st24" d="M187.4,277.2c1.3,0,2.4,1.1,2.4,2.4c0,1.3-1.1,2.4-2.4,2.4c-1.3,0-2.4-1.1-2.4-2.4
		C185,278.3,186.1,277.2,187.4,277.2"/>
	<path class="st24" d="M175,263.5c0.7,0,1.2,0.5,1.2,1.2c0,0.7-0.5,1.2-1.2,1.2c-0.7,0-1.2-0.5-1.2-1.2
		C173.8,264.1,174.3,263.5,175,263.5"/>
	<path class="st24" d="M141.4,255.4c1.9,0,3.5,1.5,3.5,3.5c0,1.9-1.5,3.5-3.5,3.5c-1.9,0-3.5-1.5-3.5-3.5
		C138,257,139.5,255.4,141.4,255.4"/>
	<path class="st24" d="M145.1,242.4c1,0,1.7,0.8,1.7,1.7c0,1-0.8,1.7-1.7,1.7c-1,0-1.7-0.8-1.7-1.7
		C143.4,243.2,144.1,242.4,145.1,242.4"/>
	<path class="st24" d="M100,222c0.7,0,1.3,0.6,1.3,1.3s-0.6,1.3-1.3,1.3c-0.7,0-1.3-0.6-1.3-1.3S99.3,222,100,222"/>
	<path class="st24" d="M93.1,267.6c0.7,0,1.3,0.6,1.3,1.3c0,0.7-0.6,1.3-1.3,1.3c-0.7,0-1.3-0.6-1.3-1.3
		C91.8,268.1,92.4,267.6,93.1,267.6"/>
	<path class="st24" d="M348.1,235c1,0,1.7,0.8,1.7,1.7c0,1-0.8,1.7-1.7,1.7c-1,0-1.7-0.8-1.7-1.7C346.3,235.7,347.1,235,348.1,235"
		/>
	<path class="st24" d="M348.5,263.2c0.9,0,1.6,0.7,1.6,1.6c0,0.9-0.7,1.6-1.6,1.6c-0.9,0-1.6-0.7-1.6-1.6
		C347,263.9,347.7,263.2,348.5,263.2"/>
	<path class="st24" d="M460.6,164.5c0.9,0,1.6,0.7,1.6,1.6c0,0.9-0.7,1.6-1.6,1.6c-0.9,0-1.6-0.7-1.6-1.6
		C459.1,165.2,459.8,164.5,460.6,164.5"/>
	<path class="st25" d="M326,284.6l-132.9,0.8l5.4-37l-2.8-17.2c5.8,2.6,11.8,4.5,17.9,5.6l3.1,0.9c41.1,11.7,83.9-12.1,95.7-53.1
		c0.2-0.7,0.4-1.4,0.6-2.1l1.3,24.7l6.4,21.5c-0.5,12.8-1,27-1.5,42.6L326,284.6z"/>
	<path class="st23" d="M247.4,269.5c6.3,0,11.4,5.1,11.4,11.4c0,6.3-5.1,11.4-11.4,11.4c-6.3,0-11.4-5.1-11.4-11.4
		C236,274.6,241.1,269.5,247.4,269.5"/>
	<path class="st23" d="M259.9,280.7c4.3,0,7.9,3.5,7.9,7.9c0,4.3-3.5,7.9-7.9,7.9c-4.3,0-7.9-3.5-7.9-7.9
		C252.1,284.2,255.6,280.7,259.9,280.7"/>
	<path class="st23" d="M228.9,279.3c4.3,0,7.9,3.5,7.9,7.9c0,4.3-3.5,7.9-7.9,7.9c-4.3,0-7.9-3.5-7.9-7.9
		C221,282.8,224.5,279.3,228.9,279.3"/>
	<path class="st23" d="M239.6,281.9c4.3,0,7.9,3.5,7.9,7.9s-3.5,7.9-7.9,7.9c-4.3,0-7.9-3.5-7.9-7.9S235.3,281.9,239.6,281.9"/>
	<path class="st23" d="M228.7,262.9c2.7,0,4.9,2.2,4.9,4.9c0,2.7-2.2,4.9-4.9,4.9c-2.7,0-4.9-2.2-4.9-4.9
		C223.9,265.1,226,262.9,228.7,262.9"/>
	<path class="st23" d="M280.7,263.3c2.4,0,4.4,2,4.4,4.4c0,2.4-2,4.4-4.4,4.4c-2.4,0-4.4-2-4.4-4.4
		C276.3,265.2,278.3,263.3,280.7,263.3"/>
	<path class="st23" d="M284.1,286.4c2,0,3.6,1.6,3.6,3.6c0,2-1.6,3.6-3.6,3.6c-2,0-3.6-1.6-3.6-3.6
		C280.5,288,282.1,286.4,284.1,286.4"/>
	<path class="st23" d="M298.3,250.4c1.2,0,2.2,1,2.2,2.2c0,1.2-1,2.2-2.2,2.2c-1.2,0-2.2-1-2.2-2.2
		C296.1,251.4,297.1,250.4,298.3,250.4"/>
	<path class="st23" d="M207.9,283.8c3.1,0,5.6,2.5,5.6,5.6c0,3.1-2.5,5.6-5.6,5.6c-3.1,0-5.6-2.5-5.6-5.6
		C202.3,286.3,204.8,283.8,207.9,283.8"/>
	<path class="st23" d="M192.5,281.6c2.7,0,4.8,2.2,4.8,4.8c0,2.7-2.2,4.8-4.8,4.8c-2.7,0-4.8-2.2-4.8-4.8
		C187.6,283.8,189.8,281.6,192.5,281.6"/>
	<path class="st23" d="M277.1,283.1c2.8,0,5.1,2.3,5.1,5.1s-2.3,5.1-5.1,5.1s-5.1-2.3-5.1-5.1S274.3,283.1,277.1,283.1"/>
	<path class="st23" d="M313.3,281.1c2,0,3.6,1.6,3.6,3.6c0,2-1.6,3.6-3.6,3.6c-2,0-3.6-1.6-3.6-3.6
		C309.8,282.7,311.4,281.1,313.3,281.1"/>
	<path class="st23" d="M342.9,206.3c1.1,0,1.9,0.9,1.9,1.9c0,1.1-0.9,1.9-1.9,1.9c-1.1,0-1.9-0.9-1.9-1.9
		C341,207.2,341.9,206.3,342.9,206.3"/>
	<polygon class="st0" points="195.1,185.6 204.7,138.5 199.9,102.2 303,102.5 310.7,141.2 311,147.1 290.8,125.5 287.5,208.2 
		273.5,129.8 257.8,262.9 251.2,122.4 237.4,138 227.2,149.7 221.2,226.4 212.6,161.8 	"/>
</g>
</svg>
