<?xml version="1.0" encoding="utf-8"?>
<!-- Generator: Adobe Illustrator 25.2.0, SVG Export Plug-In . SVG Version: 6.00 Build 0)  -->
<svg version="1.1" id="Layer_1" xmlns="http://www.w3.org/2000/svg" xmlns:xlink="http://www.w3.org/1999/xlink" x="0px" y="0px"
	 viewBox="0 0 600 400" style="enable-background:new 0 0 600 400;" xml:space="preserve">
<style type="text/css">
	.st0{fill-rule:evenodd;clip-rule:evenodd;fill:#F3F9FA;}
	.st1{filter:url(#Adobe_OpacityMaskFilter);}
	.st2{fill:url(#SVGID_2_);}
	.st3{mask:url(#SVGID_1_);fill-rule:evenodd;clip-rule:evenodd;fill:#C2E5E3;}
	.st4{filter:url(#Adobe_OpacityMaskFilter_1_);}
	.st5{fill:url(#SVGID_4_);}
	.st6{mask:url(#SVGID_3_);fill-rule:evenodd;clip-rule:evenodd;fill:#C2E5E3;}
	.st7{fill-rule:evenodd;clip-rule:evenodd;fill:#C2E5E3;}
	.st8{filter:url(#Adobe_OpacityMaskFilter_2_);}
	.st9{fill:url(#SVGID_6_);}
	.st10{mask:url(#SVGID_5_);fill-rule:evenodd;clip-rule:evenodd;fill:#87CFC8;}
	.st11{fill-rule:evenodd;clip-rule:evenodd;fill:#63C4B7;}
	.st12{fill-rule:evenodd;clip-rule:evenodd;fill:#36BBAC;}
	.st13{clip-path:url(#SVGID_8_);}
	.st14{clip-path:url(#SVGID_12_);}
	.st15{clip-path:url(#SVGID_16_);}
	.st16{clip-path:url(#SVGID_20_);}
	.st17{fill-rule:evenodd;clip-rule:evenodd;fill:#FFFFFF;}
	.st18{fill-rule:evenodd;clip-rule:evenodd;fill:#1E9D49;}
	.st19{fill-rule:evenodd;clip-rule:evenodd;fill:#434E22;}
	.st20{clip-path:url(#SVGID_24_);}
	.st21{fill-rule:evenodd;clip-rule:evenodd;fill:#2EA74C;}
	.st22{filter:url(#Adobe_OpacityMaskFilter_3_);}
	.st23{fill:url(#SVGID_28_);}
	.st24{mask:url(#SVGID_27_);fill-rule:evenodd;clip-rule:evenodd;fill:#BBD76B;}
	.st25{fill-rule:evenodd;clip-rule:evenodd;fill:#8DC247;}
	.st26{clip-path:url(#SVGID_30_);}
	.st27{fill-rule:evenodd;clip-rule:evenodd;fill:#FDF6E3;}
	.st28{fill-rule:evenodd;clip-rule:evenodd;fill:#BBD76B;}
	.st29{fill-rule:evenodd;clip-rule:evenodd;fill:#E3E88A;}
	.st30{fill-rule:evenodd;clip-rule:evenodd;fill:#F6F9F0;}
	.st31{fill-rule:evenodd;clip-rule:evenodd;fill:#31AF82;}
	.st32{filter:url(#Adobe_OpacityMaskFilter_4_);}
	.st33{fill:url(#SVGID_34_);}
	.st34{mask:url(#SVGID_33_);fill-rule:evenodd;clip-rule:evenodd;fill:#E3E88A;}
	.st35{fill-rule:evenodd;clip-rule:evenodd;fill:#1C846B;}
	.st36{clip-path:url(#SVGID_36_);}
	.st37{fill-rule:evenodd;clip-rule:evenodd;fill:#63C08C;}
	.st38{clip-path:url(#SVGID_40_);}
	.st39{fill-rule:evenodd;clip-rule:evenodd;fill:#006454;}
	.st40{filter:url(#Adobe_OpacityMaskFilter_5_);}
	.st41{fill:url(#SVGID_44_);}
	.st42{mask:url(#SVGID_43_);fill-rule:evenodd;clip-rule:evenodd;fill:#8DC247;}
	.st43{fill-rule:evenodd;clip-rule:evenodd;fill:#A9D7B5;}
	.st44{filter:url(#Adobe_OpacityMaskFilter_6_);}
	.st45{fill:url(#SVGID_46_);}
	.st46{mask:url(#SVGID_45_);fill-rule:evenodd;clip-rule:evenodd;fill:#A9D7B5;}
	.st47{fill-rule:evenodd;clip-rule:evenodd;fill:#029D71;}
	.st48{fill:#FFFFFF;}
	.st49{fill-rule:evenodd;clip-rule:evenodd;fill:#013634;}
	.st50{filter:url(#Adobe_OpacityMaskFilter_7_);}
	.st51{fill:url(#SVGID_48_);}
	.st52{mask:url(#SVGID_47_);fill-rule:evenodd;clip-rule:evenodd;fill:#2EA74C;}
	.st53{fill-rule:evenodd;clip-rule:evenodd;fill:#2BB57A;}
	.st54{fill-rule:evenodd;clip-rule:evenodd;fill:#072221;}
	.st55{fill-rule:evenodd;clip-rule:evenodd;fill:#0DA875;}
	.st56{fill-rule:evenodd;clip-rule:evenodd;fill:#EBED9A;}
	.st57{fill-rule:evenodd;clip-rule:evenodd;fill:#128B7A;}
	.st58{fill-rule:evenodd;clip-rule:evenodd;fill:#014745;}
	.st59{fill-rule:evenodd;clip-rule:evenodd;fill:#24A592;}
	.st60{clip-path:url(#SVGID_50_);}
	.st61{opacity:0.27;fill-rule:evenodd;clip-rule:evenodd;fill:#C2E5E3;}
	.st62{opacity:0.23;fill-rule:evenodd;clip-rule:evenodd;fill:#C2E5E3;}
	.st63{opacity:0.12;fill-rule:evenodd;clip-rule:evenodd;fill:#C2E5E3;}
</style>
<g>
	<rect x="-170.3" y="-0.1" class="st0" width="772.3" height="238.3"/>
	<defs>
		<filter id="Adobe_OpacityMaskFilter" filterUnits="userSpaceOnUse" x="-170.3" y="-0.1" width="772.3" height="238.3">
			<feColorMatrix  type="matrix" values="1 0 0 0 0  0 1 0 0 0  0 0 1 0 0  0 0 0 1 0"/>
		</filter>
	</defs>
	<mask maskUnits="userSpaceOnUse" x="-170.3" y="-0.1" width="772.3" height="238.3" id="SVGID_1_">
		<g class="st1">
			
				<linearGradient id="SVGID_2_" gradientUnits="userSpaceOnUse" x1="-15.4872" y1="596.3879" x2="-121.6933" y2="222.1262" gradientTransform="matrix(1 0 0 1 261.6191 -370.6016)">
				<stop  offset="0" style="stop-color:#000000"/>
				<stop  offset="1" style="stop-color:#FFFFFF"/>
			</linearGradient>
			<rect x="-170.3" y="-0.1" class="st2" width="772.3" height="238.3"/>
		</g>
	</mask>
	<rect x="-170.3" y="-0.1" class="st3" width="772.3" height="238.3"/>
	<defs>
		<filter id="Adobe_OpacityMaskFilter_1_" filterUnits="userSpaceOnUse" x="-170.3" y="10.8" width="643.7" height="267.6">
			<feColorMatrix  type="matrix" values="1 0 0 0 0  0 1 0 0 0  0 0 1 0 0  0 0 0 1 0"/>
		</filter>
	</defs>
	<mask maskUnits="userSpaceOnUse" x="-170.3" y="10.8" width="643.7" height="267.6" id="SVGID_3_">
		<g class="st4">
			
				<linearGradient id="SVGID_4_" gradientUnits="userSpaceOnUse" x1="-717.9525" y1="356.0834" x2="13.2923" y2="505.7464" gradientTransform="matrix(1 0 0 1 261.6191 -335.9058)">
				<stop  offset="0" style="stop-color:#000000"/>
				<stop  offset="1" style="stop-color:#FFFFFF"/>
			</linearGradient>
			<rect x="-170.3" y="10.8" class="st5" width="643.7" height="267.6"/>
		</g>
	</mask>
	<path class="st6" d="M-170.3,138.5C223,289.8,437.6,318.4,473.4,224.3c-49.4-20.5-104.5-22.4-155.1-5.4
		c-31.8,11-66.3,13.2-99.8,5.9c-49.1-10.6-91.9-40.8-118.4-83.5C43,49.1-62.8-1-170.3,13.2C-170.3,96.7-170.3,138.5-170.3,138.5"/>
	<path class="st7" d="M-170.3,254.4c262.6,78.1,439.9,84.8,531.9,20.2c-48.8-34.8-109.1-49.5-168.4-41.3
		c-58.2,9.4-118.1-8.3-162.1-48.7c-54.2-50.8-127.3-76.5-201.4-70.8C-170.3,207.5-170.3,254.4-170.3,254.4"/>
	<defs>
		<filter id="Adobe_OpacityMaskFilter_2_" filterUnits="userSpaceOnUse" x="-170.3" y="113" width="531.9" height="205.5">
			<feColorMatrix  type="matrix" values="1 0 0 0 0  0 1 0 0 0  0 0 1 0 0  0 0 0 1 0"/>
		</filter>
	</defs>
	<mask maskUnits="userSpaceOnUse" x="-170.3" y="113" width="531.9" height="205.5" id="SVGID_5_">
		<g class="st8">
			
				<linearGradient id="SVGID_6_" gradientUnits="userSpaceOnUse" x1="-99.5819" y1="494.6767" x2="-362.5454" y2="583.1181" gradientTransform="matrix(1 0 0 1 261.6191 -301.25)">
				<stop  offset="0" style="stop-color:#000000"/>
				<stop  offset="1" style="stop-color:#FFFFFF"/>
			</linearGradient>
			<rect x="-170.3" y="113" class="st9" width="531.9" height="205.5"/>
		</g>
	</mask>
	<path class="st10" d="M-170.3,254.4c262.6,78.1,439.9,84.8,531.9,20.2c-48.8-34.8-109.1-49.5-168.4-41.3
		c-58.2,9.4-118.1-8.3-162.1-48.7c-54.2-50.8-127.3-76.5-201.4-70.8C-170.3,207.5-170.3,254.4-170.3,254.4"/>
	<path class="st11" d="M-170.3,241.3c210.3,60.1,332.7,71.7,367,34.8c-44.6,17.9-96.1,6.2-127.7-29C8.9,182.2-81.2,151.3-170.3,165
		C-170.3,215.9-170.3,241.3-170.3,241.3"/>
	<path class="st12" d="M-170.3,309.5c317.1,39.2,497.2,26.2,540.3-38.9c-67.3-22-139.7-23.1-207.7-3.1
		c-60.1,18.9-125.4,12.7-180.8-17.2c-46.4-25.2-99-37-151.8-34.2C-170.3,278.4-170.3,309.5-170.3,309.5"/>
	<g>
		<defs>
			<path id="SVGID_7_" d="M-170.3,309.5c317.1,39.2,497.2,26.2,540.3-38.9c-67.3-22-139.7-23.1-207.7-3.1
				c-60.1,18.9-125.4,12.7-180.8-17.2c-46.4-25.2-99-37-151.8-34.2C-170.3,278.4-170.3,309.5-170.3,309.5"/>
		</defs>
		<clipPath id="SVGID_8_">
			<use xlink:href="#SVGID_7_"  style="overflow:visible;"/>
		</clipPath>
		<g class="st13">
			<defs>
				<rect id="SVGID_9_" x="-170.3" y="215.7" width="540.3" height="115.8"/>
			</defs>
			<clipPath id="SVGID_10_">
				<use xlink:href="#SVGID_9_"  style="overflow:visible;"/>
			</clipPath>
			<g transform="matrix(1 0 0 1 0 1.525879e-05)" style="clip-path:url(#SVGID_10_);">
				
					<image style="overflow:visible;" width="1296" height="277" xlink:href="A63F24C.png"  transform="matrix(0.4169 0 0 0.418 -170.2861 215.7469)">
				</image>
			</g>
		</g>
	</g>
	<rect x="-170.3" y="299.9" class="st12" width="494.9" height="100"/>
	<g>
		<defs>
			<rect id="SVGID_11_" x="-170.3" y="299.9" width="494.9" height="100"/>
		</defs>
		<clipPath id="SVGID_12_">
			<use xlink:href="#SVGID_11_"  style="overflow:visible;"/>
		</clipPath>
		<g class="st14">
			<defs>
				<rect id="SVGID_13_" x="-170.3" y="299.9" width="494.9" height="100"/>
			</defs>
			<clipPath id="SVGID_14_">
				<use xlink:href="#SVGID_13_"  style="overflow:visible;"/>
			</clipPath>
			<g style="clip-path:url(#SVGID_14_);">
				
					<image style="overflow:visible;" width="1187" height="240" xlink:href="A63F24D.png"  transform="matrix(0.417 0 0 0.4168 -170.2864 299.9494)">
				</image>
			</g>
		</g>
	</g>
	<g>
		<defs>
			<path id="SVGID_15_" d="M-170.3,365.1c82.5-6,165-12,247.4-17.9c82.5-6,165-12,247.5-17.9c0,12,0,23.9,0,35.9
				c0,11.9,0,23.9,0,35.8c-82.5-6-165.1-12-247.5-17.9C-5.3,377.1-87.8,371.1-170.3,365.1C-170.3,365.1-170.3,365.1-170.3,365.1
				L-170.3,365.1"/>
		</defs>
		<clipPath id="SVGID_16_">
			<use xlink:href="#SVGID_15_"  style="overflow:visible;"/>
		</clipPath>
		<g class="st15">
			<defs>
				<rect id="SVGID_17_" x="-170.3" y="329.3" width="494.9" height="71.7"/>
			</defs>
			<clipPath id="SVGID_18_">
				<use xlink:href="#SVGID_17_"  style="overflow:visible;"/>
			</clipPath>
			<g transform="matrix(1 0 0 1 0 0)" style="clip-path:url(#SVGID_18_);">
				
					<image style="overflow:visible;" width="1187" height="172" xlink:href="A63F253.png"  transform="matrix(0.417 0 0 0.4168 -170.2864 329.2743)">
				</image>
			</g>
		</g>
	</g>
	<g>
		<defs>
			<path id="SVGID_19_" d="M97.7,322.6c37.8-2.8,75.6-5.5,113.4-8.3c37.8-2.8,75.7-5.5,113.5-8.3c0,5.5,0,11,0,16.5
				c0,5.5,0,11,0,16.5c-37.8-2.8-75.7-5.5-113.5-8.3C173.4,328.1,135.5,325.4,97.7,322.6L97.7,322.6"/>
		</defs>
		<clipPath id="SVGID_20_">
			<use xlink:href="#SVGID_19_"  style="overflow:visible;"/>
		</clipPath>
		<g class="st16">
			<defs>
				<rect id="SVGID_21_" x="97.7" y="306.1" width="226.9" height="33.1"/>
			</defs>
			<clipPath id="SVGID_22_">
				<use xlink:href="#SVGID_21_"  style="overflow:visible;"/>
			</clipPath>
			<g transform="matrix(1 0 0 1 0 0)" style="clip-path:url(#SVGID_22_);">
				
					<image style="overflow:visible;" width="544" height="79" xlink:href="A63F255.png"  transform="matrix(0.4172 0 0 0.4187 97.7212 306.0784)">
				</image>
			</g>
		</g>
	</g>
	<path class="st17" d="M82.8,76.8c23.3,4.2,34.9,6.4,34.9,6.4s-86.1,0-258.3,0c14.2-3.1,21.3-4.6,21.3-4.6c2.1-6,7.1-10.6,13.2-12.3
		c6.1-1.7,12.7-0.3,17.7,3.7c1-10.5,7.5-19.6,17.2-23.8c9.6-4.2,20.8-2.8,29.1,3.6c10.8-18.1,31.9-27.4,52.5-23
		C31,31.1,46.6,48,49.2,68.9c5.2-4.3,12.2-6,18.8-4.4C74.6,66.1,80.1,70.6,82.8,76.8"/>
	<path class="st17" d="M302.1,108.4c11,3.4,16.5,5.1,16.5,5.1s-54.5,0-163.4,0c24.9-3.3,37.4-4.9,37.4-4.9
		c3.6-8.6,12.6-13.7,21.8-12.2c6.3-13.8,20.3-22.3,35.4-21.5c15.1,0.8,28.2,10.7,33,25.1C290.3,97.4,298.7,101,302.1,108.4"/>
	<path class="st18" d="M279.8-0.1c75.3,0,112.9,0,112.9,0l111,91.8c8.8-3.7,18.9-2.7,26.8,2.8c2.1,1.5,4,3.2,5.6,5.2L602,62.3
		c0,0,0,21,0,62.9c-12.1,8.3-27.2,10.6-41.2,6.2c-7-2.2-13.2-5.9-18.4-10.8c-6.1,10-17.2,15.8-28.9,15.1
		c-8.7-0.6-16.6-4.7-22.1-11.2c-3.5,1.9-7.3,3.4-11.3,4.3c-15.5,3.4-31.5-2.4-41.3-14.9c-24.3,16-55.8,16.2-80.4,0.5
		c-24.5-15.7-37.6-44.3-33.3-73.2c-12.1,6.4-27,4.5-37.1-4.8C277.9,27.2,274.6,12.6,279.8-0.1"/>
	<path class="st19" d="M524,226.3c37-17.5,55.6-26.3,55.6-26.3s-2.5-44.2-7.4-132.7c0,0-13.5,5.5-40.6,16.4
		C526.7,178.1,524.2,225.7,524,226.3"/>
	<g>
		<defs>
			<path id="SVGID_23_" d="M524,226.3c37-17.5,55.6-26.3,55.6-26.3s-2.5-44.2-7.4-132.7c0,0-13.5,5.5-40.6,16.4
				C526.7,178.1,524.2,225.7,524,226.3"/>
		</defs>
		<clipPath id="SVGID_24_">
			<use xlink:href="#SVGID_23_"  style="overflow:visible;"/>
		</clipPath>
		<g class="st20">
			<defs>
				<rect id="SVGID_25_" x="524" y="67.2" width="55.6" height="159"/>
			</defs>
			<clipPath id="SVGID_26_">
				<use xlink:href="#SVGID_25_"  style="overflow:visible;"/>
			</clipPath>
			<g style="clip-path:url(#SVGID_26_);">
				
					<image style="overflow:visible;" width="133" height="381" xlink:href="A63F257.png"  transform="matrix(0.4178 0 0 0.4174 523.9851 67.2473)">
				</image>
			</g>
		</g>
	</g>
	<path class="st21" d="M312.5-0.1c193,0,289.5,0,289.5,0s0,19.2,0,57.6c-1.1,6.7-5.6,12.4-11.9,15.1c-6.3,2.7-13.5,2-19.1-1.9
		c-5,18.1-18.7,32.5-36.6,38.4c-17.9,5.9-37.5,2.4-52.2-9.2c-20.2,20.4-51.6,24.6-76.5,10.3c-24.9-14.3-37-43.6-29.6-71.3
		c-13.6,4-28.3,2.1-40.5-5.3C323.6,26.1,315.1,13.9,312.5-0.1"/>
	<defs>
		<filter id="Adobe_OpacityMaskFilter_3_" filterUnits="userSpaceOnUse" x="312.5" y="-0.1" width="289.5" height="118.6">
			<feColorMatrix  type="matrix" values="1 0 0 0 0  0 1 0 0 0  0 0 1 0 0  0 0 0 1 0"/>
		</filter>
	</defs>
	<mask maskUnits="userSpaceOnUse" x="312.5" y="-0.1" width="289.5" height="118.6" id="SVGID_27_">
		<g class="st22">
			
				<linearGradient id="SVGID_28_" gradientUnits="userSpaceOnUse" x1="-142.0448" y1="553.2822" x2="-356.3666" y2="499.3285" gradientTransform="matrix(1 0 0 1 678.8132 -474.0029)">
				<stop  offset="0" style="stop-color:#000000"/>
				<stop  offset="1" style="stop-color:#FFFFFF"/>
			</linearGradient>
			<rect x="312.5" y="-0.1" class="st23" width="289.5" height="118.6"/>
		</g>
	</mask>
	<path class="st24" d="M312.5-0.1c193,0,289.5,0,289.5,0s0,19.2,0,57.6c-1.1,6.7-5.6,12.4-11.9,15.1c-6.3,2.7-13.5,2-19.1-1.9
		c-5,18.1-18.7,32.5-36.6,38.4c-17.9,5.9-37.5,2.4-52.2-9.2c-20.2,20.4-51.6,24.6-76.5,10.3c-24.9-14.3-37-43.6-29.6-71.3
		c-13.6,4-28.3,2.1-40.5-5.3C323.6,26.1,315.1,13.9,312.5-0.1"/>
	<path class="st25" d="M602-0.1c-114.9,0-172.4,0-172.4,0c0.9,16.7,10.9,31.5,26.1,38.6c15.1,7.1,32.9,5.4,46.4-4.5
		c-9.7,26.9,2.8,56.8,28.7,68.9c25.9,12.1,56.8,2.4,71.2-22.3C602,26.8,602-0.1,602-0.1"/>
	<g>
		<defs>
			<path id="SVGID_29_" d="M602-0.1c-114.9,0-172.4,0-172.4,0c0.9,16.7,10.9,31.5,26.1,38.6c15.1,7.1,32.9,5.4,46.4-4.5
				c-9.7,26.9,2.8,56.8,28.7,68.9c25.9,12.1,56.8,2.4,71.2-22.3C602,26.8,602-0.1,602-0.1"/>
		</defs>
		<clipPath id="SVGID_30_">
			<use xlink:href="#SVGID_29_"  style="overflow:visible;"/>
		</clipPath>
		<g class="st26">
			<defs>
				<rect id="SVGID_31_" x="429.6" y="-0.1" width="172.4" height="108.2"/>
			</defs>
			<clipPath id="SVGID_32_">
				<use xlink:href="#SVGID_31_"  style="overflow:visible;"/>
			</clipPath>
			<g style="clip-path:url(#SVGID_32_);">
				
					<image style="overflow:visible;" width="413" height="259" xlink:href="A63F254.png"  transform="matrix(0.4173 0 0 0.4176 429.6431 -5.885564e-02)">
				</image>
			</g>
		</g>
	</g>
	<path class="st27" d="M387.7,69.7c0.5,5.7-1.3,11.3-5.2,15.6c-3.8,4.2-9.3,6.7-15,6.7c-1-5.8,0.7-11.7,4.6-16.1
		C376.1,71.5,381.9,69.2,387.7,69.7"/>
	<path class="st28" d="M434.2,66.5c-1.9,3.8-2.2,8.2-0.6,12.2c1.5,4,4.6,7.1,8.6,8.7c2.3-3.7,2.7-8.3,1.2-12.4
		C441.7,70.9,438.3,67.7,434.2,66.5"/>
	<path class="st29" d="M485.8,26.8c3,4.9,3.8,10.8,2.1,16.4c-1.6,5.5-5.5,10.1-10.6,12.6c-3.5-4.8-4.5-10.9-2.9-16.6
		C476,33.5,480.2,28.9,485.8,26.8"/>
	<path class="st27" d="M331,10.6c1.3,2.5,1.4,5.5,0.4,8.2c-1,2.7-3.1,4.8-5.8,5.8c-1.5-2.5-1.8-5.6-0.8-8.3
		C326,13.6,328.2,11.5,331,10.6"/>
	<path class="st29" d="M524,101.1c2,3.3,2.5,7.2,1.4,10.9c-1.1,3.7-3.6,6.7-7.1,8.4c-2.3-3.2-3-7.2-1.9-11
		C517.5,105.6,520.3,102.5,524,101.1"/>
	<path class="st27" d="M406.7,102.1c2.1,2.3,3.1,5.3,2.8,8.4c-0.3,3.1-1.8,5.9-4.3,7.8c-2.3-2.2-3.5-5.3-3.2-8.5
		C402.3,106.6,404,103.8,406.7,102.1"/>
	<path class="st29" d="M580.7,32.7c-1.7,2.7-2.1,6-1.2,9.1c0.9,3.1,3.1,5.6,5.9,7c1.9-2.7,2.5-6.1,1.6-9.2
		C586.1,36.5,583.8,33.9,580.7,32.7"/>
	<path class="st30" d="M338.3,54.2c0.7,0,1.2,0.6,1.2,1.2c0,0.7-0.6,1.2-1.2,1.2c-0.7,0-1.2-0.6-1.2-1.2
		C337,54.8,337.6,54.2,338.3,54.2"/>
	<path class="st30" d="M401.4,60.8c1.2,0,2.2,1,2.2,2.2c0,1.2-1,2.2-2.2,2.2c-1.2,0-2.2-1-2.2-2.2C399.1,61.8,400.1,60.8,401.4,60.8
		"/>
	<path class="st30" d="M381,107.6c0.7,0,1.2,0.5,1.2,1.2c0,0.7-0.5,1.2-1.2,1.2c-0.7,0-1.2-0.5-1.2-1.2
		C379.9,108.2,380.4,107.6,381,107.6"/>
	<path class="st30" d="M536.8,21.8c0.7,0,1.2,0.5,1.2,1.2c0,0.7-0.5,1.2-1.2,1.2c-0.7,0-1.2-0.5-1.2-1.2
		C535.6,22.3,536.1,21.8,536.8,21.8"/>
	<path class="st30" d="M563.6,83.6c1.2,0,2.2,1,2.2,2.2c0,1.2-1,2.2-2.2,2.2s-2.2-1-2.2-2.2C561.3,84.6,562.3,83.6,563.6,83.6"/>
	<path class="st30" d="M361.2,16.8c1.2,0,2.2,1,2.2,2.2c0,1.2-1,2.2-2.2,2.2c-1.2,0-2.2-1-2.2-2.2C358.9,17.8,359.9,16.8,361.2,16.8
		"/>
	<path class="st30" d="M290.1,22.1c0.6,0,1.1,0.5,1.1,1.1c0,0.6-0.5,1.1-1.1,1.1c-0.6,0-1.1-0.5-1.1-1.1
		C289,22.6,289.5,22.1,290.1,22.1"/>
	<path class="st30" d="M589.8,19.4c1.7,0,3.1,1.4,3.1,3.1c0,1.7-1.4,3.1-3.1,3.1s-3.1-1.4-3.1-3.1C586.7,20.8,588.1,19.4,589.8,19.4
		"/>
	<path class="st30" d="M476.3,111.4c0.6,0,1.1,0.5,1.1,1.1c0,0.6-0.5,1.1-1.1,1.1c-0.6,0-1.1-0.5-1.1-1.1
		C475.2,111.9,475.7,111.4,476.3,111.4"/>
	<path class="st30" d="M457.4,16.8c0.8,0,1.5,0.7,1.5,1.5s-0.7,1.5-1.5,1.5c-0.8,0-1.5-0.7-1.5-1.5S456.5,16.8,457.4,16.8"/>
	<path class="st29" d="M450,110.7c-1.8,2.9-2.2,6.4-1.3,9.7c1,3.3,3.2,6,6.3,7.4c2.1-2.8,2.7-6.4,1.7-9.8
		C455.7,114.7,453.2,112,450,110.7"/>
	<path class="st30" d="M537.4,151.7c0.3,0,0.5,0.2,0.5,0.5c0,0.3-0.2,0.5-0.5,0.5c-0.3,0-0.5-0.2-0.5-0.5
		C536.9,151.9,537.1,151.7,537.4,151.7"/>
	<path class="st30" d="M571.5,147.8c1,0,1.9,0.8,1.9,1.9s-0.8,1.9-1.9,1.9c-1,0-1.9-0.8-1.9-1.9S570.5,147.8,571.5,147.8"/>
	<path class="st30" d="M533.5,164.1c0.4,0,0.8,0.3,0.8,0.8c0,0.4-0.3,0.8-0.8,0.8c-0.4,0-0.8-0.3-0.8-0.8
		C532.7,164.5,533.1,164.1,533.5,164.1"/>
	<path class="st30" d="M546.2,196.1c0.5,0,0.9,0.4,0.9,0.9c0,0.5-0.4,0.9-0.9,0.9c-0.5,0-0.9-0.4-0.9-0.9
		C545.3,196.6,545.7,196.1,546.2,196.1"/>
	<path class="st31" d="M602,232.5C362.7,338.1,233.2,372,211,337.2c12.1-0.9,22-15.1,29.9-24.3c22.6-27.5,56.6-43.2,92.2-42.5
		c19.2,1.1,37.7-7,49.9-21.8c51.6-65.6,141.4-99.2,219.1-65.4C602,209.4,602,232.5,602,232.5"/>
	<defs>
		<filter id="Adobe_OpacityMaskFilter_4_" filterUnits="userSpaceOnUse" x="211" y="169.9" width="391" height="180.5">
			<feColorMatrix  type="matrix" values="1 0 0 0 0  0 1 0 0 0  0 0 1 0 0  0 0 0 1 0"/>
		</filter>
	</defs>
	<mask maskUnits="userSpaceOnUse" x="211" y="169.9" width="391" height="180.5" id="SVGID_33_">
		<g class="st32">
			
				<linearGradient id="SVGID_34_" gradientUnits="userSpaceOnUse" x1="-159.9931" y1="545.1586" x2="-331.0547" y2="466.4732" gradientTransform="matrix(1 0 0 1 591.0568 -273.7352)">
				<stop  offset="0" style="stop-color:#000000"/>
				<stop  offset="1" style="stop-color:#FFFFFF"/>
			</linearGradient>
			<rect x="211" y="169.9" class="st33" width="391" height="180.5"/>
		</g>
	</mask>
	<path class="st34" d="M602,232.5C362.7,338.1,233.2,372,211,337.2c12.1-0.9,22-15.1,29.9-24.3c22.6-27.5,56.6-43.2,92.2-42.5
		c19.2,1.1,37.7-7,49.9-21.8c51.6-65.6,141.4-99.2,219.1-65.4C602,209.4,602,232.5,602,232.5"/>
	<path class="st35" d="M590.1,295.4C477.4,354.2,331.2,389.1,151.6,400H15.5c14.8-25.7,45-38.3,73.7-30.7c37.9,9,77.9,0,108.2-24.5
		c27.9-22.6,63.6-33.4,99.4-30c32.4,3.2,64.5-8.5,87.3-31.8c55.8-59,140.4-81,217.9-56.6v10.8c-1.2,2.1-2,4.5-2,7.1v7.3
		c-0.3,1.7-0.5,3.4-0.7,5.1c-0.2,0.9-0.4,1.7-0.5,2.6l-0.2,1.9c0,0,0,0,0,0l-0.2,1.6c-0.3,2-0.6,3.9-0.8,5.8
		c-4.5,2.2-7.6,6.9-7.6,12.2V295.4z"/>
	<g>
		<defs>
			<path id="SVGID_35_" d="M590.1,295.4C477.4,354.2,331.2,389.1,151.6,400H15.5c14.8-25.7,45-38.3,73.7-30.7
				c37.9,9,77.9,0,108.2-24.5c27.9-22.6,63.6-33.4,99.4-30c32.4,3.2,64.5-8.5,87.3-31.8c55.8-59,140.4-81,217.9-56.6v10.8
				c-1.2,2.1-2,4.5-2,7.1v7.3c-0.3,1.7-0.5,3.4-0.7,5.1c-0.2,0.9-0.4,1.7-0.5,2.6l-0.2,1.9c0,0,0,0,0,0l-0.2,1.6
				c-0.3,2-0.6,3.9-0.8,5.8c-4.5,2.2-7.6,6.9-7.6,12.2V295.4z"/>
		</defs>
		<clipPath id="SVGID_36_">
			<use xlink:href="#SVGID_35_"  style="overflow:visible;"/>
		</clipPath>
		<g class="st36">
			<defs>
				<rect id="SVGID_37_" x="15.5" y="216.6" width="586.5" height="183.3"/>
			</defs>
			<clipPath id="SVGID_38_">
				<use xlink:href="#SVGID_37_"  style="overflow:visible;"/>
			</clipPath>
			<g transform="matrix(1 0 0 1 0 -1.525879e-05)" style="clip-path:url(#SVGID_38_);">
				
					<image style="overflow:visible;" width="1407" height="440" xlink:href="A63F25C.png"  transform="matrix(0.4168 0 0 0.4167 15.5322 216.6463)">
				</image>
			</g>
		</g>
	</g>
	<path class="st37" d="M309.9,352.1c9.7,3.5,18.8,5.3,24.5,5.2c-0.4,1.5-0.3,2.6,0.3,3.2c2.5,2.3,12.1-4,21.4-14.1
		c9.4-10.1,15-20.1,12.5-22.4c-2.5-2.3-12.1,4-21.4,14.1c-0.1,0.1-0.2,0.2-0.2,0.3c0.9-2.7,1.7-5.8,2.3-9
		c2.6-13.5,1.4-25.1-2.6-25.9c-4.1-0.8-9.5,9.5-12.1,23.1c-0.2,1.1-0.4,2.2-0.6,3.3c-4.9-12.5-11.9-21.4-15.6-19.9
		c-3.9,1.5-3,13.1,1.9,25.9c0.7,1.7,1.4,3.4,2.1,5c-2.1-0.9-4.3-1.8-6.6-2.6c-15.2-5.5-28.9-6.9-30.5-3.1
		C283.7,339.1,294.7,346.6,309.9,352.1"/>
	<g>
		<defs>
			<path id="SVGID_39_" d="M309.9,352.1c9.7,3.5,18.8,5.3,24.5,5.2c-0.4,1.5-0.3,2.6,0.3,3.2c2.5,2.3,12.1-4,21.4-14.1
				c9.4-10.1,15-20.1,12.5-22.4c-2.5-2.3-12.1,4-21.4,14.1c-0.1,0.1-0.2,0.2-0.2,0.3c0.9-2.7,1.7-5.8,2.3-9
				c2.6-13.5,1.4-25.1-2.6-25.9c-4.1-0.8-9.5,9.5-12.1,23.1c-0.2,1.1-0.4,2.2-0.6,3.3c-4.9-12.5-11.9-21.4-15.6-19.9
				c-3.9,1.5-3,13.1,1.9,25.9c0.7,1.7,1.4,3.4,2.1,5c-2.1-0.9-4.3-1.8-6.6-2.6c-15.2-5.5-28.9-6.9-30.5-3.1
				C283.7,339.1,294.7,346.6,309.9,352.1"/>
		</defs>
		<clipPath id="SVGID_40_">
			<use xlink:href="#SVGID_39_"  style="overflow:visible;"/>
		</clipPath>
		<g class="st38">
			<defs>
				<rect id="SVGID_41_" x="285.2" y="303.6" width="84.1" height="57.5"/>
			</defs>
			<clipPath id="SVGID_42_">
				<use xlink:href="#SVGID_41_"  style="overflow:visible;"/>
			</clipPath>
			<g transform="matrix(1 0 0 1 0 0)" style="clip-path:url(#SVGID_42_);">
				
					<image style="overflow:visible;" width="201" height="138" xlink:href="A63F25D.png"  transform="matrix(0.4186 0 0 0.4168 285.1802 303.5527)">
				</image>
			</g>
		</g>
	</g>
	<path class="st39" d="M250.4,400H137.6c25-0.7,59.3-9.9,79.7-23.9c41.4-28.4,93-38,141.9-26.2c22.6,4.8,46.7-1.7,63.9-18.5
		c45.9-45.4,110.6-66.1,174.1-56.1c-2.8,2.5-4.6,6.2-4.6,10.2v10.7l-1.1,7c0,0.3-0.1,0.6-0.1,0.9l-0.4,4.6c0,0.4-0.1,0.8-0.1,1.2
		v20.7c0,1.4,0.2,2.8,0.4,4.2v8c0,6.5,4.6,11.9,10.7,13.3V400H250.4z"/>
	<defs>
		<filter id="Adobe_OpacityMaskFilter_5_" filterUnits="userSpaceOnUse" x="137.6" y="272.7" width="464.4" height="127.2">
			<feColorMatrix  type="matrix" values="1 0 0 0 0  0 1 0 0 0  0 0 1 0 0  0 0 0 1 0"/>
		</filter>
	</defs>
	<mask maskUnits="userSpaceOnUse" x="137.6" y="272.7" width="464.4" height="127.2" id="SVGID_43_">
		<g class="st40">
			
				<linearGradient id="SVGID_44_" gradientUnits="userSpaceOnUse" x1="-51.1165" y1="590.8034" x2="-375.5214" y2="519.1082" gradientTransform="matrix(1 0 0 1 527.6163 -230.8586)">
				<stop  offset="0" style="stop-color:#000000"/>
				<stop  offset="1" style="stop-color:#C7C6C5"/>
			</linearGradient>
			<rect x="137.6" y="272.7" class="st41" width="464.4" height="127.2"/>
		</g>
	</mask>
	<path class="st42" d="M250.4,400H137.6c25-0.7,59.3-9.9,79.7-23.9c41.4-28.4,93-38,141.9-26.2c22.6,4.8,46.7-1.7,63.9-18.5
		c45.9-45.4,110.6-66.1,174.1-56.1c-2.8,2.5-4.6,6.2-4.6,10.2v10.7l-1.1,7c0,0.3-0.1,0.6-0.1,0.9l-0.4,4.6c0,0.4-0.1,0.8-0.1,1.2
		v20.7c0,1.4,0.2,2.8,0.4,4.2v8c0,6.5,4.6,11.9,10.7,13.3V400H250.4z"/>
	<path class="st37" d="M527.7,299.3c-3.7,15.5-9,28.8-14,36.1c2.3,0.8,3.7,1.9,3.9,3.2c0.9,5.1-15.4,12.2-36.4,15.8
		c-21,3.6-38.7,2.4-39.5-2.7c-0.9-5.1,15.4-12.2,36.4-15.8c0.2,0,0.3-0.1,0.5-0.1c-4.3-1.2-8.9-2.7-13.5-4.7
		c-19.7-8.1-33.7-19.4-31.2-25.3c2.4-5.9,20.3-4.1,40,3.9c1.6,0.7,3.2,1.3,4.7,2c-12-16.9-17.6-33.4-12.5-37.1
		c5.2-3.7,19.5,7.2,31.9,24.5c1.7,2.3,3.3,4.7,4.7,7c0.6-3.5,1.3-7.1,2.2-10.8c5.8-24.3,15.6-43.1,21.9-42
		C533,254.3,533.5,275,527.7,299.3"/>
	<path class="st43" d="M584,287.3c-5.9-2.4-15.8-13.1-24.9-27.4c-11.4-18-17.1-34.8-12.7-37.5c4.4-2.8,17.2,9.5,28.6,27.5
		c0.1,0.1,0.2,0.3,0.3,0.4c-0.6-4.4-0.9-9.2-0.9-14.3c-0.1-21.3,5-38.5,11.3-38.6c6.4,0,11.6,17.2,11.8,38.4c0,1.7,0,3.4-0.1,5.1
		c1.5-2.4,3-4.7,4.6-6.8v33.5c-1.7-0.7-3.5-1.1-5.4-1.1c-6.5,0-12,4.6-13.3,10.7C582.3,280.5,582.5,284.2,584,287.3"/>
	<defs>
		<filter id="Adobe_OpacityMaskFilter_6_" filterUnits="userSpaceOnUse" x="433.6" y="253.2" width="98.2" height="103.2">
			<feColorMatrix  type="matrix" values="1 0 0 0 0  0 1 0 0 0  0 0 1 0 0  0 0 0 1 0"/>
		</filter>
	</defs>
	<mask maskUnits="userSpaceOnUse" x="433.6" y="253.2" width="98.2" height="103.2" id="SVGID_45_">
		<g class="st44">
			
				<linearGradient id="SVGID_46_" gradientUnits="userSpaceOnUse" x1="-288.3003" y1="575.2825" x2="-346.2351" y2="566.1398" gradientTransform="matrix(1 0 0 1 783.3932 -268.5379)">
				<stop  offset="0" style="stop-color:#000000"/>
				<stop  offset="1" style="stop-color:#FFFFFF"/>
			</linearGradient>
			<rect x="433.6" y="253.2" class="st45" width="98.2" height="103.2"/>
		</g>
	</mask>
	<path class="st46" d="M527.7,299.3c-3.7,15.5-9,28.8-14,36.1c2.3,0.8,3.7,1.9,3.9,3.2c0.9,5.1-15.4,12.2-36.4,15.8
		c-21,3.6-38.7,2.4-39.5-2.7c-0.9-5.1,15.4-12.2,36.4-15.8c0.2,0,0.3-0.1,0.5-0.1c-4.3-1.2-8.9-2.7-13.5-4.7
		c-19.7-8.1-33.7-19.4-31.2-25.3c2.4-5.9,20.3-4.1,40,3.9c1.6,0.7,3.2,1.3,4.7,2c-12-16.9-17.6-33.4-12.5-37.1
		c5.2-3.7,19.5,7.2,31.9,24.5c1.7,2.3,3.3,4.7,4.7,7c0.6-3.5,1.3-7.1,2.2-10.8c5.8-24.3,15.6-43.1,21.9-42
		C533,254.3,533.5,275,527.7,299.3"/>
	<path class="st37" d="M525.2,343.8l71.8,5.3c-0.8-1.7-1.2-3.6-1.2-5.7v-10l-0.3-3.4c-0.1-1.1,0-2.2,0-3.3c-0.6-2.7-1.1-5.3-1.6-8
		l-0.9-3.6c-0.1-0.2-0.1-0.4-0.1-0.6c-0.2-1-0.4-2-0.5-3.1l-0.3-3.6c0-0.4-0.1-0.8-0.1-1.2v-19.8c0-6.3,4.3-11.6,10.1-13.2v-7.5
		c-12.4-18-33.7-27.6-55.3-25.2l-0.1,0c-0.3,0.1-0.6,0.3-0.9,0.4c-0.4,0.2-0.9,0.3-1.3,0.5c-0.7,0.3-1.4,0.5-2.2,0.6
		c-0.6,0.1-1.1,0.2-1.7,0.3c-0.2,0-0.5,0.1-0.7,0.1c-0.8,0.1-1.1,0.4-1.8,0.7c-0.5,0.3-1,0.6-1.6,0.8c-0.6,0.3-1.2,0.6-1.9,0.8
		c-0.3,0.2-0.7,0.3-1,0.5c-0.6,0.3-1.2,0.5-1.8,0.7c-0.4,0.4-0.8,0.7-1.2,1c-0.6,0.5-1.2,1-1.8,1.5c-0.3,0.3-0.7,0.5-1,0.8
		c-0.3,0.2-0.5,0.4-0.8,0.6c-0.9,1-2,1.8-3.2,2.5c-0.4,0.3-0.8,0.6-1.2,0.8c-0.6,0.6-1.3,1.1-2,1.5c-0.4,0.3-0.8,0.5-1.2,0.8
		c-0.7,0.6-1.5,1-2.3,1.4c-0.7,0.7-1.6,1.4-2.5,1.9c-0.5,0.5-1.1,0.9-1.6,1.4c-0.2,0.2-0.4,0.3-0.6,0.5c-0.3,0.5-0.6,0.9-1,1.3
		c-0.2,0.6-0.5,1.1-0.9,1.7c-0.4,0.9-0.9,1.8-1.5,2.7c-0.1,0.2-0.2,0.4-0.3,0.5c-0.5,1.2-1.2,2.3-2.1,3.4c-0.4,0.7-0.9,1.3-1.3,1.9
		c-0.4,0.6-0.8,1.3-1.2,1.8c-0.2,0.7-0.4,1.4-0.6,2.1v13.6c0,1-0.1,2-0.3,2.9v4.8c0.3,0.9,0.5,1.7,0.6,2.7c0.3,0.8,0.4,1.6,0.7,2.3
		l0.3,1c0.3,0.8,0.4,1.6,0.6,2.4c0.2,0.7,0.5,1.3,0.6,2l0.2,0.4c0.4,0.7,0.9,1.3,1.3,2c0.8,0.9,1.4,1.8,2,2.9c0.3,0.6,0.6,1.3,1,1.9
		c0.2,0.4,0.4,0.8,0.5,1.3l0.2,0.4c0.7,1.1,1.1,2.2,1.5,3.4c0.1,0.4,0.2,0.7,0.3,1.1l0.1,0.2c0.4,0.5,0.8,1.1,1.2,1.7
		c0.3,0.5,0.6,1,0.9,1.5c0.6,0.8,1.1,1.7,1.5,2.7c0.2,0.4,0.4,0.8,0.6,1.2c0.5,0.6,0.9,1.2,1.3,1.9c1,1.3,1.8,2.7,2.3,4.2l0.1,0.3
		c0.5,0.7,0.9,1.5,1.3,2.2c0.2,0.3,0.4,0.5,0.5,0.8c0.4,0.6,0.8,1.2,1.2,1.9l0.2,0.4C524.6,341.8,525,342.8,525.2,343.8"/>
	<path class="st43" d="M512.3,342.9c14.1-3,21.1-4.6,21.1-4.6c-18.4-11.5-28-33-24.3-54.4c3.6-21.4,19.8-38.5,41-43.3
		c-23.7,1.3-44.3,16.5-52.5,38.7C489.3,301.6,495.1,326.5,512.3,342.9"/>
	<path class="st47" d="M559.4,339.3c28.4,2.6,42.6,4,42.6,4s0-23.6,0-70.9c-18.3-9.7-41-3.7-52.1,13.8
		C538.7,303.7,542.9,326.8,559.4,339.3"/>
	<path class="st48" d="M525.1,257.5c-0.7-1.1-0.4-2.6,0.7-3.4c1.1-0.7,2.6-0.4,3.4,0.7L554,293l17.4-42c0.5-1.2,1.9-1.8,3.2-1.3
		c1.2,0.5,1.8,1.9,1.3,3.2l-18.7,45.1l18.2,28l18-43.4c0.5-1.2,1.9-1.8,3.2-1.3c1.2,0.5,1.8,1.9,1.3,3.2l-19.3,46.5l5.2,8
		c0.7,1.1,0.4,2.6-0.7,3.4c-1.1,0.7-2.6,0.4-3.4-0.7L561,312.7l-50.7,2.1c-1.3,0.1-2.5-1-2.5-2.3c-0.1-1.3,1-2.5,2.3-2.5L558,308
		L525.1,257.5z"/>
	<path class="st49" d="M415.4,378.1c-37.8-15.2-80.9-6.6-110.1,21.9h210.7c1.3-1.4,2.7-2.5,4.4-3.3c0.1-0.1,0.3-0.2,0.5-0.3
		c0.7-0.5,1.4-0.9,2.1-1.2c0.8-0.4,1.6-0.7,2.5-1c0.2-0.1,0.5-0.2,0.7-0.2c0.6-0.2,1.3-0.4,1.9-0.6c0.5-0.2,1-0.3,1.6-0.4
		c0.5-0.2,1-0.3,1.6-0.4c0.8-0.2,1.6-0.4,2.3-0.5l0.2,0c1.1-0.3,2.3-0.5,3.5-0.5c0.1,0,0.3,0,0.4-0.1c0.7-0.2,1.5-0.4,2.3-0.6l0.2,0
		c0.7-0.3,1.5-0.6,2.2-0.7c1.7-0.8,3.5-1.3,5.3-1.4c1.2-0.4,2.4-0.7,3.6-0.8c0.8-0.2,1.7-0.3,2.5-0.3c0.8-0.2,1.7-0.3,2.6-0.3h35.1
		c1.3-0.3,2.4-0.5,3.7-0.5h0.3l0-2.9c0-1.3,0.2-2.5,0.4-3.8c0.7-3.9,2.9-7.2,6-9.2v-34.8c-44.8-11.8-92.5-0.4-127,30.3
		C458.5,381.4,435.4,385.4,415.4,378.1"/>
	<defs>
		<filter id="Adobe_OpacityMaskFilter_7_" filterUnits="userSpaceOnUse" x="305.3" y="331.7" width="296.7" height="68.3">
			<feColorMatrix  type="matrix" values="1 0 0 0 0  0 1 0 0 0  0 0 1 0 0  0 0 0 1 0"/>
		</filter>
	</defs>
	<mask maskUnits="userSpaceOnUse" x="305.3" y="331.7" width="296.7" height="68.3" id="SVGID_47_">
		<g class="st50">
			
				<linearGradient id="SVGID_48_" gradientUnits="userSpaceOnUse" x1="-110.9031" y1="630.7056" x2="-409.8819" y2="536.5355" gradientTransform="matrix(1 0 0 1 672.5667 -230.8586)">
				<stop  offset="0" style="stop-color:#000000"/>
				<stop  offset="1" style="stop-color:#D5D5D5"/>
			</linearGradient>
			<rect x="305.3" y="331.7" class="st51" width="296.7" height="68.3"/>
		</g>
	</mask>
	<path class="st52" d="M415.4,378.1c-37.8-15.2-80.9-6.6-110.1,21.9h210.7c1.3-1.4,2.7-2.5,4.4-3.3c0.1-0.1,0.3-0.2,0.5-0.3
		c0.7-0.5,1.4-0.9,2.1-1.2c0.8-0.4,1.6-0.7,2.5-1c0.2-0.1,0.5-0.2,0.7-0.2c0.6-0.2,1.3-0.4,1.9-0.6c0.5-0.2,1-0.3,1.6-0.4
		c0.5-0.2,1-0.3,1.6-0.4c0.8-0.2,1.6-0.4,2.3-0.5l0.2,0c1.1-0.3,2.3-0.5,3.5-0.5c0.1,0,0.3,0,0.4-0.1c0.7-0.2,1.5-0.4,2.3-0.6l0.2,0
		c0.7-0.3,1.5-0.6,2.2-0.7c1.7-0.8,3.5-1.3,5.3-1.4c1.2-0.4,2.4-0.7,3.6-0.8c0.8-0.2,1.7-0.3,2.5-0.3c0.8-0.2,1.7-0.3,2.6-0.3h35.1
		c1.3-0.3,2.4-0.5,3.7-0.5h0.3l0-2.9c0-1.3,0.2-2.5,0.4-3.8c0.7-3.9,2.9-7.2,6-9.2v-34.8c-44.8-11.8-92.5-0.4-127,30.3
		C458.5,381.4,435.4,385.4,415.4,378.1"/>
	<path class="st53" d="M549.4,377c7.3,0.1,13.9-0.7,17.7-2.1c0.1,1.1,0.4,1.9,1,2.1c2.2,1,7.2-5.5,11.2-14.4c4-8.9,5.5-17,3.3-18
		c-2.2-1-7.2,5.5-11.2,14.4c0,0.1-0.1,0.1-0.1,0.2c0-2.1-0.2-4.3-0.5-6.6c-1.3-9.7-4.8-17.3-7.7-16.9c-2.9,0.4-4.2,8.6-2.8,18.3
		c0.1,0.8,0.2,1.6,0.4,2.3c-6.2-7.3-12.9-11.7-15.1-9.9c-2.3,1.9,1,9.5,7.3,17.1c0.9,1,1.7,2,2.6,2.9c-1.6-0.1-3.3-0.2-5.1-0.3
		c-11.5-0.2-21.1,2-21.3,5C528.7,374.2,537.8,376.8,549.4,377"/>
	<path class="st54" d="M602,368.1c0,21.2,0,31.9,0,31.9s-30,0-90.1,0C534.1,374.1,568.4,362,602,368.1"/>
	<path class="st28" d="M254.3,364.8c1.7-0.2,3.5,3.5,4.1,8.2c2.8-4,6.1-6.4,7.5-5.4c1.4,1,0.3,5-2.5,9.1c-2.4,3.5-5.3,5.9-6.9,5.8
		l0,0c-1.7,0.2-3.5-3.6-4.1-8.5C251.7,369.1,252.6,364.9,254.3,364.8"/>
	<path class="st28" d="M234.9,369.7c-1.2,1.2,0.6,5,4.1,8.5c3.5,3.5,7.3,5.4,8.5,4.2c1.2-1.2-0.6-5-4.1-8.5
		C239.9,370.3,236.1,368.5,234.9,369.7"/>
	<path class="st28" d="M112.8,383c-0.8,0.7,0,3.2,1.9,5.6c1.9,2.4,4.1,3.9,5,3.2c0.8-0.7,0-3.2-1.9-5.6
		C115.9,383.8,113.6,382.3,112.8,383"/>
	<path class="st28" d="M203.7,356.5c1.4-0.5,3.7,2.1,5.3,6c1.4-4,3.6-6.8,5-6.3c1.4,0.5,1.4,4.2,0,8.2c-1.2,3.5-3.1,6.2-4.5,6.5l0,0
		c-1.4,0.6-3.8-2.2-5.4-6.2C202.5,360.7,202.3,357,203.7,356.5"/>
	<path class="st28" d="M166.3,375.4c1,0.6,0.4,3.5-1.4,6.5c-1.8,3-4.1,4.9-5.1,4.2c-1-0.6-0.4-3.5,1.4-6.5
		C163,376.7,165.3,374.8,166.3,375.4"/>
	<path class="st28" d="M151.4,377.2c-0.8,0.8,0.4,3.5,2.9,6c2.4,2.4,5.1,3.8,6,2.9c0.8-0.8-0.4-3.5-2.9-6
		C155,377.7,152.3,376.4,151.4,377.2"/>
	<path class="st55" d="M388.7,368.3c2.3,0,4.2,5.3,4.3,12c4.4-5,9.4-7.9,11.2-6.3c1.8,1.6-0.4,7-4.9,12.2c-3.9,4.5-8.3,7.3-10.5,6.9
		l0,0c-2.4,0-4.3-5.5-4.3-12.4S386.3,368.3,388.7,368.3"/>
	<path class="st53" d="M345.1,371.8c-1.9,1.5,0,7,4.2,12.4c4.2,5.4,9.1,8.6,11,7.1c1.9-1.5,0-7-4.2-12.4
		C351.9,373.5,347,370.3,345.1,371.8"/>
	<path class="st47" d="M414.6,339.6c1.3-0.7,4,1.8,6,5.5c1-4.2,3-7.2,4.5-6.9c1.5,0.4,1.8,4.1,0.8,8.4c-0.9,3.7-2.5,6.6-3.9,7.1l0,0
		c-1.3,0.7-4.1-1.9-6.1-5.8C413.8,344,413.3,340.3,414.6,339.6"/>
	<path class="st55" d="M497.5,370.9c-1.8,0-3.3,4.2-3.3,9.3c-3.5-3.9-7.3-6.1-8.7-4.9c-1.4,1.2,0.3,5.4,3.8,9.5
		c3,3.5,6.4,5.7,8.2,5.4l0,0c1.8,0,3.3-4.3,3.3-9.6C500.9,375.3,499.4,370.9,497.5,370.9"/>
	<path class="st31" d="M387.2,330.5c0.8-0.4,2.3,1,3.4,3.2c0.6-2.4,1.7-4.2,2.6-4c0.8,0.2,1.1,2.3,0.5,4.8c-0.5,2.1-1.5,3.8-2.2,4
		l0,0c-0.8,0.4-2.3-1.1-3.5-3.3C386.7,333,386.4,330.9,387.2,330.5"/>
	<path class="st31" d="M473.2,238.9c0.8-0.8,3.3,0.3,5.7,2.5c-0.3-3.3,0.4-6,1.5-6.1c1.2-0.1,2.4,2.5,2.7,5.8
		c0.3,2.9-0.2,5.4-1.1,6.1l0,0c-0.8,0.8-3.4-0.3-5.8-2.7C473.7,242.3,472.4,239.7,473.2,238.9"/>
	<path class="st56" d="M264,300.2c0.7-0.5,2.4,0.6,3.9,2.6c0.2-2.5,1-4.4,1.9-4.3c0.9,0.1,1.4,2.2,1.3,4.7c-0.2,2.2-0.8,4-1.6,4.4
		l0,0c-0.7,0.5-2.5-0.7-4-2.7C264,302.8,263.3,300.8,264,300.2"/>
	<path class="st17" d="M479.2,261.1c1.1,0,2,0.9,2,2c0,1.1-0.9,2-2,2c-1.1,0-2-0.9-2-2C477.2,262,478.1,261.1,479.2,261.1"/>
	<path class="st17" d="M553,322.5c0.9,0,1.7,0.8,1.7,1.7s-0.8,1.7-1.7,1.7c-0.9,0-1.7-0.8-1.7-1.7S552.1,322.5,553,322.5"/>
	<path class="st17" d="M501.6,350.5c0.9,0,1.7,0.8,1.7,1.7c0,0.9-0.8,1.7-1.7,1.7c-0.9,0-1.7-0.8-1.7-1.7
		C499.8,351.2,500.6,350.5,501.6,350.5"/>
	<path class="st17" d="M307.7,381.1c1.3,0,2.4,1.1,2.4,2.4c0,1.3-1.1,2.4-2.4,2.4c-1.3,0-2.4-1.1-2.4-2.4
		C305.3,382.2,306.4,381.1,307.7,381.1"/>
	<path class="st17" d="M553.6,384.6c1.5,0,2.8,1.2,2.8,2.8c0,1.5-1.2,2.8-2.8,2.8s-2.8-1.2-2.8-2.8
		C550.8,385.9,552.1,384.6,553.6,384.6"/>
	<path class="st17" d="M401.8,300.5c1.1,0,2,0.9,2,2c0,1.1-0.9,2-2,2c-1.1,0-2-0.9-2-2C399.8,301.4,400.7,300.5,401.8,300.5"/>
	<path class="st17" d="M371.7,307.4c0.9,0,1.7,0.7,1.7,1.7c0,0.9-0.7,1.7-1.7,1.7c-0.9,0-1.7-0.7-1.7-1.7
		C370,308.2,370.7,307.4,371.7,307.4"/>
	<path class="st17" d="M238.8,333.6c0.9,0,1.7,0.7,1.7,1.7s-0.7,1.7-1.7,1.7c-0.9,0-1.7-0.7-1.7-1.7S237.9,333.6,238.8,333.6"/>
	<path class="st17" d="M491.7,210c0.6,0,1.1,0.5,1.1,1.1c0,0.6-0.5,1.1-1.1,1.1c-0.6,0-1.1-0.5-1.1-1.1
		C490.6,210.4,491.1,210,491.7,210"/>
	<path class="st17" d="M439.1,217.7c0.5,0,0.8,0.4,0.8,0.8c0,0.5-0.4,0.8-0.8,0.8c-0.5,0-0.8-0.4-0.8-0.8
		C438.2,218.1,438.6,217.7,439.1,217.7"/>
	<path class="st17" d="M570.6,227.9c0.9,0,1.7,0.7,1.7,1.7c0,0.9-0.7,1.7-1.7,1.7c-0.9,0-1.7-0.7-1.7-1.7
		C568.9,228.6,569.7,227.9,570.6,227.9"/>
	<path class="st17" d="M582.9,284.5c1.2,0,2.2,1,2.2,2.2c0,1.2-1,2.2-2.2,2.2c-1.2,0-2.2-1-2.2-2.2
		C580.7,285.5,581.7,284.5,582.9,284.5"/>
	<path class="st57" d="M112.5,109.4c4.2,0.9,6.3,1.4,6.3,1.4s1.5-1.4,4.4-4.2c0,0-1.4,2-4.1,6.1C119.2,112.7,117,111.6,112.5,109.4"
		/>
	<path class="st57" d="M194.3,184.2c6.4,1.4,9.6,2.1,9.6,2.1s2.3-2.1,6.8-6.4c0,0-2.1,3.1-6.2,9.3
		C204.5,189.2,201.1,187.5,194.3,184.2"/>
	<path class="st57" d="M229.8,133.5c4.2,0.9,6.3,1.4,6.3,1.4s1.5-1.4,4.4-4.2c0,0-1.4,2-4.1,6.1
		C236.4,136.8,234.2,135.7,229.8,133.5"/>
	<path class="st58" d="M-8.2,271.1c0.6-0.3,1.1-0.7,1.6-1.1c0.2-0.1,0.4-0.2,0.6-0.3c0.4-0.1,0.9-0.2,1.3-0.4
		c0.7-0.2,1.4-0.4,2.1-0.7c0.9,0,1.7-0.2,2.5-0.4c0.4-0.1,0.8-0.2,1.2-0.3c0.5-0.1,1.1-0.2,1.6-0.3c0.4-0.1,0.8-0.2,1.2-0.3
		c0.3-0.1,0.5-0.1,0.8-0.2c0.4-0.1,0.7-0.2,1.1-0.4c1.1-0.2,2.1-0.6,3-1.2c0.6-0.2,1.2-0.5,1.8-0.7c0.4-0.1,0.7-0.3,1-0.5
		c0.5-0.2,0.9-0.4,1.4-0.6c1-0.3,1.9-0.7,2.8-1.2c0.4-0.2,0.9-0.4,1.3-0.6c0.4-0.1,0.7-0.3,1-0.5c0.3-0.1,0.7-0.2,1-0.4
		c0.6-0.2,1.2-0.4,1.8-0.6c0.6-0.1,1.2-0.3,1.8-0.6c0.8-0.2,1.5-0.6,2.3-1c0.6-0.2,1.2-0.5,1.7-0.8c0.2-0.1,0.4-0.2,0.5-0.3
		c0.9-0.2,1.8-0.5,2.7-1c0.2-0.1,0.4-0.2,0.6-0.2c1.2-0.4,2.3-1,3.4-1.9c0.2-0.1,0.4-0.3,0.6-0.4c0.6-0.4,1.3-0.8,1.8-1.3
		c1-0.7,1.9-1.6,2.8-2.5l13.5,0c1.2,1.2,2.6,2,4.1,2.5c0.6,0.5,1.2,0.9,1.9,1.3c0.8,0.6,1.7,1,2.7,1.3c0.7,0.4,1.4,0.7,2.1,0.9
		l0.5,0.2c0.2,0.1,0.3,0.1,0.5,0.2c1,0.5,2.1,0.9,3.1,1.1c0.6,0.2,1.1,0.3,1.7,0.4c0.4,0.1,0.7,0.2,1.1,0.2l0.4,0.2
		c0.7,0.4,1.4,0.7,2.1,0.9c0.2,0.1,0.4,0.2,0.6,0.3c0.2,0.1,0.5,0.3,0.7,0.4c0.8,0.5,1.6,1,2.4,1.3c0.9,0.5,1.8,0.9,2.8,1.2
		c0.3,0.1,0.5,0.3,0.8,0.4c0.9,0.5,1.9,0.9,2.9,1.1c0.2,0,0.3,0.1,0.5,0.1c0.4,0.2,0.8,0.3,1.3,0.4c0.7,0.2,1.4,0.4,2.2,0.5
		c0.9,0.4,1.8,0.6,2.7,0.7c0.4,0.2,0.9,0.3,1.3,0.4c0.5,0.2,1,0.4,1.5,0.5c0.4,0.2,0.9,0.4,1.4,0.5c0.2,0.1,0.4,0.2,0.6,0.3
		c1,0.7,2.1,1.2,3.3,1.4c0.1,0.1,0.3,0.1,0.4,0.2c1,0.6,1.9,1.1,2.9,1.5c0.5,0.3,1,0.5,1.6,0.6l0,0c0.4,0.2,0.7,0.4,1.1,0.5
		c0.9,0.5,1.9,0.9,2.9,1.2c0.3,0.2,0.7,0.3,1,0.4c0.4,0.2,0.8,0.3,1.2,0.4c0.8,0.5,1.7,0.9,2.6,1.1l0.1,0.1c0.8,0.4,1.6,0.7,2.5,0.9
		v24H-22.7v-22.4c1.7,0,3.2-0.3,4.8-1.2l0.3-0.2c0.5-0.2,1-0.3,1.4-0.6c1-0.3,2-0.7,3-1.4l0.1,0c0.5-0.2,1.1-0.5,1.6-0.9
		c0.7-0.4,1.3-0.8,2-1.4C-9.1,271.7-8.7,271.4-8.2,271.1"/>
	<rect x="-21.1" y="292.1" class="st59" width="133.3" height="2.4"/>
	<rect x="-21.1" y="284.7" class="st59" width="133.3" height="2.4"/>
	<rect x="-21.1" y="277.1" class="st59" width="133.3" height="2.4"/>
	<rect x="-8.4" y="269.4" class="st59" width="108" height="2.4"/>
	<rect x="11.1" y="261.8" class="st59" width="69" height="2.4"/>
	<rect x="27.2" y="254.7" class="st59" width="36.8" height="2.4"/>
	<path class="st17" d="M-33.7,281.2l80-36.9c0.1-0.1,0.3-0.1,0.4-0.1c0.1,0,0.3,0,0.4,0.1l80,36.9c0.8,0.4,1.3,1.8,1.1,3.3
		c-0.2,1.4-1.1,2.3-1.9,1.9l-79.6-36.7l-79.6,36.7c-0.8,0.4-1.7-0.5-1.9-1.9C-35,283.1-34.5,281.6-33.7,281.2"/>
	<rect x="49.1" y="265.9" class="st17" width="9.6" height="15.1"/>
	<rect x="35.6" y="265.9" class="st17" width="9.6" height="15.1"/>
	<g>
		<defs>
			<rect id="SVGID_49_" x="-34.4" y="299.6" width="162.9" height="56.3"/>
		</defs>
		<clipPath id="SVGID_50_">
			<use xlink:href="#SVGID_49_"  style="overflow:visible;"/>
		</clipPath>
		<g class="st60">
			<defs>
				<rect id="SVGID_51_" x="-34.4" y="299.6" width="162.9" height="56.3"/>
			</defs>
			<clipPath id="SVGID_52_">
				<use xlink:href="#SVGID_51_"  style="overflow:visible;"/>
			</clipPath>
			<g transform="matrix(1 0 0 1 0 0)" style="opacity:0.13;clip-path:url(#SVGID_52_);">
				
					<image style="overflow:visible;" width="391" height="135" xlink:href="A63F25F.png"  transform="matrix(0.4167 0 0 -0.4168 -34.3851 355.8538)">
				</image>
			</g>
		</g>
	</g>
	<path class="st61" d="M-32.3,202.3c24.7,0,44.7,20,44.7,44.7c0,24.7-20,44.7-44.7,44.7c-24.7,0-44.7-20-44.7-44.7
		C-77.1,222.3-57,202.3-32.3,202.3"/>
	<path class="st62" d="M-75.9,193.8c13.9,0,25.1,11.3,25.1,25.1c0,13.9-11.3,25.1-25.1,25.1s-25.1-11.3-25.1-25.1
		C-101,205-89.8,193.8-75.9,193.8"/>
	<path class="st61" d="M-127.8,161.2c6.7,0,12.1,5.4,12.1,12.1c0,6.7-5.4,12.1-12.1,12.1c-6.7,0-12.1-5.4-12.1-12.1
		C-140,166.6-134.5,161.2-127.8,161.2"/>
	<path class="st63" d="M191.3,229.7c23.3,0,42.2,18.9,42.2,42.2c0,23.3-18.9,42.2-42.2,42.2c-23.3,0-42.2-18.9-42.2-42.2
		C149.1,248.6,168,229.7,191.3,229.7"/>
</g>
</svg>
