<?xml version="1.0" encoding="utf-8"?>
<!-- Generator: Adobe Illustrator 23.0.1, SVG Export Plug-In . SVG Version: 6.00 Build 0)  -->
<svg version="1.1" id="Calque_1" xmlns="http://www.w3.org/2000/svg" xmlns:xlink="http://www.w3.org/1999/xlink" x="0px" y="0px"
	 viewBox="0 0 800 600" style="enable-background:new 0 0 800 600;" xml:space="preserve">
<style type="text/css">
	.st0{fill:#323236;stroke:#797BF2;stroke-width:5;stroke-miterlimit:10;}
	.st1{fill:#797BF2;}
</style>
<path class="st0" d="M630.8,502.9H169.2c-21.4,0-38.8-17.4-38.8-38.8V135.9c0-21.4,17.4-38.8,38.8-38.8h461.6
	c21.4,0,38.8,17.4,38.8,38.8v328.2C669.6,485.5,652.2,502.9,630.8,502.9z"/>
<g>
	<path class="st1" d="M517.5,317.9c-1.6-1.4-4.1-1.2-5.5,0.5c-1.4,1.6-1.2,4.1,0.5,5.5c8.4,7.2,12.9,15.2,12.9,23.2
		c0,5.4-1.9,9.9-5.9,13.9c-6.6,6.6-19,11.6-36.7,14.7c-15.9,2.8-35.8,4.2-60.9,4.1c-38.8-0.1-66.1-3.4-83.2-10.2
		c6.6-4.7,13.6-10.3,21.2-16.9c2.3,2.7,5.6,4.5,9.2,4.9c7.6,0.8,14.5-4.9,15.3-12.6c0.5-5.1,0.5-10.3,0-15.4
		c6.8-6.8,13-13.3,18.6-19.4c3.1,5.4,5.3,11,6.4,16.8c1,5,1.2,10.1,0.7,15.3c-0.7,7.7,4.9,14.6,12.5,15.3
		c7.6,0.8,14.4-4.8,15.2-12.6c0.8-7.9,0.4-15.7-1.1-23.4c-1.6-8.1-4.4-15.8-8.4-23.2c7.5,0.2,14.8,0.8,21.9,1.8
		c6.5,8.3,10.5,17.2,11.9,26.7c0.7,5,0.7,10.2,0,15.3c-1.1,7.6,4.2,14.8,11.8,15.9c7.5,1.1,14.7-4.2,15.8-11.9
		c1.1-7.8,1.1-15.7,0-23.4c-0.7-4.6-1.8-9.2-3.3-13.7c3.9,1.5,7.6,3.1,11.1,4.9c1.9,1,4.3,0.2,5.2-1.7c1-1.9,0.2-4.3-1.7-5.2
		c-21.4-10.9-51.1-16.9-81.6-16.6c2.1-2.7,4.1-5.4,5.9-8c11.4-16.3,17-29.7,17-40.8c0-7.7-2.7-14.3-7.9-19.5
		c-11-11-29.7-12.7-52.6-4.9c-21.9,7.5-45.5,23.1-66.2,43.8c-30.1,30-48.7,65.2-48.7,91.9c0,11.1,3.4,20.3,9.7,26.6
		c5.3,5.3,11.8,7.9,19.5,7.9c8.1,0,17.5-3,28.2-8.9c2.2-1.2,4.4-2.5,6.7-4c17.8,8.6,47.6,12.8,90.8,12.9c24.7,0,46.3-1.4,62.3-4.2
		c19.6-3.4,33-9,40.9-16.9c5.4-5.4,8.2-12,8.2-19.4C533.2,336.7,527.7,326.6,517.5,317.9L517.5,317.9z M476.8,305.9
		c2.5,5.9,4.3,11.9,5.2,18.1c1,6.9,1,14.1,0,21.2c-0.5,3.4-3.6,5.7-6.9,5.2c-3.4-0.5-5.7-3.7-5.2-7.1c0.8-5.9,0.8-11.8,0-17.5
		c-1.2-8.3-4.2-16.3-8.9-23.8C466.5,303.1,471.8,304.4,476.8,305.9L476.8,305.9z M376.5,344.2c-0.3,3.2-2.9,5.6-6.1,5.6
		c-1.9,0-3.7-0.9-4.8-2.4c3.6-3.3,7.4-6.8,11.2-10.5C376.9,339.3,376.8,341.7,376.5,344.2L376.5,344.2z M429,323.1
		c1.3,6.9,1.7,14,1,21.1c-0.3,3.4-3.3,5.9-6.7,5.6c-3.4-0.3-5.8-3.4-5.5-6.8c0.6-5.9,0.3-11.8-0.8-17.5c-1.5-7.5-4.4-14.7-8.7-21.4
		c1.6-1.9,3.2-3.7,4.7-5.5c2-0.1,4.1-0.1,6.2-0.2C424.1,306.1,427.3,314.4,429,323.1L429,323.1z M365.5,233
		c5.9,2.4,11.4,5.4,16.4,9.1c5.6,4.2,10.7,9.2,15,14.9c1.9,2.6,1.6,6.1-0.7,8.2c-2.7,2.4-7,2-9.1-0.9c-3.6-4.8-7.8-8.9-12.4-12.4
		c-6.8-5-14.5-8.6-23.1-10.6C356.2,238.3,360.8,235.5,365.5,233L365.5,233z M288.9,308.2c6.1,2.1,11.8,4.9,17,8.5
		c5.8,3.9,11.1,8.7,15.6,14.2c2,2.5,1.9,6-0.3,8.2c-2.6,2.6-6.8,2.3-9.2-0.5c-3.8-4.6-8.2-8.6-13-11.8c-4.8-3.3-10.1-5.8-15.9-7.6
		C284.9,315.6,286.8,311.9,288.9,308.2L288.9,308.2z M320.4,371.8c-17.6,9.7-30.1,10.5-38.4,2.3c-4.9-4.9-7.5-12-7.5-21.1
		c0-8,2-17,5.6-26.5c5.3,1.6,10.2,3.9,14.5,6.8c4.2,2.8,8,6.3,11.3,10.3c5.2,6.3,14.9,6.8,20.7,1.1c5.1-5.1,5.5-13.1,0.8-18.7
		c-5-6.1-10.9-11.4-17.3-15.7c-5.3-3.6-11.2-6.6-17.3-8.8c3.2-5.1,6.8-10.1,10.7-15.1c8,0.4,18.9,2.5,28.9,9.3
		c4.2,2.8,8,6.3,11.3,10.3c4.9,6,13.7,6.8,19.7,2c6-4.9,6.8-13.7,1.9-19.6c-3.1-3.8-6.5-7.2-10.2-10.4c-1.6-1.4-4.1-1.2-5.5,0.4
		c-1.4,1.6-1.2,4.1,0.4,5.5c3.3,2.8,6.4,6,9.2,9.4c2.2,2.6,1.8,6.5-0.8,8.6c-2.6,2.1-6.5,1.7-8.7-0.9c-3.8-4.6-8.2-8.6-13-11.8
		c-7.9-5.3-17.3-8.8-27.4-10.1c3.1-3.6,6.4-7.2,9.8-10.7c5.8,1.4,11.3,3.4,16.5,6c1.9,1,4.3,0.2,5.2-1.7c1-1.9,0.2-4.3-1.7-5.2
		c-4.3-2.2-8.8-3.9-13.5-5.3c5.5-5.1,11.1-9.9,16.8-14.2c10.4,1.2,19.6,4.7,27.3,10.5c4.1,3,7.7,6.7,10.8,10.8
		c4.9,6.6,14.6,7.5,20.6,2c5.3-4.8,6.1-12.9,1.7-18.7c-4.8-6.3-10.3-11.9-16.6-16.5c-3.8-2.8-7.8-5.2-12-7.4
		c3.3-1.5,6.5-2.7,9.7-3.8c8.7-3,16.5-4.4,23.4-4.4c8.9,0,16.2,2.5,21.2,7.5c3.8,3.8,5.7,8.4,5.7,14c0,9.4-5.2,21.6-15.6,36.4
		c-5.2,7.4-11.6,16-18.3,22.9C377.4,325.2,349.2,355.9,320.4,371.8L320.4,371.8z"/>
</g>
</svg>
