<?xml version="1.0" encoding="utf-8"?>
<!-- Generator: Adobe Illustrator 19.0.0, SVG Export Plug-In . SVG Version: 6.00 Build 0)  -->
<svg version="1.1" id="Calque_1" xmlns="http://www.w3.org/2000/svg" xmlns:xlink="http://www.w3.org/1999/xlink" x="0px" y="0px"
	 viewBox="-599 686 800 600" style="enable-background:new -599 686 800 600;" xml:space="preserve">
<style type="text/css">
	.st0{fill:#FFFFFF;stroke:#7F00FF;stroke-width:5;stroke-miterlimit:10;}
	.st1{fill:#7F00FF;}
</style>
<g>
	<path class="st0" d="M-217.5,975.9h-204c-4.7,0-8.5-3.8-8.5-8.5V801.8c0-4.7,3.8-8.5,8.5-8.5h204c4.7,0,8.5,3.8,8.5,8.5v165.6
		C-209,972.1-212.8,975.9-217.5,975.9z"/>
	<path class="st0" d="M23.5,975.9h-204c-4.7,0-8.5-3.8-8.5-8.5V801.8c0-4.7,3.8-8.5,8.5-8.5h204c4.7,0,8.5,3.8,8.5,8.5v165.6
		C32,972.1,28.2,975.9,23.5,975.9z"/>
	<path class="st0" d="M-217.5,1178.7h-204c-4.7,0-8.5-3.8-8.5-8.5v-165.6c0-4.7,3.8-8.5,8.5-8.5h204c4.7,0,8.5,3.8,8.5,8.5v165.6
		C-209,1174.9-212.8,1178.7-217.5,1178.7z"/>
	<path class="st0" d="M23.5,1178.7h-204c-4.7,0-8.5-3.8-8.5-8.5v-165.6c0-4.7,3.8-8.5,8.5-8.5h204c4.7,0,8.5,3.8,8.5,8.5v165.6
		C32,1174.9,28.2,1178.7,23.5,1178.7z"/>
</g>
<g>
	<path class="st1" d="M-372,903.7v-6.6l6-5.5c10.2-9.1,15.1-14.4,15.3-19.8c0-3.8-2.3-6.8-7.7-6.8c-4,0-7.5,2-10,3.9l-3.1-7.8
		c3.5-2.7,9-4.8,15.3-4.8c10.6,0,16.4,6.2,16.4,14.6c0,7.8-5.7,14.1-12.4,20.1l-4.3,3.6v0.1h17.6v9H-372z"/>
	<path class="st1" d="M-312.8,903.7v-11.1h-20.7v-7.1l17.7-28.4h13.4v27.3h5.6v8.2h-5.6v11.1H-312.8z M-312.8,884.4v-10.3
		c0-2.8,0.1-5.7,0.4-8.7h-0.3c-1.5,3-2.7,5.7-4.3,8.7l-6.2,10.2v0.1H-312.8z"/>
	<path class="st1" d="M-290.4,893c1.9,1,6.4,2.9,10.8,2.9c5.7,0,8.5-2.7,8.5-6.2c0-4.6-4.6-6.7-9.4-6.7h-4.5v-7.8h4.2
		c3.7-0.1,8.3-1.4,8.3-5.4c0-2.8-2.3-4.9-6.9-4.9c-3.8,0-7.8,1.7-9.8,2.8l-2.2-7.9c2.8-1.8,8.4-3.5,14.4-3.5
		c10,0,15.5,5.2,15.5,11.6c0,5-2.8,8.8-8.5,10.8v0.1c5.6,1,10.1,5.2,10.1,11.3c0,8.3-7.2,14.3-19.1,14.3c-6,0-11.1-1.6-13.9-3.3
		L-290.4,893z"/>
</g>
<g>
	<path class="st1" d="M-112.5,895.8c1.4,0.1,2.6,0.1,4.7,0c3.3-0.2,6.7-1.1,9.2-2.9c3-2.1,5-5.1,5.9-8.6l-0.2-0.1
		c-2.1,2.2-5.1,3.4-9.3,3.4c-7.9,0-14.6-5.5-14.6-14.6c0-9.1,7.3-16.8,17.6-16.8c12,0,17.7,9.2,17.7,20.1c0,9.7-3.1,16.8-8.2,21.5
		c-4.5,4-10.6,6.2-17.8,6.5c-1.9,0.1-3.7,0.1-5,0V895.8z M-105.9,872.4c0,4,2.2,7.5,6.6,7.5c2.9,0,5-1.4,6-3.1
		c0.4-0.6,0.6-1.4,0.6-2.7c0-5-1.9-9.8-6.8-9.8C-103.3,864.2-106,867.5-105.9,872.4z"/>
	<path class="st1" d="M-72.7,895.8c1.4,0.1,2.6,0.1,4.7,0c3.3-0.2,6.7-1.1,9.2-2.9c3-2.1,5-5.1,5.9-8.6l-0.2-0.1
		c-2.1,2.2-5.1,3.4-9.3,3.4c-7.9,0-14.6-5.5-14.6-14.6c0-9.1,7.3-16.8,17.6-16.8c12,0,17.7,9.2,17.7,20.1c0,9.7-3.1,16.8-8.2,21.5
		c-4.5,4-10.6,6.2-17.8,6.5c-1.9,0.1-3.7,0.1-5,0V895.8z M-66.1,872.4c0,4,2.2,7.5,6.6,7.5c2.9,0,5-1.4,6-3.1
		c0.4-0.6,0.6-1.4,0.6-2.7c0-5-1.9-9.8-6.8-9.8C-63.5,864.2-66.2,867.5-66.1,872.4z"/>
</g>
<g>
	<path class="st1" d="M-358.1,1071.3h-0.1l-8.9,4.2l-1.8-8.2l12.3-5.7h9v46.7h-10.6V1071.3z"/>
	<path class="st1" d="M-318.2,1071.3h-0.1l-8.9,4.2l-1.8-8.2l12.3-5.7h9v46.7h-10.6V1071.3z"/>
	<path class="st1" d="M-293,1096c0-5.6,3.2-9.5,8.3-11.7v-0.2c-4.5-2.3-6.7-6.1-6.7-10.2c0-7.9,7.1-13.1,16.4-13.1
		c10.9,0,15.4,6.3,15.4,12c0,4-2.2,8-6.7,10.3v0.2c4.5,1.7,8.5,5.6,8.5,11.6c0,8.5-7.1,14.1-17.9,14.1
		C-287.6,1109-293,1102.3-293,1096z M-268.9,1095.7c0-4.1-3-6.5-7.3-7.7c-3.6,1-5.7,3.6-5.7,7c-0.1,3.4,2.5,6.5,6.6,6.5
		C-271.4,1101.5-268.9,1099-268.9,1095.7z M-281.2,1073.5c0,3.2,2.9,5.2,6.6,6.3c2.5-0.7,4.7-3,4.7-6c0-2.9-1.7-5.7-5.7-5.7
		C-279.3,1068.2-281.2,1070.6-281.2,1073.5z"/>
</g>
<g>
	<path class="st1" d="M-102.1,1071.3h-0.1l-8.9,4.2l-1.8-8.2l12.3-5.7h9v46.7h-10.6V1071.3z"/>
	<path class="st1" d="M-76.9,1096c0-5.6,3.2-9.5,8.3-11.7v-0.2c-4.5-2.3-6.7-6.1-6.7-10.2c0-7.9,7.1-13.1,16.4-13.1
		c10.9,0,15.4,6.3,15.4,12c0,4-2.2,8-6.7,10.3v0.2c4.5,1.7,8.5,5.6,8.5,11.6c0,8.5-7.1,14.1-17.9,14.1
		C-71.4,1109-76.9,1102.3-76.9,1096z M-52.8,1095.7c0-4.1-3-6.5-7.3-7.7c-3.6,1-5.7,3.6-5.7,7c-0.1,3.4,2.5,6.5,6.6,6.5
		C-55.3,1101.5-52.8,1099-52.8,1095.7z M-65,1073.5c0,3.2,2.9,5.2,6.6,6.3c2.5-0.7,4.7-3,4.7-6c0-2.9-1.7-5.7-5.7-5.7
		C-63.1,1068.2-65,1070.6-65,1073.5z"/>
</g>
</svg>
