<?xml version="1.0" encoding="utf-8"?>
<!-- Generator: Adobe Illustrator 23.0.1, SVG Export Plug-In . SVG Version: 6.00 Build 0)  -->
<svg version="1.1" id="Calque_1" xmlns="http://www.w3.org/2000/svg" xmlns:xlink="http://www.w3.org/1999/xlink" x="0px" y="0px"
	 viewBox="0 0 800 600" style="enable-background:new 0 0 800 600;" xml:space="preserve">
<style type="text/css">
	.st0{fill:#FFFFFF;stroke:#671CC9;stroke-width:5;stroke-miterlimit:10;}
	.st1{fill:#671CC9;}
</style>
<path class="st0" d="M190.9,127.2h418.2c4.9,0,8.9,3.4,8.9,7.7v330.2c0,4.3-4,7.7-8.9,7.7H190.9c-4.9,0-8.9-3.4-8.9-7.7V134.9
	C182,130.6,186,127.2,190.9,127.2z"/>
<path class="st1" d="M475.1,261.4c-6.5,0-12,5.4-12,12c0,3.5,1.4,6.5,3.8,8.7l-27.2,30.5c-1.1,1.1-2.4,1.6-3.8,1.4
	c-1.4-0.3-2.7-1.1-3.5-2.4L406.3,260l0,0c3.5-2.2,6-6,6-10.3c0-6.8-5.4-12-12-12s-12,5.4-12,12c0,4.4,2.4,8.2,6,10.3l0,0l-26.1,51.4
	c-0.8,1.4-1.9,2.2-3.5,2.4c-1.4,0.3-2.7-0.3-3.8-1.4L333.1,282c2.2-2.2,3.8-5.2,3.8-8.7c0-6.8-5.4-12-12-12c-6.5,0-12,5.4-12,12
	c0,6.3,4.6,11.4,10.6,12l10.6,73.2c0.3,2.2,2.2,3.8,4.1,3.8h123.5c1.9,0,3.8-1.4,4.1-3.5l10.6-73.2c6-0.5,10.6-5.7,10.6-12
	C487.1,266.8,481.6,261.4,475.1,261.4z M324.9,277.4c-1.9,0-3.8-1.6-3.8-3.8c0-2.2,1.6-3.8,3.8-3.8c2.2,0,3.8,1.6,3.8,3.8
	C328.7,275.8,326.8,277.4,324.9,277.4z M400,245.3c1.9,0,3.8,1.6,3.8,3.8s-1.6,3.8-3.8,3.8s-3.8-1.6-3.8-3.8S398.1,245.3,400,245.3z
	 M458.2,354.1H341.8l-8.7-59.6l21.2,23.4c2.7,3,6.8,4.6,10.9,4.1c4.1-0.5,7.6-3,9.5-6.8L400,266l25,49.2c1.9,3.8,5.4,6.3,9.5,6.8
	c4.1,0.5,8.2-1.1,10.9-4.1l21.2-23.4L458.2,354.1z M475.1,277.4c-2.2,0-3.8-1.6-3.8-3.8c0-2.2,1.6-3.8,3.8-3.8
	c2.2,0,3.8,1.6,3.8,3.8C478.9,275.8,477.3,277.4,475.1,277.4z"/>
</svg>
