<?xml version="1.0" encoding="utf-8"?>
<!-- Generator: Adobe Illustrator 19.0.0, SVG Export Plug-In . SVG Version: 6.00 Build 0)  -->
<svg version="1.1" id="Calque_1" xmlns="http://www.w3.org/2000/svg" xmlns:xlink="http://www.w3.org/1999/xlink" x="0px" y="0px"
	 viewBox="-599 686 800 600" style="enable-background:new -599 686 800 600;" xml:space="preserve">
<style type="text/css">
	.st0{fill:#FFFFFF;stroke:#7F00FF;stroke-width:5;stroke-miterlimit:10;}
	.st1{fill:none;stroke:#7F00FF;stroke-width:5;stroke-miterlimit:10;}
</style>
<path class="st0" d="M-408.1,735.5H10.1c4.9,0,8.9,5,8.9,11.1v478.8c0,6.1-4,11.1-8.9,11.1h-418.2c-4.9,0-8.9-5-8.9-11.1V746.6
	C-417,740.5-413,735.5-408.1,735.5z"/>
<circle class="st0" cx="-339.4" cy="830.9" r="29.2"/>
<circle class="st0" cx="-339.4" cy="908.6" r="29.2"/>
<circle class="st0" cx="-339.4" cy="986.2" r="29.2"/>
<line class="st1" x1="-281.4" y1="830.9" x2="-24.7" y2="830.9"/>
<line class="st1" x1="-281.4" y1="908.6" x2="-24.7" y2="908.6"/>
<line class="st1" x1="-281.4" y1="986.2" x2="-24.7" y2="986.2"/>
<circle class="st0" cx="-339.4" cy="1063.1" r="29.2"/>
<circle class="st0" cx="-339.4" cy="1140.8" r="29.2"/>
<line class="st1" x1="-281.4" y1="1063.1" x2="-24.7" y2="1063.1"/>
<line class="st1" x1="-281.4" y1="1140.8" x2="-24.7" y2="1140.8"/>
</svg>
