<?xml version="1.0" encoding="utf-8"?>
<!-- Generator: Adobe Illustrator 23.0.1, SVG Export Plug-In . SVG Version: 6.00 Build 0)  -->
<svg version="1.1" id="Calque_1" xmlns="http://www.w3.org/2000/svg" xmlns:xlink="http://www.w3.org/1999/xlink" x="0px" y="0px"
	 viewBox="0 0 800 600" style="enable-background:new 0 0 800 600;" xml:space="preserve">
<style type="text/css">
	.st0{fill:#323236;stroke:#797BF2;stroke-width:5;stroke-miterlimit:10;}
	.st1{fill:#585868;}
	.st2{fill:none;stroke:#797BF2;stroke-width:5;stroke-miterlimit:10;}
</style>
<g>
	<path id="XMLID_1_" class="st0" d="M683.4,540.5H116.6c-14.4,0-26.1-7.9-26.1-17.8V77.3c0-9.8,11.6-17.8,26.1-17.8h566.8
		c14.4,0,26.1,7.9,26.1,17.8v445.5C709.4,532.6,697.8,540.5,683.4,540.5z"/>
	<rect id="XMLID_5_" x="158" y="238.8" class="st1" width="483" height="33"/>
	<rect id="XMLID_2_" x="154" y="107.5" class="st1" width="84" height="15.5"/>
	<rect id="XMLID_6_" x="257.3" y="107.5" class="st1" width="84" height="15.5"/>
	<rect id="XMLID_8_" x="360.7" y="107.5" class="st1" width="84" height="15.5"/>
	<rect id="XMLID_7_" x="158" y="303.8" class="st1" width="400" height="33"/>
	<rect id="XMLID_3_" x="158" y="367.8" class="st1" width="292" height="33"/>
	<rect id="XMLID_4_" x="158" y="433.8" class="st1" width="421" height="33"/>
	<line class="st2" x1="154" y1="137.3" x2="238" y2="137.3"/>
</g>
</svg>
