<?xml version="1.0" encoding="utf-8"?>
<!-- Generator: Adobe Illustrator 19.0.0, SVG Export Plug-In . SVG Version: 6.00 Build 0)  -->
<svg version="1.1" id="Calque_1" xmlns="http://www.w3.org/2000/svg" xmlns:xlink="http://www.w3.org/1999/xlink" x="0px" y="0px"
	 viewBox="-599 686 800 600" style="enable-background:new -599 686 800 600;" xml:space="preserve">
<style type="text/css">
	.st0{fill:#FFFFFF;stroke:#7F00FF;stroke-width:5;stroke-miterlimit:10;}
	.st1{fill:#7F00FF;}
</style>
<path class="st0" d="M-336.9,1141.2h-202c-4.7,0-8.5-3.8-8.5-8.5V839.2c0-4.7,3.8-8.5,8.5-8.5h202c4.7,0,8.5,3.8,8.5,8.5v293.5
	C-328.4,1137.4-332.2,1141.2-336.9,1141.2z"/>
<path class="st0" d="M-98,1141.2h-202c-4.7,0-8.5-3.8-8.5-8.5V839.2c0-4.7,3.8-8.5,8.5-8.5h202c4.7,0,8.5,3.8,8.5,8.5v293.5
	C-89.5,1137.4-93.3,1141.2-98,1141.2z"/>
<path class="st0" d="M140.9,1141.2h-202c-4.7,0-8.5-3.8-8.5-8.5V839.2c0-4.7,3.8-8.5,8.5-8.5h202c4.7,0,8.5,3.8,8.5,8.5v293.5
	C149.4,1137.4,145.6,1141.2,140.9,1141.2z"/>
<g>
	<path class="st1" d="M-428.3,1007.6c-4.9,4.9-13,4.9-17.9,0c-1-1-2.6-1-3.7,0c-1,1-1,2.6,0,3.7c3.5,3.5,8,5.2,12.6,5.2
		s9.1-1.7,12.6-5.2c1-1,1-2.6,0-3.7C-425.7,1006.6-427.3,1006.6-428.3,1007.6z"/>
	<path class="st1" d="M-378.8,1033.3c-6.1-6.7-6.3-23.8-5.6-41.5c2.6-2.5,4.3-6,4.3-9.9c0-3.4-1.3-6.5-3.4-8.9
		c0.9-18,1.3-30.1-4.4-41.2c-3.9-7.6-10.2-13.9-18.8-18.9c-10-5.7-21.3-8.6-32.9-8.1c-10.1,0.4-19.6,5.1-26.1,13
		c-8.4,0.5-16,5.1-20.2,12.1c-0.4,0.6-0.7,1.2-1,1.9c-5.7,11.1-5.3,23.2-4.4,41.2c-2.1,2.4-3.4,5.5-3.4,8.9c0,3.9,1.7,7.4,4.3,9.9
		c0.7,17.7,0.5,34.8-5.6,41.5c-0.6,0.6-0.8,1.5-0.6,2.3s0.8,1.5,1.6,1.8c6.8,2.6,13.4,3.5,19.4,3.5c6.2,0,11.7-1,16-2.2
		c7.5-2,12.8-4.9,14.6-5.9c2.5,0.4,5,0.6,7.5,0.6c2.6,0,5.1-0.2,7.5-0.6c1.8,1.1,7.1,3.9,14.6,5.9c5.8,1.6,11.1,2.2,15.9,2.2
		c8,0,14.7-1.7,19.5-3.5c0.8-0.3,1.4-1,1.6-1.8C-378,1034.8-378.2,1033.9-378.8,1033.3z M-391.1,987.2v-12.8c0,0,0-0.1,0-0.1v-0.4
		c3.4,1.1,5.8,4.3,5.8,8c0,3.8-2.5,7-5.9,8C-391.1,989-391.1,988.1-391.1,987.2z M-482.1,934.1c0.3-0.5,0.6-1.1,0.9-1.6
		c3.4-5.9,9.9-9.5,17-9.6c0,0,0,0,0,0c0.8,0,1.5-0.4,2-1c5.6-7.3,13.9-11.6,22.9-12c10.6-0.4,21,2.2,30.1,7.5
		c7.7,4.4,13.3,10.1,16.7,16.7c4.6,8.9,4.7,18.6,4,35.3c-0.8-0.3-1.7-0.6-2.6-0.8V966c0-1.4-1.2-2.6-2.6-2.6c-1.4,0-2.6,1.2-2.6,2.6
		v5.9c-35.6,0.4-54.9-16.8-60-22.1c-0.6-0.6-1.5-0.9-2.3-0.8c-0.9,0.2-1.6,0.7-1.9,1.6c-3.8,9.1-10.3,13.9-20.7,15
		c-1.3,0.1-2.3,1.3-2.3,2.6v0.5c-0.9,0.2-1.8,0.4-2.6,0.8C-486.9,952.7-486.7,943-482.1,934.1z M-483.4,989.9
		c-3.4-1.1-5.9-4.3-5.9-8c0-3.7,2.4-6.9,5.8-8v13.3C-483.5,988.1-483.5,989-483.4,989.9z M-489.7,1033.7c4.6-7.9,5.4-20.9,4.8-38.8
		c0.7,0.2,1.4,0.4,2.1,0.5c2.9,16.6,14.7,30.1,30.3,35.5C-460,1034.1-474.1,1038.3-489.7,1033.7z M-437.3,1028.3
		c-22.6,0-41-18.4-41-41l0-16.9c9.7-1.6,16.6-6.4,21-14.5c3.7,3.4,9.7,8.1,18.2,12.1c12.8,6.1,27.2,9.2,42.9,9v10.2
		C-396.3,1009.9-414.7,1028.3-437.3,1028.3z M-413.7,1033.8c-3.3-0.9-6.2-2-8.4-2.9c15.6-5.4,27.3-19,30.3-35.5
		c0.7-0.1,1.4-0.3,2.1-0.5c-0.6,17.8,0.2,30.9,4.8,38.8C-394,1036.4-403.7,1036.5-413.7,1033.8z"/>
	<path class="st1" d="M-468.2,979.6c-1,1-1,2.6,0,3.7c1,1,2.6,1,3.7,0c1.7-1.7,4.4-1.7,6,0c0.5,0.5,1.2,0.8,1.8,0.8s1.3-0.3,1.8-0.8
		c1-1,1-2.6,0-3.7C-458.5,975.9-464.5,975.9-468.2,979.6z"/>
	<path class="st1" d="M-406.4,983.2c1-1,1-2.6,0-3.7c-3.7-3.7-9.6-3.7-13.3,0c-1,1-1,2.6,0,3.7c1,1,2.6,1,3.7,0c1.7-1.7,4.4-1.7,6,0
		c0.5,0.5,1.2,0.8,1.8,0.8S-406.9,983.7-406.4,983.2z"/>
</g>
<g>
	<path class="st1" d="M13.3,986.9c1.3,0,2.4,0.5,3.3,1.4c0.5,0.5,1.2,0.8,1.8,0.8c0.7,0,1.3-0.3,1.8-0.8c1-1,1-2.6,0-3.6
		c-1.9-1.9-4.3-2.9-7-2.9s-5.1,1-7,2.9c-1,1-1,2.6,0,3.6c1,1,2.6,1,3.6,0C10.9,987.4,12.1,986.9,13.3,986.9z"/>
	<path class="st1" d="M59.5,984.6c-1,1-1,2.6,0,3.6c1,1,2.6,1,3.6,0c1.8-1.8,4.8-1.8,6.6,0c0.5,0.5,1.2,0.8,1.8,0.8
		c0.7,0,1.3-0.3,1.8-0.8c1-1,1-2.6,0-3.6C69.6,980.8,63.4,980.8,59.5,984.6z"/>
	<path class="st1" d="M66.5,1010c-14.7,14.7-38.5,14.7-53.2,0c-1-1-2.6-1-3.6,0c-1,1-1,2.6,0,3.6c8.3,8.3,19.3,12.5,30.2,12.5
		c10.9,0,21.9-4.2,30.2-12.5c1-1,1-2.6,0-3.6C69.1,1009,67.5,1009,66.5,1010z"/>
	<path class="st1" d="M100.5,989.7c0-7-5-12.8-11.7-14v-43c0-5.6-2.8-10.7-7.4-13.8c-4.4-2.9-9.8-3.6-14.7-1.8l-16.1-5.5
		c-12.4-4.2-25.4-4.6-37.7-1.2c-16.1,4.4-25.3,13.8-26.7,27.2c-1.3,1.7-2.3,3.5-2.9,5.5l-1.3,3.7c-0.7,2,0.1,4.1,1.8,5.2
		c1.8,1.1,4,0.9,5.5-0.6c0.5-0.5,1.1-0.9,1.7-1.3v25.6c-6.6,1.2-11.7,7-11.7,14c0,7.3,5.5,13.3,12.5,14.1
		c1.8,9.7,6.4,18.7,13.5,25.9c9.3,9.4,21.6,14.6,34.6,14.6c0,0,0,0,0,0c13.1,0,25.4-5.1,34.6-14.3c7.2-7.2,11.9-16.3,13.6-26.1
		C95.1,1002.9,100.5,996.9,100.5,989.7z M78.6,923.2c3.3,2.2,5.1,5.6,5.1,9.5v33.6c-8-1.2-14.1-8.1-14.1-16.5l-0.2-28.2
		C72.5,920.8,75.8,921.3,78.6,923.2z M-12.4,946.1l0.5-1.5c1.3-3.9,4.2-7,8-8.6c3.8-1.6,8-1.5,11.7,0.2c7.8,3.6,17.2,1.7,22.9-4.8
		l0.6-0.7c0.9-1.1,0.8-2.7-0.2-3.6c-1.1-0.9-2.7-0.8-3.6,0.2l-0.6,0.7c-4.2,4.7-11.1,6.2-16.8,3.5c-5-2.3-10.8-2.4-15.9-0.2
		c-0.5,0.2-0.9,0.4-1.4,0.7c3-8,10.2-13.6,21.6-16.7c11.3-3.1,23.3-2.7,34.7,1.2l15.3,5.2l0.2,13.3c-6.8,9.3-16.7,15.5-28.1,17.7
		c-11.6,2.2-23.4-0.1-33.3-6.6C-1.7,942.9-7.8,943-12.4,946.1z M-15.6,989.7c0-4.1,2.8-7.6,6.5-8.7v13.9c0,1.2,0,2.4,0.1,3.6
		C-12.7,997.4-15.6,993.8-15.6,989.7z M70.9,1026.3c-8.3,8.3-19.3,12.8-31,12.8c0,0,0,0,0,0c-11.7,0-22.7-4.6-31-13
		c-8.3-8.4-12.8-19.5-12.8-31.3v-46c1.5,0.1,2.9,0.6,4.2,1.4c11,7.2,24.2,9.8,37,7.3c10.5-2,19.9-7.1,27.1-14.7v7
		c0,11.2,8.4,20.4,19.2,21.6v23.9C83.7,1007,79.1,1018,70.9,1026.3z M88.7,998.4c0.1-1,0.1-2.1,0.1-3.1v-14.4
		c3.8,1.1,6.5,4.6,6.5,8.7C95.4,993.8,92.6,997.4,88.7,998.4z"/>
</g>
<g>
	<path class="st1" d="M-136.4,983.5c0-2.5-0.7-4.8-2-6.7c0.5-3.2,0.8-6.5,0.8-9.7c0-33.8-27.5-61.3-61.3-61.3s-61.3,27.5-61.3,61.3
		c0,3.3,0.3,6.5,0.8,9.7c-1.3,1.9-2,4.3-2,6.7c0,6.2,4.5,11.3,10.5,12.3c3.2,25.9,25.3,46.1,52.1,46.1s48.9-20.2,52.1-46.1
		C-141,994.9-136.4,989.7-136.4,983.5z M-256.9,983.5c0-3.5,2.3-6.4,5.4-7.4l0,13.2c0,0.5,0,1,0,1.5
		C-254.6,989.9-256.9,987-256.9,983.5z M-199,1037.2c-26.4,0-47.8-21.5-47.8-47.8l0-24.2c0-3.6,1.9-6.8,5.1-8.5
		c3.1-1.7,6.8-1.6,9.8,0.3c9.8,6.3,21.2,9.6,32.9,9.6c11.7,0,23.1-3.3,32.9-9.6c3-1.9,6.7-2,9.8-0.3c3.2,1.7,5.1,4.9,5.1,8.5l0,24.2
		C-151.2,1015.8-172.6,1037.2-199,1037.2z M-154,952.6c-4.7-2.6-10.1-2.4-14.6,0.5c-9.1,5.8-19.6,8.8-30.4,8.8
		c-10.8,0-21.3-3.1-30.4-8.8c-4.5-2.9-9.9-3-14.6-0.5c-4.7,2.6-7.5,7.3-7.5,12.6v6.1c-1.4,0.3-2.7,0.8-3.9,1.5
		c-0.2-1.9-0.3-3.8-0.3-5.7c0-31.2,25.4-56.7,56.7-56.7s56.7,25.4,56.7,56.7c0,1.9-0.1,3.8-0.3,5.7c-1.2-0.7-2.5-1.2-3.9-1.5v-6.1
		C-146.5,959.9-149.3,955.2-154,952.6z M-146.5,990.9c0-0.5,0-1,0-1.5l0-13.2c3.1,1,5.4,3.9,5.4,7.4
		C-141.1,987-143.4,989.9-146.5,990.9z"/>
	<circle class="st1" cx="-220.4" cy="989.5" r="3.9"/>
	<circle class="st1" cx="-176.9" cy="989.5" r="3.9"/>
	<path class="st1" d="M-183.9,979.5c-0.9,0.9-0.9,2.4,0,3.3c0.9,0.9,2.4,0.9,3.3,0c2.1-2.1,5.4-2.1,7.5,0c0.5,0.5,1.1,0.7,1.7,0.7
		c0.6,0,1.2-0.2,1.7-0.7c0.9-0.9,0.9-2.4,0-3.3C-173.7,975.6-180,975.6-183.9,979.5z"/>
	<path class="st1" d="M-220.4,976.5c-2.7,0-5.2,1-7.1,2.9c-0.9,0.9-0.9,2.4,0,3.3c0.9,0.9,2.4,0.9,3.3,0c1-1,2.3-1.6,3.8-1.6
		c1.4,0,2.8,0.6,3.8,1.6c0.5,0.5,1.1,0.7,1.7,0.7c0.6,0,1.2-0.2,1.7-0.7c0.9-0.9,0.9-2.4,0-3.3
		C-215.2,977.6-217.7,976.5-220.4,976.5z"/>
	<path class="st1" d="M-189.5,1005c-1.3,0-2.3,1-2.3,2.3c0,3.9-3.2,7.1-7.1,7.1s-7.1-3.2-7.1-7.1c0-1.3-1-2.3-2.3-2.3
		s-2.3,1-2.3,2.3c0,6.5,5.3,11.8,11.8,11.8c6.5,0,11.8-5.3,11.8-11.8C-187.2,1006.1-188.2,1005-189.5,1005z"/>
</g>
</svg>
