<?xml version="1.0" encoding="utf-8"?>
<!-- Generator: Adobe Illustrator 19.0.0, SVG Export Plug-In . SVG Version: 6.00 Build 0)  -->
<svg version="1.1" id="Calque_1" xmlns="http://www.w3.org/2000/svg" xmlns:xlink="http://www.w3.org/1999/xlink" x="0px" y="0px"
	 viewBox="-599 686 800 600" style="enable-background:new -599 686 800 600;" xml:space="preserve">
<style type="text/css">
	.st0{fill:#FFFFFF;stroke:#7F00FF;stroke-width:5;stroke-miterlimit:10;}
	.st1{fill:#7F00FF;}
</style>
<path class="st0" d="M-336.9,1141.2h-202c-4.7,0-8.5-3.8-8.5-8.5V839.2c0-4.7,3.8-8.5,8.5-8.5h202c4.7,0,8.5,3.8,8.5,8.5v293.5
	C-328.4,1137.4-332.2,1141.2-336.9,1141.2z"/>
<path class="st0" d="M-98,1141.2h-202c-4.7,0-8.5-3.8-8.5-8.5V839.2c0-4.7,3.8-8.5,8.5-8.5h202c4.7,0,8.5,3.8,8.5,8.5v293.5
	C-89.5,1137.4-93.3,1141.2-98,1141.2z"/>
<path class="st0" d="M140.9,1141.2h-202c-4.7,0-8.5-3.8-8.5-8.5V839.2c0-4.7,3.8-8.5,8.5-8.5h202c4.7,0,8.5,3.8,8.5,8.5v293.5
	C149.4,1137.4,145.6,1141.2,140.9,1141.2z"/>
<g>
	<path class="st1" d="M-131.4,982c0-3.9-1.4-7.4-3.7-10.2v-5c0-35.2-28.6-63.9-63.9-63.9s-63.9,28.6-63.9,63.9v5
		c-2.3,2.8-3.7,6.3-3.7,10.2c0,7.9,5.8,14.5,13.3,15.7c2.7,11.7,12,25.1,27.9,40.1c7.4,7,16.9,10.5,26.4,10.5
		c9.5,0,19-3.5,26.4-10.5c15.9-15,25.2-28.4,27.9-40.1C-137.2,996.5-131.4,989.9-131.4,982z M-199,908.5c32.2,0,58.3,26.2,58.3,58.3
		v0.7c-1.9-0.9-4.1-1.4-6.4-1.5c-2.2-8.9-5.7-17.6-10.2-25.6c0,0,0,0,0,0l-0.4-0.7c-2.4-4.2-6.7-6.9-11.6-7.3
		c-4.8-0.3-9.4,1.8-12.3,5.6l-0.1,0.1c-4.1,5.5-10.5,8.7-17.4,8.7c-6.9,0-13.2-3.2-17.4-8.7l-0.1-0.1c-2.9-3.8-7.5-5.9-12.3-5.6
		c-4.9,0.3-9.2,3-11.6,7.3l-0.4,0.8c-4.6,8-8,16.7-10.2,25.6c-2.3,0-4.4,0.6-6.4,1.5v-0.7C-257.3,934.7-231.2,908.5-199,908.5z
		 M-261.1,982c0-5.2,3.8-9.5,8.8-10.3c-1.2,6.3-1.8,12.8-1.8,19.2c0,0.3,0,0.6,0,0.9C-258.1,990.5-261.1,986.6-261.1,982z
		 M-176.4,1033.8c-12.7,11.9-32.5,11.9-45.2,0c-17.6-16.6-26.9-31.4-26.9-42.9c0-16.7,4.3-33.2,12.6-47.7l0.4-0.8
		c1.5-2.6,4.1-4.3,7.1-4.5c0.2,0,0.4,0,0.6,0c2.7,0,5.2,1.2,6.9,3.4l0.1,0.1c5.1,6.9,13.3,11,21.8,11c8.5,0,16.7-4.1,21.8-11
		l0.1-0.1c1.8-2.4,4.5-3.6,7.5-3.4c3,0.2,5.7,1.9,7.1,4.5l0.4,0.7c8.2,14.5,12.6,31,12.6,47.7
		C-149.5,1002.4-158.8,1017.2-176.4,1033.8z M-144,991.9c0-0.3,0-0.6,0-0.9c0-6.5-0.6-12.9-1.8-19.2c5,0.8,8.8,5.1,8.8,10.3
		C-136.9,986.6-139.9,990.4-144,991.9z"/>
	<path class="st1" d="M-194.5,1015.6c-1.2,1.2-2.8,1.9-4.5,1.9c-1.7,0-3.3-0.7-4.5-1.9c-1.1-1.1-2.8-1.1-3.9,0
		c-1.1,1.1-1.1,2.8,0,3.9c2.2,2.2,5.2,3.5,8.4,3.5c3.2,0,6.2-1.2,8.4-3.5c1.1-1.1,1.1-2.8,0-3.9
		C-191.7,1014.6-193.4,1014.6-194.5,1015.6z"/>
	<circle class="st1" cx="-229" cy="988.1" r="5.4"/>
	<circle class="st1" cx="-169" cy="988.1" r="5.4"/>
	<path class="st1" d="M-170.9,964.7l-8.7,3.3c-1.4,0.5-2.2,2.1-1.6,3.6c0.5,1.4,2.1,2.2,3.6,1.6l8.7-3.3c2.8-1.1,5.9,0.4,7,3.2
		c0.4,1.1,1.5,1.8,2.6,1.8c0.3,0,0.6-0.1,1-0.2c1.4-0.5,2.2-2.1,1.6-3.6c-1-2.7-3.1-4.9-5.7-6.1
		C-165.2,963.8-168.1,963.7-170.9,964.7z"/>
	<path class="st1" d="M-229,969.9l8.7,3.3c1.4,0.5,3-0.2,3.6-1.6c0.5-1.4-0.2-3-1.6-3.6l-8.7-3.3c-2.7-1-5.7-0.9-8.4,0.3
		c-2.7,1.2-4.7,3.4-5.7,6.1c-0.5,1.4,0.2,3,1.6,3.6c0.3,0.1,0.6,0.2,1,0.2c1.1,0,2.2-0.7,2.6-1.8C-235,970.3-231.9,968.9-229,969.9z
		"/>
	<path class="st1" d="M-205.7,1009.1c1.3,0.7,3,0.2,3.8-1.1c0.7-1.3,0.2-3-1.1-3.8l-2.2-1.2c-1.9-1.1-4.2-1.3-6.3-0.7
		c-2.1,0.6-3.9,2-4.9,3.9l-0.7,1.2c-0.7,1.3-2.4,1.8-3.7,1.1c-1.3-0.7-3-0.2-3.8,1.1c-0.7,1.3-0.2,3,1.1,3.8c1.3,0.7,2.6,1,4,1
		c2.9,0,5.7-1.5,7.2-4.3l0.7-1.2c0.3-0.6,0.9-1.1,1.6-1.3c0.7-0.2,1.4-0.1,2.1,0.2L-205.7,1009.1z"/>
	<path class="st1" d="M-177.3,1008.6c-1.3,0.7-3,0.2-3.7-1.1l-0.7-1.2c-1.1-1.9-2.8-3.3-4.9-3.9s-4.3-0.4-6.3,0.7l-2.2,1.2
		c-1.3,0.7-1.8,2.4-1.1,3.8c0.7,1.3,2.4,1.8,3.8,1.1l2.2-1.2c0.6-0.3,1.4-0.4,2.1-0.2c0.7,0.2,1.3,0.7,1.6,1.3l0.7,1.2
		c1.5,2.7,4.3,4.3,7.2,4.3c1.3,0,2.7-0.3,4-1c1.3-0.7,1.8-2.4,1.1-3.8C-174.2,1008.3-175.9,1007.9-177.3,1008.6z"/>
</g>
<g>
	<path class="st1" d="M5.3,989.9c-1.1,1.1-1.1,2.8,0,3.9c1.1,1.1,2.8,1.1,3.9,0c2.6-2.6,6.8-2.6,9.4,0c0.5,0.5,1.2,0.8,2,0.8
		c0.7,0,1.4-0.3,2-0.8c1.1-1.1,1.1-2.8,0-3.9C17.8,985.2,10,985.2,5.3,989.9z"/>
	<path class="st1" d="M57.3,993.8c1.1,1.1,2.8,1.1,3.9,0c2.6-2.6,6.8-2.6,9.4,0c0.5,0.5,1.2,0.8,2,0.8c0.7,0,1.4-0.3,2-0.8
		c1.1-1.1,1.1-2.8,0-3.9c-4.7-4.7-12.5-4.7-17.2,0C56.2,991,56.2,992.7,57.3,993.8z"/>
	<path class="st1" d="M46,1004.5c-1.5,0-2.8,1.2-2.8,2.8c0,1.5,1.2,2.8,2.8,2.8c1.4,0,2.6,1.2,2.6,2.6c0,1.4-1.2,2.6-2.6,2.6
		c-1.5,0-2.8,1.2-2.8,2.8s1.2,2.8,2.8,2.8c1.4,0,2.6,1.2,2.6,2.6s-1.2,2.6-2.6,2.6c-1.5,0-2.8,1.2-2.8,2.8s1.2,2.8,2.8,2.8
		c4.5,0,8.1-3.6,8.1-8.1c0-2.1-0.8-3.9-2-5.4c1.3-1.4,2-3.3,2-5.4C54.1,1008.1,50.4,1004.5,46,1004.5z"/>
	<path class="st1" d="M109.4,1018.5c-4.2-10.6-13.8-17-17.5-19.2c6.2-1.6,10.9-7.3,10.9-14c0-2.9-0.9-5.8-2.5-8.2
		c0.9-4.3,1.4-8.8,1.4-13.2c0-34.2-27.8-62-62-62c-34.2,0-62,27.8-62,62c0,4.7,0.5,9.4,1.6,13.9c-1.3,2.2-2.1,4.7-2.1,7.5
		c0,6.7,4.6,12.4,10.9,14c-3.7,2.2-13.3,8.6-17.5,19.2c-5.2,13.1-0.2,27.1,0.1,27.7c0.3,0.7,0.8,1.3,1.6,1.6c0.3,0.1,0.7,0.2,1,0.2
		c0.4,0,0.8-0.1,1.2-0.3c0.6-0.3,13.9-7,19.1-20l0,0c0.9-2.3,1.5-4.7,1.9-7c1.8,3.2,4,6.3,6.5,9.1c9.7,10.9,23.6,17.2,38.2,17.2
		c14.6,0,28.5-6.3,38.2-17.2c2.5-2.8,4.7-5.9,6.5-9.1c0.4,2.3,1,4.7,1.9,7c5.2,13.1,18.5,19.8,19.1,20c0.4,0.2,0.8,0.3,1.2,0.3
		c0.3,0,0.7-0.1,1-0.2c0.7-0.3,1.3-0.9,1.6-1.6C109.5,1045.6,114.6,1031.5,109.4,1018.5z M97.2,985.2
		C97.2,985.2,97.2,985.2,97.2,985.2c0,4-2.6,7.4-6.2,8.6V988c0.8,0.2,1.6,0.3,2.4,0.4c0.1,0,0.3,0,0.4,0c1,0,2-0.6,2.5-1.5
		L97.2,985.2z M-17.4,985.3c0-4,2.6-7.4,6.2-8.5v17.1C-14.8,992.6-17.4,989.2-17.4,985.3z M-11.8,1025.6c-3,7.6-9.6,12.9-13.5,15.4
		c-1-4.5-2.2-12.8,0.8-20.4c3-7.6,9.6-12.9,13.5-15.4C-9.9,1009.6-8.7,1017.9-11.8,1025.6z M85.4,995.8c0,11.2-4.1,21.9-11.5,30.2
		c-8.6,9.7-21.1,15.3-34.1,15.3s-25.4-5.6-34.1-15.3c-7.4-8.3-11.5-19.1-11.5-30.2V975c1.9-0.9,4.9-2.8,7.9-5.9
		c3.3-3.4,7-8.8,8.6-16.9c1.6,2.2,3.6,4.8,6,7.4c9.2,9.7,20,14.8,31.4,14.8c1,0,1.9-0.5,2.4-1.4c0.5-0.9,0.5-2-0.1-2.8
		c-3.1-4.8-3.6-9.7-3.4-13.5c1.7,2.9,4,6.4,7.1,10c6,7,16.1,15.7,31.1,20L85.4,995.8L85.4,995.8z M58.7,963.3
		c-7-8.1-9.8-15.7-9.9-15.8c-0.4-1.1-1.4-1.8-2.5-1.8c-1.1,0-2.2,0.6-2.6,1.7c-0.2,0.5-4.4,10.4-0.1,21.3
		c-8.1-1.2-15.7-5.4-22.6-12.7c-6.3-6.6-9.6-13.3-9.6-13.4c-0.6-1.3-2.1-1.9-3.5-1.4c-1.1,0.4-1.7,1.5-1.7,2.6
		c0,17.5-10.4,24.3-14.2,26.3c-0.7,0.4-6.1,1.7-8.1,2.9c-0.5-3-0.7-6.1-0.7-9.2c0-31.1,25.3-56.5,56.5-56.5
		c31.1,0,56.5,25.3,56.5,56.5c0,4.5-0.5,8.9-1.6,13.2c0,0,0,0,0,0c-0.4,1.7-2.2,5.6-2.2,5.6C78.9,980.1,67.6,973.6,58.7,963.3z
		 M105.1,1041c-3.8-2.5-10.4-7.7-13.5-15.4c-3-7.6-1.8-16-0.8-20.4c3.8,2.5,10.4,7.8,13.5,15.4
		C107.3,1028.2,106.1,1036.5,105.1,1041z"/>
</g>
<g>
	<g>
		<path class="st1" d="M-462,984.9c-3.1,0-6,1.2-8.2,3.4c-1,1-1,2.7,0,3.7c1,1,2.7,1,3.7,0c1.2-1.2,2.8-1.9,4.5-1.9
			c1.7,0,3.3,0.7,4.5,1.9c0.5,0.5,1.2,0.8,1.9,0.8c0.7,0,1.3-0.3,1.9-0.8c1-1,1-2.7,0-3.7C-456,986.1-458.9,984.9-462,984.9z"/>
		<path class="st1" d="M-406.3,992.8c0.7,0,1.3-0.3,1.9-0.8c1-1,1-2.7,0-3.7c-2.2-2.2-5.1-3.4-8.2-3.4c-3.1,0-6,1.2-8.2,3.4
			c-1,1-1,2.7,0,3.7c1,1,2.7,1,3.7,0c1.2-1.2,2.8-1.9,4.5-1.9s3.3,0.7,4.5,1.9C-407.6,992.5-406.9,992.8-406.3,992.8z"/>
	</g>
	<path class="st1" d="M-424.5,1007.7c-1.4,0-2.6,1.2-2.6,2.6c0,2.1-1.7,3.8-3.8,3.8s-3.8-1.7-3.8-3.8c0-1.4-1.2-2.6-2.6-2.6
		c-1.4,0-2.6,1.2-2.6,2.6c0,2.1-1.7,3.8-3.8,3.8c-2.1,0-3.8-1.7-3.8-3.8c0-1.4-1.2-2.6-2.6-2.6c-1.4,0-2.6,1.2-2.6,2.6c0,5,4,9,9,9
		c2.5,0,4.8-1,6.4-2.7c1.6,1.6,3.9,2.7,6.4,2.7c5,0,9-4,9-9C-421.9,1008.9-423,1007.7-424.5,1007.7z"/>
	<g>
		<path class="st1" d="M-468.1,998.3h-5.9c-1.4,0-2.6,1.2-2.6,2.6c0,1.4,1.2,2.6,2.6,2.6h5.9c1.4,0,2.6-1.2,2.6-2.6
			C-465.4,999.5-466.6,998.3-468.1,998.3z"/>
		<path class="st1" d="M-398,1001c0-1.4-1.2-2.6-2.6-2.6h-5.9c-1.4,0-2.6,1.2-2.6,2.6c0,1.4,1.2,2.6,2.6,2.6h5.9
			C-399.2,1003.6-398,1002.4-398,1001z"/>
	</g>
	<path class="st1" d="M-389.4,933.9c-5.5-7.3-12.6-13.3-20.7-17.4c-8.5-4.3-17.6-6.5-27.2-6.5c-9.6,0-18.8,2.2-27.4,6.6
		c-8.1,4.2-15.3,10.3-20.8,17.6c-7.8,10.4-11.8,22.8-11.8,35.8v61.5c0,1.4,1.2,2.6,2.6,2.6h21.7c9.2,9.8,22,15.4,35.5,15.4
		c13.5,0,26.3-5.6,35.5-15.4h21.9c1.4,0,2.6-1.2,2.6-2.6v-61.5C-377.3,956.8-381.5,944.3-389.4,933.9z M-437.4,1044.3
		c-12.4,0-24.2-5.3-32.4-14.6c-7-7.9-10.9-18.1-10.9-28.7v-26.7c28.4-7.2,58.1-7.2,86.6,0v26.8c0,10.6-3.9,20.8-10.9,28.7
		C-413.2,1039-425,1044.3-437.4,1044.3z M-382.6,1028.9h-15.1c5.7-8.1,8.8-17.8,8.8-27.9v-25.4c0.3,0.1,0.7,0.2,1,0.3
		c0.2,0.1,0.5,0.1,0.7,0.1c1.1,0,2.2-0.7,2.5-1.9c0.4-1.4-0.4-2.8-1.8-3.3c-3.6-1.1-7.3-2-11-2.8c0.5-4.8,0.6-15.5-6.8-25
		c-0.9-1.1-2.5-1.4-3.7-0.5c-1.1,0.9-1.4,2.5-0.5,3.7c6,7.8,6.2,16.5,5.8,20.7c-16-3.1-32.3-4.1-48.4-2.8c0.2-4.6,1.4-11.6,2-14.4
		c0.3-1.4-0.6-2.8-2-3.1c-1.4-0.3-2.8,0.6-3.1,2c-0.2,1.1-2,10-2.1,15.9c-4.3,0.4-8.5,1-12.8,1.8c0.2-5.4,1.4-16.6,7.6-23.3
		c1-1.1,0.9-2.7-0.1-3.7c-1.1-1-2.7-0.9-3.7,0.1c-8,8.5-8.9,22.4-9,27.9c-4.7,1-9.3,2.1-14,3.5c-1.4,0.4-2.2,1.9-1.8,3.3
		c0.4,1.4,1.9,2.2,3.3,1.8c0.3-0.1,0.6-0.2,0.8-0.2v25.3c0,10,3.1,19.7,8.8,27.9H-492v-58.9c0-11.9,3.7-23.2,10.8-32.7
		c5-6.7,11.5-12.3,19-16.1c7.8-4,16.2-6,25-6c8.7,0,17.1,2,24.8,5.9c7.4,3.8,13.9,9.2,18.9,15.9c7.2,9.5,11,20.9,11,32.9
		L-382.6,1028.9L-382.6,1028.9z"/>
</g>
</svg>
