<svg version="1.1" id="Layer_1" xmlns="http://www.w3.org/2000/svg" xmlns:xlink="http://www.w3.org/1999/xlink" x="0px" y="0px"
	 viewBox="0 0 250 90" style="enable-background:new 0 0 250 90;" xml:space="preserve">
<path vector-effect="non-scaling-stroke"  d="M209.3,32.3c12.6,0.2,25.9,15.3,40.7,5"/>
<text transform="matrix(1 0 0 1 195 20)" >+14%</text>
<linearGradient id="SVGID_1_" gradientUnits="userSpaceOnUse" x1="68.5497" y1="40.4745" x2="138.0993" y2="40.4745">
	<stop  offset="0" style="stop-color:#7105FF"/>
	<stop  offset="1" style="stop-color:#E5D1FF"/>
</linearGradient>
<path d="M0,57.5c0,0,13-11.3,27.5-7.7s31.7,18.4,45.4,16.4c0,0,43.4-1.7,54.7-39.7c11.3-38,31.5,26.1,45.9,24.7
	c14.5-1.4,12.4-25,33.2-19"/>
<path d="M206.6,32.2c0-1.5,1.2-2.7,2.7-2.7c1.5,0,2.7,1.2,2.7,2.7c0,1.5-1.2,2.7-2.7,2.7
	C207.9,34.9,206.6,33.7,206.6,32.2z"/>
</svg>