<?xml version="1.0" encoding="utf-8"?>
<!-- Generator: Adobe Illustrator 19.0.0, SVG Export Plug-In . SVG Version: 6.00 Build 0)  -->
<svg version="1.1" id="Layer_1" xmlns="http://www.w3.org/2000/svg" xmlns:xlink="http://www.w3.org/1999/xlink" x="0px" y="0px"
	 viewBox="-549 170.9 500 500" style="enable-background:new -549 170.9 500 500;" xml:space="preserve">
<style type="text/css">
	.st0{fill:#6799D0;}
	.st1{fill:#0D4580;}
	.st2{fill:#085A9C;}
	.st3{fill:#FFFFFF;}
	.st4{fill:#813084;}
	.st5{fill:#6A1577;}
</style>
<rect id="XMLID_29_" x="-549" y="170.9" class="st0" width="500" height="500"/>
<path id="XMLID_3_" class="st0" d="M-136.6,345.7c0-6.1-1.3-11.6-4-16.2c-2.6-4.6-6.5-8.4-11.7-11.4
	c-43.2-24.9-86.5-49.8-129.7-74.7c-11.7-6.7-22.9-6.5-34.5,0.3c-17.2,10.1-103.4,59.5-129,74.4c-10.6,6.1-15.7,15.5-15.7,27.7
	c0,50.1,0,100.3,0,150.4c0,6,1.3,11.3,3.8,15.9c2.6,4.7,6.6,8.7,11.9,11.8c25.7,14.9,111.8,64.2,129,74.4
	c11.6,6.8,22.9,7.1,34.5,0.3c43.2-25,86.5-49.8,129.7-74.7c5.4-3.1,9.3-7,11.9-11.8c2.5-4.6,3.8-9.9,3.8-15.9
	C-136.6,496.1-136.6,395.8-136.6,345.7"/>
<path id="XMLID_4_" class="st1" d="M-298.5,420.4L-457.6,512c2.6,4.7,6.6,8.7,11.9,11.8c25.7,14.9,111.8,64.2,129,74.4
	c11.6,6.8,22.9,7.1,34.5,0.3c43.2-25,86.5-49.8,129.7-74.7c5.4-3.1,9.3-7,11.9-11.8L-298.5,420.4"/>
<path id="XMLID_5_" class="st1" d="M-345.6,447.5c9.3,16.2,26.7,27.1,46.6,27.1c20.1,0,37.6-11,46.8-27.4l-46.3-26.8L-345.6,447.5"
	/>
<path id="XMLID_6_" class="st2" d="M-136.6,345.7c0-6.1-1.3-11.6-4-16.2l-157.9,90.9l158.1,91.6c2.5-4.6,3.8-9.9,3.8-15.9
	C-136.6,496.1-136.6,395.8-136.6,345.7"/>
<path id="XMLID_9_" class="st3" d="M-252.2,447.2c-9.2,16.3-26.7,27.4-46.8,27.4c-20,0-37.4-10.9-46.6-27.1
	c-4.5-7.9-7.1-16.9-7.1-26.6c0-29.7,24-53.7,53.7-53.7c19.8,0,37.1,10.8,46.4,26.8l46.9-27c-18.7-32.2-53.5-53.9-93.4-53.9
	c-59.6,0-107.8,48.3-107.8,107.8c0,19.5,5.2,37.9,14.3,53.7c18.6,32.3,53.6,54.1,93.6,54.1c40.1,0,75.1-21.9,93.7-54.4L-252.2,447.2
	"/>
<polygon id="XMLID_20_" class="st2" points="-158,339.5 -49,278.6 -49,554.9 -158,501.7 "/>
<polygon id="XMLID_24_" class="st1" points="-449,506.9 -550,564.4 -550,671.9 -50,671.9 -50,554.9 -149.5,506.9 -299.7,589.1 "/>
<polygon id="XMLID_21_" class="st4" points="-139.7,510.6 -140.1,511.4 -49,555.4 -49,554.9 "/>
<polygon id="XMLID_25_" class="st5" points="-50,554.9 -49,555.4 -49,670.9 -50,670.9 "/>
<g>
	<polygon class="st3" points="-161.6,396.6 -174.2,396.6 -174.2,409.2 -186.9,409.2 -186.9,421.9 -174.2,421.9 -174.2,434.5 
		-161.6,434.5 -161.6,421.9 -148.9,421.9 -148.9,409.2 -161.6,409.2 	"/>
	<polygon class="st3" points="-207.7,396.6 -220.4,396.6 -220.4,409.2 -233,409.2 -233,421.9 -220.4,421.9 -220.4,434.5 
		-207.7,434.5 -207.7,421.9 -195.1,421.9 -195.1,409.2 -207.7,409.2 	"/>
</g>
</svg>
