<?xml version="1.0" encoding="utf-8"?>
<!-- Generator: Adobe Illustrator 19.0.0, SVG Export Plug-In . SVG Version: 6.00 Build 0)  -->
<svg version="1.1"
	 id="svg2169" inkscape:output_extension="org.inkscape.output.svg.inkscape" sodipodi:version="0.32" sodipodi:docname="dessin-1.svg" inkscape:version="0.45.1" sodipodi:docbase="/home/bene/Desktop" xmlns:cc="http://web.resource.org/cc/" xmlns:sodipodi="http://sodipodi.sourceforge.net/DTD/sodipodi-0.dtd" xmlns:dc="http://purl.org/dc/elements/1.1/" xmlns:rdf="http://www.w3.org/1999/02/22-rdf-syntax-ns#" xmlns:svg="http://www.w3.org/2000/svg" xmlns:inkscape="http://www.inkscape.org/namespaces/inkscape"
	 xmlns="http://www.w3.org/2000/svg" xmlns:xlink="http://www.w3.org/1999/xlink" x="0px" y="0px" viewBox="-744 366 110.4 109.8"
	 style="enable-background:new -744 366 110.4 109.8;" xml:space="preserve">
<style type="text/css">
	.st0{fill:#2E323A;}
	.st1{fill:url(#path8615_1_);}
	.st2{fill:url(#path8620_1_);}
</style>
<rect x="-744" y="366" class="st0" width="110.4" height="109.8"/>
<sodipodi:namedview  inkscape:window-y="48" inkscape:pageopacity="0.0" inkscape:current-layer="layer1" inkscape:window-height="624" inkscape:window-width="872" inkscape:pageshadow="2" inkscape:document-units="px" inkscape:window-x="5" id="base" height="184.25197px" width="131.10236px" inkscape:zoom="0.24748737" bordercolor="#666666" borderopacity="1.0" pagecolor="#ffffff" inkscape:cx="-260.46312" inkscape:cy="316.02744">
	</sodipodi:namedview>
<g id="layer1" transform="translate(-473.36088,-251.72485)" inkscape:groupmode="layer" inkscape:label="Calque 1">
	<g id="g1894" transform="translate(428.42338,184.2561)">
		
			<linearGradient id="path8615_1_" gradientUnits="userSpaceOnUse" x1="-632.6649" y1="454.9156" x2="-591.5848" y2="413.6981" gradientTransform="matrix(1 0 0 -1 -44.9375 909.4466)">
			<stop  offset="0" style="stop-color:#387EB8"/>
			<stop  offset="1" style="stop-color:#366994"/>
		</linearGradient>
		<path id="path8615" class="st1" d="M-644.2,447.1c-21.1,0-19.8,9.1-19.8,9.1l0,9.5h20.1v2.8h-28.1c0,0-13.5-1.5-13.5,19.8
			c0,21.3,11.8,20.5,11.8,20.5h7V499c0,0-0.4-11.8,11.6-11.8c12,0,20,0,20,0s11.2,0.2,11.2-10.8c0-11,0-18.2,0-18.2
			S-622.1,447.1-644.2,447.1z M-655.2,453.5c2,0,3.6,1.6,3.6,3.6s-1.6,3.6-3.6,3.6c-2,0-3.6-1.6-3.6-3.6S-657.3,453.5-655.2,453.5z"
			/>
		
			<linearGradient id="path8620_1_" gradientUnits="userSpaceOnUse" x1="-607.4029" y1="428.6766" x2="-563.2827" y2="386.4073" gradientTransform="matrix(1 0 0 -1 -44.9375 909.4466)">
			<stop  offset="0" style="stop-color:#FFE052"/>
			<stop  offset="1" style="stop-color:#FFC331"/>
		</linearGradient>
		<path id="path8620" class="st2" d="M-643.6,529.8c21.1,0,19.8-9.1,19.8-9.1l0-9.5h-20.1v-2.8h28.1c0,0,13.5,1.5,13.5-19.8
			c0-21.3-11.8-20.5-11.8-20.5h-7v9.9c0,0,0.4,11.8-11.6,11.8s-20,0-20,0s-11.2-0.2-11.2,10.8c0,11,0,18.2,0,18.2
			S-665.6,529.8-643.6,529.8z M-632.5,523.4c-2,0-3.6-1.6-3.6-3.6c0-2,1.6-3.6,3.6-3.6c2,0,3.6,1.6,3.6,3.6
			C-628.8,521.8-630.5,523.4-632.5,523.4z"/>
	</g>
</g>
</svg>
