<?xml version="1.0" encoding="utf-8"?>
<!-- Generator: Adobe Illustrator 23.0.1, SVG Export Plug-In . SVG Version: 6.00 Build 0)  -->
<svg version="1.1" id="OBJECTS" xmlns="http://www.w3.org/2000/svg" xmlns:xlink="http://www.w3.org/1999/xlink" x="0px" y="0px"
	 viewBox="0 0 160 160" style="enable-background:new 0 0 160 160;" xml:space="preserve">
<style type="text/css">
	.st0{fill:#612FAF;}
	.st1{fill:#6630CE;}
	.st2{fill:#671CC9;}
	.st3{fill:#1C202D;}
</style>
<g>
	<g>
		<path class="st0" d="M74.3,45.2l3.7,6.4l1.7,2.9l9.9,17.2h16.1L79.2,26.5l-7.6,13.9L74.3,45.2z M102.5,71.6h-9.6"/>
		<path class="st1" d="M61.6,85.7l5.3-9.1l1.2-2.1l1.7-2.9l9.9-17.2l-8.1-14L45.7,85.7H61.6z M73.2,43.3l1.1,1.9l3.7,6.4l0,0
			L73.2,43.3z"/>
		<path class="st2" d="M61.6,85.7h52.7l-8.6-14.1h-36L61.6,85.7z M68.1,74.5l-4.8,8.3l3.5-6.2L68.1,74.5z"/>
	</g>
</g>
<g>
	<path class="st3" d="M38.8,116.4V91.7h6.7v9.9h6.2v-9.9h6.7l0,0l0,0v0.1v13.7l0,0v5.5h0.1l-0.1,0.2v5.2h-6.7v-9.6h-6.2v9.8
		L38.8,116.4L38.8,116.4z"/>
	<path class="st3" d="M79.4,116.4H59.7V91.7h6.7l0.1,19.6h6.1V91.8h0.1v-0.2h6.7L79.4,116.4z"/>
	<path class="st3" d="M87.3,116.5h-6.7v-11.9l0,0l0,0V91.7h16.2c1,0,1.7,0.2,2.3,0.7c0.6,0.4,1,1.2,1.2,2.2c0,1.7,0,3,0,4
		c0,1,0,1.7,0,2.3c0,0.6,0,1,0,1.2s0,0.5,0,0.7c-0.2,0.9-0.5,1.6-0.9,2s-1,0.7-1.7,0.9v0.1H95l5.2,10.9h-6.9l-5.1-10.8v-4.3h4.9
		v-4.6h-6.1L87.3,116.5z"/>
	<path class="st3" d="M104.9,116.5c-2,0-3.1-0.8-3.5-2.5c0-3.5,0-6.7,0-10c0-3.2,0-6.3,0-9.5c0.2-1.1,0.6-1.8,1.2-2.2
		c0.6-0.4,1.4-0.7,2.3-0.7h12.7c1,0,1.7,0.2,2.3,0.7c0.6,0.4,1,1.2,1.2,2.2c0,3.1,0,6.3,0,9.5c0,3.1,0,6.5,0,10
		c-0.4,1.6-1.6,2.5-3.5,2.5H104.9z M108.5,111.1h5.5V97h-5.5V111.1z"/>
</g>
<g>
	<path class="st2" d="M48.8,132.9c-0.7-0.3-1.2-0.6-1.6-1l0.3-0.6c0.4,0.4,0.9,0.7,1.5,1s1.3,0.4,2,0.4c1,0,1.8-0.2,2.3-0.6
		c0.5-0.4,0.8-0.9,0.8-1.5c0-0.5-0.1-0.8-0.4-1.1c-0.3-0.3-0.6-0.5-1-0.6c-0.4-0.2-0.9-0.3-1.6-0.5c-0.8-0.2-1.4-0.4-1.8-0.6
		c-0.5-0.2-0.9-0.5-1.2-0.8c-0.3-0.4-0.5-0.9-0.5-1.5c0-0.5,0.1-1,0.4-1.4c0.3-0.4,0.7-0.8,1.2-1c0.6-0.2,1.2-0.4,2.1-0.4
		c0.6,0,1.1,0.1,1.7,0.3c0.6,0.2,1,0.4,1.5,0.7l-0.3,0.6c-0.4-0.3-0.9-0.5-1.4-0.7c-0.5-0.1-1-0.2-1.5-0.2c-1,0-1.7,0.2-2.2,0.6
		c-0.5,0.4-0.7,0.9-0.7,1.5c0,0.5,0.1,0.8,0.4,1.1c0.3,0.3,0.6,0.5,1,0.6c0.4,0.2,0.9,0.3,1.6,0.5c0.8,0.2,1.4,0.4,1.8,0.6
		s0.9,0.5,1.2,0.8c0.3,0.4,0.5,0.9,0.5,1.5c0,0.5-0.1,1-0.4,1.4c-0.3,0.4-0.7,0.8-1.3,1c-0.6,0.3-1.3,0.4-2.1,0.4
		C50.2,133.3,49.5,133.2,48.8,132.9z"/>
	<path class="st2" d="M59.2,123.5h-3.8v-0.7h8.3v0.7h-3.8v9.8h-0.8V123.5z"/>
	<path class="st2" d="M71.6,130.3h-6.1l-1.3,2.9h-0.8l4.8-10.5h0.8l4.8,10.5h-0.8L71.6,130.3z M71.3,129.7l-2.8-6l-2.7,6H71.3z"/>
	<path class="st2" d="M82.9,133.3l-2.5-3.5c-0.4,0.1-0.7,0.1-1,0.1h-3v3.4h-0.8v-10.5h3.8c1.3,0,2.4,0.3,3.1,0.9
		c0.7,0.6,1.1,1.5,1.1,2.6c0,0.8-0.2,1.5-0.6,2.1c-0.4,0.6-1,1-1.8,1.2l2.6,3.7H82.9z M79.4,129.2c1.1,0,2-0.2,2.6-0.7
		c0.6-0.5,0.9-1.2,0.9-2.1c0-0.9-0.3-1.6-0.9-2.1s-1.4-0.7-2.6-0.7h-3v5.7H79.4z"/>
	<path class="st2" d="M88.3,123.5h-3.8v-0.7h8.3v0.7H89v9.8h-0.8V123.5z"/>
	<path class="st2" d="M101.9,132.6v0.7h-7.2v-10.5h7v0.7h-6.2v4.1h5.6v0.7h-5.6v4.3H101.9z"/>
	<path class="st2" d="M112,133.3l-2.5-3.5c-0.4,0.1-0.7,0.1-1,0.1h-3v3.4h-0.8v-10.5h3.8c1.3,0,2.4,0.3,3.1,0.9
		c0.7,0.6,1.1,1.5,1.1,2.6c0,0.8-0.2,1.5-0.6,2.1c-0.4,0.6-1,1-1.8,1.2l2.6,3.7H112z M108.5,129.2c1.1,0,2-0.2,2.6-0.7
		c0.6-0.5,0.9-1.2,0.9-2.1c0-0.9-0.3-1.6-0.9-2.1c-0.6-0.5-1.4-0.7-2.6-0.7h-3v5.7H108.5z"/>
</g>
</svg>
