<?xml version="1.0" encoding="utf-8"?>
<!-- Generator: Adobe Illustrator 19.0.0, SVG Export Plug-In . SVG Version: 6.00 Build 0)  -->
<svg version="1.1" id="Calque_1" xmlns="http://www.w3.org/2000/svg" xmlns:xlink="http://www.w3.org/1999/xlink" x="0px" y="0px"
	 viewBox="-105 197 400 400" style="enable-background:new -105 197 400 400;" xml:space="preserve">
<style type="text/css">
	.st0{clip-path:url(#SVGID_2_);fill:#7B63D3;}
	.st1{clip-path:url(#SVGID_2_);fill:#64509B;}
	.st2{clip-path:url(#SVGID_2_);fill:#9684EF;}
</style>
<g>
	<defs>
		<path id="SVGID_1_" d="M26,355.5c0,0,39.3,88.2,160,59.7s110.8,78.4,107.2,85.4c-3.6,7-130.8,145.2-273.2,52.3
			s-147.5-326.2-92.7-341.8S-14.7,276.4,26,355.5z"/>
	</defs>
	<clipPath id="SVGID_2_">
		<use xlink:href="#SVGID_1_"  style="overflow:visible;"/>
	</clipPath>
	<path class="st0" d="M26,355.5c0,0,39.3,88.2,160,59.7s110.8,78.4,107.2,85.4c-3.6,7-130.8,145.2-273.2,52.3
		s-147.5-326.2-92.7-341.8S-14.7,276.4,26,355.5z"/>
	<path class="st1" d="M-148.5,161.9c0,0,3.4,199.1,149.6,235.1s183-35,183-35L-5.7,130.3L-148.5,161.9z"/>
	<path class="st2" d="M114.9,633.1c0,0-63.3-67.5-47-116.3s67.5,29.1,67.5,29.1s47.9,50.4,62.4,55.6c14.5,5.1-20.5,58.1-20.5,58.1
		L114.9,633.1z"/>
</g>
</svg>
