<?xml version="1.0" encoding="utf-8"?>
<!-- Generator: Adobe Illustrator 25.2.0, SVG Export Plug-In . SVG Version: 6.00 Build 0)  -->
<svg version="1.1" id="Layer_1" xmlns:svgjs="http://svgjs.com/svgjs"
	 xmlns="http://www.w3.org/2000/svg" xmlns:xlink="http://www.w3.org/1999/xlink" x="0px" y="0px" viewBox="0 0 512 512"
	 style="enable-background:new 0 0 512 512;" xml:space="preserve">
<style type="text/css">
	.st0{fill:#7703FC;}
	.st1{fill:#F4BD42;}
	.st2{fill:#EF225D;}
</style>
<g>
	<path class="st0" d="M201.5,246.6h-84.1c-24,0-43.4-19.4-43.4-43.4v-84.1c0-24,19.4-43.4,43.4-43.4h84.1c24,0,43.4,19.4,43.4,43.4
		v84.1C244.9,227.2,225.5,246.6,201.5,246.6z"/>
	<path class="st1" d="M394.5,246.6h-84.1c-24,0-43.4-19.4-43.4-43.4v-84.1c0-24,19.4-43.4,43.4-43.4h84.1c24,0,43.4,19.4,43.4,43.4
		v84.1C437.9,227.2,418.5,246.6,394.5,246.6z"/>
	<path class="st2" d="M394.5,436.2h-84.1c-24,0-43.4-19.4-43.4-43.4v-84.1c0-24,19.4-43.4,43.4-43.4h84.1c24,0,43.4,19.4,43.4,43.4
		v84.1C437.9,416.7,418.5,436.2,394.5,436.2z"/>
</g>
</svg>
