<?xml version="1.0" encoding="utf-8"?>
<!-- Generator: Adobe Illustrator 25.2.0, SVG Export Plug-In . SVG Version: 6.00 Build 0)  -->
<svg version="1.1" id="Layer_1" xmlns:svgjs="http://svgjs.com/svgjs"
	 xmlns="http://www.w3.org/2000/svg" xmlns:xlink="http://www.w3.org/1999/xlink" x="0px" y="0px" viewBox="0 0 512 512"
	 style="enable-background:new 0 0 512 512;" xml:space="preserve">
<style type="text/css">
	.st0{fill:#F4BD42;}
	.st1{fill:#EF225D;}
	.st2{fill:#7703FC;}
</style>
<path class="st0" d="M352.5,436.2L352.5,436.2c-47.2,0-85.4-38.2-85.4-85.4v0c0-47.2,38.2-85.4,85.4-85.4h0
	c47.2,0,85.4,38.2,85.4,85.4v0C437.9,397.9,399.7,436.2,352.5,436.2z"/>
<path class="st1" d="M144.7,84.1L66.2,220.2c-6.6,11.4,1.6,25.5,14.7,25.5h157.1c13.1,0,21.3-14.2,14.7-25.5L174.2,84.1
	C167.7,72.8,151.3,72.8,144.7,84.1z"/>
<path class="st2" d="M367.3,237.8l78.6-136.1c6.6-11.4-1.6-25.5-14.7-25.5H273.9c-13.1,0-21.3,14.2-14.7,25.5l78.6,136.1
	C344.3,249.1,360.7,249.1,367.3,237.8z"/>
</svg>
