<?xml version="1.0" encoding="utf-8"?>
<!-- Generator: Adobe Illustrator 23.0.1, SVG Export Plug-In . SVG Version: 6.00 Build 0)  -->
<svg version="1.1" xmlns="http://www.w3.org/2000/svg" xmlns:xlink="http://www.w3.org/1999/xlink" x="0px" y="0px"
	 viewBox="0 0 503.4 503.4" style="enable-background:new 0 0 503.4 503.4;" xml:space="preserve">
<style type="text/css">
	.st0{clip-path:url(#SVGID_2_);fill:#E7D7FF;}
	.st1{clip-path:url(#SVGID_2_);}
	.st2{fill:none;stroke:#263238;stroke-miterlimit:10;}
	.st3{fill:#263238;}
	.st4{fill:#FFFFFF;stroke:#263238;stroke-linecap:round;stroke-linejoin:round;stroke-miterlimit:10;}
	.st5{fill:#671CC9;stroke:#263238;stroke-miterlimit:10;}
	.st6{fill:#671CC9;}
	.st7{fill:#92E3A9;}
	.st8{fill:none;stroke:#263238;stroke-linecap:round;stroke-linejoin:round;stroke-miterlimit:10;}
	.st9{fill:#263238;stroke:#263238;stroke-miterlimit:10;}
	.st10{fill:#FFFFFF;stroke:#263238;stroke-miterlimit:10;}
	.st11{fill:#263238;stroke:#263238;stroke-linecap:round;stroke-linejoin:round;stroke-miterlimit:10;}
	.st12{fill:#671CC9;stroke:#263238;stroke-linecap:round;stroke-linejoin:round;stroke-miterlimit:10;}
	.st13{fill:#92E3A9;stroke:#263238;stroke-linecap:round;stroke-linejoin:round;stroke-miterlimit:10;}
	.st14{fill:none;stroke:#4C4C4C;stroke-linecap:round;stroke-linejoin:round;stroke-miterlimit:10;}
	.st15{fill:#4C4C4C;stroke:#263238;stroke-linecap:round;stroke-linejoin:round;stroke-miterlimit:10;}
	.st16{fill:#B5B5B5;stroke:#263238;stroke-linecap:round;stroke-linejoin:round;stroke-miterlimit:10;}
	.st17{fill:#FFFFFF;}
	.st18{clip-path:url(#SVGID_2_);fill:none;stroke:#263238;stroke-linecap:round;stroke-linejoin:round;stroke-miterlimit:10;}
	.st19{fill:#FFFFFF;stroke:#263238;stroke-width:0.75;stroke-linecap:round;stroke-linejoin:round;stroke-miterlimit:10;}
	.st20{fill:#808080;stroke:#263238;stroke-linecap:round;stroke-linejoin:round;stroke-miterlimit:10;}
</style>
<g id="Background_Simple">
</g>
<g id="Wall">
</g>
<g id="Board">
</g>
<g id="Graphics">
</g>
<g id="Plants">
</g>
<g id="Clock">
</g>
<g id="Characters_3">
</g>
<g id="Character_1">
</g>
<g id="Device">
</g>
<g id="Characters_2">
</g>
<g id="Layer_11">
</g>
<g id="Layer_12">
	<g>
		<defs>
			<circle id="SVGID_1_" cx="251.7" cy="251.7" r="251.7"/>
		</defs>
		<clipPath id="SVGID_2_">
			<use xlink:href="#SVGID_1_"  style="overflow:visible;"/>
		</clipPath>
		<rect x="-2.1" y="-4.3" class="st0" width="507.7" height="507.7"/>
		<g class="st1">
			<line class="st2" x1="64.5" y1="63.4" x2="64.5" y2="419"/>
			<line class="st2" x1="64.5" y1="49.7" x2="64.5" y2="56.5"/>
			<line class="st2" x1="194" y1="49.7" x2="194" y2="419"/>
			<line class="st2" x1="323.5" y1="49.7" x2="323.5" y2="419"/>
			<line class="st2" x1="453" y1="102.3" x2="453" y2="419"/>
			<line class="st2" x1="453" y1="49.7" x2="453" y2="93.5"/>
		</g>
		<g class="st1">
			<rect x="88" y="100.2" class="st3" width="296.5" height="175.7"/>
			<rect x="89.7" y="105.2" class="st4" width="293.1" height="165.7"/>
			<rect x="84.7" y="97.2" class="st3" width="301.5" height="9.4"/>
			<circle class="st4" cx="239.6" cy="88.5" r="8.5"/>
			<path class="st5" d="M244.1,88.5c0,2.5-2,4.5-4.5,4.5c-2.5,0-4.5-2-4.5-4.5c0-2.5,2-4.5,4.5-4.5
				C242.1,84.1,244.1,86.1,244.1,88.5z"/>
		</g>
		<g class="st1">
			<polyline class="st2" points="142.9,212.8 106.7,212.8 106.7,176 168.3,176 168.3,212.8 149.8,212.8 			"/>
			<rect x="155.3" y="230.4" class="st2" width="49.2" height="29.3"/>
			<polyline class="st2" points="258.8,176 265,176 265,212.8 203.4,212.8 203.4,176 252.9,176 			"/>
			<polyline class="st2" points="208.5,122.3 280.8,122.3 280.8,159.1 187.5,159.1 187.5,122.3 201.6,122.3 			"/>
			<rect x="299.5" y="176" class="st2" width="61.6" height="36.7"/>
			<path class="st2" d="M182.5,140.4c0,0-32.7,4.5-51.9,32.2"/>
			<line class="st2" x1="161.5" y1="216.7" x2="165.9" y2="229.4"/>
			<line class="st2" x1="206.2" y1="215.6" x2="202.2" y2="227.5"/>
			<polyline class="st2" points="161.1,225.2 165.9,229.4 167.1,223.7 			"/>
			<polyline class="st2" points="200.3,223.7 202.1,228.5 207.1,225.5 			"/>
			<polyline class="st2" points="131.4,167 130.6,172.7 136.8,168.8 			"/>
			<g>
				<line class="st2" x1="266.8" y1="193.5" x2="297.7" y2="193.5"/>
				<polyline class="st2" points="291.1,189.6 298,193.5 291.7,197.3 				"/>
			</g>
			<g>
				<line class="st2" x1="169.4" y1="193.5" x2="200.2" y2="193.5"/>
				<polyline class="st2" points="193.7,189.6 200.5,193.5 194.3,197.3 				"/>
			</g>
			<g>
				<line class="st2" x1="234" y1="162" x2="234" y2="171.4"/>
				<polyline class="st2" points="237.8,164.9 234,171.7 230.1,165.5 				"/>
			</g>
			<g>
				<line class="st2" x1="297.4" y1="204.5" x2="267.7" y2="204.5"/>
				<polyline class="st2" points="274,200.7 267.4,204.5 273.4,208.4 				"/>
			</g>
			<g>
				<line class="st2" x1="206.8" y1="133.8" x2="262.6" y2="133.8"/>
				<line class="st2" x1="206.8" y1="139.1" x2="262.6" y2="139.1"/>
				<line class="st2" x1="206.8" y1="144.5" x2="262.6" y2="144.5"/>
			</g>
			<g>
				<line class="st2" x1="112.4" y1="189.6" x2="162.6" y2="189.6"/>
				<line class="st2" x1="112.4" y1="194.9" x2="162.6" y2="194.9"/>
				<line class="st2" x1="112.4" y1="200.3" x2="162.6" y2="200.3"/>
			</g>
			<g>
				<line class="st2" x1="209.8" y1="189.6" x2="260" y2="189.6"/>
				<line class="st2" x1="209.8" y1="194.9" x2="260" y2="194.9"/>
				<line class="st2" x1="209.8" y1="200.3" x2="260" y2="200.3"/>
			</g>
			<g>
				<line class="st2" x1="303.6" y1="189.6" x2="353.8" y2="189.6"/>
				<line class="st2" x1="303.6" y1="194.9" x2="353.8" y2="194.9"/>
				<line class="st2" x1="303.6" y1="200.3" x2="353.8" y2="200.3"/>
			</g>
			<g>
				<line class="st2" x1="161.7" y1="240.3" x2="200" y2="240.3"/>
				<line class="st2" x1="161.7" y1="245.7" x2="200" y2="245.7"/>
				<line class="st2" x1="161.7" y1="251" x2="200" y2="251"/>
			</g>
			<g>
				<g>
					<path class="st6" d="M331.5,138.5c-0.2,0-0.3-0.1-0.4-0.2c-0.1-0.2-0.1-0.5,0.2-0.7l0.4-0.2l-0.1,0.1c-0.2,0.1-0.5,0.1-0.7-0.2
						c-0.1-0.2-0.1-0.5,0.2-0.7l2-1.3l-1.8,1c-0.2,0.1-0.5,0.1-0.7-0.2c-0.1-0.2-0.1-0.5,0.2-0.7l3.6-2.4l-3.4,2
						c-0.2,0.1-0.5,0.1-0.7-0.2c-0.1-0.2-0.1-0.5,0.1-0.7l5.7-3.8l-5.5,3.2c-0.2,0.1-0.5,0.1-0.7-0.2c-0.1-0.2-0.1-0.5,0.1-0.7
						l8.5-6.1l-8.5,4.9c-0.2,0.1-0.5,0.1-0.7-0.2c-0.1-0.2-0.1-0.5,0.1-0.7l6.1-4.2l-6,3.5c-0.2,0.1-0.5,0.1-0.7-0.2
						c-0.1-0.2-0.1-0.5,0.1-0.7l3.4-2.3l-3.3,1.9c-0.2,0.1-0.5,0.1-0.7-0.2c-0.1-0.2-0.1-0.5,0.1-0.7l2.2-1.5l-2,1.2
						c-0.2,0.1-0.5,0.1-0.7-0.2c-0.1-0.2-0.1-0.5,0.1-0.7l5.9-4.4l-5.9,3.4c-0.2,0.1-0.5,0.1-0.7-0.2c-0.1-0.2-0.1-0.5,0.1-0.7
						l5.3-4l-5.2,3c-0.2,0.1-0.5,0.1-0.7-0.2c-0.1-0.2-0.1-0.5,0.1-0.7l2.6-1.9l-2.4,1.4c-0.2,0.1-0.5,0.1-0.7-0.2
						c-0.1-0.2-0.1-0.5,0.1-0.7l2.1-1.6l-1.9,1.1c-0.2,0.1-0.5,0.1-0.7-0.2c-0.1-0.2-0.1-0.5,0.1-0.7l1.1-0.8l-0.8,0.5
						c-0.2,0.1-0.5,0.1-0.6-0.1c-0.2-0.2-0.2-0.5,0-0.6l1.6-2.1l-1.5,0.8c-0.2,0.1-0.4,0.1-0.6,0c-0.2-0.1-0.2-0.3-0.2-0.5l0.2-0.6
						c-0.2,0-0.3-0.1-0.4-0.3c-0.1-0.2-0.1-0.5,0.2-0.7l0.7-0.4c0.2-0.1,0.4-0.1,0.6,0c0.2,0.1,0.2,0.3,0.2,0.5l-0.1,0.5l2.7-1.5
						c0.2-0.1,0.5-0.1,0.6,0.1c0.2,0.2,0.2,0.5,0,0.6l-1.6,2.1l4.8-2.8c0.2-0.1,0.5-0.1,0.7,0.2c0.1,0.2,0.1,0.5-0.1,0.7l-1.1,0.8
						l2.5-1.5c0.2-0.1,0.5-0.1,0.7,0.2c0.1,0.2,0.1,0.5-0.1,0.7l-2.1,1.6l3.5-2c0.2-0.1,0.5-0.1,0.7,0.2c0.1,0.2,0.1,0.5-0.1,0.7
						l-2.6,1.9l3.9-2.2c0.2-0.1,0.5-0.1,0.7,0.2c0.1,0.2,0.1,0.5-0.1,0.7l-5.3,4l6.9-4c0.2-0.1,0.5-0.1,0.7,0.2
						c0.1,0.2,0.1,0.5-0.1,0.7l-5.9,4.4l7.3-4.2c0.2-0.1,0.5-0.1,0.7,0.2c0.1,0.2,0.1,0.5-0.1,0.7l-2.2,1.5l2.9-1.7
						c0.2-0.1,0.5-0.1,0.7,0.2c0.1,0.2,0.1,0.5-0.1,0.7l-3.4,2.3l4.1-2.4c0.2-0.1,0.5-0.1,0.7,0.2c0.1,0.2,0.1,0.5-0.1,0.7l-6.1,4.2
						l6.9-4c0.2-0.1,0.5-0.1,0.7,0.2c0.1,0.2,0.1,0.5-0.1,0.7l-8.5,6.1l9.5-5.5c0.2-0.1,0.5-0.1,0.7,0.2c0.1,0.2,0.1,0.5-0.1,0.7
						l-5.7,3.8l6.2-3.6c0.2-0.1,0.5-0.1,0.7,0.2c0.1,0.2,0.1,0.5-0.2,0.7l-3.6,2.4l3.9-2.2c0.2-0.1,0.5-0.1,0.7,0.2
						c0.1,0.2,0.1,0.5-0.2,0.7l-2,1.3l2.1-1.2c0.2-0.1,0.5-0.1,0.7,0.2c0.1,0.2,0.1,0.5-0.2,0.7l-0.4,0.2l0.4-0.3
						c0.2-0.1,0.5-0.1,0.7,0.2c0.1,0.2,0.1,0.5-0.1,0.7l-5.9,4.1l6.1-3.5c0.2-0.1,0.5-0.1,0.7,0.2c0.1,0.2,0.1,0.5-0.1,0.7l-0.1,0.1
						l0,0c0.2-0.1,0.5-0.1,0.7,0.2c0.1,0.2,0.1,0.5-0.1,0.7l-1.1,0.8l1.1-0.6c0.2-0.1,0.5-0.1,0.6,0.1c0.2,0.2,0.2,0.5,0,0.7
						l-1.9,2.2l1.9-1.1c0.2-0.1,0.4-0.1,0.6,0.1c0.2,0.1,0.2,0.4,0.1,0.6l-0.2,0.5c0.2,0,0.4,0.1,0.5,0.2c0.1,0.2,0.1,0.5-0.2,0.7
						l-1.1,0.6c-0.2,0.1-0.4,0.1-0.6-0.1c-0.2-0.1-0.2-0.4-0.1-0.6l0.2-0.4l-3.2,1.8c-0.2,0.1-0.5,0.1-0.6-0.1
						c-0.2-0.2-0.2-0.5,0-0.7l1.9-2.2l-7.4,4.3c-0.2,0.1-0.5,0.1-0.7-0.2c-0.1-0.2-0.1-0.5,0.1-0.7l1.1-0.8l-4.2,2.4
						c-0.2,0.1-0.5,0.1-0.7-0.2c-0.1-0.2-0.1-0.5,0.1-0.7l0.1-0.1l-2.8,1.6c-0.2,0.1-0.5,0.1-0.7-0.2c-0.1-0.2-0.1-0.5,0.1-0.7
						l5.9-4.1l-10.5,6C331.7,138.4,331.6,138.5,331.5,138.5z"/>
				</g>
			</g>
			<path class="st2" d="M315.9,152.7c-4.5-4-7.4-9.6-7.4-15.9c0-12,10.4-21.7,23.2-21.7c12.8,0,23.2,9.7,23.2,21.7
				s-10.4,21.7-23.2,21.7c-3.5,0-6.8-0.7-9.8-2"/>
			<line class="st2" x1="288" y1="132.2" x2="302.7" y2="132.2"/>
			<line class="st2" x1="288" y1="137.2" x2="302.7" y2="137.2"/>
			<line class="st2" x1="288" y1="142.3" x2="302.7" y2="142.3"/>
			<line class="st2" x1="110.9" y1="218.3" x2="136.7" y2="218.3"/>
			<line class="st2" x1="110.9" y1="223.4" x2="136.7" y2="223.4"/>
			<line class="st2" x1="105.6" y1="152.6" x2="131.3" y2="152.6"/>
			<line class="st2" x1="110.9" y1="228.4" x2="136.7" y2="228.4"/>
			<line class="st2" x1="110.9" y1="239" x2="136.7" y2="239"/>
			<line class="st2" x1="110.9" y1="244.1" x2="136.7" y2="244.1"/>
			<line class="st2" x1="110.9" y1="249.1" x2="136.7" y2="249.1"/>
			<polyline class="st2" points="325.5,115.7 331.8,138.4 354.7,133.1 			"/>
			<polyline class="st2" points="105.8,121.5 105.8,146.8 146.4,146.8 			"/>
			<rect x="110" y="125" class="st5" width="8.4" height="21.8"/>
			<rect x="131.5" y="129.9" class="st5" width="8.4" height="16.8"/>
			<rect x="120.8" y="118.1" class="st5" width="8.4" height="28.7"/>
		</g>
		<g class="st1">
			<g>
				<g>
					<path class="st6" d="M57,284.2c0,0,0-4.2-5.9-10.2c-5.9-5.9-9.8-9.3-9.8-9.3s-3,9.8,2.5,15.7c5.5,5.9,13.2,11.5,13.2,11.5
						V284.2z"/>
					<path class="st6" d="M48.4,310.7c0,0,0-4.2-5.9-10.2c-5.9-5.9-9.8-9.3-9.8-9.3s-3,9.8,2.5,15.7c5.5,5.9,13.2,11.5,13.2,11.5
						V310.7z"/>
					<path class="st6" d="M56.7,291.4c0,0,0.4-4.2,7-9.5c6.5-5.3,10.7-8.3,10.7-8.3s1.9,10-4.2,15.3c-6.1,5.3-14.3,10-14.3,10
						L56.7,291.4z"/>
					<path class="st6" d="M46.3,322.7c0,0,0.9-4.1,7.9-8.7c7.1-4.6,11.5-7.1,11.5-7.1s0.9,10.2-5.8,14.8c-6.6,4.7-15.3,8.4-15.3,8.4
						L46.3,322.7z"/>
					<path class="st6" d="M48.2,356.8c0,0,0-4.2,5.9-10.2c5.9-5.9,9.8-9.3,9.8-9.3s3,9.8-2.5,15.7c-5.5,5.9-13.2,11.5-13.2,11.5
						V356.8z"/>
					<path class="st6" d="M48.1,365.2c0,0,0.6-4.2-4.4-10.9c-5-6.7-8.3-10.6-8.3-10.6s-4.3,9.2,0.3,15.9
						c4.6,6.7,11.4,13.2,11.4,13.2L48.1,365.2z"/>
					<path class="st6" d="M42.3,389.9c0,0,0-4.2,5.9-10.2c5.9-5.9,9.8-9.3,9.8-9.3s3,9.8-2.5,15.7c-5.5,5.9-13.2,11.5-13.2,11.5
						V389.9z"/>
					<path class="st7" d="M46.2,412.2c0,0-1.1-4.1,3.2-11.4c4.2-7.3,7.1-11.5,7.1-11.5s5.3,8.7,1.5,15.8c-3.8,7.1-9.8,14.4-9.8,14.4
						L46.2,412.2z"/>
				</g>
				<path class="st8" d="M57.6,283.1c-0.3,4.5-0.9,9.2-1.6,13.2c-2.3,12.1-8.2,20-10.6,30.9c-2.3,11,4.4,25.1,2.6,39.2
					c-1.8,14.1-7.3,21.9-5.7,31.3c1.6,9.4,9.8,34.8,9.8,34.8"/>
				<line class="st8" x1="56.6" y1="294.2" x2="63" y2="289.3"/>
				<line class="st8" x1="56.9" y1="288.6" x2="54.2" y2="283.8"/>
				<path class="st8" d="M45.7,326.7c0,0,5.4-4,10.9-8"/>
				<path class="st8" d="M48.4,318.3c0,0-4.5-8.8-9.5-14.6"/>
				<path class="st8" d="M48.4,362.9c0,0,4.2-8.2,11.5-15.3"/>
				<path class="st8" d="M47.4,368.8c0,0-2.7-6.4-5.8-11c-3.1-4.6-3.6-5.2-3.6-5.2"/>
				<path class="st8" d="M42.3,397.7c0,0,2.1-5.4,4.8-9.8c2.7-4.3,6.3-8.2,6.3-8.2"/>
				<path class="st8" d="M48.2,419.6c0,0-0.6-5.1,1.6-9.4c2.2-4.3,4.8-10,5.8-12.2"/>
			</g>
			<g>
				<g>
					<path class="st6" d="M18.1,340.9c0,0-0.5-2.7,2.6-7s5.1-6.9,5.1-6.9s2.9,5.8,0.1,10.1c-2.8,4.3-7,8.6-7,8.6L18.1,340.9z"/>
					<path class="st6" d="M26.4,356.6c0,0-0.5-2.7,2.6-7c3.1-4.4,5.1-6.9,5.1-6.9s2.9,5.8,0.1,10.1c-2.8,4.3-7,8.6-7,8.6L26.4,356.6
						z"/>
					<path class="st6" d="M19.2,345.4c0,0-0.7-2.6-5.4-5.2c-4.7-2.6-7.6-4-7.6-4s-0.1,6.5,4.3,9.2c4.4,2.7,10,4.7,10,4.7L19.2,345.4
						z"/>
					<path class="st6" d="M29.1,363.9c0,0-1-2.5-5.9-4.6c-4.9-2.1-8-3.2-8-3.2s0.6,6.5,5.2,8.7c4.7,2.2,10.5,3.6,10.5,3.6
						L29.1,363.9z"/>
					<path class="st6" d="M31.6,385.5c0,0-0.5-2.7-4.8-5.7c-4.4-3.1-7.1-4.8-7.1-4.8s-0.8,6.4,3.3,9.6c4.1,3.1,9.5,5.8,9.5,5.8
						L31.6,385.5z"/>
					<path class="st6" d="M32.5,390.7c0,0-0.8-2.6,1.6-7.3c2.4-4.8,4.1-7.6,4.1-7.6s3.7,5.3,1.5,10c-2.2,4.7-5.7,9.5-5.7,9.5
						L32.5,390.7z"/>
					<path class="st7" d="M40,412.2c0,0,0.3-2.7,4.5-6c4.2-3.3,6.8-5.2,6.8-5.2s1.2,6.4-2.7,9.7c-3.9,3.4-9.1,6.3-9.1,6.3L40,412.2z
						"/>
					<path class="st7" d="M38.9,405.5c0,0-0.5-2.7-4.8-5.7c-4.4-3.1-7.1-4.8-7.1-4.8s-0.8,6.4,3.3,9.6c4.1,3.1,9.5,5.8,9.5,5.8
						L38.9,405.5z"/>
					<path class="st7" d="M38.8,420c0,0,0.2-2.7-3.2-6.8c-3.4-4.1-5.7-6.4-5.7-6.4s-2.4,6,0.8,10.1c3.2,4.1,7.7,8,7.7,8L38.8,420z"
						/>
				</g>
				<path class="st8" d="M17.7,340.3c0.7,2.8,1.5,5.7,2.5,8.1c2.8,7.4,7.3,11.6,10,18.2c2.7,6.6,0,16.2,2.6,24.8
					c2.7,8.6,6.9,12.9,7,19c0,6.1-2.4,22.9-2.4,22.9"/>
				<line class="st8" x1="19.5" y1="347.1" x2="15" y2="344.8"/>
				<line class="st8" x1="18.7" y1="343.6" x2="19.9" y2="340.3"/>
				<path class="st8" d="M29.8,366.3c0,0-3.8-1.9-7.7-3.9"/>
				<path class="st8" d="M27.3,361.4c0,0,1.8-6,4.4-10.2"/>
				<path class="st8" d="M32.1,389.3c0,0-3.5-4.7-8.9-8.4"/>
				<path class="st8" d="M33.4,392.9c0,0,1-4.3,2.4-7.5c1.5-3.2,1.7-3.7,1.7-3.7"/>
				<path class="st8" d="M39.5,415c0,0,3-3.7,4.9-5.1c1.9-1.4,3.2-2.8,3.2-2.8"/>
				<path class="st8" d="M39.7,410.4c0,0-1.9-3.2-4.1-5.6c-2.1-2.4-4.8-4.5-4.8-4.5"/>
				<path class="st8" d="M38.4,424.9c0,0-0.2-3.3-2-5.7c-1.9-2.5-4.1-5.7-5-7"/>
			</g>
		</g>
		<g class="st1">
			
				<ellipse transform="matrix(0.2262 -0.9741 0.9741 0.2262 191.5905 547.4031)" class="st9" cx="440.4" cy="153.1" rx="36.8" ry="36.8"/>
			
				<ellipse transform="matrix(0.9208 -0.39 0.39 0.9208 -24.8434 183.8479)" class="st10" cx="440.4" cy="153.1" rx="31.3" ry="31.3"/>
			<polyline class="st2" points="450,133.1 440.4,153.1 454.2,153.1 			"/>
			<path class="st5" d="M443.9,153.1c0,1.9-1.6,3.5-3.5,3.5c-1.9,0-3.5-1.6-3.5-3.5c0-1.9,1.6-3.5,3.5-3.5
				C442.3,149.6,443.9,151.2,443.9,153.1z"/>
		</g>
		<g class="st1">
			<g>
				<g>
					<path class="st4" d="M241.2,248.3l-4.7-6.9c0,0,0.9-11.1-0.1-12.8c-1.1-1.7-18.2-3.7-19.1-2.4c-1,1.3,2.6,2.4,2.6,2.4
						s-2.4,1.1-2.2,2.3c0.4,1.8,3.5,2,3.5,2s-2.5,1.7-2.2,2.7c0.2,0.8,2.7,1.5,2.7,1.5s-2.5,1.1-0.5,2.6c2,1.4,3.8,3,3.8,3
						s-1.4,3.1,2.4,5.7s10.5,7.5,10.5,7.5L241.2,248.3z"/>
					<path class="st11" d="M217.8,221.5l-3.8-0.3l0,1.2l3,1.7C217.1,224.1,217.8,221.2,217.8,221.5z"/>
					<g>
						<path class="st4" d="M232.7,229.2c-0.2,0-0.3,0-0.5-0.1l-15-4.7c-0.8-0.2-1.2-1.1-1-1.9c0.3-0.8,1.1-1.2,1.9-1l15,4.7
							c0.8,0.3,1.2,1.1,1,1.9C233.9,228.8,233.3,229.2,232.7,229.2z"/>
					</g>
					<g>
						<path class="st11" d="M240.5,232.1c-0.2,0-0.4,0-0.7-0.1l-7.8-2.4c-1.1-0.3-1.6-1.5-1.3-2.5c0.3-1.1,1.5-1.6,2.5-1.3l7.8,2.4
							c1.1,0.3,1.6,1.5,1.3,2.5C242.1,231.6,241.3,232.1,240.5,232.1z"/>
					</g>
					<path class="st4" d="M234.3,234.4c0,0-1.4-4-2.4-6c-1.1-2-3.1-3.7-3.9-5.7c-0.8-2-3,1.1-2.2,2.6c0.8,1.5,2.6,3.7,2.6,4.7
						c0,1,0.3,1.7-0.9,5c-1.2,3.3-1.8,7.1,0.8,9.8"/>
					<line class="st8" x1="219.8" y1="228.6" x2="228.4" y2="230.1"/>
					<path class="st8" d="M221.1,232.9c1-0.3,6.4,2.2,6.4,2.2"/>
					<line class="st8" x1="221.7" y1="237.2" x2="226.1" y2="238.7"/>
				</g>
				<path class="st12" d="M301.3,235c0,0-2.6-1.5-3.7,2.5c-1.1,4-4.4,11.2-5.9,12.7c-1.5,1.5-15.8,15.8-15.8,15.8s-6.2-4.8-7.6-3
					c-1.5,1.8-2.4,2.1-2.4,2.1l-24.7-19.3l-9.1,13.8c0,0,33.5,30.6,36.3,31.5c2.8,0.9,4.8,0.6,5.8,0.1c1-0.5,19.4-14.4,19.4-14.4
					s11.2-36.2,12.2-37.5C306.6,238,301.3,235,301.3,235z"/>
				<path class="st13" d="M268.2,266.1c0,0,5,5.8,5,13.1"/>
				<path class="st13" d="M276.2,268.4c0,0,1.5,3.8-0.8,12.3"/>
			</g>
			<path class="st11" d="M312.3,190.3c0,0-10.9-7.1-9.6-13.9c1.3-6.7,25.7-12.2,39.7-7.6c14,4.5,16.9,25.6,15,38.5
				c-1.9,13-3,42.5-3,42.5l-47.6,1.4c0,0,4.4-34.6,5.4-45.6C313.1,194.8,312.3,190.3,312.3,190.3z"/>
			<g>
				<path class="st11" d="M287.9,381c1,10.3,2.9,55.9,4,62.7h49.5c-0.1-7.8-0.2-60.3,0.9-64.6c1.4-5.4,3.4-23.3,1.2-33.6
					c-2.2-10.3-4.8-15.2-4.8-15.2l-51.4-0.1l0.1,4.2C287.5,334.5,286.5,366.3,287.9,381z"/>
				<path class="st14" d="M298.9,350c2.1,1.4,4.1,2.4,4.1,4.4c1,18.1,5,68.8,6.4,87"/>
			</g>
			<g>
				<path class="st4" d="M313.6,234.3l25.1,0.9c0,0-20.2,31-20,48.1c0.2,17.1,3.6,52.4,3.6,52.4s-11,8.7-22.5,7.1
					c-1.2-0.2-1.9-10.4-1.9-10.4s-0.7,9.9-1.6,9.8c-6.4-1.1-8.9-7.8-8.9-7.8l1.3-34.2c0,0,0-22.4,2.5-28.8c2.5-6.4,19.4-35,19.4-35
					L313.6,234.3z"/>
				<path class="st8" d="M312.7,254.1c0,0-7.8,16.1-10.6,25.6c-2.8,9.5-4.1,52.7-4.1,52.7"/>
			</g>
			<g>
				<path class="st12" d="M335.7,235c0,0-17.6,26.3-21,35.7c-3.4,9.5-5.7,45.7-5.2,61c0.5,15.4,5.3,32.3,5.3,32.3s20.2,4.1,42.7-2.9
					c0,0-6.2-27.3-9.1-36.2c-2.9-8.9-4.2-17.9-4.2-17.9s20.2-64.5,20.1-65.5c0-1-0.4-2-2.4-2.6C359.9,238.3,335.7,235,335.7,235z"/>
				<polyline class="st12" points="319.6,335.5 345.7,333.4 346.1,337.6 334.9,339 				"/>
			</g>
			<path class="st12" d="M313.4,237.7c0,0-21,37.1-21.5,43.8c-0.5,6.7-3.6,37.6-5.3,47.3c-1.7,9.8-9.2,28.7-9.2,28.7
				s-1.9-8.3-1.4-12c0.6-3.7,8.6-24.7,9.5-29.4c0.9-4.7,2-21.5,1.8-28.8c-0.2-7.4-0.7-12.7,0.8-18.1c1.5-5.4,13-34.2,13-34.2
				l16.7-0.8L313.4,237.7z"/>
			<g>
				<polygon class="st4" points="308.9,234.6 305.4,250.6 314.3,243.6 				"/>
				<polygon class="st4" points="319.6,226.9 308.9,234.6 312.9,245.2 312.7,254.1 324.8,236.1 				"/>
			</g>
			<path class="st4" d="M318.9,222.7c0,0-2,14.9-2.7,18.9c-0.6,4-3.6,12.5-3.6,12.5s19.1-18.4,20-19.9c0.9-1.5,4.2-16.3,4.2-16.3
				S324.6,222.5,318.9,222.7z"/>
			<path class="st11" d="M318.4,226.8c2.6,1.6,4.6,1.6,7.6,1.2c3-0.5,7.1-3.3,9.9-5.5c0.6-2.6,1.1-4.6,1.1-4.6s-12.3,4.6-18,4.7
				C318.9,222.7,318.7,224.4,318.4,226.8z"/>
			<g>
				<path class="st4" d="M325,177.3L311,188.4c0,0-1.4,10.7-1.9,18.2c-0.5,7.5,2.6,12.8,6.7,16.4c4.1,3.6,6.3,3.8,10.3,3.2
					c4-0.6,9.8-5.3,11.9-7.3s6.2-8.1,6.2-8.1s3.2,0.6,4.2-0.9c0.9-1.5,1.2-2.3,1.2-2.3s-13.4-7.5-18.9-17.1S325,177.3,325,177.3z"/>
				<g>
					<path class="st8" d="M320.7,197c0,0-0.4,3-1.4,4.5c-0.9,1.5-4.6,2.4-2.6,4c2,1.7,5.3,1.6,5.3,1.6"/>
					<path class="st8" d="M316.6,210.1c0,0,7.5,3.3,12.4-1.1"/>
					<path class="st8" d="M319.1,211.2c0,0,1.1,4.2,3.6,3.4c2.5-0.8,4.6-4.1,4.6-4.1S324.1,211.1,319.1,211.2z"/>
					<path class="st3" d="M330.1,199c0,1.1-0.4,2-1.1,2c-0.6,0-1.1-0.9-1.2-2c0-1.1,0.4-2,1.1-2C329.6,197,330.1,197.9,330.1,199z"
						/>
					<path class="st3" d="M318.3,197.6c0,1.1-0.4,2-1.1,2c-0.6,0-1.1-0.9-1.2-2c0-1.1,0.4-2,1.1-2
						C317.8,195.6,318.3,196.5,318.3,197.6z"/>
					<path class="st8" d="M314.3,193c0,0,2.6-2.8,5.7,0.1"/>
					<path class="st8" d="M325.8,193.7c0,0,5.6-2.2,8,2.7"/>
				</g>
			</g>
			<g>
				<polygon class="st4" points="322.6,238.9 312.7,254.1 327.3,246.2 				"/>
				<polygon class="st4" points="339.4,225.8 322.6,238.9 327.5,252.7 343.6,234.1 				"/>
			</g>
			<g>
				<path class="st4" d="M319,303.8c0,0-2.7-0.6-6.4-2.8c-3.7-2.2-7.7-1.4-11.1-1.3c-3.3,0.1-5.7,0.8-5.3,2.2
					c0.4,1.3,3.7,1.2,4.7,1.2c1,0,2.7,1.6,2.7,1.6l-8.4,2c0,0-2.6,1.8-0.6,3.7c2.1,1.9,2.4,1.5,2.4,1.5s3.2,4.9,6.5,5.2
					c3.4,0.2,17-3.2,17-3.2L319,303.8z"/>
				<path class="st12" d="M342.7,265.4c0.4,2,2.6,31.9,2.6,31.9l-27.6,6.5l1.5,15.7c0,0,49.3-5.8,50.3-8.8c0.9-3-2.3-55.5-2.1-58.5
					c0.2-3,4.3-13.2-7.7-13.2"/>
				<path class="st13" d="M347.3,260.4c0,0,8.1-10.4,16.9-10"/>
				<path class="st13" d="M347.3,264.2c0,0,6.9-3.8,13.8-3.8"/>
			</g>
		</g>
		<g class="st1">
			<g>
				<path class="st15" d="M39.1,443.7v-58.7c0-1-0.8-1.8-1.8-1.8h-7.2c-1,0-1.8,0.8-1.8,1.8v58.7H39.1z"/>
				<g>
					<path class="st11" d="M30.2,443.7v-58.7c0-1-0.8-1.8-1.8-1.8h-7.2c-1,0-1.8,0.8-1.8,1.8v58.7H30.2z"/>
				</g>
			</g>
			<g>
				<path class="st11" d="M34.2,443.7h128.5c-1.1-2.4-2.5-4.5-4.4-5.7c-5.8-3.7-61.3-12.3-61.3-12.3l-57.7-0.9l-2.8,0.9
					c0,0-3.1,4.3-2.8,6.4C34,433.2,34.1,438.5,34.2,443.7z"/>
				<g>
					<path class="st4" d="M86.6,314.4c0,0-13.5,7.7-18.1,12c-4.6,4.3-12.3,18.4-12.9,27c-0.6,8.6-7.4,41.4-7.4,41.4
						s-13.8,27-11.7,31c2.1,4,58.9,0,60.4,0c1.5,0-1.5-16.9-1.5-16.9s21.5-33.1,22.4-42c0.9-8.9-5.5-33.1-6.7-38.6
						C109.9,322.7,89.3,313.2,86.6,314.4z"/>
					<g>
						<path class="st8" d="M76,361.2c0,0,10.7,10.2,15.2,13.6"/>
						<path class="st8" d="M70.9,369.1c0,0,19.8,6.8,24.9,7.3"/>
					</g>
				</g>
				<g>
					<path class="st4" d="M128.6,280c0,0,1.5,11.3,1.2,14.7c-0.3,3.4-3.4,15-4.3,17.5c-0.9,2.5-1.8,5.2-5.2,4.9
						c-3.4-0.3-5.5-1.8-5.5-1.8l-3.4,11.3l-23.3-13.5l3.1-6.1c0,0-3.4-5.5-4.3-14.7c-0.9-9.2,4.3-19.6,11-23.6
						c6.7-4,18.4-2.5,21.8,0.3C123.1,271.8,128.6,280,128.6,280z"/>
					<path class="st4" d="M86.9,308.6c1.2,0.3,27.6,12.3,27.9,15.3c0.3,3.1,1.5,12.6,1.5,12.6s-8-7.1-17.5-12.3
						c-9.5-5.2-14.1-8.9-14.1-8.9L86.9,308.6z"/>
					<g>
						<path class="st12" d="M110.2,254.9c0,0,8-3.4,14.4-1.8c6.4,1.5,8.9,8.9,8.9,15c0,6.1-3.4,13.5-4.6,13.8
							c-1.2,0.3-4.3-14.4-10.1-18.7C113,258.9,110.2,254.9,110.2,254.9z"/>
						<g>
							<path class="st12" d="M100.4,256.7c0,0,12.6-6.7,23.6,2.8c11,9.5,7.4,19,4.9,22.4c-2.5,3.4-2.5,9.8-4.3,11
								c-1.8,1.2-2.1-4.9-4.3-6.1c-2.1-1.2-1.8,3.4-4.3,9.5c-2.5,6.1-13.5,15-19.3,14.4c-5.8-0.6-12.9-7.1-16.9-20.5
								c-4-13.5-1.2-27.9,6.1-32.5C93.3,253,100.4,256.7,100.4,256.7z"/>
							<path class="st8" d="M124.8,262.5c0,0,2.4,7-3.8,14.9c-6.2,7.9-14.6,12.2-20.9,8.4c-6.2-3.8-6.5-8.1-6.5-8.1"/>
							<path class="st8" d="M83.6,279c0,0-1.4,21.1,11.4,23.3c12.7,2.2,19.8-11.1,19.8-11.1"/>
						</g>
						<g>
							<ellipse class="st12" cx="87.7" cy="266.5" rx="12.7" ry="12.9"/>
							<path class="st8" d="M85,264.7c0,0,1.6-8.4,6.2-9.5"/>
							<path class="st8" d="M84.4,265.8c0,0,9.2-3.2,13.5,0.3"/>
							<path class="st8" d="M83.9,267.4c0,0-4.1,2.7-2.7,8.9"/>
						</g>
					</g>
					<path class="st4" d="M122.2,293.8c0,0-0.9-9.2-3.7-8.9c-2.8,0.3-1.5,14.1,0,16.3s3.1,0.3,3.1,0.3"/>
				</g>
			</g>
			<g>
				<polygon class="st16" points="381.4,431.2 96.6,431.2 106.2,407 317.3,407 				"/>
				<rect x="99.7" y="436" class="st11" width="277.8" height="7.6"/>
				<rect x="96.6" y="431.2" class="st15" width="284.8" height="9"/>
			</g>
			<g>
				<polygon class="st17" points="203.9,410.1 212.1,423.2 145.3,423.2 151.8,410.1 				"/>
				<polygon class="st17" points="191.3,414 199.5,427.1 132.7,427.1 139.2,414 				"/>
			</g>
			<g>
				<path class="st4" d="M109.9,342.3l12.9,59.8l50,7.1c0,0,15-6.1,16.3-6.1c1.2,0,3.4,3.7,4.3,4.9s2.5,3.1,3.1,4
					c0.6,0.9,0.9,5.5,0,6.7c-0.9,1.2-2.8,4.6-4.6,4.3c-1.8-0.3,0-5.2,0-5.2s-10.7,4.3-14.1,4.3c-3.4,0-10.1-3.1-10.1-3.1
					s-57,6.4-60.4,5.2c-3.4-1.2-5.2-3.1-6.4-5.5c-1.2-2.5-20.9-68.1-20.9-68.1"/>
				<path class="st4" d="M193.3,407.9c-0.9-1.2-3.1-4.9-4.3-4.9c-1.2,0-16.3,6.1-16.3,6.1l-28.5-4c1.2,3.5,2.7,9.6,1.4,16.2
					c11.9-1.2,21.9-2.4,21.9-2.4s6.7,3.1,10.1,3.1c3.4,0,14.1-4.3,14.1-4.3s-1.8,4.9,0,5.2c1.8,0.3,3.7-3.1,4.6-4.3
					c0.9-1.2,0.6-5.8,0-6.7C195.8,411,194.2,409.2,193.3,407.9z"/>
			</g>
		</g>
		<line class="st18" x1="11.8" y1="443.7" x2="497.4" y2="443.7"/>
		<g class="st1">
			<polygon class="st4" points="278.6,423.6 332.6,423.6 332.6,421.8 252.2,409.8 254.1,411.5 			"/>
			<polygon class="st4" points="278.6,421.8 332.6,421.8 304,410.1 254.1,409.8 			"/>
			<g>
				<polygon class="st19" points="287.4,412.5 292.4,412.5 289.8,411.4 284.9,411.4 				"/>
				<polygon class="st19" points="297.6,416.8 300.2,417.9 305.3,417.9 302.7,416.8 				"/>
				<polygon class="st19" points="307,415.2 301.4,415.2 302.9,415.8 308.5,415.8 				"/>
				<polygon class="st19" points="295.2,415.8 300.3,415.8 298.8,415.2 293.7,415.2 				"/>
				<polygon class="st19" points="299,414.1 304.6,414.1 303,413.5 297.4,413.5 				"/>
				<polygon class="st19" points="279.7,412.5 284.8,412.5 282.3,411.5 277.4,411.5 				"/>
				<polygon class="st19" points="289.8,413.5 291.3,414.1 296.4,414.1 294.8,413.5 				"/>
				<polygon class="st19" points="314.6,420.7 320.4,420.7 316.1,418.9 310.3,418.9 				"/>
				<polygon class="st19" points="302.6,418.9 306.9,420.7 312,420.7 307.7,418.9 				"/>
				<polygon class="st19" points="295,418.9 299.2,420.7 304.3,420.7 300,418.9 				"/>
				<polygon class="st19" points="292.3,418.9 282.5,418.9 286,420.7 296.6,420.7 				"/>
				<polygon class="st19" points="295,412.5 300.5,412.5 297.7,411.3 292.4,411.4 				"/>
				<polygon class="st19" points="305.3,416.8 307.9,417.9 313.6,417.9 311,416.8 				"/>
				<polygon class="st19" points="297.6,417.9 295,416.8 290,416.8 292.5,417.9 				"/>
				<polygon class="st19" points="277.1,412.5 274.8,411.5 268.1,411.6 269.8,412.5 				"/>
				<polygon class="st19" points="291.1,415.2 286.1,415.2 287.5,415.8 292.6,415.8 				"/>
				<polygon class="st19" points="282.1,413.5 283.7,414.1 288.7,414.1 287.2,413.5 				"/>
				<polygon class="st19" points="284.9,415.8 283.5,415.2 275.1,415.2 276.3,415.8 				"/>
				<polygon class="st19" points="273.1,414.1 281,414.1 279.5,413.5 271.8,413.5 				"/>
				<polygon class="st19" points="287.3,416.8 278.3,416.8 280.5,417.9 289.9,417.9 				"/>
			</g>
			<polygon class="st4" points="278.6,421.8 276.6,421.8 239.3,368 241.1,367.4 265.6,367.4 			"/>
			<polygon class="st4" points="276.6,421.8 252.2,409.8 239.2,367.4 263.6,367.4 			"/>
		</g>
		<g class="st1">
			<g>
				<path class="st11" d="M490.2,443.7v-65.3c0-1-0.8-1.8-1.8-1.8h-23.8c-1,0-1.8,0.8-1.8,1.8v65.3H490.2z"/>
				<path class="st15" d="M481.6,443.7v-65.3c0-1-0.8-1.8-1.8-1.8h-23.8c-1,0-1.8,0.8-1.8,1.8v65.3H481.6z"/>
			</g>
			<g>
				<g>
					<path class="st12" d="M386.4,339.6c0,0-10.5,7-11.8,11.3c-1.3,4.3-9.1,28.7-9.9,30.6c-0.8,1.9-7.3,11.8-7.3,11.8l-34.4,1.6
						c0,0-15.6-3.5-16.9-3.5s-14.8,8.9-15.8,11.3c-1.1,2.4-3.5,5.9-2.4,6.7c1.1,0.8,2.7-0.5,2.7-0.5s0.5,3.8,7.3,2.4
						c6.7-1.3,13.4-6.2,13.4-6.2s8.3,4,11.6,3.2c0.1,0,0.2-0.1,0.3-0.1v3.6c0,0,45.4,2.4,47.3,1.9c1.9-0.5,11.8-12.6,11.8-12.6
						l11.6-62.3C393.6,338.8,393.1,332.9,386.4,339.6z"/>
					<path class="st15" d="M323.7,395.9l-0.7-0.9l-0.1,0c0,0-15.6-3.5-16.9-3.5s-14.8,8.9-15.8,11.3c-1.1,2.4-3.5,5.9-2.4,6.7
						c1.1,0.8,2.7-0.5,2.7-0.5s0.5,3.8,7.3,2.4c6.7-1.3,13.4-6.2,13.4-6.2s8.3,4,11.6,3.2c0.1,0,0.2-0.1,0.3-0.1v3.6L323.7,395.9z"
						/>
					<path class="st12" d="M387.6,443.7h1.1c-0.8-1.9-1.5-3.7-1.8-4.7c-0.9-2.9-11.2-40.1-12.3-45.6c-1.1-5.4-0.6-13.2,2.3-24.1
						c2.9-10.9,9.5-29.7,9.5-29.7l-9.5,13.3c0,0-8,31-8,35c0,4,4,24.4,8,34.4C379.2,428.1,384,437.1,387.6,443.7z"/>
				</g>
				<path class="st4" d="M390.7,332.1c0,0-9.9,15.6-12.6,26.3s-4.8,20.1-4.8,29.8c0,9.7,10.7,37.1,12.4,40.6
					c1.6,3.5,19.1,4.6,24.4-12.1c5.4-16.7,7.8-64.7,4.6-75.8C411.4,329.9,397.4,324.8,390.7,332.1z"/>
				<path class="st20" d="M387.9,329.8c-0.7,1-9.6,5.9-9.6,5.9L378,345l2.6-5l4.2,12.3l4.4-22.8L387.9,329.8z"/>
				<g>
					<path class="st12" d="M388.9,443.7H462c-2.4-6.4-11.7-31.4-12-32.5c-0.3-1.3-7.9-60.2-15.9-71.1c-7.9-10.9-26.4-14.9-30.4-12.6
						c0,0-13.2,26.8-18.2,39.3c-5,12.6-8.3,37.4-8.3,41s6.9,26.4,6.9,26.4L388.9,443.7z"/>
					<polyline class="st8" points="441.5,424 409.9,433.4 411.9,437.5 429.4,432.1 					"/>
				</g>
				<g>
					<g>
						<path class="st4" d="M372.2,283.3c0,0-2.5,7.8-2.6,9.5c-0.1,1.6,0.1,3.6,0.1,3.6s0.1,1-0.4,1.8c-0.5,0.8-6.5,6.6-5.8,7.7
							c0.7,1.1,4.8,5.7,4.8,5.7s2.9,13.7,6.7,15.3c3.8,1.6,9.3,0.6,9.3,0.6l2,5.4l24-7.9l-0.4-7.9c0,0,2.4-14-0.4-24.1
							C406.8,282.9,382.8,271.9,372.2,283.3z"/>
						<path class="st3" d="M373,299.4c-0.3,1.2-0.9,2-1.3,1.9c-0.5-0.1-0.6-1.1-0.3-2.3s0.9-2,1.3-1.9
							C373.2,297.2,373.3,298.2,373,299.4z"/>
						<path class="st4" d="M371.3,294.1c0,0,3.4-1,4.7,2.7"/>
						<path class="st4" d="M369,313.5c0,0,2.7,2.7,7.4,1"/>
					</g>
					<path class="st11" d="M387,264.1c0,0-2.1-6-9-7.4c-6.8-1.3-11.7,8.2-10,11.9c1.7,3.7,2.5,4.5-0.8,4.7c-3.3,0.2-9.6,8.7-4,14
						c5.6,5.2,12.2-2.2,12.6,0.4c0.3,2.7-0.6,5.1,2.6,5.2c3.2,0.1,8.5-0.2,7.7,1.9c-0.8,2.1-1,6.9,2.1,7.6c3.1,0.7,5-3,7.1-2.5
						c2.2,0.5,5,7.4,3.2,11.2c-1.9,3.8-3.2,3.8-3.4,4.7c-0.2,0.9,5.7,7.2,11.9,6.1c6.1-1.1,14.1-3.1,15-9.7c0.9-6.6-1-8,1.5-10.4
						c2.5-2.3,5-3,4.2-6.8c-0.7-3.8-3-5-2.3-8c0.7-3.1-2.4-17.2-15.5-23.3C396.6,257.6,387,264.1,387,264.1z"/>
				</g>
				<polygon class="st4" points="412.8,317.6 382.6,335.1 384.8,352.4 417,326.7 				"/>
				<g>
					<g>
						<path class="st4" d="M333.7,399.2c0,0-6.1-2.3-9.9-3.4c-6.6-1.9-12.8-4.7-15.1-4.1c-2.3,0.7-13.6,8.4-13.6,8.4
							s-4,9.6-3.6,10.9c0.3,1.3,2.8-0.8,2.8-0.8s-1.4,1.8-0.1,3.1c1.3,1.3,2.6-1.3,2.6-1.3s-0.3,3.3,1.7,3c2-0.3,2.2-1.8,2.2-1.8
							s0.1,1.8,1.8,1.8s5.3-6.9,5.3-6.9l6.3,0.3c0,0,5,2.6,7.9,3c3,0.3,6.6-1.7,6.6-1.7l4,1l3.3-9.6L333.7,399.2z"/>
						<path class="st8" d="M294.1,410.3c0,0,3.4-8.1,3.9-8.7c0.5-0.5,7.3-4.3,7.3-4.3"/>
						<path class="st8" d="M296.6,412.1c0,0,4.1-8.3,4.5-8.7c0.4-0.4,5.5-3,5.5-3"/>
						<path class="st8" d="M300.5,413.3c0,0,3.9-7.6,4.6-8c0.7-0.4,2.4-1.4,2.4-1.4"/>
					</g>
					<path class="st12" d="M421.3,339.4c0,0-20.8,13.6-20.5,18.8c0.3,5.3,2,5.3,2,5.3l-10.6,39.7c0,0-3.3-2.6-3.6,0.7
						c-0.3,3.3-0.3,3.3-0.3,3.3l-55.2-9.3l-5.6,13.9c0,0,22.8,8.9,38.7,14.5c15.9,5.6,32.4,11.9,34,8.9c1.7-3,34.4-51.9,36.4-55.5
						c2-3.6,2-10.2,2-10.2"/>
					<path class="st8" d="M402.7,363.5c0,0,6.3-12.9,21.5-13.9"/>
				</g>
			</g>
		</g>
	</g>
</g>
</svg>
