<?xml version="1.0" encoding="utf-8"?>
<!-- Generator: Adobe Illustrator 23.0.1, SVG Export Plug-In . SVG Version: 6.00 Build 0)  -->
<svg version="1.1" id="Layer_1" xmlns="http://www.w3.org/2000/svg" xmlns:xlink="http://www.w3.org/1999/xlink" x="0px" y="0px"
	 viewBox="0 0 379 379" style="enable-background:new 0 0 379 379;" xml:space="preserve">
<style type="text/css">
	.st0{fill:#FFFFFF;}
	.st1{clip-path:url(#SVGID_2_);fill:#FFE2D7;}
	.st2{clip-path:url(#SVGID_2_);}
	.st3{fill:none;stroke:#1A2E35;stroke-linecap:round;stroke-linejoin:round;stroke-miterlimit:10;}
	.st4{fill:#1A2E35;stroke:#1A2E35;stroke-linecap:round;stroke-linejoin:round;stroke-miterlimit:10;}
	.st5{fill:none;stroke:#1A2E35;stroke-width:2;stroke-linecap:round;stroke-linejoin:round;stroke-miterlimit:10;}
	.st6{fill:#FFFFFF;stroke:#1A2E35;stroke-linecap:round;stroke-linejoin:round;stroke-miterlimit:10;}
	.st7{fill:#FFAA80;stroke:#1A2E35;stroke-linecap:round;stroke-linejoin:round;stroke-miterlimit:10;}
	.st8{fill:#4A4A4A;}
	.st9{fill:#1A2E35;stroke:#FFFFFF;stroke-linecap:round;stroke-linejoin:round;stroke-miterlimit:10;}
	.st10{fill:#FFFFFF;stroke:#1A2E35;stroke-width:0.5;stroke-linecap:round;stroke-linejoin:round;stroke-miterlimit:10;}
	.st11{clip-path:url(#SVGID_2_);fill:none;stroke:#1A2E35;stroke-linecap:round;stroke-linejoin:round;stroke-miterlimit:10;}
	.st12{fill:none;stroke:#737373;stroke-linecap:round;stroke-linejoin:round;stroke-miterlimit:10;}
	.st13{fill:none;stroke:#1A2E35;stroke-width:3;stroke-linecap:round;stroke-linejoin:round;stroke-miterlimit:10;}
	.st14{fill:#5AE4A7;stroke:#1A2E35;stroke-linecap:round;stroke-linejoin:round;stroke-miterlimit:10;}
	.st15{fill:none;stroke:#FFAA80;stroke-linecap:round;stroke-linejoin:round;stroke-miterlimit:10;}
</style>
<g>
	<circle class="st0" cx="189.5" cy="189.5" r="189.5"/>
	<g>
		<defs>
			<circle id="SVGID_1_" cx="189.5" cy="189.5" r="171.2"/>
		</defs>
		<clipPath id="SVGID_2_">
			<use xlink:href="#SVGID_1_"  style="overflow:visible;"/>
		</clipPath>
		<rect x="-234.7" y="-52.6" class="st1" width="754.3" height="754.3"/>
		<g class="st2">
			<g>
				<g>
					<path class="st3" d="M-118.7,277h-40c-2.3,0-4.1-1.8-4.1-4.1v-40c0-2.3,1.8-4.1,4.1-4.1h40c2.3,0,4.1,1.8,4.1,4.1v40
						C-114.6,275.2-116.5,277-118.7,277z"/>
					<path class="st3" d="M-66.4,277h-40c-2.3,0-4.1-1.8-4.1-4.1v-40c0-2.3,1.8-4.1,4.1-4.1h40c2.3,0,4.1,1.8,4.1,4.1v40
						C-62.3,275.2-64.1,277-66.4,277z"/>
					<path class="st3" d="M-14,277h-40c-2.3,0-4.1-1.8-4.1-4.1v-40c0-2.3,1.8-4.1,4.1-4.1h40c2.3,0,4.1,1.8,4.1,4.1v40
						C-9.9,275.2-11.7,277-14,277z"/>
					<path class="st3" d="M38.3,277h-40c-2.3,0-4.1-1.8-4.1-4.1v-40c0-2.3,1.8-4.1,4.1-4.1h40c2.3,0,4.1,1.8,4.1,4.1v40
						C42.5,275.2,40.6,277,38.3,277z"/>
					<path class="st3" d="M90.7,277h-40c-2.3,0-4.1-1.8-4.1-4.1v-40c0-2.3,1.8-4.1,4.1-4.1h40c2.3,0,4.1,1.8,4.1,4.1v40
						C94.8,275.2,93,277,90.7,277z"/>
					<path class="st3" d="M143.1,277h-40c-2.3,0-4.1-1.8-4.1-4.1v-40c0-2.3,1.8-4.1,4.1-4.1h40c2.3,0,4.1,1.8,4.1,4.1v40
						C147.2,275.2,145.3,277,143.1,277z"/>
					<path class="st3" d="M195.4,277h-40c-2.3,0-4.1-1.8-4.1-4.1v-40c0-2.3,1.8-4.1,4.1-4.1h40c2.3,0,4.1,1.8,4.1,4.1v40
						C199.5,275.2,197.7,277,195.4,277z"/>
					<path class="st3" d="M247.8,277h-40c-2.3,0-4.1-1.8-4.1-4.1v-40c0-2.3,1.8-4.1,4.1-4.1h40c2.3,0,4.1,1.8,4.1,4.1v40
						C251.9,275.2,250.1,277,247.8,277z"/>
					<path class="st3" d="M300.1,277h-40c-2.3,0-4.1-1.8-4.1-4.1v-40c0-2.3,1.8-4.1,4.1-4.1h40c2.3,0,4.1,1.8,4.1,4.1v40
						C304.3,275.2,302.4,277,300.1,277z"/>
					<path class="st3" d="M352.5,277h-40c-2.3,0-4.1-1.8-4.1-4.1v-40c0-2.3,1.8-4.1,4.1-4.1h40c2.3,0,4.1,1.8,4.1,4.1v40
						C356.6,275.2,354.8,277,352.5,277z"/>
					<path class="st3" d="M404.9,277h-40c-2.3,0-4.1-1.8-4.1-4.1v-40c0-2.3,1.8-4.1,4.1-4.1h40c2.3,0,4.1,1.8,4.1,4.1v40
						C409,275.2,407.1,277,404.9,277z"/>
					<path class="st3" d="M457.2,277h-40c-2.3,0-4.1-1.8-4.1-4.1v-40c0-2.3,1.8-4.1,4.1-4.1h40c2.3,0,4.1,1.8,4.1,4.1v40
						C461.3,275.2,459.5,277,457.2,277z"/>
				</g>
				<g>
					<path class="st3" d="M-118.7,328.6h-40c-2.3,0-4.1-1.8-4.1-4.1v-40c0-2.3,1.8-4.1,4.1-4.1h40c2.3,0,4.1,1.8,4.1,4.1v40
						C-114.6,326.8-116.5,328.6-118.7,328.6z"/>
					<path class="st3" d="M-66.4,328.6h-40c-2.3,0-4.1-1.8-4.1-4.1v-40c0-2.3,1.8-4.1,4.1-4.1h40c2.3,0,4.1,1.8,4.1,4.1v40
						C-62.3,326.8-64.1,328.6-66.4,328.6z"/>
					<path class="st3" d="M-14,328.6h-40c-2.3,0-4.1-1.8-4.1-4.1v-40c0-2.3,1.8-4.1,4.1-4.1h40c2.3,0,4.1,1.8,4.1,4.1v40
						C-9.9,326.8-11.7,328.6-14,328.6z"/>
					<path class="st3" d="M38.3,328.6h-40c-2.3,0-4.1-1.8-4.1-4.1v-40c0-2.3,1.8-4.1,4.1-4.1h40c2.3,0,4.1,1.8,4.1,4.1v40
						C42.5,326.8,40.6,328.6,38.3,328.6z"/>
					<path class="st3" d="M90.7,328.6h-40c-2.3,0-4.1-1.8-4.1-4.1v-40c0-2.3,1.8-4.1,4.1-4.1h40c2.3,0,4.1,1.8,4.1,4.1v40
						C94.8,326.8,93,328.6,90.7,328.6z"/>
					<path class="st3" d="M143.1,328.6h-40c-2.3,0-4.1-1.8-4.1-4.1v-40c0-2.3,1.8-4.1,4.1-4.1h40c2.3,0,4.1,1.8,4.1,4.1v40
						C147.2,326.8,145.3,328.6,143.1,328.6z"/>
					<path class="st3" d="M195.4,328.6h-40c-2.3,0-4.1-1.8-4.1-4.1v-40c0-2.3,1.8-4.1,4.1-4.1h40c2.3,0,4.1,1.8,4.1,4.1v40
						C199.5,326.8,197.7,328.6,195.4,328.6z"/>
					<path class="st3" d="M247.8,328.6h-40c-2.3,0-4.1-1.8-4.1-4.1v-40c0-2.3,1.8-4.1,4.1-4.1h40c2.3,0,4.1,1.8,4.1,4.1v40
						C251.9,326.8,250.1,328.6,247.8,328.6z"/>
					<path class="st3" d="M300.1,328.6h-40c-2.3,0-4.1-1.8-4.1-4.1v-40c0-2.3,1.8-4.1,4.1-4.1h40c2.3,0,4.1,1.8,4.1,4.1v40
						C304.3,326.8,302.4,328.6,300.1,328.6z"/>
					<path class="st3" d="M352.5,328.6h-40c-2.3,0-4.1-1.8-4.1-4.1v-40c0-2.3,1.8-4.1,4.1-4.1h40c2.3,0,4.1,1.8,4.1,4.1v40
						C356.6,326.8,354.8,328.6,352.5,328.6z"/>
					<path class="st3" d="M404.9,328.6h-40c-2.3,0-4.1-1.8-4.1-4.1v-40c0-2.3,1.8-4.1,4.1-4.1h40c2.3,0,4.1,1.8,4.1,4.1v40
						C409,326.8,407.1,328.6,404.9,328.6z"/>
					<path class="st3" d="M457.2,328.6h-40c-2.3,0-4.1-1.8-4.1-4.1v-40c0-2.3,1.8-4.1,4.1-4.1h40c2.3,0,4.1,1.8,4.1,4.1v40
						C461.3,326.8,459.5,328.6,457.2,328.6z"/>
				</g>
				<g>
					<path class="st3" d="M-118.7,380.2h-40c-2.3,0-4.1-1.8-4.1-4.1v-40c0-2.3,1.8-4.1,4.1-4.1h40c2.3,0,4.1,1.8,4.1,4.1v40
						C-114.6,378.4-116.5,380.2-118.7,380.2z"/>
					<path class="st3" d="M-66.4,380.2h-40c-2.3,0-4.1-1.8-4.1-4.1v-40c0-2.3,1.8-4.1,4.1-4.1h40c2.3,0,4.1,1.8,4.1,4.1v40
						C-62.3,378.4-64.1,380.2-66.4,380.2z"/>
					<path class="st3" d="M-14,380.2h-40c-2.3,0-4.1-1.8-4.1-4.1v-40c0-2.3,1.8-4.1,4.1-4.1h40c2.3,0,4.1,1.8,4.1,4.1v40
						C-9.9,378.4-11.7,380.2-14,380.2z"/>
					<path class="st3" d="M38.3,380.2h-40c-2.3,0-4.1-1.8-4.1-4.1v-40c0-2.3,1.8-4.1,4.1-4.1h40c2.3,0,4.1,1.8,4.1,4.1v40
						C42.5,378.4,40.6,380.2,38.3,380.2z"/>
					<path class="st3" d="M90.7,380.2h-40c-2.3,0-4.1-1.8-4.1-4.1v-40c0-2.3,1.8-4.1,4.1-4.1h40c2.3,0,4.1,1.8,4.1,4.1v40
						C94.8,378.4,93,380.2,90.7,380.2z"/>
					<path class="st3" d="M143.1,380.2h-40c-2.3,0-4.1-1.8-4.1-4.1v-40c0-2.3,1.8-4.1,4.1-4.1h40c2.3,0,4.1,1.8,4.1,4.1v40
						C147.2,378.4,145.3,380.2,143.1,380.2z"/>
					<path class="st3" d="M195.4,380.2h-40c-2.3,0-4.1-1.8-4.1-4.1v-40c0-2.3,1.8-4.1,4.1-4.1h40c2.3,0,4.1,1.8,4.1,4.1v40
						C199.5,378.4,197.7,380.2,195.4,380.2z"/>
					<path class="st3" d="M247.8,380.2h-40c-2.3,0-4.1-1.8-4.1-4.1v-40c0-2.3,1.8-4.1,4.1-4.1h40c2.3,0,4.1,1.8,4.1,4.1v40
						C251.9,378.4,250.1,380.2,247.8,380.2z"/>
					<path class="st3" d="M300.1,380.2h-40c-2.3,0-4.1-1.8-4.1-4.1v-40c0-2.3,1.8-4.1,4.1-4.1h40c2.3,0,4.1,1.8,4.1,4.1v40
						C304.3,378.4,302.4,380.2,300.1,380.2z"/>
					<path class="st3" d="M352.5,380.2h-40c-2.3,0-4.1-1.8-4.1-4.1v-40c0-2.3,1.8-4.1,4.1-4.1h40c2.3,0,4.1,1.8,4.1,4.1v40
						C356.6,378.4,354.8,380.2,352.5,380.2z"/>
					<path class="st3" d="M404.9,380.2h-40c-2.3,0-4.1-1.8-4.1-4.1v-40c0-2.3,1.8-4.1,4.1-4.1h40c2.3,0,4.1,1.8,4.1,4.1v40
						C409,378.4,407.1,380.2,404.9,380.2z"/>
					<path class="st3" d="M457.2,380.2h-40c-2.3,0-4.1-1.8-4.1-4.1v-40c0-2.3,1.8-4.1,4.1-4.1h40c2.3,0,4.1,1.8,4.1,4.1v40
						C461.3,378.4,459.5,380.2,457.2,380.2z"/>
				</g>
				<g>
					<path class="st3" d="M-118.7,431.8h-40c-2.3,0-4.1-1.8-4.1-4.1v-40c0-2.3,1.8-4.1,4.1-4.1h40c2.3,0,4.1,1.8,4.1,4.1v40
						C-114.6,430-116.5,431.8-118.7,431.8z"/>
					<path class="st3" d="M-66.4,431.8h-40c-2.3,0-4.1-1.8-4.1-4.1v-40c0-2.3,1.8-4.1,4.1-4.1h40c2.3,0,4.1,1.8,4.1,4.1v40
						C-62.3,430-64.1,431.8-66.4,431.8z"/>
					<path class="st3" d="M-14,431.8h-40c-2.3,0-4.1-1.8-4.1-4.1v-40c0-2.3,1.8-4.1,4.1-4.1h40c2.3,0,4.1,1.8,4.1,4.1v40
						C-9.9,430-11.7,431.8-14,431.8z"/>
					<path class="st3" d="M38.3,431.8h-40c-2.3,0-4.1-1.8-4.1-4.1v-40c0-2.3,1.8-4.1,4.1-4.1h40c2.3,0,4.1,1.8,4.1,4.1v40
						C42.5,430,40.6,431.8,38.3,431.8z"/>
					<path class="st3" d="M90.7,431.8h-40c-2.3,0-4.1-1.8-4.1-4.1v-40c0-2.3,1.8-4.1,4.1-4.1h40c2.3,0,4.1,1.8,4.1,4.1v40
						C94.8,430,93,431.8,90.7,431.8z"/>
					<path class="st3" d="M143.1,431.8h-40c-2.3,0-4.1-1.8-4.1-4.1v-40c0-2.3,1.8-4.1,4.1-4.1h40c2.3,0,4.1,1.8,4.1,4.1v40
						C147.2,430,145.3,431.8,143.1,431.8z"/>
					<path class="st3" d="M195.4,431.8h-40c-2.3,0-4.1-1.8-4.1-4.1v-40c0-2.3,1.8-4.1,4.1-4.1h40c2.3,0,4.1,1.8,4.1,4.1v40
						C199.5,430,197.7,431.8,195.4,431.8z"/>
					<path class="st3" d="M247.8,431.8h-40c-2.3,0-4.1-1.8-4.1-4.1v-40c0-2.3,1.8-4.1,4.1-4.1h40c2.3,0,4.1,1.8,4.1,4.1v40
						C251.9,430,250.1,431.8,247.8,431.8z"/>
					<path class="st3" d="M300.1,431.8h-40c-2.3,0-4.1-1.8-4.1-4.1v-40c0-2.3,1.8-4.1,4.1-4.1h40c2.3,0,4.1,1.8,4.1,4.1v40
						C304.3,430,302.4,431.8,300.1,431.8z"/>
					<path class="st3" d="M352.5,431.8h-40c-2.3,0-4.1-1.8-4.1-4.1v-40c0-2.3,1.8-4.1,4.1-4.1h40c2.3,0,4.1,1.8,4.1,4.1v40
						C356.6,430,354.8,431.8,352.5,431.8z"/>
					<path class="st3" d="M404.9,431.8h-40c-2.3,0-4.1-1.8-4.1-4.1v-40c0-2.3,1.8-4.1,4.1-4.1h40c2.3,0,4.1,1.8,4.1,4.1v40
						C409,430,407.1,431.8,404.9,431.8z"/>
					<path class="st3" d="M457.2,431.8h-40c-2.3,0-4.1-1.8-4.1-4.1v-40c0-2.3,1.8-4.1,4.1-4.1h40c2.3,0,4.1,1.8,4.1,4.1v40
						C461.3,430,459.5,431.8,457.2,431.8z"/>
				</g>
			</g>
			<g>
				<g id="XMLID_6_">
					<line id="XMLID_9_" class="st3" x1="-54.6" y1="206.6" x2="-54.6" y2="-26.2"/>
					<rect id="XMLID_8_" x="-47.5" y="142.6" class="st4" width="8.3" height="48.2"/>
					<rect id="XMLID_7_" x="-70.1" y="142.6" class="st4" width="8.3" height="48.2"/>
				</g>
				<line id="XMLID_5_" class="st5" x1="-165.4" y1="206.6" x2="459.2" y2="206.6"/>
				<g id="XMLID_1_">
					<line id="XMLID_4_" class="st3" x1="317.5" y1="206.6" x2="317.5" y2="-26.2"/>
					<rect id="XMLID_3_" x="304" y="142.6" class="st4" width="8.3" height="48.2"/>
					<rect id="XMLID_2_" x="323.9" y="142.6" class="st4" width="8.3" height="48.2"/>
				</g>
			</g>
		</g>
		<g class="st2">
			<g>
				<path class="st6" d="M-157.2,514.3h-6c-0.9,0-1.6-0.7-1.6-1.6V502h9.1v10.7C-155.6,513.6-156.3,514.3-157.2,514.3z"/>
				<path class="st6" d="M-74.6,514.3h-6c-0.9,0-1.6-0.7-1.6-1.6V502h9.1v10.7C-73,513.6-73.7,514.3-74.6,514.3z"/>
				<g>
					<polygon class="st6" points="-67.9,498.6 -169.6,498.6 -132.9,456.1 -44.5,456.1 					"/>
					<rect x="-169.6" y="498.6" class="st6" width="101.2" height="8.3"/>
				</g>
				<polygon class="st6" points="-68.4,498.6 -44.5,456.1 -44.5,465 -68.4,506.9 				"/>
			</g>
			<g>
				<path class="st4" d="M-134.5,459.6v11.2c0,4,7.8,7.2,17.3,7.2c9.6,0,17.3-3.2,17.3-7.2v-11.2H-134.5z"/>
				<ellipse class="st6" cx="-117.2" cy="459.6" rx="17.3" ry="7.2"/>
				<ellipse class="st7" cx="-117.2" cy="459.6" rx="8.2" ry="3.4"/>
			</g>
			<g>
				<path class="st4" d="M-91.2,461.4v11.2c0,4,7.8,7.2,17.3,7.2s17.3-3.2,17.3-7.2v-11.2H-91.2z"/>
				<ellipse class="st6" cx="-73.9" cy="461.4" rx="17.3" ry="7.2"/>
				<ellipse class="st7" cx="-73.9" cy="461.4" rx="8.2" ry="3.4"/>
			</g>
			<g>
				<path class="st4" d="M-120.7,475v11.2c0,4,7.8,7.2,17.3,7.2c9.6,0,17.3-3.2,17.3-7.2V475H-120.7z"/>
				<ellipse class="st6" cx="-103.4" cy="475" rx="17.3" ry="7.2"/>
				<path class="st7" d="M-95.2,475c0,1.9-3.7,3.4-8.2,3.4s-8.2-1.5-8.2-3.4s3.7-3.4,8.2-3.4S-95.2,473.1-95.2,475z"/>
			</g>
		</g>
		<g class="st2">
			<g>
				<polygon class="st6" points="285.1,503.2 -10.9,503.2 3.9,460.7 270.3,460.7 				"/>
				<rect x="-10.9" y="503.2" class="st6" width="295.5" height="8.3"/>
			</g>
			<g>
				<path class="st4" d="M125.4,457c-1.9-0.9-4.1-1.3-6.2-1.3H37.7c-5.3,0-10.2,2.5-13.4,6.7c-2.2,2.9-3.5,6.5-3.5,10.2v9.2
					c0,1.8,1.4,3.2,3.2,3.2h101.4V457z"/>
				<path class="st6" d="M125.4,470.6c0,7.9-0.7,14.3-1.7,14.3s-1.7-6.4-1.7-14.3c0-7.9,0.7-14.3,1.7-14.3S125.4,462.7,125.4,470.6z
					"/>
				<g>
					<path class="st8" d="M78.5,455.7h-3.2c-1.2,9.6-1.4,20.7-1.2,29.3h3.2C77.2,476.4,77.3,465.1,78.5,455.7z"/>
					<path class="st8" d="M50.1,485v-17.1c0-4.1,1.6-9.1,2.8-12.3h-3.4c-1.2,3.4-2.6,8.1-2.6,12.3V485H50.1z"/>
					<rect x="102.8" y="455.7" class="st8" width="3.2" height="29.3"/>
				</g>
			</g>
		</g>
		<g class="st2">
			<path class="st6" d="M330.4,523.2v9.6l61.7,3.1c5,0.2,9.2-3.7,9.2-8.8v-1.7c0-5.2-4.5-9.3-9.7-8.7L330.4,523.2z"/>
			<path class="st4" d="M333.5,520.7l1.5,25.1c0,0-88-1-150.9-18.1L333.5,520.7z"/>
			<path class="st6" d="M206.4,526.6l-22.3,1.1C247,544.8,335,545.8,335,545.8l-0.8-13.9C282,536.2,229.6,530,206.4,526.6z"/>
		</g>
		<g class="st2">
			<path class="st9" d="M384.8,498.1c0,3.5-9.4,6.3-21.1,6.3c-11.6,0-21.1-2.8-21.1-6.3c0-3.5,9.4-6.3,21.1-6.3
				C375.4,491.8,384.8,494.6,384.8,498.1z"/>
			<path class="st9" d="M327.4,471.7c0,0-0.3,8.4,10.6,20.4c5.9,5.6,15.1,8.5,25.1,8.5c10.8,0,20.3-2.3,24.5-7.2
				c0,0,5.2-4,12.6-21.8H327.4z"/>
			<ellipse class="st9" cx="363.7" cy="471.7" rx="36.4" ry="10.9"/>
		</g>
		<g class="st2">
			<path class="st9" d="M-94.9,554.5c0,3.5-9.4,6.3-21.1,6.3c-11.6,0-21.1-2.8-21.1-6.3c0-3.5,9.4-6.3,21.1-6.3
				C-104.3,548.2-94.9,551-94.9,554.5z"/>
			<path class="st9" d="M-152.3,528.1c0,0-0.3,8.4,10.6,20.4c5.9,5.6,15.1,8.5,25.1,8.5c10.8,0,20.3-2.3,24.5-7.2
				c0,0,5.2-4,12.6-21.8H-152.3z"/>
			<ellipse class="st9" cx="-115.9" cy="528.1" rx="36.4" ry="10.9"/>
		</g>
		<g class="st2">
			<ellipse class="st6" cx="132.9" cy="610.8" rx="132" ry="69"/>
			<ellipse class="st6" cx="132.9" cy="606.9" rx="149.3" ry="69"/>
			<ellipse class="st6" cx="132.9" cy="603" rx="149.3" ry="69"/>
			<ellipse class="st10" cx="132.9" cy="603" rx="112.8" ry="52.2"/>
			<g>
				<path class="st6" d="M176.1,594c0,0,25.1-23.2,62.8-24.1c37.7-1,40.6,21.2,37.7,27c-2.9,5.8-17.4,2.9-33.8,6.8
					c-16.4,3.9-58.2,9.2-65.3,3.7C170.3,601.7,173.2,597.9,176.1,594z"/>
				<path class="st3" d="M217.4,584.9c0,0,10.9,3.6,15.4,13.6"/>
				<path class="st3" d="M232.4,583.1c0,0,9.1,3.6,13.6,12.2"/>
				<path class="st3" d="M248.2,579.5c0,0,8.6,2.7,15.9,15.4"/>
				<path class="st3" d="M185.7,594c0,0,30.8-19,59.4-17.7"/>
			</g>
			<g>
				<path class="st6" d="M176.5,572.9c4.2,2.5,9.5,2.1,13.6-0.5c5.4-3.4,15.7-8.4,31.3-10.3c24.1-2.9,21.2-14.5,8.7-19.3
					c-12.6-4.8-37.7-3.9-47.3,6.8C175,558.1,167.9,567.9,176.5,572.9z"/>
				<path class="st3" d="M182.5,565c0,0,10-19.5,32.6-19.5"/>
				<path class="st3" d="M193.8,552.7c0,0,9.5,0.9,17.2,6.3"/>
				<path class="st3" d="M214.7,548.2c0,0,7.7,1.8,13.1,6.8"/>
				<path class="st3" d="M188,559.5c0,0,8.2,2.3,10,4.5"/>
			</g>
			<g>
				<path class="st6" d="M156.7,560.2c0,0,2.9-13.5-6.8-23.2c-9.7-9.7-35.7-8.7-40.6-1c-4.8,7.7,18.3,11.6,18.3,22.2
					c0,10.6,10.6,20.3,20.3,16.4C157.7,570.8,156.7,560.2,156.7,560.2z"/>
				<path class="st3" d="M135.8,535.5c0,0-9.1-0.9-17.7,4.1"/>
				<path class="st3" d="M139.9,543.7c0,0-10-0.9-15.9,1.8"/>
				<path class="st3" d="M141.7,551.8c0,0-7.7,0.9-10.4,2.7"/>
			</g>
			<g>
				<path class="st6" d="M110.2,572.9c-4.2,2.5-9.5,2.1-13.6-0.5c-5.4-3.4-15.7-8.4-31.3-10.3c-24.1-2.9-21.2-14.5-8.7-19.3
					c12.6-4.8,37.7-3.9,47.3,6.8C111.6,558.1,118.8,567.9,110.2,572.9z"/>
				<path class="st3" d="M68.8,548.2c0,0,13.6-4.5,21.8-3.2"/>
				<path class="st3" d="M84.6,550.9c0,0,7.2-2.7,14.5,0"/>
				<path class="st3" d="M91.4,558.6c1.4,0,7.7-1.8,13.6,0"/>
			</g>
			<g>
				<path class="st6" d="M-8.4,589.2c0,0,25.1-23.2,62.8-24.1c37.7-1,40.6,21.2,37.7,27c-2.9,5.8-17.4,2.9-33.8,6.8
					c-16.4,3.9-58.2,9.2-65.3,3.7S-11.3,593-8.4,589.2z"/>
				<path class="st3" d="M0.4,593.5c0,0,0.5-7.3,14-15.4"/>
				<path class="st3" d="M16.2,588.1c0,0,1.8-6.8,13.6-15.4"/>
				<path class="st3" d="M33,583.5c0,0,3.1-10.5,12.2-14.5"/>
				<path class="st3" d="M57,568.6c0,0-5.4,4.5-6.8,8.6"/>
			</g>
			<g>
				<ellipse class="st6" cx="142" cy="582.9" rx="36.7" ry="19.8"/>
				<ellipse class="st6" cx="142" cy="577.7" rx="39.6" ry="19.8"/>
				<ellipse class="st4" cx="142" cy="582" rx="31.6" ry="15.5"/>
			</g>
			<g>
				<path class="st4" d="M49.2,586.8v17c0,6,9.9,10.9,22.1,10.9s22.1-4.9,22.1-10.9v-17H49.2z"/>
				<ellipse class="st6" cx="71.3" cy="586.8" rx="22.1" ry="10.9"/>
				<ellipse class="st7" cx="71.3" cy="586.8" rx="10.5" ry="5.2"/>
			</g>
			<g>
				<path class="st4" d="M14.9,604v17c0,6,9.9,10.9,22.1,10.9c12.2,0,22.1-4.9,22.1-10.9v-17H14.9z"/>
				<ellipse class="st6" cx="37.1" cy="604" rx="22.1" ry="10.9"/>
				<path class="st7" d="M47.6,604c0,2.9-4.7,5.2-10.5,5.2s-10.5-2.3-10.5-5.2c0-2.9,4.7-5.2,10.5-5.2S47.6,601.2,47.6,604z"/>
			</g>
			<g>
				<path class="st4" d="M87.2,606.3v17c0,6,9.9,10.9,22.1,10.9c12.2,0,22.1-4.9,22.1-10.9v-17H87.2z"/>
				<ellipse class="st6" cx="109.4" cy="606.3" rx="22.1" ry="10.9"/>
				<path class="st7" d="M119.9,606.3c0,2.9-4.7,5.2-10.5,5.2c-5.8,0-10.5-2.3-10.5-5.2c0-2.9,4.7-5.2,10.5-5.2
					C115.2,601.1,119.9,603.4,119.9,606.3z"/>
			</g>
			<g>
				<path class="st4" d="M177.4,607.3v17c0,6,9.9,10.9,22.1,10.9c12.2,0,22.1-4.9,22.1-10.9v-17H177.4z"/>
				<path class="st6" d="M221.7,607.3c0,6-9.9,10.9-22.1,10.9c-12.2,0-22.1-4.9-22.1-10.9c0-6,9.9-10.9,22.1-10.9
					C211.8,596.4,221.7,601.3,221.7,607.3z"/>
				<path class="st7" d="M210.1,607.3c0,2.9-4.7,5.2-10.5,5.2c-5.8,0-10.5-2.3-10.5-5.2c0-2.9,4.7-5.2,10.5-5.2
					C205.3,602.1,210.1,604.4,210.1,607.3z"/>
			</g>
			<g>
				<path class="st4" d="M53.2,622.3v17c0,6,9.9,10.9,22.1,10.9c12.2,0,22.1-4.9,22.1-10.9v-17H53.2z"/>
				<ellipse class="st6" cx="75.4" cy="622.3" rx="22.1" ry="10.9"/>
				<ellipse class="st7" cx="75.4" cy="622.3" rx="10.5" ry="5.2"/>
			</g>
			<g>
				<path class="st4" d="M133.9,616.5v17c0,6,9.9,10.9,22.1,10.9c12.2,0,22.1-4.9,22.1-10.9v-17H133.9z"/>
				<ellipse class="st6" cx="156" cy="616.5" rx="22.1" ry="10.9"/>
				<ellipse class="st7" cx="156" cy="616.5" rx="10.5" ry="5.2"/>
			</g>
			<g>
				<path class="st4" d="M102.8,633.1v17c0,6,9.9,10.9,22.1,10.9s22.1-4.9,22.1-10.9v-17H102.8z"/>
				<ellipse class="st6" cx="125" cy="633.1" rx="22.1" ry="10.9"/>
				<ellipse class="st7" cx="125" cy="633.1" rx="10.5" ry="5.2"/>
			</g>
		</g>
		<line class="st11" x1="507.5" y1="450.9" x2="-221.7" y2="450.9"/>
		<g class="st2">
			<g>
				<path class="st4" d="M143.5,184.7c0,0-43.2,13.3-72.5,21.3c-29.3,8-41.6,24-45.3,29.8c-3.7,5.9-43.2,79.4-43.2,79.4l68.7,41.6
					l-17.1,92.7h221.2l9.5-106.5l5.5,23.6l84-1.7c0,0-13.3-78.3-22.9-103.9c-9.6-25.6-26.6-33.6-50.6-44.2
					c-24-10.7-83.2-30.9-93.3-33.1C177.6,181.5,143.5,184.7,143.5,184.7z"/>
				<line class="st12" x1="44.9" y1="352.1" x2="68.9" y2="297.2"/>
				<line class="st12" x1="264.9" y1="343" x2="257.1" y2="317.8"/>
				<polygon class="st6" points="148.7,242.3 180.6,310.2 201.8,248.7 				"/>
				<path class="st7" d="M163.2,249.8l21.7,57.7l-28.1,50c0,0-4.3-39.8-13.5-74c-9.2-34.1-8.2-82.3-6.2-100L163.2,249.8z"/>
				<path class="st7" d="M193,248.1c0,0-54.8,150.1-111.2,202.3h42.6c0,0,60.6-90.4,84.6-142.6c24-52.2,26.6-102.3,26.6-102.3
					L193,248.1z"/>
			</g>
			<g>
				<path class="st6" d="M138.3,160.1c0,0-3.6-8.3-9.9-4c-6.3,4.3-3.2,22.1,0,30c3.2,7.9,11.1,8.7,11.1,4
					C139.5,185.4,138.3,160.1,138.3,160.1z"/>
				<path class="st6" d="M244.4,169.7c0,0,4.6-7.8,10.3-2.6s0.3,22.3-3.9,29.8c-4.2,7.4-12.1,7.2-11.5,2.5
					C239.9,194.6,244.4,169.7,244.4,169.7z"/>
				<g>
					<path class="st4" d="M144.6,133.6c0,0-1.9,68-1.9,82.6c0,14.6,4.5,37.1,23.9,48.6c19.5,11.5,36.7,0.4,45.6-11.5
						c8.9-11.9,23.6-70.3,23.6-86.1c0-15.8-1.9-45-20.4-58.9c-14.6-10.9-45.6-11.9-58.7,4C146.8,124.2,144.6,133.6,144.6,133.6z"/>
					<path class="st6" d="M137.1,123.4c0,0-2.4,68-2.4,82.6c0,14.6,5.5,37.1,29.6,48.6c24.1,11.5,45.4,0.4,56.5-11.5
						c11.1-11.9,29.2-70.3,29.2-86.1c0-15.8-2.4-45-25.3-58.9c-18-10.9-56.5-11.9-72.7,4C139.8,114,137.1,123.4,137.1,123.4z"/>
					<path class="st3" d="M202.7,199.6c0,0,12.6-7.5,24.5-2"/>
					<path class="st3" d="M151.3,186.2c14.2-1.2,20.5,10.3,20.5,10.3"/>
					<path class="st13" d="M179.4,181.8c0,0-13-8.7-27.3-4.3"/>
					<path class="st13" d="M199.1,184.6c0,0,13-9.1,32,1.2"/>
					<path class="st3" d="M206.2,201.6c0,0,5.1,2,12.2,0"/>
					<path class="st3" d="M169.9,198.8c0,0-7.1,0-13.8-5.9"/>
					<path class="st3" d="M203.9,196.5c0,0,3.2-6.3,14.2-5.5"/>
					<path class="st3" d="M173.5,193.7c0,0-2-8.3-8.3-9.5"/>
					<path class="st3" d="M175,216.2c0,0-1.2,2.8,1.6,5.5c2.8,2.8,9.5,8.3,12.2,6.3c2.8-2,4.3-1.2,7.5-5.1c3.2-4,2.4-7.5,2.4-7.5"/>
					<path class="st3" d="M154.5,222.1c0,0,15,11.1,27.7,13c12.6,2,31.2-8.3,31.2-8.3"/>
					<path class="st3" d="M159.6,220.6c0,0-7.9,0.8-7.9,2.8"/>
					<path class="st3" d="M209.8,225.3c0,0,5.1,1.2,5.1,5.1"/>
				</g>
				<path class="st7" d="M137.9,122.2c0,0,14.2,17.4,55.3,19.4c41.1,2,54.1-9.5,54.1-9.5l-1.2-5.1c0,0,0.8-2.4,3.2,0.8
					c2.4,3.2,4,22.5,5.1,27.7c1.2,5.1-4.3,9.9-7.5,11.1c-3.2,1.2-32,12.6-66.4,5.9c-24.7-4.8-46.6-16.6-48.6-19
					c-2-2.4-0.8-20.5-0.8-26.1s7.1-11.5,9.9-11.9L137.9,122.2z"/>
				<path class="st7" d="M251.8,144.2c0,0-18.6-4.3-24.5,0c-5.9,4.3,0,25.7,4,24.5C235.2,167.5,243.5,167.1,251.8,144.2z"/>
				<path class="st7" d="M251.8,144.2c0,0,2-15,4.3-23.3c2.4-8.3,7.9,5.9,7.9,19.8C264,154.4,251.8,144.2,251.8,144.2z"/>
				<polygon class="st7" points="247.2,143 249,152.5 255.4,145.7 253.1,138.5 				"/>
			</g>
			<path class="st7" d="M266.9,369.3c0,0,2.8-15.2,10.4-24c7.6-8.8,40.7-8.8,55.6-6.3c14.8,2.5,26.2,19.9,23.7,34.1
				c-2.5,14.2-10.7,29.7-14.5,36c-3.8,6.3-12.3,7.9-25.6,0.9C303.2,403.1,266.9,369.3,266.9,369.3z"/>
			<g>
				<path class="st6" d="M197.8,424.5c0,0,71.9-1.1,97-1.1s44.2-12.3,44.2-25c0-12.8-30.4-35.2-48-37.3
					c-17.6-2.1-48.5,18.6-74.1,26.1s-32.5,3.2-37.8,3.2c-5.3,0-14.4-1.1-22.9,2.1c-8.5,3.2-17.1,17.1-20.8,22.9
					c-3.7,5.9-14.4,13.3-12.8,18.6c1.6,5.3,23.4,13.3,33.6,13.3c10.1,0,18.6-5.3,18.6-5.3s-7.5,14.9,1.6,11.2
					c9.1-3.7,12.3-14.4,16-19.2C194.8,431.1,197.8,424.5,197.8,424.5z"/>
				<g>
					<path class="st4" d="M130.2,408.3v11.2c0,4,7.8,7.2,17.3,7.2s17.3-3.2,17.3-7.2v-11.2H130.2z"/>
					<ellipse class="st6" cx="147.5" cy="408.3" rx="17.3" ry="7.2"/>
					<path class="st14" d="M155.7,408.3c0,1.9-3.7,3.4-8.2,3.4c-4.5,0-8.2-1.5-8.2-3.4s3.7-3.4,8.2-3.4
						C152,404.9,155.7,406.4,155.7,408.3z"/>
				</g>
				<path class="st3" d="M197.8,424.5c0,0,1.1-8.5,0-14.9c-1.1-6.4-4.8-10.7-4.8-10.7"/>
				<path class="st3" d="M173.5,403.4c0,0-6,7.3-3.5,13.3c2.5,6,8.5,15.8,8.2,18c-0.3,2.2-3.3,7.5-3.3,7.5"/>
				<path class="st6" d="M129.9,443.5c0,0-12.9-9.2-12.9-13.9c0-4.7,7.9-21.8,10.7-17c2.8,4.7,0.3,10.7-0.3,13.6
					c-0.6,2.8,2.8,7.3,2.8,7.3"/>
				<path class="st6" d="M146.3,447.6c0,0-10.4,1.6-14.8,0c-4.4-1.6-6.9-23.7-4.7-27.5c2.2-3.8,5.4,0.3,6.3,4.4
					c0.9,4.1,4.7,14.8,7.6,17"/>
				<path class="st6" d="M146.6,436.5c0,0-12-13.9-14.8-7.9c-2.8,6,10.1,17.7,15.5,20.5c5.4,2.8,11.4-1.6,11.4-1.6"/>
				<path class="st6" d="M165.3,442.2c0,0-15.5-20.5-19.9-14.5c-4.4,6,8.2,19.9,13.6,22.1c5.4,2.2,13.9-7.6,13.9-7.6"/>
			</g>
			<g>
				<path class="st6" d="M143.9,361.4c0,0,16,11.6,17.6,14c1.6,2.4,1.6,23.2,1.6,26.8c0,3.6-5.6,6-8.4,4.4
					c-2.8-1.6-4.8-17.6-5.2-22.4c-0.4-4.8-7.6-17.2-7.6-17.2S140.3,360.2,143.9,361.4z"/>
				<path class="st7" d="M-47.2,367.8c0,0-6.4,0-7.2-8c-0.8-8,13.2-42.4,18.4-48.8c5.2-6.4,37.6-5.6,51.2-0.4
					C28.8,315.8,35.6,323,40,331c4.4,8,4.7,14.1,4.8,17.6c0.1,3.5-13.6,14.4-36.8,13.6S-47.2,367.8-47.2,367.8z"/>
				<path class="st6" d="M18.8,333.4c0,0,65.9,15.6,83.9,15.6c18,0,34.4,1.2,37.2,4c2.8,2.8,10.4,19.6,12,24
					c1.6,4.4-0.4,31.6-2,34.8c-1.6,3.2-8.4,0.8-8.4,0.8l-1.2-5.2c0,0-1.6,5.6-9.2,2.8c0,0-5.2,4.4-7.6,4.4c-2.4,0-3.6,0-3.6,0
					s-0.8,3.2-6.4,3.2s-15.6-4.4-19.2-10.4c-3.6-6-20.4-26.8-21.6-26.4c-1.2,0.4-40.8,8.4-63.1,8.4s-51.2-4.8-58.7-17.6
					c-7.6-12.8,8-32.8,21.6-40.4C-14,323.8,18.8,333.4,18.8,333.4z"/>
				<path class="st3" d="M127.5,367.8c0,0,9.6,13.2,11.2,18.4c1.6,5.2,1.6,21.2,1.6,21.2"/>
				<path class="st3" d="M111.1,379.8c0,0,5.6,9.6,10,16.8c4.4,7.2,10,13.6,10,13.6"/>
				<path class="st3" d="M95.5,390.1c0,0,7.6,9.2,12.8,14c5.2,4.8,11.6,10.4,11.6,10.4"/>
			</g>
		</g>
		<g class="st2">
			<g>
				<path class="st6" d="M473.2,425.1c-31.3,18-53.2,0-53.2,0l-2.6,23.6c-1.6,14.1-1.5,28.4,0.2,42.4l0,0
					c1.4,11,10.7,19.3,21.9,19.3h13.8c11.4,0,21-8.5,22.4-19.9v0c1.7-14.1,1.8-28.3,0.2-42.4L473.2,425.1z"/>
				<ellipse class="st4" cx="446.4" cy="425.4" rx="26.4" ry="9.6"/>
				<path class="st7" d="M435.9,429.5c-4.4-1.4-8.3-3.7-11.6-6.9c-2.2-2.1-5.1-4.5-8-6c-6.4-3.2-19.7-5.9-19.7-5.9
					s11.7-2.7,20.8-0.5c9,2.1,15.4,11.2,15.4,11.2s-2.7-3.7-6.4-14.9c-3.7-11.2-3.7-35.1-3.7-35.1s9,10.1,13.3,22.4
					c4.3,12.2,5.3,22.9,5.3,22.9s-1.1-18.6,2.1-29.3c3.2-10.6,12.2-24,12.2-24s0.5,23.4-3.2,36.2c-3.7,12.8-5.3,18.6-5.3,18.6
					s3.2-10.1,11.2-17.6c8-7.5,27.1-13.8,27.1-13.8s-9,16.5-14.9,21.8c-5.9,5.3-11.7,11.2-11.7,11.2s6.4-4.8,17.6-4.8
					c11.2,0,24.5,7.5,24.5,7.5s-28.5-0.2-38.9,4.7c-2.1,1-4.3,1.8-6.6,2.2l-5.8,1C445,431.2,440.3,430.9,435.9,429.5L435.9,429.5z"
					/>
				<g>
					<line class="st3" x1="435.8" y1="424.4" x2="429.2" y2="419.8"/>
					<line class="st3" x1="442.9" y1="427.9" x2="433.8" y2="403.7"/>
					<line class="st3" x1="442.9" y1="427.9" x2="447.9" y2="395.6"/>
					<line class="st3" x1="442.9" y1="427.9" x2="460" y2="406.7"/>
					<line class="st3" x1="446.4" y1="427.5" x2="464.5" y2="419.3"/>
				</g>
			</g>
			<path class="st15" d="M428.8,466.3c0,14.2-2.2,25.6-4.9,25.6c-2.7,0-4.9-11.5-4.9-25.6c0-14.2,2.2-25.6,4.9-25.6
				C426.6,440.7,428.8,452.1,428.8,466.3z"/>
			<ellipse class="st15" cx="446.2" cy="473.4" rx="10.9" ry="30.5"/>
			<ellipse class="st15" cx="467.5" cy="465.7" rx="3.8" ry="26.2"/>
		</g>
	</g>
</g>
</svg>
