<?xml version="1.0" encoding="utf-8"?>
<!-- Generator: Adobe Illustrator 25.2.0, SVG Export Plug-In . SVG Version: 6.00 Build 0)  -->
<svg version="1.1" id="Calque_1" xmlns="http://www.w3.org/2000/svg" xmlns:xlink="http://www.w3.org/1999/xlink" x="0px" y="0px"
	 viewBox="0 0 800 600" style="enable-background:new 0 0 800 600;" xml:space="preserve">
<style type="text/css">
	.st0{fill:#FFFFFF;stroke:#671CC9;stroke-width:5;stroke-miterlimit:10;}
	.st1{fill:none;stroke:#671CC9;stroke-width:5;stroke-miterlimit:10;}
	.st2{fill:#EFEFEF;}
	.st3{fill:#FFFFFF;stroke:#671CC9;stroke-width:5;stroke-linecap:round;stroke-linejoin:round;stroke-miterlimit:10;}
</style>
<path class="st0" d="M688.5,530h-577c-9.9,0-18-8.1-18-18V88c0-9.9,8.1-18,18-18h577c9.9,0,18,8.1,18,18v424
	C706.5,521.9,698.4,530,688.5,530z"/>
<line class="st1" x1="93.5" y1="128" x2="706.5" y2="128"/>
<g>
	<rect x="345" y="249.3" class="st2" width="31.6" height="19.7"/>
	<rect x="268.9" y="249.3" class="st2" width="31.6" height="19.7"/>
	<rect x="422.1" y="249.3" class="st2" width="31.6" height="19.7"/>
	<rect x="499.3" y="249.3" class="st2" width="31.6" height="19.7"/>
	<rect x="345" y="319.1" class="st2" width="31.6" height="19.7"/>
	<rect x="268.9" y="319.1" class="st2" width="31.6" height="19.7"/>
	<rect x="422.1" y="319.1" class="st2" width="31.6" height="19.7"/>
	<rect x="499.3" y="319.1" class="st2" width="31.6" height="19.7"/>
	<rect x="345" y="388.4" class="st2" width="31.6" height="19.7"/>
	<rect x="268.9" y="388.4" class="st2" width="31.6" height="19.7"/>
	<rect x="422.1" y="388.4" class="st2" width="31.6" height="19.7"/>
	<rect x="499.3" y="388.4" class="st2" width="31.6" height="19.7"/>
	<rect x="574.4" y="249.3" class="st2" width="31.6" height="19.7"/>
	<rect x="574.4" y="319.1" class="st2" width="31.6" height="19.7"/>
	<rect x="574.4" y="388.4" class="st2" width="31.6" height="19.7"/>
	<rect x="194" y="249.3" class="st2" width="31.6" height="19.7"/>
	<rect x="345" y="188.5" class="st2" width="31.6" height="19.7"/>
	<rect x="268.9" y="188.5" class="st2" width="31.6" height="19.7"/>
	<rect x="422.1" y="188.5" class="st2" width="31.6" height="19.7"/>
	<rect x="499.3" y="188.5" class="st2" width="31.6" height="19.7"/>
	<rect x="574.4" y="188.5" class="st2" width="31.6" height="19.7"/>
	<rect x="194" y="188.5" class="st2" width="31.6" height="19.7"/>
	<rect x="345" y="447.8" class="st2" width="31.6" height="19.7"/>
	<rect x="268.9" y="447.8" class="st2" width="31.6" height="19.7"/>
	<rect x="422.1" y="447.8" class="st2" width="31.6" height="19.7"/>
	<rect x="499.3" y="447.8" class="st2" width="31.6" height="19.7"/>
	<rect x="574.4" y="447.8" class="st2" width="31.6" height="19.7"/>
	<rect x="194" y="447.8" class="st2" width="31.6" height="19.7"/>
	<rect x="194" y="319.1" class="st2" width="31.6" height="19.7"/>
	<rect x="194" y="388.4" class="st2" width="31.6" height="19.7"/>
</g>
<polyline class="st3" points="128.2,107.3 118.9,98 128.2,88.8 "/>
<polyline class="st3" points="668.2,88.8 677.5,98 668.2,107.3 "/>
<circle class="st0" cx="438.1" cy="258" r="16"/>
</svg>
