<?xml version="1.0" encoding="utf-8"?>
<!-- Generator: Adobe Illustrator 19.0.0, SVG Export Plug-In . SVG Version: 6.00 Build 0)  -->
<svg version="1.1" id="Calque_1" xmlns="http://www.w3.org/2000/svg" xmlns:xlink="http://www.w3.org/1999/xlink" x="0px" y="0px"
	 viewBox="-599 686 800 600" style="enable-background:new -599 686 800 600;" xml:space="preserve">
<style type="text/css">
	.st0{fill:#FFFFFF;stroke:#7F00FF;stroke-width:5;stroke-miterlimit:10;}
</style>
<g>
	<path class="st0" d="M-336.9,924.6h-202c-4.7,0-8.5-3.8-8.5-8.5v-66.3c0-4.7,3.8-8.5,8.5-8.5h202c4.7,0,8.5,3.8,8.5,8.5v66.3
		C-328.4,920.8-332.2,924.6-336.9,924.6z"/>
	<path class="st0" d="M-98,924.6h-202c-4.7,0-8.5-3.8-8.5-8.5v-66.3c0-4.7,3.8-8.5,8.5-8.5h202c4.7,0,8.5,3.8,8.5,8.5v66.3
		C-89.5,920.8-93.3,924.6-98,924.6z"/>
	<path class="st0" d="M140.9,924.6h-202c-4.7,0-8.5-3.8-8.5-8.5v-66.3c0-4.7,3.8-8.5,8.5-8.5h202c4.7,0,8.5,3.8,8.5,8.5v66.3
		C149.4,920.8,145.6,924.6,140.9,924.6z"/>
	<path class="st0" d="M-336.9,1027.6h-202c-4.7,0-8.5-3.8-8.5-8.5v-66.3c0-4.7,3.8-8.5,8.5-8.5h202c4.7,0,8.5,3.8,8.5,8.5v66.3
		C-328.4,1023.8-332.2,1027.6-336.9,1027.6z"/>
	<path class="st0" d="M-98,1027.6h-202c-4.7,0-8.5-3.8-8.5-8.5v-66.3c0-4.7,3.8-8.5,8.5-8.5h202c4.7,0,8.5,3.8,8.5,8.5v66.3
		C-89.5,1023.8-93.3,1027.6-98,1027.6z"/>
	<path class="st0" d="M140.9,1027.6h-202c-4.7,0-8.5-3.8-8.5-8.5v-66.3c0-4.7,3.8-8.5,8.5-8.5h202c4.7,0,8.5,3.8,8.5,8.5v66.3
		C149.4,1023.8,145.6,1027.6,140.9,1027.6z"/>
	<path class="st0" d="M-336.9,1130.6h-202c-4.7,0-8.5-3.8-8.5-8.5v-66.3c0-4.7,3.8-8.5,8.5-8.5h202c4.7,0,8.5,3.8,8.5,8.5v66.3
		C-328.4,1126.8-332.2,1130.6-336.9,1130.6z"/>
	<path class="st0" d="M-98,1130.6h-202c-4.7,0-8.5-3.8-8.5-8.5v-66.3c0-4.7,3.8-8.5,8.5-8.5h202c4.7,0,8.5,3.8,8.5,8.5v66.3
		C-89.5,1126.8-93.3,1130.6-98,1130.6z"/>
	<path class="st0" d="M140.9,1130.6h-202c-4.7,0-8.5-3.8-8.5-8.5v-66.3c0-4.7,3.8-8.5,8.5-8.5h202c4.7,0,8.5,3.8,8.5,8.5v66.3
		C149.4,1126.8,145.6,1130.6,140.9,1130.6z"/>
</g>
</svg>
