<?xml version="1.0" encoding="utf-8"?>
<!-- Generator: Adobe Illustrator 23.0.1, SVG Export Plug-In . SVG Version: 6.00 Build 0)  -->
<svg version="1.1" id="Calque_1" xmlns="http://www.w3.org/2000/svg" xmlns:xlink="http://www.w3.org/1999/xlink" x="0px" y="0px"
	 viewBox="0 0 800 600" style="enable-background:new 0 0 800 600;" xml:space="preserve">
<style type="text/css">
	.st0{fill:#323236;stroke:#797BF2;stroke-width:5;stroke-miterlimit:10;}
	.st1{fill:#585868;}
	.st2{fill:#797BF2;}
</style>
<path class="st0" d="M381.5,289.9h-204c-4.7,0-8.5-3.8-8.5-8.5V115.8c0-4.7,3.8-8.5,8.5-8.5h204c4.7,0,8.5,3.8,8.5,8.5v165.6
	C390,286.1,386.2,289.9,381.5,289.9z"/>
<path class="st0" d="M622.5,289.9h-204c-4.7,0-8.5-3.8-8.5-8.5V115.8c0-4.7,3.8-8.5,8.5-8.5h204c4.7,0,8.5,3.8,8.5,8.5v165.6
	C631,286.1,627.2,289.9,622.5,289.9z"/>
<path class="st0" d="M381.5,492.7h-204c-4.7,0-8.5-3.8-8.5-8.5V318.6c0-4.7,3.8-8.5,8.5-8.5h204c4.7,0,8.5,3.8,8.5,8.5v165.6
	C390,488.9,386.2,492.7,381.5,492.7z"/>
<path class="st0" d="M622.5,492.7h-204c-4.7,0-8.5-3.8-8.5-8.5V318.6c0-4.7,3.8-8.5,8.5-8.5h204c4.7,0,8.5,3.8,8.5,8.5v165.6
	C631,488.9,627.2,492.7,622.5,492.7z"/>
<rect x="216.6" y="228.7" class="st1" width="125.7" height="17"/>
<rect x="457.6" y="228.7" class="st1" width="125.7" height="17"/>
<rect x="216.6" y="435.3" class="st1" width="125.7" height="17"/>
<rect x="457.6" y="435.3" class="st1" width="125.7" height="17"/>
<g>
	<path class="st2" d="M268.1,204.8h-8.8V171l-10.5,3.3v-7.1l18.3-6.6h0.9V204.8z"/>
	<path class="st2" d="M303,187.1c-2.3,2.2-5,3.4-8,3.4c-3.9,0-7-1.3-9.4-4c-2.4-2.7-3.5-6.3-3.5-10.9c0-2.9,0.6-5.6,1.9-8
		c1.3-2.4,3-4.3,5.3-5.7c2.3-1.3,4.8-2,7.7-2c2.9,0,5.5,0.7,7.8,2.2c2.3,1.5,4,3.6,5.3,6.3c1.3,2.7,1.9,5.9,1.9,9.4v3.3
		c0,7.4-1.8,13.2-5.5,17.4c-3.7,4.2-8.9,6.5-15.6,6.7l-2.2,0v-7.3l1.9,0C298.3,197.5,302.4,194,303,187.1z M297.2,183.8
		c1.4,0,2.6-0.4,3.7-1.1c1-0.7,1.8-1.6,2.3-2.6v-3.6c0-3-0.6-5.3-1.7-6.9s-2.7-2.5-4.6-2.5c-1.8,0-3.2,0.8-4.3,2.4
		c-1.1,1.6-1.7,3.6-1.7,6.1c0,2.4,0.6,4.4,1.7,5.9C293.6,183,295.2,183.8,297.2,183.8z"/>
</g>
<g>
	<path class="st2" d="M518.1,204.8h-30.3v-6l14.3-15.3c2-2.1,3.4-4,4.4-5.6c0.9-1.6,1.4-3.1,1.4-4.6c0-2-0.5-3.5-1.5-4.6
		s-2.4-1.7-4.3-1.7c-2,0-3.5,0.7-4.7,2.1s-1.7,3.2-1.7,5.4h-8.8c0-2.7,0.6-5.2,1.9-7.4c1.3-2.2,3.1-4,5.5-5.2c2.3-1.3,5-1.9,8-1.9
		c4.6,0,8.1,1.1,10.6,3.3c2.5,2.2,3.8,5.3,3.8,9.3c0,2.2-0.6,4.4-1.7,6.7c-1.1,2.3-3.1,4.9-5.8,7.9l-10.1,10.6h19V204.8z"/>
	<path class="st2" d="M553.3,186.5c0,6.1-1.3,10.8-3.8,14c-2.5,3.2-6.2,4.9-11.1,4.9c-4.8,0-8.5-1.6-11.1-4.8
		c-2.6-3.2-3.9-7.7-3.9-13.7v-8.1c0-6.2,1.3-10.9,3.8-14.1c2.6-3.2,6.3-4.8,11.1-4.8s8.5,1.6,11.1,4.8c2.6,3.2,3.9,7.7,3.9,13.7
		V186.5z M544.5,177.6c0-3.7-0.5-6.3-1.5-8c-1-1.7-2.6-2.5-4.7-2.5c-2.1,0-3.6,0.8-4.6,2.4c-1,1.6-1.5,4.1-1.6,7.5v10.8
		c0,3.6,0.5,6.3,1.5,8s2.6,2.6,4.7,2.6c2.1,0,3.7-0.8,4.6-2.5s1.4-4.3,1.5-7.7V177.6z"/>
</g>
<g>
	<path class="st2" d="M518.1,413.3h-30.3v-6l14.3-15.3c2-2.1,3.4-4,4.4-5.6c0.9-1.6,1.4-3.1,1.4-4.6c0-2-0.5-3.5-1.5-4.6
		s-2.4-1.7-4.3-1.7c-2,0-3.5,0.7-4.7,2.1s-1.7,3.2-1.7,5.4h-8.8c0-2.7,0.6-5.2,1.9-7.4c1.3-2.2,3.1-4,5.5-5.2c2.3-1.3,5-1.9,8-1.9
		c4.6,0,8.1,1.1,10.6,3.3s3.8,5.3,3.8,9.3c0,2.2-0.6,4.4-1.7,6.7c-1.1,2.3-3.1,4.9-5.8,7.9l-10.1,10.6h19V413.3z"/>
	<path class="st2" d="M553.8,413.3h-30.3v-6l14.3-15.3c2-2.1,3.4-4,4.4-5.6c0.9-1.6,1.4-3.1,1.4-4.6c0-2-0.5-3.5-1.5-4.6
		c-1-1.1-2.4-1.7-4.3-1.7c-2,0-3.5,0.7-4.7,2.1c-1.1,1.4-1.7,3.2-1.7,5.4h-8.8c0-2.7,0.6-5.2,1.9-7.4c1.3-2.2,3.1-4,5.5-5.2
		c2.3-1.3,5-1.9,8-1.9c4.6,0,8.1,1.1,10.6,3.3s3.8,5.3,3.8,9.3c0,2.2-0.6,4.4-1.7,6.7c-1.1,2.3-3.1,4.9-5.8,7.9l-10.1,10.6h19V413.3
		z"/>
</g>
<g>
	<path class="st2" d="M277.1,413.3h-30.3v-6l14.3-15.3c2-2.1,3.4-4,4.4-5.6c0.9-1.6,1.4-3.1,1.4-4.6c0-2-0.5-3.5-1.5-4.6
		c-1-1.1-2.4-1.7-4.3-1.7c-2,0-3.5,0.7-4.7,2.1c-1.1,1.4-1.7,3.2-1.7,5.4h-8.8c0-2.7,0.6-5.2,1.9-7.4c1.3-2.2,3.1-4,5.5-5.2
		c2.3-1.3,5-1.9,8-1.9c4.6,0,8.1,1.1,10.6,3.3s3.8,5.3,3.8,9.3c0,2.2-0.6,4.4-1.7,6.7s-3.1,4.9-5.8,7.9l-10.1,10.6h19V413.3z"/>
	<path class="st2" d="M303.8,413.3h-8.8v-33.8l-10.5,3.3v-7.1l18.3-6.6h0.9V413.3z"/>
</g>
</svg>
