<?xml version="1.0" encoding="utf-8"?>
<!-- Generator: Adobe Illustrator 23.0.1, SVG Export Plug-In . SVG Version: 6.00 Build 0)  -->
<svg version="1.1" id="Calque_1" xmlns="http://www.w3.org/2000/svg" xmlns:xlink="http://www.w3.org/1999/xlink" x="0px" y="0px"
	 viewBox="0 0 800 600" style="enable-background:new 0 0 800 600;" xml:space="preserve">
<style type="text/css">
	.st0{fill:#FFFFFF;stroke:#671CC9;stroke-width:5;stroke-miterlimit:10;}
	.st1{fill:#EFEFEF;}
</style>
<g>
	<path class="st0" d="M716.9,191.1H83.1c-5.9,0-10.8-4.8-10.8-10.8v-56.7c0-5.9,4.8-10.8,10.8-10.8h633.8c5.9,0,10.8,4.8,10.8,10.8
		v56.7C727.7,186.3,722.9,191.1,716.9,191.1z"/>
	<rect id="XMLID_17_" x="192.9" y="140.7" class="st1" width="104.6" height="22.6"/>
	<rect id="XMLID_16_" x="321.9" y="140.7" class="st1" width="171.6" height="22.6"/>
	<rect id="XMLID_15_" x="517.9" y="140.7" class="st1" width="171.6" height="22.6"/>
	<circle class="st1" cx="118.8" cy="152" r="25.3"/>
	<path class="st0" d="M716.9,289.8H83.1c-5.9,0-10.8-4.8-10.8-10.8v-56.7c0-5.9,4.8-10.8,10.8-10.8h633.8c5.9,0,10.8,4.8,10.8,10.8
		V279C727.7,285,722.9,289.8,716.9,289.8z"/>
	<rect id="XMLID_6_" x="192.9" y="239.4" class="st1" width="104.6" height="22.6"/>
	<rect id="XMLID_4_" x="321.9" y="239.4" class="st1" width="171.6" height="22.6"/>
	<rect id="XMLID_3_" x="517.9" y="239.4" class="st1" width="171.6" height="22.6"/>
	<circle class="st1" cx="118.8" cy="250.7" r="25.3"/>
	<path class="st0" d="M716.9,388.4H83.1c-5.9,0-10.8-4.8-10.8-10.8V321c0-5.9,4.8-10.8,10.8-10.8h633.8c5.9,0,10.8,4.8,10.8,10.8
		v56.7C727.7,383.6,722.9,388.4,716.9,388.4z"/>
	<rect id="XMLID_9_" x="192.9" y="338" class="st1" width="104.6" height="22.6"/>
	<rect id="XMLID_8_" x="321.9" y="338" class="st1" width="171.6" height="22.6"/>
	<rect id="XMLID_7_" x="517.9" y="338" class="st1" width="171.6" height="22.6"/>
	<circle class="st1" cx="118.8" cy="349.3" r="25.3"/>
	<path class="st0" d="M716.9,487.1H83.1c-5.9,0-10.8-4.8-10.8-10.8v-56.7c0-5.9,4.8-10.8,10.8-10.8h633.8c5.9,0,10.8,4.8,10.8,10.8
		v56.7C727.7,482.3,722.9,487.1,716.9,487.1z"/>
	<rect id="XMLID_21_" x="192.9" y="436.7" class="st1" width="104.6" height="22.6"/>
	<rect id="XMLID_11_" x="321.9" y="436.7" class="st1" width="171.6" height="22.6"/>
	<rect id="XMLID_10_" x="517.9" y="436.7" class="st1" width="171.6" height="22.6"/>
	<circle class="st1" cx="118.8" cy="448" r="25.3"/>
</g>
</svg>
