<?xml version="1.0" encoding="utf-8"?>
<!-- Generator: Adobe Illustrator 23.0.1, SVG Export Plug-In . SVG Version: 6.00 Build 0)  -->
<svg version="1.1" id="Calque_1" xmlns="http://www.w3.org/2000/svg" xmlns:xlink="http://www.w3.org/1999/xlink" x="0px" y="0px"
	 viewBox="0 0 800 600" style="enable-background:new 0 0 800 600;" xml:space="preserve">
<style type="text/css">
	.st0{fill:#FFFFFF;stroke:#671CC9;stroke-width:5;stroke-miterlimit:10;}
	.st1{fill:#671CC9;}
</style>
<path class="st0" d="M667.7,351.9H134.1c-28.7,0-52-23.3-52-52l0,0c0-28.7,23.3-52,52-52h533.6c28.7,0,52,23.3,52,52l0,0
	C719.6,328.8,696.4,351.9,667.7,351.9z"/>
<g>
	<path class="st1" d="M156.3,299.1c-2.8-0.8-4.9-1.8-6.2-3c-1.3-1.2-1.9-2.7-1.9-4.4c0-2,0.8-3.6,2.4-4.9c1.6-1.3,3.6-1.9,6.2-1.9
		c1.7,0,3.3,0.3,4.6,1c1.4,0.7,2.4,1.6,3.1,2.8s1.1,2.5,1.1,3.9h-3.3c0-1.5-0.5-2.7-1.5-3.6c-1-0.9-2.3-1.3-4.1-1.3
		c-1.6,0-2.9,0.4-3.8,1.1c-0.9,0.7-1.4,1.7-1.4,3c0,1,0.4,1.9,1.3,2.6c0.9,0.7,2.4,1.4,4.4,2c2.1,0.6,3.7,1.2,4.9,1.9
		s2.1,1.5,2.6,2.5c0.6,0.9,0.9,2.1,0.9,3.3c0,2-0.8,3.7-2.4,4.9s-3.7,1.8-6.4,1.8c-1.7,0-3.3-0.3-4.8-1c-1.5-0.7-2.7-1.6-3.5-2.7
		c-0.8-1.2-1.2-2.5-1.2-3.9h3.3c0,1.5,0.6,2.7,1.7,3.6c1.1,0.9,2.6,1.3,4.5,1.3c1.8,0,3.1-0.4,4-1.1c0.9-0.7,1.4-1.7,1.4-2.9
		s-0.4-2.2-1.3-2.9C160.2,300.5,158.6,299.8,156.3,299.1z"/>
	<path class="st1" d="M177.2,310.7c-2.5,0-4.6-0.8-6.2-2.5s-2.4-3.9-2.4-6.7v-0.6c0-1.9,0.4-3.5,1.1-5c0.7-1.5,1.7-2.6,3-3.4
		c1.3-0.8,2.7-1.2,4.1-1.2c2.4,0,4.3,0.8,5.7,2.4c1.4,1.6,2,3.9,2,6.9v1.3h-12.7c0,1.8,0.6,3.3,1.6,4.5c1,1.1,2.3,1.7,3.9,1.7
		c1.1,0,2.1-0.2,2.9-0.7c0.8-0.5,1.5-1.1,2.1-1.8l2,1.5C182.7,309.5,180.3,310.7,177.2,310.7z M176.8,293.9c-1.3,0-2.4,0.5-3.3,1.4
		c-0.9,0.9-1.4,2.3-1.6,4h9.4v-0.2c-0.1-1.6-0.5-2.9-1.3-3.8C179.2,294.4,178.1,293.9,176.8,293.9z"/>
	<path class="st1" d="M199.8,310.4c-0.2-0.4-0.3-1-0.4-2c-1.5,1.5-3.3,2.3-5.3,2.3c-1.8,0-3.4-0.5-4.5-1.6s-1.8-2.4-1.8-4
		c0-2,0.7-3.5,2.2-4.5c1.5-1.1,3.6-1.6,6.3-1.6h3.1v-1.5c0-1.1-0.3-2-1-2.7c-0.7-0.7-1.7-1-3-1c-1.1,0-2.1,0.3-2.9,0.9
		c-0.8,0.6-1.2,1.3-1.2,2.1H188c0-0.9,0.3-1.8,1-2.7c0.7-0.9,1.6-1.6,2.7-2.1c1.1-0.5,2.4-0.8,3.7-0.8c2.2,0,3.8,0.5,5.1,1.6
		c1.2,1.1,1.9,2.6,1.9,4.5v8.6c0,1.7,0.2,3.1,0.7,4.1v0.3H199.8z M194.4,307.9c1,0,2-0.3,2.9-0.8s1.6-1.2,2-2v-3.8h-2.5
		c-3.9,0-5.9,1.1-5.9,3.4c0,1,0.3,1.8,1,2.4C192.5,307.7,193.4,307.9,194.4,307.9z"/>
	<path class="st1" d="M216.5,294.5c-0.5-0.1-1-0.1-1.6-0.1c-2.1,0-3.5,0.9-4.3,2.7v13.3h-3.2v-18.7h3.1l0.1,2.2
		c1-1.7,2.5-2.5,4.5-2.5c0.6,0,1.1,0.1,1.4,0.2V294.5z"/>
	<path class="st1" d="M226.6,308.1c1.1,0,2.1-0.3,3-1s1.3-1.6,1.4-2.6h3c-0.1,1.1-0.4,2.1-1.1,3.1c-0.7,1-1.6,1.7-2.7,2.3
		c-1.1,0.6-2.3,0.9-3.6,0.9c-2.5,0-4.6-0.9-6.1-2.6c-1.5-1.7-2.3-4-2.3-7v-0.5c0-1.8,0.3-3.4,1-4.9c0.7-1.4,1.6-2.5,2.9-3.3
		s2.7-1.2,4.4-1.2c2.1,0,3.8,0.6,5.2,1.9c1.4,1.3,2.1,2.9,2.2,4.9h-3c-0.1-1.2-0.6-2.2-1.4-3c-0.8-0.8-1.8-1.2-3.1-1.2
		c-1.6,0-2.9,0.6-3.8,1.8c-0.9,1.2-1.3,2.9-1.3,5.1v0.6c0,2.2,0.4,3.8,1.3,5C223.7,307.5,225,308.1,226.6,308.1z"/>
	<path class="st1" d="M240.9,293.9c1.4-1.7,3.3-2.6,5.5-2.6c4,0,6,2.2,6,6.7v12.4h-3.2V298c0-1.3-0.3-2.3-0.9-3
		c-0.6-0.6-1.5-1-2.8-1c-1,0-1.9,0.3-2.7,0.8c-0.8,0.6-1.4,1.3-1.8,2.2v13.3h-3.2v-26.6h3.2V293.9z"/>
	<path class="st1" d="M257.3,308.7c0-0.6,0.2-1,0.5-1.4c0.3-0.4,0.8-0.6,1.5-0.6s1.2,0.2,1.5,0.6c0.3,0.4,0.5,0.8,0.5,1.4
		c0,0.5-0.2,1-0.5,1.3c-0.3,0.4-0.8,0.5-1.5,0.5s-1.2-0.2-1.5-0.5C257.4,309.7,257.3,309.2,257.3,308.7z"/>
	<path class="st1" d="M266.6,308.7c0-0.6,0.2-1,0.5-1.4c0.3-0.4,0.8-0.6,1.5-0.6s1.2,0.2,1.5,0.6c0.3,0.4,0.5,0.8,0.5,1.4
		c0,0.5-0.2,1-0.5,1.3c-0.3,0.4-0.8,0.5-1.5,0.5s-1.2-0.2-1.5-0.5C266.8,309.7,266.6,309.2,266.6,308.7z"/>
	<path class="st1" d="M275.9,308.7c0-0.6,0.2-1,0.5-1.4c0.3-0.4,0.8-0.6,1.5-0.6s1.2,0.2,1.5,0.6c0.3,0.4,0.5,0.8,0.5,1.4
		c0,0.5-0.2,1-0.5,1.3c-0.3,0.4-0.8,0.5-1.5,0.5s-1.2-0.2-1.5-0.5C276.1,309.7,275.9,309.2,275.9,308.7z"/>
</g>
</svg>
