<?xml version="1.0" encoding="utf-8"?>
<!-- Generator: Adobe Illustrator 23.0.1, SVG Export Plug-In . SVG Version: 6.00 Build 0)  -->
<svg version="1.1" id="Layer_1" xmlns="http://www.w3.org/2000/svg" xmlns:xlink="http://www.w3.org/1999/xlink" x="0px" y="0px"
	 viewBox="0 0 456 330" style="enable-background:new 0 0 456 330;" xml:space="preserve">
<style type="text/css">
	.st0{fill:#FFFFFF;}
	.st1{fill:none;stroke:#671CC9;stroke-width:4;stroke-linecap:round;stroke-miterlimit:10;}
	.st2{fill:#FFFFFF;stroke:#671CC9;stroke-width:4;stroke-linecap:round;stroke-miterlimit:10;}
</style>
<g>
	<g>
		<path class="st0" d="M32.2,307c-6.8,0-12.3-5.5-12.3-12.3V39.3c0-6.8,5.5-12.3,12.3-12.3h391.6c6.8,0,12.3,5.5,12.3,12.3v255.4
			c0,6.8-5.5,12.3-12.3,12.3L32.2,307L32.2,307z"/>
		<path class="st1" d="M423.8,28c6.2,0,11.3,5.1,11.3,11.3v255.4c0,6.2-5.1,11.3-11.3,11.3H32.2c-6.2,0-11.3-5.1-11.3-11.3V39.3
			C20.9,33.1,26,28,32.2,28H423.8"/>
	</g>
	<circle class="st2" cx="416.1" cy="46" r="9"/>
	<circle class="st2" cx="43.1" cy="46" r="9"/>
	<g>
		<circle class="st2" cx="109.6" cy="108.5" r="25"/>
		<line class="st1" x1="151.6" y1="96.5" x2="282.6" y2="96.5"/>
		<line class="st1" x1="152.1" y1="109.1" x2="242.1" y2="109.1"/>
		<line class="st1" x1="152.1" y1="121.9" x2="256.1" y2="121.9"/>
		<line class="st1" x1="84.6" y1="185.5" x2="215.6" y2="185.5"/>
		<line class="st1" x1="85.1" y1="198.1" x2="175.1" y2="198.1"/>
		<line class="st1" x1="85.1" y1="210.9" x2="189.1" y2="210.9"/>
		<line class="st1" x1="276.6" y1="185.5" x2="407.6" y2="185.5"/>
		<line class="st1" x1="277.1" y1="198.1" x2="367.1" y2="198.1"/>
		<line class="st1" x1="277.1" y1="210.9" x2="381.1" y2="210.9"/>
		<line class="st1" x1="84.6" y1="251.5" x2="215.6" y2="251.5"/>
		<line class="st1" x1="85.1" y1="264.1" x2="175.1" y2="264.1"/>
		<line class="st1" x1="85.1" y1="276.9" x2="189.1" y2="276.9"/>
		<line class="st1" x1="276.6" y1="251.5" x2="407.6" y2="251.5"/>
		<line class="st1" x1="277.1" y1="264.1" x2="367.1" y2="264.1"/>
		<line class="st1" x1="277.1" y1="276.9" x2="381.1" y2="276.9"/>
	</g>
	<line class="st1" x1="21.5" y1="64.7" x2="433.8" y2="64.7"/>
	<line class="st1" x1="62.1" y1="46" x2="112.1" y2="46"/>
</g>
</svg>
