<?xml version="1.0" encoding="utf-8"?>
<!-- Generator: Adobe Illustrator 23.0.1, SVG Export Plug-In . SVG Version: 6.00 Build 0)  -->
<svg version="1.1" id="Calque_1" xmlns="http://www.w3.org/2000/svg" xmlns:xlink="http://www.w3.org/1999/xlink" x="0px" y="0px"
	 viewBox="0 0 800 600" style="enable-background:new 0 0 800 600;" xml:space="preserve">
<style type="text/css">
	.st0{fill:#323236;stroke:#797BF2;stroke-width:5;stroke-miterlimit:10;}
	.st1{fill:#797BF2;}
</style>
<path class="st0" d="M190.9,127.2h418.2c4.9,0,8.9,3.4,8.9,7.7v330.2c0,4.3-4,7.7-8.9,7.7H190.9c-4.9,0-8.9-3.4-8.9-7.7V134.9
	C182,130.6,186,127.2,190.9,127.2z"/>
<g>
	<path class="st1" d="M482.9,260.9c-1.3-1.1-2.9-1.3-4.2-0.5l-32.3,15.8c-1.6,0.8-3.4,0.3-4.7-1.1L403,230.9c-1.6-1.8-4.5-1.8-6,0
		l-38.4,44.1c-1.1,1.3-3.2,1.8-4.7,1.1l-32.3-15.8c-1.3-0.8-3.2-0.5-4.2,0.5c-1.3,1.1-1.6,2.6-1.3,4.2l20.5,67.5
		c1.8,6.3,7.6,10.5,14.2,10.5H449c6.6,0,12.3-4.2,14.2-10.5l20.5-67.5C484.4,263.5,483.9,261.9,482.9,260.9z M455.8,330.2
		c-0.8,2.9-3.7,5-6.6,5H351c-3.2,0-5.8-2.1-6.6-5l-18.1-58.8l24.2,11.8c4.7,2.4,10.5,1.1,14.2-2.9l35.5-41l35.5,40.7
		c3.4,3.9,9.2,5.3,14.2,2.9l24.2-11.8L455.8,330.2z"/>
	<path class="st1" d="M457.1,362.6h-114c-2.1,0-3.9,1.8-3.9,3.9c0,2.1,1.8,3.9,3.9,3.9h114c2.1,0,3.9-1.8,3.9-3.9
		C461.1,364.4,459.2,362.6,457.1,362.6z"/>
</g>
</svg>
