<?xml version="1.0" encoding="utf-8"?>
<!-- Generator: Adobe Illustrator 23.0.1, SVG Export Plug-In . SVG Version: 6.00 Build 0)  -->
<svg version="1.1" id="Calque_1" xmlns="http://www.w3.org/2000/svg" xmlns:xlink="http://www.w3.org/1999/xlink" x="0px" y="0px"
	 viewBox="0 0 800 600" style="enable-background:new 0 0 800 600;" xml:space="preserve">
<style type="text/css">
	.st0{fill:#FFFFFF;stroke:#671CC9;stroke-width:5;stroke-miterlimit:10;}
</style>
<g>
	<path class="st0" d="M603,471.2H197c-21.6,0-39.1-17.5-39.1-39.1V167.9c0-21.6,17.5-39.1,39.1-39.1h406c21.6,0,39.1,17.5,39.1,39.1
		v264.2C642.1,453.7,624.6,471.2,603,471.2z"/>
	<circle class="st0" cx="400" cy="300" r="86.7"/>
	<path class="st0" d="M442.8,294.4l-50.5-29.1c-4.3-2.5-9.6,0.6-9.6,5.6v58.4c0,5,5.4,8.1,9.6,5.6l50.5-29.1
		C447.1,303.1,447.1,296.9,442.8,294.4z"/>
</g>
</svg>
