<?xml version="1.0" encoding="utf-8"?>
<!-- Generator: Adobe Illustrator 23.0.1, SVG Export Plug-In . SVG Version: 6.00 Build 0)  -->
<svg version="1.1" id="Layer_1" xmlns="http://www.w3.org/2000/svg" xmlns:xlink="http://www.w3.org/1999/xlink" x="0px" y="0px"
	 viewBox="0 0 100 100" style="enable-background:new 0 0 100 100;" xml:space="preserve">
<style type="text/css">
	.st0{fill:url(#SVGID_1_);}
	.st1{fill:#2684FF;}
</style>
<g>
	
		<linearGradient id="SVGID_1_" gradientUnits="userSpaceOnUse" x1="-73.0753" y1="37.7733" x2="-74.2196" y2="39.7552" gradientTransform="matrix(10.9488 0 0 10.9488 846.7457 -361.7609)">
		<stop  offset="0" style="stop-color:#0052CC"/>
		<stop  offset="0.92" style="stop-color:#2684FF"/>
	</linearGradient>
	<path class="st0" d="M40.1,48.2c-0.5-0.6-1.3-0.7-1.9-0.3c-0.2,0.1-0.3,0.3-0.4,0.5L25.9,72.1c-0.3,0.7-0.1,1.6,0.6,1.9
		c0.2,0.1,0.4,0.2,0.6,0.2h16.5c0.5,0,1-0.3,1.3-0.8C48.6,66,46.4,54.8,40.1,48.2z"/>
	<path class="st1" d="M48.9,26.6c-6,9.3-6.7,21-1.8,30.9l8,15.9c0.2,0.5,0.7,0.8,1.3,0.8h16.5c0.8,0,1.4-0.6,1.4-1.4c0,0,0,0,0,0
		c0-0.2-0.1-0.4-0.1-0.6L51.3,26.6c-0.3-0.7-1.1-1-1.8-0.6C49.2,26.1,49,26.3,48.9,26.6L48.9,26.6z"/>
</g>
</svg>
