<?xml version="1.0" encoding="utf-8"?>
<!-- Generator: Adobe Illustrator 23.0.1, SVG Export Plug-In . SVG Version: 6.00 Build 0)  -->
<svg version="1.1" id="Layer_1" xmlns="http://www.w3.org/2000/svg" xmlns:xlink="http://www.w3.org/1999/xlink" x="0px" y="0px"
	 viewBox="0 0 100 100" style="enable-background:new 0 0 100 100;" xml:space="preserve">
<style type="text/css">
	.st0{fill:#0ACF83;}
	.st1{fill:#A259FF;}
	.st2{fill:#F24E1E;}
	.st3{fill:#FF7262;}
	.st4{fill:#1ABCFE;}
</style>
<g>
	<path id="path0_fill" class="st0" d="M38.7,86.4c6.5,0,11.8-5.3,11.8-11.8V62.8H38.7c-6.5,0-11.8,5.3-11.8,11.8
		C26.9,81.1,32.2,86.4,38.7,86.4z"/>
	<path id="path1_fill" class="st1" d="M26.9,51c0-6.5,5.3-11.8,11.8-11.8h11.8v23.6H38.7C32.2,62.8,26.9,57.5,26.9,51z"/>
	<path id="path1_fill_1_" class="st2" d="M26.9,27.4c0-6.5,5.3-11.8,11.8-11.8h11.8v23.6H38.7C32.2,39.2,26.9,33.9,26.9,27.4z"/>
	<path id="path2_fill" class="st3" d="M50.5,15.6h11.8c6.5,0,11.8,5.3,11.8,11.8s-5.3,11.8-11.8,11.8H50.5V15.6z"/>
	<path id="path3_fill" class="st4" d="M74.1,51c0,6.5-5.3,11.8-11.8,11.8c-6.5,0-11.8-5.3-11.8-11.8s5.3-11.8,11.8-11.8
		S74.1,44.5,74.1,51z"/>
</g>
</svg>
