<?xml version="1.0" encoding="utf-8"?>
<!-- Generator: Adobe Illustrator 23.0.1, SVG Export Plug-In . SVG Version: 6.00 Build 0)  -->
<svg version="1.1" id="Layer_1" xmlns="http://www.w3.org/2000/svg" xmlns:xlink="http://www.w3.org/1999/xlink" x="0px" y="0px"
	 viewBox="0 0 100 100" style="enable-background:new 0 0 100 100;" xml:space="preserve">
<style type="text/css">
	.st0{fill:#E24329;}
	.st1{fill:#FC6D26;}
	.st2{fill:#FCA326;}
</style>
<g>
	<path class="st0" d="M50,74.2l9.7-29.8H40.3L50,74.2L50,74.2z"/>
	<path class="st1" d="M50,74.2l-9.7-29.8H26.8L50,74.2z"/>
	<path class="st2" d="M26.8,44.4l-2.9,9.1c-0.3,0.8,0,1.7,0.7,2.2L50,74.2L26.8,44.4L26.8,44.4z"/>
	<path class="st0" d="M26.8,44.4h13.6l-5.8-17.9c-0.3-0.9-1.6-0.9-1.9,0L26.8,44.4L26.8,44.4z"/>
	<path class="st1" d="M50,74.2l9.7-29.8h13.6L50,74.2L50,74.2z"/>
	<path class="st2" d="M73.2,44.4l2.9,9.1c0.3,0.8,0,1.7-0.7,2.2L50,74.2L73.2,44.4L73.2,44.4z"/>
	<path class="st0" d="M73.2,44.4H59.7l5.8-17.9c0.3-0.9,1.6-0.9,1.9,0L73.2,44.4L73.2,44.4z"/>
</g>
</svg>
