<?xml version="1.0" encoding="utf-8"?>
<!-- Generator: Adobe Illustrator 23.0.1, SVG Export Plug-In . SVG Version: 6.00 Build 0)  -->
<svg version="1.1" id="Layer_1" xmlns="http://www.w3.org/2000/svg" xmlns:xlink="http://www.w3.org/1999/xlink" x="0px" y="0px"
	 viewBox="0 0 100 100" style="enable-background:new 0 0 100 100;" xml:space="preserve">
<style type="text/css">
	.st0{fill:#4285F4;}
	.st1{fill:#34A853;}
	.st2{fill:#FBBC05;}
	.st3{fill:#EB4335;}
</style>
<g>
	<path class="st0" d="M73.7,50.5c0-2-0.2-3.4-0.5-4.9H50.5v9h13.3c-0.3,2.2-1.7,5.6-4.9,7.9l0,0.3l7.2,5.6l0.5,0
		C71.1,64.1,73.7,57.9,73.7,50.5"/>
	<path class="st1" d="M50.5,74.2c6.5,0,12-2.2,16-5.9l-7.6-5.9c-2,1.4-4.8,2.4-8.4,2.4c-6.4,0-11.8-4.2-13.8-10.1l-0.3,0L29,60.6
		l-0.1,0.3C32.8,68.8,41,74.2,50.5,74.2"/>
	<path class="st2" d="M36.7,54.8c-0.5-1.5-0.8-3.1-0.8-4.8c0-1.7,0.3-3.3,0.8-4.8l0-0.3L29.1,39l-0.2,0.1c-1.6,3.3-2.6,7-2.6,10.9
		s0.9,7.6,2.6,10.9L36.7,54.8"/>
	<path class="st3" d="M50.5,35.2c4.5,0,7.6,2,9.4,3.6l6.8-6.7c-4.2-3.9-9.7-6.3-16.2-6.3c-9.5,0-17.6,5.4-21.6,13.3l7.8,6.1
		C38.6,39.4,44.1,35.2,50.5,35.2"/>
</g>
</svg>
