<?xml version="1.0" encoding="utf-8"?>
<!-- Generator: Adobe Illustrator 23.0.1, SVG Export Plug-In . SVG Version: 6.00 Build 0)  -->
<svg version="1.1" id="svg8093" xmlns:svg="http://www.w3.org/2000/svg"
	 xmlns="http://www.w3.org/2000/svg" xmlns:xlink="http://www.w3.org/1999/xlink" x="0px" y="0px" viewBox="0 0 127.6 131.9"
	 style="enable-background:new 0 0 127.6 131.9;" xml:space="preserve">
<style type="text/css">
	.st0{fill:#2684FF;}
	.st1{fill:url(#path8015_1_);}
	.st2{fill:url(#path8025_1_);}
</style>
<path id="path8005" class="st0" d="M126,62.3L69.3,5.5L63.8,0L1.5,62.3c-2,2-2,5.3,0,7.4l39,39l23.2,23.2L126,69.6
	C128.1,67.6,128.1,64.3,126,62.3z M63.8,85.4L44.3,65.9l19.5-19.5l19.5,19.5L63.8,85.4z"/>
<linearGradient id="path8015_1_" gradientUnits="userSpaceOnUse" x1="141.415" y1="193.9094" x2="128.5897" y2="181.0873" gradientTransform="matrix(1.7409 0 0 -1.7409 -190.7927 369.1871)">
	<stop  offset="0" style="stop-color:#0052CC"/>
	<stop  offset="1" style="stop-color:#2684FF"/>
</linearGradient>
<path id="path8015" class="st1" d="M63.8,46.4C51,33.7,50.9,13,63.6,0.2L21,42.8L44.2,66L63.8,46.4z"/>
<linearGradient id="path8025_1_" gradientUnits="userSpaceOnUse" x1="151.1823" y1="154.6023" x2="163.982" y2="167.402" gradientTransform="matrix(1.7409 0 0 -1.7409 -190.7927 369.1871)">
	<stop  offset="0" style="stop-color:#0052CC"/>
	<stop  offset="1" style="stop-color:#2684FF"/>
</linearGradient>
<path id="path8025" class="st2" d="M83.3,65.9L63.8,85.4c6.2,6.2,9.6,14.5,9.6,23.2c0,8.7-3.5,17.1-9.6,23.2l42.8-42.8
	C106.6,89.1,83.3,65.9,83.3,65.9z"/>
</svg>
