<?xml version="1.0" encoding="utf-8"?>
<!-- Generator: Adobe Illustrator 23.0.1, SVG Export Plug-In . SVG Version: 6.00 Build 0)  -->
<svg version="1.1" id="Layer_1" xmlns="http://www.w3.org/2000/svg" xmlns:xlink="http://www.w3.org/1999/xlink" x="0px" y="0px"
	 viewBox="0 0 100 100" style="enable-background:new 0 0 100 100;" xml:space="preserve">
<style type="text/css">
	.st0{fill-rule:evenodd;clip-rule:evenodd;fill:#36C5F0;}
	.st1{fill-rule:evenodd;clip-rule:evenodd;fill:#2EB67D;}
	.st2{fill-rule:evenodd;clip-rule:evenodd;fill:#ECB22E;}
	.st3{fill-rule:evenodd;clip-rule:evenodd;fill:#E01E5A;}
</style>
<g>
	<path class="st0" d="M43.5,25.6c-2.7,0-4.9,2.2-4.9,4.9c0,2.7,2.2,4.9,4.9,4.9h4.9v-4.9C48.4,27.8,46.2,25.6,43.5,25.6
		C43.5,25.6,43.5,25.6,43.5,25.6 M43.5,38.6h-13c-2.7,0-4.9,2.2-4.9,4.9c0,2.7,2.2,4.9,4.9,4.9h13c2.7,0,4.9-2.2,4.9-4.9
		C48.4,40.8,46.2,38.6,43.5,38.6L43.5,38.6z"/>
	<path class="st1" d="M74.4,43.5c0-2.7-2.2-4.9-4.9-4.9c-2.7,0-4.9,2.2-4.9,4.9v4.9h4.9C72.2,48.4,74.4,46.2,74.4,43.5z M61.4,43.5
		v-13c0-2.7-2.2-4.9-4.9-4.9c-2.7,0-4.9,2.2-4.9,4.9v13c0,2.7,2.2,4.9,4.9,4.9C59.2,48.4,61.4,46.2,61.4,43.5z"/>
	<path class="st2" d="M56.5,74.4c2.7,0,4.9-2.2,4.9-4.9c0-2.7-2.2-4.9-4.9-4.9h-4.9v4.9C51.6,72.2,53.8,74.4,56.5,74.4z M56.5,61.4
		h13c2.7,0,4.9-2.2,4.9-4.9c0-2.7-2.2-4.9-4.9-4.9h-13c-2.7,0-4.9,2.2-4.9,4.9C51.6,59.2,53.8,61.4,56.5,61.4L56.5,61.4z"/>
	<path class="st3" d="M25.6,56.5c0,2.7,2.2,4.9,4.9,4.9c2.7,0,4.9-2.2,4.9-4.9v-4.9h-4.9C27.8,51.6,25.6,53.8,25.6,56.5z M38.6,56.5
		v13c0,2.7,2.2,4.9,4.9,4.9c2.7,0,4.9-2.2,4.9-4.9v-13c0-2.7-2.2-4.9-4.9-4.9C40.8,51.6,38.6,53.8,38.6,56.5
		C38.6,56.5,38.6,56.5,38.6,56.5"/>
</g>
</svg>
