<?xml version="1.0" encoding="utf-8"?>
<!-- Generator: Adobe Illustrator 23.0.1, SVG Export Plug-In . SVG Version: 6.00 Build 0)  -->
<svg version="1.1" id="Layer_1" xmlns="http://www.w3.org/2000/svg" xmlns:xlink="http://www.w3.org/1999/xlink" x="0px" y="0px"
	 viewBox="0 0 100 100" style="enable-background:new 0 0 100 100;" xml:space="preserve">
<style type="text/css">
	.st0{fill:#FF4422;}
</style>
<path class="st0" d="M45.4,42.8c-1.3-1.3-3-2-4.9-2H30.4v18.4h6.9V47.7h2.2c0.6,0,1.2,0.2,1.6,0.7l2.4,2.4c0.4,0.4,0.7,1,0.7,1.6
	v6.8h6.9v-7.8c0-1.8-0.7-3.6-2-4.9C49.1,46.5,45.4,42.8,45.4,42.8z M81.1,40.8v6.8c0,0.6-0.2,1.2-0.7,1.6L78,51.6
	c-0.4,0.4-1,0.7-1.6,0.7h-3.3c0.7-1.1,1.1-2.4,1.1-3.7v-7.8h-6.9v6.8c0,0.6-0.2,1.2-0.7,1.6l-2.4,2.4c-0.4,0.4-1,0.7-1.6,0.7h-2.2
	V40.8h-6.9v18.4h10.1c1.8,0,3.6-0.7,4.9-2l2.3-2.3v4.3h6.6c1.8,0,3.6-0.7,4.9-2l3.7-3.7c1.3-1.3,2-3,2-4.9v-7.8H81.1z M12,47.7h4.6
	v11.5h6.9V47.7h4.6v-6.9H12V47.7z"/>
</svg>
