<?xml version="1.0" encoding="utf-8"?>
<!-- Generator: Adobe Illustrator 23.0.1, SVG Export Plug-In . SVG Version: 6.00 Build 0)  -->
<svg version="1.1" id="Layer_1" xmlns="http://www.w3.org/2000/svg" xmlns:xlink="http://www.w3.org/1999/xlink" x="0px" y="0px"
	 viewBox="0 0 100 100" style="enable-background:new 0 0 100 100;" xml:space="preserve">
<style type="text/css">
	.st0{fill:#FF2BC2;}
	.st1{fill:#2E001E;}
</style>
<circle class="st0" cx="50" cy="50" r="50"/>
<circle class="st1" cx="50" cy="50" r="45.4"/>
<path class="st0" d="M73,45c-0.6-0.3-1.4-0.4-2.4-0.4c-5.3,0-8.8,4.1-8.8,11c0,7.9,3.6,11,8.3,11c1,0,2.1-0.1,2.9-0.5L73,45L73,45z
	 M54.4,55.9c0-10,6.3-17.7,16.5-17.7c0.9,0,1.3,0,2.2,0.1V27.2c0-0.3,0.2-0.4,0.4-0.4h6.7c0.3,0,0.4,0.1,0.4,0.3v39.1
	c0,1.2,0,2.6,0.2,4.2c0,0.3,0,0.3-0.3,0.5c-3.5,1.7-7.2,2.5-10.7,2.5C60.8,73.3,54.4,67.6,54.4,55.9L54.4,55.9z M40.1,49l11.7,23.2
	c0.2,0.3,0.1,0.7-0.3,0.7h-7.3c-0.5,0-0.7-0.1-0.9-0.6c-2.7-5.6-5.4-11.5-8.2-17.6h-0.1c-2.5,5.7-5.3,12-7.9,17.6
	c-0.2,0.3-0.4,0.5-0.7,0.5h-6.9c-0.4,0-0.5-0.3-0.3-0.6l11.4-22.5l-11-22.4c-0.3-0.3,0-0.6,0.3-0.6h7.2c0.4,0,0.6,0.1,0.8,0.5
	c2.6,5.7,5.3,11.3,7.8,17h0.1c2.4-5.6,5.1-11.3,7.6-16.9c0.2-0.3,0.3-0.6,0.8-0.6h6.7c0.3,0,0.5,0.3,0.3,0.6L40.1,49L40.1,49z"/>
</svg>
