<?xml version="1.0" encoding="utf-8"?>
<!-- Generator: Adobe Illustrator 25.2.0, SVG Export Plug-In . SVG Version: 6.00 Build 0)  -->
<svg version="1.1" id="Layer_1" xmlns="http://www.w3.org/2000/svg" xmlns:xlink="http://www.w3.org/1999/xlink" x="0px" y="0px"
	 viewBox="0 0 536 448.2" style="enable-background:new 0 0 536 448.2;" xml:space="preserve">
<style type="text/css">
	.st0{opacity:0.35;}
	.st1{fill:#D6DCE5;}
	.st2{fill:#FFF0CF;}
	.st3{fill:#BA9F80;}
	.st4{fill:#38312D;}
	.st5{fill:#F2844F;}
	.st6{fill:#E56324;}
	.st7{fill:#F95939;}
	.st8{fill:#C5B68E;}
	.st9{fill:#D4C7AB;}
	.st10{fill:#C1AF84;}
	.st11{fill:#C2B085;}
	.st12{fill:#C7BA95;}
	.st13{fill:#DDD5C1;}
	.st14{fill:#C1AE83;}
	.st15{fill:#D3C7AD;}
	.st16{fill:#C0AE83;}
	.st17{fill:#CDC3A7;}
	.st18{fill:#D0C9AE;}
	.st19{fill:#FDBB9C;}
	.st20{fill:#B65A35;}
	.st21{fill:#D3CAB3;}
	.st22{fill:#D3CAAE;}
	.st23{fill:#160E0B;}
	.st24{fill:#B75C37;}
	.st25{fill:#B95D38;}
	.st26{fill:#BC5F3F;}
	.st27{fill:#FDB998;}
	.st28{fill:#FBB490;}
	.st29{fill:#C7B992;}
	.st30{fill:#C5B38B;}
	.st31{fill:#CA8D77;}
	.st32{fill:#CA8C70;}
	.st33{fill:#BD6543;}
	.st34{fill:#FDB694;}
	.st35{fill:#BA5D37;}
	.st36{fill:#CABD9D;}
	.st37{fill:#C0AD83;}
	.st38{fill:#D1444D;}
	.st39{fill:#FBBB9E;}
	.st40{fill:#C77F63;}
	.st41{fill:#FBAA87;}
	.st42{fill:#C2B187;}
	.st43{fill:#BC633F;}
	.st44{fill:#B95E3A;}
	.st45{fill:#CABC95;}
	.st46{fill:#FCC0A4;}
	.st47{fill:#D6CEB4;}
	.st48{fill:#C26D4C;}
	.st49{fill:#C4B48B;}
	.st50{fill:#D8CCB4;}
	.st51{fill:#D5CAB5;}
	.st52{fill:#D1CAAE;}
	.st53{fill:#CEC2A5;}
	.st54{fill:#150F0C;}
</style>
<g class="st0">
	<path class="st1" d="M484.6,448.2H51.4C23,448.2,0,425.2,0,396.8V135.6c0-28.4,23-51.4,51.4-51.4h433.2c28.4,0,51.4,23,51.4,51.4
		v261.2C536,425.2,513,448.2,484.6,448.2z"/>
</g>
<g>
	<g>
		<path class="st2" d="M290.5,12.5c5.6-1,11.3-1.1,16.9-0.6c7.6,0.3,15.2,0.8,22.5,2.8c5.1,1,10.2,2.3,14.7,4.8
			c1.8,1,3.3,2.6,4.7,4.1c2.2,2.5,4.9,4.6,6.8,7.5c2.3,0.3,4.6,0.5,6.8,1.2c1.8,0.5,3.5,1.3,5.2,1.9c2,0.6,3.8,1.7,5.7,2.6
			c1.7,0.9,3.2,2.1,4.6,3.2c2.4,1.8,4.6,3.8,6.5,6.1c2,2.2,3.8,4.5,5.4,7c1,1.8,2.3,3.5,3.1,5.4c1.5,3.2,2.8,6.6,3.9,10
			c2,5.2,3,10.6,4.3,16c0.6,2.6,1.5,5.1,1.9,7.8c0.8,3.8,1.6,7.5,2.4,11.3c0.6,2.9,0.9,5.9,1.5,8.9c0.9,6.3,1,12.7,0.8,19.1
			c-0.6,6.5-1.5,12.9-2.4,19.4c-0.5,3.1-1.2,6.1-1.8,9.1c-1.6,6-3.2,11.9-5.2,17.8c-3.7,11-7.6,21.9-11.1,33
			c-1.6,5.5-3.4,11-5.2,16.5c-0.7,2.9-1.9,5.6-2.6,8.4c-1.6,5.3-3.4,10.5-4.7,15.9c-0.6,3-1.5,6-1.7,9c-0.5,3.9-0.9,7.8-1.2,11.7
			c0,3.6,0,7.2,0,10.8c0,1.9-0.2,3.9,0.4,5.8c1.1,3.8,2.4,7.6,3.8,11.3c0.8,3.2,2.1,6.3,3.3,9.4c0.4,1.4,1,2.8,1.4,4.2
			c-0.3-0.2-0.6-0.4-0.9-0.6c-0.3,0.1-0.6,0.1-0.9,0.2c-0.7-1.5-1.3-3.1-1.8-4.7c-2.3-1.1-4.7-1.7-6.9-2.9c-2.3-1-4.9-1.3-7.3-2.1
			c-6.3-1.7-12.7-2.8-19.2-3.5c-13.6-1.7-27.3-3.3-40.8-5.6c-11.9-2-23.8-4.2-35.6-7.2c-5.5-1.4-10.9-3.1-16.3-4.9
			c0.1,1.9-1.5,3.1-2.7,4.3c-4.4,3.9-8.9,7.6-13.6,11.1c-1.3,0.8-2.5,1.9-4,2.2c-1.1,0.1-1.8-0.7-2.2-1.6c-0.3-0.1-0.5-0.2-0.8-0.3
			c-0.9,0.9-2.5,1-3.3-0.2c1.9-0.3,3.7-0.8,5.5-1.6c0.4,0.5,0.8,1.2,1.5,1.4c1.6,0.4,3.2-0.7,4.4-1.6c2.6-2,4.7-4.4,6.9-6.8
			c0.6-0.6,1.7-0.5,2-1.3c0.7-1.4,1.3-2.8,2.3-4c2.3-2.9,4.1-6.1,6.1-9.3c2.2-4.6,4.1-9.5,5.6-14.4c0.2-0.8,0.9-1.3,1.3-2
			c0.5-1.3,0.5-2.8,1.2-4c0.9-1.7,0.8-3.7,1.2-5.6c1-5.6,2.5-11.2,2.8-17c0.2-2.1,0.8-4.1,1.2-6.1c0.2-1-0.1-2,0-3
			c0.2-2.2,0.7-4.4,0.9-6.6c0.1-0.6-0.4-1-0.7-1.5c-0.5,0-0.9,0-1.4,0c0.4-3.5,0-7.1,0-10.7c-0.1-5.3-0.3-10.6-0.4-16
			c-0.1,0-0.4,0-0.5,0c-0.3,1.1-0.2,2.3-0.3,3.4c-0.3,3.2-0.2,6.4-0.3,9.6c-0.2,5.3,0,10.6-0.7,15.9c-0.4,4.3-1.4,8.5-2.3,12.7
			c-1,4.1-2,8.2-3.5,12.1c-1.6,4.7-3.5,9.2-5.4,13.8c-2.2,5.2-4.8,10.2-7.9,14.8c-2.7,3.9-5.8,7.6-9.3,10.7
			c-1.7,1.3-3.5,2.6-5.4,3.7c-2.3,1.2-4.7,2.3-7.1,3.3c-3.4,1.3-7.1,1.5-10.8,1.7c-1.5,0-3-0.4-4.3-1c-2.4-0.9-4.5-2.4-6.2-4.3
			c-1.9-3.3-2.5-7.2-2.3-11c0.4-1.4,0.7-2.8,1.4-4.1c2.1-4.2,5.2-7.8,7.7-11.8c1.6-2.3,2.8-4.8,4-7.2c1.3-2.3,2.1-4.8,3.1-7.2
			c0.9-2.4,1.7-4.7,2.4-7.2c0.5-2.4,1-4.8,1.2-7.3c0.2-5.8,0-11.6-0.8-17.3c-0.4-4.1-1.2-8.1-2-12.1c-1.4-8.1-2.7-16.2-3.9-24.4
			c-1.3-7.6-2.3-15.3-2.6-23c-0.1-4.3-0.4-8.6-0.3-12.9c0.2-5.7,0.1-11.3,0.6-17c0.4-2.9,0.4-5.9,0.8-8.8c0.5-6.7,1.8-13.3,3.3-19.8
			c1-5,2.5-9.8,4.1-14.6c0.7-2.4,1.7-4.7,2.4-7.2c1.2-3.2,2.5-6.2,3.8-9.4c1.9-4.3,3.7-8.7,6.4-12.6c1.8-3.1,4-6,6.4-8.6
			c2.3-2.7,4.8-5.3,7.6-7.5c2.9-2.8,6.6-4.7,9.9-7.1c3.2-2,6.4-4,9.9-5.5c2.8-1.4,5.6-2.6,8.4-3.9c2.7-0.9,5.3-2,8-2.7
			C283.9,13.8,287.1,12.9,290.5,12.5z"/>
		<path class="st3" d="M274.2,59.3c1.5-0.4,3.1-0.9,4.7-0.7c-2.2,1.5-4.9,2.1-7.3,3.1c0.6,1.4,0.5,2.9,0.5,4.4
			c-0.1,3.7-0.3,7.3-0.2,11c-1,17.2-5.1,34-7.3,51c-0.6,4.2-1.3,8.4-2.1,12.6c-0.8,4.1-2.1,8.2-4,12c-1.5,2.9-4,5.4-7.3,6.3
			c-3.6,0.9-7.2-0.5-10.4-2c-2.4-1.3-5-2.2-7-4c-2.2-1.8-4.3-3.8-6-6.1c-2.3-2.9-4.6-5.9-6-9.4c-1.8-3.8-2.9-8-3.5-12.1
			c-0.5-5.7,0.2-11.5,1.5-17.1c1.4-5.7,3.7-11.3,7.1-16.1c4.4-6.2,9.5-11.8,15.5-16.3c4.1-3.3,8.5-6.3,13-8.9
			C261.3,63.4,267.6,60.8,274.2,59.3z"/>
		<path class="st3" d="M369.8,124.2c0.8,0.5,1.1,1.4,1.6,2.1c1.6,2.5,2.8,5.3,3.7,8.1c0.7,2.4,1.6,4.7,2.3,7.1
			c0.9,2.5,1.3,5.2,2.2,7.7c0.6,1.9,0.9,3.9,1.6,5.8c0.6,1.5,0.9,3.1,1.1,4.7c0.3-0.4,0.6-0.9,0.9-1.3c0.4-0.1,0.8-0.1,1.2-0.1
			c0.4-0.9,1-1.8,1.8-2.4c1.4-1.6,2.4-3.4,3.8-4.9c0.7-0.8,1.1-1.9,1.7-2.7c1.8-2.3,2.7-5.1,4.2-7.6c0.3-0.6,1.3-0.9,1.8-0.3
			c0.4,0.3,0.3,0.8,0.3,1.2c-0.3,1.2-1,2.3-1.2,3.6c-0.8,4.9-2.7,9.6-4.8,14.1c-2.6,5.9-5.6,11.6-9.6,16.7c-0.5,0.6-1.2,1.2-1.3,2
			c-0.6,7.2-1.1,14.4-2,21.6c-0.6,3.8-1,7.6-1.7,11.4c-1,5.2-1.9,10.5-3.2,15.6c-2.1,9.2-4,18.5-6.3,27.7c-0.8,3.2-1.2,6.6-1.6,9.9
			c-0.5,3.7-1,7.5-1.2,11.2c-0.1,2.9,0.2,5.8,0.1,8.8c-0.1,3.6,0.9,7.1,0.7,10.7c-0.2,1.1-1.8,1.2-2.3,0.4c-0.7-1.1-1.2-2.3-1.6-3.6
			c-1.7-5.4-2.9-11-3.1-16.6c-0.3-2.8,0-5.6,0.1-8.4c0.5-6.8,0.8-13.6,1.8-20.3c1-6.4,2-12.8,3.3-19.2c1-5.3,2.3-10.6,3.3-15.9
			c1.4-7,2.5-14,3.3-21.1c0-0.6,0-1.1,0-1.7c-1.8,2.8-3.9,5.3-5.4,8.2c-0.5,1-1.1,1.9-1.8,2.9c-3.3,8.4-5.7,17.2-7.8,25.9
			c-1.3,5.9-2.4,11.8-3,17.8c-0.8,7.6-1.7,15.2-2.1,22.9c-0.2,3.4,0.1,6.9-0.2,10.3c-0.1,0.8,0.1,1.7-0.6,2.3
			c-0.7,0.8-1.9,0.5-2.5-0.2c-0.8-1.1-1.2-2.5-1.7-3.8c-1.9-6-5-11.5-7.2-17.5c-1.9-5.3-4-10.6-5.6-16.1s-2.3-11.3-2.2-17
			c0.1-12,2-24.2,6.9-35.2c2-4.5,4.3-8.8,6.9-12.9c3-4.5,6.4-8.9,10.1-12.9c3.2-3.3,6.6-6.2,10.3-8.8c2.1-1.4,4.3-2.8,6.8-3.3
			c1.8-0.4,3.6-0.4,5.4,0.1c-0.7-3-1.2-6.1-1.9-9.1c-0.7-2.9-1.5-5.7-2.2-8.6c-0.6-2.9-2-5.6-3-8.4
			C369.9,124.6,369.8,124.3,369.8,124.2z"/>
		<path class="st3" d="M264.7,188.3c0.1,0,0.4,0,0.5,0c0,5.3,0.2,10.6,0.4,16c0,3.6,0.3,7.1,0,10.7c0.5,0,0.9,0,1.4,0
			c0.3,0.4,0.8,0.9,0.7,1.5c-0.2,2.2-0.6,4.4-0.9,6.6c-0.1,1,0.2,2,0,3c-0.4,2-1,4-1.2,6.1c-0.2,5.8-1.7,11.4-2.8,17
			c-0.4,1.9-0.3,3.8-1.2,5.6c-0.6,1.3-0.6,2.7-1.2,4c-0.4,0.7-1.1,1.2-1.3,2c-1.6,4.9-3.4,9.7-5.6,14.4c-2,3.1-3.8,6.3-6.1,9.3
			c-1,1.2-1.6,2.6-2.3,4c-0.4,0.8-1.4,0.7-2,1.3c-2.2,2.4-4.3,4.8-6.9,6.8c-1.3,0.9-2.8,2-4.4,1.6c-0.7-0.1-1.1-0.9-1.5-1.4
			c-1.7,0.8-3.6,1.3-5.5,1.6c-0.5,0-1.1,0.1-1.6,0.1c-1.2,0-2.5,0-3.7,0c-2.9-0.9-5.4-2.8-7.9-4.5c-2.3-1.3-4.6-2.4-6.6-4.1
			c-1.9-1.5-3.4-3.5-5.1-5.1c0.6,0.3,1.1,0.6,1.7,0.9c-0.1-0.2-0.3-0.5-0.4-0.7c1.7,1.9,3.8,3.4,6.2,4.3c1.4,0.6,2.8,1,4.3,1
			c3.6-0.2,7.3-0.3,10.8-1.7c2.4-1,4.8-2.1,7.1-3.3c1.9-1.1,3.7-2.3,5.4-3.7c3.6-3.1,6.7-6.8,9.3-10.7c3.1-4.7,5.7-9.7,7.9-14.8
			c1.9-4.6,3.8-9.1,5.4-13.8c1.5-3.9,2.6-8,3.5-12.1c0.9-4.2,1.9-8.4,2.3-12.7c0.7-5.3,0.5-10.6,0.7-15.9c0.1-3.2,0-6.4,0.3-9.6
			C264.5,190.6,264.4,189.4,264.7,188.3z"/>
		<path class="st4" d="M440.5,447.4c0-0.1,0-0.2,0.1-0.2c0.9-3,1.3-6.2,1.9-9.3c0.7-3.6,0.9-7.3,0.9-11c0.2-5.7-0.7-11.4-1.4-17
			c-0.5-3.8-0.8-7.6-1.2-11.4c-0.3-3.5-0.8-7-1.1-10.5c-0.3-4-0.6-8.1-1.2-12.1c-0.4-3.3-0.6-6.7-1.3-9.9c-1.2-5.7-3-11.2-5.3-16.5
			c-2-4.5-4.6-8.7-7.9-12.3c-2.6-2.8-5.6-5.2-8.8-7.3c-2.2-1.5-4.3-3-6.4-4.5c-5-3.4-10.3-6.3-15.4-9.5c-2.2-1.1-4.5-2-6.8-2.9
			s-4.6-2-6.8-3.2c0.4,1.4,1,2.8,1.4,4.2c-0.3-0.2-0.6-0.4-0.9-0.6c-0.3,0.1-0.6,0.1-0.9,0.2c-0.7-1.5-1.3-3.1-1.8-4.7
			c-2.3-1.1-4.7-1.7-6.9-2.9c-2.3-1-4.9-1.3-7.3-2.1c-6.3-1.7-12.7-2.8-19.2-3.5c-13.6-1.7-27.3-3.3-40.8-5.6
			c-11.9-2-23.8-4.2-35.6-7.2c-5.5-1.4-10.9-3.1-16.3-4.9c0.1,1.9-1.5,3.1-2.7,4.3c-4.4,3.9-8.9,7.6-13.6,11.1
			c-1.3,0.8-2.5,1.9-4,2.2c-1.1,0.1-1.8-0.7-2.2-1.6c-0.3-0.1-0.5-0.2-0.8-0.3c-0.9,0.9-2.5,1-3.3-0.2c-0.5,0-1.1,0.1-1.6,0.1
			c-0.4,0.3-0.8,0.7-1.4,0.7c-0.9,0.1-1.6-0.4-2.3-0.7c-2.9-0.9-5.4-2.8-7.9-4.5c-2.3-1.3-4.6-2.4-6.6-4.1c-1.9-1.5-3.4-3.5-5.1-5.1
			c0.6,0.3,1.1,0.6,1.7,0.9c-0.1-0.2-0.3-0.5-0.4-0.7c-1.9-3.3-2.5-7.2-2.3-11c0.4-1.4,0.7-2.8,1.4-4.1c-2.6-0.2-5.2-0.1-7.8,0.2
			c-5,0.6-9.8,2.2-14.8,3c-4.6,0.7-9.3,1.5-13.6,3.3c-2.9,1.2-5.6,3.1-7.8,5.3c-3,3.4-5.8,7.1-8.4,10.8c-3.5,5.1-6.6,10.5-9.4,16.1
			c-1.4,2.4-2.5,4.9-3.6,7.4c-2.3,5.4-4.7,10.8-6.7,16.3c-2.2,5.6-4.1,11.3-6.3,16.9c-1.8,4.3-3.3,8.7-5.5,12.8
			c-1.7,3.2-3,6.6-4.7,9.9c-1.2,2.3-2.1,4.8-3.3,7.1c-2.1,4.4-3.6,9.1-5.5,13.7c-2.5,6.3-3.3,13.1-4.6,19.7
			c-0.8,5.1-2,10.2-2.7,15.3c-1,6.6-2.4,13.1-2.9,19.7h347.7V447.4z"/>
		<path class="st2" d="M219.5,298.3c1.2-0.1,2.5,0,3.7,0c-0.4,0.3-0.8,0.7-1.4,0.7C221,299.1,220.3,298.6,219.5,298.3z"/>
	</g>
	<g>
		<path class="st5" d="M341.2,50.3c0.4,0,0.9-0.1,1.3,0.2c1.1,0.7,1.8,1.9,2.6,2.9c1.3,1.8,2.9,3.5,4.2,5.4c1.1,1.6,1.9,3.4,2.8,5.1
			c1.5,2.7,3,5.3,4.2,8.1c1.6,3.7,3.3,7.3,4.9,11c1.6,3.1,2.6,6.5,4,9.7c2.1,5.9,4,11.8,5.1,18c0.3,1.5,0.6,3.1,0.9,4.6
			c0.2,1.2,0.3,2.5,0.8,3.7c-0.7,1.4-0.9,2.9-1,4.4c-0.2,3-0.9,5.9-1.2,8.9c-0.4,3.4-1,6.7-1.4,10.1c-0.6,5-1.5,10-2.6,14.9
			c-0.9,4.2-1.5,8.5-2.4,12.8c-0.3,1.4-0.5,2.8-0.7,4.2c-0.6,2-1.6,3.9-2.3,5.8c-3.7,8.5-7.5,16.9-12.1,24.9
			c-0.3,0.4-0.4,0.9-0.8,1.1c-2.3,1.1-4.1,3-6,4.7c-1.4,1.2-2.8,2.3-4.2,3.5c-1.9,1.5-3.7,3-5.8,4.1c-2.4,1.2-4.8,2.3-7.1,3.6
			c-2.7,1.5-5.6,2.6-8.6,3.2c-3.4,0.4-6.9,0.9-10.3,0.3c-2.5-0.3-5-1.1-7.4-2c-2.5-0.9-4.6-2.4-6.8-3.9c-2.4-1.7-4.8-3.4-7-5.3
			c-2.2-1.7-4-3.9-5.7-6c-2.4-3-4.9-6-6.9-9.3c-1.2-1.9-2.6-3.7-3.7-5.6c-1.3-2.1-2.4-4.3-3.9-6.3c-1-1.4-2.2-2.6-3.1-4.1
			c-0.5-0.9-1.1-1.6-1.8-2.3c-0.7-1.5-1-3.3-1.7-4.8c-1.1-3.5-3.1-6.6-5.1-9.7c-0.1-0.2-0.2-0.4-0.2-0.6c-0.1-1.4-0.5-2.7-0.9-4
			c0.3-0.9,0.7-1.8,0.6-2.7c-0.1-3.5-0.7-6.9-0.6-10.4c-0.2-6.3,0.9-12.5,2.5-18.5c1.1-4.2,2-8.4,3.9-12.3c1.4-3,2.7-6,4.4-8.8
			c3.8-6,8.3-11.5,13.6-16.3c4.1-3.6,8.6-6.7,13.4-9.4c4.4-2.4,8.9-4.5,13.4-6.7c3.9-2,8-3.9,11.9-6c4-2.5,8.5-4.2,12.5-6.7
			c4.2-2.5,8.2-5.5,11.6-9c1.3-1.5,2.6-2.8,3.6-4.5C341.5,50.5,341.3,50.4,341.2,50.3z"/>
		<path class="st6" d="M338.8,51.7c0.8-0.4,1.6-0.9,2.4-1.4c0.1,0.1,0.3,0.2,0.4,0.2c-1,1.7-2.3,3.1-3.6,4.5
			c-3.4,3.5-7.3,6.5-11.6,9c-4,2.5-8.5,4.2-12.5,6.7c-3.9,2.1-7.9,4-11.9,6c-4.5,2.2-9,4.3-13.4,6.7c-4.8,2.7-9.3,5.8-13.4,9.4
			c-5.2,4.8-9.7,10.4-13.6,16.3c-1.7,2.8-3,5.8-4.4,8.8c-1.9,3.9-2.8,8.1-3.9,12.3c-1.6,6-2.7,12.3-2.5,18.5
			c-0.1,3.5,0.5,6.9,0.6,10.4c0.1,0.9-0.3,1.9-0.6,2.7c-0.8-0.4-2-0.5-2.1-1.6c-0.1-1.4,0.4-2.7,0.4-4.1c-0.2-3.8-0.5-7.7-0.8-11.5
			c0.1-3.4-0.5-6.8-0.6-10.2c-0.2-3-0.9-6-1.7-9c-0.3-1-0.4-2.2-1-3.1c-0.5-0.6-1.3-0.1-2-0.1c0-0.3,0-0.6,0-0.8
			c0.5-0.3,1-0.4,1.4-0.9c0.1-1.2-0.1-2.5-0.2-3.7c-0.2-3.9-0.5-7.9-0.1-11.8c0.4-5,1.1-10,2.9-14.8c1.4-3.8,3-7.4,5-10.9
			c3.1-5.2,7.2-9.8,11.8-13.7c3-2.7,6.5-5,10.2-6.5c3.8-1.5,7.8-2.7,11.9-3.1c3.2-0.3,6.4-0.6,9.6-0.7c6.5-0.1,13,1.4,19.5,1.8
			c3.8,0.2,7.7,0.3,11.5-0.7C330.8,55.3,334.8,53.6,338.8,51.7z"/>
		<path class="st7" d="M384,109.9c2.4-0.5,5.1-0.5,7.3,0.6c1.9,0.9,3.8,2,5.1,3.6c1.4,1.7,2.9,3.5,3.6,5.7c1.3,3.8,2.2,7.8,1.6,11.8
			c-0.4,2.8-1,5.6-2.1,8.2c-1.8,4.4-4.2,8.5-6.7,12.5c-2.7,4.1-6,7.9-9.3,11.5c-5.1,5.3-11.9,8.9-19,10.6c-0.7,0.1-1.3,0.1-2,0.1
			c0.2-1.4,0.5-2.8,0.7-4.2c0.8-4.3,1.4-8.6,2.4-12.8c1.2-4.9,2-9.9,2.6-14.9c0.4-3.4,1-6.7,1.4-10.1c0.3-3,1-5.9,1.2-8.9
			c0.1-1.5,0.4-3,1-4.4c1.5-2.2,3.4-4.2,5.4-5.9C379.2,111.6,381.6,110.4,384,109.9z"/>
		<path class="st7" d="M236.9,123.1c0.5-0.8,1.2-1.4,2-1.9c1.4-0.2,2.8,0.2,4.2,0.3c0,0.3,0,0.6,0,0.8c0.6-0.1,1.5-0.6,2,0.1
			c0.6,0.9,0.7,2,1,3.1c0.8,2.9,1.5,5.9,1.7,9c0.1,3.4,0.7,6.8,0.6,10.2c0.3,3.8,0.7,7.7,0.8,11.5c0.1,1.4-0.4,2.7-0.4,4.1
			c0.1,1.1,1.3,1.2,2.1,1.6c0.4,1.3,0.8,2.6,0.9,4c-0.8-0.8-1.4-1.9-2.2-2.7c-1.1-1.3-2.5-2.3-3.6-3.5c-1.3-1.3-2.8-2.6-4.4-3.6
			c-1.2-0.8-2.6-1.4-3.5-2.6c-0.6-0.7-0.3-1.7-0.5-2.5c-0.4-2.7-0.9-5.4-0.9-8.2c-0.4-5.1-0.5-10.2-0.3-15.4
			C236.6,125.9,236.5,124.4,236.9,123.1z"/>
		<path class="st6" d="M259.1,180.8c0.7,0.7,1.3,1.5,1.8,2.3c0.9,1.5,2.1,2.7,3.1,4.1c1.5,2,2.6,4.2,3.9,6.3
			c1.2,1.9,2.6,3.7,3.7,5.6c2,3.3,4.5,6.3,6.9,9.3c1.8,2.1,3.6,4.3,5.7,6c2.2,1.9,4.6,3.6,7,5.3c2.2,1.5,4.3,3,6.8,3.9
			c2.4,0.9,4.8,1.7,7.4,2c3.4,0.5,6.9,0.1,10.3-0.3c3-0.6,5.9-1.7,8.6-3.2c2.4-1.2,4.8-2.4,7.1-3.6c2.1-1.1,3.9-2.6,5.8-4.1
			c1.4-1.2,2.8-2.3,4.2-3.5c1.9-1.7,3.7-3.6,6-4.7c-0.2,0.5-0.5,1-0.7,1.5c-0.4,2.3-1.2,4.4-2.2,6.5c-2.1,4.6-4.8,8.9-8.5,12.4
			c-5.1,4.9-10.6,9.5-16.3,13.5c-4.3,2.9-8.7,5.7-13.2,8.2s-9.2,4.8-13.6,7.5c-3.6,2.3-7.2,4.6-10.3,7.6c-3.5,3.2-6.6,6.8-9.3,10.7
			c-3.7,5.3-7.1,10.7-10.9,16c-2.8,4.1-5.7,8.1-8.9,12c-5.7,7.3-12.6,13.7-20.4,18.5c-2.5,1.6-5.1,3.1-7.7,4.6
			c-3.1,1.8-6.6,2.7-10,3.7c0-7.4,0.1-14.8,0.7-22.2c0.4-2.8,0.3-5.7,0.6-8.6c0.1-0.7,0.3-1.7,1.2-1.8c1.4,0.2,2.7,0.9,4.1,1
			c2.6,0.2,5.3-0.1,7.8-0.9c2.9-0.8,5.7-2.1,8.4-3.5c4.5-2.8,8.4-6.6,11-11.2c6.8-12.5,11.6-26.1,13.9-40.1c1.4-7.4,2-15,2-22.5
			c0-5.8,0-11.5-0.6-17.3c-0.1-1.5-0.8-2.8-0.9-4.3c-0.3-1.9-0.4-3.7-0.8-5.6C262.1,188.3,259.9,184.8,259.1,180.8z"/>
		<path class="st5" d="M215.5,367.1c0.8,5.8,1.6,11.7,3.4,17.4c1.5,5.5,3.7,10.7,5.6,16c1.1,3,2.7,5.8,3.9,8.7
			c2,4.8,4.9,9.2,7.4,13.7c2.7,4.2,5.3,8.3,8.3,12.3c1.6,2.2,3.1,4.4,4.8,6.5c1.3,1.7,2.7,3.4,4.6,4.4c0.6,0.3,1,0.9,1.5,1.4h2.8
			c0.2-0.1,0.3-0.3,0.5-0.4c1.9-1.9,3.5-4.2,5.2-6.3c1.3-1.6,2.7-3.1,3.9-4.8c1.8-2.4,3.9-4.7,5.8-7.1c3.3-4.4,7-8.5,10.4-12.9
			c5-5.8,9.7-11.9,14.6-17.8c3-3.8,6-7.5,9-11.3c2-2.5,4.3-4.9,6.3-7.4c3.4-4,6.6-8.2,10-12.2c3.2-3.8,6.5-7.6,9.8-11.3
			c3.5-4,7.3-7.7,10.9-11.6c6.6-7,13.7-13.5,21.1-19.7c3.7-3.1,7.9-5.7,11.9-8.4c1.2-0.8,2.6-1.4,3.7-2.3c0.7-1.5,0-3.4-1.2-4.4
			c-2-1.8-3.5-4-5.2-6c-1.6-1.9-3-3.9-4.4-6c-1.7-2.6-3.7-5-5.3-7.6c-1.3-2-2.3-4.1-3.4-6.2c-2.6-4.5-4.4-9.4-6.2-14.3
			c-1.9-4.5-3-9.3-4.3-14c-1.2-4.4-1.7-9-2.4-13.6c-0.5-3.3-0.7-6.6-1.1-10c-0.2-3-0.7-6-0.9-9c0-2.7-0.2-5.3-0.2-8
			c0-2.4-0.2-4.8,0-7.2c-0.4,2.3-1.3,4.4-2.2,6.5c-2.1,4.5-4.8,8.9-8.5,12.4c-5.1,4.9-10.6,9.5-16.3,13.5c-4.3,2.9-8.7,5.7-13.2,8.2
			s-9.2,4.8-13.6,7.5c-3.6,2.3-7.2,4.6-10.3,7.6c-3.5,3.2-6.6,6.8-9.3,10.7c-3.7,5.3-7.1,10.7-10.9,16c-2.8,4.1-5.7,8.1-8.9,12
			c-5.7,7.3-12.6,13.7-20.4,18.5c-2.5,1.6-5.1,3.1-7.7,4.6c-3.1,1.8-6.6,2.7-10,3.7c-0.5,6.1-0.1,12.3-0.5,18.4
			c-0.2,3.1-0.2,6.2-0.2,9.2C214.9,360.2,215,363.7,215.5,367.1z"/>
	</g>
	<g>
		<path class="st8" d="M295.4,18.8c1.2,0,2.4-0.3,3.6-0.3c2.9,0,5.8-0.3,8.8-0.2c6.6-0.1,13.3,0.3,19.7,1.8c4.4,1.1,8.8,2.1,13,3.7
			c1.2,0.5,2.6,1,3.2,2.3c-1.5,0.1-2.6-0.8-3.9-1.3c-3.9-1.5-8.1-2.3-12.1-3.2c-5.8-1.2-11.8-2.1-17.8-2.2c-4.4-0.2-8.9,0-13.3,0.1
			c-1.4-0.1-2.8,0-4.2,0c0.3-0.1,0.6-0.3,0.9-0.4C293.9,18.8,294.7,18.9,295.4,18.8z"/>
		<path class="st9" d="M287.3,19.4c2-0.2,3.9-0.5,5.9-0.4c-0.3,0.1-0.6,0.3-0.9,0.4c1.4,0,2.8,0,4.2,0c-0.9,0.4-1.9,0.2-2.8,0.3
			c-6.2,0.5-12.4,1.1-18.4,2.8c-1.7,0.4-3.3,1.1-4.9,1.6c0-0.2,0.1-0.5,0.1-0.6C275.8,21.2,281.6,20.1,287.3,19.4z"/>
		<path class="st10" d="M285.7,25.5c7-1.4,14.1-1.7,21.2-0.9c4,0.4,8,0.9,11.9,1.7c2.7,0.6,5.5,1,8.2,1.4c4.5,0.9,9.1,1.8,13.6,2.5
			c2.9,0.3,5.9,0.8,8.8,0.2c0.1,0.2,0.1,0.4,0.2,0.6c-1.2,0.4-2.5,0.8-3.8,0.8c-5,0.1-10-1.1-14.9-2c-3.3-0.7-6.5-1.1-9.8-1.7
			c-6.5-1.1-13.1-2-19.7-2.2c-11.7-0.3-23.3,2.5-34.1,6.9c-3.1,1.3-6.1,2.8-8.8,4.9c-0.7,0.6-1.4,1.2-2.3,1.5
			c0.2-1.3,1.5-1.8,2.3-2.5c4.2-3.4,9.3-5.5,14.3-7.4C277,27.8,281.3,26.4,285.7,25.5z"/>
		<path class="st11" d="M282.2,35.2c6.5-0.6,13-0.7,19.5-0.1c4,0.3,8.1,0.6,12.1,1.1c4.8,0.4,9.7,0.8,14.5,1.2
			c2.7,0.1,5.5,0.2,8.2,0.3c2,0,4-0.2,6-0.3c0.9,0,1.9,0,2.8,0c-0.3,0.2-0.6,0.3-0.8,0.5c-1.5,0.5-3.1,0.5-4.7,0.7
			c-3.4,0.1-6.7,0.3-10.1,0.1c-4,0-8.1-0.5-12.1-0.7c-3.9-0.2-7.8-0.8-11.7-1c-7.6-0.5-15.3-0.7-22.9,0c-6.4,0.7-12.9,1.2-19.2,3
			c-4,1.2-7.9,2.9-11.4,5c-3.8,2.4-7.2,5.4-10.4,8.6c-1.6,1.4-2.9,3-4.4,4.5c-0.2-0.2-0.4-0.4-0.6-0.6c3.1-3.3,6.3-6.6,9.6-9.7
			c3.1-2.9,6.6-5.3,10.5-7c3.4-1.6,6.9-2.9,10.7-3.6C272.5,36.1,277.3,35.6,282.2,35.2z"/>
		<path class="st12" d="M353.3,34.7c0.2,0,0.6-0.1,0.8-0.1c-0.1,0.7-0.3,1.4-0.7,2c-2.5,3.8-4.9,7.6-7.9,11
			c-1.5,1.6-3.1,3.3-5.1,4.2c-0.1-0.1-0.2-0.3-0.2-0.5c1.5-1,3-2.1,4.1-3.6C347.7,43.7,350,38.9,353.3,34.7z"/>
		<path class="st13" d="M342.5,37.4c1.3-0.5,2.6-0.5,3.9-0.5c0.1,1.1-1.3,0.9-2,1.1c0.3-0.2,0.6-0.3,0.8-0.5
			C344.3,37.4,343.4,37.4,342.5,37.4z"/>
		<path class="st14" d="M363.4,39.3c1.1,0.7,1.9,1.7,3,2.5c5.1,3.7,9.2,8.6,12.9,13.7c2.8,3.8,5.1,8.1,7,12.5
			c2.1,5.2,4,10.6,5.3,16.1c0.8,3.2,1.4,6.5,2,9.8c0.4,2.1,0.8,4.2,1,6.4c0,0.7,0,1.4-0.1,2.1c-0.1-0.9-0.2-1.8-0.6-2.7
			c-0.6-1.7-0.7-3.6-1.2-5.4c-1-4.8-2.4-9.5-3.9-14.2c-1.9-5.3-3.6-10.7-6.2-15.7c-2.3-4.5-5.2-8.6-8.3-12.6
			c-2.1-2.6-4.2-5.1-6.6-7.4c-1.3-1.2-2.8-2.4-3.9-3.8C363.4,40.2,363.5,39.7,363.4,39.3z"/>
		<path class="st15" d="M340.6,44.3c1-0.9,2.2-1.5,3.6-1.7c-0.5,1.1-1.7,1.6-2.7,2.2c0-0.1,0-0.4,0-0.6
			C341.2,44.2,340.9,44.2,340.6,44.3z"/>
		<path class="st10" d="M356.7,42.8c1.1,0.1,1.9,1,2.7,1.7c2.5,2.5,4.9,5,6.9,7.9c3.7,5.2,6.6,10.8,9.2,16.6
			c2.6,6.1,4.8,12.4,6.1,18.8c0.7,3.4,1.5,6.9,1.9,10.3c0,0.9,0,1.8-0.1,2.7c-0.1-0.9-0.2-1.8-0.6-2.7c-0.5-1.1-0.6-2.4-0.9-3.5
			c-1.2-5.1-2.4-10.2-4.3-15.1c-3.4-9.2-7.5-18.1-13-26.2c-1.8-2.7-3.9-5.1-5.9-7.6C358.1,44.7,357.1,44,356.7,42.8z"/>
		<path class="st16" d="M328.4,46.8c4.2-0.1,8.4-0.9,12.2-2.6c0.3,0,0.6,0,0.9-0.1c0,0.1,0,0.4,0,0.6c-2.8,1.6-6,2.3-9.1,3
			c-5.3,0.9-10.8,0.7-16.2,0.6c-3.2,0-6.4-0.3-9.6-0.3c-3.7-0.3-7.5-0.5-11.2-0.5c-3.6-0.3-7.3-0.2-10.9,0.1c-2.7,0.2-5.3,0.3-8,0.6
			c-3.5,0.4-7,0.6-10.4,1.7c-4.4,1.3-8.6,3-12.6,5.2c-4.1,2.1-7.6,5-11.1,7.8c-1.8,1.5-3.6,3-5.1,4.8c-0.6,0.8-1.3,1.6-2.1,2.3
			c-0.3,0.2-0.5,0.4-0.8,0.5c0.2-0.4,0.4-0.9,0.6-1.3c0.6-0.8,1.3-1.4,1.9-2.2c1.7-2.3,3.9-4,5.9-5.9c3.2-2.7,6.4-5.5,10.1-7.4
			c4.1-2.3,8.4-4.1,12.9-5.5c3.8-1.2,7.8-1.5,11.8-1.9c4.5-0.4,9-0.7,13.5-0.9c3.7,0.1,7.3,0.3,11,0.5c5.6,0.5,11.1,0.8,16.7,0.9
			C322.1,46.9,325.3,47.1,328.4,46.8z"/>
		<path class="st10" d="M349.9,49.5c1,0.6,1.7,1.7,2.4,2.6c2.4,3.4,5.1,6.5,7.2,10c3.6,6.1,6.9,12.5,9,19.3c0.8,2.5,1.5,5,2.1,7.4
			c1,3.8,1.6,7.7,2.8,11.4c0.3,1,0.8,2,1,3.1c0,0.4,0,0.7,0,1.1c-0.3-0.7-0.7-1.3-1-2c-2.5-5.1-3.5-10.7-5.3-16.1
			c-1.8-6.6-4.3-13-7.6-19c-2-3.8-4.1-7.6-6.7-11.1C352.5,54.2,350.7,52.1,349.9,49.5z"/>
		<path class="st17" d="M228.4,67.5c2.7-3.4,5.4-7,8.5-10.1c0.2,0.2,0.4,0.4,0.6,0.6c-0.6,0.9-1.4,1.7-2.1,2.4
			c-1.5,1.6-2.8,3.2-4.2,4.9c-1,1.1-1.8,2.4-3,3.4C228,68.2,228.1,67.8,228.4,67.5z"/>
		<path class="st18" d="M233.5,71c0.4-0.6,0.9-1.3,1.6-1.7c-0.2,0.4-0.4,0.8-0.6,1.3c0.3-0.2,0.5-0.3,0.8-0.5
			c-0.5,0.9-1.1,1.7-1.7,2.5c-4.2,5.7-8,11.6-11.2,17.9c-0.5,0.8-0.8,1.9-1.7,2.4c0.1-0.6,0.4-1.2,0.7-1.8c1.4-2.5,2.5-5.1,4-7.5
			C227.9,79.1,230.7,75,233.5,71z"/>
		<path class="st19" d="M329,89.7c3.1-0.9,6.4-1.5,9.7-1.5c1.3,0,2.7-0.1,3.9,0.5c-0.3,0.4-0.7,0.8-1.3,0.7
			c-4.6-0.2-9.2,0.8-13.6,2.3c-2.3,0.7-4.5,1.9-6.8,2.8c-0.1-0.1-0.4-0.2-0.6-0.3C322.6,91.6,325.9,90.5,329,89.7z"/>
		<path class="st20" d="M327.7,99.3c4.4-2.1,9.4-3,14.2-2.8c4.3-0.1,8.6,0.6,12.4,2.8c1.2,0.7,2.4,1.2,3.4,2.1
			c0.9,0.8,2,1.6,2.6,2.7c-0.5,0.2-0.9,0.3-1.4,0.3c-5.2,0-10.5-0.2-15.6,0.7c-4.4,0.6-8.5,2.1-12.7,3.5c-2.3,0.8-4.7,1.4-6.9,2.4
			c-1.1,0.5-2.3,0.3-3.4,0.3c-1.3,0-2.4-1.4-2-2.7c0.3-2.5,2-4.5,3.9-6C323.9,101.2,325.9,100.4,327.7,99.3z"/>
		<path class="st15" d="M382.9,98.2c0.4,0.8,0.5,1.8,0.6,2.7c0.1-0.9,0.1-1.8,0.1-2.7c0.4,1.1,0.4,2.2,0.6,3.3
			c0.2,0.9,0.3,1.8,0.3,2.8c-0.2,0-0.5-0.1-0.7-0.1C383.5,102.1,382.8,100.2,382.9,98.2z"/>
		<path class="st20" d="M262.8,100.2c2.7-0.9,5.6-1.2,8.5-1.5c3.3-0.3,6.6,0,9.9,0.3c2.3,0.2,4.4,1.2,6.6,1.9
			c2.3,0.9,4.5,2.2,6.3,3.9c1,1,1.9,2.3,1.9,3.8c0,1.1-1,2.1-2.2,2c-3.3-0.3-6.3-1.7-9.5-2.1c-4.2-0.6-8.5-1.1-12.7-1.7
			c-2.9-0.4-5.9-0.4-8.9-0.3c-2.2,0.2-4.4,0.5-6.7,0.6c-1.6,0-3.3,0.1-4.9,0C254.1,103.7,258.4,101.6,262.8,100.2z"/>
		<path class="st21" d="M393.9,99.5c0.4,0.8,0.5,1.8,0.6,2.7c0.1-0.7,0.1-1.4,0.1-2.1c0.4,1.1,0.4,2.2,0.5,3.3
			c0.2,1.4,0.3,2.7,0.2,4.1c-0.1,0-0.4-0.1-0.6-0.1C394.5,104.8,394,102.2,393.9,99.5z"/>
		<path class="st22" d="M373.5,102.6c0.4,0.6,0.7,1.3,1,2c0-0.4,0-0.7,0-1.1c0.8,1.3,1.1,2.7,1.7,4.1c0.5,1.5,1.2,2.9,1.4,4.4
			c-1-0.6-1.1-1.9-1.6-2.8C375.2,107,374,104.9,373.5,102.6z"/>
		<path class="st23" d="M342.6,116.8c1-0.2,2.1,0.3,2.5,1.3c0.5,1.2,0.3,2.6,0.2,3.8c-0.2,1.2-0.5,2.6-1.7,3.2
			c-1.1,0.7-2.7,0.2-3.3-0.9c-1-1.7-0.9-3.9,0-5.6C340.8,117.7,341.7,117,342.6,116.8z"/>
		<path class="st23" d="M270.8,119.5c0.9-0.5,2.1-0.2,2.8,0.5c0.9,0.9,1.2,2.2,1.3,3.4c0,1.2-0.1,2.5-0.5,3.7
			c-0.4,1-1.4,2.1-2.6,1.9c-1,0-1.8-0.9-2.2-1.7c-0.8-1.6-0.8-3.5-0.4-5.2C269.4,121.1,269.8,120,270.8,119.5z"/>
		<path class="st24" d="M376.2,127c1.3-1.6,3.4-2.6,5.5-2.8c2-0.1,4.1,0.7,5.3,2.4c1.2,1.7,1.5,3.9,1.4,6c-0.1,3-1.1,5.8-2.5,8.5
			c-2.3,4.6-6,8.3-9.9,11.8c0.1-0.4,0.1-0.8,0.2-1.1c3.4-3.6,6.8-7.5,8.7-12.1c1.2-2.9,1.9-6.2,1.1-9.3c-0.3-1.2-0.9-2.5-2.1-3.1
			c-1.3-0.8-2.9-0.7-4.2-0.2c-1.3,0.4-2.3,1.3-3.5,1.8C375.4,128.4,375.9,127.5,376.2,127z"/>
		<path class="st25" d="M337.4,127.7c1.1-0.1,2.1,0.3,3.2,0.3c2.2,0.1,4.3,0,6.5-0.4c0,0.2,0,0.5,0,0.6c-2,0.5-4.1,0.8-6.2,0.8
			c-1.1,0-2.3-0.1-3.2-0.7C337.4,128.2,337.3,128,337.4,127.7z"/>
		<path class="st26" d="M238,130.6c1.5-0.1,2.6,1.1,3.4,2.3c1.3,2.3,1.8,4.9,2.4,7.4c0.8,3.6,1.6,7.3,1.9,11c0,1.2-0.1,2.4-0.1,3.7
			c-0.2-1.1-0.4-2.3-0.7-3.4c-1.3-6.1-2.3-12.3-5-18C239.4,132.6,238.1,131.9,238,130.6z"/>
		<path class="st25" d="M267.5,131.2c3.1,1,6.5,0.7,9.5-0.5c0,0.2-0.1,0.5-0.1,0.6c-2.1,1.1-4.4,1.5-6.8,1.4c-0.9,0-1.8-0.4-2.6-0.8
			C267.5,131.7,267.5,131.3,267.5,131.2z"/>
		<path class="st27" d="M308.3,135.6c0.2,0,0.6,0,0.8,0c0.4,1.3,0,2.7-0.3,4.1c-0.6,2.6-1.5,5.2-2.4,7.8c-0.8,2.5-1.5,5-2.3,7.6
			c-0.2,0.6-0.3,1.5-1.1,1.7c0.3-3.4,1.4-6.8,2.2-10.1C306.2,142.9,307.4,139.3,308.3,135.6z"/>
		<path class="st28" d="M356.5,137.7c0.4-0.5,1.1-0.4,1.6-0.5c0,0.9-0.7,1.6-1.3,2.2c-1.1,1.1-2.2,2.1-3.4,3.2
			c-2.5,1.9-4.7,4.4-7.7,5.3c0-0.5-0.3-1.1,0.3-1.5c1.9-1.7,4-3.2,5.9-4.8c-0.1-0.1-0.3-0.4-0.4-0.5c0.3,0,0.7,0,1,0
			C353.9,140,355.2,138.9,356.5,137.7z"/>
		<path class="st7" d="M271.9,138.1c3.5-0.5,7.1,0.4,10.3,1.9c2.4,1.4,4.5,3.6,5.5,6.2c1.6,3.8,0.9,8.3-1,11.9
			c-1.8,3.5-4.6,6.7-8.4,8c-2.7,1.1-5.9,0.9-8.5-0.4c-3.3-1.4-6-4.1-7.4-7.4c-1.3-2.6-1.7-5.6-1.1-8.5c0.5-2.7,1.6-5.3,3.3-7.4
			c0.9-1.1,2.2-1.9,3.3-2.8C268.9,138.8,270.4,138.3,271.9,138.1z"/>
		<path class="st7" d="M340.6,139c3.1-0.8,6.3-0.2,9.2,1c0.6,0.3,1.3,0.5,1.7,1.1c0.1,0.1,0.3,0.4,0.4,0.5c-2,1.6-4,3.2-5.9,4.8
			c-0.6,0.3-0.3,1-0.3,1.5c3.1-1,5.3-3.4,7.7-5.3c1.6,1.9,2.6,4.2,2.6,6.7c0.2,4-0.7,8.2-3.3,11.3c-2.2,2.7-5.2,4.7-8.7,5.3
			c-4.2,1.1-8.9-0.4-12.1-3.4c-1.6-1.7-3-3.8-3.5-6.1c-0.8-3.7,0-7.7,2.1-10.8c1.2-1.7,2.9-3.1,4.7-4.1
			C337,140.5,338.6,139.3,340.6,139z"/>
		<path class="st29" d="M218.4,140.7c0.2,0.3,0.5,0.6,0.6,0.9c1.1,3.7,3.3,6.8,5.3,10c-0.3,0.3-0.6,0.6-0.8,0.8
			c-0.8-0.9-1.4-2.1-2-3.2C220.1,146.6,218.6,143.8,218.4,140.7z"/>
		<path class="st30" d="M398.3,149.3c0.2,0,0.5-0.1,0.6-0.1c-0.5,3.2-0.9,6.5-1.8,9.7c-1.6,6.2-2.9,12.5-4.7,18.6
			c-1.5,5.3-3.3,10.4-5,15.6c-1.1,3.5-1.9,7.1-3.1,10.6c0-0.5-0.1-1-0.1-1.5c1-5.4,2.5-10.6,4.1-15.8c1.8-6.1,3.7-12.2,5.2-18.4
			c1.2-5.1,2.7-10,3.8-15.1C397.6,151.6,397.9,150.4,398.3,149.3z"/>
		<path class="st31" d="M245.7,151.3c0.6,1.7,0.5,3.5,0.5,5.2c-0.3,0-0.6,0-0.9,0c0-1.6-0.4-3.2-0.4-4.9c0.3,1.1,0.5,2.2,0.7,3.4
			C245.6,153.8,245.7,152.6,245.7,151.3z"/>
		<path class="st10" d="M223.4,152.5c0.3-0.3,0.6-0.6,0.8-0.8c1.5,2.1,3,4.2,4.9,5.9c2.6,2.3,5.2,4.7,7.7,7.1
			c3.4,3.7,6.9,7.4,9.4,11.8c2,3.5,3.7,7.2,4.9,11c1.4,5,2.3,10.2,2.7,15.4c0.3,4.8,0.2,9.6,0,14.4c-0.6,8.8-2.4,17.5-5.4,25.7
			c-1.4,3.6-3.1,7-4.9,10.5c-0.6,1-1,2-1.7,2.9c-0.2,0.2-0.5,0.4-0.7,0.6c0-0.2,0.1-0.5,0.2-0.7c2.7-5.9,5.7-11.8,7.3-18.2
			c2.5-8.9,3.7-18.2,3.6-27.5c0-4.2,0.1-8.5-0.6-12.6c-0.8-5-1.8-10-3.7-14.7c-1.4-3.1-2.8-6.2-4.8-8.9c-2.3-3.4-5.2-6.3-7.9-9.3
			c-1-1.2-2.3-2.1-3.4-3.2c-1.7-1.6-3.6-3-5-4.8C225.5,155.6,224.4,154.1,223.4,152.5z"/>
		<path class="st32" d="M372.3,154.8c1.5-0.9,2.7-2.1,4-3.1c-0.1,0.4-0.1,0.8-0.2,1.1c0,0.3-0.3,0.5-0.5,0.7c-1,0.9-2.1,1.6-3.4,2
			C372.2,155.3,372.2,155,372.3,154.8z"/>
		<path class="st33" d="M314.3,153.8c0.6-0.7,1.6-0.5,2.3,0c1,0.6,1.6,1.9,1.4,3.1c-0.3,1.8-1.5,3.2-3.1,4c-1,0.4-2.1,0.3-3.2,0.5
			c0.3-0.2,0.6-0.5,0.8-0.7c-0.4-0.1-0.7-0.3-1-0.4c0.9-0.1,1.7,0,2.6-0.2c1.2-0.7,2.4-1.8,2.5-3.3
			C316.5,155.5,315.2,154.6,314.3,153.8z"/>
		<path class="st34" d="M367.7,157.8c0.7-0.5,1.6-0.9,2.5-0.9c2.6-0.1,5.4,0,7.6,1.4c0,0.2,0,0.6,0,0.8c-1.4-0.3-2.8-0.7-4.3-0.7
			c-1.6-0.1-3.2,0.3-4.9,0.3C368,158.8,367.9,158.2,367.7,157.8z"/>
		<path class="st35" d="M310.2,157.7c1.3-0.2,2.8-0.4,4.1,0.1c-0.1,0.5,0,1.1-0.6,1.2c-1.3,0.4-2.8,0.6-4.2,0.5
			c-0.6,0-1-0.7-0.7-1.2C309,157.8,309.7,157.8,310.2,157.7z"/>
		<path class="st36" d="M218.6,158.3c0.2,0,0.5,0,0.6,0c0.8,2.7,3.2,4.4,4.3,7c-0.3-0.1-0.5-0.1-0.8-0.2c0,0.2,0,0.5,0,0.7
			c-0.8-0.9-1.3-2-1.9-3C219.9,161.5,218.7,160.1,218.6,158.3z"/>
		<path class="st37" d="M222.7,165.2c0.3,0.1,0.5,0.1,0.8,0.2c5.7,8.8,9.7,18.7,11.7,28.9c1.3,5.9,1.9,11.9,2.2,18
			c0.3,5.7,0.6,11.5,0.2,17.2c-0.4,8-1.6,16-4.3,23.6c-1.4,3.9-3.5,7.6-5.6,11.1c-2,3.5-4.2,6.9-6.6,10.2c-0.2,0-0.5,0-0.6,0
			c0.1-0.3,0.2-0.6,0.3-0.9c1.3-2.2,2.8-4.4,4-6.7c2.9-5.3,6.1-10.6,7.6-16.6c2.6-8.8,3.6-18.1,3.5-27.3c-0.2-9.2-0.6-18.5-2.3-27.6
			c-0.9-5.2-2.5-10.2-4.3-15.2c-1.6-4-3.4-8-5.4-11.8c-0.4-0.8-0.9-1.6-1.2-2.4C222.7,165.7,222.7,165.4,222.7,165.2z"/>
		<path class="st25" d="M312.5,160.8c-0.4-0.1-0.7-0.3-1-0.4c-1.3,0-2.5,0.2-3.8,0.3c-2,0.2-4,0.1-6.1,0.1c-0.8,0-1.5-0.3-2.1-0.7
			c0-0.9,0-1.8,0.3-2.6c2.3-7.7,5.2-15.3,6.3-23.4c0.5-3.8,1.1-7.6,0.6-11.4c-0.3-2.8-1-5.8-2.8-8.1c-0.2-0.4-0.7-0.4-1-0.5
			c0.7,1.6,1.5,3.3,1.8,5c0.5,3.3,0.5,6.6,0.3,9.9c-0.3,4.5-1,8.9-2.2,13.2c-1.2,4.8-3.1,9.4-4.3,14.1c-0.3,1.4-1.1,3-0.2,4.4
			c1,1.4,2.9,1.4,4.4,1.5c1.7,0.1,3.4,0,5.1-0.2c0,2-0.1,4.1-0.1,6.1c0,1.4-0.1,2.7-0.3,4.1c0.1,0,0.4-0.1,0.6-0.2
			c0.4-1.6,0.7-3.2,0.7-4.8c0.5-1.8,0.5-3.6,0.4-5.4c0.5-0.1,1-0.1,1.5-0.2c0,1.1-0.1,2.3,0,3.4c-0.1,2.4,0.1,4.7,0.3,7.1
			c0.1,0,0.4,0.1,0.6,0.1c0-1.2,0.1-2.4,0-3.6c0.3-0.6,0.4-1.2,0.5-1.8c0.1-1.7,0.1-3.5,0-5.2C311.9,161.3,312.2,161.1,312.5,160.8z
			"/>
		<path class="st7" d="M306.3,173.7c8.1-0.4,16.2-1.8,24.4-1.5c1,0.1,1.9,0.3,2.7,0.9c0.4,0.4,0.1,1-0.1,1.4
			c-0.4-0.3-0.8-0.9-1.4-0.7c-1.3,0.3-2.5,0.9-3.7,1.2c-4.6,1.3-9.2,2.5-14,3c-3.6,0.4-7.3,0.8-10.9,0.2c-3.2-0.5-6.5-0.6-9.6-1.6
			c-2.1-0.6-4.1-1.2-6.2-1.9c1.3-1.4,3.4-1.1,5-1.1C297.2,173.4,301.7,173.6,306.3,173.7z"/>
		<path class="st38" d="M332,173.8c0.6-0.2,1,0.4,1.4,0.7l-0.2,0.2c-0.2,0.2-0.3,0.3-0.5,0.5c-1.7,0.4-3.2,1.4-5,1.7
			c-2.5,0.5-4.9,1.3-7.5,1.6c-4,0.4-8,1.1-12,1.2c-4.9,0-9.9,0-14.6-1.6c-1-0.3-2-0.5-3-0.8c-1.3-0.4-2.4-1.1-3.6-1.8
			c0.2-0.3,0.3-0.6,0.6-0.8c2,0.7,4.1,1.3,6.2,1.9c3.1,0.9,6.4,1.1,9.6,1.6c3.6,0.5,7.3,0.1,10.9-0.2c4.8-0.5,9.4-1.7,14-3
			C329.5,174.7,330.7,174.1,332,173.8z"/>
		<path class="st39" d="M332.7,175.2c0.1-0.2,0.3-0.4,0.5-0.5c0.3,0.2,0.5,0.3,0.8,0.5c0,0.6-0.2,1.2-0.6,1.7
			c-1.2,1.7-2.5,3.3-4,4.8c-0.4,0.4-0.9,0.4-1.4,0.5c0.4-1.3,1.8-2,2-3.4C330.9,177.6,331.9,176.4,332.7,175.2z"/>
		<path class="st7" d="M327.7,176.9c1.7-0.4,3.2-1.4,5-1.7c-0.8,1.2-1.7,2.4-2.7,3.6c-1.3,1-2.4,2.2-4,2.8
			c-3.4,1.3-6.7,2.9-10.4,3.2c-5.1,0.6-10.4,0.8-15.4-0.4c-1.7-0.4-3.5-0.7-5-1.5c-3.3-1.7-6.1-4.2-8.2-7.3c1.2,0.6,2.3,1.4,3.6,1.8
			c1,0.3,2,0.5,3,0.8c4.7,1.6,9.7,1.6,14.6,1.6c4,0,8-0.7,12-1.2C322.8,178.2,325.2,177.4,327.7,176.9z"/>
		<path class="st40" d="M258.9,180.5c0.2,0,0.5,0,0.7,0c0.8,1.4,1.6,2.9,2.5,4.3c0.2,0.3,0.4,0.6,0.4,1c-0.1,0.3-0.3,0.6-0.5,0.9
			c-0.6-0.7-1-1.5-1.5-2.3C260,183.2,259.2,182,258.9,180.5z"/>
		<path class="st41" d="M311.5,181.6c2.4,0.2,4.8-0.4,7.1-0.7c-0.1,0.4-0.1,0.9-0.6,1c-2.6,0.9-5.4,1.3-8.2,1.1
			c-1.1-0.1-2.4-0.2-3.3-0.9C308.2,181.8,309.8,181.4,311.5,181.6z"/>
		<path class="st42" d="M220.3,182.2c0.2-0.1,0.4-0.1,0.6-0.2c0.8,2.3,1.9,4.6,2.5,7c2.1,6,3,12.4,3.7,18.7
			c1,10.6-0.1,21.3-2.5,31.7c-2.2,9.3-6.7,17.8-11.2,26.2c-0.2-0.2-0.4-0.4-0.6-0.6c3.5-6.7,6.9-13.6,9.1-20.9
			c2.2-7.3,3.2-14.9,3.7-22.5c0.5-7.5-0.1-15-1.2-22.5C223.6,193.3,221.7,187.8,220.3,182.2z"/>
		<path class="st43" d="M262.1,186.8c0.2-0.3,0.3-0.6,0.5-0.9c1.3,1.7,2.4,3.6,3.6,5.4c4,5.8,8.2,11.3,12.6,16.7
			c2.3,2.8,5,5.3,7.7,7.7c2.3,2.2,4.9,3.9,7.5,5.7c2.1,1.4,4.5,2.2,6.8,3.1c1.7,0.6,3.4,0.7,5.1,1.2c3.8,0.9,7.6-0.1,11.4-0.6
			c4.4-0.7,8.4-3,12.3-5c0.8-0.3,1.7-0.4,2.5-0.4c-4.5,2.7-9,5.5-14.2,6.6c-3.8,0.9-7.8,1.6-11.7,1c-2-0.6-4.2-0.8-6.1-1.5
			c-2.4-0.8-4.8-1.6-6.9-3c-2.6-1.6-5.2-3.3-7.4-5.5c-2.2-2-4.3-4.1-6.4-6.3c-2.9-3.1-5.4-6.7-8-10.1
			C268.1,196.3,265,191.6,262.1,186.8z"/>
		<path class="st44" d="M305.7,193.3c3-0.5,6.1,0.2,9,0.6c1.8,0.4,3.7,0.5,5.3,1.4c-0.3,0.3-0.7,0.5-1.1,0.4
			c-2.9-0.4-5.9-0.9-8.8-1.1c-2.5-0.2-4.9,0.3-7.3,1c-1.5,0.5-2.8,1.2-4.3,1.5c0.6-0.9,1.5-1.5,2.6-1.8
			C302.7,194.7,304,193.6,305.7,193.3z"/>
		<path class="st45" d="M365.9,201.1c0.5-1.8,0.9-3.6,1.8-5.3c-0.1,2.9-0.8,5.8-1.5,8.6c-0.2,1.5-1.7,2.2-2.1,3.6
			c-0.1,0.2-0.2,0.5-0.4,0.8C364.2,206.1,365.1,203.6,365.9,201.1z"/>
		<path class="st46" d="M306.4,199.5c2.4-0.6,4.9-0.6,7.3,0c0,0.2-0.1,0.5-0.1,0.7c-1.3-0.1-2.6-0.3-3.9-0.1
			c-1.1,0.1-2.2,0.3-3.3,0.4C306.4,200.1,306.4,199.8,306.4,199.5z"/>
		<path class="st47" d="M383,206.2c0.3-1.4,0.5-2.8,1.2-4.1c0,0.5,0.1,1,0.1,1.5c0,0.7-0.2,1.4-0.4,2.2c-1.8,6.4-3.3,12.8-5.2,19.2
			c-0.1,0-0.4,0.1-0.5,0.2c0.7-2.8,1.6-5.4,2.2-8.2C381.2,213.3,382.2,209.8,383,206.2z"/>
		<path class="st48" d="M344.7,209.5c0.9-0.8,1.4-1.9,2.4-2.5c-0.4,1-1,1.9-1.7,2.7c-0.9,1.1-1.7,2.3-2.8,3.2
			c-2.6,2-5.3,3.9-8.2,5.6c-0.7,0.4-1.5,1-2.3,1.1c-0.9,0.1-1.7,0.2-2.5,0.4c4.3-2.3,8.5-4.9,12.1-8.2
			C342.7,211,343.8,210.4,344.7,209.5z"/>
		<path class="st49" d="M363.7,208.8c0.1-0.3,0.2-0.5,0.4-0.8c0.5,0.6,0.8,1.4,0.5,2.2c-1.7,6.4-3.6,12.7-5,19.1
			c-1.4,6.1-2.5,12.3-3.2,18.5c-0.1,1.1-0.2,2.2-0.5,3.3c-0.2,1-0.4,1.9-0.7,2.8c0.2-1.5,0.3-3,0.3-4.5c0-3.1,0.5-6.1,0.9-9.2
			c1-9.1,3.3-17.9,5.9-26.7C362.7,212,363,210.3,363.7,208.8z"/>
		<path class="st50" d="M355.2,250.7c0-0.4,0.2-0.8,0.3-1.1c0.1,1.5-0.1,3-0.3,4.5c0.2-0.9,0.5-1.9,0.7-2.8c0,3.3-0.5,6.5-0.6,9.8
			c-0.2,1.4,0,3-0.9,4.1c-0.1-1.9,0.2-3.7,0.3-5.6C354.6,256.5,355,253.6,355.2,250.7z"/>
		<path class="st51" d="M240.2,257.5c0.2-0.5,0.5-1,1-1.3c0,0.2-0.1,0.5-0.2,0.7c0.2-0.2,0.5-0.4,0.7-0.6c-0.6,1.9-1.9,3.4-2.8,5.1
			c-1.9,3-3.8,6-6,8.8c-0.5,0.6-1,1.2-1.7,1.5c1-1.7,2.4-3.1,3.4-4.8C236.6,263.9,238.6,260.8,240.2,257.5z"/>
		<path class="st52" d="M207.9,273.7c1.8-2.8,3.1-5.9,4.8-8.8c0.2,0.2,0.4,0.4,0.6,0.6c-0.5,1.4-1.4,2.6-2,3.9
			c-0.8,1.5-1.7,3-2.7,4.5C208.4,273.8,208.2,273.8,207.9,273.7z"/>
		<path class="st53" d="M218.5,276.7c0.1-1.4,1.3-2.4,2.3-3.3c-0.1,0.3-0.2,0.6-0.3,0.9c0.2,0,0.5,0,0.6,0
			C220.4,275.3,219.7,276.3,218.5,276.7z"/>
		<g>
			<path class="st54" d="M147.1,374.4c0,0.4,0.2,0.8,0.5,1.1c0-0.2,0-0.7,0.1-0.9c-0.5-6.7-0.2-13.4,0.5-20
				c0.7-6.4,1.7-12.8,3.1-19.1c1.5-6.4,3.4-12.7,5.1-19c0.3-0.9,0.5-1.9,0.5-2.8c-0.7,0.5-0.8,1.5-1,2.2c-2.2,7.3-4.6,14.7-6,22.2
				c-1.4,7.2-2.6,14.6-2.9,21.9c-0.1,3-0.4,6-0.1,9C146.9,370.9,146.7,372.7,147.1,374.4z"/>
			<path class="st54" d="M139.9,414.3c-1.8-6.5-3.6-13.1-4.2-19.9c0.1-1.9,0.1-3.9,0.3-5.8c-0.2,0-0.6,0-0.8,0c0,0.1,0,0.4,0.1,0.6
				c-1,2.6-0.7,5.6-0.5,8.3c0.7,8.2,3.5,16,6,23.9c1.8,5.6,3.6,11.2,5.8,16.7c0.6,1.3,0.9,2.7,1.8,3.9c0.5-0.6,0-1.4-0.2-2
				C145.1,431.5,142.4,422.9,139.9,414.3z"/>
			<path class="st54" d="M310.1,396.2c-3.4,3.7-6.7,7.5-10,11.4c-4,4.7-7.9,9.4-11.1,14.7c-0.5,0.8-1.3,1.6-0.8,2.6
				c0.3-0.4,0.6-0.7,0.9-1.1c4.6-7.2,10.3-13.6,15.9-20c3.1-3.5,6.5-6.8,8.9-10.8c0.5-0.7,1-1.5,1.1-2.4
				C313.1,392.2,311.8,394.3,310.1,396.2z"/>
			<path class="st54" d="M373.8,416c2.8-4.1,5.8-8,9.3-11.5c3-3.1,6.5-6.1,8-10.4c-1.2,0.3-1.7,1.4-2.4,2.2c-2.2,2.9-5,5.2-7.5,7.9
				c-1.8,1.9-3.3,4-4.8,6.1c-2.9,4-5.6,8.2-7.6,12.6c-0.3,0.5-0.3,1-0.4,1.6c0.4-0.2,0.7-0.5,0.9-1
				C370.5,420.9,372.1,418.4,373.8,416z"/>
			<path class="st54" d="M144.6,405.8c-0.2-0.9-0.4-1.9-0.9-2.8c-0.1-1.5-0.6-2.9-0.9-4.3c-1.4-6.9-2.5-13.8-2.6-20.9
				c-0.1-6.5,0.5-13,1.5-19.5c0.2-1.6,0.8-3.1,0.8-4.7c-1,0.6-1,1.8-1.3,2.8c-1.2,5.9-1.9,12-2,18.1c-0.1,6.7,0.6,13.5,2,20.1
				c0.7,3.2,1.3,6.3,2.3,9.4c0.1,1.8,0.9,3.6,1.3,5.4c0.9,3.2,2.2,6.4,3.4,9.5c0.1,0.4,0.5,0.8,0.9,1c-0.3-1.5-1.1-2.8-1.6-4.2
				C146.4,412.5,145.4,409.1,144.6,405.8z"/>
			<path class="st54" d="M396,404.5c-1.7,2.2-3.8,3.9-5.8,5.7c-4.3,3.7-8,7.9-11.2,12.6c-2.6,4-5.1,8-7.1,12.3
				c-1,2.2-2.1,4.5-2.7,6.9c0.2,0,0.5-0.1,0.6-0.1c1.3-3,2.7-6,4.3-8.9c2.5-4.5,5.3-8.9,8.6-12.8c3-3.7,6.5-7,10-10.3
				c1.9-1.8,3.7-3.8,4.7-6.2C396.8,403.8,396.4,404.1,396,404.5z"/>
			<path class="st54" d="M381.9,431c-2.6,3.8-5.1,7.6-6.7,11.9c0.3-0.2,0.7-0.4,0.9-0.7c0.9-1.4,1.5-2.8,2.4-4.2
				c2.8-4.6,6.1-9,9.9-12.8c0.7-0.7,1.7-1.2,1.8-2.3c-1.1,0.1-1.9,0.9-2.7,1.6C385.4,426.4,383.5,428.6,381.9,431z"/>
			<path class="st54" d="M256.3,447.4h0.7c0-0.2-0.1-0.3-0.1-0.5c0-1.4,0-2.7,0-4.1c0.3-6,0.5-12.1,1.8-17.9
				c0.3-0.5-0.3-0.5-0.7-0.6c-1.2,3.5-1.8,7.2-1.9,10.9c-0.1,3.2-0.2,6.5,0.1,9.7C256.3,445.8,256.2,446.6,256.3,447.4z"/>
			<path class="st54" d="M226.3,436.5c1.9,2.9,3.8,5.8,5.6,8.7c0.5,0.7,0.9,1.5,1.4,2.2h0.9c-1.4-2.5-2.9-4.9-4.3-7.4
				c-2.6-4.3-5.4-8.5-7.1-13.3c-0.3,0-0.5,0-0.8,0.1c0,1.4,0.7,2.7,1.3,4C224,432.8,225.1,434.7,226.3,436.5z"/>
			<path class="st54" d="M160.9,433.5c-0.1-1.4-0.4-2.8-0.6-4.2c-1.3-7.1-2.8-14.2-4.9-21.1c-1.9-5.8-3.8-11.6-5-17.6
				c-0.5-2.5-0.6-5.1-1.1-7.6c-0.2,0.2-0.6,0.3-0.6,0.6c-0.1,2.4,0,4.8,0.4,7.1c1,6.2,3,12.1,5,18.1c2.2,6.6,3.8,13.5,5.2,20.3
				c0.2,0.8,0.3,1.6,0.6,2.4c0,0.7,0.1,1.3,0.2,2c0.6,3,1.1,6,1.6,9.1c0.1,0,0.4,0.1,0.6,0.2c0.1-2.1-0.4-4.1-0.7-6.1
				C161.4,435.6,161.4,434.5,160.9,433.5z"/>
		</g>
	</g>
</g>
</svg>
