<?xml version="1.0" encoding="utf-8"?>
<!-- Generator: Adobe Illustrator 25.2.0, SVG Export Plug-In . SVG Version: 6.00 Build 0)  -->
<svg version="1.1" id="Layer_1" xmlns="http://www.w3.org/2000/svg" xmlns:xlink="http://www.w3.org/1999/xlink" x="0px" y="0px"
	 viewBox="0 0 536 448.2" style="enable-background:new 0 0 536 448.2;" xml:space="preserve">
<style type="text/css">
	.st0{opacity:0.35;}
	.st1{fill:#D6DCE5;}
	.st2{fill:#38312D;}
	.st3{fill:#764074;}
	.st4{fill:#FFF3DB;}
	.st5{fill:#E56324;}
	.st6{fill:#F2844F;}
	.st7{fill:#F95939;}
	.st8{fill:#B95D38;}
	.st9{fill:#CC492F;}
	.st10{fill:#4F2A4D;}
	.st11{fill:#B95F3B;}
	.st12{fill:#160E0B;}
	.st13{fill:#FDB897;}
	.st14{fill:#BA9F80;}
	.st15{fill:#150F0C;}
</style>
<g class="st0">
	<path class="st1" d="M484.6,448.2H51.4C23,448.2,0,425.2,0,396.8V135.6c0-28.4,23-51.4,51.4-51.4h433.2c28.4,0,51.4,23,51.4,51.4
		v261.2C536,425.2,513,448.2,484.6,448.2z"/>
</g>
<g>
	<g>
		<path class="st2" d="M480.5,448.3c-9.2-28.1-20.3-55.7-33.4-82.3c-2-4-3.7-8.1-6.7-11.5c-0.1-0.1-0.3-0.3-0.4-0.4
			c-1.5-3-3.4-5.8-5.5-8.4c-2.3-2.6-5-4.6-7.7-6.8c-1.9-1.5-4-2.7-6.2-3.7c-2-0.9-4.2-1.5-6.2-2.3c-5.8-2.2-11.6-4.7-17.4-7
			c-5.6-2.2-10.9-5-16.3-7.5c-5.5-2.5-11-5-16.5-7.6c-2.5-1.2-5.1-2.2-7.5-3.6c-2.5-1.3-5-2.5-7.4-4c-2.3-1.5-4.7-2.9-7-4.3
			c-2.3-1.5-4.9-2.4-7.3-3.8c-0.8-0.9-1.6-1.8-2.4-2.6c-0.9-0.8-1.5-2.1-2.8-2.5c-0.2,0-0.5,0.1-0.6,0.1c0.8,0.9,1.7,1.7,2,3
			c0.5,2.5,0.4,5.1-0.3,7.5c-0.7,2.4-1.2,4.9-2.1,7.2c-1.8,4.7-3.5,9.4-5.6,14c-2.3,5-4.5,10.1-6.8,15.1c-2.7,5.7-5.6,11.2-8.5,16.7
			c-3.9,7.7-7.6,15.5-12,22.9c-1.8,2.4-3,5.2-4.2,8c-2.7,5.7-5.5,11.3-8.9,16.6c-0.3,0.4-0.9,0.4-1.3,0.6c-2.2-1.1-4.5-1.8-6.8-2.6
			c-5.7-2.1-11.3-4.3-16.7-7.1c-4.5-2.5-9.3-4.5-13.6-7.4c-2.2-1.5-4.5-3-6.6-4.7s-4.3-3.3-6.3-5.1c-1.3-1.2-2.6-2.3-4-3.4
			c-3.6-3.1-6.6-6.8-9.6-10.5c-1.7-2.4-3.7-4.7-5.3-7.2c-0.9-1.3-1.7-2.7-2.7-3.8c-1.3-1.4-2.3-3-3.3-4.6c-2.7-4.3-4.7-9-6.9-13.5
			c-1.2-2.5-2.2-5.1-3.1-7.7c-2.3-6.5-4.9-12.8-6.3-19.6c-0.4-2.3-1.3-4.5-0.9-6.9c0.2-1.8,1-3.4,1.7-5.1c-0.1-0.1-0.4-0.3-0.5-0.4
			c-0.4,0.2-0.7,0.4-1,0.8c-1.8,2-3.8,3.7-5.6,5.8c-0.7,0.8-1.3,1.7-2.1,2.4c-2.3,2-4.7,3.9-7,6c-2.2,2-4.6,3.8-7,5.5
			c-3.4,2.3-6.7,4.9-10.1,7.2c-4.6,3-8.8,6.4-12.8,10.1c-2.1,1.9-4.3,3.7-6.4,5.5c-4.1,3.1-7.8,6.6-11.9,9.6
			c-2.2,1.9-4.4,3.7-6.5,5.7c-2.6,2.2-5.3,4.4-8,6.5c-1.9,1.3-3.7,2.7-5.3,4.4c-2.6,2.8-5.7,5-8.4,7.6c-1.7,0.8-3.1,2.1-4.3,3.8
			c-8.4,11.8-15.1,24.7-20.2,38.3c-1.5,3.9-2.7,7.8-3.9,11.7c-2.6,8.3-4.9,16.7-6.6,25.2L480.5,448.3L480.5,448.3z"/>
		<path class="st3" d="M256.3,35.3c2.8-0.2,5.6-0.2,8.4-0.2c4.5,0,9.1,0,13.6,0.2c7.8,0.2,15.5,2.3,22.5,5.7c3.2,1.4,6,3.4,8.7,5.5
			c1.2,0.7,2.4,1.3,3.5,2.2c2.8,2.4,5.5,4.9,7.7,7.9c3,4.1,5.9,8.3,8.1,12.9c1.6,3.3,3.1,6.7,3.9,10.3c0.6,3.2,1.7,6.2,2.4,9.3
			c1.3,6.2,1.8,12.5,2.5,18.8c0.4,6.2,1.6,12.3,1.5,18.5c0.1,1.4-0.1,2.8,0,4.2c0.4,2.4,0.2,4.7,0.1,7.1c-0.6,4.2-0.7,8.5-2.2,12.6
			c-1.7,4.4-3.2,8.9-5.4,13.1c-0.8,1.6-1.4,3.4-2.4,5c-1.1,1.7-2.3,3.4-3.9,4.6c-2.1,1.5-4.7,1.9-7.2,2c-2.3,0.2-4.6,0.2-6.8,0.1
			c-5.6-0.3-11.1,0.1-16.7,0.2c-7.6,0.4-15.2,1.8-22.7,2.6c-7.9,1.1-15.8,1.6-23.8,2.1c-7.2,0.4-14.4,1.1-21.5,2
			c-5.6,0.6-11.2,1.1-16.8,1.8c-2.6,0.1-5.4,0.3-7.9-0.6c-1.5-0.5-2.6-1.7-3.6-2.9c-2.9-3.5-4.9-7.6-6.9-11.6c-1.7-3.3-3.2-6.7-5-10
			c-1.7-3.2-3.2-6.6-5-9.8c-1.1-2.3-2.2-4.7-3.1-7.1c-1.2-2.9-2.3-5.8-3.1-8.8c-0.6-2.3-1.3-4.6-1.7-6.9c-0.7-4.8-0.5-9.7-0.1-14.6
			c0.4-3.2,1.3-6.4,2.1-9.5c1.2-4.1,2.4-8.1,4.2-11.9c3.1-6.8,7.9-12.6,13.7-17.3c2.9-2.4,5.9-4.8,9.1-6.8c4-2.3,8.3-4.1,12.7-5.4
			c1.1-3.6,3.2-6.8,5.8-9.5c2.4-2.4,4.5-5.2,7.3-7.2c2.1-1.6,4.5-2.6,6.8-3.7c2.1-1,4.5-1.3,6.7-2.1c2-0.7,4.2-0.9,6.2-1.4
			C250.9,35.8,253.6,35.5,256.3,35.3z"/>
		<path class="st4" d="M202.3,271.8c0.9-1.1,1.9-2.1,3.2-2.8c0.4-0.3,0.9,0,1.3,0c-0.1,0.7-0.1,1.4-0.2,2.1c4.6,0.9,9.1,2.5,13.8,3
			c7,1,14,2.2,21,2.3c3.3,0.3,6.6,0,9.9-0.1c1.9-0.1,3.8,0,5.6-0.3c6.5-0.4,13-0.9,19.4-1.8c7.6-0.6,15.1-1.6,22.6-2.7
			c2.9-0.6,5.8-0.9,8.8-1.2c1.6,0,3.3-0.2,4.9,0.3c2.2,0.7,3.4,2.8,5.1,4.2c2.3,1.8,4.2,4,5.8,6.4c1.4,2.2,2.6,4.5,4.2,6.6
			c0.6,0.8,1.3,1.5,1.8,2.3c-0.2,0-0.5,0.1-0.6,0.1c0.8,0.9,1.7,1.7,2,3c0.5,2.5,0.4,5.1-0.3,7.5c-0.7,2.4-1.2,4.9-2.1,7.2
			c-1.8,4.7-3.4,9.5-5.6,14c-2.2,5.1-4.5,10.1-6.8,15.1c-2.7,5.7-5.6,11.2-8.5,16.7c-3.9,7.7-7.6,15.5-12,22.9c-1.8,2.4-3,5.2-4.2,8
			c-2.7,5.7-5.5,11.3-8.9,16.6c-0.3,0.4-0.9,0.4-1.3,0.6c-2.2-1.1-4.5-1.8-6.8-2.6c-5.7-2.1-11.3-4.3-16.7-7.1
			c-4.5-2.5-9.3-4.5-13.6-7.4c-2.2-1.5-4.5-3-6.6-4.7s-4.3-3.3-6.3-5.1c-1.3-1.2-2.6-2.3-4-3.4c-3.6-3.1-6.6-6.8-9.6-10.5
			c-1.7-2.4-3.7-4.7-5.3-7.2c-0.9-1.3-1.7-2.6-2.7-3.8c-1.3-1.3-2.3-3-3.3-4.6c-2.7-4.3-4.7-9-6.9-13.5c-1.2-2.5-2.2-5.1-3.1-7.7
			c-2.3-6.5-4.9-12.8-6.3-19.6c-0.4-2.3-1.3-4.5-0.9-6.9c0.2-1.8,1-3.4,1.7-5.1c-0.1-0.1-0.4-0.3-0.5-0.4c3.6-5.8,5.5-12.7,9.5-18.3
			C200.5,272.9,201.5,272.5,202.3,271.8z"/>
	</g>
	<g>
		<path class="st5" d="M227.7,74.1c1.2-0.4,2.4,0.3,3.6,0.3c3.7-0.1,7.3,1.1,11,1.3c2.4,0.2,4.6,1.1,6.9,1.6
			c4.9,1.1,9.7,2.7,14.3,4.6c2.5,0.9,4.8,2.1,7.1,3.4c2.5,1.3,4.6,3.2,7.1,4.6c2.4,1.5,5.2,2.4,7.8,3.6c4.6,2.4,8.2,6.1,12.7,8.6
			c1.7,0.9,3.2,2,4.6,3.3c2.5,2,4.8,4.1,7.2,6.1c2.4,2.6,5,5,7.3,7.7c1.9,2.2,3.5,4.7,5,7.2c1,1.7,1.7,3.6,2.8,5.2
			c-0.3,0.4-0.8,0.1-1.2,0c-1.9-0.8-3.7-1.7-5.4-2.9c-2.1-1.5-4-3.4-6.1-5c-4.3-3.2-8.9-6-13.2-9.1c-4.9-3.4-9.6-7.2-14.8-10.2
			c-2.6-1.7-5.5-2.9-8.3-4.2c-3.8-1.4-7.3-3.3-10.7-5.4c-5.2-3.1-10.8-5.3-16.1-8.4c-4.6-2.7-9-5.9-13.9-8.2
			C232.8,77,229.9,76,227.7,74.1z"/>
		<path class="st6" d="M224.8,75.3c0.9-0.6,1.9-1,2.9-1.2c2.2,2,5.1,2.9,7.7,4.2c4.8,2.3,9.2,5.5,13.9,8.2c5.2,3,10.9,5.3,16.1,8.4
			c3.4,2.1,7,4,10.7,5.4c2.8,1.3,5.7,2.5,8.3,4.2c5.2,3,9.9,6.7,14.8,10.2c4.4,3.1,8.9,6,13.2,9.1c2.1,1.6,3.9,3.5,6.1,5
			c1.7,1.2,3.5,2.1,5.4,2.9c0.4,0.1,0.8,0.4,1.2,0c1.4,2,3.6,3.3,5.4,5c1,1,2.6,1.7,2.7,3.3c0.2,3.2-0.1,6.5-0.5,9.7
			c-0.1,0.5,0,1.1-0.3,1.5c-0.7,0.6-0.7,1.6-1,2.5c-0.5,2-0.5,4-0.7,6c-0.3,3.5-0.4,7-0.7,10.4c-0.2,2.3-0.2,4.6-0.4,6.9
			c-0.3,2.5-0.2,5.1-0.1,7.6c0.4,4.9-0.4,9.9,0.1,14.8c0.1,0,0.4,0,0.5,0c-1.3,3.6-2.1,7.3-2.7,11c-0.6,3.9-1.7,7.6-2.9,11.4
			c-1.8,6.2-4.5,12.1-7.4,17.9c-1.4,2.9-3.1,5.5-4.4,8.4c0,0-0.2-0.4-0.2-0.5c-1.5,2.3-3.1,4.5-4.3,6.9c-0.9,2.2-2.6,3.9-3.7,5.9
			c-2.5,4.5-5.3,8.8-7.7,13.3c-1.6,2.6-3.3,5.3-5.5,7.5c-1.9,2.1-4.5,3.5-7.3,4.1c-3.5,1.1-7.2,1.3-10.8,1.4
			c-3.8,0.3-7.6,0.2-11.3,0.2c-3.2-0.2-6.5,0-9.6-0.7c-3.5-0.7-6.7-2-9.9-3.5c-3.1-1.6-6.3-3.4-8.7-6.1c-3.1-3.4-5.5-7.2-7.9-11.1
			c-3.9-6.5-7.6-13.2-11.4-19.8c-1.7-2.6-3.6-5.1-5.6-7.5c-1.2-1.6-2.7-3-3.8-4.7c-0.9-1.4-2-2.7-3.1-4c-0.4-0.4-0.8-0.9-1.4-0.9
			h-0.2c-2-3.4-3.8-6.9-5.2-10.6c-0.7-2.2-1.6-4.4-1.7-6.7l0.2-0.2c0.5-0.6,0.5-1.4,0.6-2.1c0.6-6.5,1.3-13,2.2-19.5
			c0.5-4.6,1.4-9.3,1-14c-0.2-1.8-0.3-3.6-1-5.3c0.3-1.8,0.7-3.6,0.9-5.4c0.2-4.2-0.9-8.3-1.5-12.5c-0.3-3.7-0.3-7.6,1.5-10.9
			c1.6-3.2,3.3-6.5,4.1-10c0,0,0.7-0.2,0.9-0.3c1.1-2.1,2.1-4.2,2.9-6.5c1.6-3.9,3.4-7.8,3.9-12c0.6-3.1,0.7-6.2,1.1-9.3
			c0.5-3.5,1-7.1,2.2-10.5c1.2-3.8,3.1-7.3,5.3-10.6c0.5-0.7,1.1-1.3,1.3-2.1c0-0.3,0.3-0.5,0.5-0.6C221.2,77.9,223,76.5,224.8,75.3
			z"/>
		<path class="st5" d="M214.7,84.2c1.3-1.5,2.6-3,4.2-4.2c-0.2,0.8-0.9,1.4-1.3,2.1c-2.2,3.3-4.1,6.8-5.3,10.6
			c-1.2,3.4-1.7,7-2.2,10.5c-0.5,3.1-0.5,6.2-1.1,9.3c-0.5,4.2-2.3,8.1-3.9,12c-0.8,2.2-1.8,4.4-2.9,6.5c-0.2,0.1-0.6,0.2-0.8,0.3
			c0.6-2.5,1.4-4.9,1.8-7.5c0.8-3.6,1.6-7.3,1.7-11c0-2.9,0.2-5.7,0.4-8.6C206,96.6,209.8,89.8,214.7,84.2z"/>
		<path class="st7" d="M346.1,138.7c2.8-1.1,5.8-2.1,8.9-1.6c3.1,0.4,6.1,1.9,8,4.4c2.4,2.8,3.6,6.4,3.8,10c0,3.8-0.4,7.7-1.4,11.4
			c-1.6,5.8-4.1,11.5-7.6,16.4c-1.7,2.4-3.5,4.7-5.6,6.9c-2.5,2.7-5.5,4.9-8.5,7.1c-1.8,1.4-3.8,2.6-5.7,3.9c-2.4,1.5-5.2,2.1-8,2.1
			c-0.1,0-0.4,0-0.5,0c-0.4-4.9,0.4-9.9-0.1-14.8c0-2.5-0.2-5.1,0.1-7.6c0.2-2.3,0.1-4.6,0.4-6.9c0.4-3.5,0.4-7,0.7-10.4
			c0.2-2,0.2-4.1,0.7-6c0.3-0.8,0.3-1.8,1-2.5c-0.1,1.6-0.5,3.1-0.6,4.7c1.2-4.2,3-8.2,4.9-12.2c0.2-0.5,0.4-1,1-1.3
			C340.4,140.8,343.3,139.8,346.1,138.7z"/>
		<path class="st7" d="M168.1,152.7c2.6-1.8,6-2.5,9.1-1.9c3.9,0.5,7.9,2.2,10.4,5.3c1.9,2.6,3.1,5.6,4.6,8.5c1,2.6,2.4,5,3.8,7.3
			c0.1-0.6,0.1-1.3,0.2-1.9c0.7,1.7,0.8,3.5,1,5.3c0.4,4.7-0.4,9.4-1,14c-0.9,6.5-1.7,13-2.2,19.5c-0.1,0.7,0,1.5-0.6,2.1
			c-1.7-0.6-3.6-0.6-5.2-1.4c-3.4-1-6.6-2.8-9.8-4.4c-2.2-1.1-4.1-2.8-6-4.5c-2.1-2.2-4.1-4.5-5.7-7.1c-3.2-4.7-5.8-10-6.6-15.7
			c-0.4-5.2-0.3-10.6,1.4-15.6C162.7,158.6,164.8,154.9,168.1,152.7z"/>
		<path class="st5" d="M200.3,228.5c0.6,0,1,0.5,1.4,0.9c1.1,1.3,2.2,2.6,3.1,4c1.1,1.7,2.6,3.1,3.8,4.7c2,2.4,3.9,4.8,5.6,7.5
			c3.8,6.6,7.5,13.3,11.4,19.8c2.4,3.9,4.8,7.8,7.9,11.1c2.4,2.6,5.5,4.5,8.7,6.1c3.2,1.5,6.5,2.8,9.9,3.5c3.2,0.7,6.4,0.4,9.6,0.7
			c3.8,0,7.6,0.1,11.3-0.2c3.6-0.1,7.3-0.2,10.8-1.4c2.8-0.6,5.3-2.1,7.3-4.1c2.2-2.2,3.9-4.8,5.5-7.5c2.4-4.5,5.2-8.8,7.7-13.3
			c1.1-2.1,2.7-3.8,3.7-5.9c1.3-2.4,2.8-4.7,4.3-6.9c0,0.1,0.1,0.3,0.2,0.4c-0.4,1.6-0.2,3.3-0.2,4.9c0.1,4.2,0.1,8.3,0.1,12.5
			c0,2.5,0.4,5.1,0.5,7.6c0.3,3,0.6,6.1,2,8.8c0.3,2.1-0.6,4.2-1.5,6.1c-4.2,6.9-7.6,14.3-12.4,20.8c-1.4,2.1-2.9,4.3-4.4,6.4
			c-1.8,2.5-3.5,5-5.3,7.5c-2.3,2.8-4.2,5.8-6.6,8.5c-3.1,3.9-6.4,7.5-9.8,11.2c-2.6,3.3-4.2,7.3-5.5,11.3c-0.4,1.3-0.9,2.6-1,4
			c-2.1-4.4-4.5-8.8-7.8-12.4c-2.1-2.3-4.3-4.6-6.7-6.6c-1.8-1.5-3.6-3-5.3-4.7c-1.9-1.7-3.9-3.1-6.1-4.4c-2.8-1.6-5.2-3.7-7.8-5.5
			c-2.4-1.9-4.9-3.6-7.1-5.7c-2.4-1.9-4.3-4.2-6.6-6.2c-2.6-2.4-4.6-5.3-6.9-7.8c-2.7-3.2-4.5-7.2-5.8-11.2
			c-0.9-3.2-2.1-6.3-2.5-9.6c-0.2-1.2-0.4-2.3-0.5-3.5c-0.4-3.4-1.8-6.6-1.6-10.1c0.3-2.6,0.7-5.1,0.8-7.7c0-5.5-0.5-11-1.2-16.5
			c-0.4-2.7-0.1-5.5-0.4-8.2c-0.2-1.8,0-3.7-0.6-5.4C202,230.7,201,229.7,200.3,228.5z"/>
	</g>
	<g>
		<path class="st5" d="M276.9,201.1c0.6-0.7,1.2-1.7,2.3-1.5c0.6,0,0.9,0.8,0.7,1.3c-0.3,1-0.9,1.9-1.4,2.9c-1.2,1.9-3,3.3-4.2,5.1
			c-0.8,1.3-1.8,2.5-2.9,3.6c-1.2,1.2-2.1,2.7-3.4,3.7c-1.6,1.3-3.9,1.8-5.9,1.1c-2.4-0.7-3.9-3-5.2-5c-1-1.6-2.4-3-3.3-4.7
			c-0.6-1.2-1.5-2.3-1.7-3.7c0.3-0.6,1-1,1.7-0.9c0.6,0.2,1.1,0.5,1.7,0.7c0.5,0.1,1-0.2,1.5-0.1c0.4,0.2,0.7,0.6,1.1,0.9
			c3.3,0.4,6.5,1.4,9.8,1.5c1.5,0.1,2.8-0.7,4.2-1.1C273.6,203.8,275.7,202.9,276.9,201.1z"/>
		<path class="st5" d="M279,232.7c1.4-0.4,2.7-1.2,4.1-1.2c-0.1,1.2-1.1,1.9-1.8,2.7c-1.3,1.3-2,2.9-3.1,4.3c-0.9,1.3-1.9,2.6-3,3.9
			c-0.7,0.8-1.3,1.9-2.4,2.2c-3.5,1.2-7.3,1.1-11,1.6c-1.4,0-3.1,0.6-4.3-0.4c-0.7-0.6-1.6-0.8-2.1-1.6c-1.9-2.3-3.7-4.6-5.8-6.7
			c-1.2-1.2-2.1-2.6-3.5-3.7c0.1-0.1,0.4-0.3,0.6-0.4c2,0.2,4,0.8,6,1c1.2,0.1,2.3,0.4,3.4,0.6c6.3,1,12.8,0.3,19-0.7
			C276.6,234,277.8,233.1,279,232.7z"/>
		<g>
			<path class="st8" d="M284.3,119c-3.9-0.4-7.8-0.6-11.7-0.8c-3.2-0.1-6.4-0.3-9.6-0.1c-6.2,0.3-12.4,0.8-18.3,2.6
				c-2,0.7-4.2,1.2-6.1,2.2c-1.1,0.3-2.3,0.6-3.2,1.5c1.4,0.1,2.8-0.2,4-0.9c3.3-0.9,6.6-2,10-2.5c8.1-1.4,16.3-1,24.4-1.1
				c3.6,0.1,7.2,0.2,10.8,0.4c2,0,3.9,0.5,5.9,0.2c0-0.2,0-0.6,0-0.7C288.4,119.5,286.4,119.2,284.3,119z"/>
			<path class="st8" d="M271.3,121.9c-3.8-0.1-7.6,0.3-11.3,0.6c-3.6,0.3-7.1,0.8-10.6,1.8c-1,0.3-2.1,0.6-2.9,1.3
				c2.2-0.2,4.4-0.8,6.6-1.1c6.3-1.1,12.7-1.3,19.1-1.4c5.9,0,11.9,0.8,17.8,1.4c0-0.2,0-0.5,0-0.7
				C283.7,122.9,277.5,122.1,271.3,121.9z"/>
			<path class="st8" d="M276.9,126.8c-5.7-0.6-11.5-0.8-17.2-0.5c-1,0-1.9,0.2-2.9,0.5c0,0.2,0.1,0.5,0.2,0.6
				c6,0.3,12.1-0.2,18.1,0.3c1.6,0.1,3.1,0.3,4.7,0.1c0-0.2-0.1-0.5-0.1-0.7C278.7,127,277.8,126.9,276.9,126.8z"/>
		</g>
		<path class="st8" d="M271.1,142.8c0-0.3,0.4-0.5,0.6-0.7c0.1,3.9,1.9,7.4,2.6,11.2c-1-0.7-1.1-1.9-1.5-3
			C272,147.9,270.8,145.4,271.1,142.8z"/>
		<path class="st8" d="M258.3,143c1.1,1.3,1.2,3.1,1.5,4.8c0.2,2.6,0.2,5.4-0.5,7.9c-0.2,0-0.4,0.1-0.6,0.1c0.5-2.5,0.7-5,0.4-7.5
			C258.9,146.5,258.3,144.8,258.3,143z"/>
		<path class="st9" d="M340.7,151.5c2.2-1.7,4.9-2.8,7.7-3.1c2.4-0.3,5.1,0.3,6.6,2.2c1.7,2.2,1.5,5.3,0.8,7.8
			c-0.2,0.2-0.3,0.4-0.5,0.6c0.1-1.6,0.4-3.2,0-4.8c-0.3-1.6-1.2-3.2-2.8-3.8c-2.9-1.2-6.2-0.2-9,1c-2,0.8-3.5,2.4-5.4,3.4
			C338.4,153.4,339.6,152.3,340.7,151.5z"/>
		<path class="st3" d="M322.1,155.4c-2.2-0.3-4.3-1.4-6.6-1.5c-2.1-0.1-4.2-0.6-6.3-0.7c-3-0.2-5.8-1.2-8.8-1.1
			c-2.9-0.1-5.9,0-8.8,0.1c-2.3,0.2-4.6,0.7-6.9,1c-1.3,0.1-2.7,0-4,0.2c-1.5-0.4-2.5-1.6-3.5-2.7c-1.2-1.2-2-2.9-1.3-4.6
			c1,0.9,1.6,2.1,2.3,3.2c-0.9-1.7-1.4-3.5-1.2-5.4c0.2,0,0.5,0,0.7,0.1c0.6,1.9,1.2,3.9,1.9,5.8c0.1-0.1,0.2-0.3,0.2-0.5
			c-1.1-2.4-1.2-5.1-1.1-7.6c0.6-1.9,2.4-3.1,4.4-3.3s4-0.4,6-0.3c3.4,0.2,6.6,1,9.9,1.9c3.7,1.1,7.6,2,10.6,4.4
			c2.4,0.9,4.3,2.5,6.3,4c0.9,0.2,1.6,0.8,2.3,1.4c0,0.2,0,0.6,0,0.8c-0.9-0.3-1.8-0.7-2.6-1.1c-1.6-0.3-3.2-0.4-4.8-0.4
			c2.4,0.2,4.8,0.8,6.9,2l0.2-0.1c1,0.5,1.9,1.1,2.6,2c-0.8,0.1-1.4-0.3-2.1-0.6c-1-0.5-2-0.6-3.1-0.8c-1.2-0.3-2.4-0.5-3.7-0.5
			c1.7,0.4,3.3,1.2,5,1.7C318.4,153.5,320.5,154.1,322.1,155.4z M255.1,145.3c-0.1,0.8-0.2,1.5-0.2,2.3c-0.3-1.3-0.6-2.6-1.3-3.7
			c-0.8,0.4-0.9,1.3-1,2.1c-1.5-1.2-2.5-2.9-3.6-4.5c-0.2,0-0.6-0.1-0.8-0.1c0.1,1,0.2,2,0.1,2.9c-1.3-0.7-2.7-1.4-4.1-1.8
			c-2.6-0.8-5.4-1-8.1-1.1c-2.5-0.1-5,0.3-7.3,1.3c-2.2,0.9-4.4,1.8-6.4,3c-2.7,1.5-5.6,2.6-8.1,4.4c-1.3,1-2.8,1.8-3.7,3.2
			c0.2,0,0.6,0.1,0.8,0.1c1.2-0.5,2.4-1.2,3.5-1.8c-1.5,1.3-2.9,2.7-4.3,4.1c-0.8,0.8-1.9,1.5-2.3,2.7c1-0.2,1.8-0.8,2.7-1.2
			c-0.5,1.5-2.1,2.4-2.3,4c1.9-0.7,3.6-2.1,5.5-2.9c5.6-2.3,11.7-3.3,17.7-4.2c3.8-0.3,7.6-0.5,11.4-0.1c3.5,0.2,7,0.5,10.5,0.1
			c0.8,0,1.1-0.8,1.4-1.4c0.8-2.2,1.3-4.7,0.6-7C255.5,145.5,255.2,145.4,255.1,145.3z"/>
		<path class="st9" d="M355.4,154.3c0.4,1.6,0.1,3.2,0,4.8c0.2-0.2,0.3-0.4,0.5-0.6c-0.3,1.7-1.1,3.4-1.8,4.9
			c-1.7,3.8-4,7.2-6.4,10.6c-1.4,1.8-2.8,3.8-4.8,5.1c0.8-1.3,2-2.1,2.9-3.3c2.4-2.9,4.4-6.1,6.2-9.4
			C354,162.6,355.4,158.5,355.4,154.3z"/>
		<path class="st10" d="M258.8,38.6c1.2-0.4,2.5-0.3,3.7-0.3s2.3-0.1,3.5,0.3c2.9,0,5.7,0.6,8.5,1c5.2,0.7,10.4,1.8,15.2,3.8
			c4,1.6,7.8,3.8,11.2,6.4c2.7,2.1,5.4,4.1,7.9,6.4h0.2c2,1.8,4.1,3.6,6,5.6c0.8,0.8,2,1.4,2.3,2.6c-1.2-0.7-2.2-1.7-3.2-2.6
			c-2-1.8-4.1-3.5-6-5.4c-4.1-3.3-8.2-6.6-12.8-9.2c-5.2-2.8-10.9-4.7-16.7-5.8c-3.2-0.5-6.3-1-9.5-1.6c-2.3-0.4-4.6-0.4-6.9-0.8
			C261.1,39.2,259.9,39.1,258.8,38.6z M229.7,49c2.5-2.4,5.2-4.5,8-6.5c0.5-0.3,1-0.8,1.2-1.3c-1.1,0.4-2.1,1.1-3,1.8
			c-2.8,1.9-5.5,4-7.8,6.5c-1.9,1.7-3.6,3.5-5.3,5.3c-2,2.1-3.9,4.3-4.8,7.1c0.2,0.1,0.5,0.1,0.8,0.2c0.4-0.5,0.8-1.1,1.2-1.7
			c2.5-4.1,5.8-7.6,9.1-10.9C229.3,49.5,229.5,49.2,229.7,49z M257.7,43.9c8.3,0,16.6,1.5,24.4,4.2c6.5,2.1,12.7,5.2,18.5,8.7
			c4.4,2.8,8.7,5.8,12.5,9.4c0.8,1,1.8,1.8,2.6,2.8c0.5,0.5,0.9,1.4,1.8,1.2c-1.2-1.7-2.6-3.4-4.2-4.9c-10.6-9.8-23.7-17-37.7-20.6
			c-3.4-0.9-6.9-1.3-10.4-1.8c-3.6-0.3-7.1-0.1-10.7,0c-0.4,0.1-1.6,0.3-1,0.9C254.9,44.1,256.3,44,257.7,43.9z M229.4,56.6
			c4.4-3.5,9-6.8,13.7-9.9c1.1-0.8,2.4-1.4,3.3-2.4c-0.3,0-0.6-0.1-0.8,0.1c-4.4,2.8-8.8,5.5-12.9,8.7c-3.4,2.6-7,5.1-9.7,8.5
			c-0.8,1-1.8,2.1-1.9,3.6c0.4-0.2,0.7-0.4,0.9-0.8C223.9,61.2,226.6,58.8,229.4,56.6z M242.4,54.6c2.7-1.3,5.5-2.7,8.5-3.4
			c0-0.2,0.1-0.5,0.1-0.6c-1.2,0-2.3,0.3-3.4,0.7c-4.9,1.8-9.6,4.2-14,6.9c-3.9,2.4-7.9,4.9-11,8.3c-0.4,0.2-0.2,0.7-0.2,1.1
			c1.7-1.1,3.1-2.5,4.7-3.7C231.9,60.4,237.1,57.3,242.4,54.6z M315.5,76.4c-4.7-4.2-9.6-8.1-14.7-11.7
			c-8.4-5.9-17.8-10.3-27.8-12.8c-3.1-0.7-6.2-1.1-9.4-1.3c-1.2-0.1-2.3,0.1-3.5,0.5c1.8,0.2,3.6,0.3,5.5,0.5
			c8,1.2,15.8,3.6,23.1,7.2c5.3,2.5,10.1,5.7,14.9,9c4,2.9,7.9,5.9,11.6,9.1c0.6,0.5,1.2,1.2,2.1,1.3
			C316.8,77.5,316.1,77,315.5,76.4z M241.2,62.1c4.9-1.7,9.9-3.2,15.1-3.6c0.5-0.1,0.9-0.2,1.4-0.3c-0.4-0.7-1.3-0.5-1.9-0.5
			c-6.4,0.5-12.5,2.4-18.5,4.7c-3,1.2-5.9,2.4-8.6,4.2c-1.3,0.9-2.7,1.7-3.6,3.1c0.8,0.3,1.4-0.4,2-0.7
			C231.3,65.9,236.2,63.9,241.2,62.1z M282.7,66.4c9.9,4.3,19.3,9.6,27.9,16.2c0-0.3,0-0.6,0-0.9c-7.6-6.3-16.3-11.1-25.1-15.5
			c-5.5-2.7-11.2-4.7-17.2-5.8c-1.4-0.4-2.8-0.8-4.2-0.3c0.8,0.5,1.8,0.8,2.7,0.9C272.2,62.3,277.5,64.1,282.7,66.4z M256.6,66.9
			c2.8,0.4,5.5,1.1,8.2,1.8c5.5,1.5,10.9,3.1,16.2,5.1c0.4,0.1,0.8,0.3,1.2,0.3l-0.2,0.1c1.3,0.6,2.7,1.1,4.1,1.6s2.7,1.2,4.1,1.5
			c0-0.2-0.1-0.5-0.1-0.7c-2.3-0.9-4.4-2.1-6.8-2.7c-6.7-2.8-13.7-5-20.7-6.9c-6.1-1.7-12.5-2.1-18.8-1.4c-4.5,0.5-9,1.4-13.2,3.2
			c-1.6,0.7-3.3,1.3-4.5,2.6c1.3,0,2.4-0.7,3.6-1.1c3.4-1.2,6.8-2.2,10.4-2.8C245.6,66.5,251.1,66.1,256.6,66.9z M327.4,77
			c1.4,2.6,2.6,5.3,3.7,8c0.1,0.4,0.5,0.8,0.8,1c-1.1-4-3-7.8-4.9-11.6c-1.1-2.2-2.5-4.4-4.7-5.7c-0.1,0.1-0.4,0.2-0.6,0.2
			c0.8,0.9,1.7,1.7,2.5,2.7C325.5,73.3,326.4,75.2,327.4,77z M191.7,104.3c-0.3,3-0.6,6.1,0.4,9c0.2-0.3,0.5-0.5,0.4-0.8
			c-0.5-3.4-0.1-6.9,0.4-10.2c0.8-4.7,1.8-9.4,3.5-13.8c2-5.5,5.2-10.4,9.3-14.6c1.2-1.2,2.5-2.3,4-3.1c-0.1-0.1-0.2-0.4-0.2-0.5
			c-2.3,0.5-3.9,2.3-5.5,3.8c-4.6,4.7-7.8,10.7-9.6,17.1C193.2,95.4,192.1,99.8,191.7,104.3z M251.4,72.2c6.6,0.2,13,1.7,19.3,3.5
			c6.5,2,12.9,4.4,19.1,7.3c3.2,1.5,6.2,3.3,9.2,5c1.4,1.1,3,1.9,4.5,2.9c0.8,0.4,1.5,1.2,2.4,0.8c-1.9-1.5-3.9-2.8-6-4.1
			c-4.4-2.7-8.7-5.4-13.4-7.6c-4.6-2.1-9.4-4-14.2-5.6c-6.9-2.1-14-3.7-21.2-3.8c-2.3-0.2-4.5,0.1-6.8,0.1c-3.3,0-6.6,0.4-9.9,0.7
			c-1.4,0.1-3,0-4.1,1.1c2.2,0.2,4.4-0.1,6.6-0.1c1.4,0,2.9-0.1,4.3-0.2C244.7,72.3,248,72,251.4,72.2z M210.5,74.9
			c0.7-0.8,1.7-1.5,2.2-2.5c-0.5-0.4-1.2,0-1.6,0.3c-4,3.5-6.9,8-9,12.8c-1.7,3.9-2.6,8-3.5,12.1c-0.1,0.6-0.2,1.3-0.2,2
			c-0.2,0.4-0.4,0.9-0.4,1.4c-0.4,2.8-0.8,5.7-0.7,8.6c0,0.4-0.1,1.1,0.5,1.3c0.1-1,0.1-1.9,0.2-2.9c0.1-2.1,0.6-4.1,0.7-6.2
			c0.6-3,1.2-6.1,2.1-9.1C202.6,86.1,205.9,79.9,210.5,74.9z M208.9,81.7c-2,2.7-3.3,5.7-4.5,8.8c-1.3,3.5-2.5,7.1-3.4,10.8
			c-0.4,1.8-0.8,3.6-0.9,5.4l-0.2-0.1c-0.1,1.2-0.2,2.5-0.1,3.7c0.2,0,0.5,0,0.7,0c0-1,0.1-2,0.2-3c0.6-4.9,2.2-9.6,3.8-14.3
			c1-2.8,2.1-5.6,3.7-8.2c2.3-3.8,5.4-7.1,8.9-9.8c0.6-0.6,1.6-1,1.6-2c-0.6,0-1.2,0.2-1.7,0.5C213.8,75.7,211.1,78.6,208.9,81.7z
			 M319.8,76.9c1.4,1.5,2.5,3.1,3.7,4.8c1.9,2.7,3.8,5.4,5.7,8.2c0.1,0,0.4-0.1,0.5-0.2c-1.7-3.2-3.8-6.1-5.7-9.1
			c-1.4-2.1-2.8-4.2-4.9-5.6c-0.4-0.3-0.9-0.3-1.3-0.3C318.3,75.6,319.1,76.2,319.8,76.9z M303.6,98.8c-3.8-3.2-7.8-6.1-12-8.8
			c-10-6.6-21.4-11.1-33-14c-0.9-0.2-1.8-0.5-2.7-0.5c-0.9-0.4-1.8-0.5-2.8-0.7c-1.8-0.3-3.7-0.8-5.5-0.6c0.1,0.1,0.2,0.4,0.2,0.5
			c2.5,0.7,5,1.3,7.5,1.6c4.2,1,8.4,2.2,12.5,3.7c5.6,1.9,10.9,4.4,16.1,7.1c9.3,5.1,17.7,11.7,25.6,18.6c4.1,3.6,8.1,7.3,11.5,11.4
			c0.4,0.4,0.8,0.8,1.4,0.8c-0.3-1-1.1-1.7-1.7-2.4C315.8,109.3,309.7,104,303.6,98.8z M325.3,103.7c0.4,0.4,0.8,0.7,1.3,1
			c-0.2-0.4-0.4-0.7-0.7-1c-3.8-3.9-7.6-7.7-11.6-11.4c-3.7-3.6-7.6-7.1-11.9-9.9c-1.3-0.8-2.6-1.7-4.2-1.8c1,1,2.4,1.6,3.5,2.4
			C310.1,89.3,317.7,96.5,325.3,103.7z M313.3,80.5c-0.1,0.1-0.4,0.2-0.5,0.3c1,1,2,1.9,3,2.9c2.2,2.3,4,4.9,5.9,7.4
			c1.1,1.6,2.4,3.2,3.4,4.9c0.2,0.4,0.5,0.7,0.9,1c0-0.7-0.3-1.3-0.7-1.9c-1.4-2.3-2.8-4.5-4.4-6.7c-1.4-2-2.7-4-4.5-5.7
			C315.5,81.9,314.5,81,313.3,80.5z M327.5,95.6c0.1,1.5,1.2,2.8,1.8,4.2c2,4.5,4.2,9,5.7,13.7c0.1,0.4,0.4,0.7,0.7,0.9
			c-0.2-2.4-1.1-4.6-2-6.8c-1.4-3.7-2.8-7.4-4.8-10.8C328.5,96.3,328,95.9,327.5,95.6z M332.4,129.8c0.1,0,0.4,0,0.6,0
			c-0.4-2.3-1.2-4.6-2.1-6.8c-3.6-8.2-8.5-16.1-15.3-22.2c-0.7-0.5-1.5-1.3-2.4-1.1c5.1,5.3,9.8,11,13.5,17.3
			C329,121.1,331.2,125.3,332.4,129.8z M189.6,110.1c0.1,0,0.3-0.1,0.4-0.2c0-0.7-0.1-1.4-0.2-2.1c-0.2-1.9,0.1-3.9,0-5.8
			c0.3-1.2,0.3-2.4,0.5-3.6c1-6.7,2.7-13.5,6.3-19.4c1.1-1.7,2.1-3.4,3.5-4.7c0.2-0.2,0.4-0.5,0.5-0.8c-1.5-0.2-2.4,1.3-3.2,2.3
			c-5,5.9-6.5,13.7-7.7,21.1c-0.2,1.3-0.4,2.6-0.4,3.9c-0.5,1-0.3,2.1-0.3,3.2C189.1,106.1,188.8,108.2,189.6,110.1z M177,112.1
			c0.2-2.3,0.8-4.5,1.2-6.8c-0.1,0-0.4,0.1-0.6,0.2c-1.4,4.7-1.7,9.7-1.6,14.5c0,1.8-0.1,3.6,0.3,5.3c0.1,0.6,0.1,1.4,0.7,1.8
			c-0.1-1.4-0.5-2.9-0.5-4.3C176.3,119.3,176.6,115.7,177,112.1z M334.7,124.6c0.1-1.3-0.4-2.6-0.8-3.8c-1-2.9-2.3-5.7-3.7-8.5
			c-0.9-1.8-1.9-3.5-3.2-5c-0.2-0.3-0.7-0.3-1-0.4c0.2,0.9,0.8,1.6,1.3,2.3c1.3,2,2.4,4.1,3.5,6.2c1.2,2.4,2.4,4.8,3.1,7.4
			C334.1,123.5,334.4,124.1,334.7,124.6z M181,134.3c0.1,0,0.4,0.1,0.6,0.2c-1.2-4.9-1.2-10-1.1-15c0.1-2.1,0.5-4.1,0.6-6.2
			c-0.2,0-0.5,0.1-0.6,0.2c-1.1,4.3-0.9,8.8-0.6,13.2C179.9,129.2,180.2,131.8,181,134.3z M197.4,116.7c-0.1,1.1,0,2.1-0.1,3.2
			c-0.2,3.2-0.9,6.2-1.5,9.3c-0.7,2.6-1.2,5.3-2.5,7.7c0.2,0,0.4,0.1,0.6,0.1c1.3-2.2,2-4.8,2.7-7.2c0.8-3,1.7-6,2-9.1
			c0-1.5,0.2-3.2-0.5-4.6C197.9,116.2,197.6,116.4,197.4,116.7z M324.1,120.6c0,0.7,0,1.3,0.3,1.9c1.4,3.1,3,6.2,4.9,9
			c1.1,1.5,2.2,3.1,3.8,4.2c-3.8-4.2-6.3-9.4-8.5-14.6C324.5,120.9,324.3,120.7,324.1,120.6z M185.9,125.8c0.5-1.7,0.5-3.5,0.8-5.3
			c0.2-2.9,0.6-5.8,0.1-8.6c-0.2,0-0.7,0-0.9,0c-0.2,3.4-0.1,6.7-0.2,10.1c-0.4,1.8-0.5,3.8-0.5,5.7c0.2,0,0.5-0.1,0.6-0.2
			C185.8,126.9,185.9,126.4,185.9,125.8z M337.9,131.7c-0.3-2.5-0.6-5-1.5-7.3c-0.2,0-0.6,0-0.7,0c0.3,1.6,0.9,3.1,1.1,4.8
			c0.5,2.9,0.9,5.8,0.9,8.7c0.1,0,0.3,0,0.3,0C338.1,135.8,338.2,133.7,337.9,131.7z M334,130.5c-0.1,0.1-0.3,0.3-0.4,0.4
			c0.4,2.2,1.3,4.2,1.7,6.3c0.2,0.7,0.2,1.5,0.8,2c0.2-2-0.5-3.9-1-5.9C334.8,132.3,334.6,131.3,334,130.5z M178.3,133.6
			c-0.1,0-0.4-0.1-0.6-0.2c-0.1,2.3,1.1,4.3,1.8,6.3c1,2.2,1.8,4.5,3.3,6.4c0-0.2,0-0.5-0.1-0.7C181,141.7,179.3,137.7,178.3,133.6z
			 M190.5,136c1-3.5,2.2-7,3.1-10.5c0.5-1.7,0.9-3.6,0.6-5.4c-0.2,0-0.7,0-0.9,0c-0.4,2-0.7,4-1.2,6c-0.7,3.1-1.7,6.2-2.2,9.4v-0.3
			c-0.4,1.1-0.6,2.3-0.8,3.4c0.2,0,0.5,0,0.7,0C190.1,137.8,190.3,136.9,190.5,136z M185.8,138.4c0.6-0.8,0.8-1.8,0.9-2.8
			c0.4-0.8,0.5-1.8,0.7-2.7c1.3-4.9,3.1-9.8,2.9-14.9c0.1-0.4-0.3-0.6-0.5-0.9c-0.2,0.5-0.4,1-0.4,1.5c-0.2,2.5-0.6,5-1.2,7.4
			c-0.6,3.2-1.7,6.3-2,9.5C185.8,136.4,185.3,137.5,185.8,138.4z M184.9,140.9c-0.1,1.4,0.3,2.8,0.7,4.2c0.7,2.3,1.5,4.5,2.4,6.7
			c0.2,0,0.5,0.1,0.7,0.1c-1.2-3.9-2.7-7.8-3-12C185.3,140.1,184.9,140.4,184.9,140.9z M192.4,153.5c-0.1-1.2-0.6-2.2-0.8-3.3
			c-0.7-2.7-1-5.6-1-8.4c-0.3,0-0.6,0-0.9,0c-0.3,1-0.3,2-0.2,3c0.3,3,1.1,5.9,2.4,8.6C191.9,153.3,192.2,153.4,192.4,153.5z
			 M190.7,155.5c0.1,1.2,0.9,2.1,1.4,3.1c0.9,1.6,1.5,3.4,2.2,5.1c0.1-0.1,0.3-0.2,0.5-0.3c-0.4-2-1.1-4-2-5.8
			C192.3,156.8,191.9,155.5,190.7,155.5z"/>
		<path class="st11" d="M253.2,157c0.1,0,0.4,0.1,0.5,0.1c1.4,2.8,2.6,5.8,3,8.9c0.7,3.7,0.6,7.5,0.3,11.3c-0.3,3.6-1.2,7.1-2,10.6
			c-0.9,3.1-1.5,6.4-3.6,8.9c-0.3,0-0.7,0-1,0c0.3-1.1,0.8-2.2,1.1-3.4c-1.3,1-2.5,2.3-3,3.8c-0.4,1.3,0.7,2.5,1.7,3.2
			c1.3,0.8,2.9,1.1,4.4,1.6c3,0.8,6,1.3,9.1,2c2.1,0.4,4.2,0.9,6.4,0.5c1.7-0.6,3.2-1.7,4.7-2.6c2.2-1.4,4.7-2.9,5.5-5.6
			c0.5-1.4-0.5-2.7-0.2-4.1c0.6,0,1.3-0.3,1.8,0.2c1,1.1,1.3,2.8,0.7,4.2c-1,2.4-3.1,4.1-5.2,5.6c-1.9,1.2-3.8,2.3-5.9,3.2
			c-1.4,0.6-3,0.5-4.6,0.5c-2.2-0.1-4.4-0.7-6.6-1c-3.2-0.4-6.4-1.2-9.4-2.2c-1.7-0.6-3.2-1.8-3.9-3.5c-0.7-2.1,0.6-4.2,2-5.7
			c0.9-1.1,2.2-1.8,3.5-2.2c1.6-6.1,3.1-12.4,3.2-18.8c0.2-3.2-0.2-6.4-0.9-9.5C254.2,161,253,159.1,253.2,157z"/>
		<path class="st8" d="M310.7,158.6c2.1-0.7,4.2-1.6,6.5-1.6c0,0.3-0.1,0.6-0.1,0.8c-3,1-6.1,2.1-8.9,3.6c-1.5,0.7-2.7,1.7-4.2,2.3
			c0.1-0.5,0.1-1.1,0.5-1.5C306.1,160.4,308.5,159.6,310.7,158.6z"/>
		<path class="st12" d="M231.7,157.9c0.9-0.2,1.8,0.1,2.3,0.9c0.6,1.1,0.2,2.5,0,3.7c-0.2,1.1-0.5,2.4-1.7,2.9
			c-1.1,0.6-2.4-0.2-2.7-1.3c-0.4-1.4-0.3-2.9,0.3-4.3C230.2,158.9,230.8,158.1,231.7,157.9z"/>
		<path class="st8" d="M220.2,159.3c0.2-0.1,0.5-0.4,0.6-0.5c2,0.3,4,1.2,5.7,2.4c0.4,0.2,0.4,0.7,0.5,1.2c-1.3-0.3-2.5-1-3.8-1.3
			C222.2,160.5,220.9,160.3,220.2,159.3z"/>
		<path class="st12" d="M298.1,159.6c1.1-0.2,2.2,0.4,2.6,1.4c0.5,1.4,0.2,2.9-0.1,4.3c-0.3,1.2-0.8,2.5-2,3.1
			c-0.9,0.3-2.1,0.1-2.6-0.7c-0.9-1.3-0.9-3-0.6-4.5C295.7,161.7,296.5,160,298.1,159.6z"/>
		<path class="st8" d="M214.6,160.1c1.8-0.5,3.7,0.2,5.4,0.8c2.2,1,4.4,2.2,6.3,3.6c0,0.2,0,0.6,0,0.8c-1.5-0.5-2.8-1.3-4.3-1.9
			c-2.4-1.1-4.9-1.7-7.4-2.5C214.7,160.6,214.6,160.2,214.6,160.1z"/>
		<path class="st8" d="M313.2,161.1c1.2-0.6,2.3-1.2,3.6-1.3c0,0.3,0,0.6,0,0.9c-3.5,2.4-7.1,4.7-10.7,6.9c-1.5,0.8-3,2-4.8,2
			c-0.1-1,0.7-1.6,1.4-2.2C305.9,164.8,309.5,162.9,313.2,161.1z"/>
		<path class="st9" d="M173.7,165.2c2.2-0.8,5-0.9,6.9,0.8c2.2,1.8,3.1,4.6,3.7,7.3c0.4,1.9,0.9,3.8,0.9,5.8c0,0.8,0,1.6,0,2.3
			c-0.1-0.6-0.3-1.2-0.4-1.8c-0.8-3.7-1.2-7.6-3.4-10.8c-1-1.5-2.5-2.8-4.3-2.9c-1.6-0.1-3.5,0.2-4.5,1.6c-0.8,1.1-0.9,2.5-1.3,3.8
			c-0.1,0.3-0.3,0.6-0.4,1c-0.1-1.1-0.2-2.1-0.1-3.2C171,167.4,172.1,165.8,173.7,165.2z"/>
		<path class="st8" d="M220.8,166c1.3,0.3,2.5,0.9,3.8,1.3c1.9,0.6,3.8,1.1,5.7,1.4c3.3,0.5,6.7,0,10-0.5c1.6-0.2,3.1-0.8,4.6-1
			c-0.3,0.8-1.2,0.9-1.8,1.2c-2.8,0.9-5.7,1.3-8.6,1.7c-2.3,0.3-4.7,0-7-0.6c-2-0.6-4.1-1.1-5.9-2.3
			C221.2,166.9,221,166.5,220.8,166z"/>
		<path class="st9" d="M170.7,173.2c-0.3-1.3-0.3-2.8,0-4.1c0,1.1,0.1,2.1,0.1,3.2c0.1-0.3,0.3-0.6,0.4-1c0,0.7,0,1.4,0,2.2
			C171.2,173.4,170.9,173.3,170.7,173.2z"/>
		<path class="st8" d="M288.4,169.5c1.4,0.1,2.6,1.1,3.9,1.4c4,1.1,8.1,0.8,12.2,0.7c2.2-0.1,4.4-0.4,6.5-0.9c0,0.2-0.1,0.5-0.1,0.7
			c-2.5,1.1-5.2,1.2-7.8,1.5c-4.3,0.4-8.8,0.6-12.7-1.4C289.6,170.9,288.5,170.5,288.4,169.5z"/>
		<path class="st8" d="M238.4,171.1c1.5-0.3,2.8-0.9,4.3-1.1c-0.4,0.8-1.3,1-2.1,1.3c-3,1-6.2,1.6-9.3,1.8c-2.6,0.2-5.3-0.6-7.5-1.9
			c0-0.2-0.1-0.5-0.1-0.7c1.6,0.5,3.1,1.3,4.8,1.5C231.8,172.3,235.1,171.8,238.4,171.1z"/>
		<path class="st8" d="M287.7,172.8c1.6,0.4,3.1,1.2,4.8,1.5c4.5,0.9,9.1,0.7,13.6,0.3c1.2-0.1,2.3-0.4,3.5-0.5
			c-0.6,0.9-1.8,0.9-2.7,1.2c-3.2,0.5-6.5,0.7-9.8,0.7C293.8,175.8,290.1,175.3,287.7,172.8z"/>
		<path class="st13" d="M219.1,173.7c1.7-0.1,3.3,0.9,4.9,1.2c4.1,1.1,8.4,1.7,12.6,1.4c0.4,0,1-0.1,1.3,0.2
			c0.2,0.6-0.7,0.6-1.1,0.7c-3.8,0.5-7.7,0.3-11.5-0.4c-2.2-0.5-4.4-1.2-6.3-2.4C219.2,174.3,219.1,173.9,219.1,173.7z"/>
		<path class="st13" d="M264.4,177c0.2-0.9,0.3-2.1,1.4-2.5c0.1,4.4-0.4,8.7-0.7,13.1c-0.2,2.6-0.1,5.3-0.1,7.9
			c-0.2,0-0.5,0-0.7-0.1c-0.7-3.1-0.5-6.4-0.5-9.6C263.9,182.9,263.9,179.9,264.4,177z"/>
		<path class="st9" d="M185.2,179c0.1,0.3,0.2,0.6,0.3,0.9c0.4,3.1,0.4,6.2,0.2,9.2c-0.1,0.6,0,1.3-0.6,1.6c-0.1-1.9,0.1-3.8,0-5.7
			c0-1.8-0.4-3.6-0.3-5.5c0.1,0.6,0.3,1.2,0.4,1.8C185.2,180.6,185.2,179.8,185.2,179z"/>
		<path class="st9" d="M335,183.8c2.7-2,5.7-3.6,8.9-4.4c0.1,0.2,0.2,0.5,0.3,0.7c-2.4,1.1-4.8,2.2-7,3.8c-1.6,1-3.2,2.1-4.1,3.8
			c-0.2,0-0.5,0-0.6,0C332.2,185.9,333.7,184.7,335,183.8z"/>
		<path class="st9" d="M345,181c0.4-0.2,0.8-0.4,1.2-0.5c-0.6,1.9-2.7,2.5-4.3,3.3c-2.1,0.9-4,2.2-5.6,3.8c-0.9,0.8-1.2,2.1-2.3,2.6
			c0.5-2.6,2.7-4.4,4.6-5.9C340.5,182.8,342.8,182.1,345,181z"/>
		<path class="st9" d="M173.2,185.5c1.2,0.7,1.6,2.2,2.4,3.3c2.6,3.7,5.7,7,9.2,9.8c0.8,0.6,1.6,1.3,2.1,2.1c-1.1-0.4-2.1-1.1-3-1.8
			c-3-2.4-5.8-5-8.1-8C174.7,189.2,173.7,187.4,173.2,185.5z"/>
		<path class="st9" d="M178,195.8c0.5,0.3,0.9,0.7,1.2,1.1c0.9,1.2,2.1,2.1,3.3,2.9c1.5,1.1,3.1,2.1,4.8,2.9
			c0.7,0.3,1.6,0.6,2.1,1.3c-1.4-0.1-2.8-0.7-4-1.4c-2.4-1.3-4.8-2.9-6.6-5.1C178.3,197,178.1,196.4,178,195.8z"/>
		<path class="st8" d="M269.9,207.6c0.6,0.4,0.5,1.1,0.6,1.8c0.2,2.9-0.3,5.7-0.9,8.5c-0.3,0.1-0.6,0.3-0.9,0.4
			C269.8,214.9,269.3,211.2,269.9,207.6z"/>
		<path class="st8" d="M266.2,208.3c0.2,0,0.5,0.1,0.7,0.1c0.6,3.8-1,7.5-1.6,11.2c0.4,0,0.9,0,1.3,0c-0.4,0.1-0.8,0.1-1.1,0.2
			c-0.4-0.4-0.7-0.9-1.1-1.3c0.3-0.3,0.6-0.7,0.7-1.1C265.6,214.5,265.9,211.4,266.2,208.3z"/>
		<path class="st5" d="M282.6,217.6c2.8,0.1,5.5-1.3,8.2-0.7c-0.1,0.6-0.3,1.2-0.4,1.8c-3,1.1-6.2,1.3-9.3,2.1
			c-4.1,1.1-8.3,1.7-12.5,2.1c-7,0.3-14-0.3-20.9-0.7c-3.8-0.3-7.5-0.9-11.3-0.9c-1.1,0-2.3-0.1-3.4,0.4c-0.2,0.3-0.3,0.7-0.5,1
			c-0.4,0-0.7,0-1.1,0c0-0.6-0.1-1.1,0.1-1.7c0.7-0.7,1.7-1.1,2.6-1.2c1.1-0.1,2.3-0.4,3.4-0.5c2.7-0.4,5.5-0.3,8.2-0.3
			c3,0.2,5.9-0.1,8.8-0.5c2.6-0.5,5.3-0.8,7.9-0.7c0.7,0,1.4,0.2,1.8,0.8c0.4,0.4,0.7,0.9,1.1,1.3c0.4-0.1,0.8-0.1,1.1-0.2
			c0.8-0.3,1.4-1,2.1-1.4c0.3-0.2,0.6-0.3,0.9-0.4C273.9,217.9,278.2,217.4,282.6,217.6z"/>
		<path class="st5" d="M237.2,226.4c1.7,0.8,3.2,1.9,4.6,3.2C239.9,229.1,238.4,227.8,237.2,226.4z"/>
		<path class="st5" d="M265,234.3c2.3-0.7,4.6-1,7-1.3c-0.2,0.3-0.4,0.5-0.7,0.5C269.2,234,267.1,234.4,265,234.3z"/>
		<path class="st8" d="M325.1,162.8c0,6.8,1,13.5,0.9,20.2c0,2.5,0.1,5.1-0.2,7.6c-0.1,1.3,0,2.6-0.3,3.9c0.2,2.3-0.2,4.5-0.4,6.8
			c-0.4,3.9-0.9,7.8-1.8,11.6c0,0.4-0.3,0.6-0.6,0.8c0-1.2,0.3-2.3,0.5-3.5c0.7-4.5,1-9.1,1.4-13.6c0.1-1.1-0.1-2.2,0.3-3.2
			c0.4-9.7-0.9-19.4-0.5-29.1C324.5,163.8,324.6,163.1,325.1,162.8z M199.4,201.2c0-5.9,0.9-11.8,1.7-17.7c0.4-2.6,0.4-5.3,0.5-7.9
			c0-0.4,0-0.8-0.1-1.2c-0.4,0.4-0.6,1-0.7,1.6c-0.4,2.5-0.5,5.1-0.9,7.7c-0.5,3.7-1,7.5-1.3,11.2c-0.3,3.8-0.4,7.6-0.2,11.4
			c0.3,6.4,1.8,12.7,3.6,18.8c0.6,1.8,1.4,3.5,2.3,5.2c0.2,0,0.5,0.1,0.7,0.1c-0.9-2-1.7-3.9-2.5-6
			C200.5,216.9,199.2,209,199.4,201.2z M329.9,187.8c0.1-2.1,0.1-4.3,0-6.4c-0.2-5.2-0.5-10.4-0.7-15.6c-0.1-3.5-0.4-7-0.3-10.5
			c0.2-1,0.5-2.1,0.4-3.1c-0.7-0.1-1,0.9-0.8,1.4c-0.7,2.6-0.5,5.3-0.6,7.9c0,6.6,0.2,13.3,1,19.9c0.2,1.4,0.1,2.8,0.4,4.1
			c-0.1,3.5,0.2,7-0.2,10.4c-0.1,1.5-0.4,3-0.4,4.5c0.2-0.2,0.5-0.5,0.5-0.8c0.4-2.2,0.7-4.4,0.8-6.6
			C330,191.2,330.2,189.5,329.9,187.8z M237,196.9c-1.4,1.6-3,3-4.7,4.3c-3.3,2.6-6.8,5.1-9.6,8.2c-3,3.3-5.2,7.4-5.7,11.8
			c-0.3,2.8,0.1,5.7,1.2,8.4c1.2,3,2.7,5.8,4.7,8.4c0.2,0,0.6,0,0.7,0.1c-0.6-1.5-1.5-2.8-2.2-4.3c-1.9-4-3.4-8.4-2.8-12.9
			c0.7-4.8,3.7-8.9,7.1-12.2c2.6-2.5,5.4-4.8,8.2-7.1c1.6-1.4,3.3-2.7,4.5-4.5h0.2c0.5-0.6,0.9-1.3,0.6-2.1
			C238.4,195.4,237.7,196.1,237,196.9z M303.9,213.1c-0.9-3.3-2-6.6-4-9.5c0.1-0.3-0.2-0.7-0.3-1c-0.6-1.2-1.3-2.3-2-3.4
			c-0.5-0.8-1.1-1.7-2.1-2c0.2,0.8,0.7,1.6,1.2,2.3c1.1,1.6,1.8,3.5,2.6,5.3l0.1-0.2c1.5,3.7,2.9,7.5,3.4,11.5
			c0.7,4.3,0.2,8.7-0.4,13c-0.6,3.8-1.4,7.6-2.5,11.3c0.2,0,0.5,0,0.7,0c1.6-3,2.3-6.4,3.1-9.7C305,225,305.4,218.9,303.9,213.1z
			 M216.2,212.5c1.1-2.5,2.9-4.6,4.8-6.6c0.4-0.4,0.7-0.8,1-1.3c-0.7,0-1.4,0.2-1.9,0.7c-2.5,2.2-4.4,4.9-5.6,8
			c-1.2,3.4-1.3,7-1.4,10.6c0.1,1.8,0.1,3.7,0.5,5.4c0.2-0.5,0.6-0.9,0.5-1.4c-0.2-1.8-0.3-3.6,0-5.4
			C214.3,219.1,214.7,215.6,216.2,212.5z M305.6,209.1c1.1,3.4,1.7,6.9,1.7,10.5c0.1,5-1.3,9.9-3.3,14.4c0.9-0.5,1.2-1.5,1.6-2.4
			c0.7-1.7,1.2-3.6,1.8-5.4c1-3.6,1.3-7.5,0.5-11.2C307.4,213,307,210.8,305.6,209.1z M196.6,215.3c-0.4-4-0.9-7.9-0.9-11.9
			c-0.1-4.8,0.3-9.6,0.8-14.5c0.3-3.1,0.9-6.2,1-9.4c0-1.9,0.1-3.9-0.5-5.8c0-0.8-0.1-1.9-1-2.2c0.1,1.4,0.5,2.8,0.5,4.3
			c0,1.4,0,2.7,0.1,4.1c-0.7,4.9-1.5,9.7-1.8,14.7c-0.4,5.2,0,10.4,0.5,15.6c0.3,1.9,0.3,3.8,0.9,5.6c0.1,2.3,0.9,4.4,1.8,6.5
			c0.2-0.1,0.4-0.1,0.6-0.2c-0.5-1.3-1-2.5-1.2-3.8C197.1,217.4,197,216.3,196.6,215.3z M259.7,248.9c5.2-0.7,10.5-1.1,15.8-1.3
			c0-0.2,0-0.5,0-0.7c-5.7-0.1-11.4,0.1-17,1c-1.1,0.2-2.3,0.3-3.2,1.2C256.8,249.3,258.2,249,259.7,248.9z M278.7,250.4
			c-8.2,0.3-16.4,0.2-24.4,1.9c-0.2,0.1-0.4,0.3-0.6,0.5c1.9,0,3.8-0.3,5.7-0.4c4.4-0.3,8.7-0.8,13.1-1c2.7-0.1,5.4-0.1,8-0.5
			C280,250.2,279.3,250.4,278.7,250.4z"/>
		<g>
			<path class="st8" d="M311.1,249.8c-0.8,1-1.5,2-2.1,3.1c-1.6,3-3.7,5.7-5.4,8.7c-2.7,4-5.3,8.2-8.1,12.2c-1.7,3-3.8,5.8-6.7,7.8
				c-2.5,1.7-5.7,1.9-8.5,2.9c-3.3,1.2-6.8,1.3-10.2,1.9c-3.4-0.3-6.8,0.1-10.2-0.2c-3.7-0.3-7.4-0.6-11.1-1.1
				c-1.7-0.2-3.4-0.9-5-1.5c-1.3-0.5-2.7-0.9-3.9-1.8c-0.4-0.3-0.8-0.7-1.3-0.8c-1.4-1.7-3.4-2.8-4.7-4.6c-2.6-3.4-5.3-6.7-7.5-10.3
				c-1.8-2.9-3.5-5.8-5-8.8c-2.2-4.2-4.6-8.4-7.2-12.4c-1.4-2.2-3.2-4.2-4.8-6.2c-1.4-1.8-3-3.2-4.5-4.8c-0.6-0.6-1.2-1.1-1.9-1.4
				c1.3,2.2,3,4.2,4.5,6.2c1.8,2.5,4,4.8,5.6,7.5c0.9,1.5,1.8,2.9,2.7,4.4c1.5,2.8,3.3,5.5,4.7,8.3c2,3.8,4.2,7.6,6.7,11.2
				c1.8,2.4,3.5,4.8,5.4,7c1.4,1.6,3.1,2.9,4.9,4.1c2,1.6,4.3,3,6.8,3.7c3,1.3,6.4,1.6,9.7,1.9c3.4,0.3,6.8,0.7,10.2,0.6
				c2.2-0.1,4.4,0.2,6.6,0c0.5,0.1,1.1,0.1,1.6,0.1c3.5-0.2,7.1-0.5,10.5-1.8c1.2-0.5,2.4-1.3,3.7-1.4c2-0.2,3.6-1.4,5.1-2.6
				c2.3-1.9,4-4.4,5.5-6.9c1.5-2.1,2.9-4.3,4.1-6.6c1.1-2.1,2.4-4,3.4-6.2l0.2,0.1c1.7-2.9,3.6-5.6,5-8.6c0.7-1.2,1.6-2.3,1.8-3.7
				C311.6,249.8,311.3,249.8,311.1,249.8z"/>
			<path class="st8" d="M232,266.8c2.1,2.8,4.1,5.6,6.8,7.9c0.8,0.7,1.7,1.2,2.7,1.5c-1-0.9-2.3-1.5-3.2-2.5c-2.2-2.4-4.1-5-5.9-7.7
				c-2.5-3.8-5.5-7.4-8.1-11.2c-0.6-0.8-1.1-1.7-1.8-2.5c0.2,1.9,1.4,3.4,2.4,5C227.2,260.7,229.7,263.7,232,266.8z"/>
			<path class="st8" d="M240.4,271c1,1.2,2.1,2.2,3.4,3.1c0-0.3,0.1-0.8-0.2-1c-0.9-0.9-1.8-1.8-2.7-2.6c-4.3-5-8.1-10.4-11.6-15.9
				c-0.1,0.1-0.4,0.2-0.5,0.3c0.5,2,1.8,3.7,3,5.4C234.5,264,237.4,267.6,240.4,271z"/>
		</g>
		<g>
			<path class="st8" d="M216.8,276.6c-1.3-5.5-1.5-11.4-4.1-16.6c-0.6-1.1-0.9-2.3-1.7-3.3c-0.1,1.1,0,2.2,0.4,3.2
				c1.1,2.7,1.8,5.5,2.4,8.4c1.6,7.8,3.6,15.6,6.7,22.9c0.4,1,0.7,2,1.4,2.8c0.1,0,0.4-0.1,0.5-0.1c-0.3-1.1-0.8-2.1-1.3-3.1
				C219.2,286.3,217.9,281.5,216.8,276.6z"/>
			<path class="st8" d="M226.5,288.2c-1.1-3.7-2.2-7.3-3.5-10.9c-1.5-4.3-3-8.6-5-12.7c-0.4-0.8-0.5-1.9-1.5-2.2
				c0,1.3,0.6,2.5,1.1,3.8c3.5,8.2,6.5,16.5,9.2,25c0,1.7,0.6,3.3,0.9,5c0.2-0.1,0.4-0.1,0.6-0.2c-0.4-2-0.6-4.2-1.4-6.1
				C226.9,289.3,226.7,288.7,226.5,288.2z"/>
			<path class="st8" d="M296.1,302.1c-0.2-3,0.1-6,0.8-8.9c0.8-3.4,1.8-6.8,3-10c1.9-5.3,4.5-10.3,5.6-15.9c-0.3,0-0.6,0-0.9,0.1
				c-1.2,2.7-2.1,5.6-3.3,8.4c-2.6,6.3-4.7,12.7-5.8,19.4c-0.3,2.3-0.6,4.6,0,6.9C295.6,302,296,302.1,296.1,302.1z"/>
			<path class="st8" d="M302.7,281.4c-1.4,4.5-1.9,9.2-3,13.7c-1.3,5.2-3.4,10.2-6.2,14.7c1.1-0.6,1.6-1.8,2.3-2.8
				c2.1-3.8,3.7-7.9,5-12c1.1-3.9,1.7-7.8,2.4-11.8c0.2-1.3,0.6-2.6,0.6-3.9C303.2,279.9,303,280.7,302.7,281.4z"/>
			<path class="st8" d="M281.7,312.9c-0.9,3-2.1,5.9-3.1,8.8c-1.1,1.5-1.5,3.4-2.3,5.1c-0.9,2.1-2.1,4.1-2.8,6.3
				c1.2-0.8,1.5-2.3,2.2-3.4c1.2-2.6,2.6-5.2,3.4-7.9c1.5-3.5,2.9-7.1,4.1-10.7c1.7-5.3,2.5-10.8,2.7-16.3c0.1-1.7,0.8-3.2,1.1-4.8
				c-1.3,1.4-2,3.3-2.1,5.2C284.4,301.1,283.5,307.1,281.7,312.9z"/>
			<path class="st8" d="M263.5,317.1c-2.3-4-3.9-8.6-4.1-13.2c-0.1-1.6,0.4-3.2,0-4.8c-0.2,0-0.5,0.1-0.7,0.1
				c-1.1,2.1-1.2,4.6-1,6.9c0.2,3,1.4,5.8,2.7,8.4c1.1,2.3,2.6,4.5,4.5,6.3c0.7,0.6,1.4,1.4,2.4,1.4c0-0.2,0-0.5,0-0.7
				C265.8,320.2,264.4,318.8,263.5,317.1z"/>
			<path class="st8" d="M243.7,310.1c-0.8-1.9-1.9-3.7-2.3-5.7c-0.1-0.3-0.2-0.6-0.4-0.9c-0.1,1.3-0.1,2.6,0.4,3.8
				c1.3,3.2,2.6,6.5,4.4,9.5c2.6,4.3,5.6,8.2,8.2,12.5c0.5,0.8,0.9,1.9,1.8,2.4c-0.1-0.7-0.4-1.4-0.7-2.1
				C251.6,323,246.8,317,243.7,310.1z"/>
			<path class="st8" d="M254.5,318.9c-1-2.1-2.4-4-3.3-6.1c-0.1-0.3-0.4-0.5-0.6-0.8c-0.2,1.7,0.9,3.2,1.6,4.7
				c2.8,5.1,5,10.4,7.4,15.7c0.4,0.9,0.6,1.9,1.4,2.4c-0.3-1.5-1-2.9-1.6-4.4C257.9,326.6,256.4,322.7,254.5,318.9z"/>
		</g>
		<path class="st14" d="M234.2,337.5c1.3-0.8,3-0.7,4.3,0.1c1.8,1,3.4,2.2,4.9,3.6c1.8,1.5,3.4,3.4,4.3,5.7c0.4,1.1,0.8,2.3,1.9,2.9
			c2.3,1.2,5.2,0.4,7.5,1.6c0.7,0.3,1.3,0.7,2.1,0.8c1.1,0.1,2.1,0.6,3.1,1.1c2.2,1,4.2,2.5,5.5,4.6c0.2-0.3,0.4-0.5,0.6-0.8
			c0.3,0.1,0.6,0.2,1,0.3c-1.3,3.7-2.9,7.4-4.4,11.1c0.6-0.8,1.2-1.6,2-2.2c-0.2,0.5-0.4,1.1-0.6,1.6c0.7-0.5,1.5-0.9,2.3-1.3
			c-1.2,1.4-2.7,2.5-4.1,3.6c-0.4,0.3-0.6,0.7-0.8,1.2c-1,2.5-1.6,5.2-2.1,7.9c-0.5,3.1-0.2,6.3-0.1,9.5c0,1.6,0.5,3.2,0.5,4.8
			c-0.4-0.1-0.7-0.1-1.1-0.3c-0.4-0.6-0.5-1.3-0.6-1.9c-0.5-4-1-8-0.5-12c0.5-3.3,1.3-6.5,2.7-9.5c1.7-3.5,3.2-7.1,4.9-10.7
			c-1.5-1.4-3.1-2.6-4.8-3.5c-2.7-1.5-5.6-3-8.7-3.2c-2-0.2-4.4,0-6.1-1.4c-1.7-1.4-1.9-3.8-3.3-5.5c-1.2-1.5-2.7-2.6-4-3.9
			c-1.1-0.9-2.3-1.8-3.6-2.4c-1.1-0.5-2.2,0.3-3,1c-1.8,1.6-3.4,3.5-5.1,5.1c-4.1,3.8-8,8.1-12.8,11.1c-0.5,0.3-1,0.4-1.5,0.4
			c0.3-0.9,1.1-1.4,1.7-2c2-1.8,4.1-3.4,6-5.4c2.2-2.3,4.6-4.3,6.7-6.7C230.6,340.9,232,338.7,234.2,337.5z"/>
		<path class="st14" d="M283.4,345.2c1.5-0.5,2.9,0.4,4.2,1c1.6,0.7,2.7,2.3,4.4,2.7c1.6-0.3,2.9-1.7,4.6-1.9
			c2.2-0.5,4.5,0.2,6.1,1.7c1.4,1.3,3,2.2,4.4,3.5c0.5,0.4,0.7,1.1,0.6,1.7c-1.9,0.5-3.4-0.8-4.9-1.7c-1.4-0.9-2.4-2.3-4-2.8
			c-0.8-0.2-1.7-0.2-2.5,0c-1.6,0.5-2.9,2-4.7,1.9c-1.7-0.1-2.9-1.4-4.3-2.3c-1-0.7-2.1-1.2-3.2-1.7c-0.9,1.4-1.2,3-2.1,4.4
			c-1,1.8-2.2,3.6-3.6,5.2c-2.1,2.3-4.3,4.4-6.6,6.5c-1.1,1-2,2.1-3.3,2.9c-0.8,0.4-1.5,0.9-2.3,1.3c0.2-0.5,0.4-1.1,0.6-1.6
			c2.9-3.7,6.6-6.8,9.8-10.3c1.9-2.2,3.5-4.7,4.5-7.4C281.9,347.2,282.2,345.8,283.4,345.2z"/>
		<path class="st14" d="M267.1,374.9c1-0.2,2.1,0.5,2.1,1.6c0.2,1.6-1.3,3-2.8,3.2c-1.1-0.1-1.8-1.3-1.4-2.3
			C265.4,376.4,266,375.2,267.1,374.9z"/>
		<path class="st15" d="M364,448.3c0.4-1.7,0.4-3.4,0.6-5.2c0.2-0.7,0.4-1.5,0.5-2.3c1.8-9.7,4.5-19.2,6.6-28.9c0.2-0.9,0.6-2,0-2.8
			c-0.6,0.1-0.7,0.7-0.5,1.1c-0.8,1.9-1.4,3.9-2.1,5.9c-2,6-3.1,12.3-4.2,18.5c-0.5,2.7-1.1,5.3-1.2,8c-0.5,1.2-0.4,2.5-0.6,3.7
			c0,0.5-0.1,1.2,0,1.7h0.9L364,448.3L364,448.3z"/>
		<path class="st15" d="M377.4,432.9c0.3-0.7,0.5-1.4,0.6-2.2c2.9-11.3,6.6-22.3,10.8-33.2c1.9-5.3,4.4-10.6,4.6-16.4
			c-0.8,0.5-1.1,1.4-1.5,2.2c-0.8,2.2-1.6,4.4-2.6,6.5c-2,4.5-3.9,9.2-5.4,13.9c-2.3,7.3-4.2,14.7-6,22.1c-0.5,2.2-1.2,4.4-1.4,6.7
			c-0.6,1.7-1,3.6-1.4,5.4c0.2,0,0.6,0,0.8,0C376.6,436.4,377.2,434.7,377.4,432.9z"/>
		<path class="st15" d="M301.4,397c1.9-4.8,4.3-9.5,7.1-13.9c1.4-2,2.2-4.5,1.8-6.9c-0.6,0.7-0.7,1.7-1,2.6
			c-0.7,1.9-2.1,3.4-3.1,5.1c-3,5.3-5.1,11-7,16.8c0.2,0,0.5,0,0.7-0.1C300.4,399.3,300.9,398.1,301.4,397z"/>
		<path class="st15" d="M300.8,410.3c2.6-3.5,5.1-7.1,7.4-10.8c1.6-2.7,2.9-5.6,3.9-8.6c-0.5,0.2-1,0.5-1.2,1
			c-0.9,1.4-1.7,3-2.6,4.4c-4.3,6.7-8.3,13.7-13.5,19.8c0.1,0.2,0.3,0.5,0.4,0.6C297.4,415,299.1,412.6,300.8,410.3z"/>
		<path class="st15" d="M126.3,442.3c-0.2-6-1.4-11.9-3.5-17.5c-0.3,0-0.6,0-1,0.1c0.1,1.6,0.7,3.1,1.1,4.7
			c1.3,5.5,1.9,11.1,2.4,16.7c0.1,0.7,0.1,1.4,0.2,2.1h1.2C126.5,446.3,126.4,444.3,126.3,442.3z"/>
		<path class="st15" d="M385,443.7c0.2-6.3,1.1-12.7,3.6-18.6c0.4-1.2,1.3-2.2,1.3-3.6c-1,0.3-1.6,1.3-2.1,2.1
			c-2.9,4.7-4.1,10.2-4.3,15.7c-0.1,2.9-0.2,6,0.6,8.8h1.3C385.1,446.8,384.9,445.3,385,443.7z"/>
		<path class="st15" d="M259.9,412.4c0.3,0.4,0.7,0.7,1.1,1c0.1-0.2,0.3-0.5,0.4-0.6c-0.4-0.7-1-1.3-1.7-1.7
			c-2.5-2.2-4.8-4.6-6.8-7.2c-1.2-1.5-2.4-3.1-4.1-4.2c-0.4-0.4-1-0.2-1.5-0.1c0.8,1.1,1.8,2,2.7,3.1
			C252.9,406.4,256.3,409.5,259.9,412.4z"/>
		<path class="st15" d="M126.6,407.2c2.8,6.2,4.5,12.8,5.4,19.6c0.5,3.2,0.4,6.4,0.4,9.7c0.3,0,0.6,0,0.9,0
			c0.5-4.7,0.3-9.5-0.4-14.3c-0.9-5.7-2.1-11.4-4.3-16.7c-2.1-5-4.5-9.8-7.5-14.3c-1.4-2.1-2.5-4.4-2.8-6.9c-0.4,0-1,0.1-1.1,0.6
			c-0.3,2.8,0.8,5.4,2.2,7.8C122,397.3,124.3,402.2,126.6,407.2z"/>
		<path class="st15" d="M137.1,448.3c-0.1-0.7-0.1-1.4-0.2-2c-0.1-1,0.1-2.1-0.7-2.8c-0.5,0.3-1.1,0.6-1.1,1.2
			c-0.2,1.2-0.2,2.5-0.1,3.7h2.1V448.3z"/>
		<path class="st15" d="M254.9,433.8c0.6,0.5,1.2,1.1,2,1.5c-0.2-1-1-1.6-1.7-2.2c-4.3-3.8-8.4-7.7-12.4-11.7
			c-1.2-1.2-2.3-2.6-4-3.1c0.6,1.4,1.8,2.4,2.7,3.5C245.5,426.2,250.2,429.9,254.9,433.8z"/>
		<path class="st15" d="M136,408.8c1.2,6.1,1.9,12.3,3.2,18.4c1.3,6.4,2.9,12.9,5.9,18.8c0.1,0.4,0.6,0.5,1,0.6
			c0-1.4-0.8-2.6-1.2-3.8c-2.3-6.2-3.4-12.7-4.3-19.2c-0.7-6.1-1.6-12.2-3.7-17.9c-0.3-0.9-0.4-2-1.2-2.6c-0.4,0.1-0.5,0.4-0.5,0.8
			C135.1,405.5,135.6,407.2,136,408.8z"/>
	</g>
</g>
</svg>
