<?xml version="1.0" encoding="utf-8"?>
<!-- Generator: Adobe Illustrator 25.2.0, SVG Export Plug-In . SVG Version: 6.00 Build 0)  -->
<svg version="1.1" id="Layer_1" xmlns="http://www.w3.org/2000/svg" xmlns:xlink="http://www.w3.org/1999/xlink" x="0px" y="0px"
	 viewBox="0 0 536 448.2" style="enable-background:new 0 0 536 448.2;" xml:space="preserve">
<style type="text/css">
	.st0{opacity:0.35;}
	.st1{fill:#D6DCE5;}
	.st2{fill:#7703FC;}
	.st3{fill:#B65A35;}
	.st4{fill:#F2844F;}
	.st5{fill:#E56324;}
	.st6{fill:#F95939;}
	.st7{fill:#DC9EB5;}
	.st8{fill:#C96A98;}
	.st9{fill:#803F26;}
	.st10{fill:#DC9EB4;}
	.st11{fill:#FDB391;}
	.st12{fill:#FEBFA1;}
	.st13{fill:#160E0B;}
	.st14{fill:#B75B36;}
	.st15{fill:#BC603D;}
	.st16{fill:#FEBF9D;}
	.st17{fill:#CC492F;}
	.st18{fill:#B95E3A;}
	.st19{fill:#D1434F;}
	.st20{fill:#FFFFFF;}
	.st21{fill:#F09280;}
	.st22{fill:#C06946;}
	.st23{fill:#FDB796;}
	.st24{fill:#B95D38;}
	.st25{fill:#600ADD;}
</style>
<g class="st0">
	<path class="st1" d="M484.6,448.2H51.4C23,448.2,0,425.2,0,396.8V135.6c0-28.4,23-51.4,51.4-51.4h433.2c28.4,0,51.4,23,51.4,51.4
		v261.2C536,425.2,513,448.2,484.6,448.2z"/>
</g>
<g>
	<g>
		<path class="st2" d="M76.7,446.5c-0.1,0.6-0.2,1.1-0.2,1.7h372.2c-0.1-1.1-0.2-2.1-0.3-3.2c-0.3-3.5-0.3-6.9-0.4-10.4
			c-0.3-15.6-1-31.3-2.2-46.9c-1-13.9-2.5-27-6.8-40.6c-2.1-6.5-4.4-11.9-8.2-17.9c-0.9-1.4-1.9-2.8-2.8-4.2
			c-0.8-1.1-1.6-2.1-2.8-3.4c-2.3-2.5-4.7-4.8-7.4-7c-1.3-1.1-2-1.6-3.6-2.7c-1.4-1-2.8-2-4.3-2.9c-2.9-1.9-6-3.6-9-5.2
			c-6.1-3.2-12.3-6.1-18.6-8.9c-0.2-0.1-0.3-0.2-0.5-0.3c-0.2,0-0.3,0-0.5,0c-0.6,0-0.9,0.6-1,1c-0.3-0.2-0.7-0.3-1-0.5
			c-1.3,2.5-4.3,3.4-6.9,3.7c-3,0.4-6,0.5-9,0.5c-1.2,0-2.4,0-3.6,0.1c-0.1,0-0.4,0-0.6,0.1c-2.9,5.8-7.3,11-12.1,15.4
			c-8.2,7.4-17.8,13.3-25.7,21c-3.2,3.1-6.2,6.7-7.1,11.1c-1.2,6.5,2.5,13.4,0.2,19.6c-3.5,9.3-18.1,10.5-21.3,19.9
			c-1.7,4.9,0.3,10.9-2.7,15.2c-2.9,4.3-10.1,5.7-10.4,10.9c-0.1,2.2,1.2,4.1,1.7,6.2c1.5,5.8-3.8,12-9.8,12.2
			c-6,0.3-11.5-4.7-12.7-10.5c-0.4-1.8-0.4-3.7-1.3-5.4c-2.5-4.8-9.3-4.3-14.7-5.1c-12.5-1.9-21-17.2-16.1-28.9
			c3-7,9.8-12.7,9.8-20.4c0-5.4-3.5-10.1-6.4-14.7c-8.1-12.8-12.1-28.2-11.3-43.3c0.2-3.6,1.2-7.9,4.6-9c1.4-0.4,2.9-0.2,4.3-0.6
			c1.4-0.4,2.6-2.1,1.8-3.3c-23.9,12.2-50.7,17.6-75.7,27.3c-25,9.7-49.7,25.4-60.4,50c-1.7,4-3,8.1-4,12.2
			c-0.2,0.8-0.4,1.5-0.6,2.3c-0.8,2.8-1.6,5.5-2.2,8.4c-0.4,2-0.8,4-1.1,6.1c-0.2,0.8-0.4,1.5-0.5,2.3c-0.8,3.3-3.9,17.1-4.5,20.7
			c-0.3,1.5-0.4,3-0.1,4.4c-0.1,0.4-0.1,0.9-0.2,1.3C80.5,427,77.7,441.4,76.7,446.5z"/>
		<path class="st3" d="M287.9,4.7c5.9-1.2,11.9-1.3,17.9-1.3c1.9-0.1,3.9,0.1,5.8,0.3c2.8,0.4,5.5,0.8,8.2,1.7
			c2.9,1,5.8,2.2,8.5,3.6c4.3,2.1,8.6,4.5,12.2,7.7c6.1,5,11.6,10.8,16.2,17.1c2,2.8,3.6,5.8,5.4,8.7c1.6,2.6,2.9,5.4,4.3,8.1
			c1.7,3.4,3,7,4,10.6c1.4,4.5,2.5,9.1,2.6,13.8c0.2,4,0.1,8.1,0.1,12.1c-0.1,5-1.3,9.8-2.9,14.5c-1.2,4.1-3.4,7.8-5.2,11.6
			c-2.2,4.2-3.8,8.7-5.3,13.2c-2.1,5.3-2.9,11-2.9,16.7c-0.1,2.8-0.1,5.6,0.1,8.4c0.5,3.1,1.2,6.2,2.4,9.1c1.3,3.6,3.4,6.9,5.2,10.2
			c3.8,6.8,6.8,14.1,7.7,21.9c0.1,2.3,0.4,4.7-0.2,7.1c-0.9,3.7-2.9,7.1-5.5,9.9c-2.4,2.4-5.4,4.2-7.3,7.1c-1.5,2.2-1.9,5.2-0.7,7.6
			c1.5,3.9,5,6.5,6.4,10.4c1.1,3.4,1.1,7.2-0.5,10.4c-0.8,2-2.1,3.8-3.1,5.7c-0.8,1.6-1.2,3.5-1.1,5.3c0.2,3,2.1,5.5,3,8.4
			c0.8,2.5,1.4,5,1.3,7.6c-0.1,2,0.3,4,0.3,6.1c0.1,2.8-1,5.5-1.6,8.3c-0.3-0.1-0.5-0.2-0.8-0.4c-0.3,0.6-0.5,1.2-0.8,1.8
			c0.4,0.1,0.7,0.3,1.1,0.4c-1,4.3-2.3,8.6-4.5,12.4c-2.6,4.7-6.2,8.6-9.9,12.4c-2.9,2.8-5.9,5.5-9.2,7.9
			c-5.1,3.9-10.5,7.5-15.3,11.8c-1.9,1.8-4,3.6-5.5,5.8c-0.9,1.3-1.9,2.6-2.7,4c-1.2,1.9-1.8,4.2-2.1,6.4c-0.2,1.2-0.1,2.5,0.4,3.7
			c0.8,1.8,1.2,3.8,1.2,5.8c0,2.4,0.3,5-0.7,7.3c-1.3,3-3.2,5.9-6.2,7.4c-2,1-3.9,2.3-5.7,3.7c-2.7,2.1-6,3.4-8.2,6.1
			c-2.3,3.1-2.2,7.3-2.2,11c0.2,2.8-0.5,5.6-2.2,7.8c-1.5,2-3.6,3.3-5.6,4.6c-1.7,1.1-3.5,2.4-4.3,4.3c-0.7,2.1-0.3,4.4,0.8,6.3
			c1.1,1.9,1.4,4.1,1.3,6.3c0,1.1-0.6,2.1-1.3,2.8c-1.1,1.2-2.3,2.2-3.7,3c-1.5,0.9-3.3,1-5,1.1c-2.3,0.2-4.6-0.1-6.7-0.8
			c-1.6-0.5-3-1.6-3.9-3c-2-2.6-2.6-6-3-9.3c-0.2-1.4-0.2-2.9-1-4.1c-0.9-1.3-2.5-1.6-3.9-1.9c-3.6-0.6-7.3-0.5-10.8-1.4
			c-3.9-0.9-7.6-2.8-10.7-5.4c-3.2-2.8-5.7-6.7-6.2-11c-0.9-5.9,0.4-12,3.3-17.2c1.3-2.4,3.3-4.5,4.7-6.8c1-1.5,2.1-3,2.9-4.6
			c1-2.1,0.5-4.6-0.3-6.7c-0.8-2.3-1.8-4.6-2.8-6.9c-2.6-4.8-5.6-9.4-8.1-14.3c-1.8-4-3.2-8.3-4.4-12.5c-0.6-2.1-1.1-4.2-1.4-6.4
			c-0.8-6.1-0.5-12.3-0.1-18.4c0.1-1.5,0.3-3,0.5-4.4c3.3-1,6.6-2.2,10-3.3c0.1-0.5,0.2-1,0.3-1.5c-3.3,0.9-6.6,2.2-9.9,3.2
			c2.6-9.1,7.8-17.2,13.8-24.4c2.8-3.4,5.8-6.6,8.7-9.8c2.9-3.1,5.7-6.2,8.8-9.2c2.5-2.5,5.2-4.9,7.5-7.7c3-3.6,6.1-7.1,9.1-10.8
			c2.5-3.2,5-6.6,5.9-10.6c1.4-5.8,1.6-11.8,0.6-17.7c-1.3-8-4.4-15.6-7.8-22.9c-4.4-9.3-9.4-18.3-15.2-26.8
			c-2.9-4.4-5.8-8.7-8.9-12.8c-1.8-2.3-3.6-4.7-5.9-6.6c-1.4-1.3-2.9-2.4-4.6-3.1c-2.5-1.1-5.2-1.3-7.7-2c-2.8-0.8-5.9-1.3-8.1-3.4
			c-1.4-1.3-2.2-3-3-4.7c-1.9-3.8-2.6-8-2.8-12.2l-0.4,0.1c0.1-1.3,0.4-2.5,0.4-3.8c0-1.9,0.3-3.8,0.8-5.5c0.6-1.7,0.4-3.5,0.5-5.2
			c0.1-3.2,0-6.4,0-9.7c-0.2-3.5-0.3-7-0.3-10.5c-0.1-5.8,1-11.5,2.3-17.1c1.2-4.8,3.2-9.3,5.3-13.7c2.4-4.7,5.5-9.1,9.1-13
			c3.7-3.9,8.1-7.1,12.5-10.1c2.3-1.5,4.8-2.7,7.3-3.8c4.3-2,8.7-3.6,13.3-4.9c2.9-0.8,5.9-1.1,8.8-1.9
			C276.7,8.5,282.1,5.9,287.9,4.7z"/>
	</g>
	<g>
		<path class="st4" d="M269.4,38.5c1.3-0.4,2.7-0.9,4-0.5c3.5,1,7.1,1.5,10.6,2.4c1.4,0.3,2.8,0.5,4.2,1c-0.2,0-0.6,0-0.8,0.1
			c2.1,1.6,4.6,2.7,6.8,4.2c3.1,2.3,6.2,4.6,9.2,7.1c2.5,2,5.2,3.8,7.7,5.9c2.5,2.1,5.1,4.1,7.5,6.3c3.5,3.1,6.6,6.6,9.6,10.3
			c3.9,4.5,7.2,9.5,10.8,14.3c2.7,3.8,5.1,7.7,7.4,11.7c1.1,1.9,2.4,3.8,3.3,5.9c1.1,2.3,1.8,4.7,2.9,7.1c0.1-0.8,0.1-1.5,0.2-2.3
			c0.4,2.4,0,4.8,0.1,7.2c0.1,5-1,9.9-2.4,14.7c-3.2,9.9-9.5,18.3-15.1,26.9c-2.7,4-5.3,8.1-7.5,12.3c-1.4,2.8-2.2,5.7-2.5,8.8
			c-0.1,0.7-0.1,1.4-0.3,2.1c-1.4,2.2-2.4,4.7-3.7,6.9c-1.9,3.1-4,6.2-6,9.2c-2.3,3.4-4.6,6.8-7.7,9.5c-2,2.1-4.6,3.5-6.6,5.6
			c-2.8,2.7-6.2,4.8-9.5,6.7c-2.8,1.6-5.9,2.3-8.9,3.3c-2.6,0.8-5.3,1.7-8.1,1.5c-1-0.1-2,0.5-3,0.7c-5.2,0.6-10.5-0.3-15.3-2.5
			c-3.3-1.6-6.2-3.8-9-6.2c-3.4-3-6.1-6.6-9-10.1c-3-3.6-5.5-7.5-8.4-11.2c-1.9-2.8-3.9-5.5-6-8.2c-0.9-1.8-2.1-3.4-2.9-5.2
			c-1.5-3.3-3-6.6-3.9-10.1c-0.7-2.7-1.4-5.4-2.2-8c-0.2-0.6-0.4-1.3-0.3-1.9c0.6-2.2,0.4-4.5,0.4-6.8c0.1-8.7,0-17.3,0-26
			c0-2.2,0.4-4.4,0.4-6.6c0.1-3.9,0.5-7.8,0.9-11.7c-0.2,0.1-0.4,0.1-0.6,0.2c0-0.1,0-0.4,0-0.5c0.9-2.1,1.4-4.3,2.1-6.5
			c1.9-5.8,4-11.5,6.4-17.1c1.1-2.7,2.5-5.2,3.8-7.7s2.9-4.9,4.3-7.3c1.9-3.4,4.1-6.5,6.3-9.7c1.7-2.3,3.6-4.5,5.5-6.7
			c2.1-2.5,4.6-4.6,7.1-6.7c3.5-3,7.2-5.7,11-8.3C264.6,40.8,266.9,39.5,269.4,38.5z"/>
		<path class="st5" d="M287.3,41.5c0.2,0,0.6,0,0.8-0.1c2.6,0.7,5.1,1.7,7.5,3c2.1,1.1,4.3,1.7,6.4,2.8c1.9,1,3.8,1.7,5.7,2.6
			c3.1,1.5,6.3,3,9.3,4.8c4.7,2.6,9,6.1,13,9.7c2.9,2.6,5.7,5.3,8.1,8.4c1.4,1.9,3.1,3.6,4.4,5.6c1.8,3,3.7,5.9,4.8,9.2
			c1.1,3.2,2.3,6.3,3.2,9.5c1.5,4.8,2.1,9.8,2.1,14.8c0,0.8-0.1,1.5-0.2,2.3c-1-2.3-1.8-4.8-2.9-7.1c-0.9-2.1-2.2-3.9-3.3-5.9
			c-2.3-4-4.7-7.9-7.4-11.7c-3.6-4.8-6.9-9.8-10.8-14.3c-3-3.6-6.1-7.2-9.6-10.3c-2.5-2.2-5-4.2-7.5-6.3c-2.4-2.1-5.2-3.8-7.7-5.9
			c-3-2.5-6.1-4.8-9.2-7.1C292,44.1,289.5,43.1,287.3,41.5z"/>
		<path class="st6" d="M206,96c2.2-0.9,4.8-1.2,7.1-0.7c0.6,0.2,0.6,0.9,0.6,1.4c0.5,5.2,1.5,10.4,2.1,15.6c0,0.1,0,0.4,0,0.5
			c0.2-0.1,0.4-0.1,0.6-0.2c-0.4,3.9-0.8,7.8-0.9,11.7c-0.1,2.2-0.4,4.4-0.4,6.6c0,8.7,0,17.3,0,26c0,2.3,0.2,4.6-0.4,6.8
			c-0.1-0.5-0.2-1-0.3-1.4c-0.7-0.8-1.8-0.9-2.7-1.1c-1.1-0.3-2.1-1-3-1.6c-2-1.5-4.2-2.7-6.1-4.4c-4.2-3.4-7.4-7.9-9.6-12.8
			c-1-2.5-2.2-4.9-3-7.5c-3.2-10-1.3-21.4,5-29.8C197.7,101.1,201.3,97.6,206,96z"/>
		<path class="st6" d="M360.9,122.6c0.2-0.5,0.8-0.4,1.2-0.4c1.5,0.1,2.6,1.2,3.6,2.1c3,2.7,3.9,7,3.6,10.8c-0.5,4.6-2.2,9.1-4.7,13
			c-1.8,2.8-4.3,5-6.8,7.2c-1.3-1.5-1.2-3.6-1.3-5.5c-0.3-3.4,0-6.8,0.2-10.3c0.2-3.7,0.8-7.3,2-10.8
			C359.5,126.7,360,124.5,360.9,122.6z"/>
		<path class="st5" d="M321.2,190.8c1.4-2.2,2.3-4.7,3.7-6.9c-0.4,5.1-1.3,10.2-3.1,15c-1.1,2.8-2.2,5.7-3.9,8.3
			c-1.3,2.2-2.8,4.4-4.9,5.9c-3.4,2.4-6.9,4.5-10.4,6.8c-4.2,2.4-7.9,5.7-10.3,9.9c-2.3,4.2-3.3,8.9-5.3,13.2
			c-2.1,4.7-4.8,9.4-9.1,12.5c-2.8,1.9-5.6,3.8-8.8,5.2c-4.2-1.9-7.9-5-11.3-8.1c-3.5-3.1-6.6-6.8-9.3-10.5
			c-2.5-3.3-4.3-6.9-6.4-10.4c-2.6-4.8-4.9-9.7-7.3-14.5c-2-3.9-4-7.7-5.6-11.8c-1-2.7-2.3-5.3-3.4-7.9c-0.8-1.9-1.4-3.9-2.2-5.9
			c-0.2-0.8,0-1.6,0.1-2.3c2.1,2.7,4.1,5.4,6,8.2c2.8,3.7,5.4,7.6,8.4,11.2c2.8,3.5,5.6,7.1,9,10.1c2.8,2.4,5.7,4.6,9,6.2
			c4.7,2.2,10.1,3.1,15.3,2.5c1-0.2,1.9-0.8,3-0.7c2.8,0.2,5.5-0.7,8.1-1.5c3-1,6.1-1.7,8.9-3.3c3.4-1.9,6.7-4,9.5-6.7
			c2-2,4.6-3.5,6.6-5.6c3.1-2.7,5.4-6.1,7.7-9.5C317.2,196.9,319.3,193.9,321.2,190.8z"/>
		<path class="st4" d="M258,252.4c-3.5-3.1-6.6-6.8-9.3-10.5c-2.5-3.3-4.4-6.9-6.4-10.4c-2.7-4.7-4.9-9.7-7.3-14.5
			c-2-3.9-4-7.7-5.6-11.8c-1-2.7-2.3-5.3-3.4-7.9c-0.8-1.9-1.4-3.9-2.2-5.9c-0.2,2.4,0,4.8,0,7.3c-0.1,3.4,0.3,6.8,0.3,10.2
			c0.2,3.4,0.3,6.8,0.5,10.2c0,3.5,0.3,7,0.3,10.5c0,4.2,0.1,8.5,0,12.7c-0.5,6.1-1.4,12.1-2.9,18c-0.7,2.8-1.8,5.5-2.8,8.2
			c-1.1,2.7-2.4,5.3-4.2,7.7c-1.2,1.6-2.7,3-4,4.6c-3.2,3.6-6.6,6.9-10.2,9.9c-1.8,1.6-3.7,3.2-5.6,4.6c-4,2.9-8.2,5.5-12.4,8.1
			c-2.8,1.7-5.7,3.1-8.6,4.7c-2.3,1.1-4.5,2.4-6.8,3.3c-0.8,0.4-1.6,0.9-2.4,1.3c-0.2,0.1-0.4,0.2-0.5,0.2c-0.2,0.1-0.4,0.2-0.6,0.3
			c-0.3,0.2-0.6,0.3-0.9,0.4c-0.7,2-0.5,4.2-0.5,6.3c0.2,3.7,0.5,7.4,1.1,11.1c0.5,2.7,1.5,5.4,2.6,7.9c1.1,2.6,2.5,5.2,4.1,7.5
			c2.2,3.2,5.5,5.6,8.3,8.3c2,1.9,4.4,3.2,6.7,4.6c1.9,1.2,4,1.9,6,2.8c3,1.3,6.2,2.4,9.4,3.3c2.6,0.7,5.3,1,8,1.4
			c3.6,0.5,7.2,0.4,10.8,0.4c2.3,0,4.5,0.1,6.7-0.3c2.8-0.4,5.6-0.9,8.4-1.2c1-0.1,2.1-0.1,3-0.7c-0.4-0.7-0.6-1.5-0.8-2.3
			c-0.3-1-1-1.7-1.7-2.4c-1.4-1.5-2.6-3.1-3.8-4.8c-1.1-1.5-2.4-3-3.5-4.5c-2.7-3.6-5.5-7.1-7.1-11.3c-1.1-3-1.6-6.2-1.3-9.4
			c0.3-4.2,1.5-8.4,3.3-12.3c1.7-3.8,4.2-7.1,6.8-10.2c-0.1-1.6-0.4-3.2-0.4-4.8c0.1-4,0.5-8.1,2-11.9c1.4-3.5,3-6.9,5.2-10
			c2.5-3.5,5.4-6.8,9-9.2c3.2-2.2,6.3-4.6,9.9-6.1c4.6-2.1,9.8-2.7,14.3-5.2C265.1,258.6,261.5,255.5,258,252.4z"/>
		<path class="st4" d="M371.4,291.6c-3-1.7-6-3.7-8.3-6.3c-1.4,2.5-3.4,4.5-5.3,6.6c-2.2,2.5-3.2,5.8-5.6,8.2
			c-0.7,0.9-1.8,1.4-2.5,2.2c-0.4,0.8-0.9,1.7-1.5,2.4c-1.4,1.6-2.6,3.3-4.3,4.6c-1.7,1.4-3.9,2.4-4.9,4.5c-0.8,1.9-0.9,3.9-1.6,5.8
			c-0.8,2.5-2.4,4.7-4.3,6.5c-1.6,1.5-3.7,2.5-5.1,4.3c-2,2.8-1.8,6.5-2.3,9.8c-0.4,2.1-1.4,4-2.5,5.8c1.5-0.5,2.8-1.3,4.2-2
			c4.1-1.8,8.1-3.8,12.1-5.9c7.4-3.9,14.3-8.7,20.8-14c7.1-5.8,13-12.9,17.7-20.7c1.4-2.3,2.2-4.8,3-7.3
			C377.6,294.9,374.4,293.4,371.4,291.6z"/>
		<path class="st5" d="M346.8,303.6c1-0.4,1.9-0.9,2.9-1.3c-0.4,0.8-0.9,1.7-1.5,2.4c-1.4,1.6-2.6,3.3-4.3,4.6
			c-1.7,1.4-3.9,2.4-4.9,4.5c-0.8,1.9-0.9,3.9-1.6,5.8c-0.8,2.5-2.4,4.7-4.3,6.5c-1.6,1.5-3.7,2.5-5.1,4.3c-2,2.8-1.7,6.5-2.3,9.8
			c-0.3,2.1-1.4,4-2.5,5.8c-1.8,1.3-4,2.1-6,3.1c-1.3,0.6-2.5,1.2-3.9,1.6c-0.6-2.3-1.6-4.5-2.8-6.5c-0.9-1.6-1.9-3.3-1.9-5.3
			c0.1-1.4,0.3-2.9,1.4-3.8c1.2-1.1,2.5-2.1,2.9-3.7c0.5-1.7,1.3-3.3,1-5.1c-0.2-1.6-0.8-3.2-0.8-4.8c0.1-2,1.6-3.8,3.3-4.8
			c1.8-0.8,3.9-1.2,5.9-1.2c1.9-0.2,4-0.1,5.8-0.9c1.7-0.8,3.1-2.3,4.1-3.9c0.9-1.4,1.8-2.9,3.3-3.9c1.8-1.3,4-1.9,6.2-2.1
			C343.5,304.5,345.2,304.3,346.8,303.6z"/>
		<path class="st5" d="M222.5,318c1.7-3.8,4.2-7.1,6.8-10.2c0.9,4.2,2.5,8.2,4,12.2c1.4,4,2.8,8,4.4,11.9c0.7,2.1,1.7,4,2.4,6.1
			c1.2,3,1.5,6.2,2,9.4c0.1,2.2,0.5,4.4-0.1,6.5c-0.8,3.9-2.2,7.7-4.4,11c-0.4-0.7-0.6-1.5-0.8-2.3c-0.3-1-1.1-1.7-1.7-2.4
			c-1.4-1.5-2.6-3.1-3.8-4.8c-1.1-1.5-2.4-3-3.5-4.5c-2.7-3.6-5.5-7.1-7.1-11.3c-1.1-3-1.6-6.2-1.3-9.4
			C219.5,326,220.8,321.8,222.5,318z"/>
	</g>
	<g>
		<path class="st5" d="M275,156.7c1.8-0.3,3.4,0.8,4.8,1.6c1.1,0.7,2.4,1.1,3.6,1.4c0.2,1.4-1,2.3-1.8,3.3c-1,1-1.9,2.4-3.4,2.7
			c-0.8,0.1-1.9,0.2-2.5-0.6s-0.6-1.9-0.7-2.8C274.9,160.5,274.7,158.6,275,156.7z"/>
		<path class="st5" d="M263.7,193.5c2.4-1.9,5.8-2.8,8.8-2.3c1.9,0.3,3.6,1.4,5.1,2.6c1,0.9,2.1,1.8,2.8,3c-2.5,0-4.8-0.8-7.3-0.9
			c-3.5-0.4-7-0.2-10.5-0.8C262.8,194.5,263.2,193.9,263.7,193.5z"/>
		<path class="st7" d="M279.7,9.3c2-0.2,4.1,0.1,5.8,1.2c1.5,1.1,1.4,3.2,0.7,4.7c-1.4,3-3.8,5.4-5.6,8.1c3-0.2,6-0.7,9-0.7
			c8-0.3,16,0.5,23.7,3c1.9,0.8,3.9,1.4,5.7,2.5c3.9,2.1,7.7,4.5,11.1,7.4c2.4,2.2,4.8,4.5,6.8,7c1.5,1.8,3,3.7,4.5,5.5
			c1.6,1.8,2.7,4,3.8,6.2c0.8,1.9,1.9,3.6,2.4,5.6c-1-1.1-1.9-2.2-2.7-3.4c0.1,0,0.3,0.1,0.5,0.2c-0.6-0.2-1.4-1.9-1.9-2.4
			c-0.7-0.8-1.5-1.6-2.4-2.2c-1.6-1.3-8.4-6.9-8.8-7.2c-1.8-1.2-3.7-2.3-5.6-3.3c-2.4-1.3-4.9-2.7-7.5-3.6c-5.9-2.2-12-4-18.3-4.6
			c-2.9-0.3-5.8-0.8-8.8-0.9c-3.2-0.3-6.5-0.1-9.7-0.1c-2,0-3.9,0.2-5.9,0.3c-1.7,0.1-3.4-0.1-5.1,0.2c0.6-0.4,1.2-0.8,1.6-1.4
			c0.4-0.5,0.7-1.3,1.5-1.5s1.6-0.2,2.3-0.3c2.8-0.2,5.5-1.1,8.3-1.3c2.2-0.2,4.4-0.5,6.4-1.5c-4.7-0.5-9.4,0.2-14.1,0.7
			c0.8-0.9,1.4-1.9,1.9-2.9c-1.8,0.7-3.1,2.1-4.4,3.4c-1,0.9-2,1.8-3.1,2.6c-0.5-0.5-0.9-1-1.4-1.4c1.6-1.7,3.4-3.3,5-5.1
			c1.5-1.8,3.3-3.5,4.4-5.6c-1.8,1.6-3.2,3.7-4.9,5.4c-1.6,1.6-3.1,3.3-4.8,5c-0.2-0.2-0.4-0.4-0.7-0.6c1-1.2,2-2.5,2.7-3.9
			c-1.3,0.8-2.4,1.9-3.4,3.1c-1-0.1-2-0.2-3-0.3c1.6,1.2,3.3,2.3,4.8,3.6c-2.1,0.5-4.3,0.1-6.4-0.4c-1.3-0.3-2.6-0.4-3.8-0.1
			c1.3,0.7,2.6,1,4,1.3c-2.6,0.9-5.2,2-7.5,3.5c-0.6,0.4-0.9,1.1-1.2,1.7c2.9-0.6,5.4-2.2,8.2-3c0.7-0.2,1.5,0,2.2,0.2
			c-2.2,1.4-4.6,2.5-6.8,3.9c-4.2,2.6-8.1,5.6-12,8.7c-1.5,1.4-3,2.9-4.6,4.2c-3.8,3.1-6.8,7-9.9,10.8c-1.6,2-2.9,4.1-4.2,6.3
			c-2.3,3.5-4.2,7.1-6.1,10.8c-2.6,5.1-5.1,10.2-7.6,15.3c-0.4,0.7-0.8,1.4-1.2,2c-0.4-0.4-1-0.7-0.9-1.2c0-1.6,0.6-3.2,0.9-4.7
			c0.6-2.9,1.6-5.7,2.5-8.6c0.7-2,1.2-4,2.1-5.9c2-4.6,4.4-9.1,7-13.4c3.3-5.1,6.7-10.2,10.8-14.6c2.8-2.9,5.6-5.8,8.9-8.3
			c3.2-2.2,6.2-4.8,9.6-6.7c1.7-1,3.5-1.8,5.2-2.7c-2.2-0.8-4.5-1.2-6.7-2.1s-4.4-1.8-6.5-2.9c-1.7-0.9-3.2-2.2-4.1-3.9
			c-0.6-1.2-0.5-2.8,0.5-3.9s2.6-1.6,4.1-1.5c3.1,0.1,5.9,1.4,8.6,2.7c3.1,1.8,6.4,3.3,9.6,5.1c1,0.6,2,1.4,3.1,2
			c0.7-2.1,1.4-4.1,2.2-6.1c1-2.6,2.2-5.1,4.2-7.1C276.1,10.7,277.7,9.5,279.7,9.3z M274.1,18.3c-0.9,1.9-1.8,3.9-2.2,5.9
			c1.3-1,2.1-2.5,2.9-3.9c1.4-2.3,2.7-4.7,3.5-7.3C276.2,14.2,275,16.2,274.1,18.3z M258.4,24c2.7,0.8,5.2,2.3,8,2.8
			c-0.6-0.5-1.2-0.9-1.8-1.3c-2.8-1.4-5.6-2.7-8.4-4.1c-2.2-1.1-4.4-2.1-6.8-2.9c-1.1-0.3-2.5-0.8-3.4,0.1L258.4,24z"/>
		<path class="st8" d="M274.9,23.9c1.7-1.7,3-3.8,4.9-5.4c-1.1,2.1-2.8,3.8-4.4,5.6c-1.6,1.8-3.3,3.3-5,5.1c0.5,0.5,0.9,1,1.4,1.4
			c1.1-0.8,2.1-1.7,3.1-2.6c1.4-1.3,2.7-2.7,4.4-3.4c-0.5,1.1-1.2,2-1.9,2.9c4.7-0.6,9.4-1.3,14.1-0.7c-2,1-4.2,1.3-6.4,1.5
			c-2.8,0.2-5.5,1.1-8.3,1.3c-0.8,0.1-1.6,0.1-2.3,0.3c-0.8,0.1-1,0.9-1.5,1.5c-0.4,0.6-1,1.1-1.6,1.4c-1.5,1.2-3.4,1.9-5.2,1.2
			c-0.7-0.2-1.5-0.4-2.2-0.2c-2.8,0.8-5.3,2.4-8.2,3c0.3-0.6,0.6-1.3,1.2-1.7c2.3-1.5,4.9-2.6,7.5-3.5c-1.4-0.3-2.8-0.7-4-1.3
			c1.3-0.3,2.6-0.2,3.8,0.1c2.1,0.5,4.3,0.9,6.4,0.4c-1.5-1.4-3.2-2.4-4.8-3.6c1,0.1,2,0.2,3,0.3c1-1.2,2.1-2.3,3.4-3.1
			c-0.7,1.4-1.6,2.7-2.7,3.9c0.2,0.2,0.4,0.4,0.7,0.6C271.8,27.2,273.3,25.5,274.9,23.9z"/>
		<g>
			<path class="st9" d="M236.8,31.5c0.9-0.5,1.8-0.9,2.8-1.1c-1.3,1.2-3,1.9-4.4,3c-3.8,2.7-7,6.2-9.7,9.9c-1.6,2.2-3.2,4.5-4.4,6.9
				c-0.6,1.1-0.9,2.3-1.6,3.4c0.1-1.6,0.9-3.1,1.6-4.5c2.1-4,4.8-7.6,7.7-11C231.1,35.6,233.7,33.3,236.8,31.5z"/>
			<path class="st9" d="M243.4,31.8c1.1-0.5,2.4-1,3.7-0.9c-1.6,1-3.5,1.5-5,2.6c-7.1,4.2-12.1,10.9-16.6,17.7c-1.4,2.3-3,4.5-4.1,7
				c-0.2,0.5-0.5,1.1-0.8,1.6c0.4-2.3,1.8-4.2,2.9-6.2c2.8-4.5,5.7-8.9,9.1-13C235.6,37.1,239.2,33.8,243.4,31.8z"/>
		</g>
		<path class="st10" d="M265.7,31.7c1.9,0,3.8-0.2,5.7,0.1c-1.1,1.3-3,1.8-4.6,1.2C266.2,32.8,266,32.2,265.7,31.7z"/>
		<path class="st11" d="M260.7,50.2c2-1.5,4.5-1.9,6.8-2.3c-1.3,1.4-3.1,2-4.7,3.1c-4.2,2.5-7.9,5.9-11.1,9.6
			c-1.1,1.2-1.9,2.7-3.3,3.7c0.1-0.7,0.2-1.5,0.7-2.1C252.3,57.6,256.3,53.6,260.7,50.2z"/>
		<path class="st12" d="M246.9,93.1c1.3-1.3,3.2-1.4,4.9-1.6c3.1-0.1,6.1,0.3,9.1,0.9c1.7,0.5,3.6,0.8,5,1.9c-1.9,0-3.8-0.7-5.7-1.1
			c-2.9-0.5-5.9-0.7-8.8-0.5C249.9,93,248.4,93.3,246.9,93.1z"/>
		<path class="st3" d="M274.1,104.4c-2.2-1.5-4.6-2.3-7.1-3.2c-2.6-0.9-5.4-1.3-8.1-1.9c-3.6-0.7-7.3-1-11-0.5
			c-3.2,0.4-6.3,1.3-9.4,2c-2.3,0.5-4.4,1.4-6.5,2.5c-0.6-0.3-1.2,0-1.6,0.4c1.9,0.1,3.8,0.2,5.7-0.1c0.7,0,1.5,0.1,2.2,0.2
			c3.7,0.6,7.4,0.3,11.1,0.8c3.6,0.5,7.1,1,10.7,1.7c3.1,0.6,6.3,0.9,9.4,1.7c2.5,0.6,5.1,1,7.6,0.7
			C277.1,106.8,275.6,105.4,274.1,104.4z"/>
		<path class="st3" d="M296.3,113.7c4.3-2.1,8.8-4.3,13.6-4.1c3.7-0.2,7.2,1.1,10.6,2.2c4.5,1.6,8.9,3.5,12.7,6.3
			c1.6,1.3,3,2.9,4.6,4.3c0.4,0.3,0.9,1.2,0,1.2c-1.6-0.2-3.1-1.1-4.6-1.6c-4.4-1.6-8.9-3.1-13.5-4.1c-4.2-0.6-8.3-1.3-12.5-1.6
			c-2.7-0.2-5.4-0.4-8.1-0.7c-1.2-0.2-2.4,0.1-3.5-0.1c0.2-0.4,0.4-0.9,0.5-1.4C296.2,114,296.3,113.8,296.3,113.7z"/>
		<path class="st13" d="M257.4,113.3c0.6-0.1,1.3,0,1.7,0.6c0.9,1,0.8,2.5,0.7,3.8c-0.2,1.3-0.4,2.7-1.4,3.6c-0.8,0.8-2.3,0.9-3.1,0
			c-0.6-0.7-0.8-1.6-0.9-2.5c0.1-1.6,0.5-3.3,1.6-4.6C256.4,113.8,256.8,113.4,257.4,113.3z"/>
		<path class="st14" d="M292.8,117.2c-1.8,2.9-3.3,6-4.2,9.3c-0.9,3.4-1.5,6.8-1.9,10.3c-0.5,6.6-0.5,13.3,0,19.9
			c0,0.7,0.2,1.5-0.4,2c-1.6,0-3-1-4.5-1.3c-2.2-0.5-4.2-1.9-6.5-2c0.1,0.4,0,0.9,0.4,1.3c1.7,1.4,3.6,2.6,5.8,3
			c1.8,0.4,3.7,1.1,5.5,0.4c1-0.4,1.4-1.6,1.5-2.6c0.3-3.1-0.1-6.2,0-9.4c0-6.5,0-13.2,1.6-19.5c0.8-3.6,2.3-7.1,4-10.4
			c0.5-0.9,1.1-1.8,1.6-2.7c0.2-0.4,0.4-0.9,0.5-1.4C294.8,114.8,293.7,115.9,292.8,117.2z"/>
		<path class="st15" d="M245.9,124.1c2.2,0.2,3.9,1.8,5.9,2.3c1.7,0.6,3.5,0.5,5.3,0.5c0,0.3,0,0.6,0,0.9c-2.8,0.8-6,0.6-8.6-0.8
			C247.4,126.3,246.1,125.5,245.9,124.1z"/>
		<path class="st13" d="M313,126c1-0.2,2.1,0.2,2.5,1.2c0.6,1.2,0.1,2.6-0.3,3.8s-1,2.5-2.2,3.1c-1,0.5-2.4,0.1-2.9-1
			c-0.6-1.4-0.3-3,0.2-4.4C310.8,127.5,311.7,126.3,313,126z"/>
		<path class="st16" d="M284.1,134.1c0.2,0,0.5,0,0.7-0.1c0,2.6-0.4,5.1-0.5,7.7c-0.3,3,0,5.9,0.4,8.9c-0.1,0.1-0.4,0.2-0.5,0.3
			c-1.2-3.4-0.9-7-1-10.5C283.2,138.2,283.5,136.1,284.1,134.1z"/>
		<path class="st17" d="M205.5,132.6c-0.9-3.9-1.3-7.9-0.5-11.9c0.5-2.6,1.3-5.2,3.1-7.2c0.9-1,2.2-1.5,3.5-1.7
			c-0.1-0.5-0.1-1.3-0.8-1.3c-2.2-0.4-4,1.4-5.1,3.1c-2.8,4.4-2.9,9.9-2.1,14.9c0.5,2.5,0.9,5,2,7.3c0.4,1.7,1.5,3.1,2.3,4.6
			c0.2,0,0.6,0,0.8,0.1c-0.7-1.7-1.5-3.3-2.4-4.9C206.2,134.6,205.8,133.6,205.5,132.6z"/>
		<path class="st18" d="M310,139.6c0.7,0,1.4,0.2,2.1,0.5c2.2,1,4.6,1.3,6.9,1.4c1,0.1,2-0.2,3.1-0.2c0.1,0.2,0.2,0.5,0.3,0.7
			c-2.7,1.1-5.7,0.9-8.5,0.6C312.3,142.4,310,141.6,310,139.6z"/>
		<path class="st17" d="M238,161.1h-0.3c-1.3-4.2-3.2-8.2-5.3-12c-1-1.8-1.3-3.9-2.5-5.6c-0.4,3,1.2,5.6,2.5,8.1
			c1.7,3.1,3.2,6.2,4.6,9.4h-0.2c1,2.2,1.7,4.5,2.4,6.8c0.1,0,0.4,0.1,0.6,0.2C239.4,165.6,238.6,163.3,238,161.1z"/>
		<path class="st19" d="M248.8,163.1c0.3-0.6,1-0.4,1.5-0.4c2.8,0.5,5.6,1.2,8.4,1.5c2.8,0.3,5.7,0.3,8.5,0.2c1.8,0,3.7-0.3,5.4,0.6
			c0.4,0.2,0.7,0.3,1.1,0.5c0.5,0.3,1,0.7,1.6,0.9c0.7,0.1,1.4,0.1,2.2,0c0.8-0.1,1.5-0.2,2.3-0.4c1.7-0.4,3.5-0.1,5.2,0.4
			c2.3,0.6,4.4,2,6.8,2.6c3.3,1,6.6,2.3,10.2,2.3c-0.6,4-3.4,7.1-5.8,10.1c-1.4,1.9-3.5,3.1-5.5,4.4c-4.1,2.5-8.8,4.2-13.6,4.3
			c-2,0.1-3.9-0.5-5.9-0.7c-1.9-0.2-3.7-0.7-5.5-1.4c-3.2-1.3-6.4-3-8.9-5.5c-1.4-1.3-2.6-3-3.9-4.4c-1.4-1.5-2.4-3.3-3.1-5.2
			c-0.8-1.4-1.4-3-1.3-4.6C248.3,166.7,247.8,164.7,248.8,163.1z"/>
		<path class="st20" d="M254.3,165.7c3.2,0.4,6.3,1.4,9.5,1.9c3,0.4,6.1,0.8,9.1,1c1.8,0.1,3.6,0.6,5.5,0.8c2.6,0.4,5.1,1,7.8,1.2
			c3.1,0.4,6.1,0.9,9.2,1.4c-0.2,2-1.4,3.8-2.3,5.5c-0.9,1.9-3.1,2.6-4.8,3.5c-4.2,1.9-8.8,2.7-13.4,2.8c-3.3,0.1-6.5-0.9-9.5-2.2
			c-2.2-0.9-4.2-2.2-6-3.6c-1.4-1.1-2.8-2.4-3.3-4.2c-0.4-1.4-0.8-2.8-1.1-4.2C254.6,168.3,254.7,167,254.3,165.7z"/>
		<g>
			<path class="st17" d="M319.9,165.5c-1.7,1.5-3.3,3.1-4.9,4.7c-0.8,0.8-1.7,1.6-2.4,2.6c-0.1,0-0.3,0-0.4,0
				c-0.6,0.8-1.2,1.7-1.5,2.7c1-0.1,1.7-1,2.3-1.8c0.2-0.1,0.5-0.3,0.7-0.5c2.9-3.1,6.4-5.5,9.4-8.5c0.7-0.7,1.1-1.7,1.3-2.7
				C322.6,162.7,321.3,164.2,319.9,165.5z"/>
		</g>
		<path class="st21" d="M256.1,177.6c1.7,1.6,3.2,3.3,5,4.6c1.1,0.9,2.5,1.3,3.6,2.2c-1.9-0.2-3.6-1.2-5.2-2.3
			c-1.5-1-2.7-2.3-3.7-3.7C255.9,178.1,256,177.9,256.1,177.6z"/>
		<path class="st22" d="M223.7,188.3c1.2,1,2,2.4,2.9,3.7c0.6,1,1.4,1.8,1.9,2.9c-0.2,0.4-0.4,0.9-0.6,1.3c-1.5-1.9-2.7-4-3.9-6
			C223.6,189.6,223.6,188.9,223.7,188.3z"/>
		<path class="st23" d="M264.6,201c4.3-0.5,8.6,0.3,12.7,1.6c0,0.2,0,0.6,0,0.8c-2.1-0.1-4.1-0.7-6.2-0.8c-2.7-0.3-5.4-0.1-8.1-0.3
			C263.2,201.5,263.8,201,264.6,201z"/>
		<path class="st24" d="M323.7,188.5c-3.9,5.9-7.7,11.9-12.7,16.8c-1.4,1.7-3.1,3-4.4,4.8c-1,1.4-2.3,2.4-3.6,3.6
			c-1.8,1.7-3.9,2.9-5.9,4.3c-2.1,1.6-4.5,2.6-6.6,4.1c-0.8,0-1.5,0.5-2.3,0.8c-1.7,0.8-3.6,1.5-5.4,2.1c-2.6,0.3-5,1.2-7.6,1.5
			c-1.9,0.3-3.8,0.1-5.7,0.2c-3.2-0.3-6.5-0.1-9.5-1.3c-2.2-0.7-4.4-1.7-6.4-3c-1.6-1.1-3.3-2-4.7-3.3c-1.9-1.6-3.8-3.4-5.5-5.3
			c-2-2.2-3.7-4.5-5.7-6.8c-2.2-2.6-4.1-5.5-6.2-8.2c-1.1-1.4-2-2.9-3.2-4.3c-0.2,0.4-0.4,0.9-0.6,1.3c3.6,5.3,7.1,10.9,11.6,15.4
			c1.3,1.3,2.5,2.9,3.8,4.3c3.2,3.4,6.7,6.5,10.8,8.8c1.9,1.1,4,1.7,6.1,2.2c3.2,0.9,6.6,1.4,10,0.9c4.6,0.3,9-1,13.4-2.1
			c1.2-0.4,2.4-0.9,3.6-1.4c1.5-0.6,3.1-1,4.4-2.1c0.3,0,0.6-0.2,0.9-0.3c2.3-1.2,4.6-2.6,6.8-4c2.6-1.5,4.8-3.6,7.1-5.6
			c1.7-1.8,3.7-3.3,5.1-5.3c2.1-2.8,4.6-5.2,6.6-8c2.5-3.1,4.3-6.8,6.2-10.3C324,188.6,323.9,188.5,323.7,188.5z"/>
		<path class="st25" d="M388,346.2c0.4-1.2,0.5-2.6,1.5-3.4c0,2.7-0.6,5.4-1.3,8c-1.6,5.4-3.8,10.5-6.3,15.5
			c-2.6,5.2-5.4,10.4-7.6,15.9c-4.8,11.7-8.4,23.8-11.4,36.1c-0.3,0.9-0.7,1.9-1,2.8c0.2-1.5,0.4-3,0.5-4.5c0.3-2.7,1.1-5.3,1.7-7.9
			c3-11.4,6.2-22.9,11.1-33.6c2.4-5.1,5.2-10,7.4-15.2C384.7,355.5,386.5,350.9,388,346.2z"/>
		<path class="st25" d="M348.4,363c0.2,0,0.6,0,0.8,0c-1.9,4.1-5.3,7-8.5,9.9c-1.4,1.2-2.9,2.4-4.5,3.2c-0.6,0.3-1.3,0.4-2,0.5
			c0.2-1.4,1.7-1.9,2.7-2.8C341.2,370.7,345.7,367.6,348.4,363z"/>
		<path class="st25" d="M369.4,367.3c0.3-0.9,0.5-1.9,1.5-2.1c-0.5,5.6-2.5,10.9-4.5,16c-2.1,5.4-4.3,10.9-5.9,16.5
			c-2,6.9-3.3,14-4.3,21.2c-0.3,2-0.4,4-0.8,6c-0.3,1.4-0.5,2.8-0.7,4.2c-0.1-2.9,0.2-5.8,0.2-8.7c0.1-2.5,0.5-5,0.8-7.4
			c0.9-6.4,1.9-12.7,3.8-18.9c2-6.3,4.5-12.3,6.9-18.4C367.6,373,368.5,370.2,369.4,367.3z"/>
		<path class="st25" d="M142.8,366.3c0.2,0,0.6,0,0.8,0c1.4,4,3.9,7.5,6.5,10.8c1.5,1.9,3,3.8,4.5,5.7c0.6,0.7,1.1,1.6,1.5,2.5
			c-1.3-0.8-2.2-2.1-3.2-3.2c-2.5-2.8-4.9-5.6-7.1-8.7C144.4,371.3,142.7,369,142.8,366.3z"/>
		<path class="st25" d="M383.7,383.1c0.2,0.1,0.5,0.1,0.8,0.2c-1,2.3-2.1,4.6-3.2,6.9c-0.1-0.1-0.2-0.4-0.2-0.5
			c-0.1,0-0.3-0.1-0.4-0.1C381.6,387.3,382.6,385.2,383.7,383.1z"/>
		<path class="st25" d="M121,386.7c-0.2-0.5,0.1-1,0.3-1.5c1,1.4,1.5,3.1,2.4,4.6c1.3,2.3,2.5,4.5,3.5,6.9c3.4,8.4,6.3,17,7.4,26
			c0.7,6.2,1.5,12.5,1.7,18.7c0,1.2-0.1,2.5-0.1,3.7c-0.2-0.4-0.4-0.8-0.6-1.3c-0.4-1.4-0.3-2.8-0.5-4.2
			c-1.1-11.3-2.8-22.6-6.5-33.3c-1.4-4.1-2.7-8.1-4.6-12C122.9,391.9,121.6,389.4,121,386.7z"/>
		<path class="st25" d="M380.6,389.5c0.1,0,0.3,0.1,0.4,0.1c0.1,0.1,0.2,0.4,0.2,0.5c-4.3,9.8-8.6,19.7-11.9,30
			c-1,3.2-1.8,6.4-2.1,9.7c-0.1,1-0.4,1.9-0.7,2.8c-0.2,0-0.5,0-0.7,0.1c0.3-2.3,0.3-4.6,0.8-6.8c1.1-5.4,3.1-10.6,5-15.7
			C374.4,403.2,377.5,396.3,380.6,389.5z"/>
		<path class="st25" d="M303,391.7c0.6,0.4,1.2,0.9,1.3,1.7c0.4,1.9-0.9,3.6-2.1,5c-3.2,3.8-6.1,7.8-8.5,12.2
			c-1,1.8-1.7,3.7-2.5,5.5c-0.2,0.6-0.9,0.4-1.3,0.6c1.1-4.3,3.1-8.3,5.4-12c1.6-2.5,3.2-4.9,5.1-7.1c0.8-1,1.7-1.9,2.3-2.9
			C303.3,393.9,303,392.7,303,391.7z"/>
		<path class="st25" d="M115.6,399.8c0.2,0,0.5-0.1,0.7-0.1c-0.7,10.7,1.1,21.5,4.1,31.8c0.5,1.9,1.3,3.7,1.8,5.6
			c0,0.1-0.1,0.2-0.2,0.2c-0.1,0.1-0.2,0.3-0.3,0.4c-4.1-11.2-7.3-23-6.6-35C115.2,401.7,115.4,400.7,115.6,399.8z"/>
		<path class="st25" d="M337,400.6c0.4-0.4,0.9-0.6,1.5-0.8c-0.4,1.5-1.7,2.4-2.7,3.4c-3.6,3.2-7.5,6-11.3,8.8
			c-2,1.5-4.4,2.5-6.1,4.4c-0.4,0.4-0.8,0.8-1.2,1.2c-0.4-1.5,0.8-2.7,1.8-3.6c2-1.8,4.3-3.1,6.5-4.6
			C329.3,406.7,333.4,404,337,400.6z"/>
		<g>
			<path class="st9" d="M317.1,17.4c3,1.4,6,2.8,8.7,4.6c3.5,2.3,6.7,5.1,9.7,8c3.5,3.4,6.8,7.1,9.8,11c0.9,1.2,1.7,2.4,2.9,3.3
				c-0.3-1.2-1-2.1-1.7-3.1c-2.7-3.9-5.9-7.5-9.2-11c-2.9-3-6.1-5.8-9.6-8.1c-3.1-2.1-6.5-3.7-10-5.3c-5.4-2.4-11.2-4.8-17.2-4.6
				c1.9,0.6,3.8,0.8,5.7,1.3C310,14.3,313.6,15.9,317.1,17.4z"/>
			<path class="st9" d="M298.7,17.8c2.7,0.2,5.4,0.4,8.1,1c3.5,0.9,6.9,2.2,10.2,3.7c4.2,1.9,8.2,4.3,11.9,7.1
				c6,4.6,11.4,9.9,16,15.9c1,1.3,2,2.6,2.9,3.9c0.5,0.7,1.1,1.4,1.8,1.9c-0.2-0.8-0.5-1.5-1-2.1c-1-1.4-2-2.9-3.1-4.3
				c-4.1-5-8.4-10.1-13.5-14.2c-6.9-5.6-14.9-10.1-23.5-12.7c-2.3-0.7-4.6-0.9-6.9-1.1c-3.6-0.3-7.2-0.1-10.6,1
				C293.4,18.1,296,17.5,298.7,17.8z"/>
			<path class="st9" d="M328.3,53.2c-2.4-1.7-4.8-3.2-7.3-4.6c-1.4-0.8-2.9-1.7-4.4-2.3c-4-1.8-7.9-3.8-12.2-4.9
				c-1.8-0.5-3.5-1.2-5.4-1.2c2.8,1.3,5.9,1.8,8.8,3c4.3,1.7,8.6,3.7,12.6,6.1c7,4.1,13.3,9.3,18.8,15.2c3.4,3.7,6.3,7.8,9.2,11.8
				c1,1.3,1.8,2.9,3.2,4c-1.1-2.4-2.8-4.6-4.3-6.8c-2.5-3.6-4.9-7.1-7.9-10.3C336.1,59.5,332.3,56.2,328.3,53.2z"/>
			<path class="st9" d="M344.8,56.3c-1.8-2.2-3.9-4-6-5.9c-0.9-0.7-1.9-1.3-2.9-1.7c0.9,0.7,1.8,1.3,2.5,2.2c1.2,1.5,2.8,2.7,4,4.3
				c3.4,4.3,6.8,8.6,9.6,13.3c1,1.6,1.5,3.4,2.4,5c0.4,1.6,1.1,3.1,1.4,4.7c0.5,1.8,0.6,3.7,1,5.6c0.2,2.8,0.7,5.5,0.7,8.3
				c0,2.9,0.4,5.9,0.1,8.8c-0.1,1.1-0.1,2.2-0.2,3.3c-0.3,4.8-1.4,9.5-2.1,14.2c-0.3,2-0.8,3.9-0.9,5.9c-0.6,1.7-0.7,3.5-1,5.2
				c-0.4,2.4-0.9,4.7-1.1,7.1c0.9-1.7,1-3.7,1.4-5.5c0.3-1.7,0.8-3.3,0.9-5c0.6-2,1.1-4.1,1.5-6.1c1.2-6.9,2.6-13.9,2.7-21
				c0-5.7-0.3-11.4-1.4-17c0.1-0.7-0.1-1.4-0.2-2c-0.5-2.3-1.2-4.6-2.1-6.7c-1.5-5-4.3-9.4-7.5-13.5
				C346.5,58.6,345.6,57.5,344.8,56.3z"/>
			<path class="st9" d="M364,187.6c-0.6-3.6-2.5-6.6-4-9.9c-1.4-3.3-3.3-6.5-4.9-9.8c-0.9-2.2-1.5-4.5-2.1-6.7
				c-1-3.1-1.3-6.4-1.8-9.6c-0.2-1.6,0.2-3.2,0.2-4.8c-0.5,1.3-0.6,2.8-0.6,4.2c-0.1,3.4,0.3,6.8,1.1,10.1c0.7,2.8,1.3,5.6,2.6,8.1
				c1.4,3,3.1,5.8,4.5,8.8c1.8,3.6,4.2,7.2,4.2,11.3c-0.2,3.8-0.9,7.8-3.1,11.1c-2,3-4.9,5.3-7.1,8.1c-1.8,2.3-2.9,4.9-3.6,7.7
				c-1,4.5-1.4,9.2-1,13.8c0.1,0,0.4,0.1,0.6,0.2c-0.2-4.3,0.3-8.5,1.2-12.7c0.7-3.1,1.9-6.1,3.8-8.6c2.1-2.7,4.9-4.9,6.8-7.8
				c1.7-2.5,2.6-5.4,3-8.3C364.1,191.1,364.4,189.3,364,187.6z"/>
			<path class="st9" d="M296.4,291.6c5.9-4,10.7-9.6,13.7-16.1c2-4.6,2.6-9.7,2.5-14.8c-0.1-5.1,1.4-10.1,3.9-14.4
				c1.8-2.8,3.9-5.4,6.5-7.6c2.1-1.8,4.1-3.7,6.1-5.5c2.6-2.4,4.9-5.2,7.2-8c2.2-2.9,4-6.2,5.3-9.6c1.6-4.6,2.6-9.6,2.1-14.5
				c-0.4-3.4-0.5-6.8-0.9-10.2c-0.4-4.3,0-8.5,0.4-12.8l0.1,0.1c0.1-1.1,0.1-2.2,0.4-3.3c0.3-1.5,1-2.8,1.5-4.2
				c-1.6,1.6-2.4,3.9-2.5,6.2c-0.8,4.9-1.4,9.9-0.9,14.8c0.3,2.9,0.4,5.8,0.7,8.7c0.3,2.6,0.1,5.2-0.3,7.8c-0.8,4.1-2,8.2-4,11.9
				c-1.8,3.3-4.1,6.1-6.6,8.9c-3.9,4.5-8.9,8-13,12.4c-3.2,3.7-5.6,8.2-6.6,12.9c-1,4.2-0.4,8.5-0.8,12.7c-0.3,2.5-0.8,4.9-1.6,7.2
				c-2.7,6.8-7.8,12.6-14,16.4c-3.3,2-6.8,3.9-10.3,5.7c-2.8,1.4-5.5,3.1-7.9,5.1c-2,1.7-3.7,3.7-5.1,6c-4.4,7.6-5.7,17.4-2,25.5
				c1.6,3.7,3.8,7.2,4.2,11.3c0.5,3.4,0.4,6.9-0.7,10.2c-1.2,3.6-3.9,6.3-6.6,8.9c-1.8,1.7-3.4,3.7-4.6,5.9c-2,3.6-3.1,8-1.8,12.1
				c0.7,2.3,2.2,4.3,3.9,6c2.4,2.4,3.9,5.7,4.6,9c0.2,0,0.6,0,0.8,0c-0.3-2.6-1-5.1-2.3-7.4c-1.3-2.4-3.4-4.2-4.6-6.7
				c-1.4-2.8-1.3-6.2-0.4-9.2c1.1-3.6,3.5-6.7,6.2-9.3c2.6-2.5,5-5.3,6-8.9c1.4-4.1,1.2-8.6,0.4-12.8c-0.5-2.2-1.4-4.2-2.3-6.2
				c-1.6-3.3-2.9-6.7-3.3-10.3c-0.5-5,0.3-10.2,2.4-14.8c1.4-3.3,3.6-6.3,6.4-8.6c3.2-2.6,7-4.5,10.6-6.4
				C291.6,294.4,294.1,293.1,296.4,291.6z"/>
			<path class="st9" d="M347.6,259.5c-0.6-1.2-1.7-2.1-2.1-3.4c-0.5-1.4-0.7-2.9-0.4-4.4c0.4-2,1.1-3.8,1.7-5.8
				c0.7-2.1,1.7-4.1,2.1-6.3l0.2,0.1c0.1-1.2,0.3-2.4-0.4-3.4c-0.3,1.2-0.4,2.3-0.6,3.5c-1.5,3.8-3.3,7.5-4.2,11.5
				c-0.4,2.4-0.1,5.1,1.4,7c2.4,3.1,3.4,7.3,2.7,11.1c-0.5,3.3-1.3,6.6-2.8,9.6c-2.2,4.1-5.1,7.9-9,10.6c-5.4,3.9-11.8,5.6-17.9,8
				c-3.6,1.1-7,2.6-10.3,4.4c-3.1,1.9-6.2,3.8-8.7,6.5c-3,3-5.6,6.6-7,10.6c-1.2,3.3-0.8,6.9-0.6,10.4c0.2,2.6,0.4,5.2-0.4,7.7
				c-0.7,1.6-2.1,2.7-3.1,4.1c-1.2,1.7-2.2,3.7-2.1,5.9c-0.1,2.4,1,4.6,2.3,6.5c1.2,1.8,1.8,4,1.6,6.2c-0.2,2-0.4,4-1.4,5.8
				c-1.8,3.3-5.4,5.3-7,8.7c-1.2,2.2-1.5,4.8-1.5,7.3c0.1,1.5-0.1,3.1,0.2,4.6l0,0c0,1.1,0.1,2.2,0.3,3.3c0.2,0,0.5,0,0.7,0
				c0-2,0-4.1,0-6.1c0.2-3.1,0.7-6.3,2.2-9.1c1.3-2.4,3.6-4,5.2-6.1c2.2-2.5,2.8-6,2.8-9.3c0.1-2.3-0.7-4.5-1.9-6.3
				c-1.1-1.7-2-3.5-2.1-5.6c0-1.7,0.7-3.3,1.6-4.6c1.1-1.7,2.8-2.9,3.6-4.7c0.7-1.7,0.8-3.7,0.7-5.5c0-3.7-0.8-7.5-0.1-11.2
				c0.6-3.2,2.3-6,4.2-8.5c4.6-6,11.4-10,18.4-12.8c1.1-0.4,2.2-0.7,3.2-1.2c0.7-0.2,1.4-0.4,2.1-0.6c4.2-1.6,8.6-2.9,12.6-5.1
				c2.4-1.4,4.7-2.9,6.7-4.9c2.4-2.4,4.4-5.1,6-8.1c1.8-3.3,2.6-7.1,3-10.8C349.9,265.7,349.1,262.4,347.6,259.5z"/>
			<path class="st9" d="M334.1,240.6c1.4-1.3,2.5-3,3.7-4.5c-0.1-0.1-0.2-0.4-0.2-0.6c-1.6,1.5-3.1,3.1-4.5,4.9
				c-3,3.6-5.3,7.9-5.7,12.5c-0.5,4.7,1.9,9.1,1.5,13.8c-0.2,1.9-0.5,3.8-1.1,5.6c-0.7,2-2,3.7-3.1,5.4c-2.3,3.3-5.2,6.3-8.5,8.6
				c-3.5,2.4-7.1,4.6-10.7,6.7c-5.4,3.6-11.1,6.9-15.9,11.4c-1.9,1.9-3.7,3.8-5.3,6c-2.2,3-3.9,6.6-3.9,10.4c0,4.5,1.6,8.8,1.5,13.3
				c0.1,2.1-0.3,4.2-0.7,6.2c0.3,0,0.5,0,0.8-0.1c1.6-4.8,1.3-9.9,0.6-14.8c-0.4-2.7-0.7-5.5,0-8.1c1.4-5,5.1-8.9,8.6-12.6
				c1-0.7,1.7-1.6,2.7-2.4c3.5-2.8,7.5-5.1,11.2-7.6c2.1-1.4,4.3-2.4,6.4-3.8c3.7-2.4,7.5-4.7,10.7-7.8c2.2-2.3,4.1-5,5.8-7.7
				c1.7-2.7,2.1-5.9,2.3-9c0.4-4.7-2-9.1-1.5-13.8C329.2,248.2,331.5,244.2,334.1,240.6z"/>
			<path class="st9" d="M261.7,299.7c1.3-3,3.6-5.4,6.2-7.4c2.8-2.2,5.9-4.1,9-6c4.1-2.5,8.7-4.2,12.8-6.8
				c6.1-4.2,10.8-10.4,12.9-17.5c0.9-2.5,0.6-5.3,1-7.9c-0.8,0.7-1,1.7-1.1,2.7c-0.1,1.4-0.4,2.7-0.7,4.1c-1.2,4-3.3,7.7-6,10.9
				c-2.2,2.8-5,5.1-8,6.9c-1.9,1-3.8,2-5.7,2.9c-3.7,1.5-7.1,3.7-10.5,5.8c-3,2.1-6,4.2-8.5,7c-2.9,3.3-4.5,7.5-5,11.8
				c-0.5,3.8-0.8,7.7-0.2,11.4c0.6,3.7,2.4,7.1,3.8,10.6c0.3,1.8,1,3.5,1.4,5.3c0.9,4.1,1.3,8.4,1.2,12.6c0.1,0,0.2,0,0.3,0
				c0.1-5-0.3-9.9-1.3-14.8c-0.3-1.3-0.5-2.7-1.1-3.9c-0.4-2-1.3-3.9-1.8-5.9c-1.5-4.9-1.3-10.2-0.6-15.2
				C260.1,304.1,260.7,301.8,261.7,299.7z"/>
			<path class="st9" d="M262.3,402.9c-1.6-1-3.4-1.9-5.2-2.5c-3.7-1.2-7.5-2.5-10.7-4.8c-2.2-1.6-3.4-4-4.4-6.4
				c-1.1-2.7-1.2-5.9-0.3-8.7c1.4-4.5,4.1-8.4,7.1-12c1.5-1.9,3.1-3.8,4.3-5.9c2.2-3.8,3.6-8.1,4.3-12.5c0.4-2.6,0.7-5.3,0.5-7.9
				c-0.4-3.9-1.9-7.5-3.3-11.2c-1.1-2.9-2.6-5.5-3.9-8.2c-0.8-1.5-1.7-3-2.2-4.7c-1.4-4.2-2.5-8.7-1.8-13.2c0.4-6.5,3.4-12.8,8-17.4
				c3-2.9,6.4-5.6,10.3-7.4c4.8-2.1,9.8-4,14.5-6.4c1.5-0.5,3-1.4,4.4-2.1c2.6-1.3,4.6-3.3,6.5-5.3c3.2-3.8,5.4-8.5,6.4-13.4
				c0.6-2.7,0.8-5.6,1.7-8.2c1.5-4.5,4.3-8.4,7.7-11.6c2.3-2.2,5.1-3.9,7.6-5.9c1.4-0.5,2.6-1.6,3.9-2.4c4.6-2.8,7.9-7.1,10.1-12
				c1.9-3.9,2.7-8.2,3.2-12.4c0.6-4.1,0-8.3,0.5-12.5c0.1-3,1-5.8,2-8.5c-1,1.2-1.5,2.7-1.9,4.1c-1.1,4-0.9,8.1-1,12.2
				c-0.2,6.9-1.5,14-5.2,19.9c-1.9,3.3-4.7,6.1-7.8,8.2c-1.6,1.1-3.4,2.1-4.9,3.5c-0.2,0-0.5,0.1-0.6,0.3c-3,2.1-6.1,4.2-8.6,7
				c-3.8,4-6.5,9.1-7.2,14.6c-0.3,2.5-0.7,5-1.4,7.4c-1.6,5.2-4.6,10.2-9.3,13.1c-2.4,1.5-5,2.4-7.6,3.5c-3.1,1.5-6.4,2.7-9.6,4
				c-3.4,1.4-6.8,2.8-9.7,4.9c-3.1,2.4-6.1,4.9-8.4,8.2c-2.7,3.8-4.6,8.2-5.2,12.8c-0.4,2.8-0.6,5.7-0.1,8.5
				c0.5,2.9,1.4,5.8,2.5,8.6c1.9,4,4.3,7.9,5.8,12.1c1.6,4.1,3.3,8.4,3.1,12.8c-0.3,7.4-2.7,14.8-7.4,20.6
				c-2.7,3.2-5.4,6.5-7.4,10.3s-3.2,8.2-2,12.4c1,3.4,2.5,6.8,5.4,8.9c1.9,1.3,4.1,2.1,6.2,2.9c3.6,1.3,7.6,1.9,10.9,3.9v0.2
				c1.4,0.9,2.8,1.9,3.9,3.2c0.8,0.9,1.2,2.1,2,3C267.8,406.8,264.9,404.6,262.3,402.9z"/>
		</g>
		<path class="st25" d="M145.3,407.6c1.6,0,3,0.9,4.3,1.9c1.5,1.2,2.6,2.8,3.6,4.4c2.1,3.5,3.9,7.1,5.3,10.9
			c-0.2,0.1-0.5,0.2-0.7,0.4c-1.4-3.4-3.2-6.6-5.1-9.7c-1.1-1.7-2.2-3.5-3.7-4.9C148,409.4,146.4,408.8,145.3,407.6z"/>
		<path class="st25" d="M171.8,409.4c0.2-0.1,0.7-0.2,0.9-0.3c2.6,2.3,3.8,5.5,5.5,8.4c1.1,2,2.3,4.1,3.8,5.9c0.4,0.4,0.5,1,0.5,1.6
			c-2.3-1.7-3.7-4.3-5.2-6.6c-1.5-2.4-2.8-5.1-4.5-7.4C172.4,410.6,172.1,410,171.8,409.4z"/>
		<path class="st25" d="M126.3,427c0.6,4.8,0.7,9.7,0.6,14.6c0.1,2.2,0.1,4.5-0.1,6.7h0.4c0.1-0.2,0.1-0.4,0.2-0.6
			c0.3-1.7,0.3-3.5,0.5-5.2c0.4-8,1-16.2-1.5-24c-0.8-2.6-2.1-4.8-3.2-7.2c-0.2,0-0.6-0.1-0.8-0.1c0.1,2,1.2,3.8,1.8,5.7
			C125.3,420,125.9,423.5,126.3,427z"/>
		<path class="st25" d="M361.6,420.3c0.2-1.2,0.4-2.5,0.8-3.6c-0.1,1.5-0.3,3-0.5,4.5c0.3-0.9,0.7-1.9,1-2.8
			c-0.2,1.8-0.5,3.6-1.1,5.3c-0.1,0.5-0.6,0.7-1,0.9C361,423.1,361.4,421.7,361.6,420.3z"/>
		<path class="st25" d="M217.2,420.8c-0.3-0.5,0.3-1,0.8-0.8c1.7,0.6,3.1,1.8,4.5,3c3,2.7,5.9,5.6,8,9.1c-0.2,0.1-0.5,0.3-0.6,0.5
			c-2.2-3.5-5.3-6.3-8.6-8.9C220,422.5,218.5,421.7,217.2,420.8z"/>
		<path class="st25" d="M354.1,431.9c0.5-3.8,0.2-7.6,0.9-11.3c0,2.9-0.3,5.8-0.2,8.7c0.2-1.4,0.4-2.8,0.7-4.2
			c0.1,2.3-0.2,4.6-0.6,6.9C354.7,431.8,354.3,431.8,354.1,431.9z"/>
		<path class="st25" d="M158.5,424.8c0.5,1.3,1,2.6,1.5,3.9c-0.2,0-0.5,0.1-0.7,0.2c-0.6-1.2-1.1-2.4-1.5-3.6
			C158,425,158.3,424.9,158.5,424.8z"/>
		<path class="st25" d="M229.9,432.5c0.2-0.1,0.5-0.3,0.6-0.5c0.6,1.1,1.2,2.3,1.3,3.6C230.8,434.8,230.4,433.6,229.9,432.5z"/>
		<path class="st25" d="M126.3,448.2h0.5c0.2-2.2,0.3-4.5,0.1-6.7c-0.4,1.9-0.1,3.8-0.4,5.7c-2-3.1-2.8-6.8-4.4-10.1
			c0,0.1-0.1,0.2-0.2,0.2c-0.1,0.1-0.2,0.3-0.3,0.4c1.2,3.4,2.5,6.8,4.3,9.9C126.2,447.8,126.3,448,126.3,448.2z"/>
		<path class="st25" d="M136.5,448.2c0.1-2.2,0.2-4.5-0.2-6.7c0,1.2-0.1,2.5-0.1,3.7c-0.2-0.4-0.4-0.8-0.6-1.3c0,1.4,0,2.8,0,4.2
			L136.5,448.2L136.5,448.2z"/>
	</g>
</g>
</svg>
