<?xml version="1.0" encoding="utf-8"?>
<!-- Generator: Adobe Illustrator 25.2.0, SVG Export Plug-In . SVG Version: 6.00 Build 0)  -->
<svg version="1.1" id="Layer_1" xmlns="http://www.w3.org/2000/svg" xmlns:xlink="http://www.w3.org/1999/xlink" x="0px" y="0px"
	 viewBox="0 0 536 448.2" style="enable-background:new 0 0 536 448.2;" xml:space="preserve">
<style type="text/css">
	.st0{opacity:0.35;}
	.st1{fill:#D6DCE5;}
	.st2{fill:#7E2448;}
	.st3{fill:#AC3062;}
	.st4{fill:#38312D;}
	.st5{fill:#EE5C30;}
	.st6{fill:#F2844F;}
	.st7{fill:#4F3E37;}
	.st8{fill:#15100D;}
	.st9{fill:#FBBB9E;}
	.st10{fill:#C13E24;}
	.st11{fill:#DA4E33;}
	.st12{fill:#B95D38;}
	.st13{fill:#F85939;}
	.st14{fill:#150F0C;}
	.st15{fill:#CC492F;}
</style>
<g class="st0">
	<path class="st1" d="M484.6,448.2H51.4C23,448.2,0,425.2,0,396.8V135.6c0-28.4,23-51.4,51.4-51.4h433.2c28.4,0,51.4,23,51.4,51.4
		v261.2C536,425.2,513,448.2,484.6,448.2z"/>
</g>
<g>
	<g>
		<path class="st2" d="M270.3,15.4c6.2-1.8,12.7-2.7,19.1-1.6c2.5,0.4,4.9,1.4,7.3,2.3c1.9,0.7,3.7,1.4,5.5,2.1
			c2.5,0.9,4.8,2.3,7,3.8c1.4,1,2.8,2,4,3.2c1.1,1.1,1.8,2.5,2.6,3.9c0.9,1.6,1.6,3.3,2.2,5c0.4,0,0.8,0,1.1,0
			c-1.1,0.6-2.4,0.8-3.6,1.2c-2.5,0.8-5,1.9-7.4,2.9c-2.9,1.1-5.8,2.5-8.5,4.1c-3.8,2-7.5,4.3-11,7c-2.6,2.1-5.4,4-7.8,6.4
			c-2.4,2.3-4.7,4.8-6.8,7.3c-2.5,3-4.5,6.5-6.5,9.9c-2.2,3.9-4.1,7.9-5.7,12.1c-1.2,3.6-2.5,7.1-3.3,10.8
			c-0.9,4.1-1.9,8.2-2.2,12.3c0,1.4-0.2,2.7-0.4,4.1c-0.2,2.7,0.2,5.4,0.4,8.1c0.3,3.8,1.2,7.6,2.2,11.2c0.8,2.7,1.9,5.3,3.4,7.7
			c0.9,1.4,1.6,2.9,2.4,4.4c1.7,2.9,4,5.4,5.6,8.3c1.7,2.8,3.1,5.8,4.1,8.9c1.2,3.7,2.1,7.5,2.2,11.4c0,1.4-0.2,2.7-0.2,4.1
			c-2.1,0.7-4.2,1.4-6.4,1.9c-1.4,0.4-2.9-0.2-4.3,0c-0.8,0-1.5-0.1-2.2-0.3c-2.2-0.6-4.3-1.6-6.5-1.8c-2-0.2-3.5,1.2-4.8,2.4
			c-2.2,1.9-5.3,2.6-8.2,2.5c-1.7,0-3.3-0.4-4.8-0.9c-2.6-0.8-4.7-2.4-7.1-3.7c-2.5-1.3-5.2-2.3-8.1-2.2c-2.5-0.1-4.8,0.9-7.2,1.4
			c-1.8,0.4-3.6,0.8-5.4,0.6c-4.2-0.5-7.9-2.7-10.9-5.6c-2-1.8-3.8-4-4.9-6.5c-0.9-1.8-1.2-3.8-2.1-5.5c-0.4-0.8-0.8-1.6-1.2-2.4
			c-0.4-0.9-1.4-1.4-2.1-2.1c-3-2.6-5.3-6.2-5.5-10.2c-0.2-2.2,0.6-4.3,1.1-6.4c0.6-2.7,2.2-5,3.3-7.5c1.9-3.7,0.6-8,2.2-11.7
			c1.1-2.5,3.1-4.8,5.7-5.7c2.3-0.8,4.8-1.1,6.8-2.6c1.7-1.3,2.7-3.3,3-5.4c0.5-2.4,0.5-5-0.6-7.2c-0.7-2-1.6-4-1.9-6.2
			c-0.2-2.1,0-4.2,0.4-6.3c0.7-4,1.9-8,4.1-11.4c2.1-2.9,4.5-5.4,7-7.8c1.5-1.4,2.2-3.2,3.1-5c1.5-2.9,3.2-5.9,5.8-7.8
			c1.7-1.4,3.8-2.3,5.9-2.6c1.6-0.3,3.3-0.3,4.8-0.8c2-0.7,3.9-1.7,5.4-3.1c1.9-1.8,3.2-4.2,4.2-6.6c1-2,1.7-4.1,3-5.9
			c0.9-1.6,2.2-3.1,3.4-4.5c3-4.4,7.1-8.2,12-10.5C265.5,17.4,267.8,16.1,270.3,15.4z"/>
		<path class="st3" d="M397.9,84.8c-1.3-4.5-3.2-8.8-5.8-12.8c0,0.4,0,0.7,0.1,1.1c-0.3-0.5-0.7-0.9-1.2-1.4
			c-0.3-0.2-0.6-0.4-0.9-0.6c-0.5-1.9-1.2-3.7-2.3-5.3c-0.3-0.5-0.8-1.1-0.5-1.7c-1.5-2.2-3.5-4-5.2-6.1c-1.4-1.6-3.1-2.9-4.4-4.6
			c-1.1-1.4-2.4-2.4-3.8-3.5c-0.1,0-0.3,0.1-0.4,0.1c-0.1-0.2-0.2-0.3-0.4-0.5c-1.1-1.3-2.4-2.5-3.9-3.4c-1.2-0.9-2.4-1.7-3.7-2.5
			c-3.2-1.9-6.7-3.3-10-5c-8-3.8-17-5.3-25.8-5.7c-2.1,0-4.2,0.2-6.3,0.2c-1.5,0.1-3,0.3-4.5,0.7c-1.1,0.6-2.4,0.8-3.6,1.2
			c-2.5,0.8-5,1.9-7.4,2.9c-2.9,1.1-5.8,2.5-8.5,4.1c-3.8,2-7.5,4.3-11,7c-2.6,2.1-5.4,4-7.8,6.4c-2.4,2.3-4.7,4.8-6.8,7.3
			c-2.5,3-4.5,6.5-6.5,9.9c-2.2,3.9-4.2,7.9-5.7,12.1c-1.3,3.6-2.5,7.1-3.3,10.8c-0.9,4.1-1.9,8.2-2.2,12.3c0,1.4-0.2,2.7-0.4,4.1
			c-0.2,2.7,0.2,5.4,0.4,8.1c0.3,3.8,1.2,7.6,2.2,11.2c0.8,2.7,1.9,5.3,3.4,7.7c0.9,1.4,1.6,2.9,2.4,4.4c1.7,2.9,3.9,5.4,5.6,8.3
			c1.7,2.8,3.1,5.8,4.1,8.9c1.2,3.7,2.1,7.5,2.2,11.4c0,1.4-0.2,2.7-0.2,4.1c3.4-1.1,6.8-2.4,9.6-4.7c4.4-3.7,7.8-8.4,11.4-12.8
			c3.7-4.4,8.3-8.1,13.5-10.5c4.2-1.9,8.6-3.3,12.8-5.2c8.7-3.9,16.9-8.8,24.8-14.1c6.8-4.7,13.6-9.5,21.1-13c2.3-1.1,4.6-1.8,7-2.7
			c1.7-0.6,3.3-1.5,4.9-2.3c1.5-0.7,3-1.3,4.5-2c2-1.1,4.2-1.8,5.8-3.4c-0.5,0.6-0.6,1.2-0.3,1.9c0.4,0,0.8,0.1,1.2-0.1
			c0.6-0.4,1.5,0.1,2-0.5c1.4-1.4,2.4-3.3,3.2-5.1c0.9-1.9,1.4-4,1.7-6.1c0.1-1.3,0.1-2.6,0.1-3.8C399,89.3,398.6,87,397.9,84.8z"/>
		<path class="st4" d="M165.1,448.2c0.3-0.6,0.5-1.2,0.8-1.8c0.9-2.3,1.7-4.6,2.8-6.8c2.9-6.2,5.8-12.4,8.3-18.7
			c0.9-2.4,2.1-4.7,3.2-7c0.9-2,1.7-4.1,2.7-6c2.2-4,3.7-8.4,5.7-12.5c0.8-1.6,1.6-3.3,2.4-4.9c0.1,0,0.3,0,0.3,0.1
			c0.5,1.8,1.1,3.5,1.9,5.2c1.5,3.5,3.2,6.8,4.8,10.2c2.3,5,4.4,10,6.8,15c0.8,1.7,1.6,3.4,2.2,5.2c1.1,3.2,2.5,6.4,3.7,9.6
			c0.8,1.9,1,4,1.5,6c0.5,2.2,1,4.4,1.4,6.6h135.6c0.5-1.5,1-3,1.5-4.4c1-2.6,1.6-5.3,2.7-7.8c1-2.3,1.5-4.8,2.7-7
			c0.7-1.3,1.3-2.6,1.9-3.9c0.9-2,2.1-3.9,3.4-5.7c-0.3,0-0.5,0.1-0.7,0.1c0.9-1.2,1.9-2.4,2.6-3.8c0.4-0.8,0.9-1.7,1.5-2.4
			c1.4-1.7,2.6-3.6,3.6-5.5c0.4-0.9,1.1-1.6,1.8-2.3c0.8-0.9,1.2-1.9,1.5-3c0.5-1.6,1.2-3.1,1.6-4.7c0.6-2.5,1.3-5.1,1.1-7.7
			c-0.2-2.7-0.5-5.3-1.4-7.9c-0.5-1.4-0.9-2.9-1.6-4.2c-1.3-2.4-2.8-4.6-4-7c-2-4.1-3.2-8.4-4.3-12.7c-0.5-1.9-1.2-3.9-1.3-5.9
			c-0.1-2.7-0.5-5.4-0.5-8.1c0.1-5.9,0.1-11.9,0.8-17.8c-0.2,2.4,0.4,4.8,0.7,7.2c0.4,2.3,0,4.6-0.1,7c-0.1,2.9-0.2,5.8,0.3,8.6
			c1.3-2.4,2.1-4.9,3.1-7.4c1.6-4.4,3-8.8,4.1-13.4c-0.1,2.3-0.3,4.7-0.7,7c-0.4,2.1-0.5,4.3-1.3,6.3c-0.9,2.2-1.8,4.4-2.9,6.6
			c-0.6,1.1-1.4,2.1-1.9,3.2c-0.2,1.2,0.3,2.4,0.5,3.5c0.6,3,1.5,6,2.7,8.8c1.4,3.5,2.7,7,4.8,10.2c1.1,1.8,1.8,3.8,2.8,5.6
			c1,1.9,1.4,4,1.7,6c0.3,2.3,0.7,4.7,0.6,7c-0.2,2.1-0.7,4.1-1.4,6.1c-0.7,2.3-2,4.2-3.1,6.3c-0.5,1.1-1.2,2-2,2.9
			c-1.6,2-3.2,4.1-4.6,6.2c-1.2,1.6-1.6,3.5-2.8,5c0,0.1-0.1,0.2-0.1,0.3c0.2,0.3,0.3,0.6,0.4,1c0.8,3.7,2,7.3,3,11
			c0.6,2.3,1.1,4.7,1.5,7c0.6,3.2,1.5,6.3,2.3,9.5H413c-0.1-0.5-0.1-1-0.2-1.4c-0.4-3.9-0.7-7.8-1.2-11.7c-0.7-5.7-1.1-11.4-2.1-17
			c-0.6-3.8-1.2-7.5-1.5-11.3c-0.4-5.4-1.1-10.7-2.5-15.9c-0.6-2.4-0.8-4.9-1.1-7.3c-0.6-4-1.1-8-2.2-11.9c-0.8-2.5-1.1-5.1-1.7-7.6
			c-1-4.3-1.9-8.7-3-13c-0.7-5.1-1.7-10.2-2.6-15.2c-1-5.1-2.4-10.2-3.7-15.2c-0.9-2.7-1.5-5.5-2.4-8.2c-0.5-1.5-1.2-3-1.7-4.5
			c-0.1-0.3-0.7-1.4-0.8-1.7c-0.9-1.8-1.9-3.6-2.8-5.4h-0.2c0-0.1,0-0.2,0-0.3c-1-2-2-4-3.1-5.9c-1.2-1.7-2.3-3.6-4.2-4.6
			c-1.2-0.9-2.2-2-3.4-3c-2.1-1.8-4.2-3.6-6.4-5.3c-3.2-2.5-6.7-4.5-9.9-7c-1.7-1.3-3.5-2.5-5.2-3.8c-2-1.5-3.8-3.4-5.7-5.1
			c-1.4-1.3-2.9-2.7-4.1-4.2c-0.8-1-1.5-2.1-2.4-3.1c-1.1-1.3-1.9-2.8-3-4.2c-1.4-1.9-2.3-4.2-3.4-6.2c-0.5-0.9-0.6-2.1-1.4-2.7
			c-0.4-1.6-0.9-3.1-1.4-4.6c-1-2.8-1.4-5.7-1.6-8.6c0-1.9,0-3.9-0.2-5.8c-0.2,0-0.5,0.1-0.7,0.1v-0.4l-0.1,0.2
			c0,0.1-0.1,0.3-0.2,0.3c-0.9,1.4-2.8,1.7-4.2,2.4c-1.8,0.8-3.7,1.6-5.7,1.8c-3,0.4-6-0.4-9-0.3c-2.2-0.1-4.3-0.4-6.5-0.5
			c-1.7-0.1-3.4-0.6-5.2-0.6c-1.7-0.1-3.2-0.9-4.9-1.3c-1.7-0.4-3.3-0.9-4.9-1.5c-3.6-1.4-7.4-2.3-10.9-4.2
			c-1.2-0.5-2.1-1.5-3.2-2.1c-1.6-0.9-3.1-1.8-4.5-2.9c-0.9-0.8-1.9-1.4-2.7-2.2c-0.5-0.5-0.5-1.2-0.6-1.9c-1.7,1.5-2.1,3.9-3,5.9
			c-1.2,2.5-2.2,5.2-3,7.9c-0.5,1.6-1.3,3-1.9,4.5c-0.8,1.8-1.4,3.7-2.5,5.3c-2.7,4.2-5.4,8.4-8.8,12.1c-0.5,0.6-1.1,1.2-1.6,1.8
			l-0.1,0.1c-0.6,0.7-1.2,1.4-1.8,2.1c-2.9,2.6-6,5-9.2,7.2c-3.7,2.6-7.4,5-11.2,7.4s-7.7,4.7-11.3,7.3c-2.4,1.7-5.1,3-7.7,4.5
			c-7.3,4.1-14.1,9.3-20.2,15c-2.6,2.5-5.3,4.9-7.7,7.6c-1.4,1.5-2.4,3.2-3.7,4.8c-1.4,2-2.7,4.1-3.9,6.2c-1.1,1.9-1.8,4-3,5.8
			c-1.1,1.7-2.2,3.4-3.1,5.1c-1,1.8-1.8,3.7-2.9,5.5c-1,1.7-1.9,3.4-2.7,5.2c-2.1,4.4-3.7,9-5.9,13.3c-1.1,2.1-2.3,4.2-3,6.4
			c-0.8,2.2-1.4,4.4-2.2,6.6c-1.6,4-3.2,7.9-4.7,11.9c-0.9,2.2-1.4,4.4-2.1,6.6c-0.9,2.9-1.9,5.8-3,8.7c-1.6,4.4-3.1,8.8-4.5,13.3
			c-1.2,4.3-2.6,8.6-3.8,12.9c-0.8,2.7-5.5,20.3-9.2,33.9h48.2V448.2z"/>
	</g>
	<g>
		<path class="st5" d="M394.7,106.7c-1.1-1.5-3.1-1.7-4.8-2c-1.5-0.4-2.9-0.8-4.4-1.2c0-0.3,0.1-0.6,0.1-0.9
			c0.6-2.1,0.8-4.3,1.1-6.5c0.1-1.7,0.5-3.4,0.2-5.1c-1,3.1-1.9,6.2-3.1,9.3c0,0.3-0.1,0.6-0.3,1c-0.1,0.1-0.1,0.2-0.3,0.3
			c-0.1,0.4-0.2,0.9-0.3,1.3c-2.3-0.7-4.6-1.4-6.9-2.2c-2.1-0.7-4.2-1.6-6.2-2.8c-0.1-1.9-0.3-3.8-0.3-5.7c0-2.2-0.3-4.3-0.1-6.5
			c0-1.2,0.1-2.5,0.3-3.7c-0.1,0.6-0.2,1.2-0.3,1.8c0,0.2-0.1,0.4-0.2,0.5c0,1.5-0.4,2.9-0.6,4.3c-0.1,1.6-0.4,3.2-0.7,4.8
			c-0.2,1-0.3,2.1-0.8,3.1c-0.1,0-0.3,0-0.5,0c-0.3-0.5-0.8-0.8-1.3-1.1c-5.8-3.2-11.9-5.8-18.2-7.8c0.5-3.3,0.5-6.6,1-9.9
			c0.4-2.1,0.6-4.3,1.1-6.4c-1.7,5.1-3.2,10.3-4.4,15.5c-4.9-1.5-10-2.6-15-3.8c1.4-4.7,2.7-9.5,4.4-14.1c1-2.3,1.6-4.7,2.9-6.8
			c-0.2,0.2-0.4,0.4-0.6,0.5c-2.4,3.9-4.5,7.9-6.3,12.1c-1.2,2.6-2.1,5.3-3.2,7.8c-1.8-0.4-3.6-0.9-5.5-0.9c-1,0.1-1.9-0.6-2.8-0.8
			c-1.1-0.3-2.2-0.8-3.4-1.1c-0.1,0-0.4,0-0.6,0c1.5,1,2.9,2.1,4.4,3.1c0.8,0.6,1.5,1.4,2.4,1.8c0.7,0.3,1.5,0.6,2.1,1
			c4.2,3.2,9,5.6,13.9,7.6c3.9,1.8,7.6,4,11.5,5.6c4.1,1.6,7.9,3.8,11.9,5.6c1.8,0.8,3.7,1.5,5.5,2.4c1.9,0.9,3.9,1.8,5.8,2.8
			c3.9,2.2,7.9,4.3,11.8,6.6c2.9,1.6,5.3,4,7.9,6.1c1-3.4,1.8-6.8,2.4-10.3C394.6,110.1,394.4,108.4,394.7,106.7z"/>
		<path class="st6" d="M310.3,73.3c1.2-0.5,2.6-0.3,3.8-0.8c0.2,0,0.5,0.1,0.6,0.1c0,0.6,0,1.1-0.1,1.7c-0.4,1.5-0.4,3-0.7,4.6
			c0.5,0.2,0.9,0.4,1.4,0.6c-0.1,0-0.4,0-0.6,0c1.5,1,2.9,2.1,4.4,3.1c0.8,0.6,1.5,1.4,2.4,1.8c0.7,0.3,1.5,0.6,2.1,1
			c4.2,3.2,9,5.6,13.9,7.6c3.9,1.8,7.6,4,11.5,5.6c4.1,1.6,7.9,3.8,11.9,5.6c1.8,0.9,3.7,1.5,5.5,2.4c1.9,0.9,3.9,1.8,5.8,2.8
			c3.9,2.2,7.9,4.3,11.8,6.6c2.9,1.6,5.3,4,7.9,6.1c-0.5,1.9-1.2,3.6-1.8,5.5c-1.1,3.1-1.9,6.2-3.2,9.2c-0.7,1.7-1.4,3.5-2.2,5.2
			c-1,1.8-1.7,3.7-2.6,5.5c-1,2.2-2.3,4.2-3.5,6.4c-1.8,3.4-3.6,6.9-5.5,10.2c-1.4,2.5-2.7,5-4.2,7.4c-0.7,1-1.3,2.1-1.9,3.2
			c-2.3-1.1-5-1.1-7.5-0.7c-3.1,0.7-6.1,2.1-8.2,4.6c-1.2,1.4-2.3,2.9-3.3,4.5c-1.5,2.5-2.2,5.4-1.9,8.3c0.2,2,1.2,3.8,1.8,5.7
			c0.3,1,0.9,1.8,1.6,2.5c-2.9,3.3-6.2,6.2-9.6,8.8c-2.9,2.1-5.5,4.5-8.7,6.1c-0.3,0.2-0.6,0.3-1,0.3c-0.9,0-1.7,0.3-2.4,0.8
			c-1.8,1.1-3.9,1.2-5.9,1.4c-1.7,0.1-3.4,0.7-5.1,0.3c-2.5-0.7-5-1.3-7.3-2.4c-1.6-0.8-3.2-1.4-4.9-1.8c-1.4-0.3-2.9-0.7-3.9-1.7
			c-3.8-3.6-8.1-6.6-11.3-10.8c-1.5-2-3-4.1-4.2-6.4c-0.5-1-1.2-1.9-1.9-2.8c-0.7-0.9-1.6-1.6-2.2-2.5c-1.2-1.8-1.9-3.9-2.7-5.8
			c-0.7-1.8-1.3-3.6-1.9-5.4c-0.2-0.9-1.5-0.7-1.8-1.5c-0.6-1.2-0.9-2.5-1.4-3.8c-0.4,0-0.7,0-1.1,0c0,0.7,0,1.5,0.3,2.2
			c0.7,2.3,1.4,4.6,2.4,6.8c1.9,3.9,3.9,7.9,5.2,12.1c0.9,2.7,2.3,5.2,3.4,7.8c0.6,1.3,1.1,2.6,1.7,4c0.6,1.3,1.2,2.7,1.5,4.1
			c0.6,2.8,1.6,5.4,2.5,8.1c0.6,1.8,1.1,3.6,1.9,5.4c0.4,1.1,0.7,2.2,1.2,3.3c0.3,0.7,0.6,1.4,0.9,2.1c-2.2-0.4-4.4-1.1-6.5-1.9
			c-2.1-0.8-4.3-1.5-6.5-2.3c-1.5-0.5-2.8-1.3-4.3-1.7c-1.2-0.5-2.1-1.5-3.2-2.1c-1.6-0.9-3.1-1.8-4.5-2.9c-0.9-0.8-1.9-1.4-2.7-2.2
			c-0.5-0.5-0.5-1.2-0.6-1.9c-0.1-2.4,0.5-4.7,0.7-7.1c0.3-3.7,0.5-7.3,0.8-11c0-3.7,0.3-7.4,0.3-11.1c0.3-4-0.1-8.1-0.2-12.1
			c-0.3-2.1-0.1-4.2-0.3-6.3c-0.1-3.3-0.7-6.6-0.8-9.9c-0.2-2-0.2-4.1-0.3-6.1c0-0.9-0.3-1.7-0.1-2.6c0.6-3.1,1.4-6.3,2.3-9.3
			c0.6-2.7,1.2-5.4,1.9-8c1-4.1,2.4-8,3.1-12.2c1.1-2.6,1.7-5.3,3-7.8c1.9-3.9,3.8-7.7,6.3-11.3c3.6-4.9,7.5-9.5,11.8-13.8
			c2.8-2.6,5.8-5.1,9.1-7.2C304.8,76,307.5,74.5,310.3,73.3z"/>
		<path class="st5" d="M249,89.8c2.9-1.1,6-1.2,9-0.7c2.6,0.7,5.2,1.3,7.5,2.7c1.5,1,3.3,1.8,4.2,3.4c0.5,1.4,0.5,2.9,0.6,4.3
			c0.2,1.4,0.6,2.8,0.8,4.3c0.3,2.3,0.7,4.5,0.9,6.7c0.2,2.4,0,4.8,0.1,7.2c-0.7,4.1-2.1,8.1-3.1,12.2c-0.7,2.7-1.3,5.3-1.9,8
			c-0.9,3.1-1.7,6.2-2.3,9.3c-0.1-0.5-0.7-0.5-1.1-0.7c-2-0.5-3.9-1.2-5.8-1.8c-3-1-6.2-2.2-8.5-4.5c-1.8-1.5-3.5-3-4.7-4.9
			c-0.7-1.2-1.5-2.4-2.3-3.5c-1.2-1.9-2.1-3.9-2.8-6c-0.5-1.4-1.1-2.8-1.5-4.3c-0.5-1.8-0.6-3.6-1-5.4c-0.5-2.4-0.3-4.8-0.1-7.2
			c0.2-2.3,0.8-4.6,1.4-6.9c0.6-1.9,1.3-3.7,2.2-5.4c1.1-1.8,2.6-3.3,4.2-4.6C246,91.1,247.4,90.2,249,89.8z"/>
		<path class="st5" d="M300.3,121.6c-0.2-0.4,0.2-0.8,0.5-0.9c1.2,0.1,1.9,1.3,3,1.7c1.3,0.5,2.7,0.8,4,1.4c2.8,1.2,5.8,2.3,8.3,4.1
			c1.4,0.9,2.6,2.1,4,2.9c1.4,1,2.9,2,4,3.4c1,1.3,2.6,2.1,3.8,3.2c0.3,0.3,0.3,0.7,0.4,1.1c-2.1,0.5-4.2,0.7-6.3,0.2
			c-0.8-0.3-1.9-0.4-2.4-1.2c-0.5-0.9-1.2-1.6-1.9-2.4c-0.6-0.7-1.6-0.7-2.5-0.9c-2.1-0.4-4.2-0.5-6.2-1.2c-0.8-0.2-1.8-0.2-2.3-0.9
			c-0.9-1-2-1.9-2.8-3c-0.9-1.3-1.6-2.7-2.1-4.2C301.3,123.8,300.7,122.7,300.3,121.6z"/>
		<path class="st5" d="M358.2,148.5c0.6-0.2,1.3-0.6,2-0.3c0.5,0.2,0.9,0.8,1.3,1.1c1.4,0,2.7,0,4,0.3c0.3,0.6-0.1,1.2-0.4,1.8
			c0.7,0.6,1.5,1.3,2.3,1.7c0.7,0.4,1.6,0.7,1.9,1.5c0.6,1.1,1.8,2,2,3.4c0,0.1-0.1,0.4-0.1,0.5c-1.3-1.4-2.7-2.9-4.5-3.7
			c-1.5-0.5-3.2-0.5-4.8-0.7c-1,1.6-2.8,2.3-3.9,3.8c-2.3,2.9-4.3,6-6.1,9.2c-0.6,1.1-1.1,2.1-1.4,3.3c-0.4,1.3-0.1,2.8-0.7,4
			c-0.5,0.8-1.6,1-2.5,1.2c-2.1,0.5-4.2,1.2-6.3,1.6c-0.5,0.1-1.2,0.3-1.6-0.1c0.1-0.9,1.2-1.1,1.9-1.3c1.7-0.3,3.5-1,4.8-2.2
			c0.1-0.5,0-1-0.1-1.5c-0.4-1.3-0.7-2.7-1.5-3.9c-0.9-1.3-1-2.9-0.8-4.4c0.3-1.3,0-2.6,0.3-3.8c0.3-1.7,0.7-3.3,1.3-4.9
			c0.8-2,2-3.8,3.8-4.9c0.7-0.5,1.5-0.5,2.2-0.7c1.6-0.3,3.1-0.7,4.7-0.7C356.9,148.6,357.6,148.7,358.2,148.5z"/>
		<path class="st5" d="M293.1,150.6c1.2-0.2,2.3-0.5,3.5-0.3c1.1,0.1,2.2,0.3,3.4,0.4c1.7,0.1,3.3,0.7,4.9,1.2
			c1.7,0.6,3,1.8,4.3,2.9c1.5,1.4,2.3,3.3,3.2,5.1c0.6,1.4,1.3,2.9,1.3,4.4c0,1.1-0.3,2.2-0.2,3.4c0.1,1.4-0.5,2.8-1.2,4.1
			c-1.2,2-2.3,4.2-4.1,5.8c-1.7,1.3-3.2,2.8-5.3,3.4c-1.4,0.4-2.8,0-4.3,0.1c-2.4,0.2-4.8-0.6-7-1.5c-2-1-4.4-1.7-5.7-3.7
			c-0.9-1.1-0.5-2.7-1.5-3.7c-1.3-1.7-1.6-4-1.5-6.1c-0.2-2-0.2-4.1,0.4-6c0.3-0.9,0.9-1.7,1.3-2.5c0.3-0.7,0.5-1.4,1-2
			c0.9-1.1,2.1-2,3.4-2.6c1-0.5,1.8-1.2,2.8-1.7c0.4,3.3,1,6.6,1.8,9.8c0.4,1.3,0.9,2.6,1.3,3.9c0.3,0.8,0.5,1.7,1.3,2.1
			c-0.3-1.7-0.5-3.5-1-5.2c-0.5-2.1-0.5-4.3-1.1-6.4C293.6,153.9,293.2,152.2,293.1,150.6z"/>
		<path class="st5" d="M272.3,172.3c0.3,0,0.7,0,1.1,0c0.5,1.3,0.8,2.6,1.4,3.8c0.3,0.8,1.6,0.6,1.8,1.5c0.5,1.8,1.2,3.6,1.9,5.4
			c0.8,2,1.5,4.1,2.7,5.8c0.6,1,1.5,1.6,2.2,2.5s1.3,1.8,1.9,2.8c1.2,2.2,2.6,4.3,4.2,6.4c3.2,4.2,7.5,7.2,11.3,10.8
			c1.1,1,2.5,1.4,3.9,1.7c1.7,0.4,3.3,1,4.9,1.8c2.3,1.1,4.8,1.7,7.3,2.4c1.7,0.5,3.4-0.2,5.1-0.3c2-0.2,4.2-0.3,5.9-1.4
			c0.7-0.5,1.5-0.8,2.4-0.8c-0.8,0.5-0.8,1.5-1.2,2.2c-0.4,1-0.5,2-0.9,3c-0.5,2-0.6,4.2-0.8,6.3c0,0.1-0.1,0.3-0.2,0.3
			c-1.4,0.9-2.8,1.5-4.2,2.4c-1.8,0.9-3.7,1.6-5.7,1.8c-3,0.4-6-0.4-9-0.3c-2.2-0.1-4.3-0.5-6.5-0.5c-1.7-0.1-3.4-0.6-5.2-0.6
			c-1.7-0.1-3.2-0.9-4.9-1.3c-1.7-0.4-3.3-0.9-4.9-1.5c-3.6-1.4-7.4-2.3-10.9-4.2c1.5,0.4,2.8,1.2,4.3,1.7c2.2,0.7,4.3,1.4,6.5,2.3
			c2.1,0.8,4.2,1.5,6.5,1.9c-0.2-0.7-0.5-1.4-0.9-2.1c-0.5-1.1-0.7-2.2-1.2-3.3c-0.7-1.8-1.3-3.6-1.9-5.4c-0.9-2.7-1.9-5.3-2.5-8.1
			c-0.3-1.4-0.9-2.8-1.5-4.1s-1.1-2.6-1.7-4c-1.1-2.6-2.5-5.1-3.4-7.8c-1.3-4.2-3.3-8.2-5.2-12.1c-1-2.2-1.7-4.5-2.4-6.8
			C272.4,173.8,272.3,173,272.3,172.3z"/>
		<path class="st5" d="M359.6,173.9c2.5-0.4,5.2-0.5,7.5,0.7c-1.2,1.9-2.2,3.9-3.5,5.8c-4.3,6.6-8.7,13.3-14.1,19.2
			c-0.8-0.7-1.3-1.5-1.6-2.5c-0.6-1.9-1.6-3.7-1.8-5.7c-0.3-2.9,0.4-5.9,1.9-8.3c1-1.5,2.1-3.1,3.3-4.5
			C353.5,176,356.5,174.7,359.6,173.9z"/>
	</g>
	<g>
		<g>
			<path class="st7" d="M295.3,118.4c1.5-1,3.4-0.8,5.2-0.7c4.1,0.1,8.1,0.8,12,2.1c4.5,1.3,8.6,3.6,12.6,6c1.9,1.2,3.9,2.6,4.9,4.7
				c0.4,0.8,0.6,1.6,0.8,2.4c0.2-0.8,0.3-1.6,0.9-2.1c0.2,0.8,0.1,1.7-0.1,2.5c0.2,0,0.5-0.1,0.7-0.1c-0.1,0.7-0.2,1.4-0.5,2.1
				c-0.6,1.2-1.4,2.5-2.3,3.5c-1.2-0.2-2.1-1-2.9-1.9c-3.3-3.4-6.9-6.5-11.1-8.7c-2.4-1.3-4.8-2.5-7.3-3.7
				c-4.1-1.8-8.2-3.5-12.2-5.4C295.7,119,295.5,118.7,295.3,118.4z"/>
			<path class="st8" d="M310,132.4c0.7-0.4,1.6-0.3,2.4,0.1c0.7,0.2,0.8,1.1,0.9,1.8c0.2,1.8-1,3.4-2.3,4.5c-0.9,0.8-2.5,0.9-3.3,0
				s-0.8-2.2-0.4-3.2C307.8,134.2,308.7,133,310,132.4z"/>
			<path class="st9" d="M302.9,137.8c0.9,0.6,1.6,1.4,2.5,2.1c0.9,0.7,1.8,1.4,2.7,2c0.6,0.4,1.4,0.7,1.8,1.4
				c-1.3-0.2-2.3-1-3.3-1.7c-1.1-0.8-2.2-1.5-3.1-2.5C303.1,138.8,303,138.3,302.9,137.8z"/>
			<path class="st7" d="M355.3,144.8c3.4-2.3,7.7-2.2,11.5-1.1c4.6,1.4,9,3.6,12.4,7.1c0.5,0.4,0.2,1,0.2,1.6
				c-0.6,0.1-1.2,0.1-1.7-0.1c-5.1-1.8-10.6-2.3-15.9-2.6c-3.1-0.1-6.1,0.3-9.1,0.5c-0.2-0.5-0.7-1-0.3-1.5c1-1.8,1.2-4.3,3.2-5.3
				C355.5,143.9,355.4,144.4,355.3,144.8z"/>
			<path class="st8" d="M361.6,155c0.9-0.4,2.1-0.1,2.7,0.7c0.4,0.6,0.3,1.4,0.2,2.1c-0.3,1.3-1.3,2.3-2.2,3.2
				c-0.7,0.7-1.9,0.8-2.6,0.2c-0.5-0.4-0.6-0.9-0.7-1.5C358.7,157.7,360,155.9,361.6,155z"/>
			<path class="st9" d="M354.6,160.7c0.4-0.1,0.8,0,1.1,0.3c1.5,1.2,3.1,2.2,4.9,2.8c0.8,0.2,1.7,0.3,2.4,0.7c-1.7,0.3-3.4-0.4-5-1
				C356.6,162.9,355.3,162,354.6,160.7z"/>
			<path class="st10" d="M316.2,181.1c0.2,0.1,0.5,0.3,0.7,0.4c1.4,1,2.5,2.4,4.2,2.9c0.3,0.5,0.5,1,0.9,1.3
				c0.4,0.1,0.8-0.1,1.1-0.1c0,0.3-0.1,0.6-0.1,1c0.6,0.5,1.3,1,1.9,1.4c0.3-0.4,0.6-0.9,0.8-1.3c0.2,0.1,0.4,0.1,0.6,0.2
				c-0.3,0.6-0.5,1.2-0.8,1.8c1.2,0.6,2.5,1.2,3.7,1.8c0.9-0.9,1.7-1.9,2.3-3.1c0.2,0,0.5,0,0.6,0.1c-0.2,1.4-1.2,2.4-2.1,3.3
				c0.7,0.1,1.5,0.7,2.1,0.1c1-0.9,1.4-2.2,2.5-3c0.1,1.4-0.9,2.5-1.8,3.5c0.9-0.1,2.1,0,2.7-0.8c0.5-0.8,1-1.6,1.7-2.2
				c-0.2,1.1-0.8,2-1.3,2.9c1.5-0.5,2.3-1.8,3.6-2.6c-0.3,0.7-0.6,1.4-0.9,2.1c-0.3,0.3-0.7,0.6-1,0.9c-1.6,0.8-3.5,0.6-5.3,0.5
				c-2.2-0.1-4.1-1.1-6-2.1c-3.5-1.8-6.1-4.9-9.4-7C316.4,182.4,316.3,181.7,316.2,181.1z"/>
			<path class="st11" d="M316.9,181.5c1.8,0,3.4,0.6,5.2,0.8c1.6,0.2,3.3,0.6,4.9,0.7c2.1,0.3,4.1,1,6.1,1.6
				c0.1,0.1,0.3,0.2,0.4,0.3c0.4,0.3,0.8,0.9,1.4,0.8c0.5-0.1,0.9-0.3,1.4-0.4c0.1,0,0.3,0,0.5,0c1.3,0.1,2.9,0.4,3.4,1.8
				c0.2,1.3-0.4,2.7-1.5,3.5c0.3-0.7,0.6-1.4,0.9-2.1c-1.3,0.8-2.1,2.2-3.6,2.6c0.5-0.9,1.1-1.8,1.3-2.9c-0.7,0.6-1.2,1.4-1.7,2.2
				c-0.6,0.8-1.8,0.7-2.7,0.8c0.8-1,1.9-2,1.8-3.5c-1.1,0.7-1.6,2.1-2.5,3c-0.6,0.6-1.4,0.1-2.1-0.1c0.9-1,1.9-2,2.1-3.3
				c-0.2,0-0.5,0-0.6-0.1c-0.6,1.1-1.4,2.2-2.3,3.1c-1.2-0.6-2.5-1.2-3.7-1.8c0.3-0.6,0.5-1.2,0.8-1.8c-0.2-0.1-0.4-0.1-0.6-0.2
				c-0.3,0.4-0.6,0.9-0.8,1.3c-0.7-0.4-1.3-0.9-1.9-1.4c0-0.3,0.1-0.6,0.1-1c-0.4,0.1-0.7,0.3-1.1,0.1c-0.4-0.3-0.6-0.9-0.9-1.3
				C319.4,183.9,318.2,182.5,316.9,181.5z"/>
			<g>
				<path class="st12" d="M310,131.5c3,0.8,6,2.1,8.2,4.4c0.6,0.6,1,1.4,1.3,2.1c0.2,0,0.5,0,0.7,0c-0.3-1.4-1-2.7-2.1-3.6
					c-2.3-2.2-5.3-3.8-8.4-4.2c-1.2-0.1-2.9,0.2-3.4,1.5C307.5,131.4,308.7,131.1,310,131.5z"/>
				<path class="st12" d="M346.2,152.9c-0.8,0.9-1.3,2-1.7,3.2c-0.6,1.6-1.2,3.2-1.3,4.9c-0.1,1.4-0.3,2.9,0,4.3
					c0.4,2.1,1.5,4,2.3,6c0.2,0.7,0.4,1.8-0.2,2.4c-1.6,0.9-3.3,1.5-5.1,1.9c-0.7,0.2-1.5,0.3-2.1,0.8c0.2,0.5,0.7,0.6,1.2,0.6
					c1.8-0.1,3.4-1,5-1.5c1.1-0.3,2.3-0.8,2.8-1.9c0.6-1-0.2-2.1-0.5-3.1c-0.4-1.6-1.4-2.9-1.9-4.4c-0.9-4.4-0.1-9.3,2.6-13
					c0.6-0.7,0.8-1.7,1.2-2.5C347.4,150.9,346.7,151.9,346.2,152.9z"/>
				<path class="st12" d="M369.7,156.2c-1.6-1.2-3.4-2-5.3-2.6c-1.8-0.6-3.7-0.5-5.4,0c3.3,0.2,6.6,1.2,9.6,2.8
					c0.8,0.4,1.4,1.3,2.4,1.5C370.7,157.2,370.3,156.6,369.7,156.2z"/>
				<path class="st12" d="M336.7,171.4c-1,0.1-1.7,0.9-1.6,1.9c0.9,0.7,2.5,0.1,3-0.9C338.3,171.6,337.3,171.3,336.7,171.4z"/>
				<path class="st12" d="M333.4,177.5c-1.2,2.1-0.7,4.7-0.4,7.1c0.1,0.1,0.3,0.2,0.4,0.3c0-1.1-0.2-2.2-0.2-3.2
					C333.2,180.3,333.5,178.9,333.4,177.5z"/>
				<path class="st12" d="M336.3,177.8c-1,2.4-0.6,5.1-0.1,7.6c0.1,0,0.3,0,0.5,0c-0.1-1.5-0.4-3.1-0.4-4.6
					C336.3,179.8,336.4,178.8,336.3,177.8z"/>
				<path class="st12" d="M320.4,216.6c-1.2,0.3-2.4,0.1-3.6-0.1c-1.9-0.3-3.8-0.6-5.7-1.3c-2.2-0.8-4.3-2-6.3-3.2
					c-3.1-1.8-5.8-4.2-8.4-6.6c-3.1-3-6.1-6.1-8.7-9.5c-2.9-3.8-5.6-7.6-8.2-11.6c-0.6-1.4-1.6-2.7-2.3-4c-1.2-2.2-2.2-4.5-3.4-6.7
					c-1-2.4-2-4.8-3.5-6.8c0.3,1.3,0.9,2.5,1.2,3.8c0.5,1.6,0.9,3.3,1.7,4.8c1.5,2.7,2.9,5.6,4.3,8.3c1.3,2.4,2.4,4.9,4.1,7
					c1.4,1.7,2.3,3.6,3.7,5.3c1.1,1.5,2.3,2.9,3.5,4.3c1.3,1.4,2.4,3,3.8,4.3c3,2.8,5.9,5.8,9.3,8c2,1.3,4.2,2.3,6.3,3.3
					c2.3,1.1,4.8,1.5,7.2,2c0.9,0.2,1.8,0,2.7,0c0.8,0,1.6,0.1,2.5,0c1.6-0.3,3.3-0.5,4.9-1c1.5-0.5,3-1,4.1-2
					c-1.6,0.5-3.3,0.9-4.9,1.2C323.4,216.2,321.8,216.2,320.4,216.6z"/>
			</g>
			<path class="st13" d="M316.8,183c3.3,2.1,5.9,5.2,9.4,7c1.9,1,3.8,2,6,2.1c1.8,0.1,3.7,0.2,5.3-0.5c0.1,1.3-0.7,2.6-1.6,3.5
				c-1.3,0.9-2.9,1.6-4.6,1.7c-2.8,0.4-5.6-0.7-7.7-2.4c-2-1.3-3.3-3.2-4.6-5.1C318.2,187.2,317.2,185.2,316.8,183z"/>
		</g>
		<g>
			<path class="st2" d="M377.6,70c-0.2-5.3-0.7-10.7-2.5-15.8c-0.5-1.4-1.2-2.7-2-3.9c0.4-0.1,0.7-0.2,1.1-0.3
				c-1.1-0.9-2.1-1.9-3.2-2.6c-2.9-0.7-5.7-1.9-8.6-2.3c-2.2-0.3-4.3-0.2-6.5-0.5c-2.3-0.3-4.7,0.1-7,0.2c-2.7,0.4-5.5,0.9-8,2.1
				c-2,0.9-4,1.6-5.9,2.7c-2,1.1-4.1,2.1-6,3.5c-5.3,3.7-9.3,8.9-12.3,14.6c-0.8,1.6-1.9,3.1-2.6,4.8c-0.2,0.5,0,1,0.2,1.4
				c0.4-0.8,0.8-1.5,1.2-2.1c1.6-2.8,3.5-5.9,6.1-7.9c0.3-0.4,0.6-0.8,0.8-1.2c1.9-2.7,4.4-4.9,6.9-7c1.5-1.3,3.2-2.2,4.9-3.1
				c1.1-0.6,2.3-1.2,3.5-1.6c-2,2.4-3.8,4.9-5.3,7.6c-3.2,5.5-5.8,11.4-8,17.4c-0.7,1.8-1.2,3.6-1.7,5.5c0,0.1,0,0.2-0.1,0.2
				c0.2,0,0.4,0,0.6,0.1c0.2-0.5,0.3-1.1,0.5-1.6c2-6,4.3-11.9,7.3-17.4c1.6-3,3.3-5.9,5.4-8.5c0.8-1,1.6-2,2.4-3
				c0.6-0.9,1.7-1.3,2.7-1.6c1.7-0.5,3.4-1.1,5.1-1.5c-1,2.1-2.3,4-3.2,6.1c-2.8,5.7-5.2,11.5-7.2,17.5c-1.3,3.9-2.6,7.8-3.6,11.9
				c0.2,0.1,0.4,0.3,0.6,0.4c0.3-1.1,0.6-2.1,0.9-3.1c2.1-6.9,4.6-13.8,7.4-20.4c1.8-4.1,3.5-8.1,5.8-11.9c0.3-0.4,0.6-0.8,1.1-0.9
				c1.6-0.3,3.3-0.5,5-0.6c-3.7,8.8-6.4,17.9-8.7,27.2c-0.9,3.8-1.8,7.6-2.5,11.4c0.3,0,0.6,0.1,0.8,0.3c1.4-7.3,3.4-14.5,5.5-21.6
				c1.8-5.8,3.6-11.7,5.9-17.3c1.6-0.1,3.2,0,4.7,0.2c0.1,3-0.3,6.1-0.6,9.1c-0.4,4.3-1,8.5-1.7,12.7c-1.1,6.7-2.8,13.3-4.4,20
				c0.2,0,0.3,0.1,0.5,0.2c2.1-7.8,4.1-15.7,5.5-23.7c1-6,2-12.1,1.8-18.2c2.1,0.2,4.1,0.7,6.1,1.2c1.3,3.7,1.8,7.7,1.8,11.6
				c0.1,5.6-0.5,11.2-1.1,16.8c-0.6,5.5-1.4,11-2.3,16.5c0,0.3-0.1,0.6-0.2,0.9c0.2,0,0.4,0,0.6,0c0.1,0,0.1,0,0.1,0.1
				c0.1-0.5,0.2-1,0.3-1.5c1.2-5.9,2-11.8,2.7-17.7c0.6-5,1.2-10,1.2-15.1c0-2.5-0.2-5.1-0.7-7.6c-0.3-1.3-0.8-2.5-1.1-3.8
				c1.2,0.3,2.3,0.5,3.4,1c0.5,0.1,0.7,0.6,0.9,1c2.1,3.8,2.9,8.1,3.6,12.3c0.7,5.1,1,10.2,0.7,15.3c-0.2,5-0.5,9.9-1,14.8
				c-0.2,1.6-0.4,3.1-0.7,4.7c-0.1,0.7-0.3,1.4-0.5,2.1h0.1c0.2,0,0.4,0,0.6,0.1c0-0.1,0.1-0.3,0.1-0.4c1.1-4,1.5-8.2,1.9-12.4
				c0.3-3.1,0.5-6.3,0.7-9.5C377.4,75.1,377.7,72.6,377.6,70z"/>
			<path class="st2" d="M383.8,70.9c0.4,2.5,0.5,5.1,0.7,7.6c0,4.6,0.3,9.3-0.5,13.8c0.2,1.3,0.2,2.6,0,3.8c0,0,0,0,0.1-0.1
				c0.1,0.8,0,1.6-0.1,2.5c0.1-0.3,0.3-0.5,0.6-0.6c0.3-3,0.3-6.1,0.8-9.1c0.8-5.2,0.7-10.5,0.2-15.7c-0.3-2.3-0.6-4.7-1.4-6.9
				c-0.7-1.7-1.1-3.5-2-5.2c-1.1-2.3-2.3-4.4-3.9-6.4c-0.8-1-1.7-2.1-2.8-2.9c0,1.2,0.9,2.1,1.5,3c1.7,2.4,3.2,4.9,4.4,7.5
				c0.3,0.8,0.5,1.6,0.8,2.4C383.1,66.6,383.4,68.8,383.8,70.9z"/>
			<path class="st2" d="M387.9,65.9c-0.3-0.5-0.8-1.1-0.5-1.7c1,1.4,1.9,2.9,2.6,4.5c0.6,1.2,1.4,2.3,2.1,3.4c0,1.6,0.4,3.3,0.6,4.9
				c0.7,7.4-0.1,14.8-1.6,22c-0.5,1.7-0.6,3.6-1.9,4.9c0.2-1.7,0.8-3.3,1.1-4.9c0.8-4.4,1.3-8.8,1.3-13.2c0-2.8,0-5.5-0.3-8.3
				C390.8,73.5,390.1,69.3,387.9,65.9z"/>
			<path class="st3" d="M271.5,173.9C271.6,174,271.6,174,271.5,173.9L271.5,173.9z"/>
		</g>
		<g>
			<path class="st14" d="M327.3,226.6c-1.4,0.9-2.8,1.5-4.2,2.4C324.5,228.3,326.3,228,327.3,226.6z"/>
			<path class="st14" d="M263,238.7c1.3,0.9,2.7,1.6,3.9,2.7c1,0.9,2.4,1.4,3.6,2.1c0.2-0.2,0.4-0.4,0.7-0.7c-1-0.9-2.1-1.6-3.2-2.4
				c-2.4-1.6-4.6-3.3-6.8-5.1c-0.6-0.5-1.3-1.1-2-1.4c-0.6-0.3-1.1,0.2-1.6,0.4C258.9,236.1,261.1,237.3,263,238.7z"/>
			<path class="st14" d="M259,244.5c1.2,1.2,2.5,2.1,3.8,3.2c1.7,1.4,3.6,2.6,5.3,4c0.1-0.2,0.3-0.5,0.4-0.7
				c-0.2-0.2-0.3-0.3-0.5-0.5c0-0.1,0-0.4-0.1-0.5c-1.4-0.9-2.9-1.8-4.1-3c0.1-0.3,0.2-0.5,0.3-0.8c-1-0.9-2-1.8-3-2.7
				c-1.4-1.4-2.5-3-3.9-4.4c-0.4-0.5-1-0.4-1.5-0.5c0.2,1.5,1.1,2.7,2,3.8C258.3,243,258.4,243.9,259,244.5z"/>
			<path class="st14" d="M375.8,385.8c-0.3-2.1-0.7-4.2-1.7-6s-1.7-3.8-2.8-5.6c-2-3.2-3.3-6.8-4.8-10.2c-1.1-2.9-2-5.8-2.7-8.8
				c-0.2-1.2-0.7-2.3-0.5-3.5c0.5-1.1,1.3-2.1,1.9-3.2c1.1-2.1,2-4.3,2.9-6.6c0.8-2,0.9-4.2,1.3-6.3c0.4-2.3,0.7-4.7,0.7-7
				c-1.2,4.5-2.6,9-4.1,13.4c-0.9,2.5-1.8,5.1-3.1,7.4c-0.4-2.9-0.4-5.7-0.3-8.6c0-2.3,0.5-4.6,0.1-7s-1-4.8-0.7-7.2
				c-0.7,5.9-0.8,11.8-0.8,17.8c0,2.7,0.4,5.4,0.5,8.1c0.1,2,0.8,3.9,1.3,5.9c1.1,4.3,2.4,8.7,4.3,12.7c1.2,2.4,2.7,4.7,4,7
				c0.7,1.3,1.1,2.8,1.6,4.2c0.9,2.5,1.2,5.2,1.4,7.9c0.2,2.6-0.5,5.2-1.1,7.7c-0.4,1.6-1.1,3.1-1.6,4.7c-0.4,1.1-0.8,2.1-1.5,3
				c-0.6,0.7-1.3,1.4-1.8,2.3c-1,2-2.3,3.8-3.6,5.5c-0.6,0.7-1,1.5-1.5,2.4c-0.7,1.4-1.6,2.6-2.6,3.8c0.2,0,0.5-0.1,0.7-0.1
				c0.5-0.5,0.9-1.1,1.4-1.6c-0.1,0.6-0.2,1.1-0.2,1.7c1.2-1.5,1.6-3.5,2.8-5c1.4-2.1,3-4.2,4.6-6.2c0.8-0.9,1.5-1.9,2-2.9
				c1-2.1,2.4-4.1,3.1-6.3c0.6-2,1.2-4,1.4-6.1C376.5,390.5,376.2,388.1,375.8,385.8z"/>
			<path class="st14" d="M196.3,380.8c1.7-2.7,2.1-5.8,2.7-8.8c1.1-6.5,1.5-13,1.3-19.6c-0.1-2.4-0.1-4.9-0.2-7.3
				c-0.2,0-0.4,0-0.7,0c-0.5,3.4,0,6.8-0.4,10.2c-0.5,1.9-0.6,3.9-0.9,5.8c-0.4,3-0.9,6-1.5,9c-0.3,1.7-0.6,3.3-1.2,4.9
				c-0.9,2.6-1.7,5.3-2.5,8c-0.6,1.9-0.8,3.9-1.9,5.6c-0.2,0.4-0.7,1.1-0.1,1.4c0.5,0.3,1-0.3,1.3-0.7c1.1-1.5,1.8-3.2,2.6-4.8
				C195.4,383.3,195.6,382,196.3,380.8z"/>
			<path class="st14" d="M207.6,360.3c-1.1,3.8-3,7.2-4.4,10.9c-1.6,3.9-3.2,7.9-5.5,11.6c-0.7,1.6-1.7,3-2.6,4.6
				c-0.6,1-1.3,1.9-1.8,2.9c1-0.8,1.8-1.8,2.7-2.7c1.5-1.6,2.5-3.6,3.7-5.5c2.2-3.6,3.7-7.5,5.3-11.4c1.8-4.5,3.4-9.1,4.4-13.8
				c-0.2,0-0.5,0-0.7,0C208.3,357.9,208,359.1,207.6,360.3z"/>
			<path class="st14" d="M266.3,426.6c-2.5-0.9-4.9-2-7.3-3.2c-1.7-0.8-3.3-2-4.8-3.1c-3.1-2.4-6.1-5-8.7-7.9
				c-2.6-2.9-4.9-6.1-7-9.4c-2.3-3.5-4.4-7.2-6.4-11c-0.1,0-0.3-0.1-0.3-0.1c0.7,1.9,1.4,3.8,2.1,5.7c0.8,3.8,3.4,6.8,5,10.3
				c1.2,2.5,3.3,4.3,5.1,6.3c3.6,3.6,7.6,7.1,12.3,9.2c2.2,0.9,4.2,2,6.5,2.8c2.4,0.8,4.9,1.6,7.4,2.2c0.7,0.1,1.3-0.1,2-0.1
				c0-0.1,0-0.3,0-0.4C270.1,427.4,268.2,427.1,266.3,426.6z"/>
		</g>
		<path class="st15" d="M257.2,110.1c-1.8-4-4.4-8.4-8.7-10.1c-0.7-0.3-1,0.8-0.3,1.1c4.1,1.6,6.6,6.2,8.2,10.1
			c1.9,4.4,2.8,9.1,2.8,13.8c0,0.7,1.2,0.7,1.2,0C260.4,119.9,259.3,114.8,257.2,110.1z"/>
	</g>
</g>
</svg>
