<?xml version="1.0" encoding="utf-8"?>
<!-- Generator: Adobe Illustrator 25.2.0, SVG Export Plug-In . SVG Version: 6.00 Build 0)  -->
<svg version="1.1" id="Layer_1" xmlns="http://www.w3.org/2000/svg" xmlns:xlink="http://www.w3.org/1999/xlink" x="0px" y="0px"
	 viewBox="0 0 536 448.2" style="enable-background:new 0 0 536 448.2;" xml:space="preserve">
<style type="text/css">
	.st0{opacity:0.35;}
	.st1{fill:#E1E3EA;}
	.st2{fill:#D0434E;}
	.st3{fill:#FFFFFF;}
	.st4{fill:#764074;}
	.st5{fill:#E56324;}
	.st6{fill:#F2844F;}
	.st7{fill:#F95939;}
	.st8{fill:#C87147;}
	.st9{fill:#B9603C;}
	.st10{fill:#FBBB9E;}
	.st11{fill:#A3343E;}
	.st12{fill:#453730;}
	.st13{fill:#7E7571;}
	.st14{fill:#150F0C;}
	.st15{fill:#B95D38;}
	.st16{fill:#4F2A4D;}
</style>
<g class="st0">
	<path class="st1" d="M484.6,448.2H51.4C23,448.2,0,425.2,0,396.8V135.6c0-28.4,23-51.4,51.4-51.4h433.2c28.4,0,51.4,23,51.4,51.4
		v261.2C536,425.2,513,448.2,484.6,448.2z"/>
</g>
<g>
	<g>
		<path class="st2" d="M273.8,35.4c4.4-2.1,9.3-2.8,14.2-2.8c2,0,4,0.4,6.1,0.8c3.3,0.6,6.3,2.4,9.2,4c3.3,2.2,6.7,4.5,9.2,7.6
			c1.3,1.7,2.7,3.3,3.8,5.1c1.9,3.3,3.3,6.8,4.4,10.4c1.3,4.8,2,9.9,1.1,14.9c2.6-1.4,5.1-3.1,7.3-5.2c0.2-0.3,0.6-0.2,0.9-0.2
			c0.5,2.4,1.3,4.6,2,6.9c0.7,2.2,1.4,4.4,1.7,6.6c0.1,1.3,0.2,2.6,0.3,3.9c1.2-0.9,2.4-1.8,3.5-2.8c0.5-0.4,1-0.9,1.6-1.1
			c0.5-0.1,0.8,0.3,0.9,0.7c0.7,1.7,0.8,3.5,0.9,5.3c0,3.1,0.2,6.3-0.5,9.3c0.4-0.4,0.8-1,1.4-0.8c0.6,0.3,1,1,1.2,1.6
			c1.5,3.6,1.7,7.6,1.6,11.5c-0.1,2.5-0.7,4.8-1.2,7.2c0.6,0,1.2-0.1,1.6,0.4c0.9,1.2,0.8,2.9,0.9,4.4c0.1,2.7-0.9,5.2-1.4,7.7
			c-1,4.4-2.8,8.5-4.1,12.7c-1.1,3.4-2.1,6.9-3.1,10.4c0.3,0.9-0.1,1.9-0.3,2.8c-0.3,1-0.1,2.1-0.2,3.2c-0.3,3.3-0.3,6.7-0.6,10
			c-0.1,2.5-0.4,5.1-1,7.5c-1.4,5.5-4.3,10.6-8.4,14.6c-1.4,1.5-3.3,2.5-5,3.6c-2,1.3-4.4,1.6-6.7,2.2c-4.3,1-8.7,1.9-13.1,2.6
			c-11.4,1.8-22.8,3.3-34.4,3.9c-11.3,0.8-22.7,1-34.1,0c-8.2-0.7-16.4-2.2-24.1-5c-3.8-1.4-7.4-3.5-10.1-6.5
			c-2.7-2.8-4.5-6.4-5.6-10.2c-1.7-5.8-1.8-11.9-1.8-17.9c0-3.8,0-7.6,0.6-11.4c0.3-1.2-0.6-2.1-0.7-3.2c-0.8-4.1-2.5-8-3.7-12
			c-0.6-2-1.3-3.9-1.8-5.9c-1-5.6-2.3-11.3-2.4-17c0-1.6-0.1-3.2,0.2-4.8c0.6-4.1,1.8-8.2,4.2-11.6c1.1-1.6,2.4-3,3.9-4.4
			c-0.3-1.1-0.5-2.2-0.5-3.4c0-1.7-0.1-3.5,0.3-5.2c1.1-6.5,3.9-12.9,8.5-17.7c1.4-1.5,3.1-3,5.3-3c2.3-2.8,5.2-5.2,8.1-7.4
			c3-2.2,6.1-4.3,9.5-6c4.4-2.1,9-3.8,13.8-4.8c2-0.4,4.1-0.9,6.2-1.2c3.6-0.5,7.2-1.1,10.8-1.1c2.9,0,5.9-0.2,8.7,0.6
			c0.6-1.7,1.9-3.1,3.2-4.3C268.2,38.9,270.8,36.8,273.8,35.4z"/>
		<path class="st3" d="M341.2,99C341.3,99.2,341.3,99.2,341.2,99L341.2,99z"/>
		<path class="st4" d="M471.8,449.1c1.2-1.7,2-3.8,2.1-6.1c0.1-1.2,0.1-2.4,0.2-3.6c0.1-1.7-0.5-3.7-1.5-5.3
			c1.1-8.2,0.6-16.6-1.6-24.6c-2.5-9.6-7.3-18.4-13.8-25.8c-6.9-7.9-16.1-13.5-24.7-19.2c-4.4-2.9-8.7-5.8-13.1-8.6
			c-0.7-0.8-1.5-1.6-2.5-2.1c-2.4-1.4-4.9-2.8-7.3-4.2c-1-0.7-2.1-1.3-3.1-2c-7.1-4.6-14.3-9-21.6-13.2c-0.4-0.4-0.9-0.7-1.3-1.1
			c-6.5-5.1-13.7-9.2-20.4-14.2c-3.6-2.7-7.4-5.2-11.2-7.7c-3-2-6-4-9.2-5.8c-1.9-1.1-3.7-2.3-5.5-3.5c-2.3-1.4-4.6-2.7-6.6-4.5
			c-1.5-1.3-3-2.8-4.5-4.1c-1.4-1.2-2.5-2.6-3.9-3.8c-1.1-0.9-2.1-2-3.4-2.6c-2.3-1.1-4.9-0.9-7.3-0.1c-2.9,1-5.9,1.8-8.9,2.6
			c-5.2,1.4-10.4,3-15.6,4.5c-3.6,1.1-7.2,2-10.9,2.6c-4.9,1-9.8,1.8-14.7,2.4c-6.6,0.9-13.3,1.9-20,1.7c-2.4-0.1-4.7-0.1-7.1-0.2
			c-6.2-0.4-12.4-1-18.7-0.5c-0.9-0.8-2.2-1.3-3.4-0.8c-2.7,1.7-4.3,4.5-6.3,6.9c-1.5,1.9-3.2,3.6-4.7,5.5c-1.1,1.5-2.5,2.7-3.7,4
			c-0.5,0.5-1,1-1.7,1.2c-2.8,0.8-5.4,2.2-8,3.5c-8.5,4.3-17,8.8-25.1,14c-3.7,2.5-7.6,4.8-11.5,7.2c-1.1,0.6-2.2,1.3-3.3,1.9
			c-4.9,3.3-10,6.3-15.2,9.3c-1.2,0.9-2.3,1.7-3.4,2.6c-0.7,0.5-1.3,1.1-1.5,1.9c-1.3,0.8-2.7,1.6-4,2.4c-0.9,0.5-1.8,1-2.7,1.5
			c-0.9,0.5-1.7,1-2.6,1.5c-2.8,1.4-5.5,2.8-8.3,4.1c-2.1,1-4.2,2.1-6.3,3.3c-3.7,4.1-8.2,7.6-13,10.5c-0.5,0.5-1,1-1.5,1.6
			c-0.6,0.7-1.2,1.4-1.8,2.2c-0.2,0.2-0.6,0.8-0.7,0.9s-0.6,0.8-0.7,0.9c-2,2.7-3.7,5.5-5.3,8.4c-0.8,1.5-1.5,3-2.2,4.5
			c-0.1,0.2-0.7,1.6-0.7,1.7c-0.3,0.7-0.6,1.5-0.9,2.3c-2.3,6.2-4,12.7-5.4,19.2c-1.9,8.9-3.3,17.9-4.9,26.8L471.8,449.1
			L471.8,449.1z"/>
	</g>
	<g>
		<path class="st5" d="M312.9,95.7c1-0.5,2.1-1,3.2-1c0.4,0.8,0.6,1.6,0.5,2.5c-2.5,2.3-4.6,5-7.1,7.2c-2.7,2.4-5.2,5-7.9,7.3
			c-6.9,5.9-14.2,11.3-22.4,15.3c-3.1,1.4-6.4,2.6-9.7,3.4c-4.1,1.1-8.2,1.5-12.4,1.7c-2.3,0-4.7,0-7.1,0c-5.2,0-10.3-0.6-15.4-1.7
			c-5.4-1.4-10.7-3.1-16.1-4.4c-2-0.5-4.1-0.8-6.1-1.3c0-0.4,0-0.8,0-1.1c0-2,0.2-3.9,0.3-5.8c0.1-0.7,0.1-1.4,0.6-2
			c0.9-0.2,1.9,0.1,2.8,0.1c3.9,0.2,7.7,0.8,11.6,0.5c2.2-0.1,4.4-0.1,6.6-0.1c2.1-0.1,4.2-0.2,6.4-0.2c7.7-0.5,15.4-1.6,23-3.5
			c5.4-1.1,10.6-2.7,15.9-4.1c4.2-1.1,8.3-2.3,12.3-3.9c2.9-1.1,5.6-2.4,8.5-3.6C304.6,99.5,308.8,97.7,312.9,95.7z"/>
		<path class="st6" d="M309.6,104.4c2.5-2.2,4.6-4.9,7.1-7.2c0.3,6.8,2.1,13.4,3.8,19.9c1.7,5.5,3.8,10.9,5,16.6
			c1.3,5.7,2.4,11.4,2.8,17.3c0.2,3.1,0.7,6.2,0.7,9.3c0.2,2.6,0.2,5.2,0.2,7.8c0,2.2,0.1,4.4-0.2,6.6c0-0.4-0.1-0.8-0.1-1.2
			c-1.2,5.2-2.1,10.5-2.9,15.8c-0.9,5.1-2,10.2-3.3,15.3c-0.4,2-1.1,3.8-1.4,5.8c-1,1.6-2.1,3-3.2,4.6c-1.7,2-3.4,4-5.3,5.9
			c-2.5,2.4-4.7,5-7.5,7.1c-0.5-4.5-2.2-8.8-4.5-12.6c-1.8-3-4.7-5.2-7.7-6.8c-2.6-1.2-5.2-2.1-7.9-3c-2.6-0.8-5.3-1.8-8-2.3
			c-2.8-0.6-5.8-0.7-8.7-0.6c1-1,2.2-1.7,3.2-2.6c1.5-1.3,3.7-2.3,4.1-4.5c-1.6,0.6-2.9,1.9-4.4,2.5c-0.9,0.4-1.7,0.9-2.7,1.2
			c-0.7-0.2-1.2-0.7-1.8-1.1c-1-0.7-2.2-1-3.4-1.4c-3-0.9-5.9-2.3-9.1-2.4c-0.9,0.1-1.7-1.1-2.5-0.6c-0.3,0.9,0.1,1.9,0.7,2.6
			c2,2,2.9,4.9,4.5,7.2c-3.1,0.1-6.3,0.7-9.3,1.7c-3.8,1.3-7.5,3.1-10.7,5.4c-4.9,3.6-8.9,8.5-11.6,13.9c-2.8-2.4-5.1-5.4-7.6-8.2
			c-1.8-2.4-3.5-4.8-5.1-7.4c-2.1-3.2-4.1-6.5-6.2-9.7c-1.3-2.3-2.4-4.6-3.7-6.9c-0.3-2.8-0.8-5.7-1.1-8.5c-0.2-1.6-0.1-3.3-0.4-4.9
			c0.2-1.8,0.7-3.6,1.1-5.4c0.7-2.8,1.4-5.7,2.2-8.5c0.6-2,1-3.9,1.5-5.9c1.2-4.5,2.2-9,2.9-13.6c1.1-5.5,1.9-11.1,2.6-16.8
			c0.2-1.6,0.3-3.3,0.5-4.9c0,0.4,0,0.8,0,1.1c2,0.4,4.1,0.8,6.1,1.3c5.4,1.3,10.7,3,16.1,4.4c5,1.1,10.2,1.7,15.4,1.7
			c2.4,0,4.7,0,7.1,0c4.2-0.3,8.4-0.7,12.4-1.7c3.3-0.8,6.6-2,9.7-3.4c8.2-3.9,15.6-9.3,22.4-15.3
			C304.4,109.4,306.9,106.8,309.6,104.4z"/>
		<path class="st7" d="M182.2,148.9c2.2-0.4,4.4,0.1,6.6,0.4c1.5,0.2,3.2,0.8,4.1,2.1c1.8,3.9,2.7,8.1,3.9,12.3
			c0.9,4,1.9,8,3.3,11.9c0.4,1.1,0.9,2.1,1.3,3.2c0.3,1.6,0.2,3.3,0.4,4.9c0.3,2.8,0.8,5.7,1.1,8.5c-0.1,1.1,0,2.3,0.4,3.3
			c0.8,2.2,1,4.5,1.7,6.7c1.3,4.3,2.6,8.5,4,12.7c-0.2,0.1-0.5,0.2-0.7,0.2c0.2,0.4,0.4,0.8,0.6,1.3c-2,0.6-4.1,0.1-6.2,0
			c-2.2-0.3-4.4-0.9-6.5-1.7c-3.4-1.7-6.7-3.8-9.4-6.5c-2-2-3.9-4-5.7-6.2c-3.1-4-5.5-8.5-7.7-12.9c-2.7-5.3-4.8-10.9-5.5-16.8
			c-0.1-2.7-0.1-5.5,0.6-8.2c0.6-2.4,1.4-4.8,2.7-6.9c1.5-2.3,3.2-4.5,5.5-6.1C178.4,150.1,180.3,149.3,182.2,148.9z"/>
		<path class="st7" d="M336.8,152.8c2.1-1,4.5-1.6,6.9-1.6c2.3,0.2,4.7,0.6,6.8,1.7c1.9,1.1,3.4,2.8,4.6,4.7
			c0.7,1.3,1.5,2.7,1.7,4.1c0.4,2,0.8,4,1,6.1c0.1,2.9,0.3,5.8-0.2,8.6c-1.4,7.5-4.9,14.5-9.5,20.5c-1.3,1.9-2.9,3.6-4.6,5.2
			c-4,4.1-8.8,7.3-14,9.7c-2.1,0.9-4.2,2-6.4,2.7c-1.3,0.4-2.6,0.9-3.9,1.2c1.1-1.9,1.7-4,2.8-5.9c0.3-0.5,0.4-1.1,0.6-1.7
			c-0.5,0.7-1.1,1.4-1.5,2.1c0.3-2,1-3.9,1.4-5.8c1.3-5.1,2.4-10.1,3.3-15.3c0.8-5.3,1.8-10.5,2.9-15.8c0,0.4,0.1,0.8,0.1,1.2
			c0,1-0.1,2-0.2,2.9c0.5-2,1.2-3.9,1.8-5.9c0.9-2.8,1.6-5.7,2.6-8.5c1-2.9,1.7-5.9,2.5-8.8c-0.1-0.1-0.3-0.4-0.3-0.5
			c0.4-0.6,0.8-1.1,1.3-1.6C336.7,152.5,336.7,152.7,336.8,152.8z"/>
		<path class="st5" d="M310.7,155.9c1.6-0.3,3.2-0.5,4.8-0.3c-0.1,0.5-0.2,1.1-0.8,1.2c-2.1,0.6-4.2,1.3-6.3,1.7
			c-2.9,0.6-5.9,1-8.9,1.6c-2,0.4-3.9,0.8-5.9,0.9c-2.3,0-4.5,0.2-6.8,0.2c-2.6,0-5.2,0.2-7.8-0.4c-1-0.3-2.1-0.2-3.1-0.3
			c-0.4-0.1-0.4-0.6-0.4-1c1.5,0.2,2.5-0.9,3.9-1.2c3.7-0.9,7.5-1.4,11.3-1.7c2.3-0.1,4.7-0.2,7-0.4c1.3-0.1,2.6,0,3.9-0.1
			c1.7-0.2,3.5-0.3,5.2-0.3C308.1,155.7,309.4,156.1,310.7,155.9z"/>
		<path class="st5" d="M215.5,159.1c4-0.9,8.1-1.2,12.2-1.2c4.7,0.1,9.4,0.5,14.2,1c1.8,0.2,3.6,0.4,5.4,0.7
			c2.4,0.4,4.9,0.1,7.2,0.8c0.4,0,0.4,0.5,0.5,0.8c-0.8,0.1-1.5,0.1-2.3,0.1c-2,0-3.9,0.3-5.9,0.5c-6.6,0.4-13.2,1.4-19.8,0.7
			c-3.7-0.5-7.5-0.8-11.2-1.5c0-0.2,0-0.5-0.1-0.7c-0.3-0.1-0.5-0.3-0.8-0.4C215.1,159.5,215.2,159.1,215.5,159.1z"/>
		<path class="st8" d="M203,192.3c1.2,2.3,2.4,4.6,3.7,6.9c2,3.3,4,6.5,6.2,9.7c1.6,2.6,3.3,5,5.1,7.4c2.4,2.8,4.7,5.8,7.6,8.2
			c2.7-5.5,6.6-10.4,11.6-13.9c3.3-2.3,6.9-4.1,10.7-5.4c3-1,6.1-1.5,9.3-1.7c3.8-0.4,7.6-0.7,11.4-0.8c2.9-0.1,5.8,0,8.7,0.6
			c2.7,0.5,5.4,1.4,8,2.3c2.7,0.9,5.3,1.8,7.9,3c3.1,1.6,5.9,3.8,7.7,6.8c2.3,3.9,3.9,8.2,4.5,12.6c2.8-2.1,5-4.8,7.5-7.1
			c1.9-1.8,3.6-3.8,5.3-5.9c1-1.5,2.2-3,3.2-4.6c0.5-0.7,1-1.4,1.5-2.1c-0.2,0.6-0.3,1.2-0.6,1.7c-1.1,1.9-1.7,4-2.8,5.9
			c-0.1,0-0.3,0-0.5,0c-0.1,2.2-0.6,4.3-1,6.5c-0.5,2.7-1.1,5.3-1.7,8l-0.1,0.1c-0.8,0.8-1.2,1.9-1.8,2.9c-1.8,3.1-3.4,6.3-5.6,9.1
			c-2.5,3.5-5.1,6.9-8.2,10.1c-1.9,1.8-3.7,3.7-5.6,5.5c-2.8,2.3-5.6,4.6-8.7,6.5c-1.7,1.1-3.2,2.3-5,3.2c-1.9,1.1-4,1.7-6.1,2.3
			c-2,0.5-4.1,1.1-6.2,1c-4.8,0.1-9.7-0.4-14.3-2c-2.2-0.9-4.5-1.7-6.6-2.9c-1.7-0.9-3.2-2-4.7-3c-3.3-2.2-6.2-5-9.1-7.8
			c-2.6-2.6-4.6-5.8-6.8-8.8c-1.6-2.3-3.2-4.6-4.7-6.9c-1.4-2.2-2.7-4.5-4-6.7c-1.6-2.7-3.4-5.3-4.8-8.1c-0.9-1.9-2.1-3.6-2.9-5.5
			c-0.6-1.4-1.3-2.8-1.8-4.2c-1.4-4.2-2.8-8.5-4-12.7c-0.7-2.2-1-4.5-1.7-6.7C203,194.5,202.8,193.4,203,192.3z"/>
		<path class="st5" d="M251.8,193.7c0.9-0.5,1.6,0.7,2.5,0.6c3.2,0.1,6.1,1.5,9.1,2.4c1.2,0.4,2.4,0.7,3.4,1.4
			c0.6,0.4,1.2,0.9,1.8,1.1c0.9-0.3,1.8-0.8,2.7-1.2c1.6-0.7,2.8-1.9,4.4-2.5c-0.4,2.2-2.5,3.2-4.1,4.5c-1,0.9-2.2,1.7-3.2,2.6
			c-3.8,0.1-7.6,0.4-11.4,0.8c-1.6-2.3-2.5-5.2-4.5-7.2C251.8,195.6,251.4,194.6,251.8,193.7z"/>
		<path class="st5" d="M208.4,215.2c0.2-0.1,0.5-0.2,0.7-0.2c0.5,1.4,1.2,2.8,1.8,4.2c0.8,1.9,1.9,3.7,2.9,5.5
			c1.5,2.8,3.2,5.4,4.8,8.1c1.3,2.2,2.6,4.5,4,6.7c1.5,2.3,3.1,4.6,4.7,6.9c2.2,3,4.2,6.2,6.8,8.8c2.8,2.8,5.7,5.6,9.1,7.8
			c1.5,1.1,3,2.2,4.7,3c2.1,1.2,4.4,1.9,6.6,2.9c4.6,1.6,9.5,2.1,14.3,2c2.1,0.1,4.2-0.5,6.2-1c2.1-0.6,4.2-1.2,6.1-2.3
			c1.7-0.9,3.3-2.1,5-3.2c3.1-1.9,5.9-4.2,8.7-6.5c2-1.7,3.8-3.6,5.6-5.5c3-3.1,5.7-6.5,8.2-10.1c2.2-2.8,3.8-6,5.6-9.1
			c0.6-1,0.9-2.1,1.8-2.9c-0.4,1.8-0.9,3.7-1.5,5.4c-1.3,1.8-2.3,3.9-3.7,5.7c-2.6,3.5-5.2,7.1-8.3,10.3c-1.2,1.4-2.6,2.5-3.7,4.1
			c-1,1.4-2,2.9-2.9,4.4c-1.5,2.3-3.1,4.5-4.6,6.8c-2.1,3.6-4.3,7.1-6.5,10.6c-2.9,4.3-5.6,8.7-9.1,12.5c-1.1,1.2-2.6,2.1-3.6,3.5
			c-1.7,2.2-3.2,4.5-4.8,6.7c-1,1.4-2,2.9-3.5,3.8c-3,1.8-7.3,0.8-9.5-1.9c-1.3-1.6-2.7-3.1-4.2-4.4c-0.8-0.7-2-0.7-3.1-0.7
			c-2.7-0.1-5.4-0.9-7.9-1.7c-1.7-0.6-3.2-1.4-4.8-2.2c-5.6-2.7-10.7-6.3-15.5-10.2c-1.6-1.3-3.3-2.6-5.2-3.6
			c0.2-2.9,0.5-5.8,0.5-8.8c0-6.4-0.2-12.7-0.8-19c-0.6-6-1.8-12-2.5-18c-0.5-4.6-1.5-9.1-1.9-13.7c-0.2-1.1,0-2.3-0.2-3.4
			C208.8,216.1,208.6,215.6,208.4,215.2z"/>
		<path class="st6" d="M310.9,241.4c1.3-1.8,2.3-3.9,3.7-5.7c-0.3,1.9-0.8,3.8-1,5.7c-0.3,2-0.4,3.9-0.5,5.9
			c0.1,2.8-0.3,5.6-0.2,8.4c-0.2,2.7,0,5.5,0,8.2c0.2,3.3,0.2,6.5,0.6,9.8c0.7,5.7,2.1,11.3,4.2,16.6c0.2,0.6,0.4,1.2,0.4,1.8
			c0.1,1.1,0.6,2.2,0.2,3.3c-1,2.6-3.1,4.7-4.6,7c-2.4,3.1-5.2,5.7-7.8,8.5c-3.4,3.4-7,6.5-10.9,9.4c-3.3,2.4-6.9,4.3-10.6,6
			c-6.9,3.1-14.4,4.4-21.9,4.9c-1.9,0.2-3.8-0.1-5.7-0.1c-2.3,0-4.7-0.4-7-0.8c-3.2-0.6-6.3-1.9-9.4-3c-4-1.4-7.5-3.8-11.3-5.5
			c-2-1-4-2.1-5.9-3.2c-1.6-1-3-2.2-4.5-3.2c-3.5-2.7-6.8-5.9-8.4-10.1c-0.1,0-0.4-0.1-0.5-0.1c-0.4-1.7,0.6-3.2,0.8-4.9
			c1.5-6.8,2.5-13.8,3.1-20.8c1.9,1,3.6,2.2,5.2,3.6c4.8,3.9,10,7.4,15.5,10.2c1.6,0.8,3.1,1.7,4.8,2.2c2.6,0.9,5.2,1.7,7.9,1.7
			c1,0.1,2.2,0,3.1,0.7c1.6,1.3,2.9,2.9,4.2,4.4c2.2,2.7,6.4,3.7,9.5,1.9c1.5-0.9,2.4-2.4,3.5-3.8c1.6-2.2,3.1-4.6,4.8-6.7
			c1-1.4,2.4-2.2,3.6-3.5c3.5-3.8,6.2-8.2,9.1-12.5c2.2-3.5,4.4-7,6.5-10.6c1.4-2.3,3.1-4.5,4.6-6.8c0.9-1.5,1.9-2.9,2.9-4.4
			s2.5-2.7,3.7-4.1C305.6,248.5,308.2,245,310.9,241.4z"/>
	</g>
	<g>
		<g>
			<path class="st9" d="M265.3,139.1c0.3,0,0.5,0,0.8,0c1.1,2.3,0.8,4.9,0.9,7.4c0,2.1,0.1,4.2-0.3,6.3c-0.1,0-0.3,0-0.5,0
				c0.1-2.6-0.2-5.3-0.3-7.9C265.8,142.9,265.7,141,265.3,139.1z"/>
			<g>
				<path class="st10" d="M294.5,38.1c3.4,1.1,6.8,2.5,9.9,4.4c1.6,1,2.9,2.2,4.3,3.4c0-0.1,0.1-0.3,0.2-0.4
					c-1.8-2.1-4.1-3.6-6.5-4.9c-3.4-1.8-7-3.5-10.8-4.2c-2.7-0.6-5.8-0.7-8.4,0.5c-0.1,0.2-0.1,0.4-0.2,0.7
					C286.8,36.6,290.8,37,294.5,38.1z"/>
				<path class="st11" d="M307.6,57.3c-1.6-3.7-3.9-7.1-6.9-9.7c-2.2-1.8-4.6-3.4-7-4.8c-1.4-0.8-2.8-1.7-4.4-2.1
					c1.7,1.3,3.7,2.4,5.5,3.6c2.4,1.7,4.8,3.3,6.8,5.4c3,3.2,5.2,7.1,6.4,11.3c1.1,4,1.7,8.1,1.7,12.2c0,2.9-0.2,5.8-0.6,8.7
					c-0.2,1.3-0.7,2.6-1,3.9c0.3-0.4,0.7-0.8,0.8-1.2c0.8-2.2,1.1-4.5,1.3-6.8c0.2-2.8,0.4-5.6,0.2-8.4
					C310,65.3,309.2,61.2,307.6,57.3z"/>
				<path class="st11" d="M296.8,54.7c-1.9-2.9-4.5-5.2-7.2-7.3c-1.7-1.3-3.4-2.6-5.4-3.5c-2-0.8-4-1.3-6-1.9
					c-1.8-0.6-3.7-1.3-5.6-1.1c-0.5,0-0.8,0.2-1.2,0.4c1,0,2-0.1,3,0.2c1.5,0.4,2.9,0.9,4.3,1.4c2.4,0.8,4.9,1.3,7.1,2.7
					c1.7,1.1,3.4,2.4,5,3.7c4.8,3.9,8.4,9.2,9.8,15.2c1,3.9,1,8,0.7,12c-0.2,3.9-0.6,7.9-2,11.7c0.8-0.9,1-2.1,1.3-3.2
					c0.7-3.2,1-6.5,1.2-9.8c0-3.1,0.2-6.2-0.4-9.2C300.7,61.9,299.1,58.1,296.8,54.7z"/>
				<path class="st11" d="M291.9,58.8c-1.1-1.5-2.1-3.1-3.5-4.5c-2-2.1-4.3-3.9-6.9-5.1c-3-1.6-6.2-2.9-9.5-3.9
					c-2.6-0.7-5.4-1.1-8-0.3c0,0.2,0,0.5,0.1,0.7c1.6,0.1,3.3-0.1,4.9,0.3c4.6,1.1,9,3,13.3,5.1c1.9,1.1,3.6,2.4,5.2,3.9
					c1.3,1.3,2.4,2.8,3.5,4.2c1.7,2.6,2.8,5.6,3.5,8.6c0.5,3.6,0.4,7.4,0,11c-0.5,2.2-0.9,4.4-1.5,6.6c-0.6,2-1.1,4-1.8,6
					c-0.3,1-0.8,2-1,3c-0.6,1.3-1.2,2.5-1.3,3.9c1-0.8,1.4-2.1,1.7-3.3c0.8-1.6,1.4-3.3,2-5c1.5-4.8,3-9.7,3.2-14.8
					c0.2-1.5,0.2-3,0-4.5C295.5,66.6,294.1,62.4,291.9,58.8z"/>
				<path class="st11" d="M257.7,54.2c1,0.8,1.9,1.7,3.2,2c-1.1-1-2.4-1.8-3.4-2.9c-1.6-1.4-3-3.1-4.9-3.9c-1.3-0.5-2.6-1.2-4-1.3
					c1.5,1.1,3.4,1.6,4.9,2.6C255,51.8,256.3,53.1,257.7,54.2z"/>
				<path class="st11" d="M280.8,64.1c-1.7-3-4.2-5.5-6.8-7.7c-2.7-2.3-5.8-4.2-8.8-6.2c-0.9-0.6-1.9-1.2-3-1.4
					c0.9,1,2.1,1.6,3.1,2.4c1.5,1.1,3.2,2.1,4.7,3.2c3.3,2.3,6.4,5,8.9,8.1c2.6,3.2,4.1,7.1,5.5,10.9c0.5,1.5,0.9,3,1.4,4.5
					c-0.2-1.8-0.8-3.4-1.3-5.1C283.5,69.8,282.4,66.8,280.8,64.1z"/>
				<path class="st10" d="M270.9,60.6c1.4,1.3,2.6,2.9,3.7,4.4c0.2-0.1,0.4-0.2,0.6-0.2c-0.8-2-2.3-3.7-3.8-5.2
					c-2.2-2.2-4.4-4.4-7-6.2c-1.3-0.8-2.7-1.8-4.2-2.1c0.2,1.2,1.4,1.8,2.3,2.4C265.5,55.8,268.3,58.1,270.9,60.6z"/>
				<path class="st10" d="M247.8,65.1c-1.1-2.6-2.1-5.2-3.5-7.6c-0.6-1.1-1.3-2.2-2.2-3.1c-0.2-0.2-0.6-0.5-0.9-0.2
					c0.7,1.4,1.7,2.6,2.3,4c3.6,7.1,6.5,14.6,8.3,22.3c0.2-0.2,0.7-0.2,0.5-0.6C251.3,74.9,249.7,69.9,247.8,65.1z"/>
				<path class="st11" d="M266.5,86.3c0-4.4-0.2-8.8-1.4-13c-0.7-2.2-1.9-4.3-2.9-6.4c-1.6-3.1-3.9-5.7-6.5-8c-0.9-0.8-2-1.4-3-2.2
					c-0.9-0.7-1.6-1.7-2.6-2.4c1.3,1.7,2.7,3.2,4.4,4.5c1,0.8,1.7,1.8,2.5,2.7c1.6,1.7,3,3.6,4.2,5.6c1.4,2.7,2.8,5.4,3.5,8.3
					c1,4.3,1.1,8.8,0.9,13.2c-0.2,4.3-0.7,8.6-1.9,12.8c-0.9,3.5-2.1,7-4,10.1c-0.5,0.8-1.2,1.5-1.8,2.3c0.6-0.2,1.3-0.5,1.6-1.1
					c1.4-2,2.6-4.1,3.4-6.4c0.8-2.4,1.5-4.8,2.1-7.2C265.8,95,266.4,90.6,266.5,86.3z"/>
				<path class="st11" d="M245.1,83c-1.3-4.4-2.8-8.7-4.5-13c-1.5-3.6-3.2-7.1-5.3-10.4c-1-1.6-2.1-3.1-3-4.7c-0.2,0-0.4,0-0.6,0
					c0.5,1.8,1.7,3.4,2.7,5c2.2,3.5,4.2,7.2,5.7,11.1c3.2,7.8,5.6,15.9,7.5,24.1c0.7,2.9,1.2,5.9,1.9,8.8c0.1,0,0.4,0,0.5,0
					c-0.4-1.9-0.7-3.8-1-5.7C247.9,93.1,246.6,88,245.1,83z"/>
				<path class="st10" d="M231.9,75.5c1.4,3,2.9,6,4.9,8.7c0.8,1.1,1.6,2.3,2.8,2.9c-0.3-0.7-0.6-1.3-1.1-1.9
					c-1.9-2.3-3.2-4.9-4.5-7.6c-2-4-3.6-8.3-4.9-12.6c-0.5-1.9-1.1-3.7-1.2-5.7c-0.1,0-0.4,0-0.6,0c-0.2,1-0.2,1.9,0,2.9
					C228.2,67,229.9,71.3,231.9,75.5z"/>
				<path class="st11" d="M220.1,71c2,6.8,5.4,13.1,9.4,19c2.7,3.9,5.4,7.8,8.7,11.3c0.8,0.9,1.7,1.8,2.8,2.3
					c-0.4-0.9-1.3-1.5-1.9-2.2c-3.4-3.7-6.3-7.9-9.1-12c-4.4-6.6-7.8-13.9-9.8-21.6c-0.7-2.5-0.9-5.1-1-7.7c-0.7,0.9-0.7,2-0.7,3.1
					C218.7,65.7,219.3,68.4,220.1,71z"/>
				<path class="st11" d="M270.2,70.5c-0.8-1.7-1.9-3.1-2.8-4.7c-0.6-1.1-1.2-2.3-1.9-3.3c-1.1-1.7-2.3-3.5-4.1-4.7
					c0.2,0.9,0.9,1.5,1.4,2.2c0.8,1,1.4,2.1,2.2,3.1c0.6,1,1.1,2.1,1.6,3.1c0.8,1.8,2,3.5,2.9,5.3c1.8,3.7,2.6,7.9,2.7,12
					c0.4,4.6,0.3,9.3-0.7,13.8c-0.6,2.7-1.4,5.4-2.1,8c-0.6,1.1-1.1,2.3-1.7,3.4c-0.7,1.2-1.7,2.2-2.3,3.5c2.1-1.6,3.2-4,4.4-6.3
					c2-4.9,3.3-10.1,3.6-15.3c0.3-3.6-0.1-7.2-0.3-10.8C272.8,76.5,271.7,73.3,270.2,70.5z"/>
				<path class="st11" d="M235.3,107.8c-4.6-1.7-8.9-4.1-13-6.7c-1.8-1-3.4-2.2-4.9-3.5c-2.3-1.7-4.1-3.9-6-6.1
					c-2.2-2.5-3.8-5.5-4.8-8.6c-0.7-2.2-1.4-4.4-1.7-6.7c-0.1-1.9-0.1-3.9,0.3-5.8c0.3-1.7,0.9-3.3,1-5c-0.1,0-0.4,0-0.6,0
					c-0.2,0.5-0.3,1-0.5,1.6c-1.4,4.1-1.7,8.7-0.5,12.9c0.7,2.7,1.6,5.3,2.9,7.7c1.6,3,3.9,5.5,6.1,8c1.3,1.5,3,2.7,4.5,3.9
					c1.6,1.4,3.6,2.3,5.4,3.5c2.7,1.8,5.6,3.3,8.6,4.6c1.8,0.8,3.8,1.2,5.7,1.8c1.4,0.4,2.8,0.8,4.3,1.1c0-0.1-0.1-0.4-0.1-0.5
					C239.7,109.3,237.5,108.6,235.3,107.8z"/>
				<path class="st10" d="M221.1,92.2c0.5,0.5,1.2,0.9,1.9,1.1c-0.3-0.4-0.6-0.8-0.9-1.2c-2.5-2.5-3.9-5.7-5.2-8.9
					c-1.4-3.9-2.6-8-3.1-12.2c-0.2-1.8,0-3.5-0.1-5.3c-0.9,0.8-0.9,2.1-0.9,3.3c-0.1,4.1,1.1,8.1,2.3,12
					C216.6,84.9,218.2,89,221.1,92.2z"/>
				<path class="st11" d="M206.9,96.6c-4.2-5.6-6.2-12.7-5.9-19.6c0.4-1,0.2-2.1,0.5-3.1c0.2-0.7,0.4-1.3,0.4-2
					c-0.6,0.5-1.1,1.1-1,1.9c-0.6,3.3-0.9,6.7-0.3,10c0.8,4.6,2.6,9,5.3,12.9c1.9,2.8,4.2,5.2,6.8,7.2c2,1.5,4.2,2.5,6.4,3.6
					c0.5,0.2,1,0.5,1.6,0.7c0.8,0.6,1.8,0.9,2.8,1.4c0.6,0.3,1.3,0.6,2,0.6c-1.3-1.1-2.9-1.6-4.4-2.4
					C215.7,105.2,210.5,101.6,206.9,96.6z"/>
				<path class="st11" d="M321,75.2c-0.6,1.8-0.8,3.6-1.4,5.4c-1.5,4.4-3.7,8.6-6.1,12.6c0.4-0.2,0.8-0.3,1-0.7
					c1.5-1.9,2.6-4.1,3.8-6.2c1.9-3.4,3.3-7.3,3.3-11.2C321.4,75.2,321.2,75.2,321,75.2z"/>
				<path class="st11" d="M320.9,97.6c0.9-0.9,1.7-1.9,2.3-3c1.4-2.6,2.7-5.3,3.7-8c0.8-2.1,1.7-4.3,1.6-6.6c-0.1,0-0.4,0-0.6,0
					c-1,4.4-2.6,8.6-4.5,12.7c-0.8,1.7-1.8,3.3-3,4.7C320.6,97.4,320.8,97.5,320.9,97.6z"/>
				<path class="st11" d="M281.2,81.1c-0.6-2.4-2-4.4-3.1-6.5c-0.9-1.6-2-3.1-3.1-4.6c-0.3-0.4-0.6-0.7-1-1.1c0.2,1.1,1,2,1.6,3
					c1.3,1.8,2.3,3.8,3.4,5.7c0.8,1.4,1.2,2.9,1.8,4.4c0.8,3.3,1.5,6.7,1.5,10.2c0,2.1,0.1,4.3-0.1,6.4c-0.3,2.5-0.9,4.9-1.6,7.2
					c-0.5,0.8-1,1.6-1.1,2.5c0.6-0.5,1.1-1.2,1.5-1.9c0.8-1.5,1.4-3.1,1.8-4.7c0.8-3.1,0.6-6.4,0.6-9.6
					C283.2,88.4,282.4,84.7,281.2,81.1z"/>
				<path class="st11" d="M331.9,92.3c0.4-1.2,0.9-2.5,0.7-3.8c-0.1,0-0.3,0-0.4,0c-0.4,1-0.7,2.1-1.1,3.1c-1,2.8-2.5,5.4-3.9,7.9
					c-2.3,4-5.1,7.6-7.8,11.2c1.3-0.7,2.2-2,3.2-3.2c2-2.6,4.1-5.2,5.8-8.1C329.6,97.2,331,94.8,331.9,92.3z"/>
				<path class="st11" d="M203.6,110.6c-1.5-1-2.4-2.6-3.6-3.9c-1.5-1.5-2.7-3.4-3.9-5.2c-1.4-2.1-2.2-4.6-3.2-6.9
					c0,0.7-0.1,1.3,0,2c0.7,3.2,2.3,6.1,4.2,8.7c1,1.4,2.3,2.4,3.3,3.7c0.6,0.8,1.3,1.5,2.2,2.1c1.7,1.2,3.6,2.2,5.6,3.1
					c1.7,0.8,3.7,1.8,5.6,1.2c0-0.1,0-0.3,0-0.3c-2.1-0.2-3.9-1.2-5.8-2C206.4,112.5,205,111.6,203.6,110.6z"/>
				<path class="st11" d="M335.2,108c1.5-2.5,2.9-5.1,3.4-8.1c-0.2,0-0.5,0-0.6,0c-1.3,3.4-2.9,6.7-5,9.7c-2.9,4.1-6.3,7.8-9.5,11.5
					c0,0.1,0.1,0.4,0.2,0.5c1.6-1.4,3-3.1,4.5-4.7C330.6,114.2,333.2,111.3,335.2,108z"/>
				<path class="st11" d="M195,109.4c-2.6,4.2-3.4,9.2-3.5,14.1c-0.1,1.8,0.3,3.6,0.2,5.4c0.2,1.7,0.2,3.5,0.6,5.1
					c0,1.7,0.5,3.3,1,4.9c0.1,0,0.4,0.1,0.5,0.1c-0.5-2-0.8-4-1.1-6.1l-0.1,0.1c-0.2-0.9,0-1.9-0.2-2.8c-0.1-2.7-0.1-5.4,0-8.1
					c0.4-4.4,1.4-8.8,3.7-12.6c0.4-0.7,1.2-1.4,1-2.3C196.2,107.8,195.5,108.6,195,109.4z"/>
				<path class="st11" d="M213.2,107.6c-2.8-1-5.6-2.1-8-4c-1.4-1.1-2.7-2.5-3.6-4.1c-2.3-3.7-3.8-7.8-4.5-12.1
					c-0.2-1.4,0.1-2.8,0.1-4.2c-0.3,0.5-0.6,1-0.7,1.6c-0.5,3.1,0.2,6.2,1.2,9c1.1,3.1,2.6,6.1,4.8,8.6c1.8,2.2,4.4,3.5,7,4.6
					c1.1,0.4,2.3,0.9,3.5,1.1c0.7,0.3,1.5,0.4,2.3,0.5C215,107.7,213.9,107.7,213.2,107.6z"/>
				<path class="st11" d="M203.6,115.5c-1,1-1.6,2.2-2.2,3.5c-1.8,4-2.4,8.5-2.2,12.9c0.2,2.7,0.4,5.4,1.1,8c0.2,1,0.5,2,1.3,2.7
					c0.2-1.1-0.3-2.1-0.7-3c-1.3-6.8-1.2-14.2,1.6-20.7c0.5-1.3,1.4-2.5,2.1-3.8C204.3,115.2,203.9,115.2,203.6,115.5z"/>
				<path class="st11" d="M341,119.1c-1,2-2.1,4-3.4,5.9c-1.3,2-3,3.7-4.6,5.4c-1.3,1.2-2.6,2.5-4,3.6c-0.3,0.2-0.7,0.3-1,0.5
					c0,0.2,0,0.5,0,0.7c0.4-0.2,0.8-0.4,1.3-0.7c2-1.6,4-3.2,5.7-5.1c3.2-3.2,6.2-7.1,7.2-11.7C341.7,118.1,341.3,118.5,341,119.1z"
					/>
				<path class="st11" d="M208,122.9c-1.7,4.3-2.3,9-2.8,13.6c-0.3,2.8-0.6,5.7-0.4,8.6c0.1,0,0.4,0,0.5,0c0-0.7,0-1.5,0.1-2.2
					c0.4-4.6,0.9-9.2,1.8-13.7c0.6-3,1.3-6,2.8-8.7C208.8,120.7,208.4,121.9,208,122.9z"/>
			</g>
			<path class="st10" d="M237.7,142.4c1.6-0.7,3.4-0.7,5.1-0.6c2.6,0.2,5.2,0.7,7.8,1.3c1.2,0.3,2.4,0.7,3.5,1.3
				c0.5,0.3,1,0.7,1.1,1.3c-0.3,0.4-0.8,0-1.2-0.1c-2.1-1.1-4.4-1.4-6.7-1.7c-3.4-0.5-6.8-0.8-10.2-0.5
				C237.2,143,237.3,142.5,237.7,142.4z"/>
			<path class="st12" d="M282.5,147.6c3.6-1.4,7.5-1.7,11.4-1.6c6.8,0.3,13.7,1.6,20.1,4.1c2.9,1.2,5.8,2.4,8.2,4.5
				c0.3,0.3,0.9,0.6,1,1.1c-2.8,0-5.5,0-8.3,0.1c-3.9,0.3-7.8,0.7-11.7,0.9c-3.3,0.2-6.7,0.6-10,0.9c-2.6,0.2-5.3,0.5-7.9,0.9
				c-2.7,0.5-5.5,1.1-8.2,1.7c-0.7,0.1-1.7,0.3-2.2-0.3s-0.4-1.5-0.5-2.2c-0.2-1.5,0.1-3.1,0.6-4.6c0.1-0.4,0.5-0.5,0.8-0.8
				c-0.2,1.7-0.4,3.3-0.2,5c0.2-1.4,0.6-2.8,1.1-4.2C277.7,150.7,279.9,148.6,282.5,147.6z"/>
			<path class="st13" d="M233.6,148.8c2.8-0.3,5.6-0.4,8.3,0C239.1,148.8,236.3,148.9,233.6,148.8z"/>
			<path class="st12" d="M227.8,149.8c1.9-0.5,3.8-0.8,5.7-0.9c2.8,0,5.5,0,8.3,0c2.6,0.2,5.3,0.6,7.9,1.3c2.3,0.6,4.2,2,5.6,3.8
				c-0.1-0.6-0.1-1.2-0.1-1.8c0.4,0,0.8,0.2,0.9,0.6c0.4,1,0.3,2.1,0.5,3.2c0.1-0.7,0.1-1.5,0.2-2.3c0.2,0.1,0.4,0.2,0.6,0.3
				c0.3,0.9,0.2,1.8,0.2,2.7c-0.2,1.3-0.3,2.7-0.8,3.9c-1.5,0.4-3.1,0.1-4.7,0c-4.1-0.5-8.1-0.8-12.2-0.9c-3.5-0.2-7-0.1-10.5-0.3
				c-5-0.1-10,0-15,0.4c-1.1,0-2.1,0.1-3.2-0.1c0-0.8,0.7-1.3,1.2-1.9c1.5-1.7,3.5-2.9,5.4-4.1C221,151.8,224.4,150.7,227.8,149.8z"
				/>
			<path class="st10" d="M179.6,157.7c0.8,0,1.6-0.1,2.3,0.2c1.4,0.6,2.5,1.6,3.6,2.6c2,1.9,3.9,4.3,4.7,7c-0.2,0-0.5,0.1-0.6,0.1
				c-1.8-3.3-4.4-6.1-7.6-8.1c-0.7-0.5-1.5-0.8-2.4-1.1C179.6,158.1,179.6,157.9,179.6,157.7z"/>
			<path class="st9" d="M319,161.9c1.3-0.4,2.5-1,3.8-1.5c-0.3,0.9-1.2,1.3-2,1.7c-1.8,0.8-3.6,1.5-5.4,2.1c-1,0.3-2,0.3-3,0.3
				c0-0.1,0.1-0.3,0.1-0.5C314.6,163.2,316.9,162.6,319,161.9z"/>
			<path class="st9" d="M272.9,160.9c0.2,0,0.4,0,0.7,0c0,4.3,0.5,8.6,1.5,12.8c0.4,1.7,1,3.2,1.8,4.8c-0.1,0-0.4,0-0.5-0.1
				c-1.9-3.2-2.6-6.8-3.2-10.4C272.7,165.6,272.8,163.2,272.9,160.9z"/>
			<path class="st9" d="M259.6,161.3c0.2,0,0.5,0.1,0.6,0.1c0.6,3.3-0.2,6.6-0.8,9.8c-0.7,3.1-1.4,6.1-2.5,9.1
				c-0.2,0-0.4,0.1-0.6,0.1c1.2-3.2,1.7-6.6,2.4-10C259.1,167.3,259.8,164.3,259.6,161.3z"/>
			<path class="st14" d="M300,161.7c0.8-0.2,1.7,0,2.4,0.3c1.3,0.6,1.7,2.2,1.5,3.5s-0.8,2.8-2.2,3.3c-1.1,0.5-2.6-0.1-2.9-1.3
				C298.3,165.5,298.9,163.3,300,161.7z"/>
			<path class="st14" d="M231,162c0.9-0.3,2-0.3,2.7,0.3c1.3,1,1.5,2.9,1.1,4.4c-0.4,1.4-1.8,2.8-3.4,2.5c-1.9-0.4-2.8-2.6-2.3-4.3
				C229.4,163.8,230,162.6,231,162z"/>
			<path class="st9" d="M211.9,162.8c1.7,1.8,4.3,2.2,6.6,2.6c0.8,0.2,1.8,0.1,2.3,0.9c-2.2,0-4.4-0.4-6.5-1
				C213.1,165,211.6,164.2,211.9,162.8z"/>
			<path class="st9" d="M300.7,170.8c2.7-0.2,5.4-0.7,7.8-1.9c0,0.3,0,0.5,0,0.8c-1.8,1.1-3.8,1.6-5.9,2.1c-2.1,0.4-4.3,0.7-6.3-0.1
				c-0.4-0.1-0.5-0.5-0.6-0.8C297.3,170.7,299,171,300.7,170.8z"/>
			<path class="st9" d="M237.4,170.2c1-0.3,2-0.8,3-1c-0.1,0.3-0.1,0.7-0.5,0.9c-2.1,1.2-4.5,1.8-6.9,2.1c-2,0.3-4.1,0.3-6-0.5
				c0.5-0.9,1.5-0.6,2.3-0.6C232,171.3,234.8,171,237.4,170.2z"/>
			<path class="st10" d="M294.3,175.5c4.1,0.1,8.4,0.4,12.4-0.8c0,0.3,0.2,0.8-0.2,1c-1.2,0.8-2.7,0.9-4.1,1.2
				c-2.6,0.3-5.3,0.6-7.9,0.5c-0.7,0-1.4-0.1-2.1-0.3c-0.4-0.2-0.5-0.9-0.1-1.1C292.9,175.5,293.7,175.5,294.3,175.5z"/>
			<path class="st10" d="M266,177.6c0.4,0,0.8-0.1,1.1,0.2c0.3,0.4,0.4,0.9,0.4,1.4c0.4,2.8-0.1,5.6,0.2,8.4c0,0.4,0.1,0.8,0,1.2
				c-0.2,0.2-0.4,0.3-0.6,0.5c-0.5-0.9-0.8-1.8-0.9-2.8C265.8,183.5,265.7,180.5,266,177.6z"/>
			<path class="st10" d="M223.3,178.6c3,0.1,5.9,0.7,8.8,1.2c1,0.2,2.1,0.3,3.1,0.8c0.4,0.2,0.5,0.6,0.8,0.9c-0.5,0-1,0.1-1.5,0
				c-3-0.5-6-0.7-8.9-1.3c-0.9-0.2-1.6-0.5-2.4-0.9C223.2,179,223.3,178.7,223.3,178.6z"/>
			<path class="st7" d="M298.9,180.9c2.5-0.5,5,0,7.4,0.4c3.1,0.7,5.6,2.9,7.1,5.7c2.5,4.7,3.1,10.5,0.9,15.3
				c-1.4,3.4-4.3,6.2-7.7,7.5c-2.5,1.2-5.4,1-8,0.4c-2.3-0.7-4.6-1.7-6.2-3.5c-1.6-1.9-3.3-3.8-4-6.2c-0.8-2.2-0.8-4.6-0.6-6.9
				c0.2-1.9,0.9-3.7,1.7-5.5C291.2,184.3,294.9,181.6,298.9,180.9z"/>
			<path class="st7" d="M226.5,183.6c1.5-0.3,3-0.1,4.5,0.1c3.6,0.5,6.8,2.6,9.4,5.2c2.6,2.5,4,6.3,3.6,9.9
				c-0.3,2.7-0.8,5.5-2.2,7.9c-2,3.4-5.2,6.4-9.1,7.2c-2,0.4-4,0.8-6,0.5c-2.5-0.3-5-1.1-7-2.7c-2.4-2-4-4.8-5.2-7.7
				c-0.9-2.2-0.8-4.6-0.3-6.8c0.6-2.8,2-5.3,3.6-7.6C219.6,186.5,222.8,184.3,226.5,183.6z"/>
			<path class="st9" d="M202.5,191.2c0.3,0.5,0.5,1.1,0.7,1.7c1.6,8,4.1,15.8,7,23.4c0.8,1.9,1.9,3.6,2.7,5.4
				c1.3,2.7,2.7,5.4,4.2,8.1c3.4,6.6,7.6,12.9,12.1,18.9c1.1,1.6,2.2,3.1,3.4,4.5c1.7,1.8,3.2,3.7,5.1,5.3c1.2,1,2.4,2.2,3.8,3
				c2.2,1.4,4.4,2.9,6.8,4.2c1.6,1,3.4,1.6,5.1,2.4c3.4,1.6,7.1,2.4,10.8,2.9c1.2,0.2,2.5,0.5,3.7,0.5c0.6-0.1,1.2-0.5,1.9-0.5
				c6.3-0.3,12.5-2.8,17.5-6.7c3.1-2.2,6.2-4.5,8.9-7.2c3.1-3.3,6.4-6.4,9.1-10c2.6-3.7,5.2-7.4,7.1-11.5c1.8-3.6,2.7-7.4,4.1-11.1
				c1.2-3.2,1.7-6.6,2.9-9.9c0.1-0.4,0.4-0.7,0.7-0.9c0.2,1.6-0.4,3.1-0.7,4.6c-0.7,2.7-1.7,5.4-2.3,8.1c-0.6,2-1.4,3.8-1.9,5.8
				c-0.4,1.6-1.2,3.2-1.9,4.7c-1.1,2.1-2,4.4-3.4,6.3c-1.2,1.8-2.4,3.6-3.9,5.2c-2.5,2.8-4.8,5.6-7.5,8.2c-3,3.2-6.5,5.8-10.1,8.3
				c-1.9,1.4-3.7,2.8-5.9,3.7c-3.9,1.8-8,3.5-12.4,3.6c-1.1,0-2.3,0.2-3.4,0.3c-2.8,0-5.6-0.5-8.4-1.2c-3.6-0.6-7-2.3-10.3-3.8
				c-2.3-1-4.3-2.5-6.4-3.8c-3.4-2.1-6.5-4.7-9.1-7.7c-1.5-1.5-2.8-3.1-4-4.9c-2.7-3.7-5.1-7.6-7.7-11.4c-1.8-2.7-3.1-5.7-4.7-8.5
				c-2.7-5.5-5.4-11-7.7-16.6c-1.9-4.3-3.2-8.8-4.4-13.3c-0.6-2.7-1.4-5.5-1.8-8.3C202.4,192.3,202.5,191.7,202.5,191.2z"/>
			<g>
				<path class="st11" d="M348.9,162.8c-1.6,0.3-2.9,1.3-4.1,2.3c-3.1,2.8-5.7,6.1-7.8,9.7c-1.9,3.3-3.6,6.8-4.8,10.4
					c-0.9,2.5-1.3,5.2-1.6,7.8c0.2,0,0.5,0,0.7,0c0.5-2.6,1-5.2,2-7.7c1.5-4,3.5-7.8,5.9-11.4c2.3-3.1,4.8-6.1,7.7-8.6
					c0.8-0.8,1.9-1.2,2.7-2C349.7,162.9,349.2,162.7,348.9,162.8z"/>
				<path class="st11" d="M193.3,185.9c-1.6-4.3-3.1-8.6-5.2-12.7c-1.3-2.5-2.8-4.9-4.9-6.9c-1.3-1.2-3.1-2.3-4.9-1.8
					c0,0.2,0,0.5,0,0.7c1.4,0.4,2.7,1.2,3.7,2.2c2.8,2.7,4.8,6.1,6.5,9.6c2.9,6,5,12.4,7.1,18.8c0.2,1.1,0.4,2.1,0.7,3.2
					c0,0.3,0.4,0.7,0.6,0.4c0.3-1.2-0.2-2.5-0.6-3.6C195.6,192.4,194.5,189.1,193.3,185.9z"/>
			</g>
			<path class="st15" d="M280.6,189.3c-1.9,2.7-4.7,4.4-7.4,6.2c-1.1,0.7-2.3,1.6-3.6,1.8c-1.3,0.2-2.4-0.4-3.6-0.7
				c-3.3-1.1-6.6-1.9-10-2.4c-1.1-0.2-2.3-0.4-3.3-1.1c-0.4-0.5-0.5-1.2-0.8-1.7c-0.2-0.1-0.5-0.1-0.7-0.2c-0.4,1.2-0.1,2.7,1,3.3
				c2.1,1.1,4.5,1.2,6.7,1.7c1.3,0.3,2.8,0.6,4,1.2c0.3,1.4,0.2,2.8,0.3,4.2c-0.1,3.3,0.1,6.6-0.1,9.9c-0.1,2-0.1,3.9,0,5.9
				c0.1,0,0.4-0.1,0.5-0.1c0.6-3.7,0.9-7.5,0.8-11.3c0.1-2.7,0.1-5.5-0.3-8.2c0.4,0.1,0.9,0.1,1.3,0.3c0.5,0.3,0.9,0.8,1.5,0.9
				c1.3,0.2,2.6,0.1,3.9-0.1c-0.1,2.9,0.2,5.9,0.6,8.8c0.3,2.1,0.3,4.3,0.7,6.4c0.2,1.1,0.1,2.3,0.6,3.3c0.3,0,0.6,0,0.9,0
				c0.3-1,0.1-2.1-0.1-3.1c-0.8-5.3-0.8-10.6-1.5-15.9c2.2-1.7,4.6-3.2,6.8-4.9c1.2-1,2.3-2.4,2.4-4.1
				C281,189.3,280.7,189.3,280.6,189.3z"/>
			<path class="st10" d="M268.6,230.5c1.7-0.2,3.4-0.6,5.2-1c0,0.2,0.1,0.5,0.1,0.6c-1.7,1-3.7,1.3-5.6,1.6c-2,0.3-4.1,0.6-6.2,0.2
				c0-0.3,0.1-0.6,0.1-0.8C264.3,230.7,266.5,230.7,268.6,230.5z"/>
			<path class="st9" d="M275.1,232.1c1-0.3,2-1,3.1-0.6c-0.5,1.1-1.7,1.5-2.7,2c-1.9,0.9-3.8,1.9-5.9,2.3c-2.7,0.5-5.5,0.5-8.2,0.2
				c-1.6-0.2-3.1-0.8-4.6-1.5c0.3-0.2,0.5-0.6,0.9-0.6c1,0.1,2,0,3,0c2.4,0.4,4.8,0.2,7.2,0C270.4,233.8,272.8,232.8,275.1,232.1z"
				/>
			<g>
				<path class="st16" d="M322.8,298.4c0.9,0.6,1.7,1.5,2.6,2c-0.5-1.2-1.5-2-2.5-2.8c-0.4-0.4-1-0.4-1.5-0.3
					C321.9,297.7,322.4,298,322.8,298.4z"/>
				<path class="st16" d="M233.5,339.1c2,0.7,4,1.3,6,1.9c5.2,1.6,10.5,2.2,15.8,3.1c2.8,0.4,5.5,0.8,8.3,0.9c2.3,0.1,4.7,0.3,7,0.1
					c2.4-0.1,4.8-0.3,7.1-0.8c3.1-0.5,6.1-1,9.1-1.8c6.2-1.8,12.2-4.5,17.4-8.2c5.7-3.6,10.6-8.4,14.5-13.9
					c2.4-3.4,4.9-6.7,6.9-10.4c0.8-2.1,2.1-4,2.7-6.2c0.5-1.8,1-3.6,0.6-5.4c-0.1,0-0.4,0-0.6,0c0,0.8,0.1,1.6-0.1,2.4
					c-0.4,1.9-1,3.8-2,5.6c-0.9,1.7-1.6,3.5-2.7,5.1c-1.2,1.9-2.5,3.8-3.8,5.7c-1.3,2-2.7,3.9-4.2,5.8c-5.7,7.1-13.3,12.5-21.6,16.1
					c-4.1,1.7-8.4,3-12.8,3.7c-5.1,1-10.2,1.5-15.4,1.3c-3.1-0.1-6.2-0.3-9.3-0.8c-5-0.8-10-1.3-14.9-2.6c-2.1-0.6-4.2-1.3-6.3-1.9
					s-4.2-1.6-6.2-2.4c-1.7-0.7-3.4-1.6-5.1-2.4c-1.7-0.8-3.4-1.6-5-2.7c-1.4-1-3.1-1.7-4.5-2.8c-3.2-2.4-6.8-4.5-9.4-7.6
					c-1.5-1.4-2.9-2.9-4.6-4.2c0.2-0.6,0-1.2-0.5-1.6c-0.3,0.1-0.6,0.2-0.8,0.3c0.3,0.3,0.6,0.7,0.9,0.9c-0.3,0.1-0.6,0.2-0.9,0.2
					c0.5,1,1.5,1.7,2.2,2.5c1.2,1.2,2.5,2.4,3.6,3.6c1.7,1.8,3.8,3,5.7,4.5c1.9,1.2,3.6,2.7,5.6,3.7c1.5,0.8,2.9,1.9,4.4,2.7
					C225.1,335.5,229.2,337.4,233.5,339.1z"/>
				<path class="st16" d="M323,305.1c-0.3-0.5-0.6-0.9-1.1-1.3c-0.9-0.7-1.8-1.4-3-1.1c0.5,0.5,1.2,0.8,1.8,1.2
					C321.5,304.3,322.2,304.8,323,305.1z"/>
				<path class="st16" d="M318.5,307.6c-0.6-0.4-1.3-0.8-2.1-0.5c1.5,1.1,3.2,1.9,5,2.3C320.6,308.6,319.5,308.2,318.5,307.6z"/>
				<path class="st16" d="M316.7,311.2c-1.2-0.8-2.4-1.6-3.9-1.8c0,0.2,0,0.5,0,0.6c2,0.8,3.8,2.1,5.7,3.1
					C318.3,312.1,317.4,311.6,316.7,311.2z"/>
				<path class="st16" d="M206.6,312.6c0.6-0.9,1.4-1.8,1.8-2.8c-0.5,0.3-0.9,0.6-1.2,1.1c-0.8,1.1-1.5,2.2-2.1,3.4
					C205.7,313.8,206.1,313.2,206.6,312.6z"/>
				<path class="st16" d="M206.4,317.9c1-0.8,1.5-2,2.3-3c0.5-0.8,1.4-1.5,1.3-2.6c-0.9,0.5-1.4,1.4-1.9,2.3
					C207.5,315.7,206.8,316.7,206.4,317.9z"/>
				<path class="st16" d="M211.2,318.1c0.6-0.8,1.3-1.6,1.7-2.5c0-0.1-0.1-0.2-0.2-0.2c-1,0.4-1.4,1.4-2,2.3c-0.6,1-1.4,2-1.6,3.2
					C210,320.2,210.5,319,211.2,318.1z"/>
				<path class="st16" d="M213.5,320.9c0.6-0.9,1.2-1.8,1.7-2.8c-0.2,0-0.5,0-0.7,0c-1.1,1.8-2.2,3.7-3,5.6
					C212.4,322.9,212.9,321.9,213.5,320.9z"/>
				<path class="st16" d="M341,334.3c1.8-1.5,3.6-2.9,5.1-4.6c0.8-0.9,1.2-2.1,1.1-3.3c-0.2,0-0.5,0-0.7,0c-0.2,0.8-0.5,1.6-1.1,2.2
					c-1.7,2.1-3.7,3.8-5.7,5.7c-1.3,1.2-2.7,2.3-3.9,3.6c0.4,0,0.8,0,1.1-0.3C338.4,336.5,339.7,335.4,341,334.3z"/>
				<path class="st16" d="M294.3,334.2c-0.4-1.2-1.3-2.3-1.9-3.4c-0.3-0.5-0.8-0.9-1.3-1.1c0.3,0.8,0.9,1.6,1.4,2.4
					S293.5,333.7,294.3,334.2z"/>
				<path class="st16" d="M175.7,348.2c4.7-3.3,9.8-5.9,15.2-7.8c3.5-1.3,7.2-2.9,9.5-6.1c0.2-0.4,0.3-0.8,0.4-1.2
					c-0.3,0.1-0.6,0.3-0.9,0.4c-0.8,1-1.9,1.7-3,2.4c-2.7,1.6-5.7,2.6-8.6,3.8c-5.7,2.6-11.3,5.7-15.9,10c-1.4,1-2.8,2.2-3.9,3.5
					c0.3,0,0.8,0.1,1-0.2c0.9-0.8,2-1.6,2.8-2.4C173.5,350,174.5,349,175.7,348.2z"/>
				<path class="st16" d="M252,336c-0.2-0.1-0.4-0.1-0.6-0.2c-0.4,1.6-0.5,3.2-0.3,4.8C251.6,339.2,251.7,337.6,252,336z"/>
				<path class="st16" d="M269,336.3c-0.1,0-0.4,0-0.6,0c0.1,1.1,0.1,2.2,0.5,3.2C269.1,338.5,269.1,337.4,269,336.3z"/>
				<path class="st16" d="M196.1,370.3c-1.8-0.5-3.5-1.5-5.4-1.4s-3.7,0.5-5.4,1.5c0,0.2,0,0.5,0,0.7c1.6-0.6,3.4-1.1,5.1-1.1
					c1.9,0,3.5,0.9,5.2,1.4c2.3,0.7,4.8,1,7.2,1.2c2.2,0.2,4.4,0.3,6.5-0.1c0-0.2,0-0.6,0-0.7c-1.1,0-2.3,0.1-3.4,0.1
					C202.7,371.7,199.3,371.3,196.1,370.3z"/>
				<path class="st16" d="M346.6,369.5c1.6-0.8,3.5-1.5,4.6-3c-0.9,0.1-1.6,0.7-2.4,1.1c-0.9,0.5-1.9,0.8-2.7,1.4
					c-4.8,1.8-9.7,3.8-14.7,5.1c-3,0.8-6.2,1-9.2,1.7c-3.3,0.7-6.3,2.6-8.9,4.7c-0.6,0.6-1.4,1.1-1.7,1.9c1.1-0.3,1.9-1.1,2.9-1.7
					c1.9-1.3,3.9-2.5,6-3.3c2.8-1.1,5.9-1.2,8.9-1.8C335.4,374.5,341,371.8,346.6,369.5z"/>
				<path class="st16" d="M275,377.5c-0.8,0-1.5-0.4-2.1-0.8c0,0.1,0,0.3,0,0.5c1,1.1,2.6,1.4,4,1c2.4-0.6,4.8-1.6,7.1-2.4
					c1.3-0.5,2.8-0.9,3.5-2.1c-2.7,1.4-5.6,2.1-8.4,2.9C277.7,376.9,276.4,377.4,275,377.5z"/>
				<path class="st16" d="M384.5,375.5c-1,0.9-1.9,1.9-2.8,2.9c-3,3.5-5.5,7.3-8.2,11c-0.6,0.8-1.2,1.5-1.7,2.3
					c-0.2,0.5,0,0.6,0.4,0.4c0.7-0.7,1.3-1.6,1.9-2.4c2.2-3.1,4.6-6.2,7.1-9.1c1.1-1.3,2.4-2.3,3.3-3.8
					C384.8,376.5,384.7,376,384.5,375.5z"/>
				<path class="st16" d="M347.3,393.3c-0.7,0.6-1.6,1-2.3,1.6c-1.4,0.5-2.7,0.9-4.1,1.3c-1.8,0.4-3.7,0.5-5.5,0.9
					c-3.8,0.8-6.9,3.7-8.3,7.3c0.8-0.1,1.2-0.8,1.7-1.4c1.3-1.7,3-3.2,5.1-4c2-0.8,4.2-1,6.3-1.7c2-0.5,3.9-1.3,5.8-2.2
					c1.1-0.6,2.1-1.4,2.8-2.4c0.2-0.3,0.1-0.6,0.2-0.9C348.4,392.3,347.9,392.8,347.3,393.3z"/>
				<path class="st16" d="M229.6,402.3c2.2,0.2,4.3,0.6,6.5,0.7c0.9,0.3,1.9,0.3,2.8,0.2c1.2,0,2.5-0.1,3.5-1
					c-0.6-0.2-1.1-0.1-1.7,0.1c-1.5,0.3-3.1,0-4.6,0c-2.3-0.4-4.6-0.7-7-1.2c-2.4-0.4-5.1-0.9-7.4,0.2c-0.9,0.5-2,1.1-2.2,2.2
					c1-0.5,1.8-1.2,2.9-1.5C224.8,401.4,227.2,402.1,229.6,402.3z"/>
				<path class="st16" d="M158.6,410.2c-2.8-1.6-5.7-3.2-8.4-5c-1.5-1-2.8-2.2-4.4-3.1c-1.7-1-3.6-1-5.5-0.9c0,0.1,0.1,0.3,0.2,0.4
					c0.9,0.2,1.9,0.3,2.9,0.5c1.2,0.2,2.3,0.8,3.2,1.6c3.7,3.1,8.2,5.1,12.4,7.4c0.7,0.4,1.3,0.9,2.1,1.2
					C160.5,411.2,159.5,410.7,158.6,410.2z"/>
				<path class="st16" d="M367.8,417.4c-1.8,2.2-3.9,4.1-6.1,6c-3.3,2.7-6.9,5.2-11.2,6.1c0,0.1,0,0.4,0,0.5
					c2.4-0.1,4.7-1.2,6.8-2.4c3.6-2.1,6.8-4.7,9.7-7.6c1.9-1.9,3.4-4.3,4.5-6.7c-0.3,0-0.6,0-0.8-0.1
					C369.7,414.6,368.9,416.1,367.8,417.4z"/>
				<path class="st16" d="M222,440.1c0.3,3,0.5,6,0.7,9h1.2c-0.1-1.9-0.3-3.9-0.4-5.8c-0.5-4.8-0.7-9.7-1.1-14.5
					c1.5,2.2,3.3,4.2,5,6.3c1.5,2,3.1,3.9,4.4,6c0.9,1.4,1.8,2.9,2.8,4.3c0.3,0.3,0.6,0.9,1.2,0.8c0.4,0,0.6-0.4,0.7-0.7
					c0.4-1.2,0.7-2.4,1.2-3.6c1.6-4.1,3.5-8.1,5.4-12.1c1.2-2.5,2.6-4.8,4-7.1c1.5,2.2,3.1,4.3,4.3,6.6c1.3,2.4,3,4.5,4.5,6.8
					c1.1,1.6,2,3.3,3.2,4.8c0.5,0.6,0.9,1.5,1.8,1.5c0.6-0.2,0.9-0.8,1.1-1.3c1.4-3.2,2.6-6.5,4-9.7c1.9-4.5,3.5-9.1,6-13.3
					c0.5,1.7,0.8,3.4,1.3,5.1c0.5,1.9,1.3,3.7,2,5.5c1.2,3.2,2.2,6.5,3.3,9.8c0.6,1.6,1,3.3,1.9,4.8c0.3,0.6,1.2,0.7,1.6,0.2
					c0.7-0.9,1-2,1.3-3c1.1-3.2,2.4-6.4,3.7-9.5c1.6-3.8,3.5-7.3,6-10.6c0.7,1.6,1.2,3.3,1.8,4.9c1,2.4,2,4.9,2.8,7.4
					c0.7,2.2,1.9,4.1,2.6,6.3c0.4,1.2,0.6,2.5,1.4,3.6c0.5,0.6,1.4,0.3,1.9-0.3c1.3-1.6,2.3-3.5,3.4-5.2c2.3-3.6,4.2-7.4,7.2-10.5
					c0.5,3.2,1,6.5,1.6,9.7c0.7,3,1.5,6,1.9,9.1c0.1,1.3,0.2,2.7,0.5,4h1.7c-0.2-1.2-0.2-2.4-0.3-3.5c-0.2-2.7-0.6-5.4-1.2-8.1
					c-0.8-3.2-1.3-6.4-2-9.6c-0.3-1.1-0.3-2.2-0.9-3.2c-0.4-0.7-1.4-0.6-1.9-0.1c-1.4,1.4-2.7,3-3.8,4.6c-2.5,3.5-4.6,7.3-7,10.9
					c-0.6-1.6-1-3.3-1.7-4.9c-0.9-1.9-1.4-3.9-2.2-5.8c-1.1-2.9-2.3-5.7-3.5-8.5c-0.3-0.8-0.6-1.6-1.2-2.3c-0.5-0.5-1.4-0.5-1.9,0
					c-0.6,0.6-1,1.3-1.4,2c-1.4,2.2-2.7,4.3-3.8,6.6c-2.1,4.5-4,9.1-5.6,13.7c-1.1-3.2-2.1-6.4-3.2-9.6c-0.8-2.7-2-5.2-2.8-7.9
					c-0.5-1.7-1-3.5-1.6-5.2c-0.2-0.8-0.4-1.6-1-2.1c-0.5-0.3-1.3-0.2-1.6,0.3c-0.7,0.9-1.2,2-1.8,3c-1.5,2.9-2.7,6-3.9,9
					c-1.7,3.9-3.1,7.9-4.8,11.8c-1.7-2.2-3-4.7-4.6-6.9c-1.3-1.8-2.6-3.7-3.7-5.7c-1.1-1.9-2.4-3.6-3.6-5.5
					c-0.4-0.5-0.9-1.2-1.6-1.2c-0.7-0.1-1.1,0.7-1.5,1.2c-1.5,2.5-3.1,5-4.3,7.8c-2.1,4.7-4.4,9.3-5.9,14.2c-1.6-2.4-3-4.8-4.8-7.1
					c-2.4-3.2-5.1-6.3-7.5-9.5c-0.5-0.5-0.9-1.3-1.7-1.1c-0.5,0.1-0.5,0.8-0.4,1.2C221.5,431.8,221.6,436,222,440.1z"/>
				<path class="st16" d="M138.6,427.8c1.2,2.9,2.2,5.9,3.5,8.8c1.9,4.1,4.2,8,6.3,12.1c0.1,0.1,0.2,0.3,0.2,0.4h0.8
					c-0.2-0.3-0.4-0.6-0.5-0.9c-2.4-4.8-4.8-9.5-6.8-14.5c-1.5-3.9-3.1-7.8-5-11.5c-0.1-0.6-0.3-1.1-0.5-1.7
					c-0.8,0.5-0.4,1.5-0.1,2.2C137.2,424.4,137.9,426.1,138.6,427.8z"/>
				<path class="st16" d="M184.3,431.8c-3.4,0-6.8-0.5-10.2-0.8c-0.4,0-0.9-0.1-1.3,0.1c-0.6,0-1.2,0.1-1.6,0.5
					c0.9,0.1,1.8,0.1,2.7,0c3.5,0.7,7.1,1,10.6,1c2.9-0.2,5.9,0,8.6-1.1c-0.1-0.1-0.1-0.3-0.2-0.4
					C190.2,432,187.2,431.7,184.3,431.8z"/>
				<path class="st16" d="M292.1,432.2c0.3,1.5,1,2.9,1.5,4.3c0.9,2.5,1.8,4.9,2.9,7.3c0.8,1.7,1.6,3.5,2.4,5.2h1.5
					c-0.2-0.6-0.5-1.3-0.7-1.9c-1.2-2.6-2.5-5.2-3.5-7.9c-1.1-2.6-2.4-5.2-3.7-7.7c-0.1-0.2-0.3-0.4-0.4-0.7
					c-0.1,0.1-0.4,0.3-0.5,0.3c0.1,0.4,0.3,0.8,0.4,1.2L292.1,432.2z"/>
				<path class="st16" d="M276.5,445.9c0.5,1.1,1.1,2.2,1.6,3.2h1.2c-0.6-1.4-1.2-2.7-1.9-4c-2.1-4.2-3.6-8.7-5.6-13
					c-0.3-0.7-0.4-1.8-1.4-1.9c0.1,0.9,0.4,1.8,0.8,2.7C272.8,437.2,274.4,441.7,276.5,445.9z"/>
				<path class="st16" d="M244.7,432.7c2.5,5.1,5.1,10.1,8.5,14.7c0.1,0.6,0.2,1.2,0.5,1.7h1.7c-2-4-4.6-7.6-6.8-11.5
					c-1-1.8-2.1-3.6-3.1-5.4c-0.3-0.4-0.7-0.7-1.2-0.8c0,0.4,0.1,0.9,0.2,1.3L244.7,432.7z"/>
				<path class="st16" d="M313,446.8c0.2,0.7,0.5,1.5,0.8,2.3h1.5c-0.5-2.1-1.2-4.1-1.8-6.1c-0.7-2.1-1.2-4.3-2-6.5
					c-0.3,0-0.5,0.1-0.8,0.1c0,0.9,0.2,1.8,0.3,2.7C311.6,441.9,312.3,444.4,313,446.8z"/>
				<path class="st16" d="M291.8,444.7c0.6,1.5,1.3,3,2.1,4.4h1.4c-0.4-1.8-1.3-3.4-2-5.1c-1-2.4-2.1-4.9-3.2-7.3
					c-0.4,0.1-1,0.1-0.7,0.7C289.8,439.9,290.8,442.3,291.8,444.7z"/>
				<path class="st16" d="M273.8,449.1h1.3c-1-2.5-2.2-4.8-3.4-7.1c-0.8-1.7-1.6-3.3-2.5-4.9c-0.1-0.1-0.2-0.2-0.2-0.3
					c-0.1,0-0.4,0-0.6,0c0,0.3,0,0.7,0,1l0.1-0.1C270,441.6,271.7,445.5,273.8,449.1z"/>
				<path class="st16" d="M245,445.3c0.8,1.3,1.8,2.4,2.5,3.8h1.5c-0.1-0.1-0.1-0.1-0.2-0.2c-1.9-3.1-3.6-6.3-5.6-9.3
					c-0.3-0.6-1.1-1.2-1.6-0.4c0,0.6,0.4,1.1,0.7,1.6C243.2,442.3,244.1,443.8,245,445.3z"/>
				<path class="st16" d="M227.4,442c1,2.2,2.1,4.5,3.3,6.6c0.1,0.2,0.2,0.3,0.3,0.5h1.5c-0.3-0.4-0.6-0.9-0.8-1.4
					c-1.2-2-2.4-3.9-3.5-5.9c-0.5-1-1.1-2-1.7-3c-0.1,0-0.4,0-0.5,0C226.3,439.9,226.8,440.9,227.4,442L227.4,442z"/>
				<path class="st16" d="M268.6,449.1h1.6c-0.8-1.9-1.7-3.8-2.7-5.7c-0.3-0.7-0.8-1.3-1.5-1.5c0,0.4-0.2,0.9,0.1,1.4
					C266.9,445.2,267.7,447.2,268.6,449.1z"/>
				<path class="st16" d="M287.6,448.1c0.2,0.3,0.3,0.6,0.5,1h1.8c-0.4-0.9-0.8-1.9-1.3-2.8c-0.7-1.4-1.7-2.5-2.4-3.8
					c-0.3-0.2-0.6-0.3-0.8-0.4c-0.1,0.5-0.1,1,0.1,1.4C286.2,445,286.9,446.6,287.6,448.1z"/>
				<path class="st16" d="M308.9,449.1h1.6c-0.3-1.2-0.6-2.4-1-3.6c-0.4-1.1-0.6-2.3-1.3-3.3c-0.2,0.1-0.6,0.3-0.7,0.3
					c-0.1,1.3,0.3,2.6,0.6,3.9C308.4,447.4,308.6,448.2,308.9,449.1z"/>
				<path class="st16" d="M253.1,438.6c2.1,3.3,3.5,6.9,5.1,10.5h1.4c-0.2-0.5-0.5-1-0.7-1.5c0.1-0.3,0.2-0.6,0.2-0.9
					c-0.2-0.5-0.7-1-1.1-1.4c-1-1.8-1.9-3.5-2.9-5.3c-1.5-2.8-3.3-5.4-4.9-8c-0.8-1.3-1.6-2.7-2.6-4c-0.2-0.4-0.8-0.3-1.1-0.3
					c0.1,0.8,0.7,1.5,1.1,2.2C249.2,432.9,251.3,435.7,253.1,438.6z"/>
				<path class="st16" d="M226.8,449.1h1.3c-0.4-0.9-0.9-1.8-1.3-2.6c-0.1-0.4-0.5-0.4-0.8-0.5c-0.2,1,0.4,1.9,0.7,2.9
					C226.7,448.9,226.8,449,226.8,449.1z"/>
				<path class="st16" d="M241.3,449.1h1.7c-0.8-1.1-1.6-2.2-2.4-3.3c0-0.1-0.1-0.2-0.2-0.3c-0.2,0-0.6,0.1-0.8,0.1
					c0.1,0.3,0.1,0.7,0.2,1C240.4,447.4,240.8,448.3,241.3,449.1z"/>
			</g>
		</g>
		<path class="st3" d="M265.5,216.3c14.5-1.1,22.9-2.1,23.7-1.2c0.8,0.9,1.4,1.9-1.1,4.5c-2.6,2.6-9.6,6.9-21.2,6.6
			c-11.6-0.3-17.8-2.2-21.2-4.3s-3.3-4.2-0.9-4.5C247,217.2,260.4,216.7,265.5,216.3z"/>
	</g>
</g>
</svg>
