<?xml version="1.0" encoding="utf-8"?>
<!-- Generator: Adobe Illustrator 23.0.1, SVG Export Plug-In . SVG Version: 6.00 Build 0)  -->
<svg version="1.1" id="Layer_1" xmlns="http://www.w3.org/2000/svg" xmlns:xlink="http://www.w3.org/1999/xlink" x="0px" y="0px"
	 viewBox="0 0 100 100" style="enable-background:new 0 0 100 100;" xml:space="preserve">
<style type="text/css">
	.st0{fill:#FFA000;}
	.st1{fill:#7D3838;}
	.st2{fill:#371C2A;}
</style>
<g>
	<g>
		<path class="st0" d="M11.7,58.1c-0.1,0.2-0.2,0.5-0.3,0.8c0.1,0,0.3,0,0.6,0C15.5,58.4,19.5,59,23,59c11.3,0,22.6,0.1,34,0.2
			c5.7,0,11.3,0.1,17,0.1c3,0,6.1,0.3,9,0c1.7-0.2,1.8-0.2,2.2-1.8c0.2-1,0.2-2,0.3-3c-13,0.2-26,0.3-39,0.3c-5.8,0-11.6,0-17.4-0.1
			c-2.9,0-5.8,0-8.7-0.1c-1.3,0-2.7,0-4,0c-0.4,0-3.4-0.3-3.6-0.2C12,54.9,12,57.3,11.7,58.1z"/>
		<path class="st0" d="M69,39.3c-2.5-2.5-4.9-5.1-7.3-7.7c-1.8-1.9-2.5-1.7-4.8-0.4c-1.5,0.8-3,1.6-4.5,2.4
			c-12.6,6.9-25.2,13.7-38.1,19.9c23.4,0.3,46.8,0.3,70.2-0.1C79.2,49,74,44.2,69,39.3z"/>
		<path class="st0" d="M81.5,65.4C79,65,77.2,65.5,74.9,66c-2,0.4-3.5,0-5.4-0.7c-2.2-0.9-4-1.7-6.4-1c-1.2,0.3-2.4,1-3.6,1.3
			c-2,0.5-3.5-0.1-5.3-0.9c-2.1-0.9-3.6-1.8-6-1c-1.2,0.4-2.2,1.1-3.3,1.6c-1.2,0.5-2.5,1-3.8,0.8c-3.7-0.5-4-4.3-8.7-1.3
			c-1.3,0.9-2.2,1.9-4,1.8c-2.1-0.1-3.5-2-5.4-2.8c-3.8-1.5-8,2.1-11.9,0.6c-0.2,1.3-0.4,2.6-0.8,3.9c0,0.1-0.1,0.2-0.1,0.2
			c0,0,0,0,0,0c1.4,0.2,3,0,4.4,0c12.7-0.1,25.3-0.3,38-0.3c7,0,14-0.1,21-0.1c2.8,0,5.5,0,8.3,0c0.8,0,1.7-0.2,2.4-0.1
			c0.3,0.1,0.5,0,0.6,0c0.1-0.6,0-1.4,0-2.1C83.6,65.9,82.6,65.5,81.5,65.4z"/>
		<path class="st1" d="M86.7,60.5c-0.4-0.1-0.8-0.1-1.1-0.2c0,0,0,0,0,0c-24.8,0-49.8,0.3-74.6-0.5c-0.9,2.2-0.6,3.4,1,3.6
			c0.5,0.1,1,0.2,1.5,0.2c1,0.1,1.9,0,2.9-0.2c1.3-0.3,2.5-1.1,3.9-1.2c4.3-0.4,6.8,5.3,11.2,1.8c1.5-1.2,2.8-2.4,4.8-1.7
			c2.4,0.8,3.1,3.1,6.1,2.7c1.6-0.2,3-1.4,4.4-2c2.6-1.1,4.3-0.8,6.8,0.3c2.7,1.2,4.5,1.7,7.3,0.7c1.4-0.5,2.8-1.1,4.3-1
			c1.3,0.1,2.5,0.6,3.7,1c2.9,1.1,4.7,1,7.7,0.3c1.5-0.4,2.8-0.3,4.3,0c1,0.2,2.7,0.9,3.7,0.6C88,62.2,88.6,60.8,86.7,60.5z"/>
	</g>
	<path class="st2" d="M87.2,60.4c0.1-1.8,0.3-3.6,0.4-5.4c0-0.1,0-0.2,0-0.2c0,0,0,0,0,0c0,0,0,0,0,0c0-0.1-0.1-0.1-0.2-0.2
		c-9.3-7.6-18-16-25.9-25c-0.2-0.2-0.4-0.2-0.6-0.1c-15.8,8.6-31.5,17.3-47.8,25.1c0,0,0,0,0,0c0,0,0,0,0,0
		c-0.1,0.1-0.2,0.2-0.2,0.3c-0.4,1.7-0.9,3.3-1.3,5c-1.9,0.9-3,3-1,4.6c0.2,0.1,0.4,0.3,0.6,0.4c-0.3,1.7-0.7,3.3-1,5
		c-0.1,0.3,0.1,0.7,0.5,0.6c25.2-0.3,50.4,0.1,75.6-0.6c0.3,0,0.5-0.2,0.5-0.5c0-0.9,0-1.8,0.1-2.7c1-0.2,2.1-0.6,2.7-1.4
		C91.8,62.7,89.7,60.9,87.2,60.4z M86.3,58.5c-0.4,1.7-0.5,1.7-2.2,1.8c-2.9,0.3-6.1,0-9,0c-5.7,0-11.3-0.1-17-0.1
		c-11.3-0.1-22.6-0.1-34-0.2c-3.5,0-7.5-0.5-11.1-0.1c-0.2,0-0.4,0-0.6,0c0.1-0.3,0.2-0.6,0.3-0.8c0.3-0.8,0.3-3.2,1-3.7
		c0.2-0.2,3.2,0.2,3.6,0.2c1.3,0,2.7,0,4,0c2.9,0,5.8,0.1,8.7,0.1c5.8,0,11.6,0.1,17.4,0.1c13,0,26-0.1,39-0.3
		C86.6,56.5,86.5,57.5,86.3,58.5z M12.3,59.8C12.3,59.8,12.3,59.8,12.3,59.8L12.3,59.8z M58.1,32.2c2.3-1.2,3-1.5,4.8,0.4
		c2.4,2.6,4.8,5.2,7.3,7.7c5,5,10.2,9.7,15.6,14.2c-23.4,0.3-46.8,0.4-70.2,0.1C28.4,48.3,41,41.5,53.6,34.6
		C55.1,33.8,56.6,33,58.1,32.2z M82.9,69.1c-2.8,0-5.5,0-8.3,0c-7,0-14,0-21,0.1c-12.7,0.1-25.3,0.2-38,0.3c-1.4,0-3,0.3-4.4,0
		c0,0,0,0,0,0c0.1-0.1,0.1-0.1,0.1-0.2c0.3-1.3,0.5-2.6,0.8-3.9c3.9,1.4,8.1-2.2,11.9-0.6c1.9,0.8,3.2,2.7,5.4,2.8
		c1.7,0.1,2.6-0.9,4-1.8c4.7-3,5,0.8,8.7,1.3c1.4,0.2,2.6-0.3,3.8-0.8c1.1-0.5,2.2-1.2,3.3-1.6c2.4-0.8,3.9,0.1,6,1
		c1.8,0.8,3.3,1.4,5.3,0.9c1.3-0.3,2.4-1,3.6-1.3c2.5-0.7,4.2,0.1,6.4,1c1.9,0.7,3.4,1.1,5.4,0.7c2.3-0.5,4.1-0.9,6.5-0.6
		c1.1,0.2,2.2,0.5,3.3,0.5c0,0.7,0.1,1.5,0,2.1c-0.1,0-0.3,0.1-0.6,0C84.5,68.9,83.6,69.1,82.9,69.1z M86,65.9
		c-1.1,0.3-2.7-0.4-3.7-0.6c-1.6-0.3-2.8-0.3-4.3,0c-3,0.7-4.8,0.8-7.7-0.3c-1.2-0.5-2.4-1-3.7-1c-1.6-0.1-2.9,0.5-4.3,1
		c-2.8,1-4.6,0.5-7.3-0.7c-2.5-1.1-4.2-1.4-6.8-0.3c-1.4,0.6-2.9,1.8-4.4,2c-3.1,0.4-3.7-1.9-6.1-2.7c-2-0.7-3.4,0.5-4.8,1.7
		c-4.3,3.5-6.9-2.2-11.2-1.8c-1.4,0.1-2.6,0.9-3.9,1.2c-1,0.3-1.9,0.3-2.9,0.2c-0.5-0.1-1-0.2-1.5-0.2c-1.6-0.2-1.9-1.4-1-3.6
		c24.8,0.8,49.8,0.4,74.6,0.5c0,0,0,0,0,0c0.4,0,0.8,0.1,1.1,0.2C89.7,61.8,89.1,63.2,86,65.9z"/>
</g>
</svg>
