<?xml version="1.0" encoding="utf-8"?>
<!-- Generator: Adobe Illustrator 23.0.1, SVG Export Plug-In . SVG Version: 6.00 Build 0)  -->
<svg version="1.1" id="Layer_1" xmlns="http://www.w3.org/2000/svg" xmlns:xlink="http://www.w3.org/1999/xlink" x="0px" y="0px"
	 viewBox="0 0 100 100" style="enable-background:new 0 0 100 100;" xml:space="preserve">
<style type="text/css">
	.st0{fill:#FFCEAB;}
	.st1{fill:#FFA000;}
	.st2{fill:#7D3838;}
	.st3{fill:#371C2A;}
</style>
<g>
	<g>
		<path class="st0" d="M39.4,31.8c-3.7,1.7-7.4,3.5-11.3,4.7c-4.1,1.3-8.9,1.5-12.6,3.8c-4.9,3.1-5.2,10.3-3.4,15.2
			c2.1,5.7,7.2,9.4,12.8,11.3c5.4,1.8,11.7,2.2,17.3,1c3.3-0.7,6.3-2.1,8.7-4.5c1.6-1.6,2.8-3.3,4.6-4.6c4.9-3.6,10.4-6.5,15.5-9.6
			c5.1-3.1,10.3-6.3,15.4-9.4c0,0,0-0.1,0-0.1c0-0.1,0-0.1,0.1-0.2C77.5,33.1,68,26.8,57.8,22.4C51.8,25.7,45.7,28.9,39.4,31.8z
			 M74.2,40.6c-3.9,3.6-9.3,6.3-13.8,9.2C55.3,53,50,56.1,44.6,58.8c-6.5,3.3-17,6.8-22.3-0.6c-1.9-2.6-2.5-6.3-0.8-9.2
			c0.8-1.4,2.2-2.4,3.5-3.3c2-1.5,3.2-3.4,5-5c3-2.6,8.1-2.8,11.7-4.2c5.6-2.2,10.7-5.3,15.4-9.1c0,0,0,0,0.1,0
			c0-0.3,0.3-0.7,0.7-0.5C61.1,28.1,80.2,35.2,74.2,40.6z"/>
		<path class="st1" d="M28.3,44.5c-1.4,1.5-3.3,2.3-4.8,3.8c-2.8,2.8-2.4,7.4,0.2,10.2c2.2,2.4,5.7,3.2,8.8,3.1
			c5.8-0.2,11.3-3.4,16.2-6.2c4.7-2.6,9.4-5.5,13.9-8.4c2.3-1.5,4.5-3,6.8-4.5c0.8-0.5,2.9-1.5,3.4-2.3c0.3-1.1,0.7-2.1,1-3.2
			c-0.8-0.7-1.6-1.3-2.5-1.9c-4.2-3-8.7-5.3-13.6-7c0,0-0.1,0.1-0.1,0.1c-7.2,5.9-15,9.2-23.8,11.9C31,41,30.3,42.4,28.3,44.5z
			 M42.4,55.5c-5.4-1.2-10.8-1.4-16.3-0.7c-0.7,0.1-0.7-1,0-1.1c5.6-0.7,11.1-0.5,16.6,0.7C43.4,54.6,43.1,55.7,42.4,55.5z
			 M58.4,33.3c1.9-0.1,3.8,0.3,5.6,1c0.6,0.3,0.1,1.2-0.6,0.9c-1.6-0.7-3.3-1-5-0.9C57.7,34.5,57.7,33.4,58.4,33.3z M53.5,38.3
			c3.6-0.3,7.1-0.1,10.7,0.7c0.7,0.1,0.4,1.2-0.3,1.1c-3.4-0.7-6.9-0.9-10.4-0.6C52.8,39.4,52.8,38.3,53.5,38.3z M42.6,42
			c5,0.5,10,1,15.1,1.5c0.7,0.1,0.7,1.2,0,1.1c-5-0.5-10-1-15.1-1.5C41.9,43,41.9,41.9,42.6,42z M48,48.8c0.7,0.1,0.4,1.2-0.3,1.1
			c-5.2-1.1-10.3-1.5-15.6-1.4c-0.7,0-0.7-1.1,0-1.1C37.5,47.2,42.7,47.7,48,48.8z"/>
		<path class="st2" d="M56.1,59.8c-2.8,2.1-4.6,5.2-7.6,7C39.9,71.9,26,70.2,18,64.6c-3.7-2.6-6.6-6.9-7.6-11.4
			c-0.5,4.3-0.3,8.6,2.1,12.4c3.2,5.1,8.5,8.6,14.2,10.1c5.8,1.5,12.3,3,18.1,0.9c5.4-2,8.8-5.6,12.5-9.7c3.5-3.8,8.3-5.9,12.8-8.2
			c4.3-2.2,8.4-4.3,12.3-7.2c2.7-2,2.6-1.9,3-5.2c0.2-1.8,0.5-3.5,0.7-5.3c-6.7,4.1-13.4,8.2-20.1,12.3
			C62.8,55.6,59.3,57.4,56.1,59.8z"/>
	</g>
	<g>
		<path class="st3" d="M89.5,39.1C80,32.6,70.1,25.8,59.5,21.3c0,0,0,0-0.1,0c-0.1-0.1-0.3-0.1-0.5,0c-6.4,3.6-12.9,6.9-19.5,10
			c-4.8,2.2-9.6,4.2-14.7,5.4c-3.7,0.9-8.1,1.6-10.5,4.8c-1.7,2.2-2.5,4.6-2.7,7.1c-1,5.1-1.7,10.5,0.4,15.4
			c1.9,4.6,6.2,8.5,10.6,10.8c5.2,2.7,11.9,3.9,17.7,4c5,0.1,9.7-2.1,13.7-5.1c2-1.5,3.4-3.3,5-5.1c2.4-2.8,5.3-4.7,8.5-6.4
			c5.6-2.9,11.4-5.4,16.5-9.2c2-1.4,3.7-2.1,4-4.5c0.4-2.7,0.7-5.4,1.1-8.1c0.2-0.1,0.4-0.2,0.6-0.4C89.9,39.8,89.9,39.4,89.5,39.1z
			 M17.1,40.3c3.7-2.3,8.5-2.5,12.6-3.8c3.9-1.3,7.6-3,11.3-4.7c6.2-2.9,12.3-6.1,18.3-9.4C69.4,26.8,78.9,33.1,88,39.4
			c0,0.1-0.1,0.1-0.1,0.2c0,0,0,0.1,0,0.1c-5.1,3.1-10.3,6.3-15.4,9.4c-5.1,3.2-10.6,6-15.5,9.6c-1.8,1.3-3.1,3-4.6,4.6
			c-2.4,2.4-5.4,3.8-8.7,4.5c-5.6,1.1-11.9,0.8-17.3-1c-5.6-1.9-10.7-5.6-12.8-11.3C11.8,50.6,12.1,43.4,17.1,40.3z M87.1,46.4
			c-0.4,3.2-0.4,3.1-3,5.2c-3.9,2.9-8,5-12.3,7.2c-4.5,2.3-9.4,4.3-12.8,8.2c-3.8,4.1-7.1,7.8-12.5,9.7c-5.8,2.1-12.4,0.6-18.1-0.9
			c-5.7-1.5-11.1-5-14.2-10.1c-2.4-3.8-2.6-8.1-2.1-12.4c1,4.5,3.9,8.8,7.6,11.4c8,5.6,21.9,7.2,30.5,2.1c3-1.8,4.8-4.9,7.6-7
			c3.1-2.3,6.7-4.2,10-6.2c6.7-4.1,13.4-8.2,20.1-12.3C87.5,42.9,87.3,44.7,87.1,46.4z"/>
		<path class="st3" d="M46,58.8c5.5-2.7,10.7-5.8,15.8-9.1c4.5-2.8,9.8-5.6,13.8-9.2c6-5.4-13.1-12.5-16.5-13.7
			c-0.4-0.1-0.7,0.2-0.7,0.5c0,0,0,0-0.1,0c-4.6,3.8-9.8,6.9-15.4,9.1c-3.6,1.4-8.7,1.7-11.7,4.2c-1.8,1.6-3,3.5-5,5
			c-1.3,0.9-2.6,1.9-3.5,3.3c-1.6,2.8-1.1,6.6,0.8,9.2C29,65.6,39.5,62.1,46,58.8z M25,48.2c1.5-1.4,3.4-2.3,4.8-3.8
			c1.9-2,2.7-3.4,5.6-4.3c8.8-2.7,16.5-6,23.8-11.9c0.1,0,0.1-0.1,0.1-0.1c4.8,1.7,9.4,4,13.6,7c0.9,0.6,1.7,1.2,2.5,1.9
			c-0.3,1.1-0.7,2.1-1,3.2c-0.5,0.7-2.6,1.8-3.4,2.3c-2.3,1.5-4.5,3-6.8,4.5c-4.5,3-9.1,5.8-13.9,8.4c-4.9,2.7-10.4,6-16.2,6.2
			c-3.1,0.1-6.6-0.8-8.8-3.1C22.6,55.6,22.1,51,25,48.2z"/>
		<path class="st3" d="M27.6,54.9c5.5-0.7,10.9-0.5,16.3,0.7c0.7,0.1,1-0.9,0.3-1.1c-5.5-1.2-11-1.4-16.6-0.7
			C26.9,53.9,26.9,55,27.6,54.9z"/>
		<path class="st3" d="M33.5,48.4c5.3-0.1,10.5,0.3,15.6,1.4c0.7,0.1,1-0.9,0.3-1.1c-5.3-1.1-10.5-1.6-15.9-1.4
			C32.8,47.4,32.8,48.5,33.5,48.4z"/>
		<path class="st3" d="M44.1,43.1c5,0.5,10,1,15.1,1.5c0.7,0.1,0.7-1,0-1.1c-5-0.5-10-1-15.1-1.5C43.4,41.9,43.4,43,44.1,43.1z"/>
		<path class="st3" d="M54.9,39.4c3.5-0.3,6.9-0.1,10.4,0.6c0.7,0.1,1-0.9,0.3-1.1c-3.5-0.7-7.1-0.9-10.7-0.7
			C54.2,38.3,54.2,39.4,54.9,39.4z"/>
		<path class="st3" d="M59.8,34.4c1.7-0.1,3.4,0.2,5,0.9c0.6,0.3,1.2-0.7,0.6-0.9c-1.8-0.8-3.6-1.1-5.6-1
			C59.1,33.4,59.1,34.5,59.8,34.4z"/>
	</g>
</g>
</svg>
