<?xml version="1.0" encoding="utf-8"?>
<!-- Generator: Adobe Illustrator 23.0.1, SVG Export Plug-In . SVG Version: 6.00 Build 0)  -->
<svg version="1.1" id="Layer_1" xmlns="http://www.w3.org/2000/svg" xmlns:xlink="http://www.w3.org/1999/xlink" x="0px" y="0px"
	 viewBox="0 0 100 100" style="enable-background:new 0 0 100 100;" xml:space="preserve">
<style type="text/css">
	.st0{fill:#CCE7E9;}
	.st1{fill:#1C1C1B;}
	.st2{fill:#F4F4F4;}
	.st3{fill:#A87536;}
	.st4{fill:#F5BC2A;}
	.st5{fill:#805126;}
	.st6{opacity:0.11;fill:#1C1C1B;}
</style>
<g>
	<g>
		<ellipse class="st0" cx="50" cy="71.2" rx="35.7" ry="10.1"/>
		<path class="st1" d="M50,81.8c-20.3,0-36.2-4.6-36.2-10.6c0-5.9,15.9-10.6,36.2-10.6s36.2,4.6,36.2,10.6
			C86.2,77.1,70.3,81.8,50,81.8z M50,61.6c-19.1,0-35.2,4.4-35.2,9.6c0,5.2,16.1,9.6,35.2,9.6s35.2-4.4,35.2-9.6
			C85.2,66,69.1,61.6,50,61.6z"/>
	</g>
	<path class="st1" d="M77.8,66.7c2.6,4.7-3.7,6.7-7.1,7.6c-6.4,1.6-12.9,2.4-19.5,2.6c-6.5,0.2-13.1-0.4-19.5-1.7
		c-3-0.6-6-1.4-8.7-2.8c-1.5-0.7-3.3-1.6-3.7-3.2c-0.1,0-0.1-0.1-0.1-0.1c-0.6-1.2-0.1-2.9,1.2-3.4c0.3-0.1,0.7-0.1,1-0.1
		c0-4.5,0.1-9,0.1-13.6c0-4-0.2-8.2,0.3-12.2c-0.2-0.4-0.2-0.9-0.1-1.5c0.7-2.6,4.8-3.4,7.2-3.3c0.1,0,0.1-0.1,0.2-0.1
		c-0.3-2.4-0.2-5-0.2-7.3c0-2.3,0.5-4.2,2.4-5.7c4.5-3.6,12.3-3.8,17.8-3.7c3.4,0,6.8,0.3,10.2,1c2.4,0.4,5,0.9,7,2.5
		c1.7,1.4,2.3,3.3,2.5,5.4c0,0.3,0.1,0.6,0.1,0.8c0.1,0.1,0.1,0.3,0,0.4c0.2,1.9,0.2,3.9,0.2,5.8c0.3,0,0.6,0,1,0.2
		c0.1,0,0.2,0.1,0.2,0.2c1.3,0,2.7,0.3,3.8,0.7c1.5,0.6,2.1,1.6,2.5,3c0.1,0.1,0.1,0.1,0.1,0.2c0,0.1,0,0.1,0,0.2
		c0,0,0.1,0.1,0.1,0.2c1.1,8.9,0.9,18.2,0.6,27.2c0,0.1,0,0.1,0,0.2c0,0,0,0,0,0c0.1,0,0.2,0.1,0.3,0.2
		C77.7,66.6,77.8,66.6,77.8,66.7z M64.2,74.6c3.1-0.5,15.5-1.9,12.9-7.4c-0.9,0-1.5,0.8-1.8,1.6c0,0,0,0,0,0
		c0.2,0.3-0.2,0.6-0.5,0.5c-0.5-0.3-1.1-0.5-1.7-0.1c-0.5,0.4-0.4,1-0.4,1.6c0,0.2-0.2,0.3-0.4,0.2c-0.1,0.1-0.3,0.2-0.5,0.1
		c-1.2-0.6-2.4-0.8-3.6-0.2c-1.1,0.5-1.6,1.3-2.3,2.2c-0.1,0.1-0.2,0.1-0.3,0c0,0.4-0.6,0.5-0.7,0.1c-0.6-2-3.3-0.3-3.7,0.5
		c-0.1,0.2-0.4,0.3-0.5,0.1c-1.3-1-2.8-0.6-3.8,0.6c0,0.1-0.1,0.1-0.2,0.1c-0.1,0.1-0.2,0.1-0.3,0.1c-0.2,0-0.3-0.1-0.4-0.3
		c-0.7-2-3.2-2.2-4.9-1.8c-1.5,0.4-2.6,1.3-3.6,2.4c0,0.1-0.1,0.1-0.1,0.1c-0.2,0.1-0.4,0-0.4-0.1c-0.4-0.8-0.8-1.5-1.8-1.5
		c-0.9-0.1-1.6,0.6-2,1.3c-0.1,0.2-0.3,0.1-0.4,0c0,0.2-0.2,0.3-0.4,0.3c-0.1,0-0.2,0-0.3-0.2c-1.4-2.3-4.2-2.7-6.2-0.9
		c-0.1,0.1-0.4,0.1-0.5,0c-0.8-0.8-1.6-1-2.6-0.6c-0.1,0.3-0.6,0.3-0.8,0c-1.1-2.7-4-3.4-6.4-1.8c-0.2,0.1-0.3,0-0.4-0.1
		c-0.2,0-0.3-0.1-0.3-0.3c0.1-1-0.7-1.9-1.7-1.3c-0.2,0.1-0.6,0-0.5-0.3c0.1-0.7,0-1.4-0.2-2.1c-0.1,0-0.3,0-0.3-0.2
		c-0.3-0.7-1.1-1.1-1.8-0.7c-0.7,0.4-0.8,1.2-0.7,2c0.4,2.6,5.2,3.9,7.2,4.5c2.2,0.7,4.5,1.2,6.7,1.6c2.9,0.5,5.9,0.9,8.8,1.1
		c2.1,0.2,4.3,0.2,6.4,0.2c2.6,0,5.1-0.1,7.7-0.3C59.2,75.4,61.7,75,64.2,74.6z M76.6,66.5c-0.1-0.1-0.1-0.2-0.1-0.3
		c0-1.1,0-2.3,0-3.4c-8.9,4-18.7,5.6-28.5,5.5c-8.5-0.1-18.8-0.9-25.6-6.7c0,1.4,0,2.9,0,4.3c0,0,0,0.1,0,0.1
		c0.2,0.1,0.3,0.3,0.4,0.4c0.6,0.8,0.9,1.7,0.9,2.6c1.1-0.3,2.3,0.5,2.2,1.7c2.5-1.7,5.9-0.7,7.1,2.1c0.7-0.4,1.4-0.3,2.2-0.1
		c1.2,0.3,0.8,0.2,2-0.3c2.2-0.9,4.5,0.1,5.7,2.1c0.6-2.2,3.9-2.4,4.7-0.4c1.1-1.5,2.9-2.5,4.8-2.6c1.7-0.1,3.9,0.5,4.5,2.2
		c0.9-1.2,2.7-1.5,4-0.8c1-1.5,4-2.2,4.8-0.3c0.5-2.8,4.3-3.5,6.5-2.4c-0.1-0.6,0.3-1.3,0.8-1.7c0.5-0.4,1.3-0.5,1.9-0.2
		C75,67.5,75.7,66.8,76.6,66.5z M76.4,62c0-0.4,0-0.7,0-1.1c-3.2,2.6-8.1,3.3-12,4.1c-4.9,1.1-9.8,1.7-14.8,1.8
		c-9,0.2-19.8-1.1-27.2-6.9c0,0.4,0,0.8,0,1.2c7.9,5.2,16.7,6.5,26,6.5C58,67.6,67.6,66,76.4,62z M76.4,59.9c0-1.8-0.1-3.6-0.1-5.4
		c-8,4.1-17.9,5-26.8,5.2c-9.2,0.1-18.7-1.2-27-5.5c0,0,0,0,0,0c0,1.8,0,3.5,0,5.3c7.5,5.3,17.7,6.8,26.7,6.7
		c4.6-0.1,9.2-0.6,13.8-1.6C67.2,63.7,73,62.9,76.4,59.9z M76.2,53.7c0-0.2,0-0.4,0-0.6c-8.7,3.4-18.1,5-27.4,4.9
		c-4.7-0.1-9.4-0.6-14-1.6c-4.3-0.9-8.6-2-12.3-4.5c0,0.2,0,0.3,0,0.5c0,0.4,0,0.9,0,1.3c0.1-0.1,0.2-0.1,0.3,0
		c8.5,3.7,17.5,5.3,26.7,5.2C58.3,58.8,68.2,57.9,76.2,53.7z M76.2,52.3c-0.1-3.8-0.1-7.7,0-11.5c-0.9,1.3-2.7,1.9-4.4,2.3
		c-4.3,0.9-8.7,1.4-13.1,1.8c-9,0.8-18.2,0.7-27.1-0.9c-0.3-0.1-0.2-0.6,0.1-0.6c7.3,0.7,14.6,1.2,21.9,0.9c3.8-0.2,7.7-0.5,11.5-1
		c2.9-0.4,10.5-0.5,11-4.4c0,0,0,0,0,0c-0.2-0.6-0.3-1.2-0.7-1.7c-0.5-0.7-1.3-1-2-1.2c-0.8-0.2-1.5-0.3-2.3-0.4
		c0.4,1,0.3,2.4-0.7,2.9c0,0.1-0.1,0.1-0.1,0.2C67,40.4,63.5,41,60,41.5c-4.1,0.6-8.2,0.9-12.3,0.8c-5.9,0-14.9,0.3-19.3-4.5
		c-0.1-0.1-0.1-0.1-0.1-0.2c-0.7-0.5-0.5-1.3,0-2c-1.8,0.3-3.8,0.6-5.1,1.8c-3,2.7,2.4,4.2,4.1,4.8c0.4,0.1,0.2,0.7-0.2,0.6
		c-1.3-0.2-3.5-0.8-4.7-2c0.3,3.5,0,7.1-0.1,10.5c7.9,4.6,18.2,5.8,27.2,5.9C58.7,57.3,67.7,55.6,76.2,52.3z M69.7,37.8
		c0.8-0.4,0.8-1.8,0.2-2.4c-0.4-0.5-1.1-0.5-1.5,0c-0.4,0.4-0.4,0.9-0.4,1.4c0,0,0.1,0.1,0.1,0.1c0.3,0.3-0.1,0.7-0.4,0.5
		c-0.4-0.2-0.8-0.4-1.3-0.2c-0.4,0.2-0.7,0.6-0.8,1c0,0.2-0.2,0.4-0.4,0.4c-0.9-0.2-1.6-0.3-2.4,0c-0.8,0.3-1.3,0.8-1.9,1.4
		c0,0.2-0.1,0.4-0.2,0.4c-0.1,0-0.2,0-0.2-0.1c-0.9-0.7-1.9-0.8-2.8-0.2c0,0.1-0.1,0.1-0.2,0.1c0,0,0,0,0,0c-0.1,0.1-0.4,0-0.4-0.1
		c-1.1-0.8-2.5-0.7-3.4,0.4c-0.1,0.1-0.3,0.1-0.4,0c0,0-0.1,0-0.1-0.1c-1.5-1.6-3.7-1.5-5.2,0c-0.1,0.1-0.1,0.1-0.2,0.1
		c-0.1,0.1-0.3,0.2-0.4,0.1c-0.6-0.4-1.1-0.8-1.9-0.9c-0.8-0.1-1.5,0.2-2.1,0.7c-0.1,0.2-0.4,0.4-0.6,0.2c-1.4-1.6-3.6-1.9-5.3-0.6
		c0,0.2-0.3,0.3-0.4,0.2c0,0-0.1-0.1-0.1-0.1c-0.5-1-1.9-1.5-2.9-1c-0.1,0.1-0.2,0-0.2-0.1c-0.1,0-0.1-0.1-0.2-0.2
		c-0.2-0.5-0.3-1-0.8-1.4c-0.6-0.4-1.2-0.3-1.8,0c-0.2,0.2-0.6,0.2-0.6-0.2c0.1-0.5,0.3-2.1-0.7-1.9c-0.7,0.1-1.4,1.2-0.9,1.8
		c0,0.1,0.1,0.1,0,0.2c2.3,1.8,5.2,2.8,8.2,3.3c3.9,0.7,8,0.6,11.7,0.6c3.8,0,8.1-0.1,12.1-0.7c3.1-0.5,6.1-1.3,8.7-2.8
		C69.6,37.9,69.6,37.8,69.7,37.8z M68.1,34.1c0-0.2,0-0.4,0-0.5c-12.2,4.1-26.1,4.3-38.2-0.7c0,0.3,0,0.7,0.1,1
		C42.5,37.9,55.6,38.2,68.1,34.1z M68.1,32.8c0-0.8,0-1.6-0.1-2.4c-12.5,3.7-26.1,3.5-38.3-1.1c0,1,0.1,2.1,0.2,3.1
		C42.5,36.6,55.5,37.1,68.1,32.8z M68,29.6c0-0.2,0-0.5,0-0.7c-12.3,3.9-26.3,3.8-38.1-1.6c-0.1,0.5-0.1,1-0.1,1.5
		C42.2,32.9,55.3,33.3,68,29.6z M67.4,36.5c0-0.5,0.1-1,0.4-1.4c-5.6,1.8-11.4,2.8-17.3,2.9c-7,0.1-13.9-1-20.5-3.4
		c0,0.1,0,0.2,0,0.3c0.3,0.1,0.6,0.3,0.8,0.5c0.4,0.5,0.4,1.1,0.3,1.7c0.6-0.3,1.3-0.3,1.9,0c0.6,0.3,1.1,1,1.1,1.7
		c1.1-0.5,2.5-0.2,3.1,0.8c1.7-1.6,4.4-1.4,5.9,0.4c1.2-1.2,3.6-1.3,4.6,0.1c0.7-0.9,1.7-1.4,2.8-1.5c1.1-0.1,2.2,0.4,3,1.2
		c1-1.1,2.9-1.2,4-0.2c0.8-0.7,2.2-0.8,3.1-0.1c0.6-1.6,3-2.5,4.6-1.8C65.5,36.8,66.5,36.2,67.4,36.5z M67.9,28.1
		c-0.1-1.1-0.2-2.2-0.6-3.1c-0.5-1.3-1.2-2.4-2.7-3.2c-4.4-2.4-10.6-2.6-15.5-2.6c-5.2,0-11.9,0.2-16.4,3c-1.1,0.7-1.8,1.6-2.3,2.6
		c-0.3,0.6-0.4,1.3-0.5,2c0,0,0,0,0.1,0C42.3,31.3,55.3,32.2,67.9,28.1z"/>
	<path class="st2" d="M77.2,67.2c2.6,5.5-9.9,6.9-12.9,7.4c-2.5,0.4-5.1,0.8-7.6,1l-0.1-1c0.1,0,0.2-0.1,0.3-0.1
		c0.1,0,0.1,0,0.2-0.1c1-1.2,2.5-1.5,3.8-0.6c0.2,0.1,0.5,0,0.5-0.1c0.4-0.8,3.1-2.5,3.7-0.5c0.1,0.4,0.7,0.3,0.7-0.1
		c0.1,0.1,0.2,0.1,0.3,0c0.7-0.8,1.2-1.7,2.3-2.2c1.2-0.5,2.5-0.3,3.6,0.2c0.2,0.1,0.4,0,0.5-0.1c0.2,0.1,0.4,0,0.4-0.2
		c0-0.6-0.1-1.2,0.4-1.6c0.5-0.5,1.2-0.2,1.7,0.1c0.3,0.1,0.7-0.2,0.5-0.5c0,0,0,0,0,0C75.6,67.9,76.3,67.2,77.2,67.2z"/>
	<path class="st3" d="M76.5,66.2c0,0.1,0,0.2,0.1,0.3c-0.8,0.3-1.6,1-1.7,1.8c-0.6-0.3-1.4-0.2-1.9,0.2c-0.5,0.4-0.8,1.1-0.8,1.7
		c-2.2-1.1-6-0.4-6.5,2.4c-0.8-1.9-3.7-1.2-4.8,0.3c-1.4-0.7-3.1-0.5-4,0.8c-0.6-1.7-2.8-2.3-4.5-2.2c-1.9,0.1-3.7,1-4.8,2.6
		c-0.8-2-4.1-1.8-4.7,0.4c-1.2-2-3.5-3-5.7-2.1c-1.3,0.5-0.9,0.7-2,0.3c-0.9-0.2-1.5-0.3-2.2,0.1c-1.2-2.8-4.6-3.8-7.1-2.1
		c0-1.2-1.1-1.9-2.2-1.7c0-0.9-0.3-1.8-0.9-2.6c-0.1-0.2-0.2-0.3-0.4-0.4c0,0,0-0.1,0-0.1c0-1.4,0-2.9,0-4.3
		c6.8,5.8,17,6.6,25.6,6.7c9.8,0.1,19.6-1.5,28.5-5.5C76.4,63.9,76.4,65.1,76.5,66.2z"/>
	<path class="st4" d="M76.4,60.8c0,0.4,0,0.8,0,1.1c-8.8,4-18.4,5.6-28,5.6c-9.3,0-18.1-1.3-26-6.5c0-0.4,0-0.8,0-1.2
		c7.3,5.7,18.2,7.1,27.2,6.9c5-0.1,10-0.8,14.8-1.8C68.2,64.1,73.2,63.4,76.4,60.8z"/>
	<path class="st5" d="M76.2,54.6c0,1.8,0.1,3.6,0.1,5.4c-3.4,3-9.2,3.7-13.5,4.6c-4.5,0.9-9.1,1.5-13.8,1.6
		c-9,0.2-19.2-1.3-26.7-6.7c0-1.8,0-3.5,0-5.3c0,0,0,0,0,0c8.2,4.3,17.8,5.7,27,5.5C58.3,59.6,68.2,58.7,76.2,54.6z"/>
	<path class="st4" d="M76.2,53.1c0,0.2,0,0.4,0,0.6c-8,4.2-17.9,5.1-26.8,5.2c-9.3,0.2-18.2-1.4-26.7-5.2c-0.1,0-0.2,0-0.3,0
		c0-0.4,0-0.9,0-1.3c0-0.2,0-0.3,0-0.5c3.7,2.4,8,3.5,12.3,4.5c4.6,1,9.3,1.5,14,1.6C58.1,58.1,67.5,56.5,76.2,53.1z"/>
	<path class="st3" d="M76.1,40.8c-0.1,3.8,0,7.7,0,11.5c-8.5,3.3-17.5,5-26.5,4.9c-8.9,0-19.3-1.3-27.2-5.9
		c0.1-3.5,0.3-7.1,0.1-10.5c1.2,1.2,3.4,1.8,4.7,2c0.4,0.1,0.6-0.5,0.2-0.6c-1.7-0.6-7.1-2.2-4.1-4.8c1.3-1.2,3.3-1.5,5.1-1.8
		c-0.5,0.6-0.6,1.4,0,2c0,0.1,0,0.1,0.1,0.2c4.4,4.8,13.4,4.5,19.3,4.5c4.1,0,8.2-0.3,12.3-0.8c3.5-0.5,7-1.1,10.1-2.9
		c0.1,0,0.1-0.1,0.1-0.2c0.9-0.5,1.1-1.9,0.7-2.9c0.8,0.1,1.6,0.2,2.3,0.4c0.8,0.2,1.5,0.6,2,1.2c0.4,0.5,0.5,1.2,0.7,1.7
		c0,0,0,0,0,0c-0.4,3.9-8.1,4-11,4.4c-3.8,0.5-7.7,0.9-11.5,1c-7.3,0.3-14.6-0.2-21.9-0.9c-0.3,0-0.4,0.5-0.1,0.6
		c8.9,1.6,18.1,1.7,27.1,0.9c4.4-0.4,8.8-0.9,13.1-1.8C73.4,42.8,75.3,42.2,76.1,40.8z"/>
	<path class="st2" d="M69.9,35.4c0.5,0.6,0.5,2-0.2,2.4c-0.1,0.1-0.1,0.1-0.2,0.2c-2.6,1.4-5.6,2.3-8.7,2.8l-0.1-0.4
		c0.2,0,0.3-0.2,0.2-0.4c0.6-0.6,1.1-1.1,1.9-1.4c0.9-0.3,1.6-0.1,2.4,0c0.3,0,0.4-0.2,0.4-0.4c0.1-0.4,0.4-0.8,0.8-1
		c0.5-0.2,0.9,0,1.3,0.2c0.3,0.2,0.7-0.2,0.4-0.5c0,0-0.1-0.1-0.1-0.1c0-0.5,0-1,0.4-1.4C68.9,34.9,69.6,34.9,69.9,35.4z"/>
	<path class="st4" d="M68.1,33.5c0,0.2,0,0.4,0,0.5c-12.5,4.1-25.6,3.9-38.1-0.2c0-0.3,0-0.7-0.1-1C42,37.8,55.9,37.7,68.1,33.5z"/>
	<path class="st5" d="M68,30.4c0,0.8,0.1,1.6,0.1,2.4c-12.6,4.2-25.6,3.7-38.2-0.4c-0.1-1-0.2-2.1-0.2-3.1
		C42,33.9,55.5,34.1,68,30.4z"/>
	<path class="st4" d="M67.9,28.8c0,0.2,0,0.5,0,0.7c-12.6,3.7-25.8,3.3-38.2-0.8c0-0.5,0-1,0.1-1.5C41.7,32.6,55.6,32.7,67.9,28.8z"
		/>
	<path class="st3" d="M67.8,35c-0.3,0.4-0.4,0.9-0.4,1.4c-0.9-0.2-2,0.4-2.3,1.3c-1.5-0.7-3.9,0.2-4.6,1.8c-0.9-0.7-2.3-0.6-3.1,0.1
		c-1.1-1-3-0.9-4,0.2c-0.8-0.9-1.9-1.3-3-1.2l0-0.7C56.4,37.8,62.2,36.8,67.8,35z"/>
	<path class="st3" d="M67.3,25c0.3,1,0.5,2,0.6,3.1c-12.6,4.1-25.6,3.2-37.9-1.3c0,0-0.1,0-0.1,0c0.1-0.7,0.3-1.4,0.5-2l1.4,0.3
		c0,0.1,0,0.2,0.1,0.2c10.9,3.9,23.6,3.4,34.6,0.2c0.2-0.1,0.3-0.2,0.2-0.4L67.3,25z"/>
	<path class="st3" d="M67.3,25l-0.5,0.2c0-0.2-0.2-0.4-0.4-0.3C54.8,28.3,43.6,27.7,32,25c-0.1,0-0.2,0-0.2,0.1l-1.4-0.3
		c0.4-1,1.2-1.9,2.3-2.6c4.5-2.8,11.3-3,16.4-3c4.8,0,11.1,0.2,15.5,2.6C66.1,22.6,66.8,23.7,67.3,25z"/>
	<path class="st1" d="M66.7,25.1c0,0.2,0,0.3-0.2,0.4c-11,3.2-23.7,3.7-34.6-0.2c-0.1,0-0.1-0.1-0.1-0.2c0-0.1,0.1-0.1,0.2-0.1
		c11.6,2.7,22.8,3.3,34.3-0.1C66.5,24.8,66.7,25,66.7,25.1z"/>
	<path class="st2" d="M60.7,40.4l0.1,0.4c-4.1,0.6-8.3,0.7-12.1,0.7c-3.6,0-7.8,0.1-11.7-0.6l0.1-0.6c0.2,0.1,0.4,0,0.4-0.2
		c1.7-1.3,3.9-1,5.3,0.6c0.2,0.2,0.5,0.1,0.6-0.2c0.6-0.5,1.3-0.8,2.1-0.7c0.8,0,1.3,0.4,1.9,0.9c0.1,0.1,0.3,0,0.4-0.1
		c0.1,0,0.1,0,0.2-0.1c1.5-1.6,3.7-1.7,5.2,0c0,0,0.1,0,0.1,0.1c0.1,0.1,0.2,0.2,0.4,0c0.9-1,2.3-1.2,3.4-0.4c0,0.2,0.2,0.3,0.4,0.1
		c0,0,0,0,0,0c0.1,0,0.2-0.1,0.2-0.1c0.9-0.6,1.9-0.5,2.8,0.2C60.6,40.4,60.6,40.4,60.7,40.4z"/>
	<path class="st2" d="M56.6,74.6l0.1,1c-2.6,0.2-5.1,0.3-7.7,0.3c-2.2,0-4.3-0.1-6.4-0.2l0-0.7c0.2,0,0.3-0.1,0.4-0.3
		c0.1,0.1,0.3,0.1,0.4,0c0.4-0.8,1.1-1.4,2-1.3c0.9,0.1,1.4,0.8,1.8,1.5c0.1,0.2,0.3,0.2,0.4,0.1c0,0,0.1,0,0.1-0.1
		c1-1.2,2.1-2.1,3.6-2.4c1.7-0.4,4.3-0.1,4.9,1.8C56.2,74.5,56.4,74.6,56.6,74.6z"/>
	<path class="st3" d="M50.5,37.9l0,0.7c-1,0.1-2.1,0.6-2.8,1.5c-1-1.4-3.5-1.3-4.6-0.1c-1.5-1.8-4.2-2-5.9-0.4
		c-0.7-1-2.1-1.4-3.1-0.8c0-0.7-0.6-1.4-1.1-1.7c-0.6-0.3-1.3-0.3-1.9,0c0.1-0.6,0-1.2-0.3-1.7c-0.2-0.3-0.5-0.4-0.8-0.5
		c0-0.1,0-0.2,0-0.3C36.6,36.9,43.6,38,50.5,37.9z"/>
	<path class="st2" d="M42.6,75l0,0.7c-3-0.2-5.9-0.6-8.8-1.1c-2.3-0.4-4.5-0.9-6.7-1.6c-2-0.6-6.7-1.9-7.2-4.5c0-0.7,0.1-1.6,0.7-2
		c0.7-0.4,1.5,0,1.8,0.7c0.1,0.2,0.2,0.2,0.3,0.2c0.2,0.7,0.3,1.4,0.2,2.1c0,0.3,0.3,0.4,0.5,0.3c1-0.6,1.8,0.2,1.7,1.3
		c0,0.2,0.1,0.3,0.3,0.3c0.1,0.1,0.3,0.2,0.4,0.1c2.3-1.6,5.3-0.9,6.4,1.8c0.2,0.4,0.7,0.3,0.8,0c1-0.4,1.9-0.2,2.6,0.6
		c0.1,0.1,0.4,0.1,0.5,0c2.1-1.8,4.8-1.4,6.2,0.9C42.4,75,42.5,75,42.6,75z"/>
	<path class="st2" d="M37.1,40.3L37,40.9c-3-0.5-5.9-1.5-8.2-3.3c0-0.1,0-0.2,0-0.2c-0.5-0.7,0.2-1.7,0.9-1.8c1-0.2,0.8,1.4,0.7,1.9
		c0,0.3,0.4,0.4,0.6,0.2c0.6-0.3,1.2-0.3,1.8,0c0.5,0.3,0.6,0.8,0.8,1.4c0,0.1,0.1,0.1,0.2,0.2c0,0.1,0.1,0.2,0.2,0.1
		c1.1-0.6,2.4-0.1,2.9,1C37,40.2,37,40.3,37.1,40.3z"/>
	<path class="st6" d="M72.1,35.7c-0.3-1.2-2.3-0.7-1.9,0.5c1.6,6.2-19.1,5.2-22,5.1c-3.7,0-7.5-0.1-11.2-0.5
		c-3.3-0.3-6.3-1.1-8.6-3.7c-0.4-0.4-1,0.1-0.8,0.6c1.4,3,4.9,4,7.9,4.5c5.3,0.7,10.7,0.8,16,0.9c4.7,0,9.8,0.4,14.4-0.9
		C68.9,41.4,73,39.3,72.1,35.7z"/>
	<path class="st6" d="M78.8,65.2c0-1.3-1.9-1.3-2,0c0,0.1,0,0.1,0,0.2c-1-0.1-2,0.7-2.5,1.6c-0.7,0-1.4,0.3-1.8,0.6
		c-0.4,0.3-0.7,0.8-0.9,1.3c-1.8-1.5-4.8,0.2-5.8,2.3c-0.8-0.9-2.2-0.8-3.3-0.4C61.8,71,61,71.4,60.6,72c-1.1-0.5-2.5-0.4-3.4,0.4
		c-2.2-2.3-6.6-1.1-9.2,0.5c-1.1-1.5-3.4-1.4-4.7,0C41.9,70.6,38,71,36,72.4c-0.3-0.4-0.8-0.7-1.4-0.7c-0.4,0-0.8,0-1.2,0.2
		c-1.1-2.4-4.8-3-7.2-2c-0.3-0.7-0.8-1.1-1.5-1.3c0-1.2-1.7-2.3-2.6-2.8c-0.4-0.2-0.8,0.3-0.5,0.6c0.4,0.4,0.9,0.8,1.4,1.2
		c0.3,0.3,0.5,0.6,0.6,1c-0.1,0-0.1,0-0.2,0.1c-0.3,0.1-0.2,0.5,0.1,0.5c0,0,0.1,0.1,0.1,0.1c0,0.3,0.3,0.4,0.5,0.4
		c0.4,0.3,0.8,0.6,1.3,1c0,0.3,0.3,0.6,0.6,0.5c2.1-0.8,5.9-0.7,6.5,2c0.1,0.6,1,0.5,1.1,0c0.2-0.1,0.4-0.2,0.7-0.2
		c0.3,0,0.6,0.2,0.7,0.5c0.2,0.3,0.6,0.3,0.9,0.1c0.1,0,0.1,0,0.2,0c2.3-1.2,4.6-1.2,6.3,0.8c0.3,0.4,0.9,0.1,1-0.3
		c0.5-0.4,1-0.7,1.6-0.9c0.8-0.1,1.6,0.2,1.9,1c0.3,0.8,1.5,0.5,1.4-0.2c2.3-1.1,6.2-2.5,8-0.3c0.3,0.3,0.7,0.2,0.9,0
		c1.1-0.6,2-0.6,3.2,0c0.3,0.1,0.6,0.1,0.7-0.1c0.1-0.1,0.2-0.2,0.3-0.3c0.1-0.6,1-0.8,1.5-0.9c0.8-0.2,1.5-0.2,2,0.5
		c0.4,0.4,0.9,0.2,1.1-0.2c0,0,0,0,0,0c1.3-0.7,3.2-3.6,4.8-1.8c0.3,0.4,0.8,0.3,1.1,0c0.1,0,0.3-0.2,0.3-0.4
		c0.1-0.6,0.4-1.2,0.9-1.4c0.5-0.3,1-0.1,1.6-0.1c0.6,0,0.8-0.6,0.6-1c0.1-0.1,0.3-0.2,0.4-0.3c0.4-0.2,0.8-0.2,1.2-0.2
		c0.1,0.2,0.1,0.4,0.2,0.6c0.5,1.6,0,2.7-1.4,3.5c-2.2,1.3-5.1,1.9-7.6,2.6c-5.3,1.4-10.8,2.2-16.3,2.4C46.5,76.4,41.2,76,35.9,75
		c-2.7-0.5-5.3-1.1-8-1.9c-2.4-0.7-7.1-1.4-8-4.1c-0.1-0.4-0.7-0.3-0.7,0.1c0,2.2,2,3,3.8,3.7c3,1.3,6,2.2,9.2,3
		c6.6,1.6,13.5,2.3,20.3,2.1c6.7-0.2,13.4-1.2,19.8-3.2c2.3-0.7,5.1-1.4,6.7-3.3C80.6,69.2,78.8,67.6,78.8,65.2z"/>
	<path class="st6" d="M68.3,34.6c-0.9-0.2-1.7,0.4-2,1.3c-0.5,0.1-1,0.4-1.4,0.8c-1.5-0.2-3.6,0.4-4.5,1.7c-0.9-0.6-2.5-0.5-3.2,0.3
		c-0.8-0.5-2.1-0.4-2.9,0.1c-0.8-0.9-2.3-1.1-3.4-0.9c-1.1,0.1-2.5,0.4-3.1,1.3c-1.1-1.2-3.4-1.2-4.7-0.3c-1.5-1.3-4.2-1.4-5.5,0.1
		c-0.6-0.7-1.7-1.2-2.6-0.9c-0.6-1-1.8-1.6-3-1.7c-0.1-0.9-0.9-1.8-1.9-1.8c-0.4,0-0.5,0.7-0.1,0.7c0.4,0.1,0.7,0.3,0.8,0.7
		c0.1,0.2,0.1,0.4,0.1,0.5c0,0-0.1,0-0.1,0c-0.4,0.1-0.4,0.6-0.1,0.8c0.1,0.4,0.5,0.7,0.8,0.3c0.1-0.1,0.1-0.1,0.1-0.2
		c0.4,0.1,0.7,0.2,1.1,0.3c0.6,0.3,0.9,0.8,1.4,1.2c0.2,0.2,0.5,0.2,0.7,0c0.8,0,1.5,0.2,2,1c0.2,0.3,0.6,0.3,0.8,0.1c0,0,0,0,0.1,0
		c1.6-1,3.1-1.2,4.7,0.1c0.4,0.3,0.8,0.1,1-0.2c0.6-0.2,1.3-0.4,2-0.3c0.7,0.1,1.2,0.5,1.9,0.8c0.2,0.1,0.4,0,0.6-0.2
		c0.1,0,0.2,0,0.3-0.1c0.6-0.8,1.7-0.8,2.6-0.9c1.2-0.1,1.9,0.2,2.7,1c0.4,0.4,1.1,0.1,1.1-0.5c0.3-0.1,0.6-0.2,1-0.2
		c0.5,0.1,0.9,0.5,1.4,0.6c0.4,0.1,0.7-0.2,0.8-0.5c0.3-0.2,0.6-0.3,1-0.3c0.6,0,0.9,0.3,1.4,0.5c0.4,0.1,0.7-0.2,0.8-0.5
		c0.5-0.3,1-0.7,1.6-1c0.8-0.3,1.5-0.2,2.3-0.1c0.4,0,0.7-0.3,0.7-0.6c0.4-0.2,0.8-0.3,1.2-0.3c0.4,0,0.7-0.3,0.7-0.7
		c0.1-0.4,0.5-0.5,0.8-0.7C68.9,35.6,69,34.7,68.3,34.6z"/>
</g>
</svg>
