<?xml version="1.0" encoding="utf-8"?>
<!-- Generator: Adobe Illustrator 23.0.1, SVG Export Plug-In . SVG Version: 6.00 Build 0)  -->
<svg version="1.1" id="Layer_1" xmlns="http://www.w3.org/2000/svg" xmlns:xlink="http://www.w3.org/1999/xlink" x="0px" y="0px"
	 viewBox="0 0 100 100" style="enable-background:new 0 0 100 100;" xml:space="preserve">
<style type="text/css">
	.st0{fill:#7D3838;}
	.st1{fill:#FFCEAB;}
	.st2{fill:#371C2A;}
</style>
<g>
	<g>
		<path class="st0" d="M34.6,39.3c-1.8-1-4-2-6-1.8c-0.1,0-0.1,0-0.1,0c-2.5,0.7-4.9,1.5-7.4,2.2c0.7,0.3,1.5,0.6,2.2,0.9
			c1.3,0.5,2.5,1.1,3.7,1.7C29.6,41.5,32,40.3,34.6,39.3z"/>
		<path class="st0" d="M61.4,37.9C61.4,37.9,61.4,37.9,61.4,37.9c2.2-0.6,4.2-1.4,6.2-2.4c-0.7-0.2-1.4-0.3-2-0.6
			c-1.1-0.5-2.2-1.1-3.4-1.6c-2.2,0.7-4.4,1.5-6.6,2.4c0.8,0.2,1.6,0.6,2.5,0.9C59.3,37,60.4,37.2,61.4,37.9z"/>
		<path class="st0" d="M47.8,35.2c-1.7-1-3.9-1.8-5.8-1.5c0,0.1-0.1,0.1-0.2,0.1c-2.5,0.8-5.1,1.5-7.7,2.2c2,0.5,3.9,1.1,5.6,2.3
			C42.4,37.3,45.1,36.2,47.8,35.2z"/>
		<path class="st0" d="M77.9,39.1c-0.7-0.4-1.6-0.6-2.3-0.9c-1.2-0.6-2.2-1.3-3.6-1.2c-2.1,0.8-4.2,1.6-6.3,2.4
			c2.1,0.6,4.4,1.1,6.1,2.4C73.8,40.8,75.8,39.9,77.9,39.1z"/>
		<path class="st0" d="M56.7,39.1c-2-1-4.1-1.7-6.2-2.5c-2.6,1-5.1,1.9-7.7,2.9c2.5,0.3,4.9,1.2,7.1,2.5
			C52.2,41,54.4,40.1,56.7,39.1z"/>
		<path class="st0" d="M37.6,40.7c-2.6,1.1-5.1,2.2-7.7,3.3c1.6,0.3,3.1,0.7,4.7,1.2c1.1,0.4,2.3,0.7,3.2,1.5c2.2-1.2,4.4-2.2,6.8-3
			c-0.8-0.4-1.5-0.9-2.3-1.3C40.8,41.6,39.2,41.1,37.6,40.7z"/>
		<path class="st0" d="M64.3,41.7c-1.3-0.4-2.8-1-4.1-0.9c-0.1,0-0.2,0-0.2-0.1c-2.2,0.9-4.4,1.8-6.5,2.8c2.4,0.6,4.6,1.8,6.8,2.8
			c2.6-0.8,5.1-1.7,7.6-2.9c-0.5-0.4-1.3-0.6-1.8-0.9C65.5,42.3,64.9,41.9,64.3,41.7z"/>
		<path class="st0" d="M41.3,48.6c1.1,0.3,2.3,0.8,3.3,1.1c1.1,0.4,2.3,0.6,3.1,1.5c2.7-1.2,5.3-2.4,8-3.7c-2.1-1.1-4.6-2.4-7-2.4
			C46.3,46.2,43.8,47.4,41.3,48.6z"/>
		<path class="st0" d="M51.6,33.3c0.3,0.1,0.6,0.4,0.9,0.5c0.1,0,0.1,0.1,0.2,0.1c2-0.7,4-1.4,5.9-2.1c-1.6-0.6-3.2-1.1-4.8-1.6
			c-2.2,0.5-4.4,1-6.5,1.6c0.9,0.3,1.8,0.6,2.7,0.8C50.5,33,51.1,33.1,51.6,33.3z"/>
		<path class="st1" d="M52.8,60.4c2.3,0.4,4.5,0.8,6.8,1.2c0,0,0,0,0.1-0.1c4.5-2.7,8.7-6.3,12.8-9.7C65.9,54.6,59.3,57.4,52.8,60.4
			z"/>
		<path class="st0" d="M59.6,62.5c-2.7-0.5-5.4-0.9-8.1-1.4c0,0,0,0-0.1,0c-1.2,0.6-2.5,1.2-3.7,1.8c-0.1,0.1-0.1,0.1-0.2,0.2
			c-0.1,0.2-0.4,0.4-0.6,0.2c-1.6-0.8-3.1-1.7-4.7-2.5c0,0,0,0-0.1,0c-9-2.6-18-5.9-27.1-7.8c0.2,2.7,0.4,5.5,0.7,8.2
			c14.6,3.5,29.3,7,43.9,10.6c0,0,0-0.1,0-0.1c0.4-1.5,0.2-3.2,0.2-4.7C59.7,65.4,59.6,63.9,59.6,62.5z"/>
		<path class="st0" d="M75.4,50.6C75.4,50.6,75.3,50.6,75.4,50.6c-4.8,3.9-9.6,8.3-14.9,11.5c0,1.8,0.1,3.7,0.1,5.5
			c0,1,0.1,2.1,0,3.1c4.5-4.2,9.1-8.2,13.8-12.1c1.7-1.5,3.7-2.8,5.3-4.5c0.6-0.6,0.4-0.2,0.5-0.6c0.3-1.2-0.2-3.1-0.4-4.5
			C78.2,49.6,76.7,50,75.4,50.6z"/>
		<path class="st0" d="M60.6,49.6c-2.9,1.2-5.8,2.5-8.8,3.6c-1.2,0.5-3.1,1.7-4.5,1.7c0,1.2,0,2.4,0.1,3.6c0,0.8-0.1,2.4,0.1,3.4
			c8.2-3.9,16.5-7.5,24.9-11c3.1-1.3,6.3-2.7,9.4-4.1c1-0.5,1.3-0.4,1.5-1.3c0.6-1.7,0.2-4.2,0.1-6.2C76,43,68.3,46.3,60.6,49.6z"/>
		<path class="st1" d="M20.6,50.8C20.6,50.8,20.6,50.8,20.6,50.8c-1.5,0.5-3,1-4.5,1.5c7.3,1.6,14.4,4,21.6,6.2
			C32,55.7,26.4,53.1,20.6,50.8z"/>
		<path class="st1" d="M40.6,51.1c1.8,0.8,3.6,1.6,5.4,2.4c0.3,0.2,0.8,0.5,1.2,0.5c0,0,0.1-0.1,0.5-0.2c5.4-1.7,10.7-4.3,15.9-6.5
			c6.4-2.8,12.9-5.6,19.1-8.7c-4.7-1.7-9.5-3.5-14.2-5.2c-3.1-1.1-6.2-2.3-9.3-3.4c-1.6-0.6-3.5-1.7-5.2-1.9c0,0-0.1,0-0.1,0
			c0,0-0.1,0-0.3,0.1c-0.6,0.1-1.2,0.3-1.7,0.5c-2.4,0.7-4.9,1.4-7.3,2.1c-9.8,2.9-19.6,5.8-29.4,8.7c3.2,1.5,6.5,2.9,9.7,4.4
			C30.1,46.3,35.4,48.7,40.6,51.1z M37.1,47.3c-1.1-0.9-2.6-1.2-3.9-1.6c-1.4-0.4-2.8-0.7-4.3-1c-0.2,0-0.3-0.2-0.3-0.4
			c-0.3-0.2-0.3-0.6,0-0.7c3.1-1.3,6.2-2.7,9.3-4c0.3-0.1,0.6,0.1,0.7,0.4c1,0.3,2.1,0.6,3.1,1c1.4,0.6,2.6,1.6,4.1,2.2
			c0.5,0,0.6,0.7,0.1,0.9c-2.8,1-5.5,2.2-8.1,3.6C37.4,47.9,37.1,47.6,37.1,47.3z M41.6,39c2.8-1,5.6-2.1,8.4-3.1
			c0.1-0.2,0.3-0.3,0.5-0.2c0,0,0,0,0,0c0.1,0,0.3,0,0.3,0.1c2.3,0.8,4.7,1.7,6.9,2.8c0.1,0,0.2-0.1,0.2-0.1
			c0.5-0.2,0.8,0.6,0.2,0.9c-0.1,0-0.1,0-0.2,0.1c-0.1,0.1-0.2,0.1-0.3,0.1c-2.6,1.1-5.1,2.2-7.7,3.3c0,0,0,0-0.1,0
			c-0.1,0.1-0.2,0.1-0.4,0c-2.4-1.5-5-2.4-7.9-2.6c-0.4,0-0.5-0.4-0.4-0.7C41.3,39.4,41.3,39.1,41.6,39z M56.8,48.1
			c-3,1.4-6,2.8-9.1,4.1C47.3,52.4,47,52,47,51.7c-0.8-0.7-2.1-1-3.1-1.3c-1.1-0.4-2.4-1-3.6-1.1c-0.4,0-0.5-0.4-0.4-0.7
			c-0.1-0.2-0.1-0.4,0.2-0.5c2.6-1.3,5.3-2.6,8.1-3.7c0.1-0.1,0.2-0.2,0.3-0.2c0,0,0.1,0,0.1,0c0,0,0.1,0,0.1,0c2.7,0,5.7,1.5,8,2.8
			c0.2,0.1,0.3,0.4,0.2,0.6C57,47.8,57,48,56.8,48.1z M69,43.9c-2.7,1.4-5.6,2.5-8.5,3.4c0,0,0,0-0.1,0c-0.1,0.1-0.2,0.1-0.4,0
			c-2.5-1.1-5.2-2.7-7.9-3c-0.2,0-0.3-0.2-0.4-0.3c-0.1-0.2-0.1-0.5,0.2-0.6c2.8-1.3,5.6-2.5,8.4-3.6c0.3-0.1,0.4,0,0.5,0.3
			c0.7,0.1,1.3,0.3,2.1,0.5c0.7,0.2,1.5,0.3,2.3,0.6c1,0.4,2.8,1.1,3.6,2C69.1,43,69.5,43.6,69,43.9z M72.1,36
			c1.3,0,2.4,0.6,3.5,1.2c1.1,0.6,2.3,0.8,3.3,1.5c0,0,0,0,0,0c0.5-0.2,0.8,0.7,0.2,0.9c-2.5,0.9-4.9,2-7.3,3.1
			c-0.3,0.1-0.6,0-0.6-0.3c-2-1.3-4.6-1.8-6.9-2.5c-0.2-0.1-0.3-0.2-0.3-0.4c0-0.2,0-0.4,0.3-0.5c2.5-1,5-1.9,7.6-2.9
			C71.9,36,72,36,72.1,36z M62.6,32.5c1,0.3,2,0.8,2.9,1.3c1.1,0.6,2.1,0.8,3.3,1.1c0.1,0,0.2,0.1,0.3,0.2c0.3,0.2,0.4,0.6,0,0.8
			c-2.5,1.2-5,2.2-7.6,3c-0.2,0.1-0.4,0-0.5-0.2c0,0,0,0,0,0c-0.9-0.7-2-0.8-3.1-1.2c-1.2-0.4-2.3-1-3.5-1.1c-0.1,0-0.2,0-0.2-0.1
			c-0.4,0-0.6-0.7-0.1-0.9c2.7-1.1,5.4-2.1,8.1-3C62.3,32.4,62.5,32.4,62.6,32.5z M45.7,31.5c2.5-0.7,5-1.3,7.4-1.9
			c0.1-0.2,0.3-0.3,0.5-0.2c2,0.6,4,1.2,6,1.9c0.3,0.1,0.3,0.4,0.3,0.6c0.1,0.2,0,0.5-0.3,0.6c-2.5,0.9-5,1.7-7.5,2.6
			c-0.4,0.2-0.7-0.4-0.5-0.7c-0.2-0.1-0.3-0.2-0.6-0.3c-0.5-0.2-1-0.3-1.5-0.5c-1.2-0.4-2.4-0.8-3.6-1.1c-0.1,0-0.2-0.1-0.2-0.1
			C45.3,32.2,45.3,31.6,45.7,31.5z M32.4,35.4c2.9-0.7,5.7-1.4,8.5-2.3c0-0.1,0.1-0.2,0.3-0.2c2.5-0.6,5.6,0.6,7.7,2c0,0,0,0,0,0
			c0.3,0.1,0.4,0.7-0.1,0.9c-3,1.2-6.1,2.3-9.1,3.5c-0.2,0.1-0.3,0-0.4-0.1c0,0-0.1,0-0.1,0c-2-1.5-4.3-2-6.7-2.6
			c-0.2,0-0.3-0.2-0.3-0.3C32.1,35.9,32.1,35.5,32.4,35.4z M19.4,40.2c-0.5,0-0.6-0.8-0.1-0.9c0,0,0.1,0,0.1-0.1
			c3.1-0.9,6.1-1.9,9.2-2.8c0.2-0.1,0.3,0,0.4,0.1c2.3,0,4.8,1.2,6.7,2.3c0.3-0.1,0.5,0.3,0.5,0.5c0,0.3-0.3,0.5-0.6,0.4
			c-3,1.1-5.9,2.6-9,3.5c-0.3,0.1-0.6-0.2-0.6-0.5c-1-0.5-2-1-3-1.4C21.9,41,20.6,40.3,19.4,40.2z"/>
		<path class="st0" d="M46.7,62.1c-0.2-0.8-0.1-1.9-0.1-2.7c-0.1-1.6-0.1-3.1-0.1-4.7c-0.4-0.2-0.8-0.4-1.1-0.5
			c-1.9-0.9-3.9-1.8-5.8-2.6c-8.4-3.8-16.9-7.7-25.3-11.5c0.3,1.9,0.4,3.7,0.7,5.6c0.3,2.3,1,2.3,3.1,3.1c3,1.1,5.9,2.4,8.8,3.6
			C33.6,55.4,40.2,58.6,46.7,62.1z"/>
	</g>
	<g>
		<path class="st2" d="M85.5,38.6c0-0.1-0.1-0.2-0.1-0.3c0,0,0,0,0,0c0,0-0.1,0-0.1-0.1c0,0,0,0-0.1,0c-4.3-1.6-8.7-3.2-13-4.8
			c-5.3-1.9-10.8-4.6-16.3-6c-2.3-0.6-5.3,1.1-7.6,1.7c-6.5,1.9-13,3.8-19.5,5.7c-4.6,1.4-9.3,2.7-13.9,4.1
			c-0.2,0.1-0.4,0.4-0.3,0.6c-0.1,0.1-0.2,0.2-0.2,0.4c0.5,2.6,0.7,5.2,0.7,7.9c0,0.2,0.1,0.4,0.3,0.4c1.7,0.6,3.3,1.2,5,1.9
			c-1.6,0.5-3.2,1-4.8,1.6c-0.2,0-0.4,0.1-0.4,0.2c-0.1,0.1-0.1,0.3-0.1,0.4c0,0,0,0.1,0.1,0.1c0.2,2.9,0.4,5.8,0.7,8.7
			c-0.1,0.2,0,0.5,0.3,0.5c14.9,3.6,29.9,7.2,44.8,10.8c0.4,0.1,0.6-0.3,0.5-0.6c5.2-4.9,10.6-9.5,16.1-14.1c1.1-1,3.6-2.3,4.4-3.7
			c0.7-1.3,0-4-0.3-5.6c1.1-0.5,2.1-1,3-1.6C86.5,45.6,85.6,40.8,85.5,38.6z M45.8,30.9c2.4-0.7,4.9-1.4,7.3-2.1
			c0.6-0.2,1.2-0.4,1.7-0.5c0.2,0,0.3-0.1,0.3-0.1c0,0,0,0,0.1,0c1.7,0.2,3.6,1.3,5.2,1.9c3.1,1.1,6.2,2.3,9.3,3.4
			c4.7,1.7,9.5,3.5,14.2,5.2c-6.3,3.1-12.7,5.9-19.1,8.7c-5.2,2.2-10.5,4.8-15.9,6.5c-0.4,0.1-0.6,0.2-0.5,0.2
			c-0.4-0.1-0.8-0.4-1.2-0.5c-1.8-0.8-3.6-1.6-5.4-2.4c-5.3-2.4-10.5-4.8-15.8-7.2c-3.2-1.5-6.5-2.9-9.7-4.4
			C26.2,36.6,36,33.8,45.8,30.9z M60.9,61.5C60.8,61.5,60.8,61.6,60.9,61.5c-2.3-0.3-4.6-0.7-6.9-1.1c6.5-3,13.1-5.8,19.7-8.6
			C69.6,55.2,65.4,58.8,60.9,61.5z M52.6,61.1C52.6,61.1,52.6,61.1,52.6,61.1c2.8,0.5,5.5,1,8.2,1.4c0,1.4,0.1,2.9,0.1,4.3
			c0,1.5,0.2,3.2-0.2,4.7c0,0,0,0.1,0,0.1c-14.6-3.5-29.3-7-43.9-10.6c-0.3-2.7-0.5-5.4-0.7-8.2c9.1,1.9,18.2,5.2,27.1,7.8
			c0,0,0,0,0.1,0c1.6,0.8,3.1,1.6,4.7,2.5c0.3,0.1,0.5,0,0.6-0.2c0.1,0,0.2-0.1,0.2-0.2C50.1,62.2,51.4,61.7,52.6,61.1z M16.1,45.6
			c-0.2-1.9-0.3-3.7-0.7-5.6c8.4,3.8,16.9,7.7,25.3,11.5c1.9,0.9,3.9,1.8,5.8,2.6c0.4,0.2,0.7,0.4,1.1,0.5c0,1.6,0,3.1,0.1,4.7
			c0,0.7-0.1,1.8,0.1,2.7c-6.5-3.5-13.1-6.7-19.9-9.7c-2.9-1.3-5.9-2.5-8.8-3.6C17.1,48,16.4,48,16.1,45.6z M38.8,58.5
			c-7.1-2.2-14.3-4.6-21.6-6.2c1.5-0.5,3-1,4.5-1.5c0,0,0,0,0,0C27.5,53.1,33.2,55.7,38.8,58.5z M81.3,53.4c-0.1,0.4,0.2,0-0.5,0.6
			c-1.6,1.6-3.5,3-5.3,4.5c-4.6,4-9.3,7.9-13.8,12.1c0.1-1,0-2.1,0-3.1c0-1.8-0.1-3.7-0.1-5.5c5.3-3.2,10-7.6,14.8-11.4
			c0,0,0,0,0-0.1c1.3-0.5,2.8-1,4.2-1.6C81.1,50.3,81.6,52.2,81.3,53.4z M84.5,45.5c-0.3,0.8-0.5,0.8-1.5,1.3
			c-3.1,1.4-6.3,2.7-9.4,4.1c-8.3,3.6-16.7,7.1-24.9,11c-0.3-1-0.1-2.6-0.1-3.4c-0.1-1.2-0.1-2.4-0.1-3.6c1.4,0,3.3-1.2,4.5-1.7
			c2.9-1.2,5.9-2.4,8.8-3.6c7.7-3.2,15.4-6.5,22.8-10.2C84.8,41.3,85.1,43.8,84.5,45.5z"/>
		<path class="st2" d="M46.9,32.3c0.1,0.1,0.1,0.1,0.2,0.1c1.2,0.4,2.4,0.8,3.6,1.1c0.5,0.2,1.1,0.3,1.5,0.5
			c0.3,0.1,0.4,0.2,0.6,0.3c-0.2,0.3,0,0.8,0.5,0.7c2.5-0.9,5-1.7,7.5-2.6c0.3-0.1,0.4-0.4,0.3-0.6c0.1-0.2,0-0.5-0.3-0.6
			c-2-0.7-4-1.4-6-1.9c-0.2-0.1-0.4,0.1-0.5,0.2c-2.5,0.6-5,1.2-7.4,1.9C46.4,31.6,46.5,32.2,46.9,32.3z M51.2,32.8
			c-0.9-0.3-1.8-0.6-2.7-0.8c2.2-0.6,4.3-1.1,6.5-1.6c1.6,0.5,3.2,1,4.8,1.6c-2,0.7-4,1.4-5.9,2.1c0,0-0.1-0.1-0.2-0.1
			c-0.3-0.1-0.6-0.3-0.9-0.5C52.3,33.1,51.7,33,51.2,32.8z"/>
		<path class="st2" d="M55.3,36.3c0.1,0.1,0.1,0.1,0.2,0.1c1.3,0.1,2.3,0.7,3.5,1.1c1.1,0.4,2.1,0.5,3.1,1.2c0,0,0,0,0,0
			c0.1,0.2,0.3,0.3,0.5,0.2c2.6-0.8,5.2-1.8,7.6-3c0.4-0.2,0.2-0.6,0-0.8c0-0.1-0.1-0.2-0.3-0.2c-1.2-0.3-2.2-0.5-3.3-1.1
			c-0.9-0.5-1.9-0.9-2.9-1.3c-0.1-0.1-0.2-0.1-0.4-0.1c-2.7,0.9-5.5,1.9-8.1,3C54.8,35.6,54.9,36.3,55.3,36.3z M66.8,34.9
			c0.6,0.3,1.3,0.5,2,0.6c-2,0.9-4.1,1.7-6.2,2.4c0,0,0,0,0,0c-1-0.7-2.1-0.9-3.3-1.3c-0.8-0.3-1.6-0.7-2.5-0.9
			c2.2-0.8,4.4-1.6,6.6-2.4C64.7,33.8,65.7,34.3,66.8,34.9z"/>
		<path class="st2" d="M65.2,39.5c0,0.2,0.1,0.4,0.3,0.4c2.3,0.7,4.9,1.2,6.9,2.5c0.1,0.2,0.4,0.4,0.6,0.3c2.4-1.1,4.9-2.2,7.3-3.1
			c0.5-0.2,0.3-1.1-0.2-0.9c0,0,0,0,0,0c-0.9-0.7-2.2-1-3.3-1.5c-1.1-0.6-2.2-1.1-3.5-1.2c-0.1,0-0.2,0-0.3,0c-2.5,1-5,1.9-7.6,2.9
			C65.2,39,65.1,39.3,65.2,39.5z M79.1,39.1C77,39.9,75,40.8,73,41.7c-1.8-1.2-4-1.8-6.1-2.4c2.1-0.8,4.2-1.6,6.3-2.4
			c1.4,0,2.4,0.7,3.6,1.2C77.5,38.5,78.4,38.7,79.1,39.1z"/>
		<path class="st2" d="M69.9,43.1c-0.8-0.9-2.5-1.6-3.6-2c-0.7-0.3-1.5-0.4-2.3-0.6c-0.7-0.2-1.4-0.5-2.1-0.5
			c-0.1-0.2-0.2-0.4-0.5-0.3c-2.8,1.1-5.6,2.3-8.4,3.6c-0.3,0.1-0.3,0.4-0.2,0.6c0.1,0.2,0.2,0.3,0.4,0.3c2.7,0.3,5.4,2,7.9,3
			c0.1,0.1,0.3,0,0.4,0c0,0,0,0,0.1,0c3-0.9,5.8-2,8.5-3.4C70.7,43.6,70.3,43,69.9,43.1z M65.4,41.7c0.6,0.2,1.2,0.5,1.8,0.8
			c0.4,0.2,1.3,0.5,1.8,0.9c-2.4,1.2-5,2.1-7.6,2.9c-2.2-1-4.5-2.2-6.8-2.8c2.1-1,4.3-1.9,6.5-2.8c0.1,0,0.1,0.1,0.2,0.1
			C62.7,40.7,64.2,41.4,65.4,41.7z"/>
		<path class="st2" d="M46.9,43.2c-1.4-0.6-2.6-1.5-4.1-2.2c-1-0.4-2-0.8-3.1-1c0-0.3-0.3-0.5-0.7-0.4c-3.1,1.3-6.2,2.7-9.3,4
			c-0.4,0.2-0.3,0.5,0,0.7c0,0.2,0.1,0.3,0.3,0.4c1.4,0.3,2.9,0.6,4.3,1c1.3,0.4,2.9,0.7,3.9,1.6c0,0.3,0.3,0.6,0.7,0.4
			c2.6-1.4,5.3-2.6,8.1-3.6C47.5,43.9,47.4,43.2,46.9,43.2z M31.1,44c2.6-1.1,5.1-2.2,7.7-3.3c1.6,0.4,3.1,0.9,4.6,1.6
			c0.8,0.4,1.5,0.9,2.3,1.3c-2.3,0.9-4.6,1.9-6.8,3c-0.9-0.8-2-1.2-3.2-1.5C34.2,44.7,32.7,44.3,31.1,44z"/>
		<path class="st2" d="M33.8,36.5c2.4,0.7,4.7,1.1,6.7,2.6c0,0,0.1,0,0.1,0c0.1,0.1,0.2,0.1,0.4,0.1c3-1.2,6.1-2.3,9.1-3.5
			c0.4-0.2,0.4-0.7,0.1-0.9c0,0,0,0,0,0c-2.1-1.4-5.2-2.6-7.7-2c-0.1,0-0.2,0.1-0.3,0.2c-2.8,0.9-5.6,1.7-8.5,2.3
			c-0.4,0.1-0.4,0.5-0.2,0.7C33.5,36.3,33.6,36.4,33.8,36.5z M49,35.2c-2.7,1-5.4,2.1-8.1,3.1c-1.7-1.3-3.6-1.8-5.6-2.3
			c2.6-0.6,5.2-1.4,7.7-2.2c0.1,0,0.1-0.1,0.2-0.1C45.1,33.4,47.3,34.2,49,35.2z"/>
		<path class="st2" d="M42.9,40.3c2.9,0.2,5.5,1.1,7.9,2.6c0.1,0.1,0.3,0.1,0.4,0c0,0,0,0,0.1,0c2.6-1.1,5.1-2.2,7.7-3.3
			c0.1,0,0.2,0,0.3-0.1c0.1,0,0.1,0,0.2-0.1c0.5-0.2,0.3-1.1-0.2-0.9c-0.1,0-0.2,0.1-0.2,0.1c-2.2-1.2-4.6-2-6.9-2.8
			c-0.1-0.1-0.2-0.1-0.3-0.1c0,0,0,0,0,0c-0.2-0.1-0.4,0-0.5,0.2c-2.8,1-5.6,2.1-8.4,3.1c-0.3,0.1-0.3,0.4-0.3,0.6
			C42.4,39.9,42.6,40.3,42.9,40.3z M51.1,42c-2.2-1.4-4.6-2.2-7.1-2.5c2.6-1,5.1-1.9,7.7-2.9c2.1,0.7,4.2,1.5,6.2,2.5
			C55.6,40.1,53.4,41,51.1,42z"/>
		<path class="st2" d="M58,47.1c-2.3-1.3-5.3-2.8-8-2.8c0,0-0.1,0-0.1,0c0,0-0.1,0-0.1,0c-0.2,0-0.3,0.1-0.3,0.2
			c-2.7,1.1-5.4,2.4-8.1,3.7c-0.2,0.1-0.3,0.3-0.2,0.5c-0.1,0.3,0,0.6,0.4,0.7c1.1,0,2.5,0.7,3.6,1.1c1.1,0.3,2.3,0.6,3.1,1.3
			c0,0.3,0.3,0.7,0.7,0.5c3-1.4,6-2.8,9.1-4.1c0.2-0.1,0.3-0.3,0.2-0.4C58.3,47.4,58.3,47.2,58,47.1z M42.5,48.6
			c2.5-1.2,4.9-2.3,7.5-3.4c2.3,0,4.9,1.2,7,2.4c-2.7,1.2-5.3,2.4-8,3.7c-0.8-0.8-2-1.1-3.1-1.5C44.8,49.4,43.6,48.8,42.5,48.6z"/>
		<path class="st2" d="M20.6,40.2c1.2,0.1,2.5,0.8,3.6,1.2c1,0.4,2.1,0.9,3,1.4c0,0.3,0.2,0.6,0.6,0.5c3.1-0.8,6-2.4,9-3.5
			c0.3,0.1,0.6-0.2,0.6-0.4c0.1-0.3-0.1-0.6-0.5-0.5c-1.9-1.2-4.4-2.4-6.7-2.3c-0.1-0.1-0.2-0.1-0.4-0.1c-3.1,0.9-6.1,1.9-9.2,2.8
			c0,0-0.1,0-0.1,0.1C20,39.4,20,40.2,20.6,40.2z M22.3,39.7c2.5-0.7,4.9-1.5,7.4-2.2c0,0,0.1,0,0.1,0c2-0.2,4.2,0.8,6,1.8
			c-2.6,1-5,2.2-7.7,3c-1.2-0.7-2.4-1.2-3.7-1.7C23.8,40.3,23,40,22.3,39.7z"/>
	</g>
</g>
</svg>
