<?xml version="1.0" encoding="utf-8"?>
<!-- Generator: Adobe Illustrator 23.0.1, SVG Export Plug-In . SVG Version: 6.00 Build 0)  -->
<svg version="1.1" id="Layer_1" xmlns="http://www.w3.org/2000/svg" xmlns:xlink="http://www.w3.org/1999/xlink" x="0px" y="0px"
	 viewBox="0 0 100 100" style="enable-background:new 0 0 100 100;" xml:space="preserve">
<style type="text/css">
	.st0{fill:#1C1C1B;}
	.st1{fill:#CCE7E9;}
	.st2{fill:#F8C954;}
	.st3{fill:#F2AE51;}
	.st4{fill:#B18C5D;}
	.st5{fill:#EE9A27;}
	.st6{fill:#FFFFFF;}
	.st7{opacity:0.11;fill:#1C1C1B;}
</style>
<g>
	<path class="st0" d="M85.8,65.3c1,2.9-1.3,5-3.6,6.4c-6.2,3.7-13.6,4.6-20.7,5.2c-8.3,0.6-16.7,0.7-24.9-0.3
		c-3.9-0.5-7.8-1.2-11.6-2.2c-3.1-0.8-7.4-1.6-9.7-4.1c-4.4-4.5,2.3-8.7,6.4-9.7c0-0.4,0-0.7,0-1.1c-0.6-0.3-0.9-0.9-1.1-1.9
		c-0.6-3.5-0.1-7.7,0.4-11.2c0-0.1,0-0.1,0.1-0.1c-1.7-1.7-0.9-5.7-0.5-7.6c0.8-4.2,3.5-6.7,7.6-7.7c5.1-1.3,10.8-1.5,16-1.3
		c0.1-0.6,0.2-1.1,0.3-1.6c0.6-2.4,2.1-4.6,4.6-5.2c0.1,0,0.1,0,0.2,0c-0.1-0.2,0.1-0.4,0.3-0.2c2.1,1.8,4,3.9,6,5.8
		c0.5,0.4,1,0.8,1.5,1.2c6.8-0.5,24.8-1,23,10.4c-0.3,1.7-1.1,3.2-2.3,4.2c-1.2,1.1-2.9,1.8-4.6,1.8C70.5,46.2,68.6,44,66,44
		c-2.2,0-4,1.8-5.8,2.8c-3.5,2-6.2,0.8-9.7-0.7c-1.6-0.7-3.2-1.2-4.9-0.7c-1.3,0.4-2.4,1.2-3.7,1.7c-2,0.8-4.2,0.9-6.3,0.3
		c-3.4-1-5.4-3-9.1-1.4c-1.4,0.6-2.7,1.4-4.3,1c-0.2-0.1-0.5-0.2-0.6-0.3c-0.1,2.3-0.3,4.6-0.3,7c0,1.1,0,2.2,0.1,3.3
		c0.2,1.5,1.2,1.5,2.5,1.5c1.3,0,2.2-0.1,3.5,0.5c1.8,0.8,3.3,2.4,5.3,2.6c3.4,0.3,5.1-3.4,8.2-4.1c2.2-0.5,3.9,0.9,5.5,2.2
		c1.7,1.5,3.4,3,5.9,2.2c2.1-0.7,3.6-2.6,5.2-4c1.9-1.6,4.5-2.8,6.8-1.5c1.5,0.8,2.4,2.5,3.9,3.4c2.3,1.3,5.2,0.6,7.1-1.2
		c3.7-3.6,2.9-9.4,2.3-13.9c0-0.2,0-0.3,0.2-0.4c0.2-0.2,0.7-0.2,0.7,0.2c0.6,3.9,1,9.6-1.2,13.4c0.2-0.3,0.9-0.3,0.9,0.3
		c0,0.6,0,1.1,0,1.7C81.2,60.4,84.8,62.3,85.8,65.3z M82.4,70.4c5.7-3.7,0.3-8.3-4.2-9.6c0,1.9,0.1,3.8-0.3,5.5
		c-0.4,1.8-2.1,2.3-3.7,2.8c-5.4,2-11.4,2.2-17.1,2.4c-6.5,0.2-13,0.2-19.4-0.4c-5.4-0.5-11.1-1.7-15.5-5c-0.2-0.2-0.2-0.4,0-0.6
		c0,0,0-0.1,0-0.2c-0.2-1.3-0.3-2.7-0.3-4.1c-1.7,0.5-3.2,1.3-4.6,2.3c-2.8,2.1-2.9,5.3,0.3,7.1c3.2,1.8,7.3,2.6,10.9,3.4
		c7.3,1.6,14.9,2.2,22.4,2.1c7.3,0,14.8-0.3,21.9-2C76,73.5,79.5,72.4,82.4,70.4z M79.4,38.9c0-9.2-14.3-8.9-21.2-8.4
		c1.3,1,2.7,1.9,4,2.8c0.8,0,1.5,0.1,2.2,0.5c0.3,0.2,0.1,0.7-0.3,0.6c-1-0.3-1.9-0.5-2.9-0.2c-1,0.3-1.7,0.9-2.4,1.7
		c0,0-0.1,0.1-0.1,0c-0.1,0.2-0.4,0.3-0.6,0.1c-1.3-1.6-3.1-1.5-4.7-0.6c0,0,0,0,0,0c0.1,0.3-0.3,0.6-0.5,0.3
		c-0.8-1-1.7-1.7-3.1-1.8c-0.9-0.1-3.7,0-3.9,1.3c0,0.1-0.1,0.2-0.3,0.1c-0.1,0-0.3,0-0.3-0.1c-0.4-0.6-0.8-0.9-1.5-1
		c-0.7-0.1-1.1,0.2-1.7,0.5c-0.1,0.1-0.3-0.1-0.2-0.2c0.7-1.2,2.6-0.9,3.5-0.1c-1.1-1-1.2-2.8-1.1-4.4c-5.1,0.2-10.4,0.3-15.3,1.5
		c-2.4,0.6-4.9,1.7-6.2,3.9c-1.2,2.1-1.4,4.6-1.5,7c0,0.8,0,1.1,0.2,1.5c0,0.1,0,0.3,0,0.4c0.2,0.8,0.8,1.2,1.6,1.4c0,0,0,0,0.1,0
		c0.4,0.3,0.6,0.4,1.4,0.1c1-0.3,1.9-1,2.9-1.3c1.1-0.4,2.2-0.4,3.3-0.2c2,0.4,3.7,1.6,5.7,2.1c3,0.7,5.2-0.4,7.9-1.6
		c2.5-1.1,4.7-0.7,7.1,0.4c2,0.9,4.1,2,6.3,1.5c1.5-0.4,2.8-1.4,4.1-2.2c2.2-1.4,4.2-2.2,6.7-1.1c2.3,1,4.1,2.1,6.7,1.2
		C77.6,44,79.3,41.6,79.4,38.9z M77.2,58.1c0-0.1,0-0.1,0-0.2c-1.1,1.8-2.8,3.1-5.4,3.5c-2.8,0.4-4.7-1.1-6.6-2.9
		c-4.3-4.2-7.5,1.2-10.9,3.5c-2.1,1.3-4.4,1.6-6.5,0.2c-2.5-1.6-4.6-5.1-8-3.3c-2.1,1.1-3.7,3.4-6.2,3.6c-1.3,0.1-2.5-0.4-3.7-1
		c-0.8-0.4-1.5-1-2.3-1.4c-1.7-0.9-2.6-0.7-4.4-0.5c-0.3,0-0.6,0.1-0.9,0c0.1,0.3,0.1,0.6,0.1,0.9c0.2,0.1,0.3,0.4,0.1,0.5
		c0.2,1.4,0.2,2.9,0.3,4.4c0,0.1,0,0.2-0.1,0.3c5,2.5,9.7,4,15.3,4.5c5,0.4,10.1,0.5,15.2,0.4c5.3,0,10.7-0.1,15.9-1.1
		c1.2-0.2,2.3-0.5,3.5-0.9c2-0.6,3.7-1.1,4.3-3.4C77.5,63.1,77.2,60.3,77.2,58.1z M58.5,35.6c0.4-1,1.5-1.8,2.6-2.1
		c-1.3-1-2.6-1.9-3.8-3h0c0.4,1.6,0.8,3.1,1.1,4.7c0,0.1,0,0.2,0,0.2C58.5,35.5,58.5,35.6,58.5,35.6z M57.6,34.8
		c-0.4-1.5-0.7-3-1-4.4c0,0,0,0,0-0.1c-0.8,0.7-1.6,1.3-2.4,2c-0.7,0.6-1.3,1.3-2.1,1.8c0.4,0.3,0.7,0.6,0.9,1
		C54.2,33.8,56.3,33.9,57.6,34.8z M56.3,29.7C56.3,29.7,56.3,29.7,56.3,29.7c-0.1,0-0.2,0.1-0.3,0.1c-2.5,0.2-5,0.3-7.5,0.5
		c-0.1,1.1,0.1,2.2,0.9,3c0,0,0,0,0,0c0.9,0,1.7,0.2,2.5,0.7c0.5-0.9,1.3-1.6,2-2.2C54.7,31,55.5,30.3,56.3,29.7z M48.6,29.7
		c2.3-0.4,4.8-0.7,7.1-0.6c-1.5-1.3-3-2.7-4.5-4.2C50.1,25.9,48.9,27.9,48.6,29.7z M51,24.8c-0.2-0.2-0.4-0.4-0.6-0.6c0,0,0,0-0.1,0
		c-1.7,0.9-2.7,2.1-3.2,3.9c-0.2,0.9-0.3,1.9-0.3,2.8c0,0.2,0,0.4,0,0.6c0.2,0.6,0.2,1.3,0,1.9c0.1-0.1,0.3-0.1,0.4,0c0,0,0,0,0,0.1
		c0,0,0,0,0,0c0.5-0.1,1-0.2,1.3-0.2C46.7,31.1,48.5,25.9,51,24.8z M50.2,23.8c-0.2-0.3-0.5-0.5-0.7-0.8c0,0.1,0,0.2-0.1,0.3
		c-1.9,1.1-3.3,2.5-3.9,4.7c-0.5,1.7-1,4.8,0.4,6.3c0,0,0,0,0,0c0.2-0.2,0.5-0.3,0.9-0.5c-1-1.3-0.4-4.5-0.1-5.8
		C47.1,26.1,48.3,24.4,50.2,23.8z"/>
	<path class="st1" d="M78.3,60.9c4.4,1.2,9.8,5.8,4.2,9.6c-2.9,1.9-6.4,3.1-9.8,3.9c-7.1,1.7-14.7,2-21.9,2c-7.5,0-15-0.5-22.4-2.1
		c-3.6-0.8-7.7-1.6-10.9-3.4c-3.3-1.8-3.1-5-0.3-7.1c1.4-1.1,3-1.8,4.6-2.3c0,1.4,0.2,2.8,0.3,4.1c0,0.1,0,0.1,0,0.2
		c-0.2,0.1-0.2,0.4,0,0.6c4.4,3.3,10.1,4.6,15.5,5c6.4,0.5,13,0.5,19.4,0.4c5.7-0.2,11.7-0.4,17.1-2.4c1.5-0.6,3.3-1.1,3.7-2.8
		C78.3,64.6,78.3,62.7,78.3,60.9z"/>
	<path class="st2" d="M58.2,30.5c6.9-0.4,21.2-0.8,21.2,8.4c0,2.7-1.7,5.1-4.3,5.9c-2.6,0.9-4.4-0.2-6.7-1.2
		c-2.5-1.1-4.5-0.3-6.7,1.1c-1.3,0.8-2.6,1.8-4.1,2.2c-2.2,0.5-4.3-0.6-6.3-1.5c-2.4-1.1-4.6-1.6-7.1-0.4c-2.7,1.2-4.8,2.3-7.9,1.6
		c-2-0.4-3.7-1.6-5.7-2.1c-1.1-0.3-2.2-0.2-3.3,0.2c-1,0.3-1.9,1-2.9,1.3c-0.8,0.2-1,0.2-1.4-0.1c0,0,0,0-0.1,0
		c-0.7-0.2-1.4-0.7-1.6-1.4c0-0.1,0-0.3,0-0.4c-0.2-0.4-0.2-0.7-0.2-1.5c0-2.4,0.2-4.9,1.5-7c1.3-2.2,3.8-3.3,6.2-3.9
		c5-1.2,10.2-1.3,15.3-1.5c-0.2,1.6-0.1,3.5,1.1,4.4c-0.9-0.9-2.8-1.1-3.5,0.1c-0.1,0.1,0.1,0.3,0.2,0.2c0.6-0.3,1-0.5,1.7-0.5
		c0.7,0.1,1.1,0.5,1.5,1c0.1,0.1,0.2,0.1,0.3,0.1c0.1,0,0.2,0,0.3-0.1c0.2-1.3,3-1.4,3.9-1.3c1.4,0.1,2.3,0.8,3.1,1.8
		c0.2,0.2,0.6,0,0.5-0.3c0,0,0,0,0,0c1.6-0.9,3.4-1,4.7,0.6c0.2,0.2,0.5,0.1,0.6-0.1c0,0,0.1,0,0.1,0c0.7-0.7,1.4-1.4,2.4-1.7
		c1-0.3,1.9-0.1,2.9,0.2c0.4,0.1,0.6-0.4,0.3-0.6c-0.6-0.4-1.4-0.6-2.2-0.5C60.9,32.3,59.5,31.4,58.2,30.5z M71.9,36.2
		c0.3-0.1,0.1-0.6-0.2-0.5c-4,1.6-8,2.5-12.3,2.9c-0.2,0-0.2,0.2,0,0.2C63.7,38.9,67.9,38,71.9,36.2z M51.6,40.2
		c0.3,0,0.3-0.5,0-0.5c-9.1,0.3-17.9-0.6-26.6-3.3c-0.2-0.1-0.3,0.3-0.1,0.3C33.4,39.6,42.5,40.9,51.6,40.2z"/>
	<path class="st3" d="M77.8,44.3L77.8,44.3c-0.1,0.1-0.2,0.3-0.1,0.5c0.6,4.6,1.4,10.3-2.3,13.9c-1.9,1.8-4.8,2.5-7.1,1.2
		c-1.5-0.9-2.4-2.5-3.9-3.4c-2.3-1.3-5,0-6.8,1.5c-1.7,1.4-3.1,3.3-5.2,4c-2.5,0.8-4.1-0.7-5.9-2.2c-1.6-1.4-3.2-2.7-5.5-2.2
		c-3.1,0.7-4.8,4.4-8.2,4.1c-2-0.2-3.5-1.8-5.3-2.6c-1.3-0.6-2.2-0.5-3.5-0.5c-1.3,0-2.3,0-2.5-1.5c-0.1-1.1-0.1-2.2-0.1-3.3
		c0-2.3,0.2-4.7,0.3-7c0.2,0.1,0.4,0.2,0.6,0.3c1.6,0.4,2.9-0.4,4.3-1c3.7-1.6,5.7,0.4,9.1,1.4c2.1,0.6,4.3,0.5,6.3-0.3
		c1.2-0.5,2.4-1.3,3.7-1.7c1.7-0.5,3.3,0,4.9,0.7c3.4,1.5,6.2,2.7,9.7,0.7c1.8-1,3.6-2.8,5.8-2.8c2.5,0,4.4,2.3,7.1,2.2
		C74.9,46.1,76.5,45.4,77.8,44.3z"/>
	<path class="st4" d="M77.3,58c0,0.1,0,0.1,0,0.2c-0.1,2.2,0.3,5-0.2,7.1c-0.6,2.3-2.3,2.7-4.3,3.4c-1.1,0.4-2.3,0.6-3.5,0.9
		c-5.2,1-10.6,1.1-15.9,1.1c-5,0-10.1,0-15.2-0.4c-5.6-0.4-10.3-2-15.3-4.5c0.1-0.1,0.1-0.2,0.1-0.3c0-1.4-0.1-2.9-0.3-4.4
		c0.2-0.1,0.1-0.4-0.1-0.5c0-0.3-0.1-0.6-0.1-0.9c0.3,0,0.6,0,0.9,0c1.8-0.3,2.7-0.4,4.4,0.5c0.8,0.4,1.5,1,2.3,1.4
		c1.1,0.6,2.3,1.1,3.7,1c2.5-0.3,4.1-2.5,6.2-3.6c3.4-1.8,5.5,1.6,8,3.3c2.1,1.4,4.4,1.2,6.5-0.2c3.4-2.2,6.6-7.6,10.9-3.5
		c1.9,1.9,3.8,3.4,6.6,2.9C74.5,61.1,76.2,59.8,77.3,58z M75.9,65.6c0.2-0.2-0.1-0.6-0.3-0.4c-0.4,0.2-0.7,0.5-1.1,0.5
		c-0.4,0-0.8-0.3-0.6-0.7c0.1-0.2-0.1-0.4-0.3-0.2c-0.4,0.4-0.1,1,0.3,1.3C74.5,66.5,75.4,66.1,75.9,65.6z M75.1,64.4
		c0.2,0,0.3-0.3,0.2-0.5c-0.5-0.8-1.7-1.1-2.4-0.4c-0.2,0.2,0.1,0.6,0.4,0.4c0.2-0.2,0.5-0.2,0.8-0.2c-0.3,0-0.4,0.5,0,0.6
		C74.3,64.5,74.7,64.5,75.1,64.4z M66.6,64.9c0.2,0.2,0.6,0,0.4-0.3c-0.7-1.1-2.6-0.8-3.2,0.2c-0.2,0.3,0.2,0.5,0.4,0.2
		C64.8,64.2,65.9,64.4,66.6,64.9z M65.2,62.4c0.2-0.6-0.2-1.2-0.7-1.5c-0.7-0.4-1.6-0.2-2.3,0c-0.3,0.1-0.2,0.5,0.1,0.5
		c0.8-0.1,2.4-0.4,2.3,0.9C64.6,62.6,65.1,62.7,65.2,62.4z M62.5,62.7c0.3-0.1,0.3-0.6-0.1-0.6c-0.5,0-1.3,0.2-1.7-0.2
		c-0.2-0.3-0.2-0.8,0.2-0.9c0.2-0.1,0.2-0.4-0.1-0.4c-0.7,0-1,0.9-0.7,1.5C60.4,62.8,61.7,62.9,62.5,62.7z M53,68.6
		c0.4,0.1,0.6-0.5,0.2-0.6c-0.5-0.2-1-0.1-1.5-0.2c-0.2-0.1-0.5-0.2-0.6-0.4c-0.1-0.2,0-0.5,0.2-0.6c0.2-0.1,0.1-0.5-0.2-0.4
		c-0.7,0.2-0.8,1-0.4,1.5C51.1,68.5,52.2,68.4,53,68.6z M32.8,66.9c0.2,0.2,0.6-0.1,0.4-0.3c-0.7-0.9-2.3-0.6-2.6,0.5
		c-0.1,0.2,0.3,0.4,0.4,0.2C31.4,66.5,32.3,66.3,32.8,66.9z M30.5,65.3c0.4-0.4,0.2-1-0.2-1.4c-0.5-0.5-1.4-0.3-2-0.1
		c-0.2,0.1-0.1,0.4,0.1,0.4c0.4-0.1,1-0.3,1.4-0.1c0.3,0.2,0.5,0.5,0.3,0.8C30,65.3,30.3,65.5,30.5,65.3z M28.9,65.4
		c0.2-0.2,0-0.4-0.3-0.3c-0.4,0.2-1,0.6-1.4,0.2c-0.2-0.2-0.3-0.7,0.1-0.8c0.2-0.1,0.2-0.5-0.1-0.4c-0.7,0.1-0.9,0.9-0.5,1.5
		C27.2,66.3,28.4,66,28.9,65.4z"/>
	<path class="st0" d="M75.6,65.2c0.3-0.1,0.6,0.2,0.3,0.4c-0.5,0.5-1.4,0.8-2,0.5c-0.5-0.3-0.7-0.9-0.3-1.3c0.1-0.2,0.3,0,0.3,0.2
		c-0.2,0.4,0.3,0.7,0.6,0.7C74.9,65.7,75.2,65.4,75.6,65.2z"/>
	<path class="st0" d="M75.2,64c0.1,0.2,0,0.4-0.2,0.5c-0.4,0.1-0.7,0.1-1.1,0c-0.3-0.1-0.2-0.6,0-0.6c-0.3,0-0.5,0-0.8,0.2
		c-0.3,0.2-0.6-0.1-0.4-0.4C73.6,62.9,74.8,63.1,75.2,64z"/>
	<path class="st0" d="M71.7,35.7c0.3-0.1,0.5,0.4,0.2,0.5c-3.9,1.8-8.2,2.7-12.5,2.7c-0.2,0-0.2-0.2,0-0.2
		C63.7,38.3,67.6,37.4,71.7,35.7z"/>
	<path class="st0" d="M67,64.6c0.2,0.3-0.2,0.5-0.4,0.3c-0.7-0.6-1.8-0.7-2.4,0.1c-0.2,0.2-0.6,0-0.4-0.2
		C64.4,63.8,66.3,63.5,67,64.6z"/>
	<path class="st0" d="M64.5,60.9c0.5,0.3,0.9,0.9,0.7,1.5c-0.1,0.3-0.6,0.3-0.6-0.1c0.1-1.3-1.5-1.1-2.3-0.9c-0.3,0-0.4-0.4-0.1-0.5
		C63,60.6,63.8,60.4,64.5,60.9z"/>
	<path class="st0" d="M62.4,62.1c0.4,0,0.4,0.5,0.1,0.6c-0.8,0.2-2,0.1-2.4-0.7c-0.2-0.6,0-1.5,0.7-1.5c0.2,0,0.3,0.4,0.1,0.4
		c-0.4,0.1-0.4,0.6-0.2,0.9C61.1,62.3,61.9,62,62.4,62.1z"/>
	<path class="st5" d="M61.1,33.5c-1.1,0.4-2.2,1.1-2.6,2.1c0-0.1-0.1-0.1-0.1-0.1c0-0.1,0-0.1,0-0.2c-0.3-1.6-0.7-3.2-1.1-4.7h0
		C58.5,31.5,59.8,32.5,61.1,33.5z"/>
	<path class="st5" d="M56.7,30.4c0.3,1.5,0.6,3,1,4.4c-1.4-0.9-3.4-1-4.5,0.3c-0.2-0.4-0.6-0.7-0.9-1c0.8-0.5,1.4-1.2,2.1-1.8
		C55.1,31.6,55.9,31,56.7,30.4C56.7,30.3,56.7,30.4,56.7,30.4z"/>
	<path class="st5" d="M56.3,29.7C56.3,29.7,56.3,29.7,56.3,29.7c-0.8,0.7-1.6,1.4-2.3,2.1c-0.7,0.7-1.5,1.4-2,2.2
		c-0.7-0.4-1.6-0.6-2.5-0.7c0,0,0,0,0,0c-0.8-0.8-1-1.9-0.9-3c2.5-0.1,5-0.2,7.5-0.5C56.2,29.8,56.2,29.8,56.3,29.7z"/>
	<path class="st5" d="M55.7,29.2c-2.3-0.1-4.8,0.1-7.1,0.6c0.3-1.9,1.5-3.8,2.7-4.8C52.7,26.5,54.2,27.9,55.7,29.2z"/>
	<path class="st0" d="M53.1,67.9c0.4,0.1,0.2,0.7-0.2,0.6c-0.8-0.2-1.9,0-2.4-0.8c-0.4-0.5-0.2-1.3,0.4-1.5c0.2-0.1,0.4,0.3,0.2,0.4
		c-0.2,0.1-0.3,0.4-0.2,0.6c0.1,0.2,0.4,0.3,0.6,0.4C52.1,67.9,52.6,67.8,53.1,67.9z"/>
	<path class="st0" d="M51.6,39.7c0.3,0,0.3,0.5,0,0.5c-9,0.7-18.1-0.6-26.7-3.5c-0.2-0.1-0.1-0.4,0.1-0.3
		C33.6,39.1,42.5,40.1,51.6,39.7z"/>
	<path class="st6" d="M50.4,24.1c0.2,0.2,0.4,0.4,0.6,0.6c-2.5,1.2-4.4,6.4-2.3,8.6c-0.3,0-0.8,0.1-1.3,0.2c0,0,0,0,0,0
		c0,0,0,0,0-0.1c-0.1-0.2-0.3-0.2-0.4,0c0.2-0.6,0.2-1.2,0-1.9c0-0.2,0-0.4,0-0.6c0-0.9,0.1-1.9,0.3-2.8
		C47.7,26.3,48.7,25,50.4,24.1C50.4,24.1,50.4,24.1,50.4,24.1z"/>
	<path class="st5" d="M49.4,23c0.2,0.3,0.5,0.6,0.7,0.8c-1.9,0.6-3.1,2.3-3.6,4.1c-0.4,1.3-0.9,4.6,0.1,5.8
		c-0.3,0.1-0.6,0.3-0.9,0.5c0,0,0,0,0,0c-1.4-1.5-0.9-4.6-0.4-6.3c0.6-2.2,2-3.6,3.9-4.7C49.5,23.2,49.5,23.1,49.4,23z"/>
	<path class="st0" d="M33.2,66.5c0.2,0.2-0.2,0.5-0.4,0.3c-0.5-0.6-1.4-0.3-1.7,0.3c-0.1,0.2-0.5,0.1-0.4-0.2
		C30.9,65.9,32.6,65.7,33.2,66.5z"/>
	<path class="st0" d="M30.3,64c0.4,0.3,0.6,1,0.2,1.4c-0.2,0.2-0.5-0.1-0.4-0.3c0.2-0.3,0-0.7-0.3-0.8c-0.4-0.2-1,0-1.4,0.1
		c-0.3,0-0.3-0.3-0.1-0.4C28.9,63.6,29.8,63.5,30.3,64z"/>
	<path class="st0" d="M28.7,65.1c0.2-0.1,0.4,0.1,0.3,0.3c-0.5,0.6-1.7,0.8-2.2,0.1c-0.3-0.6-0.2-1.4,0.5-1.5c0.3,0,0.3,0.4,0.1,0.4
		c-0.3,0.1-0.3,0.6-0.1,0.8C27.7,65.7,28.3,65.3,28.7,65.1z"/>
	<path class="st7" d="M78.9,60.6c-0.3-1.1-2-0.7-1.7,0.5c0.3,1.1,0.5,2.1,0.5,3.2c-0.1,2-1.4,2.9-3.1,3.5c-2.2,0.8-4.7,1.4-7,1.8
		c-5.1,1-10.3,1.5-15.5,1.5c-5.1,0-10.2-0.5-15.2-1.3c-2.4-0.4-4.8-0.9-7.2-1.4c-2.2-0.5-5.2-0.8-6.8-2.4c-0.4-0.4-1.2,0.1-0.8,0.6
		c1.2,1.8,3,2.4,5,2.9c3.1,0.8,6.2,1.5,9.4,2c6.2,1.1,12.6,1.6,18.9,1.4c6.1-0.2,12.3-1,18.2-2.7c2.2-0.6,4.8-1.3,5.8-3.5
		C80,64.8,79.4,62.6,78.9,60.6z"/>
	<path class="st7" d="M76.1,58c-1.2,1.2-2.2,2.3-3.9,2.8c-2.2,0.6-3.3-1.2-4.9-2.4c-1.2-0.9-2.6-1.4-4.1-1.6
		c-0.1-0.1-0.2-0.2-0.3-0.2c-3.7-1.4-5.2,2.8-7.6,4.6c-4.4,3.3-7.8-0.8-11.5-2.7c0-0.1-0.1-0.1-0.2-0.1c0,0-0.1,0-0.1,0
		c-0.1,0-0.2-0.1-0.2-0.1c-0.1-0.1-0.2,0-0.3,0c-3.9-0.5-5.9,3.7-9.7,3.7c-3.9,0-6.9-3.6-11-2.5c-0.5,0.1-0.4,1,0.1,0.9
		c4-0.3,7,2.8,10.9,2.9c1.4,0,2.8-0.4,4-1.3c0.6-0.4,1-0.9,1.5-1.4c1.4-1.3,2.7-1.6,4.6-1.6c2.8,2,5.2,5,8.9,4.8
		c1.4,0,2.9-0.5,4-1.4c1.9-1.4,3.2-5.2,6.2-4.4c0.4,0.1,0.7-0.1,0.9-0.4c1.6,0.6,2.8,1.5,4,2.7c0.9,0.9,1.6,1.7,2.9,2
		c2.8,0.6,5.1-1.4,6.9-3.3C77.9,58.4,76.8,57.3,76.1,58z"/>
	<path class="st7" d="M77,43.9c-2.1,2.4-5.4,0.8-7.9,0.1c-1.9-0.5-3.8-0.7-5.6,0.2c-3,1.5-4.2,3.7-8,2.9c-2.4-0.5-4.8-1.3-7.2-1.9
		c-0.1-0.3-0.2-0.5-0.6-0.5c-3-0.4-4.2,2.3-7,2.8c-2.8,0.4-6.1-0.9-8.9-2c0,0,0,0,0,0c0,0-0.1,0-0.1-0.1c-0.3-0.1-0.6-0.2-0.9-0.4
		c-0.1,0-0.1,0-0.2,0c-0.9-0.2-1.9-0.3-2.9-0.1c-0.7,0.1-1.3,0.3-2,0.6c-1.1,0.5-2.7,2.1-4,1.1c-0.2-0.1-0.4,0.1-0.4,0.3
		c0.5,1.1,1.5,1.2,2.6,0.8c1-0.4,1.8-1.1,2.8-1.4c1.6-0.5,3.2-0.3,4.8,0c0,0,0.1,0,0.1,0c2.4,1.4,5.1,2.4,7.8,2.7
		c1.1,0.1,2.1,0.1,3.1-0.3c1.8-0.7,2.7-2.5,4.9-2.3c0.2,0,0.4,0,0.5-0.2c2.7,1,5.7,2.1,8.5,2.3c2.6,0.3,4.3-1,6.4-2.4
		c3.3-2.1,6.2-0.3,9.6,0.2c2,0.3,3.9,0,5.4-1.4C78.6,44.3,77.6,43.3,77,43.9z"/>
	<path class="st7" d="M64.9,32.7c-1.9-0.7-4.5,0.1-6,1.6c-1.6-1.4-4.5-1.4-6.1-0.1c-2.1-1.1-6.1-2.3-7.5-0.1
		c-0.7-0.9-2.2-1.2-3.2-0.5c-0.3,0.2-0.1,0.7,0.3,0.6c0.9-0.3,1.6,0,2.2,0.7c0.2,0.2,0.4,0.2,0.6,0.1c0.2,0.1,0.4,0.2,0.6,0
		c1.9-1.8,5-0.6,6.9,0.6c0.5,0.3,0.9-0.1,0.8-0.6c1.8-0.7,3.3-0.4,4.9,0.8c0.5,0.3,0.9-0.1,0.9-0.5c0.7-0.4,1.4-0.8,2.2-1
		c1.1-0.3,2-0.1,3,0C65.5,34.1,65.6,32.9,64.9,32.7z"/>
</g>
</svg>
