<?xml version="1.0" encoding="utf-8"?>
<!-- Generator: Adobe Illustrator 23.0.1, SVG Export Plug-In . SVG Version: 6.00 Build 0)  -->
<svg version="1.1" id="Layer_1" xmlns="http://www.w3.org/2000/svg" xmlns:xlink="http://www.w3.org/1999/xlink" x="0px" y="0px"
	 viewBox="0 0 500 375" style="enable-background:new 0 0 500 375;" xml:space="preserve">
<style type="text/css">
	.st0{clip-path:url(#SVGID_2_);fill:#1B202E;}
	.st1{clip-path:url(#SVGID_4_);}
	.st2{opacity:0.5;clip-path:url(#SVGID_6_);enable-background:new    ;}
	.st3{fill:#1A2E35;}
	.st4{fill:#3E4556;}
	.st5{opacity:0.5;clip-path:url(#SVGID_8_);enable-background:new    ;}
	.st6{opacity:0.5;clip-path:url(#SVGID_10_);enable-background:new    ;}
	.st7{fill:#FFFFFF;}
	.st8{fill:#757575;}
	.st9{fill:#999999;}
	.st10{fill:#FFCB39;}
	.st11{opacity:0.3;clip-path:url(#SVGID_12_);enable-background:new    ;}
	.st12{opacity:0.2;clip-path:url(#SVGID_14_);enable-background:new    ;}
	.st13{opacity:0.2;clip-path:url(#SVGID_16_);enable-background:new    ;}
	.st14{opacity:0.3;clip-path:url(#SVGID_18_);enable-background:new    ;}
	.st15{opacity:0.2;clip-path:url(#SVGID_20_);enable-background:new    ;}
	.st16{opacity:0.2;clip-path:url(#SVGID_22_);enable-background:new    ;}
	.st17{opacity:0.2;clip-path:url(#SVGID_24_);enable-background:new    ;}
	.st18{opacity:0.7;}
	.st19{opacity:0.2;clip-path:url(#SVGID_26_);}
	.st20{opacity:0.2;clip-path:url(#SVGID_28_);enable-background:new    ;}
	.st21{opacity:0.3;clip-path:url(#SVGID_30_);enable-background:new    ;}
	.st22{fill:#BFBFBF;}
	.st23{opacity:0.4;enable-background:new    ;}
	.st24{opacity:0.3;enable-background:new    ;}
	.st25{opacity:0.2;clip-path:url(#SVGID_32_);enable-background:new    ;}
	.st26{opacity:0.4;clip-path:url(#SVGID_34_);enable-background:new    ;}
	.st27{opacity:0.2;clip-path:url(#SVGID_36_);enable-background:new    ;}
	.st28{opacity:0.2;clip-path:url(#SVGID_38_);enable-background:new    ;}
	.st29{opacity:0.2;clip-path:url(#SVGID_40_);enable-background:new    ;}
</style>
<g>
	<g>
		<defs>
			<circle id="SVGID_1_" cx="250" cy="187.5" r="140"/>
		</defs>
		<clipPath id="SVGID_2_">
			<use xlink:href="#SVGID_1_"  style="overflow:visible;"/>
		</clipPath>
		<rect x="42.7" y="34.3" class="st0" width="446" height="303.8"/>
	</g>
	<g>
		<defs>
			<circle id="SVGID_3_" cx="250" cy="187.5" r="140"/>
		</defs>
		<clipPath id="SVGID_4_">
			<use xlink:href="#SVGID_3_"  style="overflow:visible;"/>
		</clipPath>
		<g class="st1">
			<g>
				<g>
					<g>
						<g>
							<defs>
								<path id="SVGID_5_" d="M280.8,155.5c0,0,7.6-8.8,18.8-8.8c0,0,0.4-6.8,8-8.3s9.1,5.3,9.1,5.3s5.6-2.9,13.2,0
									c7.6,2.9,6.1,11.7,6.1,11.7s21.9-0.7,25.6,3.3h-50.2h-47.9C263.4,158.8,265.4,153.9,280.8,155.5z"/>
							</defs>
							<clipPath id="SVGID_6_">
								<use xlink:href="#SVGID_5_"  style="overflow:visible;"/>
							</clipPath>
							<g class="st2">
								<path class="st3" d="M361.5,159.2h-98.1c-0.2,0-0.2-0.1-0.3-0.2c-0.1-0.1-0.1-0.2,0-0.4c0.1-0.2,2.3-5.2,17.6-3.5
									c1.1-1.2,8.4-8.6,18.7-8.8c0.2-1.6,1.6-7,8.3-8.3c6.6-1.3,8.9,3.6,9.4,5.2c1.6-0.7,6.5-2.4,13.1,0.2
									c6.7,2.6,6.5,9.7,6.3,11.6c3.4-0.1,21.9-0.4,25.4,3.4c0.1,0.1,0.2,0.3,0.1,0.5C361.8,159,361.8,159.2,361.5,159.2z
									 M264.2,158.3h96c-5.4-3-24.1-2.5-24.3-2.5c-0.2,0-0.2-0.1-0.3-0.2c-0.1-0.1-0.1-0.2-0.1-0.3c0.1-0.3,1.4-8.4-5.7-11.2
									c-7.3-2.9-12.8-0.1-12.9,0c-0.1,0.1-0.2,0.1-0.4,0c-0.1-0.1-0.2-0.2-0.2-0.3c-0.1-0.2-1.6-6.4-8.6-5
									c-7.2,1.4-7.6,7.6-7.6,7.9c0,0.2-0.2,0.4-0.4,0.4c-10.9,0-18.4,8.5-18.5,8.6s-0.2,0.2-0.3,0.2
									C269.2,154.7,265.4,157.1,264.2,158.3z"/>
							</g>
						</g>
					</g>
					<g>
						<g id="XMLID_165_">
							<path class="st4" d="M361.5,159.2h-98.1c-0.2,0-0.2-0.1-0.3-0.2c-0.1-0.1-0.1-0.2,0-0.4c0.1-0.2,2.3-5.2,17.6-3.5
								c1.1-1.2,8.4-8.6,18.7-8.8c0.2-1.6,1.6-7,8.3-8.3c6.6-1.3,8.9,3.6,9.4,5.2c1.6-0.7,6.5-2.4,13.1,0.2
								c6.7,2.6,6.5,9.7,6.3,11.6c3.4-0.1,21.9-0.4,25.4,3.4c0.1,0.1,0.2,0.3,0.1,0.5C361.8,159,361.8,159.2,361.5,159.2z
								 M264.2,158.3h96c-5.4-3-24.1-2.5-24.3-2.5c-0.2,0-0.2-0.1-0.3-0.2c-0.1-0.1-0.1-0.2-0.1-0.3c0.1-0.3,1.4-8.4-5.7-11.2
								c-7.3-2.9-12.8-0.1-12.9,0c-0.1,0.1-0.2,0.1-0.4,0c-0.1-0.1-0.2-0.2-0.2-0.3c-0.1-0.2-1.6-6.4-8.6-5
								c-7.2,1.4-7.6,7.6-7.6,7.9c0,0.2-0.2,0.4-0.4,0.4c-10.9,0-18.4,8.5-18.5,8.6s-0.2,0.2-0.3,0.2
								C269.2,154.7,265.4,157.1,264.2,158.3z"/>
						</g>
					</g>
				</g>
				<g>
					<g>
						<g>
							<defs>
								<path id="SVGID_7_" d="M374.3,213c0,0-6.1-7-15-7c0,0-0.2-5.5-6.4-6.6c-6.1-1.1-7.3,4.3-7.3,4.3s-4.5-2.4-10.5,0
									c-6.1,2.4-4.8,9.3-4.8,9.3s-17.4-0.6-20.4,2.6h40H388C388.1,215.7,386.5,211.7,374.3,213z"/>
							</defs>
							<clipPath id="SVGID_8_">
								<use xlink:href="#SVGID_7_"  style="overflow:visible;"/>
							</clipPath>
							<g class="st5">
								<path class="st3" d="M388.1,216.1h-78.3c-0.2,0-0.3-0.1-0.4-0.2c-0.1-0.2,0-0.3,0.1-0.5c2.8-3,17.4-2.9,20.2-2.8
									c-0.2-1.7-0.2-7.2,5.2-9.3c5.1-2,9.1-0.7,10.4-0.2c0.5-1.4,2.3-5.2,7.6-4.1s6.5,5.3,6.6,6.6c8.1,0.2,13.8,5.9,14.8,7
									c12.2-1.2,14,2.7,14.1,2.9c0.1,0.2,0,0.2-0.1,0.4C388.4,216,388.2,216.1,388.1,216.1z M311.2,215.3h76
									c-1.1-1-4.3-2.6-12.9-1.7c-0.2,0-0.2,0-0.3-0.2c-0.1-0.1-6.1-6.9-14.7-6.9c-0.2,0-0.4-0.2-0.4-0.4s-0.3-5.2-6-6.2
									c-5.6-1.1-6.7,3.8-6.8,3.9c0,0.2-0.1,0.2-0.2,0.3c-0.1,0.1-0.2,0.1-0.4,0c-0.1,0-4.4-2.2-10.2,0c-5.6,2.2-4.6,8.6-4.6,8.8
									c0,0.2,0,0.2-0.1,0.3c-0.1,0.1-0.2,0.2-0.3,0.2C326,213.3,315.1,213.4,311.2,215.3z"/>
							</g>
						</g>
					</g>
					<g>
						<g id="XMLID_164_">
							<path class="st4" d="M388.1,216.1h-78.3c-0.2,0-0.3-0.1-0.4-0.2c-0.1-0.2,0-0.3,0.1-0.5c2.8-3,17.4-2.9,20.2-2.8
								c-0.2-1.7-0.2-7.2,5.2-9.3c5.1-2,9.1-0.7,10.4-0.2c0.5-1.4,2.3-5.2,7.6-4.1s6.5,5.3,6.6,6.6c8.1,0.2,13.8,5.9,14.8,7
								c12.2-1.2,14,2.7,14.1,2.9c0.1,0.2,0,0.2-0.1,0.4C388.4,216,388.2,216.1,388.1,216.1z M311.2,215.3h76
								c-1.1-1-4.3-2.6-12.9-1.7c-0.2,0-0.2,0-0.3-0.2c-0.1-0.1-6.1-6.9-14.7-6.9c-0.2,0-0.4-0.2-0.4-0.4s-0.3-5.2-6-6.2
								c-5.6-1.1-6.7,3.8-6.8,3.9c0,0.2-0.1,0.2-0.2,0.3c-0.1,0.1-0.2,0.1-0.4,0c-0.1,0-4.4-2.2-10.2,0c-5.6,2.2-4.6,8.6-4.6,8.8
								c0,0.2,0,0.2-0.1,0.3c-0.1,0.1-0.2,0.2-0.3,0.2C326,213.3,315.1,213.4,311.2,215.3z"/>
						</g>
					</g>
				</g>
				<g>
					<g>
						<g>
							<defs>
								<path id="SVGID_9_" d="M166.6,171.7c0,0,3.7-4.2,8.9-4.2c0,0,0.2-3.2,3.8-3.9c3.6-0.7,4.3,2.5,4.3,2.5s2.6-1.4,6.2,0
									s2.9,5.6,2.9,5.6s10.3-0.3,12.1,1.6H181h-22.7C158.4,173.3,159.4,171,166.6,171.7z"/>
							</defs>
							<clipPath id="SVGID_10_">
								<use xlink:href="#SVGID_9_"  style="overflow:visible;"/>
							</clipPath>
							<g class="st6">
								<path class="st3" d="M204.9,173.7h-46.6c-0.2,0-0.3-0.1-0.4-0.2c-0.1-0.2,0-0.2,0.1-0.4c0.5-0.7,2.2-2.4,8.4-1.8
									c0.7-0.7,4.1-4,8.8-4.2c0.2-1,1-3.3,4-3.9c3-0.6,4.3,1.4,4.7,2.4c0.9-0.3,3.3-1,6.1,0.2c3.1,1.2,3.3,4.3,3.2,5.5
									c2.2-0.1,10.3-0.1,12,1.7c0.1,0.2,0.2,0.3,0.1,0.5S205.1,173.7,204.9,173.7z M159.4,172.8h43.7c-2.7-0.7-8.1-0.8-10.3-0.7
									c-0.1,0-0.2-0.1-0.3-0.2c-0.1-0.1-0.1-0.2-0.1-0.3c0-0.2,0.7-3.8-2.6-5.1c-3.4-1.3-5.9,0-5.9,0c-0.1,0.1-0.2,0.1-0.4,0
									c-0.1-0.1-0.2-0.2-0.2-0.3c0-0.1-0.7-2.8-3.8-2.2c-3.3,0.7-3.4,3.5-3.4,3.5c0,0.2-0.2,0.4-0.4,0.4c-5.1,0-8.6,4-8.6,4
									c-0.1,0.1-0.2,0.2-0.3,0.2C162.2,171.7,160.3,172.3,159.4,172.8z"/>
							</g>
						</g>
					</g>
					<g>
						<g id="XMLID_163_">
							<path class="st4" d="M204.9,173.7h-46.6c-0.2,0-0.3-0.1-0.4-0.2c-0.1-0.2,0-0.2,0.1-0.4c0.5-0.7,2.2-2.4,8.4-1.8
								c0.7-0.7,4.1-4,8.8-4.2c0.2-1,1-3.3,4-3.9c3-0.6,4.3,1.4,4.7,2.4c0.9-0.3,3.3-1,6.1,0.2c3.1,1.2,3.3,4.3,3.2,5.5
								c2.2-0.1,10.3-0.1,12,1.7c0.1,0.2,0.2,0.3,0.1,0.5S205.1,173.7,204.9,173.7z M159.4,172.8h43.7c-2.7-0.7-8.1-0.8-10.3-0.7
								c-0.1,0-0.2-0.1-0.3-0.2c-0.1-0.1-0.1-0.2-0.1-0.3c0-0.2,0.7-3.8-2.6-5.1c-3.4-1.3-5.9,0-5.9,0c-0.1,0.1-0.2,0.1-0.4,0
								c-0.1-0.1-0.2-0.2-0.2-0.3c0-0.1-0.7-2.8-3.8-2.2c-3.3,0.7-3.4,3.5-3.4,3.5c0,0.2-0.2,0.4-0.4,0.4c-5.1,0-8.6,4-8.6,4
								c-0.1,0.1-0.2,0.2-0.3,0.2C162.2,171.7,160.3,172.3,159.4,172.8z"/>
						</g>
					</g>
				</g>
			</g>
			<g>
				<g>
					<path class="st7" d="M143.3,329.5c0,0,4.9-9.6,16-7.8c0,0,1.6-4.3,6.5-3.5c0,0-2.9-8,4.7-14c7.6-6.1,17.8-0.9,17.8-0.9
						s-0.7-4.5,3.5-6.1l64.8,2.1c0,0,7.1,2,8.7,8.7c0,0,6.2-3.5,14,0c7.8,3.5,7.8,12.5,7.8,12.5s8.8-0.9,9.6,11.2c0,0,5.6-7,13.8,0"
						/>
					<path class="st3" d="M310.3,332.1c-0.1,0-0.2,0-0.2-0.1c-2.6-2.2-5.2-3.2-7.7-3c-3.4,0.3-5.5,2.9-5.5,2.9
						c-0.1,0.2-0.3,0.2-0.5,0.2c-0.2-0.1-0.2-0.2-0.3-0.4c-0.2-4.1-1.5-7.1-3.6-8.9c-2.5-2.1-5.5-1.9-5.5-1.9c-0.1,0-0.2,0-0.3-0.1
						s-0.2-0.2-0.2-0.3c0-0.1-0.1-8.7-7.5-12.1s-13.6-0.1-13.6,0c-0.1,0.1-0.2,0.1-0.4,0c-0.1-0.1-0.2-0.2-0.2-0.3
						c-1.4-6.1-7.7-8.2-8.4-8.4l-64.6-2.1c-3.7,1.6-3.2,5.6-3.2,5.6c0,0.2-0.1,0.3-0.2,0.4c-0.2,0.1-0.3,0.1-0.4,0
						c-0.1-0.1-10.1-4.9-17.4,0.8c-7.2,5.7-4.7,13.2-4.5,13.5c0.1,0.2,0,0.3-0.1,0.4c-0.1,0.1-0.2,0.2-0.4,0.2c-4.5-0.7-6,3.1-6,3.3
						c-0.1,0.2-0.2,0.3-0.5,0.2c-10.7-1.7-15.6,7.5-15.6,7.5c-0.1,0.2-0.3,0.3-0.6,0.2c-0.2-0.1-0.3-0.3-0.2-0.6
						c0.1-0.1,5.1-9.7,16.1-8c0.5-1,2.2-3.8,6.1-3.5c-0.5-2-1.5-8.7,5-13.8c6.6-5.2,15.2-2.2,17.7-1.2c0-1.4,0.5-4.5,3.8-5.9
						c0.1,0,0.1,0,0.2,0l64.8,2.1h0.1c0.3,0.1,7,2,8.8,8.4c1.6-0.7,7.2-2.9,13.9,0.2c7,3.2,7.9,10.6,8,12.4l0,0c1,0,3.4,0.2,5.6,2
						c2.1,1.8,3.4,4.7,3.8,8.6c0.9-0.9,2.8-2.3,5.4-2.5c2.7-0.2,5.5,0.8,8.3,3.2c0.2,0.2,0.2,0.4,0.1,0.6
						C310.6,332.1,310.5,332.1,310.3,332.1z"/>
				</g>
				<g>
					<path class="st3" d="M163.1,335L163.1,335c-0.3-0.1-0.4-0.3-0.4-0.5c0.1-0.4,0.2-0.7,0.5-1.2c0.1-0.2,0.3-0.3,0.6-0.2
						c0.2,0.1,0.3,0.3,0.2,0.6c-0.2,0.4-0.3,0.7-0.4,1.1C163.5,334.8,163.3,335,163.1,335z"/>
				</g>
				<g>
					<path class="st3" d="M166.7,330c-0.2,0-0.2-0.1-0.3-0.2c-0.1-0.2-0.1-0.5,0.2-0.6c3.2-2,7-1.4,8.4-1.1c0.4-3.1,3.2-4.3,4.5-4.8
						c-1.1-1.4-2.5-3.8-0.9-6.1c1.8-2.6,4.8-2,5.9-1.6c1.3-2.4,3-4,5.2-4.9c0.2-0.1,0.5,0,0.6,0.2c0.1,0.2,0,0.5-0.2,0.6
						c-2,0.8-3.7,2.5-4.9,4.8c-0.1,0.2-0.3,0.3-0.6,0.2c-0.2-0.1-3.4-1.5-5.2,1.2c-1.8,2.5,1.2,5.4,1.3,5.5s0.2,0.2,0.1,0.4
						c-0.1,0.2-0.2,0.2-0.3,0.3c-0.2,0-4.3,0.9-4.6,4.7c0,0.2-0.1,0.2-0.2,0.3c-0.1,0.1-0.2,0.1-0.3,0.1c-0.1,0-4.7-1.3-8.2,0.9
						C166.9,330,166.8,330,166.7,330z"/>
				</g>
				<g>
					<path class="st3" d="M191.7,311.1c-0.2,0-0.4-0.2-0.4-0.3c0-0.2,0.2-0.4,0.3-0.5c0.9-0.2,1.7-0.2,2.4-0.1
						c0.2,0,0.4,0.2,0.4,0.5s-0.2,0.4-0.5,0.4C193.3,311,192.7,311,191.7,311.1C191.8,311.1,191.8,311.1,191.7,311.1z"/>
				</g>
				<g>
					<path class="st3" d="M197.6,311.8c-0.1,0-0.1,0-0.2,0c0,0-0.3-0.1-0.9-0.2c-0.2-0.1-0.3-0.3-0.2-0.5c0.1-0.2,0.3-0.3,0.5-0.2
						c0.2,0.1,0.3,0.1,0.5,0.2c0.6-2.1,1.8-3.8,3.5-4.7c3.1-1.8,7.1-1.1,8.3-0.8l3.7-8.3c0.1-0.2,0.2-0.2,0.4-0.2h22.4
						c0.2,0,0.3,0.1,0.4,0.3l1.6,4.9c0.1,0.2-0.1,0.5-0.2,0.5c-0.2,0.1-0.5-0.1-0.5-0.2l-1.4-4.7h-21.8l-3.7,8.4
						c-0.1,0.2-0.3,0.3-0.5,0.2c-0.1,0-4.7-1.3-8,0.6c-1.6,0.9-2.7,2.5-3.2,4.7c0,0.1-0.1,0.2-0.2,0.2
						C197.8,311.7,197.7,311.8,197.6,311.8z"/>
				</g>
				<g>
					<path class="st3" d="M261.6,320.6c-0.2,0-0.2-0.1-0.3-0.2c-2.4-4-6.4-1.7-6.5-1.6c-0.2,0.1-0.2,0.1-0.4,0
						c-0.2-0.1-0.2-0.2-0.2-0.3c0-0.1-0.7-7.6-5.6-10.4c-4.9-2.8-10-1.1-10-1.1c-0.1,0-0.2,0-0.3,0c-0.1-0.1-0.2-0.2-0.2-0.2
						l-0.9-2.9c-0.1-0.2,0.1-0.5,0.2-0.5c0.2-0.1,0.5,0.1,0.5,0.2l0.8,2.5c1.4-0.3,5.8-1.1,10.2,1.3c4.5,2.5,5.6,8.5,5.9,10.4
						c1.2-0.6,4.4-1.4,6.6,1.5c0.4-1.2,1.5-3.4,3.7-4.7c0.2-0.1,0.5-0.1,0.6,0.2c0.1,0.2,0.1,0.5-0.2,0.6c-2.8,1.7-3.5,5-3.5,5
						C262,320.5,261.9,320.6,261.6,320.6C261.7,320.6,261.7,320.6,261.6,320.6z"/>
				</g>
				<g>
					<path class="st3" d="M284.1,330c-0.1,0-0.2,0-0.3-0.1c-1.5-1.4-3.7-1.3-3.8-1.3c-0.2,0-0.2-0.1-0.3-0.2
						c-0.1-0.1-0.1-0.2-0.1-0.4c0.1-0.4,2.6-10.6-6.6-13.3c-2.5-0.7-4.7-0.7-6.5-0.1c-0.2,0.1-0.5,0-0.6-0.2c-0.1-0.2,0-0.5,0.2-0.6
						c2-0.7,4.4-0.7,7,0.1c8.8,2.6,7.8,11.5,7.3,13.8c0.8,0.1,2.5,0.3,3.8,1.5c0.2,0.2,0.2,0.4,0,0.6C284.4,330,284.3,330,284.1,330
						z"/>
				</g>
				<g>
					<path class="st3" d="M285.7,333.8c-0.2,0-0.4-0.2-0.4-0.4c0-0.7-0.1-1.1-0.2-1.6c-0.1-0.2,0.1-0.5,0.3-0.5
						c0.2-0.1,0.5,0.1,0.5,0.3c0.1,0.5,0.2,1.1,0.2,1.8C286.1,333.6,285.9,333.8,285.7,333.8z"/>
				</g>
				<g>
					<g>
						<polygon class="st8" points="258,299.3 235.5,299.3 241.2,288.9 252.5,288.9 						"/>
						<path class="st3" d="M258,299.7h-22.5c-0.2,0-0.2-0.1-0.3-0.2c-0.1-0.2-0.1-0.2,0-0.4l5.6-10.5c0.1-0.2,0.2-0.2,0.4-0.2h11.2
							c0.2,0,0.3,0.1,0.4,0.2l5.6,10.5c0.1,0.2,0.1,0.3,0,0.4C258.4,299.7,258.2,299.7,258,299.7z M236.2,298.9h21.1l-5.2-9.7h-10.8
							L236.2,298.9z"/>
					</g>
					<g>
						<polygon class="st8" points="210.8,299.3 188.3,299.3 193.9,288.9 205.2,288.9 						"/>
						<path class="st3" d="M210.8,299.7h-22.5c-0.2,0-0.2-0.1-0.3-0.2c-0.1-0.2-0.1-0.2,0-0.4l5.6-10.5c0.1-0.2,0.2-0.2,0.4-0.2
							h11.3c0.2,0,0.3,0.1,0.4,0.2l5.6,10.5c0.1,0.2,0.1,0.3,0,0.4C211.1,299.7,210.9,299.7,210.8,299.7z M188.9,298.9H210l-5.2-9.7
							h-10.8L188.9,298.9z"/>
					</g>
				</g>
				<g>
					<polygon class="st9" points="238.4,299.3 207.9,299.3 213.6,288.9 232.7,288.9 					"/>
					<path class="st3" d="M238.4,299.7h-30.5c-0.2,0-0.2-0.1-0.3-0.2c-0.1-0.2-0.1-0.2,0-0.4l5.6-10.5c0.1-0.2,0.2-0.2,0.4-0.2h19.2
						c0.2,0,0.3,0.1,0.4,0.2l5.6,10.5c0.1,0.2,0.1,0.3,0,0.4C238.6,299.7,238.5,299.7,238.4,299.7z M208.7,298.9h29l-5.2-9.7h-18.7
						L208.7,298.9z"/>
				</g>
				<g>
					<g>
						<g>
							<g id="XMLID_160_">
								<path class="st10" d="M256.5,289.5h-19.5V186.6c0-12,3.4-23.8,9.8-34.1l0,0l0,0c6.4,10.2,9.8,22,9.8,34.1L256.5,289.5
									L256.5,289.5z"/>
							</g>
						</g>
						<g>
							<g>
								<defs>
									<path id="SVGID_11_" d="M256.5,289.5h-19.5V186.6c0-12,3.4-23.8,9.8-34.1l0,0l0,0c6.4,10.2,9.8,22,9.8,34.1L256.5,289.5
										L256.5,289.5z"/>
								</defs>
								<clipPath id="SVGID_12_">
									<use xlink:href="#SVGID_11_"  style="overflow:visible;"/>
								</clipPath>
								<g class="st11">
									<path class="st7" d="M256.5,183.9c0.1,0.9,0.1,1.8,0.1,2.8v103h-19.5V186.6c0-0.9,0-1.9,0.1-2.8L256.5,183.9L256.5,183.9z"
										/>
								</g>
							</g>
						</g>
						<g>
							<g>
								<defs>
									<path id="SVGID_13_" d="M256.5,289.5h-19.5V186.6c0-12,3.4-23.8,9.8-34.1l0,0l0,0c6.4,10.2,9.8,22,9.8,34.1L256.5,289.5
										L256.5,289.5z"/>
								</defs>
								<clipPath id="SVGID_14_">
									<use xlink:href="#SVGID_13_"  style="overflow:visible;"/>
								</clipPath>
								<g class="st12">
									<path d="M243.4,187.3v102.2H237V186.6c0-7.6,1.3-15.1,3.9-22.2C242.5,171.9,243.4,179.6,243.4,187.3z"/>
								</g>
							</g>
						</g>
						<g>
							<g>
								<defs>
									<path id="SVGID_15_" d="M256.5,289.5h-19.5V186.6c0-12,3.4-23.8,9.8-34.1l0,0l0,0c6.4,10.2,9.8,22,9.8,34.1L256.5,289.5
										L256.5,289.5z"/>
								</defs>
								<clipPath id="SVGID_16_">
									<use xlink:href="#SVGID_15_"  style="overflow:visible;"/>
								</clipPath>
								<g class="st13">
									<path d="M256.6,186.6v103H254V187.7c0-12.1-2.5-24-7.1-35.1c3.2,5.2,5.6,10.6,7.3,16.3
										C255.7,174.6,256.6,180.6,256.6,186.6z"/>
								</g>
							</g>
						</g>
						<g>
							<g>
								<path class="st3" d="M256.6,290h-19.6c-0.2,0-0.4-0.2-0.4-0.4v-103c0-12.2,3.4-24,9.8-34.2c0.2-0.2,0.6-0.2,0.7,0
									c6.5,10.2,9.8,22.1,9.8,34.2v102.9C257,289.8,256.8,290,256.6,290z M237.5,289.1h18.7V186.6c0-11.8-3.3-23.3-9.3-33.2
									c-6.1,10-9.3,21.5-9.3,33.2L237.5,289.1L237.5,289.1z"/>
							</g>
						</g>
					</g>
					<g>
						<g>
							<g id="XMLID_161_">
								<path class="st10" d="M209.3,289.5h-19.5V186.6c0-12,3.4-23.8,9.8-34.1l0,0l0,0c6.4,10.2,9.8,22,9.8,34.1L209.3,289.5
									L209.3,289.5z"/>
							</g>
						</g>
						<g>
							<g>
								<defs>
									<path id="SVGID_17_" d="M209.3,289.5h-19.5V186.6c0-12,3.4-23.8,9.8-34.1l0,0l0,0c6.4,10.2,9.8,22,9.8,34.1L209.3,289.5
										L209.3,289.5z"/>
								</defs>
								<clipPath id="SVGID_18_">
									<use xlink:href="#SVGID_17_"  style="overflow:visible;"/>
								</clipPath>
								<g class="st14">
									<path class="st7" d="M209.2,183.7c0.1,1,0.1,2,0.1,2.9v103h-19.5v-103c0-1,0.1-2,0.1-2.9L209.2,183.7L209.2,183.7z"/>
								</g>
							</g>
						</g>
						<g>
							<g>
								<defs>
									<path id="SVGID_19_" d="M209.3,289.5h-19.5V186.6c0-12,3.4-23.8,9.8-34.1l0,0l0,0c6.4,10.2,9.8,22,9.8,34.1L209.3,289.5
										L209.3,289.5z"/>
								</defs>
								<clipPath id="SVGID_20_">
									<use xlink:href="#SVGID_19_"  style="overflow:visible;"/>
								</clipPath>
								<g class="st15">
									<path d="M206.9,168.9c1.6,5.7,2.5,11.7,2.5,17.7v103H203V187.3c0-4.6,0.2-9.1,0.8-13.6c0.4-3.1,0.9-6.2,1.6-9.4
										C206,165.9,206.4,167.4,206.9,168.9z"/>
								</g>
							</g>
						</g>
						<g>
							<g>
								<defs>
									<path id="SVGID_21_" d="M209.3,289.5h-19.5V186.6c0-12,3.4-23.8,9.8-34.1l0,0l0,0c6.4,10.2,9.8,22,9.8,34.1L209.3,289.5
										L209.3,289.5z"/>
								</defs>
								<clipPath id="SVGID_22_">
									<use xlink:href="#SVGID_21_"  style="overflow:visible;"/>
								</clipPath>
								<g class="st16">
									<path d="M199.6,152.6c-4.7,11.1-7.1,23.1-7.1,35.1v101.8h-2.6v-103C189.7,174.6,193.2,162.8,199.6,152.6z"/>
								</g>
							</g>
						</g>
						<g>
							<g>
								<path class="st3" d="M209.3,290h-19.6c-0.2,0-0.4-0.2-0.4-0.4v-103c0-12.2,3.4-24,9.8-34.2c0.2-0.2,0.6-0.2,0.7,0
									c6.5,10.2,9.8,22.1,9.8,34.2v102.9C209.8,289.8,209.6,290,209.3,290z M190.2,289.1H209V186.6c0-11.8-3.3-23.3-9.3-33.2
									c-6.2,10-9.4,21.5-9.4,33.2V289.1z"/>
							</g>
						</g>
					</g>
					<g>
						<path class="st3" d="M256.5,184.1h-19.2c-0.2,0-0.4-0.2-0.4-0.4c0-0.2,0.2-0.4,0.4-0.4h19.2c0.2,0,0.4,0.2,0.4,0.4
							C256.9,184,256.7,184.1,256.5,184.1z"/>
					</g>
					<g>
						<path class="st3" d="M256.5,206h-19.5c-0.2,0-0.4-0.2-0.4-0.4v-1.5c0-0.2,0.2-0.4,0.4-0.4h19.5c0.2,0,0.4,0.2,0.4,0.4v1.5
							C257,205.8,256.8,206,256.5,206z M237.5,205.1h18.7v-0.7h-18.7V205.1z"/>
					</g>
					<g>
						<path class="st3" d="M256.5,247.5H237c-0.2,0-0.4-0.2-0.4-0.4v-3.7c0-0.2,0.2-0.4,0.4-0.4h19.5c0.2,0,0.4,0.2,0.4,0.4v3.7
							C257,247.3,256.7,247.5,256.5,247.5z M237.5,246.7h18.6v-2.9h-18.6V246.7z"/>
					</g>
					<g>
						<path class="st3" d="M209.1,184.1h-19.2c-0.2,0-0.4-0.2-0.4-0.4c0-0.2,0.2-0.4,0.4-0.4h19.2c0.2,0,0.4,0.2,0.4,0.4
							C209.5,184,209.3,184.1,209.1,184.1z"/>
					</g>
					<g>
						<path class="st3" d="M209.3,206h-19.5c-0.2,0-0.4-0.2-0.4-0.4v-1.5c0-0.2,0.2-0.4,0.4-0.4h19.5c0.2,0,0.4,0.2,0.4,0.4v1.5
							C209.7,205.8,209.6,206,209.3,206z M190.2,205.2h18.7v-0.7h-18.7V205.2z"/>
					</g>
					<g>
						<path class="st3" d="M209.3,247.6h-19.5c-0.2,0-0.4-0.2-0.4-0.4v-3.7c0-0.2,0.2-0.4,0.4-0.4h19.5c0.2,0,0.4,0.2,0.4,0.4v3.7
							C209.7,247.3,209.6,247.6,209.3,247.6z M190.2,246.7h18.6v-2.9h-18.6V246.7z"/>
					</g>
				</g>
				<g>
					<g>
						<g>
							<g id="XMLID_162_">
								<path class="st10" d="M237.2,289.5h-28.2V141.2c0-17.4,4.9-34.3,14.1-49l0,0l0,0c9.3,14.7,14.1,31.7,14.1,49V289.5
									L237.2,289.5z"/>
							</g>
						</g>
						<g>
							<g>
								<defs>
									<path id="SVGID_23_" d="M237.2,289.5h-28.2V141.2c0-17.4,4.9-34.3,14.1-49l0,0l0,0c9.3,14.7,14.1,31.7,14.1,49V289.5
										L237.2,289.5z"/>
								</defs>
								<clipPath id="SVGID_24_">
									<use xlink:href="#SVGID_23_"  style="overflow:visible;"/>
								</clipPath>
								<g class="st17">
									<g class="st18">
										<path d="M237,134.3h-27.6c1.1-14.9,5.8-29.4,13.8-42.1c4.6,7.4,8.1,15.3,10.5,23.5C235.4,121.8,236.5,128,237,134.3z"/>
									</g>
								</g>
							</g>
						</g>
						<g>
							<g>
								<defs>
									<path id="SVGID_25_" d="M237.2,289.5h-28.2V141.2c0-17.4,4.9-34.3,14.1-49l0,0l0,0c9.3,14.7,14.1,31.7,14.1,49V289.5
										L237.2,289.5z"/>
								</defs>
								<clipPath id="SVGID_26_">
									<use xlink:href="#SVGID_25_"  style="overflow:visible;"/>
								</clipPath>
								<g class="st19">
									<g>
										<path class="st7" d="M228.3,289.5h-10.2V145.8c0-16.8,1.8-33.3,5.2-47.6l0,0l0,0c3.4,14.2,5.2,30.7,5.2,47.6L228.3,289.5
											L228.3,289.5z"/>
									</g>
								</g>
							</g>
						</g>
						<g>
							<g>
								<defs>
									<path id="SVGID_27_" d="M237.2,289.5h-28.2V141.2c0-17.4,4.9-34.3,14.1-49l0,0l0,0c9.3,14.7,14.1,31.7,14.1,49V289.5
										L237.2,289.5z"/>
								</defs>
								<clipPath id="SVGID_28_">
									<use xlink:href="#SVGID_27_"  style="overflow:visible;"/>
								</clipPath>
								<g class="st20">
									<path d="M237,265.7v23.9h-27.6v-23.8c1.7-1.7,2.7-3.3,2.7-3.3s0-22.9,0-32.8c0-11.4,4.5-17.6,11.1-17.6
										c6.6,0,11.1,6.2,11.1,17.6c0,9.9,0,32.8,0,32.8S235.2,264,237,265.7z"/>
								</g>
							</g>
						</g>
						<g>
							<g>
								<path class="st3" d="M237.2,290h-28.2c-0.2,0-0.4-0.2-0.4-0.4V141.2c0-17.4,4.9-34.4,14.2-49.3c0.1-0.2,0.2-0.2,0.3-0.2
									c0.2,0,0.2,0.1,0.3,0.2c9.3,14.7,14.2,31.8,14.2,49.3v148.2c0,0.1,0.1,0.2,0.1,0.2C237.6,289.8,237.5,290,237.2,290z
									 M209.5,289.1h27.3V141.2c0-17.1-4.7-33.8-13.7-48.2c-8.9,14.6-13.7,31.3-13.7,48.2L209.5,289.1L209.5,289.1z"/>
							</g>
						</g>
					</g>
					<g>
						<path class="st3" d="M237.2,162.9h-28.2c-0.2,0-0.4-0.2-0.4-0.4v-3.8c0-0.2,0.2-0.4,0.4-0.4h28.2c0.2,0,0.4,0.2,0.4,0.4v3.8
							C237.6,162.7,237.5,162.9,237.2,162.9z M209.5,162h27.3v-2.9h-27.3V162z"/>
					</g>
					<g>
						<path class="st3" d="M237.2,205.9h-28.2c-0.2,0-0.4-0.2-0.4-0.4v-13.9c0-0.2,0.2-0.4,0.4-0.4h28.2c0.2,0,0.4,0.2,0.4,0.4v13.9
							C237.6,205.8,237.5,205.9,237.2,205.9z M209.5,205.1h27.3v-13h-27.3V205.1z"/>
					</g>
					<g>
						<path class="st3" d="M237.2,269.3h-28.2c-0.2,0-0.4-0.2-0.4-0.4v-11.2c0-0.2,0.2-0.4,0.4-0.4h28.2c0.2,0,0.4,0.2,0.4,0.4v11.2
							C237.6,269.1,237.5,269.3,237.2,269.3z M209.5,268.5h27.3v-10.4h-27.3V268.5z"/>
					</g>
				</g>
				<g>
					<g>
						<g>
							<path class="st10" d="M233.2,263.9v-15.3h-3.1V261v8.4V286h15.4v-7c0-1.8-0.8-3.5-2.3-4.6l-7.4-5.3
								C234.2,267.9,233.2,266,233.2,263.9z"/>
							<path class="st3" d="M245.5,286.5h-15.4c-0.2,0-0.4-0.2-0.4-0.4v-37.5c0-0.2,0.2-0.4,0.4-0.4h3.1c0.2,0,0.4,0.2,0.4,0.4v15.3
								c0,1.9,0.9,3.7,2.5,5l7.4,5.3c1.6,1.1,2.5,2.9,2.5,4.9v7C245.9,286.3,245.7,286.5,245.5,286.5z M230.5,285.7h14.6v-6.5
								c0-1.6-0.8-3.3-2.1-4.2l-7.4-5.3c-1.8-1.4-2.8-3.4-2.8-5.6v-14.9h-2.2L230.5,285.7L230.5,285.7z"/>
						</g>
						<g>
							<path class="st10" d="M213.2,263.9v-15.3h3.1V261v8.4V286h-15.4v-7c0-1.8,0.8-3.5,2.3-4.6l7.4-5.3
								C212.2,267.9,213.2,266,213.2,263.9z"/>
							<path class="st3" d="M216.3,286.5h-15.4c-0.2,0-0.4-0.2-0.4-0.4v-7c0-2,0.9-3.8,2.5-4.9l7.4-5.3c1.6-1.2,2.5-3,2.5-4.9v-15.3
								c0-0.2,0.2-0.4,0.4-0.4h3.1c0.2,0,0.4,0.2,0.4,0.4v37.5C216.7,286.3,216.5,286.5,216.3,286.5z M201.3,285.7h14.6v-36.6h-2.2
								V264c0,2.1-1,4.2-2.8,5.6l-7.4,5.3c-1.3,1-2.1,2.5-2.1,4.2L201.3,285.7L201.3,285.7z"/>
						</g>
					</g>
					<g>
						<path class="st3" d="M245.5,283.2h-44.6c-0.2,0-0.4-0.2-0.4-0.4s0.2-0.4,0.4-0.4h44.6c0.2,0,0.4,0.2,0.4,0.4
							S245.7,283.2,245.5,283.2z"/>
					</g>
					<g>
						<polygon class="st10" points="228.1,289.5 218.2,289.5 216.5,284.7 229.8,284.7 						"/>
						<path class="st3" d="M228.1,290h-9.8c-0.2,0-0.3-0.1-0.4-0.2l-1.7-4.9c-0.1-0.2,0-0.2,0.1-0.4c0.1-0.1,0.2-0.2,0.3-0.2h13.2
							c0.2,0,0.2,0.1,0.3,0.2c0.1,0.1,0.1,0.2,0.1,0.4l-1.7,4.9C228.4,289.8,228.2,290,228.1,290z M218.6,289.1h9.3l1.4-4h-12
							L218.6,289.1z"/>
					</g>
					<g>
						<g>
							<g id="XMLID_1_">
								<path class="st7" d="M233.2,229.7v56.3h-20.1v-56.3c0-3.9,1-7.8,2.7-11.3c0.7-1.4,1.6-2.8,2.5-4c1.1-1.6,2.9-2.3,4.7-2.3
									s3.5,0.8,4.7,2.3c1,1.3,1.9,2.6,2.5,4c0.5,1,1,2,1.3,3.2C232.8,224.2,233.2,227,233.2,229.7z"/>
							</g>
						</g>
						<g>
							<g>
								<defs>
									<path id="SVGID_29_" d="M233.2,229.7v56.3h-20.1v-56.3c0-3.9,1-7.8,2.7-11.3c0.7-1.4,1.6-2.8,2.5-4
										c1.1-1.6,2.9-2.3,4.7-2.3s3.5,0.8,4.7,2.3c1,1.3,1.9,2.6,2.5,4c0.5,1,1,2,1.3,3.2C232.8,224.2,233.2,227,233.2,229.7z"/>
								</defs>
								<clipPath id="SVGID_30_">
									<use xlink:href="#SVGID_29_"  style="overflow:visible;"/>
								</clipPath>
								<g class="st21">
									<path class="st10" d="M233.2,229.7v56.3h-4.9v-54.9c0-2.7-0.2-5.4-0.7-7.9c-0.2-1.1-0.4-2-0.7-3.1
										c-0.3-1.4-0.8-2.7-1.3-3.9c-0.7-1.6-1.5-2.3-2.4-2.3c-0.9,0-1.8,0.8-2.4,2.3c-0.5,1.2-0.9,2.5-1.3,3.9
										c-0.9,3.4-1.3,7.1-1.3,11.1v54.9h-5.2v-56.3c0-3.9,0.9-7.8,2.7-11.3c0.7-1.4,1.6-2.8,2.5-4c1.1-1.6,2.9-2.3,4.7-2.3
										s3.5,0.8,4.7,2.3c1,1.3,1.9,2.6,2.5,4c0.5,1,1,2,1.3,3.2C232.7,224.2,233.2,227,233.2,229.7z"/>
								</g>
							</g>
						</g>
						<g>
							<g>
								<path class="st3" d="M233.2,286.4h-20.1c-0.2,0-0.4-0.2-0.4-0.4v-56.3c0-3.9,1-7.9,2.8-11.5c0.7-1.4,1.6-2.8,2.5-4.1
									c1.1-1.6,3-2.5,5.2-2.5c2,0,3.8,0.9,5.1,2.5c1.1,1.3,1.9,2.7,2.6,4.1c0.5,1,1,2.1,1.4,3.3c0.9,2.6,1.4,5.4,1.4,8.3v56.3
									C233.7,286.2,233.5,286.4,233.2,286.4z M213.6,285.6h19.2v-55.9c0-2.8-0.4-5.4-1.3-7.9c-0.4-1.1-0.8-2.1-1.3-3.2
									c-0.7-1.4-1.5-2.7-2.5-4c-1.1-1.4-2.7-2.1-4.4-2.1c-1.8,0-3.4,0.8-4.4,2.1c-0.9,1.2-1.8,2.6-2.5,4
									c-1.7,3.4-2.6,7.3-2.6,11.1v55.9H213.6z"/>
							</g>
						</g>
					</g>
					<g>
						<path class="st7" d="M227.4,229.1c-1.6-5-6.8-5-8.4,0c-0.7-0.4-1.2-0.8-1.9-1.1c2.4-7.1,9.7-7.1,12.1,0
							C228.5,228.3,228.1,228.7,227.4,229.1z"/>
					</g>
					<g>
						<path class="st22" d="M227.4,229.1c-1.6-5-6.8-5-8.4,0c-0.7-0.4-1.2-0.8-1.9-1.1c2.4-7.1,9.7-7.1,12.1,0
							C228.5,228.3,228.1,228.7,227.4,229.1z"/>
						<path class="st3" d="M227.2,229.7l-0.2-0.5c-0.7-2.1-2.1-3.4-3.8-3.4c-1.6,0-3.1,1.3-3.8,3.4l-0.2,0.5l-0.5-0.3
							c-0.7-0.4-1.2-0.8-1.8-1.1l-0.3-0.2l0.1-0.3c1.1-3.5,3.6-5.6,6.5-5.6l0,0c2.8,0,5.3,2.1,6.5,5.6l0.1,0.3l-0.3,0.2
							c-0.4,0.2-0.8,0.5-1.2,0.7c-0.2,0.1-0.3,0.2-0.5,0.3L227.2,229.7z M217.7,227.8c0.4,0.2,0.7,0.4,1.1,0.7
							c0.9-2.2,2.5-3.5,4.4-3.5c1.9,0,3.5,1.3,4.4,3.5c0,0,0.1,0,0.1-0.1c0.3-0.2,0.7-0.4,1-0.7c-1.1-2.9-3.2-4.7-5.6-4.7
							C220.8,223,218.7,224.8,217.7,227.8z"/>
					</g>
					<g>
						<path class="st10" d="M230.5,218.4h-14.7c0.7-1.4,1.6-2.8,2.5-4c1.1-1.6,2.9-2.3,4.7-2.3s3.5,0.8,4.7,2.3
							C229,215.7,229.8,217,230.5,218.4z"/>
						<path class="st3" d="M230.5,218.9h-14.7c-0.2,0-0.2-0.1-0.3-0.2c-0.1-0.2-0.1-0.2,0-0.4c0.7-1.4,1.6-2.8,2.5-4.1
							c1.1-1.6,3-2.5,5.2-2.5c2,0,3.8,0.9,5.1,2.5c1,1.3,1.8,2.7,2.5,4.1c0.1,0.2,0.1,0.3,0,0.4
							C230.8,218.8,230.7,218.9,230.5,218.9z M216.6,218h13.2c-0.7-1.1-1.4-2.3-2.1-3.4c-1.1-1.4-2.7-2.1-4.4-2.1
							c-1.8,0-3.4,0.8-4.4,2.1C217.9,215.7,217.3,216.8,216.6,218z"/>
					</g>
				</g>
			</g>
			<g>
				<g>
					<g>
						<path class="st7" d="M304.4,277.6c0.2,9-4.3,8.3-4.3,8.3c-0.2-0.7-0.9-1.7-1.7-2.9c-2.3-3.6-5.9-8.6-4.6-11.6
							c0.7-1.3,1.7-3.3,2.9-5.2c2.4-3.7,5.2-7.4,5.2-7.4l-11.9-2c0,0-8.4,3.5-15.1,3.8c-0.2,0-0.3,0-0.5,0c-6.1,0.1-5.2-4.7-5.2-6.2
							c0-0.7,1.6-1.9,3.6-3c2.8-1.7,6.1-3.4,6.1-3.4l-1.8-3.7c-1.2,0.2-2.3,0.2-3.1,0.2c-4.6-0.5-4-5.1-3.3-7
							c0.2-0.6,1.3-1.4,2.8-2.5c4.7-3.1,13.8-7.5,13.8-7.5h13.3l13.2,35.9C314,263.5,304.2,268.6,304.4,277.6z"/>
					</g>
					<g class="st23">
						<path class="st10" d="M304.4,277.6c0.2,9-4.3,8.3-4.3,8.3c-0.2-0.7-0.9-1.7-1.7-2.9c-2.3-3.6-5.9-8.6-4.6-11.6
							c0.7-1.3,1.7-3.3,2.9-5.2c2.4-3.7,5.2-7.4,5.2-7.4l-11.9-2c0,0-8.4,3.5-15.1,3.8c-0.2,0-0.3,0-0.5,0c-6.1,0.1-5.2-4.7-5.2-6.2
							c0-0.7,1.6-1.9,3.6-3c2.8-1.7,6.1-3.4,6.1-3.4l-1.8-3.7c-1.2,0.2-2.3,0.2-3.1,0.2c-4.6-0.5-4-5.1-3.3-7
							c0.2-0.6,1.3-1.4,2.8-2.5c4.7-3.1,13.8-7.5,13.8-7.5h13.3l13.2,35.9C314,263.5,304.2,268.6,304.4,277.6z"/>
					</g>
					<g class="st23">
						<path class="st10" d="M304.4,277.6c0.2,9-4.3,8.3-4.3,8.3c-0.2-0.7-0.9-1.7-1.7-2.9c0.2-0.8,0.2-1.7,0.2-2.6
							c-0.1-3.1-2.6-8.9-2.6-8.9l2.6-4.1c-0.4-0.4-1-0.7-1.8-1.1c2.4-3.7,5.2-7.4,5.2-7.4l-11.9-2c0,0-8.4,3.5-15.1,3.8
							c-0.2,0-0.3,0-0.5,0c0.4-3.4-1-7.5-1.6-9.3c2.8-1.7,6.1-3.4,6.1-3.4l-1.8-3.7c-1.2,0.2-2.3,0.2-3.1,0.2c0.7-2.9,0-7-0.4-9.4
							c4.7-3.1,13.8-7.5,13.8-7.5h13.3l13.2,35.9C314,263.5,304.2,268.6,304.4,277.6z"/>
					</g>
					<g>
						<g>
							<path class="st3" d="M300.4,286.2c-0.2,0-0.2,0-0.3,0c-0.2,0-0.2-0.2-0.3-0.2c-0.3-0.9-1.1-2.1-2.2-3.7
								c-2.4-3.7-5.4-8.2-4-11.1c1.6-3.4,6.3-10.1,7.8-12l-11.1-1.8c-1.1,0.4-8.9,3.5-15.1,3.8c-2.2,0.2-3.8-0.3-4.9-1.3
								c-1.4-1.4-1.2-3.4-1.2-4.7c0-0.2,0-0.4,0-0.6c0-1.6,6.9-5.2,9.5-6.6l-1.5-3c-2.9,0.5-5,0-6.1-1.4c-1.4-1.6-1.1-4.3-0.4-6.1
								c0.9-2.5,15.2-9.3,16.9-10.2c0.1,0,0.1-0.1,0.2-0.1h13.3c0.2,0,0.4,0.2,0.4,0.4c0,0.2-0.2,0.4-0.4,0.4h-13.2
								c-6.1,2.9-15.7,8-16.4,9.7c-0.5,1.2-1,3.8,0.2,5.2c1,1.2,2.9,1.6,5.6,1.1c0.2,0,0.4,0.1,0.5,0.2l1.8,3.7
								c0.1,0.2,0,0.5-0.2,0.6c-4.6,2.2-9.4,5.2-9.4,6.1c0,0.2,0,0.4,0,0.7c-0.1,1.1-0.2,2.9,1,4c0.8,0.8,2.3,1.2,4.3,1.1
								c6.5-0.4,14.9-3.8,15-3.8c0.1,0,0.2,0,0.2,0l11.9,2c0.2,0,0.2,0.1,0.3,0.2c0.1,0.2,0,0.3-0.1,0.4s-6.3,8.6-8,12.4
								c-1.1,2.5,1.8,7,4,10.3c0.9,1.4,1.7,2.7,2.1,3.6c0.3,0,1-0.1,1.6-0.7c0.9-0.8,2-2.7,1.9-7.1c-0.2-9.2,9.7-14.4,9.8-14.4
								c0.2-0.1,0.5,0,0.6,0.2c0.1,0.2,0,0.5-0.2,0.6c-0.1,0.1-9.6,5.1-9.3,13.7c0.1,3.8-0.7,6.5-2.1,7.9
								C301.8,286.2,300.9,286.2,300.4,286.2z"/>
						</g>
						<g>
							<path class="st3" d="M302.9,271.7c-0.2,0-0.3-0.1-0.4-0.2c-0.5-0.9-1.1-1.5-2-1.7c-1.3-0.4-2.6,0.3-2.6,0.3
								c-0.2,0.1-0.5,0-0.6-0.2s0-0.5,0.2-0.6c0.1,0,1.6-0.9,3.3-0.4c1,0.3,1.9,1,2.5,2.1c0.1,0.2,0,0.5-0.2,0.6
								C303.1,271.7,303,271.7,302.9,271.7z"/>
						</g>
					</g>
				</g>
				<g>
					<g>
						<g>
							<path class="st3" d="M304.2,201.3h-2.6v-27.4c0-0.4,0.2-0.7,0.7-0.7h1.3c0.4,0,0.7,0.2,0.7,0.7L304.2,201.3L304.2,201.3z"/>
						</g>
						<g>
							<rect x="302.1" y="143.7" class="st3" width="1.6" height="30.8"/>
						</g>
						<g>
							<rect x="301.8" y="140.7" class="st8" width="2.1" height="4.2"/>
							<path class="st3" d="M304,145.3h-2.1c-0.2,0-0.4-0.2-0.4-0.4v-4.2c0-0.2,0.2-0.4,0.4-0.4h2.1c0.2,0,0.4,0.2,0.4,0.4v4.2
								C304.4,145.1,304.2,145.3,304,145.3z M302.2,144.4h1.3v-3.4h-1.3V144.4z"/>
						</g>
						<g>
							<g class="st24">
								<path class="st7" d="M302.4,195.1c-0.2,0-0.4-0.2-0.4-0.4v-0.6c0-0.2,0.2-0.4,0.4-0.4s0.4,0.2,0.4,0.4v0.6
									C302.8,194.9,302.6,195.1,302.4,195.1z"/>
							</g>
							<g class="st24">
								<path class="st7" d="M302.4,193.1c-0.2,0-0.4-0.2-0.4-0.4V174c0-0.2,0.2-0.4,0.4-0.4h1.1c0.2,0,0.4,0.2,0.4,0.4
									s-0.2,0.4-0.4,0.4h-0.7v18.3C302.8,193,302.6,193.1,302.4,193.1z"/>
							</g>
							<g class="st24">
								<path class="st7" d="M302.8,165.1c-0.2,0-0.4-0.2-0.4-0.4v-1.1c0-0.2,0.2-0.4,0.4-0.4s0.4,0.2,0.4,0.4v1.1
									C303.2,164.9,303,165.1,302.8,165.1z"/>
							</g>
							<g class="st24">
								<path class="st7" d="M302.8,161.9c-0.2,0-0.4-0.2-0.4-0.4v-15.6c0-0.2,0.2-0.4,0.4-0.4s0.4,0.2,0.4,0.4v15.6
									C303.2,161.6,303,161.9,302.8,161.9z"/>
							</g>
						</g>
					</g>
					<g>
						<g>
							<g id="XMLID_159_">
								<path class="st8" d="M326,260.7h-46.2c-1.7,0-3-1.3-3-3v-54.9c0-1.7,1.3-3,3-3H326c1.7,0,3,1.3,3,3v54.9
									C329,259.4,327.7,260.7,326,260.7z"/>
							</g>
						</g>
						<g>
							<g>
								<defs>
									<path id="SVGID_31_" d="M326,260.7h-46.2c-1.7,0-3-1.3-3-3v-54.9c0-1.7,1.3-3,3-3H326c1.7,0,3,1.3,3,3v54.9
										C329,259.4,327.7,260.7,326,260.7z"/>
								</defs>
								<clipPath id="SVGID_32_">
									<use xlink:href="#SVGID_31_"  style="overflow:visible;"/>
								</clipPath>
								<g class="st25">
									<path class="st7" d="M278.7,249.8v-46.3c0-1.1,1-2.2,2.2-2.2h42.5c0.2,0,0.3-0.1,0.4-0.2l0,0c0.2-0.3-0.1-0.8-0.4-0.8
										h-43.2c-1.4,0-2.5,1.1-2.5,2.5v47.2c0,0.5,0.7,0.7,0.9,0.3l0.1-0.1C278.6,250,278.7,249.9,278.7,249.8z"/>
								</g>
							</g>
						</g>
						<g>
							<g>
								<defs>
									<path id="SVGID_33_" d="M326,260.7h-46.2c-1.7,0-3-1.3-3-3v-54.9c0-1.7,1.3-3,3-3H326c1.7,0,3,1.3,3,3v54.9
										C329,259.4,327.7,260.7,326,260.7z"/>
								</defs>
								<clipPath id="SVGID_34_">
									<use xlink:href="#SVGID_33_"  style="overflow:visible;"/>
								</clipPath>
								<g class="st26">
									<g class="st18">
										<path d="M329,202.8v54.9c0,1.7-1.3,3-3,3h-46.2c-0.7,0-1.4-0.2-2-0.7c1.3-1,2.6-1.4,2.6-1.4h17.6h26.9
											c1.2,0,2.2-1,2.2-2.2V204c0.6-1,1.1-1.7,1.7-2.2C329,202.1,329,202.4,329,202.8z"/>
									</g>
								</g>
							</g>
						</g>
						<g>
							<g>
								<defs>
									<path id="SVGID_35_" d="M326,260.7h-46.2c-1.7,0-3-1.3-3-3v-54.9c0-1.7,1.3-3,3-3H326c1.7,0,3,1.3,3,3v54.9
										C329,259.4,327.7,260.7,326,260.7z"/>
								</defs>
								<clipPath id="SVGID_36_">
									<use xlink:href="#SVGID_35_"  style="overflow:visible;"/>
								</clipPath>
								<g class="st27">
									<g class="st18">
										<path d="M329,245.1v12.5c0,1.7-1.3,3-3,3h-27.7l-0.3-2c0.2-0.9,0-4.7,0-4.7c-1.8-4.7,0-11.9,0-11.9l11.2-6.9
											c0,0,7.5,4.1,8.9,5.6c1.5,1.6,2.6,11.1,2.6,11.1c1.5-0.3,4.1-2.5,6.5-4.7C327.8,246.4,328.5,245.7,329,245.1z"/>
									</g>
								</g>
							</g>
						</g>
						<g>
							<g>
								<path class="st3" d="M326,261.1h-46.2c-1.9,0-3.4-1.6-3.4-3.4v-54.9c0-1.9,1.6-3.4,3.4-3.4H326c1.9,0,3.4,1.6,3.4,3.4v54.9
									C329.5,259.5,327.9,261.1,326,261.1z M279.8,200.2c-1.5,0-2.6,1.1-2.6,2.6v54.9c0,1.5,1.1,2.6,2.6,2.6H326
									c1.5,0,2.6-1.1,2.6-2.6v-54.9c0-1.5-1.1-2.6-2.6-2.6H279.8L279.8,200.2z"/>
							</g>
						</g>
					</g>
					<g>
						<g>
							<path class="st3" d="M327.2,251.2c-0.2,0-0.4-0.2-0.4-0.4v-1.7c0-0.2,0.2-0.4,0.4-0.4s0.4,0.2,0.4,0.4v1.7
								C327.6,251,327.5,251.2,327.2,251.2z"/>
						</g>
						<g>
							<path class="st3" d="M327.1,247.3c-0.2,0-0.4-0.2-0.4-0.4v-43c0-0.9-0.7-1.6-1.6-1.6h-28.8c-0.2,0-0.4-0.2-0.4-0.4
								s0.2-0.4,0.4-0.4h28.8c1.4,0,2.5,1.1,2.5,2.5v43C327.5,247.2,327.4,247.3,327.1,247.3z"/>
						</g>
						<g>
							<path class="st3" d="M278.7,211.9c-0.2,0-0.4-0.2-0.4-0.4V204c0-1.4,1.1-2.5,2.5-2.5h9.3c0.2,0,0.4,0.2,0.4,0.4
								s-0.2,0.4-0.4,0.4h-9.3c-0.9,0-1.6,0.7-1.6,1.6v7.5C279.1,211.7,278.9,211.9,278.7,211.9z"/>
						</g>
						<g>
							<path class="st3" d="M278.7,217.1c-0.2,0-0.4-0.2-0.4-0.4v-1.5c0-0.2,0.2-0.4,0.4-0.4s0.4,0.2,0.4,0.4v1.5
								C279.1,216.8,278.9,217.1,278.7,217.1z"/>
						</g>
						<g>
							<path class="st3" d="M287.9,259.1h-7.1c-1.4,0-2.5-1.1-2.5-2.5v-37.1c0-0.2,0.2-0.4,0.4-0.4s0.4,0.2,0.4,0.4v37.1
								c0,0.9,0.7,1.6,1.6,1.6h7.1c0.2,0,0.4,0.2,0.4,0.4C288.3,258.8,288.1,259.1,287.9,259.1z"/>
						</g>
						<g>
							<path class="st3" d="M325.1,259.1H290c-0.2,0-0.4-0.2-0.4-0.4c0-0.2,0.2-0.4,0.4-0.4h35.1c0.9,0,1.6-0.7,1.6-1.6
								c0-0.2,0.2-0.4,0.4-0.4c0.2,0,0.4,0.2,0.4,0.4C327.6,257.9,326.5,259.1,325.1,259.1z"/>
						</g>
					</g>
					<g>
						<g>
							<g>
								<g id="XMLID_158_">
									<circle class="st10" cx="302.9" cy="235.1" r="10.6"/>
								</g>
							</g>
							<g>
								<g>
									<defs>
										<circle id="SVGID_37_" cx="302.9" cy="235.1" r="10.6"/>
									</defs>
									<clipPath id="SVGID_38_">
										<use xlink:href="#SVGID_37_"  style="overflow:visible;"/>
									</clipPath>
									<g class="st28">
										<g class="st18">
											<path d="M313.5,235.1c0,5.8-4.7,10.6-10.6,10.6c-2.8,0-5.3-1.1-7.2-2.8c0.2-0.6,0.7-1.1,1.6-1.8c0,0,6.1,5.2,11.7-0.3
												c4.3-4.3,0.6-10.5,0.6-10.5s0.6-0.7,2.2-0.9C312.9,231,313.5,232.9,313.5,235.1z"/>
										</g>
									</g>
								</g>
							</g>
							<g>
								<g>
									<defs>
										<circle id="SVGID_39_" cx="302.9" cy="235.1" r="10.6"/>
									</defs>
									<clipPath id="SVGID_40_">
										<use xlink:href="#SVGID_39_"  style="overflow:visible;"/>
									</clipPath>
									<g class="st29">
										<g class="st18">
											<path d="M296.7,237.5c-0.2,0.1-0.4,0.1-0.7-0.2c-0.1-0.2-0.2-0.4-0.2-0.7c-0.7-4.5,1.6-8.8,6.5-9.2
												c0.9-0.1,3.2,0,2.9,1.5c-0.1,0.4-0.4,0.8-0.8,1.1c-1.3,1-2.8,1.8-4.1,2.9c-0.7,0.6-1.2,1.1-1.7,1.9
												C298.3,235.2,297.5,237.2,296.7,237.5z"/>
										</g>
									</g>
								</g>
							</g>
							<g>
								<g>
									<path class="st3" d="M302.9,246.1c-6.1,0-11-4.9-11-11c0-6.1,4.9-11,11-11s11,4.9,11,11
										C313.9,241.2,308.9,246.1,302.9,246.1z M302.9,224.9c-5.6,0-10.2,4.6-10.2,10.2s4.6,10.2,10.2,10.2
										c5.6,0,10.2-4.6,10.2-10.2C313,229.5,308.5,224.9,302.9,224.9z"/>
								</g>
							</g>
						</g>
						<g>
							<path class="st3" d="M294.7,235.6c-0.2,0-0.4-0.2-0.4-0.4c0-4.7,3.8-8.6,8.6-8.6c0.2,0,0.4,0.2,0.4,0.4
								c0,0.2-0.2,0.4-0.4,0.4c-4.3,0-7.8,3.5-7.8,7.8C295.1,235.3,294.9,235.6,294.7,235.6z"/>
						</g>
						<g>
							<path class="st3" d="M300.8,243.5L300.8,243.5c-3.3-0.8-5.6-3.4-6.3-6.6c-0.1-0.2,0.1-0.5,0.3-0.5c0.2-0.1,0.5,0.1,0.5,0.3
								c0.6,2.9,2.7,5.2,5.6,6c0.2,0.1,0.3,0.3,0.3,0.5C301.1,243.3,300.9,243.5,300.8,243.5z"/>
						</g>
						<g>
							<path class="st3" d="M303,243.7c-0.2,0-0.4-0.2-0.4-0.4c0-0.2,0.2-0.4,0.4-0.4c4.3,0,7.8-3.5,7.8-7.8c0-2.3-1.1-4.4-2.9-6
								c-0.2-0.2-0.2-0.4-0.1-0.6c0.2-0.2,0.4-0.2,0.6-0.1c2,1.7,3.1,4.1,3.1,6.6C311.6,239.9,307.7,243.7,303,243.7z"/>
						</g>
						<g>
							<path class="st3" d="M306.6,228.2c-0.1,0-0.1,0-0.2,0c-0.6-0.2-1.2-0.5-1.9-0.7c-0.2-0.1-0.3-0.2-0.3-0.5
								c0.1-0.2,0.3-0.3,0.5-0.3c0.7,0.2,1.4,0.4,2,0.7c0.2,0.1,0.3,0.3,0.2,0.6C306.8,228.1,306.7,228.2,306.6,228.2z"/>
						</g>
					</g>
					<g>
						<g>
							<path class="st7" d="M295.4,211.2c1.1,0,1.6,0.7,1.6,1.8v0.2h-1.1V213c0-0.5-0.2-0.7-0.6-0.7s-0.6,0.2-0.6,0.7
								c0,0.5,0.2,0.9,1,1.6c1,0.8,1.2,1.4,1.2,2.2c0,1.1-0.6,1.8-1.7,1.8c-1.1,0-1.7-0.7-1.7-1.8v-0.4h1.1v0.5
								c0,0.5,0.2,0.7,0.6,0.7s0.6-0.2,0.6-0.7c0-0.5-0.2-0.9-1-1.6c-1-0.8-1.2-1.4-1.2-2.2C293.7,211.9,294.3,211.2,295.4,211.2z"
								/>
						</g>
						<g>
							<path class="st7" d="M297.3,211.3h3.5v1h-1.1v6.1h-1.1v-6.1h-1.1L297.3,211.3L297.3,211.3z"/>
						</g>
						<g>
							<path class="st7" d="M304.5,218.4h-1.1l-0.2-1.3h-1.3l-0.2,1.3h-1l1.1-7.1h1.6L304.5,218.4z M302,216.2h1.1l-0.5-3.6l0,0
								L302,216.2z"/>
						</g>
						<g>
							<path class="st7" d="M307.4,218.4c-0.1-0.2-0.1-0.2-0.1-0.9v-1.1c0-0.7-0.2-0.9-0.7-0.9h-0.4v2.9H305v-7.1h1.7
								c1.1,0,1.7,0.6,1.7,1.6v0.6c0,0.7-0.2,1.1-0.7,1.5l0,0c0.6,0.2,0.7,0.8,0.7,1.6v1.1c0,0.3,0,0.7,0.1,0.8L307.4,218.4
								L307.4,218.4z M306.2,212.3v2.2h0.4c0.4,0,0.7-0.2,0.7-0.7V213c0-0.5-0.2-0.7-0.6-0.7L306.2,212.3L306.2,212.3z"/>
						</g>
						<g>
							<path class="st7" d="M308.8,211.3h3.5v1h-1.1v6.1H310v-6.1h-1.1L308.8,211.3L308.8,211.3z"/>
						</g>
					</g>
				</g>
				<g>
					<path class="st3" d="M329.4,222.2c-0.1,0-0.1,0-0.2,0c-0.2-0.1-0.3-0.3-0.2-0.6c1.6-4,6.1-5.4,6.3-5.5c0.2-0.1,0.5,0.1,0.5,0.2
						c0.1,0.2-0.1,0.5-0.2,0.5c-0.1,0-4.3,1.3-5.7,5C329.7,222.1,329.6,222.2,329.4,222.2z"/>
				</g>
				<g>
					<g>
						<path class="st7" d="M355.5,339.1c-0.5-8.6-0.8-17.4-1.2-24.5c-0.9-14.7-1.6-24.6-2.9-34.5c-1.3-10-1.1-25.1-1.8-30.5
							s-2.6-6.4-4.3-12.7c-1.6-6.3-2.9-18.7-5.6-20.5c-2.6-1.7-10.5-5.1-10.5-5.1v35.5c-4.7,7.2-10.2,8.9-10.2,8.9
							c-3.5-10.3-3.1-14.4-6.7-18.2c-3.5-3.8-6.1-8.7-11.7-6.6c-2.6,1-4.1,2-2.8,11.1c1.3,9,4,11.9,4,11.9c0.4,3.1-0.2,12-1.3,16.6
							c-1.1,4.6,3.1,16.8,5.2,24.6s12.7,23.6,12.7,23.6s0.4,8.7-0.4,17.8c-0.1,0.8-0.2,1.7-0.2,2.6c0,0,4.9,7.6,10.2,7.6
							C347.7,346.7,355.5,339.1,355.5,339.1z"/>
					</g>
					<g>
						<g class="st23">
							<path class="st10" d="M298.8,233.7c0.2-0.8,0.2-1.3,0-1.6c0.5-0.5,1.1-0.8,2-1.1c5.6-2,8.2,2.9,11.7,6.6
								c0.3,0.3,0.7,0.7,0.9,1.1c-3.2-1.2-7.5-1.1-9.2,1.1C302.1,242.8,297.7,237.5,298.8,233.7z"/>
						</g>
						<g class="st23">
							<path class="st10" d="M322.9,330.4l1.7,6.5c0,0-2.5-2.5-6.2-8.4c0.2-5.7-0.1-10.1-0.1-10.1s-10.7-15.8-12.7-23.6
								c-2-7.8-6.2-20-5.2-24.6c1.1-4.6,1.8-13.6,1.3-16.6c0,0-0.6-0.7-1.3-2.1c0.5-0.4,1.1-0.8,1.7-1c0,0,2.9,6.7,2.2,15.7
								c-0.7,8.9,0.8,9.6,3.8,21.2c2.9,11.6,7.8,24.7,10.2,27C320.8,316.9,321.8,327.7,322.9,330.4z"/>
						</g>
						<g class="st23">
							<path class="st10" d="M327.2,252.5c0,0,3.5,0.6,4.9,1.3c0,0-6.9,1.8-7.3,3.7c-0.4,1.9-1.9,3.8-4.5,1.6c0,0-0.1-1.5-0.4-3.5
								c1.6-0.7,5.8-3,9.5-8.7v-35.4c0,0,3.8,1.6,7.1,3.2c-2.4,0.3-4.8,1.1-5.8,2.6c0,0,0.7,2.9,4,4.4c2.5,1.1,0,20.2,0,20.2
								s4.2,1,5.5,4.8c0,0-6.8,0.7-9.6,2.9C327.8,251.9,327.2,252.5,327.2,252.5z"/>
						</g>
						<g class="st23">
							<path class="st10" d="M354.3,314.7c0.3,5.7,0.7,12.6,1,19.6c-0.9-13.2-3.5-36-3.5-36s-2.4,8.4-2.5,7.5
								c-0.5-2.6,1.1-17.5,1-22.8c-0.1-2.5,0.1-8.5,0.3-14.6c0.2,4.1,0.4,8.3,1,11.8C352.7,290.2,353.4,300,354.3,314.7z"/>
						</g>
					</g>
					<g>
						<g>
							<path class="st3" d="M355.5,339.6c-0.2,0-0.4-0.2-0.4-0.4c-0.2-4.8-0.5-9.7-0.7-14.4c-0.2-3.6-0.3-7-0.5-10.1
								c-0.9-14.2-1.6-24.2-2.9-34.5c-0.8-5.9-1.1-13.7-1.2-20c-0.2-4.4-0.2-8.3-0.6-10.5c-0.3-2.8-1.1-4.4-2-6.2
								c-0.7-1.6-1.6-3.4-2.3-6.3c-0.5-1.9-0.9-4.3-1.4-6.7c-1.1-5.5-2.3-12.4-4-13.5c-2.1-1.4-7.9-3.9-9.8-4.7v34.5
								c0,0.1,0,0.2-0.1,0.2c-4.7,7.2-10.2,9-10.5,9.1s-0.5-0.1-0.5-0.2c-1.3-3.8-2-6.7-2.7-9.2c-1.1-4.1-1.7-6.5-3.9-8.8
								c-0.7-0.7-1.2-1.4-1.9-2.1c-2.7-3.2-5.1-6.1-9.4-4.4c-2.2,0.8-3.8,1.4-2.5,10.6c1.3,8.7,3.8,11.6,3.8,11.6
								c0.1,0.1,0.1,0.2,0.1,0.2c0.5,3.2-0.2,12.4-1.4,16.8c-0.8,3.4,1.5,11.4,3.4,18.4c0.6,2.1,1.2,4.2,1.6,6
								c2,7.6,12.5,23.3,12.6,23.4c0.1,0.1,0.1,0.2,0.1,0.2s0.4,8.8-0.5,17.9c-0.1,0.8-0.2,1.7-0.2,2.6c0,0.2-0.2,0.4-0.5,0.4
								c-0.2,0-0.4-0.2-0.3-0.5c0.1-0.9,0.2-1.8,0.2-2.6c0.8-8.4,0.5-16.6,0.5-17.7c-1-1.5-10.7-16.1-12.6-23.6
								c-0.5-1.8-1.1-3.8-1.6-5.9c-2-7.1-4.3-15.2-3.4-18.8c1.1-4.3,1.8-13.1,1.4-16.4c-0.5-0.6-2.8-3.8-4-12
								c-1.3-8.9,0-10.4,3-11.5c4.8-1.8,7.6,1.5,10.3,4.7c0.6,0.7,1.2,1.4,1.8,2c2.4,2.5,3,5,4.1,9.3c0.6,2.3,1.3,5.1,2.5,8.7
								c1.3-0.6,5.7-2.7,9.6-8.5v-35.3c0-0.2,0.1-0.2,0.2-0.3c0.1-0.1,0.2-0.1,0.4,0c0.3,0.2,7.9,3.4,10.6,5.1
								c2,1.3,3.2,7.8,4.3,14.1c0.5,2.5,0.9,4.8,1.4,6.7c0.7,2.9,1.6,4.6,2.2,6.2c0.9,2,1.6,3.6,2,6.5c0.2,2.2,0.4,6.1,0.6,10.6
								c0.2,6.2,0.5,14,1.2,19.9c1.3,10.3,2,20.4,2.9,34.5c0.2,3.1,0.3,6.5,0.5,10.1c0.2,4.7,0.5,9.6,0.7,14.4
								C355.9,339.4,355.8,339.5,355.5,339.6L355.5,339.6z"/>
						</g>
						<g>
							<path class="st3" d="M324.8,262.8c-0.8,0-1.8-0.2-2.6-0.6c-2.4-1.2-3.5-6.1-3.5-6.4c-0.1-0.2,0.1-0.5,0.3-0.5
								c0.2-0.1,0.5,0.1,0.5,0.3c0.3,1.3,1.5,4.9,3.1,5.8c2,1.1,5,0,5.1,0c0.2-0.1,0.5,0,0.6,0.2s0,0.5-0.2,0.6
								C327.9,262.3,326.5,262.8,324.8,262.8z"/>
						</g>
						<g>
							<path class="st3" d="M329.4,247.3c-0.1,0-0.1,0-0.2,0c-0.2-0.1-0.3-0.3-0.2-0.6c0-0.1,0.8-1.8,2.9-2.5c2-0.6,4.3-0.1,7,1.6
								c0.2,0.1,0.2,0.4,0.2,0.6c-0.1,0.2-0.4,0.2-0.6,0.2c-2.5-1.5-4.6-2-6.3-1.5c-1.7,0.5-2.4,2-2.4,2
								C329.7,247.2,329.5,247.3,329.4,247.3z"/>
						</g>
						<g>
							<path class="st3" d="M329.4,227.3C329.3,227.3,329.3,227.3,329.4,227.3c-0.3-0.1-0.5-0.2-0.4-0.5c0-0.1,0.6-2.9,4.4-3.7
								c0.2-0.1,0.4,0.1,0.5,0.3c0.1,0.2-0.1,0.4-0.3,0.5c-3.3,0.6-3.8,2.9-3.8,2.9C329.7,227.2,329.6,227.3,329.4,227.3z"/>
						</g>
						<g>
							<path class="st3" d="M324.9,344.4L324.9,344.4c-0.2,0-0.4-0.2-0.4-0.4c0-0.1,0.2-9.5-1.3-12c-0.7-1.1-0.9-2.5-1.2-4
								c-0.5-2.6-1.2-5.8-3.8-9.1c-0.2-0.2-0.1-0.4,0.1-0.6c0.2-0.2,0.4-0.1,0.6,0.1c2.7,3.4,3.4,6.8,3.9,9.5
								c0.3,1.5,0.6,2.8,1.1,3.8c1.6,2.7,1.5,12.1,1.5,12.5C325.3,344.3,325.2,344.4,324.9,344.4z"/>
						</g>
						<g>
							<path class="st3" d="M347.6,302.2L347.6,302.2c-0.3-0.1-0.5-0.2-0.4-0.5c0-0.1,1.6-7.9,1.6-15.8v-18.6c0-0.2,0.2-0.4,0.4-0.4
								s0.4,0.2,0.4,0.4v18.6c0,8-1.6,15.9-1.6,16C348,302,347.8,302.2,347.6,302.2z"/>
						</g>
						<g>
							<path class="st3" d="M302.1,254.3L302.1,254.3c-0.2,0-0.4-0.2-0.4-0.4c0-0.3,0-3.4,1.1-4.4c0.2-0.2,0.4-0.2,0.6,0
								c0.2,0.2,0.2,0.4,0,0.6c-0.6,0.6-0.7,2.6-0.7,3.8C302.5,254.1,302.2,254.3,302.1,254.3z"/>
						</g>
						<g>
							<path class="st3" d="M304.4,244.3L304.4,244.3c-0.3-0.1-0.4-0.3-0.3-0.5c0-0.2,1-3.3,3.6-4.4c1.4-0.7,3-0.5,4.7,0.4
								c0.2,0.1,0.3,0.3,0.2,0.6c-0.1,0.2-0.3,0.3-0.6,0.2c-1.6-0.7-2.9-0.9-4.1-0.3c-2.2,1-3.1,3.8-3.1,3.8
								C304.8,244.2,304.6,244.3,304.4,244.3z"/>
						</g>
						<g>
							<path class="st3" d="M333.5,255.1c-0.1,0-0.2,0-0.2-0.1c-1.6-1.4-3.8-1.1-6.5-0.7c-1.4,0.2-2.9,0.4-4.3,0.3
								c-0.2,0-0.4-0.2-0.4-0.4s0.2-0.4,0.4-0.4l0,0c1.4,0,2.9-0.2,4.2-0.3c2.8-0.3,5.4-0.7,7.3,1c0.2,0.2,0.2,0.4,0,0.6
								C333.7,255.1,333.6,255.1,333.5,255.1z"/>
						</g>
					</g>
				</g>
			</g>
		</g>
	</g>
</g>
</svg>
