<?xml version="1.0" encoding="utf-8"?>
<!-- Generator: Adobe Illustrator 25.2.0, SVG Export Plug-In . SVG Version: 6.00 Build 0)  -->
<svg version="1.1" id="Layer_1" xmlns="http://www.w3.org/2000/svg" xmlns:xlink="http://www.w3.org/1999/xlink" x="0px" y="0px"
	 viewBox="0 0 500 351" style="enable-background:new 0 0 500 351;" xml:space="preserve">
<style type="text/css">
	.st0{opacity:0.1;}
	.st1{fill:#ECF1FF;}
	.st2{opacity:0.2;fill:#7703FC;}
	.st3{fill:#FFDB37;}
	.st4{fill:#9CAFF1;}
	.st5{fill:#161C2B;}
	.st6{fill:#242D44;}
	.st7{fill:none;stroke:#495163;stroke-width:0.9642;stroke-miterlimit:10;}
	.st8{fill:#7703FC;}
	.st9{fill:#E0CAFF;}
	.st10{fill:none;stroke:#FFFFFF;stroke-width:0.9931;stroke-linecap:round;stroke-linejoin:round;stroke-miterlimit:10;}
	.st11{fill:#FD5100;}
	.st12{fill:#FFFFFF;}
	.st13{opacity:0.5;fill:#9CAFF1;}
	.st14{fill:none;stroke:#FDFEFF;stroke-width:0.9745;stroke-miterlimit:10;}
	.st15{fill:#FAA67C;}
	.st16{fill:#D6DCFD;}
	.st17{fill:none;stroke:#FFFFFF;stroke-width:1.172;stroke-linecap:round;stroke-linejoin:round;stroke-miterlimit:10;}
	.st18{fill:#7B94DE;}
	.st19{opacity:0.29;}
	.st20{clip-path:url(#XMLID_3_);}
	.st21{fill:#F2CD31;}
	.st22{fill:none;stroke:#000000;stroke-width:0.4058;stroke-linecap:round;stroke-linejoin:round;stroke-miterlimit:10;}
	.st23{opacity:0.5;fill:none;stroke:#495163;stroke-width:0.9642;stroke-miterlimit:10;}
</style>
<g>
	<g>
		<g class="st0">
			<circle class="st1" cx="412" cy="294.1" r="12"/>
			
				<ellipse transform="matrix(0.7071 -0.7071 0.7071 0.7071 -86.8805 112.2959)" class="st1" cx="92.1" cy="161" rx="44.9" ry="44.9"/>
			<path class="st2" d="M41.5,229c0,2.3-1.9,4.2-4.2,4.2s-4.2-1.9-4.2-4.2c0-2.3,1.9-4.2,4.2-4.2S41.5,226.7,41.5,229z"/>
			<path class="st3" d="M475.5,189.9c0,2.7-2.2,4.9-4.9,4.9c-2.7,0-4.9-2.2-4.9-4.9c0-2.7,2.2-4.9,4.9-4.9
				C473.3,185,475.5,187.2,475.5,189.9z"/>
			<circle class="st2" cx="256.5" cy="20" r="4.6"/>
			
				<ellipse transform="matrix(0.7071 -0.7071 0.7071 0.7071 -164.0307 193.112)" class="st1" cx="151.1" cy="294.6" rx="10.5" ry="10.5"/>
			
				<ellipse transform="matrix(0.9349 -0.3549 0.3549 0.9349 5.8653 152.2803)" class="st1" cx="418" cy="60.2" rx="40.2" ry="40.2"/>
			<polygon class="st4" points="99.6,280 63.4,274.6 76.8,310 			"/>
		</g>
		<g>
			<g>
				<path class="st5" d="M415.4,235.8V72.7c0-14.9-12.1-27-27-27l-278.8,0c-14.9,0-27,12.1-27,27v163.1c0,14.9,12.1,27,27,27
					l278.8,0C403.3,262.8,415.4,250.7,415.4,235.8z"/>
				<path class="st6" d="M407.2,238.8V69.6c0-8.7-7-15.7-15.7-15.7l-283.3,0c-8.7,0-15.7,7-15.7,15.7l0,169.2
					c0,8.7,7,15.7,15.7,15.7l283.3,0C400.1,254.5,407.2,247.5,407.2,238.8z"/>
			</g>
			<g>
				<g>
					<g>
						<g>
							<path class="st7" d="M243.1,224.7H123.7c-4.8,0-8.7-3.9-8.7-8.7V88c0-4.8,3.9-8.7,8.7-8.7h119.3c4.8,0,8.7,3.9,8.7,8.7v128
								C251.8,220.8,247.9,224.7,243.1,224.7z"/>
						</g>
						<g>
							<path class="st7" d="M382.9,162.8H272c-4.8,0-8.7-3.9-8.7-8.7V88c0-4.8,3.9-8.7,8.7-8.7h110.9c4.8,0,8.7,3.9,8.7,8.7v66.1
								C391.6,158.9,387.7,162.8,382.9,162.8z"/>
						</g>
						<g>
							<path class="st7" d="M382.9,224.6H272c-4.8,0-8.7-3.9-8.7-8.7v-32.7c0-4.8,3.9-8.7,8.7-8.7h110.9c4.8,0,8.7,3.9,8.7,8.7v32.7
								C391.6,220.7,387.7,224.6,382.9,224.6z"/>
						</g>
					</g>
					<g>
						<g>
							<path class="st8" d="M230.6,202H136c-2,0-3.6-1.6-3.6-3.6v-20.1c0-2,1.6-3.6,3.6-3.6h94.5c2,0,3.6,1.6,3.6,3.6v20.1
								C234.2,200.4,232.6,202,230.6,202z"/>
						</g>
						<g>
							<g>
								<g class="st0">
									<path class="st9" d="M229.5,164.2h-92.3c-2.6,0-4.7-2.1-4.7-4.7V96.8c0-2.6,2.1-4.7,4.7-4.7h92.3c2.6,0,4.7,2.1,4.7,4.7
										v62.7C234.2,162.1,232.1,164.2,229.5,164.2z"/>
								</g>
							</g>
							<g>
								<circle class="st3" cx="229.9" cy="94.9" r="10.6"/>
								<polyline class="st10" points="225.6,95 229.5,97.9 234.2,91.9 								"/>
							</g>
						</g>
					</g>
				</g>
				<g>
					<path class="st11" d="M135.3,64.8c0,2.1-1.7,3.9-3.9,3.9s-3.9-1.7-3.9-3.9c0-2.1,1.7-3.9,3.9-3.9S135.3,62.6,135.3,64.8z"/>
					<path class="st3" d="M150.4,64.8c0,2.1-1.7,3.9-3.9,3.9s-3.9-1.7-3.9-3.9c0-2.1,1.7-3.9,3.9-3.9S150.4,62.6,150.4,64.8z"/>
					<path class="st4" d="M165.5,64.8c0,2.1-1.7,3.9-3.9,3.9c-2.1,0-3.9-1.7-3.9-3.9c0-2.1,1.7-3.9,3.9-3.9
						C163.8,60.9,165.5,62.6,165.5,64.8z"/>
				</g>
			</g>
		</g>
		<g>
			<g>
				<circle class="st8" cx="80.1" cy="64.9" r="25"/>
			</g>
			<path class="st12" d="M88.6,58.5c-2-2-5.3-2-7.3,0.1L80,59.9l-1.4-1.3c-2-2-5.3-2-7.3,0.1c-2,2-2,5.3,0.1,7.3l5,5c0,0,0,0,0,0
				c0.8,0.8,1.8,1.3,2.8,1.4c1.6,0.2,3.3-0.3,4.5-1.5l5-5.1C90.7,63.8,90.7,60.5,88.6,58.5z"/>
		</g>
	</g>
	<g>
		<g>
			<g>
				<g>
					<circle class="st13" cx="250.6" cy="325.3" r="8.9"/>
					<circle class="st13" cx="197.9" cy="325.3" r="8.9"/>
					<path class="st14" d="M330.9,180.8l-20.4,4.2c-4.3,0.8-7.6,4-8.6,8.2l-18.1,75.7H182.4c-6.3,0-11.8-4.1-13.6-10.1l-10.1-44.2
						l140.8-11.1"/>
					<path class="st14" d="M165.1,242.7l126.7-7.4l-15.2,62.5c-2.6,10.9-12.3,18.6-23.4,18.6h-73.9"/>
					<line class="st14" x1="269.1" y1="205.8" x2="256.9" y2="268.8"/>
					<line class="st14" x1="189" y1="212.1" x2="195.8" y2="268.8"/>
					<line class="st14" x1="228.4" y1="209" x2="228.4" y2="268.8"/>
				</g>
			</g>
			<g>
				<g>
					<g>
						<g>
							<polygon class="st15" points="437.2,260.4 444.8,247.7 473.8,257.9 467.2,269.2 							"/>
							<g>
								<path d="M468.7,263.8l-0.1,0.1c-0.8,1.1-2.5,1.9-3.8,1.3c-0.8-0.4-2-0.6-3.4-0.4c-1.3,0.2-2.2,1.4-2.1,2.7
									c0.3,4.5,1.2,15.4-0.6,24.7c-0.4,2.1,0.2,4.3,1.8,5.9l0.8,0.8l22.7-38.8l-12.4-4.1c-1.1-0.9-2.7-0.9-3.7,0.2l0,0
									c-0.9,1-1,2.4-0.2,3.5l0.8,1C469.3,261.5,469.4,262.8,468.7,263.8z"/>
								<path class="st16" d="M484.1,260.1c0,0,0.6-0.3,1.3,0.2c0.8,0.6,1,1.7,0.5,2.6l-20.6,35.4c-0.8,1.4-2.7,1.7-3.9,0.6l0,0
									L484.1,260.1z"/>
								<g>
									<path class="st17" d="M459.8,273.7c0,0,0.7-1.1,3.5-0.6"/>
									<path class="st17" d="M459.8,276.5c0,0,0.7-1.1,3.5-0.6"/>
									<path class="st17" d="M459.8,279.9c0,0,0.7-1.1,3.5-0.6"/>
								</g>
								<path class="st8" d="M479.1,257.9c0,0-9.1,10.1-7.4,23.3l12.3-21.1C484.1,260.1,482.1,258.6,479.1,257.9z"/>
							</g>
						</g>
						<path class="st18" d="M363.5,196.8l14.9,43.3c1.5,4.5,4.8,8.2,9.2,10l0.1,0l61.7,20.2l11.2-24.6l-58.2-22.5
							c0,0-15.1-55.8-20.6-61.3L363.5,196.8z"/>
					</g>
					<g>
						<g>
							<polygon class="st15" points="356,290.8 370.8,291 376.8,321.1 363.6,321.1 							"/>
							<g>
								<path d="M369.1,319.7l-0.1,0c-1.4-0.1-2.9-1.2-3.1-2.6c-0.1-0.9-0.4-2-1.4-3.1c-0.8-1-2.3-1.2-3.4-0.5
									c-3.7,2.6-12.6,8.8-21.6,12c-2.1,0.7-3.6,2.4-4.2,4.5l-0.3,1.1l45-0.1l-2.8-12.8c0.3-1.4-0.6-2.8-2-3.1l0,0
									c-1.3-0.3-2.6,0.4-3.1,1.6l-0.4,1.2C371.3,319.1,370.2,319.8,369.1,319.7z"/>
								<path class="st16" d="M380,331.1c0,0,0.5,0.4,0.5,1.2c-0.1,1-1,1.8-2,1.7l-40.9,0.2c-1.6,0-2.8-1.5-2.5-3l0,0L380,331.1z"/>
								<g>
									<path class="st17" d="M356,317.1c0,0,1.3,0.1,2.3,2.8"/>
									<path class="st17" d="M353.5,318.5c0,0,1.3,0.1,2.3,2.8"/>
									<path class="st17" d="M350.7,320.1c0,0,1.3,0.1,2.3,2.8"/>
								</g>
								<path class="st8" d="M379.4,325.7c0,0-13.3-2.7-23.8,5.4l24.5-0.1C380,331.1,380.3,328.6,379.4,325.7z"/>
							</g>
						</g>
						<path class="st4" d="M358.7,175l-19.9,55.3c-1.1,3.1-1.4,6.3-1,9.6l15.9,67.1l26.7-3.4l-12.6-65.7c0,0,27.3-46.6,26.2-65.4
							L358.7,175z"/>
					</g>
				</g>
				<g>
					<polygon class="st15" points="341.4,101.4 348.5,116.1 359.3,107.3 348.7,90.5 					"/>
					<polygon class="st19" points="344.3,107.3 347,98.7 341.6,101.9 					"/>
					<path class="st15" d="M335.2,70.9c0,0-6.9,1.7-6.7,10.5c0,0,0,3.4,0.5,12.6c0.2,4.9,3.7,11,9.8,10.2c3-0.4,6-2.3,8.8-4.7
						l3.8-4.1c8.7-11.3-1.2-27.6-15.1-24.7C335.9,70.8,335.5,70.8,335.2,70.9z"/>
					<path class="st15" d="M329.4,88.1l-2.5,5.1c-0.3,0.4-0.1,1.1,0.5,1.1l3.2,0.3L329.4,88.1z"/>
					<g>
						<g>
							<g>
								<defs>
									<path id="XMLID_2_" d="M331.8,85.4c0,0,3.1,0.7,3.2,2.6c0.2,2.3-2.7,1.9-2.7,1.9S329.6,87.7,331.8,85.4z"/>
								</defs>
								<use xlink:href="#XMLID_2_"  style="overflow:visible;fill:#FFFFFF;"/>
								<clipPath id="XMLID_3_">
									<use xlink:href="#XMLID_2_"  style="overflow:visible;"/>
								</clipPath>
								<path class="st20" d="M332.2,84.8c0,0,1.9,3.3-0.4,5.6c-2.3,2.3,0,0,0,0l-1.3-0.1l-0.2-3.7L332.2,84.8z"/>
							</g>
							<g>
								<path d="M331.2,84.9c0.5,0.1,0.9,0.2,1.3,0.4c0.4,0.2,0.8,0.4,1.1,0.6c0.4,0.3,0.7,0.6,0.9,0.9c0.3,0.4,0.4,0.8,0.5,1.2
									c0,0.1,0,0.1-0.1,0.1c-0.1,0-0.1,0-0.1-0.1l0,0c-0.3-0.8-0.8-1.4-1.5-1.7c-0.3-0.2-0.7-0.3-1.1-0.4
									c-0.4-0.1-0.8-0.2-1.1-0.2l0,0c-0.2,0-0.4-0.2-0.3-0.4S331,84.9,331.2,84.9C331.2,84.9,331.2,84.9,331.2,84.9z"/>
							</g>
						</g>
						<path class="st12" d="M330.1,96.4l3-0.1C333.1,96.4,331.1,99.4,330.1,96.4z"/>
						<path class="st8" d="M337.9,83.3c-0.3,0.1-0.7,0.1-1,0c-0.6-0.3-2.1-0.9-4.2-1.5c-3.4-1-1.8-3.1,0-2.8
							c1.8,0.3,4.4,1.8,5.4,3.1C338.5,82.8,338.2,83.1,337.9,83.3z"/>
					</g>
					<path class="st8" d="M348.5,89.5c0,0-2,5.9,5,8.8c0,0,15.7-21.5-7.4-28.8l-1.3,2.2L348.5,89.5z"/>
					<path class="st8" d="M355.4,72.9c0,1-1.1,8.7-1.1,8.7l-8.5,7.3c0,0-4.8-6.9-3.1-13.8C342.7,75.2,355.5,69.1,355.4,72.9z"/>
					<g>
						<g>
							<path class="st15" d="M352.9,87.8c0.4,2.3-1.2,4.5-3.5,4.8c-2.3,0.4-4.5-1.2-4.8-3.5c-0.4-2.3,1.2-4.5,3.5-4.8
								C350.4,83.9,352.6,85.5,352.9,87.8z"/>
						</g>
					</g>
					<path class="st8" d="M344.6,66.6c0,0,13.5-0.6,16.6,6c4.6,9.9-1.3,16.9-7.8,25.7l0.9-16.7L344.6,66.6z"/>
					<path class="st8" d="M344,77.3c0,0-4.3-3.3-8.9-2.4c-4.6,0.9-9.7,1.4-10.2-4c-0.6-6.9,21.1-15.1,34.9-0.1l-11,5.8L344,77.3z"/>
				</g>
				<g>
					<g>
						<g>
							<g>
								<path class="st15" d="M278.8,114.1c5.8,3.2,10.7,2.9,13-1.6c2.2-4.5,0.4-10-4.1-12.2s-8.3-1.3-11.3,2.8
									C274.1,106.4,273.8,111.3,278.8,114.1z"/>
								<path class="st15" d="M279.7,100.4c0,0,0.7-3,5.9-2.3c4.7,0.6,9.6,5.9,6.2,14.4L279.7,100.4z"/>
								<path class="st15" d="M280.3,102.7l-9.1-6.1c-0.8-0.5-1.1-1.5-0.7-2.3l0,0c0.4-0.7,1.2-1,1.9-0.7l10.8,4.8L280.3,102.7z"/>
							</g>
							<g>
								<path class="st15" d="M326,120.8l-36.1-12.4l-4.6,6.5l34,20.2c4.9,2.8,9.9-0.6,11.6-6l0,0C332.2,125,330,122.7,326,120.8z"
									/>
							</g>
						</g>
						<g>
							<g>
								<path class="st15" d="M357.2,113.4l-37.1,8.5c-4.8,2-7.6,2.6-6,7.5l0,0c1.8,5.2,7.4,8,12.6,6.3l36-5.4
									c5-1.7,8.4-5.2,7.8-10.4l0,0C369.7,112.5,364,110.5,357.2,113.4z"/>
							</g>
							<g>
								<polygon class="st21" points="336.5,118.1 343.2,138.2 365.4,134.9 363.8,111.4 								"/>
							</g>
						</g>
					</g>
					<g>
						<path class="st3" d="M347.9,114.7l7,70.4c29.1,5.2,41.5-8.3,41.5-8.3s-8.1-24-14.1-41.1c-6.3-17.9-15.6-24.5-23-28.3
							L347.9,114.7z"/>
						<path class="st15" d="M359.3,107.3c0,0-5.5,11.3-10.8,13.4l-0.7-6.2l7.3-5.2L359.3,107.3z"/>
					</g>
					<g>
						<g>
							<polygon class="st15" points="367.7,156.6 332,170.1 331.9,178.3 373.7,170.5 							"/>
							<path class="st15" d="M318.4,178.2c1.8-5.1,7.5-6.5,7.5-6.5l7.7-2.2l3.5,3.7l-2.6,2.4c0.7,3.4-0.3,9-4.3,11.3
								C325.6,189.4,316.6,183.3,318.4,178.2z"/>
						</g>
						<g>
							<path class="st15" d="M356.5,134l8,31.5c0.9,3.5,5.7,5.7,9.2,5l0,0c3.7-0.7,6.1-4.3,5.4-8l-6-31.8L356.5,134z"/>
							<g>
								<path class="st3" d="M362.4,112c-2.2-0.3-4.3,0.7-5.9,2.2c-2,2.1-4.4,5.8-3.6,11.8c1.4,10,5.1,20.3,5.1,20.3l18.6-3
									C376.8,143.4,374.8,113.5,362.4,112z"/>
								<path class="st22" d="M359.6,146L359.6,146c0,0-3.2-11.6-3.9-18"/>
							</g>
						</g>
					</g>
				</g>
			</g>
		</g>
		<line class="st23" x1="14.6" y1="334.2" x2="481.9" y2="334.2"/>
	</g>
</g>
<path class="st8" d="M457.5,130.4h-23.8c-3.2,0-5.8,2.6-5.8,5.8c0,3.2,2.6,5.8,5.8,5.8h23.8c3.2,0,5.8-2.6,5.8-5.8
	C463.2,133,460.6,130.4,457.5,130.4z M439.2,137.6c-0.8,0-1.5-0.7-1.5-1.5c0-0.8,0.7-1.5,1.5-1.5c0.8,0,1.5,0.7,1.5,1.5
	C440.7,137,440,137.6,439.2,137.6z M445.6,137.6c-0.8,0-1.5-0.7-1.5-1.5c0-0.8,0.7-1.5,1.5-1.5c0.8,0,1.5,0.7,1.5,1.5
	C447,136.9,446.4,137.6,445.6,137.6z M451.9,137.6c-0.8,0-1.5-0.7-1.5-1.5c0-0.8,0.7-1.5,1.5-1.5c0.8,0,1.5,0.7,1.5,1.5
	C453.3,136.9,452.7,137.6,451.9,137.6z"/>
</svg>
