<?xml version="1.0" encoding="utf-8"?>
<!-- Generator: Adobe Illustrator 25.2.0, SVG Export Plug-In . SVG Version: 6.00 Build 0)  -->
<svg version="1.1" id="Layer_1" xmlns="http://www.w3.org/2000/svg" xmlns:xlink="http://www.w3.org/1999/xlink" x="0px" y="0px"
	 viewBox="0 0 1000 208.9" style="enable-background:new 0 0 1000 208.9;" xml:space="preserve">
<style type="text/css">
	.st0{opacity:0.1;fill:#D9CAFC;}
	.st1{fill:#0A0A11;stroke:#111B49;stroke-linecap:round;stroke-linejoin:round;stroke-miterlimit:10;}
	.st2{fill:none;stroke:#111B49;stroke-linecap:round;stroke-linejoin:round;stroke-miterlimit:10;}
	.st3{opacity:0.77;fill:#8221FD;stroke:#111B49;stroke-linecap:round;stroke-linejoin:round;stroke-miterlimit:10;}
	.st4{fill:#8221FD;stroke:#111B49;stroke-linecap:round;stroke-linejoin:round;stroke-miterlimit:10;}
	.st5{fill:#FFFFFF;stroke:#111B49;stroke-linecap:round;stroke-linejoin:round;stroke-miterlimit:10;}
	.st6{fill:#11111C;stroke:#111B49;stroke-linecap:round;stroke-linejoin:round;stroke-miterlimit:10;}
	.st7{clip-path:url(#SVGID_3_);}
	.st8{fill:none;stroke:#111B49;stroke-miterlimit:10;}
	.st9{fill:#33B58D;stroke:#111B49;stroke-linecap:round;stroke-linejoin:round;stroke-miterlimit:10;}
	.st10{fill:#3F3F4F;stroke:#111B49;stroke-linecap:round;stroke-linejoin:round;stroke-miterlimit:10;}
	.st11{fill:#FFFFFF;stroke:#111B49;stroke-miterlimit:10;}
</style>
<path class="st0" d="M141.6,82.8v124.8h43.3V82.8C184.8,82.8,141.6,82.8,141.6,82.8z M180.3,171.8h-34.2v-5.2h34.2V171.8z
	 M180.3,162.9h-34.2v-5.2h34.2V162.9z M180.3,154h-34.2v-5.2h34.2V154z M180.3,145.2h-34.2V140h34.2V145.2z M180.3,136.3h-34.2v-5.2
	h34.2V136.3z M180.3,127.4h-34.2v-5.2h34.2V127.4z M180.3,118.6h-34.2v-5.2h34.2V118.6z M180.3,109.7h-34.2v-5.2h34.2V109.7z
	 M180.3,100.8h-34.2v-5.2h34.2V100.8z M180.3,91.9h-34.2v-5.2h34.2V91.9z"/>
<path class="st0" d="M93.3,49.3H57v159.1h53.2V63.5L93.3,49.3z M71.8,191.7h-8.5v-8.5h8.5V191.7z M71.8,176.9h-8.5v-8.5h8.5V176.9z
	 M71.8,162h-8.5v-8.5h8.5V162z M71.8,147.3h-8.5v-8.5h8.5V147.3z M71.8,132.4h-8.5v-8.5h8.5V132.4z M71.8,117.7h-8.5v-8.5h8.5V117.7
	z M71.8,102.9h-8.5v-8.5h8.5V102.9z M71.8,88h-8.5v-8.5h8.5V88z M71.8,73.3h-8.5v-8.5h8.5V73.3z M85.4,191.7h-8.5v-8.5h8.5V191.7z
	 M85.4,176.9h-8.5v-8.5h8.5V176.9z M85.4,162h-8.5v-8.5h8.5V162z M85.4,147.3h-8.5v-8.5h8.5V147.3z M85.4,132.4h-8.5v-8.5h8.5V132.4
	z M85.4,117.7h-8.5v-8.5h8.5V117.7z M85.4,102.9h-8.5v-8.5h8.5V102.9z M85.4,88h-8.5v-8.5h8.5V88z M85.4,73.3h-8.5v-8.5h8.5V73.3z
	 M98.9,191.7h-8.5v-8.5h8.5V191.7z M98.9,176.9h-8.5v-8.5h8.5V176.9z M98.9,162h-8.5v-8.5h8.5V162z M98.9,147.3h-8.5v-8.5h8.5V147.3
	z M98.9,132.4h-8.5v-8.5h8.5V132.4z M98.9,117.7h-8.5v-8.5h8.5V117.7z M98.9,102.9h-8.5v-8.5h8.5V102.9z M98.9,88h-8.5v-8.5h8.5V88z
	 M98.9,73.3h-8.5v-8.5h8.5V73.3z"/>
<g>
	<rect x="167.4" y="99.1" class="st1" width="49.1" height="109.3"/>
	<rect x="162.7" y="93.8" class="st1" width="58.2" height="5.3"/>
	<line class="st2" x1="191.9" y1="91" x2="191.9" y2="93.8"/>
	<line class="st2" x1="195.4" y1="91" x2="195.4" y2="93.8"/>
	<line class="st2" x1="199" y1="91" x2="199" y2="93.8"/>
	<line class="st2" x1="202.6" y1="91" x2="202.6" y2="93.8"/>
	<line class="st2" x1="206.1" y1="91" x2="206.1" y2="93.8"/>
	<line class="st2" x1="209.7" y1="91" x2="209.7" y2="93.8"/>
	<line class="st2" x1="213.4" y1="91" x2="213.4" y2="93.8"/>
	<rect x="172.2" y="104" class="st3" width="10.6" height="17.2"/>
	<rect x="186.4" y="104" class="st3" width="10.6" height="17.2"/>
	<rect x="200.4" y="104" class="st4" width="10.6" height="17.2"/>
	<rect x="172.2" y="124.8" class="st3" width="10.6" height="17.2"/>
	<rect x="186.4" y="124.8" class="st4" width="10.6" height="17.2"/>
	<rect x="200.4" y="124.8" class="st4" width="10.6" height="17.2"/>
	<rect x="172.2" y="145.5" class="st4" width="10.6" height="17.2"/>
	<rect x="186.4" y="145.5" class="st4" width="10.6" height="17.2"/>
	<rect x="200.4" y="145.5" class="st4" width="10.6" height="17.2"/>
	<rect x="172.2" y="166.3" class="st5" width="10.6" height="17.2"/>
	<rect x="186.4" y="166.3" class="st4" width="10.6" height="17.2"/>
	<rect x="200.4" y="166.3" class="st4" width="10.6" height="17.2"/>
</g>
<path class="st0" d="M812.9,103.8V91.6h-5.3v12.1h-5.2v104h40.8v-104C843.2,103.8,812.9,103.8,812.9,103.8z M838.9,202.6H807v-4
	h31.9V202.6z M838.9,196.1H807v-4h31.9V196.1z M838.9,189.6H807v-4h31.9V189.6z M838.9,183.2H807v-4h31.9V183.2z M838.9,176.7H807
	v-4h31.9V176.7z M838.9,170.3H807v-4h31.9V170.3z M838.9,163.8H807v-4h31.9V163.8z M838.9,157.4H807v-4h31.9V157.4z M838.9,150.8
	H807v-4h31.9V150.8z M838.9,144.3H807v-4h31.9V144.3z M838.9,137.9H807v-4h31.9V137.9z M838.9,131.4H807v-4h31.9V131.4z
	 M838.9,124.9H807v-4h31.9V124.9z M838.9,118.5H807v-4h31.9V118.5z"/>
<path class="st0" d="M932.7,33.2l-47.7,46.9v127.2l49.3,0.1L932.7,33.2z M896.9,192h-6.6V178h6.6V192z M896.9,173h-6.6V159h6.6V173z
	 M896.9,154h-6.6V140h6.6V154z M896.9,135h-6.6v-13.9h6.6V135z M896.9,116h-6.6v-13.9h6.6V116z M896.9,97h-6.6V83.1h6.6V97z
	 M906.1,192h-6.6V178h6.6V192z M906.1,173h-6.6V159h6.6V173z M906.1,154h-6.6V140h6.6V154z M906.1,135h-6.6v-13.9h6.6V135z
	 M906.1,116h-6.6v-13.9h6.6V116z M906.1,97h-6.6V83.1h6.6V97z M915.5,192h-6.6V178h6.6V192z M915.5,173h-6.6V159h6.6V173z
	 M915.5,154h-6.6V140h6.6V154z M915.5,135h-6.6v-13.9h6.6V135z M915.5,116h-6.6v-13.9h6.6V116z M915.5,97h-6.6V83.1h6.6V97z
	 M925.1,192h-6.6V178h6.6V192z M925.1,173h-6.6V159h6.6V173z M925.1,154h-6.6V140h6.6V154z M925.1,135h-6.6v-13.9h6.6V135z
	 M925.1,116h-6.6v-13.9h6.6V116z M925.1,97h-6.6V83.1h6.6V97z"/>
<path class="st2" d="M233.2,38.5h6.5c0,0,0.4-5.3,5.4-4.6c0,0,3.4-7.2,9.4-3.3c0,0,4.3-0.1,5.2,4.3c0,0,3.7,0.2,3.9,3.5h4.1"/>
<path class="st2" d="M328.4,96h-5.1c0,0-0.3-4.1-4.2-3.6c0,0-2.6-5.5-7.2-2.5c0,0-3.3-0.1-4.1,3.3c0,0-2.9,0.2-3,2.7h-3.2"/>
<path class="st2" d="M713.5,90.7h-5.1c0,0-0.3-4.1-4.2-3.6c0,0-2.6-5.5-7.2-2.5c0,0-3.3-0.1-4.1,3.3c0,0-2.9,0.2-3,2.7h-3.2"/>
<path class="st2" d="M492.1,133.4h5.6c0,0,0.4-4.6,4.7-4c0,0,2.9-6.2,8.1-2.8c0,0,3.7-0.1,4.5,3.7c0,0,3.2,0.2,3.4,3.1h3.5"/>
<path class="st2" d="M785.1,43h6.5c0,0,0.4-5.3,5.4-4.6c0,0,3.4-7.2,9.4-3.3c0,0,4.3-0.1,5.2,4.3c0,0,3.7,0.2,3.9,3.5h4.1"/>
<g>
	<rect x="9.3" y="21.2" class="st1" width="59.8" height="187.1"/>
	<rect x="21.1" y="16.2" class="st6" width="19.5" height="5"/>
	<line class="st2" x1="58.5" y1="9.8" x2="58.5" y2="21.2"/>
	<line class="st2" x1="54.8" y1="16.2" x2="54.8" y2="21.2"/>
	<line class="st2" x1="9.3" y1="32" x2="69.1" y2="32"/>
	<rect x="16.5" y="38" class="st5" width="8.9" height="145"/>
	<rect x="28.7" y="38" class="st5" width="8.9" height="145"/>
	<rect x="40.7" y="38.6" class="st5" width="8.7" height="145"/>
	<rect x="53.6" y="38.6" class="st5" width="8.7" height="145"/>
	<rect x="16.5" y="38" class="st3" width="8.9" height="6.2"/>
	<rect x="16.5" y="44.2" class="st1" width="8.9" height="18.7"/>
	<rect x="28.7" y="38" class="st6" width="8.9" height="50.9"/>
	<rect x="40.6" y="38" class="st6" width="8.9" height="22.5"/>
	<rect x="53.5" y="38" class="st1" width="8.9" height="41.7"/>
	<rect x="53.5" y="79.9" class="st3" width="8.9" height="16.5"/>
	<rect x="53.5" y="158.2" class="st4" width="8.9" height="4.6"/>
	<rect x="53.5" y="162.8" class="st1" width="8.9" height="20.8"/>
	<rect x="53.5" y="96.4" class="st6" width="8.9" height="61.9"/>
	<rect x="40.6" y="60.5" class="st3" width="8.9" height="27.1"/>
	<rect x="40.6" y="87.8" class="st6" width="8.9" height="48.7"/>
	<rect x="40.6" y="136.5" class="st3" width="8.9" height="7"/>
	<rect x="40.6" y="143.4" class="st1" width="8.9" height="24"/>
	<rect x="40.6" y="167.2" class="st3" width="8.9" height="16.4"/>
	<rect x="28.7" y="88.9" class="st4" width="8.9" height="9.7"/>
	<rect x="28.7" y="98.6" class="st1" width="8.9" height="27.3"/>
	<rect x="28.7" y="125.9" class="st4" width="8.9" height="24.9"/>
	<rect x="28.7" y="150.9" class="st1" width="8.9" height="12"/>
	<rect x="28.7" y="162.8" class="st3" width="8.9" height="3.6"/>
	<rect x="28.7" y="166.4" class="st1" width="8.9" height="16.7"/>
	<rect x="16.5" y="63" class="st4" width="8.9" height="7.4"/>
	<rect x="16.5" y="70.5" class="st6" width="8.9" height="15.2"/>
	<rect x="16.5" y="85.6" class="st3" width="8.9" height="26.1"/>
	<rect x="16.5" y="111.7" class="st6" width="8.9" height="71.4"/>
	<rect x="9.3" y="190.7" class="st5" width="59.8" height="17.7"/>
	<rect x="9.3" y="190.7" class="st1" width="8" height="2.8"/>
	<rect x="9.3" y="193.5" class="st1" width="8" height="14.9"/>
	<rect x="61.3" y="193.5" class="st1" width="7.7" height="14.9"/>
	<rect x="17.3" y="193.5" class="st6" width="11.4" height="14.9"/>
	<rect x="49.3" y="193.5" class="st1" width="11.9" height="14.9"/>
	<rect x="28.7" y="193.5" class="st1" width="20.8" height="14.9"/>
	<rect x="17.3" y="190.7" class="st1" width="11.4" height="2.8"/>
	<rect x="49.3" y="190.7" class="st1" width="11.9" height="2.8"/>
	<rect x="61.3" y="190.7" class="st1" width="7.5" height="2.8"/>
	<rect x="28.7" y="190.7" class="st1" width="20.8" height="2.8"/>
	<line class="st2" x1="37.6" y1="199.1" x2="37.6" y2="203.5"/>
	<line class="st2" x1="41.1" y1="199.1" x2="41.1" y2="203.5"/>
</g>
<g>
	<rect x="208.6" y="126.8" class="st1" width="43.7" height="81.6"/>
	<rect x="214.7" y="110.8" class="st1" width="31.5" height="11.9"/>
	<rect x="221" y="122.8" class="st1" width="18.5" height="4.1"/>
	<circle class="st6" cx="230.4" cy="116.7" r="3.5"/>
	<rect x="213.8" y="131.4" class="st6" width="33.2" height="10.5"/>
	<rect x="213.8" y="139.3" class="st3" width="33.2" height="2.6"/>
	<rect x="213.8" y="145.5" class="st6" width="33.2" height="10.5"/>
	<rect x="213.8" y="153.4" class="st3" width="33.2" height="2.6"/>
	<rect x="213.8" y="158.4" class="st6" width="33.2" height="10.5"/>
	<rect x="213.8" y="166.3" class="st3" width="33.2" height="2.6"/>
	<rect x="213.8" y="172.6" class="st6" width="33.2" height="10.5"/>
	<rect x="213.8" y="180.5" class="st3" width="33.2" height="2.6"/>
	<rect x="213.8" y="189.4" class="st5" width="33.2" height="19"/>
	<rect x="238.2" y="189.4" class="st1" width="8.9" height="19"/>
	<rect x="213.8" y="189.4" class="st1" width="8.9" height="19"/>
	<rect x="222.7" y="189.4" class="st3" width="15.5" height="19"/>
</g>
<g>
	<path class="st6" d="M820.6,182.9h-62v-9.2c0-5.8,4.8-10.6,10.6-10.6H810c5.8,0,10.6,4.8,10.6,10.6V182.9z"/>
	<rect x="760.8" y="182.9" class="st1" width="56.8" height="25.4"/>
	<rect x="764.4" y="185.6" class="st6" width="34.5" height="22.7"/>
	<rect x="764.4" y="185.6" class="st6" width="34.5" height="6.2"/>
	<rect x="764.4" y="191.8" class="st6" width="34.5" height="6.2"/>
	<rect x="764.4" y="198" class="st6" width="34.5" height="6.2"/>
	<rect x="802.4" y="185.6" class="st5" width="12.7" height="15.5"/>
	<rect x="802.4" y="185.6" class="st4" width="12.7" height="11.4"/>
	<rect x="802.4" y="197" class="st1" width="12.7" height="4.3"/>
	<rect x="802.4" y="203.5" class="st3" width="12.7" height="4.6"/>
	<path class="st2" d="M774.2,163.2c0,0-7.7,1.5-5.7,19.8"/>
	<path class="st2" d="M804.6,163.2c0,0,7.7,1.5,5.7,19.8"/>
	<line class="st2" x1="789.2" y1="163.2" x2="789.2" y2="182.9"/>
	<path class="st2" d="M797.1,163.2c0,0,3.9,2.1,2.5,19.8"/>
	<path class="st2" d="M781.7,163.2c0,0-3.9,2.1-2.5,19.8"/>
	<rect x="778.9" y="159.7" class="st3" width="20.4" height="3.5"/>
	<rect x="773.6" y="148.1" class="st1" width="31.5" height="11.5"/>
	<circle class="st6" cx="789.6" cy="153.7" r="3.4"/>
</g>
<g>
	<rect x="866.5" y="94.5" class="st1" width="54.4" height="114.2"/>
	<rect x="871.5" y="99.6" class="st5" width="44.3" height="83.8"/>
	<rect x="875.6" y="89" class="st6" width="20.7" height="5.6"/>
	<line class="st2" x1="903.9" y1="89" x2="912.2" y2="89"/>
	<line class="st2" x1="908" y1="94.5" x2="908" y2="89"/>
	<rect x="871.5" y="100.3" class="st3" width="14.5" height="20.7"/>
	<rect x="886" y="100.3" class="st3" width="14.5" height="20.7"/>
	<rect x="900.8" y="100.3" class="st3" width="14.5" height="20.7"/>
	<rect x="871.5" y="120.8" class="st3" width="14.5" height="20.7"/>
	<rect x="886" y="120.8" class="st3" width="14.5" height="20.7"/>
	<rect x="900.8" y="120.8" class="st4" width="14.5" height="20.7"/>
	<rect x="871.5" y="141.6" class="st3" width="14.5" height="20.7"/>
	<rect x="886" y="141.6" class="st4" width="14.5" height="20.7"/>
	<rect x="900.8" y="141.6" class="st4" width="14.5" height="20.7"/>
	<rect x="871.5" y="162.4" class="st4" width="14.5" height="20.7"/>
	<rect x="886" y="162.4" class="st4" width="14.5" height="20.7"/>
	<rect x="900.8" y="162.4" class="st4" width="14.5" height="20.7"/>
	<rect x="871" y="190.9" class="st5" width="44.3" height="17.8"/>
	<rect x="871" y="193.7" class="st6" width="15.4" height="14.9"/>
	<rect x="871" y="190.9" class="st1" width="15.4" height="2.7"/>
	<rect x="886.3" y="190.9" class="st1" width="15.4" height="2.7"/>
	<rect x="901.6" y="190.9" class="st1" width="13.7" height="2.7"/>
	<rect x="886.3" y="193.7" class="st6" width="15.4" height="14.9"/>
	<rect x="901.6" y="193.7" class="st6" width="13.7" height="14.9"/>
</g>
<g>
	<polygon class="st1" points="873.2,208.2 833,208.2 833,134.1 853.1,113.4 873.2,134 	"/>
	<circle class="st1" cx="853.5" cy="128.7" r="5.3"/>
	<polygon class="st3" points="829.5,137.3 853.1,113.4 876.5,137.3 879.8,134.1 853.1,108.1 826.4,134.1 	"/>
	<rect x="841.9" y="141.1" class="st5" width="8.3" height="11"/>
	<rect x="841.9" y="141.1" class="st3" width="8.3" height="3.1"/>
	<rect x="841.9" y="144.3" class="st6" width="8.3" height="7.9"/>
	<line class="st2" x1="846" y1="141.1" x2="846" y2="152.1"/>
	<rect x="856.2" y="141.1" class="st5" width="8.3" height="11"/>
	<rect x="856.2" y="141.1" class="st3" width="8.3" height="3.1"/>
	<rect x="856.2" y="144.3" class="st6" width="8.3" height="7.9"/>
	<line class="st2" x1="860.4" y1="141.1" x2="860.4" y2="152.1"/>
	<rect x="841.9" y="156.1" class="st5" width="8.3" height="11"/>
	<rect x="841.9" y="156.1" class="st3" width="8.3" height="3.1"/>
	<rect x="841.9" y="159.2" class="st6" width="8.3" height="7.9"/>
	<line class="st2" x1="846" y1="156.1" x2="846" y2="167"/>
	<rect x="856.2" y="156.1" class="st5" width="8.3" height="11"/>
	<rect x="856.2" y="156.1" class="st3" width="8.3" height="3.1"/>
	<rect x="856.2" y="159.2" class="st6" width="8.3" height="7.9"/>
	<line class="st2" x1="860.4" y1="156.1" x2="860.4" y2="167"/>
	<rect x="841.9" y="171" class="st5" width="8.3" height="11"/>
	<rect x="841.9" y="171" class="st3" width="8.3" height="3.1"/>
	<rect x="841.9" y="174.1" class="st6" width="8.3" height="7.9"/>
	<line class="st2" x1="846" y1="171" x2="846" y2="182"/>
	<rect x="856.2" y="171" class="st5" width="8.3" height="11"/>
	<rect x="856.2" y="171" class="st3" width="8.3" height="3.1"/>
	<rect x="856.2" y="174.1" class="st6" width="8.3" height="7.9"/>
	<line class="st2" x1="860.4" y1="171" x2="860.4" y2="182"/>
	<rect x="848.5" y="189.4" class="st3" width="9" height="18.9"/>
	<rect x="845.8" y="197" class="st6" width="2.7" height="11.4"/>
	<rect x="857.5" y="197" class="st6" width="2.7" height="11.4"/>
</g>
<g>
	<rect x="930.6" y="32.6" class="st1" width="60.3" height="175.9"/>
	<rect x="930.6" y="32.6" class="st4" width="60.3" height="6.6"/>
	<rect x="936.2" y="43.8" class="st5" width="14.5" height="27.1"/>
	<rect x="936.2" y="43.8" class="st6" width="14.5" height="22.1"/>
	<rect x="936.2" y="66.1" class="st1" width="14.5" height="4.9"/>
	<rect x="953.6" y="43.8" class="st5" width="14.5" height="27.1"/>
	<rect x="953.6" y="43.8" class="st6" width="14.5" height="22.1"/>
	<rect x="953.6" y="66.1" class="st1" width="14.5" height="4.9"/>
	<rect x="972" y="43.8" class="st5" width="14.5" height="27.1"/>
	<rect x="972" y="43.8" class="st6" width="14.5" height="22.1"/>
	<rect x="972" y="66.1" class="st1" width="14.5" height="4.9"/>
	<rect x="930.6" y="76" class="st3" width="60.3" height="5.6"/>
	<rect x="958.3" y="16.6" class="st6" width="25.8" height="16"/>
	<rect x="963.2" y="20.7" class="st1" width="8" height="11.9"/>
	<line class="st2" x1="940.5" y1="32.6" x2="940.5" y2="28.7"/>
	<line class="st2" x1="936.5" y1="28.7" x2="944.1" y2="28.7"/>
	<line class="st2" x1="936.5" y1="26.7" x2="936.5" y2="30.4"/>
	<line class="st2" x1="944.1" y1="26.7" x2="944.1" y2="30.4"/>
	<line class="st2" x1="979.7" y1="2.1" x2="979.7" y2="16.6"/>
	<line class="st2" x1="975.2" y1="8.5" x2="975.2" y2="16.6"/>
	<rect x="936.2" y="87.4" class="st5" width="14.5" height="95.7"/>
	<rect x="936.2" y="87.4" class="st6" width="14.5" height="31.6"/>
	<rect x="936.2" y="119" class="st6" width="14.5" height="31.6"/>
	<rect x="936.2" y="150.7" class="st6" width="14.5" height="32.4"/>
	<rect x="953.6" y="87.4" class="st5" width="14.5" height="95.7"/>
	<rect x="953.6" y="87.4" class="st6" width="14.5" height="31.6"/>
	<rect x="953.6" y="119" class="st6" width="14.5" height="31.6"/>
	<rect x="953.6" y="150.7" class="st6" width="14.5" height="32.4"/>
	<rect x="972" y="87.4" class="st5" width="14.5" height="95.7"/>
	<rect x="972" y="87.4" class="st6" width="14.5" height="31.6"/>
	<rect x="972" y="119" class="st6" width="14.5" height="31.6"/>
	<rect x="972" y="150.7" class="st6" width="14.5" height="32.4"/>
	<rect x="936.2" y="189.9" class="st5" width="50.2" height="18.7"/>
	<rect x="936.2" y="189.9" class="st6" width="7" height="18.7"/>
	<rect x="979.7" y="189.9" class="st6" width="7" height="18.7"/>
	<rect x="943.2" y="189.9" class="st1" width="18.3" height="5.3"/>
	<rect x="961.4" y="189.9" class="st1" width="18.3" height="5.3"/>
	<rect x="943.2" y="195.2" class="st3" width="18.2" height="13.7"/>
	<rect x="961.5" y="195.2" class="st3" width="18.2" height="13.7"/>
</g>
<g>
	<polyline class="st1" points="79.2,208.5 79.2,86.3 108.6,86.3 191.7,169.5 191.7,208.5 79.2,208.5 	"/>
	<g>
		<rect x="85.6" y="76.7" class="st3" width="15.5" height="9.7"/>
		<circle class="st6" cx="90.5" cy="81.7" r="2.1"/>
		<rect x="154" y="190.7" class="st5" width="30.9" height="17.7"/>
		<rect x="154" y="190.7" class="st1" width="30.9" height="2.8"/>
		<rect x="154" y="193.5" class="st6" width="8.1" height="14.9"/>
		<rect x="176.7" y="193.5" class="st6" width="8.1" height="14.9"/>
		<rect x="162.1" y="193.5" class="st1" width="14.6" height="14.9"/>
		<rect x="120.4" y="190.7" class="st5" width="30.9" height="17.7"/>
		<rect x="120.4" y="190.7" class="st1" width="30.9" height="2.8"/>
		<rect x="120.4" y="193.5" class="st6" width="8.1" height="14.9"/>
		<rect x="143.1" y="193.5" class="st6" width="8.1" height="14.9"/>
		<rect x="128.5" y="193.5" class="st1" width="14.6" height="14.9"/>
		<rect x="85.6" y="190.7" class="st5" width="30.9" height="17.7"/>
		<rect x="85.6" y="190.7" class="st1" width="30.9" height="2.8"/>
		<rect x="85.6" y="193.5" class="st6" width="8.1" height="14.9"/>
		<rect x="108.4" y="193.5" class="st6" width="8.1" height="14.9"/>
		<rect x="93.6" y="193.5" class="st1" width="14.6" height="14.9"/>
		<g>
			<g>
				<defs>
					<polygon id="SVGID_2_" points="106.4,93.8 85.6,93.8 85.6,183.1 186.1,183.1 186.1,174 					"/>
				</defs>
				<clipPath id="SVGID_3_">
					<use xlink:href="#SVGID_2_"  style="overflow:visible;"/>
				</clipPath>
				<g class="st7">
					<rect x="85.6" y="93.8" class="st5" width="100.5" height="89.2"/>
					<rect x="85.6" y="93.8" class="st6" width="14.3" height="22.3"/>
					<rect x="100" y="93.8" class="st6" width="14.3" height="22.3"/>
					<rect x="114.3" y="93.8" class="st6" width="14.3" height="22.3"/>
					<rect x="128.6" y="93.8" class="st5" width="14.3" height="22.3"/>
					<rect x="143" y="93.8" class="st5" width="14.3" height="22.3"/>
					<rect x="157.3" y="93.8" class="st5" width="14.3" height="22.3"/>
					<rect x="171.8" y="93.8" class="st5" width="14.3" height="22.3"/>
					<rect x="85.6" y="116.2" class="st6" width="14.3" height="22.3"/>
					<rect x="100" y="116.2" class="st6" width="14.3" height="22.3"/>
					<rect x="114.3" y="116.2" class="st6" width="14.3" height="22.3"/>
					<rect x="128.6" y="116.2" class="st6" width="14.3" height="22.3"/>
					<rect x="143" y="116.2" class="st1" width="14.3" height="22.3"/>
					<rect x="157.3" y="116.2" class="st5" width="14.3" height="22.3"/>
					<rect x="171.8" y="116.2" class="st5" width="14.3" height="22.3"/>
					<rect x="85.6" y="138.4" class="st6" width="14.3" height="22.3"/>
					<rect x="100" y="138.4" class="st1" width="14.3" height="22.3"/>
					<rect x="114.3" y="138.4" class="st1" width="14.3" height="22.3"/>
					<rect x="128.6" y="138.4" class="st1" width="14.3" height="22.3"/>
					<rect x="143" y="138.4" class="st1" width="14.3" height="22.3"/>
					<rect x="157.3" y="138.4" class="st1" width="14.3" height="22.3"/>
					<rect x="171.8" y="138.4" class="st5" width="14.3" height="22.3"/>
					<rect x="85.6" y="160.9" class="st1" width="14.3" height="22.3"/>
					<rect x="100" y="160.9" class="st1" width="14.3" height="22.3"/>
					<rect x="114.3" y="160.9" class="st1" width="14.3" height="22.3"/>
					<rect x="128.6" y="160.9" class="st1" width="14.3" height="22.3"/>
					<rect x="143" y="160.9" class="st1" width="14.3" height="22.3"/>
					<rect x="157.3" y="160.9" class="st1" width="14.3" height="22.3"/>
					<rect x="171.8" y="160.9" class="st1" width="14.3" height="22.3"/>
				</g>
			</g>
			<g>
				<polygon id="SVGID_1_" class="st8" points="106.4,93.8 85.6,93.8 85.6,183.1 186.1,183.1 186.1,174 				"/>
			</g>
		</g>
	</g>
</g>
<g>
	<path class="st8" d="M1000,208.4"/>
	<path class="st8" d="M-291.6,208.4"/>
	<g>
		<polygon class="st9" points="115,202.2 127.6,202.2 121.4,179.2 		"/>
		<line class="st2" x1="121.4" y1="193" x2="121.4" y2="208.4"/>
		<line class="st2" x1="121.4" y1="198.4" x2="123.4" y2="196.4"/>
	</g>
	<g>
		<polygon class="st9" points="286.9,202.2 299.5,202.2 293.3,179.2 		"/>
		<line class="st2" x1="293.3" y1="193" x2="293.3" y2="208.4"/>
		<line class="st2" x1="293.3" y1="198.4" x2="295.3" y2="196.4"/>
	</g>
	<g>
		<polygon class="st9" points="414.9,202.2 427.5,202.2 421.1,179.2 		"/>
		<line class="st2" x1="421.1" y1="193" x2="421.1" y2="208.4"/>
		<line class="st2" x1="421.1" y1="198.4" x2="423.2" y2="196.4"/>
	</g>
	<g>
		<polygon class="st9" points="570.9,202.2 583.5,202.2 577.1,179.2 		"/>
		<line class="st2" x1="577.1" y1="193" x2="577.1" y2="208.4"/>
		<line class="st2" x1="577.1" y1="198.4" x2="579.2" y2="196.4"/>
	</g>
	<rect x="91.1" y="203.3" class="st3" width="13.4" height="5"/>
	<rect x="219.8" y="203.3" class="st4" width="13.4" height="5"/>
	<rect x="347.4" y="203.5" class="st4" width="13.4" height="5"/>
	<rect x="599.2" y="203.3" class="st4" width="13.4" height="5"/>
	<g>
		<line class="st2" x1="110.6" y1="208.4" x2="110.6" y2="199.1"/>
		<circle class="st9" cx="110.6" cy="197.5" r="1.7"/>
	</g>
	<g>
		<line class="st2" x1="496.7" y1="208.4" x2="496.7" y2="199.1"/>
		<circle class="st10" cx="496.7" cy="197.5" r="1.7"/>
	</g>
	<g>
		<line class="st8" x1="238.1" y1="208.4" x2="238.1" y2="191.1"/>
		<line class="st8" x1="234.1" y1="191.1" x2="242.9" y2="191.1"/>
		<circle class="st8" cx="243" cy="192.1" r="0.6"/>
		<circle class="st8" cx="233.8" cy="192.1" r="0.6"/>
	</g>
	<g>
		<line class="st8" x1="319.9" y1="208.4" x2="319.9" y2="191.1"/>
		<line class="st8" x1="315.7" y1="191.1" x2="324.6" y2="191.1"/>
		<circle class="st8" cx="324.8" cy="192.1" r="0.6"/>
		<circle class="st8" cx="315.6" cy="192.1" r="0.6"/>
	</g>
	<g>
		<polygon class="st5" points="-221.6,202.2 -209,202.2 -215.2,179.2 		"/>
		<line class="st2" x1="-215.2" y1="193" x2="-215.2" y2="208.4"/>
		<line class="st2" x1="-215.2" y1="198.4" x2="-213.2" y2="196.4"/>
	</g>
	<g>
		<polygon class="st9" points="-49.7,202.2 -37.1,202.2 -43.3,179.2 		"/>
		<line class="st2" x1="-43.3" y1="193" x2="-43.3" y2="208.4"/>
		<line class="st2" x1="-43.3" y1="198.4" x2="-41.3" y2="196.4"/>
	</g>
	<rect x="-245.5" y="203.3" class="st4" width="13.4" height="5"/>
	<rect x="-116.8" y="203.3" class="st4" width="13.4" height="5"/>
	<g>
		<line class="st2" x1="-225.9" y1="208.4" x2="-225.9" y2="199.1"/>
		<circle class="st11" cx="-225.9" cy="197.5" r="1.7"/>
	</g>
	<g>
		<line class="st8" x1="-98.5" y1="208.4" x2="-98.5" y2="191.1"/>
		<line class="st8" x1="-102.6" y1="191.1" x2="-93.7" y2="191.1"/>
		<circle class="st8" cx="-93.6" cy="192.1" r="0.6"/>
		<circle class="st8" cx="-102.7" cy="192.1" r="0.6"/>
	</g>
	<g>
		<line class="st8" x1="-16.8" y1="208.4" x2="-16.8" y2="191.1"/>
		<line class="st8" x1="-20.8" y1="191.1" x2="-11.9" y2="191.1"/>
		<circle class="st8" cx="-11.8" cy="192.1" r="0.6"/>
		<circle class="st8" cx="-21" cy="192.1" r="0.6"/>
	</g>
	<g>
		<polygon class="st9" points="739.4,202.2 751.9,202.2 745.7,179.2 		"/>
		<line class="st2" x1="745.7" y1="193" x2="745.7" y2="208.4"/>
		<line class="st2" x1="745.7" y1="198.4" x2="747.8" y2="196.4"/>
	</g>
	<g>
		<polygon class="st9" points="911.3,202.2 923.8,202.2 917.6,179.2 		"/>
		<line class="st2" x1="917.6" y1="193" x2="917.6" y2="208.4"/>
		<line class="st2" x1="917.6" y1="198.4" x2="919.7" y2="196.4"/>
	</g>
	<rect x="715.5" y="203.3" class="st4" width="13.4" height="5"/>
	<rect x="844.1" y="203.3" class="st4" width="13.4" height="5"/>
	<g>
		<line class="st2" x1="735" y1="208.4" x2="735" y2="199.1"/>
		<circle class="st9" cx="735" cy="197.5" r="1.7"/>
	</g>
	<g>
		<line class="st8" x1="862.4" y1="208.4" x2="862.4" y2="191.1"/>
		<line class="st8" x1="858.3" y1="191.1" x2="867.2" y2="191.1"/>
		<circle class="st8" cx="867.4" cy="192.1" r="0.6"/>
		<circle class="st8" cx="858.2" cy="192.1" r="0.6"/>
	</g>
	<g>
		<line class="st8" x1="944.1" y1="208.4" x2="944.1" y2="191.1"/>
		<line class="st8" x1="940.1" y1="191.1" x2="949" y2="191.1"/>
		<circle class="st8" cx="949.1" cy="192.1" r="0.6"/>
		<circle class="st8" cx="939.9" cy="192.1" r="0.6"/>
	</g>
	<g>
		<line class="st8" x1="388.1" y1="208.4" x2="388.1" y2="191.1"/>
		<line class="st8" x1="384.1" y1="191.1" x2="392.8" y2="191.1"/>
		<circle class="st8" cx="393" cy="192.1" r="0.6"/>
		<circle class="st8" cx="383.9" cy="192.1" r="0.6"/>
	</g>
	<g>
		<line class="st8" x1="503.3" y1="208.4" x2="503.3" y2="191.1"/>
		<line class="st8" x1="499.3" y1="191.1" x2="508" y2="191.1"/>
		<circle class="st8" cx="508.2" cy="192.1" r="0.6"/>
		<circle class="st8" cx="499" cy="192.1" r="0.6"/>
	</g>
</g>
</svg>
