<?xml version="1.0" encoding="utf-8"?>
<!-- Generator: Adobe Illustrator 25.2.0, SVG Export Plug-In . SVG Version: 6.00 Build 0)  -->
<svg version="1.1" id="_1" xmlns="http://www.w3.org/2000/svg" xmlns:xlink="http://www.w3.org/1999/xlink" x="0px" y="0px"
	 viewBox="0 0 3300 2100" style="enable-background:new 0 0 3300 2100;" xml:space="preserve">
<style type="text/css">
	.st0{fill:#3EC68C;}
	.st1{fill:#705640;}
	.st2{fill:#87DDB6;}
	.st3{opacity:0.22;fill:#2E2E47;}
	.st4{fill:#7703FC;}
	.st5{fill:#82664B;}
	.st6{fill:#9751FC;}
	.st7{fill:#EAE6E4;}
	.st8{fill:#5A03D6;}
	.st9{fill:#2E2E47;}
	.st10{fill:#E32B6B;}
	.st11{fill:#FFD3B5;}
	.st12{fill:#FFFFFF;}
	.st13{fill:#84CECA;}
	.st14{fill:#FFA982;}
	.st15{fill:#FFC0DD;}
	.st16{fill:#FFC97D;}
	.st17{fill:#CCC8C6;}
	.st18{fill:#82A7AF;}
</style>
<g>
	<g>
		<g>
			<path class="st0" d="M2655.3,918.2c-0.9,0-1.9-0.2-2.8-0.6c-3.3-1.6-4.8-5.5-3.2-8.8c4.5-9.7,17.4-18,39.3-25.1
				c15.2-5,29-7.5,29.6-7.6c3.6-0.7,7.1,1.7,7.7,5.4c0.7,3.6-1.7,7.1-5.4,7.7c-21.5,3.9-54.1,14.4-59.1,25.3
				C2660.2,916.8,2657.8,918.2,2655.3,918.2z"/>
		</g>
		<g>
			<path class="st0" d="M2656.5,825.9c-0.9,0-1.9-0.2-2.8-0.6c-12-5.6-43.2-4.6-54.2-3.7c-3.6,0.3-6.9-2.4-7.2-6.1
				c-0.3-3.7,2.4-6.9,6.1-7.2c4.4-0.4,43.6-3.2,60.9,4.9c3.3,1.6,4.8,5.5,3.2,8.9C2661.4,824.4,2659,825.9,2656.5,825.9z"/>
		</g>
		<g>
			<path class="st0" d="M2637.7,1133.9c-0.3,0-0.5,0-0.8,0c-3.7-0.4-6.3-3.7-5.8-7.4c0.1-1.1,12.8-107.5,15.9-153.6
				c1.1-16.6,1.7-58.4,2.3-106.8c1.2-91.6,2.5-195.5,8.3-217.6c8.5-32.1,17.2-152.6,17.3-153.9c0.3-3.7,3.5-6.4,7.1-6.2
				c3.7,0.3,6.4,3.4,6.2,7.1c-0.4,5-8.9,123-17.7,156.3c-5.4,20.5-6.8,132.5-7.8,214.3c-0.6,48.6-1.1,90.6-2.3,107.5
				c-3.2,46.5-15.8,153.2-15.9,154.3C2643.9,1131.4,2641,1133.9,2637.7,1133.9z"/>
		</g>
		<polygon class="st1" points="2498.9,1120.2 2538.5,1451.5 2765.5,1451.5 2801.3,1120.2 		"/>
		<g>
			<path class="st0" d="M2676.2,558.5c0,0-40.9-7.6-47.2-66.3c-6.4-58.8,14.3-216.4,82-200.8C2778.6,307,2767.1,560.1,2676.2,558.5z
				"/>
			<path class="st2" d="M2669.7,531.7c0,0-37.6-41.3-35.8-46.3c1.8-5,11.3,3.9,17.9,0c6.6-3.9-5.4-41.3,0-51.9
				c5.4-10.6,15.5,3.3,17.9-5.6c2.4-8.9-17.9-30.1-5.4-60.2c12.5-30.1,40-67.5,42.4-64.1c2.4,3.3-11.9,58,0,59.7
				c11.9,1.7,20.3,7.3,21.5,25.1c1.2,17.8-8.4,40.2-11.3,50.2s1.2,13.4,0,30.7C2715.7,486.6,2706.1,527.3,2669.7,531.7z"/>
		</g>
		<g>
			<path class="st0" d="M2619,682.4c0,0-31.8,25.2-85-6.8c-53.2-31.9-172.4-145.2-117.2-184.9C2472.1,450.9,2677,616.8,2619,682.4z"
				/>
			<path class="st2" d="M2592.6,670.4c0,0-58,1.8-61.1-2.6c-3.1-4.4,10.3-5.8,11.1-13.1c0.8-7.3-37.9-21.7-43.4-32.3
				c-5.5-10.5,12.5-9.3,6.5-16.6c-6-7.3-36.4-5.6-53.8-33.6c-17.4-27.9-31.6-71.3-27.4-70.9c4.3,0.3,41.2,44.8,50,37.1
				c8.8-7.7,18.7-10.3,34.4-0.1c15.7,10.2,28.4,31.1,35,39.5c6.6,8.4,12,7.5,25.7,19.1C2583.4,608.7,2611.6,641,2592.6,670.4z"/>
		</g>
		<g>
			<path class="st0" d="M2622.6,1043.3c0,0-39.9,31.6-106.7-8.5c-66.8-40.1-216.4-182.3-147.1-232.2
				C2438.1,752.7,2695.4,961,2622.6,1043.3z"/>
			<path class="st2" d="M2589.5,1028.3c0,0-72.8,2.3-76.7-3.3c-3.9-5.6,12.9-7.3,14-16.4c1-9.1-47.6-27.3-54.6-40.5
				c-6.9-13.2,15.7-11.7,8.2-20.8c-7.5-9.2-45.7-7.1-67.6-42.1c-21.9-35-39.7-89.5-34.3-89c5.4,0.4,51.7,56.3,62.8,46.6
				c11.1-9.7,23.5-13,43.2-0.1c19.7,12.9,35.7,39.1,43.9,49.6c8.2,10.6,15,9.4,32.3,24C2577.9,950.8,2613.2,991.4,2589.5,1028.3z"/>
		</g>
		<g>
			<path class="st0" d="M2667.4,639.8c-2.3,0-4.5-1.2-5.8-3.3c-1.8-3.2-0.7-7.3,2.4-9.1c2.5-1.5,62.6-35.8,97.7-38.7
				c3.7-0.3,6.9,2.4,7.2,6.1c0.3,3.7-2.4,6.9-6.1,7.2c-32.1,2.6-91.5,36.6-92.1,37C2669.6,639.5,2668.5,639.8,2667.4,639.8z"/>
		</g>
		<g>
			<path class="st0" d="M2728.4,597.1c0,0-3.6-32.6,54.9-51.2c58.6-18.6,226.3-40.1,229.2,14.5
				C3015.4,615.1,2752.2,666,2728.4,597.1z"/>
			<path class="st2" d="M2737.6,597.5c0,0,53.2-50.5,53.2-40.7c0,9.8-11.9,23-3.6,21.1c8.4-1.9,60.9-42.6,60.9-30.9
				s-10.1,15.5,3,11.2c13.1-4.2,62.7-23.4,62.1-20.1c-0.6,3.3-25.1,15.5-3.6,14.1c21.5-1.4,63.9-11.2,65.7-6.6
				c1.8,4.7-18.5,16.8-6,15c12.5-1.9,32.2-4.7,34,0c1.8,4.7-80,11.3-75.8,13.6c4.2,2.3,30.4,7.5,28.7,12.2c-1.8,4.7-82.7-3.7-81-0.5
				c1.6,3.3,21.9,20.5,9.4,21.5c-12.5,1-53.1-9.3-54.9-7.5c-1.8,1.9,7.2,16.9-13.7,18.3C2794.9,619.6,2737.6,597.5,2737.6,597.5z"/>
		</g>
		<g>
			<path class="st0" d="M2695,888.8c0,0-4.9-48.1,74-75.6c78.9-27.5,305.1-59.3,309,21.4C3081.9,915.3,2727.1,990.7,2695,888.8z"/>
			<path class="st2" d="M2707.4,889.4c0,0,71.7-74.6,71.7-60.1c0,14.5,23.2,22.1,34.5,19.4c4.3-1.1,3.3,2.4,48.9-7.1
				c12.4-2.6,50-39.3,62.9-42c20.6-4.2,16.4,25.9,34.8,22.4c37.9-7.1,66.7-11.7,67.5-9.3c2.4,6.9-24.9,24.9-8,22.1
				c16.9-2.7,43.4-7,45.9,0c2.4,7-107.8,16.6-102.2,20.1c5.6,3.5,41,11.1,38.6,18c-2.4,6.9-111.4-5.5-109.2-0.7
				c2.2,4.8,29.6,30.4,12.7,31.8c-16.9,1.4-71.6-13.8-74-11c-2.4,2.8,9.7,24.9-18.5,27C2784.7,922.1,2707.4,889.4,2707.4,889.4z"/>
		</g>
		<g>
			<path class="st0" d="M2627.4,812.7c0,0-13.1-40.6-77-43.2c-64-2.6-231.1,28.4-206.2,95.5C2369.1,932.1,2640.1,904.2,2627.4,812.7
				z"/>
			<path class="st2" d="M2619,816.4c0,0-75.1-43-70.1-31.1c5,11.9,22.7,23.7,14,24.3c-8.7,0.6-78.3-30.8-72.3-16.7
				c5.9,14.2,17.3,15.2,2.9,14.6c-14.4-0.6-70.2-7-68-3.2c2.2,3.8,31.2,10.2,10.4,15.8c-20.7,5.6-65.2,8.1-64.5,14.4
				c0.7,6.3,25.7,14,13.1,16.1c-12.6,2-32.4,5.3-31.7,11.6c0.7,6.3,80.2-13.6,77.5-9.3c-2.7,4.3-24.6,19.4-20.5,24.5
				c4,5.1,75.1-32.6,75.2-28.1c0.1,4.5-10,32.3,2.1,29.2c12.2-3.1,44.8-29.4,47.4-27.7c2.6,1.7,1.9,22.8,22,17.4
				C2576.8,862.6,2619,816.4,2619,816.4z"/>
		</g>
		<g>
			<path class="st0" d="M2735.9,1044.9c-0.4,0-0.8,0-1.1-0.1c-16.4-2.8-63.2-8.7-82.4-1.8c-3.5,1.2-7.3-0.5-8.5-4
				c-1.2-3.5,0.5-7.3,4-8.5c26.4-9.5,86.6,0.8,89.1,1.2c3.6,0.6,6.1,4.1,5.4,7.7C2741.9,1042.7,2739,1044.9,2735.9,1044.9z"/>
		</g>
		<g>
			<path class="st0" d="M2694,1031.2c0,0,24.9-58.3,119.9-53.4c95,4.9,338.2,73.7,292.1,169.6S2662.8,1164.9,2694,1031.2z"/>
			<path class="st2" d="M2705.9,1037.7c0,0,117-53.4,108-36.4c-9,16.9-36.9,32-24,34c12.8,2,120.1-35,109.4-14.8
				s-27.6,20.2-6.3,21.2c21.3,1,104.9-0.8,101.1,4.5c-3.8,5.3-47.5,10.8-17.6,21.9c29.9,11.1,95.4,20.9,93.5,30.1
				c-1.9,9.2-40,17.3-21.6,22c18.4,4.7,47.2,12.2,45.3,21.5c-1.9,9.2-116.8-31.1-113.4-24.4c3.4,6.7,33.7,32.1,27,39
				c-6.7,6.9-106.7-58.6-107.5-51.9c-0.8,6.7,10.4,49.2-7.2,42.9c-17.6-6.2-62.2-49.6-66.3-47.5s-5.9,33.5-35,22.8
				C2762.1,1112,2705.9,1037.7,2705.9,1037.7z"/>
		</g>
		<g>
			<path class="st0" d="M2658.8,722.7c-1.7,0-3.3-0.6-4.6-1.9l-42.6-40.9c-2.6-2.5-2.7-6.8-0.2-9.4c2.5-2.7,6.8-2.7,9.4-0.2
				l42.6,40.9c2.6,2.5,2.7,6.8,0.2,9.4C2662.3,722,2660.5,722.7,2658.8,722.7z"/>
		</g>
		<path class="st0" d="M2681.1,758.3c0,0,28.9-52.2,89.8-58.7c60.9-6.5,160.9-14.2,195.5,7.7
			C3001.1,729.2,2693.1,742.6,2681.1,758.3z"/>
		<g>
			<path class="st0" d="M2657,794.4c-0.7,0-1.5-0.1-2.2-0.4c-3.5-1.2-5.3-5.1-4-8.5c13.8-38.5,77-63.5,79.6-64.6
				c3.4-1.3,7.3,0.4,8.6,3.8c1.3,3.4-0.3,7.3-3.8,8.6c-0.6,0.2-60.2,23.9-72,56.7C2662.3,792.7,2659.7,794.4,2657,794.4z"/>
		</g>
		<g>
			<path class="st0" d="M2643.2,1085.5c-3.4,0-6.3-2.6-6.6-6.1c-0.6-7-13.7-27.2-22.9-39.2c-2.2-2.9-1.6-7.1,1.3-9.3
				c2.9-2.2,7.1-1.6,9.3,1.3c4.1,5.4,24.5,32.9,25.5,46.2c0.3,3.7-2.4,6.9-6.1,7.2C2643.6,1085.5,2643.4,1085.5,2643.2,1085.5z"/>
		</g>
	</g>
	<g>
		<path class="st3" d="M583.1,1451.9c0,0-130.1,3.7-95.3,20.8c34.8,17.1,145.4,5.3,233.3,13.1c87.8,7.8,734-3.5,799.7-3.6
			c65.8-0.2,956.1,3.6,1010,3.6c53.9,0.1,106.2-3.1,102.3-18.9c-3.9-15.8-436.2-18-541.2-15c-105,3-789.8,0.9-874.9-3.8
			C1132,1443.3,583.1,1451.9,583.1,1451.9z"/>
		<path class="st4" d="M2345.5,837.3c0,0,227.6-9.8,236.3-2.7c8.7,7.1,10.6,63.7,0,68.9c-10.6,5.2-248.6,19-255.3,4.4
			C2319.7,893.3,2345.5,837.3,2345.5,837.3z"/>
		<g>
			<polygon class="st5" points="2479.9,1283.9 2499.3,1472.5 2558.6,1472.5 2581.8,1283.9 			"/>
			<polygon class="st5" points="1986.6,1283.9 2006,1472.5 2065.3,1472.5 2088.6,1283.9 			"/>
			<polygon class="st5" points="1251.8,1283.9 1271.2,1472.5 1330.5,1472.5 1353.7,1283.9 			"/>
			<path class="st4" d="M2528.8,1064.4c-71.9-57.7-312.8-5.1-312.8-5.1s-33.2-450.7-127.2-522.6c-94-71.9-240.6-66.4-240.6-66.4
				H396.6l304,675l344.3,159.7l1545.3-19.8C2590.2,1285.4,2600.6,1122.1,2528.8,1064.4z"/>
			<path class="st6" d="M396.6,470.3l135.5,813.6l512.8,21.2c0,0,22.1-163.1-49.7-220.8c-71.9-57.7-297.5-25.1-297.5-25.1
				s-33.2-450.7-127.2-522.6C476.4,464.8,396.6,470.3,396.6,470.3z"/>
			<polygon class="st5" points="532.1,1283.9 551.5,1472.5 610.8,1472.5 634,1283.9 			"/>
		</g>
		<path class="st7" d="M2092.7,729.9c0,0,54.8-65,61.3-82.5c6.4-17.5,134.7,13.5,185.3,26.4c50.7,12.9,118.4,48.4,126.1,48.4
			c7.7,0,29.7-11.6,43.2-2.6s-52.2,134.1-61.9,150.3c-9.7,16.1-49.7,146.4-133.5,181.2c-83.8,34.8-137.4,5.2-167.7-12.3
			C2115.3,1021.4,2030.2,805.3,2092.7,729.9z"/>
		<path class="st8" d="M2240.2,1057.9c0,0,12,40.6-2.4,62.1c-14.4,21.5-57.5,29.1-100.2,27.4c-42.7-1.7-96-44.5-96-44.5
			s-101,25.6-147.6,31.6c-46.7,6-92.9-5.2-92.9-5.2s-105.8,22.4-188.8,15.5c-83-6.9-136.4-22.9-156.1-19.2
			c-19.8,3.7-343.1,8-362,8.8c-18.9,0.9-87.7-1.7-110.9,0c-23.2,1.7-92,19.6-117.8,13.2c-25.8-6.4,120.4-60.5,202.9-57.1
			c82.5,3.4,1060.4-48.4,1069.3-45.7C2146.5,1047.6,2240.2,1057.9,2240.2,1057.9z"/>
		<path class="st9" d="M1628.4,946.6l-19.8-3.9c0,0-18.3,0-23.1,17.7c-4.8,17.7,9.9,172.3,69.1,174
			C1713.9,1136.2,1673.9,956.6,1628.4,946.6z"/>
		<path class="st10" d="M2241.7,567.1L2222,589c0,0-27.7,76.5-44.1,108c-16.5,31.6-66.5,134.3-22.9,200.3
			c43.5,66,152.7,59.3,171.1,48c18.5-11.3,46.2-94.9,39.7-162.3c-6.4-67.4-30-196.4-48-209.6
			C2299.7,560.3,2263.6,546.4,2241.7,567.1z"/>
		<path class="st11" d="M1891.6,913.7c-20.3-102-50.5-137.8-50.5-137.8l-247.7-125.8c-38.5-19.4-66.3-32.4-89.7-31
			c-50.5,3-98.6,43-163.1,137.6c-73.7,108.1-134.7,218.7-116.4,233.6c9.3,7.6,21.3,37.5,55.4,15.7
			c95.3-60.9,220.5-241.8,230.7-236.4c26.2,29.7,187,207.9,267.7,212.9C1927.9,991.9,1911.9,1015.7,1891.6,913.7z"/>
		<path class="st9" d="M1908.9,1114.6l-15.5,8.6c0,0-28.1,16.1-43.4-36.1c-15.3-52.2-23.7-270.5,39.5-213.9
			C1952.8,929.8,1934.1,1103.7,1908.9,1114.6z"/>
		<g>
			<path class="st12" d="M1891.6,913.7c-20.3-102-50.5-137.8-50.5-137.8l-126-85.3c-15.6,8.2-43.5,30.3-66.2,73.1
				c-24.3,46-40.8,97.5-40.2,119.2c54.2,60.4,128.2,97.1,169.2,99.6C1927.9,991.9,1911.9,1015.7,1891.6,913.7z"/>
		</g>
		<g>
			<path class="st13" d="M1690.6,708.4c15,8.8,40.4,23.9,48.6,30.9c10.6,9.1,32.7,27.9,49.1,35.4c6.9,3.1,11.7,2.5,15.6,2
				c5.5-0.7,9.5-1.2,19.4,9.9c10.5,11.8,23.8,17.6,36.7,22.9c-1.4-3.2-2.8-6.1-4.1-8.7c-10.1-4.4-19.9-9.6-27.8-18.4
				c-11.3-12.7-17.5-12.9-25.1-12c-3.6,0.5-6.9,0.9-12.1-1.5c-15.6-7.1-37.2-25.6-47.6-34.5c-8.3-7.1-32.3-21.5-47.7-30.5
				C1694,705.3,1692.3,706.8,1690.6,708.4z"/>
			<path class="st13" d="M1693.8,770.7c13.5,8.6,21.1,16.2,28.4,23.6c7.9,7.9,15.4,15.5,29.1,23c14.9,8.2,27.2,12.4,39.1,16.4
				c9,3.1,17.5,6,26.8,10.5c5.8,2.8,10.7,4.9,15,6.8c12.4,5.4,21.4,9.3,39.2,23.4c4.3,3.4,8.8,6.4,13.3,9c-0.8-3.1-1.5-6.1-2.3-9
				c-2.4-1.6-4.7-3.2-7-5c-18.5-14.6-28.3-18.9-40.7-24.2c-4.3-1.9-9.1-4-14.7-6.7c-9.7-4.7-18.3-7.6-27.6-10.8
				c-11.6-4-23.7-8.1-38.1-16c-12.9-7.1-20.1-14.3-27.7-21.9c-7.6-7.6-15.5-15.5-29.5-24.4c-14.1-9-27.7-15.1-38.1-19.1
				c-1.2,1.8-2.3,3.7-3.5,5.6C1665.9,755.6,1679.7,761.7,1693.8,770.7z"/>
			<path class="st13" d="M1682.8,850.1c11.9,6.8,18.7,12.7,24.8,17.9c9.9,8.5,17.7,15.3,40.8,19.8c15.1,3,28,3.5,39.3,4
				c16.1,0.7,30,1.3,45,8.4c10.9,5.1,23.3,9.9,35.3,14.5c9.2,3.5,18.2,6.9,25.8,10.3c-0.5-2.5-1.1-5.1-1.6-7.7
				c-6.8-2.8-14.3-5.7-21.9-8.6c-11.9-4.5-24.2-9.2-34.9-14.3c-16.2-7.6-30.7-8.3-47.5-9c-11.1-0.5-23.8-1-38.4-3.9
				c-21.4-4.2-28.3-10.2-37.8-18.4c-6.3-5.4-13.4-11.5-25.8-18.6c-22.8-12.9-47.9-24.4-60.3-29.8c-0.8,2-1.5,4-2.3,6
				C1635.8,826.2,1660.5,837.4,1682.8,850.1z"/>
			<path class="st13" d="M1893.8,991.2c-2.4-1.1-4.8-2.1-7.4-3.3c-10.5-4.6-22.5-9.8-38.5-18.4c-24.2-13-48-22.7-71.1-32.1
				c-10.4-4.2-21.1-8.6-31.7-13.2c-33.3-14.4-48.9-24.3-71.7-39.2c-14-9.1-41.2-24.1-59.6-33.9c-0.6,2.2-1.1,4.4-1.6,6.5
				c18.3,9.8,44.5,24.2,57.7,32.9c23.1,15.1,38.9,25.1,72.7,39.8c10.7,4.6,21.4,9,31.8,13.2c22.9,9.3,46.6,19,70.5,31.8
				c13.5,7.2,24.5,12.3,33.6,16.3C1884.9,991.9,1890,991.9,1893.8,991.2z"/>
		</g>
		<g>
			<path class="st12" d="M1182.1,996.5c0,0-79.6,13.5-96.1,11.6c-16.6-1.9-41.1-16.3-58.4-6c-17.3,10.3,10.5,55.9,53.9,65.1
				c43.4,9.2,48.8-7,75.3,8.8c26.5,15.9,49.7,15,68.6,8.2c18.9-6.8,38.3-50.7,57.8-72.1c24.7-27,57-50.6,35.6-52.4
				c-33.6-2.8-72-75.1-87.1-45.6C1216.3,944.2,1182.1,996.5,1182.1,996.5z"/>
		</g>
		<path class="st11" d="M1992.7,1031.6c-5.3-27.7-76.7-137.2-76.7-137.2s-900.2,157.8-935.4,162.2c-28.6,3.6-60.2,52.7,1.5,62.3
			c37.4,5.8,872.7-14.3,894.6-15.7C1968.7,1097.5,1998.1,1059.3,1992.7,1031.6z"/>
		<g>
			<path class="st12" d="M1992.7,1031.6c-5.3-27.7-81.4-162-81.4-162s-63.2,28.8-161.6,46c-39.8,7-93.4,18.8-141,27.1
				c14.2,18.9,24.5,30.1,27.1,64.5c3.1,41.1,4.3,103.9,18.9,127.2c122.3-2.8,215-30.7,222-31.2
				C1968.7,1097.5,1998.1,1059.3,1992.7,1031.6z"/>
		</g>
		<g>
			<path class="st13" d="M1866.9,934.1c21.7-3.8,49.1-14.9,67.6-22.6c-1.1-1.9-2.1-3.8-3.1-5.7c-18.2,7.6-44.8,18.3-65.6,22
				c-26.3,4.6-104.8,15.6-167.3,18.4c-44.8,2-69.4,7.2-79.9,10c1.3,1.9,2.6,3.8,3.8,5.7c11.1-2.8,35.1-7.4,76.4-9.3
				C1761.6,949.8,1840.5,938.7,1866.9,934.1z"/>
			<path class="st13" d="M1698.5,1010.4c40.7,3.4,64.9,2.3,90.9-0.4c12.5-1.3,27.6-5.9,42.1-10.4c18.1-5.5,36.8-11.3,50.2-10.6
				c17,0.9,49.9-10.8,71.6-18.4c3.7-1.3,7.4-2.6,10.7-3.7c-1-1.9-2-3.9-3-5.8c-2.7,0.9-5.9,2.1-9.8,3.4
				c-21.3,7.5-53.4,18.9-69.1,18.1c-14.6-0.8-33.9,5.1-52.5,10.8c-14.2,4.4-29,8.9-40.9,10.1c-25.6,2.7-49.5,3.7-89.7,0.4
				c-23.6-1.9-47.3,4.1-62.8,9.4c0.1,2.2,0.3,4.4,0.4,6.7C1651.5,1014.9,1675.4,1008.5,1698.5,1010.4z"/>
			<path class="st13" d="M1934.8,1028.9c-17.4,0.8-51.8,5.7-88.1,10.9c-45.9,6.6-98,14.1-125.3,14.4c-31.2,0.4-62.6,8.4-81.5,14.2
				c0.2,2.2,0.4,4.4,0.6,6.5c18.3-5.7,49.7-13.9,80.9-14.3c27.7-0.4,80-7.9,126.1-14.5c36.2-5.2,70.3-10.1,87.5-10.9
				c21.6-0.9,40.9-8.1,54.2-14.6c-0.7-1.9-1.5-3.9-2.4-6.1C1974,1021,1955.3,1028,1934.8,1028.9z"/>
			<path class="st13" d="M1982.7,1064.8c2.9-3.5,5.2-7.1,6.9-10.7c-12.6,6.8-34.1,16.3-58.2,17.3c-31.8,1.4-46.8,5.8-65.7,11.3
				c-4.9,1.4-9.9,2.9-15.6,4.4c-27.1,7.3-79.5,9-132,9.7c-26.7,0.4-53.5,6.2-72.5,11.6c0.5,2.2,0.9,4.3,1.5,6.3
				c18.6-5.2,45-11.1,71.2-11.4c53-0.7,105.8-2.4,133.6-9.9c5.8-1.6,10.8-3,15.7-4.4c19.3-5.6,33.2-9.7,64.2-11
				C1951.6,1077,1969.6,1070.8,1982.7,1064.8z"/>
		</g>
		<path class="st9" d="M2123.3,713.1c45.2-11.4,87.3-11.8,114.5,0.6c60.5,27.7,67.1,109.1,12.8,204.4
			c-93.9,165.2-357.1,205.1-357.1,205.1s3.9-105.1-7.1-182.5c-15.6-110.3-45.3-164.9-45.3-164.9s76,27.5,170.1,3.2
			C2046.9,769.9,2087.7,722.1,2123.3,713.1z"/>
		<path class="st11" d="M2287.2,679.9c0,0-9.1,21.4-16.7,40.6c-4.9,12.3-6.9,24.7-12.8,27.1c-37.2,15.1-69.9,2.4-72-13.9
			c-2.6-20.5,31.2-21.1,31.2-21.1s22.6-22.1,37.1-41.2C2265.2,656.9,2287.2,679.9,2287.2,679.9z"/>
		<path class="st9" d="M2223.8,705.7c8.2,2.6,29.9,7.4,49.4-5.9l-38.6-5.5C2230.6,698.7,2226.9,702.6,2223.8,705.7z"/>
		<path class="st11" d="M2336.2,642.1c-4-3.3-7.4-4.7-8.9-6.9c-0.5-0.8-0.7-1.6-0.7-2.7c0-1.3,0.5-3,1.4-5.1c0,0,14.1-23.2,3-44.5
			c-11.1-21.3-58.1-36.2-77.5-22.8c-19.4,13.4-24,36.4-30.8,47.5c-3.1,5.1-21,21.7-25.1,31c-7.5,17.2-6.1,48,29.6,60.9
			c53.6,19.3,88.3-32.8,88.3-32.8s9.5,4.8,15.6-1.3C2337.2,659.2,2343.2,647.9,2336.2,642.1z"/>
		<g>
			<path class="st9" d="M2250.6,670.1L2250.6,670.1c-0.6,0-13.7-0.3-26.6-11.1c-0.6-0.5-0.7-1.5-0.2-2.1c0.5-0.6,1.5-0.7,2.1-0.2
				c12.1,10.1,24.6,10.4,24.8,10.4c0.8,0,1.5,0.7,1.5,1.5C2252.1,669.4,2251.4,670.1,2250.6,670.1z"/>
		</g>
		<path class="st11" d="M1990.8,709.8c0,0,37.4-11.3,49-3c11.6,8.2,0.6,19.5,3.9,27.4c3.2,7.9,9.8-32.5,19.5-24.7
			c9.7,7.8-2.1,40.4-15.6,48.7c-13.5,8.4-38,29.2-56.7,23.6S1966.1,715.1,1990.8,709.8z"/>
		<g>
			<path class="st9" d="M2245.3,648.9c-0.1,0-0.2,0-0.3,0c-8.7-2-11.3-5.7-12-8.3c-0.6-2.6,0.4-5.3,2.8-7.3c1.1-1,2.4-1.8,3.7-2.7
				c3.5-2.4,7.4-5,11.5-11.3c3.2-5,4.5-8.7,3.8-11.1c-0.6-2-2.4-3.2-5.3-4.5c-5.3-2.4-16.5-5.6-16.6-5.6c-0.8-0.2-1.2-1-1-1.8
				c0.2-0.8,1-1.2,1.8-1c0.5,0.1,11.5,3.2,17,5.8c2.8,1.3,5.9,2.9,6.9,6.3c1,3.4-0.3,7.7-4.2,13.6c-4.4,6.8-8.8,9.8-12.3,12.2
				c-1.2,0.8-2.4,1.6-3.4,2.5c-1.5,1.3-2.2,2.9-1.8,4.4c0.6,2.6,4.2,4.8,9.8,6.1c0.8,0.2,1.3,1,1.1,1.8
				C2246.6,648.4,2246,648.9,2245.3,648.9z"/>
		</g>
		<g>
			<path class="st9" d="M2294.6,624.4c-0.3,0-0.7-0.1-0.9-0.3c-0.1-0.1-8-6.5-14.1-7.6c-0.8-0.1-1.3-0.9-1.2-1.7
				c0.1-0.8,0.9-1.3,1.7-1.2c6.8,1.2,15.1,7.9,15.4,8.2c0.6,0.5,0.7,1.4,0.2,2.1C2295.4,624.3,2295,624.4,2294.6,624.4z"/>
		</g>
		<g>
			<path class="st9" d="M2289.5,639.3c-0.2,0-0.5-0.1-0.7-0.2c-9.5-5-18.8-9.3-18.9-9.3c-0.7-0.3-1.1-1.2-0.7-2
				c0.3-0.7,1.2-1.1,2-0.7c0.1,0,9.5,4.4,19.1,9.4c0.7,0.4,1,1.3,0.6,2C2290.5,639,2290,639.3,2289.5,639.3z"/>
		</g>
		<g>
			<path class="st9" d="M2244.2,620.6c-0.3,0-0.5-0.1-0.7-0.2c-6.4-3.7-14.4-7.4-14.5-7.5c-0.7-0.3-1.1-1.2-0.7-2
				c0.3-0.7,1.2-1.1,2-0.7c0.1,0,8.3,3.9,14.7,7.6c0.7,0.4,0.9,1.3,0.5,2C2245.3,620.3,2244.8,620.6,2244.2,620.6z"/>
		</g>
		<path class="st14" d="M2269.2,642.7c0,0,13.9,7.8,11.4,15.5s-18-1.1-22-8.5C2254.5,642.2,2265.9,640.5,2269.2,642.7z"/>
		<path class="st14" d="M2219.3,618c0,0,13,2.5,11.7,10.1c-1.3,7.6-15.7,4.8-20-0.6C2206.6,622.3,2216.2,617.2,2219.3,618z"/>
		<g>
			<path class="st12" d="M1993.5,684.6l-47.9-8.2c-6.9-1.2-12.1,3.7-11.7,11l6.7,117.1c0.4,7.2,6.3,14.1,13.2,15.2l47.9,8.2
				c6.9,1.2,12.1-3.7,11.7-11l-6.7-117.1C2006.2,692.6,2000.4,685.8,1993.5,684.6z"/>
			<path class="st9" d="M1965.1,688.3l-16.4-3.2c-1.9-0.4-3.5,1-3.4,3c0.1,2,1.7,4,3.6,4.4l16.4,3.2c1.9,0.4,3.5-1,3.4-3
				C1968.6,690.7,1967,688.7,1965.1,688.3z"/>
		</g>
		<path class="st11" d="M2017.4,785c-4.7-25.3,2.3-45.6-6.3-40.4c-8.1,4.9-6.2,27.6-11.1,30.5c-4.9,2.9-49.5-45.3-54.4-37.3
			c-4,6.7,20.8,25.9,17,28c-3.8,2.1-21.8-28.8-26.8-26.1c-5,2.7,14,33.7,12.9,34.5c-1.1,0.8-10.7-15.5-13.9-8.2
			c-3.8,8.7,8.3,15.3,6.6,17.5c-1.7,2.2-5.4-3.9-8.4,0.9c-3,4.8,17.5,23.4,21.3,28.9c7.4,10.7,31.7,36.3,47.8,33.8
			C2030.8,842.7,2018.5,791.1,2017.4,785z"/>
		<path class="st12" d="M1058.4,1126.2c0,0-73.7-3.5-82.2-1.9c-8.5,1.5-107.1,33.6-119.8,30.8c-29.4-6.5-45.6-26.7-49.6-39.3
			c-9.3-29.9,4.5-40,29.5-48.2c25-8.2,118.1-37.9,143.1-34.4c25.1,3.5,43,15.2,74.1,6.3C1084.7,1030.6,1102.7,1119,1058.4,1126.2z"
			/>
		<path class="st9" d="M2273,629.6c0,0-3.3,7.3,2.6,9.1c5.9,1.8,6.1-4.9,6.1-4.9L2273,629.6z"/>
		<path class="st9" d="M2231.5,612.6c0,0-3.3,7.3,2.6,9.1c5.9,1.8,6.1-4.9,6.1-4.9L2231.5,612.6z"/>
		<path class="st10" d="M2276.8,571.3c0,0,17.1,26.8,27.1,58.4c10,31.6-1,109.3,11.3,142.2c12.3,32.9,23.9,81.9,21.3,111.9
			c-2.6,30-19.7,59.3-17.7,62.2c1.9,2.9,37.3-17.8,52.3-62.6c17.9-53.3,21.3-112.4,14.1-146.3c-11.1-52.2-10.6-65.8-14.2-118
			c-1.7-24.3-17.4-70.7-35.1-74.5C2318.1,540.6,2278.8,567.4,2276.8,571.3z"/>
		<path class="st10" d="M2276.8,571.3c0,0-31.9-0.3-54.8,17.7c0,0,11.3-31.7,37.4-44.9c26.1-13.2,68.7-20.6,68,3
			C2326.8,570.6,2276.8,571.3,2276.8,571.3z"/>
		<g>
			<path class="st10" d="M2326.5,547.8c-1.5,0-2.9-0.9-3.5-2.4c-1.1-2.9-7.7-17.6-32.3-24.8c-2-0.6-3.1-2.6-2.5-4.6
				c0.6-2,2.6-3.1,4.6-2.5c4.9,1.4,29.8,9.6,37.1,29.3c0.7,1.9-0.3,4-2.2,4.8C2327.4,547.7,2326.9,547.8,2326.5,547.8z"/>
		</g>
		<g>
			<path class="st10" d="M2374.3,560.2c-1.6,0-3.1-1.1-3.6-2.7c-1.4-4.8-6.6-17.2-14.3-17.6c-10.6-0.6-25.1,9.3-25.2,9.4
				c-1.7,1.2-4,0.7-5.1-0.9c-1.2-1.7-0.7-4,0.9-5.1c0.7-0.5,16.7-11.5,29.8-10.8c14.5,0.8,20.7,22.1,21,23c0.6,2-0.6,4-2.5,4.6
				C2375,560.2,2374.7,560.2,2374.3,560.2z"/>
		</g>
		<g>
			<path class="st10" d="M2237.8,590.6c-1.3,0-2.6-0.7-3.2-1.9c-1-1.8-0.3-4,1.4-5c13.6-7.5,53.2-18.2,54.9-18.6
				c2-0.5,4,0.6,4.5,2.6c0.5,2-0.6,4-2.6,4.5c-0.4,0.1-40.4,10.8-53.2,17.9C2239,590.5,2238.4,590.6,2237.8,590.6z"/>
		</g>
		<path class="st9" d="M2238.5,1089.7l-3.1,18.1c0,0-27.4,26.2-64.4-5.6c-37-31.8-55.9-123.8-4.7-110.5
			C2217.4,1005,2237.2,1069.1,2238.5,1089.7z"/>
		<g>
			<path class="st11" d="M2143,988.9c0,0-113.7-195.8-149.9-169.3c-26.3,19.2,52.7,318.4,141.8,318.3c40.7,0,72.5-32.7,95.6-60.2
				c9.6-116.6-13.8-143.4-73.8-106.6C2155.6,974.7,2143,988.9,2143,988.9z"/>
			<path class="st9" d="M2287.2,792.1c-95.5,60.6-136.6,174.3-144.2,196.8c10.2,28.8,62.8,54.4,92.3,118.9
				C2311.1,1017.4,2287.2,792.1,2287.2,792.1z"/>
		</g>
		<g>
			<path class="st10" d="M2394.6,734.8c-1.9,0-3.5-1.5-3.7-3.4c-0.1-1.1-0.2-2.3-0.2-3.7c-0.9-12.9-2.3-34.4-7.6-50.3
				c-4.1-12.4-4.6-28.8-5.1-46.1c-0.3-8.7-0.5-17.7-1.3-26.2c-2.5-27.8-22.7-40.3-30.4-45c-2.9-1.8-4.5-2.8-4.5-5.1
				c0-2,1.7-3.7,3.7-3.7c1.2,0,2.2,0.6,2.9,1.4c0.4,0.3,1.1,0.7,1.8,1.1c7.7,4.7,31,19.2,33.8,50.6c0.8,8.7,1,17.8,1.3,26.6
				c0.5,16.8,1,32.7,4.8,44c5.6,16.8,7.1,38.9,8,52.2c0.1,1.3,0.2,2.5,0.2,3.6c0.1,2-1.4,3.8-3.4,4
				C2394.8,734.8,2394.7,734.8,2394.6,734.8z M2349.2,555L2349.2,555L2349.2,555z M2349.2,555L2349.2,555L2349.2,555z"/>
		</g>
		<path class="st6" d="M440.3,882.8c-1.2-22.7,13.9-42,33.1-42.4c121.3-2.8,528.2-11.8,544.5-5.8c19.2,7.1,23.3,63.7,0,68.9
			c-23.3,5.2-550.4,53.8-565.3,39.2C444.8,935,441.6,907.3,440.3,882.8z"/>
		<g>
			<path class="st9" d="M1663.7,933.8c-0.7,0-1.3-0.5-1.5-1.2c-0.1-0.8,0.4-1.6,1.2-1.7c1-0.2,96.5-15.2,133.8-26.5
				c37.4-11.2,68.1-22.4,68.4-22.5c0.8-0.3,1.6,0.1,1.9,0.9c0.3,0.8-0.1,1.6-0.9,1.9c-0.3,0.1-31.1,11.3-68.6,22.5
				c-37.5,11.3-133.2,26.4-134.2,26.6C1663.8,933.8,1663.8,933.8,1663.7,933.8z"/>
		</g>
		<g>
			<path class="st9" d="M1510.2,771.1c-0.6,0-1.2-0.4-1.4-1l-16.5-48.4c-0.3-0.8,0.1-1.6,0.9-1.9c0.8-0.3,1.6,0.1,1.9,0.9l16.5,48.4
				c0.3,0.8-0.1,1.6-0.9,1.9C1510.5,771,1510.3,771.1,1510.2,771.1z"/>
		</g>
		<g>
			<path class="st12" d="M2143,990.3c-0.2,0-0.4,0-0.6-0.1c-0.7-0.3-1.1-1.2-0.7-2c0.5-1.1,52.7-114.6,70.5-147.8
				c18.2-33.7,49.6-49.9,54.4-49.9c0,0,0.1,0,0.1,0c0.8,0,1.4,0.7,1.4,1.5c0,0.8-0.7,1.5-1.5,1.4c-3.1,0-33.8,15-51.8,48.3
				c-17.8,33-69.9,146.5-70.5,147.6C2144.1,990,2143.6,990.3,2143,990.3z"/>
		</g>
		<g>
			<polygon class="st7" points="2605.3,1588.5 2605.3,1605.8 2425.4,1688.7 2085.7,1542.1 2085.7,1520.7 			"/>
			<polygon class="st10" points="2085.7,1520.7 2318.9,1475.5 2605.3,1588.5 2424.9,1669 			"/>
			<polygon class="st15" points="2426.9,1653.1 2572.9,1588.3 2561.7,1583.9 2414.9,1647.8 			"/>
			<polygon class="st15" points="2418.3,1632.1 2535.4,1580.2 2520.1,1574.3 2402.3,1625.6 			"/>
			<g>
				<path class="st9" d="M2424.5,1690.4l-339.4-144.7c-0.8-0.3-1.1-1.2-0.8-1.9c0.3-0.8,1.2-1.1,1.9-0.8l338.2,144.2l180.2-78.8
					c0.7-0.3,1.6,0,1.9,0.8c0.3,0.7,0,1.6-0.8,1.9L2424.5,1690.4z"/>
			</g>
			<path class="st13" d="M2295.2,1503.4c0,0-72.7,12.1-86.9,27c-14.2,14.8,67.7,23.2,92.9,41.9c25.1,18.7,23.9,19.6,58,17.2
				c34.2-2.4,49-19.8,47.1-33.4C2404.3,1542.6,2334.4,1500.9,2295.2,1503.4z"/>
			<path class="st16" d="M2434.2,1586.6c16.8-7.8,17.9-31.3,1.8-40.5c-12.1-6.9-28.3-14.4-49.1-20.9c-55.5-17.4-52.9-30.3-82.5-23.9
				c-29.7,6.4-51.6,12.9-36.1,25.8c15.5,12.9,62.9-9,95.8,6.4c32.9,15.5,44.8,63.8,66.1,54.8
				C2431.5,1587.8,2432.8,1587.2,2434.2,1586.6z"/>
			<path class="st12" d="M2404,1552.6c0,0-10.6,18.2-40.6,21.7c-30,3.5-44.6,1.6-38.1,14c6.5,12.4,66.8,20.8,92.6,7.5
				c25.8-13.2,28.4-18.1,25.8-29.7C2441.1,1554.5,2407.3,1548.4,2404,1552.6z"/>
		</g>
		<g>
			<path class="st3" d="M1854.2,1551.7c0,7.2-39.4,13-88.1,13c-48.7,0-88.1-5.8-88.1-13c0-7.2,39.4-13,88.1-13
				C1814.7,1538.7,1854.2,1544.5,1854.2,1551.7z"/>
			<g>
				<path class="st7" d="M1665.6,1352.1c0,0-4.3,143.4,49.5,184.8v9l16.9,2.6c20,3,40.4,3.1,60.5,0.2l18.7-2.7v-9
					c0,0,27.9-19.6,37.3-82.9c9.4-63.3,4.1-101.9,4.1-101.9H1665.6z"/>
				<ellipse class="st17" cx="1759.2" cy="1352.1" rx="93.5" ry="13"/>
				<path class="st5" d="M1675.5,1357.9c15.3,4.3,47.1,7.2,83.7,7.2c36.7,0,68.4-2.9,83.7-7.2c-15.3-4.3-47.1-7.2-83.7-7.2
					C1722.5,1350.7,1690.8,1353.7,1675.5,1357.9z"/>
				<g>
					<path class="st7" d="M1854.1,1501.6c-1.8,0-3.5-0.2-5.2-0.6c-12.7-2.9-18.7-15.5-19.3-16.9c-1.4-3.2,0.2-6.9,3.7-8.2
						c3.5-1.3,7.4,0.2,8.9,3.4c1,2.2,4.9,8.4,10.1,9.6c3.3,0.7,7.2-0.6,11.7-4c7.4-5.6,17.9-22.2,25.5-40.5
						c8.7-20.7,12.4-39.9,9.8-51.3c-1.8-8.2-6.1-10.2-9.2-11c-8.4-2.3-15.3-1.8-21,1.4c-10.9,6.2-14.1,20.7-14.2,20.8
						c-0.7,3.4-4.2,5.6-7.9,5c-3.7-0.6-6.1-3.9-5.4-7.3c0.2-0.8,4.3-20,20.4-29.2c9-5.1,19.8-6.1,31.9-2.8
						c6.8,1.8,15.6,6.9,18.7,20.5c6.8,30.6-21.1,89.6-40,104C1866.3,1499.3,1860.1,1501.6,1854.1,1501.6z"/>
				</g>
			</g>
			<path class="st10" d="M1818.4,1408.7l-33.7,2.7c-3.3,0.3-6,3.2-6,6.6v43.2c0,3.4,2.7,5.9,6,5.6l33.7-2.7c3.3-0.3,6-3.2,6-6.6
				v-43.2C1824.4,1410.9,1821.7,1408.4,1818.4,1408.7z"/>
			<g>
				<path class="st12" d="M1801.5,1415.9c-1.2,0-2.2-1-2.2-2.2v-50c0-1.2,1-2.2,2.2-2.2c1.2,0,2.2,1,2.2,2.2v50
					C1803.8,1414.9,1802.8,1415.9,1801.5,1415.9z"/>
			</g>
		</g>
		<g>
			<path class="st18" d="M1154.1,1692c25.6-15,89.6-117.7,75.7-122.8c-13.9-5.1-58.3-0.6-79-3.7c-145.9-21.7-233.4-61-233.4-61
				s-29.6,8.2-30.1,11.4c-0.5,3.2-136.1,84.3-167.6,93.6s-301,222.2-301,222.2l94.8,33.5c0,0,258.6-149.7,281.4-162.9
				c22.8-13.2,177.2-75.7,177.2-75.7s-18.7,42.7-30.6,56.4c-11.9,13.7-49.1,47.5-72.8,67.3s-308.7,170.2-308.7,170.2
				c16.3,43,78,75,78,75s224.9-95.7,278.1-114.6c53.3-18.9,81.4-28,111.2-39.9C1057,1829,1128.5,1707,1154.1,1692z"/>
			<g>
				<path class="st9" d="M1225.2,1595c0,0-0.1,0-0.1,0c-0.7-0.1-68.6-6.3-85.9-7.5c-32.4-2.3-75.1-5.9-94.4-10.3
					c-7.5-1.7-14.6-3.2-21.4-4.6c-13.6-2.8-26.5-5.5-40.4-9.7c-20.7-6.2-94.7-43.1-97.8-44.7c-0.7-0.4-1-1.3-0.7-2
					c0.4-0.7,1.3-1,2-0.7c0.8,0.4,76.8,38.4,97.3,44.5c13.8,4.1,26.6,6.8,40.1,9.6c6.9,1.4,14,2.9,21.5,4.6
					c15.1,3.5,47.6,7,93.9,10.2c17.3,1.2,85.2,7.4,85.9,7.5c0.8,0.1,1.4,0.8,1.3,1.6C1226.6,1594.4,1225.9,1595,1225.2,1595z"/>
			</g>
			<g>
				<path class="st9" d="M972,1628.1c-0.2,0-0.5-0.1-0.7-0.2c-0.7-0.4-1-1.3-0.7-2l30.4-60.1c0.4-0.7,1.3-1,2-0.7
					c0.7,0.4,1,1.3,0.7,2l-30.4,60.1C973.1,1627.8,972.6,1628.1,972,1628.1z"/>
			</g>
			<g>
				<path class="st9" d="M985.7,1600.9c-0.3,0-0.5-0.1-0.8-0.2c-0.5-0.3-11.7-7.3-14.1-13.2c-2.4-5.9,7-23.9,8.9-27.4
					c0.4-0.7,1.3-1,2-0.6c0.7,0.4,1,1.3,0.6,2c-4.2,7.7-10.2,21.3-8.8,24.9c1.7,4.2,9.9,10,12.9,11.8c0.7,0.4,0.9,1.3,0.5,2
					C986.7,1600.7,986.2,1600.9,985.7,1600.9z"/>
			</g>
			<g>
				<path class="st9" d="M559.9,1920.5c16.3,43,78,75,78,75s-15.4-20.5-28.1-33.9C597,1948.1,559.9,1920.5,559.9,1920.5z"/>
			</g>
			<g>
				<path class="st9" d="M645.6,1993.4c-0.5,0-0.9-0.2-1.2-0.6c-0.2-0.3-19.9-28-37-44.9c-17-16.9-40.4-31.3-40.6-31.4
					c-0.7-0.4-0.9-1.3-0.5-2c0.4-0.7,1.3-0.9,2-0.5c0.2,0.1,23.9,14.7,41.2,31.8c17.2,17.1,37.1,45,37.3,45.3
					c0.5,0.7,0.3,1.6-0.3,2.1C646.2,1993.4,645.9,1993.4,645.6,1993.4z"/>
			</g>
			<path class="st9" d="M418.6,1831.7c0,0,20.3-4.6,49.1,8.4c28.8,13,45.7,25.1,45.7,25.1S459.2,1852.7,418.6,1831.7z"/>
			<g>
				<path class="st9" d="M521,1857.6c-0.3,0-0.6-0.1-0.8-0.3c-0.3-0.2-34.5-23.5-57.3-32.6c-22.2-8.9-35.8-2.3-35.9-2.2
					c-0.7,0.4-1.6,0.1-2-0.6c-0.4-0.7-0.1-1.6,0.6-2c0.6-0.3,14.8-7.4,38.4,2.1c23.1,9.3,57.5,32.7,57.8,32.9
					c0.7,0.5,0.8,1.4,0.4,2.1C521.9,1857.4,521.5,1857.6,521,1857.6z"/>
			</g>
			<g>
				<g>
					<path class="st9" d="M634.2,1976.4c-0.6,0-1.1-0.3-1.4-0.9c-0.3-0.8,0-1.6,0.8-1.9l8.2-3.4c0.8-0.3,1.6,0,1.9,0.8
						c0.3,0.8,0,1.6-0.8,1.9l-8.2,3.4C634.6,1976.3,634.4,1976.4,634.2,1976.4z"/>
				</g>
				<g>
					<path class="st9" d="M659,1966.1c-0.6,0-1.1-0.3-1.4-0.9c-0.3-0.8,0-1.6,0.8-1.9l16.7-6.9c0.8-0.3,1.6,0.1,1.9,0.8
						c0.3,0.8-0.1,1.6-0.8,1.9l-16.7,6.9C659.4,1966.1,659.2,1966.1,659,1966.1z M692.4,1952.4c-0.6,0-1.1-0.3-1.4-0.9
						c-0.3-0.8,0.1-1.6,0.8-1.9c5.3-2.2,10.9-4.5,16.7-6.8c0.8-0.3,1.6,0.1,1.9,0.8c0.3,0.8-0.1,1.6-0.8,1.9
						c-5.8,2.4-11.4,4.6-16.7,6.8C692.8,1952.4,692.6,1952.4,692.4,1952.4z M725.8,1938.8c-0.6,0-1.1-0.3-1.4-0.9
						c-0.3-0.8,0.1-1.6,0.8-1.9c5.5-2.2,11-4.5,16.7-6.8c0.8-0.3,1.6,0.1,1.9,0.8c0.3,0.8-0.1,1.6-0.8,1.9
						c-5.7,2.3-11.2,4.6-16.7,6.8C726.2,1938.7,726,1938.8,725.8,1938.8z M759.2,1925.2c-0.6,0-1.1-0.3-1.4-0.9
						c-0.3-0.8,0.1-1.6,0.8-1.9c5.5-2.2,11.1-4.5,16.7-6.8c0.8-0.3,1.6,0.1,1.9,0.8c0.3,0.8-0.1,1.6-0.8,1.9
						c-5.6,2.3-11.2,4.5-16.7,6.8C759.6,1925.1,759.4,1925.2,759.2,1925.2z M792.6,1911.7c-0.6,0-1.1-0.4-1.4-0.9
						c-0.3-0.8,0.1-1.6,0.8-1.9c5.6-2.3,11.2-4.5,16.7-6.7c0.8-0.3,1.6,0.1,1.9,0.8c0.3,0.8-0.1,1.6-0.8,1.9
						c-5.5,2.2-11.1,4.5-16.7,6.7C793,1911.6,792.8,1911.7,792.6,1911.7z M826.1,1898.3c-0.6,0-1.1-0.4-1.4-0.9
						c-0.3-0.8,0.1-1.6,0.8-1.9c5.7-2.3,11.3-4.5,16.8-6.6c0.8-0.3,1.6,0.1,1.9,0.8c0.3,0.8-0.1,1.6-0.8,1.9
						c-5.5,2.2-11.1,4.4-16.8,6.6C826.5,1898.2,826.3,1898.3,826.1,1898.3z M859.6,1885c-0.6,0-1.2-0.4-1.4-0.9
						c-0.3-0.8,0.1-1.6,0.8-1.9c5.9-2.3,11.5-4.5,16.8-6.5c0.8-0.3,1.6,0.1,1.9,0.8c0.3,0.8-0.1,1.6-0.8,1.9
						c-5.3,2-10.9,4.2-16.8,6.5C860,1885,859.8,1885,859.6,1885z M893.3,1872.1c-0.6,0-1.2-0.4-1.4-1c-0.3-0.8,0.1-1.6,0.9-1.9
						c6.6-2.5,12.3-4.6,17-6.2c0.8-0.3,1.6,0.1,1.9,0.9s-0.1,1.6-0.9,1.9c-4.6,1.6-10.3,3.7-16.9,6.2
						C893.7,1872.1,893.5,1872.1,893.3,1872.1z M927.5,1860.5c-0.6,0-1.2-0.4-1.4-1.1c-0.2-0.8,0.2-1.6,1-1.8
						c5.5-1.5,11.3-3.2,17.3-4.9c0.8-0.2,1.6,0.2,1.8,1c0.2,0.8-0.2,1.6-1,1.8c-6,1.8-11.8,3.4-17.3,5
						C927.7,1860.5,927.6,1860.5,927.5,1860.5z M962.1,1850.4c-0.6,0-1.2-0.4-1.4-1c-0.2-0.8,0.2-1.6,1-1.8
						c5.9-1.8,11.7-3.6,17.2-5.4c0.8-0.3,1.6,0.2,1.9,1c0.3,0.8-0.2,1.6-1,1.9c-5.5,1.8-11.3,3.6-17.2,5.4
						C962.4,1850.4,962.2,1850.4,962.1,1850.4z M996.4,1839.4c-0.6,0-1.2-0.4-1.4-1c-0.3-0.8,0.1-1.6,0.9-1.9
						c6.4-2.2,12.1-4.2,16.9-6.1c0.8-0.3,1.6,0.1,1.9,0.8c0.3,0.8-0.1,1.6-0.8,1.9c-4.9,1.9-10.6,3.9-17,6.1
						C996.7,1839.3,996.5,1839.4,996.4,1839.4z M1029.8,1826c-0.5,0-1-0.3-1.3-0.8c-0.4-0.7-0.1-1.6,0.6-2c1.4-0.7,2.5-1.4,3.2-2
						c1.7-1.3,4.6-4.8,8.6-10.5c0.5-0.7,1.4-0.8,2.1-0.3c0.7,0.5,0.8,1.4,0.3,2.1c-4.3,6-7.3,9.6-9.2,11.1c-0.9,0.7-2.1,1.5-3.6,2.3
						C1030.3,1825.9,1030.1,1826,1029.8,1826z M1052.3,1798.1c-0.3,0-0.6-0.1-0.8-0.2c-0.7-0.4-0.9-1.4-0.4-2
						c2.9-4.4,6.1-9.4,9.7-15.2c0.4-0.7,1.4-0.9,2-0.5c0.7,0.4,0.9,1.4,0.5,2c-3.7,5.8-6.9,10.8-9.8,15.2
						C1053.2,1797.9,1052.8,1798.1,1052.3,1798.1z M1071.6,1767.7c-0.3,0-0.5-0.1-0.8-0.2c-0.7-0.4-0.9-1.3-0.5-2
						c3.2-5.1,6.4-10.3,9.5-15.3c0.4-0.7,1.3-0.9,2-0.5c0.7,0.4,0.9,1.3,0.5,2c-3.1,5.1-6.3,10.2-9.5,15.3
						C1072.6,1767.4,1072.1,1767.7,1071.6,1767.7z M1090.6,1737c-0.3,0-0.5-0.1-0.8-0.2c-0.7-0.4-0.9-1.3-0.5-2
						c3.4-5.5,6.7-10.7,9.6-15.3c0.4-0.7,1.4-0.9,2-0.5c0.7,0.4,0.9,1.4,0.5,2c-2.9,4.6-6.2,9.8-9.6,15.3
						C1091.6,1736.8,1091.1,1737,1090.6,1737z M1110.1,1706.6c-0.3,0-0.6-0.1-0.8-0.3c-0.7-0.5-0.8-1.4-0.4-2.1
						c1.3-1.9,2.4-3.3,3.2-4.4c1.9-2.3,4.8-5.5,8.6-9.5c0.6-0.6,1.5-0.6,2.1-0.1c0.6,0.6,0.6,1.5,0.1,2.1c-3.8,4-6.6,7.1-8.4,9.4
						c-0.8,1-1.8,2.4-3.1,4.2C1111.1,1706.4,1110.6,1706.6,1110.1,1706.6z M1134.4,1680c-0.4,0-0.8-0.1-1.1-0.4
						c-0.6-0.6-0.6-1.5,0-2.1c4-3.9,8.3-8.2,12.9-12.6c0.6-0.6,1.5-0.5,2.1,0c0.6,0.6,0.5,1.5,0,2.1c-4.6,4.4-8.9,8.7-12.9,12.6
						C1135.2,1679.9,1134.8,1680,1134.4,1680z M1160.4,1655c-0.4,0-0.8-0.2-1.1-0.5c-0.6-0.6-0.5-1.5,0.1-2.1
						c4.6-4.4,9.2-8.6,13.2-12.3c0.6-0.6,1.5-0.5,2.1,0.1c0.6,0.6,0.5,1.5-0.1,2.1c-4,3.7-8.6,7.9-13.2,12.2
						C1161.1,1654.9,1160.8,1655,1160.4,1655z M1187.2,1630.8c-0.4,0-0.9-0.2-1.2-0.6c-0.5-0.6-0.4-1.6,0.2-2.1l0.4-0.3
						c3-2.3,6.4-6.8,10.2-13.4c0.4-0.7,1.3-1,2-0.5c0.7,0.4,1,1.3,0.5,2c-4,6.9-7.7,11.7-10.9,14.3l-0.4,0.3
						C1187.8,1630.7,1187.5,1630.8,1187.2,1630.8z"/>
				</g>
				<g>
					<path class="st9" d="M1205.7,1601.7c-0.2,0-0.4,0-0.6-0.1c-0.7-0.3-1.1-1.2-0.7-2c2.1-4.7,3.5-8.1,3.5-8.1
						c0.3-0.8,1.2-1.1,1.9-0.8c0.8,0.3,1.1,1.2,0.8,1.9c0,0-1.4,3.5-3.5,8.2C1206.8,1601.4,1206.3,1601.7,1205.7,1601.7z"/>
				</g>
			</g>
			<g>
				<path class="st9" d="M499.3,1843.7c-0.5,0-1.1-0.3-1.3-0.8c-0.4-0.7-0.1-1.6,0.7-2l16.1-7.9c0.7-0.4,1.6-0.1,2,0.7
					c0.4,0.7,0.1,1.6-0.7,2l-16.1,7.9C499.7,1843.7,499.5,1843.7,499.3,1843.7z M531.3,1827.9c-0.5,0-1.1-0.3-1.3-0.8
					c-0.4-0.7-0.1-1.6,0.7-2l16-7.9c0.7-0.4,1.6-0.1,2,0.7c0.4,0.7,0.1,1.6-0.7,2l-16,7.9C531.7,1827.8,531.5,1827.9,531.3,1827.9z
					 M563.2,1812.1c-0.5,0-1.1-0.3-1.3-0.8c-0.4-0.7-0.1-1.6,0.7-2l15.9-7.9c0.7-0.4,1.6-0.1,2,0.7c0.4,0.7,0.1,1.6-0.7,2l-15.9,7.9
					C563.7,1812,563.4,1812.1,563.2,1812.1z M595.1,1796.2c-0.5,0-1.1-0.3-1.3-0.8c-0.4-0.7-0.1-1.6,0.7-2l15.9-7.9
					c0.7-0.4,1.6-0.1,2,0.7c0.4,0.7,0.1,1.6-0.7,2l-15.9,7.9C595.5,1796.2,595.3,1796.2,595.1,1796.2z M627,1780.3
					c-0.5,0-1.1-0.3-1.3-0.8c-0.4-0.7-0.1-1.6,0.7-2c5.4-2.7,10.7-5.3,15.9-8c0.7-0.4,1.6-0.1,2,0.7c0.4,0.7,0.1,1.6-0.7,2
					c-5.2,2.6-10.6,5.3-15.9,8C627.4,1780.3,627.2,1780.3,627,1780.3z M658.8,1764.4c-0.5,0-1.1-0.3-1.3-0.8c-0.4-0.7-0.1-1.6,0.7-2
					c5.5-2.8,10.8-5.4,15.9-8c0.7-0.4,1.6-0.1,2,0.7c0.4,0.7,0.1,1.6-0.7,2c-5.1,2.6-10.4,5.3-15.9,8
					C659.3,1764.3,659,1764.4,658.8,1764.4z M690.6,1748.3c-0.5,0-1.1-0.3-1.3-0.8c-0.4-0.7-0.1-1.6,0.6-2
					c5.8-2.9,11.1-5.7,15.8-8.1c0.7-0.4,1.6-0.1,2,0.6c0.4,0.7,0.1,1.6-0.6,2c-4.7,2.4-10.1,5.2-15.9,8.1
					C691,1748.3,690.8,1748.3,690.6,1748.3z M722.2,1731.9c-0.5,0-1-0.3-1.3-0.8c-0.4-0.7-0.1-1.6,0.6-2c2.8-1.5,4.9-2.7,6.1-3.4
					c2.6-1.6,5.8-3.5,9.2-5.5c0.7-0.4,1.6-0.2,2,0.5c0.4,0.7,0.2,1.6-0.5,2c-3.5,2-6.6,3.9-9.2,5.5c-1.3,0.8-3.4,1.9-6.3,3.5
					C722.7,1731.9,722.5,1731.9,722.2,1731.9z M753.1,1714.2c-0.5,0-1-0.3-1.3-0.8c-0.4-0.7-0.1-1.6,0.6-2
					c5.1-2.8,10.3-5.7,15.6-8.6c0.7-0.4,1.6-0.1,2,0.6c0.4,0.7,0.1,1.6-0.6,2c-5.2,2.9-10.5,5.8-15.5,8.6
					C753.6,1714.1,753.3,1714.2,753.1,1714.2z M784.2,1697.1c-0.5,0-1-0.3-1.3-0.8c-0.4-0.7-0.1-1.6,0.6-2
					c5.6-3.1,10.9-5.9,15.5-8.4c0.7-0.4,1.7-0.2,2.1,0.6c0.4,0.7,0.2,1.6-0.5,2c-4.7,2.5-10,5.4-15.6,8.4
					C784.7,1697.1,784.5,1697.1,784.2,1697.1z M815.6,1680.3c-0.5,0-1-0.3-1.3-0.8c-0.4-0.7-0.1-1.6,0.6-2
					c5.3-2.8,10.6-5.5,15.8-8.2c0.7-0.4,1.6-0.1,2,0.6c0.4,0.7,0.1,1.6-0.6,2c-5.2,2.6-10.5,5.4-15.8,8.2
					C816.1,1680.3,815.8,1680.3,815.6,1680.3z M847.3,1664.2c-0.5,0-1.1-0.3-1.3-0.8c-0.4-0.7-0.1-1.6,0.7-2
					c5.7-2.8,11.1-5.4,16-7.7c0.7-0.3,1.6,0,2,0.7c0.3,0.7,0,1.6-0.7,2c-5,2.3-10.3,4.9-16,7.7
					C847.7,1664.1,847.5,1664.2,847.3,1664.2z M879.5,1649.2c-0.6,0-1.1-0.3-1.4-0.9c-0.3-0.8,0-1.6,0.8-1.9
					c6.6-2.8,12.2-5,16.7-6.5c0.8-0.3,1.6,0.2,1.9,0.9c0.3,0.8-0.2,1.6-0.9,1.9c-4.4,1.4-9.9,3.6-16.5,6.4
					C879.9,1649.1,879.7,1649.2,879.5,1649.2z M913.4,1638.9c-0.7,0-1.3-0.4-1.4-1.1c-0.2-0.8,0.3-1.6,1-1.8
					c4.5-1.2,10.1-3.1,16.7-5.7c0.8-0.3,1.6,0.1,1.9,0.8c0.3,0.8-0.1,1.6-0.8,1.9c-6.6,2.6-12.3,4.6-17,5.8
					C913.7,1638.9,913.6,1638.9,913.4,1638.9z M946.6,1626.2c-0.6,0-1.1-0.3-1.3-0.9c-0.3-0.7,0-1.6,0.7-2c7.1-3.2,13.1-6.1,16-7.6
					c0.7-0.4,1.6-0.1,2,0.7c0.4,0.7,0.1,1.6-0.7,2c-3,1.5-9,4.4-16.1,7.6C947,1626.2,946.8,1626.2,946.6,1626.2z"/>
			</g>
		</g>
	</g>
</g>
</svg>
