<?xml version="1.0" encoding="utf-8"?>
<!-- Generator: Adobe Illustrator 25.2.0, SVG Export Plug-In . SVG Version: 6.00 Build 0)  -->
<svg version="1.1" id="Layer_1" xmlns="http://www.w3.org/2000/svg" xmlns:xlink="http://www.w3.org/1999/xlink" x="0px" y="0px"
	 viewBox="0 0 800 905" style="enable-background:new 0 0 800 905;" xml:space="preserve">
<style type="text/css">
	.st0{fill:#A6ADFF;}
	.st1{opacity:0.63;fill-rule:evenodd;clip-rule:evenodd;fill:#6E269E;enable-background:new    ;}
	.st2{fill-rule:evenodd;clip-rule:evenodd;fill:#FFFFFF;}
	.st3{opacity:0.69;fill-rule:evenodd;clip-rule:evenodd;fill:#C92C88;enable-background:new    ;}
	.st4{fill-rule:evenodd;clip-rule:evenodd;fill:#8C0E57;}
	.st5{fill-rule:evenodd;clip-rule:evenodd;fill:#7703FC;}
	.st6{fill-rule:evenodd;clip-rule:evenodd;fill:#3F0069;}
	.st7{fill-rule:evenodd;clip-rule:evenodd;fill:#591607;}
	.st8{fill-rule:evenodd;clip-rule:evenodd;fill:#FFAA69;}
	.st9{fill:#FA480D;}
	.st10{fill-rule:evenodd;clip-rule:evenodd;fill:#FA480D;}
	.st11{fill-rule:evenodd;clip-rule:evenodd;fill:#5F07DD;}
	.st12{fill-rule:evenodd;clip-rule:evenodd;fill:#8C4BEA;}
	.st13{fill:#4A06CC;}
	.st14{fill-rule:evenodd;clip-rule:evenodd;fill:#FF571F;}
	.st15{fill-rule:evenodd;clip-rule:evenodd;fill:#D41200;}
	.st16{fill-rule:evenodd;clip-rule:evenodd;fill:#FFB57D;}
	.st17{fill-rule:evenodd;clip-rule:evenodd;fill:#FFECD1;}
	.st18{fill:#591607;}
	.st19{fill-rule:evenodd;clip-rule:evenodd;}
	.st20{fill-rule:evenodd;clip-rule:evenodd;fill:#300200;}
	.st21{fill:#FFFFFF;}
	.st22{fill-rule:evenodd;clip-rule:evenodd;fill:#AB410C;}
</style>
<rect class="st0" width="800" height="905"/>
<g>
	<ellipse class="st1" cx="621.5" cy="68.5" rx="35.5" ry="35.5"/>
	<path class="st2" d="M624.7,79.5c3.2,0,5.9-2.7,5.9-5.9v-8.3c0-3.2-2.7-5.9-5.9-5.9h-17.1c-3.2,0-5.9,2.7-5.9,5.9v8.3
		c0,3.2,2.7,5.9,5.9,5.9H624.7z"/>
	<path class="st2" d="M636.6,77.2c0.7,0.4,1.4,0.7,2.1,1.1c1.1,0.5,2-0.6,2-2.5c0-2,0-3.9,0-5.9s0-3.9,0-5.9c0-1.9-0.9-3-2-2.5
		c-0.7,0.3-1.4,0.7-2.1,1.1c-0.7,0.4-1.4,0.7-2.1,1.1c-1.1,0.5-2,1.9-2,3s0,2.2,0,3.3c0,1.1,0,2.2,0,3.3c0,1.1,0.9,2.4,2,2.9
		C635.2,76.5,635.9,76.8,636.6,77.2z"/>
</g>
<g>
	<circle class="st3" cx="721.5" cy="68.5" r="35.5"/>
	<path class="st2" d="M710.3,64.3c-1-0.2-1.9,0.4-2.1,1.4c-0.5,2.8-0.2,5.6,0.8,8.1s2.8,4.7,5.2,6.3c1.8,1.2,3.8,2,5.9,2.2v4.4h-4.4
		c-0.9,0-1.7,0.8-1.7,1.7l0,0c0,0.9,0.8,1.7,1.7,1.7h12.4c0.9,0,1.7-0.8,1.7-1.7l0,0c0-0.9-0.8-1.7-1.7-1.7h-4.4v-4.4
		c2.1-0.3,4.2-1,6.1-2.3c2.4-1.6,4.1-3.8,5.2-6.3c1-2.5,1.4-5.3,0.8-8.1c-0.2-1-1.1-1.6-2.1-1.4s-1.6,1.1-1.4,2.1
		c0.4,2.1,0.2,4.2-0.6,6.1s-2.1,3.5-3.9,4.7c-1.8,1.2-3.8,1.8-5.9,1.8c-2,0-4.1-0.6-5.9-1.8c-1.8-1.2-3.1-2.8-3.9-4.7
		c-0.8-1.9-1-4-0.6-6.1C711.9,65.4,711.2,64.5,710.3,64.3z"/>
	<path class="st2" d="M721.8,75.6L721.8,75.6c3.7,0,6.7-3,6.7-6.7V54.3c0-3.7-3-6.7-6.7-6.7l0,0c-3.7,0-6.7,3-6.7,6.7v14.6
		C715.2,72.6,718.2,75.6,721.8,75.6z"/>
</g>
<path class="st4" d="M224.8,273.1L224.8,273.1C224.8,273.2,224.9,273.1,224.8,273.1z"/>
<path class="st5" d="M438.1,972.6c6.4,1.2,12.8,2.3,19.2,3.2c110.2,15.9,222.5-11.7,312.9-77.3c0,0,2-49.4,6-148.2
	c0,0,8.7,40.8,26.2,122.3c31.9-28.2,59.5-61,81.9-97.2c-6.9-32.7-29.4-139.4-48.3-198.8c-6.6-20.8-11.8-33.3-20.4-42.8
	c-22-24.2-90.6-43.3-122.5-54.9c-56.8,11.6-109.8,11.1-158.9-1.5c-28.9,2.5-65.4,3.2-93.1,8.5c-17,3.3-32.5,10-48.9,26.3
	c0,0-43.3,32-129.8,96c0,0-23.9-28-71.7-84c-59.7,46.1-89.5,69.2-89.5,69.2c17.5,23.2,82.1,124.6,114.3,131.1
	c27,5.5,165.3-50.3,204.9-63.9l8.5,122c-0.8,0.4-1.7,0.8-2.6,1.2C434.2,909.7,438.1,972.6,438.1,972.6z"/>
<path class="st6" d="M184.8,524.6c-18.1,8.3-17,10.7,3.4,7C192.5,522.7,191.3,520.4,184.8,524.6z"/>
<path class="st6" d="M123.7,591.4c14.4-14.4,11-26.1-10.3-34.9C90.5,589.9,93.9,601.5,123.7,591.4z"/>
<path class="st2" d="M213.1,437.8c7,0,13.7-5.7,15-12.7l29.1-157.7c1.3-7-3.4-12.7-10.4-12.7h-67.1c-7,0-13.7,5.7-15,12.7
	l-29.1,157.7c-1.3,7,3.4,12.7,10.4,12.7H213.1z"/>
<path class="st7" d="M213.8,430.8c4.2,0,8.2-3.4,9-7.6l29.5-162.1c0.8-4.2-2-7.6-6.2-7.6h-72.9c-4.2,0-8.2,3.4-9,7.6l-29.5,162.1
	c-0.8,4.2,2,7.6,6.2,7.6H213.8z"/>
<path class="st8" d="M97.8,503.4c0,0,8.6,29.3,25.9,88c29.1-9.7,52.6-31.5,64.5-59.8c-16.1-33.4-24.2-50-24.2-50
	c7.5-7.8,14.8-15.9,21.7-24.2c0,0,7.2,0.5,21.5,1.5c0,0,7.2,0,21.6-0.1c3.8-1.1,6.3-4.6,6.2-8.5s-2.9-7.3-6.7-8.1
	c0,0-5.8-0.7-17.3-2.1c0,0-9.7-3-29.1-9.1c0,0-5.3-1-15.8-2.9c0,0-6.1-5.8-18.3-17.5c0,0,6-2,18-6c0,0,14.4,2,43.3,5.9
	c0,0,6.4,1.5,19.1,4.4c3.7-0.6,6.7-3.3,7.7-6.9s-0.1-7.5-2.9-10c0,0-5.7-2.2-17.2-6.5c0,0-16.4-4.3-49.2-12.9c0,0-8.3,0.6-25,1.7
	c0,0,9-4.5,27-13.4c0,0,11.5,3.1,34.6,9.4c0,0,6,2.6,18.1,7.7c4,1.2,8.3-0.2,10.8-3.5s2.6-7.9,0.4-11.3c0,0-6.8-4.1-20.5-12.2
	c0,0-16.2-6.2-48.7-18.6c0,0,7-1.8,21-5.5c0,0,7.1,0.4,21.2,1.3c3.3-0.4,6.1-2.8,6.9-6.1c0.9-3.3-0.3-6.7-3-8.8
	c0,0-7.6-1.9-22.9-5.8c0,0-10.8,0.8-32.5,2.4c-3.7,0.8-7,3.1-8.9,6.4s-2.4,7.3-1.3,10.9c0,0-1.3,6-4,18c0,0-5.7,5.2-17.2,15.6
	c-9.4,5.8-12.4,18-6.9,27.5c-5.7,6.6-7.3,15.9-4.1,24c0,0-5.1,19.6-15.2,58.8C91.7,486.2,92.2,495.1,97.8,503.4z"/>
<path class="st9" d="M150.7,352.9l13.6-13l20.2-5.3l20.9,1.3c1,0.1,2-0.7,2-1.8c0.1-1-0.7-2-1.8-2l-21.2-1.3c-0.2,0-0.5,0-0.7,0.1
	l-20.9,5.5c-0.3,0.1-0.6,0.3-0.9,0.5L148,350.2c-0.8,0.7-0.8,1.9-0.1,2.7C148.7,353.6,149.9,353.6,150.7,352.9z"/>
<path class="st9" d="M142.4,381.9l26.4-13.1l33.9,9.2c1,0.3,2.1-0.3,2.3-1.3c0.3-1-0.3-2.1-1.3-2.3l-34.6-9.4
	c-0.5-0.1-1-0.1-1.5,0.2l-26.9,13.4c-0.9,0.5-1.3,1.6-0.9,2.5C140.3,381.9,141.5,382.3,142.4,381.9z"/>
<path class="st9" d="M142.4,414.8l23.6-8.3l42.9,5.8c1,0.1,2-0.6,2.1-1.6s-0.6-2-1.6-2.1l-43.3-5.9c-0.3,0-0.6,0-0.9,0.1l-23.9,8.4
	c-1,0.3-1.5,1.4-1.2,2.4C140.3,414.6,141.4,415.1,142.4,414.8z"/>
<path class="st9" d="M167.5,430.3h0.1l13.7,2.5l29,9c1,0.3,2.1-0.2,2.4-1.2c0.3-1-0.2-2.1-1.2-2.4l-29.1-9.1c-0.1,0-0.2-0.1-0.3-0.1
	l-13.8-2.5c-0.1,0-0.1,0-0.2,0l-1.1-0.2l-0.6-0.1h-0.1l-30.4-5.3c-1-0.2-2,0.5-2.2,1.5s0.5,2,1.5,2.2L167.5,430.3z"/>
<path class="st9" d="M147.6,463.7c4.2-1.7,8.1-3.9,11.8-6.5l47.6,3.6c1,0.1,2-0.7,2-1.8c0.1-1-0.7-2-1.8-2l-48.3-3.6
	c-0.5,0-1,0.1-1.3,0.4c-3.6,2.6-7.4,4.8-11.5,6.4c-4.1,1.7-8.4,2.8-12.8,3.4c-1,0.1-1.8,1.1-1.6,2.1c0.1,1,1.1,1.8,2.1,1.6
	C138.6,466.7,143.2,465.5,147.6,463.7z"/>
<path class="st9" d="M118.7,429c0.6-0.8,0.5-2-0.3-2.7c-0.8-0.6-2-0.5-2.7,0.3c-1.6,2.1-2.8,4.5-3.4,7s-0.7,5.2-0.3,7.8
	c0.5,2.6,1.4,5.1,2.9,7.2c1.4,2.2,3.3,4,5.6,5.5c0.9,0.6,2.1,0.3,2.6-0.6c0.6-0.9,0.3-2.1-0.6-2.6c-1.8-1.1-3.3-2.6-4.4-4.4
	c-1.1-1.7-1.9-3.7-2.3-5.8c-0.4-2.1-0.3-4.2,0.2-6.2C116.5,432.6,117.5,430.7,118.7,429z"/>
<path class="st2" d="M172.1,281.9c2.9,0,5.8-2.4,6.3-5.4l2-10.8c0.5-2.9-1.4-5.4-4.4-5.4l0,0c-2.9,0-5.8,2.4-6.3,5.4l-2,10.8
	C167.2,279.5,169.2,281.9,172.1,281.9L172.1,281.9z"/>
<path class="st10" d="M105.3,509.1c16.3,53.4,24.5,80,24.5,80c17.3-7,32.4-18.4,44-33c-18.8-16.9-24.5-44-14-67
	C146.4,505,125.7,512.6,105.3,509.1z"/>
<path class="st9" d="M137.2,504c-1,0.4-1.4,1.5-1,2.5s1.5,1.4,2.5,1c10.3-4.3,18.2-12,22.7-21.4s5.7-20.4,2.6-31.1
	c-0.3-1-1.3-1.6-2.4-1.3c-1,0.3-1.6,1.3-1.3,2.4c2.8,9.8,1.7,19.8-2.4,28.4C153.7,493,146.6,500.2,137.2,504z"/>
<path class="st11" d="M808.9,866.8c11.7-10.7,22.7-22.1,33.2-34.1c0,0-9.5-88.2-28.4-264.6c3.7,56.8-6.9,114.1-31.7,172
	C782,740.1,790.9,782.3,808.9,866.8z"/>
<path class="st11" d="M227.5,715.8c38.9-1.9,147.3-46.1,184-60.5c-16.6-32.6-28.9-62.9-37.1-91c-66.4,21.7-67.5,73.1-83.3,103.2
	c-10.7,20.5-31.8,26.8-49.9,21.5c-49.6-14.5-23.2-103.4-122.9-86.9c17.7,28.1,61.7,91.6,88.1,107.5
	C213.4,713.7,220.5,716.2,227.5,715.8z"/>
<path class="st11" d="M480,978.8c98.3,8.5,196.5-16.9,278.3-72c3.8-115.4,5.7-173.1,5.7-173.1c29-63,37-127.6,24.3-193.8
	c7.1-14.1-24.3-31.6-94.3-52.6c-6.5,40.9-34.3,60.9-83.2,59.9c-89.3,123.8,124.3,189,22.6,351.3C600,951.6,541,981.5,480,978.8z"/>
<path class="st12" d="M384.3,593.8c12,28.9,24,51.2,36.1,67c0,0,2,41.1,5.9,123.2c2.7,42.9,6.6,105.7,11.8,188.6
	c15.9,3,32,5.1,48.2,6.4c78-15,121.5-116.5,66.9-174c-15.1-15.9-35.8-27.3-57.1-42.3c-13.6-9.6-25.1-20.8-30.5-37.7
	c-7.2-22.6,1-42.2,6.1-61C486.7,608,429.5,571.8,384.3,593.8z"/>
<path class="st12" d="M285.6,642.3c3.8-5.7,6.4-12.7,9.1-20.2c11.3-30.6,33-52.4,58.9-60.8c65.5-21.1,86.6,52.3,158.3,19.8
	c28.6-13,48-40.2,50.9-71.5c-9.3-14.4-18.8-25-28.7-32.1c-9.5,0.8-21.3,1.6-35.6,2.4c-7.4,0.4-20.6,1.5-39.5,3.4
	c-10.2,1.1-19.4,2.8-27.6,5.1c-14.9,4.4-28,12.5-39.2,24c-73.9,54.7-110.9,82-110.9,82c-5.1,3.8-10.4,7.7-15.9,11.8
	c-0.9,0.9-2.7,0.7-5.5-0.6c-18.7-21.9-41.7-48.9-69.2-81.1c-0.1,1.3-0.6,2.9-1.4,4.8c-0.8,1.7-1.6,3.4-2.4,5.3
	c-2.1,4.7-4.9,9.8-8.6,15.3c31.6,20.6,36.9,54.7,45.8,78.8C235.7,659.8,268.6,668,285.6,642.3z"/>
<path class="st13" d="M238.7,701.4c-1.7,1.3-2,3.7-0.7,5.3c1.3,1.7,3.7,2,5.3,0.7c15.5-11.9,25.6-28.4,29.6-46.3
	c4-17.9,1.9-37.2-7.1-54.5c-1-1.9-3.3-2.6-5.1-1.6c-1.9,1-2.6,3.3-1.6,5.1c8.1,15.7,10.1,33.1,6.5,49.3
	C261.9,675.7,252.7,690.7,238.7,701.4z"/>
<path class="st2" d="M652.4,413.8c0.4-0.6,0.8-1.2,1.2-1.7c0.8-1.5,1.8-2.9,2.9-4.2c0.1-0.3,0.3-0.5,0.4-0.8c1-3,2.5-5.7,4.5-8
	l0.4-0.5c0.7-1.4,1.6-2.7,2.5-3.9c0.8-1.6,1.7-3.1,2.8-4.5l0.2-0.4c0.5-1.1,1.2-2.1,1.8-3c1.1-2.1,2.4-3.8,3.8-5.7
	c2.3-3.1,5.2-5.4,8.4-7c-19.8-1.5-46.8,8.3-80.9,29.4l4.2,2.5c0.5,0.3,1.1,0.7,1.6,1c3.4,0.7,6.5,2.1,9.2,4.1c0.7,0.3,1.3,0.6,2,0.9
	c1,0.4,2,0.8,3,1.2c1.9,0.4,3.6,1,5.3,1.8c5.2,1.7,9.7,5.2,12.6,9.7l1,1.5c3.2,4.8,4.5,10.4,3.9,15.8c1.5-0.9,3.2-1.7,4.9-2.2
	c-1.2-2.9-1.9-6-1.9-9.3c0-4.1,1-7.9,2.8-11.3C649.9,417.2,651,415.4,652.4,413.8z"/>
<path class="st2" d="M549.9,474.8c-0.5,0.3-1.4-0.4-2-0.3c-4.7,0.9-9.3,1.8-13.7,3c45,99.5,172.5,94.6,158.9,1.5
	c-3.8-1.2-7.7-2.3-11.9-3.3c-5.1,9.3-15,15-25.8,12.3l-0.7-0.2c-1.4-0.3-2.8-0.8-4.2-1.4c-0.5-0.2-1-0.4-1.5-0.6
	c-1-0.4-2.1-0.8-3.1-1.4c-0.3-0.1-0.6-0.3-0.9-0.4c-9.1-4.4-14.4-14-13.4-24c-8.3,5-18.5,4.4-26-0.9l-0.5-0.3
	c-1.1-0.4-2.2-0.8-3.3-1.3l-1-0.5c-0.3,6.1-3,11.7-7.1,15.7c-1.2,1.2-2.5,2.3-4,3.3l-0.3,0.2c-0.6,0.5-1.2,1-1.9,1.5
	c-1.4,1.2-2.8,2.2-4.4,3c-1.6,1-3.4,1.8-5.2,2.3l-0.5,0.2c-2.7,0.9-5.4,1.3-8.1,1.2h-0.2C561.1,484.4,554.2,481.1,549.9,474.8z"/>
<path class="st2" d="M559.6,438.5c-1.6-0.7-3.2-1.5-4.6-2.5l-0.3,1.8c0.6,0.7,1.2,1.5,1.8,2.3C557.5,439.6,558.5,439,559.6,438.5
	L559.6,438.5z"/>
<path class="st8" d="M566.2,440.6l-4.7,31.7l-13.7,2.2c37.1,85.7,146.7,81.3,133.2,1.2c-6.5-2.5-9.8-3.7-9.8-3.7
	c-2-27.1,1.6-54.3,10.5-79.9C659.2,383.1,620.7,399.3,566.2,440.6z"/>
<path class="st14" d="M661.1,415.6c-3.4-2.5-35.8,11.1-97.2,40.8c0,0-0.8,5.3-2.4,16c0,0-4.6,0.7-13.7,2.2
	c13.1,27.8,30.9,46.5,53.5,56C601.4,530.4,621.3,492.2,661.1,415.6z"/>
<path class="st15" d="M673.4,399.8c-8.2-11.8-44.7,7.1-109.5,56.6c0,0-0.8,5.3-2.4,16C612.5,476.7,649.8,452.5,673.4,399.8z"/>
<path class="st16" d="M538.9,428.9c0,7,1.9,12.7,5.7,17c7.8,9,21.3,11.5,35.6,10.6c45.7-2.9,76.4-30.9,100.8-67.5
	c23.6-33,20.9-78.1-6.4-108.1c-27.3-30-71.8-37-107-16.7c-17.1,12.8-35,35.3-31.9,57.6c0.5,3.8,1.3,8.1,1.8,14
	c0.8,8.3-3.8,12.1-8.1,20.2C519.7,374.6,533.6,409,538.9,428.9z"/>
<path class="st17" d="M538.9,428.9c0,7,1.9,12.7,5.7,17c6.8,7.8,18,10.8,30.2,10.8c-34-46.4-37.3-111-3.5-161.6
	c11.8-17.8,27-32,44.1-42.3c-16.2-0.9-32.8,2.8-47.7,11.4c-17.1,12.8-35,35.3-31.9,57.6c0.5,3.8,1.3,8.1,1.8,14
	c0.8,8.3-3.8,12.1-8.1,20.2C519.7,374.6,533.6,409,538.9,428.9z"/>
<path class="st14" d="M620.8,356c-21.3,32.1,15.8,56.9-1.1,83.8c23.4-13.5,41.9-32.5,55.7-57c19-20.3,24-50,12.6-75.4
	s-37-41.4-64.8-40.6c15.4,5.8,26.1,19.9,27.6,36.3c1.2,13.2-2.9,21.9-8.7,29.2C635.5,340.6,626.7,347,620.8,356z"/>
<path class="st15" d="M656.8,364.2c14.1,1.9,21.2,2.9,21.2,2.9c15.8-16,5.4-24.8-31.1-26.4c-0.6,13.2-9,24.7-21.3,29.3
	c-12.4,4.6-26.2,1.3-35.2-8.4c6.6,11.9,18.9,19.5,32.5,20.1C636.4,382.1,649.3,375.5,656.8,364.2z"/>
<path class="st7" d="M610.7,209.2c-1-4.7-4.6-7.7-9.5-8.9c-32.7-8.5-64.1,36.8-33.5,64c37.6-10.8,77.8,4.8,98.3,38.1
	c-13.3,22.5,21.9,32.2,6,67.2c10.1-12.4,20.9-21.5,38.3-20.2c18.6-31.2,15.6-70.6-7.3-98.7c-22.9-28.1-61-38.9-95.2-27
	C610.7,217.7,611.5,212.9,610.7,209.2z"/>
<path class="st18" d="M593.7,306.3c6.8-2,13.8-2,20.4-0.3c6.6,1.7,12.8,5.1,17.7,10.1c1,1,2.6,1,3.6,0s1-2.6,0-3.6
	c-5.7-5.6-12.6-9.5-20.1-11.4s-15.4-1.8-23.1,0.4c-1.4,0.4-2.1,1.8-1.7,3.2C590.9,305.9,592.4,306.7,593.7,306.3z"/>
<path class="st18" d="M532.1,309.4c3.8-2.9,8.1-4.8,12.6-5.7c4.5-0.9,9.3-0.8,13.8,0.4c1.4,0.4,2.8-0.5,3.1-1.8
	c0.4-1.4-0.5-2.8-1.8-3.1c-5.3-1.4-10.8-1.5-16.1-0.5s-10.3,3.3-14.7,6.6c-1.1,0.8-1.3,2.5-0.5,3.6C529.4,310,531,310.3,532.1,309.4
	z"/>
<circle class="st19" cx="608.8" cy="336.3" r="4"/>
<path class="st19" d="M550.8,334.4c0-2.2-1.8-3.9-3.9-3.9c-2.2,0-3.9,1.8-3.9,3.9c0,2.2,1.8,3.9,3.9,3.9S550.8,336.5,550.8,334.4z"
	/>
<path class="st2" d="M538,324.5c0-3.2-2.6-5.8-5.8-5.8s-5.8,2.6-5.8,5.8c0,3.2,2.6,5.8,5.8,5.8C535.5,330.2,538,327.6,538,324.5z"/>
<path class="st2" d="M602.9,329.8c0-3.2-2.6-5.8-5.8-5.8s-5.8,2.6-5.8,5.8c0,3.2,2.6,5.8,5.8,5.8
	C600.3,335.5,602.9,332.9,602.9,329.8z"/>
<path class="st15" d="M569.7,401.9c9.5-0.6,18.7-4.6,25.7-12c1-1,0.9-2.6-0.1-3.6s-2.6-0.9-3.6,0.1c-6.1,6.4-14.1,9.9-22.3,10.4
	s-16.6-2-23.4-7.7c-1.1-0.9-2.7-0.8-3.6,0.3c-0.9,1.1-0.8,2.7,0.3,3.6C550.6,399.5,560.3,402.4,569.7,401.9z"/>
<path class="st15" d="M581.8,408c0.4-0.5,0.4-1.2,0-1.6c-0.5-0.4-1.2-0.4-1.6,0c-2.7,2.9-6.4,4.5-10.1,4.7
	c-3.7,0.2-7.5-0.9-10.6-3.5c-0.5-0.4-1.2-0.3-1.6,0.1c-0.4,0.5-0.3,1.2,0.1,1.6c3.5,2.9,7.9,4.2,12.2,4
	C574.5,413.2,578.7,411.4,581.8,408z"/>
<path class="st20" d="M660.2,294.1c2.1,2.6,4,5.4,5.8,8.3c-13.3,22.5,21.9,32.2,6,67.2c10.1-12.4,20.9-21.5,38.3-20.2
	c18.6-31.2,15.6-70.6-7.3-98.7c-3.5-4.3-7.4-8.3-11.6-11.8c2,7.2,2.2,15,0.2,22.7C687.5,277.8,675.2,289.8,660.2,294.1z"/>
<path class="st21" d="M592.5,364c5.9,5.9,14.1,9.6,23.1,9.6s17.2-3.7,23.1-9.6c5.7-5.7,9.3-13.5,9.5-22.2l54.7,8.1l17.6,10.9
	c0.9,0.6,2.1,0.3,2.6-0.6c0.6-0.9,0.3-2.1-0.6-2.6l-17.9-11.1c-0.2-0.2-0.5-0.3-0.8-0.3l-55.8-8.3c-0.7-7.8-4.2-14.8-9.4-20.1
	c-5.9-5.9-14.1-9.6-23.1-9.6s-17.2,3.7-23.1,9.6c-2.2,2.2-4.1,4.7-5.6,7.5c-0.7-0.7-1.5-1.3-2.4-1.8c-1.8-1.1-3.8-1.9-6-2.1
	c-2.1-0.3-4.3,0-6.3,0.6c-1,0.3-2.1,0.8-3,1.4c-1.5-3.6-3.6-6.8-6.3-9.5c-5.4-5.7-12.9-9.1-21.2-9.1s-15.7,3.5-21.2,9.1
	c-5.4,5.6-8.7,13.4-8.7,22s3.3,16.3,8.7,22s12.9,9.1,21.2,9.1s15.7-3.5,21.2-9.1c5.4-5.6,8.7-13.4,8.7-22c0-3-0.4-5.9-1.2-8.7
	c0.9-0.6,1.9-1.1,2.9-1.5c1.5-0.5,3.1-0.6,4.7-0.5c1.6,0.2,3.1,0.7,4.4,1.6c1,0.6,1.9,1.4,2.6,2.3c-1.4,3.7-2.2,7.6-2.2,11.8
	C582.9,350,586.6,358.1,592.5,364z M560.2,355.2c-4.7,4.9-11.2,8-18.4,8s-13.7-3-18.4-8c-4.7-4.9-7.7-11.8-7.7-19.3
	s2.9-14.4,7.7-19.3c4.7-4.9,11.2-8,18.4-8s13.7,3,18.4,8c4.7,4.9,7.7,11.8,7.7,19.3S564.9,350.3,560.2,355.2z M595.2,320.6
	c5.2-5.2,12.4-8.4,20.4-8.4s15.1,3.2,20.4,8.4c5.2,5.2,8.4,12.4,8.4,20.4s-3.2,15.1-8.4,20.4c-5.2,5.2-12.4,8.4-20.4,8.4
	s-15.2-3.2-20.4-8.4c-5.2-5.2-8.4-12.4-8.4-20.4S590,325.8,595.2,320.6z"/>
<path class="st14" d="M576.3,328.8c-9.3,4.5-55.7,49-10.8,45.5c2.4-2.5,6-3.5,9.4-2.7c3.2,1.3,6.8,0.3,9-2.3
	c2.2-2.6,2.5-6.3,0.7-9.3c-1.8-2.9-5.2-4.4-8.6-3.6c2.6-14.6,3.8-21.8,3.8-21.8C580.4,329.2,579.2,327.3,576.3,328.8z"/>
<path class="st16" d="M709.3,383.8c9.4-11.7,9.8-27,1-34.1s-23.6-3.3-33,8.4c-9.4,11.7-9.8,27-1,34.1
	C685.2,399.3,699.9,395.5,709.3,383.8z"/>
<path class="st14" d="M705.5,382c5.7-7.1,5.9-16.2,0.6-20.5c-5.3-4.3-14.2-2-19.9,5.1s-5.9,16.2-0.6,20.5
	C690.9,391.3,699.8,389,705.5,382z"/>
<path class="st15" d="M697.4,373.4c2.9-3.7,3.1-8.5,0.3-10.7s-7.4-1-10.4,2.7c-2.9,3.7-3.1,8.5-0.3,10.7
	C689.8,378.3,694.4,377.1,697.4,373.4z"/>
<path class="st22" d="M608.8,204.9c-1.7-2.3-4.4-3.8-7.6-4.6c-32.7-8.5-64.1,36.8-33.5,64c7.3-2.1,14.7-3.2,22-3.3
	c-3.2-7.8-4.2-16.5-2.5-25.4C589.6,222.1,597.8,211.3,608.8,204.9z"/>
<path class="st21" d="M420.6,666.1c0.1,1.7,0,3.4-0.3,5.1l20.8,22.2l0,0l0,0c2.2,2.3,5.9,2.5,8.2,0.4l0.1-0.1l54.1-50.9
	c1.2-1.1,1.8-2.6,1.9-4.1l0,0c0-1.5-0.5-3.1-1.6-4.2L453,580.2l0,0l0,0c-2.2-2.4-6-2.5-8.4-0.3l-48.1,45.2c1,0.8,1.8,1.6,2.7,2.6
	l48-45.1c0.9-0.8,2.3-0.8,3.2,0.1l0,0l50.9,54.1c0.4,0.4,0.6,1,0.6,1.6l0,0c0,0.6-0.3,1.1-0.7,1.6L447,690.9
	c-0.9,0.9-2.3,0.8-3.2-0.1l0,0L420.6,666.1z"/>
<path class="st21" d="M502,638.4L502,638.4c-0.1,1.5,0.5,3.1,1.6,4.2l0,0l50.9,54.1l0,0l0,0l0,0c1.1,1.2,2.6,1.8,4.1,1.9
	c1.5,0,2.9-0.4,4.1-1.5l0.1-0.1l0,0l54.1-50.9c1.2-1.1,1.8-2.6,1.9-4.1l0,0c0-1.5-0.5-3.1-1.6-4.2l-50.9-54.1l0,0l0,0
	c-1.1-1.2-2.6-1.8-4.1-1.9c-1.5,0-3.1,0.5-4.2,1.6l-54.1,50.9l0,0l0,0l0,0C502.7,635.4,502.1,636.9,502,638.4z M506.4,637L506.4,637
	l54.1-50.9c0.4-0.4,1-0.6,1.6-0.6s1.1,0.3,1.6,0.7l0,0l50.9,54.1l0,0c0.4,0.4,0.6,1,0.6,1.6l0,0c0,0.6-0.3,1.1-0.7,1.6l0,0
	l-54.1,50.9l0,0c0,0,0,0-0.1,0.1c-0.4,0.4-1,0.5-1.5,0.5c-0.6,0-1.1-0.2-1.6-0.7l0,0l0,0l-50.9-54.1c-0.4-0.4-0.6-1-0.6-1.6l0,0
	C505.7,638,506,637.4,506.4,637z"/>
<path class="st21" d="M728.7,645.4c0,1.5,0.5,3.1,1.6,4.2l0,0l50.9,54.1l0,0l0,0c2.2,2.4,6,2.5,8.4,0.3l14.6-13.8v-1.1
	c0-1.5,0.2-3,0.5-4.5L787,701.2c-0.9,0.8-2.3,0.8-3.2-0.1l0,0l-50.8-54c-0.4-0.4-0.6-1-0.6-1.6l0,0c0-0.6,0.3-1.1,0.7-1.6l0,0
	l54.1-50.9c0.9-0.8,2.3-0.8,3.2,0.1l0,0l23.9,25.4c0-1.1,0-2.2,0-3.3c0-0.7,0-1.4,0.1-2l-21.3-22.7l0,0l0,0c-2.2-2.4-6-2.5-8.4-0.3
	l-54.1,50.9l0,0C729.5,642.3,728.8,643.8,728.7,645.4L728.7,645.4z"/>
<path class="st21" d="M792.9,590.8l21.7,23c0.1-0.2,0.1-0.5,0.2-0.7l-21.6-23l0,0c-2.4-2.3-6.2-2.3-8.6-0.1l-53.9,50.7l-50.9-54.1
	l0,0c-2.4-2.3-6.2-2.3-8.6-0.1l-53.8,50.6L566.6,583l0,0c-2.4-2.3-6.2-2.3-8.6-0.1l-53.9,50.7L453,579.7l0,0
	c-2.4-2.3-6.2-2.3-8.6-0.1l-48,45.1c0.2,0.1,0.3,0.3,0.5,0.4l47.9-45.1c1.7-1.6,4.1-2,6.2-1c0.8,0.4,1.4,0.8,2,1.5l0,0l50.5,53.7
	l0,0l0,0c-0.8,0.8-1.3,1.8-1.6,2.9c-0.1-0.2-0.3-0.5-0.4-0.6l0,0l-50.7-53.9l0,0l-0.2-0.2c-1-1-2.6-1.1-3.6-0.1l-47.9,45
	c0.1,0.2,0.3,0.3,0.4,0.5l47.9-45.1c0.7-0.7,1.9-0.7,2.6,0l51,54.2l0,0c0.3,0.3,0.5,0.8,0.5,1.2c0,0.6-0.1,1-0.6,1.5l0,0l-54.1,50.9
	l0,0c-0.7,0.7-1.8,0.7-2.5,0.1l-0.2-0.2l0,0l-25-26.5c0.1,0.4,0.2,0.8,0.2,1.1l24.1,25.6l0,0c0.3,0.3,0.6,0.6,1,0.8
	c0.9,0.4,2.1,0.2,2.8-0.5l0,0l54.1-50.9l0,0c0.2-0.2,0.3-0.4,0.4-0.6c0.2,1.1,0.7,2.2,1.4,3l-53.9,50.7l0,0l-0.1,0.1
	c-2.3,2-5.7,1.9-7.8-0.3l-21.9-23.2c0,0.3,0,0.6-0.1,0.9l21.7,23l0,0c2.3,2.3,6,2.3,8.5,0.2l0,0l0.1-0.1l0,0l53.9-50.7l50.8,54.2
	l0.1-0.1c2.3,2.3,6.1,2.3,8.5,0.2l0,0l0.1-0.1l0,0l53.8-50.6l50.8,54.1h0.1c2.3,2.3,6,2.3,8.5,0.2l0,0l0.1-0.1l0,0l53.9-50.7
	l50.9,54.1l0,0c1.1,1.1,2.6,1.7,4.1,1.7c1.7,0.1,3.2-0.6,4.5-1.7l13.1-12.4c0-0.3,0-0.6,0-0.9l-13.6,12.8l0,0l-0.1,0.1
	c-1.7,1.5-4,1.8-6,0.9c-0.8-0.4-1.4-0.8-2-1.5l0,0l-50.5-53.7c0.8-0.8,1.3-1.8,1.6-2.9c0.1,0.2,0.3,0.4,0.4,0.6l0,0l50.7,53.9l0,0
	c0.3,0.3,0.6,0.6,1,0.8l0,0c0.9,0.4,2.1,0.2,2.8-0.5l0,0l16.6-15.6c0.1-0.4,0.3-0.8,0.4-1.3L786.6,701l0,0c-0.6,0.5-1.4,0.6-2.1,0.3
	l0,0c-0.1-0.1-0.5-0.3-0.6-0.4L733,646.7l0,0c-0.2-0.2-0.3-0.4-0.4-0.6l0,0c-0.1-0.2-0.1-0.5-0.1-0.7c0-0.6,0.2-0.9,0.6-1.3l0,0
	l54.1-50.9c0.6-0.5,1.4-0.7,2.1-0.3l0,0c0.2,0.1,0.3,0.2,0.5,0.3l23.5,24.9c0-0.3,0.1-0.5,0.1-0.8L790.6,593l0,0
	c-0.3-0.3-0.6-0.6-1-0.8l0,0c-0.6-0.3-1.3-0.3-2-0.1l0,0c-0.3,0.1-0.6,0.3-0.8,0.5l-53.9,50.7l0,0c-0.3,0.3-0.5,0.5-0.7,0.8
	c-0.2-1.1-0.7-2.2-1.4-3l53.9-50.7C787.2,588.5,790.8,588.6,792.9,590.8z M503.9,634.7c1.4,1.6,1.7,4,0.8,5.9l0,0
	c-0.3,0.6-0.6,1.1-1.1,1.6C501.8,640.1,501.9,636.8,503.9,634.7z M562.7,696.9L562.7,696.9L562.7,696.9c-2.4,2.1-5.8,2-7.9-0.2
	l-0.2-0.2l0,0l-50.5-53.7c0.8-0.8,1.3-1.8,1.6-2.9c0.1,0.2,0.3,0.4,0.4,0.6l0,0l50.7,53.9l0,0c0.3,0.4,0.6,0.6,1,0.8l0,0
	c0.9,0.4,2.1,0.2,2.8-0.5l0,0l54.1-50.9l0,0c0.1-0.1,0.3-0.3,0.4-0.5c0.2,1.1,0.7,2.1,1.4,3L562.7,696.9z M506.7,637.2l54.1-50.9
	c0.6-0.5,1.4-0.7,2.1-0.3l0,0c0.2,0.1,0.3,0.2,0.5,0.3l50.9,54.2l0,0c0.4,0.4,0.6,0.9,0.6,1.5c0,0.5-0.2,1-0.6,1.3l0,0l-54.1,50.9
	l0,0c-0.5,0.5-1.4,0.6-2.1,0.3l0,0c-0.2-0.1-0.5-0.3-0.6-0.4l-50.9-54.2l0,0c-0.2-0.2-0.3-0.4-0.4-0.6c-0.1-0.2-0.1-0.5-0.1-0.7
	C506.1,638,506.3,637.6,506.7,637.2L506.7,637.2z M616.8,637.8c-0.8,0.8-1.3,1.8-1.5,2.8c-0.1-0.1-0.2-0.3-0.3-0.4
	c0,0-46.4-49.4-50.8-54l0,0c-0.3-0.3-0.6-0.6-1-0.8l0,0c-0.6-0.3-1.3-0.3-2-0.1l0,0c-0.3,0.1-0.6,0.3-0.8,0.5l-53.9,50.7l0,0
	c-0.3,0.3-0.5,0.5-0.7,0.8c-0.2-1.1-0.7-2.2-1.4-3l0,0l0,0l53.9-50.7c2.3-2.1,5.8-2,7.9,0.2l0.2,0.2l0,0L616.8,637.8L616.8,637.8
	L616.8,637.8z M727.6,646.7l-54.1,50.9l0,0c-0.7,0.7-1.8,0.7-2.5,0.1l-0.2-0.2l0,0l-50.8-54c-0.5-0.5-0.6-0.9-0.6-1.6
	c0.1-0.5,0.3-0.8,0.6-1.2l0,0l54.1-50.9c0.2-0.2,0.4-0.3,0.6-0.4l0,0c0.7-0.3,1.4-0.1,2,0.4l51,54.2l0,0c0.3,0.3,0.5,0.7,0.5,1.2
	C728.2,645.9,728.1,646.3,727.6,646.7L727.6,646.7z"/>
<path class="st13" d="M394.2,607.9c-7.2-18-11.9-37.1-13.8-56.6c-0.2-2.1-2-3.6-4.1-3.4c-2.1,0.2-3.6,2-3.4,4.1
	c2,20.3,6.8,40,14.3,58.7c7.4,18.4,17.3,35.7,29.5,51.4l8.3,119.2c0.1,2.1,2,3.7,4,3.5c2.1-0.1,3.7-2,3.5-4l-8.4-120.4
	c-0.1-0.8-0.3-1.5-0.8-2.1l0,0C411.3,643,401.5,625.9,394.2,607.9z"/>
<path class="st13" d="M767.8,864.1c-0.1,2.1,1.5,3.9,3.6,3.9c2.1,0.1,3.9-1.5,3.9-3.6l4.6-113.1c16.1-29,27-60.3,32.6-92.5
	c5.6-32.5,5.6-65.9-0.1-98.9c-0.4-2.1-2.3-3.5-4.4-3.1c-2.1,0.4-3.5,2.3-3.1,4.4c5.6,32.1,5.5,64.7,0.1,96.3
	c-5.4,31.7-16.2,62.4-32.1,90.8l0,0c-0.3,0.5-0.5,1.1-0.5,1.7L767.8,864.1z"/>
<path class="st11" d="M485,367.6v-18.4c0-15.2-12.5-27.7-27.7-27.7h-144c-15.2,0-27.7,12.5-27.7,27.7v18.4
	c0,15.2,12.5,27.7,27.7,27.7H418l66.7,53.4l-23-53.7C474.8,392.9,485,381.4,485,367.6z"/>
<path class="st2" d="M361.7,359.2c0-3.4-2.8-6.2-6.2-6.2c-3.4,0-6.2,2.8-6.2,6.2c0,3.4,2.8,6.2,6.2,6.2
	C358.9,365.4,361.7,362.6,361.7,359.2z"/>
<path class="st2" d="M389.9,359.2c0-3.4-2.8-6.2-6.2-6.2c-3.4,0-6.2,2.8-6.2,6.2c0,3.4,2.8,6.2,6.2,6.2
	C387.2,365.4,389.9,362.6,389.9,359.2z"/>
<path class="st2" d="M416.9,359.2c0-3.4-2.8-6.2-6.2-6.2c-3.4,0-6.2,2.8-6.2,6.2c0,3.4,2.8,6.2,6.2,6.2
	C414.2,365.4,416.9,362.6,416.9,359.2z"/>
<path class="st2" d="M405,279.2c0-3.4-2.8-6.2-6.2-6.2c-3.4,0-6.2,2.8-6.2,6.2c0,3.4,2.8,6.2,6.2,6.2
	C402.2,285.4,405,282.6,405,279.2z"/>
<path class="st2" d="M443.8,294.2c0-1.7-1.4-3.1-3.1-3.1s-3.1,1.4-3.1,3.1s1.4,3.1,3.1,3.1C442.4,297.3,443.8,295.9,443.8,294.2z"/>
<path class="st2" d="M497.7,280.9c0-1.4-1.2-2.6-2.6-2.6s-2.6,1.2-2.6,2.6s1.2,2.6,2.6,2.6S497.7,282.3,497.7,280.9z"/>
<path class="st2" d="M473.5,501.5c0-1.4-1.2-2.6-2.6-2.6s-2.6,1.2-2.6,2.6s1.2,2.6,2.6,2.6S473.5,502.9,473.5,501.5z"/>
<path class="st2" d="M560.5,535.8c0-1.7-1.4-3.1-3.1-3.1c-1.7,0-3.1,1.4-3.1,3.1c0,1.7,1.4,3.1,3.1,3.1
	C559.1,538.9,560.5,537.5,560.5,535.8z"/>
<path class="st2" d="M329.8,472c0-3.4-2.8-6.2-6.2-6.2c-3.4,0-6.2,2.8-6.2,6.2c0,3.4,2.8,6.2,6.2,6.2
	C327,478.1,329.8,475.4,329.8,472z"/>
<path class="st2" d="M743.1,462.1c0-3.4-2.8-6.2-6.2-6.2s-6.2,2.8-6.2,6.2c0,3.4,2.8,6.2,6.2,6.2
	C740.4,468.3,743.1,465.5,743.1,462.1z"/>
<path class="st2" d="M734.8,540.4c0-1.7-1.4-3.1-3.1-3.1c-1.7,0-3.1,1.4-3.1,3.1c0,1.7,1.4,3.1,3.1,3.1
	C733.5,543.5,734.8,542.1,734.8,540.4z"/>
<path class="st2" d="M690.6,771.1c0-1.7-1.4-3.1-3.1-3.1c-1.7,0-3.1,1.4-3.1,3.1c0,1.7,1.4,3.1,3.1,3.1
	C689.2,774.1,690.6,772.8,690.6,771.1z"/>
<path class="st2" d="M516.5,776.3c0-1.7-1.4-3.1-3.1-3.1c-1.7,0-3.1,1.4-3.1,3.1c0,1.7,1.4,3.1,3.1,3.1
	C515.1,779.4,516.5,778,516.5,776.3z"/>
<path class="st2" d="M196,621.7c0-1.7-1.4-3.1-3.1-3.1c-1.7,0-3.1,1.4-3.1,3.1c0,1.7,1.4,3.1,3.1,3.1S196,623.4,196,621.7z"/>
<path class="st2" d="M67.8,484.3c0-3.4-2.8-6.2-6.2-6.2c-3.4,0-6.2,2.8-6.2,6.2c0,3.4,2.8,6.2,6.2,6.2
	C65,490.4,67.7,487.7,67.8,484.3z"/>
<path class="st2" d="M160.8,90.2c0-3.4-2.8-6.2-6.2-6.2s-6.2,2.8-6.2,6.2c0,3.4,2.8,6.2,6.2,6.2C158.1,96.3,160.8,93.6,160.8,90.2z"
	/>
</svg>
