<?xml version="1.0" encoding="utf-8"?>
<!-- Generator: Adobe Illustrator 25.2.0, SVG Export Plug-In . SVG Version: 6.00 Build 0)  -->
<svg version="1.1" id="Layer_1" xmlns="http://www.w3.org/2000/svg" xmlns:xlink="http://www.w3.org/1999/xlink" x="0px" y="0px"
	 viewBox="0 0 800 600" style="enable-background:new 0 0 800 600;" xml:space="preserve">
<style type="text/css">
	.st0{fill:#A6ADFF;}
	.st1{fill-rule:evenodd;clip-rule:evenodd;fill:#C92C88;}
	.st2{filter:url(#Adobe_OpacityMaskFilter);}
	.st3{fill:url(#SVGID_2_);}
	.st4{mask:url(#SVGID_1_);fill-rule:evenodd;clip-rule:evenodd;fill:#8C0E57;}
	.st5{fill-rule:evenodd;clip-rule:evenodd;fill:#FFA03B;}
	.st6{fill:#DB5400;}
	.st7{fill:#8C0E57;}
	.st8{opacity:0.63;fill-rule:evenodd;clip-rule:evenodd;fill:#6E269E;}
	.st9{fill-rule:evenodd;clip-rule:evenodd;fill:#FFFFFF;}
	.st10{opacity:0.69;fill-rule:evenodd;clip-rule:evenodd;fill:#C92C88;}
	.st11{filter:url(#Adobe_OpacityMaskFilter_1_);}
	.st12{fill:url(#SVGID_4_);}
	.st13{mask:url(#SVGID_3_);fill-rule:evenodd;clip-rule:evenodd;fill:#8C0E57;}
	.st14{filter:url(#Adobe_OpacityMaskFilter_2_);}
	.st15{fill:url(#SVGID_6_);}
	.st16{mask:url(#SVGID_5_);fill-rule:evenodd;clip-rule:evenodd;fill:#8C0E57;}
	.st17{filter:url(#Adobe_OpacityMaskFilter_3_);}
	.st18{fill:url(#SVGID_8_);}
	.st19{mask:url(#SVGID_7_);fill-rule:evenodd;clip-rule:evenodd;fill:#E65B03;}
	.st20{filter:url(#Adobe_OpacityMaskFilter_4_);}
	.st21{fill:url(#SVGID_10_);}
	.st22{mask:url(#SVGID_9_);fill-rule:evenodd;clip-rule:evenodd;fill:#C70906;}
	.st23{fill-rule:evenodd;clip-rule:evenodd;fill:#FFAA50;}
	.st24{fill-rule:evenodd;clip-rule:evenodd;fill:#EC6917;}
	.st25{fill-rule:evenodd;clip-rule:evenodd;fill:#AE0300;}
	.st26{filter:url(#Adobe_OpacityMaskFilter_5_);}
	.st27{fill:url(#SVGID_12_);}
	.st28{mask:url(#SVGID_11_);fill-rule:evenodd;clip-rule:evenodd;fill:#FFDBA1;}
	.st29{filter:url(#Adobe_OpacityMaskFilter_6_);}
	.st30{fill:url(#SVGID_14_);}
	.st31{mask:url(#SVGID_13_);fill-rule:evenodd;clip-rule:evenodd;fill:#EC630E;}
	.st32{fill:#2E1A04;}
	.st33{fill-rule:evenodd;clip-rule:evenodd;}
	.st34{fill:#AE0300;}
	.st35{filter:url(#Adobe_OpacityMaskFilter_7_);}
	.st36{fill:url(#SVGID_16_);}
	.st37{mask:url(#SVGID_15_);fill-rule:evenodd;clip-rule:evenodd;fill:#AE0300;}
	.st38{fill-rule:evenodd;clip-rule:evenodd;fill:#2E1A04;}
	.st39{filter:url(#Adobe_OpacityMaskFilter_8_);}
	.st40{fill:url(#SVGID_18_);}
	.st41{mask:url(#SVGID_17_);fill-rule:evenodd;clip-rule:evenodd;fill:#0B0200;}
	.st42{filter:url(#Adobe_OpacityMaskFilter_9_);}
	.st43{fill:url(#SVGID_20_);}
	.st44{mask:url(#SVGID_19_);fill-rule:evenodd;clip-rule:evenodd;fill:#8B6513;}
	.st45{filter:url(#Adobe_OpacityMaskFilter_10_);}
	.st46{fill:url(#SVGID_22_);}
	.st47{mask:url(#SVGID_21_);fill-rule:evenodd;clip-rule:evenodd;fill:#8B6513;}
	.st48{fill:#FFFFFF;}
	.st49{fill-rule:evenodd;clip-rule:evenodd;fill:#E65B03;}
</style>
<rect class="st0" width="800" height="600"/>
<path class="st1" d="M591.1,444.9c-39-28.6-102.2-51.8-145.6-71.3c-134.6-6.1-201.9-9.1-201.9-9.1c-81.6,17.2-111.9,24.7-133.5,34.2
	C72.4,415.5,33,449.1-0.3,474c0,84.2,0,126.2,0,126.2c10.9,0,16.3,0,16.3,0C92,559.4,130,538.9,130,538.9
	c6.1,40.9,9.1,61.3,9.1,61.3c240.8,0,361.1,0,361.1,0s7.4-14.1,22.2-42.2c0,0,25.9,14.1,77.6,42.2c0,0,66.6,0,199.8,0
	c0,0,0-11,0-32.9c0,0-21.5-38.3-64.4-115c0,0-24.8,1.3-74.4,3.8c0,0,4.7,23.2,14,69.5C645.5,491.1,617.5,464.2,591.1,444.9z"/>
<defs>
	<filter id="Adobe_OpacityMaskFilter" filterUnits="userSpaceOnUse" x="532" y="478" width="148" height="126.7">
		<feColorMatrix  type="matrix" values="1 0 0 0 0  0 1 0 0 0  0 0 1 0 0  0 0 0 1 0"/>
	</filter>
</defs>
<mask maskUnits="userSpaceOnUse" x="532" y="478" width="148" height="126.7" id="SVGID_1_">
	<g class="st2">
		
			<linearGradient id="SVGID_2_" gradientUnits="userSpaceOnUse" x1="167.6354" y1="993.1038" x2="18.5082" y2="992.0108" gradientTransform="matrix(1 0 0 1 513.6188 -451.2385)">
			<stop  offset="0" style="stop-color:#000000"/>
			<stop  offset="1" style="stop-color:#FFFFFF"/>
		</linearGradient>
		<rect x="532" y="478" class="st3" width="148.2" height="126.7"/>
	</g>
</mask>
<path class="st4" d="M567.9,478c-24,50.6-35.9,76-35.9,76c61.3,33.8,92,50.7,92,50.7s18.7-12.1,56-36.4
	C677.5,567.2,640.2,537.2,567.9,478z"/>
<path class="st5" d="M711.1,231.8c-3.7-0.1-7,2.4-7.9,6c0,0-3,22.2-9,66.5c0,0,0-25.7-0.1-77.2c0-4.4-3.3-8-7.6-8.4
	c-4.3-0.4-8.3,2.6-9.1,6.9c0,0-2.9,26.1-8.7,78.3c0,0-0.4-22-1.3-66.1c-0.3-4.6-4.2-8.2-8.8-8.1c-4.7,0.1-8.4,3.9-8.4,8.5
	c0,0-1.6,22.9-4.7,68.7c0,0-1.6,9.7-4.9,29.1c-3.4,11.9-9.5,12.6-13,1.7c-5.3-15.1-2.8-24.2-14.7-33.9c-7.1-5.8-10.2,0.5-10.5,8
	c-0.6,12.8,2.9,35.7,4.2,49.2c-0.9,17.6,12.8,39.7,41.1,66.2c0,0,4.5,9.7,13.4,29c9.5,11,23.6,17,38.1,16.3
	c14.5-0.7,27.9-8.2,36.3-20.1c-7-20.9-10.5-31.4-10.5-31.4c10.7-18.6,16-46.4,15.9-83.3c0,0,2.1-14.4,6.4-43.3
	c0,0-2.4-10.8-7.3-32.5c-1-3.1-4.2-5-7.4-4.5c-3.2,0.6-5.6,3.4-5.5,6.7c0,0,0.6,9.9,1.7,29.6c0,0-4.1,7.7-12.3,23
	c0,0,0.7-26.2,2-78.5C717.9,234.6,714.8,231.9,711.1,231.8z"/>
<path class="st6" d="M680.3,415.7c1.1,0.2,2.3-0.5,2.5-1.6c2.8-13,0.8-26.1-4.9-37.2c-5.8-11.1-15.3-20.3-27.5-25.6
	c-1.1-0.5-2.3,0-2.8,1.1c-0.5,1.1,0,2.3,1.1,2.8c11.3,4.8,20.1,13.3,25.4,23.6c5.3,10.3,7.2,22.4,4.5,34.4
	C678.5,414.3,679.2,415.4,680.3,415.7z"/>
<path class="st6" d="M691.8,397.9c0.3-7.9,2.5-15.4,6.2-22.1c3.7-6.7,9.1-12.5,15.6-16.8c1-0.6,1.2-1.9,0.6-2.9
	c-0.6-1-1.9-1.2-2.9-0.6c-7.1,4.7-12.9,11-17,18.3c-4.1,7.2-6.4,15.5-6.7,24c0,1.2,0.9,2.1,2,2.2C690.8,399.9,691.7,399,691.8,397.9
	z"/>
<path class="st7" d="M524.9,560.7c12.1-10.7,21.9-23.4,29.2-37.4c7.3-14,12-29.4,13.8-45.4c0.2-2-1.2-3.8-3.2-4
	c-2-0.2-3.8,1.2-4,3.2c-1.7,15.1-6.2,29.6-13.1,42.8c-6.9,13.3-16.2,25.3-27.5,35.3c-1.5,1.3-1.6,3.6-0.3,5.1
	C521.1,561.9,523.4,562.1,524.9,560.7z"/>
<path class="st7" d="M688,588c2-0.4,3.2-2.3,2.8-4.3l-12.1-58.8c-0.4-2-2.3-3.2-4.3-2.8c-2,0.4-3.2,2.3-2.8,4.3l12.1,58.8
	C684.1,587.1,686,588.4,688,588z"/>
<g>
	
		<ellipse transform="matrix(0.3827 -0.9239 0.9239 0.3827 320.394 616.4772)" class="st8" cx="621.5" cy="68.5" rx="35.5" ry="35.5"/>
	<path class="st9" d="M624.7,79.5c3.2,0,5.9-2.7,5.9-5.9v-8.3c0-3.2-2.7-5.9-5.9-5.9h-17.1c-3.2,0-5.9,2.7-5.9,5.9v8.3
		c0,3.2,2.7,5.9,5.9,5.9H624.7z"/>
	<path class="st9" d="M636.6,77.2c0.7,0.4,1.4,0.7,2.1,1.1c1.1,0.5,2-0.6,2-2.5c0-2,0-3.9,0-5.9c0-2,0-3.9,0-5.9c0-1.9-0.9-3-2-2.5
		c-0.7,0.3-1.4,0.7-2.1,1.1c-0.7,0.4-1.4,0.7-2.1,1.1c-1.1,0.5-2,1.9-2,3c0,1.1,0,2.2,0,3.3c0,1.1,0,2.2,0,3.3c0,1.1,0.9,2.4,2,2.9
		C635.2,76.5,635.9,76.8,636.6,77.2z"/>
</g>
<g>
	<circle class="st10" cx="721.5" cy="68.5" r="35.5"/>
	<path class="st9" d="M710.3,64.3c-1-0.2-1.9,0.4-2.1,1.4c-0.5,2.8-0.2,5.6,0.8,8.1c1,2.5,2.8,4.7,5.2,6.3c1.8,1.2,3.8,2,5.9,2.2
		v4.4h-4.4c-0.9,0-1.7,0.8-1.7,1.7v0c0,0.9,0.8,1.7,1.7,1.7h12.4c0.9,0,1.7-0.8,1.7-1.7v0c0-0.9-0.8-1.7-1.7-1.7h-4.4v-4.4
		c2.1-0.3,4.2-1,6.1-2.3c2.4-1.6,4.1-3.8,5.2-6.3c1-2.5,1.4-5.3,0.8-8.1c-0.2-1-1.1-1.6-2.1-1.4c-1,0.2-1.6,1.1-1.4,2.1
		c0.4,2.1,0.2,4.2-0.6,6.1c-0.8,1.9-2.1,3.5-3.9,4.7c-1.8,1.2-3.8,1.8-5.9,1.8c-2,0-4.1-0.6-5.9-1.8c-1.8-1.2-3.1-2.8-3.9-4.7
		c-0.8-1.9-1-4-0.6-6.1C711.9,65.4,711.2,64.5,710.3,64.3z"/>
	<path class="st9" d="M721.8,75.6L721.8,75.6c3.7,0,6.7-3,6.7-6.7V54.3c0-3.7-3-6.7-6.7-6.7h0c-3.7,0-6.7,3-6.7,6.7v14.6
		C715.2,72.6,718.2,75.6,721.8,75.6z"/>
</g>
<defs>
	<filter id="Adobe_OpacityMaskFilter_1_" filterUnits="userSpaceOnUse" x="127.7" y="378.3" width="240.1" height="221.9">
		<feColorMatrix  type="matrix" values="1 0 0 0 0  0 1 0 0 0  0 0 1 0 0  0 0 0 1 0"/>
	</filter>
</defs>
<mask maskUnits="userSpaceOnUse" x="127.7" y="378.3" width="240.1" height="221.9" id="SVGID_3_">
	<g class="st11">
		
			<linearGradient id="SVGID_4_" gradientUnits="userSpaceOnUse" x1="-69.8049" y1="853.3768" x2="-215.2426" y2="1058.2164" gradientTransform="matrix(1 0 0 1 380.5067 -452.6949)">
			<stop  offset="0" style="stop-color:#000000"/>
			<stop  offset="1" style="stop-color:#FFFFFF"/>
		</linearGradient>
		<rect x="127.7" y="378.3" class="st12" width="240.1" height="221.9"/>
	</g>
</mask>
<path class="st13" d="M248.6,378.3C139.6,396.4,97.7,430,150.3,533.4c5,44.5,7.5,66.8,7.5,66.8c140,0,210.1,0,210.1,0
	c-35.6-8.1-66.4-30.3-85.3-61.5c-18.9-31.2-24.3-68.8-14.9-104.1C255,397.1,248.6,378.3,248.6,378.3z"/>
<defs>
	<filter id="Adobe_OpacityMaskFilter_2_" filterUnits="userSpaceOnUse" x="-0.3" y="447.1" width="125.7" height="153.1">
		<feColorMatrix  type="matrix" values="1 0 0 0 0  0 1 0 0 0  0 0 1 0 0  0 0 0 1 0"/>
	</filter>
</defs>
<mask maskUnits="userSpaceOnUse" x="-0.3" y="447.1" width="125.7" height="153.1" id="SVGID_5_">
	<g class="st14">
		
			<linearGradient id="SVGID_6_" gradientUnits="userSpaceOnUse" x1="-364.0668" y1="937.3654" x2="-223.2452" y2="999.6221" gradientTransform="matrix(1 0 0 1 338.3334 -452.6946)">
			<stop  offset="0" style="stop-color:#000000"/>
			<stop  offset="1" style="stop-color:#FFFFFF"/>
		</linearGradient>
		<rect x="-0.3" y="447.1" class="st15" width="125.7" height="153.1"/>
	</g>
</mask>
<path class="st16" d="M106.3,447.1C35.2,513-0.3,546-0.3,546c0,18.1,0,36.2,0,54.3c83.8-45.3,125.7-68,125.7-68
	C113.7,515.4,107.4,487,106.3,447.1z"/>
<path class="st7" d="M111.2,441.2c-2-0.4-3.9,0.9-4.3,2.9c-3.3,16.8-3.1,34,0.3,50.5c3.4,16.5,10.1,32.3,19.8,46.5
	c1.1,1.7,3.4,2.1,5.1,1c1.7-1.1,2.1-3.4,1-5.1c-9.2-13.4-15.4-28.3-18.7-43.8c-3.2-15.5-3.4-31.7-0.3-47.6
	C114.4,443.4,113.1,441.5,111.2,441.2z"/>
<path class="st9" d="M392,458.3c31.7-16.8,51.9-49.1,53.5-84.6c-5.6-2.8-11.4-4.9-17.2-7.3c-2.6-1.1-5.1-1.8-7.6-3.1
	c-20.5,6.8-42.3,10.5-65.1,10.5c-30.5,0-60-0.2-86-12.2c-3,1.3-5.1-6.1-8.1-5c-5.8,2.1-13,5.5-17.8,7.8
	c-1.6,34.6,14.8,67.8,43.6,87.7C318.3,473.7,358.7,476,392,458.3z"/>
<path class="st5" d="M348.3,334.6c-23.3-0.8-45.3-10.9-61.1-28c0,0-1.7,14.9-5.2,44.6c-0.4-0.3-7.2,1.6-20.5,5.5
	c-3.9,31,9.8,61.6,35.5,79.4c25.7,17.8,59.2,19.7,86.8,5c27.6-14.7,44.8-43.5,44.4-74.8c-11.7-6.4-17.5-9.7-17.5-9.7
	c0.2-30.6,0.3-45.9,0.3-45.9C394.2,326.8,371.6,335.4,348.3,334.6z"/>
<defs>
	<filter id="Adobe_OpacityMaskFilter_3_" filterUnits="userSpaceOnUse" x="298" y="327.4" width="130.4" height="121.6">
		<feColorMatrix  type="matrix" values="1 0 0 0 0  0 1 0 0 0  0 0 1 0 0  0 0 0 1 0"/>
	</filter>
</defs>
<mask maskUnits="userSpaceOnUse" x="298" y="327.4" width="130.4" height="121.6" id="SVGID_7_">
	<g class="st17">
		
			<linearGradient id="SVGID_8_" gradientUnits="userSpaceOnUse" x1="5.8908" y1="946.6027" x2="-102.5574" y2="870.1332" gradientTransform="matrix(1 0 0 1 436.5751 -502.4874)">
			<stop  offset="0" style="stop-color:#000000"/>
			<stop  offset="1" style="stop-color:#FFFFFF"/>
		</linearGradient>
		<rect x="298" y="327.4" class="st18" width="130.4" height="121.6"/>
	</g>
</mask>
<path class="st19" d="M298,348.2c43.1,67.2,64.6,100.8,64.6,100.8c38.7-8.5,66.2-43,65.8-82.6c-11.7-6.4-17.5-9.7-17.5-9.7
	c0.1-19.5,0.2-29.3,0.2-29.3C335.7,341.3,298,348.2,298,348.2z"/>
<defs>
	<filter id="Adobe_OpacityMaskFilter_4_" filterUnits="userSpaceOnUse" x="298" y="328.8" width="116.6" height="66.9">
		<feColorMatrix  type="matrix" values="1 0 0 0 0  0 1 0 0 0  0 0 1 0 0  0 0 0 1 0"/>
	</filter>
</defs>
<mask maskUnits="userSpaceOnUse" x="298" y="328.8" width="116.6" height="66.9" id="SVGID_9_">
	<g class="st20">
		
			<linearGradient id="SVGID_10_" gradientUnits="userSpaceOnUse" x1="7.8109" y1="901.9802" x2="-129.7613" y2="871.1859" gradientTransform="matrix(1 0 0 1 436.5751 -520.0659)">
			<stop  offset="0" style="stop-color:#000000"/>
			<stop  offset="1" style="stop-color:#FFFFFF"/>
		</linearGradient>
		<rect x="298" y="328.8" class="st21" width="116.6" height="66.9"/>
	</g>
</mask>
<path class="st22" d="M298,348.2c6.2,25.8,28.1,44.8,54.5,47.2c26.4,2.4,51.4-12.3,62.1-36.6c-2.5-1.4-3.8-2.1-3.8-2.1
	c0.1-18.6,0.2-28,0.2-28C335.7,341.7,298,348.2,298,348.2z"/>
<path class="st23" d="M431.5,303.6c11.2-2.5,21.4-16.5,22.6-31.3c1.2-14.7-6.9-24.6-18.1-22.1c-11.2,2.5-21.4,16.5-22.6,31.3
	C412.1,296.2,420.2,306.1,431.5,303.6z"/>
<path class="st24" d="M424,297.9c8.1-1.8,15.4-11.9,16.3-22.5c0.9-10.6-5-17.8-13.1-15.9c-8.1,1.8-15.4,11.9-16.3,22.5
	C410,292.6,415.9,299.8,424,297.9z"/>
<path class="st25" d="M422.4,289.7c4.4-1,8.4-6.5,8.9-12.3c0.5-5.8-2.7-9.7-7.1-8.7c-4.4,1-8.4,6.5-8.9,12.3
	C414.8,286.8,418,290.7,422.4,289.7z"/>
<path class="st23" d="M265.9,303.5c11.2,2.5,19.4-7.4,18.1-22.1c-1.2-14.7-11.3-28.7-22.6-31.3c-11.2-2.5-19.4,7.4-18.1,22.1
	C244.5,287,254.7,301,265.9,303.5z"/>
<path class="st24" d="M273.4,297.9c8.1,1.8,14-5.3,13.1-15.9c-0.9-10.6-8.2-20.7-16.3-22.5c-8.1-1.8-14,5.3-13.1,15.9
	C258,286,265.3,296.1,273.4,297.9z"/>
<path class="st25" d="M275,289.7c4.4,1,7.6-2.9,7.1-8.7c-0.5-5.8-4.4-11.3-8.9-12.3c-4.4-1-7.6,2.9-7.1,8.7
	C266.6,283.2,270.6,288.7,275,289.7z"/>
<path class="st23" d="M307.9,359.2c7.5,16,23.6,26.3,41.2,26.3c17.7,0,33.8-10.2,41.2-26.3c22.8-26.8,33.8-57.4,33.1-91.9
	c8.9-32.2-3.6-66.4-31.2-85.2c-27.6-18.8-64.1-17.9-90.7,2.2c-26.6,20.1-37.5,54.9-27,86.6C269.3,301.6,280.4,331.1,307.9,359.2z"/>
<defs>
	<filter id="Adobe_OpacityMaskFilter_5_" filterUnits="userSpaceOnUse" x="349.2" y="168.6" width="77.1" height="213.1">
		<feColorMatrix  type="matrix" values="1 0 0 0 0  0 1 0 0 0  0 0 1 0 0  0 0 0 1 0"/>
	</filter>
</defs>
<mask maskUnits="userSpaceOnUse" x="349.2" y="168.6" width="77.1" height="213.1" id="SVGID_11_">
	<g class="st26">
		
			<linearGradient id="SVGID_12_" gradientUnits="userSpaceOnUse" x1="-110.391" y1="824.6965" x2="-16.3682" y2="772.4008" gradientTransform="matrix(1 0 0 1 453.4279 -524.6521)">
			<stop  offset="0" style="stop-color:#000000"/>
			<stop  offset="1" style="stop-color:#FFFFFF"/>
		</linearGradient>
		<rect x="349.2" y="168.6" class="st27" width="77.1" height="213.1"/>
	</g>
</mask>
<path class="st28" d="M367.3,381.7c10-4.4,18.2-12.2,23-22.4c22.8-26.8,33.8-57.4,33.1-91.9c8.9-32.2-3.6-66.4-31.2-85.2
	c-13-8.9-28.1-13.4-43.1-13.5c39.6,29.3,62.9,78.4,56.8,130.9C402.3,331.7,388.1,360,367.3,381.7z"/>
<defs>
	<filter id="Adobe_OpacityMaskFilter_6_" filterUnits="userSpaceOnUse" x="276.1" y="181.3" width="96.7" height="193.3">
		<feColorMatrix  type="matrix" values="1 0 0 0 0  0 1 0 0 0  0 0 1 0 0  0 0 0 1 0"/>
	</filter>
</defs>
<mask maskUnits="userSpaceOnUse" x="276.1" y="181.3" width="96.7" height="193.3" id="SVGID_13_">
	<g class="st29">
		
			<linearGradient id="SVGID_14_" gradientUnits="userSpaceOnUse" x1="-32.8319" y1="855.3332" x2="-146.5035" y2="775.8876" gradientTransform="matrix(1 0 0 1 429.3556 -526.9833)">
			<stop  offset="0" style="stop-color:#000000"/>
			<stop  offset="1" style="stop-color:#FFFFFF"/>
		</linearGradient>
		<rect x="276.1" y="181.3" class="st30" width="96.7" height="193.3"/>
	</g>
</mask>
<path class="st31" d="M372.8,193.5c-73.3-30.4-104.9-3.9-94.9,79.6c-3.8,30.4,7.4,58.6,33.4,84.6c2.5,6.6,6.8,12.5,12.3,16.9
	c-4.8-8.9,16.6-14,1.6-39.3c-13.2-22.2-43-46.7-13.9-85.8C336.8,237.2,358.2,217.7,372.8,193.5z"/>
<path class="st32" d="M368.1,235.5c5.8-1.4,11.7-1.4,17.4-0.1c5.7,1.3,11,3.9,15.6,7.8c1.2,1,3,0.8,4-0.4c1-1.2,0.8-3-0.4-4
	c-5.3-4.4-11.4-7.4-17.9-8.9c-6.5-1.5-13.4-1.5-20,0.1c-1.5,0.4-2.5,1.9-2.1,3.4C365,234.9,366.6,235.9,368.1,235.5z"/>
<path class="st32" d="M298.4,243.2c4.6-3.8,9.9-6.4,15.6-7.8c5.7-1.3,11.6-1.3,17.4,0.1c1.5,0.4,3.1-0.6,3.4-2.1
	c0.4-1.5-0.6-3.1-2.1-3.4c-6.7-1.6-13.5-1.6-20-0.1c-6.5,1.5-12.7,4.5-17.9,8.9c-1.2,1-1.4,2.8-0.4,4
	C295.4,244,297.2,244.2,298.4,243.2z"/>
<path class="st33" d="M389,267.5c1.8,0,3.2-1.5,3.2-3.2l0-3.6c0-1.8-1.5-3.2-3.2-3.2h0c-1.8,0-3.2,1.5-3.2,3.2l0,3.6
	C385.7,266,387.2,267.5,389,267.5L389,267.5z"/>
<path class="st33" d="M314.2,267.5c1.8,0,3.2-1.5,3.2-3.2l0-3.6c0-1.8-1.5-3.2-3.2-3.2h0c-1.8,0-3.2,1.5-3.2,3.2l0,3.6
	C311,266,312.5,267.5,314.2,267.5L314.2,267.5z"/>
<path class="st9" d="M326.7,252.8c0-3.1-2.5-5.6-5.6-5.6c-3.1,0-5.6,2.5-5.6,5.6c0,3.1,2.5,5.6,5.6,5.6
	C324.2,258.4,326.7,255.9,326.7,252.8z"/>
<path class="st9" d="M403.3,252.8c0-3.1-2.5-5.6-5.6-5.6c-3.1,0-5.6,2.5-5.6,5.6c0,3.1,2.5,5.6,5.6,5.6
	C400.8,258.4,403.3,255.9,403.3,252.8z"/>
<path class="st34" d="M350.9,329.7c5.1,0,10.1-1,14.7-3c4.6-1.9,8.8-4.8,12.4-8.4c1.1-1.1,1.1-2.9-0.1-4c-1.1-1.1-2.9-1.1-4,0.1
	c-3,3.1-6.6,5.5-10.5,7.2c-3.9,1.6-8.2,2.5-12.5,2.5c-4.4,0-8.6-0.9-12.5-2.5c-3.9-1.7-7.5-4.1-10.5-7.2c-1.1-1.1-2.9-1.2-4-0.1
	c-1.1,1.1-1.1,2.9-0.1,4c3.6,3.7,7.8,6.5,12.4,8.5C340.8,328.6,345.8,329.7,350.9,329.7z"/>
<path class="st34" d="M350.9,338.3c2.4,0,4.7-0.5,6.8-1.4c2.1-0.9,4.1-2.2,5.7-3.9c0.5-0.5,0.5-1.4,0-1.9c-0.5-0.5-1.4-0.5-1.9,0
	c-1.4,1.4-3.1,2.6-4.9,3.3c-1.8,0.8-3.8,1.2-5.8,1.2c-2,0-4-0.4-5.8-1.2c-1.8-0.8-3.5-1.9-4.9-3.3c-0.5-0.5-1.3-0.5-1.9,0
	c-0.5,0.5-0.5,1.3,0,1.9c1.7,1.7,3.6,3,5.7,3.9C346.2,337.8,348.5,338.3,350.9,338.3z"/>
<defs>
	<filter id="Adobe_OpacityMaskFilter_7_" filterUnits="userSpaceOnUse" x="274.4" y="258.6" width="52.8" height="40.4">
		<feColorMatrix  type="matrix" values="1 0 0 0 0  0 1 0 0 0  0 0 1 0 0  0 0 0 1 0"/>
	</filter>
</defs>
<mask maskUnits="userSpaceOnUse" x="274.4" y="258.6" width="52.8" height="40.4" id="SVGID_15_">
	<g class="st35">
		
			<linearGradient id="SVGID_16_" gradientUnits="userSpaceOnUse" x1="-96.4323" y1="836.9067" x2="-159.1141" y2="824.5464" gradientTransform="matrix(1 0 0 1 428.8156 -551.8831)">
			<stop  offset="0" style="stop-color:#000000"/>
			<stop  offset="1" style="stop-color:#FFFFFF"/>
		</linearGradient>
		<rect x="274.4" y="258.6" class="st36" width="52.8" height="40.4"/>
	</g>
</mask>
<path class="st37" d="M299.9,298.6c10.1,1.8,20.4-1.7,27.3-9.2c-8.3,4-18,3.9-26.1-0.4c-8.2-4.2-13.8-12.1-15.3-21.2
	c-7.6-6.1-11.4-9.2-11.4-9.2s1.2,4.8,3.5,14.5c-0.3,2.5-0.5,5.1-0.6,7.6C281.3,290.1,289.8,296.8,299.9,298.6z"/>
<path class="st38" d="M429.4,257c11.7-27.7,14-94.1-19.4-104.7c-68.8-94.2-206.4,36.6-139.7,27.7c-20.1,26.4-12.1,62.2,4.3,91
	c2,3.9,5.9,2.1,4.9-1.4c-4.4-15.1-1.4-31.4,8.1-44c34.4-0.6,67.2-14.4,91.7-38.6c15.3,3.2,28.6,12.8,36.4,26.4
	c4.4,7.7,7.2,16.2,7.3,24.8c0.2,9.1-1.3,15.5-1.7,19.8C419.5,274.4,424.7,268.1,429.4,257z"/>
<defs>
	<filter id="Adobe_OpacityMaskFilter_8_" filterUnits="userSpaceOnUse" x="252.5" y="118" width="113.2" height="155.1">
		<feColorMatrix  type="matrix" values="1 0 0 0 0  0 1 0 0 0  0 0 1 0 0  0 0 0 1 0"/>
	</filter>
</defs>
<mask maskUnits="userSpaceOnUse" x="252.5" y="118" width="113.2" height="155.1" id="SVGID_17_">
	<g class="st39">
		
			<linearGradient id="SVGID_18_" gradientUnits="userSpaceOnUse" x1="-73.7627" y1="715.7321" x2="-139.8763" y2="784.3359" gradientTransform="matrix(1 0 0 1 421.5745 -560.4004)">
			<stop  offset="0" style="stop-color:#000000"/>
			<stop  offset="1" style="stop-color:#FFFFFF"/>
		</linearGradient>
		<rect x="252.5" y="118" class="st40" width="113.2" height="155.1"/>
	</g>
</mask>
<path class="st41" d="M365.6,120.6c-69-18.2-149.5,66.6-95.4,59.4c-20.1,26.4-12.1,62.2,4.3,91c2,3.9,5.9,2.1,4.9-1.4
	c-4.4-15.1-1.4-31.4,8.1-44c3-0.1,5.9-0.2,8.8-0.5c-4.4-18.2-3-38,5.6-56.3C314.3,142.2,338.7,125,365.6,120.6z"/>
<defs>
	<filter id="Adobe_OpacityMaskFilter_9_" filterUnits="userSpaceOnUse" x="275.3" y="272" width="2" height="1.1">
		<feColorMatrix  type="matrix" values="1 0 0 0 0  0 1 0 0 0  0 0 1 0 0  0 0 0 1 0"/>
	</filter>
</defs>
<mask maskUnits="userSpaceOnUse" x="275.3" y="272" width="2" height="1.1" id="SVGID_19_">
	<g class="st42">
		
			<linearGradient id="SVGID_20_" gradientUnits="userSpaceOnUse" x1="-70.6504" y1="754.2125" x2="0.626" y2="691.8039" gradientTransform="matrix(1 0 0 1 429.0817 -560.4018)">
			<stop  offset="0" style="stop-color:#000000"/>
			<stop  offset="1" style="stop-color:#FFFFFF"/>
		</linearGradient>
		<rect x="275.3" y="118.3" class="st43" width="162" height="154.8"/>
	</g>
</mask>
<path class="st44" d="M277.3,273.1c-0.7-0.4-1.4-0.7-2-1.1C275.9,272.8,276.6,273.1,277.3,273.1z"/>
<defs>
	<filter id="Adobe_OpacityMaskFilter_10_" filterUnits="userSpaceOnUse" x="352.4" y="118.3" width="84.8" height="149.7">
		<feColorMatrix  type="matrix" values="1 0 0 0 0  0 1 0 0 0  0 0 1 0 0  0 0 0 1 0"/>
	</filter>
</defs>
<mask maskUnits="userSpaceOnUse" x="352.4" y="118.3" width="84.8" height="149.7" id="SVGID_21_">
	<g class="st45">
		
			<linearGradient id="SVGID_22_" gradientUnits="userSpaceOnUse" x1="-70.6504" y1="754.2125" x2="0.626" y2="691.8039" gradientTransform="matrix(1 0 0 1 429.0817 -560.4018)">
			<stop  offset="0" style="stop-color:#000000"/>
			<stop  offset="1" style="stop-color:#FFFFFF"/>
		</linearGradient>
		<rect x="275.3" y="118.3" class="st46" width="162" height="154.8"/>
	</g>
</mask>
<path class="st47" d="M429.4,257c11.7-27.7,14-94.1-19.4-104.7c-16.5-22.6-36.9-32.2-57.5-33.9c32.8,13.3,54.7,46.1,53.2,82.5
	c3.9,3.7,7.2,7.9,10,12.6c4.4,7.7,7.2,16.2,7.3,24.8c0.2,9.1-1.3,15.5-1.7,19.8C419.5,274.4,424.7,268.1,429.4,257z"/>
<path class="st48" d="M369.5,285.3c5.1,5.1,12.2,8.3,20,8.3c7.8,0,14.9-3.2,20-8.3c4.8-4.8,7.9-11.4,8.3-18.7l18.8-16.2
	c0.9-0.8,1-2.1,0.2-3c-0.8-0.9-2.1-1-3-0.2l-16.3,14.1c-0.9-6.2-3.8-11.7-8-16c-5.1-5.1-12.2-8.3-20-8.3c-7.8,0-14.9,3.2-20,8.3
	c-3.2,3.2-5.6,7.2-7,11.6c-0.9-0.9-1.8-1.6-2.9-2.2c-2.5-1.5-5.4-2.4-8.4-2.4c-3,0-5.9,0.9-8.4,2.4c-1.2,0.7-2.3,1.6-3.2,2.6
	c-1.4-4.6-3.8-8.7-7.1-12c-5.1-5.1-12.2-8.3-20-8.3c-7.8,0-14.9,3.2-20,8.3c-4.8,4.8-7.9,11.2-8.3,18.4l-16.6-14.3
	c-0.9-0.8-2.2-0.7-3,0.2c-0.8,0.9-0.7,2.2,0.2,3l19.5,16.9c0,0,0.1,0.1,0.1,0.1c0.9,6.1,3.8,11.6,8,15.8c5.1,5.1,12.2,8.3,20,8.3
	c7.8,0,14.9-3.2,20-8.3c5.1-5.1,8.3-12.2,8.3-20c0-0.8,0-1.5-0.1-2.3l0.1,0c1-2,2.5-3.6,4.4-4.7c1.8-1.1,3.9-1.7,6.2-1.7
	c2.2,0,4.4,0.6,6.2,1.7c1.6,1,3,2.4,4,4.1c-0.1,1-0.1,1.9-0.1,2.9C361.2,273.1,364.4,280.2,369.5,285.3z M372.5,248.2
	c4.4-4.4,10.4-7,17-7c6.6,0,12.7,2.7,17,7.1c4.4,4.4,7,10.4,7,17v0c0,0.2,0,0.4,0,0.6c-0.2,6.4-2.8,12.2-7,16.4
	c-4.4,4.4-10.4,7-17,7c-6.6,0-12.7-2.7-17-7.1c-4.4-4.4-7-10.4-7-17C365.5,258.6,368.2,252.6,372.5,248.2z M329.3,282.3
	c-4.4,4.4-10.4,7-17,7c-6.6,0-12.7-2.7-17-7.1c-4.4-4.4-7-10.4-7-17c0-6.6,2.7-12.7,7.1-17c4.4-4.4,10.4-7,17-7
	c6.6,0,12.7,2.7,17,7.1c4.4,4.4,7,10.4,7,17C336.4,271.9,333.7,277.9,329.3,282.3z"/>
<path class="st49" d="M342.8,299.6c1.1,3.5,4.2,6.1,7.8,6.1c3.6,0,6.7-2.5,7.8-6.1c1.2,0.6,2.7,0.7,4.2,0.4
	c4.6-0.9,8.3-5.7,8.3-10.7c0-5-3.7-8.3-8.3-7.3c-0.5,0.1-0.9,0.2-1.3,0.4l-0.7-4c-0.7-4.1-1.3-8.1-2-12.2c-0.3-1.7-1.3-3.2-2.6-4.3
	c-1.3-1.1-2.8-1.8-4.5-1.8c-1.7,0-3.2,0.7-4.5,1.8c-1.3,1.1-2.3,2.6-2.6,4.3c-0.7,4.1-1.3,8.1-2,12.2l-0.8,4.9c-0.9-0.6-2-1-3-1.2
	c-4.6-0.9-8.3,2.4-8.3,7.3c0,5,3.7,9.8,8.3,10.7C340.2,300.3,341.6,300.2,342.8,299.6z"/>
</svg>
