<?xml version="1.0" encoding="utf-8"?>
<!-- Generator: Adobe Illustrator 25.2.0, SVG Export Plug-In . SVG Version: 6.00 Build 0)  -->
<svg version="1.1" id="Layer_1" xmlns="http://www.w3.org/2000/svg" xmlns:xlink="http://www.w3.org/1999/xlink" x="0px" y="0px"
	 viewBox="0 0 860.8 508.2" style="enable-background:new 0 0 860.8 508.2;" xml:space="preserve">
<style type="text/css">
	.st0{fill:#3B9999;}
	.st1{fill:#004545;}
	.st2{fill-rule:evenodd;clip-rule:evenodd;fill:#242D44;}
	.st3{fill-rule:evenodd;clip-rule:evenodd;fill:#384259;}
	.st4{fill-rule:evenodd;clip-rule:evenodd;fill:#576277;}
	.st5{fill-rule:evenodd;clip-rule:evenodd;fill:#293149;}
	.st6{fill-rule:evenodd;clip-rule:evenodd;fill:#7703FC;}
	.st7{fill-rule:evenodd;clip-rule:evenodd;fill:#1B223A;}
	.st8{fill-rule:evenodd;clip-rule:evenodd;fill:#6A17E2;}
	.st9{fill-rule:evenodd;clip-rule:evenodd;fill:#4F02BC;}
	.st10{fill-rule:evenodd;clip-rule:evenodd;fill:#260563;}
	.st11{fill:#FFFFFF;}
	.st12{fill-rule:evenodd;clip-rule:evenodd;fill:#6F3AD1;}
	.st13{fill-rule:evenodd;clip-rule:evenodd;fill:#FFFFFF;}
	.st14{fill-rule:evenodd;clip-rule:evenodd;fill:#FFA340;}
	.st15{fill-rule:evenodd;clip-rule:evenodd;fill:#FC4C00;}
	.st16{fill-rule:evenodd;clip-rule:evenodd;fill:#FFAF59;}
	.st17{fill-rule:evenodd;clip-rule:evenodd;fill:#FF5D17;}
	.st18{fill-rule:evenodd;clip-rule:evenodd;fill:#DE2104;}
	.st19{fill-rule:evenodd;clip-rule:evenodd;fill:#63220A;}
	.st20{fill-rule:evenodd;clip-rule:evenodd;fill:#451301;}
	.st21{fill-rule:evenodd;clip-rule:evenodd;fill:#9E5116;}
	.st22{fill-rule:evenodd;clip-rule:evenodd;fill:#662811;}
	.st23{fill:#662811;}
	.st24{fill-rule:evenodd;clip-rule:evenodd;}
	.st25{fill-rule:evenodd;clip-rule:evenodd;fill:#F24900;}
	.st26{fill-rule:evenodd;clip-rule:evenodd;fill:#FFCC85;}
	.st27{fill:#FC4C00;}
	.st28{fill:#3E0499;}
	.st29{fill-rule:evenodd;clip-rule:evenodd;fill:#FFD28F;}
	.st30{fill-rule:evenodd;clip-rule:evenodd;fill:#AD91ED;}
	.st31{fill-rule:evenodd;clip-rule:evenodd;fill:#AB8CF2;}
	.st32{fill-rule:evenodd;clip-rule:evenodd;fill:#293149;stroke:#3E4654;stroke-width:1;stroke-miterlimit:10.0001;}
	.st33{fill-rule:evenodd;clip-rule:evenodd;fill:#004545;}
	.st34{fill-rule:evenodd;clip-rule:evenodd;fill:#217373;}
	.st35{fill-rule:evenodd;clip-rule:evenodd;fill:#3B9999;}
	.st36{fill-rule:evenodd;clip-rule:evenodd;fill:#003333;}
	.st37{fill-rule:evenodd;clip-rule:evenodd;fill:#916CE6;}
	.st38{fill:#916CE6;}
	.st39{fill-rule:evenodd;clip-rule:evenodd;fill:#CCCCCC;}
	.st40{fill-rule:evenodd;clip-rule:evenodd;fill:#303747;}
	.st41{fill-rule:evenodd;clip-rule:evenodd;fill:#337A7A;}
</style>
<g>
	<path class="st0" d="M166.9,280.2c3.4-5.9,5.7-11.9,6.7-16.6s0.8-8.3-1.1-9.6c-1.9-1.3-5.1-0.2-8.9,2.5c-3.8,2.7-8.3,7.1-12.2,12.7
		c-4,5.5-6.7,11.2-7.7,15.9c-1,4.8-0.4,8.6,2,10.3c2.4,1.7,6.1,1,9.9-1.8"/>
	<path class="st0" d="M155.7,293.5c3.8-2.7,7.8-7.5,11.2-13.4"/>
	<path class="st0" d="M111.8,197.6c-1.8-0.2-3.7,1.8-5.6,5.1c-1.8,3.3-3.6,8-4.6,13.2s-1.1,10.1-0.2,13.6c0.8,3.6,2.6,5.9,4.9,6.1
		c2.3,0.2,4.7-1.7,6.5-5s3.1-8,3.6-13.3s0.1-10.1-0.7-13.7C114.9,200,113.6,197.7,111.8,197.6z"/>
	<path class="st0" d="M153.2,234c-1.8-1-4.6,0.2-7.7,3c-3.1,2.8-6.5,7.1-9.3,12.3c-2.8,5.3-4.5,10.5-4.8,14.8
		c-0.3,4.3,0.8,7.7,3.2,9s5.5,0.3,8.6-2.5s6-7.3,8.3-12.9s3.6-11,3.9-15.3C155.7,238.2,155,235,153.2,234z"/>
	<path class="st0" d="M131.1,213.9c-1.9-0.6-4.1,1.2-6.4,4.5s-4.6,8-6.2,13.6c-1.6,5.5-2.2,10.8-1.7,14.9c0.5,4.1,2.1,7,4.5,7.7
		s5.1-0.9,7.4-4.2s4.2-8.2,5.3-13.9s1.2-11.1,0.7-15.2C134.2,217.3,133,214.5,131.1,213.9z"/>
	<path class="st0" d="M49.5,222.9c-0.2,1.6,1.6,3.3,4.7,4.7c3.1,1.4,7.3,2.7,12.2,3.3c4.8,0.6,9.3,0.3,12.7-0.7
		c3.3-1,5.5-2.8,5.8-4.9c0.2-2.1-1.5-4.1-4.5-5.6c-3-1.4-7.4-2.3-12.3-2.4c-4.9-0.1-9.4,0.6-12.8,1.6
		C51.9,219.9,49.7,221.3,49.5,222.9z"/>
	<path class="st0" d="M72.5,213.4c2.6,1.4,5,1.6,6.4,0.5s1.6-3.4,0.6-6.1c-1-2.7-3.1-5.8-6-8.8s-6-5.3-8.6-6.7s-4.7-1.8-5.8-1
		c-1.1,0.9-1,2.9,0,5.6c1,2.7,2.8,6,5.4,9.2C67,209.5,69.9,212,72.5,213.4z"/>
	<path class="st0" d="M93.2,185c-1.7-0.1-3.3,1.9-4.8,5.1c-1.5,3.3-2.7,7.8-3.3,12.9c-0.6,5.1-0.3,9.7,0.7,13.1c1,3.4,2.8,5.6,5,5.7
		c2.1,0.1,4.2-1.8,5.7-5s2.3-7.8,2.4-12.9c0.1-5.1-0.6-9.8-1.6-13.2C96.2,187.3,94.8,185.1,93.2,185z"/>
	<path class="st0" d="M95.7,312.2c4.6,1.1,10.8,1.6,17.6,1c6.8-0.6,12.8-2.3,17.1-4.6c4.3-2.3,6.8-5.4,6.5-8.3
		c-0.3-3-3.2-5.2-7.8-6.3c-4.6-1.1-10.7-1-17.5,0.2c-6.7,1.3-12.7,3.4-17,5.8c-4.3,2.3-6.8,4.8-6.6,7.1
		C88.2,309.4,91.1,311.1,95.7,312.2z"/>
	<path class="st0" d="M86.7,288.7c4.2,1,9.9,1.5,16.1,0.9s11.8-2.1,15.7-4.2c3.9-2.1,6.2-4.9,6-7.6s-3-4.8-7.2-5.8s-9.9-1-16,0.2
		c-6.2,1.2-11.6,3.2-15.6,5.3c-3.9,2.1-6.3,4.4-6.1,6.5S82.5,287.6,86.7,288.7z"/>
	<path class="st1" d="M87.9,221.7c-0.6-0.6-1.5-0.5-2.1,0.1s-0.5,1.5,0.1,2.1c27.1,25.2,47.7,55.8,60.7,89.5
		c13.1,33.6,18.6,70.1,15.6,107c-0.1,0.8,0.5,1.5,1.4,1.6c0.8,0.1,1.5-0.5,1.6-1.4c3-37.3-2.6-74.3-15.8-108.3
		C136.1,278.3,115.3,247.2,87.9,221.7z"/>
	<path class="st0" d="M77.3,268c3.9,0.9,9.2,1.3,14.9,0.8c5.7-0.5,10.9-1.9,14.5-3.9s5.7-4.5,5.5-7s-2.7-4.4-6.6-5.4
		c-3.9-0.9-9.1-0.9-14.8,0.2c-5.7,1.1-10.8,2.9-14.4,4.9c-3.6,2-5.8,4.1-5.6,6C70.9,265.6,73.4,267.1,77.3,268z"/>
	<path class="st0" d="M79.8,249.7c5.3-0.2,10.1-1.3,13.5-3s5.5-4,5.4-6.3s-2.3-4.2-5.9-5.2c-3.5-1-8.4-1.2-13.6-0.4
		c-5.3,0.8-10,2.3-13.4,3.9c-3.4,1.7-5.5,3.5-5.4,5.3s2.3,3.2,5.8,4.2C69.6,249.4,74.5,250,79.8,249.7z"/>
	<path class="st2" d="M542.5,281.8c1.1,0,2-0.9,2-2V41.4c0-1.1-0.9-2-2-2H176.3c-1.1,0-2,0.9-2,2v238.4c0,1.1,0.9,2,2,2H542.5z"/>
	
		<rect x="196.4" y="155" transform="matrix(0.9994 -3.457570e-02 3.457570e-02 0.9994 -6.7881 9.0665)" class="st3" width="124.7" height="91.6"/>
	
		<rect x="195.4" y="171.8" transform="matrix(0.9994 -3.457617e-02 3.457617e-02 0.9994 -5.8016 9.015)" class="st4" width="124.7" height="0.9"/>
	
		<rect x="195.6" y="178.6" transform="matrix(0.9994 -3.457664e-02 3.457664e-02 0.9994 -6.0368 9.0261)" class="st4" width="124.7" height="0.9"/>
	
		<rect x="195.9" y="185.6" transform="matrix(0.9994 -3.457910e-02 3.457910e-02 0.9994 -6.279 9.0413)" class="st4" width="124.7" height="0.9"/>
	
		<rect x="196.1" y="192.4" transform="matrix(0.9994 -3.457666e-02 3.457666e-02 0.9994 -6.5136 9.0516)" class="st4" width="124.7" height="0.9"/>
	
		<rect x="196.4" y="199" transform="matrix(0.9994 -3.457711e-02 3.457711e-02 0.9994 -6.7416 9.0661)" class="st4" width="124.7" height="0.9"/>
	
		<rect x="196.6" y="205.8" transform="matrix(0.9994 -3.457912e-02 3.457912e-02 0.9994 -6.9771 9.0776)" class="st4" width="124.7" height="0.9"/>
	
		<rect x="196.8" y="212.8" transform="matrix(0.9994 -3.457657e-02 3.457657e-02 0.9994 -7.2185 9.088)" class="st4" width="124.7" height="0.9"/>
	
		<rect x="197.1" y="219.6" transform="matrix(0.9994 -3.457617e-02 3.457617e-02 0.9994 -7.4533 9.1023)" class="st4" width="124.7" height="0.9"/>
	
		<rect x="197.3" y="226.5" transform="matrix(0.9994 -3.457715e-02 3.457715e-02 0.9994 -7.692 9.1136)" class="st4" width="124.7" height="0.9"/>
	
		<rect x="197.5" y="233.3" transform="matrix(0.9994 -3.457715e-02 3.457715e-02 0.9994 -7.9271 9.1246)" class="st4" width="124.7" height="0.9"/>
	
		<rect x="197.8" y="240.3" transform="matrix(0.9994 -3.457812e-02 3.457812e-02 0.9994 -8.1691 9.1394)" class="st4" width="124.7" height="0.9"/>
	<path class="st5" d="M686.4,111.4c-2,0-3.6,1.6-3.6,3.6v0.8l-44.5-38.1l-2.6,3l47,40.2V474c0,0.3,0,0.5,0,0.5
		c4.7-1.1,7.1-1.7,7.1-1.7V127l36.1,30.9c-2.2,2.9-1.8,7.1,1,9.4l14.8,12.7c2.9,2.5,7.3,2.1,9.8-0.8l2-2.3c2.5-2.9,2.1-7.3-0.8-9.8
		L738,154.6c-2.8-2.4-6.9-2.2-9.4,0.4l-38.7-33.1V115C689.9,113,688.3,111.4,686.4,111.4z"/>
	<path class="st6" d="M693.9,132.1v-15.8c0-4.1-3.4-7.5-7.5-7.5s-7.5,3.4-7.5,7.5v15.8c0,4.1,3.4,7.5,7.5,7.5
		S693.9,136.3,693.9,132.1z"/>
	<path class="st7" d="M656.6,28.8L656.6,28.8c-1.7-0.9-3.9-0.2-4.8,1.5l-9.5,18.2c-6.8-1.7-14.2,1.4-17.6,7.9l-11.1,21.2
		c-2-0.2-4.1-0.2-6.2-0.1c-15,1-28.2,10.2-34.2,24c21.9,15.4,45.8,27.9,70.9,37.2c7.9-12.8,8.1-28.9,0.3-41.8
		c-1-1.7-2.1-3.2-3.3-4.7l11.2-21.4c3.4-6.5,1.7-14.5-3.7-19.1l9.5-18.1C659,31.9,658.3,29.7,656.6,28.8z"/>
	<path class="st6" d="M638,145.8c2.2,1.2,4.9,0.3,6.1-1.9l0.3-0.5c1.2-2.2,0.3-4.9-1.9-6.1l-67.7-35.5c-2.2-1.2-4.9-0.3-6.1,1.9
		l-0.3,0.5c-1.2,2.2-0.3,4.9,1.9,6.1L638,145.8z"/>
	<path class="st8" d="M404,192.7c-17.7,2.5-37.6,4.5-53.7,9.2c-11.8,3.4-19.3,7.9-25.4,13.9c-21.5,21.2-46.9,74.1-60.8,103.4
		c-4.3,3.6-7.9,7.6-10.7,12c-5.6,9-8.5,23.7-7.3,37.6c1.6,17.9,7.4,28.3,16.7,32.1c22.2,9.2,54.4-15.9,60.6-36.9l19-27.4
		c2,40.7,3.3,62.7,3.3,62.7c120.3-0.1,184.3-0.6,182.7,0.4c9.7,12.5,20.1,15.5,29.8,12.9c27.4-7.4,46.6-53.6,33.5-80
		c-2.2-23.9-11.2-96.4-25.2-114c-4.4-5.5-10.4-10.3-18.9-14c-3.8-1.6-8.6-3.7-15.4-5.6c0,0-7.4,4.6-25.5,2
		C521.3,194.5,487.1,191.7,404,192.7z"/>
	<path class="st9" d="M509.9,324.6l-2.8-29.2l-7.6-61l-3.4-21.8c0.1-0.1-0.7-0.1-2.3-0.2c-2.9,15.8-12.3,29.5-26,37.9
		c-6.2,11.4-6.6,25.1-1.2,36.9c11.8,25.9,33,14.7,42.9,48.2c0.1,0.4,0.2,0.8,0.3,1.2c0-2.3,0.1-4.4,0.3-6.4L509.9,324.6z"/>
	<path class="st10" d="M509.8,341.5c0.2-0.3,0.5-0.6,0.8-0.8c-0.2-1.3-0.5-2.6-0.9-4C509.7,338.3,509.7,339.9,509.8,341.5z"/>
	<path class="st9" d="M403,199.1c-45.3,3.6-68,17.1-68,40.5c11.5,18.5,16.2,33.5,13.9,45.1c2.1,76,3.1,114.6,3.1,114.6
		c90.7-0.1,136-0.2,136-0.2c24.1-74.9-63-59.8-77.9-112.5c-5.4-19.2-0.1-39.8,14-53.9C424,232.7,417,221.5,403,199.1z"/>
	<path class="st11" d="M354.4,320.6c-0.7,0.7-1.9,0.7-2.6,0l-9.5-9.8c0,1,0,2-0.3,3l8.1,8.4c0.8,0.8,1.9,1.2,2.9,1.3
		c1.1,0,2.1-0.4,3-1.2l25.6-25l0.1-0.1l0.1,0.1l25,25.6c0.8,0.8,1.9,1.2,2.9,1.3c1.1,0,2.1-0.4,3-1.2l25.6-25l25,25.6
		c0.8,0.8,1.9,1.2,2.9,1.3c1.1,0,2.1-0.4,3-1.2l25.6-25c0.1-0.1,0.1-0.1,0.2-0.2c0.1,0.1,0.1,0.1,0.2,0.2l12.7,13
		c0.1-0.9,0.3-1.8,0.6-2.7l-11.6-11.9c-0.7-0.7-0.7-1.9,0-2.6l9.7-9.4c-0.2-0.9-0.3-1.8-0.3-2.7v-0.2l-10.9,10.7
		c-0.1,0.1-0.1,0.1-0.2,0.2c-0.1-0.1-0.1-0.1-0.2-0.2l-25-25.6c-0.8-0.8-1.9-1.2-2.9-1.3c-1.1,0-2.1,0.4-3,1.2l-25.6,25l-25-25.6
		c-0.8-0.8-1.9-1.2-2.9-1.3c-1.1,0-2.1,0.4-3,1.2l-25.6,25l-0.1,0.1l-0.1-0.1l-25-25.6l0,0c-0.8-0.8-1.9-1.2-2.9-1.3
		c-1.1,0-2.1,0.4-3,1.2l-2,2c0.3,0.9,0.5,1.8,0.5,2.7l3.1-3.1c0.7-0.7,1.9-0.7,2.6,0l25,25.6c0.7,0.7,0.7,1.9,0,2.6L354.4,320.6z
		 M439.6,294.4c0.1-0.3,0.2-0.5,0.4-0.7l25.6-25c0.7-0.7,1.9-0.7,2.6,0l25,25.6c0.7,0.7,0.7,1.9,0,2.6l-25.6,25
		c-0.7,0.7-1.9,0.7-2.6,0l-25-25.6c-0.2-0.2-0.3-0.4-0.4-0.7C439.6,295.3,439.6,294.9,439.6,294.4z M383.6,293l25.6-25
		c0.7-0.7,1.9-0.7,2.6,0l25,25.6c0.2,0.2,0.3,0.4,0.4,0.7c-0.1,0.4-0.1,0.8,0,1.2c-0.1,0.3-0.2,0.5-0.4,0.7l-25.6,25
		c-0.7,0.7-1.9,0.7-2.6,0l-25-25.6C382.8,294.9,382.8,293.7,383.6,293z"/>
	<path class="st10" d="M510.5,351.6c0.1,0.8,0.2,1.6,0.3,2.3c0.1-0.6,0.2-1.2,0.2-1.8C510.8,352,510.6,351.8,510.5,351.6z"/>
	<path class="st10" d="M503.9,399.1c12.9,0.1,20.4,0.2,22.6,0.3c-7.3-15.1-12.1-27.5-14.6-37.1c-0.5-2.9-0.9-5.7-1.2-8.4
		C507.9,374.3,491.8,387.2,503.9,399.1z"/>
	<path class="st6" d="M560.2,257.2c5.7,19.1,20.2,16.9,25.7,30.2c-1.2-7.7-2.6-15.7-4.3-23.9c-2.3-10.9-4.4-19.2-6.1-24.8
		c-1.6-5.8-4.1-11.8-7.6-18.1c-4.2-6.3-10.5-11.4-18.9-15.3c-3.4-1.5-7-3-10.9-4.3c-2.3,3.1-1.8,8.5,1.6,16.3c0,0,1,1.4,3.1,4.2
		C542.9,221.5,548.7,233.4,560.2,257.2z"/>
	<path class="st6" d="M565.8,409.5c8.5-5,15.6-12.6,21-22.7c4.1-7.6,6.8-15.6,8.3-24c1.7-11.9,0.7-21.6-2.8-28.9
		c0,0-13.2-29-39.5-87c19,43-4.6,54.1,2,79.2c5.5,20.8,31.3,24.3,28.1,54.6C581.6,392.4,575.4,402.9,565.8,409.5z"/>
	<path class="st12" d="M552.8,246.9c-0.4-1-0.9-1.9-1.3-2.9C551.9,245,552.3,246,552.8,246.9z"/>
	<path class="st6" d="M281.3,401.8c8.9-2.6,16.1-6.2,21.6-10.7c5.4-3.9,10.5-9.3,15.3-16.2c2.1-3.2,3.7-6.4,4.8-9.5
		c2.9-4.8,3.5-10.7,2-17.8l20.1-60.3c1.3-9.2-1.5-8.9-8.3,0.7c-9.2,1.5-17.1,7.3-21.4,15.5c-11.1,21.5,12.2,36.5-1.6,54.7
		C303.4,372,278.4,375,281.3,401.8z"/>
	<path class="st9" d="M526.5,225.9c0,0-7.3,0.1-21.9,0.2c0,0,4.3,33.7,12.8,101.2c-3.4,15.1-1.2,32,6.5,50.7
		c4.4,10.7,16.5,36,31.2,28.7c9.3-4.7,13-22.6,7.1-33.9c-8.1-15.5-27.7-29.7-29.5-47.8C529.3,292.2,566.1,259.8,526.5,225.9z"/>
	<path class="st13" d="M467.8,250.4c16.6-5.9,27.6-21,28.4-38.9c-2.2-4.6-16.6-15.2-43.1-31.7c-8.5,4.5-16.2,11-25.6,12.9
		c-4.6,0.9-10.6-0.8-15.4-1.4c-2.9-0.3-6.4,0.5-8.1,1.3c-3.9,16.4,1.6,34.3,14.6,46.5C432.1,251.9,451.2,256.3,467.8,250.4z"/>
	<path class="st14" d="M466,242.3c14.1-5,23.5-17.9,24.2-33.2c-2.4-5.1-22.3-18.7-59.5-40.8c0,0-1.4,7.2-4.2,21.7
		c0,0-4.8,0.5-14.4,1.4c-4.2,14.4,0.4,30.5,12,41.4C435.5,243.6,451.8,247.3,466,242.3z"/>
	<path class="st15" d="M452.2,244.5c13.3,0.5,25.8-6.3,32.7-17.7c3-5,4.7-10.5,5.2-16.3c-36.3-7.9-56.3-13.9-60-18
		c2.4,31.4,3.6,47.1,3.6,47.1c1.7,0.8,2.6,1.3,2.6,1.3C441.2,243.1,446.7,244.4,452.2,244.5z"/>
	
		<ellipse transform="matrix(0.998 -6.248976e-02 6.248976e-02 0.998 -9.1198 26.9868)" class="st16" cx="426.9" cy="159.3" rx="12" ry="15.8"/>
	<path class="st17" d="M430.1,169.8c3.7-0.4,6.4-4.7,6-9.6c-0.4-4.9-3.8-8.6-7.5-8.2c-3.7,0.4-6.4,4.7-6,9.6
		C423,166.5,426.4,170.2,430.1,169.8z"/>
	<path class="st18" d="M431.8,167.4c2.3-0.2,4-3,3.8-6c-0.3-3.1-2.4-5.4-4.7-5.2c-2.3,0.2-4,3-3.8,6
		C427.3,165.3,429.4,167.6,431.8,167.4z"/>
	<path class="st16" d="M451.3,229.2c8.2,2.6,17.2,0.5,23.4-5.5c16.3-10.5,27.6-27.2,31.3-46.3c9.8-13.9,9.5-32.5-0.8-46
		c-10.3-13.5-28-18.6-44.1-13.1c-14.7,5-18.4,16.7-25.8,38.1c-7.7,17.5-7.7,37.4-0.1,54.9C436.9,219.8,443.1,226.6,451.3,229.2z"/>
	<path class="st17" d="M484.4,212.5c3.3-3.1,5-4.6,5-4.6c-1.4-11.8,0.2-19,4.6-21.5c0.1-4.2,2.2-7.1,6.5-9c-0.3-1.9,1.3-4.2,4.5-6.8
		c-4.7,0-9,2.6-11,6.8c-2,0.3-3.7,1.4-4.9,3c-1.1,1.6-1.5,3.7-1.1,5.6C480.3,192.8,478.7,204.1,484.4,212.5z"/>
	<path class="st17" d="M452.8,152.1c5.6-5.1,13.6-6.7,20.7-4c-19.9-25.6-31.3-25.3-34,0.9c-8.7,21.5-9.2,41.5-1.6,59.8
		C462.5,188.3,435.3,168.1,452.8,152.1z"/>
	<path class="st19" d="M437.5,128.4c-2.5,5.7-4,11.6-4.8,17.6c2.6,2.8,3.6,6.7,2.6,10.5c8.2-15.1,12.2-22.6,12.2-22.6
		c5.2,7.5,13.3,12.5,22.3,13.9s18.2-0.9,25.5-6.3c-1.5,1.4-2.7,2.8-3.6,4c-7,9.8,7.9,11.2,16,5.4c-1.2,4.1-0.4,8.5,2.1,11.9
		c-1,5.1-1.9,10.6-3.9,14.7c2.2-1.4,4.3-2.1,6.8-1.9c4-6,7.5-12,10-18.7c5.3-5.7,7.6-13.5,6.2-21.1c-1.4-7.6-6.4-14.1-13.4-17.5
		c7.2-19.7-19.6-31.2-15.2-19.3C458.8,73.6,417.3,128.9,437.5,128.4z"/>
	<path class="st20" d="M437.5,128.4c-2.5,5.7-4,11.6-4.8,17.6c2.6,2.8,3.6,6.7,2.6,10.5l12.2-22.6c7.5,10.7,20.6,16,33.4,13.8
		c-5.3-5.7-9.3-12.5-11.6-20.1l-0.1-0.4c-3.9-11.6-3.4-23.5,0.4-34.2C441.7,98.2,422.5,128.8,437.5,128.4z"/>
	<path class="st21" d="M499.9,96.8c7.9,9.1,12.6,21,12.6,33.9c0,8.2-1.9,16-5.3,22.9c-0.2,3.2,0.7,6.4,2.7,9.1
		c-1,5.1-1.9,10.6-3.9,14.7c2.2-1.4,4.3-2.1,6.8-1.9c4-6,7.5-12,10-18.7c5.3-5.7,7.6-13.5,6.2-21.1c-1.4-7.6-6.4-14.1-13.4-17.5
		C522.3,99.7,499.2,88.4,499.9,96.8z"/>
	<path class="st18" d="M436.9,155.7c-2,6.1-3.4,12.3-4.1,18.7c0.3,4.6,2.8,8.7,6.8,11s8.8,2.4,12.9,0.4c-5.1-0.4-9.7-3.4-12-8
		s-2.1-10,0.6-14.4C441.6,162.1,440.2,159.5,436.9,155.7z"/>
	<path class="st22" d="M459.9,237.9c7.6-2.2,13.3-8.6,14.4-16.5c-6.1,5.1-14.4,6.8-22,4.4c-7.6-2.4-13.5-8.5-15.6-16.1
		c-3.6,7.1-2.6,15.6,2.4,21.7C444.1,237.5,452.3,240.1,459.9,237.9z"/>
	<path class="st23" d="M491,167c2.5,1.6,4.7,3.7,6.2,6.3c0.4,0.7,1.3,0.9,1.9,0.5c0.7-0.4,0.9-1.3,0.5-1.9c-1.8-3-4.3-5.5-7.2-7.3
		c-2.9-1.8-6.2-2.9-9.7-3.2c-0.8-0.1-1.5,0.5-1.5,1.3c-0.1,0.8,0.5,1.5,1.3,1.5C485.6,164.5,488.5,165.5,491,167z"/>
	<path class="st23" d="M448.1,157.2c3.2-1.3,6.5-1.7,9.8-1.4s6.5,1.5,9.4,3.3c0.7,0.4,1.5,0.2,2-0.4c0.4-0.7,0.2-1.5-0.4-2
		c-3.2-2.1-6.9-3.4-10.6-3.8c-3.7-0.4-7.6,0.1-11.2,1.6c-0.7,0.3-1.1,1.1-0.8,1.8C446.5,157.2,447.3,157.5,448.1,157.2z"/>
	<path class="st24" d="M456,169c0-1.1-0.9-2-2-2s-2,0.9-2,2s0.9,2,2,2S456,170.1,456,169z"/>
	<path class="st24" d="M486.6,178.8c0-1-0.8-1.9-1.9-1.9c-1,0-1.9,0.8-1.9,1.9s0.8,1.9,1.9,1.9C485.7,180.7,486.6,179.8,486.6,178.8
		z"/>
	<path class="st11" d="M474.2,191.4c2.6,2.6,6.3,4.3,10.3,4.3s7.6-1.6,10.3-4.3c2.6-2.6,4.3-6.3,4.3-10.3s-1.6-7.6-4.3-10.3
		c-2.6-2.6-6.3-4.3-10.3-4.3s-7.6,1.6-10.3,4.3c-0.4,0.4-0.7,0.8-1.1,1.2c-0.2-0.2-0.3-0.5-0.5-0.7c-0.6-0.6-1.3-1.1-2.1-1.5
		c-0.8-0.3-1.7-0.4-2.5-0.4c-0.3,0-0.5,0.1-0.8,0.1c-0.3-3.6-1.9-6.8-4.3-9.2c-2.7-2.7-6.4-4.3-10.5-4.3s-7.8,1.7-10.5,4.3
		c-0.1,0.1-0.2,0.2-0.3,0.3l-8.4-15.6c-0.2-0.4-0.8-0.6-1.2-0.4c-0.4,0.2-0.6,0.8-0.4,1.2l8.8,16.3c-1.8,2.4-2.8,5.4-2.8,8.7
		c0,4.1,1.7,7.8,4.3,10.5c2.7,2.7,6.4,4.3,10.5,4.3s7.8-1.7,10.5-4.3c2.6-2.6,4.2-6,4.3-9.9c0.3-0.1,0.6-0.2,0.9-0.2
		c0.6-0.1,1.1,0,1.7,0.2c0.5,0.2,1,0.6,1.4,1c0.3,0.3,0.5,0.7,0.7,1.1c-1.3,2.2-2,4.7-2,7.4C470,185.1,471.6,188.8,474.2,191.4z
		 M461.7,180.2c-2.3,2.3-5.6,3.8-9.2,3.8s-6.8-1.4-9.2-3.8c-2.3-2.3-3.8-5.6-3.8-9.2c0-3.6,1.4-6.8,3.8-9.2c2.3-2.3,5.6-3.8,9.2-3.8
		s6.8,1.4,9.2,3.8c2.3,2.3,3.8,5.6,3.8,9.2C465.5,174.6,464,177.8,461.7,180.2z M475.5,172.2c2.3-2.3,5.5-3.7,9-3.7s6.7,1.4,9,3.7
		s3.7,5.5,3.7,9s-1.4,6.7-3.7,9c-2.3,2.3-5.5,3.7-9,3.7s-6.7-1.4-9-3.7s-3.7-5.5-3.7-9C471.8,177.6,473.2,174.5,475.5,172.2z"/>
	<path class="st13" d="M494.1,176.7c0-1.7-1.3-3-3-3s-3,1.3-3,3s1.3,3,3,3C492.7,179.7,494.1,178.4,494.1,176.7z"/>
	<path class="st13" d="M463.1,167.2c0-1.7-1.3-3-3-3s-3,1.3-3,3s1.3,3,3,3C461.8,170.2,463.1,168.8,463.1,167.2z"/>
	<path class="st18" d="M457.9,209c2.2,0.7,4.5,0.9,6.7,0.6c2.2-0.3,4.4-1.1,6.3-2.4c0.6-0.4,0.7-1.1,0.4-1.7
		c-0.4-0.6-1.1-0.7-1.7-0.4c-1.6,1.1-3.4,1.7-5.3,2c-1.9,0.2-3.8,0.1-5.6-0.5c-1.8-0.6-3.5-1.6-4.8-2.9c-1.3-1.3-2.4-2.9-3.1-4.8
		c-0.2-0.6-0.9-1-1.6-0.7c-0.6,0.2-1,0.9-0.7,1.6c0.8,2.2,2,4.1,3.6,5.7C453.7,207,455.7,208.2,457.9,209z"/>
	<path class="st17" d="M467.8,197.9c6.4-0.4,9.2-3.4,4-7.4c-0.2-1.5-0.6-14.5-3-14.9c-2.8-0.5-7.8,8.3-9.7,10.7
		c-6.4-1.2-8.3,3.1-1.9,8.7C459.6,198.8,463.2,199.7,467.8,197.9z"/>
	<path class="st18" d="M456.6,213.2c0.9,0.3,1.9,0.4,2.8,0.3c0.9-0.1,1.8-0.4,2.6-1c0.2-0.2,0.3-0.5,0.1-0.7
		c-0.2-0.2-0.5-0.3-0.7-0.1c-0.7,0.4-1.4,0.7-2.2,0.8c-0.8,0.1-1.6,0-2.3-0.2c-0.8-0.3-1.4-0.7-2-1.2s-1-1.2-1.3-2
		c-0.1-0.3-0.4-0.4-0.6-0.3c-0.3,0.1-0.4,0.4-0.3,0.6c0.3,0.9,0.8,1.7,1.5,2.3C454.9,212.4,455.7,212.9,456.6,213.2z"/>
	<path class="st13" d="M519.2,195.7c5.8-6,6.9-14.4,2.4-18.9s-12.8-3.2-18.5,2.7c-5.8,6-6.9,14.4-2.4,18.9
		C505.2,202.9,513.5,201.6,519.2,195.7z"/>
	<path class="st13" d="M513.4,191.4c3.4-3.5,4.1-8.6,1.4-11.2c-2.6-2.6-7.6-1.9-11,1.6s-4.1,8.6-1.4,11.2
		C505,195.6,509.9,194.9,513.4,191.4z"/>
	<path class="st13" d="M509.5,189.1c2.2-2.2,2.6-5.4,0.9-7c-1.7-1.7-4.7-1.2-6.9,1c-2.2,2.2-2.6,5.4-0.9,7
		C504.3,191.8,507.4,191.3,509.5,189.1z"/>
	<path class="st16" d="M496.3,212.3c4.3,9.3,5.9,12.5,11.6,16.5c11.9,2.5,24.3-1.9,31.9-11.5c0,0-1.1-10.7-3.2-32.2
		c0,0,0.5-3.3,1.6-9.9c0.5-4.5-3.8-7-12.9-7.4c-2.6-2.9-5.2-4-9.1-2.6c-2.4,0.9-4.3,2.8-5.2,5.1c-2.4-0.8-5-0.4-7,1
		c-2.1,1.4-3.3,3.7-3.5,6.2c-3.9,1-6.5,4.7-6,8.7C485.6,189.9,487.6,215.8,496.3,212.3z"/>
	<path class="st25" d="M503.5,200.8c-2.8,2.4-6.6,3.1-10.1,1.9c-0.7,1.8-0.3,2.8,1.3,3.1c4.5,10.5,9.7,18.3,15.7,23.4
		c7.7,1,15.5-0.8,22-5.1c-4.8,1.7-10,0.6-13.8-2.7c-12.9-11.6,7.7-23.6-6.1-34.2c-0.2,1.3-1,2.5-2.1,3.2c-1.1,0.8-2.5,1-3.8,0.8
		C507.5,194.7,506.3,198.4,503.5,200.8z"/>
	<path class="st26" d="M537.7,172.2c-0.5-0.9-1.3-1.7-2.3-2.3c-1.2-0.7-2.7-1.2-4.5-1.6c-1-0.2-2.3-0.4-3.9-0.5c0,0-0.8-0.3-2.5-0.9
		c-1.9-1.8-3.8-2.6-5.9-2.4c19.5,9,14.4,22,9.5,31.1c-2.7,5-5.4,9.9-4,15.4c1.5,5.4,5.9,9.6,11.4,10.6c1.4-1.2,2.8-2.6,4.2-4.3
		c-1-9.6-2-20.3-3.2-32.2c0.5-3.3,1.1-6.6,1.6-9.9C538.4,174.3,538.2,173.3,537.7,172.2z"/>
	<path class="st27" d="M530.6,172.5c0.4-0.4,0.4-1.1-0.1-1.5l-4.5-4c-0.4-0.4-1.1-0.4-1.5,0.1c-0.4,0.4-0.4,1.1,0.1,1.5l4.5,4
		C529.5,173,530.2,172.9,530.6,172.5z"/>
	<path class="st27" d="M516.2,174.7c0.4-0.5,0.3-1.1-0.1-1.5l-4.4-3.7c-0.5-0.4-1.1-0.3-1.5,0.1c-0.4,0.5-0.3,1.1,0.1,1.5l4.4,3.7
		C515.2,175.2,515.8,175.2,516.2,174.7z"/>
	<path class="st27" d="M504.4,180.4c0.4-0.5,0.3-1.2-0.2-1.5l-3.1-2.3c-0.5-0.4-1.2-0.3-1.5,0.2s-0.3,1.2,0.2,1.5l3.1,2.3
		C503.4,181,504.1,180.9,504.4,180.4z"/>
	<path class="st27" d="M497.8,188.6c0.4-0.5,0.2-1.2-0.2-1.5l-2.4-1.8c-0.5-0.4-1.2-0.2-1.5,0.2c-0.4,0.5-0.2,1.2,0.2,1.5l2.4,1.8
		C496.7,189.2,497.4,189.1,497.8,188.6z"/>
	<path class="st27" d="M521.1,175.5c0.5,0.5,1,1.1,1.2,1.7c0.2,0.6,0.8,0.8,1.4,0.6c0.6-0.2,0.8-0.8,0.6-1.4c-0.4-1-1-1.9-1.8-2.6
		c-0.8-0.7-1.8-1.2-2.8-1.4c-0.6-0.1-1.2,0.2-1.3,0.8s0.2,1.2,0.8,1.3C519.9,174.7,520.5,175,521.1,175.5z"/>
	<path class="st27" d="M512.2,182.8c0.4,0.3,0.7,0.8,0.9,1.3s0.9,0.8,1.4,0.6s0.8-0.9,0.6-1.4c-0.3-0.8-0.9-1.5-1.5-2.1
		s-1.4-1-2.3-1.2c-0.6-0.1-1.2,0.2-1.3,0.8c-0.1,0.6,0.2,1.2,0.8,1.3C511.4,182.2,511.8,182.5,512.2,182.8z"/>
	<path class="st27" d="M500.7,178.6c0.5-0.1,0.9-0.5,0.9-1.1c0.1-1.1,0.4-2.1,0.9-3s1.2-1.7,2.1-2.3s1.9-1,2.9-1.1s2.1-0.1,3.1,0.3
		c0.6,0.2,1.3-0.1,1.5-0.7c0.2-0.6-0.1-1.3-0.7-1.5c-1.4-0.4-2.8-0.6-4.1-0.4c-1.4,0.2-2.7,0.7-3.9,1.5c-1.2,0.8-2.1,1.9-2.8,3.1
		c-0.6,1-0.9,2.1-1.1,3.2c-1.9,0.7-3.4,1.9-4.5,3.5s-1.7,3.5-1.6,5.5c-1,0.6-1.8,1.4-2.6,2.3c-0.9,1.1-1.5,2.3-1.8,3.7
		c-0.5,1.5-0.8,2.9-1,4.4s-0.3,3-0.2,4.6c0,1.6,0.2,3.3,0.5,4.8c0.3,1.6,0.9,3.2,1.6,4.7c0.3,0.6,1,0.8,1.5,0.6
		c0.6-0.3,0.8-1,0.6-1.5c-0.6-1.3-1.1-2.7-1.4-4.2c-0.3-1.4-0.5-2.9-0.5-4.3v-0.1c-0.1-1.4,0-2.8,0.2-4.2s0.5-2.8,0.9-4.1l0,0
		c0,0,0,0,0-0.1c0.3-1.1,0.8-2,1.4-2.9c0.7-0.8,1.5-1.5,2.4-2c0.4-0.2,0.7-0.7,0.6-1.2c-0.2-1.7,0.3-3.4,1.2-4.7
		C497.7,180,499.1,179,500.7,178.6z"/>
	<path class="st27" d="M496.7,213.3c0.5-0.2,0.8-0.9,0.6-1.4l-3.9-9.1c-0.2-0.5-0.9-0.8-1.4-0.6s-0.8,0.9-0.6,1.4l3.9,9.1
		C495.6,213.2,496.2,213.5,496.7,213.3z"/>
	<path class="st27" d="M504.1,190c0.4,0.3,0.6,0.7,0.8,1.1c0.2,0.5,0.8,0.7,1.3,0.5s0.7-0.8,0.5-1.3c-0.3-0.7-0.8-1.4-1.4-1.9
		s-1.3-0.9-2-1.1c-0.5-0.1-1,0.2-1.2,0.7c-0.1,0.5,0.2,1,0.7,1.2S503.7,189.7,504.1,190z"/>
	<path class="st9" d="M323.1,287.7c0,0-3.5-7.5-10.5-22.5c0,0-15.7,19.7-47.1,59.1c-8.2,7.8-12.9,17.7-14.1,29.5
		c-3,30.1,8.4,41.8,34.1,20.2c3.2-2.7,6.1-5.9,8.5-9.4c20.8-30.6-7.4-46.9,7.8-67.1C306.7,290.7,314.8,287,323.1,287.7z"/>
	<path class="st28" d="M322.9,365.3c0.7,0.3,1.5,0,1.9-0.7c1.3-2.8,2-5.8,2-8.8c0-2.8-0.6-5.6-1.7-8.3l16.3-44.8l-0.3,33.9
		c0,0.8,0.6,1.4,1.4,1.4s1.4-0.6,1.4-1.4l0.4-41.7l3.4-9.4c0.3-0.7-0.1-1.5-0.8-1.8c-0.7-0.3-1.5,0.1-1.8,0.8L322.3,347l0,0
		c-0.1,0.3-0.1,0.7,0,1.1c1.1,2.4,1.7,5,1.7,7.6s-0.6,5.2-1.7,7.6C321.9,364.1,322.2,364.9,322.9,365.3z"/>
	<path class="st28" d="M333.3,219.4c-0.6-0.4-1.5-0.2-1.9,0.4c-3.8,5.9-5.4,12.7-4.9,19.3s3.2,13.1,7.8,18.3c0.5,0.6,1.4,0.6,2,0.1
		s0.6-1.4,0.1-2c-4.3-4.7-6.7-10.6-7.1-16.7c-0.5-6,1-12.2,4.4-17.6C334.1,220.6,333.9,219.8,333.3,219.4z"/>
	<path class="st28" d="M284.4,307.1c-0.6-0.4-1.5-0.3-1.9,0.4c-4.8,7-6.9,15.2-6.6,23.3c0.3,8.1,3.2,16.1,8.5,22.7
		c0.5,0.6,1.4,0.7,1.9,0.2c0.6-0.5,0.7-1.4,0.2-1.9c-4.9-6.2-7.6-13.6-7.9-21.1s1.7-15.1,6.2-21.6
		C285.2,308.4,285,307.5,284.4,307.1z"/>
	<path class="st28" d="M310.3,260.1c-0.6-0.5-1.5-0.4-1.9,0.2l-45.3,58c-0.5,0.6-0.4,1.5,0.2,1.9c0.6,0.5,1.5,0.4,1.9-0.2l45.3-58
		C311,261.4,310.9,260.5,310.3,260.1z"/>
	<path class="st28" d="M592.3,333.9c0.7-0.3,1-1.1,0.7-1.8l-50-114.2c-0.3-0.7-1.1-1-1.8-0.7s-1,1.1-0.7,1.8l50,114.2
		C590.8,333.9,591.6,334.3,592.3,333.9z"/>
	<path class="st28" d="M403.6,374c-0.8-0.1-1.5,0.5-1.5,1.2c-0.1,0.8,0.5,1.5,1.2,1.5c32.8,3.7,65.9-32,99.2-107.2
		c1,8,2.1,17.1,3.3,27.3c-16.6,58.6-31.7,87.9-45.2,87.8c-0.8,0-1.4,0.6-1.4,1.4s0.6,1.4,1.4,1.4c14.4,0.1,29.8-27.6,46.1-83.4
		c0.8,7.2,1.7,14.9,2.6,23.1c-2,12.5-1.3,25,1.7,37.1c3.2,12.8,8.9,25.1,16.4,36.2c0.4,0.6,1.3,0.8,1.9,0.4c0.6-0.4,0.8-1.3,0.4-1.9
		c-7.4-10.8-12.9-22.8-16-35.3c-2.9-11.8-3.6-24-1.6-36.2c0-0.1,0-0.2,0-0.4l0,0c-1.2-10.9-2.3-21-3.4-30.2c0,0,0,0,0-0.1
		c-5.5-47.2-9-70.9-9-71c-0.1-0.8-0.8-1.3-1.6-1.2s-1.3,0.8-1.2,1.6c0,0.1,1.9,12.7,5,37.9C468.4,341.1,435.7,377.7,403.6,374z"/>
	<path class="st28" d="M551.6,365.3c-0.7,0.2-1.1,1-0.9,1.8c0.2,0.7,1,1.1,1.8,0.9c10.1-3.4,18.2-10.3,23.2-19s6.9-19.2,4.6-29.6
		c-0.2-0.8-0.9-1.2-1.6-1.1c-0.8,0.2-1.2,0.9-1.1,1.6c2.1,9.8,0.3,19.5-4.3,27.7C568.6,355.6,561.1,362.1,551.6,365.3z"/>
	<path class="st28" d="M437.3,343.8c-11.6,5.6-23.9,3.3-36.9-6.9c-13.3-10.4-27.2-29-41.7-55.7c-0.4-0.7-1.2-0.9-1.9-0.6
		c-0.7,0.4-0.9,1.2-0.6,1.9c14.7,27.1,28.9,46,42.4,56.6c13.9,10.9,27.1,13.3,39.8,7.2c0.7-0.3,1-1.2,0.6-1.9
		C438.8,343.8,438,343.5,437.3,343.8z"/>
	<path class="st11" d="M377.9,235.1c3.5-0.7,7.2-0.1,10.4,2l3.3-5.2c-4.6-2.9-9.9-3.7-14.9-2.8c-5,1-9.6,3.7-12.8,8.1
		c-3.2,4.4-4.4,9.6-3.8,14.6s3,9.8,7.2,13.3c4.1,3.5,9.3,5.1,14.3,4.9c5.1-0.2,10-2.3,13.8-6.2l-4.4-4.3c-2.7,2.7-6.1,4.2-9.7,4.4
		c-3.5,0.2-7.2-1-10.1-3.4c-2.9-2.5-4.6-5.8-5-9.4c-0.4-3.5,0.4-7.2,2.7-10.3C371.2,237.8,374.4,235.8,377.9,235.1z"/>
	<path class="st16" d="M376.3,223.4c0,0-5.9,0.1-17.6,0.3c0,0-3,1.5-9.1,4.6c-4.6,0.8-8.6,3.5-11,7.5c0,0-7.1,7.2-21.3,21.5
		c-7.1,6.9-7.5,18.1-1,25.5s17.7,8.3,25.4,2.2c4.3,0.4,8.6-0.3,12.5-1.9c5.2-2,10.3-4.1,15.5-6.1c2.9-1,4.6-4,4-7.1
		c2.3-0.9,4-2.9,4.7-5.3s0.2-5-1.3-6.9c2.3-1.3,3.6-3.8,3.4-6.4c-0.2-2.6-1.9-4.9-4.4-5.8c2.2-0.7,3.8-2.7,4-5.1
		c0.2-2.3-0.9-4.6-3-5.8c0,0-1.4-0.5-4.2-1.5C376.6,231.3,378,227,376.3,223.4z"/>
	<path class="st27" d="M343.4,236.7c1.1-1.4,2.5-2.4,4.1-3.2c1.5-0.7,3.2-1.1,5-1.1l0,0l20.7,1.7c0.5,0,1-0.3,1-0.8s-0.3-1-0.8-1
		l-20.7-1.7h-0.1c-2,0-4,0.4-5.8,1.3c-1.8,0.8-3.4,2.1-4.7,3.7c-0.3,0.4-0.3,1,0.1,1.3C342.5,237.2,343,237.1,343.4,236.7z"/>
	<path class="st13" d="M432.2,277.8c2.2,0,4-1.8,4-4v-43.6c0-2.2-1.8-4-4-4h-40.4c-2.2,0-4,1.8-4,4v43.6c0,2.2,1.8,4,4,4H432.2z"/>
	<ellipse class="st6" cx="411.6" cy="253.9" rx="11" ry="13.6"/>
	<path class="st11" d="M411,266.3c-1.1,1.1-2.4,1.9-3.9,2.3l0.6,2.1c1.9-0.5,3.5-1.5,4.9-2.8c1.3-1.3,2.3-3,2.9-4.8
		c1.6-5.6-0.7-8.3-3-10.9c-1.7-2-3.3-3.9-2.3-7.2c0.4-1.4,1.2-2.6,2.3-3.4c1.1-0.8,2.4-1.4,3.9-1.4l-0.1-2.2
		c-1.9,0.1-3.7,0.7-5.1,1.9c-1.4,1.1-2.5,2.7-3.1,4.5c-1.3,4.5,0.7,6.8,2.8,9.2c1.9,2.2,3.8,4.4,2.5,8.9
		C412.9,263.9,412.1,265.3,411,266.3z"/>
	<path class="st15" d="M328.6,268.4c4.6-2.7,10.5-5,13.3-13.1c2-5.8,1.3-12.2-2-17.3c-14,14-21,21-21,21c-4.2,3.5-6.7,8.7-6.9,14.2
		c1.2,8.9,8.7,15.6,17.6,16C320.5,285.5,319.5,273.8,328.6,268.4z"/>
	<path class="st27" d="M341.5,248.8c-0.4-0.3-1-0.1-1.3,0.3c-0.6,1.1-0.9,2.4-0.8,3.6c0.1,1.2,0.5,2.4,1.4,3.4
		c0.3,0.4,0.9,0.5,1.3,0.1c0.4-0.3,0.5-0.9,0.1-1.3c-0.6-0.7-0.9-1.5-0.9-2.4c-0.1-0.9,0.1-1.7,0.6-2.5
		C342.1,249.6,341.9,249.1,341.5,248.8z"/>
	<path class="st27" d="M341.9,260.8c-0.5-0.1-1,0.1-1.1,0.6c-0.3,1.1-0.3,2.2,0,3.3c0.3,1,0.9,2,1.8,2.7c0.4,0.3,1,0.3,1.3-0.1
		s0.3-1-0.1-1.3c-0.6-0.5-1-1.2-1.2-1.9c-0.2-0.7-0.2-1.5,0-2.2C342.6,261.4,342.3,260.9,341.9,260.8z"/>
	<path class="st29" d="M380.7,251.7c-0.1-2.2-1.2-4.2-3-5.4c0,0-0.1,0.1-0.2,0.3c-6.1,1-7,11.9-13.1,16.9
		c-8.9,7.2-19.8-1.1-27.1,9.2c-3.2,4.5-3.4,10.6-0.4,15.3c1.4-0.5,2.7-1.2,3.9-2.1c1.3-0.5,2-0.7,2-0.7c2.3,0.1,4.3-0.1,6.1-0.4
		c2.1-0.4,4.1-1,6-1.8c5.9-2.3,11-4.3,15.2-6c2.5-1,4.1-3.4,3.9-6.1c0,0,0.2-0.4,0.7-1.3c1.9-1,3.3-2.8,3.9-4.9s0.3-4.3-0.8-6.2
		c0,0,0.1-0.4,0.3-1.3C379.7,255.9,380.7,253.8,380.7,251.7z"/>
	<path class="st27" d="M348.8,244.9c1.2-1,2.6-1.6,4.1-1.7c1.5-0.1,3,0.1,4.4,0.9l0,0c0.1,0.1,0.2,0.1,0.3,0.1l19.2,2.5
		c0.5,0.1,1-0.3,1-0.8c0.1-0.5-0.3-1-0.8-1l-19-2.5c-1.7-0.9-3.5-1.2-5.3-1s-3.6,0.9-5.1,2.1c-0.4,0.3-0.4,0.9-0.1,1.3
		C347.8,245.2,348.4,245.3,348.8,244.9z"/>
	<path class="st27" d="M352.8,267.4c-1.4-0.1-2.8-0.4-4.2-0.8c-0.5-0.2-1,0.1-1.2,0.6s0.1,1,0.6,1.2c1.5,0.5,3.1,0.8,4.7,0.9
		c1.5,0.1,3.1,0,4.6-0.2l16.5,1.9c0.5,0.1,1-0.3,1-0.8c0.1-0.5-0.3-1-0.8-1l-16.6-1.9c-0.1,0-0.2,0-0.3,0l0,0
		C355.7,267.4,354.2,267.5,352.8,267.4z"/>
	<path class="st27" d="M336.4,284.9c1.7,0.5,3.5,0.9,5.3,1.1c0.5,0.1,1-0.3,1-0.8c0.1-0.5-0.3-1-0.8-1c-1.7-0.2-3.4-0.5-5-1
		s-3.2-1.1-4.7-1.9c-0.5-0.2-1-0.1-1.2,0.4s-0.1,1,0.4,1.2C333,283.7,334.7,284.4,336.4,284.9z"/>
	<path class="st27" d="M353.4,256c1.5,0.1,3,0.5,4.4,0.9c0.1,0,0.2,0,0.2,0.1l19.1,1.7c0.5,0,1-0.3,1-0.8s-0.3-1-0.8-1l-19-1.7
		c-1.5-0.5-3.1-0.8-4.7-1s-3.3-0.1-4.9,0.1c-0.5,0.1-0.9,0.5-0.8,1s0.5,0.9,1,0.8C350.4,255.8,351.9,255.8,353.4,256z"/>
	<path class="st5" d="M483.9,440.8L483.9,440.8L483.9,440.8c0,0.5,0.8,1.2,2.5,2.4c27.7,21,41.5,31.4,41.5,31.4s10.6-11.5,31.7-34.5
		h-69.7c0.6-1.6-1.4-2.9-6-4C483.9,438.8,483.9,440.3,483.9,440.8C483.9,440.7,483.9,440.8,483.9,440.8z"/>
	<path class="st30" d="M527.9,470.1c0,0,10.6-11.5,31.7-34.5c-48.5,0-72.8,0-72.8,0c-3.8,0-3.8,0.6-0.4,3
		C514,459.6,527.9,470.1,527.9,470.1z"/>
	<path class="st5" d="M743,474.9c1.9,0,3.7-1.6,4-3.5l22.4-134.7c0.3-1.9-1-3.5-2.9-3.5H550.4c-1.9,0-3.7,1.6-4,3.5L524,471.4
		c-0.3,1.9,1,3.5,2.9,3.5H743z"/>
	<path class="st31" d="M744.8,474.9c1.3,0,2.5-1,2.7-2.3L770,339.9c0.2-1.3-0.6-2.3-1.9-2.3H554.4c-1.3,0-2.5,1-2.7,2.3l-22.5,132.7
		c-0.2,1.3,0.6,2.3,1.9,2.3L744.8,474.9L744.8,474.9z"/>
	<path class="st24" d="M799,434.5c0.2,0,0.3-0.1,0.3-0.3v-82.1c0-0.2-0.1-0.3-0.3-0.3h-3.3c-0.2,0-0.3,0.1-0.3,0.3v82.1
		c0,0.2,0.1,0.3,0.3,0.3H799z"/>
	<path class="st13" d="M799.2,352.3c0.2-0.1,0.2-0.3,0.2-0.5c-0.3-1-0.6-2-0.9-3c-0.3-1-0.6-2-0.9-3c-0.1-0.2-0.1-0.3-0.1-0.3
		s0,0.1-0.1,0.3c-0.3,1-0.6,2-0.9,3c-0.3,1-0.6,2-0.9,3c-0.1,0.2,0,0.4,0.2,0.5c0.5,0.3,1,1,1.8,1S798.6,352.6,799.2,352.3z"/>
	<path class="st24" d="M798.4,426.3c0.2,0,0.3-0.1,0.4-0.3l13.4-81c0-0.2-0.1-0.3-0.3-0.4l-3.2-0.5c-0.2,0-0.3,0.1-0.4,0.3l-13.4,81
		c0,0.2,0.1,0.3,0.3,0.4L798.4,426.3z"/>
	<path class="st13" d="M810.1,345.9c0.7,0.1,1.3-0.5,1.9-0.7c0.2-0.1,0.3-0.3,0.3-0.4c-0.1-1-0.3-2.1-0.4-3.1
		c-0.1-1-0.3-2.1-0.4-3.1c0-0.2,0-0.3,0-0.3s-0.1,0.1-0.2,0.3c-0.5,0.9-0.9,1.9-1.4,2.8s-0.9,1.9-1.4,2.8c-0.1,0.2,0,0.4,0.1,0.5
		C809,345.1,809.4,345.8,810.1,345.9z"/>
	<path class="st24" d="M799,442.3l3.2-0.8c0.2,0,0.3-0.2,0.2-0.4l-19-79.9c0-0.2-0.2-0.3-0.4-0.2l-3.2,0.8c-0.2,0-0.3,0.2-0.2,0.4
		l19,79.9C798.7,442.3,798.9,442.4,799,442.3z"/>
	<path class="st13" d="M781.9,363c0.7-0.2,1-0.9,1.5-1.3c0.1-0.1,0.2-0.3,0.1-0.5c-0.5-0.9-1.1-1.8-1.6-2.7
		c-0.5-0.9-1.1-1.8-1.6-2.7c-0.1-0.2-0.2-0.3-0.2-0.3s0,0.2,0,0.3c-0.1,1-0.1,2.1-0.2,3.1c-0.1,1-0.1,2.1-0.2,3.1
		c0,0.2,0.1,0.4,0.3,0.4C780.5,362.6,781.2,363.2,781.9,363z"/>
	<path class="st24" d="M802.7,438.4c0.2,0.1,0.3,0,0.4-0.2l25.4-78.1c0.1-0.2,0-0.3-0.2-0.4l-3.1-1c-0.2-0.1-0.3,0-0.4,0.2
		L799.4,437c-0.1,0.2,0,0.3,0.2,0.4L802.7,438.4z"/>
	<path class="st13" d="M826.3,360.7c0.7,0.2,1.4-0.3,2-0.4c0.2,0,0.3-0.2,0.3-0.4c0-1,0-2.1,0-3.1s0-2.1,0-3.1c0-0.2,0-0.3,0-0.3
		s-0.1,0.1-0.2,0.3c-0.6,0.9-1.2,1.7-1.8,2.6s-1.2,1.7-1.8,2.6c-0.1,0.2-0.1,0.4,0,0.5C825.4,359.7,825.7,360.5,826.3,360.7z"/>
	<path class="st24" d="M802.4,442.8c0.2,0,0.3-0.1,0.4-0.3l13.4-81c0-0.2-0.1-0.3-0.3-0.4l-3.2-0.5c-0.2,0-0.3,0.1-0.4,0.3l-13.4,81
		c0,0.2,0.1,0.3,0.3,0.4L802.4,442.8z"/>
	<path class="st13" d="M814.1,362.4c0.7,0.1,1.3-0.5,1.9-0.7c0.2-0.1,0.3-0.3,0.3-0.4c-0.1-1-0.3-2.1-0.4-3.1
		c-0.1-1-0.3-2.1-0.4-3.1c0-0.2,0-0.3,0-0.3s-0.1,0.1-0.2,0.3c-0.5,0.9-0.9,1.9-1.4,2.8s-0.9,1.9-1.4,2.8c-0.1,0.2,0,0.4,0.1,0.5
		C813,361.5,813.4,362.3,814.1,362.4z"/>
	<path class="st9" d="M822,475.4c2,0,3.7-1.6,3.7-3.7v-61.9c0-2-1.6-3.7-3.7-3.7h-38.8c-2,0-3.7,1.6-3.7,3.7v61.9
		c0,2,1.6,3.7,3.7,3.7H822z"/>
	<ellipse class="st32" cx="88.2" cy="88.1" rx="56.4" ry="56.4"/>
	<ellipse class="st8" cx="88.2" cy="88.1" rx="46.3" ry="46.3"/>
	<path class="st13" d="M92.5,88.1c0-2.4-1.9-4.3-4.3-4.3s-4.3,1.9-4.3,4.3s1.9,4.3,4.3,4.3S92.5,90.4,92.5,88.1z"/>
	<path class="st13" d="M88.4,81.5c0.5,0,0.9-0.4,0.9-0.9V49.7c0-0.5-0.4-0.9-0.9-0.9l0,0c-0.5,0-0.9,0.4-0.9,0.9v30.9
		C87.5,81.1,87.9,81.5,88.4,81.5L88.4,81.5z"/>
	<path class="st13" d="M81.1,84.9c0.4,0.2,1,0.1,1.2-0.3l0,0c0.2-0.4,0.1-1-0.3-1.2l-15-8.8c-0.4-0.2-1-0.1-1.2,0.3l0,0
		c-0.2,0.4-0.1,1,0.3,1.2L81.1,84.9z"/>
	<path class="st33" d="M87.7,255.7c-20,27-20.8,63.7-2.2,91.6C102.7,319.4,103.5,284.4,87.7,255.7z"/>
	<path class="st34" d="M111,295.9c-24.1,22.2-34.5,55.6-27.2,87.6C110.5,363,121.3,327.9,111,295.9z"/>
	<path class="st34" d="M56.5,295.9c-10.3,32,0.6,67,27.2,87.6C91,351.6,80.6,318.1,56.5,295.9z"/>
	<path class="st35" d="M82.9,387.6c30-13.1,50.7-41.4,54.2-74C105.2,324.4,83.5,354,82.9,387.6z"/>
	<path class="st35" d="M32.2,313.7c3.4,32.6,24.1,60.8,54.2,74C85.7,354,64.1,324.4,32.2,313.7z"/>
	<path class="st36" d="M41.3,463.5c0.5,4.9,4.1,8.9,8.2,8.9c11.6,0,23.1,0,34.7,0s23.1,0,34.7,0c4,0,7.7-4,8.2-8.9
		c1.2-13.1,2.4-26.2,3.6-39.3c1.2-13.1,2.4-26.2,3.6-39.3c0.5-4.9-3.2-8.9-8.1-8.9c-14,0-28,0-42,0s-28,0-42,0c-4.9,0-8.5,4-8.1,8.9
		c1.2,13.1,2.4,26.2,3.6,39.3S40.1,450.4,41.3,463.5z"/>
	<path class="st31" d="M329.8,445.8c0,0-39-5.7-116.9-17.1c0,0-19.3,5.9-58,17.6c30.1,15.5,74.7,22.3,133.9,20.2
		C288.8,466.5,302.4,459.6,329.8,445.8z"/>
	<path class="st13" d="M271.8,483.4l58-17.6c1.2-0.4,2.1-1.7,2.1-3v-15.4c0-1.3-1-2-2.1-1.7l-58,17.6c-1.2,0.4-2.1,1.7-2.1,3v15.4
		C269.6,483,270.6,483.7,271.8,483.4z"/>
	<path class="st37" d="M268.2,483.7c1.2,0.2,2.3-0.7,2.3-2v-15.4c0-1.3-1-2.5-2.3-2.7l-113.3-17.3c-1.2-0.2-2.3,0.7-2.3,2v15.4
		c0,1.3,1,2.5,2.3,2.7L268.2,483.7z"/>
	<path class="st38" d="M329.9,449.5c0.2,0,0.2-0.2,0.2-0.4c0-0.2-0.2-0.2-0.4-0.2L272.4,466c-0.2,0-0.2,0.2-0.2,0.4
		c0,0.2,0.2,0.2,0.4,0.2L329.9,449.5z"/>
	<path class="st38" d="M329.9,452.9c0.2,0,0.2-0.2,0.2-0.4c0-0.2-0.2-0.2-0.4-0.2l-57.4,17.1c-0.2,0-0.2,0.2-0.2,0.4
		c0,0.2,0.2,0.2,0.4,0.2L329.9,452.9z"/>
	<path class="st38" d="M329.9,456.3c0.2,0,0.2-0.2,0.2-0.4c0-0.2-0.2-0.2-0.4-0.2l-57.4,17.1c-0.2,0-0.2,0.2-0.2,0.4
		c0,0.2,0.2,0.2,0.4,0.2L329.9,456.3z"/>
	<path class="st38" d="M329.9,459.7c0.2,0,0.2-0.2,0.2-0.4c0-0.2-0.2-0.2-0.4-0.2l-57.4,17.1c-0.2,0-0.2,0.2-0.2,0.4
		c0,0.2,0.2,0.2,0.4,0.2L329.9,459.7z"/>
	<path class="st38" d="M330,463.1c0.2,0,0.2-0.2,0.2-0.4c0-0.2-0.2-0.2-0.4-0.2l-57.4,17.1c-0.2,0-0.2,0.2-0.2,0.4
		c0,0.2,0.2,0.2,0.4,0.2L330,463.1z"/>
	<path class="st31" d="M315.6,420.7c0,0-39-5.7-116.9-17.1c0,0-19.3,5.9-58,17.6c30.1,15.5,74.7,22.3,133.9,20.2
		C274.6,441.4,288.3,434.5,315.6,420.7z"/>
	<path class="st13" d="M257.6,458.3l58-17.6c1.2-0.4,2.1-1.7,2.1-3v-15.4c0-1.3-1-2-2.1-1.7l-58,17.6c-1.2,0.4-2.1,1.7-2.1,3v15.4
		C255.5,457.9,256.5,458.6,257.6,458.3z"/>
	<path class="st37" d="M254.1,458.6c1.2,0.2,2.3-0.7,2.3-2v-15.4c0-1.3-1-2.5-2.3-2.7l-113.3-17.3c-1.2-0.2-2.3,0.7-2.3,2v15.4
		c0,1.3,1,2.5,2.3,2.7L254.1,458.6z"/>
	<path class="st38" d="M315.8,424.9c0.2,0,0.2-0.2,0.2-0.4c0-0.2-0.2-0.2-0.4-0.2l-57.4,17.1c-0.2,0-0.2,0.2-0.2,0.4
		c0,0.2,0.2,0.2,0.4,0.2L315.8,424.9z"/>
	<path class="st38" d="M315.8,428.4c0.2,0,0.2-0.2,0.2-0.4c0-0.2-0.2-0.2-0.4-0.2l-57.4,17.1c-0.2,0-0.2,0.2-0.2,0.4
		c0,0.2,0.2,0.2,0.4,0.2L315.8,428.4z"/>
	<path class="st38" d="M315.8,431.7c0.2,0,0.2-0.2,0.2-0.4c0-0.2-0.2-0.2-0.4-0.2l-57.4,17.1c-0.2,0-0.2,0.2-0.2,0.4
		c0,0.2,0.2,0.2,0.4,0.2L315.8,431.7z"/>
	<path class="st38" d="M315.8,435.1c0.2,0,0.2-0.2,0.2-0.4c0-0.2-0.2-0.2-0.4-0.2l-57.4,17.1c-0.2,0-0.2,0.2-0.2,0.4
		c0,0.2,0.2,0.2,0.4,0.2L315.8,435.1z"/>
	<path class="st38" d="M315.8,438.6c0.2,0,0.2-0.2,0.2-0.4c0-0.2-0.2-0.2-0.4-0.2l-57.4,17.1c-0.2,0-0.2,0.2-0.2,0.4
		c0,0.2,0.2,0.2,0.4,0.2L315.8,438.6z"/>
	<path class="st31" d="M359.6,391.9c0,0-39-5.7-116.9-17.1c0,0-19.3,5.9-58,17.6c30.1,15.5,74.7,22.3,133.9,20.2
		C318.6,412.6,332.3,405.7,359.6,391.9z"/>
	<path class="st13" d="M301.6,429.5l58-17.6c1.2-0.4,2.1-1.7,2.1-3v-15.4c0-1.3-1-2-2.1-1.7l-58,17.6c-1.2,0.4-2.1,1.7-2.1,3v15.4
		C299.5,429.1,300.5,429.9,301.6,429.5z"/>
	<path class="st37" d="M298.1,429.8c1.2,0.2,2.3-0.7,2.3-2v-15.4c0-1.3-1-2.5-2.3-2.7l-113.3-17.3c-1.2-0.2-2.3,0.7-2.3,2v15.4
		c0,1.3,1,2.5,2.3,2.7L298.1,429.8z"/>
	<path class="st38" d="M359.8,395.7c0.2,0,0.2-0.2,0.2-0.4c0-0.2-0.2-0.2-0.4-0.2l-57.4,17.1c-0.2,0-0.2,0.2-0.2,0.4
		c0,0.2,0.2,0.2,0.4,0.2L359.8,395.7z"/>
	<path class="st38" d="M359.8,399.1c0.2,0,0.2-0.2,0.2-0.4c0-0.2-0.2-0.2-0.4-0.2l-57.4,17.1c-0.2,0-0.2,0.2-0.2,0.4
		c0,0.2,0.2,0.2,0.4,0.2L359.8,399.1z"/>
	<path class="st38" d="M359.8,402.5c0.2,0,0.2-0.2,0.2-0.4c0-0.2-0.2-0.2-0.4-0.2L302.3,419c-0.2,0-0.2,0.2-0.2,0.4
		c0,0.2,0.2,0.2,0.4,0.2L359.8,402.5z"/>
	<path class="st38" d="M359.8,405.9c0.2,0,0.2-0.2,0.2-0.4c0-0.2-0.2-0.2-0.4-0.2l-57.4,17.1c-0.2,0-0.2,0.2-0.2,0.4
		c0,0.2,0.2,0.2,0.4,0.2L359.8,405.9z"/>
	<path class="st38" d="M359.8,409.4c0.2,0,0.2-0.2,0.2-0.4c0-0.2-0.2-0.2-0.4-0.2l-57.4,17.1c-0.2,0-0.2,0.2-0.2,0.4
		c0,0.2,0.2,0.2,0.4,0.2L359.8,409.4z"/>
	<path class="st3" d="M365.5,423.5l79.2-4.2c0.2,0,0.3-0.1,0.3-0.3l-0.2-3.2c0-0.2-0.1-0.3-0.3-0.3l-79.2,4.2
		c-0.2,0-0.3,0.1-0.3,0.3l0.2,3.2C365.2,423.4,365.3,423.5,365.5,423.5z"/>
	<path class="st39" d="M444.9,419.3c0.9-0.3,1.9-0.7,2.8-1s1.9-0.7,2.8-1c0.2-0.1,0.3-0.1,0.3-0.1s-0.1,0-0.3-0.1
		c-1-0.2-2-0.5-2.9-0.7c-1-0.2-2-0.5-2.9-0.7c-0.2,0-0.4,0-0.5,0.2c-0.3,0.5-0.9,1.1-0.8,1.8c0,0.7,0.7,1.2,1,1.7
		C444.5,419.3,444.7,419.3,444.9,419.3z"/>
	<path class="st3" d="M472.3,444c-24.5,0.6-48.9-4-71.5-13.4c-18.6,12.9-41.1,19-63.7,17.3c24.9,17.3,53.1,29.3,82.9,35.1
		C441.3,476.2,459.7,462.5,472.3,444z"/>
	<path class="st2" d="M477.6,439.8c-22.6,0.5-45.2-3.7-66.1-12.3c-17.2,11.9-38,17.5-58.9,15.9c23,16,49.1,27,76.6,32.4
		C449,469.6,466,456.9,477.6,439.8z"/>
	
		<rect x="208.1" y="67.2" transform="matrix(0.1086 -0.9941 0.9941 0.1086 109.9299 327.9003)" class="st3" width="59.5" height="71"/>
	
		<rect x="231.3" y="45.5" transform="matrix(0.1086 -0.9941 0.9941 0.1086 133.6018 310.9201)" class="st4" width="17.8" height="71"/>
	<rect x="209" y="60.6" class="st40" width="7.9" height="11.9"/>
	<path class="st3" d="M300.7,79.3l-0.4-4l-7.7,0.8l6.2,61.3l108.5-10.9l-6.2-61.3l-8.4,0.8l0.4,4.2c0.7,0.4,1.3,1.2,1.3,2.1
		c0.2,1.6-1,3-2.5,3.1c-1.6,0.2-3-1-3.1-2.5c-0.1-1,0.3-2,1.1-2.5l-0.4-4l-5.8,0.6l0.4,4.2c0.7,0.4,1.3,1.2,1.3,2.1
		c0.2,1.6-1,3-2.5,3.1c-1.6,0.2-3-1-3.1-2.5c-0.1-1,0.3-2,1.1-2.5l-0.4-4l-5.7,0.6l0.4,4.2c0.7,0.4,1.3,1.2,1.3,2.1
		c0.2,1.6-1,3-2.5,3.1c-1.6,0.2-3-1-3.1-2.5c-0.1-1,0.3-2,1.1-2.5l-0.4-4l-5.7,0.6l0.4,4.2c0.7,0.4,1.3,1.2,1.3,2.1
		c0.2,1.6-1,3-2.5,3.1c-1.6,0.2-3-1-3.1-2.5c-0.1-1,0.3-2,1.1-2.5l-0.4-4L357,70l0.4,4.2c0.7,0.4,1.3,1.2,1.3,2.1
		c0.2,1.6-1,3-2.5,3.1c-1.6,0.2-3-1-3.1-2.5c-0.1-1,0.3-2,1.1-2.5l-0.4-4L348,71l0.4,4.2c0.7,0.4,1.3,1.2,1.3,2.1
		c0.2,1.6-1,3-2.5,3.1c-1.6,0.2-3-1-3.1-2.5c-0.1-1,0.3-2,1.1-2.5l-0.4-4l-5.7,0.6l0.4,4.2c0.7,0.4,1.3,1.2,1.3,2.1
		c0.2,1.6-1,3-2.5,3.1c-1.6,0.2-3-1-3.1-2.5c-0.1-1,0.3-2,1.1-2.5l-0.4-4l-5.6,0.6l0.4,4.2c0.7,0.4,1.3,1.2,1.3,2.1
		c0.2,1.6-1,3-2.5,3.1c-1.6,0.2-3-1-3.1-2.5c-0.1-1,0.3-2,1.1-2.5l-0.4-4l-5.7,0.6l0.4,4.2c0.7,0.4,1.3,1.2,1.3,2.1
		c0.2,1.6-1,3-2.5,3.1c-1.6,0.2-3-1-3.1-2.5c-0.1-1,0.3-2,1.1-2.5l-0.4-4l-5.8,0.6l0.4,4.2c0.7,0.4,1.3,1.2,1.3,2.1
		c0.2,1.6-1,3-2.5,3.1c-1.6,0.2-3-1-3.1-2.5c-0.1-1,0.3-2,1.1-2.5l-0.4-4l-5.7,0.6l0.4,4.2c0.7,0.4,1.3,1.2,1.3,2.1
		c0.2,1.6-1,3-2.5,3.1c-1.6,0.2-3-1-3.1-2.5C299.5,80.9,300,79.9,300.7,79.3z"/>
	
		<rect x="285.3" y="71.7" transform="matrix(0.4049 -0.9144 0.9144 0.4049 104.1926 312.3854)" class="st40" width="13.5" height="8.9"/>
	
		<rect x="401.1" y="122.6" transform="matrix(0.4049 -0.9144 0.9144 0.4049 126.5833 448.4926)" class="st40" width="13.5" height="8.9"/>
	
		<rect x="311.7" y="147.5" transform="matrix(0.4049 -0.9144 0.9144 0.4049 50.5607 381.5656)" class="st40" width="13.5" height="8.9"/>
	
		<rect x="190.6" y="147.3" transform="matrix(0.8141 -0.5807 0.5807 0.8141 -53.1942 141.8903)" class="st40" width="8.9" height="13.5"/>
	<path d="M244.1,117.6L244.1,117.6c-0.1,0.1-0.1,0.2-0.1,0.4l0,0C244.1,118,244.1,117.8,244.1,117.6L244.1,117.6z"/>
	<path d="M253.6,214.5c0-0.1,0-0.1,0-0.2c0,0.1,0,0.3,0,0.5C253.5,214.7,253.6,214.6,253.6,214.5z"/>
	<path class="st37" d="M765.3,342.5c0.2-1.2-0.6-2.2-1.8-2.2H558.2c-1.2,0-2.4,1-2.6,2.2L533.9,470c0,0.1,0,0.1,0,0.2l231.4-127.6
		L765.3,342.5z"/>
	<path class="st13" d="M654.4,420.4c8.2,0,15-6.6,15.2-14.8c0.2-8.2-6.2-14.8-14.4-14.8s-15,6.6-15.2,14.8
		C639.7,413.7,646.2,420.4,654.4,420.4z"/>
	<path class="st3" d="M43.5,141.6c0-1.7-1.4-3.1-3.1-3.1s-3.1,1.4-3.1,3.1s1.4,3.1,3.1,3.1S43.5,143.4,43.5,141.6z"/>
	<path class="st3" d="M56.8,151.7c0-1.1-0.9-2-2-2s-2,0.9-2,2s0.9,2,2,2C55.9,153.7,56.8,152.8,56.8,151.7z"/>
	<path class="st8" d="M143.1,178.5c0-1.7-1.4-3.1-3.1-3.1s-3.1,1.4-3.1,3.1s1.4,3.1,3.1,3.1S143.1,180.2,143.1,178.5z"/>
	<path class="st8" d="M101.7,325.8c0-1.7-1.4-3.1-3.1-3.1s-3.1,1.4-3.1,3.1s1.4,3.1,3.1,3.1C100.3,328.9,101.7,327.5,101.7,325.8z"
		/>
	<path class="st3" d="M154.3,329.7c0-1.5-1.2-2.7-2.7-2.7s-2.7,1.2-2.7,2.7s1.2,2.7,2.7,2.7C153.1,332.4,154.3,331.2,154.3,329.7z"
		/>
	<path class="st3" d="M170.5,313.5c0-0.8-0.7-1.5-1.5-1.5s-1.5,0.7-1.5,1.5s0.7,1.5,1.5,1.5S170.5,314.4,170.5,313.5z"/>
	<path class="st41" d="M127,463.5c1.2-13.1,2.4-26.2,3.6-39.3c1.2-13.1,2.4-26.2,3.6-39.3c0.5-4.9-3.2-8.9-8.1-8.9H98.8v96.5h20
		C122.9,472.4,126.6,468.4,127,463.5z"/>
	<path class="st3" d="M43.1,240.4c0-1.7-1.4-3.1-3.1-3.1c-1.7,0-3.1,1.4-3.1,3.1s1.4,3.1,3.1,3.1C41.7,243.5,43.1,242.1,43.1,240.4z
		"/>
	<path class="st31" d="M232.5,342.7c0-1.7-1.4-3.1-3.1-3.1s-3.1,1.4-3.1,3.1s1.4,3.1,3.1,3.1S232.5,344.4,232.5,342.7z"/>
	<path class="st3" d="M262.3,304.8c0-0.8-0.6-1.4-1.4-1.4s-1.4,0.6-1.4,1.4s0.6,1.4,1.4,1.4C261.6,306.2,262.3,305.6,262.3,304.8z"
		/>
	<path class="st8" d="M98.8,424.1c0-1.7-1.4-3.1-3.1-3.1s-3.1,1.4-3.1,3.1s1.4,3.1,3.1,3.1C97.4,427.3,98.8,425.9,98.8,424.1z"/>
	<path class="st8" d="M574,388.5c0-0.9-0.7-1.6-1.6-1.6s-1.6,0.7-1.6,1.6s0.7,1.6,1.6,1.6S574,389.4,574,388.5z"/>
	<path class="st3" d="M641,299.2c0-0.9-0.7-1.6-1.6-1.6c-0.9,0-1.6,0.7-1.6,1.6s0.7,1.6,1.6,1.6C640.3,300.8,641,300.1,641,299.2z"
		/>
	<path class="st3" d="M772.3,223.4c0-1.7-1.4-3.1-3.1-3.1c-1.7,0-3.1,1.4-3.1,3.1s1.4,3.1,3.1,3.1
		C770.9,226.5,772.3,225.1,772.3,223.4z"/>
	<path class="st8" d="M736.6,386.5c0-1.7-1.4-3.1-3.1-3.1s-3.1,1.4-3.1,3.1s1.4,3.1,3.1,3.1S736.6,388.2,736.6,386.5z"/>
	<path class="st3" d="M594.3,190.2c0-1.2-1-2.2-2.2-2.2s-2.2,1-2.2,2.2s1,2.2,2.2,2.2S594.3,191.4,594.3,190.2z"/>
	<path class="st8" d="M588.7,439.8c0-0.9-0.7-1.6-1.6-1.6c-0.9,0-1.6,0.7-1.6,1.6s0.7,1.6,1.6,1.6S588.7,440.7,588.7,439.8z"/>
	<path class="st8" d="M616,412.3c0-1.2-0.9-2.1-2.1-2.1c-1.2,0-2.1,0.9-2.1,2.1s0.9,2.1,2.1,2.1C615,414.4,616,413.5,616,412.3z"/>
	<path class="st3" d="M852.8,229.2c0-1.2-0.9-2.1-2.1-2.1s-2.1,0.9-2.1,2.1c0,1.2,0.9,2.1,2.1,2.1S852.8,230.4,852.8,229.2z"/>
	<path class="st8" d="M798.9,443.1c0-0.7-0.5-1.2-1.2-1.2s-1.2,0.5-1.2,1.2s0.5,1.2,1.2,1.2C798.4,444.2,798.9,443.7,798.9,443.1z"
		/>
	<path class="st3" d="M569.6,142.6c0-0.7-0.5-1.2-1.2-1.2s-1.2,0.5-1.2,1.2s0.5,1.2,1.2,1.2S569.6,143.3,569.6,142.6z"/>
	<path class="st31" d="M557.7,91.4c0-0.9-0.7-1.6-1.6-1.6c-0.9,0-1.6,0.7-1.6,1.6s0.7,1.6,1.6,1.6S557.7,92.3,557.7,91.4z"/>
	<path class="st8" d="M356.9,26.5c0-0.9-0.7-1.6-1.6-1.6s-1.6,0.7-1.6,1.6s0.7,1.6,1.6,1.6C356.2,28,356.9,27.3,356.9,26.5z"/>
	<path class="st8" d="M63.8,433.1c0-0.5-0.4-0.8-0.8-0.8c-0.5,0-0.8,0.4-0.8,0.8c0,0.5,0.4,0.8,0.8,0.8
		C63.4,433.9,63.8,433.5,63.8,433.1z"/>
	<path class="st3" d="M645.7,166.1c0-1.7-1.4-3-3-3s-3,1.4-3,3c0,1.7,1.4,3,3,3S645.7,167.8,645.7,166.1z"/>
</g>
</svg>
