<?xml version="1.0" encoding="utf-8"?>
<!-- Generator: Adobe Illustrator 23.0.1, SVG Export Plug-In . SVG Version: 6.00 Build 0)  -->
<svg version="1.1" id="Calque_1" xmlns="http://www.w3.org/2000/svg" xmlns:xlink="http://www.w3.org/1999/xlink" x="0px" y="0px"
	 viewBox="0 0 800 600" style="enable-background:new 0 0 800 600;" xml:space="preserve">
<style type="text/css">
	.st0{fill:#FFFFFF;stroke:#671CC9;stroke-width:5;stroke-miterlimit:10;}
	.st1{fill:#EFEFEF;}
	.st2{fill:none;stroke:#671CC9;stroke-width:5;stroke-miterlimit:10;}
	.st3{fill:none;stroke:#671CC9;stroke-width:5;stroke-linecap:round;stroke-miterlimit:10;}
</style>
<path class="st0" d="M641.7,531.4H146.3c-1.3,0-2.3-1-2.3-2.3V70.9c0-1.3,1-2.3,2.3-2.3h507.4c1.3,0,2.3,1,2.3,2.3v446.2
	C656,525.1,649.6,531.4,641.7,531.4z"/>
<rect id="XMLID_5_" x="189" y="174.3" class="st1" width="235.6" height="19.5"/>
<rect id="XMLID_1_" x="189" y="209.2" class="st1" width="394.1" height="18.2"/>
<rect id="XMLID_2_" x="189" y="236.8" class="st1" width="304" height="20.3"/>
<rect id="XMLID_3_" x="189" y="266.8" class="st1" width="358.2" height="19.9"/>
<line class="st2" x1="144" y1="126" x2="656" y2="126"/>
<line class="st2" x1="144" y1="340.1" x2="656" y2="340.1"/>
<line class="st2" x1="144" y1="404.1" x2="656" y2="404.1"/>
<line class="st2" x1="144" y1="465.3" x2="656" y2="465.3"/>
<g>
	<line class="st3" x1="611.5" y1="374.8" x2="591.1" y2="374.8"/>
	<line class="st3" x1="601.3" y1="385.1" x2="601.3" y2="364.7"/>
</g>
<g>
	<line class="st3" x1="608.5" y1="105.2" x2="594.1" y2="90.8"/>
	<line class="st3" x1="594.1" y1="105.2" x2="608.5" y2="90.8"/>
</g>
<g>
	<line class="st3" x1="611.7" y1="434.8" x2="591.3" y2="434.8"/>
	<line class="st3" x1="601.5" y1="445.1" x2="601.5" y2="424.7"/>
</g>
<g>
	<line class="st3" x1="611.5" y1="495.3" x2="591.1" y2="495.3"/>
	<line class="st3" x1="601.3" y1="505.4" x2="601.3" y2="485.1"/>
</g>
</svg>
