<?xml version="1.0" encoding="utf-8"?>
<!-- Generator: Adobe Illustrator 23.0.1, SVG Export Plug-In . SVG Version: 6.00 Build 0)  -->
<svg version="1.1" id="Calque_1" xmlns="http://www.w3.org/2000/svg" xmlns:xlink="http://www.w3.org/1999/xlink" x="0px" y="0px"
	 viewBox="0 0 800 600" style="enable-background:new 0 0 800 600;" xml:space="preserve">
<style type="text/css">
	.st0{fill:#FFFFFF;stroke:#671CC9;stroke-width:5;stroke-miterlimit:10;}
	.st1{fill:#EFEFEF;}
	.st2{fill:none;stroke:#7F00FF;stroke-width:5;stroke-miterlimit:10;}
</style>
<g>
	<g>
		<path class="st0" d="M277.7,452H33.6c-7.9,0-14.3-6.4-14.3-14.3V162.3c0-7.9,6.4-14.3,14.3-14.3h244.1c7.9,0,14.3,6.4,14.3,14.3
			v275.3C292.1,445.6,285.6,452,277.7,452z"/>
		<rect id="XMLID_3_" x="79.2" y="253.7" class="st1" width="160.6" height="11.3"/>
		<rect id="XMLID_4_" x="53.7" y="294.3" class="st1" width="211.6" height="11.3"/>
		<rect id="XMLID_6_" x="53.7" y="325.3" class="st1" width="211.6" height="11.3"/>
		<rect id="XMLID_7_" x="53.7" y="356.3" class="st1" width="211.6" height="11.3"/>
		<rect id="XMLID_8_" x="53.7" y="387.3" class="st1" width="160.6" height="11.3"/>
		<circle class="st0" cx="148.7" cy="164.1" r="48.5"/>
	</g>
	<g>
		<path class="st0" d="M766.4,452H522.3c-7.9,0-14.3-6.4-14.3-14.3V162.3c0-7.9,6.4-14.3,14.3-14.3h244.1c7.9,0,14.3,6.4,14.3,14.3
			v275.3C780.6,445.6,774.3,452,766.4,452z"/>
		<rect id="XMLID_11_" x="538.6" y="325.3" class="st1" width="211.6" height="11.3"/>
		<rect id="XMLID_10_" x="538.6" y="356.3" class="st1" width="211.6" height="11.3"/>
		<rect id="XMLID_9_" x="538.6" y="387.3" class="st1" width="160.6" height="11.3"/>
		<line class="st2" x1="507.9" y1="286.3" x2="780.6" y2="259"/>
	</g>
	<g>
		<path class="st0" d="M564.9,500H234.7c-7.9,0-14.3-6.4-14.3-14.3V114.3c0-7.9,6.4-14.3,14.3-14.3h330.2c7.9,0,14.3,6.4,14.3,14.3
			v371.3C579.3,493.6,572.9,500,564.9,500z"/>
		<rect id="XMLID_5_" x="264.2" y="314" class="st1" width="262.7" height="22.6"/>
		<rect id="XMLID_1_" x="264.2" y="358" class="st1" width="262.7" height="22.6"/>
		<rect id="XMLID_2_" x="264.2" y="402" class="st1" width="262.7" height="22.6"/>
		<line class="st0" x1="220.5" y1="270" x2="579.3" y2="270"/>
		<g>
			<polygon class="st0" points="324.9,229.8 371.9,189.1 391.9,209.5 433.9,164.1 474.9,229.8 			"/>
			<circle class="st0" cx="371" cy="153.3" r="14.1"/>
		</g>
	</g>
</g>
</svg>
