<?xml version="1.0" encoding="utf-8"?>
<!-- Generator: Adobe Illustrator 19.0.0, SVG Export Plug-In . SVG Version: 6.00 Build 0)  -->
<svg version="1.1" id="Calque_1" xmlns="http://www.w3.org/2000/svg" xmlns:xlink="http://www.w3.org/1999/xlink" x="0px" y="0px"
	 viewBox="-599 686 800 600" style="enable-background:new -599 686 800 600;" xml:space="preserve">
<style type="text/css">
	.st0{fill:#FFFFFF;stroke:#7F00FF;stroke-width:5;stroke-miterlimit:10;}
</style>
<path class="st0" d="M135.2,1071.2H5.9c-8.1,0-14.7-6.6-14.7-14.7V927.3c0-8.1,6.6-14.7,14.7-14.7h129.3c8.1,0,14.7,6.6,14.7,14.7
	v129.3C149.9,1064.6,143.3,1071.2,135.2,1071.2z"/>
<path class="st0" d="M-403.9,1071.2h-129.3c-8.1,0-14.7-6.6-14.7-14.7V927.3c0-8.1,6.6-14.7,14.7-14.7h129.3
	c8.1,0,14.7,6.6,14.7,14.7v129.3C-389.3,1064.6-395.8,1071.2-403.9,1071.2z"/>
<path class="st0" d="M55.9,1104.5h-195.8c-8.1,0-14.7-6.6-14.7-14.7V894c0-8.1,6.6-14.7,14.7-14.7H55.9c8.1,0,14.7,6.6,14.7,14.7
	v195.8C70.6,1097.9,64,1104.5,55.9,1104.5z"/>
<path class="st0" d="M-258.1,1104.5h-195.8c-8.1,0-14.7-6.6-14.7-14.7V894c0-8.1,6.6-14.7,14.7-14.7h195.8c8.1,0,14.7,6.6,14.7,14.7
	v195.8C-243.4,1097.9-250,1104.5-258.1,1104.5z"/>
<path class="st0" d="M-56.7,1143h-284.7c-8.1,0-14.7-6.6-14.7-14.7V843.7c0-8.1,6.6-14.7,14.7-14.7h284.7c8.1,0,14.7,6.6,14.7,14.7
	v284.7C-42,1136.4-48.6,1143-56.7,1143z"/>
<circle class="st0" cx="-199" cy="1109.3" r="8.8"/>
<circle class="st0" cx="-167.5" cy="1109.3" r="8.8"/>
<circle class="st0" cx="-229.3" cy="1109.3" r="8.8"/>
</svg>
