<?xml version="1.0" encoding="utf-8"?>
<!-- Generator: Adobe Illustrator 19.0.0, SVG Export Plug-In . SVG Version: 6.00 Build 0)  -->
<svg version="1.1" id="Calque_1" xmlns="http://www.w3.org/2000/svg" xmlns:xlink="http://www.w3.org/1999/xlink" x="0px" y="0px"
	 viewBox="-399 -106 800 600" style="enable-background:new -399 -106 800 600;" xml:space="preserve">
<style type="text/css">
	.st0{fill:#FFFFFF;stroke:#7F00FF;stroke-width:5;stroke-miterlimit:10;}
	.st1{fill:#F4F4F4;}
</style>
<path class="st0" d="M240.4,273h-465V24.4c0-8.4,6.8-15.1,15.1-15.1h434.7c8.4,0,15.1,6.8,15.1,15.1V273z"/>
<line class="st0" x1="-224.6" y1="53" x2="240.4" y2="53"/>
<circle class="st0" cx="-190.6" cy="31.4" r="5.6"/>
<circle class="st0" cx="-166.3" cy="31.4" r="5.6"/>
<circle class="st0" cx="-141.9" cy="31.4" r="5.6"/>
<path class="st0" d="M225.4,371h-435c-7.1,0-12.8-5.7-12.8-12.8V298h460.6v60.2C238.2,365.3,232.5,371,225.4,371z"/>
<rect x="-190.6" y="82" class="st1" width="235.6" height="21"/>
<circle class="st0" cx="-162" cy="149" r="23"/>
<line class="st0" x1="-107" y1="149" x2="164" y2="149"/>
<line class="st0" x1="-107" y1="186" x2="114" y2="186"/>
<line class="st0" x1="-107" y1="223" x2="7.9" y2="223"/>
</svg>
