<?xml version="1.0" encoding="utf-8"?>
<!-- Generator: Adobe Illustrator 23.0.1, SVG Export Plug-In . SVG Version: 6.00 Build 0)  -->
<svg version="1.1" id="Calque_1" xmlns="http://www.w3.org/2000/svg" xmlns:xlink="http://www.w3.org/1999/xlink" x="0px" y="0px"
	 viewBox="0 0 800 600" style="enable-background:new 0 0 800 600;" xml:space="preserve">
<style type="text/css">
	.st0{fill:#323236;stroke:#797BF2;stroke-width:5;stroke-miterlimit:10;}
	.st1{fill:#585868;}
	.st2{fill:#797BF2;}
</style>
<path class="st0" d="M593.8,550.5H206.4c-5.9,0-10.7-4.8-10.7-10.7V60.2c0-5.9,4.8-10.7,10.7-10.7h387.2c5.9,0,10.7,4.8,10.7,10.7
	v479.7C604.4,545.7,599.6,550.5,593.8,550.5z"/>
<path class="st0" d="M556.4,207.5H243.9c-1.8,0-3.3-1.5-3.3-3.3v-39.5c0-1.8,1.5-3.3,3.3-3.3h312.5c1.8,0,3.3,1.5,3.3,3.3v39.5
	C559.6,206,558.1,207.5,556.4,207.5z"/>
<path class="st0" d="M556.4,293H243.9c-1.8,0-3.3-1.5-3.3-3.3v-39.5c0-1.8,1.5-3.3,3.3-3.3h312.5c1.8,0,3.3,1.5,3.3,3.3v39.5
	C559.6,291.5,558.1,293,556.4,293z"/>
<path class="st0" d="M556.4,380.1H243.9c-1.8,0-3.3-1.5-3.3-3.3v-39.5c0-1.8,1.5-3.3,3.3-3.3h312.5c1.8,0,3.3,1.5,3.3,3.3v39.5
	C559.6,378.6,558.1,380.1,556.4,380.1z"/>
<rect id="XMLID_4_" x="240.6" y="95.1" class="st1" width="159.5" height="15.3"/>
<circle class="st0" cx="259.8" cy="428.5" r="12.3"/>
<circle class="st2" cx="259.8" cy="428.5" r="6"/>
<circle class="st0" cx="373.1" cy="428.5" r="12.3"/>
<circle class="st0" cx="486.1" cy="428.5" r="12.3"/>
<rect x="450.8" y="481.5" class="st0" width="108.8" height="40"/>
</svg>
