<?xml version="1.0" encoding="utf-8"?>
<!-- Generator: Adobe Illustrator 19.0.0, SVG Export Plug-In . SVG Version: 6.00 Build 0)  -->
<svg version="1.1" id="Calque_1" xmlns="http://www.w3.org/2000/svg" xmlns:xlink="http://www.w3.org/1999/xlink" x="0px" y="0px"
	 viewBox="-599 686 800 600" style="enable-background:new -599 686 800 600;" xml:space="preserve">
<style type="text/css">
	.st0{fill:#FFFFFF;stroke:#7F00FF;stroke-width:5;stroke-miterlimit:10;}
</style>
<g>
	<path class="st0" d="M-321.1,974.1h-172.8c-4.5,0-8.1-3.6-8.1-8.1V838.8c0-4.5,3.6-8.1,8.1-8.1h172.8c4.5,0,8.1,3.6,8.1,8.1V966
		C-313,970.5-316.6,974.1-321.1,974.1z"/>
	<path class="st0" d="M95.9,920.1H-76.9c-4.5,0-8.1-3.6-8.1-8.1v-73.2c0-4.5,3.6-8.1,8.1-8.1H95.9c4.5,0,8.1,3.6,8.1,8.1V912
		C104,916.5,100.4,920.1,95.9,920.1z"/>
	<path class="st0" d="M95.9,1141.4H-76.9c-4.5,0-8.1-3.6-8.1-8.1V949.4c0-4.5,3.6-8.1,8.1-8.1H95.9c4.5,0,8.1,3.6,8.1,8.1v183.8
		C104,1137.7,100.4,1141.4,95.9,1141.4z"/>
	<path class="st0" d="M-321.1,1141.4h-172.8c-4.5,0-8.1-3.6-8.1-8.1V1006c0-4.5,3.6-8.1,8.1-8.1h172.8c4.5,0,8.1,3.6,8.1,8.1v127.2
		C-313,1137.7-316.6,1141.4-321.1,1141.4z"/>
	<path class="st0" d="M-110.1,1141.4h-172.8c-4.5,0-8.1-3.6-8.1-8.1V838.8c0-4.5,3.6-8.1,8.1-8.1h172.8c4.5,0,8.1,3.6,8.1,8.1v294.5
		C-102,1137.7-105.6,1141.4-110.1,1141.4z"/>
</g>
</svg>
