<?xml version="1.0" encoding="utf-8"?>
<!-- Generator: Adobe Illustrator 19.0.0, SVG Export Plug-In . SVG Version: 6.00 Build 0)  -->
<svg version="1.1" id="Calque_1" xmlns="http://www.w3.org/2000/svg" xmlns:xlink="http://www.w3.org/1999/xlink" x="0px" y="0px"
	 viewBox="-599 686 800 600" style="enable-background:new -599 686 800 600;" xml:space="preserve">
<style type="text/css">
	.st0{fill:#FFFFFF;stroke:#7F00FF;stroke-width:5;stroke-miterlimit:10;}
</style>
<path class="st0" d="M-336.9,1141.2h-202c-4.7,0-8.5-3.8-8.5-8.5V839.2c0-4.7,3.8-8.5,8.5-8.5h202c4.7,0,8.5,3.8,8.5,8.5v293.5
	C-328.4,1137.4-332.2,1141.2-336.9,1141.2z"/>
<path class="st0" d="M-98,1141.2h-202c-4.7,0-8.5-3.8-8.5-8.5V839.2c0-4.7,3.8-8.5,8.5-8.5h202c4.7,0,8.5,3.8,8.5,8.5v293.5
	C-89.5,1137.4-93.3,1141.2-98,1141.2z"/>
<path class="st0" d="M140.9,1141.2h-202c-4.7,0-8.5-3.8-8.5-8.5V839.2c0-4.7,3.8-8.5,8.5-8.5h202c4.7,0,8.5,3.8,8.5,8.5v293.5
	C149.4,1137.4,145.6,1141.2,140.9,1141.2z"/>
<line class="st0" x1="-547.4" y1="882.3" x2="-328.4" y2="882.3"/>
<line class="st0" x1="-308.5" y1="882.3" x2="-89.5" y2="882.3"/>
<line class="st0" x1="-69.6" y1="882.3" x2="149.4" y2="882.3"/>
<path class="st0" d="M-392.9,1125h-90c-10.1,0-18.3-8.2-18.3-18.3l0,0c0-10.1,8.2-18.3,18.3-18.3h90c10.1,0,18.3,8.2,18.3,18.3l0,0
	C-374.6,1116.8-382.8,1125-392.9,1125z"/>
<path class="st0" d="M-154,1125h-90c-10.1,0-18.3-8.2-18.3-18.3l0,0c0-10.1,8.2-18.3,18.3-18.3h90c10.1,0,18.3,8.2,18.3,18.3l0,0
	C-135.7,1116.8-143.9,1125-154,1125z"/>
<path class="st0" d="M84.9,1125h-90c-10.1,0-18.3-8.2-18.3-18.3l0,0c0-10.1,8.2-18.3,18.3-18.3h90c10.1,0,18.3,8.2,18.3,18.3l0,0
	C103.2,1116.8,95,1125,84.9,1125z"/>
<circle class="st0" cx="-437.9" cy="937.2" r="30.7"/>
<circle class="st0" cx="-199" cy="937.2" r="30.7"/>
<circle class="st0" cx="39.9" cy="937.2" r="30.7"/>
<line class="st0" x1="-492.9" y1="997" x2="-382.9" y2="997"/>
<line class="st0" x1="-492.9" y1="1026.3" x2="-382.9" y2="1026.3"/>
<line class="st0" x1="-492.9" y1="1055.7" x2="-382.9" y2="1055.7"/>
<line class="st0" x1="-254" y1="997" x2="-144" y2="997"/>
<line class="st0" x1="-254" y1="1026.3" x2="-144" y2="1026.3"/>
<line class="st0" x1="-254" y1="1055.7" x2="-144" y2="1055.7"/>
<line class="st0" x1="-15.1" y1="997" x2="94.9" y2="997"/>
<line class="st0" x1="-15.1" y1="1026.3" x2="94.9" y2="1026.3"/>
<line class="st0" x1="-15.1" y1="1055.7" x2="94.9" y2="1055.7"/>
</svg>
