<?xml version="1.0" encoding="utf-8"?>
<!-- Generator: Adobe Illustrator 23.0.1, SVG Export Plug-In . SVG Version: 6.00 Build 0)  -->
<svg version="1.1" id="Calque_1" xmlns="http://www.w3.org/2000/svg" xmlns:xlink="http://www.w3.org/1999/xlink" x="0px" y="0px"
	 viewBox="0 0 800 600" style="enable-background:new 0 0 800 600;" xml:space="preserve">
<style type="text/css">
	.st0{fill:#FFFFFF;stroke:#671CC9;stroke-width:5;stroke-miterlimit:10;}
	.st1{fill:#EFEFEF;}
	.st2{fill:#671CC9;}
</style>
<path id="XMLID_1_" class="st0" d="M683.4,540.5H116.6c-14.4,0-26.1-7.9-26.1-17.8V77.3c0-9.8,11.6-17.8,26.1-17.8h566.8
	c14.4,0,26.1,7.9,26.1,17.8v445.5C709.4,532.6,697.8,540.5,683.4,540.5z"/>
<rect id="XMLID_5_" x="158" y="238.8" class="st1" width="483" height="33"/>
<path id="XMLID_8_" class="st1" d="M324.1,107.5h151.7c8.4,0,15.3,6.8,15.3,15.3v6.2c0,8.4-6.8,15.3-15.3,15.3H324.1
	c-8.4,0-15.3-6.8-15.3-15.3v-6.2C308.9,114.3,315.7,107.5,324.1,107.5z"/>
<rect id="XMLID_7_" x="158" y="303.8" class="st1" width="400" height="33"/>
<rect id="XMLID_3_" x="158" y="367.8" class="st1" width="292" height="33"/>
<rect id="XMLID_4_" x="158" y="433.8" class="st1" width="421" height="33"/>
<path class="st2" d="M385.2,141h-57.9c-8.4,0-15.3-6.8-15.3-15.3v0c0-8.4,6.8-15.3,15.3-15.3h57.9c8.4,0,15.3,6.8,15.3,15.3v0
	C400.4,134.2,393.6,141,385.2,141z"/>
</svg>
