<?xml version="1.0" encoding="utf-8"?>
<!-- Generator: Adobe Illustrator 23.0.1, SVG Export Plug-In . SVG Version: 6.00 Build 0)  -->
<svg version="1.1" id="Calque_1" xmlns="http://www.w3.org/2000/svg" xmlns:xlink="http://www.w3.org/1999/xlink" x="0px" y="0px"
	 viewBox="0 0 800 600" style="enable-background:new 0 0 800 600;" xml:space="preserve">
<style type="text/css">
	.st0{fill:#FFFFFF;stroke:#671CC9;stroke-width:5;stroke-miterlimit:10;}
	.st1{fill:#EFEFEF;}
</style>
<path class="st0" d="M685.1,475.6H114.9c-6.9,0-12.6-5.6-12.6-12.6V136.9c0-6.9,5.6-12.6,12.6-12.6h570.2c6.9,0,12.6,5.6,12.6,12.6
	v326.1C697.6,470,692,475.6,685.1,475.6z"/>
<rect id="XMLID_5_" x="153.1" y="251.9" class="st1" width="314.7" height="22.9"/>
<rect id="XMLID_1_" x="153.1" y="288.8" class="st1" width="228" height="22.9"/>
<rect id="XMLID_2_" x="153.1" y="325.6" class="st1" width="421.9" height="22.9"/>
<rect id="XMLID_3_" x="153.1" y="362.5" class="st1" width="475.5" height="22.9"/>
<rect id="XMLID_4_" x="153.1" y="398.1" class="st1" width="314.7" height="22.9"/>
<path class="st0" d="M216.1,193.3h-56.4c-3.6,0-6.6-2.9-6.6-6.6v-20.3c0-3.6,2.9-6.6,6.6-6.6h56.4c3.6,0,6.6,2.9,6.6,6.6v20.3
	C222.7,190.3,219.7,193.3,216.1,193.3z"/>
<path class="st0" d="M300.6,193.3h-56.4c-3.6,0-6.6-2.9-6.6-6.6v-20.3c0-3.6,2.9-6.6,6.6-6.6h56.4c3.6,0,6.6,2.9,6.6,6.6v20.3
	C307.1,190.3,304.2,193.3,300.6,193.3z"/>
<path class="st0" d="M521.1,193.3h-56.4c-3.6,0-6.6-2.9-6.6-6.6v-20.3c0-3.6,2.9-6.6,6.6-6.6h56.4c3.6,0,6.6,2.9,6.6,6.6v20.3
	C527.7,190.3,524.7,193.3,521.1,193.3z"/>
<path class="st0" d="M644.7,193.3h-97.9c-3.6,0-6.6-2.9-6.6-6.6v-20.3c0-3.6,2.9-6.6,6.6-6.6h97.9c3.6,0,6.6,2.9,6.6,6.6v20.3
	C651.3,190.3,648.3,193.3,644.7,193.3z"/>
<path class="st0" d="M438.4,193.3H328.6c-3.6,0-6.6-2.9-6.6-6.6v-20.3c0-3.6,2.9-6.6,6.6-6.6h109.7c3.6,0,6.6,2.9,6.6,6.6v20.3
	C444.9,190.3,442,193.3,438.4,193.3z"/>
</svg>
