<?xml version="1.0" encoding="utf-8"?>
<!-- Generator: Adobe Illustrator 19.0.0, SVG Export Plug-In . SVG Version: 6.00 Build 0)  -->
<svg version="1.1" id="Calque_1" xmlns="http://www.w3.org/2000/svg" xmlns:xlink="http://www.w3.org/1999/xlink" x="0px" y="0px"
	 viewBox="-399 -106 800 600" style="enable-background:new -399 -106 800 600;" xml:space="preserve">
<style type="text/css">
	.st0{fill:#FFFFFF;}
</style>
<g>
	<g>
		<path class="st0" d="M-84,52c0.5,0.8,0.8,1.9,0.8,3.3c0,2.6-0.6,4.7-1.9,6.2c-6.6,8.1-13.6,12.1-21.1,12.1
			c-6.5,0-11.6-2.5-15.5-7.5c-3.9-5-5.8-12.2-5.8-21.5c0-2.3,0.1-4.5,0.3-6.8c-4.4,0.8-9.2,1.4-14.4,1.8c-3.5,0.3-5.8,0.4-7.1,0.5
			c-1.3,6.8-3.2,15.1-5.6,25c-1.4,5.8-4.1,8.7-8,8.7c-4.3,0-6.4-1.9-6.4-5.8c0-0.9,0.2-2.1,0.5-3.6c2.3-9.1,4.1-16.9,5.4-23.2
			l-4.8,0.2c-2.2,0-3.8-0.4-4.8-1.1c-1-0.8-1.5-2-1.5-3.8c0-2.2,0.6-3.8,1.9-4.9c1.3-1,3.4-1.6,6.3-1.8l5.3-0.2
			c1.7-9.4,2.6-16.6,2.6-21.5c0-3.1-0.5-5.3-1.4-6.4c-0.9-1.1-2.2-1.7-3.7-1.7c-4.7,0-9.9,3.9-15.8,11.7c-0.9,1.1-1.8,1.7-2.9,1.7
			c-0.9,0-1.7-0.4-2.4-1.3c-0.7-0.9-1-2-1-3.3c0-2.1,0.8-4.3,2.5-6.6c2.9-4.1,6.6-7.4,11.1-10c4.5-2.6,9-4,13.6-4
			c4.3,0,7.7,1.5,10,4.5c2.4,3,3.6,7.6,3.6,13.8c0,5.5-0.8,13-2.4,22.5l9.8-0.5c4.2-0.2,7.8-0.5,10.8-1c1.2-7.3,3-14.2,5.5-20.6
			c2.5-6.4,5.5-11.6,9.2-15.6c3.7-4,7.8-6,12.3-6c3.3,0,6,1.3,7.9,4c1.9,2.6,2.9,6.1,2.9,10.4c0,16.5-8.4,28-25.3,34.4
			c-0.2,2.7-0.3,5.4-0.3,8.3c0,7,0.9,12,2.6,14.9c1.7,2.9,4.2,4.4,7.3,4.4c2.7,0,5.2-0.7,7.5-2.2c2.3-1.4,4.8-3.9,7.7-7.3
			c0.8-0.9,1.7-1.4,2.7-1.4C-85.2,50.8-84.5,51.3-84,52z M-104.2-1.9c-1.6,2.7-3.2,6.3-4.7,10.9c-1.5,4.6-2.6,9.6-3.5,15.1
			c5.3-2.2,9.3-5.3,11.8-9.4c2.5-4.1,3.8-9.3,3.8-15.7c0-1.5-0.3-2.7-0.8-3.6c-0.5-0.9-1.2-1.3-2-1.3
			C-101.1-5.9-102.6-4.5-104.2-1.9z"/>
		<path class="st0" d="M-31.8,52c0.5,0.8,0.8,1.9,0.8,3.3c0,2.7-0.6,4.7-1.9,6.2c-2.5,3-5.9,5.8-10.4,8.3c-4.5,2.5-9.3,3.8-14.5,3.8
			c-7,0-12.4-1.9-16.3-5.7c-3.9-3.8-5.8-9-5.8-15.6c0-4.6,1-8.9,2.9-12.8c1.9-4,4.6-7.1,8-9.5c3.4-2.3,7.3-3.5,11.7-3.5
			c3.9,0,7,1.1,9.3,3.5c2.3,2.3,3.5,5.4,3.5,9.3c0,4.6-1.7,8.5-5,11.8c-3.3,3.3-8.9,5.9-16.8,7.9c1.7,3.1,4.8,4.6,9.5,4.6
			c3,0,6.4-1,10.3-3.1c3.8-2.1,7.2-4.9,10-8.3c0.8-0.9,1.7-1.4,2.7-1.4C-32.9,50.8-32.3,51.3-31.8,52z M-65.3,40.6
			C-67,43.5-67.8,47-67.8,51v0.2c3.9-0.9,7-2.3,9.3-4.2c2.3-1.9,3.4-4,3.4-6.5c0-1.3-0.4-2.3-1.1-3c-0.7-0.8-1.6-1.2-2.8-1.2
			C-61.5,36.3-63.5,37.8-65.3,40.6z"/>
		<path class="st0" d="M-37.2,69.1c-2.5-3-3.7-6.9-3.7-11.8c0-5.3,1.2-10.4,3.7-15.2c2.5-4.8,5.8-8.6,9.8-11.5
			c4.1-2.9,8.5-4.3,13-4.3c1.5,0,2.5,0.3,3,0.8c0.5,0.6,0.9,1.6,1.3,3.1c1.4-0.3,2.9-0.4,4.4-0.4c3.3,0,4.9,1.2,4.9,3.5
			c0,1.4-0.5,4.7-1.5,10c-1.5,7.7-2.3,13-2.3,16c0,1,0.3,1.8,0.8,2.4c0.5,0.6,1.2,0.9,2,0.9c1.3,0,2.8-0.8,4.6-2.5
			c1.8-1.6,4.2-4.3,7.3-7.9c0.8-0.9,1.7-1.4,2.7-1.4c0.9,0,1.6,0.4,2.1,1.2s0.8,1.9,0.8,3.3c0,2.7-0.6,4.7-1.9,6.2
			c-2.7,3.4-5.6,6.3-8.7,8.6c-3.1,2.3-6,3.5-8.9,3.5c-2.2,0-4.2-0.8-6-2.3c-1.8-1.5-3.2-3.5-4.1-6.1c-3.5,5.6-7.8,8.4-13.1,8.4
			C-31.4,73.6-34.7,72.1-37.2,69.1z M-19.5,60.9c1.3-1.7,2.3-4,2.9-6.9l3.7-18.4c-2.8,0.1-5.4,1.1-7.8,3.2c-2.4,2-4.3,4.7-5.7,8
			c-1.4,3.3-2.1,6.9-2.1,10.6c0,2.1,0.4,3.6,1.3,4.6c0.8,1,2,1.5,3.5,1.5C-22.2,63.5-20.8,62.7-19.5,60.9z"/>
		<path class="st0" d="M66.2,52c0.5,0.8,0.8,1.9,0.8,3.3c0,2.7-0.6,4.7-1.9,6.2c-2.7,3.3-5.7,6.2-9,8.5c-3.3,2.4-6.5,3.5-9.7,3.5
			c-5.1,0-8.9-3-11.6-8.9c-2.8,3.5-5.3,5.9-7.4,7.1c-2.1,1.2-4.5,1.8-7.3,1.8c-4.1,0-7.4-1.5-10-4.5c-2.6-3-4-7-4-11.8
			c0-5.3,1.1-10.3,3.4-14.9c2.3-4.6,5.4-8.3,9.3-11.2c4-2.9,8.4-4.6,13.3-5.1c1.3-12.9,3.7-24,7.3-33.2c3.6-9.2,8.3-13.8,14.1-13.8
			c2.9,0,5.3,1.3,7.1,3.9c1.9,2.6,2.9,6.5,2.9,11.8C63.5,2.3,61.7,11,58,21c-3.7,10-8.6,20.3-14.7,30.8c0.3,3.9,0.8,6.6,1.8,8.3
			c0.9,1.7,2,2.5,3.5,2.5c1.8,0,3.6-0.8,5.5-2.4c1.9-1.6,4.4-4.3,7.5-8c0.8-0.9,1.7-1.4,2.7-1.4C65.1,50.8,65.7,51.3,66.2,52z
			 M27.4,62c1.3-1,2.9-3,4.8-5.8c-0.7-3.6-1-7.6-1-12.1c0-1.6,0.1-4.2,0.2-7.8c-3.7,1.1-6.7,3.6-9.1,7.3c-2.4,3.8-3.7,8-3.7,12.6
			c0,4.9,1.7,7.3,5,7.3C24.9,63.5,26.1,63,27.4,62z M48.6-4.3c-1.3,4.5-2.3,10.4-3.3,17.7c-0.9,7.3-1.5,14.9-2,22.8
			C50.9,19.9,54.6,6.8,54.6-3.1c0-2.5-0.2-4.5-0.7-5.9c-0.4-1.4-0.9-2.1-1.5-2.1C51.1-11.1,49.9-8.8,48.6-4.3z"/>
		<path class="st0" d="M61.7,69c-2-3.1-3-7.1-3-12.2c0-3,0.4-6.8,1.1-11.5c0.8-4.7,1.8-9.1,3-13.2c0.6-2.1,1.4-3.6,2.4-4.4
			c1-0.8,2.6-1.2,4.8-1.2c3.4,0,5.1,1.1,5.1,3.4c0,1.7-0.6,5.5-1.9,11.6c-1.6,7.3-2.4,12.3-2.4,14.9c0,2,0.3,3.5,0.8,4.6
			c0.5,1.1,1.4,1.6,2.7,1.6c1.2,0,2.7-0.8,4.5-2.5c1.8-1.7,4.2-4.3,7.2-7.9c0.8-0.9,1.7-1.4,2.7-1.4c0.9,0,1.5,0.4,2,1.2
			s0.8,1.9,0.8,3.3c0,2.7-0.6,4.7-1.9,6.2c-6.6,8.1-12.8,12.1-18.5,12.1C66.9,73.6,63.7,72.1,61.7,69z M65.7,18
			c-1.4-1.3-2.1-3.1-2.1-5.5c0-2.3,0.9-4.3,2.8-5.9c1.8-1.6,4.1-2.3,6.8-2.3c2.5,0,4.5,0.6,6,1.8c1.5,1.2,2.3,2.9,2.3,5.1
			c0,2.7-0.9,4.8-2.6,6.3c-1.7,1.6-4,2.3-6.9,2.3C69.2,19.9,67.1,19.3,65.7,18z"/>
		<path class="st0" d="M85.2,69.6c-1-2.7-1.5-6.9-1.5-12.8c0-8.7,1.2-16.9,3.7-24.7c0.6-1.9,1.6-3.3,3-4.3c1.4-0.9,3.3-1.3,5.8-1.3
			c1.3,0,2.3,0.2,2.8,0.5c0.5,0.3,0.8,1,0.8,1.9c0,1.1-0.5,3.5-1.5,7.2c-0.7,2.7-1.2,5-1.6,7c-0.4,2-0.7,4.5-1,7.4
			c2.2-5.7,4.7-10.4,7.4-14c2.7-3.6,5.4-6.2,8-7.7c2.6-1.5,5.1-2.3,7.3-2.3c4.3,0,6.5,2.2,6.5,6.5c0,2.6-0.7,7.3-2.2,14.1
			c-1.3,5.8-1.9,9.6-1.9,11.5c0,2.7,1,4,2.9,4c1.3,0,2.9-0.8,4.8-2.5c1.8-1.6,4.3-4.3,7.3-7.9c0.8-0.9,1.7-1.4,2.7-1.4
			c0.9,0,1.5,0.4,2,1.2s0.8,1.9,0.8,3.3c0,2.7-0.6,4.7-1.9,6.2c-2.9,3.5-5.9,6.4-9.3,8.7c-3.3,2.3-7,3.4-11.3,3.4c-3.4,0-6-1-7.7-3
			c-1.7-2-2.6-4.8-2.6-8.5c0-1.9,0.5-5.2,1.4-10c0.9-4.2,1.3-7.1,1.3-8.7c0-1.1-0.4-1.6-1.1-1.6c-0.9,0-2.1,1.1-3.7,3.3
			c-1.6,2.2-3.2,5.2-4.8,8.9c-1.6,3.7-3,7.5-4,11.6c-0.7,3.1-1.6,5.3-2.5,6.4c-1,1.1-2.5,1.6-4.5,1.6C88.1,73.6,86.3,72.3,85.2,69.6
			z"/>
		<path class="st0" d="M186.3,52.3c0.5,0.8,0.8,1.9,0.8,3.1c0,1.5-0.2,2.7-0.7,3.6c-0.5,0.9-1.2,1.6-2.2,2.3
			c-5.7,3.9-9.9,6.7-12.6,8.6l-6.4,4.3c-2.5,13.8-5.9,24.6-10,32.5c-4.1,7.9-9.3,11.8-15.7,11.8c-3.4,0-6.2-1-8.3-3.1
			c-2.1-2.1-3.2-4.9-3.2-8.3c0-4.7,1.9-9.8,5.6-15.3c3.7-5.4,10.7-12.1,21-20.1l0.6-3.9c-1.1,1.8-2.6,3.2-4.5,4.1
			c-1.8,1-3.6,1.5-5.5,1.5c-4.1,0-7.4-1.5-9.9-4.5c-2.5-3-3.7-6.9-3.7-11.8c0-5.3,1.2-10.4,3.7-15.2c2.5-4.8,5.8-8.6,9.8-11.5
			c4.1-2.9,8.5-4.3,13-4.3c1.5,0,2.5,0.3,3,0.8c0.5,0.6,0.9,1.6,1.3,3.1c1.3-0.3,2.7-0.4,4.4-0.4c1.7,0,2.8,0.3,3.5,0.8s1,1.5,1,3
			c0,0.8,0,1.4-0.1,1.9c-0.3,2.1-1.1,7.3-2.5,15.7c-0.3,1.6-0.5,3.4-0.9,5.3c-0.3,1.9-0.6,3.9-0.9,6c5.1-4,10.1-7.5,14.8-10.6
			c0.9-0.5,1.6-0.8,2.3-0.8C185.2,51,185.8,51.5,186.3,52.3z M146.3,102.9c2.1-4,4.1-10.4,6-19.1c-5.1,4.4-8.8,8.4-11.1,11.9
			c-2.3,3.5-3.4,6.6-3.4,9.3c0,1.1,0.2,2.1,0.7,2.8c0.4,0.7,1.2,1.1,2.2,1.1C142.4,108.9,144.2,106.9,146.3,102.9z M153.4,60.8
			c1.4-1.9,2.4-4.5,3-8l3.2-17.1c-2.7,0.1-5.3,1.1-7.6,3.2c-2.3,2-4.2,4.7-5.6,8c-1.4,3.3-2.1,6.9-2.1,10.6c0,2.1,0.4,3.6,1.3,4.6
			c0.8,1,2,1.5,3.5,1.5C150.5,63.5,152,62.6,153.4,60.8z"/>
	</g>
	<g>
		<path class="st0" d="M-57.3,182.1c0.3,0.5,0.5,1.3,0.5,2.3c0,1.8-0.4,3.2-1.3,4.2c-4.5,5.5-9.3,8.3-14.5,8.3
			c-4.4,0-8-1.7-10.6-5.1c-2.6-3.4-4-8.3-4-14.7c0-1.6,0.1-3.1,0.2-4.7c-3,0.5-6.3,1-9.9,1.2c-2.4,0.2-4,0.3-4.9,0.3
			c-0.9,4.7-2.2,10.4-3.8,17.1c-1,4-2.8,6-5.5,6c-2.9,0-4.4-1.3-4.4-4c0-0.6,0.1-1.4,0.3-2.5c1.6-6.3,2.8-11.6,3.7-15.9l-3.3,0.1
			c-1.5,0-2.6-0.3-3.3-0.8c-0.7-0.5-1-1.4-1-2.6c0-1.5,0.4-2.6,1.3-3.3c0.9-0.7,2.3-1.1,4.3-1.2l3.6-0.1c1.2-6.4,1.8-11.3,1.8-14.7
			c0-2.1-0.3-3.6-1-4.4c-0.6-0.8-1.5-1.2-2.5-1.2c-3.2,0-6.8,2.7-10.8,8c-0.6,0.8-1.3,1.2-2,1.2c-0.6,0-1.2-0.3-1.6-0.9
			c-0.5-0.6-0.7-1.3-0.7-2.3c0-1.4,0.6-2.9,1.7-4.5c2-2.8,4.5-5.1,7.6-6.9c3.1-1.8,6.2-2.7,9.3-2.7c3,0,5.3,1,6.9,3
			c1.6,2,2.4,5.2,2.4,9.5c0,3.8-0.5,8.9-1.6,15.4l6.7-0.3c2.9-0.1,5.3-0.4,7.4-0.7c0.8-5,2.1-9.7,3.8-14.1c1.7-4.4,3.8-7.9,6.3-10.7
			c2.5-2.7,5.3-4.1,8.4-4.1c2.3,0,4.1,0.9,5.4,2.7c1.3,1.8,2,4.2,2,7.1c0,11.3-5.8,19.2-17.3,23.6c-0.1,1.8-0.2,3.7-0.2,5.7
			c0,4.8,0.6,8.2,1.8,10.2c1.2,2,2.9,3,5,3c1.9,0,3.6-0.5,5.1-1.5c1.6-1,3.3-2.7,5.3-5c0.5-0.6,1.2-1,1.8-1
			C-58.1,181.3-57.6,181.5-57.3,182.1z M-71.1,145.2c-1.1,1.8-2.2,4.3-3.2,7.5c-1,3.2-1.8,6.6-2.4,10.3c3.7-1.5,6.3-3.7,8.1-6.4
			c1.7-2.8,2.6-6.4,2.6-10.8c0-1-0.2-1.9-0.5-2.5c-0.4-0.6-0.8-0.9-1.4-0.9C-68.9,142.4-70,143.3-71.1,145.2z"/>
		<path class="st0" d="M-21.4,182.1c0.3,0.5,0.5,1.3,0.5,2.3c0,1.8-0.4,3.2-1.3,4.2c-1.7,2.1-4.1,4-7.2,5.7
			c-3.1,1.7-6.4,2.6-9.9,2.6c-4.8,0-8.5-1.3-11.2-3.9c-2.6-2.6-4-6.2-4-10.7c0-3.2,0.7-6.1,2-8.8c1.3-2.7,3.2-4.9,5.5-6.5
			c2.4-1.6,5-2.4,8-2.4c2.6,0,4.8,0.8,6.4,2.4c1.6,1.6,2.4,3.7,2.4,6.4c0,3.2-1.1,5.9-3.4,8.1c-2.3,2.3-6.1,4.1-11.5,5.4
			c1.1,2.1,3.3,3.2,6.5,3.2c2.1,0,4.4-0.7,7-2.2c2.6-1.4,4.9-3.3,6.8-5.7c0.5-0.6,1.2-1,1.8-1C-22.2,181.3-21.8,181.5-21.4,182.1z
			 M-44.4,174.3c-1.2,2-1.7,4.3-1.7,7.1v0.1c2.7-0.6,4.8-1.6,6.4-2.9c1.6-1.3,2.3-2.8,2.3-4.5c0-0.9-0.2-1.6-0.7-2.1
			c-0.5-0.5-1.1-0.8-2-0.8C-41.8,171.3-43.2,172.3-44.4,174.3z"/>
		<path class="st0" d="M-25.2,193.8c-1.7-2.1-2.5-4.7-2.5-8.1c0-3.7,0.8-7.1,2.5-10.4c1.7-3.3,3.9-5.9,6.7-7.9c2.8-2,5.8-3,8.9-3
			c1,0,1.7,0.2,2,0.6c0.3,0.4,0.6,1.1,0.9,2.1c1-0.2,2-0.3,3-0.3c2.2,0,3.4,0.8,3.4,2.4c0,1-0.3,3.2-1,6.9c-1.1,5.3-1.6,8.9-1.6,11
			c0,0.7,0.2,1.2,0.5,1.6c0.3,0.4,0.8,0.6,1.3,0.6c0.9,0,1.9-0.6,3.2-1.7c1.2-1.1,2.9-2.9,5-5.4c0.5-0.6,1.2-1,1.8-1
			c0.6,0,1.1,0.3,1.4,0.8c0.3,0.5,0.5,1.3,0.5,2.3c0,1.8-0.4,3.2-1.3,4.2c-1.9,2.3-3.9,4.3-6,5.9c-2.1,1.6-4.1,2.4-6.1,2.4
			c-1.5,0-2.9-0.5-4.1-1.5c-1.3-1-2.2-2.4-2.8-4.2c-2.4,3.8-5.4,5.8-9,5.8C-21.2,196.9-23.5,195.9-25.2,193.8z M-13,188.2
			c0.9-1.2,1.6-2.8,2-4.7l2.5-12.6c-1.9,0-3.7,0.8-5.3,2.2c-1.6,1.4-2.9,3.2-3.9,5.5c-1,2.3-1.4,4.7-1.4,7.3c0,1.4,0.3,2.5,0.9,3.2
			c0.6,0.7,1.4,1,2.4,1C-14.9,190-14,189.4-13,188.2z"/>
		<path class="st0" d="M45.7,182.1c0.3,0.5,0.5,1.3,0.5,2.3c0,1.8-0.4,3.2-1.3,4.2c-1.9,2.3-3.9,4.2-6.2,5.9
			c-2.2,1.6-4.5,2.4-6.6,2.4c-3.5,0-6.1-2-7.9-6.1c-1.9,2.4-3.6,4-5,4.9c-1.4,0.8-3.1,1.2-5,1.2c-2.8,0-5.1-1-6.9-3.1
			c-1.8-2.1-2.7-4.8-2.7-8.1c0-3.7,0.8-7,2.3-10.2c1.6-3.1,3.7-5.7,6.4-7.7c2.7-2,5.8-3.2,9.1-3.5c0.9-8.9,2.5-16.4,5-22.7
			c2.4-6.3,5.7-9.4,9.6-9.4c2,0,3.6,0.9,4.9,2.7c1.3,1.8,2,4.5,2,8.1c0,5.1-1.3,11.1-3.8,17.9c-2.5,6.9-5.9,13.9-10.1,21.1
			c0.2,2.6,0.6,4.5,1.2,5.7c0.6,1.1,1.4,1.7,2.4,1.7c1.2,0,2.5-0.5,3.8-1.6c1.3-1.1,3-2.9,5.1-5.5c0.5-0.6,1.2-1,1.8-1
			C44.9,181.3,45.4,181.5,45.7,182.1z M19.1,188.9c0.9-0.7,2-2,3.3-3.9c-0.5-2.5-0.7-5.2-0.7-8.3c0-1.1,0-2.9,0.1-5.3
			c-2.5,0.8-4.6,2.5-6.3,5c-1.7,2.6-2.5,5.4-2.5,8.6c0,3.3,1.1,5,3.4,5C17.3,190,18.2,189.6,19.1,188.9z M33.6,143.5
			c-0.9,3.1-1.6,7.1-2.2,12.1c-0.6,5-1.1,10.2-1.3,15.6c5.1-11.1,7.7-20.1,7.7-26.9c0-1.7-0.1-3.1-0.4-4c-0.3-1-0.7-1.4-1.1-1.4
			C35.3,138.9,34.5,140.4,33.6,143.5z"/>
		<path class="st0" d="M42.6,193.7c-1.3-2.1-2-4.9-2-8.4c0-2.1,0.3-4.7,0.8-7.9c0.5-3.2,1.2-6.2,2-9c0.4-1.5,1-2.5,1.6-3
			c0.7-0.5,1.8-0.8,3.3-0.8c2.3,0,3.5,0.8,3.5,2.3c0,1.1-0.4,3.8-1.3,7.9c-1.1,5-1.6,8.4-1.6,10.2c0,1.4,0.2,2.4,0.5,3.2
			c0.4,0.7,1,1.1,1.8,1.1c0.8,0,1.8-0.6,3.1-1.7c1.2-1.1,2.9-2.9,4.9-5.4c0.5-0.6,1.2-1,1.8-1c0.6,0,1.1,0.3,1.4,0.8
			c0.3,0.5,0.5,1.3,0.5,2.3c0,1.8-0.4,3.2-1.3,4.2c-4.5,5.5-8.7,8.3-12.7,8.3C46.1,196.9,44,195.8,42.6,193.7z M45.3,158.8
			c-1-0.9-1.4-2.1-1.4-3.7c0-1.6,0.6-2.9,1.9-4c1.3-1.1,2.8-1.6,4.7-1.6c1.7,0,3.1,0.4,4.1,1.2c1,0.8,1.6,2,1.6,3.5
			c0,1.8-0.6,3.3-1.8,4.4c-1.2,1.1-2.8,1.6-4.7,1.6C47.7,160.1,46.3,159.7,45.3,158.8z"/>
		<path class="st0" d="M58.7,194.1c-0.7-1.8-1.1-4.7-1.1-8.8c0-5.9,0.8-11.6,2.5-16.9c0.4-1.3,1.1-2.3,2-2.9
			c0.9-0.6,2.2-0.9,3.9-0.9c0.9,0,1.6,0.1,1.9,0.3c0.4,0.2,0.5,0.7,0.5,1.3c0,0.7-0.3,2.4-1,4.9c-0.5,1.8-0.8,3.4-1.1,4.8
			c-0.3,1.4-0.5,3.1-0.7,5.1c1.5-3.9,3.2-7.1,5.1-9.6c1.9-2.5,3.7-4.2,5.5-5.3c1.8-1,3.5-1.6,5-1.6c3,0,4.5,1.5,4.5,4.5
			c0,1.8-0.5,5-1.5,9.7c-0.9,4-1.3,6.6-1.3,7.9c0,1.8,0.7,2.7,2,2.7c0.9,0,2-0.6,3.3-1.7c1.3-1.1,2.9-2.9,5-5.4c0.5-0.6,1.2-1,1.8-1
			c0.6,0,1.1,0.3,1.4,0.8c0.3,0.5,0.5,1.3,0.5,2.3c0,1.8-0.4,3.2-1.3,4.2c-2,2.4-4.1,4.4-6.3,6c-2.3,1.6-4.8,2.3-7.7,2.3
			c-2.3,0-4.1-0.7-5.3-2c-1.2-1.3-1.8-3.3-1.8-5.9c0-1.3,0.3-3.6,1-6.9c0.6-2.9,0.9-4.9,0.9-6c0-0.7-0.3-1.1-0.8-1.1
			c-0.6,0-1.4,0.8-2.5,2.3c-1.1,1.5-2.2,3.6-3.3,6.1c-1.1,2.5-2,5.2-2.7,7.9c-0.5,2.1-1.1,3.6-1.7,4.4c-0.7,0.8-1.7,1.1-3.1,1.1
			C60.6,196.9,59.4,196,58.7,194.1z"/>
		<path class="st0" d="M128,182.3c0.3,0.6,0.5,1.3,0.5,2.2c0,1.1-0.2,1.9-0.5,2.5c-0.3,0.6-0.8,1.1-1.5,1.6
			c-3.9,2.6-6.8,4.6-8.6,5.9l-4.4,2.9c-1.7,9.5-4,16.9-6.8,22.3s-6.4,8.1-10.7,8.1c-2.3,0-4.2-0.7-5.7-2.2s-2.2-3.3-2.2-5.7
			c0-3.2,1.3-6.7,3.8-10.4c2.6-3.7,7.4-8.3,14.4-13.7l0.4-2.7c-0.8,1.2-1.8,2.2-3,2.8c-1.3,0.7-2.5,1-3.7,1c-2.8,0-5.1-1-6.8-3.1
			c-1.7-2.1-2.5-4.7-2.5-8.1c0-3.7,0.8-7.1,2.5-10.4c1.7-3.3,3.9-5.9,6.7-7.9c2.8-2,5.8-3,8.9-3c1,0,1.7,0.2,2,0.6
			c0.3,0.4,0.6,1.1,0.9,2.1c0.9-0.2,1.9-0.3,3-0.3s2,0.2,2.4,0.5c0.5,0.3,0.7,1,0.7,2c0,0.5,0,1-0.1,1.3c-0.2,1.4-0.8,5-1.7,10.8
			c-0.2,1.1-0.4,2.3-0.6,3.6c-0.2,1.3-0.4,2.7-0.7,4.1c3.5-2.7,6.9-5.2,10.1-7.3c0.6-0.4,1.1-0.5,1.6-0.5
			C127.2,181.4,127.6,181.7,128,182.3z M100.6,217c1.4-2.7,2.8-7.1,4.1-13.1c-3.5,3-6.1,5.7-7.6,8.2c-1.6,2.4-2.3,4.5-2.3,6.4
			c0,0.8,0.1,1.4,0.4,1.9c0.3,0.5,0.8,0.8,1.5,0.8C97.8,221.1,99.1,219.7,100.6,217z M105.4,188c1-1.3,1.6-3.1,2.1-5.5l2.2-11.7
			c-1.9,0-3.6,0.8-5.2,2.2c-1.6,1.4-2.9,3.2-3.8,5.5c-1,2.3-1.4,4.7-1.4,7.3c0,1.4,0.3,2.5,0.9,3.2s1.4,1,2.4,1
			C103.4,190,104.4,189.3,105.4,188z"/>
	</g>
	<g>
		<path class="st0" d="M-35.3,298.3c0.2,0.3,0.3,0.8,0.3,1.4c0,1.1-0.3,2-0.8,2.6c-2.8,3.4-5.8,5.2-9,5.2c-2.8,0-5-1.1-6.6-3.2
			c-1.7-2.1-2.5-5.2-2.5-9.2c0-1,0-1.9,0.1-2.9c-1.9,0.3-3.9,0.6-6.2,0.8c-1.5,0.1-2.5,0.2-3,0.2c-0.6,2.9-1.4,6.5-2.4,10.7
			c-0.6,2.5-1.7,3.7-3.4,3.7c-1.8,0-2.7-0.8-2.7-2.5c0-0.4,0.1-0.9,0.2-1.5c1-3.9,1.7-7.2,2.3-9.9l-2.1,0.1c-0.9,0-1.6-0.2-2.1-0.5
			c-0.4-0.3-0.6-0.9-0.6-1.6c0-0.9,0.3-1.6,0.8-2.1c0.5-0.4,1.4-0.7,2.7-0.7l2.3-0.1c0.7-4,1.1-7.1,1.1-9.2c0-1.3-0.2-2.3-0.6-2.7
			c-0.4-0.5-0.9-0.7-1.6-0.7c-2,0-4.2,1.7-6.8,5c-0.4,0.5-0.8,0.7-1.2,0.7c-0.4,0-0.7-0.2-1-0.6c-0.3-0.4-0.4-0.8-0.4-1.4
			c0-0.9,0.4-1.8,1.1-2.8c1.3-1.7,2.8-3.2,4.7-4.3c1.9-1.1,3.8-1.7,5.8-1.7c1.9,0,3.3,0.6,4.3,1.9c1,1.3,1.5,3.2,1.5,5.9
			c0,2.4-0.3,5.6-1,9.6l4.2-0.2c1.8-0.1,3.3-0.2,4.6-0.4c0.5-3.1,1.3-6.1,2.4-8.8c1.1-2.7,2.4-5,3.9-6.7c1.6-1.7,3.3-2.6,5.3-2.6
			c1.4,0,2.5,0.6,3.4,1.7c0.8,1.1,1.2,2.6,1.2,4.4c0,7.1-3.6,12-10.8,14.7c-0.1,1.1-0.1,2.3-0.1,3.5c0,3,0.4,5.1,1.1,6.4
			c0.7,1.3,1.8,1.9,3.1,1.9c1.2,0,2.2-0.3,3.2-0.9c1-0.6,2.1-1.7,3.3-3.1c0.3-0.4,0.7-0.6,1.2-0.6C-35.9,297.8-35.6,298-35.3,298.3z
			 M-44,275.3c-0.7,1.1-1.4,2.7-2,4.7c-0.6,2-1.1,4.1-1.5,6.5c2.3-0.9,4-2.3,5-4c1.1-1.7,1.6-4,1.6-6.7c0-0.7-0.1-1.2-0.3-1.5
			c-0.2-0.4-0.5-0.6-0.9-0.6C-42.6,273.6-43.3,274.1-44,275.3z"/>
		<path class="st0" d="M-13,298.3c0.2,0.3,0.3,0.8,0.3,1.4c0,1.1-0.3,2-0.8,2.6c-1.1,1.3-2.5,2.5-4.5,3.5c-1.9,1.1-4,1.6-6.2,1.6
			c-3,0-5.3-0.8-7-2.4c-1.7-1.6-2.5-3.8-2.5-6.7c0-2,0.4-3.8,1.2-5.5c0.8-1.7,2-3,3.4-4s3.1-1.5,5-1.5c1.7,0,3,0.5,4,1.5
			c1,1,1.5,2.3,1.5,4c0,2-0.7,3.7-2.1,5.1c-1.4,1.4-3.8,2.5-7.2,3.4c0.7,1.3,2.1,2,4.1,2c1.3,0,2.7-0.4,4.4-1.3
			c1.6-0.9,3.1-2.1,4.3-3.5c0.3-0.4,0.7-0.6,1.2-0.6C-13.5,297.8-13.2,298-13,298.3z M-27.3,293.4c-0.7,1.2-1.1,2.7-1.1,4.4v0.1
			c1.7-0.4,3-1,4-1.8c1-0.8,1.5-1.7,1.5-2.8c0-0.5-0.1-1-0.4-1.3c-0.3-0.3-0.7-0.5-1.2-0.5C-25.7,291.6-26.6,292.2-27.3,293.4z"/>
		<path class="st0" d="M-15.3,305.6c-1.1-1.3-1.6-3-1.6-5c0-2.3,0.5-4.4,1.6-6.5c1.1-2,2.5-3.7,4.2-4.9s3.6-1.9,5.6-1.9
			c0.6,0,1,0.1,1.3,0.4s0.4,0.7,0.5,1.3c0.6-0.1,1.2-0.2,1.9-0.2c1.4,0,2.1,0.5,2.1,1.5c0,0.6-0.2,2-0.6,4.3c-0.7,3.3-1,5.6-1,6.8
			c0,0.4,0.1,0.8,0.3,1c0.2,0.3,0.5,0.4,0.8,0.4c0.5,0,1.2-0.3,2-1c0.8-0.7,1.8-1.8,3.1-3.4c0.3-0.4,0.7-0.6,1.2-0.6
			c0.4,0,0.7,0.2,0.9,0.5c0.2,0.3,0.3,0.8,0.3,1.4c0,1.1-0.3,2-0.8,2.6C5.2,303.8,4,305,2.7,306c-1.3,1-2.6,1.5-3.8,1.5
			c-0.9,0-1.8-0.3-2.6-1c-0.8-0.6-1.4-1.5-1.8-2.6c-1.5,2.4-3.3,3.6-5.6,3.6C-12.9,307.5-14.3,306.9-15.3,305.6z M-7.8,302.1
			c0.6-0.7,1-1.7,1.2-2.9l1.6-7.9c-1.2,0-2.3,0.5-3.3,1.3c-1,0.9-1.8,2-2.4,3.4c-0.6,1.4-0.9,2.9-0.9,4.5c0,0.9,0.2,1.5,0.5,2
			c0.4,0.4,0.8,0.6,1.5,0.6C-8.9,303.2-8.3,302.8-7.8,302.1z"/>
		<path class="st0" d="M28.9,298.3c0.2,0.3,0.3,0.8,0.3,1.4c0,1.1-0.3,2-0.8,2.6c-1.2,1.4-2.5,2.6-3.8,3.7c-1.4,1-2.8,1.5-4.1,1.5
			c-2.2,0-3.8-1.3-5-3.8c-1.2,1.5-2.2,2.5-3.1,3c-0.9,0.5-1.9,0.8-3.1,0.8c-1.7,0-3.2-0.6-4.3-1.9c-1.1-1.3-1.7-3-1.7-5.1
			c0-2.3,0.5-4.4,1.5-6.3c1-2,2.3-3.5,4-4.8s3.6-2,5.7-2.2c0.5-5.5,1.6-10.2,3.1-14.2c1.5-3.9,3.5-5.9,6-5.9c1.2,0,2.2,0.6,3.1,1.7
			s1.2,2.8,1.2,5c0,3.2-0.8,6.9-2.3,11.2s-3.7,8.7-6.3,13.2c0.1,1.7,0.4,2.8,0.7,3.5c0.4,0.7,0.9,1.1,1.5,1.1c0.8,0,1.6-0.3,2.3-1
			c0.8-0.7,1.9-1.8,3.2-3.4c0.3-0.4,0.7-0.6,1.2-0.6C28.4,297.8,28.7,298,28.9,298.3z M12.3,302.6c0.5-0.4,1.2-1.3,2.1-2.5
			c-0.3-1.5-0.4-3.3-0.4-5.2c0-0.7,0-1.8,0.1-3.3c-1.6,0.5-2.9,1.5-3.9,3.1c-1,1.6-1.6,3.4-1.6,5.4c0,2.1,0.7,3.1,2.1,3.1
			C11.2,303.2,11.7,303,12.3,302.6z M21.3,274.2c-0.5,1.9-1,4.4-1.4,7.5s-0.7,6.4-0.8,9.7c3.2-7,4.8-12.5,4.8-16.8
			c0-1.1-0.1-1.9-0.3-2.5c-0.2-0.6-0.4-0.9-0.7-0.9C22.4,271.3,21.9,272.3,21.3,274.2z"/>
		<path class="st0" d="M27,305.6c-0.8-1.3-1.3-3-1.3-5.2c0-1.3,0.2-2.9,0.5-4.9c0.3-2,0.7-3.9,1.3-5.6c0.3-0.9,0.6-1.5,1-1.9
			s1.1-0.5,2.1-0.5c1.5,0,2.2,0.5,2.2,1.5c0,0.7-0.3,2.4-0.8,5c-0.7,3.1-1,5.3-1,6.4c0,0.9,0.1,1.5,0.3,2c0.2,0.5,0.6,0.7,1.2,0.7
			c0.5,0,1.2-0.4,1.9-1.1c0.8-0.7,1.8-1.8,3.1-3.4c0.3-0.4,0.7-0.6,1.2-0.6c0.4,0,0.7,0.2,0.9,0.5c0.2,0.3,0.3,0.8,0.3,1.4
			c0,1.1-0.3,2-0.8,2.6c-2.8,3.4-5.5,5.2-7.9,5.2C29.1,307.5,27.8,306.9,27,305.6z M28.6,283.8c-0.6-0.6-0.9-1.3-0.9-2.3
			s0.4-1.8,1.2-2.5c0.8-0.7,1.8-1,2.9-1c1.1,0,1.9,0.3,2.6,0.8c0.7,0.5,1,1.2,1,2.2c0,1.1-0.4,2-1.1,2.7s-1.7,1-2.9,1
			C30.1,284.6,29.2,284.3,28.6,283.8z"/>
		<path class="st0" d="M37,305.8c-0.4-1.1-0.7-3-0.7-5.5c0-3.7,0.5-7.2,1.6-10.6c0.3-0.8,0.7-1.4,1.3-1.8s1.4-0.6,2.5-0.6
			c0.6,0,1,0.1,1.2,0.2c0.2,0.1,0.3,0.4,0.3,0.8c0,0.5-0.2,1.5-0.6,3.1c-0.3,1.1-0.5,2.1-0.7,3s-0.3,1.9-0.4,3.2
			c0.9-2.4,2-4.4,3.2-6c1.2-1.5,2.3-2.6,3.4-3.3c1.1-0.7,2.2-1,3.1-1c1.9,0,2.8,0.9,2.8,2.8c0,1.1-0.3,3.1-0.9,6
			c-0.5,2.5-0.8,4.1-0.8,4.9c0,1.1,0.4,1.7,1.2,1.7c0.6,0,1.2-0.3,2-1c0.8-0.7,1.8-1.8,3.1-3.4c0.3-0.4,0.7-0.6,1.2-0.6
			c0.4,0,0.7,0.2,0.9,0.5c0.2,0.3,0.3,0.8,0.3,1.4c0,1.1-0.3,2-0.8,2.6c-1.2,1.5-2.5,2.8-4,3.7c-1.4,1-3,1.5-4.8,1.5
			c-1.5,0-2.6-0.4-3.3-1.3c-0.7-0.8-1.1-2.1-1.1-3.7c0-0.8,0.2-2.2,0.6-4.3c0.4-1.8,0.6-3,0.6-3.7c0-0.5-0.2-0.7-0.5-0.7
			c-0.4,0-0.9,0.5-1.6,1.4c-0.7,1-1.4,2.2-2.1,3.8c-0.7,1.6-1.3,3.2-1.7,5c-0.3,1.3-0.7,2.2-1.1,2.7c-0.4,0.5-1.1,0.7-1.9,0.7
			C38.2,307.5,37.4,307,37,305.8z"/>
		<path class="st0" d="M80.2,298.4c0.2,0.4,0.3,0.8,0.3,1.3c0,0.7-0.1,1.2-0.3,1.5s-0.5,0.7-0.9,1c-2.5,1.7-4.2,2.9-5.4,3.7
			l-2.7,1.8c-1.1,5.9-2.5,10.5-4.3,13.9s-4,5.1-6.7,5.1c-1.5,0-2.6-0.4-3.5-1.3c-0.9-0.9-1.4-2.1-1.4-3.5c0-2,0.8-4.2,2.4-6.5
			c1.6-2.3,4.6-5.2,9-8.6l0.3-1.7c-0.5,0.8-1.1,1.4-1.9,1.8c-0.8,0.4-1.6,0.6-2.3,0.6c-1.8,0-3.2-0.6-4.2-1.9c-1.1-1.3-1.6-3-1.6-5
			c0-2.3,0.5-4.4,1.6-6.5c1.1-2,2.5-3.7,4.2-4.9s3.6-1.9,5.6-1.9c0.6,0,1,0.1,1.3,0.4c0.2,0.2,0.4,0.7,0.5,1.3
			c0.5-0.1,1.2-0.2,1.9-0.2c0.7,0,1.2,0.1,1.5,0.3c0.3,0.2,0.4,0.6,0.4,1.3c0,0.3,0,0.6,0,0.8c-0.1,0.9-0.5,3.1-1.1,6.7
			c-0.1,0.7-0.2,1.4-0.4,2.2c-0.1,0.8-0.3,1.7-0.4,2.6c2.2-1.7,4.3-3.2,6.3-4.5c0.4-0.2,0.7-0.3,1-0.3
			C79.7,297.9,80,298.1,80.2,298.4z M63.1,320.1c0.9-1.7,1.8-4.4,2.6-8.2c-2.2,1.9-3.8,3.6-4.7,5.1c-1,1.5-1.5,2.8-1.5,4
			c0,0.5,0.1,0.9,0.3,1.2c0.2,0.3,0.5,0.5,0.9,0.5C61.4,322.6,62.2,321.8,63.1,320.1z M66.1,302c0.6-0.8,1-1.9,1.3-3.4l1.4-7.3
			c-1.2,0-2.3,0.5-3.2,1.3c-1,0.9-1.8,2-2.4,3.4c-0.6,1.4-0.9,2.9-0.9,4.5c0,0.9,0.2,1.5,0.5,2c0.4,0.4,0.8,0.6,1.5,0.6
			C64.9,303.2,65.5,302.8,66.1,302z"/>
	</g>
	<g>
		<path class="st0" d="M-19.5,392.7c0.1,0.2,0.2,0.5,0.2,0.8c0,0.6-0.2,1.1-0.5,1.5c-1.6,1.9-3.3,2.9-5.1,2.9
			c-1.6,0-2.8-0.6-3.7-1.8s-1.4-2.9-1.4-5.2c0-0.5,0-1.1,0.1-1.6c-1.1,0.2-2.2,0.3-3.5,0.4c-0.8,0.1-1.4,0.1-1.7,0.1
			c-0.3,1.6-0.8,3.7-1.4,6c-0.3,1.4-1,2.1-1.9,2.1c-1,0-1.5-0.5-1.5-1.4c0-0.2,0-0.5,0.1-0.9c0.5-2.2,1-4.1,1.3-5.6l-1.2,0
			c-0.5,0-0.9-0.1-1.2-0.3s-0.4-0.5-0.4-0.9c0-0.5,0.2-0.9,0.5-1.2c0.3-0.2,0.8-0.4,1.5-0.4l1.3,0c0.4-2.3,0.6-4,0.6-5.2
			c0-0.8-0.1-1.3-0.3-1.5s-0.5-0.4-0.9-0.4c-1.1,0-2.4,0.9-3.8,2.8c-0.2,0.3-0.4,0.4-0.7,0.4c-0.2,0-0.4-0.1-0.6-0.3
			c-0.2-0.2-0.2-0.5-0.2-0.8c0-0.5,0.2-1,0.6-1.6c0.7-1,1.6-1.8,2.7-2.4c1.1-0.6,2.2-1,3.3-1c1,0,1.9,0.4,2.4,1.1
			c0.6,0.7,0.9,1.8,0.9,3.3c0,1.3-0.2,3.1-0.6,5.4l2.4-0.1c1,0,1.9-0.1,2.6-0.2c0.3-1.8,0.7-3.4,1.3-5c0.6-1.5,1.3-2.8,2.2-3.8
			c0.9-1,1.9-1.4,3-1.4c0.8,0,1.4,0.3,1.9,1s0.7,1.5,0.7,2.5c0,4-2,6.8-6.1,8.3c0,0.6-0.1,1.3-0.1,2c0,1.7,0.2,2.9,0.6,3.6
			c0.4,0.7,1,1.1,1.8,1.1c0.7,0,1.3-0.2,1.8-0.5c0.5-0.3,1.2-0.9,1.9-1.8c0.2-0.2,0.4-0.3,0.7-0.3
			C-19.8,392.4-19.6,392.5-19.5,392.7z M-24.4,379.7c-0.4,0.6-0.8,1.5-1.1,2.6c-0.4,1.1-0.6,2.3-0.8,3.6c1.3-0.5,2.2-1.3,2.8-2.3
			c0.6-1,0.9-2.2,0.9-3.8c0-0.4-0.1-0.7-0.2-0.9c-0.1-0.2-0.3-0.3-0.5-0.3C-23.6,378.8-24,379.1-24.4,379.7z"/>
		<path class="st0" d="M-6.9,392.7c0.1,0.2,0.2,0.5,0.2,0.8c0,0.6-0.2,1.1-0.5,1.5c-0.6,0.7-1.4,1.4-2.5,2s-2.2,0.9-3.5,0.9
			c-1.7,0-3-0.5-3.9-1.4c-0.9-0.9-1.4-2.2-1.4-3.8c0-1.1,0.2-2.1,0.7-3.1c0.5-1,1.1-1.7,1.9-2.3c0.8-0.6,1.8-0.8,2.8-0.8
			c0.9,0,1.7,0.3,2.2,0.8c0.6,0.6,0.8,1.3,0.8,2.3c0,1.1-0.4,2.1-1.2,2.9c-0.8,0.8-2.1,1.4-4,1.9c0.4,0.7,1.2,1.1,2.3,1.1
			c0.7,0,1.5-0.3,2.5-0.8c0.9-0.5,1.7-1.2,2.4-2c0.2-0.2,0.4-0.3,0.7-0.3C-7.2,392.4-7,392.5-6.9,392.7z M-15,390
			c-0.4,0.7-0.6,1.5-0.6,2.5v0c0.9-0.2,1.7-0.6,2.2-1s0.8-1,0.8-1.6c0-0.3-0.1-0.5-0.3-0.7c-0.2-0.2-0.4-0.3-0.7-0.3
			C-14.1,388.9-14.6,389.3-15,390z"/>
		<path class="st0" d="M-8.2,396.9c-0.6-0.7-0.9-1.7-0.9-2.8c0-1.3,0.3-2.5,0.9-3.7c0.6-1.1,1.4-2.1,2.4-2.8c1-0.7,2-1,3.1-1
			c0.4,0,0.6,0.1,0.7,0.2s0.2,0.4,0.3,0.7c0.3-0.1,0.7-0.1,1.1-0.1c0.8,0,1.2,0.3,1.2,0.8c0,0.3-0.1,1.1-0.4,2.4
			c-0.4,1.8-0.6,3.1-0.6,3.9c0,0.2,0.1,0.4,0.2,0.6s0.3,0.2,0.5,0.2c0.3,0,0.7-0.2,1.1-0.6c0.4-0.4,1-1,1.8-1.9
			c0.2-0.2,0.4-0.3,0.7-0.3c0.2,0,0.4,0.1,0.5,0.3s0.2,0.5,0.2,0.8c0,0.6-0.2,1.1-0.5,1.5c-0.7,0.8-1.4,1.5-2.1,2.1
			c-0.7,0.6-1.5,0.8-2.1,0.8c-0.5,0-1-0.2-1.5-0.5c-0.4-0.4-0.8-0.9-1-1.5c-0.8,1.4-1.9,2-3.2,2C-6.8,397.9-7.6,397.6-8.2,396.9z
			 M-3.9,394.9c0.3-0.4,0.6-1,0.7-1.7l0.9-4.4c-0.7,0-1.3,0.3-1.9,0.8c-0.6,0.5-1,1.1-1.4,1.9c-0.3,0.8-0.5,1.7-0.5,2.6
			c0,0.5,0.1,0.9,0.3,1.1c0.2,0.2,0.5,0.4,0.8,0.4C-4.6,395.5-4.3,395.3-3.9,394.9z"/>
		<path class="st0" d="M16.7,392.7c0.1,0.2,0.2,0.5,0.2,0.8c0,0.6-0.2,1.1-0.5,1.5c-0.7,0.8-1.4,1.5-2.2,2.1
			c-0.8,0.6-1.6,0.9-2.3,0.9c-1.2,0-2.2-0.7-2.8-2.1c-0.7,0.9-1.3,1.4-1.8,1.7c-0.5,0.3-1.1,0.4-1.8,0.4c-1,0-1.8-0.4-2.4-1.1
			c-0.6-0.7-1-1.7-1-2.9c0-1.3,0.3-2.5,0.8-3.6c0.5-1.1,1.3-2,2.3-2.7c1-0.7,2-1.1,3.2-1.2c0.3-3.1,0.9-5.8,1.7-8
			c0.9-2.2,2-3.3,3.4-3.3c0.7,0,1.3,0.3,1.7,0.9c0.5,0.6,0.7,1.6,0.7,2.8c0,1.8-0.4,3.9-1.3,6.3c-0.9,2.4-2.1,4.9-3.5,7.4
			c0.1,0.9,0.2,1.6,0.4,2c0.2,0.4,0.5,0.6,0.8,0.6c0.4,0,0.9-0.2,1.3-0.6c0.5-0.4,1.1-1,1.8-1.9c0.2-0.2,0.4-0.3,0.7-0.3
			C16.5,392.4,16.6,392.5,16.7,392.7z M7.4,395.1c0.3-0.2,0.7-0.7,1.2-1.4c-0.2-0.9-0.2-1.8-0.2-2.9c0-0.4,0-1,0-1.9
			c-0.9,0.3-1.6,0.9-2.2,1.8c-0.6,0.9-0.9,1.9-0.9,3c0,1.2,0.4,1.8,1.2,1.8C6.8,395.5,7.1,395.4,7.4,395.1z M12.5,379.1
			c-0.3,1.1-0.6,2.5-0.8,4.3c-0.2,1.8-0.4,3.6-0.5,5.5c1.8-3.9,2.7-7.1,2.7-9.5c0-0.6-0.1-1.1-0.2-1.4c-0.1-0.3-0.2-0.5-0.4-0.5
			C13.1,377.5,12.8,378.1,12.5,379.1z"/>
		<path class="st0" d="M15.7,396.8c-0.5-0.7-0.7-1.7-0.7-2.9c0-0.7,0.1-1.7,0.3-2.8s0.4-2.2,0.7-3.2c0.1-0.5,0.3-0.9,0.6-1.1
			c0.2-0.2,0.6-0.3,1.2-0.3c0.8,0,1.2,0.3,1.2,0.8c0,0.4-0.2,1.3-0.5,2.8c-0.4,1.8-0.6,3-0.6,3.6c0,0.5,0.1,0.9,0.2,1.1
			c0.1,0.3,0.3,0.4,0.7,0.4c0.3,0,0.7-0.2,1.1-0.6s1-1,1.7-1.9c0.2-0.2,0.4-0.3,0.7-0.3c0.2,0,0.4,0.1,0.5,0.3
			c0.1,0.2,0.2,0.5,0.2,0.8c0,0.6-0.2,1.1-0.5,1.5c-1.6,1.9-3.1,2.9-4.5,2.9C16.9,397.9,16.1,397.6,15.7,396.8z M16.6,384.5
			c-0.3-0.3-0.5-0.8-0.5-1.3c0-0.6,0.2-1,0.7-1.4s1-0.6,1.7-0.6c0.6,0,1.1,0.1,1.4,0.4c0.4,0.3,0.6,0.7,0.6,1.2
			c0,0.6-0.2,1.2-0.6,1.5c-0.4,0.4-1,0.6-1.7,0.6C17.5,385,16.9,384.8,16.6,384.5z"/>
		<path class="st0" d="M21.3,397c-0.3-0.6-0.4-1.7-0.4-3.1c0-2.1,0.3-4.1,0.9-6c0.1-0.5,0.4-0.8,0.7-1c0.3-0.2,0.8-0.3,1.4-0.3
			c0.3,0,0.5,0,0.7,0.1c0.1,0.1,0.2,0.2,0.2,0.5c0,0.3-0.1,0.8-0.4,1.7c-0.2,0.6-0.3,1.2-0.4,1.7c-0.1,0.5-0.2,1.1-0.2,1.8
			c0.5-1.4,1.1-2.5,1.8-3.4c0.7-0.9,1.3-1.5,1.9-1.9c0.6-0.4,1.2-0.6,1.7-0.6c1,0,1.6,0.5,1.6,1.6c0,0.6-0.2,1.8-0.5,3.4
			c-0.3,1.4-0.5,2.3-0.5,2.8c0,0.6,0.2,1,0.7,1c0.3,0,0.7-0.2,1.1-0.6c0.4-0.4,1-1,1.8-1.9c0.2-0.2,0.4-0.3,0.7-0.3
			c0.2,0,0.4,0.1,0.5,0.3c0.1,0.2,0.2,0.5,0.2,0.8c0,0.6-0.2,1.1-0.5,1.5c-0.7,0.9-1.4,1.6-2.2,2.1s-1.7,0.8-2.7,0.8
			c-0.8,0-1.4-0.2-1.9-0.7s-0.6-1.2-0.6-2.1c0-0.5,0.1-1.3,0.3-2.4c0.2-1,0.3-1.7,0.3-2.1c0-0.3-0.1-0.4-0.3-0.4
			c-0.2,0-0.5,0.3-0.9,0.8c-0.4,0.5-0.8,1.3-1.2,2.1c-0.4,0.9-0.7,1.8-1,2.8c-0.2,0.8-0.4,1.3-0.6,1.5s-0.6,0.4-1.1,0.4
			C22,397.9,21.6,397.6,21.3,397z"/>
		<path class="st0" d="M45.7,392.8c0.1,0.2,0.2,0.5,0.2,0.8c0,0.4-0.1,0.7-0.2,0.9s-0.3,0.4-0.5,0.6c-1.4,0.9-2.4,1.6-3,2.1l-1.5,1
			c-0.6,3.3-1.4,5.9-2.4,7.9s-2.2,2.9-3.8,2.9c-0.8,0-1.5-0.3-2-0.8s-0.8-1.2-0.8-2c0-1.1,0.4-2.4,1.4-3.7c0.9-1.3,2.6-2.9,5.1-4.8
			l0.1-0.9c-0.3,0.4-0.6,0.8-1.1,1c-0.4,0.2-0.9,0.4-1.3,0.4c-1,0-1.8-0.4-2.4-1.1c-0.6-0.7-0.9-1.7-0.9-2.8c0-1.3,0.3-2.5,0.9-3.7
			c0.6-1.1,1.4-2.1,2.4-2.8c1-0.7,2-1,3.1-1c0.4,0,0.6,0.1,0.7,0.2c0.1,0.1,0.2,0.4,0.3,0.7c0.3-0.1,0.7-0.1,1.1-0.1
			c0.4,0,0.7,0.1,0.9,0.2c0.2,0.1,0.3,0.4,0.3,0.7c0,0.2,0,0.3,0,0.5c-0.1,0.5-0.3,1.8-0.6,3.8c-0.1,0.4-0.1,0.8-0.2,1.3
			c-0.1,0.5-0.1,0.9-0.2,1.5c1.2-1,2.4-1.8,3.6-2.6c0.2-0.1,0.4-0.2,0.6-0.2C45.4,392.5,45.6,392.6,45.7,392.8z M36.1,405
			c0.5-1,1-2.5,1.5-4.6c-1.2,1.1-2.1,2-2.7,2.9s-0.8,1.6-0.8,2.2c0,0.3,0.1,0.5,0.2,0.7s0.3,0.3,0.5,0.3
			C35.1,406.5,35.6,406,36.1,405z M37.8,394.8c0.3-0.5,0.6-1.1,0.7-1.9l0.8-4.1c-0.7,0-1.3,0.3-1.8,0.8c-0.6,0.5-1,1.1-1.4,1.9
			c-0.3,0.8-0.5,1.7-0.5,2.6c0,0.5,0.1,0.9,0.3,1.1s0.5,0.4,0.8,0.4C37.1,395.5,37.4,395.3,37.8,394.8z"/>
	</g>
</g>
</svg>
