<?xml version="1.0" encoding="utf-8"?>
<!-- Generator: Adobe Illustrator 19.0.0, SVG Export Plug-In . SVG Version: 6.00 Build 0)  -->
<svg version="1.1" id="Calque_1" xmlns="http://www.w3.org/2000/svg" xmlns:xlink="http://www.w3.org/1999/xlink" x="0px" y="0px"
	 viewBox="-599 686 800 600" style="enable-background:new -599 686 800 600;" xml:space="preserve">
<style type="text/css">
	.st0{fill:#FFFFFF;}
	.st1{fill:none;stroke:#7F00FF;stroke-width:5;stroke-miterlimit:10;stroke-dasharray:12.0409,12.0409;}
	.st2{fill:#F6F6F6;}
	.st3{fill:#FFFFFF;stroke:#7F00FF;stroke-width:8;stroke-miterlimit:10;}
	.st4{fill:#FFFFFF;stroke:#7F00FF;stroke-width:5;stroke-linecap:round;stroke-linejoin:round;stroke-miterlimit:10;}
	.st5{fill:none;stroke:#7F00FF;stroke-width:5;stroke-linecap:round;stroke-linejoin:round;stroke-miterlimit:10;}
</style>
<path class="st0" d="M26.6,1194.1h-451.2c-5.6,0-10.2-4.6-10.2-10.2V788.1c0-5.6,4.6-10.2,10.2-10.2H26.5c5.6,0,10.2,4.6,10.2,10.2
	v395.8C36.8,1189.5,32.2,1194.1,26.6,1194.1z"/>
<path class="st1" d="M26.6,1194.1h-451.2c-5.6,0-10.2-4.6-10.2-10.2V788.1c0-5.6,4.6-10.2,10.2-10.2H26.5c5.6,0,10.2,4.6,10.2,10.2
	v395.8C36.8,1189.5,32.2,1194.1,26.6,1194.1z"/>
<rect id="XMLID_1_" x="-356" y="1085.4" class="st2" width="314.1" height="16.8"/>
<rect id="XMLID_6_" x="-301.5" y="1114.4" class="st2" width="205.1" height="16.8"/>
<g id="XMLID_71_">
	<g id="XMLID_74_">
		<path id="XMLID_77_" class="st3" d="M-133.6,917.6l-2.9-1.2l0.8-3.3c5.3-21.7-7.8-38.1-22.5-45.1c-9.8-4.5-20.9-5.3-31.1-2
			c-9,2.9-16.8,9-22.9,17.6l-2,2.9l-2.9-1.6c-4.9-2.5-9.8-4.1-15.2-4.1c-4.9,0-9.4,1.2-13.5,3.3c-3.3,2-14.7,9.4-13.9,27v2.9
			l-2.9,0.8c-20.1,6.1-28.3,23.4-27,37.7c1.2,16,13.9,33.2,38.9,33.2c41,0,108.6-0.4,109.8-0.4c16,0,29.5-11.9,32.4-28.7
			C-107,944.2-112.3,927-133.6,917.6z"/>
		<path id="XMLID_75_" class="st3" d="M-108.6,956.9c-2.5,16.4-16,28.7-32.4,28.7c-1.2,0-68.8,0.4-109.8,0.4
			c-25,0-37.7-17.2-38.9-33.2c-1.2-14.3,7-31.5,27-37.7l2.9-0.8v-2.9c-0.8-17.2,10.2-25,13.9-27c4.1-2.5,9-3.3,13.5-3.3
			c5.3,0,10.2,1.2,15.2,4.1l2.9,1.6l2-2.9c6.1-8.6,13.9-14.3,22.9-17.6c10.2-3.3,21.3-2.9,31.1,2c15.2,7,27.9,23.8,22.5,45.1
			l-0.8,3.3l2.9,1.2C-112.3,927-107,944.2-108.6,956.9z"/>
	</g>
	<path id="XMLID_72_" class="st3" d="M-232.3,880.7c-4.9,0-9.4,1.2-13.5,3.3c-3.3,2-14.7,9.4-13.9,27v2.9l-2.9,0.8
		c-20.1,6.1-28.3,23.4-27,37.7c1.2,16,13.9,33.2,38.9,33.2c41,0,108.6-0.4,109.8-0.4c16,0,29.5-11.9,32.4-28.7
		c2-13.1-3.3-30.3-24.6-39.7l-2.9-1.2l0.8-3.3c5.3-21.7-7.8-38.1-22.5-45.1c-9.8-4.5-20.9-5.3-31.1-2c-9,2.9-16.8,9-22.9,17.6
		l-2,2.9l-2.9-1.6C-222.1,881.9-227.4,880.7-232.3,880.7z"/>
</g>
<g>
	<polyline class="st4" points="-213.7,1029.5 -199,1010.9 -183,1029.5 	"/>
	<line class="st5" x1="-198.3" y1="1016.9" x2="-198.3" y2="1050.9"/>
</g>
</svg>
