<?xml version="1.0" encoding="utf-8"?>
<!-- Generator: Adobe Illustrator 25.2.0, SVG Export Plug-In . SVG Version: 6.00 Build 0)  -->
<svg version="1.1" id="Layer_1" xmlns="http://www.w3.org/2000/svg" xmlns:xlink="http://www.w3.org/1999/xlink" x="0px" y="0px"
	 viewBox="0 0 115 157" style="enable-background:new 0 0 115 157;" xml:space="preserve">
<style type="text/css">
	.st0{opacity:0.12;fill:#18222D;}
	.st1{fill:#0A8778;}
	.st2{fill:#2ABCAA;}
	.st3{fill:#FF996C;}
	.st4{fill:#F47856;}
	.st5{fill:#FFD8CF;}
</style>
<ellipse class="st0" cx="43.4" cy="152.2" rx="38" ry="3.5"/>
<g>
	<g>
		<path class="st1" d="M31.1,66.3c-1-10.8-0.2-22.2,5.3-31.6c5.5-9.4,16.7-16,27.3-13.5c6.3,1.5,11.6,6,15,11.5
			c3.4,5.5,5.1,11.9,5.8,18.3c1,8.2,0.5,16.6-1.9,24.6c-2.5,8.3-7.2,16.2-14.3,21.2c-7.3,5.1-19.3,8.3-25.5,0.5
			C35.7,88,32.1,77.9,31.1,66.3z"/>
		<path class="st2" d="M54.9,26.3c-0.4,0.3-0.8,0.7-1.1,1.1c-0.2,0.2-0.3,0.4-0.5,0.7c0,0,0-0.1,0-0.1c-0.2-0.3-0.4-0.6-0.6-0.8
			c-0.3-0.5-0.6-1-1.1-1.3c-0.5-0.3-1.1,0.1-1.1,0.6c0,0.8,0.4,1.5,0.8,2.2c0.3,0.6,0.8,1.5,1.5,1.7c0.8,0.2,1.2-0.4,1.7-0.9
			c0.6-0.7,1.3-1.3,1.7-2.1C56.4,26.7,55.6,25.8,54.9,26.3z"/>
		<path class="st2" d="M68.2,28.2c-0.4,0.3-0.8,0.7-1.1,1.1c-0.2,0.2-0.3,0.4-0.5,0.7c0,0,0-0.1,0-0.1c-0.2-0.3-0.4-0.6-0.6-0.8
			c-0.3-0.5-0.6-1-1.1-1.3c-0.5-0.3-1.1,0.1-1.1,0.6c0,0.8,0.4,1.5,0.8,2.2c0.3,0.6,0.8,1.5,1.5,1.7c0.8,0.2,1.2-0.4,1.7-0.9
			c0.6-0.7,1.3-1.3,1.7-2.1C69.7,28.6,68.9,27.7,68.2,28.2z"/>
		<path class="st2" d="M43.3,36.2c-0.7,0.4-1.3,1.1-1.9,1.8c-0.5-0.6-1-1.3-1.6-1.8c-0.6-0.4-1.3,0-1.2,0.7c0.3,1.3,1.2,2.4,2,3.4
			c0.3,0.4,1.1,0.4,1.5,0c0.8-1,2-2,2.4-3.2C44.9,36.4,43.9,35.9,43.3,36.2z"/>
		<path class="st2" d="M60.4,37.8c-0.5,0.3-0.8,0.7-1.1,1.1c-0.2,0.3-0.4,0.6-0.6,0.9c0,0-0.2,0.2-0.3,0.4c-0.1-0.1-0.2-0.2-0.3-0.3
			c-0.2-0.2-0.4-0.4-0.6-0.6c-0.4-0.4-0.7-0.7-1.2-0.9c-0.3-0.1-0.6,0.2-0.6,0.4c0,0.8,0.5,1.5,0.9,2.2c0.4,0.7,0.8,1.5,1.7,1.5
			c0.8,0.1,1.3-0.6,1.7-1.2c0.6-0.8,1.3-1.5,1.5-2.5C61.8,38,61,37.3,60.4,37.8z"/>
		<path class="st2" d="M73.5,37.7c-0.5,0.1-0.9,0.5-1.2,0.9c-0.1,0.1-0.3,0.3-0.4,0.5c-0.1-0.2-0.3-0.3-0.4-0.4
			c-0.3-0.3-0.5-0.6-0.9-0.8c-0.5-0.2-1.1,0-1.1,0.6c0,0.7,0.4,1.2,0.8,1.7c0.4,0.5,0.8,1.2,1.5,1.3c0.8,0.1,1.2-0.5,1.6-1
			c0.5-0.6,1-1.1,1.1-2C74.6,38,73.9,37.6,73.5,37.7z"/>
		<path class="st2" d="M77.8,48.9c-0.8,0.5-1.4,1.2-2,1.9c-0.1-0.1-0.2-0.3-0.3-0.4c-0.4-0.4-0.8-0.8-1.2-1.2
			c-0.4-0.4-1,0.1-0.8,0.6c0.2,0.5,0.4,1.1,0.6,1.6c0.3,0.5,0.5,1,0.8,1.5c0.3,0.6,1.1,0.6,1.6,0.2c0.9-0.9,2-1.9,2.5-3
			C79.4,49.3,78.6,48.4,77.8,48.9z"/>
		<path class="st2" d="M52.4,49c-1.2,0.1-2.5,1.2-3.6,2.2c-0.7-0.8-1.3-1.5-2-2.3c-0.3-0.3-0.7,0-0.7,0.4c0.2,1.5,0.8,2.6,1.7,3.9
			c0.4,0.6,1,0.6,1.6,0.2c0.7-0.6,1.4-1.1,2.1-1.7c0.6-0.5,1.2-0.8,1.6-1.5C53.3,49.7,53,48.9,52.4,49z"/>
		<path class="st2" d="M42.1,60.6c-0.7,0.7-1.5,1.4-2.2,2.1c-0.5-0.6-1.1-1.2-1.5-1.9c-0.4-0.6-1.3-0.1-1,0.6c0.6,1,1,2.1,1.6,3.1
			c0.3,0.5,1,0.6,1.5,0.2c1-0.9,2-1.8,2.9-2.7C44.3,61,43,59.7,42.1,60.6z"/>
		<path class="st2" d="M58.8,62.8c-0.5,0.3-0.8,0.8-1.2,1.3c-0.2,0.2-0.3,0.4-0.5,0.6c-0.1,0.1-0.1,0.1-0.2,0.2c0,0-0.1-0.1-0.1-0.2
			c-0.2-0.3-0.3-0.6-0.5-0.8c-0.3-0.5-0.6-0.9-1-1.2c-0.3-0.2-0.7,0.1-0.8,0.4c-0.1,0.9,0.4,1.8,0.7,2.6c0.3,0.7,0.6,1.5,1.5,1.5
			c0.8,0,1.3-0.6,1.8-1.1c0.6-0.7,1.3-1.4,1.6-2.2C60.3,63.1,59.4,62.4,58.8,62.8z"/>
		<path class="st2" d="M79.6,61.8c-1,0.4-1.8,1.4-2.5,2.4c-0.1-0.1-0.3-0.3-0.4-0.4c-0.3-0.4-0.5-0.8-1.1-1
			c-0.3-0.1-0.6,0.1-0.7,0.4c-0.3,1.1,1,2.6,1.6,3.4c0.4,0.5,1.3,0.3,1.6-0.2c0.4-0.6,0.8-1.2,1.3-1.8c0.5-0.5,0.9-1,1.2-1.6
			C81,62.3,80.2,61.6,79.6,61.8z"/>
		<path class="st2" d="M42.3,73.5c-0.4,0.4-0.8,0.7-1.2,1.1c-0.2,0.2-0.4,0.5-0.6,0.7c-0.2-0.4-0.5-0.9-0.6-1.2
			c-0.3-0.5-0.6-0.9-1-1.4c-0.4-0.4-0.9,0.1-0.9,0.5c0.1,0.8,0.4,1.5,0.7,2.2c0.3,0.6,0.6,1.4,1.2,1.7c0.7,0.4,1.3-0.1,1.8-0.6
			c0.7-0.6,1.3-1.2,1.8-1.9C44.2,73.8,43.2,72.8,42.3,73.5z"/>
		<path class="st2" d="M71.8,73c-0.6,0.4-1,1.1-1.4,1.7c-0.2,0.2-0.3,0.4-0.5,0.6c-0.2-0.3-0.4-0.5-0.5-0.8
			c-0.3-0.5-0.8-0.9-1.1-1.4c-0.3-0.5-1.2-0.2-1,0.4c0.2,0.7,0.3,1.3,0.6,2c0.3,0.7,0.7,1.3,1.1,1.9c0.3,0.5,1.1,0.7,1.6,0.2
			c0.9-1.1,2.1-2.3,2.7-3.5C73.8,73.2,72.7,72.3,71.8,73z"/>
		<path class="st2" d="M57.8,78.4c-1.1,0.1-1.7,1-2.4,1.8c-0.1,0.1-0.1,0.1-0.2,0.2c0,0,0,0,0,0c-0.1-0.2-0.3-0.4-0.5-0.6
			c-0.4-0.5-0.7-1-1.2-1.4c-0.4-0.3-1,0-0.9,0.5c0.2,0.8,0.6,1.6,1,2.3c0.4,0.7,0.8,1.3,1.7,1.3c0.7,0,1.2-0.5,1.6-1
			c0.5-0.5,1-1,1.6-1.5C59,79.5,58.7,78.3,57.8,78.4z"/>
		<path class="st2" d="M46.7,89.5c-1,0.3-1.6,1.2-2.4,1.8c0,0-0.1-0.1-0.1-0.1c-0.2-0.2-0.4-0.4-0.6-0.7c-0.4-0.4-0.8-0.7-1.2-1.1
			c-0.5-0.3-0.9,0.3-0.7,0.7c0.3,0.8,0.9,1.5,1.4,2.1c0.3,0.4,0.6,0.9,1.2,0.9c0.6,0,1.2-0.7,1.6-1c0.6-0.5,1.3-0.9,1.6-1.6
			C47.8,90.1,47.4,89.3,46.7,89.5z"/>
		<path class="st2" d="M70,88.2c-1.1,0.5-1.8,1.6-2.7,2.3c-0.4-0.3-0.7-1-1.1-1.2c-0.1-0.1-0.3,0-0.4,0.1c-0.6,1,0.3,3.2,1.6,3.3
			c0.8,0,1.5-0.8,2-1.3c0.7-0.6,1.4-1.3,1.8-2.2C71.5,88.4,70.6,88,70,88.2z"/>
		<path class="st2" d="M57.4,95.5c-0.5,0.1-0.8,0.3-1.2,0.6c-0.3,0.2-1.1,0.7-1.3,1c-0.1-0.1-0.2-0.3-0.3-0.4
			c-0.2-0.4-0.4-0.7-0.7-1c-0.4-0.5-1,0-1.1,0.5c-0.1,1,0.6,2.9,1.7,3.1c0.8,0.2,1.4-0.4,2-0.9c0.6-0.5,1.4-0.9,1.8-1.6
			C58.7,96.1,58.2,95.4,57.4,95.5z"/>
		<path class="st2" d="M39.6,49.1c-1,0.7-1.8,1.8-2.6,2.9c-0.6-1.1-1.2-2.2-2-3c-0.2-0.2-0.6,0-0.5,0.3c0.4,1.4,1.3,2.7,2,4.1
			c0.2,0.3,0.7,0.4,0.9,0.1c1-1.1,2.3-2.3,2.9-3.7C40.4,49.4,40,48.8,39.6,49.1z"/>
		<path class="st2" d="M67.2,49.1c-1,0.7-1.8,1.8-2.6,2.9c-0.6-1.1-1.2-2.2-2-3c-0.2-0.2-0.6,0-0.5,0.3c0.4,1.4,1.3,2.7,2,4.1
			c0.2,0.3,0.7,0.4,0.9,0.1c1-1.1,2.3-2.3,2.9-3.7C68,49.4,67.6,48.8,67.2,49.1z"/>
	</g>
	<g>
		<path class="st3" d="M93.3,105.8c-0.1,0.7-0.7,1.3-1.4,1.4l-2.8,0.6c-0.8,0.2-1.3,0.8-1.4,1.6c-0.3,3.9-1.4,16.2-3.1,28
			c-0.1,0.8-0.2,1.6-0.4,2.3c-0.7,4.5-1.5,8.8-2.5,12.5c-0.2,0.6-0.6,1.1-1.3,1.2c-1.7,0.4-5.3,1.2-10.8,1.6c-1.2,0.1-2.6,0.2-4,0.3
			c-5,0.3-11,0.2-18-0.3c-1.2-0.1-2.4-0.2-3.6-0.3c-3-0.3-6.2-0.7-9.5-1.3c-0.7-0.1-1.3-0.7-1.4-1.5c-0.3-2.2-1-7-1.7-13.2
			c-0.1-0.9-0.2-1.9-0.3-2.8c-0.9-8-1.9-17.8-2.4-27c0-0.8-0.6-1.5-1.4-1.6l-3.7-0.6c-0.7-0.1-1.3-0.7-1.4-1.4
			c-0.4-2.4-1.2-8.5-1.3-18.6c0-1,0.8-1.7,1.7-1.7h70.1c0.9,0,1.7,0.7,1.7,1.6C94.4,89.7,94.6,96.9,93.3,105.8z"/>
		<path class="st4" d="M86,107.2c-9.4,0.8-18.5,1.8-28,1.5c-9.4-0.3-18.8-1.8-28.2-1.6c-0.9,0-1.1,1.4-0.2,1.6
			c9.2,2,19,2.4,28.4,2.8c9.3,0.3,19.3,0.4,28.3-1.9C87.6,109.3,87.4,107.1,86,107.2z"/>
		<path class="st5" d="M84.6,137.4c-0.1,0.8-0.2,1.6-0.4,2.3c-7.7-0.1-12.3,7.7-14.5,15.4c-1.2,0.1-2.6,0.2-4,0.3
			c-0.6-9.3-3-20.9-11.4-15.1c-4.6,3.2-5.9,9-6.6,14.8c-1.2-0.1-2.4-0.2-3.6-0.3c-0.1-5.3-0.9-10.6-3.6-14.8
			c-2.9-4.5-6.3-3.6-9.1-1.2c-0.1-0.9-0.2-1.9-0.3-2.8c1.7-1.1,3.6-1.5,5.7-1.1c4.5,0.8,6.7,5.8,7.9,9.7c0.7,2.4,1.2,4.9,1.4,7.5
			c1.5-7.6,4.1-15.1,12-15.7c4.7-0.4,6.8,3.6,8,7.5c0.9,3.1,1.5,6.3,1.8,9.6C70.6,145,75.9,137.1,84.6,137.4z"/>
	</g>
</g>
</svg>
