<svg id="Icons" height="512" viewBox="0 0 74 74" width="512" xmlns="http://www.w3.org/2000/svg"><path d="m37.22 21.292a1 1 0 0 1 -.987-.847c-1.9-12.245 8.486-15.573 8.591-15.606a1 1 0 0 1 .586 1.913c-.379.118-8.829 2.892-7.2 13.386a1 1 0 0 1 -.835 1.142 1.036 1.036 0 0 1 -.155.012z"/><path d="m29.744 15.934a14.642 14.642 0 0 1 -5.359-.992 17.712 17.712 0 0 1 -9.055-8.75 1 1 0 0 1 .379-1.239c.29-.185 7.149-4.5 13.969-2.367 4 1.251 7.1 4.444 9.212 9.488a1 1 0 0 1 -.148 1.019 1 1 0 0 1 -.591.863 20.662 20.662 0 0 1 -8.407 1.978zm-12.17-9.741a15.627 15.627 0 0 0 7.556 6.893c3.444 1.335 7.377 1.087 11.7-.737-1.858-4.185-4.463-6.827-7.749-7.849-4.705-1.475-9.631.7-11.507 1.693z"/><path d="m37.853 13.749a.989.989 0 0 1 -.483-.125 49.3 49.3 0 0 0 -12.617-4.624 1 1 0 0 1 .385-1.963 50.527 50.527 0 0 1 13.2 4.839 1 1 0 0 1 -.485 1.875z"/><path d="m30.718 71.96c-4.289 0-10.65-2.051-16.562-11.853a42.126 42.126 0 0 1 -6.444-22.55 20.148 20.148 0 0 1 6.763-14.98c8.951-7.7 20.212-3.68 22.532-2.724 2.4-.957 14.485-5.13 23.412 3.541a20 20 0 0 1 5.868 14.113 42.1 42.1 0 0 1 -6.443 22.6c-10.122 16.784-21.567 10.843-21.681 10.781a2.852 2.852 0 0 0 -2.347.011 11.829 11.829 0 0 1 -5.098 1.061zm-3.394-51.96a17.281 17.281 0 0 0 -11.545 4.093 18.148 18.148 0 0 0 -6.067 13.5 40.133 40.133 0 0 0 6.157 21.482c9.1 15.086 18.617 10.264 19.019 10.052a4.888 4.888 0 0 1 4.208-.009c.417.222 9.938 5.043 19.035-10.043a40.1 40.1 0 0 0 6.156-21.529 18 18 0 0 0 -5.263-12.717c-8.924-8.675-21.479-3.039-21.605-2.982a1.006 1.006 0 0 1 -.837 0 24.846 24.846 0 0 0 -9.258-1.847z"/><path d="m17.842 40.619a1 1 0 0 1 -.986-1.173 14.774 14.774 0 0 1 9.4-11.64 1 1 0 0 1 .727 1.863 12.661 12.661 0 0 0 -8.157 10.123 1 1 0 0 1 -.984.827z"/></svg>