<?xml version="1.0" encoding="utf-8"?>
<!-- Generator: Adobe Illustrator 19.0.0, SVG Export Plug-In . SVG Version: 6.00 Build 0)  -->
<svg version="1.1" id="Calque_1" xmlns="http://www.w3.org/2000/svg" xmlns:xlink="http://www.w3.org/1999/xlink" x="0px" y="0px"
	 viewBox="224 -163 848.6 726" style="enable-background:new 224 -163 848.6 726;" xml:space="preserve">
<style type="text/css">
	.st0{display:none;}
	.st1{display:inline;fill:#F3EFEC;}
	.st2{fill:#5D4298;}
	.st3{opacity:7.000000e-002;fill:#2B2B2B;enable-background:new    ;}
	.st4{fill:#9B6D5C;}
	.st5{opacity:0.1;fill:#1E1E1E;enable-background:new    ;}
	.st6{fill:#96685A;}
	.st7{fill:#77564D;}
	.st8{fill:#4F3934;}
	.st9{fill:#FFFFFF;}
	.st10{fill:#BFBEBE;}
	.st11{opacity:0.2;fill:#D6B4B4;enable-background:new    ;}
	.st12{fill:#CECCCC;}
	.st13{fill:#A0A0A0;}
	.st14{fill:#141313;}
	.st15{opacity:0.3;fill:#FFFFFF;enable-background:new    ;}
	.st16{opacity:0.2;fill:#FFFFFF;enable-background:new    ;}
	.st17{fill:#373737;}
	.st18{fill:#C7C9C9;}
	.st19{fill:#78C2C5;}
	.st20{fill:#FCED7E;}
	.st21{fill:#6DB5B5;}
	.st22{opacity:0.1;fill:#2B2B2B;enable-background:new    ;}
	.st23{fill:#EC008C;}
	.st24{fill:#5D4495;}
	.st25{fill:#F9AC7F;}
	.st26{fill:#FBC39D;}
	.st27{fill:#FCCFB2;}
	.st28{fill:#463272;}
	.st29{fill:#E0E1E2;}
	.st30{fill:#9E9CCC;}
	.st31{fill:#32F98C;}
	.st32{fill:#8486C1;}
	.st33{fill:#EFC3AB;}
	.st34{fill:#9B4B10;}
	.st35{fill:#59E293;}
	.st36{fill:#1AD86C;}
	.st37{fill:#D7D5D5;}
	.st38{fill:#F9F9F9;}
</style>
<g id="BACKGROUND" class="st0">
	<rect x="224.8" y="-70.4" class="st1" width="500" height="500"/>
</g>
<g>
	<path class="st2" d="M-2412.8,535.9l77.7-31.1c-6.9-84.7-90.5-184.5-224.1-184.5s-217.8,99.8-224.6,184.5l77,31.1v394.6h294
		L-2412.8,535.9L-2412.8,535.9z"/>
</g>
<g>
	<path class="st3" d="M-2706.8,853.9v20.6c45,11.9,87-28.6,87-28.6l207,3v-31.5l-294,7.9V853.9z"/>
	<path class="st4" d="M-2505.1,326.2c-7.5-1.8-11.9-2.4-21.2-3.7l-4.9-50.8l-53.9-2l-2.1,52.1c-11.1,1.1-17,2.1-25.9,4.2
		c-0.2,2.7,0,5,0.1,7.8c1.3,33.1,26.5,58.8,56.2,57.3s52.8-29.5,51.5-62.7C-2505.2,328-2505.1,326.7-2505.1,326.2z"/>
	<path class="st5" d="M-2530.2,281.1l2.3,23.8c-9.5,1.5-20.6,2.9-31.5,2.7c-9.5,0-18.7-1.1-27-2.3l1-25.5L-2530.2,281.1z"/>
</g>
<g>
	<path class="st6" d="M-2365.9,134.3c-0.1,23.3-19,42-42.2,41.9s-41.9-19-41.8-42.3c0.1-23.3,19-42,42.2-41.9
		C-2384.6,92.1-2365.8,111-2365.9,134.3z"/>
	<path class="st6" d="M-2676.6,140.8c-0.1,23.3-19,42-42.2,41.9s-41.9-19-41.8-42.3c0.1-23.3,19-42,42.2-41.9
		C-2695.2,98.7-2676.5,117.6-2676.6,140.8z"/>
	<path class="st4" d="M-2402.3,131.9c0.1,90.7-71.7,164.2-159.3,164.3l0,0c-87.6,0.1-159.4-73.4-159.5-164.1l1.9-44.7
		c-0.1-90.7,69.8-164.2,157.3-164.3l0,0c87.6-0.1,157.5,73.4,157.6,164.1L-2402.3,131.9z"/>
	<path class="st7" d="M-2561.6,296.2c-87.6,0.1-159.4-73.4-159.5-164.1v-7.5c0-1.1,0.1-2.2,0-3.2l17.4,1.1c0,0,3.8,82.3,61.3,81
		c20.3-0.5,46.9-27.3,82.1-27.8c36.8-0.5,60.3,26.3,81.6,26.3c57.4-0.1,58.8-83.4,58.8-83.4l17.3-1.3c0,1.3,0.1,2.7,0.3,4.2V132
		C-2402.3,222.6-2474,296.2-2561.6,296.2z"/>
	<path class="st8" d="M-2720.1,57.3c3.2-50.1,43.9-136.6,155.5-141.7c111.1,3.8,157.1,87.5,160.8,137.6c1.2,16.1,1.3,64,1.3,64
		l-17.3,1.3c0,0,6.6-147.5-82.2-122c-19.7,5.7-43.6,11.4-61.6,11.7c-19.4,0-39.1-3.2-58.8-8.6c-89-24.6-81.1,122.8-81.1,122.8
		l-17.4-1.1C-2721.1,121.4-2721.2,73.5-2720.1,57.3z"/>
</g>
<g>
	<path class="st9" d="M-2486.6,211l-135.8-2.5c0,0,23,48.4,67,48.4C-2512,256.9-2488.6,220.7-2486.6,211z"/>
	<path d="M-2502,157.5c2.8,10,12.6,16,22.1,13.4c9.4-2.6,14.8-12.8,12.1-22.8c-2.8-10-12.6-16-22.1-13.4
		C-2499.4,137.4-2504.8,147.6-2502,157.5z"/>
	<path d="M-2648.1,157.5c2.8,10,12.6,16,22.1,13.4c9.4-2.6,14.8-12.8,12.1-22.8c-2.8-10-12.6-16-22.1-13.4
		C-2645.4,137.4-2650.9,147.6-2648.1,157.5z"/>
</g>
<g>
	<path class="st10" d="M-2882.7,833.2h642c11.6,0,21.8-6.3,27.2-15.7H-2910C-2904.5,826.8-2894.4,833.2-2882.7,833.2z"/>
	<path class="st11" d="M-2914.2,801.7c0,5.7,1.6,11.1,4.2,15.7h696.5c2.7-4.6,4.2-10,4.2-15.7H-2914.2z"/>
</g>
<g>
	<path class="st12" d="M-2512.7,801.7c-2.4,3.5-6.5,5.9-11.1,5.9h-75.9c-4.6,0-8.7-2.3-11.1-5.9h-303.4c0,5.7,1.6,11.1,4.2,15.7
		h696.5c2.7-4.6,4.2-10,4.2-15.7H-2512.7z"/>
	<path class="st13" d="M-2599.7,807.6h75.9c4.6,0,8.7-2.3,11.1-5.9h-98.1C-2608.4,805.2-2604.3,807.6-2599.7,807.6z"/>
</g>
<path class="st14" d="M-2266,788.7c0,7.2-5.8,13-13,13h-565.5c-7.2,0-13-5.8-13-13V420.8c0-7.2,5.8-13,13-13h565.5
	c7.2,0,13,5.8,13,13V788.7z"/>
<g>
	<polygon class="st15" points="-2691,407.8 -2477.9,801.7 -2368.5,801.7 -2650.3,407.8 	"/>
	<path class="st16" d="M-2266,788.7V668.9l-139.2-261h-209l279.7,393.9h55.5C-2271.8,801.7-2266,795.9-2266,788.7z"/>
</g>
<g>
	<circle cx="-2561.7" cy="421.9" r="4.2"/>
	<circle class="st16" cx="-2561.7" cy="421.9" r="1"/>
</g>
<rect x="-2823.9" y="438.3" class="st17" width="523.3" height="333.3"/>
<g>
	<rect x="-2823.9" y="438" class="st18" width="523.3" height="24.8"/>
	<g>
		<circle class="st2" cx="-2809.6" cy="450.5" r="6.1"/>
		<circle class="st19" cx="-2789.9" cy="450.5" r="6.1"/>
		<circle class="st20" cx="-2770.2" cy="450.5" r="6.1"/>
	</g>
</g>
<g>
	<path class="st9" d="M-2713.5,488.7c0,4.1-3.3,7.4-7.4,7.4h-41.1c-4.1,0-7.4-3.3-7.4-7.4l0,0c0-4.1,3.3-7.4,7.4-7.4h41.1
		C-2716.8,481.3-2713.5,484.7-2713.5,488.7L-2713.5,488.7z"/>
	<path class="st21" d="M-2690.7,508.8c0,4.1-3.3,7.4-7.4,7.4h-41.1c-4.1,0-7.4-3.3-7.4-7.4l0,0c0-4.1,3.3-7.4,7.4-7.4h41.1
		C-2694.1,501.4-2690.7,504.7-2690.7,508.8L-2690.7,508.8z"/>
	<path class="st9" d="M-2552.9,528.9c0,4.1-3.3,7.4-7.4,7.4h-146.2c-4.1,0-7.4-3.3-7.4-7.4l0,0c0-4.1,3.3-7.4,7.4-7.4h146.2
		C-2556.2,521.5-2552.9,524.8-2552.9,528.9L-2552.9,528.9z"/>
	<path class="st2" d="M-2476.5,548.9c0,4.1-3.3,7.4-7.4,7.4h-222.6c-4.1,0-7.4-3.3-7.4-7.4l0,0c0-4.1,3.3-7.4,7.4-7.4h222.6
		C-2479.8,541.5-2476.5,544.8-2476.5,548.9L-2476.5,548.9z"/>
	<path class="st18" d="M-2419.2,569c0,4.1-3.3,7.4-7.4,7.4h-279.9c-4.1,0-7.4-3.3-7.4-7.4l0,0c0-4.1,3.3-7.4,7.4-7.4h279.9
		C-2422.5,561.6-2419.2,564.9-2419.2,569L-2419.2,569z"/>
	<path class="st21" d="M-2643,589.1c0,4.1-3.3,7.4-7.4,7.4h-88.8c-4.1,0-7.4-3.3-7.4-7.4l0,0c0-4.1,3.3-7.4,7.4-7.4h88.8
		C-2646.3,581.6-2643,585-2643,589.1L-2643,589.1z"/>
	<g>
		<path class="st18" d="M-2658,609.1c0,4.1-3.3,7.4-7.4,7.4h-41.1c-4.1,0-7.4-3.3-7.4-7.4l0,0c0-4.1,3.3-7.4,7.4-7.4h41.1
			C-2661.3,601.7-2658,605-2658,609.1L-2658,609.1z"/>
		<path class="st9" d="M-2598.1,609.1c0,4.1-3.3,7.4-7.4,7.4h-41.1c-4.1,0-7.4-3.3-7.4-7.4l0,0c0-4.1,3.3-7.4,7.4-7.4h41.1
			C-2601.4,601.7-2598.1,605-2598.1,609.1L-2598.1,609.1z"/>
	</g>
	<path class="st2" d="M-2619.8,629.2c0,4.1-3.3,7.4-7.4,7.4h-79.3c-4.1,0-7.4-3.3-7.4-7.4l0,0c0-4.1,3.3-7.4,7.4-7.4h79.3
		C-2623.1,621.8-2619.8,625.1-2619.8,629.2L-2619.8,629.2z"/>
	<path class="st9" d="M-2581.6,649.2c0,4.1-3.3,7.4-7.4,7.4h-117.5c-4.1,0-7.4-3.3-7.4-7.4l0,0c0-4.1,3.3-7.4,7.4-7.4h117.5
		C-2584.9,641.8-2581.6,645.1-2581.6,649.2L-2581.6,649.2z"/>
	<path class="st18" d="M-2658,669.3c0,4.1-3.3,7.4-7.4,7.4h-41.1c-4.1,0-7.4-3.3-7.4-7.4l0,0c0-4.1,3.3-7.4,7.4-7.4h41.1
		C-2661.3,661.9-2658,665.2-2658,669.3L-2658,669.3z"/>
	<g>
		<path class="st21" d="M-2658,689.4c0,4.1-3.3,7.4-7.4,7.4h-41.1c-4.1,0-7.4-3.3-7.4-7.4l0,0c0-4.1,3.3-7.4,7.4-7.4h41.1
			C-2661.3,682-2658,685.3-2658,689.4L-2658,689.4z"/>
		<path class="st2" d="M-2469.1,689.4c0,4.1-3.3,7.4-7.4,7.4h-170c-4.1,0-7.4-3.3-7.4-7.4l0,0c0-4.1,3.3-7.4,7.4-7.4h170
			C-2472.4,682-2469.1,685.3-2469.1,689.4L-2469.1,689.4z"/>
		<path class="st9" d="M-2399.8,689.4c0,4.1-3.3,7.4-7.4,7.4h-50.6c-4.1,0-7.4-3.3-7.4-7.4l0,0c0-4.1,3.3-7.4,7.4-7.4h50.6
			C-2403.1,682-2399.8,685.3-2399.8,689.4L-2399.8,689.4z"/>
	</g>
	<path class="st18" d="M-2690.7,709.4c0,4.1-3.3,7.4-7.4,7.4h-41.1c-4.1,0-7.4-3.3-7.4-7.4l0,0c0-4.1,3.3-7.4,7.4-7.4h41.1
		C-2694.1,702-2690.7,705.3-2690.7,709.4L-2690.7,709.4z"/>
	<path class="st2" d="M-2658,729.5c0,4.1-3.3,7.4-7.4,7.4h-41.1c-4.1,0-7.4-3.3-7.4-7.4l0,0c0-4.1,3.3-7.4,7.4-7.4h41.1
		C-2661.3,722.1-2658,725.4-2658,729.5L-2658,729.5z"/>
	<path class="st18" d="M-2552.9,749.5c0,4.1-3.3,7.4-7.4,7.4h-146.2c-4.1,0-7.4-3.3-7.4-7.4l0,0c0-4.1,3.3-7.4,7.4-7.4h146.2
		C-2556.2,742.1-2552.9,745.5-2552.9,749.5L-2552.9,749.5z"/>
</g>
<polygon class="st4" points="-2221,658.9 -2266,699 -2266,654.9 "/>
<polygon class="st22" points="-2266,661.8 -2235.5,671.9 -2223.1,660 -2256.2,653.5 "/>
<path class="st4" d="M-2284.2,582.9c-13,1.5-57.8,4.9-57.8,4.9c-7.4,0.9-13.2,7.7-12.3,15c0.9,7.1,7.2,12.3,14.3,11.8
	c0.2,0,38-2.7,38.2-2.7c-7.4,0.9-12.6,7.6-11.7,14.9c0.9,7.3,7.6,12.6,14.9,11.7c-7.4,0.9-12.4,7.5-11.6,14.9
	c0.9,7.4,7.7,12.6,15.1,11.7l6.7-0.8c1-0.1,11.4-1.2,24.8-2.7c14.4-0.6,26.3-1,33.7-0.3h-0.1c29,1.5,28.8-71.3,2.1-78.2
	C-2243.5,578.8-2264.7,579.9-2284.2,582.9z"/>
<path class="st4" d="M-2756.5,790.5c1.1-13.7,1.7-21.3,1.7-21.3c0.7-7.7,7.6-14.1,15.4-13.4c7.7,0.7,13.5,7.6,12.8,15.3
	c0.7-7.7,7.5-13.4,15.3-12.8c7.7,0.7,13.5,7.5,12.8,15.3c0.7-7.7,7.5-13.3,15.2-12.6s13.4,7.7,12.7,15.4l-0.6,7
	c-0.1,1.1-0.9,12-2,26.1c-0.2,15.2,0.8,20.3,0.8,20.3c2.5,30.4-73.8,32.5-82,4.7C-2759.5,818.4-2758.9,811.1-2756.5,790.5z"/>
<g>
	<g>
		<g>
			<path id="Hair" class="st23" d="M442.6,71.6C438.3,47.9,421.5,24,383,21.2v-0.1c0,0-0.6,0-1,0c-1.3,0-2.7,0-4,0s-2.4,0-3.7,0
				c-0.4,0-0.6,0-0.6,0v0.1c-43.3,2.9-58.6,23.4-62,50.2c-3.8,30.1-4.1,146.3-3.8,159.2c4,20.2,13.1,22.6,25.7,35.1
				c12.4,12.4,28.1,19.8,45.2,19.8c16.6,0,28.2-23.9,40.5-35.7c11.7-11.4,24.5-10.1,29.1-28.3C448.4,205,448.3,104,442.6,71.6z"/>
			<path class="st24" d="M466.7,258.8L300.1,256v-17.7c0-29,35.6-55.9,70.5-55.9h26.3c31,0,69.7,27.2,69.7,52.8v23.6H466.7z"/>
			<g>
				<path class="st25" d="M365.2,170.6c0,0,1.3,9.4,16,9.4c14.7,0,16-9.4,16-9.4H365.2z"/>
				<path class="st26" d="M390.4,149.7H372c-3.7,0-6.8,3.1-6.8,6.8v28.8c0,8.8,7.1,16,16,16s16-7.1,16-16v-28.8
					C397.1,152.8,394.1,149.7,390.4,149.7z"/>
			</g>
			<g>
				<g id="Girl_2_">
					<g id="Head_3_">
						<g>
							<path class="st27" d="M437.6,109c0.5,32-25,58.5-57.2,59.1l0,0c-32,0.5-58.5-25-59.1-57.2l-0.4-21.7
								c-0.5-32,25-58.5,57.2-59.1l0,0c32-0.5,58.5,25,59.1,57.2L437.6,109z"/>
							<ellipse class="st27" cx="319.5" cy="109.9" rx="15.6" ry="15.6"/>
						</g>
					</g>
					<g>
						<path class="st28" d="M262.6,63c0,4.5,2.9,8.2,6.6,8.2l55,0.1c3.7,0,6.6-3.6,6.6-8.2l0,0c0-4.5-2.9-8.2-6.6-8.2l-55-0.1
							C265.5,54.9,262.6,58.5,262.6,63L262.6,63z"/>
						<path class="st2" d="M442.3,71.5c0.1-32-25.9-57.9-57.9-58.1H369c-32-0.1-57.6,25.8-57.7,57.8L442.3,71.5z"/>
						<path class="st27" d="M373.5,62.3l34.3-0.1l0,0c0.1-8.7-6.5-15.6-14.8-15.6H389C380.5,46.6,373.6,53.6,373.5,62.3L373.5,62.3z
							"/>
					</g>
					<path class="st23" d="M344,71c0,0-11.7,45.7-15.6,95.5l-9.1-1.4c0,0-4.2-62.3,1.7-94.1H344z"/>
				</g>
				<g>
					<g>
						<ellipse transform="matrix(0.2657 0.9641 -0.9641 0.2657 412.5426 -310.7714)" cx="410.3" cy="115.4" rx="6.9" ry="6.6"/>
						<ellipse transform="matrix(0.2657 0.9641 -0.9641 0.2657 372.8167 -258.6014)" cx="356.2" cy="115.4" rx="6.9" ry="6.6"/>
					</g>
					<path class="st9" d="M363.9,135.9l39.4-1.5c0,0-5.6,12.4-15.4,14.2C374.7,150.9,364.6,139,363.9,135.9z"/>
				</g>
			</g>
		</g>
		<path class="st29" d="M481.1,348.9H281.5c-6.4,0-11.6-5.2-11.6-11.6V222.7c0-6.4,5.2-11.6,11.6-11.6h199.7
			c6.4,0,11.6,5.2,11.6,11.6v114.6C492.7,343.8,487.5,348.9,481.1,348.9z"/>
		<path class="st9" d="M378.6,295.6c-8.6,0-15.6-7-15.6-15.6s7-15.6,15.6-15.6c8.6,0,15.6,7,15.6,15.6S387.2,295.6,378.6,295.6z"/>
		<path class="st24" d="M737.3,258.8L570.7,256v-17.7c0-29,35.6-55.9,70.5-55.9h26.3c31,0,69.7,27.2,69.7,52.8v23.6H737.3z"/>
		<path class="st26" d="M660.9,149.7h-18.4c-3.7,0-6.8,3.1-6.8,6.8v28.8c0,8.8,7.1,16,16,16s16-7.1,16-16v-28.8
			C667.7,152.8,664.6,149.7,660.9,149.7z"/>
		<path class="st25" d="M635.8,170.6c0,0,1.3,9.4,16,9.4s16-9.4,16-9.4H635.8z"/>
		<path class="st29" d="M751.7,348.9H552.1c-6.4,0-11.6-5.2-11.6-11.6V222.7c0-6.4,5.2-11.6,11.6-11.6h199.7
			c6.4,0,11.6,5.2,11.6,11.6v114.6C763.3,343.8,758.1,348.9,751.7,348.9z"/>
		<path class="st9" d="M649.2,295.6c-8.6,0-15.6-7-15.6-15.6s7-15.6,15.6-15.6s15.6,7,15.6,15.6S657.7,295.6,649.2,295.6z"/>
		<g>
			<path class="st30" d="M711.9,96.6c0,31.7-28.2,57.2-63,57.2c-34.8,0-63-25.7-63-57.2c0-31.3,27.3-59.1,62-57.2c0.4,0,0.8,0,1.1,0
				c0.3,0,0.6,0,0.9,0C684.2,37.7,711.9,65.3,711.9,96.6z"/>
			<path class="st31" d="M597.2,136.9c0,0-11.6,16.2,1.1,41c-1.4-13.7-5.2-24.8,5.5-41C614.5,120.7,599.2,131.5,597.2,136.9z"/>
			<g>
				<g id="Girl_1_">
					<g id="Head_1_">
						<g>
							<path class="st26" d="M702,122.1c0.5,28.5-22.2,51.9-50.8,52.5l0,0c-28.5,0.5-51.9-22.2-52.5-50.8l-0.3-19.3
								c-0.5-28.5,22.2-51.9,50.8-52.5l0,0c28.5-0.5,51.9,22.2,52.5,50.8L702,122.1z"/>
							<ellipse class="st26" cx="597.1" cy="123" rx="13.9" ry="13.9"/>
						</g>
					</g>
				</g>
				<g>
					<path class="st9" d="M676.6,142.2l-44.8-0.9c0,0,7.7,16,22.1,16C668.2,157.4,676,145.5,676.6,142.2z"/>
					<ellipse transform="matrix(0.2657 0.9641 -0.9641 0.2657 615.9354 -562.4745)" cx="677.2" cy="123.1" rx="6.1" ry="5.9"/>
					<ellipse transform="matrix(0.2657 0.9641 -0.9641 0.2657 580.5901 -516.0501)" cx="629.1" cy="123.1" rx="6.1" ry="5.9"/>
				</g>
			</g>
			<g>
				<path class="st30" d="M609.9,30.6c7.4,7.7,7.1,19.9-0.5,27.3l-16.8,16.3c-7.7,7.4-19.9,7.1-27.3-0.5l0,0
					c-7.4-7.7-7.1-19.9,0.5-27.3c4.2-4.1,12.6-12.3,16.8-16.3C590.2,22.7,602.5,22.8,609.9,30.6L609.9,30.6z"/>
				<path class="st30" d="M688.8,30.4c7.5-7.7,19.8-7.7,27.3-0.1c4.2,4.1,12.5,12.4,16.7,16.5c7.7,7.5,7.7,19.8,0.1,27.3l0,0
					c-7.5,7.7-19.8,7.7-27.3,0.1l-16.7-16.5C681.2,50.2,681.2,37.9,688.8,30.4L688.8,30.4z"/>
				<path class="st31" d="M696.5,105.9c0,0,11,41.9,0,76.5C705.4,173.1,713.4,131.7,696.5,105.9z"/>
				<path class="st30" d="M652.1,68.3l-55,58.1c0,0-0.6-6.9-0.9-16.2c-0.4-17.6,0.5-43.8,10-49c14.3-8,45.4-16.8,45.4-16.8
					s37.4,8.9,44.9,27.1c7.7,18.1,7.7,50.7,7.7,50.7S670.9,79.6,652.1,68.3z"/>
				<path class="st23" d="M712.9,27.8c0,0-24.6,11.6-21.4,32.9l11.6,11.5C703.1,72.1,699,36.8,712.9,27.8z"/>
				<path class="st32" d="M722.8,36.9l11.4,11.4c0,0,0.4,22.2-23.1,29.4C718.4,71.3,728.2,55.5,722.8,36.9z"/>
				<path class="st32" d="M612.1,54.8c0,0,0.5-20.8-28.8-25.3l-9.7,9.3C573.5,38.8,605.5,37.3,612.1,54.8z"/>
				<path class="st31" d="M604.5,62.3l-14.8,14.2c0,0-27.1-7.1-25.7-28.3C569.8,56.4,585.6,65.6,604.5,62.3z"/>
				<path class="st32" d="M651.5,47c0,0,20.7-2,34.3,6.9c-8.8-0.1-32.8,5.7-32.8,5.7S652.6,51.7,651.5,47z"/>
				<path class="st31" d="M656.3,65.3c0,0,42,9.8,54.6,40.7c-1.4,7.7-3.2,10.8-3.2,10.8S684.9,75.4,656.3,65.3z"/>
				<path class="st23" d="M648.8,59.6c0,0-50.4,12.4-52.6,48.6L648.8,59.6z"/>
				<path class="st32" d="M647.7,41.2c0,0,2.4,4.6,2.4,12l-40.7,4.7C609.4,57.9,622.6,44.4,647.7,41.2z"/>
				<path class="st30" d="M648.8,39.4c0,0,6.1-10.7,23.6-5c-7.4,0.1-13.4,3.1-14.7,5.9C656.3,43,650.5,41.5,648.8,39.4z"/>
				<path class="st30" d="M648.8,39.4c0,0-8.2-7.7-19-3.7c6.3,0.5,11.7,4.7,11.9,5.5C640.6,40.3,648.8,39.4,648.8,39.4z"/>
			</g>
		</g>
		<path class="st24" d="M1007.8,258.8L841.3,256v-17.7c0-29,35.6-55.9,70.5-55.9H938c31,0,69.7,27.2,69.7,52.8v23.6H1007.8z"/>
		<path class="st26" d="M931.5,149.7h-18.4c-3.7,0-6.8,3.1-6.8,6.8v28.8c0,8.8,7.1,16,16,16c8.8,0,16-7.1,16-16v-28.8
			C938.3,152.8,935.2,149.7,931.5,149.7z"/>
		<path class="st25" d="M906.4,170.6c0,0,1.3,9.4,16,9.4s16-9.4,16-9.4H906.4z"/>
		<path class="st29" d="M1022.3,348.9H822.6c-6.4,0-11.6-5.2-11.6-11.6V222.7c0-6.4,5.2-11.6,11.6-11.6h199.7
			c6.4,0,11.6,5.2,11.6,11.6v114.6C1033.9,343.8,1028.6,348.9,1022.3,348.9z"/>
		<path class="st9" d="M919.8,295.6c-8.6,0-15.6-7-15.6-15.6s7-15.6,15.6-15.6s15.6,7,15.6,15.6S928.3,295.6,919.8,295.6z"/>
		<g>
			<g id="Nerd_1_">
				<g id="Head_8_">
					<g id="teen_1_">
						<g>
							
								<ellipse transform="matrix(4.257878e-002 0.9991 -0.9991 4.257878e-002 939.9615 -753.191)" class="st33" cx="863" cy="113.8" rx="16.1" ry="16"/>
							<path class="st27" d="M862.1,118.1c1.4,32.9,29.2,58.5,62.2,57.1l0,0c32.9-1.4,58.5-29.2,57.1-62.2l-0.9-22.2
								c-0.5-13.3,0.1-32-7.7-41.6c-11.5-14.2-34.8-16.3-54.5-15.4l0,0c-32.9,1.4-58.5,29.2-57.1,62.2L862.1,118.1z"/>
							
								<ellipse transform="matrix(4.255059e-002 0.9991 -0.9991 4.255059e-002 1051.2319 -874.6522)" class="st27" cx="982" cy="111.2" rx="16.1" ry="16"/>
							<path class="st17" d="M976.3,104.3c0,0,1.8-1.1,3.2-2.6c0,0,7.7-18.4,4.1-31.3c-1.3-5.7-5.1-13-10-20.2l-14.9,13.4
								C964.8,72.4,973.2,83.3,976.3,104.3z"/>
							<path class="st17" d="M877.9,58.7l-11.7-4.5c0,0-11.4,16.1-5.9,43.9l1.4,0.5C861.7,98.7,862.3,70.8,877.9,58.7z"/>
							<path class="st17" d="M973.2,49.8l-15.1,13.4c0,0-58.7,5.9-85.6-5c-13-5.2-16.5-8.2-19.8-37.7
								C870.8,47.6,973.6-22.8,973.2,49.8z"/>
						</g>
					</g>
					<g>
						<ellipse class="st34" cx="909.6" cy="129.2" rx="1.4" ry="1.4"/>
						<path class="st34" d="M918,125.3c-0.1,0.5-0.6,0.9-1.1,0.8s-0.9-0.6-0.9-1.1c0.1-0.5,0.6-0.9,1.1-0.8S918,124.8,918,125.3z"/>
						<ellipse class="st34" cx="921.8" cy="131.1" rx="1.4" ry="1.4"/>
						
							<ellipse transform="matrix(0.1538 -0.9881 0.9881 0.1538 659.7264 1020.2389)" class="st34" cx="925.5" cy="124.9" rx="1.1" ry="1.3"/>
						<ellipse class="st34" cx="931.2" cy="129.8" rx="1.4" ry="1.4"/>
						<ellipse class="st34" cx="938.3" cy="133.4" rx="1.1" ry="1.1"/>
						
							<ellipse transform="matrix(0.1542 -0.988 0.988 0.1542 631.2285 1003.8887)" class="st34" cx="902" cy="133.3" rx="1.1" ry="1.3"/>
						
							<ellipse transform="matrix(0.154 -0.9881 0.9881 0.154 639.0475 999.5613)" class="st34" cx="903.2" cy="126.6" rx="1.1" ry="1.3"/>
						
							<ellipse transform="matrix(0.1547 -0.988 0.988 0.1547 625.6658 995.2195)" class="st34" cx="894.4" cy="132" rx="1.1" ry="1.3"/>
					</g>
				</g>
				<path d="M857.4,108.9v0.3v0.3c0.1,0.5,2.9,14.7,4.5,18.6c1.3,3.2,5,9.2,10,9.2l26.4-0.1c9.2,0,12.1-22.6,12.6-27.3
					c0.8-1.8,2.4-2.9,4.3-2.9c2,0,3.8,1.3,4.7,3.2c1,5.2,5.9,26.9,14.9,26.9l26.4-0.1c5,0,8.2-6,9.2-9.2c1.3-4,2.8-18.1,2.8-18.6
					v-0.3v-0.3c-0.3-5.5-4.3-10.1-9.3-10.1h-35.5h-0.3l-26.5,0.3l-35.7,0.1C860.9,98.8,857.1,103.4,857.4,108.9z M924.2,107.8
					c1-1.4,2.7-2.3,4.3-2.3H963c2.9,0,4,2.6,4.2,5.7c-0.3,1.7-1,11.9-2,15.2c-0.9,2.8-1.8,6.6-5.5,6.4h-25.1
					c-5.2,0-9.7-14.5-11.1-21.7C923.2,109.6,923.7,108.5,924.2,107.8z M862.8,111.5c0-3.2,1.4-5.9,4.3-5.9h34.5
					c1.7,0,3.4,0.9,4.6,2.3c0.5,0.8,1.3,1.9,1,3.3c-0.8,7.3-3.8,21.7-9.1,21.7h-25.1c-4.1-0.1-5.4-4.3-6.4-7.1
					C865.3,122.4,863.1,113.2,862.8,111.5z"/>
			</g>
			<g>
				<path class="st9" d="M935.2,143.3l-40.2-1.7c0,0,5.7,12.6,15.8,14.4C924.2,158.6,934.4,146.5,935.2,143.3z"/>
			</g>
			<path d="M954.1,122.5c0,1.8-1.4,3.2-3.2,3.2h-14.7c-1.8,0-3.2-1.4-3.2-3.2l0,0c0-1.8,1.4-3.2,3.2-3.2h14.7
				C952.7,119.2,954.1,120.7,954.1,122.5L954.1,122.5z"/>
			<path d="M896.7,122.5c0,1.8-1.4,3.2-3.2,3.2h-14.7c-1.8,0-3.2-1.4-3.2-3.2l0,0c0-1.8,1.4-3.2,3.2-3.2h14.7
				C895.3,119.2,896.7,120.7,896.7,122.5L896.7,122.5z"/>
		</g>
	</g>
	<g>
		<path id="XMLID_1703_" class="st35" d="M509.1,275.4c0,0,23.1,2.6,34.5,18.3c11.4,15.7,7.1,38.4,7.1,38.4s-23.1-2.6-34.5-18.3
			C504.6,298.1,509.1,275.4,509.1,275.4z"/>
		<path id="XMLID_1702_" class="st36" d="M592.5,294.8c0,0,0.6,17.7-9.9,28c-10.5,10.4-28.2,9.5-28.2,9.5s-0.6-17.7,9.9-28
			S592.5,294.8,592.5,294.8z"/>
		<path id="XMLID_1701_" class="st31" d="M558.9,263.6c0,0,15.2,17.4,13.1,36.8c-2.1,19.2-20.7,33-20.7,33s-15.2-17.4-13.1-36.8
			C540.4,277.2,558.9,263.6,558.9,263.6z"/>
		<polygon id="XMLID_1700_" class="st37" points="526.5,328.3 592.8,328.3 579.6,386.6 539.6,386.6 		"/>
		<polygon id="XMLID_1699_" class="st38" points="511.6,328.3 570.5,328.3 564.6,386.6 524.6,386.6 		"/>
	</g>
</g>
</svg>
