<svg id="Layer_1" data-name="Layer 1" xmlns="http://www.w3.org/2000/svg" viewBox="0 0 2742 1523"><defs><style>.cls-1{fill:#f8ede8;}.cls-2,.cls-3{fill:#fdc165;}.cls-3,.cls-9{fill-rule:evenodd;}.cls-4{fill:#745c5f;}.cls-5{fill:#fff;}.cls-6{fill:#ffd6ba;}.cls-7{fill:#c5cdd6;}.cls-8{fill:#ea9995;}</style></defs><rect class="cls-1" y="0.26" width="2742" height="1522.48"/><circle class="cls-2" cx="1464.29" cy="380.56" r="49.03" transform="translate(-47.47 321.01) rotate(-12.31)"/><path d="M1506.87,398.3a46.13,46.13,0,1,1-16.45-55.74c18.28,12.42,24.48,36.32,16.16,56.44-1.44,3.47,4.21,5,5.63,1.55a52.09,52.09,0,1,0-.3.7C1513.41,397.84,1508.38,394.86,1506.87,398.3Z"/><path d="M1453.49,415.35l-6.07-2.58,3.32-7.77q-16-8.52-15.9-21.65l7.62.72q.26,10.14,10.62,15.42l8-18.68q-10.61-7.19-12.52-12.28a12.41,12.41,0,0,1,0-9.52q5-11.67,24.51-6.29l2.83-6.64,6.06,2.58-2.83,6.64q14.21,7.29,14.7,18.82l-7.46-1.09q0-7.72-9.5-12.42l-7.34,17.23q19.24,11.71,14.13,23.71-2.19,5.16-8.74,7.57t-18.07-1.54ZM1470.75,358a16.67,16.67,0,0,0-9.26-.94,7.27,7.27,0,0,0-5.44,4.31q-2.83,6.66,7.65,13.17Zm-11.61,44q6.12,2.37,10.58,1.32c3-.7,5-2.22,5.94-4.55q3.18-7.45-9-14.36Z"/><path class="cls-3" d="M1315.78,392.47a44.36,44.36,0,1,1-57.44-25.24A44.36,44.36,0,0,1,1315.78,392.47Z"/><path d="M1313,393.24a41.46,41.46,0,1,1-46.53-25.34c19.36-3.94,39.19,7.12,46.53,25.34,1.39,3.45,7,1.94,5.63-1.55-7.32-18.17-24.79-30.61-44.6-30.41a47.29,47.29,0,1,0,44.6,30.41C1317.28,388.21,1311.63,389.72,1313,393.24Z"/><path d="M1289.47,437.92l-5.56,2.16-2.77-7.12q-15.72,4.59-24-4l5.38-4.35q6.59,6.41,16.63,3.26l-6.67-17.12q-11.4,2.07-15.87,0a11.19,11.19,0,0,1-6-6.15q-4.17-10.69,11.87-19.58L1260.1,379l5.56-2.17,2.37,6.09q13.8-4.28,21.41,2.88l-5.52,4q-4.85-5-14-2l6.15,15.78q19.88-4.59,24.15,6.4,1.85,4.72-.87,10.43t-12.66,10.43Zm-25.1-48a15.13,15.13,0,0,0-6.58,5.25,6.56,6.56,0,0,0-.8,6.23q2.37,6.09,13.29,3.68Zm20.35,35.83q5.46-2.34,7.68-5.84a7.17,7.17,0,0,0,1-6.7q-2.67-6.82-14.93-3.58Z"/><circle class="cls-2" cx="1105.5" cy="313.16" r="51.02" transform="translate(66.87 804.53) rotate(-41.13)"/><path d="M1150.51,330.17a48.12,48.12,0,1,1-19.63-57.89c19.54,12.07,27.33,36.53,19.63,57.89-1.28,3.54,4.36,5.07,5.63,1.55,7.63-21.15,1.32-45.62-16.13-60a53.94,53.94,0,1,0-42.83,94.75c25.42,3.88,49.83-10.89,59-34.73C1157.48,328.21,1151.84,326.69,1150.51,330.17Z"/><path d="M1096,349.86l-6.43-2.39,3.07-8.24q-17-8.07-17.58-21.74l8,.39q.77,10.53,11.8,15.51l7.36-19.8q-11.37-7-13.61-12.16a12.93,12.93,0,0,1-.49-9.9q4.6-12.37,25.18-7.73l2.62-7.05,6.43,2.4-2.62,7q15.12,6.88,16.19,18.84l-7.81-.76q-.32-8-10.48-12.45l-6.79,18.27q20.58,11.24,15.85,24-2,5.46-8.72,8.3t-18.86-.73Zm15.16-60.43a17.36,17.36,0,0,0-9.67-.53,7.58,7.58,0,0,0-5.45,4.75q-2.62,7.05,8.59,13.32Zm-9.92,46.35q6.48,2.16,11,.85c3.06-.87,5-2.54,6-5q2.94-7.89-10.08-14.48Z"/><path class="cls-3" d="M916.85,455a43.78,43.78,0,1,1,57,24.27A43.79,43.79,0,0,1,916.85,455Z"/><path d="M919.67,454.17a40.88,40.88,0,1,1,45.58,24.56c-18.87,3.79-38.24-6.89-45.58-24.56-1.43-3.42-7.08-1.92-5.63,1.56,7.46,17.94,25,30.11,44.63,29.57A46.72,46.72,0,1,0,914,455.73C915.38,459.19,921,457.68,919.67,454.17Z"/><path d="M942.32,409.81l5.46-2.19,2.81,7q15.46-4.71,23.71,3.64L969,422.6q-6.56-6.24-16.44-3l6.77,16.81q11.24-2.16,15.65-.15a11.08,11.08,0,0,1,6,6q4.23,10.51-11.5,19.45l2.4,6-5.46,2.2-2.4-6q-13.58,4.37-21.16-2.61l5.39-4q4.86,4.92,13.84,1.84l-6.24-15.51q-19.54,4.76-23.9-6-1.86-4.64.74-10.3t12.38-10.43Zm25.29,47.1a14.91,14.91,0,0,0,6.44-5.25,6.54,6.54,0,0,0,.72-6.16q-2.41-6-13.15-3.49Zm-20.48-35.14q-5.36,2.37-7.51,5.85a7.09,7.09,0,0,0-.88,6.62q2.7,6.72,14.77,3.37Z"/><path class="cls-3" d="M870,499.41a49.29,49.29,0,1,1-33.64-61A49.28,49.28,0,0,1,870,499.41Z"/><path d="M867.17,498.63c-5.51,18.35-21.9,32-41.17,33.34a46.38,46.38,0,1,1,41.17-33.34c-1,3.63,4.63,5.18,5.64,1.55A52.22,52.22,0,1,0,818,537.7c24.75,2.35,47.7-14,54.79-37.52C873.89,496.58,868.25,495,867.17,498.63Z"/><path d="M816.09,521.75l-6.36-1.84,2.36-8.16q-17-6.56-18.49-19.68l7.69-.2Q802.78,502,813.76,506l5.67-19.6q-11.46-5.88-14-10.73a12.47,12.47,0,0,1-1.18-9.5q3.54-12.25,23.7-9.26l2-7,6.36,1.84-2,7q15.06,5.55,16.95,17l-7.57-.18q-.9-7.71-11-11.23l-5.23,18.08q20.64,9.36,17,21.95c-1,3.6-3.65,6.47-7.8,8.61s-10.24,2.36-18.22.66Zm10.26-59.3a16.79,16.79,0,0,0-9.35.18,7.35,7.35,0,0,0-4.91,5q-2,7,9.24,12.22Zm-6.23,45.35q6.4,1.63,10.72,0c2.87-1.06,4.67-2.82,5.38-5.27q2.26-7.81-10.75-13.23Z"/><path class="cls-3" d="M972.36,650.81a28.89,28.89,0,1,1,19.23,36A28.9,28.9,0,0,1,972.36,650.81Z"/><path d="M975.18,651.58a26,26,0,1,1,12.57,30.54,26.23,26.23,0,0,1-12.57-30.54c1.05-3.61-4.59-5.16-5.63-1.55a31.82,31.82,0,1,0,33.59-22.45c-15.08-1.63-29,8.21-33.59,22.45C968.41,653.62,974,655.16,975.18,651.58Z"/><path d="M1004.14,638.15l3.71,1.13L1006.4,644q9.9,4,10.68,11.68l-4.51.06c-.53-3.95-2.92-6.74-7.2-8.36l-3.48,11.44q6.68,3.54,8.11,6.41a7.3,7.3,0,0,1,.62,5.57q-2.19,7.15-14,5.24l-1.24,4.07L991.7,679l1.24-4.07q-8.79-3.37-9.8-10.1l4.44.17q.45,4.53,6.35,6.67l3.21-10.55q-12-5.65-9.78-13a8.34,8.34,0,0,1,4.64-5q3.69-1.83,10.69-.24Zm-6.5,34.67a9.73,9.73,0,0,0,5.48,0,4.27,4.27,0,0,0,2.92-2.87q1.25-4.08-5.32-7.23Zm4-26.53a10.69,10.69,0,0,0-6.28-.11,4.71,4.71,0,0,0-3.2,3.05q-1.38,4.56,6.2,7.84Z"/><path class="cls-3" d="M1125.69,627.26a43.55,43.55,0,1,1,61.52,2.88A43.56,43.56,0,0,1,1125.69,627.26Z"/><path d="M1127.75,625.19a40.64,40.64,0,1,1,51,7.62c-16.62,10-37.93,6.43-51-7.62-2.56-2.76-6.69,1.38-4.13,4.13a46.47,46.47,0,1,0-3.13-59c-13.22,17.77-11.44,42.6,3.13,59C1126.13,632.13,1130.25,628,1127.75,625.19Z"/><path d="M1133.78,576.34l4.33-3.94,5.05,5.55q12.79-9.75,23.37-4.83l-3.4,5.88q-8.3-3.54-16.39,2.88l12.14,13.34q9.73-5.91,14.55-5.57a11,11,0,0,1,7.7,3.5q7.59,8.33-4,22.13l4.31,4.74-4.32,3.94-4.32-4.74q-11.14,8.78-20.63,4.91l3.63-5.63q6.23,2.91,13.55-3.08l-11.2-12.3q-16.59,11.22-24.38,2.65c-2.24-2.45-3.19-5.74-2.88-9.86s2.95-8.8,7.92-14Zm39.91,35.14a14.81,14.81,0,0,0,4.19-7.12,6.46,6.46,0,0,0-1.47-6q-4.32-4.75-13.47,1.3Zm-31.27-25.66q-4.18,4.06-5,8.06a7,7,0,0,0,1.48,6.48q4.85,5.32,14.93-2Z"/><path class="cls-3" d="M1347.26,565.25a29.57,29.57,0,1,1-.48,41.82A29.57,29.57,0,0,1,1347.26,565.25Z"/><path d="M1349.32,567.32a26.65,26.65,0,1,1-3.8,33.53,26.9,26.9,0,0,1,3.8-33.53c2.67-2.66-1.46-6.79-4.13-4.13a32.5,32.5,0,1,0,41.19-3.52c-12.66-8.89-30.14-7-41.19,3.52C1342.47,565.79,1346.61,569.92,1349.32,567.32Z"/><path d="M1382,569.53l2.78,2.84-3.64,3.56q6.91,8.45,3.83,15.74l-4.07-2.17q2.2-5.7-2.35-11l-8.76,8.56q4.26,6.47,4.13,9.74a7.42,7.42,0,0,1-2.19,5.31q-5.46,5.34-15.11-2.17l-3.11,3-2.78-2.84,3.12-3.05q-6.22-7.35-3.83-13.88l3.9,2.33c-1.21,2.87-.41,5.9,2.42,9.12l8.07-7.89q-8-11-2.38-16.49a8.58,8.58,0,0,1,6.63-2.19q4.2.18,9.7,5.05Zm-22.89,27.92a10.1,10.1,0,0,0,4.94,2.67,4.37,4.37,0,0,0,4-1.14q3.12-3-1.21-9.11Zm16.66-21.84a10.88,10.88,0,0,0-5.58-3.18,4.77,4.77,0,0,0-4.36,1.16q-3.49,3.4,1.7,10.08Z"/><path class="cls-3" d="M1593.58,496.28a45.36,45.36,0,1,1,61.28,19A45.36,45.36,0,0,1,1593.58,496.28Z"/><path d="M1596.1,494.81a42.46,42.46,0,1,1,49.59,21.05c-19.41,5.71-40-3.42-49.59-21.05-1.78-3.31-6.83-.36-5,2.95a48.3,48.3,0,1,0,12.27-60.13c-18,14.39-22.65,39.88-12.27,60.13C1592.78,501.1,1597.82,498.15,1596.1,494.81Z"/><path d="M1615.05,447.06l5.39-2.84,3.65,6.91q15.45-6.5,24.82,1.24l-5,5q-7.44-5.73-17.28-1.37l8.76,16.61q11.35-3.42,16.13-1.81a11.44,11.44,0,0,1,6.84,5.54q5.47,10.38-9.8,21.27l3.12,5.91-5.39,2.84-3.12-5.91q-13.53,5.94-22.09-.44l5.14-4.72q5.52,4.56,14.46.44l-8.08-15.33q-19.65,7-25.27-3.71c-1.62-3.05-1.72-6.62-.33-10.69s5.28-8.1,11.66-12.07Zm31.06,45.86a15.38,15.38,0,0,0,6.08-6.09,6.72,6.72,0,0,0,.09-6.42q-3.12-5.93-13.93-2.2Zm-24.83-34q-5.28,3-7.12,6.82a7.34,7.34,0,0,0-.21,6.92q3.49,6.63,15.58,1.91Z"/><path class="cls-3" d="M1584.7,705.63a28.69,28.69,0,1,1-16.1-37.25A28.7,28.7,0,0,1,1584.7,705.63Z"/><path d="M1581.88,704.85a25.79,25.79,0,1,1-9.52-31.23c10.3,6.78,13.83,19.94,9.52,31.23-1.34,3.51,4.31,5,5.64,1.55a31.6,31.6,0,1,0-35.16,19.75,31.84,31.84,0,0,0,35.16-19.75C1589,702.93,1583.3,701.42,1581.88,704.85Z"/><path d="M1552.22,715.57l-3.58-1.42,1.82-4.59q-9.48-4.75-9.62-12.44l4.46.31q.3,5.94,6.45,8.86l4.38-11q-6.32-4.05-7.51-7a7.25,7.25,0,0,1-.16-5.57q2.74-6.9,14.25-4l1.56-3.92,3.59,1.42-1.56,3.92q8.42,4.07,8.88,10.8l-4.38-.53q-.09-4.52-5.75-7.12l-4,10.19q11.45,6.57,8.63,13.66a8.34,8.34,0,0,1-5,4.56q-3.81,1.51-10.6-.63Zm9.25-33.79a9.76,9.76,0,0,0-5.43-.42,4.27,4.27,0,0,0-3.12,2.6q-1.56,3.94,4.67,7.6Zm-6.14,25.94a10.55,10.55,0,0,0,6.21.61,4.61,4.61,0,0,0,3.41-2.75c1.17-2.94-.67-5.69-5.49-8.27Z"/><path class="cls-3" d="M1539.27,246.35A29.5,29.5,0,1,1,1578,262,29.51,29.51,0,0,1,1539.27,246.35Z"/><path d="M1542.09,245.58a26.62,26.62,0,1,1,29.39,15.35c-12.5,2.52-24.66-4.62-29.69-16.05-1.51-3.43-6.54-.46-5,3a32.3,32.3,0,1,0-.3-.7C1537.86,250.56,1543.51,249.06,1542.09,245.58Z"/><path d="M1555.85,215.61l3.65-1.55,2,4.68q10.35-3.37,16,2.15l-3.49,3q-4.51-4.12-11.12-1.83l4.77,11.24q7.55-1.61,10.55-.3a7.4,7.4,0,0,1,4.14,4q3,7-7.5,13.26l1.7,4-3.65,1.55-1.7-4q-9.09,3.12-14.29-1.48l3.58-2.78q3.33,3.24,9.35,1.06l-4.41-10.37q-13.11,3.45-16.18-3.77a8.53,8.53,0,0,1,.37-7q1.68-3.85,8.21-7.19ZM1573.5,247a10,10,0,0,0,4.27-3.62,4.37,4.37,0,0,0,.4-4.16q-1.7-4-8.9-2.18Zm-14.25-23.41a10.88,10.88,0,0,0-5,4,4.78,4.78,0,0,0-.5,4.48c1.26,3,4.6,3.68,10,2.08Z"/><path class="cls-3" d="M1339.57,175a24.89,24.89,0,1,1,27.4,22.11A24.9,24.9,0,0,1,1339.57,175Z"/><path d="M1342.49,175a22.39,22.39,0,0,1,12-22.29,22,22,0,1,1-12,22.29c-.45-3.68-6.29-3.73-5.84,0,1.38,11.45,9.18,21.21,20.49,24.23A27.83,27.83,0,1,0,1336.65,175C1337,178.69,1342.84,178.73,1342.49,175Z"/><path d="M1360.5,154.23l3.33-.35.45,4.26q9.2-.16,12.41,5.67l-3.56,1.57q-2.62-4.44-8.53-4.21l1.1,10.25c4.32.37,7.19,1.15,8.59,2.34a6.32,6.32,0,0,1,2.37,4.22q.67,6.41-9.31,8.86l.38,3.64-3.32.36-.39-3.65q-8.1.28-11.17-4.7l3.57-1.37q1.89,3.45,7.29,3.16l-1-9.46q-11.43-.44-12.14-7a7.21,7.21,0,0,1,2-5.52q2.31-2.7,8.4-3.79Zm6.53,29.69a8.49,8.49,0,0,0,4.34-1.87,3.71,3.71,0,0,0,1.35-3.26c-.26-2.44-2.48-3.75-6.66-3.95Zm-5.75-22.4a9.15,9.15,0,0,0-5,2,4,4,0,0,0-1.51,3.49q.43,4.08,7.56,4.13Z"/><path class="cls-3" d="M1187.69,159.12a33.56,33.56,0,1,1,26.43,39.41A33.56,33.56,0,0,1,1187.69,159.12Z"/><path d="M1190.5,159.89a30.65,30.65,0,1,1,19.06,34.31c-13.71-5.23-21.68-20-19.06-34.31.68-3.67-5-5.24-5.63-1.55a36.47,36.47,0,1,0,36.26-29.21c-17.41-.29-32.68,12.29-36.26,29.21C1184.1,162,1189.73,163.58,1190.5,159.89Z"/><path d="M1222.93,140.78l4.42.87-1.12,5.67q11.91,3.45,13.71,12.25l-5.2.6q-1.6-6.76-9.3-8.83L1222.75,165q8.13,3.3,10.12,6.45a8.48,8.48,0,0,1,1.37,6.37q-1.68,8.52-15.53,7.68l-1,4.85-4.43-.87,1-4.85q-10.55-2.87-12.51-10.52l5.15-.33q1.07,5.19,8.12,7l2.48-12.57Q1203,163,1204.71,154.28c.49-2.51,2.09-4.61,4.78-6.31s6.8-2.2,12.32-1.52Zm-3.46,40.82a11.44,11.44,0,0,0,6.34-.67,5,5,0,0,0,3-3.66q1-4.86-7-7.74Zm1.55-31.13a12.34,12.34,0,0,0-7.27.62,5.39,5.39,0,0,0-3.34,3.88q-1.07,5.44,8.07,8.34Z"/><path class="cls-3" d="M858.21,222.8a30.87,30.87,0,1,1,36.29,24.27A30.87,30.87,0,0,1,858.21,222.8Z"/><path d="M861,222a28,28,0,1,1,27.56,22.72c-13.51.06-24.79-9.69-27.56-22.72-.78-3.68-6.41-2.12-5.63,1.55a33.79,33.79,0,1,0,20.27-38,34.11,34.11,0,0,0-20.27,38C856.08,227.27,861.71,225.71,861,222Z"/><path d="M881.77,194.86l4.07-.81,1,5.22q11.34-1.25,16,5.62l-4.22,2.33q-3.72-5.19-11-4.25l2.48,12.54q8.07,0,10.87,1.94a7.85,7.85,0,0,1,3.4,5q1.54,7.83-10.52,12l.88,4.46-4.07.81-.88-4.46q-10,1.24-14.32-4.58l4.26-2.08q2.71,4,9.35,3.09L886.76,220q-14.16.74-15.76-7.32a8.88,8.88,0,0,1,1.86-7q2.55-3.58,9.94-5.61Zm11.36,35.94a10.46,10.46,0,0,0,5.15-2.79,4.58,4.58,0,0,0,1.3-4.17q-.89-4.47-8.66-4.14Zm-9.59-27a11.33,11.33,0,0,0-6,3.06,5,5,0,0,0-1.48,4.48q1,5,9.79,4.27Z"/><path class="cls-3" d="M1007.79,156.59a13.9,13.9,0,1,1,16.34,10.92A13.9,13.9,0,0,1,1007.79,156.59Z"/><path d="M1010.61,155.81a11,11,0,0,1,17.78-10.44,11,11,0,1,1-17.78,10.44,2.92,2.92,0,0,0-5.64,1.55,16.82,16.82,0,1,0,10.06-19,16.88,16.88,0,0,0-10.06,19,3,3,0,0,0,3.6,2A3,3,0,0,0,1010.61,155.81Z"/><path class="cls-3" d="M1488.8,523.2a14.47,14.47,0,1,1,17.07,11.29A14.47,14.47,0,0,1,1488.8,523.2Z"/><path d="M1491.62,522.42a11.55,11.55,0,1,1,11.48,9.45,11.62,11.62,0,0,1-11.48-9.45c-.8-3.67-6.43-2.11-5.63,1.56a17.39,17.39,0,1,0,10.32-19.7A17.47,17.47,0,0,0,1486,524a2.92,2.92,0,0,0,5.63-1.56Z"/><path class="cls-3" d="M847.4,627.26a14.66,14.66,0,1,1,14.9,14.42A14.66,14.66,0,0,1,847.4,627.26Z"/><path d="M850.32,627.26a11.73,11.73,0,1,1,9.94,11.38,11.89,11.89,0,0,1-9.94-11.38c-.11-3.75-6-3.77-5.84,0a17.86,17.86,0,0,0,11.77,16.35,17.58,17.58,0,1,0,2.18-33.79c-8.18,1.61-14,9.22-13.95,17.44C844.49,631,850.33,631,850.32,627.26Z"/><path d="M797.48,344.82v67.47c0,3.76,5.84,3.76,5.84,0V344.82c0-3.76-5.84-3.77-5.84,0Z"/><path d="M847.53,323.19v85.55c0,3.76,5.84,3.77,5.84,0V323.19c0-3.76-5.84-3.76-5.84,0Z"/><path d="M777.26,323.19v89.16c0,3.75,5.84,3.76,5.84,0V323.19c0-3.76-5.84-3.76-5.84,0Z"/><path d="M922,297.72v76.42c0,3.75,5.84,3.76,5.84,0V297.72c0-3.76-5.84-3.77-5.84,0Z"/><path d="M958.25,266.71V368.27c0,3.76,5.84,3.76,5.84,0V266.71c0-3.75-5.84-3.76-5.84,0Z"/><path d="M989.25,230V365.44c0,3.76,5.84,3.76,5.84,0V230c0-3.76-5.84-3.77-5.84,0Z"/><path d="M844.1,113.63v50c0,3.76,5.84,3.76,5.84,0v-50c0-3.75-5.84-3.76-5.84,0Z"/><path d="M873.9,132.86v19.7a2.92,2.92,0,1,0,5.84,0v-19.7a2.92,2.92,0,1,0-5.84,0Z"/><path d="M901.78,95.85v64.4c0,3.76,5.84,3.77,5.84,0V95.85c0-3.76-5.84-3.76-5.84,0Z"/><path d="M1017.13,106.9v15.87a2.92,2.92,0,0,0,5.84,0V106.9a2.92,2.92,0,0,0-5.84,0Z"/><path d="M1030.1,118v10.09a2.92,2.92,0,1,0,5.84,0V118a2.92,2.92,0,1,0-5.84,0Z"/><path d="M1129.6,163.62v81.23c0,3.75,5.84,3.76,5.84,0V163.62c0-3.76-5.84-3.77-5.84,0Z"/><path d="M1092.59,186.21v58.64c0,3.75,5.84,3.76,5.84,0V186.21c0-3.76-5.84-3.77-5.84,0Z"/><path d="M1068.08,199.87v53.31c0,3.75,5.83,3.76,5.83,0V199.87c0-3.76-5.83-3.76-5.83,0Z"/><path d="M1250.71,297.69V341c0,3.76,5.85,3.77,5.85,0V297.69c0-3.76-5.85-3.76-5.85,0Z"/><path d="M1280,242v66.81c0,3.76,5.84,3.76,5.84,0V242c0-3.75-5.84-3.76-5.84,0Z"/><path d="M1305.51,304.45V341c0,3.76,5.84,3.77,5.84,0V304.45c0-3.76-5.84-3.77-5.84,0Z"/><path d="M1360.65,109.79v23.07c0,3.76,5.84,3.76,5.84,0V109.79c0-3.76-5.84-3.77-5.84,0Z"/><path d="M1373.76,114.83v6.49a3,3,0,0,0,.85,2.07,3,3,0,0,0,2.07.85,2.93,2.93,0,0,0,2.06-.85,3,3,0,0,0,.86-2.07v-6.49a3,3,0,0,0-.86-2.06,2.94,2.94,0,0,0-2.06-.86,3,3,0,0,0-2.07.86,3,3,0,0,0-.85,2.06Z"/><path d="M1208.84,105v17.79a2.92,2.92,0,0,0,5.84,0V105a2.92,2.92,0,0,0-5.84,0Z"/><path d="M1226.2,113.87v7.45a2.92,2.92,0,0,0,5.84,0v-7.45a2.92,2.92,0,0,0-5.84,0Z"/><path d="M1539.76,132.86v55.82c0,3.75,5.84,3.76,5.84,0V132.86c0-3.76-5.84-3.77-5.84,0Z"/><path d="M1565.53,157.37v26.94c0,3.76,5.84,3.76,5.84,0V157.37c0-3.76-5.84-3.76-5.84,0Z"/><path d="M1592.45,150v38.72c0,3.75,5.84,3.76,5.84,0V150c0-3.76-5.84-3.76-5.84,0Z"/><path d="M1579.72,599.34v49.12c0,3.76,5.84,3.76,5.84,0V599.34c0-3.76-5.84-3.76-5.84,0Z"/><path d="M1553.76,601.26v43.62c0,3.76,5.84,3.76,5.84,0V601.26c0-3.76-5.84-3.76-5.84,0Z"/><path d="M1529,582.52v54.66c0,3.75,5.84,3.76,5.84,0V582.52c0-3.76-5.84-3.77-5.84,0Z"/><path d="M1391.06,488.05V525.6c0,3.76,5.84,3.77,5.84,0V488.05c0-3.76-5.84-3.77-5.84,0Z"/><path d="M1367.51,491.41v45.18c0,3.76,5.84,3.76,5.84,0V491.41c0-3.76-5.84-3.76-5.84,0Z"/><path d="M1344.92,480.84v55.75c0,3.76,5.84,3.76,5.84,0V480.84c0-3.76-5.84-3.77-5.84,0Z"/><path d="M1498.72,468.78v19.27a2.92,2.92,0,0,0,5.84,0V468.78a2.92,2.92,0,1,0-5.84,0Z"/><path d="M1513.14,478v18.27a2.92,2.92,0,0,0,5.84,0V478a2.92,2.92,0,0,0-5.84,0Z"/><path d="M1178.14,434.56v86.78c0,3.76,5.84,3.77,5.84,0V434.56c0-3.75-5.84-3.76-5.84,0Z"/><path d="M1143.45,418.83V536.59c0,3.76,5.84,3.76,5.84,0V418.83c0-3.76-5.84-3.76-5.84,0Z"/><path d="M1018.09,553.89v51.43c0,3.76,5.84,3.77,5.84,0V553.89c0-3.75-5.84-3.76-5.84,0Z"/><path d="M1001.27,568.31V613c0,3.76,5.84,3.76,5.84,0v-44.7c0-3.76-5.84-3.76-5.84,0Z"/><path d="M984.44,568.31V613c0,3.76,5.84,3.76,5.84,0v-44.7c0-3.76-5.84-3.76-5.84,0Z"/><path d="M872.46,583.69v10.58a2.92,2.92,0,0,0,5.84,0V583.69a2.92,2.92,0,1,0-5.84,0Z"/><path d="M860,579.61v18a2.92,2.92,0,0,0,5.84,0v-18a2.92,2.92,0,0,0-5.84,0Z"/><path d="M1419.9,213.12V319.33c0,3.76,5.84,3.77,5.84,0V213.12c0-3.75-5.84-3.76-5.84,0Z"/><path d="M1443.93,266.23v31.46c0,3.76,5.84,3.77,5.84,0V266.23c0-3.76-5.84-3.77-5.84,0Z"/><path d="M1478.05,222.74v81.71c0,3.75,5.84,3.76,5.84,0V222.74c0-3.76-5.84-3.77-5.84,0Z"/><path d="M1599,330.37v78.41c0,3.76,5.84,3.76,5.84,0V330.37c0-3.76-5.84-3.77-5.84,0Z"/><path d="M1636.18,308.77v97.57c0,3.76,5.84,3.76,5.84,0V308.77c0-3.76-5.84-3.76-5.84,0Z"/><path d="M1669.83,288.1V404.42c0,3.75,5.84,3.76,5.84,0V288.1c0-3.75-5.84-3.76-5.84,0Z"/><path class="cls-4" d="M1962.09,811.31c.36-7.4,5-21.67,4.35-34.26-.75-13-2.76-24.1-15.38-33.84a34.47,34.47,0,0,1-9-10.83c-10.44-20.15-44.77-40.52-73.28-47.4-5.52-1.49-13.4.61-16.36-3.18-10.67-14.21-20.6-17.26-30.49-14.21-13.79,4.48-26,20.57-26,20.57a57.36,57.36,0,0,0-20.54,11.74c-12,10.87-14.53,26.09-14.53,26.09a123.29,123.29,0,0,1,14.79-14.12,34.22,34.22,0,0,1,6.23-4.09l.2.43s-17,20.79-4.93,37.73l.58.35c5.48-8.24,10.61-19.1,18.14-27.7a27.27,27.27,0,0,1,21.12-8.31c5.74.3,15.8,1.33,15.8,1.33,0,1.24-.1,2.47-.2,3.67l2.92,7.66c2.7-1,12.14-2.11,13.34-.69,1.71,2.18-11.94,28.07-9.83,45.75a20.41,20.41,0,0,0,4.21,9.93c-2.17,11.58-.29,25.21,14.34,25.5l8.53,4.08c13.66,3.83,19.21,10.29,11.56,25.8a25,25,0,0,1-17.39,13.3l6.91,0c6.29,17.62-12.62,34.16-12.62,34.16a18.43,18.43,0,0,0,6.87.23c4.84-.65,11.55-3.15,18-10.8l8.92,1.81a34,34,0,0,1-7.62,7c.16.71,22.06.49,42.24-19.18l.49.52c19.33-1.59,27.41-17.84,29.68-33.41,3.15,4.86,8.18,7.27,15.32,8.53C1969.71,835.45,1960.92,826.23,1962.09,811.31Z"/><path class="cls-5" d="M1667.44,1017.22c-3.34-.22-6.87-.51-10.47-.87-25.83-2.47-56.26-7.3-69.89-8.5-16.61-1.43-22.71-.71-42.92-2.53s-58.75-18.72-85.06-24.5c-9.74-2.14-24.24-6.16-39.71-10.93-26.28-8.08-55.48-18.3-69.53-25.11a45.18,45.18,0,0,1-1.1-12.39c.42-15.9,6.13-36.79,12.68-49.74.72-1.36,1.43-2.66,2.14-3.86,15.09,3.28,55.74,11.87,80.43,17.52,5.35,1.2,10,2.3,13.4,3.15,19.24,4.83,65.37,15.86,80.75,18.26s30.76,6.75,51,5.78,59.11-4.81,90.35-8.67c18.62-2.3,48.53-5.25,74.81-6.68,17.82-.94,34-1.2,43.9,0,19.92,2.34,35.07,6.58,47.3,12.23,2.79,1.3,5.45,2.66,8,4.12,12.36,7.07,27.22,16.19,34,37.5.58,1.82,1.1,3.73,1.56,5.75,0,0,3.37,15.37,0,58.16s-12,118.23-21.64,150.93c-8.7,29.62-10.68,61.67-12.85,92.3-.39,5.81-1,11.65-.87,17.45s1.46,11.81.29,17.65a15.63,15.63,0,0,1-3.15,6.78c-6.62,8.28-20.93,10.42-30.5,13a307.19,307.19,0,0,1-46.16,9c-33.16,3.86-98.5-1.66-124-5-8.37-1.1-13.88-3.21-17.52-5.74-7.39-5.22-6.91-12.33-6.75-16.84.26-6.75,1.21-76.66,4.09-111.28C1632.54,1163.28,1654.5,1066,1667.44,1017.22Z"/><path class="cls-5" d="M1878.26,930.25c6.75,7.75,8.53,22,9.21,31.72-6.78-21.31-21.64-30.43-34-37.5-2.53-1.46-5.19-2.82-8-4.12l.29-.68c9.7,1.91,22.87,1.82,30.82,9A15,15,0,0,1,1878.26,930.25Z"/><path class="cls-6" d="M1866.15,807.51l-8.53-4.08c-14.63-.29-16.51-13.92-14.34-25.5a20.41,20.41,0,0,1-4.21-9.93c-2.11-17.68,11.54-43.57,9.83-45.75-1.2-1.42-10.64-.32-13.34.69l-2.92-7.66c.1-1.2.17-2.43.2-3.67,0,0-10.06-1-15.8-1.33a27.27,27.27,0,0,0-21.12,8.31c-7.53,8.6-12.66,19.46-18.14,27.7-1,1.53-2,2.92-3,4.22-11.71,15.31-28.51,6.1-34.38,13.14-1.79,2.34-1.92,6.85-.46,11.91s4.09,8.24,2.11,13.88-11.29,20.87-16.61,33.19c-5.64,12.91-3.67,20.21,6.32,27.51a117.37,117.37,0,0,0,17.46,10.16c2.33,1.17,4.67,2.24,7,3.37l-11-7.33s39.22,16.58,55.35,17a74.32,74.32,0,0,1-13.17,10.48c-7.69,4.54-18.24,10.87-18.24,10.87,0,.48.07.94.13,1.42.1,1.1.16,2.18.29,3.28,4.71.1,9.41.26,14.12,0,11.38-.62,22.8-.91,34.19-.84,15.83.12,33-.36,47.92,4.83l4.22-.13c-.82-6.17-1.33-17.13-1.53-22.19h-7a18.43,18.43,0,0,1-6.87-.23s18.91-16.54,12.62-34.16l-6.91,0a25,25,0,0,0,17.39-13.3C1885.36,817.8,1879.81,811.34,1866.15,807.51Zm-110.07,25.86c-19.18-5-7.14-31.11-7.14-31.11a75.41,75.41,0,0,0,15.31,9.54c10.16,4.57,21.42,8.53,21.42,8.53S1775.22,838.37,1756.08,833.37Z"/><path class="cls-5" d="M1876.63,928.59c-8-7.1-21.15-7-30.85-8.92l-.29.68c-12.23-5.65-27.38-9.89-47.3-12.23-9.9-1.17-26.08-.91-43.9,0l-.09-2.3c.22-1.53,2.11-5.13,3.6-5.91a6.5,6.5,0,0,1,2.49-.48c3.09-.2,6.2-.17,9.28-.1,4.71.1,9.41.26,14.12,0,11.38-.62,22.8-.91,34.19-.84,15.83.12,33-.36,47.92,4.83,1,.36,2,.74,3,1.13a9.57,9.57,0,0,1,3.21,1.82c1.69,1.53,2.08,3.83,2.37,6C1875.11,917.69,1875.89,923.14,1876.63,928.59Z"/><path class="cls-7" d="M1851.3,1311.42c16.44,43.57,27.12,89.89,28.38,136.48-9.92,25.47-251.07,4.28-252.14-7.72-1.27-38.28-2.11-78.8,3.57-116.76l1.52-1.2c3.64,2.53,9.15,4.64,17.52,5.74,25.5,3.37,90.84,8.89,124,5a307.19,307.19,0,0,0,46.16-9c9.57-2.63,23.88-4.77,30.5-13Z"/><path class="cls-5" d="M1785.67,820.33s-10.45,18-29.59,13-7.14-31.11-7.14-31.11a75.41,75.41,0,0,0,15.31,9.54C1774.41,816.37,1785.67,820.33,1785.67,820.33Z"/><path class="cls-5" d="M1769.57,899.36c-3.08-.07-6.19-.1-9.28.1a6.5,6.5,0,0,0-2.49.48c-1.49.78-3.38,4.38-3.6,5.91l.09,2.3c-26.28,1.43-56.19,4.38-74.81,6.68-31.24,3.86-70.18,7.69-90.35,8.67s-35.59-3.38-51-5.78-61.51-13.43-80.75-18.26c-3.44-.85-8.05-2-13.4-3.15,1.49-4.61,2.73-9.34,3.76-14.11,9.15,1.59,17.1,3,22.29,4,19.18,3.7,65.25,12.26,80.59,14.18s30.69,5.22,50.9,4.8,59.14-2.76,90.42-5.16c19.24-1.46,50.45-3.31,77.31-4C1769.38,897.18,1769.44,898.26,1769.57,899.36Z"/><path class="cls-8" d="M1260.84,679.82c-60.21,0-113.88,25-148.75,64a168.34,168.34,0,0,0-26.35,39.29,157,157,0,0,0-9,23.42,95.86,95.86,0,0,1,21.44-2.37c30.76,0,55.71,13.89,55.71,31s-25,31-55.71,31a91.47,91.47,0,0,1-27.22-4,154.74,154.74,0,0,0,12.17,48.86,74,74,0,0,1,3.28,8.92c4.18,14.76,18.68,63.46,36,93.6a28.59,28.59,0,0,0,10.7,10.77c16.13,9.15,34.85,12.78,43.38,10.9,4.86-1.1,5.84-6.71,8.14-12.26s5.81-11,15.83-11.65a212.54,212.54,0,0,0,122.18-.42c18,2.4,13.85,22.22,23.3,24.33,8.92,2,29.1-2.11,45.74-12.29a20.25,20.25,0,0,0,6.94-7c7.63-12.79,14.8-29.75,20.77-46.07-26.28-8.08-55.48-18.3-69.53-25.11a45.18,45.18,0,0,1-1.1-12.39l-2.11-.07a140.08,140.08,0,0,0-17-6.49c-5.1-1.55-9.8-3.89-14.86-5.61-2.76-.91-5.68-2.24-8.57-2.43-1.88-.13-3.73.32-5.61.22-6.26-.29-12.23-1.29-18.59-.81-5,.36-9.89.65-14.86.88-6,.29-12.26-.23-18.17.26-6.19.48-12.39,3-18.16,5.13s-11.78,4.18-17.68,6.29c-2.89,1-5.59,2.08-8.41,3.31-3,1.29-6.39,1.52-9.41,2.79-2.69,1.1-5.67-.82-4.76-4,1.94-6.75,10.77-9.48,16.44-12a159.44,159.44,0,0,0,21.77-11.35c3.73-2.44,8.53-5.68,6.62-11-2.3-6.46-14.21-4.77-19.43-5.1-8.73-.55-17.46-1.1-26.15-2.14-7.63-.94-15.87-.45-23.36-2.2-6.42-1.53-5.26-9.18.62-10.87,5.41-1.53,13.75-.13,19.5-.36q12.06-.48,24.2.16c7.52.39,14.79.95,22.22-1,1.69-.45.91-1,1.27-2.73l-.75-.68c-8.76-4.83-18.33-5.22-28.06-6.55-10.19-1.39-20.35-2.95-30.43-5-5.23-1-12.82-1.59-15.67-6.91-4.38-8.07,17-7.49,20.34-7.46a262.8,262.8,0,0,1,29,2.08c11,1.26,21.35,4.74,32.31,2l-.65-2.6c-10.35-6.42-20.6-11.61-31.4-17.13-5.36-2.76-10.9-5.06-16.06-8.14-3.28-2-12.82-6.52-12.88-11.06-.1-6.62,12.94-4.81,16.64-3.6,6.91,2.27,14,4.24,20.67,7.1,11.16,4.7,22.51,8.89,32.76,15.54,9.51,6.16,19.18,8.79,30.31,7.33l.39-.48c-1.72-4.25-2.53-8-5.42-11.55-3.34-4.09-7-8-9.73-12.56-2.86-4.7-8.6-14.79-1.66-18.69,5.13-2.88,9.28,3.9,12.39,6.78q7.45,7,14.93,13.86c4,3.7,8.4,6.55,11.51,10.93,5.72,8.08,9.64,17.29,14.64,25.79,2.92,4.93,5.45,11.85,9.47,15.87,6.91,6.94,19.69,11.22,29.17,12.29l5.41,2.24c.72-1.36,1.43-2.66,2.14-3.86,15.09,3.28,55.74,11.87,80.43,17.52,1.49-4.61,2.73-9.34,3.76-14.11a153.39,153.39,0,0,0,3.41-32.25C1451.18,756,1366,679.82,1260.84,679.82Zm92.49,40.36a188.59,188.59,0,0,0-185,0l-4.76-8.47a198.29,198.29,0,0,1,194.55,0Z"/><path class="cls-6" d="M1241,850.73l-.65-2.6c-10.35-6.42-20.6-11.61-31.4-17.13-5.36-2.76-10.9-5.06-16.06-8.14-3.28-2-12.82-6.52-12.88-11.06-.1-6.62,12.94-4.81,16.64-3.6,6.91,2.27,14,4.24,20.67,7.1,11.16,4.7,22.51,8.89,32.76,15.54,9.51,6.16,19.18,8.79,30.31,7.33l.39-.48c-1.72-4.25-2.53-8-5.42-11.55-3.34-4.09-7-8-9.73-12.56-2.86-4.7-8.6-14.79-1.66-18.69,5.13-2.88,9.28,3.9,12.39,6.78q7.45,7,14.93,13.86c4,3.7,8.4,6.55,11.51,10.93,5.72,8.08,9.64,17.29,14.64,25.79,2.92,4.93,5.45,11.85,9.47,15.87,6.91,6.94,19.69,11.22,29.17,12.29l5.41,2.24c-6.55,13-12.26,33.84-12.68,49.74l-2.11-.07a140.08,140.08,0,0,0-17-6.49c-5.1-1.55-9.8-3.89-14.86-5.61-2.76-.91-5.68-2.24-8.57-2.43-1.88-.13-3.73.32-5.61.22-6.26-.29-12.23-1.29-18.59-.81-5,.36-9.89.65-14.86.88-6,.29-12.26-.23-18.17.26-6.19.48-12.39,3-18.16,5.13s-11.78,4.18-17.68,6.29c-2.89,1-5.59,2.08-8.41,3.31-3,1.29-6.39,1.52-9.41,2.79-2.69,1.1-5.67-.82-4.76-4,1.94-6.75,10.77-9.48,16.44-12a159.44,159.44,0,0,0,21.77-11.35c3.73-2.44,8.53-5.68,6.62-11-2.3-6.46-14.21-4.77-19.43-5.1-8.73-.55-17.46-1.1-26.15-2.14-7.63-.94-15.87-.45-23.36-2.2-6.42-1.53-5.26-9.18.62-10.87,5.41-1.53,13.75-.13,19.5-.36q12.06-.48,24.2.16c7.52.39,14.79.95,22.22-1,1.69-.45.91-1,1.27-2.73l-.75-.68c-8.76-4.83-18.33-5.22-28.06-6.55-10.19-1.39-20.35-2.95-30.43-5-5.23-1-12.82-1.59-15.67-6.91-4.38-8.07,17-7.49,20.34-7.46a262.8,262.8,0,0,1,29,2.08C1219.67,850,1230,853.49,1241,850.73Z"/><path class="cls-8" d="M1358.13,711.71l-4.8,8.47a188.59,188.59,0,0,0-185,0l-4.76-8.47a198.29,198.29,0,0,1,194.55,0Z"/><path class="cls-8" d="M1098.2,804.17c30.76,0,55.71,13.89,55.71,31s-25,31-55.71,31a91.47,91.47,0,0,1-27.22-4c-17-5.28-28.45-15.41-28.45-27,0-12.88,14.11-23.94,34.23-28.65A95.86,95.86,0,0,1,1098.2,804.17Zm21.38,31c0-4.74-2.33-8.6-5.22-8.6s-5.22,3.86-5.22,8.6,2.33,8.59,5.22,8.59S1119.58,839.92,1119.58,835.19Zm-42.76,0c0-4.74-2.33-8.6-5.22-8.6s-5.22,3.86-5.22,8.6,2.33,8.59,5.22,8.59S1076.82,839.92,1076.82,835.19Z"/><path class="cls-8" d="M1114.36,826.59c2.89,0,5.22,3.86,5.22,8.6s-2.33,8.59-5.22,8.59-5.22-3.86-5.22-8.59S1111.47,826.59,1114.36,826.59Z"/><path class="cls-8" d="M1112.06,743.83a169.15,169.15,0,0,0-26.32,39.29c-11.71,3.08-21.89,9.08-33.61,13.49-9.53,3.6-12.49-4.12-12.1-10.57.85-13.43,5.62-26.44,12-38.74,6.78-13,17-26.93,36.85-20C1098.11,730.53,1105.76,737.18,1112.06,743.83Z"/><path class="cls-8" d="M1071.6,826.59c2.89,0,5.22,3.86,5.22,8.6s-2.33,8.59-5.22,8.59-5.22-3.86-5.22-8.59S1068.71,826.59,1071.6,826.59Z"/><path d="M1181.14,750.62c8.27-9.4,18-19.19,30.8-21.75,11.1-2.23,19.48,4.44,25.18,13.31a100.56,100.56,0,0,1,14.6,36.9c.66,3.87,2.42,11.58-1.34,14.67-2,1.62-4.68.64-6.8-.15-3.25-1.21-6.43-2.64-9.59-4.07-13.11-5.89-26-11.5-40.66-11.29-3.75,0-3.77,5.89,0,5.84,16-.23,29.46,7.1,43.75,13.14,5.18,2.19,11.38,5.17,16.57,1.37,3.85-2.82,4.91-8,4.72-12.54-.68-15.67-7-31.57-15-44.9-5.74-9.6-14.12-18.18-26-18.58-16.52-.55-30.23,12.4-40.36,23.92-2.48,2.81,1.64,7,4.12,4.13Z"/><path d="M1084.9,780.3c-11.74,3.21-22.17,9.51-33.61,13.5-12.17,4.25-8-14-6.49-20.06a106.27,106.27,0,0,1,13-30.68c4.41-7.11,10.67-14,19.53-14.62,13-1,24.29,8.72,32.64,17.45,2.6,2.73,6.72-1.41,4.13-4.13-8.91-9.31-20-18.15-33.35-19.14-10.6-.78-19.21,5.26-25.27,13.46-7.48,10.11-12.84,22.76-16,34.88-2.08,8.06-6.16,24.07,4.09,28.65,6,2.69,13.11-1.63,18.52-4,8-3.54,15.88-7.35,24.37-9.67,3.62-1,2.08-6.62-1.56-5.63Z"/><path d="M1150.91,835.19c-.33,16.35-21.9,23.83-34.93,26.4-18.94,3.74-41.5,2.09-58.16-8.43-5.59-3.54-11.17-8.78-12.28-15.63-1.08-6.69,2.76-12.62,7.59-16.86,14.26-12.53,36.8-14.88,54.88-13.08,10.42,1,21.09,3.83,30,9.38,6.48,4,12.69,10.12,12.85,18.22.07,3.75,5.91,3.76,5.84,0-.38-19.15-22.81-28.7-38.65-31.93-21.22-4.34-47.33-2.57-65.47,10.42-6.28,4.5-11.76,10.74-12.88,18.63s2.53,15.08,8,20.4c15.57,15,41.51,18.15,62,15.71,17.8-2.11,46.5-11,46.94-33.23C1156.82,831.42,1151,831.42,1150.91,835.19Z"/><path d="M1116.6,835.19c0,.38,0,.76,0,1.14,0,.18,0,.37-.06.55.08-.54,0-.07,0,0a14.38,14.38,0,0,1-.63,2.22c.23-.58-.12.2-.21.36s-.31.5-.47.75c.33-.51,0,0-.2.2l-.29.27c-.37.36.35-.17.06-.05a1,1,0,0,0-.31.18c-.28.23.55-.15.21-.08-.12,0-.89.3-.38.13s-.2,0-.14,0,.74.18.26,0l-.34-.1c-.48-.11.37.25.13.05a1.14,1.14,0,0,0-.32-.18c-.33-.14.4.38.14.12s-.39-.36-.57-.56-.32-.43-.1-.1,0-.07-.08-.15c-.18-.29-.34-.58-.5-.88-.25-.47,0-.07,0,0-.06-.16-.11-.31-.17-.46-.11-.33-.21-.65-.29-1s-.14-.7-.22-1c.11.51,0,.07,0,0,0-.28,0-.56-.06-.84a13.23,13.23,0,0,1,.09-2.27c-.07.59.1-.43.13-.56.09-.37.19-.74.31-1.11,0-.15.12-.31.17-.47.14-.4-.22.41,0,0s.27-.55.43-.81a2.92,2.92,0,0,0,.24-.37c.17-.35-.34.36-.07.09s.41-.44.63-.65c.4-.38-.13.14-.15.11l.32-.19c.4-.28-.12.1-.21.06s.27-.09.33-.1a2.09,2.09,0,0,0,.34-.08c-.41.25-.58,0-.16.06s-.62-.16-.26,0l.42.11c.5.12-.2,0-.2-.09a5.26,5.26,0,0,1,.47.27s-.55-.49-.14-.11c.12.12.24.23.35.35s.18.2.28.3-.28-.46,0,0,.39.65.56,1c.07.11.21.5,0,0a5.71,5.71,0,0,1,.21.58,11.5,11.5,0,0,1,.31,1.11c0,.18.08.35.11.53.18.83,0-.57,0,.3a13.69,13.69,0,0,1,.07,1.43,2.92,2.92,0,0,0,5.84,0c0-3.89-1.34-8.63-5-10.66s-7.82.07-9.66,3.6a15.68,15.68,0,0,0-.69,12.55c1.41,3.57,4.7,7,8.91,5.77,4.65-1.4,6.38-6.92,6.42-11.26a3,3,0,0,0-2.92-2.93A3,3,0,0,0,1116.6,835.19Z"/><path d="M1158.34,777.75c-2.45,4.87-6.82,7.61-9.79,6.13s-3.38-6.64-.94-11.51,6.83-7.6,9.79-6.12S1160.78,772.89,1158.34,777.75Z"/><path d="M1114.25,777.75c-2.44,4.87-6.82,7.61-9.78,6.13s-3.38-6.64-.94-11.51,6.82-7.6,9.78-6.12S1116.69,772.89,1114.25,777.75Z"/><path d="M1063.37,835.19c0,3.87,1.35,8.62,5,10.65s7.82-.07,9.66-3.6a15.72,15.72,0,0,0,.68-12.55c-1.4-3.57-4.69-7-8.9-5.77-4.65,1.39-6.38,6.92-6.43,11.27a2.92,2.92,0,0,0,5.84,0c0-.39,0-.77,0-1.15a5.14,5.14,0,0,1,.06-.55c-.08.53,0,.06,0,0a14.1,14.1,0,0,1,.64-2.22c-.23.58.12-.2.21-.36s.31-.5.47-.75c-.33.51,0,0,.2-.21a3.71,3.71,0,0,0,.29-.27c.36-.35-.35.18-.06.06a1.2,1.2,0,0,0,.31-.18c.28-.23-.56.15-.21.08.12,0,.88-.3.38-.13s.2,0,.14,0-.74-.18-.26,0l.34.1c.48.11-.38-.26-.13-.05a1.11,1.11,0,0,0,.32.18c.33.13-.4-.38-.14-.12s.38.36.57.55.31.44.09.11l.09.14c.17.3.34.59.5.9.25.46,0,.06,0,0l.18.46c.11.32.21.65.29,1s.14.69.21,1c-.1-.51,0-.07,0,0,0,.28,0,.56.06.85a14.37,14.37,0,0,1-.09,2.27c.07-.59-.1.42-.13.55-.09.38-.19.75-.31,1.12-.06.15-.12.31-.17.46-.14.41.22-.4,0,0s-.28.54-.44.81-.17.23-.23.36c-.17.35.34-.35.07-.08s-.41.43-.63.64c-.4.39.12-.13.14-.1s-.27.16-.31.19c-.4.28.12-.1.21-.07s-.27.1-.33.11a2.09,2.09,0,0,0-.34.08c.4-.25.58,0,.16-.07s.62.17.26,0l-.43-.11c-.5-.12.21,0,.21.09a5.26,5.26,0,0,1-.47-.27s.55.49.14.1l-.36-.34a3.85,3.85,0,0,0-.27-.3c-.23-.22.28.46,0,0s-.38-.64-.56-1c-.06-.12-.2-.51,0,0-.08-.2-.15-.39-.21-.58a11,11,0,0,1-.32-1.12c0-.17-.07-.34-.11-.52-.17-.83,0,.57,0-.31,0-.47-.07-.94-.08-1.41a2.92,2.92,0,1,0-5.84,0Z"/><path d="M1068,862.21a160.14,160.14,0,0,0,6,32.27c2.85,9.56,7.34,18.51,10.08,28.09q5.63,19.54,12.39,38.73c5.85,16.54,12.28,33,20.49,48.53,4.18,7.89,8.89,14.06,16.91,18.29a92.68,92.68,0,0,0,27.69,9.6c5.89,1,15.14,2.67,20-2,5.15-5,4.57-13.55,10.14-18.3,4-3.39,8.34-3.1,13.08-1.81q8.38,2.28,17,3.85a218.93,218.93,0,0,0,32.1,3.45,214.51,214.51,0,0,0,64.61-7.71c2.17-.61,3.93-1.52,6.14-.93a14,14,0,0,1,4.33,1.92,16.69,16.69,0,0,1,5.27,6.71c2,4.13,3,9.16,6.38,12.53,4.57,4.62,12.82,3.4,18.6,2.55a92,92,0,0,0,28.58-9.46c4.62-2.38,9-5,12.16-9.25,3.27-4.46,5.71-9.73,8.13-14.7a357.77,357.77,0,0,0,14.17-33.91c1.3-3.54-4.34-5.06-5.63-1.56-3.76,10.23-7.79,20.37-12.46,30.22-4,8.39-7.68,17.6-16,22.38a89.06,89.06,0,0,1-26.53,10,53.94,53.94,0,0,1-10.13,1.15c-2,0-4.67.15-6.37-1.19-3.29-2.57-4.26-8.71-6.1-12.26a20.35,20.35,0,0,0-12-10.5c-4.19-1.32-7.25-.07-11.32,1q-7.9,2.16-16,3.68a206.5,206.5,0,0,1-31.95,3.47,209.24,209.24,0,0,1-63.94-7.8c-6.93-2-14.55,1.12-18.78,6.93a36.94,36.94,0,0,0-4.37,9.11c-1.39,3.71-2.4,7-6.78,7.41-7.57.72-15.53-1.31-22.68-3.62-9-2.92-19.55-6.95-25.08-15.12-4.44-6.57-7.72-14.16-11-21.37-3.59-8-6.83-16.09-9.87-24.29-5.48-14.7-10.35-29.64-14.75-44.7-2.56-8.77-6.35-17-9.24-25.66a152.7,152.7,0,0,1-7.36-35.76c-.32-3.72-6.16-3.75-5.84,0Z"/><path d="M1446.76,897.09c12.15-38.2,8.72-80.11-8.69-116.09-15.37-31.76-41-58-71.3-75.77-33.09-19.47-71.61-29-109.92-28.3-39,.71-77.89,12-110.52,33.56-30.3,20-54.8,48.57-68.08,82.5-1.65,4.2-3.09,8.46-4.38,12.78-1.07,3.6,4.56,5.15,5.63,1.55,10-33.64,31.41-63,59.18-84.25,29.83-22.86,66.41-36.37,103.78-39.55s75.59,3.45,109.23,20.18c30.7,15.26,57.43,38.71,74.94,68.33,18.8,31.78,25.9,69.77,18.92,106.12a152.54,152.54,0,0,1-4.42,17.38c-1.14,3.59,4.49,5.13,5.63,1.56Z"/><path d="M1170.79,718.72l-4.78-8.48-1,4a195.38,195.38,0,0,1,191.62,0l-1-4-4.78,8.48,4-1.05c-11-5.66-21.94-11-33.75-15a192.3,192.3,0,0,0-115.66-1.53,188.18,188.18,0,0,0-38.54,16.49c-3.27,1.86-.33,6.91,2.94,5,43.54-24.88,97-30.41,144.91-15.89,13.07,4,25,9.68,37.15,15.89a3,3,0,0,0,4-1l4.79-8.48a3,3,0,0,0-1-4,201.29,201.29,0,0,0-197.52,0,3,3,0,0,0-1,4l4.78,8.47C1167.6,724.94,1172.64,722,1170.79,718.72Z"/><path d="M1356,877.51c-12-1.49-25.19-6.37-31.28-17.47-3.12-5.68-6.17-11.43-9.2-17.17-3.37-6.41-6.58-13.09-11-18.86-4.12-5.36-10-9.42-15-14s-9.93-9.2-14.65-14.08c-3.19-3.3-7.44-6-12-3.76-4.2,2.08-5.67,6.46-5,10.9.88,5.5,4.13,10.83,7.34,15.28,2.22,3.07,4.73,5.91,7.12,8.84,2.77,3.37,4,7.27,5.53,11.27,1.35,3.46,7,1.95,5.63-1.55-2.25-5.79-4.27-10.56-8.3-15.37a70.41,70.41,0,0,1-9.58-13.79c-1.09-2.2-4.61-11.92,1.54-10.5,1.89.44,3.58,2.79,4.82,4.14,2,2.24,4.27,4.26,6.49,6.32,5.21,4.84,10.38,9.7,15.8,14.3,5.25,4.45,8.69,9.83,12,15.82,3.06,5.58,6,11.22,9.09,16.78,2.62,4.71,4.6,9.83,8,14,7.57,9.24,21.22,13.29,32.61,14.7,3.72.45,3.68-5.39,0-5.84Z"/><path d="M1241.7,845.63a386.4,386.4,0,0,0-36-19.43c-2.37-1.13-24.84-11-22.72-15.09,1.08-2.07,7.36-1.15,9.11-.9,4.8.67,9.5,2.62,14.08,4.13A216,216,0,0,1,1242.91,830c6,3.32,11.47,7.23,18.07,9.37a44.9,44.9,0,0,0,19.27,1.69c3.68-.45,3.73-6.29,0-5.84a40.86,40.86,0,0,1-19.9-2.25c-6.76-2.62-12.61-7.2-19.09-10.41a294.62,294.62,0,0,0-41.36-16.36c-6-1.92-17.84-4.86-22,1.94-5.2,8.55,9.53,15.07,15,18.18,7.27,4.09,15,7.45,22.4,11.28,7.94,4.11,15.8,8.35,23.4,13,3.2,2,6.14-3.07,2.94-5Z"/><path d="M1234.9,870.06c-11-5.76-23.67-6-35.71-7.81-6.7-1-13.39-2.06-20-3.33-4.52-.87-9.79-1.23-14-3.25-2.16-1-5.15-3.12-2-4.46,2.79-1.19,6.17-1.35,9.16-1.51a183.77,183.77,0,0,1,26.64.94c7.54.69,15,1.92,22.43,3.07s14.56,1.47,21.8-.54c3.62-1,2.08-6.64-1.55-5.63-7.82,2.17-15.53,1.1-23.4-.25-7.08-1.22-14.19-2.06-21.35-2.68-9.2-.78-18.75-1.47-28-.48-5.26.57-15.19,2.46-12.8,10,1.4,4.46,6,6.91,10.22,8.11,5.65,1.62,11.71,2.41,17.48,3.41q12,2.1,24.1,3.62c8.27,1,16.57,1.87,24.06,5.81,3.32,1.74,6.28-3.29,3-5.05Z"/><path d="M1231.25,873.29c-.26,2,.18.05.88-.12-.92.22-1.84.44-2.78.61a43.58,43.58,0,0,1-6.14.61c-3.71.14-7.43-.07-11.14-.26-7.58-.4-15.17-.55-22.77-.33-6.26.18-12.63-.72-18.86-.14-4.4.41-8.8,1.84-10.63,6.24-5.18,12.41,14.58,12.29,21.47,12.63,13.19.65,26.28,2.85,39.51,2.8,3.22,0,10-.62,11.71,2.95,2.45,5.08-9.24,10.16-12.34,11.85a197.15,197.15,0,0,1-17.92,8.53c-4.49,1.9-9.18,4-12.26,7.94-2.64,3.38-4.1,9,.38,11.61,2.27,1.33,4.47.77,6.79,0,3-.94,6.06-1.44,9-2.65,7.21-3,14.62-5.48,22-8.1,7-2.48,14-5.71,21.47-6.28,8.27-.63,16.63-.09,24.92-.59a183.36,183.36,0,0,1,24,.21c4.41.3,8.11-.35,12.39,1.15,3.72,1.3,7.39,2.7,11,4.17,7.68,3.08,15.62,5.28,23.18,8.7,3.39,1.54,6.37-3.49,2.94-5a200.61,200.61,0,0,0-19-7.2c-6.41-2.15-12.51-5.28-19-7.05-3.23-.88-6.2-.43-9.48-.45-3.53,0-7.08-.59-10.6-.8-7.17-.44-14.34.46-21.5.8s-14.22-.4-21.25.49-13.42,3.69-20,6c-6.8,2.43-13.68,4.69-20.38,7.4A68.77,68.77,0,0,1,1198,932c-.47.13-4.33,1.6-4.66,1.22-.56-.63,1-2.63,1.36-3.14,3.06-3.85,8.61-5.48,12.95-7.36a169.57,169.57,0,0,0,18.46-9.18c4.18-2.44,9.56-5.25,11.7-9.86a9.3,9.3,0,0,0-3.06-11.42c-3.38-2.36-7.87-2.64-11.86-2.71-5.11-.1-10.15-.23-15.26-.58-7.26-.5-14.49-1.45-21.74-2-3.06-.22-6.13-.31-9.18-.5s-8.41.12-10.79-1.74c-1.74-1.36-.64-3.46,1-4.38,2.69-1.48,6.75-1,9.69-.91,7.34.26,14.62.07,22,.12,8.21.05,16.45,1,24.65.69,3.51-.13,7.94-.27,11.21-1.71,2.4-1.06,2.37-2.93,2.67-5.23.48-3.72-5.37-3.68-5.84,0Z"/><path d="M1664.57,1016.46c-12.53,47.29-23.54,95.18-32.41,143.29a417.53,417.53,0,0,0-6.49,54.6c-1.22,23.55-1.81,47.13-2.33,70.7-.14,6.5-.22,13-.42,19.51-.17,5.76.08,11.34,3.8,16.08,6.43,8.21,18,9.61,27.64,10.77,10.75,1.31,21.54,2.31,32.33,3.17,25.52,2,51.38,3.63,77,2.19a267.29,267.29,0,0,0,45.27-6.86c6.69-1.56,13.32-3.39,20-5.06a71.77,71.77,0,0,0,15.69-5.42c4.53-2.35,8.63-5.8,10.77-10.52,3.31-7.29,1.25-15.36,1.13-23-.13-8.48.9-17,1.5-25.48.62-8.78,1.28-17.57,2.12-26.33,1.67-17.28,4.09-34.53,8.56-51.33,2.83-10.68,5.56-21.26,7.61-32.13,4.94-26.32,8.31-53,11.25-79.58,2.91-26.37,5.85-53,5.83-79.55,0-14.82-.75-28.62-8.12-41.9-10.83-19.48-33.47-31.4-54.06-37.77-24.1-7.45-48.49-8-73.43-6.77-25.19,1.23-50.35,3.52-75.39,6.5-28.73,3.41-57.5,6.75-86.38,8.62-25.24,1.63-50.2-3.45-74.79-8.73-22-4.73-43.84-10.15-65.7-15.45-21.68-5.25-43.54-9.78-65.35-14.47-8.63-1.85-17.25-3.68-25.87-5.55a3,3,0,0,0-3.3,1.34c-9,15.17-13.85,34.12-15.06,51.62a60.66,60.66,0,0,0,.24,12.2,15.27,15.27,0,0,0,.95,4.77c.79,1.5,2.45,2,3.92,2.66,6.46,2.94,13.08,5.52,19.72,8,17.32,6.48,34.91,12.25,52.6,17.6,15.36,4.63,31,8,46.4,12.42,19.51,5.59,38.4,13.23,58,18.47,17.24,4.6,35,4.06,52.69,5.21,19.56,1.26,39,4.67,58.41,7,22.08,2.66,44.29,3.48,66.38,6,10,1.15,20,2.5,29.83,4.28,5.86,1,11.94,2,17.54,4.08,9.94,3.62,19.71,7.76,29.54,11.64l3.17,1.25c3.5,1.37,5-4.27,1.55-5.64q-12-4.71-24-9.45a130.41,130.41,0,0,0-24.89-7.27c-36.29-6.66-73.22-7.38-109.75-12.08-16.23-2.09-32.44-4.76-48.79-5.76-15.18-.93-30.76-.28-45.64-3.8-16.31-3.85-32.07-9.9-48-15.1-13.81-4.51-27.87-7.61-41.87-11.42-17-4.63-33.77-9.9-50.42-15.55-14.26-4.84-28.71-9.72-42.3-16.24l1.34,1.74c-2.57-10.42-.5-22.08,1.84-32.35,2.47-10.81,5.9-21.81,11.59-31.39l-3.3,1.35c39.53,8.58,79,17.26,118.33,26.64,21.54,5.14,43.09,9.77,64.86,13.78,14.7,2.71,29.26,5.09,44.27,4.33,12.72-.65,25.42-1.81,38.1-3,51.33-4.91,102.71-13.46,154.41-13.07,24.23.17,49.38,5.25,70.51,17.46,9.18,5.31,18,11.4,24.15,20.24a53.93,53.93,0,0,1,9.07,22.29,154.82,154.82,0,0,1,1.08,18.32c.16,13.56-.64,27.12-1.75,40.64q-3.15,38.46-8.31,76.74c-3.11,23-6.25,46.42-12.59,68.8-9.1,32.17-11.1,65.21-13.61,98.38-.31,4-.62,8-.6,12.09,0,4.31.7,8.58.77,12.89.1,6.48-2,11.52-7.56,15-4.75,3-10.28,4.49-15.66,5.86-6.49,1.66-13,3.42-19.47,5a260.38,260.38,0,0,1-44.21,6.92c-12.27.74-24.6.6-36.87.2-23.8-.76-47.63-2.5-71.28-5.26-8.55-1-21-1.71-26-10-2.38-4-1.71-8.88-1.6-13.34.44-18.92.79-37.83,1.41-56.74.66-20.18.85-40.68,3.63-60.7,2.92-21.1,7.35-42,11.78-62.85q7.9-37.19,16.95-74.11,3.67-15,7.61-30c1-3.64-4.67-5.19-5.63-1.56Z"/><path d="M1446.93,885c35.26,6.14,70.3,13.86,105.79,18.58,11.37,1.52,22.67,3.48,34.13,4.2,10.36.67,20.73.2,31.09-.25,23.7-1,47.39-2.57,71-4.36,26.71-2,53.46-3.51,80.23-4.18,3.75-.09,3.77-5.93,0-5.84-47.51,1.18-94.82,5.74-142.26,8.11-9.86.5-19.76,1.08-29.63,1-12,0-23.87-1.58-35.74-3.31-16.9-2.47-33.73-5.07-50.55-8.1-20.87-3.76-41.66-7.88-62.55-11.52-3.67-.64-5.25,5-1.55,5.63Z"/><path d="M1535.43,955a94.2,94.2,0,0,0-2.33,35.46,3,3,0,0,0,2.92,2.92c1.43,0,3.12-1.35,2.92-2.92a89.9,89.9,0,0,1,2.12-33.91c1-3.64-4.68-5.19-5.63-1.55Z"/><path d="M1628.22,1322.64c-5.74,38.91-5,78.34-3.68,117.54.12,3.75,6,3.77,5.84,0-1.25-38.63-2.19-77.63,3.48-116,.54-3.67-5.09-5.26-5.64-1.55Z"/><path d="M1848.41,1312.19c16.34,43.45,26.94,89.19,28.27,135.7.1,3.75,5.94,3.76,5.83,0-1.34-47-12-93.32-28.47-137.26-1.31-3.49-7-2-5.63,1.56Z"/><path d="M1852.75,850.31a48.15,48.15,0,0,1-17.18-3.33,2.92,2.92,0,0,1,2.11-5.45c12.48,4.83,29.74,5.23,37.37-9.57,3.07-6.24,3.87-10.87,2.43-14.11s-5.3-5.58-12.19-7.52a2.92,2.92,0,0,1,1.58-5.62c5.46,1.54,13.06,4.32,15.94,10.76,2.2,4.92,1.37,11.18-2.55,19.13C1874.46,845.84,1863.85,850.31,1852.75,850.31Z"/><path d="M1850.86,832.7a2.92,2.92,0,0,1-1.63-5.34c2.27-1.53,8.3-4.85,15.35-2.74a2.92,2.92,0,0,1-1.68,5.6c-4.8-1.43-9.17,1.16-10.41,2A2.87,2.87,0,0,1,1850.86,832.7Z"/><path d="M1769.5,902.28a2.91,2.91,0,0,1-2.89-2.58c-.1-.81-.16-1.6-.22-2.4l-.09-1c-.06-.41-.09-.93-.13-1.48l0-.21c-.07-.75-.14-2.32-.22-4.06-.09-2.13-.22-5-.35-5.86l-.19-1.24a13.23,13.23,0,0,1-.24-2.52c0-.92,0-1.94,0-3,.09-2.78.17-5.18-1.22-6.89-1-1.26-3.11-2.13-5.11-3-.67-.29-1.33-.56-1.94-.85l-2.07-1c-1.09-.54-2.15-1-3.22-1.56-1.26-.6-2.54-1.2-3.8-1.84A119.16,119.16,0,0,1,1730,852.5c-11.22-8.2-13.33-17.19-7.28-31,2.82-6.53,6.69-13.75,10.11-20.1,2.86-5.34,5.57-10.39,6.42-12.87,1.12-3.18.35-5.19-.81-8.22-.47-1.23-1-2.5-1.35-3.92-1.76-6.1-1.41-11.38,1-14.47,3.27-3.93,8.28-4.16,13.58-4.41,6.87-.32,14.65-.68,20.8-8.73a113.37,113.37,0,0,0,8.32-12.9c3.82-6.52,7.78-13.25,13-19.18a30.53,30.53,0,0,1,23.5-9.29,2.91,2.91,0,0,1,2.73,3.09,3,3,0,0,1-3.09,2.74,24.33,24.33,0,0,0-18.77,7.35c-4.8,5.47-8.61,12-12.29,18.25a119.67,119.67,0,0,1-8.75,13.53c-7.78,10.17-17.81,10.63-25.14,11-4.33.2-7.75.36-9.29,2.21-.88,1.16-1.25,4.53.11,9.23.35,1.25.78,2.37,1.18,3.43,1.33,3.47,2.69,7.05.88,12.23-1,2.9-3.56,7.67-6.8,13.7-3.36,6.26-7.16,13.36-9.89,19.68-5,11.52-3.73,17.35,5.37,24a114.91,114.91,0,0,0,17,9.89c1.24.63,2.48,1.21,3.72,1.8l3.25,1.57,2,1c.52.24,1.1.49,1.7.74,2.54,1.06,5.42,2.26,7.37,4.65,2.79,3.42,2.67,7.33,2.55,10.79,0,.89-.06,1.79,0,2.68a8.76,8.76,0,0,0,.15,1.62l.21,1.35c.17,1,.27,3.25.41,6.49.07,1.6.13,3.06.2,3.72l0,.29c0,.54.07.93.13,1.35l.09,1.15c.06.72.12,1.44.21,2.18a2.93,2.93,0,0,1-2.56,3.24A2.06,2.06,0,0,1,1769.5,902.28Z"/><path class="cls-9" d="M1783.57,762.09c2.82-4,7.35-5.76,10.11-4.06s2.77,6.65-.06,10.63-7.35,5.76-10.12,4.05S1780.85,766.51,1783.57,762.09Z"/><path d="M1811.2,757.25a2.91,2.91,0,0,1-2.74-1.92c-2.53-6.89-8.27-11.33-15-11.58a2.92,2.92,0,0,1-2.81-3,3,3,0,0,1,3-2.81c9.12.33,16.87,6.24,20.23,15.4a2.93,2.93,0,0,1-2.74,3.93Z"/><path d="M1777.13,748.86a2.92,2.92,0,0,1-2.38-1.23c-13.19-18.54,4.29-40.35,5-41.27a2.92,2.92,0,0,1,4.53,3.69c-.16.2-15.41,19.3-4.81,34.19a2.92,2.92,0,0,1-2.38,4.62Z"/><path d="M1760.82,728.92a2.8,2.8,0,0,1-1.23-.28,2.91,2.91,0,0,1-1.65-3.12c.11-.66,2.82-16.35,15.46-27.79a60.38,60.38,0,0,1,20.78-12.08c2.68-3.36,13.92-16.66,26.82-20.84,12.16-3.77,23.19,1.22,33.74,15.22a2.92,2.92,0,0,1-4.67,3.51c-11.84-15.71-21.25-15-27.3-13.16-12.74,4.12-24.41,19.39-24.53,19.55a3,3,0,0,1-1.53,1.05,54.68,54.68,0,0,0-19.39,11.08,43.43,43.43,0,0,0-9.41,12.55c1.82-1.66,3.8-3.39,5.9-5,8.3-7,19.36-8.92,19.83-9a2.92,2.92,0,0,1,1,5.76c-.09,0-10,1.79-17.13,7.77A121.64,121.64,0,0,0,1763,727.91,2.91,2.91,0,0,1,1760.82,728.92Z"/><path d="M1857.56,806.34c-5.93-.11-10.5-2.12-13.63-6-5.61-6.9-4.66-17.42-3.59-23.08a2.92,2.92,0,1,1,5.74,1.09c-1.5,7.93-.63,14.6,2.38,18.3,2,2.49,5,3.74,9.15,3.83a2.92,2.92,0,0,1,0,5.83Z"/><path d="M1882.6,882.15a15.16,15.16,0,0,1-1.8-.09,3.13,3.13,0,0,1-2.89-2.36,2.91,2.91,0,0,1,1.33-3.18c.74-.45,18.31-11.54,15-37.34a2.92,2.92,0,1,1,5.79-.74c2.36,18.3-4.6,30.21-10.49,36.77,11.31-2.49,32.29-10.89,47.2-38.86a2.92,2.92,0,0,1,5.16,2.74C1922.47,875.52,1892.36,882.15,1882.6,882.15Z"/><path d="M1968.48,838.41a2.94,2.94,0,0,1-.51,0c-13.43-2.39-19.8-9.14-21.31-22.56a2.92,2.92,0,1,1,5.81-.66c1,8.67,3.88,13.34,10.51,15.88a38.33,38.33,0,0,1-3.87-19.93,86.65,86.65,0,0,1,1.72-11c1.33-6.84,3-15.36,2.61-22.91-.73-12.78-2.24-23.23-14.13-31.6a2.91,2.91,0,1,1,3.35-4.77c14,9.84,15.84,22.67,16.61,36,.42,8.28-1.32,17.19-2.71,24.35a83.61,83.61,0,0,0-1.62,10.25c-.8,10.22,3.49,17.59,5.32,20.74,1,1.69,1.76,3,.87,4.64a3.09,3.09,0,0,1-2.55,1.55Z"/><path d="M1942,735.29a2.93,2.93,0,0,1-2.6-1.58c-9.38-18.07-41.41-38.66-71.4-45.9a2.92,2.92,0,1,1,1.37-5.67c28,6.76,63.8,26.89,75.22,48.88a2.93,2.93,0,0,1-2.59,4.27Z"/><path d="M1858.54,884.14a19.25,19.25,0,0,1-4.82-.54,2.92,2.92,0,0,1-1.12-5c.17-.16,17.36-15.47,11.8-31a2.92,2.92,0,1,1,5.49-2c4.81,13.4-3.19,25.87-8.77,32.46,5.2-.72,13.09-4,20.2-15.51a2.92,2.92,0,1,1,5,3.06C1876.5,881.6,1864.92,884.14,1858.54,884.14Z"/><path d="M1869.92,906.13a2.92,2.92,0,0,1-2.89-2.54c-.9-6.84-1.41-18.92-1.55-22.46a2.93,2.93,0,0,1,2.81-3,3,3,0,0,1,3,2.81c.09,2.47.61,15.16,1.5,21.92a2.93,2.93,0,0,1-2.52,3.28Z"/><path class="cls-9" d="M1745.14,856.36s39.22,16.57,55.33,16.95a74.7,74.7,0,0,1-13.17,10.49c-7.68,4.52-18.23,10.85-18.23,10.85l-2.17-23.77Z"/><path d="M1923.46,863.28a2.92,2.92,0,0,1-.23-5.83c20.15-1.66,25.67-20.57,27.16-31.7a2.89,2.89,0,0,1,3.28-2.51,2.93,2.93,0,0,1,2.51,3.29c-2.94,21.9-14.78,35.28-32.47,36.74Z"/><path d="M1832.56,718.2h-.22a2.91,2.91,0,0,1-2.7-3.12c.85-11.54-.42-17.45-1.88-19.13-.28-.32-.44-.33-.53-.33-4.22-.35-12.51,4.43-18.54,9.21a2.92,2.92,0,0,1-3.63-4.57c2.32-1.84,14.32-11,22.53-10.47a6.52,6.52,0,0,1,4.56,2.31c3.08,3.53,4.2,11.41,3.32,23.41A2.92,2.92,0,0,1,1832.56,718.2Z"/><path d="M1865.55,793.35a2.62,2.62,0,0,1-.55-.05c-1.07-.2-26.31-5.23-28.92-24.92-1.43-12.15,3.91-27.3,7.44-37.33.82-2.34,1.72-4.89,2.2-6.57-2.87-.06-8,.63-9.3,1.22a2.8,2.8,0,0,1-4-.67,3,3,0,0,1,.72-4.16c1.91-1.42,15.1-3.83,17.9-.49,1.65,2.11.72,4.76-2,12.61-3.35,9.52-8.41,23.91-7.14,34.66,1.17,8.82,8.8,14,15.19,16.91-4.34-7.18-8.34-19-3.32-34.83a2.92,2.92,0,1,1,5.57,1.76c-7.4,23.37,8,36.58,8.1,36.71a2.91,2.91,0,0,1-1.87,5.15Z"/><path d="M1885.44,721.41a2.91,2.91,0,0,1-2.1-.89c-8.15-8.43-20.79-17.1-34.71-10.6a2.92,2.92,0,1,1-2.48-5.29c13.31-6.22,28-2,41.38,11.83a2.91,2.91,0,0,1-.07,4.13A2.87,2.87,0,0,1,1885.44,721.41Z"/><path d="M1913.81,815.82c-.44,0-8.82-.35-18.49-6.3a23.29,23.29,0,0,1-4.29-3.44,19.38,19.38,0,0,1-1,6.28,2.92,2.92,0,0,1-5.54-1.86c1-3.1.66-6.14.2-9.66l-.14-1.12a50.34,50.34,0,0,0-1.39-5.79,2.92,2.92,0,0,1,5.52-1.87c0,.08,3.44,8.65,9.67,12.49a40.16,40.16,0,0,0,5.63,2.88,78.09,78.09,0,0,1-9.38-11.65c-5.36-9.2-10.12-26.16-8.46-39.6a2.92,2.92,0,0,1,5.8.71c-1.45,11.74,2.76,27.46,7.66,35.88,5,8.09,16,17.85,16.12,17.94a2.92,2.92,0,0,1-1.94,5.11Z"/><path d="M1934.58,829.74a3,3,0,0,1-1.2-.26,2.92,2.92,0,0,1-1.46-3.86c7.23-16,8.81-29.89,4.83-42.49a2.92,2.92,0,1,1,5.57-1.76c4.37,13.84,2.66,29.53-5.08,46.65A2.92,2.92,0,0,1,1934.58,829.74Z"/><path d="M1876.56,931.51a2.9,2.9,0,0,1-2.88-2.52c-.75-5.45-1.53-10.89-2.3-16.3-.26-1.84-.54-3.4-1.45-4.22a6.88,6.88,0,0,0-2.31-1.26c-13.72-5.62-29.74-5.68-45.23-5.75l-4.6,0c-11.11-.06-22.56.21-34,.84-4,.23-8,.14-11.92.05s-7.67-.18-11.45,0a3.87,3.87,0,0,0-1.42.21,11.23,11.23,0,0,0-2,3.7,2.93,2.93,0,0,1-3.34,2.43,2.9,2.9,0,0,1-2.44-3.29c.31-2.06,2.49-6.69,5.14-8.06a9.15,9.15,0,0,1,3.73-.82c4-.23,8-.14,11.87,0s7.67.17,11.47,0c11.58-.62,23.18-.9,34.38-.84l4.58,0c16,.07,32.65.13,47.38,6.16a12,12,0,0,1,4.13,2.42c2.5,2.26,2.94,5.51,3.23,7.68.78,5.4,1.56,10.86,2.31,16.32a2.92,2.92,0,0,1-2.5,3.28A2.6,2.6,0,0,1,1876.56,931.51Z"/><path d="M1887.4,964.9a2.93,2.93,0,0,1-2.91-2.72c-1-14.81-3.81-24.62-8.51-30-5.26-6-14.43-7.28-23.28-8.48-2.66-.36-5.17-.7-7.56-1.17a2.92,2.92,0,0,1,1.12-5.73c2.23.44,4.65.77,7.22,1.11,9.46,1.29,20.19,2.74,26.9,10.42,5.56,6.38,8.81,17.32,9.94,33.44a2.92,2.92,0,0,1-2.72,3.11Z"/><path d="M1762.55,837.17a28.54,28.54,0,0,1-7.3-1c-5.34-1.39-9.11-4.35-11.21-8.78-5-10.57,1.88-25.73,2.18-26.37a2.93,2.93,0,0,1,4.51-1,72.36,72.36,0,0,0,14.64,9.11c9.93,4.5,21.09,8.41,21.2,8.44a2.92,2.92,0,0,1,1.77,1.75,2.86,2.86,0,0,1-.21,2.47C1788,822,1779,837.17,1762.55,837.17Zm-12.36-30.23c-1.52,4.51-3.49,12.44-.86,18,1.34,2.83,3.76,4.67,7.39,5.62,12.38,3.25,20.64-4.35,24.28-8.78-4.2-1.56-11.38-4.3-18-7.3A73.89,73.89,0,0,1,1750.19,806.94Z"/><path d="M1645.87,1369c5,25.28,8.6,51,16.29,75.62,1.11,3.58,6.75,2,5.63-1.55-7.69-24.65-11.34-50.34-16.29-75.62-.72-3.69-6.35-2.13-5.63,1.55Z"/></svg>