<svg id="Layer_1" data-name="Layer 1" xmlns="http://www.w3.org/2000/svg" viewBox="0 0 2742 1523"><defs><style>.cls-1{fill:#e1dff8;}.cls-1,.cls-10,.cls-12,.cls-2,.cls-3,.cls-4,.cls-5,.cls-6,.cls-7,.cls-8,.cls-9{fill-rule:evenodd;}.cls-2{fill:#ffcc87;}.cls-3{fill:#cea68e;}.cls-4{fill:#ffe1c7;}.cls-5{fill:#e2b27f;}.cls-6{fill:#a7c1a4;}.cls-7{fill:#af9183;}.cls-8{fill:#fff;}.cls-9{fill:#fbb9ab;}.cls-10{fill:#91a2b8;}.cls-11,.cls-12{fill:#332e3c;}</style></defs><g id="_ëîé_3_2_" data-name="‘ëîé_3_2_"><path class="cls-1" d="M0,0H2742V1523H0Z"/></g><g id="_ëîé_2_1_" data-name="‘ëîé_2_1_"><path class="cls-2" d="M652.83,616.36l70,7.3,5.2,8.16s10,6.42,24.4,13.62c13,6.5,29.81,12.7,39.75,31.93,8.28,16,12.4,41,15.18,61.21A486.51,486.51,0,0,1,811.87,794l-270-.33s4-26.39,9.45-58.3c3.53-20.66,5.25-45,15.08-61.3,17.56-29,77.69-44.5,77.69-44.5Z"/><path class="cls-3" d="M633.14,488.47c8.69-9.61,18.26-20.68,33.14-22.85,9-1.32,25.64-.27,36.49,2.56,9,2.35,13.2,6.5,13.2,6.5s10.89,4.45,14.88,20.4S732,538.49,732,538.49l-101,12.68S614.83,508.7,633.14,488.47Z"/><path class="cls-4" d="M651.35,510.87c8.67-11,16.9-.05,31.33-.1,18.69,0,23.13-2.14,34.18,3.07s6.12,13.21,10,17.76c4.31,5,11.56,5.92,12.42,12.15,2.44,17.55-9.48,21.45-9.48,21.45l-1.53,17.57-8.74,15.54,1.64,46.21L704.6,672.85l-5.05-7.92-43.67-41.28-1.7-25.19-10.89-20.74a18.52,18.52,0,0,1-10.71-5.78c-2.45-2.67-5.68-7.76-5.3-12.09.66-7.3,9.18-13.34,11.2-20.09C640.45,533.2,648.07,515,651.35,510.87Z"/><path class="cls-5" d="M1326.66,417c11.25-15.6,44.8-32.86,65-34.94,17.15-1.78,29.21,5.17,39.42,9.74,10.75,4.82,51.59,9.77,56.38,54.37,1.16,10.76-1.61,41.3,2.68,53,6.65,18.07,17.6,25.44,21.94,38.16,4.5,13.17,2,31.6-14.41,45.09-11.4,9.37-27,10.72-44.56,12.56-18.14,1.91-38.31,4.15-58,3.93-32.18-.36-63.51,4.43-77.55-13,0,0-26.46,3.09-34.44-23.44-5.07-16.87,5.84-30.4,17-49.17,4.73-8-.44-29,3.16-48.57S1319.28,427.24,1326.66,417Z"/><path class="cls-4" d="M1340.37,525.61a17.36,17.36,0,0,1-11.73-7.18c-4.11-5.58-6.79-16.91-4.34-22.57,4.63-10.64,15.77-4.93,26.65-16.82,21-22.94,46.69-62,62.1-64.31,9.28-1.37,18.35,6.63,26.48,15.62,11.89,13.14,14.56,34.37,15.7,47.44.62,7.13,9.19,7.81,13.51,12.94,3.6,4.28,3.2,13.41,2.56,15.5-4.6,15.27-17.22,16-17.22,16L1449.56,546l-9.66,14.83s-2.81,25.81,2.95,42.25a44.35,44.35,0,0,0,20.08,23.51s-33.55,65.94-64.57,65.46c-14.43-.22-30.66-18.63-41.38-34.18a172.82,172.82,0,0,1-18.1-33.18s18.56-11,21.6-20.21c3.31-10,2.23-36.75,2.23-36.75l-16-16.7Z"/><path class="cls-6" d="M2009.91,617.26l70.29-.07,11.42,11.34A366.76,366.76,0,0,0,2128,643.7c20.23,7.16,44.65,13.49,59.68,34.3,11.52,16,15.25,40.84,18.6,60.59a411.48,411.48,0,0,1,5.76,56.73H1881.2s2.67-31.1,8.32-62.52c3.59-20,6.32-38,17-54.95,10.34-16.36,35.16-25.34,57.22-33.42,21-7.69,39.47-14.88,39.47-14.88Z"/><path class="cls-7" d="M2005.53,465.87c12-8.17,33.78-15.83,50.84-12.42,16.09,3.21,30.71,12.82,30.71,12.82s10.4,8.48,12.9,25.41-2.93,42.3-2.93,42.3l-105.88.27s-6.72-24.68-1.08-45.68C1992.42,479.89,1998.73,470.52,2005.53,465.87Z"/><path class="cls-4" d="M2020.11,495.51s9.59,10.08,31.66,8.24,34.25,8.08,34.25,8.08.61,10.2,5.79,16.51c4.31,5.25,13.22,6.11,14.24,11.76.68,3.74-.87,11.31-4.52,16.32a25.33,25.33,0,0,1-9.37,7.42l-4.52,24.07-8.81,12.15,1.36,29s-9.26,12-22,25.1c-5.06,5.25-4.9,15.12-7.07,21.47a45.51,45.51,0,0,1-7.3,13.94s0-19.22-5.49-27.78c-5.17-8.06-12.37-14.7-18-20.94a86.94,86.94,0,0,1-7.56-10.08l-.65-32.31-6.52-9.22-6.5-24.6a24,24,0,0,1-13.47-20.29c-.7-12.88,18-11,21.8-23.34C2009.32,515,2020.11,495.51,2020.11,495.51Z"/><path class="cls-8" d="M399.25,375.87,388.78,383v735.68l10.12,8.92,572.43.13,8.69-8.1-.36-735.44-8.21-7.61Zm483.32,42.27,7.48,8.07L890.39,786l-8.87,7.64-398.17.63-8.7-8.42L474.54,426l10.94-8.9Z"/><path class="cls-8" d="M1070.22,377.22l-10.47,7.14V1120l10.11,8.93,572.44.12L1651,1121l1.48-112.46,71.82-159.86L1723.42,459s-19.49-25.92-37.69-44.29-40-79.88-40-79.88l-89.68-33.67-257.55,9-106.79,11.62-52,30.09-.49,25Zm549.58-30,8.45,9.09.38,405.4-10,8.6-449.9.7-9.84-9.48-.12-405.42,12.36-10Z"/><path class="cls-8" d="M1757.16,377.57l-10.47,7.14v82.76s48.2,70.59,48.2,165.84-48.2,215.15-48.2,215.15v271.93l10.12,8.92,572.43.12,8.69-8.09-.36-735.44-8.21-7.62Zm483.32,42.27,7.48,8.07.33,359.83-8.87,7.64-398.16.62-8.7-8.41-.11-359.86,10.94-8.9Z"/><path class="cls-9" d="M1339.34,622.16a163.1,163.1,0,0,0,16.36,33.64c10.7,17,27.42,36.77,42.63,36.81,16,0,35.2-21.93,48.07-39.8a229.76,229.76,0,0,0,18.76-30.34s14.5,6.9,35,14.82c17.36,6.7,39.81,12.81,53.37,29.74,12.91,16.12,17.42,41.81,21.59,61.15,5.37,24.92,8.29,41.93,8.29,41.93l-366.3-.55s4.87-24.21,11.16-51c4-17,5.21-34.72,17.1-49.06,15.62-18.84,39.19-26.19,59.12-33.38C1323.56,629.29,1339.34,622.16,1339.34,622.16Z"/><path class="cls-10" d="M1449.17,243c-118.94-5.42-239.83,41.67-309.24,108.27-23.37,22.43-47.23,47.52-67.46,78.65-32,49.22-56.23,109.75-64.85,169.67-9.52,66.17-2.92,132.77,20.59,195.37,16.7,44.52,43,88,73.53,123.39,31.83,36.93,82.36,76.83,141.47,106,50.6,25,107.87,42,160.51,43.31,57.14,1.42,117.42-6.52,163.25-21.3,74.58-24.06,120-60.33,120-60.33l424.18,410s10.11,7.2,21.78,7.14,24.86-7.37,24.86-7.37l39.75-41.29s7.3-9.91,7.61-21.54-6.3-24.87-6.3-24.87L1774.71,898.45s34-40.59,58.07-106.25c13.75-37.45,22.64-85.23,24.39-132.79,4-108.95-56-237.23-128-299.36-29.09-25.08-59.19-51.1-95.3-69.73C1578,261.54,1512.36,245.84,1449.17,243Zm-28.24,66.67c54.55-3.43,119.6,11.8,175.25,39.79,40.59,20.43,74.36,47.22,104.31,80.57,38.15,42.48,63.57,90.6,76.18,140.55,7.79,30.84,10,65.32,9.44,90.81C1785,715.62,1767,788.91,1723,850.92c-56.25,79.38-153,142.6-290.88,148.45C1322.3,1004,1213,946.67,1146.77,864.6c-52.71-65.3-74.78-150.6-72.64-201.17,1.61-37.76,4.24-78.58,18.32-118.9,15.62-44.78,44.16-88.74,75.74-122.67C1235.12,350,1335.88,315,1420.93,309.64Z"/><path class="cls-11" d="M968.19,1129.81h-568a14.7,14.7,0,0,1-14.68-14.68V388.08a14.69,14.69,0,0,1,14.68-14.68h568a14.7,14.7,0,0,1,14.68,14.68v727.05A14.7,14.7,0,0,1,968.19,1129.81Zm-568-750.7a9,9,0,0,0-9,9v727.05a9,9,0,0,0,9,9h568a9,9,0,0,0,9-9V388.08a9,9,0,0,0-9-9Z"/><path class="cls-11" d="M878.49,796.44H486.07a14.69,14.69,0,0,1-14.68-14.67V429.43a14.7,14.7,0,0,1,14.68-14.68H878.49a14.7,14.7,0,0,1,14.68,14.68V781.77A14.69,14.69,0,0,1,878.49,796.44Zm-392.42-376a9,9,0,0,0-9,9V781.77a9,9,0,0,0,9,9H878.49a9,9,0,0,0,9-9V429.43a9,9,0,0,0-9-9Z"/><path class="cls-11" d="M1640,1130.62H1072a14.69,14.69,0,0,1-14.68-14.68V861.79a2.86,2.86,0,0,1,5.71,0v254.15a9,9,0,0,0,9,9h568a9,9,0,0,0,9-9v-107.4a2.86,2.86,0,0,1,5.71,0v107.4A14.69,14.69,0,0,1,1640,1130.62Z"/><path class="cls-11" d="M1723.47,851.16a2.71,2.71,0,0,1-2.85-2.68V460.72a2.86,2.86,0,0,1,5.71,0v387.4A3,3,0,0,1,1723.47,851.16Z"/><path class="cls-11" d="M1060.21,451.49a2.86,2.86,0,0,1-2.86-2.85V388.89A14.69,14.69,0,0,1,1072,374.22h40a2.86,2.86,0,0,1,0,5.71h-40a9,9,0,0,0-9,9v59.75A2.86,2.86,0,0,1,1060.21,451.49Z"/><path class="cls-11" d="M1588.67,349.39H1271.92a2.86,2.86,0,1,1,0-5.71h316.59a2.92,2.92,0,0,1,2.94,2.85A2.79,2.79,0,0,1,1588.67,349.39Z"/><path class="cls-11" d="M1615.48,773.66H1172.66a16.22,16.22,0,0,1-16.2-16.2V431.65a2.86,2.86,0,0,1,5.71,0V757.46A10.51,10.51,0,0,0,1172.66,768h442.82A10.51,10.51,0,0,0,1626,757.46v-388a2.86,2.86,0,1,1,5.71,0v388A16.22,16.22,0,0,1,1615.48,773.66Z"/><path class="cls-11" d="M2327,1130.62H2014.51a2.94,2.94,0,0,1-3-2.85,2.78,2.78,0,0,1,2.76-2.86H2327a9,9,0,0,0,9-9V388.89a9,9,0,0,0-9-9H1759a8.88,8.88,0,0,0-6.52,2.81,2.86,2.86,0,0,1-4.16-3.92,14.73,14.73,0,0,1,10.68-4.6h568a14.69,14.69,0,0,1,14.68,14.67v727.05A14.69,14.69,0,0,1,2327,1130.62Z"/><path class="cls-11" d="M1831.36,1130.62H1759a14.69,14.69,0,0,1-14.68-14.68v-69.08a2.86,2.86,0,0,1,5.71,0v69.08a9,9,0,0,0,9,9h72.37a2.86,2.86,0,0,1,0,5.71Z"/><path class="cls-11" d="M2237.29,797.26H1844.87A14.68,14.68,0,0,1,1832,789.7a2.85,2.85,0,0,1,5-2.77,9,9,0,0,0,7.85,4.62h392.42a9,9,0,0,0,9-9V430.25a9,9,0,0,0-9-9H1844.87a9,9,0,0,0-9,9v86.8a2.91,2.91,0,0,1-2.86,2.92,2.81,2.81,0,0,1-2.86-2.79V430.25a14.7,14.7,0,0,1,14.68-14.68h392.42A14.7,14.7,0,0,1,2252,430.25V782.58A14.7,14.7,0,0,1,2237.29,797.26Z"/><path class="cls-11" d="M875.45,854.6H483a2.86,2.86,0,0,1,0-5.71H875.45a2.86,2.86,0,1,1,0,5.71Z"/><path class="cls-11" d="M873.71,903H481.3a2.86,2.86,0,1,1,0-5.71H873.71a2.86,2.86,0,1,1,0,5.71Z"/><path class="cls-11" d="M874.58,949.63H482.17a2.86,2.86,0,1,1,0-5.71H874.58a2.86,2.86,0,1,1,0,5.71Z"/><path class="cls-11" d="M872.85,998.06H480.43a2.86,2.86,0,1,1,0-5.71H872.85a2.86,2.86,0,0,1,0,5.71Z"/><path class="cls-11" d="M1612,833.93H1178.09a2.86,2.86,0,1,1,0-5.71H1612a2.86,2.86,0,1,1,0,5.71Z"/><path class="cls-11" d="M1610.06,887.48H1176.17a2.86,2.86,0,1,1,0-5.71h433.89a2.86,2.86,0,1,1,0,5.71Z"/><path class="cls-11" d="M1611,939H1225.91a2.94,2.94,0,0,1-3-2.86,2.77,2.77,0,0,1,2.76-2.85H1611a2.86,2.86,0,1,1,0,5.71Z"/><path class="cls-11" d="M1512.7,992.56H1347.47a2.86,2.86,0,1,1,0-5.71h164.86a3,3,0,0,1,3,2.86A2.7,2.7,0,0,1,1512.7,992.56Z"/><path class="cls-11" d="M2235.64,855.88H1843.22a2.86,2.86,0,0,1,0-5.71h392.42a2.86,2.86,0,0,1,0,5.71Z"/><path class="cls-11" d="M2233.9,904.31H1841.49a2.86,2.86,0,1,1,0-5.71H2233.9a2.86,2.86,0,1,1,0,5.71Z"/><path class="cls-11" d="M2234.77,950.92H1842.35a2.86,2.86,0,0,1,0-5.71h392.42a2.86,2.86,0,1,1,0,5.71Z"/><path class="cls-11" d="M2233,999.35H1877.22a2.86,2.86,0,0,1,0-5.71H2233a2.86,2.86,0,1,1,0,5.71Z"/><path class="cls-11" d="M1430.27,1070.68c-237,0-429.89-186.58-429.89-415.92s192.85-415.93,429.89-415.93,429.88,186.58,429.88,415.93S1667.31,1070.68,1430.27,1070.68Zm0-826.14c-233.89,0-424.18,184-424.18,410.22S1196.38,1065,1430.27,1065s424.17-184,424.17-410.21S1664.16,244.54,1430.27,244.54Z"/><path class="cls-11" d="M1430.27,1002c-197.87,0-358.84-155.76-358.84-347.2s161-347.21,358.84-347.21,358.84,155.76,358.84,347.21S1628.14,1002,1430.27,1002Zm0-688.7c-194.72,0-353.13,153.2-353.13,341.5s158.41,341.49,353.13,341.49,353.13-153.2,353.13-341.49S1625,313.26,1430.27,313.26Z"/><path class="cls-11" d="M2133.49,1406a42.13,42.13,0,0,1-29.37-11.85L1685.06,989a2.85,2.85,0,1,1,4-4.1L2108.09,1390a36.61,36.61,0,0,0,51.7-.88l32-33.13a36.56,36.56,0,0,0-.88-51.7L1774.33,901.59a2.86,2.86,0,0,1,4-4.11l416.61,402.73a42.25,42.25,0,0,1,1,59.77l-32,33.13A42.13,42.13,0,0,1,2133.49,1406Z"/><path class="cls-11" d="M1395.4,585.73h-.69c-21.07-.41-46.18-24.81-50.71-36.86a181,181,0,0,1-9-34.81,2.86,2.86,0,0,1,5.65-.88,174.72,174.72,0,0,0,8.66,33.68c3.54,9.43,26.61,32.8,45.47,33.16h.54c18.08,0,43.25-17.26,51.14-35.19,2.86-6.52,4.45-19.12,5.5-27.46.28-2.19.52-4.14.76-5.74a2.85,2.85,0,1,1,5.65.82c-.23,1.57-.47,3.49-.74,5.63-1.16,9.19-2.75,21.77-6,29C1443.8,565.15,1417.61,585.73,1395.4,585.73Z"/><path class="cls-11" d="M1339.24,528.8h-.12c-11.44-.48-18.7-15.9-18.67-26.3,0-7.78,3.42-12.55,10.4-14.58a2.86,2.86,0,0,1,1.6,5.49c-4.51,1.31-6.28,3.86-6.29,9.11,0,8.82,6.19,20.27,13.2,20.57a2.86,2.86,0,0,1-.12,5.71Z"/><path class="cls-11" d="M1456.21,524.9a2.86,2.86,0,0,1-.12-5.71c7.12-.3,13.19-11.86,13-20.76-.07-3-1.1-8-7.28-8.19a2.87,2.87,0,0,1-2.77-2.94,2.72,2.72,0,0,1,2.94-2.77c7.61.22,12.64,5.63,12.82,13.78.23,10.51-6.85,26.1-18.46,26.59Z"/><path class="cls-11" d="M1463,627.58a2.93,2.93,0,0,1-1.28-.3c-.72-.37-17.71-9-22.37-23-5.26-15.73-2.37-44.5-2.34-44.79a2.86,2.86,0,0,1,5.68.61c-.76,7.11-2,30.14,2.07,42.37,3.92,11.71,19.37,19.6,19.52,19.68a2.86,2.86,0,0,1-1.28,5.41Z"/><path class="cls-11" d="M1339.15,627.58a2.86,2.86,0,0,1-1.28-5.41c.15-.08,15.6-8,19.51-19.68,3.28-9.8,3-26.6,2.69-33.37a2.86,2.86,0,1,1,5.71-.23c.37,8.79.47,25.09-3,35.41-4.66,14-21.65,22.61-22.37,23A2.93,2.93,0,0,1,1339.15,627.58Z"/><path class="cls-11" d="M1398.85,695.44h-.17c-18.28-.33-53.55-44.75-63.65-70.35a2.86,2.86,0,0,1,5.31-2.1c13.49,34.17,48.34,66.55,58.44,66.74h.08c10.16,0,49.4-35.11,63.76-67.53a2.86,2.86,0,0,1,5.22,2.32C1455.83,651.63,1415.49,695.44,1398.85,695.44Z"/><path class="cls-11" d="M1217.24,771.4a2.63,2.63,0,0,1-.78-.11,2.86,2.86,0,0,1-2-3.53c2.4-8.44,4.36-18.5,6.43-29.16,4-20.35,8.44-43.42,17.56-63.51s37.53-31.56,65.82-41.5a167.76,167.76,0,0,0,16.45-7.19c8-3.86,15.65-7.51,22.11-8.23a2.89,2.89,0,0,1,3.15,2.53,2.85,2.85,0,0,1-2.52,3.15c-5.49.61-12.67,4-20.27,7.7a172.33,172.33,0,0,1-17,7.43c-27.12,9.53-54.29,20.35-62.51,38.47-8.84,19.48-13.26,42.2-17.15,62.24-2.1,10.78-4.08,21-6.54,29.63A2.87,2.87,0,0,1,1217.24,771.4Z"/><path class="cls-11" d="M1272.21,771.68a2.85,2.85,0,0,1-2.85-2.85c0-9.74-1.52-22.29-2.86-33.37-.38-3.14-.74-6.16-1-9a2.85,2.85,0,1,1,5.67-.63c.31,2.77.67,5.77,1.05,8.9,1.36,11.23,2.9,24,2.9,34.05A2.86,2.86,0,0,1,1272.21,771.68Z"/><path class="cls-11" d="M1582.71,770.56a2.86,2.86,0,0,1-2.75-2.08c-2.47-8.67-4.44-18.86-6.54-29.64-3.9-20-8.32-42.75-17.15-62.24-8.23-18.11-35.39-28.93-62.52-38.47a172.25,172.25,0,0,1-17-7.42c-7.6-3.65-14.78-7.09-20.26-7.7a2.86,2.86,0,0,1,.63-5.68c6.45.72,14.05,4.36,22.1,8.23a170.2,170.2,0,0,0,16.45,7.19c28.29,9.94,56.68,21.33,65.82,41.49s13.61,43.16,17.56,63.51c2.08,10.66,4,20.73,6.43,29.17a2.85,2.85,0,0,1-2,3.53A3.06,3.06,0,0,1,1582.71,770.56Z"/><path class="cls-11" d="M1527.73,770.84a2.86,2.86,0,0,1-2.85-2.85c0-10.09,1.54-22.82,2.89-34,.38-3.13.74-6.13,1-8.9a2.86,2.86,0,1,1,5.68.63c-.31,2.79-.68,5.8-1.06,9-1.34,11.07-2.85,23.63-2.85,33.37A2.86,2.86,0,0,1,1527.73,770.84Z"/><path class="cls-11" d="M1335,484a23.2,23.2,0,0,1-8.26-1.55,2.85,2.85,0,0,1,2-5.34c12,4.52,23.19-4.76,36.28-20.1,2.77-3.25,5.85-7.56,9.12-12.13,12.18-17,27.32-38.24,45.23-31.63a2.86,2.86,0,0,1-2,5.36c-13.8-5.1-27.56,14.13-38.61,29.59-3.35,4.67-6.5,9.09-9.43,12.52C1359.51,472.21,1348.17,484,1335,484Z"/><path class="cls-11" d="M1454.14,477.49a2.86,2.86,0,0,1-2.86-2.86c0-10.28-2.11-35.6-21.67-48.63a2.86,2.86,0,0,1,3.17-4.75c21.85,14.56,24.21,42.19,24.21,53.38A2.86,2.86,0,0,1,1454.14,477.49Z"/><path class="cls-11" d="M1484.91,591.19a2.86,2.86,0,0,1-.61-5.65c24.77-5.46,29.09-28.79,26-43.14-2.2-10-8.34-19.15-13.76-27.19-3.77-5.6-7-10.44-8.38-14.77-3.56-11.39-3.58-24.39-3.06-36.75.64-15.58-4.53-37.5-17.55-51.38-7.42-7.91-16.32-12-26.46-12.26a2.86,2.86,0,0,1,.07-5.71h.06c11.73.27,22,5,30.49,14.06,14.16,15.09,19.79,38.76,19.09,55.53-.49,11.84-.49,24.25,2.81,34.81,1.1,3.53,4.15,8.05,7.67,13.28,5.42,8,12.17,18.06,14.6,29.16,4.38,20-4.76,44.3-30.3,49.94A2.68,2.68,0,0,1,1484.91,591.19Z"/><path class="cls-11" d="M1452.7,597.69h-.65a2.86,2.86,0,0,1-2.79-2.92,3,3,0,0,1,2.92-2.79c15.42.44,23.32-14.55,25.43-22.47a2.86,2.86,0,1,1,5.52,1.47C1479.68,583.92,1468.71,597.69,1452.7,597.69Z"/><path class="cls-11" d="M1300.55,588.32a2.83,2.83,0,0,1-.9-.15c-6.59-2.19-17-11.95-19.34-24.56a48.74,48.74,0,0,1,7.8-36.47c5.19-7.5,10.4-15.64,12-25.27.36-2.14.15-5.79-.09-10-.67-11.62-1.68-29.18,6.34-47.54,12.19-27.88,35.73-50.21,63-59.71,26.16-9.13,44.63-7.15,59.9,6.43a2.85,2.85,0,1,1-3.79,4.27c-13.73-12.2-30-13.79-54.23-5.31-25.76,9-48,30.15-59.61,56.61-7.48,17.1-6.52,33.84-5.88,44.92.27,4.76.48,8.52,0,11.29-1.8,10.8-7.38,19.55-13,27.58a43,43,0,0,0-6.87,32.16c2,10.68,11,18.71,15.52,20.2a2.86,2.86,0,0,1-.9,5.57Z"/><path class="cls-11" d="M1328.81,596.21a3.64,3.64,0,0,1-.56-.05c-14.92-3-19.35-17.81-17.12-31.17a2.85,2.85,0,0,1,5.63.94c-1.32,8-.16,22.07,12.61,24.63a2.85,2.85,0,0,1-.56,5.65Z"/><path class="cls-11" d="M1357.62,602.08c-11.86,0-20.53-6.5-22.62-17a2.86,2.86,0,1,1,5.6-1.12c2.24,11.18,12.65,12.38,17,12.38a2.86,2.86,0,0,1,0,5.71Z"/><path class="cls-11" d="M1394.45,548.33a46.22,46.22,0,0,1-17.42-3.39,2.85,2.85,0,1,1,2.12-5.3c10,4,20.53,4,33-.21a2.86,2.86,0,1,1,1.81,5.42A61.6,61.6,0,0,1,1394.45,548.33Z"/><path class="cls-11" d="M1394.06,525.68a2.85,2.85,0,0,1-1.94-.76c-7-6.44-7.9-11.68-3.34-18.7,3.14-4.85,4.28-7.13,1-15A2.85,2.85,0,1,1,1395,489c4,9.44,2.83,13.71-1.45,20.31-2.79,4.29-2.83,6.54,2.43,11.4a2.85,2.85,0,0,1-1.94,4.95Z"/><path class="cls-12" d="M1360.91,496.12c0-4.06,2.73-7.36,6.09-7.36s6.08,3.3,6.08,7.36-2.72,7.36-6.08,7.36S1360.91,500.19,1360.91,496.12Z"/><path class="cls-12" d="M1415.05,494.75c0-4.06,2.72-7.36,6.08-7.36s6.09,3.3,6.09,7.36-2.72,7.36-6.09,7.36S1415.05,498.82,1415.05,494.75Z"/><path class="cls-11" d="M1356.46,474.28A2.86,2.86,0,0,1,1355,469c7.43-4.28,18.59-6.41,26.78-1.49a2.86,2.86,0,1,1-2.94,4.9c-6.21-3.73-15-1.91-21,1.54A2.84,2.84,0,0,1,1356.46,474.28Z"/><path class="cls-11" d="M1434.17,472.32a2.88,2.88,0,0,1-1.73-.58c-5.28-4.05-14.46-4.2-20.89-.34a2.85,2.85,0,1,1-2.94-4.89c8.43-5.07,20.16-4.77,27.3.69a2.85,2.85,0,0,1-1.74,5.12Z"/><path class="cls-11" d="M689.2,620.33c-20.85,0-39.57-19.61-44.27-30.79A197.71,197.71,0,0,1,637.62,569a2.86,2.86,0,1,1,5.5-1.55,193.94,193.94,0,0,0,7.08,19.88c4,9.5,21.56,27.67,39.67,27.29,14-.34,32.57-19.28,36.23-36.85,1.7-8.22.95-21.76.94-21.9a2.86,2.86,0,0,1,2.69-3,2.8,2.8,0,0,1,3,2.68c0,.59.81,14.44-1,23.39-3.83,18.38-23.27,41-41.67,41.4Z"/><path class="cls-8" d="M672.94,582s7.06-.32,14.45-1a105.1,105.1,0,0,0,16-3s0,17-13.48,18.29S672.94,582,672.94,582Z"/><path class="cls-11" d="M688.41,599.17c-11.41,0-16.91-10.65-18.25-16.57a2.85,2.85,0,0,1,2.65-3.49c.07,0,7.09-.33,14.33-1a103.15,103.15,0,0,0,15.52-3,2.85,2.85,0,0,1,3.62,2.75c0,6.78-3.35,19.93-16.06,21.13C689.6,599.14,689,599.17,688.41,599.17Zm-11.54-14.56c1.67,3.82,5.46,9.5,12.81,8.79s9.7-7.33,10.5-11.69a94.58,94.58,0,0,1-12.55,2.14C683.6,584.2,679.64,584.45,676.87,584.61ZM672.94,582h0Z"/><path class="cls-11" d="M642.14,580.21h-.21c-8.65-.61-15.63-9.65-17.13-17.68-1.21-6.47,1.16-11.79,6.33-14.23a2.86,2.86,0,0,1,2.44,5.17c-3.53,1.66-3.67,5.27-3.15,8,1.09,5.83,6.42,12.64,11.91,13a2.85,2.85,0,0,1-.19,5.7Z"/><path class="cls-11" d="M730.86,568.18a2.86,2.86,0,0,1-1.35-5.38c5.76-3.09,8.51-11.88,7.11-17.68-.79-3.28-2.64-5-5.5-5a2.86,2.86,0,0,1-2.8-2.91,2.89,2.89,0,0,1,2.91-2.8c5.46.11,9.55,3.62,10.94,9.39,1.93,8-1.61,19.58-10,24.06A2.88,2.88,0,0,1,730.86,568.18Z"/><path class="cls-11" d="M686.41,569.52a2.85,2.85,0,0,1-2.3-4.54c2.37-3.24,1.53-4.33-.3-6.74-.46-.6-.92-1.21-1.31-1.83-2.68-4.23-2.64-9,.12-14.29a2.85,2.85,0,0,1,5,2.65c-2.32,4.43-1.4,6.91-.35,8.58.31.49.67,1,1,1.43,2,2.58,5.25,6.89.37,13.57A2.84,2.84,0,0,1,686.41,569.52Z"/><path class="cls-12" d="M658.51,550.89c-.28-3,1.52-5.68,4-5.91s4.77,2,5.05,5.07-1.52,5.68-4,5.91S658.79,553.92,658.51,550.89Z"/><path class="cls-12" d="M699.27,545.78c-.29-3,1.52-5.68,4-5.91s4.77,2,5.05,5.07-1.52,5.67-4,5.91S699.55,548.81,699.27,545.78Z"/><path class="cls-11" d="M650.68,536.67a2.86,2.86,0,0,1-1.82-5.06A22.07,22.07,0,0,1,671,528.24a2.86,2.86,0,1,1-2.25,5.25A16.22,16.22,0,0,0,652.49,536,2.89,2.89,0,0,1,650.68,536.67Z"/><path class="cls-11" d="M693.19,530.28a2.86,2.86,0,0,1-1.87-5c5.29-4.59,14.68-5.6,22.31-2.41a2.86,2.86,0,1,1-2.2,5.27c-5.56-2.32-12.75-1.68-16.37,1.46A2.9,2.9,0,0,1,693.19,530.28Z"/><path class="cls-11" d="M655.2,625.52h-.05a2.86,2.86,0,0,1-2.8-2.9,125.28,125.28,0,0,0-2.56-25,2.86,2.86,0,1,1,5.58-1.22,128.17,128.17,0,0,1,2.69,26.35A2.86,2.86,0,0,1,655.2,625.52Z"/><path class="cls-11" d="M704.36,675.58a2.91,2.91,0,0,1-1.39-.36,2.88,2.88,0,0,1-1.11-3.89c2.37-4.26,4.77-8,6.88-11.38,5-7.85,8.56-13.53,8.7-19.84.09-3.9-.08-8.5-.29-13.82-.31-8.28-.66-17.67-.17-27.82a2.86,2.86,0,0,1,5.71.28c-.49,9.9-.14,19.16.17,27.32.21,5.42.38,10.1.29,14.17-.17,7.89-4.33,14.46-9.59,22.77-2.07,3.27-4.41,7-6.7,11.1A2.87,2.87,0,0,1,704.36,675.58Z"/><path class="cls-11" d="M708,694a2.85,2.85,0,0,1-2.85-2.71c0-.18-1-17.56-11.59-26.72-17.38-15-30.57-27.41-42.57-42.58a2.86,2.86,0,0,1,4.48-3.55c11.72,14.82,24.7,27,41.83,41.81C709.7,671,710.76,690.18,710.8,691a2.86,2.86,0,0,1-2.71,3Z"/><path class="cls-11" d="M677.22,681.12h-.09c-2,0-3.82-1.17-5.4-3.37-11.31-15.79-28.81-45.17-28.81-48.35s3.11-8.2,7.17-14.37c.7-1.06,1.29-2,1.66-2.57a2.86,2.86,0,1,1,4.9,2.94c-.4.66-1,1.63-1.79,2.77-1.6,2.43-5.72,8.7-6.19,10.92,1.61,3.79,15.06,27.68,27.71,45.33.61.86,1,1,1,1,.66-.21,2.63-2.77,3.81-4.31,3.63-4.71,9.71-12.61,18.75-7.62a2.86,2.86,0,0,1-2.76,5c-4.1-2.27-6.73,0-11.46,6.11C683.1,678,680.66,681.12,677.22,681.12Z"/><path class="cls-11" d="M731,678.1c-1.81,0-3.09-1.83-4.87-4.38-2.77-4-7.94-11.35-12.22-9.77a2.86,2.86,0,1,1-2-5.36c6.51-2.41,12.05,2.87,15.92,7.8-1.05-12.51-3.59-39.16-9.62-45.2a2.85,2.85,0,1,1,4-4c6.95,6.94,9.62,28.62,11.47,51,.17,2.09.31,3.78.43,4.94s.41,3.87-2,4.78A3.43,3.43,0,0,1,731,678.1Z"/><path class="cls-11" d="M542.5,794.73a2.75,2.75,0,0,1-.57-.05,2.86,2.86,0,0,1-2.24-3.36c1-5,2.38-13.81,4-24.07,4.81-30.76,12.08-77.25,20-91.81,11.25-20.67,36.75-31.58,50.46-37.44,4.82-2.07,29.79-12.59,29.79-12.59l2.22,5.26s-24.95,10.52-29.77,12.58c-13.06,5.59-37.38,16-47.69,34.92-7.44,13.69-14.62,59.59-19.37,90-1.68,10.75-3,19.25-4,24.31A2.84,2.84,0,0,1,542.5,794.73Z"/><path class="cls-11" d="M609.69,795a2.6,2.6,0,0,1-.56-.06,2.85,2.85,0,0,1-2.24-3.36l1-5.17c2-10.35,4.48-23.24,8.28-32.11a2.86,2.86,0,0,1,5.25,2.25c-3.56,8.31-6,20.86-7.92,30.94l-1,5.21A2.87,2.87,0,0,1,609.69,795Z"/><path class="cls-11" d="M617.44,734.55A2.86,2.86,0,0,1,614.6,732c-.93-8.41-5.41-36.84-23.87-49.8a2.86,2.86,0,0,1,3.28-4.68c20.42,14.34,25.27,44.84,26.27,53.85a2.85,2.85,0,0,1-2.52,3.15A1.77,1.77,0,0,1,617.44,734.55Z"/><path class="cls-11" d="M811.93,795a2.87,2.87,0,0,1-2.85-2.6c-.55-6.3-1.05-12.77-1.56-19.32-2.68-34.27-5.44-69.71-15.73-91.44-6.67-14.1-22.8-22.94-34.59-29.4l-3.51-1.93c-3.21-1.79-6.16-3.26-8.94-4.65-7.71-3.83-14.36-7.15-21.8-14.8a2.85,2.85,0,1,1,4.09-4c6.77,7,12.72,9.92,20.25,13.67,2.86,1.42,5.89,2.93,9.19,4.77l3.47,1.92c12.47,6.83,29.54,16.18,37,32,10.73,22.68,13.54,58.65,16.25,93.44.51,6.52,1,13,1.56,19.26a2.85,2.85,0,0,1-2.59,3.09Z"/><path class="cls-11" d="M779.33,794.46l-.36,0a2.85,2.85,0,0,1-2.47-3.19c2.2-17.59,4.15-54.81,4.15-71.82a2.86,2.86,0,0,1,5.71,0c0,17.53-1.93,54.43-4.2,72.53A2.86,2.86,0,0,1,779.33,794.46Z"/><path class="cls-11" d="M629.4,545.25a2.87,2.87,0,0,1-2.76-2.11c-4.74-17.39-8.06-35.59-.29-50.77a2.86,2.86,0,1,1,5.08,2.61c-6.88,13.44-3.72,30.37.72,46.66a2.86,2.86,0,0,1-2,3.51A2.76,2.76,0,0,1,629.4,545.25Z"/><path class="cls-11" d="M633.47,489.4a2.85,2.85,0,0,1-2.67-1.85c-1.06-2.82-2.15-6.14-1.69-9.84a2.86,2.86,0,0,1,5.67.71c-.27,2.17.32,4.34,1.36,7.13a2.84,2.84,0,0,1-1.67,3.67A2.71,2.71,0,0,1,633.47,489.4Z"/><path class="cls-11" d="M640.77,481.93a2.79,2.79,0,0,1-1.28-.3,2.85,2.85,0,0,1-1.27-3.83c5.73-11.46,27.2-17.73,43.69-16.35,2.62.21,5.08.5,7.42.77,7.26.85,13,1.51,18.3-.57a2.86,2.86,0,0,1,2.08,5.32c-6.64,2.6-13.31,1.82-21,.93-2.28-.27-4.67-.55-7.23-.76-15.86-1.3-34,5-38.11,13.22A2.86,2.86,0,0,1,640.77,481.93Z"/><path class="cls-11" d="M732.61,530.82h-.16a2.87,2.87,0,0,1-2.7-3c1.17-21.86,0-43.14-16.18-50.73a2.85,2.85,0,1,1,2.42-5.17c21.92,10.27,20.26,41.3,19.47,56.21A2.87,2.87,0,0,1,732.61,530.82Z"/><path class="cls-11" d="M638.06,543.72l-.37,0a2.86,2.86,0,0,1-2.47-3.2c1.1-8.58,3.88-13.89,6.33-18.58,2.24-4.28,4-7.65,4-12.63a2.86,2.86,0,0,1,5.72,0c0,6.38-2.27,10.7-4.66,15.28s-4.76,9.09-5.72,16.66A2.85,2.85,0,0,1,638.06,543.72Z"/><path class="cls-11" d="M668.32,512.28a18.33,18.33,0,0,1-16.69-9.85,2.86,2.86,0,1,1,5.11-2.56c2.87,5.74,9.31,7.37,14.41,6.44a2.86,2.86,0,0,1,1,5.62A21.23,21.23,0,0,1,668.32,512.28Z"/><path class="cls-11" d="M696.11,514.68a26.44,26.44,0,0,1-21.57-11,2.85,2.85,0,0,1,4.77-3.13c.31.47,7.23,10.57,21.54,7.93a2.86,2.86,0,0,1,1,5.62A31.5,31.5,0,0,1,696.11,514.68Z"/><path class="cls-11" d="M723.77,532.69a2.85,2.85,0,0,1-2.79-2.3,37.3,37.3,0,0,0-11.53-19.84,2.86,2.86,0,0,1,3.86-4.21,42.89,42.89,0,0,1,13.26,22.93,2.85,2.85,0,0,1-2.24,3.36A2.6,2.6,0,0,1,723.77,532.69Z"/><path class="cls-11" d="M2044.36,619.46h-.55c-17-.34-37.22-20.78-40.87-30.87a155,155,0,0,1-7.14-28.91,2.86,2.86,0,0,1,5.65-.84,149.25,149.25,0,0,0,6.86,27.81c2.79,7.7,20.86,26.8,35.61,27.1h.42c14.17,0,33.91-14.13,40.11-28.8,2.25-5.34,3.51-15.73,4.34-22.6.22-1.83.42-3.46.61-4.79a2.86,2.86,0,0,1,5.66.79c-.19,1.3-.38,2.9-.6,4.68-.92,7.63-2.18,18.07-4.75,24.14C2083.34,602.24,2062.27,619.46,2044.36,619.46Z"/><path class="cls-11" d="M1998.63,566.93h-.13c-8.94-.38-15.85-12-15.83-21.76,0-6.69,3-10.8,9-12.54a2.86,2.86,0,0,1,1.6,5.49c-3.53,1-4.85,2.93-4.86,7.07,0,6.87,4.86,15.8,10.37,16a2.86,2.86,0,0,1-.12,5.71Z"/><path class="cls-11" d="M2093.13,565.63a2.86,2.86,0,0,1-.12-5.71c5.49-.23,10.44-9.59,10.29-16.68-.07-2.8-1.08-6.17-5.55-6.31A2.86,2.86,0,0,1,2095,534a2.71,2.71,0,0,1,2.94-2.77c6.58.19,10.93,4.86,11.09,11.88.19,8.91-5.84,22.1-15.75,22.52Z"/><path class="cls-11" d="M2044.64,590.33a38.66,38.66,0,0,1-14.6-2.85,2.85,2.85,0,0,1,2.12-5.3c8.2,3.28,16.78,3.22,27-.18a2.86,2.86,0,0,1,1.81,5.42A51.49,51.49,0,0,1,2044.64,590.33Z"/><path class="cls-11" d="M2044.32,571.57a2.87,2.87,0,0,1-1.94-.75c-5.91-5.47-6.73-10.14-2.85-16.12,2.5-3.86,3.41-5.68.77-11.94a2.85,2.85,0,1,1,5.26-2.22c3.36,8,2.33,11.76-1.23,17.26-2,3.13-2.43,4.8,1.92,8.82a2.85,2.85,0,0,1-1.93,5Z"/><path class="cls-12" d="M2016.88,544.78c0-3.37,2.25-6.1,5-6.1s5,2.73,5,6.1-2.25,6.09-5,6.09S2016.88,548.14,2016.88,544.78Z"/><path class="cls-12" d="M2061.29,543.64c0-3.36,2.26-6.09,5-6.09s5,2.73,5,6.09-2.26,6.1-5,6.1S2061.29,547,2061.29,543.64Z"/><path class="cls-11" d="M2012.13,529.58a2.86,2.86,0,0,1-1.44-5.33c5.87-3.4,15.14-5.07,22.63-1.18a2.86,2.86,0,1,1-2.63,5.07c-4.68-2.43-11.88-2-17.14,1.05A2.74,2.74,0,0,1,2012.13,529.58Z"/><path class="cls-11" d="M2075.76,528.26a2.84,2.84,0,0,1-1.42-.39,18.76,18.76,0,0,0-17.1-.49,2.86,2.86,0,0,1-2.43-5.17,24.51,24.51,0,0,1,22.38.72,2.86,2.86,0,0,1-1.43,5.33Z"/><path class="cls-11" d="M2012.92,631.33a2.86,2.86,0,0,1-2.85-2.86c0-6.39-.72-23.37-1.1-30.48a2.85,2.85,0,1,1,5.7-.31c.33,6.08,1.11,23.89,1.11,30.79A2.86,2.86,0,0,1,2012.92,631.33Z"/><path class="cls-11" d="M2079.16,631a2.85,2.85,0,0,1-2.85-2.86c0-8.94.11-21.89,1.09-31.19a2.86,2.86,0,0,1,5.68.6c-.95,9-1.06,21.78-1.06,30.59A2.86,2.86,0,0,1,2079.16,631Z"/><path class="cls-11" d="M2048.76,794.88h-.1a2.87,2.87,0,0,1-2.76-3c.48-13.66.48-28.3,0-35.6-.5-7.6-1.61-15.3-2.69-22.76-1.16-7.94-2.35-16.16-2.82-24.39-.27-4.85-.05-9.9.15-14.78.37-8.47.75-17.24-1.48-25-2.14-7.5-7.88-13.24-14-19.33-8-8-16.33-16.34-16.33-29.24a2.86,2.86,0,0,1,5.71,0c0,10.54,7.12,17.66,14.66,25.21,6.32,6.33,12.86,12.87,15.4,21.79,2.49,8.68,2.09,17.92,1.7,26.85-.21,5-.41,9.64-.15,14.2.45,8,1.62,16.08,2.76,23.9,1.09,7.57,2.23,15.39,2.74,23.21.49,7.47.49,22.35,0,36.17A2.86,2.86,0,0,1,2048.76,794.88Z"/><path class="cls-11" d="M2043.25,699.18a2.92,2.92,0,0,1-1.22-.27,2.85,2.85,0,0,1-1.35-3.81c.09-.2,9.62-20.3,11-32.58.75-6.78,6-12,11.58-17.63,6.29-6.3,13.42-13.44,15-23.87a2.85,2.85,0,1,1,5.64.85c-1.86,12.29-9.69,20.14-16.6,27.06-5.05,5.06-9.41,9.43-9.94,14.22-1.47,13.24-11.1,33.55-11.51,34.41A2.86,2.86,0,0,1,2043.25,699.18Z"/><path class="cls-11" d="M2016.4,680.07a4,4,0,0,1-.84-.08c-1.81-.36-3.07-1.76-3.75-4.17-.16-.55-.52-1.69-1-3.26-10.53-33.76-11.31-42.54-9.16-45.76.73-1.09,2.19-4.13,3.59-7.07s2.82-5.89,4.09-8.19a2.85,2.85,0,1,1,5,2.75c-1.21,2.19-2.62,5.15-3.94,7.9a83.23,83.23,0,0,1-4,7.78c-.52,1.51-.06,9.08,9.85,40.89l.82,2.63c1-1.07,2.4-2.8,3.49-4.18,4.68-5.9,11-14,18.49-11a2.86,2.86,0,0,1-2.11,5.31c-3.43-1.37-8.34,4.79-11.9,9.28C2021.76,677,2019.32,680.07,2016.4,680.07Zm1.14-5.19Z"/><path class="cls-11" d="M2078.22,678.4c-2.92,0-5.36-3.09-8.64-7.22-3.57-4.49-8.46-10.62-11.91-9.28a2.85,2.85,0,1,1-2.09-5.31c7.39-2.94,13.8,5.15,18.47,11,1.1,1.37,2.47,3.11,3.5,4.17l.28-1c10.17-34.58,9.57-40.87,9.14-42-.33-.49-1-1.48-1.91-2.69-2.37-3.33-5.95-8.35-7.94-12a2.85,2.85,0,1,1,5-2.75c1.84,3.33,5.3,8.19,7.59,11.4.91,1.27,1.65,2.32,2.09,3,1.89,2.82,2.16,10.42-8.49,46.61l-.49,1.69c-.69,2.41-2,3.82-3.76,4.17A4,4,0,0,1,2078.22,678.4Z"/><path class="cls-11" d="M1882.09,795.1l-.35,0a2.85,2.85,0,0,1-2.49-3.18c.72-5.95,1.39-11.91,2.06-17.84,3.8-33.7,7.39-65.54,19.22-91.62,9.15-20.16,37.53-31.56,65.82-41.49a169.13,169.13,0,0,0,16.45-7.19c7-3.36,13.61-6.53,19.43-7.79a2.85,2.85,0,1,1,1.21,5.58c-5.17,1.12-11.48,4.15-18.17,7.36a172.09,172.09,0,0,1-17,7.42c-27.13,9.53-54.3,20.35-62.52,38.47-11.46,25.26-15,56.66-18.74,89.9-.68,5.95-1.35,11.92-2.07,17.89A2.86,2.86,0,0,1,1882.09,795.1Z"/><path class="cls-11" d="M1932.83,794a2.86,2.86,0,0,1-2.86-2.85c0-11.15-3.73-44.11-5.52-60l-.57-5.11a2.85,2.85,0,1,1,5.67-.64l.58,5.11c1.8,16,5.55,49.13,5.55,60.6A2.85,2.85,0,0,1,1932.83,794Z"/><path class="cls-11" d="M2211.54,795.1a2.86,2.86,0,0,1-2.83-2.51c-.73-6-1.4-12-2.07-17.94-3.75-33.22-7.29-64.6-18.74-89.85-8.22-18.11-35.39-28.94-62.52-38.47a172.09,172.09,0,0,1-17-7.42c-6.69-3.21-13-6.24-18.17-7.36a2.85,2.85,0,0,1,1.2-5.58c5.83,1.26,12.44,4.43,19.44,7.79a169.13,169.13,0,0,0,16.45,7.19c28.28,9.94,56.67,21.33,65.82,41.49,11.82,26.07,15.41,57.89,19.21,91.57q1,8.93,2.07,17.89a2.86,2.86,0,0,1-2.49,3.18Z"/><path class="cls-11" d="M2160.8,794a2.86,2.86,0,0,1-2.86-2.85c0-11.41,3.74-44.46,5.53-60.34l.61-5.37a2.85,2.85,0,1,1,5.67.64l-.6,5.37c-1.78,15.78-5.49,48.61-5.49,59.7A2.86,2.86,0,0,1,2160.8,794Z"/><path class="cls-11" d="M1990,529.58a2.86,2.86,0,0,1-2.8-2.31c-3.11-16.08-4.68-38.09,5.54-51.64a2.85,2.85,0,1,1,4.55,3.43c-9.41,12.51-6.85,34.89-4.48,47.12a2.86,2.86,0,0,1-2.26,3.35A2.5,2.5,0,0,1,1990,529.58Z"/><path class="cls-11" d="M2004.27,471.44a2.86,2.86,0,0,1-2.23-4.64c13.85-17.32,42-20.89,59.53-13.37a2.86,2.86,0,0,1-2.25,5.25c-17.26-7.39-41.93-1.93-52.82,11.68A2.86,2.86,0,0,1,2004.27,471.44Z"/><path class="cls-11" d="M2098.55,526.72a3.17,3.17,0,0,1-.53-.05,2.87,2.87,0,0,1-2.28-3.34c6.53-34.34-1.13-55.65-21.58-60a2.85,2.85,0,1,1,1.19-5.58c24,5.1,33.21,28.78,26,66.66A2.86,2.86,0,0,1,2098.55,526.72Z"/><path class="cls-11" d="M1999.4,529.69a2.86,2.86,0,0,1-1.06-5.51c5-2,12.21-13.27,14.54-22.74a2.86,2.86,0,0,1,5.55,1.36c-2.23,9.07-9.71,23.38-18,26.68A2.82,2.82,0,0,1,1999.4,529.69Z"/><path class="cls-11" d="M2031.59,505.53a2.88,2.88,0,0,1-.91-.14c-7.15-2.39-11.55-7-13.45-14a2.86,2.86,0,1,1,5.52-1.48c1.4,5.19,4.4,8.3,9.74,10.08a2.85,2.85,0,0,1-.9,5.56Z"/><path class="cls-11" d="M2055.93,506.17h-.13c-8.12-.36-14.36-5-16.28-12.16a2.86,2.86,0,1,1,5.52-1.48c1.25,4.65,5.47,7.69,11,7.94a2.86,2.86,0,0,1-.12,5.71Z"/><path class="cls-11" d="M2075.2,510.09a3.12,3.12,0,0,1-.52,0c-9-1.67-12.85-7.07-15.65-12.67a2.86,2.86,0,1,1,5.11-2.55c2.54,5.08,5.36,8.45,11.57,9.6a2.85,2.85,0,0,1-.51,5.66Z"/><path class="cls-11" d="M2088.05,526.84a2.85,2.85,0,0,1-2.84-2.6A66.13,66.13,0,0,0,2082.1,510a2.86,2.86,0,0,1,5.45-1.72,70.83,70.83,0,0,1,3.35,15.48,2.86,2.86,0,0,1-2.58,3.1Z"/><path class="cls-11" d="M2022,566.24c-9.21,0-18.59-10.59-18.59-21a2.86,2.86,0,1,1,5.71,0c0,7.28,6.74,15.27,12.88,15.27s11-5.87,11-13.09a2.86,2.86,0,0,1,5.71,0C2038.77,557.81,2031.26,566.24,2022,566.24Z"/><path class="cls-11" d="M2066.81,564.86c-9.24,0-16.76-8.43-16.76-18.8a2.86,2.86,0,0,1,5.72,0c0,7.22,4.95,13.09,11,13.09,5.79,0,11.92-7.83,11.92-15.24a2.86,2.86,0,1,1,5.71,0C2084.44,554.68,2075.87,564.86,2066.81,564.86Z"/><path class="cls-11" d="M2036.11,554.33a2.86,2.86,0,0,1-1.6-5.23c.43-.28,10.45-6.87,20.14-.24a2.85,2.85,0,1,1-3.22,4.71c-6.54-4.47-13.66.22-13.73.27A2.83,2.83,0,0,1,2036.11,554.33Z"/><path class="cls-11" d="M2006.12,547.91a2.85,2.85,0,0,1-2.32-1.17l-6.7-9.23a2.86,2.86,0,0,1,4.63-3.35l6.7,9.22a2.86,2.86,0,0,1-.64,4A2.82,2.82,0,0,1,2006.12,547.91Z"/><path class="cls-11" d="M2081.43,545.77a2.86,2.86,0,0,1-1.78-5.1l8-6.32a2.86,2.86,0,0,1,3.56,4.48l-8,6.32A2.92,2.92,0,0,1,2081.43,545.77Z"/><path class="cls-11" d="M1138.44,263.52a2.87,2.87,0,0,1-2.22-1l-85.08-104.22a2.85,2.85,0,1,1,4.42-3.61l85.09,104.22a2.85,2.85,0,0,1-2.21,4.66Z"/><path class="cls-11" d="M1205.59,213.38a2.86,2.86,0,0,1-2.59-1.63L1138.63,75.69a2.86,2.86,0,0,1,5.16-2.45l64.37,136.07a2.84,2.84,0,0,1-2.57,4.07Z"/><path class="cls-11" d="M1082.59,319.31a2.9,2.9,0,0,1-1.74-.59l-94.23-72.43a2.86,2.86,0,1,1,3.48-4.53l94.23,72.43a2.86,2.86,0,0,1-1.74,5.12Z"/><path class="cls-11" d="M1282.83,192.54a2.87,2.87,0,0,1-2.76-2.13l-24.85-94.16a2.85,2.85,0,1,1,5.52-1.46L1285.59,189a2.84,2.84,0,0,1-2,3.49A2.62,2.62,0,0,1,1282.83,192.54Z"/></g></svg>