<svg id="Layer_1" data-name="Layer 1" xmlns="http://www.w3.org/2000/svg" viewBox="0 0 2742 1523"><defs><style>.cls-1{fill:#92e0b8;}.cls-1,.cls-2,.cls-3,.cls-4,.cls-5,.cls-6,.cls-7{fill-rule:evenodd;}.cls-2{fill:#946b52;}.cls-3{fill:#fff;}.cls-4{fill:#ffaa50;}.cls-5{fill:#ffe2c8;}.cls-6{fill:#e43c39;}</style></defs><g id="Ñëîé_3" data-name="Ñëîé 3"><path class="cls-1" d="M0,0H2742V1523H0Z"/></g><g id="Ñëîé_2" data-name="Ñëîé 2"><path class="cls-2" d="M1140.58,382.51c1.27-2.6,8.06-12.15,15.48-16.41,19.75-11.35,51.63-20.68,55.94-27.09,12.89-19.19,4.39-43.09,15-64.83,13.71-28,32.75-39.61,32.75-39.61s51.78-37.7,107.5-39.11,115.41,33.45,115.41,33.45,22.94,15.4,32.07,44.38c6.15,19.51,1,54.57,8.47,71.73,7,16,32.65,19.83,50.06,32.73,7.31,5.42,15.42,16.44,17.62,23.61,1.42,4.64,1,15.74-.72,23.78-3.73,17.15-12,34.44-10.57,44.37,2.15,14.94,36.67,33,38.29,45.6,3.74,29.08-15.57,37.38-23.18,50.29-6,10.22-.41,28.09-.41,28.09l-483.86,16s-3.48-15.8.92-26c4.21-9.83,16.35-13.8,14.71-27.41-1.69-14.06-14-22.83-20.24-36.11-4.8-10.19-4.67-25.38-1.7-33.47,4.7-12.77,37.08-21,41-35.75C1150.67,429.86,1130.47,403.29,1140.58,382.51Z"/><path class="cls-3" d="M1168.17,1162.76l357.4-22.45s40.48,56.47,64.08,124.92S1620,1414.1,1620,1414.1s-121.76,29.72-250.34,28.61c-123.69-1.08-221.37-32.78-221.37-32.78s-2.79-68.88,4.39-141.34C1158.4,1210.52,1168.17,1162.76,1168.17,1162.76Z"/><path class="cls-4" d="M1098.69,612.13,1183,598.64l62-6.39,20.93-5.47,17.26-27.42,10.6-25.58,10.52-9.91,149.77-11.16,9.74-2,17.84,30.08,1.48,9.59s22.88,10.19,58.92,24c26.06,10,61.56,18.32,88,42.89,37.08,34.48,63.82,89.16,82,126,12.71,25.7,22.84,41.31,22.84,41.31s11.34-5.52,20.92,7.34c5.1,6.83,8.16,26.73,12.16,38,2.23,6.27,22.46,21.84,22,28.84-1,16.42-44.74,62.09-53.91,68.38-11.11,7.63-59,44.25-78.89,36.72-14.56-5.49-23.28-26.42-34.09-38.73-9.85-11.23-22.29-13.61-25.74-24.27-3.16-9.74,4-24.7,4-24.7l-36.52-52s-15.11,44.35-29.49,91.86c-9.34,30.84-21.27,67.56-27.89,93.42-5.47,21.37-6.47,34-6.87,41.49-.84,15.75,8.39,28,14.08,41.11,9.16,21.13,15.64,41,5,55-25.27,33.17-107.16,46.27-107.16,46.27s-146.39,22.76-212.12-8.8c-40.15-19.28-42.42-50.73-47.76-85-7.34-47.1-8.63-99.76-14.47-135.72-6.07-37.33-14-77.44-20-103.79-7.69-33.81,6.24-62.34,6.24-62.34l-28.06-1.8s-5.59,9.34-14.77,9.62c-11.42.35-28.22-8.37-44.87-8.5-15.19-.13-30.2,8.15-42.14-2.32-14.6-12.79-20-81.9-19.86-95.27.22-17.75,8.47-85.13,31.14-99.39,12.47-7.84,20.53,3.17,34.76,5.26,12.26,1.81,31.1-9.66,41.78-8.47C1095.18,598.23,1098.69,612.13,1098.69,612.13Z"/><path class="cls-5" d="M807.82,588.35c15.73-46.41,60.89-143.34,98.84-210.47,26.1-46.15,51.22-75.52,51.22-75.52l72-55.8,47.54-43.88,9.55-1.92L1114.15,211s41.55,19.41,49.8,34.28c4.39,7.92-8.58,15.58-8.58,15.58l-8.24,9.62s19.45,1.41,31.27,7.52c10.31,5.34,14.21,15.1,2.23,19.67-9.85,3.76-36,2.61-56,6.23-20.55,3.72-39.32,19-58.8,24.64-19.1,5.55-35.74,3.86-47.52,8-5,1.78-10.5,7-12.7,10.42-8.16,12.6-18.33,32.78-26,49.41-36.83,80-61.34,208.43-61.34,208.43L956.57,610l37,5.06s-12.85,34.8-16.24,60.57.35,73,.35,73-39.15-6.63-83.05-18.53c-37.32-10.13-78.35-23.15-98.7-48.84C781.07,662.41,801.14,608.08,807.82,588.35Z"/><path class="cls-5" d="M1380.59,220.4c20.38-8,37.16,12.21,44.16,22.75,4.35,6.56,7.21,23.7,12.3,31.26,6,8.88,33.79,22.14,37.69,30.57,6.14,13.29,7.66,39.59,7.66,39.59s25.47,2.83,21.74,30.19c-3.47,25.51-27.7,36.21-27.7,36.21l-8.58,30-14.38,25.16a155.17,155.17,0,0,0-.74,23.82c.6,13.09,3.16,28.52,3.16,28.52s-3.31,6.55-30,24.83-76.63,48.29-76.63,48.29a260,260,0,0,1-13.57,40.24c-9.23,21.29-23.31,44.93-23.31,44.93s-3.53-9-3.89-30.29,2.44-54.81,2.44-54.81l-12.28-29.07,8.48-31-1.73-67.25s-9-24.3-23.92-36.29c-10.76-8.65-19-4.06-27.13-13.78-5.09-6.08-13.09-23.54-12.48-35.56,1.28-25.33,39.41-14.15,49.32-34.47,3.85-7.88,3.59-40.86,11.65-52.12,12.24-17.08,35-13.95,52.65-32.69C1364.71,249.65,1369.78,224.65,1380.59,220.4Z"/><path class="cls-5" d="M1737.69,924.91a236.38,236.38,0,0,0,42.53-42.27s49.68,55.77,43.5,86.11c-2.33,11.5-24.65,55.89-31.71,68.25-32,56.12-79.53,122-119.4,171.68-24.21,30.16-43.82,57.24-60.6,64.07-6.75,2.75-19.38,1.92-34-3.08-16.11-5.51-34.73-15.44-53.49-16.29-14.71-.66-27.24,7.95-39,12.78-9.39,3.85-18.16,4.24-22.14.72-8.3-7.34,7.83-17.91,24-28.1,9.84-6.19,21.13-14.52,21.13-14.52s-8.81-2-21.28,1.19c-17,4.36-40.43,14.31-53.8,14.78-6.45.23-7.35-5.94-8.32-7.44-4.43-6.88,65.67-36,65.67-36s-9.22-6.25-25.53-4.51c-15.47,1.66-37.75,11.36-48.57,9.67-5.84-.91-6.92-8.46-7.68-10.34-1.9-4.69,17.84-11.63,34.31-19.58a162.33,162.33,0,0,1,32.9-11.26S1466,1148.14,1455,1153c-9.88,4.36-26.44,9.12-37.87,9.14-7.59,0-12.46-3.36-13.29-5.62-2.48-6.79,15.4-16.22,34.9-24.59,13.39-5.74,28.78-12.93,34-10.65,12.87,5.67,41,35.26,64.22,55.24,21.9,18.82,39.36,28.26,39.36,28.26s31-35.53,60.41-92S1693.83,979,1693.83,979l-17.18-17.45S1711.8,944.64,1737.69,924.91Z"/><path class="cls-6" d="M1241.46,128.77c3.14-1.27,7.29,3,14.45,6.16,9.24,4.07,22.41,7.46,33.47,7.19,11.24-.28,23.68-.76,36.58-1.37,11.71-.55,30.8,14.13,30.8,14.13l13.66-3,14.45-.08s9.11-11.08,19.94-13.69c15.58-3.76,36.72-.18,56.1-6.83,16.48-5.66,32.56-20.06,34.82-17.49,2.83,3.22-9.85,34.81-27.39,48.37-24.31,18.79-56.5,20.43-56.5,20.43s22.08,5,40.91,19.16c17.38,13.09,34.77,32.87,44.18,52.81,19.61,41.56-3,92.55-3,92.55s12.23-57.35-18-94.08c-17.15-20.89-52.51-38.85-75.94-47.23-17.79-6.37-26.81-5.63-26.81-5.63s-15.22,2.31-34.79,11.71c-22.51,10.82-50.66,30.11-66.38,50.77-29.37,38.62-16.3,92-16.3,92s-26.48-54.37-6-97.43c8.62-18.06,21.43-35.64,38.13-48.21,23.11-17.39,49.94-26.58,49.94-26.58s-30.74,8.69-60.66-6.6C1260.1,167.12,1230,133.38,1241.46,128.77Z"/><path class="cls-7" d="M1293,535.32s10.37-12.81,12-7.39-1.48,26.49-4.48,28.34S1293,535.32,1293,535.32Z"/><path d="M982.16,577.21a3.43,3.43,0,0,1-3.33-2.63l-12.09-50.19a3.43,3.43,0,1,1,6.66-1.61L985.49,573a3.43,3.43,0,0,1-2.53,4.14A3.73,3.73,0,0,1,982.16,577.21Z"/><path d="M1040.34,568h0a3.42,3.42,0,0,1-3.39-3.46l.64-60.93a3.46,3.46,0,0,1,3.47-3.39,3.43,3.43,0,0,1,3.39,3.46l-.65,60.93A3.43,3.43,0,0,1,1040.34,568Z"/><path d="M1093,570.64a3.49,3.49,0,0,1-1-.17,3.43,3.43,0,0,1-2.21-4.31l18.32-56.79a3.42,3.42,0,1,1,6.52,2.1l-18.32,56.79A3.43,3.43,0,0,1,1093,570.64Z"/><path d="M929.34,865.54a3.43,3.43,0,0,1-3.06-5l24.4-48.36a3.43,3.43,0,0,1,6.12,3.09l-24.4,48.35A3.42,3.42,0,0,1,929.34,865.54Z"/><path d="M999.09,900.77a4.16,4.16,0,0,1-.6,0,3.43,3.43,0,0,1-2.77-4l11.35-63.64a3.43,3.43,0,0,1,6.75,1.2L1002.46,898A3.43,3.43,0,0,1,999.09,900.77Z"/><path d="M1071.57,897.94a3.42,3.42,0,0,1-3.41-3.23l-3.45-60.32a3.43,3.43,0,0,1,6.84-.4l3.45,60.33a3.42,3.42,0,0,1-3.23,3.61Z"/><path class="cls-7" d="M1778.9,883.7l11.8,13.48s-7.12,15.44-35.14,31.38-76.94,32.38-76.94,32.38,31.69-15.26,56.77-34.57S1778.9,883.7,1778.9,883.7Z"/><path class="cls-7" d="M962.27,692.34c9.18-32.07,31-76.28,31-76.28s-11.86,31.45-15.67,64.67.42,68.19.42,68.19l-21.46-4.58S953.1,724.41,962.27,692.34Z"/><path d="M1577.05,1207.7a3.43,3.43,0,0,1-2.64-5.61c28.76-34.89,41.4-57.8,58.91-89.52l4.32-7.83c14.68-26.5,41.31-92.37,51.42-122.14,6.56-19.3,36.18-28.18,42-29.77a3.43,3.43,0,1,1,1.79,6.62c-14.6,3.94-33.13,12.94-37.35,25.35-10.19,30-37.06,96.45-51.91,123.26l-4.32,7.82c-17.68,32-30.46,55.19-59.63,90.57A3.4,3.4,0,0,1,1577.05,1207.7Z"/><path d="M1584.5,1215.26a3.4,3.4,0,0,1-2-.68c-4.58-3.4-9.48-6.57-14.22-9.63-5.48-3.55-11.14-7.21-16.51-11.34-9.31-7.17-34.22-30-52.41-46.66-7.86-7.19-14.5-13.29-18.17-16.54-10.09-8.94-18-5.23-25.66-1.65l-.83.38c-4.26,2-8.2,3.76-11.92,5.44-8.14,3.66-15.17,6.82-22.14,10.7l-1.63.88c-3,1.62-10.12,5.4-10.65,8.43,0,.26-.16.93,1,2.16,2.55,2.82,9.79,2.15,20.65.15a142.83,142.83,0,0,0,17-4.59c5.54-1.75,10.31-3.26,14.49-3.76,8.89-1,19.59,10.52,21.66,12.85a3.42,3.42,0,1,1-5.12,4.55c-4.17-4.67-11.84-11-15.73-10.6-3.53.43-8.24,1.92-13.23,3.49a146.86,146.86,0,0,1-17.79,4.8c-12.09,2.24-21.76,3.48-27-2.3a9.2,9.2,0,0,1-2.61-7.92c1.11-6.32,9-10.52,14.17-13.3l1.53-.83c7.22-4,14.38-7.24,22.66-11,3.69-1.66,7.61-3.42,11.84-5.39l.81-.38c7.82-3.67,19.65-9.2,33.11,2.73,3.69,3.27,10.37,9.39,18.26,16.62,18.1,16.58,42.88,39.29,52,46.28,5.14,4,10.69,7.55,16,11,4.83,3.13,9.83,6.36,14.59,9.89a3.43,3.43,0,0,1-2,6.18Z"/><path d="M1421.21,1205.13c-6.09,0-11.11-1.82-13.7-6.93a9.6,9.6,0,0,1-.62-7.71c2.29-6.43,11.34-10.44,20.92-14.7,3.86-1.71,7.85-3.48,11.08-5.3,13.77-7.8,21.44-10.69,29.3-11.08,14.38-.71,30.29,7.09,43.1,13.34,2.68,1.31,5.26,2.57,7.68,3.69a3.42,3.42,0,0,1-2.86,6.22c-2.47-1.14-5.1-2.42-7.83-3.75-12.1-5.91-27.16-13.22-39.76-12.65-6.66.32-13.53,3-26.26,10.19-3.52,2-7.66,3.83-11.66,5.61-7.11,3.15-15.95,7.07-17.25,10.73a2.72,2.72,0,0,0,.28,2.32c3.64,7.19,23.57.29,34.27-3.41l2.38-.82c15.69-5.37,33-4.45,45.08,2.4a3.42,3.42,0,1,1-3.37,6c-10.48-5.91-25.61-6.63-39.49-1.88l-2.36.82C1441.08,1201.31,1430,1205.13,1421.21,1205.13Z"/><path d="M1435.45,1243.92c-4.75,0-8.92-1.31-11.4-5a10,10,0,0,1-1.6-8.4c2-7.22,11.91-12.08,22.45-17.22,4-2,7.41-3.75,10.58-5.43,7-3.68,13-6.86,21-9.39a115.92,115.92,0,0,1,52.77-3.79,3.43,3.43,0,0,1-1.17,6.76,108.9,108.9,0,0,0-49.55,3.57c-7.43,2.34-12.94,5.24-19.9,8.91-3.23,1.71-6.72,3.55-10.78,5.53-7.47,3.64-17.69,8.64-18.84,12.85a3.2,3.2,0,0,0,.69,2.8c3.49,5.25,20.61-1.18,26.24-3.29l2.32-.86c3.15-1.13,6-2.21,8.67-3.25,7.71-3,14.36-5.51,24-7.41s25.48.28,26.15.38a3.43,3.43,0,1,1-1,6.79c-.15,0-15.38-2.11-23.88-.45-9.08,1.79-15.47,4.25-22.88,7.09-2.74,1.05-5.61,2.16-8.81,3.31l-2.24.82C1452.37,1240.46,1443.15,1243.92,1435.45,1243.92Z"/><path d="M1598.82,1278.14c-10.92,0-21.88-4-32.45-8.85l-1.73-.79c-14.83-6.8-26.54-12.37-42.33-12-8.68.12-16.21,3.77-24.19,7.63-5.66,2.74-11.5,5.57-17.9,7.14-2.25.55-13.74,3-19.61-3.52a9.17,9.17,0,0,1-2.46-7.63c1.11-7.74,12-14.44,17.88-18l1.73-1.08,3.53-2.3c8.87-5.8,19.92-13,29.79-16.83,11.86-4.57,26.32,0,38.94,4.68a3.43,3.43,0,0,1-2.37,6.43c-11.46-4.23-24.48-8.43-34.1-4.72-9.19,3.55-19.91,10.55-28.51,16.18l-3.56,2.32c-.48.31-1.12.7-1.86,1.15-3.84,2.36-14,8.62-14.69,13.17a2.35,2.35,0,0,0,.77,2.06c2.24,2.49,8.18,2.62,12.88,1.47,5.7-1.41,11-4,16.55-6.66,8.3-4,16.89-8.18,27.08-8.32,17.33-.19,30.29,5.7,45.29,12.58l1.72.79c15.38,7,33.16,13.54,49.55,1.64s92.8-109.91,134-171.9c36.12-54.33,71.08-109.54,67.44-135.43-2.67-19.06-27-53.79-42.73-72.48a3.43,3.43,0,0,1,5.25-4.41c14,16.6,41.17,53.84,44.27,75.94,3.6,25.62-22.4,70.8-68.53,140.17-39,58.67-117.17,160.2-135.69,173.65A39.7,39.7,0,0,1,1598.82,1278.14Z"/><path d="M1692.21,982.45a3.43,3.43,0,0,1-2.84-1.52c-4.07-6-14.32-18-14.42-18.12a3.43,3.43,0,0,1,5.21-4.47c.43.51,10.61,12.4,14.89,18.76a3.43,3.43,0,0,1-.93,4.76A3.36,3.36,0,0,1,1692.21,982.45Z"/><path d="M1513.41,1158.36a3.37,3.37,0,0,1-2-.63,3.42,3.42,0,0,1-.81-4.78c1.26-1.76,2.65-3.49,4.05-5.22,5.4-6.68,10.07-12.44,8.25-21.71-1.92-9.73-6.92-21.45-11.75-32.79-7.21-16.89-14.65-34.34-13.18-47.75,5.19-47.64,22.65-97.91,38-142.27,10.55-30.39,19.67-56.63,23.32-77.29a3.43,3.43,0,1,1,6.75,1.19c-3.75,21.2-12.94,47.69-23.59,78.35-15.29,44-32.61,93.9-37.72,140.76-1.27,11.63,5.82,28.25,12.67,44.32,5,11.66,10.12,23.72,12.17,34.16,2.44,12.41-4,20.34-9.64,27.34-1.31,1.62-2.62,3.23-3.79,4.88A3.43,3.43,0,0,1,1513.41,1158.36Z"/><path d="M1556.88,1196.18a3.43,3.43,0,0,1-3.08-1.92c-10.15-20.71-20-36.84-30.12-52.89a3.43,3.43,0,0,1,5.8-3.65c10.18,16.22,20.17,32.51,30.47,53.52a3.42,3.42,0,0,1-3.07,4.94Z"/><path d="M1619.89,1418.32a3.42,3.42,0,0,1-3.4-3.06c-6-56.39-17.62-102.3-28.2-139.78a3.43,3.43,0,1,1,6.6-1.86c10.65,37.75,22.36,84,28.41,140.91a3.43,3.43,0,0,1-3,3.77Z"/><path d="M1147.86,1413.75a3.43,3.43,0,0,1-3.42-3.22c-7.22-120.31,20-250,20.32-251.33a3.43,3.43,0,1,1,6.71,1.43c-.28,1.28-27.35,130.13-20.18,249.49a3.44,3.44,0,0,1-3.22,3.63Z"/><path d="M1313.23,1204.89c-74.91,0-129.37-17-145.55-39.79-15.65-22.08-21.6-84.38-27.35-144.63-1.71-17.92-3.33-34.84-5.16-50.06A662.47,662.47,0,0,0,1123,899.7c-2.3-10.62-4.68-21.6-7.21-35.49-7.56-41.44,5.74-71.11,17.48-97.28,12.71-28.35,17.85-51.09,19.67-86.91a3.48,3.48,0,0,1,3.6-3.25,3.44,3.44,0,0,1,3.25,3.6c-1.87,36.77-7.17,60.15-20.27,89.37-11.88,26.49-24.17,53.89-17,93.24,2.51,13.78,4.88,24.7,7.17,35.27A669.89,669.89,0,0,1,1142,969.6c1.83,15.3,3.45,32.26,5.17,50.22,5.4,56.59,11.53,120.73,26.12,141.32,17.45,24.61,104.13,50.72,234.78,28.58a3.47,3.47,0,0,1,4,2.81,3.43,3.43,0,0,1-2.81,4A578.32,578.32,0,0,1,1313.23,1204.89Z"/><path d="M1455.2,520.19a3.42,3.42,0,0,1-3.33-2.62c-3.35-13.9-3.83-30-1.57-52.23a3.43,3.43,0,1,1,6.82.69c-2.19,21.42-1.75,36.82,1.41,49.93a3.44,3.44,0,0,1-2.53,4.14A3.7,3.7,0,0,1,1455.2,520.19Z"/><path d="M1740.66,802.27a3.44,3.44,0,0,1-3-1.77c-7.5-13.63-15.16-28.59-23.27-44.44-28.73-56.1-61.28-119.7-99.53-147-14.92-10.65-44.29-21.32-72.69-31.63-22.18-8-45.12-16.38-61.38-24.78a3.43,3.43,0,0,1,3.15-6.09c15.86,8.2,38.59,16.45,60.57,24.43,28.83,10.47,58.65,21.3,74.33,32.49,39.61,28.28,72.57,92.66,101.65,149.46,8.08,15.8,15.72,30.71,23.18,44.25a3.44,3.44,0,0,1-1.35,4.66A3.4,3.4,0,0,1,1740.66,802.27Z"/><path d="M1613.07,892.42a3.4,3.4,0,0,1-2.32-.91c-13-12-24.43-28.73-36.52-46.43-9-13.17-18.28-26.79-29.12-39.91a3.43,3.43,0,0,1,5.29-4.36c11,13.36,20.42,27.11,29.49,40.4,11.86,17.37,23.06,33.78,35.51,45.27a3.43,3.43,0,0,1-2.33,5.94Z"/><path d="M1529.75,773.1l-.33,0a3.43,3.43,0,0,1-3.09-3.73c5.28-55.37,21.74-103.05,47.59-137.88a3.43,3.43,0,0,1,5.51,4.09c-25.12,33.82-41.12,80.31-46.28,134.44A3.41,3.41,0,0,1,1529.75,773.1Z"/><path d="M1609.13,894.46a3.43,3.43,0,0,1-.15-6.86c29.12-1.32,102.69-26.48,131.59-92.57a3.43,3.43,0,0,1,6.28,2.75C1716.37,867.47,1641,893,1609.29,894.45Z"/><path d="M1661.25,966.67a24.43,24.43,0,0,1-6.26-.74c-10.29-2.76-16-12.12-22-22-4.54-7.47-9.24-15.2-16.38-21.55-3.22-2.86-6.23-5.23-8.9-7.32-12.75-10-18.51-15.77-10.24-37.38a3.43,3.43,0,1,1,6.4,2.45c-6.83,17.85-3.07,20.79,8.08,29.54,2.74,2.15,5.84,4.59,9.22,7.59,7.9,7,13.09,15.57,17.68,23.11,5.52,9.08,10.29,16.93,17.92,19,13.63,3.61,48.76-12.12,75.16-33.74,27.55-22.56,54.07-55.27,54.56-67.31.27-6.41-2.91-8.8-8.16-12.77s-11.6-8.75-15.63-19.07a100.55,100.55,0,0,1-4.3-15.6c-3.25-14.92-5.42-24.75-24.61-22.49a3.42,3.42,0,1,1-.81-6.8c25.41-3,29,13.37,32.12,27.83a95.43,95.43,0,0,0,4,14.57c3.32,8.51,8.44,12.36,13.37,16.09,5.56,4.19,11.3,8.52,10.89,18.53-.71,17-34.19,53.58-57.07,72.32C1713.76,949.3,1680.77,966.67,1661.25,966.67Z"/><path d="M1081.13,796.76a3.42,3.42,0,0,1-3-1.75c-14.55-25.82-24-118.15,4.79-185.47a3.43,3.43,0,0,1,6.3,2.7c-28,65.42-19.1,154.6-5.12,179.41a3.42,3.42,0,0,1-3,5.11Z"/><path d="M1079.81,809.21c-5.16,0-10.46-1.77-16.12-3.65a107.52,107.52,0,0,0-16.65-4.51c-9.49-1.58-18-.12-25.43,1.16-10.07,1.73-19.58,3.36-28.2-3.16-16.07-12.15-21.85-64.19-21.71-94.13.17-35.88,12.46-89,28-103.67,10.25-9.65,19.34-6.27,28.13-3,6.1,2.27,12.41,4.62,20.37,3.73,5.64-.63,11.1-2.52,16.38-4.34,12.92-4.47,27.57-9.54,37.17,12.06a3.43,3.43,0,1,1-6.26,2.79c-7-15.86-15.19-13-28.67-8.38-5.37,1.86-11.47,4-17.86,4.68-9.58,1.07-17-1.69-23.51-4.11-8.37-3.11-13.9-5.17-21,1.57-14.15,13.33-25.74,64.9-25.9,98.71-.16,35.74,7.43,79.89,19,88.63,6.24,4.73,13.59,3.47,22.9,1.87,8-1.37,17.09-2.93,27.72-1.15a113.37,113.37,0,0,1,17.69,4.75c12.52,4.18,18.82,6.27,27.24-5.1a3.43,3.43,0,1,1,5.51,4.07C1092.32,806.51,1086.18,809.21,1079.81,809.21Z"/><path d="M1299.54,567.21a3.38,3.38,0,0,1-1.72-.47,3.42,3.42,0,0,1-1.23-4.69,24,24,0,0,0,2.89-7.52c5.73-29,4.41-59.53,2.41-90.92a3.42,3.42,0,1,1,6.83-.44c2,31.86,3.37,62.92-2.51,92.69a31,31,0,0,1-3.71,9.66A3.43,3.43,0,0,1,1299.54,567.21Z"/><path d="M1086.24,617.45a3.42,3.42,0,0,1-.17-6.84c13.66-.72,31.65-3.81,52.48-7.39,16.89-2.9,36-6.2,54.85-8.45,11.88-1.42,21.19-2.3,29.4-3.07,19.38-1.82,30-2.83,44.59-8.62a3.42,3.42,0,1,1,2.54,6.36c-15.46,6.16-26.48,7.2-46.48,9.08-8.18.77-17.44,1.64-29.24,3.06-18.64,2.23-37.69,5.5-54.5,8.39-21,3.62-39.21,6.75-53.29,7.48Z"/><path d="M1123,800.17h-.28c-.77-.06-18.77-1.53-23.74-2.12l-2.4-.27c-5.63-.63-11.45-1.28-16.62-3.68a3.42,3.42,0,1,1,2.88-6.21c4.16,1.92,9.18,2.48,14.5,3.08l2.44.28c4.85.57,23.31,2.07,23.49,2.09a3.43,3.43,0,0,1-.27,6.84Z"/><path d="M1033.61,299a3.43,3.43,0,0,1-.75-6.77c12.92-2.92,24.61-11.37,32.35-17,5.41-3.91,8.12-5.81,10.53-6.09,5.28-.64,10.23,2.63,14.6,5.5a47,47,0,0,0,4.43,2.69,3.43,3.43,0,1,1-3,6.15,51.6,51.6,0,0,1-5.16-3.11c-3.39-2.23-7.21-4.79-10-4.42-1,.25-4.49,2.79-7.32,4.84-8.19,5.92-20.56,14.87-34.85,18.09A3.35,3.35,0,0,1,1033.61,299Z"/><path d="M1085.1,288.37a3.44,3.44,0,0,1-3.38-2.85c-.5-2.93-.92-8.28-.94-8.5a3.43,3.43,0,1,1,6.83-.54s.42,5.25.87,7.88a3.43,3.43,0,0,1-2.8,4A3.79,3.79,0,0,1,1085.1,288.37Z"/><path d="M1084.37,303.88a9,9,0,0,1-1.5-.11c-6.49-1.06-13.55-7.45-17.17-13.21-2.82-4.48-3.77-8.7-2.73-12.22a3.42,3.42,0,1,1,6.57,1.93c-.44,1.51.29,4,2,6.64,3.06,4.87,8.77,9.49,12.47,10.1,3.08.49,13.48-3.91,22.22-10.37,6.12-4.51,7.71-7.34,7.81-8.06-.22-5.15-25-26.58-36.23-34.1-6.38-4.29-7.79-4.1-16.89-2.9l-.38,0a3.42,3.42,0,0,1-.9-6.79l.38-.05c9.52-1.26,13.08-1.73,21.61,4,.41.28,40.79,29.15,39.2,40.72-.49,3.6-4,7.86-10.53,12.65S1091.63,303.88,1084.37,303.88Z"/><path d="M977,751.88a4.46,4.46,0,0,1-.63,0c-123.22-23-186.8-50.8-189-82.62C783,605.3,866.61,442.13,899.2,384.65c26.72-47.14,50.42-77.58,54.75-82,15.14-15.46,61.07-48.68,82.29-63,5.83-3.94,11.12-8,16.25-12,14.69-11.39,27.37-21.21,37.88-12.72,11.56,9.33,44,44.68,47.73,55.61,1,2.92.82,7.74-5.54,14.15-8.39,8.46-24.6,16.68-32.16,14.22a3.42,3.42,0,0,1,2.13-6.51c3.6,1.19,17.15-4.45,25.17-12.53,3.47-3.51,4.29-6,3.9-7.14-3-8.8-34.14-43.26-45.54-52.47-6-4.85-14.63,1.38-29.38,12.8-5,3.85-10.59,8.21-16.6,12.28-24.64,16.65-67.75,48.36-81.23,62.13-4.19,4.27-27.3,34-53.69,80.58C872.85,445,790,606.52,794.22,668.74c1.88,27.51,67,54.62,183.4,76.35a3.42,3.42,0,0,1-.63,6.79Z"/><path d="M1135,280.07a3.43,3.43,0,0,1-1.59-6.46l.44-.23c4.88-2.56,14-7.33,15.62-13.42.59-2.21.11-4.51-1.46-7-8.28-13.14-55.8-47.91-61.42-49.07-4.48-.38-10.3,4.52-13.4,7.12l-1.25,1c-4.41,3.58-10,9.23-16.53,15.78-7.64,7.68-16.29,16.4-25,23.68a3.42,3.42,0,0,1-4.39-5.25c8.48-7.09,17-15.68,24.54-23.26,6.65-6.69,12.39-12.47,17.09-16.27l1.16-1c4.12-3.44,11-9.22,18.41-8.68,8.9.63,58.7,39.69,66.6,52.24,2.62,4.15,3.39,8.34,2.28,12.46-2.42,9-13.24,14.65-19,17.7l-.44.23A3.49,3.49,0,0,1,1135,280.07Z"/><path d="M1152.39,266a3.43,3.43,0,0,1-2-6.2l1.78-1.28c3.77-2.68,7.68-5.45,8-8.46.21-1.88-.93-4.22-3.39-7-10.07-11.23-54.38-34-59.71-34.05a3.48,3.48,0,0,1-3.49-3.35,3.37,3.37,0,0,1,3.19-3.5c9.2-.44,55.31,25.39,65.11,36.33,3.87,4.31,5.54,8.33,5.1,12.29-.67,6-6.08,9.9-10.84,13.29l-1.73,1.23A3.34,3.34,0,0,1,1152.39,266Z"/><path d="M919,606.77a3.51,3.51,0,0,1-.72-.07,3.44,3.44,0,0,1-2.64-4.07l1.29-6c6.94-32.71,19.85-93.58,39.36-149.79,22.21-64,47.26-111,60.91-114.36,8.68-2.11,16.47-2.68,24-3.24,9.16-.68,17.81-1.32,27.63-4.6,8.68-2.9,17.12-7.31,25.28-11.58,8.59-4.5,17.48-9.15,26.92-12.22,10-3.24,22.8-3.81,34.13-4.32,11.68-.53,24.93-1.12,27.82-5,.37-.49.81-1.37.34-3.28-2.35-9.5-26-14.07-37.86-13.8a3.51,3.51,0,0,1-3.5-3.36,3.42,3.42,0,0,1,3.36-3.49c8.4-.14,40.6,2.58,44.65,19a10.29,10.29,0,0,1-1.5,9c-4.84,6.47-17.27,7-33,7.74-10.9.48-23.25,1-32.32,4-8.89,2.89-17.52,7.41-25.87,11.77s-17.08,8.94-26.28,12c-10.63,3.55-20.12,4.25-29.3,4.93-7.25.54-14.75,1.09-22.88,3.07-6.13,1.49-28.75,31.24-56.06,110-19.36,55.8-32.22,116.4-39.13,149l-1.28,6A3.44,3.44,0,0,1,919,606.77Z"/><path d="M992.86,617.33h-.18c-27.39-1.44-43.25-3-65.32-6.61-1.9-.31-3.7-.62-5.45-.92C909.18,607.59,900,606,880.6,612a3.43,3.43,0,1,1-2-6.55c20.95-6.44,31.34-4.64,44.49-2.35l5.38.91c21.78,3.52,37.47,5.1,64.57,6.52a3.43,3.43,0,0,1-.17,6.85Z"/><path class="cls-3" d="M1342.55,407.48a236.93,236.93,0,0,0,43.37,2.13,168,168,0,0,0,41.5-7.14s-4.72,44.94-37.32,47C1353.36,451.87,1342.55,407.48,1342.55,407.48Z"/><path d="M1387.3,453c-36.75,0-48-44.28-48.08-44.74a3.44,3.44,0,0,1,.81-3.14,3.52,3.52,0,0,1,3.07-1.06,233.69,233.69,0,0,0,42.66,2.09,166.11,166.11,0,0,0,40.57-7,3.48,3.48,0,0,1,3.24.58,3.43,3.43,0,0,1,1.26,3c-.2,1.95-5.43,47.84-40.51,50.1C1389.29,453,1388.28,453,1387.3,453Zm-39.9-41.44c3.88,11,15.77,36.2,42.48,34.5,23-1.48,30.9-27.47,33.25-38.78a178.61,178.61,0,0,1-37.06,5.72A244.34,244.34,0,0,1,1347.4,411.59Z"/><path d="M1389.31,513.45a61.74,61.74,0,0,1-19.32-3.27c-19.81-6.49-48-24.32-61.54-38.94-13.2-14.22-22.78-38.19-23.18-39.21a3.43,3.43,0,0,1,6.37-2.52c.09.23,9.52,23.8,21.83,37.08,12.67,13.66,40.08,31,58.65,37.08,17.08,5.6,31.93,3.28,46.7-7.3,19.77-14.17,38.77-38.7,47.26-61,3.78-10,9.92-53.23,10-53.67a3.43,3.43,0,0,1,6.79,1c-.25,1.81-6.31,44.48-10.36,55.15-8.94,23.49-28.9,49.28-49.68,64.17C1412.08,509.63,1401,513.45,1389.31,513.45Z"/><path d="M1384,390.32a3.43,3.43,0,0,1-2.2-6.06c2.85-2.39,10.81-10.43,9.94-15.85-.21-1.32-2.28-3.61-4.27-5.82-7.1-7.88-19-21-4-46.28a3.43,3.43,0,0,1,5.89,3.5c-12.42,20.89-3.78,30.48,3.16,38.19,2.9,3.22,5.41,6,5.94,9.32,1.64,10.24-10.87,21-12.31,22.21A3.43,3.43,0,0,1,1384,390.32Z"/><path d="M1403.33,290.19a3.43,3.43,0,0,1-1.9-6.28c21-14,40.18-7.13,49.73-1.79a3.42,3.42,0,0,1-3.34,6c-8.19-4.57-24.6-10.45-42.6,1.52A3.45,3.45,0,0,1,1403.33,290.19Z"/><path class="cls-7" d="M1306.26,465.19a240.2,240.2,0,0,0,39,30.6c22.87,14.12,44.65,13.5,58.06,10.34,3-.71,11.94-3.44,21.83-11.54,13.39-11,28.1-28,28.1-28s-35.21,66.09-83.79,73.6c-30.31,4.69-61.37-33.82-61.37-33.82Z"/><path d="M1477.07,413.79a3.43,3.43,0,0,1-.29-6.84c10-.86,22.11-16.41,23.11-29.71,1.64-22-5.74-27.14-17.31-28a3.42,3.42,0,1,1,.51-6.83c23.41,1.75,24.7,21,23.63,35.35-1.14,15.18-14.91,34.79-29.36,36Z"/><path class="cls-7" d="M1345.07,337.63c-.13-8.38-5.09-15.1-11.07-15s-10.73,7-10.59,15.36,5.09,15.1,11.08,15S1345.21,346,1345.07,337.63Z"/><path d="M1311.34,301.46a3.43,3.43,0,0,1-2.26-6c7-6.12,26-19.15,51.08-8a3.42,3.42,0,1,1-2.78,6.26c-20.73-9.24-36.33.34-43.79,6.87A3.4,3.4,0,0,1,1311.34,301.46Z"/><path d="M1277.44,427.85c-16.34,0-33.46-17-36.89-31.39-2.82-11.84-2-21.24,2.42-27.92,3.8-5.73,10.13-9.36,18.83-10.82a3.43,3.43,0,1,1,1.13,6.76c-6.75,1.13-11.54,3.77-14.24,7.84-3.34,5-3.84,12.63-1.47,22.55,3.09,13,18.76,26.43,30.6,26.12a3.43,3.43,0,0,1,.16,6.86Z"/><path d="M1269.37,398.33a3.43,3.43,0,0,1-2.93-1.63,20.19,20.19,0,0,0-7.5-7.43,3.43,3.43,0,0,1,2.87-6.22,26.7,26.7,0,0,1,10.47,10.06,3.43,3.43,0,0,1-2.91,5.22Z"/><path d="M1254.88,364.18a3.43,3.43,0,0,1-3.32-2.6c-.38-1.52-9.31-37.45-11.28-48.49-4.31-24.2.61-60.53,27.34-89.94a147.17,147.17,0,0,1,108.68-47.49h.15c17.1,0,67.87,6.87,97,38,11.78,12.61,24,34.75,30.06,50.1,10.57,27-4,82.73-4.63,85.09a3.43,3.43,0,0,1-6.63-1.76c.15-.55,14.64-55.94,4.88-80.82-5.64-14.39-17.61-36.08-28.69-47.94-27.41-29.33-75.67-35.79-92-35.8h-.14a140.29,140.29,0,0,0-103.61,45.24c-25.06,27.57-29.69,61.53-25.66,84.13,1.92,10.81,11.09,47.67,11.18,48a3.42,3.42,0,0,1-2.5,4.15A3.31,3.31,0,0,1,1254.88,364.18Z"/><path d="M1492.15,348.76h-.25a3.41,3.41,0,0,1-3.17-3.66c0-.65,4.44-65.85-13.36-86.53-24.51-28.48-79.33-57.28-104.73-55.13a3.43,3.43,0,0,1-.59-6.83c30.06-2.62,86.84,30,110.52,57.49,19.62,22.81,15.19,88.69,15,91.49A3.42,3.42,0,0,1,1492.15,348.76Z"/><path d="M1259.83,363.38a3.42,3.42,0,0,1-3.32-2.63c-3.76-15.67-8.15-63.89,3.82-84.74,11.77-20.52,59.08-87.4,173.62-87.4a3.55,3.55,0,0,1,3.71,3.43,3.42,3.42,0,0,1-3.43,3.42H1434c-110.88,0-156.37,64.25-167.68,84-10.85,18.92-6.56,65.3-3.1,79.73a3.44,3.44,0,0,1-2.53,4.14A3.72,3.72,0,0,1,1259.83,363.38Z"/><path d="M1339.44,183.64a3.43,3.43,0,0,1-3.24-4.54c9.77-28.31,28.08-31.2,40.88-30.92,13.92.31,31,16.13,33.76,31.35a3.42,3.42,0,1,1-6.73,1.25c-2.17-11.8-16.65-25.51-27.18-25.75-12.38-.29-26.09,2.64-34.26,26.3A3.41,3.41,0,0,1,1339.44,183.64Z"/><path d="M1386.19,181.45a3.43,3.43,0,0,1-3.24-2.32c-2.2-6.43-13.9-23.22-17.68-22.92a3.4,3.4,0,0,1-4.48-1.77,3.46,3.46,0,0,1,1.79-4.53,7.55,7.55,0,0,1,6.19.23c8.61,3.78,19.14,22.32,20.67,26.77a3.44,3.44,0,0,1-2.14,4.36A3.53,3.53,0,0,1,1386.19,181.45Z"/><path d="M1420.06,184.08a88,88,0,0,1-12.36-.9A3.58,3.58,0,0,1,1405,179a3.26,3.26,0,0,1,4-2.53c21,3,39.6-2.25,55.06-15.53,16.16-13.9,24.52-33.08,27.31-42.11l-1,.66c-6.78,4.4-18.12,11.75-34.74,16.5-8.88,2.53-18.24,2.75-27.29,3-16.62.39-31,.71-39.09,14.58a3.42,3.42,0,1,1-5.91-3.46c10-17.17,27.74-17.58,44.84-18,8.62-.19,17.53-.4,25.57-2.69,15.63-4.47,26.43-11.47,32.89-15.66,5.05-3.27,7.36-4.77,9.93-3.82a4.2,4.2,0,0,1,2.57,2.79c1.29,4.24-6.45,26.79-21.19,44C1466.78,169.68,1448.09,184.08,1420.06,184.08Zm72.4-70Z"/><path d="M1313.1,188.77c-21.28,0-37.58-9.16-48.55-18.32-18.84-15.73-29.34-37.49-28.75-41.49a4.22,4.22,0,0,1,2.13-3.13c2.41-1.32,4.91-.18,10.39,2.31,7,3.19,18.72,8.53,34.84,10.64,8.22,1.08,16.68.3,24.86-.45,18-1.65,36.56-3.36,51.14,15.39a3.43,3.43,0,1,1-5.41,4.21c-12.28-15.79-27.49-14.39-45.11-12.77-8.55.78-17.38,1.59-26.37.42-17.14-2.25-29.44-7.86-36.79-11.2l-1.12-.51c4.17,8.71,15.66,27,34.38,38.34,17.85,10.79,37.73,12.62,59.08,5.43a3.43,3.43,0,0,1,2.19,6.5A84.17,84.17,0,0,1,1313.1,188.77Z"/><path d="M1274.37,358.56a3.43,3.43,0,0,1-.58-6.81c15.61-2.69,17.5-13.84,19.31-31.81.78-7.87,1.6-16,4.34-23.58,5.52-15.28,17.83-20,30.86-25,7.79-3,15.85-6.09,22.93-11.69,6.23-4.93,9.29-12.89,12.24-20.58,5.39-14,11.5-29.9,38.24-20.4a3.43,3.43,0,1,1-2.29,6.46c-20.45-7.26-24.07,2.15-29.55,16.4-3.13,8.15-6.69,17.4-14.39,23.49-7.9,6.26-16.45,9.54-24.72,12.71-12,4.62-22.42,8.61-26.88,20.95-2.44,6.76-3.22,14.47-4,21.93-1.68,16.79-3.42,34.16-25,37.88A3.92,3.92,0,0,1,1274.37,358.56Z"/><path d="M1479.75,335.83h-.18a3.44,3.44,0,0,1-3.25-3.6c0-.11.54-11.89-3.24-20.48-4.31-9.82-9.51-13.19-17.37-18.3a137.31,137.31,0,0,1-17.36-12.85c-9.09-8-11-16.74-12.63-24.46-1.88-8.72-3.24-15-13.79-19.47a3.43,3.43,0,0,1,2.67-6.32c13.83,5.84,15.86,15.25,17.81,24.35,1.58,7.33,3.08,14.25,10.46,20.76a130.54,130.54,0,0,0,16.57,12.24c8.26,5.36,14.78,9.6,19.92,21.29,4.44,10.1,3.83,23,3.8,23.59A3.42,3.42,0,0,1,1479.75,335.83Z"/><path d="M1256.86,320.52a3.42,3.42,0,0,1-.81-6.75c10.23-2.5,13.54-11,17.73-21.82,3-7.73,6.39-16.49,13.06-23.91,6.93-7.74,15.12-10.5,23-13.18,10.65-3.59,20.71-7,28.4-22.5a3.43,3.43,0,0,1,6.14,3c-9,18.05-21.38,22.24-32.35,26-7.4,2.5-14.4,4.86-20.13,11.25s-8.85,14.29-11.77,21.81c-4.32,11.15-8.79,22.67-22.5,26A3.79,3.79,0,0,1,1256.86,320.52Z"/><path d="M1111.39,613.53a3.44,3.44,0,0,1-3.26-2.37c-7.16-22,2.23-34.38,9.08-43.4,3.6-4.73,6.44-8.47,5.88-12-1.3-8.24-6.06-14.35-11.11-20.82-7.15-9.17-15.26-19.57-13.81-37.34,1.63-20,16.4-27.79,28.27-34.08,6-3.15,11.58-6.13,13.53-9.84,5.23-9.91,2-19.51-1.45-29.67-1.18-3.47-2.39-7.07-3.29-10.73-2.62-10.72-.93-23.51,4.53-34.21,8.33-16.31,24.39-22,39.92-27.42,12.26-4.32,23.83-8.39,31.6-17.32,4.47-5.14,4.73-12.33,5-19.95.11-2.89.22-5.89.59-8.71l.39-3.07c2.35-18.79,5.57-44.52,45.34-74.15a3.42,3.42,0,0,1,4.09,5.49c-37.42,27.89-40.31,51-42.63,69.51l-.4,3.11c-.33,2.5-.42,5.2-.53,8.07-.29,8.07-.61,17.23-6.68,24.2-9,10.3-21.94,14.86-34.5,19.28-14.91,5.25-29,10.21-36.08,24.08-4.67,9.13-6.19,20.42-4,29.46.83,3.38,2,6.83,3.13,10.16,3.75,11.09,7.63,22.56,1,35.07-2.94,5.57-9.47,9-16.38,12.7-11.47,6.07-23.33,12.35-24.65,28.58-1.23,15.1,5.38,23.58,12.38,32.56,5.36,6.88,10.91,14,12.48,24,1,6.46-3,11.7-7.19,17.26-6.6,8.68-14.08,18.52-8,37.13a3.43,3.43,0,0,1-2.2,4.32A3.56,3.56,0,0,1,1111.39,613.53Z"/><path d="M1184.91,600.92a3.41,3.41,0,0,1-2.86-1.54c-14.73-22.39-3-33.12,7.33-42.57,5.39-4.93,10.48-9.58,12.54-15.83,3.24-9.85-3.46-17.24-10.56-25.06-5.63-6.19-11.44-12.6-11.92-20.47-.88-14.12,10.4-22.52,21.32-30.64,13.39-10,27.24-20.27,24.88-42a3.43,3.43,0,1,1,6.81-.74c2.79,25.64-14.06,38.17-27.6,48.25-10.31,7.67-19.22,14.3-18.57,24.72.33,5.47,5.1,10.72,10.15,16.28,7.73,8.52,16.49,18.17,12,31.81-2.61,8-8.61,13.44-14.41,18.74-10.31,9.43-17.76,16.24-6.24,33.75a3.42,3.42,0,0,1-2.86,5.31Z"/><path d="M1597.7,597.44a3.42,3.42,0,0,1-3.07-1.89c-12.6-25-2.11-36.61,7.13-46.81,6.35-7,12.34-13.6,12.58-24.62.36-17.15-11.32-25.28-21.62-32.46-6.49-4.52-12.62-8.79-15-14.86-5.24-13.59-.22-25.06,4.64-36.16,1.47-3.36,3-6.84,4.16-10.28,3.16-9.24,2.8-21.23-.91-31.28-5.63-15.22-19.13-21.84-33.43-28.85-12-5.89-24.48-12-32.32-23.63-5.27-7.81-4.65-17.32-4.11-25.71.19-3,.38-5.83.31-8.48l-.08-3.52c-.34-19.56-.93-52.3-42.31-84.71a3.42,3.42,0,1,1,4.22-5.39c44,34.41,44.58,69.19,45,90l.07,3.47c.08,3-.12,6.08-.32,9.1-.5,7.65-1,15.57,2.95,21.44,6.82,10.12,17.91,15.56,29.65,21.31,14.88,7.29,30.27,14.83,36.84,32.62,4.31,11.64,4.67,25.05,1,35.87-1.27,3.71-2.85,7.32-4.37,10.82-4.5,10.28-8.75,20-4.53,30.95,1.58,4.1,6.63,7.62,12.48,11.69,11.13,7.76,25,17.42,24.55,38.24-.29,13.57-7.76,21.81-14.35,29.08-9.26,10.21-16.57,18.27-6.09,39.12a3.43,3.43,0,0,1-1.52,4.6A3.38,3.38,0,0,1,1597.7,597.44Z"/><path d="M1529.61,571.88a3.36,3.36,0,0,1-2-.65,3.42,3.42,0,0,1-.77-4.78c13.68-18.92,6.51-28-2.56-39.48-5.16-6.54-10.5-13.3-12.22-22.36-1.87-9.84,3.68-18.08,9.57-26.8,10-14.9,20.44-30.31.72-58.67a3.43,3.43,0,0,1,5.63-3.91c22.4,32.21,9.61,51.17-.67,66.41-5.29,7.85-9.86,14.62-8.52,21.69,1.41,7.41,6,13.23,10.87,19.39,9.12,11.55,19.44,24.63,2.73,47.74A3.42,3.42,0,0,1,1529.61,571.88Z"/><path class="cls-7" d="M1438.94,331.58c-.13-8.39-5.09-15.11-11.08-15s-10.72,7-10.58,15.36,5.1,15.1,11.08,15S1439.08,340,1438.94,331.58Z"/><path d="M1278.8,1203.07a3.44,3.44,0,0,1-3.12-2c-17.61-38.82-15.49-85.11-13-138.7.8-17.52,1.62-35.63,1.88-54.95.39-28.57-3.75-49.66-7.74-70-5-25.76-9.82-50.09-5.68-87,7.25-64.37,67.09-193,71.74-199.93,9.07-13.45,14.45-31.54,18.37-44.75,3.21-10.79,4.86-16.07,7.37-18.34,5-4.48,16.5-11.4,35.63-22.88,7.31-4.38,15.69-9.41,25.14-15.16,32.73-19.93,51.81-40.81,52-41a3.43,3.43,0,0,1,5.08,4.6c-.79.88-19.88,21.8-53.52,42.28-9.46,5.76-17.85,10.79-25.17,15.18-18.13,10.87-30.1,18-34.56,22.08-1.26,1.28-3.46,8.68-5.4,15.21-4,13.63-9.6,32.31-19.26,46.63-4.57,6.78-63.47,133.45-70.61,196.87-4,35.82.65,59.64,5.59,84.87,4.07,20.74,8.27,42.18,7.88,71.46-.27,19.43-1.09,37.6-1.9,55.17-2.5,54.89-4.48,98.24,12.44,135.55a3.43,3.43,0,0,1-3.12,4.85Z"/><path d="M1382.91,650.14a5.85,5.85,0,0,1-1.55-.21c-5.3-1.45-8.72-10-14.33-25-4.3-11.52-10.81-28.93-16.55-30.28a3.43,3.43,0,0,1,1.57-6.67c9.31,2.19,15.45,18.64,21.4,34.55,2.77,7.42,6.89,18.43,9.4,20.57,8.87-7.18,18.72-17.59,30.11-29.62,8.76-9.27,17.83-18.85,27.7-28.28,4.66-4.45,8.84-8.42,12.6-12,17-16.13,25.57-24.22,26.13-28.68.26-2,0-2.24-2-4.17a36,36,0,0,1-7.47-9.48,63.69,63.69,0,0,1-4.14-9.83c-3-8.42-4-9.38-8-8a3.43,3.43,0,1,1-2.23-6.48c11-3.78,14.15,5.08,16.66,12.2a57.48,57.48,0,0,0,3.67,8.78,29.14,29.14,0,0,0,6.18,7.83c2.35,2.21,4.79,4.51,4.1,10-.86,6.9-8.31,14-28.22,32.81-3.75,3.54-7.93,7.5-12.57,11.94-9.75,9.32-18.76,18.83-27.46,28-11.73,12.39-21.85,23.08-31.15,30.54A6.21,6.21,0,0,1,1382.91,650.14Z"/><path d="M1312.51,680.9a3.43,3.43,0,0,1-3.27-2.4c-6-19-3.83-46-2.26-65.68.78-9.72,1.52-18.9.67-21.67a85.16,85.16,0,0,0-3.91-8.9c-6.35-13.33-16-33.47-11.25-51.78a3.43,3.43,0,0,1,6.64,1.71c-4.08,15.9,4.87,34.69,10.8,47.12a84.79,84.79,0,0,1,4.27,9.83c1.18,3.85.68,11-.38,24.23-1.54,19.16-3.64,45.4,2,63.08a3.43,3.43,0,0,1-2.24,4.3A3.35,3.35,0,0,1,1312.51,680.9Z"/><path d="M1275.74,637.22a4.2,4.2,0,0,1-3.54-2c-4.71-7.35-6.76-44.89-6-52.53.63-6.07,3.1-9.34,6.23-13.47a95,95,0,0,0,5.8-8.4,71.64,71.64,0,0,0,6.3-14.61c1.73-5.06,3.52-10.29,6.85-15.49,1.86-2.9,4.52-4.62,6.86-6.14,2-1.31,3.78-2.45,4.7-4.06a3.43,3.43,0,1,1,6,3.37c-1.75,3.08-4.51,4.87-6.94,6.45-1.94,1.25-3.76,2.43-4.82,4.08-2.88,4.5-4.46,9.12-6.13,14a76.72,76.72,0,0,1-6.93,15.94,99.1,99.1,0,0,1-6.2,9c-3,3.91-4.44,5.88-4.87,10-.77,7.38,1,32.32,3.39,43.35.89-1.92,1.87-4.21,2.75-6.25,6.84-15.9,17.19-39.91,32.52-34.39a3.42,3.42,0,1,1-2.33,6.44c-9.26-3.34-18.78,18.77-23.89,30.65-4.31,10-5.92,13.77-9.42,14.05Zm2.23-5.74h0Z"/><path d="M1325.07,1099.33c-43.5,0-87.16-18.94-117.41-52.42a3.43,3.43,0,1,1,5.09-4.59c36.25,40.12,92.59,58.44,143.51,46.63a3.43,3.43,0,0,1,1.55,6.68A145.21,145.21,0,0,1,1325.07,1099.33Z"/></g></svg>