<svg id="Layer_1" data-name="Layer 1" xmlns="http://www.w3.org/2000/svg" viewBox="0 0 2742 1523"><defs><style>.cls-1{fill:#ffe384;}.cls-2{fill:#565656;}.cls-3{fill:#d8eadf;}.cls-4{fill:#fff;}.cls-5{fill:#ffd6ba;}.cls-6{fill:#745c5f;}.cls-7{fill:#ff836e;}.cls-8{fill-rule:evenodd;}.cls-9{fill:#f73e54;}.cls-10{fill:#fdfdfd;}.cls-11{fill:#ea5e60;}</style></defs><rect class="cls-1" width="2742" height="1523"/><path class="cls-2" d="M1698.82,1025H975.75A49.65,49.65,0,0,1,931,996.9L926,487.45V339.65A49.68,49.68,0,0,1,975.75,290h919.92a49.64,49.64,0,0,1,49.66,49.66V840.91Z"/><path class="cls-3" d="M1905.18,840V344.66A26.15,26.15,0,0,0,1879,318.49H992.39a26.19,26.19,0,0,0-26.2,26.17V970.34a26.19,26.19,0,0,0,26.2,26.16h704.13Z"/><rect class="cls-4" x="1004.05" y="372.59" width="337.07" height="139.61"/><path d="M1341.12,508.22H1004.05l4,4V372.59l-4,4h337.07l-4-4V512.2c0,5.13,8,5.14,8,0V372.59a4,4,0,0,0-4-4H1004.05a4,4,0,0,0-4,4V512.2a4,4,0,0,0,4,4h337.07C1346.25,516.19,1346.26,508.22,1341.12,508.22Z"/><path d="M1046.75,411.36h251.67c5.13,0,5.13-8,0-8H1046.75c-5.12,0-5.13,8,0,8Z"/><path d="M1046.75,446.38h251.67c5.13,0,5.13-8,0-8H1046.75c-5.12,0-5.13,8,0,8Z"/><path d="M1046.75,481.39h251.67c5.13,0,5.13-8,0-8H1046.75c-5.12,0-5.13,8,0,8Z"/><path class="cls-5" d="M1693.61,954.72c-21.34-52.59-41.7-105.75-58.52-159.93-.88-2.88-1.77-5.76-2.65-8.64-.4-1.37-.85-2.69-1.24-4.07-.22-.71-.4-1.37-.62-2.08-.45-1.46-.89-2.92-1.29-4.42q-7.43-25.44-13.37-51.22c-4.42-19-11.55-37.8-15-57-2.57-14-9.74-39.88,1.59-52.1,26.74-28.95,49.14,38.65,54.58,55.6,4.52,14.12,9.52,28.06,14.87,41.87,7.49,19.44,15.59,38.6,23.87,57.68,2.12,5,4.24,9.92,6.37,14.92,4.34,10.31,8.72,20.63,13.41,30.76.53,1.15,1.06,2.26,1.6,3.37,3.32,7,8.54,24.3,18.54,23.81,8.94-.44,18.06-17.84,24.48-23.15a23,23,0,0,1,6.59-4c5.54-2.3,11-1.81,16.34,0,7.7,2.57,15.23,7.88,22.62,11.78,18.81,9.91,31.29-2,48.87-4.74a29.83,29.83,0,0,1,10.53.27c13.68,2.88,24.7,14.38,38.64,16.42a24.11,24.11,0,0,0,5.14.35c15.09-.44,26.65-7.79,39.44,2.92.53.4,1,.85,1.55,1.33,36.21,34.09,46.43,91.1,57.77,137.27,10.18,41.39,20.49,83.66,27.09,125.8,2.7,17.35,8.72,34.44,16.07,51-14.13,2.93-29,10.32-39.62,14-42.76,15-80.21,39.75-116.64,66.22-10.58,7.66-20.36,14.78-28.69,24l-.75-.66c-19.7-34-44.48-63.57-71.62-92.48-21.38-22.75-46.3-41.12-69-62.45-23.64-22.23-24.35-51.57-25.72-82.16,0-.31,0-.58,0-.89-.22-5-.66-10.71-1.24-16.82C1696,989.77,1693.61,969.19,1693.61,954.72Z"/><path class="cls-4" d="M1702.2,785.36c-2.13-5-4.25-10-6.37-14.92-8.28-19.08-16.38-38.24-23.87-57.68h193.22V823.43a29.83,29.83,0,0,0-10.53-.27c-17.58,2.75-30.06,14.65-48.87,4.74-7.39-3.9-14.92-9.21-22.62-11.78-5.36-1.81-10.8-2.3-16.34,0h-51.21C1710.92,806,1706.54,795.67,1702.2,785.36Z"/><rect class="cls-4" x="1659.22" y="536.86" width="205.97" height="134.48"/><path class="cls-4" d="M1715.61,816.12h51.21a23,23,0,0,0-6.59,4c-6.42,5.31-15.54,22.71-24.48,23.15-10,.49-15.22-16.77-18.54-23.81C1716.67,818.38,1716.14,817.27,1715.61,816.12Z"/><path class="cls-5" d="M1504.45,828.58c-5.53,4.43-11.44,8.35-16.93,12.78s-9,9.73-13.69,14.79c-2.24-4.58-5.58-9.16-8.68-14-2.58-4-5.06-8.68-8.73-11.92-2.15-1.86-4.06-5.35-6.87-6,8.35-7.16,15.74-15.36,23.61-22.95,9.83-9.44,20.61-17.79,31.67-26.14,14.55-11,30.15-2.81,45.94-.05,3.34.58,6.72,1.24,10.06,1.91,2.1.38,5.87.57,5.82,3.06a5.54,5.54,0,0,1-1.81,3.57,11.39,11.39,0,0,1-3.53,2.43c-10.25,4.49-22.42,2.39-33.53,2.3-2.39,0-3.44,1.19-5.63,1.85,10.11,2.15,34.77,9.69,49.85,3.34,7.48-3.24,15.26-5.58,23.08-8.06.43,1.63.91,3.2,1.38,4.77.24.77.43,1.48.67,2.25.43,1.47.91,2.9,1.34,4.38q1.42,4.65,2.86,9.31c-9.54,5.53-19.6,10.82-29.24,15.83-14.93,7.73-32.82,8.16-50.71,9.78C1516,832.34,1510.08,830.44,1504.45,828.58Z"/><path class="cls-4" d="M1472.15,858a12.85,12.85,0,0,1-.54,4.86c-.12.34-.24.67-.37,1a14.48,14.48,0,0,1-1.62,2.95q-9.22,13.34-18.86,26.54Q1446,900,1441,906.53c-3.24,4.4-6.52,8.81-9.88,13.17q-3.3,4.37-6.65,8.72-11.34,14.83-23,29.41-5.43,6.92-11,13.71c-6.81,8.39-13.63,16.74-20.4,25H1015.27c.37-23.13,2.7-48.1,4.24-70.37.74-10.71,1.49-21.47,1.37-32.27-.13-13.37-1.58-26.71-3.29-40-1.49-12-2.24-23.76-3.28-35.89-1.41-17.36-5.11-34.06-4.4-51.59.21-5.32.12-11,.75-16.66.16-1.45.37-2.86.62-4.28a33.26,33.26,0,0,1,3.16-9.59c.29-.58.62-1.16,1-1.75.75-1.16,1.5-2.2,2.29-3.2.37-.49.79-1,1.2-1.41a32.12,32.12,0,0,1,6.73-5.61c1-.62,2-1.2,3-1.74s2.17-1,3.24-1.54c2.25-1,4.57-1.91,7-2.86,8-3,16.12-5.69,24.26-8.43l8.19-2.75c9.51-3.24,18.52-6.14,26.58-9,1.66-.58,3.24-1.12,4.78-1.7,2.53-.92,4.94-1.87,7.23-2.79,1.53-.62,3-1.24,4.4-1.87a78.92,78.92,0,0,0,8.14-4.11c.54-.29,1-.58,1.54-.87,0,0,1.12,1.7,1.12,1.7a47.84,47.84,0,0,0,14,20.48,62.1,62.1,0,0,0,21.68,12.05,71.42,71.42,0,0,0,21.93,3.4c16.62,0,31.66-5.56,42.5-14.53,1.12-.92,2.2-1.87,3.24-2.91a46.71,46.71,0,0,0,12.3-19.57,39.51,39.51,0,0,0,4.52,2.45,38.61,38.61,0,0,0,4,1.91c1.37.63,2.83,1.25,4.32,1.87s3,1.29,4.65,1.87c.83.29,1.62.58,2.45.92,3.54,1.37,7.31,2.66,11.26,4,6.23,2.11,12.92,4.32,19.9,6.68,10.84,3.7,21.76,7.15,32.44,11.18,9.85,3.78,17.74,7.18,23.51,16.36s5.11,21.69,5.53,32.28c.79,19.81-1.79,40.38-1.33,60.61.62,28.66.62,58.06,4.11,86.48l2,1c.5-1.08,1-2.16,1.66-3.25.09-.2.21-.41.3-.57.58-1,1.16-2.08,1.82-3.12,7.52-12.05,21.11-22.64,31.61-32.32,4.86-4.49,9.6-9.14,14.29-13.87,2.37-2.37,4.7-4.74,7-7.15s4.56-4.77,6.85-7.18c6.14-6.52,12.54-13,19.19-19.11a33,33,0,0,1,4.78-4.24,4.81,4.81,0,0,1,1.66-.79,2.15,2.15,0,0,1,.7-.12,2.64,2.64,0,0,1,1,.2,1.48,1.48,0,0,1,.54.25,3.53,3.53,0,0,1,.83.5,4.89,4.89,0,0,1,.88.71c.2.21.37.37.58.58,1,1,1.87,2.24,2.82,3.07,3.2,2.83,5.36,6.86,7.6,10.39s4.9,7.19,6.77,10.67c.3.51.54,1,.79,1.5a22.44,22.44,0,0,1,1.33,3.2,8.6,8.6,0,0,1,.29.95,11.86,11.86,0,0,1,.38,1.62c.08.34.12.71.16,1A2.46,2.46,0,0,0,1472.15,858Z"/><path class="cls-6" d="M1164.36,523.75a.74.74,0,0,1-.29.17,53.78,53.78,0,0,1-8.93,3.32c-.7.21-1.41.41-2.16.58a8.77,8.77,0,0,1-1.2.29,25.56,25.56,0,0,1-2.66.54c-.87.17-1.74.33-2.66.46-.66.08-1.12.16-1.58.21l.67,5.85a20.43,20.43,0,0,1-2.54,3.08,23.33,23.33,0,0,1-3.69,2.86,19.14,19.14,0,0,1-5.07,2.16,18.32,18.32,0,0,1-5.36.75l-6.23,6.19c-6.19-1.87-10.76-.62-13.87,2.2-5.86,5.28-6.53,16.28-3,23.47a27.88,27.88,0,0,0,5.86,8.52,19.47,19.47,0,0,0,6.27,4.19c1.08.5,2.16.92,3.32,1.33.38.13.79.25,1.17.42l2.82,8.72c.34,1.66.71,3.28,1.12,4.86.3,1.12.59,2.24.88,3.28.45,1.7,1,3.37,1.49,4.94s1,3,1.54,4.45,1,2.7,1.54,3.9,1,2.25,1.41,3.2c.25.46.45.92.66,1.33a21.85,21.85,0,0,0,1.62,2.79,4.48,4.48,0,0,0,.38.45s1.53,33.19-1.25,45.74a14,14,0,0,1-2.2,5,21.63,21.63,0,0,1-2.66,3c-.54.5-1.12,1-1.7,1.46a38.87,38.87,0,0,1-4,2.74c-.37.25-.75.45-1.12.66a2.33,2.33,0,0,1-.42.25c-.66.38-1.2.71-1.82,1a4.77,4.77,0,0,1-.46.25,7.31,7.31,0,0,0-.87.46c-1.54.79-3.2,1.57-5,2.36-1.41.63-2.86,1.25-4.4,1.87l-3.53,1.38c-1.21.49-2.45.95-3.7,1.41-.75.29-1.53.58-2.32.83l-2.46.87c-.24.08-.49.17-.78.29-1.75.62-3.58,1.25-5.45,1.87l-6.48,2.2c-2.24.75-4.52,1.5-6.85,2.29a15.1,15.1,0,0,1-5.28-3.41,13.67,13.67,0,0,1-1-1.12c-.29-.33-.58-.75-.92-1.12-2.9-4.07-4.27-9.43-4.53-14.87-.24-6.61,1.46-13.09,3.87-19.32.79-1.95,1.58-3.86,2.45-5.73s1.83-3.95,2.7-5.9c1.41-3,2.78-5.94,3.94-9a2.94,2.94,0,0,0,.3-.75,23.25,23.25,0,0,0,.87-2.28,56.65,56.65,0,0,0,1.87-6.28c6.44-27.62-9.52-54.66-8.48-82.41a228.85,228.85,0,0,1,2.54-26.54c.29-1.75.58-3.49.91-5.24.75-3.86,1.54-7.68,2.49-11.46.34-1.41.71-2.78,1.13-4.16q.68-2.61,1.49-5.11c1-3.4,2.24-6.77,3.49-10.09.71-1.74,1.41-3.53,2.16-5.32,1.33-3,2.74-6.06,4.24-9.05,0-.09.08-.13.12-.21.83-1.58,1.66-3.16,2.54-4.69a76.44,76.44,0,0,1,11.38-15.41q1.62-1.76,3.36-3.37a90.8,90.8,0,0,1,46.23-22.85c13.55-2.45,30.54-3.69,43.87,1l.21.08a20.73,20.73,0,0,1,11.46,8.64c0,.13.13.21.17.34l10.38.95c.83.25,1.62.5,2.41.79,1.58.54,3.12,1.16,4.61,1.83s3,1.37,4.41,2.16c19.27,10.63,32.15,31.73,41.58,59.19,1.41,4.15,2.74,8.43,4,12.84,14.24,48.55,20.27,131.84,4.69,167.19a37.49,37.49,0,0,1-7.35,11.26,18.91,18.91,0,0,1-3.87,3s-.79,2-.79,2c-3.94-1.32-7.72-2.65-11.25-4-.83-.34-1.62-.63-2.45-.92-1.62-.62-3.16-1.24-4.65-1.87s-3-1.24-4.33-1.87-2.7-1.24-4-1.91c-1.62-.83-3.12-1.66-4.53-2.49a5.18,5.18,0,0,0-.71-.41c-1-.67-2-1.33-3-2-4.19-3.2-6.81-6.56-7.6-10.42-1.33-5.9-1.7-15.37-1.7-23.76l.29-.42a4.78,4.78,0,0,0,.46-.58l.95-16.28c-.08-.05-.54.33-1.37,1a9,9,0,0,0-.79.63c-.91.62-2,1.41-3.24,2.36a83.79,83.79,0,0,0,8.68-10.46,56.85,56.85,0,0,0,3.78-5.74c.67-1.08,1.33-2.24,1.91-3.36s1.13-2.16,1.67-3.24a7.71,7.71,0,0,0,.29-.75c1.66-4.24,3.32-11.63,5.06-20.44l2.41.5c.54-.12,1-.25,1.5-.41a19.76,19.76,0,0,0,4.48-2.2,32.14,32.14,0,0,0,4.32-3.33c4-3.82,7.23-8.85,7.94-13.79s.58-10.67-2.87-14.16a7.53,7.53,0,0,0-.74-.75,11.21,11.21,0,0,0-5.45-2.33l-4-.87c.16-.62.29-1.25.41-1.83.33-1.45.67-2.86,1-4.23l6.39-.17a50,50,0,0,1-8.84-3.57c-1.17-.63-2.41-1.33-3.66-2.12a54.82,54.82,0,0,1-5.77-4.28c-.62-.54-1.29-1.12-1.91-1.7-1.29-1.25-2.58-2.58-3.82-4-.5-.58-1-1.17-1.5-1.79-.79-1-1.58-2-2.33-3.16a1.91,1.91,0,0,1-.2-.33c-5.82-8.51-10.47-20.39-11.88-36.84l-.46,0a50.46,50.46,0,0,1-9.22,21.39c-.75,1-1.5,1.91-2.29,2.82a58.7,58.7,0,0,1-5,5.07c-.88.79-1.79,1.54-2.7,2.24s-1.87,1.42-2.79,2.08-2,1.33-2.91,1.91-1.86,1.12-2.82,1.62a33.63,33.63,0,0,1-3.28,1.66,23.77,23.77,0,0,1-2.2,1,1.6,1.6,0,0,1-.42.17c-1,.41-1.91.79-2.86,1.16a57.6,57.6,0,0,1-28.83,2.2,5.82,5.82,0,0,0,1-.21c.21,0,.46-.08.75-.16a53.3,53.3,0,0,0,16-6.82,38.88,38.88,0,0,0,3.4-2.4c.58-.42,1.12-.88,1.71-1.38a14.56,14.56,0,0,0,1.53-1.33,22.92,22.92,0,0,0,1.83-1.74,22.5,22.5,0,0,0,1.62-1.74c.5-.54.95-1.08,1.37-1.62a4.63,4.63,0,0,0,.37-.46c.46-.58.88-1.16,1.29-1.79a20.63,20.63,0,0,0,1.37-2,.69.69,0,0,0,.13-.21c.41-.66.79-1.33,1.16-2a1.41,1.41,0,0,0,.25-.45,17.38,17.38,0,0,0,1-2.12,41.43,41.43,0,0,0,2.08-5.32,54.37,54.37,0,0,0,2-9.22,44.2,44.2,0,0,1-2.45,5.36,50.12,50.12,0,0,1-5.61,8c-.54.67-1.16,1.38-1.78,2s-1.33,1.37-2,2-1.37,1.33-2.07,2-1.5,1.29-2.25,1.91a71,71,0,0,1-7.52,5.36c-.78.5-1.61.95-2.45,1.41-.58.33-1.2.66-1.82,1A17.43,17.43,0,0,1,1164.36,523.75Z"/><path class="cls-7" d="M1272.07,699.87c-3.94-1.32-7.72-2.61-11.25-4C1264.35,697.22,1268.13,698.55,1272.07,699.87Z"/><path class="cls-7" d="M1263.39,559.56c3.45,3.49,3.53,9.3,2.87,14.16s-3.91,10-7.94,13.79c4-3.86,7.19-8.89,7.9-13.83S1266.8,563.09,1263.39,559.56Z"/><path class="cls-5" d="M1263.39,559.56c3.41,3.53,3.49,9.3,2.83,14.12s-3.87,10-7.9,13.83a32.14,32.14,0,0,1-4.32,3.33,23.8,23.8,0,0,1-4.48,2.2c-.5.16-1,.29-1.41.41-.09,0-2.5-.5-2.5-.5.92-4.32,1.79-9,2.7-13.74.17-.59.25-1.21.38-1.83,1-4.78,1.91-9.64,2.91-14.37.33-1.54.66-3.12,1-4.62.21-.95.42-1.87.63-2.78l3.94.87a11.2,11.2,0,0,1,5.49,2.33Z"/><path class="cls-7" d="M1263.39,559.56l-.74-.75A7.53,7.53,0,0,1,1263.39,559.56Z"/><path class="cls-5" d="M1164.45,523.79c.62-.33,1.24-.62,1.87-.95s1.24-.63,1.82-1c.84-.46,1.67-.91,2.45-1.41a61.11,61.11,0,0,0,7.44-5.32c.83-.66,1.58-1.29,2.28-1.95s1.46-1.29,2.12-2,1.29-1.29,1.91-2a18.75,18.75,0,0,0,1.83-2.12,44,44,0,0,0,5.61-8,29.5,29.5,0,0,0,2.41-5.36,50.8,50.8,0,0,1-2,9.22,48.26,48.26,0,0,1-2.08,5.32c-.33.75-.67,1.45-1,2.12a1.41,1.41,0,0,1-.25.45c-.37.71-.79,1.38-1.16,2a.69.69,0,0,1-.13.21c-.45.7-.91,1.41-1.37,2s-.87,1.21-1.29,1.79a4.63,4.63,0,0,1-.37.46c-.46.54-.91,1.12-1.37,1.62s-1.08,1.2-1.62,1.74a22.92,22.92,0,0,1-1.83,1.74c-.5.46-1,.92-1.53,1.33s-1.13,1-1.71,1.38c-1.12.87-2.28,1.66-3.4,2.4a53.3,53.3,0,0,1-16,6.82c-.29.08-.54.12-.75.16a3.14,3.14,0,0,1-.83.17,56.28,56.28,0,0,0,28.71-2.16,28.57,28.57,0,0,0,2.86-1.16,1.6,1.6,0,0,0,.42-.17,19.78,19.78,0,0,0,2.2-1,33.63,33.63,0,0,0,3.28-1.66c1-.5,1.87-1,2.82-1.62s2-1.2,2.91-1.91a31.53,31.53,0,0,0,2.79-2.08,27.37,27.37,0,0,0,2.7-2.24,44.53,44.53,0,0,0,5-5.07,29.38,29.38,0,0,0,2.29-2.82,48.7,48.7,0,0,0,9.22-21.39l.46,0c1.41,16.45,6.06,28.33,11.83,36.84a2.56,2.56,0,0,0,.25.33c.75,1.13,1.54,2.16,2.33,3.16a20.91,20.91,0,0,0,1.5,1.79c1.24,1.45,2.53,2.78,3.82,4a17.76,17.76,0,0,0,1.91,1.7,44.56,44.56,0,0,0,5.77,4.28,33.83,33.83,0,0,0,3.66,2.12,50,50,0,0,0,8.84,3.57l-6.39.17c-.33,1.37-.67,2.78-1,4.23-.12.58-.25,1.21-.41,1.83-.21.91-.42,1.83-.63,2.78-.37,1.5-.7,3.08-1,4.62-1,4.69-2,9.59-2.91,14.37-.13.62-.21,1.24-.38,1.83-1,4.77-1.87,9.42-2.74,13.74-1.74,8.85-3.4,16.25-4.94,20.27-.21.42-.29.67-.42.92l-1.62,3.24c-.58,1.12-1.24,2.28-1.91,3.36-1.2,2-2.45,3.87-3.78,5.74a86.26,86.26,0,0,1-9.05,10.71c-.63.46-1.33,1-2.08,1.54-2.33,1.66-5.07,3.57-8,5.61-4.08,2.74-8.48,5.6-12.67,8.14a4,4,0,0,1-.75.42l-4.45,2.49a64.53,64.53,0,0,1-5.94,2.74c-.74.12-1.57.25-2.36.33a25.27,25.27,0,0,1-7.86-.5,17.14,17.14,0,0,1-2.78-.75,25.64,25.64,0,0,1-2.86-1.08c-1-.41-2.12-1-3.37-1.53l-1-.5c-.24-.13-.49-.29-.78-.42s-.67-.37-1-.54c-.13,0-.21-.12-.33-.16-2.12-1.17-4.24-2.41-6.32-3.7-.66-.42-1.37-.83-2-1.25-2-1.24-3.82-2.45-5.57-3.61a5.09,5.09,0,0,1-.42-.29c-2.32-1.7-4.69-3.53-7-5.53-.87-.78-1.78-1.57-2.65-2.36-.13-.08-.21-.21-.29-.25-.79-.75-1.58-1.5-2.37-2.29-1.75-1.7-3.45-3.49-5.11-5.4a4.57,4.57,0,0,0-.42-.49,28,28,0,0,1-1.62-2.79c-.21-.41-.41-.87-.66-1.33-.42-1-.92-2-1.41-3.2s-1-2.49-1.54-3.9-1-2.87-1.54-4.45-1-3.19-1.49-4.94c-.29-1-.58-2.16-.88-3.28-.41-1.58-.78-3.2-1.12-4.86l-2.82-8.72c-.38-.17-.79-.29-1.17-.42-1.12-.41-2.24-.83-3.32-1.33a19.47,19.47,0,0,1-6.27-4.19,30.27,30.27,0,0,1-5.82-8.52c-3.44-7.14-2.82-18.15,3-23.47,3.11-2.82,7.68-4.07,13.87-2.2l6.23-6.19a18.32,18.32,0,0,0,5.36-.75,19.14,19.14,0,0,0,5.07-2.16,18.13,18.13,0,0,0,3.65-2.82,20.59,20.59,0,0,0,2.58-3.12l-.67-5.85c.46-.05.92-.13,1.37-.21a23.37,23.37,0,0,0,2.87-.46,25.56,25.56,0,0,0,2.66-.54,8.77,8.77,0,0,0,1.2-.29c.75-.17,1.46-.37,2.16-.58a53.78,53.78,0,0,0,8.93-3.32l.34-.13S1164.45,523.79,1164.45,523.79Zm62.35,36.43a10.69,10.69,0,0,0-.34-3.53,6.56,6.56,0,0,0-.41-1.58,5.82,5.82,0,0,0-.71-1.53,5.89,5.89,0,0,0-.79-1.25,4.29,4.29,0,0,0-1-1.08,5.13,5.13,0,0,0-2.33-1.25,2.16,2.16,0,0,0-.67-.12h-.37a3.39,3.39,0,0,0-.66,0,6.47,6.47,0,0,0-4.66,3.2,18.72,18.72,0,0,0-1.12,2.24A12.86,12.86,0,0,0,1213,559a11.45,11.45,0,0,0,2.75,8.52,6.6,6.6,0,0,0,1.08.91,3.56,3.56,0,0,0,1.16.63,5.39,5.39,0,0,0,1.29.29,4.78,4.78,0,0,0,2.41-.42,4.5,4.5,0,0,0,1.16-.66,1.91,1.91,0,0,0,.62-.46,7.6,7.6,0,0,0,1.46-1.7,9.78,9.78,0,0,0,1.12-2.24A11.67,11.67,0,0,0,1226.8,560.22Zm-60.19-.91a11.79,11.79,0,0,0-1.54-6.61,7.67,7.67,0,0,0-1.41-1.82,5.28,5.28,0,0,0-3.66-1.63,5.37,5.37,0,0,0-4.11,1.63,2.23,2.23,0,0,0-.54.53,12,12,0,0,0-2.91,7.23,10.83,10.83,0,0,0,3,8.44,4.3,4.3,0,0,0,1.08.87,5.52,5.52,0,0,0,2.62.74,5.63,5.63,0,0,0,4.28-1.53,6.62,6.62,0,0,0,1-1.12,5.35,5.35,0,0,0,.46-.67A12.91,12.91,0,0,0,1166.61,559.31Z"/><path class="cls-7" d="M1253.72,693.1c1.49.63,3,1.25,4.65,1.87C1256.75,694.39,1255.21,693.77,1253.72,693.1Z"/><path class="cls-5" d="M1252.59,558.39c-.33,1.5-.66,3.08-1,4.62C1251.89,561.47,1252.22,559.89,1252.59,558.39Z"/><path class="cls-7" d="M1249.52,593a23.8,23.8,0,0,0,4.48-2.2A19.76,19.76,0,0,1,1249.52,593Z"/><path class="cls-7" d="M1248.52,543.69c1.25.79,2.49,1.49,3.66,2.12A33.83,33.83,0,0,1,1248.52,543.69Z"/><path class="cls-5" d="M1251.6,563c-1,4.73-2,9.59-2.91,14.37C1249.6,572.6,1250.56,567.7,1251.6,563Z"/><path class="cls-7" d="M1248.52,543.69a44.56,44.56,0,0,1-5.77-4.28A54.82,54.82,0,0,0,1248.52,543.69Z"/><path class="cls-5" d="M1248.31,579.21c-.91,4.77-1.78,9.42-2.7,13.74C1246.44,588.63,1247.36,584,1248.31,579.21Z"/><path class="cls-7" d="M1245.41,689.32c1.28.67,2.61,1.29,4,1.91A37.48,37.48,0,0,1,1245.41,689.32Z"/><path class="cls-7" d="M1245.57,593c-1.7,8.81-3.36,16.2-4.94,20.27C1242.17,609.2,1243.83,601.8,1245.57,593Z"/><path class="cls-7" d="M1245.41,689.32a39.67,39.67,0,0,1-4.53-2.45C1242.29,687.66,1243.79,688.49,1245.41,689.32Z"/><path class="cls-7" d="M1240.84,537.71c.62.58,1.29,1.16,1.91,1.7A17.76,17.76,0,0,1,1240.84,537.71Z"/><path class="cls-7" d="M1240.17,686.42a5.18,5.18,0,0,1,.71.41A3,3,0,0,1,1240.17,686.42Z"/><path class="cls-5" d="M1142.81,636.78A133.86,133.86,0,0,0,1158.13,655c1.09,1,2.25,2.12,3.37,3.16s2.2,2,3.36,2.86a66.81,66.81,0,0,0,6.23,4.53c1,.62,1.91,1.21,2.91,1.75a41.55,41.55,0,0,0,4.57,2.2,21,21,0,0,0,2,.75,25.69,25.69,0,0,0,6.06,1.28c1.12.09,2.24.13,3.32.13.67,0,1.38,0,2-.08a9.27,9.27,0,0,0,1.49-.13c.54,0,1.09-.08,1.62-.17a.85.85,0,0,0,.34-.08c.58-.08,1.12-.16,1.66-.29a12.46,12.46,0,0,0,1.83-.42c1-.2,1.86-.49,2.78-.78.37-.13.75-.25,1.12-.42.83-.29,1.66-.62,2.45-1a39.77,39.77,0,0,0,4.57-2.29,14.92,14.92,0,0,0,1.41-.83,47.67,47.67,0,0,0,4-2.66c.79-.58,1.58-1.16,2.29-1.78a59.44,59.44,0,0,0,5.89-5.41,9.8,9.8,0,0,0,.71-.74c.5-.54,1-1,1.33-1.5a8.47,8.47,0,0,0,.62-.7,3.36,3.36,0,0,0,.54-.63,9.8,9.8,0,0,0,.87-1.08,3.07,3.07,0,0,0,.34-.41c0,8.39.33,17.82,1.66,23.72.79,3.9,3.45,7.27,7.6,10.38a30.87,30.87,0,0,0,3,2,5.62,5.62,0,0,0,.63.41,46.81,46.81,0,0,1-12.22,19.61c-1,1-2.12,1.95-3.24,2.91-10.84,9-25.88,14.53-42.49,14.53a71.32,71.32,0,0,1-21.93-3.4,62,62,0,0,1-21.65-12.05A47.58,47.58,0,0,1,1125.19,688l-1.08-1.7a43.23,43.23,0,0,0,3.91-2.78c.58-.46,1.16-1,1.7-1.46a19.32,19.32,0,0,0,2.66-3,13.39,13.39,0,0,0,2.24-5c2.79-12.26,1.33-44.32,1.25-45.7,1.66,1.91,3.36,3.74,5.11,5.4.79.83,1.58,1.58,2.37,2.29.08,0,.16.17.29.25a33.07,33.07,0,0,0,2.65,2.36c2.33,2,4.7,3.83,7,5.53-.66-.46-1.28-.87-1.87-1.25-2.94-2-5.39-3.78-6.93-4.9l-1.33-1a.75.75,0,0,0-.29-.21Z"/><path class="cls-7" d="M1240.55,613.39a7.71,7.71,0,0,1-.29.75c-.54,1.08-1.08,2.16-1.67,3.24l1.62-3.24C1240.34,613.89,1240.42,613.64,1240.55,613.39Z"/><path class="cls-7" d="M1237.22,684.42c.92.67,1.91,1.33,3,2A27.16,27.16,0,0,1,1237.22,684.42Z"/><path class="cls-7" d="M1235.52,531.89c.5.62,1,1.21,1.5,1.79A20.91,20.91,0,0,1,1235.52,531.89Z"/><path class="cls-7" d="M1232.9,626.48c1.33-1.87,2.58-3.78,3.78-5.74A56.85,56.85,0,0,1,1232.9,626.48Z"/><path class="cls-7" d="M1233.19,528.73a2.56,2.56,0,0,1-.25-.33C1233.07,528.53,1233.11,528.65,1233.19,528.73Z"/><path class="cls-7" d="M1237.14,684.38c-4.15-3.11-6.81-6.48-7.6-10.38-1.33-5.9-1.66-15.33-1.66-23.72,0,8.35.41,17.82,1.74,23.72C1230.41,677.86,1233,681.22,1237.14,684.38Z"/><path d="M1229.62,633l-.95,16.28a4.57,4.57,0,0,1-.42.54c.25-.33.38-.54.38-.54l.91-16.2Z"/><path d="M1227.92,650.19a2.34,2.34,0,0,0,.29-.37l-.29.42Z"/><path d="M1226.67,651.77l.87-1.08A9.8,9.8,0,0,1,1226.67,651.77Z"/><path d="M1226.05,555.11a6.56,6.56,0,0,1,.41,1.58A9.16,9.16,0,0,0,1226.05,555.11Z"/><path class="cls-7" d="M1223.85,637.19a86.26,86.26,0,0,0,9.05-10.71,83.79,83.79,0,0,1-8.68,10.46A2.68,2.68,0,0,0,1223.85,637.19Z"/><path d="M1224.55,552.33a5.89,5.89,0,0,1,.79,1.25A8.08,8.08,0,0,0,1224.55,552.33Z"/><path d="M1224.18,654.6a9.8,9.8,0,0,1-.71.74C1223.72,655.05,1224,654.81,1224.18,654.6Z"/><path d="M1224.51,552.29a11.07,11.07,0,0,0-1-1A4,4,0,0,1,1224.51,552.29Z"/><path d="M1224.89,566.08a7.6,7.6,0,0,1-1.46,1.7A12.08,12.08,0,0,0,1224.89,566.08Z"/><path d="M1222.81,568.24a4.5,4.5,0,0,1-1.16.66A4.5,4.5,0,0,0,1222.81,568.24Z"/><path d="M1221.19,550a5.13,5.13,0,0,1,2.33,1.25A5.54,5.54,0,0,0,1221.19,550Z"/><path d="M1221.15,550a3.83,3.83,0,0,0-.67-.08,1,1,0,0,1-.33,0h.37A1.76,1.76,0,0,1,1221.15,550Z"/><path class="cls-5" d="M1220.57,491.52a47.71,47.71,0,0,1-9.14,21.39A49.4,49.4,0,0,0,1220.57,491.52Z"/><path d="M1217.58,660.75c-.71.62-1.5,1.2-2.29,1.78C1216.08,661.91,1216.87,661.33,1217.58,660.75Z"/><path class="cls-5" d="M1209.14,515.73c.79-.91,1.54-1.87,2.29-2.82A29.38,29.38,0,0,1,1209.14,515.73Z"/><path d="M1209.89,666c.5-.29,1-.54,1.41-.83A14.92,14.92,0,0,1,1209.89,666Z"/><path class="cls-7" d="M1211.8,438.26a20.73,20.73,0,0,0-11.46-8.64C1206.78,431.78,1207.73,430.08,1211.8,438.26Z"/><path class="cls-5" d="M1204.12,520.8a58.7,58.7,0,0,0,5-5.07A44.53,44.53,0,0,1,1204.12,520.8Z"/><path class="cls-5" d="M1201.42,523c.91-.7,1.82-1.45,2.7-2.24A27.37,27.37,0,0,1,1201.42,523Z"/><path d="M1205.32,668.31c-.79.33-1.62.66-2.45,1C1203.7,669,1204.53,668.64,1205.32,668.31Z"/><path class="cls-5" d="M1198.63,525.12c.92-.66,1.87-1.33,2.79-2.08A31.53,31.53,0,0,1,1198.63,525.12Z"/><path d="M1199,670.46c1-.24,1.86-.49,2.78-.78C1200.83,670,1199.92,670.26,1199,670.46Z"/><path d="M1195.48,671.17c.54-.08,1.12-.16,1.66-.29C1196.6,671,1196.06,671.09,1195.48,671.17Z"/><path class="cls-5" d="M1192.9,528.65c1-.5,1.91-1.08,2.82-1.62C1194.77,527.61,1193.86,528.15,1192.9,528.65Z"/><path d="M1193.52,671.42c.54,0,1.09-.12,1.62-.17C1194.61,671.34,1194.06,671.38,1193.52,671.42Z"/><path class="cls-5" d="M1194.15,493.8a26.65,26.65,0,0,1-2.37,5.36A33.62,33.62,0,0,0,1194.15,493.8Z"/><path class="cls-7" d="M1190.12,508.34a48.26,48.26,0,0,0,2.08-5.32A41.43,41.43,0,0,1,1190.12,508.34Z"/><path class="cls-7" d="M1189.08,510.46c.37-.67.71-1.37,1-2.12A17.38,17.38,0,0,1,1189.08,510.46Z"/><path class="cls-5" d="M1187.42,531.31a23.77,23.77,0,0,0,2.2-1A19.78,19.78,0,0,1,1187.42,531.31Z"/><path class="cls-7" d="M1187.67,513c.37-.66.79-1.33,1.16-2C1188.46,511.62,1188.08,512.29,1187.67,513Z"/><path class="cls-5" d="M1186.17,507.13a50.12,50.12,0,0,0,5.61-8A44,44,0,0,1,1186.17,507.13Z"/><path class="cls-7" d="M1186.17,515.19c.46-.62.92-1.33,1.37-2A20.63,20.63,0,0,1,1186.17,515.19Z"/><path class="cls-5" d="M1184.14,532.64c.95-.37,1.91-.75,2.86-1.16A28.57,28.57,0,0,1,1184.14,532.64Z"/><path class="cls-5" d="M1184.39,509.17c.62-.66,1.24-1.37,1.78-2A16,16,0,0,1,1184.39,509.17Z"/><path class="cls-7" d="M1184.88,517c.42-.58.88-1.16,1.29-1.79C1185.76,515.82,1185.34,516.4,1184.88,517Z"/><path class="cls-7" d="M1183.14,519.06c.46-.5.91-1.08,1.37-1.62C1184.09,518,1183.64,518.52,1183.14,519.06Z"/><path class="cls-5" d="M1182.43,511.21c.63-.67,1.29-1.29,1.91-2C1183.72,509.92,1183.1,510.58,1182.43,511.21Z"/><path class="cls-7" d="M1181.52,520.8q.81-.81,1.62-1.74A22.5,22.5,0,0,1,1181.52,520.8Z"/><path class="cls-5" d="M1180.36,513.2c.7-.66,1.41-1.33,2.07-2C1181.77,511.91,1181.06,512.54,1180.36,513.2Z"/><path class="cls-5" d="M1178.11,515.11c.75-.62,1.5-1.25,2.2-1.91C1179.61,513.86,1178.86,514.49,1178.11,515.11Z"/><path class="cls-7" d="M1178.16,523.87c.49-.41,1-.87,1.53-1.33A14.56,14.56,0,0,1,1178.16,523.87Z"/><path class="cls-7" d="M1176.45,525.25a38.88,38.88,0,0,1-3.4,2.4C1174.17,526.91,1175.33,526.12,1176.45,525.25Z"/><path class="cls-5" d="M1170.59,520.47a67.23,67.23,0,0,0,7.44-5.32A61.11,61.11,0,0,1,1170.59,520.47Z"/><path class="cls-5" d="M1169,653.68c.29.13.54.29.78.42C1169.52,654,1169.27,653.81,1169,653.68Z"/><path class="cls-7" d="M1166.32,522.84c.62-.3,1.24-.63,1.82-1C1167.56,522.21,1166.94,522.54,1166.32,522.84Z"/><path d="M1168,653.14a.82.82,0,0,1-.33-.16C1167.77,653,1167.85,653.1,1168,653.14Z"/><path class="cls-7" d="M1166.32,522.84c-.63.33-1.25.62-1.87.95Z"/><path class="cls-7" d="M1164.36,523.75a.74.74,0,0,1-.29.17A.74.74,0,0,0,1164.36,523.75Z"/><path d="M1165.07,552.7a10.11,10.11,0,0,0-1.41-1.82A7.67,7.67,0,0,1,1165.07,552.7Z"/><path d="M1164.36,566a6.62,6.62,0,0,1-1,1.12A14.06,14.06,0,0,0,1164.36,566Z"/><path class="cls-5" d="M1156.26,534.63c.21,0,.46-.08.75-.16C1156.72,534.55,1156.47,534.59,1156.26,534.63Z"/><path class="cls-5" d="M1153,527.82c.75-.17,1.46-.37,2.16-.58C1154.44,527.45,1153.73,527.65,1153,527.82Z"/><path class="cls-7" d="M1149.12,528.65a25.56,25.56,0,0,0,2.66-.54A25.56,25.56,0,0,1,1149.12,528.65Z"/><path class="cls-7" d="M1146.46,529.11c.92-.13,1.79-.29,2.66-.46C1148.25,528.86,1147.38,529,1146.46,529.11Z"/><path class="cls-5" d="M1139.27,708.43a62,62,0,0,0,21.65,12.05A61.61,61.61,0,0,1,1139.27,708.43Z"/><path class="cls-5" d="M1143.64,636.24c.87.79,1.78,1.58,2.65,2.36A33.07,33.07,0,0,1,1143.64,636.24Z"/><path d="M1144.51,638c-.58-.37-1-.71-1.33-1Z"/><path class="cls-5" d="M1141,633.7c.79.79,1.58,1.54,2.37,2.29C1142.56,635.28,1141.77,634.53,1141,633.7Z"/><path class="cls-5" d="M1139.32,541.11a23.32,23.32,0,0,0,3.65-2.82A18.13,18.13,0,0,1,1139.32,541.11Z"/><path class="cls-5" d="M1135.87,628.3c1.66,1.91,3.36,3.7,5.11,5.4C1139.23,632,1137.53,630.21,1135.87,628.3Z"/><path class="cls-5" d="M1135.87,628.3c.08,1.38,1.54,33.44-1.25,45.7a13.39,13.39,0,0,1-2.24,5,14,14,0,0,0,2.2-5c2.78-12.55,1.25-45.74,1.25-45.74Z"/><path class="cls-5" d="M1135.87,628.26a2.24,2.24,0,0,1-.42-.45C1135.62,628,1135.74,628.14,1135.87,628.26Z"/><path class="cls-5" d="M1133.83,625a28,28,0,0,0,1.62,2.79A21.85,21.85,0,0,1,1133.83,625Z"/><path class="cls-5" d="M1131.76,620.49c.49,1.17,1,2.25,1.41,3.2C1132.71,622.74,1132.21,621.66,1131.76,620.49Z"/><path class="cls-5" d="M1132.38,679a19.32,19.32,0,0,1-2.66,3A21.63,21.63,0,0,0,1132.38,679Z"/><path class="cls-5" d="M1128.68,612.14c.54,1.58,1,3.08,1.54,4.45C1129.68,615.18,1129.18,613.68,1128.68,612.14Z"/><path class="cls-5" d="M1127.19,607.2c.49,1.75,1,3.37,1.49,4.94C1128.14,610.57,1127.64,608.9,1127.19,607.2Z"/><path class="cls-5" d="M1124.07,686.21a38.87,38.87,0,0,0,4-2.74,43.23,43.23,0,0,1-3.91,2.78A0,0,0,0,1,1124.07,686.21Z"/><path class="cls-7" d="M1120.71,688.16c.62-.33,1.16-.66,1.74-1C1121.91,687.5,1121.33,687.83,1120.71,688.16Z"/><path class="cls-7" d="M1119.38,688.87a7.31,7.31,0,0,1,.87-.46A7.31,7.31,0,0,0,1119.38,688.87Z"/><path class="cls-5" d="M1117.88,588.59c1.08.5,2.2.92,3.32,1.33C1120,589.51,1119,589.09,1117.88,588.59Z"/><path class="cls-7" d="M1110,451.43q-1.74,1.62-3.36,3.37A42.75,42.75,0,0,1,1110,451.43Z"/><path class="cls-5" d="M1105.79,575.88a30.27,30.27,0,0,0,5.82,8.52,27.88,27.88,0,0,1-5.86-8.52c-3.49-7.19-2.82-18.19,3-23.47C1103,557.73,1102.35,568.74,1105.79,575.88Z"/><path class="cls-7" d="M1106.46,694.48c-1.16.49-2.41.95-3.7,1.41C1104,695.43,1105.25,695,1106.46,694.48Z"/><path class="cls-7" d="M1098,697.59l2.46-.87c-1,.41-2.12.79-3.24,1.16C1097.49,697.76,1097.74,697.67,1098,697.59Z"/><path class="cls-7" d="M1106.67,454.8a76.44,76.44,0,0,0-11.38,15.41c-.88,1.53-1.71,3.11-2.54,4.69.79-1.58,1.62-3.16,2.49-4.69A77,77,0,0,1,1106.67,454.8Z"/><path class="cls-7" d="M1092.63,475.11c-1.5,3-2.91,6-4.24,9.05C1089.68,481.09,1091.09,478.06,1092.63,475.11Z"/><path class="cls-7" d="M1091.75,699.75c-2.11.75-4.27,1.5-6.48,2.2Z"/><path class="cls-7" d="M1086.23,489.48c-1.25,3.32-2.45,6.69-3.49,10.09Q1084.3,494.47,1086.23,489.48Z"/><path class="cls-7" d="M1074.18,552.08c-1,27.75,14.92,54.79,8.48,82.41a56.65,56.65,0,0,1-1.87,6.28c.7-2,1.33-4.12,1.83-6.24,6.43-27.66-9.52-54.7-8.48-82.41a210.67,210.67,0,0,1,2.58-26.58A228.85,228.85,0,0,0,1074.18,552.08Z"/><path class="cls-7" d="M1082.74,499.57q-.81,2.51-1.49,5.11Q1081.93,502.07,1082.74,499.57Z"/><path class="cls-7" d="M1081.25,504.68c-.42,1.38-.79,2.75-1.13,4.16C1080.46,507.43,1080.83,506.06,1081.25,504.68Z"/><path class="cls-7" d="M1077.63,520.3c-.33,1.75-.62,3.49-.91,5.24C1077,523.79,1077.26,522.05,1077.63,520.3Z"/><path class="cls-7" d="M1079.62,643.8c-1.16,3-2.53,6-3.9,8.93C1077.09,649.78,1078.42,646.79,1079.62,643.8Z"/><path class="cls-7" d="M1075.68,652.77c-.87,2-1.83,4-2.7,5.9s-1.66,3.78-2.45,5.73c.74-1.95,1.58-3.86,2.41-5.73S1074.77,654.72,1075.68,652.77Z"/><path class="cls-7" d="M1072.11,699.71a13.67,13.67,0,0,0,1,1.12A9.25,9.25,0,0,1,1072.11,699.71Z"/><path class="cls-7" d="M1066.66,683.72c.26,5.44,1.63,10.8,4.53,14.87-3-4.07-4.32-9.43-4.57-14.87-.25-6.61,1.46-13.09,3.91-19.32C1068.12,670.63,1066.42,677.11,1066.66,683.72Z"/><path class="cls-5" d="M926.05,487.45a119.57,119.57,0,0,1,9.52-21.73,58.09,58.09,0,0,1,8.19-11.6c4.21-4.38,9.3-7.52,16-8,9.07-.66,15.85,2,20.72,6.77,7.87,7.66,10.62,20.72,10,33.2-1.51,29.79-5.27,59.27-10,88.67-4.7,29-10.23,57.94-15.5,86.8A518.56,518.56,0,0,0,957.26,775c1.28,32.89,7.35,66.22,5.4,99.11-1.86,30.85-9,61-18.9,90.26-5.14,15.13-11.69,29.52-17.71,44.08-5.49,13.24-10.58,26.56-13.76,40.86-.14-.22-.31-.4-.45-.62-14.69-19.79-42.22-31.65-64.75-39.88-16.12-5.93-58.7-24.48-86.19-20.76l-.31-2.3c-1.68-60.16,1.95-120,.31-180.25q-.93-32.87-2.52-65.73c-1.29-26.21-2.26-52.5-1.37-78.71.57-16.73-1-37.27,5.22-53.16,9.12-23.37,29.61-39.08,47-56,19.79-19.3,38.6-39.57,57.63-59.58,16.82-17.79,32.31-35.94,56.57-42.94h2.61Z"/><path d="M916,1050.68a384.88,384.88,0,0,1,14.58-42.91c6.33-15.21,13-30.26,18.18-45.92,10.11-30.72,17.37-62.9,18.16-95.33.79-32.87-5-65.47-6-98.27a512.52,512.52,0,0,1,7-100.88c5.69-33.3,12.49-66.4,17.63-99.8,2.53-16.41,4.73-32.87,6.39-49.39,1.43-14.24,3.82-29.42,2-43.72-1.23-9.64-4.75-19.58-12.47-25.93a30.78,30.78,0,0,0-30.37-4.4c-12.69,5.29-19.84,19.57-24.89,31.53-6.07,14.36-9.46,29.58-13,44.7-7.36,31.1-14.37,62.87-25.54,92.86-11.5,30.86-28.17,59.69-42.91,89.06q-5.5,11-10.71,22.11c-2.15,4.62,4.72,8.67,6.88,4,13.29-28.56,28.74-56,42.16-84.54,13.24-28.11,21.88-57.21,29.33-87.3,3.7-15,7.42-29.91,11-44.89,3.64-15.13,7.79-30.34,15.55-43.95,6.55-11.48,16-20.8,30.14-16.87,9.89,2.75,14.7,12.18,16.52,21.59,2.55,13.18.06,27.68-1.18,40.88-1.54,16.47-3.65,32.88-6.13,49.23-4.87,32.14-11.08,64-16.89,96a529.37,529.37,0,0,0-8.64,93.26c-.08,32,4.54,63.67,5.93,95.63,1.55,35.78-4.73,71-15.34,105.06-5.29,17-12.13,33.25-19,49.63a404.33,404.33,0,0,0-16,46.4c-1.42,4.94,6.27,7,7.68,2.12Z"/><path d="M764.57,985.76c-1.14-42.24.26-84.49.65-126.74.39-42.09-1.23-84.09-3.18-126.13-1-21-1.68-42-1.28-63,.33-17.77-1.17-36.86,3.19-54.21,4.23-16.81,16-30.31,28.13-42.13,13.23-12.92,26.79-25.43,39.69-38.7,15.54-16,30.74-32.28,46.07-48.45,13.37-14.1,27.6-27.51,46.64-33.22,4.9-1.47,2.81-9.16-2.12-7.68-16.39,4.91-29.88,14.95-41.94,26.83-13.84,13.66-26.84,28.22-40.25,42.3-13.95,14.65-28,29.2-42.84,43-12.43,11.59-25.24,23.37-33.76,38.28-9.14,16-10.21,33.58-10.36,51.59-.16,20.61-.72,41.16-.08,61.78,1.34,43,4.16,85.91,4.21,129,.07,49.18-2.07,98.35-.74,147.53.14,5.12,8.11,5.14,8,0Z"/><path d="M864.53,646.42c1.93-36.41,25.59-64.15,47.09-91.52,3.13-4-2.47-9.67-5.64-5.63-22.93,29.2-47.36,58.35-49.41,97.15-.28,5.12,7.69,5.1,8,0Z"/><path d="M1749.86,1078.2c-5-10-10.19-19.77-15-29.81-5.15-10.84-9.25-22-13.33-33.31-9-25-19.3-49.35-29.19-74-19.93-49.62-38.78-99.73-54.53-150.85-7.95-25.77-13.75-52-20.91-78-6.09-22.07-13.18-44-16-66.85-1-8.4-1.9-19.15,3.54-26.35,3.13-4.14,8.3-7.92,13.71-6.65,11,2.6,18.09,18,22.5,27.09,5.34,11,9.37,22.59,13.13,34.24,8.22,25.43,18,50.31,28.39,74.93,10.26,24.37,20.61,48.72,31.55,72.8,4.66,10.27,12.09,32.12,27.57,24.23,7.56-3.85,12.32-12,17.55-18.36,3-3.67,6.49-6.88,11.23-8.2,5.83-1.64,11.76.36,17,2.89,9.78,4.7,18.45,12.13,29.55,13.44,10.11,1.2,19.32-2.87,28.71-5.91,10.61-3.43,19.42-3.38,29.46,1.7,8.28,4.19,16.11,9.76,25.28,11.9,10.31,2.4,19.86-1.07,30.08-1.77,11.42-.79,18.56,6.75,25.44,14.83,27.22,32,36.11,75.73,45.56,115.48,6,25.19,12.38,50.29,18,75.58,2.88,13,5.58,26.11,8,39.23s4,26.22,7.42,39a248.26,248.26,0,0,0,12.81,35c2.07,4.69,8.94.63,6.88-4a221.91,221.91,0,0,1-13.58-39.3c-3-13-4.6-26.37-7.11-39.48-5.27-27.5-11.72-54.77-18.36-82-10.24-41.93-17.61-86.8-39.53-124.61a134.8,134.8,0,0,0-18.32-24.86c-6.93-7.35-14.63-13-25.15-12.92-10.81.11-21.15,4.79-31.93,1.63-9.41-2.77-17.34-9.06-26.33-12.83-9.27-3.89-18.27-3.92-27.87-1.13-10.16,2.94-20.5,8.69-31.37,6.08s-19.61-11.11-30.21-14.73c-10.14-3.46-20.74-1.44-28.46,6.17-6,6-9.91,14.37-17,19.24-7.67,5.29-12.6-6.78-15-12.28q-14.86-33.72-29.36-67.59c-10.77-25.11-21.1-50.43-29.91-76.31-4.58-13.46-8.7-27-14.44-40-5.23-11.92-11.78-25.49-22.68-33.26s-23.87-3.1-30.74,7.7c-9.58,15.08-2.94,36.36.12,52.42,2.61,13.74,6.76,27,10.62,40.46,3.71,12.89,6.54,26,9.87,39,13.76,53.62,32.33,106,52.24,157.58,9.88,25.62,20.27,51,30.68,76.42,9.57,23.35,16.7,47.71,27.53,70.54,4.77,10,10,19.86,15,29.81,2.29,4.59,9.16.56,6.87-4Z"/><path d="M1868.62,1260.09a440,440,0,0,0-43.14-60.64c-16.38-19.59-33.7-38.45-52.81-55.42-9.54-8.47-19.34-16.65-29-25-9.08-7.89-19.06-15.69-25.86-25.74-12-17.81-13.67-39.67-14.66-60.51-1.24-26-5.45-52-5.58-78,0-5.13-8-5.14-8,0,.11,23.52,4.12,46.82,5.22,70.29,1,21,1.52,42.58,10.36,62,4.79,10.53,12.09,19,20.55,26.7,9.43,8.63,19.21,16.86,28.9,25.18a546.91,546.91,0,0,1,55.36,54.73c19.27,21.95,37,45.2,51.72,70.48,2.58,4.42,9.47.42,6.88-4Z"/><path d="M1121.39,600.15a120.57,120.57,0,0,0,7.85,24.4c2.86,6.29,7.58,11,12.72,15.52a120.18,120.18,0,0,0,19.86,14.26c6.12,3.51,12.68,7,19.76,7.94,16.13,2,32.24-9.86,43.28-20.39,10.57-10.09,18.83-22.38,22.22-36.65,4.31-18.09,6.92-36.55,11.44-54.6,1.24-5-6.44-7.09-7.69-2.12-3.65,14.6-6.18,29.45-9.18,44.19-1.13,5.57-2.23,11.2-3.89,16.64-2,6.48-6.13,12.57-10.29,17.86-8.78,11.17-22.4,23.31-36.6,26.71-13.36,3.19-28.1-7.42-38.14-15.2-5.75-4.46-12.4-9.81-15.53-15.92-3.93-7.71-6.31-16.34-8.13-24.76-1.08-5-8.77-2.88-7.68,2.12Z"/><path d="M1191.06,549.44c-3.87,7.24-7.76,16.49-4.64,24.73a24.92,24.92,0,0,0,4.16,6.83c.26.33.52.66.79,1s-.53-.81-.15-.19c.11.18.25.34.36.52.34.53.47,1.06.13.06,0,.14.1.28.14.42s0,.46,0-.23c-.11-1.07-.11.22,0,0a10.8,10.8,0,0,1-2.84,4.21c-.36.34-.72.68-1.1,1-.16.13-1,.85-.67.56s-.45.33-.66.47c-4.23,2.85-.25,9.75,4,6.88,5.19-3.49,12-10.6,8-17.21a23.92,23.92,0,0,0-1.94-2.56l-.9-1.12c.74.92-.22-.32-.44-.66a15.27,15.27,0,0,1-.88-1.46c-.13-.24-.24-.49-.37-.74.36.73,0,.12-.08-.26-.22-.65-.37-1.3-.53-2s0,.5-.05-.3c0-.43-.07-.85-.07-1.28-.1-4.84,2.18-10,4.64-14.62s-4.46-8.56-6.88-4Z"/><path d="M1239.94,528.26a30.44,30.44,0,0,0-13.56-6.34,29.07,29.07,0,0,0-18.22,2.9,4,4,0,1,0,4,6.88,21.53,21.53,0,0,1,6.94-2.18c-.32.05-.22,0,.27,0l.88-.06c.58,0,1.16,0,1.73,0s1.12.06,1.69.1.55.06.17,0l.81.14a25.6,25.6,0,0,1,3.1.79c.49.16,1,.34,1.46.53l.1,0,.69.31a26.66,26.66,0,0,1,2.56,1.41c.4.24.79.5,1.17.77.14.09,1.29,1,.56.38,1.69,1.32,4,1.65,5.63,0,1.38-1.38,1.71-4.31,0-5.64Z"/><path class="cls-8" d="M1226.78,560.23c.31-5.33-2.51-10-6.27-10.34s-7.21,3.76-7.52,9.09,2.51,10,6.27,10.34S1226.47,565.56,1226.78,560.23Z"/><path class="cls-8" d="M1229.6,633s-32.28,24.76-43.57,26.32-43.25-22.56-43.25-22.56,22.26,32.91,43.88,34.79c25.08,2.19,42-22.26,42-22.26Z"/><path class="cls-8" d="M1166.6,559.29c.32-5.33-2.82-10-6.58-10-3.76-.31-7.21,4.08-7.52,9.4s2.82,10,6.58,10C1163.15,569,1166.29,564.93,1166.6,559.29Z"/><path d="M1144.34,531.39c-.73.57.45-.29.59-.38.4-.26.82-.52,1.24-.75s.9-.49,1.35-.72c.13-.06,1.44-.64.88-.41a27.73,27.73,0,0,1,6.69-1.81l.31,0,.93-.08c.63,0,1.26-.07,1.89-.08a32.32,32.32,0,0,1,3.31.16,23.68,23.68,0,0,1,7.45,2.23,4.09,4.09,0,0,0,5.45-1.43c1-1.76.51-4.51-1.43-5.45-11-5.37-24.53-4.43-34.29,3.13-1.7,1.31-1.39,4.25,0,5.63,1.68,1.68,3.93,1.32,5.63,0Z"/><path d="M1214.48,462.56c5.48,19.58,3.28,40.16-12.17,54.54-11.93,11.11-29.72,17.4-45.93,13.9v7.68c7.56-1.23,15.19-4.93,21.32-9.39,14.12-10.26,20.83-26.12,21.09-43.34.08-5.13-7.89-5.13-8,0-.23,14.92-6,29-18.64,37.5a45.36,45.36,0,0,1-17.93,7.55c-3.9.64-3.7,6.89,0,7.68,30.07,6.5,63.8-14.19,69.93-44.63,2.26-11.22,1-22.67-2-33.61-1.38-4.93-9.07-2.83-7.68,2.12Z"/><path d="M1217.16,491.59c1.52,16.62,6.44,33.2,17.81,45.82a54.65,54.65,0,0,0,23.67,15.39,34,34,0,0,0,6.07,1.38c2.15.29,4-2,4-4,0-2.38-1.86-3.7-4-4,2.2.29.47.06,0-.06-.93-.2-1.85-.42-2.77-.69a34.07,34.07,0,0,1-8.48-3.53c-9.43-5.14-16.66-13.36-21.38-23.22-4-8.45-6.06-17.85-6.92-27.13-.46-5.07-8.44-5.11-8,0Z"/><path d="M1221.33,443.4c19.08,6,32,21.26,40.81,38.54,9.46,18.48,15.16,39,19.24,59.28a412.35,412.35,0,0,1,7.39,59.32c1,18.69,1,37.74-1.74,56.3-1.82,12.11-4.61,30.49-16.19,37.54-4.37,2.67-.37,9.56,4,6.88,11.36-6.93,15.78-21.68,18.35-33.93,4-19.22,4.52-39.21,3.86-58.77-1.41-42.39-7.7-87.44-25.87-126.17-9.83-20.95-25-39.57-47.76-46.67-4.91-1.53-7,6.15-2.12,7.68Z"/><path d="M1190.34,492.72c-2.91,8.86-11,17-18.78,22.37a61.12,61.12,0,0,1-41.94,10.13c-5.09-.58-5,7.39,0,8a67.81,67.81,0,0,0,46.6-11.65c9.28-6.54,18.18-15.67,21.8-26.69,1.61-4.88-6.08-7-7.68-2.12Z"/><path d="M1219.26,443.51c-5-10.29-11.41-16.44-22.65-19.16-13.25-3.21-27.35-2.11-40.64.24-23.71,4.19-45.69,16.94-59.72,36.69-16.3,22.94-23.16,52.79-25.43,80.4-1.18,14.35.17,27.79,3.3,41.81s7.12,28.13,5.88,42.57c-1.46,17-12.86,30.69-16.29,47.15-2.64,12.66-.22,28.32,12.55,34.51,4.6,2.23,8.64-4.64,4-6.87-12.37-6-10.56-22.24-6.75-33,4.24-12,11.48-22.87,13.65-35.62,4.39-25.69-8.24-49.65-9-75a170.22,170.22,0,0,1,16.54-77.24c10-20.69,26.47-36.25,48.39-43.81a108.33,108.33,0,0,1,39.41-5.67c6.56.27,13.86,1.15,19.77,4.28,5.09,2.69,7.71,7.79,10.12,12.8,2.22,4.62,9.09.58,6.88-4Z"/><path d="M1273.26,621.66c-1.32,24-6,48.43-22.66,66.77-3.43,3.79,2.19,9.44,5.64,5.63,18.11-20,23.55-46.14,25-72.4.28-5.12-7.69-5.11-8,0Z"/><path d="M1202.83,612.89c-5.2,2.6-12.77,2.72-19,2-6.39-.78-13.62-2.8-18.51-7a4.07,4.07,0,0,0-5.63,0,4,4,0,0,0,0,5.63c6.58,5.63,15.11,8.18,23.57,9.24,7.83,1,16.4.61,23.57-3,4.59-2.29.56-9.16-4-6.88Z"/><path d="M1256.12,560.31a20.13,20.13,0,0,1,2.33.58,5.9,5.9,0,0,1,1.66,1,6,6,0,0,1,1.85,2.84,19.67,19.67,0,0,1,.39,8.43c-1.3,7.44-8.19,14.64-15.32,16.47-5,1.28-2.86,9,2.12,7.69,10.4-2.67,19.73-12.94,21.11-23.59.52-4.06.52-8.38-1-12.22a14.27,14.27,0,0,0-11-8.86,4.1,4.1,0,0,0-4.9,2.78c-.53,1.94.66,4.51,2.78,4.9Z"/><path d="M1123.78,546.36c-4.93-1.42-10.33-1.52-14.9,1.09a18.33,18.33,0,0,0-7.93,10.37c-3.25,9.74,0,20.18,6.37,27.84,3.7,4.42,8.72,6.64,14,8.5a4,4,0,1,0,2.12-7.68c-3.37-1.18-6.4-2.3-9-4.79a23.51,23.51,0,0,1-4.12-5.58c-.43-.77-1.26-2.41-1.4-2.75.11.27-.25-.71-.32-.92-.14-.42-.26-.85-.37-1.28a19.53,19.53,0,0,1,.33-11.23c.08-.21.45-1.17.35-.94s.33-.66.44-.87a12.67,12.67,0,0,1,1.17-1.86c-.43.56.3-.31.43-.44.29-.31.6-.59.91-.87l.17-.13c-.37.27.51-.32.49-.31.37-.21.74-.42,1.13-.6s0,0-.09,0c.23-.09.48-.17.72-.24a13.75,13.75,0,0,1,1.54-.36c-.59.09.61,0,.81,0,.52,0,1,0,1.57,0a19,19,0,0,1,3.39.7c4.94,1.42,7-6.27,2.12-7.68Z"/><path d="M1114.44,569.31l.27.2-.81-.63a15,15,0,0,1,2.52,2.57c-.21-.26-.42-.53-.62-.8a18.51,18.51,0,0,1,2.32,4c-.14-.31-.27-.63-.4-1,.19.47.37.94.53,1.42a4.28,4.28,0,0,0,1.84,2.38,4,4,0,0,0,3.06.4,4,4,0,0,0,2.79-4.9,23,23,0,0,0-4.53-7.91,15,15,0,0,0-3-2.62,4,4,0,0,0-5.85,4.5,4.38,4.38,0,0,0,1.83,2.38Z"/><path d="M1142.16,533.14a6.61,6.61,0,0,0-.59.83c.31-.73.44-.54.17-.22l-.36.42a19.39,19.39,0,0,1-1.61,1.66l-.92.8c-.67.57.74-.53,0,0l-.41.3a19.74,19.74,0,0,1-2.38,1.43l-.61.31c-.12.05-.86.37-.29.13l-.31.12-.67.23a20.21,20.21,0,0,1-2.88.72c-.25,0-.87.28,0,0a4.13,4.13,0,0,1-.78.08c-.54,0-1.08.06-1.62,0s-1.13,0-1.69-.07l-.87-.08c.73.08-.09,0-.37-.07-2-.36-4.39.54-4.89,2.78-.45,1.94.58,4.52,2.78,4.9a25.41,25.41,0,0,0,16-2.1,24.33,24.33,0,0,0,9.19-8.19,4,4,0,0,0-1.43-5.45,4.08,4.08,0,0,0-5.45,1.42Z"/><path d="M1224.36,632.63c-.3,5.72-.43,11.46-.43,17.19,0,8.39-.35,17.84,2,26,2,7,8.14,11.76,14.24,15.25,9.41,5.38,19.93,8.91,30.15,12.43,13.46,4.63,27,9,40.47,13.63,10.75,3.7,24.18,7,31.7,16.23,8.15,10,6.84,24.67,7.09,36.78.3,14.54-1,29-1.38,43.57-.46,16.6.21,33.29.69,49.89s1.36,33.35,3.36,49.92c.6,5,8.58,5.09,8,0-3.53-29.28-3.8-58.94-4.16-88.4-.18-14.59,1.09-29.14,1.44-43.71.3-12.42.82-26-1.83-38.22-5.52-25.35-34.36-31-55.42-38-12.86-4.29-25.8-8.44-38.5-13.19-8.43-3.15-18.54-6.58-25-13.21-5.93-6.12-4.78-17.41-4.88-25.27q-.14-10.44.41-20.89c.27-5.12-7.69-5.11-8,0Z"/><path d="M1305.11,774.92a92.66,92.66,0,0,0-6.09,22.47c-1,7.47-.34,14,1.15,21.34,4,19.76,7.64,39.72,10.36,59.71,2.63,19.25-.25,39.26-2.58,58.42-2.42,19.88-5.42,39.7-7.35,59.64-.49,5.11,7.48,5.07,8,0,1.9-19.62,4.83-39.13,7.23-58.7,2.29-18.72,5.2-38.33,3-57.17s-5.68-37.73-9.38-56.32c-1.63-8.21-3.73-16-2.75-24.37a87.16,87.16,0,0,1,6.13-22.91c2-4.73-5.76-6.8-7.68-2.11Z"/><path d="M1019.25,996.5c.62-33.62,5.7-67.11,5.62-100.73,0-17.57-2.74-34.81-4.43-52.25-1.65-17.11-3.12-34.17-5.14-51.24a177.48,177.48,0,0,1-1.41-25.86c.23-8-.07-16.27,2.21-24,4.76-16.08,22.76-20.61,36.84-25.41,15.09-5.15,30.28-10,45.33-15.3,6.62-2.32,13.23-4.75,19.61-7.69,2.57-1.19,5.92-3.09,7.28-3.92a39.25,39.25,0,0,0,7.88-5.76c7.87-8,7.06-21,7.2-31.37.12-8.23,0-16.48-.4-24.7-.24-5.1-8.21-5.13-8,0,.31,6.64.44,13.28.44,19.92,0,5.31-.09,10.62-.45,15.91-.32,4.63-.4,9.88-3.52,13.6-4.15,5-9.42,7.21-16,10.11-6.8,3-13.85,5.43-20.88,7.84-15.26,5.23-30.65,10.11-45.87,15.47-13.11,4.62-27.26,9.41-34.39,22.33-3.38,6.12-4.42,13.19-4.88,20.07a205.83,205.83,0,0,0-.26,25.45c1,17.17,3.86,34.23,5.24,51.39,1.41,17.38,4.12,34.65,5.16,52.06,2.25,38-4.51,76.12-5.21,114.09-.09,5.13,7.88,5.13,8,0Z"/><path d="M1051.68,774.12c3,7.77,6.81,15.32,8.91,23.42,2.41,9.3.08,17.56-1.75,26.77-3.69,18.58-7.17,37.51-9.37,56.32s.68,38.47,2.87,57.18c2.28,19.57,5.08,39.07,6.92,58.69.48,5.07,8.45,5.11,8,0-1.84-19.62-4.64-39.12-6.92-58.69s-5.23-39.84-2.58-59.37,6.2-39.31,10.15-58.75c1.72-8.46,2.59-15.77.39-24.26-2.1-8.11-5.86-15.66-8.91-23.42-1.85-4.72-9.56-2.67-7.68,2.11Z"/><path d="M1215.25,945a178.61,178.61,0,0,0-87.34,18.28c-4.6,2.27-.57,9.14,4,6.88a170.39,170.39,0,0,1,83.32-17.2c5.13.25,5.11-7.72,0-8Z"/><path d="M1237,685.76c-14.55,45.16-92.18,45.59-108,1.15-1.7-4.8-9.4-2.73-7.68,2.12,18.41,51.86,106.27,51.75,123.31-1.15,1.58-4.89-6.11-7-7.68-2.12Z"/><path d="M1099.84,611.75a102.24,102.24,0,0,1,1.94,38c-1.1,7.87-4,15.37-4.48,23.34a34.58,34.58,0,0,0,6.48,22.53c3,4.13,9.89.15,6.89-4-5.1-7.07-6.31-14.85-4.77-23.35,1.3-7.13,3.51-14,4.14-21.27,1-12.22.52-25.45-2.52-37.37-1.27-5-9-2.86-7.68,2.12Z"/><path class="cls-9" d="M1456,567.88a89.62,89.62,0,1,1-86,114.76,88.44,88.44,0,0,1-3.62-25.12A89.71,89.71,0,0,1,1456,567.88Zm-32.1,138.88,93.14-49.24-93.14-49.28Z"/><polygon class="cls-4" points="1517.06 657.52 1423.92 706.76 1423.92 608.24 1517.06 657.52"/><path d="M1541.65,657.5c-.27,35.47-22.53,68.23-56.11,80.42a86.59,86.59,0,0,1-95.34-25.61c-23.13-27.51-26.11-68-7.68-98.78s55.06-47.1,90.17-40c39.85,8,68.65,43.54,69,84,0,5.12,8,5.14,8,0-.3-39.21-25-74.7-62-88.11-36.65-13.3-79.28-1.53-103.91,28.66s-28.24,73.82-8.1,107.44c20.26,33.84,60.53,51.5,99.17,43.72,43.27-8.72,74.47-47.88,74.81-91.71C1549.66,652.37,1541.69,652.37,1541.65,657.5Z"/><path d="M1421.9,611.69l81.58,43.12,11.59,6.13v-6.88l-81.58,43.12-11.59,6.13,6,3.44v-98.5c0-5.13-8-5.14-8,0v98.5a4,4,0,0,0,6,3.44l81.58-43.12,11.59-6.13a4,4,0,0,0,0-6.88l-81.58-43.12-11.59-6.13C1421.39,602.41,1417.36,609.29,1421.9,611.69Z"/><path d="M1370.13,1000.49c2.56,0,3.82-2.33,5.25-4.08q3.6-4.38,7.19-8.78,7.25-8.88,14.46-17.81,13.73-17.05,27.08-34.39,13.65-17.7,26.88-35.69,6.81-9.3,13.48-18.7c3.7-5.2,9.14-11,11-17.15,3.33-11.13-5.84-21.45-11.31-30.12a59.81,59.81,0,0,0-10-12.14,8.45,8.45,0,0,0-9.64-1.87c2.66-1-.51.33-.88.5a12.34,12.34,0,0,0-2.13,1.62c-2.11,1.78-4,3.82-6,5.7-5.27,5-10.34,10.11-15.32,15.35-9.57,10.06-19.18,20.1-29.39,29.5-10.58,9.74-22.2,18.69-30.54,30.57-9,12.77-12,28.49-18,42.68-2,4.72,5.73,6.78,7.68,2.12,4.92-11.69,7.69-24.37,13.9-35.49,5.66-10.15,14.47-18.06,23-25.71,18.12-16.13,34.21-34.08,51.64-50.88,2-1.9,4-3.73,6-5.63a13.41,13.41,0,0,0,1.41-1.41l1.19-1.08c-1.7.14-1.79.12-.28-.05.94-1.55,1.46-.79,2.35.3,1.4,1.71,3,3.14,4.51,4.79,3.62,4.09,6.43,9.43,9.36,14,2.57,4,6,9.08,5,14.16s-6.31,10.39-9.33,14.67q-6.15,8.7-12.42,17.29-11.43,15.63-23.18,31c-18.08,23.69-36.79,46.89-55.72,69.9l2.82-1.17c-5.17,0-5.18,8,0,8Z"/><path d="M1452.13,827.34c11.62-10.16,21.78-21.84,33.51-31.9,6.37-5.46,13-10.66,19.7-15.67,6.28-4.69,12.54-6.74,20.41-5.93,7,.71,13.81,3,20.7,4.52,3.31.7,6.65,1.24,10,1.87l4.33.82c2.14.41,2.66-.06.58.38-1.53.33-3.33,1.75-5,2.21a34.26,34.26,0,0,1-6.35,1.15,83.62,83.62,0,0,1-10.26.11c-3.41-.13-6.83-.44-10.24-.44s-5.31.83-8.38,1.95c-4.78,1.75-2.71,9.45,2.12,7.69a25.75,25.75,0,0,1,11.35-1.47,133.65,133.65,0,0,0,13.72.24c7-.4,16.73-1.68,20.91-8.23s-1.4-10.37-7.32-11.44c-8.57-1.55-17-3.5-25.46-5.48-7.66-1.79-15.75-3.06-23.48-.93-8.74,2.4-15.87,9.24-22.84,14.74-15.62,12.34-28.67,27.12-43.6,40.18-3.87,3.38,1.79,9,5.64,5.63Z"/><path d="M1498.33,829.39c6.7,1.54,13,4.47,19.86,5.44s14.51-.42,21.48-1.09a132.07,132.07,0,0,0,21.3-3.45c6.79-1.81,12.89-4.83,19.08-8.08,6.93-3.63,13.85-7.3,20.61-11.22,5.3-3.08,9.84-7,11.86-13,1.38-4.08,3.27-11.66,1.23-15.78-2.7-5.39-8.85-3.72-13.28-1.86-4.66,1.94-2.61,9.66,2.12,7.68a12.16,12.16,0,0,1,3.24-1.26c1.35-.12.31-1.33.6.51s-.57,4.61-1,6.5c-1.36,5.78-5.52,8.47-10.4,11.24-10,5.69-20.46,12.33-31.38,16.12-10.23,3.55-21.13,4.41-31.84,5.3-5.54.45-10.72,1.12-16.18-.25-5.12-1.28-10-3.32-15.16-4.5-5-1.16-7.12,6.52-2.12,7.68Z"/><path d="M1541,820a90.63,90.63,0,0,0,22.31-4.89c7.73-2.93,15.43-5.92,23.18-8.82,8-3,15.93-6.39,23.83-9.75,4.7-2,.65-8.87-4-6.88-7.27,3.1-14.52,6.17-21.92,8.94-14.27,5.34-28.1,11.73-43.37,13.43-5,.56-5.1,8.53,0,8Z"/><path d="M1540.76,809.33a127.61,127.61,0,0,0,28.06-5.4c9.27-2.93,18.65-5.56,27.85-8.7,4.83-1.64,2.76-9.34-2.11-7.68-8.87,3-17.91,5.56-26.84,8.37a121.68,121.68,0,0,1-27,5.44c-5.08.42-5.13,8.39,0,8Z"/><path d="M1523.5,795.19c12.64,2.73,25.42,6.54,38.5,5.58,7.73-.57,14.27-3.82,21.5-6.28,4.15-1.42,8.88-2.28,12.8-4.22,1.28-.63,2.89-1.1,4.12-1.77l1.11-.26c-.51-1-1-2-1.52-2.94a10.71,10.71,0,0,0-2,1.29c-4.23,2.85-.24,9.75,4,6.87,2.89-1.94,6.33-3.82,6.08-7.86-.27-4.24-3.81-5.83-7.59-5.23-4.15.65-7.57,2.72-11.44,3.94-5.33,1.69-10.67,3.41-15.85,5.54-15.59,6.37-31.88,1-47.56-2.35-5-1.08-7.13,6.6-2.12,7.69Z"/><path d="M1475,857.59c4.72-5.13,8.76-10.9,14.15-15.39s11-8.08,16.38-12.34c1.68-1.34,1.4-4.23,0-5.63-1.66-1.66-4-1.35-5.64,0-5.34,4.26-11.12,7.95-16.37,12.33s-9.44,10.26-14.15,15.4a4,4,0,0,0,5.63,5.63Z"/><path d="M1929.89,657.5c0,.24,0,.48,0,.72,0,.67,0-.29.05-.36a6.66,6.66,0,0,0-.27,1.13,4.21,4.21,0,0,0-.23.65c0-.09.44-.88.13-.33s-.45.78-.7,1.17c-.42.65.53-.52.14-.19-.14.12-.25.28-.38.41s-.21.22-.32.32c-.31.29-.72.35.12,0-.33.16-.63.43-1,.61l-.4.22c-.65.37.92-.28,0,0-.37.11-.73.23-1.11.31s-.5-.13.24,0a3,3,0,0,0-.59,0c-.4,0-.8,0-1.2,0-.55,0,1,.21.25,0L1924,662c-.22-.06-.44-.14-.66-.22-.41-.13-.09-.25.32.15a7.23,7.23,0,0,0-1-.55l-.47-.32c-.44-.25.75.68.19.14a6.6,6.6,0,0,0-.93-1c.44.26.45.64.21.28-.13-.2-.26-.38-.37-.57s-.15-.26-.22-.4-.07-.13-.11-.2c-.18-.38-.13-.27.13.33a10.69,10.69,0,0,0-.36-1.09c0-.15-.07-.31-.1-.46-.17-.77.08,1,0,0a7.79,7.79,0,0,1,0-1.08c0-.39.26-.92,0,.12,0-.15.06-.31.09-.46a10.86,10.86,0,0,1,.33-1.11c.24-.79-.45.83,0,.12.11-.2.21-.4.33-.6l.3-.47c.28-.45.4-.14-.14.17.26-.14.54-.6.77-.81s.68-.49.11-.12l.14-.09c.33-.22.94-.39,1.18-.67-.05.06-.94.34-.32.14l.66-.21c.21-.06,1.32-.24.61-.16s.06,0,.18,0,.4,0,.6,0l.6,0c.81,0-.85-.19-.12,0,.44.11.89.23,1.33.37.75.24-.64-.38-.22-.09.21.15.48.24.7.38a3,3,0,0,1,.38.24c.13.08.25.17.37.26-.51-.4-.6-.46-.29-.2l.8.79c.57.58-.51-.78-.07-.1l.37.57c.12.2.22.4.33.6.35.63-.29-.87,0-.12.14.45.26.88.37,1.33s-.15.33,0-.36a6.19,6.19,0,0,0,.06,1,4,4,0,0,0,8,0,12.82,12.82,0,0,0-8.46-11.9,12.57,12.57,0,0,0-13.67,3.65,12.59,12.59,0,0,0,12.12,20.58c5.82-1.05,9.93-6.57,10-12.33a4,4,0,0,0-8,0Z"/><path d="M1865.18,667.35h-206l4,4V536.84l-4,4h206l-4-4v134.5c0,5.12,8,5.13,8,0V536.84a4,4,0,0,0-4-4h-206a4,4,0,0,0-4,4v134.5a4,4,0,0,0,4,4h206C1870.31,675.32,1870.32,667.35,1865.18,667.35Z"/><path d="M1700.8,608.07h122.79c5.13,0,5.14-8,0-8H1700.8c-5.13,0-5.14,8,0,8Z"/><path d="M1707.3,641h109.78c5.13,0,5.14-8,0-8H1707.3c-5.12,0-5.13,8,0,8Z"/><path d="M1690.58,575.23h143.23c5.13,0,5.13-8,0-8H1690.58c-5.12,0-5.13,8,0,8Z"/><path d="M1672,716.75h193.22l-4-4V823.43c0,5.12,8,5.13,8,0V712.76a4,4,0,0,0-4-4H1672c-5.12,0-5.13,8,0,8Z"/><path d="M1700.8,758.6h122.79c5.13,0,5.14-8,0-8H1700.8c-5.13,0-5.14,8,0,8Z"/><path d="M1823.57,781.37H1702.2c-5.13,0-5.14,8,0,8h121.37c5.13,0,5.14-8,0-8Z"/><path d="M1766.82,812.14h-51.21c-5.13,0-5.13,8,0,8h51.21c5.13,0,5.14-8,0-8Z"/><path d="M1823.57,812.14h-40.41c-5.13,0-5.14,8,0,8h40.41c5.13,0,5.14-8,0-8Z"/><path d="M1600.84,493.66h216.24c5.13,0,5.14-8,0-8H1600.84c-5.13,0-5.13,8,0,8Z"/><path d="M1819.1,486.24l-17-9-2.42-1.28a4,4,0,1,0-4,6.88l17,9,2.41,1.28a4,4,0,0,0,4-6.88Z"/><path d="M1815.07,486.24l-17,9-2.42,1.27a4,4,0,0,0-1.43,5.46,4.07,4.07,0,0,0,5.45,1.42l17-9,2.42-1.27a4,4,0,0,0,1.42-5.45,4.07,4.07,0,0,0-5.45-1.43Z"/><path d="M1805.77,358.82l-19,3-2.7.42c-2.06.33-3.39,3-2.78,4.9a4.11,4.11,0,0,0,4.9,2.79l19-3,2.7-.43c2.06-.32,3.39-3,2.78-4.9a4.1,4.1,0,0,0-4.9-2.78Z"/><path d="M1803.39,360.65l-8.24,17.4c-.39.81-.77,1.63-1.16,2.45-.89,1.88-.59,4.39,1.43,5.45,1.77.94,4.5.59,5.45-1.43l8.24-17.39,1.16-2.46c.89-1.88.58-4.38-1.43-5.45-1.77-.93-4.5-.58-5.45,1.43Z"/><path d="M1604.83,489.68V351.76c0-5.13-8-5.14-8,0V489.68c0,5.13,8,5.13,8,0Z"/><path d="M1597.4,349.75l-9,17-1.27,2.42a4,4,0,0,0,6.88,4q4.47-8.51,9-17l1.27-2.42a4,4,0,0,0-6.88-4Z"/><path d="M1597.4,353.77l9,17c.43.8.85,1.61,1.28,2.42a4,4,0,0,0,5.45,1.42,4.07,4.07,0,0,0,1.43-5.45l-9-17c-.43-.81-.85-1.62-1.28-2.42a4,4,0,0,0-5.45-1.43,4.07,4.07,0,0,0-1.43,5.45Z"/><path d="M1618.08,479.71l60.75-48.81,8.77-7-6.26-.8,16,21.1c1.18,1.55,3.56,2.84,5.45,1.43L1795.7,376l13.14-9.85c4.05-3,.09-10-4-6.88l-92.9,69.63-13.14,9.85,5.45,1.42-16-21.1a4.08,4.08,0,0,0-6.25-.8L1621.22,467l-8.77,7.06c-4,3.21,1.68,8.81,5.63,5.63Z"/><path d="M930,487.45V358c0-14-1.27-28.28,6-41,8.39-14.61,23.88-22.93,40.56-23,3,0,6,0,9.08,0H1894c12.52,0,24.41,4,33.5,12.92,9.84,9.59,13.85,22.16,13.85,35.59V840.91c0,5.13,8,5.14,8,0V388.5c0-15.78,0-31.57,0-47.35-.08-31-24.13-55.08-55.12-55.15-10,0-20.07,0-30.1,0H1000.27c-8.09,0-16.18-.07-24.27,0-21,.21-40.59,12.31-49.23,31.69-5.73,12.85-4.71,26.58-4.71,40.26v129.5c0,5.13,8,5.14,8,0Z"/><path d="M1698.82,1021H993.39c-9.66,0-20.36.93-29.74-1.61a45.41,45.41,0,0,1-17.52-9.25,46.82,46.82,0,0,1-6.35-6.55,44.85,44.85,0,0,1-2.64-3.78,27.21,27.21,0,0,0-1.44-2.43c-.28-.33-.76-2.23-.76-.55,0-5.13-8-5.14-8,0,0,4.78,6,11.17,9,14.53a53,53,0,0,0,15.27,11.7,55.63,55.63,0,0,0,24.67,5.91c2.42,0,4.83,0,7.25,0H1667c10.17,0,20.37.27,30.53,0,.43,0,.87,0,1.31,0,5.13,0,5.13-8,0-8Z"/><path d="M1909.17,840V356.89c0-3.92.06-7.84,0-11.75-.26-16.89-13.21-30.28-30.2-30.63-6.54-.13-13.1,0-19.64,0H994c-10.78,0-20.77,4.45-26.85,13.65-6.82,10.33-4.94,24.26-4.94,36.06v82.07c0,5.13,8,5.13,8,0V363.82c0-11.95-2.42-26.87,7.45-35.73,5.06-4.53,11.23-5.61,17.66-5.61h877.93c1.9,0,3.81,0,5.72,0,13.24.28,22.21,10.71,22.27,23.56.06,13.67,0,27.34,0,41V840c0,5.12,8,5.13,8,0Z"/><path d="M962.2,654.82V879.28c0,30-.21,60.1,0,90.14.08,10.53,4.76,20.26,13.67,26.13,9.41,6.22,20.8,4.94,31.51,4.94h689.14c5.12,0,5.13-8,0-8H996.86c-4.62,0-9.07.05-13.42-1.88-14.36-6.33-13.27-20.41-13.27-33.21V654.82c0-5.13-8-5.13-8,0Z"/><path class="cls-10" d="M940,1046.44a14.22,14.22,0,0,1,4.3,11.17c-1.52,24.68-11.41,76.2-11.41,76.2-23.27-20.43-52.17-33.9-81.21-43.79-30.94-10.55-63.18-17.24-95.54-21.53q-19.53-2.6-39.22-3.94c-2.66-.2-6.11-.58-9.85-.86l.07-1.25,17.44-73.53a14.53,14.53,0,0,1,16-11.11l3,.4c40.09,4.9,131.56,16,187.18,60.24C934,1041,937,1043.66,940,1046.44Z"/><path class="cls-11" d="M941,1149.4c-1.73,26.38-43.56,250.45-48.78,278.38-113.79-12.14-247.57,15.4-298.4,0q3.59-15.27,7.18-30.46,17.19-72.49,34.21-145,15.81-66.81,31.56-133.55c3.9-16.69,7.31-32.27,14.43-47.94a10.64,10.64,0,0,1,2-2.84,5.37,5.37,0,0,1,.84-.75,15.22,15.22,0,0,1,4.43-2.3,20.55,20.55,0,0,1,2.48-.66,1.38,1.38,0,0,1,.44-.09l.62-.13a14.71,14.71,0,0,1,1.46-.22,60.64,60.64,0,0,1,13.68-.18c3.76.26,7.17.66,9.87.84,13.1.88,26.21,2.21,39.22,3.94,32.36,4.29,64.58,11,95.52,21.56,29,9.87,58,23.32,81.19,43.77,1.06.89,2.17,1.86,3.18,2.79A15.88,15.88,0,0,1,941,1149.4Z"/><path d="M710.78,1063.58q6.26-26.36,12.49-52.71c1.63-6.85,3-13.87,4.9-20.64,2.28-7.93,8.69-8.8,15.8-7.92,5.29.66,10.57,1.31,15.84,2,29.68,4,59.26,9.42,87.94,18.12a297.62,297.62,0,0,1,47.63,18.65c14.55,7.34,29.51,16.19,41.1,27.8,6.14,6.15,2.95,17.41,2,25.23-1.13,9-2.51,17.89-4,26.8q-2.61,16-5.63,31.91c-1,5,6.72,7.15,7.69,2.11,4.79-25,10.15-50.78,11.47-76.29.53-10.18-6-15.91-13.3-21.84a182.29,182.29,0,0,0-21-14.74,264.73,264.73,0,0,0-48.81-22.41c-31.07-10.92-63.55-17.46-96.11-22.08q-9.18-1.3-18.38-2.45c-6.28-.79-12.88-2.41-18.94.11-9.48,3.94-11,13-13.06,21.76q-7.65,32.22-15.28,64.45c-1.18,5,6.5,7.12,7.68,2.12Z"/><path d="M597.45,1428.84q30.38-128.8,60.8-257.58c5-21.21,9.87-42.46,15-63.63a220,220,0,0,1,8.71-28.87c2-4.94,3.21-8.7,8.67-10.3,4-1.17,8.37-1.08,12.48-.92a553.5,553.5,0,0,1,122,18.69c37.53,10.17,75.86,24.92,105.34,51,4.72,4.18,6.7,8.33,6.07,14.54-.19,1.92-.52,4.42-.71,5.85-.92,6.77-2,13.52-3.07,20.26-7.1,44.26-15.18,88.36-23.19,132.46q-10.08,55.5-20.45,111c-.34,1.8-.67,3.6-1,5.4-.94,5,6.73,7.16,7.68,2.12q9.7-51.69,19.11-103.44c8.51-46.65,17-93.32,24.69-140.13,1.23-7.49,2.43-15,3.5-22.51.73-5.06,1.94-10.51,1.59-15.65-.65-9.71-8-15.32-15.09-21a195.72,195.72,0,0,0-23.28-16c-16.72-9.8-34.7-17.39-53-23.67-41.4-14.21-85.23-21.75-128.78-25.28-8.94-.73-18.11-2.07-27.09-1.68-7,.3-15.37,1.82-19.34,8.34-5,8.24-7.63,18.92-10.13,28.16-2.82,10.41-5.15,21-7.62,31.47q-31.46,133.44-63,266.86l-7.62,32.34c-1.18,5,6.5,7.11,7.68,2.12Z"/><path class="cls-11" d="M2243.23,1427.78c-106.56-5.13-248.81,16.17-332.34,0-19.47-38.87-35.1-70.92-38.51-80a17.17,17.17,0,0,1,1-14.35c1.19-2.12,2.43-4.25,3.76-6.32,16.47-26.52,40-48.16,64.58-66.45,27.09-20.09,56.49-36.73,86.85-51.08,12.22-5.71,24.61-11.11,37.14-16,2.17-.85,4.2-1.82,6.33-2.61,2.57-1.11,5.35-2.31,8.23-3.28,1.51-.49,3.06-1,4.56-1.37a35.32,35.32,0,0,1,3.59-.76l1.54-.26a20.34,20.34,0,0,1,5.63,0,10.21,10.21,0,0,1,1.06.18c.13,0,.27,0,.44.09a10.37,10.37,0,0,1,5.49,3.27c11.64,13.55,19.74,28.07,28.59,43.65q35.66,62,71.32,124.12Z"/><path class="cls-10" d="M2054.45,1142.33c5.77,2.94,9.77,7.38,13.84,12.66,4.57,5.89,9.42,11.92,13.69,18a19,19,0,0,1,3.37,10.14c.19,4.86-3.1,5.85-6.82,6.13-4.6.35-8.52,2.56-12.86,4.24-12.51,4.93-24.91,10.32-37.12,16-30.35,14.33-59.78,31-86.83,51.08-24.64,18.28-48.13,39.92-64.6,66.43-7.73-15.09-16.53-33.07-21.21-45.07a14.77,14.77,0,0,1,.78-12.52c1.49-2.67,3-5.29,4.72-7.89a146.88,146.88,0,0,1,9.49-13.33c26.14-33.47,62.4-58.3,99.11-78.87q14.91-8.34,30.25-15.88c10.67-5.28,21-8,32.63-10.28,6.58-1.29,11.24-4.87,18-2.46A30.23,30.23,0,0,1,2054.45,1142.33Z"/><path d="M2092.07,1183.78c-6.63-8.71-12.34-18.37-18.4-27.51-4.9-7.41-10.57-15.36-19.12-18.75-10.51-4.15-24,.62-34.25,3.79a223.17,223.17,0,0,0-37.43,16c-45.25,23.79-91.28,54-121.18,96.32-4,5.69-9.31,12.4-10.69,19.4-1.22,6.24,1.39,11.67,3.79,17.25,5.66,13.2,12.11,26.06,18.65,38.83,2.33,4.57,9.21.54,6.87-4-5.38-10.53-10.67-21.12-15.57-31.89-2-4.42-4.56-9.05-5.75-13.78-1.57-6.27,3.26-12.26,6.51-17.23,13.13-20.12,30.77-37.29,49.54-52.13s39.22-27.47,59.94-39.31a276.34,276.34,0,0,1,33.89-16.87c11.26-4.53,23.8-9,36-9.81,10.17-.69,16.5,8.16,21.56,15.75,6.21,9.3,12,19.14,18.75,28,3.07,4,10,.06,6.88-4Z"/><path d="M1914.11,1425.77c-9.13-18.26-18.24-36.53-27.08-54.94-2.86-6-5.71-11.94-8.41-18-2.93-6.56-5-12.12-1.18-19.06,20.09-36,54.66-63.37,88.68-85.43a532.1,532.1,0,0,1,57.61-32.2c10.55-5.11,21.23-10,32.05-14.48,9.3-3.88,18.78-8.44,28.5-11.18,4-1.13,9.76-2.72,13.63-.27,4.35,2.75,7.68,8.88,10.61,13,6,8.51,11.17,17.53,16.33,26.55q17.61,30.78,35.31,61.52,39.71,69.21,79.41,138.45c2.56,4.44,9.44.44,6.88-4Q2208.68,1360,2171,1294.22q-18.75-32.68-37.51-65.35c-5.47-9.54-10.88-19.14-17.11-28.21-5-7.2-10.83-18-20.28-19.28-10.24-1.41-20.1,3.53-29.3,7.29-10.64,4.35-21.28,8.65-31.75,13.4a575.25,575.25,0,0,0-62.07,32.56c-37.1,22.63-73.66,50.49-97.61,87.34-5.67,8.74-10.72,17.11-6.71,27.68,2.17,5.7,4.88,11.23,7.48,16.75,10,21.3,20.56,42.35,31.09,63.39,2.3,4.59,9.17.56,6.88-4Z"/></svg>