<svg id="Layer_1" data-name="Layer 1" xmlns="http://www.w3.org/2000/svg" viewBox="0 0 2742 1523"><defs><style>.cls-1{fill:#eeddd4;}.cls-1,.cls-10,.cls-11,.cls-12,.cls-13,.cls-14,.cls-15,.cls-16,.cls-17,.cls-18,.cls-19,.cls-2,.cls-3,.cls-4,.cls-5,.cls-6,.cls-7,.cls-8,.cls-9{fill-rule:evenodd;}.cls-2{fill:#c6a27c;}.cls-3{fill:#f6d19b;}.cls-4{fill:#ffa507;}.cls-5{fill:#ad775e;}.cls-6{fill:#ffddc0;}.cls-8{fill:#e6c294;}.cls-9{fill:#c6ccd3;}.cls-10{fill:#fff;}.cls-11{fill:#586580;}.cls-12{fill:#bbb5b5;}.cls-13{fill:#e57f7b;}.cls-14{fill:#9ca4b6;}.cls-15{fill:#afd68b;}.cls-16{fill:#b1c1cc;}.cls-17{fill:#afbfca;}.cls-18{fill:#abc2ef;}.cls-19{fill:#febc42;}</style></defs><g id="Ñëîé_3" data-name="Ñëîé 3"><path class="cls-1" d="M0,.26H2742V1522.74H0Z"/></g><g id="Ñëîé_2" data-name="Ñëîé 2"><path class="cls-2" d="M531.12,986.08l-.44-414.93,10.09-9.09,124.66-.68-7.38-11.25L659,360l10.34-7.53,414.49-.47,10.54,8.27.57,192.25-11.77,9.42-22.7,1.09,8.26,8.42.85,10,10.93-6.31,194.3-.63,9.86,7.76.82,119.83-10.35,10.34-12.43,1.52,7.45,10.65-.64,114.06L1362,824.55l409.75,27.74,6.81,7.54.36,361.92-6.18,10.7L1630.2,1299l-14.24,6.39-11.88-1.17-120-20.76-.29,75.42s-262.9,9.38-516.94,9.38-498.32-12.76-498.32-12.76l.43-346.6,8.39-9.9,61-2.52Z"/><path class="cls-3" d="M658.56,415.53H778.44L765,429.7l11.38,7.06-7,11.16,14.7,19.58L781,470.94l-122.43,1.32Z"/><path class="cls-3" d="M1149.37,575.13l54.07-.59.49,45-1.78,6.44L1189,617l-8.66,5.29-10.37-5-5.73-1.28-13.29,8.87Z"/><path class="cls-3" d="M1132.51,712.22h66.55v65.24l-4.82-5-7.27,4.92-14.72-5.91-7-6-14.7,12.1-6.64-4.77-11.4,4.63Z"/><path class="cls-3" d="M949.21,758.91l120.5-.15,0,91.25-123.08-.35,7.13-12.6-7.2-8.44,3.61-10.69,6.59-6.74L942.42,797.6l.9-5.94,16.33-17Z"/><path class="cls-3" d="M927.72,1125.54l123.58-1.68.39,87.29-130.59.41,10.72-11-21.63-11.31,22.26-15.71-4.49-19.5,17.73-6.65-.19-4.36Z"/><path class="cls-4" d="M1965.4,428.22c10.82-5.9,28.84-13.12,43.16-16.11,7.35-1.54,20.88-2.81,20.88-2.81s6.49-6.5,13.81-6.87c11-.56,15.39,9.56,15.39,9.56s59.91,16.57,74.62,46.07c7.39,14.82,15.34,32.27,16.41,54.51,1.07,22-4.71,48.89-4.71,48.89L1951.34,530,1898,540.52,1920.23,517s1.61-16.3,5-32.1C1929.42,465,1937.88,443.25,1965.4,428.22Z"/><path class="cls-5" d="M2019.19,515.09c30.84,1.52,54.65,24.08,77.24,30.67,15.22,4.44,35.6-6,35.6-6l12.73,20.75-17.66,38.87-204.59-18.47-5.72-3,6.4-7.24s-.54-11.3,0-21.58a177.92,177.92,0,0,1,2.3-19.55S1967.57,512.54,2019.19,515.09Z"/><path class="cls-6" d="M1923.73,580.05s13.32-.25,24.4-6.58,19.94-18.72,19.94-18.72,15.82,3.52,29.57-3.78,25.44-25.42,25.44-25.42,10.33,12.59,19.22,19.19,16.33,7.2,16.33,7.2l-4.51-13.32,1.63-10.09s12.28,14,25,21.75a71.58,71.58,0,0,0,25.79,9.35s2.06,15.79,1.39,26.13-4.06,15.22-4.06,15.22a52.81,52.81,0,0,0,12.71-8.64,68.14,68.14,0,0,0,10.17-13.14s20.47,1.89,10.26,28.89c-4.83,12.76-27,23-27,23a332.68,332.68,0,0,1-11.45,31.48,157.55,157.55,0,0,1-12.79,23.5l.5,50.58s-9,13.64-26.57,26.5-43.85,25-43.85,25l-7.46,6.72-7.58,23.75s-8,2.12-13.22,1.06a11.82,11.82,0,0,1-7.54-5.3l-1.2-25.24-24.58-43.46s4.81-7.63,6.76-22.59,2.06-41.39,2.06-41.39a159.28,159.28,0,0,1-11.83-24.47,304.36,304.36,0,0,1-9.55-31.61s-10.87.45-19.18-19.8C1917.87,594.51,1923.73,580.05,1923.73,580.05Z"/><path class="cls-7" d="M1902.77,537.73l21.7-7.76-2.16,23.35s-23.77-1.38-28.16-4.45S1902.77,537.73,1902.77,537.73Z"/><path class="cls-7" d="M1780.3,1065.06l6.36,2.78s4.27,4.41,2.18,7.54-8.34,5.56-8.34,5.56Z"/><path class="cls-4" d="M1831.27,773.76c8.58-8.8,33.79-8,59.37-17.27,18-6.52,44-26.81,51.91-18.13,32.94,36.22,41.16,246.21,41.16,246.21l44.48,106.15s9-123,29.17-210.4,51.39-139.07,51.39-139.07,11.19,2.58,33.79,16.29c12.53,7.6,34.1,13.33,48.59,18.57a72.69,72.69,0,0,1,14.43,7.65l-11.3,413.06,3.58,160.87S2100,1372,1992.5,1372s-224.67-14.34-224.67-14.34,5-213,23.86-386.15C1801.09,885.47,1809.65,795.93,1831.27,773.76Z"/><path class="cls-8" d="M1171.24,861.4l7.33-9.45,172-25.86,13.49-.49,408.47,26.77,6,6.18.24,365.51-6.57,8.71-149.77,70.31-14.25,2.15L1178.7,1231l-7-6.36Z"/><path class="cls-6" d="M1747.69,974.87c7.26-14.82,18.46,10.88,32.8,24.61,8.47,8.11,19.11,17.18,31.43,32.91,8.1,10.34,16.33,27.49,27.22,35.3,14.58,10.45,50,13.47,50,13.47s-11.08,17-15,35.37-.75,38-.75,38-36.37-11.95-47.32-4.74c-13,8.56-27.85,25.9-43.83,37.51-24,17.47-48.23,28.14-53.45,25.56-12.3-6.06,6.5-20.67,19.41-29.21a55.46,55.46,0,0,0,18.51-20.82s-8.18,6-22.31,10.44c-17.34,5.49-41.54,9.35-44.79,5-2.47-3.35-1.13-7.75,2.63-12.66,7-9.18,27.94-12,42.92-21.33a205.81,205.81,0,0,0,33-26.1s-36.18,8-58.51,9.74c-15.09,1.17-22-4-20.89-10.07,1.57-8.37,25.86-14,46-20.69a299.23,299.23,0,0,0,35.39-14.49l-.34-17.27s-11.66-2.43-21.34-1.49c-20.9,2-49.64,7.09-52.4-3-5-18.35,66.82-27.87,66.82-27.87a123.3,123.3,0,0,0-8.23-11.33c-4.82-5.73-10.71-10.22-14.8-19.14C1745.39,993,1745.38,979.58,1747.69,974.87Z"/><path class="cls-9" d="M1951.64,720.51l2.57,26.16,24.55,39.87,1.08,28.14,7.35,4.85,13.44-1.32,9.43-25.11,9.32-6.34s20.23-8.56,36.92-20.6a191.57,191.57,0,0,0,29.84-27.58l4.46-22,8.54,5,7,22.08s-25.16,37.18-45,124S2026.91,1091,2026.91,1091s-5.61,53.48-8.19,123.52-2.23,157.5-2.23,157.5-30.46,1-65.43,0-74.45-4-74.45-4l3.34-197.84,5-88.89s15.74-180.61,32.42-270.79S1951.64,720.51,1951.64,720.51Z"/><path class="cls-9" d="M1826.24,778.81s-11.9,40-21.41,96.79-16.67,130.59-16.67,130.59l-10.47-8.58,2.15-133.36-3.11-9.89-17.3-3.43s7.45-27.19,24.15-45.22S1826.24,778.81,1826.24,778.81Z"/><path class="cls-9" d="M2201.27,788.72s59.27,25.81,62.25,74.12c2.23,36.17-8.21,97.15-22.48,162.27-12.28,56.05-27.65,116.68-37.4,149.5-5.8,19.53-15,29.64-15,29.64s-17.3,16.18-35.31,15.4c-54.83-2.35-168.62-22-230.87-39-21.2-5.78-37.84-7.61-42.22-13.29a51.33,51.33,0,0,1-8.7-29.68c.88-24.49,12-56,22.71-60.75,30.21-13.41,132.41,13.32,132.41,13.32l76.2,2.69a190.48,190.48,0,0,1,6.88-30.47c7-21.06,18.74-46.91,29.27-84.41,12.74-45.41,23.71-98.6,33-130.87C2188.85,788.27,2201.27,788.72,2201.27,788.72Z"/><path class="cls-10" d="M566.78,687c0-49.63,40-89.85,89.43-89.85s89.43,40.22,89.43,89.85-40,89.84-89.43,89.84S566.78,736.66,566.78,687Z"/><path class="cls-10" d="M505.41,1138.1c0-50.4,40.48-91.25,90.41-91.25s90.4,40.85,90.4,91.25-40.48,91.23-90.4,91.23S505.41,1188.48,505.41,1138.1Z"/><path class="cls-10" d="M1197,975.17c0-43.45,31.5-78.68,70.36-78.68s70.35,35.23,70.35,78.68-31.5,78.68-70.35,78.68S1197,1018.62,1197,975.17Z"/><path class="cls-11" d="M553.14,1131.75h48.5v12.56h-48.5Z"/><path class="cls-12" d="M617.87,1120.93h17.49l.48-15.43,8.49-.84.7,16.43,6.55-.16v22.58H617.87Z"/><path class="cls-13" d="M540.17,1145l116.45-.77-2.36,8.72H542Z"/><path class="cls-14" d="M544.12,1155.65l110.41-.75-8.37,19-9.58-2.51-17.35,6.11L599.12,1172l-20.63,6.86-16.94-6.63-8.15.63Z"/><path d="M1888.93,1084.24l-.28,0c-1.5-.14-36.89-3.67-52.87-15.82-2.54-1.93-7.32-8.37-15.55-19.59-7.14-9.74-15.24-20.77-21.2-27.26a88.3,88.3,0,0,0-10.36-9.43c-7.25-5.9-15.48-12.58-29.3-33.7-2.23-3.42-4.6-5-6.52-4.28-2.84,1-5.21,6.61-4.29,14.15,1.73,14.09,8.36,21.16,15.38,28.63,4.07,4.34,8.28,8.82,11.43,14.7a2.85,2.85,0,1,1-5,2.7c-2.8-5.22-6.57-9.24-10.56-13.49-7.34-7.82-14.93-15.9-16.88-31.84-1.2-9.74,2.09-18,8-20.21,2.19-.8,7.85-1.76,13.27,6.51,13.34,20.38,20.85,26.49,28.13,32.4a95.67,95.67,0,0,1,11,10c6.17,6.72,14.36,17.89,21.59,27.74,6.1,8.31,12.4,16.9,14.41,18.43,14.68,11.16,49.61,14.64,50,14.68a2.86,2.86,0,0,1-.27,5.7Z"/><path d="M1714.75,1130.66c-7.34,0-13-.84-15.27-2.87-4.31-3.93-4.65-7.55-4.17-9.89,1-5,6.69-9.38,16.86-13,10.68-3.77,18.87-6.21,26.1-8.36a252.19,252.19,0,0,0,29.18-10.1c17.36-7.37,19.6-14,19-15.75-1.47-2-16.09-6.21-29.5-4.45-2.39.32-5.21.76-8.28,1.23-19.76,3.08-36.62,5.16-42.91-.57a9.37,9.37,0,0,1-3.19-9c1-5.33,6.53-10.29,14.66-13.26,19.59-7.15,44-12.89,53.61-13.57,11.4-.83,29.75,6.93,38.55,10.64l1.28.54a2.86,2.86,0,0,1-2.22,5.27l-1.28-.55c-7.74-3.27-25.84-10.89-35.93-10.21-8,.57-31.13,5.61-52,13.24-6.89,2.52-10.5,6.34-11,9a3.75,3.75,0,0,0,1.43,3.64c4.78,4.35,25.7,1.09,38.19-.85,3.12-.48,6-.93,8.42-1.24,12.44-1.64,33.36,1.43,35.65,8.29.92,2.75,2,12.53-22.2,22.82a255.92,255.92,0,0,1-29.78,10.31c-7.17,2.14-15.28,4.55-25.83,8.27-11.39,4-13,7.68-13.17,8.71-.26,1.31.55,2.83,2.42,4.54,2.82,2.33,27.49,2.19,53.79-4.16,19.39-4.68,37.38-15.3,37.56-15.41a2.85,2.85,0,1,1,2.92,4.9c-.76.46-18.89,11.17-39.14,16.06C1745.41,1128.11,1727.58,1130.66,1714.75,1130.66Z"/><path d="M1707.81,1183.2c-4.66,0-7.73-1-9.67-2.85-3.25-3.18-2.2-8-1.86-9.59,2.37-11,20.31-17.53,39.3-24.48l2.85-1c13-4.78,45.65-34.92,46-35.22a2.86,2.86,0,0,1,3.88,4.19c-1.38,1.27-33.84,31.22-47.89,36.39l-2.86,1.05c-15.92,5.83-34,12.44-35.68,20.32-.72,3.33,0,4.06.28,4.3,1.27,1.25,6.28,2.65,25.44-1.94,6.44-1.54,22.46-5.67,31.86-10.54,14.57-7.53,32.45-21.79,32.63-21.93a2.86,2.86,0,0,1,3.57,4.46c-.75.6-18.5,14.75-33.57,22.54-9.61,5-24.9,9-33.16,11C1719.67,1182.09,1712.82,1183.2,1707.81,1183.2Z"/><path d="M1731.09,1215.41a12.1,12.1,0,0,1-4.17-.64,7.19,7.19,0,0,1-4.65-4.9c-3-10.79,9.41-19.11,21.46-27.16,1.67-1.12,3.33-2.23,4.94-3.33a81.76,81.76,0,0,0,19.28-19.3,2.85,2.85,0,1,1,4.75,3.16,85.66,85.66,0,0,1-20.79,20.83c-1.63,1.13-3.32,2.25-5,3.38-9.87,6.6-21.06,14.08-19.14,20.86a1.52,1.52,0,0,0,1.12,1.1c6,2.23,26.61-6.38,45-18.75,8.3-5.6,17.76-14.53,26.9-23.17,7.35-6.94,14.3-13.5,20.84-18.62,12.16-9.52,47.75,2.63,51.76,4.05a2.85,2.85,0,1,1-1.89,5.38c-14-5-39-10.65-46.35-4.93-6.34,5-13.19,11.42-20.43,18.27-9.32,8.8-19,17.89-27.64,23.75C1764.17,1204.06,1742.9,1215.41,1731.09,1215.41Z"/><path d="M2152.29,1221.89c-87.37,0-226.87-36.63-268.61-50.25-15.74-5.14-16.93-30.19-12.79-51.91,3.64-19.09,13.8-47.2,27.34-46.37,9.92.61,22.76,2.38,39,4.63,32.34,4.47,76.62,10.6,128.37,11.28,32.63.42,35.91,1.63,46.79,5.64,13.63,5,29.36,33.3,30,34.5a2.85,2.85,0,1,1-5,2.76c-4.24-7.66-17.34-28.33-27-31.9-10.17-3.75-13.24-4.89-44.89-5.3-52.1-.68-96.59-6.83-129.07-11.32-16.14-2.24-28.88-4-38.59-4.59h-.19c-6.3,0-16.6,17.65-21.19,41.74-3.51,18.46-3.28,41.43,9,45.42,42.21,13.78,184.74,51.24,271.19,49.93,19.73-.29,30.32-6.5,44.82-44.26,4.83-12.56,22.95-83.7,39.07-156.58l.72-3.24c11.48-51.88,21.41-96.68,19.67-140.83-2.24-57-60.84-79.91-61.43-80.14a2.85,2.85,0,1,1,2-5.33c.63.23,62.74,24.38,65.12,85.24,1.77,44.89-8.22,90-19.8,142.3l-.71,3.23c-14.77,66.74-33.88,143.23-39.32,157.4-14.14,36.81-25.37,47.56-50.07,47.92C2155.26,1221.88,2153.78,1221.89,2152.29,1221.89Z"/><path d="M1778.49,1086.53a2.82,2.82,0,0,1-2.85-2.82v-16.84a2.86,2.86,0,1,1,5.71,0v16.78A2.88,2.88,0,0,1,1778.49,1086.53Z"/><path d="M1611.39,1307.08a61.89,61.89,0,0,1-10.12-.87l-420.8-72.47c-.57-.09-6.06-1-9-4.58s-2.67-9-2.63-9.65V862.72c0-.62.06-6.32,3.63-10s9.56-4.55,10.24-4.65l164.72-24.14a92,92,0,0,1,9.75-1,100.5,100.5,0,0,1,10.13.17l403,26c.35,0,5.53.11,8.4,4,2.6,3.47,2.63,9.44,2.63,10.11V997.79a2.86,2.86,0,0,1-5.71,0V863.22c0-1.53-.36-5.16-1.49-6.68-1-1.33-3.26-1.65-4.05-1.67l-403.16-26.06c-.07,0-4.93-.32-9.52-.16a89.72,89.72,0,0,0-9.12.91l-164.74,24.15c-1.33.2-5.2,1.13-7,3s-2,5-2,6v357c-.06,1.15.06,4.28,1.34,5.83s4.49,2.41,5.5,2.57l420.87,72.49a52.54,52.54,0,0,0,13,.58,39.7,39.7,0,0,0,11.3-3.28l141.53-66.83a14.07,14.07,0,0,0,5.79-5.38c1.57-3.06,1.77-8,1.71-9.64l0-23.09a2.85,2.85,0,0,1,2.85-2.85h0a2.86,2.86,0,0,1,2.85,2.86l-.05,23c0,.19.24,7.32-2.35,12.35-2.7,5.25-8.21,7.83-8.44,7.94L1629.09,1303a44.79,44.79,0,0,1-13.13,3.82A41.38,41.38,0,0,1,1611.39,1307.08Z"/><path d="M1610.74,897.3c-3.12,0-5.71-.13-5.87-.14l-430-39.71a2.85,2.85,0,0,1-2.58-3.1,2.88,2.88,0,0,1,3.11-2.58l429.91,39.69h0s5.44.28,9.75,0a48.93,48.93,0,0,0,7.61-1.07l151.82-38.68a2.88,2.88,0,0,1,3.48,2.06,2.85,2.85,0,0,1-2.06,3.47L1624,896a55.18,55.18,0,0,1-8.64,1.23C1613.86,897.27,1612.24,897.3,1610.74,897.3Z"/><path d="M1616.05,1305.2a2.85,2.85,0,0,1-2.86-2.85l-.1-406.78a2.86,2.86,0,1,1,5.71,0l.1,406.78A2.85,2.85,0,0,1,1616.05,1305.2Z"/><path d="M1267.34,1055.44c-40.45,0-73.35-36.13-73.35-80.55s32.9-80.56,73.35-80.56,73.35,36.14,73.35,80.56S1307.78,1055.44,1267.34,1055.44Zm0-155.4c-37.3,0-67.65,33.58-67.65,74.85s30.35,74.84,67.65,74.84,67.64-33.57,67.64-74.84S1304.63,900,1267.34,900Z"/><path class="cls-15" d="M1358.9,939.54l61,5.55v63.6l-61-5.58Z"/><path d="M1419.9,1011.55h-.26l-61-5.58a2.87,2.87,0,0,1-2.6-2.85V939.54a2.85,2.85,0,0,1,.93-2.11,2.9,2.9,0,0,1,2.18-.74l61,5.56a2.86,2.86,0,0,1,2.6,2.84v63.6a2.86,2.86,0,0,1-2.86,2.86Zm-58.15-11,55.3,5.06V947.7l-55.3-5Z"/><path d="M1388.25,995.24a3,3,0,0,1-1.13-.23c-2.27-1-11.23-16.77-14.39-35.75a2.85,2.85,0,1,1,5.63-.94,94.74,94.74,0,0,0,9.19,27.47c3.89-11.55,13.62-38.34,32.46-60.49a2.86,2.86,0,0,1,4.35,3.7c-19.65,23.11-29.11,51.7-32.23,61.1-1.17,3.56-1.33,4-2.27,4.66A2.89,2.89,0,0,1,1388.25,995.24Z"/><path class="cls-16" d="M1249.92,943.05l56.24,4.7v52.77l-56.24-5.73Z"/><path d="M1306.16,1003.37h-.29l-56.24-5.73a2.85,2.85,0,0,1-2.56-2.84V943.05a2.84,2.84,0,0,1,.92-2.1,2.8,2.8,0,0,1,2.17-.74l56.24,4.7a2.85,2.85,0,0,1,2.62,2.84v52.77a2.92,2.92,0,0,1-.94,2.12A2.89,2.89,0,0,1,1306.16,1003.37Zm-53.38-11.16,50.53,5.15v-47l-50.53-4.22Z"/><path class="cls-11" d="M1228.24,1002a7.07,7.07,0,1,1,7.06,7.37A7.22,7.22,0,0,1,1228.24,1002Z"/><path d="M1235.3,1012.17a10.22,10.22,0,1,1,9.91-10.22A10.09,10.09,0,0,1,1235.3,1012.17Zm0-14.73a4.52,4.52,0,1,0,4.2,4.51A4.37,4.37,0,0,0,1235.3,997.44Z"/><path class="cls-11" d="M1286.73,1008.09a7.06,7.06,0,1,1,7.06,7.36A7.22,7.22,0,0,1,1286.73,1008.09Z"/><path d="M1293.79,1018.3a10.22,10.22,0,1,1,9.91-10.21A10.07,10.07,0,0,1,1293.79,1018.3Zm0-14.72a4.52,4.52,0,1,0,4.2,4.51A4.36,4.36,0,0,0,1293.79,1003.58Z"/><path class="cls-17" d="M1220.07,969.44l13.26-18,8.41.36-.41,42.33-21.47-2.25Z"/><path d="M1241.33,997H1241l-21.48-2.25a2.86,2.86,0,0,1-2.56-2.86l.21-22.5a2.86,2.86,0,0,1,.56-1.67L1231,949.8a2.7,2.7,0,0,1,2.42-1.16l8.41.36a2.85,2.85,0,0,1,2.74,2.87l-.41,42.34a2.91,2.91,0,0,1-1,2.1A2.87,2.87,0,0,1,1241.33,997Zm-18.59-7.67,15.77,1.65.35-36.43-4.14-.17-11.81,16Z"/><path class="cls-10" d="M1234.17,952.67h6.75l-.2,19.42-18.61-1.63Z"/><path d="M1240.72,975h-.25l-18.61-1.64a2.84,2.84,0,0,1-2.11-4.44l12.06-17.8a2.86,2.86,0,0,1,2.36-1.25h6.75a2.87,2.87,0,0,1,2.86,2.88l-.2,19.43a2.86,2.86,0,0,1-2.86,2.83ZM1227.2,968l10.7.94.14-13.46h-2.35Z"/><path d="M2103.11,1096.05a3.12,3.12,0,0,1-.52,0,2.86,2.86,0,0,1-2.3-3.32c4.76-26.14,10.79-41.82,17.77-60,4.86-12.62,10.36-26.93,16.23-47,11.45-39.22,16.37-60.85,23.17-90.77,1.61-7.08,3.32-14.59,5.24-22.88,9.94-42.95,26.46-86.91,41-88.31,2.79-.23,6.67.79,9.58,7.31a2.86,2.86,0,0,1-5.22,2.33c-.84-1.9-2.19-4-3.81-4-8.13.78-24.18,33.08-35.95,83.9-1.92,8.28-3.62,15.79-5.23,22.87-6.83,30-11.75,51.71-23.26,91.1-5.93,20.31-11.48,34.74-16.38,47.47-6.88,17.89-12.82,33.33-17.48,58.94A2.85,2.85,0,0,1,2103.11,1096.05Z"/><path d="M2086.38,740.11a2.85,2.85,0,0,1-2.81-2.43c-1.78-11.83-2.85-36.27,1.5-55.08a2.85,2.85,0,1,1,5.56,1.28c-3.69,16-3.48,39.2-1.42,53a2.86,2.86,0,0,1-2.4,3.25A3,3,0,0,1,2086.38,740.11Z"/><path d="M2016.14,1373.86a2.87,2.87,0,0,1-2.86-2.8c-1.12-55.77-.37-120,2-167.61a3,3,0,0,1,3-2.72,2.87,2.87,0,0,1,2.72,3c-2.32,47.5-3.07,111.57-2,167.23a2.86,2.86,0,0,1-2.8,2.91Z"/><path d="M2027.1,1090h-.31a2.86,2.86,0,0,1-2.53-3.15c6.7-62.62,17.44-149.2,30.52-206.07,21.36-92.86,43.5-135.78,52.44-141,5.28-3.1,15,2.42,30.4,11.71,8,4.84,16.3,9.84,21.89,11.61l6.53,2.08c28.4,9,44,13.94,46.6,25.11a2.86,2.86,0,1,1-5.57,1.27c-1.83-8-18.11-13.14-42.75-20.94l-6.55-2.07c-6.22-2-14.8-7.16-23.09-12.17-7.67-4.62-21.91-13.25-24.58-11.67-5.6,3.28-27.81,41.94-49.76,137.36-13,56.6-23.72,142.94-30.4,205.41A2.86,2.86,0,0,1,2027.1,1090Z"/><path d="M2197.49,1361.05a2.86,2.86,0,0,1-2.85-2.82c-1.09-86.54-3.23-160.25-3.25-161a2.85,2.85,0,0,1,2.77-2.94,2.92,2.92,0,0,1,2.94,2.77c0,.74,2.15,74.49,3.25,161.08a2.86,2.86,0,0,1-2.82,2.89Z"/><path d="M1885.16,1082.3a2.57,2.57,0,0,1-.55-.06,2.84,2.84,0,0,1-2.28-3.13l1-13.86c11.6-149.49,35.76-296.34,48.8-322.92a2.86,2.86,0,0,1,5.13,2.51c-12.82,26.13-36.68,172-48.24,320.84l-1,13.77c0,.11,0,.43-.06.54A2.87,2.87,0,0,1,1885.16,1082.3Z"/><path d="M1876.41,1370.07a2.85,2.85,0,0,1-2.85-2.83c0-.93-.83-94.38,3.69-199a2.93,2.93,0,0,1,3-2.73,2.86,2.86,0,0,1,2.73,3c-4.52,104.45-3.7,197.76-3.69,198.69a2.87,2.87,0,0,1-2.83,2.88Z"/><path d="M1788.29,1011H1788a2.86,2.86,0,0,1-2.53-3.15c14.73-136.12,29.84-213.14,38.28-229.08,6.45-12.17,13.8-13.21,26-14.93a162.37,162.37,0,0,0,26.36-5.52,199.25,199.25,0,0,0,36.47-14.78,152.67,152.67,0,0,1,22.73-9.82,2.85,2.85,0,1,1,1.78,5.42,149.06,149.06,0,0,0-22,9.5,206.06,206.06,0,0,1-37.38,15.15,168.24,168.24,0,0,1-27.21,5.7c-11.77,1.67-16.65,2.35-21.73,11.95-7.92,15-23.09,92.39-37.66,227A2.84,2.84,0,0,1,1788.29,1011Z"/><path d="M1781.18,1083.46h-.25a2.86,2.86,0,0,1-2.6-3.09q.53-6,1.06-11.93a2.85,2.85,0,1,1,5.68.51q-.54,6-1,11.92A2.86,2.86,0,0,1,1781.18,1083.46Z"/><path d="M1766.89,1360.24h0a2.85,2.85,0,0,1-2.82-2.89c0-.5.68-51.06,4.11-123a2.85,2.85,0,0,1,5.7.27c-3.43,71.8-4.09,122.27-4.1,122.77A2.85,2.85,0,0,1,1766.89,1360.24Z"/><path d="M1759.3,851.31a3,3,0,0,1-.88-.14,2.85,2.85,0,0,1-1.83-3.6c5.16-15.89,16.9-36.34,27.32-47.56,16.57-17.84,41-24.69,42.06-25a2.86,2.86,0,0,1,1.51,5.51c-.23.06-24,6.73-39.38,23.35-9.77,10.52-21.23,30.48-26.08,45.43A2.86,2.86,0,0,1,1759.3,851.31Z"/><path d="M1954.29,746.44a2.83,2.83,0,0,1-1.59-.49,2.86,2.86,0,0,1-.77-4c11-16.18,8.11-60.35,8.08-60.8a2.85,2.85,0,1,1,5.69-.39c.13,1.9,3,46.59-9,64.39A2.84,2.84,0,0,1,1954.29,746.44Z"/><path d="M1966.83,954a18.36,18.36,0,0,1-2.46-.15c-7-.86-11.34-5.17-10.92-11,.61-8.69,8.68-81.66,23.65-129.52a2.85,2.85,0,1,1,5.45,1.7c-14.82,47.36-22.8,119.61-23.41,128.23-.27,3.75,4,4.69,5.92,4.92,4.57.55,9.26-1.18,9.68-3.57,1.53-8.81,3.36-20.13,5.35-32.34,5.71-35.25,12.19-75.21,16.65-88.9.83-2.55,1.72-5.62,2.64-8.81,2.15-7.43,4.37-15.1,6.64-19.18,3.82-6.89,10.16-9.82,17.5-13.21,3.33-1.54,6.78-3.14,10.5-5.29C2078.83,751,2088.59,732,2092,720a2.86,2.86,0,1,1,5.49,1.57c-3.71,13-14,33.37-60.65,60.32-3.94,2.27-7.67,4-11,5.52-7,3.21-12,5.54-14.91,10.8-2,3.51-4.17,11.21-6.14,18-.94,3.25-1.84,6.38-2.7,9-4.32,13.27-11,54.73-16.44,88-2,12.24-3.82,23.58-5.36,32.41C1979.4,951.13,1973.12,954,1966.83,954Z"/><path d="M1992.05,822.51c-5.81,0-12.5-1.43-14.31-7.61-1-3.44-.82-6.7-.62-10.16.34-5.91.74-12.6-5.38-22.21-1.39-2.19-2.83-4.35-4.28-6.53-9.26-13.92-18.83-28.32-20.62-54.09a2.86,2.86,0,0,1,5.7-.39c1.68,24.26,10.83,38,19.67,51.32,1.48,2.21,2.93,4.41,4.35,6.63,7.1,11.16,6.64,19.16,6.26,25.6-.18,3.08-.33,5.74.4,8.22,1.34,4.56,11.88,3.74,16.77,2.63a2.87,2.87,0,0,1,3.42,2.15,2.84,2.84,0,0,1-2.15,3.41A44.08,44.08,0,0,1,1992.05,822.51Z"/><path d="M1936.73,825.29a2.71,2.71,0,0,1-.69-.08,2.86,2.86,0,0,1-2.15-2.59c-.18-2.71-4.27-66.56-2.26-77.26,1.12-6,8.49-19,14.08-25,5.37-5.71,10-6.39,13.14-6.85.59-.08,1.13-.16,1.64-.28a2.85,2.85,0,0,1,1.32,5.55c-.66.16-1.37.27-2.13.38-2.72.4-5.8.85-9.8,5.11-5.26,5.59-11.79,17.59-12.64,22.12-1.36,7.23.53,45.49,1.82,67.34,7.27-10.48,21.17-28.39,32.2-30a10,10,0,0,1,8.26,2.38,2.85,2.85,0,1,1-3.79,4.27,4.2,4.2,0,0,0-3.64-1c-10.32,1.5-27.27,25.45-32.93,34.55A2.86,2.86,0,0,1,1936.73,825.29Z"/><path d="M2049.78,837.83a2.73,2.73,0,0,1-.5-.05,2.82,2.82,0,0,1-2.21-1.92c-4-12.25-17.42-43.84-32-42.48a2.86,2.86,0,0,1-.5-5.69c18-1.6,31.38,28.71,36.13,41.4,6.28-8.18,20.72-27.39,33.26-47a2.85,2.85,0,0,1,4.81,3.07c-16.64,26.08-36.58,51.37-36.78,51.62A2.88,2.88,0,0,1,2049.78,837.83Z"/><path d="M2105.36,746.53a2.86,2.86,0,0,1-2.85-2.69,52.69,52.69,0,0,0-5.92-20.06c-3.65-6.38-7.77-7.93-11.67-8.66a2.86,2.86,0,0,1,1-5.62c7,1.31,11.79,4.84,15.57,11.44a58.29,58.29,0,0,1,6.67,22.57,2.85,2.85,0,0,1-2.68,3Z"/><path d="M1979.28,863l-.33,0a2.86,2.86,0,0,1-2.51-3.16c.89-7.65,2.2-13,4.14-16.91a2.85,2.85,0,0,1,5.1,2.55c-1.61,3.23-2.77,8.14-3.57,15A2.85,2.85,0,0,1,1979.28,863Z"/><path d="M1969.93,917.44h-.21a2.86,2.86,0,0,1-2.64-3.06c0-.48.89-11.8,3.24-17.4a2.85,2.85,0,1,1,5.26,2.22c-1.65,3.92-2.59,12.59-2.81,15.6A2.86,2.86,0,0,1,1969.93,917.44Z"/><path class="cls-10" d="M1197.19,227.69h521.86a13,13,0,0,1,13,13V362.91a13,13,0,0,1-13,13H1197.19a13,13,0,0,1-13-13V240.69A13,13,0,0,1,1197.19,227.69Z"/><path d="M1719.05,378.76H1197.19a15.87,15.87,0,0,1-15.85-15.85V240.69a15.87,15.87,0,0,1,15.85-15.85h521.86a15.87,15.87,0,0,1,15.85,15.85V362.91A15.87,15.87,0,0,1,1719.05,378.76ZM1197.19,230.55a10.15,10.15,0,0,0-10.14,10.14V362.91a10.15,10.15,0,0,0,10.14,10.14h521.86a10.15,10.15,0,0,0,10.14-10.14V240.69a10.15,10.15,0,0,0-10.14-10.14Z"/><path class="cls-7" d="M1236.78,264.91h24.13a47.47,47.47,0,0,1,13.5,2,36.27,36.27,0,0,1,12.21,6.25,32,32,0,0,1,8.83,10.92,34.89,34.89,0,0,1,3.38,16,33.84,33.84,0,0,1-3.38,15.64,32.53,32.53,0,0,1-8.83,10.92,37.87,37.87,0,0,1-12.21,6.45,44.4,44.4,0,0,1-13.5,2.14h-24.13Zm9.83,61.66h12.31a37.31,37.31,0,0,0,11.76-1.79,27.23,27.23,0,0,0,9.34-5.16,23.07,23.07,0,0,0,6.1-8.34,27.53,27.53,0,0,0,2.19-11.22,28.32,28.32,0,0,0-2.19-11.52,22.64,22.64,0,0,0-6.1-8.29,27,27,0,0,0-9.34-5.06,38.2,38.2,0,0,0-11.76-1.74h-12.31Z"/><path class="cls-7" d="M1322.16,326.47h36.74v8.74h-46.57v-70.3h45.08v8.64h-35.25V294.6h33.16V303h-33.16Z"/><path class="cls-7" d="M1381.83,326.47h31.38v8.74H1372v-70.3h9.82Z"/><path class="cls-7" d="M1432.56,335.21h-9.82v-70.3h9.82Z"/><path class="cls-7" d="M1473,322.5h.29l21.15-57.59H1505l-27.6,70.3h-9.13l-27.4-70.3h10.92Z"/><path class="cls-7" d="M1523.21,326.47H1560v8.74h-46.56v-70.3h45.07v8.64h-35.25V294.6h33.16V303h-33.16Z"/><path class="cls-7" d="M1582.88,335.21h-9.82v-70.3h22.53a42.81,42.81,0,0,1,9.63,1,23.67,23.67,0,0,1,8,3.32,16.36,16.36,0,0,1,5.42,6,19.13,19.13,0,0,1,2,9.08c0,5.16-1.59,9.34-4.76,12.51a22.2,22.2,0,0,1-12.31,6.06l19.65,32.27h-11.91l-17.87-31.28h-10.53Zm0-39.52h11.32a33.56,33.56,0,0,0,6.46-.59,16.44,16.44,0,0,0,5.21-1.94,10.23,10.23,0,0,0,.1-17.53,14.94,14.94,0,0,0-5-1.83,31.88,31.88,0,0,0-6-.55h-12Z"/><path class="cls-7" d="M1660.72,335.21h-9.93V304.83l-26.31-39.92h12.12l19.46,31.77,19.56-31.77H1687l-26.31,39.92Z"/><path d="M1052.11,1371.31a2.86,2.86,0,0,1-2.85-2.85V1011a10.15,10.15,0,0,0-10.14-10.14h-557A10.15,10.15,0,0,0,472,1011v345.44a2.86,2.86,0,1,1-5.71,0V1011a15.87,15.87,0,0,1,15.85-15.85h557A15.87,15.87,0,0,1,1055,1011v357.42A2.86,2.86,0,0,1,1052.11,1371.31Z"/><path d="M1056.16,999.44H544.09a15.87,15.87,0,0,1-15.85-15.85V574.81A15.87,15.87,0,0,1,544.09,559h512.07A15.87,15.87,0,0,1,1072,574.81V983.59A15.87,15.87,0,0,1,1056.16,999.44ZM544.09,564.67A10.15,10.15,0,0,0,534,574.81V983.59a10.15,10.15,0,0,0,10.14,10.14h512.07a10.14,10.14,0,0,0,10.13-10.14V574.81a10.14,10.14,0,0,0-10.13-10.14Z"/><path d="M1269.54,839.78a2.81,2.81,0,0,1-2.85-2.81V725.48a10.15,10.15,0,0,0-10.14-10.14H1070.68a2.86,2.86,0,0,1,0-5.71h185.87a15.87,15.87,0,0,1,15.85,15.85V836.87A2.91,2.91,0,0,1,1269.54,839.78Z"/><path d="M1170.44,1080.25H1052.88a2.92,2.92,0,0,1-2.92-2.85,2.81,2.81,0,0,1,2.8-2.86h117.68a2.86,2.86,0,1,1,0,5.71Z"/><path d="M1484.15,1363.88a2.86,2.86,0,0,1-2.85-2.85V1283.2a2.86,2.86,0,0,1,5.71,0V1361A2.86,2.86,0,0,1,1484.15,1363.88Z"/><path d="M1272.11,715.58H1082.89c-9,0-16.37-7.11-16.37-15.85V587.14c0-8.73,7.35-15.84,16.37-15.84h189.22c9,0,16.38,7.11,16.38,15.84V699.73C1288.49,708.47,1281.14,715.58,1272.11,715.58ZM1082.89,577a10.42,10.42,0,0,0-10.66,10.14V699.73a10.42,10.42,0,0,0,10.66,10.14h189.22a10.42,10.42,0,0,0,10.67-10.14V587.14A10.42,10.42,0,0,0,1272.11,577Z"/><path d="M1081.73,565H671.4a15.86,15.86,0,0,1-15.84-15.85V365a15.86,15.86,0,0,1,15.84-15.85h410.33A15.87,15.87,0,0,1,1097.58,365V549.16A15.87,15.87,0,0,1,1081.73,565ZM671.4,354.89A10.14,10.14,0,0,0,661.27,365V549.16A10.14,10.14,0,0,0,671.4,559.3h410.33a10.15,10.15,0,0,0,10.14-10.14V365a10.15,10.15,0,0,0-10.14-10.14Z"/><path d="M1201.71,630.44c-2.2,0-4.09-2.34-5.11-3.61l-1.12-1.34c-2.11-2.53-3.93-4.71-6.64-5.17-.64-.11-1.45.37-2.72,1.16-1.63,1-3.86,2.43-6.72,2a21.71,21.71,0,0,1-7.22-2.6c-2.72-1.4-4.69-2.41-8.21-1.53a10.27,10.27,0,0,0-4,2.61,21.05,21.05,0,0,1-3.63,2.76c-4.31,2.77-6.46,1.59-7.54.14-1.93-2.56-2.5-19.39-1.71-50a2.74,2.74,0,0,1,2.93-2.78,2.85,2.85,0,0,1,2.78,2.93c-.47,18.29-.42,38.51.39,45l.32-.19a17.65,17.65,0,0,0,2.69-2.09,15.09,15.09,0,0,1,6.41-3.87c5.62-1.4,9.12.4,12.21,2a16.76,16.76,0,0,0,5.42,2c.78.14,1.58-.39,2.87-1.2,1.72-1.08,3.87-2.43,6.7-2,4.8.8,7.61,4.17,10.08,7.14l.05.06c.39-8.57.19-27.71-.32-45.28a2.87,2.87,0,0,1,2.77-2.94,2.83,2.83,0,0,1,2.94,2.77c1.49,51.26-.21,52.4-1.72,53.4A3.28,3.28,0,0,1,1201.71,630.44Zm-48.19-8.67h0Z"/><path d="M1197.72,781h-.17c-2.12-.15-3-2-4.44-5.46l-.84.69c-2.27,1.88-4.61,3.83-7.24,3.31-2.92-.59-11.37-2.83-15.24-6.15a12.9,12.9,0,0,1-2.44-3.12,7.44,7.44,0,0,0-1.52-2c-2-1-5.24,3.29-7.57,6.44-2.2,3-3.93,5.3-6.15,6-3.37,1.1-5.5-1.8-6.65-3.36a8.88,8.88,0,0,0-1.27-1.51c-1-.23-1.77.24-3.49,1.56s-3.8,2.92-6.83,2.44-4-.67-3.68-66.74a2.85,2.85,0,0,1,2.85-2.84h0a2.86,2.86,0,0,1,2.84,2.87c-.11,19.76,0,50.77.69,60.22l.62-.47c1.82-1.4,4.56-3.51,8.53-2.52,2,.52,3.31,2.23,4.32,3.61.2.28.47.65.71.94a42.09,42.09,0,0,0,2.9-3.64c3.33-4.51,8.38-11.31,14.71-8.15a10,10,0,0,1,3.82,4.09,9.27,9.27,0,0,0,1.3,1.81c2.28,1.95,8.52,4,12.36,4.82a18.39,18.39,0,0,0,2.76-2c2.21-1.84,4.94-4.12,7.55-2.4.56-11.65.57-35,.19-56.23a2.86,2.86,0,1,1,5.71-.1c.41,23,.74,62.11-1.67,66.34A3.23,3.23,0,0,1,1197.72,781ZM1136.9,776h0Zm48.82-2Z"/><path d="M723.66,474.28c-29.95,0-61-.22-63.26-.23a2.86,2.86,0,0,1,0-5.71h0c1,0,97.79.68,116.44-.33,3.69-.2,4.42-1,4.42-1,0-1.65-5.73-7.15-8.2-9.5-3.74-3.57-5.73-5.52-6.28-7.47-1-3.52,1.43-6.28,3.39-8.5,1.14-1.3,2.56-2.91,2.35-3.75-.23-.39-1.91-1-2.81-1.29-2.65-.94-6.67-2.35-7.54-6.73-.62-3.1,1.95-6.18,6.91-10-11.54-.22-34-.33-54.4-.42-19.36-.1-39.38-.19-53.88-.37a2.86,2.86,0,0,1-2.82-2.89,2.8,2.8,0,0,1,2.89-2.82c14.49.18,34.49.28,53.83.37,64.61.3,64.61.3,65.43,2.76.71,2.14-.72,3.1-2.89,4.57-7.25,4.91-9,7-9.41,7.86.34.93,1.51,1.43,3.77,2.23,2.51.88,5.63,2,6.46,5.3.94,3.74-1.58,6.61-3.61,8.9-.76.86-2.33,2.65-2.18,3.16.35.73,2.88,3.14,4.73,4.9,5.59,5.33,11.37,10.83,9.56,15.73-1.53,4.16-7.46,4.48-9.41,4.59C769,474.15,746.66,474.28,723.66,474.28Z"/><path d="M968.13,1215.11c-27.67,0-48.21-.29-49.85-1.1a3.35,3.35,0,0,1-1.92-2.91c-.05-2.42,2.14-3.63,5.77-5.65,1.74-1,5.64-3.13,6.58-4.43-2.18-2.07-9.32-4.49-13.65-6-5.8-2-7.36-2.5-7.91-4.45a3.12,3.12,0,0,1,.59-2.73c3.34-4,7.49-6,11.5-7.89a37,37,0,0,0,7.54-4.32c3.46-2.76,2.76-4.89.86-9.44-1.41-3.36-3-7.17-1.43-11.38,1.71-4.58,6.6-5.92,10.91-7.1,3.83-1,6.36-1.86,6.64-3.55.47-2.77-5.57-7-8.46-9.06-1-.72-1.94-1.36-2.62-1.9-6.66-4.1-7.35-6-7.46-7.44a3.36,3.36,0,0,1,1.18-2.86c1.05-.9,2.48-2.15,123.61-1.62a2.86,2.86,0,0,1,0,5.71h0c-39.9-.17-97.91-.16-115.72.46.48.31,1,.66,1.6,1l.35.23c.65.52,1.46,1.09,2.37,1.73,4.73,3.33,11.87,8.35,10.81,14.67-.9,5.42-6.37,6.92-10.77,8.12-3.13.86-6.37,1.74-7.07,3.6-.78,2.08.21,4.43,1.35,7.16,1.87,4.45,4.42,10.54-2.55,16.12a42.31,42.31,0,0,1-8.66,5,39.32,39.32,0,0,0-6.82,3.8l2,.7c7.36,2.5,13.68,4.8,16.3,7.8a5.13,5.13,0,0,1,1.28,4.31c-.52,3-3.76,5.33-7.2,7.33,20.51.52,80.86.22,122.69-.19a2.89,2.89,0,0,1,2.88,2.82,2.86,2.86,0,0,1-2.83,2.89C1022.62,1214.88,992.59,1215.11,968.13,1215.11Z"/><path d="M1030.5,853.08c-82.91,0-84.72-.91-85.37-1.23a3.5,3.5,0,0,1-1.84-2.26c-.47-1.77.45-3.45,1.3-4.73a28,28,0,0,1,2.28-2.86c1.24-1.41,2.52-2.87,2.79-4.22.19-.92-.33-1.61-2.09-3.33s-4.49-4.4-3.67-8.49c.65-3.25,2.93-9.09,6.56-11.81.43-.32,1-.66,1.52-1a8,8,0,0,0,2.06-1.56c-.38-1.34-3.59-3.38-5.94-4.87-4.56-2.9-10.23-6.5-8.78-12.3,1.35-5.43,5.7-9.33,9.53-12.78a47.21,47.21,0,0,0,4.87-4.79c.3-.34.64-.72,1-1.1.54-.58,1.81-1.93,1.83-2.45-.52-3.59-7-8.59-13.15-11.66a2.87,2.87,0,0,1-1.5-3.22c.55-2.34.55-2.34,18.1-2.48,9.36-.08,22.11-.14,35.72-.18,27.2-.08,57.8-.11,71.45-.11a2.86,2.86,0,0,1,0,5.71c-29.94,0-89.86.09-112.88.34,3.74,2.86,7.31,6.63,7.91,10.81.45,3.13-1.81,5.54-3.31,7.14-.29.3-.56.59-.78.86a53.29,53.29,0,0,1-5.45,5.38c-3.53,3.18-6.87,6.18-7.8,9.91-.46,1.81,3.29,4.19,6.3,6.1,3.68,2.34,7.49,4.75,8.39,8.37,1.07,4.25-2.6,6.52-4.57,7.74a11.47,11.47,0,0,0-1.09.71c-1.92,1.43-3.82,5.48-4.4,8.36-.18.91.34,1.59,2.08,3.3,1.91,1.87,4.51,4.42,3.69,8.52-.57,2.84-2.44,5-4.09,6.86-.3.34-.59.67-.86,1,14.86.58,75.38.65,116.55.56h0a2.86,2.86,0,0,1,0,5.71C1053.28,853.06,1041.21,853.08,1030.5,853.08Z"/><path d="M656.21,778.45a91.89,91.89,0,1,1,91.91-91.89A92,92,0,0,1,656.21,778.45Zm0-178.07a86.18,86.18,0,1,0,86.2,86.18A86.29,86.29,0,0,0,656.21,600.38Z"/><path d="M596.44,1231.69a93.83,93.83,0,1,1,93.83-93.83A93.94,93.94,0,0,1,596.44,1231.69Zm0-181.94a88.12,88.12,0,1,0,88.13,88.11A88.21,88.21,0,0,0,596.44,1049.75Z"/><path class="cls-15" d="M766.78,646.82h67.9v64.39h-67.9Z"/><path d="M834.68,714.06h-67.9a2.85,2.85,0,0,1-2.85-2.85V646.82a2.85,2.85,0,0,1,2.85-2.85h67.9a2.86,2.86,0,0,1,2.85,2.85v64.39A2.86,2.86,0,0,1,834.68,714.06Zm-65-5.71h62.19V649.68H769.63Z"/><path class="cls-15" d="M707.14,1099H775v64.38h-67.9Z"/><path d="M775,1166.24h-67.9a2.85,2.85,0,0,1-2.85-2.86V1099a2.85,2.85,0,0,1,2.85-2.86H775a2.86,2.86,0,0,1,2.85,2.86v64.38A2.86,2.86,0,0,1,775,1166.24Zm-65-5.71h62.18v-58.68H710Z"/><path d="M801,697.65a2.86,2.86,0,0,1-1.15-.24c-2.26-1-11.22-16.79-14.38-35.74a2.85,2.85,0,1,1,5.63-.94,94.7,94.7,0,0,0,9.2,27.47c3.88-11.54,13.62-38.35,32.46-60.49a2.86,2.86,0,1,1,4.35,3.7c-19.65,23.09-29.11,51.68-32.23,61.08-1.18,3.58-1.33,4-2.29,4.68A2.85,2.85,0,0,1,801,697.65Z"/><path d="M740.12,1151.64a3,3,0,0,1-1.14-.23c-2.26-1-11.22-16.76-14.39-35.75a2.86,2.86,0,0,1,5.64-.93,94.25,94.25,0,0,0,9.19,27.46c3.89-11.54,13.62-38.34,32.46-60.49a2.85,2.85,0,1,1,4.34,3.71c-19.65,23.1-29.11,51.69-32.22,61.09-1.18,3.57-1.33,4-2.29,4.66A2.83,2.83,0,0,1,740.12,1151.64Z"/><path d="M578.06,1180.79c-4.38,0-8-1.82-11.2-3.45a30.62,30.62,0,0,0-6.14-2.57c-2.29-.58-5,.41-8.08,1.53-5.24,1.91-11.76,4.27-18.7-.9a2.86,2.86,0,0,1,3.41-4.58c4.48,3.33,8.59,1.85,13.34.11,3.65-1.32,7.43-2.69,11.42-1.69a34.26,34.26,0,0,1,7.32,3c3.49,1.76,6.49,3.27,10.21,2.71a29.29,29.29,0,0,0,7.89-2.77c4.18-1.93,8.5-3.93,14.53-3a25.18,25.18,0,0,1,6.21,2.06,24.46,24.46,0,0,0,10.09,2.57c4.22.1,7.39-1.29,10.47-2.65a25.53,25.53,0,0,1,7.57-2.43c4-.45,7,1,10,2.35,3.86,1.78,7.19,3.32,12.94,1.34a2.85,2.85,0,1,1,1.87,5.39c-7.93,2.75-13.08.37-17.21-1.55-2.56-1.19-4.6-2.12-7-1.86a21.06,21.06,0,0,0-5.89,2c-3.49,1.54-7.45,3.23-12.94,3.14a30.31,30.31,0,0,1-12.21-3,19.85,19.85,0,0,0-4.8-1.65c-4.34-.68-7.54.82-11.27,2.55a34.39,34.39,0,0,1-9.41,3.22A16.12,16.12,0,0,1,578.06,1180.79Z"/><path d="M563.39,1199.46c-7.31,0-13.88-4.2-14.19-4.4a2.85,2.85,0,0,1,3.1-4.79c.07,0,6.79,4.28,12.9,3.35a29.05,29.05,0,0,0,7.89-2.77c4.19-1.93,8.51-3.93,14.53-3a25,25,0,0,1,6.2,2.06,24.87,24.87,0,0,0,10.1,2.57c3.87.15,6.29-1,9.06-2.27a28.05,28.05,0,0,1,9-2.82c4.11-.46,7.13,1.2,9.79,2.68,3.22,1.79,5.77,3.21,10.43,1.48a2.85,2.85,0,1,1,2,5.35c-7.13,2.64-11.59.16-15.18-1.84-2.28-1.27-4.1-2.27-6.36-2a22.58,22.58,0,0,0-7.24,2.34,24.64,24.64,0,0,1-11.61,2.79,30.08,30.08,0,0,1-12.21-3,20.24,20.24,0,0,0-4.8-1.64c-4.31-.67-7.53.82-11.26,2.55a34.13,34.13,0,0,1-9.42,3.22A17.36,17.36,0,0,1,563.39,1199.46Z"/><path d="M647.38,1175.23a2.78,2.78,0,0,1-1.34-.34,2.85,2.85,0,0,1-1.18-3.86c6.26-11.72,7.87-20.3,8.28-24.4l-109.15.72c1.3,5.07,4.63,15,12.06,22.57a2.85,2.85,0,0,1-4.07,4c-11.66-11.81-14.24-28.29-14.34-29a2.89,2.89,0,0,1,.65-2.28,2.85,2.85,0,0,1,2.15-1l115.65-.75h0a2.85,2.85,0,0,1,2.85,2.65c0,.48.7,11.87-9.06,30.16A2.86,2.86,0,0,1,647.38,1175.23Z"/><path d="M543.93,1157.16a2.86,2.86,0,0,1,0-5.71l109.47-.3h0a2.86,2.86,0,0,1,0,5.71l-109.48.3Z"/><path d="M553,1145.56a2.85,2.85,0,0,1-2.85-2.84l0-11.3a2.86,2.86,0,0,1,2.84-2.86l48.81-.3h0a2.83,2.83,0,0,1,2,.82,2.88,2.88,0,0,1,.85,2v10.69a2.86,2.86,0,1,1-5.71,0V1134l-43.1.27v8.45a2.84,2.84,0,0,1-2.84,2.86Z"/><path d="M617.25,1145.27h0a2.87,2.87,0,0,1-2.83-2.88l.19-21.38a2.86,2.86,0,0,1,2.85-2.83l33.58-.13h0a2.86,2.86,0,0,1,2.85,2.84l.14,20.83a2.86,2.86,0,0,1-2.84,2.87h0a2.85,2.85,0,0,1-2.85-2.84l-.12-18-27.92.11-.17,18.56A2.85,2.85,0,0,1,617.25,1145.27Z"/><path d="M635.23,1121.3a2.86,2.86,0,0,1-2.86-2.84l-.08-13.62a2.84,2.84,0,0,1,2.81-2.87l9.62-.14a2.94,2.94,0,0,1,2,.81,2.81,2.81,0,0,1,.86,2l.14,13.62a2.85,2.85,0,0,1-2.82,2.88h0a2.86,2.86,0,0,1-2.86-2.82l-.1-10.76-3.93.05.07,10.79a2.86,2.86,0,0,1-2.84,2.88Z"/><path d="M639.31,1099.1a2.86,2.86,0,0,1-2.84-2.59c-.29-3.13-.49-10.91,4.09-15.5a2.85,2.85,0,0,1,4,4c-2,2-2.9,6.08-2.44,10.93a2.85,2.85,0,0,1-2.58,3.11Z"/><path class="cls-18" d="M598,698c.43-4.93,9.08-8.8,19.58-9.72,10.12-.88,48.92-4.21,69.14-7,12.17-1.71,13.24-11.83,15.21-11.55s-.86,5.76-3.52,11.83c-2.28,5.23-6.82,12.06-14.36,13.94-19.86,4.95-59.36,6.56-64.64,6.9C606.47,703.19,597.53,702.91,598,698Z"/><path d="M610,705.57c-6.54,0-10.94-.8-13.24-3.15a5.76,5.76,0,0,1-1.65-4.69c.66-7.71,12.36-11.45,22.17-12.31l1.6-.14c11.92-1,48.19-4.2,67.4-6.89,7.1-1,9.6-5.25,11.26-8.06,1-1.71,2.27-3.85,4.75-3.48a3.51,3.51,0,0,1,2.62,1.79c1.29,2.34-.13,5.51-2.71,11.27L701,682.64c-2.11,4.83-7,13.26-16.29,15.57-17.86,4.46-51.18,6.23-62.12,6.81l-3,.17C616,705.43,612.79,705.57,610,705.57Zm85.43-24.52a20.44,20.44,0,0,1-8.36,3c-19.35,2.71-55.74,5.87-67.69,6.91l-1.6.14c-10.76.95-16.78,4.74-17,7.12h0a.81.81,0,0,0,0,.17c.39.66,3,2.12,18.37,1.1l3.1-.17c10.81-.57,43.71-2.33,61-6.65C689.8,691.05,693.61,685,695.43,681.05ZM598,698h0Z"/><path d="M606.34,693.13h0l-23.18-.25a2.86,2.86,0,0,1,0-5.71h0l23.19.25a2.86,2.86,0,0,1,0,5.71Z"/><path d="M730.62,694.45h0l-65.25-.7a2.84,2.84,0,0,1-2.82-2.88A2.79,2.79,0,0,1,665.4,688l65.25.7a2.86,2.86,0,0,1,0,5.71Z"/><path d="M700.13,677.69a120.45,120.45,0,0,1-14.32-.7,2.85,2.85,0,1,1,.72-5.66c10.58,1.34,29.42.17,29.61.16a2.82,2.82,0,0,1,3,2.66,2.85,2.85,0,0,1-2.67,3C716,677.22,708.45,677.69,700.13,677.69Z"/><path class="cls-7" d="M678.38,701.56a4.57,4.57,0,1,1,4.57,4.65A4.61,4.61,0,0,1,678.38,701.56Z"/><path class="cls-7" d="M662.11,700.69a4.12,4.12,0,1,1,4.11,4.19A4.15,4.15,0,0,1,662.11,700.69Z"/><path class="cls-7" d="M621.63,694.58a2.69,2.69,0,1,1,2.68,2.44A2.57,2.57,0,0,1,621.63,694.58Z"/><path class="cls-7" d="M630.32,694.08a2.69,2.69,0,1,1,2.68,2.44A2.57,2.57,0,0,1,630.32,694.08Z"/><path class="cls-7" d="M638.66,693.48a2.7,2.7,0,1,1,2.68,2.44A2.57,2.57,0,0,1,638.66,693.48Z"/><path class="cls-7" d="M646.93,692.79a2.69,2.69,0,1,1,2.68,2.44A2.57,2.57,0,0,1,646.93,692.79Z"/><path class="cls-7" d="M654.94,692a2.7,2.7,0,1,1,2.69,2.44A2.58,2.58,0,0,1,654.94,692Z"/><path d="M2021.3,725.41c-9,0-16.28-3.23-24.07-8.21a125.57,125.57,0,0,1-45.91-52.28c-8-17.23-12.65-40.9-15.16-57.72a2.86,2.86,0,0,1,5.65-.85c2.45,16.46,7,39.56,14.69,56.17a119.78,119.78,0,0,0,43.81,49.87c10.56,6.74,19.54,9.72,34.19,5,15.38-5,42.44-21.29,54.46-42,9.53-16.39,16.8-43.3,21.44-62.12a2.85,2.85,0,0,1,5.54,1.37c-4.73,19.16-12.15,46.6-22,63.62-13.5,23.19-42.51,39.61-57.64,44.51A48.34,48.34,0,0,1,2021.3,725.41Z"/><path d="M2022.4,632.5a2.84,2.84,0,0,1-1.81-.65c-1.21-1-11.79-10-10.47-18.58.41-2.65,2.17-4.74,4.2-7.17,4.92-5.87,11.67-13.92,1-35.27a2.86,2.86,0,1,1,5.11-2.56c12.35,24.71,3.54,35.22-1.73,41.5-1.42,1.69-2.76,3.3-2.92,4.37-.71,4.58,6,11.31,8.45,13.3a2.86,2.86,0,0,1-1.82,5.06Z"/><path class="cls-7" d="M1975.15,583.55c.07-7.55,4.46-13.63,9.8-13.59s9.61,6.21,9.53,13.75-4.46,13.63-9.8,13.58S1975.08,591.09,1975.15,583.55Z"/><path d="M1941.74,628.46a2.55,2.55,0,0,1-.72-.1c-10.65-2.77-21.66-17.12-22.67-29.52-.64-7.74-.06-13.69,1.75-18.19a2.86,2.86,0,1,1,5.3,2.13c-1.47,3.66-1.92,8.76-1.37,15.59.82,10,10.11,22.3,18.43,24.47a2.86,2.86,0,0,1-.72,5.62Z"/><path d="M2110.41,632.2h-.34a2.86,2.86,0,0,1-2.8-2.91,2.82,2.82,0,0,1,2.91-2.79h.26c9.26,0,21.44-10.41,24.74-21.21,2.51-8.22,2.42-15.11-.24-18.9-1.59-2.26-4.11-3.45-7.71-3.63a2.85,2.85,0,1,1,.28-5.7c6.73.34,10.29,3.47,12.1,6.05,5,7.17,2.81,18,1,23.85C2136.63,620,2122,632.2,2110.41,632.2Z"/><path d="M1923.48,573.47a2.87,2.87,0,0,1-2.83-2.46c-.13-.91-3.15-22.66,1.45-40.29a2.85,2.85,0,0,1,5.52,1.44c-4.3,16.5-1.35,37.84-1.32,38.05a2.85,2.85,0,0,1-2.42,3.23A2.69,2.69,0,0,1,1923.48,573.47Z"/><path d="M2136,583.7a2.85,2.85,0,0,1-2.41-4.38c2.15-3.4,6.15-13.25,6.44-20.8a2.93,2.93,0,0,1,3-2.74,2.85,2.85,0,0,1,2.74,3c-.35,9.1-4.94,19.88-7.32,23.63A2.85,2.85,0,0,1,2136,583.7Z"/><path d="M1976.93,557.94a86.38,86.38,0,0,1-29.5-5.52,2.86,2.86,0,0,1,1-5.5c.22,0,22.62-.67,34.51-20.42a2.86,2.86,0,0,1,4.89,3,47.51,47.51,0,0,1-27,20.94c9.64,2.07,23.89,3.43,36.32-2.1,10.19-4.52,17.62-13,22.09-25.23a2.85,2.85,0,1,1,5.36,2c-5,13.74-13.49,23.33-25.16,28.51A55.63,55.63,0,0,1,1976.93,557.94Z"/><path d="M2110.46,562.67c-5.87,0-16.29-1.26-30.14-8-10.94-5.3-19.63-16-24.17-22.51a16.43,16.43,0,0,0,0,5.89c1.25,6,5.45,12.8,5.49,12.87a2.85,2.85,0,0,1,.13,2.77,2.88,2.88,0,0,1-2.28,1.58c-.59.05-15.39,1.21-34.79-23.16a57.72,57.72,0,0,1-8.83-15.69,2.86,2.86,0,0,1,5.35-2,51.8,51.8,0,0,0,7.94,14.15c10.68,13.41,19.54,18.28,24.75,20a43.68,43.68,0,0,1-3.35-9.37c-1.55-7.44,1.89-14.72,2-15a2.84,2.84,0,0,1,5-.18c.11.18,10.78,18.56,25.14,25.52,9.91,4.8,17.86,6.57,23.33,7.14a63.45,63.45,0,0,1-7-6.53,2.86,2.86,0,0,1,4.19-3.88,54.82,54.82,0,0,0,13.24,10.61,2.85,2.85,0,0,1-.68,5.31A25.35,25.35,0,0,1,2110.46,562.67Z"/><path d="M2102.88,605.5a2.85,2.85,0,0,1-2.59-4.07c.09-.19,8.66-18.76,3.34-38.32a2.86,2.86,0,0,1,2-3.5,2.83,2.83,0,0,1,3.5,2c3.79,13.91,1.35,27-1,34.89,7.21-4.87,18-15.23,18-33.74a3,3,0,0,1,2.86-2.84,2.85,2.85,0,0,1,2.85,2.86c-.09,31.19-27.68,42.41-28,42.52A2.71,2.71,0,0,1,2102.88,605.5Z"/><path d="M1923.22,582.2a54.8,54.8,0,0,1-12.79-1.37,2.85,2.85,0,0,1,0-5.49,41.33,41.33,0,0,0,21.94-18.47,2.85,2.85,0,0,1,5,2.78,46.43,46.43,0,0,1-16.3,16.92c11.43.56,31.13-2.08,44.52-23.24a2.85,2.85,0,1,1,4.82,3C1956.55,578.18,1936.28,582.2,1923.22,582.2Z"/><path class="cls-7" d="M2049.71,585.29c.08-7.54,4.47-13.62,9.8-13.58s9.61,6.2,9.54,13.75-4.47,13.62-9.8,13.58S2049.64,592.84,2049.71,585.29Z"/><path d="M2007.15,557.79a2.78,2.78,0,0,1-1.36-.35,34.68,34.68,0,0,0-8.11-2.78,2.86,2.86,0,0,1,1.24-5.58,39.74,39.74,0,0,1,9.61,3.35,2.86,2.86,0,0,1-1.38,5.36Z"/><path d="M2090.39,565.29a2.87,2.87,0,0,1-1.75-.6,39.1,39.1,0,0,0-37.24-6.19,2.85,2.85,0,0,1-2.23-5.25,44.35,44.35,0,0,1,43,6.93,2.86,2.86,0,0,1-1.76,5.11Z"/><path class="cls-10" d="M1991.08,646.48a274.78,274.78,0,0,0,33.2,3.07,222.91,222.91,0,0,0,31.22-1.84s-7.53,32.93-31.92,32.64C1995.22,680,1991.08,646.48,1991.08,646.48Z"/><path d="M2023.91,683.2h-.36c-30.5-.37-35.26-36-35.3-36.37a2.86,2.86,0,0,1,3.28-3.17,273.65,273.65,0,0,0,32.81,3,218.62,218.62,0,0,0,30.75-1.81,2.85,2.85,0,0,1,3.19,3.46C2058,649.77,2050,683.2,2023.91,683.2Zm-29.28-33.31c1.94,8.31,8.62,27.36,29,27.6h.28c16.75,0,24.82-18.16,27.63-26.42a224.89,224.89,0,0,1-27.29,1.33A265.26,265.26,0,0,1,1994.63,649.89Z"/><path class="cls-7" d="M2017.26,743.08c-11.5-4.34-22.86-16.83-31.59-27.52a215.64,215.64,0,0,1-21.47-31.65,133.35,133.35,0,0,0,28,27.79c8.08,5.81,18,13.39,27.89,13.58,25.55.5,65.74-36.42,65.74-36.42l-2.25,27.65S2045.91,753.91,2017.26,743.08Z"/><path class="cls-7" d="M1949.19,725.63c0-3.87,11.3-10.78,11.3-6.92s-4.24,25.31-6.37,25.31S1949.19,729.5,1949.19,725.63Z"/><path class="cls-7" d="M2087,733.23c0-3-1.55-18.09.15-18.09s7.44.48,7.44,3.5S2087,736.25,2087,733.23Z"/><path d="M2144.94,564.6a2.86,2.86,0,0,1-2.6-1.67c-7.19-15.77-20.29-31.33-35.05-41.6-45.86-32-122.76-35.16-175.07-7.29-11.77,6.28-30.87,24.94-36,33.77a2.85,2.85,0,0,1-4.93-2.87c5.59-9.63,25.53-29.16,38.25-35.94,54-28.79,133.56-25.44,181,7.64a112,112,0,0,1,37,43.92,2.85,2.85,0,0,1-1.42,3.78A2.74,2.74,0,0,1,2144.94,564.6Z"/><path d="M2144.12,567.21a2.86,2.86,0,0,1-.76-5.61c1.55-2.17,3.81-14.23,3.68-39-.08-16.74-.78-30.07-9.1-49.12-11.42-26.19-47.66-56.13-100.24-60-47.16-3.44-87.31,24.32-99.55,44.17-8.62,14-12.17,37.37-14.52,52.83-.49,3.21-.92,6.11-1.35,8.56a2.86,2.86,0,0,1-5.63-1c.42-2.42.86-5.27,1.34-8.43,2.41-15.93,6.07-40,15.3-55,13-21,55.25-50.48,104.83-46.87,54.94,4,93,35.66,105.06,63.38,8.75,20.05,9.49,33.94,9.57,51.37.23,44.31-5.9,44.54-8.52,44.64Z"/><path d="M1920.93,557.11h-.15c-22.59-1.09-27.56-3.9-29.57-6.76a5.37,5.37,0,0,1-.74-4.73c4.53-14.74,85.38-36.85,123.56-33.8,31.86,2.55,48.75,13,62.33,21.36,8.75,5.4,16.32,10.07,25.95,11.49,8.68,1.3,16.14-2.49,22.72-5.82,1.46-.74,2.85-1.44,4.17-2a2.85,2.85,0,1,1,2.38,5.18c-1.26.58-2.58,1.25-4,2-7,3.53-15.64,7.91-26.13,6.38-10.8-1.59-18.83-6.55-28.12-12.28-13.73-8.48-29.3-18.09-59.78-20.53-39.08-3.13-114.57,19.75-117.65,29.79.27.3,3,3,25.13,4.11a2.85,2.85,0,0,1-.13,5.7Z"/><path d="M2129,539.85a3.07,3.07,0,0,1-.53-.05,2.85,2.85,0,0,1-2.28-3.33c.06-.31,5.64-30.79.28-56.14-4.44-21-14.43-39-26.09-47a2.85,2.85,0,1,1,3.23-4.7c12.82,8.78,23.72,28.13,28.45,50.49,5.6,26.49,0,57.09-.26,58.38A2.86,2.86,0,0,1,2129,539.85Z"/><path d="M2057.93,414.32a2.86,2.86,0,0,1-2.61-1.69,12.41,12.41,0,0,0-10.79-7.45c-4.8-.37-9.33,1.71-11.6,5.27a2.85,2.85,0,0,1-4.82-3.06c3.44-5.4,9.82-8.45,16.84-7.91a18.23,18.23,0,0,1,15.59,10.83,2.86,2.86,0,0,1-1.45,3.77A2.94,2.94,0,0,1,2057.93,414.32Z"/><path class="cls-19" d="M1892.49,337.57c3.29.14,34,46.65,34.29,51.37.2,3.4-12.69,11.35-15.3,11s-42.42-42.24-41-45.57C1871.62,351.73,1888.39,337.4,1892.49,337.57Z"/><path d="M1911.59,402.79a4,4,0,0,1-.5,0c-4.87-.68-38.62-38.28-42.5-45.16-.73-1.3-1.39-2.83-.72-4.37,1.26-2.92,18.67-18.51,24.61-18.51h.14c6.25.27,36.81,50.65,37,54,.11,1.85-1,3.75-3.38,6C1923.16,397.61,1915.45,402.79,1911.59,402.79Zm-38-47.9c3.71,6.77,33.11,38.23,38.57,42.15,2.5-.65,10.51-5.88,11.72-8.14-1.66-5.77-26.43-43.21-32-48.33C1888.07,341.93,1876.48,351.49,1873.59,354.89Z"/><path class="cls-19" d="M1814.87,436.56c2.61-2,56.06,13.82,59.3,17.25,2.35,2.48-2.41,16.86-4.64,18.25s-59.65-5-60.7-8.49C1808,460.83,1811.62,439.06,1814.87,436.56Z"/><path d="M1866.31,475.05c-13.59,0-50.56-5.43-56.83-7.78-1.4-.52-2.9-1.27-3.38-2.88-1.13-3.75,2.54-26.64,7-30.1h0c5-3.8,60.77,15.08,63.12,17.56,1.27,1.34,1.67,3.5,1.25,6.78-.56,4.36-3.34,13.91-6.46,15.85C1870.42,474.88,1868.74,475.05,1866.31,475.05ZM1811.55,462c7.19,2.79,50,7.94,56.64,7.44,1.5-2.12,4.27-11.26,3.74-13.78-5-3.34-48-16.05-55.58-16.41C1814.29,442.73,1811.58,457.52,1811.55,462Zm60.32-6.55Zm-56.17-16.19Zm-.83-2.68h0Z"/><path class="cls-19" d="M1836.72,371c3.16-.81,57.18,40.82,58.85,45.22,1.2,3.18-5.57,14.7-9.33,15.69s-66.77-34-66.41-37.56C1820.11,391.56,1832.8,372,1836.72,371Z"/><path d="M1886.45,434.76c-8.2,0-61-31.36-67-36.46-1.26-1.08-2.6-2.39-2.42-4.2.35-3.57,13.52-24.43,19-25.84,6-1.53,60.64,42.83,62.22,47,.78,2.08.12,5.19-2,9.26-.48.92-4.76,9-9.29,10.21A2,2,0,0,1,1886.45,434.76Zm-.27-5.64ZM1823,393.88c6.86,6.11,55.46,33.39,62.82,35.16,2.35-1.34,7.09-9.17,7-11.77-3.95-5.4-48.12-39.51-55.83-43.19C1833.62,376.62,1825,389.56,1823,393.88ZM1836.72,371h0Z"/><path d="M1680.54,229.16a2.86,2.86,0,0,1-2.86-2.86V171.84a2.86,2.86,0,1,1,5.71,0V226.3A2.86,2.86,0,0,1,1680.54,229.16Z"/><path d="M1242.24,229.06a2.86,2.86,0,0,1-2.85-2.85V171.74a2.86,2.86,0,1,1,5.71,0v54.47A2.86,2.86,0,0,1,1242.24,229.06Z"/></g></svg>