<svg id="Layer_1" data-name="Layer 1" xmlns="http://www.w3.org/2000/svg" viewBox="0 0 2742 1523"><defs><style>.cls-1{fill:#9f94d6;}.cls-1,.cls-2,.cls-3,.cls-4,.cls-6,.cls-7,.cls-8{fill-rule:evenodd;}.cls-2,.cls-5{fill:#fff;}.cls-3{fill:#ffddc0;}.cls-4{fill:#e2b27f;}.cls-6,.cls-9{fill:#6050d6;}.cls-7{fill:#355c84;}</style></defs><g id="Ñëîé_2" data-name="Ñëîé 2"><path class="cls-1" d="M0,.26H2742V1522.74H0Z"/></g><g id="Ñëîé_1" data-name="Ñëîé 1"><path class="cls-2" d="M1491.2,879.82l3.94-7.88,31.39-19.87,145.09,43.71s9.67,15.34,15.52,30.17a144.55,144.55,0,0,1,7.87,29.13s22.34,18.82,49.2,42.57c23.77,21,51.72,44.87,61.48,77.74,13.73,46.22,10.76,109.8,15.35,172.9,8,110.72,16.59,218.57,16.59,218.57s-86.93,15.54-199.05,15.54-249.41-15.54-249.41-15.54-1-18.27-1.26-35.36c-.42-24-.8-53.55-6.68-95.14-5-35.11-14.49-65.61-21.26-95.08-7-30.29-11.08-59.09-11.08-59.09s-16.77,19.4-40.93,55.94c-27.71,41.93-65.14,103.54-98.13,135.72-22,21.45-53.65,27.51-62.89,24.26-4.16-1.47-18.52-3.08-30.31-17.46-17.26-21.07-33.52-61.55-41.31-103.26-7.1-38-4.12-76.43-1.33-119.2,3.25-49.9,7.14-103.65,7.93-137.72.44-18.94-3.19-35.82.39-46,4-11.4,83-11.48,122.74,8.32,4.42,2.2.37,18.64.29,50-.09,41.32,2.87,99.85,2.87,99.85s44.67-90.21,55.22-112.63c7.52-16,41.88-77.11,60.09-91.59,31.67-25.19,68.46-25.52,100.61-31.43A520.72,520.72,0,0,0,1491.2,879.82Z"/><path class="cls-3" d="M1058.57,728.27s-10.56-27.1-5.29-38,23-9,23-9-11.43-30.47-4.66-41.09c12.55-19.69,42.45,7.77,42.45,7.77s6.18-11.09,13.52-7,15.83,23.35,15.83,23.35-11.2-96.89-7.42-138.86c2.34-26,18.14-19.32,22.86-11.11,5.67,9.88,10.09,55,17.18,102.86,10,67.78,23.74,148.64,23.74,148.64s5.71,47.25,1.29,81.83c-3.67,28.72-7.81,60.06-9,89-1.11,27,.6,52.64.6,52.64s-27.4,9.35-52.68,7-48.43-16.35-48.43-16.35,4.44-47.88-1.27-64.31c-7.64-22-17.65-34.07-29.85-59-14.07-28.8-30.09-70.54-33.14-95.59-2-16.6,3.24-31.29,7.91-36.12C1044.47,715.28,1058.57,728.27,1058.57,728.27Z"/><path class="cls-4" d="M1552.58,586.43c15.86-13.47,37.29-17.9,59.38-27.62,13.55-6,22.33-17.8,36.34-22.86,61.18-22.11,123.53,57.55,123.53,57.55s22.67,30.71,35,75c9.24,33.09,9.6,80.52,4,108.1-6,29.6-41.26,40-64.39,71.5-12.5,17-11.36,45.5-11.36,45.5s-10.06-4.15-14-14.69-1.81-27.49-1.81-27.49l-174.52-24.09s-24.5,4.37-35-4.21c-11.49-9.4-27.86-36.89-26.85-56.58.89-17.6,18.63-28.1,18.63-28.1S1484.49,644.25,1552.58,586.43Z"/><path class="cls-3" d="M1630,637.63c14.9-16.57,59.15-26.63,76.56-.21,9.15,13.89,12.25,43.66,20.21,64.88a485.44,485.44,0,0,0,29.79,64.48s-18,50.24-38.33,80-43,38.87-43,38.87-6.07,9.74-11.37,39.91c-2,11.54,3.52,27.46-.45,41.68-6.18,22.1-26.37,42.25-34.53,63.28-10.82,27.85-8.07,63.49-8.07,63.49s-15.23-24.54-21.22-48.82c-4.81-19.56-2.16-39.08-12.23-63.73s-24.53-33.91-35.83-53.83c-14-24.77-24-57.52-24-57.52s11.17-11.51,16.42-36.53,4.58-63.56,4.58-63.56-17.45-7.66-24.76-23.12c-4-8.51-3.66-20.55,1.3-32.24,6.32-14.89,35.11-1.71,51.66-15.89C1596.86,681.55,1615.57,653.73,1630,637.63Z"/><path d="M1191.42,991.5a3.42,3.42,0,0,1-3.42-3.32c-1.62-52.52,2.37-83,7-118.31,5.19-39.73,5.42-69.1.7-89.83-4.75-20.91-16.52-53.2-35.31-81.12-14.95-22.22-21.53-35.07-25.45-42.75-2.18-4.25-3.61-7.06-5.22-9.09-1.27-1.6-3.2-3.53-5.26-3.67q-2.2-.13-4.74,2.28c-6,5.67-6.13,24.49-.36,40.27a151.64,151.64,0,0,0,13.07,26.69c6.43,10.93,11.5,19.57,10.67,35.19s-3.34,25.82-5.77,35.69c-4.11,16.74-8,32.55-1.69,73.63a3.42,3.42,0,1,1-6.77,1c-6.51-42.43-2.47-58.88,1.81-76.3,2.35-9.57,4.78-19.46,5.58-34.42.72-13.57-3.66-21-9.73-31.36a157.45,157.45,0,0,1-13.61-27.81c-6.07-16.63-7-39,2.07-47.58,3.11-3,6.58-4.39,10-4.15,3.65.25,7.06,2.35,10.15,6.25,2,2.56,3.59,5.6,5.94,10.22,3.86,7.54,10.32,20.17,25,42,19.32,28.71,31.43,61.92,36.31,83.43s4.71,51.69-.58,92.19c-4.58,35.06-8.53,65.29-6.93,117.26a3.43,3.43,0,0,1-3.32,3.53Z"/><path d="M1119.46,753.6c-6.53,0-13.34-5.07-18.56-14-13-22-40.28-81.62-34.42-97.14,3.5-9.25,10-12,14.77-12.77,12.3-1.87,27.54,8,33.35,15.53a3.43,3.43,0,0,1-5.42,4.19c-4.79-6.2-17.67-14.32-26.92-13-4.41.67-7.48,3.42-9.37,8.43-4.12,10.88,18.23,64.57,33.91,91.24,4.14,7,9.44,11.15,13.54,10.5,2.79-.45,5-3.32,6-7.89,1.61-7.36-2.75-24-4.39-30.26a3.42,3.42,0,1,1,6.62-1.74c3.18,12.12,6.19,25.56,4.47,33.46-1.63,7.47-5.85,12.28-11.58,13.2A12.84,12.84,0,0,1,1119.46,753.6Z"/><path d="M1117.87,804.09a15.21,15.21,0,0,1-4.42-.69c-13.23-4-28.55-26.17-31.49-30.58-25.59-38.38-36.59-63.12-34.61-77.89.8-6,3.42-10.56,7.78-13.59,8.73-6.08,21.23-3.37,21.76-3.25a3.42,3.42,0,0,1-1.49,6.68c-.11,0-10.15-2.16-16.38,2.2-2.74,1.92-4.33,4.82-4.88,8.87-1.7,12.66,9.58,37.28,33.52,73.18,7.82,11.73,19.84,25.43,27.76,27.82,2.37.7,4.24.45,5.69-.77,2.54-2.14,3.45-6.61,3-9.92-1.44-11.56-12.89-34.85-13-35.08a3.42,3.42,0,1,1,6.14-3c.49,1,12.08,24.56,13.66,37.27.64,5.15-.79,12.09-5.41,16A11.66,11.66,0,0,1,1117.87,804.09Z"/><path d="M1091.83,981.68h-.29a3.42,3.42,0,0,1-3.13-3.7c0-.41,3.39-41.43.25-56.45-2-9.54-11.11-26-19.16-40.49-4.74-8.54-9.21-16.61-12.11-23-19.56-42.94-34.37-88.77-33.72-104.33,1-24.38,10.14-32,15.48-34.39a16.18,16.18,0,0,1,16.77,2.22,64.56,64.56,0,0,1,5.87,5.67,3.43,3.43,0,1,1-5,4.67,57.37,57.37,0,0,0-5.21-5.06,9.27,9.27,0,0,0-9.62-1.24c-6.62,2.95-10.78,13.31-11.42,28.42-.53,12.55,12,54.82,33.1,101.2,2.79,6.12,7.2,14.07,11.87,22.49,8.69,15.66,17.67,31.86,19.88,42.41,3.34,16,0,56.69-.13,58.42A3.43,3.43,0,0,1,1091.83,981.68Z"/><path d="M1094.42,817.24c-4.4,0-9.22-1.77-13.88-5.21-19.9-14.67-41.39-44-42.29-45.23a3.42,3.42,0,0,1,5.53-4c.22.29,21.78,29.7,40.82,43.74,4.77,3.52,9.62,4.73,13,3.25,2.34-1,3.8-3.38,4.13-6.6,0-.23.12-2.45-3.57-10.15a3.43,3.43,0,1,1,6.18-3c4.15,8.66,4.39,12,4.21,13.8-.58,5.7-3.56,10.13-8.18,12.17A14.47,14.47,0,0,1,1094.42,817.24Z"/><path d="M1202.25,803.12a3.44,3.44,0,0,1-3.42-3.19c-2.77-40.81-10.4-85.94-17.78-129.59l-2.1-12.41c-5.93-34.93-12.65-74.51-17.39-113-3.55-28.83-8.22-34.66-10.07-35.83-.74-.47-1.34-.39-2.88.12-10,3.28-9.7,24.54-9.58,32.55v.64c.65,43.57,6.17,102.87,9.68,124.55a3.42,3.42,0,0,1-6.76,1.09c-4-24.81-9.16-85.06-9.77-125.54v-.64c-.16-10.27-.53-34.31,14.29-39.16a9.68,9.68,0,0,1,8.7.6c4.12,2.62,9.35,9.63,13.19,40.79,4.72,38.32,11.43,77.82,17.34,112.67l2.11,12.42c7.4,43.81,15.06,89.11,17.86,130.26a3.43,3.43,0,0,1-3.19,3.65Z"/><path d="M1150.88,1000.93c-26.33,0-53.24-8.2-67.72-23.7a3.43,3.43,0,0,1,5-4.68c23.26,24.9,84.33,29.08,112.65,7.7a3.43,3.43,0,0,1,4.13,5.47C1191.32,996,1171.28,1000.93,1150.88,1000.93Z"/><path d="M1153.63,1402.42c-.84,0-1.68,0-2.51-.06-14.95-.7-27.89-7.61-38.45-20.56-27.46-33.64-45.33-101.37-44.79-143.53.71-56.57,3.72-95.78,6.13-127.28,1.4-18.3,2.61-34.1,3.06-49.2,1.51-51.4,1-72.32.89-79.2l0-1.53c-.15-10.38,7.28-14.85,11.7-15.86,3.49-.78,4.93.59,5.54,1.89a3.84,3.84,0,0,1-1.21,4.42,3.4,3.4,0,0,1-3.18.49c-1.81.57-6.09,2.58-6,9l0,1.49c.16,6.91.62,28-.9,79.54-.44,15.26-1.66,31.14-3.07,49.52-2.4,31.41-5.4,70.49-6.11,126.85-.52,41,16.73,106.62,43.24,139.11,9.28,11.37,20.54,17.44,33.47,18,20.15,1,44.27-11.76,67.9-35.77,19-19.25,44.74-59.1,72-101.29,28.19-43.61,57.34-88.7,82.15-116a3.43,3.43,0,0,1,5.07,4.61c-24.43,26.87-53.43,71.71-81.47,115.08-27.48,42.5-53.43,82.64-72.88,102.39C1199.79,1389.38,1175.44,1402.42,1153.63,1402.42Z"/><path d="M1224.68,1300.78a3.42,3.42,0,0,1-3.42-3.4c-.31-38.08-5-74.3-9.57-109.34-2.91-22.41-5.92-45.58-7.68-68.69-4.11-54-2.35-101.75-1.6-122.15.16-4.4.27-7.43.26-8.86-.09-9.89-9.48-11.27-10.55-11.39a3.42,3.42,0,0,1,.73-6.81c5.71.6,16.55,5.16,16.67,18.13,0,1.49-.1,4.63-.27,9.18-.74,20.28-2.49,67.77,1.59,121.38,1.75,22.93,4.75,46,7.65,68.33,4.58,35.24,9.31,71.67,9.62,110.17a3.43,3.43,0,0,1-3.4,3.45Z"/><path d="M1208.7,1136.26a3.41,3.41,0,0,1-3-5.06c3.5-6.45,9.3-18.65,16.63-34.1,23-48.41,61.47-129.43,91.74-163.39,22.39-25.12,59.64-31.51,99.07-38.29q5.89-1,11.86-2c13.39-2.37,46.45-8.68,64.43-16a3.43,3.43,0,0,1,2.59,6.35c-17.92,7.32-48.93,13.43-65.82,16.42-4,.71-8,1.39-11.9,2.07-38.22,6.56-74.32,12.76-95.12,36.09-29.61,33.23-67.83,113.69-90.66,161.77-7.38,15.54-13.21,27.82-16.8,34.43A3.43,3.43,0,0,1,1208.7,1136.26Z"/><path d="M1394.2,1104.52h0a3.44,3.44,0,0,1-3.42-3.44c.1-93.38-42.44-154.5-42.87-155.1a3.43,3.43,0,1,1,5.59-4c.44.62,44.24,63.52,44.13,159.07A3.43,3.43,0,0,1,1394.2,1104.52Z"/><path d="M1148.78,1055.42c-20.93,0-47.66-5.14-69.49-26.17a3.43,3.43,0,1,1,4.76-4.94c38.87,37.46,96.83,20,97.41,19.87a3.43,3.43,0,0,1,2,6.54A126.22,126.22,0,0,1,1148.78,1055.42Z"/><path d="M1388.7,1469a3.42,3.42,0,0,1-3.42-3.42c-.11-34.55-2.57-99.29-6.73-126-4.36-28-10.3-52.28-16-75.75-6.64-27.14-12.92-52.78-17-83.82a3.42,3.42,0,1,1,6.79-.9c4.06,30.67,10.29,56.13,16.89,83.09,5.77,23.61,11.75,48,16.16,76.33,4.26,27.36,6.68,91.33,6.8,127a3.43,3.43,0,0,1-3.41,3.44Z"/><path d="M1781.47,1469h0a3.43,3.43,0,0,1-3.4-3.45c.29-39.06-.61-69.68-1.33-94.28-1.49-50.42-2.38-80.86,8.14-122.4,7-27.78,3.31-49.16-1-73.93-4-23-8.51-49-5-85a3.42,3.42,0,1,1,6.81.67c-3.43,35,1,60.57,4.92,83.11,4.44,25.54,8.27,47.6.88,76.79-10.29,40.62-9.4,70.69-7.94,120.52.73,24.66,1.63,55.35,1.35,94.53A3.44,3.44,0,0,1,1781.47,1469Z"/><path d="M1836.42,1470.47a3.43,3.43,0,0,1-3.42-3.22c-.08-1.24-7.91-126.22-15.22-211.13-2.45-28.54-3.65-54.3-4.69-77-2.24-48.25-4-86.36-16.43-116.74-10.09-24.67-33.41-44-58.09-64.54-16.49-13.71-33.55-27.88-46.7-44a3.42,3.42,0,1,1,5.3-4.33c12.75,15.62,29.54,29.58,45.78,43.07,25.36,21.08,49.31,41,60,67.22,12.88,31.49,14.67,70.11,16.93,119,1,22.66,2.23,48.35,4.68,76.75,7.31,85,15.15,210,15.23,211.3a3.43,3.43,0,0,1-3.2,3.63Z"/><path d="M1638,1488.09a3.42,3.42,0,0,1-3.41-3.24c-4.27-76.5-1-138.85,1.7-188.94,1.22-22.94,2.27-42.74,2.52-61.12.7-51.53-1.75-80.9-18.74-129.43-3-8.66-6.32-16-9.51-23.19-6.29-14.09-12.78-28.66-17.59-53.47-1.59-8.21-2.34-14.76-3-20.54-1.78-15.61-2.86-25-19.08-46.17-24.47-31.88-42.17-69.33-49.84-105.47a3.42,3.42,0,1,1,6.69-1.42c7.47,35.15,24.73,71.64,48.59,102.72,17.38,22.64,18.6,33.35,20.44,49.56.65,5.66,1.38,12.07,2.92,20,4.65,24,10.71,37.61,17.12,52,3.24,7.27,6.59,14.79,9.72,23.72,17.33,49.51,19.83,79.4,19.12,131.78-.25,18.52-1.36,39.34-2.53,61.39-2.65,49.93-6,112.07-1.7,188.2a3.42,3.42,0,0,1-3.23,3.61Z"/><path d="M1619.49,1095.07h-.07a3.41,3.41,0,0,1-3.35-3.49c1.11-52.17,10.41-67.23,20.27-83.18,1.19-1.92,2.38-3.85,3.57-5.87,2.24-3.82,4.63-7.37,6.95-10.8,8.9-13.19,16.59-24.58,14.16-47.22-3.3-30.82,11.6-58.19,12.23-59.34a3.43,3.43,0,0,1,6,3.31c-.14.26-14.48,26.69-11.42,55.3,2.7,25.13-6.44,38.68-15.29,51.78-2.26,3.35-4.59,6.8-6.72,10.44-1.22,2.06-2.44,4-3.65,6-9.35,15.12-18.18,29.41-19.25,79.71A3.43,3.43,0,0,1,1619.49,1095.07Z"/><path d="M1527.91,872.79a3.42,3.42,0,0,1-2.75-5.46c11.55-15.68,17.47-32.11,19.82-83.09a3.54,3.54,0,0,1,3.59-3.27,3.44,3.44,0,0,1,3.26,3.59c-2.18,47-7.32,68.05-21.16,86.84A3.41,3.41,0,0,1,1527.91,872.79Z"/><path d="M1518.11,1014.23h0a3.4,3.4,0,0,1-3.13-2.15c-.1-.24-9.55-24.16-18.41-63.11-7.64-33.58-9.44-57.35-8.58-68.41.66-8.51,6.82-11.8,13.94-15.6,5.6-3,12.57-6.71,19.73-14.1,9.08-9.37,15.81-7.37,16.54-7.11a3.43,3.43,0,0,1,2.11,4.36,3.47,3.47,0,0,1-4.21,2.16c-.29-.07-3.85-.5-9.52,5.35-7.91,8.17-15.4,12.17-21.42,15.38-7.09,3.79-10,5.51-10.34,10.09-.82,10.56,1,33.54,8.43,66.37a522,522,0,0,0,15.35,54.54c6.13-11.82,19.65-34.08,37.34-40.7a28.06,28.06,0,0,1,22.8,1.05,3.43,3.43,0,0,1-3,6.17,21.13,21.13,0,0,0-17.41-.81c-21.2,7.93-36.89,44.08-37,44.45A3.42,3.42,0,0,1,1518.11,1014.23Z"/><path d="M1697.8,996.47A3.41,3.41,0,0,1,1695,995c-.59-.86-14.53-21-34.32-13.61a3.43,3.43,0,0,1-2.39-6.42c19.87-7.43,36.42,7.35,42.38,16.2a3.41,3.41,0,0,1-2.83,5.33Z"/><path d="M1691.84,1036.05h0a3.44,3.44,0,0,1-3.34-2.8,493.88,493.88,0,0,0-13.61-52.73,3.43,3.43,0,0,1,6.53-2.08c4.56,14.34,8,27.52,10.26,37.21,2.25-11.84,4.3-23.48,4.35-26.21.24-13.21-3-27-6.06-40.36-.67-2.91-1.34-5.8-2-8.65-3.41-15.51-17.48-42.44-17.62-42.71a3.43,3.43,0,0,1,6.07-3.18c.59,1.14,14.63,28,18.24,44.42.63,2.83,1.29,5.69,2,8.57,3.19,13.76,6.49,28,6.23,42-.11,6-6.88,39.88-7.65,43.72A3.43,3.43,0,0,1,1691.84,1036.05Z"/><path d="M1581.79,1344.33a3.43,3.43,0,0,1-2-6.22c2.87-2,71-50.23,127-53.88a3.47,3.47,0,0,1,3.65,3.19,3.43,3.43,0,0,1-3.2,3.64c-54.09,3.53-122.84,52.14-123.52,52.63A3.44,3.44,0,0,1,1581.79,1344.33Z"/><path class="cls-5" d="M1157.67,468.43a3.42,3.42,0,0,1-2.42-5.85l72.85-72.53,1.71-295.41a3.42,3.42,0,0,1,3.43-3.41h0a3.42,3.42,0,0,1,3.4,3.45l-1.72,296.82a3.38,3.38,0,0,1-1,2.41l-73.84,73.52A3.41,3.41,0,0,1,1157.67,468.43Z"/><path class="cls-5" d="M1234.16,223a3.43,3.43,0,0,1-1-6.72l94.54-27.36,42.55-49.08a3.42,3.42,0,1,1,5.18,4.48l-43.21,49.86a3.45,3.45,0,0,1-1.64,1l-95.51,27.64A3.52,3.52,0,0,1,1234.16,223Z"/><path class="cls-5" d="M1232.54,356.75a3.43,3.43,0,0,1-1-6.7l236.84-73.24,34.77-92.32a3.41,3.41,0,0,1,2.13-2.05L1637,139a3.43,3.43,0,0,1,2.14,6.51L1509,188.44l-34.78,92.35a3.42,3.42,0,0,1-2.19,2.07L1233.55,356.6A3.48,3.48,0,0,1,1232.54,356.75Z"/><path class="cls-5" d="M1353.11,403a3.31,3.31,0,0,1-.83-.1,3.43,3.43,0,0,1-2.5-4.16l22-87.87a3.43,3.43,0,0,1,6.65,1.66l-22,87.88A3.43,3.43,0,0,1,1353.11,403Z"/><path class="cls-5" d="M1629.83,301.74a3.5,3.5,0,0,1-1.11-.19l-145.06-49.81a3.42,3.42,0,1,1,2.22-6.48L1630,294.74l124.85-32.28a3.42,3.42,0,1,1,1.71,6.63l-125.84,32.54A3.56,3.56,0,0,1,1629.83,301.74Z"/><path class="cls-5" d="M1162.34,499.3a3.43,3.43,0,0,1,0-6.85l139-1.82,229.14-90.71a3.41,3.41,0,0,1,1.84-.19l166.09,28.52a3.42,3.42,0,1,1-1.16,6.75l-165.14-28.36-228.83,90.59a3.4,3.4,0,0,1-1.22.24l-139.68,1.83Z"/><path class="cls-5" d="M1528.81,525.23a3.27,3.27,0,0,1-1.29-.26l-141.58-57.65a3.42,3.42,0,1,1,2.58-6.34l141.59,57.65a3.43,3.43,0,0,1-1.3,6.6Z"/><path class="cls-5" d="M1325.52,694.19a3.41,3.41,0,0,1-3.24-2.31L1297,618.24l-136.69-89a3.43,3.43,0,0,1,3.74-5.74l137.68,89.66a3.46,3.46,0,0,1,1.37,1.76l25.69,74.75a3.41,3.41,0,0,1-2.12,4.35A3.37,3.37,0,0,1,1325.52,694.19Z"/><path class="cls-5" d="M1263.31,593.88a3.42,3.42,0,0,1-.63-6.79l87.54-16.48a3.42,3.42,0,0,1,1.27,6.73L1264,593.82A3.47,3.47,0,0,1,1263.31,593.88Z"/><path class="cls-5" d="M1083.56,579.35a3.43,3.43,0,0,1-2.3-6l38-34.14a3.43,3.43,0,0,1,4.58,5.1l-38,34.13A3.43,3.43,0,0,1,1083.56,579.35Z"/><path class="cls-5" d="M901.3,606.27a3.42,3.42,0,0,1-1.93-.59L785.82,528.49l-89.43,27.19a3.42,3.42,0,1,1-2-6.55l91-27.67a3.43,3.43,0,0,1,2.92.44L903.23,600a3.43,3.43,0,0,1-1.93,6.26Z"/><path class="cls-5" d="M850.92,690.49a3.36,3.36,0,0,1-1.79-.51,3.42,3.42,0,0,1-1.12-4.71l49.4-80.42a3.52,3.52,0,0,1,1.33-1.24l162.83-85.28a3.33,3.33,0,0,1,1.58-.39l55.31-.09h0a3.43,3.43,0,1,1,0,6.85l-54.47.09L902.76,609.24l-48.91,79.62A3.43,3.43,0,0,1,850.92,690.49Z"/><path class="cls-5" d="M1119.89,479.6a3.44,3.44,0,0,1-2.32-.9L982.26,354.79l-269.44-1.26L584.28,385.74a3.43,3.43,0,1,1-1.67-6.65l129-32.31a4,4,0,0,1,.85-.1l271.18,1.26a3.44,3.44,0,0,1,2.3.9L1122.2,473.65a3.43,3.43,0,0,1,.21,4.84A3.39,3.39,0,0,1,1119.89,479.6Z"/><path class="cls-5" d="M933.41,354.38a3.42,3.42,0,0,1-2.54-1.13l-70.22-77.72a3.39,3.39,0,0,1-.88-2.09l-6.18-101.1a3.43,3.43,0,0,1,6.84-.41l6.1,99.89L936,348.66a3.42,3.42,0,0,1-2.55,5.72Z"/><path class="cls-5" d="M1191.7,431.33a3.41,3.41,0,0,1-2.9-1.59L1008.66,144.68a3.43,3.43,0,0,1-.53-1.84l.14-55.53a3.43,3.43,0,0,1,3.43-3.42h0a3.43,3.43,0,0,1,3.41,3.44l-.14,54.53,179.61,284.21a3.43,3.43,0,0,1-1.07,4.73A3.37,3.37,0,0,1,1191.7,431.33Z"/><path class="cls-5" d="M1019.33,258.3a3.56,3.56,0,0,1-1.12-.19L979.8,244.79a3.42,3.42,0,1,1,2.24-6.47l37.45,13,52.27-13.07a3.42,3.42,0,0,1,1.66,6.64l-53.26,13.32A3.32,3.32,0,0,1,1019.33,258.3Z"/><path class="cls-6" d="M840.38,162.62a16.4,16.4,0,1,1,16.39,16.84A16.62,16.62,0,0,1,840.38,162.62Z"/><path class="cls-5" d="M834,558.22a3.43,3.43,0,0,1-2.54-5.72l77.35-85.69a3.42,3.42,0,0,1,5.08,4.59l-77.34,85.69A3.43,3.43,0,0,1,834,558.22Z"/><path class="cls-6" d="M956.52,236a15.62,15.62,0,1,1,15.61,16A15.83,15.83,0,0,1,956.52,236Z"/><path class="cls-6" d="M1062.72,582.74a13.8,13.8,0,1,1,13.79,14.18A14,14,0,0,1,1062.72,582.74Z"/><path class="cls-6" d="M1524.13,525.54a14.52,14.52,0,1,1,14.51,14.91A14.71,14.71,0,0,1,1524.13,525.54Z"/><path class="cls-6" d="M1347.06,574.84A14.79,14.79,0,1,1,1361.85,590,15,15,0,0,1,1347.06,574.84Z"/><path class="cls-6" d="M1750.18,263.81a15.48,15.48,0,1,1,15.48,15.89A15.69,15.69,0,0,1,1750.18,263.81Z"/><path class="cls-7" d="M1359.24,134.67a17.9,17.9,0,1,1,17.9,18.38A18.15,18.15,0,0,1,1359.24,134.67Z"/><path class="cls-7" d="M994.62,72.83a17.52,17.52,0,1,1,17.51,18A17.75,17.75,0,0,1,994.62,72.83Z"/><path class="cls-7" d="M1313,698.45a16.69,16.69,0,1,1,16.68,17.14A16.91,16.91,0,0,1,1313,698.45Z"/><path class="cls-7" d="M886.08,606.31a17,17,0,1,1,17,17.45A17.22,17.22,0,0,1,886.08,606.31Z"/><path class="cls-6" d="M545.17,389.81c0-13.29,10.5-24.08,23.44-24.08s23.44,10.79,23.44,24.08-10.5,24.08-23.44,24.08S545.17,403.11,545.17,389.81Z"/><path class="cls-6" d="M1209.59,68.56c0-13.74,10.84-24.88,24.22-24.88S1258,54.82,1258,68.56s-10.83,24.88-24.21,24.88S1209.59,82.3,1209.59,68.56Z"/><path class="cls-7" d="M1633,136.16c0-12.39,9.78-22.44,21.84-22.44s21.84,10,21.84,22.44-9.78,22.44-21.84,22.44S1633,148.55,1633,136.16Z"/><path class="cls-6" d="M1337,410.2a14.53,14.53,0,1,0,14.52-14.92A14.72,14.72,0,0,0,1337,410.2Z"/><path class="cls-6" d="M1688.42,436c0-12.51,9.87-22.65,22-22.65s22,10.14,22,22.65-9.87,22.66-22,22.66S1688.42,448.49,1688.42,436Z"/><path class="cls-8" d="M1527,850.38c2.39-4.1,9.8-3.93,9.8-3.93l-7.65,22.48-4.53-12.43S1524.62,854.49,1527,850.38Z"/><path class="cls-2" d="M1607.36,805.76s17.9,8.45,35.75,12.42a171.1,171.1,0,0,0,36.49,4.13s-13.29,35.18-40.78,31.72C1607,850,1607.36,805.76,1607.36,805.76Z"/><path d="M1642.69,857.71a33.59,33.59,0,0,1-4.3-.28c-34.48-4.33-34.46-51.23-34.45-51.7a3.42,3.42,0,0,1,4.88-3.07c.18.08,17.78,8.34,35,12.18a168.38,168.38,0,0,0,35.68,4h.07a3.43,3.43,0,0,1,3.2,4.64C1682.25,825,1669.56,857.71,1642.69,857.71Zm-31.59-46.55c1.09,11.3,6,36.69,28.15,39.48,18.81,2.32,30.54-16.12,35-25a183,183,0,0,1-31.93-4.13A190.94,190.94,0,0,1,1611.1,811.16Z"/><path d="M1632.35,905c-10,0-18.95-3.38-29.35-10.67-14.09-9.87-40.46-35.32-49.9-68.07a3.43,3.43,0,1,1,6.59-1.89c8.91,30.91,33.88,55,47.24,64.35,14.7,10.3,24.78,10.72,36.31,8.06,27-6.22,61.82-34.55,72.17-50.61,7.25-11.25,17.89-35.67,28.17-59.29,3.1-7.13,6.2-14.25,9.22-21a3.42,3.42,0,0,1,6.26,2.78c-3,6.76-6.1,13.87-9.2,21-10.39,23.87-21.14,48.55-28.69,60.27-10.83,16.81-46.82,46.75-76.39,53.58A55.4,55.4,0,0,1,1632.35,905Z"/><path d="M1651,794.08a3.43,3.43,0,0,1-1.33-6.59c3.89-1.64,12.1-6.46,12.61-10.84.13-1.09-.59-3.37-1.36-5.79-3.08-9.74-8.82-27.88,12.57-53.22a3.42,3.42,0,1,1,5.23,4.42c-18.94,22.45-14.32,37.06-11.26,46.74,1.08,3.4,1.93,6.09,1.63,8.65-1.11,9.52-15.17,15.69-16.77,16.36A3.43,3.43,0,0,1,1651,794.08Z"/><path class="cls-9" d="M1143.64,554.56a43.41,43.41,0,0,1-12.91-2c-8.66-3-12.07-8.74-13-22.07-1.41-19.4-2.3-54.78,3.25-64.33a3.43,3.43,0,1,1,5.93,3.44c-3.41,5.86-4.42,31.82-2.35,60.39.92,12.6,3.93,14.55,8.42,16.09,5.36,1.83,17.74,3.12,22.1-2.23,3.25-4,4-36.26,1.56-69.09a11.08,11.08,0,0,0-9-10.3c-3.2-.68-7.65-.17-9.66,3.54-3.2,5.88-6.26,29.3-3.07,62.94a6.05,6.05,0,0,0,4,4.91,8.38,8.38,0,0,0,7.71-.51c1.9-5,1.68-35.82.91-51.43-.26-5.1-1.31-7.49-1.91-8.28l-.07.06c-1.43,3.92-2,28-.55,51.68a3.42,3.42,0,0,1-3.21,3.63,3.48,3.48,0,0,1-3.63-3.22c0-.51-3-51.14,2.2-56.59,3.17-3.33,6.28-2.65,7.47-2.21,3.88,1.44,6.14,6.48,6.54,14.59.43,8.7,2.31,52.32-3,56.77-3.92,3.27-9.83,4-15,1.85a12.82,12.82,0,0,1-8.26-10.6c-3.16-33.39-.45-58.91,3.86-66.86,3.1-5.71,10-8.51,17.13-7a17.91,17.91,0,0,1,14.39,16.5c.2,2.63,4.65,64.45-3.08,73.92C1156.35,553.12,1149.75,554.56,1143.64,554.56Zm2.89-18.94Z"/><path d="M1729.1,712.34a3.5,3.5,0,0,1-1.53-.36c-8.19-4.1-17.16-4.79-26.66-2.06a3.43,3.43,0,0,1-1.88-6.59c11.2-3.2,21.84-2.36,31.6,2.52a3.42,3.42,0,0,1-1.53,6.49Z"/><path class="cls-8" d="M1714.36,755.71c2.3-8.5-.78-16.73-6.89-18.39s-12.92,3.9-15.22,12.4.78,16.73,6.88,18.39S1712.06,764.21,1714.36,755.71Z"/><path class="cls-8" d="M1675.5,886.94s-23.88,13.78-42.22,14.94c-19.14,1.22-33.22-13.31-40.6-19.81S1569.15,855,1569.15,855s23.29,54.38,44.64,66.37c23.71,13.32,52.94-8.44,52.94-8.44Z"/><path d="M1545.38,822.24a3.45,3.45,0,0,1-3.35-2.68c-3.2-14.43-11.45-25.58-20.18-37.38-8.84-12-18-24.32-21.92-40.62-11.14-46.08,8.45-109,27.4-133.76,30.41-39.8,67.66-46.95,69.23-47.24a3.43,3.43,0,0,1,1.23,6.74c-.36.07-36.29,7.07-65,44.66-18.12,23.71-36.84,83.88-26.18,128,3.62,15,12.34,26.75,20.77,38.15,8.77,11.86,17.84,24.12,21.36,40a3.42,3.42,0,0,1-2.6,4.09A3.81,3.81,0,0,1,1545.38,822.24Z"/><path d="M1759.89,811.48a3.56,3.56,0,0,1-1.06-.17,3.43,3.43,0,0,1-2.2-4.32c7.46-23,.14-36.26-14.45-62.75-16.45-29.85-24.08-56.78-30.8-80.54-3.43-12.12-6.67-23.56-10.75-34.28-4.84-12.71-10.22-19.72-16.46-21.42s-14.06,1.63-25.48,10.77a3.43,3.43,0,1,1-4.28-5.35c9.5-7.61,20.69-15,31.56-12,8.5,2.32,15.39,10.69,21.06,25.59,4.19,11,7.47,22.59,10.94,34.85,6.63,23.41,14.14,49.93,30.21,79.11,14.56,26.43,23.35,42.38,15,68.17A3.42,3.42,0,0,1,1759.89,811.48Z"/><path d="M1737.05,898.3a3.63,3.63,0,0,1-1.25-.23c-.3-.13-30.42-12.53-18.12-55.32a3.43,3.43,0,0,1,6.59,1.9c-7,24.28,1,36.86,7.52,42.71-1.4-11.67.54-33.51,25.65-57.65a305.36,305.36,0,0,1,24.42-20.93c17-13.41,24.06-19,28.63-52.17,7.17-52.3-8.7-148.65-81.87-199.74-46.45-32.45-86.58-20.58-100.95-5.47a3.43,3.43,0,0,1-5-4.72c16-16.76,59.87-30.34,109.85,4.57,75.68,52.86,92.13,152.33,84.72,206.29-4.94,36-13.7,42.86-31.17,56.63a298.25,298.25,0,0,0-23.9,20.48c-32.87,31.58-22.44,57.79-22,58.89a3.42,3.42,0,0,1-3.16,4.76Z"/><path d="M1648.57,697.31a3.42,3.42,0,0,1-2.28-.86c-15.68-13.94-32.11-9.87-40.52-6.21A3.43,3.43,0,1,1,1603,684c8-3.48,28.6-9.72,47.81,7.37a3.42,3.42,0,0,1-2.27,6Z"/><path d="M1548.08,772.18a3.43,3.43,0,0,1-1.32-.27c-20.91-8.73-29.59-27-28.92-41.34.54-11.39,3.72-19.64,9.46-24.52,4.92-4.18,11.57-5.82,19.81-4.86a3.42,3.42,0,1,1-.79,6.8c-6.27-.72-11.17.38-14.59,3.28-4.23,3.6-6.6,10.21-7,19.63-.56,11.89,6.86,27.23,24.71,34.69a3.43,3.43,0,0,1-1.32,6.59Z"/><path d="M1549.75,745.58a3.43,3.43,0,0,1-3.3-2.51c-1.65-6-6.39-11.61-6.44-11.67a3.42,3.42,0,1,1,5.22-4.43c.24.27,5.76,6.83,7.82,14.27a3.41,3.41,0,0,1-2.38,4.21A3.3,3.3,0,0,1,1549.75,745.58Z"/><path d="M1561.59,703.23a29.92,29.92,0,0,1-3.26-.17,3.42,3.42,0,1,1,.71-6.81c20.59,2.13,39.21-22.72,57.24-46.76,6.6-8.81,13.43-17.92,20.4-25.78a3.43,3.43,0,1,1,5.13,4.54c-6.78,7.66-13.53,16.65-20,25.35C1603.44,678,1584.53,703.23,1561.59,703.23Z"/><path d="M1638.67,611.34a3.42,3.42,0,0,1-3.39-3c-2.55-18.77-18.78-38.22-18.94-38.42a3.42,3.42,0,0,1,5.24-4.41c.72.85,17.67,21.15,20.49,41.9a3.43,3.43,0,0,1-2.94,3.86A3.55,3.55,0,0,1,1638.67,611.34Z"/><path class="cls-8" d="M1626.19,735.46c2.31-8.5-.77-16.73-6.88-18.39s-12.92,3.89-15.22,12.39.77,16.74,6.88,18.39S1623.89,744,1626.19,735.46Z"/><path class="cls-8" d="M1756,771s10.54,15,7.6,28.39c-3,13.61-32.07,24.2-32.07,24.2Z"/><path d="M1529.64,832.14c-22.86,0-34.33-15.51-45.83-42.29-14.68-34.22,15.4-53.4,15.71-53.59a3.43,3.43,0,0,1,3.62,5.82h0c-1.05.65-25.37,16.33-13,45.07,12.78,29.77,23.89,42.82,52.4,36.59a3.42,3.42,0,0,1,1.47,6.69A67.15,67.15,0,0,1,1529.64,832.14Z"/><path d="M1499.7,815a3.44,3.44,0,0,1-3.14-2c-9-20.46-.41-47.78,9.7-58.36a3.43,3.43,0,0,1,5,4.74c-8.58,9-16.11,33.26-8.38,50.86a3.43,3.43,0,0,1-1.75,4.52A3.39,3.39,0,0,1,1499.7,815Z"/><path class="cls-8" d="M1191.74,973.44s7.38,1.3,10,5-1,6.24-1,6.24l-9.15,4.17Z"/><path class="cls-8" d="M1678.74,978.38l20.33,14.22s-2.11,25.2-6.1,30.5-6.68-18.3-6.68-18.3Z"/><path d="M1842.13,829.84a3.42,3.42,0,0,1-2.05-6.17c51.33-38.16,41.36-116,23-156.09a3.43,3.43,0,1,1,6.23-2.85c19.23,42,29.41,123.87-25.16,164.44A3.46,3.46,0,0,1,1842.13,829.84Z"/><path d="M1810,864.42a3.43,3.43,0,0,1-.3-6.84c57.35-5.2,91.58-51.28,97.57-82.34a3.43,3.43,0,1,1,6.73,1.3c-6.39,33.15-42.79,82.34-103.69,87.87Z"/><path d="M1809.52,890.18a117.38,117.38,0,0,1-27.2-3.19,3.42,3.42,0,1,1,1.58-6.66c36.27,8.61,65.34-2.35,83.35-13.06a3.43,3.43,0,0,1,3.5,5.89A119.56,119.56,0,0,1,1809.52,890.18Z"/><path class="cls-6" d="M667.31,558.41a19.45,19.45,0,1,1,19.44,20A19.71,19.71,0,0,1,667.31,558.41Z"/><path class="cls-5" d="M802.65,351.22a3.39,3.39,0,0,1-2.7-1.32l-76-97.65-73.63-45.72a3.42,3.42,0,1,1,3.61-5.82l74.16,46a3.39,3.39,0,0,1,.89.8l76.34,98.14a3.41,3.41,0,0,1-.6,4.81A3.36,3.36,0,0,1,802.65,351.22Z"/><path class="cls-5" d="M779.25,413.49a3.42,3.42,0,0,1-1.77-6.36l97.24-58.41a3.42,3.42,0,0,1,3.53,5.87L781,413A3.42,3.42,0,0,1,779.25,413.49Z"/><path class="cls-7" d="M758,418.61a17.52,17.52,0,1,1,17.51,18A17.75,17.75,0,0,1,758,418.61Z"/><path class="cls-6" d="M901.16,463.72a15.62,15.62,0,1,1,15.62,16A15.84,15.84,0,0,1,901.16,463.72Z"/><path class="cls-6" d="M829,693.35a15.62,15.62,0,1,1,15.61,16A15.84,15.84,0,0,1,829,693.35Z"/><path class="cls-7" d="M1512.25,399a17.9,17.9,0,1,1,17.9,18.38A18.15,18.15,0,0,1,1512.25,399Z"/><path class="cls-6" d="M623.62,197.64c0-12.48,9.84-22.58,22-22.58s22,10.1,22,22.58-9.84,22.57-22,22.57S623.62,210.11,623.62,197.64Z"/><path class="cls-7" d="M1608.82,291.59A17.9,17.9,0,1,1,1626.71,310,18.14,18.14,0,0,1,1608.82,291.59Z"/></g></svg>