<svg id="Layer_1" data-name="Layer 1" xmlns="http://www.w3.org/2000/svg" viewBox="0 0 2742 1523"><defs><style>.cls-1{fill:#e4ebd6;}.cls-2{fill:#fff;}.cls-3{fill:#f2e086;}.cls-4{fill:#8bd6f5;}.cls-5{fill:#ff836e;}.cls-6{fill:#f4c076;}.cls-7{fill:#a8c1be;}.cls-8{fill:#ffd6ba;}.cls-9{fill:#8e8ea8;}.cls-10{fill:#efefef;}.cls-11{fill:#745c5f;}.cls-12{fill:#669fc6;}.cls-13{fill:#7e7c87;}.cls-14{fill-rule:evenodd;}</style></defs><rect class="cls-1" width="2742" height="1523"/><rect class="cls-2" x="721.3" y="228.31" width="1377.95" height="876.88"/><path d="M2099.25,1102.45H742.07c-6,0-12.47-.7-18.43,0a20.3,20.3,0,0,1-2.34,0l2.74,2.74V241.38c0-3.53.78-8.1,0-11.57a7.52,7.52,0,0,1,0-1.5c-.91.92-1.83,1.83-2.74,2.74H2078.48c6,0,12.47.71,18.43,0a22.83,22.83,0,0,1,2.34,0l-2.74-2.74v841.21c0,11.32-.69,22.88,0,34.17,0,.5,0,1,0,1.5,0,3.53,5.49,3.54,5.49,0V264c0-11.31.68-22.87,0-34.17,0-.49,0-1,0-1.5a2.79,2.79,0,0,0-2.75-2.74h-1322c-17.86,0-35.74-.26-53.6,0-.78,0-1.56,0-2.34,0a2.78,2.78,0,0,0-2.74,2.74v841.21c0,11.32-.69,22.88,0,34.17,0,.5,0,1,0,1.5a2.77,2.77,0,0,0,2.74,2.74h1322c17.86,0,35.74.27,53.59,0h2.34C2102.78,1107.93,2102.79,1102.45,2099.25,1102.45Z"/><path class="cls-3" d="M1682.65,797.37c19.17,1.16,38,2.12,57.33,2.12,2.06,1.57,4.15,3.11,6.24,4.65,3.23,2.35,7.06,4.12,9.91,6.93,3.36,3.32,4.44,7.5,5.75,11.71q2.43,7.94,4.73,15.94a11,11,0,0,1,.64,2.27l4.53,45.1c-21.46,2.17-55.59,2.64-83.55,1.36C1683.58,851.21,1683.18,833.7,1682.65,797.37Z"/><path class="cls-3" d="M1976.42,720.73c1.81,48.85,3.63,61.89,13.56,109.92-27.09,2.84-71.14,3.51-107.27,1.86-8.54-45.68-10.31-67.72-13.62-113.49C1904.84,721.14,1939.75,722.76,1976.42,720.73Z"/><path class="cls-3" d="M1243.71,540.07c-.31,42.32.79,53.61,7.81,95.23-24.53,2.47-64.29,3-96.81,1.59-5.87-39.55-6.6-58.66-7.73-98.3C1179.16,540.42,1210.55,541.85,1243.71,540.07Z"/><path class="cls-4" d="M994.7,321.58c6.38,55.46,9.61,70.3,25.17,124.84-30.78,3.22-81.22,4-122.78,2.09-13.76-51.86-17.74-76.9-25.55-128.85C912.72,322,952.88,323.9,994.7,321.58Z"/><path class="cls-3" d="M960.37,485.91c2.67,53.64,4.94,68,16.9,120.69-31,3.14-81.48,3.87-122.93,2.07-10.33-50.16-12.66-74.38-17-124.61C878.33,486.38,918.38,488.18,960.37,485.91Z"/><path d="M977.27,603.87c-40.68,4.06-82.11,3.79-122.92,2l2.65,2c-4.23-20.56-8-41.21-10.72-62-2.65-20.55-4.41-41.21-6.2-61.85-.92.91-1.83,1.83-2.74,2.74,41,2.32,82,4,123,1.88-.91-.92-1.83-1.83-2.74-2.74,1,20.37,2.17,40.77,5,61s7.44,40.4,12,60.42c.78,3.44,6.07,2,5.29-1.46-4.48-19.74-9-39.53-11.87-59.58s-3.92-40.22-4.94-60.37a2.78,2.78,0,0,0-2.74-2.74c-41,2.14-82.06.44-123-1.88a2.75,2.75,0,0,0-2.75,2.74c1.83,21,3.61,42,6.34,62.84s6.52,41.78,10.78,62.5a2.79,2.79,0,0,0,2.64,2c40.81,1.75,82.24,2,122.92-2C980.75,609,980.79,603.52,977.27,603.87Z"/><path d="M866.6,549.54c25-.86,50-1.26,74.92-.14,3.52.15,3.52-5.33,0-5.49-25-1.12-50-.72-74.92.14-3.52.13-3.53,5.61,0,5.49Z"/><path d="M862.66,518.54q37.7.36,75.39-.62c3.52-.09,3.54-5.57,0-5.49q-37.68,1-75.39.62c-3.53,0-3.54,5.45,0,5.49Z"/><path d="M871.74,580.27c24.85-.62,49.69,1.18,74.54.63,3.52-.08,3.53-5.56,0-5.49-24.85.55-49.69-1.24-74.54-.62-3.52.09-3.54,5.57,0,5.48Z"/><path class="cls-5" d="M1168.94,361.79c.07,37.49,1,47.5,6.58,84.36-18.41,2.19-48.25,2.7-72.69,1.44-4.69-35-5.38-52-6.53-87.1C1120.46,362.11,1144.07,363.37,1168.94,361.79Z"/><path d="M1175.52,443.41c-24,2.8-48.58,2.64-72.68,1.43l2.74,2.74c-3.86-29-5.57-57.9-6.54-87.09l-2.74,2.74c24.19,1.62,48.41,2.79,72.64,1.31l-2.74-2.74c0,14.28.11,28.59,1.26,42.84s3.3,28.21,5.42,42.24c.52,3.48,5.81,2,5.28-1.46-2.08-13.83-4.19-27.68-5.28-41.63s-1.16-28-1.2-42a2.76,2.76,0,0,0-2.74-2.74c-24.23,1.47-48.45.3-72.64-1.32a2.77,2.77,0,0,0-2.74,2.75c1,29.19,2.68,58.12,6.54,87.09a2.83,2.83,0,0,0,2.74,2.74c24.1,1.22,48.67,1.37,72.68-1.43C1179,448.49,1179,443,1175.52,443.41Z"/><path d="M1111.82,407.08c14.75-.6,29.52-.87,44.27-.09,3.53.18,3.51-5.3,0-5.49-14.75-.78-29.52-.5-44.27.1-3.51.15-3.53,5.63,0,5.48Z"/><path d="M1110.37,385.42q22.28.25,44.56-.44c3.52-.1,3.54-5.58,0-5.48q-22.28.67-44.56.43c-3.53,0-3.54,5.45,0,5.49Z"/><path d="M1114,428.57c14.68-.43,29.34.81,44,.44,3.52-.1,3.54-5.58,0-5.49-14.68.38-29.34-.86-44-.43-3.52.1-3.54,5.58,0,5.48Z"/><path class="cls-4" d="M1654.09,654.61c.05,30.78.82,39,5.4,69.26-15.12,1.8-39.62,2.22-59.68,1.18-3.85-28.78-4.42-42.68-5.37-71.51C1614.28,654.87,1633.67,655.91,1654.09,654.61Z"/><path d="M1659.49,721.13c-19.72,2.29-39.88,2.17-59.68,1.18l2.75,2.74c-3.17-23.79-4.58-47.54-5.37-71.51-.92.91-1.83,1.82-2.74,2.74,19.86,1.33,39.75,2.28,59.64,1.07l-2.74-2.74c0,11.75.09,23.53,1,35.25s2.72,23.2,4.46,34.74c.52,3.48,5.81,2,5.29-1.45-1.72-11.34-3.44-22.69-4.33-34.13s-1-22.94-1-34.41a2.76,2.76,0,0,0-2.74-2.74c-19.89,1.21-39.78.25-59.64-1.08a2.78,2.78,0,0,0-2.75,2.75c.8,24,2.21,47.72,5.37,71.51a2.84,2.84,0,0,0,2.74,2.74c19.8,1,40,1.11,59.68-1.17C1663,726.22,1663,720.73,1659.49,721.13Z"/><path d="M1607.18,682.08c12.1-.49,24.23-.72,36.34-.08,3.53.19,3.52-5.3,0-5.48-12.11-.65-24.24-.42-36.34.08-3.52.14-3.54,5.62,0,5.48Z"/><path d="M1608.89,703.5c12.06-.36,24.1.67,36.15.36,3.52-.1,3.54-5.58,0-5.49-12,.32-24.09-.71-36.15-.36-3.52.11-3.53,5.59,0,5.49Z"/><path class="cls-5" d="M1765.49,419.68c.07,37.28,1,47.24,6.54,83.9-18.31,2.18-48,2.68-72.29,1.43-4.66-34.86-5.35-51.7-6.49-86.62C1717.27,420,1740.76,421.25,1765.49,419.68Z"/><path d="M1772,500.84c-23.88,2.78-48.31,2.63-72.29,1.42l2.74,2.74c-3.84-28.81-5.54-57.58-6.5-86.62l-2.74,2.74c24.06,1.62,48.15,2.78,72.24,1.31-.91-.91-1.82-1.83-2.74-2.74,0,14.2.11,28.43,1.26,42.6s3.27,28.06,5.38,42c.53,3.48,5.81,2,5.29-1.46-2.08-13.75-4.17-27.53-5.26-41.41s-1.15-27.83-1.18-41.75a2.77,2.77,0,0,0-2.75-2.74c-24.09,1.46-48.18.3-72.24-1.31a2.76,2.76,0,0,0-2.74,2.74c1,29,2.66,57.81,6.5,86.62a2.83,2.83,0,0,0,2.74,2.74c24,1.21,48.41,1.36,72.29-1.42C1775.5,505.92,1775.54,500.43,1772,500.84Z"/><path d="M1708.67,452.38c14.67-.6,29.36-.88,44-.1,3.53.19,3.52-5.3,0-5.48-14.66-.78-29.35-.5-44,.09-3.52.15-3.54,5.63,0,5.49Z"/><path d="M1710.75,478.32c14.6-.43,29.18.81,43.78.43,3.52-.09,3.54-5.57,0-5.48-14.6.38-29.18-.86-43.78-.43-3.52.1-3.54,5.58,0,5.48Z"/><path d="M1251.52,632.54c-32,3.18-64.67,3-96.81,1.62l2.64,2c-4.78-32.45-6.67-64.82-7.62-97.58l-2.74,2.74c32.22,1.83,64.48,3.16,96.73,1.48l-2.74-2.74c-.12,16.1-.18,32.24,1.19,48.3s4,31.83,6.71,47.64c.58,3.48,5.87,2,5.29-1.45-2.63-15.61-5.29-31.25-6.59-47s-1.23-31.63-1.12-47.45a2.76,2.76,0,0,0-2.74-2.74c-32.25,1.68-64.51.35-96.73-1.48a2.76,2.76,0,0,0-2.74,2.74c.48,16.57.93,33.15,2.13,49.69s3.27,33,5.68,49.35a2.77,2.77,0,0,0,2.65,2c32.14,1.38,64.76,1.57,96.81-1.61C1255,637.68,1255,632.2,1251.52,632.54Z"/><path d="M1163.3,591.61c22.1-.76,44.24-1.12,66.34-.12,3.53.16,3.52-5.33,0-5.49-22.1-1-44.24-.63-66.34.13-3.52.12-3.54,5.6,0,5.48Z"/><path d="M1161.39,571.77q33.4.33,66.8-.55c3.52-.09,3.53-5.57,0-5.48q-33.39.85-66.8.55c-3.53,0-3.53,5.44,0,5.48Z"/><path d="M1166.27,607.89c22-.55,44,1,66,.55,3.53-.07,3.54-5.56,0-5.48-22,.48-44-1.1-66-.55-3.52.08-3.54,5.57,0,5.48Z"/><path class="cls-4" d="M1974,479.79c-.32,42.31.78,53.61,7.81,95.23-24.54,2.46-64.29,3-96.82,1.59-5.87-39.55-6.59-58.66-7.72-98.3C1909.44,480.14,1940.83,481.57,1974,479.79Z"/><path d="M1981.81,572.26c-32.06,3.18-64.67,3-96.82,1.62l2.64,2c-4.78-32.45-6.67-64.82-7.62-97.58-.91.92-1.82,1.83-2.74,2.74,32.22,1.83,64.48,3.16,96.73,1.48l-2.74-2.74c-.11,16.1-.18,32.24,1.19,48.3s4.06,31.83,6.71,47.64c.59,3.48,5.87,2,5.29-1.45-2.62-15.61-5.29-31.25-6.59-47s-1.23-31.63-1.11-47.45a2.77,2.77,0,0,0-2.75-2.74c-32.25,1.68-64.51.35-96.73-1.48a2.76,2.76,0,0,0-2.74,2.74c.48,16.57.93,33.15,2.13,49.69s3.27,33,5.69,49.35a2.74,2.74,0,0,0,2.64,2c32.15,1.38,64.76,1.57,96.82-1.61C1985.29,577.4,1985.32,571.92,1981.81,572.26Z"/><path d="M1893.58,531.33c22.11-.76,44.24-1.12,66.35-.12,3.52.15,3.52-5.33,0-5.49-22.11-1-44.24-.63-66.35.13-3.52.12-3.53,5.6,0,5.48Z"/><path d="M1891.68,511.49q33.39.33,66.79-.55c3.53-.09,3.54-5.57,0-5.48q-33.39.85-66.79.55c-3.53,0-3.54,5.44,0,5.48Z"/><path d="M1896.55,547.61c22-.55,44,1,66,.55,3.52-.07,3.53-5.56,0-5.48-22,.48-44-1.1-66-.55-3.52.08-3.53,5.57,0,5.48Z"/><path class="cls-4" d="M945.58,804.24c-.22,42.32.54,53.61,5.39,95.23-16.94,2.47-44.38,3-66.83,1.6-4-39.56-4.55-58.67-5.34-98.31C901,804.59,922.68,806,945.58,804.24Z"/><path d="M950.24,896.82c-21.72,3.09-44.25,2.86-66.1,1.51l2.74,2.74c-3.33-32.73-4.67-65.42-5.33-98.31l-2.74,2.74c22.22,1.83,44.49,3.15,66.77,1.48l-2.74-2.74c-.08,16-.12,31.94.8,47.88s2.76,31.59,4.59,47.34c.4,3.46,5.89,3.5,5.48,0-1.83-15.75-3.67-31.51-4.59-47.34s-.88-31.92-.8-47.88a2.76,2.76,0,0,0-2.74-2.74c-22.28,1.67-44.55.35-66.77-1.48a2.76,2.76,0,0,0-2.74,2.74c.66,32.89,2,65.58,5.33,98.31a2.81,2.81,0,0,0,2.74,2.74c22.38,1.38,45.32,1.46,67.56-1.71C955.18,901.6,953.7,896.32,950.24,896.82Z"/><path d="M890.07,855.78a397.44,397.44,0,0,1,45.79-.12c3.53.23,3.51-5.26,0-5.48a397.44,397.44,0,0,0-45.79.12c-3.51.18-3.54,5.66,0,5.48Z"/><path d="M888.75,835.94q23.06.33,46.11-.55c3.52-.13,3.54-5.61,0-5.48q-23,.86-46.11.55c-3.53-.05-3.53,5.43,0,5.48Z"/><path d="M892.12,872.06c15.19-.55,30.35,1,45.54.55,3.52-.11,3.54-5.59,0-5.48-15.19.48-30.35-1.1-45.54-.55-3.52.12-3.54,5.61,0,5.48Z"/><path d="M1019.88,443.67c-40.61,4.22-82,3.91-122.78,2.11l2.65,2c-5.65-21.31-10.86-42.73-15-64.39-4.1-21.39-7.3-42.95-10.54-64.48l-2.64,3.47c41,2.39,82.1,4.17,123.16,1.94L992,321.59c2.43,21.1,4.94,42.24,9.15,63.07,4.27,21.09,10.22,41.8,16.12,62.48,1,3.38,6.26,1.94,5.29-1.46-5.82-20.41-11.7-40.85-15.95-61.65-4.22-20.62-6.72-41.55-9.13-62.44a2.78,2.78,0,0,0-2.74-2.74c-41.06,2.23-82.15.44-123.16-2-2-.11-2.89,1.84-2.64,3.47,3.23,21.54,6.43,43.09,10.54,64.49,4.15,21.65,9.36,43.08,15,64.39a2.79,2.79,0,0,0,2.64,2c40.75,1.8,82.17,2.11,122.78-2.11C1023.36,448.79,1023.4,443.3,1019.88,443.67Z"/><path d="M905.11,387.28c25-.89,49.95-1.29,74.91-.14,3.53.16,3.52-5.32,0-5.49-25-1.15-49.95-.74-74.91.15-3.51.13-3.53,5.61,0,5.48Z"/><path d="M899.05,355.22q37.68.38,75.35-.64c3.52-.09,3.54-5.57,0-5.48q-37.67,1-75.35.64c-3.53,0-3.54,5.44,0,5.48Z"/><path d="M912.36,419.07c24.86-.64,49.71,1.22,74.58.65,3.52-.08,3.54-5.56,0-5.48-24.87.56-49.72-1.29-74.58-.65-3.52.09-3.54,5.57,0,5.48Z"/><path class="cls-4" d="M1469,511.09c3.91,50.52,5.88,64,15.41,113.7-18.84,2.94-49.72,3.63-75.15,1.91-8.43-47.24-10.86-70-15.65-117.35C1418.78,511.52,1443.36,513.21,1469,511.09Z"/><path d="M1483.65,622.14c-24.41,3.74-49.85,3.43-74.43,1.83l2.65,2c-6.9-38.71-11.6-77.54-15.55-116.65l-2.74,2.75c25.09,2.17,50.24,3.77,75.39,1.76l-2.74-2.74c1.48,19.19,3,38.39,5.63,57.47s6.25,38,9.87,56.94c.67,3.46,6,2,5.29-1.46-3.57-18.64-7.17-37.29-9.75-56.1s-4.09-37.87-5.56-56.85a2.78,2.78,0,0,0-2.74-2.74c-25.15,2-50.3.4-75.39-1.77a2.75,2.75,0,0,0-2.74,2.74c4,39.6,8.76,78.92,15.74,118.11a2.77,2.77,0,0,0,2.64,2c25.11,1.63,51,1.8,75.89-2C1488.58,626.89,1487.1,621.61,1483.65,622.14Z"/><path d="M1414.13,571.18a377.1,377.1,0,0,1,45.85-.13c3.52.24,3.5-5.25,0-5.49a379.13,379.13,0,0,0-45.85.14c-3.51.18-3.53,5.67,0,5.48Z"/><path d="M1410.41,542q23.07.35,46.13-.58c3.51-.14,3.53-5.63,0-5.49q-23.05.92-46.13.58c-3.53,0-3.53,5.43,0,5.49Z"/><path d="M1418.56,600.13c15.22-.58,30.43,1.1,45.65.59,3.52-.12,3.54-5.6,0-5.48-15.22.51-30.43-1.17-45.65-.59-3.52.13-3.53,5.62,0,5.48Z"/><path class="cls-5" d="M1416.37,722.69c4.34,58.95,6.53,74.73,17.1,132.69-20.91,3.43-55.18,4.23-83.4,2.22-9.35-55.12-12.06-81.73-17.36-136.94C1360.68,723.19,1388,725.16,1416.37,722.69Z"/><path d="M1432.75,852.72c-27.07,4.38-55.4,4-82.68,2.16l2.65,2c-7.67-45.23-12.88-90.6-17.26-136.25-.92.91-1.83,1.83-2.74,2.74,27.82,2.53,55.74,4.42,83.66,2.06-.92-.91-1.83-1.82-2.74-2.74,2.46,33.5,5.62,66.78,11.24,99.91,1.9,11.18,3.92,22.33,5.95,33.49.64,3.46,5.92,2,5.29-1.46-6-32.69-11.42-65.32-14.35-98.43-1-11.16-1.83-22.33-2.65-33.51a2.78,2.78,0,0,0-2.74-2.74c-27.92,2.35-55.84.47-83.66-2.06a2.75,2.75,0,0,0-2.75,2.74c4.43,46.14,9.71,92,17.46,137.7a2.77,2.77,0,0,0,2.64,2c27.81,1.9,56.55,2.11,84.13-2.35C1437.68,857.45,1436.2,852.16,1432.75,852.72Z"/><path d="M1355.52,783.33c16.94-1,33.93-1.37,50.88-.15,3.52.25,3.5-5.23,0-5.49-17-1.22-33.94-.79-50.88.16-3.51.19-3.54,5.68,0,5.48Z"/><path d="M1363.25,835c16.94-.94,33.94-1.38,50.88-.15,3.52.25,3.5-5.23,0-5.48-16.94-1.23-33.94-.8-50.88.15-3.51.2-3.54,5.68,0,5.48Z"/><path d="M1351.39,753.61q25.6.4,51.19-.67c3.51-.15,3.53-5.63,0-5.49q-25.57,1.06-51.19.68c-3.53,0-3.53,5.43,0,5.48Z"/><path d="M1359.61,808.3c16.9-.68,33.77,1.29,50.67.69,3.52-.13,3.53-5.61,0-5.48-16.9.6-33.77-1.37-50.67-.69-3.51.14-3.53,5.63,0,5.48Z"/><path d="M1990,827.91c-35.48,3.68-71.66,3.45-107.26,1.86l2.65,2c-3.49-18.73-6.59-37.54-8.73-56.48-2.11-18.71-3.44-37.5-4.8-56.28l-2.74,2.74c35.74,2.11,71.53,3.66,107.32,1.71l-2.74-2.74c.7,18.59,1.47,37.21,3.8,55.68s6.1,36.74,9.86,55c.71,3.45,6,2,5.29-1.46-3.72-18-7.5-36.07-9.77-54.34s-3-36.54-3.7-54.85a2.76,2.76,0,0,0-2.74-2.74c-35.79,2-71.58.4-107.32-1.71a2.74,2.74,0,0,0-2.74,2.74c1.38,19.11,2.73,38.24,4.91,57.28s5.29,38.05,8.81,56.94a2.77,2.77,0,0,0,2.64,2c35.6,1.59,71.78,1.83,107.26-1.86C1993.46,833,1993.5,827.54,1990,827.91Z"/><path d="M1894,778.91c21.78-.78,43.59-1.14,65.37-.13,3.53.17,3.52-5.32,0-5.48-21.78-1-43.59-.66-65.37.13-3.51.12-3.53,5.61,0,5.48Z"/><path d="M1890.88,750.67q32.89.35,65.78-.56c3.53-.09,3.54-5.58,0-5.48q-32.88.87-65.78.56c-3.53,0-3.54,5.45,0,5.48Z"/><path d="M1898.2,806.9c21.68-.56,43.34,1.07,65,.57,3.53-.08,3.54-5.56,0-5.48-21.68.5-43.34-1.13-65-.57-3.53.09-3.54,5.58,0,5.48Z"/><path d="M1768.22,802a75.15,75.15,0,0,0-8.36-5.2q-.7,2.57-1.39,5.11c2.83-.12,5.65-.26,8.48-.4l-2.74-2.75c0,1.87-.06,3.74-.12,5.61a2.77,2.77,0,0,0,2.74,2.74,2.8,2.8,0,0,0,2.75-2.74c.06-1.87.08-3.74.11-5.61A2.77,2.77,0,0,0,1767,796c-2.83.15-5.65.29-8.48.41a2.74,2.74,0,0,0-1.38,5.11,70.64,70.64,0,0,1,8.36,5.2,2.78,2.78,0,0,0,2.11.27,2.75,2.75,0,0,0,1.92-3.37A3.2,3.2,0,0,0,1768.22,802Z"/><path d="M1770,841c-.22-4.2-2.41-8.78-3.62-12.83a114.07,114.07,0,0,0-4.09-12.63c-3.51-8.17-12.08-11.79-18.84-16.85-2.35-1.75-3.22-1.92-6.15-1.94-2.45,0-4.91,0-7.36-.08-5.11-.08-10.23-.22-15.33-.41-10.65-.39-21.3-1-31.94-1.62a2.77,2.77,0,0,0-2.75,2.74c.44,30.21,1.75,60.09,5.58,90.08a2.82,2.82,0,0,0,2.74,2.74c27.75,1.24,55.88,1.4,83.55-1.36,3.48-.35,3.52-5.84,0-5.48-27.67,2.75-55.8,2.6-83.55,1.36.92.91,1.83,1.83,2.74,2.74-3.82-30-5.14-59.87-5.57-90.08-.92.91-1.83,1.83-2.74,2.74,9.31.56,18.63,1.09,28,1.47q7,.28,14,.46c2.23.05,4.46.1,6.68.13s5.23-.48,7.38.06c1.84.46,3.65,2.4,5.16,3.5s3.11,2.17,4.72,3.19c3.7,2.32,6.92,4.61,8.73,8.73,1.67,3.81,2.65,8,3.84,12q.92,3.06,1.81,6.14c.46,1.58,1.52,3.65,1.61,5.23.19,3.51,5.67,3.53,5.48,0Z"/><path d="M1698.48,832.53c14.79.17,29.51,2.2,44.31,1.9,3.53-.07,3.54-5.56,0-5.48-14.8.29-29.52-1.73-44.31-1.91-3.53,0-3.53,5.45,0,5.49Z"/><path d="M1700.07,859c15-.45,30,.84,45,.45,3.52-.1,3.54-5.58,0-5.49-15,.4-30-.89-45-.45-3.53.1-3.54,5.59,0,5.49Z"/><path d="M1253.06,502.16c-35.5-1.84-73.23.81-104.07,20.26-32.17,20.3-60.82,61.45-47.76,100.76,6.22,18.75,21.62,32.5,39.56,39.89,21.47,8.83,45.5,7.66,67.62,2,40.22-10.23,86-34.82,95.56-78.94a56,56,0,0,0-17.89-54.53,88.66,88.66,0,0,0-24.47-15c-10.59-4.47-22-5.72-33.43-5.87-5.75-.07-11.5.11-17.24.27-3.52.1-3.53,5.58,0,5.48,10.9-.29,22-.8,32.77.82a75.74,75.74,0,0,1,27.74,10.37c16.41,9.85,28.52,25.78,28.48,45.56,0,20.66-11.91,40-26.78,53.54s-33.76,22.63-52.8,29c-21.15,7.11-44.43,11.21-66.45,5.76-17.72-4.39-34.58-14.93-43.57-31.18-19.79-35.76,6.11-77.9,35.44-99.2,27.19-19.75,61.22-24.55,94-24q6.63.1,13.24.46c3.53.19,3.52-5.3,0-5.48Z"/><path d="M989.31,548.78a213.94,213.94,0,0,0,93.27,50.86c3.42.86,4.88-4.43,1.45-5.29a208.15,208.15,0,0,1-90.84-49.45c-2.58-2.4-6.47,1.47-3.88,3.88Z"/><path d="M1046.83,602.32c12.13,2.15,24.57.7,36.4-2.44,3.41-.9,2-6.2-1.45-5.29-10.83,2.87-22.37,4.42-33.49,2.44-3.45-.61-4.94,4.67-1.46,5.29Z"/><path d="M1058.88,577.28a115.51,115.51,0,0,0,10.21,12.09,97,97,0,0,0,12,10.23,2.76,2.76,0,0,0,3.75-1,2.8,2.8,0,0,0-1-3.75,95.22,95.22,0,0,1-20.27-20.36,2.84,2.84,0,0,0-3.76-1,2.77,2.77,0,0,0-1,3.75Z"/><path d="M961.61,719.53c5.94,10.34,18.94,8.31,28.25,4.65,4.3-1.69,13.49-6.95,17.26-2.17,2,2.49,2.37,5.67,6.11,6.17,4.49.6,8.5-2.77,11-6,1.48-1.91,2.7-4,4.21-5.89a13.81,13.81,0,0,1,2.59-2.59c.47-.35,1.68-.84,1.53-.93,1.43.78.79,7.34.72,8.91-.13,2.88-.4,6.51,1.38,9,3.74,5.24,10-.5,12.93-3.53,2.22-2.25,4.26-4.68,6.34-7.05.85-1,1.69-1.95,2.6-2.87.74-.74,1.87-1.93,2-.19,0,1-1.31,2.68-1.65,3.69a11.32,11.32,0,0,0-.59,3.46,9,9,0,0,0,.94,4.8c1.47,2.48,4.32,2.87,6.88,2,3-1,5.66-3.11,8.07-5.09,1.7-1.41,4.08-3,5.36-4.87.17-.23-.27-.91-.19-1s-.83,2.25-.83,2.25a15.32,15.32,0,0,0-1.33,3.25,5.23,5.23,0,0,0,2.08,5.63c2.55,1.52,6.34.16,8.89-.66,7.11-2.31,13.72-5.81,20.55-8.78l-3.75-1c.42.8-1.68,2.8-2.07,3.47a7.51,7.51,0,0,0-1.16,3.61,5,5,0,0,0,4,4.91c2.64.55,5.56-.72,8-1.65a51.54,51.54,0,0,0,9.7-5c2.93-1.93.19-6.67-2.77-4.73a49.78,49.78,0,0,1-6.27,3.56c-.53.24-6.85,2.86-7,2.61s2.49-3.75,2.78-4.58a5.68,5.68,0,0,0-.41-5,2.81,2.81,0,0,0-3.75-1c-5.69,2.47-11.19,5.31-17,7.44-.83.31-7,2.46-7.21,1.87.26.94,2.21-2.5,2.3-2.71a8.67,8.67,0,0,0,.76-2.83,5.47,5.47,0,0,0-1.74-4.87c-4.7-3.79-11.1,5-14.58,7.53a16.47,16.47,0,0,1-3.59,2.18,3,3,0,0,1-1.1.32c-.47,0,.33.43.14.11-1.06-1.83.69-4.69,1.38-6.24a8.07,8.07,0,0,0,.55-6.09c-1.47-4-6-4.25-9.21-2.1a26.77,26.77,0,0,0-4.89,5c-2.09,2.39-4.14,4.81-6.38,7a57,57,0,0,1-4.72,3.62c-.38.3.63,0,.62.34a9.44,9.44,0,0,0-.41-1.32,23.27,23.27,0,0,1,0-5.21c.12-3.23.22-6.82-1-9.86-3.71-9.25-12.66.14-15.75,4.6-1.51,2.19-3.05,4.81-5.46,6.13-2.17,1.19-2.64,1.14-3.65-.72-2.29-4.19-5.47-6.66-10.51-6.52-7,.18-13.22,4.33-19.78,6.2-5.62,1.6-13,1.56-16.34-4.15-1.76-3-6.49-.3-4.73,2.77Z"/><path d="M1151.84,723.72c-6.54.33-4,10.67,3.06,7.94,3.79-1.47,7.32-4.59,10.69-6.82,1.8-1.18,4.68-3.83,5.26-.26.27,1.65-.56,3.61-.45,5.33.2,3,1.94,5.72,5,6.39,3.94.86,7.55-2,10.63-4,4.71-3,9-6.86,14.37-8.59a25.92,25.92,0,0,1,2.73-.68c1.35-.26,1,.48.81-.43.45,2.34-2.86,4.46-2.67,7,.6,8.33,13.25,2.1,17,.28a46.17,46.17,0,0,0,7.92-5c1.42-1.09,2.8-2.22,4.13-3.42.42-.37.9-.75,1.29-1.15.86-.86,1.45-2.14.76-.39-1,2.55-1.22,4.58.41,7a6.69,6.69,0,0,0,5.47,3.15c2.63,0,5-1.49,7.22-2.75,2.41-1.38,4.09-2.9,6.14-.41a12.57,12.57,0,0,0,18.7.67c2.42-2.56-1.45-6.45-3.87-3.88a7.2,7.2,0,0,1-8.44,1.58c-2.62-1.32-3.52-4.45-6.56-5.21-4.21-1-7.67,2.29-11.2,3.9-1.12.5-3,1.22-3.28-.74-.13-.8.92-2.08,1.15-2.89a4.77,4.77,0,0,0-.19-3.58c-3.13-5.83-9.42-.9-12.52,1.79a46,46,0,0,1-7.88,5.54,39,39,0,0,1-4,1.91c-1.68.7-4.68,1.09-6.12,2.15l-.86.23c.32.56.56.58.72,0,.37-.64.77-1.22,1.08-1.89a9.69,9.69,0,0,0,.93-3.32,5.07,5.07,0,0,0-1.63-4.49c-2.85-2.4-7.35-.95-10.42.23-4.66,1.79-8.35,4.77-12.49,7.53-1.86,1.24-4.11,3.22-6.27,3.93-3.44,1.12-2.69-1.94-2.43-4.13.34-2.94.16-6.16-2.35-8.13-3-2.35-6.55-.91-9.43.86-2.1,1.29-4.13,2.72-6.18,4.08l-2.06,1.37-2.07,1.36c-1.2.36-1.47,1.2-.81,2.53l-1.94.8.53,0c3.51-.18,3.53-5.66,0-5.48Z"/><path d="M1022.93,791a71,71,0,0,0,20.41-17.38l-4.58-2.66c-.85,5.53,2.73,10.24,8.06,11.76,6.48,1.85,12.65-2.16,17.65-5.78l-4-3.1c-1.5,10.24,11.28,11.33,18.5,11.35a149.31,149.31,0,0,0,36.51-4.44c5.45-1.36,10.8-3.75,16.33-4.66,2-.32,4.48-.53,6,1,1.62,1.71,1.77,4.08,3.82,5.58,3.47,2.53,8.22,1.72,11.92.18,2.82-1.16,6-3.37,9.14-2.47,2.63.76,4.79,3.24,7.22,4.56a32.7,32.7,0,0,0,32-.63c3-1.8.27-6.54-2.77-4.74a27.06,27.06,0,0,1-26.92.39c-4-2.3-6.91-5.8-12-5.25-4.64.5-8.6,4.3-13.29,4.1-2.74-.12-2.9-2.15-4.11-4.13a8.61,8.61,0,0,0-3.65-3.27c-3.4-1.65-7.51-1.06-11-.13-4.95,1.3-9.74,3.1-14.73,4.32a143.31,143.31,0,0,1-16.72,3.06c-3.58.43-32,4-30.92-3.38.3-2.06-1.85-4.68-4-3.1-3,2.19-6.26,4.69-10,5.36-3,.53-8.23-1.24-7.64-5.15.36-2.33-2.65-5.07-4.58-2.66a67.12,67.12,0,0,1-19.3,16.52c-3.06,1.74-.31,6.48,2.77,4.73Z"/><path d="M1022.3,818.14a8.58,8.58,0,0,1,6.72-4.57l-2.64-2c.7,4.13,1.39,8.27,2.11,12.4.53,3,1.3,6.24,4.6,7.23,3.47,1,6.68-1.57,9.41-3.31l11.83-7.53-4-3.09c-1.13,5.12,3,9.66,8.1,10a15.37,15.37,0,0,0,8.32-2.32c2.92-1.6,6-4.31,9.43-4.46,3.24-.13,5.63,3,8.74,3.69s6.33,0,9.4-.61c6.86-1.38,12.09-5.48,17.74-9.33l-4-3.1c-1.06,5.52-1.08,13.53,6,14.9,6.46,1.26,11.08-6.87,13-11.84l-5.28-1.46a222.1,222.1,0,0,0-8.63,49.2l4.13-2.37a9.08,9.08,0,0,1-2.57-13.46c3.09-4.2,8.11-6.31,12.43-8.93,9.51-5.76,17-14.33,23.09-23.51l-5-.66c2.22,8.43,11.22,9.39,18.56,8.88a269.32,269.32,0,0,1,29.39-.51c3.52.13,3.52-5.35,0-5.49-7.63-.29-15.27-.27-22.9.11-5.62.28-17.76,3.17-19.76-4.45a2.78,2.78,0,0,0-5-.65,80.75,80.75,0,0,1-13.53,15.91c-5,4.41-10.94,7-16.24,10.89-4.22,3.1-7.88,7.27-8.44,12.68a14.65,14.65,0,0,0,7.22,13.93,2.77,2.77,0,0,0,4.12-2.37,216.78,216.78,0,0,1,8.43-47.74c1-3.45-4-4.69-5.28-1.46-1,2.46-2.89,6.54-5.57,7.5-4.26,1.52-3.28-5.31-2.83-7.64.41-2.14-1.89-4.56-4-3.1-4.33,3-8.56,6.58-13.65,8.14a29.53,29.53,0,0,1-7.2,1.35c-3.3.12-5-1.9-7.79-3.12-4-1.77-8.32-.45-12,1.55-2.31,1.25-4.44,3-7,3.88-1.9.66-6.82.7-6.09-2.61.49-2.21-1.9-4.44-4-3.09l-7.88,5c-2.3,1.46-5.13,4-7.7,4.86-2,.69-1.68-.34-2-1.76-.35-1.63-.57-3.31-.85-5q-.73-4.35-1.48-8.68a2.72,2.72,0,0,0-2.64-2,14.3,14.3,0,0,0-11.46,7.28c-1.74,3.07,3,5.84,4.74,2.77Z"/><path d="M1538,337a8.58,8.58,0,0,1,6.73-4.56l-2.65-2c.71,4.14,1.4,8.27,2.12,12.41.52,3,1.3,6.23,4.6,7.23,3.46,1,6.68-1.58,9.41-3.31l11.83-7.53-4-3.1c-1.13,5.12,3,9.66,8.1,10,2.94.22,5.78-.92,8.32-2.31,2.91-1.6,5.94-4.32,9.43-4.46,3.23-.13,5.63,3,8.74,3.68s6.33,0,9.4-.6c6.85-1.38,12.09-5.48,17.74-9.33l-4-3.1c-1.06,5.52-1.09,13.52,6,14.9,6.46,1.26,11.07-6.87,13-11.84l-5.29-1.46a222.66,222.66,0,0,0-8.62,49.2l4.12-2.37a9.09,9.09,0,0,1-2.56-13.47c3.09-4.19,8.11-6.31,12.42-8.92,9.52-5.77,17-14.33,23.1-23.52l-5-.65c2.21,8.43,11.21,9.39,18.56,8.87a271.67,271.67,0,0,1,29.38-.51c3.53.14,3.52-5.34,0-5.48-7.63-.29-15.26-.28-22.89.1-5.63.28-17.76,3.18-19.77-4.44a2.77,2.77,0,0,0-5-.65,80.37,80.37,0,0,1-13.52,15.91c-5,4.41-10.95,7-16.25,10.88-4.22,3.11-7.88,7.28-8.43,12.69a14.63,14.63,0,0,0,7.21,13.92,2.77,2.77,0,0,0,4.13-2.36,215.51,215.51,0,0,1,8.43-47.74c1-3.45-4-4.69-5.29-1.46-.94,2.46-2.88,6.54-5.57,7.5-4.25,1.52-3.27-5.31-2.83-7.64.41-2.14-1.88-4.56-4-3.1-4.33,3-8.56,6.58-13.66,8.13a28.9,28.9,0,0,1-7.19,1.35c-3.3.12-5-1.9-7.79-3.12-4-1.76-8.32-.44-12,1.55-2.31,1.26-4.44,3-6.94,3.88-1.9.67-6.82.71-6.09-2.6.49-2.22-1.91-4.45-4-3.1l-7.89,5c-2.29,1.46-5.12,4-7.7,4.87-2,.69-1.68-.34-2-1.76-.35-1.64-.57-3.31-.85-5-.49-2.9-1-5.79-1.48-8.69a2.75,2.75,0,0,0-2.64-2,14.3,14.3,0,0,0-11.46,7.29c-1.75,3.07,3,5.84,4.73,2.76Z"/><path d="M1010.88,955.74a26.9,26.9,0,0,1,5.8-8.71,25.57,25.57,0,0,1,4.23-3.39c1.5-.95,3.43-1.43,4.85-2.41l1-.32-.69-1c-.35.25-.86,3.55-1,4-.48,2-1,4-1.46,6l-3.39,14a2.81,2.81,0,0,0,1.91,3.38,12.51,12.51,0,0,0,10.82-2.09,50.94,50.94,0,0,0,5-4.21c.52-.47,1.91-2.07,2.28-2.1q.24-.7.54.27c.18.33.35.66.52,1,1.47,2.61,3.18,4.95,6.51,4.94,4,0,7.22-4,11.27-3.21s7.55,3.17,11.81,3.67a36.31,36.31,0,0,0,11.61-.78c8.8-1.83,17.19-5.67,26.31-5.64,3.53,0,3.54-5.47,0-5.48-8.51,0-16.43,3-24.57,5.08a36.63,36.63,0,0,1-12,1.48c-4.43-.34-8-2.92-12.29-3.71-3.69-.68-6.5.8-9.76,2.28-2.17,1-2.92,1-4-1.06a10,10,0,0,0-2.41-3.4c-6.94-5.45-12.6,10-20.15,7.67l1.91,3.37,4.86-20c.86-3.56,2.85-9.71-3-10-4.16-.2-9.2,3.28-12.29,5.78a30.76,30.76,0,0,0-8.94,11.86c-1.37,3.21,3.35,6,4.73,2.76Z"/><path d="M1563.66,577.67c6.39,4.85,13.75.22,18.7-4.29,6-5.43,11.88-9.9,19.63-12.45l-3.37-3.38c-.94,6.54-1.89,13.08-2.81,19.62-.59,4.18-1.16,9.33,3.49,11.41,4.47,2,9-1.47,12.44-4L1627.39,573l-3.75-1a1.93,1.93,0,0,1-.37,2.58,2.77,2.77,0,0,0,1,3.75c4.34,2.55,8.47.34,12-2.47,1.48-1.18,4.19-3.72,5.89-1.59,1,1.31,1,2.7,2.61,3.66,4.76,2.87,12-1.13,16.2-3.27,5.21-2.63,10.12-5.81,15.27-8.55.57-.3,2.72-1.47,2.83-1.44,1.36.34,3,3.62,3.19,4.75.3,1.66,0,3.28.81,4.85a7.49,7.49,0,0,0,4.56,3.68c3.95,1.15,8.51-.6,11.84-2.71a7.79,7.79,0,0,0,2.22-1.62c.14-.2.74-.46.79-.7l-1.2-.29c.08.25.15.5.23.75-.1,1.36,1.17,3.47,2.12,4.41,4.56,4.5,12.81-.27,17.42-2.31a36.76,36.76,0,0,1,4.28-1.72,11.57,11.57,0,0,0,1.35-.33c.39-.17-.1-.37-.19-.76a11.7,11.7,0,0,1-.26,2.32,6.86,6.86,0,0,0,4.13,6.75c5.15,2.2,12-.58,16.8-2.57,1.87-.76,3.58-2.69,5.5-3.07,2.27-.45,2.79,1.44,4.15,2.74,3.78,3.59,10.89,3.86,15.77,3.58,6.4-.36,12.64-2.1,19-2.46,6.22-.36,12.41,1.14,18.44-1.05,3.29-1.2,1.87-6.5-1.46-5.29-5.35,1.94-10.85.57-16.38.82-5.35.23-10.58,1.45-15.86,2.14-4.58.59-12.39,1.49-16-2-2.54-2.43-4-4.38-8-4-3.18.29-5.44,2.92-8.36,4a32.61,32.61,0,0,1-8.54,2.34c-.86.08-2.43.27-3.16-.33-1.15-.92-.2-3.06-.3-4.33-.32-3.84-4.07-4.76-7.3-4-2.92.7-5.68,2.21-8.42,3.41-1.72.75-6.65,3.48-8.54,2.32-.78-.47-.89-2.28-1.22-3.16-.58-1.55-1.51-3-3.23-3.47s-3.06.38-4.31,1.39a18.85,18.85,0,0,1-5.19,3.28c-1.7.65-4.9,1.7-5.87-.6-.75-1.79-.09-3.84-1.07-5.73-1.26-2.42-3.53-5.69-6.39-6.32-3-.66-6,1.54-8.55,2.87-1.93,1-3.79,2.15-5.68,3.26-3.13,1.85-6.31,3.66-9.6,5.23-1.69.8-6.61,3.58-8.57,2.59-1-.5-1.07-2.1-1.88-3a6.78,6.78,0,0,0-4.88-2.3,10.2,10.2,0,0,0-6.28,2c-2.13,1.46-5.12,5.28-7.94,3.63l1,3.75a7.41,7.41,0,0,0,.36-8.12,2.74,2.74,0,0,0-3.75-1l-11,8.14c-2.92,2.17-6.67,6.17-10.31,7-2.62.62-2.67-1.2-2.46-3.28.22-2.25.64-4.5.95-6.73l2.07-14.39c.27-1.9-1.17-4.09-3.37-3.37a51.09,51.09,0,0,0-16.89,9.31c-4.24,3.51-11.11,12.63-17.22,8-2.81-2.13-5.55,2.63-2.77,4.74Z"/><path d="M1660.88,605.88a132.65,132.65,0,0,1,12.34-8.13c.63-.37,2.43-1.86,3.22-1.81,1,.06.47,0,.89,1.28a7.38,7.38,0,0,0,2.52,3.43c2.53,2,6,2.43,9.09,2.4,5,0,10.11-.66,15.14-.91a504.79,504.79,0,0,1,64.73,1.08l-2.36-4.12a7.29,7.29,0,0,0,3.92,10.14c6.07,2.53,11.32-2.82,17.29-2.3,3.52.31,3.5-5.17,0-5.48-3.11-.27-5.78.69-8.66,1.73a14.35,14.35,0,0,1-5,1.27c-1.09,0-3.77-.85-2.85-2.6a2.77,2.77,0,0,0-2.37-4.12,504,504,0,0,0-66.75-1c-4.86.26-10,1.17-14.84.76-1.46-.12-3.68-.37-4.56-1.75s-.45-3-1.59-4.27c-2.7-3-6.82-.65-9.55.9a134.68,134.68,0,0,0-13.41,8.75c-2.81,2.07-.08,6.83,2.77,4.73Z"/><path d="M1303.1,449.72a39.41,39.41,0,0,0-17.36,21.15,2.77,2.77,0,0,0,1.92,3.37c5.31,1.28,10.11-.7,14.67-3.33s9.5-6.8,14.94-5.57c-.4-1.53-.8-3.06-1.21-4.59a6.15,6.15,0,0,0,2.15,9.54c4.73,2.32,9.38-1.42,13.74-2.78,3.45-1.08,4.52-.2,7.25,1.56a10.68,10.68,0,0,0,6.5,1.4,63,63,0,0,0,18.46-3.78c3.31-1.17,1.88-6.47-1.45-5.29a63.18,63.18,0,0,1-13.13,3.24,20.59,20.59,0,0,1-5.75.33c-1.82-.31-2.85-1.64-4.43-2.48-2.78-1.48-6-1.2-8.91-.27a48.46,48.46,0,0,0-4.94,2,17.88,17.88,0,0,1-2.45,1c.19-.05-3.78.19-3.16-.62,1.17-1.5,1-4.08-1.21-4.58-5.35-1.2-10.12.8-14.7,3.45-4.41,2.56-9.48,6.76-14.92,5.45l1.92,3.37a33.5,33.5,0,0,1,14.84-17.87c3-1.78.28-6.52-2.77-4.73Z"/><path d="M1302.93,638.22a738,738,0,0,1,178.49,82.57q23.57,15,45.94,31.77c2.82,2.12,5.56-2.64,2.76-4.73a743.14,743.14,0,0,0-173-96.44q-26-10.21-52.72-18.45c-3.37-1.05-4.82,4.25-1.45,5.28Z"/><path d="M1492.32,744.32c11.55,2.26,23.19,4.49,34.48,7.85,3.39,1,4.83-4.28,1.46-5.29-11.3-3.36-22.93-5.58-34.48-7.85-3.45-.67-4.93,4.61-1.46,5.29Z"/><path d="M1505.42,722.58a116.53,116.53,0,0,1,20.37,28.33c1.61,3.14,6.34.37,4.74-2.77a121.83,121.83,0,0,0-21.23-29.44c-2.48-2.52-6.36,1.36-3.88,3.88Z"/><path d="M1552.77,781.17a87.94,87.94,0,0,1,12.69-12c.64-.49,3-1.67,3.35-2.4s.23-1-.44-.72c0,0-.52,1-.58,1.06-1.06,2-2,3.72-1.77,6.07a6.51,6.51,0,0,0,6.63,6.08c5.07-.1,7.21-5.11,11.29-7.12.93-.45,3.2-1.55,4.26-1.34,1.64.34,1.79,4.38,2.59,5.85,2.18,4,6.9,4.37,10.64,2.37,2.16-1.16,3.79-3.37,6.12-4.2,2.84-1,6.25.67,8.94,1.52a57.67,57.67,0,0,0,16.34,2.63c13.72.19,27.21-5.05,40.94-3,3.46.52,4.94-4.76,1.46-5.29-12.26-1.85-24,1.52-36.16,2.53a54.58,54.58,0,0,1-18.19-1.35c-5.13-1.31-10.44-4.22-15.72-2-2.16.91-3.65,2.63-5.61,3.83-1.57,1-3.14,1.62-4.26-.58-.56-1.1-.58-2.5-1-3.66-1.65-4-4.69-4.78-8.61-3.74-4.36,1.14-7,3.52-10.3,6.44-2,1.8-5,2.16-3.38-1.43.84-1.92,2.19-3.21,2-5.49a4.5,4.5,0,0,0-3.66-4.3c-2.58-.42-4.73,1.28-6.68,2.72a93.25,93.25,0,0,0-14.77,13.59c-2.31,2.65,1.55,6.54,3.88,3.88Z"/><path d="M1803.49,761.28c2.38-1.19,3.87-3.24,5.27-5.44.45-.71,3-5,4.36-3.45.42.47.17,2.44.48,3.17a4.87,4.87,0,0,0,2,2.33,7,7,0,0,0,6.16.19c2.21-.91,3.93-3.41,6.51-2.63,2.84.87,5.38,2.22,8.34,2.78a31.94,31.94,0,0,0,16.78-1.32c3.3-1.19,1.87-6.49-1.46-5.29a26.54,26.54,0,0,1-17.22.48c-2.76-.88-5.35-2.59-8.35-2.33-2.81.24-4.27,2.44-6.74,3.27-1.31.44-.93.15-1-1a5.54,5.54,0,0,0-1.13-3,6.46,6.46,0,0,0-5.47-2.26,8.42,8.42,0,0,0-6,3.44c-1.73,2.13-2.72,5-5.27,6.34-3.16,1.59-.38,6.32,2.76,4.73Z"/><path d="M1183.61,962.19c20-3.88,40.43-5.19,60.72-6.08s40.34-1.1,60.52-1.08c3.53,0,3.53-5.48,0-5.48-20.54,0-41.1.19-61.62,1.12s-41,2.33-61.08,6.23c-3.46.68-2,6,1.46,5.29Z"/><path d="M1317.24,928.3c-31.52-13.13-67.48-16.36-101-9.9a140.33,140.33,0,0,0-47.23,17.93c-12.15,7.51-25.13,21.26-20,36.85,4,12.09,16.72,19,28,23.05,16.16,5.8,34.47,7.44,51.52,7.32a174.64,174.64,0,0,0,56.71-9.72c15.85-5.59,33.44-13.45,44.83-26.26,5.32-6,9.52-13.65,9.7-21.83.14-6.8-2.92-13.07-7.61-17.86-9.76-10-24.81-14.6-38.35-16-3.51-.38-3.48,5.11,0,5.48,11,1.19,23,4.85,31.73,12,4.15,3.37,7.64,7.81,8.53,13.21,1.07,6.49-1.75,13-5.47,18.22-9.15,12.74-25.61,20.44-39.81,26a167.62,167.62,0,0,1-51.93,11.13,170.68,170.68,0,0,1-51-4.61c-10.53-2.68-23-7.56-29.28-17-8.6-13,2.6-27,13.54-34a132.17,132.17,0,0,1,42.46-17.37,172.42,172.42,0,0,1,103.24,8.81c3.25,1.35,4.67-4,1.45-5.29Z"/><path d="M1763.54,318.64c-51.8-20.13-108.92-28.5-164.36-26.26-27,1.09-54.22,4.85-80.18,12.68-12.83,3.87-26.4,8.3-37.07,16.66-7.76,6.07-14.77,15.6-13.53,26,1.09,9,7.8,16,14.78,21.17,8.94,6.65,19.44,11.22,29.89,14.92,12.49,4.42,25.48,7.29,38.47,9.77a440.85,440.85,0,0,0,46.63,6.36,412,412,0,0,0,93.9-2.77,344.69,344.69,0,0,0,45-9.64c13-3.72,26-8.07,37.79-14.74,16-9.09,33.63-27.85,20-46.36-5.65-7.68-14.13-13-22.56-17.17a154.91,154.91,0,0,0-31.3-11.14q-7.63-1.89-15.4-3.08c-3.45-.54-4.94,4.75-1.46,5.28,19.61,3,40.56,8.84,56.93,20.44,6,4.29,12.44,10.43,13.25,18.22,1,9.65-6.72,18.15-13.82,23.58-10.17,7.78-22.48,12.58-34.56,16.52a326.2,326.2,0,0,1-40.26,10.26,393.1,393.1,0,0,1-88.71,6.26,414.21,414.21,0,0,1-87.07-12.4,157.19,157.19,0,0,1-30.74-11.11c-8.3-4.12-17.39-9.4-22.47-17.44-4.87-7.72-2.92-15.93,2.65-22.74,8.38-10.25,21.68-15.12,33.85-19.2,24.16-8.12,49.52-12.44,74.9-14.2a413.66,413.66,0,0,1,157,19.35c5.73,1.88,11.41,3.93,17,6.11,3.29,1.28,4.72-4,1.46-5.29Z"/><path d="M1564.06,958.88c17-2.77,34.53-3,51.76-2.75s34.17,1.1,51.21,2.2c3.53.23,3.51-5.25,0-5.48-17.42-1.13-34.86-2-52.32-2.21s-34.92.16-52.11,3c-3.48.57-2,5.85,1.46,5.29Z"/><path d="M1630.14,945.88c12.47,1.36,24.88,5,35.4,11.94,3,1.95,5.7-2.8,2.77-4.73-11.36-7.51-24.74-11.23-38.17-12.69a2.75,2.75,0,0,0-2.74,2.74,2.8,2.8,0,0,0,2.74,2.74Z"/><path d="M1631.54,970.22c11.89-4.65,23.66-9.41,36.22-12,3.46-.71,2-6-1.46-5.29-12.55,2.57-24.33,7.34-36.22,12a2.82,2.82,0,0,0-1.91,3.37,2.76,2.76,0,0,0,3.37,1.91Z"/><path d="M1680.73,935.11a131.38,131.38,0,0,0-86.59-18.67c-15,2-29.86,6.91-42.7,15-11.4,7.2-20.81,20-18,34.11,2.25,11.32,12.08,19.7,21.81,24.85,13.32,7.07,29.11,10.41,44,11.67a128.48,128.48,0,0,0,50.22-5.71c13.86-4.48,28.87-11.14,38.71-22.26,9.45-10.66,13.49-25.84,5-38.27-6.92-10.06-18.86-16.55-30.56-19.3-3.43-.81-4.9,4.48-1.46,5.29,9.43,2.21,18.82,6.94,25.3,14.26,8.09,9.15,7.34,20.86.64,30.64-7.61,11.11-21,17.71-33.29,22.34a123.71,123.71,0,0,1-45,8,127.85,127.85,0,0,1-44.54-8.54c-9.22-3.56-18.83-9.67-23.49-18.69-6.28-12.11,1.49-25.49,11.73-32.48,11.09-7.57,24.22-12.26,37.35-14.7,30.07-5.58,62.33,1,88.17,17.19,3,1.88,5.75-2.86,2.77-4.73Z"/><path d="M1358.1,952.37c-2.17,6,4,10.85,9.7,9.39a13.36,13.36,0,0,0,7.2-5.34c.91-1.23,1.56-2.68,2.53-3.85,2.1-2.55.89-.84,1.3,1.07,1.24,5.8,8.64,5,12.17,2.1,2-1.6,4.53-5.08,7.5-4.28,1.43.38,2,2,2.62,3.26,1.62,3.4,3.11,7.09,7,8.44a12.91,12.91,0,0,0,13.8-3.46c2.37-2.64,7.63-13.94,10.63-6.75,1,2.29,1.69,4.59,3.86,6,2.59,1.73,5.88,1.33,8.55,0,4.26-2.17,7.09-5.2,12.29-4.4,4,.62,7.76,2.26,11.73,3,9.12,1.63,18.44,1.32,27.65,2,3.52.26,3.5-5.22,0-5.48-7.57-.56-15.18-.42-22.72-1.31-6.65-.77-13.32-4.31-20-3.78a18.26,18.26,0,0,0-8.78,3.42c-1.22.81-2.53,2-4,2.23-2.34.29-2.67-1.84-3.36-3.53-1.94-4.77-6.14-8.07-11.34-5.27-4.23,2.27-5.5,7.29-8.77,10.5s-8.06,2.78-10.15-1.11c-1.55-2.9-2.44-6.4-5.44-8.22-3.76-2.29-8.63-.57-11.73,2-1.17,1-2.87,3.39-4.52,3.46-2.09.09-1.21-1.17-1.57-2.78a5.23,5.23,0,0,0-6-3.82c-3,.38-4.69,2.84-6.21,5.23a15.24,15.24,0,0,1-3.28,4.16c-1.58,1.21-6.61,2.24-5.27-1.47,1.19-3.33-4.11-4.76-5.29-1.46Z"/><path d="M1372.07,994.48c5.58-2,8.75-6.35,12.91-10.26,2-1.87,4.2-3.55,7-3.74,1-.07,4.36-.27,5,.66.49.66,0,3.29.13,4.18a7.68,7.68,0,0,0,1,2.9,9,9,0,0,0,5,3.68c5.31,1.69,10.08-1.31,14.44-4,2.08-1.28,6-4,7.94-1.78,1.51,1.79,2.16,3.49,4.36,4.73,4.42,2.49,10.27,2.51,15.19,2.55,13.21.1,26.22-2.72,39.29-4.2,3.46-.39,3.5-5.88,0-5.48-13.27,1.5-26.49,4.4-39.9,4.19-5-.07-11.42.24-14.2-4.55s-8.42-3.92-12.9-1.66c-3.57,1.79-14.1,9.93-14.84,1.43-.18-2,.11-4-1.31-5.61a8,8,0,0,0-4.75-2.2,15.71,15.71,0,0,0-12.28,2.46c-4.8,3.38-7.87,9.4-13.56,11.41-3.31,1.17-1.88,6.47,1.46,5.29Z"/><path d="M1390.88,1018.08c4.09-4.83,9.11-5.44,15.1-4.76a95.61,95.61,0,0,0,18.53-.05c12.61-1,25.28.61,37.86-1,3.46-.43,3.5-5.92,0-5.48-13.84,1.76-27.88.17-41.78,1.32a64.15,64.15,0,0,1-9.8.25c-3.2-.23-6.38-.93-9.61-.86a18.79,18.79,0,0,0-14.17,6.7c-2.27,2.67,1.59,6.57,3.87,3.87Z"/><path d="M1737,954.72c3.54-1.38,6.1-3.73,9-6.13,3.15-2.64,5.63-3.46,9-1,5.23,3.79,10,8.28,17,6.9,2.79-.55,5.32-2,8.07-2.7,4.38-1.18,8,.56,12.26,1.2,9.13,1.36,18.12-1,27.2-1.73,3.49-.26,3.52-5.75,0-5.48-9.33.71-19,3.55-28.28,1.45-4-.89-7.22-1.88-11.31-1.05-3,.61-5.69,2.17-8.65,2.86-7.27,1.68-11.11-6.27-17.29-8.19-8-2.5-12,6.08-18.45,8.58-3.26,1.27-1.84,6.57,1.45,5.29Z"/><path d="M1749.06,970.8c4.52-4,11.14-1.7,16.25-.36a33.92,33.92,0,0,0,8.77,1.43,63,63,0,0,0,8.64-1.12c12.31-1.73,24.8,1.66,36.93-2,3.37-1,1.93-6.31-1.46-5.29-6.49,1.95-13.15,1.79-19.86,1.53a97.32,97.32,0,0,0-19.67.89c-6.88,1.14-12.42-1.44-19.08-2.45-5.22-.8-10.36-.12-14.39,3.49-2.64,2.35,1.25,6.22,3.87,3.87Z"/><path d="M1499.12,374.59a399.75,399.75,0,0,0-122.4,61.64c-2.8,2.08-.07,6.84,2.77,4.73a395.37,395.37,0,0,1,121.08-61.08c3.37-1,1.93-6.31-1.45-5.29Z"/><path d="M1631,399.09c-3.45,44.67-2.5,89.51-1,134.25.12,3.52,5.6,3.54,5.48,0-1.5-44.74-2.45-89.58,1-134.25.27-3.52-5.22-3.5-5.49,0Z"/><path d="M1799.33,342.2a407.22,407.22,0,0,1,89.33,17c3.38,1.05,4.83-4.24,1.46-5.28a414.3,414.3,0,0,0-90.79-17.21c-3.52-.26-3.5,5.22,0,5.49Z"/><path d="M1914.26,342.55c-12.7-5.73-18,19.46-5.36,18.06,5.7-.63,11-5.71,14.74-9.74,4.55-5,8.15-10.76,11.67-16.5,1.47-2.39-1.41-5.05-3.75-3.75-6.41,3.56-10.18,12.66-9.75,19.83.19,3.27,1.9,6.54,5.45,7,3.9.47,6.36-2.79,9.38-4.6q-1.38-2.37-2.77-4.73c-6,4,1.22,12.9,6.06,14.32,6.74,2,15-6.35,19.07-10.68,2.27-2.4,5-6.6,1.16-9.15-4-2.68-8,3.4-9,6.59-1.29,4.12.18,8.76,4.33,10.48,5.42,2.25,12.76.78,18-1.15,3.28-1.21,1.86-6.51-1.46-5.29A27.46,27.46,0,0,1,1960,355c-2-.19-4-.84-3.78-3.26a6.14,6.14,0,0,1,.87-2.34,8.6,8.6,0,0,1,1-1.39q.93-.77,0-.45l-1.64-1.26c.86,1.22-10.24,9.05-11.36,9.64-1.73.92-3,1.58-4.6.48a10.5,10.5,0,0,1-2.35-2.4,8.52,8.52,0,0,0-.71-1.09c-1-.89.56-1-.75-.14,2.92-1.94.29-6.56-2.77-4.73-1.59,1-3.12,3-4.89,3.54-2.55.82-1.66-3.25-1.34-4.77.93-4.44,2.5-9.18,6.69-11.51l-3.76-3.75c-3.73,6.1-7.52,12.28-12.67,17.31-2.31,2.26-5.27,5-8.42,6-2.59.82-2.5-1.33-2.13-3.39.31-1.74,1.66-5.36,4.15-4.24,3.19,1.44,6-3.29,2.76-4.73Z"/><path d="M1260.51,945c14.64.55,29.55,3.12,42.82,9.56,3.16,1.54,5.94-3.19,2.76-4.73-14.17-6.88-29.93-9.72-45.58-10.32-3.53-.13-3.53,5.35,0,5.49Z"/><path d="M1263.86,969.2c13.71-5.42,27.31-10.94,41.72-14.27,3.44-.79,2-6.08-1.46-5.29-14.41,3.33-28,8.85-41.71,14.28-3.24,1.28-1.83,6.59,1.45,5.28Z"/><path d="M1811.78,1142.93c1-3.43,5.51-2.69,8.24-2.63l11.65.25c3.73.08,7.56-.08,11.27.34,3.23.38,6.07,1.6,7.61,4.59s6.35.37,4.74-2.77c-4.57-8.88-16.1-7.48-24.48-7.66-5-.11-10.24-.64-15.25-.24-4.19.34-7.88,2.42-9.07,6.66-1,3.4,4.33,4.86,5.29,1.46Z"/><path class="cls-5" d="M2286.74,987.8a26.1,26.1,0,0,0,4.52,3,5.47,5.47,0,0,1,2,1.86,4.59,4.59,0,0,0,2.26,1.85,1.77,1.77,0,0,0,.38.15l1.45.58c1.16.43,2.24.78,3.19,1l.15.06c.46.12.81.2,1.1.26.67.18,1.19.26,1.66.35a22.74,22.74,0,0,0,3.48.38,13.4,13.4,0,0,1-1.1-.84c-.23-.18-.52-.38-.84-.67-.15-.12-.29-.26-.47-.41-.49-.4-1-.9-1.65-1.48-.35-.35-.73-.7-1.11-1.08s-1-1-1.56-1.65c-.3-.29-.59-.61-.88-.93-.55-.61-1.1-1.28-1.65-2-.29-.35-.58-.73-.87-1.11a1.07,1.07,0,0,0-.15-.17,62.39,62.39,0,0,1-3.54-5.14c-.49-.81-1-1.68-1.51-2.56-.06-.14-.15-.29-.26-.49a57,57,0,0,1-3.37-7c-.26-.64-.49-1.28-.76-1.94-.75-1.95-1.42-4-2-6.25-6-23.17-4.44-54.85-4.36-56.71.94-1.57,1.83-3.14,2.68-4.79s1.68-3.46,2.46-5.35c.35-.81.67-1.62,1-2.47a13.67,13.67,0,0,0,.55-1.45c.29-.75.56-1.51.82-2.26.84-2.47,1.62-5.11,2.29-7.93.29-1.08.55-2.18.79-3.28s.49-2.41.72-3.66c.2-1.08.38-2.18.55-3.31.24-1.37.41-2.76.59-4.18s.31-2.59.43-3.92c.06-.64.12-1.28.15-1.92s.08-1,.14-1.57a1,1,0,0,0,0-.32c0-.43,0-.84.06-1.28.06-1.07.11-2.18.14-3.28a2.69,2.69,0,0,0,0-.49c0-.5,0-1,.06-1.51.12-4.62.06-9.56-.2-14.76-.21-3.54-.5-7.25-.9-11.06-4.53-42.89-13.77-67.81-23.5-81.66-.35-.52-.69-1-1.07-1.51-.76-1-1.48-1.86-2.18-2.7s-1.45-1.63-2.18-2.38a11.1,11.1,0,0,0-.84-.84c-7.06-6.83-13.88-8.63-18.93-8-6.13.79-13,6.51-18.77,12.34-1.36,1.34-2.67,2.7-3.89,4,0,0-1.42,1.05-1.45,1.05.29.43.61.84.9,1.27a3.49,3.49,0,0,1,.32.5c.47.66.9,1.39,1.34,2.09s.75,1.31,1.1,1.94.7,1.31,1,2c.2.46.41.9.61,1.36.11.26.23.53.32.79.23.61.46,1.22.67,1.83,0,0,0,.08,0,.14.28.87.55,1.74.78,2.62.11.43.2.9.29,1.33a18,18,0,0,1,.41,2.7c.05.41.08.85.11,1.31a24.77,24.77,0,0,1-.29,5.34l.7,11.12a43.71,43.71,0,0,1-.29,14.12l1.16.23c3.49,15,4.91,27.65-.29,38-3.49,6.89-9,13.83-14,19.84l.67.58a243.6,243.6,0,0,0-3,42.28c0,1.48,0,3,.11,4.39a177.14,177.14,0,0,0,4.56,34.38c4.1,17,10.54,30,18.27,37.52.38.38.78.75,1.19,1.1l.93-.05c.29,3,.46,5.86.61,8.74.16,3.85-.46,8.78.82,12.41a28.56,28.56,0,0,0,3.11,5.72,282.39,282.39,0,0,1,24.65,48,49.45,49.45,0,0,0,16.23-39.11,90,90,0,0,0-1.64-11.67c-1.59-8.38-3.36-16.72-5.23-25C2279.63,980.36,2282.82,984.57,2286.74,987.8Z"/><path class="cls-6" d="M2121.09,821.66c-10.21-2.52-23.94-10.46-34.28-33.13-17.78-39-22-29.3-27.31-22.58l-8.22,8.17a38.38,38.38,0,0,0-4.23,7.9l-1.41-.54c-17.39,12.12-11.31,39.2-11,40.62-1-1.37-17.26-24.67-9.39-62.14,3.88-19.74,13.69-28.28,30.63-22,0,0,3.38.42,11.92-4.33.61-.38,1.21-.71,1.86-1.08,31.59-18,82.73-23.19,118.88-8.48,12.18,4.91,24.21,14,31.79,24.43,5.85,8,9,16.89,7.62,25.21l.7,11.11a43.18,43.18,0,0,1-.32,14.12l1.18.23c3.5,15,4.93,27.64-.28,38-3.48,6.89-9,13.84-14,19.86-4.17,5.09-8,9.53-10,12.73-7.14,12.69-6.61,25.34-6,26.66a27.8,27.8,0,0,1-6.81-6.17,40.76,40.76,0,0,1-5.83-9.66c-5.34-12.24-6.83-17.41-14.17-21.43l-2.65-.62a25.49,25.49,0,0,0,8.09-21.81c-2.27-17.28-10.52-19.57-24.14-15.19l-8.59,6.54c-7.33,5.49-16.84,4.22-24.1-6Z"/><path class="cls-7" d="M1954.14,1432.94c0-25.18-.61-50.36-.49-75.5l.35-2.53c11.35,1.59,22.5,3.22,33.57,4.82-.23,25.47-.35,50.91,0,76.43l-.61,5.26C1967.12,1439.36,1954.23,1436.48,1954.14,1432.94Z"/><path class="cls-7" d="M2209,1344c-2.59,9.7-4.62,19.86-8,29.3-2.7,7.67-.2,15.83.67,23.73a228.89,228.89,0,0,0,5.52,30.72c3.57,18.18-151,20.85-220.25,13.68l.61-5.26c-.4-25.52-.28-51,0-76.43,28.22,4.07,56,7.81,85.84,10.08,18.91,1.45,39.44,4,58.34,2.23,23.67-2.15,35.2-15.19,46.9-34.12,10.17-16.49,18.82-33.83,27.65-51.05a738.72,738.72,0,0,0,36.94-83.87q5.22-14.32,9.93-28.84c-9.9,37-19.28,74.08-28.81,111.14C2219.31,1304.9,2214.25,1324.47,2209,1344Z"/><path class="cls-7" d="M2264.33,1136.82c-1.53,5.57-3.1,11.15-4.79,16.69s-3.36,11.1-5.11,16.62c-.41,1.33-.84,2.7-1.28,4q-4.7,14.52-9.93,28.84a737,737,0,0,1-36.94,83.87c-8.82,17.22-17.48,34.56-27.64,51.05-.73,1.19-1.46,2.35-2.21,3.49-2.21,3.39-4.41,6.59-6.74,9.52-.66.84-1.3,1.62-2,2.41-.15.18-.29.32-.41.46-.55.64-1.1,1.25-1.68,1.86-.26.29-.5.55-.76.82a53.15,53.15,0,0,1-5.22,4.79c-.91.72-1.83,1.42-2.82,2.12s-1.92,1.28-3,1.88c-.76.47-1.54.91-2.33,1.31a26.1,26.1,0,0,1-2.44,1.16c-1.1.5-2.26,1-3.45,1.37-.2.09-.44.14-.64.23-1.13.38-2.3.73-3.49,1-.29.08-.6.17-.93.23s-.92.23-1.39.32-1.22.26-1.86.38l-1.8.29c-.61.08-1.1.17-1.62.23-.73.09-1.46.17-2.21.23-18.91,1.72-39.44-.78-58.34-2.23-29.8-2.27-57.59-6-85.85-10.08-11.06-1.6-22.18-3.23-33.54-4.82l-16.49-2.27a6.19,6.19,0,0,1-2.85-1.1c-.49-.35-1-.76-1.45-1.13l-.14.2a108.58,108.58,0,0,1-15.48-4.79,55,55,0,0,1-1.86-6.22,74.2,74.2,0,0,1-2.06-15.44,62.53,62.53,0,0,1,2.79-21.52,47.3,47.3,0,0,1,2.14-5.2c.24-.47,1.46-3.37,2-3.37,0,0,3.57,0,7.26.09,2.17,0,4.38.14,6,.32l.14.14c.3-.23.56-.46.85-.66a5.75,5.75,0,0,1,.87-.62,5.93,5.93,0,0,1,3.28-.81c15.89.44,32.5.93,49.22,1,10.58.06,21.23-.06,31.72-.5,2.06-.08,4.24-.14,6.56-.2l-38.89-38.36.93-.93c0-16-.4-32-1.36-48.15-1.34-22.76-1.19-46,9.67-66.73,8.71-16.59,21.63-30.35,32-45.8,17.28-25.76,33.71-49,50.1-75.33.4-.67.81-1.33,1.21-2.06,5-8.89,6.57-19.69,11.1-28,.66-1.22,1.65-2.59,2.93-2.85a2,2,0,0,1,.84,0,3.9,3.9,0,0,1,2,1.86c7.09,10.54,11.68,26.25,16.94,38,19.42-11.24,41.12-24.16,59.79-36.44,14.55-9.61,25.61-16.15,35.81-29.13a7.39,7.39,0,0,0,.66-1l1.05.15c1.1,1.74,2.21,3.45,3.31,5.17s2.23,3.42,3.4,5.14,2.26,3.4,3.42,5.08c2.88,4.21,5.81,8.42,8.69,12.63,4.35,6.31,9.06,12.23,13.09,18.71.64,1,1.25,2,1.83,3,1.34,2.35,2.59,4.73,3.84,7.11l7.23,13.85c1.22,2.35,2.47,4.71,3.57,7.12s2.18,5,3.19,7.58a198.14,198.14,0,0,1,8.11,23.29c.81,3.13,1.53,6.3,2.11,9.46C2276.94,1096.83,2269.77,1117.07,2264.33,1136.82Z"/><path class="cls-8" d="M987.92,1031.78a31,31,0,0,0,4.85,2.88c-1.22,2.38-2.79,4.84-5.78,3.95-2.82-.88-3.92-3.2-4.07-6a17.85,17.85,0,0,1,.26-4.41Z"/><path class="cls-8" d="M906.69,1163.33c-1.22,5.52-2.87,14.2-5.49,20.82l.26.12c-.34,6.62-4.47,14.29-10.07,21.37-4.71,15.25-24,28.08-38,31.71-3.6.93-5.37,1.86-9,2.59q-12.37,2.44-24.89,4.12c-9,1.25-18,2.24-27,2.91-3.11.26-6.22.49-9.36.66l-2.14,0c-.09-19.19-1.75-42.07-7-48.06l2.06-.06c3.25-2.81,6.42-5.69,9.58-8.62,6.51-6,12.9-12.14,19.55-18,6.33-5.61,12.34-12.44,20.5-15.45,6.53-2.41,9.44-1,15.74-.67.41,0,.84.05,1.31.05,6.79.18,18.93-.08,25.61-1.36,2.7-.52,9.09-1.4,11.06,1.31s-4.27,12.34-13.56,15.76c5.66-.43,9.67-1.83,14.93-5.95a236.77,236.77,0,0,0,18.67-16.26l-.46-.61,19.69-15.45.61.79a90.1,90.1,0,0,1-12.61,28.16Z"/><path class="cls-8" d="M778.16,802.8c-5.31,18.06,11.67,26,9.5,34.73-.79,2.76-4.27,5.46-9.12,7.26s-8.86,1.54-12.2,6.36-9.93,21-16.61,32.32c-6.91,11.94-13.82,14.61-25.38,10.92a102.86,102.86,0,0,1-13.5-5.69l13,3.46s-37.55-18.07-48.3-29.62a73.57,73.57,0,0,0,.84,16.46,89,89,0,0,0,5.43,17l10.78-12.08,1.59.44c-2.17,1.42-5,4.81-8,9-1.69,2.35-3.4,4.91-5,7.49l.14.09c6.94,5.49,17.6,28,21.55,40,.29,2.14.46,4.29.58,6.44l-.73.26c-1.45-4.12-9.2-18.49-11.7-22.62-1.25-2-2.56-4-3.92-6l-.7-.32c-20.73-11.09-73.12-40.95-95.34-53.93.82-.69,1.66-1.48,2.56-2.29,9.84-9,24.48-39.06,29.62-55.85l.17-.05a19.86,19.86,0,0,0,5.61,8.59s2.12-24.54,19.66-29.74l2.21-.46a24.18,24.18,0,0,1,2.26-15.54c7.81-15,16.12-14.34,27-5.8,0,0,2.76,1.27,8.19,4.38,8.71,11.44,20.59,5,28.48-3.45a19.56,19.56,0,0,0,10.26-2.39c15.1-8.56,27.67-34.26,30.4-34.26,2,.14,7.29,9.78,7.29,11.55l8.68-3.6a74.33,74.33,0,0,1,11.94,10.28,24.91,24.91,0,0,1,3.57,5.64,27,27,0,0,1,2.06,15.88c-2.41,10.92-8,21.29-11.38,30.38C779.12,799.63,778.57,801.23,778.16,802.8Z"/><path class="cls-8" d="M2192.44,890.18a41.06,41.06,0,0,1-5.8-9.64c-5.35-12.25-6.83-17.42-14.17-21.43l-2.65-.64a25.56,25.56,0,0,0,8.08-21.81c-2.27-17.28-10.52-19.54-24.14-15.19l-8.59,6.57c-7.35,5.48-16.85,4.21-24.1-6l0-.34c-10.22-2.5-24-10.46-34.29-33.11-17.78-39-22-29.3-27.3-22.59l-8.22,8.16a39.76,39.76,0,0,0-4.24,7.9,32.55,32.55,0,0,0-2.23,12c-.59,11.47,1.13,22.88,1.1,32.35-.26,19-20.15,21-18.88,30.12.93,7.52,10.92,12.4,13.21,20.47,2.24,8.45,4.1,24.42,7.24,38.39,3.42,13.91,8.74,16.7,19.6,17.6,1,.06,2.06.12,3.08.12a.6.6,0,0,0,.35,0,5.89,5.89,0,0,0,.84,0,60.58,60.58,0,0,0,7.55-.5c4.38-.49,8.8-1.36,13-2.12,2.06-.35,4.73-.9,7.69-1.57l.09.35.09.47c5.57-1.31,12.2-3,17.94-4.77a22.31,22.31,0,0,0,2.62-.84c2.5-.78,4.73-1.54,6.48-2.29a83.54,83.54,0,0,1-6.83,15.13c-4.62,7.72-15.45,13.21-15.45,13.21l-2.85-9.12.12.84-.23,0c-12.69,6.74-15.83,26-16.29,38.8a.39.39,0,0,1,0,.26c-1.66,11.39-2.76,25.41-5.17,34.56,5-8.89,6.56-19.69,11.09-28,.67-1.22,1.66-2.59,2.88-2.82,20.93-6.45,53.23-15.68,70-26.86,14.67-9.79,23.26-16.79,28.06-23.55l-2-1.46C2184.89,920.18,2187.71,902.44,2192.44,890.18Zm-122.75,12.2c-17.88,2.9-19.1-21.93-19.1-21.93a98.09,98.09,0,0,0,16.43,1.08c10.08-.7,20.85-2.38,20.85-2.38S2084,899.91,2069.69,902.38Z"/><path class="cls-6" d="M2301.87,996.67l1.54.32C2302.94,996.9,2302.42,996.82,2301.87,996.67Z"/><path class="cls-6" d="M2298.47,989.32c.58.7,1.16,1.34,1.69,1.92C2299.6,990.66,2299.05,990,2298.47,989.32Z"/><path class="cls-6" d="M2293.88,861.84c.09-.85.15-1.72.18-2.59C2294,860.12,2294,861,2293.88,861.84Z"/><path class="cls-6" d="M2292.66,872.44c.23-1.37.41-2.76.58-4.18C2293.07,869.68,2292.89,871.07,2292.66,872.44Z"/><path class="cls-6" d="M2291.3,978.84c1.19,2.12,2.38,4.07,3.6,5.81A62,62,0,0,1,2291.3,978.84Z"/><path class="cls-6" d="M2277,977c.32.58.64,1.16,1,1.71C2277.65,978.14,2277.33,977.56,2277,977Z"/><path class="cls-6" d="M2238.36,1007.74c.29-2.88.46-5.76.61-8.66-.09-.14-.15-.2-.2-.29Z"/><path class="cls-6" d="M2251.46,1019.64q-3.23-5.79-6.71-11.41a.4.4,0,0,0-.12-.2c-.58-1-1.19-2-1.8-2.94q-1.87-3-3.83-6c1.33,2,2.61,4,3.86,6,.61,1,1.22,1.95,1.8,2.94a.4.4,0,0,1,.12.2Q2248.26,1013.84,2251.46,1019.64Z"/><path class="cls-6" d="M2251.77,1034.77c-.29.76-.61,1.54-.93,2.27a.58.58,0,0,0-.05.14C2251.11,1036.37,2251.43,1035.58,2251.77,1034.77Z"/><path class="cls-6" d="M2254.85,1026a1.37,1.37,0,0,0-.17-.38q-1.57-3-3.22-6c1.13,2,2.2,4,3.25,6a1.55,1.55,0,0,0,.14.29C2254.88,1026,2254.88,1026,2254.85,1026Z"/><path class="cls-5" d="M2121.12,821.65c-10.22-2.5-24-10.46-34.29-33.11-17.78-39-22-29.3-27.3-22.59l-8.22,8.16a39.76,39.76,0,0,0-4.24,7.9l-1.39-.53c-17.4,12.11-11.33,39.21-11,40.63-1-1.39-17.25-24.68-9.38-62.14,3.86-19.75,13.68-28.29,30.64-22.05,0,0,3.37.44,11.9-4.32.62-.38,1.22-.7,1.86-1.08,31.6-18,82.74-23.2,118.89-8.48,12.17,4.91,24.19,14,31.77,24.43.61.84,1.19,1.71,1.78,2.55s1.07,1.74,1.56,2.62l.7,1.3c.46.9.87,1.77,1.25,2.67.2.44.38.9.55,1.34.35.9.64,1.8.9,2.67a26.74,26.74,0,0,1,.9,12l.7,11.12a42.91,42.91,0,0,1-.32,14.12l1.19.23c3.48,15,4.91,27.65-.29,38-3.49,6.89-9,13.83-14,19.84-4.18,5.11-8,9.52-10.05,12.75-7.14,12.69-6.62,25.32-5.95,26.66a28.73,28.73,0,0,1-6.83-6.19,41.06,41.06,0,0,1-5.8-9.64c-5.35-12.25-6.83-17.42-14.17-21.43l-2.65-.64a25.56,25.56,0,0,0,8.08-21.81c-2.27-17.28-10.52-19.54-24.14-15.19l-8.59,6.57c-7.35,5.48-16.85,4.21-24.1-6Z"/><path class="cls-7" d="M2209.58,949.94a7.21,7.21,0,0,1,.67,7.9,8.53,8.53,0,0,1-.67,1c-10.19,13-21.26,19.52-35.81,29.13-18.67,12.28-40.36,25.2-59.79,36.44-5.26-11.7-9.85-27.41-16.93-38a3.9,3.9,0,0,0-2-1.86,2,2,0,0,0-.84,0c20.87-6.42,53.17-15.65,69.92-26.83,14.67-9.79,23.26-16.79,28.06-23.55a33,33,0,0,0,1.83-2.91C2198.83,936.41,2205.57,944.83,2209.58,949.94Z"/><path d="M2127,920.56a2.65,2.65,0,0,1-.14.35c-1.78.75-4,1.53-6.48,2.32A47.71,47.71,0,0,0,2127,920.56Z"/><path class="cls-7" d="M2101.72,941l.12.84-.23,0c-12.69,6.74-15.83,26-16.29,38.8a1.22,1.22,0,0,0-2-.9c-9.06,7.06-17.71,18.73-23,25.26a160.63,160.63,0,0,1,21.9-52c.17-.29.38-.61.58-.9,2-3,3.54-6.63,6.36-8.86,3.22-2.56,7.64-4.19,11.47-5.58C2100.65,937.63,2101.72,941,2101.72,941Z"/><path class="cls-2" d="M2087.87,879.15s-3.83,20.76-18.18,23.23c-17.88,2.9-19.1-21.93-19.1-21.93a98.09,98.09,0,0,0,16.43,1.08C2077.1,880.83,2087.87,879.15,2087.87,879.15Z"/><path class="cls-9" d="M1987.57,1254.46l38.91,38.36c-2.32.06-4.53.12-6.56.2-10.49.44-21.14.56-31.71.5-16.73-.06-33.34-.55-49.23-1a5.93,5.93,0,0,0-3.28.81,15.57,15.57,0,0,0-1.74,1.28l-.15-.14c-1.56-.18-3.77-.27-6-.32l0-.61-19.14-19.69a27.79,27.79,0,0,0-2.44-3.4,102.22,102.22,0,0,0-11.41-10.89l-.12-.11-13.67-14.06c-2-2.41-3.84-4.82-5.69-7.23-4.53-5.87-7-10.54-14.12-13.51l-5.24-1.77-75.33-76.41,0-4.38,95.08,2.15,81.63,80.5Z"/><path class="cls-8" d="M1868.82,1264.16c-1.39-3.2-2.67-6.39-4-9.61-2.06-5.2-3.77-10.66-6.24-15.68-.84-1.75-1.68-3.55-2.5-5.29-.93-1.95-3.45-4.41-3.19-6.71a3.9,3.9,0,0,1,3.45-3.14,8.51,8.51,0,0,1,4.39.73c.17.06.35.15.52.2,7.17,3,9.59,7.64,14.12,13.51,1.85,2.41,3.71,4.82,5.63,7.17,2.23,2.73,4.5,5.31,6.91,7.78,2.18,2.21,4.5,4.3,6.82,6.34l.12.11a102.22,102.22,0,0,1,11.41,10.89,26.36,26.36,0,0,1,2.41,3.37,43.78,43.78,0,0,1,4.45,11c1.07,3.74,1.45,10,5.11,12.34l.32.29a45.48,45.48,0,0,0-2.15,5.2,62.53,62.53,0,0,0-2.79,21.52,74.88,74.88,0,0,0,2.06,15.44l-1.6.38c-11.12-3.4-23.78-9-29.85-19.48-4.21-7.32-6.5-15.57-8.8-23.64A254.71,254.71,0,0,1,1868.82,1264.16Z"/><path class="cls-7" d="M2083.34,979.74c-9.06,7.06-17.71,18.73-23,25.26a160.63,160.63,0,0,1,21.9-52l-.61-.38c-12.37-1.1-25.29,6.1-36,11q-16.38,7.44-32.67,15c-22.65,10.57-45.59,20.5-68.65,30.2-2.44,1.05-4.82,2.15-7.06,3.37l-2.32-1.69c-31.89-35.13-69.55-69.2-98.59-107.33a4.93,4.93,0,0,0-4.68-1.92c-2.18-2.87-5.63-6.79-7.66-9.78-.27.14-.5.29-.76.44-9.84,5.57-20.12,13.76-26.92,23.08-.75,1-1.48,2.09-2.15,3.17a12.36,12.36,0,0,0,.58,1.71l6.19,11,.78.2a11.28,11.28,0,0,0,1.45,8.31c17.31,27.61,27.74,43.56,45.65,71.14,9.53,14.67,19.9,27.36,29.83,41.76,12.6,18.24,29.36,24.92,50.36,29,22.82,4.42,43.29,1.83,66.26.61-3.74,5.81-7.61,11.53-11.32,17.11-8.48,12.78-14.84,26.34-21.4,40.13-6.71,14.06-5.75,28.17-5.14,43.21.55,14.09.26,28.32.11,42.46l30.09,29.71.93-.93c0-16-.41-32-1.37-48.15-1.34-22.76-1.19-46,9.67-66.73,8.71-16.59,21.64-30.35,32-45.8,17.28-25.76,33.72-49,50.1-75.33.4-.67.81-1.33,1.22-2,2.41-9.18,3.51-23.2,5.17-34.59v-.26A1.22,1.22,0,0,0,2083.34,979.74Z"/><path class="cls-8" d="M1797.18,832.48l1.28-.79c8.36,8.28,12.81,19.4,16.15,30.47,3,9.78,3.94,20.61,8.59,29.74-9.84,5.57-20.12,13.76-26.92,23.08-6.21-10.28-14.93-20.1-23.7-28.17-.26-.23-.52-.49-.78-.72-7.75-7.26-14.78-15.08-16-26.14-.84-7.29-1.57-14.63-3.28-21.81-.78-3.28-5.26-8.77-4.39-12.17a3.89,3.89,0,0,1,2.88-2.46c7.14-1.89,12.49,8.91,15.65,15.21q-2.31-8-4.73-15.94c-1.31-4.21-2.38-8.39-5.75-11.71-2.85-2.81-6.68-4.58-9.91-6.93-2.09-1.54-4.18-3.08-6.24-4.65-.7-.52-1.36-1-2.06-1.57a18.75,18.75,0,0,1-4.09-4.06,8.18,8.18,0,0,1-1.14-5.46,2.86,2.86,0,0,1,.35-1.08,1.91,1.91,0,0,1,1.48-.73,5,5,0,0,1,1.69.38,66.84,66.84,0,0,1,12,6.3c.87.55,1.74,1.11,2.64,1.63,2.32,1.39,4.94,2.76,7.58,4.24a71,71,0,0,1,8.36,5.2c.91.67,1.75,1.36,2.56,2.09,3.14,1.57,5.66,1.69,8.6,3.72,2.41,1.68,4.06,4.64,5.37,7.69l1.05-.46c2.23.93,4.2,1.48,5.6,3.63C1792.53,824.93,1794.94,828.68,1797.18,832.48Z"/><path class="cls-10" d="M899,1149.77l.46.61a236.77,236.77,0,0,1-18.67,16.26c-5.26,4.12-9.27,5.52-14.93,5.95,9.29-3.42,15.62-12.92,13.56-15.76s-8.36-1.83-11.06-1.31c-6.68,1.28-18.82,1.54-25.61,1.36-.47,0-.9,0-1.31-.05l.12-2.73c23-14.12,50.55-31.1,73.81-44.93.18-.11.35-.2.53-.32,1.74-1.3,2.29-6.36,2.38-8.8a98.11,98.11,0,0,0,11.85-4.76c4.67-2.35,9.41-4.24,14-6.74a107.85,107.85,0,0,0,26.63-20.44l.35-.75a2.89,2.89,0,0,0,1,.26c2.21.14,4.33-2,5.78-3.4,3.28-3.28,5.54-7.32,8.36-11a26.53,26.53,0,0,0,3.72-6.56,16.52,16.52,0,0,0,.87-6.27,25.34,25.34,0,0,0,1.83-2.5,11.23,11.23,0,0,0,1.31-2.73,28.07,28.07,0,0,0,8.3,2,27.92,27.92,0,0,0-6.07-9.38,47.62,47.62,0,0,0,1.95-4.82l1.22.41,44.52-31-9,50.71-116.19,91.21Z"/><polygon class="cls-2" points="997.35 1030.95 1027.48 1010.35 1021.04 1044.83 879.27 1155.93 886.63 1126.49 997.35 1030.95"/><path class="cls-8" d="M973,999.49l-1.22.49c-1.51,1.71-3,3.46-4.47,5.2l-.29.38-17.45-13c2.84-1.78,5.86-3.28,8.53-4.88,5.06-3.11,9.88-7.09,15.69-8.8,5.14-1.54,7.2,0,8.94,4.32.67,1.75,1.31,3.46,1.92,5.2a138,138,0,0,1,4.85,18.68c.26,1.56.49,3.42-.64,4.53l-2,.17a4.93,4.93,0,0,0-2.93-1.33,13.16,13.16,0,0,0-4,.11l-3.11.38-.4-2.85C975.46,1005.33,974.12,1002.42,973,999.49Z"/><path class="cls-8" d="M999.27,1011.45c0-3.57-.17-7.17-.38-10.74-.17-3-.49-6.8-2.38-9.3-1.13-1.45-3.1-2-4.93-2.35s-3.72-.78-5.58-1.13l-1.39.49a138,138,0,0,1,4.85,18.68c.26,1.56.49,3.42-.64,4.53l-2,.17a4.93,4.93,0,0,0-2.93-1.33,13.16,13.16,0,0,0-4,.11l-3.11.38c-1,.14-2.09.26-3.13.43a91.34,91.34,0,0,0-10.4,2,43.72,43.72,0,0,0-8.13,2.87c-6.39,3.05-10.25,10.43-14.9,15.6a185.81,185.81,0,0,1-20.62,19.34l-3.51-.85a26.53,26.53,0,0,1-5.08,5.2l-1-1.28a11.77,11.77,0,0,0-3.4,2.07c-5.43,4.67-4.12,12.92-3.69,20,.53,8.83,3.4,18.26,6.45,26.54,2.7-.84,5.75-1.77,8.83-2.85a98.11,98.11,0,0,0,11.85-4.76c4.67-2.35,9.41-4.24,14-6.74a107.85,107.85,0,0,0,26.63-20.44l.35-.75a2.89,2.89,0,0,0,1,.26c2.21.14,4.33-2,5.78-3.4,3.28-3.28,5.54-7.32,8.36-11a26.53,26.53,0,0,0,3.72-6.56,16.52,16.52,0,0,0,.87-6.27,25.34,25.34,0,0,0,1.83-2.5,11.23,11.23,0,0,0,1.31-2.73c-.41-.18-.82-.32-1.22-.52-1.22,2.38-2.79,4.84-5.78,3.95-2.82-.88-3.92-3.2-4.07-6a17.85,17.85,0,0,1,.26-4.41l-5.11-3.83c1.51-.67,3-1.37,4.39-2.16a10.58,10.58,0,0,0,3.1-2.81L993,1025a29.12,29.12,0,0,1,3.25,2.81,47.62,47.62,0,0,0,1.95-4.82c.06-.2.14-.43.2-.64.26-.84.52-1.68.7-2.53C999.65,1017.38,999.27,1014,999.27,1011.45Z"/><path class="cls-8" d="M976.42,1008.11l.4,2.85c-1,.14-2.09.26-3.13.43l-.09-.9-6.62-4.93.29-.38c1.48-1.74,3-3.49,4.47-5.2l1.22-.49C974.12,1002.42,975.46,1005.33,976.42,1008.11Z"/><path class="cls-8" d="M942.82,998.15l20.44,15.25a44.21,44.21,0,0,0-8.1,2.87c-6.39,3.05-10.25,10.43-14.9,15.6a185.81,185.81,0,0,1-20.62,19.34l-3.51-.85a68.47,68.47,0,0,0,5.84-10c3.45-6.77,7.43-12.93,10.68-19.78s5.23-14.35,9.15-20.94A13.86,13.86,0,0,1,942.82,998.15Z"/><path class="cls-11" d="M606,748.93l-.7-.12c-9.93-16.2-1.8-32,9.24-42.77-5.69.32-10.51-2.3-15.65-7.17-.64-.93,11.73.66,22.82-8.86,5.63-4.56,14.29-16.5,24.57-23.26,10.57-6.86,20.53-12.26,34.91-7.67.26.06.46.17.72.23a35.92,35.92,0,0,0,13.74.79c22-3.4,57.9,11.93,79.86,30.49,6.79,4.09,12,11,12,11,17.4.24,25.56,6.31,28.84,15.89C820.79,731,815.13,750,815.13,750a55.61,55.61,0,0,1,2.61,23c-1.62,15.79-12.19,26.6-12.19,26.6a121.8,121.8,0,0,0,2.61-19.87,33.55,33.55,0,0,0-.38-7.29l-.46.09s-6.6,25.44-27,25.73l-.64-.23c3.34-9.09,9-19.46,11.38-30.38a27.13,27.13,0,0,0-2.06-15.88l8.36-2.12c.3-7.44-.63-17.77-4.09-21.93-3.28-3.95-12.55,2.15-19.78,8.13l-8.68,3.6c0-1.77-5.28-11.41-7.29-11.55-2.73,0-15.3,25.7-30.4,34.26a19.54,19.54,0,0,1-10.25,2.39C709,773,697.14,779.39,688.43,768c-5.43-3.11-8.19-4.38-8.19-4.38-10.92-8.54-19.23-9.21-27,5.8a24.18,24.18,0,0,0-2.26,15.54l-2.21.46c-17.54,5.2-19.66,29.74-19.66,29.74a19.86,19.86,0,0,1-5.61-8.59,25.46,25.46,0,0,1-1.48-8.31s-2.29-23.4,15.6-41c-24.34,13.41-22.3,36.18-22.3,36.18C614.64,793.62,602.15,776.23,606,748.93Z"/><path class="cls-11" d="M793.32,727.67c3.46,4.16,4.39,14.49,4.09,21.93l-8.36,2.12a24.91,24.91,0,0,0-3.57-5.64,80.32,80.32,0,0,0-11.88-10.3C780.77,729.82,790,723.72,793.32,727.67Z"/><path class="cls-12" d="M909.45,1102.9c-3.05-8.28-5.92-17.71-6.45-26.54-.43-7.09-1.74-15.34,3.69-20-16.58,6.79-37.55,16.93-53.46,25.21-9.76,5.08-19,9.11-25.67,16.34l-1.77-1c-10.31-24.25-22.92-58.06-33.2-82.27-7.31-17.25-14.34-34.47-22.91-51.14-6.82-13.25-13.71-29.19-24-40.11-3.81-4-10.43-6.88-15.25-9.52-11-6.1-27.79-12-39.38-16.87-1.42-1.25-2.79-2.44-3.86-3.35l-.9-.4c-1.69,2.35-3.4,4.91-5,7.49l.14.09c6.94,5.49,17.6,28,21.55,40,.29,2.14.46,4.29.58,6.44l-.73.26c-1.45-4.12-9.2-18.49-11.7-22.62-1.25-2-2.56-4-3.92-6l-.7-.32a186,186,0,0,0-16.14,45.62c-8.57-8.62-18.15-17.74-27.91-25-9-6.65-17.72-13.33-26.72-19.89-8.59-6.28-17.28-12.46-26-18.56-6.56-4.59-12.6-10.34-18.5-16a6,6,0,0,1-1.74-3.17l-1.19.38c-19,15.91-37.35,34.59-53.67,53-8.3,9.38-17.51,17.83-22.65,29.36-5.78,13-7.52,27.44-9,41.5-2.29,21.28-2.9,42.68-3.51,64.09-1.14,40.3-1.92,80.7.43,121,1.19,20.35,3.2,40.71,6.36,60.86,2.47,15.89,2.73,36.07,23,36.86,12.58.46,25.35.37,38.1-.06q1.71,29.88,3.37,59.76c1.34,23.26,2.12,46.55,1.66,69.84,7.2,18.06,186,14,249.1-1.77,13.54-3.37,21.75-7.29,21.84-11.61,1-53.26,2.5-106.64-3.54-159.55l-.18-1.31c-9,1.25-18,2.24-27,2.91-3.11.26-6.22.49-9.36.66l-2.14,0c-.09-19.19-1.75-42.07-7-48.06l2.06-.06c3.25-2.81,6.42-5.69,9.58-8.62,6.51-6,12.9-12.14,19.55-18,6.33-5.61,12.34-12.44,20.5-15.45,6.53-2.41,9.44-1,15.74-.67l.12-2.73c23-14.12,50.55-31.1,73.81-44.93.18-.11.35-.2.53-.32,1.74-1.3,2.29-6.36,2.38-8.8C915.2,1101.13,912.15,1102.06,909.45,1102.9Z"/><path class="cls-12" d="M686.45,918.64a186,186,0,0,0-16.14,45.62c-8.57-8.62-18.15-17.74-27.91-25-9-6.65-17.72-13.33-26.72-19.89-8.59-6.28-17.28-12.46-26-18.56-6.56-4.59-12.6-10.34-18.5-16a6,6,0,0,1-1.74-3.17,6.16,6.16,0,0,1,1.25-5l13.07-16.32c1.77,1,4.27,2.52,7.34,4.35C613.33,877.69,665.72,907.55,686.45,918.64Z"/><path class="cls-2" d="M1029.92,1029.32l2.69-16.77s-4.73,4.08-7,4.13c-.38,1.74-3.28,16.84-3.28,16.84C1025.26,1033.43,1029.92,1029.32,1029.92,1029.32Z"/><path d="M1032.56,1030.05q1.35-8.38,2.69-16.77a2.77,2.77,0,0,0-4.58-2.67l-.68.57-.33.26c-.49.39.33-.25,0,0s-.66.5-1,.73a19.44,19.44,0,0,1-2,1.3c-.19.11-.4.2-.6.31-.46.25.26-.07,0,0a3.5,3.5,0,0,0-.46.14c-.46.22.58,0,.08,0a2.8,2.8,0,0,0-2.64,2c-1.21,5.59-2.21,11.22-3.29,16.84-.31,1.63.74,3.58,2.65,3.47,3.58-.22,6.89-2.71,9.5-5a2.76,2.76,0,0,0,0-3.87,2.79,2.79,0,0,0-3.88,0l-.68.56-.33.27c.53-.44.12-.1,0,0-.34.25-.68.5-1,.74a17.61,17.61,0,0,1-2.17,1.31c-.22.11-.44.23-.67.33.35-.15.09,0-.12,0s-.37.09-.54.15c-.54.18.5,0-.08,0l2.64,3.47c1.08-5.61,2.07-11.24,3.28-16.83l-2.64,2c3.35-.2,6.46-2.83,8.9-4.93l-4.58-2.66q-1.34,8.37-2.68,16.76a2.83,2.83,0,0,0,1.91,3.38A2.76,2.76,0,0,0,1032.56,1030.05Z"/><path d="M1030.92,1007.14q-2.3,13-4.58,26.08c-.23,1.25-.45,2.51-.67,3.77a2.83,2.83,0,0,0,1.92,3.37,2.77,2.77,0,0,0,3.37-1.91q2.3-13,4.58-26.09c.23-1.25.45-2.51.67-3.77a2.82,2.82,0,0,0-1.92-3.37,2.77,2.77,0,0,0-3.37,1.92Z"/><path class="cls-13" d="M967.12,1013.08l.31,0c-1.18.16-1,.14.59-.07l.87-.1.53-.06-.63.08a5.54,5.54,0,0,0,1.05-.15c1.76-.28,3.52-.56,5.29-.81l-12.94-10L922,971.23l-3.15,0-4,6.24,49.3,35.86A29.09,29.09,0,0,1,967.12,1013.08Z"/><path class="cls-13" d="M994.59,1026.91l-9-6.92a6.22,6.22,0,0,1-1,.82,41.86,41.86,0,0,1-5.58,3.29l12.94,9.42,9,2.54Z"/><path d="M682.16,761.64c-4.07-3.15-8.57-6.25-13.84-6.77-4.73-.47-9,1.78-12.17,5.21-8.91,9.7-10.87,23.3-4.45,34.85a45.3,45.3,0,0,0,15.17,15.54c3,1.92,5.72-2.82,2.77-4.74-10.79-7-20-19.68-15-33,1.73-4.59,5.39-11,10.57-12.27,4.69-1.17,9.59,2.33,13.06,5,2.76,2.13,6.66-1.72,3.88-3.88Z"/><path d="M664.48,779.3c-.23-.17-.35-.27-.06,0l.35.29c.2.18.39.37.58.56l.54.59.27.33c.22.26-.34-.48,0-.07a26.5,26.5,0,0,1,1.6,2.79c-.06-.1-.22-.54-.09-.2l.15.39.24.69q.22.74.39,1.47c.06.26.11.52.16.77l.06.39c.06.38,0-.2,0-.28,0,.49.11,1,.13,1.48a2.74,2.74,0,0,0,5.48,0,20.56,20.56,0,0,0-1.75-7.48,16.38,16.38,0,0,0-5.2-6.43,2.78,2.78,0,0,0-2.11-.28,2.87,2.87,0,0,0-1.64,1.26,2.8,2.8,0,0,0-.27,2.12,3.22,3.22,0,0,0,1.26,1.63Z"/><path d="M783.51,748c13.35,16.8-3.06,36.78-7.9,53.56A27.26,27.26,0,0,0,778.1,823c1.49,2.68,3.32,5.15,4.92,7.77,1,1.66,2.57,4,2,6.07-1.19,4.08-7.91,5.62-11.36,6.6-4.08,1.16-7.39,3-9.82,6.55-4.49,6.65-7.34,14.6-10.91,21.75s-7.71,18-15.87,20.82c-8,2.79-17.82-2.74-24.77-6.16-5.47-2.7-14.23-8.15-20.09-3.94-3.3,2.37-5.79,6-8.13,9.22-3.26,4.53-6.22,9.28-9.09,14.07-1.81,3,2.93,5.8,4.74,2.77,2.6-4.36,5.29-8.67,8.2-12.83,1.89-2.68,4.61-7.58,7.75-9,2.19-1,6.13.83,8.31,1.78,4,1.73,7.77,3.85,11.75,5.58,7.39,3.19,16.16,6.64,24.1,3.29s12.31-12.11,16.09-19.4c4.14-8,7.33-16.68,12.11-24.3,2.6-4.16,6.47-4.49,10.75-6,4-1.4,8.49-3.6,10.7-7.42,3-5.21-.72-10.77-3.56-15.09-4.34-6.58-7.38-13.06-5.26-21.09,3.1-11.7,9.71-22.15,12.68-33.92a29.74,29.74,0,0,0-5.92-25.93c-2.2-2.76-6,1.14-3.88,3.88Z"/><path class="cls-14" d="M763.85,802.46c1.5-4.53.3-9.14-2.65-10.34s-6.85,1.67-8.35,6.2-.3,9.14,2.64,10.34S761.93,807.17,763.85,802.46Z"/><path d="M776.77,780.3c-5.63-7-15-9.18-23.51-6.8-3.39,1-2,6.25,1.46,5.29a17.44,17.44,0,0,1,4.91-.78,15.25,15.25,0,0,1,4.87.56,15.61,15.61,0,0,1,8.4,5.61,2.75,2.75,0,0,0,3.87,0,2.81,2.81,0,0,0,0-3.88Z"/><path d="M722.93,849.57a40.1,40.1,0,0,0,18,12,28.28,28.28,0,0,0,9.25,1.55c3.52-.12,3.53-5.6,0-5.49a15.76,15.76,0,0,1-2.28-.12l-.48,0c-.46,0,.64.11-.16,0-.47-.08-.95-.15-1.42-.25-1.08-.22-2.14-.49-3.2-.81a35.17,35.17,0,0,1-15.87-10.66,2.75,2.75,0,0,0-3.87,0,2.79,2.79,0,0,0,0,3.88Z"/><path d="M804.64,771.75c-.21.81-.48,1.61-.76,2.4s-.66,1.77-1,2.65c.24-.58,0,0-.11.22l-.33.74c-.27.59-.55,1.17-.84,1.75-2.69,5.28-6.09,9.89-10.89,12.88a19.83,19.83,0,0,1-10.36,3.07c-3.52.07-3.53,5.55,0,5.48,14.33-.29,23.84-12,28.51-24.44.4-1.08.79-2.18,1.08-3.29.89-3.42-4.39-4.88-5.28-1.46Z"/><path d="M787.44,704.37c8.09.17,17.58,1.36,23,8.06s5.27,16.81,4.31,25a79.27,79.27,0,0,1-1.88,10,6.85,6.85,0,0,0-.22,3.93c2.53,9.31,3.65,18.84.9,28.28a43.84,43.84,0,0,1-10,17.92l4.58,2.67c3.11-13.63,4.61-28.53-1.74-41.47-1.55-3.16-6.28-.39-4.73,2.77,5.64,11.5,3.93,25.18,1.18,37.24-.59,2.59,2.6,4.71,4.58,2.67C820,788.52,823.27,769,818.6,752c0-.13-.81-2.76-.85-2.75.33-.11-.51,2,.12,1a6.75,6.75,0,0,0,.39-1.5A89.42,89.42,0,0,0,820.33,737c1-9.18.69-19.69-5.11-27.35-6.49-8.56-17.67-10.53-27.78-10.75-3.53-.07-3.53,5.41,0,5.49Z"/><path d="M715,762.53c-3.41,3.6-7.51,7.08-12.4,8.39a10.47,10.47,0,0,1-6.17-.07,13.36,13.36,0,0,1-6.07-4.85c-.91-1.17-2.92-1-3.88,0a2.82,2.82,0,0,0,0,3.88c4.13,5.29,10.23,8,16.88,6.5,6.07-1.35,11.34-5.55,15.51-10,2.42-2.56-1.45-6.45-3.87-3.87Z"/><path d="M611.63,721.84c-7.91,16.71-11.52,35.39-7.3,53.63a59.84,59.84,0,0,0,5.5,14.88c1,1.82,2.85,5.91,5.43,5.76a2.78,2.78,0,0,0,2.74-2.75c-1.2-14.33,9.16-27.17,20.94-33.82,3.07-1.74.31-6.47-2.77-4.74-13.32,7.53-25,22.38-23.65,38.56l2.74-2.74c3.92-.24,1.55,1.34,1.3.22.13.58-.32-.45-.54-.79a40.32,40.32,0,0,1-2.16-3.85,56.07,56.07,0,0,1-4.56-13.65c-3.38-16.29,0-33.08,7.07-47.95,1.5-3.17-3.22-6-4.74-2.76Z"/><path d="M682.62,656.66c-21-6.76-39.65,7-53.37,21.72-6.5,7-12.53,13.67-22.11,16.18-2.78.73-5.79.61-8.51,1.39-3.5,1-2.64,4.06-.47,6,3.7,3.28,8,6,13,6.68,5.67.75,11-1.31,15.9-4,3.09-1.71.33-6.44-2.76-4.73-3.9,2.16-8.22,4-12.77,3.3a15,15,0,0,1-5.18-1.95,23.1,23.1,0,0,1-2.54-1.72c-.3-.23-2.52-2.21-2.27-1.42-.09.7-.18,1.4-.28,2.11-1.22,2.07-1.57.89-1.09,1a4.24,4.24,0,0,0,1.31-.14c1.36-.16,2.73-.33,4.08-.57a39.85,39.85,0,0,0,9.93-3.19c7.38-3.48,12.56-9.61,18-15.44,6.25-6.67,12.84-12.4,20.86-16.85,8.65-4.8,17.32-6.15,26.83-3.09,3.37,1.08,4.81-4.22,1.46-5.29Z"/><path d="M777.42,688.64a149.79,149.79,0,0,0-41.13-24.17c-12.94-5.13-27.38-9-41.39-7-3.47.51-2,5.79,1.46,5.29,12.91-1.86,26.61,2.32,38.48,7a141.87,141.87,0,0,1,38.7,22.76c2.69,2.26,6.59-1.6,3.88-3.87Z"/><path d="M648,782.74c-12.46,3.81-18.91,16.42-21.11,28.46-.24,1.29-.44,2.59-.56,3.9l4.68-1.94a12.62,12.62,0,0,1-1.78-1.8l-.44-.54c.45.57.06.08,0-.06-.33-.47-.66-.94-1-1.44s-.57-1-.83-1.5c-.12-.23-.23-.47-.34-.71a4.8,4.8,0,0,1-.28-.63c-3-7.68-1.43-16,1.57-23.41A2.76,2.76,0,0,0,626,779.7a2.79,2.79,0,0,0-3.37,1.91c-3.31,8.25-4.88,17.82-1.56,26.33,1.28,3.29,3.22,6.88,6.06,9.1a2.78,2.78,0,0,0,4.68-1.94c0-.2.05-.4.07-.61.08-.72-.1.63,0-.12l.15-1a51.81,51.81,0,0,1,1.32-5.8c1.49-5.19,3.76-10.26,7.59-14.25a19.76,19.76,0,0,1,8.5-5.3c3.36-1,1.93-6.32-1.46-5.28Z"/><path d="M593,866.65c8.22-7.19,13.75-16.8,18.79-26.39a197.5,197.5,0,0,0,14.09-33c1-3.37-4.25-4.82-5.29-1.45a189.12,189.12,0,0,1-13.54,31.65c-4.83,9.2-10,18.37-17.93,25.27-2.66,2.33,1.23,6.2,3.88,3.88Z"/><path class="cls-14" d="M723.87,892.16s-37.58-18.06-48.3-29.63a73.56,73.56,0,0,0,.84,16.46,88.89,88.89,0,0,0,5.44,17l10.75-12.08Z"/><path d="M613.12,703.53c-6,5.87-11.27,12.94-13.7,21.1a31.68,31.68,0,0,0,3.5,25.58c1.8,3,6.55.27,4.73-2.77a26.23,26.23,0,0,1-2.75-22c2.24-7,6.89-13,12.1-18,2.53-2.46-1.35-6.34-3.88-3.88Z"/><path d="M800.14,749.59c.25-6.93-.09-14.65-3.08-21-1.29-2.75-3.41-4.83-6.6-4.9s-6.39,1.54-9.08,3.11a76.23,76.23,0,0,0-10.85,8,2.76,2.76,0,0,0,0,3.87,2.8,2.8,0,0,0,3.88,0,75.93,75.93,0,0,1,8-6,20.81,20.81,0,0,1,7.35-3.43c.52-.1-.23,0,.28,0h.7c-.5,0-.09.05.14,0,0,0,.42.14.07,0s.07,0,.13.09c.29.25-.34-.34,0-.07a2.39,2.39,0,0,1,.23.22c.3.33-.11-.21.17.21a14,14,0,0,1,.88,1.55,19.83,19.83,0,0,1,1.14,3.4,39.2,39.2,0,0,1,.82,4.27,63.87,63.87,0,0,1,.44,10.71c-.13,3.52,5.36,3.52,5.48,0Z"/><path d="M767.59,739.41c-.27-2.75-1.89-5.42-3.27-7.75-1.28-2.15-3-5.29-5.46-6.25-4.22-1.62-7.57,5.33-9.41,8-8.39,12.24-20.14,32.23-37.73,27.55a38.58,38.58,0,0,1-15.76-8.8l-2.66,4.59c15.39,3.69,30.8-5.23,39.77-17.19,2.11-2.82-2.64-5.56-4.74-2.77-7.54,10.06-21.21,17.63-33.57,14.67-2.56-.61-4.77,2.65-2.67,4.58,8.69,8,22.33,14.31,34,9.56,7.24-3,13-9.35,17.83-15.31,4.45-5.51,8.27-11.42,12.38-17.17a22.47,22.47,0,0,0,1.88-2.42c.25-.5,1.1-.84-.59-.31-1.39.44-.67-.17-.1.9,1.3,2.42,4.38,5.82,4.6,8.11.34,3.48,5.83,3.51,5.49,0Z"/><path d="M772.86,719.6a29,29,0,0,0-12.26-18.21c-6-4.14-13.35-6.25-20.53-7.26a2.83,2.83,0,0,0-3.37,1.92c-.35,1.28.44,3.16,1.91,3.37,6.5.91,13,2.65,18.55,6.26a23.63,23.63,0,0,1,10.41,15.38c.72,3.45,6,2,5.29-1.46Z"/><path d="M667.23,750.47c3.15-4.17,8.79-6.57,13.58-8.31,3.27-1.19,2-6.2-1.46-5.29a28.61,28.61,0,0,1-29.06-9.82q-1.34,2.28-2.66,4.58c9.07,2,19.07,3.61,28.29,2.06,11.94-2,24.28-7.62,33.21-15.84,2.6-2.39-1.29-6.26-3.88-3.87-8.23,7.58-19.78,12.62-30.78,14.42-8.21,1.35-17.33-.31-25.39-2.06-2.83-.61-4.34,2.48-2.66,4.58,8,10.06,22.12,14.45,34.39,11.24-.49-1.77-1-3.53-1.46-5.29-6.31,2.29-12.73,5.36-16.86,10.84-2.12,2.81,2.63,5.55,4.74,2.76Z"/><path d="M657,688.3c-15.22,5.24-26.2,17.25-34,31-1.75,3.08,3,5.84,4.73,2.77,7-12.39,16.87-23.68,30.7-28.44,3.32-1.14,1.89-6.44-1.46-5.28Z"/><path d="M584,1018.13c2.88,24-.2,47.89-1.85,71.88s-3.35,47.52-8,71.07a339,339,0,0,1-9.82,38.45c-1.09,3.37,4.21,4.82,5.28,1.46,7.22-22.46,11.79-45.68,14.65-69.08,1.46-12,2.3-23.93,3-35.94s2-24.25,2.78-36.39a220.76,220.76,0,0,0-.56-41.45c-.41-3.46-5.9-3.51-5.48,0Z"/><path d="M510.61,958.16c25.25,1.2,47.54,18.48,60.27,39.52,1.83,3,6.57.26,4.73-2.77-13.77-22.76-37.78-40.94-65-42.23-3.53-.17-3.52,5.32,0,5.48Z"/><path d="M529.14,1231.16c11.69-10.69,23.54-22.44,38.6-28.25,15.65-6,32.62-3.24,48.91-2.65,18.15.66,36.39.26,54.56.34q27.63.14,55.26.24l28,.12,13,.06c2.87,0,4.06-.71,5.42,1.76,2.21,4,2.88,9,3.53,13.48a187.79,187.79,0,0,1,1.65,20q.18,4.79.22,9.58c0,3.23.73,7.59-.22,10.7-1.23,4-6.38,4-9.79,4.68q-6.91,1.35-13.83,2.63-27.06,5-54.32,8.86-54.13,7.69-108.77,11.06c-17.66,1.12-35.35,2.13-53,2.48-9,.17-18.09.17-27.14-.13-5.75-.19-11.2-1.34-14.86-6.17-6.16-8.15-6.15-20.37-7.64-30.05-2.79-18.18-4.64-36.49-5.81-54.84-2.33-36.63-2-73.37-1.08-110,.45-18.12.86-36.27,1.92-54.38,1-17.41,2.05-35.46,6.46-52.4a66,66,0,0,1,9.85-22.11c4.55-6.41,10.18-12,15.43-17.79,11.53-12.82,23.25-25.41,35.77-37.28q9.27-8.79,19-17c2.7-2.28-1.19-6.14-3.88-3.88a488.14,488.14,0,0,0-40,38c-6.21,6.58-12.16,13.39-18.29,20.05-5.24,5.67-10.55,11.37-14.72,17.9C484,970.79,482,989,480.14,1005.94c-2,19.07-2.76,38.24-3.32,57.4-1.14,38.92-2.07,77.9-.32,116.82.85,18.92,2.34,37.81,4.76,56.59,1,7.65,2.19,15.25,3.25,22.88.75,5.41,1.52,10.92,3.43,16.06,1.82,4.9,4.61,9.37,9,12.29,5.58,3.7,12.31,3.57,18.74,3.71,19,.42,38.09-.33,57.1-1.38,38.34-2.11,76.59-5.4,114.67-10.43q28.32-3.74,56.47-8.64,13.88-2.45,27.69-5.16c3.58-.71,6.93-1.19,9.45-4.08s2.58-5.92,2.61-9.42c.14-13.54-.15-27.34-2.53-40.7-.79-4.39-1.75-9.34-4.36-13.07a7.66,7.66,0,0,0-3.6-3c-1.56-.54-3.47-.24-5.12-.24l-8.19,0L643,1195c-9.58,0-19.2.15-28.78-.3-8.57-.41-17.14-1.25-25.73-1a66.85,66.85,0,0,0-24.67,5,90.91,90.91,0,0,0-20.38,12.64c-6.33,5-12.22,10.56-18.17,16-2.61,2.39,1.28,6.26,3.88,3.88Z"/><path d="M778,1201.49c8.44-7.34,16.45-15.14,24.72-22.66,6.76-6.15,13.53-13.91,21.88-17.9,4.21-2,8.15-2.23,12.69-1.75a102.51,102.51,0,0,0,12.64.47c4.27-.07,8.56-.24,12.82-.64,3.26-.31,6.5-1.11,9.78-1.28.93,0,4.25-.12,4.55.52s-1.07,2.72-1.43,3.29a22.64,22.64,0,0,1-10.51,8.42c-3.24,1.29-1.83,6.59,1.46,5.29,6.38-2.54,15.92-9.06,15.95-17,0-8.64-12.93-5.56-17.92-5-10.26,1.23-20.26.59-30.5.07-10.91-.54-19.47,7-26.93,14-10.92,10.16-21.82,20.44-33.07,30.22-2.67,2.32,1.22,6.18,3.87,3.88Z"/><path d="M830.91,1176.26c13.52-.75,27.14.89,40.63-.12,5.54-.42,9.17-2.8,13.43-6.16,6.74-5.29,12.3-11.68,18.41-17.65,2.53-2.47-1.35-6.34-3.88-3.87-5.55,5.42-10.59,11.39-16.66,16.27a36.93,36.93,0,0,1-6.6,4.79c-2.4,1.17-5.11,1.21-7.72,1.26-12.54.25-25.08-.7-37.61,0-3.51.19-3.53,5.68,0,5.48Z"/><path d="M783.14,1250.36c24-1.39,48.58-3.9,71.74-10.58,16.17-4.65,33.69-16.84,39.13-33.4,1.11-3.36-4.19-4.8-5.28-1.46-5.38,16.37-22.93,25.67-38.25,30.41-10.37,3.21-21.26,4.68-32,6.15-11.73,1.61-23.52,2.72-35.34,3.4-3.51.21-3.53,5.69,0,5.48Z"/><path d="M868,1216.53c5.64-3,11.51-5.73,16.81-9.34a64.57,64.57,0,0,0,13.39-12.71c7.06-8.6,8.85-19.9,11.15-30.49.74-3.44-4.54-4.91-5.29-1.45-2.13,9.81-3.6,20.75-10.25,28.68a58.81,58.81,0,0,1-12.73,11.87c-5,3.3-10.54,5.86-15.84,8.71-3.11,1.67-.35,6.41,2.76,4.73Z"/><path d="M867.32,1202.76c6.85-2.56,13.75-4.91,19.33-9.81a98.68,98.68,0,0,0,15.07-17.43c8.75-12.37,16.21-25,20.19-39.69.92-3.41-4.36-4.87-5.28-1.46C913,1148,906.2,1159.46,898.24,1171a102.94,102.94,0,0,1-13.8,16.59c-5.37,5-11.79,7.39-18.58,9.92-3.28,1.22-1.86,6.52,1.46,5.29Z"/><path d="M867.22,1229.42c9-3.9,16.9-11.2,23.3-18.48s13-16.54,13.66-26.68c.24-3.52-5.25-3.51-5.48,0-.59,8.92-7.1,17.33-12.86,23.7-6,6.62-13.1,13.14-21.38,16.72a2.76,2.76,0,0,0-1,3.75,2.81,2.81,0,0,0,3.75,1Z"/><path d="M544.49,1288.7c2.46,43.14,5.85,86.36,5,129.6-.07,3.53,5.41,3.53,5.48,0,.82-43.24-2.57-86.46-5-129.6-.2-3.51-5.69-3.53-5.49,0Z"/><path d="M568.31,875.29a8.85,8.85,0,0,0,.61,11.13,113.12,113.12,0,0,0,13,11.92c9.22,7.58,19.44,14,29.09,21,10.07,7.3,20,14.78,30,22.24s18.7,15.88,27.34,24.57v-3.88c-2.51,2.61,1.36,6.49,3.81,3.94l.12-.12c2.45-2.54-1.42-6.43-3.87-3.88,1.46,1,3,1.84,4.52,2.73a190.53,190.53,0,0,1,15.87-45,2.79,2.79,0,0,0-1-3.75c-29.27-15.65-58-32.31-86.75-48.94-5.32-3.08-10.66-6.16-15.93-9.34a2.75,2.75,0,0,0-3.32.43l-13.08,16.31c-2.18,2.73,1.67,6.64,3.88,3.88l13.08-16.31-3.32.43c27,16.24,54.52,31.58,82,46.92,6.86,3.83,13.74,7.65,20.67,11.35l-1-3.75a196.64,196.64,0,0,0-16.42,46.29c-.55,2.56,2.59,4.73,4.58,2.66-1.23-1.35-2.52-2.64-3.81-3.94l-.12.13,3.87,3.87a2.8,2.8,0,0,0,.06-3.94,280.68,280.68,0,0,0-24-22c-8.75-7-17.87-13.52-26.87-20.16Q607.41,909.89,593.22,900a130.1,130.1,0,0,1-13-10.34C577.35,887,570,882.49,573,878.06,575.06,875.16,570.31,872.41,568.31,875.29Z"/><path d="M684.74,920.35A151.69,151.69,0,0,1,694,936c1.37,2.59,2.73,5.19,4,7.81.53,1.08,1.05,2.16,1.54,3.25l.27.62c-.27-.65,0,0,0,.07.12.33.25.65.35,1,1,3.36,6.32,1.93,5.29-1.46a40.81,40.81,0,0,0-2.47-5.68c-1.32-2.71-2.72-5.39-4.13-8.05a153,153,0,0,0-9.45-15.95,2.83,2.83,0,0,0-3.76-1,2.76,2.76,0,0,0-1,3.75Z"/><path d="M703,919.8c-.31-2.29-.54-4.58-.75-6.88-.1-1.07-.2-2.13-.29-3.2a17.12,17.12,0,0,1-.36-3.38L700.38,908l.27-.16-2.11.28c-.46-.32-.51-.29-.15.08l.48.6,1.19,1.48a30.72,30.72,0,0,1,2.26,3,35.82,35.82,0,0,1,3,6.91,136.87,136.87,0,0,1,4.25,15.42l5-2.11c-2-2.58-4.11-5-6.25-7.49s-3.91-5-6-7.35-4.91.29-4.58,2.67c1.19,8.66,2.48,17.31,3,26,.2,3.51,5.68,3.53,5.48,0-.53-9.22-1.91-18.36-3.17-27.5l-4.59,2.66c1.9,2.21,3.55,4.6,5.47,6.79s4.05,4.54,5.9,7,5.76,1.12,5-2.11c-2.11-9-4.05-19.18-9.94-26.52-1.22-1.51-2.62-4.09-4.56-4.71a3.16,3.16,0,0,0-4.09,2.88c-.18,2.45.37,5.13.6,7.58q.38,4,.91,7.94c.2,1.48,2.08,2.25,3.37,1.91A2.82,2.82,0,0,0,703,919.8Z"/><path d="M685.17,895.65c2.1,1.75,4.16,3.56,6.17,5.4a75.58,75.58,0,0,1,5.82,5.78,2.76,2.76,0,0,0,3.88,0,2.81,2.81,0,0,0,0-3.88,75.44,75.44,0,0,0-5.82-5.77c-2-1.85-4.07-3.66-6.17-5.41a2.8,2.8,0,0,0-3.88,0,2.77,2.77,0,0,0,0,3.88Z"/><path d="M789.74,1247c2.52,24,5.23,47.94,6.27,72,1,21.85.66,43.72.9,65.59.12,10.64.31,21.3,0,31.94-.11,3.53,5.37,3.53,5.49,0,.6-19.14,0-38.33-.09-57.47,0-23.86-.82-47.65-2.94-71.41-1.21-13.58-2.69-27.13-4.12-40.68-.37-3.48-5.85-3.51-5.48,0Z"/><path d="M701.1,948.69c10.38,20.54,21.53,40.59,30.9,61.64q10.61,23.8,19,48.55c6.72,19.88,11.87,40.13,16.88,60.49,5.9,23.91,11.55,47.89,15.12,72.28.51,3.48,5.8,2,5.29-1.46-3.19-21.77-8-43.23-13.23-64.59-5-20.63-10-41.27-16.56-61.5a601.84,601.84,0,0,0-37.63-89.6c-4.92-9.57-10.16-19-15-28.58-1.59-3.15-6.33-.38-4.74,2.77Z"/><path d="M690.24,899.68c14.31,5.94,28.62,11.33,42.37,18.51,3.3,1.72,6.76,3.4,9.62,5.82a47.34,47.34,0,0,1,7.86,9.36,170.59,170.59,0,0,1,11.76,20.73c15.41,30.72,28.78,62.23,41.41,94.18,6.61,16.72,13.11,33.48,20.12,50,1.37,3.23,6.1.44,4.74-2.77-13-30.63-24.55-61.84-37.5-92.48-7.13-16.88-14.86-33.34-23-49.73-6.92-13.86-14.26-29.94-28.33-37.82C724,907,707.79,901.07,691.7,894.39c-3.25-1.35-4.67,4-1.46,5.29Z"/><path d="M818,1125c3.49-10,5.89-20.9,14.48-27.88,6.73-5.47,15.26-8.7,22.9-12.66,18.24-9.46,36.51-19,55.31-27.26,3.22-1.42.44-6.15-2.76-4.74-19.67,8.68-38.7,18.73-57.8,28.55-7.92,4.08-16.5,7.48-23.12,13.62-8.18,7.6-10.74,18.74-14.3,28.91-1.16,3.34,4.13,4.77,5.29,1.46Z"/><path d="M909.05,1051.92c-6.21,2.92-8.43,8.91-8.55,15.43a90.63,90.63,0,0,0,2.52,22.5c1.05,4.37,2.38,8.66,3.85,12.91,1.09,3.16,2.22,7.57,5.63,9,7.13,2.94,8.41-7.66,8.52-12.15.08-3.53-5.4-3.52-5.48,0a21,21,0,0,1-.77,5.8c-.07.24-.14.81-.34,1-.55.51-.31-.05-.6-.81-.53-1.43-1.17-2.81-1.67-4.27a115.82,115.82,0,0,1-5.07-18.83,85,85,0,0,1-1.11-15.12c.09-4.71,1.35-8.59,5.84-10.7,3.19-1.5.41-6.23-2.77-4.73Z"/><path d="M747.9,969.62c11,24.46,21.07,49.36,29,75,8.11,26.24,14.17,53.21,19.58,80.12q4.53,22.49,8.08,45.15c.55,3.47,5.83,2,5.29-1.46-8.53-54.14-20-108.6-39.72-159.86-5.41-14.08-11.32-28-17.49-41.71-1.45-3.22-6.17-.43-4.74,2.77Z"/><path d="M816.92,1245.37a878.52,878.52,0,0,1,3.53,159.54c-.24,3.53,5.24,3.51,5.49,0a878.52,878.52,0,0,0-3.54-159.54c-.39-3.47-5.88-3.51-5.48,0Z"/><path d="M921.56,1053.16c9.42-7.7,18.24-16,25.65-25.7,3.76-4.91,7.45-8.48,13.42-10.46s12-2.78,18.17-3.54c1.66-.21,5.85-1.34,6.15,1,.18,1.42-1.58,3.45-2.52,4.35-3.44,3.29-9.14,4.46-13.32,6.59-10.22,5.21-13.88,15.47-19.26,24.87-3.56,6.21-6.3,13-11.05,18.39a83.34,83.34,0,0,1-16,13.65c-2.89,2-.15,6.74,2.77,4.74a93.53,93.53,0,0,0,15.93-13.24c5-5.36,7.91-11.55,11.39-17.88,3.06-5.57,5.84-11.41,9.23-16.79,3.85-6.09,9.09-8.86,15.53-11.62,4.65-2,9.05-4,11.47-8.68,1.75-3.4,1.94-7.86-1.74-10.05-2.62-1.56-5.74-1.18-8.61-.82-3.32.41-6.64.84-9.93,1.41-6.41,1.11-13.44,2.69-18.66,6.78-5.43,4.26-8.91,10.55-13.59,15.56a190.62,190.62,0,0,1-18.94,17.55c-2.73,2.24,1.17,6.1,3.88,3.88Z"/><path d="M950.89,994.93c2.5-1.54,5.12-2.88,7.67-4.35s4.68-3,7-4.54a41.2,41.2,0,0,1,7-3.86c1.46-.59,4-1.67,5.53-.95,1.39.62,2,2.87,2.47,4.12,1,2.73,2,5.5,2.83,8.3s1.57,5.59,2.21,8.42c.33,1.43.63,2.87.92,4.31.1.5.8,2.77.36,3.3-2.21,2.72,1.64,6.62,3.87,3.88s1.67-5.52,1-8.64c-.7-3.57-1.53-7.13-2.52-10.64s-2.13-7-3.43-10.39c-.94-2.48-1.92-5.11-4.1-6.78-4.64-3.57-11.47-.23-15.79,2.26-2.9,1.67-5.61,3.64-8.44,5.43-3,1.93-6.31,3.5-9.38,5.39s-.25,6.6,2.77,4.74Z"/><path d="M908.74,1060.41c10.13-5.92,14.08-16.36,19.61-26.11a150.84,150.84,0,0,0,8.78-17.29c2.38-5.84,4.2-12.35,8-17.46,2.12-2.83-2.64-5.57-4.73-2.77-3.36,4.5-5.22,10.2-7.24,15.39a132.7,132.7,0,0,1-8.47,17.42c-5.26,9.28-9.08,20.44-18.74,26.08-3,1.78-.28,6.52,2.77,4.74Z"/><path d="M968,990c.07,6.77,3.64,12.65,5.77,18.88a2.81,2.81,0,0,0,3.37,1.92,2.78,2.78,0,0,0,1.92-3.37c-1-3-2.37-5.86-3.51-8.8a25.5,25.5,0,0,1-2.07-8.63,2.74,2.74,0,0,0-5.48,0Z"/><path d="M980.52,1027.51c-.56,3.29-.8,6.91.88,9.94,1.84,3.33,6.56,5.35,10,3.16a11.33,11.33,0,0,0,3.73-4.57,2.75,2.75,0,0,0-4.74-2.77,17.52,17.52,0,0,1-1,1.69l-.24.35c-.34.47.34-.38.05-.06s-.39.43-.6.63c-.42.4.45-.28.1-.07-.11.06-.21.14-.33.2a1.29,1.29,0,0,0-.16.09c-.28.16.61-.21.3-.14l-.43.12c-.42.11.65,0,.2,0-.12,0-.71,0-.2,0s-.05,0-.16,0a5.58,5.58,0,0,1-.58-.18l-.19-.08s.54.27.34.14-.28-.13-.41-.21l-.33-.2-.15-.11c-.25-.16.45.41.26.19s-.38-.36-.56-.55.36.53.13.17c-.08-.13-.18-.26-.26-.4a3.24,3.24,0,0,1-.17-.32,2,2,0,0,1-.1-.22s.23.61.15.37-.19-.55-.27-.83-.11-.5-.16-.76c-.12-.6.05.6,0,.14,0-.15,0-.31,0-.47a14.59,14.59,0,0,1,0-2.09c0-.36.06-.72.1-1.08,0-.09,0-.37,0,.08s0,0,0-.07l.09-.57a3,3,0,0,0-.27-2.12,2.83,2.83,0,0,0-1.64-1.26c-1.33-.3-3.12.41-3.38,1.92Z"/><path d="M998.56,1029.18c1.92-4.2,3.56-8.49,3.54-13.17q0-7.26-.46-14.53c-.23-4-.44-8.45-3-11.72s-8-3.75-11.94-4.47c-3.45-.61-4.93,4.67-1.46,5.29q2.79.51,5.57,1.12c1.45.31,3,.53,3.8,1.84,1.81,2.79,1.52,7.07,1.68,10.24.2,3.85.24,7.7.32,11.55s-1.16,7.52-2.78,11.09c-1.46,3.18,3.27,6,4.73,2.76Z"/><path d="M991.32,1034.44c-1.35,3.77-4.66,6.48-7.51,9.09-3.21,2.94-6.18,6.2-9.84,8.58-1.36.89-3.35,2.43-5.07,2.1-.06,0-.32-.17-.13,0,0,0-.24-.33-.11-.09s0-.38,0,0-.15-.84-.07-.18a6.15,6.15,0,0,1,0-1,6.94,6.94,0,0,1,.32-1.57c.09-.32.2-.65.31-1l.15-.39c.17-.46-.26.54.08-.21a12.48,12.48,0,0,1,3-4c3.82-3.64,7.5-7.41,11.18-11.2,2.46-2.53-1.41-6.41-3.87-3.87-3.87,4-7.87,7.83-11.78,11.76a16.27,16.27,0,0,0-4.85,10.74,6.35,6.35,0,0,0,2,5c2.12,1.83,5.12,1.74,7.59.75,5.05-2,9.09-6,13-9.69,4.23-4,8.93-7.73,11-13.43a2.74,2.74,0,0,0-5.29-1.46Z"/><path d="M968.7,1055.32c-2.67,4.32-4.08,15,3.59,15,3.91,0,7.13-3.54,9.44-6.32,2.62-3.16,4.9-6.64,7.3-10a29.39,29.39,0,0,0,3.37-6.21,20.3,20.3,0,0,0,1.18-7.46c0-3.53-5.44-3.53-5.49,0a15,15,0,0,1-.89,5.79,25.44,25.44,0,0,1-3,5.31c-2.38,3.24-4.53,6.76-7.24,9.75-1.07,1.17-2.41,2.85-3.93,3.45a1.42,1.42,0,0,1-1,.12.52.52,0,0,1,.36.21c-.18-.2-.22-.22-.1-.08s.1.12,0-.12c.09.28.09.26,0,0a5,5,0,0,1-.18-.79c.07.5,0-.39,0-.4a8.81,8.81,0,0,1,0-.89c0-.1.12-1.15.06-.71a9.84,9.84,0,0,1,1.33-3.89c1.87-3-2.87-5.76-4.73-2.77Z"/><path d="M969.77,998l-4.48,5.19a2.92,2.92,0,0,0-.8,1.94,2.75,2.75,0,0,0,2.74,2.74,2.74,2.74,0,0,0,1.94-.81l4.47-5.18a2.88,2.88,0,0,0,.81-1.94,2.77,2.77,0,0,0-.81-1.94,2.74,2.74,0,0,0-1.93-.8,2.69,2.69,0,0,0-1.94.8Z"/><path d="M968.8,1066.16a106.73,106.73,0,0,1-25.64,19.78c-5,2.74-10.28,5.07-15.45,7.46-5.37,2.47-11.17,3.76-16.8,5.47-3.36,1-1.93,6.32,1.46,5.29,5.56-1.69,11.24-3,16.59-5.35,5.71-2.47,11.51-5.14,17-8.14A111.54,111.54,0,0,0,972.67,1070c2.45-2.55-1.42-6.43-3.87-3.88Z"/><path d="M914.49,1106.49c-24.94,14.82-49.63,30-74.35,45.23-3,1.85-.25,6.59,2.77,4.74,24.72-15.18,49.41-30.41,74.34-45.24,3-1.8.28-6.55-2.76-4.73Z"/><path d="M873.29,1173.39l24.45-19.19,54.6-42.87,55.69-43.72,19.56-15.36c2.88-2.26,6.4-4.38,9-7,1.13-1.16,1.16-2.61,1.43-4.15q1.24-7,2.5-14,2.83-15.9,5.66-31.81c.13-.71.26-1.43.38-2.14.38-2.12-1.87-4.6-4-3.1L998,1021c-2.88,2-.14,6.76,2.77,4.74l44.51-31-4-3.09q-2.2,12.33-4.4,24.68l-3.06,17.21c-.13.72-2.11,8.33-1.56,8.74-.82-.61,1.51-1.26.32-.84a5.65,5.65,0,0,0-1.23,1l-4.76,3.74-17.49,13.72-53.85,42.28-55.76,43.78-19.88,15.61c-3.18,2.5-6.76,4.82-9.69,7.61-.14.13-.3.24-.45.36-2.78,2.17,1.13,6,3.87,3.87Z"/><path d="M1042.17,996.11l-4.17,23.32q-1.53,8.6-3.07,17.19-.56,3.18-1.13,6.36c-.16.91-.81,2.54-.62,3.46.16.76,1-.74.45-.7-.25,0-.76.6-1,.75l-4.31,3.4-16.32,12.88-51.92,41-54.25,42.81-19.23,15.16c-3.1,2.45-6.61,4.73-9.46,7.47a5.2,5.2,0,0,1-.44.35c-2.77,2.18,1.14,6,3.88,3.87l23.94-18.88,53-41.81,53.77-42.42,18.22-14.38c2.56-2,5.85-3.94,8.06-6.36,1.16-1.27,1.16-3.29,1.45-4.92l2.58-14.41q2.73-15.32,5.47-30.65c.12-.66.23-1.33.35-2,.62-3.46-4.66-4.94-5.28-1.46Z"/><path d="M984.15,1021.79l6.61,5,.58.43.12.09.74.6c.33.27.65.56,1,.85.61.55,1.19,1.12,1.75,1.73a24.86,24.86,0,0,1,4.69,7.47l2.65-3.47a25.18,25.18,0,0,1-10.27-3.27,48.48,48.48,0,0,1-4.89-3.4l-6.61-4.93a2.77,2.77,0,0,0-3.75,1,2.81,2.81,0,0,0,1,3.75l7,5.2a42.66,42.66,0,0,0,5.59,3.71,32.19,32.19,0,0,0,12,3.43,2.75,2.75,0,0,0,2.64-3.47,32.5,32.5,0,0,0-11-14.2l-6.94-5.19a2.76,2.76,0,0,0-3.75,1,2.8,2.8,0,0,0,1,3.75Z"/><path d="M963.26,1010.65c1.62,0,1.56.63.55-.23-.67-.56-1.42-1.06-2.13-1.59l-6.6-4.91-10.79-8-21-15.65-4.73-3.53c-.18-.14-.82-.46-.9-.68.34.89,1.29-.54,1.57-.9.14-.18,1.2-1.14.86-1.1-.16,0,.21.22.42.32a17.8,17.8,0,0,1,3,2.26l4.7,3.5,20.3,15.13,23.65,17.64c2.83,2.11,5.57-2.65,2.77-4.74L930.24,974.8c-2.45-1.82-5.41-4.75-8.23-5.93-4.43-1.85-9.16,3.91-9.19,8,0,2.29,1.43,3.42,3.06,4.63l25,18.61,9.65,7.18,8.08,6c1.25.92,3,2.81,4.69,2.81,3.53,0,3.54-5.48,0-5.48Z"/><path d="M917.76,973.69l-5-3.86-3.4-2.66c-.51-.4-1-.86-1.54-1.21-.33-.21-.18-2.06.55,1-.09-.37.07.83.05.41s.24-.05-.07.45a1.58,1.58,0,0,0,.09-.31c0-.34-.11.29-.15.33a1.33,1.33,0,0,0,.16-.34c.11-.2.24-.38.36-.57s-.16.22-.18.23a3.73,3.73,0,0,0,.26-.3l.24-.23c.31-.33-.08.1-.21.14a1.17,1.17,0,0,0,.25-.16c.42-.3-.48.16-.26.09s.39-.07-.12,0c-.3,0-.35,0-.17,0-.57-.11-.72-.12-.45-.05L907,966l8.64,6.75,1.25,1a3,3,0,0,0,1.94.81,2.77,2.77,0,0,0,1.94-.81c.9-1,1.21-2.93,0-3.87-3.27-2.56-6.54-5.13-9.82-7.68a3.68,3.68,0,0,0-3.31-.79,5.47,5.47,0,0,0-2.67,1.7c-1.54,1.71-3,4.75-1,6.73a15.86,15.86,0,0,0,1.37,1.08l3.12,2.43q2.72,2.15,5.45,4.27a3,3,0,0,0,1.94.8,2.76,2.76,0,0,0,1.94-.8c.9-1,1.21-2.93,0-3.88Z"/><path d="M951.57,982.9c-5.67-4.23-11.25-8.61-17-12.7a9.45,9.45,0,0,0-12.42,1.47,2.81,2.81,0,0,0,0,3.87,2.76,2.76,0,0,0,3.88,0,4.06,4.06,0,0,1,5.83-.56c1,.72,2,1.47,2.95,2.2l11.07,8.26,2.93,2.2a2.76,2.76,0,0,0,3.75-1,2.8,2.8,0,0,0-1-3.75Z"/><path d="M2094.81,987.27c20-6.15,40.42-11.83,59.35-20.88,9.36-4.47,17.92-10.46,26.09-16.81,6.14-4.77,12.19-10.06,16.08-16.9l-4.31.56c3.8,4.06,7.35,8.35,10.85,12.68,1.56,1.93,3.75,4,4.87,6.22,1.7,3.36-.9,5.86-3,8.25-7.32,8.35-16.32,14.67-25.55,20.73-21.81,14.33-44.06,27.87-66.64,41l3.75,1c-3.35-7.55-6-15.37-9.23-23-1.45-3.43-3-6.84-4.76-10.12-1.43-2.63-3.19-6.83-6.28-7.85-6.63-2.2-9.64,8.92-11.16,13.28-2.7,7.75-4.72,15.71-9.56,22.49-2,2.88,2.71,5.62,4.74,2.77,3.79-5.32,6-11.43,8.05-17.59,1-3.08,2-6.2,3.16-9.22a41.69,41.69,0,0,1,2.06-4.57c1-1.88,1.4-1.39,2.43.28,6.93,11.25,10.49,24.25,15.81,36.26a2.78,2.78,0,0,0,3.75,1c19.68-11.4,39.27-23,58.3-35.47,8.28-5.43,16.73-10.68,24.42-16.93a86.31,86.31,0,0,0,10.22-9.74c2.91-3.27,5.94-6.53,5.52-11.21-.41-4.49-4.34-8.09-7-11.42-3.5-4.33-7.05-8.62-10.85-12.68a2.77,2.77,0,0,0-4.31.55c-3.69,6.5-9.61,11.49-15.46,16a140.84,140.84,0,0,1-25.61,16.18c-18.27,8.58-37.93,14-57.17,19.91-3.36,1-1.92,6.33,1.46,5.29Z"/><path d="M2082.76,1016.22a165.23,165.23,0,0,0,3.4-20.63c.46-3.69.89-7.38,1.37-11.06.36-2.69,1.24-5.91-1.78-7.39-2.68-1.32-5,1.06-6.82,2.68a94.51,94.51,0,0,0-7.88,7.88c-4.46,4.93-8.51,10.2-12.7,15.35l4.58,2.67a162.8,162.8,0,0,1,13.8-37.9c2.94-5.68,6.43-11,9.7-16.5,1.6-2.7,3.09-5.19,5.78-6.94a44.29,44.29,0,0,1,9.12-4.11c3.29-1.2,1.86-6.5-1.46-5.28-5.9,2.15-12,4.43-15.77,9.72a177.66,177.66,0,0,0-26.45,59.55c-.58,2.45,2.74,4.93,4.58,2.67,3.25-4,6.41-8.07,9.75-12,1.94-2.27,3.93-4.5,6-6.64q1.56-1.6,3.18-3.12c.38-.36,3.29-2.47,3.26-2.85q-2.27-2.45-2.09,0c-.09.61-.17,1.22-.25,1.83-.2,1.5-.39,3-.58,4.51-.38,3.07-.74,6.15-1.13,9.22a137.38,137.38,0,0,1-2.92,16.87c-.87,3.43,4.42,4.89,5.29,1.46Z"/><path d="M2088,980.89a76.29,76.29,0,0,1,3.25-20.57c2.07-6.46,5.54-12.76,11.66-16.12,3.1-1.69.34-6.43-2.76-4.73-14.11,7.72-17.12,26.87-17.64,41.42-.12,3.53,5.36,3.53,5.49,0Z"/><path d="M1989.76,1441.42c-.42-27.23.27-54.46.52-81.69,0-3.53-5.45-3.53-5.48,0-.26,27.23-.94,54.46-.52,81.69,0,3.52,5.53,3.54,5.48,0Z"/><path d="M1991.22,1253.53c0-17.88-.84-35.69-1.66-53.55-.74-16.21-.41-32.79,4.7-48.35,5.06-15.4,15.23-28.37,25-41.08,10.25-13.4,19.5-27.5,29-41.45,11.26-16.57,22.45-33.2,33.07-50.2,1.87-3-2.87-5.75-4.74-2.76-9.46,15.16-19.39,30-29.42,44.82-9.89,14.58-19.43,29.48-30.1,43.51-9.74,12.82-20.13,25.54-26.19,40.63s-7.32,31.58-7,47.67c.41,20.27,1.88,40.47,1.9,60.76,0,3.53,5.48,3.54,5.48,0Z"/><path d="M2100.14,1294.93a107.26,107.26,0,0,0,10.37,18.08,58.4,58.4,0,0,0,15.64,14.58c3,1.9,5.74-2.84,2.76-4.73a51.82,51.82,0,0,1-14.21-13.36,109.68,109.68,0,0,1-9.82-17.34,2.77,2.77,0,0,0-3.76-1,2.8,2.8,0,0,0-1,3.75Z"/><path d="M2013.87,1025.94c0,6.38,0,12.92-1.75,19.11-1.83,6.6-5.67,12.91-9,18.82-6.92,12.16-15,23.56-22.62,35.3s-13.77,24.63-19.8,37.38c-5.82,12.3-6.81,25.06-6.35,38.5.56,16.58.58,33.11.4,49.7,0,3.53,5.45,3.53,5.49,0,.15-15,.4-29.93-.22-44.89-.57-13.66-.82-27.31,5.14-40s12.11-25.54,19.74-37.42,15.92-23.49,23-35.83c3.53-6.18,7.42-12.74,9.44-19.61s2.11-14.06,2.09-21.09c0-3.53-5.49-3.53-5.48,0Z"/><path d="M1950.87,1357.43c-.1,25.17.49,50.34.5,75.5,0,3.53,5.48,3.54,5.48,0,0-25.16-.59-50.33-.49-75.5,0-3.52-5.47-3.53-5.49,0Z"/><path d="M2252.21,1167c-9.37,34.76-18.25,69.65-27.18,104.53q-6.53,25.47-13.16,50.91c-4.39,16.72-8.24,33.67-13.47,50.14-2.81,8.84-.23,18.12.86,27a243.53,243.53,0,0,0,5.32,28.87c.84,3.42,6.13,2,5.28-1.46a234.15,234.15,0,0,1-5-26.11c-1-7.77-3.6-16.68-1.91-24.45.84-3.87,2.43-7.63,3.49-11.46,1.18-4.29,2.22-8.61,3.28-12.93,2-8.12,4.23-16.18,6.36-24.27,8.93-33.92,17.5-67.94,26.26-101.91q7.41-28.76,15.11-57.44c.92-3.41-4.37-4.87-5.29-1.46Z"/><path d="M2191.52,1391.61a176.16,176.16,0,0,1-23.44,5.64c-4,.67-8,1.21-12,1.57a13.73,13.73,0,0,1-1.81.1,15.14,15.14,0,0,0-1.54-.29.7.7,0,0,1,.14.74,2.51,2.51,0,0,1,.74-.55,18.31,18.31,0,0,1,1.94-1c12.93-5.95,26.58-10.76,38-19.45,2.78-2.1,0-6.87-2.77-4.73-10.58,8-23.08,12.76-35.11,18.12-2.47,1.11-5.59,2.07-7.24,4.36a4.88,4.88,0,0,0,1.32,7.06c2.38,1.51,5.24,1.18,7.9.91q5.57-.57,11.09-1.47a176.87,176.87,0,0,0,24.24-5.77c3.36-1.05,1.92-6.35-1.46-5.29Z"/><path d="M2223.6,1063.9c-17,6.33-32.79,16.45-44.9,30.06-11,12.42-18.13,27.71-24.46,42.91-6.67,16-12.18,32.4-17.24,49-5.34,17.45-11.39,34.63-18,51.64-3.69,9.56-7.6,19-10.92,28.72-2.63,7.72-5,16.78-13.77,19.21a65.17,65.17,0,0,1-11.64,1.66c-4,.36-7.95,1-11.94,1.3-9.29.82-18.64,1.1-28,1.34-20,.51-40,1.06-60,1.08-11.29,0-22.57.18-33.85.32-5.41.07-10.82.14-16.23.18-2.47,0-4.94,0-7.42,0-1.92,0-4.66-.56-6.36.55-2.22,1.45-3.44,5.6-4.35,7.92a56,56,0,0,0-3.34,14.68,74.32,74.32,0,0,0,2.9,29.79c1.1,3.45,2.3,4.67,5.77,5.7,3.71,1.1,7.52,2,11.27,2.92a299.69,299.69,0,0,0,32.53,6.15c21.19,3,42.37,6.21,63.62,8.84s42.42,4.41,63.69,6.15a292.07,292.07,0,0,0,32,1.27c9.05-.26,18.16-1.16,26.56-4.77,18.31-7.85,28.74-26,38.16-42.58,10.61-18.67,20.35-38,29.7-57.28,9.22-19.08,17.69-38.53,25.24-58.34,7.9-20.75,14.88-41.87,21-63.2,2.9-10,5.83-20.11,8.49-30.23s4.81-20.61,4.71-31.15c-.16-18.9-7.51-37.88-15.49-54.76-8.54-18.06-19.48-34.7-30.8-51.09-5.77-8.36-11.52-16.72-17-25.29-1.89-3-6.63-.22-4.73,2.77,20.55,32.34,45.22,62.36,57,99.45,3.09,9.75,5.65,19.91,5.55,30.2-.09,10.08-2.26,20-4.86,29.67-5.45,20.44-11.38,40.79-18.07,60.87-13.28,39.89-30.25,77.93-49.39,115.32-9.18,17.94-18.18,36.73-30.37,52.88-5.85,7.74-13.13,14.49-22.25,18.14s-18.95,4-28.55,4c-20.17,0-40.53-2.29-60.61-4.19-20.93-2-41.79-4.72-62.61-7.69s-41.75-5.17-62.08-10.41c-3.51-.9-7-1.76-10.53-2.71-2-.53-2.4-.39-2.68-2.08-.46-2.79-1.52-5.52-2-8.33-1.64-9.44-1.61-19.55,1-28.82a44.39,44.39,0,0,1,2.56-6.82c.24-.51.46-1,.71-1.53.12-.22.23-.44.34-.67.49-.85.46-.79-.08.18,5.37.22,10.81,0,16.18-.1,10.84-.12,21.67-.29,32.5-.39,20.37-.18,40.7-.41,61.07-.89,8.88-.2,17.77-.37,26.64-.79,7.88-.37,15.65-1.3,23.5-2,7-.65,15.13-.74,20.95-5.19,6.3-4.81,8.61-13.81,11.05-20.94,5.94-17.43,13.37-34.33,19.49-51.71,5.59-15.91,10.15-32.15,15.59-48.12,5.55-16.24,11.67-32.44,19.62-47.68,8.06-15.47,19.1-28.39,33.68-38.1a111.69,111.69,0,0,1,22.88-11.69c3.28-1.21,1.86-6.52-1.46-5.28Z"/><path d="M1919.63,1294.79c-2-1.47-2.43-4.43-2.93-6.67a71.13,71.13,0,0,0-1.92-7.33,38.82,38.82,0,0,0-9-14.94c-4.45-4.63-9.61-8.52-14.23-13a132.8,132.8,0,0,1-12.37-14.22c-3.16-4.06-5.94-8.69-9.82-12.11-3.42-3-9-6.45-13.73-5.46s-6.64,5.63-4.47,9.8c1.29,2.47,2.84,4.71,4,7.25,1.45,3,2.82,6.09,4,9.24,5,13.32,10,27,18.62,38.45,2.1,2.78,6.86,0,4.73-2.77-6.91-9.15-11.45-19.72-15.53-30.36-2-5.1-3.73-10.26-6.07-15.2a65.24,65.24,0,0,0-3.18-6.44c-.52-.83-1.7-2-1.88-2.94-.49-2.56,2.89-1.46,4.2-.95,4.42,1.73,7.46,5.06,10.22,8.79,3.09,4.17,6.24,8.3,9.55,12.29a110.2,110.2,0,0,0,11.8,12.16c4.2,3.7,8.64,7.26,12.26,11.55,3.81,4.51,5.85,10.21,7.1,15.91,1,4.51,2,8.76,5.82,11.67,2.81,2.13,5.55-2.63,2.76-4.74Z"/><path d="M1866.15,1264.89c2.62,17.54,5.88,35.91,13.27,52.17,6.45,14.19,19.63,21.13,33.95,25.57,3.38,1,4.82-4.25,1.46-5.29-6.58-2-13-4.57-18.77-8.45-6.35-4.31-10.24-10.22-13-17.27-6.08-15.34-9.17-31.94-11.59-48.19-.52-3.48-5.8-2-5.29,1.46Z"/><path d="M1879.08,1247.28c4.09,4.09,8.08,8.3,12.11,12.44l1.74,1.79a2.74,2.74,0,0,0,3.88-3.88c-4.11-4.11-8.11-8.33-12.17-12.5-.56-.58-1.11-1.16-1.68-1.73a2.74,2.74,0,0,0-3.88,3.88Z"/><path d="M1906.76,1275.77c5.68,5.67,11.2,11.52,16.79,17.27.79.82,1.58,1.63,2.38,2.44a2.74,2.74,0,1,0,3.87-3.87l-16.86-17.34c-.77-.8-1.53-1.6-2.3-2.38-2.5-2.5-6.38,1.38-3.88,3.88Z"/><path d="M1780.73,1144.83l83.31,1.9,11.79.26-1.94-.8,50.88,50.18,81.11,80,18.64,18.38c2.51,2.48,6.39-1.4,3.87-3.88l-29.63-29.23-61.16-60.32L1886.52,1151c-2.83-2.8-5.58-6.2-8.74-8.63-1.7-1.3-4.58-.87-6.61-.91l-14.91-.34-73.94-1.68-1.59,0c-3.53-.08-3.53,5.4,0,5.48Z"/><path d="M1858.79,1221.76,1792,1154l-9.31-9.45q-1,2.34-1.94,4.68L1863,1151l11.47.25-1.94-.8,50.12,48.71,80,77.71,18.44,17.93c2.54,2.46,6.41-1.41,3.88-3.88l-29.36-28.53-60.5-58.8-50.16-48.76c-2.76-2.68-5.43-5.92-8.5-8.26-1.72-1.3-4.62-.86-6.67-.91l-14.78-.32-72.61-1.61-1.61,0a2.77,2.77,0,0,0-1.93,4.68q33.39,33.88,66.8,67.76l9.32,9.45c2.48,2.52,6.35-1.36,3.87-3.87Z"/><path d="M1918.05,1036.78c3.75-9.51,10.73-16.71,19.56-21.7,10.47-5.92,22.25-9.9,33.28-14.67,24.34-10.52,48.3-21.83,72.42-32.82,12-5.46,24.63-13.2,38.26-12.26,3.52.24,3.5-5.24,0-5.48-12.28-.85-23.62,4.9-34.42,10-12.45,5.84-25,11.47-37.46,17.27q-19.12,8.89-38.49,17.26-9.84,4.26-19.7,8.44c-5.61,2.38-11.35,4.55-16.66,7.56a49,49,0,0,0-22.08,25c-1.29,3.28,4,4.71,5.29,1.46Z"/><path d="M1788.54,841.09q-4.1-9.18-7.61-18.59c-1.88-5-3.12-10.48-6.53-14.74s-8.21-7.4-13-10.09c-5-2.85-10-5.77-15-8.71-3.37-2-10-6.74-14.14-4.53s-2.37,8.82-.14,11.72c3.31,4.3,8.73,7.59,13.13,10.67,5.07,3.54,10.11,5.85,12.44,12,4.88,12.93,8.19,26.85,11.5,40.25.84,3.43,6.13,2,5.28-1.46-2.59-10.51-5.56-20.93-8.69-31.29-1.36-4.52-2.45-9.45-4.91-13.54s-6.21-6.47-10.09-8.9a86.88,86.88,0,0,1-12.75-9.39,7.82,7.82,0,0,1-2.53-3.54c-.43-1.67-.51-1.44.76-1a39.58,39.58,0,0,1,7.37,3.74c4.46,2.63,8.87,5.3,13.4,7.82,4.36,2.42,8.82,5,12.23,8.67,4,4.34,5.21,10.81,7.27,16.21q3.38,8.82,7.25,17.46c1.43,3.22,6.16.43,4.73-2.76Z"/><path d="M1768.05,808.74c3,1.5,6.78,2,9.22,4.41,2.22,2.15,3.43,5.28,4.55,8.1,3.08,7.71,6.68,15.22,10.09,22.78a2.76,2.76,0,0,0,3.75,1,2.81,2.81,0,0,0,1-3.75c-3.51-7.81-7-15.6-10.35-23.5-1.31-3.1-2.8-6.33-5.31-8.67-2.92-2.73-6.71-3.36-10.16-5.09-3.15-1.58-5.92,3.15-2.77,4.73Z"/><path d="M1770.06,839.46c-3.32-6.25-6.4-14.55-13.18-17.86-3.17-1.55-7.42-1.48-10,1.21-2.84,3-1.37,7,.19,10.26a51.46,51.46,0,0,1,2.55,5.16,46.51,46.51,0,0,1,1.68,8.29c.92,5.75,1,11.71,2.34,17.38,2.09,9.24,8.35,16.64,15,23,9.36,8.94,18.18,18.08,25,29.15,1.86,3,6.61.24,4.74-2.77a137,137,0,0,0-23.08-27.63c-7.68-7.18-15.36-14.83-16.88-25.73-.87-6.25-1.35-12.52-2.56-18.72a27.67,27.67,0,0,0-1.87-6.52c-.9-2-2.13-3.78-2.86-5.8-1.13-3.09,1.77-3.34,3.87-2.06a14.94,14.94,0,0,1,4.15,4.34c2.43,3.45,4.12,7.32,6.1,11,1.65,3.12,6.39.36,4.73-2.76Z"/><path d="M1783.64,820a18.13,18.13,0,0,1,2.81,1.26,7.74,7.74,0,0,1,2.18,2.66c1.63,2.53,3.24,5.08,4.8,7.65a157.43,157.43,0,0,1,8.5,15.9,2.76,2.76,0,0,0,3.75,1,2.81,2.81,0,0,0,1-3.75,160.22,160.22,0,0,0-9.29-17.21c-1.67-2.71-3.31-5.48-5.14-8.09s-4.33-3.58-7.13-4.7a2.76,2.76,0,0,0-3.38,1.92,2.81,2.81,0,0,0,1.92,3.37Z"/><path d="M1796.5,833.63c7.72,7.8,12,18,15.14,28.32s4.3,21.44,9.16,31.33c1.55,3.17,6.28.39,4.73-2.77-5-10.26-6-22.07-9.5-32.86-3.37-10.26-8-20.15-15.65-27.9-2.49-2.52-6.36,1.36-3.88,3.88Z"/><path d="M1995.21,1079.11c-22.59,1.22-45.21,3.67-67.59-.93-17.38-3.56-33.7-10.24-44.78-24.7-6.75-8.8-13-18-19.59-27-6.71-9.17-12.91-18.64-19.14-28.13-12.44-19-24.92-37.9-35.54-57.94-2.79-5.24-6.08-10.16-8.63-15.54-.72-1.53-3.18-5.3-3-6.69.09-1,2.4-3.08,3.22-4,7.28-7.88,15.26-15.88,25.18-20.34l-3.32-.43c4.49,3.92,8.18,8.62,12.29,12.9,4.72,4.92,9.27,10,13.7,15.14,8.83,10.33,17.65,20.57,27,30.44,19.22,20.25,39.17,39.81,58,60.47,2.38,2.62,6.25-1.27,3.88-3.87-18.79-20.67-38.73-40.22-58-60.48-9.36-9.86-18.17-20.11-27-30.44-4.43-5.18-9-10.22-13.71-15.13-4.1-4.28-7.8-9-12.28-12.9a2.86,2.86,0,0,0-3.32-.43c-9.63,4.33-17.93,12.08-25,19.78-2,2.23-5,4.72-6,7.7-1,3.37,2.24,8.13,3.61,11,2.36,5,5.42,9.55,8,14.4,2.94,5.47,5.9,10.91,9,16.26,6.15,10.52,12.72,20.8,19.38,31s13.21,20.58,20.19,30.6,14.38,19.53,21.39,29.42c5.72,8.05,11.44,15.46,19.62,21.17a78.64,78.64,0,0,0,24.42,10.84,148.07,148.07,0,0,0,36.62,5.06c13.8.22,27.56-1.1,41.33-1.84,3.51-.19,3.53-5.68,0-5.48Z"/><path d="M679.42,902.81a27.64,27.64,0,0,1,5.43,6.51,114.46,114.46,0,0,1,6,10.47,153.17,153.17,0,0,1,9.36,21.81c1.11,3.33,6.4,1.9,5.29-1.46A161.94,161.94,0,0,0,695.61,917a112.72,112.72,0,0,0-6.28-10.87,32,32,0,0,0-6-7.23c-2.71-2.2-6.62,1.65-3.87,3.88Z"/><path d="M2127,920.55a1.83,1.83,0,0,1-.14.37c-1.76.74-4,1.52-6.47,2.3A47,47,0,0,0,2127,920.55Z"/><path d="M2097.94,932.08l-19,1.28c4.39-.51,8.79-1.38,13-2.12a251,251,0,0,0,25.8-6.35c.9-.25,1.8-.54,2.63-.84,2.48-.78,4.72-1.56,6.48-2.3a84,84,0,0,1-6.83,15.13c-4.63,7.72-15.45,13.2-15.45,13.2l-5.67-18Z"/><path class="cls-2" d="M2087.84,879.14s-3.84,20.77-18.17,23.23c-17.89,2.91-19.11-21.91-19.11-21.91a99.14,99.14,0,0,0,16.42,1.08C2077.08,880.84,2087.84,879.14,2087.84,879.14Z"/><path d="M2071.59,829.65c.51,4.9-2,9.24-5.25,9.35-3.58.13-6.66-3.68-6.86-8.57-.48-4.89,2-9.24,5.24-9.35S2071.08,824.44,2071.59,829.65Z"/><path d="M2154.46,824.12c4.2-1.33,9.59-3,13.86-1,4.45,2.06,5.82,7.75,6.58,12.12,2.91,16.68-11.45,27.45-26.08,30.87-3.43.8-2,6.09,1.46,5.29,13.19-3.09,27-11.63,29.89-25.83,1.94-9.48-.49-24.38-11-28-5.19-1.78-11.1-.36-16.15,1.24-3.35,1-1.91,6.35,1.46,5.28Z"/><path d="M2162.19,837.17a17.09,17.09,0,0,0-7.22,4.49,21,21,0,0,0-4.18,6.61,2.75,2.75,0,0,0,1.92,3.37,2.78,2.78,0,0,0,2.11-.28,3.22,3.22,0,0,0,1.26-1.64c.18-.44-.28.63-.09.22l.15-.33c.1-.23.21-.45.32-.67.24-.45.49-.89.77-1.32.13-.23.28-.44.43-.66s.72-.93.12-.19c.35-.42.69-.84,1.07-1.23a14.54,14.54,0,0,1,1.21-1.14l.32-.27c.38-.3-.53.39-.1.09l.7-.49a13.73,13.73,0,0,1,1.45-.81l.4-.19c.25-.12-.67.27-.11,0l.93-.33a2.74,2.74,0,0,0-1.46-5.28Z"/><path d="M2058.72,808.34a16.42,16.42,0,0,1,18.67,1.38,2.82,2.82,0,0,0,3.88,0,2.76,2.76,0,0,0,0-3.88c-7.2-5.79-17.25-7.12-25.32-2.23-3,1.82-.26,6.56,2.77,4.73Z"/><path d="M2047.82,880.46c.37,7.38,2.84,16.14,8.64,21.07a16.92,16.92,0,0,0,17.12,2.58c5.9-2.31,10.13-7.34,12.91-12.9a44,44,0,0,0,4-11.34,2.79,2.79,0,0,0-3.38-3.37c-5.64.88-11.33,1.56-17,2a74.43,74.43,0,0,1-12.58,0c-2.18-.19-4.46-.43-6.23-.7a2.82,2.82,0,0,0-3.37,1.91,2.76,2.76,0,0,0,1.92,3.37,83.84,83.84,0,0,0,20.26.94q9.27-.81,18.48-2.26l-3.37-3.37c-1.33,7.1-4.84,15.5-11.25,19.44-4.12,2.53-9.6,2.85-13.43,0-3-2.29-4.8-6.24-5.87-10a40,40,0,0,1-1.17-5.51c-.1-.66.07.63,0,0l-.06-.47c0-.26-.05-.51-.07-.76s0-.44,0-.65C2053.12,877,2047.63,876.93,2047.82,880.46Z"/><path d="M2189.78,889.46c-5.13,13.45-7.88,30.28-2.31,44a2.83,2.83,0,0,0,3.37,1.91,2.75,2.75,0,0,0,1.91-3.37c-5.24-12.94-2.5-28.45,2.32-41.1,1.26-3.3-4-4.73-5.29-1.46Z"/><path d="M2201.67,895.07c.44.6,0,.33,0-.11s-.07-1-.08-1.54a33.25,33.25,0,0,1,.19-4.35,47.28,47.28,0,0,1,3.56-13.58c3.87-9,11.65-16.06,17.55-23.76,5.62-7.31,10.77-15,12-24.32,1.32-9.7-.63-19.58-2.81-29-.79-3.44-6.08-2-5.29,1.46,2.23,9.66,4.47,20.18,2.09,30s-10.12,18.43-16.49,26.14c-3,3.59-6.09,7.11-8.75,10.93a44,44,0,0,0-5.85,13.54,49.84,49.84,0,0,0-1.72,11.64c0,1.64-.25,4.25.79,5.68,2,2.83,6.81.1,4.73-2.76Z"/><path d="M2171,861.46c6.39,3.57,8.78,10.19,11.53,16.6,3.49,8.16,7.7,15.67,15.28,20.67,3,1.95,5.71-2.8,2.77-4.73-7.46-4.92-10.82-12.94-14.23-20.84-2.89-6.69-6-12.75-12.58-16.43-3.09-1.72-5.85,3-2.77,4.73Z"/><path d="M2226,785.52c2.46,17.59-7.15,36.93-22.14,46.16-3,1.85-.25,6.59,2.76,4.73,17.3-10.65,27.48-32.23,24.67-52.35-.49-3.48-5.77-2-5.29,1.46Z"/><path d="M2201,816.34c8.95-3.78,17-9.88,22.26-18.12a2.74,2.74,0,1,0-4.73-2.77,30,30,0,0,1-3.24,4.31,42.29,42.29,0,0,1-4.61,4.47,49.78,49.78,0,0,1-12.45,7.37c-1.36.58-1.66,2.59-1,3.75a2.82,2.82,0,0,0,3.75,1Z"/><path d="M2061.44,767.89c1.17-1.49,1.77-2.42,2.86-3.63a13.6,13.6,0,0,1,1.32-1.31s.64-.34.84-.42a1.14,1.14,0,0,1,.79.05,8,8,0,0,1,1.74,1.07,27.65,27.65,0,0,1,5.4,6.86c6.44,10.23,10.2,21.91,17,31.91,5.08,7.46,11.59,14.14,19.66,18.33,7.47,3.87,16.81,6.06,25.13,4,2.12-.52,2.87-4,.66-5-13.25-5.75-26.12-17.16-29.41-31.61-.78-3.44-6.07-2-5.28,1.45,3.58,15.74,17.44,28.61,31.92,34.9.22-1.67.43-3.35.65-5-7.41,1.8-15.9-.59-22.39-4.29-9-5.16-15.61-13.58-20.47-22.61-5.22-9.72-8.93-20.31-15.71-29.14-2.51-3.28-6.23-7.31-10.84-6.29-3.57.79-6,4.57-7.76,6.84-2.15,2.75,1.71,6.65,3.88,3.88Z"/><path d="M2170.46,794.58c.53-.39.56-.21-.45-.11-1.27.13-2.53.23-3.81.29a72.09,72.09,0,0,1-12.11-.46,66.42,66.42,0,0,1-33.72-14.09,75.44,75.44,0,0,1-18.17-22.32c-1.71-3.08-6.45-.32-4.73,2.77,8.15,14.74,20.23,27,35.84,33.64a75.49,75.49,0,0,0,32,6c2-.07,6.19.29,7.93-1,2.82-2,.09-6.81-2.77-4.73Z"/><path d="M2107.32,799c19.72,11.51,46.15,13.14,65.86.39,3-1.91.21-6.66-2.77-4.74-18.1,11.72-42.21,10.18-60.32-.39-3.05-1.78-5.82,3-2.77,4.74Z"/><path d="M2118.67,823.38c3.35,4.67,7.87,8.92,13.66,10.17a17.61,17.61,0,0,0,14.19-3.16,2.82,2.82,0,0,0,1-3.75,2.76,2.76,0,0,0-3.75-1,17.55,17.55,0,0,1-2.61,1.63c-.26.13-.53.26-.81.38.26-.11-.09,0-.16.05-.46.16-.92.31-1.39.43a11.39,11.39,0,0,1-5,.12c-4.24-.91-7.78-4-10.39-7.64a2.83,2.83,0,0,0-3.75-1,2.77,2.77,0,0,0-1,3.75Z"/><path d="M2037.05,820.76c-6.75-9.29-9.9-21.79-10.87-33-1-11.48,0-23.73,3.71-34.69,2.54-7.55,7.55-14.5,16.24-14.4,3.59.05,7,2.11,10.43,2,4.39-.12,8.91-2.67,12.64-4.69,3.1-1.69.33-6.43-2.77-4.74-2.62,1.43-7.43,4.44-10.35,4-1.54-.25-3.32-1.16-5-1.48a26.11,26.11,0,0,0-6.77-.49c-8.71.67-14.81,6.7-18.19,14.4-4.71,10.71-6.07,23.53-5.73,35.13a85.47,85.47,0,0,0,5.36,27.8,56.2,56.2,0,0,0,6.54,13c2.06,2.83,6.82.09,4.74-2.77Z"/><path d="M2044.26,779.12c-13.61,9.69-15.71,28.44-12.25,43.71.78,3.44,6.06,2,5.28-1.46a52.36,52.36,0,0,1-1.09-14.93c.52-8.61,3.55-17.41,10.83-22.59,2.85-2,.11-6.78-2.77-4.73Z"/><path d="M2069.2,736c19.8-11.72,43.42-16.94,66.25-17.65,23.57-.74,49.07,3.14,68.42,17.53,11.1,8.26,23.62,22.13,21.45,37.1-.5,3.45,4.78,4.94,5.29,1.46,2-13.61-5.49-26.07-14.79-35.41a82.83,82.83,0,0,0-34-20.3c-24.54-7.79-51.73-7.56-76.72-2.13a130.18,130.18,0,0,0-38.65,14.66c-3,1.8-.28,6.54,2.77,4.74Z"/><path d="M2213.29,856.82c-3.77,24.54-4.54,49.73-.07,74.24,3.07,16.85,8.72,36.21,21.9,48.1,2.61,2.36,6.5-1.5,3.87-3.87-12.49-11.27-17.57-29.74-20.48-45.69-4.28-23.47-3.54-47.82.07-71.32.53-3.45-4.75-4.94-5.29-1.46Z"/><path d="M2240.42,799.16c3.51,22.79-.63,46.06-10.11,67-6.18,13.61-14.37,27.24-24.74,38.11a2.76,2.76,0,0,0,2.66,4.58c10.05-2.21,19.62-9.62,26.55-16.86,12.61-13.21,20-30.43,24.32-48,.84-3.42-4.45-4.89-5.28-1.45-4.06,16.63-11,33-22.92,45.56-6.32,6.62-15,13.43-24.12,15.46.89,1.52,1.77,3.05,2.66,4.58,8.12-8.51,14.87-18.74,20.5-29a138.74,138.74,0,0,0,16.18-47.92,116.94,116.94,0,0,0-.42-33.47c-.53-3.47-5.82-2-5.28,1.46Z"/><path d="M2223.74,749.34c5.67-6,13.59-15.66,22.68-15.64a17.51,17.51,0,0,1,7.59,1.91c8.71,4.35,14.53,13.1,18.83,21.52,8.88,17.37,12.94,37.21,15.74,56.35,3.46,23.6,5.08,48.32-1.44,71.56a79.61,79.61,0,0,1-11.75,25.11,52.57,52.57,0,0,1-12,12.21,38.74,38.74,0,0,1-3.91,2.45c-.47.25-2.14,1-1.28.66l2.67,4.59a81.2,81.2,0,0,0,8.68-13.94,147.62,147.62,0,0,0,13.34-39.37c.67-3.45-4.62-4.92-5.29-1.46a142.44,142.44,0,0,1-12.79,38.06,101.48,101.48,0,0,1-5.65,9.74q-.88,1.33-1.83,2.64c-.59.82-.13.19-.33.45-1.5,1.85-.18,5.71,2.66,4.58,15-6,24.92-22.22,30.31-36.65,8.41-22.54,8.15-47.5,5.37-71.07-2.61-22.14-6.62-44.83-16.06-65.2-4.67-10.09-11.27-20.67-21.22-26.3a24.27,24.27,0,0,0-11.27-3.32c-11-.25-20,10-26.91,17.25-2.42,2.56,1.45,6.45,3.88,3.87Z"/><path d="M2278.17,906.12c-.63,4-.37,8.22-.37,12.2A246.85,246.85,0,0,0,2279,944c1.81,17.44,6.21,34.29,17.91,47.83a44.67,44.67,0,0,0,8.54,7.94c.47-1.7.93-3.41,1.39-5.11-12.45,0-23.22-10.49-28.61-21.06.1.7.19,1.4.28,2.11a3.32,3.32,0,0,0-.39-2.37c-1.75-3.06-6.49-.31-4.74,2.77a2.25,2.25,0,0,1,.12.21c-.08-.7-.18-1.4-.27-2.11-.38,2.41,1.7,5,2.94,6.89a45.88,45.88,0,0,0,5.45,7,39.48,39.48,0,0,0,11.36,8.38c4.22,2,9.11,3.68,13.86,3.69,2.84,0,3.56-3.64,1.38-5.11-7-4.69-13.36-14.16-17-22.37-7.07-15.79-7.77-34.45-7.93-51.51q0-4.82.07-9.63c0-1,.06-2,.1-3,0-.37.18-2.17,0-.9.55-3.45-4.73-4.94-5.28-1.46Z"/><path d="M2156.91,745.85c21.57-4.88,45.35,4.54,56.71,23.75,1.8,3,6.54.28,4.74-2.77-12.65-21.37-38.94-31.69-62.91-26.26-3.44.77-2,6.06,1.46,5.28Z"/><path d="M2048.91,772.74c-5.73,8.67-7.1,17.61-7,27.83.08,5.71.56,11.41.91,17.11.28,4.54.84,9.37-.39,13.81-1.67,6-6.39,10-11.09,13.72-3.44,2.76-7.28,5.94-7.13,10.79.26,7.78,8.12,12.34,11.84,18.36,2.06,3.35,2.54,7.56,3.24,11.37.9,4.93,1.69,9.88,2.54,14.82,1.5,8.73,2.34,19.13,7.44,26.68,3.63,5.35,9.17,7.4,15.37,8.15,10.68,1.3,21.67-1,32.1-3.13,10.89-2.28,22.12-4.93,32.35-9.37,3.23-1.4.44-6.12-2.77-4.73-8.56,3.71-18,5.87-27.1,8-9.37,2.14-19.1,4.17-28.74,4.16-5.56,0-12.37-.49-16.07-5.24-5.11-6.55-5.73-16.87-7.09-24.74-1.42-8.16-2-17.07-4.74-24.93-1.23-3.52-3.59-6.44-6-9.18-2.32-2.59-5.28-5.2-6.45-8.57-1.46-4.23,3-6.78,5.83-9.06,4.33-3.46,8.39-7.23,10.65-12.41,3.83-8.76,1.61-19.21,1.1-28.42a119,119,0,0,1,0-16.68c.49-5.7,2.84-10.81,5.95-15.53,2-3-2.79-5.7-4.73-2.76Z"/><path d="M2099.7,929.19l4.65,27.49Z"/><path d="M2097.06,929.92q2,12,4.06,24c.2,1.16.39,2.31.59,3.47a2.76,2.76,0,0,0,3.37,1.91A2.8,2.8,0,0,0,2107,956q-2-12-4.07-24c-.2-1.16-.39-2.31-.59-3.47a2.74,2.74,0,1,0-5.28,1.46Z"/><path d="M2230.43,936.65a251.26,251.26,0,0,1,4.88,31.11c1,10.48.91,20.82.91,31.32,0,3.53,5.49,3.54,5.49,0,0-10.9,0-21.64-1-32.51a266,266,0,0,0-5-31.38c-.76-3.44-6-2-5.29,1.46Z"/><path d="M2273.57,969.14a101.09,101.09,0,0,0,2.57,22.32c1.56,7.25,3.57,14.49,4,21.93.86,14-4.36,29-15.09,38.32-2.67,2.31,1.22,6.17,3.88,3.87,10.8-9.33,16.68-24.39,16.8-38.51.13-16.27-6.89-31.59-6.71-47.93,0-3.53-5.44-3.53-5.48,0Z"/><path d="M1778,1142.1c0,1.29,0,2.58,0,3.87,0,.18,0,.37,0,.55a2.74,2.74,0,0,0,4.68,1.94,2.9,2.9,0,0,0,.8-1.94l.06-3.86c0-.19,0-.37,0-.56a2.86,2.86,0,0,0-.81-1.94,2.74,2.74,0,0,0-3.87,0,3,3,0,0,0-.81,1.94Z"/><path d="M1041.23,993.12c.27,1.3.55,2.59.82,3.89l.12.56a2.74,2.74,0,0,0,1.26,1.63,2.74,2.74,0,0,0,3.75-1l.27-.65a2.78,2.78,0,0,0,0-1.46c-.27-1.3-.54-2.6-.82-3.9l-.12-.55a2.75,2.75,0,0,0-5-.66l-.27.66a2.78,2.78,0,0,0,0,1.46Z"/></svg>