<svg id="Layer_1" data-name="Layer 1" xmlns="http://www.w3.org/2000/svg" viewBox="0 0 2742 1523"><defs><style>.cls-1{fill:#dbeaca;}.cls-1,.cls-2,.cls-3,.cls-4,.cls-5,.cls-6,.cls-7,.cls-9{fill-rule:evenodd;}.cls-2{fill:#fff;}.cls-3{fill:#f48063;}.cls-4{fill:#ce9b7c;}.cls-5{fill:#e2b27f;}.cls-6{fill:#ffe1c7;}.cls-7{fill:#ccd3e1;}.cls-8{fill:#332e3c;}.cls-9{fill:#737e96;}</style></defs><g id="_ëîé_2_1_" data-name="‘ëîé_2_1_"><path class="cls-1" d="M0,0H2742V1523H0Z"/></g><g id="_ëîé_1_1_" data-name="‘ëîé_1_1_"><path class="cls-2" d="M671.14,751.25l109.55-19.76L834.84,777s15,6.42,29.76,14.11c14.23,7.45,28,15.93,37.4,30.91,17.71,28.12,26.37,69.63,37.9,106.27,9.36,29.77,14.17,54.61,21.58,77,8.11,24.56,10.09,52,8.49,66.47-3.76,34.13-26.17,35-26.17,35L785.55,1080.5s-208.3,77.65-277.87,25.46c-33.58-25.19-16.15-93.11,5.21-162.11,14.54-47,24.27-95.78,46.91-126.83,8.8-12.08,56.16-33.74,86.19-49.19A147.43,147.43,0,0,0,671.14,751.25Z"/><path class="cls-2" d="M1892.38,757.67c7.87-9.64,91-20.26,91-20.26L2026.44,769s38.51,13.36,53.22,21.06c14.23,7.45,51.82,23.88,61.25,38.86,17.72,28.12,31.59,74.66,41.35,116,7.18,30.38,17.93,65.41,22.36,98.65,3.42,25.64,2.44,46.31-7.31,60.93-19,28.57-55.18,28.37-55.18,28.37l-153.9-46.45-243.14,47.26s-23.09-13.92-32.76-21.18c-18.13-13.59-20.48-36.41-15.82-67.18a653.22,653.22,0,0,1,20.82-91.13c14.55-47,22.51-100.19,45.15-131.25,8.8-12.07,62-35.13,89.14-46.36C1866.49,770.43,1884.5,767.32,1892.38,757.67Z"/><path class="cls-2" d="M1277.26,752l109.55-19.76L1441,777.74s15,6.41,29.76,14.11c14.22,7.45,28,15.92,37.4,30.9,17.71,28.12,26.36,69.63,37.89,106.27,9.37,29.77,14.17,54.62,21.58,77,8.11,24.56,10.09,52,8.49,66.47-3.75,34.13-27.17,33.13-27.17,33.13l-157.24-24.39s-208.3,77.65-277.88,25.47c-33.57-25.19-16.14-93.11,5.21-162.11,14.55-47,24.27-95.78,46.91-126.84,8.81-12.08,56.16-33.74,86.19-49.19A147.43,147.43,0,0,0,1277.26,752Z"/><path class="cls-3" d="M660.64,561.14c17.58-13.64,52.42-25,82.54-20,11.53,1.92,39.6,16.56,49.14,42.22,11.3,30.43,3.1,72.48,3.1,72.48L791,665.33l-145.15-2.6S628.34,586.2,660.64,561.14Z"/><path class="cls-4" d="M1400.14,558.75s16.77,12.58,24.54,37.55c8.12,26.11,7.51,65.39,19.39,101.11,12.52,37.64,35.36,66.87,34.46,105.55-.32,13.63-28.75,50.89-31,62.69-2,10.65,3,36.05-.21,44.59-6.7,18-32.66,32.84-46.14,30.91-6.4-.91-3.21-3.54-3.86-13.26-.69-10.47-7.58-23-8.59-27.53-5.47-24.39,23.31-40.17,15.36-62.49-3.59-10.08-11.59-33.86-14.35-42.35a201.88,201.88,0,0,1-7.53-32.9l-102.44-.89-6.49,34.94s-11.19,26.19-15.17,41.9c-2.19,8.63,18.16,48.68,15.79,57.94-1.84,7.17-7.78,19.94-9.08,27.83-1.42,8.58,1.71,12.1-2.92,14.51-12.41,6.44-35.26-9.68-42.15-18.94-8.49-11.4-1.45-34.87-7-53.71-3.69-12.4-26.06-44.58-29-58.93-6.84-33.38,19.89-61.75,34.55-111.77,9.2-31.38,10.74-74.92,21.33-106.81,6.28-18.9,17.61-31.36,30.48-41.18,23.18-17.7,56.79-24.22,82-17.88C1381.06,536.93,1400.14,558.75,1400.14,558.75Z"/><path class="cls-5" d="M1886.12,564.07C1913.44,531.26,1981,543,1981,543s30.33,12.32,40.61,41.61.49,75.52.49,75.52H1870s-10.64-29.06-4.08-59.36C1868.61,588.5,1878.24,573.54,1886.12,564.07Z"/><path class="cls-6" d="M668.2,610.45a61.1,61.1,0,0,1,13.27-9s12.45,17.69,27.09,29.22c11.2,8.83,23.87,13.31,33,17.3,17.82,7.78,28.31,6.4,38,6.09a150.61,150.61,0,0,1,18.06.62s13.41,1.58,9.27,22.89S789.38,700,789.38,700l-10.1,45.61a147.6,147.6,0,0,1-7.84,28.47c-4.07,10.57-10.16,19.59-15.63,25-4.9,4.83-16.47,14.39-22.28,27.2-4,8.73-2.87,27.09-7.07,26.35-3.3-.58-1.25-18-4.63-28-4.49-13.26-14.44-20.14-19.1-23.19-16-10.45-20.94-30.36-26-48-1.58-5.53-5.24-8.58-6.59-13.94a352.82,352.82,0,0,0-10.64-34s-17.95-1.39-19.81-27c-.8-11,2.23-16.68,10.34-17.6S661.66,616.65,668.2,610.45Z"/><path class="cls-6" d="M1249.23,657.13c9.63-7.7,31.66-6.85,46.88-20.74,16.34-14.9,26.08-44.48,42.21-49.6,6.23-2,12.34,4.87,17.82,5.41,17.33,1.74,17.09,30.73,26.51,48.16,4.42,8.19,18.83,10.56,23.81,12.34,11.65,4.15,8.15,22.59,2.79,32.29-5.83,10.56-14.13,12.25-14.13,12.25l-12.07,49.09s2.92,24.07-14,43.7c-7.26,8.41-13.91,18-22.59,23-6.24,3.57-7.33,14.3-9.36,21.92a212.2,212.2,0,0,0-4.91,23.82s-.53-34.41-7.33-42.51c-11.26-13.41-25.35-19.73-33.36-32.78-10.37-16.89-11.16-36.41-11.16-36.41l-15.1-47.37s-6.36-.32-13.22-9C1245.46,682.41,1238.14,666,1249.23,657.13Z"/><path class="cls-6" d="M1903,617.36c26.48-24.52,69.54-19.94,91.16-3.23,15.89,12.3,14.7,35.75,14.7,35.75s1.08,5.74,5.93,8.43c7.47,4.14,19.77,7.21,19,19-1.35,19.53-19.09,25.72-19.09,25.72l-2.26,14.23-10.18,32.41s-3.21,19.62-13.49,32.45c-11.88,14.83-26.93,31.94-26.93,31.94l-10,35.89s-2.35-31.78-14.49-41.12c-11.29-8.69-19.6-13-27.46-23.8-6.53-9-12.18-26.06-12.18-26.06l-1.29-12.08-14.16-41.28s-29.91-17.54-20.27-37.79c2.76-5.79,20.32-12.74,23.34-18C1891.32,639.16,1895.6,624.19,1903,617.36Z"/><path class="cls-7" d="M481.28,1013.12l5.93-5.53,9.79-1.77,462,.64,6.07,3,.72,8.58L913,1229.79l-7.63,3.81-354.9.88-7.11-4.5Z"/><path class="cls-7" d="M1087.31,1011.72l5.93-5.54,9.8-1.76,462,.63,6.07,3,.72,8.59-52.76,211.77-7.64,3.82-354.9.88-7.11-4.5Z"/><path class="cls-7" d="M1708.09,1014.47l5.93-5.54,9.79-1.76,462,.63,6.06,3,.72,8.59-52.76,211.77-7.63,3.81-354.9.89-7.11-4.5Z"/><path class="cls-3" d="M783.66,732.43l5.48-32.32,11.52-5.55s24.89,37.3,31.07,70.07-6.35,61-6.35,61-20.85,28.52-29.72,50.78c-4.57,11.47.31,25.3-6,31.23-8.84,8.32-23-2.45-30.94-14.9-3.18-5-2.34-20.74,2.33-33.33,7.06-19.08,20.85-38.59,26.45-63,4.5-19.61,1-32.23-1.56-44.5C784.35,744.35,783.66,732.43,783.66,732.43Z"/><path class="cls-2" d="M1725.65,396.38c0-52.74-70.78-95.49-158.09-95.49s-158.09,42.75-158.09,95.49c0,31,24.47,58.56,62.38,76,0,0-1,7.5-8.45,19.19s-21.2,27.56-21.2,27.56,20.38-.1,52.43-11.21c22.76-7.89,37.17-18.5,39.89-18.15a259.4,259.4,0,0,0,33,2.09C1654.87,491.86,1725.65,449.11,1725.65,396.38Z"/><path class="cls-8" d="M1442.2,522a2.86,2.86,0,0,1-2.16-4.73c.14-.16,13.74-15.85,21-27.22a62.1,62.1,0,0,0,7.57-16.05c-39.41-18.74-62-46.93-62-77.61,0-54.23,72.2-98.35,161-98.35s160.94,44.12,160.94,98.35-72.19,98.34-160.94,98.34a263.16,263.16,0,0,1-33.14-2.08,59.55,59.55,0,0,0-6.9,3.45,208.66,208.66,0,0,1-32,14.53C1463.16,521.86,1442.77,522.07,1442.2,522Zm125.36-218.25c-85.6,0-155.24,41.56-155.24,92.64,0,28.89,22.14,55.65,60.73,73.41a2.85,2.85,0,0,1,1.63,3c0,.33-1.21,8.25-8.86,20.33a253.56,253.56,0,0,1-17.07,22.71c8.36-.88,24.22-3.4,44.94-10.59a202.4,202.4,0,0,0,31.11-14.16c5.74-3.09,8.11-4.39,10.09-4.12a257.47,257.47,0,0,0,32.67,2.06c85.6,0,155.23-41.55,155.23-92.62S1653.16,303.74,1567.56,303.74Zm-33,188.87Z"/><path class="cls-2" d="M2323.15,397.1c0-52.74-70.78-95.49-158.09-95.49S2007,344.36,2007,397.1c0,31,24.47,58.56,62.38,76,0,0-1,7.5-8.45,19.19s-21.2,27.56-21.2,27.56,20.38-.1,52.43-11.21c22.76-7.89,37.17-18.5,39.89-18.15a259.29,259.29,0,0,0,33,2.09C2252.37,492.58,2323.15,449.83,2323.15,397.1Z"/><path class="cls-8" d="M2039.7,522.71a2.86,2.86,0,0,1-2.16-4.73c.14-.16,13.74-15.85,20.95-27.22a61.6,61.6,0,0,0,7.56-16.05c-39.4-18.74-61.94-46.93-61.94-77.61,0-54.23,72.2-98.35,161-98.35S2326,342.87,2326,397.1s-72.2,98.34-160.94,98.34a263.67,263.67,0,0,1-33.15-2.08,59.55,59.55,0,0,0-6.9,3.45,208.66,208.66,0,0,1-32,14.53C2060.65,522.58,2040.37,522.71,2039.7,522.71Zm125.36-218.25c-85.6,0-155.24,41.56-155.24,92.64,0,28.9,22.13,55.65,60.72,73.41a2.85,2.85,0,0,1,1.64,3c0,.33-1.21,8.26-8.87,20.33-4.88,7.69-12.34,17-17.06,22.71,8.35-.88,24.22-3.4,44.94-10.58a203.63,203.63,0,0,0,31.1-14.16c5.74-3.11,8.13-4.38,10.09-4.13a258.09,258.09,0,0,0,32.68,2.07c85.59,0,155.23-41.56,155.23-92.63S2250.65,304.46,2165.06,304.46Zm-33,188.87Z"/><path class="cls-2" d="M1096.32,398.74c0-52.73-70.78-95.48-158.09-95.48S780.14,346,780.14,398.74c0,31,24.47,58.57,62.38,76,0,0-1,7.5-8.45,19.19s-21.2,27.56-21.2,27.56,20.38-.1,52.43-11.21c22.76-7.89,37.17-18.5,39.89-18.15a259.29,259.29,0,0,0,33,2.09C1025.54,494.23,1096.32,451.48,1096.32,398.74Z"/><path class="cls-8" d="M812.87,524.36a2.86,2.86,0,0,1-2.16-4.73c.14-.16,13.74-15.85,20.95-27.22a61.75,61.75,0,0,0,7.56-16.05c-39.4-18.74-61.94-46.93-61.94-77.62,0-54.22,72.2-98.34,161-98.34s160.94,44.12,160.94,98.34-72.2,98.34-160.94,98.34A265.09,265.09,0,0,1,905.08,495a61.12,61.12,0,0,0-6.91,3.45A208,208,0,0,1,866.23,513c-32.12,11.14-52.5,11.36-53.35,11.37ZM938.23,306.11c-85.6,0-155.24,41.56-155.24,92.63,0,28.9,22.13,55.66,60.72,73.42a2.85,2.85,0,0,1,1.64,3c-.05.33-1.21,8.26-8.87,20.33-4.88,7.69-12.34,17-17.06,22.7,8.35-.88,24.22-3.39,44.94-10.57a203.17,203.17,0,0,0,31.1-14.16c5.74-3.1,8.11-4.38,10.09-4.13a257.63,257.63,0,0,0,32.68,2.06c85.59,0,155.23-41.55,155.23-92.63S1023.82,306.11,938.23,306.11Z"/><path class="cls-8" d="M490.73,1090.77H338.94a2.86,2.86,0,1,1,0-5.71h151.5a3,3,0,0,1,3,2.85A2.74,2.74,0,0,1,490.73,1090.77Z"/><path class="cls-8" d="M1095.38,1090.77H965.8a2.86,2.86,0,0,1,0-5.71h129.58a2.86,2.86,0,1,1,0,5.71Z"/><path class="cls-8" d="M551.74,1236.6a14,14,0,0,1-9.11-3.29c-3.51-3.24-5-9.24-5.14-9.92L479.57,1018.8c-.19-.79-1.61-7,1.35-10.83h0c2.92-3.8,9.35-4.19,10.07-4.23H956.53c.79,0,7.74.07,10.45,4.56,2.48,4.15.43,10.81,0,12.1l-48.89,203.31c-.13.61-1.52,6.68-5.94,9.9s-10.87,3-11.59,3H551.74Zm348.93-5.72c1.58,0,5.79-.18,8.11-1.88s3.46-5.29,3.74-6.56l49-203.62c.81-2.45,1.4-6.23.59-7.58-.71-1.17-3.54-1.7-5.53-1.79H491.12c-1.65.08-4.74.79-5.68,2s-.75,4.22-.34,5.9L543,1222c.35,1.49,1.6,5.41,3.49,7.16,1.68,1.55,4.56,1.76,5.49,1.76Z"/><path class="cls-2" d="M714.21,1126.48c0-9.73,8.2-17.62,18.31-17.62s18.32,7.89,18.32,17.62-8.2,17.63-18.32,17.63S714.21,1136.22,714.21,1126.48Z"/><path class="cls-8" d="M732.52,1147c-11.67,0-21.17-9.19-21.17-20.49s9.5-20.48,21.17-20.48,21.17,9.19,21.17,20.48S744.2,1147,732.52,1147Zm0-35.26c-8.52,0-15.46,6.63-15.46,14.77s6.94,14.77,15.46,14.77,15.46-6.62,15.46-14.77S741.05,1111.71,732.52,1111.71Z"/><path class="cls-8" d="M638.37,677.35h-.12a2.86,2.86,0,0,1-2.74-3c.38-8.9,5.42-14.45,13.49-14.86a2.85,2.85,0,1,1,.29,5.7c-1.9.1-7.69.39-8.07,9.4A2.85,2.85,0,0,1,638.37,677.35Z"/><path class="cls-8" d="M657.47,707.69a2.62,2.62,0,0,1-.73-.1,23.56,23.56,0,0,1-8.92-4.58,2.86,2.86,0,0,1,3.62-4.42,17.85,17.85,0,0,0,6.77,3.48,2.86,2.86,0,0,1-.74,5.62Z"/><path class="cls-8" d="M725.3,717.85a2.86,2.86,0,0,1-1.7-.56c-10-7.41-7-13.12-4.63-17.71a36.44,36.44,0,0,0,1.59-3.31c2.18-5.47,1.55-8.65-1.56-16a2.85,2.85,0,1,1,5.26-2.22c3,7.17,4.76,12.46,1.6,20.38a38.32,38.32,0,0,1-1.84,3.85c-2.27,4.34-3.12,6,3,10.47a2.85,2.85,0,0,1-1.7,5.15Z"/><path class="cls-2" d="M727,731.22c-10.9.48-22.9.16-22.9.16s5.08,24.66,24.38,23.88c18-.72,20.56-26.25,20.56-26.25S737.92,730.72,727,731.22Z"/><path class="cls-8" d="M727.64,758.13c-16.51,0-24.42-17-26.3-26.17a2.84,2.84,0,0,1,.6-2.41,2.67,2.67,0,0,1,2.27-1c.12,0,12,.31,22.69-.17h0c10.61-.47,21.62-2.16,21.73-2.18a2.88,2.88,0,0,1,2.4.76,2.82,2.82,0,0,1,.88,2.36c-.12,1.14-3.06,28-23.28,28.81C728.3,758.13,728,758.13,727.64,758.13Zm-19.73-23.82c2.07,6.26,7.8,18.61,20.49,18.1,11.48-.47,15.76-13.5,17.19-20-4.24.55-11.35,1.37-18.43,1.69h0C720,734.39,712.37,734.36,707.91,734.31ZM727,731.22h0Z"/><path class="cls-8" d="M678.1,659.79a2.86,2.86,0,0,1-1.31-5.4c9.58-4.93,21-5.36,29.21-1.08a2.86,2.86,0,0,1-2.65,5.06c-6.47-3.39-16.09-3-23.94,1.1A2.94,2.94,0,0,1,678.1,659.79Z"/><path class="cls-8" d="M736.77,656.87a2.86,2.86,0,0,1-1.34-5.38c5.55-3,12.63-3.78,19.93-2.32a2.86,2.86,0,0,1-1.12,5.6c-6-1.2-11.74-.58-16.13,1.77A3,3,0,0,1,736.77,656.87Z"/><path class="cls-8" d="M690.34,687.61a29.81,29.81,0,0,1-10.92-2.13,2.86,2.86,0,0,1,2.09-5.32c10,3.92,17.19,0,17.49-.13a2.85,2.85,0,0,1,2.81,5A24.76,24.76,0,0,1,690.34,687.61Z"/><path class="cls-8" d="M753.24,683.67a26.69,26.69,0,0,1-9.41-1.58A2.86,2.86,0,0,1,746,676.8a23.49,23.49,0,0,0,18.35-1.56,2.86,2.86,0,0,1,2.62,5.08A29.69,29.69,0,0,1,753.24,683.67Z"/><path class="cls-8" d="M591,1008.18a2.85,2.85,0,0,1-2.8-2.32c-2.83-14.81-2.35-30.51-1.86-47.12.78-25.8,1.58-52.48-10.43-77.29A2.86,2.86,0,1,1,581.1,879c12.61,26.07,11.79,53.46,11,79.95-.49,16.29-1,31.68,1.76,45.88a2.85,2.85,0,0,1-2.27,3.34A3.29,3.29,0,0,1,591,1008.18Z"/><path class="cls-8" d="M868,1008.6a3.29,3.29,0,0,1-.54-.05,2.87,2.87,0,0,1-2.27-3.34c2.71-14.2,2.25-29.59,1.76-45.88-.79-26.49-1.62-53.88,11-80a2.86,2.86,0,0,1,5.14,2.49c-12,24.81-11.2,51.49-10.43,77.29.5,16.62,1,32.31-1.86,47.12A2.85,2.85,0,0,1,868,1008.6Z"/><path class="cls-8" d="M497.13,1008.11a2.84,2.84,0,0,1-2.78-3.49c11.66-50.94,44.23-161.86,60.33-183,17.18-22.57,39.74-32.5,63.63-43,11.39-5,23.17-10.2,34.33-16.89a2.85,2.85,0,0,1,2.93,4.9c-11.46,6.87-23.4,12.14-35,17.22-23.19,10.21-45.1,19.85-61.38,41.24-14.15,18.59-46,122.72-59.32,180.83A2.85,2.85,0,0,1,497.13,1008.11Z"/><path class="cls-8" d="M505.36,1109a2.82,2.82,0,0,1-1.83-.66c-15.87-13.15-20.79-32.35-16.44-64.16a2.86,2.86,0,0,1,5.66.77c-4.05,29.62.27,47.26,14.43,59a2.85,2.85,0,0,1-1.82,5Z"/><path class="cls-8" d="M961.41,1010.11a2.87,2.87,0,0,1-2.77-2.14l-4.38-17.06C930.68,901.16,910,839.84,897.48,822.7c-10.64-14.59-26.33-22.85-42.93-31.59-7-3.66-14.17-7.46-21.16-11.81a2.86,2.86,0,1,1,3-4.85c6.81,4.25,13.93,8,20.8,11.61,17.21,9.05,33.46,17.61,44.89,33.27,17.67,24.24,43.73,117,57.69,170.15l4.39,17.07a2.83,2.83,0,0,1-2.77,3.56Z"/><path class="cls-8" d="M943.8,1109.63a2.86,2.86,0,0,1-.75-5.61c24.07-6.54,30.17-33.84,18.66-83.48a2.85,2.85,0,1,1,5.56-1.28c12.35,53.24,4.92,82.77-22.72,90.27A2.76,2.76,0,0,1,943.8,1109.63Z"/><path class="cls-8" d="M732,1007.56h-.31a2.87,2.87,0,0,1-2.54-3.15c1.79-16.68-.59-45.78-3.1-76.6-.9-11.08-1.81-22.25-2.53-32.95-1-14.28-1.46-27.44-1.89-39-.6-15.84-1.11-29.51-2.56-32.7-2.85-6.28-7.47-10.21-12.82-14.76-4.76-4.05-10.16-8.64-14.68-15.52-9.23-14.05-11.49-21.8-17.24-44.16a2.85,2.85,0,1,1,5.53-1.42c5.69,22.13,7.72,29.11,16.49,42.44,4.07,6.2,8.91,10.32,13.6,14.31,5.63,4.79,10.94,9.31,14.32,16.74,1.83,4,2.31,14.72,3.06,34.86.44,11.56.93,24.67,1.89,38.87.71,10.67,1.62,21.82,2.52,32.87,2.54,31.09,4.93,60.46,3.09,77.67A2.85,2.85,0,0,1,732,1007.56Z"/><path class="cls-8" d="M725,872.64a2.85,2.85,0,0,1-2.7-3.79c2.66-7.62,3.69-16.51,4.68-25.11,1.56-13.53,2.91-25.22,10.24-30.27,5.5-3.79,19.77-18.08,28.62-33.07,6.58-11.13,8.93-20.52,10.08-40.22a2.85,2.85,0,0,1,5.7.33c-1.2,20.51-3.84,30.9-10.86,42.79-9,15.19-23.61,30.27-30.3,34.87-5.2,3.59-6.47,14.58-7.81,26.22-1,8.91-2.09,18.12-5,26.34A2.84,2.84,0,0,1,725,872.64Z"/><path class="cls-8" d="M685.48,841.65a4.11,4.11,0,0,1-2.34-.77c-7.43-5-20.39-50.89-23.42-73.65-1-7.56,1.41-10,4.92-12.62,2.39-1.78,5.09-3.8,7.29-10.42a2.85,2.85,0,0,1,5.42,1.79c-2.76,8.33-6.54,11.15-9.29,13.21-2.48,1.84-3.32,2.47-2.67,7.29,3.42,25.74,15.44,62.76,20.29,69a80.17,80.17,0,0,0,5.55-6.78c6.7-8.73,15-19.56,24.08-18a2.86,2.86,0,0,1-1,5.63c-5.63-1-13.4,9.12-18.55,15.83-4.38,5.72-6.8,8.73-9.38,9.38A3.88,3.88,0,0,1,685.48,841.65Zm.87-5.49h0Z"/><path class="cls-8" d="M769.32,840.9a3.79,3.79,0,0,1-.89-.11c-2.61-.66-4.86-3.54-8.94-9-4.65-6.23-11.67-15.61-17.28-14.65a2.86,2.86,0,1,1-1-5.62c9.08-1.62,16.72,8.63,22.87,16.85a64.61,64.61,0,0,0,5.07,6.3C773,829.56,782.19,803.89,787,779a2.83,2.83,0,0,1,3.35-2.26,2.86,2.86,0,0,1,2.26,3.34c-4.11,21.23-14.62,56.05-21.1,60.17A4.1,4.1,0,0,1,769.32,840.9Z"/><path class="cls-8" d="M728,781.86c-20.75,0-41.56-17.06-52.32-33.25-14.71-22.12-22.17-55.09-22.48-56.48a2.85,2.85,0,1,1,5.57-1.24c.07.33,7.55,33.33,21.67,54.56,10.46,15.74,30.57,31.25,48.71,30.68,14.1-.52,34-13.12,44.8-36.19,8-17.19,13-51.19,13-51.53a2.85,2.85,0,1,1,5.65.81c-.2,1.43-5.09,35.17-13.49,53.14-11.75,25.15-33.93,38.89-49.76,39.47Z"/><path class="cls-8" d="M791.59,701.34a2.86,2.86,0,0,1-1-5.52c11-4.28,14.06-18.07,14.1-25.54,0-4.59-1.11-8.22-3.21-10.2a7.71,7.71,0,0,0-6.1-1.87,2.86,2.86,0,1,1-.34-5.7,13.2,13.2,0,0,1,10.37,3.42c3.26,3.09,5,8.2,5,14.38-.05,8.91-3.84,25.44-17.74,30.83A2.69,2.69,0,0,1,791.59,701.34Z"/><path class="cls-8" d="M657.05,656a2.85,2.85,0,0,1-2.85-2.8c-.21-11,3.16-38.11,14.57-46.86a2.85,2.85,0,1,1,3.47,4.53c-8.34,6.4-12.59,29-12.33,42.22A2.86,2.86,0,0,1,657.1,656Z"/><path class="cls-8" d="M774.76,656.9c-51.51,0-89-40.18-97.27-55.75a2.86,2.86,0,1,1,5-2.67c7.85,14.85,47.56,56.6,99.69,52.41a2.86,2.86,0,0,1,.45,5.7C780,656.8,777.36,656.9,774.76,656.9Z"/><path class="cls-8" d="M644.29,655.56a2.86,2.86,0,0,1-2.81-2.34c-7.44-40.85-9.21-85.29,34.1-105.17a2.85,2.85,0,0,1,2.38,5.19c-31.62,14.52-40.85,44.11-30.86,99a2.85,2.85,0,0,1-2.3,3.32A2.92,2.92,0,0,1,644.29,655.56Z"/><path class="cls-8" d="M796.7,648.37l-.42,0a2.86,2.86,0,0,1-2.41-3.24c5-34.25.64-60.3-12.94-77.42-21.28-26.81-58.68-29.32-86.31-19.9a2.86,2.86,0,1,1-1.84-5.41c35.47-12.09,72.7-3.34,92.62,21.76,14.6,18.4,19.35,45.92,14.12,81.8A2.86,2.86,0,0,1,796.7,648.37Z"/><path class="cls-8" d="M692.15,691a13.21,13.21,0,0,1-8.68-3.56,2.86,2.86,0,0,1,4-4c1,1,3.55,2.17,5.27,1.83a1.69,1.69,0,0,0,1.35-1.2,2.85,2.85,0,0,1,5.28,2.17,7.41,7.41,0,0,1-5.51,4.63A8.51,8.51,0,0,1,692.15,691Z"/><path class="cls-8" d="M754.43,687.38h-.52a7.42,7.42,0,0,1-6.09-3.85,2.86,2.86,0,0,1,4.94-2.87,1.7,1.7,0,0,0,1.5,1c1.79.1,4.15-1.45,5-2.53a2.86,2.86,0,1,1,4.55,3.46A12.86,12.86,0,0,1,754.43,687.38Z"/><path class="cls-8" d="M765.12,905a2.85,2.85,0,0,1-2-.84c-11.21-11.21-10.06-32-3.93-47.62,2-5.09,5-10.13,8.23-15.47,7.44-12.37,16.7-27.76,19.75-54.09,1-8.37-1.2-18.81-3.5-29.87-2-9.81-4.15-20-4.57-30.32a2.86,2.86,0,0,1,2.74-3,2.8,2.8,0,0,1,3,2.74c.39,9.9,2.45,19.8,4.45,29.38,2.4,11.53,4.66,22.41,3.58,31.7-3.19,27.55-12.8,43.54-20.53,56.38-3.21,5.35-6,10-7.81,14.6-6.44,16.44-5.34,33.5,2.66,41.5a2.86,2.86,0,0,1-2,4.88Z"/><path class="cls-8" d="M782.06,920.09a2.85,2.85,0,0,1-2-.84c-8.39-8.39-10.54-17.7-7.19-31.14a2.85,2.85,0,1,1,5.54,1.38c-2.88,11.54-1.28,18.75,5.69,25.72a2.86,2.86,0,0,1-2,4.88Z"/><path class="cls-8" d="M795.08,910.85a2.84,2.84,0,0,1-2.59-1.67c-6.62-14.49-1.51-30.38,2.13-38.56,2.35-5.28,7.31-13,12.55-21.28,4.79-7.51,9.75-15.27,13.56-22.36,7.92-14.71,13.78-40.79,6.45-69.83-3.25-12.87-14.43-38.81-28.75-61.54a2.85,2.85,0,1,1,4.83-3c14.64,23.22,26.1,49.89,29.46,63.19,6.46,25.61,3.8,53.94-7,73.93-3.91,7.27-8.92,15.13-13.77,22.72-5.13,8-10,15.64-12.15,20.53-3.25,7.31-7.84,21.42-2.16,33.87a2.85,2.85,0,0,1-1.41,3.78A2.81,2.81,0,0,1,795.08,910.85Z"/><path class="cls-9" d="M640.13,673.81c-5,2.42-3.32,10.07-.92,18.1.73,2.43,4.43,17.82,8.09,17.53,4.33-.34,1.59-9.9.45-15.94s-.85-8.34-.11-10.93c.64-2.22,3.3-3.41,2.62-6.94S646.62,670.62,640.13,673.81Z"/><path class="cls-8" d="M647.16,712.3c-4.45,0-7.17-6.74-10.32-18.28l-.36-1.29c-2-6.62-5.31-17.7,2.39-21.49,4.47-2.2,7.92-2.63,10.55-1.31a6.82,6.82,0,0,1,3.64,5.15,8.32,8.32,0,0,1-1.91,7,4.72,4.72,0,0,0-.76,1.23c-.58,2-.91,3.9.17,9.61.16.85.35,1.76.55,2.71,1.18,5.66,2.41,11.5.06,14.63a4.93,4.93,0,0,1-3.65,2Zm.69-5.55h0Zm-1.74-31.85a11.76,11.76,0,0,0-4.72,1.47h0c-3,1.46-1.26,8.63.56,14.72.09.3.23.79.4,1.43,2.08,7.62,3.55,11.19,4.48,12.86a53.53,53.53,0,0,0-1.31-8.53c-.21-1-.41-1.94-.57-2.82-1.2-6.32-1-9.08-.06-12.24a9.59,9.59,0,0,1,1.65-3c.85-1.17,1.11-1.59.92-2.59-.09-.43-.25-1-.58-1.13A1.7,1.7,0,0,0,646.11,674.9Zm-6-1.09h0Z"/><path class="cls-8" d="M680.93,744.32l-.33,0-1.73-.19c-9.41-1-23.64-2.6-28.11-13.44-1-2.38-5.48-16.36-5.48-19.59a2.86,2.86,0,0,1,5.71,0c.07,2,3.81,14.4,5,17.42,3.18,7.72,15.38,9.06,23.46,9.94l1.75.2a2.85,2.85,0,0,1-.32,5.69ZM651,711.08h0Z"/><path class="cls-9" d="M682.13,740.56c0,4.37,4.36,6.17,8.58,5.72s6.47-5.22,2.85-7.52C690.64,736.9,682.13,736.2,682.13,740.56Z"/><path class="cls-8" d="M689.41,749.2a11.13,11.13,0,0,1-7.49-2.58,7.91,7.91,0,0,1-2.64-6.06,5.56,5.56,0,0,1,3-5c3.79-2.09,10.1-.94,12.78.77a6.32,6.32,0,0,1,3,6.89,8,8,0,0,1-7,5.88C690.47,749.17,689.94,749.2,689.41,749.2ZM685,740.61a2.25,2.25,0,0,0,.75,1.76,6.38,6.38,0,0,0,4.66,1.07,2.36,2.36,0,0,0,2.09-1.5c0-.17.1-.42-.46-.77C690.29,740.06,686,739.87,685,740.61Z"/><path class="cls-8" d="M792.47,680.1a2.74,2.74,0,0,1-1.12-.23,2.86,2.86,0,0,1-1.51-3.75,17.51,17.51,0,0,1,3.82-5.9,2.86,2.86,0,0,1,3.85,4.23,12.54,12.54,0,0,0-2.41,3.92A2.87,2.87,0,0,1,792.47,680.1Z"/><path class="cls-8" d="M1697,1090.44H1571.56a2.86,2.86,0,1,1,0-5.71h125.22a3,3,0,0,1,3,2.85A2.76,2.76,0,0,1,1697,1090.44Z"/><path class="cls-8" d="M2385,1090.44H2205.05a2.87,2.87,0,0,1-2.87-2.86,2.84,2.84,0,0,1,2.84-2.85h180a2.86,2.86,0,1,1,0,5.71Z"/><path class="cls-8" d="M1157.81,1235.56c-1.39,0-5.85-.26-9.12-3.28-3.5-3.25-5-9.25-5.13-9.92l-57.92-204.6c-.2-.79-1.61-7,1.34-10.82h0c2.93-3.81,9.35-4.2,10.08-4.24h465.53c.63,0,7.75.07,10.45,4.56,2.49,4.15.44,10.81,0,12.1l-48.88,203.31c-.13.61-1.53,6.68-6,9.91s-10.83,3-11.59,3H1157.81Zm348.93-5.72c1.57.05,5.79-.19,8.1-1.87s3.47-5.3,3.75-6.57l49-203.62c.81-2.45,1.39-6.23.58-7.58-.7-1.17-3.65-1.79-5.52-1.79H1097.19c-1.66.09-4.75.79-5.68,2h0c-1,1.25-.71,4.45-.35,5.89l57.93,204.62c.35,1.49,1.6,5.41,3.49,7.16s5.44,1.76,5.48,1.76Zm-417.49-221.16h0Z"/><path class="cls-2" d="M1320.27,1125.44c0-9.73,8.2-17.62,18.32-17.62s18.31,7.89,18.31,17.62-8.2,17.63-18.31,17.63S1320.27,1135.18,1320.27,1125.44Z"/><path class="cls-8" d="M1338.59,1145.92c-11.68,0-21.18-9.18-21.18-20.48s9.5-20.48,21.18-20.48,21.17,9.19,21.17,20.48S1350.26,1145.92,1338.59,1145.92Zm0-35.24c-8.53,0-15.47,6.62-15.47,14.76s6.94,14.77,15.47,14.77,15.46-6.62,15.46-14.77S1347.11,1110.68,1338.59,1110.68Z"/><path class="cls-8" d="M1244.86,670.16h-.21a2.85,2.85,0,0,1-2.64-3.06c.66-9,5.74-14.27,13.93-14.44a2.92,2.92,0,0,1,2.92,2.8,2.87,2.87,0,0,1-2.8,2.92c-1.9,0-7.69.15-8.35,9.14A2.87,2.87,0,0,1,1244.86,670.16Z"/><path class="cls-8" d="M1263,701.06a2.94,2.94,0,0,1-.82-.11,23.6,23.6,0,0,1-8.76-4.86,2.85,2.85,0,0,1,3.74-4.31,17.81,17.81,0,0,0,6.66,3.69,2.85,2.85,0,0,1-.82,5.59Z"/><path class="cls-8" d="M1330.27,719.64a2.81,2.81,0,0,1-1.77-.62c-9.06-7.17-7.31-12.15-4.08-17.92a34.8,34.8,0,0,0,1.69-3.29c2.36-5.45,1.84-8.67-1-16.22a2.85,2.85,0,1,1,5.33-2c2.79,7.29,4.37,12.66,1,20.53a41,41,0,0,1-2,3.81c-2.42,4.32-3.32,5.93,2.65,10.66a2.85,2.85,0,0,1-1.78,5.09Z"/><path class="cls-8" d="M1282.16,661.39a2.86,2.86,0,0,1-1.23-5.44c9.73-4.64,21.2-4.71,29.24-.18a2.86,2.86,0,0,1-2.81,5c-6.36-3.59-16-3.44-24,.36A2.86,2.86,0,0,1,1282.16,661.39Z"/><path class="cls-8" d="M1345.93,659.64a2.86,2.86,0,0,1-1.52-5.28,31.13,31.13,0,0,1,28.86-1.51,2.86,2.86,0,0,1-2.46,5.16,25.59,25.59,0,0,0-23.37,1.19A2.79,2.79,0,0,1,1345.93,659.64Z"/><path class="cls-8" d="M1297.24,685.62a29.47,29.47,0,0,1-11.71-2.48,2.86,2.86,0,1,1,2.25-5.25c9.84,4.22,17.18.57,17.49.41a2.85,2.85,0,0,1,2.65,5.05A24.29,24.29,0,0,1,1297.24,685.62Z"/><path class="cls-8" d="M1358.21,683.59a27.26,27.26,0,0,1-10.28-1.88,2.86,2.86,0,0,1,2.32-5.23,23.46,23.46,0,0,0,18.39-1,2.85,2.85,0,1,1,2.46,5.15A29.78,29.78,0,0,1,1358.21,683.59Z"/><path class="cls-8" d="M1197.11,1007.14a2.86,2.86,0,0,1-2.8-2.32c-2.83-14.81-2.36-30.5-1.86-47.11.77-25.8,1.58-52.49-10.43-77.3a2.86,2.86,0,0,1,5.14-2.49c12.62,26.08,11.79,53.47,11,80-.49,16.29-1,31.67,1.76,45.87a2.85,2.85,0,0,1-2.27,3.33A2.48,2.48,0,0,1,1197.11,1007.14Z"/><path class="cls-8" d="M1474.11,1007.56a2.47,2.47,0,0,1-.54,0,2.85,2.85,0,0,1-2.27-3.34c2.71-14.19,2.25-29.58,1.76-45.87-.8-26.49-1.62-53.88,11-80a2.86,2.86,0,0,1,5.14,2.49c-12,24.82-11.21,51.5-10.43,77.3.49,16.61,1,32.3-1.86,47.11A2.85,2.85,0,0,1,1474.11,1007.56Z"/><path class="cls-8" d="M1103.35,1007.41a2.79,2.79,0,0,1-.64-.07,2.86,2.86,0,0,1-2.15-3.42c11.72-51.21,44.28-162.46,60.19-183.35a97.08,97.08,0,0,1,20.16-19.74,2.85,2.85,0,1,1,3.38,4.6,91.88,91.88,0,0,0-19,18.6c-14.43,19-45.84,123-59.16,181.16A2.87,2.87,0,0,1,1103.35,1007.41Z"/><path class="cls-8" d="M1111.42,1108a2.85,2.85,0,0,1-1.82-.66c-15.87-13.17-20.79-32.36-16.44-64.17a2.86,2.86,0,0,1,5.66.77c-4,29.62.26,47.26,14.43,59a2.86,2.86,0,0,1-1.83,5Z"/><path class="cls-8" d="M1567.47,1009.08a2.86,2.86,0,0,1-2.76-2.15l-4.38-17c-23.58-89.75-44.28-151.07-56.78-168.21-5.66-7.76-13.27-14.45-24-21.06a2.86,2.86,0,0,1,3-4.86c11.35,7,19.48,14.18,25.58,22.55,17.68,24.23,43.74,117,57.7,170.14l4.38,17.07a2.86,2.86,0,0,1-2.06,3.48A2.82,2.82,0,0,1,1567.47,1009.08Z"/><path class="cls-8" d="M1549.87,1108.6a2.85,2.85,0,0,1-.75-5.61c24.06-6.54,30.17-33.85,18.65-83.48a2.86,2.86,0,0,1,5.57-1.3c12.35,53.24,4.91,82.78-22.73,90.29A3.14,3.14,0,0,1,1549.87,1108.6Z"/><path class="cls-8" d="M1336.65,1006.23l-.35,0a2.87,2.87,0,0,1-2.49-3.19c2.46-19.92,0-52.55-2.41-84.1-.63-8.41-1.27-16.84-1.83-25.1-1-14.29-1.45-27.45-1.89-39.06-.59-15.83-1.1-29.5-2.55-32.69-3-6.53-7.63-10.21-13.52-14.87-4.87-3.84-10.37-8.19-15.9-15-4.84-6-10.78-13.93-13.75-22.44a79.14,79.14,0,0,1-3.68-21.6,2.86,2.86,0,0,1,2.76-2.94,2.81,2.81,0,0,1,3,2.77,73.88,73.88,0,0,0,3.36,19.89c2.68,7.68,8.25,15.11,12.8,20.73a87.77,87.77,0,0,0,15,14.13c6,4.73,11.64,9.2,15.18,17,1.83,4,2.3,14.72,3.06,34.85.43,11.57.92,24.68,1.88,38.88.55,8.25,1.19,16.67,1.83,25.06,2.52,33.3,4.91,64.75,2.38,85.23A2.86,2.86,0,0,1,1336.65,1006.23Z"/><path class="cls-8" d="M1331,871.61a2.81,2.81,0,0,1-.94-.16,2.86,2.86,0,0,1-1.76-3.64c2.67-7.62,3.69-16.51,4.69-25.12,1.55-13.52,2.9-25.2,10.23-30.25,15.06-10.38,26.32-25.64,33.47-45.38,1.32-3.67,1.66-8.07,2-12.72a103.21,103.21,0,0,1,1.17-10.49,2.86,2.86,0,0,1,5.63,1,98.31,98.31,0,0,0-1.11,9.9c-.38,5.06-.75,9.83-2.34,14.23-7.56,20.88-19.54,37.08-35.6,48.14-5.19,3.58-6.46,14.57-7.8,26.21-1,8.91-2.09,18.13-5,26.34A2.86,2.86,0,0,1,1331,871.61Z"/><path class="cls-8" d="M1278.88,751.44a2.86,2.86,0,0,1-2.61-4c.42-1,.84-2.05,1.24-3.26a2.86,2.86,0,0,1,5.42,1.8c-.46,1.39-.94,2.63-1.43,3.74A2.86,2.86,0,0,1,1278.88,751.44Z"/><path class="cls-8" d="M1291.75,840.58c-7.81,0-16.77-31.85-20.33-45.86a2.86,2.86,0,0,1,5.54-1.41c5.48,21.57,11.9,37.49,14.76,41.14a80,80,0,0,0,5.57-6.81c6.7-8.73,15-19.59,24.09-18a2.86,2.86,0,0,1-1,5.63c-5.63-1-13.41,9.12-18.55,15.83-4.39,5.72-6.8,8.74-9.38,9.38A2.74,2.74,0,0,1,1291.75,840.58Z"/><path class="cls-8" d="M1383.68,747.25a2.8,2.8,0,0,1-2.77-2.23,5.42,5.42,0,0,1,0-2.19,2.85,2.85,0,0,1,5.62,1,2.9,2.9,0,0,1-2.21,3.39A3.05,3.05,0,0,1,1383.68,747.25Zm2.79-3.3Z"/><path class="cls-8" d="M1375.63,839.93a4.61,4.61,0,0,1-1.14-.18c-2.61-.65-4.85-3.53-8.93-9-4.66-6.23-11.65-15.63-17.29-14.65a2.86,2.86,0,0,1-1-5.62c9.09-1.6,16.73,8.62,22.87,16.86a74.26,74.26,0,0,0,4.81,6c2-3.51,6.36-14.43,12.22-35.22a2.85,2.85,0,1,1,5.49,1.54C1382.47,835.86,1378.32,839.93,1375.63,839.93Z"/><path class="cls-8" d="M1333.53,777.43c-.43,0-.85,0-1.28,0-19.72-.92-44.1-16.86-55.51-36.28-11.83-20.12-17.42-54.25-17.65-55.7a2.86,2.86,0,1,1,5.64-.9c0,.34,5.65,34.52,16.93,53.71,11.76,20,35.09,32.73,50.86,33.47,14.1.66,36.86-13.66,48.31-36,8.54-16.67,12-49.44,12.06-49.77a2.91,2.91,0,0,1,3.14-2.54,2.84,2.84,0,0,1,2.54,3.13c-.14,1.39-3.63,34.16-12.65,51.79C1374.7,760.18,1351.48,777.43,1333.53,777.43Z"/><path class="cls-8" d="M1397.27,698.84a2.86,2.86,0,0,1-1-5.55c11.16-3.94,14.6-17.63,14.87-25.1.17-4.59-.85-8.24-2.89-10.29a7.78,7.78,0,0,0-6-2.06,2.71,2.71,0,0,1-2.94-2.77,2.84,2.84,0,0,1,2.77-2.93,13,13,0,0,1,10.26,3.74c3.16,3.18,4.78,8.34,4.55,14.53-.33,8.9-4.63,25.3-18.68,30.26A2.84,2.84,0,0,1,1397.27,698.84Z"/><path class="cls-8" d="M1264.7,652.2a2.85,2.85,0,0,1-.47-5.67c29.41-5,43-25.56,53.85-42.09,9.82-14.9,18.31-27.76,34.39-18.39a2.85,2.85,0,1,1-2.88,4.93c-10.93-6.37-16.39.9-26.74,16.61-10.89,16.52-25.81,39.15-57.66,44.57A2.77,2.77,0,0,1,1264.7,652.2Z"/><path class="cls-8" d="M1392.52,652.16a2.81,2.81,0,0,1-1.31-.32c-13.14-6.79-16-19.26-18.85-31.33-1.91-8.21-3.88-16.7-9.08-23.59a2.86,2.86,0,1,1,4.56-3.44c5.92,7.86,8,16.95,10.08,25.74,2.74,11.79,5.11,22,15.91,27.55a2.85,2.85,0,0,1-1.31,5.39Z"/><path class="cls-8" d="M1298.38,689.07a13.17,13.17,0,0,1-8.86-3.83,2.86,2.86,0,0,1,4.16-3.92c.93,1,3.49,2.29,5.21,2a1.7,1.7,0,0,0,1.39-1.17,2.86,2.86,0,1,1,5.21,2.34,7.4,7.4,0,0,1-5.65,4.46A8.9,8.9,0,0,1,1298.38,689.07Z"/><path class="cls-8" d="M1358.63,687.33a7.09,7.09,0,0,1-.79,0,7.41,7.41,0,0,1-6-4,2.85,2.85,0,0,1,5-2.72,1.68,1.68,0,0,0,1.47,1.06c1.75.19,4.2-1.31,5.05-2.37a2.86,2.86,0,0,1,4.44,3.6A12.93,12.93,0,0,1,1358.63,687.33Z"/><path class="cls-9" d="M1246.64,666.66c-5,2.28-3.63,10-1.47,18.07.65,2.45,3.88,17.95,7.54,17.77,4.34-.21,1.9-9.85,1-15.92s-.6-8.36.22-10.92c.7-2.21,3.41-3.32,2.83-6.87S1253.22,663.67,1246.64,666.66Z"/><path class="cls-8" d="M1252.63,705.36c-4.54,0-7.08-6.85-9.9-18.6l-.32-1.3c-1.78-6.68-4.76-17.85,3-21.4h0c4.53-2.06,8-2.38,10.59-1a6.86,6.86,0,0,1,3.48,5.27,8.26,8.26,0,0,1-2.13,7,5.6,5.6,0,0,0-.8,1.21c-.64,2-1,3.87-.12,9.62.13.85.3,1.77.46,2.73,1,5.69,2,11.57-.38,14.61a5,5,0,0,1-3.71,1.87Zm.71-5.53h0Zm-5.53-30.57c-3,1.37-1.52,8.59.12,14.73l.35,1.44c1.84,7.68,3.2,11.3,4.08,13a54.09,54.09,0,0,0-1-8.57c-.18-1-.35-2-.48-2.83-1-6.37-.68-9.12.32-12.24a9.26,9.26,0,0,1,1.74-3c.88-1.14,1.15-1.55,1-2.56-.07-.43-.22-1-.54-1.15-.63-.34-2.46-.24-5.54,1.16Z"/><path class="cls-8" d="M1285.34,738.4l-.42,0-1.72-.25c-9.38-1.32-23.55-3.32-27.68-14.29-.91-2.41-5-16.52-4.87-19.75a2.82,2.82,0,0,1,2.94-2.77,2.86,2.86,0,0,1,2.76,2.94c0,2,3.36,14.5,4.51,17.56,2.94,7.81,15.1,9.52,23.14,10.66l1.75.25a2.86,2.86,0,0,1-.41,5.68Z"/><path class="cls-9" d="M1286.57,734.68c-.13,4.36,4.17,6.3,8.39,6s6.64-5,3.09-7.42C1295.19,731.28,1286.71,730.32,1286.57,734.68Z"/><path class="cls-8" d="M1294,743.55a11.25,11.25,0,0,1-7.85-2.82,7.88,7.88,0,0,1-2.46-6.14h0a5.58,5.58,0,0,1,3.17-4.89c3.87-2,10.14-.62,12.77,1.16a6.34,6.34,0,0,1,2.74,7,8.06,8.06,0,0,1-7.22,5.65C1294.79,743.53,1294.41,743.55,1294,743.55Zm-4.61-8.73a2.25,2.25,0,0,0,.7,1.78,6.21,6.21,0,0,0,4.63,1.21,2.36,2.36,0,0,0,2.14-1.44c0-.16.11-.41-.45-.78C1294.73,734.43,1290.4,734.1,1289.42,734.82Z"/><path class="cls-8" d="M1398.8,677.64a2.87,2.87,0,0,1-2.59-4.07,17.56,17.56,0,0,1,4-5.77,2.85,2.85,0,0,1,3.71,4.34,12.94,12.94,0,0,0-2.53,3.84A2.85,2.85,0,0,1,1398.8,677.64Z"/><path class="cls-8" d="M1330,743.23a46.41,46.41,0,0,1-16.48-2.93,2.86,2.86,0,0,1,2-5.34c11.74,4.47,25.29,2.43,33.51-1.57a2.85,2.85,0,0,1,2.5,5.13A50.78,50.78,0,0,1,1330,743.23Z"/><path class="cls-8" d="M1230.33,931.25a2.82,2.82,0,0,1-1.52-.44c-19.08-12-18.42-24.67-17.65-39.32.5-9.51,1.06-20.28-3.69-33.2-4.87-13.19-10.47-21.48-15.42-28.8-7.41-11-13.27-19.62-11.57-37.66,1.61-17.09,10.39-36.54,18.87-55.35,6.09-13.49,12.39-27.45,16.07-40.51,5.19-18.4,7.57-35.18,9.86-51.41,1.62-11.43,3.29-23.24,5.92-35.47,6.27-29.07,16.57-52.21,46.5-70.65,17.11-10.54,64.4-25.5,93.46-1.28a2.85,2.85,0,1,1-3.65,4.38c-25.22-21-69-9.22-86.82,1.77-28.2,17.37-38,39.34-43.9,67-2.6,12-4.25,23.74-5.85,35.07-2.33,16.41-4.73,33.39-10,52.16-3.79,13.47-10.18,27.62-16.35,41.31-8.68,19.23-16.87,37.39-18.39,53.54s3.57,23.52,10.61,33.93c4.88,7.2,10.94,16.17,16,30,5.17,14,4.57,25.41,4,35.47-.75,14.43-1.25,24,15,34.19a2.85,2.85,0,0,1-1.52,5.27Z"/><path class="cls-8" d="M1255.56,943.54a2.91,2.91,0,0,1-1.37-.35c-.18-.1-17.82-10.05-13.22-31.91a2.86,2.86,0,1,1,5.59,1.18c-3.72,17.63,9.81,25.4,10.38,25.72a2.86,2.86,0,0,1-1.38,5.36Z"/><path class="cls-8" d="M1268.29,949.9a2.84,2.84,0,0,1-2.43-1.36c-9.3-15-4.21-27.21.28-38,2.89-6.93,5.62-13.48,4.59-20.37-1.25-8.36-4.67-14.56-8-20.55-4-7.2-8.09-14.65-8.09-25.3,0-13.15,5.21-25,10.24-36.37a165.93,165.93,0,0,0,7.06-17.83c5.18-16.81,4.3-38,2.66-52.82a2.85,2.85,0,1,1,5.67-.63c1.71,15.35,2.59,37.38-2.87,55.13a169.79,169.79,0,0,1-7.29,18.46c-5,11.37-9.75,22.11-9.75,34.06,0,9.18,3.58,15.67,7.37,22.54,3.55,6.43,7.23,13.09,8.63,22.47,1.26,8.46-1.91,16.06-5,23.41-4.35,10.41-8.45,20.25-.7,32.77a2.86,2.86,0,0,1-2.42,4.36Z"/><path class="cls-8" d="M1431.58,931.25a2.85,2.85,0,0,1-1.52-5.27c16.24-10.23,15.74-19.76,15-34.19-.53-10.06-1.12-21.46,4-35.47,5.1-13.85,11.17-22.82,16-30,7-10.41,12.13-17.93,10.62-33.93s-9.72-34.32-18.4-53.55c-6.17-13.68-12.55-27.83-16.35-41.3-5.3-18.77-7.7-35.74-10-52.16-1.6-11.33-3.26-23-5.85-35.07-6.57-30.51-20.74-49.46-44.58-59.63a2.86,2.86,0,0,1,2.24-5.26c25.34,10.82,41,31.65,47.92,63.69,2.64,12.23,4.31,24,5.93,35.47,2.29,16.23,4.66,33,9.85,51.41,3.69,13.06,10,27,16.07,40.5,8.49,18.82,17.26,38.27,18.88,55.36,1.69,18-4.16,26.7-11.58,37.66-4.94,7.32-10.55,15.6-15.41,28.8-4.76,12.92-4.19,23.69-3.69,33.2.77,14.65,1.43,27.31-17.65,39.32A2.82,2.82,0,0,1,1431.58,931.25Z"/><path class="cls-8" d="M1406.35,943.54a2.86,2.86,0,0,1-1.38-5.37c.57-.31,14.09-8.08,10.38-25.71a2.86,2.86,0,1,1,5.59-1.18c4.6,21.86-13,31.81-13.22,31.91A3,3,0,0,1,1406.35,943.54Z"/><path class="cls-8" d="M1393.62,949.9a2.86,2.86,0,0,1-2.43-4.36c7.75-12.52,3.65-22.36-.69-32.77-3.07-7.35-6.24-14.95-5-23.41,1.4-9.38,5.07-16,8.62-22.47,3.8-6.87,7.38-13.36,7.38-22.54,0-12-4.74-22.7-9.76-34.07a171.69,171.69,0,0,1-7.29-18.45c-6-19.57-3.89-46.65-2.7-57.39a2.86,2.86,0,0,1,5.68.63c-1.16,10.38-3.22,36.53,2.48,55.08A168.89,168.89,0,0,0,1397,808c5,11.41,10.24,23.22,10.24,36.37,0,10.65-4.11,18.1-8.09,25.3-3.3,6-6.73,12.19-8,20.55-1,6.89,1.7,13.44,4.59,20.37,4.49,10.76,9.57,23,.28,38A2.85,2.85,0,0,1,1393.62,949.9Z"/><path class="cls-8" d="M1363,581.3a2.79,2.79,0,0,1-1.22-.28,2.84,2.84,0,0,1-1.36-3.8c.06-.13,5.95-12.72,5.95-23a2.86,2.86,0,0,1,5.71,0c0,11.55-6.23,24.85-6.5,25.41A2.86,2.86,0,0,1,1363,581.3Z"/><path class="cls-8" d="M1780.12,1237.77a14,14,0,0,1-9.11-3.29c-3.51-3.24-5-9.25-5.13-9.92L1708,1020c-.2-.78-1.61-7,1.35-10.83h0c2.92-3.79,9.34-4.19,10.07-4.22h465.53c.67-.06,7.76.08,10.45,4.57,2.49,4.14.44,10.8,0,12.09l-48.88,203.31c-.13.61-1.53,6.69-5.94,9.91s-10.83,3-11.6,3H1780.12Zm348.94-5.72c1.56,0,5.79-.19,8.11-1.88s3.47-5.3,3.74-6.57l49-203.62c.81-2.44,1.39-6.22.58-7.57s-4-1.78-5.53-1.8H1719.51c-1.66.09-4.74.79-5.68,2h0c-.92,1.19-.75,4.22-.35,5.89l57.93,204.63c.35,1.49,1.6,5.4,3.48,7.15s5.45,1.76,5.49,1.76Zm-417.49-221.17h0Z"/><path class="cls-2" d="M1942.59,1127.65c0-9.74,8.2-17.63,18.32-17.63s18.32,7.89,18.32,17.63-8.21,17.62-18.32,17.62S1942.59,1137.38,1942.59,1127.65Z"/><path class="cls-8" d="M1960.91,1148.13c-11.68,0-21.18-9.19-21.18-20.48s9.5-20.48,21.18-20.48,21.17,9.19,21.17,20.48S1972.58,1148.13,1960.91,1148.13Zm0-35.25c-8.53,0-15.46,6.63-15.46,14.77s6.93,14.77,15.46,14.77,15.46-6.63,15.46-14.77S1969.43,1112.88,1960.91,1112.88Z"/><path class="cls-8" d="M1951.9,783.24l-1.12,0c-24.28-.79-48.51-22.14-57.91-42.32-7.47-16-12.82-31.83-13.95-41.2a2.86,2.86,0,1,1,5.67-.68c1.06,8.81,6.22,23.94,13.46,39.46,8.67,18.63,30.84,38.32,52.92,39l.88,0c21.4,0,42.56-24.82,47.46-34.9,9.54-19.6,13.58-46.7,13.63-47a2.86,2.86,0,0,1,5.65.83c-.17,1.14-4.22,28.25-14.14,48.64C1999.62,755,1977.5,783.24,1951.9,783.24Z"/><path class="cls-8" d="M1949.9,715.19a2.86,2.86,0,0,1-2.11-4.78c3.83-4.19,2.54-6.51.2-10.73a27.81,27.81,0,0,1-2.59-5.62c-2.83-9.44,2.27-18,2.49-18.35a2.86,2.86,0,0,1,4.88,3c-.08.14-4,6.82-1.9,13.74a23.56,23.56,0,0,0,2.12,4.49c2.37,4.28,5.62,10.13-1,17.35A2.86,2.86,0,0,1,1949.9,715.19Z"/><path class="cls-8" d="M1900.53,658.15a2.85,2.85,0,0,1-1.14-5.47c.58-.26,14.51-6.18,29.81-1.61a2.85,2.85,0,1,1-1.63,5.47c-13.27-3.95-25.79,1.32-25.91,1.38A2.82,2.82,0,0,1,1900.53,658.15Z"/><path class="cls-8" d="M1964.59,655.23a2.86,2.86,0,0,1-1.07-5.51c.61-.24,15-5.86,29.19-1a2.86,2.86,0,0,1-1.84,5.41c-12.18-4.15-25.1.88-25.23.93A3,3,0,0,1,1964.59,655.23Z"/><path class="cls-8" d="M1798.16,1008.77a2.85,2.85,0,0,1-2.82-2.43c-4.67-31.08-5.43-42-6.56-58.43-.9-12.94-2-29-5.39-60.91a2.87,2.87,0,0,1,2.54-3.15,2.83,2.83,0,0,1,3.14,2.54c3.4,32,4.51,48.14,5.41,61.13,1.12,16.33,1.87,27.12,6.5,58a2.85,2.85,0,0,1-2.39,3.25Z"/><path class="cls-8" d="M1740.61,1134.36a2.89,2.89,0,0,1-1.3-.31c-1.26-.65-31-16-38.78-32.69-8.11-17.33-11.11-32.53-5-67.48,6.29-36,30-123.51,35.86-143.79,11.88-41.44,22.34-65.51,46.54-82,21.23-14.5,68.63-33.15,93.29-41.89a2.85,2.85,0,1,1,1.91,5.38c-24.4,8.65-71.23,27.06-92,41.23s-31,32.53-44.27,78.89c-5.8,20.23-29.47,107.44-35.72,143.2-5.85,33.46-3.06,47.83,4.54,64.08,7,14.94,35.92,29.87,36.21,30a2.86,2.86,0,0,1-1.3,5.4Z"/><path class="cls-8" d="M1915.48,684.1a28.81,28.81,0,0,1-11.4-2.08,2.86,2.86,0,0,1,2.27-5.24c7.52,3.27,18.3.54,18.4.51a2.86,2.86,0,0,1,1.44,5.53A46.56,46.56,0,0,1,1915.48,684.1Z"/><path class="cls-8" d="M1869,653.08a2.86,2.86,0,0,1-2.81-2.38c-.44-2.64-1.06-5.6-1.72-8.77-3.07-14.66-7.27-34.73.85-48.7a2.86,2.86,0,0,1,4.94,2.87c-7,12.07-3.24,30.14-.21,44.66.69,3.25,1.32,6.28,1.77,9a2.85,2.85,0,0,1-2.34,3.29A2.59,2.59,0,0,1,1869,653.08Z"/><path class="cls-8" d="M1872.49,586.45a2.86,2.86,0,0,1-2.83-2.48,38.8,38.8,0,0,1,.5-13.61,2.86,2.86,0,0,1,5.53,1.43,33.62,33.62,0,0,0-.37,11.43,2.84,2.84,0,0,1-2.45,3.2Z"/><path class="cls-8" d="M1881.84,574.67a2.91,2.91,0,0,1-.92-.15,2.85,2.85,0,0,1-1.79-3.62c3.42-10,12.78-18.87,26.35-24.83,5.76-2.54,12.68-4.11,20-5.78,7.49-1.7,15.24-3.47,21.52-6.32a2.86,2.86,0,1,1,2.36,5.2c-6.81,3.09-14.85,4.92-22.62,6.69-7,1.61-13.71,3.12-19,5.43-11.91,5.24-20.38,13.06-23.24,21.45A2.85,2.85,0,0,1,1881.84,574.67Z"/><path class="cls-8" d="M2023.15,597.92h-.06a2.85,2.85,0,0,1-2.8-2.91c.32-17-16.23-49.36-57.55-50.49a2.86,2.86,0,0,1-2.77-2.94,2.8,2.8,0,0,1,2.93-2.77c45.32,1.24,63.46,37.29,63.1,56.31A2.85,2.85,0,0,1,2023.15,597.92Z"/><path class="cls-8" d="M2023,652.77a2.76,2.76,0,0,1-.57-.06,2.87,2.87,0,0,1-2.24-3.37c2.94-14.42,2.8-24.2,1.48-38.25a2.85,2.85,0,0,1,2.58-3.11,2.82,2.82,0,0,1,3.11,2.57c1.34,14.3,1.49,24.89-1.57,39.93A2.85,2.85,0,0,1,2023,652.77Z"/><path class="cls-8" d="M1882.42,657.62a2.86,2.86,0,0,1-2.07-4.83c6-6.28,8.74-15.48,11.4-24.38.8-2.68,1.58-5.3,2.43-7.76a2.86,2.86,0,0,1,5.4,1.86c-.82,2.39-1.58,4.93-2.36,7.53-2.72,9.1-5.8,19.42-12.73,26.69A2.84,2.84,0,0,1,1882.42,657.62Z"/><path class="cls-8" d="M1907.69,614.44a2.86,2.86,0,0,1-2.65-3.93c4-9.82,15.07-15.7,15.55-16a2.86,2.86,0,0,1,2.64,5.07c-.1,0-9.73,5.17-12.9,13A2.85,2.85,0,0,1,1907.69,614.44Z"/><path class="cls-8" d="M1933.68,608.66a2.81,2.81,0,0,1-1.9-.73,2.85,2.85,0,0,1-.24-4c6.32-7.1,17.73-12,29.06-12.51a2.86,2.86,0,0,1,.25,5.71c-9.72.42-19.78,4.68-25,10.6A2.86,2.86,0,0,1,1933.68,608.66Z"/><path class="cls-8" d="M1967.13,608a2.86,2.86,0,0,1-1.32-5.39c5.29-2.75,12.17-2.2,16.86-.77a2.85,2.85,0,0,1-1.66,5.46c-3.44-1-8.8-1.57-12.56.38A2.83,2.83,0,0,1,1967.13,608Z"/><path class="cls-8" d="M2008.13,655.36a2.85,2.85,0,0,1-2.84-2.64c-.58-7.51-2.13-27.47-10.49-35.74a2.86,2.86,0,0,1,4-4.06c8.75,8.65,11.1,25.58,12.16,39.36a2.85,2.85,0,0,1-2.63,3.07Z"/><path class="cls-8" d="M1952.54,1007.25h0a2.85,2.85,0,0,1-2.8-2.91c0-3-.41-7.9-1-14.07-1.11-11.74-2.64-27.83-2.15-46.54.2-8.05.45-15.65.68-22.9,1.09-34.18,2-61.18-2.34-92.07-1.84-13.24-11-19.64-19.14-25.29a62.72,62.72,0,0,1-8.52-6.65c-8.71-8.71-16.52-25.9-21.42-47.16a2.85,2.85,0,1,1,5.56-1.28c4.67,20.24,11.93,36.43,19.9,44.41a59.19,59.19,0,0,0,7.74,6c8.62,6,19.36,13.49,21.54,29.19,4.35,31.37,3.48,58.59,2.39,93-.23,7.24-.47,14.83-.68,22.87-.48,18.37,1,34.25,2.12,45.85.61,6.35,1.08,11.36,1,14.72A2.85,2.85,0,0,1,1952.54,1007.25Z"/><path class="cls-8" d="M1950.19,855.43a3,3,0,0,1-1.07-.21,2.85,2.85,0,0,1-1.57-3.72,155.06,155.06,0,0,0,6.89-22.11c1.07-4.24,2.17-8.63,3.76-13.7,1.65-5.29,6.59-11.32,12.84-18.94,10.36-12.63,23.24-28.34,25.26-46.5a2.85,2.85,0,1,1,5.67.63c-2.2,19.84-15.68,36.28-26.51,49.49-5.63,6.86-10.49,12.79-11.81,17-1.54,4.92-2.62,9.22-3.67,13.39a158.06,158.06,0,0,1-7.14,22.86A2.86,2.86,0,0,1,1950.19,855.43Z"/><path class="cls-8" d="M1904.75,847.59a5.14,5.14,0,0,1-.66-.05c-2.06-.27-3.64-1.78-4.69-4.49-3.2-8.24-23.65-64.74-20.18-72.83,1.11-2.62,3.55-5.12,5.91-7.54a32.16,32.16,0,0,0,3.83-4.39,105.21,105.21,0,0,0,6.58-13,2.86,2.86,0,0,1,5.32,2.08,109,109,0,0,1-7,13.91,33.69,33.69,0,0,1-4.61,5.39c-1.9,2-4,4.17-4.75,5.81-1.29,4.76,10.69,43.92,20.26,68.52.11.28.21.5.29.66,1.57-1.07,4.58-5.15,6.83-8.22,7.13-9.67,16.88-23,30-21.81a2.85,2.85,0,0,1-.48,5.68c-9.85-.75-18.61,10.93-24.94,19.52C1911.73,843.23,1908.52,847.59,1904.75,847.59Zm.55-5.53h0Z"/><path class="cls-8" d="M1997.46,844.15c-3.5,0-6.13-3.92-10-9.71-5.48-8.14-12.86-19.34-23-18.47a2.89,2.89,0,0,1-3.08-2.61,2.84,2.84,0,0,1,2.6-3.08c13.27-1.15,22.29,12.17,28.21,21a53.14,53.14,0,0,0,5,6.75,5,5,0,0,0,.25-.58c8-20.53,15.79-64,14-69a18.55,18.55,0,0,0-3.47-4.78,31.56,31.56,0,0,1-3.45-4.39,65.34,65.34,0,0,1-5-9.82,19,19,0,0,0-.79-1.75,2.86,2.86,0,0,1,5-2.76c.31.58.64,1.33,1,2.31a62,62,0,0,0,4.6,9,26.58,26.58,0,0,0,2.84,3.57,23.53,23.53,0,0,1,4.47,6.35c3.06,7.16-6.54,54.18-14,73.29-.42,1.06-1.66,4.28-4.76,4.62Z"/><path class="cls-8" d="M2104.59,1008.77a2.55,2.55,0,0,1-.39,0,2.86,2.86,0,0,1-2.44-3.22c4-29.82,4.76-40.55,5.75-55.42.86-12.82,1.93-28.79,5.52-62.68a2.86,2.86,0,0,1,5.68.6c-3.58,33.78-4.65,49.69-5.5,62.46-1,15-1.73,25.8-5.79,55.81A2.86,2.86,0,0,1,2104.59,1008.77Z"/><path class="cls-8" d="M2168.25,1131.61a2.85,2.85,0,0,1-1.46-5.31c8.95-5.32,24.69-15.81,29.61-26.33,7.61-16.24,10.39-30.61,4.55-64.08-6.28-35.9-29.93-123-35.72-143.19-13.31-46.37-23.65-64.81-44.28-78.89-20.95-14.32-71-33.86-94.5-42.18a2.86,2.86,0,1,1,1.91-5.39c2.8,1,69,24.55,95.81,42.85,24.2,16.52,34.66,40.59,46.55,82,5.8,20.25,29.53,107.66,35.86,143.79,6.1,35,3.1,50.16-5,67.48-5.57,11.9-22.36,23.16-31.88,28.82A2.81,2.81,0,0,1,2168.25,1131.61Z"/><path class="cls-2" d="M1950.36,728.41c-11.33.42-23.79,0-23.79,0s5.13,24.51,25.19,23.87c18.67-.6,21.51-25.93,21.51-25.93S1961.68,728,1950.36,728.41Z"/><path class="cls-8" d="M1951,755.17c-17.18,0-25.31-17-27.23-26.16a2.87,2.87,0,0,1,.61-2.42,2.65,2.65,0,0,1,2.28-1c.12,0,12.51.4,23.59,0h0c11-.4,22.51-2,22.63-2a2.84,2.84,0,0,1,2.38.79,2.81,2.81,0,0,1,.85,2.36c-1.08,9.61-7.53,27.93-24.26,28.47Zm-20.62-23.79c2.1,6.14,7.83,18.08,20.62,18.08h.67c12-.39,16.54-13.27,18.07-19.75-4.39.52-11.84,1.3-19.28,1.57S1935,731.46,1930.38,731.38Z"/><path class="cls-8" d="M1860.75,675.58h-.21a2.86,2.86,0,0,1-2.64-3.06c.66-9,5.74-14.28,13.93-14.44a2.86,2.86,0,1,1,.11,5.71c-1.9,0-7.69.15-8.35,9.15A2.85,2.85,0,0,1,1860.75,675.58Z"/><path class="cls-8" d="M1881,707.56a2.91,2.91,0,0,1-.82-.12,36,36,0,0,1-10.88-5.93,2.86,2.86,0,0,1,3.75-4.31,30.22,30.22,0,0,0,8.77,4.76,2.86,2.86,0,0,1-.82,5.6Z"/><path class="cls-8" d="M2016.72,706a2.85,2.85,0,0,1-1-5.54c11.15-3.94,14.6-17.63,14.87-25.1.17-4.59-.85-8.25-2.89-10.3a7.71,7.71,0,0,0-6-2.05,2.74,2.74,0,0,1-2.94-2.77,2.86,2.86,0,0,1,2.77-2.94,13.25,13.25,0,0,1,10.26,3.74c3.17,3.18,4.78,8.35,4.55,14.53-.33,8.91-4.63,25.31-18.68,30.27A2.92,2.92,0,0,1,2016.72,706Z"/><path class="cls-9" d="M1862.53,672.08c-5,2.28-3.63,10-1.47,18.07.65,2.45,3.87,18,7.54,17.78,4.34-.21,1.89-9.86.94-15.92s-.6-8.36.23-10.93c.7-2.21,3.4-3.31,2.83-6.86S1869.11,669.1,1862.53,672.08Z"/><path class="cls-8" d="M1868.52,710.79c-4.55,0-7.09-6.85-9.91-18.61l-.31-1.29c-1.78-6.68-4.77-17.86,3-21.41h0c4.52-2.05,8-2.37,10.59-1a6.88,6.88,0,0,1,3.48,5.27,8.35,8.35,0,0,1-2.13,7,5.6,5.6,0,0,0-.8,1.21c-.64,2-1,3.86-.12,9.62.13.85.29,1.77.46,2.73,1,5.69,2.05,11.56-.38,14.61a4.91,4.91,0,0,1-3.71,1.87Zm.71-5.53h0Zm-5.53-30.58c-3,1.38-1.52,8.6.11,14.73l.36,1.44c1.84,7.69,3.2,11.31,4.08,13a53.83,53.83,0,0,0-1-8.56c-.18-1-.35-2-.49-2.85-1-6.37-.67-9.12.33-12.24a9.38,9.38,0,0,1,1.74-3c.88-1.14,1.15-1.54,1-2.55-.07-.43-.22-1-.54-1.15-.63-.35-2.46-.24-5.54,1.15Z"/><path class="cls-8" d="M1901.23,743.83a2.73,2.73,0,0,1-.41,0l-1.74-.25c-9.38-1.33-23.55-3.33-27.67-14.3-.91-2.41-5-16.53-4.88-19.75a2.74,2.74,0,0,1,3-2.76,2.85,2.85,0,0,1,2.76,2.94c0,2,3.36,14.5,4.51,17.56,2.94,7.8,15.09,9.52,23.13,10.65l1.76.25a2.86,2.86,0,0,1-.41,5.69Z"/><path class="cls-9" d="M1902.46,740.11c-.13,4.36,4.17,6.29,8.39,6s6.64-5,3.09-7.43C1911.08,736.71,1902.59,735.75,1902.46,740.11Z"/><path class="cls-8" d="M1909.91,749a11.31,11.31,0,0,1-7.85-2.81,8,8,0,0,1-2.46-6.14,5.59,5.59,0,0,1,3.19-4.89c3.86-2,10.13-.63,12.75,1.16a6.33,6.33,0,0,1,2.75,7,8.05,8.05,0,0,1-7.22,5.66C1910.68,749,1910.29,749,1909.91,749Zm-4.6-8.73a2.27,2.27,0,0,0,.7,1.79,6.38,6.38,0,0,0,4.62,1.2,2.33,2.33,0,0,0,2.14-1.43c0-.17.11-.41-.44-.79C1910.63,739.85,1906.29,739.53,1905.31,740.24Z"/><path class="cls-8" d="M2018.25,684.84a2.84,2.84,0,0,1-2.59-4.06,17.63,17.63,0,0,1,4-5.77,2.85,2.85,0,0,1,3.72,4.33,12.87,12.87,0,0,0-2.53,3.85A2.87,2.87,0,0,1,2018.25,684.84Z"/><path class="cls-8" d="M1916.38,687.74l-.49,0a10,10,0,0,1-8-5.13,2.86,2.86,0,1,1,5.06-2.66,4.17,4.17,0,0,0,3.27,2.09,2.8,2.8,0,0,0,2.61-1.44,2.85,2.85,0,0,1,4.72,3.21A8.59,8.59,0,0,1,1916.38,687.74Z"/><path class="cls-8" d="M1977.76,682.79a45.83,45.83,0,0,1-8.82-.84,2.85,2.85,0,1,1,1.18-5.58c.12,0,11,2.26,18.36-1.34a2.86,2.86,0,0,1,2.51,5.13A30.69,30.69,0,0,1,1977.76,682.79Z"/><path class="cls-8" d="M1978.57,686.43a8.6,8.6,0,0,1-6.94-3.63,2.85,2.85,0,1,1,4.57-3.42,2.83,2.83,0,0,0,2.67,1.32,4.17,4.17,0,0,0,3.17-2.24,2.86,2.86,0,0,1,5.17,2.44,9.94,9.94,0,0,1-7.77,5.48A8.46,8.46,0,0,1,1978.57,686.43Z"/></g></svg>