<svg id="Layer_1" data-name="Layer 1" xmlns="http://www.w3.org/2000/svg" viewBox="0 0 2742 1523"><defs><style>.cls-1{fill:#def2fd;}.cls-1,.cls-11,.cls-12,.cls-2,.cls-3,.cls-4,.cls-5,.cls-6,.cls-7,.cls-8,.cls-9{fill-rule:evenodd;}.cls-2{fill:#aa8472;}.cls-3{fill:#8c99b3;}.cls-4{fill:#fff;}.cls-5{fill:#ffe1c7;}.cls-6{fill:#ed7747;}.cls-7{fill:#ddd5d4;}.cls-8{fill:#c7906e;}.cls-9{fill:#c8d4e8;}.cls-10,.cls-11{fill:#332e3c;}.cls-12{fill:#c0c7d4;}</style></defs><g id="_ëîé_3_2_" data-name="‘ëîé_3_2_"><path class="cls-1" d="M0,0H2742V1523H0Z"/></g><g id="_ëîé_2_1_" data-name="‘ëîé_2_1_"><path class="cls-2" d="M1184.84,113.38s3.42-23.06,20-31,46.1-6.78,46.1-6.78,30.31-4.06,31.52,16.61c.51,8.65-5.76,11-5.76,11l-25.54,55.22s-29.58,20.26-48.18,1S1184.84,113.38,1184.84,113.38Z"/><path class="cls-3" d="M1125.92,423.16l142.76-8.61s94.13,23.15,159.49,54.78c1.06.51,16.89,20.23,39,48.56,15.55,19.92,25.21,41.45,44.5,63.32,17.2,19.5,29,36.64,27.65,39.39-1.66,3.45-17.8,30.45-30,26.58-8.08-2.56-17.65-19.84-29.27-32.29-16.75-18-38.73-34.22-60.77-54.91-10.33-9.7-17.74-25.4-30.47-30.65-16-6.62-39.52-9.9-61.94-13.11-50.59-7.22-102.93-8.63-102.93-8.63l-21.73,126.92s-3.68,19.41-7.69,34.36c-3.85,14.32-7.49,23.76-31.55,43.22-15.46,12.5-72.17,50.18-86.4,60.62-13.21,9.7-25,22.65-34.75,27.6-18.44,9.34-33-27.31-33-27.31s18-16.58,34.25-33.18c14.37-14.69,26-28.37,41.72-45.72,14.44-16,30-29.36,35.07-40.75,8.26-18.69,6.54-69.7,4.94-117.55-.89-26.74-4.49-54.51-3.84-79C1121.21,444.41,1125.92,423.16,1125.92,423.16Z"/><path class="cls-4" d="M1204.52,172.31l50.75,15.83,3.72,11.72a115.73,115.73,0,0,1,22.59,9.17c15.2,8.54,32.07,21.46,47.82,29.28,26.42,13.12,35.26,14,35.26,14L1400.29,202l27,15.74-43.47,78.1a75.86,75.86,0,0,1-40.43,3.23c-24.07-4.56-56.77-16-56.77-16l-7.74,49.67-10.82,50.92,1,29.27s-10.37,12.06-25.54,15.34c-31.84,6.88-84.87,6.88-107.76-1.32-16.65-6-12.37-14.43-8.78-28.36,3.68-14.34,6.93-34.06,6.93-34.06l-3.33-59s-27.33,20-41.38,34.27c-7.67,7.82-12.25,20.61-17.94,31.32-11.89,22.34-21.18,43.08-21.18,43.08s-9.46,1.37-17.22-1.25-13.82-9.22-13.82-9.22,5.21-17.25,14.05-42.28c6.1-17.26,12.61-40.37,25.64-55.4,9.88-11.39,22.64-30,36.74-50.06,9.93-14.12,19.93-29.47,32.64-41.27,13.1-12.17,49.58-21.51,59.42-30C1192.66,180.37,1204.52,172.31,1204.52,172.31Z"/><path class="cls-5" d="M1240.13,122.11a61.42,61.42,0,0,0,6.88-11.36c3.24-6.76,6.24-16.3,12.24-18.18,7.27-2.28,14.6,4.06,18.14,15,2.46,7.6,2.31,20.8,2.31,20.8l9.26,7.83a20.59,20.59,0,0,0-4.33,7.22,25.09,25.09,0,0,0-.66,8.94l-13.89,3.57a32.38,32.38,0,0,0,6.5,5.29,19.55,19.55,0,0,0,6.82,2.25s.38,16.31-3.7,17.64c-3.69,1.2-16.41-4.13-23.85,3.32a30.83,30.83,0,0,0-7.44,13c-1.7,5.56.43,12.42-5.35,12.13s-8.64-4.85-12.79-7.78c-7.69-5.42-14.46-10.88-18.84-16.69a42.54,42.54,0,0,1-5.58-10.56l6.45-16.25,5.2-5.15.26-5s-7.46-7.26-4.71-16.07c1.82-5.83,8.19-5.51,14.77-6C1232.51,125.75,1240.13,122.11,1240.13,122.11Z"/><path class="cls-5" d="M1020.68,406.34a69.38,69.38,0,0,0,13,6.84,35.27,35.27,0,0,0,12.85,2s-1.38,3.66.12,14.32c.91,6.43,4.44,13,2.91,19.13-1,4-7.22,9.2-7.22,9.2l-4.84-7.83s-8.9,16.18-14.06,16.36c-3.11.11-4.54-4-7.24-5.68a22.33,22.33,0,0,0-8.73-2.89l-4-8.22s-6.33-4.52-2-15.33c2.47-6.24,8.31-12.37,13-18.3A78.11,78.11,0,0,0,1020.68,406.34Z"/><path class="cls-5" d="M1420.19,142.24s4.32-2.57,12.7-1,14.44,14.84,14.44,14.84l1.6,15.39-6.31,17.9-18.95,28.29a27.14,27.14,0,0,1-12-3.1c-5.53-3.13-10.14-9.42-10.14-9.42s9.94-12.7,9.12-20.07c-.7-6.32-3.69-10.35-3.89-17.65-.12-4.58,2.88-17.1,6.34-22.34C1416.42,140.06,1420.19,142.24,1420.19,142.24Z"/><path class="cls-6" d="M1229,203.92l10,5.61,12.16-1.75-3.67,16.65-4.08,4.72s-.82,33.92-33.88,66.34c-22.54,22.1-58.56,46.91-80.11,57.83-10.08,5.1-19,12.91-18.26,5.53.39-3.81,6.18-17.77,11.94-25.23,4.91-6.37,10.74-9.51,19.74-14.82,16.72-9.87,39.69-21.51,55.06-35.07,25.7-22.66,37.44-54.61,37.44-54.61l-3.22-12.1-10.21-4.1Z"/><path class="cls-7" d="M1008.15,774.67s6.14,12.58,13.18,19.11a26.53,26.53,0,0,0,15,7,112,112,0,0,0,2.5,37.62,222.47,222.47,0,0,1,5.76,39.75s-4.06,13.17-13,10.77c-12.21-3.27-31.2-32.62-44.38-56.81-9.49-17.42-15.64-32.28-15.64-32.28a64.72,64.72,0,0,1,14.3-13.3C995,780.25,1008.15,774.67,1008.15,774.67Z"/><path class="cls-7" d="M1580.23,609.15c21.4-9.27,38.09-6.94,38.09-6.94s12.17,4.77,2.94,19.9S1570,666.28,1570,666.28l-27,15.3-29.14-33.86s11-6.08,17.83-13.21a45.94,45.94,0,0,0,9.64-15.31S1562.14,617,1580.23,609.15Z"/><path class="cls-8" d="M906.64,510.07l-1.45-6.37,26.57-55.22,8.22-6.2,8.3-.26,26.33,12.43s7.2-9.2,13.61-14.44a32.5,32.5,0,0,1,12-6.48l-2.67,11.07-6.94,5.08-5.72,8.49L1029,479.48l1.67-8.9-1.06-9.21,9.74-12.62,2.53,15.94-2.79,19.85,37.9,17.35,4.46,13.31-46,103.31s-5.3,4.21-11.1,2.89c-11.08-2.52-37.88-15.13-63.12-26.66C927,579.07,894.11,563.8,894.11,563.8l-5-12.31Z"/><path class="cls-9" d="M810,1344.29l-1.83-111.16,177.78-1.53.92-121,169,1L1157.3,990l104.36.61s-9.86,11.74-19.43,42-18.86,79-18.86,79l-17.11,63.12-32.65,32.33-3,58.37-15.29,65.18-2.33,38.75-18.3,78.66a649.49,649.49,0,0,0-130.59-3c-56.46,4.71-116.32,24.28-171.82,24-123.9-.7-193.19-23.76-193.19-23.76l.18-99.12Z"/><path class="cls-9" d="M1517.29,754.31l172.5-4.18L1687.59,642l177-3.21.22-119,170.29-1.1.26-120,171.45.88s-30.28,107.59-39.64,255c-7.36,116,34,268.08,40.47,394.18,8,156.18-15.21,280.68-88,354.54-120.82,122.57-395.6,41.1-395.6,41.1l-30.36-74.52-15.15-81.48-16.37-52.66L1648,1222.86s-29.83-124.89-48-190.07c-5.82-20.8-9.79-29.17-13.39-39.57-7.7-22.19-11.4-31.06-11.4-31.06l4.89-50.74L1550,856.19Z"/><path class="cls-10" d="M682.82,696a2.85,2.85,0,0,1-.32-5.69c1-.12,105.26-12.46,230.6-64.41a2.85,2.85,0,1,1,2.18,5.27c-126.12,52.28-231.09,64.69-232.14,64.81A1.77,1.77,0,0,1,682.82,696Z"/><path class="cls-10" d="M581.54,797.47a2.86,2.86,0,0,1-.68-5.63c179.29-44.06,278.26-94.43,279.24-94.93a2.86,2.86,0,1,1,2.62,5.08c-1,.5-100.49,51.16-280.5,95.4A3.23,3.23,0,0,1,581.54,797.47Z"/><path class="cls-10" d="M670.58,850.08a2.86,2.86,0,0,1-1.05-5.51C823.35,783.5,913.06,728,914,727.4a2.85,2.85,0,1,1,3,4.84c-.89.56-91,56.36-245.33,117.64A3,3,0,0,1,670.58,850.08Z"/><path class="cls-10" d="M1133.52,1452.68a2.9,2.9,0,0,1-1-.19,2.87,2.87,0,0,1-1.62-3.7c.06-.17,6.64-17.44,19.07-74.53,1.53-7.07,1.61-14.56,1.68-22.5.11-11.55.24-24.64,4.67-40.54,1.23-4.42,2.79-11.48,4.46-19,2-9.11,4.11-18.52,5.91-24.64,1.51-5.15,1.59-13.39,1.69-22.92.12-12.56.27-26.8,3.73-39.26a2.86,2.86,0,1,1,5.51,1.53c-3.27,11.74-3.41,25.58-3.53,37.78-.1,10-.18,18.57-1.92,24.49s-3.82,15.24-5.82,24.26c-1.68,7.55-3.26,14.68-4.53,19.24-4.23,15.18-4.35,27.87-4.46,39.07-.08,8.24-.15,16-1.81,23.66-12.57,57.71-19.06,74.69-19.33,75.38A2.86,2.86,0,0,1,1133.52,1452.68Z"/><path class="cls-10" d="M1148,1236a2.89,2.89,0,0,1-1.44-.39,2.86,2.86,0,0,1-1-3.91c3.78-6.45,14.49-16.26,25.83-26.63,14-12.83,29.9-27.37,32.88-35.88,10.87-31,17.43-61.57,23.21-88.54,3.94-18.41,7.67-35.81,12.15-50a167,167,0,0,1,19.14-41,2.85,2.85,0,1,1,4.7,3.24,164.57,164.57,0,0,0-18.4,39.44c-4.39,14-8.09,31.21-12,49.49-5.82,27.13-12.41,57.89-23.4,89.23-3.46,9.86-19.2,24.27-34.42,38.2-11,10.08-21.41,19.6-24.76,25.3A2.84,2.84,0,0,1,1148,1236Z"/><path class="cls-10" d="M639.22,1448a2.85,2.85,0,0,1-2.85-2.85l-.16-99.56a2.86,2.86,0,0,1,2.82-2.86l167.87-2.34-1.33-108.16a2.87,2.87,0,0,1,.82-2,2.84,2.84,0,0,1,2-.85l174.46-1.2.79-117.12a2.86,2.86,0,0,1,2.86-2.84l166.82,0-.37-118a2.88,2.88,0,0,1,.85-2,3.25,3.25,0,0,1,2-.83l105.12.93a2.86,2.86,0,0,1,0,5.71h0l-102.24-.9.37,118a2.85,2.85,0,0,1-2.85,2.86l-166.85.05-.79,117.1a2.87,2.87,0,0,1-2.84,2.84L811.32,1235l1.33,108.14a2.86,2.86,0,0,1-2.82,2.89l-167.9,2.34.15,96.74a2.86,2.86,0,0,1-2.85,2.86Z"/><path class="cls-10" d="M1023.37,469c-3.35,0-5.4-2.79-6.71-4.55a9.13,9.13,0,0,0-1.37-1.64,11.46,11.46,0,0,0-2.35-.52,10.94,10.94,0,0,1-9.91-8,17.09,17.09,0,0,0-.79-1.71,6.42,6.42,0,0,0-2.61-2.34c-1.93-1.14-4.83-2.88-4.15-8.54.55-4.66,7-14.55,9.72-18.59a43.26,43.26,0,0,1,4.52-5.39,42.2,42.2,0,0,0,8.76-12.59,2.85,2.85,0,1,1,5.19,2.37,47.5,47.5,0,0,1-9.78,14.12,38.07,38.07,0,0,0-4,4.69c-4.83,7.12-8.52,13.88-8.78,16.07-.24,2-.15,2,1.4,3a11.79,11.79,0,0,1,4.62,4.36,21.81,21.81,0,0,1,1.12,2.37,7.84,7.84,0,0,0,2.22,3.5,7.39,7.39,0,0,0,3.32,1,16.34,16.34,0,0,1,3.62.88,9.2,9.2,0,0,1,3.81,3.53c1.36,1.85,1.86,2.32,2.4,2.18,2-.69,7.05-8.72,10.05-13.52,1.54-2.46,3-4.85,4.42-6.87a2.85,2.85,0,1,1,4.71,3.22c-1.34,2-2.8,4.29-4.29,6.68-5.79,9.26-9.58,15-13.39,16A6.88,6.88,0,0,1,1023.37,469Z"/><path class="cls-10" d="M1041.64,459.39a2.85,2.85,0,0,1-1.68-5.16c.77-.56,1.58-1.08,2.38-1.59,3.7-2.36,5.31-3.56,4.61-7.35-.49-2.7-1-4.87-1.55-6.91a57.39,57.39,0,0,1-2-11.39,35.81,35.81,0,0,1,1.55-13.23,2.85,2.85,0,1,1,5.37,1.92h0a31,31,0,0,0-1.22,11,52.87,52.87,0,0,0,1.81,10.36c.54,2.14,1.11,4.42,1.63,7.26,1.42,7.73-3.54,10.89-7.16,13.19-.7.46-1.42.91-2.09,1.4A2.83,2.83,0,0,1,1041.64,459.39Z"/><path class="cls-10" d="M1038.8,485.36a3.05,3.05,0,0,1-.6-.06,2.86,2.86,0,0,1-2.2-3.39c3-14,2.92-21.83-.19-30.87a2.85,2.85,0,0,1,5.4-1.85c3.93,11.41,3.16,20.72.38,33.9A2.86,2.86,0,0,1,1038.8,485.36Z"/><path class="cls-10" d="M978.27,455.39a2.94,2.94,0,0,1-1.42-.38,2.85,2.85,0,0,1-1.05-3.9c6.5-11.32,15.27-18.28,25.34-20.12a2.86,2.86,0,1,1,1,5.62c-8.49,1.55-15.7,7.39-21.42,17.34A2.86,2.86,0,0,1,978.27,455.39Z"/><path class="cls-10" d="M985.81,460.53a3,3,0,0,1-1.34-.33,2.87,2.87,0,0,1-1.18-3.87C987.73,448,993.19,444,997,442a2.86,2.86,0,0,1,2.59,5.09c-3.07,1.57-7.52,4.91-11.26,11.92A2.85,2.85,0,0,1,985.81,460.53Z"/><path class="cls-10" d="M1029.43,480.86a2.71,2.71,0,0,1-1-.18,2.85,2.85,0,0,1-1.68-3.67,21.38,21.38,0,0,0,.65-13.49c-.18-.79-.33-1.49-.43-2.11a2.86,2.86,0,0,1,5.66-.83c.07.5.2,1.06.34,1.7a27.08,27.08,0,0,1-.87,16.73A2.83,2.83,0,0,1,1029.43,480.86Z"/><path class="cls-10" d="M1026.2,615.11a13.83,13.83,0,0,1-5.42-1.26L894.22,558.54c-.62-.3-5.13-2.61-6.45-6.42s.88-8.32,1.14-8.81l15.21-34.64a2.86,2.86,0,0,1,5.24,2.28l-15.31,34.84c-.63,1.24-1.27,3.35-.89,4.45s2.47,2.63,3.47,3.13l126.52,55.29c1,.48,2.92,1,3.89.62s2.3-2.22,2.72-3.1L1072.47,509c.45-1.15,1-3.52.74-4.68a4.3,4.3,0,0,0-2.1-2.17l-121.65-57a2.85,2.85,0,0,1,2.41-5.17l.5.23L1073.56,497c.43.2,4.19,2.07,5.18,5.9.87,3.39-.69,7.54-1,8.33L1035,608.56c-.27.56-2.35,4.74-5.91,6.07A8.08,8.08,0,0,1,1026.2,615.11Z"/><path class="cls-10" d="M1026.52,623.89a25.74,25.74,0,0,1-10.44-2.58L897.41,568.23a16,16,0,0,1-8.26-7.89,26,26,0,0,1-1.8-11.34,2.83,2.83,0,0,1,3.08-2.6,2.87,2.87,0,0,1,2.61,3.08,20.34,20.34,0,0,0,1.34,8.57,10.39,10.39,0,0,0,5.21,4.9l119,53.21c2,1,7.7,3.1,11.34,1.35,3.83-1.85,6.93-8.44,7.79-10.82l37.9-85.76c.78-1.58,2.56-6.14,2.09-9.62-.53-3.95-3.9-6.86-3.93-6.89a2.86,2.86,0,0,1,3.67-4.38c.21.18,5.09,4.32,5.92,10.51.8,6-2.44,12.54-2.58,12.81L1043,608.82c-.32.92-4,10.64-10.61,13.83A13.28,13.28,0,0,1,1026.52,623.89Z"/><path class="cls-10" d="M1124.49,642.53l-.3,0a2.85,2.85,0,0,1-2.54-3.14c3.33-31.7,1.9-66.41.63-97-.27-6.52-.87-14.57-1.5-23.1-2-27.11-4.53-60.85.22-83.35a2.86,2.86,0,0,1,5.59,1.18c-4.59,21.7-2.11,55-.12,81.75.64,8.57,1.24,16.67,1.52,23.29,1.27,30.81,2.72,65.74-.66,97.86A2.87,2.87,0,0,1,1124.49,642.53Z"/><path class="cls-10" d="M1036.47,804.16c-7.64,0-17.25-8.23-23.36-16.45-3.35-4.52-8.54-13-5.57-18.68,3.11-6,14.45-15.5,24.46-23.88,4.42-3.71,8.6-7.21,10.87-9.46,9.44-9.37,18.68-20,27.62-30.28C1085,688.72,1100,671.47,1117,658a2.85,2.85,0,1,1,3.54,4.48c-16.64,13.13-31.46,30.17-45.78,46.65-9,10.37-18.32,21.08-27.91,30.6-2.43,2.41-6.51,5.83-11.23,9.78-8.64,7.23-20.47,17.14-23.05,22.13-.88,1.69.59,6.58,5.09,12.64,6.38,8.59,15.17,14.92,19.5,14.09,5.06-.94,11.19-6.27,19.67-13.65,4.73-4.11,10.08-8.77,16.45-13.72,7.34-5.7,19.56-14.09,33.71-23.81,21-14.4,47.07-32.33,67.37-48.5,9.79-7.79,15.81-22.14,21.5-51.19,1.74-8.92,3.84-22.47,6.27-38.16,5.76-37.26,12.94-83.63,21.57-110a2.86,2.86,0,1,1,5.43,1.78c-8.49,25.9-15.93,74-21.36,109.06-2.43,15.76-4.54,29.36-6.31,38.38-6,30.93-12.43,45.72-23.54,54.57-20.46,16.29-46.65,34.28-67.7,48.74-14.07,9.67-26.23,18-33.44,23.61-6.24,4.85-11.53,9.46-16.2,13.52-9.16,8-15.78,13.73-22.37,15A9.58,9.58,0,0,1,1036.47,804.16Z"/><path class="cls-10" d="M1383.43,528.26a2.42,2.42,0,0,1-.47,0c-36.21-6-126.21-17.47-143.33-18.52a2.85,2.85,0,0,1-2.68-3,2.89,2.89,0,0,1,3-2.68c17.22,1.06,107.59,12.53,143.91,18.59a2.85,2.85,0,0,1-.46,5.67Z"/><path class="cls-10" d="M1420,467.72a2.89,2.89,0,0,1-1.3-.31c-26.46-13.59-110.36-39.34-149.4-50.11a2.85,2.85,0,1,1,1.52-5.5c35.25,9.72,122.08,35.94,150.49,50.53a2.85,2.85,0,0,1-1.31,5.39Z"/><path class="cls-10" d="M1511.39,649.72a8.14,8.14,0,0,1-4.72-1.34c-4.37-3-8.2-7.5-14-14.25-6.7-7.81-15.87-18.5-31.73-34.1-9.22-9.08-18.2-16.61-26.89-23.89-15-12.57-29.17-24.44-40.86-41.51a2.86,2.86,0,0,1,4.72-3.22c11.24,16.42,25.12,28,39.81,40.36,8.77,7.35,17.84,15,27.23,24.18,16,15.78,25.29,26.58,32.06,34.46,5.7,6.65,9.14,10.66,12.91,13.27,2.44,1.69,12.09-2.37,19.91-11.26,2.69-3.06,11-13.59,4.46-20.77a633.63,633.63,0,0,1-61.49-79.13c-11.31-17.41-23.83-34.89-32.65-45.61-8.53-10.37-14.62-15.86-21.72-19.57a2.85,2.85,0,1,1,2.64-5.06c7.84,4.1,14.43,10,23.49,21s21.61,28.55,33,46.13a628.32,628.32,0,0,0,60.94,78.41c6.52,7.21,4.87,17.82-4.41,28.37C1527.62,643.59,1518.21,649.72,1511.39,649.72Z"/><path class="cls-10" d="M1037.81,885.85c-5.71,0-15.62-10.15-20.72-16.34-10.36-12.56-20.68-29.9-24.66-39.39a162.92,162.92,0,0,0-10.66-20.5c-4.86-8.27-7.79-13.25-5.33-17.38,3.16-5.27,12.19-10.6,20.93-15.76,3.84-2.27,7.48-4.42,10.3-6.38a2.86,2.86,0,0,1,3.26,4.69c-3,2.08-6.72,4.28-10.66,6.61-7.74,4.57-16.52,9.75-18.92,13.77-.73,1.22,2.78,7.19,5.35,11.55a169.43,169.43,0,0,1,11,21.19c3.82,9.12,13.77,25.81,23.8,38,8,9.7,14.64,14.14,16.27,14.27,4-.51,4.77-8.18,4.25-13.21-.55-5.25-2.18-11.24-3.91-17.58-2.51-9.23-5.36-19.7-5.72-30.93-.25-7.82.39-13.62,1.95-17.74a2.86,2.86,0,1,1,5.34,2c-1.27,3.35-1.81,8.58-1.59,15.53.34,10.56,3.1,20.68,5.53,29.61,1.79,6.57,3.48,12.77,4.08,18.5.86,8.33-1.07,18.43-9.35,19.46A4.63,4.63,0,0,1,1037.81,885.85Z"/><path class="cls-10" d="M1033.22,891.33c-4.34,0-8.44-3.29-13.61-7.84-9.3-8.18-21.35-25.44-28-37.51-3.08-5.63-5.08-9.77-7.2-14.15-1.16-2.39-2.36-4.87-3.8-7.74-1.24-2.46-2.77-5-4.24-7.49-3.56-6-6.92-11.61-7.15-16.84-.3-7,6.7-10.69,10.88-11.78a2.86,2.86,0,1,1,1.43,5.53c-.06,0-6.78,1.92-6.6,6,.17,3.78,3.31,9.05,6.35,14.16,1.52,2.56,3.1,5.2,4.43,7.84,1.46,2.9,2.67,5.41,3.84,7.82,2.09,4.32,4.06,8.39,7.07,13.9,6.46,11.8,18.23,28.49,26.73,36,4.87,4.29,8.14,6.69,10.26,6.38,1.73-.26,3.88-2.51,6.57-6.87a2.85,2.85,0,1,1,4.86,3c-3.77,6.13-6.94,9-10.58,9.53A7.87,7.87,0,0,1,1033.22,891.33Z"/><path class="cls-10" d="M1131.9,328.77a2.85,2.85,0,0,1-2.85-2.78c-.21-8.22-.15-14.81.18-21.36a2.89,2.89,0,0,1,3-2.71,2.85,2.85,0,0,1,2.71,3c-.32,6.41-.38,12.86-.17,20.94a2.85,2.85,0,0,1-2.79,2.92Z"/><path class="cls-10" d="M1194.77,435.64c-30.24,0-67-5.45-70.61-12.78-3.56-7.1-1.61-15.57.86-26.29a167.09,167.09,0,0,0,4.21-24.16c.51-6,.72-12.05.65-19.1a2.87,2.87,0,0,1,2.83-2.88,2.94,2.94,0,0,1,2.88,2.83c.07,7.23-.14,13.47-.66,19.63a172.63,172.63,0,0,1-4.34,25c-2.3,10-4,17.19-1.33,22.46,3.28,4,41.67,11.18,76.52,9.34,28.85-1.52,47.3-6.64,58.07-16.11,2.82-2.48,2.45-9.16,2.05-16.23a112.79,112.79,0,0,1-.2-12.79c.51-8.69,4.34-25.13,7.73-39.63,1.67-7.17,3.25-13.94,4.11-18.48,2.2-11.65,3.66-24.38,5.21-37.86.94-8.12,1.9-16.51,3-24.76a2.86,2.86,0,0,1,5.66.79c-1.14,8.18-2.1,16.54-3,24.62-1.56,13.58-3,26.41-5.28,38.27-.88,4.66-2.47,11.49-4.16,18.72-3.17,13.57-7.11,30.46-7.59,38.66a106.78,106.78,0,0,0,.21,12.15c.49,8.86.91,16.51-4,20.82-11.78,10.37-31.34,15.95-61.54,17.54C1202.48,435.55,1198.68,435.64,1194.77,435.64Z"/><path class="cls-10" d="M1225.12,479.31h-.25a2.85,2.85,0,0,1-2.6-3.08,106.73,106.73,0,0,1,3.15-17.66c1.78-7.23,3.32-13.48,2.08-24.49a2.85,2.85,0,0,1,5.67-.64c1.36,12-.37,19.05-2.2,26.5a99.69,99.69,0,0,0-3,16.77A2.84,2.84,0,0,1,1225.12,479.31Z"/><path class="cls-10" d="M1439.31,177.5l-.36,0a33.73,33.73,0,0,0-4.93-.19,2.86,2.86,0,1,1-.23-5.71,41.57,41.57,0,0,1,5.87.23,2.86,2.86,0,0,1-.35,5.69Z"/><path class="cls-10" d="M1424.43,219.79a2.81,2.81,0,0,1-1.31-.32,2.85,2.85,0,0,1-1.22-3.85,92.52,92.52,0,0,1,8.44-13.11,116.58,116.58,0,0,0,7.82-11.78c6.51-11.42,8.9-18.22,7.76-22a3.93,3.93,0,0,0-2.12-1.06c-4.57-1.27-12-.36-14.35,1.27-1.5,1-1.32,3.36-1.23,4.06.29,2.24,1.48,4,2.41,4.3,0,0,2.88.53,3.73-1.91a2.85,2.85,0,0,1,5.39,1.88c-2,5.77-8.26,6.37-11,5.42-3.64-1.27-5.74-5.41-6.21-9-.52-4,.85-7.6,3.69-9.52,4.24-2.89,14.38-3.76,20.1-1.74,3.4,1.21,4.63,3.18,5.06,4.62,1.69,5.66-.63,13.09-8.28,26.49a118.49,118.49,0,0,1-8.18,12.33,88.42,88.42,0,0,0-8,12.38A2.84,2.84,0,0,1,1424.43,219.79Z"/><path class="cls-10" d="M1425.51,177.4a2.84,2.84,0,0,1-1.84-.67c-2.88-2.42-4.73-7.43-4.51-12.2.17-3.86,1.69-7,4.29-8.78,7.35-5.11,22.8-2.43,25.52.35,2.3,2.34,3,6.48,1.79,10.07a2.85,2.85,0,1,1-5.39-1.87,4.48,4.48,0,0,0-.47-4.2c-1.61-1-13.3-3.07-18.19.34-1.48,1-1.8,3.17-1.85,4.35-.15,3.26,1.17,6.46,2.48,7.57a2.85,2.85,0,0,1-1.83,5Z"/><path class="cls-10" d="M1446.22,159.85a2.86,2.86,0,0,1-2.84-2.58,20.82,20.82,0,0,0-.78-4.2c-1.32-.93-6.43-2.15-14.24-1.28a2.89,2.89,0,0,1-3.15-2.53,2.85,2.85,0,0,1,2.52-3.15c6.91-.76,15.53-.38,19,3,.43.42,1.75,1.7,2.32,7.61a2.87,2.87,0,0,1-2.57,3.12Z"/><path class="cls-10" d="M1421.42,171.26a2.87,2.87,0,0,1-2.41-1.32,17.27,17.27,0,0,1-1.94-14.87,2.85,2.85,0,1,1,5.43,1.74,11.57,11.57,0,0,0,1.32,10.05,2.86,2.86,0,0,1-2.4,4.4Z"/><path class="cls-10" d="M1440.08,151.32a2.86,2.86,0,0,1-2.72-2c-.57-1.77-3.53-4.32-7.33-5.35-2.51-.69-4.7-.48-5.84.55a2.86,2.86,0,0,1-3.82-4.25c2.63-2.36,6.7-3,11.16-1.81s9.82,4.56,11.27,9.13a2.84,2.84,0,0,1-1.86,3.58A2.92,2.92,0,0,1,1440.08,151.32Z"/><path class="cls-10" d="M1402.42,207.18a2.81,2.81,0,0,1-1.67-.55,2.85,2.85,0,0,1-.64-4c8.76-12,9.17-17.31,6.86-22.81-3.28-7.81-2.12-21.28-.3-27.92,1.68-6.17,4.66-10.28,6.87-11.6a8.36,8.36,0,0,1,8-.32,13.57,13.57,0,0,1,7.22,9.62,9.56,9.56,0,0,1-1.61,6.71,6.21,6.21,0,0,1-4.09,2.58c-4.11.59-8.69-3.39-10-4.63a2.74,2.74,0,0,1-.79-1.32l-.13.46c-1.63,6-2.54,18,0,24.21,3.55,8.45,1.59,15.88-7.5,28.38A2.85,2.85,0,0,1,1402.42,207.18Zm12.64-57.84a2.84,2.84,0,0,1,2,.78c1.81,1.7,4.43,3.23,5.23,3.13a.8.8,0,0,0,.32-.29,3.84,3.84,0,0,0,.6-2.42,7.81,7.81,0,0,0-4-5.37,2.65,2.65,0,0,0-2.7,0,12.62,12.62,0,0,0-3.06,4.66A2.9,2.9,0,0,1,1415.06,149.34Z"/><path class="cls-4" d="M2004.38,199.89s-2.68-21.2-16.13-32.77-37.66-13.51-37.66-13.51-13.36-22.05-40.81-29.15c-25.22-6.51-59.24-4.43-77.22,7.42-49.73,32.74-13.79,50.61-22.74,64.79-3.35,5.31-13.26,6.64-18.76,8.19-20.67,5.83-43.92,10.47-63.22,19.63-2.74,1.3-27,10.08-23.76,16.73,2.3,4.74,17,9.87,11.26,15.94-5.51,5.88-19.16,7.77-26.62,9.29-21.08,4.32-92.18,7.32-91.49,20.48s32.42,17.47,122.48,19.18c41,.78,65.17,12.49,136.93,12.91,175.31,1,280.91,1.56,282.47-23.41s-65-38-65-38-9.63-29.79-27.05-44.22S2004.38,199.89,2004.38,199.89Z"/><path class="cls-4" d="M1627,1135.63c-10.33-11.76-28.14-9.55-31.37-12.58-3.86-3.64-9.6-16.66-26.29-23.45s-20-1-33.65-5.54c-9.61-3.18-9.81-6.54-14.85-13.21s-17.16-17-40.12-16-35.17,9.47-39.62,22.86c-1.74,5.22-.17,13.72-3.93,16.44s-12.32-2.41-22.46,5.42-7.42,17.43-13.56,18.72c-2.29.48-12.45-8.69-32.77,0s-23.1,26.27-25.56,26.65c-8.15,1.24-86.41,15.81.63,19.85,32,1.48,73.45-3.5,129.72-7.55,20.83-1.5,37.18,7.74,58.63,8.33,22.23.62,30.1-4.38,49.91-4.41,14.18,0,28.56,4.51,40.82,4.53,4.26,0,8.67,0,13.13.1C1635.63,1175.78,1629.62,1138.65,1627,1135.63Z"/><path class="cls-4" d="M691.09,976.71S691.35,958,667.64,956s-31.23,17.09-33.07,18.38c-2.05,1.45-11.09-4.38-26.26,2.78S602,995.55,600.69,997c-1.06,1.12-6.82.27-16.43,5.61s-14.3,11.48-17,12.54c-1.53.6-8.51-3.46-21.58.34s-14.94,14.14-14.94,14.14-8.61-.24-13.1,1.22-7.37,6.26-7.67,6.25c-1.44,0-12.67-6.31-23.18,2.14s-4.41,11.67-5.38,14.35c-1.4,3.91-5.82,3.81-8.3,4.54-8.48,2.5-41,5.78-39.81,13.63.22,1.42,27,2.4,69.67,2.79,15.32.13,6.19,9.85,35.64,11,14.31.53,63.43,3.21,88.47,1.26,26.45-2.06,42.67-19.71,79.77-18.86s123.68,6.75,124.88-11.31c1.26-19-56.16-25.52-56.16-25.52s-4.79-16.51-16-22.63a46.86,46.86,0,0,0-26.7-5.38s-5.84-12.79-16.41-22.3S691.09,976.71,691.09,976.71Z"/><path class="cls-4" d="M772.13,274.67c-11.79-3.73-12.08-7.82-18.33-15.89s-21.21-20.55-49.22-18.89-42.78,12.1-48,28.51c-2,6.39,0,16.75-4.54,20.13s-15.07-2.76-27.33,7-8.79,21.39-16.26,23.06c-2.8.63-15.33-10.41-40,.46s-27.8,32.42-30.8,32.92c-9.93,1.64-51.74,4.61-45.36,18.81s240.58,11.21,261.81,7.11c21-4.06,18.61-14.7,42-17.28,41.83-4.62,106.4-4.51,107.37-21.6s-55.14-26.12-55.14-26.12a68.58,68.58,0,0,0-20.52-21.55C807.38,278,793,281.29,772.13,274.67Z"/><path class="cls-10" d="M1579.68,914.9a2.85,2.85,0,0,1-2.74-2c-2.12-7.07-7.52-16.18-13.23-25.82-6-10.19-12.29-20.72-16-30.92-3.42-9.29-11.52-33.54-19.25-57.67-14.13-44.05-13.69-44.72-12.71-46.18,1.09-1.64,2.59-3.89,170.85-4.41l-2-107.35a2.85,2.85,0,0,1,2.84-2.91l174.46-1.19.79-117.12a2.85,2.85,0,0,1,2.86-2.83l166.82-.05-.37-118a2.85,2.85,0,0,1,.84-2,3.31,3.31,0,0,1,2-.84l171.35,1.14a2.86,2.86,0,0,1,0,5.71h0l-168.46-1.12.37,118a2.85,2.85,0,0,1-2.85,2.87l-166.85,0-.8,117.1a2.85,2.85,0,0,1-2.83,2.83l-174.39,1.19,2,107.37a2.83,2.83,0,0,1-2.85,2.9c-61,.18-152,1-168.07,2.56,3.54,13.74,25,80,31.63,98,3.58,9.71,9.69,20,15.6,30s11.47,19.35,13.79,27.09a2.86,2.86,0,0,1-1.91,3.56A2.94,2.94,0,0,1,1579.68,914.9Z"/><path class="cls-10" d="M1747.45,1292.66a2.87,2.87,0,0,1-2-.77c-8.13-7.61-18.74-12.15-26.49-15.46a67,67,0,0,1-9.75-4.71c-4.53-3-9.09-7.31-13.11-11.11-3.59-3.39-7-6.59-9.64-8.24-4.85-3-9.81-5.72-14.61-8.35-13-7.11-24.23-13.25-26.82-21.9s-7.18-27-8.08-30.59c-8.84-35.51-18.82-76.66-26.85-109.73l-5.74-23.67c-11-45.34-19-62.9-25.32-77-1.86-4.13-3.62-8-5.33-12.29-3.44-8.61-1.26-23.73,1.51-42.85,2.83-19.6,6.36-44,4-66.62a2.86,2.86,0,0,1,5.68-.59c2.4,23.35-1.18,48.12-4.06,68-2.54,17.56-4.73,32.73-1.85,39.93,1.65,4.14,3.39,8,5.22,12,6.47,14.33,14.51,32.16,25.67,78l5.74,23.67c8,33.06,18,74.2,26.84,109.7,2.58,10.34,6,23.74,8,30.32,1.92,6.41,12.69,12.31,24.09,18.54,4.87,2.67,9.9,5.42,14.88,8.5,3.16,2,6.75,5.35,10.55,8.94,4,3.83,8.22,7.78,12.34,10.51a65.28,65.28,0,0,0,8.84,4.22c8.14,3.48,19.29,8.24,28.15,16.54a2.85,2.85,0,0,1,.14,4A2.88,2.88,0,0,1,1747.45,1292.66Z"/><path class="cls-10" d="M1723.86,1447.94a2.84,2.84,0,0,1-2.61-1.71c-1.17-2.66-28.63-65.3-31-78.92-.35-2-.81-5.24-1.41-9.52-3.52-25-11.77-83.52-31.15-122.27a2.86,2.86,0,1,1,5.11-2.55c19.79,39.58,28.13,98.76,31.69,124,.59,4.18,1,7.38,1.38,9.32,2.29,13,30.35,77,30.63,77.61a2.84,2.84,0,0,1-1.46,3.76A2.81,2.81,0,0,1,1723.86,1447.94Z"/><path class="cls-10" d="M1043.65,417.75a37.35,37.35,0,0,1-11.59-2.12c-7.64-2.61-15.45-7.51-14.5-13.44.8-5,3.15-11.52,6.11-19.76,1.76-4.9,3.76-10.45,5.74-16.56.77-2.38,1.49-4.64,2.19-6.83,4.14-13,7.42-23.28,15.31-39.27,7.34-14.87,15.27-24.73,25.31-37.22,2.71-3.37,5.58-6.94,8.67-10.89,5-6.38,9.91-13.32,14.68-20,10.94-15.39,22.25-31.31,35.4-42.26,6.9-5.76,20.08-11,32.83-16.14,8-3.22,15.61-6.25,20.33-8.95a2.86,2.86,0,0,1,2.83,5c-5.06,2.89-12.82,6-21,9.29-11.76,4.71-25.09,10.05-31.3,15.22-12.58,10.49-23.67,26.1-34.39,41.19-4.81,6.76-9.78,13.76-14.84,20.23-3.1,4-6,7.57-8.72,11-10.2,12.69-17.58,21.86-24.64,36.17-7.7,15.61-10.92,25.69-15,38.47-.7,2.2-1.42,4.48-2.2,6.86-2,6.2-4,11.79-5.8,16.73-2.86,8-5.12,14.26-5.84,18.74-.18,1.11,3.44,4.64,10.71,7.13,7.91,2.7,14,2.15,15.15.09,4.77-8.76,9-17.37,15.22-30.72a392.61,392.61,0,0,1,23.38-43.42,2.85,2.85,0,1,1,4.81,3.07,385.71,385.71,0,0,0-23,42.75c-6.25,13.47-10.56,22.17-15.4,31.05C1052.2,416.48,1048.2,417.75,1043.65,417.75Z"/><path class="cls-10" d="M1100.08,332.75a2.86,2.86,0,0,1-1.82-5.06c6.33-5.24,10.19-8.31,13.38-10.85,8.25-6.55,12-9.55,43.63-38.4a2.86,2.86,0,1,1,3.85,4.22c-31.77,29-35.58,32-43.93,38.65-3.16,2.52-7,5.58-13.29,10.78A2.85,2.85,0,0,1,1100.08,332.75Z"/><path class="cls-10" d="M1163,266.65a2.86,2.86,0,0,1-2.86-2.85c0-14.73-1.11-29.84-9.14-40.54a2.86,2.86,0,1,1,4.57-3.43c9,12,10.28,28.25,10.28,44A2.86,2.86,0,0,1,1163,266.65Z"/><path class="cls-10" d="M1423.4,220.75c-11.49,0-21.77-8.14-25.35-16.49a2.86,2.86,0,1,1,5.25-2.25c3,7,11.87,13.74,21.48,13a2.86,2.86,0,0,1,.42,5.7C1424.6,220.72,1424,220.75,1423.4,220.75Z"/><path class="cls-10" d="M1359.2,260.54a2.77,2.77,0,0,1-1.66-.54,2.85,2.85,0,0,1-.65-4c4.83-6.73,10.51-14.5,15.94-21.93,6.87-9.4,13.36-18.28,17.23-23.78l1.13-1.62c5.47-7.8,5.8-8.27,11.43-11.06l1.06-.52a2.85,2.85,0,1,1,2.55,5.1l-1.07.54c-4.33,2.14-4.33,2.14-9.29,9.22l-1.14,1.62c-3.9,5.55-10.4,14.45-17.28,23.87-5.43,7.42-11.1,15.18-15.93,21.89A2.84,2.84,0,0,1,1359.2,260.54Z"/><path class="cls-10" d="M1364.52,303.51a95.89,95.89,0,0,1-13-1c-22.27-3.08-54.37-12-66.06-18.26a2.86,2.86,0,1,1,2.71-5c11,5.95,42.79,14.68,64.13,17.63,18.93,2.62,27.65.24,33.36-9.12,5-8.13,11-20.18,15.91-29.85,1.61-3.19,3.07-6.09,4.3-8.45,4.45-8.61,8.44-15,11.63-20.14,4.54-7.28,7.28-11.68,6.17-14.33a2.86,2.86,0,0,1,5.27-2.2c2.24,5.37-.9,10.41-6.59,19.55-3.14,5-7.06,11.34-11.41,19.74-1.22,2.36-2.67,5.24-4.27,8.4-4.93,9.77-11.06,21.93-16.14,30.26C1384.64,300.37,1375.81,303.51,1364.52,303.51Z"/><path class="cls-10" d="M1352.37,251.8a2.83,2.83,0,0,1-1-.19c-25.06-9.59-41.16-20.7-54.1-29.62-3.07-2.12-5.93-4.09-8.62-5.84-7.34-4.75-13.74-7.44-20.52-10.28-3.43-1.44-7-2.92-10.74-4.73a2.85,2.85,0,1,1,2.46-5.15c3.64,1.74,7.12,3.2,10.49,4.62,7,2.94,13.65,5.72,21.41,10.75,2.74,1.78,5.64,3.77,8.76,5.93,12.69,8.75,28.48,19.64,52.9,29a2.85,2.85,0,0,1-1,5.52Z"/><path class="cls-10" d="M1225.35,152a1.72,1.72,0,0,1-.32,0c-10.82-1.22-17-7.28-16.66-16.22a11.12,11.12,0,0,1,5.52-9.48c3-1.74,7-2.23,9.24-1.11a2.85,2.85,0,0,1-2.48,5.14,6.71,6.71,0,0,0-4.4,1.24,5.42,5.42,0,0,0-2.17,4.46c-.32,7.39,6.12,9.68,11.59,10.3a2.85,2.85,0,0,1-.32,5.69Zm-4.66-21.68Zm-.17-.07h0Z"/><path class="cls-10" d="M1223.63,140.84a2.86,2.86,0,0,1-1.77-.61,8.55,8.55,0,0,0-2-1.11,2.86,2.86,0,1,1,2-5.35,14.64,14.64,0,0,1,3.5,2,2.85,2.85,0,0,1-1.78,5.09Z"/><path class="cls-10" d="M1214.05,160.43a2.86,2.86,0,0,1-1.53-5.27c2.47-1.57,3.39-3.75,3-7.07a2.86,2.86,0,1,1,5.67-.71c.86,6.94-2.56,10.68-5.58,12.6A2.76,2.76,0,0,1,1214.05,160.43Z"/><path class="cls-10" d="M1247.32,210.91a2.86,2.86,0,0,1-2.85-2.85c0-.7,0-1.48,0-2.29-.09-3.72-.2-7.93,1.06-11,2.4-5.77,6.38-10.89,10.63-13.67,4.46-2.91,10.05-2.44,14.12-2.09.86.07,1.66.14,2.39.17,3.85.16,6.12-.69,7-5.61a2.86,2.86,0,1,1,5.62,1c-1.32,7.23-5.52,10.56-12.87,10.3-.81,0-1.7-.11-2.64-.19-3.61-.31-7.71-.66-10.51,1.18a25.07,25.07,0,0,0-8.48,11.09c-.8,1.92-.71,5.65-.63,8.64,0,.86,0,1.68,0,2.43a2.87,2.87,0,0,1-2.85,2.86Z"/><path class="cls-10" d="M1284.42,145.3a2.86,2.86,0,0,1-1.83-5.06c1.77-1.47,2.45-3.06,2.35-3.42a5.72,5.72,0,0,0-1.64-1.17c-2.27-1.35-5.71-3.37-6.43-9.27a2.86,2.86,0,1,1,5.67-.7c.38,3.11,1.76,3.92,3.67,5a8.84,8.84,0,0,1,3.86,3.58c1.83,3.76-.92,7.91-3.83,10.33A2.85,2.85,0,0,1,1284.42,145.3Z"/><path class="cls-10" d="M1277.63,115a2.86,2.86,0,0,1-2.84-2.6c-.58-6.65-4-13.42-8.42-16.87a2.85,2.85,0,1,1,3.5-4.51c5.72,4.42,9.89,12.62,10.61,20.88a2.85,2.85,0,0,1-2.59,3.09Z"/><path class="cls-11" d="M1273.63,129c-.3-2.44-2-4.23-3.86-4s-3.06,2.39-2.75,4.83,2,4.23,3.87,4S1273.94,131.4,1273.63,129Z"/><path class="cls-10" d="M1263.59,121.6a2.86,2.86,0,0,1-1.67-5.17c3-2.17,6.63-4.37,11.77-3.13a2.86,2.86,0,1,1-1.35,5.55c-2.54-.61-4.38.26-7.08,2.2A2.81,2.81,0,0,1,1263.59,121.6Z"/><path class="cls-10" d="M1282.81,165.75h-.1c-12.09-.44-15.22-9.35-15.35-9.73a2.85,2.85,0,0,1,2.27-3.73c2.52-.39,9.69-1.64,12.6-2.71a2.86,2.86,0,0,1,2,5.36,65.6,65.6,0,0,1-9.25,2.22,12.14,12.14,0,0,0,8,2.88,2.86,2.86,0,0,1-.1,5.71Z"/><path class="cls-10" d="M1231.14,128.33a2.85,2.85,0,0,1-.23-5.7c10.59-.9,13.77-9.7,17.11-22l.34-1.27c2.39-8.72,8-8.92,10.33-8.61a2.86,2.86,0,0,1-.77,5.66c-.68-.1-2.73-.37-4.05,4.46l-.34,1.25c-2.85,10.53-6.75,24.94-22.14,26.24Z"/><path class="cls-10" d="M1283,98.8h-.17a2.85,2.85,0,0,1-2.68-3,12.54,12.54,0,0,0-3.86-10c-5.3-5.24-15.58-7.86-27.5-7a2.85,2.85,0,1,1-.41-5.69c13.72-1,25.37,2.16,31.93,8.62a18.28,18.28,0,0,1,5.54,14.45A2.85,2.85,0,0,1,1283,98.8Z"/><path class="cls-10" d="M1194.36,97.08a3,3,0,0,1-.77-.11,2.86,2.86,0,0,1-2-3.52c3.45-12.24,15-16.72,26.9-19.73a88.8,88.8,0,0,1,10.69-1.94c5.84-.77,8.29-1.21,10.57-4.46a2.85,2.85,0,1,1,4.67,3.28c-3.8,5.43-8.52,6.05-14.49,6.85a84.07,84.07,0,0,0-10,1.8c-11.87,3-20.29,6.83-22.8,15.74A2.86,2.86,0,0,1,1194.36,97.08Z"/><path class="cls-10" d="M1189.75,105.53a2.93,2.93,0,0,1-1.23-.27,6.09,6.09,0,0,0-3.14-.54,2.86,2.86,0,0,1-1.17-5.59,11.83,11.83,0,0,1,6.77,1,2.86,2.86,0,0,1-1.23,5.43Z"/><path class="cls-10" d="M1202.11,162.23s-4.26-5.31-7.54-9.63c-8.77-11.58-16.93-25.64-10.94-42.2a2.85,2.85,0,1,1,5.36,1.94c-5,14,2.29,26.45,10.14,36.81,3.23,4.26,7.43,9.5,7.44,9.51Z"/><path class="cls-10" d="M1205.09,176.57a2.86,2.86,0,0,1-2.41-4.38,42.2,42.2,0,0,0,4.12-7.78,2.86,2.86,0,1,1,5.42,1.81,45.38,45.38,0,0,1-4.71,9A2.86,2.86,0,0,1,1205.09,176.57Z"/><path class="cls-10" d="M1238,211.5a2.84,2.84,0,0,1-2.53-1.53c-1.71-3.27-5-5.93-12.35-11-11-7.68-17.24-15.07-21-24.74a2.86,2.86,0,0,1,5.33-2.07c3.33,8.53,9,15.15,19,22.13,7.15,5,11.67,8.38,14.13,13.08a2.85,2.85,0,0,1-2.53,4.17Z"/><path class="cls-10" d="M1215.3,220.45a4.45,4.45,0,0,1-2.89-1.06c-3.91-3.23-21.78-28-22.27-33.7-.4-4.71,2.22-6.76,4.53-8.58a30.09,30.09,0,0,0,2.47-2.08,21.6,21.6,0,0,0,2.31-2.66,11,11,0,0,1,6.84-4.72,2.85,2.85,0,0,1,1.46,5.52c-2.14.57-2.59,1.15-3.77,2.69a28,28,0,0,1-2.88,3.28,33.23,33.23,0,0,1-2.91,2.47c-2.21,1.74-2.49,2-2.36,3.59.62,3.71,15.26,24.91,19.71,29.33,1.4-1,4-4.34,5.58-6.45,3.52-4.61,6.57-8.6,10-9.15a2.86,2.86,0,1,1,.92,5.64c-1.29.35-4.46,4.5-6.35,7-4,5.26-6.64,8.5-9.82,8.87A4.89,4.89,0,0,1,1215.3,220.45Zm.75-5.46h0Z"/><path class="cls-10" d="M1257.51,216.78c-2.26,0-3.16-2.06-4.38-4.86-.81-1.85-3-6.76-4.54-7a2.86,2.86,0,0,1,.9-5.64c2.89.47,4.93,2.78,6.48,5.44,0-.3,0-.62-.06-.93-.3-4.24-1.3-7.06-3.49-13.25l-.59-1.66a2.85,2.85,0,0,1,5.38-1.9l.59,1.66c2.3,6.48,3.45,9.73,3.81,14.74a31.49,31.49,0,0,1-.82,10.64,3.37,3.37,0,0,1-3,2.77Z"/><path class="cls-10" d="M1242.26,212.74c-6,0-11.86-3.4-14.45-4.93a2.85,2.85,0,0,1,2.88-4.93c11.44,6.7,15.69,3.91,18.11.74a2.85,2.85,0,1,1,4.54,3.46A13.35,13.35,0,0,1,1242.26,212.74Z"/><path class="cls-10" d="M1240.58,231.32A10.3,10.3,0,0,1,1238,231a8.5,8.5,0,0,1-6.31-5.89c-.68-2.53-1.46-7.34-2.08-11.2-.34-2.13-.77-4.79-.92-5.32a2.89,2.89,0,0,1,1.9-3.56,2.82,2.82,0,0,1,3.54,1.83,58.71,58.71,0,0,1,1.12,6.14c.6,3.74,1.35,8.38,2,10.63a3,3,0,0,0,2.24,1.84,4.31,4.31,0,0,0,4.18-1.11c1.77-1.82,2.95-8.62,2.81-16.15a2.86,2.86,0,0,1,2.81-2.91,3,3,0,0,1,2.9,2.8c.09,4.63-.17,15.85-4.42,20.24A10,10,0,0,1,1240.58,231.32Z"/><path class="cls-10" d="M1232,218.76a2.92,2.92,0,0,1-.51,0c-2.07-.38-8.94-1.92-10.9-5.83a2.8,2.8,0,0,1,1.25-3.74,2.9,2.9,0,0,1,3.86,1.19c.48.86,3.79,2.2,6.82,2.76a2.85,2.85,0,0,1-.52,5.66Z"/><path class="cls-10" d="M1250.08,219.44a2.86,2.86,0,0,1-2-4.88,38.93,38.93,0,0,0,4.61-5.2,2.86,2.86,0,0,1,4.76,3.17,43.6,43.6,0,0,1-5.33,6.07A2.85,2.85,0,0,1,1250.08,219.44Z"/><path class="cls-10" d="M1112,363a3.22,3.22,0,0,1-1.7-.39,3.45,3.45,0,0,1-1.59-3.41c.68-5.88,4.83-17,9.92-24.1,6.35-8.89,16.92-14.66,26.25-19.76,2.86-1.56,5.65-3.08,8.23-4.64C1175,297.48,1195,281.82,1211,265.39c9.47-9.7,18.85-26,21.84-38a2.86,2.86,0,1,1,5.54,1.39c-3.25,13-13,30.07-23.29,40.58-16.35,16.77-36.77,32.74-59.07,46.21-2.66,1.6-5.52,3.17-8.45,4.77-9.22,5-18.76,10.23-24.35,18.06a61.83,61.83,0,0,0-8.31,18.43c7.79-2.89,28.89-15.11,43.11-24.17,18-11.5,44.22-32.17,59.08-50.38,16-19.59,23-35.88,23.6-54.49a2.85,2.85,0,1,1,5.7.17c-.59,20-8,37.29-24.87,57.93-15.35,18.8-41.41,39.46-60.44,51.58C1142.35,349.46,1119.45,363,1112,363Z"/><path class="cls-10" d="M1227.61,420.72a2.86,2.86,0,0,1-2.78-2.21c-1.7-7.32.48-13.66,2.4-19.25,1.27-3.69,2.37-6.88,2-9.47a51.34,51.34,0,0,0-1.74-7.4,44.48,44.48,0,0,1-2.14-10.74c-.49-12.34,1.81-24.64,4-36.54.88-4.67,1.79-9.5,2.49-14.2a603.61,603.61,0,0,0,7.16-77.62,2.78,2.78,0,0,1,3-2.75,2.84,2.84,0,0,1,2.75,3,608.17,608.17,0,0,1-7.21,78.27c-.72,4.8-1.64,9.68-2.52,14.4-2.17,11.59-4.42,23.57-4,35.26a39.68,39.68,0,0,0,1.91,9.39,55.25,55.25,0,0,1,1.92,8.23c.53,3.92-.83,7.88-2.28,12.07-1.75,5.11-3.56,10.39-2.24,16.11a2.85,2.85,0,0,1-2.13,3.43A2.94,2.94,0,0,1,1227.61,420.72Z"/><path class="cls-10" d="M958.25,536.66a3,3,0,0,1-1.15-.24c-21.83-9.6-42.77-19-48.15-22.65-7.72-5.26-7.59-8.85-4.77-13.29a15.59,15.59,0,0,0,1-1.67c3.52-7.33,8.43-18.67,11.37-25.44l1.84-4.24c4.76-10.87,9.2-18.94,13.19-23.95a16.94,16.94,0,0,1,19.64-5.43,2.86,2.86,0,1,1-2.14,5.3,11.12,11.12,0,0,0-13,3.68c-3.69,4.64-7.87,12.27-12.43,22.69l-1.83,4.22c-3,6.81-7.89,18.21-11.46,25.64a20,20,0,0,1-1.3,2.26c-1.23,1.94-1.49,2.34,3.16,5.51,5,3.41,26.7,13.11,47.24,22.14a2.85,2.85,0,0,1-1.15,5.47Z"/><path class="cls-10" d="M1033.07,567.61c-4.32,0-9.61-1.86-15.9-4.71-11.94-5.42-27.41-12.19-41.07-18.16a2.85,2.85,0,1,1,2.29-5.23c13.67,6,29.16,12.75,41.14,18.19,14.8,6.72,16.64,3.83,18,1.74,1.1-1.72,3.58-7.19,6.72-14.12,3.25-7.16,7.28-16.06,11.93-25.6,7.09-14.53,11.5-20.18,16.28-20.83,2.41-.32,4.64.64,6.63,2.89a2.86,2.86,0,0,1-4.28,3.79c-.44-.51-1-1.08-1.58-1-1.61.22-5,3.46-11.91,17.68-4.62,9.46-8.64,18.32-11.87,25.45-3.49,7.69-5.79,12.77-7.11,14.84A10.25,10.25,0,0,1,1033.07,567.61Z"/><path class="cls-12" d="M963.72,522.74c-2.25,1.78-5.28,10.69-4.47,13.76S971.42,545,974,543.12s8.48-10.33,7.6-12.94S966,521,963.72,522.74Z"/><path class="cls-10" d="M972.38,546.37a15.41,15.41,0,0,1-4.93-1c-.1,0-9.73-3.44-11-8.13-1.05-4,2.26-14.19,5.46-16.73h0c1.49-1.18,3.69-1.23,7.37-.15,2.18.65,13.57,4.78,15,8.91,1.61,4.76-6.35,14.47-8.59,16.14A5.3,5.3,0,0,1,972.38,546.37Zm-7.17-21.09c-1.54,1.94-3.67,8.72-3.2,10.5.93,1.62,8.29,5.12,10.46,4.89,2.09-1.76,5.82-7.43,6.28-9.52C976.61,529.15,967.92,525.39,965.21,525.28ZM979,531.46Zm-14.2-6.16Zm-1.12-2.56h0Z"/><path class="cls-10" d="M1540.33,678.43a6.22,6.22,0,0,1-2.51-.53c-5.61-2.47-12-10.77-18.22-18.79-2.74-3.54-5.32-6.89-7.62-9.44a2.86,2.86,0,0,1,4.25-3.82c2.44,2.71,5.08,6.14,7.88,9.76,5.5,7.12,11.73,15.17,16,17.06,1.31.56,6.79-3.65,10.8-6.74a169.08,169.08,0,0,1,19.66-13.55c8.56-4.92,23.89-16.85,34.73-28.33,8.62-9.13,12.2-16.28,12.13-17.92-1-3.93-8.71-3.71-13.64-2.57-5.14,1.19-10.87,3.55-16.94,6.05-8.85,3.64-18.89,7.77-30,9.53-7.72,1.22-13.57,1.3-17.85.26a2.86,2.86,0,1,1,1.35-5.55c3.48.85,8.74.73,15.61-.35,10.44-1.65,20.15-5.65,28.7-9.17,6.3-2.59,12.24-5,17.83-6.33,8.18-1.9,18.44-1.23,20.48,6.86,1.38,5.47-7.86,17.11-13.53,23.12-11.2,11.85-27.12,24.23-36,29.35a166.23,166.23,0,0,0-19,13.12C1548.23,675.21,1544,678.43,1540.33,678.43Z"/><path class="cls-10" d="M1544.55,684.23c-6,0-9.94-5.77-11.41-9.46a2.86,2.86,0,0,1,5.31-2.12c0,.06,2.76,6.5,6.78,5.81,3.73-.64,8.58-4.41,13.27-8.07,2.35-1.83,4.77-3.72,7.22-5.36,2.67-1.79,5-3.29,7.21-4.73,4-2.62,7.86-5.1,13-8.79,10.91-7.88,26-21.63,32.38-31,3.65-5.36,5.65-8.88,5.06-11-.47-1.68-3-3.53-7.63-5.66a2.85,2.85,0,1,1,2.36-5.19c6.56,3,9.78,5.77,10.77,9.32,1.32,4.7-1.59,9.48-5.83,15.72-7,10.26-22.61,24.35-33.77,32.41-5.23,3.78-9.11,6.29-13.21,9-2.21,1.43-4.5,2.91-7.14,4.68-2.27,1.53-4.62,3.36-6.89,5.13-5.49,4.27-10.67,8.31-15.83,9.19A10.26,10.26,0,0,1,1544.55,684.23Z"/><path class="cls-10" d="M1692.31,1254.82a2.85,2.85,0,0,1-.89-5.57c.83-.27,20.5-6.61,37-4.69a2.86,2.86,0,0,1,2.51,3.17,2.89,2.89,0,0,1-3.17,2.5c-15.26-1.8-34.41,4.39-34.6,4.45A2.7,2.7,0,0,1,1692.31,1254.82Z"/><path class="cls-10" d="M760,1421.75a2.85,2.85,0,0,1-2.71-2l-.48-1.42-1.52-3-.89-1.3a2.86,2.86,0,0,1,4.75-3.17l1.07,1.61L762,1416a2.43,2.43,0,0,1,.16.37l.54,1.61a2.88,2.88,0,0,1-1.81,3.62A3.13,3.13,0,0,1,760,1421.75Z"/><path class="cls-10" d="M916.7,1299.89a2.73,2.73,0,0,1-1-.19A2.84,2.84,0,0,1,914,1296c.57-1.53.91-2.4,1.14-3a11.75,11.75,0,0,0,.62-2l.29-1.16a2.86,2.86,0,1,1,5.54,1.39l-.28,1.13a14.59,14.59,0,0,1-.86,2.74c-.22.55-.55,1.39-1.11,2.87A2.85,2.85,0,0,1,916.7,1299.89Z"/><path class="cls-10" d="M999.91,1375.58a2.89,2.89,0,0,1-.91-.15,2.85,2.85,0,0,1-1.8-3.61l.3-.92a5.73,5.73,0,0,1,1-2l.65-.95a2.85,2.85,0,0,1,4.75,3.16l-.95,1.53-.32,1A2.86,2.86,0,0,1,999.91,1375.58Z"/><path class="cls-10" d="M1062.72,1315.46a2.87,2.87,0,0,1-2.77-3.55c.41-1.64.57-2.46.67-3a7.28,7.28,0,0,1,.9-2.51l.25-.49a2.86,2.86,0,0,1,5.11,2.55l-.26.51c-.17.34-.27.52-.33.68l-.07.37c-.11.54-.29,1.43-.73,3.22A2.87,2.87,0,0,1,1062.72,1315.46Z"/><path class="cls-10" d="M1072.38,1183.94a2.86,2.86,0,0,1-2.68-1.86,50.88,50.88,0,0,0-2.55-6c-.82-1.61-.85-2.12-.85-4.26v-.43a2.86,2.86,0,1,1,5.71,0v.44a11.44,11.44,0,0,0,0,1.29,2.35,2.35,0,0,1,.21.36,57.43,57.43,0,0,1,2.81,6.57,2.85,2.85,0,0,1-1.67,3.67A2.73,2.73,0,0,1,1072.38,1183.94Z"/><path class="cls-10" d="M1200.68,1069.59a2.86,2.86,0,0,1-2.86-2.85v-1.08a2.67,2.67,0,0,1,.06-.56l1.1-5a2.39,2.39,0,0,1,.22-.58l1.07-2.15a2.86,2.86,0,0,1,5.11,2.55l-.93,1.87-.91,4.11v.8A2.86,2.86,0,0,1,1200.68,1069.59Z"/><path class="cls-10" d="M1816.48,1350.54a2.84,2.84,0,0,1-2.65-1.8c-.62-1.55-1-2.45-1.32-3.06a7,7,0,0,1-.81-4.11V1340a2.86,2.86,0,1,1,5.71,0v1.61a8.17,8.17,0,0,0,0,1c0,.13.15.32.29.64.31.66.76,1.64,1.43,3.32a2.87,2.87,0,0,1-2.65,3.92Z"/><path class="cls-10" d="M1992.37,1134.5a2.62,2.62,0,0,1-.62-.07,2.86,2.86,0,0,1-2.17-3.41c.75-3.39,1.22-5.12,1.51-6.18a8.42,8.42,0,0,0,.34-3.28v-1.39a2.86,2.86,0,0,1,5.71,0v1.37a12.78,12.78,0,0,1-.54,4.78c-.27,1-.72,2.69-1.45,5.94A2.85,2.85,0,0,1,1992.37,1134.5Z"/><path class="cls-10" d="M1718,1045.6a2.86,2.86,0,0,1-2.56-1.58c-1-2-1.58-3.1-2-3.83a16.1,16.1,0,0,1-1.51-3.62l-.51-1.53a2.86,2.86,0,1,1,5.42-1.81l.52,1.56a11.49,11.49,0,0,0,1.13,2.74c.39.75,1,1.9,2,3.93a2.86,2.86,0,0,1-2.55,4.14Z"/><path class="cls-10" d="M1751.47,1006.4a2.84,2.84,0,0,1-2.67-1.85c-1.13-3-1.8-4.41-2.19-5.24a7.59,7.59,0,0,1-.86-4.47V994a2.86,2.86,0,1,1,5.71,0v.88a10.63,10.63,0,0,0,0,1.37c0,.15.15.33.28.62.44.91,1.16,2.43,2.38,5.68a2.85,2.85,0,0,1-1.67,3.68A2.89,2.89,0,0,1,1751.47,1006.4Z"/><path class="cls-10" d="M1753.39,813.31a2.76,2.76,0,0,1-.57-.06,2.85,2.85,0,0,1-2.24-3.36c.83-4.12,1.31-6,1.58-7.07a7.92,7.92,0,0,0,.28-3V799a2.86,2.86,0,0,1,5.71,0v.82a12.63,12.63,0,0,1-.45,4.44c-.27,1-.73,2.82-1.52,6.77A2.85,2.85,0,0,1,1753.39,813.31Z"/><path class="cls-10" d="M1960.82,976.77a2.74,2.74,0,0,1-.56-.06,2.85,2.85,0,0,1-2.24-3.35l.59-3c.33-1.71.33-1.71.77-3.43l.58-2.31a2.86,2.86,0,1,1,5.54,1.39l-.58,2.32c-.4,1.57-.4,1.57-.7,3.13l-.6,3A2.85,2.85,0,0,1,1960.82,976.77Z"/><path class="cls-10" d="M1911.12,781.76a2.83,2.83,0,0,1-2.45-1.39l-1.91-3.2c-.77-1.29-.77-1.29-1.74-2.74l-1.06-1.59a2.86,2.86,0,0,1,4.75-3.17l1,1.58c1.07,1.6,1.07,1.6,1.91,3l1.89,3.18a2.83,2.83,0,0,1-1,3.91A2.76,2.76,0,0,1,1911.12,781.76Z"/><path class="cls-10" d="M2019.13,622.12a2.84,2.84,0,0,1-2.65-3.91c.75-1.89,1.23-2.88,1.53-3.5.09-.2.17-.34.21-.46a3.71,3.71,0,0,1,0-.69v-1a2.86,2.86,0,0,1,5.71,0v.94a6.21,6.21,0,0,1-.75,3.68c-.26.56-.69,1.44-1.37,3.14A2.85,2.85,0,0,1,2019.13,622.12Z"/><path class="cls-10" d="M2093.69,581a2.87,2.87,0,0,1-2.71-3.76l2.87-8.6a2.86,2.86,0,0,1,5.42,1.8l-2.87,8.6A2.86,2.86,0,0,1,2093.69,581Z"/><path class="cls-10" d="M2111.86,790.37a2.85,2.85,0,0,1-2.71-2l-3.83-11.47a2.86,2.86,0,1,1,5.42-1.81l3.83,11.48a2.87,2.87,0,0,1-2.71,3.76Z"/><path class="cls-10" d="M2063.11,1292.23a2.82,2.82,0,0,1-1.06-.21,2.85,2.85,0,0,1-1.6-3.71l1.3-3.2c.5-1.23.5-1.23,1-2.7l.52-1.59a2.86,2.86,0,1,1,5.42,1.81l-.52,1.57a31.89,31.89,0,0,1-1.12,3.07l-1.28,3.16A2.86,2.86,0,0,1,2063.11,1292.23Z"/><path class="cls-10" d="M1841.33,1264.5a2.86,2.86,0,0,1-2.86-2.85v-1.91a2.84,2.84,0,0,1,.31-1.28l.65-1.31V1255a2.8,2.8,0,0,1,.3-1.28l1-1.91a2.86,2.86,0,0,1,5.11,2.55l-.66,1.31v2.19a2.86,2.86,0,0,1-.3,1.28l-.65,1.31v1.24A2.86,2.86,0,0,1,1841.33,1264.5Z"/><path class="cls-10" d="M2087,975.81a2.79,2.79,0,0,1-.7-.08,2.86,2.86,0,0,1-2.08-3.46l.6-2.42a20.75,20.75,0,0,1,.81-2.79l.56-1.69a2.86,2.86,0,0,1,5.42,1.8l-.57,1.71a16.57,16.57,0,0,0-.67,2.31l-.61,2.46A2.84,2.84,0,0,1,2087,975.81Z"/><path class="cls-10" d="M1769.63,959.56a2.92,2.92,0,0,1-1.27-.3l-1-.48a4.67,4.67,0,0,1-3-3.11,26.61,26.61,0,0,0-1.1-2.47,2.86,2.86,0,0,1,5.11-2.55c.71,1.43,1.06,2.32,1.29,2.9l.17.07,1.08.53a2.86,2.86,0,0,1-1.28,5.41Z"/><path class="cls-10" d="M2187.07,1109.17a2.76,2.76,0,0,1-.57-.06,2.85,2.85,0,0,1-2.24-3.36c.75-3.76,1.23-5.78,1.53-7.06a12.28,12.28,0,0,0,.43-4.36v-2a2.86,2.86,0,0,1,5.71,0v2a17,17,0,0,1-.58,5.71c-.29,1.24-.76,3.2-1.49,6.86A2.85,2.85,0,0,1,2187.07,1109.17Z"/></g></svg>