<svg id="Layer_1" data-name="Layer 1" xmlns="http://www.w3.org/2000/svg" viewBox="0 0 2742 1523"><defs><style>.cls-1{fill:#ffbfae;}.cls-1,.cls-10,.cls-11,.cls-12,.cls-13,.cls-14,.cls-15,.cls-2,.cls-3,.cls-4,.cls-5,.cls-6,.cls-7,.cls-8,.cls-9{fill-rule:evenodd;}.cls-2{fill:#b57f5e;}.cls-3{fill:#df654d;}.cls-4{fill:#ffb953;}.cls-5{fill:#42bbda;}.cls-6{fill:#ffddc0;}.cls-7{fill:#e2b27f;}.cls-8{fill:#83c676;}.cls-9{fill:#fff1de;}.cls-10{fill:#b7b3ff;}.cls-11{fill:#ff87bd;}.cls-12{fill:#00b0b0;}.cls-13{fill:#fff;}.cls-14{fill:#ff7d47;}</style></defs><g id="Ñëîé_3" data-name="Ñëîé 3"><path class="cls-1" d="M0,0H2742V1523H0Z"/></g><g id="Ñëîé_2" data-name="Ñëîé 2"><path class="cls-2" d="M642.31,572.92C649.4,564,661,553.86,670.49,547.7c6.33-4.12,20.67-6.06,20.67-6.06s3.65-13.32,24.19-20c17.85-5.78,51.08-6.14,73,7C821.27,548.37,845,569.06,862.15,603c7.39,14.61,9.82,29.71,17.41,51.47,3.39,9.7-15.95,43.09-13.26,52.06s9.5,20.35,11.09,27.94c8.55,40.77-23.56,34.13-30.95,52.35-3.86,9.53,5.93,24.61,5.93,24.61l-17.65-4.06-166.34,4.78-9-8.29s-16.88,1-26.83-9.84-12.95-33.41-12.95-33.41a78,78,0,0,0-3.92,17.64A88.26,88.26,0,0,0,616.4,797s-20.66-15.12-19.2-37.92c1.42-22.31,24.95-42.41,24.45-65.32-.48-22.14-12.38-44.76-4.73-70.86C621.64,606.79,632.61,585.16,642.31,572.92Z"/><path class="cls-3" d="M1833.19,660.2s29.49,17,67.37,41c7.1,4.49,18.64,13.85,26.19,18.39,14.3,8.59,25.78,21.61,41.88,29.68,6.28,3.15,17.26-.62,17.26-.62L2120,807.69s27.13,9.28,59.19,22.62c27.48,11.43,58.15,24.07,83.25,56.41,17.41,22.43,32.13,66.76,48.58,106.57,26.1,63.15,50.79,124.55,53.72,142.17,1.54,9.24.54,23.43-3.64,31.49-10.05,19.44-35.39,27.33-65.09,18.65-55.92-16.33-127.08-84-127.08-84l-9.9,85.58s9.19,50.69,11.88,83.47,7.4,86.65,7.4,86.65-92.28,16.91-181.24,16.91-178.59-17.44-178.59-17.44-13.65-135.86-17.77-234.75-5.4-223.65-5.4-223.65L1646.64,512.57l16.84-166.83s5.27-12.85,36.59-10.36c27.94,2.23,36.39,16.46,36.39,16.46s-2.85,25.27-2.58,66.57,3.7,98.63,3.7,98.63Z"/><path class="cls-4" d="M650,816l177.27-1.93s15.67,3.16,34.3,5.78C883.82,823,911,827.22,929.71,850c18.45,22.48,29.17,64.79,39.42,97.39C982,988.21,992,1017.61,992,1017.61s24.49-42.07,41.69-76.63,27.11-61.62,27.11-61.62,9.13-8,25.14-.43c30.88,14.55,35.94,36.24,35.94,36.24s-14.38,36.13-28.07,77.73c-21,63.67-47.88,145.7-78.53,174.31-26.94,25.16-52.09,2.82-70-20.83C929.44,1125.56,920,1101.9,920,1101.9l8.34,281.53s-98.55-.61-181.81-6.93-151.22-18.35-151.22-18.35,7.67-66.78,14.59-109.81c4-25.07,12.47-59.95,11.81-89.48-.53-24.11-12.83-46.24-22.93-76.2-13.58-40.32-25.89-86-25.89-86s-30.75,21.14-64,43.59c-48.31,32.63-106.79,69.66-124.56,62.26-8.53-3.56-35.89-21.7-32.68-84,2.69-52.14,34.53-145.84,42.62-185.63,3.74-18.45,7-38.08,11.59-45.62,4.5-7.36,54.05-5.93,65.79,15.08,4.29,7.69-5.09,24.81-9.37,52.29-6.18,39.75-9.37,92-9.37,92s23.95-26.35,53.75-57.76c12.23-12.88,23-32.95,37.33-42.45,24.83-16.46,48.34-22,68.75-25.51C632.79,817.51,650,816,650,816Z"/><path class="cls-5" d="M1082.38,466.28l22.79-11.62L1311,455l29,12.55s4.93,76.57,12.9,175.66c3.86,48.16,10,143.09,10,143.09l9.64,44s-7.36-.07-18.44.21c-28,.7-83.83,5.23-144.13,3.36-52.72-1.64-99-4.3-132.4-6.92-19.95-1.56-24.72-1.25-24.72-1.25l9.42-48.4s3.83-105.59,10.63-178.46C1081.15,510.76,1082.38,466.28,1082.38,466.28Z"/><path class="cls-6" d="M414.52,781.88s4.17-24.28,13.57-40.29c11.81-20.13,30.38-35.09,42.23-61.59,5.89-13.16,8.62-28.82,10.25-40.87,1.43-10.51,1.66-18.41,7-17.69,14.4,1.95,14.19,19.56,9.75,36.63-2.34,9,.17,21.06.17,21.06s23.76-12,30.42-9.37c18.19,7,37.86,43.59,37.86,43.59L563.09,725l-6.74,20.88-5.42,7s-5.82,12-13.61,13.59-17.58-7.12-17.58-7.12l-46.1,16.86L467.49,797s-12.39-10.41-25.9-13.6A86.41,86.41,0,0,0,414.52,781.88Z"/><path class="cls-6" d="M690,603.32c15.65-15.74,50.78-21.52,68.35-21.13,8.37.19,8.28,14.13,29.89,32.64,7.87,6.74,34.58,26.9,34.58,26.9l-8.35,50s.05,19.87-6,36-18.22,28.37-18.22,28.37,2.11,35.34,6,46.63c2.22,6.44,30.34,12.47,30.34,12.47a104.37,104.37,0,0,1-18,23.66c-12.08,11.66-29.54,21.51-52.31,21.68-21.67.17-49.52-8.25-70.32-19.11a167.54,167.54,0,0,1-35.6-24.88s33.48,1.7,36.15-41.46c.59-9.64-.86-29-1.92-41.43-.66-7.77-12.76-34.21-12.76-34.21s-21.53-7.85-20.73-21.35c.74-12.26,17-18.05,25.12-32.23S684.11,609.21,690,603.32Z"/><path class="cls-6" d="M1117,824.68c18.4-5.77,84.74,9.55,84.74,9.55s24.73-21.49,33.94-23.36c4.06-.83,7.24,2.73,5.29,7.19-3.46,7.87-15.7,19.24-15.7,19.24l18.27-7.76s18.48-13.17,25.38-13.39c11.09-.34,2.27,13,2.27,13l36.27,2.72s-.26,9-18.58,10.06c-14.46.85-37.52,4.26-37.52,4.26s-9.78,7.26-21.93,9.46c-27.21,4.94-73.17,8.49-96.57,18.34-9.72,4.09-17.7,27.3-17.7,27.3s-8.51-10.16-19.3-16.9S1072,874.3,1072,874.3,1088.69,833.55,1117,824.68Z"/><path class="cls-6" d="M1674.79,234.16s5.1-3.85,9.21-7.64,13.71.5,16.68-2.1c7.83-6.85,10.66-10.92,23.36-6.34,4.53,1.64,13-6.25,16.6-4.13,10.73,6.34,16.13,44,16.13,44l-3.86,20.12.9,18.57-21.33,3.28s-1.54,9.73-2.86,20.49-2.39,22.53-2.39,22.53-13.38-7.06-27.22-8.27-28.14,3.45-28.14,3.45l-.74-21.7-4.74-26.13,4.18-12.09s-11.17-21.63-10.13-32.64S1674.79,234.16,1674.79,234.16Z"/><path class="cls-6" d="M1934.47,814.06c9.41-6.64,32.23,6.72,52.56,16.65,22.31,10.9,62.09,57.92,92.93,92.06a469.3,469.3,0,0,0,37.25,36.59A119.92,119.92,0,0,0,2098,983.27c-8.18,13.76-13.54,31.14-13.54,31.14a143.19,143.19,0,0,0-27.3-21.44c-16.33-9.85-38-18-38-18l-13.63-8.41s-41.94-5.6-53.47-7.45c-12.63-2-2.93-19.85-2.93-19.85s-6.24-12.21-5.42-19.63,8.72-10,8.72-10-3.75-19.73,5-22.44c14-4.32,48.28-2.25,48.28-2.25s-8.83-17-18-24.31c-15.7-12.58-40-25.07-50.54-34.7C1932.08,821.18,1931.79,816,1934.47,814.06Z"/><path class="cls-7" d="M1977.82,519.57c9.4-9.39,23.19-18.43,38.69-22.29,7.82-1.95,15.46,2.15,24.45-1.4,9.77-3.87,19.58-10.39,27.92-10.82,24.24-1.25,42.2,14.12,59,21.55,16.44,7.24,35.22,8,35.22,8l-10.66,8.53s25.44,25.45,26.38,59.31-22.61,76.11-22.61,76.11L1992.44,644s-22.12-24.15-30.53-55.37C1956.57,568.8,1958.85,538.55,1977.82,519.57Z"/><path class="cls-6" d="M1978.64,580.3s5.27-2.74,12.13-10.25c7.15-7.83,5.63-20.68,29.19-21.68,12.47-.53,29.53-.74,44.19,3.81,10.53,3.27,18.38,8.65,25.69,12.61,8.42,4.57,15.54,7.53,15.54,7.53s5.71,4.9,8.4,16.07c3.53,14.72,5.08,38,13.57,51.86,10.91,17.87,30.7,15.69,31.93,27.88,2.9,28.85-34.58,31.1-34.58,31.1s-17.33,48.13-18.52,74.88,13.18,29.74,13.18,29.74a20.66,20.66,0,0,1-6.76,7.49c-13.65,9-39.65,25.52-64.9,22.84-14.31-1.5-35.45-16.25-46.79-33.66-15.43-23.7-23-50.89-23-50.89s5.22-.39,8.13-7.46,3.48-20.81,3.48-20.81a224.17,224.17,0,0,1-10.27-26.29,106.52,106.52,0,0,1-4.12-22.15s-11.91-6.39-13.64-24.75c-2-21.16,13.82-16.78,13.82-16.78l-.15-34.89Z"/><path class="cls-5" d="M1527.83,531.87l11.61-3.81-12.89,313L1523,855.86l-38.66-8.2,11.32-72.24,21.63-136.27Z"/><path class="cls-8" d="M1543,515.6l24-14.54,33.24,6.72s74.23,4.63,120.53,3.16c51.25-1.63,43.7-3.1,43.7-3.1l14.34,9.78L1589.09,529s-10.31,14.67-27.88,101.06C1548.22,694,1531,825.58,1531,825.58l-4.57,17.93s-15-4.73-29.38-9.07c-12.9-3.89-25.27-8-25.27-8L1490,787.33Z"/><path class="cls-9" d="M1580.59,523.35l7.86-14.52s51.11,5.94,99,8.52c40.56,2.18,106.83,2.35,106.83,2.35L1807,531.07l20.08,7.1L1834,842.86l8.19,51.37s-2.52-1-20.74,1.29c-21.77,2.77-48,7-95.43,7.49-54.75.55-104.55-5.09-149.32-12.72-32.14-5.49-53.89-7-53.89-7l7.73-57.15,28-294.91Z"/><path class="cls-10" d="M925.67,1256.06l20-11.64,7.69-18.81s53.3-5.67,102.8-13.74,95.2-18.54,95.2-18.54l6.63,4.58-146.74,182.9-68.67,1.67Z"/><path class="cls-11" d="M997,1275.55l3.38-17.52s36.85-11.58,84.06-30.72,104.79-45.86,104.79-45.86l16.59,6.74,21.78-1.37,80.16,169.24s-79.51,10.36-153.93,16.44-143.76,7.84-143.76,7.84l-31-90.64Z"/><path class="cls-12" d="M907.61,1243l19.49-18.06,28.87-1.5-11,20.28-19.42,12.53,16.27,127H913.55Z"/><path class="cls-13" d="M896.2,1262l10.7-8.08,6.65,129.27-8.55.71Z"/><path class="cls-14" d="M1073,1201.43c24.3-7.2,49.38-13.51,49.38-13.51l18.38,8.64-128.89,23S1048.72,1208.62,1073,1201.43Z"/><path d="M393.7,1105.79a41.5,41.5,0,0,1-10.34-1.25c-10.51-2.72-18.55-9.78-23.89-21-16.15-33.86-10.05-92,1-135.13,10.09-39.25,18.34-69.31,25-93.46,7-25.66,12.61-45.92,17.37-66.07.75-3.19,3.16-7.43,10.4-9.52,15.19-4.38,43.9,3.43,55.86,15.19,6.3,6.19,6.45,11.81,5.47,15.43-2.32,8.53-11.9,54.65-16.24,94.46-3.33,30.5-3.75,50.25-4.12,67.68-.41,19.64-.77,36.61-5,63.16a2.86,2.86,0,1,1-5.64-.9c4.17-26.17,4.52-43,4.93-62.38.38-17.55.8-37.43,4.15-68.18,4.38-40.11,14.07-86.7,16.4-95.33.85-3.13-.48-6.45-4-9.87-10.59-10.42-36.9-17.62-50.27-13.77-3.68,1.06-5.84,2.86-6.42,5.34-4.78,20.25-10.36,40.56-17.42,66.27-6.62,24.13-14.87,54.17-24.95,93.37-10.84,42.16-16.9,98.77-1.42,131.25,4.59,9.61,11.37,15.64,20.17,17.91,16.94,4.38,42.19-5,73-27,48.54-34.67,103-73.27,134.15-92.38a2.86,2.86,0,0,1,3,4.88c-31,19-85.35,57.53-133.81,92.15C434,1096,411.41,1105.79,393.7,1105.79Z"/><path d="M453.32,948.59a2.86,2.86,0,0,1-2.08-4.82c20.23-21.4,57.67-61.3,81.28-88,25.88-29.22,58.58-34,90.21-38.64,15.58-2.28,31.7-4.64,46.78-9.92,19.29-6.75,13.76-58.14,10-77.38a2.85,2.85,0,0,1,5.6-1.1c.59,3,14.15,74.12-13.72,83.87-15.6,5.46-32,7.86-47.85,10.18-32,4.69-62.26,9.12-86.75,36.78-23.66,26.72-61.16,66.66-81.41,88.09A2.81,2.81,0,0,1,453.32,948.59Z"/><path d="M596.89,949.85h-.15a2.87,2.87,0,0,1-2.7-3c0-.5,2.37-50.47-20.16-88.21a2.85,2.85,0,0,1,4.9-2.93c23.45,39.26,21.07,89.33,21,91.45A2.85,2.85,0,0,1,596.89,949.85Z"/><path d="M594.88,1361.77h-.27a2.85,2.85,0,0,1-2.58-3.1c3.39-37.08,9.42-73.81,14.74-106.22,7.3-44.43,13.6-82.8,9.66-102.64-3-14.88-9.23-33.32-16.5-54.67-9.84-28.88-21-61.61-28.71-98.71a2.85,2.85,0,1,1,5.59-1.16c7.66,36.75,18.74,69.3,28.52,98,7.34,21.54,13.67,40.15,16.7,55.4,4.14,20.86-1.93,57.85-9.62,104.67-5.31,32.31-11.32,68.94-14.69,105.82A2.86,2.86,0,0,1,594.88,1361.77Z"/><path d="M922.84,1231.15a2.86,2.86,0,0,1-2.85-2.75c-2.11-53.42-2.9-107.38-3.16-125.11-.17-11.54,2.88-24.13,6.1-37.46,3.14-13,6.39-26.41,6.39-38.69,0-14.93-3.33-26.82-7.18-40.59-2.48-8.86-5-18-7-29.06-2.42-13.33,1-46.38,1.16-47.78a2.86,2.86,0,0,1,5.68.59c0,.34-3.5,33.64-1.22,46.17,2,10.79,4.49,19.81,6.93,28.54,3.8,13.58,7.39,26.42,7.39,42.13,0,13-3.33,26.72-6.55,40-3.13,13-6.1,25.22-5.94,36,.26,17.71,1.05,71.61,3.16,125a2.85,2.85,0,0,1-2.74,3Z"/><path d="M414.89,783.71a3.07,3.07,0,0,1-.79-.11,2.86,2.86,0,0,1-2-3.53c.35-1.25,8.73-30.58,14.73-41.39,4.18-7.51,13.28-19.32,21.31-29.75,3.59-4.67,7-9.08,9.66-12.73,7-9.6,9.8-18.08,13.31-28.82.66-2,1.33-4.09,2.07-6.26,5-14.78,5.62-23.79,6-29.75.44-6.33.75-10.91,8.28-12.12a8.68,8.68,0,0,1,6.48,1.8c3.78,2.77,6.44,8.15,7.47,15.16,1,6.85.18,12.73-.71,19-.95,6.71-1.93,13.65-.8,22.82a2.86,2.86,0,1,1-5.67.69c-1.22-9.92-.14-17.57.82-24.31.86-6.07,1.6-11.31.71-17.33-1.13-7.68-4-10.53-5.19-11.4a3.18,3.18,0,0,0-2.2-.76c-3,.48-3.05.49-3.49,6.87-.4,5.88-1.08,15.71-6.32,31.2-.73,2.14-1.4,4.2-2.05,6.19-3.53,10.78-6.57,20.09-14.12,30.42-2.7,3.68-6.13,8.14-9.76,12.85-7.91,10.26-16.87,21.89-20.84,29-5.68,10.23-14.14,39.87-14.23,40.17A2.86,2.86,0,0,1,414.89,783.71Z"/><path d="M562.34,726.53a2.86,2.86,0,0,1-2.16-4.72c.17-.2,4.36-5.3.83-11.18-8.15-13.58-29.28-39.75-35.7-38.43-14,2.84-30.92,11.34-40,15.91l-2.09,1a2.86,2.86,0,0,1-2.55-5.11l2.07-1c9.31-4.69,26.64-13.42,41.43-16.41,13.88-2.71,41.46,40.65,41.73,41.09a15.52,15.52,0,0,1-1.41,17.86A2.84,2.84,0,0,1,562.34,726.53Z"/><path d="M557.65,743.28a2.85,2.85,0,0,1-1.9-5c.2-.19,5.33-5,3.39-12.08-1.64-6-19.87-25.82-31-36.93a2.85,2.85,0,0,1,4-4c3,3,29.86,30.06,32.44,39.45,2.89,10.51-4.76,17.54-5.09,17.83A2.78,2.78,0,0,1,557.65,743.28Z"/><path d="M550.1,755.07a2.86,2.86,0,0,1-1.28-5.41c.29-.15,7.2-3.75,5.41-10.27-1.84-6.69-17.94-22.91-24-28.6a2.85,2.85,0,0,1,3.91-4.16c2.35,2.21,23,21.81,25.59,31.25,2.43,8.86-4.41,14.92-8.37,16.89A2.92,2.92,0,0,1,550.1,755.07Z"/><path d="M535.46,769.08c-7.89,0-16.43-6.17-17.44-6.92a2.86,2.86,0,1,1,3.41-4.58c2.46,1.82,9.93,6.39,15.08,5.73,2.73-.36,6.78-3.23,9.23-6.55,1.41-1.92,1.6-3.06,1.56-3.32-1.82-6.6-11.47-16-15-19a2.86,2.86,0,0,1,3.7-4.35c.58.49,14.18,12.17,16.84,21.84.58,2.1-.09,4.66-1.92,7.41-2.83,4.27-8.43,8.94-13.64,9.62A15.22,15.22,0,0,1,535.46,769.08Z"/><path d="M467.86,799.83a2.45,2.45,0,0,1-.46,0,2.85,2.85,0,0,1-2.36-3.28c1-6.39,4.06-21.54,9.88-24,5.13-2.17,11.14-4.19,17.5-6.32,12.2-4.08,26-8.71,41.31-16.71a2.85,2.85,0,1,1,2.64,5.06c-15.68,8.21-30.35,13.12-42.13,17.07-6.53,2.18-12.16,4.07-17.09,6.16-1.87,1-5,10.33-6.48,19.68A2.84,2.84,0,0,1,467.86,799.83Z"/><path d="M537.47,758.75a2.83,2.83,0,0,1-.9-.15l-4.47-1.48a2.86,2.86,0,1,1,1.8-5.42l4.47,1.48a2.86,2.86,0,0,1-.9,5.57Z"/><path d="M991.17,1021.4a2.86,2.86,0,0,1-2.68-1.87c-7.17-19.66-14.3-42.85-21.2-65.27C954.9,914,942.08,872.32,930.19,856c-17.61-24.19-49-29.56-82.15-35.24-16.51-2.83-33.58-5.75-49.09-11.18C786.24,805.12,786.79,765,787,757a2.81,2.81,0,0,1,2.94-2.77,2.86,2.86,0,0,1,2.77,2.94c-.63,21,2.29,44.94,8.09,47,15.07,5.27,31.9,8.16,48.17,10.94,32.86,5.63,66.83,11.44,85.81,37.51,12.45,17.11,24.83,57.35,37.94,100,6.88,22.35,14,45.46,21.1,65a2.85,2.85,0,0,1-1.7,3.66A2.77,2.77,0,0,1,991.17,1021.4Z"/><path d="M991.66,1179.73a37.6,37.6,0,0,1-12.42-2.2c-23.07-8.1-46.06-37.4-61.51-78.4a2.86,2.86,0,0,1,5.35-2c14.86,39.44,36.56,67.49,58,75,8.78,3.08,17,2.43,24.31-1.93,32.43-19.25,52.6-80.5,63.43-113.4,28.9-87.79,34.68-103.23,48.66-140.54l.23-.63c1.3-3.46-.59-8.47-5.33-14.09C1101.07,888.06,1077.72,876,1067,878c-2.67.5-4.26,1.78-5,4-2.87,8.5-20.78,52.64-39.43,88.33-14.32,27.42-25,44.17-34.49,59-10.47,16.37-19.52,30.51-30.62,54.57a2.85,2.85,0,1,1-5.18-2.39c11.26-24.42,20.4-38.71,31-55.26,9.39-14.69,20-31.33,34.24-58.53,18.51-35.42,36.24-79.11,39.08-87.51,1.42-4.22,4.66-6.91,9.36-7.8,14.08-2.65,39.34,11.78,50.9,25.51,6.21,7.38,8.39,14.22,6.31,19.77l-.24.63c-13.94,37.23-19.72,52.64-48.58,140.33-16.44,50-35.81,98.64-65.94,116.52A32.33,32.33,0,0,1,991.66,1179.73Z"/><path d="M1072.85,877a2.86,2.86,0,0,1-2.61-4c.48-1,11.77-26,28.14-43.16,6.54-6.86,20.79-9,46.22-7,14.66,1.18,42.16,6,56.06,8.73,2-.21,9.8-6.85,14.48-10.81s8.84-7.5,12.11-9.53c5.24-3.23,10.83-3.73,14.24-1.28,2.4,1.73,3.33,4.63,2.56,7.94-1.08,4.62-8.8,13.51-28.47,32.82-8.93,8.76-19,6.42-28.79,4.17a66,66,0,0,0-12.24-2,2.86,2.86,0,0,1-2.76-3,3,3,0,0,1,3-2.76,69.73,69.73,0,0,1,13.33,2.18c9,2.08,16.81,3.88,23.5-2.69,7.06-6.92,25.8-25.32,26.91-30,.35-1.51-.16-1.88-.33-2-1.05-.76-4.2-.79-7.91,1.5-2.9,1.8-7.23,5.47-11.42,9-10.56,9-15.57,12.8-19.28,12.06-13.77-2.72-41-7.48-55.41-8.63-22.9-1.83-36.52-.11-41.63,5.24-15.67,16.46-26.94,41.32-27.06,41.57A2.85,2.85,0,0,1,1072.85,877Z"/><path d="M1116.31,903.24a2.89,2.89,0,0,1-.91-.15,2.85,2.85,0,0,1-1.8-3.61c.8-2.38,8-23.37,17.4-28.07,11-5.52,20.71-6.94,61.75-12.93,6.91-1,12.73-1.75,17.78-2.38,13.89-1.76,21.54-2.73,30.13-6.53,11.9-5.28,30.75-25.05,31.69-28.78.35-1.51-.16-1.88-.33-2-1-.77-4.19-.79-7.9,1.5l-3.87,2.42c-24.32,15.27-33.34,19.94-37.15,19.17a2.85,2.85,0,1,1,1.11-5.6c3.81-.08,25.78-13.88,33-18.41l3.9-2.44c5.23-3.23,10.82-3.74,14.24-1.28,2.4,1.73,3.33,4.63,2.55,8-1.55,6.61-22.69,27.26-34.94,32.69-9.36,4.14-17.78,5.21-31.73,7-5,.64-10.8,1.37-17.67,2.37-42,6.13-50.18,7.43-60,12.38-5.47,2.75-11.82,16.66-14.54,24.78A2.86,2.86,0,0,1,1116.31,903.24Z"/><path d="M1250.62,850.41a2.86,2.86,0,0,1-.65-5.64c9.09-2.14,18.45-3.13,26.71-4,13-1.38,25.29-2.69,26.43-8a2.86,2.86,0,1,1,5.59,1.19c-2,9.39-15,10.77-31.41,12.52-8.1.86-17.27,1.83-26,3.89A3,3,0,0,1,1250.62,850.41Z"/><path class="cls-13" d="M721.24,712.66a156,156,0,0,0,28.7,2.07,111.48,111.48,0,0,0,27.61-4.1S774.3,739.12,753.94,741C729.64,743.14,721.24,712.66,721.24,712.66Z"/><path d="M751.47,743.92c-24.29,0-32.9-30.18-33-30.5a2.88,2.88,0,0,1,.65-2.69,2.84,2.84,0,0,1,2.62-.87,155,155,0,0,0,28.12,2,109.61,109.61,0,0,0,26.83-4,2.86,2.86,0,0,1,3.69,3.06c-.15,1.25-3.77,30.82-26.19,32.84Q752.79,743.92,751.47,743.92Zm-26-27.72c3.16,7.84,11.58,23.42,28.18,21.91,13.38-1.21,18.5-16.09,20.24-23.57A119,119,0,0,1,750,717.59,162.84,162.84,0,0,1,725.5,716.2Z"/><path d="M749.22,781a34.74,34.74,0,0,1-12-2.19c-11.56-4.22-34.48-16.52-46.73-31.57C683.57,738.78,678.9,731,674,714a2.86,2.86,0,0,1,5.49-1.57c4.62,16.14,8.81,23.19,15.4,31.28,12.93,15.86,36.89,27.11,44.27,29.81,9.21,3.36,18.07,2.17,27.86-3.74,20.55-12.39,33.85-28.61,40.66-49.59,2.49-7.68,4.3-24.29,6.22-41.88,1.28-11.75,2.61-23.91,4.26-34.7a2.86,2.86,0,0,1,5.65.86c-1.64,10.67-3,22.76-4.23,34.46-2,17.89-3.79,34.79-6.47,43-7.25,22.34-21.36,39.58-43.14,52.71C762.92,778.91,756.05,781,749.22,781Z"/><path d="M750.61,699a2.85,2.85,0,0,1-1.79-5.08c2.33-1.88,7-6.75,6.6-9.84a16.09,16.09,0,0,0-1.95-3.75c-3.93-6.38-11.23-18.27-1.05-40.47a2.85,2.85,0,1,1,5.19,2.38c-8.91,19.43-3.11,28.86.72,35.11,1.38,2.24,2.47,4,2.74,5.95,1,7.12-7.69,14.28-8.69,15.08A2.81,2.81,0,0,1,750.61,699Z"/><path d="M803.42,629.59a2.83,2.83,0,0,1-1.61-.5c-5.31-3.63-16.09-8.59-28.72-1.05a2.86,2.86,0,0,1-2.93-4.91c15.93-9.51,29.7-2.3,34.88,1.25a2.86,2.86,0,0,1-1.62,5.21Z"/><path class="cls-15" d="M791.11,660.2c0-5.86-3.36-10.63-7.57-10.66s-7.66,4.72-7.69,10.58,3.37,10.64,7.58,10.66S791.08,666.07,791.11,660.2Z"/><path class="cls-15" d="M685.1,741s14,12.63,25.84,20.94c12.4,8.66,27.29,15.11,34.74,16.71C760.27,781.79,792.5,754,792.5,754s-26,35.67-54.42,38c-21.81,1.8-51.59-33.27-51.59-33.27Z"/><path d="M699.33,634.91a2.85,2.85,0,0,1-1.92-5c7.83-7.07,22.77-11.9,37.1-5.79a2.85,2.85,0,1,1-2.24,5.25c-12.84-5.47-25.59-.14-31,4.77A2.8,2.8,0,0,1,699.33,634.91Z"/><path d="M672.62,701.73a3.18,3.18,0,0,1-.74-.09c-7.77-2.08-15.12-4-22.4-16.73l-.37-.69a2.86,2.86,0,0,1,5.06-2.65l.19.36c6.17,10.76,11.55,12.2,19,14.19a2.85,2.85,0,0,1-.74,5.61Z"/><path d="M673,684.07a2.87,2.87,0,0,1-2.65-1.77c-2.23-5.45-5.79-7.52-6-7.61a2.87,2.87,0,0,1-1.09-3.88,2.83,2.83,0,0,1,3.85-1.12c.22.12,5.43,3,8.48,10.44a2.85,2.85,0,0,1-1.56,3.72A2.75,2.75,0,0,1,673,684.07Z"/><path d="M651.67,715.76a2.86,2.86,0,0,1-2.71-2c-.34-1-8.22-25.34,3.5-42.8a138,138,0,0,1,14.34-17.8c3.86-4.19,6.65-7.21,8.22-11.08,5-12.16,5.1-24,5.2-32.74,0-2.82.07-5.25.27-7.21.85-8.21,5.08-14.68,11.92-18.24,7.9-4.11,18.13-3.49,27.36,1.66a2.86,2.86,0,0,1-2.78,5c-7.56-4.21-15.76-4.8-22-1.58-5.07,2.64-8.22,7.53-8.87,13.76-.17,1.7-.2,4-.24,6.69-.1,8.63-.27,21.66-5.62,34.82-2,4.83-5.2,8.35-9.31,12.8a132.6,132.6,0,0,0-13.8,17.12c-10.15,15.11-2.89,37.58-2.82,37.81a2.85,2.85,0,0,1-1.81,3.61A2.82,2.82,0,0,1,651.67,715.76Z"/><path d="M617.84,800a2.85,2.85,0,0,1-1.79-.63c-1-.79-24-19.67-21-43.43,1.68-13.37,6.8-21.26,11.74-28.9,3.66-5.63,7.43-11.45,9.93-19.69,4-13.05,1.42-24.06-1.25-35.72-2-8.78-4.09-17.87-3.84-28.67.88-37.52,19.93-62.83,36.44-80.69,23.45-25.37,44-22.91,52.73-21.85l1.48.17a2.86,2.86,0,0,1-.6,5.68l-1.56-.18c-8.56-1-26.39-3.17-47.85,20.06-23.83,25.78-34.27,48.79-34.93,76.94-.23,10.09,1.77,18.82,3.7,27.27,2.85,12.41,5.53,24.14,1.14,38.65-2.72,9-6.73,15.18-10.59,21.14-4.81,7.42-9.36,14.43-10.88,26.5-1.6,12.75,6,24.32,12,31.32-1.27-10.56.18-27.89,16.67-45.84a2.86,2.86,0,1,1,4.2,3.87c-23.48,25.56-13.21,49.76-13.11,50a2.84,2.84,0,0,1-2.61,4Z"/><path d="M656.88,807c-12.22,0-22.89-5.61-30.21-15.92-8-11.26-10.37-26.23-5.92-37.25A2.86,2.86,0,0,1,626,756c-3.69,9.13-1.52,22.21,5.28,31.79,6.55,9.22,16.25,14,27.24,13.47a2.83,2.83,0,0,1,3,2.72,2.87,2.87,0,0,1-2.72,3C658.18,807,657.53,807,656.88,807Z"/><path d="M665.64,813.06a2.83,2.83,0,0,1-1.81-.66c-15.31-12.65-19.6-34.71-17.51-42.5a2.85,2.85,0,1,1,5.51,1.47c-1.5,5.64,2.11,25.45,15.64,36.63a2.86,2.86,0,0,1-1.83,5.06Z"/><path d="M683.15,780.26a2.84,2.84,0,0,1-1-.18c-.27-.1-26.56-10.44-20.73-50.34a2.86,2.86,0,0,1,5.65.83c-5.13,35.15,16.18,43.81,17.09,44.16a2.86,2.86,0,0,1-1,5.53Z"/><path d="M828.51,699.66a2.78,2.78,0,0,1-1.21-.28,2.85,2.85,0,0,1-1.37-3.8c.76-1.61,18.05-39.78-23.39-65.84-20.83-13.1-29.93-26-41.46-42.42-1.7-2.41-3.45-4.91-5.31-7.49-5.49-7.64-10.5-11.53-14.9-11.56h0c-4.42,0-9.1,3.68-15.18,11.91a2.86,2.86,0,0,1-4.6-3.4c5.2-7,11.62-14.22,19.78-14.22h.09c6.41,0,12.79,4.6,19.5,13.94,1.87,2.6,3.63,5.1,5.34,7.54,11.16,15.85,20,28.37,39.83,40.86,45.8,28.81,25.72,72.68,25.52,73.12A2.87,2.87,0,0,1,828.51,699.66Z"/><path d="M855.83,815.28l-.31,0c-1.65-.18-40.5-4.64-38.51-31.49.46-6.14,3.72-11.44,6.87-16.56,5.93-9.65,11.54-18.77,2.75-35a2.86,2.86,0,0,1,5-2.72c10.35,19.17,3,31.13-2.91,40.74-2.93,4.75-5.69,9.24-6,14-1,13.5,12.48,20.07,22.63,23.08-4.09-5.22-6.55-12.41-2.66-20.86,3.62-7.86,9.5-11.18,15.19-14.39,6.51-3.68,12.67-7.15,16.36-17.64,4-11.36-.44-21.29-4.74-30.89-3.17-7.09-6.16-13.79-5.65-20.72s3-12.65,5.62-18.82c5.1-12,10.38-24.34,3.2-47.21-8.35-26.58-35.3-90.78-105.11-112.6-26.94-8.43-52.74-2.22-66.37,7.67-5.54,4-7.54,7.69-7.56,9.78a2.86,2.86,0,0,1-2.86,2.82h0a2.85,2.85,0,0,1-2.82-2.89c.05-4.64,3.58-9.73,9.91-14.33,14.79-10.73,42.61-17.52,71.43-8.51C841.64,541.32,869.49,607.59,878.11,635c7.81,24.88,1.86,38.84-3.39,51.16-2.44,5.72-4.75,11.13-5.18,17-.41,5.49,2.3,11.54,5.17,17.95,4.53,10.13,9.66,21.62,4.91,35.13-4.4,12.51-12.13,16.87-19,20.71-5.34,3-10,5.63-12.8,11.81-5.9,12.83,8.67,20.77,9.29,21.1a2.86,2.86,0,0,1-1.33,5.38Z"/><path d="M824.85,812A25.27,25.27,0,0,1,808,806c-8.2-7.06-11.73-19.5-9.43-33.28a2.85,2.85,0,0,1,5.63.93c-2,11.8.85,22.28,7.52,28,5.65,4.87,13.65,6,22.54,3.07a2.86,2.86,0,1,1,1.76,5.44A36.24,36.24,0,0,1,824.85,812Z"/><path d="M854.43,750.31a2.72,2.72,0,0,1-.69-.09,2.85,2.85,0,0,1-2.08-3.46c4.66-18.64-3-35.33-10.31-46a2.85,2.85,0,1,1,4.72-3.21c11.38,16.75,15.23,34.27,11.13,50.65A2.85,2.85,0,0,1,854.43,750.31Z"/><path d="M714.65,564.89a2.89,2.89,0,0,1-1.27-.3,2.85,2.85,0,0,1-1.28-3.84c7.75-15.48,19.22-21.62,32.31-17.25a2.86,2.86,0,1,1-1.81,5.42c-12.9-4.3-20.92,5.45-25.39,14.39A2.86,2.86,0,0,1,714.65,564.89Z"/><path class="cls-15" d="M724.53,660.35c0-5.91-3.36-10.71-7.57-10.73s-7.65,4.74-7.68,10.64S712.64,671,716.85,671,724.5,666.25,724.53,660.35Z"/><path d="M754.19,862.93c-45.62,0-93.07-31.12-105.4-44.88a2.85,2.85,0,1,1,4.25-3.81c12.72,14.18,64.38,47.66,110.91,42.45,25.65-2.86,45.78-17.07,59.83-42.23a2.86,2.86,0,1,1,5,2.78c-15,26.87-36.6,42-64.19,45.13A94.64,94.64,0,0,1,754.19,862.93Z"/><path d="M2127.73,701.52c-.63,0-1.26,0-1.9,0a2.86,2.86,0,1,1,.25-5.71c12.57.55,23.24-5.3,28.55-15.66a18.74,18.74,0,0,0-.36-17.64c-2.72-4.66-7.42-7.35-13.25-7.58a2.86,2.86,0,0,1-2.74-3,3,3,0,0,1,3-2.75c7.83.31,14.21,4,17.95,10.4a24.59,24.59,0,0,1,.51,23.14C2153.62,694.59,2141.76,701.52,2127.73,701.52Z"/><path d="M2134.56,680.48a2.86,2.86,0,0,1-1.67-5.18,25.61,25.61,0,0,1,8.58-4.22,2.85,2.85,0,0,1,1.46,5.52,20.11,20.11,0,0,0-6.71,3.34A2.84,2.84,0,0,1,2134.56,680.48Z"/><path d="M2034,761.43a29.73,29.73,0,0,1-7.75-.86c-24.74-6.93-38.06-32.8-46.9-54.56-7.48-18.43-7.45-40.39-6.59-69.42.38-13,.07-21-.19-27.33-.28-7.06-.49-12.16.55-19.61a67.63,67.63,0,0,1,3.15-11.45,2.85,2.85,0,1,1,5.38,1.9,60.32,60.32,0,0,0-2.87,10.34c-1,6.95-.78,11.58-.5,18.59.25,6.45.58,14.49.19,27.73-.84,28.32-.89,49.71,6.18,67.1,8.34,20.55,20.79,44.95,43.14,51.21,12.4,3.47,51-6.21,68.22-26.15a2.86,2.86,0,0,1,4.33,3.73C2083.7,751.94,2051.65,761.43,2034,761.43Z"/><path d="M1973.05,674.59a2.81,2.81,0,0,1-1.19-.26c-9.82-4.49-14.92-22.38-12.21-33.88,1.93-8.14,7.6-12.63,15.2-12.37a2.85,2.85,0,0,1,2.75,2.95,2.8,2.8,0,0,1-3,2.75c-5-.19-8.13,2.51-9.43,8-2.31,9.81,2.49,24.39,9,27.38a2.85,2.85,0,0,1-1.19,5.45Z"/><path d="M2031.58,660.79a2.84,2.84,0,0,1-2.25-1.09c-8.23-10.52-4.8-14.53.93-19a34.7,34.7,0,0,0,5.49-5c4.34-5.16,3.44-19.18-.31-26.61a2.86,2.86,0,0,1,5.1-2.57c4.16,8.24,6.06,25.14-.42,32.86a41.2,41.2,0,0,1-6.32,5.85c-4.51,3.55-5.33,4.19,0,11a2.86,2.86,0,0,1-.49,4A2.83,2.83,0,0,1,2031.58,660.79Z"/><path d="M2100.05,604.22a2.91,2.91,0,0,1-2.09-.9c-5.57-5.94-19.36-11.69-31.32-5.17a2.86,2.86,0,1,1-2.74-5c14.74-8,31.23-1.18,38.23,6.26a2.86,2.86,0,0,1-.13,4A2.83,2.83,0,0,1,2100.05,604.22Z"/><path d="M2025.28,595.42a2.85,2.85,0,0,1-1.68-.54c-9-6.54-18.23-7.12-28.3-1.76a2.86,2.86,0,0,1-2.68-5c12-6.39,23.58-5.65,34.34,2.19a2.85,2.85,0,0,1,.63,4A2.82,2.82,0,0,1,2025.28,595.42Z"/><path class="cls-15" d="M2089.29,630.47c.69-6.49-2.64-12.16-7.44-12.67s-9.25,4.34-9.94,10.83,2.65,12.15,7.45,12.66S2088.61,637,2089.29,630.47Z"/><path class="cls-15" d="M2020.43,622.86c.69-6.54-2.67-12.27-7.51-12.78s-9.34,4.38-10,10.92,2.67,12.27,7.51,12.78S2019.74,629.4,2020.43,622.86Z"/><path class="cls-13" d="M2033.23,681.47c14.55,1.61,35.09.61,35.09.61s-10,30.62-35.35,26.85c-21.16-3.16-24.16-31.51-24.16-31.51A205.41,205.41,0,0,0,2033.23,681.47Z"/><path d="M2037.22,712.1a31.66,31.66,0,0,1-4.67-.35c-23.08-3.44-26.44-32.78-26.58-34a2.85,2.85,0,0,1,3.53-3.07,206.72,206.72,0,0,0,24,4h0c14.15,1.57,34.44.61,34.64.6a2.82,2.82,0,0,1,2.4,1.12A2.87,2.87,0,0,1,2071,683C2070.93,683.28,2061.18,712.1,2037.22,712.1Zm-24.84-31c1.68,7.45,6.84,22.86,21,25,17.62,2.61,27.14-13.33,30.65-21-6.91.2-20.47.38-31.12-.79h0C2023.87,683.31,2016.64,682,2012.38,681.13Z"/><path d="M1975.17,622.78a2.86,2.86,0,0,1-2.39-1.28c-1-1.5-24.08-37.21-13.41-73.84,6.93-23.81,33.62-50.8,62.3-53a2.85,2.85,0,0,1,.45,5.69c-25.94,2-51,27.42-57.27,48.94-9.93,34.13,12.47,68.76,12.7,69.11a2.86,2.86,0,0,1-2.38,4.42Z"/><path d="M2138.48,527.7a36.63,36.63,0,0,1-12.81-2.36,2.85,2.85,0,0,1,2-5.35c11.25,4.18,20.88,1,26.93-2.4a80.36,80.36,0,0,1-20.67-5.11c-6.19-2.35-14.13-5.62-30-14.59-16.66-9.4-38.56-17.89-60.21.06a2.86,2.86,0,0,1-3.64-4.4c24.61-20.39,49.83-10.13,66.66-.64,15.55,8.78,23.25,11.95,29.25,14.24,16.46,6.27,26.83,4.87,26.93,4.85a2.86,2.86,0,0,1,2.42,4.87C2164.76,517.41,2154,527.7,2138.48,527.7Z"/><path d="M2156.84,659.12a2.86,2.86,0,0,1-2.4-4.41c.51-.78,50-78.91-5-128.5a2.85,2.85,0,0,1,3.82-4.24c58.55,52.86,6.46,135,5.93,135.84A2.86,2.86,0,0,1,2156.84,659.12Z"/><path d="M1970.11,583.51c-7.56,0-11.58-4.22-11.84-4.51a2.81,2.81,0,0,1-.65-2.7,2.86,2.86,0,0,1,2-2c.06,0,10.63-3.65,19.13-26.75a2.86,2.86,0,0,1,5.36,2C1978,566,1970.72,573.69,1966,577.15c3.54,1.16,9.81,1.31,19-5.14,4.47-3.15,7.18-8,9.79-12.62,4.28-7.64,9.14-16.29,21.91-12.45a2.86,2.86,0,0,1-1.65,5.47c-8-2.43-10.62,1.47-15.28,9.77-2.79,5-6,10.61-11.48,14.5C1980.88,581.89,1974.81,583.51,1970.11,583.51Z"/><path d="M2114.33,576.12a49,49,0,0,1-12.71-1.76c-15.69-4.23-25.87-15.75-34.06-25-4-4.58-7.55-8.53-10.9-10.74a6.21,6.21,0,0,0-5.11-1c-5.3,1.3-10.42,8.68-11.94,11.41a2.85,2.85,0,1,1-5-2.77c.27-.49,6.75-12,15.55-14.18a11.79,11.79,0,0,1,9.63,1.73c4,2.62,7.72,6.84,12,11.73,8.08,9.14,17.24,19.49,31.26,23.27,11.52,3.11,19.93,1,25.17-1.43-10.19-1.85-27.17-8.84-39.89-33.83a2.86,2.86,0,1,1,5.09-2.59c17.1,33.62,41.87,31.38,42.93,31.27a2.86,2.86,0,0,1,2.39,4.8C2138.36,567.51,2130,576.12,2114.33,576.12Z"/><path d="M2141.17,639.86a3.39,3.39,0,0,1-.54-.05c-22-4.26-24.83-23-27.29-39.59-1.52-10.23-3-19.88-8.73-24.47a2.85,2.85,0,1,1,3.55-4.47c7.54,6,9.14,16.73,10.83,28.1,2.39,16.11,4.65,31.33,22.72,34.82a2.86,2.86,0,0,1-.54,5.66Z"/><path d="M2118.3,962.61a2.83,2.83,0,0,1-1.59-.49c-20.55-13.89-42.75-40.66-64.23-66.56-7.92-9.55-15.4-18.57-22.77-26.93-4.35-4.93-24.42-22.7-32.38-28-13.31-8.81-30.73-17.45-49-24.31-7.72-2.89-12-1.64-12.9-.09s.26,3.94,2.8,6.29c5.55,5.16,12.78,9.45,21.16,14.42,6.47,3.84,13.81,8.19,21.32,13.57a97.59,97.59,0,0,1,27.59,31.32,2.86,2.86,0,1,1-5.08,2.61c-.09-.17-9-17.23-25.83-29.28-7.32-5.25-14.54-9.53-20.92-13.31-8.65-5.14-16.12-9.57-22.12-15.14-5.68-5.26-5.67-10.41-3.78-13.48,2.35-3.79,8.77-6.38,19.76-2.26,19,7.11,36.33,15.72,50.19,24.9,8.42,5.56,28.89,23.7,33.52,28.94,7.42,8.43,14.93,17.48,22.88,27.07,21.21,25.58,43.15,52,63,65.47a2.86,2.86,0,0,1-1.61,5.22Z"/><path d="M1952.75,912.57a2.85,2.85,0,0,1-2.82-2.47c-.86-6.28-2.45-18,4.06-24.12,4-3.81,19.33-4.54,48-4.54H2006c4.38,0,8.08,0,10.28-.13a2.86,2.86,0,0,1,.29,5.71c-2.79.14-7.47.13-13.35.13-12.52,0-41.83,0-45.31,3-4.38,4.15-3,14.31-2.32,19.2a2.86,2.86,0,0,1-2.45,3.21Z"/><path d="M1951,943.26a2.86,2.86,0,0,1-2.4-1.3c-1-1.53-9.62-15.2-7.61-24.58a9.89,9.89,0,0,1,4.39-6.51c7.67-5,24-5,39.7-5,5.51,0,10.7,0,15.22-.23a2.86,2.86,0,0,1,.28,5.71c-4.66.23-9.92.23-15.49.23-14.23,0-30.35,0-36.61,4.08-3.33,2.15-2.07,7.94-.44,12.42a60.58,60.58,0,0,0,5.36,10.76,2.86,2.86,0,0,1-2.4,4.41Z"/><path d="M2083.88,1016.94a2.82,2.82,0,0,1-2.16-1c-14.45-16.87-36.89-26.77-54.91-34.73-8.67-3.83-16.16-7.13-21.56-10.64-3.64-2.37-15.53-3.6-27-4.79-8.15-.85-16.57-1.72-23.75-3.09a12.38,12.38,0,0,1-8.84-7.6,15,15,0,0,1,1.31-14.06c3.34-5.06,10.31-5.2,20.87-5.42a181.06,181.06,0,0,0,30-2.54,2.86,2.86,0,1,1,1,5.62,185.54,185.54,0,0,1-30.95,2.63c-8.43.17-14.52.3-16.2,2.85a9.24,9.24,0,0,0-.83,8.7,6.75,6.75,0,0,0,4.65,4.22c6.94,1.32,15.24,2.18,23.27,3,13.28,1.37,24.76,2.56,29.55,5.68,5,3.26,12.31,6.48,20.75,10.21,18.56,8.19,41.66,18.38,56.94,36.23a2.85,2.85,0,0,1-2.17,4.71Z"/><path d="M1991.63,939.8l-.35,0L1961.17,936a2.85,2.85,0,1,1,.7-5.66l30.11,3.73a2.86,2.86,0,0,1-.35,5.69Z"/><path d="M2317.35,1190.7c-16,0-33.79-4.7-50.36-13.94-31.44-17.54-54.48-34.87-117.42-88.34-9.84-8.35-21.1-16.7-32-24.78-12.5-9.26-24.3-18-31.66-25.19-13.51-13.16,1.66-51.16,18.49-70.35,11.11-12.68,22.06-16.36,30-10.07l1.51,1.19c10,7.86,40.28,31.8,69,49.83,24.48,15.37,43.5,25,60.28,33.51,19.84,10.06,37,18.75,58.53,34a2.86,2.86,0,0,1-3.31,4.66c-21.2-15.06-38.16-23.66-57.8-33.62-16.89-8.55-36-18.25-60.73-33.77-29-18.19-59.46-42.27-69.49-50.18l-1.5-1.19c-7.48-5.89-18,4.58-22.22,9.35-16.33,18.63-28.61,52.94-18.8,62.5,7.09,6.91,18.74,15.55,31.08,24.69,11,8.14,22.31,16.54,32.29,25,62.59,53.17,85.46,70.38,116.5,87.7,28.11,15.68,59.56,17.65,78.25,4.92,11.93-8.13,17-21.37,14.74-38.3-3.68-27.21-17-58.18-35.32-101.05-9.73-22.72-20.76-48.46-32.47-78.59-19.16-49.29-38.28-84-74.4-104.69-21.35-12.23-43-21-62.12-28.7-23.2-9.37-41.53-16.76-50.18-26.74-13.51-15.56,6.6-82.94,8.94-90.57a2.85,2.85,0,0,1,5.46,1.67c-6.09,19.9-19.78,74-10.09,85.16,7.75,8.93,26.41,16.46,48,25.19,19.28,7.78,41.13,16.61,62.82,29,37.57,21.53,57.27,57.12,76.88,107.57,11.68,30,22.69,55.74,32.4,78.41,18.55,43.28,31.95,74.55,35.73,102.53,2.55,18.94-3.55,34.49-17.18,43.79C2342.11,1187.63,2330.29,1190.7,2317.35,1190.7Z"/><path d="M2183.88,979.77h-.18a2.87,2.87,0,0,1-2.68-3c3.72-61.6,33.92-98.07,35.2-99.59a2.86,2.86,0,1,1,4.37,3.68c-.3.35-30.27,36.64-33.86,96.25A2.86,2.86,0,0,1,2183.88,979.77Z"/><path d="M2177.78,1359.66a2.85,2.85,0,0,1-2.85-2.78c-1.09-42-7.9-88.89-12.87-123.14-4-27.43-6.86-47.24-5.74-55.23,3.86-27.63,9.09-77.59,9.14-78.09a2.86,2.86,0,0,1,5.68.59c0,.51-5.29,50.57-9.17,78.29-1,7.18,2,27.67,5.74,53.62,5,34.39,11.83,81.49,12.93,123.81a2.85,2.85,0,0,1-2.78,2.93Z"/><path d="M1817.42,1360.2a2.87,2.87,0,0,1-2.84-2.57c-18.45-177.55-21.26-454-21.28-456.74a2.84,2.84,0,0,1,2.83-2.88h0a2.86,2.86,0,0,1,2.86,2.83c0,2.76,2.83,278.91,21.26,456.21a2.86,2.86,0,0,1-2.55,3.13Z"/><path d="M1740.84,293.82a17.13,17.13,0,0,1-10.82-4.43,2.87,2.87,0,0,1-.31-4,2.84,2.84,0,0,1,4-.31c3.45,2.94,7.66,3.91,9.81,2.25,5.37-4.15,9.86-19.64,9.17-27.74-1.34-15.65-5.34-35.25-11-41.29-2-2.11-4.35-1.38-9.33.79a35.6,35.6,0,0,1-5.37,2c-2.27.56-4.49-.09-6.85-.78s-5-1.46-7.94-1c-1.15.19-3.92,2.32-5.75,3.73a25.91,25.91,0,0,1-5.89,3.84,19.15,19.15,0,0,1-8.18.75,10.8,10.8,0,0,0-4.29.21,9.43,9.43,0,0,0-4.42,3.62,11.7,11.7,0,0,1-6.3,4.78,52.6,52.6,0,0,1-5.44,1.41c-3,.66-4.7,1.07-6.07,2.51-1.93,2-2.36,3.47-.1,12.79a122.09,122.09,0,0,0,12,29.67c4.4,7.58,12.92,3.18,13.27,3a2.86,2.86,0,0,1,2.69,5.05c-5.51,2.92-15.6,4-20.9-5.16a128.53,128.53,0,0,1-12.63-31.19c-2.22-9.13-2.74-13.6,1.51-18.08,2.64-2.77,5.73-3.45,9-4.15a47.25,47.25,0,0,0,4.85-1.26,6,6,0,0,0,3.52-2.76,14.77,14.77,0,0,1,6.73-5.45c2.22-1,4.61-.82,6.91-.67a14.52,14.52,0,0,0,5.86-.41,26.1,26.1,0,0,0,4.37-3c3-2.28,5.74-4.42,8.32-4.84,4.21-.69,7.67.33,10.46,1.14,1.59.47,3.09.91,3.88.71a30.31,30.31,0,0,0,4.47-1.69c4.59-2,10.88-4.72,15.78.56,9.26,10,12.17,41.17,12.47,44.7.85,9.9-4.33,27.3-11.36,32.74A10,10,0,0,1,1740.84,293.82Z"/><path d="M1704.27,294.73c-4.67,0-10.77-1.71-12.92-6.57-6-13.51-13.3-40.22-13.61-41.35a2.86,2.86,0,1,1,5.51-1.51c.07.27,7.52,27.43,13.32,40.55.7,1.58,3,2.76,6.1,3.09,3.66.39,6.08-.63,6.42-1.11,1.91-4.57-3.34-31.93-7.69-49.88a2.85,2.85,0,0,1,5.55-1.34c1.82,7.52,10.74,45.45,7.38,53.49-1.19,2.85-4.88,4.58-9.87,4.63Z"/><path d="M1723.15,292.4c-5.05,0-10.11-1.87-11.78-3.11a2.86,2.86,0,0,1,3.42-4.58c1.07.73,7.61,3,11.75,1.46a4.44,4.44,0,0,0,2.9-3.32c4.14-16-1.64-50.94-1.7-51.29a2.85,2.85,0,1,1,5.63-.94c.25,1.48,6.05,36.46,1.6,53.66a10.1,10.1,0,0,1-6.68,7.32A15.45,15.45,0,0,1,1723.15,292.4Z"/><path d="M1734.46,301.1c-5,0-9.38-1-12.4-2.81-3.48-2-5.39-5.07-5.39-8.57a2.86,2.86,0,1,1,5.71,0c0,.53,0,2.14,2.56,3.64,5.49,3.2,17.62,2.88,28.43-3.21,6.87-3.87,7.14-26.91,4.74-33.2-2.55-6.7-9.84-24.17-9.91-24.35a2.85,2.85,0,1,1,5.27-2.19c.3.72,7.39,17.73,10,24.51,2.73,7.18,3.6,34.07-7.28,40.21A44.82,44.82,0,0,1,1734.46,301.1Z"/><path d="M1975.16,752.75c-4.75,0-10.21-2.22-16.14-6.59-23.26-17.17-59.28-41.66-90.58-58.93-3-1.64-29.45-16.4-40-28a2.86,2.86,0,0,1,4.23-3.84c8.06,8.85,28,21,38.53,26.82,31.54,17.4,67.8,42.06,91.22,59.34,3.89,2.87,11.16,7.29,16.25,4.66s7.56-11.86,7.29-26.16a2.86,2.86,0,1,1,5.71-.1c.32,17.07-3.17,27.61-10.38,31.33A13.13,13.13,0,0,1,1975.16,752.75Z"/><path d="M1647.79,511.53h-.29a2.85,2.85,0,0,1-2.55-3.13c6.87-68.64,14-142.89,15.43-159.45.34-3.82,2.4-9.14,10.38-12.85,15.39-7.15,46.45-4.29,60.44,5.56,6.79,4.79,7.83,9.91,7.52,13.37-2.29,24.76-2.62,68.12-.91,119,.4,12.18.86,18.56,1.5,27.39l.51,7.11a2.86,2.86,0,0,1-5.7.39l-.5-7.09c-.65-8.89-1.11-15.32-1.52-27.61-1.72-51.07-1.38-94.69.93-119.67.26-2.85-1.46-5.6-5.12-8.18-12.43-8.76-41.08-11.4-54.75-5.05-4.41,2.05-6.8,4.8-7.09,8.16-1.44,16.58-8.56,90.86-15.44,159.53A2.86,2.86,0,0,1,1647.79,511.53Z"/><path d="M2056.32,837.26a57.92,57.92,0,0,1-16.88-2.48c-39-11.8-57.38-61.57-63.48-82.42a2.85,2.85,0,1,1,5.48-1.6c5.84,20,23.34,67.56,59.66,78.55,22.21,6.73,47.65-1.77,75.62-25.25a2.85,2.85,0,1,1,3.67,4.37C2097.54,827.61,2076.06,837.26,2056.32,837.26Z"/><path d="M1670.81,341.57a2.74,2.74,0,0,1-.56-.06,2.86,2.86,0,0,1-2.25-3.35c1.73-8.79-.08-22-2.18-37.2-1.12-8.21-2.4-17.51-3.23-27a2.86,2.86,0,0,1,5.69-.49c.82,9.4,2,18.22,3.2,26.76,2.16,15.75,4,29.35,2.13,39.08A2.86,2.86,0,0,1,1670.81,341.57Z"/><path d="M1663.46,266.36a2.86,2.86,0,0,1-2.84-2.55c-.42-3.95-.76-8-1-12a2.85,2.85,0,0,1,2.69-3,2.88,2.88,0,0,1,3,2.68c.23,3.93.55,7.88,1,11.75a2.84,2.84,0,0,1-2.53,3.14A1.67,1.67,0,0,1,1663.46,266.36Z"/><path d="M1727.91,343.85a2.86,2.86,0,0,1-2.86-2.78c-.65-23.71,4.91-40.39,5.15-41.08a2.86,2.86,0,1,1,5.41,1.83c-.06.17-5.48,16.46-4.85,39.09a2.86,2.86,0,0,1-2.78,2.94Z"/><path class="cls-15" d="M1988.7,726.23s15.18,26,37.22,31.07,59.88-12.6,59.88-12.6-41.62,33.73-64.92,32.18-37.21-36.65-37.21-36.65Z"/><path d="M1939.19,496.28a2.89,2.89,0,0,1-1.41-.37l-21.44-12.22a2.85,2.85,0,0,1,2.82-5L1940.61,491a2.85,2.85,0,0,1-1.42,5.33Z"/><path d="M2002.43,445.87a2.87,2.87,0,0,1-2.63-1.73l-12.9-30.3a2.86,2.86,0,1,1,5.26-2.24l12.9,30.3a2.85,2.85,0,0,1-1.51,3.74A2.74,2.74,0,0,1,2002.43,445.87Z"/><path d="M2087.59,440.93l-.33,0a2.86,2.86,0,0,1-2.51-3.17l3.34-28.4a2.85,2.85,0,0,1,5.67.67l-3.33,28.4A2.86,2.86,0,0,1,2087.59,440.93Z"/><path d="M2168.33,472.7a2.84,2.84,0,0,1-2.28-4.56l17.3-23.16a2.85,2.85,0,1,1,4.57,3.42l-17.3,23.16A2.85,2.85,0,0,1,2168.33,472.7Z"/><path d="M2219.87,527a2.86,2.86,0,0,1-.88-5.58l27.78-9a2.85,2.85,0,0,1,1.75,5.43l-27.77,9A3,3,0,0,1,2219.87,527Z"/><path d="M2248.83,601.68a2.11,2.11,0,0,1-.36,0l-30.62-3.87a2.86,2.86,0,1,1,.71-5.67l30.62,3.87a2.86,2.86,0,0,1-.35,5.69Z"/><path d="M859.86,543.27a2.86,2.86,0,0,1-1.42-5.34l21.44-12.22a2.86,2.86,0,1,1,2.83,5L861.27,542.9A2.89,2.89,0,0,1,859.86,543.27Z"/><path d="M796.61,492.86a2.9,2.9,0,0,1-1.11-.23,2.86,2.86,0,0,1-1.51-3.75l12.9-30.29a2.86,2.86,0,0,1,5.26,2.23l-12.91,30.3A2.85,2.85,0,0,1,796.61,492.86Z"/><path d="M711.45,487.91a2.85,2.85,0,0,1-2.83-2.52L705.28,457a2.86,2.86,0,0,1,5.68-.66l3.33,28.39a2.84,2.84,0,0,1-2.5,3.17A1.94,1.94,0,0,1,711.45,487.91Z"/><path d="M630.72,519.69a2.86,2.86,0,0,1-2.29-1.15l-17.31-23.15A2.86,2.86,0,1,1,615.7,492L633,515.13a2.84,2.84,0,0,1-.58,4A2.78,2.78,0,0,1,630.72,519.69Z"/><path d="M579.18,574a3,3,0,0,1-.88-.13l-27.77-9a2.86,2.86,0,0,1,1.76-5.44l27.76,9a2.85,2.85,0,0,1-.87,5.57Z"/><path d="M550.22,648.67a2.86,2.86,0,0,1-.35-5.69l30.61-3.87a2.85,2.85,0,1,1,.72,5.66l-30.61,3.88Z"/><path class="cls-13" d="M1045.69,409.6c-2.36-6.45-6.29-29.21-6.29-29.21s-3.89,24.58-5.27,29.75c-1.23,4.64-18.39,7.29-18.39,7.29s16.72,2.54,18.47,7.41,6.21,32.33,6.21,32.33,4.44-26.62,5.66-32.24c1.16-5.28,18.18-7.77,18.18-7.77S1047.52,414.62,1045.69,409.6Z"/><path class="cls-13" d="M1435.75,530.92c-2.36-6.45-6.29-29.21-6.29-29.21s-3.89,24.58-5.26,29.74c-1.23,4.65-18.39,7.3-18.39,7.3s16.71,2.54,18.47,7.4,6.2,32.34,6.2,32.34,4.44-26.63,5.67-32.24c1.15-5.28,18.17-7.77,18.17-7.77S1437.59,535.94,1435.75,530.92Z"/><path class="cls-13" d="M1492.57,401.92c-2.36-6.45-6.29-29.21-6.29-29.21s-3.89,24.58-5.26,29.75c-1.23,4.64-18.39,7.29-18.39,7.29s16.71,2.54,18.47,7.41,6.2,32.33,6.2,32.33,4.44-26.63,5.67-32.24c1.15-5.27,18.17-7.77,18.17-7.77S1494.41,407,1492.57,401.92Z"/><path class="cls-13" d="M1357.43,274.46c-2.36-6.45-6.29-29.21-6.29-29.21s-3.89,24.58-5.26,29.75c-1.23,4.64-18.39,7.29-18.39,7.29s16.71,2.54,18.47,7.41,6.21,32.33,6.21,32.33,4.43-26.63,5.66-32.24C1359,284.51,1376,282,1376,282S1359.27,279.48,1357.43,274.46Z"/><path class="cls-13" d="M1892.72,308.57c-2.36-6.45-6.29-29.21-6.29-29.21s-3.89,24.57-5.26,29.74c-1.24,4.65-18.39,7.29-18.39,7.29s16.71,2.55,18.47,7.41,6.2,32.33,6.2,32.33,4.44-26.62,5.67-32.24c1.15-5.27,18.17-7.76,18.17-7.76S1894.55,313.59,1892.72,308.57Z"/><path d="M1267.55,835.69a2.86,2.86,0,0,1,0-5.71c47.6-.7,89.46-2.05,101.52-2.46l-9.76-41.24a2.44,2.44,0,0,1-.07-.46L1337.38,468.1l-26.23-10.36-205.41-.49-19.9,10.63-21,310.66-8.55,43.88c6.69.64,23.63,2.19,45.94,3.75a2.85,2.85,0,0,1,2.65,3,2.88,2.88,0,0,1-3,2.65c-29-2-49-4-49.23-4.06a2.86,2.86,0,0,1-2.52-3.39l9.11-46.61,21.08-311.88a2.9,2.9,0,0,1,1.5-2.33l21.93-11.72a2.83,2.83,0,0,1,1.34-.33h0l206.68.49a2.83,2.83,0,0,1,1,.2l28.4,11.22a2.87,2.87,0,0,1,1.8,2.46l21.93,319.28,10.5,44.4a2.83,2.83,0,0,1-.5,2.39,2.86,2.86,0,0,1-2.17,1.12c-.48,0-48.79,1.76-105.11,2.59Z"/><path d="M1202.79,836.05h0l-8.9-.07a2.86,2.86,0,0,1-2.83-2.88,2.81,2.81,0,0,1,2.88-2.83l8.9.07a2.86,2.86,0,0,1,0,5.71Z"/><path d="M1240.26,789.62c-78.27,0-165.45-9.7-166.55-9.82a2.86,2.86,0,0,1,.64-5.68c1.38.16,138.27,15.39,222.4,7.56a2.88,2.88,0,0,1,3.11,2.58,2.85,2.85,0,0,1-2.58,3.1C1280,789,1260.39,789.62,1240.26,789.62Z"/><path d="M1242.79,477.44c-5,0-11.16-.57-18.69-1.28-8.44-.79-18.94-1.77-31.43-2.23-47.12-1.74-108.64-3.26-109.26-3.27a2.87,2.87,0,0,1-2.79-2.93,3,3,0,0,1,2.93-2.78c.62,0,62.17,1.53,109.33,3.27,12.65.46,23.25,1.46,31.76,2.26,10.7,1,18.44,1.72,23.79.88,21.46-3.39,88.34-6.29,91.17-6.41a2.86,2.86,0,0,1,.25,5.71c-.69,0-69.39,3-90.52,6.34A42.23,42.23,0,0,1,1242.79,477.44Z"/><path d="M1105.51,469.5h-.14a2.85,2.85,0,0,1-2.71-3l.52-10.91a2.88,2.88,0,0,1,3-2.71,2.84,2.84,0,0,1,2.71,3l-.52,10.91A2.85,2.85,0,0,1,1105.51,469.5Z"/><path d="M1312.51,470.54a2.86,2.86,0,0,1-2.84-2.66l-.78-11.43a2.85,2.85,0,1,1,5.69-.39l.79,11.43a2.86,2.86,0,0,1-2.66,3Z"/><path d="M1292.09,471.62a2.86,2.86,0,0,1-2.84-2.62c-.07-.85-7.48-86.2-31.12-136.64-8.52-18.16-30.27-29.59-52.92-27.76-26.91,2.16-47.49,21.36-56.43,52.68-11.06,38.7-16.39,109.63-16.44,110.34a2.86,2.86,0,1,1-5.7-.42c.06-.72,5.43-72.22,16.64-111.49,9.64-33.73,32-54.44,61.48-56.8,24.94-2,49,10.75,58.54,31,24.08,51.37,31.57,137.72,31.64,138.58a2.85,2.85,0,0,1-2.6,3.09Z"/><path d="M1298.09,457a2.86,2.86,0,0,1-2.85-2.63c-.07-1-8.08-99.32-35-138.44-12.38-18-38-27.81-62.26-23.77-15.3,2.54-42.67,12.89-54,53.62a515.86,515.86,0,0,0-17.48,107.62,2.8,2.8,0,0,1-3,2.76,2.86,2.86,0,0,1-2.76-2.94,521.36,521.36,0,0,1,17.69-109c8.93-32,30.3-53,58.62-57.73,26.38-4.37,54.3,6.38,67.9,26.17,27.73,40.39,35.61,137.14,35.94,141.24a2.85,2.85,0,0,1-2.63,3.06Z"/><path d="M1702,906.05c-9,0-18-.2-27-.66-58.6-3-112.91-15.27-113.45-15.39L1522,886.12a2.9,2.9,0,0,1-2-1.08,2.85,2.85,0,0,1-.57-2.18l8.42-57.31,27.94-295.1a2.87,2.87,0,0,1,2-2.44l21-6.79,10.26-13.15a2.82,2.82,0,0,1,2.58-1.08c.44.05,45.46,5.06,95.66,7.39s106.91,2,107.49,2a2.68,2.68,0,0,1,2.06.86L1808,528.7l20.73,7.12a2.87,2.87,0,0,1,1.93,2.64l6.41,304.67,8.29,51.52a2.85,2.85,0,0,1-2.69,3.3l-45.11,2A821,821,0,0,1,1702,906.05Zm-176.46-25.32,36.89,3.64c.89.18,54.74,12.31,112.84,15.31s121.15-5.3,121.78-5.39l42.15-1.9-7.82-48.55a2.56,2.56,0,0,1,0-.39L1825,540.57l-19.48-6.69a2.69,2.69,0,0,1-1.11-.7l-10.8-11.06c-8.52,0-60.29.11-106.58-2-45.07-2.09-86-6.34-94.44-7.24l-9.82,12.58a2.82,2.82,0,0,1-1.37,1l-20,6.48-27.79,293.38Z"/><path d="M1714.74,853.14c-82.22,0-165.74-18.65-166.75-18.88a2.86,2.86,0,0,1,1.27-5.57c1.21.27,122.12,27.24,215.42,16a2.86,2.86,0,0,1,.68,5.67A425.4,425.4,0,0,1,1714.74,853.14Z"/><path d="M1710.42,549.85c-2.75,0-5.54,0-8.39-.12-7.88-.22-15.51-2-22.89-3.78-6.62-1.57-13.46-3.19-20.39-3.62-52.7-3.31-99-7.73-99.41-7.78a2.85,2.85,0,0,1,.54-5.68c.46,0,46.62,4.46,99.23,7.76,7.41.46,14.49,2.14,21.35,3.77,7.42,1.75,14.43,3.42,21.73,3.62,21.19.6,38.72-1.18,55.68-2.9,5.78-.59,11.4-1.16,16.94-1.6,28.13-2.28,51.32-3.07,51.55-3.08a2.76,2.76,0,0,1,3,2.76,2.85,2.85,0,0,1-2.76,2.95c-.23,0-23.3.79-51.28,3.06-5.5.44-11.08,1-16.82,1.59C1744.27,548.24,1728.44,549.85,1710.42,549.85Z"/><path d="M1590.89,536.24h-.15a2.86,2.86,0,0,1-2.7-3l1.24-23a2.9,2.9,0,0,1,3-2.7,2.86,2.86,0,0,1,2.7,3l-1.25,23A2.85,2.85,0,0,1,1590.89,536.24Z"/><path d="M1795.14,542.93a2.85,2.85,0,0,1-2.85-2.76l-.65-19.35a2.86,2.86,0,0,1,2.76-3h.1a2.85,2.85,0,0,1,2.85,2.76L1798,540a2.86,2.86,0,0,1-2.76,2.95Z"/><path d="M1779,544.69h-.13a2.86,2.86,0,0,1-2.73-3c.08-1.71,7.24-171.88-16.15-255.44a30.93,30.93,0,0,0-7.18-12.58,2.86,2.86,0,1,1,4.21-3.86,36.79,36.79,0,0,1,8.48,14.9c23.63,84.44,16.43,255.51,16.35,257.23A2.85,2.85,0,0,1,1779,544.69Z"/><path d="M1612.29,537.09H1612a2.87,2.87,0,0,1-2.57-3.12c.18-1.78,17.61-178.63,46.16-260.29a29.53,29.53,0,0,1,6.47-10.55,2.85,2.85,0,0,1,4.15,3.92,23.86,23.86,0,0,0-5.23,8.52c-28.32,81-45.69,257.18-45.86,259A2.86,2.86,0,0,1,1612.29,537.09Z"/><path d="M1769.89,521.25h-.05a2.85,2.85,0,0,1-2.8-2.91c0-1.62,2.84-163.11-14.49-241.78-.19-.84-.41-1.67-.66-2.48a2.86,2.86,0,0,1,5.46-1.68c.3,1,.55,1.93.77,2.92,17.48,79.34,14.66,241.5,14.63,243.13A2.85,2.85,0,0,1,1769.89,521.25Z"/><path d="M1623.46,514.74a1.46,1.46,0,0,1-.29,0,2.84,2.84,0,0,1-2.55-3.12c.16-1.6,16.44-160.08,44.92-241.83a2.85,2.85,0,0,1,5.39,1.88c-28.25,81.11-44.47,238.94-44.63,240.52A2.86,2.86,0,0,1,1623.46,514.74Z"/><path d="M1524.7,845.22a3,3,0,0,1-.82-.12l-52.25-15.56a2.85,2.85,0,0,1-1.81-3.87l16.6-38.48,54.07-272.3a2.85,2.85,0,0,1,1.33-1.89l22.89-13.73a2.74,2.74,0,0,1,1.84-.39c.58.08,57.81,7.58,106.62,9.15a750.6,750.6,0,0,0,90.82-2.78,2.9,2.9,0,0,1,1.82.42l16.49,10.38a2.85,2.85,0,1,1-3,4.83L1763.6,511a762.57,762.57,0,0,1-90.61,2.71c-45.55-1.46-98.34-8.06-106.19-9.07l-21,12.57L1492,788.6a3,3,0,0,1-.18.58L1476.33,825l49.18,14.63a2.86,2.86,0,0,1-.81,5.6Z"/><path d="M1576,527.72l-.31,0c-13.75-1.49-32-8.41-32.79-8.71a2.85,2.85,0,1,1,2-5.33c.18.07,18.36,7,31.37,8.37a2.85,2.85,0,0,1-.3,5.69Z"/><path d="M1563.9,524.19a3.89,3.89,0,0,1-.47,0,2.86,2.86,0,0,1-2.35-3.29l3.24-19.42a2.85,2.85,0,1,1,5.63.93l-3.23,19.43A2.86,2.86,0,0,1,1563.9,524.19Z"/><path d="M1597.73,510.07a2.88,2.88,0,0,1-2.75-3.63l66.08-237a2.86,2.86,0,0,1,5.5,1.54l-66.08,237A2.85,2.85,0,0,1,1597.73,510.07Z"/><path d="M1749.48,521.08h-.22a2.85,2.85,0,0,1-2.63-3.06c.09-1.21,8.9-121.55,3.95-239.53a2.85,2.85,0,1,1,5.7-.24c5,118.32-3.87,239-4,240.19A2.85,2.85,0,0,1,1749.48,521.08Z"/><path d="M1513.65,667.92l-.39,0a2.85,2.85,0,0,1-2.44-3.21l1.07-7.91,13.21-126.16a2.86,2.86,0,0,1,1.7-2.32l13.09-5.75a2.85,2.85,0,1,1,2.29,5.23l-11.57,5.08-13,124.6-1.08,8A2.86,2.86,0,0,1,1513.65,667.92Z"/><path d="M1524.55,859a3.29,3.29,0,0,1-.54,0l-40.17-7.72a2.85,2.85,0,0,1-2.26-3.36l3.21-16a2.86,2.86,0,0,1,5.6,1.12l-2.64,13.14,37.33,7.17a2.86,2.86,0,0,1-.53,5.66Z"/><path d="M1538.59,536.58a3.15,3.15,0,0,1-.61-.06l-9.39-2.06a2.86,2.86,0,0,1,1.22-5.58l9.39,2.06a2.85,2.85,0,0,1-.61,5.64Z"/><path d="M1586.72,518.87a2.79,2.79,0,0,1-.64-.07,2.86,2.86,0,0,1-2.14-3.43c.38-1.68,39.36-169.14,77-255.67a2.86,2.86,0,1,1,5.24,2.28c-37.4,86-76.25,253-76.64,254.68A2.85,2.85,0,0,1,1586.72,518.87Z"/><path d="M1756,510.88a2.86,2.86,0,0,1-2.86-2.8l-4.08-222.31a2.86,2.86,0,0,1,2.81-2.9h.05a2.85,2.85,0,0,1,2.85,2.8L1758.86,508a2.86,2.86,0,0,1-2.81,2.9Z"/><path d="M1521,801.57a2.82,2.82,0,0,1-.8-.12l-29-8.49a2.86,2.86,0,1,1,1.61-5.48l29,8.49a2.86,2.86,0,0,1-.81,5.6Z"/><path class="cls-13" d="M962.14,310.26c-2.36-6.45-6.29-29.21-6.29-29.21s-3.89,24.58-5.26,29.75c-1.24,4.64-18.39,7.29-18.39,7.29s16.71,2.54,18.47,7.41,6.2,32.33,6.2,32.33,4.44-26.62,5.67-32.24c1.15-5.27,18.17-7.76,18.17-7.76S964,315.28,962.14,310.26Z"/><path d="M942,1386.81a2.85,2.85,0,0,1-2.83-2.49l-16.24-129a2.86,2.86,0,0,1,1.39-2.82l19-11.15,7.19-15.06a2.85,2.85,0,0,1,2.27-1.61c.45-.05,45.49-4.86,95-13.41s104.86-21.07,105.41-21.2a2.85,2.85,0,0,1,2.2.4l3.75,2.46-3,4.84-2.84-1.86c-8.32,1.87-58.86,13.1-104.52,21-44.45,7.68-85.32,12.35-93.78,13.29l-6.87,14.41a2.92,2.92,0,0,1-1.13,1.23l-18.16,10.64,16,127.14a2.85,2.85,0,0,1-2.47,3.19A2.23,2.23,0,0,1,942,1386.81Z"/><path d="M957.8,1253.47a2.85,2.85,0,0,1-2.82-2.39l-3.75-22.75a2.86,2.86,0,0,1,5.64-.93l3.75,22.75a2.85,2.85,0,0,1-2.36,3.28A2.38,2.38,0,0,1,957.8,1253.47Z"/><path d="M1138.94,1206.41a2.84,2.84,0,0,1-2.62-1.73l-64.66-149.76a2.85,2.85,0,0,1,5.24-2.26l64.66,149.76a2.87,2.87,0,0,1-2.62,4Z"/><path d="M978.87,1249.68a2.87,2.87,0,0,1-2.84-2.56c-1-9.56-23.72-234.3,25.3-249.28a2.85,2.85,0,1,1,1.67,5.46c-37,11.31-27.91,179.41-21.29,243.23a2.85,2.85,0,0,1-2.54,3.14Z"/><path d="M1129.36,1200.23a2.85,2.85,0,0,1-2.65-1.79l-56.79-140.88a2.85,2.85,0,1,1,5.29-2.14l56.8,140.89a2.84,2.84,0,0,1-1.59,3.71A2.64,2.64,0,0,1,1129.36,1200.23Z"/><path d="M985,1225.45a2.86,2.86,0,0,1-2.82-2.42c-1.16-7.59-28-186,12.64-217.36a2.86,2.86,0,1,1,3.49,4.52c-38,29.29-10.76,210.15-10.48,212a2.86,2.86,0,0,1-2.39,3.26Z"/><path d="M913.49,1387.08a2.85,2.85,0,0,1-2.85-2.72l-5.46-113.61-.58-27.33a2.84,2.84,0,0,1,.89-2.14l19.39-18.34a2.89,2.89,0,0,1,1.72-.77c.57-.05,58.07-5.06,106.08-14.05a748.65,748.65,0,0,0,88.07-22.31,2.92,2.92,0,0,1,1.87,0l18.35,6.58a2.86,2.86,0,0,1-1.93,5.38l-17.42-6.25a761.6,761.6,0,0,1-87.89,22.19c-44.8,8.39-97.76,13.33-105.65,14l-17.75,16.79.56,26,5.45,113.54a2.86,2.86,0,0,1-2.71,3Z"/><path d="M932.52,1248.79a193.82,193.82,0,0,1-24.72-1.87,2.86,2.86,0,0,1,.83-5.65c.2,0,19.43,2.82,32.45,1.4a2.86,2.86,0,1,1,.62,5.68A84.69,84.69,0,0,1,932.52,1248.79Z"/><path d="M928.84,1247.52a2.85,2.85,0,0,1-2.85-2.71l-1-19.66a2.86,2.86,0,1,1,5.71-.3l1,19.67a2.85,2.85,0,0,1-2.7,3Z"/><path d="M958.83,1226.44a2.86,2.86,0,0,1-2.85-2.79c-.2-7.94-4.26-194.79,41-223.29a2.86,2.86,0,0,1,3,4.83c-42.53,26.79-38.37,216.41-38.32,218.32a2.86,2.86,0,0,1-2.78,2.93Z"/><path d="M1109.38,1204.47a2.85,2.85,0,0,1-2.72-2l-41.48-131.87a2.86,2.86,0,1,1,5.45-1.72l41.47,131.88a2.85,2.85,0,0,1-1.86,3.58A2.9,2.9,0,0,1,1109.38,1204.47Z"/><path d="M904.76,1386.55a2.85,2.85,0,0,1-2.84-2.65L893,1262a2.88,2.88,0,0,1,1.16-2.52l11.55-8.44a2.86,2.86,0,0,1,3.37,4.61l-10.27,7.51,8.86,120.34a2.85,2.85,0,0,1-2.64,3Z"/><path d="M897.19,1265.1a2.86,2.86,0,0,1,0-5.71l9.6,0h0a2.86,2.86,0,0,1,0,5.71l-9.6,0Z"/><path d="M949.66,1236a2.85,2.85,0,0,1-2.84-2.65c-.52-7.24-12-177.89,41.21-224.16a2.86,2.86,0,1,1,3.75,4.31c-51.06,44.4-39.39,217.7-39.27,219.44a2.85,2.85,0,0,1-2.64,3Z"/><path d="M1113.55,1193.11a2.84,2.84,0,0,1-2.7-1.95l-43.18-128a2.85,2.85,0,1,1,5.41-1.82l43.18,128a2.86,2.86,0,0,1-2.71,3.77Z"/><path d="M925.77,1259a2.86,2.86,0,0,1-.34-5.69c.46-.06,46.49-5.7,98.56-13.82,7.38-1.15,16.69-1.16,23.06-1a2.86,2.86,0,0,1,0,5.71h0c-6.15-.1-15.14-.1-22.09,1-52.17,8.14-98.29,13.79-98.75,13.84A2,2,0,0,1,925.77,1259Z"/><path d="M1009.76,1383.49a2.85,2.85,0,0,1-2.71-1.94l-30.43-90.22a2.87,2.87,0,0,1,.78-3l16.27-14.89,3.87-16.22a2.87,2.87,0,0,1,1.89-2c.43-.14,43.47-14.28,90.1-33s98.11-42.55,98.63-42.79a2.79,2.79,0,0,1,2.23-.07l14.91,5.76,21.81-2.13a2.8,2.8,0,0,1,2.85,1.61l82.77,172.88a2.86,2.86,0,1,1-5.15,2.47l-81.91-171.08-20.49,2a2.56,2.56,0,0,1-1.31-.18l-14.41-5.57c-7.75,3.57-54.81,25.14-97.81,42.4-41.87,16.81-80.85,29.94-88.92,32.63L999,1275.6a2.8,2.8,0,0,1-.85,1.44l-15.54,14.23,29.83,88.45a2.85,2.85,0,0,1-1.79,3.62A2.89,2.89,0,0,1,1009.76,1383.49Z"/><path d="M1009.71,1282.33a2.86,2.86,0,0,1-2.66-1.81l-8.42-21.46a2.85,2.85,0,0,1,5.31-2.09l8.43,21.46a2.86,2.86,0,0,1-1.62,3.7A2.71,2.71,0,0,1,1009.71,1282.33Z"/><path d="M1198.3,1203.61a2.85,2.85,0,0,1-2.56-1.59l-8.62-17.34a2.86,2.86,0,0,1,5.12-2.54l8.61,17.34a2.85,2.85,0,0,1-1.28,3.83A2.89,2.89,0,0,1,1198.3,1203.61Z"/><path d="M1184.32,1211.92a2.85,2.85,0,0,1-2.39-1.29L1074.59,1047a2.85,2.85,0,0,1,4.77-3.13l107.35,163.61a2.86,2.86,0,0,1-2.39,4.42Z"/><path d="M1029.52,1274.22a2.86,2.86,0,0,1-2.75-2.11c-2.53-9.3-61.52-228.14-36.14-259.36a2.85,2.85,0,1,1,4.43,3.6c-19.54,24,20.24,191.69,37.22,254.27a2.86,2.86,0,0,1-2,3.5A3.22,3.22,0,0,1,1029.52,1274.22Z"/><path d="M979.55,1294.41a2.86,2.86,0,0,1-.93-5.56c.43-.15,44.26-15.3,93.48-34.13,6.94-2.66,14.09-4.07,21-5.44,7.48-1.49,14.55-2.89,21.27-5.73,19.54-8.25,34.76-17.16,49.49-25.78,5-2.93,9.86-5.77,14.7-8.48,24.64-13.74,45.41-24.09,45.62-24.2a2.86,2.86,0,1,1,2.54,5.12c-.2.1-20.86,10.39-45.37,24.07-4.81,2.69-9.64,5.51-14.61,8.42-14.19,8.3-30.27,17.72-50.15,26.11-7.26,3.07-14.95,4.59-22.38,6.07-6.68,1.32-13.58,2.69-20.06,5.17-49.32,18.87-93.23,34-93.67,34.2A2.76,2.76,0,0,1,979.55,1294.41Z"/></g></svg>