<svg id="Layer_1" data-name="Layer 1" xmlns="http://www.w3.org/2000/svg" viewBox="0 0 2742 1523"><defs><style>.cls-1{fill:#e1dff8;}.cls-1,.cls-2,.cls-3,.cls-4,.cls-5,.cls-6,.cls-7,.cls-8{fill-rule:evenodd;}.cls-2{fill:#7f84af;}.cls-3{fill:#9f7a63;}.cls-4{fill:#ffddc0;}.cls-5{fill:#e6bebe;}.cls-7{fill:#fff;}.cls-8{fill:#b4eca4;}.cls-9{fill:#9a9bbe;}</style></defs><g id="Ñëîé_3" data-name="Ñëîé 3"><path class="cls-1" d="M0,0H2742V1522.55H0Z"/></g><g id="Ñëîé_1" data-name="Ñëîé 1"><path class="cls-2" d="M1498.69,596.16,1180.52,663.9l-93.47,89.5s-25.34-3.76-31.29,5.85C1047.27,773,1045,807.4,1038,850.8c-14.37,88.69-29.9,210.74-28.82,245.76,2.08,67.53,46.1,140.06,112.58,98.74,17.38-10.81,32.74-29.33,45.29-52.45,15.85-29.23,35.11-81.35,35.11-81.35s11.89,34.53,10.74,85.17c-1.1,48.64-23,170.88-26.08,217.52-2.44,37.32-5.3,66.14-5.3,66.14s102.16,32.81,228.58,32.81,252.8-30.28,252.8-30.28-5.85-65.78-7.29-90.93c-2.35-41.33-14.19-78.64-6.9-152.29,8.69-87.84,32.46-217.78,37.85-312.77,1.8-31.62,4.1-76.41-1.68-123.12-6.16-49.82-20.86-100.9-32.76-109.66-29.85-22-63.4-32.38-93.4-36C1521.31,603.49,1498.69,596.16,1498.69,596.16Z"/><path class="cls-3" d="M1470,605.08l31.25-8.29,38.57,8.56s-.27-14.39-5.43-21.73-13.87-14.73-15.62-19.32,4.45-22.84.78-47.21c-3.74-24.74-23.37-67.61-27.65-92.6-7.72-45.13-21.74-84.36-26.79-91.62-8-11.47-31.6-23.74-49.21-25.21-26.18-2.19-48.58,11.63-48.58,11.63s-29.09-8.67-43.59-9.68c-19.81-1.39-28.82,5.78-49.09,9.19-15.93,2.68-42.43.7-56.34,6.25-17.3,6.91-32.66,15.75-45.08,25.78-21.27,17.19-30,40.5-39,60.4-7.1,15.71-16,29.29-19.66,36-8.79,16.37-5.87,46.92-6.88,62.9-2.55,40.78,6.68,61.37,6.68,61.37l255.24.78Z"/><path class="cls-4" d="M1428.31,397.24s-19.46-24.26-32.33-34-19.14-4.95-19.14-4.95-18.52-21.31-27.32-24.74c-15.32-6-10.19,20.49-10.19,20.49s-19-1.58-13.75,12.55c5.2,14,20.11,40.47,30,62.43,9.51,21.19,16.31,36.83,8.35,29.52S1342,417,1323.73,399.81c-8-7.49-14.54-2.3-15.63,5.33-1.28,9,20.54,43.26,32.43,74.58C1350.87,507,1353,542.47,1353,542.47s-20,.75-37.37-5.47-31.28-10.67-31.28-10.67-18.73,1.76-34.22-2.41c-9.53-2.57-22-10.11-30.52-20.18-8-9.38-13.28-22.75-23.12-25.76-11.18-3.43-28,1.29-33.89,10.57-1,1.5-3.2,10.53-3.3,16.36-.22,12.7,2.51,28-.16,42.5-1.81,9.85-13.15,18.19-13.15,18.19l-8,3.85s-10.73-40.9-9.72-45.46c5.15-23.13,29.33-75.63,30.35-82.92,1.45-10.39-5.39-11.12-5.39-11.12s9.29-19.34,12.82-32.3c3.35-12.31,1.09-18.33-4-16.2-19,8-44.1,49.23-55.53,71.07-9.47,18.08-8.46,53.91-8.46,53.91s-8,13.77-8.76,22.68c-1.93,23.89,4.23,82.71,1.74,104.55-8.84,77.52-23.06,136.51-23.06,136.51s18.42,23.22,39.38,28.06,44.49-8.71,44.49-8.71,1.92-51.76,9.24-82.87c4.53-19.27,22-41.71,22-41.71l8.18,20.74s24.74,39.5,63,65.42c27.59,18.69,47.84,8.63,47.84,8.63s14,20.86,31.47,25,38.21-8.44,38.21-8.44-1.16-10.88,2.51-20.87,12.2-19.11,12.2-19.11l.46,33.92a51.72,51.72,0,0,0,44.12,2.47c24-9.88,52.15-42.58,52.15-42.58L1473,667.49a133.32,133.32,0,0,0,15.82-28.88c6.58-16.75,10.51-38.14,10.51-38.14l-27.81-9.84s2.13-23.51,2.38-26.16c2.16-22.49,9.72-46.93,6.62-65.69C1466.79,415.56,1428.31,397.24,1428.31,397.24Z"/><path class="cls-5" d="M1353.38,543.79s-21.13-.95-38.11-7a140.56,140.56,0,0,1-30.1-15.55,58.78,58.78,0,0,1-48.66-4.21c-7.76-4.37-13.71-10.28-19.65-18.6-6.45-9-12.84-20.45-20.54-24.25-4.48-2.21-15.94-.52-20.09,1.22-7.6,3.19-13.26,7.64-15.63,15.76-4.51,15.49-.74,38.95-1.7,54.74-.77,12.62-12.49,21.19-12.49,21.19l19.27,41.79,11.67,30.65s13.46,11.48,33,2.83c9.33-4.14,17.79-21.77,33.07-23.33,15.83-1.63,49.72,19.63,74.73,16.07,24-3.41,47.05-31,47.05-31Z"/><path d="M1310.46,615.28a2.85,2.85,0,0,1-2-4.87,11.69,11.69,0,0,0,3-7.37,2.86,2.86,0,1,1,5.71,0,17.51,17.51,0,0,1-4.72,11.41A2.88,2.88,0,0,1,1310.46,615.28Z"/><path d="M1194.07,630.19a3.1,3.1,0,0,1-.73-.09c-.5-.13-5-1.47-9.17-7.47a2.86,2.86,0,0,1,4.7-3.25c2.94,4.25,5.86,5.17,6,5.21a2.87,2.87,0,0,1,1.94,3.52A2.84,2.84,0,0,1,1194.07,630.19Z"/><path d="M1482.6,731.2a2.86,2.86,0,0,1-2.8-2.35c-2.5-13.86-10.84-61.91-13.1-98-.83-13.27,1.33-37.5,2.91-55.19l.32-3.61c.76-8.54,2.19-17.52,3.57-26.19,2.62-16.44,5.32-33.45,3.6-48.32a172.25,172.25,0,0,0-25.39-71.14c-10.63-16.71-20.39-26.82-26.78-27.73a2.85,2.85,0,1,1,.81-5.65c10.45,1.49,22.51,17.31,30.78,30.32a178,178,0,0,1,26.25,73.54c1.81,15.65-1,33-3.64,49.88-1.36,8.58-2.77,17.45-3.51,25.79l-.32,3.62c-1.57,17.51-3.7,41.49-2.9,54.32,2.24,35.82,10.53,83.59,13,97.38a2.86,2.86,0,0,1-2.31,3.32A2.92,2.92,0,0,1,1482.6,731.2Z"/><path d="M1583.63,1078.32a2.86,2.86,0,0,1-2.85-2.69c-1.53-25.38-11.42-53.27-23.93-88.57-8.11-22.88-17.3-48.8-26.11-79.29-17-58.72-25-126.33-29.25-162.65-1.35-11.38-2.33-19.6-3-22.39-3.8-15.88-4.19-17.54-19.2-19.07a2.85,2.85,0,1,1,.58-5.68c18.28,1.86,20.1,6.4,24.18,23.42.74,3.12,1.69,11.05,3.11,23.05,4.28,36.16,12.25,103.46,29.07,161.73,8.75,30.33,17.91,56.17,26,79,12.66,35.73,22.67,63.95,24.25,90.14a2.85,2.85,0,0,1-2.68,3Z"/><path d="M1460,475.9a2.85,2.85,0,0,1-2.74-2c-.13-.42-13-42.71-23.7-60.45-16.22-26.91-46.41-58.06-56.21-54.22a2.86,2.86,0,0,1-2.07-5.33c16.73-6.53,51.5,37.25,63.17,56.6,11.08,18.35,23.74,60,24.28,61.75a2.86,2.86,0,0,1-1.91,3.56A2.91,2.91,0,0,1,1460,475.9Z"/><path d="M1437.39,476.8a2.86,2.86,0,0,1-2.78-2.23c-.08-.39-8.83-39-24.38-64.6-10.35-17-34.64-49-53-67.71-4.71-4.8-10.47-7.17-13.42-5.48s-3.4,8.45-.84,17.86a2.86,2.86,0,0,1-5.51,1.5c-4.34-15.94-.49-22,3.51-24.31,5.37-3.09,13.55-.5,20.34,6.43,18.59,19,43.25,51.46,53.75,68.74,16.05,26.42,24.72,64.71,25.09,66.33a2.85,2.85,0,0,1-2.17,3.4A2.7,2.7,0,0,1,1437.39,476.8Z"/><path d="M1410,481.63a2.86,2.86,0,0,1-2.75-2.06c-.08-.3-8.84-30.46-20.68-57.26-5.82-13.17-30.91-49.31-45.34-61.67-3.62-3.1-8.46-4.44-10.79-3-1.92,1.2-2.26,4.75-1,9.72s6.38,14.78,12.2,26c5.63,10.85,12,23.15,17.88,36.41,7.88,17.75,15.16,43.77,15.47,44.87a2.85,2.85,0,1,1-5.5,1.53c-.08-.26-7.48-26.72-15.18-44.08-5.81-13.1-12.15-25.32-17.74-36.1-6.22-12-11.14-21.5-12.65-27.19-2.73-10.34,1-14.47,3.44-16,5.11-3.2,12.68-.68,17.53,3.48,15.22,13,40.7,49.76,46.85,63.69,12,27.16,20.86,57.68,21,58a2.86,2.86,0,0,1-2,3.54A3.07,3.07,0,0,1,1410,481.63Z"/><path d="M1387.63,772.39a2.87,2.87,0,0,1-2.86-2.84c-.27-33.64-2.36-79.62-4.86-106.95-1.62-17.8-6.49-29.77-11.65-42.44-4.74-11.61-9.63-23.63-12-40.55l-1.82-12.92c-4.06-29.06-7.91-56.51-12.11-71.83-7.22-26.37-33.65-77.23-33.92-77.75a2.75,2.75,0,0,1-.2-.5c-4.83-16.18.66-21.39,3.24-22.87,4.31-2.47,10.06-.73,15,4.56,21.19,22.59,51.3,82.75,52.57,85.3a2.85,2.85,0,0,1-5.11,2.54c-.31-.61-31-62-51.63-83.93-3-3.16-6.19-4.57-8-3.52-2.31,1.32-3.41,6.79-.7,16,2.25,4.33,27,52.35,34.24,78.63,4.29,15.68,8.16,43.3,12.26,72.54l1.81,12.92c2.3,16.22,7,27.9,11.65,39.2,5.09,12.5,10.36,25.42,12.06,44.07,2.88,31.63,4.64,78,4.88,107.43a2.85,2.85,0,0,1-2.83,2.88Z"/><path d="M1483.75,1214.62c-10.37,0-19.47-3.21-26.73-9.5-24.17-20.93-45.75-83.71-56.31-163.82-2-14.78-4.22-31.5-6.62-49.25-11.9-87.68-26.69-196.8-24.76-229.29.8-13.51,13.36-28.38,16.52-29.67a2.86,2.86,0,0,1,2.35,5.2c-2.11,1.49-12.53,14-13.17,24.81-1.9,31.94,12.86,140.75,24.71,228.18,2.41,17.76,4.68,34.48,6.63,49.28,10.23,77.59,31.58,140.49,54.39,160.24,8.57,7.44,20.33,9.81,34,6.87,35.79-7.69,75.18-47.79,100.33-102.16,34.25-74,70-249.48,70.38-251.24a2.85,2.85,0,1,1,5.59,1.14c-.36,1.77-36.26,177.86-70.79,252.5-25.88,55.93-66.83,97.29-104.31,105.35A58.65,58.65,0,0,1,1483.75,1214.62Z"/><path d="M1084.05,1211.45c-11.09,0-21.93-3.83-31.91-11.38-27.25-20.61-46.32-68.35-46.38-116.08,0-52.16,16.56-154.8,33.58-255.46,1.45-8.54,2.7-16.66,3.85-24.15,2.82-18.24,5-32.64,8.11-40.78,4.44-11.8,10.93-12,16.15-12.19.93,0,1.87-.06,2.8-.17a2.85,2.85,0,1,1,.66,5.67c-1.09.13-2.19.17-3.27.2-4.76.16-7.9.27-11,8.5-2.86,7.59-5,21.73-7.8,39.64-1.16,7.52-2.42,15.66-3.87,24.23-17,100.42-33.55,202.78-33.5,254.5,0,46.06,18.19,91.93,44.11,111.53,12.76,9.65,26.42,12.5,40.58,8.52,43.06-12.14,81.21-66.13,102.06-144.42a2.86,2.86,0,0,1,5.52,1.47c-21.37,80.26-61,135.75-106,148.44A50.12,50.12,0,0,1,1084.05,1211.45Z"/><path d="M1068.64,771.35a3.64,3.64,0,0,1-.56-.05,2.86,2.86,0,0,1-2.24-3.36c14.5-72.33,23.24-131.11,22.88-139.79-.29-7.1-.64-14.58-1-22.17-1.76-37-3.57-75.28,1-86.44,15.75-38.74,38.17-73.58,49.06-86,6.06-6.89,12.67-9.44,17.66-6.81,2.47,1.3,7.83,5.83,4.31,19.84-1.65,6.57-5.74,16.07-10.48,27.06-8.15,18.9-18.28,42.4-17.64,56.37.26,5.47,2.91,15.84,6,27.85,5.75,22.41,13.61,53.1,12.47,77.57a2.82,2.82,0,0,1-3,2.72,2.85,2.85,0,0,1-2.71-3c1.1-23.61-6.64-53.82-12.3-75.88-3.28-12.82-5.88-22.95-6.16-29-.71-15.29,9.28-38.45,18.1-58.9,4.44-10.32,8.65-20.07,10.19-26.19,1.93-7.72.68-12.29-1.43-13.39s-6.09.25-10.72,5.52c-10.63,12.08-32.56,46.22-48.06,84.34-4.06,10-2.2,49.32-.56,84,.36,7.6.72,15.1,1,22.21.37,9.18-8.19,67.31-23,141.14A2.85,2.85,0,0,1,1068.64,771.35Z"/><path d="M1096.37,511.44h-.19a2.84,2.84,0,0,1-2.66-3c.12-1.75,3-43,11.07-57.86,16.8-30.93,41.56-68.3,56.05-71.82a8,8,0,0,1,6.63,1c11,7.49-5.14,39.25-10.37,48.81a2.86,2.86,0,0,1-5-2.74c9.55-17.48,16.72-38.27,12.17-41.35a2.38,2.38,0,0,0-2.07-.16c-10,2.41-32,31.43-52.38,69-7.48,13.77-10.36,55.11-10.39,55.53A2.86,2.86,0,0,1,1096.37,511.44Z"/><path d="M1180.69,1433.18h-.21a2.85,2.85,0,0,1-2.64-3.06c3.41-46.29,11.57-110.29,18.76-166.75,5.79-45.46,10.79-84.72,12.47-107.54,2.35-31.86-5.47-71.68-13-110.19-5.69-29-11.07-56.39-11.41-77.63-.22-14.46.52-28.74,1.24-42.55,1.77-33.86,3.44-65.84-7.89-101.25a2.86,2.86,0,0,1,5.44-1.74c11.65,36.4,9.87,70.4,8.15,103.29-.71,13.71-1.45,27.9-1.23,42.16.33,20.73,5.66,47.88,11.31,76.62,7.63,38.88,15.53,79.08,13.13,111.7-1.69,23-6.7,62.31-12.51,107.85-7.18,56.4-15.32,120.31-18.73,166.45A2.86,2.86,0,0,1,1180.69,1433.18Z"/><path d="M1152.12,792.23H1152a2.87,2.87,0,0,1-2.7-3c1.71-30.89,5.54-62.44,8.38-78.68,3.72-21.27,21.66-46.43,22.42-47.5a2.86,2.86,0,0,1,4.64,3.33c-.18.25-17.94,25.18-21.43,45.15-2.82,16.08-6.61,47.35-8.31,78A2.85,2.85,0,0,1,1152.12,792.23Z"/><path d="M1155.64,1113.23l-.34,0a2.86,2.86,0,0,1-2.5-3.17c5.68-48.41,4-76.18,2.08-108.33-1.16-19.2-2.47-41-2.28-69.64.29-42.45,3.69-72,6.42-95.67,2.16-18.76,4-35,3.72-52a13.58,13.58,0,0,0-8.74-12.67,2.86,2.86,0,0,1,1.8-5.42,19.31,19.31,0,0,1,12.65,18c.32,17.38-1.57,33.77-3.76,52.74-2.71,23.57-6.09,52.9-6.38,95.05-.19,28.49,1.12,50.15,2.27,69.25,2,32.43,3.63,60.43-2.11,109.34A2.85,2.85,0,0,1,1155.64,1113.23Z"/><path d="M1499.34,601.66a3.18,3.18,0,0,1-.74-.09c-1.24-.34-2.76-.73-4.42-1.16-7.06-1.82-16.73-4.3-21.2-6.45a2.86,2.86,0,0,1,2.47-5.15c4,1.91,13.71,4.41,20.15,6.07,1.69.44,3.22.83,4.48,1.17a2.85,2.85,0,0,1-.74,5.61Z"/><path d="M1662.23,1437.55a2.86,2.86,0,0,1-2.86-2.77c-1.44-46.94-6.16-86.72-10.31-121.81-4.09-34.52-7.62-64.34-6.4-89.52,3.48-71.47,10.66-112.58,18.26-156.1,4.39-25.16,8.94-51.17,12.71-83.67,21.46-184.51,14-281.64-25.62-335.26-18.86-25.5-55.85-31-91.62-36.29-6.79-1-13.54-2-20.13-3.14a163.53,163.53,0,0,1-26.83-7c-6.44-2.18-10.7-3.64-14.91-2.89a2.85,2.85,0,1,1-1-5.62c5.64-1,10.71.73,17.72,3.1a155.43,155.43,0,0,0,26,6.83c6.55,1.13,13.25,2.12,20,3.12,36.92,5.48,75.09,11.14,95.36,38.55,40.61,54.9,48.35,153.21,26.71,339.31-3.79,32.67-8.35,58.76-12.76,84-7.56,43.34-14.72,84.29-18.17,155.4-1.2,24.7,2.3,54.3,6.36,88.57,4.17,35.21,8.9,75.11,10.35,122.3a2.86,2.86,0,0,1-2.76,3Z"/><path d="M1506.8,763.54a3,3,0,0,1-.87-.13,2.86,2.86,0,0,1-1.85-3.59c20.34-63.72,49.62-100.7,68.51-113a2.85,2.85,0,0,1,3.12,4.78c-4,2.62-40,27.95-66.19,110A2.85,2.85,0,0,1,1506.8,763.54Z"/><path d="M1342.74,788.36c-20.44,0-35.6-14.07-44.12-24.67a2.86,2.86,0,0,1,4.45-3.58c13.38,16.66,35.59,32.68,65.41,14.48a2.85,2.85,0,1,1,3,4.87C1361,785.84,1351.4,788.36,1342.74,788.36Z"/><path d="M1215.29,844.9a2.85,2.85,0,0,1-2.8-2.35c-8.13-45.13-34-92.22-54.51-116.88a2.86,2.86,0,0,1,4.39-3.66c21,25.22,47.43,73.38,55.74,119.53a2.87,2.87,0,0,1-2.31,3.32A2.92,2.92,0,0,1,1215.29,844.9Z"/><path d="M1400.9,1392.63c-1.42,0-2.84,0-4.27,0a2.85,2.85,0,1,1,0-5.7h4.2c125.07,0,176.56-54,207.47-86.35l2.2-2.31a2.85,2.85,0,1,1,4.12,4l-2.19,2.3C1580.94,1337.56,1528.39,1392.63,1400.9,1392.63Z"/><path d="M1286.62,765.4a27.42,27.42,0,0,1-4.77-.39c-15.89-2.73-31.73-13.42-42.22-21.91-27.53-22.26-46-44.28-53.54-63.68-5.43-14.07-8.47-24.59-11.42-34.77-2.18-7.55-4.25-14.67-7.13-22.63a257.09,257.09,0,0,0-11-25c-2.49-5.12-5.06-10.43-7.44-15.93l-.66-1.49c-1.19-2.7-3-6.77-4.78-11.79a2.85,2.85,0,1,1,5.37-1.92c1.73,4.82,3.48,8.78,4.63,11.4l.67,1.53c2.34,5.39,4.89,10.64,7.35,15.71a265.83,265.83,0,0,1,11.27,25.56c2.95,8.14,5,15.36,7.25,23,2.91,10.07,5.92,20.47,11.26,34.3,7,18.2,25.43,40,51.8,61.31,14.09,11.39,28.15,18.75,39.6,20.72,23.75,4.1,69.41-31.36,93.23-58.52.39-.45,2-2.67,3.62-4.76s2.84-3.76,3.16-4.14a2.86,2.86,0,0,1,4.35,3.7c-.31.36-1.59,2.07-3,3.87-1.69,2.26-3.5,4.65-3.9,5.1C1357.92,730.2,1314.16,765.4,1286.62,765.4Z"/><path d="M1241.91,665.62a2.8,2.8,0,0,1-1.6-.5c-8-5.48-11.87-10-12.54-14.54-.71-4.81,2.25-8.47,5.11-12s5.64-7,5.82-11.89c.47-13.22-14.23-33.69-14.38-33.89a2.86,2.86,0,0,1,4.63-3.35c.65.9,16,22.26,15.45,37.44-.24,6.82-4,11.51-7.07,15.28-2.64,3.26-4.24,5.37-3.91,7.59.4,2.76,3.8,6.34,10.11,10.66a2.86,2.86,0,0,1-1.62,5.21Z"/><path d="M1295.93,555.41a4.38,4.38,0,0,1-.5,0,137.71,137.71,0,0,0-21-1.83c-11.9-.35-20.5-.61-28.08-11.13a2.85,2.85,0,0,1,4.63-3.34c5.94,8.24,12.22,8.43,23.62,8.76a145.1,145.1,0,0,1,21.77,1.91,2.86,2.86,0,0,1-.49,5.67Z"/><path d="M1167.19,568.93a2.85,2.85,0,0,1-1.9-5c9.22-8.28,16.12-10.88,20.68-12.6,5.57-2.1,7.07-2.67,7.75-11.67a2.85,2.85,0,1,1,5.69.42c-.91,12.08-4.54,14-11.42,16.59-4.42,1.66-10.47,3.94-18.89,11.51A2.84,2.84,0,0,1,1167.19,568.93Z"/><path d="M1345.54,546.75c-21.12,0-65.46-14.83-96.68-50a2.85,2.85,0,1,1,4.27-3.79c32.17,36.24,80,50.38,96.59,47.8a2.85,2.85,0,0,1,.88,5.64A33.4,33.4,0,0,1,1345.54,546.75Z"/><path d="M1198.8,416.15a3.66,3.66,0,0,1-.57,0,2.87,2.87,0,0,1-2.24-3.37c.37-1.8,9.33-44.49,46.36-66.75a2.85,2.85,0,1,1,2.94,4.89c-34.9,21-43.61,62.57-43.7,63A2.85,2.85,0,0,1,1198.8,416.15Z"/><path class="cls-6" d="M1188.11,610.33c-2.47-7.72.07-15.44,5.69-17.24s12.16,3,14.63,10.75-.08,15.45-5.69,17.24S1190.58,618.06,1188.11,610.33Z"/><path class="cls-6" d="M1283.45,601.07c-2.17-7.82,1.06-15.55,7.21-17.26s12.91,3.24,15.09,11.05-1,15.55-7.21,17.26S1285.63,608.88,1283.45,601.07Z"/><path d="M1239.07,549.23a2.86,2.86,0,0,1-2.26-1.11,69.49,69.49,0,0,1-7.06-11.41,2.85,2.85,0,1,1,5.19-2.37,64.26,64.26,0,0,0,6.39,10.29,2.86,2.86,0,0,1-2.26,4.6Z"/><path class="cls-7" d="M1268.14,691.19c18.86-7.8,32.11-14.58,43.71-3.47,6.57,6.29,5.68,16-4.53,17.13-9.45,1-29.7-.57-39.12.32-12,1.14-21.35,7.31-28,4.75s-12.82-16.6-9.62-21C1232.6,686.1,1249.29,699,1268.14,691.19Z"/><path d="M1243.8,713.4a12.8,12.8,0,0,1-4.63-.81c-5.44-2.1-9.75-9.24-11.46-15-.92-3.11-1.58-7.45.54-10.38,1.92-2.65,5.16-1.52,9.64,0,6.56,2.28,17.54,6.1,29.16,1.29h0l3.93-1.64c17.16-7.19,30.71-12.87,42.85-1.25,4.3,4.12,6.07,9.78,4.49,14.43-1.43,4.23-5.32,7-10.69,7.6-5.06.56-13,.39-20.69.22-6.93-.15-14.09-.31-18.47.1a68.47,68.47,0,0,0-13.29,3C1251,712.27,1247.28,713.4,1243.8,713.4Zm-11.21-21.86a11.84,11.84,0,0,0,.59,4.45c1.51,5.09,5.12,10.14,8,11.27s7.27-.19,12.32-1.71a72.86,72.86,0,0,1,14.39-3.22c4.71-.45,11.72-.29,19.13-.13s15.25.34,19.94-.19c2.2-.25,5-1.1,5.92-3.75s-.33-5.88-3-8.47c-9-8.63-18.77-5.12-36.69,2.39l-4,1.65c-13.61,5.63-25.89,1.37-33.22-1.17C1234.86,692.26,1233.52,691.79,1232.59,691.54Z"/><path class="cls-6" d="M1383.22,698.74a284.75,284.75,0,0,1-35.55,32.51c-20.89,16-48,31.6-48,31.6s12.12,25,33.73,13.67c33.73-17.62,49.83-66.54,49.83-66.54Z"/><path d="M1409.27,779.48c-14.32,0-27-6.08-37.15-17.88a2.85,2.85,0,1,1,4.33-3.72c11.16,13,25.16,18.08,41.59,15.07,33.23-6,66.52-43,74.83-65.84a2.86,2.86,0,0,1,5.37,2c-9,24.64-43.45,63-79.18,69.5A54.31,54.31,0,0,1,1409.27,779.48Z"/><path d="M1121,802.3a56.22,56.22,0,0,1-5.88-.3c-21.26-2.15-40.86-16-58.27-41a2.85,2.85,0,1,1,4.69-3.25c16.41,23.64,34.63,36.63,54.16,38.61,26.31,2.67,46-15.85,46.25-16a2.85,2.85,0,1,1,3.94,4.13C1165.05,785.2,1146.8,802.3,1121,802.3Z"/><path d="M1473.54,672.12a2.86,2.86,0,0,1-2.48-4.26c19.34-34.09,25.92-70.38,26-70.74a2.85,2.85,0,0,1,5.62,1c-.07.38-6.83,37.63-26.64,72.56A2.86,2.86,0,0,1,1473.54,672.12Z"/><path d="M1537.91,606.85a2.76,2.76,0,0,1-.63-.07,2.85,2.85,0,0,1-2.15-3.41c3-13.2-4-20.52-10.72-27.6-5.36-5.63-10.89-11.46-8-19.26,2.47-6.72,8.57-33.3-16.78-93.43-6.19-14.67-9.22-30.42-12.43-47.1-4.18-21.76-8.93-46.42-21.76-74.69-6.71-14.76-21.19-25.75-39.72-30.17-21-5-43.23-.7-58.08,11.23a2.86,2.86,0,0,1-3.58-4.45c16.21-13,40.34-17.73,63-12.33,20.27,4.83,36.15,17,43.59,33.36,13.12,28.88,17.93,53.9,22.18,76,3.15,16.38,6.12,31.84,12.08,46,26.16,62.06,19.53,90.41,16.88,97.62-1.57,4.27,1.4,7.68,6.79,13.35,6.67,7,15.81,16.62,12.16,32.79A2.86,2.86,0,0,1,1537.91,606.85Z"/><path d="M1262.25,529.23c-33.48,0-48.9-26.52-60.29-46.1-9.38-16.13-13.86-22.34-20.57-18.68a2.86,2.86,0,0,1-2.73-5c12.24-6.67,19.66,6.07,28.24,20.83,11.74,20.18,26.32,45.32,59.33,43.13a2.85,2.85,0,0,1,.37,5.69C1265.12,529.18,1263.66,529.23,1262.25,529.23Z"/><path d="M1139,571.6a2.85,2.85,0,0,1-1-5.52c21-8,20-23.07,18.66-42.15-1-15.16-2.2-32.35,9.52-46.88a2.85,2.85,0,1,1,4.44,3.58c-10.31,12.79-9.27,28.11-8.26,42.91,1.28,18.86,2.61,38.36-22.33,47.87A2.79,2.79,0,0,1,1139,571.6Z"/><path d="M1442.3,411.4a2.88,2.88,0,0,1-2.75-2.07c-8.33-29.25-23.79-52.67-46-69.63A130.92,130.92,0,0,0,1331,314.23c-29.55-3.85-44,6.57-44.17,6.68a2.86,2.86,0,0,1-3.44-4.56c.65-.49,16.28-12,48.35-7.78a136.51,136.51,0,0,1,65.29,26.6c23.17,17.71,39.31,42.14,48,72.59a2.86,2.86,0,0,1-2,3.53A2.63,2.63,0,0,1,1442.3,411.4Z"/><path d="M1138.4,405.47a2.72,2.72,0,0,1-1.17-.26,2.86,2.86,0,0,1-1.43-3.77c26.34-58.36,75.23-91.26,124.47-83.83a2.86,2.86,0,1,1-.85,5.65c-46.68-7.05-93.15,24.57-118.41,80.53A2.87,2.87,0,0,1,1138.4,405.47Z"/><path class="cls-7" d="M2028.44,197.25c-6.64-8-65.53-6.14-118.39,12.34-25.18,8.8-48.89,22.13-65.76,32.8-15.29,9.68-24.94,17.19-24.94,17.19s-71.75,94.12-75.49,119.65a139.25,139.25,0,0,1-3.77,17.29s-7.41,28.47,5.08,33.84c4.9,2.11,12.08-3.06,20-5.6,12.18-3.93,30-6.16,30-6.16L1914,379.13s18-8.51,40.32-28.3c16.24-14.41,35-36.74,49.45-56.64C2030.39,257.62,2040.12,211.37,2028.44,197.25Z"/><path class="cls-7" d="M1375.15,138.07a116.47,116.47,0,0,0-34.9-19.28c-21.22-7-48-8.86-63-8-20.47,1.15-39.62,8.3-53.24,18.1-17.3,12.43-23.71,25.56-28.82,32.88s-3,10.87-3,10.87,32.28,18,61.56,22.55c18.5,2.88,66.89-6.47,88.81-18.48C1365.77,164,1381.16,143,1375.15,138.07Z"/><path class="cls-7" d="M749.71,413.55l104.44,35.77,23.75,3.26s18.34,5,24.12-.89-1.24-28-1.24-28l-16-49.78L830,306.76s-30.17-26.18-73.93-42.11c-40.74-14.83-94.76-19.69-107.7-14.37-5.25,2.16-3.87,9.87-4.41,16.54-1.74,21.26,13.88,58.24,38.86,89.12C712,392,749.71,413.55,749.71,413.55Z"/><path class="cls-7" d="M896.58,854.25l-82.22-8.58s-23.16,7.52-37.54,21.42-27.76,25.6-20,34.2c3.35,3.71,19.1,11.43,40.09,11.9,22.37.49,50.28-6.64,62.48-15.65,11.23-8.28,47.19-29.64,47.19-29.64s3.77-3,1.27-6.38S896.58,854.25,896.58,854.25Z"/><path class="cls-7" d="M896.23,1237.38l24.37-43.33s8.17-7.53,5.14-12.53-17.26-7.51-17.26-7.51l-11-1.43L810,1193.88s-11.75,7.27-19.8,14.89c-11.64,11-21.54,24.59-27.1,33-21.39,32.23-21.8,57.59-21.8,57.59s8.28,6.84,18.92,7.41c37.81,2,72.25-10.53,94-24.34C886.06,1262.13,896.23,1237.38,896.23,1237.38Z"/><path class="cls-7" d="M1989.36,1169.24l-127.54,1.19s-24.25,5.16-31.28,11.58c-4.52,4.12-10.78,8.89-8.89,14.07,1.64,4.49,13.81,12.63,15.38,17.58,6.21,19.54,96.09,82.83,96.09,82.83a169.85,169.85,0,0,0,31.38,11.23c19.7,5,45.34,8,67.32,7.89,26.76-.15,50.75-6.07,66.58-13.24,14.75-6.68,22.34-14.4,20.5-20.52-6.18-20.44-20.19-34.44-33.61-48.87C2045.41,1190.12,1989.36,1169.24,1989.36,1169.24Z"/><path class="cls-7" d="M2030.6,715.88s-6.44-20.52-22.33-35.25c-18.56-17.19-48.25-28.94-68.6-28.62-18.91.3-53,6-64.12,15.7-1.37,1.2-11.58,4.9-10.86,8.38,1.14,5.55,14.06,11.3,14.06,11.3l37,26s20.44,8.64,27,11c16.47,5.77,38.67,9.6,60.3,4.29C2022.49,723.86,2030.6,715.88,2030.6,715.88Z"/><path class="cls-8" d="M830.88,306.57s-43.34-3.9-67.38,18.45c-18.46,17.16-43.71,54.2-12.12,87.58,25.31,26.73,88.82,35.53,88.82,35.53s11.08,1.59,28-2.72c6-1.51,13.81-9.13,18.55-14.44a58.52,58.52,0,0,0,11.56-18.53c2.74-7.19-.69-27.43-14.8-49.33C870.17,342.37,830.88,306.57,830.88,306.57Z"/><path class="cls-8" d="M872.55,1268.75S914,1234.54,914,1203.34c0-21.39-21.12-32.63-21.12-32.63a106,106,0,0,0-38.66,2.74c-20,5.45-41.41,19-41.41,19s-8.8,16.53-6.9,30.36c2.76,20.05,17.59,40.32,27.33,45.48C849.24,1276.84,872.55,1268.75,872.55,1268.75Z"/><path class="cls-8" d="M893.71,874.49l-1.56-21.22s-11.86-8.45-33.15-10.95-44,3.22-44,3.22-5.55,14.33-.26,26.59c8.3,19.25,36.08,32.57,51,22.44S893.71,874.49,893.71,874.49Z"/><path class="cls-8" d="M2004.85,1221.17c0-13.15-5.3-42.31-17.93-52.07-10.89-8.41-51.63-13.16-83.1-10.41a117.3,117.3,0,0,0-38.69,10.7s-13,9.86-16.64,25.1,1.86,35.87,1.86,35.87A199.87,199.87,0,0,0,1882.5,1265c19.43,16.31,45.55,30.58,45.55,30.58s36.78-1.4,55-22.35C1998.64,1255.32,2004.85,1236,2004.85,1221.17Z"/><path class="cls-8" d="M1965,680.52c0-9.88,1.25-25.3-6.88-25.3-3.05,0-17.89-4.1-34.66-2.59-15,1.34-39,11.17-39,11.17s-1.65,17.16-1.65,20c0,9.88,33.08,33.62,41.21,33.62,4,0,14.72-1.55,26-9.59C1961.79,699.51,1965,685.55,1965,680.52Z"/><path class="cls-8" d="M1925.47,351.7c4.33-11.38-.38-38.89-10.71-54.48-9.55-14.4-33.37-33.15-56.09-39.08-19.56-5.1-39.08,1.64-39.08,1.64s-32.06,25.25-51.21,53.76S1743,373.81,1743,373.81s2.06,10.28,16.7,27.49c8.28,9.74,36.77,16.08,36.77,16.08s19.83-2.7,36.09-6.07C1858.88,405.83,1912,379,1912,379S1913.17,384,1925.47,351.7Z"/><path class="cls-8" d="M1324.68,184.14s10.72-26.27,4.68-37.65-15-22.91-28.13-27.59-21.79-3.86-31.85-.27a221,221,0,0,0-21.1,9.1s-9.86,10.07-14.07,20.55,2.9,29.92,2.9,29.92l12.27,14.9s20.62,3.76,39.44,1.52S1324.68,184.14,1324.68,184.14Z"/><path d="M802.17,916.33c-20.15,0-37.8-5.35-45.44-11.09-2.64-2-4-4-4.1-6.14-.35-9.25,20.54-44,60.47-56.25,42.18-13,72.13,2.32,84.92,8.85.88.45,1.91.89,3,1.35,4.63,2,11.64,5,10.46,11.47h0c-.86,4.74-4,6-7,7.3a27.74,27.74,0,0,0-6.26,3.36c-2.76,2-5.5,4.18-8.33,6.41-14.11,11.12-30.12,23.73-62.22,31.71A105.51,105.51,0,0,1,802.17,916.33Zm43.61-72.93a104.72,104.72,0,0,0-31,4.91c-38.46,11.85-56.68,44.31-56.44,50.58,1.42,4.77,33.7,17.38,67.94,8.88,30.9-7.7,46.39-19.9,60.06-30.66,2.89-2.28,5.67-4.48,8.49-6.53a32.89,32.89,0,0,1,7.43-4c2.86-1.19,3.3-1.47,3.59-3h0c.33-1.85-3-3.46-7.11-5.21-1.19-.51-2.33-1-3.31-1.51C881.77,849.81,865.71,843.4,845.78,843.4ZM908.65,864h0Z"/><path d="M888.93,881.55a2.86,2.86,0,0,1-1.92-5c3.49-3.14,6.61-14.76,1-23.55a2.85,2.85,0,1,1,4.82-3.06c6.49,10.23,4.19,25.25-2,30.86A2.86,2.86,0,0,1,888.93,881.55Z"/><path d="M855.24,901c-22.52,0-40.74-13.1-45.11-33a38.09,38.09,0,0,1,1.59-21.4,2.85,2.85,0,0,1,5.35,2,32.45,32.45,0,0,0-1.37,18.2c4,18.38,22,30.05,43.72,28.34a2.85,2.85,0,0,1,.44,5.69Q857.52,901,855.24,901Z"/><path d="M877.65,848.35a2.87,2.87,0,0,1-2.26-1.09c-.33-.43-8.17-10.51-11.75-18.67a2.85,2.85,0,1,1,5.22-2.29c3.3,7.5,11,17.34,11,17.44a2.86,2.86,0,0,1-.49,4A2.81,2.81,0,0,1,877.65,848.35Z"/><path d="M834.92,843.83a2.82,2.82,0,0,1-.89-.15c-.58-.19-14.44-4.87-23-18a2.86,2.86,0,0,1,4.78-3.13c7.46,11.41,19.91,15.66,20,15.7a2.86,2.86,0,0,1-.9,5.57Z"/><path d="M793.24,855.38c-7.9,0-18.83-2.5-25.93-7.09a2.85,2.85,0,1,1,3.09-4.79c8.15,5.26,21.61,7,26.93,5.81a2.86,2.86,0,0,1,1.23,5.58A25.37,25.37,0,0,1,793.24,855.38Z"/><path d="M752.58,880.4A73.36,73.36,0,0,1,739,879.17a2.86,2.86,0,1,1,1.07-5.61,70.74,70.74,0,0,0,27.05-.36,2.86,2.86,0,0,1,1.23,5.58A74.15,74.15,0,0,1,752.58,880.4Z"/><path d="M770.92,1310.55c-12.12,0-21-2.24-26.25-5.32-3.38-2-5.5-4.33-6.14-6.88-2.9-11.55,17.7-73.77,72.29-108.41,48.62-30.85,81.41-22,95.41-18.3,1.64.44,3,.8,4.11,1,1.95.39,3.6.66,5,.9,5.36.89,8.59,1.43,11.49,5.66h0c2.75,4,2,9.27-2,14.82-1.52,2.08-3.28,6.25-5.51,11.54-10.59,25.13-32.63,77.41-110.11,99.1C794.15,1308.89,781.33,1310.55,770.92,1310.55ZM878.6,1173.29c-16.12,0-37.85,4.42-64.72,21.46-53.7,34.08-71.86,94.08-69.81,102.21.18.75,1.2,2,3.46,3.34,8.84,5.12,29.27,7.52,60.14-1.12,74.82-20.94,96.13-71.52,106.38-95.82,2.47-5.85,4.25-10.08,6.16-12.69,1.46-2,3.66-5.72,1.94-8.23h0c-1.47-2.15-2.5-2.38-7.73-3.25-1.47-.25-3.18-.53-5.19-.93-1.2-.23-2.69-.63-4.48-1.11A95.41,95.41,0,0,0,878.6,1173.29Z"/><path d="M852.81,1275.59c-13.35,0-25.86-6.55-35.7-19.28-15-19.37-20.21-51.15-4.13-67.58a2.85,2.85,0,0,1,4.08,4c-14,14.31-8.94,42.62,4.57,60.1,6.6,8.53,24.92,26.69,52.49,10.9a2.86,2.86,0,1,1,2.84,5C868.86,1273.31,860.69,1275.59,852.81,1275.59Z"/><path class="cls-9" d="M539,670a42.29,42.29,0,0,1-5.1-.35c-8.88-1.12-9.43-3.84-9.63-4.87-.65-3.24,2.13-4.83,3.62-5.69s2.08-1.3,2.15-2c1.29-12.18,1.69-25.46,1.21-29.73a59.87,59.87,0,0,1-12-3.39c-1.61,1.68-5.23,6.49-10.24,15.43a19.27,19.27,0,0,0,.48,2.32c.6,2.43,1.17,4.72-.19,6.48a3.64,3.64,0,0,1-2.89,1.4c-4.11.06-12.32-5.18-15.12-7.94-1.47-1.45-2.13-2.68-2.13-4,0-2.91,2.92-3.49,5.27-3.94a13.86,13.86,0,0,0,3.19-.87,69.71,69.71,0,0,0,7.85-16.66,58.67,58.67,0,0,1-9.29-8.73,39.06,39.06,0,0,0-9.29,4.84c-2.68,1.76-6.2,4.62-9.59,7.39-1.48,1.21-3,2.41-4.34,3.5-.33.27-.25,1.54-.19,2.47.11,1.86.31,5-2.59,6.35-3.67,1.75-8-2.44-10.79-7-.6-1-5.79-9.6-2.36-13.62,2.32-2.71,5.41-1,6.73-.29,1.65.91,2,1,2.47.66,2-1.28,9.58-6.78,15.43-11.61a72.37,72.37,0,0,0,6.16-5.61,56.67,56.67,0,0,1-4.57-14.32c-2.79-.57-11.84-1.32-31.92-.11-.2.45-.44,1.12-.62,1.61-.85,2.35-2.25,6.33-6.27,6.1-6.78-.34-6.35-18.29-6.35-18.48.31-7.53,3.17-9,5.38-8.94,4.35.14,6,4,7,6.11.09.21.2.47.31.71,19.9-.77,29.1-2.48,32-3.37a57.25,57.25,0,0,1,2.5-11.44c-1.48-1.79-6.87-6.3-16.72-10.5a9.2,9.2,0,0,0-2.44,1.22c-1.69,1-4,2.42-6.2.87-4.91-3.46.27-14.18.49-14.64,2.61-5.32,6-7.8,9.35-6.78,2.2.67,2.86,3,3.45,5a9.44,9.44,0,0,0,1.14,2.92c11.76,5.62,16.39,7.13,18.07,7.53a59.78,59.78,0,0,1,5-6.26c-1.42-3-6.61-11.39-19.32-24.68-.79-.83-1.88-.73-4-.34-1.75.33-5.41,1-6.75-2.4-2-5.09,8.49-12.9,9.69-13.77,5.33-3.88,9.28-4.83,11.73-2.81s1.34,5.12.65,7c-.44,1.15-1,2.59-.61,3.13,8.61,12.58,17.33,21.25,20.57,23.85a59.19,59.19,0,0,1,10.53-5.34c0-2.75-1.17-9.94-4.69-19.27A19.77,19.77,0,0,0,513,496.1c-2.13-1-4.55-2.1-4.3-4.67.2-2.07,1.83-3.85,4.86-5.3,4.16-2,12.05-3.78,15.78-1.32a3.58,3.58,0,0,1,1.56,2.32c.35,1.84-.75,3.43-1.82,5a10.34,10.34,0,0,0-1.22,2,62.22,62.22,0,0,0,6.07,18.77,62.55,62.55,0,0,1,10.93-.42,236.55,236.55,0,0,0,6.82-30.56c.24-1.81-.62-3.1-2-4.87-1.1-1.43-2.35-3.07-1.81-5.18,1.34-5.2,10.71-3.38,13.54-2.71,8.26,2,12,4.66,11.41,8.23-.36,2.17-2.11,3.24-3.66,4.18s-3.34,2-4.09,4.37c-2.75,8.57-5.17,24-5.5,29.14a59.3,59.3,0,0,1,15,7c2.08-1.62,7.17-6.52,15.16-16.08-.07-.57-.29-1.52-.45-2.2-.74-3.2-2.12-9.16,3-10.76,2.69-.84,6.34.93,10.86,5.28,2,2,8.6,8.71,7.4,13.2-1.28,4.75-6.6,3.67-9.16,3.15-.53-.1-1.25-.25-1.74-.31a125.54,125.54,0,0,0-13.43,17.68A58,58,0,0,1,596,546.88c3.92-.39,16.21-3,36.24-10.28a8.08,8.08,0,0,0,.77-2.33c.45-1.87,1.37-5.71,5.32-5.36,4.24.42,6.73,5.91,8.07,10.43.78,2.64,3,11.46-.5,14.3-3.25,2.61-6.65-.15-8.68-1.8a15.11,15.11,0,0,0-2-1.46c-20.54,4.52-31.64,8.66-35,10.46a57.25,57.25,0,0,1,.8,9.52c0,1.24,0,2.49-.12,3.73a164.1,164.1,0,0,0,19.51,4.23,14.44,14.44,0,0,0,1.85-1.83c1.51-1.66,3.38-3.73,5.92-2.69,5.35,2.19,3.71,12.32,3.33,14.34-1.1,5.78-3.3,8.85-6.36,8.89-2.26-.07-3.72-2-5-4-.55-.83-1.68-2.57-2.25-2.77a125,125,0,0,0-19.55-2.71,57.89,57.89,0,0,1-4.56,10.52,15.7,15.7,0,0,0,1.3,1.46,81.44,81.44,0,0,0,12.29,9.55c.26.17,1-.22,1.85-.69,1.12-.6,4.51-2.45,6.59.69,2.27,3.45-1.07,9.17-3.27,12.27-2.6,3.67-6.5,7.87-10.3,7.07-3.47-.74-3.07-4.51-2.85-6.54a9.77,9.77,0,0,0,.06-2.83c-1.07-.76-2.41-1.86-3.77-3-2.43-2-4.94-4-7-5.49a21,21,0,0,0-2.74-1.62,59.17,59.17,0,0,1-15.86,12.28s-.71,1.34.38,6.1,4.55,13.17,9.48,23c.42,0,1,.06,1.41.07,2.5.09,7.15.24,8,4.55,1.15,5.44-10.42,10-14,11.33-7,2.5-10.92,2.33-12.43-.55-2.06-3.92.8-6.93,2.33-8.55a9.26,9.26,0,0,0,1.05-1.23c.25-1.9-3.47-13.17-8.73-24.46a37.39,37.39,0,0,0-2.54-4.69,60.13,60.13,0,0,1-9.28,1.33,187.11,187.11,0,0,0-2.11,29.32,16.73,16.73,0,0,0,1.52,1.52c1.87,1.7,4.68,4.28,3.13,7.51C547,669.28,542.94,670,539,670Zm-7.33-6.51a33,33,0,0,0,10.54.56c-.31-.3-.64-.6-.89-.83-1.65-1.51-3.36-3.07-3.38-5.31a199.64,199.64,0,0,1,1.16-23c1.24-11.35,1.79-12.27,4.32-12.35a55,55,0,0,0,11.86-1.66c1.39-.35,3.27-.83,7.48,8.2.1.22,10.09,21.76,9.13,28a7.84,7.84,0,0,1-2.48,4c-.3.32-.75.79-1.07,1.21,3.53-.39,11.45-3.75,14.46-6.11-.58,0-1.24-.08-1.69-.09-2.13-.07-4.78-.16-5.93-2.43-5.41-10.7-9.08-19.6-10.34-25.07-2-8.6.72-11.47,2.49-12.41a53.2,53.2,0,0,0,15.43-12.32c.68-.79,2.28-2.69,9.1,2,2.3,1.58,4.91,3.71,7.43,5.78,1.33,1.09,2.64,2.16,3.88,3.14,2.11,1.66,2.19,4.28,2,6.51a25.37,25.37,0,0,0,2.7-3.26,23.63,23.63,0,0,0,2.21-3.74,6.14,6.14,0,0,1-5.72-.37,86.12,86.12,0,0,1-13.3-10.35c-3.05-3-4-5.37-2.91-7.2a51.4,51.4,0,0,0,5.24-12.23c1.15-4.07,14.64-2,25.75.54,2.78.62,4.44,3.17,5.77,5.21l.16.25a24.48,24.48,0,0,0,1.16-9.6c-1.56,1.71-3.63,3.86-6.38,3.41-25.26-4-25-6.53-24.81-8.58.16-1.68.25-3.38.25-5.07a51.07,51.07,0,0,0-1-10c-.86-4.35,12.57-9.59,39.92-15.59,2.54-.57,4.66,1.15,6.52,2.66.38.31.89.73,1.35,1.06.16-3.24-1.66-10.38-3.56-13,0,0,0,.1,0,.14-.5,2.08-1.25,5.23-4.36,6.36-15,5.49-40.6,13.93-42.78,8.71a52,52,0,0,0-10.53-16c-3.38-3.5,9.44-18.44,15.11-24.71,1.67-1.84,4.27-1.33,6.57-.86.62.12,1.63.33,2.35.39-1.12-2.83-7.83-9.78-10.69-10.81a19.82,19.82,0,0,0,.63,3.85c.61,2.63,1.14,4.9-.29,6.63-17.77,21.37-20.14,19.73-21.87,18.54A54.11,54.11,0,0,0,556.13,520a3.09,3.09,0,0,1-1.83-1.46c-1.66-3.06,2.76-26.3,5.35-34.36a13.31,13.31,0,0,1,6.49-7.46,30,30,0,0,0-6-2,21.89,21.89,0,0,0-5.55-.7c1.38,1.83,3.3,4.7,2.77,8.66-.74,5.45-2.35,13.48-4.31,21.49-3.29,13.44-4,14.38-6.62,14.14a56.07,56.07,0,0,0-13.12.45c-5.82.88-10.47-20.16-11.08-24.07-.31-2,.82-3.87,1.87-5.4a24.43,24.43,0,0,0-8,1.92c1.86.88,3.66,1.86,4.33,3.6,4.09,10.73,6.15,21.61,4.7,24.77a3.67,3.67,0,0,1-1.83,1.73A54,54,0,0,0,511,527.53c-5.58,3.81-26.77-26-27-26.33-2-2.89-.92-6-.12-8.13a37.76,37.76,0,0,0-9.91,8c2.32-.38,5.56-.55,8.17,2.18s25.11,26.53,20.45,31.38a53.41,53.41,0,0,0-6.23,7.83c-1.54,2.37-3.55,3.32-24.6-6.75-2.58-1.24-3.45-4.24-4.08-6.44,0-.15-.1-.33-.15-.5a16.49,16.49,0,0,0-2.05,3.27,20.29,20.29,0,0,0-1.91,6.06c1.86-1.11,4.48-2.49,7.19-1.32,8.77,3.74,22,11.55,20.23,16.59a50.7,50.7,0,0,0-2.71,12.6c-.15,1.72-.49,5.74-38.43,7.11-2.68.13-3.92-2.47-4.66-4.17a11.41,11.41,0,0,0-1.1-2.15c-.72,3-.21,10.4.91,14.08.13-.33.25-.66.35-.93.77-2.17,1.84-5.14,4.87-5.33,37.57-2.33,38.12,1.3,38.45,3.47a51,51,0,0,0,5,15.59c.8,1.55,1.49,2.89-8.38,11-6,5-13.91,10.66-16,12-3,1.93-5.74.9-7.54,0a20.77,20.77,0,0,0,2.44,5.47,18.81,18.81,0,0,0,2.8,3.56c-.11-2-.11-4.92,2.38-6.89,1.37-1.08,2.81-2.25,4.27-3.44,3.51-2.86,7.14-5.82,10.07-7.74,8.56-5.63,13.93-7.24,15.93-4.77a53,53,0,0,0,10.36,9.7c4.84,3.47-7.69,23.49-7.82,23.69-1.08,1.72-3.17,2.41-5.26,2.87a40.25,40.25,0,0,0,7,4.13.24.24,0,0,1,0-.08c-.56-2.26-1.09-4.4-.11-6.14,11.6-20.79,14.64-19.5,16.27-18.8a54.39,54.39,0,0,0,13.65,3.84c1.69.24,5.66.81,1.94,35.71A7.65,7.65,0,0,1,531.71,663.5Zm55.43-55.86,0,0Zm-91.83-1.2Zm97.8-7.11h0Zm-104.47-3.1h0Zm146.41-45.9Zm6.88-.7ZM491.62,539.34h0ZM585,530.7h0Zm-77.16-7.89h0Zm49.81-8.3h0Zm-42.31-17.18Z"/><path class="cls-9" d="M567.77,1096.61c-3.52,0-7.23-.67-8.46-3.24-1.48-3,1.2-5.5,2.8-7,.38-.35.93-.86,1.21-1.18a161.71,161.71,0,0,0-1.79-25,52,52,0,0,1-7.58-1.09,32.84,32.84,0,0,0-2.05,3.82c-4.49,9.64-7.72,19.36-7.5,21.29,0-.16.46.33.76.65,1.29,1.36,4,4.22,2.08,7.86s-7.32,2.07-11.26.66-13.44-5.39-12.42-10.28c.84-4,5.25-4.18,7.36-4.25l1,0c4.23-8.43,7.17-15.59,8.12-19.74.77-3.32.4-4.67.26-5a51.63,51.63,0,0,1-13.44-10.41,18.31,18.31,0,0,0-2.09,1.26c-1.81,1.24-4,3-6.08,4.73-1.09.9-2.18,1.8-3.23,2.62a13.17,13.17,0,0,0,.11,2.13c.19,1.75.58,5.38-2.77,6.09s-7-3-9.34-6.3c-2-2.77-4.95-7.91-2.85-11.09,1.33-2,3.42-2.25,6.22-.72a5.13,5.13,0,0,0,1.33.59,71.83,71.83,0,0,0,10.53-8.25,12.4,12.4,0,0,0,.95-1,49.35,49.35,0,0,1-3.79-8.73,112,112,0,0,0-16.67,2.35,10.5,10.5,0,0,0-1.71,2.25c-1.11,1.69-2.36,3.61-4.62,3.61h-.05c-2.86,0-4.9-2.82-5.89-8.05-.35-1.8-1.8-10.86,3.12-12.88,2.45-1,4.25,1,5.56,2.44a16.23,16.23,0,0,0,1.43,1.44,143.62,143.62,0,0,0,16.5-3.55q-.09-1.47-.09-3a50.49,50.49,0,0,1,.65-8.07c-2.76-1.42-11.33-4.82-29.93-8.92a14.57,14.57,0,0,0-1.56,1.16c-1.74,1.41-4.95,4-8,1.57-3.27-2.61-1.26-10.47-.56-12.82,1.19-4.05,3.44-9,7.34-9.36s4.64,3.36,5,5A7.43,7.43,0,0,0,487,980c16.78,6.08,27.38,8.36,31,8.78a50.12,50.12,0,0,1,8.23-12.55,112.8,112.8,0,0,0-11.38-14.93c-.39.06-.91.16-1.3.24-2.15.43-7.19,1.45-8.39-3-1.1-4.11,4.73-10.12,6.54-11.86,4-3.87,7.34-5.45,9.81-4.67,4.82,1.5,3.52,7.11,2.9,9.8-.13.52-.29,1.23-.37,1.71,6.62,7.92,10.94,12.13,12.82,13.65a52.1,52.1,0,0,1,12.62-5.91c-.35-4.68-2.39-17.6-4.75-25-.62-1.91-2-2.74-3.4-3.61s-3-1.83-3.36-3.89c-.55-3.33,2.79-5.8,10.2-7.58,2.56-.6,11-2.21,12.23,2.63.51,2-.68,3.57-1.63,4.83-1.12,1.46-1.84,2.52-1.65,4a210.75,210.75,0,0,0,5.83,26.25,55.93,55.93,0,0,1,9,.35,54.13,54.13,0,0,0,5.07-16,14,14,0,0,0-1-1.52c-1-1.4-2-2.84-1.64-4.6a3.45,3.45,0,0,1,1.52-2.25c3.38-2.23,10.41-.65,14.09,1.12,2.76,1.32,4.26,3,4.44,4.91.24,2.5-2.08,3.57-4,4.43-.52.24-1.33.61-1.75.87-2.89,7.71-3.9,13.77-4,16.27a52.59,52.59,0,0,1,8.76,4.44c2.92-2.42,10.36-9.9,17.61-20.49.21-.31-.32-1.72-.57-2.39-.6-1.58-1.71-4.51.68-6.47s5.8-1.09,10.66,2.43c1.74,1.27,10.34,7.82,8.54,12.41-1.27,3.26-4.78,2.61-6.28,2.32-1.87-.34-2.62-.36-3.15.19-10.83,11.32-15.3,18.44-16.64,21.15a51.74,51.74,0,0,1,4,5.09c1.6-.42,5.68-1.83,15.48-6.51.13-.21.51-1.55.72-2.26.53-1.85,1.14-4,3.25-4.6,1.47-.44,5.22-.74,8.57,6.09,1.81,3.7,3.92,10.65.3,13.21-2.1,1.48-4.32.14-5.79-.75a7.82,7.82,0,0,0-2-1c-8.12,3.5-12.66,7.22-14.06,8.82a49.9,49.9,0,0,1,2.1,9.59c2.7.77,10.66,2.18,27.26,2.83.06-.12.11-.25.17-.38.82-1.89,2.35-5.41,6.37-5.54,2.1,0,4.78,1.28,5.06,8.14,0,.16.48,16.15-5.88,16.46-3.73.19-5.09-3.55-5.81-5.55-.13-.35-.3-.81-.44-1.17-16.74-1-24.6-.42-27.2,0a49.51,49.51,0,0,1-3.85,12.07,65.89,65.89,0,0,0,5.14,4.67c5,4.15,11.76,9,13.4,10.07.22.13.39.17,1.76-.59,1.12-.62,4.09-2.26,6.32.35,3.09,3.6-1.14,10.86-2,12.27-1.23,2-5.55,8.26-9.86,6.2-2.75-1.32-2.56-4.29-2.46-5.88a6.12,6.12,0,0,0-.05-1.86c-1.21-.94-2.51-2-3.82-3.07-2.93-2.39-6-4.85-8.25-6.36a36,36,0,0,0-7.76-4.1,51.28,51.28,0,0,1-7.78,7.31,61.74,61.74,0,0,0,6.75,14.12,15.75,15.75,0,0,0,2.5.62c2,.38,4.89,1,4.89,3.79a5.56,5.56,0,0,1-2,3.74c-2.52,2.48-9.48,7-13.34,7h-.07a3.54,3.54,0,0,1-2.8-1.36c-1.29-1.67-.75-3.84-.23-5.94.13-.55.34-1.39.4-1.86-4.14-7.37-7.19-11.49-8.62-13.06a52.25,52.25,0,0,1-10,2.83c-.37,3.93,0,15.22,1.07,25.51.05.4.54.75,1.69,1.4s3.95,2.27,3.33,5.35c-.3,1.52-1.54,3.63-8.71,4.53A35.92,35.92,0,0,1,567.77,1096.61Zm-2-5.8a29.55,29.55,0,0,0,7.41-.42,6.56,6.56,0,0,1-2.94-4.77c-3.27-30.72.16-31.21,2-31.47a47,47,0,0,0,11.77-3.31c1.64-.71,4.38-1.88,14.63,16.51.82,1.46.54,3.14.11,4.92a37.88,37.88,0,0,0,4.66-2.75,6.29,6.29,0,0,1-4-2.47c-1.15-1.83-11.12-18-6.7-21.1a45.85,45.85,0,0,0,8.94-8.38c.7-.87,2.84-3.49,14.35,4.07,2.55,1.68,5.69,4.23,8.72,6.71,1.29,1.05,2.57,2.09,3.78,3a6.36,6.36,0,0,1,2.24,5.32,17,17,0,0,0,1.71-2.33,18,18,0,0,0,1.85-3.87,6.24,6.24,0,0,1-6.16-.36c-1.78-1.16-8.65-6.11-13.92-10.46-8.83-7.29-8.19-8.52-7.37-10.08a43.91,43.91,0,0,0,4.31-13.42c.33-2.15.82-5.37,33.83-3.33,2.71.17,3.78,2.67,4.45,4.53a36.47,36.47,0,0,0,.66-9.86l-.41.9c-.64,1.49-1.73,4.09-4.41,3.86-33.32-1.2-33.63-4.79-33.78-6.51a43.48,43.48,0,0,0-2.34-10.88c-1.83-5.21,12.23-12.52,17.8-14.9,2.23-1,4.34-.1,6,.81a19.51,19.51,0,0,0-2.85-6.66c-.57,2-1.38,4.49-3.67,5.59-18.63,8.92-20.38,8-21.88,5.76a45.31,45.31,0,0,0-5.38-6.77c-4.2-4.37,14.08-23.93,17.79-27.81a7.42,7.42,0,0,1,6.45-2.14,35.13,35.13,0,0,0-7-5.69c.6,1.81,1.08,4.26-.47,6.51-.18.27-18.7,26.6-24,23a46.44,46.44,0,0,0-10.53-5.36,3.61,3.61,0,0,1-1.81-1.7c-1.3-2.83.49-12.42,4.08-21.83a6,6,0,0,1,3.21-3,22.25,22.25,0,0,0-5.36-1.27,6.29,6.29,0,0,1,1.26,4.33c0,.22-3.9,21.27-9.68,21.28l-.36,0a48,48,0,0,0-11.35-.39c-2.7.24-3.33-1.08-6.14-12.59-1.71-7-3.11-14-3.76-18.72a9.89,9.89,0,0,1,2-7.2,22.59,22.59,0,0,0-4,.57,29.06,29.06,0,0,0-4.55,1.45,11.44,11.44,0,0,1,5.21,6.33c2.07,6.44,6.23,27.23,4.63,30.18a3,3,0,0,1-1.82,1.45,46.4,46.4,0,0,0-14.26,6.62c-1.81,1.25-3.85,2.66-19.53-16.2-1.37-1.64-.87-3.8-.34-6.08a24.31,24.31,0,0,0,.52-2.67c-2.37,1.27-6.68,5.7-8.14,8.33l1.21-.23c2.09-.43,4.46-.9,6.06.87,7.59,8.37,16,19,13.14,22a44.81,44.81,0,0,0-9.09,13.82c-1.91,4.58-21.54-1.48-37.68-7.37-2.59-.94-3.43-3.41-3.88-5.19a28.37,28.37,0,0,0-2.54,9.74l.56-.45c1.6-1.3,3.59-2.92,6-2.39,36.21,7.94,35.34,12.34,35,14a43.92,43.92,0,0,0-.85,8.66c0,1.47.07,2.93.21,4.37.16,1.66.33,3.36-10,5.67,10.5-1.32,11.15,1,11.4,1.89a44,44,0,0,0,4.52,10.56c1,1.77.19,4-2.6,6.7-1,1-2.21,2.07-3.54,3.18.82-.64,1.62-1.23,2.38-1.75,6.17-4.23,7.72-2.45,8.39-1.68a45.85,45.85,0,0,0,13.33,10.65c1.64.88,4.12,3.49,2.35,11.2-1.1,4.78-4.3,12.56-9,21.89-1.1,2.18-3.53,2.26-5.48,2.32l-.41,0a38.65,38.65,0,0,0,10.55,4.46,2.77,2.77,0,0,1-.24-.25,7.13,7.13,0,0,1-2.26-3.72c-.85-5.52,7.89-24.37,8-24.55,3.51-7.54,5.3-7.77,6.95-7.34a47.78,47.78,0,0,0,10.22,1.43c2.7.09,3.1,1.75,4.11,11.07a170.52,170.52,0,0,1,1,20c0,2.1-1.63,3.58-3.06,4.88Zm27.69-21.29Zm-20.39-9.72h0Zm-20.79-1.09h0Zm-45.64-10.27a24,24,0,0,0,3.12,4.47,5.82,5.82,0,0,1,1.94-5c1.09-.85,2.24-1.79,3.39-2.74l1.52-1.24a67.25,67.25,0,0,1-5.53,3.85A5.53,5.53,0,0,1,506.62,1048.44Zm105.3-16.26,0,0Zm-119.76-12.84A22.6,22.6,0,0,0,493,1026c1.11-1.69,2.5-3.6,4.73-4.2l-.24,0C495.24,1022.16,493.5,1020.73,492.16,1019.34Zm4.41-3.19h0Zm17.1-1.66h0Zm131.79-7.91h0Zm-134.75-49.2Z"/><path class="cls-9" d="M2205.06,601.66c-3.84,0-7.85-.71-9.17-3.44-1.54-3.2,1.24-5.74,3.07-7.42a15.81,15.81,0,0,0,1.48-1.46,181.66,181.66,0,0,0-2.07-28.61,59,59,0,0,1-9-1.3,36.48,36.48,0,0,0-2.46,4.55c-5.14,11-8.78,22-8.48,24.15h0a7.67,7.67,0,0,1,.95.92c1.51,1.6,4.33,4.57,2.29,8.45-1.5,2.85-5.39,3-12.23.56-3.51-1.26-14.87-5.78-13.75-11.15.9-4.27,5.48-4.42,7.94-4.5.41,0,.94,0,1.35-.07,4.82-9.6,8.18-17.75,9.26-22.46s.18-6.06.18-6.07A56.45,56.45,0,0,1,2159.14,542a21.67,21.67,0,0,0-2.64,1.56c-2.06,1.41-4.52,3.43-6.9,5.39-1.32,1.08-2.63,2.15-3.87,3.13,0,.18.19,1.68.28,2.48.2,1.86.61,5.73-2.84,6.46-3.76.79-7.59-3.33-10.14-6.94-2.16-3-5.45-8.68-3.2-12.07,2.07-3.14,5.43-1.3,6.53-.7.61.33,1.54.81,1.75.67a79.16,79.16,0,0,0,12-9.34,14.63,14.63,0,0,0,1.24-1.39,56,56,0,0,1-4.44-10.23,123,123,0,0,0-19.08,2.66c-.91.22-3.15,2.74-4.61,5.19a2.89,2.89,0,0,1-2.71,1.38,2.85,2.85,0,0,1-2.42-1.85c-4.51-12.18-4.63-19.25-.35-21,2.54-1,4.46,1.1,5.87,2.65a13.33,13.33,0,0,0,1.77,1.76,158,158,0,0,0,19-4.11c-.07-1.19-.11-2.4-.11-3.61a56.81,56.81,0,0,1,.77-9.29C2141.8,493,2131,489,2111,484.59A16,16,0,0,0,2109,486c-2,1.63-5.34,4.34-8.57,1.76-3.5-2.8-1.27-11.46-.51-14.05,1.32-4.45,3.77-9.85,7.95-10.26,3.88-.43,4.87,3.59,5.27,5.29a7.43,7.43,0,0,0,.78,2.28c19.47,7.09,31.47,9.62,35.36,10a56.4,56.4,0,0,1,9.48-14.45,122.71,122.71,0,0,0-13.1-17.23c-.47.06-1.16.2-1.67.3-2.52.5-7.77,1.56-9-3.13-1.19-4.43,5.26-11.06,7.26-13,4.43-4.26,8-6,10.69-5.18,5.1,1.59,3.74,7.46,3,10.61-.15.65-.36,1.56-.43,2.12,7.76,9.29,12.72,14.08,14.77,15.68a58,58,0,0,1,14.59-6.83c-.34-5.07-2.7-20.11-5.38-28.46-.73-2.27-2.38-3.28-4-4.24s-3.26-2-3.61-4.13c-.58-3.53,3.08-6.19,11.21-8.13,2.79-.66,12-2.43,13.32,2.7.54,2.09-.75,3.77-1.77,5.12-1.31,1.72-2.15,3-1.92,4.72a232,232,0,0,0,6.65,29.86,61,61,0,0,1,10.63.41,61.23,61.23,0,0,0,5.91-18.63c-.09-.06-.78-1-1.18-1.64-1.06-1.51-2.15-3.07-1.8-4.9a3.61,3.61,0,0,1,1.55-2.31c3.69-2.43,11.44-.67,15.52,1.29,3,1.42,4.59,3.18,4.78,5.23.25,2.56-2.13,3.66-4.24,4.63a18.58,18.58,0,0,0-2.1,1.07c-3.42,9.07-4.53,16.07-4.58,18.78a58.61,58.61,0,0,1,10.24,5.19c3.19-2.57,11.7-11.05,20.09-23.3.34-.5-.21-1.95-.61-3-.68-1.81-1.82-4.83.66-6.87s6.3-1.07,11.53,2.73c1.18.85,11.49,8.52,9.52,13.56-1.32,3.39-4.93,2.71-6.67,2.39-2.06-.38-3.11-.47-3.87.31-12.39,12.95-17.47,21.19-18.89,24.11a58.24,58.24,0,0,1,4.81,6.07c1.67-.41,6.22-1.91,17.72-7.41a12.33,12.33,0,0,0,1-2.77c.58-2,1.23-4.25,3.42-4.92,3.27-1,6.65,1.41,9.21,6.66.22.45,5.31,11,.46,14.41-2.17,1.53-4.45.16-6.12-.85a8.65,8.65,0,0,0-2.41-1.17h0c-9.49,4.07-14.76,8.46-16.23,10.21a54.81,54.81,0,0,1,2.43,11.14c2.88.87,11.88,2.53,31.23,3.28l.29-.66c.89-2,2.55-5.88,6.86-6,2.19-.09,5,1.4,5.32,8.81,0,.18.43,17.83-6.27,18.16h-.28c-3.75,0-5.1-3.75-5.92-6-.17-.47-.4-1.1-.59-1.53-19.52-1.18-28.38-.46-31.15.09a55.17,55.17,0,0,1-4.45,14,72.68,72.68,0,0,0,6,5.45c5.74,4.74,13.19,10.11,15.11,11.37.39.25.68.26,2.35-.65,1.3-.72,4.34-2.4,6.65.3,3.4,3.95-1.71,12.44-2.3,13.4-2.76,4.44-7,8.57-10.63,6.82-2.88-1.37-2.68-4.43-2.57-6.26,0-.85.14-2.13-.16-2.37-1.38-1.08-2.83-2.27-4.29-3.46-3.31-2.7-6.74-5.49-9.34-7.2a38.77,38.77,0,0,0-9.05-4.71,57.77,57.77,0,0,1-9,8.49,68.09,68.09,0,0,0,7.89,16.51l2.86.56c2.2.43,5.21,1,5.21,3.92a5.88,5.88,0,0,1-2.11,4c-2.73,2.69-10.58,7.78-14.78,7.78h-.06a3.59,3.59,0,0,1-2.87-1.39c-1.35-1.74-.79-4-.2-6.39a22.23,22.23,0,0,0,.47-2.25c-4.87-8.68-8.39-13.38-10-15a58.77,58.77,0,0,1-11.66,3.3c-.46,4.21-.07,17.16,1.19,29,.06.61.6,1,2.08,1.86s4.21,2.42,3.57,5.63c-.32,1.6-1.66,3.83-9.5,4.82A40.44,40.44,0,0,1,2205.06,601.66Zm-3-5.91a31.37,31.37,0,0,0,10.06-.53,7.48,7.48,0,0,1-3.88-5.6c-3.64-34.22.29-34.78,2-35a52.73,52.73,0,0,0,13.32-3.75c1.63-.68,4.62-2,16,18.43.95,1.72.45,3.81-.1,6a40,40,0,0,0,6.61-3.9c-2-.46-4-1.14-5-2.81-.51-.81-12.43-19.85-7.64-23.27a51.51,51.51,0,0,0,10.12-9.49c2-2.43,7.28-.85,15.68,4.66,2.85,1.87,6.39,4.76,9.81,7.54,1.44,1.18,2.87,2.34,4.22,3.41,2.4,1.9,2.47,4.7,2.36,6.64a18.46,18.46,0,0,0,2.62-3.36,20.69,20.69,0,0,0,2.35-5.21c-1.78.9-4.45,1.82-7.32,0-2-1.31-9.72-6.87-15.63-11.74-9.69-8-9-9.27-8.21-10.88a49.91,49.91,0,0,0,4.91-15.24c.32-2.14.83-5.73,37.69-3.44,3,.19,4.06,3.11,4.82,5.25l.27.74c1-3.59,1.51-10.44.87-13.43a13,13,0,0,0-1,2c-.73,1.68-1.83,4.22-4.61,4.12-37.18-1.34-37.52-5.31-37.67-7a49.59,49.59,0,0,0-2.65-12.33c-1.75-5,11.23-12.64,19.83-16.32,2.62-1.11,5.16.16,7,1.23a20.42,20.42,0,0,0-1.82-5.72,13,13,0,0,0-2-3.11q0,.18-.09.33c-.62,2.16-1.48,5.12-4,6.34-20.67,9.88-22.59,9-24.16,6.58a51.32,51.32,0,0,0-6.08-7.65c-4.6-4.79,17.48-28.15,20-30.79s5.64-2.53,7.92-2.18a36.27,36.27,0,0,0-9.48-7.65c.79,2.11,1.75,5.1-.16,7.89-.2.3-20.89,29.59-26.5,25.79a53,53,0,0,0-11.92-6.08,3.67,3.67,0,0,1-1.84-1.72c-1.42-3.11.59-13.78,4.6-24.29.64-1.69,2.35-2.65,4.15-3.5a24.18,24.18,0,0,0-7.6-1.81c1,1.49,2.07,3.27,1.77,5.22-.6,3.84-5,24.5-10.91,23.6a55.75,55.75,0,0,0-12.84-.43c-2.7.19-3.31-.71-6.54-13.89-1.91-7.84-3.49-15.7-4.21-21a11.29,11.29,0,0,1,2.64-8.43,24.25,24.25,0,0,0-5.28.67,31,31,0,0,0-5.8,1.93,13,13,0,0,1,6.28,7.28c2.25,7,7,30.51,5.23,33.68a3,3,0,0,1-1.82,1.46,52.46,52.46,0,0,0-16.16,7.49c-1.72,1.19-4.07,2.81-21.49-18.15-1.43-1.71-.91-3.95-.31-6.54a18.55,18.55,0,0,0,.62-3.81c-2.27.73-8.74,7.36-10.18,10.55.67-.08,1.52-.25,2.07-.36,2.26-.46,4.82-1,6.49.87,5.55,6.13,18.11,20.78,14.78,24.26a50.79,50.79,0,0,0-10.29,15.65c-2.18,5.16-27.22-3.11-41.95-8.49-3.07-1.12-3.81-4.22-4.31-6.27a.64.64,0,0,1,0-.09c-1.73,2.5-3.47,9.34-3.38,12.54.42-.31.88-.68,1.22-.95,1.84-1.49,3.9-3.18,6.44-2.62,26.82,5.88,40,11,39.11,15.33a50.4,50.4,0,0,0-1,9.8c0,1.68.08,3.34.24,4.95.2,2.05.44,4.57-24.33,8.47-2.22.34-4-1-5.47-2.48a46.59,46.59,0,0,0,1.34,6.24,10.22,10.22,0,0,1,4.8-3.17c10.91-2.44,24.15-4.52,25.28-.48a49.83,49.83,0,0,0,5.12,12c1.09,1.79.16,4.13-2.86,7.11a84.75,84.75,0,0,1-13,10.15,6,6,0,0,1-5.5.41,24,24,0,0,0,2.09,3.52,23.23,23.23,0,0,0,2.52,3c-.16-2.16,0-4.64,2-6.23,1.22-1,2.49-2,3.77-3.05,2.48-2,5-4.14,7.31-5.69,6.67-4.57,8.28-2.74,9-2a52.11,52.11,0,0,0,15.1,12.06c1.75.94,4.4,3.77,2.46,12.21-1.22,5.35-4.81,14.06-10.12,24.55-1.14,2.26-3.76,2.34-5.86,2.42-.39,0-1,0-1.48.07,3,2.24,10.36,5.38,13.83,5.85-.3-.38-.68-.79-.94-1.06a7.77,7.77,0,0,1-2.44-4c-.94-6.12,8.84-27.22,8.94-27.43,4.16-8.92,6-8.43,7.4-8.07a53.71,53.71,0,0,0,11.59,1.63c2.64.08,3.12,1.44,4.28,12.13a194.56,194.56,0,0,1,1.14,22.52c0,2.21-1.78,3.82-3.33,5.24Zm9-35.5h0ZM2187.72,559h0Zm93-11.39Zm-145.95-3Zm17.28-12.22,0,.06Zm-5.69-13.3Zm113.52-6.71h0Zm-115.32-2.86h0Zm.8-16.42s0,0,0,0S2145.38,493.17,2145.38,493.16Zm106.13-19.48v0Zm-82.57-16h0Zm-13.86-17.11h0Zm73.53-8.4h0Z"/><path class="cls-9" d="M2169.23,1045.21c-3.14,0-6.14-.66-7.22-2.92-1.36-2.81,1.06-5,2.36-6.22.24-.22.56-.52.78-.74a128.12,128.12,0,0,0-1.35-19.16,44.15,44.15,0,0,1-5.26-.77,26.12,26.12,0,0,0-1.38,2.63c-3.29,7.06-5.77,14.28-5.92,16.38.13.15.28.3.44.46,1,1.1,3.46,3.67,1.76,6.94s-6.37,2-9.71.79c-4.21-1.51-11.12-4.67-10.25-8.85.77-3.66,4.73-3.79,6.42-3.85h.44c3.27-6.55,5.54-12.09,6.28-15.3a8.49,8.49,0,0,0,.29-3.48,41.75,41.75,0,0,1-10.36-8c-.34.19-.75.44-1.21.76-1.42,1-3.14,2.37-4.8,3.74-.8.66-1.6,1.31-2.38,1.93,0,.37.06.95.1,1.34.14,1.31.51,4.81-2.67,5.48-2.47.52-5.19-1.24-8-5.25-1.65-2.33-4.15-6.67-2.28-9.49.86-1.31,2.55-2.49,5.72-.77.19.1.46.26.66.34a55.32,55.32,0,0,0,8.1-6.34c.18-.18.34-.34.46-.48a41.23,41.23,0,0,1-2.73-6.29,88.18,88.18,0,0,0-12.74,1.83c-.08.12-.68,1-1,1.54-.92,1.42-2,3-4.21,3.15-1.8,0-4.18-1.23-5.25-6.86-.29-1.52-1.52-9.15,2.83-10.93,2.33-.94,4.06.95,5.08,2.09.25.26.61.67.89.92a118,118,0,0,0,12.36-2.64c0-.64-.05-1.29-.05-1.94a40.13,40.13,0,0,1,.47-6.1c-2.47-1.18-9.28-3.76-23.11-6.83-.29.2-.69.53-1,.77-1.4,1.13-4.31,3.48-7.11,1.25s-1.38-8.33-.64-10.85c1-3.39,2.92-7.51,6.35-7.85s4.34,3.21,4.62,4.38a11.38,11.38,0,0,0,.31,1.12c12.77,4.64,20.85,6.46,24,6.88a41.14,41.14,0,0,1,6.18-9.43,87.5,87.5,0,0,0-8.56-11.21l-.7.13c-1.71.34-6.26,1.26-7.36-2.82-.94-3.47,3.44-8.15,5.36-10,5.09-4.9,7.58-4.13,8.4-3.87,4.36,1.36,3.19,6.36,2.7,8.5-.08.31-.17.73-.24,1.06a98.16,98.16,0,0,0,9.64,10.32,42.12,42.12,0,0,1,9.39-4.4,116.7,116.7,0,0,0-3.72-19.3,4.68,4.68,0,0,0-2.46-2.56c-1.11-.67-2.63-1.59-2.94-3.49-.5-3,2.31-5.21,8.57-6.7,2.78-.67,9.35-1.74,10.43,2.51.49,1.87-.6,3.3-1.4,4.34s-1.31,1.81-1.19,2.73a167.8,167.8,0,0,0,4.48,20.39,42.58,42.58,0,0,1,6.48.26,43.91,43.91,0,0,0,3.75-12c-.16-.28-.45-.69-.64-1-.8-1.15-1.71-2.46-1.4-4.1a3.37,3.37,0,0,1,1.46-2.18c3.19-2.1,9.33-.32,11.8.86s3.69,2.62,3.86,4.38c.25,2.4-2,3.43-3.49,4.12-.33.15-.84.38-1.16.56a48.48,48.48,0,0,0-3.05,12.18,42.47,42.47,0,0,1,6.31,3.2,89.43,89.43,0,0,0,13.62-15.94c-.05-.1-.34-.89-.52-1.37-.49-1.29-1.51-4,.71-5.8,2.07-1.7,5.08-1.08,9.2,1.91,2,1.48,8.56,6.61,7,10.57-1.21,3-4.45,2.44-5.66,2.21s-1.74-.28-2,0c-8.13,8.49-11.75,14-13,16.36a40,40,0,0,1,2.75,3.48A91,91,0,0,0,2213.5,947a10.52,10.52,0,0,0,.53-1.56c.45-1.54,1-3.45,3-4.06,1.31-.4,4.64-.7,7.51,5.13.42.86,4,8.49.07,11.27-2,1.41-4,.17-5.26-.57a9.58,9.58,0,0,0-1.2-.66c-5.91,2.57-9.38,5.26-10.64,6.55a40.5,40.5,0,0,1,1.55,7c2.36.61,8.6,1.63,20.81,2.13.67-1.54,2.05-4.59,5.57-4.71,2.18,0,4.39,1.11,4.63,7.05,0,.13.48,13.43-5.23,13.71-3.62.13-4.64-3.19-5.21-4.8l-.21-.57c-12.29-.72-18.45-.36-20.77,0a40.24,40.24,0,0,1-2.87,9c.8.8,2.09,2,3.78,3.39,4,3.29,9.32,7.14,10.62,8a4.8,4.8,0,0,1,.8-.49c.92-.5,3.68-2,5.75.39,2.73,3.21-.82,9.29-1.56,10.48-1,1.68-4.72,7-8.6,5.14-2.53-1.21-2.36-3.92-2.28-5.23a5.64,5.64,0,0,0,0-1.24c-.78-.51-1.81-1.34-2.85-2.19-2.33-1.9-4.73-3.86-6.55-5a30.2,30.2,0,0,0-5.67-3.07,42,42,0,0,1-5.71,5.36,49.37,49.37,0,0,0,5.09,10.56,14.91,14.91,0,0,0,1.72.4c1.63.32,4.36.86,4.36,3.59a5,5,0,0,1-1.74,3.39c-2.07,2-7.82,5.75-11.06,5.75h0a3.4,3.4,0,0,1-2.69-1.31c-1.2-1.55-.72-3.51-.29-5.23.08-.35.21-.88.27-1.23a66.72,66.72,0,0,0-6.43-9.83,42.37,42.37,0,0,1-7.25,2.06,147.64,147.64,0,0,0,.9,19.77,6,6,0,0,0,1.05.68c1,.6,3.51,2,2.93,4.88-.44,2.22-2.73,3.48-7.42,4.07A29.21,29.21,0,0,1,2169.23,1045.21Zm-.18-5.71a27.73,27.73,0,0,0,3.19-.2,5.53,5.53,0,0,1-1.46-2.62A5.7,5.7,0,0,1,2169.05,1039.5Zm-27.34-4a34.72,34.72,0,0,0,4.71,2,4.6,4.6,0,0,1-.84-2,12.49,12.49,0,0,1,.52-4.39c-.37.76-.76,1.53-1.15,2.31A3.91,3.91,0,0,1,2141.71,1035.49Zm53.1-13.16a6.06,6.06,0,0,1,0,1.85c.53-.29,1.08-.62,1.6-1A5.47,5.47,0,0,1,2194.81,1022.33Zm4.38-1.36Zm-41.87-11.63a3.46,3.46,0,0,1,.84.11,37.83,37.83,0,0,0,8.05,1.14c1.63,0,2.72,2.31,3.44,5.75.39-5.73,1.87-5.94,3.09-6.12a36.51,36.51,0,0,0,9.23-2.6c1.3-.55,2.94-1.24,7.42,5.24-1.64-3.81-2.58-7.64-.61-9.06a36.62,36.62,0,0,0,7-6.58c.57-.72,1.94-2.42,7.75.51-4.4-3.9-4.51-5.15-3.69-6.74a34.16,34.16,0,0,0,3.39-10.53c.24-1.55.52-3.37,10.72-3.64-10.17-1.29-10.33-3.15-10.45-4.51a34.73,34.73,0,0,0-1.84-8.54c-.88-2.49,2-5.29,5.39-7.62-6.52,2.62-7.88,2-9,.25a36.43,36.43,0,0,0-4.21-5.3c-1.51-1.57-.12-5,2.38-8.78-3.21,3.14-6.29,5.18-8.06,4a36.55,36.55,0,0,0-8.26-4.21,3.4,3.4,0,0,1-1.78-1.66,8.92,8.92,0,0,1-.3-4.2c-1.35,2.9-2.68,4.43-4.73,4.13a37.3,37.3,0,0,0-8.88-.3c-1.92.09-3.48-2.85-4.79-6.95.4,3.2.49,5.78,0,6.67a3,3,0,0,1-1.82,1.44,36.54,36.54,0,0,0-11.18,5.19c-1.28.88-2.51,1.72-7.71-3.39,4.12,6.11,2.77,7.49,2.14,8.13a34.94,34.94,0,0,0-7.09,10.8c-.33.78-1,2.29-6.87,1.45,5.4,2.44,5.07,4.08,4.87,5.09a34.87,34.87,0,0,0-.67,6.78c0,1.15.06,2.3.17,3.42s.24,2.38-3.17,3.67c3.69.18,4.06,1.46,4.28,2.24a34.9,34.9,0,0,0,3.55,8.29c.77,1.33.5,2.84-.85,4.59,2.05-.87,3.48-.7,4.5.49a36,36,0,0,0,10.44,8.33c1.35.72,3.39,2.76,2.4,8.41C2154.47,1010.52,2155.85,1009.34,2157.32,1009.34Zm-10,2h0Zm71.41-2.49a5.33,5.33,0,0,1,1.14,2.47c.14-.2.28-.41.42-.64a15.26,15.26,0,0,0,1-1.84A5.18,5.18,0,0,1,2218.74,1008.85Zm-71.89,2.07Zm-25.19-3.92c.17.27.36.55.56.84l.34.46a5,5,0,0,1,.47-1.46A5.11,5.11,0,0,1,2121.66,1007Zm13.59-5.31v0Zm65-.87,0,0Zm-90.63-16.43a17,17,0,0,0,.32,2.57,8.15,8.15,0,0,1,1.46-1.54A6,6,0,0,1,2109.61,984.39Zm122.83-6.61a4.56,4.56,0,0,1,1.65,1.76,32.67,32.67,0,0,0,.28-3.53A4.12,4.12,0,0,1,2232.44,977.78Zm-106.85,1.46h0Zm105.6-6.93h0Zm-105-4.94h0Zm-26.11-13.93a24.34,24.34,0,0,0-1.25,4.72c1.26-1,2.77-1.91,4.62-1.51l.64.14-1.06-.39A5,5,0,0,1,2100.06,953.44Zm102.78-.16h0ZM2218,950.8a6,6,0,0,1,2.26.49,15.73,15.73,0,0,0-1.2-2.87,7.52,7.52,0,0,1-1.29,2.39Zm-81.27-3.63,0,.05Zm19.37-11.46h0Zm17.83-1h0Zm-49.58-.93Zm3.12-2.18a4.33,4.33,0,0,1,1.9.4,8.53,8.53,0,0,1,.32-4c.05-.21.11-.48.17-.76a25.4,25.4,0,0,0-4.44,4.58A10.55,10.55,0,0,1,2127.5,931.61Zm81.41-8a5.51,5.51,0,0,1-.82,4.24l-.67.94.6-.62a6.09,6.09,0,0,1,4.14-1.91A29.88,29.88,0,0,0,2208.91,923.58Zm-32.75-.91Zm0-.6h0Zm5.16-1.91a5.63,5.63,0,0,1,.51,1.63,4.73,4.73,0,0,1,1.27-1.21A15.84,15.84,0,0,0,2181.29,920.16Zm-29-9.61a9.21,9.21,0,0,1,3.46,4.72v0l-.09-.68a7.94,7.94,0,0,1,1.06-5.13,17.36,17.36,0,0,0-1.92.34A25.31,25.31,0,0,0,2152.33,910.55Z"/><path class="cls-9" d="M1562.28,283.76c-2.61,0-5.16-.58-6.12-2.59-1.26-2.6,1-4.65,1.94-5.53l.36-.32a99.66,99.66,0,0,0-.93-13.57c-1-.1-2-.24-3-.44-.22.4-.49.91-.76,1.51a62.5,62.5,0,0,0-4.38,11.84l.1.11c.82.86,3,3.14,1.44,6.05-1.7,3.26-6.56,1.52-8.16.94-4.15-1.49-9-4-8.22-7.5.67-3.24,4.06-3.41,5.43-3.46a61.18,61.18,0,0,0,4.51-11,7.59,7.59,0,0,0,.25-2,32.17,32.17,0,0,1-7.3-5.59l-.41.27c-1.09.75-2.35,1.78-3.59,2.8l-1.52,1.24c0,.21,0,.44.06.61.3,2.83-.56,4.48-2.57,4.9-2.18.46-4.47-1-6.78-4.25-1.65-2.33-3.3-5.6-1.74-8,.53-.81,2.12-2.51,5.24-.8l.12.06a41.36,41.36,0,0,0,5.67-4.48,31.11,31.11,0,0,1-1.7-3.9,70.22,70.22,0,0,0-8.67,1.26,9.76,9.76,0,0,0-.66.94c-.7,1.07-1.75,2.69-3.73,2.69h0c-1.63,0-3.76-1-4.66-5.77-.33-1.74-1.11-7.51,2.57-9,2.23-.91,3.85.89,4.63,1.76l.38.42c3.35-.56,6.57-1.27,8.39-1.77,0-.32,0-.64,0-.95a31.2,31.2,0,0,1,.29-4.2c-2.11-.92-7.14-2.73-16.57-4.83l-.45.38c-1,.81-3.7,3-6.25.94-2.37-1.89-1.47-6.41-.72-8.93,1.18-4,3-6.21,5.4-6.44,2.17-.24,3.58,1.08,4.24,3.85,0,.13.08.31.12.46a107.18,107.18,0,0,0,17.16,5,30.63,30.63,0,0,1,4.22-6.43,71,71,0,0,0-5.88-7.66l-.13,0c-3.58.72-5.72-.17-6.37-2.64-.78-2.86,2.31-6.39,4.23-8.23,2.79-2.69,5.07-3.73,7-3.1,3.91,1.22,2.89,5.6,2.51,7.24,0,.16-.08.31-.11.46a79.81,79.81,0,0,0,6.61,7.14,31.91,31.91,0,0,1,6.29-3,89.17,89.17,0,0,0-2.73-13.9c-.23-.72-.7-1-1.56-1.55a4.58,4.58,0,0,1-2.55-3.13c-.67-4,5.1-5.4,7-5.85,4.87-1.17,8-.28,8.73,2.41a4.47,4.47,0,0,1-1.18,3.87c-.63.81-.82,1.15-.77,1.55a127.39,127.39,0,0,0,3.22,14.8,33.11,33.11,0,0,1,4,.16,34.7,34.7,0,0,0,2.52-8.21c-.1-.16-.22-.31-.33-.47a4.65,4.65,0,0,1-1.17-3.64,3.68,3.68,0,0,1,1.41-2.09c2.85-1.88,8-.15,9.59.6,2,1,3.17,2.28,3.32,3.88.22,2.31-1.82,3.25-3,3.81-.2.09-.41.18-.6.28a37.46,37.46,0,0,0-2.14,8.28,34.15,34.15,0,0,1,4,2,68.24,68.24,0,0,0,9.58-11.26c-.07-.22-.18-.51-.26-.72-.39-1-1.31-3.47.75-5.17,1.83-1.5,4.46-1,7.82,1.43,2.1,1.53,6.85,5.45,5.53,8.8-.73,1.88-2.42,2.6-5,2.1a4.3,4.3,0,0,0-1-.12c-5.8,6.12-8.31,10-9.29,11.71q.78.91,1.5,1.89a75.88,75.88,0,0,0,8-3.41c.09-.25.19-.62.27-.86.34-1.18.85-3,2.71-3.54,1.17-.35,4.11-.65,6.52,4.25.34.7,3.27,7-.18,9.39-1.88,1.31-3.81.15-4.73-.41-.16-.09-.38-.23-.57-.33a27.18,27.18,0,0,0-7.24,4.4,30.84,30.84,0,0,1,1,4.53c1.76.4,5.94,1.09,14.67,1.46a5.32,5.32,0,0,1,4.63-3.53c1.44,0,4,.65,4.21,6,0,1.11.31,10.86-4.62,11.1-3,.14-4.16-2.81-4.62-4.09a97.2,97.2,0,0,0-14.62,0,31.05,31.05,0,0,1-1.93,6c.59.57,1.43,1.33,2.47,2.18,2.7,2.23,6.21,4.79,7.59,5.74.1,0,.19-.1.27-.14,2.71-1.5,4.33-.58,5.21.45,2.32,2.72-.26,7.38-1.11,8.75-2.31,3.71-5.08,5.25-7.39,4.15s-2.2-3.58-2.13-4.64c0-.13,0-.3,0-.45l-1.93-1.56c-1.74-1.42-3.55-2.89-4.88-3.77a24.06,24.06,0,0,0-3.72-2.07,32,32,0,0,1-3.7,3.47,40.18,40.18,0,0,0,3.49,7.14c.3.08.7.16,1,.22,1.16.22,3.88.75,3.86,3.41a4.36,4.36,0,0,1-1.51,3c-1.58,1.56-6.11,4.56-8.85,4.56h0a3.27,3.27,0,0,1-2.57-1.26c-1.11-1.44-.69-3.17-.35-4.55.06-.22.12-.43.16-.64a52.79,52.79,0,0,0-4.36-6.73,32.57,32.57,0,0,1-4.59,1.31,116.94,116.94,0,0,0,.67,14c.14.09.33.21.48.29.76.44,3.09,1.77,2.55,4.43-.4,2-2.31,3.14-6.18,3.63A23.9,23.9,0,0,1,1562.28,283.76Zm-19-7.93.42.18,0-.15,0-.29A4.06,4.06,0,0,1,1543.28,275.83Zm33.33-9.55Zm-11-4.71h0Zm-12.36-6.31a3.23,3.23,0,0,1,.79.1,27.26,27.26,0,0,0,5.92.83c.59,0,1.53.06,2.36,1.84a2.52,2.52,0,0,1,2.46-2.11,27,27,0,0,0,6.8-1.91c.93-.39,2-.84,4,1.18-.32-1.76-.1-3.2,1-4a26.49,26.49,0,0,0,5.18-4.85c.44-.54,1.24-1.51,3.61-1-1.1-1.38-1.25-2.43-.6-3.65a25.22,25.22,0,0,0,2.48-7.71c.17-1.16.34-2.3,3.6-2.91-3.24-.93-3.33-2.06-3.41-3.11a25.55,25.55,0,0,0-1.35-6.26c-.49-1.4.2-2.84,1.44-4.18-2.23.49-3.3,0-4.11-1.25a26.48,26.48,0,0,0-3.11-3.9q-1.23-1.28-.16-4.05a5.11,5.11,0,0,1-1.83,1,3,3,0,0,1-2.2-.46,26.61,26.61,0,0,0-6.08-3.1,3.25,3.25,0,0,1-1.74-1.62,4.17,4.17,0,0,1-.29-1.06,3.3,3.3,0,0,1-3,1.4,28.23,28.23,0,0,0-6.56-.22c-.58,0-1.58.13-2.76-1.84a3.4,3.4,0,0,1-.29,1.27,3.06,3.06,0,0,1-1.8,1.43,26.51,26.51,0,0,0-8.25,3.82c-.92.63-1.74,1.2-3.72-.1.89,2.27.14,3-.37,3.58a25.71,25.71,0,0,0-5.24,8c-.29.7-.67,1.59-2.75,1.75,1.64,1.25,1.44,2.24,1.28,3.05a26.48,26.48,0,0,0-.49,5c0,.85.05,1.69.12,2.52a2.28,2.28,0,0,1-.84,2.48,2.36,2.36,0,0,1,1.67,1.89,25.56,25.56,0,0,0,2.6,6.08,3,3,0,0,1,.2,2.71,2.87,2.87,0,0,1,2.47,1A26.78,26.78,0,0,0,1548,253a4.7,4.7,0,0,1,2.35,4.07A3.62,3.62,0,0,1,1553.27,255.26ZM1532.71,246l.06.1Zm-11.07-4.23Zm71.3-6.93a0,0,0,0,0,0,0A0,0,0,0,1,1592.94,234.85Zm-64.39-1.61v0Zm64.62-5.74v0Zm-1.31-2.07Zm-.35-5.6h0Zm-81.38-4.5c-.05.15-.09.31-.13.46l.4-.17A3.58,3.58,0,0,1,1510.13,215.33Zm78.11-2.15h0Zm-3.78-4.75v0Zm11.15-.33ZM1537,196.65Zm-6.27-.16a3.43,3.43,0,0,1,.56,0q0-.34.06-.69C1531.18,196.05,1531,196.27,1530.77,196.49Zm5.74-1.17h0Zm56.49-2.77,0,.24.22-.08Zm-26.17-1.87Zm-16-9.13a6.1,6.1,0,0,1,.54.59,6.41,6.41,0,0,1,.23-.78l-.11,0Z"/><path class="cls-9" d="M782.19,704.93c-2.34,0-4.66-.54-5.58-2.44-1.19-2.5.87-4.37,1.75-5.18l.15-.14a82.56,82.56,0,0,0-.73-10.81c-.63-.07-1.27-.16-1.9-.28q-.23.4-.48,1a56.18,56.18,0,0,0-3.61,9.64c.74.77,2.61,2.88,1.22,5.53-1.63,3.1-6,1.52-7.45,1-3.65-1.32-7.87-3.57-7.18-6.82.59-2.85,3.4-3.19,4.72-3.26a49.67,49.67,0,0,0,3.64-9,7.8,7.8,0,0,0,.2-1.36,27.33,27.33,0,0,1-5.75-4.38l0,0c-.9.62-1.95,1.48-3,2.33l-1.1.9,0,.26c.35,3.31-1.18,4.34-2.52,4.62-2,.44-4.1-.83-6.17-3.76-1.47-2.08-2.92-5-1.48-7.21.41-.61,1.92-2.43,4.87-.9a36.92,36.92,0,0,0,4.25-3.34,27.31,27.31,0,0,1-1.19-2.72,58.13,58.13,0,0,0-6.74,1c-.14.18-.31.44-.42.62a4.64,4.64,0,0,1-3.57,2.47c-1.26,0-3.5-.71-4.36-5.23-.29-1.55-1-6.69,2.44-8.09,2.15-.87,3.73.86,4.4,1.6l.15.17c2.51-.42,4.93-.95,6.45-1.35,0-.15,0-.3,0-.46a27.26,27.26,0,0,1,.2-3.25,83.86,83.86,0,0,0-13.33-3.86l-.22.18c-.83.68-3.39,2.75-5.82.8-2.1-1.67-1.57-5.28-.76-8,1.05-3.54,2.75-5.52,4.93-5.74,1.41-.15,3.28.37,4,3.58a.94.94,0,0,1,0,.16,92.56,92.56,0,0,0,13.82,4,27.31,27.31,0,0,1,3.24-4.94,58.21,58.21,0,0,0-4.55-5.92c-3.2.6-5.13-.26-5.74-2.57-.68-2.52,1.63-5.41,3.69-7.39,2.48-2.39,4.56-3.26,6.38-2.7,3.69,1.15,2.73,5.28,2.42,6.63l0,.17a68.39,68.39,0,0,0,5.13,5.56,27.34,27.34,0,0,1,4.74-2.23,71.8,71.8,0,0,0-2.24-11.26c-.14-.43-.4-.62-1.11-1.05a4.3,4.3,0,0,1-2.36-2.95c-.63-3.81,4.54-5,6.24-5.44,4.35-1,7.22-.2,7.88,2.34a4.13,4.13,0,0,1-1.07,3.66c-.34.45-.58.78-.56,1a106,106,0,0,0,2.61,12.06c.92,0,1.82,0,2.73.11a28.63,28.63,0,0,0,1.91-6.32l-.17-.24a4.42,4.42,0,0,1-1.06-3.41,3.59,3.59,0,0,1,1.38-2.05c2.59-1.71,7.14-.18,8.53.48,1.87.89,2.9,2.11,3,3.62.21,2.27-1.83,3.21-2.82,3.66l-.34.15a32.71,32.71,0,0,0-1.67,6.37,27.86,27.86,0,0,1,2.78,1.41,58.56,58.56,0,0,0,7.63-9c0-.12-.09-.26-.14-.37-.33-.88-1.22-3.23.77-4.86,1.71-1.41,4.11-1,7.13,1.18,2.31,1.68,6,4.94,4.82,8-.49,1.24-1.7,2.61-4.76,2l-.54-.09a55.08,55.08,0,0,0-7.53,9.36c.31.36.6.73.88,1.11,1-.37,2.89-1.12,6.16-2.67.06-.17.12-.38.16-.52.3-1,.79-2.74,2.59-3.29,1.08-.34,3.85-.63,6,3.81.5,1,2.85,6.25-.3,8.47-1.81,1.29-3.68.16-4.47-.32l-.26-.17a23.15,23.15,0,0,0-5.56,3.35,26.59,26.59,0,0,1,.72,3.3,79.7,79.7,0,0,0,11.68,1.14,4.82,4.82,0,0,1,4.16-3c1.14-.07,3.81.43,4,5.48,0,1,.26,9.58-4.32,9.81-2.72.16-3.79-2.25-4.24-3.46a84.61,84.61,0,0,0-11.62-.06,27,27,0,0,1-1.45,4.54c.46.43,1.07,1,1.82,1.6,2.14,1.76,4.87,3.76,6.14,4.65,2.53-1.38,4.07-.5,4.92.49,2.17,2.54-.14,6.69-.89,7.9-2.07,3.34-4.61,4.71-6.8,3.67s-2.1-3.45-2.05-4.34c0-.05,0-.1,0-.15l-1.42-1.14c-1.47-1.2-3-2.44-4.11-3.18a23.46,23.46,0,0,0-2.77-1.58,28,28,0,0,1-2.7,2.53,33.93,33.93,0,0,0,2.7,5.49l.62.11c1,.2,3.62.71,3.62,3.31a4.24,4.24,0,0,1-1.42,2.9c-1.41,1.39-5.31,4-7.77,4h0a3.66,3.66,0,0,1-2.52-1.24c-1.07-1.39-.66-3-.37-4.22l.09-.35a46.06,46.06,0,0,0-3.34-5.21,28.4,28.4,0,0,1-3.27.94,100.75,100.75,0,0,0,.55,11.15l.2.11c.71.41,2.88,1.65,2.37,4.21s-3.44,3.14-5.61,3.42A18.91,18.91,0,0,1,782.19,704.93Zm11.6-15.2Zm6.61-1.89Zm-15.3-1.6h0ZM774,685.66h0ZM810.28,684l0,0ZM774.57,680a2.92,2.92,0,0,1,.81.11,22.69,22.69,0,0,0,4.88.68,2.17,2.17,0,0,1,1.93.92,2.38,2.38,0,0,1,2.06-1.14,22.54,22.54,0,0,0,5.6-1.58,2.71,2.71,0,0,1,3,.32,3,3,0,0,1,1.15-2.65,21.9,21.9,0,0,0,4.27-4,2.78,2.78,0,0,1,2.47-1.11,2.7,2.7,0,0,1,0-2.67,20.88,20.88,0,0,0,2.06-6.39,2.57,2.57,0,0,0,.16-4.95,21.11,21.11,0,0,0-1.12-5.17,3.34,3.34,0,0,1,.58-3,2.85,2.85,0,0,1-2.78-1.43,21.55,21.55,0,0,0-2.56-3.22,2.63,2.63,0,0,1-.61-2.88,2.86,2.86,0,0,1-2.84,0,21.71,21.71,0,0,0-5-2.57,3.24,3.24,0,0,1-1.71-1.59l-.09-.22a2.87,2.87,0,0,1-2.34.76A24,24,0,0,0,779,638a2.22,2.22,0,0,1-2.13-.86l-.08.15A3,3,0,0,1,775,638.7a22.2,22.2,0,0,0-6.8,3.15,2.5,2.5,0,0,1-2.62.44,2.39,2.39,0,0,1-.76,2.44,21.23,21.23,0,0,0-4.32,6.57,2.33,2.33,0,0,1-1.71,1.62,2.37,2.37,0,0,1,.5,2.33,21.16,21.16,0,0,0-.41,4.12,20.2,20.2,0,0,0,.11,2.07,2.76,2.76,0,0,1-.37,2,2.44,2.44,0,0,1,1,1.61,21.18,21.18,0,0,0,2.15,5,2.89,2.89,0,0,1,.37,2.08,2.75,2.75,0,0,1,1.82,1,21.89,21.89,0,0,0,6.37,5.09,4.13,4.13,0,0,1,2.05,2.78A3,3,0,0,1,774.57,680Zm28.12-3.74v0Zm-51.53-1.18h0Zm-3.46-5.38h0Zm73.36-4.39h0ZM753.33,662h0Zm51.08-17.17h0Zm-13.91-11h0Zm-2.17-8.62Z"/><path class="cls-9" d="M1902.63,911.26c-2.73,0-4.49-.79-5.25-2.36-1.17-2.45.87-4.32,1.64-5l.07-.06a77.07,77.07,0,0,0-.64-9.51c-.46,0-.92-.12-1.38-.2-.1.21-.22.44-.34.7a53.49,53.49,0,0,0-3.24,8.6c1,1.08,2.26,2.94,1,5.24-1.57,3-5.72,1.53-7.08,1-3.43-1.23-7.38-3.36-6.73-6.52.57-2.67,3.09-3.08,4.4-3.16a44.5,44.5,0,0,0,3.23-8,6.87,6.87,0,0,0,.17-1,25.4,25.4,0,0,1-5-3.82c-.78.56-1.68,1.3-2.57,2l-.89.73s0,.08,0,.11c.33,3.19-1.17,4.2-2.5,4.48-2,.43-3.94-.78-5.88-3.53-1.39-2-2.75-4.73-1.36-6.85.4-.6,1.87-2.34,4.64-1a32.73,32.73,0,0,0,3.58-2.81c-.35-.71-.66-1.43-.94-2.16a54.23,54.23,0,0,0-5.83.87c-.11.15-.24.35-.33.49-.58.89-1.45,2.36-3.47,2.36-1.2,0-3.39-.67-4.2-5-.28-1.46-.93-6.32,2.37-7.66,2.12-.86,3.65.81,4.3,1.52l0,.05c2.13-.36,4.17-.81,5.52-1.15v-.22a26.32,26.32,0,0,1,.16-2.81,78,78,0,0,0-11.82-3.4l-.09.08c-.8.66-3.25,2.63-5.64.74-2-1.61-1.53-5-.77-7.56,1.24-4.23,3.25-5.28,4.71-5.43,1.13-.11,3.19.18,4,3.46h0a83,83,0,0,0,12.25,3.58,24.38,24.38,0,0,1,2.78-4.24,53.31,53.31,0,0,0-3.94-5.1c-3.69.65-5-1-5.38-2.56-.65-2.39,1.5-5.11,3.42-7,2.34-2.26,4.33-3.07,6.08-2.54,2.38.74,3.18,2.88,2.38,6.35a0,0,0,0,0,0,0,62.15,62.15,0,0,0,4.44,4.81,24.87,24.87,0,0,1,4-1.88,64.65,64.65,0,0,0-2-10c-.09-.3-.26-.44-.9-.82a4.21,4.21,0,0,1-2.27-2.87c-.41-2.45,1.57-4.22,5.88-5.24,4.12-1,6.87-.14,7.49,2.34a4,4,0,0,1-1,3.53,3.55,3.55,0,0,0-.46.69,97.85,97.85,0,0,0,2.32,10.79c.71,0,1.42,0,2.13.08a25.43,25.43,0,0,0,1.64-5.44l-.09-.13a4.23,4.23,0,0,1-1-3.3,3.48,3.48,0,0,1,1.36-2c2.47-1.62,6.63-.26,8,.41,2.23,1.07,2.82,2.5,2.91,3.51.22,2.24-1.76,3.15-2.71,3.6l-.21.09a29.57,29.57,0,0,0-1.44,5.46c.75.34,1.5.72,2.22,1.13a54.49,54.49,0,0,0,6.71-7.94,1.67,1.67,0,0,1-.08-.2c-.29-.77-1.18-3.12.78-4.73,1.65-1.36,4-1,6.81,1.09,2.16,1.57,5.61,4.64,4.46,7.54-.47,1.21-1.68,2.57-4.61,2l-.35-.06a53,53,0,0,0-6.66,8.23c.2.24.4.49.59.74.94-.35,2.58-1,5.33-2.32,0-.12.07-.24.1-.36a4,4,0,0,1,2.53-3.17c.82-.25,3.66-.73,5.79,3.61.47,1,2.68,5.9-.35,8-1.8,1.27-3.6.18-4.36-.29l-.12-.08a21.22,21.22,0,0,0-4.77,2.85,24.86,24.86,0,0,1,.6,2.72,75.51,75.51,0,0,0,10.29,1,4.55,4.55,0,0,1,3.92-2.69c1.07,0,3.73.42,3.92,5.25.06,1.5.14,9-4.18,9.19-2.59.12-3.59-2-4-3.16a79.36,79.36,0,0,0-10.21-.07,24.19,24.19,0,0,1-1.23,3.84c.4.37.91.82,1.52,1.33,1.87,1.55,4.26,3.31,5.46,4.15,2.61-1.24,4-.18,4.66.58,2.08,2.42-.08,6.34-.8,7.49-2,3.17-4.4,4.44-6.52,3.44s-2.06-3.42-2-4.2h0l-1.25-1c-1.3-1.06-2.62-2.15-3.67-2.84a20,20,0,0,0-2.33-1.34,25.62,25.62,0,0,1-2.21,2.08,29.3,29.3,0,0,0,2.32,4.69l.45.09c.87.17,3.52.69,3.5,3.28a4,4,0,0,1-1.36,2.79c-1.11,1.1-4.76,3.91-7.31,3.69a3.47,3.47,0,0,1-2.48-1.23c-1.06-1.35-.67-2.91-.39-4.05l.06-.23a43.29,43.29,0,0,0-2.87-4.48,24.72,24.72,0,0,1-2.64.75,94.47,94.47,0,0,0,.48,9.81l.08,0c1.84,1.06,2.61,2.44,2.28,4.1-.49,2.44-3.29,3.07-5.35,3.32A17.17,17.17,0,0,1,1902.63,911.26Zm-3.55-6.62h0Zm-14.54-3.45v0Zm28.76-3h0Zm5.79-3Zm-7.25-2.87h0Zm16.3-.32,0,0Zm-38.77-.62,0,0Zm-.84-.92Zm7.24-2.48a2.87,2.87,0,0,1,.75.1,20.29,20.29,0,0,0,4.41.61,2.44,2.44,0,0,1,1.72.65,2.54,2.54,0,0,1,1.87-.84,20.15,20.15,0,0,0,5.06-1.42,2.6,2.6,0,0,1,2.55,0,2.57,2.57,0,0,1,1.18-2.14,20.2,20.2,0,0,0,3.84-3.6,2.83,2.83,0,0,1,2.06-1.11,2.64,2.64,0,0,1,.17-2.31,18.84,18.84,0,0,0,1.84-5.73,2.46,2.46,0,0,1,1.4-2.23,2.4,2.4,0,0,1-1.26-2.22,18.63,18.63,0,0,0-1-4.65,3.16,3.16,0,0,1,.31-2.62,2.76,2.76,0,0,1-2.3-1.42,19.57,19.57,0,0,0-2.3-2.89,2.43,2.43,0,0,1-.73-2.38,2.62,2.62,0,0,1-2.36-.24,20.37,20.37,0,0,0-4.53-2.31,3.16,3.16,0,0,1-1.63-1.41,2.8,2.8,0,0,1-2.11.46,20.86,20.86,0,0,0-4.87-.16,2.22,2.22,0,0,1-1.95-.57,3,3,0,0,1-1.63,1.2,19.72,19.72,0,0,0-6.15,2.84,2.66,2.66,0,0,1-2.2.56,2.35,2.35,0,0,1-.83,2,19.21,19.21,0,0,0-3.9,5.92,2.39,2.39,0,0,1-1.33,1.53,2.44,2.44,0,0,1,.24,2,19.47,19.47,0,0,0-.37,3.72,16.26,16.26,0,0,0,.1,1.85,3,3,0,0,1-.24,1.75,2.62,2.62,0,0,1,.85,1.51,18.88,18.88,0,0,0,1.93,4.51,2.66,2.66,0,0,1,.42,1.81,2.82,2.82,0,0,1,1.53.9,19.79,19.79,0,0,0,5.75,4.62,3.9,3.9,0,0,1,1.9,2.31A2.8,2.8,0,0,1,1895.77,888.05Zm25.82-3,0,.05Zm-47.32-1.44Zm5.13-1.69a.6.6,0,0,0,.09.15Zm-.1-2.36Zm47.57-6.4v0Zm-50.73-1.26h0Zm62.5-5.33h0ZM1877.91,860h0Zm45.24-4,0,0Zm-46.36-8.18h0Zm33.58-1.89h0Zm-4.81-1.22h0Z"/><path class="cls-9" d="M1030.72,234.42c-2.73,0-4.49-.79-5.25-2.37-1.18-2.44.87-4.31,1.64-5l.06-.06a75.13,75.13,0,0,0-.64-9.51c-.46-.05-.91-.12-1.37-.2-.1.2-.22.43-.34.69a53.79,53.79,0,0,0-3.25,8.61c1,1.08,2.27,2.94,1.06,5.24-1.58,3-5.72,1.53-7.08,1-3.43-1.23-7.39-3.36-6.73-6.52.56-2.68,3.09-3.08,4.39-3.16a44.31,44.31,0,0,0,3.24-8,8.51,8.51,0,0,0,.17-1,25,25,0,0,1-5-3.82c-.8.56-1.7,1.31-2.59,2l-.87.71s0,.07,0,.11c.35,3.36-1.42,4.25-2.5,4.48-2,.41-3.93-.78-5.89-3.53-1.38-2-2.74-4.74-1.34-6.86.38-.59,1.83-2.34,4.63-1a32.58,32.58,0,0,0,3.57-2.81c-.34-.7-.66-1.42-.94-2.16a57.28,57.28,0,0,0-5.83.87l-.32.48c-.58.9-1.53,2.44-3.46,2.37-1.23,0-3.4-.68-4.22-5-.27-1.45-.92-6.31,2.38-7.65,2.13-.88,3.64.8,4.29,1.52l0,.05c2.13-.36,4.18-.81,5.53-1.15v-.22a26,26,0,0,1,.16-2.81,78,78,0,0,0-11.82-3.4l-.1.08c-.81.65-3.25,2.64-5.63.74-2-1.63-1.53-5-.77-7.59,1.25-4.2,3.25-5.25,4.71-5.4,1.14-.1,3.18.19,4,3.46h0a82.65,82.65,0,0,0,12.24,3.58,24.63,24.63,0,0,1,2.79-4.24,53.31,53.31,0,0,0-3.94-5.1c-3.7.64-5-1-5.39-2.56-.64-2.41,1.53-5.13,3.46-7,2.32-2.24,4.3-3.07,6.05-2.51,2.38.74,3.18,2.87,2.37,6.34v0a61.55,61.55,0,0,0,4.44,4.83,24.86,24.86,0,0,1,4-1.89,67.33,67.33,0,0,0-2-10c-.09-.3-.27-.44-.91-.82a4.24,4.24,0,0,1-2.27-2.87c-.6-3.69,4.28-4.86,5.88-5.24,4.13-1,6.86-.14,7.5,2.32a4.06,4.06,0,0,1-1,3.55,3,3,0,0,0-.47.7,97.74,97.74,0,0,0,2.32,10.78c.71,0,1.43,0,2.14.08a26,26,0,0,0,1.64-5.44,1.47,1.47,0,0,0-.1-.13,4.26,4.26,0,0,1-1-3.3,3.45,3.45,0,0,1,1.37-2c2.46-1.63,6.62-.25,8,.41,2.24,1.07,2.83,2.5,2.92,3.51.22,2.25-1.76,3.16-2.71,3.59l-.21.1a29.79,29.79,0,0,0-1.45,5.46c.76.34,1.5.72,2.22,1.13a54.41,54.41,0,0,0,6.71-7.94,1.67,1.67,0,0,0-.08-.2c-.29-.77-1.17-3.12.78-4.72,1.66-1.37,3.94-1,6.79,1.06,2.16,1.57,5.63,4.64,4.5,7.54-.49,1.24-1.67,2.59-4.62,2l-.36-.06a52.68,52.68,0,0,0-6.65,8.23c.2.24.4.49.59.74.94-.34,2.57-1,5.33-2.32,0-.12.06-.24.1-.36a4,4,0,0,1,2.52-3.17c.83-.25,3.67-.73,5.79,3.61.48,1,2.69,5.9-.34,8-1.81,1.26-3.6.17-4.36-.29l-.13-.07a20.13,20.13,0,0,0-4.76,2.85,25.21,25.21,0,0,1,.6,2.71,76.2,76.2,0,0,0,10.28,1,4.54,4.54,0,0,1,3.92-2.7c1.16,0,3.73.4,3.92,5.23.07,1.5.16,9-4.17,9.21-2.48.13-3.59-2-4-3.16a81.35,81.35,0,0,0-10.21-.07,25.26,25.26,0,0,1-1.23,3.84c.39.37.9.82,1.52,1.33,1.89,1.56,4.27,3.31,5.46,4.15,2.61-1.23,4-.18,4.66.58,2.07,2.42-.09,6.34-.79,7.49-2,3.17-4.42,4.45-6.53,3.43s-2.06-3.42-2-4.2h0l-1.19-1c-1.32-1.08-2.67-2.18-3.72-2.88a20,20,0,0,0-2.33-1.34,25.65,25.65,0,0,1-2.22,2.08,30.44,30.44,0,0,0,2.33,4.69l.45.09c.86.17,3.5.68,3.5,3.26a4.08,4.08,0,0,1-1.37,2.82c-1.11,1.09-4.76,3.68-7.26,3.68h0a3.49,3.49,0,0,1-2.49-1.23c-1-1.35-.67-2.91-.39-4.05l.06-.23a43.69,43.69,0,0,0-2.86-4.48,27.49,27.49,0,0,1-2.65.75,92.22,92.22,0,0,0,.49,9.81l.07,0q2.78,1.59,2.29,4.1c-.49,2.44-3.28,3.06-5.34,3.32A17.32,17.32,0,0,1,1030.72,234.42Zm10.38-14.15h0Zm6.08-1.85Zm-13.74-1h0Zm15.48-.4h0Zm-9-1.43h0Zm16.3-.32,0,0Zm-39.61-1.54Zm28.13-.85h0Zm-20.9-1.63a3.07,3.07,0,0,1,.77.1,21.12,21.12,0,0,0,4.41.62,2.28,2.28,0,0,1,1.73.62,2.54,2.54,0,0,1,1.86-.82,20.27,20.27,0,0,0,5.06-1.42,2.67,2.67,0,0,1,2.54.06,2.6,2.6,0,0,1,1.2-2.17,20,20,0,0,0,3.82-3.59,2.86,2.86,0,0,1,2.06-1.11,2.7,2.7,0,0,1,.16-2.29,18.52,18.52,0,0,0,1.85-5.75,2.44,2.44,0,0,1,1.41-2.22,2.38,2.38,0,0,1-1.26-2.23,19.19,19.19,0,0,0-1-4.66,3.07,3.07,0,0,1,.3-2.63,2.79,2.79,0,0,1-2.28-1.38,19.6,19.6,0,0,0-2.31-2.9,2.43,2.43,0,0,1-.76-2.22l-.17,0a2.9,2.9,0,0,1-2.18-.46,20.47,20.47,0,0,0-4.52-2.3,3.18,3.18,0,0,1-1.66-1.47,2.74,2.74,0,0,1-2.06.53,21.12,21.12,0,0,0-4.89-.17,2.18,2.18,0,0,1-1.92-.6,3,3,0,0,1-1.69,1.23,20.33,20.33,0,0,0-6.12,2.84,2.59,2.59,0,0,1-2.19.58,2.35,2.35,0,0,1-.85,2,19.25,19.25,0,0,0-3.89,5.92,2.37,2.37,0,0,1-1.33,1.52,2.43,2.43,0,0,1,.25,2,18.31,18.31,0,0,0-.37,3.71c0,.63,0,1.25.09,1.87a2.9,2.9,0,0,1-.23,1.73,2.59,2.59,0,0,1,.84,1.53,19.27,19.27,0,0,0,1.93,4.49,2.79,2.79,0,0,1,.41,1.81,2.74,2.74,0,0,1,1.6,1,19.71,19.71,0,0,0,5.7,4.54,3.91,3.91,0,0,1,1.88,2.31A2.78,2.78,0,0,1,1023.84,211.21Zm-13.73-2.47,0,.06Zm39.55-.52Zm-42.14-3.08,0,0Zm-3.3-10.09h0Zm49.61-10.62a.14.14,0,0,0,0,.07A.14.14,0,0,1,1053.83,184.43ZM1015,172.16h0Zm-3.45-6.72h0Zm30.5-1.78h0Zm-5.57-1.91Z"/><path class="cls-6" d="M871.17,871.37a16.56,16.56,0,1,0-21.48,8.39A16.31,16.31,0,0,0,871.17,871.37Z"/><path d="M910.9,1220.47a2.85,2.85,0,0,1-2.51-4.21c3.4-6.29,3.31-15.7-.24-24.57s-9.73-15.28-17-17.65a2.85,2.85,0,1,1,1.77-5.42c8.88,2.89,16.37,10.53,20.54,21s4.14,21.66,0,29.4A2.85,2.85,0,0,1,910.9,1220.47Z"/><path class="cls-6" d="M891.22,1223.78a28.28,28.28,0,1,0-37.12,14.53A28.2,28.2,0,0,0,891.22,1223.78Z"/><path d="M876.21,1173.41a2.85,2.85,0,0,1-1.55-5.25c5.87-3.79,5.17-15.49,1.84-21.53a2.85,2.85,0,0,1,5-2.75c4.43,8,5.17,23.32-3.74,29.07A2.83,2.83,0,0,1,876.21,1173.41Z"/><path d="M832.71,1183.44a2.82,2.82,0,0,1-1.29-.31,2.86,2.86,0,0,1-1.26-3.84c3.25-6.4-2.68-19-5.24-23.28a2.86,2.86,0,0,1,4.91-2.92c1.11,1.86,10.67,18.46,5.42,28.79A2.84,2.84,0,0,1,832.71,1183.44Z"/><path d="M791.6,1206.22c-8,0-17.07-4.1-23.94-11.3a2.85,2.85,0,1,1,4.13-3.94c7.44,7.8,18,11.4,25.19,8.58a2.85,2.85,0,1,1,2.1,5.3A20.16,20.16,0,0,1,791.6,1206.22Z"/><path d="M721.61,1279.11a32.44,32.44,0,0,1-5.56-.47,2.85,2.85,0,1,1,1-5.62c13.41,2.31,29.11-7,29.26-7.06a2.86,2.86,0,0,1,3,4.89C748.61,1271.23,735.38,1279.11,721.61,1279.11Z"/><path d="M751.87,1240.89a39.8,39.8,0,0,1-18-4.17,2.86,2.86,0,1,1,2.57-5.1c14.29,7.19,29.11,1.17,29.26,1.11a2.85,2.85,0,0,1,2.21,5.26A44.4,44.4,0,0,1,751.87,1240.89Z"/><path d="M895.39,458.3a68.5,68.5,0,0,1-13.66-1.86c-4.82-1-11-1.8-18.19-2.68-32.58-4-87.1-10.69-145.73-58.89A293.58,293.58,0,0,1,667,340.38c-22.15-30.54-28.55-68.3-24.65-83.82,1.08-4.31,2.94-7.14,5.51-8.39,13.41-6.49,109.14-3.41,187,57.84,61,48,67.22,100.43,69.56,120.17.16,1.33.3,2.5.44,3.48h0c.32,2.29.66,4.43,1,6.42,1.44,9.09,2.49,15.65-1.55,19.48C902.33,457.39,899.56,458.3,895.39,458.3ZM666.73,251.43c-8.3,0-14,.76-16.34,1.88-.34.17-1.55,1-2.47,4.64-3.62,14.44,2.62,49.95,23.74,79.08a287.71,287.71,0,0,0,49.78,53.43c57.35,47.15,110.83,53.71,142.79,57.63,7.32.9,13.63,1.67,18.7,2.76,9.73,2.1,15.59,2.29,17.41.56s1-7.35-.16-14.43c-.32-2-.66-4.2-1-6.54-.14-1-.28-2.21-.45-3.59-2.26-19.09-8.29-69.81-67.42-116.35C771.06,263.07,699.22,251.43,666.73,251.43Z"/><path d="M752.77,418.32a2.87,2.87,0,0,1-2.13-.95c-25.22-28.25-17.11-60.46-1.12-81.18,19.5-25.26,57.13-43.46,88.46-27.44a2.85,2.85,0,1,1-2.6,5.08c-27.55-14.09-63,2.08-81.34,25.85-18.9,24.49-18.58,52.11.86,73.88a2.85,2.85,0,0,1-2.13,4.76Z"/><path d="M849.28,451.44a41.62,41.62,0,0,1-9.33-1,2.85,2.85,0,0,1,1.28-5.56c11.95,2.75,27-1.22,38.41-10.09,9.68-7.54,15.36-17.58,15.58-27.55a2.86,2.86,0,0,1,5.71.12c-.26,11.69-6.74,23.33-17.78,31.94C873.07,447.11,860.75,451.44,849.28,451.44Z"/><path class="cls-6" d="M821.75,423.8c22.41,3.67,42.67-10.79,45.23-32.3s-13.52-41.92-35.93-45.58-42.67,10.79-45.24,32.3S799.33,420.13,821.75,423.8Z"/><path d="M906.59,393.09c-5.81,0-11.44-1.45-15.89-5a2.86,2.86,0,0,1,3.57-4.46c9.25,7.41,26.67,2.56,34.14-3.9a2.85,2.85,0,0,1,3.73,4.32C926.32,389.08,916.23,393.09,906.59,393.09Z"/><path d="M863.42,334.84a22,22,0,0,1-4.36-.43,2.85,2.85,0,1,1,1.16-5.59c14.11,2.91,33.36-14.72,33.55-14.9a2.86,2.86,0,1,1,3.88,4.19C896.85,318.85,879.4,334.84,863.42,334.84Z"/><path d="M812.05,295.2a2.86,2.86,0,0,1-2.17-1c-9.43-11-9.14-29.2.72-44.25a2.86,2.86,0,0,1,4.78,3.13c-8.34,12.73-8.83,28.46-1.16,37.4a2.86,2.86,0,0,1-2.17,4.72Z"/><path d="M693.55,252.41a2.88,2.88,0,0,1-1.73-.58c-1-.76-24.41-18.8-26.15-41.34a2.85,2.85,0,1,1,5.69-.44c1.54,20,23.7,37.06,23.92,37.23a2.86,2.86,0,0,1-1.73,5.13Z"/><path d="M749.78,265.32a2.83,2.83,0,0,1-2.12-.95c-.74-.82-18-20.43-13.16-45.1a2.85,2.85,0,0,1,5.6,1.09c-4.28,21.84,11.65,40,11.81,40.2a2.86,2.86,0,0,1-2.13,4.76Z"/><path d="M1271,198.75c-34.18,0-58.87-12.94-69.57-18.55-2-1-3.5-1.83-4.32-2.15-4.41-1.69-6.91-4-7.67-7.19-1-4.14,1.27-9,7.31-15.64h0a63.16,63.16,0,0,0,4.32-5.78c8.62-12.43,23-33.22,69-40.49,55.21-8.73,104.13,19.94,108.85,29.11,1.09,2.11,1.08,5,0,8.25-3.13,9.36-15.87,23.91-42.23,36.62C1312.36,194.67,1290.18,198.75,1271,198.75ZM1291.43,113a131,131,0,0,0-20.43,1.59c-43.58,6.89-57.14,26.43-65.24,38.1a67,67,0,0,1-4.78,6.37h0c-5.55,6.13-6.32,9.07-6,10.47s2.45,2.54,4.15,3.19a53.75,53.75,0,0,1,4.93,2.43c16.07,8.42,65,34.07,130.15,2.63,24.79-11.95,36.66-25.4,39.3-33.28.67-2,.61-3.32.36-3.82C1371,135.13,1336,113,1291.43,113Zm-92.56,44.14h0Z"/><path class="cls-6" d="M1272.15,186.48a24.35,24.35,0,1,1,32.26-11.74A24.27,24.27,0,0,1,1272.15,186.48Z"/><path d="M1215.56,137c-8.66,0-16-9.57-17.68-17.1a2.86,2.86,0,1,1,5.58-1.23c1.22,5.52,7.39,13.42,13,12.55a2.86,2.86,0,0,1,.85,5.65A11.51,11.51,0,0,1,1215.56,137Z"/><path d="M1250.7,118.61a2.84,2.84,0,0,1-1.06-.2c-9.46-3.77-12.77-20.13-13.12-22a2.85,2.85,0,0,1,5.61-1.05c.74,3.89,4.08,15.52,9.63,17.73a2.85,2.85,0,0,1-1.06,5.5Z"/><path d="M1285.42,112.85a2.85,2.85,0,0,1-1-5.54c6.09-2.2,10.77-10.41,11.13-19.53a2.86,2.86,0,0,1,5.71.22c-.46,11.53-6.59,21.68-14.91,24.68A3,3,0,0,1,1285.42,112.85Z"/><path d="M1356.59,127c-.64,0-1,0-1.15,0a2.85,2.85,0,0,1,.32-5.7c.15,0,16.78.76,21.59-11.2a2.86,2.86,0,1,1,5.3,2.13C1377.1,126,1361.09,127,1356.59,127Z"/><path d="M1324.52,116.46a2.86,2.86,0,0,1-.92-5.56c.13,0,13-4.54,18-17.15a2.86,2.86,0,0,1,5.3,2.13c-6.07,15.11-20.88,20.22-21.51,20.43A2.83,2.83,0,0,1,1324.52,116.46Z"/><path d="M1249.73,196.67a2.88,2.88,0,0,1-1.73-.58,45.62,45.62,0,0,1-18-36c0-25.5,23.39-46.24,52.14-46.24s52.13,20.74,52.13,46.24a46.37,46.37,0,0,1-9,26.81,2.86,2.86,0,0,1-4.57-3.43,40.94,40.94,0,0,0,7.89-23.38c0-22.35-20.82-40.53-46.42-40.53s-46.43,18.18-46.43,40.53a39.87,39.87,0,0,0,15.77,31.45,2.86,2.86,0,0,1-1.73,5.13Z"/><path d="M1747.7,433.26a9.77,9.77,0,0,1-7.33-2.87h0c-6.95-7.19-.61-51.39,2.67-64.12,10.49-40.58,35.68-77.31,74.88-109.19,85.94-69.87,194.94-72.78,210.53-65.22,2.81,1.36,4.84,4.46,6,9.22,4.38,17.43-2.83,59.88-27.75,94.24a330.66,330.66,0,0,1-57.21,61.4c-62.83,51.66-127.77,61.58-162.66,66.91-9.87,1.5-17.66,2.7-22.14,4.31-.89.32-2,.8-3.19,1.33C1757.6,431,1752.4,433.26,1747.7,433.26Zm-3.22-6.84c2.76,2.85,10.27-.42,14.76-2.38,1.34-.59,2.55-1.11,3.54-1.47,5-1.8,13-3,23.22-4.59,34.34-5.24,98.27-15,159.89-65.67A324.42,324.42,0,0,0,2002.1,292c23.91-33,31-73.15,26.85-89.5-.73-2.87-1.84-4.92-3-5.48-10.73-5.19-116.3-7.14-204.44,64.52-38.24,31.09-62.78,66.82-73,106.19C1743.59,387,1741.11,422.65,1744.48,426.42Z"/><path d="M1909.69,383.77a2.81,2.81,0,0,1-1.9-.73,2.85,2.85,0,0,1-.23-4c22.23-24.89,22.56-56.52.89-84.59-20.37-26.4-59.36-45.59-91.48-29.15a2.86,2.86,0,0,1-2.6-5.09c34.86-17.83,76.82,2.53,98.6,30.75,18.13,23.49,27.35,60-1.15,91.88A2.81,2.81,0,0,1,1909.69,383.77Z"/><path d="M1800.48,420.66a64.76,64.76,0,0,1-38.27-12.79c-12.28-9.32-19.42-22.45-20.09-37a2.85,2.85,0,0,1,2.73-3,2.88,2.88,0,0,1,3,2.71c.75,16.4,10.11,26.83,17.83,32.68,12.84,9.75,30.68,13.87,45.44,10.48a2.85,2.85,0,1,1,1.28,5.56A53.12,53.12,0,0,1,1800.48,420.66Z"/><path class="cls-6" d="M1832.35,390.65c-25.58,4.24-48.69-12.47-51.62-37.32s15.43-48.43,41-52.67,48.69,12.47,51.62,37.32S1857.93,386.41,1832.35,390.65Z"/><path d="M1735.37,355.1c-11.21,0-23.21-4.75-29.9-10.55a2.85,2.85,0,1,1,3.74-4.31c8.94,7.74,29.67,13.25,40,5a2.86,2.86,0,0,1,3.57,4.46C1748,353.54,1741.79,355.1,1735.37,355.1Z"/><path d="M1785.49,288.92c-17.88,0-37.45-17.95-38.35-18.78A2.86,2.86,0,0,1,1751,266c.22.21,22.06,20.2,38.17,16.9a2.85,2.85,0,0,1,1.15,5.59A23.89,23.89,0,0,1,1785.49,288.92Z"/><path d="M1843.45,244.2a2.85,2.85,0,0,1-2.17-4.71c8.75-10.21,8.21-28.14-1.27-42.63a2.85,2.85,0,1,1,4.77-3.13c11,16.84,11.37,37.18.83,49.48A2.85,2.85,0,0,1,1843.45,244.2Z"/><path d="M1977.13,195.94a2.85,2.85,0,0,1-1.64-5.19c.24-.17,23.88-17,27-42.34a2.85,2.85,0,1,1,5.66.71c-3.47,27.88-28.37,45.57-29.43,46.3A2.84,2.84,0,0,1,1977.13,195.94Z"/><path d="M1914.62,209.26a2.81,2.81,0,0,1-1.9-.73,2.86,2.86,0,0,1-.23-4c.19-.21,18.27-20.84,13.42-45.66a2.85,2.85,0,1,1,5.6-1.1c5.41,27.66-13.94,49.64-14.76,50.57A2.9,2.9,0,0,1,1914.62,209.26Z"/><path d="M1979.84,733.32a114.06,114.06,0,0,1-27.46-3.27c-34.61-8.61-51.86-22.2-67.08-34.19-3.06-2.41-6-4.74-9-6.92a30.17,30.17,0,0,0-6.8-3.65c-3.21-1.34-6.52-2.72-7.43-7.71h0c-1.24-6.81,5.93-9.89,11.16-12.14,1.16-.49,2.27-1,3.22-1.46,13.78-7,46.06-23.52,91.51-9.53,43,13.24,65.48,50.54,65.11,60.49-.09,2.19-1.54,4.36-4.34,6.46C2020.52,727.57,2001.53,733.32,1979.84,733.32ZM1867.7,676.55c.33,1.81.86,2.15,4,3.47a35.35,35.35,0,0,1,8,4.31c3,2.22,6,4.59,9.15,7,14.77,11.64,31.51,24.83,64.92,33.14,29,7.21,58.29.51,69.86-6.55,3.39-2.06,3.76-3.29,3.77-3.3.25-6.74-19.47-41.94-61.1-54.76-38.08-11.74-65.46-2-87.22,9.16-1.06.54-2.28,1.07-3.57,1.62-4.49,1.93-8.19,3.71-7.79,5.87Z"/><path d="M1923.83,719.93h-.2a2.86,2.86,0,0,1,0-5.71h.18a44.42,44.42,0,0,0,8.09-.73c7.91-1.44,16.21-6.46,22.22-13.41,13.13-15.18,9.31-35.67,3.58-42.41a2.86,2.86,0,0,1,4.35-3.7c7,8.27,11.84,32-3.61,49.84-6.83,7.91-16.37,13.62-25.51,15.3A51.3,51.3,0,0,1,1923.83,719.93Z"/><path d="M1884.83,693.73a2.83,2.83,0,0,1-2.73-2c-2.5-8.16-2.5-17.42,0-27.54a2.85,2.85,0,1,1,5.54,1.37c-2.26,9.1-2.3,17.34-.11,24.49a2.85,2.85,0,0,1-1.89,3.57A3,3,0,0,1,1884.83,693.73Z"/><path d="M1898.36,659.93a2.85,2.85,0,0,1-2.25-4.61c.08-.1,8.37-10.76,11.94-18.88a2.85,2.85,0,1,1,5.22,2.3c-3.85,8.78-12.3,19.64-12.66,20.1A2.84,2.84,0,0,1,1898.36,659.93Z"/><path d="M1944.48,655.05a2.86,2.86,0,0,1-.9-5.57c.13,0,13.64-4.65,21.73-17a2.86,2.86,0,0,1,4.78,3.13c-9.21,14.1-24.09,19.13-24.72,19.34A3.11,3.11,0,0,1,1944.48,655.05Z"/><path d="M1989.48,667.52a27.42,27.42,0,0,1-5.7-.52,2.86,2.86,0,1,1,1.22-5.58c5.8,1.27,20.4-.6,29.24-6.31a2.86,2.86,0,0,1,3.1,4.8C2009.71,664.83,1998,667.52,1989.48,667.52Z"/><path d="M2033.36,694.52a79.89,79.89,0,0,1-16.92-1.74,2.85,2.85,0,1,1,1.23-5.57,76.74,76.74,0,0,0,29.29.39,2.86,2.86,0,0,1,1.07,5.61A79.35,79.35,0,0,1,2033.36,694.52Z"/><path class="cls-6" d="M1905.35,685a17.87,17.87,0,1,1,23.19,9A17.61,17.61,0,0,1,1905.35,685Z"/><path d="M2029.58,1318.23h-1.75c-113.31-.71-162.67-63.6-186.39-93.82-5.06-6.44-9.06-11.54-12-13.89l-.64-.51c-3.81-3-12.73-10-9.84-20.86h0c3.4-12.85,48.58-26.21,64.14-29.87,21.34-5,55.91-8.21,99.39,5.18,90.84,28,138,106.84,138.31,120,.07,3.38-1.82,7.13-5.47,10.83C2104.31,1306.42,2076.05,1318.23,2029.58,1318.23Zm-107.87-157.59a163.18,163.18,0,0,0-37.33,4.19c-26.73,6.29-58,18.65-59.92,25.77h0c-1.78,6.69,3.12,11.21,7.84,14.91l.68.53c3.48,2.77,7.45,7.83,13,14.84,23.17,29.52,71.38,90.93,181.93,91.63,45.86.31,73.07-10.79,83.39-21.25,3.5-3.55,3.84-5.87,3.82-6.71-.24-12-47.69-88-134.28-114.64A200.35,200.35,0,0,0,1921.71,1160.64Zm-100,29.23h0Z"/><path d="M1936.47,1297.2a66.51,66.51,0,0,1-10.56-.85,2.85,2.85,0,1,1,.9-5.63c26,4.17,50.94-8.86,65-34,15.88-28.5,13-62.12-7.38-85.67a2.86,2.86,0,0,1,4.32-3.74c22,25.39,25.11,61.58,8,92.19C1983.44,1283.39,1961,1297.2,1936.47,1297.2Z"/><path d="M1855.57,1240.34a2.86,2.86,0,0,1-2.28-1.13c-12.38-16.42-14.32-53.39,10.84-74a2.85,2.85,0,0,1,3.61,4.42c-22.56,18.45-20.93,51.47-9.89,66.1a2.85,2.85,0,0,1-2.28,4.57Z"/><path class="cls-6" d="M1883,1217.55a40,40,0,1,1,48.4,29A39.91,39.91,0,0,1,1883,1217.55Z"/><path d="M1886.3,1164.09a2.9,2.9,0,0,1-.86-.13c-13.67-4.33-18.1-24.76-15.15-36.91a2.86,2.86,0,1,1,5.55,1.35c-2.41,9.92,1.28,26.93,11.33,30.12a2.85,2.85,0,0,1-.87,5.57Z"/><path d="M1949.45,1161.57a2.87,2.87,0,0,1-2.12-.94c-10.76-11.88-3.37-39.06-3-40.21a2.85,2.85,0,1,1,5.5,1.52c-1.94,7-5.4,26.93,1.78,34.86a2.85,2.85,0,0,1-.19,4A2.89,2.89,0,0,1,1949.45,1161.57Z"/><path d="M2007.29,1178.3a24.7,24.7,0,0,1-2.73-.15,2.85,2.85,0,1,1,.62-5.67c11.31,1.22,24.91-7.9,32.38-21.72a2.86,2.86,0,0,1,5,2.71C2034.49,1168.46,2020.31,1178.3,2007.29,1178.3Z"/><path d="M2119.36,1253.29a68.34,68.34,0,0,1-23.23-4.09,2.86,2.86,0,1,1,2.11-5.31c.23.1,23.25,9,43-1.38a2.85,2.85,0,1,1,2.65,5A52.58,52.58,0,0,1,2119.36,1253.29Z"/><path d="M2065.13,1212.05a44,44,0,0,1-5.56-.3,2.85,2.85,0,0,1,.75-5.66c.24,0,23.22,2.83,40.49-12.72a2.86,2.86,0,0,1,3.82,4.25C2090.62,1210.23,2073.72,1212.05,2065.13,1212.05Z"/></g></svg>