<svg id="Layer_1" data-name="Layer 1" xmlns="http://www.w3.org/2000/svg" viewBox="0 0 2742 1523"><defs><style>.cls-1{fill:#e4ebd6;}.cls-1,.cls-10,.cls-11,.cls-12,.cls-13,.cls-14,.cls-15,.cls-16,.cls-17,.cls-18,.cls-19,.cls-2,.cls-3,.cls-4,.cls-5,.cls-7,.cls-9{fill-rule:evenodd;}.cls-2{fill:#fff;}.cls-3{fill:#ffddc0;}.cls-4{fill:#6cb38e;}.cls-5{fill:#4c8f76;}.cls-6{fill:#528d77;}.cls-7{fill:#a5d8aa;}.cls-8{fill:#a2d5a8;}.cls-9{fill:#4b896c;}.cls-10{fill:#ffd17d;}.cls-11{fill:#d3baa0;}.cls-12{fill:#9c795c;}.cls-13{fill:#b09c87;}.cls-14{fill:#59aa6c;}.cls-15{fill:#a7dcf8;}.cls-16{fill:#62b171;}.cls-17{fill:#62b172;}.cls-18{fill:#feda9b;}.cls-19{fill:#f2b372;}</style></defs><g id="Ñëîé_4" data-name="Ñëîé 4"><path class="cls-1" d="M0,0H2742V1523H0Z"/></g><g id="Ñëîé_3" data-name="Ñëîé 3"><path class="cls-2" d="M1065.87,709.44c-3.19-8.75-8.52-39.58-8.52-39.58s-5.27,33.3-7.13,40.3c-1.67,6.29-24.92,9.88-24.92,9.88s22.65,3.45,25,10,8.4,43.81,8.4,43.81,6-36.08,7.68-43.69c1.56-7.14,24.62-10.52,24.62-10.52S1068.36,716.24,1065.87,709.44Z"/><path class="cls-2" d="M969.39,628.92c-2.36-6.44-6.28-29.17-6.28-29.17s-3.89,24.54-5.26,29.7c-1.23,4.64-18.35,7.28-18.35,7.28s16.68,2.54,18.43,7.4,6.2,32.27,6.2,32.27,4.43-26.57,5.65-32.18c1.15-5.27,18.14-7.75,18.14-7.75S971.22,633.93,969.39,628.92Z"/><path class="cls-2" d="M2327.33,599.75c-3.2-8.75-8.53-39.58-8.53-39.58s-5.27,33.3-7.12,40.3c-1.67,6.29-24.92,9.88-24.92,9.88s22.64,3.45,25,10,8.41,43.8,8.41,43.8,6-36.07,7.67-43.68c1.56-7.15,24.63-10.52,24.63-10.52S2329.82,606.55,2327.33,599.75Z"/><path class="cls-2" d="M1610.78,505.51c-2.36-6.44-6.28-29.16-6.28-29.16s-3.89,24.54-5.25,29.7c-1.24,4.63-18.36,7.28-18.36,7.28s16.68,2.54,18.44,7.39,6.19,32.28,6.19,32.28,4.43-26.58,5.66-32.18c1.15-5.27,18.13-7.76,18.13-7.76S1612.61,510.52,1610.78,505.51Z"/><path class="cls-2" d="M419.4,630.44c-2.35-6.44-6.28-29.16-6.28-29.16s-3.88,24.54-5.25,29.69c-1.23,4.64-18.36,7.28-18.36,7.28s16.69,2.54,18.44,7.4,6.19,32.27,6.19,32.27,4.44-26.57,5.66-32.18c1.15-5.26,18.14-7.75,18.14-7.75S421.24,635.45,419.4,630.44Z"/><path class="cls-2" d="M1743.83,736.86c-3.2-8.74-8.53-39.58-8.53-39.58s-5.27,33.3-7.12,40.3c-1.67,6.3-24.92,9.89-24.92,9.89s22.64,3.44,25,10,8.41,43.81,8.41,43.81,6-36.08,7.68-43.68c1.55-7.15,24.62-10.52,24.62-10.52S1746.32,743.66,1743.83,736.86Z"/><path class="cls-3" d="M721,441.43s.71,11.51,1.24,19.9c1.19,18.86,14.24,51.56,22.64,78.57,11.47,36.88,19,66.49,19,66.49a211,211,0,0,1,11.11,28.22c4,13.33,5.42,26.7,9.17,41,3.26,12.44,7,21.06,6.65,27.94-.55,9.39-9.06,9.53-15.25,7.66-9.22-2.79-17.15-11.36-17.15-11.36s-9.19,39.25-21,55.15c-5.62,7.53-15.06,5.66-18.44-.4-5.52-9.91.36-45.52,1.19-76.92a292,292,0,0,0-3.78-53.32s-7.46,71.84-17.11,96.2c-8.81,22.25-29,2.84-29,2.84s-10.2,5.39-18,5.07S639,722.19,639,722.19s-1.55,14.43-7.63,17.95c-4.72,2.73-13.58-4.17-17.59-9.93C598.37,708,586.54,639.9,587.4,584.87c.82-52.24,16.1-99.41,16.1-142,0,0,29.72,5.38,59.08,4.91S721,441.43,721,441.43Z"/><path class="cls-4" d="M423.37,843.34l25.08-5.24-5-15.06,487.69-1.37-5.1,13.9,27.64,7.36.08,335.58.84,80.18,6.62,102.72s-34.79,3.51-83.42,7.81c-49.62,4.39-113.77,9.58-181.59,9.56-68.41,0-137.74-4.59-189.3-9.06-32.76-2.84-58.67-2-72.28-3.53a16.84,16.84,0,0,1-10.52-5s4.69-49.4,4.51-178.87c-.07-49.2-4.22-102.28-5.15-158.7C421.94,931.55,423.37,843.34,423.37,843.34Z"/><path class="cls-2" d="M572.2,779.65C582.58,744.72,601.51,703,601.51,703L610,724.51l-8.72,96.7-14-.17-1.53,21.67H560S561.83,814.58,572.2,779.65Z"/><path class="cls-2" d="M751,728l6.75-26.84s16.34,20.62,27.6,55.95,17.44,85.38,17.44,85.38l-26,.4L773,821.74H761.34s-1.49-34.54-4.07-58S751,728,751,728Z"/><path class="cls-2" d="M708.51,677.89l10.18,2.76-1,24.74L704.43,701Z"/><path class="cls-5" d="M470.22,1084.05s22.52.19,27.78-2.15c28.52-12.76,25.87-29.72,39.7-59.7.57-1.24,8.38-20.43,12-26.36,2.22-3.64-22.58,12-24.41,13.76-15.3,14.57-31.76,7.55-47,30.36-3.73,5.6-7.92,29-9.72,29.17,0,0-16.08-20.59-16.91-21.26-10.38-8.4-18.38-11.94-27.18-14.12l1.11,47.68,5,2.63C448.43,1093.47,470.22,1084.05,470.22,1084.05Z"/><path class="cls-5" d="M481.54,1164.71c33.15-3.31,56.87-29.39,61.62-55.07.49-2.65,7.39-30.7,4.27-32.7-2.21-1.42-15.18,8.92-17,9.94-16.81,9.21-42,22.15-49.68,40.45-3,7.13-6.53,22.22-6.53,22.22s-8.28-14.18-15.25-18.1a162.43,162.43,0,0,0-31.07-13.16l0,44C442.34,1167.13,461.62,1166.69,481.54,1164.71Z"/><path class="cls-5" d="M456.26,1004.21c5.19,5.27,24.59,2.09,29.8-.49,22.22-11,35.18-31.32,45.74-52,1-1.85,11.05-18.47,9.89-20.23s-21.67,4.71-23.23,5c-16.78,3.16-38.46,13.42-48.58,27.2-1.49,2-14.31,22.39-14.31,22.39s-7.59-16-10.58-19.91c-7.29-9.62-11-13.25-22.42-19.88,0,0-1.46,53.22,2.75,55.41C436.25,1007.43,456,1004,456.26,1004.21Z"/><path class="cls-5" d="M447.67,915.69s30.8,7.28,47.5-12,13.67-31.24,18.49-38.24c.29-.41,15.24-23.54,14.27-24.2-4.23-2.88-17.31,6-19.87,7.57-18.72,11.21-37.46,17-52.16,33.67-4.69,5.32-8.16,19.46-8.16,19.46a30.65,30.65,0,0,0-.76-4.14c-2.25-7-5.92-14.15-11.53-19.28a77.57,77.57,0,0,0-10.79-8.27L422.07,916C433.46,921.33,447.67,915.69,447.67,915.69Z"/><path class="cls-5" d="M479.35,1233.27s5.81-13,22-21.89,41.89-22.62,62.61-34.88c1.48-.87,18-13.62,21.07-12.46,7,2.66-5,31-6.07,33.53-2.57,6-4.2,11.5-7.72,17.15-14.27,22.91-32.26,39.42-59.65,45-15,3.08-29-4.71-29-4.71s-26.09,8.51-52.68,2.88c-5-1.07-1.55-61.13-1.55-61.13,13.36,2.29,20,4,27.34,9.37C471,1217.46,479.35,1233.27,479.35,1233.27Z"/><path class="cls-5" d="M475.12,1321.66s5.17-14.85,22.67-23.29,47.91-11.43,70.92-19.81c6.53-2.38,15.46-4.29,21.28-8.06,3.7-2.4,11.06-7.25,11.06-7.25a101,101,0,0,0-4.87,10.29,162.91,162.91,0,0,1-10.28,22.75c-13.37,25-38.29,46.53-67.68,52.81-10.68,2.28-22.75,1.74-32.42-3.76-3.09-1.76-10.65-7.67-10.65-7.67s-19.12,8.07-32.18,7a63.67,63.67,0,0,1-17.92-4.35L429,1283a72.13,72.13,0,0,1,28.38,15.74C464,1304.75,475.12,1321.66,475.12,1321.66Z"/><path class="cls-6" d="M473.1,1368.34H473a1.91,1.91,0,0,1-1.76-2c6.24-81.7,5-168.66-3.55-258.44-7.95-82.94-19.1-171.92-26.48-230.8-1.55-12.42-2.94-23.45-4.08-32.74a1.92,1.92,0,0,1,1.66-2.12,1.88,1.88,0,0,1,2.12,1.66c1.14,9.29,2.52,20.31,4.08,32.73,7.38,58.9,18.54,147.92,26.49,230.9,8.62,90,9.82,177.18,3.56,259.1A1.91,1.91,0,0,1,473.1,1368.34Z"/><path class="cls-7" d="M599.31,1156.77s-17.13-6.19-20.44-9.45c-18-17.69-11.08-29.81-13-56.43-.08-1.1-.49-17.85-1.54-23.37-.65-3.39,13.67,15.46,14.55,17.29,7.42,15.36,21.92,14.66,26.91,36.25,1.23,5.29-2.32,24.24-1,24.85,0,0,18.1-11.09,18.93-11.36,20.12-6.75,28-2,49.2,1.29,1.53.23,20.28.15,24.45,1.12,2.29.53-12.85,11.25-14.48,12.56-16.59,13.37-37.32,16.3-53.56,18.41S599.31,1156.77,599.31,1156.77Z"/><path class="cls-7" d="M563.28,1220c-24.19-11.84-34.69-38.28-30.92-59.09.4-2.15,3.22-25.36,6.16-26,2.08-.45,9,11,10.07,12.33,10.1,11.71,25.46,28.6,26,44.65.23,6.25-1.43,18.68-1.43,18.68s10.36-8.42,16.77-9.43c17.16-2.71,34.45-1.24,51.57,1.39,3.39.52,13.93-.58,16,1.84.16.2-11.81,12.29-29.76,21.94C604.76,1238.67,587.34,1231.74,563.28,1220Z"/><path class="cls-7" d="M636.57,1100.3c-5.44,2.54-19.24-5.33-22.45-8.76-13.69-14.58-17.68-33.64-19.77-52.26-.18-1.67-3.07-17.11-1.69-18.12s15.08,9.66,16.18,10.33c11.82,7.11,25.32,21,29,34.29.55,2,4.43,21,4.43,21s10.33-10,13.73-12.11c14-8.85,34-12.85,50.45-11.92,1.9.1,12.76-1.62,13.8.39.94,1.83-11,11.72-11.88,12.89-12.43,15.67-37.74,29.88-47.66,31.12S636.84,1100.18,636.57,1100.3Z"/><path class="cls-7" d="M664.77,1035.44s-25.45-3.14-32.59-22.45-1.39-27.53-3-34.19c-.1-.4-4.79-22.14-3.87-22.37,4-1,11.39,9.45,12.89,11.33,11,13.77,23.53,23.4,29.89,40.2,2,5.36.6,17.06.6,17.06a25.18,25.18,0,0,1,1.76-2.93c3.73-4.7,8.56-9.06,14.28-11.37,16.51-6.67,30.61-4.63,47.79-4.39,2,0,11.73-.68,12.93.81s-6.5,4.89-11.56,8.28-6.19,5.72-17.4,14.84-18.28,12.28-28.45,13.12S664.77,1035.44,664.77,1035.44Z"/><path class="cls-7" d="M718.93,925.84c-21.53-.12-32.16-22.21-33.59-31.67-.9-5.93-2.6-10.25-2.34-16.26.09-2-1.06-7.64.09-6,7.69,11.1,22.59,20.28,30,28.33S721,916.81,721,916.81s6.53-6.78,9.11-8.23c10.07-5.67,21.17-6.84,32.71-7.08,1.08,0,12.3-1.24,13.09-.1.53.78-7.83,6.94-8.82,8.38-5.57,8.2-16.66,17.84-26.44,18.92A49,49,0,0,1,718.93,925.84Z"/><path class="cls-7" d="M691.24,976.75c-17.55,1.4-31-25.32-34.39-38.38-.29-1.15-4-21.42-3.14-21.64,3.89-1,11.9,8.27,14.19,9.89,8.52,6,20.37,12.11,26.31,21.53,2.37,3.77,1.95,9.15,1.94,14.24s-1.65,10.89-.87,8.68c5.78-16.4,29.83-17.88,45.26-17.22.94,0,21.06-2.38,20,.06s-8.07,6.84-13.47,10.21-21.33,17.83-27.7,19.4C707.42,986.48,691.24,976.75,691.24,976.75Z"/><path class="cls-7" d="M549.54,1267.35s-.68-11.45-10.37-22.78-25.27-28.93-37.46-44c-.87-1.08-9.77-15.41-12.4-15.39-6.07,0-5.12,24.88-5,27.13.23,5.3-.11,9.91.93,15.18,4.25,21.4,13.14,39,32.3,50.94,10.49,6.54,23.37,4.58,23.37,4.58s17.34,13.8,39.12,17c15.08,2.22,33.17-7.07,45.64-16.3,6.33-4.67,30.73-11.9,35.71-14.5s-20.62-8.25-23-8.42c-20.63-1.48-48.17-11.54-63.06-7.28A74,74,0,0,0,549.54,1267.35Z"/><path class="cls-7" d="M527.36,1335.57s.35-12.72-10.5-24-33-22.14-48.08-35c-4.27-3.64-10.5-7.61-13.83-12.1-2.12-2.86-6.3-8.61-6.3-8.61a83.89,83.89,0,0,1,.74,9.18,132,132,0,0,0,1.26,20.14c3,22.69,15.67,46,36.15,59.08,7.45,4.73,16.76,7.72,25.66,6.27,2.86-.46,10.28-2.82,10.28-2.82s12.19,11.5,22.39,14.39c20,5.66,48.48-3.18,63.13-15,6.4-5.18,9.81-8.15,17.21-12.12,1.31-.7,12.7-6.63,12.06-8.35-.27-.75-4.58.05-5.31.05a143.88,143.88,0,0,1-20.48-1.31c-22.73-2.87-41.72-11.14-64.33-2.13C540.69,1325.88,527.36,1335.57,527.36,1335.57Z"/><path class="cls-7" d="M725,885.23c-9.41-13.06-5-28.27-.24-41.82.72-2.06,16.55-3.35,17-2.07,3.11,9.24,5.55,14.4,3.64,25.75a52.26,52.26,0,0,1-3.46,11C740.19,881.79,733.36,896.86,725,885.23Z"/><path class="cls-8" d="M516.08,1371.84a2,2,0,0,1-.53-.07,1.9,1.9,0,0,1-1.29-2.36C533,1305.55,559,1239.81,591.34,1174c31.74-64.49,67.75-132.86,89.26-173.71l8.38-15.9c20.34-38.73,37.69-83.19,40.35-103.41a1.88,1.88,0,0,1,2.13-1.64,1.91,1.91,0,0,1,1.64,2.14c-2.7,20.6-20.23,65.6-40.76,104.68l-8.37,15.9c-21.51,40.83-57.5,109.17-89.21,173.62-32.27,65.6-58.13,131.13-76.85,194.78A1.89,1.89,0,0,1,516.08,1371.84Z"/><path class="cls-9" d="M684.71,1167.57a349.46,349.46,0,0,0-3.65-37.1c-2.9-17.69-6.06-45.86,7.6-80.41,13.86-35.07,48.63-77.18,76-102.23,13.08-12,23.36-16.22,31-21.13,9.47-6.11-2.33,21.09-7.76,56.68-6.66,43.79-5.7,94.36-19.12,129-10.39,26.8-43.45,50-62.69,72-17.12,19.6-20.16,39.94-20.16,39.94s-4.3-9.56-10-14.26c-12.29-10.09-32.9-20.91-43.93-29.56-16.56-13-25.2-45-31.28-80.09-3-17.12-11.47-31.1-8.21-31,9.93.24,27.5,6.14,56.2,33.84C676,1129.52,684.71,1167.57,684.71,1167.57Z"/><path class="cls-10" d="M578.29,162.33s42.92-9.93,86-9.93,86.17,9.93,86.17,9.93,1.21,55.16,5.28,118.51,11,134.86,11,134.86a43.21,43.21,0,0,1-20.11,17.73c-21.06,9.1-56.35,13.94-86.15,14.71-27,.69-57.66-2.58-74.88-10.14-14.49-6.37-17.84-17.19-17.84-17.19s5.53-40.1,8.17-104.72S578.29,162.33,578.29,162.33Z"/><path d="M690.21,1259.9a2.86,2.86,0,0,1-2.84-2.51c-2.08-17.19-1.63-30.9.65-42.2,1.87-23.24-2.12-43.78-6-63.64-6.42-33-12.47-64.16,6.1-105.81,27.48-61.61,98.36-126.84,112.21-122.4,1,.32,4.22,1.79,3.14,7-1.52,7.31-3.19,13.14-5,19.31a290.08,290.08,0,0,0-9.4,43.08c-2.48,16.73-3.37,31.39-4.23,45.57-2,32.58-3.67,60.73-24.92,94.55-9,14.36-20.29,23.92-31.19,33.16-15.75,13.37-30,25.47-35.1,49.8,0,.1,0,.2,0,.31a3.1,3.1,0,0,1-.21.86c-2.06,10.61-2.4,23.5-.42,39.74a2.86,2.86,0,0,1-2.5,3.18ZM798,928.75c-10.67.83-76.38,56-104.61,119.32-17.84,40-12,70.31-5.72,102.39,2.88,14.81,5.83,30,6.45,46.47,7.41-15.26,19-25.13,31-35.29,10.57-9,21.5-18.23,30-31.85,20.46-32.58,22.05-58.74,24.05-91.86.87-14.3,1.77-29.08,4.28-46.05a298.49,298.49,0,0,1,9.56-43.82c1.73-6.07,3.37-11.8,4.85-18.91C797.93,929,798,928.87,798,928.75Z"/><path d="M693.28,1203.86H693a2.86,2.86,0,0,1-2.57-3.12c8.37-86.16,51.79-151.24,52.22-151.89a2.86,2.86,0,1,1,4.74,3.2c-.43.63-43,64.58-51.27,149.24A2.85,2.85,0,0,1,693.28,1203.86Z"/><path d="M688.62,1237a2.85,2.85,0,0,1-2.85-2.65c-1.53-21-22-32.58-40-42.78-9.71-5.48-18.09-10.22-22.31-15.89-13.54-18.17-17.49-38.85-21-57.09-1.16-6-2.25-11.77-3.62-17a203,203,0,0,0-7.36-22.28c-2.8-7.37-4-10.42-1.85-12.6.78-.82,2.25-1.6,4.8-.73,37.66,12.88,100.47,50.42,98,157.13a2.87,2.87,0,0,1-2.46,2.77,37.9,37.9,0,0,1,1.47,8.08,2.85,2.85,0,0,1-2.64,3Zm-93.68-164.81c.49,1.45,1.19,3.27,1.87,5.06a212.79,212.79,0,0,1,7.55,22.88c1.42,5.44,2.52,11.24,3.7,17.39,3.37,17.64,7.19,37.63,20,54.75,3.5,4.7,11.78,9.38,20.54,14.33,13.88,7.84,30.33,17.14,38.27,31.63C687.23,1120.94,630.74,1085.11,594.94,1072.19Z"/><path d="M688,1225.85a2.86,2.86,0,0,1-2.82-2.42c-4.55-29.35-26.93-64.49-37.61-73.84a2.86,2.86,0,0,1,3.77-4.29c12.67,11.11,34.89,47.58,39.49,77.25a2.85,2.85,0,0,1-2.39,3.26A2.18,2.18,0,0,1,688,1225.85Z"/><path d="M560.88,843.75h-.07a2.86,2.86,0,0,1-2.78-2.92c.68-29.22,21.33-100.77,40.17-139.22a2.86,2.86,0,1,1,5.13,2.52C584.75,742,564.4,812.36,563.74,841A2.86,2.86,0,0,1,560.88,843.75Z"/><path d="M585.36,845.08h-.19a2.85,2.85,0,0,1-2.67-3c2.54-40,10.54-86.35,21.4-124a2.86,2.86,0,0,1,5.49,1.58c-10.75,37.32-18.67,83.23-21.19,122.83A2.85,2.85,0,0,1,585.36,845.08Z"/><path d="M601.8,822.72a2.85,2.85,0,0,1-2.85-2.67c-.62-9.49,2.17-40.65,4.41-65.69,1.27-14.26,2.37-26.57,2.51-31.15a2.86,2.86,0,1,1,5.71.17c-.14,4.75-1.25,17.14-2.53,31.48-2.23,24.85-5,55.77-4.4,64.82a2.85,2.85,0,0,1-2.67,3Z"/><path d="M802.75,844.49a2.86,2.86,0,0,1-2.85-2.79c-.53-22.8-11.7-72.82-27.48-111-3.77-9.09-9.95-22-16-30.93a2.86,2.86,0,0,1,4.73-3.2c6.28,9.29,12.66,22.59,16.53,32,16.55,40,27.38,89.78,27.92,113a2.86,2.86,0,0,1-2.79,2.92Z"/><path d="M776.06,842.76a2.86,2.86,0,0,1-2.82-2.44c-1-6.83-2-13.91-2.92-21.18-4-30-8.55-64.11-20-95.88a2.85,2.85,0,1,1,5.37-1.94c11.67,32.35,16.25,66.73,20.3,97.07,1,7.24,1.9,14.3,2.91,21.1a2.86,2.86,0,0,1-2.41,3.24Z"/><path d="M761.29,820.32h-.19a2.86,2.86,0,0,1-2.67-3c1-14.72-5.16-67.27-9-87.16a2.86,2.86,0,1,1,5.61-1.09c4,20.65,10.08,73.24,9.08,88.62A2.85,2.85,0,0,1,761.29,820.32Z"/><path d="M772.08,824.09h0L588.21,824a2.86,2.86,0,0,1,0-5.71l183.87.1a2.86,2.86,0,0,1,0,5.71Z"/><path d="M953.21,845.37H423a2.86,2.86,0,0,1-.46-5.68l22-3.6L439.4,824a2.85,2.85,0,0,1,2.59-4l117.74-1.7a2.86,2.86,0,1,1,0,5.71H554.5l-108.18,1.63,4.91,11.58a2.84,2.84,0,0,1-.1,2.45H930.74L924.37,838a2.85,2.85,0,0,1-1.88-1.57,2.88,2.88,0,0,1,0-2.45l4.75-9.74L803.64,824a2.86,2.86,0,1,1,0-5.71H813l118.9.27a2.86,2.86,0,0,1,2.55,4.11l-5.21,10.7,24.73,6.38a2.86,2.86,0,0,1-.71,5.63Z"/><path d="M716.14,1381.54c-73.27,0-156-3.36-198-8-17.59-1.94-35.6-2.65-51.49-3.28-27.64-1.09-41.11-1.82-45.15-6.23a5,5,0,0,1-1.36-3.62c.06-1.13.23-3.36.48-6.64,5.57-72.26,6.62-148.4,3.13-226.31-5.16-115.15-3.63-283.05-3.61-284.73a2.81,2.81,0,0,1,2.88-2.83,2.86,2.86,0,0,1,2.83,2.88c0,1.68-1.55,169.43,3.6,284.43,3.51,78.13,2.45,154.51-3.14,227-.22,2.89-.38,4.94-.45,6.12,3,2.72,23.18,3.52,41,4.22,16,.64,34.1,1.35,51.88,3.32,71.25,7.84,259.58,12,319.43,2.36,22.82-3.7,49.58-4.93,73.19-6,20.09-.93,42.78-2,46.75-4.61l-.14-1.2c-5.72-49.16-8.4-121.06-7.55-202.47,1.17-113.77.23-311.18.22-313.16a2.87,2.87,0,0,1,2.85-2.87h0a2.85,2.85,0,0,1,2.85,2.84c0,2,1,199.43-.22,313.25-.84,81.18,1.82,152.82,7.51,201.75l.22,1.92a4.44,4.44,0,0,1-1.1,3.41c-3.84,4.47-19.31,5.37-51.14,6.84-23.45,1.09-50,2.31-72.53,5.95C814.26,1379.89,767.52,1381.54,716.14,1381.54Zm242-21.27h0Z"/><path d="M644,1293.12c-48.12,0-95.28-1.29-132.79-4.6a2.86,2.86,0,0,1,.5-5.69c130.87,11.56,357.53-1.12,371.86-6.85a2.85,2.85,0,0,1,2.12,5.3C873.65,1286.09,756.22,1293.12,644,1293.12Z"/><path d="M728.67,762.31a16.51,16.51,0,0,1-6.65-1.5c-10.54-4.62-9-22-6.89-46,1-11,2.06-23.4,2.22-36.56.38-30.18-4.42-69.69-4.47-70.09a2.85,2.85,0,0,1,2.48-3.18,2.89,2.89,0,0,1,3.19,2.49c0,.4,4.89,40.28,4.51,70.85-.16,13.38-1.27,25.92-2.24,37-1.84,20.86-3.29,37.35,3.49,40.32,2.91,1.28,5.46,1.34,7.8.22,9.11-4.41,14.6-25.41,19.45-43.93l1.49-5.66c3.58-13.48,5.8-28.86,7-48.39,1.61-26.82.24-54.48-3.48-70.47-2.42-10.42-8.73-29.84-15.41-50.39-9.49-29.19-19.3-59.38-21.13-72.9-.66-4.95-1.22-11.86-1.64-20.53a2.85,2.85,0,0,1,5.7-.28c.42,8.51,1,15.26,1.6,20,1.76,13,11.93,44.3,20.9,71.9,6.72,20.68,13.06,40.21,15.54,50.87,3.84,16.47,5.26,44.78,3.62,72.1-1.19,19.93-3.47,35.66-7.15,49.52l-1.49,5.64c-5.41,20.68-11,42.06-22.48,47.62A13.45,13.45,0,0,1,728.67,762.31Z"/><path d="M683.79,733.22a17.48,17.48,0,0,1-9.75-2.83c-6.1-4-9.92-12.14-11-23.54-.77-7.87-.6-21.09-.42-35.1.25-18.93.53-40.38-1.37-54.1a2.86,2.86,0,1,1,5.66-.78c2,14.15,1.68,35.83,1.43,55-.18,13.84-.36,26.91.38,34.46.94,9.63,3.87,16.31,8.48,19.33,3.38,2.21,7.77,2.46,13.05.75,8.5-2.77,12.18-30.07,15.43-54.16,3.36-24.9,8-57,8-57l5.65.81s-4.61,32.08-8,57c-4,29.48-7.41,54.94-19.33,58.82A26.59,26.59,0,0,1,683.79,733.22Z"/><path d="M654,731.23a23.05,23.05,0,0,1-10.79-2.65C634,723.77,627,704.2,621.8,668.76c-1.34-9.15-2.58-19-3.78-28.58-1.55-12.28-3-23.87-4.64-34a2.86,2.86,0,0,1,5.64-.91c1.65,10.2,3.11,21.84,4.66,34.17,1.2,9.52,2.44,19.37,3.77,28.46,6.33,43.32,14.24,53.42,18.39,55.59,11.07,5.78,22.51-3,22.63-3A2.85,2.85,0,0,1,672,725C671.54,725.32,663.79,731.23,654,731.23Z"/><path d="M627.92,743.36a13.64,13.64,0,0,1-2.42-.23c-15.15-2.83-25.16-34.69-30.88-60.91-5.48-25.09-9.23-63.59-9.78-100.5-.37-24.13,4.51-52.49,8.8-77.51,2.7-15.75,5.26-30.61,6.33-43,.4-4.59.47-8.43.57-13.75l.08-4.24a3,3,0,0,1,2.92-2.79,2.86,2.86,0,0,1,2.79,2.92l-.08,4.22c-.1,5.43-.18,9.35-.59,14.13-1.09,12.68-3.67,27.66-6.39,43.53C595,530,590.19,558,590.55,581.63c.55,36.56,4.24,74.63,9.65,99.37,7.24,33.18,17.34,54.83,26.35,56.51a5,5,0,0,0,4.56-1c4-3.52,4.28-13.63,4.06-17.24a2.86,2.86,0,0,1,5.7-.35c.1,1.61.79,15.88-6,21.86A10.27,10.27,0,0,1,627.92,743.36Z"/><path d="M713,588.34a2.86,2.86,0,0,1-2.85-2.76c-.12-3.5-.91-13.58-3-18.07a2.85,2.85,0,0,1,5.15-2.45c3.09,6.48,3.59,19.76,3.61,20.32a2.86,2.86,0,0,1-2.75,3Z"/><path d="M781,714.93c-6.45,0-15.07-3.78-24.1-14.67a2.85,2.85,0,1,1,4.39-3.64c9.66,11.64,18.71,14.3,23.4,11.78,2.9-1.56,3.88-5.2,2.57-9.51-5-16.4-7.28-27-9.48-37.26a316.27,316.27,0,0,0-9-34.39c-4.92-15.23-11.13-36.71-13.62-46.45a2.85,2.85,0,1,1,5.53-1.42c2.47,9.67,8.64,31,13.53,46.11a318.51,318.51,0,0,1,9.1,34.95c2.18,10.14,4.43,20.62,9.36,36.8,2.13,7,0,13.32-5.32,16.2A13.42,13.42,0,0,1,781,714.93Z"/><path d="M717.86,704.87a2.88,2.88,0,0,1-.9-.15,29.58,29.58,0,0,1-4.26-1.89c-1.92-1-3.44-1.75-5.41-1.75a2.86,2.86,0,0,1,0-5.72,16.76,16.76,0,0,1,8,2.39,24.48,24.48,0,0,0,3.47,1.55,2.86,2.86,0,0,1-.91,5.57Z"/><path d="M716.78,682.91a2.71,2.71,0,0,1-.69-.08c-.63-.16-1.23-.29-1.81-.42a26,26,0,0,1-6.1-2,2.86,2.86,0,0,1,2.56-5.11,20.24,20.24,0,0,0,4.81,1.5c.62.14,1.26.28,1.92.45a2.85,2.85,0,0,1-.69,5.62Z"/><path d="M718.14,709.48a2.67,2.67,0,0,1-.56-.06,85.46,85.46,0,0,0-11.65-1.57,2.86,2.86,0,0,1,0-5.71c4.24,0,12.41,1.61,12.76,1.68a2.86,2.86,0,0,1-.55,5.66Z"/><path d="M659.85,450.54c-33.92,0-66.63-5-82.64-15.1-7.94-5-11.67-11.07-11.08-18,8-94.31,9.36-253.64,9.37-255.24a2.86,2.86,0,1,1,5.71.05c0,1.6-1.38,161.15-9.39,255.67-.39,4.62,2.45,8.88,8.44,12.68,31.53,19.95,135.94,18.47,171.88-2.43,8-4.67,12-9.86,11.71-15.41-.92-19.47-2.83-40.73-5-65.34C754.61,300.68,749.39,242.5,748,163a2.86,2.86,0,0,1,2.81-2.9,3,3,0,0,1,2.9,2.8c1.42,79.28,6.63,137.35,10.82,184,2.22,24.68,4.13,46,5,65.59.37,7.85-4.52,14.79-14.54,20.61C735.2,444.65,696.8,450.54,659.85,450.54Z"/><path class="cls-3" d="M2088.51,444.51s2.2,34.42,12.36,60.26c7.81,19.86,18.78,43.18,28.81,60.43,10.71,18.43,19.51,41.76,27.36,57.33,14,27.71,24,44.94,29.76,66.67,3.48,13.11,15.88,29.34,13.1,37.27-5.65,16.13-39.62-10.2-39.62-10.2l-15.82-31.76-2,21,6.07,30.67s-19.75,18.06-31.52,16.9-15.57-21.56-15.57-21.56-16.59,12.41-27.72,9.5-16.81-21.17-16.81-21.17-3.43,22.24-28.41,16.57c-9.86-2.24-11.65-22.23-11.65-22.23s-26.13,20.69-35.66,1.38c-15.71-31.82-17.92-113.36-16.85-140.16,1.36-34.07,8.42-55.7,8.42-94.89,0-12.64-.33-33.18-.33-33.18a156.35,156.35,0,0,0,52.3,7.88C2053.77,454.54,2088.51,444.51,2088.51,444.51Z"/><path class="cls-11" d="M1810.92,839.56l25.08-5.24-5-15.05,487.69-1.37-5.1,13.89,27.64,7.37.08,335.58.84,80.17,6.62,102.74s-6,4.17-18.82,5.4c-14.88,1.43-38.43.08-64.59,2.4-19.65,1.74-37.55,5.93-61.08,7.54-35.9,2.47-79.55,2-120.52,2-68.41,0-138.33-3.89-189.89-8.36-29.67-2.57-55.84-2.2-70.18-3.84-9.64-1.09-12-5.38-12-5.38s4.69-49.41,4.51-178.87c-.07-49.2-4.22-102.28-5.15-158.71C1809.49,927.78,1810.92,839.56,1810.92,839.56Z"/><path class="cls-2" d="M1954.08,753.22a482.3,482.3,0,0,1,16.55-67.44l10.88,33.72-1.12,99-11,.32v21h-25.3S1947.45,791.73,1954.08,753.22Z"/><path class="cls-2" d="M2149.15,741.59l-6.5-32.91,1.85-22.29s18.95,31.56,29.78,69.94,13.56,83.57,13.56,83.57l-27.42.23.66-20.47-10.65-.24Z"/><path class="cls-12" d="M2069.6,1263.48s-1.17-34.59-.22-74.83c1.15-48.6,4.65-104.44,7-104.44,4.26,0,2,78.4,3.2,106.11,1,22.75,3.72,72.83,3.72,72.83Z"/><path class="cls-2" d="M1933.1,162.18s40.41-8.81,81.52-8.81,82.89,8.81,82.89,8.81l.06,273s-1.85,5.85-12.52,9.86c-14.86,5.58-42,9.81-62.61,9.52-19.94-.29-40.51-3.67-52.88-9.52a30.41,30.41,0,0,1-13.42-11.9s-2.4-38.67-8.16-106.41S1933.1,162.18,1933.1,162.18Z"/><path class="cls-13" d="M2223.91,984.06s29.84-10.79,35.61-16.47c31.29-30.82,19.31-51.93,22.58-98.31.09-1.33.47-15.91,1.31-27.87l-12.13,1.12c-5.69,7.23-11.16,14.73-11.85,16.17-12.93,26.75-38.18,25.54-46.88,63.15-2.13,9.21,4,42.22,1.74,43.29,0,0-31.53-19.32-33-19.8-35.05-11.75-48.77-3.44-85.71,2.24-2.66.42-35.33.28-42.6,2-4,.93,22.38,19.59,25.24,21.89,28.88,23.28,65,28.38,93.29,32.07S2223.91,984.06,2223.91,984.06Z"/><path class="cls-13" d="M2286.68,1094.15c42.14-20.62,60.43-66.69,53.86-102.94-.68-3.75-5.61-44.19-10.73-45.3-3.63-.78-15.59,19.23-17.53,21.48-17.6,20.41-44.37,49.83-45.39,77.79-.41,10.89,2.49,32.55,2.49,32.55s-18-14.67-29.21-16.44c-29.89-4.72-60-2.16-89.84,2.43-5.91.91-24.27-1-27.91,3.22-.28.32,20.58,21.4,51.84,38.2C2214.42,1126.72,2244.77,1114.65,2286.68,1094.15Z"/><path class="cls-13" d="M2174.36,879.7c9.49,4.42,33.52-9.29,39.12-15.26A105.57,105.57,0,0,0,2230,841.19L2167,843.31c-1.45,7-2.63,12.83-2.63,12.83s-8.21-7.91-15.36-14.21c0,0-99.66-2.15-98.06-.12,21.66,27.3,64,47.64,81.28,49.8S2173.89,879.48,2174.36,879.7Z"/><path class="cls-13" d="M2310.62,1176.7s1.19-20,18.06-39.69c3.06-3.58,6.46-7.52,10.11-11.73l.5,78.89a67.73,67.73,0,0,1-13.59-.27s-30.21,24-68.15,29.62c-26.26,3.87-57.78-12.33-79.51-28.39-11-8.15-53.53-20.73-62.2-25.26s35.92-14.37,40-14.67c35.94-2.59,83.92-20.1,109.85-12.7S2310.62,1176.7,2310.62,1176.7Z"/><path class="cls-13" d="M2343.83,1327.79c-7.44,5.51-16.89,11.5-25.53,13.94-34.81,9.87-84.46-5.53-110-26.17-11.15-9-17.11-14.18-30-21.11-2.28-1.22-22.13-11.54-21-14.54.48-1.3,8,.08,9.25.09a250.73,250.73,0,0,0,35.69-2.29c39.59-5,72.69-19.4,112.06-3.72,7.14,2.84,18.54,10.22,26.36,15.55Z"/><path class="cls-13" d="M2340.31,1263.79c-18.77-45.65-46-110.1-84.46-197.43-28.48-64.69-65.26-149.18-99.66-225.37l9.72,1.45c23.43,56.94,49.34,118.18,76.74,173.85q2.78,5.65,5.53,11.31c21.39,44.06,67.18,150.71,86,196.6,2.43,6,4.61,11.38,6.59,16.37Z"/><path class="cls-14" d="M1959.55,1047.4c0-3.51,7.59-5.43,8.44-9,.32-1.33-4.33-5.29-3.92-6.63s.86-6.62,1.41-8c.37-1,13.24-2.63,13.66-3.57.71-1.58-2.32-4.86-1.53-6.41.56-1.1,6-5.14,6.59-6.22.74-1.3-3.75-19-3-20.25,2.47-3.94,14.63,1.19,17.76-1.8,1.8-1.71-.34-7.84,1.52-9.4s6.73-2.37,8.71-3.69c1.41-.94-2-8-.6-8.8,3-1.79,11.63,3.63,15.1,2.6,2.2-.66.81-6.86,3-7.5,1.63-.48,5,.36,6.77,0,1.2-.21,1.62-4.42,2.82-4.59,1.78-.25,10,3.15,11.81,3.15,2.1,0,6.41-10.44,8.13-10.46,3.81-.07,7.39-.23,10.53,2.69,2.07,1.92,3.18,7.35,6.68,7.35,2.61,0,5.93-6.62,8.87-7,1.38-.19,4.41,1.68,5.84,1.54,1.75-.17,1.18-4.08,2.94-4.23,2.34-.2,9.31,7.46,11.76,7.55,1.52.06,4-4,5.36-4.12,1.65-.11,6.83,7.64,8.28,7.66,6.06.11,4.37-8.2,10.46-5.26,1.85.91,5.87,2,7.6,3.3s.56,5.59,2.09,7.25,5.42,6.73,6.93,8.57,4.38-2.37,5.74-.6c.71.94,4.53,2.35,5.18,3.39.83,1.34-.09,8.72.52,10.16,2,4.66,7.68.29,9.69,2.67,1.18,1.41-1.56,9.72,0,11.34,1.13,1.17,6.36,18.54,7.35,19.6,1.65,1.76,9,3.49,10.11,4.89,2.65,3.25-4.35,11.48-4.35,11.48s6.45,2.23,6.45,6.45c0,8.64-4.67,6.94-8.21,14.17-.78,1.6-1.18,7.38-1.83,9.58-.51,1.74,7.79,10.39,7,12.34-.66,1.62-9.38,7.85-10.08,9.52-1.38,3.34,4.39,16.06,2.3,18.82-4,5.23-13.06-2.3-18.4,1.87-1.77,1.37,4.5,13.07-.77,15.11s-10.94-3-13.8-1.34c-1.45.86-5.27,6-6.72,6.9-1.21.7-1.92,9.35-3.11,10-2.11,1.18-10.71-4.45-12.79-3.6-2.69,1.11-4.85,13-7.23,14-4.63,1.93-9.19-4.35-13.34-4.83-4.41-.51-3,4.73-7.68,5.71-2.82.6-11.39-2.93-14.67-2.93-4,0-18.06-3.07-22.21-3.77-3.71-.62-10.6,7.59-14.27,6.49-2.68-.8-6.22-10.43-8.84-11.53-1.8-.76-9.39,5.15-11.14,4.29s-4-10.35-5.68-11.32c-2.06-1.18-12.56,7.16-14.51,5.88-1.34-.88-3.78-13.5-5-14.46-2-1.5-5.2-1.39-7-3-.68-.61,2.91-12.19,2.26-12.81-1.49-1.42-11.06,1.22-16-3.79-1.73-1.75,3.58-14,2.26-15.69-1-1.26-4-3.35-4.89-4.46-1.33-1.73,1.85-7,.84-8.45-.89-1.27-8.15-2.22-9-3.25-3.63-4.59,6.25-8.83,6.77-15.07C1968.82,1053.31,1959.55,1051.53,1959.55,1047.4Z"/><path class="cls-13" d="M1823.59,1054.29s-7.18-1.64-14.25-3.71l.25-64.19c6.36,4.52,12.36,10.39,16.66,22.17,2.35,6.44.82,30.71,2.58,31.28,0,0,21-16.67,22-17.15,24.15-11.54,34.75-6.78,61.8-6,2,.06,25.42-2.93,30.79-2.36,3,.31-14.36,16.06-16.2,18-18.7,19.29-44.22,26.15-64.23,31.3S1823.59,1054.29,1823.59,1054.29Z"/><path class="cls-13" d="M1811.48,1115a26.56,26.56,0,0,1,7.25-3.79c21.06-6,43-6.86,64.78-6.2,4.34.13,17.36-2.87,20.35-.15.24.21-12.9,17.2-33.88,32-19.07,13.48-36.09,14.43-55.73,9.93Z"/><path class="cls-13" d="M1850,974.89c-6.44,4-24.92-3.71-29.47-7.5a75.69,75.69,0,0,1-11.19-11.56l.15-60.48c14.74,7.79,30.78,21.64,36.82,36.12,1,2.36,8.77,25.61,8.77,25.61s11.41-14.08,15.33-17.29c16.15-13.23,40.53-21.31,61.33-22.7,2.39-.16,15.74-4,17.35-1.62,1.45,2.14-11.91,16.36-12.89,18-13.16,21.54-42.66,43.22-54.89,46.31S1850.29,974.7,1850,974.89Z"/><path class="cls-13" d="M1886.86,892.28s-32.34,0-44.25-23.09c-6.07-11.76-7.51-20.42-7.87-27.16l42.11.89a76.76,76.76,0,0,1,9.9,14.44c3.36,6.41,3.38,21.27,3.38,21.27a31.27,31.27,0,0,1,1.75-3.94c3.95-6.46,9.32-12.66,16.13-16.44,19.65-10.9,37.62-10.51,59.17-12.85,2.48-.27,14.59-2.67,16.31-1s-7.38,7.12-13.2,12.15-6.86,8.11-19.49,21.25-21,18.21-33.61,20.82S1886.86,892.28,1886.86,892.28Z"/><path class="cls-13" d="M1814.73,1236.79c24,3.21,47.17-14.19,61.37-27.66,7.2-6.83,36.65-19.63,42.48-23.66s-27.09-7.15-30.08-7c-26.07,1.32-57.71-11.1-75.69-3.49Z"/><path class="cls-13" d="M1812.08,1318.6c20.06-4.23,40.43-15.42,52-27.41,7.22-7.47,11-11.71,19.69-17.83,1.52-1.07,14.88-10.25,13.82-12.31-.46-.89-5.73.77-6.64.89a182.56,182.56,0,0,1-25.86,1.51c-17.27-.06-33.16-2.73-48.91-1.73Z"/><path class="cls-13" d="M1812.6,1112.36s13.13-50.87,18.55-68.32,43-110.83,58.5-159.74q6.9-21.75,13.73-43.36l-7.14,2c-17.69,59.89-65,182.44-65.64,184.37-5.13,14.65-20.3,66-20.3,66Z"/><path d="M2069.76,1266.27a2.85,2.85,0,0,1-2.84-2.61c-.84-9.48-1.36-48-.37-81.83,1-33,2.75-72,4.75-104.37,3.34-53.79,4.61-54.23,6.92-55a4.41,4.41,0,0,1,4.4.46c2.36,1.84,2.09,4.85,1.19,14.82-.68,7.6-1.72,19.08-2.14,35.94-1.14,45.23,0,123.63,5.3,188.84a2.87,2.87,0,0,1-2.62,3.08,2.92,2.92,0,0,1-3.08-2.62c-4.27-52.92-5.85-114.48-5.7-160.1-1.32,24.68-2.52,52.54-3.31,79.15-1,33.08-.46,72,.35,81.17a2.87,2.87,0,0,1-2.6,3.1Z"/><path d="M2070.37,1103.44a2.86,2.86,0,0,1-1.68-.55c-17.17-12.52-31-32.85-37.85-55.77a2.86,2.86,0,1,1,5.47-1.64c6.53,21.75,19.56,41,35.75,52.79a2.86,2.86,0,0,1-1.69,5.17Z"/><path d="M2081.11,1121.83a2.85,2.85,0,0,1-1.55-5.25c.17-.11,17.43-11.46,25.25-32a2.86,2.86,0,0,1,5.34,2c-8.52,22.39-26.72,34.31-27.49,34.81A2.93,2.93,0,0,1,2081.11,1121.83Z"/><path d="M2089.54,1153.44h-.32a5.59,5.59,0,0,1-3.31-1.68c-2.19-1.8-3.41-2.46-4.86-1.67a2.86,2.86,0,1,1-2.74-5c5.09-2.78,9.38.75,11.21,2.26l.42.34c.77-.22,1.38-1.1,2.44-3,1-1.74,3.22-5.81,7.28-3.7,7.78,4.08,10.71,4.61,11.62,4.64a16.09,16.09,0,0,0,1.13-4.42c.61-3.58,1.36-8,5.64-9.61,3.82-1.4,6.65,1,8.52,2.59,2.21,1.86,2.37,1.77,3.09,1.22a8,8,0,0,0,1.92-4.37c0,.13-.08,0-.2-.32-.71-1.66-1.6-3.73-.2-5.46s3.48-1.51,5.15-1.29c.06-1.6.17-4.23,2.64-5.54,4.18-2.23,6.57-.34,8.15.92A7.88,7.88,0,0,0,2150,1121a2.44,2.44,0,0,0,2.12-.34,5.64,5.64,0,0,0,2-2.73c-.17-.65-.67-2.05-1-3-1.57-4.4-2.43-6.81-1-8.61,2.73-3.38,6.46-2.18,9.17-1.31a16.29,16.29,0,0,0,6.55,1.09,4.24,4.24,0,0,0,3.79-2.63,4.47,4.47,0,0,0-.46-4.41c-3.77-4.53-3.84-10.07-2.68-12.56a12.71,12.71,0,0,1,6.4-6.12c1.91-1,2.71-1.48,3.13-3,.28-1,.06-1.42-2.6-3.31-1.9-1.35-4.26-3-5.16-5.89a5.58,5.58,0,0,1,.54-4.78,6.85,6.85,0,0,1,2.2-2.15,4.92,4.92,0,0,1-1-3.44c.3-5.18,3.22-7,5.35-8.26a11.22,11.22,0,0,0,2.2-1.58c1.05-1,1.54-3.44,1.94-5.37l.23-1.1c-.15-.57-1.29-1.13-2-1.46-2-1-5.35-2.62-5-6.59.24-2.61,2.45-4.37,4.4-5.93.46-.36,1.12-.89,1.59-1.33-.86-.31-2.47-.77-3.53-1.08-2.45-.69-4.75-1.35-6.19-2.74-2.66-2.57-2-5.77-1.56-7.69,0-.13.06-.27.09-.42a4.2,4.2,0,0,1-3.19-3.08,10.35,10.35,0,0,1-.18-4.09,3.79,3.79,0,0,1-.87-.24,5.21,5.21,0,0,1-2.89-3.31c-1.31-3.55-.35-6.81.43-9.43.54-1.84,1-3.42.59-4.56-.18-.48-.39-.7-3.28-.4-2,.21-4.38.45-6.21-1-3-2.4-2.46-6.12-2.08-8.83a9.77,9.77,0,0,0,.17-3c-.39-.72-2.72-2.11-4.37-2.59l-.11.12c-.7.78-1.81,2-3.44,1.87a3.28,3.28,0,0,1-2.49-1.34c-.5-.65-1.27-1.58-2.13-2.62-3.26-3.93-5.63-6.87-6.38-8.91a14.79,14.79,0,0,1-.66-2.78c-.23-1.44-.28-1.64-1-2.07-1.79-1.07-7.27-2.18-8.5-1.53,0,0,0,.43,0,.74-.19,1.3-.8,5.23-6,4.77-4.09-.37-6.08-3.18-7.53-5.23a14.93,14.93,0,0,0-1.66-2.1l-.09.1c-1,1.14-3.23,3.53-6.88,2.5a11.22,11.22,0,0,1-6.47-4.59,5,5,0,0,0-4-2.47,2.86,2.86,0,0,1,.54,2.67,3.43,3.43,0,0,1-2.76,2.18,9.52,9.52,0,0,1-4.63-1.22c-.41-.19-1-.46-1.47-.63-.25.33-.52.73-.78,1.13-1.33,2-3.61,5.4-8.21,4.78-3.51-.48-5-3-5.94-4.69a9.55,9.55,0,0,0-1.07-1.61c-1.46-1.57-8.15-3.45-10.07-2.87-.73.23-1,.86-1.45,3.37s-1,5.92-4.68,7.07c-3,.94-5.94-.56-8.51-1.88a16.26,16.26,0,0,0-3.53-1.49,4.94,4.94,0,0,1-3.14,4.65c-1.6.59-3.25.13-4.84-.32-.44-.13-1.1-.31-1.54-.39-.09.22,0,.5.11,1.24.35,1.64,1.15,5.48-4.54,7.57-4.06,1.5-7.07-.72-9.07-2.18-2.37-1.73-2.8-2-4.68-.3a1.34,1.34,0,0,0-.26.3,6.74,6.74,0,0,1,.74,1c.84,1.23,2.38,3.5.82,6-1.7,2.67-4.71,3.1-6.9,3.41-.93.13-2.49.36-2.7.71a9.44,9.44,0,0,0,.44,1.83c.5,1.69,1.26,4.24-.45,6.36-3.73,4.63-9,3.28-12.91,2.29-2.51-.64-4.33-1-4.87-.37-.91,1.13-.58,2.14,1.66,5.13.44.59.85,1.14,1.18,1.66,1.56,2.42-.11,4.82-1.11,6.24-.09.14-.21.3-.31.46a.71.71,0,0,0,.13.12c3,2.59,3.59,5.11,1.66,7.5a12.37,12.37,0,0,1-4.5,3,10.31,10.31,0,0,0-2.82,1.65,10.81,10.81,0,0,0,.79,2.39,9,9,0,0,1,1,4.53c-.47,3.3-4.57,3.48-7,3.58l-.46,0c-5,.54-6.92,1.49-7.21,3.65l-.07.44a15.93,15.93,0,0,0-.27,3.38l.51.23c1.55.71,5.66,2.6,4.21,6.48-1.13,3-3.68,4.33-5.54,5.29-2.14,1.1-2.7,1.52-2.81,2.77,0,.47.35.82,2.68,1.86s6.57,2.93,5.9,7.76c-.36,2.56-2.09,4.65-3.75,6.67-2.66,3.22-3.4,4.56-2.57,6.12a18.64,18.64,0,0,0,2.13.29c2.3.24,6.14.63,7.37,4.56.71,2.25-.41,4.2-1.22,5.62a7.48,7.48,0,0,0-.74,1.48,6.89,6.89,0,0,1,1.58.91c1.93,1.25,5.54,3.58,4.2,8.35a26.92,26.92,0,0,1-1.42,3.47c-.71,1.54-2.6,5.65-2.1,6.69,1.4,1.84,4.91,2.94,7.58,3.18a8.24,8.24,0,0,0,1.28-.11c2.6-.26,5.52-.57,7.08,1.51,2.67,3.51.87,7.25-.32,9.73a11.81,11.81,0,0,0-1.13,2.93c.35,0,.76,0,1.08,0,1.85-.1,4.36-.27,6.16,1.66,2.48,2.66,2.44,6.21,2.41,9.06,0,2-.05,3.95.76,4.92,1,1.29,4.1-.79,7.1-3a18.57,18.57,0,0,1,4-2.54,4.85,4.85,0,0,1,4.15.19c2.17,1.21,2.69,3.74,3.2,6.2.38,1.84.86,4.14,1.85,4.37,1.53.34,2.59-.38,4.62-2.13,1.72-1.49,3.89-3.38,6.82-2.84,3.48.62,4.08,4.07,4.48,6.35.53,3,1,4.93,3.59,5.75,3,.94,5.63-2,8.26-5.37,1.65-2.11,3-3.76,5.13-3.48,3.14.44,4.3,3.23,5.07,5.08.19.43.44,1.05.64,1.39a8.4,8.4,0,0,0,2.24-1.76c1.22-1.2,2.73-2.69,4.85-2.23,1.9.41,2.45,2.14,3.09,4.13.29.93,1,3.11,1.5,3.58a2.73,2.73,0,0,1,1.55,3.61,3,3,0,0,1-3.81,1.6c-2.29-.85-3.42-3.29-4.22-5.63-1.64,1.47-4,3-7,2.2-2.48-.69-3.45-3-4.15-4.7-.07-.15-.15-.34-.23-.53-.06.09-.13.17-.19.25-2.6,3.33-7.46,9.52-14.48,7.31-6-1.91-7-7.1-7.51-10.21-.07-.45-.18-1.05-.29-1.5a16.44,16.44,0,0,0-1.65,1.32c-2,1.76-5.1,4.42-9.63,3.37s-5.53-5.7-6.16-8.78c-.11-.55-.26-1.26-.41-1.82-.61.38-1.39,1-2,1.41-3.59,2.65-10.29,7.59-14.88,2.08-2.16-2.59-2.12-5.81-2.09-8.65,0-2.11,0-4.11-.87-5.1a12.15,12.15,0,0,1-1.63.16c-1.92.1-5.48.33-6.75-3.13-1.09-3,.24-5.72,1.31-7.94.81-1.69,1.18-2.61,1.13-3.24-.67,0-1.63.11-2.16.16a13.73,13.73,0,0,1-2.38.12c-3.89-.35-9-2-11.63-5.45s-.27-8.71,1.47-12.5a23,23,0,0,0,1.11-2.63c.15-.54.2-.71-1.8-2a10.47,10.47,0,0,1-3.37-3c-1.79-2.79-.25-5.47.67-7.07a7,7,0,0,0,.69-1.38c-.27,0-1.69-.19-2.46-.27-2.16-.22-5.12-.52-6.6-3.29-2.75-5.2.84-9.55,3.21-12.43,1.11-1.35,2.36-2.87,2.5-3.83,0-.4-.17-.68-2.57-1.76s-6.47-2.88-6-7.59c.41-4.51,3.71-6.2,5.89-7.33a11.19,11.19,0,0,0,2.09-1.25l-.53-.25a9.53,9.53,0,0,1-2.06-1.15c-2.24-1.8-1.92-5.33-1.45-8.49l.06-.39c1-7.33,8.91-8.18,12.28-8.54.17,0,.45,0,.8,0l1.08-.06-.09-.22a10.86,10.86,0,0,1-1.1-5.46c.45-3.26,3.52-4.71,6-5.88.49-.23,1.18-.55,1.72-.86l-.13-.12a5.79,5.79,0,0,1-2.49-3.72c-.19-1.78.85-3.27,1.69-4.46.13-.2.31-.44.45-.67l-.41-.55c-1.91-2.54-5.45-7.28-1.53-12.14,2.88-3.57,7.22-2.46,10.72-1.57s5.55,1.22,6.84-.1c-.06-.36-.24-1-.36-1.4-.52-1.73-1.22-4.11.12-6.37,1.61-2.7,4.61-3.13,6.8-3.44a14.58,14.58,0,0,0,2.22-.43l0-.07c-1-1.4-3.47-5.12.35-8.68,5.32-5,9.62-1.82,11.94-.13,2,1.44,2.71,1.82,3.73,1.43a5.43,5.43,0,0,0,1-.48c0-.17-.07-.39-.1-.56a6.69,6.69,0,0,1,1.91-7c2-1.85,4.69-1.1,6.65-.54.23.06.51.15.78.21a4.69,4.69,0,0,1,2-3.8c3.32-2.14,6.89-.3,9.75,1.17,1.43.74,3.38,1.75,4.19,1.51a7.17,7.17,0,0,0,.77-2.62c.46-2.59,1.15-6.5,5.37-7.82,4-1.26,13,1.22,16,4.42a14.36,14.36,0,0,1,1.84,2.66c.88,1.53,1.13,1.79,1.77,1.88.86.14,1.22-.08,2.66-2.25a12.7,12.7,0,0,1,2.38-2.94c1.69-1.41,3.76-1,5.54-.26,1-2,3.26-3.79,5.67-3.58,5.61.51,7.49,3,8.87,4.79a5.6,5.6,0,0,0,3.46,2.55c.37,0,.84-.54,1.12-.85.91-1,3.72-4.09,7.53-1a16.75,16.75,0,0,1,3.1,3.57c1.33,1.87,2,2.64,3.2,2.82a6.57,6.57,0,0,1,1.87-4.06c4-3.68,13.48-.15,15.22.88a7.62,7.62,0,0,1,3.72,6.08,8.88,8.88,0,0,0,.39,1.71c.46,1.28,3.68,5.15,5.4,7.23l.62.75a4,4,0,0,1,2.91-1c2.83.26,8,2.63,9.66,5.76,1.07,2,.74,4.37.45,6.44-.17,1.21-.45,3.23,0,3.6l2-.21c2.59-.27,7.43-.76,9.22,4.11,1.07,2.91.25,5.69-.48,8.15-.57,2-1.08,3.69-.7,5.3a3,3,0,0,1,3.48,1.18c1.12,1.74.93,3.77.77,5.4,0,.31-.07.72-.08,1.09a3.84,3.84,0,0,1,2.5,1.37c1.59,1.91,1.11,4.16.75,5.81s-.36,2.09,0,2.38a16.25,16.25,0,0,0,3.78,1.36c3.34,1,6.81,1.94,7.87,4.85,1.26,3.4-1.74,5.78-3.93,7.52a11.5,11.5,0,0,0-2.31,2.16c.23-.12,1.23.46,1.85.76,2,1,6.09,3,5,7.81l-.21,1c-.55,2.68-1.23,6-3.5,8.27a16,16,0,0,1-3.26,2.41c-1.74,1.06-2.44,1.48-2.6,3.46.19.13.48.3.7.42a6.34,6.34,0,0,1,3,2.78,2.82,2.82,0,0,1-.06,2.5,3,3,0,0,1-2.19,1.53c-2.2.34-3.3,1-3.46,1.3.39,1.07,1.71,2,3.1,3,2.47,1.76,6.21,4.42,4.78,9.5-1.1,4-3.8,5.38-6,6.52-1.75.92-3,1.59-3.88,3.47a8,8,0,0,0,1.89,6.51,10.16,10.16,0,0,1,1.36,10.24,9.92,9.92,0,0,1-8.53,6.13,21.13,21.13,0,0,1-8.84-1.33c-.65-.21-1.52-.49-2.14-.62.3,1,.76,2.28,1.08,3.18,1.08,3,1.51,4.29,1.35,5.47a11,11,0,0,1-4.65,7,8.09,8.09,0,0,1-6.81,1,13.09,13.09,0,0,1-4.84-2.65,7.26,7.26,0,0,0-1-.71,1.85,1.85,0,0,0-.48.15c0,.29,0,.66-.05,1-.05,1.42-.12,3.56-1.9,4.9a4.19,4.19,0,0,1-3,.7,3.44,3.44,0,0,1,.12.64c.32,2.91-1.78,7.72-4.15,9.52-4.5,3.39-8.21.27-10.21-1.41-1.61-1.36-2.3-1.82-2.88-1.6-1.08.4-1.5,2.41-2,5.21-.45,2.64-.91,5.37-2.59,7.46-2.39,3-7.49,2.09-17.55-3.11-.19.31-.38.67-.54,1C2096.12,1149.7,2094,1153.44,2089.54,1153.44ZM1986.41,1109ZM1985,1002.85Zm38.09-39.14Zm94.93-7.48Z"/><path d="M2161,823.28h0l-190.35-.11a2.86,2.86,0,0,1,0-5.71l190.35.1a2.86,2.86,0,0,1,0,5.72Z"/><path d="M2339.12,844.54H1808.9a2.85,2.85,0,0,1-.46-5.67l22-3.6-5.16-12.14a2.85,2.85,0,0,1,2.59-4l117.74-1.7a2.86,2.86,0,0,1,0,5.71h-5.23l-108.18,1.63,4.91,11.59a2.82,2.82,0,0,1-.1,2.44h479.6l-6.36-1.64a2.85,2.85,0,0,1-1.85-4l4.75-9.73-123.63-.27a2.86,2.86,0,1,1,0-5.71h9.31l118.89.27a2.86,2.86,0,0,1,2.56,4.11l-5.21,10.7,24.73,6.38a2.86,2.86,0,0,1-.71,5.62Z"/><path d="M2102.08,1380.72c-73.27,0-156-3.35-198-8-17.59-1.93-35.59-2.65-51.47-3.28-27.65-1.09-41.12-1.81-45.17-6.23a4.94,4.94,0,0,1-1.36-3.63c0-1.13.22-3.35.48-6.63,5.57-72.25,6.62-148.39,3.13-226.31-5.16-115.15-3.63-283.05-3.61-284.73a2.85,2.85,0,0,1,2.85-2.83h0a2.87,2.87,0,0,1,2.83,2.88c0,1.68-1.55,169.43,3.6,284.43,3.51,78.14,2.45,154.52-3.14,227-.22,2.88-.38,4.93-.45,6.11,3,2.72,23.18,3.52,41,4.23,16,.63,34.09,1.35,51.87,3.31,71.26,7.84,259.61,12,319.43,2.36,22.82-3.7,49.58-4.93,73.19-6,20.09-.93,42.78-2,46.75-4.61l-.14-1.18c-5.72-49.13-8.4-121-7.56-202.49,1.18-113.78.24-311.18.23-313.16a2.86,2.86,0,0,1,2.84-2.87h0a2.85,2.85,0,0,1,2.85,2.84c0,2,.95,199.42-.23,313.25-.84,81.22,1.83,152.87,7.52,201.77l.22,1.9a4.43,4.43,0,0,1-1.1,3.41c-3.85,4.47-19.31,5.38-51.14,6.84-23.46,1.09-50,2.31-72.53,6C2200.18,1379.07,2153.45,1380.72,2102.08,1380.72Zm242-21.27h0Z"/><path d="M1945.59,841h-.07a2.86,2.86,0,0,1-2.79-2.92c.65-27.78,9.49-115.7,26.53-158.49a2.86,2.86,0,1,1,5.31,2.11c-16.78,42.12-25.49,129-26.13,156.51A2.86,2.86,0,0,1,1945.59,841Z"/><path d="M1970.06,842.34a2.85,2.85,0,0,1-2.85-2.7c-1.44-26.33-.67-85.45,7.53-132a2.85,2.85,0,1,1,5.62,1c-8.11,46.12-8.88,104.67-7.45,130.74a2.85,2.85,0,0,1-2.69,3Z"/><path d="M1980.66,819.82a2.85,2.85,0,0,1-2.84-2.67c-.94-14.51.68-84.62,1.1-98.56a2.87,2.87,0,0,1,2.86-2.77h.08a2.85,2.85,0,0,1,2.77,2.94c-.42,13.88-2,83.71-1.11,98a2.85,2.85,0,0,1-2.67,3Z"/><path d="M2187.46,841.75a2.86,2.86,0,0,1-2.86-2.79c-.68-29.49-12.08-78.94-18-97.18a398.73,398.73,0,0,0-23.91-57.12,2.86,2.86,0,0,1,5.06-2.66A404.12,404.12,0,0,1,2172,740c6,18.52,17.57,68.77,18.27,98.8a2.86,2.86,0,0,1-2.79,2.93Z"/><path d="M2160.77,840h-.16a2.84,2.84,0,0,1-2.69-3c1.72-31.48-2.33-93.51-16.71-132.89a2.85,2.85,0,0,1,5.36-2c14.66,40.14,18.8,103.2,17,135.16A2.85,2.85,0,0,1,2160.77,840Z"/><path d="M2150.52,820h-.19a2.84,2.84,0,0,1-2.66-3c1-14.87.26-75.17-6.3-103.25a2.85,2.85,0,1,1,5.56-1.3c6.69,28.61,7.41,89.84,6.43,104.92A2.85,2.85,0,0,1,2150.52,820Z"/><path d="M1994.36,726.86a22.69,22.69,0,0,1-3.72-.3,16.09,16.09,0,0,1-13-10.81c-8.24-22.41-14.85-69.21-15.71-111.29-.67-33,2.4-61.12,5.37-88.33.93-8.47,1.86-17,2.68-25.66.77-8,.57-22-.58-41.69a2.86,2.86,0,0,1,5.71-.34c1.16,20,1.35,34.32.56,42.58-.83,8.71-1.76,17.23-2.69,25.73-3.08,28.27-6,55-5.34,87.6.84,40.85,7.44,87.89,15.36,109.43a10.38,10.38,0,0,0,8.63,7.14c8.06,1.36,18.13-3.47,21.26-7.28a2.86,2.86,0,1,1,4.41,3.63C2013.15,722.27,2003.18,726.86,1994.36,726.86Z"/><path d="M2034.9,740.61a23,23,0,0,1-4.17-.37c-5.67-1-10-4.2-12.22-8.89-4-8.41-7.7-28.31-10.43-42.85-1-5.44-1.9-10.14-2.51-12.63-3.79-15.53-8.5-20.57-8.55-20.61a2.88,2.88,0,0,1,0-4,2.84,2.84,0,0,1,4,0c.59.58,5.89,6.19,10.06,23.3.64,2.63,1.5,7.18,2.57,12.93,2.53,13.43,6.34,33.72,10,41.47a10.61,10.61,0,0,0,8.09,5.7c5.53,1,12.2-.81,15.84-4.33,6.22-6,6.89-17,6.89-17.13a2.9,2.9,0,0,1,3-2.7,2.87,2.87,0,0,1,2.7,3c0,.54-.78,13.35-8.62,20.93C2047.54,738.29,2041.11,740.61,2034.9,740.61Z"/><path d="M2078.5,744.43l-.77,0c-10.67-.42-18.57-7.28-20.6-17.88-1.8-9.4-3.35-20.06-4.85-30.37-1.66-11.39-3.22-22.14-5-30.92a2.85,2.85,0,1,1,5.59-1.16c1.85,8.94,3.43,19.78,5.1,31.26,1.49,10.25,3,20.84,4.8,30.12,1.51,7.85,7.35,12.93,15.23,13.25,8.24.32,18.88-7.46,22.21-10.5a2.85,2.85,0,1,1,3.84,4.22C2103.47,732.93,2090.72,744.43,2078.5,744.43Z"/><path d="M2119.73,755.5a18.88,18.88,0,0,1-10.94-3.34,21,21,0,0,1-8.59-14.9c-.82-11.65-1.38-26.71-1.88-40-.63-16.93-1.22-32.92-2.17-37.15a2.86,2.86,0,0,1,5.58-1.24c1.06,4.74,1.63,20.24,2.3,38.18.49,13.25,1,28.26,1.87,39.81a15.18,15.18,0,0,0,6.16,10.61c3.56,2.48,8,3,13.2,1.48,13.16-3.81,22.42-19.14,22.51-19.29a2.86,2.86,0,0,1,4.91,2.92c-.42.71-10.53,17.42-25.83,21.85A25.49,25.49,0,0,1,2119.73,755.5Z"/><path d="M2142.3,728.85h-.15a2.85,2.85,0,0,1-2.7-3c0-.71,3.79-71.64,1.2-110.74a2.87,2.87,0,0,1,2.66-3,2.83,2.83,0,0,1,3,2.66c2.61,39.45-1.16,110.71-1.2,111.43A2.85,2.85,0,0,1,2142.3,728.85Z"/><path d="M2190.81,734.27c-5.78,0-13.07-2.67-21-7.86a69.26,69.26,0,0,1-13.13-12,2.86,2.86,0,1,1,4.4-3.64c.05.06,5.7,6.83,11.86,10.87,11.46,7.51,19.62,8.15,22.63,5.47,2-1.82,2-5.59-.19-9.83a298.81,298.81,0,0,1-15.93-38.1c-3.89-10.87-7.56-21.13-14.52-34.33-11.8-22.39-18.13-37.07-23.21-48.87-4.33-10.07-7.75-18-13-27.1-19.47-33.86-31.69-60.19-36.33-78.25-2.75-10.73-5-26.05-6.64-45.53a2.86,2.86,0,0,1,5.69-.48c1.62,19.17,3.81,34.17,6.49,44.59,4.5,17.56,16.53,43.41,35.74,76.83,5.38,9.37,8.86,17.45,13.27,27.68,5,11.7,11.31,26.27,23,48.46,7.15,13.56,10.89,24,14.84,35.07a293.61,293.61,0,0,0,15.66,37.45c3.42,6.76,3,13-1.1,16.66A12.46,12.46,0,0,1,2190.81,734.27Z"/><path d="M2091.75,635.79a2.86,2.86,0,0,1-2.85-2.69l-1-16.43a2.85,2.85,0,0,1,5.7-.33l.95,16.43a2.87,2.87,0,0,1-2.68,3Z"/><path d="M2043.72,1294.76c-48.13,0-95.3-1.29-132.81-4.61a2.85,2.85,0,1,1,.51-5.68c130.84,11.56,357.51-1.12,371.86-6.85a2.85,2.85,0,0,1,2.12,5.3C2273.37,1287.73,2156,1294.76,2043.72,1294.76Z"/><path d="M2023.74,456.5c-34.18,0-70.19-7.35-70.45-28.07-.56-45.08-24.53-264-24.77-266.18a2.85,2.85,0,1,1,5.67-.62c.25,2.2,24.24,221.37,24.81,266.73.2,15.78,33.37,22.52,66.2,22.42,40.37-.25,70.53-9.69,70.53-18,0-23.73-2.18-269.3-2.2-271.77a2.87,2.87,0,0,1,2.83-2.89,2.92,2.92,0,0,1,2.88,2.83c0,2.48,2.21,248.07,2.21,271.83,0,16.9-46.75,23.49-76.21,23.67Z"/><path d="M2021.14,399.84a196.5,196.5,0,0,1-52.63-7.15,2.85,2.85,0,1,1,1.67-5.46c.49.15,50.07,15,95.6.41a2.86,2.86,0,0,1,1.74,5.44A152.86,152.86,0,0,1,2021.14,399.84Z"/><path class="cls-3" d="M1447.6,520.1c1.19,6.09,2.77,11.93,4.38,18.37,4.32,17.36,9.25,36.66,11.73,52.47a309.07,309.07,0,0,1,2.88,69.59,133.83,133.83,0,0,1,7.13,31.22c1.44,14,.18,31.32-4.73,39.43-15,24.88-35.52,7.82-35.52,7.82s-11.11,7.25-20.23,8.68a26,26,0,0,1-16.24-3,20.78,20.78,0,0,1-13.87,6.38c-8.94.55-21.9-4.18-21.9-4.18s-5.33,34.81-33.21,35.24c-16.18.25-30.2-24.27-35.58-38.73-5.84-15.72-5.18-36.88-4.86-67.3.18-15.69-2.52-38.52-1.25-56.59,2.05-29.11,24-76.42,35.39-113.77,1.27-4.17,25.74-15.3,54-12C1409.06,497.6,1446.91,516.63,1447.6,520.1Z"/><path class="cls-2" d="M1126.76,843.37l25.08-5.24-5-15,487.7-1.37-5.11,13.89,27.64,7.37.08,335.57.85,80.18,6.61,102.73s-6,4.18-18.81,5.41c-14.89,1.43-38.43.08-64.6,2.4-19.64,1.74-37.55,5.93-61.08,7.54-35.9,2.47-79.55,2-120.52,2-68.41,0-138.33-3.88-189.89-8.36-29.67-2.56-55.84-2.2-70.18-3.83-9.64-1.09-12-5.38-12-5.38s4.7-49.41,4.51-178.88c-.07-49.19-4.21-102.28-5.14-158.7C1125.34,931.59,1126.76,843.37,1126.76,843.37Z"/><path class="cls-15" d="M1127.35,843.58l26-.67-5.63-18.08s102.76-2.53,224.45-3.17,262.33.6,262.33.6l-5.69,13.14,28.43,8.28L1655.54,931a45.09,45.09,0,0,0-46.4-8.73c-15.85,5.73-32.21,24-74.25,17.47S1456.7,896.1,1384,906.45c-81.92,11.64-97.69,59-198,11.07-32.43-15.5-59.74,23.87-59.74,23.87Z"/><path class="cls-2" d="M1302.29,708.85l5,20.66-9.39,9.45,1.76,83.27-12.24.93L1289,844l-24.93.06s4.76-49.45,13.8-82.51S1302.29,708.85,1302.29,708.85Z"/><path class="cls-2" d="M1468.08,823.17l1.55-88.42,5.24-26.29S1488,726,1496.1,759.94s11,84.24,11,84.24l-27.81-.2,1.21-21.21Z"/><path class="cls-2" d="M1341,681.4a54.63,54.63,0,0,1,11.94-4.88,132,132,0,0,1,16.53-3.16l-4.75,23.86-27.89,8.91Z"/><path class="cls-10" d="M1131,1132.19s25.85-9.58,64.14,12.92c49.78,29.25,59.36,84.25,133.56,76.6,58.91-6.08,62.54-20.82,122.07-48.83,65.1-30.64,107.51-3.86,145-10.05,49.3-8.14,60.31-44.53,60.31-44.53s-.8,65.48,1,134.28,7.53,109.72,7.53,109.72a84.55,84.55,0,0,1-19.09,4c-17.65,1.88-47.2,2.87-92,6-30.29,2.11-75,7.89-113.71,7.89-67.75,0-157.46-3.47-219.15-8-39.14-2.85-64-2.57-78.81-4.55a45.11,45.11,0,0,1-15.27-5.37s4.83-72.85,5-143.55S1131,1132.19,1131,1132.19Z"/><path class="cls-15" d="M1255.86,1107.31A134.14,134.14,0,1,1,1390,1241.52,134.17,134.17,0,0,1,1255.86,1107.31Z"/><path class="cls-10" d="M1297,1071.1c0-2.26,2.54-13.21,2.54-13.21l-2-12.89,6.37-9.33-1.43-6-4-7.41,3.39-5.75,16.73-11.83-2.94-9.84s15.92-12,41.73-18c19.39-4.49,45.92-4.6,66.82,1,21.1,5.64,40.44,16.11,55.22,29.88a178.64,178.64,0,0,1,31.13,39.35l-11.25,4.19-4.5-9.39s-5.08,14.42-8.65,13c-1.88-.77-1.56-15.37-1.56-15.37s-5.3-4.91-6.56-5.45c-7.18-3.08-14.2-8.23-17.54-8.57-2.2-.23-7.5.49-3.89,4,1.76,1.7,2.26,6.78,5.9,9,3.94,2.38,11,1.85,11.65,2.92,3.34,5.41,3.12,11.37,1.29,11.76-4,.83-11.09-3.59-14.47-1.92-2.25,1.11,2.33,5.89,3.77,10.1a5.67,5.67,0,0,1-2.18,6.38c-13.08,7.87-18.15,22.55-30.68,23.43-1.47.11-25.87-21.11-24.57-26.69,1.54-6.54,14.67-1,17.71-.2,7.43,1.92,11.26-10,9-9.91-3.22.17-9.88.42-13,.54s-8.55-5.45-11.5-5.32-7.41,4.07-10.17,4.18c-2.28.09-7-2.47-9-2.39-2.72.11-12.81,7.57-14.79,7.57-3.12,0-19.73,25.38-25.14,21.57-2.84-2-.85-13-1.47-19.07-.9-8.71-3.93-13.19-6.86-16.44-1.08-1.2,7.12-6.92,6-7.82-2.58-2.06-7-4.27-9.5-3.68s-4.43,5.15-6.88,6.69c-1.92,1.2-5.9,2.73-7.74,4.27-1.68,1.39-2.23,5.33-3.78,6.89-1.73,1.75-7.56,3.58-8.36,5.81C1306.61,1071.94,1297,1079.72,1297,1071.1Z"/><path class="cls-10" d="M1431.48,1136.9c0-4.58-14.14-32-12.16-35.81,4.62-8.85,8.81,2.51,19.51,2.51,3.7,0,23.45-22.53,30.48-29.63,8.54-8.63,14.28,7.67,20.4,5.08,12.43-5.28,12.64-15.21,14.2-16,3.87-2.07,10.57,3.6,13.18,5.31,11.34,7.42,3.8,70.91,3.8,70.91s-11-6.19-19.5-2.81c-5.09,2-7.72,7.85-11,13.19-2.38,3.84-5.9,7.19-7.25,9.85-2.26,4.45-4.72,15.35-8.28,20-8.9,11.57-27.9,27.15-33.95,27.15-3.3,0-10.42-1.61-12-5.73-.82-2.11,3-21.84,2.68-24.69-.51-4.58-3.8-11.52-3.94-15.38C1427.36,1153.87,1431.48,1144.47,1431.48,1136.9Z"/><path class="cls-10" d="M1258.45,1132.09c0-6.57-2-25.57-2-25.57s16.87,17.64,16.87,24.21,2.79,16.57-1.73,16.57S1258.45,1138.65,1258.45,1132.09Z"/><path class="cls-16" d="M1328.08,1006.5c5.17-13-6.62-11.46-1.69-16.09,8.57-8.07,41.3-16.48,58.17-16.48,10.55,0,33.53.5,53.86,8.53,30.85,12.17,59.43,34.76,59.43,44.58,0,1-1.88,4.84-6.72,6.86-7,2.91-20.34-12.77-31.52-10.35-4.66,1-20.95,13.93-11.61,17.8s6.57,17.89,5.69,20.64c-3.44,10.74-17,17.21-19.81,19.37-2.09,1.6-12.64-9.94-14.3-15.72-1.75-6.08,4.35,3.37,13.16-3.1,5.36-4,4.32-8-3.35-9.09s-7.73-9.29-8-9.5c-12.12-10.54-17.9.58-24.49-.43-15.33-2.36-10.94,7.5-14.42,10.1-14.19,10.59-25.75,19.5-25.37,14.51,1-12.72-5.69-13.06-3.52-22.09,2.36-9.89,7.44-17.81,1.59-18.06s-10.16,3.13-16,3.37c-3.27.14-11.61,11.29-14.23,10.7-3.51-.78-3.72-7.6-2.6-12.21s-13,1.54-13.69-4.19S1326.41,1010.71,1328.08,1006.5Z"/><path class="cls-17" d="M1440.52,1164.37c0-3.41,3.83-14.68,4.19-27.88.11-3.78-3.09-4.78-7.5-13.77s8.52-9,20-19.57,15.16-26.36,22.88-26.36c3.95,0,1.86,12.48,9.69,10.77s25.57-17.62,29.43-11.89c9,13.29,1.59,51.34,1.59,58.88,0,14-24.3-21.62-36.13,7.73s-14.88,14.27-21.89,24.24c-6.62,9.42-7.89,18.28-12.71,21.42C1442,1193.2,1440.52,1170.67,1440.52,1164.37Z"/><path class="cls-7" d="M1299.09,171s53.93-11.18,104.61-11.29,98.1,10.85,98.1,10.85-2.09,134-9.64,209.16c-5.34,53.08-15.1,62.57-17.57,82.77-4.39,36.05,2.69,53.57-.93,64.76-5.84,18-19.51,15.45-19.51,15.45l-5.76-22.61s-40.66-21-72.28-25.47-54.2,7.53-54.2,7.53L1308.14,539s-10.38-10.18-11.83-21.62c-1.75-13.91,5.16-31.77,2.39-62.17-1.54-17-9.44-36.56-9.29-58.62C1290,302.64,1299.09,171,1299.09,171Z"/><path d="M1390.34,1243.58a137.86,137.86,0,0,1-31.52-3.64s-4.1-1-6.94-1.81h0c-2.94-.83-4.61-1.45-4.61-1.45a136.42,136.42,0,0,1-93.85-129.76c0-75.35,61.42-136.65,136.92-136.65s136.92,61.3,136.92,136.65S1465.84,1243.58,1390.34,1243.58Zm-36.91-10.95c2.77.78,6.72,1.75,6.73,1.75a131.63,131.63,0,0,0,30.18,3.49c72.35,0,131.21-58.75,131.21-130.95S1462.69,976,1390.34,976s-131.21,58.74-131.21,130.94a130.75,130.75,0,0,0,90,124.37c.14,0,1.66.6,4.28,1.34Z"/><path d="M1433.88,1094c-5.58,0-11.31-6.14-15.71-10.87l-.68-.72a41.63,41.63,0,0,0-3.41-3.16,38.75,38.75,0,0,1-4.91-4.79c-2.5-3.06-4.63-8.19-3.39-12.24.53-1.74,2.29-4.6,8.2-4a19.17,19.17,0,0,1,6.71,2.33c2,1,3.79,1.9,5.47,1.71,1.35-.17,4.86-2.73,5.86-4.33l-.12,0a13.81,13.81,0,0,0-5.32,0,15.24,15.24,0,0,1-7.34-.4,13.69,13.69,0,0,1-4.91-2.94,6.33,6.33,0,0,0-3.34-1.77c-1-.21-1.68.14-3.4,1.17a14.38,14.38,0,0,1-7.45,2.53,15,15,0,0,1-6.42-1.24,6.46,6.46,0,0,0-4.83-.42,27.22,27.22,0,0,0-6.5,3.4,48.32,48.32,0,0,1-5,2.89,10.49,10.49,0,0,0-3.07,3,26.73,26.73,0,0,1-2.06,2.37,141,141,0,0,0-9.9,11.07c-2.29,2.8-6.23,7.63-11.64,5.69-5.93-2.13-4.91-10.2-4.23-15.54a27.13,27.13,0,0,0,.31-3.36c-.12-3-1.5-6-2.95-9.08a34,34,0,0,1-3.29-9.39c-.42-2.88.44-5.32,2.31-6.52a8.14,8.14,0,0,1,1.78-.82l.27-.1a6.69,6.69,0,0,0-3.15-2.15c-2-.74-2.39-.37-4.12,2a15.24,15.24,0,0,1-3.75,4,16.23,16.23,0,0,1-3.89,1.78,9.29,9.29,0,0,0-2.88,1.36,6.94,6.94,0,0,0-1.58,2.92,12.76,12.76,0,0,1-2.37,4.36,11.16,11.16,0,0,1-5.09,2.81,11.78,11.78,0,0,0-2.18.86c-1.68,1-2.22,2.29-3.12,4.63a29.47,29.47,0,0,1-1.37,3.17c-.39.76-.75,1.6-1.12,2.48-1.17,2.75-2.5,5.87-5.15,7.79-1.47,1.08-5.15,3.8-8.27.77s-3.3-7.57-.36-14.46c1.43-3.37,1.07-4,.29-5.35a11.82,11.82,0,0,1-1.78-5.18c-.23-2.3-.36-5,.88-7.36a14.85,14.85,0,0,1,3.32-4c1.53-1.42,2.33-2.23,2.39-3.56.12-2.64-.92-4.08-2.24-5.91-1.56-2.17-3.51-4.87-2.73-9.26,1.2-6.71,6.36-9.43,8.84-10.74a8.46,8.46,0,0,0,.8-.44,32.56,32.56,0,0,1,5.43-2.74c4.41-1.85,5.46-2.29,4.15-6.43l-.17-.58a5.39,5.39,0,0,0-.25-.75,2.82,2.82,0,0,1-.85-3.91,2.89,2.89,0,0,1,4-.84,6.21,6.21,0,0,1,2.61,3.93l.13.43c2.87,9.1-3.06,11.59-7.38,13.42a27.56,27.56,0,0,0-4.49,2.22,13.56,13.56,0,0,1-1.3.74c-2.06,1.09-5.17,2.73-5.87,6.69-.35,1.93.28,2.9,1.73,4.91,1.58,2.19,3.53,4.9,3.32,9.52-.18,3.73-2.42,5.81-4.21,7.48a10.14,10.14,0,0,0-2.14,2.42c-.53,1-.41,2.68-.27,4.17a6.38,6.38,0,0,0,1,2.88c1.45,2.53,2.37,4.9,0,10.44-2.17,5.11-1.75,6.94-1.25,7.72.33-.2.72-.49,1-.68,1.66-1.21,2.62-3.45,3.55-5.63.43-1,.85-2,1.31-2.87a22.69,22.69,0,0,0,1.1-2.58c1-2.52,2.07-5.39,5.5-7.47a15.93,15.93,0,0,1,3.36-1.4,6.61,6.61,0,0,0,2.65-1.24,8.49,8.49,0,0,0,1.23-2.51,11.67,11.67,0,0,1,3.31-5.33,14.35,14.35,0,0,1,4.62-2.33,11,11,0,0,0,2.57-1.12,10.68,10.68,0,0,0,2.34-2.6c1.8-2.47,4.53-6.2,10.66-4,1.74.63,5.9,2.53,7.12,6.75.81,2.83-.6,4.92-4.2,6.24l-.41.15a3.34,3.34,0,0,0,0,1,29.15,29.15,0,0,0,2.81,7.79c1.63,3.47,3.31,7.07,3.49,11.26a28.09,28.09,0,0,1-.36,4.32c-.3,2.42-1.12,8.86.5,9.44s3.34-1.55,5.12-3.72a148.85,148.85,0,0,1,10.48-11.73,21.49,21.49,0,0,0,1.62-1.88A15,15,0,0,1,1375,1056a42.85,42.85,0,0,0,4.33-2.54,30.76,30.76,0,0,1,8.1-4.1,12.09,12.09,0,0,1,8.32.6,9.67,9.67,0,0,0,4.23.87,9.09,9.09,0,0,0,4.68-1.72c1.89-1.13,4.24-2.54,7.49-1.86a11.86,11.86,0,0,1,5.89,3,8.24,8.24,0,0,0,3.06,1.89,10.36,10.36,0,0,0,4.79.13,19,19,0,0,1,7.38.17c4.63,1.14,4.76,4.46,4.69,5.45-.35,4.79-7.85,9.8-11.25,10.13s-6.13-1.06-8.58-2.28a14.48,14.48,0,0,0-4.71-1.76c-1.81-.17-2.3.13-2.3.14-.42,1.61.9,4.86,2.47,6.79a33.36,33.36,0,0,0,4.22,4.07,49.07,49.07,0,0,1,3.85,3.58l.69.74c3.14,3.37,9.67,10.42,12.41,8.79,4.35-2.53,12.75-10,17.06-15.71a24,24,0,0,1,8-6.58c2.56-1.48,3.49-2.12,3.79-3.5a2.86,2.86,0,1,1,5.58,1.24c-.88,4-3.87,5.68-6.51,7.21a18.75,18.75,0,0,0-6.25,5c-4.37,5.84-13.31,14-18.75,17.23A7.31,7.31,0,0,1,1433.88,1094Z"/><path d="M1440.69,1209.56a13.5,13.5,0,0,1-5-1c-12.66-5-9.72-18.78-7.77-27.88.23-1.09.46-2.14.65-3.13.53-2.77-.5-5.27-1.7-8.16a25.37,25.37,0,0,1-2.3-8.14c-.31-4.73,1.2-9.11,2.66-13.33,1.83-5.3,3.41-9.86,1.43-14.43a38.94,38.94,0,0,0-3.12-5.49c-.69-1.08-1.37-2.15-2-3.23-2.41-4.21-3.59-8.88-4.73-13.4l-.67-2.6c-.71-2.64-1.74-6.53-.64-9.59a6.4,6.4,0,0,1,3.77-3.75,7.07,7.07,0,0,1,5.76.24c.81.42,1.77,1,2.82,1.68,2.18,1.37,5.81,3.65,7.53,3.18,1.35-.39,3.35-2.65,4.68-4.14.55-.62,1.07-1.2,1.54-1.69a68.13,68.13,0,0,1,7.83-6.58c3.51-2.65,6.83-5.16,9.44-8.67.13-.18.32-.47.55-.83,1.89-2.93,6.32-9.79,12.65-10.45,3.23-.33,6.31.95,9.16,3.83a2.85,2.85,0,0,1-4.06,4c-1.59-1.61-3.13-2.27-4.51-2.16-3.6.37-7.12,5.82-8.44,7.87-.32.5-.58.9-.76,1.14-3.11,4.17-6.91,7-10.58,9.82a60.15,60.15,0,0,0-7.19,6c-.42.42-.88.94-1.36,1.48-2,2.22-4.43,5-7.37,5.84-4.15,1.19-8.59-1.59-12.16-3.84-.89-.56-1.71-1.08-2.41-1.44a1.3,1.3,0,0,0-1,0,.79.79,0,0,0-.47.36c-.5,1.39.32,4.47.76,6.12l.7,2.74c1,4.14,2.13,8.43,4.16,12,.57,1,1.21,2,1.85,3a45.16,45.16,0,0,1,3.54,6.29c2.86,6.61.67,13-1.27,18.56-1.34,3.87-2.6,7.51-2.37,11.1a20.77,20.77,0,0,0,1.89,6.33c1.35,3.26,2.88,7,2,11.43-.19,1-.43,2.1-.67,3.23-2.19,10.28-3.27,18.38,4.29,21.38,4.64,1.84,7.92-.71,12.86-5a56.64,56.64,0,0,1,4.66-3.79c9.28-6.47,15.59-12.63,19.86-19.4a20.78,20.78,0,0,0,2.15-6.1,27.89,27.89,0,0,1,2.19-6.55c.42-.81.78-1.69,1.16-2.58a24.94,24.94,0,0,1,2.82-5.41,21.3,21.3,0,0,1,2-2.15,11.24,11.24,0,0,0,1.77-2.06c.6-1.17,1.16-2.35,1.71-3.54,2-4.21,4-8.56,8.11-11.91a15.73,15.73,0,0,1,15-2.78c.57.17,1.12.36,1.66.54,2.58.87,3.89,1.25,5.85.51a2.85,2.85,0,0,1,2,5.33c-4,1.51-7,.49-9.72-.43l-1.5-.49a10.11,10.11,0,0,0-9.72,1.74c-3.09,2.53-4.78,6.12-6.55,9.91-.6,1.26-1.19,2.52-1.83,3.76a14.59,14.59,0,0,1-2.79,3.45,13.91,13.91,0,0,0-1.4,1.52,20.54,20.54,0,0,0-2.15,4.22c-.43,1-.87,2-1.36,3a24.06,24.06,0,0,0-1.7,5.28,25.2,25.2,0,0,1-2.87,7.79c-4.69,7.43-11.5,14.12-21.42,21a49.57,49.57,0,0,0-4.17,3.4C1450.68,1205.73,1446.3,1209.56,1440.69,1209.56Z"/><path d="M1465.37,1067.89a2.85,2.85,0,0,1-2.34-4.48c.6-.86.64-.93-1.39-2.89-1.58-1.51-3.55-3.39-4-6.29-.48-3.25.68-5,1.74-6s3.27-2,7-1a25.17,25.17,0,0,1,4.28,1.75,18.83,18.83,0,0,0,2.55,1.11,8.76,8.76,0,0,0,.38-2,5.08,5.08,0,0,0-.31-2.24c-.69-1.83-2-2.14-5.45-2.52a22.86,22.86,0,0,1-4.19-.73c-4-1.25-6.16-4.56-7.86-7.22l-1-1.57c-1.06-1.51-2.66-3.78-1.78-7a6.14,6.14,0,0,1,3.87-4.11,11,11,0,0,1,9.06.81c.9.57,1.72,1.06,2.47,1.52a37.17,37.17,0,0,1,7.74,5.74,15,15,0,0,0,3.9,2.14,18.2,18.2,0,0,1,5.71,3.42c2.38,2.42,2.1,6.55,1.83,10.54a30,30,0,0,0-.08,5,29.74,29.74,0,0,0,1.24-4.25c.72-3,1.41-5.92,3.32-7.47a4.32,4.32,0,0,1,4-.91c2.47.72,3.52,3.41,3.79,4.22a13.51,13.51,0,0,1,.38,4.35c0,.3,0,.68,0,1.08a6,6,0,0,1,1.68-2.6c2.54-2.08,7.74-.72,8-.66,2.23.6,3.64,1.64,4.21,3.12a2.86,2.86,0,0,1-5,2.61,8.91,8.91,0,0,0-3.46-.49c-.1.23-.2.5-.3.78-.71,1.81-1.6,4-3.73,4.93a4.38,4.38,0,0,1-3.53-.11c-3.5-1.57-3.54-5.67-3.5-8.5-.09.35-.16.68-.24,1-.83,3.49-1.69,7.1-4.43,8.59a5.23,5.23,0,0,1-4.38.23c-4.26-1.53-3.91-6.7-3.6-11.26.13-1.9.37-5.42-.22-6.17a14.83,14.83,0,0,0-4-2.19,18.87,18.87,0,0,1-5.56-3.28,31.3,31.3,0,0,0-6.7-4.93c-.79-.48-1.63-1-2.57-1.58a5.41,5.41,0,0,0-3.94-.32s-.39.16-.43.29c-.15.57,0,.89.94,2.25l.66,1,.52.83c1.44,2.25,2.68,4.2,4.71,4.82a18.29,18.29,0,0,0,3.15.52c3.44.38,8.16.91,10.16,6.17a10.86,10.86,0,0,1,.65,4.84c-.21,2.15-.78,5.17-3.24,6.54s-5.4.09-7.87-1.11a20.24,20.24,0,0,0-3.28-1.38,4.93,4.93,0,0,0-1.71-.22c0,.1,0,.39.08.86.14.95,1.18,1.94,2.27,3,1.94,1.86,5.55,5.32,2.14,10.26A2.87,2.87,0,0,1,1465.37,1067.89Z"/><path d="M1489.3,1082.79c-4.18,0-8.58-5.1-9.49-6.22a2.85,2.85,0,1,1,4.42-3.61,15.43,15.43,0,0,0,4.82,4.06c.26-.25.61-.68.85-1a12.73,12.73,0,0,1,1.61-1.7,32.78,32.78,0,0,1,2.85-2.07,10.65,10.65,0,0,0,4.14-4.15,13.55,13.55,0,0,0,.78-2c.85-2.49,2-5.89,5.51-6.9,6.51-1.89,12.62,6.08,16.28,10.83.47.61.88,1.16,1.23,1.58a2.85,2.85,0,1,1-4.41,3.62c-.38-.46-.84-1-1.35-1.73-1.83-2.37-7.35-9.6-10.17-8.81-.63.18-1.29,2.11-1.69,3.26a18.53,18.53,0,0,1-1.18,2.9,16.2,16.2,0,0,1-6,6.13,26.6,26.6,0,0,0-2.42,1.75,6.41,6.41,0,0,0-.83.92,7.81,7.81,0,0,1-3.68,2.92A4.62,4.62,0,0,1,1489.3,1082.79Z"/><path class="cls-18" d="M1314.52,1082.19c0,2.42-4.78,2.13-6.42,4.34-2,2.73-1.71,6.4-3.92,9.26-3.09,4-7.67,2.66-11.85,3.8-1.17.32-1.83,1.2-3,1.53-2.3.67-7.07-.21-8.95-1.89-.38-.34-1.86-2-1.39-2.8s3.31-1,4.1-1.09c3.78-.63,7.47-.51,11.3-1.53,6.15-1.63,2.72-6.64,6.77-9.47,1.77-1.24,3.68-.86,5.63-1.43C1308.46,1082.43,1314.61,1077.63,1314.52,1082.19Z"/><path d="M1287.45,1104.19c-3.06,0-6.89-1-9-2.83-.16-.14-3.8-3.44-1.9-6.45,1-1.58,3-2,5.57-2.31l.47-.07c1.58-.27,3.15-.41,4.71-.55a37.58,37.58,0,0,0,6.33-.93c1.77-.47,1.86-.92,2.26-2.82a9,9,0,0,1,3.6-6.23,9.82,9.82,0,0,1,4.84-1.56,9.4,9.4,0,0,0,1.63-.27c.26-.1.71-.37,1.23-.65,2.47-1.37,5.55-3.07,8.1-1.54a4.55,4.55,0,0,1,2.05,4.26h0c-.07,3.3-3.11,4.39-4.93,5a7.24,7.24,0,0,0-2.06,1,10.78,10.78,0,0,0-1.4,3.52,15.67,15.67,0,0,1-2.55,5.78c-2.89,3.74-6.75,4.06-9.86,4.32a19.53,19.53,0,0,0-3.5.5,3.52,3.52,0,0,0-.69.39,7.77,7.77,0,0,1-2.26,1.12A9.72,9.72,0,0,1,1287.45,1104.19Zm-3.08-6.15a9.43,9.43,0,0,0,4.18.34,3.63,3.63,0,0,0,.69-.4c.24-.16.52-.35.84-.53l-2.23.22C1286.69,1097.77,1285.54,1097.87,1284.37,1098Zm20.62-11.92a4.73,4.73,0,0,0-2.19.56c-.77.54-1,1.14-1.28,2.72-.41,2-1.08,5.13-5,6.72,2.71-.23,4.22-.49,5.45-2.08a10.9,10.9,0,0,0,1.57-3.82A19.13,19.13,0,0,1,1305,1086.12Zm9.53-3.93h0Z"/><path class="cls-18" d="M1279.51,1063.43c2.58,7.08,7.19,12,4.44,19.65-1,2.94-8.64,3.5-9.68.37-.68-2.06,1.24-3.39,1.68-5.15.81-3.29-2-6.51-1-10.08C1275.3,1067,1278.24,1060,1279.51,1063.43Z"/><path d="M1278.61,1088.41h-.15c-3.5,0-6.08-1.57-6.9-4.07a6.52,6.52,0,0,1,1.08-5.71,5.61,5.61,0,0,0,.53-1,7.06,7.06,0,0,0-.48-3.31,12.4,12.4,0,0,1-.49-6.83c0-.08,2.19-7.68,6.26-7.85a3.78,3.78,0,0,1,3.73,2.83h0c.63,1.72,1.41,3.35,2.16,4.93,2.32,4.86,4.72,9.89,2.29,16.67C1285.55,1087.07,1281.85,1088.41,1278.61,1088.41Zm-1.54-5.84a10.69,10.69,0,0,0,2,.11,4.08,4.08,0,0,0,2.29-.71c1.55-4.39,0-7.64-2.14-12.13-.33-.7-.67-1.41-1-2.13a8.74,8.74,0,0,0-.48,1.25,7.41,7.41,0,0,0,.47,3.78,11.77,11.77,0,0,1,.53,6.24,9.12,9.12,0,0,1-1.21,2.62,4.75,4.75,0,0,0-.53,1S1277,1082.57,1277.07,1082.57Zm2.44-19.14-2.7.94,0,0Z"/><path d="M1272.85,1157.38c-2.84,0-5.11-2.76-5.95-3.79-1.13-1.38-1.57-3.43-2.09-5.81-.32-1.51-1-4.65-1.72-5.19a3.44,3.44,0,0,0-.44.14,2.86,2.86,0,0,1-2-5.34,6,6,0,0,1,5.19.17c3,1.63,3.85,5.56,4.6,9a16.56,16.56,0,0,0,.94,3.42c.3.37.55.65.77.88a35.42,35.42,0,0,0-.81-4.3,16.36,16.36,0,0,1-.72-5c.07-.74.17-1.54.27-2.36.47-3.73,1.05-8.38-.75-11a24.17,24.17,0,0,0-4-4c-2.35-2.06-5-4.38-6.36-7.68a40.37,40.37,0,0,1-2-7.25c-.72-3.5-1.4-6.81-3.37-9.22a2.86,2.86,0,0,1,4.42-3.62c2.87,3.5,3.72,7.67,4.55,11.7a35.9,35.9,0,0,0,1.65,6.24c.83,2,2.77,3.73,4.83,5.53a29,29,0,0,1,4.9,5c3,4.37,2.32,10.22,1.73,14.92-.09.78-.19,1.52-.26,2.23a20.66,20.66,0,0,0,.59,3.09c.93,3.89,2.32,9.78-2.21,11.73A4.44,4.44,0,0,1,1272.85,1157.38Z"/><path class="cls-18" d="M1405.43,1151.43c1.81,3.16,5.18,5.92,7.19,8.7,1.41,1.94-.38,4.24-1.1,6-1.53,3.88,1.3,11.44-5.89,10.72-1.79-.18-2.89-2.39-3.1-4-.4-3.16,0-6.22-.23-9.34-.18-2.76-1.48-5.12-1.2-7.94C1401.36,1153,1403.56,1148.17,1405.43,1151.43Z"/><path d="M1406.51,1179.79c-.37,0-.76,0-1.16-.06-3.21-.32-5.27-3.48-5.65-6.44a39.12,39.12,0,0,1-.2-5.77c0-1.25,0-2.49,0-3.74a15.93,15.93,0,0,0-.54-2.81,15.58,15.58,0,0,1-.65-5.61c.17-1.77,1.47-7,5-7.79.7-.13,3-.39,4.64,2.44a27.35,27.35,0,0,0,3.8,4.69,45.14,45.14,0,0,1,3.23,3.75c2.11,2.93.55,6.08-.29,7.77-.18.35-.35.69-.48,1a12.31,12.31,0,0,0-.39,3.27c-.11,2.55-.24,5.72-2.54,7.72A7,7,0,0,1,1406.51,1179.79Zm-2.31-25a5.92,5.92,0,0,0-.26,1.19,10.6,10.6,0,0,0,.51,3.65,20.34,20.34,0,0,1,.7,3.82c.09,1.41.08,2.8.06,4.2a33.76,33.76,0,0,0,.16,5,2.72,2.72,0,0,0,.72,1.54,2.58,2.58,0,0,0,1.4-.19c.45-.39.53-2.43.58-3.64a15.72,15.72,0,0,1,.8-5.15c.18-.46.41-.94.66-1.44a6.78,6.78,0,0,0,.76-1.94c-.71-1-1.71-2-2.76-3.15A49.16,49.16,0,0,1,1404.2,1154.74Z"/><path class="cls-19" d="M1338.46,1081.4c2.74,5.82-1.9,8.59-5.49,4.2-2.2-2.69.15-8.82,4.16-6.74C1338.15,1079.39,1338,1080.53,1338.46,1081.4Z"/><path d="M1336.64,1090.61a7.69,7.69,0,0,1-5.88-3.2c-2.33-2.85-1.67-7.2.27-9.59a5.79,5.79,0,0,1,7.42-1.49,5,5,0,0,1,2.48,3.48c0,.13.06.26.11.39,2.17,4.6.81,8.13-1.5,9.59A5.4,5.4,0,0,1,1336.64,1090.61Zm-1.17-9.11a1.6,1.6,0,0,0-.43.9,1.88,1.88,0,0,0,.14,1.39,2.85,2.85,0,0,0,1.44,1.11c-.16-.08-.09-.88-.75-2.28h0A7.47,7.47,0,0,1,1335.47,1081.5Z"/><path class="cls-19" d="M1292.74,1027.58c.66,1.75-2.35,3.93-3.29,5.5-2.59,4.28-3.77,10.57-4.71,15.49-.36,1.88-1.66,4.88-4.07,4.08-1.83-.6-1.33-4-1-5.41,1.47-5.42,4.13-12.2,7.5-16.71C1288.23,1029.15,1292,1025.69,1292.74,1027.58Z"/><path d="M1281.44,1055.64a5.34,5.34,0,0,1-1.66-.27c-3.54-1.17-3.73-5.52-2.82-8.88.7-2.58,3.34-11.47,8-17.67,0-.06,4-5.07,7.57-4.61a3.66,3.66,0,0,1,2.92,2.35h0c1.07,2.83-1.09,5.21-2.52,6.79a8.77,8.77,0,0,0-1,1.19c-2.27,3.78-3.4,9.61-4.3,14.3-.24,1.24-1,4.59-3.6,6.09A5,5,0,0,1,1281.44,1055.64Z"/><path d="M1341.81,683.05a2.86,2.86,0,0,1-1.1-5.5,90.61,90.61,0,0,1,27.94-6.52,2.85,2.85,0,1,1,.45,5.69,85.09,85.09,0,0,0-26.2,6.11A2.83,2.83,0,0,1,1341.81,683.05Z"/><path d="M1264.49,845h-.07a2.86,2.86,0,0,1-2.79-2.93c.66-28.2,12.49-81.25,21.36-103.29,5.44-13.52,10.85-23.22,17.57-31.44a2.85,2.85,0,1,1,4.42,3.61c-6.33,7.76-11.48,17-16.69,30-8.7,21.62-20.31,73.64-21,101.3A2.86,2.86,0,0,1,1264.49,845Z"/><path d="M1289,846.29a2.87,2.87,0,0,1-2.85-2.7c-1.23-22.63-4.52-82.73,11.11-131.73a2.86,2.86,0,0,1,5.44,1.74c-15.31,48-12.06,107.34-10.84,129.68a2.86,2.86,0,0,1-2.7,3Z"/><path d="M1291.9,752.19a2.86,2.86,0,0,1-2.63-4c2.34-5.64,8.19-13.52,15.64-21.08a2.86,2.86,0,0,1,4.07,4c-8.2,8.31-12.83,15.4-14.43,19.26A2.86,2.86,0,0,1,1291.9,752.19Z"/><path d="M1337.19,709.57a2.86,2.86,0,0,1-1.31-5.4,85.19,85.19,0,0,1,26.83-8.81,2.86,2.86,0,0,1,.79,5.66,79.17,79.17,0,0,0-25,8.23A2.8,2.8,0,0,1,1337.19,709.57Z"/><path d="M1299.56,823.77a2.85,2.85,0,0,1-2.84-2.67c-1-15.16-1-70-.62-82.11a2.79,2.79,0,0,1,2.94-2.76,2.84,2.84,0,0,1,2.77,2.93c-.4,13.62-.32,67.32.61,81.56a2.86,2.86,0,0,1-2.67,3Z"/><path d="M1506.36,845.7a2.86,2.86,0,0,1-2.86-2.79c-.66-28.38-7-75.22-16.5-104.48-4.89-15.08-7.73-20.34-11.66-27.61-.84-1.56-1.73-3.2-2.69-5a2.86,2.86,0,0,1,5.06-2.65c1,1.82,1.83,3.44,2.66,5,4.07,7.54,7,13,12.06,28.57,9.65,29.76,16.11,77.32,16.78,106.1a2.86,2.86,0,0,1-2.79,2.93Z"/><path d="M1479.67,844h-.16a2.87,2.87,0,0,1-2.7-3c2-36.56,3.85-89.24-3.18-124.4a2.86,2.86,0,0,1,5.6-1.12c7.16,35.8,5.3,89,3.29,125.83A2.85,2.85,0,0,1,1479.67,844Z"/><path d="M1478.33,740.08a2.85,2.85,0,0,1-1.43-.39,59.92,59.92,0,0,1-7.57-5.47,2.86,2.86,0,0,1,3.67-4.38,52.85,52.85,0,0,0,6.77,4.91,2.86,2.86,0,0,1-1.44,5.33Z"/><path d="M1469.41,823.94h-.18a2.85,2.85,0,0,1-2.67-3c1-14.53.61-76.76.25-88.78a2.85,2.85,0,0,1,2.77-2.94,2.75,2.75,0,0,1,2.94,2.77c.36,12.41.72,74.28-.26,89.32A2.85,2.85,0,0,1,1469.41,823.94Z"/><path d="M1478.92,825.28h0l-190.34-.11a2.86,2.86,0,1,1,0-5.71l190.34.1a2.86,2.86,0,0,1,0,5.72Z"/><path d="M1657,846.54H1126.8a2.85,2.85,0,0,1-.46-5.67l22-3.6-5.15-12.14a2.84,2.84,0,0,1,2.58-4l117.74-1.7a2.86,2.86,0,1,1,0,5.71h-5.22l-108.19,1.63,4.92,11.58a2.88,2.88,0,0,1-.11,2.45h479.6l-6.36-1.64a2.81,2.81,0,0,1-1.87-1.57,2.88,2.88,0,0,1,0-2.45l4.75-9.74-123.62-.26a2.86,2.86,0,1,1,0-5.71h9.3l118.9.27a2.87,2.87,0,0,1,2.56,4.11l-5.22,10.7,24.74,6.38a2.86,2.86,0,0,1-.72,5.62Z"/><path d="M1420,1382.72c-73.28,0-156-3.36-198.07-8-17.58-1.94-35.59-2.65-51.48-3.28-27.64-1.09-41.11-1.81-45.16-6.23a5,5,0,0,1-1.36-3.63c.06-1.13.23-3.35.48-6.63,5.57-72.25,6.63-148.39,3.13-226.31-5.16-115.16-3.63-283.05-3.61-284.73a2.92,2.92,0,0,1,2.88-2.83,2.84,2.84,0,0,1,2.83,2.88c0,1.68-1.55,169.42,3.61,284.43,3.5,78.14,2.44,154.52-3.15,227-.22,2.89-.38,4.94-.44,6.12,3,2.72,23.17,3.52,41,4.23,16,.63,34.09,1.35,51.88,3.31,71.25,7.84,259.59,12,319.42,2.36,22.81-3.69,49.57-4.93,73.19-6,20.09-.93,42.79-2,46.75-4.61l-.13-1.19c-5.72-49.13-8.41-121-7.56-202.48,1.17-113.78.23-311.18.22-313.16a2.86,2.86,0,0,1,2.84-2.87h0a2.85,2.85,0,0,1,2.85,2.84c0,2,1,199.43-.22,313.25-.85,81.21,1.83,152.86,7.52,201.76l.22,1.91a4.42,4.42,0,0,1-1.11,3.41c-3.84,4.47-19.31,5.37-51.14,6.85-23.46,1.08-50,2.3-72.53,5.94C1518.08,1381.07,1471.35,1382.72,1420,1382.72Zm242-21.27h0Z"/><path d="M1314.49,734.52c-11.25,0-12.39-13.67-13.6-28.12-.2-2.41-.41-4.91-.67-7.44a406.25,406.25,0,0,1-2-47.51c.06-5.78-.29-11.34-.62-16.72-.6-9.89-1.18-19.24.6-29.23,1.69-9.59,7.48-26.35,11.7-38.58,1.23-3.53,2.33-6.72,3.18-9.31a2.86,2.86,0,0,1,5.42,1.8c-.86,2.6-2,5.82-3.2,9.38-4.16,12.05-9.86,28.55-11.48,37.71s-1.1,18.33-.51,27.88c.33,5.48.68,11.14.63,17.12a397.29,397.29,0,0,0,2,46.89c.25,2.57.47,5.09.67,7.53,1.35,16.11,2.6,23,8.31,22.88,6.58-.3,15-10.91,17.44-17.91,5-14.18,5.64-25,6.35-36.4.21-3.52.43-7,.78-10.64C1340.79,650,1356.79,630,1363.6,622a2.86,2.86,0,0,1,4.34,3.72c-5,5.88-21.58,26-22.8,38.66-.34,3.54-.55,7-.76,10.44-.7,11.31-1.43,23-6.66,37.94-2.65,7.55-12.45,21.26-22.57,21.73Z"/><path d="M1386.74,599.43a2.85,2.85,0,0,1-2.44-4.32c9.13-15.28,14.49-30.4,15.09-42.57a2.85,2.85,0,0,1,5.7.28c-.64,13.09-6.29,29.15-15.89,45.22A2.85,2.85,0,0,1,1386.74,599.43Z"/><path d="M1289.71,732.32a2.85,2.85,0,0,1-2.8-2.35c-2.46-13.78-2.47-28.84-2.47-43.4,0-3.69,0-7.37,0-11-.1-8.77-.46-16.48-.8-23.93-.65-14-1.21-26.16.49-38.22s10-43.23,20.56-68.33a323.34,323.34,0,0,0,13.94-40.24,2.85,2.85,0,0,1,5.5,1.53,329.53,329.53,0,0,1-14.18,40.93c-10,23.73-18.48,55-20.17,66.9-1.62,11.54-1.07,23.41-.44,37.16.33,7.16.71,15.26.81,24.13,0,3.66,0,7.36,0,11.07,0,14.32,0,29.11,2.38,42.4a2.86,2.86,0,0,1-2.31,3.31A2.92,2.92,0,0,1,1289.71,732.32Z"/><path d="M1329.79,783.74a29,29,0,0,1-10.94-2.12c-9.44-3.83-17-12.54-22.53-25.9a2.86,2.86,0,1,1,5.28-2.18c4.9,11.89,11.42,19.55,19.4,22.78a24.18,24.18,0,0,0,18.06-.07c8.86-3.87,12.58-12.63,16.89-22.77.76-1.8,1.54-3.63,2.36-5.45,4.84-10.8,5.4-25.87,1.09-29.33-2.83-2.27-8.33,1.15-11.36,3.41-8.4,6.23-18.22,20.18-23.19,30.12a2.86,2.86,0,1,1-5.11-2.55c4.37-8.74,14.61-24.52,24.9-32.16,9.62-7.15,15.29-5.73,18.34-3.28,7.92,6.37,5.35,25.4.54,36.13-.8,1.78-1.56,3.57-2.31,5.35-4.59,10.79-8.92,21-19.87,25.76A30.08,30.08,0,0,1,1329.79,783.74Z"/><path d="M1380.56,753.59a37.87,37.87,0,0,1-4-.22l-.77-.08c-5.2-.54-10.57-1.1-14.81-5.32a2.86,2.86,0,0,1,4-4.05c2.81,2.8,6.78,3.21,11.38,3.69l.78.09c18.15,1.91,22.29-11.07,26.18-29.64.49-2.33,1-4.59,1.48-6.67,3.92-15.8,5.35-35.17,3.73-50.53-1.24-11.78-6.11-26.9-12.33-45.45-3.29-9.81-9.59-16.84-15-16.84h-.2c-3.94.12-7.21,4.31-9.2,11.78-2.85,10.76-1.16,28.74,0,40.65.42,4.48.75,8,.79,10.42.31,19.55-4.78,35-12,54.71a2.85,2.85,0,1,1-5.36-2c7-19.13,11.93-34.1,11.64-52.66,0-2.17-.37-5.79-.77-10-1.16-12.31-2.92-30.91.21-42.66,3.62-13.65,10.66-15.9,14.52-16,8.15-.41,16.59,8.06,20.84,20.72,6.34,18.89,11.3,34.32,12.6,46.67a160.52,160.52,0,0,1-3.86,52.5c-.5,2-1,4.21-1.44,6.48C1405.85,733.87,1401.71,753.59,1380.56,753.59Z"/><path d="M1408.54,750.25a23.1,23.1,0,0,1-11.78-2.77,2.86,2.86,0,0,1,3-4.88c4,2.45,13,2.89,21-.59a23.77,23.77,0,0,0,14.3-17.63c2.69-13.14,5.54-34.72,4.75-52.32l-.14-3.22c-.75-17-1.12-25.56-6-39.5l-.42-1.2c-4.68-13.29-10-28.32-17.48-28.32h-.28a7,7,0,0,0-5.34,3.11c-4.21,5.58-5.1,17.12-2.26,29.4a2.86,2.86,0,0,1-5.57,1.29c-3.25-14.08-2-27.16,3.28-34.14a12.66,12.66,0,0,1,9.61-5.37c11.95-.59,17.76,16,23.43,32.12l.42,1.2c5.2,14.74,5.59,23.57,6.36,41.15l.14,3.22c.81,18.11-2.11,40.26-4.86,53.72A29.59,29.59,0,0,1,1423,747.24,36.93,36.93,0,0,1,1408.54,750.25Z"/><path d="M1445.43,747.6c-6.83,0-12.27-2.71-15-7.62a2.86,2.86,0,0,1,5-2.74c2,3.68,7,5.32,13.21,4.4,8.5-1.24,18.13-7.29,20.09-16.46,4.83-22.55,2.39-46.16-6.69-64.77-2.73-5.6-5.88-8.56-9-8.31-3.57.29-7,4.64-8.19,8.68a2.85,2.85,0,1,1-5.46-1.65c1.73-5.75,6.6-12.19,13.19-12.72,3.89-.32,9.64,1.42,14.56,11.5,9.63,19.73,12.23,44.69,7.14,68.47-2.63,12.26-14.73,19.44-24.86,20.91A27.81,27.81,0,0,1,1445.43,747.6Z"/><path d="M1466.8,664.44a3,3,0,0,1-.52,0,2.85,2.85,0,0,1-2.29-3.32c1.87-10.28,2-45.93-6-85.59-1.71-8.4-3.66-16.43-5.72-24.93-2.33-9.64-4.75-19.61-6.78-30.14a2.86,2.86,0,0,1,5.61-1.08c2,10.39,4.41,20.3,6.73,29.88,2,8.18,4,16.63,5.75,25.13,8.22,40.43,8,77.1,6,87.75A2.85,2.85,0,0,1,1466.8,664.44Z"/><path d="M1347.14,1293.12c-48.13,0-95.29-1.29-132.8-4.6a2.86,2.86,0,0,1,.5-5.69c130.88,11.56,357.53-1.12,371.86-6.85a2.85,2.85,0,1,1,2.12,5.3C1576.8,1286.09,1459.38,1293.12,1347.14,1293.12Z"/><path d="M1308.84,540.91a2.81,2.81,0,0,1-1.78-.63c-14.2-11.39-17.07-20.22-11.88-64.89,2-17.07.32-22.7-2-30.49-2.27-7.6-5.08-17.06-5.83-39.49-1.89-56.72,8-237.5,8.09-239.32a2.86,2.86,0,0,1,5.71.32c-.1,1.81-10,182.34-8.09,238.81.72,21.7,3.42,30.76,5.59,38,2.42,8.12,4.33,14.54,2.21,32.78-5.28,45.33-1.85,50.45,9.77,59.78a2.85,2.85,0,0,1-1.79,5.08Z"/><path d="M1459.11,529.92a2.85,2.85,0,0,1-1.91-.72c-24.12-21.64-66.91-35.44-101.68-32.84-18.6,1.4-32.74,7.36-40.91,17.25a2.85,2.85,0,1,1-4.4-3.63c9.17-11.12,24.69-17.8,44.88-19.31,36.19-2.71,80.75,11.7,105.93,34.27a2.85,2.85,0,0,1-1.91,5Z"/><path d="M1458.67,545.36c-.61,0-1.24,0-1.87-.08a2.85,2.85,0,1,1,.46-5.69c4,.32,7.21-.71,9.69-3.16,9.22-9.1,7.48-35.2,6.32-52.48-.33-5-.62-9.32-.62-12.63,0-15.72,2.32-22.71,5.53-32.4a214.19,214.19,0,0,0,8-30.29c9.65-50.47,14.7-176.59,11.92-240.59a2.85,2.85,0,0,1,2.73-3,3,3,0,0,1,3,2.73c2.8,64.3-2.29,191.09-12,241.91a220,220,0,0,1-8.15,31c-3.15,9.52-5.24,15.8-5.24,30.6,0,3.12.29,7.35.61,12.25,1.3,19.41,3.07,46-8,56.92A16.85,16.85,0,0,1,1458.67,545.36Z"/></g></svg>