<?xml version="1.0" encoding="utf-8"?>
<!-- Generator: Adobe Illustrator 23.0.1, SVG Export Plug-In . SVG Version: 6.00 Build 0)  -->
<svg version="1.1" xmlns="http://www.w3.org/2000/svg" xmlns:xlink="http://www.w3.org/1999/xlink" x="0px" y="0px"
	 viewBox="0 0 500 500" style="enable-background:new 0 0 500 500;" xml:space="preserve">
<style type="text/css">
	.st0{fill:#E0E0E0;}
	.st1{fill:#EBEBEB;}
	.st2{fill:#FFFFFF;}
	.st3{fill:#F5F5F5;}
	.st4{display:none;}
	.st5{display:inline;fill:#EBEBEB;}
	.st6{fill:#263238;}
	.st7{fill:#5A22C3;}
	.st8{fill:#FFBE9D;}
	.st9{fill:#EB996E;}
	.st10{fill:#455A64;}
	.st11{fill:#E8505B;}
	.st12{fill:#D1C3FC;}
	.st13{opacity:0.4;}
	.st14{fill:#FAFAFA;}
</style>
<g id="Background_Complete">
	<g>
		<circle class="st0" cx="77.7" cy="346" r="15.3"/>
		
			<ellipse transform="matrix(0.7071 -0.7071 0.7071 0.7071 -212.9377 177.3262)" class="st1" cx="107.6" cy="345.7" rx="15.3" ry="15.3"/>
		
			<ellipse transform="matrix(0.7071 -0.7071 0.7071 0.7071 -230.4345 135.0852)" class="st1" cx="47.8" cy="345.7" rx="15.3" ry="15.3"/>
		<path class="st0" d="M27.5,349h100c0,0-1,41.2-27.9,46.3l-0.4,8.8h-45v-8.9C54.2,395.1,27.5,388.3,27.5,349z"/>
		<g>
			<path class="st2" d="M99.6,395.3c0,0.1-10.2,0.3-22.8,0.3c-12.6,0-22.8-0.1-22.8-0.3s10.2-0.3,22.8-0.3
				C89.4,395,99.6,395.1,99.6,395.3z"/>
		</g>
		<g>
			<path class="st2" d="M123.6,370.2c0,0-0.2,0-0.6,0.1c-0.4,0-1.1,0.1-1.9,0.2c-1.6,0.1-4.1,0.3-7.3-0.4c-1.5-0.3-3.3-0.9-4.9-2
				c-1.6-1.1-3.2-2.6-4.1-4.7c-0.5-1-0.7-2.2-0.7-3.4c0.1-1.2,0.4-2.5,1.3-3.5c0.4-0.5,0.9-1,1.6-1.2c0.6-0.3,1.3-0.4,2-0.3
				c1.4,0.2,2.6,1.2,3.3,2.5c0.7,1.3,0.8,2.9,0.6,4.3c-0.3,1.5-0.9,2.9-1.7,4.2c-1.7,2.6-4.3,4.8-7.4,6c-3.2,1.2-6.9,1.2-10.2-0.1
				c-1.7-0.6-3.3-1.6-4.6-2.8c-1.3-1.3-2.6-2.7-3.2-4.6c-0.3-0.9-0.3-2,0-2.9c0.3-0.9,0.9-1.8,1.8-2.3c1.9-1,4.2-0.2,5.6,1.3
				c1.4,1.5,2,3.5,2.3,5.5c0.3,2,0.2,4.1-0.2,6.1c-0.8,4-3.1,7.9-6.5,10.5c-1.7,1.3-3.7,2.3-5.7,2.8c-2.1,0.5-4.3,0.7-6.5,0.4
				c-4.3-0.5-8.5-2.5-11.2-5.8c-1.4-1.6-2.4-3.6-2.8-5.7c-0.4-2.1,0.1-4.3,1.3-6c1.2-1.7,3.1-3,5.3-2.9c2.1,0.1,4.1,1.4,4.9,3.3
				c0.4,0.9,0.5,2,0.2,3c-0.3,1-0.9,1.8-1.6,2.5c-1.4,1.4-3.3,2.2-5.1,2.7c-7.3,2-15.1-0.2-19.9-5c-1.2-1.2-2.1-2.6-2.7-4.1
				c-0.6-1.5-0.7-3.2-0.3-4.8c0.4-1.5,1.2-2.9,2.5-3.9c1.2-0.9,2.8-1.2,4.2-1c1.4,0.2,2.8,0.9,3.6,2c0.9,1.1,1.3,2.4,1.4,3.7
				c0,1.3-0.4,2.6-1.2,3.6c-0.7,1-1.7,1.7-2.6,2.3c-1.9,1.2-4,1.7-5.9,2.2c-1.9,0.5-3.6,0.7-5.2,0.9c-3.2,0.3-5.6,0.1-7.3,0
				c-1.7-0.2-2.5-0.4-2.5-0.4s0.2,0,0.6,0.1c0.4,0.1,1.1,0.1,1.9,0.2c1.7,0.1,4.1,0.3,7.2-0.1c1.6-0.2,3.3-0.4,5.2-0.9
				c1.8-0.5,3.9-1,5.8-2.2c0.9-0.6,1.8-1.3,2.5-2.3c0.7-0.9,1.1-2.1,1.1-3.4c0-1.2-0.5-2.5-1.3-3.5c-0.8-1-2.1-1.7-3.4-1.9
				c-1.3-0.2-2.8,0.1-4,1c-1.2,0.8-1.9,2.2-2.3,3.6c-0.4,1.5-0.3,3,0.3,4.5c0.5,1.5,1.5,2.8,2.6,4c4.7,4.6,12.3,6.8,19.5,4.8
				c1.8-0.5,3.5-1.3,4.9-2.6c0.7-0.6,1.2-1.4,1.4-2.3c0.2-0.9,0.2-1.8-0.2-2.7c-0.8-1.7-2.6-2.9-4.5-3c-0.9-0.1-1.9,0.2-2.7,0.7
				c-0.8,0.5-1.6,1.2-2.1,2c-1.1,1.6-1.5,3.7-1.2,5.7c0.3,2,1.3,3.9,2.6,5.4c2.7,3.2,6.7,5.2,10.9,5.6c2.1,0.2,4.2,0.1,6.3-0.4
				c2-0.5,3.9-1.5,5.6-2.7c3.3-2.5,5.5-6.3,6.3-10.2c0.4-2,0.5-4,0.2-5.9c-0.3-1.9-0.9-3.9-2.2-5.2c-1.2-1.4-3.4-2-5-1.2
				c-0.8,0.4-1.3,1.2-1.6,2c-0.3,0.9-0.3,1.8,0,2.6c0.5,1.7,1.7,3.2,3,4.4c1.3,1.2,2.9,2.1,4.5,2.7c3.3,1.3,6.8,1.3,9.9,0.1
				c3.1-1.1,5.6-3.3,7.3-5.8c0.8-1.3,1.4-2.7,1.7-4.1c0.3-1.4,0.1-2.9-0.5-4.1c-0.7-1.2-1.8-2.1-3.1-2.3c-0.6-0.1-1.3,0-1.8,0.2
				c-0.6,0.3-1.1,0.7-1.4,1.1c-0.8,1-1.2,2.2-1.2,3.3c0,1.2,0.2,2.3,0.7,3.3c0.9,2,2.4,3.5,4,4.6c1.6,1,3.3,1.6,4.8,2
				c3.1,0.7,5.6,0.5,7.2,0.4c0.8,0,1.4-0.1,1.9-0.1C123.4,370.2,123.6,370.2,123.6,370.2z"/>
		</g>
	</g>
	<g>
		<g>
			<g>
				<path class="st1" d="M424.4,172.5c-0.4,1.3-7.1,11.8-16.7,15.4c-9.6,3.6-16.8,7.5-14.1,12.2c2.7,4.7,14.5,2.1,14.5,2.1
					s-23.9,26-1.4,40.9c27.5,18.1,56.2-46.8,56.2-46.8L424.4,172.5z"/>
				<g>
					<path class="st0" d="M458.4,205.3c-0.1,0.1-9.1-5.3-20.2-12.1c-11.1-6.8-20-12.4-20-12.5c0.1-0.1,9.1,5.3,20.2,12.1
						C449.6,199.6,458.5,205.2,458.4,205.3z"/>
				</g>
				<g>
					<path class="st0" d="M454.2,213.1c-0.1,0.1-9.9-5.6-21.9-12.8c-12-7.2-21.7-13.2-21.6-13.3c0.1-0.1,9.9,5.6,21.9,12.8
						C444.6,207,454.3,213,454.2,213.1z"/>
				</g>
				<g>
					<path class="st0" d="M449.1,220.5c-0.1,0.1-11.1-6.3-24.6-14.4c-13.5-8.1-24.4-14.8-24.3-14.9c0.1-0.1,11.1,6.3,24.6,14.4
						C438.3,213.7,449.1,220.3,449.1,220.5z"/>
				</g>
				<g>
					<path class="st0" d="M442.6,229.6c-0.1,0.1-8.6-5.1-19-11.6c-10.4-6.5-18.8-11.9-18.8-12c0.1-0.1,8.6,5.1,19,11.6
						C434.3,224.1,442.7,229.5,442.6,229.6z"/>
				</g>
				<g>
					<path class="st0" d="M435.1,238.4c-0.1,0.1-8-5-17.7-11.4c-9.7-6.4-17.5-11.7-17.4-11.9c0.1-0.1,8,5,17.7,11.4
						C427.4,233,435.2,238.3,435.1,238.4z"/>
				</g>
				<g>
					<path class="st0" d="M425.5,244.5c0,0-0.4-0.2-1.2-0.6c-0.8-0.4-1.8-1-3.2-1.7c-2.7-1.5-6.3-3.6-10.2-6.2
						c-3.9-2.5-7.4-4.9-9.9-6.7c-1.2-0.9-2.2-1.6-2.9-2.2c-0.7-0.5-1-0.8-1-0.9c0,0,0.4,0.2,1.1,0.7c0.8,0.5,1.8,1.2,3,2
						c2.5,1.7,6,4.1,9.9,6.6c3.9,2.5,7.5,4.7,10.1,6.3c1.2,0.7,2.3,1.4,3.1,1.9C425.1,244.2,425.5,244.5,425.5,244.5z"/>
				</g>
				<g>
					<path class="st0" d="M402.9,202.9c0,0.1-2.6-0.7-5.3-2.4c-2.8-1.7-4.6-3.7-4.5-3.8c0.1-0.1,2,1.6,4.7,3.3
						C400.6,201.7,403,202.7,402.9,202.9z"/>
				</g>
				<g>
					<path class="st0" d="M461.2,195c0,0-0.1,0.2-0.3,0.6c-0.3,0.4-0.6,0.9-1.1,1.6c-0.9,1.3-2.3,3.3-4,5.6
						c-3.5,4.7-8.3,11.2-13.9,18.2c-5.6,7-10.8,13.2-14.6,17.6c-1.9,2.2-3.5,4-4.6,5.2c-0.5,0.6-0.9,1-1.3,1.4
						c-0.3,0.3-0.5,0.5-0.5,0.5c0,0,0.1-0.2,0.4-0.5c0.3-0.4,0.7-0.9,1.2-1.5c1.1-1.3,2.6-3.1,4.5-5.3c3.8-4.5,8.9-10.7,14.5-17.7
						c5.6-7,10.5-13.4,14-18.1c1.7-2.3,3.1-4.2,4.2-5.5c0.5-0.6,0.9-1.1,1.1-1.5C461,195.2,461.2,195,461.2,195z"/>
				</g>
				<g>
					<path class="st0" d="M453.4,189.5c0.1,0.1-9.4,12.5-21.3,27.8c-11.9,15.3-21.6,27.6-21.7,27.5c-0.1-0.1,9.4-12.5,21.3-27.8
						C443.5,201.7,453.3,189.4,453.4,189.5z"/>
				</g>
				<g>
					<path class="st0" d="M442.5,183.3c0,0-0.1,0.2-0.3,0.6c-0.2,0.4-0.6,1-1,1.7c-0.9,1.5-2.2,3.6-3.8,6.2
						c-3.3,5.2-8.3,12.1-14.2,19.4c-5.8,7.3-11.4,13.8-15.4,18.5c-2,2.3-3.6,4.2-4.8,5.5c-0.5,0.6-1,1.1-1.3,1.5
						c-0.3,0.3-0.5,0.5-0.5,0.5c0,0,0.1-0.2,0.4-0.6c0.3-0.4,0.7-0.9,1.2-1.5c1.1-1.4,2.7-3.3,4.6-5.6c3.9-4.7,9.4-11.2,15.2-18.6
						c5.8-7.3,10.8-14.2,14.3-19.3c1.7-2.5,3.1-4.6,4-6.1c0.4-0.7,0.8-1.2,1.1-1.7C442.4,183.5,442.5,183.3,442.5,183.3z"/>
				</g>
				<g>
					<path class="st0" d="M433.6,178.2c0.1,0.1-8,10.9-18.2,24.1c-10.2,13.2-18.5,23.8-18.6,23.7c-0.1-0.1,8-10.9,18.2-24.1
						C425.2,188.7,433.5,178.1,433.6,178.2z"/>
				</g>
				<g>
					<path class="st0" d="M426.9,173.8c0,0-0.3,0.5-0.9,1.4c-0.3,0.5-0.6,1-1.1,1.6c-0.5,0.6-0.9,1.3-1.6,2.1
						c-1.2,1.5-2.7,3.2-4.5,5c-1.8,1.8-3.9,3.6-6.3,5.4c-2.4,1.7-4.8,3.2-7,4.4c-2.3,1.2-4.4,2.1-6.2,2.8c-0.9,0.4-1.7,0.6-2.5,0.9
						c-0.7,0.3-1.4,0.4-1.9,0.6c-1,0.3-1.6,0.4-1.6,0.4c0,0,0.6-0.2,1.6-0.6c0.5-0.2,1.1-0.4,1.8-0.7c0.7-0.3,1.5-0.6,2.4-0.9
						c1.8-0.7,3.8-1.7,6.1-2.9c2.2-1.2,4.6-2.7,6.9-4.4c2.3-1.7,4.5-3.6,6.3-5.3c1.8-1.8,3.4-3.4,4.6-4.9c0.6-0.7,1.1-1.4,1.6-2
						c0.5-0.6,0.9-1.1,1.2-1.6C426.5,174.3,426.9,173.8,426.9,173.8z"/>
				</g>
			</g>
			<rect x="345.7" y="159.5" class="st0" width="127.9" height="13.5"/>
			<g>
				<path class="st3" d="M386.2,172.5c-0.4,1.3-7.1,11.8-16.7,15.4c-9.6,3.6-16.8,7.5-14.1,12.2c2.7,4.7,14.5,2.1,14.5,2.1
					s-23.9,26-1.4,40.9c27.5,18.1,56.2-46.8,56.2-46.8L386.2,172.5z"/>
				<g>
					<path class="st0" d="M420.2,205.3c-0.1,0.1-9.1-5.3-20.2-12.1c-11.1-6.8-20-12.4-20-12.5c0.1-0.1,9.1,5.3,20.2,12.1
						C411.4,199.6,420.3,205.2,420.2,205.3z"/>
				</g>
				<g>
					<path class="st0" d="M416,213.1c-0.1,0.1-9.9-5.6-21.9-12.8c-12-7.2-21.7-13.2-21.6-13.3c0.1-0.1,9.9,5.6,21.9,12.8
						C406.4,207,416,213,416,213.1z"/>
				</g>
				<g>
					<path class="st0" d="M410.8,220.5c-0.1,0.1-11.1-6.3-24.6-14.4c-13.5-8.1-24.4-14.8-24.3-14.9c0.1-0.1,11.1,6.3,24.6,14.4
						C400,213.7,410.9,220.3,410.8,220.5z"/>
				</g>
				<g>
					<path class="st0" d="M404.4,229.6c-0.1,0.1-8.6-5.1-19-11.6c-10.4-6.5-18.8-11.9-18.8-12c0.1-0.1,8.6,5.1,19,11.6
						C396.1,224.1,404.5,229.5,404.4,229.6z"/>
				</g>
				<g>
					<path class="st0" d="M396.9,238.4c-0.1,0.1-8-5-17.7-11.4c-9.7-6.4-17.5-11.7-17.4-11.9c0.1-0.1,8,5,17.7,11.4
						C389.2,233,397,238.3,396.9,238.4z"/>
				</g>
				<g>
					<path class="st0" d="M387.3,244.5c0,0-0.4-0.2-1.2-0.6c-0.8-0.4-1.8-1-3.2-1.7c-2.7-1.5-6.3-3.6-10.2-6.2
						c-3.9-2.5-7.4-4.9-9.9-6.7c-1.2-0.9-2.2-1.6-2.9-2.2c-0.7-0.5-1-0.8-1-0.9c0,0,0.4,0.2,1.1,0.7c0.8,0.5,1.8,1.2,3,2
						c2.5,1.7,6,4.1,9.9,6.6c3.9,2.5,7.5,4.7,10.1,6.3c1.2,0.7,2.3,1.4,3.1,1.9C386.9,244.2,387.3,244.5,387.3,244.5z"/>
				</g>
				<g>
					<path class="st0" d="M364.7,202.9c0,0.1-2.6-0.7-5.3-2.4c-2.8-1.7-4.6-3.7-4.5-3.8c0.1-0.1,2,1.6,4.7,3.3
						C362.4,201.7,364.8,202.7,364.7,202.9z"/>
				</g>
				<g>
					<path class="st0" d="M423,195c0,0-0.1,0.2-0.3,0.6c-0.3,0.4-0.6,0.9-1.1,1.6c-0.9,1.3-2.3,3.3-4,5.6
						c-3.5,4.7-8.3,11.2-13.9,18.2c-5.6,7-10.8,13.2-14.6,17.6c-1.9,2.2-3.5,4-4.6,5.2c-0.5,0.6-0.9,1-1.3,1.4
						c-0.3,0.3-0.5,0.5-0.5,0.5c0,0,0.1-0.2,0.4-0.5c0.3-0.4,0.7-0.9,1.2-1.5c1.1-1.3,2.6-3.1,4.5-5.3c3.8-4.5,8.9-10.7,14.5-17.7
						c5.6-7,10.5-13.4,14-18.1c1.7-2.3,3.1-4.2,4.2-5.5c0.5-0.6,0.9-1.1,1.1-1.5C422.8,195.2,422.9,195,423,195z"/>
				</g>
				<g>
					<path class="st0" d="M415.2,189.5c0.1,0.1-9.4,12.5-21.3,27.8c-11.9,15.3-21.6,27.6-21.7,27.5c-0.1-0.1,9.4-12.5,21.3-27.8
						C405.3,201.7,415.1,189.4,415.2,189.5z"/>
				</g>
				<g>
					<path class="st0" d="M404.3,183.3c0,0-0.1,0.2-0.3,0.6c-0.2,0.4-0.6,1-1,1.7c-0.9,1.5-2.2,3.6-3.8,6.2
						c-3.3,5.2-8.3,12.1-14.2,19.4c-5.8,7.3-11.4,13.8-15.4,18.5c-2,2.3-3.6,4.2-4.8,5.5c-0.5,0.6-1,1.1-1.3,1.5
						c-0.3,0.3-0.5,0.5-0.5,0.5c0,0,0.1-0.2,0.4-0.6c0.3-0.4,0.7-0.9,1.2-1.5c1.1-1.4,2.7-3.3,4.6-5.6c3.9-4.7,9.4-11.2,15.2-18.6
						c5.8-7.3,10.8-14.2,14.3-19.3c1.7-2.5,3.1-4.6,4-6.1c0.4-0.7,0.8-1.2,1.1-1.7C404.1,183.5,404.3,183.3,404.3,183.3z"/>
				</g>
				<g>
					<path class="st0" d="M395.4,178.2c0.1,0.1-8,10.9-18.2,24.1c-10.2,13.2-18.5,23.8-18.6,23.7c-0.1-0.1,8-10.9,18.2-24.1
						C386.9,188.7,395.3,178.1,395.4,178.2z"/>
				</g>
				<g>
					<path class="st0" d="M388.7,173.8c0,0-0.3,0.5-0.9,1.4c-0.3,0.5-0.6,1-1.1,1.6c-0.5,0.6-0.9,1.3-1.6,2.1
						c-1.2,1.5-2.7,3.2-4.5,5c-1.8,1.8-3.9,3.6-6.3,5.4c-2.4,1.7-4.8,3.2-7,4.4c-2.3,1.2-4.4,2.1-6.2,2.8c-0.9,0.4-1.7,0.6-2.5,0.9
						c-0.7,0.3-1.4,0.4-1.9,0.6c-1,0.3-1.6,0.4-1.6,0.4c0,0,0.6-0.2,1.6-0.6c0.5-0.2,1.1-0.4,1.8-0.7c0.7-0.3,1.5-0.6,2.4-0.9
						c1.8-0.7,3.8-1.7,6.1-2.9c2.2-1.2,4.6-2.7,6.9-4.4c2.3-1.7,4.5-3.6,6.3-5.3c1.8-1.8,3.4-3.4,4.6-4.9c0.6-0.7,1.1-1.4,1.6-2
						c0.5-0.6,0.9-1.1,1.2-1.6C388.3,174.3,388.6,173.8,388.7,173.8z"/>
				</g>
			</g>
		</g>
		<g>
			<rect x="405.6" y="91.9" class="st0" width="8.2" height="8.2"/>
			<rect x="371.8" y="111" class="st3" width="76.2" height="48.1"/>
			<path class="st3" d="M371.8,111c0,0,11.7-12.2,40.9-11.7S448,111,448,111H371.8z"/>
			<g>
				<path class="st0" d="M447.7,111.8c0,0.1-17.1,0.3-38.3,0.3c-21.1,0-38.3-0.1-38.3-0.3c0-0.1,17.1-0.3,38.3-0.3
					C430.5,111.5,447.7,111.6,447.7,111.8z"/>
			</g>
			<path class="st0" d="M464.9,118.4h-17.2v-6.6h17.2c1.5,0,2.8,1.2,2.8,2.8v1.1C467.7,117.1,466.4,118.4,464.9,118.4z"/>
			<path class="st0" d="M354.8,111.8H372v6.6h-17.2c-1.5,0-2.8-1.2-2.8-2.8v-1.1C352.1,113,353.3,111.8,354.8,111.8z"/>
			<path class="st0" d="M418.2,94.3h-16.7c-1.1,0-2-0.9-2-2v-0.8c0-1.1,0.9-2,2-2h16.7c1.1,0,2,0.9,2,2v0.8
				C420.2,93.4,419.3,94.3,418.2,94.3z"/>
		</g>
	</g>
</g>
<g id="Background_Simple" class="st4">
	<path class="st5" d="M424.2,131.6l-2.4-4c-19.5-31.8-54.7-51-91.9-49.1c-5.2,0.3-10.4,0.9-15.6,2c-34.2,7.2-64.1,32.8-76.4,65.6
		c-7.3,19.3-9.3,41.4-23.1,56.7c-17.9,19.9-48.4,20.5-75.2,19.7c-26.8-0.8-57.3-0.1-75.1,19.9c-11.2,12.5-14.7,30.3-13.8,47.1
		c2.4,44.4,33.7,84,73.5,103.7c39.8,19.7,86.7,21.5,130.3,12.8c61-12.1,119.1-45.5,154-97.1C443.3,257.5,452.1,187.3,424.2,131.6z"
		/>
</g>
<g id="Table">
	<g>
		<path class="st6" d="M470.5,403.8c0,0.1-98.7,0.3-220.5,0.3c-121.8,0-220.5-0.1-220.5-0.3s98.7-0.3,220.5-0.3
			C371.8,403.5,470.5,403.6,470.5,403.8z"/>
	</g>
</g>
<g id="Character">
	<g>
		<path class="st7" d="M323.9,257.6c-0.4,1.7-8.9,79.2-8.9,79.2l-7.7,10.9l-2.1,16.8l16,39.6H202.8c0,0-1.9-20.9-1.7-26.5
			c0.2-5.6,3-26.1,3-26.1l-0.3-20.8l-4.5-90.8l40.1-12.9c24.2-4.2,59.9,14,59.9,14L323.9,257.6z"/>
		<g>
			<path class="st6" d="M308.5,199.8c5.3-0.3,9.3-4.7,12.2-9.1c2.7-4.1,5-8.7,5.1-13.7c0-4.3-1.7-8.4-3.4-12.3
				c-1.7-4.1-3.5-8.2-6.2-11.6c-2.7-3.5-6.5-6.3-10.9-6.8"/>
			<g>
				<g>
					<g>
						<g>
							<g>
								<g>
									<g>
										<g>
											<g>
												<g>
													<g>
														<path class="st8" d="M246.9,220.5l0.1-1.3l3.1-75.6l1.7-4.3l37.8-5.2c12.4-1,23,8.6,23.5,21
															c0.5,13.8,0.5,30.6-1.4,40.8c-3.8,20.5-19.7,22.7-19.7,22.7s-0.3,5.4-0.6,13.1c-0.2,5.9-5.4,22.8-11.3,22.9
															c-2.5,0.1-9.4-2.1-12.7-2.6C246.8,248.9,246.9,220.5,246.9,220.5z"/>
													</g>
												</g>
											</g>
										</g>
									</g>
									<g>
										<g>
											<g>
												<g>
													<g>
														<g>
															<path class="st6" d="M306.1,166.9c0,1.4-1.2,2.6-2.6,2.6c-1.5,0-2.6-1.1-2.7-2.5c0-1.4,1.2-2.6,2.6-2.6
																C304.9,164.4,306.1,165.5,306.1,166.9z"/>
														</g>
													</g>
												</g>
											</g>
										</g>
										<g>
											<g>
												<g>
													<g>
														<g>
															<g>
																<path class="st6" d="M309.2,163.6c-0.3,0.3-2.3-1.2-5.1-1.3c-2.8-0.1-5,1.3-5.3,0.9c-0.1-0.2,0.2-0.8,1.1-1.4
																	c0.9-0.6,2.5-1.2,4.2-1.2c1.8,0.1,3.2,0.8,4.1,1.4C309.1,162.8,309.4,163.4,309.2,163.6z"/>
															</g>
														</g>
													</g>
												</g>
											</g>
										</g>
									</g>
									<g>
										<g>
											<g>
												<g>
													<g>
														<g>
															<path class="st6" d="M278.3,166.7c0,1.4-1.2,2.6-2.6,2.6c-1.5,0-2.6-1.1-2.7-2.5c0-1.4,1.2-2.6,2.6-2.6
																C277.1,164.2,278.2,165.3,278.3,166.7z"/>
														</g>
													</g>
												</g>
											</g>
										</g>
										<g>
											<g>
												<g>
													<g>
														<g>
															<g>
																<path class="st6" d="M281.2,163.3c-0.3,0.3-2.3-1.2-5.1-1.3c-2.8-0.1-5,1.3-5.3,0.9c-0.1-0.2,0.2-0.8,1.1-1.4
																	c0.9-0.6,2.5-1.2,4.2-1.2c1.8,0.1,3.2,0.8,4.1,1.4C281.1,162.6,281.4,163.2,281.2,163.3z"/>
															</g>
														</g>
													</g>
												</g>
											</g>
										</g>
									</g>
									<g>
										<g>
											<g>
												<g>
													<g>
														<g>
															<path class="st6" d="M291,184.7c0-0.2,1.8-0.4,4.6-0.7c0.7-0.1,1.4-0.2,1.6-0.7c0.2-0.5-0.1-1.3-0.4-2.2
																c-0.6-1.8-1.3-3.6-2-5.6c-2.8-8-4.7-14.5-4.4-14.6c0.3-0.1,2.8,6.3,5.6,14.2c0.7,2,1.3,3.8,1.9,5.6
																c0.3,0.8,0.7,1.8,0.3,2.9c-0.2,0.5-0.8,0.9-1.2,1c-0.5,0.1-0.9,0.1-1.2,0.1C292.8,184.9,291,184.9,291,184.7z"/>
														</g>
													</g>
												</g>
											</g>
										</g>
									</g>
									<g>
										<g>
											<g>
												<g>
													<g>
														<path class="st9" d="M292,218.5c0,0-13.9,0.5-27.4-8.1c0,0,6.3,14.4,27,13L292,218.5z"/>
													</g>
												</g>
											</g>
										</g>
									</g>
									<g>
										<g>
											<g>
												<g>
													<g>
														<path class="st9" d="M289.6,191.6c-1-1.4-2.8-2.2-4.5-2c-1.2,0.1-2.5,0.7-3.3,1.6c-0.8,1-1,2.4-0.3,3.4
															c0.7,1.1,2.3,1.4,3.7,1c1.4-0.3,2.6-1.2,3.7-2.1c0.3-0.2,0.6-0.5,0.8-0.8c0.2-0.3,0.3-0.8,0-1.1"/>
													</g>
												</g>
											</g>
										</g>
									</g>
									<g>
										<g>
											<g>
												<g>
													<g>
														<g>
															<path class="st6" d="M282.5,186.5c0.5,0,0.4,3.1,3,5.3c2.6,2.3,5.9,2,5.9,2.4c0,0.2-0.7,0.6-2.1,0.6
																c-1.4,0-3.3-0.5-4.9-1.9c-1.6-1.4-2.2-3.2-2.3-4.5C282,187.2,282.3,186.5,282.5,186.5z"/>
														</g>
													</g>
												</g>
											</g>
										</g>
									</g>
								</g>
							</g>
						</g>
						<g>
							<g>
								<g>
									<g>
										<g>
											<path class="st6" d="M282.3,152.2c-0.3,0.8-3.1,0.3-6.5,0.6c-3.4,0.2-6.1,1.1-6.5,0.4c-0.2-0.3,0.3-1.1,1.4-1.8
												c1.1-0.7,2.8-1.4,4.9-1.5c2-0.2,3.8,0.2,5,0.7C281.8,151.2,282.4,151.9,282.3,152.2z"/>
										</g>
									</g>
								</g>
							</g>
						</g>
						<g>
							<g>
								<g>
									<g>
										<g>
											<path class="st6" d="M308.4,155.3c-0.5,0.6-2.5-0.1-4.8-0.2c-2.4-0.2-4.4,0.3-4.8-0.4c-0.2-0.3,0.1-1,1-1.6
												c0.9-0.6,2.3-1,3.9-1c1.6,0.1,3,0.7,3.8,1.4C308.4,154.3,308.6,155,308.4,155.3z"/>
										</g>
									</g>
								</g>
							</g>
						</g>
					</g>
				</g>
			</g>
			<path class="st6" d="M246.7,166.6c0,0-5.1,2.7-10.4,9.4c-3.3,4.1-5.4,9.4-4.6,14.6c1.1,7.2,7.4,12.3,13.2,16.7
				c3.3,0.5,5.8-3.2,6.4-6.5s0.1-7,1.6-9.9c1.4-2.7,4.2-4.3,6.1-6.7c3.5-4.4,3.2-10.7,2.4-16.3s0-14,7.2-22
				C268.6,146,251.2,152.8,246.7,166.6z"/>
			<path class="st6" d="M240.6,185.2c3-4.3,2.2-10.7-1.2-14.7c-3.5-4-9.1-5.7-14.4-5.3c-3.8,0.3-7.7,1.8-10.2,4.8
				c-2.5,3-3.2,7.5-1.2,10.8c1.1,1.8,3.1,3.5,2.7,5.6c-0.4,2-2.8,2.8-4.5,3.9c-2.9,2-4.1,6.2-3,9.6c1.1,3.4,4.3,6,7.8,6.8
				c3.5,0.8,7.3,0,10.3-1.9c0,3.2,3.4,5.7,6.6,5.4c3.2-0.3,5.9-2.6,7.6-5.3c2.4-3.8,3.2-8.5,3.1-13c-0.1-4.5-1.1-9-2.1-13.4"/>
			<g>
				<path class="st10" d="M245.8,208.4c0,0-0.2-0.1-0.5-0.3c-0.3-0.2-0.8-0.6-1.3-0.9c-1.1-0.8-2.7-2-4.6-3.7
					c-1.9-1.6-4-3.7-5.9-6.5c-1.8-2.7-3.3-6.3-3.4-10.1c-0.1-1.9,0.2-3.8,0.9-5.5c0.6-1.7,1.7-3.2,2.8-4.4c2.3-2.4,4.9-4,6.9-5.4
					c2.1-1.4,3.6-2.6,4.7-3.5c0.5-0.5,0.9-0.8,1.1-1.1c0.3-0.3,0.4-0.4,0.4-0.4s-0.1,0.2-0.3,0.5c-0.2,0.3-0.6,0.7-1.1,1.2
					c-1,1-2.5,2.3-4.6,3.7c-2,1.5-4.5,3-6.7,5.4c-1.1,1.2-2.1,2.6-2.7,4.3c-0.6,1.6-0.9,3.5-0.8,5.3c0.2,3.7,1.5,7.2,3.3,9.9
					c1.8,2.7,3.9,4.8,5.7,6.5c1.8,1.7,3.4,2.9,4.5,3.8c0.5,0.4,0.9,0.7,1.2,1C245.7,208.2,245.9,208.4,245.8,208.4z"/>
			</g>
			<g>
				<path class="st10" d="M231.1,182.3c-0.1,0-0.6-1.1-1.9-2.5c-1.3-1.4-3.5-3.1-6.3-3.8c-2.8-0.7-5.6-0.2-7.4,0.4
					c-1.8,0.6-2.8,1.4-2.8,1.3c0,0,0.2-0.2,0.7-0.5c0.4-0.3,1.1-0.7,2.1-1.1c1.8-0.8,4.6-1.3,7.6-0.6c3,0.7,5.2,2.5,6.5,4
					c0.6,0.8,1.1,1.4,1.3,1.9C231.1,182,231.2,182.3,231.1,182.3z"/>
			</g>
			<g>
				<path class="st10" d="M215.1,187.8c-0.1,0,0.3-1,1.7-1.8c0.7-0.4,1.5-0.8,2.6-0.9c1-0.2,2.1-0.2,3.3-0.2
					c2.3,0.1,4.4,0.5,5.9,0.9c1.5,0.4,2.3,0.9,2.3,0.9c0,0.1-0.9-0.2-2.4-0.6c-1.5-0.3-3.5-0.7-5.8-0.8c-2.3-0.1-4.4,0.2-5.7,0.9
					C215.6,186.9,215.2,187.8,215.1,187.8z"/>
			</g>
			<g>
				<path class="st10" d="M211.7,204.1c0-0.1,1.4-0.1,3.7-0.5c2.2-0.4,5.3-1.4,8.1-3.4c2.9-2,4.9-4.5,6-6.5c1.2-2,1.6-3.3,1.7-3.3
					c0,0-0.1,0.4-0.3,1c-0.2,0.6-0.6,1.5-1.1,2.5c-1.1,2-3.1,4.6-6,6.7c-2.9,2-6.1,3-8.4,3.4c-1.1,0.2-2.1,0.2-2.7,0.2
					C212,204.2,211.7,204.1,211.7,204.1z"/>
			</g>
			<g>
				<path class="st10" d="M232.1,182c0,0,0.6,0.5,1.9,1.2c1.2,0.7,3.3,1.4,5.9,1.3c1.3,0,2.7-0.3,4.1-0.8c1.4-0.5,2.8-1.3,4.2-2.4
					c2.7-2.1,4.9-5.2,6.6-8.8c1.7-3.6,2.7-7.2,3.8-10.5c1.1-3.3,2.1-6.2,3.3-8.5c1.2-2.3,2.4-4.1,3.3-5.2c0.5-0.6,0.9-1,1.1-1.2
					c0.3-0.3,0.4-0.4,0.4-0.4c0,0-0.5,0.6-1.4,1.7c-0.9,1.1-2,2.9-3.2,5.2c-1.1,2.3-2.2,5.2-3.2,8.5c-1,3.3-2.1,6.9-3.8,10.5
					c-1.7,3.6-4,6.8-6.8,8.9c-1.4,1.1-2.8,1.9-4.3,2.4c-1.5,0.5-2.9,0.7-4.2,0.7c-2.6,0-4.7-0.7-6-1.5c-0.3-0.2-0.6-0.4-0.8-0.5
					c-0.2-0.2-0.4-0.3-0.6-0.5C232.3,182.1,232.1,182,232.1,182z"/>
			</g>
			<g>
				<path class="st10" d="M261.5,163.4c0,0-0.4,0.6-0.8,1.8c-0.5,1.2-0.9,2.9-1,5.2c-0.2,2.2-0.1,5-0.9,7.9
					c-0.8,2.9-2.6,5.9-5.2,8.2c-2.6,2.3-5.9,3.6-8.9,3.8c-3,0.3-5.8-0.3-7.9-1.2c-2.1-0.9-3.6-2-4.6-2.8c-0.5-0.4-0.8-0.8-1-1
					c-0.2-0.3-0.3-0.4-0.3-0.4c0,0,0.5,0.5,1.5,1.3c1,0.8,2.5,1.9,4.6,2.7c2.1,0.8,4.8,1.4,7.7,1.1c2.9-0.3,6.1-1.5,8.6-3.8
					c2.6-2.2,4.3-5.1,5.1-7.9c0.8-2.8,0.7-5.6,1-7.8c0.2-2.3,0.7-4.1,1.2-5.2c0.3-0.6,0.5-1,0.7-1.3
					C261.4,163.5,261.5,163.4,261.5,163.4z"/>
			</g>
			<g>
				<path class="st10" d="M320.7,189.3c0,0,0.3-0.3,0.9-0.9c0.5-0.6,1.2-1.6,1.7-2.9c0.5-1.4,0.8-3.1,0.7-5c-0.1-1.9-0.7-4-1.7-6
					c-2-4-4.7-7.1-6.5-9.4c-0.9-1.2-1.5-2.2-1.9-2.9c-0.4-0.7-0.6-1.1-0.6-1.2c0,0,0.3,0.4,0.7,1.1c0.5,0.7,1.1,1.7,2.1,2.8
					c1.8,2.3,4.6,5.3,6.7,9.4c1,2,1.6,4.2,1.7,6.2c0.1,2-0.3,3.8-0.8,5.2c-0.6,1.4-1.3,2.4-1.9,2.9c-0.3,0.3-0.5,0.5-0.7,0.6
					C320.9,189.3,320.8,189.3,320.7,189.3z"/>
			</g>
			<g>
				<path class="st10" d="M317.8,195.2c-0.1-0.1,1.3-1.1,2.5-3.6c0.6-1.2,1-2.8,1-4.6c0-1.8-0.4-3.7-1.2-5.6
					c-0.8-1.9-1.8-3.6-2.7-5.2c-0.9-1.6-1.6-3-2.2-4.3c-0.6-1.2-1.1-2.2-1.4-2.9c-0.3-0.7-0.4-1.1-0.4-1.1c0,0,0.2,0.4,0.6,1
					c0.4,0.8,0.9,1.7,1.5,2.8c0.6,1.2,1.4,2.6,2.3,4.2c0.9,1.6,2,3.3,2.8,5.2c0.8,1.9,1.2,4,1.2,5.8c0,1.8-0.5,3.5-1.1,4.7
					c-0.6,1.3-1.4,2.1-1.9,2.7c-0.3,0.3-0.5,0.5-0.7,0.6C317.9,195.1,317.8,195.2,317.8,195.2z"/>
			</g>
			<g>
				<path class="st11" d="M245.8,169.3c6.8-11.7,16.4-22.6,29.6-25.7c13.2-3.1,26.6-1,38,6.4v-23l-16.5-53.1L284.1,67l-30.3,17.3
					l-7.8,63.9L245.8,169.3z"/>
				<g>
					<path class="st12" d="M245.8,169.3c6.8-11.7,16.4-22.6,29.6-25.7c13.2-3.1,26.6-1,38,6.4v-23l-16.5-53.1L284.1,67l-30.3,17.3
						l-7.8,63.9L245.8,169.3z"/>
				</g>
				<g>
					<path class="st6" d="M312.7,127.7c0,0-0.3-0.1-0.7-0.3c-0.5-0.2-1.1-0.6-2-1c-1.8-0.9-4.4-2-7.9-2.9c-3.4-0.9-7.6-1.7-12.3-1.8
						c-2.3-0.1-4.8,0-7.3,0.3c-2.5,0.3-5.2,0.6-7.7,1.4c-5.2,1.6-9.7,4.2-13.6,6.8c-3.9,2.7-6.9,5.6-9.2,8.3c-2.3,2.7-3.7,5.2-4.6,7
						c-0.4,0.9-0.7,1.6-0.9,2.1c-0.2,0.5-0.3,0.7-0.4,0.7c0,0,0.1-0.3,0.3-0.8c0.2-0.5,0.5-1.2,0.8-2.1c0.9-1.8,2.2-4.4,4.5-7.1
						c2.3-2.8,5.4-5.7,9.2-8.5c3.9-2.7,8.5-5.2,13.7-6.9c2.6-0.8,5.3-1.2,7.8-1.4c2.6-0.2,5-0.3,7.4-0.2c4.7,0.1,9,0.9,12.4,1.9
						c3.4,1,6.1,2.2,7.9,3.1c0.9,0.4,1.6,0.9,2,1.1C312.5,127.6,312.7,127.7,312.7,127.7z"/>
				</g>
				<g>
					<path class="st6" d="M292.7,121.6c-0.1,0-2.3-12.1-4.8-27.1c-2.5-15-4.4-27.2-4.3-27.2c0.1,0,2.3,12.1,4.8,27.1
						C291,109.4,292.9,121.5,292.7,121.6z"/>
				</g>
				<g>
					<path class="st6" d="M272.7,123.7c-0.1,0,0.1-11.5,0.5-25.7c0.4-14.2,0.9-25.7,1-25.7c0.1,0-0.1,11.5-0.5,25.7
						C273.3,112.2,272.8,123.7,272.7,123.7z"/>
				</g>
				<g>
					<path class="st6" d="M255.6,133.3c0,0,0-0.2,0-0.6c0-0.4,0-0.9,0.1-1.6c0.1-1.4,0.2-3.3,0.4-5.8c0.4-4.9,1-11.6,2-19
						c0.9-7.4,2-14.1,2.8-18.9c0.4-2.4,0.8-4.3,1.1-5.7c0.1-0.6,0.2-1.1,0.3-1.5c0.1-0.4,0.1-0.5,0.1-0.5c0,0,0,0.2,0,0.5
						c-0.1,0.4-0.1,0.9-0.2,1.6c-0.2,1.4-0.5,3.4-0.9,5.7c-0.7,4.8-1.7,11.5-2.6,18.9c-0.9,7.4-1.6,14.1-2.1,18.9
						c-0.2,2.4-0.4,4.3-0.6,5.7c-0.1,0.6-0.1,1.1-0.2,1.6C255.6,133.1,255.6,133.3,255.6,133.3z"/>
				</g>
				<g>
					<path class="st6" d="M295.7,125.4c0.1,0,0,0.9-0.1,2.3c-0.1,1.6-0.3,3.5-0.4,5.6c-0.2,2.1-0.3,3.9-0.4,5.6
						c-0.1,1.4-0.2,2.3-0.3,2.3c-0.1,0-0.1-0.9-0.1-2.3c0-1.4,0.1-3.4,0.3-5.6c0.2-2.2,0.4-4.1,0.6-5.6
						C295.4,126.3,295.6,125.4,295.7,125.4z"/>
				</g>
			</g>
		</g>
		<g>
			<g>
				<path class="st7" d="M200.2,352.9c-1.3-1.8-4.6-3.5-6.9-3.7c-7.7-0.8-14.7,2.5-20.7,7.3l-1.2,2.2c-3.3,2.5-6.7,5.4-7.7,9.5
					c-1,4-1.3,8.6-1.4,12.7c0,1.9,0.8,4,2.6,6.1c1.4,1.6,3.5,2.5,5.6,2.7c4,0.4,8.1-0.7,11.7-2.6c3.6-2,6.6-4.8,9.2-7.9
					c4.7-5.7,8-12.7,9.4-20C201.2,357,201.4,354.6,200.2,352.9z"/>
				<g class="st13">
					<path d="M200.2,352.9c-1.3-1.8-4.6-3.5-6.9-3.7c-7.7-0.8-14.7,2.5-20.7,7.3l-1.2,2.2c-3.3,2.5-6.7,5.4-7.7,9.5
						c-1,4-1.3,8.6-1.4,12.7c0,1.9,0.8,4,2.6,6.1c1.4,1.6,3.5,2.5,5.6,2.7c4,0.4,8.1-0.7,11.7-2.6c3.6-2,6.6-4.8,9.2-7.9
						c4.7-5.7,8-12.7,9.4-20C201.2,357,201.4,354.6,200.2,352.9z"/>
				</g>
			</g>
			<path class="st7" d="M199.4,239.8c-1.2,0.4-61.1,85.3-62.7,91c-1.6,5.6-10.4,19.1,2,31.7c12.4,12.6,24.5,21.7,24.5,21.7
				c-2.8-21.4,18.3-38.7,33-34.2l-11.2-7.6l25.7-34.2"/>
			<path class="st7" d="M323.9,257.6c0,0,9.4,11.8,11.8,19.4c2,6.5,12.7,36.7,12.7,36.7l19.5,48.3c0,0-3,4.3-3.7,7.9
				c-0.3,1.4-2.8,23.6-8.7,33l-31.2-14l-3.9-28l-5.4-24.2l5.6-64.8L323.9,257.6z"/>
			<path class="st7" d="M236.3,227.6c0,0,8-7.4,10.2-8.4c0,0,2.5,8.7,10,12.8c7.4,4.1,12.3,8.5,12.3,9.1c0,0.6,0,10.7,0,10.7
				S238.2,243.4,236.3,227.6z"/>
			<path class="st7" d="M241.4,282.2l59.4-3.6l-2.7-33.9l-2.6-5.8l-4-7.2c0,0-0.1,3.7-2.8,6.6c-4.9,5.3-12.1,6.4-12.1,6.4l-1.2,7
				l-30.1-12.4c0,0-3.9,41-3.9,41.9"/>
			<g>
				<path class="st6" d="M276.6,244.7c0,0,0,0.2,0,0.5c0,0.3-0.1,0.8-0.2,1.3c-0.2,1.2-0.5,3-0.8,5.2l0,0.1l-0.1,0
					c-5.5,0.2-14,0.4-24.4,0.7c-1.3,0-2.7,0.1-4,0.1c-0.7,0-1.4,0-2.1,0.1c-0.7,0-1.4,0-2,0.3c-1.3,0.4-2.4,1.5-2.8,2.8
					c-0.2,0.7-0.3,1.4-0.2,2.1c0,0.8,0,1.5,0,2.3c0.1,6.1,0.3,12.6,0.4,19.3c0.5,18.8,0.7,35.8,0.7,48.1c0,6.2-0.1,11.1-0.2,14.6
					c0,1.7-0.1,3-0.1,4c0,0.4,0,0.8,0,1c0,0.2,0,0.4,0,0.4c0,0,0-0.1,0-0.4c0-0.3,0-0.6,0-1c0-0.9,0-2.3,0-4c0-3.5,0-8.4,0-14.6
					c0-12.3-0.4-29.3-0.8-48.1c-0.1-6.7-0.3-13.2-0.4-19.3c0-0.8,0-1.5,0-2.3c0-0.7,0-1.6,0.3-2.3c0.5-1.5,1.7-2.6,3.1-3.1
					c0.7-0.3,1.5-0.3,2.2-0.3c0.7,0,1.4,0,2.1-0.1c1.4,0,2.7-0.1,4-0.1c10.5-0.2,19-0.4,24.4-0.5l-0.1,0.1c0.4-2.3,0.7-4,0.9-5.2
					c0.1-0.6,0.2-1,0.3-1.3C276.5,244.9,276.5,244.7,276.6,244.7z"/>
			</g>
			<g>
				<circle class="st6" cx="246.7" cy="264.9" r="2.5"/>
				<g>
					<path class="st6" d="M261,262.1c0,0.2-2.9,0.5-6.3,1.3c-3.5,0.8-6.2,1.7-6.3,1.6c-0.1-0.1,2.6-1.3,6.2-2.1
						C258,262.1,260.9,262,261,262.1z"/>
				</g>
				<g>
					<path class="st6" d="M256.7,267.2c0,0.1-2-0.4-4.4-0.9c-2.4-0.5-4.5-0.8-4.4-0.9c0-0.1,2.1-0.1,4.5,0.4
						C254.8,266.3,256.7,267,256.7,267.2z"/>
				</g>
			</g>
			<g>
				<circle class="st6" cx="246.7" cy="293.6" r="2.5"/>
				<g>
					<path class="st6" d="M261,290.9c0,0.2-2.9,0.5-6.3,1.3c-3.5,0.8-6.2,1.7-6.3,1.6c-0.1-0.1,2.6-1.3,6.2-2.1
						C258,290.9,260.9,290.7,261,290.9z"/>
				</g>
				<g>
					<path class="st6" d="M256.7,295.9c0,0.1-2-0.4-4.4-0.9c-2.4-0.5-4.5-0.8-4.4-0.9c0-0.1,2.1-0.1,4.5,0.4
						C254.8,295,256.7,295.8,256.7,295.9z"/>
				</g>
			</g>
			<g>
				<circle class="st6" cx="246.7" cy="322.3" r="2.5"/>
				<g>
					<path class="st6" d="M261,319.6c0,0.2-2.9,0.5-6.3,1.3c-3.5,0.8-6.2,1.7-6.3,1.6c-0.1-0.1,2.6-1.3,6.2-2.1
						C258,319.6,260.9,319.4,261,319.6z"/>
				</g>
				<g>
					<path class="st6" d="M256.7,324.6c0,0.1-2-0.4-4.4-0.9c-2.4-0.5-4.5-0.8-4.4-0.9c0-0.1,2.1-0.1,4.5,0.4
						C254.8,323.7,256.7,324.5,256.7,324.6z"/>
				</g>
			</g>
			<g>
				<path class="st6" d="M206.9,316c0,0,0-0.3,0.1-0.7c0.1-0.5,0.3-1.2,0.5-2.1c0.4-1.8,1.1-4.4,1.9-7.6c0.7-3.2,1.6-7,2.2-11.3
					c0.6-4.3,1.1-9,0.9-14c-0.2-5-1-9.7-2.4-13.8c-1.3-4.1-3.1-7.6-4.9-10.3c-1.8-2.7-3.7-4.7-5-5.9c-0.6-0.7-1.2-1.1-1.6-1.4
					c-0.4-0.3-0.6-0.5-0.5-0.5c0,0,0.2,0.1,0.6,0.4c0.4,0.3,1,0.7,1.7,1.3c1.4,1.2,3.3,3.1,5.2,5.8c1.9,2.7,3.7,6.2,5.1,10.4
					c1.4,4.1,2.2,8.9,2.4,13.9c0.2,5-0.3,9.8-1,14.1c-0.7,4.3-1.6,8.1-2.3,11.3c-0.8,3.2-1.5,5.8-2,7.5c-0.2,0.8-0.4,1.5-0.6,2
					C207,315.8,207,316,206.9,316z"/>
			</g>
			<g>
				<path class="st6" d="M206,315.1c0,0-0.2-0.5-0.3-1.3c-0.2-0.9-0.4-2.1-0.6-3.7c-0.5-3.1-0.9-7.5-0.8-12.3
					c0.1-4.8,0.6-9.2,1.1-12.3c0.3-1.6,0.5-2.8,0.7-3.7c0.2-0.9,0.3-1.3,0.4-1.3c0,0,0,0.5-0.2,1.4c-0.2,0.9-0.4,2.1-0.6,3.7
					c-0.5,3.1-0.9,7.4-1,12.3c-0.1,4.8,0.3,9.1,0.6,12.3c0.2,1.6,0.3,2.8,0.5,3.7C206,314.6,206.1,315.1,206,315.1z"/>
			</g>
			<g>
				<path class="st6" d="M149.1,341.2c0,0,0.6-0.1,1.6-0.4c1-0.3,2.4-0.8,4-1.6c1.6-0.8,3.5-2,5.6-3.3c2.1-1.2,4.5-2.6,7.4-3.1
					c2.9-0.5,5.7,0.2,7.9,1.3c2.2,1.1,3.9,2.6,5.3,3.8c1.4,1.3,2.4,2.4,3,3.2c0.7,0.8,1,1.3,1,1.3c0,0-0.4-0.4-1.1-1.2
					c-0.7-0.8-1.7-1.8-3.1-3c-1.4-1.2-3.1-2.6-5.3-3.7c-2.1-1.1-4.8-1.7-7.6-1.2c-2.7,0.5-5.1,1.8-7.2,3c-2.1,1.2-4,2.4-5.7,3.2
					c-1.7,0.8-3.1,1.3-4.1,1.5c-0.5,0.1-0.9,0.1-1.2,0.2C149.3,341.2,149.1,341.2,149.1,341.2z"/>
			</g>
			<g>
				<path class="st6" d="M169.9,320.4c0,0,0.4,0.1,1,0.4c0.3,0.1,0.7,0.3,1.1,0.5c0.4,0.2,0.9,0.5,1.4,0.8c1,0.6,2.1,1.5,3.2,2.6
					c1.1,1.1,2.2,2.4,3.2,3.9c1,1.5,1.8,3,2.3,4.5c0.6,1.5,0.9,2.8,1.1,4c0.1,0.6,0.2,1.1,0.2,1.6c0.1,0.5,0.1,0.9,0.1,1.2
					c0,0.7,0,1,0,1c-0.1,0-0.1-1.4-0.6-3.7c-0.2-1.1-0.7-2.5-1.2-3.9c-0.6-1.4-1.4-2.9-2.3-4.4c-1-1.5-2.1-2.7-3.1-3.8
					c-1.1-1.1-2.1-2-3.1-2.6C171.1,321.1,169.8,320.5,169.9,320.4z"/>
			</g>
			<g class="st13">
				<path d="M183,339.6c-3.5-8.3-12.1-14.2-21.1-14.5c-1.2,0-2.5,0-3.6,0.6c-1.1,0.5-1.9,1.7-1.8,2.9c0.1,0.6,0.3,1.2,0.3,1.7
					c-0.1,1.3-1.8,1.8-3.1,2.2c-2.5,0.7-4.8,2.2-6.4,4.2c-0.9,1-1.6,2.6-0.7,3.7c0.7,0.9,2,0.9,3.1,0.7c4.1-0.7,7.8-2.9,11.6-4.8
					c3.8-1.8,8-3.3,12.1-2.4c4.5,1,7.9,4.7,10.9,8.2"/>
			</g>
			<g>
				<path class="st6" d="M315,336.8c0,0-0.1,0.2-0.4,0.4c-0.3,0.3-0.7,0.7-1.1,1.2c-0.5,0.5-1.1,1.1-1.9,1.8
					c-0.7,0.7-1.6,1.5-2.6,2.3c-1.9,1.7-4.3,3.5-7.1,5.5c-2.8,1.9-5.9,3.9-9.4,5.7c-3.5,1.8-6.9,3.3-10,4.5
					c-3.2,1.2-6.1,2.1-8.5,2.7c-1.2,0.3-2.4,0.6-3.3,0.8c-1,0.2-1.8,0.4-2.5,0.5c-0.7,0.1-1.2,0.2-1.6,0.3c-0.4,0.1-0.6,0.1-0.6,0.1
					c0,0,0.2-0.1,0.6-0.2c0.4-0.1,1-0.2,1.6-0.4c0.7-0.1,1.5-0.3,2.5-0.6c1-0.3,2.1-0.5,3.3-0.9c2.5-0.7,5.3-1.6,8.5-2.8
					c3.1-1.2,6.5-2.7,9.9-4.5c3.4-1.8,6.6-3.7,9.4-5.6c2.8-1.9,5.2-3.7,7.1-5.4c1-0.8,1.8-1.6,2.6-2.2c0.8-0.7,1.4-1.2,1.9-1.7
					c0.5-0.4,0.9-0.8,1.2-1.1C314.8,336.9,315,336.7,315,336.8z"/>
			</g>
			<g>
				<path class="st6" d="M324.3,271c0,0,0,0.2-0.1,0.7c-0.1,0.5-0.2,1.1-0.3,1.9c-0.3,1.7-0.6,4.1-1.1,7c-0.9,5.9-2.1,14.2-3.4,23.2
					c-1.2,9.1-2.3,17.3-3.1,23.3c-0.4,2.9-0.7,5.3-0.9,7.1c-0.1,0.8-0.2,1.4-0.3,1.9c-0.1,0.4-0.1,0.7-0.1,0.7c0,0,0-0.2,0-0.7
					c0-0.5,0.1-1.1,0.2-1.9c0.2-1.7,0.5-4.1,0.8-7.1c0.7-6,1.7-14.2,3-23.3c1.2-9.1,2.5-17.3,3.5-23.2c0.5-3,0.9-5.4,1.3-7
					c0.2-0.8,0.3-1.4,0.4-1.9C324.2,271.2,324.3,271,324.3,271z"/>
			</g>
			<g>
				<path class="st6" d="M290.5,369.9c0,0,0.2-0.4,0.5-1c0.4-0.6,0.9-1.4,1.7-2.5c1.4-2.1,3.5-4.9,5.8-8c2.3-3.1,4.5-5.8,6.2-7.7
					c0.8-1,1.5-1.7,2-2.3c0.5-0.5,0.8-0.8,0.8-0.8c0,0-0.2,0.3-0.6,0.9c-0.5,0.6-1.1,1.4-1.8,2.4c-1.6,2-3.7,4.7-6,7.8
					c-2.3,3.1-4.4,5.9-5.9,7.9c-0.7,0.9-1.3,1.7-1.8,2.4C290.8,369.6,290.5,369.9,290.5,369.9z"/>
			</g>
			<g>
				<path class="st6" d="M354.9,349c0,0-0.6-0.2-1.6-0.7c-1-0.4-2.5-1.1-4.4-1.7c-3.7-1.3-9.1-2.7-15.2-2.6
					c-1.5,0.1-2.9,0.3-4.2,0.9c-1.3,0.5-2.4,1.4-3.3,2.3c-1.9,1.8-3,3.9-3.8,5.7c-0.8,1.8-1.2,3.4-1.6,4.4c-0.3,1.1-0.5,1.6-0.6,1.6
					c0,0,0.1-0.6,0.4-1.7c0.3-1.1,0.7-2.6,1.4-4.5c0.7-1.9,1.9-4,3.8-5.9c1-0.9,2.1-1.8,3.5-2.4c1.4-0.6,2.9-0.9,4.4-0.9
					c6.2-0.2,11.6,1.3,15.3,2.7c1.9,0.7,3.3,1.4,4.3,1.9c0.5,0.2,0.9,0.5,1.1,0.6C354.7,348.9,354.9,349,354.9,349z"/>
			</g>
			<g>
				<path class="st6" d="M347.4,333.3c0,0.1-1.6,0.1-4,0.5c-1.2,0.2-2.7,0.6-4.2,1.1c-1.5,0.6-3.2,1.3-4.8,2.3c-1.6,1-3,2.1-4.3,3.3
					c-1.2,1.1-2.2,2.3-2.9,3.3c-1.5,2-2.2,3.4-2.3,3.4c0,0,0.1-0.4,0.4-1c0.1-0.3,0.3-0.7,0.6-1.1c0.3-0.4,0.5-0.9,0.9-1.4
					c0.7-1.1,1.7-2.2,2.9-3.4c1.2-1.2,2.7-2.3,4.3-3.4c1.7-1,3.4-1.8,4.9-2.3c1.6-0.5,3.1-0.9,4.3-1c0.6-0.1,1.2-0.1,1.7-0.2
					c0.5,0,0.9,0,1.3,0C347,333.3,347.4,333.3,347.4,333.3z"/>
			</g>
			<g>
				<path class="st7" d="M355.4,396.7c-0.8-6.5-5.4-12.4-11.4-15.1c-4.8-2.1-11.3-2.6-15.9,0c-4.5,2.6-10.6,9.1-9.4,14.1l10.4,17.5
					c5.2,4,13,4.2,18.5,0.6C353.2,410.2,356.3,403.2,355.4,396.7z"/>
				<g class="st13">
					<path d="M355.4,396.7c-0.8-6.5-5.4-12.4-11.4-15.1c-4.8-2.1-11.3-2.6-15.9,0c-4.5,2.6-10.6,9.1-9.4,14.1l10.4,17.5
						c5.2,4,13,4.2,18.5,0.6C353.2,410.2,356.3,403.2,355.4,396.7z"/>
				</g>
			</g>
			<g>
				<path class="st6" d="M352.2,409.4c0,0,0.4-0.7,1-1.9c0.6-1.3,1.4-3.2,1.8-5.7c0.4-2.5,0.3-5.5-0.8-8.7c-0.2-0.8-0.6-1.6-1-2.4
					c-0.4-0.8-0.8-1.6-1.3-2.3c-1-1.5-2.2-2.9-3.7-4.1c-1.5-1.2-3.1-2.2-4.8-2.8c-1.7-0.6-3.4-1-5-1.2c-3.3-0.3-6.3,0.3-8.7,1.1
					c-2.4,0.9-4.1,1.9-5.2,2.8c-1.1,0.8-1.7,1.4-1.7,1.3c0,0,0.1-0.2,0.4-0.4c0.3-0.2,0.7-0.7,1.2-1.1c1.1-0.9,2.9-2.1,5.2-3
					c2.4-0.9,5.4-1.5,8.8-1.3c1.7,0.2,3.4,0.5,5.2,1.2c1.7,0.7,3.4,1.7,4.9,2.9c1.5,1.2,2.8,2.7,3.8,4.2c0.5,0.8,0.9,1.6,1.4,2.3
					c0.3,0.8,0.7,1.6,1,2.4c1.1,3.2,1.1,6.4,0.7,8.9c-0.4,2.5-1.3,4.4-2,5.7c-0.3,0.6-0.7,1.1-0.9,1.4
					C352.3,409.3,352.2,409.4,352.2,409.4z"/>
			</g>
			<g>
				<path class="st6" d="M323.6,384.9c-0.1,0-1.4-6.8-2.7-15.3c-1.4-8.5-2.3-15.4-2.2-15.4c0.1,0,1.4,6.8,2.7,15.3
					C322.8,378,323.7,384.9,323.6,384.9z"/>
			</g>
			<g class="st13">
				<path d="M316.8,344.9l5.3-0.4c3.4-5.4,9.1-9.3,15.3-10.6c1.5-0.3,3-0.5,4.4-0.1c1.4,0.4,2.8,1.4,3.1,2.9c0.4,1.4-0.5,3.2-2,3.5
					c2.9,0.8,5.5,2.8,6.9,5.5c0.3,0.6,0.5,1.4,0.1,1.8c-0.3,0.3-0.8,0.3-1.2,0.3c-2.5,0-4.9-0.5-7.3-0.7c-2.5-0.1-5,0.2-7,1.7
					c-2,1.4-3.1,3.8-4,6c-3.3,7.9-5.9,16.7-7.4,25.1c-1.2-4.9-1.3-10-2.2-14.6C319.6,358.8,318.3,352.1,316.8,344.9"/>
			</g>
			<g class="st13">
				<path d="M201.6,389.1c6.6,7.1,15.5,10.4,25.1,11.9c9.5,1.6,19.3,1,29,0.5c2.4-0.1,5.2-0.6,6.2-2.7c0.7-1.5,0.2-3.3-0.4-4.9
					c-4.3-11.3-12.7-20.4-20.9-29.2c-3-3.2-6.2-6.6-10.4-7.9c-4.6-1.4-9.9-0.2-14.3-2.2c-5.3-2.5-7.4-8.7-9.1-14.3
					c-1.7-5.8-1.7-5.8-3.4-11.5c0.7,12.5,0.6,22.6,0.6,22.6s-3.5,23.2-3,28.4C201.5,385.1,201.6,389.1,201.6,389.1z"/>
			</g>
			<g>
				<path class="st6" d="M267.5,246.1c0,0-0.5-0.1-1.3-0.3c-0.8-0.2-2-0.6-3.5-1.1c-2.9-1-6.9-2.8-10.9-5.3c-4-2.5-7.3-5.3-9.5-7.4
					c-1.1-1.1-2-2-2.5-2.6c-0.6-0.7-0.9-1-0.8-1c0,0,0.4,0.3,1,0.9c0.6,0.6,1.5,1.5,2.6,2.5c2.3,2.1,5.6,4.8,9.6,7.3
					c4,2.5,7.9,4.2,10.7,5.4c1.4,0.6,2.6,1,3.4,1.3C267,245.9,267.5,246.1,267.5,246.1z"/>
			</g>
			<g>
				<path class="st6" d="M295.4,240.6c0,0-0.1,0.3-0.4,0.7c-0.3,0.5-0.7,1.1-1.3,1.9c-1.2,1.5-3.1,3.4-5.5,5c-2.5,1.6-5,2.6-6.8,3
					c-0.9,0.2-1.7,0.4-2.2,0.4c-0.5,0.1-0.8,0.1-0.8,0c0-0.1,1.1-0.3,2.9-0.8c1.8-0.5,4.2-1.5,6.6-3.1c2.4-1.6,4.3-3.4,5.5-4.8
					C294.6,241.5,295.3,240.5,295.4,240.6z"/>
			</g>
			<g>
				<path class="st6" d="M300,246.7c0.1,0-0.9,2.7-3.3,5.3c-2.3,2.6-4.8,3.9-4.9,3.8c-0.1-0.1,2.3-1.6,4.5-4.2
					C298.6,249.2,299.8,246.7,300,246.7z"/>
			</g>
		</g>
		<g>
			<path class="st8" d="M247.5,365.6c0,0,0.2,0,0.6-0.1c2.2-0.4,9.6-1.8,10.8-0.6c1.4,1.4,11.4,11.2,11.4,11.2s-1.9,3.1-8.2,0
				C255.8,373,247.5,365.6,247.5,365.6z"/>
			<path class="st6" d="M233.4,345.8L233.4,345.8c2.3-1.5,5.3-1,6.9,1.2l30.4,40.3l-7.8,5.7l-30.7-39.9
				C230.4,350.7,231,347.4,233.4,345.8z"/>
			<path class="st8" d="M163.9,372.8c0,0,36.1,5.9,41.1,6.3c5,0.4,18.7,14.9,22.7,16.3c4,1.4,14.7,1.2,14.7,1.2s19.5,1,20.1,0
				s1.8-0.8,0-4.6c-1.8-3.8-4-6.6-4-6.6s5,6.2,6.4,6.4c1.4,0.2,4.4,0.6,4.2-2.1c-0.2-2.7-5.4-13.6-5.4-13.6s-2.2-5.1-6.2-6.2
				s-21.3-9.5-21.3-9.5h-18.5l-21.6-10.3c0,0-13.1-4.2-25.5,9.5c-2.4,2.7-4.2,5.9-5.4,9.4L163.9,372.8z"/>
			<g>
				<path class="st9" d="M267.1,384.2c0,0-0.2-0.4-0.5-1c-0.3-0.8-0.8-1.8-1.3-2.9c-0.5-1.3-1.2-2.8-1.8-4.4
					c-0.6-1.6-1.5-3.4-3.2-4.6c-0.8-0.6-1.7-1-2.6-1.4c-0.9-0.4-1.7-0.8-2.6-1.1c-1.6-0.7-3.1-1.3-4.4-1.9c-1.2-0.5-2.2-0.9-3-1.2
					c-0.7-0.3-1.1-0.5-1.1-0.5c0,0,0.4,0.1,1.1,0.3c0.7,0.2,1.8,0.6,3,1.1c1.3,0.5,2.8,1.1,4.4,1.8c0.8,0.4,1.7,0.7,2.6,1.1
					c0.9,0.4,1.8,0.8,2.7,1.5c1.7,1.3,2.7,3.2,3.3,4.9c0.6,1.6,1.2,3.1,1.7,4.4c0.4,1.2,0.8,2.2,1.1,3
					C267,383.8,267.1,384.2,267.1,384.2z"/>
			</g>
			<g>
				<path class="st9" d="M248.9,374.2c0-0.1,0.8,0.5,1.9,1.5c1.1,1,2.6,2.4,4,4.2c1.5,1.7,2.6,3.4,3.4,4.7c0.8,1.3,1.2,2.1,1.1,2.1
					c-0.1,0-0.6-0.7-1.4-1.9c-0.9-1.2-2.1-2.9-3.5-4.6c-1.4-1.7-2.9-3.2-3.9-4.3C249.6,374.9,248.9,374.3,248.9,374.2z"/>
			</g>
			<g>
				<path class="st9" d="M259.3,396.8c0,0-0.3-0.1-0.8-0.3c-0.5-0.2-1.1-0.6-1.9-1.2c-1.5-1.1-3.4-2.9-5.3-5.1
					c-1.9-2.1-3.5-4.1-4.7-5.5c-1.2-1.4-1.9-2.3-1.8-2.4c0.1,0,0.9,0.8,2.1,2.2c1.3,1.4,3,3.3,4.8,5.4c1.9,2.1,3.6,4,5.1,5.1
					C258.3,396.2,259.3,396.7,259.3,396.8z"/>
			</g>
			<g>
				<path class="st9" d="M248.6,396.8c0,0.1-0.8-0.3-1.9-0.9c-1.1-0.6-2.6-1.6-4.2-2.8c-1.6-1.2-2.9-2.4-3.8-3.2
					c-0.9-0.9-1.5-1.5-1.4-1.5c0.1-0.1,2.5,2,5.6,4.3C245.9,395,248.6,396.6,248.6,396.8z"/>
			</g>
			<g>
				<g>
					<path class="st8" d="M307.8,411.8c0,0-3.2-4.9-3.6-6.7c-0.4-1.8,0-10.1-5.8-8.8v0.6c0.1,0.7,0,17.7,0,17.7L307.8,411.8z"/>
					<g>
						<path class="st7" d="M232.9,420.6c0,0-5.4,49.7,52.8,48.3c47.5-1.2,46.6-47.5,46.6-47.5L232.9,420.6z"/>
						<ellipse class="st7" cx="281.8" cy="421.1" rx="54.3" ry="13.1"/>
						<ellipse class="st13" cx="282.6" cy="420.6" rx="49.8" ry="8.3"/>
						<g>
							<path class="st6" d="M334.2,424.9c0,0-0.1,0.1-0.2,0.2c-0.2,0.1-0.4,0.2-0.7,0.4c-0.6,0.4-1.5,0.9-2.7,1.5
								c-2.4,1.2-5.9,2.7-10.5,3.9c-4.6,1.2-10.2,2.2-16.4,3.1c-6.2,0.8-13.1,1.1-20.4,1c-7.2-0.1-14.1-0.3-20.4-0.8
								c-6.3-0.6-11.8-1.5-16.5-2.6c-4.6-1.1-8.3-2.4-10.7-3.3c-1.2-0.5-2.2-0.9-2.8-1.2c-0.3-0.1-0.5-0.2-0.7-0.3
								c-0.2-0.1-0.2-0.1-0.2-0.1c0,0,0.1,0,0.3,0.1c0.2,0.1,0.4,0.2,0.7,0.3c0.7,0.3,1.6,0.7,2.8,1.1c2.5,0.9,6.1,2.1,10.7,3.2
								c4.6,1.1,10.2,1.9,16.4,2.4c6.2,0.5,13.1,0.7,20.3,0.8c7.2,0.1,14.1-0.2,20.3-1c6.2-0.8,11.8-1.8,16.3-2.9
								c4.6-1.2,8.1-2.6,10.5-3.8c1.2-0.6,2.1-1.1,2.7-1.4c0.3-0.2,0.5-0.3,0.7-0.4C334.2,424.9,334.2,424.8,334.2,424.9z"/>
						</g>
					</g>
					<path class="st8" d="M301,419.5c0,0,5.9-19.9,8-22.6c1.7-2.2,13.7-11.2,17.8-14.3c1-0.8,2.2-1.3,3.4-1.6
						c4.1-1.1,8.1-1.8,14.8,1.1c7.2,3.1,9.1,9.9,9.1,9.9l-22.4,13.9l-0.9,9.4l-18-4.6c0,0,0.2-1-0.5-2.7
						C312.4,407.9,306.7,421.8,301,419.5z"/>
					<g>
						<path class="st3" d="M279.4,405.4c-2.3-3-4.2-5.9-5.7-8.3c-1.5-2.5-2.6-4.5-3.3-6c-0.7-1.4-1.1-2.2-1.2-2.2
							c-0.1,0,0.3,0.9,0.9,2.3c0.6,1.5,1.7,3.6,3.1,6.1c1.5,2.5,3.3,5.4,5.6,8.5c2.2,3.1,4.9,6.4,7.7,9.8c3.9,4.7,7.5,9.1,10.4,12.9
							c0.3,0,0.5,0,0.8,0c-2.9-4-6.6-8.5-10.6-13.3C284.3,411.7,281.7,408.4,279.4,405.4z"/>
						<path class="st3" d="M265.1,391.1c-0.1,0,0.3,0.8,0.9,2.3c0.6,1.5,1.6,3.6,2.7,6.3c2.2,5.3,5.1,12.7,7.5,21.1
							c0.8,2.8,1.6,5.5,2.6,8.1c0.3,0,0.5,0,0.8,0c-1-2.6-1.8-5.4-2.6-8.3c-2.5-8.4-5.4-15.9-7.8-21.1c-1.2-2.6-2.2-4.7-2.9-6.2
							C265.6,391.9,265.2,391.1,265.1,391.1z"/>
						<path class="st3" d="M267.1,388.7c0,0,0.3,0.8,1.1,2.3c0.7,1.4,1.8,3.5,3.2,6.1c2.8,5.1,6.6,12.2,11.3,19.7
							c2.7,4.4,5.4,8.4,8,11.9c0.3,0,0.6,0,0.8,0c-2.5-3.6-5.3-7.8-8.1-12.3c-4.7-7.5-8.6-14.5-11.5-19.5c-1.4-2.4-2.5-4.4-3.4-6
							C267.6,389.5,267.1,388.7,267.1,388.7z"/>
						<path class="st3" d="M310.8,422.9c-2-4.9-5.3-8.9-8.9-12.1c-3.6-3.2-7.4-5.7-11-8c-3.6-2.3-7-4.3-9.9-6.4
							c-5.9-4.2-10-8.4-12.6-11.5c-1.3-1.5-2.3-2.8-2.9-3.6c-0.3-0.4-0.5-0.7-0.7-1c-0.2-0.2-0.3-0.3-0.3-0.3c0,0,0.1,0.1,0.2,0.4
							c0.2,0.3,0.4,0.6,0.7,1c0.6,0.9,1.5,2.1,2.8,3.7c2.6,3.1,6.6,7.5,12.5,11.7c2.9,2.1,6.3,4.2,9.9,6.5c3.6,2.3,7.4,4.8,10.9,8
							c3.5,3.2,6.7,7.1,8.6,11.9c0.6,1.4,1,2.8,1.3,4.2c0.3,0,0.5-0.1,0.8-0.1C311.9,425.8,311.4,424.3,310.8,422.9z"/>
						<path class="st3" d="M309,426.2c-1.1-2.8-2.8-6-5.3-9.1c-2.5-3.1-5.7-6.1-9.3-9c-3.6-2.8-7.2-5.3-10.4-7.6
							c-3.2-2.3-6-4.5-8.3-6.4c-2.3-1.9-4-3.7-5.1-4.9c-1.1-1.2-1.7-1.9-1.8-1.9c0,0,0.1,0.2,0.4,0.6c0.2,0.4,0.6,0.9,1.2,1.5
							c1.1,1.3,2.7,3.1,4.9,5.1c2.2,2,5,4.2,8.2,6.6c3.2,2.3,6.8,4.8,10.3,7.7c3.6,2.8,6.7,5.8,9.2,8.8c2.5,3,4.3,6.1,5.4,8.9
							c0.2,0.4,0.3,0.8,0.5,1.3c0.2,0,0.3,0,0.5,0C309.4,427.2,309.2,426.7,309,426.2z"/>
						<path class="st3" d="M282.8,421.6c-3.8-7-7.1-13.5-9.4-18.2c-1.1-2.3-2-4.2-2.7-5.6c-0.6-1.3-1-2-1.1-2c0,0,0.2,0.8,0.8,2.1
							c0.6,1.4,1.4,3.3,2.5,5.7c2.2,4.8,5.3,11.3,9.2,18.4c1.3,2.4,2.6,4.7,3.8,6.8c0.3,0,0.6,0,0.9,0
							C285.5,426.5,284.2,424.1,282.8,421.6z"/>
						<path class="st3" d="M290.8,412.6c-6.3-6.2-11.6-12.3-15.3-16.7c-1.8-2.2-3.3-4.1-4.3-5.4c-1-1.3-1.6-2-1.6-1.9
							c0,0,0.4,0.8,1.4,2.1c0.9,1.3,2.3,3.2,4.1,5.5c3.6,4.6,8.8,10.7,15.1,17c3.2,3.1,6.4,5.9,9.1,8.6c2.1,2.1,3.9,4.2,5.2,6.3
							c0.2,0,0.4,0,0.7,0c-1.4-2.2-3.2-4.5-5.4-6.7C297.1,418.5,293.9,415.7,290.8,412.6z"/>
						<path class="st3" d="M274.4,426.4c-1.3-4-2.2-7.9-3.1-11.4c-1.6-7-3.1-12.7-4.7-16.5c-1.5-3.8-2.9-5.6-2.9-5.6
							c0,0,0,0.1,0.2,0.4c0.1,0.3,0.3,0.6,0.6,1.1c0.5,1,1.2,2.4,1.9,4.2c1.5,3.7,2.9,9.4,4.5,16.5c0.8,3.5,1.7,7.4,3,11.5
							c0.3,0.8,0.5,1.6,0.8,2.3c0.2,0,0.5,0,0.7,0C275,428.1,274.7,427.2,274.4,426.4z"/>
					</g>
					<g>
						<path class="st6" d="M314.7,414.3c0,0,0.1,0,0.2,0c0.2,0,0.4,0,0.7,0c0.6,0,1.5,0.1,2.7,0.3c2.3,0.4,5.6,0.8,9.6,2.1
							c1,0.4,2,0.8,3,1.3c0.5,0.3,1,0.7,1.4,1.2c0.4,0.5,0.5,1.3,0.3,1.9c-0.2,0.7-0.8,1.1-1.3,1.5c-0.5,0.3-1.1,0.7-1.7,0.9
							c-1.2,0.5-2.5,1-3.8,1.3c-5.3,1.5-11.3,2.6-17.6,3.4c-12.6,1.5-24.1,1.2-32.4,0.9c-4.1-0.2-7.5-0.4-9.8-0.5
							c-1.1-0.1-2-0.1-2.7-0.2c-0.3,0-0.5,0-0.7-0.1c-0.2,0-0.2,0-0.2,0c0,0,0.1,0,0.2,0c0.2,0,0.4,0,0.7,0c0.7,0,1.5,0.1,2.7,0.1
							c2.4,0.1,5.7,0.2,9.8,0.3c8.3,0.2,19.8,0.4,32.4-1c6.3-0.7,12.2-1.9,17.5-3.3c1.3-0.3,2.6-0.8,3.8-1.3
							c0.6-0.2,1.1-0.5,1.7-0.9c0.5-0.3,1-0.7,1.1-1.2c0.1-0.5,0.1-1.1-0.2-1.6c-0.3-0.4-0.8-0.8-1.2-1.1c-1-0.5-2-1-2.9-1.3
							c-3.9-1.3-7.3-1.9-9.5-2.3c-1.1-0.2-2-0.3-2.6-0.4C315,414.3,314.7,414.3,314.7,414.3z"/>
					</g>
				</g>
				<g>
					<path class="st9" d="M319.5,402c0.1,0.1-1.8,1.6-3.9,3.5c-2.1,2-3.7,3.7-3.8,3.6c-0.1-0.1,1.3-2,3.5-4
						C317.4,403.1,319.5,401.9,319.5,402z"/>
				</g>
				<g>
					<path class="st9" d="M319.1,409.9c-0.1,0.1-1.4-0.7-3.2-0.7c-1.8,0-3.1,0.9-3.2,0.8c0,0,0.2-0.4,0.8-0.7
						c0.5-0.3,1.4-0.6,2.4-0.6c1,0,1.9,0.2,2.4,0.5C318.9,409.5,319.1,409.8,319.1,409.9z"/>
				</g>
			</g>
		</g>
	</g>
</g>
<g id="Shelves">
	<g>
		<g>
			<path class="st10" d="M137.7,203.5c-0.6,0.5-32.3,14.7-32.3,14.7s8.7,18.5,25.7,10.3C146.5,220.9,137.7,203.5,137.7,203.5z"/>
			<g>
				<path class="st10" d="M137.3,101.1c0.7,0,1.3,24.6,1.3,55c0,30.4-0.6,55-1.3,55c-0.7,0-1.3-24.6-1.3-55
					C136,125.7,136.6,101.1,137.3,101.1z"/>
			</g>
		</g>
		<g>
			<path class="st10" d="M114.8,175.3c-0.6,0.5-32.3,14.7-32.3,14.7s8.7,18.5,25.7,10.3C123.6,192.8,114.8,175.3,114.8,175.3z"/>
			<g>
				<path class="st10" d="M114.4,99.2c0.7,0,1.3,18.7,1.3,41.8c0,23.1-0.6,41.8-1.3,41.8c-0.7,0-1.3-18.7-1.3-41.8
					C113.1,117.9,113.7,99.2,114.4,99.2z"/>
			</g>
		</g>
		<g>
			<path class="st10" d="M87,147.6c-0.6,0.5-32.3,14.7-32.3,14.7s8.7,18.5,25.7,10.3C95.9,165,87,147.6,87,147.6z"/>
			<g>
				<path class="st10" d="M86.7,102c0.7,0,1.3,11.9,1.3,26.6c0,14.7-0.6,26.6-1.3,26.6c-0.7,0-1.3-11.9-1.3-26.6
					C85.4,113.9,85.9,102,86.7,102z"/>
			</g>
		</g>
		<g>
			<g>
				<circle class="st10" cx="175.1" cy="176.1" r="32.4"/>
				<polygon class="st10" points="173.8,147.4 171.3,105.7 183.2,105.7 179.9,147.4 				"/>
			</g>
			<g>
				<path class="st6" d="M188.7,198.9c0,0-0.1,0.1-0.2,0.1c-0.2,0.1-0.4,0.2-0.7,0.4c-0.3,0.2-0.6,0.4-1.1,0.6
					c-0.5,0.2-1,0.4-1.5,0.7c-2.3,1-6,2-10.5,1.9c-4.5-0.1-10.1-1.3-15-4.8c-2.5-1.7-4.8-4-6.5-6.8c-1.8-2.8-3.1-5.9-3.9-9.3
					c-0.7-3.4-0.8-6.9-0.3-10.1c0.5-3.3,1.7-6.3,3.2-8.9c3.1-5.2,7.7-8.6,11.8-10.5c4.2-1.9,7.9-2.5,10.4-2.5c0.6,0,1.2,0,1.7,0
					c0.5,0,0.9,0.1,1.2,0.1c0.3,0,0.6,0.1,0.8,0.1c0.2,0,0.3,0,0.3,0c0,0-0.1,0-0.3,0c-0.2,0-0.4,0-0.8,0c-0.3,0-0.7-0.1-1.2-0.1
					c-0.5,0-1.1,0-1.7,0c-2.5,0.1-6.2,0.7-10.2,2.6c-4,1.9-8.5,5.3-11.5,10.4c-1.5,2.5-2.7,5.5-3.1,8.7c-0.5,3.2-0.4,6.6,0.3,9.9
					c0.7,3.3,2,6.5,3.8,9.2c1.7,2.7,4,5,6.4,6.7c4.9,3.4,10.3,4.7,14.8,4.8c4.5,0.1,8.1-0.8,10.4-1.8c0.6-0.2,1.1-0.5,1.5-0.6
					c0.4-0.2,0.8-0.4,1.1-0.5c0.3-0.1,0.5-0.2,0.7-0.3C188.6,198.9,188.7,198.9,188.7,198.9z"/>
			</g>
		</g>
		<g>
			<polygon class="st10" points="45.2,51.8 56.6,93.3 105.2,93.3 116.7,51.8 			"/>
			<g>
				<path class="st6" d="M114.4,60c0,0.1-15,0.3-33.5,0.3c-18.5,0-33.5-0.1-33.5-0.3c0-0.1,15-0.3,33.5-0.3
					C99.4,59.8,114.4,59.9,114.4,60z"/>
			</g>
			<path class="st6" d="M123.3,62.5h-9.9l1.6-4.3h8.4c1.2,0,2.2,1,2.2,2.2l0,0C125.5,61.5,124.5,62.5,123.3,62.5z"/>
			<path class="st6" d="M38.5,62.5h9.9l-1.6-4.3h-8.4c-1.2,0-2.2,1-2.2,2.2l0,0C36.3,61.5,37.3,62.5,38.5,62.5z"/>
		</g>
		<rect x="32.9" y="92.7" class="st7" width="181.5" height="13"/>
	</g>
</g>
<g id="Kitchen_tools">
	<g>
		<path class="st7" d="M449.1,277.4c-2.8-1.1-5.9,0.3-7,3.1l-8.1,21.6l0,0l10,3.7l8.1-21.4C453.3,281.6,451.9,278.5,449.1,277.4z"/>
		<path class="st14" d="M448.9,284.2c0,1.3-1,2.3-2.3,2.3s-2.3-1-2.3-2.3c0-1.3,1-2.3,2.3-2.3S448.9,283,448.9,284.2z"/>
		<path class="st14" d="M443.2,298.4c0,1.3-1,2.3-2.3,2.3c-1.3,0-2.3-1-2.3-2.3c0-1.3,1-2.3,2.3-2.3
			C442.2,296.1,443.2,297.1,443.2,298.4z"/>
		<polygon class="st0" points="434.1,302 418.6,342.5 437.7,342.3 453.2,308.8 		"/>
		<g>
			<rect x="395" y="342.5" class="st7" width="53.5" height="61.5"/>
			<g>
				<path class="st2" d="M448.5,357.8c0,0.1-12,0.3-26.7,0.3c-14.8,0-26.8-0.1-26.8-0.3c0-0.1,12-0.3,26.8-0.3
					C436.5,357.6,448.5,357.7,448.5,357.8z"/>
			</g>
			<g>
				<path class="st2" d="M448.5,364.5c0,0.1-12,0.3-26.7,0.3c-14.8,0-26.8-0.1-26.8-0.3s12-0.3,26.8-0.3
					C436.5,364.2,448.5,364.3,448.5,364.5z"/>
			</g>
			<g>
				<path class="st2" d="M448.5,371.1c0,0.1-12,0.3-26.7,0.3c-14.8,0-26.8-0.1-26.8-0.3c0-0.1,12-0.3,26.8-0.3
					C436.5,370.8,448.5,370.9,448.5,371.1z"/>
			</g>
			<g>
				<path class="st2" d="M448.5,377.7c0,0.1-12,0.3-26.7,0.3c-14.8,0-26.8-0.1-26.8-0.3s12-0.3,26.8-0.3
					C436.5,377.4,448.5,377.6,448.5,377.7z"/>
			</g>
			<g>
				<path class="st2" d="M448.5,384.3c0,0.1-12,0.3-26.7,0.3c-14.8,0-26.8-0.1-26.8-0.3s12-0.3,26.8-0.3
					C436.5,384.1,448.5,384.2,448.5,384.3z"/>
			</g>
			<g>
				<path class="st2" d="M448.5,391c0,0.1-12,0.3-26.7,0.3c-14.8,0-26.8-0.1-26.8-0.3s12-0.3,26.8-0.3
					C436.5,390.7,448.5,390.8,448.5,391z"/>
			</g>
		</g>
		<path class="st10" d="M363.6,308.6l35.8,2.9c0,0,1-17.4-15.7-19.2C366.8,290.4,363.6,308.6,363.6,308.6z"/>
		<g>
			<path class="st10" d="M409.1,342.5c-0.7,0.2-4.4-8.7-8.3-19.9c-3.9-11.2-6.5-20.5-5.8-20.8c0.7-0.2,4.4,8.7,8.3,19.9
				C407.2,333,409.8,342.3,409.1,342.5z"/>
		</g>
	</g>
</g>
<g id="Food">
	<g>
		<g>
			<path class="st10" d="M411.3,460.3c0,0-0.2,0.1-0.7,0.2c-0.5,0.1-1.2,0.2-2,0.3c-0.5,0.1-0.9,0.1-1.5,0.2
				c-0.5,0.1-1.1,0.1-1.8,0.2c-1.3,0.1-2.7,0.3-4.3,0.3c-0.8,0-1.7,0.1-2.5,0.1c-0.9,0-1.8,0-2.7,0c-1.9,0-3.9-0.2-6.1-0.4
				c-4.2-0.5-8.9-1.2-13.6-2.5c-4.8-1.3-9.1-3-13-4.8c-1.9-0.9-3.8-1.8-5.4-2.8c-0.8-0.5-1.6-0.9-2.4-1.4c-0.7-0.5-1.5-0.9-2.1-1.4
				c-1.4-0.8-2.5-1.7-3.6-2.5c-0.5-0.4-1-0.7-1.4-1.1c-0.4-0.3-0.8-0.7-1.2-1c-0.7-0.6-1.2-1-1.6-1.3c-0.4-0.3-0.5-0.5-0.5-0.5
				c0,0,0.2,0.1,0.6,0.4c0.4,0.3,1,0.7,1.6,1.3c0.4,0.3,0.8,0.6,1.2,0.9c0.4,0.3,0.9,0.7,1.5,1c1.1,0.7,2.2,1.6,3.6,2.4
				c0.7,0.4,1.4,0.9,2.1,1.3c0.7,0.5,1.6,0.9,2.4,1.3c1.6,1,3.5,1.8,5.4,2.7c3.9,1.7,8.2,3.4,13,4.7c4.7,1.3,9.3,2.1,13.6,2.5
				c2.1,0.2,4.1,0.4,6,0.4c0.9,0,1.9,0.1,2.7,0.1c0.9,0,1.7,0,2.5-0.1c1.6,0,3.1-0.2,4.3-0.2c0.6-0.1,1.2-0.1,1.8-0.1
				c0.5-0.1,1-0.1,1.5-0.2c0.9-0.1,1.5-0.2,2.1-0.2C411,460.3,411.3,460.3,411.3,460.3z"/>
		</g>
		<path class="st10" d="M368.7,456.4c-7.5-1-17.3,1.9-22.9,7C353.7,462.3,361.5,459.9,368.7,456.4"/>
		<path class="st10" d="M369.1,456.5c2.7-7.1-1.3-17-1.3-17C367,438.2,367.3,448.7,369.1,456.5"/>
		<path class="st10" d="M357.3,450.9c2-5.2-0.9-12.5-0.9-12.5C355.8,437.5,356,445.2,357.3,450.9"/>
		<path class="st10" d="M379.7,459c2-5.2-0.9-12.5-0.9-12.5C378.2,445.5,378.4,453.2,379.7,459"/>
		<path class="st10" d="M357.5,451c-5.6-0.7-12.9,1.4-17.1,5.2C346.3,455.4,352.1,453.6,357.5,451"/>
		<path class="st10" d="M380.8,459.8c-7.9,0.1-17.6,4.6-22.7,10.7C366.2,468.2,373.9,464.6,380.8,459.8"/>
	</g>
	<g>
		<path class="st7" d="M411.1,421.9c-3.2-4.8-9.2-7.7-15-7.1c-5.8,0.5-11.1,4.4-13.4,9.8c-1.9,4.5-1.7,9.8,0.2,14.3
			c1.9,4.5,5.3,8.3,9.3,11c10.6,7.2,25.9,6.9,35.7-1.3c3.6-3,6.6-7.2,7.2-11.9c0.8-5.4-1.8-11.2-6.3-14.3
			c-4.5-3.1-10.8-3.4-15.6-0.7"/>
		<path class="st10" d="M411.1,421.9c-0.6-2.6-3.3-4.5-6-4.1c1.2,1.4,2.4,2.8,3.5,4.2c-1.9,0.2-3.7,1.6-4.3,3.4
			c-0.2,0.4-0.2,1,0.2,1.3c0.3,0.1,0.6,0,0.9-0.1c1.4-0.6,2.9-1.2,4.3-1.8c0.3,2.4,1.2,4.7,2.6,6.7c1-2.1,1.5-4.4,1.6-6.7
			c1.6,0.7,3.2,1.4,4.7,2.1c-0.4-1.4-1.2-2.6-2.2-3.5c1.4-0.3,2.8-0.8,4-1.5c0.4-0.2,0.8-0.6,0.6-1c-0.1-0.3-0.5-0.4-0.8-0.4
			c-3.1-0.3-6.3,0.4-9.1,1.9"/>
		<path class="st10" d="M410.8,423.7c0.7-4.8,0.3-9.7-1.2-14.3c1.1-0.3,2.5-0.4,3.3,0.5c0.4,0.5,0.5,1.2,0.5,1.9
			c0.1,4.5-0.8,9-2.5,13.2"/>
		<g>
			<path class="st2" d="M387.7,440.9c0,0-0.3-0.2-0.7-0.7c-0.4-0.5-1-1.3-1.6-2.4c-1.1-2.1-2.1-5.5-1.5-9.2c0.6-3.7,2.6-6.6,4.4-8.3
				c0.9-0.8,1.7-1.4,2.3-1.7c0.6-0.3,0.9-0.5,0.9-0.5c0.1,0.1-1.3,0.8-3,2.5c-1.7,1.7-3.6,4.5-4.2,8.1c-0.6,3.6,0.3,6.9,1.3,9
				C386.7,439.7,387.8,440.8,387.7,440.9z"/>
		</g>
		<g>
			<path class="st2" d="M392.5,444.5c0,0.1-0.8,0-1.6-0.6c-0.8-0.5-1.2-1.2-1-1.3c0.1-0.1,0.7,0.4,1.3,0.9
				C391.9,444,392.5,444.4,392.5,444.5z"/>
		</g>
	</g>
	<g>
		<g>
			<path class="st10" d="M191.5,367.1c-0.4,0.1,2.8,16.3,2.8,16.3h8.3l3.7-15.7C206.2,367.7,200.1,365.1,191.5,367.1z"/>
			<g>
				<path class="st3" d="M186.5,458.4c0,0-12.2-34.1-10.5-43.3c1.7-9.2,5.4-11.2,8.3-14.1c2.9-2.9,5.4-5.4,6.1-8.3
					c0.7-2.9,0-14.6,0-14.6s-2.2-3.4-1.5-4.6c0.7-1.2,18.7,0,18.7,0s0,1.9-1.5,4.1c0,0-0.5,13.6,0.2,15.1
					c0.7,1.5,11.9,13.9,13.6,20.2c1.7,6.3-6.7,45.5-6.7,45.5H186.5z"/>
				<g>
					<path class="st6" d="M186.5,458.4c0,0,0.2,0,0.5,0c0.3,0,0.8,0,1.4,0c1.2,0,3,0,5.3,0c4.6,0,11.3,0,19.7-0.1l-0.2,0.1
						c1-4.9,2.2-10.6,3.3-16.7c1.1-6.2,2.3-12.9,3.2-20.1c0.2-1.8,0.4-3.6,0.4-5.5c0-0.9,0-1.9-0.2-2.8c-0.2-0.9-0.6-1.8-1-2.6
						c-1.7-3.4-4.1-6.6-6.5-9.8c-1.2-1.6-2.5-3.2-3.8-4.8c-0.6-0.8-1.3-1.6-1.9-2.4c-0.2-0.2-0.3-0.4-0.5-0.7
						c-0.1-0.3-0.2-0.6-0.2-0.8c-0.1-0.5-0.1-1.1-0.1-1.6c-0.2-4.2-0.1-8.5,0.1-12.8l0-0.1l0-0.1c0.2-0.3,0.4-0.6,0.6-1
						c0.5-0.9,0.8-2,0.9-3l0.2,0.3c-4.1-0.3-8.2-0.5-12.1-0.5c-2,0-4-0.1-5.8,0.2c-0.2,0-0.5,0.1-0.5,0.2c-0.1,0.1-0.1,0.3-0.1,0.5
						c0,0.4,0.1,0.9,0.3,1.3c0.3,0.9,0.8,1.7,1.3,2.5l0,0.1l0,0.1c0.2,3.1,0.3,6.2,0.3,9.2c0,1.5,0,3-0.2,4.5
						c-0.1,1.5-0.8,2.9-1.6,4.1c-0.8,1.2-1.8,2.3-2.8,3.3c-1,1-2,2-3,3c-1,0.9-2,1.8-2.9,2.8c-0.9,1-1.6,2.1-2.1,3.3
						c-1.1,2.3-1.8,4.8-2.2,7.2c-0.2,1.2-0.1,2.4,0,3.6c0.1,1.2,0.2,2.3,0.4,3.5c0.7,4.5,1.8,8.6,2.7,12.4c2,7.4,3.9,13.3,5.2,17.3
						c0.7,2,1.2,3.5,1.5,4.6c0.2,0.5,0.3,0.9,0.4,1.2C186.5,458.2,186.5,458.4,186.5,458.4s-0.1-0.1-0.2-0.4
						c-0.1-0.3-0.2-0.7-0.4-1.2c-0.4-1-0.9-2.6-1.6-4.6c-1.3-4-3.3-9.9-5.3-17.3c-1-3.7-2.1-7.8-2.8-12.4c-0.2-1.1-0.3-2.3-0.4-3.5
						c-0.1-1.2-0.1-2.4,0-3.7c0.4-2.4,1.1-4.9,2.2-7.3c0.6-1.2,1.3-2.3,2.2-3.4c0.9-1,1.9-2,2.9-2.9c1-0.9,2-1.9,3-2.9
						c1-1,1.9-2.1,2.7-3.2c0.8-1.2,1.4-2.5,1.5-3.9c0.2-1.4,0.2-2.9,0.2-4.4c0-3-0.1-6.1-0.3-9.2l0,0.1c-0.5-0.8-1-1.7-1.3-2.6
						c-0.2-0.5-0.3-0.9-0.3-1.5c0-0.3,0-0.6,0.2-0.8c0.3-0.3,0.6-0.3,0.8-0.4c2-0.3,3.9-0.2,5.9-0.2c4,0.1,8,0.3,12.2,0.5l0.3,0
						l0,0.2c-0.1,1.2-0.4,2.2-0.9,3.3c-0.2,0.4-0.4,0.7-0.6,1l0-0.1c-0.1,4.3-0.3,8.6-0.1,12.8c0,0.5,0.1,1,0.1,1.5
						c0,0.3,0.1,0.5,0.2,0.7c0.1,0.2,0.3,0.4,0.4,0.6c0.6,0.8,1.3,1.6,1.9,2.4c1.3,1.6,2.6,3.2,3.8,4.8c2.4,3.2,4.8,6.4,6.5,9.9
						c0.4,0.9,0.8,1.8,1,2.7c0.2,1,0.2,1.9,0.2,2.9c0,1.9-0.2,3.7-0.4,5.5c-0.8,7.2-2.1,14-3.2,20.2c-1.2,6.2-2.3,11.8-3.4,16.7
						l0,0.1l-0.1,0c-8.5,0-15.2-0.1-19.8-0.1c-2.3,0-4,0-5.3,0c-0.6,0-1,0-1.3,0C186.7,458.4,186.5,458.4,186.5,458.4z"/>
				</g>
			</g>
			<path class="st7" d="M211.1,454.8c2.8-9.8,5.3-23.6,6.1-34.8c0.1-1.3,0.1-2.9-0.9-3.8c-1.2-1.1-3.1-0.5-4.7,0
				c-4.6,1.5-9.6,1.7-14.3,0.8c-4.6-0.9-9.2-3.1-13.8-2.3c-1.2,0.2-2.4,0.6-3,1.6c-0.8,1.1-0.6,2.6-0.4,3.9
				c1.8,11.4,5.6,24.6,8.6,34.5H211.1z"/>
		</g>
		<g>
			<path class="st2" d="M214.1,417.7c0,0-0.3,0.4-0.9,1c-0.6,0.6-1.5,1.4-2.8,2.2c-2.4,1.7-6.3,3.5-10.8,4.1
				c-4.6,0.6-8.7-0.3-11.5-1.3c-1.4-0.5-2.5-1.1-3.2-1.5c-0.7-0.4-1.1-0.7-1.1-0.7c0-0.1,1.6,0.9,4.4,1.8c2.8,0.9,6.9,1.7,11.3,1.1
				c4.5-0.6,8.2-2.3,10.7-3.9C212.8,418.9,214.1,417.6,214.1,417.7z"/>
		</g>
	</g>
</g>
</svg>
