<?xml version="1.0" encoding="utf-8"?>
<!-- Generator: Adobe Illustrator 23.0.1, SVG Export Plug-In . SVG Version: 6.00 Build 0)  -->
<svg version="1.1" xmlns="http://www.w3.org/2000/svg" xmlns:xlink="http://www.w3.org/1999/xlink" x="0px" y="0px"
	 viewBox="0 0 500 500" style="enable-background:new 0 0 500 500;" xml:space="preserve">
<style type="text/css">
	.st0{opacity:0.1;}
	.st1{fill:#EBEBEB;}
	.st2{opacity:0.1;fill:#E0E0E0;}
	.st3{fill:#E0E0E0;}
	.st4{fill:#F5F5F5;}
	.st5{display:none;}
	.st6{display:inline;fill:#EBEBEB;}
	.st7{fill:#263238;}
	.st8{fill:#455A64;}
	.st9{fill:#7879E8;}
	.st10{fill:#FFFFFF;}
	.st11{opacity:0.3;}
	.st12{opacity:0.2;}
	.st13{fill:#FFBE9D;}
	.st14{fill:#EB996E;}
	.st15{fill:#FAFAFA;}
</style>
<g id="Background_Complete">
	<g>
		<g class="st0">
			<path class="st1" d="M125.8,289.3c0,0-11,3.1-1.4,26.7c9.6,23.6,16.6,35.5,16.6,35.5s1.6,5.4-2.9,5.9c-4.5,0.4-14.1-1.9-16.5,3.3
				c-2.5,5.4,1.1,11.1,9,16.4c7.9,5.3,24.7,17.7,26.2,18.8c1.5,1.1,2.9,3.7-0.2,4.5c-3,0.8-25.1,1.2-24.3,11.7
				c0.8,10.5,25.2,21.8,27.8,23c2.6,1.3,3.2,2.5,2.8,4c-0.4,1.5-7.8,0.9-14.1,1.3c-6.3,0.4-13.5,1.9-12.5,7.9
				c1,6,14.8,19.6,50.7,26.2l16.8,2l10.4-13.5c20.5-30.2,20.5-49.6,17-54.5c-3.6-4.9-9.7-0.9-14.4,3.3c-4.7,4.2-9.5,9.9-10.8,9.1
				c-1.3-0.8-1.8-2-0.8-4.8c0.9-2.8,10-28,3.2-36c-6.9-7.9-22.7,7.5-25.4,9.1c-2.7,1.6-3.5-1.2-3.3-3c0.3-1.9,3.3-22.5,5-31.8
				c1.7-9.3,0.3-15.9-5.4-17.9c-5.4-2-10.5,6.5-14,9.4c-3.5,2.9-6.2-2.1-6.2-2.1s-3.5-13.4-13.5-36.8c-10-23.4-20.1-17.6-20.1-17.6"
				/>
		</g>
		<g>
			<g>
				<path class="st2" d="M201.8,473.5c-7.3-17.2-17.2-41.1-28-67.5c-10.8-26.4-20.7-50.3-27.9-67.6c-3.6-8.6-6.5-15.6-8.6-20.4
					c-1-2.4-1.8-4.3-2.3-5.6c-0.3-0.6-0.4-1.1-0.6-1.5c-0.1-0.3-0.2-0.5-0.2-0.5s0.1,0.2,0.2,0.5c0.2,0.3,0.4,0.8,0.6,1.4
					c0.6,1.3,1.4,3.1,2.4,5.5c2.1,4.8,5.1,11.8,8.7,20.4c7.3,17.2,17.2,41.1,28,67.5c10.8,26.4,20.7,50.3,27.9,67.6"/>
			</g>
		</g>
		<g>
			<g>
				<path class="st2" d="M134.9,364.5c0,0,0.4,0.1,1.2,0.4c0.7,0.3,1.8,0.8,3,1.4c2.6,1.2,6,2.9,9.8,4.9c3.7,2,7.1,3.7,9.7,5.1
					c1.2,0.6,2.1,1.1,2.9,1.5c0.7,0.4,1.1,0.6,1.1,0.6c0,0-0.4-0.1-1.2-0.4c-0.7-0.3-1.8-0.8-3-1.4c-2.5-1.2-6-3-9.8-5
					c-3.7-1.9-7.1-3.7-9.7-5c-1.2-0.6-2.1-1.1-3-1.5C135.3,364.7,134.9,364.5,134.9,364.5z"/>
			</g>
		</g>
		<g>
			<g>
				<path class="st2" d="M163.9,377.5c-0.1-0.1,3.1-7.4,7.3-16.4c4.2-9,7.6-16.2,7.8-16.1c0.1,0.1-3.1,7.4-7.3,16.4
					C167.6,370.3,164.1,377.5,163.9,377.5z"/>
			</g>
		</g>
		<g>
			<g>
				<path class="st2" d="M178.7,418.8c0,0,0.2-0.4,0.8-1c0.6-0.7,1.3-1.6,2.2-2.6c1.9-2.2,4.5-5.2,7.2-8.6c2.7-3.4,5.1-6.6,6.8-8.9
					c0.8-1.1,1.5-2,2-2.7c0.5-0.6,0.8-1,0.8-1c0,0-0.2,0.4-0.6,1.1c-0.4,0.7-1.1,1.7-1.9,2.8c-1.6,2.4-3.9,5.6-6.7,9
					c-2.7,3.4-5.4,6.4-7.3,8.5c-1,1-1.8,1.9-2.4,2.4C179.1,418.5,178.8,418.8,178.7,418.8z"/>
			</g>
		</g>
		<g>
			<g>
				<path class="st2" d="M149.9,412.8c0,0,0.4,0,1.2,0.1c0.7,0.1,1.8,0.3,3.1,0.5c2.6,0.5,6.2,1.1,10.2,1.9c4,0.8,7.6,1.5,10.2,2.1
					c1.3,0.3,2.3,0.5,3.1,0.7c0.7,0.2,1.1,0.3,1.1,0.3c0,0-0.4,0-1.2-0.1c-0.7-0.1-1.8-0.3-3.1-0.5c-2.6-0.5-6.2-1.1-10.2-1.9
					c-4-0.8-7.6-1.5-10.2-2.1c-1.3-0.3-2.3-0.5-3.1-0.7C150.3,413,149.9,412.8,149.9,412.8z"/>
			</g>
		</g>
		<g>
			<g>
				<path class="st2" d="M158.4,450.9c0,0,0.5,0,1.5,0.2c1.1,0.2,2.4,0.4,4,0.6c3.4,0.6,8,1.4,13.1,2.3c5.1,0.9,9.7,1.8,13,2.5
					c1.6,0.3,2.9,0.6,3.9,0.8c0.9,0.2,1.4,0.3,1.4,0.4c0,0-0.5,0-1.5-0.2c-1.1-0.2-2.4-0.4-4-0.6c-3.4-0.6-8-1.4-13.1-2.3
					c-5.1-0.9-9.7-1.8-13-2.5c-1.6-0.3-2.9-0.6-3.9-0.8C158.9,451.1,158.3,451,158.4,450.9z"/>
			</g>
		</g>
		<g>
			<g>
				<path class="st3" d="M194.5,457.3c0,0,0.3-0.5,0.9-1.3c0.7-0.9,1.6-2,2.7-3.4c2.3-2.8,5.4-6.8,8.8-11.2
					c3.4-4.4,6.3-8.5,8.4-11.5c1-1.4,1.8-2.6,2.5-3.5c0.6-0.8,0.9-1.3,1-1.3c0,0-0.2,0.5-0.8,1.4c-0.5,0.9-1.3,2.1-2.3,3.6
					c-2,3-4.9,7.2-8.3,11.6c-3.4,4.4-6.5,8.3-8.9,11.1c-1.2,1.4-2.2,2.5-2.8,3.2C194.9,456.9,194.5,457.3,194.5,457.3z"/>
			</g>
		</g>
	</g>
	<g>
		<g class="st0">
			<g>
				<g>
					<g>
						<path class="st4" d="M336,473.4c-23.9-15.3-30.3-45.2-30.5-72.3c0-4.5-0.7-9.3,1.3-13.3c2-4,6.9-7,11-5.2c3.4,1.4,5,5.3,7,8.5
							c2.7,4.2,6.5,7.6,11,9.7c2.9,1.4,6.5,2.2,9.3,0.5c3.8-2.3,4.1-7.7,3.9-12.2c-0.4-8.4-0.8-16.8-1.1-25.1
							c-0.2-4.5-0.4-9.1,0.8-13.4c1.2-4.3,4.2-8.4,8.4-9.8c4.2-1.4,9.6,0.9,10.7,5.3c0.4,1.8,0.1,3.7,0.3,5.6
							c0.2,1.9,1.1,3.9,2.9,4.3c1.8,0.5,3.6-0.9,4.9-2.3c4.5-4.7,7.4-10.7,10.1-16.6c2.7-5.9,5.3-12,9.4-17.1
							c4-5.1,9.7-9.3,16.1-9.9c6.4-0.6,13.4,3.1,15.3,9.3c1.9,6.3-1.6,12.8-5.4,18.1c-5.7,7.8-12.5,14.9-20.1,20.7
							c-1.4,1.1-2.9,2.2-3.3,3.9c-0.9,3,2.1,5.9,5.1,6.8c3.4,1,7,0.5,10.5,0.8c3.5,0.3,7.4,1.7,8.8,4.9c2,4.5-1.6,9.5-5.3,12.8
							c-7.3,6.6-15.8,11.9-24.9,15.7c-3.3,1.3-6.7,2.5-9.3,5c-2.6,2.4-4,6.5-2.3,9.6c1.7,3.1,5.9,4,9.4,3.2c3.4-0.8,6.5-2.8,9.7-4.2
							c6.1-2.6,14.1-2.5,18.2,2.7c2.7,3.4,3.2,8.3,2,12.5c-1.1,4.2-3.7,7.9-6.4,11.4c-9.4,12-21.8,21.9-35.9,27.4
							C363.6,476.2,350.4,478.1,336,473.4"/>
					</g>
				</g>
			</g>
		</g>
		<g>
			<g>
				<g>
					<g>
						<g>
							<path class="st2" d="M342.3,456.2c3.4-13.8,8.5-28.7,14.3-44c1.5-3.8,2.9-7.6,4.3-11.3c1.4-3.7,2.9-7.4,4.5-10.9
								c3.2-7.1,6.8-13.6,10.4-19.7c3.6-6.1,7.3-11.8,10.7-17c3.5-5.3,6.8-10.1,10-14.4c6.4-8.6,12.4-14.9,16.7-19.1
								c2.1-2.1,3.9-3.7,5-4.7c0.6-0.5,1-0.9,1.3-1.2c0.3-0.3,0.5-0.4,0.5-0.4c0,0-0.1,0.2-0.4,0.4c-0.3,0.3-0.7,0.7-1.3,1.2
								c-1.1,1.1-2.8,2.7-4.9,4.8c-4.2,4.2-10.1,10.6-16.4,19.2c-3.2,4.3-6.5,9.2-9.9,14.4c-3.4,5.3-7.1,11-10.6,17.1
								c-3.6,6.1-7.2,12.6-10.3,19.7c-1.6,3.5-3,7.2-4.4,10.9c-1.4,3.7-2.9,7.5-4.3,11.3c-5.8,15.3-10.8,30.1-14.3,43.9"/>
						</g>
					</g>
				</g>
			</g>
		</g>
		<g>
			<g>
				<g>
					<g>
						<g>
							<path class="st2" d="M365.6,389.9c-0.1,0-0.2-0.7-0.5-1.9c-0.3-1.2-0.6-3-1-5.3c-0.8-4.5-1.7-10.6-2.7-17.5
								c-1-6.8-2-13-2.9-17.4c-0.4-2.2-0.8-4-1.1-5.2c-0.3-1.2-0.4-1.9-0.3-1.9c0.1,0,0.3,0.6,0.6,1.9c0.4,1.2,0.8,3,1.3,5.2
								c1,4.4,2.1,10.6,3.1,17.4c0.9,6.7,1.8,12.8,2.5,17.5c0.3,2.1,0.6,3.9,0.8,5.3C365.6,389.1,365.7,389.8,365.6,389.9z"/>
						</g>
					</g>
				</g>
			</g>
		</g>
		<g>
			<g>
				<g>
					<g>
						<g>
							<path class="st2" d="M423,376.8c0,0.1-0.8,0.2-2.3,0.4c-1.5,0.2-3.6,0.5-6.3,0.9c-5.3,0.8-12.5,2.1-20.4,3.9
								c-7.9,1.8-15,3.8-20.1,5.4c-2.6,0.8-4.6,1.4-6,1.9c-1.4,0.5-2.2,0.7-2.2,0.6c0-0.1,0.7-0.4,2.1-0.9c1.4-0.6,3.4-1.3,6-2.2
								c5.1-1.7,12.2-3.8,20.1-5.6c8-1.8,15.2-3.1,20.5-3.7c2.7-0.3,4.8-0.5,6.3-0.6C422.2,376.7,423,376.7,423,376.8z"/>
						</g>
					</g>
				</g>
			</g>
		</g>
		<g>
			<g>
				<g>
					<g>
						<g>
							<path class="st3" d="M343,455.1c0,0-0.2-0.2-0.4-0.7c-0.3-0.6-0.6-1.2-1.1-2.1c-0.9-1.8-2.2-4.4-3.7-7.7
								c-3-6.5-7-15.6-11.2-25.8c-4.2-10.1-8-19.3-10.9-25.9c-1.4-3.2-2.6-5.8-3.5-7.8c-0.4-0.8-0.7-1.5-0.9-2.1
								c-0.2-0.5-0.3-0.8-0.3-0.8c0,0,0.2,0.2,0.4,0.7c0.3,0.6,0.6,1.2,1.1,2.1c0.9,1.8,2.2,4.4,3.7,7.7c3,6.5,7,15.6,11.2,25.8
								c4.2,10.1,8,19.3,10.9,25.8c1.4,3.2,2.6,5.8,3.5,7.8c0.4,0.8,0.7,1.5,0.9,2.1C342.9,454.8,343,455.1,343,455.1z"/>
						</g>
					</g>
				</g>
			</g>
		</g>
		<g>
			<g>
				<g>
					<g>
						<g>
							<path class="st2" d="M418.8,427.3c0,0-0.3,0.1-0.8,0.3c-0.6,0.2-1.3,0.5-2.2,0.8c-2,0.7-4.8,1.8-8.1,3
								c-6.9,2.5-16.3,6.1-26.7,10.1c-10.4,4-19.9,7.5-26.8,9.9c-3.5,1.2-6.3,2.1-8.2,2.7c-0.9,0.3-1.6,0.5-2.3,0.7
								c-0.5,0.1-0.8,0.2-0.8,0.2c0,0,0.3-0.1,0.7-0.3c0.6-0.2,1.3-0.5,2.2-0.8c2-0.7,4.8-1.8,8.1-3c6.9-2.5,16.3-6.1,26.7-10.1
								c10.4-4,19.9-7.5,26.8-9.9c3.5-1.2,6.3-2.1,8.2-2.7c0.9-0.3,1.6-0.5,2.3-0.7C418.5,427.3,418.8,427.3,418.8,427.3z"/>
						</g>
					</g>
				</g>
			</g>
		</g>
	</g>
	<g class="st0">
		<path class="st3" d="M393.1,98.3l-17.3,51.5c-1.4,4.2,0.5,8.8,4.5,10.7l0,0c4.2,2,9.3,0.4,11.5-3.7l26.2-48.2
			c2-3.6,0.3-8.2-3.5-9.7l-12.3-4.8C398.5,92.6,394.4,94.5,393.1,98.3z"/>
		<path class="st3" d="M382.1,194.1c-4.8,5.5-13.1,6.2-18.7,1.4c-5.5-4.8-6.2-13.1-1.4-18.7c4.8-5.5,13.1-6.2,18.7-1.4
			C386.2,180.2,386.9,188.6,382.1,194.1z"/>
	</g>
	<g class="st0">
		<path class="st3" d="M421.5,189.4l6.3,18.6c0.5,1.5,2.1,2.4,3.6,2.1l0,0c1.7-0.3,2.8-1.9,2.5-3.6l-3-19.6c-0.2-1.5-1.7-2.4-3.1-2
			l-4.6,1.3C421.9,186.6,421.1,188.1,421.5,189.4z"/>
		<path class="st3" d="M439.3,219.4c-0.2,2.6-2.4,4.6-5.1,4.5c-2.6-0.2-4.6-2.4-4.5-5.1c0.2-2.6,2.4-4.6,5.1-4.5
			C437.5,214.5,439.5,216.8,439.3,219.4z"/>
	</g>
</g>
<g id="Background_Simple" class="st5">
	<path class="st6" d="M447.9,102.3c-12.4-30.4-35.5-57.6-66.1-69.3c-30.7-11.8-68.9-5.6-90.6,19.1c-35,39.8-18,109-55.7,146.2
		c-21.2,20.9-53.4,24.9-83.2,27.5c-29.7,2.6-61.8,5.9-83.8,26.1c-19.6,18-22.8,35.9-23,62.6c-0.3,51.5,24.4,82.7,60.5,99.9
		c33.3,16.8,82.5,25.1,103.4,25.1c107,4,118.3-25.1,162.9-56.8c27.3-19.4,56.3-55.1,69.7-85.7c13.4-30.6,18.5-64.4,19.7-97.8
		C463,166.3,460.3,132.7,447.9,102.3z"/>
</g>
<g id="Floor">
	<g>
		<path class="st7" d="M475.5,477.3c0,0.1-101,0.3-225.5,0.3c-124.6,0-225.5-0.1-225.5-0.3s101-0.3,225.5-0.3
			C374.5,477,475.5,477.2,475.5,477.3z"/>
	</g>
</g>
<g id="Character">
	<g>
		<g>
			<path class="st7" d="M303.8,164.2c-1.3,4.8-2.6,9.7-2.3,14.7c0.3,5,2.6,10.1,7,12.5c5,2.7,12.6,2.3,14.7,7.6
				c1.4,3.6-0.9,8.2,1.1,11.5c2.9,4.7,10.7,2,15.2,5.2c3.5,2.4,4,7.4,3.6,11.7c-0.4,4.3-1.2,8.9,0.9,12.6c2.5,4.3,8.2,6,10.5,10.3
				c2.9,5.4-0.6,11.9-4.4,16.6c-3.9,4.7-8.5,9.7-8.2,15.8l-71.8,2.2l-4.5-114.3L303.8,164.2z"/>
			<g>
				<path class="st8" d="M310.2,214.4c-0.1,0-0.1-0.5-0.5-1.5c-0.4-0.9-1.2-2.1-2.5-3.3c-1.3-1.2-3.2-2.3-5.4-3.2
					c-2.2-0.9-4.7-1.8-7.1-3.2c-1.2-0.7-2.3-1.6-3.1-2.7c-0.8-1-1.5-2.2-1.9-3.3c-0.8-2.3-0.9-4.5-0.8-6.3c0.1-1.8,0.3-3.3,0.5-4.3
					c0.1-0.5,0.2-0.9,0.2-1.1c0.1-0.3,0.1-0.4,0.1-0.4c0,0,0,0.6-0.2,1.6c-0.1,1-0.3,2.5-0.3,4.2c0,1.8,0.1,4,0.9,6.2
					c0.4,1.1,1,2.2,1.8,3.2c0.8,1,1.8,1.8,3,2.5c2.3,1.4,4.8,2.3,7,3.2c2.2,0.9,4.1,2.1,5.4,3.3c1.4,1.2,2.1,2.6,2.5,3.5
					c0.2,0.5,0.3,0.9,0.3,1.1C310.2,214.3,310.2,214.4,310.2,214.4z"/>
			</g>
		</g>
		<g>
			<path class="st7" d="M200,432.6l-8.3,44.7h164c0,0-5.6-26.5-29-55.8L200,432.6z"/>
			<path class="st9" d="M197.6,389.8l-5.9-85.5l9.7-87.6l53.2-7.4l38.9,4.3l26.6,89.9l7.2,80.1c0,0,3.8,12.6,8.2,27.4
				c2.4,8.2-0.9,17.1-8.2,21.5c-6.3,3.8-15.8,6.8-29.5,5.4c-31.5-3.3-67.3-9-84.6-6.2s-19.7-1.2-19.7-1.2s-5.5-5.3-3.8-11.5
				C191.5,412.7,197.6,389.8,197.6,389.8z"/>
			<g>
				<path class="st10" d="M325.6,383c0,0-0.1,0.1-0.4,0.4c-0.4,0.3-0.8,0.6-1.3,1c-1.2,0.9-2.9,2.1-4.9,3.6
					c-4.2,3.1-9.8,7.5-16,12.4c-6.2,4.9-11.8,9.3-15.9,12.5c-2.1,1.6-3.7,2.8-4.9,3.7c-0.5,0.4-1,0.7-1.4,1
					c-0.3,0.2-0.5,0.3-0.5,0.3c0,0,0.1-0.2,0.4-0.4c0.3-0.3,0.8-0.6,1.3-1.1c1.2-0.9,2.8-2.2,4.8-3.8c4.1-3.3,9.7-7.7,15.8-12.6
					c6.2-4.9,11.9-9.2,16.1-12.2c2.1-1.5,3.8-2.7,5-3.5c0.6-0.4,1-0.7,1.4-0.9C325.5,383.1,325.6,383,325.6,383z"/>
			</g>
			<g>
				<path class="st7" d="M282.7,240.4c-0.1,0.1-1.3-1.4-2.7-3.2c-1.4-1.9-2.4-3.5-2.3-3.5c0.1-0.1,1.3,1.4,2.7,3.2
					C281.7,238.7,282.8,240.3,282.7,240.4z"/>
			</g>
			<g>
				<path class="st7" d="M289.1,227.2c-0.1,0.1-1.3-1.7-3.3-3.2c-2.1-1.5-4.1-2.1-4.1-2.3c0-0.1,2.2,0.2,4.4,1.8
					C288.2,225.2,289.2,227.2,289.1,227.2z"/>
			</g>
			<g>
				<path class="st7" d="M238.7,238.7c0.1,0.1-1.3,1.6-2.1,4c-0.8,2.4-0.6,4.4-0.8,4.4c-0.1,0-0.6-2.1,0.3-4.6
					C237,240.1,238.6,238.6,238.7,238.7z"/>
			</g>
			<g>
				<path class="st7" d="M218.4,221.2c0,0.2-2.3,0.2-5.1,0.6c-2.8,0.4-5,1-5.1,0.9c0-0.1,2.1-1,5-1.4
					C216.1,220.9,218.4,221.1,218.4,221.2z"/>
			</g>
			<g class="st11">
				<path d="M198.1,382.2c13.7-5.7,23-18.9,28.5-32.7c5.6-13.8,8.2-28.6,13.2-42.5c1.5-4.1,4-8.8,8.4-8.9c3.6-0.1,6.3,3,8.3,5.9
					c9.6,13.8,15.7,29.6,23.1,44.7c7.4,15.1,16.6,30,30.5,39.4c2.6,1.7,5.4,3.3,8.5,3.5c3.1,0.2,6.5-1.4,7.5-4.4
					c0.4-1.2,0.4-2.5,0.4-3.8c-0.1-7.5-0.3-15.1-0.4-22.6c-0.1-8.2-0.3-16.5-3.4-24.1c-4.5-11-14.4-18.7-23.5-26.3
					c-12-10.1-23.3-21-32.4-33.8c-3.2-4.5-6.2-9.4-10.6-12.8c-4.4-3.4-10.6-5.2-15.6-2.7c-5.6,2.7-7.7,9.4-9.3,15.4
					c-9.1,34-19.3,67.8-30.6,101.1"/>
			</g>
			<path class="st9" d="M196.8,377.4c10.1-0.9,17.8-12,20.5-21.7l22.1-77.9l-33.7-22.6L192.2,300l9.3-83.4c0,0-30.9,7.8-38.2,45.3
				c-6.1,31.8-8.3,61.4-6.8,73C156.5,335,156.7,380.8,196.8,377.4z"/>
			<path class="st9" d="M254.3,284.4c0,0,15.3,38.8,30.5,61.3c14.5,21.5,38.9,43.2,54.6,40.6c15.7-2.6,23.9-42.6,23.9-57.6
				c0-15-19.2-76.5-19.2-76.5s-3.8-34.6-37.3-38.7l-23.5-1.1l35.7,88.5l-15-17.9c0,0,1.9-4.8-0.5-10.1c-2.4-5.3-18.3-18.8-18.3-18.8
				L254.3,284.4z"/>
			<g>
				<path class="st7" d="M193,288.9c0,0-0.2-0.4-0.4-1.2c-0.2-0.8-0.5-2-0.9-3.4c-0.8-2.8-2.2-6.7-4.1-10.7
					c-1.9-4.1-4.1-7.5-5.8-9.9c-0.8-1.2-1.5-2.2-2-2.8c-0.5-0.7-0.8-1-0.7-1.1c0,0,0.3,0.3,0.9,0.9c0.5,0.6,1.3,1.6,2.2,2.7
					c1.8,2.4,4,5.8,6,9.9c1.9,4.1,3.2,8,4,10.9c0.4,1.4,0.6,2.6,0.8,3.4C193,288.5,193.1,288.9,193,288.9z"/>
			</g>
			<g>
				<path class="st7" d="M302.5,336.5c0,0-0.1-0.2-0.2-0.5c-0.2-0.4-0.3-0.9-0.6-1.5c-0.2-0.6-0.5-1.4-0.8-2.4
					c-0.3-0.9-0.6-2-0.9-3.2c-0.3-1.2-0.6-2.5-0.9-4c-0.3-1.4-0.5-3-0.8-4.6c-0.4-3.3-0.7-6.9-0.6-10.6c0.1-3.8,0.5-7.4,1-10.6
					c0.3-1.6,0.6-3.2,0.9-4.6c0.3-1.4,0.7-2.7,1-3.9c0.3-1.2,0.7-2.2,1-3.2c0.3-0.9,0.6-1.7,0.9-2.4c0.3-0.6,0.5-1.1,0.6-1.5
					c0.1-0.3,0.2-0.5,0.2-0.5s0,0.2-0.2,0.5c-0.1,0.4-0.3,0.9-0.5,1.5c-0.2,0.6-0.5,1.4-0.8,2.4c-0.3,0.9-0.7,2-1,3.2
					c-0.3,1.2-0.7,2.5-1,3.9c-0.3,1.4-0.6,2.9-0.9,4.5c-0.5,3.2-0.9,6.8-0.9,10.6c-0.1,3.8,0.2,7.3,0.6,10.6
					c0.2,1.6,0.4,3.2,0.7,4.6c0.2,1.4,0.5,2.7,0.8,3.9c0.3,1.2,0.6,2.3,0.8,3.2c0.2,0.9,0.5,1.8,0.7,2.4c0.2,0.6,0.3,1.1,0.5,1.5
					C302.4,336.3,302.5,336.5,302.5,336.5z"/>
			</g>
			<g>
				<path class="st7" d="M343.7,345.7c0,0,0-0.2,0-0.5c0-0.4,0.1-0.8,0.1-1.3c0.1-0.6,0.1-1.3,0.1-2.1c0-0.8,0.1-1.8,0-2.8
					c0-0.5-0.1-1.1-0.1-1.6c0-0.6-0.1-1.2-0.2-1.8c-0.1-1.2-0.4-2.5-0.7-3.9c-0.6-2.7-1.5-5.6-2.8-8.5c-1.3-2.9-2.9-5.5-4.5-7.8
					c-0.8-1.1-1.6-2.2-2.5-3.1c-0.4-0.5-0.8-0.9-1.2-1.3c-0.4-0.4-0.8-0.8-1.2-1.2c-0.7-0.8-1.5-1.3-2.1-1.9c-0.6-0.6-1.2-1-1.7-1.3
					c-0.4-0.3-0.8-0.6-1.1-0.8c-0.2-0.2-0.4-0.3-0.4-0.3c0,0,0.2,0.1,0.4,0.2c0.3,0.2,0.7,0.5,1.1,0.7c0.5,0.3,1.1,0.7,1.7,1.3
					c0.6,0.5,1.4,1.1,2.2,1.8c0.4,0.4,0.8,0.7,1.2,1.1c0.4,0.4,0.8,0.9,1.2,1.3c0.9,0.9,1.7,2,2.5,3.1c1.6,2.3,3.3,4.9,4.6,7.8
					c1.3,3,2.2,5.9,2.8,8.6c0.3,1.4,0.5,2.7,0.6,3.9c0.1,0.6,0.2,1.2,0.2,1.8c0,0.6,0,1.1,0.1,1.7c0.1,1.1,0,2,0,2.8
					c0,0.8-0.1,1.6-0.2,2.1c-0.1,0.5-0.1,1-0.2,1.3C343.8,345.5,343.7,345.7,343.7,345.7z"/>
			</g>
			<g>
				<path class="st7" d="M344.7,318.4c-0.1,0-0.9-0.9-2.2-2.5c-1.3-1.5-3.2-3.7-5.5-5.6c-2.3-2-4.8-3.3-6.8-3.7
					c-2-0.4-3.2-0.1-3.2-0.2c0,0,0.3-0.1,0.9-0.2c0.3-0.1,0.6-0.1,1-0.1c0.2,0,0.4,0,0.7,0c0.2,0,0.5,0.1,0.7,0.1
					c2.1,0.3,4.7,1.6,7.1,3.6c2.4,2,4.2,4.2,5.5,5.8c0.6,0.8,1.1,1.5,1.4,1.9C344.5,318.1,344.7,318.3,344.7,318.4z"/>
			</g>
			<g>
				<path class="st7" d="M351.7,311.2c-0.1,0.2-3.7-2-8.7-3c-5-1-9.1-0.2-9.2-0.4c0-0.1,1-0.3,2.7-0.5c1.7-0.1,4-0.1,6.6,0.4
					c2.5,0.5,4.7,1.4,6.2,2.1C350.9,310.6,351.7,311.2,351.7,311.2z"/>
			</g>
			<g>
				<path class="st7" d="M329.9,225.3c0,0-0.2,0.1-0.5,0.3c-0.4,0.2-0.9,0.4-1.4,0.7c-0.3,0.2-0.7,0.3-1,0.5
					c-0.4,0.2-0.8,0.5-1.2,0.7c-0.8,0.5-1.8,1.1-2.8,1.9c-0.5,0.4-1,0.8-1.6,1.2c-0.5,0.4-1,1-1.6,1.5c-1.1,1-2.1,2.2-3.2,3.4
					c-2.1,2.6-4.1,5.7-5.8,9.1c-3.4,6.9-5.1,13.7-6,18.7c-0.3,1.2-0.4,2.4-0.6,3.4c-0.2,1-0.3,1.8-0.4,2.5c-0.1,0.7-0.2,1.2-0.2,1.6
					c-0.1,0.4-0.1,0.6-0.1,0.6c0,0,0-0.2,0-0.6c0-0.4,0.1-1,0.1-1.6c0.1-0.7,0.1-1.6,0.3-2.6c0.1-1,0.3-2.1,0.5-3.4
					c0.9-5,2.5-11.9,5.9-18.8c1.7-3.5,3.8-6.6,5.9-9.2c1.1-1.2,2.1-2.5,3.3-3.4c0.6-0.5,1.1-1,1.6-1.4c0.6-0.4,1.1-0.8,1.6-1.2
					c1-0.8,2-1.3,2.9-1.9c0.4-0.3,0.8-0.5,1.2-0.7c0.4-0.2,0.7-0.3,1.1-0.5c0.6-0.3,1.1-0.5,1.5-0.7
					C329.7,225.3,329.9,225.3,329.9,225.3z"/>
			</g>
			<g>
				<path class="st7" d="M183.6,314.7c0,0,0-0.1,0.1-0.3c0.1-0.2,0.2-0.5,0.3-0.8c0.3-0.7,0.6-1.8,1.1-3.2c1-2.8,2.4-6.9,4.2-12.1
					c3.7-10.4,8.9-25.1,15.1-42.4l0.1-0.3l0.2,0.1c5.5,3.2,10.7,7.1,16.6,10.8c5.9,3.6,12,7.3,18.3,11.1l0.2,0.1l-0.1,0.2
					c-0.4,1.2-0.7,2.6-1.1,3.9c-9,31.2-17.1,59.2-22.4,77.9l0,0l0,0c-3.4,7.6-7.6,13.1-11.4,15.7c-1.9,1.3-3.6,1.9-4.8,2
					c-0.6,0.1-1,0.1-1.3,0.1c-0.3,0-0.5,0-0.5,0s0.2,0,0.5,0c0.3,0,0.7,0,1.3-0.1c1.2-0.2,2.9-0.7,4.7-2c3.7-2.6,7.8-8.1,11.2-15.6
					l0,0c5.3-18.6,13.3-46.7,22.3-77.9c0.4-1.3,0.8-2.7,1.1-3.9l0.1,0.3c-6.3-3.8-12.4-7.5-18.2-11.1c-5.8-3.7-11.1-7.7-16.5-10.8
					l0.3-0.1c-6.2,17.3-11.5,32-15.2,42.4c-1.9,5.1-3.3,9.2-4.4,12c-0.5,1.4-0.9,2.4-1.2,3.2c-0.1,0.3-0.2,0.6-0.3,0.8
					C183.6,314.6,183.6,314.7,183.6,314.7z"/>
			</g>
			<g>
				<path class="st7" d="M184.4,314c0,0.1-1.3,0.6-3.4,1.8c-2,1.2-4.7,3.1-7.2,5.6c-2.5,2.6-4.3,5.3-5.4,7.4
					c-1.1,2.1-1.6,3.5-1.7,3.4c0,0,0.1-0.4,0.3-1c0.2-0.6,0.6-1.5,1.1-2.6c1-2.1,2.8-5,5.4-7.6c2.5-2.6,5.3-4.5,7.4-5.6
					c1.1-0.6,1.9-1,2.6-1.2C184,314.1,184.4,314,184.4,314z"/>
			</g>
			<g>
				<path class="st7" d="M184.8,311.1c0,0.1-1,0-2.7,0.1c-1.6,0-3.9,0.2-6.4,0.7c-2.5,0.5-4.6,1.2-6.2,1.8c-1.5,0.6-2.5,1-2.5,1
					c0-0.1,0.8-0.6,2.4-1.3c1.5-0.7,3.7-1.5,6.2-2c2.5-0.5,4.8-0.6,6.5-0.5C183.7,310.8,184.8,311,184.8,311.1z"/>
			</g>
			<g>
				<path class="st7" d="M328.9,384.8c0,0-0.2-0.1-0.6-0.2c-0.4-0.2-1-0.4-1.7-0.7c-0.7-0.3-1.7-0.6-2.8-1.2
					c-1.1-0.5-2.3-1.2-3.7-1.9c-5.4-3-12.8-8.3-20.5-16.4c-7.8-8-15.7-18.7-23.2-31.4c-7.5-12.7-14.5-27.3-20.5-43.2
					c-0.7-1.8-1.3-3.6-1.9-5.4l-0.1-0.2l0.1-0.1c12.3-11.9,23.9-23.2,34.3-33.3l0.2-0.2l0.2,0.2c5.1,5.6,9.7,11.1,13.1,16.8
					c0.8,1.4,1.6,2.8,2.2,4.3c0.6,1.5,1.1,3,1.1,4.5c0,0.8-0.3,1.5-0.5,2.2c-0.2,0.7-0.4,1.4-0.5,2.1c-0.1,0.7-0.1,1.4,0,2
					c0.1,0.6,0.5,1.2,1,1.4l0.1,0l0,0c6.6,6.8,11.8,12.3,15.4,16c1.8,1.9,3.2,3.3,4.1,4.3c0.5,0.5,0.8,0.9,1,1.1
					c0.2,0.3,0.3,0.4,0.3,0.4s-0.1-0.1-0.4-0.4c-0.3-0.3-0.6-0.6-1.1-1.1c-1-1-2.4-2.4-4.2-4.2c-3.6-3.7-8.9-9.1-15.5-15.9l0.1,0
					c-0.8-0.2-1.2-1-1.3-1.7c-0.2-0.7-0.1-1.4,0-2.1c0.1-0.7,0.3-1.4,0.5-2.1c0.2-0.7,0.4-1.4,0.4-2.1c0-1.5-0.5-2.9-1-4.4
					c-0.6-1.4-1.4-2.8-2.2-4.3c-3.4-5.6-7.9-11.1-13.1-16.7l0.3,0c-10.4,10.1-22,21.4-34.3,33.4l0.1-0.3c0.6,1.8,1.2,3.6,1.9,5.3
					c6,15.9,13,30.5,20.4,43.1c7.4,12.7,15.3,23.4,23,31.4c7.6,8.1,15,13.4,20.4,16.5c1.4,0.7,2.6,1.4,3.7,1.9c1,0.6,2,0.9,2.8,1.3
					c0.7,0.3,1.3,0.6,1.7,0.7C328.7,384.7,328.9,384.8,328.9,384.8z"/>
			</g>
			<g>
				<path class="st7" d="M272.2,339.7c0,0-0.5,0-1.4-0.1c-0.9-0.1-2.1-0.3-3.7-0.7c-3-0.8-7.1-2.6-10.7-5.9
					c-3.6-3.3-5.7-7.2-6.7-10.2c-0.5-1.5-0.8-2.7-1-3.6c-0.1-0.9-0.2-1.4-0.2-1.4c0.1,0,0.3,1.9,1.5,4.8c1.1,2.9,3.2,6.7,6.7,10
					c3.5,3.2,7.5,5.1,10.4,5.9C270.3,339.5,272.3,339.6,272.2,339.7z"/>
			</g>
			<g>
				<path class="st7" d="M303.4,406.4c0,0-0.1,0.1-0.2,0.2c-0.2,0.1-0.4,0.3-0.7,0.4c-0.6,0.4-1.5,0.9-2.5,1.6
					c-0.6,0.4-1.2,0.7-1.8,1.2c-0.7,0.4-1.5,0.8-2.3,1.2c-1.6,0.9-3.5,2-5.6,2.9c-1.1,0.5-2.2,1-3.3,1.5c-1.2,0.5-2.4,1-3.7,1.5
					c-2.5,1.1-5.4,1.9-8.3,2.8c-6,1.7-12.7,3-19.8,3.7c-7.1,0.6-14,0.4-20.1-0.1c-3.1-0.4-6-0.7-8.7-1.3c-1.3-0.3-2.7-0.5-3.9-0.8
					c-1.2-0.3-2.4-0.6-3.6-0.9c-2.3-0.5-4.3-1.3-6-1.8c-0.9-0.3-1.7-0.5-2.5-0.8c-0.7-0.3-1.4-0.6-2-0.8c-1.2-0.5-2.1-0.9-2.8-1.2
					c-0.3-0.1-0.5-0.2-0.7-0.3c-0.2-0.1-0.2-0.1-0.2-0.1c0,0,0.1,0,0.3,0.1c0.2,0.1,0.4,0.2,0.7,0.3c0.7,0.3,1.6,0.6,2.8,1.1
					c0.6,0.2,1.3,0.5,2,0.8c0.7,0.3,1.6,0.5,2.5,0.8c1.8,0.5,3.8,1.3,6,1.8c1.1,0.3,2.3,0.6,3.6,0.9c1.2,0.3,2.6,0.5,3.9,0.7
					c2.7,0.6,5.6,0.9,8.7,1.2c6.1,0.5,12.9,0.7,20,0.1c7.1-0.7,13.7-2,19.7-3.6c2.9-0.9,5.8-1.7,8.3-2.7c1.3-0.5,2.5-0.9,3.7-1.4
					c1.2-0.5,2.3-1,3.3-1.5c2.2-0.9,4-2,5.6-2.8c0.8-0.4,1.6-0.8,2.3-1.2c0.7-0.4,1.3-0.8,1.9-1.1c1.1-0.7,2-1.2,2.6-1.5
					c0.3-0.2,0.5-0.3,0.7-0.4C303.3,406.5,303.4,406.4,303.4,406.4z"/>
			</g>
			<g>
				<path class="st7" d="M289.7,380.8c0,0-0.1,0.2-0.2,0.5c-0.2,0.4-0.4,0.8-0.7,1.3c-0.3,0.6-0.7,1.3-1.2,2.1
					c-0.5,0.8-1.1,1.7-1.8,2.7c-0.4,0.5-0.7,1-1.1,1.5c-0.4,0.5-0.8,1-1.3,1.6c-0.9,1.1-1.9,2.2-3,3.3c-2.2,2.2-4.8,4.6-7.8,6.7
					c-3,2.1-6,3.9-8.8,5.3c-1.4,0.7-2.8,1.3-4.1,1.8c-1.3,0.5-2.5,0.9-3.7,1.3c-1.1,0.4-2.2,0.6-3.1,0.9c-0.9,0.3-1.7,0.4-2.4,0.5
					c-0.6,0.1-1.1,0.2-1.5,0.3c-0.3,0.1-0.5,0.1-0.5,0.1c0,0,0.2-0.1,0.5-0.2c0.4-0.1,0.9-0.2,1.5-0.4c0.6-0.1,1.4-0.3,2.3-0.6
					c0.9-0.3,1.9-0.5,3.1-0.9c1.1-0.4,2.4-0.8,3.6-1.3c1.3-0.5,2.6-1.2,4.1-1.8c2.8-1.4,5.8-3.1,8.7-5.2c2.9-2.1,5.5-4.4,7.7-6.6
					c1.1-1.1,2.1-2.2,3-3.3c0.4-0.5,0.9-1,1.3-1.5c0.4-0.5,0.8-1,1.1-1.5c0.7-0.9,1.3-1.8,1.9-2.6c0.5-0.8,1-1.5,1.3-2
					c0.3-0.5,0.6-1,0.8-1.3C289.6,380.9,289.7,380.8,289.7,380.8z"/>
			</g>
			<g>
				<path class="st7" d="M266.6,287.1c-0.1,0.1-1.8-1.6-3-4.3c-1.3-2.6-1.6-5-1.4-5c0.2,0,0.7,2.2,1.9,4.8
					C265.3,285.2,266.7,287,266.6,287.1z"/>
			</g>
			<g>
				<path class="st7" d="M276.1,277c-0.1,0.1-1.2-2.1-2.4-4.8c-1.2-2.7-2.1-5-1.9-5.1c0.1-0.1,1.2,2.1,2.4,4.8
					C275.4,274.7,276.3,276.9,276.1,277z"/>
			</g>
			<g>
				<path class="st7" d="M286.4,267.3c-0.1,0-0.9-2-2.2-4.4c-1.3-2.4-2.6-4.2-2.4-4.3c0.1-0.1,1.6,1.6,2.9,4.1
					C286,265.1,286.6,267.3,286.4,267.3z"/>
			</g>
			<g>
				<path class="st7" d="M223.7,282.7c-0.1,0,0.5-2.8,1.5-6.2c0.5-1.8,1-3.4,1.4-4.5l0,0c0.2-1,0.3-1.6,0.4-1.6c0.1,0,0,0.6-0.1,1.6
					l0,0l0,0c-0.3,1.1-0.7,2.7-1.2,4.6C224.7,280.1,223.8,282.8,223.7,282.7z"/>
			</g>
			<g>
				<path class="st7" d="M213.1,261.1c0.1,0-0.4,2-1.2,4.3c-0.8,2.3-1.5,4.2-1.7,4.1c-0.1,0,0.4-2,1.2-4.3
					C212.2,262.9,213,261,213.1,261.1z"/>
			</g>
			<g class="st12">
				<path d="M184,314.5c-0.1-1.7-1.3-3.1-2.9-3.9c-1.5-0.8-3.2-0.9-4.9-1.1c2.5-1,5-1.9,6.9-3.8c2.2-2.1,3.4-5,4.5-7.8
					c2.5-6.4,5.1-13.6,2.7-20c-0.4-1-0.6-2.6,0.5-2.7c0.7-0.1,1.2,0.7,1.5,1.3c1,2.2,2,4.5,3,6.7"/>
			</g>
			<g class="st12">
				<path d="M250,322.3c-0.4,4.1,0.2,8.3,1.8,12c1.5,3.5,4,6.7,7.5,8.2c3.5,1.4,8.1,0.6,10.2-2.7c-4.2-1.5-8.6-3.1-12.1-5.9
					c-3.6-2.7-6.4-6.9-6.4-11.4"/>
			</g>
			<g>
				<path class="st10" d="M314.5,215.7c0,0-0.1,0.1-0.3,0.3c-0.2,0.2-0.5,0.5-0.9,0.9c-0.9,0.8-2.1,2-3.7,3.4
					c-3.2,3-7.9,7.3-13.6,12.5c-11.5,10.6-27.4,25.1-45,41.2c-1.6,1.4-3.1,2.9-4.6,4.2l-0.2,0.2l-0.2-0.2
					c-16.9-14.7-32.1-27.8-43-37.2c-5.4-4.7-9.8-8.5-12.8-11.2c-1.5-1.3-2.6-2.3-3.5-3c-0.4-0.3-0.7-0.6-0.9-0.8
					c-0.2-0.2-0.3-0.3-0.3-0.3c0,0,0.1,0.1,0.3,0.2c0.2,0.2,0.5,0.4,0.9,0.8c0.8,0.7,2,1.7,3.5,3c3.1,2.6,7.5,6.4,12.9,11.1
					c10.9,9.4,26.1,22.5,43.1,37.1l-0.3,0c1.5-1.3,3-2.8,4.6-4.2c17.6-16.1,33.5-30.6,45.1-41.1c5.8-5.2,10.5-9.5,13.7-12.4
					c1.6-1.4,2.9-2.6,3.7-3.4c0.4-0.4,0.7-0.7,1-0.9C314.4,215.7,314.5,215.6,314.5,215.7z"/>
			</g>
			<g>
				<path class="st10" d="M347.7,268c0,0-0.6,0.1-1.7,0.2c-0.6,0-1.2,0.1-2,0.2c-0.8,0.1-1.7,0.2-2.7,0.4c-1,0.2-2.1,0.3-3.2,0.6
					c-1.2,0.2-2.4,0.6-3.6,0.9c-2.5,0.8-5.2,1.8-8,3.1c-2.7,1.3-5.2,2.8-7.4,4.3c-1.1,0.8-2.1,1.5-3,2.2c-0.9,0.7-1.7,1.4-2.5,2.1
					c-0.8,0.6-1.4,1.3-2,1.8c-0.6,0.5-1,1-1.4,1.5c-0.8,0.8-1.2,1.3-1.2,1.2c0,0,0.4-0.5,1.1-1.4c0.4-0.4,0.8-1,1.4-1.5
					c0.6-0.6,1.2-1.2,1.9-1.9c0.7-0.7,1.5-1.4,2.5-2.2c0.9-0.8,1.9-1.5,3-2.3c2.2-1.5,4.7-3,7.5-4.4c2.8-1.3,5.5-2.3,8.1-3.1
					c1.3-0.3,2.5-0.7,3.7-0.9c1.2-0.3,2.2-0.4,3.2-0.6c1-0.2,1.9-0.2,2.7-0.3c0.8-0.1,1.5-0.1,2-0.1
					C347.1,267.9,347.7,267.9,347.7,268z"/>
			</g>
			<g>
				<path class="st10" d="M351.7,375.2c0,0,0.1-0.2,0.2-0.6c0.2-0.5,0.4-1,0.7-1.8c0.3-0.8,0.7-1.7,1.1-2.8c0.2-0.6,0.4-1.2,0.6-1.8
					c0.1-0.3,0.2-0.6,0.3-1c0.1-0.3,0.2-0.7,0.3-1.1c0.4-1.4,0.8-3,1-4.7c0.1-0.9,0.3-1.7,0.4-2.7c0.1-0.9,0.2-1.9,0.2-2.9
					c0.2-3.9-0.1-8.2-1.1-12.7c-1-4.4-2.6-8.5-4.3-12c-1.7-3.6-3.6-6.6-5.2-9.1c-1.7-2.5-3.1-4.4-4.1-5.7c-0.5-0.6-0.9-1.1-1.1-1.5
					c-0.3-0.4-0.4-0.5-0.4-0.6c0,0,0.2,0.2,0.5,0.5c0.3,0.4,0.7,0.9,1.2,1.5c1.1,1.3,2.5,3.2,4.2,5.7c1.6,2.5,3.6,5.5,5.3,9.1
					c1.7,3.6,3.4,7.6,4.3,12.1c1,4.5,1.3,8.8,1.1,12.8c-0.1,1-0.2,1.9-0.3,2.9c-0.1,0.9-0.3,1.8-0.4,2.7c-0.2,1.7-0.7,3.3-1.1,4.8
					c-0.1,0.4-0.2,0.7-0.3,1.1c-0.1,0.3-0.2,0.7-0.4,1c-0.2,0.6-0.4,1.2-0.6,1.8c-0.4,1.1-0.8,2-1.2,2.8c-0.3,0.7-0.6,1.3-0.8,1.7
					C351.8,375,351.7,375.2,351.7,375.2z"/>
			</g>
			<g>
				<path class="st10" d="M305,367.8c0-0.1,1,0.5,2.9,0.3c1.9-0.2,4.6-1.4,6.5-4.3c2-2.8,3.1-6.8,4.5-11.1c1.3-4.3,2.3-9.2,3-14.4
					c1.4-10.4,0.7-19.9-0.3-26.7c-0.5-3.4-1.1-6.1-1.6-8c-0.2-0.9-0.4-1.6-0.5-2.1c-0.1-0.5-0.2-0.8-0.1-0.8s0.1,0.2,0.2,0.7
					c0.2,0.5,0.4,1.2,0.6,2.1c0.5,1.9,1.1,4.6,1.7,8c1.1,6.8,1.8,16.4,0.5,26.8c-0.7,5.2-1.7,10.1-3,14.5c-1.4,4.3-2.6,8.3-4.6,11.2
					c-1,1.4-2.2,2.5-3.4,3.2c-1.2,0.7-2.4,1-3.4,1.1c-1,0.1-1.7,0-2.2-0.2C305.2,367.9,305,367.8,305,367.8z"/>
			</g>
			<g>
				<path class="st10" d="M297.4,300.4c0,0-0.2,0.4-0.8,1.1c-0.3,0.4-0.6,0.8-1,1.3c-0.4,0.5-0.9,1-1.5,1.5c-0.6,0.5-1.2,1.1-2,1.7
					c-0.7,0.6-1.6,1.1-2.4,1.7c-1.8,1.1-3.9,2.1-6.2,2.9c-2.3,0.8-4.6,1.2-6.7,1.4c-1.1,0.1-2.1,0.2-3,0.1c-0.9,0-1.8-0.1-2.6-0.2
					c-0.8-0.1-1.5-0.2-2.1-0.3c-0.6-0.1-1.2-0.2-1.6-0.4c-0.9-0.2-1.3-0.4-1.3-0.4c0-0.1,1.9,0.5,5,0.8c0.8,0.1,1.6,0.1,2.6,0.1
					c0.9,0,1.9-0.1,2.9-0.2c2.1-0.2,4.3-0.7,6.6-1.4c2.3-0.8,4.3-1.8,6.1-2.8c0.9-0.6,1.7-1.1,2.4-1.7c0.8-0.5,1.4-1.1,2-1.6
					C296.2,302,297.3,300.4,297.4,300.4z"/>
			</g>
			<g>
				<path class="st10" d="M310,289.5c0,0,0,0.4,0,1.1c0,0.7-0.1,1.7-0.4,2.9c-0.2,1.2-0.6,2.6-1.1,4.2c-0.5,1.5-1.2,3.2-2.1,4.8
					c-0.9,1.6-1.9,3.1-2.9,4.4c-1,1.3-2,2.3-2.9,3.2c-0.9,0.8-1.7,1.5-2.2,1.9c-0.6,0.4-0.9,0.6-0.9,0.6c-0.1-0.1,1.1-1,2.8-2.7
					c0.9-0.9,1.8-1.9,2.8-3.2c1-1.3,1.9-2.7,2.8-4.4c0.9-1.6,1.6-3.2,2.1-4.7c0.5-1.5,0.9-2.9,1.2-4.1
					C309.8,291,309.9,289.5,310,289.5z"/>
			</g>
			<g>
				<path class="st10" d="M289.3,350.8c0,0,0,0.1-0.1,0.2c-0.1,0.1-0.3,0.3-0.5,0.5c-0.4,0.5-1,1.1-1.8,1.8
					c-1.6,1.6-3.9,3.9-6.7,6.7c-5.8,5.7-13.7,13.5-22.5,22.2l-0.1,0.1l-0.2-0.1c-0.5-0.3-1-0.6-1.5-0.8
					c-11.1-6.4-21.1-12.2-28.4-16.4c-3.6-2.1-6.5-3.8-8.6-5c-1-0.6-1.8-1-2.3-1.4c-0.2-0.1-0.4-0.3-0.6-0.4
					c-0.1-0.1-0.2-0.1-0.2-0.1c0,0,0.1,0,0.2,0.1c0.2,0.1,0.4,0.2,0.6,0.3c0.6,0.3,1.4,0.8,2.4,1.3c2.1,1.2,5,2.8,8.7,4.9
					c7.3,4.2,17.4,9.9,28.5,16.3c0.5,0.3,1,0.6,1.5,0.8l-0.3,0c8.9-8.7,16.8-16.5,22.6-22.1c2.9-2.8,5.2-5,6.9-6.6
					c0.8-0.7,1.4-1.3,1.9-1.8c0.2-0.2,0.4-0.3,0.5-0.5C289.2,350.9,289.3,350.8,289.3,350.8z"/>
			</g>
			<g>
				<path class="st10" d="M254.6,328.5c0,0,0,0.1,0,0.3c0,0.2,0,0.6-0.2,1c-0.3,0.8-1.2,1.8-2.7,2.3c-1.5,0.5-3.5,0-5.2-1
					c-1.7-1.1-3.4-2.4-5.2-3.8c-3.6-2.8-6.9-5.3-9.3-7.1c-1.1-0.9-2-1.6-2.8-2.2c-0.6-0.5-1-0.8-1-0.9c0,0,0.4,0.2,1.1,0.7
					c0.8,0.6,1.7,1.2,2.9,2.1c2.4,1.8,5.7,4.2,9.4,7c1.8,1.4,3.5,2.8,5.2,3.8c1.6,1,3.4,1.5,4.8,1.1c1.4-0.4,2.3-1.3,2.7-2
					C254.6,329,254.5,328.5,254.6,328.5z"/>
			</g>
			<g>
				<path class="st10" d="M269.1,315.4c0,0.1-1,0.5-2.7,1.4c-1.7,0.8-4,2.1-6.3,3.6c-2.4,1.6-4.4,3.2-5.8,4.4c-1.4,1.2-2.3,2-2.3,2
					c0,0,0.7-0.9,2.1-2.2c1.4-1.3,3.4-3,5.8-4.6c2.4-1.6,4.7-2.8,6.5-3.5C268,315.7,269.1,315.3,269.1,315.4z"/>
			</g>
			<g class="st11">
				<path d="M303.2,283.8c-5.2,13.5-6.2,27.4-4.4,41.8c0.4,3,1.9,7.2,3,9.9c1.2,2.8,3.1,5.3,5.9,6.6c2.5,1.1,5.8,0.9,7.5-1.2
					c1.2-1.5,1.4-3.6,1.2-5.6c-0.4-5-2.7-9.7-4.6-14.3c-4.8-11.8-7.8-24.4-8.8-37.2"/>
			</g>
			<g class="st11">
				<path d="M338,310.8c5.2,4.1,8.8,10.1,10.1,16.6c0.3,1.7,0.5,3.6,1.5,5.1c0.9,1.5,2.9,2.6,4.5,1.8c2-0.9,2-3.7,1.6-5.8
					c-2.1-9.6-9.8-17.7-19.3-20.5"/>
			</g>
			<g>
				<path class="st10" d="M255.7,423.4c-0.1,0.1-12.6-6.9-28-15.7c-15.4-8.8-27.8-16-27.7-16.1c0.1-0.1,12.6,6.9,28,15.7
					C243.3,416,255.7,423.3,255.7,423.4z"/>
			</g>
			<g>
				<path class="st10" d="M275.3,419.4c0,0-0.3,0.3-1,0.8c-0.7,0.5-1.7,1.2-2.8,2c-2.3,1.7-5.6,3.9-9.2,6.4c-1,0.7-1.9,1.3-2.8,1.9
					l-0.1,0.1l-0.1-0.1c-3.1-1.7-5.9-3.3-7.8-4.4c-0.9-0.5-1.6-1-2.3-1.3c-0.5-0.3-0.8-0.5-0.8-0.5c0,0,0.3,0.1,0.9,0.4
					c0.6,0.3,1.4,0.7,2.3,1.2c2,1,4.7,2.5,7.9,4.2l-0.3,0c0.9-0.6,1.8-1.3,2.8-1.9c3.6-2.5,6.9-4.7,9.3-6.3c1.1-0.7,2.1-1.4,2.9-1.9
					C274.9,419.6,275.3,419.4,275.3,419.4z"/>
			</g>
			<g class="st11">
				<path d="M297.7,410.4c-3.5-4-9.5-5-14.7-3.8c-5.2,1.2-9.8,4.1-14.4,6.8c-4.6,2.7-9.4,5.4-14.7,6c-6.2,0.7-12.3-1.5-18.4-2.7
					c-6.1-1.2-13.2-1.2-17.7,3.1c0,0,19.5,6.6,42.8,3C277.8,420,297.7,410.4,297.7,410.4z"/>
			</g>
			<g>
				<path class="st10" d="M224.8,323.4c0,0-0.6,0-1.7-0.2c-0.5-0.1-1.2-0.2-1.9-0.3c-0.8-0.1-1.6-0.3-2.6-0.5
					c-1.9-0.4-4.1-1.1-6.5-1.9c-2.4-0.9-5-2-7.6-3.3c-2.6-1.4-5-2.8-7.1-4.3c-2.1-1.5-3.9-2.9-5.3-4.2c-0.7-0.6-1.4-1.2-1.9-1.8
					c-0.6-0.5-1-1-1.4-1.4c-0.7-0.8-1.1-1.2-1.1-1.3c0,0,0.5,0.4,1.3,1.1c0.4,0.4,0.9,0.8,1.4,1.3c0.6,0.5,1.2,1.1,2,1.7
					c1.5,1.2,3.3,2.6,5.4,4.1c2.1,1.4,4.5,2.9,7.1,4.2c2.6,1.3,5.2,2.4,7.6,3.3c2.4,0.9,4.6,1.5,6.4,2c0.9,0.3,1.8,0.4,2.5,0.6
					c0.7,0.2,1.4,0.3,1.9,0.4C224.2,323.2,224.8,323.4,224.8,323.4z"/>
			</g>
			<g>
				<path class="st10" d="M166,363.4c0,0-0.1-0.2-0.2-0.5c-0.1-0.4-0.2-0.9-0.3-1.4c-0.1-0.3-0.2-0.7-0.2-1
					c-0.1-0.4-0.1-0.8-0.2-1.3c-0.1-0.9-0.3-1.9-0.4-3.1c0-0.6-0.1-1.2-0.1-1.8c0-0.6,0-1.3,0-2c0-1.4,0.1-2.8,0.2-4.3
					c0.3-3,1-6.3,2-9.7c1.1-3.3,2.5-6.4,4-9c0.8-1.3,1.5-2.5,2.4-3.6c0.4-0.5,0.8-1.1,1.2-1.6c0.4-0.5,0.8-0.9,1.2-1.4
					c0.7-0.9,1.5-1.6,2.1-2.3c0.3-0.3,0.6-0.6,0.9-0.9c0.3-0.3,0.6-0.5,0.8-0.7c0.5-0.4,0.8-0.7,1.1-1c0.3-0.2,0.4-0.3,0.4-0.3
					c0,0-0.1,0.1-0.3,0.4c-0.3,0.3-0.6,0.6-1.1,1c-0.2,0.2-0.5,0.5-0.8,0.7c-0.3,0.3-0.5,0.6-0.9,0.9c-0.6,0.7-1.3,1.4-2,2.3
					c-0.4,0.4-0.7,0.9-1.1,1.4c-0.4,0.5-0.7,1-1.1,1.6c-0.8,1.1-1.5,2.3-2.3,3.6c-1.5,2.6-2.9,5.7-3.9,9c-1.1,3.3-1.7,6.6-2.1,9.6
					c-0.1,1.5-0.3,2.9-0.3,4.3c0,0.7,0,1.3,0,1.9c0,0.6,0.1,1.2,0.1,1.8c0,1.1,0.2,2.2,0.3,3.1c0.1,0.5,0.1,0.9,0.2,1.3
					c0.1,0.4,0.1,0.7,0.2,1c0.1,0.6,0.2,1.1,0.3,1.5C166,363.2,166,363.4,166,363.4z"/>
			</g>
			<g>
				<path class="st10" d="M188.7,298.7c0,0-0.4-0.2-1.1-0.8c-0.8-0.6-1.8-1.3-3-2.2c-2.6-1.9-6-4.4-9.8-7.2
					c-3.9-2.8-7.4-5.4-9.9-7.2c-1.3-0.9-2.3-1.7-2.9-2.2c-0.7-0.5-1.1-0.9-1-0.9c0,0,0.4,0.2,1.2,0.7c0.8,0.6,1.8,1.3,3,2.1
					c2.6,1.8,6.1,4.3,9.9,7.1c3.9,2.8,7.3,5.4,9.8,7.4c1.2,1,2.2,1.8,2.9,2.3C188.4,298.3,188.7,298.6,188.7,298.7z"/>
			</g>
		</g>
		<g>
			<g>
				<g>
					<path class="st7" d="M295.9,97.1c0.4,10.3,14.1,16.5,13.9,26.8c-0.1,4.4-2.8,8.4-3.3,12.7c-0.7,5.9,2.6,11.4,3.8,17.2
						c2.5,12-4.4,24.6-14.8,31.1c-10.3,6.5-23.3,7.8-35.4,6.1"/>
				</g>
				<g>
					<g>
						<path class="st7" d="M213.2,94.6c0.4,5.5-3.2,10.4-6.9,14.6c-3.7,4.1-7.7,8.4-8.5,13.9c-1.4,9.7,8.1,18.7,6.1,28.3
							c-1,5.1-5.3,9.3-6,14.5c-0.7,5,2,9.9,5.3,13.8c3.3,3.8,7.2,3.3,10.2,7.4c3.1,4.4,8.1,8.8,12.8,11.4
							c10.6,5.8,23.4-2.6,28.5-4.1"/>
					</g>
					<g>
						<path class="st7" d="M297.9,103c0.1-5-4.5-8.9-9.1-10.7c-4.7-1.8-9.8-2.5-14-5.3c-3.7-2.5-6.1-6.3-9.3-9.5
							c-7.6-7.7-19.5-10.9-30-8.1c-10.5,2.9-19.1,11.7-21.8,22.2c-1.8,7.1-0.6,15.5,5,20.3c6.5,5.5,16.2,4.3,24.5,2.6
							c8.3-1.7,17.8-3.4,24.8,1.5c4.2,3,6.6,7.8,9.2,12.2c2.6,4.4,5.8,9,10.7,10.7c4.9,1.7,11.5-1.2,11.6-6.3"/>
					</g>
					<g>
						<g>
							<g>
								<g>
									<g>
										<g>
											<g>
												<g>
													<g>
														<g>
															<g>
																<g>
																	<g>
																		<g>
																			<path class="st13" d="M231.5,219.4c-0.1-11.5-0.1-22.6-0.1-22.6c0,0-18.2-3.1-21.9-26.9
																				c-1.9-11.8-1.2-31.2-0.2-47.1c0.9-14.3,10.4-31.8,24.6-30.2l44.4,11.3c4.3,0.5,7.6,4.2,7.5,8.5l0,0l-4.1,107.7
																				c-0.5,13.7-11.9,24.4-25.6,24.1l0,0C242.5,244.1,231.6,233,231.5,219.4z"/>
																		</g>
																	</g>
																</g>
															</g>
														</g>
													</g>
												</g>
												<g>
													<g>
														<g>
															<g>
																<g>
																	<g>
																		<g>
																			<g>
																				<path class="st7" d="M216.8,136.5c-0.1,1.6,1.3,3,2.9,3.1c1.7,0.1,3.1-1.1,3.2-2.7c0.1-1.6-1.3-3-2.9-3.1
																					C218.2,133.7,216.8,134.9,216.8,136.5z"/>
																			</g>
																		</g>
																	</g>
																</g>
															</g>
														</g>
													</g>
													<g>
														<g>
															<g>
																<g>
																	<g>
																		<g>
																			<g>
																				<g>
																					<path class="st7" d="M213.4,133c0.4,0.4,2.7-1.3,6-1.3c3.3,0,5.7,1.7,6,1.3c0.2-0.2-0.2-0.9-1.3-1.7
																						c-1-0.8-2.8-1.5-4.8-1.5c-2,0-3.8,0.8-4.8,1.5C213.5,132.1,213.2,132.8,213.4,133z"/>
																				</g>
																			</g>
																		</g>
																	</g>
																</g>
															</g>
														</g>
													</g>
												</g>
												<g>
													<g>
														<g>
															<g>
																<g>
																	<g>
																		<g>
																			<g>
																				<path class="st7" d="M248.6,137.3c-0.1,1.6,1.3,3,2.9,3.1c1.7,0.1,3.1-1.1,3.2-2.7c0.1-1.6-1.3-3-2.9-3.1
																					C250.1,134.5,248.7,135.7,248.6,137.3z"/>
																			</g>
																		</g>
																	</g>
																</g>
															</g>
														</g>
													</g>
													<g>
														<g>
															<g>
																<g>
																	<g>
																		<g>
																			<g>
																				<g>
																					<path class="st7" d="M245.6,133.7c0.4,0.4,2.7-1.3,6-1.3c3.3,0,5.7,1.7,6,1.3c0.2-0.2-0.2-0.9-1.3-1.7
																						c-1-0.8-2.8-1.5-4.8-1.5c-2,0-3.8,0.8-4.8,1.5C245.8,132.8,245.5,133.5,245.6,133.7z"/>
																				</g>
																			</g>
																		</g>
																	</g>
																</g>
															</g>
														</g>
													</g>
												</g>
												<g>
													<g>
														<g>
															<g>
																<g>
																	<g>
																		<g>
																			<g>
																				<path class="st7" d="M233.7,158c0-0.2-2-0.5-5.3-1c-0.8-0.1-1.6-0.3-1.8-0.8c-0.2-0.6,0.2-1.5,0.6-2.5
																					c0.8-2,1.6-4.2,2.5-6.4c3.5-9.1,6-16.5,5.6-16.7c-0.4-0.1-3.5,7.1-6.9,16.2c-0.8,2.2-1.6,4.4-2.4,6.4
																					c-0.3,1-0.9,2-0.4,3.3c0.2,0.6,0.8,1.1,1.4,1.2c0.5,0.2,1,0.2,1.4,0.2C231.6,158.2,233.7,158.2,233.7,158z"/>
																			</g>
																		</g>
																	</g>
																</g>
															</g>
														</g>
													</g>
												</g>
												<g>
													<g>
														<g>
															<g>
																<g>
																	<g>
																		<g>
																			<path class="st14" d="M231.3,196.8c0,0,16,1.1,31.9-8.4c-0.3,0.1-8.8,16.5-31.6,14L231.3,196.8z"/>
																		</g>
																	</g>
																</g>
															</g>
														</g>
													</g>
												</g>
											</g>
										</g>
									</g>
									<g>
										<g>
											<g>
												<g>
													<g>
														<g>
															<g>
																<path class="st7" d="M245,117.4c0.1,0.9,3.4,1.4,6.9,2.9c3.6,1.4,6.3,3.3,7,2.6c0.3-0.3,0-1.3-1-2.4
																	c-1-1.2-2.7-2.5-4.8-3.3c-2.2-0.8-4.3-1-5.8-0.9C245.8,116.5,245,117,245,117.4z"/>
															</g>
														</g>
													</g>
												</g>
											</g>
										</g>
									</g>
									<g>
										<g>
											<g>
												<g>
													<g>
														<g>
															<g>
																<path class="st7" d="M214.1,123.7c0.7,0.6,2.8-0.6,5.4-1.2c2.6-0.7,5-0.5,5.4-1.4c0.2-0.4-0.4-1.1-1.5-1.6
																	c-1.1-0.5-2.9-0.7-4.7-0.3c-1.7,0.2-2.9,0.7-4,2.4C213.9,122.6,213.7,123.4,214.1,123.7z"/>
															</g>
														</g>
													</g>
												</g>
											</g>
										</g>
									</g>
								</g>
							</g>
						</g>
					</g>
					<g>
						<path class="st7" d="M288.3,183.6c-6.5,1.3-7.1-2-12-6.6c-4.9-4.5-7.4-11.5-6.6-18.1c0.7-5.8,3.9-11.8,1.9-17.3
							c-2.7-7.3-12.9-9.6-15.6-16.9c-1.6-4.2-0.2-9.2-2-13.4c-1.7-3.9-5.8-6.2-9.8-7.6c-4-1.4-8.3-2.4-11.6-5.1
							c-3.4-2.6-5.5-7.5-3.3-11.2c17.7,2.1,35.2,6.4,52,12.6c3.9,1.4,8,3.2,10.3,6.6c2.4,3.7,2.3,8.4,2.1,12.7
							c-1,21.4-2,42.7-3,64.1"/>
					</g>
				</g>
				<g>
					<path class="st7" d="M303.2,135.1c0.8-7.8,7.1-14.8,14.9-16.2c7.7-1.4,16.2,2.8,19.7,9.9c3.3,6.7,2.2,14.9-0.9,21.7
						c-3.7,8.1-11.2,15.5-20.1,15.1c-8.4-0.4-15.1-7.7-17.5-15.7c-2.4-8-1.4-16.6-0.4-24.9"/>
				</g>
				<g>
					<g>
						<path class="st8" d="M307.9,167.6c0,0,0.6-0.4,1.2-1.4c0.7-1,1.4-2.6,1.8-4.8c0.3-2.1,0.3-4.7-0.2-7.5
							c-0.5-2.8-1.4-5.7-2.1-8.8c-0.7-3.1-1-6.1-0.5-8.8c0.5-2.6,1.7-4.9,2.3-7c0.6-2.1,0.5-3.9,0.1-5.1c-0.4-1.2-0.9-1.7-0.9-1.6
							c-0.1,0,0.3,0.6,0.5,1.7c0.2,1.1,0.2,2.8-0.5,4.8c-0.6,2-1.9,4.2-2.5,7c-0.6,2.8-0.3,6,0.4,9.2c0.7,3.2,1.7,6.1,2.2,8.8
							c0.5,2.7,0.7,5.2,0.4,7.2C309.7,165.6,307.7,167.5,307.9,167.6z"/>
					</g>
				</g>
				<g>
					<g>
						<path class="st8" d="M308.2,139.1c-0.1,0.1,1,1.7,3.6,3.6c2.6,1.8,6.8,3.7,11.7,3.8c4.9,0.1,9.2-1.7,11.8-3.4
							c2.7-1.8,3.9-3.4,3.8-3.4c-0.1-0.1-1.5,1.3-4.2,2.8c-2.6,1.5-6.7,3.1-11.4,3c-4.7-0.1-8.7-1.8-11.3-3.4
							C309.7,140.4,308.4,139,308.2,139.1z"/>
					</g>
				</g>
				<g>
					<g>
						<path class="st8" d="M309.4,142.8c-0.1,0,0.5,1.6,2,3.7c1.5,2.1,4.1,4.8,7.6,6.9c3.5,2.1,7.1,3.1,9.7,3.5
							c2.6,0.3,4.2,0.1,4.2,0c0-0.2-1.6-0.2-4.1-0.8c-2.5-0.5-5.9-1.6-9.2-3.6c-3.3-2-5.9-4.5-7.5-6.5
							C310.4,144.1,309.6,142.7,309.4,142.8z"/>
					</g>
				</g>
				<g>
					<g>
						<path class="st8" d="M303.4,175.6c0,0,0.1-0.1,0.3-0.3c0.1-0.2,0.4-0.5,0.7-1c0.5-0.9,1.2-2.3,1.6-4.2c0.4-1.9,0.4-4.4-0.4-7
							c-0.7-2.7-2.6-5.5-5.5-7.4c-2.8-2-6.5-3.4-8.8-6.5c-1.2-1.5-1.7-3.6-1.3-5.6c0.3-2,1.3-4,2.1-6.2c1.8-4.3,1.8-9.6-0.3-14.2
							c-1.1-2.3-2.7-4.4-4.8-6c-2.1-1.6-4.7-2.4-7.3-3c-2.6-0.6-5.1-0.9-7.5-1.6c-2.4-0.7-4.7-1.8-6.3-3.4c-1.7-1.7-2.4-3.9-2.7-6.2
							c-0.3-2.3-0.5-4.7-1.1-6.9c-1.2-4.5-3.4-8.4-6.4-11.3c-3-2.9-6.6-4.5-10.1-5c-3.5-0.5-6.7,0.1-9.2,1.4c-2.5,1.3-4.2,3-5.3,4.6
							c-1.1,1.6-1.6,3.1-1.9,4c-0.2,1-0.2,1.5-0.2,1.5c0.2,0.1,0.2-2.2,2.4-5.3c1.1-1.5,2.8-3.2,5.2-4.3c2.4-1.2,5.5-1.7,8.8-1.2
							c3.3,0.5,6.8,2.2,9.6,4.9c2.8,2.7,5,6.6,6.1,10.9c0.6,2.2,0.7,4.4,1.1,6.8c0.3,2.4,1.1,5,3,6.8c1.8,1.9,4.3,3,6.7,3.7
							c2.5,0.8,5.1,1.1,7.6,1.7c2.5,0.6,5,1.4,6.9,2.8c2,1.4,3.5,3.4,4.5,5.6c2,4.4,2.1,9.3,0.3,13.4c-0.8,2.1-1.7,4.1-2.1,6.4
							c-0.4,2.2,0.2,4.6,1.5,6.2c2.6,3.4,6.4,4.7,9.1,6.6c2.8,1.8,4.6,4.5,5.4,7c0.8,2.5,0.8,4.9,0.5,6.8
							C304.9,173.9,303.3,175.5,303.4,175.6z"/>
					</g>
				</g>
				<g>
					<g>
						<path class="st8" d="M301.8,109.2c0,0,0.2-0.3,0.3-1.1c0.1-0.7,0-1.9-0.8-3.2c-0.7-1.2-2.1-2.5-4-3.3
							c-1.9-0.7-4.4-0.7-6.8-0.2c-2.5,0.5-5.1,1.5-7.9,2c-2.8,0.5-6.1,0.6-8.6-1.4c-2.5-1.9-3.8-5.3-5.1-8.6
							c-1.3-3.4-3.1-6.8-5.5-9.8c-4.8-6-11.4-10.2-18-11.6c-3.3-0.7-6.6-0.6-9.5,0.2c-2.9,0.9-5.3,2.5-7,4.5c-1.7,2-2.5,4.3-2.6,6.3
							c-0.2,2,0.2,3.8,0.8,5.1c0.5,1.3,1.3,2.2,1.8,2.7c0.5,0.5,0.9,0.7,0.9,0.7c0.1-0.1-1.3-1-2.3-3.6c-0.5-1.3-0.8-3-0.6-4.9
							c0.2-1.9,1-4.1,2.6-5.9c1.6-1.8,3.9-3.3,6.6-4.1c2.7-0.8,5.9-0.8,9-0.1c6.3,1.5,12.7,5.5,17.4,11.4c2.4,2.9,4.1,6.2,5.4,9.5
							c1.3,3.3,2.6,6.8,5.5,9c1.4,1.1,3.1,1.6,4.7,1.8c1.6,0.2,3.2,0,4.7-0.3c2.9-0.6,5.5-1.6,7.9-2.1c2.4-0.5,4.7-0.6,6.5,0
							c1.8,0.6,3.1,1.8,3.8,3c0.8,1.1,0.9,2.2,0.9,2.9C301.9,108.8,301.8,109.2,301.8,109.2z"/>
					</g>
				</g>
			</g>
			<g>
				<path class="st8" d="M309.3,170.8c0,0-0.1,0.4-0.5,1.1c-0.4,0.7-1,1.7-1.8,2.9c-1.7,2.3-4.6,5.1-8.6,7c-4,1.9-8.1,2.3-10.9,2.2
					c-1.4-0.1-2.6-0.2-3.4-0.4c-0.8-0.2-1.2-0.3-1.2-0.3c0-0.1,1.7,0.3,4.6,0.4c2.8,0,6.8-0.5,10.7-2.3c3.9-1.8,6.8-4.6,8.6-6.8
					C308.5,172.3,309.2,170.7,309.3,170.8z"/>
			</g>
		</g>
		<g>
			<g>
				<path class="st13" d="M234.5,180.5l10.6,15.4l2,8.9c0,0,0.4-2.8,0.9-5.5c0.6-2.7,0-10.8,0-10.8l-7.8-11.6c0,0-4.5-6.4-0.7-10.2
					l7.6,7.5c0,0-6.4-9-2-12.3l6.2,5.3c0,0-1.8-2.1,0.6-3.8l16.1,15.5l2,25.9l-0.9,27.4l16,21L262,276c0,0-21.7-35.4-23-40.8
					c-1.3-5.4-0.1-35.1-0.1-35.1s-6.6-9.5-6.5-13.7C232.6,182.2,234.5,180.5,234.5,180.5z"/>
				<g>
					<path class="st14" d="M252.8,259.8c0,0-0.1-0.1-0.2-0.2c-0.1-0.2-0.3-0.4-0.5-0.7c-0.4-0.6-1-1.6-1.8-2.8
						c-1.6-2.5-3.9-6.1-6.7-10.9c-1.4-2.4-2.9-5.1-4.2-8.2c-0.7-1.6-0.9-3.4-1-5.2c-0.1-1.8-0.2-3.7-0.2-5.6
						c-0.1-7.8,0.1-16.6,0.4-26.2l0.1,0.3c-1.9-2.8-3.8-5.8-5.3-9.2c-0.4-0.8-0.7-1.7-1-2.6c-0.1-0.5-0.2-0.9-0.3-1.4l-0.1-0.8
						l0-0.7c0.1-1,0.2-1.9,0.6-2.9c0.3-1,0.8-1.8,1.5-2.7l0.4-0.4l0.3,0.5c3.4,4.9,7,10.1,10.7,15.4l0.1,0.1l0,0.1
						c0.6,2.8,1.3,5.8,2.1,8.9l-1,0c0.2-1.3,0.4-2.6,0.7-3.9c0.1-0.7,0.2-1.3,0.3-2c0.1-0.6,0.1-1.3,0.2-2c0.1-2.7-0.1-5.5-0.2-8.3
						l0.1,0.3c-1.5-2.3-3.1-4.6-4.7-7c-0.8-1.2-1.6-2.4-2.4-3.6c-0.4-0.6-0.8-1.2-1.2-1.9c-0.4-0.7-0.7-1.3-1-2
						c-0.5-1.3-0.9-2.7-0.8-4.1c0-1.4,0.6-2.9,1.7-3.9l0.4-0.4l0.4,0.4c2.6,2.5,5.1,5,7.6,7.5l-0.8,0.7c-1.3-2-2.4-4-3.2-6.2
						c-0.3-1.1-0.6-2.3-0.5-3.5c0.1-1.2,0.7-2.5,1.7-3.2l0.3-0.2l0.3,0.3c2.2,2,4.3,3.9,6.4,5.8l-0.7,0.7c-0.5-0.8-0.8-1.6-0.7-2.5
						c0-0.9,0.6-1.8,1.3-2.3l0.3-0.2l0.3,0.3c5.6,5.3,10.9,10.4,16.1,15.3l0.1,0.1l0,0.2c0.7,9.3,1.3,18,1.9,25.9l0,0l0,0
						c-0.4,10.5-0.7,19.7-1,27.3l-0.1-0.2c4.8,6.5,8.6,11.7,11.3,15.2c1.3,1.8,2.3,3.1,3,4.1c0.3,0.5,0.6,0.8,0.7,1.1
						c0.2,0.2,0.2,0.4,0.2,0.4c0,0-0.1-0.1-0.3-0.3c-0.2-0.2-0.5-0.6-0.8-1c-0.7-0.9-1.7-2.2-3.1-4c-2.7-3.5-6.6-8.6-11.5-15
						l-0.1-0.1l0-0.1c0.2-7.7,0.5-16.8,0.7-27.4l0,0c-0.6-7.9-1.3-16.6-2-25.9l0.1,0.3c-5.1-4.8-10.5-9.9-16.1-15.2l0.6,0
						c-0.5,0.4-0.9,0.9-0.9,1.5c0,0.6,0.2,1.3,0.5,1.9l2,3.1l-2.7-2.4c-2.1-1.9-4.2-3.8-6.4-5.8l0.6,0c-0.8,0.6-1.2,1.5-1.3,2.5
						c-0.1,1,0.1,2.1,0.4,3.1c0.7,2.1,1.8,4.1,3,5.9l-0.8,0.7c-2.5-2.5-5-5-7.6-7.5l0.7,0c-0.9,0.8-1.3,2-1.4,3.2
						c0,1.2,0.2,2.5,0.7,3.7c0.3,0.7,0.6,1.3,0.9,1.9c0.3,0.6,0.8,1.2,1.2,1.8c0.8,1.2,1.6,2.4,2.4,3.6c1.6,2.4,3.2,4.7,4.7,7
						l0.1,0.1l0,0.1c0.2,2.8,0.3,5.6,0.2,8.4c0,0.7-0.1,1.4-0.2,2.1c-0.1,0.7-0.2,1.3-0.3,2c-0.2,1.3-0.4,2.6-0.7,3.9l-0.4,2.5
						l-0.6-2.5c-0.7-3.1-1.4-6.1-2-8.9l0.1,0.2c-3.7-5.4-7.2-10.5-10.6-15.5l0.7,0.1c-0.5,0.6-1,1.4-1.3,2.3
						c-0.3,0.9-0.5,1.8-0.5,2.7c-0.2,1.8,0.5,3.5,1.2,5.1c1.5,3.3,3.3,6.3,5.2,9.1l0.1,0.1l0,0.1c-0.4,9.6-0.6,18.4-0.6,26.2
						c0,1.9,0.1,3.8,0.1,5.6c0.1,1.8,0.2,3.5,0.9,5c1.2,3.1,2.8,5.7,4.1,8.2c2.7,4.8,5,8.5,6.5,11c0.8,1.2,1.3,2.2,1.7,2.9
						c0.2,0.3,0.3,0.6,0.4,0.7C252.7,259.7,252.8,259.8,252.8,259.8z"/>
				</g>
			</g>
			<g>
				<path class="st14" d="M257.5,200.9c-0.1,0-0.4-1.7-0.6-4.4c-0.2-2.8-0.5-6.6-0.7-10.8c0-0.4,0-0.8-0.1-1.2l0.1,0.3
					c-2.6-2.9-5-5.6-6.6-7.5c-1.6-1.9-2.6-3.2-2.5-3.3c0.1-0.1,1.2,1,3,2.8c1.8,1.8,4.2,4.4,6.8,7.3l0.1,0.1l0,0.2
					c0,0.4,0,0.8,0.1,1.2c0.2,4.2,0.4,8,0.4,10.8C257.7,199.1,257.6,200.9,257.5,200.9z"/>
			</g>
			<g>
				<path class="st14" d="M263.6,192.7c-0.1,0-0.3-1.5-0.6-4.1c-0.2-2.5-0.5-6-0.7-10l0.2,0.3c-0.3-0.3-0.6-0.6-0.9-0.9
					c-3-3-5.7-5.7-7.6-7.7c-1.9-2-3.1-3.3-3-3.4c0.1-0.1,1.4,1,3.5,2.9c2.1,1.9,4.8,4.5,7.9,7.5c0.3,0.3,0.6,0.6,0.9,0.9l0.1,0.1
					l0,0.2c0.2,3.9,0.3,7.5,0.4,10C263.8,191.2,263.7,192.7,263.6,192.7z"/>
			</g>
		</g>
		<g>
			<path class="st13" d="M214.1,217.6c0,0-1.7-11.6-3.3-15.7c-1.6-4.1-6-9.3-6-9.3s2.4-2.7,6.3-0.4c5,3,4.8,9.7,4.8,9.7L214.1,217.6
				z"/>
			<g>
				<path class="st13" d="M215.4,202.9c0,0-2.7-19.2-2.6-20.5c0.2-1.3,7.3-18.1,7.3-18.1s4.2-0.4,3.7,3.7c-0.5,4-2,8.4-2,8.4
					l11.3-13.2c0,0,4.2,0.9,2.6,5.1c0,0,3.8-0.5,2.7,5.8l-5.1,9.7l0.6,10.1l8.3-10.9c0,0,4,2.5,2,6.5c-2,4-6.2,13.3-6.2,13.3
					l1.2,14.4c0,0,2.1,8,0,12.2c-2.1,4.2-4.1,8-4.1,8l-3.8,35.1l-24.8-15.6l7.2-35.2L215.4,202.9z"/>
				<g>
					<path class="st14" d="M231.3,272.7c0,0,0-0.2,0-0.6c0-0.4,0.1-1,0.1-1.8c0.2-1.6,0.4-3.9,0.7-6.9c0.6-6,1.5-14.8,2.6-25.7
						l0-0.1l0-0.1c0.7-1.4,1.5-2.9,2.2-4.4c0.4-0.8,0.8-1.5,1.2-2.3c0.4-0.8,0.8-1.6,1.1-2.4c0.5-1.6,0.6-3.5,0.4-5.3
						c-0.1-1.8-0.4-3.8-0.9-5.6l0,0l0,0c-0.4-4.6-0.8-9.4-1.3-14.4l0-0.1l0-0.1c1.5-3.2,3-6.4,4.5-9.8c0.4-0.8,0.8-1.7,1.2-2.5
						c0.4-0.9,0.8-1.7,0.9-2.5c0.3-1.7-0.8-3.4-2.3-4.4l0.7-0.1c-2.6,3.5-5.4,7.2-8.3,10.9l-0.8,1.1l-0.1-1.4
						c-0.2-3.2-0.4-6.6-0.6-10.1l0-0.1l0.1-0.1c1.6-3.1,3.3-6.4,5.1-9.7l-0.1,0.2c0.1-1,0.3-2,0.1-3c-0.1-1-0.6-1.9-1.5-2.1
						c-0.2-0.1-0.5-0.1-0.7-0.1l-0.9,0.1l0.3-0.8c0.4-1,0.5-2,0.1-2.8c-0.4-0.8-1.3-1.4-2.2-1.6l0.5-0.2c-3.9,4.5-7.6,8.9-11.3,13.2
						l-1.6,1.9l0.8-2.4c0.8-2.4,1.4-4.8,1.8-7.2c0.1-0.6,0.2-1.2,0.2-1.7c0-0.5-0.1-1.1-0.4-1.4c-0.5-0.8-1.7-1.1-2.8-1.1l0.4-0.3
						c-1.4,3.4-2.8,6.7-4.2,9.9c-0.7,1.6-1.3,3.2-2,4.8c-0.3,0.8-0.6,1.6-0.9,2.4c-0.1,0.2-0.1,0.4-0.2,0.6l-0.1,0.2l0,0.3
						c0,0.4,0,0.8,0.1,1.2c0.7,6.6,1.6,13,2.4,18.9l0,0l0,0c-0.6,6.9-1.2,13.3-1.7,19l0,0l0,0c-2.3,11-4.2,19.8-5.5,25.8
						c-0.7,3-1.2,5.3-1.5,6.9c-0.2,0.8-0.3,1.4-0.4,1.8c-0.1,0.4-0.2,0.6-0.2,0.6c0,0,0-0.2,0.1-0.6c0.1-0.4,0.2-1,0.3-1.8
						c0.3-1.6,0.8-3.9,1.3-7c1.2-6.1,3-14.9,5.1-25.9l0,0c0.5-5.7,1-12.1,1.6-19l0,0.1c-0.8-5.9-1.8-12.2-2.5-18.9
						c0-0.4-0.1-0.8-0.1-1.3l0-0.4l0.1-0.4c0.1-0.2,0.1-0.4,0.2-0.6c0.3-0.8,0.6-1.6,0.9-2.4c0.6-1.6,1.3-3.2,2-4.8
						c1.4-3.2,2.7-6.6,4.1-10l0.1-0.3l0.3,0c0.7,0,1.3,0,2,0.3c0.6,0.2,1.3,0.6,1.7,1.2c0.4,0.6,0.6,1.3,0.6,2
						c0,0.7-0.1,1.3-0.2,1.9c-0.4,2.5-1.1,4.9-1.8,7.3l-0.9-0.5c3.7-4.3,7.5-8.7,11.3-13.2l0.2-0.2l0.3,0.1c0.6,0.2,1.2,0.4,1.7,0.8
						c0.5,0.3,1,0.8,1.3,1.4c0.6,1.2,0.4,2.6,0,3.7l-0.6-0.7c0.4,0,0.8,0,1.2,0.1c0.7,0.2,1.3,0.6,1.6,1.2c0.4,0.6,0.6,1.2,0.7,1.8
						c0.2,1.2,0.1,2.3-0.1,3.4l0,0.1l0,0.1c-1.7,3.3-3.5,6.6-5.1,9.7l0.1-0.3c0.2,3.5,0.4,6.9,0.6,10.1l-0.9-0.3
						c2.9-3.8,5.7-7.5,8.3-10.9l0.3-0.4l0.4,0.2c0.9,0.6,1.6,1.4,2.1,2.3c0.5,0.9,0.8,2,0.6,3.1c-0.1,1.1-0.7,2-1,2.8
						c-0.4,0.8-0.8,1.7-1.2,2.5c-1.6,3.4-3.1,6.6-4.6,9.8l0-0.2c0.4,5,0.8,9.9,1.2,14.4l0-0.1c0.5,2,0.8,3.9,0.9,5.8
						c0.1,1.9,0.1,3.8-0.5,5.6c-0.3,0.9-0.8,1.7-1.1,2.5c-0.4,0.8-0.8,1.5-1.2,2.3c-0.8,1.5-1.5,3-2.3,4.4l0-0.1
						c-1.3,10.9-2.3,19.7-3,25.7c-0.4,3-0.7,5.3-0.8,6.9c-0.1,0.8-0.2,1.4-0.2,1.8C231.4,272.5,231.3,272.7,231.3,272.7z"/>
				</g>
				<g>
					<path class="st14" d="M220.5,196.9c-0.3,0-1.2-4.7-2-10.7c-0.2-1.7-0.4-3.4-0.6-4.8l0-0.2l0.1-0.1c2.1-2.9,3.6-4.8,3.8-4.7
						c0.2,0.1-1,2.2-3,5.2l0.1-0.3c0.2,1.4,0.5,3.1,0.7,4.8C220.4,192.1,220.8,196.9,220.5,196.9z"/>
				</g>
				<g>
					<path class="st14" d="M226.9,192.5c-0.2,0-0.9-4-1.6-9.7l0-0.2l0.1-0.2c0.7-1,1.4-2.1,2.2-3.2c4.3-6.2,7.9-11.1,8.1-11
						c0.2,0.2-3,5.3-7.3,11.5c-0.8,1.1-1.5,2.2-2.2,3.2l0.1-0.3C226.9,188.4,227.1,192.5,226.9,192.5z"/>
				</g>
			</g>
		</g>
	</g>
</g>
<g id="Plant">
	<g>
		<g>
			<g>
				<g>
					<path class="st9" d="M98.8,307.8c-11.7-17.9-11.3-44.1,2.7-60.3c4.3-5,10.4-9.4,17-8.8c6.8,0.6,12.2,6.4,14.3,12.9
						c2.1,6.5,1.3,13.5,0.1,20.2c-1.7,9.4-4.5,19-11,25.9C115.4,304.7,107.1,312.4,98.8,307.8"/>
				</g>
				<g>
					<path class="st9" d="M104,393.5c-4.4-10.3-1.2-23.3,7.5-30.4c2.7-2.2,6.2-3.9,9.6-3c3.4,0.9,5.7,4.4,6.2,7.9
						c0.5,3.5-0.5,7.1-1.8,10.4c-1.7,4.7-4.1,9.4-8,12.4C113.4,393.7,107.9,396.6,104,393.5"/>
				</g>
				<g>
					<path class="st9" d="M75.7,387.3c3.2-15.9-5.1-33.4-19.5-40.9c-4.5-2.3-10-3.7-14.5-1.4c-4.6,2.3-6.8,7.9-6.5,13.1
						c0.4,5.1,2.8,9.9,5.6,14.2c3.8,6.1,8.5,12.1,15,15.1C62.4,390.5,71.1,392.9,75.7,387.3"/>
				</g>
				<g>
					<path class="st9" d="M77.8,344.4c5.6-18.1-3.9-40-19.7-50.4c-4.9-3.2-11.1-5.5-16.6-3.4c-5.6,2.1-8.9,8.4-9,14.4
						c-0.2,6,2.1,11.8,4.8,17.2c3.7,7.6,8.5,15,15.7,19.4C60.1,345.9,71.8,350.3,77.8,344.4"/>
				</g>
				<g>
					<g>
						<path class="st7" d="M89,432.8c0,0-0.1-0.3-0.2-0.9c-0.1-0.7-0.2-1.5-0.4-2.5c-0.1-0.6-0.2-1.2-0.3-1.8
							c-0.1-0.7-0.3-1.4-0.4-2.2c-0.3-1.5-0.6-3.3-1.1-5.2c-0.2-1-0.5-2-0.7-3c-0.3-1-0.6-2.1-0.9-3.2c-0.6-2.2-1.5-4.6-2.3-7
							c-1.9-4.9-4.2-10.2-7-15.5c-2.9-5.3-6-10.1-9-14.4c-1.6-2.1-3-4.1-4.6-5.8c-0.7-0.9-1.5-1.7-2.2-2.6c-0.7-0.8-1.4-1.5-2.1-2.3
							c-1.3-1.5-2.6-2.7-3.7-3.8c-0.6-0.5-1.1-1.1-1.6-1.5c-0.5-0.4-1-0.8-1.4-1.2c-0.8-0.7-1.4-1.3-1.9-1.7
							c-0.4-0.4-0.6-0.6-0.6-0.6c0,0,0.3,0.2,0.7,0.5c0.5,0.4,1.2,0.9,2,1.6c0.4,0.4,0.9,0.8,1.4,1.2c0.5,0.5,1,1,1.6,1.5
							c1.2,1.1,2.5,2.3,3.8,3.7c0.7,0.7,1.4,1.5,2.2,2.3c0.7,0.8,1.4,1.7,2.2,2.6c1.6,1.7,3,3.8,4.7,5.8c3.1,4.2,6.3,9.1,9.2,14.4
							c2.8,5.4,5.1,10.7,7,15.6c0.8,2.5,1.7,4.8,2.3,7.1c0.3,1.1,0.6,2.2,0.9,3.3c0.2,1.1,0.5,2.1,0.7,3c0.5,1.9,0.7,3.7,1,5.3
							c0.1,0.8,0.2,1.5,0.4,2.2c0.1,0.7,0.1,1.3,0.2,1.8c0.1,1,0.2,1.9,0.2,2.5C89,432.5,89.1,432.8,89,432.8z"/>
					</g>
				</g>
				<g>
					<g>
						<path class="st7" d="M88.6,436.1c0,0,0-0.1,0-0.4c0-0.3,0-0.6,0.1-1c0.1-1,0.2-2.3,0.4-4c0.1-0.9,0.2-1.8,0.3-2.9
							c0.1-1.1,0.1-2.2,0.2-3.5c0.1-2.5,0.3-5.3,0.2-8.4c0-1.6,0-3.2,0-4.9c0-1.7-0.2-3.5-0.3-5.3c-0.1-3.7-0.6-7.6-1.1-11.7
							c-1.1-8.2-2.9-17.1-5.6-26.3c-2.8-9.1-6.2-17.6-9.7-25.1c-1.9-3.7-3.6-7.2-5.5-10.4c-0.9-1.6-1.8-3.2-2.7-4.6
							c-0.9-1.4-1.8-2.8-2.7-4.1c-1.6-2.7-3.4-4.9-4.8-6.9c-0.7-1-1.4-2-2-2.8c-0.7-0.8-1.3-1.6-1.8-2.3c-1.1-1.3-1.9-2.4-2.5-3.2
							c-0.3-0.3-0.5-0.6-0.6-0.8c-0.1-0.2-0.2-0.3-0.2-0.3c0,0,0.1,0.1,0.3,0.3c0.2,0.2,0.4,0.5,0.7,0.8c0.6,0.8,1.5,1.8,2.6,3.1
							c0.6,0.7,1.2,1.4,1.9,2.2c0.7,0.8,1.3,1.8,2.1,2.8c1.5,2,3.2,4.2,4.9,6.9c0.9,1.3,1.8,2.7,2.7,4.1c0.9,1.4,1.8,3,2.7,4.6
							c1.9,3.2,3.7,6.7,5.6,10.4c3.6,7.5,7,16,9.8,25.2c2.7,9.2,4.4,18.2,5.5,26.4c0.4,4.1,0.9,8.1,1,11.8c0.1,1.8,0.2,3.6,0.2,5.3
							c0,1.7,0,3.4,0,4.9c0.1,3.1-0.2,6-0.4,8.5c-0.1,1.2-0.1,2.4-0.2,3.5c-0.1,1.1-0.2,2-0.4,2.9c-0.2,1.7-0.4,3-0.5,4
							c-0.1,0.4-0.1,0.8-0.2,1C88.7,435.9,88.6,436.1,88.6,436.1z"/>
					</g>
				</g>
				<g>
					<g>
						<path class="st7" d="M119.1,260.3c0,0,0,0.1-0.1,0.3c-0.1,0.3-0.3,0.6-0.5,0.9c-0.5,0.9-1.2,2.1-2,3.6
							c-0.4,0.8-0.9,1.6-1.4,2.6c-0.5,1-1,2-1.6,3.2c-0.6,1.1-1.2,2.3-1.8,3.6c-0.6,1.3-1.2,2.7-1.8,4.1c-0.6,1.5-1.3,3-2,4.6
							c-0.6,1.6-1.3,3.3-1.9,5c-0.3,0.9-0.7,1.8-1,2.7c-0.3,0.9-0.6,1.8-0.9,2.8c-0.6,1.9-1.3,3.8-2,5.8c-2.5,8-4.8,17-6.8,26.5
							c-1.9,9.5-3.3,18.7-4.3,27c-0.9,8.4-1.5,15.9-1.7,22.3c-0.2,3.2-0.2,6.1-0.2,8.6c0,2.5-0.1,4.7,0,6.5c0,1.7,0,3.1,0.1,4.1
							c0,0.4,0,0.8,0,1.1c0,0.2,0,0.4,0,0.4c0,0,0-0.1-0.1-0.4c0-0.3,0-0.6-0.1-1.1c0-1-0.1-2.4-0.2-4.1c-0.1-1.8-0.1-4-0.1-6.5
							c0-2.5,0-5.4,0.1-8.6c0.1-6.4,0.7-13.9,1.5-22.3c1-8.4,2.3-17.5,4.2-27.1c2-9.5,4.4-18.5,6.9-26.5c0.7-2,1.3-3.9,2-5.8
							c0.3-0.9,0.6-1.9,1-2.8c0.4-0.9,0.7-1.8,1-2.7c0.7-1.7,1.4-3.4,2-5c0.7-1.6,1.4-3.1,2-4.6c0.7-1.4,1.3-2.8,1.9-4.1
							c0.7-1.3,1.3-2.5,1.9-3.6c0.6-1.1,1.1-2.2,1.6-3.1c0.5-1,1.1-1.8,1.5-2.6c0.9-1.5,1.6-2.7,2.1-3.5c0.2-0.4,0.4-0.7,0.6-0.9
							C119,260.4,119.1,260.3,119.1,260.3z"/>
					</g>
				</g>
				<g>
					<g>
						<path class="st7" d="M115.1,370.2c0,0-0.4,0.8-1.2,2.2c-0.9,1.4-2,3.4-3.4,5.9c-1.4,2.5-2.9,5.6-4.4,9.1
							c-1.5,3.5-3,7.4-4.3,11.6c-1.3,4.2-2.3,8.3-3,12c-0.7,3.7-1.2,7.1-1.5,10c-0.3,2.9-0.5,5.2-0.5,6.8c-0.1,1.6-0.2,2.5-0.2,2.5
							c-0.1,0-0.1-0.9-0.1-2.5c0-1.6,0.1-4,0.3-6.9c0.2-2.9,0.6-6.3,1.3-10.1c0.7-3.8,1.7-7.9,3-12.1c1.3-4.2,2.8-8.2,4.4-11.7
							c1.6-3.5,3.2-6.6,4.6-9.1c1.4-2.5,2.7-4.5,3.6-5.8C114.5,370.9,115.1,370.2,115.1,370.2z"/>
					</g>
				</g>
			</g>
			<g>
				<polygon class="st8" points="66,424.7 117.5,424.7 111.2,477.3 72.4,477.3 				"/>
			</g>
			<g>
				<polygon class="st7" points="67.9,471.6 72.3,477.3 111.2,477.3 115.7,471.8 				"/>
			</g>
			<g>
				<g>
					<path class="st15" d="M115.5,440.2c0,0.2-10.7,0.4-23.8,0.4c-13.2,0-23.8-0.2-23.8-0.4c0-0.2,10.7-0.4,23.8-0.4
						C104.8,439.8,115.5,440,115.5,440.2z"/>
				</g>
			</g>
			<g>
				<g>
					<path class="st15" d="M115.5,443.7c0,0.2-10.7,0.4-23.8,0.4c-13.2,0-23.8-0.2-23.8-0.4c0-0.2,10.7-0.4,23.8-0.4
						C104.8,443.3,115.5,443.5,115.5,443.7z"/>
				</g>
			</g>
			<g>
				<g>
					<path class="st15" d="M114.8,447.1c0,0.2-10.3,0.4-23,0.4c-12.7,0-23-0.2-23-0.4c0-0.2,10.3-0.4,23-0.4
						C104.5,446.7,114.8,446.9,114.8,447.1z"/>
				</g>
			</g>
		</g>
		<g>
			<path class="st7" d="M73.9,311.5c0,0,0,0.2,0,0.5c0,0.4-0.1,0.9-0.1,1.4c-0.1,1.3-0.3,3.1-0.5,5.2c-0.5,4.4-1.2,10.5-1.9,17.2
				c0,0.3-0.1,0.5-0.1,0.8l0,0.2l-0.2,0c-6.6,0.1-12.6,0.2-16.9,0.2c-2.1,0-3.8,0-5.1,0c-0.5,0-1,0-1.4,0c-0.3,0-0.5,0-0.5,0
				c0,0,0.2,0,0.5-0.1c0.4,0,0.8,0,1.4-0.1c1.3,0,3-0.1,5.1-0.2c4.3-0.1,10.2-0.2,16.8-0.3l-0.3,0.2c0-0.2,0.1-0.5,0.1-0.8
				c0.8-6.7,1.5-12.8,2.1-17.2c0.3-2.1,0.5-3.9,0.7-5.2c0.1-0.6,0.2-1,0.2-1.4C73.8,311.7,73.9,311.5,73.9,311.5z"/>
		</g>
		<g>
			<path class="st7" d="M62.2,295.8c0,0,0,0.2,0,0.5c0,0.4,0,0.9,0,1.5c0,1.4,0,3.2,0,5.4c-0.1,4.6-0.2,10.9-0.4,17.9
				c0,0.3,0,0.6,0,0.8l0,0.3l-0.3,0c-6.8-0.5-12.9-0.5-17.3-0.4c-2.2,0.1-4,0.2-5.2,0.2c-0.6,0-1,0-1.4,0.1c-0.3,0-0.5,0-0.5,0
				c0,0,0.2,0,0.5-0.1c0.3,0,0.8-0.1,1.4-0.2c1.2-0.1,3-0.3,5.2-0.4c4.4-0.2,10.6-0.3,17.4,0.2l-0.3,0.3c0-0.3,0-0.5,0-0.8
				c0.2-7,0.4-13.3,0.5-17.9c0.1-2.2,0.2-4.1,0.2-5.4c0-0.6,0.1-1.1,0.1-1.5C62.1,296,62.2,295.8,62.2,295.8z"/>
		</g>
		<g>
			<path class="st7" d="M48.5,290.4c0,0,0.1,0.5,0.3,1.5c0.2,1.1,0.5,2.5,0.8,4.1c0.7,3.5,1.7,8.3,3.2,13.6l0.2,0.6l-0.5-0.3
				c-0.2-0.1-0.4-0.2-0.6-0.3c-5.1-2.4-10.1-3.6-13.7-4c-1.8-0.2-3.3-0.3-4.3-0.3c-1,0-1.6,0-1.6-0.1c0,0,0.1,0,0.4-0.1
				c0.3,0,0.7-0.1,1.2-0.1c1,0,2.5,0,4.4,0.2c3.7,0.3,8.8,1.4,13.9,3.9c0.2,0.1,0.4,0.2,0.6,0.3l-0.4,0.3c-1.5-5.3-2.5-10.1-3-13.6
				c-0.3-1.8-0.5-3.2-0.6-4.2C48.5,291,48.5,290.4,48.5,290.4z"/>
		</g>
		<g>
			<path class="st7" d="M121.1,386.2c0,0.1-1.5-0.1-3.9-0.2c-2.4-0.1-5.7-0.1-9.4,0.3c-0.7,0.1-1.5,0.2-2.2,0.3l-0.2,0l0-0.2
				c-0.6-3.1-1-5.9-1.3-7.8c-0.3-2-0.5-3.2-0.4-3.2c0.1,0,0.3,1.2,0.7,3.1c0.4,2,0.9,4.7,1.5,7.8l-0.3-0.2c0.7-0.1,1.4-0.2,2.2-0.3
				c3.7-0.4,7-0.3,9.4-0.2c1.2,0.1,2.2,0.2,2.8,0.3C120.8,386.1,121.1,386.2,121.1,386.2z"/>
		</g>
		<g>
			<path class="st7" d="M126,376.6c0,0.1-1.4-0.3-3.8-0.5c-2.3-0.3-5.6-0.5-9.1-0.1c-0.6,0.1-1.1,0.1-1.6,0.2l-0.3,0l0-0.3
				c-0.3-3.2-0.6-6-0.8-8.1c-0.2-2-0.2-3.3-0.2-3.3c0.1,0,0.3,1.2,0.5,3.2c0.3,2,0.6,4.9,0.9,8.1l-0.3-0.2c0.5-0.1,1.1-0.1,1.6-0.2
				c3.6-0.4,6.9-0.1,9.2,0.2c1.2,0.2,2.1,0.4,2.7,0.6C125.7,376.4,126,376.5,126,376.6z"/>
		</g>
		<g>
			<path class="st7" d="M129.5,285.1c0,0-0.2,0.1-0.5,0.3c-0.4,0.2-0.9,0.4-1.5,0.7c-1.4,0.6-3.3,1.4-5.6,2.4
				c-4.8,2-11.3,4.7-18.4,7.6c-0.3,0.1-0.7,0.3-1,0.4l-0.2,0.1l-0.1-0.2c-3-6.9-5.8-13-7.8-17.6c-0.9-2.2-1.7-4-2.3-5.3
				c-0.2-0.6-0.4-1.1-0.6-1.5c-0.1-0.3-0.2-0.5-0.2-0.5c0,0,0.1,0.2,0.3,0.5c0.2,0.4,0.4,0.8,0.7,1.4c0.6,1.3,1.4,3.1,2.4,5.3
				c2,4.5,4.8,10.7,7.9,17.5l-0.3-0.1c0.3-0.1,0.7-0.3,1-0.4c7.2-2.9,13.7-5.6,18.5-7.5c2.3-0.9,4.2-1.7,5.6-2.2
				c0.6-0.2,1.1-0.4,1.5-0.6C129.3,285.1,129.5,285.1,129.5,285.1z"/>
		</g>
		<g>
			<path class="st7" d="M134,262.9c0,0-0.1,0.1-0.5,0.3c-0.4,0.2-0.8,0.5-1.3,0.9c-1.2,0.8-2.9,1.8-5,3.1
				c-4.3,2.6-10.2,6.2-16.8,10.2l-0.3,0.2l-0.1-0.3c-0.1-0.3-0.2-0.5-0.3-0.8c-2.7-7.4-5.2-14-7-18.9c-0.9-2.4-1.6-4.3-2.1-5.8
				c-0.2-0.6-0.4-1.2-0.5-1.6c-0.1-0.4-0.2-0.6-0.2-0.6c0,0,0.1,0.2,0.3,0.5c0.2,0.4,0.4,0.9,0.6,1.5c0.6,1.4,1.3,3.3,2.2,5.7
				c1.9,4.9,4.4,11.5,7.2,18.9c0.1,0.3,0.2,0.6,0.3,0.8l-0.4-0.1c6.6-3.9,12.5-7.5,16.8-10.1c2.1-1.2,3.8-2.2,5.1-3
				c0.6-0.3,1-0.6,1.4-0.8C133.8,263,134,262.9,134,262.9z"/>
		</g>
		<g>
			<path class="st7" d="M132.5,251c0,0-0.4,0.3-1.1,0.7c-0.7,0.4-1.8,1-3,1.8c-2.5,1.6-6,4-9.3,7.3l-0.6,0.6l0.2-0.9
				c0.2-0.9,0.4-1.9,0.6-2.9c0.9-5.3,0.2-10.3-0.7-13.7c-0.5-1.7-1-3.1-1.3-4c-0.4-0.9-0.6-1.4-0.5-1.4c0,0,0.3,0.5,0.7,1.4
				c0.4,0.9,1,2.2,1.5,4c1,3.4,1.8,8.5,0.9,13.9c-0.2,1-0.4,2-0.6,2.9l-0.4-0.2c3.4-3.3,6.9-5.7,9.5-7.2c1.3-0.8,2.4-1.3,3.1-1.6
				C132.1,251.2,132.5,251,132.5,251z"/>
		</g>
		<g>
			<path class="st7" d="M73.8,366.4c0,0-0.1,0.5-0.2,1.3c-0.2,0.8-0.4,2.1-0.7,3.6c-0.6,3.1-1.2,7.4-1.4,12.2l0,0.2l-0.2,0
				c-0.4,0-0.8,0-1.2,0.1c-5.1,0.3-9.7,0.6-13.1,0.7c-1.6,0.1-2.9,0.1-4,0.2c-0.9,0-1.5,0-1.5,0c0,0,0.5-0.1,1.4-0.2
				c1-0.1,2.4-0.2,4-0.3c3.3-0.2,8-0.6,13.1-0.9c0.4,0,0.8,0,1.2-0.1l-0.2,0.2c0.2-4.9,0.9-9.2,1.6-12.2c0.3-1.5,0.6-2.8,0.9-3.6
				C73.6,366.8,73.8,366.4,73.8,366.4z"/>
		</g>
		<g>
			<path class="st7" d="M63.7,351.9c0,0,0,0.5-0.1,1.3c-0.1,1-0.2,2.2-0.4,3.7c-0.4,3.1-0.9,7.4-1.6,12.2l0,0.2l-0.2,0
				c-0.5,0-1.1,0.1-1.7,0.1c-5.2,0.4-9.9,0.9-13.3,1.3c-1.6,0.2-3,0.4-4,0.5c-1,0.1-1.5,0.2-1.5,0.2c0,0,0.5-0.2,1.5-0.4
				c0.9-0.2,2.3-0.4,4-0.7c3.4-0.5,8.1-1.1,13.4-1.5c0.6,0,1.1-0.1,1.7-0.1l-0.2,0.2c0.7-4.8,1.3-9.1,1.7-12.2
				c0.2-1.5,0.4-2.7,0.6-3.6C63.6,352.3,63.7,351.9,63.7,351.9z"/>
		</g>
		<g>
			<path class="st7" d="M51.8,345.6c0.1,0-0.2,1.4-0.6,3.7c-0.4,2.3-0.8,5.5-0.8,9.1l0,0.3l-0.3,0c-0.3,0-0.6-0.1-0.9-0.1
				c-3.8-0.5-7.2-0.6-9.7-0.6c-1.2,0-2.1,0-3,0c-0.7,0-1.1,0-1.1,0c0,0,0.4-0.1,1.1-0.2c0.7-0.1,1.7-0.2,3-0.2c2.5-0.1,6,0,9.8,0.4
				c0.3,0,0.6,0.1,0.9,0.1l-0.3,0.3c0.1-3.6,0.5-6.9,1-9.2c0.2-1.1,0.5-2.1,0.6-2.7C51.7,346,51.8,345.6,51.8,345.6z"/>
		</g>
		<g>
			<path class="st7" d="M119.6,360.1c0.1,0.1-1,2.4-2.3,5.2c-1.3,2.9-2.3,5.2-2.5,5.1c-0.1,0,0.7-2.5,2-5.4
				C118.1,362.3,119.5,360.1,119.6,360.1z"/>
		</g>
		<g>
			<path class="st7" d="M126,367c0,0.2-2.7,0.2-5.8,1.2c-3.2,1-5.4,2.5-5.5,2.3c-0.1-0.1,2.1-1.8,5.3-2.8
				C123.3,366.7,126.1,366.9,126,367z"/>
		</g>
	</g>
</g>
<g id="Clock">
	<g>
		<g>
			<g>
				<path class="st8" d="M456.3,477.6h-67.7v-50.8c0-18.7,15.1-33.8,33.8-33.8l0,0c18.7,0,33.8,15.1,33.8,33.8V477.6z"/>
			</g>
		</g>
		<g>
			<g>
				
					<ellipse transform="matrix(0.2288 -0.9735 0.9735 0.2288 -88.8641 740.9163)" class="st4" cx="423.2" cy="426.5" rx="20.1" ry="20.1"/>
			</g>
		</g>
		<g>
			<g>
				<g>
					<path class="st7" d="M430.4,423.8c0.1,0.2-2.8,2.6-6.9,5.8l-0.7,0.5l0-0.9c0-1.2,0-2.4,0-3.7c0-3.5,0-6.7,0.1-9
						c0.1-2.3,0.2-3.7,0.3-3.7c0.1,0,0.2,1.4,0.3,3.7c0.1,2.3,0.1,5.5,0.1,9c0,1.3,0,2.5,0,3.7l-0.7-0.3
						C427.1,425.8,430.2,423.7,430.4,423.8z"/>
				</g>
			</g>
		</g>
		<g>
			<g>
				<g>
					<path class="st7" d="M441.2,466.6c0,0,0-0.3-0.1-0.8c0-0.6,0-1.4-0.1-2.3c0-2.1-0.1-4.9-0.2-8.4l0.3,0.3
						c-8.5,0.1-21.5,0.2-36,0.2c0.2-0.2-0.4,0.4,0.4-0.4v0v0v0v0v0v0.1v0.2l0,0.4l0,0.7l0,1.5c0,1,0,1.9,0,2.9c0,1.9,0,3.8,0,5.6
						l-0.4-0.4c10.3,0,19.2,0.1,25.6,0.2c3.1,0.1,5.7,0.1,7.6,0.1c0.8,0,1.5,0,2.1,0.1C440.9,466.6,441.2,466.6,441.2,466.6
						c0,0-0.2,0-0.6,0.1c-0.5,0-1.2,0-2,0.1c-1.9,0-4.4,0.1-7.5,0.1c-6.4,0.1-15.5,0.2-25.9,0.2l-0.4,0l0-0.4c0-1.8,0-3.7,0-5.6
						c0-1,0-1.9,0-2.9l0-1.5l0-0.7v-0.4v-0.2v-0.1v0v0v0v0v0c0.9-0.9,0.2-0.2,0.4-0.4c14.5,0,27.4,0.1,36,0.2l0.3,0l0,0.3
						c-0.1,3.6-0.1,6.4-0.2,8.5c0,0.9-0.1,1.6-0.1,2.2C441.2,466.4,441.2,466.7,441.2,466.6z"/>
				</g>
			</g>
		</g>
	</g>
</g>
<g id="Speech_Bubble">
</g>
</svg>
