<?xml version="1.0" encoding="utf-8"?>
<!-- Generator: Adobe Illustrator 23.0.1, SVG Export Plug-In . SVG Version: 6.00 Build 0)  -->
<svg version="1.1" xmlns="http://www.w3.org/2000/svg" xmlns:xlink="http://www.w3.org/1999/xlink" x="0px" y="0px"
	 viewBox="0 0 500 500" style="enable-background:new 0 0 500 500;" xml:space="preserve">
<style type="text/css">
	.st0{opacity:0.1;fill:#EBEBEB;}
	.st1{opacity:0.1;fill:#FAFAFA;}
	.st2{opacity:0.1;fill:#E0E0E0;}
	.st3{opacity:0.1;fill:#F5F5F5;}
	.st4{opacity:0.1;}
	.st5{fill:#E0E0E0;}
	.st6{fill:#F5F5F5;}
	.st7{fill:#EBEBEB;}
	.st8{fill:#FAFAFA;}
	.st9{display:none;}
	.st10{display:inline;fill:#EBEBEB;}
	.st11{fill:#7879E8;}
	.st12{fill:#263238;}
	.st13{fill:#FFFFFF;}
	.st14{fill:#C69481;}
	.st15{fill:#936457;}
	.st16{opacity:0.6;}
	.st17{fill:#455A64;}
	.st18{opacity:0.3;}
</style>
<g id="Background_Complete">
	<g>
		<rect x="43.5" y="41.3" class="st0" width="147" height="264"/>
		<rect x="49.4" y="48.9" class="st1" width="133.7" height="248.5"/>
		<polygon class="st2" points="196.7,307.7 190.5,305.3 190.5,36.8 196.7,36.8 		"/>
		<path class="st3" d="M82.2,209.4c11.6-10.8,23.1-21.5,34.7-32.3c4.4-4.1,10.2-8.5,15.8-6.5c2.7,1,4.8,3.3,7.4,4.4
			c5.3,2.2,11.4-1,15.5-5.1c4.1-4.1,7.3-9.2,12.3-12.1c5-2.9,12.7-2.6,15.1,2.7v35.1l-50.5,21.6L82.2,209.4z"/>
		<path class="st2" d="M49.4,189.2c12.8-5.2,25.6-0.8,34.7,9.6c1.9,2.2,3.7,4.7,6.3,5.9c3.6,1.6,7.7,0.4,11.6,0
			c10.7-1.2,21.9,4.2,27.5,13.4l-42.7,21l-37.5-0.3V189.2z"/>
		<path class="st0" d="M183.1,189.4c-8.4-4.1-15.8,0.9-23.6,6.1c-7.8,5.2-15,11.9-24.1,14c-6.1,1.4-12.6,0.6-18.5,2.7
			c-12,4.3-18.9,19.5-31.7,20.2c-6.9,0.4-13.1-3.8-19.3-6.9c-6.2-3.1-11-6.1-16.5-1.9v73.8h133.7V189.4z"/>
		<rect x="49.4" y="120.4" class="st2" width="136.6" height="2.6"/>
		<rect x="49.4" y="179.6" class="st2" width="136.6" height="2.6"/>
		<rect x="49.4" y="238.8" class="st2" width="136.6" height="2.6"/>
		
			<rect x="24.9" y="209.7" transform="matrix(6.123234e-17 -1 1 6.123234e-17 -96.8611 329.3372)" class="st2" width="182.7" height="6.8"/>
		<rect x="75.1" y="48.9" class="st2" width="3.1" height="72.8"/>
		<rect x="101.5" y="48.9" class="st2" width="3.1" height="72.8"/>
		<rect x="127.9" y="48.9" class="st2" width="3.1" height="72.8"/>
		<rect x="154.3" y="48.9" class="st2" width="3.1" height="72.8"/>
		<rect x="37.3" y="36.8" class="st2" width="6.2" height="270.1"/>
		<rect x="37.3" y="34.1" class="st2" width="159.4" height="7.2"/>
		<rect x="32.9" y="308.6" class="st2" width="168" height="6.7"/>
		<polygon class="st0" points="190.5,305.3 200.9,308.6 32.9,308.6 43.5,305.3 		"/>
	</g>
	<g>
		<g class="st4">
			<g>
				<g>
					<path class="st5" d="M192.2,382.7c1.3-0.8,2.6-1.4,4-1.8l0.8-4l6.7-0.2l1,3.9c1.4,0.3,2.8,0.9,4.1,1.6l3.4-2.3l4.9,4.6
						l-2.1,3.5c0.8,1.3,1.4,2.6,1.8,4l4,0.8l0.2,6.7l-3.9,1c-0.3,1.4-0.9,2.8-1.6,4.1l2.3,3.4l-4.6,4.9l-3.5-2.1
						c-1.3,0.8-2.6,1.4-4,1.8l-0.8,4l-6.7,0.2l-1-3.9c-1.4-0.3-2.8-0.9-4.1-1.6l-3.4,2.3l-4.9-4.6l2.1-3.5c-0.8-1.3-1.4-2.6-1.8-4
						l-4-0.8l-0.2-6.7l3.9-1c0.3-1.4,0.9-2.8,1.6-4.1l-2.3-3.4l4.6-4.9L192.2,382.7L192.2,382.7z M195.9,391.7
						c-2.7,2.9-2.6,7.5,0.3,10.2c2.9,2.7,7.5,2.6,10.2-0.3c2.7-2.9,2.6-7.5-0.3-10.2C203.2,388.7,198.6,388.8,195.9,391.7z"/>
				</g>
			</g>
		</g>
		<g>
			<g>
				<g>
					<g>
						<path class="st2" d="M195.9,391.7c0,0,0.4-0.5,1.3-1.2c0.9-0.6,2.6-1.4,4.7-1.1c1,0.1,2.2,0.4,3.2,1.1c1,0.7,2,1.6,2.6,2.9
							c0.3,0.6,0.5,1.3,0.7,2c0.1,0.7,0.2,1.5,0.1,2.2c-0.2,1.5-0.9,3-2,4.2c-1.1,1.2-2.6,1.9-4.1,2.2c-0.7,0.1-1.5,0.2-2.2,0.1
							c-0.7-0.1-1.4-0.3-2.1-0.6c-1.3-0.5-2.3-1.5-3-2.5c-0.7-1-1.1-2.1-1.3-3.1c-0.3-2.1,0.3-3.8,0.9-4.7
							C195.3,392.1,195.9,391.7,195.9,391.7c0,0-0.4,0.5-1,1.5c-0.5,1-1.1,2.6-0.8,4.6c0.2,1,0.6,2,1.3,3c0.7,0.9,1.7,1.8,2.9,2.3
							c0.6,0.3,1.3,0.4,1.9,0.5c0.7,0.1,1.4,0.1,2.1-0.1c1.4-0.2,2.8-1,3.8-2.1c1-1.1,1.7-2.5,1.9-3.9c0.1-0.7,0.1-1.4,0-2.1
							c-0.1-0.7-0.3-1.3-0.6-1.9c-0.6-1.2-1.5-2.1-2.5-2.8c-1-0.7-2.1-1-3.1-1.1c-2-0.2-3.6,0.4-4.6,1
							C196.3,391.2,195.9,391.7,195.9,391.7z"/>
					</g>
				</g>
			</g>
		</g>
		<g>
			<g>
				<g>
					<g>
						<path class="st2" d="M192.2,382.7c0,0-0.1,0-0.2-0.1c-0.2-0.1-0.4-0.2-0.7-0.4c-0.6-0.4-1.5-0.9-2.6-1.5l0.1,0
							c-1.2,1.3-2.7,2.9-4.6,4.9l0-0.1c0.7,1,1.4,2.2,2.3,3.4l0,0.1l0,0.1c-0.7,1.2-1.2,2.6-1.6,4.1l0,0.1l-0.1,0
							c-1.2,0.3-2.6,0.7-3.9,1l0.1-0.1c0.1,2.1,0.1,4.4,0.2,6.7l-0.1-0.2c1.2,0.2,2.6,0.5,4,0.8l0.1,0l0,0.1c0.4,1.3,1,2.7,1.8,4
							l0.1,0.1l-0.1,0.1c-0.6,1.1-1.4,2.3-2.1,3.5l0-0.2c1.5,1.5,3.2,3,4.9,4.6l-0.2,0c1.1-0.7,2.2-1.5,3.4-2.3l0.1-0.1l0.1,0.1
							c1.2,0.7,2.6,1.2,4,1.6l0.1,0l0,0.1c0.3,1.2,0.7,2.6,1,3.9l-0.2-0.2c2.1-0.1,4.4-0.1,6.7-0.2l-0.2,0.2c0.3-1.3,0.5-2.6,0.8-4
							l0-0.1l0.1,0c1.3-0.4,2.7-1,4-1.8l0,0l0.1-0.1l0.1,0.1c1.2,0.7,2.3,1.4,3.5,2.1l-0.3,0c1.6-1.6,3.1-3.3,4.6-4.9l0,0.3
							c-0.8-1.1-1.5-2.3-2.3-3.4l-0.1-0.1l0.1-0.1c0.7-1.3,1.2-2.6,1.6-4l0-0.1l0.1,0c1.3-0.3,2.6-0.7,3.9-1l-0.1,0.2
							c-0.1-2.3-0.1-4.5-0.2-6.7l0.2,0.2c-1.4-0.3-2.7-0.5-4-0.8l-0.1,0l0-0.1c-0.4-1.4-1-2.8-1.8-4l-0.1-0.1l0.1-0.1
							c0.7-1.2,1.4-2.4,2.1-3.5l0,0.2c-1.7-1.6-3.3-3.2-4.9-4.6l0.2,0c-1.2,0.8-2.3,1.5-3.4,2.2l-0.1,0l-0.1,0
							c-1.4-0.7-2.7-1.3-4.1-1.6l-0.1,0l0-0.1c-0.4-1.4-0.7-2.7-1-3.9l0.1,0.1c-2.6,0.1-4.8,0.1-6.7,0.1l0.1-0.1
							c-0.3,1.6-0.6,2.9-0.8,4l0,0l0,0c-1.4,0.4-2.4,0.9-3.1,1.2c-0.3,0.2-0.5,0.3-0.7,0.4C192.3,382.7,192.2,382.7,192.2,382.7
							c0,0,0.1-0.1,0.2-0.2c0.2-0.1,0.4-0.2,0.7-0.4c0.6-0.3,1.6-0.8,3.1-1.3l0,0.1c0.2-1.1,0.5-2.4,0.8-4l0-0.1l0.1,0
							c1.9-0.1,4.1-0.1,6.7-0.2l0.1,0l0,0.1c0.3,1.2,0.6,2.5,1,3.9l-0.1-0.1c1.4,0.3,2.7,0.8,4.1,1.6l-0.2,0
							c1.1-0.7,2.2-1.5,3.4-2.3l0.1-0.1l0.1,0.1c1.5,1.5,3.2,3,4.9,4.6l0.1,0.1l-0.1,0.1c-0.7,1.1-1.4,2.3-2.1,3.5l0-0.2
							c0.8,1.2,1.4,2.6,1.8,4.1l-0.1-0.1c1.3,0.3,2.6,0.5,4,0.8l0.1,0l0,0.2c0.1,2.2,0.1,4.4,0.2,6.7l0,0.2l-0.2,0
							c-1.3,0.3-2.6,0.7-3.9,1l0.1-0.1c-0.3,1.4-0.9,2.8-1.6,4.1l0-0.2c0.7,1.1,1.5,2.2,2.3,3.4l0.1,0.1l-0.1,0.1
							c-1.5,1.6-3.1,3.2-4.6,4.9l-0.1,0.1l-0.1-0.1c-1.2-0.7-2.3-1.4-3.5-2.1l0.2,0l0,0c-1.3,0.8-2.7,1.4-4.1,1.8l0.1-0.2
							c-0.3,1.4-0.5,2.7-0.8,4l0,0.2l-0.2,0c-2.3,0.1-4.6,0.1-6.7,0.2l-0.2,0l0-0.2c-0.3-1.4-0.7-2.7-1-3.9l0.1,0.1
							c-1.5-0.4-2.9-0.9-4.1-1.6l0.2,0c-1.2,0.8-2.3,1.5-3.4,2.2l-0.1,0.1l-0.1-0.1c-1.7-1.6-3.3-3.2-4.9-4.6l-0.1-0.1l0.1-0.1
							c0.7-1.2,1.4-2.4,2.1-3.5l0,0.2c-0.8-1.3-1.4-2.7-1.8-4.1l0.1,0.1c-1.4-0.3-2.8-0.6-4-0.8l-0.1,0l0-0.1
							c-0.1-2.4-0.1-4.6-0.2-6.7l0-0.1l0.1,0c1.4-0.3,2.7-0.7,3.9-1l-0.1,0.1c0.4-1.5,0.9-2.9,1.6-4.1l0,0.1
							c-0.8-1.2-1.6-2.4-2.2-3.4l0-0.1l0.1-0.1c1.9-2,3.5-3.6,4.7-4.8l0,0l0,0c1.1,0.7,2,1.2,2.6,1.6c0.3,0.2,0.5,0.3,0.7,0.4
							C192.1,382.7,192.2,382.7,192.2,382.7z"/>
					</g>
				</g>
			</g>
		</g>
	</g>
	<g>
		<g class="st4">
			<g>
				<g>
					<path class="st6" d="M160.5,339.8c1.3-0.8,2.8-1.5,4.3-1.9l0.9-4.2l7.2-0.2l1.1,4.2c1.5,0.4,3,0.9,4.4,1.7l3.6-2.4l5.2,4.9
						l-2.2,3.7c0.8,1.3,1.5,2.8,1.9,4.3l4.2,0.9l0.2,7.2l-4.2,1.1c-0.4,1.5-0.9,3-1.7,4.4l2.4,3.6l-4.9,5.2l-3.7-2.2
						c-1.3,0.8-2.8,1.5-4.3,1.9l-0.9,4.2l-7.2,0.2l-1.1-4.2c-1.5-0.4-3-0.9-4.4-1.7l-3.6,2.4l-5.2-4.9l2.2-3.7
						c-0.8-1.3-1.5-2.8-1.9-4.3l-4.2-0.9l-0.2-7.2l4.2-1.1c0.4-1.5,0.9-3,1.7-4.4l-2.4-3.6l4.9-5.2L160.5,339.8L160.5,339.8z
						 M164.4,349.3c-2.9,3.1-2.8,7.9,0.3,10.9c3.1,2.9,7.9,2.8,10.9-0.3c2.9-3.1,2.8-7.9-0.3-10.9
						C172.2,346.1,167.3,346.2,164.4,349.3z"/>
				</g>
			</g>
		</g>
		<g>
			<g>
				<g>
					<g>
						<path class="st3" d="M164.4,349.3c0,0,0.4-0.6,1.4-1.3c1-0.7,2.8-1.4,5-1.2c1.1,0.1,2.3,0.5,3.4,1.2c1.1,0.7,2.1,1.7,2.8,3.1
							c0.3,0.7,0.6,1.4,0.7,2.2c0.1,0.8,0.2,1.6,0.1,2.4c-0.2,1.6-0.9,3.2-2.1,4.4c-1.2,1.2-2.7,2.1-4.3,2.3
							c-0.8,0.1-1.6,0.2-2.4,0.1c-0.8-0.1-1.5-0.3-2.2-0.6c-1.4-0.6-2.4-1.6-3.2-2.6c-0.8-1.1-1.2-2.3-1.4-3.4c-0.3-2.2,0.3-4,1-5.1
							C163.9,349.7,164.4,349.3,164.4,349.3c0,0-0.5,0.5-1,1.6c-0.6,1-1.2,2.8-0.8,4.9c0.2,1,0.6,2.2,1.3,3.2c0.7,1,1.8,1.9,3.1,2.5
							c0.6,0.3,1.3,0.5,2.1,0.6c0.7,0.1,1.5,0.1,2.2-0.1c1.5-0.3,3-1,4.1-2.2c1.1-1.2,1.8-2.7,2-4.2c0.1-0.8,0.1-1.5,0-2.2
							c-0.1-0.7-0.3-1.4-0.7-2c-0.6-1.3-1.6-2.3-2.6-3c-1-0.7-2.2-1.1-3.2-1.2c-2.1-0.3-3.9,0.4-4.9,1.1
							C164.9,348.8,164.4,349.3,164.4,349.3z"/>
					</g>
				</g>
			</g>
		</g>
		<g>
			<g>
				<g>
					<g>
						<path class="st3" d="M160.5,339.8c0,0-0.1,0-0.2-0.1c-0.2-0.1-0.4-0.2-0.7-0.4c-0.6-0.4-1.6-0.9-2.8-1.6l0.1,0
							c-1.3,1.3-2.9,3.1-4.9,5.2l0-0.1c0.7,1.1,1.5,2.3,2.4,3.6l0,0.1l0,0.1c-0.7,1.3-1.3,2.7-1.7,4.3l0,0.1l-0.1,0
							c-1.3,0.3-2.7,0.7-4.2,1.1l0.1-0.2c0.1,2.3,0.1,4.6,0.2,7.2l-0.1-0.2c1.3,0.3,2.8,0.5,4.2,0.8l0.1,0l0,0.1
							c0.4,1.4,1,2.8,1.9,4.2l0.1,0.1l-0.1,0.1c-0.7,1.2-1.4,2.4-2.2,3.7l0-0.2c1.6,1.5,3.4,3.2,5.2,4.9l-0.3,0
							c1.1-0.7,2.4-1.6,3.6-2.4l0.1-0.1l0.1,0.1c1.3,0.7,2.7,1.3,4.3,1.7l0.1,0l0,0.1c0.3,1.3,0.7,2.7,1.1,4.2l-0.2-0.2
							c2.3-0.1,4.7-0.1,7.2-0.2l-0.2,0.2c0.3-1.3,0.6-2.8,0.9-4.2l0-0.1l0.1,0c1.4-0.4,2.9-1,4.2-1.9l0,0l0.1-0.1l0.1,0.1
							c1.2,0.7,2.5,1.5,3.7,2.2l-0.3,0c1.7-1.8,3.3-3.5,4.9-5.2l0,0.3c-0.8-1.2-1.6-2.4-2.4-3.6l-0.1-0.1l0.1-0.1
							c0.8-1.4,1.3-2.8,1.7-4.3l0-0.1l0.1,0c1.4-0.4,2.8-0.7,4.2-1.1l-0.2,0.2c-0.1-2.4-0.1-4.8-0.2-7.2l0.2,0.2
							c-1.4-0.3-2.9-0.6-4.2-0.9l-0.1,0l0-0.1c-0.4-1.5-1.1-2.9-1.9-4.2l-0.1-0.1l0.1-0.1c0.8-1.3,1.5-2.5,2.2-3.7l0,0.2
							c-1.8-1.7-3.5-3.4-5.2-4.9l0.2,0c-1.3,0.8-2.5,1.6-3.6,2.4l-0.1,0.1l-0.1,0c-1.4-0.8-2.9-1.3-4.3-1.7l-0.1,0l0-0.1
							c-0.4-1.5-0.7-2.9-1-4.2l0.1,0.1c-2.8,0.1-5.1,0.1-7.2,0.1l0.1-0.1c-0.4,1.7-0.6,3.1-0.9,4.2l0,0l0,0
							c-1.5,0.4-2.6,0.9-3.3,1.3c-0.3,0.2-0.6,0.3-0.8,0.4C160.6,339.7,160.5,339.8,160.5,339.8c0,0,0.1-0.1,0.2-0.2
							c0.2-0.1,0.4-0.3,0.8-0.4c0.7-0.4,1.7-0.9,3.3-1.4l0,0.1c0.2-1.2,0.5-2.6,0.8-4.2l0-0.1l0.1,0c2-0.1,4.4-0.1,7.2-0.2l0.1,0
							l0,0.1c0.3,1.3,0.7,2.7,1.1,4.2l-0.1-0.1c1.4,0.3,2.9,0.9,4.4,1.7l-0.2,0c1.1-0.8,2.3-1.6,3.6-2.4l0.1-0.1l0.1,0.1
							c1.6,1.6,3.4,3.2,5.2,4.9l0.1,0.1l-0.1,0.1c-0.7,1.2-1.5,2.4-2.2,3.7l0-0.2c0.8,1.3,1.5,2.8,1.9,4.3l-0.2-0.1
							c1.4,0.3,2.8,0.6,4.2,0.8l0.2,0l0,0.2c0.1,2.3,0.1,4.7,0.2,7.2l0,0.2l-0.2,0c-1.4,0.3-2.8,0.7-4.2,1.1l0.2-0.2
							c-0.4,1.5-0.9,3-1.7,4.4l0-0.2c0.8,1.2,1.6,2.4,2.4,3.6l0.1,0.1l-0.1,0.1c-1.6,1.7-3.3,3.4-4.9,5.2l-0.1,0.1l-0.2-0.1
							c-1.2-0.7-2.5-1.5-3.7-2.2l0.2,0l0,0c-1.4,0.9-2.9,1.5-4.3,1.9l0.2-0.2c-0.3,1.5-0.6,2.9-0.9,4.2l0,0.2l-0.2,0
							c-2.5,0.1-4.9,0.1-7.2,0.2l-0.2,0l0-0.2c-0.4-1.4-0.7-2.9-1.1-4.2l0.2,0.2c-1.6-0.4-3.1-1-4.4-1.7l0.2,0
							c-1.2,0.8-2.5,1.6-3.6,2.4l-0.1,0.1l-0.1-0.1c-1.8-1.7-3.6-3.4-5.2-4.9l-0.1-0.1l0.1-0.1c0.8-1.3,1.5-2.6,2.2-3.7l0,0.2
							c-0.9-1.4-1.5-2.9-1.9-4.3l0.1,0.1c-1.5-0.3-2.9-0.6-4.2-0.9l-0.1,0l0-0.1c-0.1-2.5-0.1-4.9-0.2-7.2l0-0.1l0.1,0
							c1.5-0.4,2.9-0.7,4.2-1l-0.1,0.1c0.4-1.6,1-3.1,1.7-4.4l0,0.1c-0.9-1.3-1.7-2.5-2.4-3.6l0-0.1l0.1-0.1c2-2.1,3.7-3.8,5-5.2
							l0,0l0,0c1.2,0.7,2.1,1.3,2.7,1.7c0.3,0.2,0.5,0.3,0.7,0.4C160.4,339.7,160.5,339.7,160.5,339.8z"/>
					</g>
				</g>
			</g>
		</g>
	</g>
	<g>
		<g>
			<g>
				<g>
					<path class="st5" d="M227.3,378L227.3,378l-1.6-6.5c-2.3-0.6-4.6-1.4-6.7-2.6l-5.6,3.7l0,0l-8-7.6l0,0l3.4-5.7
						c-1.3-2-2.2-4.3-2.9-6.6l-6.6-1.3l0,0l-0.3-11.1l0,0l6.5-1.6c0.6-2.3,1.4-4.6,2.6-6.7l-3.7-5.6l0,0l7.6-8l0,0l5.7,3.4
						c2-1.3,4.3-2.2,6.6-2.9l1.3-6.6l0,0l11.1-0.3l0,0l1.6,6.5c2.3,0.6,4.6,1.4,6.7,2.6l5.6-3.7l0,0l8,7.6l0,0l-3.4,5.7
						c1.3,2,2.2,4.3,2.9,6.6l6.6,1.3l0,0l0.3,11.1l0,0l-6.5,1.6c-0.6,2.3-1.4,4.6-2.6,6.7l3.7,5.6l0,0l-7.6,8l0,0l-5.7-3.4
						c-2,1.3-4.3,2.2-6.6,2.9l-1.3,6.6l0,0L227.3,378z M218.9,368.9L218.9,368.9c2.1,1.2,4.4,2,6.7,2.6l0,0l0,0l1.6,6.5l11-0.3
						l1.3-6.5l0,0c2.3-0.7,4.5-1.7,6.6-2.9l0,0l0,0l5.7,3.4l7.6-8l-3.7-5.6l0,0c1.2-2.1,2-4.4,2.6-6.7l0,0l0,0l6.5-1.6l-0.3-11
						l-6.5-1.3l0,0c-0.7-2.3-1.7-4.5-2.9-6.6l0,0l0,0l3.4-5.7l-8-7.6l-5.6,3.7l0,0c-2.1-1.2-4.4-2-6.7-2.6l0,0l0,0l-1.6-6.5l-11,0.3
						l-1.3,6.5l0,0c-2.3,0.7-4.5,1.7-6.6,2.9l0,0l0,0l-5.7-3.4l-7.6,8l3.7,5.6l0,0c-1.2,2.1-2,4.4-2.6,6.7l0,0l0,0l-6.5,1.6l0.3,11
						l6.5,1.3l0,0c0.7,2.3,1.7,4.5,2.9,6.6l0,0l0,0l-3.4,5.7l8,7.6L218.9,368.9z M232.3,356.6c-3.1,0-6-1.2-8.2-3.3
						c-2.3-2.2-3.6-5.1-3.7-8.3c-0.1-3.2,1.1-6.2,3.3-8.5c2.2-2.3,5.1-3.6,8.3-3.7c3.2-0.1,6.2,1.1,8.5,3.3c2.3,2.2,3.6,5.1,3.7,8.3
						c0.1,3.2-1.1,6.2-3.3,8.5c-2.2,2.3-5.1,3.6-8.3,3.7C232.5,356.6,232.4,356.6,232.3,356.6z M223.8,336.5L223.8,336.5
						c-2.2,2.3-3.3,5.3-3.2,8.5c0.1,3.2,1.4,6.1,3.7,8.3c2.2,2.1,5.1,3.3,8.1,3.3c0.1,0,0.2,0,0.3,0c3.2-0.1,6.1-1.4,8.3-3.7
						c2.2-2.3,3.3-5.3,3.3-8.4c-0.1-3.2-1.4-6.1-3.7-8.3c-2.2-2.1-5.1-3.3-8.1-3.3c-0.1,0-0.2,0-0.3,0
						C228.9,332.9,226,334.3,223.8,336.5L223.8,336.5z"/>
				</g>
			</g>
		</g>
		<g>
			<g>
				<g>
					<g>
						<path class="st0" d="M223.8,336.5c0,0,0.6-0.9,2.2-2c1.5-1,4.3-2.2,7.7-1.9c1.7,0.2,3.6,0.7,5.3,1.8c1.7,1.1,3.3,2.7,4.3,4.8
							c0.5,1,0.9,2.1,1.1,3.3c0.2,1.2,0.3,2.4,0.1,3.6c-0.3,2.5-1.4,4.9-3.2,6.9c-1.8,1.9-4.2,3.2-6.7,3.6c-1.2,0.2-2.5,0.3-3.6,0.1
							c-1.2-0.1-2.3-0.5-3.4-0.9c-2.1-0.9-3.8-2.4-5-4c-1.2-1.6-1.8-3.5-2.1-5.2c-0.5-3.4,0.5-6.2,1.5-7.8
							C222.9,337.2,223.8,336.5,223.8,336.5c0.1,0.1-0.7,0.8-1.6,2.4c-0.9,1.6-1.8,4.3-1.3,7.6c0.3,1.6,0.9,3.4,2.1,4.9
							c1.2,1.5,2.7,3,4.8,3.8c1,0.4,2.1,0.7,3.2,0.9c1.1,0.1,2.3,0.1,3.5-0.1c2.3-0.4,4.6-1.6,6.3-3.4c1.7-1.8,2.8-4.1,3.1-6.5
							c0.2-1.2,0.1-2.3-0.1-3.5c-0.2-1.1-0.5-2.2-1-3.2c-0.9-2-2.4-3.5-4-4.6c-1.6-1.1-3.4-1.6-5-1.8c-3.3-0.4-6,0.7-7.5,1.6
							C224.5,335.8,223.8,336.6,223.8,336.5z"/>
					</g>
				</g>
			</g>
		</g>
		<g>
			<g>
				<g>
					<g>
						<path class="st0" d="M217.8,321.9c0,0-0.1-0.1-0.4-0.2c-0.3-0.2-0.6-0.4-1.1-0.6c-1-0.6-2.4-1.4-4.3-2.5l0.1,0
							c-1.9,2.1-4.5,4.8-7.6,8l0-0.2c1.1,1.7,2.4,3.5,3.7,5.5l0.1,0.1l-0.1,0.1c-1.1,2-2,4.2-2.5,6.7l0,0.1l-0.1,0
							c-2,0.5-4.2,1.1-6.5,1.7l0.2-0.2c0.1,3.5,0.2,7.2,0.3,11l-0.2-0.3c2,0.4,4.3,0.8,6.5,1.3l0.2,0l0,0.2c0.6,2.1,1.6,4.4,2.9,6.5
							l0.1,0.2l-0.1,0.2c-1.1,1.8-2.2,3.7-3.4,5.7l-0.1-0.4c2.5,2.4,5.2,5,8,7.6l-0.4,0c1.7-1.2,3.6-2.4,5.6-3.7l0.2-0.1l0.2,0.1
							c2,1.1,4.2,2,6.6,2.6l0.2,0l0,0.2c0.5,2,1.1,4.2,1.6,6.5l-0.3-0.3c3.5-0.1,7.2-0.2,11-0.3l-0.3,0.3c0.4-2.1,0.9-4.3,1.3-6.5
							l0-0.2l0.2-0.1c2.2-0.6,4.4-1.6,6.5-2.9l0,0l0.2-0.1l0.2,0.1c1.9,1.1,3.8,2.3,5.7,3.4l-0.4,0.1c2.6-2.7,5.1-5.4,7.6-8l0,0.4
							c-1.2-1.9-2.5-3.7-3.7-5.6l-0.1-0.2l0.1-0.2c1.2-2.1,2-4.4,2.6-6.6l0-0.2l0.2,0c2.2-0.6,4.3-1.1,6.5-1.6l-0.2,0.3
							c-0.1-3.8-0.2-7.5-0.3-11l0.3,0.3c-2.2-0.4-4.4-0.9-6.5-1.3l-0.2,0l-0.1-0.2c-0.7-2.3-1.7-4.5-2.9-6.5l-0.1-0.2l0.1-0.2
							c1.2-2,2.3-3.9,3.4-5.7l0,0.3c-2.8-2.7-5.5-5.2-8-7.6l0.3,0c-2,1.3-3.8,2.5-5.6,3.7l-0.1,0.1l-0.1-0.1
							c-2.2-1.2-4.5-2.1-6.7-2.6l-0.1,0l0-0.1c-0.6-2.4-1.1-4.5-1.6-6.5l0.2,0.2c-4.3,0.1-7.9,0.2-11,0.2l0.1-0.1
							c-0.5,2.6-1,4.8-1.4,6.5l0,0.1l-0.1,0c-2.3,0.7-4,1.4-5,2c-0.5,0.3-0.9,0.5-1.2,0.6C217.9,321.8,217.8,321.9,217.8,321.9
							c0,0,0.1-0.1,0.4-0.3c0.3-0.2,0.6-0.4,1.2-0.7c1.1-0.6,2.7-1.4,5-2.1l-0.1,0.1c0.3-1.8,0.8-3.9,1.3-6.6l0-0.1l0.1,0
							c3.1-0.1,6.8-0.2,11-0.3l0.2,0l0,0.2c0.5,2,1.1,4.1,1.7,6.5l-0.2-0.2c2.2,0.5,4.5,1.4,6.8,2.6l-0.3,0c1.8-1.2,3.6-2.4,5.5-3.7
							l0.2-0.1l0.2,0.1c2.5,2.4,5.2,4.9,8,7.6l0.2,0.2l-0.1,0.2c-1.1,1.9-2.2,3.8-3.4,5.7l0-0.3c1.2,2,2.3,4.3,3,6.7l-0.2-0.2
							c2.1,0.4,4.3,0.9,6.5,1.3l0.2,0l0,0.3c0.1,3.6,0.2,7.3,0.3,11l0,0.3l-0.3,0.1c-2.1,0.5-4.3,1.1-6.5,1.6l0.2-0.2
							c-0.6,2.3-1.4,4.6-2.6,6.8l0-0.3c1.2,1.8,2.5,3.7,3.7,5.6l0.1,0.2l-0.2,0.2c-2.5,2.6-5,5.3-7.6,8l-0.2,0.2l-0.2-0.1
							c-1.9-1.1-3.8-2.3-5.7-3.4l0.4,0l0,0c-2.1,1.3-4.4,2.3-6.7,2.9l0.2-0.3c-0.5,2.2-0.9,4.5-1.3,6.5l-0.1,0.3l-0.3,0
							c-3.8,0.1-7.5,0.2-11,0.3l-0.3,0l-0.1-0.3c-0.6-2.2-1.1-4.4-1.6-6.5l0.2,0.2c-2.5-0.6-4.8-1.5-6.8-2.6l0.3,0
							c-1.9,1.3-3.8,2.5-5.6,3.7l-0.2,0.1l-0.2-0.2c-2.8-2.6-5.5-5.2-8-7.6l-0.2-0.2l0.1-0.2c1.2-2,2.4-4,3.4-5.7l0,0.3
							c-1.3-2.2-2.3-4.5-2.9-6.7l0.2,0.2c-2.3-0.5-4.5-0.9-6.5-1.3l-0.2,0l0-0.2c-0.1-3.9-0.2-7.6-0.2-11l0-0.2l0.2,0
							c2.3-0.6,4.5-1.1,6.5-1.6l-0.2,0.2c0.6-2.5,1.5-4.8,2.6-6.8l0,0.2c-1.3-2-2.6-3.9-3.7-5.6l-0.1-0.1l0.1-0.1
							c3.1-3.2,5.7-5.9,7.7-8l0.1-0.1l0.1,0c1.8,1.1,3.2,2,4.2,2.6c0.5,0.3,0.8,0.5,1.1,0.7C217.6,321.8,217.8,321.8,217.8,321.9z"
							/>
					</g>
				</g>
			</g>
		</g>
	</g>
	<g>
		<g class="st4">
			<g>
				<g>
					<g>
						<g>
							<g>
								
									<rect x="408.3" y="53.9" transform="matrix(1 -5.365873e-03 5.365873e-03 1 -0.3911 2.2137)" class="st5" width="8.1" height="40.2"/>
							</g>
						</g>
					</g>
				</g>
			</g>
		</g>
		<g>
			<g class="st4">
				<g>
					<g>
						<g>
							<g>
								<g>
									
										<rect x="338.4" y="54.1" transform="matrix(1 -5.350102e-03 5.350102e-03 1 -0.3435 1.8671)" class="st7" width="20.9" height="22.2"/>
								</g>
							</g>
						</g>
					</g>
				</g>
			</g>
			<g class="st4">
				<g>
					<g>
						<g>
							<g>
								<g>
									
										<rect x="359.2" y="53.9" transform="matrix(1 -5.350051e-03 5.350051e-03 1 -0.3426 1.9783)" class="st6" width="20.9" height="22.2"/>
								</g>
							</g>
						</g>
					</g>
				</g>
			</g>
			<g>
				<g>
					<g>
						<g>
							<g>
								<g>
									<g>
										<path class="st2" d="M338.3,60.2c13.9,0.1,27.8,0,41.7-0.2c0.3,0,0.3-0.4,0-0.4c-13.9-0.1-27.8,0-41.7,0.3
											C338.1,59.9,338.1,60.2,338.3,60.2L338.3,60.2z"/>
									</g>
								</g>
							</g>
						</g>
					</g>
				</g>
			</g>
		</g>
		<g>
			<g class="st4">
				<g>
					<g>
						<g>
							<g>
								<g>
									
										<rect x="325.3" y="75.9" transform="matrix(1 -5.357362e-03 5.357362e-03 1 -0.4501 1.8458)" class="st7" width="38" height="18.1"/>
								</g>
							</g>
						</g>
					</g>
				</g>
			</g>
			<g class="st4">
				<g>
					<g>
						<g>
							<g>
								<g>
									
										<rect x="363.1" y="75.7" transform="matrix(1 -5.360011e-03 5.360011e-03 1 -0.4487 2.0492)" class="st6" width="38" height="18.1"/>
								</g>
							</g>
						</g>
					</g>
				</g>
			</g>
			<g>
				<g>
					<g>
						<g>
							<g>
								<g>
									<g>
										<path class="st2" d="M325.3,81c25.2,0.3,50.5,0,75.8-0.4c0.3,0,0.3-0.4,0-0.4c-25.2-0.1-50.5-0.1-75.8,0.4
											C325,80.7,325,81,325.3,81L325.3,81z"/>
									</g>
								</g>
							</g>
						</g>
					</g>
				</g>
			</g>
		</g>
		<g class="st4">
			<g>
				<g>
					<g>
						<g>
							<g>
								<rect x="311.1" y="94.1" class="st5" width="147.1" height="6.5"/>
							</g>
						</g>
					</g>
				</g>
			</g>
			<g>
				<g>
					<g>
						<g>
							<g>
								<rect x="335.2" y="97.2" class="st5" width="6" height="22.1"/>
							</g>
						</g>
					</g>
				</g>
			</g>
			<g>
				<g>
					<g>
						<g>
							<g>
								<rect x="424.3" y="97.2" class="st5" width="6" height="22.1"/>
							</g>
						</g>
					</g>
				</g>
			</g>
		</g>
		<g class="st4">
			<g>
				<g>
					<g>
						<g>
							<g>
								
									<rect x="416.2" y="38.9" transform="matrix(1 -5.353482e-03 5.353482e-03 1 -0.3503 2.2508)" class="st7" width="8.1" height="55.2"/>
							</g>
						</g>
					</g>
				</g>
			</g>
		</g>
		<g>
			<g class="st4">
				<g>
					<g>
						<g>
							<g>
								<g>
									
										<rect x="424.3" y="49.2" transform="matrix(1 -5.367348e-03 5.367348e-03 1 -0.3782 2.3122)" class="st6" width="12.5" height="44.8"/>
								</g>
							</g>
						</g>
					</g>
				</g>
			</g>
			<g>
				<g>
					<g>
						<g>
							<g>
								<g>
									<path class="st2" d="M436.7,57.8c0,0.1-2.8,0.2-6.3,0.2c-3.5,0-6.3-0.1-6.3-0.2c0-0.1,2.8-0.2,6.3-0.2
										C433.9,57.6,436.7,57.7,436.7,57.8z"/>
								</g>
							</g>
						</g>
					</g>
				</g>
			</g>
			<g>
				<g>
					<g>
						<g>
							<g>
								<g>
									<path class="st2" d="M436.7,55.9c0,0.1-2.8,0.2-6.3,0.2c-3.5,0-6.3-0.1-6.3-0.2c0-0.1,2.8-0.2,6.3-0.2
										C433.9,55.7,436.7,55.8,436.7,55.9z"/>
								</g>
							</g>
						</g>
					</g>
				</g>
			</g>
			<g>
				<g>
					<g>
						<g>
							<g>
								<g>
									<path class="st2" d="M436.7,87.2c0,0.1-2.8,0.2-6.3,0.2c-3.5,0-6.3-0.1-6.3-0.2c0-0.1,2.8-0.2,6.3-0.2
										C433.9,87,436.7,87.1,436.7,87.2z"/>
								</g>
							</g>
						</g>
					</g>
				</g>
			</g>
			<g>
				<g>
					<g>
						<g>
							<g>
								<g>
									<path class="st2" d="M436.7,85.3c0,0.1-2.8,0.2-6.3,0.2c-3.5,0-6.3-0.1-6.3-0.2c0-0.1,2.8-0.2,6.3-0.2
										C433.9,85.1,436.7,85.2,436.7,85.3z"/>
								</g>
							</g>
						</g>
					</g>
				</g>
			</g>
			<g>
				<g>
					<g>
						<g>
							<g>
								<g>
									<path class="st2" d="M430.6,81.2c-0.1,0-0.2-4.5-0.2-10.1c0-5.6,0.1-10.1,0.2-10.1c0.1,0,0.2,4.5,0.2,10.1
										C430.8,76.7,430.7,81.2,430.6,81.2z"/>
								</g>
							</g>
						</g>
					</g>
				</g>
			</g>
		</g>
		<g class="st4">
			<g>
				<g>
					<g>
						<g>
							<g>
								<rect x="436.8" y="60.2" class="st7" width="13.6" height="33.8"/>
							</g>
						</g>
					</g>
				</g>
			</g>
		</g>
		<g class="st4">
			<g>
				<g>
					<g>
						<g>
							<path class="st5" d="M422.3,48.4c0,1.3-1,2.3-2.3,2.3c-1.3,0-2.3-1-2.3-2.3c0-1.3,1-2.3,2.3-2.3
								C421.3,46,422.3,47.1,422.3,48.4z"/>
						</g>
					</g>
				</g>
			</g>
		</g>
		<g>
			<g>
				<g>
					<g>
						<g>
							<rect x="419.3" y="54.7" class="st2" width="1.4" height="32.9"/>
						</g>
					</g>
				</g>
			</g>
		</g>
	</g>
	<g>
		<g class="st4">
			<polygon class="st7" points="350.6,433 356.1,468.9 387.8,468.9 395.2,433.5 			"/>
		</g>
		<g>
			<g>
				<g>
					<path class="st1" d="M390.8,456c0,0.1-8.1,0.2-18.2,0.2c-10,0-18.2-0.1-18.2-0.2c0-0.1,8.1-0.2,18.2-0.2
						C382.6,455.8,390.8,455.9,390.8,456z"/>
				</g>
			</g>
			<g>
				<g>
					<path class="st1" d="M390.9,454.3c0,0.1-8.2,0.2-18.3,0.2c-10.1,0-18.3-0.1-18.3-0.2c0-0.1,8.2-0.2,18.3-0.2
						C382.7,454.1,390.9,454.2,390.9,454.3z"/>
				</g>
			</g>
			<g>
				<g>
					<path class="st1" d="M390.8,452.3c0,0.1-8.2,0.2-18.3,0.2c-10.1,0-18.3-0.1-18.3-0.2c0-0.1,8.2-0.2,18.3-0.2
						C382.6,452.1,390.8,452.2,390.8,452.3z"/>
				</g>
			</g>
			<g>
				<g>
					<path class="st1" d="M359.7,466.9c-0.1,0-0.5-2-1-4.5c-0.4-2.5-0.7-4.6-0.6-4.6c0.1,0,0.5,2,1,4.5
						C359.5,464.8,359.8,466.9,359.7,466.9z"/>
				</g>
			</g>
			<g>
				<g>
					<path class="st1" d="M361.9,466.5c-0.1,0-0.2-2-0.4-4.4c-0.2-2.4-0.3-4.4-0.2-4.4c0.1,0,0.4,2,0.6,4.4
						C362,464.5,362,466.5,361.9,466.5z"/>
				</g>
			</g>
			<g>
				<g>
					<path class="st1" d="M365.8,466.5c-0.1,0-0.5-2-0.8-4.5c-0.3-2.5-0.3-4.6-0.2-4.6c0.1,0,0.3,2,0.6,4.6
						C365.6,464.4,365.9,466.5,365.8,466.5z"/>
				</g>
			</g>
			<g>
				<g>
					<path class="st1" d="M368.6,466.7c-0.1,0-0.4-2-0.4-4.6c-0.1-2.6,0-4.6,0.1-4.6c0.1,0,0.1,2.1,0.2,4.6
						C368.6,464.6,368.7,466.7,368.6,466.7z"/>
				</g>
			</g>
			<g>
				<g>
					<path class="st1" d="M373.5,466.5c-0.1,0-0.3-2-0.3-4.4c-0.1-2.4-0.1-4.4,0-4.4c0.1,0,0.3,2,0.3,4.4
						C373.6,464.5,373.6,466.5,373.5,466.5z"/>
				</g>
			</g>
			<g>
				<g>
					<path class="st1" d="M377,466.7c-0.1,0-0.2-2-0.1-4.5c0-2.5,0.1-4.5,0.2-4.5c0.1,0,0.2,2,0.1,4.5
						C377.2,464.7,377.1,466.7,377,466.7z"/>
				</g>
			</g>
			<g>
				<g>
					<path class="st1" d="M380.4,466.2c-0.1,0,0-2.1,0.3-4.7c0.3-2.6,0.5-4.7,0.6-4.7c0.1,0,0,2.1-0.3,4.7
						C380.8,464.1,380.5,466.2,380.4,466.2z"/>
				</g>
			</g>
			<g>
				<g>
					<path class="st1" d="M384.7,465.7c-0.1,0,0.1-1.8,0.5-4c0.5-2.2,1.1-3.9,1.2-3.9c0.1,0-0.3,1.8-0.8,4
						C385.1,464,384.8,465.7,384.7,465.7z"/>
				</g>
			</g>
		</g>
		<g>
			<g>
				<g>
					<path class="st0" d="M381.7,362.1c0,0,0,0.1,0,0.2c0,0.1-0.1,0.3-0.1,0.5c-0.1,0.5-0.3,1.1-0.6,1.9c-0.3,0.8-0.6,1.9-0.9,3.1
						c-0.3,1.2-0.8,2.6-1.1,4.1c-0.4,1.5-0.8,3.2-1.2,5c-0.4,1.8-0.8,3.7-1.2,5.8c-0.8,4.1-1.5,8.6-1.9,13.4
						c-0.5,4.8-0.7,9.4-0.7,13.5c0,2.1,0,4.1,0.1,5.9c0,1.9,0.1,3.6,0.2,5.1c0.1,1.6,0.2,3,0.3,4.2c0.1,1.2,0.2,2.3,0.3,3.2
						c0.1,0.9,0.2,1.5,0.2,2c0,0.2,0,0.4,0,0.5c0,0.1,0,0.2,0,0.2c0,0,0-0.1,0-0.2c0-0.1,0-0.3-0.1-0.5c-0.1-0.5-0.2-1.2-0.3-2
						c-0.1-0.9-0.3-1.9-0.4-3.2c-0.1-1.2-0.3-2.7-0.4-4.2c-0.1-1.6-0.2-3.3-0.3-5.2c-0.1-1.9-0.1-3.8-0.1-5.9
						c0-4.2,0.2-8.8,0.7-13.6c0.5-4.8,1.2-9.3,2-13.4c0.4-2,0.8-4,1.3-5.8c0.4-1.8,0.9-3.5,1.3-5c0.4-1.5,0.8-2.9,1.2-4.1
						c0.4-1.2,0.7-2.2,1-3.1c0.3-0.8,0.5-1.5,0.7-1.9c0.1-0.2,0.1-0.4,0.2-0.5C381.6,362.2,381.6,362.1,381.7,362.1z"/>
				</g>
			</g>
			<g class="st4">
				<path class="st7" d="M375.9,384.4c0.9-2.6,2.6-4.8,4.9-6.2c0.8-0.5,1.8-0.9,2.6-0.5c1.1,0.5,1.2,2.1,0.9,3.3
					c-0.6,2-1.9,3.8-3.6,4.9c-1.7,1.1-3.3,1.7-5.4,1.4"/>
			</g>
			<g class="st4">
				<path class="st7" d="M374,399.4c0.8-3.1,3.3-7.5,5.9-9.4c0.4-0.3,0.8-0.6,1.3-0.7c0.5-0.1,1.1,0,1.4,0.3
					c0.5,0.5,0.5,1.3,0.3,2.1c-1,4.5-4.8,8.3-9.3,9.3"/>
			</g>
			<g class="st4">
				<path class="st7" d="M373.5,412.6c1.3-2.9,3.3-5.5,5.9-7.4c0.6-0.4,1.3-0.9,2.1-0.7c1.1,0.2,1.6,1.6,1.5,2.7
					c-0.2,2.3-2,4.2-3.8,5.7c-2,1.6-5.5,2.8-5.5,2.8"/>
			</g>
			<g class="st4">
				<path class="st7" d="M373.8,422.1c1.3-2.2,2.9-4.3,5-5.7c0.5-0.3,1-0.6,1.5-0.7c0.6-0.1,1.2,0.1,1.5,0.6c0.5,0.7,0,1.7-0.5,2.5
					c-1.9,2.5-4.2,4.3-7.2,5.3"/>
			</g>
			<g class="st4">
				<path class="st7" d="M373.5,418.2c-2.2-2.7-4.6-5.1-7.2-7.3c-0.4-0.3-0.9-0.7-1.4-0.5c-0.4,0.1-0.6,0.6-0.7,1
					c0,0.4,0.1,0.8,0.3,1.2c1.6,3.8,5.3,6.8,9.3,7.8"/>
			</g>
			<g class="st4">
				<path class="st7" d="M373.7,405.9c-1.9-2.3-3.8-4.6-5.7-6.9c-0.5-0.7-1.1-1.3-1.8-1.7c-0.7-0.4-1.7-0.5-2.4,0
					c-0.7,0.5-0.9,1.4-0.8,2.3c0.2,0.8,0.6,1.6,1.1,2.3c1.1,1.7,2.5,3.2,4.1,4.4c1.7,1.1,3.2,1.9,5.2,1.6"/>
			</g>
			<g class="st4">
				<path class="st7" d="M374.5,391.9c-1.1-3.3-3.1-6.3-5.7-8.5c-0.4-0.4-0.9-0.8-1.5-0.9c-1.1-0.2-2.2,0.7-2.6,1.8
					c-0.4,1.2-0.1,2.6,0.5,3.7c0.6,1.1,1.6,2,2.7,2.8c1.9,1.5,4,2.6,6.3,3.4"/>
			</g>
			<g class="st4">
				<path class="st7" d="M376.8,379.5c-0.5-4-2.6-7.3-5-10.6c-0.5-0.7-1.2-1.4-2.1-1.3c-0.5,0.1-1,0.5-1.2,1
					c-0.2,0.5-0.2,1.1-0.2,1.6c0.1,4.8,3.5,9.4,8,11"/>
			</g>
			<g class="st4">
				<path class="st7" d="M378.4,373.2c-0.2-2.1-0.4-4.1-0.2-6.2c0.2-2.1,0.8-4.1,2.1-5.8c0.5-0.7,1.2-1.3,2.1-1.6
					c0.8-0.3,1.8-0.2,2.5,0.3c0.6,0.5,0.9,1.4,0.9,2.2c0,0.8-0.3,1.6-0.6,2.4C383.5,368.2,381,372.2,378.4,373.2"/>
			</g>
		</g>
		<g>
			<g>
				<g>
					<path class="st2" d="M353.7,377.9c0,0,0,0.2,0,0.5c0,0.4,0,0.9,0,1.5c0,0.6,0,1.4,0,2.3c0,0.9,0,1.9,0.1,3
						c0.1,2.2,0.3,4.9,0.7,7.9c0.4,3,0.9,6.2,1.6,9.5c0.7,3.4,1.6,6.5,2.4,9.4c0.9,2.8,1.7,5.4,2.6,7.5c0.4,1.1,0.8,2,1.1,2.8
						c0.3,0.8,0.6,1.5,0.9,2.1c0.2,0.6,0.4,1,0.6,1.3c0.1,0.3,0.2,0.5,0.2,0.5c0,0-0.1-0.1-0.2-0.4c-0.2-0.3-0.4-0.8-0.6-1.3
						c-0.3-0.6-0.6-1.3-0.9-2.1c-0.4-0.8-0.8-1.8-1.2-2.8c-0.8-2.1-1.7-4.6-2.6-7.5c-0.9-2.9-1.7-6-2.4-9.4
						c-0.7-3.4-1.2-6.6-1.5-9.6c-0.3-3-0.5-5.6-0.6-7.9c-0.1-1.1,0-2.1-0.1-3c0-0.9,0-1.7,0-2.3c0-0.6,0-1.1,0.1-1.5
						C353.7,378.1,353.7,377.9,353.7,377.9z"/>
				</g>
			</g>
			<g class="st4">
				<path class="st5" d="M354.6,394.3c0-1.9,0.8-3.8,2-5.3c0.4-0.5,1-1,1.7-0.9c0.9,0.1,1.3,1.2,1.3,2c0.1,1.5-0.5,3-1.4,4.1
					c-0.9,1.1-1.9,1.9-3.4,2.1"/>
			</g>
			<g class="st4">
				<path class="st5" d="M356.5,405c-0.1-2.3,0.6-5.8,2-7.7c0.2-0.3,0.4-0.6,0.8-0.8c0.3-0.2,0.7-0.3,1-0.1c0.5,0.2,0.6,0.8,0.7,1.3
					c0.3,3.3-1.4,6.7-4.3,8.3"/>
			</g>
			<g class="st4">
				<path class="st5" d="M359,414.1c0.2-2.3,1.1-4.5,2.4-6.3c0.3-0.4,0.7-0.9,1.2-0.9c0.8-0.1,1.4,0.7,1.6,1.5
					c0.4,1.6-0.4,3.3-1.4,4.7c-1,1.5-3.1,3.1-3.1,3.1"/>
			</g>
			<g class="st4">
				<path class="st5" d="M361.3,420.5c0.4-1.8,1.1-3.5,2.2-5c0.2-0.3,0.5-0.6,0.9-0.8c0.4-0.2,0.8-0.2,1.1,0.1
					c0.5,0.4,0.4,1.2,0.2,1.8c-0.7,2.1-1.9,3.9-3.8,5.1"/>
			</g>
			<g class="st4">
				<path class="st5" d="M360.3,417.9c-2-1.3-4.2-2.5-6.5-3.4c-0.4-0.1-0.8-0.3-1.1-0.1c-0.2,0.2-0.3,0.5-0.2,0.8
					c0.1,0.3,0.3,0.5,0.4,0.8c1.9,2.2,5.1,3.5,8,3.3"/>
			</g>
			<g class="st4">
				<path class="st5" d="M357.8,409.4c-1.8-1.2-3.6-2.3-5.3-3.5c-0.5-0.3-1-0.7-1.6-0.8c-0.6-0.1-1.3,0-1.6,0.5
					c-0.4,0.5-0.3,1.2,0,1.7c0.3,0.5,0.8,0.9,1.2,1.3c1.1,0.9,2.4,1.7,3.7,2.1c1.4,0.4,2.6,0.6,3.9,0"/>
			</g>
			<g class="st4">
				<path class="st5" d="M355.3,399.8c-1.5-2-3.4-3.6-5.7-4.6c-0.4-0.2-0.8-0.3-1.2-0.3c-0.8,0.1-1.4,1-1.4,1.8
					c0,0.9,0.5,1.8,1.2,2.4c0.7,0.6,1.5,1,2.4,1.3c1.6,0.6,3.3,0.9,5,1"/>
			</g>
			<g class="st4">
				<path class="st5" d="M354.2,390.9c-1.2-2.6-3.4-4.4-5.7-6.1c-0.5-0.4-1.1-0.7-1.7-0.4c-0.3,0.2-0.5,0.6-0.6,0.9
					c0,0.4,0.1,0.8,0.2,1.1c1.1,3.3,4.4,5.7,7.8,5.8"/>
			</g>
			<g class="st4">
				<path class="st5" d="M353.9,386.2c-0.6-1.4-1.2-2.7-1.5-4.2c-0.3-1.4-0.3-3,0.2-4.4c0.2-0.6,0.5-1.2,1-1.6
					c0.5-0.4,1.2-0.6,1.8-0.3c0.5,0.2,0.9,0.8,1.1,1.3c0.2,0.6,0.1,1.2,0.1,1.7C356.3,381.7,355.5,384.9,353.9,386.2"/>
			</g>
		</g>
		<g>
			<g>
				<g>
					<path class="st0" d="M393.9,377.6c0,0,0,0.2,0,0.5c0,0.4,0,0.9,0.1,1.5c0,0.6,0,1.4,0,2.3c0,0.9,0,1.9-0.1,3
						c-0.1,2.3-0.3,4.9-0.6,7.9c-0.3,3-0.8,6.2-1.5,9.6c-0.7,3.4-1.6,6.5-2.4,9.4c-0.9,2.8-1.8,5.4-2.6,7.5c-0.4,1.1-0.8,2-1.2,2.8
						c-0.3,0.8-0.7,1.5-0.9,2.1c-0.3,0.5-0.5,1-0.6,1.3c-0.1,0.3-0.2,0.4-0.2,0.4c0,0,0-0.2,0.2-0.5c0.1-0.3,0.3-0.8,0.6-1.3
						c0.3-0.6,0.6-1.3,0.9-2.1c0.3-0.8,0.7-1.8,1.1-2.8c0.8-2.1,1.7-4.6,2.6-7.5c0.9-2.8,1.7-6,2.4-9.4c0.7-3.4,1.2-6.6,1.6-9.5
						c0.3-3,0.6-5.6,0.7-7.9c0.1-1.1,0.1-2.1,0.1-3c0-0.9,0-1.7,0-2.3c0-0.6,0-1.1,0-1.5C393.9,377.8,393.9,377.6,393.9,377.6z"/>
				</g>
			</g>
			<g class="st4">
				<path class="st7" d="M393,394c0-1.9-0.8-3.8-2-5.3c-0.4-0.5-1-1-1.7-0.9c-0.9,0.1-1.3,1.2-1.3,2c-0.1,1.5,0.5,3,1.4,4.1
					c0.9,1.1,1.9,1.9,3.4,2.1"/>
			</g>
			<g class="st4">
				<path class="st7" d="M391.1,404.6c0.1-2.3-0.6-5.8-2-7.7c-0.2-0.3-0.4-0.6-0.8-0.8s-0.7-0.3-1-0.1c-0.5,0.2-0.6,0.8-0.7,1.3
					c-0.3,3.3,1.4,6.7,4.3,8.3"/>
			</g>
			<g class="st4">
				<path class="st7" d="M388.6,413.7c-0.2-2.3-1.1-4.5-2.4-6.3c-0.3-0.4-0.7-0.9-1.2-0.9c-0.8-0.1-1.4,0.7-1.6,1.5
					c-0.4,1.6,0.4,3.3,1.4,4.7c1,1.5,3.1,3.1,3.1,3.1"/>
			</g>
			<g>
				<path class="st0" d="M386.4,420.1c-0.4-1.8-1.1-3.5-2.2-5c-0.2-0.3-0.5-0.6-0.9-0.8c-0.4-0.2-0.8-0.2-1.1,0.1
					c-0.5,0.4-0.4,1.2-0.2,1.8c0.7,2.1,1.9,3.9,3.8,5.1"/>
			</g>
			<g class="st4">
				<path class="st7" d="M387.4,417.6c2-1.3,4.2-2.5,6.5-3.4c0.4-0.1,0.8-0.3,1.1-0.1c0.2,0.2,0.3,0.5,0.2,0.8
					c-0.1,0.3-0.3,0.5-0.4,0.8c-1.9,2.2-5.1,3.5-8,3.3"/>
			</g>
			<g class="st4">
				<path class="st7" d="M389.9,409.1c1.8-1.2,3.6-2.3,5.3-3.5c0.5-0.3,1-0.7,1.6-0.8c0.6-0.1,1.3,0,1.6,0.5c0.4,0.5,0.3,1.2,0,1.7
					c-0.3,0.5-0.8,0.9-1.2,1.3c-1.1,0.9-2.4,1.7-3.7,2.1c-1.4,0.4-2.6,0.6-3.9,0"/>
			</g>
			<g class="st4">
				<path class="st7" d="M392.3,399.5c1.5-2,3.4-3.6,5.7-4.6c0.4-0.2,0.8-0.3,1.2-0.3c0.8,0.1,1.4,1,1.4,1.8c0,0.9-0.5,1.8-1.2,2.4
					c-0.7,0.6-1.5,1-2.4,1.3c-1.6,0.6-3.3,0.9-5,1"/>
			</g>
			<g class="st4">
				<path class="st7" d="M393.5,390.5c1.2-2.6,3.4-4.4,5.7-6.1c0.5-0.4,1.1-0.7,1.7-0.4c0.3,0.2,0.5,0.6,0.6,0.9
					c0,0.4-0.1,0.8-0.2,1.1c-1.1,3.3-4.4,5.7-7.8,5.8"/>
			</g>
			<g class="st4">
				<path class="st7" d="M393.7,385.9c0.6-1.4,1.2-2.7,1.5-4.2c0.3-1.4,0.3-3-0.2-4.4c-0.2-0.6-0.5-1.2-1-1.6
					c-0.5-0.4-1.2-0.6-1.8-0.3c-0.5,0.2-0.9,0.8-1.1,1.3c-0.2,0.6-0.1,1.2-0.1,1.7C391.3,381.3,392.2,384.6,393.7,385.9"/>
			</g>
		</g>
		<g class="st4">
			<path class="st7" d="M347,425.9v6.7c0,1.5,1.2,2.6,2.6,2.6h46c1.5,0,2.6-1.2,2.6-2.6v-6.7H347z"/>
		</g>
		<g class="st4">
			<polygon class="st5" points="350.9,435.3 351.3,437.4 393.8,440.4 394.8,435.3 			"/>
		</g>
	</g>
	<g>
		<g>
			<g>
				<g>
					<g>
						<g>
							<g>
								<g>
									<g>
										<g>
											<rect x="363.8" y="136.1" class="st2" width="60" height="62.6"/>
										</g>
									</g>
								</g>
							</g>
						</g>
					</g>
				</g>
			</g>
		</g>
		<g>
			<g class="st4">
				<g>
					<g>
						<g>
							<g>
								<g>
									<g>
										<g>
											<rect x="359.7" y="136.1" class="st8" width="60" height="62.6"/>
										</g>
									</g>
								</g>
							</g>
						</g>
					</g>
				</g>
			</g>
			<g>
				<g>
					<g>
						<g>
							<g>
								<g>
									<g>
										<g>
											<path class="st2" d="M419.8,198.6h-60.1V136h60.1V198.6z M359.8,198.6h60v-62.5h-60V198.6z"/>
										</g>
									</g>
								</g>
							</g>
						</g>
					</g>
				</g>
			</g>
		</g>
		<g class="st4">
			<g>
				<g>
					<g>
						<g>
							<g>
								<g>
									<g>
										<g>
											<rect x="367.8" y="144.5" class="st8" width="43.9" height="45.7"/>
										</g>
									</g>
								</g>
							</g>
						</g>
					</g>
				</g>
			</g>
		</g>
		<g>
			<g>
				<g>
					<g>
						<g>
							<g>
								<g>
									<g>
										<g>
											<g>
												<path class="st2" d="M367.8,190.5c0,0-0.4,0.5-1.1,1.3c-0.7,0.7-1.7,1.7-2.8,2.8c-1.1,1.1-2.1,2.1-2.9,2.7
													c-0.7,0.7-1.2,1.1-1.3,1.1c0,0,0.4-0.5,1.1-1.3c0.7-0.7,1.7-1.7,2.8-2.8c1.1-1.1,2.1-2.1,2.9-2.7
													C367.3,190.9,367.8,190.5,367.8,190.5z"/>
											</g>
										</g>
									</g>
								</g>
							</g>
						</g>
					</g>
				</g>
			</g>
		</g>
		<g>
			<g>
				<g>
					<g>
						<g>
							<g>
								<g>
									<g>
										<g>
											<g>
												<path class="st2" d="M411.7,190.4c0,0,0.5,0.4,1.3,1.1c0.7,0.7,1.7,1.7,2.8,2.8c1.1,1.1,2.1,2.1,2.7,2.9
													c0.7,0.7,1.1,1.2,1.1,1.3c0,0-0.5-0.4-1.3-1.1c-0.7-0.7-1.7-1.7-2.8-2.8c-1.1-1.1-2.1-2.1-2.7-2.9
													C412,190.9,411.6,190.4,411.7,190.4z"/>
											</g>
										</g>
									</g>
								</g>
							</g>
						</g>
					</g>
				</g>
			</g>
		</g>
		<g>
			<g>
				<g>
					<g>
						<g>
							<g>
								<g>
									<g>
										<g>
											<g>
												<path class="st2" d="M411.6,144.6c0,0,0.4-0.5,1.1-1.3c0.7-0.7,1.7-1.7,2.8-2.8c1.1-1.1,2.1-2.1,2.9-2.7
													c0.7-0.7,1.2-1.1,1.3-1.1c0,0-0.4,0.5-1.1,1.3c-0.7,0.7-1.7,1.7-2.8,2.8c-1.1,1.1-2.1,2.1-2.9,2.7
													C412.1,144.2,411.6,144.6,411.6,144.6z"/>
											</g>
										</g>
									</g>
								</g>
							</g>
						</g>
					</g>
				</g>
			</g>
		</g>
		<g>
			<g>
				<g>
					<g>
						<g>
							<g>
								<g>
									<g>
										<g>
											<g>
												<path class="st2" d="M367.7,144.7c0,0-0.5-0.4-1.3-1.1c-0.7-0.7-1.7-1.7-2.8-2.8c-1.1-1.1-2.1-2.1-2.7-2.9
													c-0.7-0.7-1.1-1.2-1.1-1.3c0,0,0.5,0.4,1.3,1.1c0.7,0.7,1.7,1.7,2.8,2.8c1.1,1.1,2.1,2.1,2.7,2.9
													C367.3,144.2,367.7,144.7,367.7,144.7z"/>
											</g>
										</g>
									</g>
								</g>
							</g>
						</g>
					</g>
				</g>
			</g>
		</g>
		<g>
			<g>
				<g>
					<g>
						<g>
							<g>
								<g>
									<g>
										<g>
											<g>
												<path class="st2" d="M411.6,190.2c0,0,0-0.1,0-0.2c0-0.2,0-0.4,0-0.6c0-0.6,0-1.4,0-2.5c0-2.2,0-5.3,0-9.3
													c0-8-0.1-19.4-0.1-33.1l0.2,0.2c-12.8,0-27.8,0-43.8,0h0l0.2-0.2c0,16.8,0,32.5,0,45.7l-0.2-0.2c13.1,0,24,0.1,31.7,0.1
													c3.8,0,6.8,0,8.9,0c1,0,1.8,0,2.4,0c0.3,0,0.5,0,0.6,0C411.5,190.2,411.6,190.2,411.6,190.2c0,0-0.1,0-0.2,0
													c-0.1,0-0.3,0-0.6,0c-0.5,0-1.3,0-2.3,0c-2.1,0-5.1,0-8.9,0c-7.7,0-18.6,0.1-31.8,0.1l-0.2,0l0-0.2c0-13.2,0-29,0-45.7
													l0-0.2h0.2h0c16,0,31,0,43.8,0h0.2l0,0.2c0,13.7-0.1,25.2-0.1,33.2c0,4,0,7.1,0,9.3c0,1.1,0,1.9,0,2.4
													c0,0.3,0,0.5,0,0.6C411.6,190.1,411.6,190.2,411.6,190.2z"/>
											</g>
										</g>
									</g>
								</g>
							</g>
						</g>
					</g>
				</g>
			</g>
		</g>
		<g class="st4">
			<g>
				<g>
					<g>
						<g>
							<g>
								<g>
									<g>
										<g>
											<rect x="382.4" y="160" class="st7" width="14.6" height="14.6"/>
										</g>
									</g>
								</g>
							</g>
						</g>
					</g>
				</g>
			</g>
		</g>
	</g>
</g>
<g id="Background_Simple" class="st9">
	<path class="st10" d="M420.9,145.4l-2.1-3.4c-17.4-28.3-48.8-45.3-81.9-43.2c-4.3,0.3-8.5,0.8-12.7,1.7
		c-30.1,6.4-56.3,28.8-67.1,57.6c-6.4,16.9-8.2,36.4-20.3,49.9c-15.8,17.5-42.5,18-66.1,17.3c-23.5-0.7-50.3-0.1-66,17.5
		c-9.8,11-13,26.6-12.2,41.4c2.1,39,29.6,73.8,64.6,91.2c35,17.3,76.2,18.9,114.5,11.3c53.6-10.7,104.7-40,135.3-85.3
		C437.6,256,445.4,194.3,420.9,145.4z"/>
</g>
<g id="Browser">
	<g>
		<g>
			<path class="st8" d="M413.2,342.6H86c-12.5,0-22.5-10.1-22.5-22.5v-3.4c0-12.5,10.1-22.5,22.5-22.5h327.2
				c12.5,0,22.5,10.1,22.5,22.5v3.4C435.8,332.5,425.7,342.6,413.2,342.6z"/>
		</g>
		<g>
			<path class="st11" d="M414.1,342.6h-64.2v-48.5h64.2c12,0,21.7,9.7,21.7,21.7v5.1C435.8,332.9,426,342.6,414.1,342.6z"/>
		</g>
		<g>
			<g>
				<path class="st12" d="M413.2,342.6c0,0,0.7-0.1,2.1-0.1c0.7-0.1,1.5-0.2,2.5-0.4c1-0.3,2.1-0.5,3.4-1c2.5-1,5.5-2.6,8.2-5.4
					c1.4-1.4,2.6-3.1,3.7-5.1c1.1-2,1.8-4.3,2.3-6.8c0.5-2.5,0.4-5.2,0.3-8c-0.1-2.8-0.7-5.7-2-8.5c-1.3-2.8-3.2-5.4-5.7-7.6
					c-2.5-2.2-5.6-3.9-9.1-4.8c-1.7-0.5-3.6-0.6-5.4-0.7c-1.9,0-3.8,0-5.7,0c-3.9,0-7.8,0-11.9,0c-8.2,0-16.8,0-25.9,0
					c-72.6,0-173,0-283.8,0.1c-6.9,0-13.6,3.3-17.7,8.7c-2.1,2.7-3.5,5.8-4.2,9.1c-0.1,0.8-0.3,1.7-0.3,2.5c0,0.8-0.1,1.7-0.1,2.5
					l0,2.5c0,0.8,0.1,1.7,0.1,2.5c0.6,6.7,4.4,12.9,10,16.5c2.8,1.8,5.9,3,9.1,3.4c0.8,0.2,1.6,0.2,2.4,0.2c0.8,0.1,1.6,0,2.5,0
					c1.6,0,3.3,0,4.9,0c26.1,0,51.3,0,75.4,0c48,0,91.3,0,127.6,0c36.3,0,65.7,0.1,86,0.1c10.2,0,18,0,23.4,0c2.7,0,4.7,0,6.1,0
					C412.5,342.6,413.2,342.6,413.2,342.6s-0.7,0-2.1,0c-1.4,0-3.4,0-6.1,0c-5.4,0-13.2,0-23.4,0c-20.3,0-49.7,0-86,0.1
					c-36.3,0-79.6,0-127.6,0c-24,0-49.2,0-75.4,0c-1.6,0-3.3,0-4.9,0c-0.8,0-1.6,0-2.5,0c-0.8,0-1.7-0.1-2.5-0.2
					c-3.3-0.5-6.5-1.7-9.3-3.5c-5.6-3.7-9.5-10-10.2-16.8c0-0.8-0.1-1.7-0.1-2.6v-2.5c0-0.8,0.1-1.7,0.1-2.6
					c0.1-0.9,0.2-1.7,0.4-2.5c0.7-3.4,2.2-6.6,4.3-9.3c4.1-5.6,11.1-8.9,18.1-8.9c110.8,0,211.2,0,283.8,0.1c9.1,0,17.7,0,25.9,0
					c4.1,0,8.1,0,11.9,0c1.9,0,3.8,0,5.7,0c1.9,0.1,3.7,0.2,5.5,0.7c3.5,0.9,6.7,2.6,9.2,4.8c2.5,2.2,4.5,4.9,5.8,7.7
					c1.3,2.8,1.9,5.8,2,8.6c0,2.8,0.1,5.5-0.3,8c-0.4,2.5-1.3,4.8-2.3,6.8c-1.1,2-2.4,3.7-3.7,5.1c-2.7,2.8-5.7,4.4-8.2,5.4
					c-1.2,0.5-2.4,0.7-3.4,1c-1,0.1-1.8,0.3-2.5,0.4C413.9,342.6,413.2,342.6,413.2,342.6z"/>
			</g>
		</g>
		<g>
			<g>
				<path class="st13" d="M386.3,325c-5.8,0-10.5-4.7-10.5-10.5s4.7-10.5,10.5-10.5s10.5,4.7,10.5,10.5S392.1,325,386.3,325z
					 M386.3,304.8c-5.3,0-9.7,4.3-9.7,9.7s4.3,9.7,9.7,9.7c5.3,0,9.7-4.3,9.7-9.7S391.7,304.8,386.3,304.8z"/>
			</g>
			<g>
				<path class="st13" d="M402.8,332.9c-0.1,0-0.2,0-0.3-0.1l-9.6-10.3c-0.2-0.2-0.1-0.4,0-0.6c0.2-0.2,0.4-0.1,0.6,0l9.6,10.3
					c0.2,0.2,0.1,0.4,0,0.6C403,332.9,402.9,332.9,402.8,332.9z"/>
			</g>
		</g>
	</g>
</g>
<g id="Character">
	<g>
		<g>
			<g>
				<path class="st12" d="M248.2,126.9c-1.6,12.9-1.6,26.1,0.1,39c0.4,3.3,1.1,6.9,3.7,8.9c3.1,2.4,7.9,1.6,10.7-1.2
					c2.8-2.7,3.8-6.9,3.8-10.8c-0.1-3.9-1.1-7.8-1.8-11.6c-0.9-5.1-1.4-10.4-3.7-15c-2.3-4.6-7-8.6-12.1-8.1"/>
			</g>
			<g>
				<path class="st12" d="M255.8,88.8c5.9-5.8,18.5-4.3,25,0.7c6.6,5,10,13.2,11.4,21.3c1.4,8.1,1.1,16.4,1.7,24.7
					c0.7,8.2,2.5,16.7,7.6,23.2c2.2,2.8,4.9,5.1,6.8,8.1c3.7,5.6,4.1,13.3,0.8,19c-3.4,5.8-10.5,9.3-17,8
					c-6.8-1.3-12.1-7.1-14.7-13.5c-2.6-6.4-3-13.5-3.6-20.4c-1.7-21.5-4.6-43-8.7-64.2"/>
			</g>
			<path class="st14" d="M248.6,152.3l6.1-1.7h26.9l14.6,8.6c0,0-25.5,11.5-35,6.9c-9.5-4.6-12.7-13.1-12.7-13.1"/>
			<g>
				<g>
					<g>
						<g>
							<g>
								<g>
									<g>
										<g>
											<g>
												<g>
													<g>
														<g>
															<g>
																<g>
																	<g>
																		<g>
																			<path class="st14" d="M281.8,103.6l0.2-3.6l-21.5-4.8c-6.6-0.9-14.1,5.5-14.7,12.2c-0.7,7.4-1.3,16.5-0.6,22.1
																				c1.4,11.2,9.9,12.9,9.9,12.9l0.9,24.5l24.7,1.1L281.8,103.6z"/>
																		</g>
																	</g>
																</g>
															</g>
															<g>
																<g>
																	<g>
																		<g>
																			<g>
																				<g>
																					<g>
																						<g>
																							<g>
																								<g>
																									<g>
																										<g>
																											<path class="st12" d="M249,115.3c-0.1,0.8,0.5,1.4,1.3,1.5c0.8,0.1,1.5-0.5,1.5-1.2
																												c0-0.8-0.5-1.4-1.3-1.5C249.8,114,249.1,114.5,249,115.3z"/>
																										</g>
																									</g>
																								</g>
																							</g>
																						</g>
																					</g>
																				</g>
																			</g>
																		</g>
																	</g>
																</g>
																<g>
																	<g>
																		<g>
																			<g>
																				<g>
																					<g>
																						<g>
																							<g>
																								<g>
																									<g>
																										<g>
																											<g>
																												<path class="st12" d="M248,111.4c0.2,0.2,1.3-0.6,2.8-0.5c1.5,0,2.6,0.9,2.8,0.7
																													c0.1-0.1-0.1-0.4-0.6-0.8c-0.5-0.4-1.3-0.7-2.2-0.8c-1,0-1.8,0.3-2.3,0.7
																													C248.1,111,247.9,111.3,248,111.4z"/>
																											</g>
																										</g>
																									</g>
																								</g>
																							</g>
																						</g>
																					</g>
																				</g>
																			</g>
																		</g>
																	</g>
																</g>
															</g>
															<g>
																<g>
																	<g>
																		<g>
																			<g>
																				<g>
																					<g>
																						<g>
																							<g>
																								<g>
																									<g>
																										<g>
																											<path class="st12" d="M264.1,116c-0.1,0.8,0.5,1.4,1.3,1.5c0.8,0.1,1.5-0.5,1.5-1.2
																												c0.1-0.8-0.5-1.4-1.3-1.5C264.8,114.7,264.1,115.3,264.1,116z"/>
																										</g>
																									</g>
																								</g>
																							</g>
																						</g>
																					</g>
																				</g>
																			</g>
																		</g>
																	</g>
																</g>
																<g>
																	<g>
																		<g>
																			<g>
																				<g>
																					<g>
																						<g>
																							<g>
																								<g>
																									<g>
																										<g>
																											<g>
																												<path class="st12" d="M263.2,112.2c0.2,0.2,1.3-0.6,2.8-0.5c1.5,0,2.6,0.9,2.8,0.7
																													c0.1-0.1-0.1-0.4-0.6-0.8c-0.5-0.4-1.3-0.7-2.2-0.8c-1,0-1.8,0.3-2.3,0.7
																													C263.2,111.8,263.1,112.1,263.2,112.2z"/>
																											</g>
																										</g>
																									</g>
																								</g>
																							</g>
																						</g>
																					</g>
																				</g>
																			</g>
																		</g>
																	</g>
																</g>
															</g>
															<g>
																<g>
																	<g>
																		<g>
																			<g>
																				<g>
																					<g>
																						<g>
																							<g>
																								<g>
																									<g>
																										<g>
																											<path class="st12" d="M257.2,124.3c0-0.1-0.9-0.3-2.5-0.5c-0.4-0.1-0.8-0.1-0.8-0.4
																												c-0.1-0.3,0.1-0.7,0.3-1.2c0.4-0.9,0.8-1.9,1.3-3c1.7-4.2,3-7.7,2.9-7.8c-0.2-0.1-1.7,3.3-3.5,7.5
																												c-0.4,1-0.8,2-1.2,3c-0.2,0.4-0.4,0.9-0.3,1.5c0.1,0.3,0.4,0.5,0.6,0.6c0.2,0.1,0.5,0.1,0.7,0.1
																												C256.2,124.3,257.2,124.3,257.2,124.3z"/>
																										</g>
																									</g>
																								</g>
																							</g>
																						</g>
																					</g>
																				</g>
																			</g>
																		</g>
																	</g>
																</g>
															</g>
															<g>
																<g>
																	<g>
																		<g>
																			<g>
																				<g>
																					<g>
																						<g>
																							<g>
																								<g>
																									<g>
																										<path class="st15" d="M255.2,142.5c0,0,7.9,0.7,15.4-3.5c0,0-3.8,7.7-15.3,6.3L255.2,142.5z"/>
																									</g>
																								</g>
																							</g>
																						</g>
																					</g>
																				</g>
																			</g>
																		</g>
																	</g>
																</g>
															</g>
															<g>
																<g>
																	<g>
																		<g>
																			<g>
																				<g>
																					<g>
																						<g>
																							<g>
																								<g>
																									<g>
																										<path class="st15" d="M257.8,128c0.6-0.7,1.6-1.1,2.5-1c0.7,0.1,1.3,0.4,1.7,1c0.4,0.6,0.5,1.3,0.1,1.8
																											c-0.4,0.6-1.3,0.7-2,0.4c-0.7-0.2-1.3-0.7-1.9-1.2c-0.2-0.1-0.3-0.3-0.4-0.5
																											C257.6,128.4,257.6,128.2,257.8,128"/>
																									</g>
																								</g>
																							</g>
																						</g>
																					</g>
																				</g>
																			</g>
																		</g>
																	</g>
																</g>
															</g>
															<g>
																<g>
																	<g>
																		<g>
																			<g>
																				<g>
																					<g>
																						<g>
																							<g>
																								<g>
																									<g>
																										<g>
																											<path class="st12" d="M261.7,125.5c-0.2,0-0.3,1.6-1.8,2.8c-1.5,1.1-3.2,0.9-3.3,1.1
																												c0,0.1,0.4,0.3,1.1,0.4c0.7,0,1.8-0.2,2.7-0.9c0.9-0.7,1.3-1.7,1.4-2.3
																												C262,125.9,261.8,125.5,261.7,125.5z"/>
																										</g>
																									</g>
																								</g>
																							</g>
																						</g>
																					</g>
																				</g>
																			</g>
																		</g>
																	</g>
																</g>
															</g>
														</g>
													</g>
												</g>
												<g>
													<g>
														<g>
															<g>
																<g>
																	<g>
																		<g>
																			<g>
																				<g>
																					<g>
																						<g>
																							<path class="st12" d="M262.9,107.6c0.1,0.4,1.7,0.3,3.5,0.5c1.8,0.2,3.2,0.8,3.5,0.4c0.1-0.2-0.1-0.6-0.7-1
																								c-0.6-0.4-1.5-0.8-2.6-1c-1.1-0.2-2.1,0-2.7,0.2C263.2,107,262.9,107.4,262.9,107.6z"/>
																						</g>
																					</g>
																				</g>
																			</g>
																		</g>
																	</g>
																</g>
															</g>
														</g>
													</g>
												</g>
												<g>
													<g>
														<g>
															<g>
																<g>
																	<g>
																		<g>
																			<g>
																				<g>
																					<g>
																						<g>
																							<path class="st12" d="M248.2,106.1c0.3,0.4,1.3,0,2.6,0.1c1.3,0,2.3,0.3,2.6-0.1c0.1-0.2,0-0.5-0.5-0.9
																								c-0.5-0.3-1.2-0.6-2.1-0.6c-0.9,0-1.6,0.3-2.1,0.6C248.3,105.6,248.1,106,248.2,106.1z"/>
																						</g>
																					</g>
																				</g>
																			</g>
																		</g>
																	</g>
																</g>
															</g>
														</g>
													</g>
												</g>
											</g>
										</g>
									</g>
								</g>
							</g>
						</g>
					</g>
				</g>
			</g>
			<g>
				<path class="st11" d="M281.5,121.1c1.9-1.3,2.8-12.4,2.7-17c-0.1-4.6-2.5-8.6-5.7-11.9c-3.5-3.5-7.6-4.8-12.5-5.3
					c-2.8-0.3-5.7-0.7-8.4,0.1c-2.7,0.8-4.2,1.7-5.5,4.2c-0.7,1.4-0.9,3.3,0.3,4.2c1.2,0.8,2.8,0.2,4.2-0.2
					c3.7-1.1,7.8,0.1,11.1,2.3c3.2,2.2,5.8,5.2,8.3,8.2C279.3,109.6,280.8,116.1,281.5,121.1"/>
			</g>
			<g>
				<path class="st12" d="M243.8,95.1c1.4-4.5,10.3-10.2,19.6-6c4.3,0.2,8.5,0.9,13.1,5c8.3,7.5,5.1,26,5.1,26s-7-3.2-13.2-10.6
					c-5.3-6.4-8.2-11.4-9.3-14.5l0,0c-8.6,2.1-11.9,9.6-13.4,12.9C243.8,105.8,241.3,103.1,243.8,95.1z"/>
			</g>
			<g>
				<g>
					<g>
						<g>
							<g>
								<g>
									<g>
										<g>
											<g>
												<g>
													<g>
														<g>
															<g>
																<g>
																	<path class="st14" d="M279.8,119.1c0.2-0.1,7.4-2.5,7.4,4.9c0.1,7.4-7.4,6-7.4,5.8
																		C279.8,129.5,279.8,119.1,279.8,119.1z"/>
																</g>
															</g>
														</g>
													</g>
												</g>
											</g>
										</g>
									</g>
								</g>
							</g>
						</g>
					</g>
				</g>
				<g>
					<g>
						<g>
							<g>
								<g>
									<g>
										<g>
											<g>
												<g>
													<g>
														<g>
															<g>
																<g>
																	<g>
																		<path class="st15" d="M282.1,126.9c0,0,0.1,0.1,0.3,0.2c0.2,0.1,0.6,0.2,1,0c0.8-0.3,1.4-1.5,1.5-2.9
																			c0-0.7-0.1-1.3-0.4-1.8c-0.2-0.5-0.6-0.9-1-1c-0.4-0.1-0.7,0.2-0.8,0.4c-0.1,0.2,0,0.4-0.1,0.4
																			c0,0-0.2-0.1-0.1-0.4c0-0.1,0.1-0.3,0.3-0.5c0.2-0.1,0.4-0.2,0.7-0.2c0.6,0,1.1,0.6,1.4,1.1
																			c0.3,0.6,0.5,1.3,0.5,2.1c0,1.5-0.8,2.9-1.9,3.2c-0.5,0.1-1,0-1.2-0.2C282.1,127.1,282,126.9,282.1,126.9z"/>
																	</g>
																</g>
															</g>
														</g>
													</g>
												</g>
											</g>
										</g>
									</g>
								</g>
							</g>
						</g>
					</g>
				</g>
			</g>
		</g>
		<g>
			<path class="st14" d="M199.8,284.8l-15,1.7l-9.1,5.7c0,0-0.2,1.9,2.4,1.6l5.1-2.2l-4.1,4.5c0,0,1,1.8,3.2,0.5
				c2.2-1.3,3.6-3.1,3.6-3.1l9-0.6c0,0-6.8,6.5-5.6,8.2c1.3,1.7,2.1,1.3,3,0.7c1-0.6,1.5-2.8,3.8-3.5c2.2-0.7,5.9-2.8,9.9-4.7
				c3.4-1.6,6.9-13.3,6.9-13.3l-11.5-2.2L199.8,284.8z"/>
			<g>
				<path class="st15" d="M193.9,288.6c0,0.2-3.8,0.9-8.5,1.6l-0.1,0l0.2-0.1c-3.3,3.4-6.1,6-6.2,5.9c-0.1-0.1,2.4-3,5.7-6.4
					l0.1-0.1l0.1,0l0.1,0C190,288.9,193.9,288.5,193.9,288.6z"/>
			</g>
		</g>
		<g>
			<g>
				<g>
					<polygon class="st14" points="289.7,379 286.9,354.8 264.5,361.1 270.1,384.3 					"/>
				</g>
				<g>
					<g>
						<g>
							<path class="st11" d="M289.9,378.9l3.8,28.2l9.4,21.4c0.7,1.5-0.1,3.3-1.7,3.9l0,0c-0.9,0.3-1.9,0.2-2.6-0.3
								c-4.9-3.4-23-16.2-23.2-18.2c-0.2-2.4-6-29.5-6-29.5L289.9,378.9z"/>
						</g>
					</g>
					<g class="st16">
						<g>
							<path class="st13" d="M301.4,432.5L275.3,412l0.2,1.2c0.2,1,0.7,2,1.5,2.6c2.1,1.8,8.1,6.7,21.7,16.3
								C299.5,432.7,300.5,432.8,301.4,432.5L301.4,432.5z"/>
						</g>
					</g>
					<g class="st16">
						<g>
							<g>
								<path class="st13" d="M279.6,402c0.8,0.4,1.2,1.4,0.8,2.2c-0.3,0.8-1.4,1.2-2.2,0.8c-0.8-0.4-1.3-1.6-0.9-2.3
									c0.4-0.8,1.7-1.2,2.4-0.6"/>
							</g>
						</g>
					</g>
					<g>
						<g>
							<g>
								<path class="st12" d="M293.1,421.2c0.2,0.1,0.6-1.5,2.1-2.6c1.5-1.1,3.1-1,3.1-1.1c0-0.1-0.4-0.2-1-0.2
									c-0.7,0-1.6,0.2-2.4,0.8c-0.8,0.6-1.4,1.4-1.6,2C293,420.8,293,421.2,293.1,421.2z"/>
							</g>
						</g>
					</g>
					<g>
						<g>
							<g>
								<path class="st12" d="M295.7,424.7c0.2,0.1,0.9-1,2.3-1.6c1.4-0.7,2.7-0.6,2.7-0.8c0.1-0.2-1.4-0.5-3,0.2
									C296.1,423.2,295.5,424.6,295.7,424.7z"/>
							</g>
						</g>
					</g>
					<g>
						<g>
							<g>
								<path class="st12" d="M288.6,417c0.2,0.1,1.3-1.5,3.4-2.7c2.1-1.2,4-1.4,4-1.6c0-0.2-2.1-0.2-4.3,1.1
									C289.5,415,288.5,416.9,288.6,417z"/>
							</g>
						</g>
					</g>
					<g>
						<g>
							<g>
								<path class="st12" d="M286.7,408.5c0.1,0.2,1.6-0.7,3.6-1.1c2-0.4,3.7-0.2,3.7-0.3c0.1-0.1-1.7-0.7-3.8-0.3
									C288,407.2,286.6,408.4,286.7,408.5z"/>
							</g>
						</g>
					</g>
					<g>
						<g>
							<g>
								<path class="st12" d="M285.4,400.3c0.1,0.1,1.5-1,3.7-1.3c2.1-0.3,3.8,0.5,3.9,0.3c0-0.1-0.3-0.4-1-0.6
									c-0.7-0.3-1.8-0.5-2.9-0.3c-1.2,0.1-2.1,0.6-2.8,1C285.6,399.8,285.4,400.2,285.4,400.3z"/>
							</g>
						</g>
					</g>
					<g>
						<g>
							<g>
								<path class="st12" d="M288.8,397.4c0,0,0-0.4-0.1-1.1c-0.2-0.7-0.5-1.6-1.3-2.6c-0.4-0.5-0.8-1.1-1.7-1.3
									c-0.4-0.1-1,0-1.3,0.5c-0.3,0.4-0.3,0.9-0.2,1.3c0.3,1.8,2.1,3.3,4.2,3.2c2-0.1,3.7-1.5,4.2-3.2c0.1-0.4,0.2-0.9-0.1-1.4
									c-0.3-0.4-0.9-0.5-1.3-0.4c-0.8,0.3-1.3,0.8-1.7,1.3c-0.8,0.9-1.3,1.8-1.6,2.5c-0.3,0.6-0.3,1-0.3,1
									c0.1,0.1,0.5-1.5,2.2-3.2c0.4-0.4,0.9-0.9,1.5-1.1c0.3-0.1,0.6,0,0.7,0.2c0.1,0.2,0.1,0.6,0,0.9c-0.5,1.4-2,2.7-3.7,2.7
									c-1.7,0.1-3.3-1.2-3.6-2.7c-0.1-0.3,0-0.7,0.1-0.9c0.2-0.2,0.4-0.3,0.7-0.3c0.6,0.1,1,0.7,1.4,1.1
									C288.5,395.9,288.7,397.5,288.8,397.4z"/>
							</g>
						</g>
					</g>
				</g>
			</g>
			<g>
				<g>
					<path class="st12" d="M237.8,240.5l-0.4,6.1c0,0-5.2,9.8-5.6,18.5c-0.3,5.1-0.4,12.6-0.4,17.9c0,4.3,1.2,8.6,3.5,12.3
						l10.3,16.5l-1.4,18.7l18.7,37.5l27.7-7l-3.3-69.2l-11.1-36.5l-2.1-17.4L237.8,240.5z"/>
				</g>
				<g>
					<path class="st12" d="M293.6,236.7l0.5,8c0,0,22.2-47.4,52.6-53.2c19.7-3.8,27.5,17.7,20.6,34.7c-4.2,10.3-21.4,29.9-21.5,30.4
						c-0.5,10.5-11.3,9-11.3,9S321,286.8,317,291c-2.7,2.9-31.6,1.8-31.6,1.8l-9.1-18.8l-3.7-36L293.6,236.7z"/>
				</g>
				<g>
					<g>
						<path class="st17" d="M255.1,286.4c0,0-0.1,0.6-0.5,1.7c-0.4,1.2-0.9,2.7-1.6,4.6c-1.3,3.9-3,9.3-4.7,15.3
							c-1.6,6-2.9,11.5-3.7,15.5c-0.4,1.9-0.7,3.5-1,4.7c-0.2,1.1-0.4,1.7-0.4,1.7c0,0,0-0.6,0.2-1.8c0.1-1.1,0.4-2.8,0.8-4.8
							c0.7-4,1.9-9.6,3.5-15.6c1.6-6,3.4-11.4,4.9-15.2c0.7-1.9,1.3-3.5,1.8-4.5C254.8,286.9,255.1,286.4,255.1,286.4z"/>
					</g>
				</g>
				<g>
					<g>
						<path class="st17" d="M248.2,278.9c0.1,0-0.1,1.7-0.4,4.5c-0.3,2.8-0.7,6.6-0.9,10.9c-0.2,4.3-0.2,8.1-0.2,10.9
							c0,2.8,0.1,4.5,0,4.5c0,0-0.1-0.4-0.2-1.2c-0.1-0.8-0.2-1.9-0.3-3.3c-0.2-2.8-0.2-6.7,0-10.9c0.2-4.3,0.7-8.1,1.1-10.9
							c0.2-1.4,0.4-2.5,0.6-3.3C248.1,279.3,248.2,278.9,248.2,278.9z"/>
					</g>
				</g>
				<g>
					<g>
						<path class="st17" d="M290.1,359.5c0,0,0-0.1,0-0.3c0-0.3,0-0.6-0.1-1c-0.1-0.9-0.1-2.2-0.2-3.8c-0.2-3.4-0.5-8.1-0.8-14
							c-0.6-11.9-1.4-28.1-2.3-46.1c-0.3-4.5-0.2-8.9-1.1-13c-0.9-4.1-2.5-7.9-4.6-11.2c-2.1-3.3-4.5-6.1-7.1-8.3
							c-2.6-2.2-5.4-3.9-8.1-5.1c-5.4-2.5-10.2-3.1-13.5-3.3c-1.6-0.1-2.9,0-3.8,0c-0.4,0-0.7,0-1,0c-0.2,0-0.3,0-0.3,0
							c0,0,1.8-0.4,5.1-0.3c3.3,0.1,8.2,0.7,13.6,3.1c2.7,1.2,5.5,2.9,8.2,5.1c2.7,2.2,5.2,5.1,7.3,8.4c2.1,3.4,3.8,7.2,4.7,11.4
							c1,4.2,0.9,8.7,1.2,13.2c0.8,18,1.6,34.3,2.1,46.2c0.2,5.9,0.4,10.6,0.6,14c0.1,1.6,0.1,2.9,0.1,3.8c0,0.4,0,0.7,0,1
							C290.1,359.4,290.1,359.5,290.1,359.5z"/>
					</g>
				</g>
				<g>
					<g>
						<path class="st17" d="M277.4,261.1c-0.1-0.1,2.5-3.5,5.9-7.7c3.4-4.1,6.3-7.4,6.4-7.3c0.1,0.1-2.5,3.5-5.9,7.7
							C280.4,258,277.6,261.2,277.4,261.1z"/>
					</g>
				</g>
				<g>
					<g>
						<path class="st17" d="M321.7,233.1c3.1-5,6.2-9.3,8.6-12.3c2.4-3,4-4.7,4.1-4.6c0.1,0.1-1.3,2-3.6,5.1
							c-2.2,3.1-5.3,7.4-8.3,12.4c-3,5-5.9,9.6-6.5,13.4c-0.6,3.8,0.7,6.1,0.6,6.1c0,0-0.4-0.4-0.8-1.5c-0.4-1-0.7-2.7-0.4-4.7
							c0.2-2,1-4.3,2.2-6.6"/>
					</g>
				</g>
				<g>
					<g>
						<path class="st17" d="M337.2,210c0.1,0.1-0.9,1.5-1.6,3.4c-0.7,2-0.7,3.7-0.9,3.7c-0.2,0-0.5-1.8,0.3-3.9
							C335.7,211.1,337,209.9,337.2,210z"/>
					</g>
				</g>
				<g>
					<g>
						<path class="st17" d="M274.5,310.2c-0.2-0.1,1.2-3.3,3.1-7.3c1.9-3.9,3.5-7.1,3.7-7c0.2,0.1-1.2,3.3-3.1,7.3
							C276.3,307.2,274.7,310.3,274.5,310.2z"/>
					</g>
				</g>
				<g>
					<g>
						<path class="st17" d="M258.8,299.5c0.2-0.1,0.9,1.5,1.6,3.4c0.7,1.9,1.1,3.5,1,3.6c-0.2,0.1-0.9-1.5-1.6-3.4
							C259.1,301.2,258.7,299.6,258.8,299.5z"/>
					</g>
				</g>
			</g>
			<g>
				<g>
					<path class="st11" d="M222.9,173.1c1.6-13.8,10.5-16.9,10.5-16.9l1.3,81.8l-10.2,42.2c-1.3,5.3-6.7,8.4-12,6.8l-20.7-6.3
						C191.8,280.7,221.3,187,222.9,173.1z"/>
				</g>
				<g>
					<path class="st11" d="M309.1,166c0,0,5.1,11.6,5.1,17.8c0,6.1,6.1,45.8,0,54.2c-6.1,8.4-18.1,8.1-21.6,7.8
						c-4.7-0.4-26.5-40.7-25.6-41.2l12.2-2.7c0,0,8.6,0.5,12.7,4c4.1,3.5,8.1-0.5,8.1-0.5l8.6-37.2"/>
				</g>
				<g>
					<path class="st11" d="M292,156.2c0,0,14,4.8,17.1,9.8c3,5.1-14.6,70.4-14.6,70.4l-56.7,4.1c0,0-4.5-0.8-5.7-4.9
						c-1.2-4.1,1.2-79.4,1.2-79.4l15.8-5.6c0,0,6.8,7,11.7,8.4C265.6,160.5,292,156.2,292,156.2z"/>
				</g>
				<g>
					<g>
						<path class="st12" d="M236.9,174.2c0,0,0,0.2,0.1,0.7c0,0.5,0,1.2,0.1,1.9c0,1.7,0,4.1,0,7.1c-0.1,6-0.6,14.3-1.7,23.4
							c-0.6,4.5-1.2,8.9-1.9,12.8c-0.7,3.9-1.5,7.4-1.4,10.4c0,3,0.8,5.3,1.6,6.7c0.8,1.5,1.5,2.1,1.5,2.1c0,0-0.2-0.1-0.5-0.5
							c-0.3-0.3-0.7-0.8-1.2-1.6c-0.9-1.4-1.8-3.8-1.9-6.9c-0.1-3,0.6-6.6,1.3-10.5c0.7-3.9,1.3-8.2,1.9-12.7
							c1.1-9.1,1.7-17.3,1.9-23.3c0.1-2.9,0.2-5.3,0.2-7.1c0-0.8,0-1.4,0.1-1.9C236.8,174.4,236.9,174.2,236.9,174.2z"/>
					</g>
				</g>
				<g>
					<g>
						<path class="st12" d="M292,209.2c-0.1,0.1-0.6-1.1-2-2.4c-0.7-0.7-1.6-1.3-2.7-1.9c-1.1-0.5-2.5-0.8-3.9-1
							c-2.9-0.4-5.5-0.2-7.3,0.4c-0.9,0.3-1.5,0.8-1.9,1.1c-0.4,0.4-0.6,0.6-0.6,0.6c0,0,0.1-0.3,0.4-0.7c0.4-0.4,1-1,1.9-1.3
							c1.8-0.8,4.6-1,7.6-0.6c1.5,0.2,2.9,0.5,4.1,1.1c1.2,0.6,2.1,1.4,2.8,2.1c0.7,0.7,1.1,1.4,1.3,1.9
							C291.9,208.8,292,209.1,292,209.2z"/>
					</g>
				</g>
				<g>
					<g>
						<path class="st12" d="M277.2,221.6c0.1,0,0.5,1.5,1.6,3.9c1,2.4,2.7,5.6,4.8,9c2.1,3.4,4.2,6.3,5.9,8.3c0.8,1,1.6,1.7,2.1,2.2
							c0.5,0.5,0.9,0.6,0.9,0.6c0,0-0.5,0-1.1-0.4c-0.6-0.4-1.4-1.1-2.3-2.1c-1.8-1.9-4-4.8-6.1-8.3c-2.1-3.4-3.7-6.7-4.7-9.2
							c-0.5-1.2-0.8-2.3-1-3C277.3,222.1,277.2,221.7,277.2,221.6z"/>
					</g>
				</g>
				<g>
					<g>
						<path class="st12" d="M298.8,172.5c-0.1-0.1,1.2-2.1,3.3-4.2c2.1-2.1,4.2-3.3,4.3-3.2c0.1,0.2-1.8,1.6-3.8,3.6
							C300.5,170.8,299,172.6,298.8,172.5z"/>
					</g>
				</g>
				<g>
					<g>
						<path class="st12" d="M231.4,158.3c0.1-0.1,2.4,1.3,4.4,3.8c2.1,2.5,3,5.1,2.8,5.1c-0.2,0.1-1.3-2.3-3.3-4.7
							C233.3,160.1,231.3,158.5,231.4,158.3z"/>
					</g>
				</g>
				<g>
					<g>
						<path class="st12" d="M283.9,230.2c-0.1,0-0.9-1.1-2-3.2c-1.1-2.1-2.4-5-3.4-8.4c-1-3.4-1.5-6.6-1.6-8.9
							c-0.2-2.3-0.1-3.8,0-3.8c0.1,0,0.2,1.4,0.5,3.7c0.3,2.3,0.8,5.4,1.8,8.8c1,3.4,2.2,6.3,3.1,8.4
							C283.3,228.9,284,230.2,283.9,230.2z"/>
					</g>
				</g>
				<g>
					<g>
						<path class="st12" d="M305,213.3c-0.1,0.1-0.8-0.8-2.1-2c-1.3-1.3-3.1-2.9-5.3-4.6c-1.1-0.8-2.2-1.6-3.2-2
							c-1.1-0.5-2.1-0.6-2.9-0.3c-0.8,0.2-1.4,0.7-1.6,1.1c-0.3,0.4-0.3,0.7-0.4,0.7c0,0-0.1-0.3,0.2-0.8c0.2-0.5,0.8-1.1,1.7-1.4
							c0.9-0.4,2.1-0.3,3.3,0.2c1.2,0.5,2.3,1.3,3.4,2.1c2.2,1.7,4.1,3.4,5.3,4.8C304.4,212.3,305,213.2,305,213.3z"/>
					</g>
				</g>
				<g class="st18">
					<g>
						<path d="M278.6,226.2c-2.9,0.7-5.9-1-8.9-1.1c-2.7-0.1-5.4,1-8,1.7c-5.7,1.6-11.9,1.2-17.4-1.1c-0.6-0.3-1.3-0.6-1.8-1.1
							c-0.5-0.5-0.7-1.6-0.3-2.2c5.1-0.1,10.2,0.2,15.3,0.1c1,0,2.1,0,3-0.6c0.4-0.3,0.5-0.6,0.5-0.6s3-0.1,4.1-0.1
							c2.5,0,5.3,0.2,7.7,0.2c1.1,0,4.5,0.1,4.4,0.1"/>
					</g>
				</g>
				<g class="st18">
					<g>
						<path d="M295.3,204.4c4.3,0.8,8.4,2.8,11.7,5.7c0.4,0.3,0.7,0.7,0.9,1.1c0.2,0.4,0.2,1,0,1.4c-0.3,0.5-1,0.6-1.6,0.5
							c-0.6-0.2-1.1-0.6-1.5-1c-3.2-2.7-6.4-5.5-9.7-8.2"/>
					</g>
				</g>
				<g>
					<g>
						<path class="st12" d="M298.1,176.4c0.1,0,0.1,1.6,0.1,4.1c-0.1,2.6-0.2,6.1-0.6,10c-0.4,3.9-0.9,7.4-1.3,9.9
							c-0.4,2.5-0.8,4.1-0.9,4.1c-0.1,0,0.1-1.6,0.4-4.1c0.3-2.5,0.7-6,1.1-9.9c0.4-3.9,0.6-7.4,0.8-9.9
							C297.9,177.9,298,176.4,298.1,176.4z"/>
					</g>
				</g>
			</g>
			<g>
				<g>
					<g>
						<g>
							<g>
								<polygon class="st17" points="253.9,204.4 248,191.6 227.6,190.3 226.8,191.5 242.3,221.3 260.9,221.4 								"/>
							</g>
						</g>
						<g>
							<g>
								<path class="st17" d="M253.2,205.6l-5.9-12.8l-20.4-1.3l14.7,31l16.5,0.1c1,0,1.9-0.4,2.7-1l0.2-0.1L253.2,205.6z"/>
							</g>
						</g>
						<g>
							<g>
								<path class="st7" d="M237.7,197.5c0.4,0.4,1.1,0.4,1.4-0.1c0.4-0.4,0.4-1.1-0.1-1.4c-0.4-0.4-1.1-0.4-1.4,0.1
									C237.3,196.5,237.3,197.1,237.7,197.5z"/>
							</g>
						</g>
					</g>
					<g>
						<g>
							<path class="st14" d="M277.1,206.2l-7.9,0.5c-2-2.8-5.1-4.5-8.5-4.7l-2.8-0.2l-2.1,2c0,0-13.8-0.3-14.4,1.4l0,0.5l0,0.3
								l11.7,1.5c0,0-10-0.7-10.6-0.7c-0.7,0-2.8-0.3-2.8,0.8c0,1,1.1,1.8,2.8,2.2c0.7,0.1,9.4,1.4,9.4,1.4s-9.1-0.7-9.6-0.7
								c-1.1-0.1-1,1.7-0.4,1.9c0.5,0.2,12.5,4.5,12.5,4.5s-2.1,1.3-3.8,1c-1.7-0.2-4.4-2.6-5.1-1.6c-0.7,1-0.6,1.6-0.2,1.9
								c0.3,0.3,4.2,2.6,5.5,3c1.3,0.4,14.7-0.2,14.7-0.2l14,0.5L277.1,206.2z"/>
						</g>
					</g>
					<g>
						<g>
							<g>
								<path class="st15" d="M251.2,203.7c0-0.1,2.2,0,4.9,0.1c2.7,0.2,4.8,0.3,4.8,0.4c0,0.1-2.2,0-4.9-0.1
									C253.3,204,251.1,203.8,251.2,203.7z"/>
							</g>
						</g>
					</g>
				</g>
				<g>
					<g>
						<g>
							<path class="st12" d="M252,203.1c0,0-0.1-0.3-0.4-0.8c-0.3-0.6-0.6-1.3-1-2.1c-0.9-1.9-2-4.5-3.3-7.4l0.1,0.1
								c-1.5-0.1-3-0.2-4.7-0.3c-4.4-0.3-8.3-0.6-11.3-0.8c-1.4-0.1-2.5-0.2-3.4-0.3c-0.4,0-0.7-0.1-0.9-0.1c-0.2,0-0.3,0-0.3,0
								c0,0,0.1,0,0.3,0c0.3,0,0.6,0,0.9,0c0.9,0,2,0.1,3.4,0.2c3,0.2,6.9,0.4,11.3,0.7c1.6,0.1,3.2,0.2,4.7,0.3l0.1,0l0,0.1
								c1.3,2.9,2.4,5.5,3.3,7.4c0.4,0.9,0.7,1.6,0.9,2.2C251.9,202.8,252,203.1,252,203.1z"/>
						</g>
					</g>
				</g>
			</g>
			<g>
				<g>
					<g>
						<g>
							<g>
								<g>
									<g>
										<path class="st11" d="M330.8,271.4l-13.6,17.1c0,0,13.7,18.2,11.5,21.6l-35-23.8l20.1-27.5L330.8,271.4z"/>
									</g>
								</g>
							</g>
						</g>
						<g class="st16">
							<g>
								<g>
									<g>
										<g>
											<path class="st13" d="M307.8,279.2c-0.8-0.3-1.8,0.1-2.1,0.9c-0.3,0.8,0.1,1.8,0.9,2.1c0.8,0.3,2-0.1,2.3-0.9
												c0.2-0.8-0.3-2-1.1-2.1"/>
										</g>
									</g>
								</g>
							</g>
						</g>
						<g class="st16">
							<g>
								<g>
									<g>
										<path class="st13" d="M293.8,286.3l2-2.8l33,24.2c0,0,0.8,1.3,0,2.8L293.8,286.3z"/>
									</g>
								</g>
							</g>
						</g>
						<g>
							<g>
								<g>
									<g>
										<g>
											<path class="st12" d="M317.9,288.7c-0.1,0.2-1-0.4-2.2-0.4c-1.2-0.1-2.2,0.3-2.3,0.1c-0.1-0.1,0.9-1,2.3-0.8
												C317.2,287.7,318.1,288.6,317.9,288.7z"/>
										</g>
									</g>
								</g>
							</g>
						</g>
						<g>
							<g>
								<g>
									<g>
										<g>
											<path class="st12" d="M320.4,292.8c-0.1,0.2-1-0.1-2.1,0.2c-1.1,0.3-1.8,0.9-2,0.8c-0.2-0.1,0.4-1.1,1.8-1.5
												C319.5,292,320.5,292.7,320.4,292.8z"/>
										</g>
									</g>
								</g>
							</g>
						</g>
						<g>
							<g>
								<g>
									<g>
										<g>
											<path class="st12" d="M319.3,298.6c-0.2-0.1,0.2-1.1,1.3-1.7c1.1-0.6,2.1-0.4,2.1-0.2c0,0.2-0.9,0.3-1.8,0.8
												C320,298.1,319.4,298.7,319.3,298.6z"/>
										</g>
									</g>
								</g>
							</g>
						</g>
						<g>
							<g>
								<g>
									<g>
										<g>
											<path class="st12" d="M320.6,284.5c-0.2,0.1-0.8-0.7-1.8-1.3c-1-0.6-1.9-0.9-1.9-1.1c0-0.2,1.2-0.3,2.3,0.5
												C320.4,283.3,320.7,284.4,320.6,284.5z"/>
										</g>
									</g>
								</g>
							</g>
						</g>
					</g>
					<g>
						<g>
							<g>
								<g>
									<g>
										<path class="st12" d="M323.2,281c0,0.1-0.8-0.3-1.7-1.3c-0.5-0.5-0.9-1.1-1.4-1.9c-0.2-0.4-0.4-0.8-0.6-1.2
											c-0.1-0.2-0.2-0.5-0.2-0.8c-0.1-0.3,0.2-0.8,0.6-0.9c0.4-0.1,0.8,0,1,0.2c0.3,0.2,0.4,0.4,0.6,0.6
											c0.3,0.4,0.6,0.8,0.8,1.1c0.4,0.8,0.7,1.5,0.8,2.2c0.3,1.3,0.1,2.1,0,2.1c-0.1,0-0.1-0.8-0.5-2c-0.2-0.6-0.5-1.3-0.9-2
											c-0.2-0.3-0.5-0.7-0.8-1c-0.3-0.4-0.6-0.6-0.8-0.5c-0.1,0-0.1,0.1-0.1,0.2c0,0.2,0.1,0.4,0.2,0.6c0.2,0.4,0.3,0.8,0.5,1.2
											c0.4,0.7,0.8,1.4,1.2,1.8C322.7,280.4,323.3,280.9,323.2,281z"/>
									</g>
								</g>
							</g>
						</g>
					</g>
					<g>
						<g>
							<g>
								<g>
									<g>
										<path class="st12" d="M322.9,281.1c-0.1,0,0-0.9,0.8-2c0.4-0.6,0.9-1.2,1.6-1.7c0.4-0.3,0.8-0.5,1.2-0.7
											c0.4-0.2,1-0.5,1.7-0.1c0.3,0.2,0.4,0.7,0.4,1c-0.1,0.3-0.2,0.5-0.3,0.8c-0.2,0.4-0.5,0.8-0.8,1.1c-0.6,0.6-1.4,1-2,1.2
											c-1.3,0.4-2.2,0.1-2.1,0c0-0.1,0.8,0,2-0.5c0.6-0.2,1.2-0.6,1.7-1.2c0.3-0.3,0.5-0.6,0.7-1c0.2-0.4,0.3-0.8,0.1-0.9
											c-0.2-0.1-0.7-0.1-1,0.1c-0.4,0.2-0.8,0.4-1.1,0.6c-0.7,0.5-1.2,1-1.6,1.5C323.2,280.4,323,281.1,322.9,281.1z"/>
									</g>
								</g>
							</g>
						</g>
					</g>
				</g>
				<g>
					<polygon class="st14" points="334.5,265.6 330.2,271 314.2,259.1 317.1,254.7 					"/>
				</g>
			</g>
		</g>
	</g>
	<path class="st5" d="M253.4,136.6"/>
</g>
<g id="Speech_Bubble">
</g>
<g id="Floor">
	<g>
		<path class="st12" d="M469.3,468.9c0,0.1-97.1,0.3-216.7,0.3c-119.7,0-216.8-0.1-216.8-0.3c0-0.1,97-0.3,216.8-0.3
			C372.2,468.6,469.3,468.7,469.3,468.9z"/>
	</g>
</g>
<g id="Plant">
	<g>
		<g>
			<g>
				<g>
					<g>
						<path class="st11" d="M116.3,392.5c4.1-2.1,8.8-2.4,13.3-1.6c2.4,0.4,4.9,1.1,6.6,2.9c1.6,1.8,2,5,0.1,6.6
							c-1.1,0.9-2.7,1.1-4.2,1.1c-3.5,0-7.4-0.7-10.3,1.5c-1.6,1.2-2.7,3.2-4.6,3.8c-1.9,0.6-4-0.5-5-2.2c-1-1.7-1-3.8-0.6-5.7
							C111.7,398.8,112.2,394.6,116.3,392.5z"/>
					</g>
				</g>
			</g>
			<g>
				<g>
					<g>
						<path class="st11" d="M107,374.5c2.5,3.5,7.3,2.4,9.5,0.2c2.2-2.2,3.2-5.3,4-8.3c2-6.8,3.9-14,2.5-21
							c-0.4-2.1-1.2-4.2-2.7-5.7c-1.5-1.5-3.7-2.5-5.8-1.9c-2.4,0.6-3.9,3-5,5.3c-3.2,6.7-4.9,14-4.9,21.4
							C104.6,368.1,105,371.7,107,374.5"/>
					</g>
				</g>
			</g>
			<g>
				<g>
					<g>
						<path class="st11" d="M100.2,379.6c2.7-3.2,3.2-7.9,2-11.9c-1.2-4-3.9-7.4-7-10.2c-3.7-3.3-8-5.8-12.6-7.4
							c-1.8-0.6-3.7-1.1-5.7-1c-1.9,0.2-3.9,1.2-4.8,2.9c-1.3,2.5-0.1,5.6,1.3,8.1c2.4,4.4,5.2,8.6,8.3,12.6
							c2.5,3.2,5.3,6.3,9.1,7.8c3.8,1.4,7.7,1.3,9.7-1.3"/>
					</g>
				</g>
			</g>
			<g>
				<g>
					<g>
						<g>
							<path class="st12" d="M106.8,428c0,0,0.1-0.6,0.2-1.6c0.1-1.2,0.3-2.6,0.4-4.4c0.2-1.9,0.5-4.1,1-6.4c0.5-2.4,1.3-5,2.3-7.6
								c1.1-2.6,2.4-5,3.9-6.9c1.5-1.9,3.3-3.3,4.9-4.1c1.6-0.8,3.1-1.1,4.1-1.3c1-0.1,1.6-0.2,1.6-0.2c0,0-0.6-0.1-1.6,0
								c-1,0.1-2.6,0.3-4.3,1.1c-1.7,0.8-3.6,2.2-5.2,4.1c-1.6,1.9-2.9,4.4-4,7c-1,2.7-1.8,5.3-2.3,7.7c-0.5,2.4-0.7,4.7-0.9,6.5
								c-0.1,1.9-0.2,3.4-0.2,4.4C106.8,427.4,106.8,428,106.8,428z"/>
						</g>
					</g>
				</g>
			</g>
			<g>
				<g>
					<g>
						<g>
							<path class="st12" d="M107.1,424.6c0,0,0-0.3,0-0.7c0-0.6,0-1.3,0-2.1c0-1.9,0-4.5,0.1-7.9c0.2-6.6,0.7-13.8,1.8-23.8
								c1-9.5,2.4-20.5,3.9-27.6c0.3-1.6,0.6-3.1,0.9-4.4c0.3-1.3,0.5-2.4,0.8-3.3c0.2-0.8,0.4-1.5,0.5-2.1c0.1-0.5,0.2-0.7,0.1-0.7
								c0,0-0.1,0.2-0.3,0.7c-0.2,0.5-0.4,1.2-0.6,2c-0.3,0.9-0.6,2-0.9,3.3c-0.3,1.3-0.7,2.7-1,4.4c-1.5,6.5-3,15.6-4.1,25.6
								c-1.1,10.1-1.6,19.3-1.6,25.9c0,3.3,0,6,0.1,7.9c0.1,0.9,0.1,1.6,0.1,2.1C107.1,424.4,107.1,424.6,107.1,424.6z"/>
						</g>
					</g>
				</g>
			</g>
			<g>
				<g>
					<g>
						<g>
							<path class="st12" d="M107.2,406.9c0,0,0-0.8,0-2.2c-0.1-1.4-0.3-3.5-0.7-6.1c-0.4-2.5-1-5.5-2-8.8
								c-0.4-1.5-1.4-5.1-3.7-10.4c-3.1-7.3-7.2-13.2-10.8-16.9c-0.8-1-1.8-1.7-2.5-2.4c-0.4-0.3-0.7-0.7-1.1-0.9
								c-0.4-0.2-0.7-0.5-1-0.7c-1.2-0.8-1.9-1.2-1.9-1.2c-0.1,0.1,2.7,1.8,6.2,5.5c3.5,3.7,7.5,9.6,10.6,16.8
								c1.7,3.9,2.9,7.4,3.7,10.3c1,3.2,1.6,6.2,2.1,8.7c0.5,2.5,0.7,4.6,0.9,6C107,406.1,107.1,406.9,107.2,406.9z"/>
						</g>
					</g>
				</g>
			</g>
		</g>
		<g>
			<g>
				<g>
					<polygon class="st12" points="90.1,438.2 91.8,462.5 123.1,462.5 124.8,438.2 					"/>
				</g>
			</g>
		</g>
		<g>
			<g>
				<g>
					<rect x="87" y="428.6" class="st12" width="41.5" height="9.6"/>
				</g>
			</g>
		</g>
		<g>
			<g>
				<g>
					<polygon class="st17" points="87,461.5 87,464.2 89,464.2 127.9,464.2 127.9,461.5 					"/>
				</g>
			</g>
		</g>
		<g>
			<g>
				<g>
					<polygon class="st17" points="90.9,468.9 89,464.2 126.4,464.2 124.1,468.9 					"/>
				</g>
			</g>
		</g>
		<g>
			<g>
				<g>
					<g>
						<path class="st5" d="M124.2,446.1c0,0,0,0.1-0.1,0.2c-0.1,0.2-0.3,0.4-0.5,0.6c-0.4,0.6-1.1,1.3-1.8,2.3l-0.1,0.1l-0.1-0.1
							c-1.1-1.6-2.7-3.7-4.5-6.2h0.3c-1.3,1.9-2.8,4-4.4,6.2l-0.1,0.2l-0.2-0.2c-1.6-1.9-3.4-4-5.2-6.2l0.3,0
							c-0.1,0.1-0.2,0.2-0.3,0.4c-1.6,2-3.2,4-4.7,5.8l-0.2,0.2l-0.1-0.2c-1.6-2.2-3.1-4.3-4.4-6.2l0.3,0c-2.2,2.5-4,4.6-5.4,6.2
							l-0.1,0.1l-0.1-0.1c-0.7-1.2-1.3-2.2-1.7-2.9c-0.2-0.3-0.3-0.6-0.4-0.8c-0.1-0.2-0.1-0.3-0.1-0.3c0,0,0.1,0.1,0.2,0.2
							c0.1,0.2,0.3,0.4,0.5,0.7c0.4,0.7,1,1.6,1.8,2.8l-0.2,0c1.4-1.6,3.2-3.8,5.3-6.3l0.1-0.2l0.1,0.2c1.3,1.9,2.8,4,4.4,6.2
							l-0.3,0c1.5-1.9,3-3.8,4.7-5.9c0.1-0.1,0.2-0.2,0.3-0.4l0.1-0.2l0.2,0.2c1.8,2.2,3.6,4.3,5.2,6.2l-0.3,0
							c1.6-2.2,3.1-4.3,4.4-6.2l0.1-0.2l0.1,0.2c1.8,2.5,3.3,4.6,4.4,6.2l-0.2,0c0.8-1,1.4-1.7,1.9-2.3c0.2-0.2,0.4-0.4,0.5-0.6
							C124.2,446.2,124.2,446.1,124.2,446.1z"/>
					</g>
				</g>
			</g>
		</g>
		<g>
			<g>
				<g>
					<g>
						<path class="st17" d="M125.3,438c0,0.1-7.8,0.2-17.5,0.2c-9.7,0-17.5-0.1-17.5-0.2c0-0.1,7.8-0.2,17.5-0.2
							C117.4,437.8,125.3,437.9,125.3,438z"/>
					</g>
				</g>
			</g>
		</g>
		<g>
			<g>
				<g>
					<g>
						<path class="st12" d="M126.8,464.5c0,0.1-8.5,0.2-19,0.2c-10.5,0-19-0.1-19-0.2c0-0.1,8.5-0.2,19-0.2
							C118.3,464.3,126.8,464.4,126.8,464.5z"/>
					</g>
				</g>
			</g>
		</g>
	</g>
</g>
</svg>
