<?xml version="1.0" encoding="utf-8"?>
<!-- Generator: Adobe Illustrator 19.0.0, SVG Export Plug-In . SVG Version: 6.00 Build 0)  -->
<svg version="1.1" id="Calque_1" xmlns="http://www.w3.org/2000/svg" xmlns:xlink="http://www.w3.org/1999/xlink" x="0px" y="0px"
	 viewBox="-180 272 250 250" style="enable-background:new -180 272 250 250;" xml:space="preserve">
<style type="text/css">
	.st0{fill:#EDEDED;}
	.st1{fill:#E11F22;stroke:#E11F22;stroke-width:9.375000e-002;stroke-miterlimit:10;}
	.st2{fill:#0B6FB6;stroke:#0B6FB6;stroke-width:9.375000e-002;stroke-miterlimit:10;}
</style>
<rect x="-180" y="272" class="st0" width="250" height="250"/>
<g>
	<path class="st1" d="M-37.5,310.2c4,4.5,5.3,11,4.1,16.8c-1.2,6.6-4.9,12.3-9.1,17.3c-3.4,4-7.4,7.6-11.5,10.9
		c-4.8,3.8-9.5,8-12.5,13.4c-2.5,4.4-3.1,9.8-1.4,14.6c2.8,8.2,9.4,14.3,13,22c-4-3.5-7.9-7.1-11.5-11c-3.8-4.1-7.4-8.4-9.8-13.4
		c-1.6-3.6-2.3-7.7-1.1-11.5c1.2-3.8,4-6.9,6.7-9.8c7.7-7.7,17.1-13.3,24.6-21.1c4.1-4.3,7.6-9.4,8.8-15.3
		C-36.2,318.9-36.6,314.5-37.5,310.2L-37.5,310.2z"/>
	<path class="st1" d="M-43.8,358.4c8.2-6,17.8-9.9,27.5-12.7c-7.7,4.9-15.7,9.4-22.4,15.7c-2.4,2.3-4.7,5-5.8,8.2
		c-0.8,2.4-0.5,5.1,0.5,7.4c1.8,4.1,4.8,7.4,7.1,11.1c1.9,3.2,2.3,7.2,0.8,10.7c-2.2,5-6.6,8.7-11.2,11.6c-0.6,0.3-1.1,1-1.8,1.1
		c3-2.7,5.4-6.6,5.3-10.8c-0.1-3.1-1.8-5.9-3.8-8.1c-4.2-5-7.7-11.3-7-18.1C-53.8,367.7-49,362.3-43.8,358.4L-43.8,358.4z"/>
	<path class="st2" d="M-14.7,407.2c1.8-2.2,4.6-2.7,7.2-3c4.5-0.6,9.3,0.5,12.6,3.6c2.8,2.5,4.4,6.4,3.8,10.1
		c-0.6,4.4-3.6,8-6.9,10.7c-6,4.8-13.3,7.6-20.7,9.4c0.4-0.5,0.9-0.9,1.4-1.2c5.6-3,11.1-6.5,15.2-11.4c2.5-3,4.4-7,3.6-11
		c-0.8-4.7-5.4-8-10-8.3C-10.5,406-12.6,406.8-14.7,407.2L-14.7,407.2z"/>
	<path class="st2" d="M-99.7,411.1c7.8-3.3,16.2-5.5,24.7-5.4c-4.9,1.4-10,2.7-14.7,4.9c-1.1,0.6-2.4,1.1-3,2.3
		c-0.3,0.9,0.6,1.5,1.3,1.8c2.9,1.2,6,1.4,9.1,1.6c10.8,0.7,21.7,0.3,32.5-0.4c10.7-0.7,21.2-2.1,31.8-3.8c-2.3,1.1-4.7,2.2-6.9,3.6
		c-1.1,0.8-2.5,1-3.7,1.3c-12.9,2.9-26.2,3.8-39.4,4c-5.1,0-10.2,0-15.3-0.4c-5.7-0.4-11.4-0.8-16.9-2.3c-1.6-0.5-3.3-1-4.6-2.1
		c-0.6-0.5-0.6-1.5-0.1-2.1C-103.4,412.6-101.4,411.9-99.7,411.1L-99.7,411.1z"/>
	<path class="st2" d="M-89.7,429.2c2.2-1.7,4.8-2.7,7.4-3.6c-0.8,1-2,2-2.1,3.4c0,0.9,0.7,1.6,1.4,2c1.4,0.7,3,1,4.5,1.2
		c8.1,0.8,16.3,1.3,24.5,0.8c7.5-0.4,14.9-1.6,22.3-2.9c2,1.9,4.4,3.2,7,4.4c-8.9,2.6-18.1,4.1-27.3,4.9c-8.7,0.6-17.5,0.6-26.2-0.8
		c-3.4-0.6-6.9-1.4-10.1-3c-1.3-0.7-2.7-1.6-3.1-3C-91.6,431-90.6,429.9-89.7,429.2L-89.7,429.2z"/>
	<path class="st2" d="M-84.8,447.6c1.9-1.6,4.4-2.4,6.7-3c-0.8,0.7-2.1,1.6-1.5,2.8c1.1,1.5,3.3,1.6,4.9,2
		c7.1,0.9,14.4,1.5,21.5,0.9c5.4-0.3,10.7-1.3,16-2.2c3,1.8,6.2,3.3,9.5,4.7c-5,2.2-10.4,3.7-15.7,4.7c-9,1.6-18.4,1.8-27.5,0.4
		c-4-0.7-8.1-1.6-11.8-3.6c-1.4-0.8-2.9-1.7-3.5-3.3C-86.5,449.7-85.8,448.4-84.8,447.6L-84.8,447.6z"/>
	<path class="st2" d="M-108.3,459.6c3.9-1.3,7.9-2.4,12-2.5c1.6,0,3.3,0,4.8,0.9c-4.9,0.3-9.8,1.5-14.2,3.8c-1,0.6-2.1,1.2-2.5,2.3
		c0,1.3,1.5,1.7,2.5,2.2c6.1,2.3,12.7,3,19.1,3.7c19.2,1.6,38.4,1.2,57.6-0.6c7.2-0.8,14.5-1.6,21.5-3.6c2.2-0.8,4.8-1.5,6.3-3.5
		c0.9-1.2,0.3-2.7-0.6-3.7c1.4,0.8,3.5,1.8,3.2,3.8c-0.6,2-2.6,3.1-4.3,4.1c-5.4,2.7-11.4,4.1-17.3,5.4c-17.2,3.4-34.8,4.1-52.4,3.6
		c-13.2-0.5-26.4-1.7-39.4-4c-2.3-0.6-4.9-1-6.6-2.8c-1.1-1.3-0.1-3,0.9-4C-115,462.1-111.6,460.8-108.3,459.6L-108.3,459.6z"/>
	<path class="st2" d="M-2.9,474c4.3-1.5,8.8-3,12-6.4c-0.5,3.7-3.7,6.2-6.9,7.9c-6,3.1-12.7,4.6-19.4,5.8
		c-14.1,2.2-28.5,2.8-42.8,2.5c-9.8-0.3-19.6-0.7-29.2-2.7c-2.3-0.6-4.7-1.1-6.7-2.4c8.5,1.4,17.2,2,25.9,2.4
		c14.3,0.4,28.5-0.1,42.7-1.9C-19.1,478-10.8,476.6-2.9,474L-2.9,474z"/>
</g>
</svg>
