<?xml version="1.0" encoding="utf-8"?>
<!-- Generator: Adobe Illustrator 23.0.1, SVG Export Plug-In . SVG Version: 6.00 Build 0)  -->
<svg version="1.1" id="OBJECTS" xmlns="http://www.w3.org/2000/svg" xmlns:xlink="http://www.w3.org/1999/xlink" x="0px" y="0px"
	 viewBox="0 0 369 369" style="enable-background:new 0 0 369 369;" xml:space="preserve">
<style type="text/css">
	.st0{fill:#F42557;}
	.st1{clip-path:url(#SVGID_2_);fill:#FFFFFF;}
	.st2{fill:none;stroke:#F42557;stroke-miterlimit:10;}
</style>
<circle class="st0" cx="184.5" cy="184.5" r="175.8"/>
<g>
	<defs>
		<path id="SVGID_1_" d="M197.2-37.9l-54,253.5c-3.3,15.6-0.1,31.9,8.9,45.1l14,20.5c11.4,16.7,30.7,26.3,51,25.4l277.5-13.2
			c37.1-1.8,63.1-37.2,53.7-73.1l-2.9-11.2c-7.8-29.7-37.4-48.3-67.5-42.5l-135.4,26.2c-42.5,8.2-78.8-31-67.4-72.7l35.6-130.4
			c9.4-34.4-14-69.2-49.5-73.4l0,0C231.2-87.2,203.5-67.4,197.2-37.9z"/>
	</defs>
	<clipPath id="SVGID_2_">
		<use xlink:href="#SVGID_1_"  style="overflow:visible;"/>
	</clipPath>
	<circle class="st1" cx="184.5" cy="184.5" r="184.5"/>
</g>
<circle class="st2" cx="184.5" cy="184.5" r="175.8"/>
</svg>
