<?xml version="1.0" encoding="utf-8"?>
<!-- Generator: Adobe Illustrator 23.0.1, SVG Export Plug-In . SVG Version: 6.00 Build 0)  -->
<svg version="1.1" id="Layer_1" xmlns="http://www.w3.org/2000/svg" xmlns:xlink="http://www.w3.org/1999/xlink" x="0px" y="0px"
	 viewBox="0 0 328.6 204.1" style="enable-background:new 0 0 328.6 204.1;" xml:space="preserve">
<style type="text/css">
	.st0{fill-rule:evenodd;clip-rule:evenodd;fill:#471B47;}
	.st1{fill-rule:evenodd;clip-rule:evenodd;fill:#FFFFFF;}
	.st2{fill-rule:evenodd;clip-rule:evenodd;fill:#643062;}
	.st3{fill-rule:evenodd;clip-rule:evenodd;fill:#0FB283;}
	.st4{fill-rule:evenodd;clip-rule:evenodd;fill:#06D6A0;}
	.st5{fill-rule:evenodd;clip-rule:evenodd;fill:#95E8D0;}
	.st6{fill-rule:evenodd;clip-rule:evenodd;fill:#4E254F;}
	.st7{fill-rule:evenodd;clip-rule:evenodd;fill:#CCC0CC;}
	.st8{fill-rule:evenodd;clip-rule:evenodd;fill:#D6D0D6;}
	.st9{fill-rule:evenodd;clip-rule:evenodd;fill:#2F1130;}
</style>
<g>
	<g>
		<g>
			<g>
				<g>
					<path class="st0" d="M196.9,189.9c3.9,0,7.1,3.2,7,7.1c-0.1,3.9-3.3,7.1-7.3,7.1c-3.9,0-7.1-3.2-7-7.1
						C189.7,193.1,193,189.9,196.9,189.9z"/>
					<path class="st1" d="M196.9,193.6c1.9,0,3.4,1.5,3.4,3.4c0,1.9-1.6,3.4-3.5,3.4c-1.9,0-3.4-1.5-3.4-3.4
						C193.4,195.1,195,193.6,196.9,193.6z"/>
				</g>
				<g>
					<path class="st0" d="M143.4,189.9c3.9,0,7.1,3.2,7,7.1c-0.1,3.9-3.3,7.1-7.3,7.1c-3.9,0-7.1-3.2-7-7.1
						C136.2,193.1,139.5,189.9,143.4,189.9z"/>
					<path class="st1" d="M143.3,193.6c1.9,0,3.4,1.5,3.4,3.4c0,1.9-1.6,3.4-3.5,3.4c-1.9,0-3.4-1.5-3.4-3.4
						C139.9,195.1,141.4,193.6,143.3,193.6z"/>
				</g>
			</g>
			<path class="st0" d="M136.3,192.6h67.6c3.9,0,7.1-3.2,7.2-7.1l0.1-5.7c0-0.7-0.6-1.3-1.3-1.3h-79.1c-0.7,0-1.4,0.6-1.4,1.3
				l-0.1,5.7C129.3,189.5,132.4,192.6,136.3,192.6z"/>
		</g>
		<g>
			<g>
				<path class="st2" d="M153.5,3.1h41.3c2.9,0,5.5,1.2,7.3,3.1c1.9,1.9,3,4.5,2.9,7.4l-1.4,66.3c-0.1,2.9-1.3,5.5-3.2,7.4
					c-1.9,1.9-4.6,3.1-7.5,3.1h-41.3c-2.9,0-5.5-1.2-7.3-3.1c-1.9-1.9-3-4.5-2.9-7.4l1.4-66.3c0.1-2.9,1.3-5.5,3.2-7.4
					C147.9,4.2,150.6,3.1,153.5,3.1L153.5,3.1z M194.6,6.5h-41.3c-1.9,0-3.7,0.8-5,2.1c-1.3,1.3-2.1,3-2.2,5l-1.4,66.3
					c0,1.9,0.7,3.7,2,5c1.2,1.3,3,2.1,4.9,2.1H193c1.9,0,3.7-0.8,5-2.1c1.3-1.3,2.1-3,2.2-5l1.4-66.3c0-1.9-0.7-3.7-2-5
					C198.3,7.3,196.6,6.5,194.6,6.5z"/>
				<path class="st2" d="M144.6,54.1L144.6,54.1c3.2,0,5.4,2.6,4.9,5.8l0,0c-0.5,3.2-3.6,5.8-6.8,5.8l0,0c-3.2,0-5.4-2.6-4.9-5.8
					l0,0C138.4,56.8,141.4,54.1,144.6,54.1z"/>
				<path class="st2" d="M202.5,54.1L202.5,54.1c3.2,0,5.4,2.6,4.9,5.8l0,0c-0.5,3.2-3.6,5.8-6.8,5.8l0,0c-3.2,0-5.4-2.6-4.9-5.8
					l0,0C196.2,56.8,199.3,54.1,202.5,54.1z"/>
			</g>
			<g>
				<path class="st0" d="M161.5,0h25.3c2.6,0,4.7,2.1,4.7,4.8v0c-0.1,2.6-2.2,4.8-4.9,4.8h-25.3c-2.6,0-4.7-2.1-4.7-4.8v0
					C156.7,2.1,158.9,0,161.5,0z"/>
				<path class="st2" d="M161.6,0H174c1.3,0,2.3,1.1,2.3,2.3v0c0,1.3-1.1,2.3-2.4,2.3h-12.4c-1.3,0-2.3-1.1-2.3-2.3v0
					C159.2,1.1,160.3,0,161.6,0z"/>
			</g>
		</g>
		<g>
			<path class="st0" d="M167.1,48.1h12.2c4.5,0,8.1,3.7,8,8.1l-0.2,8.1h-28.4l0.2-8.1C158.9,51.7,162.6,48.1,167.1,48.1L167.1,48.1z
				 M169.2,51c-2.9,0-6.1,2.5-5.3,5.2l1.4,5.2h15.1l1.8-5.2c1-2.7-2.2-5.2-5.1-5.2H169.2z"/>
			<path class="st0" d="M132,60h81.8c5.3,0,9.5,4.3,9.4,9.6L220.9,176c-0.1,5.3-4.5,9.6-9.8,9.6h-81.8c-5.3,0-9.5-4.3-9.4-9.6
				l2.2-106.4C122.3,64.3,126.7,60,132,60z"/>
			<path class="st2" d="M187.3,61.3h27.2c3.2,0,5.7,2.6,5.6,5.8v0c-0.1,3.2-2.7,5.8-5.9,5.8h-27.2c-3.2,0-5.7-2.6-5.6-5.8v0
				C181.5,63.9,184.2,61.3,187.3,61.3z"/>
		</g>
		<g>
			<path class="st3" d="M143.3,82.8h58.3c3.8,0,6.8,3.1,6.7,6.8l-2,95.9h-71.9l2-95.9C136.4,85.9,139.5,82.8,143.3,82.8z"/>
			<path class="st4" d="M143.3,82.8h58.3c3.8,0,6.8,3.1,6.7,6.8l-1,48.7c-6.1,14.2-20.3,24.3-36.5,24.3l0,0
				c-16.2,0-30-10.1-35.5-24.3l1-48.7C136.4,85.9,139.5,82.8,143.3,82.8z"/>
			<path class="st5" d="M143.1,81.3l58.3-2.3c3.8-0.2,6.9,2.8,7,6.6l0.1,4.8c-0.1-3.8-3.2-6.7-7-6.6L143.2,86
				c-3.8,0.2-6.8,3.3-6.7,7.1l-0.1-4.8C136.3,84.6,139.4,81.4,143.1,81.3z"/>
		</g>
		<g>
			<g>
				<path class="st0" d="M202.2,85.9l0.6,3.5c0.2,0.9-0.1,1.8-0.7,2.6c-0.6,0.7-1.5,1.1-2.4,1.1h-2c-1,0-1.8-0.4-2.4-1.1
					c-0.6-0.7-0.8-1.6-0.6-2.6l0.7-3.5c0.3-1.5,1.6-2.6,3.1-2.6h0.7C200.7,83.3,202,84.4,202.2,85.9z"/>
				<path class="st2" d="M200.2,85.2l0.4,2.6c0.1,0.7-0.1,1.3-0.5,1.9c-0.5,0.5-1.1,0.8-1.8,0.8h-1.5c-0.7,0-1.3-0.3-1.7-0.8
					c-0.4-0.5-0.6-1.2-0.4-1.9l0.5-2.6c0.2-1.1,1.2-1.9,2.3-1.9h0.5C199.1,83.3,200.1,84.1,200.2,85.2z"/>
			</g>
			<g>
				<path class="st1" d="M172.2,93.3c4.2,0,7.6,3.4,7.5,7.7c-0.1,4.2-3.6,7.7-7.8,7.7c-1.7,0-3.2-0.5-4.4-1.4
					c0.7-1.2,2.3-2.2,4.3-2.8c2.8-0.7,5.4-0.1,6,1.4c0.2-0.5,0.2-1.1,0.1-1.6c-0.6-2.4-4.4-3.4-8.5-2.3c-1.7,0.5-3.2,1.2-4.4,2.1
					c-0.4-0.9-0.6-2-0.6-3.1C164.5,96.7,168,93.3,172.2,93.3z"/>
				<g>
					<path class="st2" d="M171.5,125.6c2.2,0,4.3,0.9,5.7,2.4c1.4,1.5,2.3,3.5,2.3,5.7l-0.1,5.6c0,0.7-0.3,1.3-0.8,1.8l0,0
						c-0.5,0.5-1.1,0.7-1.8,0.7h-11.3c-0.7,0-1.3-0.3-1.7-0.7l0,0c-0.4-0.5-0.7-1.1-0.7-1.8l0.1-5.6c0-2.2,1-4.3,2.5-5.7
						C167.2,126.5,169.3,125.6,171.5,125.6L171.5,125.6z M175.8,129.3c-1.1-1.1-2.6-1.8-4.3-1.8c-1.7,0-3.3,0.7-4.4,1.8
						c-1.1,1.1-1.9,2.7-1.9,4.4l-0.1,5.6c0,0.1,0.1,0.3,0.1,0.4l0,0c0.1,0.1,0.2,0.2,0.4,0.2h11.3c0.1,0,0.3-0.1,0.4-0.2h0
						c0.1-0.1,0.2-0.2,0.2-0.4l0.1-5.6C177.6,132,176.9,130.5,175.8,129.3z"/>
					<polygon class="st3" points="166.3,141.8 176,141.8 175.7,155 166.1,155 					"/>
					<path class="st1" d="M167,142.8h8.3c0.4,0,0.7-0.3,0.7-0.7l0-2.3c0-0.4-0.3-0.7-0.7-0.7h-8.3c-0.4,0-0.7,0.3-0.7,0.7l0,2.3
						C166.3,142.5,166.6,142.8,167,142.8z"/>
				</g>
			</g>
		</g>
	</g>
	<g>
		<g>
			<g>
				<path class="st0" d="M130.4,204.1H30.3c-2.4,0-4.4-2-4.4-4.4V180c0-2.4,2-4.4,4.4-4.4h100.1c2.4,0,4.4,2,4.4,4.4v19.7
					C134.7,202.2,132.8,204.1,130.4,204.1z"/>
				<path class="st2" d="M25.9,196.3V180c0-2.4,2-4.4,4.4-4.4h45.4C75.6,185.4,68.4,199.3,25.9,196.3z"/>
				<rect x="25.9" y="192" class="st2" width="108.9" height="2.2"/>
			</g>
			<g>
				<g>
					<g>
						<rect x="25.9" y="186.4" class="st4" width="108.9" height="2.2"/>
						<rect x="25.9" y="191.2" class="st4" width="108.9" height="2.2"/>
					</g>
					<path class="st4" d="M68.4,191.1l3.9,0l0,3.3c0,1.9,1.5,3.5,3.5,3.5l9.1,0.1c1.9,0,3.5-1.5,3.5-3.5l0-3.3l3.9,0l0,5.2
						c0,2.8-2.4,5.2-5.2,5.1l-13.5-0.1c-2.8,0-5.2-2.4-5.1-5.2L68.4,191.1z"/>
				</g>
				<g>
					<g>
						<path class="st4" d="M39.9,182.8L39.9,182.8c1.7,0,3.2,1.4,3.2,3.2v4.9c0,1.7-1.4,3.2-3.2,3.2l0,0c-1.7,0-3.2-1.4-3.2-3.2V186
							C36.7,184.3,38.2,182.8,39.9,182.8z"/>
						<path class="st4" d="M119.4,182.8L119.4,182.8c1.7,0,3.2,1.4,3.2,3.2v4.9c0,1.7-1.4,3.2-3.2,3.2l0,0c-1.7,0-3.2-1.4-3.2-3.2
							V186C116.2,184.3,117.6,182.8,119.4,182.8z"/>
					</g>
					<g>
						<g>
							<path class="st4" d="M40.6,184.3L40.6,184.3c1.7,0,3.2,1.4,3.2,3.2v4.9c0,1.7-1.4,3.2-3.2,3.2l0,0c-1.7,0-3.2-1.4-3.2-3.2
								v-4.9C37.4,185.7,38.8,184.3,40.6,184.3z"/>
							<path class="st4" d="M120,184.3L120,184.3c1.7,0,3.2,1.4,3.2,3.2v4.9c0,1.7-1.4,3.2-3.2,3.2l0,0c-1.7,0-3.2-1.4-3.2-3.2v-4.9
								C116.9,185.7,118.3,184.3,120,184.3z"/>
						</g>
						<path class="st5" d="M39.7,185.1L39.7,185.1c0.9,0,1.7,0.8,1.7,1.7v1.2c0,0.9-0.8,1.7-1.7,1.7h0c-0.9,0-1.7-0.8-1.7-1.7v-1.2
							C38,185.9,38.7,185.1,39.7,185.1z"/>
						<path class="st5" d="M119.3,185.1L119.3,185.1c0.9,0,1.7,0.8,1.7,1.7l0,1.2c0,0.9-0.8,1.7-1.7,1.7h0c-0.9,0-1.7-0.8-1.7-1.7
							l0-1.2C117.6,185.9,118.4,185.1,119.3,185.1z"/>
					</g>
				</g>
			</g>
		</g>
		<g>
			<g>
				<path class="st2" d="M145.4,147.1H45.3c-2.4,0-4.4,2-4.4,4.4v19.7c0,2.4,2,4.4,4.4,4.4h100.1c2.4,0,4.4-2,4.4-4.4v-19.7
					C149.8,149.1,147.8,147.1,145.4,147.1z"/>
				<path class="st2" d="M40.9,161.4v9.9c0,2.4,2,4.4,4.4,4.4h100.1c2.4,0,4.4-2,4.4-4.4v-9.9H40.9z"/>
				<rect x="40.9" y="161.4" class="st4" width="108.9" height="2.2"/>
			</g>
			<g>
				<g>
					<g>
						<path class="st4" d="M55.3,165.6L55.3,165.6c1.7,0,3.1-1.4,3.1-3.2l0-4.9c0-1.7-1.4-3.2-3.2-3.2l0,0c-1.7,0-3.1,1.4-3.1,3.2
							l0,4.9C52.1,164.2,53.6,165.6,55.3,165.6z"/>
						<path class="st4" d="M134.8,165.6L134.8,165.6c1.7,0,3.1-1.4,3.1-3.2l0-4.9c0-1.7-1.4-3.2-3.2-3.2l0,0c-1.7,0-3.1,1.4-3.1,3.2
							l0,4.9C131.6,164.2,133,165.6,134.8,165.6z"/>
					</g>
					<g>
						<path class="st0" d="M55.6,167L55.6,167c1.7,0,3.2-1.4,3.2-3.2V159c0-1.7-1.4-3.2-3.2-3.2l0,0c-1.7,0-3.2,1.4-3.2,3.2v4.9
							C52.5,165.6,53.9,167,55.6,167z"/>
						<path class="st0" d="M135.1,167L135.1,167c1.7,0,3.2-1.4,3.2-3.2V159c0-1.7-1.4-3.2-3.2-3.2l0,0c-1.7,0-3.2,1.4-3.2,3.2v4.9
							C131.9,165.6,133.4,167,135.1,167z"/>
					</g>
					<path class="st2" d="M134,161.1L134,161.1c0.9,0,1.7-0.8,1.7-1.7v-1.2c0-0.9-0.8-1.7-1.7-1.7h0c-0.9,0-1.7,0.8-1.7,1.7v1.2
						C132.3,160.4,133.1,161.1,134,161.1z"/>
					<path class="st2" d="M54.7,161.3L54.7,161.3c0.9,0,1.7-0.8,1.7-1.7v-1.2c0-0.9-0.8-1.7-1.7-1.7h0c-0.9,0-1.7,0.8-1.7,1.7v1.2
						C53,160.5,53.8,161.3,54.7,161.3z"/>
				</g>
				<g>
					<g>
						<rect x="40.9" y="160.3" class="st0" width="108.9" height="2.2"/>
					</g>
					<path class="st0" d="M107.3,162l-3.9-0.1l-0.1,3.3c-0.1,1.9-1.7,3.4-3.6,3.4l-9.1-0.3c-1.9-0.1-3.4-1.7-3.4-3.6l0.1-3.3
						l-3.9-0.1l-0.2,5.2c-0.1,2.8,2.1,5.3,5,5.4l13.5,0.5c2.8,0.1,5.3-2.1,5.4-5L107.3,162z"/>
				</g>
			</g>
		</g>
	</g>
	<g>
		<g>
			<path class="st0" d="M231.5,105.6h34.6c2.2,0,4.1,1,5.5,2.6c1.4,1.6,2.3,3.8,2.3,6.2v17.4c0,2.4-0.9,4.6-2.3,6.2
				c-1.4,1.6-3.4,2.6-5.5,2.6h-34.6c-2.2,0-4.1-1-5.5-2.6c-1.4-1.6-2.3-3.8-2.3-6.2v-17.4c0-2.4,0.9-4.6,2.3-6.2
				C227.4,106.6,229.3,105.6,231.5,105.6L231.5,105.6z M266.1,108.9h-34.6c-1.3,0-2.6,0.6-3.5,1.6c-0.9,1-1.4,2.4-1.4,3.9v17.4
				c0,1.5,0.6,2.9,1.4,3.9c0.9,1,2.1,1.6,3.5,1.6h34.6c1.3,0,2.6-0.6,3.5-1.6c0.9-1,1.4-2.4,1.4-3.9v-17.4c0-1.5-0.6-2.9-1.4-3.9
				C268.6,109.5,267.4,108.9,266.1,108.9z"/>
			<g>
				<path class="st0" d="M234.6,101.4H263c2.9,0,5.4,2.4,5.4,5.4v0c0,2.9-2.4,5.4-5.4,5.4h-28.4c-2.9,0-5.4-2.4-5.4-5.4v0
					C229.2,103.8,231.6,101.4,234.6,101.4z"/>
				<path class="st2" d="M234.7,101.4h13.9c1.4,0,2.6,1.2,2.6,2.6v0c0,1.4-1.2,2.6-2.6,2.6h-13.9c-1.4,0-2.6-1.2-2.6-2.6v0
					C232.1,102.5,233.3,101.4,234.7,101.4z"/>
			</g>
		</g>
		<g>
			<g>
				<path class="st0" d="M319.6,117.7h-7.9c-0.6,0-1.1,0.5-1.1,1.1v15.7c0,0.6,0.5,1.1,1.1,1.1h15.7c0.6,0,1.1-0.5,1.1-1.1v-7.9
					C328.6,121.8,324.6,117.7,319.6,117.7z"/>
				<path class="st0" d="M319.6,204.1h-7.9c-0.6,0-1.1-0.5-1.1-1.1v-15.7c0-0.6,0.5-1.1,1.1-1.1h15.7c0.6,0,1.1,0.5,1.1,1.1v7.9
					C328.6,200.1,324.6,204.1,319.6,204.1z"/>
			</g>
			<path class="st6" d="M221.1,119.4h95.8c4.9,0,8.9,4,8.9,8.9v65.6c0,4.9-4,8.9-8.9,8.9h-95.8c-4.9,0-8.9-4-8.9-8.9v-65.6
				C212.2,123.4,216.2,119.4,221.1,119.4z"/>
			<g>
				<path class="st0" d="M304.6,119.4h5c4.9,0,8.9,4,8.9,8.9v65.6c0,4.9-4,8.9-8.9,8.9h-5c4.9,0,8.9-4,8.9-8.9v-65.6
					C313.5,123.4,309.5,119.4,304.6,119.4z"/>
				<g>
					<path class="st7" d="M302.9,119.4h5c4.9,0,8.9,4,8.9,8.9v65.6c0,4.9-4,8.9-8.9,8.9h-5c4.9,0,8.9-4,8.9-8.9v-65.6
						C311.8,123.4,307.8,119.4,302.9,119.4z"/>
					<path class="st8" d="M316.8,140.5v53.4c0,4.9-4,8.9-8.9,8.9h-5c4.9,0,8.9-4,8.9-8.9v-52.8C311.8,144.9,316.8,144.4,316.8,140.5
						z"/>
					<path class="st7" d="M316.8,175.4v18.5c0,4.9-4,8.9-8.9,8.9h-5c4.9,0,8.9-4,8.9-8.9v-18.6C311.8,179.9,316.8,180.1,316.8,175.4
						z"/>
				</g>
			</g>
		</g>
		<g>
			<path class="st0" d="M199.5,119.4h92.8c4.9,0,8.9,4,8.9,8.9v65.6c0,4.9-4,8.9-8.9,8.9h-92.8c-4.9,0-8.9-4-8.9-8.9v-65.6
				C190.6,123.4,194.6,119.4,199.5,119.4z"/>
			<path class="st9" d="M301.2,167.7v26.2c0,4.9-4,8.9-8.9,8.9h-92.8c-4.9,0-8.9-4-8.9-8.9v-27.5C200.5,177.3,255.7,191,301.2,167.7
				z"/>
			<path class="st5" d="M212.6,119.4h11.2v83.4h-11.2V119.4L212.6,119.4z M271.2,119.4h11.2v83.4h-11.2V119.4z"/>
		</g>
		<g>
			<path class="st2" d="M197.9,117.7h7.9c0.6,0,1.1,0.5,1.1,1.1v15.7c0,0.6-0.5,1.1-1.1,1.1H190c-0.6,0-1.1-0.5-1.1-1.1v-7.9
				C188.9,121.8,193,117.7,197.9,117.7z"/>
			<path class="st2" d="M197.9,204.1h7.9c0.6,0,1.1-0.5,1.1-1.1v-15.7c0-0.6-0.5-1.1-1.1-1.1H190c-0.6,0-1.1,0.5-1.1,1.1v7.9
				C188.9,200.1,193,204.1,197.9,204.1z"/>
			<path class="st2" d="M295.4,117.7h-7.9c-0.6,0-1.1,0.5-1.1,1.1v15.7c0,0.6,0.5,1.1,1.1,1.1h15.7c0.6,0,1.1-0.5,1.1-1.1v-7.9
				C304.3,121.8,300.3,117.7,295.4,117.7z"/>
			<path class="st2" d="M295.4,204.1h-7.9c-0.6,0-1.1-0.5-1.1-1.1v-15.7c0-0.6,0.5-1.1,1.1-1.1h15.7c0.6,0,1.1,0.5,1.1,1.1v7.9
				C304.3,200.1,300.3,204.1,295.4,204.1z"/>
		</g>
		<g>
			<path class="st4" d="M212.3,118.1h8.6c0.7,0,1.3,0.6,1.3,1.3v83.4c0,0.7-0.6,1.3-1.3,1.3h-8.6c-0.7,0-1.3-0.6-1.3-1.3v-83.4
				C211,118.7,211.6,118.1,212.3,118.1z"/>
			<path class="st3" d="M222.2,133.9v16.3c-0.8,0.5-1.7,0.7-2.7,0.7h-5.9c-1,0-1.9-0.3-2.7-0.7v-16.3c0.8-0.5,1.7-0.7,2.7-0.7h5.9
				C220.5,133.2,221.4,133.5,222.2,133.9L222.2,133.9z M219.5,135.9h-5.9c-0.7,0-1.4,0.3-1.9,0.8c-0.5,0.5-0.8,1.1-0.8,1.9v7.2
				c0,0.7,0.3,1.4,0.8,1.9c0.5,0.5,1.1,0.8,1.9,0.8h5.9c0.7,0,1.4-0.3,1.9-0.8l0,0c0.5-0.5,0.8-1.1,0.8-1.9v-7.2
				c0-0.7-0.3-1.4-0.8-1.9v0C220.9,136.2,220.3,135.9,219.5,135.9z"/>
			<path class="st3" d="M222.2,179.4v24.7H211v-24.1C211,184.7,222.2,185.3,222.2,179.4z"/>
			<g>
				<path class="st1" d="M216.6,130.2c1.2,0,2.1-1,2.1-2.1s-1-2.1-2.1-2.1s-2.1,1-2.1,2.1S215.4,130.2,216.6,130.2z"/>
				<path class="st1" d="M216.6,155.1c1.2,0,2.1-1,2.1-2.1s-1-2.1-2.1-2.1s-2.1,1-2.1,2.1S215.4,155.1,216.6,155.1z"/>
				<circle class="st1" cx="216.6" cy="140.5" r="2.1"/>
				<path class="st1" d="M216.6,167.5c1.2,0,2.1-1,2.1-2.1c0-1.2-1-2.1-2.1-2.1s-2.1,1-2.1,2.1C214.4,166.6,215.4,167.5,216.6,167.5
					z"/>
			</g>
			<g>
				<path class="st2" d="M213.6,131.8h5.9c1.5,0,2.8,0.6,3.7,1.6l0,0c1,1,1.6,2.3,1.6,3.7v7.2c0,1.5-0.6,2.8-1.6,3.7v0
					c-1,1-2.3,1.6-3.7,1.6h-5.9c-1.5,0-2.8-0.6-3.7-1.6l0,0c-1-1-1.6-2.3-1.6-3.7v-7.2c0-1.5,0.6-2.8,1.6-3.7l0,0
					C210.8,132.4,212.2,131.8,213.6,131.8L213.6,131.8z M219.5,134.4h-5.9c-0.7,0-1.4,0.3-1.9,0.8c-0.5,0.5-0.8,1.1-0.8,1.9v7.2
					c0,0.7,0.3,1.4,0.8,1.9c0.5,0.5,1.1,0.8,1.9,0.8h5.9c0.7,0,1.4-0.3,1.9-0.8l0,0c0.5-0.5,0.8-1.1,0.8-1.9v-7.2
					c0-0.7-0.3-1.4-0.8-1.9v0C220.9,134.7,220.3,134.4,219.5,134.4z"/>
				<path class="st2" d="M216.6,142L216.6,142c0.9,0,1.6-0.7,1.6-1.6v-6.9c0-0.9-0.7-1.6-1.6-1.6h0c-0.9,0-1.6,0.7-1.6,1.6v6.9
					C215,141.3,215.7,142,216.6,142z"/>
			</g>
		</g>
		<g>
			<path class="st4" d="M270.9,118.1h8.6c0.7,0,1.3,0.6,1.3,1.3v83.4c0,0.7-0.6,1.3-1.3,1.3h-8.6c-0.7,0-1.3-0.6-1.3-1.3v-83.4
				C269.6,118.7,270.2,118.1,270.9,118.1z"/>
			<g>
				<path class="st1" d="M275.2,130.2c1.2,0,2.1-1,2.1-2.1s-1-2.1-2.1-2.1c-1.2,0-2.1,1-2.1,2.1S274,130.2,275.2,130.2z"/>
				<path class="st1" d="M275.2,155.1c1.2,0,2.1-1,2.1-2.1s-1-2.1-2.1-2.1c-1.2,0-2.1,1-2.1,2.1S274,155.1,275.2,155.1z"/>
				<circle class="st1" cx="275.2" cy="140.5" r="2.1"/>
				<path class="st1" d="M275.2,167.5c1.2,0,2.1-1,2.1-2.1c0-1.2-1-2.1-2.1-2.1c-1.2,0-2.1,1-2.1,2.1
					C273.1,166.6,274,167.5,275.2,167.5z"/>
			</g>
			<path class="st3" d="M280.8,179.4v24.7h-11.2v-24.1C269.6,184.7,280.8,185.3,280.8,179.4z"/>
			<path class="st3" d="M280.8,133.9v16.3c-0.8,0.5-1.7,0.7-2.7,0.7h-5.9c-1,0-1.9-0.3-2.7-0.7v-16.3c0.8-0.5,1.7-0.7,2.7-0.7h5.9
				C279.2,133.2,280.1,133.5,280.8,133.9L280.8,133.9z M278.2,135.9h-5.9c-0.7,0-1.4,0.3-1.9,0.8c-0.5,0.5-0.8,1.1-0.8,1.9v7.2
				c0,0.7,0.3,1.4,0.8,1.9c0.5,0.5,1.1,0.8,1.9,0.8h5.9c0.7,0,1.4-0.3,1.9-0.8l0,0c0.5-0.5,0.8-1.1,0.8-1.9v-7.2
				c0-0.7-0.3-1.4-0.8-1.9v0C279.6,136.2,278.9,135.9,278.2,135.9z"/>
			<g>
				<path class="st2" d="M272.3,131.8h5.9c1.5,0,2.8,0.6,3.7,1.6l0,0c1,1,1.6,2.3,1.6,3.7v7.2c0,1.5-0.6,2.8-1.6,3.7v0
					c-1,1-2.3,1.6-3.7,1.6h-5.9c-1.5,0-2.8-0.6-3.7-1.6l0,0c-1-1-1.6-2.3-1.6-3.7v-7.2c0-1.5,0.6-2.8,1.6-3.7l0,0
					C269.5,132.4,270.8,131.8,272.3,131.8L272.3,131.8z M278.2,134.4h-5.9c-0.7,0-1.4,0.3-1.9,0.8c-0.5,0.5-0.8,1.1-0.8,1.9v7.2
					c0,0.7,0.3,1.4,0.8,1.9c0.5,0.5,1.1,0.8,1.9,0.8h5.9c0.7,0,1.4-0.3,1.9-0.8l0,0c0.5-0.5,0.8-1.1,0.8-1.9v-7.2
					c0-0.7-0.3-1.4-0.8-1.9v0C279.6,134.7,278.9,134.4,278.2,134.4z"/>
				<path class="st2" d="M275.2,142L275.2,142c0.9,0,1.6-0.7,1.6-1.6v-6.9c0-0.9-0.7-1.6-1.6-1.6h0c-0.9,0-1.6,0.7-1.6,1.6v6.9
					C273.7,141.3,274.4,142,275.2,142z"/>
			</g>
		</g>
	</g>
	<g>
		<g>
			<path class="st2" d="M114.8,59.2c15.6-4.1,28.2,9.7,28.2,31c0,21.2-12.6,41.8-28.2,45.9c-0.5,0.1-1,0.2-1.5,0.3
				c12-7.4,20.4-24.7,19.4-42.4c-1-19-12.2-31.9-25.9-31.1C109.4,61.2,112.1,60,114.8,59.2z"/>
			<path class="st0" d="M114.8,59.2c8.5-2.2,16.1,0.8,21.2,7.5c-2.6,3.4-6,9.4-4.9,17.1v0c-3.7-13.2-13.2-21.6-24.3-20.9
				C109.4,61.2,112.1,60,114.8,59.2L114.8,59.2z M131,124.8c-4.6,5.6-10.2,9.6-16.2,11.2c-0.5,0.1-1,0.2-1.5,0.3
				c6.4-3.9,11.7-10.6,15.2-18.6v0C128.5,117.8,127,123.8,131,124.8z"/>
		</g>
		<g>
			<path class="st2" d="M96.2,49.1L96.2,49.1c20.6,0,35.8,16.9,33.8,37.5l-4.9,50.1c-0.6,5.8-5.8,10.5-11.5,10.5H59.5
				c-5.8,0-10-4.7-9.5-10.5L55,86.5C57,65.9,75.6,49.1,96.2,49.1z"/>
			<path class="st0" d="M127.5,111.6l-2.5,25c-0.6,5.8-5.8,10.5-11.5,10.5H59.5c-5.8,0-10-4.7-9.5-10.5l2.5-25h56
				C107.3,124.4,126.4,122.4,127.5,111.6z"/>
			<path class="st0" d="M84.7,64.2L84.7,64.2c15.7,0,27.4,12.9,25.8,28.6l-3.8,38.3c-0.4,4.4-4.4,8-8.8,8H56.7c-4.4,0-7.7-3.6-7.2-8
				l3.8-38.3C54.8,77.1,68.9,64.2,84.7,64.2z"/>
		</g>
		<g>
			<path class="st2" d="M98.1,37.2L98.1,37.2c4.6,0,8.3,3.8,8,8.4l-0.3,5.7c-0.2,4.6-4.2,8.4-8.9,8.4l0,0c-4.6,0-8.3-3.8-8-8.4
				l0.3-5.7C89.5,41,93.5,37.2,98.1,37.2L98.1,37.2z M97.9,43.1c-2.8,0-5.1,2.3-5.3,5L92.4,52c-0.1,2.8,2,5,4.8,5l0,0
				c2.8,0,5.1-2.3,5.3-5l0.2-3.9C102.8,45.3,100.6,43.1,97.9,43.1L97.9,43.1z"/>
			<g>
				<path class="st4" d="M79.8,62.8L79.8,62.8c15.7,0,27.4,12.9,25.8,28.6l-3.8,38.3c-0.4,4.4-4.4,8-8.8,8H51.8
					c-4.4,0-7.7-3.6-7.2-8l3.8-38.3C49.9,75.6,64,62.8,79.8,62.8z"/>
				<path class="st3" d="M104.4,103.8l-2.6,25.8c-0.4,4.4-4.4,8-8.8,8H51.8c-4.4,0-7.7-3.6-7.2-8l2.2-22.4
					C45.5,131.7,89.8,131,104.4,103.8z"/>
				<path class="st1" d="M77.1,70.4c2.5,0,4.3,2,4,4.6c-0.3,2.5-2.6,4.6-5.2,4.6c-2.5,0-4.3-2-4-4.6c0-0.2,0.1-0.3,0.1-0.5
					c0.3,1,1.2,1.6,2.4,1.6c1.6,0,3-1.3,3.2-2.9c0.2-1.3-0.5-2.4-1.6-2.7C76.4,70.4,76.7,70.4,77.1,70.4z"/>
				<path class="st5" d="M60.3,71.9c2.5-1.9,5.2-2.3,6.1-0.9c0.9,1.4-0.4,4-2.9,5.8c-2.5,1.9-5.2,2.3-6.1,0.9
					C56.5,76.4,57.8,73.8,60.3,71.9z"/>
			</g>
			<g>
				<rect x="48.2" y="92.4" class="st1" width="57.1" height="1.7"/>
				<g>
					<path class="st0" d="M108.6,95l0.7,3.5c0.2,0.9-0.1,1.8-0.7,2.6c-0.6,0.7-1.4,1.1-2.4,1.1h-2c-1,0-1.8-0.4-2.4-1.1
						c-0.6-0.7-0.8-1.6-0.7-2.6l0.7-3.5c0.3-1.5,1.6-2.5,3.1-2.5h0.7C107,92.5,108.3,93.5,108.6,95z"/>
					<path class="st1" d="M106.6,94.3l0.5,2.6c0.1,0.7,0,1.3-0.5,1.9c-0.5,0.5-1.1,0.8-1.8,0.8h-1.5c-0.7,0-1.3-0.3-1.8-0.8
						c-0.5-0.5-0.6-1.2-0.5-1.9l0.5-2.6c0.2-1.1,1.1-1.9,2.3-1.9h0.5C105.4,92.5,106.3,93.2,106.6,94.3z"/>
				</g>
			</g>
			<g>
				<path class="st0" d="M69.1,58c3.2-2,6.7-3.6,10.3-4.6c3.5-1,7.2-1.6,10.9-1.6c1.2,0,2.4,0.1,3.6,0.2c8.8,0.9,16.4,4.9,21.8,10.8
					c5.4,6,8.6,14,8.6,22.8h0c0,1.2-0.1,2.4-0.2,3.7l-1.7-0.2c0.1-1.2,0.2-2.3,0.2-3.5h0c0-8.4-3-16-8.2-21.7
					c-5.1-5.7-12.3-9.5-20.7-10.3c-1.1-0.1-2.3-0.2-3.5-0.2c-3.6,0-7.1,0.5-10.4,1.5c-3.5,1-6.8,2.5-9.8,4.4L69.1,58z"/>
				<g>
					<path class="st0" d="M127.2,91l0.7,3.5c0.2,0.9-0.1,1.8-0.7,2.6c-0.6,0.7-1.4,1.1-2.4,1.1h-2c-1,0-1.8-0.4-2.4-1.1
						c-0.6-0.7-0.8-1.6-0.7-2.6l0.7-3.5c0.3-1.5,1.6-2.5,3.1-2.5h0.7C125.6,88.5,126.9,89.5,127.2,91z"/>
					<path class="st2" d="M125.2,90.3l0.5,2.6c0.1,0.7,0,1.3-0.5,1.9c-0.5,0.5-1.1,0.8-1.8,0.8h-1.5c-0.7,0-1.3-0.3-1.8-0.8
						c-0.5-0.5-0.6-1.2-0.5-1.9l0.5-2.6c0.2-1.1,1.1-1.9,2.3-1.9h0.5C124,88.5,125,89.2,125.2,90.3z"/>
				</g>
			</g>
		</g>
	</g>
	<path class="st4" d="M252.5,52.1c-6.8,0-12.3,5.5-12.3,12.3c0,3.5,1.5,6.8,4.1,9.2l6.5,6.5c1,1,2.5,1,3.5,0l6.5-6.5c0,0,0,0,0,0
		l1.2-1.2c0.1-0.1,0.1-0.1,0.1-0.2c1.3-1.6,2.1-3.4,2.5-5.4C265.9,59.1,260.1,52.1,252.5,52.1z M252.5,69.7c-3.2,0-5.8-2.6-5.8-5.8
		c0-3.2,2.6-5.8,5.8-5.8s5.8,2.6,5.8,5.8C258.3,67.1,255.7,69.7,252.5,69.7z"/>
	<g>
		<path class="st4" d="M286.2,100.9c2.8,0,5-2.3,5-5c0-2.8-2.3-5-5-5c-2.8,0-5,2.3-5,5C281.2,98.7,283.5,100.9,286.2,100.9z"/>
		<path class="st4" d="M301.8,104.3c0.9,0,1.7-0.8,1.7-1.7c0-0.9-0.8-1.7-1.7-1.7c-0.9,0-1.7,0.8-1.7,1.7
			C300.1,103.5,300.8,104.3,301.8,104.3z"/>
		<path class="st4" d="M18.4,145.4c1.8,0,3.3-1.5,3.3-3.3c0-1.8-1.5-3.3-3.3-3.3c-1.8,0-3.3,1.5-3.3,3.3
			C15.1,143.9,16.6,145.4,18.4,145.4z"/>
		<path class="st4" d="M121,39.5c1.7,0,3.1-1.4,3.1-3.1c0-1.7-1.4-3.1-3.1-3.1c-1.7,0-3.1,1.4-3.1,3.1
			C117.9,38.1,119.3,39.5,121,39.5z"/>
		<path class="st4" d="M26.3,159.1c0.8,0,1.4-0.6,1.4-1.4c0-0.8-0.6-1.4-1.4-1.4c-0.8,0-1.4,0.6-1.4,1.4
			C25,158.5,25.6,159.1,26.3,159.1z"/>
	</g>
</g>
</svg>
