<?xml version="1.0" encoding="utf-8"?>
<!-- Generator: Adobe Illustrator 25.2.0, SVG Export Plug-In . SVG Version: 6.00 Build 0)  -->
<svg version="1.1" id="Layer_1" xmlns="http://www.w3.org/2000/svg" xmlns:xlink="http://www.w3.org/1999/xlink" x="0px" y="0px"
	 viewBox="0 0 1340.4 180.7" style="enable-background:new 0 0 1340.4 180.7;" xml:space="preserve">
<style type="text/css">
	.st0{fill-rule:evenodd;clip-rule:evenodd;}
</style>
<path class="st0" d="M435.4,118.5h23.2c-2.6,12.8-15,19.1-27.2,19.1c-32,0-38.4-31.2-38.4-47.3c0-11.8-1.2-47.3,34.9-47.3
	c12.5,0,23,9.2,24.8,21.5H503C495.3,23.9,467.8,0,424.4,0c-38.4,0-84.1,24.1-84.1,90.2c0,66,44.8,90.3,81.4,90.3
	c18.6,0,36.7-6.5,48.4-21.8l1.7,17.6h33.2V81.6h-69.7L435.4,118.5L435.4,118.5L435.4,118.5z M594.5,117.2c0,20-10.7,24.1-18.8,24.1
	c-13.9,0-15.5-10.1-15.5-24.6V51.1h-47.2V137c0,28.7,20.3,42.4,42.5,42.4c18.9,0,31.5-6.5,40.4-19h0.4v15.9h45.6V51.1h-47.3V117.2
	L594.5,117.2z M964,64.9h-0.5C956.4,54.3,943.7,48,929.7,48c-41.5,0-52.8,35.7-52.8,65.1c0,31.3,17,66.3,52.1,66.3
	c20.5,0,30.3-8.9,36.3-16.9h0.5v13.7h45.9V4.1H964V64.9z M944.9,144.7c-16.9,0-20.8-16.2-20.8-31.1c0-14.7,3.8-30.9,20.8-30.9
	c16.9,0,20.8,16.2,20.8,30.9C965.7,128.5,961.8,144.7,944.9,144.7z M1020.4,37.6h47.2V4.1h-47.2V37.6z M1020.4,176.3h47.2V51.1
	h-47.2V176.3z M1202.1,97c0-36-16.3-49-60.8-49c-41.5,0-62.6,12.8-63.8,41h43.9c0.3-5.3,3.1-12.8,17.7-12.8
	c7.6,0,15.6,3.1,15.6,11.6c0,8-6.5,9.9-12.9,11.1c-24.1,4.6-69.9,3.1-69.9,42.7c0,26.3,19.8,37.8,43.7,37.8
	c15.2,0,29.9-3.4,39.9-14.9h0.5c0,3.2,1,9.3,1.7,11.8l50.4,0.1c-5.2-8-5.7-18.6-5.7-28L1202.1,97L1202.1,97L1202.1,97z
	 M1154.7,131.6c0,13.3-9.1,19.5-19.9,19.5c-8.6,0-14.8-4.1-14.8-11.1c0-8.4,5.5-11.6,16-14c6.4-1.4,12.6-3.4,18.7-6V131.6z
	 M776.2,97c0-36-16.3-49-60.8-49c-41.5,0-62.6,12.8-63.7,41h44c0.2-5.3,3.1-12.8,17.6-12.8c7.7,0,15.5,3.1,15.5,11.6
	c0,8-6.4,9.9-12.9,11.1c-24.1,4.6-69.9,3.1-69.9,42.7c0,26.3,19.8,37.8,43.7,37.8c15.3,0,29.9-3.4,39.9-14.9h0.5
	c0,3.2,1,9.3,1.7,11.8l50.4,0.1c-5.3-8-5.8-18.6-5.8-28L776.2,97L776.2,97z M728.7,131.6c0,13.3-9,19.5-19.8,19.5
	c-8.6,0-14.8-4.1-14.8-11.1c0-8.4,5.5-11.6,16-14c6.5-1.5,13.2-3.6,18.6-6V131.6z M1300.6,48c-18.9,0-34.2,6.5-43,19.1h-0.4V51.1
	h-45.6v125.1h47.3v-66c0-20,10.7-24.1,18.9-24.1c10.5,0,15.5,6.6,15.5,19.6v70.5h47.1v-89C1340.4,58.5,1322.8,48,1300.6,48
	L1300.6,48z M833.4,68.2c-0.8,1.3-1.5,2.7-2,4.1V51.1h-45.4v125.2h47.6v-49.4c0-22.2,10.6-37.9,28.1-37.9c4.5,0,10.3,1.8,12.7,3.2
	V48.6c-2.1-0.3-4-0.6-7.7-0.6C850.9,48,840.8,54.2,833.4,68.2z M141,23.4c2.1,4.4,2.3,14.8,1.3,22.5l4.9,0.9l12.4-41.4H13.1
	L0.5,45.9l4.6,1c5.1-9.6,13.2-21.1,20.9-27.1c7.6-5.9,19.5-8.5,31.1-8.5h17.5c0,0-38.4,137.8-38.4,137.7
	c-3.4,12.3-6.8,15.8-13.6,18.7c-4.6,2-14.2,3.1-21.2,3.1L0,176.3c12.9,0,27.6-0.9,39.8-0.9c19.5,0,28.2,0.9,42.7,0.9l1-5.6
	c-4.4-0.2-15.2-1.1-19.3-1.8c-7-1.1-9.3-4.2-9.3-8.2c0-3.3,1.2-8.5,2.8-14.2L95.7,11.2h14C126.9,11.2,136.6,14.4,141,23.4z
	 M225.5,48c-21.3,0-47.7,33.8-59.4,54.1h-0.5c1.6-4.9,4.7-14.7,8.7-27c4-12.3,13.5-43.2,22.1-70.1l-0.9-1.3
	c-10.4,1-20.8,1.6-31.2,1.9l-0.8,3.8c1.9,0.1,4.2,0.3,5.9,1c2.9,1,4.7,2.8,4.7,5.3c0,2.7-0.7,4.9-1.8,8.3
	c-2.2,7.2-34.2,107.5-45.1,142.1c-1.2,3.9-2.9,8.3-2.9,9.9c0,2.3,3.1,3.7,7.5,3.7c6.1,0,7.8-1.3,9-4.4c1.9-5.2,10-26.5,12-31.5
	C173.7,93,205.9,56.8,221,56.8c5.7,0,8.2,4.8,8.2,11.8c0,20.7-19,79.6-33.5,100.5c-1.9,2.7-3.5,4.3-6.1,4.3c-3,0-4.1-2.2-5.4-6.7
	c-1.1-3.8-3.9-7.2-9.2-7.2c-4.8,0-9.1,3.1-9.1,9.3c0,6.2,5.3,11.9,15.4,11.9c8.5,0,15.4-3.5,22.5-10c21.5-19.5,42.5-60.8,42.5-103.2
	C246.4,54.4,237.6,48,225.5,48L225.5,48z M331.3,67.8c0-12.4-6.4-19.7-22.9-19.7c-29.1,0-68.1,50-68.1,92.6
	c0,27.5,10.1,39.7,27.3,39.7c24,0,46.1-24.6,53.9-44.4l-4.8-2.1c-9,20-25.3,33.4-37.6,33.4c-12.1,0-19.2-10.2-19.2-28.2
	c0-5.7,1.5-14.1,4.2-23.4C303,110.3,331.3,91.5,331.3,67.8z M305.4,54.3c5.1,0,8.2,2.2,8.2,9.8c0,26.4-27.2,41.2-47.5,45.9
	C274.5,84.1,290.5,54.3,305.4,54.3L305.4,54.3z"/>
</svg>
