<?xml version="1.0" encoding="utf-8"?>
<!-- Generator: Adobe Illustrator 25.2.0, SVG Export Plug-In . SVG Version: 6.00 Build 0)  -->
<svg version="1.1" id="Layer_1" xmlns="http://www.w3.org/2000/svg" xmlns:xlink="http://www.w3.org/1999/xlink" x="0px" y="0px"
	 viewBox="0 0 1292.3 182.2" style="enable-background:new 0 0 1292.3 182.2;" xml:space="preserve">
<style type="text/css">
	.st0{fill:#0A9600;}
	.st1{fill:#3B445B;}
</style>
<g>
	<g>
		<path class="st0" d="M485.7,71.2v80.7h-29.5V71.2h-29.8V45.5h89v25.7H485.7z"/>
		<path class="st0" d="M584.3,119.8h-46.8c0.9,8.8,6.1,12.8,13.5,12.8c7,0,12.8-1.5,20.7-5.6l10.5,17.5c-9.9,5.8-20,9.1-32.5,9.1
			c-24,0-37.2-17-37.2-41.5c0-27.5,15.5-41.6,36.5-41.6c21.9,0,35.5,14.4,35.5,44C584.5,116.8,584.5,118.4,584.3,119.8z M548.2,90.6
			c-6.2,0-9.7,4.3-10.6,12.1h22.8C558.9,94.7,556.2,90.6,548.2,90.6z"/>
		<path class="st0" d="M635.2,153.5c-23.4,0-37.4-14.9-37.4-41.8c0-24.5,12.5-41.3,38-41.3c15,0,23.7,7,30.7,18.2l-18.8,14.3
			c-3.8-7-6.4-10.3-12.3-10.3c-7,0-10.5,7-10.5,19.6s3.8,19.1,11.2,19.1c5.2,0,8.8-2.9,13.8-10.3l17.3,13.5
			C658,148.2,649.3,153.5,635.2,153.5z"/>
		<path class="st0" d="M728.4,151.9v-45.3c0-10.3-3.5-13.1-9.1-13.1c-5.8,0-9.3,2.7-9.3,12.8v45.6h-27.3V52.1l27.3-11v36.3
			c5-3.8,10.6-7,20-7c17.5,0,25.8,11.7,25.8,32.7v48.8H728.4z"/>
		<path class="st1" d="M821.4,153.5c-31.6,0-48.5-23.4-48.5-54.8c0-34.2,20-54.8,48.6-54.8c26.1,0,36.5,11.2,43.7,31.3l-26.7,10.5
			c-3.8-9.9-7.4-16.1-17.2-16.1c-12.3,0-17.6,12.3-17.6,29.2c0,16.3,5.2,29.2,17.9,29.2c9.3,0,13.2-5,19-15l24.9,13.2
			C858.4,140,846.6,153.5,821.4,153.5z"/>
		<path class="st1" d="M932.8,102.2c-3.5-3.8-7.4-6.7-12.8-6.7c-6.7,0-10.8,3.2-10.8,12.9v43.4h-27.3V72.1h27.3v5.8
			c4.7-4.6,10-7.4,17-7.4c5.8,0,9.7,1.4,12.9,3.3L932.8,102.2z"/>
		<path class="st1" d="M997.8,151.9v-5.3c-4.9,3.8-10.6,7-19.9,7c-17.5,0-25.8-11.7-25.8-32.7V72.1h27.5v45.3
			c0,10.3,3.5,13.1,9.1,13.1s9.1-2.7,9.1-12.8V72.1h27.5v79.7h-27.5V151.9z"/>
		<path class="st1" d="M1090.7,151.9v-45.3c0-10.3-3.5-13.1-9.1-13.1c-5.8,0-9.3,2.7-9.3,12.8v45.6H1045V72.1h27.3v5.3
			c5-3.8,10.6-7,20-7c17.5,0,25.8,11.7,25.8,32.7v48.8L1090.7,151.9L1090.7,151.9z"/>
		<path class="st1" d="M1171.5,153.5c-23.4,0-37.4-14.9-37.4-41.8c0-24.5,12.5-41.3,38-41.3c15,0,23.7,7,30.7,18.2l-18.8,14.3
			c-3.8-7-6.4-10.3-12.3-10.3c-7,0-10.5,7-10.5,19.6s3.8,19.1,11.2,19.1c5.2,0,8.8-2.9,13.8-10.3l17.3,13.5
			C1194.3,148.2,1185.7,153.5,1171.5,153.5z"/>
		<path class="st1" d="M1264.8,151.9v-45.3c0-10.3-3.5-13.1-9.1-13.1c-5.8,0-9.3,2.7-9.3,12.8v45.6H1219V52.1l27.3-10.9v36.3
			c5-3.8,10.6-7,20-7c17.5,0,25.8,11.7,25.8,32.7V152h-27.3V151.9z"/>
	</g>
	<g>
		<polygon class="st0" points="0,0 0,60.7 60.7,60.7 60.7,182.2 121.5,182.2 121.5,60.7 182.2,60.7 182.2,0 		"/>
		<polygon class="st0" points="243,121.5 243,60.7 182.2,60.7 182.2,182.2 364.5,182.2 364.5,121.5 		"/>
		<rect x="243" y="0" class="st0" width="121.5" height="60.7"/>
	</g>
</g>
</svg>
