<?xml version="1.0" encoding="utf-8"?>
<!-- Generator: Adobe Illustrator 25.2.0, SVG Export Plug-In . SVG Version: 6.00 Build 0)  -->
<svg version="1.1" id="Layer_1" xmlns="http://www.w3.org/2000/svg" xmlns:xlink="http://www.w3.org/1999/xlink" x="0px" y="0px"
	 viewBox="0 0 1368.7 181.1" style="enable-background:new 0 0 1368.7 181.1;" xml:space="preserve">
<style type="text/css">
	.st0{fill:#048D52;}
	.st1{fill:#3B445B;}
</style>
<path class="st0" d="M5.4,158c-2.5-3.6,7.4-5.6,9.1-9.6c9-16.9-6.9-10-13.6-48.9C-12,25.9,113.9,25.9,130.6,23
	c15.4-2.7-0.2-23,11.9-23c4.2,0,0,10.5,4.2,12.1c4.2,1.5,6.7-9.6,10.9-6c5.8,4.9-5.6,9.4-2.5,12.5c2.1,2.3,7.5-1.9,9.3,1
	c3.1,4.7-5.4,7.8-13,9.1c-27.7,4.7,31.6,125.9-64.8,142.7c-25.5,4.7-37.4-17.7-56.3-6.7c-4.7,2.7-8.1,13-11,8.7
	c-1.8-2.7,2.9-6.9,0-8.7c-2-1.1-4.9,3.8-6.9,2s0.7-4.2-0.9-6C9.8,158.7,7,160.3,5.4,158L5.4,158z M42.8,57
	c15.4-11.2,44.5-20.3,38.4-20.1C60,37.4,16.6,55,14.8,81.8C14.2,90.3,27.8,68.2,43,57H42.8z M69.7,90.5c27.7-38,68.6-51.6,63.9-56.3
	c-5.6-5.6-30.2,2-30.2,2C65.1,49.7,23.6,74.9,20.8,106c-0.9,9.1,1.8,26.4,13.4,33.5C42.3,144.4,56.2,109.3,69.7,90.5L69.7,90.5z
	 M99.8,150.9c35.8-12.8,35.3-59.3,29.5-46.3s-9.6,23-22.1,30.2c-9.9,5.6-16.6,6.3-28.9,6c-10.1-0.2-19.2-8.3-22.1,4.2
	C53.3,158.8,86.8,155.6,99.8,150.9z M71,125.5c10.3,1.8,43.2-5.8,54.3-45c11.4-40.3,5.6-32.2-27.5,2c-17.7,18.5-31.8,42-26.7,42.9
	L71,125.5z"/>
<path class="st1" d="M262,178.3c-29.8,0-35.3-22.5-35.3-44.9v-24.1l-16.1,0.6V80.8l16.1,0.4V43.5l36.5-3.7v41.6l23.8-0.5V110
	l-23.7-0.8v23.5c0,10.6,3.1,14.5,10.8,14.5c4,0.2,8-0.7,11.6-2.5l8,25.3C290,172.4,283.7,178.3,262,178.3L262,178.3z M343,87.1
	c11.7-6.4,24.9-9.6,38.3-9.4c17.7,0,26.5,15.7,26.5,33.3v65.4h-36.5V132c0-16.1,0-27.1-13.1-27.1c-5.4,0.5-10.5,2.3-15.1,5.1v66.3
	h-36.7V23.5l36.7-2.7v66.5L343,87.1L343,87.1z M472.6,179.7c-32.9,0-52-22-52-55.1c0-29.6,25-48.8,56.3-48.8
	c27.7,0,49.2,19,49.2,49.4v7.9h-71.6c0,11.4,13.3,16.6,23.2,16.6c11.6,0,17.8-3,21.6-6.1l17.6,19.2C504.9,173.9,489,180,472.6,179.7
	L472.6,179.7z M477.1,102c-9,0-20.8,5.5-22.4,11.4h30c3.3,0,7.4,0,7.4-3C492.2,103.6,485.5,102,477.1,102L477.1,102z M674,181.1
	c-44.3,0-77.8-34.3-77.8-82.4c0.4-42.7,35.1-77.2,77.8-77.3c39.6,0,77.9,32.2,77.9,77.3C751.9,146.7,718.4,181.1,674,181.1z
	 M674,128.5c15.8-0.6,28.1-13.9,27.4-29.7v-0.1C700.4,83.5,687.2,72,672,73c-13.8,0.9-24.8,11.9-25.7,25.7
	c-0.7,15.8,11.6,29.2,27.4,29.8C673.9,128.5,674,128.5,674,128.5z M863.9,88.4V26.9l49.9-3.3v156.1l-96.5-66.5v62.4h-49.9V19.2
	L863.9,88.4z M934.5,175.7V26.9h50.2v148.9L934.5,175.7L934.5,175.7z M1078.3,181.1c-44.3,0-77.8-34.3-77.8-82.4
	c0.4-42.7,35.1-77.2,77.8-77.3c39.6,0,77.9,32.2,77.9,77.3C1156,146.7,1122.8,181.1,1078.3,181.1z M1078.3,128.5
	c15.8-0.6,28.1-13.9,27.4-29.7v-0.1c-1-15.2-14.2-26.7-29.4-25.7c-13.8,0.9-24.8,11.9-25.7,25.7c-0.7,15.8,11.6,29.2,27.4,29.8
	C1078.1,128.5,1078.2,128.5,1078.3,128.5z M1268.3,88.4V26.9l49.9-3.3v156.1l-96.5-66.5v62.4h-49.9V19.2L1268.3,88.4z M1338.6,38.6
	c0-8.3,6.8-15.1,15.1-15.1c8.3,0,15.1,6.8,15.1,15.1s-6.8,15.1-15.1,15.1c-8.3,0.1-15-6.6-15.1-14.8
	C1338.6,38.8,1338.6,38.7,1338.6,38.6z M1367,38.6c0-7.4-6-13.3-13.3-13.3c-7.4,0-13.3,6-13.3,13.3s6,13.3,13.3,13.3l0,0
	c7.3,0.1,13.3-5.8,13.3-13.1C1367,38.8,1367,38.7,1367,38.6z M1361.3,46.9h-2.5l-4.9-7.9h-3.7v7.9h-2.2V30.2h7.4
	c1.4-0.1,2.9,0.1,4.2,0.8c1.3,0.8,2,2.2,2,3.7c0.1,2.5-1.8,4.5-4.3,4.6c-0.3,0-0.7,0-1-0.1L1361.3,46.9z M1353.3,37.6
	c2.4,0,6.1,0.4,6.1-3.1c-0.2-1.9-1.9-3.2-3.8-3c-0.1,0-0.3,0-0.4,0.1h-4.9v6.2h3.1L1353.3,37.6z"/>
</svg>
