<?xml version="1.0" encoding="utf-8"?>
<!-- Generator: Adobe Illustrator 25.2.0, SVG Export Plug-In . SVG Version: 6.00 Build 0)  -->
<svg version="1.1" id="Layer_1" xmlns="http://www.w3.org/2000/svg" xmlns:xlink="http://www.w3.org/1999/xlink" x="0px" y="0px"
	 viewBox="0 0 739 157.1" style="enable-background:new 0 0 739 157.1;" xml:space="preserve">
<style type="text/css">
	.st0{fill:#F94A2B;}
</style>
<path class="st0" d="M0.9,54.4c3.2-1.6,7.8-2.2,11.9-2.2h8.6v71.7c0,3.6-0.9,7.9-3.7,10.2H58V20H0.9V54.4z M161.8,30.2v93.6
	c0,3.6-0.8,7.3-3.5,10.2h70.8V98.5c-4.9,2.2-11,3.4-16.8,3.4h-15.4V90.2h8.1c4.4,0,8.3,0.4,12.4,2.2V61.7c-4.2,1.8-8.1,2.2-12.4,2.2
	h-8.1V50.7h15.4c5.9,0,11.9,1.1,16.8,3.4V20h-71C160.9,22.4,161.8,26.7,161.8,30.2L161.8,30.2z M309.6,82.9l-11.7-32.2h17.6
	L327.2,20h-81.9c2.5,2.6,5,5.5,6.7,8.9l45.3,105.2H322l37.3-87.8v77.5c0,3.7-0.9,7.9-3.7,10.2h71V98.5c-4.8,2.2-11,4.8-16.8,4.8
	h-15.4V90.2h8.1c4.4,0,8.3,0.4,12.4,2.2V61.7c-4.2,1.8-8.1,2.2-12.4,2.2h-8.1V52.2h15.4c5.9,0,12,1.1,16.8,3.4V20H333L309.6,82.9
	L309.6,82.9z M119.4,63.9h-19V52.2h1.5c4,0,8.6,0.7,11.7,2.2V20H63.8v114.1H104c-2.8-2.4-3.7-6.7-3.7-10.2V91.7h19v32.2
	c0,3.6-0.9,7.9-3.7,10.2H156V20h-36.6V63.9z M505,82.6c6.1-6.7,9.8-15.6,9.8-24.5c0-26.3-19.6-38.1-40.6-38.1h-45.3
	c2.7,2.4,3.7,6.6,3.7,10.2v93.7c0,3.5-1,7.4-3.7,10.2h43.6c-2.8-2.9-3.4-6.9-3.4-10.2v-23.3c12.5,2.4,20.8,14,20.8,23.3
	c0,3.5-0.8,7.3-3.6,10.2h43.5c-2.8-2.9-3.4-7.1-3.7-10.6C524.7,103.4,517.8,89.2,505,82.6L505,82.6z M469.1,71.4V50.6
	c5.9,0,13.3,1.6,13.3,10.4S475,71.4,469.1,71.4L469.1,71.4z M674.7,50.7c5.9,0,11.9,1.1,16.8,3.4V20h-71c2.8,2.4,3.7,6.7,3.7,10.2
	v93.6c0,3.6-0.8,7.3-3.5,10.2h70.8V98.5c-4.9,2.2-11,3.4-16.8,3.4h-15.4V90.2h8.1c4.4,0,8.3,0.4,12.4,2.2V61.7
	c-4.2,1.8-8.1,2.2-12.4,2.2h-8.1V50.7H674.7L674.7,50.7z M618.3,110.3V63.9h-43.8c-2.2,0-4.8-0.2-7.4-1v28.4c2.6-0.8,5.1-1,7.4-1
	h11.6V99c-1.4,1.3-4.5,2-7.8,2c-13.3,0-23.1-10.5-23.1-23.3s9.5-24.2,22.8-24.2c8.1,0,17.1,2.6,27.1,7.3V20h-29.3
	c-31.6,0-56.8,24.4-56.8,57.5c0,32.3,25.3,59.6,58.2,59.6c18.1,0,35-7.4,43.8-16.4C619.5,117.4,618.3,114.2,618.3,110.3L618.3,110.3
	z"/>
</svg>
