<?xml version="1.0" encoding="utf-8"?>
<!-- Generator: Adobe Illustrator 25.2.0, SVG Export Plug-In . SVG Version: 6.00 Build 0)  -->
<svg version="1.1" id="Layer_1" xmlns="http://www.w3.org/2000/svg" xmlns:xlink="http://www.w3.org/1999/xlink" x="0px" y="0px"
	 viewBox="0 0 421 167.1" style="enable-background:new 0 0 421 167.1;" xml:space="preserve">
<style type="text/css">
	.st0{fill:#FF4422;}
</style>
<path class="st0" d="M165.3,48c-6.4-6.4-15-10-24.2-10H91.2v91.2h34.2v-57h11c2.9,0,5.9,1.1,8,3.4l11.8,11.8c2.1,2.1,3.4,5,3.4,8
	v33.7h34.2V90.6c0-9.1-3.7-17.8-10-24.2C183.8,66.5,165.3,48,165.3,48z M342.1,38v33.7c0,2.9-1.1,5.9-3.4,8l-11.8,11.8
	c-2.1,2.1-5,3.4-8,3.4h-16.5c3.4-5.5,5.5-11.8,5.5-18.4V38h-34.2v33.7c0,2.9-1.1,5.9-3.4,8l-11.8,11.8c-2.1,2.1-5,3.4-8,3.4h-11V38
	h-34.2v91.2h49.9c9.1,0,17.8-3.7,24.2-10l11.4-11.4v21.5h32.9c9.1,0,17.8-3.7,24.2-10l18.4-18.4c6.4-6.4,10-15.1,10-24.2V38H342.1z
	 M0,72.2h22.8v57H57v-57h22.8V38H0V72.2z"/>
</svg>
