<?xml version="1.0" encoding="utf-8"?>
<!-- Generator: Adobe Illustrator 23.0.1, SVG Export Plug-In . SVG Version: 6.00 Build 0)  -->
<svg version="1.1" id="Layer_1" xmlns="http://www.w3.org/2000/svg" xmlns:xlink="http://www.w3.org/1999/xlink" x="0px" y="0px"
	 viewBox="0 0 733 500" style="enable-background:new 0 0 733 500;" xml:space="preserve">
<style type="text/css">
	.st0{fill:#FCF1DE;}
	
		.st1{opacity:0.5;clip-path:url(#XMLID_3_);fill:none;stroke:#1A2E35;stroke-linecap:round;stroke-linejoin:round;stroke-miterlimit:10;}
	
		.st2{opacity:0.5;clip-path:url(#XMLID_4_);fill:none;stroke:#1A2E35;stroke-linecap:round;stroke-linejoin:round;stroke-miterlimit:10;}
	
		.st3{opacity:0.5;clip-path:url(#XMLID_5_);fill:none;stroke:#1A2E35;stroke-linecap:round;stroke-linejoin:round;stroke-miterlimit:10;}
	.st4{fill:#FFFFFF;stroke:#1A2E35;stroke-linecap:round;stroke-linejoin:round;stroke-miterlimit:10;}
	.st5{fill:none;stroke:#1A2E35;stroke-linecap:round;stroke-linejoin:round;stroke-miterlimit:10;}
	.st6{fill:#757575;stroke:#1A2E35;stroke-linecap:round;stroke-linejoin:round;stroke-miterlimit:10;}
	.st7{fill:#999999;stroke:#1A2E35;stroke-linecap:round;stroke-linejoin:round;stroke-miterlimit:10;}
	.st8{opacity:0.3;clip-path:url(#XMLID_6_);fill:#FFFFFF;}
	.st9{opacity:0.2;clip-path:url(#XMLID_6_);}
	.st10{opacity:0.3;clip-path:url(#XMLID_7_);fill:#FFFFFF;}
	.st11{opacity:0.2;clip-path:url(#XMLID_7_);}
	.st12{opacity:0.2;clip-path:url(#XMLID_8_);fill-opacity:0.7;}
	.st13{opacity:0.2;clip-path:url(#XMLID_8_);}
	.st14{fill:#FFFFFF;}
	.st15{fill:#FFCB39;stroke:#1A2E35;stroke-linecap:round;stroke-linejoin:round;stroke-miterlimit:10;}
	.st16{opacity:0.3;clip-path:url(#XMLID_9_);fill:#FFCB39;}
	.st17{fill:#BFBFBF;stroke:#1A2E35;stroke-miterlimit:10;}
	.st18{opacity:0.4;fill:#FFCB39;}
	.st19{fill:#1A2E35;}
	.st20{opacity:0.3;fill:none;stroke:#FFFFFF;stroke-linecap:round;stroke-linejoin:round;stroke-miterlimit:10;}
	.st21{opacity:0.2;clip-path:url(#XMLID_10_);fill:#FFFFFF;}
	.st22{opacity:0.4;clip-path:url(#XMLID_10_);fill-opacity:0.7;}
	.st23{opacity:0.2;clip-path:url(#XMLID_10_);fill-opacity:0.7;}
	.st24{opacity:0.2;clip-path:url(#XMLID_11_);fill-opacity:0.7;}
</style>
<g id="Background_Simple">
</g>
<g id="Kitchen">
</g>
<g id="Dishes">
</g>
<g id="Character">
</g>
<g id="Picture">
</g>
<rect y="0.6" class="st0" width="733" height="499.4"/>
<g>
	<g>
		<g>
			<defs>
				<path id="XMLID_165_" d="M393.3,191.1c0,0,13.6-15.6,33.5-15.6c0,0,0.7-12.1,14.2-14.7s16.2,9.5,16.2,9.5s10-5.3,23.5,0
					c13.5,5.3,10.7,20.8,10.7,20.8s38.8-1.3,45.5,5.8h-89.3h-85.2C362.4,196.9,366,188.2,393.3,191.1z"/>
			</defs>
			<clipPath id="XMLID_3_">
				<use xlink:href="#XMLID_165_"  style="overflow:visible;"/>
			</clipPath>
			<path class="st1" d="M393.3,191.1c0,0,13.6-15.6,33.5-15.6c0,0,0.7-12.1,14.2-14.7s16.2,9.5,16.2,9.5s10-5.3,23.5,0
				c13.5,5.3,10.7,20.8,10.7,20.8s38.8-1.3,45.5,5.8h-89.3h-85.2C362.4,196.9,366,188.2,393.3,191.1z"/>
			
				<use xlink:href="#XMLID_165_"  style="overflow:visible;fill:none;stroke:#1A2E35;stroke-linecap:round;stroke-linejoin:round;stroke-miterlimit:10;"/>
		</g>
		<g>
			<defs>
				<path id="XMLID_164_" d="M559.5,293.5c0,0-10.9-12.5-26.7-12.5c0,0-0.5-9.7-11.3-11.8c-10.8-2.1-12.9,7.6-12.9,7.6
					s-8-4.2-18.7,0c-10.7,4.2-8.6,16.6-8.6,16.6s-31-1-36.3,4.7h71.2h67.9C584.1,298.1,581.3,291.2,559.5,293.5z"/>
			</defs>
			<clipPath id="XMLID_4_">
				<use xlink:href="#XMLID_164_"  style="overflow:visible;"/>
			</clipPath>
			<path class="st2" d="M559.5,293.5c0,0-10.9-12.5-26.7-12.5c0,0-0.5-9.7-11.3-11.8c-10.8-2.1-12.9,7.6-12.9,7.6s-8-4.2-18.7,0
				c-10.7,4.2-8.6,16.6-8.6,16.6s-31-1-36.3,4.7h71.2h67.9C584.1,298.1,581.3,291.2,559.5,293.5z"/>
			
				<use xlink:href="#XMLID_164_"  style="overflow:visible;fill:none;stroke:#1A2E35;stroke-linecap:round;stroke-linejoin:round;stroke-miterlimit:10;"/>
		</g>
		<g>
			<defs>
				<path id="XMLID_163_" d="M190.3,220c0,0,6.5-7.4,15.9-7.4c0,0,0.3-5.7,6.7-7c6.4-1.2,7.7,4.5,7.7,4.5s4.7-2.5,11.1,0
					c6.4,2.5,5.1,9.9,5.1,9.9s18.4-0.6,21.5,2.8H216h-40.4C175.7,222.7,177.4,218.6,190.3,220z"/>
			</defs>
			<clipPath id="XMLID_5_">
				<use xlink:href="#XMLID_163_"  style="overflow:visible;"/>
			</clipPath>
			<path class="st3" d="M190.3,220c0,0,6.5-7.4,15.9-7.4c0,0,0.3-5.7,6.7-7c6.4-1.2,7.7,4.5,7.7,4.5s4.7-2.5,11.1,0
				c6.4,2.5,5.1,9.9,5.1,9.9s18.4-0.6,21.5,2.8H216h-40.4C175.7,222.7,177.4,218.6,190.3,220z"/>
			
				<use xlink:href="#XMLID_163_"  style="overflow:visible;fill:none;stroke:#1A2E35;stroke-linecap:round;stroke-linejoin:round;stroke-miterlimit:10;"/>
		</g>
	</g>
	<g>
		<path class="st4" d="M148.9,500.6c0,0,8.7-17,28.5-13.8c0,0,2.8-7.5,11.5-6.3c0,0-5.1-14.2,8.3-24.9c13.5-10.7,31.7-1.6,31.7-1.6
			s-1.1-8,6.3-10.9l115.1,3.8c0,0,12.6,3.5,15.4,15.4c0,0,11.1-6.3,24.9,0c13.8,6.3,13.8,22.2,13.8,22.2s15.7-1.6,17,19.9
			c0,0,9.9-12.5,24.5,0"/>
		<path class="st5" d="M184.9,507.4c-0.3,0.6-0.6,1.3-0.8,2"/>
		<path class="st5" d="M231.5,468c-3.3,1.3-6.6,3.9-9.1,8.9c0,0-6.7-2.9-10.3,2.4c-3.6,5.1,2.4,10.7,2.4,10.7s-8.3,1.6-8.7,9.1
			c0,0-8.5-2.4-15.2,1.7"/>
		<path class="st5" d="M239,466.9c-1.2-0.1-2.6,0-4,0.2"/>
		<path class="st5" d="M315.5,451.8l-2.7-8.8h-39.7l-6.8,15.3c0,0-17.3-5.1-20.9,9.9c0,0-0.6-0.2-1.6-0.5"/>
		<path class="st5" d="M365.9,474.6c-5.3,3.2-6.6,9.4-6.6,9.4c-4.7-7.9-12.7-3.2-12.7-3.2s-1.2-13.8-10.3-19
			c-9.1-5.1-18.4-2.1-18.4-2.1l-1.6-5.2"/>
		<path class="st5" d="M399.3,500.8c-2.9-2.7-7.2-2.5-7.2-2.5s5.1-19.4-12.3-24.5c-5.2-1.5-9.1-1.2-12.1-0.1"/>
		<path class="st5" d="M402,507.4c0-1.2-0.2-2.2-0.4-3.1"/>
		<g>
			<polygon class="st6" points="352.9,446.9 312.8,446.9 322.8,428.2 342.9,428.2 			"/>
			<polygon class="st6" points="268.9,446.9 228.8,446.9 238.8,428.2 258.9,428.2 			"/>
		</g>
		<polygon class="st7" points="317.9,446.9 263.8,446.9 273.8,428.2 307.9,428.2 		"/>
		<g>
			<g>
				<defs>
					<path id="XMLID_160_" d="M350.2,429.5h-34.7V246.5c0-21.4,6-42.4,17.4-60.5v0l0,0c11.4,18.1,17.4,39.1,17.4,60.5V429.5z"/>
				</defs>
				<use xlink:href="#XMLID_160_"  style="overflow:visible;fill:#FFCB39;"/>
				<clipPath id="XMLID_6_">
					<use xlink:href="#XMLID_160_"  style="overflow:visible;"/>
				</clipPath>
				<path class="st8" d="M350.1,241.6c0.1,1.6,0.1,3.2,0.1,4.9v183.1h-34.7V246.5c0-1.6,0-3.3,0.1-4.9H350.1z"/>
				<path class="st9" d="M326.8,247.8v181.7h-11.3V246.5c0-13.5,2.4-26.9,7-39.5C325.4,220.4,326.8,234.1,326.8,247.8z"/>
				<path class="st9" d="M350.3,246.5v183.1h-4.7V248.4c0-21.5-4.3-42.7-12.7-62.5c5.7,9.1,10,18.8,12.9,29
					C348.8,225.2,350.3,235.8,350.3,246.5z"/>
				
					<use xlink:href="#XMLID_160_"  style="overflow:visible;fill:none;stroke:#1A2E35;stroke-linecap:round;stroke-linejoin:round;stroke-miterlimit:10;"/>
			</g>
			<g>
				<defs>
					<path id="XMLID_161_" d="M266.2,429.5h-34.7V246.5c0-21.4,6-42.4,17.4-60.5v0l0,0c11.4,18.1,17.4,39.1,17.4,60.5V429.5z"/>
				</defs>
				<use xlink:href="#XMLID_161_"  style="overflow:visible;fill:#FFCB39;"/>
				<clipPath id="XMLID_7_">
					<use xlink:href="#XMLID_161_"  style="overflow:visible;"/>
				</clipPath>
				<path class="st10" d="M266.1,241.2c0.1,1.8,0.1,3.5,0.1,5.3v183.1h-34.7V246.5c0-1.8,0.1-3.5,0.1-5.3H266.1z"/>
				<path class="st11" d="M261.8,215c2.9,10.2,4.4,20.8,4.4,31.5v183.1H255V247.8c0-8.1,0.5-16.1,1.5-24.1
					c0.7-5.6,1.6-11.1,2.8-16.7C260.2,209.6,261.1,212.3,261.8,215z"/>
				<path class="st11" d="M248.9,186c-8.4,19.8-12.7,41-12.7,62.5v181.1h-4.7V246.5C231.5,225.1,237.5,204.1,248.9,186z"/>
				
					<use xlink:href="#XMLID_161_"  style="overflow:visible;fill:none;stroke:#1A2E35;stroke-linecap:round;stroke-linejoin:round;stroke-miterlimit:10;"/>
			</g>
			<line class="st5" x1="350.1" y1="241.4" x2="315.9" y2="241.4"/>
			
				<rect x="315.5" y="277.6" transform="matrix(-1 -1.224647e-16 1.224647e-16 -1 665.7536 557.7499)" class="st5" width="34.7" height="2.6"/>
			
				<rect x="315.5" y="347.5" transform="matrix(-1 -1.224647e-16 1.224647e-16 -1 665.6393 701.5281)" class="st5" width="34.6" height="6.6"/>
			<line class="st5" x1="231.6" y1="241.4" x2="265.8" y2="241.4"/>
			<rect x="231.5" y="277.6" class="st5" width="34.7" height="2.6"/>
			<rect x="231.6" y="347.5" class="st5" width="34.6" height="6.6"/>
		</g>
		<g>
			<g>
				<defs>
					<path id="XMLID_162_" d="M315.9,429.5h-50.1V165.7c0-30.8,8.7-61,25-87.2v0l0,0c16.4,26.1,25,56.4,25,87.2V429.5z"/>
				</defs>
				<use xlink:href="#XMLID_162_"  style="overflow:visible;fill:#FFCB39;"/>
				<clipPath id="XMLID_8_">
					<use xlink:href="#XMLID_162_"  style="overflow:visible;"/>
				</clipPath>
				<path class="st12" d="M315.4,153.4h-49.1c2-26.5,10.4-52.2,24.6-74.8c8.2,13.1,14.4,27.2,18.6,41.8
					C312.6,131.1,314.6,142.2,315.4,153.4z"/>
				<g class="st13">
					<path class="st14" d="M300,429.5h-18.2V173.9c0-29.9,3.2-59.2,9.1-84.5l0,0l0,0c5.9,25.3,9.1,54.6,9.1,84.5V429.5z"/>
				</g>
				<path class="st13" d="M315.4,387v42.5h-49.1v-42.3c3.1-3.1,4.8-5.8,4.8-5.8s0-40.8,0-58.3c0-20.2,8-31.3,19.8-31.3
					s19.8,11.1,19.8,31.3c0,17.6,0,58.3,0,58.3S312.3,384,315.4,387z"/>
				
					<use xlink:href="#XMLID_162_"  style="overflow:visible;fill:none;stroke:#1A2E35;stroke-linecap:round;stroke-linejoin:round;stroke-miterlimit:10;"/>
			</g>
			<rect x="265.8" y="196.9" class="st5" width="50.1" height="6.7"/>
			<rect x="265.8" y="255.4" class="st5" width="50.1" height="24.7"/>
			<rect x="265.8" y="372.7" class="st5" width="50.1" height="20"/>
		</g>
		<g>
			<g>
				<path class="st15" d="M308.7,383.9v-27.2h-5.5v22.1v14.9v29.6h27.4v-12.4c0-3.2-1.5-6.2-4.1-8.1l-13.1-9.5
					C310.5,391,308.7,387.6,308.7,383.9z"/>
				<path class="st15" d="M273.1,383.9v-27.2h5.5v22.1v14.9v29.6h-27.4v-12.4c0-3.2,1.5-6.2,4.1-8.1l13.1-9.5
					C271.3,391,273.1,387.6,273.1,383.9z"/>
			</g>
			<line class="st5" x1="251.2" y1="417.4" x2="330.6" y2="417.4"/>
			<polygon class="st15" points="299.6,429.5 282.1,429.5 279.1,420.8 302.6,420.8 			"/>
			<g>
				<defs>
					<path id="XMLID_1_" d="M308.8,323.1v100.1h-35.6V323.1c0-7,1.7-13.9,4.8-20.1c1.3-2.5,2.8-4.9,4.5-7.2c2.1-2.8,5.3-4.1,8.5-4.1
						c3.2,0,6.3,1.4,8.5,4.1c1.8,2.3,3.3,4.7,4.5,7.2c0.9,1.8,1.7,3.7,2.4,5.7C308,313.3,308.8,318.2,308.8,323.1z"/>
				</defs>
				<use xlink:href="#XMLID_1_"  style="overflow:visible;fill:#FFFFFF;"/>
				<clipPath id="XMLID_9_">
					<use xlink:href="#XMLID_1_"  style="overflow:visible;"/>
				</clipPath>
				<path class="st16" d="M308.7,323.1v100.1h-8.8v-97.5c0-4.8-0.4-9.6-1.2-14.1c-0.3-1.9-0.7-3.7-1.2-5.5c-0.6-2.5-1.4-4.8-2.3-7
					c-1.1-2.7-2.6-4.1-4.2-4.1c-1.6,0-3.2,1.4-4.2,4.1c-0.9,2.2-1.6,4.5-2.3,7c-1.6,6-2.4,12.7-2.4,19.6v97.5h-9V323.1
					c0-7,1.6-13.9,4.8-20.1c1.3-2.5,2.8-4.9,4.5-7.2c2.1-2.8,5.3-4.1,8.5-4.1s6.3,1.4,8.5,4.1c1.8,2.3,3.3,4.7,4.5,7.2
					c0.9,1.8,1.7,3.7,2.4,5.7C307.9,313.3,308.7,318.2,308.7,323.1z"/>
				
					<use xlink:href="#XMLID_1_"  style="overflow:visible;fill:none;stroke:#1A2E35;stroke-linecap:round;stroke-linejoin:round;stroke-miterlimit:10;"/>
			</g>
			<path class="st14" d="M298.4,322c-2.9-8.9-12.1-8.9-15,0c-1.1-0.7-2.2-1.4-3.3-2c4.2-12.7,17.3-12.7,21.5,0
				C300.5,320.6,299.5,321.3,298.4,322z"/>
			<path class="st17" d="M298.4,322c-2.9-8.9-12.1-8.9-15,0c-1.1-0.7-2.2-1.4-3.3-2c4.2-12.7,17.3-12.7,21.5,0
				C300.5,320.6,299.5,321.3,298.4,322z"/>
			<path class="st15" d="M303.9,303h-26c1.3-2.5,2.8-4.9,4.5-7.2c2.1-2.8,5.3-4.1,8.5-4.1c3.2,0,6.3,1.4,8.5,4.1
				C301.1,298.1,302.6,300.5,303.9,303z"/>
		</g>
	</g>
	<g>
		<g>
			<path class="st14" d="M435.4,408.2c0.4,16-7.5,14.7-7.5,14.7c-0.5-1.3-1.6-3.1-3-5.3c-4.1-6.4-10.5-15.3-8.1-20.6
				c1.1-2.4,3.1-5.8,5.3-9.1c4.2-6.5,9.1-13.1,9.1-13.1l-21.1-3.5c0,0-15,6.2-26.9,6.9c-0.3,0-0.6,0-0.9,0c-10.8,0.2-9.1-8.3-9.1-11
				c0-1.2,2.9-3.3,6.4-5.4c4.9-3,10.8-6,10.8-6l-3.2-6.6c-2.2,0.4-4.1,0.5-5.6,0.3c-8.2-0.9-7.1-9-5.8-12.5c0.4-1,2.3-2.5,4.9-4.3
				c8.5-5.6,24.6-13.3,24.6-13.3h23.7l23.4,63.7C452.4,383.2,435,392.3,435.4,408.2z"/>
			<path class="st18" d="M435.4,408.2c0.4,16-7.5,14.7-7.5,14.7c-0.5-1.3-1.6-3.1-3-5.3c-4.1-6.4-10.5-15.3-8.1-20.6
				c1.1-2.4,3.1-5.8,5.3-9.1c4.2-6.5,9.1-13.1,9.1-13.1l-21.1-3.5c0,0-15,6.2-26.9,6.9c-0.3,0-0.6,0-0.9,0c-10.8,0.2-9.1-8.3-9.1-11
				c0-1.2,2.9-3.3,6.4-5.4c4.9-3,10.8-6,10.8-6l-3.2-6.6c-2.2,0.4-4.1,0.5-5.6,0.3c-8.2-0.9-7.1-9-5.8-12.5c0.4-1,2.3-2.5,4.9-4.3
				c8.5-5.6,24.6-13.3,24.6-13.3h23.7l23.4,63.7C452.4,383.2,435,392.3,435.4,408.2z"/>
			<path class="st18" d="M435.4,408.2c0.4,16-7.5,14.7-7.5,14.7c-0.5-1.3-1.6-3.1-3-5.3c0.3-1.5,0.5-3.1,0.4-4.6
				c-0.1-5.5-4.6-15.9-4.6-15.9l4.6-7.3c-0.7-0.7-1.8-1.3-3.2-1.9c4.2-6.5,9.1-13.1,9.1-13.1l-21.1-3.5c0,0-15,6.2-26.9,6.9
				c-0.3,0-0.6,0-0.9,0c0.7-5.9-1.7-13.4-2.7-16.4c4.9-3,10.8-6,10.8-6l-3.2-6.6c-2.2,0.4-4.1,0.5-5.6,0.3c1.1-5.2,0-12.4-0.8-16.8
				c8.5-5.6,24.6-13.3,24.6-13.3h23.7l23.4,63.7C452.4,383.2,435,392.3,435.4,408.2z"/>
			<g>
				<path class="st5" d="M429.1,319.5h-23.7c0,0-28,13.4-29.6,17.6c-1.6,4.2-2.9,14.8,11.4,12.2l3.2,6.6c0,0-17.2,8.5-17.2,11.4
					s-1.9,11.7,10,11c11.9-0.7,26.9-6.9,26.9-6.9l21.1,3.5c0,0-11.2,15.2-14.4,22.2c-3.2,7,9.1,20.5,11.1,25.8c0,0,7.9,1.3,7.5-14.7
					s17-25,17-25"/>
				<path class="st5" d="M423.4,394.2c0,0,5.9-3.3,9.2,2.8"/>
			</g>
		</g>
		<g>
			<g>
				<path class="st19" d="M435,272.6h-4.7v-48.7c0-0.7,0.5-1.2,1.2-1.2h2.3c0.7,0,1.2,0.5,1.2,1.2V272.6z"/>
				<rect x="431.2" y="170.2" class="st19" width="2.9" height="54.8"/>
				<rect x="430.7" y="164.8" class="st6" width="3.8" height="7.4"/>
				<g>
					<line class="st20" x1="431.7" y1="259.8" x2="431.7" y2="260.8"/>
					<polyline class="st20" points="433.6,224.1 431.7,224.1 431.7,257.4 					"/>
					<line class="st20" x1="432.4" y1="205.5" x2="432.4" y2="207.4"/>
					<line class="st20" x1="432.4" y1="173.9" x2="432.4" y2="201.7"/>
				</g>
			</g>
			<g>
				<defs>
					<path id="XMLID_159_" d="M473.7,378.2h-82.1c-3,0-5.4-2.4-5.4-5.4v-97.5c0-3,2.4-5.4,5.4-5.4h82.1c3,0,5.4,2.4,5.4,5.4v97.5
						C479.1,375.8,476.7,378.2,473.7,378.2z"/>
				</defs>
				<use xlink:href="#XMLID_159_"  style="overflow:visible;fill:#757575;"/>
				<clipPath id="XMLID_10_">
					<use xlink:href="#XMLID_159_"  style="overflow:visible;"/>
				</clipPath>
				<path class="st21" d="M389.5,358.8v-82.4c0-2.1,1.7-3.9,3.9-3.9h75.5c0.3,0,0.6-0.2,0.8-0.5l0,0c0.3-0.6-0.1-1.4-0.8-1.4h-76.9
					c-2.5,0-4.4,2-4.4,4.4V359c0,0.9,1.1,1.3,1.6,0.6l0.2-0.2C389.4,359.2,389.5,359,389.5,358.8z"/>
				<path class="st22" d="M479.1,275.3v97.5c0,3-2.4,5.4-5.4,5.4h-82.1c-1.3,0-2.5-0.5-3.5-1.3c2.3-1.7,4.6-2.5,4.6-2.5l31.3,0
					l47.8,0c2.2,0,4-1.8,4-4v-93.2c1-1.8,2-3.1,3-3.9C479,274,479.1,274.6,479.1,275.3z"/>
				<path class="st23" d="M479.1,350.6v22.2c0,3-2.4,5.4-5.4,5.4h-49.2l-0.6-3.7c0.4-1.6,0-8.4,0-8.4c-3.2-8.4,0-21.1,0-21.1
					l19.9-12.3c0,0,13.4,7.3,15.9,10c2.6,2.7,4.6,19.6,4.6,19.6c2.6-0.6,7.3-4.5,11.5-8.5C476.9,352.8,478.1,351.6,479.1,350.6z"/>
				
					<use xlink:href="#XMLID_159_"  style="overflow:visible;fill:none;stroke:#1A2E35;stroke-linecap:round;stroke-linejoin:round;stroke-miterlimit:10;"/>
			</g>
			<g>
				<line class="st5" x1="475.8" y1="357.6" x2="475.8" y2="360.6"/>
				<path class="st5" d="M420.8,273.6H472c2.1,0,3.7,1.7,3.7,3.7v76.4"/>
				<path class="st5" d="M389.5,290.7v-13.4c0-2.1,1.7-3.7,3.7-3.7h16.4"/>
				<line class="st5" x1="389.5" y1="299.8" x2="389.5" y2="297.2"/>
				<path class="st5" d="M405.9,374.5h-12.7c-2.1,0-3.7-1.7-3.7-3.7v-66"/>
				<path class="st5" d="M475.8,370.8c0,2.1-1.7,3.7-3.7,3.7h-62.4"/>
			</g>
			<g>
				<g>
					<defs>
						<circle id="XMLID_158_" cx="432.6" cy="332.7" r="18.8"/>
					</defs>
					<use xlink:href="#XMLID_158_"  style="overflow:visible;fill:#FFCB39;"/>
					<clipPath id="XMLID_11_">
						<use xlink:href="#XMLID_158_"  style="overflow:visible;"/>
					</clipPath>
					<path class="st24" d="M451.5,332.7c0,10.4-8.4,18.8-18.8,18.8c-5,0-9.5-1.9-12.8-5c0.5-1,1.3-2.1,2.7-3.2
						c0,0,10.9,9.3,20.8-0.6c7.5-7.5,1-18.6,1-18.6s1-1.1,4-1.6C450.3,325.4,451.5,328.9,451.5,332.7z"/>
					<path class="st24" d="M421.6,337c-0.4,0.2-0.8,0.1-1.1-0.4c-0.2-0.3-0.3-0.7-0.4-1.1c-1.3-8,2.9-15.6,11.5-16.3
						c1.6-0.1,5.7,0,5.1,2.6c-0.2,0.8-0.8,1.5-1.5,2c-2.4,1.7-5,3.2-7.3,5.2c-1.1,1-2.2,2.1-3,3.4C424.4,332.9,423,336.4,421.6,337z
						"/>
					
						<use xlink:href="#XMLID_158_"  style="overflow:visible;fill:none;stroke:#1A2E35;stroke-linecap:round;stroke-linejoin:round;stroke-miterlimit:10;"/>
				</g>
				<path class="st5" d="M418,332.7c0-8.1,6.5-14.6,14.6-14.6"/>
				<path class="st5" d="M428.8,346.8c-5.3-1.4-9.4-5.7-10.5-11.2"/>
				<path class="st5" d="M442,321.5c3.2,2.7,5.3,6.7,5.3,11.2c0,8.1-6.5,14.6-14.6,14.6"/>
				<path class="st5" d="M435.6,318.4c1.2,0.3,2.4,0.7,3.5,1.2"/>
			</g>
			<g>
				<path class="st14" d="M419.2,290.2c1.9,0,2.9,1.2,2.9,3.2v0.4h-1.9v-0.5c0-0.9-0.4-1.3-1-1.3c-0.6,0-1,0.3-1,1.3
					c0,0.9,0.4,1.6,1.7,2.8c1.7,1.5,2.2,2.5,2.2,4c0,2-1,3.2-3,3.2c-2,0-3-1.2-3-3.2v-0.8h1.9v0.9c0,0.9,0.4,1.2,1,1.2
					c0.6,0,1-0.3,1-1.2c0-0.9-0.4-1.6-1.7-2.8c-1.7-1.5-2.2-2.5-2.2-4C416.3,291.4,417.3,290.2,419.2,290.2z"/>
				<path class="st14" d="M422.7,290.4h6.2v1.8h-2.1v10.9h-2v-10.9h-2.1V290.4z"/>
				<path class="st14" d="M435.5,303.1h-2l-0.3-2.3h-2.4l-0.3,2.3h-1.8l2-12.7h2.9L435.5,303.1z M431,299h1.9l-0.9-6.4h0L431,299z"
					/>
				<path class="st14" d="M440.6,303.1c-0.1-0.3-0.2-0.5-0.2-1.6v-2c0-1.2-0.4-1.6-1.3-1.6h-0.7v5.2h-2v-12.7h3c2.1,0,3,1,3,2.9v1
					c0,1.3-0.4,2.1-1.3,2.6v0c1,0.4,1.3,1.4,1.3,2.7v2c0,0.6,0,1.1,0.2,1.5H440.6z M438.4,292.2v3.9h0.8c0.7,0,1.2-0.3,1.2-1.3v-1.3
					c0-0.9-0.3-1.3-1-1.3H438.4z"/>
				<path class="st14" d="M443.1,290.4h6.2v1.8h-2.1v10.9h-2v-10.9h-2.1V290.4z"/>
			</g>
		</g>
		<path class="st5" d="M490.4,299.7c0,0-7.9,2.4-10.7,9.3"/>
		<g>
			<path class="st14" d="M526.2,517.7c-0.9-15.3-1.5-30.9-2.2-43.5c-1.6-26.1-2.8-43.6-5.1-61.4c-2.4-17.8-2-44.7-3.2-54.1
				c-1.2-9.4-4.7-11.4-7.5-22.5c-2.8-11.2-5.3-33.4-9.9-36.5c-4.6-3.1-18.6-9-18.6-9v62.9c-8.3,12.8-18.2,15.9-18.2,15.9
				c-6.3-18.3-5.5-25.6-11.9-32.3c-6.3-6.7-10.9-15.5-20.8-11.8c-4.7,1.7-7.3,3.5-4.9,19.6c2.4,16,7.1,21.1,7.1,21.1
				c0.8,5.5-0.4,21.4-2.4,29.6c-2,8.2,5.5,29.8,9.1,43.7c3.6,13.8,22.5,41.9,22.5,41.9s0.8,15.5-0.8,31.7c-0.1,1.5-0.3,3.1-0.5,4.7
				c0,0,8.7,13.5,18.1,13.5C512.2,531.1,526.2,517.7,526.2,517.7z"/>
			<g>
				<path class="st18" d="M425.3,330.1c0.4-1.4,0.3-2.3,0-2.8c0.9-0.9,2.1-1.4,3.5-1.9c9.9-3.7,14.5,5.1,20.8,11.8
					c0.6,0.6,1.1,1.3,1.6,1.9c-5.7-2.2-13.2-2.1-16.3,2.1C431.2,346.5,423.4,337,425.3,330.1z"/>
				<path class="st18" d="M468.3,502.2l3.1,11.7c0,0-4.4-4.3-11-14.8c0.3-10.2-0.1-17.9-0.1-17.9s-19-28.1-22.5-41.9
					c-3.6-13.8-11.1-35.5-9.1-43.7c2-8.2,3.2-24.1,2.4-29.6c0,0-1-1.1-2.3-3.8c0.9-0.8,1.9-1.5,3-1.8c0,0,5.1,12,3.9,27.9
					c-1.2,15.8,1.5,17.1,6.7,37.7c5.2,20.6,13.9,43.9,18,48S466.2,497.2,468.3,502.2z"/>
				<path class="st18" d="M475.8,363.6c0,0,6.2,1,8.8,2.4c0,0-12.2,3.2-13,6.6c-0.8,3.4-3.4,6.9-8,2.8c0,0-0.2-2.6-0.7-6.3
					c2.9-1.3,10.4-5.4,16.9-15.4v-62.9c0,0,6.9,2.9,12.6,5.7c-4.2,0.6-8.6,1.9-10.3,4.7c0,0,1.3,5.3,7.1,7.9c4.5,2,0,36,0,36
					s7.4,1.8,9.8,8.6c0,0-12.1,1.2-17.1,5.1C476.8,362.6,475.8,363.6,475.8,363.6z"/>
				<path class="st18" d="M524,474.2c0.6,10.2,1.1,22.4,1.7,34.8c-1.6-23.5-6.3-64-6.3-64s-4.2,15-4.5,13.4
					c-0.9-4.7,2-31.1,1.7-40.6c-0.1-4.3,0.2-15.2,0.6-25.9c0.3,7.3,0.8,14.7,1.7,21C521.3,430.6,522.4,448.1,524,474.2z"/>
			</g>
			<g>
				<path class="st5" d="M526.2,517.7c-0.9-15.3-1.5-30.9-2.2-43.5c-1.6-26.1-2.8-43.6-5.1-61.4c-2.4-17.8-2-44.7-3.2-54.1
					c-1.2-9.4-4.7-11.4-7.5-22.5c-2.8-11.2-5.3-33.4-9.9-36.5c-4.6-3.1-18.6-9-18.6-9v62.9c-8.3,12.8-18.2,15.9-18.2,15.9
					c-6.3-18.3-5.5-25.6-11.9-32.3c-6.3-6.7-10.9-15.5-20.8-11.8c-4.7,1.7-7.3,3.5-4.9,19.6c2.4,16,7.1,21.1,7.1,21.1
					c0.8,5.5-0.4,21.4-2.4,29.6c-2,8.2,5.5,29.8,9.1,43.7c3.6,13.8,22.5,41.9,22.5,41.9s0.8,15.5-0.8,31.7c-0.1,1.5-0.3,3.1-0.5,4.7
					"/>
				<path class="st5" d="M461.5,369.6c0,0,2,8.8,5.9,10.8c4,2,9.6,0,9.6,0"/>
				<path class="st5" d="M479.7,353.6c0,0,4-8.8,16.6-1.2"/>
				<path class="st5" d="M479.7,318.1c0,0,0.8-4.7,7.3-5.9"/>
				<path class="st5" d="M460.3,481.2c7.5,9.5,6.1,18.6,9,23.4c2.9,4.7,2.5,21.8,2.5,21.8"/>
				<path class="st5" d="M514.9,389.8c0,0,0,18.7,0,33.1c0,14.4-2.8,28.3-2.8,28.3"/>
				<path class="st5" d="M431.1,366.1c0,0,0-5.7,1.6-7.3"/>
				<path class="st5" d="M435.4,348.3c0,0,3.5-11.8,13.8-6.7"/>
				<path class="st5" d="M467.1,366.7c7.6,0.2,15.4-3.2,19.9,0.9"/>
			</g>
		</g>
	</g>
</g>
</svg>
