<?xml version="1.0" encoding="utf-8"?>
<!-- Generator: Adobe Illustrator 25.2.0, SVG Export Plug-In . SVG Version: 6.00 Build 0)  -->
<svg version="1.1" id="Layer_1" xmlns="http://www.w3.org/2000/svg" xmlns:xlink="http://www.w3.org/1999/xlink" x="0px" y="0px"
	 viewBox="0 0 720 400" style="enable-background:new 0 0 720 400;" xml:space="preserve">
<style type="text/css">
	.st0{fill:#7703FC;}
	.st1{opacity:0.7;fill:#FFFFFF;}
	.st2{fill:none;stroke:#1A2E35;stroke-linecap:round;stroke-linejoin:round;stroke-miterlimit:10;}
	.st3{fill:#1A2E35;stroke:#1A2E35;stroke-linecap:round;stroke-linejoin:round;stroke-miterlimit:10;}
	.st4{fill:#FFFFFF;stroke:#1A2E35;stroke-linecap:round;stroke-linejoin:round;stroke-miterlimit:10;}
	.st5{fill:#1A2E35;}
	.st6{fill:#FFFFFF;stroke:#1A2E35;stroke-width:0.7043;stroke-linecap:round;stroke-linejoin:round;stroke-miterlimit:10;}
	.st7{fill:#7703FC;stroke:#1A2E35;stroke-linecap:round;stroke-linejoin:round;stroke-miterlimit:10;}
	.st8{fill:none;stroke:#7D7D7D;stroke-linecap:round;stroke-linejoin:round;stroke-miterlimit:10;}
</style>
<rect class="st0" width="720" height="400"/>
<rect class="st1" width="720" height="400"/>
<g>
	<g>
		<g>
			<path class="st0" d="M496.6,349.5c0,0-25.6-39-21.7-47.9c3.8-8.9,17.3,6.4,17.3,6.4s-19.8-52.4-6.4-63.9
				c13.4-11.5,17.9,47.3,17.9,47.3s12.1-33.9,21.7-21.1c9.6,12.8-14.7,39.6-14.7,39.6s16.6,0.6,12.1,11.5
				c-4.5,10.9-16.6,22.4-16.6,22.4L496.6,349.5z"/>
			<path class="st2" d="M489.6,340.5c0,0-15.3-21.7-7.7-26.2c7.7-4.5,11.5,8.9,11.5,8.9s0.6-58.8,12.8-54.3
				c12.1,4.5,7.7,40.3,7.7,40.3s15.3-10.2,14.7,4.5c-0.6,14.7-21.1,27.5-21.1,27.5"/>
			<line class="st2" x1="503.6" y1="341.8" x2="490.2" y2="327.1"/>
			<line class="st2" x1="504.3" y1="348.8" x2="503.6" y2="312.4"/>
			<line class="st2" x1="504.9" y1="336.7" x2="517.1" y2="320.7"/>
		</g>
		<polygon class="st3" points="515.8,338 481.9,338 485.3,368 512.4,368 		"/>
	</g>
	<g>
		<path class="st4" d="M463.8,368H305.4c-4.2,0-7.7-3.4-7.7-7.7V47.6c0-4.2,3.4-7.7,7.7-7.7h158.3c4.2,0,7.7,3.4,7.7,7.7v312.7
			C471.4,364.6,468,368,463.8,368z"/>
		<path class="st5" d="M401.8,58.1h-34.4c-1.3,0-2.3-1-2.3-2.3l0,0c0-1.3,1-2.3,2.3-2.3h34.4c1.3,0,2.3,1.1,2.3,2.3l0,0
			C404.1,57,403.1,58.1,401.8,58.1z"/>
		<path class="st6" d="M394,346.4c0-5.2-4.2-9.4-9.4-9.4c-5.2,0-9.4,4.2-9.4,9.4c0,5.2,4.2,9.4,9.4,9.4
			C389.8,355.8,394,351.6,394,346.4z"/>
		<rect x="379.8" y="341.7" class="st5" width="9.5" height="9.5"/>
		<g>
			<rect id="XMLID_2_" x="305.5" y="76" class="st7" width="158.2" height="256"/>
			<rect x="305.5" y="76" class="st3" width="158.2" height="16.4"/>
			<line class="st2" x1="377.1" y1="96.4" x2="394.8" y2="96.4"/>
			<line class="st2" x1="365.9" y1="99.7" x2="408.2" y2="99.7"/>
			<g>
				<g>
					<g>
						<path class="st5" d="M331.1,124.8c-0.1,0-0.3,0-0.4-0.1c-0.5-0.2-0.7-0.8-0.4-1.3L344,95.7c0.2-0.3,0.5-0.5,0.9-0.5
							c0.4,0,0.7,0.2,0.8,0.5l12.5,27.2c0.2,0.5,0,1-0.5,1.2c-0.5,0.2-1,0-1.2-0.5l-11.7-25.4l-12.9,25.9
							C331.8,124.6,331.4,124.8,331.1,124.8z"/>
					</g>
					<path class="st4" d="M327.2,121.2h34l8.5,28.3c0.8,2.8,0.3,5.8-1.4,8.2l0,0c-1.7,2.4-4.5,3.7-7.4,3.7h-32.3
						c-3,0-5.7-1.4-7.5-3.8l-0.4-0.5c-1.7-2.3-2.2-5.2-1.4-8L327.2,121.2z"/>
				</g>
				<g>
					<path class="st4" d="M446,161.4h-42.4c-4.3,0-7.7-3.5-7.7-7.7V125h57.8v28.6C453.7,157.9,450.2,161.4,446,161.4z"/>
					<path class="st2" d="M395.9,125l6.2,16.3c1,2.7,3.6,4.4,6.5,4.4h32.9c2.9,0,5.6-1.9,6.5-4.6l5.6-16.1"/>
					<rect x="419.5" y="142.8" class="st4" width="12.8" height="5.5"/>
					<polygon class="st4" points="415.4,124.8 392.5,148.6 394,150.8 418.8,125.3 					"/>
				</g>
				<path class="st5" d="M353.7,176.5h-19.3c-2.6,0-4.7-2.1-4.7-4.7v0c0-2.6,2.1-4.7,4.7-4.7h19.3c2.6,0,4.7,2.1,4.7,4.7v0
					C358.4,174.4,356.3,176.5,353.7,176.5z"/>
				<path class="st5" d="M433.2,176.5h-19.3c-2.6,0-4.7-2.1-4.7-4.7v0c0-2.6,2.1-4.7,4.7-4.7h19.3c2.6,0,4.7,2.1,4.7,4.7v0
					C437.9,174.4,435.8,176.5,433.2,176.5z"/>
			</g>
			<g>
				<g>
					<g>
						<path class="st5" d="M361,205.1c-0.4,0-0.8-0.3-0.9-0.7c0-0.2-3.8-15.2-15.1-14.5c-11.8,0.8-16,13.8-16.1,14
							c-0.2,0.5-0.7,0.8-1.2,0.6c-0.5-0.2-0.8-0.7-0.6-1.2c0-0.1,4.6-14.4,17.7-15.3c12.9-0.8,17,15.7,17.1,15.9
							c0.1,0.5-0.2,1-0.7,1.1C361.2,205.1,361.1,205.1,361,205.1z"/>
					</g>
					<g>
						<path class="st4" d="M326.8,201.5c0,0,12.5,4.1,34.9,0L366,228c0.3,1.9-0.1,3.8-1.3,5.4l-0.4,0.6c-1.3,1.9-3.5,3-5.8,3h-28.4
							c-2.8,0-5.3-1.6-6.5-4.1l0,0c-0.6-1.3-0.8-2.7-0.6-4.1L326.8,201.5z"/>
						<path class="st2" d="M361.7,201.5c0,0-0.5,18.5-16.6,18.5c-16.1,0-18.3-18.5-18.3-18.5"/>
						<rect x="340.5" y="216.2" class="st2" width="8.7" height="7.5"/>
					</g>
				</g>
				<g>
					<g>
						<path class="st5" d="M409.7,200.3c-0.1,0-0.3,0-0.4-0.1c-0.5-0.2-0.7-0.8-0.4-1.3l13.7-20.3c0.2-0.3,0.5-0.5,0.9-0.5
							c0.4,0,0.7,0.2,0.8,0.5l12.5,19.8c0.2,0.5,0,1-0.5,1.2c-0.5,0.2-1,0-1.2-0.5l-11.7-18l-12.9,18.5
							C410.3,200.1,410,200.3,409.7,200.3z"/>
					</g>
					<path class="st4" d="M405.8,196.7h34l8.5,28.3c0.8,2.8,0.3,5.8-1.4,8.2l0,0c-1.7,2.4-4.5,3.7-7.4,3.7h-32.3
						c-3,0-5.7-1.4-7.5-3.8l-0.4-0.5c-1.7-2.3-2.2-5.2-1.4-8L405.8,196.7z"/>
					<g>
						<polygon class="st5" points="402.4,208.8 400.1,217 445.9,217 443.4,208.8 						"/>
						<path class="st5" d="M397.9,224.7c-0.7,2.4-0.3,5,0.9,7.2h48.8c1.1-2.1,1.3-4.6,0.6-6.9l-0.4-1.3h-49.7L397.9,224.7z"/>
						<polygon class="st5" points="405.8,196.7 404.3,202 441.4,202 439.8,196.7 						"/>
					</g>
				</g>
				<path class="st5" d="M353.7,250.5h-19.3c-2.6,0-4.7-2.1-4.7-4.7v0c0-2.6,2.1-4.7,4.7-4.7h19.3c2.6,0,4.7,2.1,4.7,4.7v0
					C358.4,248.4,356.3,250.5,353.7,250.5z"/>
				<path class="st5" d="M433.2,250.5h-19.3c-2.6,0-4.7-2.1-4.7-4.7v0c0-2.6,2.1-4.7,4.7-4.7h19.3c2.6,0,4.7,2.1,4.7,4.7v0
					C437.9,248.4,435.8,250.5,433.2,250.5z"/>
			</g>
			<g>
				<g>
					<g>
						<path class="st5" d="M332.7,280.8c-0.5,0-0.9-0.4-0.9-0.9v-8.5c0-6.6,5.3-11.9,11.9-11.9h0.2c6.6,0,11.9,5.3,11.9,11.9v8.1
							c0,0.5-0.4,0.9-0.9,0.9c-0.5,0-0.9-0.4-0.9-0.9v-8.1c0-5.5-4.5-10-10-10h-0.2c-5.5,0-10,4.5-10,10v8.5
							C333.7,280.4,333.2,280.8,332.7,280.8z"/>
					</g>
					<g>
						<path class="st4" d="M325.6,276.3c0,0,11,3.3,37.4,0l4.6,28.3c0.3,2-0.2,4.1-1.3,5.7l-0.5,0.7c-1.4,2-3.8,3.2-6.2,3.2h-30.4
							c-3,0-5.6-1.7-6.9-4.4l0,0c-0.7-1.4-0.9-2.9-0.7-4.4L325.6,276.3z"/>
					</g>
					<g>
						<path class="st5" d="M332.5,309c0-5.5-4.4-9.9-9.9-9.9c-0.1,0-0.2,0-0.2,0l-0.9,6.3c-0.2,1.5,0,3,0.7,4.4v0
							c1.3,2.7,4,4.4,6.9,4.4h1.9C331.9,312.7,332.5,310.9,332.5,309z"/>
						<path class="st5" d="M356.1,309c0,1.9,0.5,3.6,1.5,5.1h1.9c2.5,0,4.8-1.2,6.2-3.2l0.5-0.7c1.2-1.7,1.7-3.7,1.3-5.7l-0.9-5.4
							c-0.2,0-0.5,0-0.7,0C360.5,299.2,356.1,303.6,356.1,309z"/>
					</g>
					<line class="st2" x1="343.6" y1="278" x2="343.6" y2="314.3"/>
				</g>
				<g>
					<path class="st4" d="M446.8,314.3h-47.4c-1.4,0-2.6-1.2-2.6-2.6v-25.4c0-1.4,1.2-2.6,2.6-2.6h47.4c1.4,0,2.6,1.2,2.6,2.6v25.4
						C449.4,313.2,448.2,314.3,446.8,314.3z"/>
					<path class="st2" d="M397.1,285.2l23.4,17.5c1.4,1,3.3,1,4.6,0l23.2-18"/>
					<path class="st4" d="M422.6,308.1L422.6,308.1c-1.5,0-2.6-1.2-2.6-2.6V284h5.3v21.4C425.3,306.9,424.1,308.1,422.6,308.1z"/>
				</g>
				<path class="st5" d="M353.7,327.8h-19.3c-2.6,0-4.7-2.1-4.7-4.7l0,0c0-2.6,2.1-4.7,4.7-4.7h19.3c2.6,0,4.7,2.1,4.7,4.7l0,0
					C358.4,325.7,356.3,327.8,353.7,327.8z"/>
				<path class="st5" d="M433.2,327.8h-19.3c-2.6,0-4.7-2.1-4.7-4.7l0,0c0-2.6,2.1-4.7,4.7-4.7h19.3c2.6,0,4.7,2.1,4.7,4.7l0,0
					C437.9,325.7,435.8,327.8,433.2,327.8z"/>
			</g>
		</g>
	</g>
	<g>
		<g>
			<path class="st4" d="M216.2,216.7c0,0-5.6,9.8-7.3,29.5c-1.6,19.6,9.1,38.6,15,48c5.8,9.4-1.4,17.8-2.3,23.4
				c-0.9,5.6-0.5,15.7,5.1,22.5c5.6,6.8,7,18.5,6.8,22.5c-0.2,4,0.5,4.9,1.6,4.9c1.2,0,22.5,1.4,26,0l5.6-0.5c0,0,0.9-2.1-0.9-3
				s-7.5-2.8-9.4-6.3c-1.9-3.5-2.1-9.6-1.4-12.4c0.7-2.8,5.1-16.8,6.1-25.5c0.9-8.7,1.4-23.9,1.4-27.4c0-3.5,8.7-14.5,9.8-27.6
				c1.2-13.1-3.3-39.5-3.3-39.5L216.2,216.7z"/>
			<path class="st7" d="M265.8,363.9c-1.9-0.9-7.5-2.8-9.4-6.3c-0.5-0.9-0.9-2.1-1.2-3.3c-0.8,0.1-3.7,0.5-4.7,2.1
				c-1.2,1.9-3.3,2.6-3.3,2.6l-5.1-0.5c0,0-0.2,4.9,0.7,7.3c0.3,0.6-0.9,0.9,0.1,1.6c6.6,0.2,18.4,0.8,21.4,0.2l2.4-0.7
				C266.7,366.9,267.7,364.8,265.8,363.9z"/>
			<path class="st7" d="M257.8,364.6c-3.7-1.2-8.9-5.1-10.3-6.8c-1.4-1.6-2.8-2.3-2.8-2.3s-3-1.2-4,1.2c-0.9,2.3-0.9,2.3-0.9,2.3
				l-6.5-0.5c0.2,1.7,0.2,3.1,0.2,4c-0.2,4,0.5,4.9,1.6,4.9c1,0,18.1,1.1,24.2,0.4C259.7,366.4,259.5,365.1,257.8,364.6z"/>
			<path class="st3" d="M255,345.2c0.7-2.8,5.1-16.8,6.1-25.5c0.9-8.7,1.4-23.9,1.4-27.4c0-3.5,8.7-14.5,9.8-27.6
				c1.2-13.1-3.3-39.5-3.3-39.5l-52.9-8.4c0,0-5.6,9.8-7.3,29.5c-1.6,19.6,9.1,38.6,15,48c5.8,9.4-1.4,17.8-2.3,23.4
				c-0.9,5.6-0.5,15.7,5.1,22.5c1.8,2.2,3.2,4.8,4.2,7.6c2.5,1.2,6.6,1.7,12.7-1.7c0,0,4.3,3.4,11.2,1.2
				C254.8,346.4,254.9,345.7,255,345.2z"/>
			<path class="st8" d="M255.5,254.4l-6.3,3.5c0,0-0.9,31.6-0.9,42.8c0,11.2-3,14.5-4,29.9c-0.9,15.4,0.5,24.8,0.5,24.8"/>
		</g>
		<path class="st7" d="M267.5,165.3c0,0,8,2.7,11,10.2s3.7,21.4,3.7,28.5c0,7.1,2.4,13-0.8,17.5c-3.1,4.5-9.4,3.9-12.4-0.2
			c-2.9-4.1-2.6-6.7-1.4-15.9c1.2-9.2,0.8-26.9-0.2-30.4c-1-3.5-4.5-9.8-4.5-9.8S265.8,164.1,267.5,165.3z"/>
		<path class="st4" d="M282.6,209.5c-0.2-0.3-0.5-0.5-0.8-0.8c-5.6-4.5-11.1-2.4-11.1-2.4l-3.6,4.1c-0.6,5.2-0.3,7.5,2,10.7
			c2.9,4.1,9.2,4.7,12.4,0.2C283.7,218.2,283.1,214.1,282.6,209.5z"/>
		<path class="st4" d="M268.3,215.2c0,0,1.4-5.9,4.3-6.9c2.9-1,8.6,1.8,10.6,5.3c2,3.5-2,8.6-2,8.6s3.5-0.8,3.9-8
			c0.4-7.3-7.9-10-11.8-10.2C269.5,203.8,267.3,212.4,268.3,215.2z"/>
		<path class="st0" d="M272,179.6c0.8,2.7,2.2,12.2,2,19.2c-0.2,7.1-3.9,12-4.1,15.7c-0.2,3.7,1.6,10.4,1,11.4s-10.6,6.7-23.8,5.3
			c-13.2-1.4-28.7-4.9-31.2-9.4c-2.6-4.5,2.6-36.1,2.7-39.7c0.2-3.5,3.3-19.2,9.4-21.2c6.1-2,20.4-1.8,20.4-1.8s15.7,4.7,16.3,4.9
			c0.6,0.2-2.6-1.2,1.8,0.8c4.3,2,5.1,8,5.3,9"/>
		<path class="st4" d="M244.7,155.3c0,0-4.7,2.9-4.7,4.9c0,2,2.2,19.8,2.2,19.8l14.1-5.9l11.2,6.5c0,0-2.4-10.6-4.5-15.5
			c-2.2-4.9-5.9-8.4-10.6-10C247.7,153.5,244.7,155.3,244.7,155.3z"/>
		<path class="st4" d="M244.9,156.6c0,0,1.6,8.6,3.1,12.6c2,4.9,5.9,13.9,5.9,13.9s3.9-6.3,5.1-11.6c1.2-5.3,2.4-13.9,2.4-13.9
			s-13.2-3.7-13.7-4.1C247.1,153.1,244.2,154.7,244.9,156.6z"/>
		<g>
			<path class="st3" d="M281.7,118.4c0,0-10.6-11.4-20-10.4s-20,14.9-24.9,23.4c-4.9,8.4,2,24.7,11.8,27.9
				c9.8,3.1,14.5,1.2,14.5,1.2s7.1,5.3,13.7,1.4c6.7-3.9,6.9-9.6,6.3-14.5c-0.6-4.9,5.1-5.7,7.1-11.8
				C292.1,129.4,281.7,118.4,281.7,118.4z"/>
			<g>
				<path class="st4" d="M275.4,129.4c0,0-0.8,2.6,2,8c2.7,5.5,3.1,8.6,2.7,12.2c-0.4,3.5-2.9,7.1-5.7,9.6
					c-2.7,2.6-6.7,4.5-10.4,3.9c-3.7-0.6-6.9-6.1-6.9-6.9C257.1,155.5,252.8,135.6,275.4,129.4z"/>
				<path class="st2" d="M276.5,143.9l-1.4,1.8c0,0-1,5.5-1.6,5.5s-2.9-0.8-2.9-0.8"/>
				<path class="st2" d="M268.7,154.5c0,0-3.5-0.2-3.1-2.9"/>
				<path class="st5" d="M270.2,143.4c-0.5,1-1.3,1.7-1.8,1.4c-0.5-0.2-0.6-1.3-0.1-2.3c0.5-1,1.3-1.7,1.8-1.4
					C270.6,141.4,270.6,142.4,270.2,143.4z"/>
				<path class="st5" d="M278.6,146.2c-0.5,1-1.3,1.7-1.8,1.4c-0.5-0.2-0.6-1.3-0.1-2.3c0.5-1,1.3-1.7,1.8-1.4
					C279,144.1,279.1,145.2,278.6,146.2z"/>
				<path class="st2" d="M267.5,138.6c0,0,2.9-2,5.7,0.2"/>
				<path class="st2" d="M277.3,142.1c0,0,1.2-0.8,2.4,0.6"/>
			</g>
		</g>
		<g>
			<path class="st4" d="M235.3,160.3c0,0-11.1,0.3-17.4,2.4c-6.3,2.2-8,13.2-8,18.7c0,5.5-1.8,38.5-0.6,40.8
				c1.2,2.4,42-15.9,42-15.9s0.8,0.8,2.9,0.8c2.2,0,3.7-1,3.7-1l-0.4,2.6c0,0-3.3,1.4-2,2.4c1.4,1,6.5-1,7.1-1.4
				c0.6-0.4,5.9-2,6.9-3.5c1-1.6-0.8-5.9-0.8-5.9s2.9,1.6,4.5,2.7c1.6,1.2,2.9,2.2,3.7,0c0.8-2.2-4.7-4.3-6.7-5.5
				c-2-1.2-3.5-2-6.5-1.8c-2.9,0.2-16.3,4.9-16.3,4.9s-0.8,0.2-5.9,0.6c-5.2,0.4-16.7,0.8-16.7,0.8l5.1-21.6"/>
			<g>
				<path class="st5" d="M244.1,200.8c0,0-1.1,5,1.9,7.6l2.6-0.8c0,0-2.4-4-1.1-7C247.7,200.2,245.1,200.1,244.1,200.8z"/>
				<ellipse class="st4" cx="245.4" cy="203.6" rx="2.2" ry="2.1"/>
			</g>
			<path class="st2" d="M261.2,202.4c0,0,3.1,5.9,1.4,7.3"/>
			<path class="st2" d="M264.8,200.2c0,0,3.5,4.1,1.8,7.3"/>
		</g>
		<path class="st7" d="M235.3,160.3c-3.5,0.2-13.5,1.1-17.4,2.4c-6.3,2.2-8,13.2-8,18.7c0,4.7-1.3,29-0.9,37.8
			c3.7-12.6,16.1-17.2,16.1-17.2l6-23.8"/>
		<path class="st4" d="M224.9,202c0,0-6.7,5.7-8.8,12.4c-2.2,6.7-1.2,6.7-1.2,6.7s-0.4,2.2-2.6,2.9c-2.2,0.8-6.3-1.4-6.7-4.1
			c-0.4-2.7,0.8-5.1,5.7-11.8C216.3,201.4,222.6,200.2,224.9,202z"/>
		<g>
			<polygon class="st3" points="283.8,199.4 273.4,215 283.8,215.7 295.6,200.2 			"/>
			<g>
				<path class="st4" d="M276.4,215c0,0-3.1,1.2-0.6,3.1c2.6,2,6.7,1.2,8-1.4C285.2,214.2,276.4,215,276.4,215z"/>
				<path class="st4" d="M284.6,215c0,0-7.1-2.2-8.2,0c-1.2,2.2,6.3,2.9,8,2.9C286.2,217.9,285.6,215.4,284.6,215z"/>
				<path class="st4" d="M287.3,213.2c0,0-7.1-2.2-8.2,0c-1.2,2.2,6.3,2.9,8,2.9C288.9,216.1,288.3,213.6,287.3,213.2z"/>
				<path class="st4" d="M289.3,210.1c0,0-7.1-2.2-8.2,0c-1.2,2.2,6.3,2.9,8,2.9C290.9,213,290.3,210.4,289.3,210.1z"/>
			</g>
		</g>
	</g>
	<g>
		<line class="st2" x1="199.2" y1="368" x2="543.4" y2="368"/>
		<line class="st2" x1="176.6" y1="368" x2="187.5" y2="368"/>
	</g>
</g>
</svg>
