<?xml version="1.0" encoding="utf-8"?>
<!-- Generator: Adobe Illustrator 25.2.0, SVG Export Plug-In . SVG Version: 6.00 Build 0)  -->
<svg version="1.1" id="Layer_1" xmlns="http://www.w3.org/2000/svg" xmlns:xlink="http://www.w3.org/1999/xlink" x="0px" y="0px"
	 viewBox="0 0 720 400" style="enable-background:new 0 0 720 400;" xml:space="preserve">
<style type="text/css">
	.st0{fill:#7703FC;}
	.st1{opacity:0.7;fill:#FFFFFF;enable-background:new    ;}
	.st2{fill:#CDAEFF;}
	.st3{opacity:0.2;enable-background:new    ;}
	.st4{fill:#AAFF00;}
	.st5{fill:#263238;}
	.st6{fill:#7703FC;stroke:#1A2E35;stroke-linecap:round;stroke-linejoin:round;stroke-miterlimit:10;}
	.st7{fill:#7703FC;stroke:#263238;stroke-linecap:round;stroke-linejoin:round;}
	.st8{opacity:0.1;enable-background:new    ;}
	.st9{fill:none;stroke:#263238;stroke-linecap:round;stroke-linejoin:round;stroke-miterlimit:10;}
	.st10{fill:#263238;stroke:#263238;stroke-linecap:round;stroke-linejoin:round;}
	.st11{fill:#FFFFFF;stroke:#263238;stroke-linecap:round;stroke-linejoin:round;}
	.st12{fill:none;stroke:#263238;stroke-linecap:round;stroke-linejoin:round;}
	.st13{opacity:0.2;fill:#FFFFFF;enable-background:new    ;}
	.st14{fill:#E6EBED;}
	.st15{fill:#FFFFFF;stroke:#263238;stroke-width:1;stroke-miterlimit:9.9999;}
</style>
<rect class="st0" width="720" height="400"/>
<rect class="st1" width="720" height="400"/>
<g>
	<g>
		<g>
			<ellipse class="st2" cx="341.1" cy="356.2" rx="204.4" ry="24.7"/>
			<ellipse class="st3" cx="341.1" cy="356.2" rx="204.4" ry="24.7"/>
		</g>
		<g id="Plants--inject-125_3_">
			<path class="st4" d="M529.7,248.8c1.7-1.5,3.6-3.9,3.5-6.7c-0.1-2.7-2.1-5.2-4.5-5.1c-3.4,0.2-6.1,6.1-6.6,9.5
				c-0.1,0.3-0.3,5-0.2,5C521.8,251.6,527.6,250.5,529.7,248.8z"/>
			<path class="st0" d="M531.9,333.5c0.6,0.4,5.4,3.5,7.9,3.9c2.3,0.3,5.2,0,6.6-2c1.5-2.2,1.1-5.2-0.9-6.9
				c-2.9-2.4-8.5-0.3-10.8,1.7c-0.1,0.1-1.7,1.9-2.5,2.8c0.5-0.9,0.9-1.8,1.5-2.8c0.7-1.4,1.5-2.8,2.3-4.2l1.3-2.1
				c0.4-0.7,0.9-1.3,1.4-2c0.7-1,1.5-1.9,2.2-3c1.2,1.1,4.9,4.2,7.1,4.9c2.2,0.7,5.2,0.9,6.9-0.8c1.8-1.9,1.8-4.9,0-6.9
				c-2.6-2.9-8.5-1.8-11.1-0.3c-0.1,0.1-0.6,0.4-1.2,0.9c0.8-0.9,1.5-1.9,2.3-2.8c2.2-2.6,4.6-5.1,7.1-7.6l1.5-1.6
				c1,0.9,5.1,4.3,7.3,5s5.2,0.9,6.9-0.8c1.8-1.9,1.8-4.9,0-6.9c-2.6-2.9-8.5-1.8-11.1-0.3c-0.1,0.1-0.7,0.5-1.4,1.1
				c1.3-1.4,2.6-2.8,3.8-4.3c2.1-2.5,4.1-5.2,5.8-8c0.4,0.3,5,4.4,7.5,5.2c2.2,0.7,5.2,0.9,6.9-0.8c1.8-1.9,1.8-4.9,0-6.9
				c-2.6-2.9-8.5-1.8-11.1-0.3c-0.2,0.1-2.4,1.8-3.1,2.5l0.1-0.1c1.7-2.9,3.1-5.9,4.3-9.1c1.1-2.9,2-5.8,2.7-8.7
				c0.7-2.8,1.2-5.4,1.7-7.7c0.2-1.3,0.4-2.4,0.6-3.5v0.1c0,0.1,2.3-3.6,2.4-3.9c1.4-2.9,2.5-9.8,0.1-12.8c-0.2-0.3-0.5-0.7-0.9-0.9
				c-1.6-1.2-3.9-0.9-5.1,0.8c-1.5,1.9-1.5,5.3-0.9,8s3.5,7.4,4.2,8.6c-0.2,1.1-0.4,2.3-0.7,3.6c-0.5,2.3-1,4.9-1.8,7.6
				c-0.2,0.7-0.4,1.5-0.7,2.3c0.2-1.4,0.3-3.3,0.3-3.5c0-3.5-1.8-10.4-5-12c-2.3-1.2-4.5,0.4-5,3s0.9,5.7,2.4,7.9
				c1.6,2.2,6,5.2,7,5.8c-0.5,1.7-1.1,3.3-1.8,5c-1.2,3.1-2.7,6-4.4,8.8l-0.2-0.1c0.3-1.2,0.8-3.9,0.8-4.1c0.3-3.4-0.8-10.5-4-12.4
				c-2.2-1.4-4.6-0.2-5.4,2.4c-0.7,2.5,0.4,5.8,1.7,8.1c1.5,2.6,6.5,6.6,6.6,6.7c-1.7,2.6-3.7,5.2-5.8,7.6c-1.5,1.8-3.1,3.4-4.8,5.1
				c0.2-0.9,0.9-4.3,0.9-4.6c0.3-3.4-0.8-10.5-4-12.5c-2.2-1.4-4.6-0.1-5.4,2.4c-0.7,2.5,0.4,5.8,1.7,8.1c1.5,2.6,6.2,6.4,6.6,6.7
				l-2.2,2.3c-2.5,2.4-4.9,4.9-7.3,7.5c-0.8,0.9-1.6,1.8-2.4,2.7c0.3-1.3,0.8-3.7,0.8-3.9c0.3-3.4-0.8-10.5-4-12.5
				c-2.2-1.4-4.6-0.1-5.4,2.4c-0.7,2.5,0.4,5.8,1.7,8.1c1.3,2.3,5.2,5.6,6.4,6.5c-1.3,1.5-2.5,3-3.7,4.6c-0.4,0.7-1,1.4-1.5,2.1
				l-1.3,2.1c-0.9,1.5-1.7,2.8-2.4,4.2c-0.4,0.7-0.7,1.3-1.1,2c0.5-1.3,1.2-3.3,1.2-3.5c0.8-3.3,0.5-10.4-2.3-12.8
				c-0.3-0.3-0.7-0.6-1.2-0.7c-1.8-0.7-3.9,0.2-4.6,2.1c-0.1,0.3-0.2,0.6-0.3,0.9c-2,1.9-3.5,4.4-4.3,7.1c-0.1,0.2-0.5,2.8-0.6,4.1
				c-0.1-1.1-0.2-2.2-0.2-3.4c-0.1-1.7-0.2-3.5-0.2-5.2c0-0.9,0-1.8,0-2.7c0-0.9,0.1-1.8,0.1-2.7c0.1-1.3,0.2-2.7,0.3-4
				c1.5,0.2,5.7,0.6,7.9-0.2c2.1-0.8,4.5-2.6,5-5.2s-0.8-5.5-3.3-6.2c-3.4-0.9-7.5,3.9-8.8,6.9c0,0.1-0.3,0.8-0.5,1.6
				c0.2-1.3,0.3-2.6,0.5-4c0.5-3.8,1.2-7.5,1.8-11.4c0.1-0.8,0.3-1.6,0.4-2.4c1.2,0.1,5.9,0.6,8.1-0.2c2.1-0.8,4.5-2.6,5-5.2
				s-0.8-5.5-3.3-6.2c-3.4-0.9-7.5,3.9-8.8,6.9c-0.1,0.1-0.3,0.9-0.6,1.8c0.3-2.1,0.6-4.2,0.9-6.2c0.4-3.6,0.7-7.2,0.7-10.8
				c0.4,0.1,6,0.8,8.3-0.2c2.1-0.8,4.5-2.6,5-5.2s-0.8-5.5-3.3-6.2c-3.4-0.9-7.5,3.9-8.8,6.9c-0.1,0.2-1,3.1-1.3,4.2v-0.1
				c-0.1-3.6-0.4-7.2-1-10.8c-0.5-3.2-1.2-6.4-2.1-9.5c-0.8-2.9-1.6-5.6-2.4-7.9c-0.4-1.3-0.8-2.4-1.2-3.5h0.1c0,0,0-4.7,0-5
				c-0.3-3.5-2.7-10.3-6-11.4c-2.4-0.8-4.5,1-4.7,3.7s1.4,5.7,3.1,7.7s6.2,4.4,7.4,5c0.4,1.1,0.8,2.3,1.2,3.6c0.7,2.3,1.5,5,2.2,7.9
				c0.2,0.8,0.4,1.6,0.6,2.4c-0.6-1.3-1.3-3.1-1.4-3.3c-1.6-3.1-6.4-8.1-9.7-7.4c-2.4,0.5-3.4,3.3-2.5,6s3.4,4.5,5.7,5.5
				c2.3,1,7.2,0.8,8.2,0.7c0.4,1.8,0.7,3.7,1,5.6c0.5,3.5,0.8,7.1,0.8,10.7h-0.2c-0.4-1.3-1.2-4-1.3-4.2c-1.4-3.3-5.7-8.8-9.1-8.6
				c-2.4,0.2-3.7,2.8-3,5.6c0.6,2.7,3.1,4.9,5.2,6.1c2.4,1.4,8.2,1.7,8.4,1.7c-0.1,3.5-0.4,7-0.8,10.4c-0.3,2.5-0.8,5.1-1.2,7.6
				c-0.3-0.9-1.4-4.4-1.5-4.7c-1.4-3.3-5.7-8.8-9.1-8.6c-2.4,0.2-3.7,2.8-3,5.6c0.6,2.7,3.1,4.9,5.2,6.1c2.4,1.4,7.9,1.7,8.4,1.7
				c-0.2,1.2-0.4,2.3-0.6,3.5c-0.7,3.8-1.5,7.6-2.1,11.3c-0.2,1.3-0.4,2.6-0.6,3.9c-0.4-1.4-1.2-3.8-1.3-4c-1.4-3.3-5.7-8.8-9.1-8.6
				c-2.4,0.2-3.7,2.8-3,5.6c0.6,2.7,3.1,4.9,5.2,6.1s6.8,1.6,8.1,1.7c-0.3,2.2-0.5,4.3-0.7,6.5c0,0.9-0.1,1.9-0.1,2.8s0,1.8,0,2.7
				c0,1.9,0.1,3.6,0.1,5.3c0,0.9,0.1,1.7,0.1,2.5c-0.2-1.4-0.7-3.7-0.7-3.9c-1-3.4-4.6-9.6-8-9.9c-2.4-0.2-4.1,2.1-3.8,4.9
				c0.3,2.8,2.5,5.3,4.4,6.9c2.2,1.7,7.5,3,8.1,3.2c0.1,2.1,0.2,4.1,0.3,6c0.4,5.4,0.9,10,1.3,13.4h2.3c-0.5-3.3-1-8-1.5-13.4
				c-0.2-1.7-0.3-3.5-0.4-5.4c0.6,0,5.6-0.3,7.8-1.5c1.2,1.6,2.4,3,3.8,4.5c-0.9,1.7-1.8,3.3-2.6,4.9c-2.2,4.3-3.9,8.1-5.2,11h2.6
				c1.1-2.7,2.6-6,4.4-9.7C530.6,336.4,531.3,334.8,531.9,333.5z"/>
			<path class="st0" d="M586,275.1c1.3-2.3,0.6-5.3-1.5-6.8c-3.1-2-8.4,0.8-10.5,3.1c-0.2,0.2-2.6,3.7-2.6,3.7s5.7,2.9,8.3,2.9
				C582,278,584.8,277.3,586,275.1z"/>
			<path class="st3" d="M529.7,248.8c1.7-1.5,3.6-3.9,3.5-6.7c-0.1-2.7-2.1-5.2-4.5-5.1c-3.4,0.2-6.1,6.1-6.6,9.5
				c-0.1,0.3-0.3,5-0.2,5C521.8,251.6,527.6,250.5,529.7,248.8z"/>
			<path class="st3" d="M531.9,333.5c0.6,0.4,5.4,3.5,7.9,3.9c2.3,0.3,5.2,0,6.6-2c1.5-2.2,1.1-5.2-0.9-6.9
				c-2.9-2.4-8.5-0.3-10.8,1.7c-0.1,0.1-1.7,1.9-2.5,2.8c0.5-0.9,0.9-1.8,1.5-2.8c0.7-1.4,1.5-2.8,2.3-4.2l1.3-2.1
				c0.4-0.7,0.9-1.3,1.4-2c0.7-1,1.5-1.9,2.2-3c1.2,1.1,4.9,4.2,7.1,4.9c2.2,0.7,5.2,0.9,6.9-0.8c1.8-1.9,1.8-4.9,0-6.9
				c-2.6-2.9-8.5-1.8-11.1-0.3c-0.1,0.1-0.6,0.4-1.2,0.9c0.8-0.9,1.5-1.9,2.3-2.8c2.2-2.6,4.6-5.1,7.1-7.6l1.5-1.6
				c1,0.9,5.1,4.3,7.3,5s5.2,0.9,6.9-0.8c1.8-1.9,1.8-4.9,0-6.9c-2.6-2.9-8.5-1.8-11.1-0.3c-0.1,0.1-0.7,0.5-1.4,1.1
				c1.3-1.4,2.6-2.8,3.8-4.3c2.1-2.5,4.1-5.2,5.8-8c0.4,0.3,5,4.4,7.5,5.2c2.2,0.7,5.2,0.9,6.9-0.8c1.8-1.9,1.8-4.9,0-6.9
				c-2.6-2.9-8.5-1.8-11.1-0.3c-0.2,0.1-2.4,1.8-3.1,2.5l0.1-0.1c1.7-2.9,3.1-5.9,4.3-9.1c1.1-2.9,2-5.8,2.7-8.7
				c0.7-2.8,1.2-5.4,1.7-7.7c0.2-1.3,0.4-2.4,0.6-3.5v0.1c0,0.1,2.3-3.6,2.4-3.9c1.4-2.9,2.5-9.8,0.1-12.8c-0.2-0.3-0.5-0.7-0.9-0.9
				c-1.6-1.2-3.9-0.9-5.1,0.8c-1.5,1.9-1.5,5.3-0.9,8s3.5,7.4,4.2,8.6c-0.2,1.1-0.4,2.3-0.7,3.6c-0.5,2.3-1,4.9-1.8,7.6
				c-0.2,0.7-0.4,1.5-0.7,2.3c0.2-1.4,0.3-3.3,0.3-3.5c0-3.5-1.8-10.4-5-12c-2.3-1.2-4.5,0.4-5,3s0.9,5.7,2.4,7.9
				c1.6,2.2,6,5.2,7,5.8c-0.5,1.7-1.1,3.3-1.8,5c-1.2,3.1-2.7,6-4.4,8.8l-0.2-0.1c0.3-1.2,0.8-3.9,0.8-4.1c0.3-3.4-0.8-10.5-4-12.4
				c-2.2-1.4-4.6-0.2-5.4,2.4c-0.7,2.5,0.4,5.8,1.7,8.1c1.5,2.6,6.5,6.6,6.6,6.7c-1.7,2.6-3.7,5.2-5.8,7.6c-1.5,1.8-3.1,3.4-4.8,5.1
				c0.2-0.9,0.9-4.3,0.9-4.6c0.3-3.4-0.8-10.5-4-12.5c-2.2-1.4-4.6-0.1-5.4,2.4c-0.7,2.5,0.4,5.8,1.7,8.1c1.5,2.6,6.2,6.4,6.6,6.7
				l-2.2,2.3c-2.5,2.4-4.9,4.9-7.3,7.5c-0.8,0.9-1.6,1.8-2.4,2.7c0.3-1.3,0.8-3.7,0.8-3.9c0.3-3.4-0.8-10.5-4-12.5
				c-2.2-1.4-4.6-0.1-5.4,2.4c-0.7,2.5,0.4,5.8,1.7,8.1c1.3,2.3,5.2,5.6,6.4,6.5c-1.3,1.5-2.5,3-3.7,4.6c-0.4,0.7-1,1.4-1.5,2.1
				l-1.3,2.1c-0.9,1.5-1.7,2.8-2.4,4.2c-0.4,0.7-0.7,1.3-1.1,2c0.5-1.3,1.2-3.3,1.2-3.5c0.8-3.3,0.5-10.4-2.3-12.8
				c-0.3-0.3-0.7-0.6-1.2-0.7c-1.8-0.7-3.9,0.2-4.6,2.1c-0.1,0.3-0.2,0.6-0.3,0.9c-2,1.9-3.5,4.4-4.3,7.1c-0.1,0.2-0.5,2.8-0.6,4.1
				c-0.1-1.1-0.2-2.2-0.2-3.4c-0.1-1.7-0.2-3.5-0.2-5.2c0-0.9,0-1.8,0-2.7c0-0.9,0.1-1.8,0.1-2.7c0.1-1.3,0.2-2.7,0.3-4
				c1.5,0.2,5.7,0.6,7.9-0.2c2.1-0.8,4.5-2.6,5-5.2s-0.8-5.5-3.3-6.2c-3.4-0.9-7.5,3.9-8.8,6.9c0,0.1-0.3,0.8-0.5,1.6
				c0.2-1.3,0.3-2.6,0.5-4c0.5-3.8,1.2-7.5,1.8-11.4c0.1-0.8,0.3-1.6,0.4-2.4c1.2,0.1,5.9,0.6,8.1-0.2c2.1-0.8,4.5-2.6,5-5.2
				s-0.8-5.5-3.3-6.2c-3.4-0.9-7.5,3.9-8.8,6.9c-0.1,0.1-0.3,0.9-0.6,1.8c0.3-2.1,0.6-4.2,0.9-6.2c0.4-3.6,0.7-7.2,0.7-10.8
				c0.4,0.1,6,0.8,8.3-0.2c2.1-0.8,4.5-2.6,5-5.2s-0.8-5.5-3.3-6.2c-3.4-0.9-7.5,3.9-8.8,6.9c-0.1,0.2-1,3.1-1.3,4.2v-0.1
				c-0.1-3.6-0.4-7.2-1-10.8c-0.5-3.2-1.2-6.4-2.1-9.5c-0.8-2.9-1.6-5.6-2.4-7.9c-0.4-1.3-0.8-2.4-1.2-3.5h0.1c0,0,0-4.7,0-5
				c-0.3-3.5-2.7-10.3-6-11.4c-2.4-0.8-4.5,1-4.7,3.7s1.4,5.7,3.1,7.7s6.2,4.4,7.4,5c0.4,1.1,0.8,2.3,1.2,3.6c0.7,2.3,1.5,5,2.2,7.9
				c0.2,0.8,0.4,1.6,0.6,2.4c-0.6-1.3-1.3-3.1-1.4-3.3c-1.6-3.1-6.4-8.1-9.7-7.4c-2.4,0.5-3.4,3.3-2.5,6s3.4,4.5,5.7,5.5
				c2.3,1,7.2,0.8,8.2,0.7c0.4,1.8,0.7,3.7,1,5.6c0.5,3.5,0.8,7.1,0.8,10.7h-0.2c-0.4-1.3-1.2-4-1.3-4.2c-1.4-3.3-5.7-8.8-9.1-8.6
				c-2.4,0.2-3.7,2.8-3,5.6c0.6,2.7,3.1,4.9,5.2,6.1c2.4,1.4,8.2,1.7,8.4,1.7c-0.1,3.5-0.4,7-0.8,10.4c-0.3,2.5-0.8,5.1-1.2,7.6
				c-0.3-0.9-1.4-4.4-1.5-4.7c-1.4-3.3-5.7-8.8-9.1-8.6c-2.4,0.2-3.7,2.8-3,5.6c0.6,2.7,3.1,4.9,5.2,6.1c2.4,1.4,7.9,1.7,8.4,1.7
				c-0.2,1.2-0.4,2.3-0.6,3.5c-0.7,3.8-1.5,7.6-2.1,11.3c-0.2,1.3-0.4,2.6-0.6,3.9c-0.4-1.4-1.2-3.8-1.3-4c-1.4-3.3-5.7-8.8-9.1-8.6
				c-2.4,0.2-3.7,2.8-3,5.6c0.6,2.7,3.1,4.9,5.2,6.1s6.8,1.6,8.1,1.7c-0.3,2.2-0.5,4.3-0.7,6.5c0,0.9-0.1,1.9-0.1,2.8s0,1.8,0,2.7
				c0,1.9,0.1,3.6,0.1,5.3c0,0.9,0.1,1.7,0.1,2.5c-0.2-1.4-0.7-3.7-0.7-3.9c-1-3.4-4.6-9.6-8-9.9c-2.4-0.2-4.1,2.1-3.8,4.9
				c0.3,2.8,2.5,5.3,4.4,6.9c2.2,1.7,7.5,3,8.1,3.2c0.1,2.1,0.2,4.1,0.3,6c0.4,5.4,0.9,10,1.3,13.4h2.3c-0.5-3.3-1-8-1.5-13.4
				c-0.2-1.7-0.3-3.5-0.4-5.4c0.6,0,5.6-0.3,7.8-1.5c1.2,1.6,2.4,3,3.8,4.5c-0.9,1.7-1.8,3.3-2.6,4.9c-2.2,4.3-3.9,8.1-5.2,11h2.6
				c1.1-2.7,2.6-6,4.4-9.7C530.6,336.4,531.3,334.8,531.9,333.5z"/>
			<path class="st3" d="M586,275.1c1.3-2.3,0.6-5.3-1.5-6.8c-3.1-2-8.4,0.8-10.5,3.1c-0.2,0.2-2.6,3.7-2.6,3.7s5.7,2.9,8.3,2.9
				C582,278,584.8,277.3,586,275.1z"/>
		</g>
		<g id="Plants--inject-125_2_">
			<path class="st4" d="M190.3,254.4c-1.7-1.5-3.6-3.9-3.5-6.7c0.1-2.7,2.1-5.2,4.5-5.1c3.4,0.2,6.1,6.1,6.6,9.5
				c0.1,0.3,0.3,5,0.2,5C198.2,257.2,192.4,256.1,190.3,254.4z"/>
			<path class="st0" d="M188.1,339.1c-0.6,0.4-5.4,3.5-7.9,3.9c-2.3,0.3-5.2,0-6.6-2c-1.5-2.2-1.1-5.2,0.9-6.9
				c2.9-2.4,8.5-0.3,10.8,1.7c0.1,0.1,1.7,1.9,2.5,2.8c-0.5-0.9-0.9-1.8-1.5-2.8c-0.7-1.4-1.5-2.8-2.3-4.2l-1.3-2.1
				c-0.4-0.7-0.9-1.3-1.4-2c-0.7-1-1.5-1.9-2.2-3c-1.2,1.1-4.9,4.2-7.1,4.9c-2.2,0.7-5.2,0.9-6.9-0.8c-1.8-1.9-1.8-4.9,0-6.9
				c2.6-2.9,8.5-1.8,11.1-0.3c0.1,0.1,0.6,0.4,1.2,0.9c-0.8-0.9-1.5-1.9-2.3-2.8c-2.2-2.6-4.6-5.1-7.1-7.6l-1.5-1.6
				c-1,0.9-5.1,4.3-7.3,5s-5.2,0.9-6.9-0.8c-1.8-1.9-1.8-4.9,0-6.9c2.6-2.9,8.5-1.8,11.1-0.3c0.1,0.1,0.7,0.5,1.4,1.1
				c-1.3-1.4-2.6-2.8-3.8-4.3c-2.1-2.5-4.1-5.2-5.8-8c-0.4,0.3-5,4.4-7.5,5.2c-2.2,0.7-5.2,0.9-6.9-0.8c-1.8-1.9-1.8-4.9,0-6.9
				c2.6-2.9,8.5-1.8,11.1-0.3c0.2,0.1,2.4,1.8,3.1,2.5l-0.1-0.1c-1.7-2.9-3.1-5.9-4.3-9.1c-1.1-2.9-2-5.8-2.7-8.7
				c-0.7-2.8-1.2-5.4-1.7-7.7c-0.2-1.3-0.4-2.4-0.6-3.5v0.1c0,0.1-2.3-3.6-2.4-3.9c-1.4-2.9-2.5-9.8-0.1-12.8
				c0.2-0.3,0.5-0.7,0.9-0.9c1.6-1.2,3.9-0.9,5.1,0.8c1.5,1.9,1.5,5.3,0.9,8c-0.6,2.7-3.5,7.4-4.2,8.6c0.2,1.1,0.4,2.3,0.7,3.6
				c0.5,2.3,1,4.9,1.8,7.6c0.2,0.7,0.4,1.5,0.7,2.3c-0.2-1.4-0.3-3.3-0.3-3.5c0-3.5,1.8-10.4,5-12c2.3-1.2,4.5,0.4,5,3
				s-0.9,5.7-2.4,7.9c-1.6,2.2-6,5.2-7,5.8c0.5,1.7,1.1,3.3,1.8,5c1.2,3.1,2.7,6,4.4,8.8l0.2-0.1c-0.3-1.2-0.8-3.9-0.8-4.1
				c-0.3-3.4,0.8-10.5,4-12.4c2.2-1.4,4.6-0.2,5.4,2.4c0.7,2.5-0.4,5.8-1.7,8.1c-1.5,2.6-6.5,6.6-6.6,6.7c1.7,2.6,3.7,5.2,5.8,7.6
				c1.5,1.8,3.1,3.4,4.8,5.1c-0.2-0.9-0.9-4.3-0.9-4.6c-0.3-3.4,0.8-10.5,4-12.5c2.2-1.4,4.6-0.1,5.4,2.4c0.7,2.5-0.4,5.8-1.7,8.1
				c-1.5,2.6-6.2,6.4-6.6,6.7l2.2,2.3c2.5,2.4,4.9,4.9,7.3,7.5c0.8,0.9,1.6,1.8,2.4,2.7c-0.3-1.3-0.8-3.7-0.8-3.9
				c-0.3-3.4,0.8-10.5,4-12.5c2.2-1.4,4.6-0.1,5.4,2.4c0.7,2.5-0.4,5.8-1.7,8.1c-1.3,2.3-5.2,5.6-6.4,6.5c1.3,1.5,2.5,3,3.7,4.6
				c0.4,0.7,1,1.4,1.5,2.1l1.3,2.1c0.9,1.5,1.7,2.8,2.4,4.2c0.4,0.7,0.7,1.3,1.1,2c-0.5-1.3-1.2-3.3-1.2-3.5
				c-0.8-3.3-0.5-10.4,2.3-12.8c0.3-0.3,0.7-0.6,1.2-0.7c1.8-0.7,3.9,0.2,4.6,2.1c0.1,0.3,0.2,0.6,0.3,0.9c2,1.9,3.5,4.4,4.3,7.1
				c0.1,0.2,0.5,2.8,0.6,4.1c0.1-1.1,0.2-2.2,0.2-3.4c0.1-1.7,0.2-3.5,0.2-5.2c0-0.9,0-1.8,0-2.7c0-0.9-0.1-1.8-0.1-2.7
				c-0.1-1.3-0.2-2.7-0.3-4c-1.5,0.2-5.7,0.6-7.9-0.2c-2.1-0.8-4.5-2.6-5-5.2s0.8-5.5,3.3-6.2c3.4-0.9,7.5,3.9,8.8,6.9
				c0,0.1,0.3,0.8,0.5,1.6c-0.2-1.3-0.3-2.6-0.5-4c-0.5-3.8-1.2-7.5-1.8-11.4c-0.1-0.8-0.3-1.6-0.4-2.4c-1.2,0.1-5.9,0.6-8.1-0.2
				s-4.5-2.6-5-5.2s0.8-5.5,3.3-6.2c3.4-0.9,7.5,3.9,8.8,6.9c0.1,0.1,0.3,0.9,0.6,1.8c-0.3-2.1-0.6-4.2-0.9-6.2
				c-0.4-3.6-0.7-7.2-0.7-10.8c-0.4,0.1-6,0.8-8.3-0.2c-2.1-0.8-4.5-2.6-5-5.2s0.8-5.5,3.3-6.2c3.4-0.9,7.5,3.9,8.8,6.9
				c0.1,0.2,1,3.1,1.3,4.2v-0.1c0.1-3.6,0.4-7.2,1-10.8c0.5-3.2,1.2-6.4,2.1-9.5c0.8-2.9,1.6-5.6,2.4-7.9c0.4-1.3,0.8-2.4,1.2-3.5
				H203c0,0,0-4.7,0-5c0.3-3.5,2.7-10.3,6-11.4c2.4-0.8,4.5,1,4.7,3.7s-1.4,5.7-3.1,7.7c-1.7,2-6.2,4.4-7.4,5
				c-0.4,1.1-0.8,2.3-1.2,3.6c-0.7,2.3-1.5,5-2.2,7.9c-0.2,0.8-0.4,1.6-0.6,2.4c0.6-1.3,1.3-3.1,1.4-3.3c1.6-3.1,6.4-8.1,9.7-7.4
				c2.4,0.5,3.4,3.3,2.5,6s-3.4,4.5-5.7,5.5s-7.2,0.8-8.2,0.7c-0.4,1.8-0.7,3.7-1,5.6c-0.5,3.5-0.8,7.1-0.8,10.7h0.2
				c0.4-1.3,1.2-4,1.3-4.2c1.4-3.3,5.7-8.8,9.1-8.6c2.4,0.2,3.7,2.8,3,5.6c-0.6,2.7-3.1,4.9-5.2,6.1c-2.4,1.4-8.2,1.7-8.4,1.7
				c0.1,3.5,0.4,7,0.8,10.4c0.3,2.5,0.8,5.1,1.2,7.6c0.3-0.9,1.4-4.4,1.5-4.7c1.4-3.3,5.7-8.8,9.1-8.6c2.4,0.2,3.7,2.8,3,5.6
				c-0.6,2.7-3.1,4.9-5.2,6.1c-2.4,1.4-7.9,1.7-8.4,1.7c0.2,1.2,0.4,2.3,0.6,3.5c0.7,3.8,1.5,7.6,2.1,11.3c0.2,1.3,0.4,2.6,0.6,3.9
				c0.4-1.4,1.2-3.8,1.3-4c1.4-3.3,5.7-8.8,9.1-8.6c2.4,0.2,3.7,2.8,3,5.6c-0.6,2.7-3.1,4.9-5.2,6.1c-2.1,1.2-6.8,1.6-8.1,1.7
				c0.3,2.2,0.5,4.3,0.7,6.5c0,0.9,0.1,1.9,0.1,2.8s0,1.8,0,2.7c0,1.9-0.1,3.6-0.1,5.3c0,0.9-0.1,1.7-0.1,2.5
				c0.2-1.4,0.7-3.7,0.7-3.9c1-3.4,4.6-9.6,8-9.9c2.4-0.2,4.1,2.1,3.8,4.9s-2.5,5.3-4.4,6.9c-2.2,1.7-7.5,3-8.1,3.2
				c-0.1,2.1-0.2,4.1-0.3,6c-0.4,5.4-0.9,10-1.3,13.4h-2.3c0.5-3.3,1-8,1.5-13.4c0.2-1.7,0.3-3.5,0.4-5.4c-0.6,0-5.6-0.3-7.8-1.5
				c-1.2,1.6-2.4,3-3.8,4.5c0.9,1.7,1.8,3.3,2.6,4.9c2.2,4.3,3.9,8.1,5.2,11h-2.6c-1.1-2.7-2.6-6-4.4-9.7
				C189.4,342,188.7,340.4,188.1,339.1z"/>
			<path class="st0" d="M134,280.7c-1.3-2.3-0.6-5.3,1.5-6.8c3.1-2,8.4,0.8,10.5,3.1c0.2,0.2,2.6,3.7,2.6,3.7s-5.7,2.9-8.3,2.9
				C138,283.6,135.2,282.9,134,280.7z"/>
			<path class="st3" d="M190.3,254.4c-1.7-1.5-3.6-3.9-3.5-6.7c0.1-2.7,2.1-5.2,4.5-5.1c3.4,0.2,6.1,6.1,6.6,9.5
				c0.1,0.3,0.3,5,0.2,5C198.2,257.2,192.4,256.1,190.3,254.4z"/>
			<path class="st3" d="M188.1,339.1c-0.6,0.4-5.4,3.5-7.9,3.9c-2.3,0.3-5.2,0-6.6-2c-1.5-2.2-1.1-5.2,0.9-6.9
				c2.9-2.4,8.5-0.3,10.8,1.7c0.1,0.1,1.7,1.9,2.5,2.8c-0.5-0.9-0.9-1.8-1.5-2.8c-0.7-1.4-1.5-2.8-2.3-4.2l-1.3-2.1
				c-0.4-0.7-0.9-1.3-1.4-2c-0.7-1-1.5-1.9-2.2-3c-1.2,1.1-4.9,4.2-7.1,4.9c-2.2,0.7-5.2,0.9-6.9-0.8c-1.8-1.9-1.8-4.9,0-6.9
				c2.6-2.9,8.5-1.8,11.1-0.3c0.1,0.1,0.6,0.4,1.2,0.9c-0.8-0.9-1.5-1.9-2.3-2.8c-2.2-2.6-4.6-5.1-7.1-7.6l-1.5-1.6
				c-1,0.9-5.1,4.3-7.3,5s-5.2,0.9-6.9-0.8c-1.8-1.9-1.8-4.9,0-6.9c2.6-2.9,8.5-1.8,11.1-0.3c0.1,0.1,0.7,0.5,1.4,1.1
				c-1.3-1.4-2.6-2.8-3.8-4.3c-2.1-2.5-4.1-5.2-5.8-8c-0.4,0.3-5,4.4-7.5,5.2c-2.2,0.7-5.2,0.9-6.9-0.8c-1.8-1.9-1.8-4.9,0-6.9
				c2.6-2.9,8.5-1.8,11.1-0.3c0.2,0.1,2.4,1.8,3.1,2.5l-0.1-0.1c-1.7-2.9-3.1-5.9-4.3-9.1c-1.1-2.9-2-5.8-2.7-8.7
				c-0.7-2.8-1.2-5.4-1.7-7.7c-0.2-1.3-0.4-2.4-0.6-3.5v0.1c0,0.1-2.3-3.6-2.4-3.9c-1.4-2.9-2.5-9.8-0.1-12.8
				c0.2-0.3,0.5-0.7,0.9-0.9c1.6-1.2,3.9-0.9,5.1,0.8c1.5,1.9,1.5,5.3,0.9,8c-0.6,2.7-3.5,7.4-4.2,8.6c0.2,1.1,0.4,2.3,0.7,3.6
				c0.5,2.3,1,4.9,1.8,7.6c0.2,0.7,0.4,1.5,0.7,2.3c-0.2-1.4-0.3-3.3-0.3-3.5c0-3.5,1.8-10.4,5-12c2.3-1.2,4.5,0.4,5,3
				s-0.9,5.7-2.4,7.9c-1.6,2.2-6,5.2-7,5.8c0.5,1.7,1.1,3.3,1.8,5c1.2,3.1,2.7,6,4.4,8.8l0.2-0.1c-0.3-1.2-0.8-3.9-0.8-4.1
				c-0.3-3.4,0.8-10.5,4-12.4c2.2-1.4,4.6-0.2,5.4,2.4c0.7,2.5-0.4,5.8-1.7,8.1c-1.5,2.6-6.5,6.6-6.6,6.7c1.7,2.6,3.7,5.2,5.8,7.6
				c1.5,1.8,3.1,3.4,4.8,5.1c-0.2-0.9-0.9-4.3-0.9-4.6c-0.3-3.4,0.8-10.5,4-12.5c2.2-1.4,4.6-0.1,5.4,2.4c0.7,2.5-0.4,5.8-1.7,8.1
				c-1.5,2.6-6.2,6.4-6.6,6.7l2.2,2.3c2.5,2.4,4.9,4.9,7.3,7.5c0.8,0.9,1.6,1.8,2.4,2.7c-0.3-1.3-0.8-3.7-0.8-3.9
				c-0.3-3.4,0.8-10.5,4-12.5c2.2-1.4,4.6-0.1,5.4,2.4c0.7,2.5-0.4,5.8-1.7,8.1c-1.3,2.3-5.2,5.6-6.4,6.5c1.3,1.5,2.5,3,3.7,4.6
				c0.4,0.7,1,1.4,1.5,2.1l1.3,2.1c0.9,1.5,1.7,2.8,2.4,4.2c0.4,0.7,0.7,1.3,1.1,2c-0.5-1.3-1.2-3.3-1.2-3.5
				c-0.8-3.3-0.5-10.4,2.3-12.8c0.3-0.3,0.7-0.6,1.2-0.7c1.8-0.7,3.9,0.2,4.6,2.1c0.1,0.3,0.2,0.6,0.3,0.9c2,1.9,3.5,4.4,4.3,7.1
				c0.1,0.2,0.5,2.8,0.6,4.1c0.1-1.1,0.2-2.2,0.2-3.4c0.1-1.7,0.2-3.5,0.2-5.2c0-0.9,0-1.8,0-2.7c0-0.9-0.1-1.8-0.1-2.7
				c-0.1-1.3-0.2-2.7-0.3-4c-1.5,0.2-5.7,0.6-7.9-0.2c-2.1-0.8-4.5-2.6-5-5.2s0.8-5.5,3.3-6.2c3.4-0.9,7.5,3.9,8.8,6.9
				c0,0.1,0.3,0.8,0.5,1.6c-0.2-1.3-0.3-2.6-0.5-4c-0.5-3.8-1.2-7.5-1.8-11.4c-0.1-0.8-0.3-1.6-0.4-2.4c-1.2,0.1-5.9,0.6-8.1-0.2
				s-4.5-2.6-5-5.2s0.8-5.5,3.3-6.2c3.4-0.9,7.5,3.9,8.8,6.9c0.1,0.1,0.3,0.9,0.6,1.8c-0.3-2.1-0.6-4.2-0.9-6.2
				c-0.4-3.6-0.7-7.2-0.7-10.8c-0.4,0.1-6,0.8-8.3-0.2c-2.1-0.8-4.5-2.6-5-5.2s0.8-5.5,3.3-6.2c3.4-0.9,7.5,3.9,8.8,6.9
				c0.1,0.2,1,3.1,1.3,4.2v-0.1c0.1-3.6,0.4-7.2,1-10.8c0.5-3.2,1.2-6.4,2.1-9.5c0.8-2.9,1.6-5.6,2.4-7.9c0.4-1.3,0.8-2.4,1.2-3.5
				H203c0,0,0-4.7,0-5c0.3-3.5,2.7-10.3,6-11.4c2.4-0.8,4.5,1,4.7,3.7s-1.4,5.7-3.1,7.7c-1.7,2-6.2,4.4-7.4,5
				c-0.4,1.1-0.8,2.3-1.2,3.6c-0.7,2.3-1.5,5-2.2,7.9c-0.2,0.8-0.4,1.6-0.6,2.4c0.6-1.3,1.3-3.1,1.4-3.3c1.6-3.1,6.4-8.1,9.7-7.4
				c2.4,0.5,3.4,3.3,2.5,6s-3.4,4.5-5.7,5.5s-7.2,0.8-8.2,0.7c-0.4,1.8-0.7,3.7-1,5.6c-0.5,3.5-0.8,7.1-0.8,10.7h0.2
				c0.4-1.3,1.2-4,1.3-4.2c1.4-3.3,5.7-8.8,9.1-8.6c2.4,0.2,3.7,2.8,3,5.6c-0.6,2.7-3.1,4.9-5.2,6.1c-2.4,1.4-8.2,1.7-8.4,1.7
				c0.1,3.5,0.4,7,0.8,10.4c0.3,2.5,0.8,5.1,1.2,7.6c0.3-0.9,1.4-4.4,1.5-4.7c1.4-3.3,5.7-8.8,9.1-8.6c2.4,0.2,3.7,2.8,3,5.6
				c-0.6,2.7-3.1,4.9-5.2,6.1c-2.4,1.4-7.9,1.7-8.4,1.7c0.2,1.2,0.4,2.3,0.6,3.5c0.7,3.8,1.5,7.6,2.1,11.3c0.2,1.3,0.4,2.6,0.6,3.9
				c0.4-1.4,1.2-3.8,1.3-4c1.4-3.3,5.7-8.8,9.1-8.6c2.4,0.2,3.7,2.8,3,5.6c-0.6,2.7-3.1,4.9-5.2,6.1c-2.1,1.2-6.8,1.6-8.1,1.7
				c0.3,2.2,0.5,4.3,0.7,6.5c0,0.9,0.1,1.9,0.1,2.8s0,1.8,0,2.7c0,1.9-0.1,3.6-0.1,5.3c0,0.9-0.1,1.7-0.1,2.5
				c0.2-1.4,0.7-3.7,0.7-3.9c1-3.4,4.6-9.6,8-9.9c2.4-0.2,4.1,2.1,3.8,4.9s-2.5,5.3-4.4,6.9c-2.2,1.7-7.5,3-8.1,3.2
				c-0.1,2.1-0.2,4.1-0.3,6c-0.4,5.4-0.9,10-1.3,13.4h-2.3c0.5-3.3,1-8,1.5-13.4c0.2-1.7,0.3-3.5,0.4-5.4c-0.6,0-5.6-0.3-7.8-1.5
				c-1.2,1.6-2.4,3-3.8,4.5c0.9,1.7,1.8,3.3,2.6,4.9c2.2,4.3,3.9,8.1,5.2,11h-2.6c-1.1-2.7-2.6-6-4.4-9.7
				C189.4,342,188.7,340.4,188.1,339.1z"/>
			<path class="st3" d="M134,280.7c-1.3-2.3-0.6-5.3,1.5-6.8c3.1-2,8.4,0.8,10.5,3.1c0.2,0.2,2.6,3.7,2.6,3.7s-5.7,2.9-8.3,2.9
				C138,283.6,135.2,282.9,134,280.7z"/>
		</g>
	</g>
	<g>
		<g>
			<path class="st5" d="M296.9,52c0-17.4-14.1-31.5-31.5-31.6c-17.4,0-31.5,14.1-31.6,31.5c0,14.4,9.7,27,23.7,30.6l7.5,13.1
				l7.2-12.8C286.7,79.5,296.9,66.7,296.9,52z"/>
			<path class="st0" d="M268.4,68.4v5.2h-4.6v-5c-4.1-0.1-8.1-1.4-11.6-3.7l2.6-5.7c2.7,1.9,5.8,3,9,3.3v-7.8c-5.1-1.2-11-3-11-9.6
				c0-4.9,3.6-9.1,11-10V30h4.6v5c3.3,0.2,6.5,1.2,9.4,2.8l-2.3,5.7c-2.2-1.3-4.6-2.1-7.1-2.4V49c5.1,1.2,10.8,2.9,10.8,9.5
				C279.2,63.3,275.7,67.5,268.4,68.4z M263.7,47.9v-6.6c-2.5,0.5-3.4,1.9-3.4,3.4C260.3,46.2,261.7,47.2,263.7,47.9L263.7,47.9z
				 M271.7,59c0-1.6-1.3-2.5-3.3-3.2v6.4C270.7,61.7,271.7,60.5,271.7,59L271.7,59z"/>
		</g>
		<g>
			<g>
				<g id="character-2--inject-1_2_">
					<polygon class="st6" points="199,132 216,369 393.4,348.3 343.6,122.3 					"/>
					<polygon class="st7" points="199,132 173.4,356.8 216,369 					"/>
				</g>
				<polygon class="st8" points="216,369 199,132 173.4,356.8 				"/>
			</g>
			<path class="st9" d="M248.9,144.5c0,0,10.1,42.9,38.1,47c28.1,4.1,36.3-56.8,36.3-56.8"/>
			<circle class="st5" cx="248.9" cy="143.4" r="5.3"/>
		</g>
	</g>
	<g>
		<g id="Device--inject-1_1_">
			<path class="st10" d="M362.7,38.5h156.9c6,0,10.8,4.9,10.8,10.8v300.1c0,6-4.9,10.8-10.8,10.8H362.7c-6,0-10.8-4.9-10.8-10.8
				v-300C351.8,43.4,356.7,38.5,362.7,38.5z"/>
			<path class="st11" d="M354.4,38.5h156.9c6,0,10.8,4.9,10.8,10.8v300.1c0,6-4.9,10.8-10.8,10.8H354.4c-6,0-10.8-4.9-10.8-10.8
				v-300C343.6,43.4,348.4,38.5,354.4,38.5z"/>
			<path class="st5" d="M445.2,57.7H423c-1.3,0-2.3-1-2.3-2.3l0,0l0,0c0-1.3,1-2.3,2.3-2.3h22.2c1.3,0,2.3,1,2.3,2.3l0,0l0,0
				C447.5,56.7,446.5,57.7,445.2,57.7L445.2,57.7z"/>
			<path class="st5" d="M510.8,58.1v273.4h-156V58h37l4.1,3.4c1.5,1.2,3.3,1.9,5.2,1.9h65.2c2,0,3.9-0.7,5.3-2l3.8-3.2
				C475.4,58.1,510.8,58.1,510.8,58.1z"/>
			<path class="st12" d="M510.8,331.5h-156V58h37l4.1,3.4c1.5,1.2,3.3,1.9,5.2,1.9h65.2c2,0,3.9-0.7,5.3-2l3.8-3.2h35.4L510.8,331.5
				L510.8,331.5z"/>
			<path class="st5" d="M437.8,339.9c0-2-1.6-3.6-3.6-3.6s-3.6,1.6-3.6,3.6s1.6,3.6,3.6,3.6l0,0
				C436.2,343.5,437.8,341.9,437.8,339.9C437.8,340,437.8,340,437.8,339.9z"/>
		</g>
		<g>
			<polygon class="st13" points="510.8,189.3 510.8,224.3 403.6,331.5 368.5,331.5 			"/>
			<polygon class="st13" points="510.8,75.9 510.8,133.5 354.8,289.4 354.8,231.9 			"/>
		</g>
	</g>
	<g>
		<path class="st11" d="M533,244.1H321.9c-4.7,0-8.5-3.8-8.5-8.5V116.5c0-4.7,3.8-8.5,8.5-8.5H533c4.7,0,8.5,3.8,8.5,8.5v119.1
			C541.4,240.3,537.6,244.1,533,244.1z"/>
		<g>
			<path class="st0" d="M368.1,131.5h-4.5v-2.1H375v2.1h-4.5v11.3H368v-11.3H368.1z"/>
			<path class="st0" d="M388.8,129.4v13.4h-2.5V137h-6.9v5.8h-2.5v-13.4h2.5v5.5h6.9v-5.5H388.8z"/>
			<path class="st0" d="M401.2,139.8h-6.7l-1.3,3.1h-2.6l6-13.4h2.5l6.1,13.4h-2.6L401.2,139.8z M400.3,137.8l-2.5-5.9l-2.5,5.9
				H400.3z"/>
			<path class="st0" d="M418.8,129.4v13.4h-2.1l-7.4-9.1v9.1h-2.5v-13.4h2.1l7.4,9.1v-9.1H418.8z"/>
			<path class="st0" d="M427,137.2l-2.1,2.2v3.4h-2.5v-13.4h2.5v6.9l6.6-6.9h2.8l-5.6,6l6,7.4h-2.9L427,137.2z"/>
			<path class="st0" d="M447.4,138.1v4.7H445v-4.7l-5.3-8.7h2.7l3.9,6.5l4-6.5h2.5L447.4,138.1z"/>
			<path class="st0" d="M456.3,142.2c-1.1-0.6-2-1.4-2.6-2.5s-0.9-2.2-0.9-3.5s0.3-2.5,0.9-3.5c0.6-1.1,1.5-1.9,2.6-2.5
				s2.3-0.9,3.7-0.9s2.6,0.3,3.7,0.9c1.1,0.6,2,1.4,2.6,2.5s0.9,2.2,0.9,3.5s-0.3,2.5-0.9,3.5s-1.5,1.9-2.6,2.5s-2.3,0.9-3.7,0.9
				S457.4,142.8,456.3,142.2z M462.5,140.3c0.7-0.4,1.3-1,1.7-1.7s0.6-1.5,0.6-2.4s-0.2-1.7-0.6-2.4s-1-1.3-1.7-1.7
				s-1.5-0.6-2.4-0.6s-1.7,0.2-2.4,0.6c-0.7,0.4-1.3,1-1.7,1.7s-0.6,1.5-0.6,2.4s0.2,1.7,0.6,2.4s1,1.3,1.7,1.7s1.5,0.6,2.4,0.6
				S461.7,140.7,462.5,140.3z"/>
			<path class="st0" d="M471.4,141.5c-1-1-1.6-2.5-1.6-4.5v-7.6h2.5v7.5c0,2.6,1.1,4,3.4,4s3.4-1.3,3.4-4v-7.5h2.5v7.6
				c0,1.9-0.5,3.4-1.5,4.5c-1,1-2.5,1.6-4.3,1.6S472.4,142.5,471.4,141.5z"/>
			<path class="st0" d="M484.8,142.6c-0.3-0.3-0.4-0.6-0.4-1.1c0-0.4,0.1-0.8,0.4-1.1s0.7-0.4,1.1-0.4s0.8,0.1,1.1,0.4
				c0.3,0.3,0.4,0.6,0.4,1.1c0,0.4-0.1,0.8-0.4,1.1s-0.6,0.4-1.1,0.4C485.5,143,485.1,142.9,484.8,142.6z M484.5,129.4h2.8l-0.5,9
				H485L484.5,129.4z"/>
		</g>
		<g>
			<path d="M359.3,164.6v2.9h-0.6v-2.9l-3.4-5.6h0.7l3.1,5l3.1-5h0.6L359.3,164.6z"/>
			<path d="M364.2,167.2c-0.5-0.3-0.9-0.7-1.1-1.1s-0.4-1-0.4-1.7c0-0.6,0.1-1.2,0.4-1.7s0.7-0.9,1.1-1.1c0.5-0.3,1-0.4,1.6-0.4
				s1.1,0.1,1.6,0.4c0.5,0.3,0.9,0.7,1.1,1.1c0.3,0.5,0.4,1,0.4,1.7c0,0.6-0.1,1.2-0.4,1.7s-0.7,0.9-1.1,1.1c-0.5,0.3-1,0.4-1.6,0.4
				S364.7,167.5,364.2,167.2z M367.1,166.7c0.4-0.2,0.7-0.5,0.9-0.9s0.3-0.9,0.3-1.4s-0.1-1-0.3-1.4s-0.5-0.7-0.9-0.9
				s-0.8-0.3-1.3-0.3s-0.9,0.1-1.3,0.3s-0.7,0.5-0.9,0.9s-0.3,0.9-0.3,1.4s0.1,1,0.3,1.4s0.5,0.7,0.9,0.9s0.8,0.3,1.3,0.3
				S366.8,166.9,367.1,166.7z"/>
			<path d="M376.4,161.2v6.3h-0.6v-1.4c-0.2,0.4-0.5,0.8-0.9,1s-0.9,0.4-1.5,0.4c-0.8,0-1.5-0.2-1.9-0.7c-0.5-0.5-0.7-1.1-0.7-2
				v-3.7h0.6v3.7c0,0.7,0.2,1.3,0.5,1.6c0.4,0.4,0.9,0.6,1.5,0.6c0.7,0,1.3-0.2,1.7-0.7c0.4-0.4,0.6-1,0.6-1.8v-3.4L376.4,161.2
				L376.4,161.2z"/>
			<path d="M380.5,161.5c0.4-0.2,0.9-0.4,1.5-0.4v0.6h-0.1c-0.7,0-1.3,0.2-1.6,0.7c-0.4,0.4-0.6,1.1-0.6,1.8v3.3H379v-6.3h0.6v1.4
				C379.8,162.1,380.1,161.8,380.5,161.5z"/>
			<path d="M387.7,167.2c-0.5-0.3-0.9-0.7-1.1-1.1s-0.4-1-0.4-1.7c0-0.6,0.1-1.2,0.4-1.7s0.7-0.9,1.1-1.1c0.5-0.3,1-0.4,1.6-0.4
				s1.1,0.1,1.6,0.4c0.5,0.3,0.9,0.7,1.1,1.1c0.3,0.5,0.4,1,0.4,1.7c0,0.6-0.1,1.2-0.4,1.7s-0.7,0.9-1.1,1.1c-0.5,0.3-1,0.4-1.6,0.4
				S388.2,167.5,387.7,167.2z M390.7,166.7c0.4-0.2,0.7-0.5,0.9-0.9s0.3-0.9,0.3-1.4s-0.1-1-0.3-1.4s-0.5-0.7-0.9-0.9
				s-0.8-0.3-1.3-0.3s-0.9,0.1-1.3,0.3s-0.7,0.5-0.9,0.9s-0.3,0.9-0.3,1.4s0.1,1,0.3,1.4s0.5,0.7,0.9,0.9s0.8,0.3,1.3,0.3
				S390.3,166.9,390.7,166.7z"/>
			<path d="M395.9,161.5c0.4-0.2,0.9-0.4,1.5-0.4v0.6h-0.1c-0.7,0-1.3,0.2-1.6,0.7c-0.4,0.4-0.6,1.1-0.6,1.8v3.3h-0.6v-6.3h0.6v1.4
				C395.2,162.1,395.5,161.8,395.9,161.5z"/>
			<path d="M404.7,158.6v9h-0.6v-1.5c-0.2,0.5-0.6,0.9-1.1,1.1c-0.5,0.3-1,0.4-1.5,0.4c-0.6,0-1.1-0.1-1.6-0.4s-0.9-0.7-1.1-1.1
				c-0.3-0.5-0.4-1-0.4-1.7c0-0.6,0.1-1.2,0.4-1.7s0.6-0.9,1.1-1.1s1-0.4,1.6-0.4s1.1,0.1,1.5,0.4c0.4,0.3,0.8,0.6,1.1,1.1v-4.1
				H404.7z M402.8,166.7c0.4-0.2,0.7-0.5,0.9-0.9s0.3-0.9,0.3-1.4s-0.1-1-0.3-1.4s-0.5-0.7-0.9-0.9s-0.8-0.3-1.3-0.3
				s-0.9,0.1-1.3,0.3s-0.7,0.5-0.9,0.9s-0.3,0.9-0.3,1.4s0.1,1,0.3,1.4s0.5,0.7,0.9,0.9s0.8,0.3,1.3,0.3S402.4,166.9,402.8,166.7z"
				/>
			<path d="M412.6,164.5h-5.4c0,0.5,0.1,0.9,0.4,1.3c0.2,0.4,0.6,0.7,1,0.9s0.9,0.3,1.4,0.3c0.4,0,0.8-0.1,1.1-0.2
				c0.4-0.1,0.6-0.4,0.9-0.7l0.4,0.4c-0.3,0.3-0.6,0.6-1,0.8s-0.9,0.3-1.4,0.3c-0.6,0-1.2-0.1-1.7-0.4c-0.5-0.3-0.9-0.7-1.2-1.1
				c-0.3-0.5-0.4-1-0.4-1.7c0-0.6,0.1-1.2,0.4-1.7s0.6-0.9,1.1-1.1s1-0.4,1.6-0.4s1.1,0.1,1.5,0.4s0.8,0.6,1.1,1.1
				c0.3,0.5,0.4,1,0.4,1.6L412.6,164.5z M408.4,162c-0.4,0.2-0.6,0.5-0.9,0.8c-0.2,0.4-0.3,0.8-0.4,1.2h4.9c0-0.5-0.1-0.9-0.4-1.2
				c-0.2-0.4-0.5-0.6-0.9-0.8s-0.8-0.3-1.2-0.3C409.1,161.7,408.7,161.8,408.4,162z"/>
			<path d="M415.9,161.5c0.4-0.2,0.9-0.4,1.5-0.4v0.6h-0.1c-0.7,0-1.3,0.2-1.6,0.7c-0.4,0.4-0.6,1.1-0.6,1.8v3.3h-0.6v-6.3h0.6v1.4
				C415.2,162.1,415.5,161.8,415.9,161.5z"/>
			<path d="M422.3,159.5c-0.1-0.1-0.1-0.2-0.1-0.3s0-0.3,0.1-0.4c0.1-0.1,0.2-0.1,0.4-0.1c0.1,0,0.3,0,0.4,0.1s0.1,0.2,0.1,0.3
				s0,0.3-0.1,0.4c-0.1,0.1-0.2,0.1-0.4,0.1C422.5,159.7,422.4,159.6,422.3,159.5z M422.4,161.2h0.6v6.3h-0.6V161.2z"/>
			<path d="M425.7,167.4c-0.5-0.2-0.8-0.3-1.1-0.6l0.3-0.5c0.3,0.2,0.6,0.4,1,0.5s0.8,0.2,1.3,0.2c0.6,0,1.1-0.1,1.4-0.3
				s0.5-0.5,0.5-0.9c0-0.3-0.1-0.5-0.2-0.6c-0.2-0.2-0.4-0.3-0.6-0.3c-0.2-0.1-0.6-0.1-1-0.2c-0.5-0.1-0.9-0.2-1.2-0.3
				c-0.3-0.1-0.6-0.3-0.8-0.5c-0.2-0.2-0.3-0.6-0.3-1c0-0.5,0.2-0.9,0.6-1.2s1-0.5,1.8-0.5c0.4,0,0.8,0.1,1.2,0.2s0.7,0.3,1,0.4
				l-0.3,0.5c-0.3-0.2-0.6-0.3-0.9-0.4c-0.3-0.1-0.7-0.1-1-0.1c-0.6,0-1,0.1-1.3,0.3s-0.4,0.5-0.4,0.9c0,0.3,0.1,0.5,0.3,0.7
				s0.4,0.3,0.6,0.4c0.2,0.1,0.6,0.2,1,0.2c0.5,0.1,0.9,0.2,1.2,0.3s0.6,0.3,0.8,0.5c0.2,0.2,0.3,0.5,0.3,0.9c0,0.5-0.2,0.9-0.7,1.3
				s-1.1,0.5-1.8,0.5C426.6,167.6,426.1,167.5,425.7,167.4z"/>
			<path d="M435.3,167.2c-0.5-0.3-0.9-0.7-1.1-1.1s-0.4-1-0.4-1.7c0-0.6,0.1-1.2,0.4-1.7s0.7-0.9,1.1-1.1s1-0.4,1.6-0.4
				c0.5,0,1,0.1,1.4,0.3s0.8,0.5,1,0.9l-0.4,0.3c-0.2-0.3-0.5-0.6-0.8-0.7s-0.7-0.2-1.1-0.2c-0.5,0-0.9,0.1-1.3,0.3
				s-0.7,0.5-0.9,0.9s-0.3,0.9-0.3,1.4s0.1,1,0.3,1.4c0.2,0.4,0.5,0.7,0.9,0.9s0.8,0.3,1.3,0.3c0.4,0,0.8-0.1,1.1-0.2
				s0.6-0.4,0.8-0.7l0.4,0.3c-0.3,0.4-0.6,0.7-1,0.9s-0.9,0.3-1.4,0.3C436.3,167.6,435.8,167.5,435.3,167.2z"/>
			<path d="M441.9,167.2c-0.5-0.3-0.9-0.7-1.1-1.1s-0.4-1-0.4-1.7c0-0.6,0.1-1.2,0.4-1.7s0.7-0.9,1.1-1.1c0.5-0.3,1-0.4,1.6-0.4
				s1.1,0.1,1.6,0.4c0.5,0.3,0.9,0.7,1.1,1.1c0.3,0.5,0.4,1,0.4,1.7c0,0.6-0.1,1.2-0.4,1.7s-0.7,0.9-1.1,1.1c-0.5,0.3-1,0.4-1.6,0.4
				S442.4,167.5,441.9,167.2z M444.8,166.7c0.4-0.2,0.7-0.5,0.9-0.9s0.3-0.9,0.3-1.4s-0.1-1-0.3-1.4s-0.5-0.7-0.9-0.9
				s-0.8-0.3-1.3-0.3s-0.9,0.1-1.3,0.3s-0.7,0.5-0.9,0.9s-0.3,0.9-0.3,1.4s0.1,1,0.3,1.4s0.5,0.7,0.9,0.9s0.8,0.3,1.3,0.3
				S444.5,166.9,444.8,166.7z"/>
			<path d="M453.6,161.9c0.5,0.5,0.7,1.1,0.7,2v3.7h-0.6v-3.7c0-0.7-0.2-1.3-0.5-1.6c-0.4-0.4-0.9-0.6-1.5-0.6
				c-0.7,0-1.3,0.2-1.8,0.7s-0.6,1-0.6,1.8v3.4h-0.6v-6.3h0.6v1.4c0.2-0.4,0.5-0.8,1-1c0.4-0.3,0.9-0.4,1.5-0.4
				C452.5,161.2,453.1,161.4,453.6,161.9z"/>
			<path d="M457.5,160.3v0.9h2v0.5h-2v5.8h-0.6v-5.8h-1.2v-0.5h1.2v-1c0-0.5,0.2-1,0.5-1.3s0.7-0.5,1.3-0.5c0.2,0,0.5,0,0.7,0.1
				s0.4,0.2,0.6,0.3l-0.2,0.5c-0.3-0.2-0.6-0.4-1-0.4C457.9,159,457.5,159.5,457.5,160.3z M461.6,159.5c-0.1-0.1-0.1-0.2-0.1-0.3
				s0-0.3,0.1-0.4c0.1-0.1,0.2-0.1,0.4-0.1s0.3,0,0.4,0.1s0.1,0.2,0.1,0.3s0,0.3-0.1,0.4c-0.1,0.1-0.2,0.1-0.4,0.1
				S461.7,159.6,461.6,159.5z M461.7,161.2h0.6v6.3h-0.6V161.2z"/>
			<path d="M466.4,161.5c0.4-0.2,0.9-0.4,1.5-0.4v0.6h-0.1c-0.7,0-1.3,0.2-1.6,0.7c-0.4,0.4-0.6,1.1-0.6,1.8v3.3H465v-6.3h0.6v1.4
				C465.6,162.1,465.9,161.8,466.4,161.5z"/>
			<path d="M479.3,161.9c0.4,0.5,0.7,1.1,0.7,2v3.7h-0.6v-3.7c0-0.7-0.2-1.3-0.5-1.6c-0.3-0.4-0.8-0.6-1.5-0.6s-1.3,0.2-1.7,0.7
				c-0.4,0.4-0.6,1-0.6,1.8v3.4h-0.6v-3.7c0-0.7-0.2-1.3-0.5-1.6c-0.3-0.4-0.8-0.6-1.5-0.6s-1.3,0.2-1.7,0.7c-0.4,0.4-0.6,1-0.6,1.8
				v3.4h-0.6v-6.3h0.6v1.4c0.2-0.4,0.5-0.8,0.9-1s0.9-0.4,1.5-0.4s1.1,0.1,1.5,0.4s0.7,0.6,0.9,1.1c0.2-0.5,0.5-0.8,1-1.1
				s1-0.4,1.6-0.4C478.2,161.2,478.8,161.4,479.3,161.9z"/>
			<path d="M487.8,164.5h-5.4c0,0.5,0.1,0.9,0.4,1.3c0.2,0.4,0.6,0.7,1,0.9s0.9,0.3,1.4,0.3c0.4,0,0.8-0.1,1.1-0.2
				c0.4-0.1,0.6-0.4,0.9-0.7l0.4,0.4c-0.3,0.3-0.6,0.6-1,0.8s-0.9,0.3-1.4,0.3c-0.6,0-1.2-0.1-1.7-0.4c-0.5-0.3-0.9-0.7-1.2-1.1
				c-0.3-0.5-0.4-1-0.4-1.7c0-0.6,0.1-1.2,0.4-1.7s0.6-0.9,1.1-1.1s1-0.4,1.6-0.4s1.1,0.1,1.5,0.4s0.8,0.6,1.1,1.1
				c0.3,0.5,0.4,1,0.4,1.6L487.8,164.5z M483.6,162c-0.4,0.2-0.6,0.5-0.9,0.8c-0.2,0.4-0.3,0.8-0.4,1.2h4.9c0-0.5-0.1-0.9-0.4-1.2
				c-0.2-0.4-0.5-0.6-0.9-0.8s-0.8-0.3-1.2-0.3C484.4,161.7,484,161.8,483.6,162z"/>
			<path d="M495.3,158.6v9h-0.6v-1.5c-0.2,0.5-0.6,0.9-1.1,1.1c-0.5,0.3-1,0.4-1.5,0.4c-0.6,0-1.1-0.1-1.6-0.4s-0.9-0.7-1.1-1.1
				c-0.3-0.5-0.4-1-0.4-1.7c0-0.6,0.1-1.2,0.4-1.7s0.6-0.9,1.1-1.1s1-0.4,1.6-0.4s1.1,0.1,1.5,0.4c0.4,0.3,0.8,0.6,1.1,1.1v-4.1
				H495.3z M493.5,166.7c0.4-0.2,0.7-0.5,0.9-0.9s0.3-0.9,0.3-1.4s-0.1-1-0.3-1.4s-0.5-0.7-0.9-0.9s-0.8-0.3-1.3-0.3
				s-0.9,0.1-1.3,0.3s-0.7,0.5-0.9,0.9s-0.3,0.9-0.3,1.4s0.1,1,0.3,1.4s0.5,0.7,0.9,0.9s0.8,0.3,1.3,0.3S493.1,166.9,493.5,166.7z"
				/>
		</g>
		<g>
			<g>
				<path class="st0" d="M497.5,214.8H404c-7.3,0-13.3-6-13.3-13.3l0,0c0-7.3,6-13.3,13.3-13.3h93.5c7.3,0,13.3,6,13.3,13.3l0,0
					C510.8,208.9,504.8,214.8,497.5,214.8z"/>
				<g>
					<path class="st14" d="M406.4,204c-0.5-0.3-0.9-0.7-1.2-1.2c-0.3-0.5-0.4-1.1-0.4-1.7s0.1-1.2,0.4-1.7s0.7-0.9,1.2-1.2
						s1.1-0.4,1.8-0.4c0.5,0,1,0.1,1.4,0.3s0.8,0.4,1.1,0.8l-0.8,0.7c-0.5-0.5-1-0.8-1.7-0.8c-0.4,0-0.8,0.1-1.2,0.3
						c-0.3,0.2-0.6,0.5-0.8,0.8c-0.2,0.3-0.3,0.7-0.3,1.2s0.1,0.8,0.3,1.2c0.2,0.3,0.5,0.6,0.8,0.8s0.7,0.3,1.2,0.3
						c0.7,0,1.3-0.3,1.7-0.8l0.8,0.7c-0.3,0.3-0.7,0.6-1.1,0.8s-0.9,0.3-1.4,0.3C407.5,204.4,407,204.3,406.4,204z"/>
					<path class="st14" d="M419.4,197.9v6.4h-1.2v-2.8h-3.3v2.8h-1.2v-6.4h1.2v2.7h3.3v-2.7H419.4z"/>
					<path class="st14" d="M427.8,203.3v1H423v-6.4h4.7v1h-3.5v1.7h3.1v1h-3.1v1.8h3.6V203.3z"/>
					<path class="st14" d="M432.2,204c-0.5-0.3-0.9-0.7-1.2-1.2c-0.3-0.5-0.4-1.1-0.4-1.7s0.1-1.2,0.4-1.7s0.7-0.9,1.2-1.2
						s1.1-0.4,1.8-0.4c0.5,0,1,0.1,1.4,0.3s0.8,0.4,1.1,0.8l-0.8,0.7c-0.5-0.5-1-0.8-1.7-0.8c-0.4,0-0.8,0.1-1.2,0.3
						c-0.3,0.2-0.6,0.5-0.8,0.8c-0.2,0.3-0.3,0.7-0.3,1.2s0.1,0.8,0.3,1.2c0.2,0.3,0.5,0.6,0.8,0.8s0.7,0.3,1.2,0.3
						c0.7,0,1.3-0.3,1.7-0.8l0.8,0.7c-0.3,0.3-0.7,0.6-1.1,0.8s-0.9,0.3-1.4,0.3C433.3,204.4,432.7,204.3,432.2,204z"/>
					<path class="st14" d="M441.7,201.7l-1,1v1.6h-1.2v-6.4h1.2v3.3l3.2-3.3h1.3l-2.7,2.9l2.9,3.6H444L441.7,201.7z"/>
					<path class="st14" d="M452.9,204.2c-0.5-0.1-0.8-0.3-1.1-0.6l0.4-0.9c0.3,0.2,0.6,0.4,1,0.5s0.8,0.2,1.2,0.2
						c0.5,0,0.8-0.1,1.1-0.2c0.2-0.2,0.4-0.4,0.4-0.6c0-0.2-0.1-0.3-0.2-0.5c-0.1-0.1-0.3-0.2-0.5-0.3s-0.5-0.1-0.8-0.2
						c-0.5-0.1-0.9-0.2-1.2-0.3c-0.3-0.1-0.6-0.3-0.8-0.5c-0.2-0.2-0.3-0.6-0.3-1s0.1-0.7,0.3-1c0.2-0.3,0.5-0.5,0.9-0.7
						s0.9-0.3,1.4-0.3c0.4,0,0.8,0,1.2,0.1c0.4,0.1,0.7,0.2,1,0.4l-0.4,0.9c-0.3-0.2-0.6-0.3-0.9-0.4c-0.3-0.1-0.6-0.1-0.9-0.1
						c-0.5,0-0.8,0.1-1.1,0.2s-0.3,0.4-0.3,0.6c0,0.2,0.1,0.3,0.2,0.4c0.1,0.1,0.3,0.2,0.5,0.3s0.5,0.1,0.8,0.2
						c0.5,0.1,0.9,0.2,1.2,0.3c0.3,0.1,0.6,0.3,0.8,0.5c0.2,0.2,0.3,0.6,0.3,1s-0.1,0.7-0.3,1c-0.2,0.3-0.5,0.5-0.9,0.7
						s-0.9,0.3-1.4,0.3C453.9,204.4,453.4,204.4,452.9,204.2z"/>
					<path class="st14" d="M461.2,198.9h-2.1v-1h5.5v1h-2.1v5.4h-1.2L461.2,198.9L461.2,198.9z"/>
					<path class="st14" d="M471.1,202.9h-3.2l-0.6,1.5H466l2.9-6.4h1.2l2.9,6.4h-1.2L471.1,202.9z M470.7,201.9l-1.2-2.8l-1.2,2.8
						H470.7z"/>
					<path class="st14" d="M476.6,198.9h-2.1v-1h5.5v1h-2.1v5.4h-1.2L476.6,198.9L476.6,198.9z"/>
					<path class="st14" d="M483.3,203.7c-0.5-0.5-0.7-1.2-0.7-2.1V198h1.2v3.6c0,1.3,0.5,1.9,1.6,1.9s1.6-0.6,1.6-1.9V198h1.2v3.6
						c0,0.9-0.2,1.6-0.7,2.1s-1.2,0.7-2.1,0.7S483.8,204.2,483.3,203.7z"/>
					<path class="st14" d="M492.2,204.2c-0.5-0.1-0.8-0.3-1.1-0.6l0.4-0.9c0.3,0.2,0.6,0.4,1,0.5s0.8,0.2,1.2,0.2
						c0.5,0,0.8-0.1,1.1-0.2c0.2-0.2,0.4-0.4,0.4-0.6c0-0.2-0.1-0.3-0.2-0.5c-0.1-0.1-0.3-0.2-0.5-0.3s-0.5-0.1-0.8-0.2
						c-0.5-0.1-0.9-0.2-1.2-0.3c-0.3-0.1-0.6-0.3-0.8-0.5c-0.2-0.2-0.3-0.6-0.3-1s0.1-0.7,0.3-1c0.2-0.3,0.5-0.5,0.9-0.7
						s0.9-0.3,1.4-0.3c0.4,0,0.8,0,1.2,0.1c0.4,0.1,0.7,0.2,1,0.4l-0.4,0.9c-0.3-0.2-0.6-0.3-0.9-0.4c-0.3-0.1-0.6-0.1-0.9-0.1
						c-0.5,0-0.8,0.1-1.1,0.2s-0.3,0.4-0.3,0.6c0,0.2,0.1,0.3,0.2,0.4c0.1,0.1,0.3,0.2,0.5,0.3s0.5,0.1,0.8,0.2
						c0.5,0.1,0.9,0.2,1.2,0.3c0.3,0.1,0.6,0.3,0.8,0.5c0.2,0.2,0.3,0.6,0.3,1s-0.1,0.7-0.3,1c-0.2,0.3-0.5,0.5-0.9,0.7
						s-0.9,0.3-1.4,0.3C493.2,204.4,492.7,204.4,492.2,204.2z"/>
				</g>
			</g>
			<g>
				<ellipse class="st0" cx="361.7" cy="201.5" rx="17" ry="17"/>
				<ellipse class="st13" cx="361.7" cy="201.5" rx="17" ry="17"/>
				<g>
					<ellipse class="st15" cx="361.8" cy="201.5" rx="11" ry="11"/>
					<polyline class="st12" points="356.8,200.2 361,206.1 368.6,196.4 					"/>
				</g>
			</g>
		</g>
	</g>
	<g>
		<g>
			<g id="character-2--inject-1_3_">
				<polygon class="st7" points="267.7,244.1 276.9,372.4 373,361.3 346,238.8 				"/>
				<polygon class="st7" points="267.7,244.1 253.9,365.9 276.9,372.4 				"/>
			</g>
			<polygon class="st8" points="276.9,372.4 267.5,245.6 253.9,365.9 			"/>
		</g>
		<path class="st9" d="M296.1,250.2c0,0,7.3,22.4,22.5,23.3s13-25.9,13-25.9"/>
		<path class="st5" d="M298.1,250.2c0,1.1-0.9,2-2,2s-2-0.9-2-2s0.9-2,2-2S298.1,249.1,298.1,250.2z"/>
		<path class="st5" d="M333.3,247.6c0,1.1-0.9,2-2,2s-2-0.9-2-2s0.9-2,2-2S333.3,246.5,333.3,247.6z"/>
	</g>
</g>
</svg>
