<?xml version="1.0" encoding="utf-8"?>
<!-- Generator: Adobe Illustrator 25.2.0, SVG Export Plug-In . SVG Version: 6.00 Build 0)  -->
<svg version="1.1" id="Layer_1" xmlns="http://www.w3.org/2000/svg" xmlns:xlink="http://www.w3.org/1999/xlink" x="0px" y="0px"
	 viewBox="0 0 720 400" style="enable-background:new 0 0 720 400;" xml:space="preserve">
<style type="text/css">
	.st0{fill:#7703FC;}
	.st1{opacity:0.7;fill:#FFFFFF;}
	.st2{fill:none;stroke:#1A2E35;stroke-linecap:round;stroke-linejoin:round;stroke-miterlimit:10;}
	.st3{fill:#1A2E35;}
	.st4{clip-path:url(#XMLID_3_);fill:#7703FC;}
	.st5{opacity:0.4;clip-path:url(#XMLID_3_);fill:#FFFFFF;}
	.st6{fill:#FFFFFF;stroke:#1A2E35;stroke-linecap:round;stroke-linejoin:round;stroke-miterlimit:10;}
	.st7{fill:#1A2E35;stroke:#1A2E35;stroke-linecap:round;stroke-linejoin:round;stroke-miterlimit:10;}
	.st8{fill:#7703FC;stroke:#1A2E35;stroke-linecap:round;stroke-linejoin:round;stroke-miterlimit:10;}
	.st9{fill:none;stroke:#FFFFFF;stroke-width:2;stroke-miterlimit:10;}
	.st10{fill:#FFFFFF;}
	.st11{fill:none;stroke:#1A2E35;stroke-width:2;stroke-linecap:round;stroke-linejoin:round;stroke-miterlimit:10;}
	.st12{fill:#1A2E35;stroke:#FFFFFF;stroke-linecap:round;stroke-linejoin:round;stroke-miterlimit:10;}
	.st13{fill:#E4D4FC;}
	.st14{opacity:0.4;fill:#FFFFFF;}
</style>
<rect class="st0" width="720" height="400"/>
<rect class="st1" width="720" height="400"/>
<g>
	<line class="st2" x1="125.5" y1="213.6" x2="554.2" y2="213.6"/>
	<g>
		<ellipse class="st3" cx="178.9" cy="240.1" rx="36.4" ry="13.5"/>
		<g>
			<g>
				<g>
					<defs>
						<path id="XMLID_176_" d="M157.6,197.5l5.1,41.2c0,6.6,12.3,12,27.5,12c15.2,0,27.5-5.4,27.5-12l5.1-41.2H157.6z"/>
					</defs>
					<use xlink:href="#XMLID_176_"  style="overflow:visible;fill:#FFFFFF;"/>
					<clipPath id="XMLID_3_">
						<use xlink:href="#XMLID_176_"  style="overflow:visible;"/>
					</clipPath>
					<path class="st4" d="M185.5,197.5h-27.9l5.1,41.2c0,6.6,12.3,12,27.5,12c1,0,2,0,2.9-0.1C184.5,235.3,184.3,212.7,185.5,197.5z
						"/>
					<path class="st5" d="M185.5,197.5h-27.9l5.1,41.2c0,6.6,12.3,12,27.5,12c1,0,2,0,2.9-0.1C184.5,235.3,184.3,212.7,185.5,197.5z
						"/>
					
						<use xlink:href="#XMLID_176_"  style="overflow:visible;fill:none;stroke:#1A2E35;stroke-linecap:round;stroke-linejoin:round;stroke-miterlimit:10;"/>
				</g>
				<ellipse class="st6" cx="190.2" cy="197.5" rx="32.6" ry="14.2"/>
				<ellipse class="st7" cx="190.2" cy="197.1" rx="29.1" ry="12.3"/>
				<g>
					<g>
						<path class="st2" d="M192.5,198.4c0,0-2.6-24-18.8-42.2c-16.2-18.2-12.2-15.9-12.2-15.9"/>
						<path class="st2" d="M221.6,127.1c0,0-19.5,19.5-22.7,41.5c-3.2,22.1-1.2,25.6-1.2,25.6"/>
						<path class="st2" d="M195.6,197.1c0,0-3.8-13.6-7.7-40.8c-3.9-27.2-1.9-41.5-1.9-41.5"/>
						<path class="st0" d="M163.1,147.7c0,0-5.4,5.9-13.8-5.7c-8.4-11.6-5.6-25-5.6-25s4.3,6.5,10.7,9.2
							C160.9,129,170.3,144.6,163.1,147.7z"/>
						<path class="st0" d="M186,121.2c0,0-7.8,1.9-8.4-12.3c-0.6-14.3,9.1-24,9.1-24s0,7.8,3.9,13.6
							C194.4,104.4,193.8,122.5,186,121.2z"/>
						<path class="st0" d="M218.1,134.3c0,0-7.6-2.6-0.3-14.9c7.3-12.3,20.7-15.1,20.7-15.1s-4.3,6.5-4.2,13.5
							C234.4,124.8,223.9,139.6,218.1,134.3z"/>
						<path class="st0" d="M195.1,195.2c0,0,5.2-23.4,16.2-34.4c11-11,24.6-10.4,24.6-10.4s-13,5.2-16.9,15.6s-10.4,33.1-10.4,33.1
							h-32.4c0,0-3.9-8.4-14.9-18.2c-11-9.7-29.2-16.2-29.2-16.2s20.1-7.1,34.4-1.3c14.3,5.8,24.6,30.5,24.6,30.5L195.1,195.2z"/>
					</g>
					<path class="st0" d="M200.1,195.1c0,0-12.9-8.8-26.9-7.4c-14,1.5-15.2,12.9-15.8,16.2c-0.6,3.3-0.6,5.9-0.6,5.9
						s18.1-5.5,29.3-7.4C197.1,200.6,201.8,205.8,200.1,195.1z"/>
					<path class="st0" d="M195.3,195.1c0,0,8.1-8.8,16.9-7.4c8.8,1.5,9.6,12.9,9.9,16.2c0.4,3.3,0.4,5.9,0.4,5.9s-11.4-5.5-18.4-7.4
						C197.1,200.6,194.2,205.8,195.3,195.1z"/>
				</g>
			</g>
		</g>
	</g>
	<g>
		<g id="XMLID_1_">
			<path id="XMLID_149_" class="st7" d="M497.9,233.5H234.6V61.2c0-4.5,3.6-8.1,8.1-8.1h247c4.5,0,8.1,3.6,8.1,8.1V233.5z"/>
			<polygon id="XMLID_146_" class="st6" points="537.4,313.2 195.2,313.2 234.6,233.5 497.9,233.5 			"/>
			<rect id="XMLID_145_" x="250.6" y="67.4" class="st8" width="231.3" height="151.8"/>
			<g>
				
					<ellipse transform="matrix(0.7071 -0.7071 0.7071 0.7071 -21.7784 250.7086)" class="st3" cx="291.7" cy="151.6" rx="32.7" ry="32.7"/>
				
					<ellipse transform="matrix(0.7071 -0.7071 0.7071 0.7071 0.3553 304.1441)" class="st3" cx="367.3" cy="151.6" rx="32.7" ry="32.7"/>
				
					<ellipse transform="matrix(0.9739 -0.2269 0.2269 0.9739 -22.8587 104.4649)" class="st3" cx="442.9" cy="151.6" rx="32.7" ry="32.7"/>
				<g>
					<path class="st6" d="M269.3,143.3c0,0,14.4-39.4,22.9-39.4c8.5,0,23.3,38.9,23.3,38.9l-2.5,0.2c0,0-14.6-34.1-19-36.2
						c-4.3-2.1-12.4,10.3-22.2,36.4H269.3z"/>
					<path class="st6" d="M315.5,173.1h-46.2c-1.9,0-3.5-1.5-3.5-3.5v-24.3c0-2.4,1.9-4.3,4.3-4.3h44.4c2.4,0,4.3,1.9,4.3,4.3v24.3
						C318.9,171.5,317.4,173.1,315.5,173.1z"/>
					<line class="st6" x1="266.3" y1="158.2" x2="314.4" y2="158.2"/>
					<path class="st6" d="M316.4,142.2c0,0-1.1,1.4-1.1,5.3c0,3.9-1.4,24.5-1.1,25.4c0.2,0.9,1.6,0.2,1.6,0.2"/>
					<rect x="288.5" y="153.6" class="st6" width="3.7" height="8.2"/>
				</g>
				<g>
					<path class="st6" d="M338.7,132.5c0,0,15.3-1.3,33.2-1.3s26.4,1.1,26.6,2.2c0.2,1.1-2.4,15.5-2.4,16.8s0,19.9-0.4,21
						c-0.4,1.1-2.4,2-3.3,2.2c-0.9,0.2-47.4,0.7-48.7,0.7s-2.4-1.3-2.4-2.7s0.7-15.9-0.4-21.3C339.6,144.9,338.7,132.5,338.7,132.5z
						"/>
					<path class="st6" d="M355.1,139.8c0,0-0.2-17.5,1.6-23.5c1.8-6,7.3-8.9,11.7-8.9c4.4,0,12.6,3.5,14.8,12.2
						c2.2,8.6,0.4,19.5,0.2,20.6c-0.2,1.1-2.7,4.2-3.1-1.8c-0.4-6,0.4-19.9-1.3-23.9c-1.8-4-6.9-6.9-11.5-5.8
						c-4.7,1.1-7.1,3.1-8,8.9c-0.9,5.8,0.9,19-0.2,21.9C358.2,142.5,355.5,143.8,355.1,139.8z"/>
					<path class="st6" d="M342.9,132.7c0,0-1.1,11.7-1.1,16.2c0,4.4-0.2,7.3-0.2,7.3"/>
					<path class="st2" d="M394.7,133c0,0,0.4,11.7,0.4,18.6"/>
				</g>
				<g>
					<g>
						<path class="st6" d="M451.8,130.7c-0.5,0-1-0.4-1.1-1c-2.2-13.7-4.9-28.7-6.3-33.6c-2.1,4.6-6.6,19.3-10.4,32.7
							c-0.2,0.6-0.8,1-1.4,0.8c-0.6-0.2-1-0.8-0.8-1.4c0-0.1,2.4-8.6,5-17.1c5.5-17.7,6.5-18.1,7.3-18.4c0.4-0.1,0.9-0.1,1.2,0.2
							c0.6,0.4,1.4,1,4.7,19c1.6,8.7,3,17.3,3,17.4c0.1,0.6-0.3,1.2-1,1.3C452,130.7,451.9,130.7,451.8,130.7z"/>
					</g>
					<path class="st6" d="M415.1,126.9c0,0,22.5-1.4,30.3-1.1c7.8,0.3,21.5,1.2,21.5,2c0,0.9-0.3,29.4-1.1,35.1
						c-0.8,5.7-4.8,12.8-8.3,14.1c-3.5,1.3-15.3,0.8-21.3,0.6c-6-0.2-11.5-1-14.2-4.9c-2.7-3.9-4.7-20.1-4.7-20.1L415.1,126.9z"/>
					<path class="st6" d="M433,133.1c0.1-1.3-0.9-2.3-2.2-2.4c-1.3-0.1-2.3,0.9-2.4,2.2c-0.1,1.3,0.9,2.3,2.2,2.4
						C431.9,135.4,433,134.4,433,133.1z"/>
					
						<ellipse transform="matrix(0.164 -0.9865 0.9865 0.164 245.7188 558.3111)" class="st6" cx="452.3" cy="134.2" rx="2.3" ry="2.3"/>
					<path class="st6" d="M419.1,164.8c0,0,16.2-1.4,45.8,0.1"/>
				</g>
				<g>
					<rect x="254.2" y="71.9" class="st3" width="223.4" height="18.2"/>
					<line class="st9" x1="362.5" y1="82.2" x2="384.7" y2="82.2"/>
					<line class="st9" x1="410.3" y1="82.2" x2="432.4" y2="82.2"/>
					<g>
						<path class="st10" d="M470.6,76.6c-0.1-0.1-0.2-0.2-0.4-0.2H458l-0.5-1.4c-0.1-0.2-0.2-0.3-0.4-0.3h-3.1
							c-0.3,0-0.5,0.2-0.5,0.5s0.2,0.5,0.5,0.5h2.7l3,8.9c0.1,0.2,0.2,0.3,0.4,0.3h0.2c-0.2,0.3-0.3,0.6-0.3,0.9
							c0,0.9,0.7,1.6,1.6,1.6c0.9,0,1.6-0.7,1.6-1.6c0-0.3-0.1-0.6-0.3-0.9h2.3c-0.2,0.3-0.3,0.6-0.3,0.9c0,0.9,0.7,1.6,1.6,1.6
							c0.9,0,1.6-0.7,1.6-1.6c0-0.3-0.1-0.6-0.3-0.9h0.4c0.3,0,0.5-0.2,0.5-0.5c0-0.3-0.2-0.5-0.5-0.5h-7.9l-0.5-1.6h8.8
							c0.2,0,0.4-0.1,0.5-0.3l1.3-5C470.7,76.8,470.7,76.7,470.6,76.6z M461.7,86.4c-0.4,0-0.7-0.3-0.7-0.7c0-0.4,0.3-0.7,0.7-0.7
							c0.4,0,0.7,0.3,0.7,0.7C462.4,86.1,462.1,86.4,461.7,86.4z M466.7,86.4c-0.4,0-0.7-0.3-0.7-0.7c0-0.4,0.3-0.7,0.7-0.7
							c0.4,0,0.7,0.3,0.7,0.7C467.4,86.1,467.1,86.4,466.7,86.4z M468,81.4h-1.7v-4.1h1.7V81.4z M463.6,77.3h1.7v4.1h-1.7V77.3z
							 M462.6,81.4h-1.7v-4.1h1.7V81.4z M458.4,77.3h1.6v4.1h-0.2L458.4,77.3z M468.9,79.7v-2.4h0.6L468.9,79.7z"/>
						<g>
							<path class="st10" d="M474.2,76.3c0-1.9-1.5-3.4-3.4-3.4c-1.9,0-3.5,1.5-3.5,3.4c0,1.9,1.5,3.5,3.5,3.5
								C472.7,79.7,474.2,78.2,474.2,76.3z"/>
							<g>
								<path class="st3" d="M469.4,78.4c-0.1-0.1-0.1-0.2-0.2-0.3c0-0.1,0-0.2,0-0.3c0-0.1,0.1-0.2,0.2-0.3L471,76
									c0.2-0.2,0.3-0.4,0.3-0.6c0-0.1-0.1-0.3-0.2-0.4c-0.1-0.1-0.3-0.1-0.4-0.1c-0.1,0-0.2,0-0.2,0c-0.1,0-0.1,0-0.2,0.1
									c-0.1,0-0.1,0-0.2,0.1c0,0-0.1,0.1-0.2,0.1c-0.1,0-0.1,0.1-0.2,0.1c-0.1,0-0.1,0-0.2,0c-0.1,0-0.1-0.1-0.2-0.1
									c-0.1-0.1-0.1-0.1-0.1-0.2c0-0.1,0-0.2,0-0.2c0-0.1,0.1-0.1,0.2-0.2c0.5-0.3,0.9-0.4,1.4-0.4c0.4,0,0.8,0.1,1,0.4
									c0.3,0.2,0.4,0.6,0.4,0.9c0,0.2-0.1,0.5-0.2,0.7c-0.1,0.2-0.3,0.5-0.6,0.7l-1.2,1h1.6c0.1,0,0.2,0,0.2,0.1
									c0.1,0.1,0.1,0.2,0.1,0.3c0,0.1,0,0.2-0.1,0.3c-0.1,0.1-0.1,0.1-0.2,0.1h-2.3C469.6,78.5,469.5,78.5,469.4,78.4z"/>
							</g>
						</g>
					</g>
					<path class="st10" d="M344.3,86.4h-81.8c-3,0-5.4-2.4-5.4-5.4l0,0c0-3,2.4-5.4,5.4-5.4h81.8c3,0,5.4,2.4,5.4,5.4l0,0
						C349.7,83.9,347.3,86.4,344.3,86.4z"/>
				</g>
				<g>
					<line class="st11" x1="274.9" y1="194.5" x2="308.4" y2="194.5"/>
					<line class="st11" x1="274.9" y1="200.9" x2="308.4" y2="200.9"/>
				</g>
				<g>
					<line class="st11" x1="350.6" y1="194.5" x2="384" y2="194.5"/>
					<line class="st11" x1="350.6" y1="200.9" x2="384" y2="200.9"/>
				</g>
				<g>
					<line class="st11" x1="426.2" y1="194.5" x2="459.7" y2="194.5"/>
					<line class="st11" x1="426.2" y1="200.9" x2="459.7" y2="200.9"/>
				</g>
			</g>
			<g id="XMLID_6_">
				<polygon id="XMLID_144_" class="st12" points="355.3,258.7 355.7,249 341.8,249 340.9,258.7 				"/>
				<polygon id="XMLID_143_" class="st12" points="384,258.7 383.6,249 369.6,249 369.7,258.7 				"/>
				<polygon id="XMLID_142_" class="st12" points="458.9,269.1 473.8,269.1 470.3,258.7 455.9,258.7 				"/>
				<polygon id="XMLID_141_" class="st12" points="340.9,258.7 341.8,249 327.9,249 326.5,258.7 				"/>
				<polygon id="XMLID_140_" class="st12" points="312.2,258.7 314,249 300.1,249 297.8,258.7 				"/>
				<polygon id="XMLID_139_" class="st12" points="441.5,258.7 439.2,249 425.3,249 427.1,258.7 				"/>
				<polygon id="XMLID_134_" class="st12" points="455.9,258.7 453.1,249 439.2,249 441.5,258.7 				"/>
				<polygon id="XMLID_133_" class="st12" points="297.8,258.7 300.1,249 286.2,249 283.4,258.7 				"/>
				<polygon id="XMLID_131_" class="st12" points="398.4,258.7 397.5,249 383.6,249 384,258.7 				"/>
				<polygon id="XMLID_130_" class="st12" points="470.3,258.7 467,249 453.1,249 455.9,258.7 				"/>
				<polygon id="XMLID_129_" class="st12" points="427.1,258.7 425.3,249 411.4,249 412.8,258.7 				"/>
				<polygon id="XMLID_128_" class="st12" points="412.8,258.7 411.4,249 397.5,249 398.4,258.7 				"/>
				<polygon id="XMLID_93_" class="st12" points="369.7,258.7 369.6,249 355.7,249 355.3,258.7 				"/>
				<polygon id="XMLID_92_" class="st12" points="269,258.7 254.7,258.7 250.7,269.1 265.6,269.1 				"/>
				<polygon id="XMLID_91_" class="st12" points="272.3,249 258.4,249 254.7,258.7 269,258.7 				"/>
				<polygon id="XMLID_90_" class="st12" points="283.4,258.7 286.2,249 272.3,249 269,258.7 				"/>
				<polygon id="XMLID_89_" class="st12" points="246.4,280.2 241.9,292.2 257.8,292.2 261.8,280.2 				"/>
				<polygon id="XMLID_88_" class="st12" points="265.6,269.1 250.7,269.1 246.4,280.2 261.8,280.2 				"/>
				<polygon id="XMLID_79_" class="st12" points="261.8,280.2 257.8,292.2 273.8,292.2 277.2,280.2 				"/>
				<polygon id="XMLID_73_" class="st12" points="326.5,258.7 327.9,249 314,249 312.2,258.7 				"/>
				<polygon id="XMLID_72_" class="st12" points="325,269.1 326.5,258.7 312.2,258.7 310.2,269.1 				"/>
				<polygon id="XMLID_71_" class="st12" points="310.2,269.1 312.2,258.7 297.8,258.7 295.3,269.1 				"/>
				<polygon id="XMLID_70_" class="st12" points="339.9,269.1 340.9,258.7 326.5,258.7 325,269.1 				"/>
				<polygon id="XMLID_69_" class="st12" points="283.4,258.7 269,258.7 265.6,269.1 280.4,269.1 				"/>
				<polygon id="XMLID_68_" class="st12" points="462.1,280.2 477.5,280.2 473.8,269.1 458.9,269.1 				"/>
				<polygon id="XMLID_67_" class="st12" points="295.3,269.1 297.8,258.7 283.4,258.7 280.4,269.1 				"/>
				<polygon id="XMLID_66_" class="st12" points="265.6,269.1 261.8,280.2 277.2,280.2 280.4,269.1 				"/>
				<polygon id="XMLID_65_" class="st12" points="429.1,269.1 427.1,258.7 412.8,258.7 414.3,269.1 				"/>
				<polygon id="XMLID_64_" class="st12" points="414.3,269.1 412.8,258.7 398.4,258.7 399.4,269.1 				"/>
				<polygon id="XMLID_63_" class="st12" points="458.9,269.1 455.9,258.7 441.5,258.7 444,269.1 				"/>
				<polygon id="XMLID_62_" class="st12" points="369.7,269.1 369.7,258.7 355.3,258.7 354.8,269.1 				"/>
				<polygon id="XMLID_61_" class="st12" points="399.4,269.1 398.4,258.7 384,258.7 384.5,269.1 				"/>
				<polygon id="XMLID_60_" class="st12" points="384.5,269.1 384,258.7 369.7,258.7 369.7,269.1 				"/>
				<polygon id="XMLID_59_" class="st12" points="354.8,269.1 355.3,258.7 340.9,258.7 339.9,269.1 				"/>
				<polygon id="XMLID_58_" class="st12" points="399.4,269.1 400.5,280.2 415.9,280.2 414.3,269.1 				"/>
				<polygon id="XMLID_57_" class="st12" points="414.3,269.1 415.9,280.2 431.3,280.2 429.1,269.1 				"/>
				<polygon id="XMLID_56_" class="st12" points="280.4,269.1 277.2,280.2 292.7,280.2 295.3,269.1 				"/>
				<polygon id="XMLID_55_" class="st12" points="429.1,269.1 431.3,280.2 446.7,280.2 444,269.1 				"/>
				<polygon id="XMLID_54_" class="st12" points="369.7,269.1 369.7,280.2 385.1,280.2 384.5,269.1 				"/>
				<polygon id="XMLID_52_" class="st12" points="444,269.1 446.7,280.2 462.1,280.2 458.9,269.1 				"/>
				<polygon id="XMLID_50_" class="st12" points="384.5,269.1 385.1,280.2 400.5,280.2 399.4,269.1 				"/>
				<polygon id="XMLID_49_" class="st12" points="310.2,269.1 308.1,280.2 323.5,280.2 325,269.1 				"/>
				<polygon id="XMLID_48_" class="st12" points="295.3,269.1 292.7,280.2 308.1,280.2 310.2,269.1 				"/>
				<polygon id="XMLID_47_" class="st12" points="354.8,269.1 354.3,280.2 369.7,280.2 369.7,269.1 				"/>
				<polygon id="XMLID_43_" class="st12" points="339.9,269.1 338.9,280.2 354.3,280.2 354.8,269.1 				"/>
				<polygon id="XMLID_42_" class="st12" points="325,269.1 323.5,280.2 338.9,280.2 339.9,269.1 				"/>
				<polygon id="XMLID_41_" class="st12" points="444,269.1 441.5,258.7 427.1,258.7 429.1,269.1 				"/>
				<polygon id="XMLID_40_" class="st12" points="272.3,249 275.6,239 262.2,239 258.4,249 				"/>
				<polygon id="XMLID_39_" class="st12" points="258.4,249 245.5,249 241.4,258.7 254.7,258.7 				"/>
				<polygon id="XMLID_38_" class="st12" points="262.2,239 249.8,239 245.5,249 258.4,249 				"/>
				<polygon id="XMLID_37_" class="st12" points="254.7,258.7 241.4,258.7 237,269.1 250.7,269.1 				"/>
				<polygon id="XMLID_36_" class="st12" points="250.7,269.1 237,269.1 232.2,280.2 246.4,280.2 				"/>
				<polygon id="XMLID_35_" class="st12" points="246.4,280.2 232.2,280.2 227.1,292.2 241.9,292.2 				"/>
				<polygon id="XMLID_34_" class="st12" points="484.6,258.7 488.6,269.1 501.8,269.1 497.4,258.7 				"/>
				<polygon id="XMLID_33_" class="st12" points="492.9,280.2 506.5,280.2 501.8,269.1 488.6,269.1 				"/>
				<polygon id="XMLID_32_" class="st12" points="497.5,292.2 511.6,292.2 506.5,280.2 492.9,280.2 				"/>
				<polygon id="XMLID_31_" class="st12" points="383.6,249 383.1,239 369.6,239 369.6,249 				"/>
				<polygon id="XMLID_30_" class="st12" points="484.6,258.7 497.4,258.7 493.2,249 480.9,249 				"/>
				<polygon id="XMLID_29_" class="st12" points="477.5,280.2 492.9,280.2 488.6,269.1 473.8,269.1 				"/>
				<polygon id="XMLID_28_" class="st12" points="286.2,249 289,239 275.6,239 272.3,249 				"/>
				<polygon id="XMLID_27_" class="st12" points="467,249 470.3,258.7 484.6,258.7 480.9,249 				"/>
				<polygon id="XMLID_26_" class="st12" points="493.2,249 489,239 477.1,239 480.9,249 				"/>
				<polygon id="XMLID_25_" class="st12" points="480.9,249 477.1,239 463.7,239 467,249 				"/>
				<polygon id="XMLID_24_" class="st12" points="431.3,280.2 433.6,292.2 449.6,292.2 446.7,280.2 				"/>
				<polygon id="XMLID_23_" class="st12" points="481.5,292.2 497.5,292.2 492.9,280.2 477.5,280.2 				"/>
				<polygon id="XMLID_22_" class="st12" points="467,249 463.7,239 450.2,239 453.1,249 				"/>
				<polygon id="XMLID_21_" class="st12" points="462.1,280.2 465.5,292.2 481.5,292.2 477.5,280.2 				"/>
				<polygon id="XMLID_20_" class="st12" points="446.7,280.2 449.6,292.2 465.5,292.2 462.1,280.2 				"/>
				<polygon id="XMLID_19_" class="st12" points="473.8,269.1 488.6,269.1 484.6,258.7 470.3,258.7 				"/>
				<polygon id="XMLID_18_" class="st12" points="341.8,249 342.8,239 329.3,239 327.9,249 				"/>
				<polygon id="XMLID_17_" class="st12" points="453.1,249 450.2,239 436.8,239 439.2,249 				"/>
				<polygon id="XMLID_16_" class="st12" points="327.9,249 329.3,239 315.9,239 314,249 				"/>
				<polygon id="XMLID_15_" class="st12" points="369.6,249 369.6,239 356.2,239 355.7,249 				"/>
				<polygon id="XMLID_14_" class="st12" points="314,249 315.9,239 302.5,239 300.1,249 				"/>
				<polygon id="XMLID_13_" class="st12" points="300.1,249 302.5,239 289,239 286.2,249 				"/>
				<polygon id="XMLID_12_" class="st12" points="355.7,249 356.2,239 342.8,239 341.8,249 				"/>
				<polygon id="XMLID_11_" class="st12" points="439.2,249 436.8,239 423.4,239 425.3,249 				"/>
				<polygon id="XMLID_10_" class="st12" points="425.3,249 423.4,239 409.9,239 411.4,249 				"/>
				<polygon id="XMLID_9_" class="st12" points="397.5,249 396.5,239 383.1,239 383.6,249 				"/>
				<polygon id="XMLID_8_" class="st12" points="431.3,280.2 415.9,280.2 400.5,280.2 385.1,280.2 369.7,280.2 354.3,280.2 
					338.9,280.2 323.5,280.2 308.1,280.2 292.7,280.2 277.2,280.2 273.8,292.2 289.8,292.2 305.8,292.2 321.8,292.2 337.7,292.2 
					353.7,292.2 369.7,292.2 385.7,292.2 401.6,292.2 417.6,292.2 433.6,292.2 				"/>
				<polygon id="XMLID_7_" class="st12" points="411.4,249 409.9,239 396.5,239 397.5,249 				"/>
			</g>
			<rect id="XMLID_5_" x="195.2" y="313.2" class="st7" width="342.4" height="4.9"/>
		</g>
	</g>
	<g>
		<path class="st8" d="M422.7,398.9l-124,1c-2.6,0-4.5-1.6-4.2-3.5l7.9-46.5c0.2-1.5,2.3-2.7,4.5-2.7l106.2-0.5
			c2.2,0,4.3,1.2,4.6,2.6l9,46C427.1,397.3,425.3,398.9,422.7,398.9z"/>
		<line class="st2" x1="363.9" y1="355.1" x2="402.8" y2="355.1"/>
		<line class="st2" x1="343.8" y1="358.4" x2="402.8" y2="358.4"/>
		<g>
			<path class="st7" d="M342.2,386.8c-23.6,7.5-38.7,8.8-47.5,8.4l-0.3,1.7c-0.3,1.7,1.3,3,3.6,3l125.3-1c2.2,0,3.8-1.4,3.5-3.1
				l-5.4-27.7C388.7,367.3,379.2,375,342.2,386.8z"/>
		</g>
		<g>
			<path class="st6" d="M322,366.9l-9.8,0.1c-0.9,0-1.6-0.5-1.5-1.1l0.8-6.2c0.1-0.6,0.9-1.1,1.7-1.1l9.5-0.1c0.9,0,1.6,0.5,1.5,1.1
				l-0.6,6.2C323.7,366.4,322.9,366.9,322,366.9z"/>
			<path class="st6" d="M318.6,364l-2.4,0c-0.4,0-0.8-0.2-0.7-0.5l0.2-1.5c0-0.3,0.4-0.5,0.9-0.5l2.4,0c0.4,0,0.8,0.2,0.7,0.5
				l-0.2,1.5C319.4,363.7,319.1,364,318.6,364z"/>
			<path class="st2" d="M311.5,359.5l3.7,0c0.7,0,1.3,0.4,1.2,0.9l-0.1,1"/>
			<path class="st2" d="M324.3,359.4l-3.7,0c-0.7,0-1.4,0.4-1.4,0.9l-0.1,1"/>
			<path class="st2" d="M310.6,366.1l3.8,0c0.7,0,1.4-0.4,1.5-0.9l0.1-1.1"/>
			<path class="st2" d="M323.7,366l-3.8,0c-0.7,0-1.3-0.4-1.2-0.9l0.1-1.1"/>
			<line class="st2" x1="311.1" y1="362.9" x2="315.5" y2="362.9"/>
			<line class="st2" x1="319.4" y1="362.9" x2="323.9" y2="362.8"/>
		</g>
		<g>
			<g>
				<g>
					<path class="st10" d="M309.6,380c-0.2-0.1-0.4-0.2-0.5-0.3c-0.1-0.1-0.2-0.3-0.3-0.5c-0.1-0.2-0.1-0.4-0.1-0.5
						c0-0.2,0-0.4,0-0.6c0.2-1.3,0.9-2,2.2-2c1.3,0,1.9,0.7,1.7,2c0,0.2-0.1,0.4-0.1,0.6c-0.1,0.2-0.1,0.4-0.3,0.5
						c-0.1,0.2-0.3,0.3-0.4,0.5c-0.2,0.1-0.4,0.2-0.6,0.3c-0.2,0.1-0.5,0.1-0.8,0.1C310.1,380.1,309.8,380.1,309.6,380z
						 M310.9,379.6c0.1,0,0.2-0.1,0.3-0.1c0.1-0.1,0.2-0.1,0.2-0.2c0.1-0.1,0.1-0.2,0.2-0.3c0-0.1,0.1-0.2,0.1-0.3
						c0-0.1,0.1-0.2,0.1-0.3c0-0.1,0-0.2,0-0.3c0-0.1,0-0.2,0-0.3c0-0.1,0-0.2,0-0.3c0-0.1,0-0.2,0-0.3c0-0.1-0.1-0.2-0.1-0.3
						c0-0.1-0.1-0.2-0.2-0.2c-0.1-0.1-0.2-0.1-0.3-0.1c-0.1,0-0.2,0-0.4,0c-0.1,0-0.3,0-0.4,0.1c-0.1,0-0.2,0.1-0.3,0.1
						c-0.1,0.1-0.2,0.1-0.2,0.2c-0.1,0.1-0.1,0.2-0.2,0.3c0,0.1-0.1,0.2-0.1,0.3c0,0.1-0.1,0.2-0.1,0.3c0,0.1,0,0.2-0.1,0.3
						c0,0.1,0,0.2,0,0.3c0,0.1,0,0.2,0,0.3c0,0.1,0,0.2,0,0.3c0,0.1,0.1,0.2,0.1,0.3c0,0.1,0.1,0.2,0.2,0.2c0.1,0.1,0.2,0.1,0.3,0.1
						c0.1,0,0.2,0.1,0.4,0.1C310.6,379.7,310.7,379.6,310.9,379.6z"/>
					<path class="st10" d="M315.1,380c-0.2-0.1-0.4-0.2-0.5-0.3c-0.1-0.1-0.2-0.3-0.3-0.5c-0.1-0.2-0.1-0.4-0.1-0.5
						c0-0.2,0-0.4,0-0.6c0.2-1.3,0.9-2,2.2-2c1.3,0,1.9,0.7,1.7,2c0,0.2-0.1,0.4-0.1,0.6c-0.1,0.2-0.1,0.4-0.3,0.5
						c-0.1,0.2-0.2,0.3-0.4,0.5c-0.2,0.1-0.4,0.2-0.6,0.3c-0.2,0.1-0.5,0.1-0.8,0.1C315.5,380.1,315.3,380,315.1,380z M316.3,379.6
						c0.1,0,0.2-0.1,0.3-0.1c0.1-0.1,0.2-0.1,0.2-0.2c0.1-0.1,0.1-0.2,0.2-0.3c0-0.1,0.1-0.2,0.1-0.3c0-0.1,0.1-0.2,0.1-0.3
						c0-0.1,0-0.2,0-0.3c0-0.1,0-0.2,0-0.3c0-0.1,0-0.2,0-0.3c0-0.1,0-0.2,0-0.3c0-0.1-0.1-0.2-0.1-0.3c0-0.1-0.1-0.2-0.2-0.2
						c-0.1-0.1-0.2-0.1-0.3-0.1c-0.1,0-0.2,0-0.4,0c-0.1,0-0.3,0-0.4,0.1c-0.1,0-0.2,0.1-0.3,0.1c-0.1,0.1-0.2,0.1-0.2,0.2
						c-0.1,0.1-0.1,0.2-0.2,0.3c0,0.1-0.1,0.2-0.1,0.3c0,0.1-0.1,0.2-0.1,0.3c0,0.1,0,0.2,0,0.3c0,0.1,0,0.2,0,0.3
						c0,0.1,0,0.2,0,0.3c0,0.1,0,0.2,0,0.3c0,0.1,0.1,0.2,0.1,0.3c0,0.1,0.1,0.2,0.2,0.2c0.1,0.1,0.2,0.1,0.3,0.1
						c0.1,0,0.2,0.1,0.4,0.1C316,379.6,316.2,379.6,316.3,379.6z"/>
					<path class="st10" d="M320.5,379.9c-0.2-0.1-0.4-0.2-0.5-0.3c-0.1-0.1-0.2-0.3-0.3-0.5c-0.1-0.2-0.1-0.4-0.1-0.5
						c0-0.2,0-0.4,0-0.6c0.1-1.3,0.9-2,2.2-2c1.3,0,1.9,0.7,1.7,2c0,0.2-0.1,0.4-0.1,0.6c-0.1,0.2-0.1,0.4-0.2,0.5
						c-0.1,0.2-0.2,0.3-0.4,0.5c-0.2,0.1-0.4,0.2-0.6,0.3c-0.2,0.1-0.5,0.1-0.8,0.1C321,380,320.7,380,320.5,379.9z M321.7,379.5
						c0.1,0,0.2-0.1,0.3-0.1c0.1-0.1,0.2-0.1,0.2-0.2c0.1-0.1,0.1-0.2,0.2-0.3c0-0.1,0.1-0.2,0.1-0.3c0-0.1,0.1-0.2,0.1-0.3
						c0-0.1,0-0.2,0-0.3c0-0.1,0-0.2,0-0.3c0-0.1,0-0.2,0-0.3c0-0.1,0-0.2-0.1-0.3c0-0.1-0.1-0.2-0.1-0.3c0-0.1-0.1-0.2-0.2-0.2
						c-0.1-0.1-0.2-0.1-0.3-0.1c-0.1,0-0.2,0-0.4,0c-0.1,0-0.3,0-0.4,0.1c-0.1,0-0.2,0.1-0.3,0.1c-0.1,0.1-0.2,0.1-0.2,0.2
						c-0.1,0.1-0.1,0.2-0.2,0.3c0,0.1-0.1,0.2-0.1,0.3c0,0.1-0.1,0.2-0.1,0.3c0,0.1,0,0.2,0,0.3c0,0.1,0,0.2,0,0.3
						c0,0.1,0,0.2,0,0.3c0,0.1,0,0.2,0,0.3c0,0.1,0.1,0.2,0.1,0.3c0,0.1,0.1,0.2,0.2,0.2c0.1,0.1,0.2,0.1,0.3,0.1
						c0.1,0,0.2,0.1,0.4,0.1C321.5,379.6,321.6,379.6,321.7,379.5z"/>
					<path class="st10" d="M325.9,379.9c-0.2-0.1-0.4-0.2-0.5-0.3c-0.1-0.1-0.2-0.3-0.3-0.5c-0.1-0.2-0.1-0.4-0.1-0.5
						c0-0.2,0-0.4,0-0.6c0.1-1.3,0.8-2,2.1-2c1.3,0,1.9,0.7,1.8,2c0,0.2-0.1,0.4-0.1,0.6c-0.1,0.2-0.1,0.4-0.2,0.5
						c-0.1,0.2-0.2,0.3-0.4,0.5c-0.2,0.1-0.4,0.2-0.6,0.3c-0.2,0.1-0.5,0.1-0.8,0.1C326.4,380,326.2,380,325.9,379.9z M327.1,379.5
						c0.1,0,0.2-0.1,0.3-0.1c0.1-0.1,0.2-0.1,0.2-0.2c0.1-0.1,0.1-0.2,0.2-0.3c0-0.1,0.1-0.2,0.1-0.3c0-0.1,0-0.2,0.1-0.3
						c0-0.1,0-0.2,0-0.3c0-0.1,0-0.2,0-0.3c0-0.1,0-0.2,0-0.3c0-0.1,0-0.2-0.1-0.3c0-0.1-0.1-0.2-0.1-0.3c-0.1-0.1-0.1-0.2-0.2-0.2
						c-0.1-0.1-0.2-0.1-0.3-0.1c-0.1,0-0.2,0-0.4,0c-0.1,0-0.3,0-0.4,0.1c-0.1,0-0.2,0.1-0.3,0.1c-0.1,0.1-0.2,0.1-0.2,0.2
						c-0.1,0.1-0.1,0.2-0.2,0.3s-0.1,0.2-0.1,0.3c0,0.1-0.1,0.2-0.1,0.3c0,0.1,0,0.2,0,0.3c0,0.1,0,0.2,0,0.3c0,0.1,0,0.2,0,0.3
						c0,0.1,0,0.2,0.1,0.3c0,0.1,0.1,0.2,0.1,0.3c0.1,0.1,0.1,0.2,0.2,0.2c0.1,0.1,0.2,0.1,0.3,0.1c0.1,0,0.2,0.1,0.4,0.1
						C326.9,379.6,327,379.5,327.1,379.5z"/>
					<path class="st10" d="M337.5,379.8c-0.2-0.1-0.4-0.2-0.5-0.3c-0.1-0.1-0.2-0.3-0.3-0.5c-0.1-0.2-0.1-0.4-0.2-0.5
						c0-0.2,0-0.4,0-0.6c0.1-1.3,0.8-2,2.1-2c1.3,0,1.9,0.7,1.8,2c0,0.2,0,0.4-0.1,0.6c0,0.2-0.1,0.4-0.2,0.5
						c-0.1,0.2-0.2,0.3-0.4,0.5c-0.2,0.1-0.3,0.2-0.6,0.3c-0.2,0.1-0.5,0.1-0.8,0.1C338,379.9,337.7,379.9,337.5,379.8z
						 M338.7,379.4c0.1,0,0.2-0.1,0.3-0.1c0.1-0.1,0.2-0.1,0.2-0.2c0.1-0.1,0.1-0.2,0.2-0.3c0-0.1,0.1-0.2,0.1-0.3
						c0-0.1,0-0.2,0.1-0.3c0-0.1,0-0.2,0-0.3c0-0.1,0-0.2,0-0.3c0-0.1,0-0.2,0-0.3c0-0.1,0-0.2-0.1-0.3c0-0.1-0.1-0.2-0.1-0.3
						c-0.1-0.1-0.1-0.2-0.2-0.2c-0.1-0.1-0.2-0.1-0.3-0.1c-0.1,0-0.2,0-0.4,0c-0.1,0-0.3,0-0.4,0.1c-0.1,0-0.2,0.1-0.3,0.1
						c-0.1,0.1-0.2,0.1-0.2,0.2c-0.1,0.1-0.1,0.2-0.2,0.3c0,0.1-0.1,0.2-0.1,0.3c0,0.1,0,0.2-0.1,0.3c0,0.1,0,0.2,0,0.3
						c0,0.1,0,0.2,0,0.3c0,0.1,0,0.2,0,0.3c0,0.1,0,0.2,0.1,0.3c0,0.1,0.1,0.2,0.1,0.3c0.1,0.1,0.1,0.2,0.2,0.2
						c0.1,0.1,0.2,0.1,0.3,0.1c0.1,0,0.2,0.1,0.4,0.1C338.4,379.5,338.6,379.5,338.7,379.4z"/>
					<path class="st10" d="M342.9,379.8c-0.2-0.1-0.4-0.2-0.6-0.3c-0.1-0.1-0.3-0.3-0.3-0.5c-0.1-0.2-0.1-0.4-0.2-0.5
						c0-0.2,0-0.4,0-0.6c0.1-1.3,0.7-2,2-2c1.3,0,1.9,0.7,1.9,2c0,0.2,0,0.4-0.1,0.6c0,0.2-0.1,0.4-0.2,0.5
						c-0.1,0.2-0.2,0.3-0.4,0.5c-0.1,0.1-0.3,0.2-0.6,0.3c-0.2,0.1-0.5,0.1-0.8,0.1C343.4,379.9,343.1,379.9,342.9,379.8z
						 M344.1,379.4c0.1,0,0.2-0.1,0.3-0.1c0.1-0.1,0.2-0.1,0.2-0.2c0.1-0.1,0.1-0.2,0.1-0.3c0-0.1,0.1-0.2,0.1-0.3
						c0-0.1,0-0.2,0-0.3c0-0.1,0-0.2,0-0.3c0-0.1,0-0.2,0-0.3c0-0.1,0-0.2,0-0.3c0-0.1,0-0.2-0.1-0.3c0-0.1-0.1-0.2-0.1-0.3
						c-0.1-0.1-0.1-0.2-0.2-0.2c-0.1-0.1-0.2-0.1-0.3-0.1c-0.1,0-0.2,0-0.4,0c-0.1,0-0.3,0-0.4,0.1c-0.1,0-0.2,0.1-0.3,0.1
						c-0.1,0.1-0.2,0.1-0.2,0.2c-0.1,0.1-0.1,0.2-0.1,0.3c0,0.1-0.1,0.2-0.1,0.3c0,0.1,0,0.2-0.1,0.3c0,0.1,0,0.2,0,0.3
						c0,0.1,0,0.2,0,0.3c0,0.1,0,0.2,0,0.3c0,0.1,0,0.2,0.1,0.3c0,0.1,0.1,0.2,0.1,0.3c0.1,0.1,0.1,0.2,0.2,0.2
						c0.1,0.1,0.2,0.1,0.3,0.1c0.1,0,0.2,0.1,0.4,0.1C343.9,379.4,344,379.4,344.1,379.4z"/>
					<path class="st10" d="M348.3,379.8c-0.2-0.1-0.4-0.2-0.6-0.3c-0.1-0.1-0.3-0.3-0.3-0.5c-0.1-0.2-0.1-0.4-0.2-0.5
						c0-0.2,0-0.4,0-0.6c0-1.3,0.7-2,2-2c1.3,0,1.9,0.7,1.9,2c0,0.2,0,0.4-0.1,0.6c0,0.2-0.1,0.4-0.2,0.5c-0.1,0.2-0.2,0.3-0.4,0.5
						c-0.1,0.1-0.3,0.2-0.6,0.3c-0.2,0.1-0.5,0.1-0.8,0.1C348.8,379.9,348.5,379.8,348.3,379.8z M349.5,379.4c0.1,0,0.2-0.1,0.3-0.1
						c0.1-0.1,0.1-0.1,0.2-0.2c0.1-0.1,0.1-0.2,0.1-0.3c0-0.1,0.1-0.2,0.1-0.3c0-0.1,0-0.2,0-0.3c0-0.1,0-0.2,0-0.3
						c0-0.1,0-0.2,0-0.3c0-0.1,0-0.2,0-0.3c0-0.1,0-0.2-0.1-0.3c0-0.1-0.1-0.2-0.1-0.3c-0.1-0.1-0.1-0.2-0.2-0.2
						c-0.1-0.1-0.2-0.1-0.3-0.1c-0.1,0-0.2,0-0.4,0c-0.1,0-0.3,0-0.4,0.1c-0.1,0-0.2,0.1-0.3,0.1c-0.1,0.1-0.1,0.1-0.2,0.2
						c-0.1,0.1-0.1,0.2-0.1,0.3c0,0.1-0.1,0.2-0.1,0.3c0,0.1,0,0.2,0,0.3c0,0.1,0,0.2,0,0.3c0,0.1,0,0.2,0,0.3c0,0.1,0,0.2,0,0.3
						c0,0.1,0,0.2,0.1,0.3c0,0.1,0.1,0.2,0.1,0.3c0.1,0.1,0.1,0.2,0.2,0.2c0.1,0.1,0.2,0.1,0.3,0.1c0.1,0,0.2,0.1,0.4,0.1
						C349.3,379.4,349.4,379.4,349.5,379.4z"/>
					<path class="st10" d="M353.7,379.7c-0.2-0.1-0.4-0.2-0.6-0.3c-0.1-0.1-0.3-0.3-0.3-0.5c-0.1-0.2-0.2-0.4-0.2-0.5
						c0-0.2-0.1-0.4,0-0.6c0-1.3,0.7-2,2-2c1.3,0,1.9,0.7,1.9,2c0,0.2,0,0.4-0.1,0.6c0,0.2-0.1,0.4-0.2,0.5
						c-0.1,0.2-0.2,0.3-0.4,0.5c-0.1,0.1-0.3,0.2-0.6,0.3c-0.2,0.1-0.5,0.1-0.8,0.1C354.2,379.8,354,379.8,353.7,379.7z
						 M354.9,379.3c0.1,0,0.2-0.1,0.3-0.1c0.1-0.1,0.1-0.1,0.2-0.2c0.1-0.1,0.1-0.2,0.1-0.3c0-0.1,0.1-0.2,0.1-0.3
						c0-0.1,0-0.2,0-0.3c0-0.1,0-0.2,0-0.3c0-0.1,0-0.2,0-0.3c0-0.1,0-0.2,0-0.3c0-0.1,0-0.2-0.1-0.3c0-0.1-0.1-0.2-0.1-0.3
						c-0.1-0.1-0.1-0.2-0.2-0.2c-0.1-0.1-0.2-0.1-0.3-0.1s-0.2,0-0.4,0c-0.1,0-0.3,0-0.4,0.1c-0.1,0-0.2,0.1-0.3,0.1
						c-0.1,0.1-0.1,0.1-0.2,0.2c-0.1,0.1-0.1,0.2-0.1,0.3c0,0.1-0.1,0.2-0.1,0.3c0,0.1,0,0.2,0,0.3c0,0.1,0,0.2,0,0.3
						c0,0.1,0,0.2,0,0.3c0,0.1,0,0.2,0,0.3c0,0.1,0,0.2,0.1,0.3c0,0.1,0.1,0.2,0.1,0.3c0.1,0.1,0.1,0.2,0.2,0.2
						c0.1,0.1,0.2,0.1,0.3,0.1c0.1,0,0.2,0.1,0.4,0.1C354.7,379.4,354.8,379.4,354.9,379.3z"/>
					<path class="st10" d="M365.2,379.6c-0.2-0.1-0.4-0.2-0.6-0.3c-0.1-0.1-0.3-0.3-0.4-0.4c-0.1-0.2-0.2-0.4-0.2-0.5
						c0-0.2-0.1-0.4-0.1-0.6c0-1.3,0.6-2,1.9-2c1.3,0,2,0.7,2,2c0,0.2,0,0.4,0,0.6c0,0.2-0.1,0.4-0.2,0.5c-0.1,0.2-0.2,0.3-0.3,0.5
						c-0.1,0.1-0.3,0.2-0.6,0.3c-0.2,0.1-0.5,0.1-0.8,0.1C365.7,379.7,365.5,379.7,365.2,379.6z M366.4,379.2c0.1,0,0.2-0.1,0.3-0.1
						c0.1-0.1,0.1-0.1,0.2-0.2c0.1-0.1,0.1-0.2,0.1-0.3c0-0.1,0.1-0.2,0.1-0.3c0-0.1,0-0.2,0-0.3c0-0.1,0-0.2,0-0.3
						c0-0.1,0-0.2,0-0.3c0-0.1,0-0.2-0.1-0.3c0-0.1-0.1-0.2-0.1-0.3c0-0.1-0.1-0.2-0.1-0.3c-0.1-0.1-0.1-0.2-0.2-0.2
						c-0.1-0.1-0.2-0.1-0.3-0.1c-0.1,0-0.2,0-0.4,0s-0.3,0-0.4,0.1c-0.1,0-0.2,0.1-0.3,0.1c-0.1,0.1-0.1,0.1-0.2,0.2
						c-0.1,0.1-0.1,0.2-0.1,0.3c0,0.1-0.1,0.2-0.1,0.3c0,0.1,0,0.2,0,0.3c0,0.1,0,0.2,0,0.3c0,0.1,0,0.2,0,0.3c0,0.1,0,0.2,0,0.3
						c0,0.1,0.1,0.2,0.1,0.3c0,0.1,0.1,0.2,0.1,0.3c0.1,0.1,0.1,0.2,0.2,0.2c0.1,0.1,0.2,0.1,0.3,0.1c0.1,0,0.2,0.1,0.4,0.1
						C366.2,379.3,366.3,379.3,366.4,379.2z"/>
					<path class="st10" d="M370.6,379.6c-0.2-0.1-0.4-0.2-0.6-0.3c-0.1-0.1-0.3-0.3-0.4-0.4c-0.1-0.2-0.2-0.4-0.2-0.5
						c0-0.2-0.1-0.4-0.1-0.6c-0.1-1.3,0.6-2,1.9-2c1.3,0,2,0.7,2,2c0,0.2,0,0.4,0,0.6c0,0.2-0.1,0.4-0.2,0.5
						c-0.1,0.2-0.2,0.3-0.3,0.5c-0.1,0.1-0.3,0.2-0.5,0.3c-0.2,0.1-0.5,0.1-0.8,0.1C371.1,379.7,370.9,379.7,370.6,379.6z
						 M371.8,379.2c0.1,0,0.2-0.1,0.3-0.1c0.1-0.1,0.1-0.1,0.2-0.2c0.1-0.1,0.1-0.2,0.1-0.3c0-0.1,0.1-0.2,0.1-0.3
						c0-0.1,0-0.2,0-0.3c0-0.1,0-0.2,0-0.3c0-0.1,0-0.2,0-0.3c0-0.1,0-0.2-0.1-0.3c0-0.1-0.1-0.2-0.1-0.3c0-0.1-0.1-0.2-0.1-0.3
						c-0.1-0.1-0.1-0.2-0.2-0.2c-0.1-0.1-0.2-0.1-0.3-0.1c-0.1,0-0.2,0-0.4,0c-0.1,0-0.3,0-0.4,0.1c-0.1,0-0.2,0.1-0.3,0.1
						c-0.1,0.1-0.1,0.1-0.2,0.2c-0.1,0.1-0.1,0.2-0.1,0.3c0,0.1-0.1,0.2-0.1,0.3c0,0.1,0,0.2,0,0.3c0,0.1,0,0.2,0,0.3
						c0,0.1,0,0.2,0,0.3c0,0.1,0,0.2,0.1,0.3c0,0.1,0.1,0.2,0.1,0.3c0,0.1,0.1,0.2,0.1,0.3c0.1,0.1,0.1,0.2,0.2,0.2
						c0.1,0.1,0.2,0.1,0.3,0.1c0.1,0,0.2,0.1,0.4,0.1S371.7,379.2,371.8,379.2z"/>
					<path class="st10" d="M376,379.6c-0.2-0.1-0.4-0.2-0.6-0.3c-0.2-0.1-0.3-0.3-0.4-0.4c-0.1-0.2-0.2-0.4-0.2-0.5
						c0-0.2-0.1-0.4-0.1-0.6c-0.1-1.3,0.5-2,1.8-2c1.3,0,2,0.6,2.1,2c0,0.2,0,0.4,0,0.6c0,0.2-0.1,0.4-0.2,0.5
						c-0.1,0.2-0.2,0.3-0.3,0.5c-0.1,0.1-0.3,0.2-0.5,0.3c-0.2,0.1-0.5,0.1-0.8,0.1C376.5,379.7,376.3,379.6,376,379.6z
						 M377.2,379.2c0.1,0,0.2-0.1,0.3-0.1c0.1-0.1,0.1-0.1,0.2-0.2c0.1-0.1,0.1-0.2,0.1-0.3c0-0.1,0-0.2,0.1-0.3c0-0.1,0-0.2,0-0.3
						c0-0.1,0-0.2,0-0.3c0-0.1,0-0.2,0-0.3c0-0.1,0-0.2-0.1-0.3c0-0.1-0.1-0.2-0.1-0.3c0-0.1-0.1-0.2-0.2-0.3
						c-0.1-0.1-0.1-0.2-0.2-0.2c-0.1-0.1-0.2-0.1-0.3-0.1c-0.1,0-0.2,0-0.4,0c-0.1,0-0.3,0-0.4,0.1c-0.1,0-0.2,0.1-0.3,0.1
						c-0.1,0.1-0.1,0.1-0.2,0.2c-0.1,0.1-0.1,0.2-0.1,0.3c0,0.1,0,0.2-0.1,0.3c0,0.1,0,0.2,0,0.3c0,0.1,0,0.2,0,0.3
						c0,0.1,0,0.2,0,0.3c0,0.1,0,0.2,0.1,0.3c0,0.1,0.1,0.2,0.1,0.3c0,0.1,0.1,0.2,0.2,0.3c0.1,0.1,0.1,0.2,0.2,0.2
						c0.1,0.1,0.2,0.1,0.3,0.1c0.1,0,0.2,0.1,0.4,0.1C377,379.2,377.1,379.2,377.2,379.2z"/>
					<path class="st10" d="M381.4,379.5c-0.2-0.1-0.4-0.2-0.6-0.3c-0.2-0.1-0.3-0.3-0.4-0.4c-0.1-0.2-0.2-0.4-0.2-0.5
						c0-0.2-0.1-0.4-0.1-0.6c-0.1-1.3,0.5-2,1.8-2c1.3,0,2,0.6,2.1,2c0,0.2,0,0.4,0,0.6c0,0.2-0.1,0.4-0.1,0.5
						c-0.1,0.2-0.2,0.3-0.3,0.5c-0.1,0.1-0.3,0.2-0.5,0.3c-0.2,0.1-0.5,0.1-0.8,0.1C381.9,379.6,381.7,379.6,381.4,379.5z
						 M382.6,379.1c0.1,0,0.2-0.1,0.3-0.1c0.1-0.1,0.1-0.1,0.2-0.2c0.1-0.1,0.1-0.2,0.1-0.3c0-0.1,0-0.2,0.1-0.3c0-0.1,0-0.2,0-0.3
						c0-0.1,0-0.2,0-0.3c0-0.1,0-0.2,0-0.3c0-0.1,0-0.2-0.1-0.3c0-0.1-0.1-0.2-0.1-0.3c0-0.1-0.1-0.2-0.2-0.3
						c-0.1-0.1-0.1-0.2-0.2-0.2c-0.1-0.1-0.2-0.1-0.3-0.1c-0.1,0-0.2,0-0.4,0c-0.1,0-0.3,0-0.4,0.1c-0.1,0-0.2,0.1-0.3,0.1
						c-0.1,0.1-0.1,0.1-0.2,0.2c-0.1,0.1-0.1,0.2-0.1,0.3c0,0.1,0,0.2-0.1,0.3c0,0.1,0,0.2,0,0.3c0,0.1,0,0.2,0,0.3
						c0,0.1,0,0.2,0,0.3c0,0.1,0,0.2,0.1,0.3c0,0.1,0.1,0.2,0.1,0.3c0,0.1,0.1,0.2,0.2,0.3c0.1,0.1,0.1,0.2,0.2,0.2
						c0.1,0.1,0.2,0.1,0.3,0.1c0.1,0,0.2,0.1,0.4,0.1C382.3,379.2,382.5,379.2,382.6,379.1z"/>
					<path class="st10" d="M392.9,379.5c-0.2-0.1-0.4-0.2-0.6-0.3c-0.2-0.1-0.3-0.3-0.4-0.4c-0.1-0.2-0.2-0.4-0.2-0.5
						c-0.1-0.2-0.1-0.4-0.1-0.6c-0.1-1.3,0.4-2,1.7-2c1.3,0,2,0.6,2.1,2c0,0.2,0,0.4,0,0.6c0,0.2-0.1,0.4-0.1,0.5
						c-0.1,0.2-0.2,0.3-0.3,0.5c-0.1,0.1-0.3,0.2-0.5,0.3c-0.2,0.1-0.5,0.1-0.8,0.1C393.4,379.6,393.2,379.5,392.9,379.5z
						 M394,379.1c0.1,0,0.2-0.1,0.3-0.1c0.1-0.1,0.1-0.1,0.2-0.2c0-0.1,0.1-0.2,0.1-0.3c0-0.1,0-0.2,0-0.3c0-0.1,0-0.2,0-0.3
						c0-0.1,0-0.2,0-0.3c0-0.1,0-0.2,0-0.3c0-0.1,0-0.2-0.1-0.3c0-0.1-0.1-0.2-0.1-0.3c0-0.1-0.1-0.2-0.2-0.3
						c-0.1-0.1-0.1-0.2-0.2-0.2c-0.1-0.1-0.2-0.1-0.3-0.1c-0.1,0-0.2,0-0.4,0c-0.1,0-0.3,0-0.4,0.1s-0.2,0.1-0.3,0.1
						c-0.1,0.1-0.1,0.1-0.2,0.2c-0.1,0.1-0.1,0.2-0.1,0.3c0,0.1,0,0.2,0,0.3c0,0.1,0,0.2,0,0.3c0,0.1,0,0.2,0,0.3c0,0.1,0,0.2,0,0.3
						c0,0.1,0,0.2,0.1,0.3c0,0.1,0.1,0.2,0.1,0.3c0,0.1,0.1,0.2,0.2,0.3c0.1,0.1,0.1,0.2,0.2,0.2c0.1,0.1,0.2,0.1,0.3,0.1
						c0.1,0,0.2,0.1,0.4,0.1C393.8,379.1,393.9,379.1,394,379.1z"/>
					<path class="st10" d="M398.3,379.4c-0.2-0.1-0.4-0.2-0.6-0.3c-0.2-0.1-0.3-0.3-0.4-0.4c-0.1-0.2-0.2-0.4-0.3-0.5
						c-0.1-0.2-0.1-0.4-0.1-0.6c-0.2-1.3,0.4-2,1.7-2c1.3,0,2,0.6,2.2,2c0,0.2,0,0.4,0,0.6c0,0.2,0,0.4-0.1,0.5
						c-0.1,0.2-0.2,0.3-0.3,0.5c-0.1,0.1-0.3,0.2-0.5,0.3c-0.2,0.1-0.5,0.1-0.8,0.1C398.8,379.5,398.5,379.5,398.3,379.4z
						 M399.4,379c0.1,0,0.2-0.1,0.3-0.1c0.1-0.1,0.1-0.1,0.2-0.2c0-0.1,0.1-0.2,0.1-0.3c0-0.1,0-0.2,0-0.3c0-0.1,0-0.2,0-0.3
						c0-0.1,0-0.2,0-0.3c0-0.1,0-0.2,0-0.3c0-0.1,0-0.2-0.1-0.3c0-0.1-0.1-0.2-0.1-0.3c0-0.1-0.1-0.2-0.2-0.3
						c-0.1-0.1-0.1-0.2-0.2-0.2c-0.1-0.1-0.2-0.1-0.3-0.1c-0.1,0-0.2,0-0.4,0c-0.1,0-0.3,0-0.4,0.1c-0.1,0-0.2,0.1-0.3,0.1
						c-0.1,0.1-0.1,0.1-0.2,0.2c0,0.1-0.1,0.2-0.1,0.3c0,0.1,0,0.2,0,0.3c0,0.1,0,0.2,0,0.3c0,0.1,0,0.2,0,0.3c0,0.1,0,0.2,0,0.3
						c0,0.1,0,0.2,0.1,0.3c0,0.1,0.1,0.2,0.1,0.3c0,0.1,0.1,0.2,0.2,0.3c0.1,0.1,0.1,0.2,0.2,0.2c0.1,0.1,0.2,0.1,0.3,0.1
						c0.1,0,0.2,0.1,0.4,0.1C399.2,379.1,399.3,379.1,399.4,379z"/>
					<path class="st10" d="M403.7,379.4c-0.2-0.1-0.4-0.2-0.6-0.3c-0.2-0.1-0.3-0.3-0.4-0.4c-0.1-0.2-0.2-0.4-0.3-0.5
						c-0.1-0.2-0.1-0.4-0.1-0.6c-0.2-1.3,0.4-2,1.7-2c1.3,0,2,0.6,2.2,2c0,0.2,0,0.4,0,0.6c0,0.2,0,0.4-0.1,0.5
						c-0.1,0.2-0.2,0.3-0.3,0.5c-0.1,0.1-0.3,0.2-0.5,0.3c-0.2,0.1-0.5,0.1-0.8,0.1C404.2,379.5,403.9,379.5,403.7,379.4z
						 M404.8,379c0.1,0,0.2-0.1,0.3-0.1c0.1-0.1,0.1-0.1,0.2-0.2c0-0.1,0.1-0.2,0.1-0.3c0-0.1,0-0.2,0-0.3c0-0.1,0-0.2,0-0.3
						c0-0.1,0-0.2,0-0.3c0-0.1,0-0.2-0.1-0.3c0-0.1,0-0.2-0.1-0.3c0-0.1-0.1-0.2-0.1-0.3c0-0.1-0.1-0.2-0.2-0.3
						c-0.1-0.1-0.1-0.2-0.2-0.2c-0.1-0.1-0.2-0.1-0.3-0.1c-0.1,0-0.2,0-0.4,0c-0.1,0-0.3,0-0.4,0.1c-0.1,0-0.2,0.1-0.3,0.1
						c-0.1,0.1-0.1,0.1-0.2,0.2c0,0.1-0.1,0.2-0.1,0.3c0,0.1,0,0.2,0,0.3c0,0.1,0,0.2,0,0.3c0,0.1,0,0.2,0,0.3c0,0.1,0,0.2,0.1,0.3
						c0,0.1,0,0.2,0.1,0.3c0,0.1,0.1,0.2,0.1,0.3c0,0.1,0.1,0.2,0.2,0.3c0.1,0.1,0.1,0.2,0.2,0.2c0.1,0.1,0.2,0.1,0.3,0.1
						c0.1,0,0.3,0.1,0.4,0.1C404.6,379,404.7,379,404.8,379z"/>
					<path class="st10" d="M409,379.3c-0.2-0.1-0.4-0.2-0.6-0.3c-0.2-0.1-0.3-0.3-0.4-0.4c-0.1-0.2-0.2-0.4-0.3-0.5
						c-0.1-0.2-0.1-0.4-0.1-0.6c-0.2-1.3,0.3-2,1.6-2c1.3,0,2,0.6,2.2,2c0,0.2,0.1,0.4,0,0.6c0,0.2,0,0.4-0.1,0.5
						c-0.1,0.2-0.2,0.3-0.3,0.5c-0.1,0.1-0.3,0.2-0.5,0.3c-0.2,0.1-0.5,0.1-0.8,0.1C409.6,379.5,409.3,379.4,409,379.3z M410.2,379
						c0.1,0,0.2-0.1,0.3-0.1c0.1-0.1,0.1-0.1,0.2-0.2c0-0.1,0.1-0.2,0.1-0.3c0-0.1,0-0.2,0-0.3c0-0.1,0-0.2,0-0.3c0-0.1,0-0.2,0-0.3
						c0-0.1,0-0.2-0.1-0.3c0-0.1-0.1-0.2-0.1-0.3c0-0.1-0.1-0.2-0.1-0.3c0-0.1-0.1-0.2-0.2-0.3c-0.1-0.1-0.1-0.2-0.2-0.2
						c-0.1-0.1-0.2-0.1-0.3-0.1c-0.1,0-0.2,0-0.4,0c-0.1,0-0.3,0-0.4,0.1c-0.1,0-0.2,0.1-0.3,0.1c-0.1,0.1-0.1,0.1-0.2,0.2
						c0,0.1-0.1,0.2-0.1,0.3c0,0.1,0,0.2,0,0.3c0,0.1,0,0.2,0,0.3c0,0.1,0,0.2,0,0.3c0,0.1,0,0.2,0.1,0.3c0,0.1,0,0.2,0.1,0.3
						c0,0.1,0.1,0.2,0.1,0.3c0,0.1,0.1,0.2,0.2,0.3c0.1,0.1,0.1,0.2,0.2,0.2c0.1,0.1,0.2,0.1,0.3,0.1c0.1,0,0.3,0.1,0.4,0.1
						C409.9,379,410,379,410.2,379z"/>
				</g>
			</g>
		</g>
		<g>
			<path class="st6" d="M405.2,389.2c0.4,2.6-2.3,4.8-5.9,4.8c-3.6,0-6.8-2.1-7-4.7c-0.3-2.6,2.4-4.7,5.9-4.7
				C401.7,384.6,404.8,386.6,405.2,389.2z"/>
			<path class="st6" d="M413.9,389.1c0.4,2.6-2.2,4.8-5.8,4.8c-3.6,0-6.8-2.1-7.2-4.7c-0.3-2.6,2.3-4.7,5.8-4.7
				C410.3,384.5,413.5,386.6,413.9,389.1z"/>
		</g>
	</g>
	<g>
		<g>
			<path class="st6" d="M225.4,433.1c0,0,25.3-53,29.2-63.2c3.9-10.2,58.4-36,61.3-40.9c2.9-4.9,6.8-19.9,9.7-26.3
				c2.9-6.3,0.5-8.8,2.4-14.1c1.9-5.4,5.4-11.7,0.5-11.7c-4.9,0-11.2,5.4-13.6,14.1c-2.4,8.8-12.2,16.1-12.2,16.1s0,0,0.5-5.8
				c0.5-5.8,6.3-23.8,8.8-27.7s17-19.5,19-19.9c1.9-0.5,6.3,3.9,10.7,3.9c4.4,0,5.4-3.4,2.9-5.4s-4.4-8.3-10.2-12.2
				c-5.8-3.9-12.2,0-12.2,0s-2.9-4.9-5.4-7.8s-7.3-7.8-13.6-9.2c-6.3-1.5-10.7,2.4-10.7,2.4s-1.9-0.5-6.8-1
				c-4.9-0.5-8.3,2.4-13.1,10.2c-4.9,7.8-12.6,22.9-12.6,22.9s1.9-14.1,1.9-19.9s0.5-12.2-1.9-14.6c-2.4-2.4-4.9,0.5-5.8,9.2
				c-1,8.8-12.2,39.4-13.6,47.7c-1.5,8.3-17,54-25.3,65.7c-8.3,11.7-53,62.8-53,62.8 M295.4,260.9c0,0,6.8-19.5,8.8-19.5
				s9.2,5.4,9.2,5.4L295.4,260.9z"/>
			<g>
				<path class="st13" d="M236.5,300.9c0,0,8.3-25.9,9.7-32.6c1-4.7,4.5,0.8,4.5,0.8s6.7-4.9,6.7-0.8c0,4.1,2.5,7.1,2.5,7.1
					s-1.5-7.1,5.6-9.2s10.2,1,8.7,9.2c-1.5,8.2,1,5.1,2.5,3.1c1.5-2-0.5-7.1,8.7-10.7c9.2-3.6,14.3,0,12.7,7.6
					c-1.5,7.6-4.1,14.3-4.1,25.5c0,11.2,2,21.4,4.1,21.4c2,0,13.2-11.7,15.3-4.1c2,7.6-2,7.6-12.7,16.8c-10.7,9.2-38.7,16.8-43.3,26
					c-4.6,9.2-7.6,14.8-10.7,15.3c-3.1,0.5-8.2-17.8-22.9-15.8c-14.8,2-30.1,16.8-26.5,10.7c3.6-6.1,16.8-15.8,24.5-33.1
					C229.4,320.8,236.5,300.9,236.5,300.9z"/>
				<path class="st14" d="M236.5,300.9c0,0,8.3-25.9,9.7-32.6c1-4.7,4.5,0.8,4.5,0.8s6.7-4.9,6.7-0.8c0,4.1,2.5,7.1,2.5,7.1
					s-1.5-7.1,5.6-9.2s10.2,1,8.7,9.2c-1.5,8.2,1,5.1,2.5,3.1c1.5-2-0.5-7.1,8.7-10.7c9.2-3.6,14.3,0,12.7,7.6
					c-1.5,7.6-4.1,14.3-4.1,25.5c0,11.2,2,21.4,4.1,21.4c2,0,13.2-11.7,15.3-4.1c2,7.6-2,7.6-12.7,16.8c-10.7,9.2-38.7,16.8-43.3,26
					c-4.6,9.2-7.6,14.8-10.7,15.3c-3.1,0.5-8.2-17.8-22.9-15.8c-14.8,2-30.1,16.8-26.5,10.7c3.6-6.1,16.8-15.8,24.5-33.1
					C229.4,320.8,236.5,300.9,236.5,300.9z"/>
			</g>
			<path class="st6" d="M292.5,225.4c0,0-13.6,23.4-16.5,28.2c-2.9,4.9-5.4,9.2-8.8,11.2c-3.4,1.9-5.8,6.3-4.9,7.8"/>
			<path class="st6" d="M259.9,257.5c0,0-1.9,3.9-5.8,7.3c-3.9,3.4-8.3,6.3-9.2,10.2c-1,3.9-3.4,6.8-3.4,6.8"/>
			<path class="st6" d="M295.4,260.9c0,0-9.7,6.3-12.2,8.3c-2.4,1.9-3.4,6.3-3.4,6.3"/>
			<line class="st6" x1="322.2" y1="239.9" x2="313.4" y2="246.8"/>
		</g>
		<g>
			<g>
				<path class="st6" d="M558.8,402.6c0,0-44.3-43.3-47.7-52.1c-3.4-8.8-2.4-10.7-5.4-17c-2.9-6.3-11.7-17-12.2-24.8
					c-0.5-7.8-4.4-26.3-4.4-32.6c0-6.3-1.5-15.6-3.4-17c-1.9-1.5-12.6-3.9-12.6-3.9s-5.8-18.5-10.2-19.5c-4.4-1-13.1,3.9-13.1,3.9
					s-1.9-3.4-4.4-8.8c-2.4-5.4-6.8-5.4-12.2-3.4c-5.4,1.9-16.1,6.3-16.1,6.3s-12.2-9.2-16.1-3.4s-8.8,16.5-9.7,20.4
					c-1,3.9,5.8,3.8,7.2,2.8c1.5-1,6.9-5,6.9-5s10.7,8.1,12.6,12.4c1.9,4.4,5.8,24.8,6.3,28.7c0.5,3.9-1.5,16.1-1.5,16.1
					s-9.2-16.5-13.6-21.4s-10.7-7.8-15.6-7.8c-4.9,0-8.3,5.4-4.4,7.8s8.3,5.4,9.2,8.8c1,3.4,10.7,20.9,11.7,27.2s7.8,19,14.1,22.9
					c6.3,3.9,29.7,8.8,34.1,13.1c4.4,4.4,35.5,66.2,35.5,66.2 M426,243h7.8l8.3,16.1L426,243z"/>
				<g>
					<path class="st13" d="M487.7,283.1c0,0-5.6-15.8-12.2-12.7c-6.6,3.1-7.6,4.6-7.6,4.6s-3.6-5.6-9.7-3.6c-6.1,2-8.2-2-8.2-2
						s-8.2-5.1-13.2-1c-5.1,4.1-1,15.3,1,24.5c2,9.2-2.5,27-3.6,28.5c-1,1.5-14.8-4.6-16.3,1c-1.5,5.6,4.6,17.8,16.8,21.9
						c12.2,4.1,21.4,6.1,26,10.7c4.6,4.6,16.3,37.7,26.5,40.3c10.2,2.5,21.4-12.2,32.1-11.2c10.7,1,24.5,8.7,18.9,2
						c-5.6-6.6-29-30.6-30.6-39.2c-1.5-8.7-7.1-14.8-9.7-18.9c-2.5-4.1-7.1-28.5-8.7-35.2S487.7,283.1,487.7,283.1z"/>
					<path class="st14" d="M487.7,283.1c0,0-5.6-15.8-12.2-12.7c-6.6,3.1-7.6,4.6-7.6,4.6s-3.6-5.6-9.7-3.6c-6.1,2-8.2-2-8.2-2
						s-8.2-5.1-13.2-1c-5.1,4.1-1,15.3,1,24.5c2,9.2-2.5,27-3.6,28.5c-1,1.5-14.8-4.6-16.3,1c-1.5,5.6,4.6,17.8,16.8,21.9
						c12.2,4.1,21.4,6.1,26,10.7c4.6,4.6,16.3,37.7,26.5,40.3c10.2,2.5,21.4-12.2,32.1-11.2c10.7,1,24.5,8.7,18.9,2
						c-5.6-6.6-29-30.6-30.6-39.2c-1.5-8.7-7.1-14.8-9.7-18.9c-2.5-4.1-7.1-28.5-8.7-35.2S487.7,283.1,487.7,283.1z"/>
				</g>
				<path class="st6" d="M449.8,239.6l6.8,12.6c0,0,2.8,6.6,5.6,9.4c2.8,2.8,5.2,4.9,6.3,8.4c1,3.5,1.4,5.2,1.4,5.2"/>
				<line class="st6" x1="473.2" y1="255.2" x2="480" y2="269.3"/>
				<line class="st6" x1="417.2" y1="233.8" x2="426" y2="243"/>
			</g>
			<path class="st6" d="M481.8,272.5c0,3.1,1,8.7,1,8.7"/>
			<path class="st6" d="M446.8,264.5c0,0,4.2,3.1,4.9,7.3"/>
			<path class="st6" d="M405.6,248.6c0,0-3.8-1.5-3.8-4.6"/>
			<path class="st6" d="M433.8,243c0,0-2.8-2.1-2.8-4.8"/>
		</g>
	</g>
</g>
</svg>
