<?xml version="1.0" encoding="utf-8"?>
<!-- Generator: Adobe Illustrator 25.2.0, SVG Export Plug-In . SVG Version: 6.00 Build 0)  -->
<svg version="1.1" id="Layer_1" xmlns="http://www.w3.org/2000/svg" xmlns:xlink="http://www.w3.org/1999/xlink" x="0px" y="0px"
	 viewBox="0 0 618 618" style="enable-background:new 0 0 618 618;" xml:space="preserve">
<style type="text/css">
	.st0{fill:#0B0B0C;}
	.st1{fill:#3C3C42;}
	.st2{fill:#4DBA87;}
	.st3{fill:#435466;}
</style>
<g>
	<g>
		<circle class="st0" cx="309" cy="309.3" r="67.7"/>
		<path class="st1" d="M309,242.1c37.1,0,67.2,30.2,67.2,67.2S346,376.5,309,376.5s-67.2-30.2-67.2-67.2S271.9,242.1,309,242.1
			 M309,241.1c-37.7,0-68.2,30.5-68.2,68.2s30.5,68.2,68.2,68.2s68.2-30.5,68.2-68.2S346.7,241.1,309,241.1L309,241.1z"/>
	</g>
</g>
<g id="g10" transform="matrix(1.3333333,0,0,-1.3333333,0,400)">
	<g id="g12" transform="translate(178.0626,235.0086)">
		<path id="path14" class="st2" d="M58.5-150.1l-4.8-8.4l-4.8,8.4H32.7l21-36.4l21,36.4L58.5-150.1L58.5-150.1z"/>
	</g>
	<g id="g16" transform="translate(178.0626,235.0086)">
		<path id="path18" class="st3" d="M58.5-150.1l-4.8-8.4l-4.8,8.4h-7.7l12.6-21.8l12.6,21.8L58.5-150.1L58.5-150.1z"/>
	</g>
</g>
</svg>
