<?xml version="1.0" encoding="utf-8"?>
<!-- Generator: Adobe Illustrator 25.2.0, SVG Export Plug-In . SVG Version: 6.00 Build 0)  -->
<svg version="1.1" id="Layer_1" xmlns="http://www.w3.org/2000/svg" xmlns:xlink="http://www.w3.org/1999/xlink" x="0px" y="0px"
	 viewBox="0 0 618 618" style="enable-background:new 0 0 618 618;" xml:space="preserve">
<style type="text/css">
	.st0{fill:#0B0B0C;}
	.st1{fill:#3C3C42;}
	.st2{fill:#7703FC;}
</style>
<g>
	<g>
		<circle class="st0" cx="309" cy="309.3" r="67.7"/>
		<path class="st1" d="M309,242.1c37.1,0,67.2,30.2,67.2,67.2S346,376.5,309,376.5s-67.2-30.2-67.2-67.2S271.9,242.1,309,242.1
			 M309,241.1c-37.7,0-68.2,30.5-68.2,68.2s30.5,68.2,68.2,68.2s68.2-30.5,68.2-68.2S346.7,241.1,309,241.1L309,241.1z"/>
	</g>
</g>
<g>
	<path class="st2" d="M309,331.2c-1.1,0-2.2-0.3-3.1-0.8L288,320c-1.9-1.1-3.1-3.2-3.1-5.4V294c0-2.2,1.2-4.3,3.1-5.4l17.9-10.3
		c1.9-1.1,4.3-1.1,6.2,0l17.9,10.3c1.9,1.1,3.1,3.2,3.1,5.4v20.7c0,2.2-1.2,4.3-3.1,5.4l-17.9,10.3
		C311.2,330.9,310.1,331.2,309,331.2z M309,279.7c-0.7,0-1.3,0.2-1.9,0.5l-17.9,10.3c-1.2,0.7-1.9,2-1.9,3.4v20.7
		c0,1.4,0.7,2.7,1.9,3.4l17.9,10.3c1.2,0.7,2.7,0.7,3.9,0l17.9-10.3c1.2-0.7,1.9-2,1.9-3.4V294c0-1.4-0.7-2.7-1.9-3.4l-17.9-10.3
		C310.3,279.9,309.7,279.7,309,279.7z"/>
</g>
<g>
	<path class="st2" d="M311.7,320.7c-0.5,0-1.1-0.1-1.6-0.2l-10.2-2.7c-2.1-0.6-3.8-2.3-4.4-4.4l-2.7-10.2c-0.6-2.2,0.1-4.5,1.6-6
		l7.5-7.5c1.6-1.6,3.9-2.2,6-1.6l10.2,2.7c2.1,0.6,3.8,2.3,4.4,4.4l2.7,10.2c0.6,2.2-0.1,4.5-1.6,6l-7.5,7.5
		C315,320.1,313.3,320.7,311.7,320.7z M306.3,290.2c-1,0-2,0.4-2.8,1.1l-7.5,7.5c-1,1-1.4,2.4-1,3.8l2.7,10.2
		c0.4,1.3,1.4,2.4,2.7,2.7l10.2,2.7c1.3,0.3,2.8,0,3.7-1l7.5-7.5c1-1,1.4-2.4,1-3.8l-2.7-10.2c-0.4-1.3-1.4-2.4-2.7-2.7l-10.2-2.7
		C307,290.3,306.6,290.2,306.3,290.2z"/>
</g>
</svg>
