<?xml version="1.0" standalone="no"?>
<!DOCTYPE svg PUBLIC "-//W3C//DTD SVG 20010904//EN"
 "http://www.w3.org/TR/2001/REC-SVG-20010904/DTD/svg10.dtd">
<svg version="1.0" xmlns="http://www.w3.org/2000/svg"
 width="641.000000pt" height="94.000000pt" viewBox="0 0 641.000000 94.000000"
 preserveAspectRatio="xMidYMid meet">

<g transform="translate(0.000000,94.000000) scale(0.100000,-0.100000)"
fill="#000000" stroke="none">
<path d="M385 930 c-276 -61 -439 -319 -367 -581 49 -176 189 -304 370 -340
78 -15 160 -7 246 25 l66 24 59 -24 c268 -108 578 74 624 366 34 221 -95 434
-311 512 -86 31 -225 30 -312 -3 l-65 -24 -65 23 c-72 26 -183 36 -245 22z
m160 -31 c33 -6 72 -18 88 -26 l29 -14 -34 -25 c-115 -85 -197 -285 -169 -414
6 -28 20 -67 30 -88 24 -47 87 -107 126 -122 42 -16 126 -14 166 3 73 31 142
133 155 229 15 108 -49 271 -142 363 -30 29 -54 55 -54 58 0 9 92 36 145 43
156 19 340 -79 419 -225 196 -363 -165 -769 -547 -616 l-62 25 -63 -26 c-246
-99 -519 41 -588 301 -51 190 49 406 230 495 95 47 170 58 271 39z m219 -110
c99 -91 160 -255 136 -366 -15 -64 -52 -126 -97 -160 -32 -25 -45 -28 -108
-28 -63 0 -76 3 -108 28 -112 85 -132 242 -52 404 35 71 129 173 160 173 7 0
38 -23 69 -51z"/>
<path d="M5565 919 c-49 -28 -58 -70 -24 -113 42 -53 139 -21 139 46 0 54 -68
93 -115 67z"/>
<path d="M1939 887 c-190 -54 -309 -246 -296 -477 6 -98 31 -173 83 -243 127
-173 391 -208 542 -72 64 58 137 195 103 195 -5 0 -12 -12 -15 -26 -11 -43
-96 -119 -155 -139 -75 -24 -190 -18 -254 15 -133 67 -207 244 -179 427 29
187 127 295 268 297 86 1 146 -36 188 -119 17 -33 31 -61 31 -62 2 -7 105 30
105 38 0 42 -74 119 -145 150 -61 27 -206 36 -276 16z"/>
<path d="M5127 732 c-42 -42 -77 -83 -77 -90 0 -7 14 -12 35 -12 l35 0 0 -247
c0 -222 2 -252 19 -290 11 -23 31 -49 45 -58 57 -37 148 -28 200 20 35 33 34
49 -4 30 -46 -24 -87 -19 -121 14 l-29 29 0 251 0 251 90 0 c83 0 90 1 90 20
0 19 -7 20 -90 20 l-90 0 0 70 c0 50 -4 70 -13 70 -7 0 -47 -35 -90 -78z"/>
<path d="M2675 673 c-141 -51 -209 -161 -209 -338 0 -77 3 -99 28 -151 52
-115 137 -169 266 -168 124 1 211 59 267 179 25 54 28 71 28 165 0 120 -16
168 -79 238 -72 79 -200 111 -301 75z m157 -49 c72 -53 112 -164 113 -309 0
-91 -3 -106 -30 -160 -35 -71 -80 -105 -137 -105 -126 0 -206 146 -196 362 3
77 9 105 29 144 35 69 80 97 145 92 29 -3 62 -13 76 -24z"/>
<path d="M3922 675 c-134 -42 -212 -165 -212 -335 0 -143 53 -246 152 -294
142 -69 303 -23 369 105 30 61 22 65 -30 16 -55 -52 -113 -72 -178 -63 -121
16 -199 109 -205 242 l-3 59 219 3 219 2 -6 54 c-17 166 -164 262 -325 211z
m128 -42 c36 -21 78 -96 82 -148 l3 -40 -149 -3 c-82 -1 -153 1 -158 6 -4 4
-1 32 7 60 17 55 64 118 99 132 35 14 86 11 116 -7z"/>
<path d="M4418 663 c-85 -25 -112 -43 -65 -43 12 0 33 -7 45 -16 22 -15 22
-18 22 -264 l0 -249 -26 -20 c-15 -12 -33 -21 -40 -21 -8 0 -14 -4 -14 -10 0
-6 52 -10 135 -10 125 0 169 9 111 24 -55 14 -56 20 -56 250 l0 212 28 26 c71
67 167 89 221 52 44 -32 51 -68 51 -286 0 -224 -4 -241 -60 -253 -67 -15 -23
-25 110 -25 138 0 171 8 108 26 -54 16 -58 35 -58 279 0 209 -1 223 -22 265
-31 60 -76 85 -153 85 -73 -1 -111 -20 -177 -87 l-48 -49 0 70 c0 51 -4 71
-12 70 -7 0 -52 -12 -100 -26z"/>
<path d="M5548 663 c-90 -26 -112 -43 -58 -43 17 0 39 -9 50 -20 19 -19 20
-33 20 -258 0 -262 -3 -274 -60 -287 -67 -15 -23 -25 110 -25 138 0 171 8 108
26 -55 16 -58 30 -58 347 0 223 -3 287 -12 286 -7 0 -52 -12 -100 -26z"/>
<path d="M6005 681 c-124 -32 -189 -116 -170 -217 7 -38 13 -39 79 -14 24 9
25 13 20 53 -13 91 49 155 140 145 85 -10 131 -78 124 -183 l-3 -49 -85 -17
c-175 -36 -255 -83 -280 -166 -39 -128 60 -239 193 -219 56 9 102 39 142 93
16 23 32 42 35 42 3 1 3 -26 2 -60 -2 -34 0 -65 6 -71 5 -5 45 1 105 18 98 28
122 44 67 44 -17 0 -39 9 -50 20 -19 19 -20 33 -20 214 0 118 -4 206 -11 227
-18 51 -56 97 -100 120 -44 22 -146 33 -194 20z m195 -396 l0 -95 -41 -45
c-67 -73 -139 -82 -194 -25 -58 61 -39 166 37 206 26 14 150 48 191 53 4 1 7
-42 7 -94z"/>
<path d="M3050 660 c0 -5 6 -10 14 -10 38 0 64 -47 186 -336 69 -163 130 -299
135 -301 6 -1 67 133 136 300 110 265 129 304 157 322 17 11 31 23 32 28 0 4
-40 7 -90 7 -53 0 -90 -4 -90 -10 0 -5 8 -10 18 -10 11 0 27 -9 37 -20 18 -20
17 -25 -70 -241 -67 -170 -90 -217 -97 -205 -5 10 -46 105 -89 213 -87 214
-91 239 -39 250 67 13 22 23 -105 23 -83 0 -135 -4 -135 -10z"/>
</g>
</svg>
