<?xml version="1.0" encoding="utf-8"?>
<!-- Generator: Adobe Illustrator 23.0.1, SVG Export Plug-In . SVG Version: 6.00 Build 0)  -->
<svg version="1.1" id="e66cdcae-b662-46fb-b424-18ba1a805fb0"
	 xmlns="http://www.w3.org/2000/svg" xmlns:xlink="http://www.w3.org/1999/xlink" x="0px" y="0px" viewBox="0 0 832.5 677.8"
	 style="enable-background:new 0 0 832.5 677.8;" xml:space="preserve">
<style type="text/css">
	.st0{fill:#671CC9;}
	.st1{fill:none;stroke:#3F3D56;stroke-miterlimit:10;}
	.st2{fill:#7105FF;}
	.st3{fill:#F86B75;}
	.st4{fill:#FAD375;}
	.st5{fill:#8BCC55;}
	.st6{fill:#F2F2F2;}
	.st7{fill:#79758C;}
	.st8{fill:#3F3D56;}
	.st9{fill:#A0616A;}
	.st10{fill:#55536E;}
</style>
<title>bookmarks</title>
<ellipse class="st0" cx="667" cy="643.8" rx="151" ry="34"/>
<ellipse class="st1" cx="681" cy="633.8" rx="151" ry="34"/>
<circle class="st0" cx="436.5" cy="304.3" r="30"/>
<circle class="st0" cx="557.5" cy="304.3" r="30"/>
<circle class="st2" cx="678.5" cy="304.3" r="30"/>
<circle class="st3" cx="12.5" cy="20.3" r="3"/>
<circle class="st4" cx="21.5" cy="20.3" r="3"/>
<circle class="st5" cx="30.5" cy="20.3" r="3"/>
<rect x="67" y="66.8" class="st0" width="206" height="64"/>
<rect x="0.5" y="10.3" class="st1" width="364" height="216"/>
<line class="st1" x1="0.5" y1="26.7" x2="364.5" y2="26.7"/>
<circle class="st1" cx="13.5" cy="18.3" r="3"/>
<circle class="st1" cx="22.5" cy="18.3" r="3"/>
<circle class="st1" cx="31.5" cy="18.3" r="3"/>
<rect x="79.5" y="54.3" class="st1" width="206" height="64"/>
<rect x="41" y="158.8" class="st6" width="276" height="8.3"/>
<rect x="41" y="178.7" class="st6" width="276" height="8.3"/>
<rect x="41" y="198.6" class="st6" width="276" height="8.3"/>
<rect x="44" y="154.8" class="st1" width="276" height="8.3"/>
<rect x="44" y="174.7" class="st1" width="276" height="8.3"/>
<rect x="44" y="194.6" class="st1" width="276" height="8.3"/>
<circle class="st3" cx="96.5" cy="394.3" r="3"/>
<circle class="st4" cx="105.5" cy="394.3" r="3"/>
<circle class="st5" cx="114.5" cy="394.3" r="3"/>
<rect x="151" y="440.8" class="st0" width="206" height="64"/>
<polyline class="st1" points="448.5,428.3 448.5,600.3 84.5,600.3 84.5,384.3 380.5,384.3 "/>
<line class="st1" x1="84.5" y1="400.7" x2="381" y2="400.7"/>
<circle class="st1" cx="97.5" cy="392.3" r="3"/>
<circle class="st1" cx="106.5" cy="392.3" r="3"/>
<circle class="st1" cx="115.5" cy="392.3" r="3"/>
<rect x="163.5" y="428.3" class="st1" width="206" height="64"/>
<circle class="st3" cx="392.5" cy="221.3" r="3"/>
<circle class="st4" cx="401.5" cy="221.3" r="3"/>
<circle class="st5" cx="410.5" cy="221.3" r="3"/>
<rect x="380.5" y="211.3" class="st1" width="364" height="216"/>
<line class="st1" x1="380.5" y1="227.7" x2="744.5" y2="227.7"/>
<circle class="st1" cx="393.5" cy="219.3" r="3"/>
<circle class="st1" cx="402.5" cy="219.3" r="3"/>
<circle class="st1" cx="411.5" cy="219.3" r="3"/>
<circle class="st1" cx="441.5" cy="299.3" r="30"/>
<circle class="st1" cx="562.5" cy="299.3" r="30"/>
<circle class="st1" cx="683.5" cy="299.3" r="30"/>
<rect x="396" y="354.8" class="st6" width="82" height="8"/>
<rect x="518" y="354.8" class="st6" width="82" height="8"/>
<rect x="640" y="354.8" class="st6" width="82" height="8"/>
<rect x="400" y="351.8" class="st1" width="82" height="8"/>
<rect x="522" y="351.8" class="st1" width="82" height="8"/>
<rect x="644" y="351.8" class="st1" width="82" height="8"/>
<rect x="98" y="529.8" class="st6" width="63" height="54"/>
<rect x="214.5" y="530.3" class="st6" width="63" height="54"/>
<rect x="331" y="530.8" class="st6" width="63" height="54"/>
<rect x="107" y="519.8" class="st1" width="63" height="54"/>
<rect x="223.5" y="520.3" class="st1" width="63" height="54"/>
<rect x="340" y="520.8" class="st1" width="63" height="54"/>
<polygon class="st7" points="600.8,204.5 572.7,220 602.7,209.5 "/>
<ellipse transform="matrix(0.9511 -0.3089 0.3089 0.9511 -33.4973 198.014)" class="st8" cx="608.6" cy="204.8" rx="7.8" ry="15.8"/>
<ellipse transform="matrix(0.9511 -0.3089 0.3089 0.9511 -28.5884 204.9649)" class="st8" cx="633" cy="192.8" rx="5.9" ry="11.1"/>
<polygon class="st8" points="610.4,195.7 629,189 632.9,199.9 614.9,212.1 "/>
<path class="st9" d="M608.6,236l5-11c0,0,12-32,1-26s-15,22-15,22l-3,10L608.6,236z"/>
<path class="st9" d="M745.6,402c0,0-17,33-22,34s-5-30-5-30s10-9,14-8S745.6,402,745.6,402z"/>
<path class="st10" d="M720.6,610c0,0,9,5,5,16s-6,8-8,17s-20,8-21,4s-3-20,2-26S720.6,610,720.6,610z"/>
<path class="st10" d="M631.6,610c0,0-9,5-5,16s6,8,8,17s20,8,21,4s3-20-2-26S631.6,610,631.6,610z"/>
<path class="st8" d="M715.6,410c0,0,8,5,10,36s-1,66-2,74s1,20,3,26s-5,52-5,52c3,6.3,3,13.7,0,20c-5,11-20,22-24,11
	c-0.2-3.8-1.2-7.6-3-11c-3-6,2-30,2-30s-4-38-3-48s-12-69-14-79s-1-18-2-15s-19,86-19,86s2,53,1,60s4,21,1,26s-9,23-20,12
	s-9-15-10-20s0-11,0-19s-8-53-4-60s2-16,1-32s-2-93,8-107S715.6,410,715.6,410z"/>
<circle class="st9" cx="691.1" cy="198.5" r="24"/>
<path class="st9" d="M706.6,208c0,0-1,36,4,42s-43-5-43-5s11-23,4-38S706.6,208,706.6,208z"/>
<path class="st10" d="M715.6,246c0,0-2-8-14-10s-26.2-4-30.6,0s-6.4,9-9.4,9h-14l-22,39c0,0,11,13,8,37s-8,68-8,68
	c8,10.7,15,22.1,21,34c10,20,79,18,75-17c0,0-5-9-3-17s8-62,8-62l23-61C749.6,266,717.6,250,715.6,246z"/>
<path class="st10" d="M742.6,265h7c0,0,4,23,3,37s-1,47-1,47s4,8,3,15s-3,26-3,26s-1,27-20,13c0,0-6-3-3-16s-2-27-2-27s3-9,2-15
	s-5-25-5-25L742.6,265z"/>
<path class="st10" d="M652.6,248l-5-3c0,0-7-3-17,0s-15,2-19,1s-1-11-1-11s-8-14-16-6s-8,24-8,24s-5,10,13,16s26,15,26,15h20
	L652.6,248z"/>
<path class="st8" d="M689.5,227.1c-0.1-1.8-1.2-3.4-2.9-4.1c-1.1-0.4-2.3-0.6-3.4-0.7c-3.4-0.4-6.9-1.7-8.9-4.3
	c-2.6-3.5-1.9-8.3-4-12.1c-1-1.5-2.1-2.9-3.2-4.2c-3.7-4.9-4.3-11.3-4.7-17.3c-0.2-1.2,0-2.5,0.4-3.6c0.6-1,1.4-2,2.3-2.8
	c1.5-1.7,2.3-4,2.3-6.2c-0.1-4.7,6.5-7.8,11.3-9.4s9.8-1.9,14.8-1.9c2.9,0,5.9,0,8.5,1c1.5,0.7,3,1.5,4.3,2.5
	c5.6,4.1,10.8,9.1,12.6,15.4c0.7,2.9,1.1,5.9,1,8.8c0.1,0.9,0,1.9-0.4,2.7c-0.7,1.3-2.2,2.1-3.3,3.2c-1.9,2.1-1.6,5.2-1.8,7.9
	c-0.6,5.8-3.9,10.9-8.9,13.8c-1,0.5-2,1.2-2.8,1.9c-0.6,0.8-1.1,1.7-1.5,2.7C699.1,224.4,694.1,227,689.5,227.1z"/>
<polygon class="st7" points="192.6,10.7 179.3,18 193.5,13 "/>
<ellipse transform="matrix(0.9511 -0.3089 0.3089 0.9511 6.2611 61.1665)" class="st8" cx="196.3" cy="10.8" rx="3.7" ry="7.5"/>
<ellipse transform="matrix(0.9511 -0.3089 0.3089 0.9511 8.5912 64.466)" class="st8" cx="207.9" cy="5.1" rx="2.8" ry="5.3"/>
<polygon class="st8" points="197.1,6.5 206,3.3 207.9,8.5 199.3,14.3 "/>
<polygon class="st7" points="282.6,382.7 269.3,390 283.5,385 "/>
<ellipse transform="matrix(0.9511 -0.3089 0.3089 0.9511 -104.2556 107.1649)" class="st8" cx="286.3" cy="382.8" rx="3.7" ry="7.5"/>
<ellipse transform="matrix(0.9511 -0.3089 0.3089 0.9511 -101.9255 110.4643)" class="st8" cx="297.9" cy="377.1" rx="2.8" ry="5.3"/>
<polygon class="st8" points="287.1,378.5 296,375.3 297.9,380.5 289.3,386.3 "/>
</svg>
