<?xml version="1.0" encoding="utf-8"?>
<!-- Generator: Adobe Illustrator 23.0.1, SVG Export Plug-In . SVG Version: 6.00 Build 0)  -->
<svg version="1.1" id="b4f08fc7-2376-4427-aaee-2fcb33ba957a"
	 xmlns="http://www.w3.org/2000/svg" xmlns:xlink="http://www.w3.org/1999/xlink" x="0px" y="0px" viewBox="0 0 920.7 698"
	 style="enable-background:new 0 0 920.7 698;" xml:space="preserve">
<style type="text/css">
	.st0{opacity:0.1;fill:#E6E6E6;}
	.st1{fill:#797BF2;}
	.st2{fill:#55536E;}
	.st3{fill:#A0616A;}
	.st4{fill:#2F2E41;}
	.st5{fill:#819BC1;}
	.st6{fill:#FF227D;}
</style>
<path class="st0" d="M892.5,652.9l3.7-9c4.4-1.2,9-2.1,13.5-2.8l-0.3,4.4l1.9-4.6c5.6-0.8,9.4-1,9.4-1s-7.6,18.3-20.1,31.3
	l-12.5,0.5l9.3,2.7c-1.5,1.4-3.2,2.7-4.9,3.9c-17.2,12-35,16.2-39.9,9.2s5.1-22.3,22.3-34.3c5.6-3.7,11.6-6.5,18.1-8.4L892.5,652.9z
	"/>
<path class="st0" d="M860.1,611.5l-4.6-13.3c3.7-5.6,7.7-10.9,12-16l3.9,5.1l-2.4-6.8c5.4-6.3,9.3-10.1,9.3-10.1s9.2,27.2,8.1,53.3
	l-13.2,12.4l12.7-6c-0.3,3-0.8,6-1.6,8.9c-7.2,29.5-22.7,51.1-34.6,48.2s-15.7-29.2-8.5-58.7c2.5-9.3,6.4-18.2,11.6-26.4
	L860.1,611.5z"/>
<ellipse class="st0" cx="760.5" cy="690.3" rx="148.4" ry="7.7"/>
<path class="st0" d="M261.3,119H156.4v1.9h104.9c10.8,0,19.5,8.7,19.5,19.5s-8.7,19.5-19.5,19.5H102.6c-10.8,0-19.5-8.7-19.5-19.5
	c0-10.7,8.7-19.5,19.5-19.5h5.9V119h-5.9c-11.8,0-21.4,9.6-21.4,21.4c0,11.8,9.6,21.4,21.4,21.4l0,0h158.7
	c11.8,0,21.4-9.6,21.4-21.4C282.7,128.6,273.1,119,261.3,119L261.3,119z"/>
<path class="st1" d="M261.3,185.1H156.4v1.9h104.9c10.8,0,19.5,8.7,19.5,19.5S272,226,261.3,226H102.6c-10.8,0-19.5-8.7-19.5-19.5
	s8.7-19.5,19.5-19.5h5.9v-1.9h-5.9c-11.8,0-21.4,9.6-21.4,21.4c0,11.8,9.6,21.4,21.4,21.4h158.7c11.8,0,21.4-9.6,21.4-21.4
	C282.6,194.7,273.1,185.1,261.3,185.1z"/>
<path class="st0" d="M261.3,251.2H156.4v1.9h104.9c10.8,0,19.5,8.7,19.5,19.5S272,292,261.3,292H102.6c-10.8,0-19.5-8.7-19.5-19.5
	s8.7-19.5,19.5-19.5h5.9v-1.9h-5.9c-11.8,0-21.4,9.6-21.4,21.4c0,11.8,9.6,21.4,21.4,21.4l0,0h158.7c11.8,0,21.4-9.6,21.4-21.4
	C282.6,260.8,273.1,251.2,261.3,251.2z"/>
<path id="bcf0cfa3-66a2-4303-bdd5-8030f4bfd15a" class="st2" d="M120.4,114c-3.1,0.1-5.7,2.6-5.6,5.8c0.1,3.1,2.5,5.5,5.6,5.6h25
	c3.1,0,5.7-2.5,5.8-5.6c0-3.1-2.5-5.7-5.6-5.8c-0.1,0-0.1,0-0.2,0H120.4z"/>
<path id="ec7ee251-c029-4a40-a2db-c56bfeeebca2" class="st2" d="M120.4,181c-3.1,0.1-5.7,2.6-5.6,5.8c0.1,3.1,2.5,5.6,5.6,5.6h25
	c3.1,0.1,5.7-2.5,5.8-5.6c0.1-3.1-2.5-5.7-5.6-5.8c-0.1,0-0.1,0-0.2,0H120.4z"/>
<path id="a580efb3-72c6-475f-9d34-6093d6a0cbd0" class="st2" d="M120.4,246.1c-3.1,0.1-5.7,2.6-5.6,5.8c0.1,3.1,2.5,5.6,5.6,5.6h25
	c3.1,0.1,5.7-2.5,5.8-5.6c0.1-3.1-2.5-5.7-5.6-5.8c-0.1,0-0.1,0-0.2,0H120.4z"/>
<path id="fe8fe944-e2e2-4630-bb61-cdb395efd789" class="st0" d="M110.5,134.7c-3.1,0.1-5.7,2.6-5.6,5.8c0.1,3.1,2.5,5.6,5.6,5.6
	h142.8c3.1,0.1,5.7-2.5,5.8-5.6c0.1-3.1-2.5-5.7-5.6-5.8c-0.1,0-0.1,0-0.2,0H110.5z"/>
<path class="st0" d="M261.3,56.8H156.4v1.9h104.9c10.8,0,19.5,8.7,19.5,19.5s-8.7,19.5-19.5,19.5H102.6c-10.8,0-19.5-8.7-19.5-19.5
	c0-10.7,8.7-19.4,19.5-19.5h5.9v-1.9h-5.9c-11.8,0-21.4,9.6-21.4,21.4c0,11.8,9.6,21.4,21.4,21.4h158.7c11.8,0,21.4-9.6,21.4-21.4
	C282.6,66.4,273.1,56.8,261.3,56.8z"/>
<path id="bcfa29a8-6865-4c73-8c61-6a785352b808" class="st2" d="M120.4,51.7c-3.1,0.1-5.7,2.6-5.6,5.8c0.1,3.1,2.5,5.6,5.6,5.6h25
	c3.1,0.1,5.7-2.5,5.8-5.6c0.1-3.1-2.5-5.7-5.6-5.8l0,0c-0.1,0-0.1,0-0.2,0H120.4z"/>
<path id="e794b9a0-7aca-4299-a24e-8f26dee3f545" class="st0" d="M110.5,72.5c-3.1,0.1-5.7,2.6-5.6,5.8c0.1,3.1,2.5,5.5,5.6,5.6
	h142.8c3.1,0.1,5.7-2.4,5.8-5.6c0.1-3.1-2.4-5.7-5.6-5.8c0,0,0,0,0,0c-0.1,0-0.1,0-0.2,0H110.5z"/>
<path id="bf86555d-9ede-426e-830a-ea26134fbb4f" class="st1" d="M110.5,200.8c-3.1,0.1-5.7,2.6-5.6,5.8c0.1,3.1,2.5,5.6,5.6,5.6
	h142.8c3.1,0.1,5.7-2.5,5.8-5.6c0.1-3.1-2.5-5.7-5.6-5.8c-0.1,0-0.1,0-0.2,0H110.5z"/>
<path id="bd15929f-7f71-4330-8805-c384166b6a45" class="st0" d="M110.5,266.9c-3.1,0.1-5.7,2.6-5.6,5.8c0.1,3.1,2.5,5.6,5.6,5.6
	h142.8c3.1,0.1,5.7-2.5,5.8-5.6c0.1-3.1-2.5-5.7-5.6-5.8l0,0c-0.1,0-0.1,0-0.2,0H110.5z"/>
<polygon class="st1" points="325.2,207 303.7,194.5 303.7,219.4 325.2,207 303.7,194.5 303.7,219.4 "/>
<path class="st0" d="M343.9,342.8H7.2c-2.4,0-4.3-1.9-4.3-4.3V7.2c0-2.4,1.9-4.3,4.3-4.3h349.5c2.4,0,4.3,1.9,4.3,4.3v196.2h2.9V7.2
	c0-4-3.2-7.2-7.2-7.2H7.2C3.2,0,0,3.2,0,7.2v331.3c0,4,3.2,7.2,7.2,7.2h336.7V342.8z"/>
<path class="st1" d="M652.8,198.6H351c-3.9,0-7.1,2.5-7.1,5.5v65.3h316v-65.3C659.9,201.1,656.7,198.6,652.8,198.6z"/>
<path class="st0" d="M654.6,196.7H349.2c-4,0-7.2,3.2-7.2,7.2V448c0,4,3.2,7.2,7.2,7.2h305.5c4,0,7.2-3.2,7.2-7.2V203.8
	C661.8,199.9,658.6,196.7,654.6,196.7z M659,448c0,2.4-1.9,4.3-4.3,4.3H349.2c-2.4,0-4.3-1.9-4.3-4.3V203.8c0-2.4,1.9-4.3,4.3-4.3
	h305.5c2.4,0,4.3,1.9,4.3,4.3V448z"/>
<path class="st0" d="M581.2,305.2H476.4v1.9h104.9c10.8,0,19.5,8.7,19.5,19.5S592,346,581.2,346H422.6c-10.8,0-19.5-8.7-19.5-19.5
	s8.7-19.5,19.5-19.5h5.9v-1.9h-5.9c-11.8,0-21.4,9.6-21.4,21.4c0,11.8,9.6,21.4,21.4,21.4h158.7c11.8,0,21.4-9.6,21.4-21.4
	C602.6,314.7,593,305.2,581.2,305.2z"/>
<path class="st0" d="M581.2,371.2H476.4v1.9h104.9c10.8,0,19.5,8.7,19.5,19.4c0,10.8-8.7,19.5-19.4,19.5c0,0,0,0,0,0H422.6
	c-10.8,0-19.5-8.7-19.5-19.5s8.7-19.5,19.5-19.5h5.9v-1.9h-5.9c-11.8,0-21.4,9.6-21.4,21.4s9.6,21.4,21.4,21.4l0,0h158.7
	c11.8,0,21.4-9.6,21.4-21.4C602.6,380.8,593,371.2,581.2,371.2z"/>
<path id="f0e892c8-c763-4555-99cb-2aee4aa2c1bd" class="st2" d="M440.3,301.1c-3.1,0.1-5.7,2.6-5.6,5.8c0.1,3.1,2.5,5.6,5.6,5.6h25
	c3.1,0.1,5.7-2.5,5.8-5.6c0.1-3.1-2.5-5.7-5.6-5.8c-0.1,0-0.1,0-0.2,0H440.3z"/>
<path id="b030a2e8-ef2c-42ed-9562-f4777aec2710" class="st2" d="M440.3,366.2c-3.1,0.1-5.7,2.6-5.6,5.8c0.1,3.1,2.5,5.6,5.6,5.6h25
	c3.1,0.1,5.7-2.5,5.8-5.6c0.1-3.1-2.5-5.7-5.6-5.8l0,0c-0.1,0-0.1,0-0.2,0H440.3z"/>
<path id="b7b74475-3363-467c-a0a1-8003b6263e2a" class="st0" d="M430.4,320.9c-3.1,0.1-5.7,2.6-5.6,5.8c0.1,3.1,2.5,5.6,5.6,5.6
	h142.8c3.1,0.1,5.7-2.5,5.8-5.6c0.1-3.1-2.5-5.7-5.6-5.8l0,0c-0.1,0-0.1,0-0.2,0H430.4z"/>
<path id="ef56dfc7-cfad-4aec-8de6-97ba4c392594" class="st0" d="M430.4,386.9c-3.1,0.1-5.7,2.6-5.6,5.8c0.1,3.1,2.5,5.6,5.6,5.6
	h142.8c3.1,0.1,5.7-2.5,5.8-5.6c0.1-3.1-2.5-5.7-5.6-5.8l0,0c-0.1,0-0.1,0-0.2,0H430.4z"/>
<circle class="st2" cx="385.9" cy="234" r="20.6"/>
<path id="b00574f6-7832-428e-9f30-d233874666a9" class="st2" d="M422.9,217.7c-2.8,0-5.1,2.4-5,5.2c0,2.8,2.3,5,5,5h128
	c2.8,0,5.1-2.2,5.2-5c0-2.8-2.2-5.1-5-5.2c0,0,0,0,0,0c-0.1,0-0.1,0-0.2,0H422.9z"/>
<path id="a75f2174-018f-4ccd-a38d-4db47ce7fed4" class="st2" d="M422.9,240.1c-2.8,0-5.1,2.4-5,5.2c0,2.8,2.3,5,5,5h210.4
	c2.8,0,5.1-2.2,5.2-5c0-2.8-2.2-5.1-5-5.2c0,0,0,0,0,0c-0.1,0-0.1,0-0.2,0H422.9z"/>
<path class="st3" d="M828.1,260l-42.1,4.8c0.6-12.9-0.5-25-4.8-35.4l34.5-12.4C812.6,229.8,818.4,244.5,828.1,260z"/>
<path class="st3" d="M833.2,403.8l13.6,24.4c3.4,6.1,1.2,13.8-4.9,17.2l0,0c-0.1,0-0.1,0.1-0.2,0.1l0,0c-6.1,3.3-13.8,1-17.2-5.1
	c-0.8-1.5-1.3-3.1-1.5-4.8l-2.2-23.3l-7.6-88.9l-12.9-58.5l26.8-7.6l12.5,65.7L833.2,403.8z"/>
<path class="st2" d="M855.9,663.2l-17.2-1l-38.3-170.5l-81.4,171.4l-17.2-1l49.8-264.3l1-47.9l62.2-3.8c23.3,25.6,36.4,52,38.3,79.5
	L855.9,663.2z"/>
<path class="st4" d="M717.5,693.1c-3.3,1.5-6.4-10.9-8.7-7.9c-7.9,10.3-26.2,7.1-26.2,5.9c-2.5-0.8-3.9-3.5-3.1-6.1l0,0
	c0-0.1,0-0.1,0.1-0.2l0,0c0.6-1.5,1.8-2.6,3.3-3l8.2-2l12.9-22.6l13.1-0.9l0,0c5.9,7.6,8.1,17.4,5.8,26.7
	C721.7,687.9,719.9,692.1,717.5,693.1z"/>
<path class="st4" d="M853.6,693.1c-3.3,1.5-6.4-10.9-8.7-7.9c-9.1,11.8-26.8,7.8-26.2,5.9c-2.5-0.8-3.9-3.5-3.1-6.1
	c0-0.1,0-0.1,0.1-0.2l0,0c0.6-1.5,1.8-2.6,3.3-3l8.2-2l12.9-22.6l14-1.8l0.4,0.6c5.5,8.8,6.9,19.6,3.9,29.5
	C857.1,689.3,855.5,692.2,853.6,693.1z"/>
<circle class="st3" cx="789.8" cy="208.3" r="29.7"/>
<path class="st5" d="M816.6,351l-64.2,3.8l-5.7-36.4c-5.9-16.4,1.5-31.4,13.4-46l24.9-27.8l34.5-1l0,0c9.5,3.1,16.3,11.4,17.5,21.3
	c2.5,20.4-1.2,41-10.7,59.2L816.6,351z"/>
<path class="st3" d="M746.7,432.4l4.6,27.5c1.1,6.9-3.5,13.4-10.4,14.6h0c-0.1,0-0.1,0-0.2,0l0,0c-6.9,1-13.4-3.7-14.4-10.6
	c-0.3-1.7-0.2-3.4,0.3-5l5.8-22.7l23-86.2l7.7-59.4l27.8,1.9l-10.5,66.1L746.7,432.4z"/>
<path class="st6" d="M825.4,322.8h-0.7c-12.9-11.2-24.2-23.8-15.1-39.5c-7.7-19.6-16.3-39.9-15.8-52.4c0.5-9.3-2.4-18.4-8.4-25.6
	c-8.2-9.6-10-13.8-25-10.2l0,0c-0.2-15.7,12.3-28.5,27.9-28.7l0,0c0.5,0,0.9,0,1.4,0l9.3,0.3c7.1,0.3,30,3.2,34.9,7.9
	c5,5,7.5,12.1,6.5,19.1c-0.9,7.8,1.5,14.7,8.1,20.5c12.6,13,17.8,26.5,10.6,40.8c-5.4,15.2-5.1,27.6,8.8,33.6l0,0
	C872.7,305.8,843.3,322.8,825.4,322.8z"/>
<path class="st5" d="M793.6,302.2c-11.9-9.1-23.7-9.8-35.4-1l3.2-36.4c-0.2-10.7,8.2-19.6,18.8-20.1l0,0
	c10.9-0.5,20.2,7.9,20.7,18.8c0,0.4,0,0.8,0,1.3L793.6,302.2z"/>
<ellipse class="st3" cx="790.3" cy="214.1" rx="3.8" ry="7.2"/>
</svg>
