<?xml version="1.0" encoding="utf-8"?>
<!-- Generator: Adobe Illustrator 23.0.1, SVG Export Plug-In . SVG Version: 6.00 Build 0)  -->
<svg version="1.1" id="ada2c66c-0b07-40f7-a84b-c9b183e7e59f"
	 xmlns="http://www.w3.org/2000/svg" xmlns:xlink="http://www.w3.org/1999/xlink" x="0px" y="0px" viewBox="0 0 898 831.1"
	 style="enable-background:new 0 0 898 831.1;" xml:space="preserve">
<style type="text/css">
	.st0{fill:#797BF2;}
	.st1{fill:#65657C;}
	.st2{fill:#3F3D56;}
	.st3{fill:#FF227D;}
	.st4{fill:#A0616A;}
	.st5{fill:#D0CDE1;}
	.st6{fill:#2F2E41;}
</style>
<title>celebrating</title>
<path class="st0" d="M710.5,26.5c0,0,26.5-20.1,82.6,7.4s96.3,4.2,96.3,4.2l-6.4,92.1c0,0-57.2,22.2-110.1-9.5s-69.9,0-69.9,0
	L710.5,26.5z"/>
<path class="st0" d="M761.3,446.7c0,126.8-77.2,240.8-194.8,288c-10.5,4.2-21.2,7.8-32.1,10.9c-54.4,15.1-111.9,15.1-166.3,0
	c-7.4-2.1-14.8-4.4-22-7c-16.4-5.9-32.3-13.2-47.4-21.8C204.5,663.6,141,562.6,141,446.7C140.9,281,271.2,144.5,436.7,136.9
	c4.8-0.2,9.6-0.3,14.4-0.3c5.3,0,10.6,0.1,15.8,0.4C631.9,145.4,761.3,281.6,761.3,446.7z"/>
<path class="st1" d="M841.3,137.9c-20.4,0-44.7-4.1-68-18.1c-21.4-12.8-39.1-17.1-52.7-12.6c-7.1,2.2-13.1,7.3-16.4,13.9l-2.8,6.6
	l11-108.9l0.3-0.3c0.9-0.9,23.6-21.4,82.9,7.6c58.1,28.5,100.4,4.8,100.8,4.5l1.7-1l-0.1,2l-6.8,98l-0.6,0.2
	C890.1,130,869.4,137.9,841.3,137.9z M731.8,103.3c12.1,0,26.3,4.9,42.5,14.6c51.8,31.1,108.2,12.5,114.8,10.2l6.5-94.8
	c-8.6,4.1-48.6,20.4-101.1-5.3c-54.5-26.7-77.4-10.5-80.2-8.3l-9.7,96.2c3.8-5.1,9.1-9,15.2-10.9
	C723.7,103.9,727.7,103.3,731.8,103.3z"/>
<path class="st1" d="M444.8,755.8c-29.9,0-59.7-4-88.5-12c-8-2.2-15.9-4.7-23.4-7.5c-17.5-6.3-34.3-14-50.5-23.2
	C123.5,623.3,67.6,421.7,157.4,262.9c32.7-57.8,82-104.4,141.6-133.7c40.7-20.1,85.1-31.5,130.4-33.5c10.2-0.5,21.1-0.5,32.2,0.1
	c182.2,9.4,322.3,164.7,312.9,346.9c-6.6,128.6-87.4,241.7-207,289.6c-11.2,4.5-22.6,8.4-34.2,11.6
	C504.6,751.8,474.7,755.9,444.8,755.8z M444.8,97.4c-5.2,0-10.3,0.1-15.3,0.3c-45,2-89.2,13.3-129.6,33.3
	C137.3,211.1,70.4,408,150.5,570.6c37.5,76.2,103.2,134.9,183.1,163.7c7.5,2.7,15.3,5.2,23.3,7.4c57.6,15.9,118.4,15.9,176,0
	c11.5-3.2,22.9-7,34-11.5c168.3-67.4,250-258.5,182.6-426.7c-47.6-118.9-160-199.2-287.9-205.7C455.9,97.5,450.2,97.4,444.8,97.4
	L444.8,97.4z"/>
<rect y="827.5" class="st2" width="484.4" height="2.1"/>
<path class="st1" d="M82.7,829.2l-1.1-0.4c-0.2-0.1-25.1-9.6-36.7-31.2C33.2,776,38.9,750,39,749.8l0.3-1.2l1.1,0.4
	c0.2,0.1,25.1,9.6,36.7,31.2c11.6,21.6,5.9,47.6,5.9,47.8L82.7,829.2z M46.7,796.6c9.8,18.3,29.5,27.6,34.5,29.7
	c0.9-5.3,3.9-26.9-5.9-45.1c-9.8-18.2-29.5-27.6-34.5-29.7C39.9,756.8,36.9,778.4,46.7,796.6L46.7,796.6z"/>
<path class="st0" d="M53.8,790c20.9,12.6,29,37.6,29,37.6s-25.9,4.6-46.8-8S7,782,7,782S32.8,777.5,53.8,790z"/>
<circle class="st3" cx="362.5" cy="154.6" r="99.1"/>
<circle class="st4" cx="383.1" cy="182.2" r="70.2"/>
<path class="st4" d="M327.2,197.8c0,0-10.4,83.2-48.1,100.1s104,7.8,104,7.8s0-75.4,5.2-78S327.2,197.8,327.2,197.8z"/>
<path class="st4" d="M311.6,747.7l-5.2,27.3c0,0-72.8,42.9-37.7,54.6s78-50.7,78-50.7l-7.8-31.2H311.6z"/>
<path class="st4" d="M362.3,542.3l57.2,61.1l157.3-109.2c0,0-36.4-28.6-48.1-28.6S362.3,542.3,362.3,542.3z"/>
<path class="st4" d="M671.7,221.2c0,0,16.9-118.3,46.8-109.2s-16.9,126.1-16.9,126.1L671.7,221.2z"/>
<path class="st5" d="M461.1,283.6c0,0-56.7-9.1-77.8,0s-84.6,16.3-92.5,6.2c-7.9-10.1-78.1,23.7-78.1,38s152.1,230.1,152.1,230.1
	s157.3-44.2,178.1-91c0,0-18.2-13-18.2-23.4c0-10.4-9.1-20.8-9.1-20.8s10.4-26-7.8-49.4C489.7,349.9,461.1,283.6,461.1,283.6z"/>
<path class="st5" d="M444.2,287.5l16.9-3.9c0,0,41.6,10.4,70.2,45.5s78,46.8,78,46.8l59.8-162.5l49.4,16.9c0,0-39,206.7-83.2,209.3
	s-153.4-45.5-153.4-45.5L444.2,287.5z"/>
<path class="st5" d="M233.6,314.8c0,0-27.3,1.3-27.3,24.7s3.9,104,27.3,139.1s44.2,114.4,45.5,115.7s26,165.1,26,165.1l41.6-3.9
	l-7.8-204.1l-40.3-104L233.6,314.8z"/>
<path class="st6" d="M692.8,641.2c-33.4,41.5-76.9,73.7-126.3,93.5l-6.6-14.3l-25.5,25.2c-54.4,15.1-111.9,15.1-166.3,0l-10.9-7
	l58.5-67.6c0,0,1.3-33.8,0-39s-18.4-52.4-18.4-52.4c59.3-3.8,144.1-79,163.7-97.1c2.7-2.5,4.2-3.9,4.2-3.9
	c109.2,15.6,124.8,143,124.8,143L692.8,641.2z"/>
<ellipse class="st4" cx="312.5" cy="184.7" rx="6.4" ry="13.2"/>
<circle class="st3" cx="272.2" cy="60.3" r="41.3"/>
<path class="st3" d="M228.8,41.3c0-21,15.7-38.6,36.5-41c-22.6-2.7-43.2,13.5-45.8,36.2s13.5,43.2,36.2,45.8c3.2,0.4,6.4,0.4,9.6,0
	C244.6,79.9,228.8,62.2,228.8,41.3z"/>
<rect x="699.9" y="24.3" class="st6" width="14.8" height="155.6"/>
<path class="st3" d="M298.7,121.7c0,0,19.1,40.2,42.3,41.3c23.3,1.1,110.1-15.9,110.1-15.9l-28.6-59.3l-76.2,9.5L298.7,121.7z"/>
</svg>
