<?xml version="1.0" encoding="utf-8"?>
<!-- Generator: Adobe Illustrator 23.0.1, SVG Export Plug-In . SVG Version: 6.00 Build 0)  -->
<svg version="1.1" id="b4b2b9fe-f942-49b6-919a-816d625fc7ce"
	 xmlns="http://www.w3.org/2000/svg" xmlns:xlink="http://www.w3.org/1999/xlink" x="0px" y="0px" viewBox="0 0 1055.5 670.2"
	 style="enable-background:new 0 0 1055.5 670.2;" xml:space="preserve">
<style type="text/css">
	.st0{opacity:0.1;fill:#F2F2F2;}
	.st1{fill:#797BF2;}
	.st2{fill:#65657C;}
	.st3{fill:#FFB9B9;}
	.st4{fill:#6A70DB;}
	.st5{fill:#2F2E41;}
	.st6{opacity:0.1;enable-background:new    ;}
	.st7{fill:#FF227D;}
</style>
<title>fill_in</title>
<path class="st0" d="M0,119.2v296h476v-296L0,119.2z M374.3,325.8c0,6.6-5.4,12-12,12h-58c-6.6,0-12-5.4-12-12v-3
	c0-6.6,5.4-12,12-12h58c6.6,0,12,5.4,12,12V325.8z"/>
<rect x="682.3" y="159.3" transform="matrix(0.9327 -0.3607 0.3607 0.9327 -15.8497 263.4359)" class="st1" width="30.9" height="29.8"/>
<path class="st2" d="M712.4,180.3L682,192.1l-11.3-29.3l30.3-11.7L712.4,180.3z M683,190l27.3-10.6l-10.2-26.4l-27.3,10.6L683,190z"
	/>
<rect x="232.6" y="522.8" transform="matrix(0.9457 -0.3251 0.3251 0.9457 -161.5443 109.7031)" class="st1" width="29.8" height="30.9"/>
<path class="st2" d="M240.8,552.6l-10.6-30.8l29.7-10.2l10.6,30.8L240.8,552.6z M232.2,522.8l9.5,27.7l26.7-9.2l-9.5-27.7
	L232.2,522.8z"/>
<path class="st2" d="M515.5,386.7h-478v-298h478V386.7z M39.5,384.7h474v-294h-474V384.7z"/>
<rect x="540" y="374.2" class="st0" width="476" height="296"/>
<path class="st2" d="M1055.5,641.7h-478v-298h478V641.7z M579.5,639.7h474v-294h-474V639.7z"/>
<path class="st2" d="M160.8,257.8h208c6.6,0,12,5.4,12,12v3c0,6.6-5.4,12-12,12h-208c-6.6,0-12-5.4-12-12v-3
	C148.8,263.2,154.1,257.8,160.8,257.8z"/>
<path class="st2" d="M160.8,151.8h208c6.6,0,12,5.4,12,12v3c0,6.6-5.4,12-12,12h-208c-6.6,0-12-5.4-12-12v-3
	C148.8,157.2,154.1,151.8,160.8,151.8z"/>
<path class="st2" d="M160.8,204.8h208c6.6,0,12,5.4,12,12v3c0,6.6-5.4,12-12,12h-208c-6.6,0-12-5.4-12-12v-3
	C148.8,210.2,154.1,204.8,160.8,204.8z"/>
<path class="st2" d="M178,90l-1.3-0.5c-0.3-0.1-28-10.7-41-34.8c-13-24.1-6.6-53.1-6.6-53.4l0.3-1.3l1.3,0.5
	c0.3,0.1,28,10.7,41,34.8c13,24.1,6.6,53.1,6.6,53.4L178,90z M137.9,53.6c11,20.4,32.9,30.8,38.4,33.2c1.1-5.9,4.4-30-6.6-50.3
	c-11-20.3-32.9-30.8-38.4-33.2C130.2,9.2,126.9,33.2,137.9,53.6L137.9,53.6z"/>
<path class="st1" d="M145.7,46.2c23.3,14,32.3,41.9,32.3,41.9s-28.8,5.1-52.2-8.9S93.6,37.3,93.6,37.3S122.4,32.2,145.7,46.2z"/>
<path class="st3" d="M782.4,578.2c0,0-40.6,21.1-25.6,40.6s40.6-22.6,40.6-25.6S782.4,578.2,782.4,578.2z"/>
<path class="st4" d="M827.5,524c0,0-27.1,33.1-34.6,37.6s-13.5,9-13.5,10.5s-6,9-6,9l24.1,21.1c0,0,27.1-36.1,30.1-36.1
	S827.5,524,827.5,524z"/>
<polygon class="st5" points="917.9,640.7 830.2,640.7 836.8,598.7 842.2,564.8 845.6,543.6 878.7,531.5 886.7,543.9 911.8,582.7 
	913.4,598.6 913.4,598.6 917.8,640.3 "/>
<path class="st5" d="M935.8,581.2c0,0-0.6,5.2-2.4,13.5c-0.5,2.1-1,4.5-1.7,7c-0.6,2.2-1.2,4.5-1.9,6.9c-2.2,7.7-4.9,15.2-8,22.6v0
	c-1.3,3-2.6,6.1-4.1,9.1c-0.1,0.1-0.1,0.3-0.2,0.4H806.9c4.5-18,9-34.1,12-45c2.5-9,4.1-14.5,4.1-14.5l19.2-16.3l21.4-18.2l23.1-2.6
	l14.3-1.6l9.8-1.1l1.6-0.2l3.9-0.5L935.8,581.2z"/>
<circle class="st3" cx="849.1" cy="299.3" r="34.6"/>
<path class="st3" d="M877.4,301l18.1,38.7l-50.8,35.2c0,0,6-41.9-5.3-52.5S877.4,301,877.4,301z"/>
<path class="st1" d="M838.1,378.1c0,0,24.1-49.6,43.6-49.6s70.7,34.6,69.2,42.1s-1.5,9-1.5,13.5s10.5,4.5,1.5,7.5s-10.5,6-10.5,6
	l7.5,192.5c0,0-33.1,12-45.1,7.5s-24.1-34.6-24.1-34.6s3,40.6-9,39.1s-57.1-4.5-58.7-10.5s9-138.4,9-138.4L838.1,378.1z"/>
<path class="st3" d="M954,640.7h-30.4c-0.8-3.1-1.4-6.3-1.7-9.5v0c-0.8-7.3-0.9-14.6-0.3-21.9c0.3-4.3,0.7-7.1,0.7-7.1l9.5-0.6
	l16.1-0.9c0,0,0.6,2.4,1.5,6.2C951.2,614.7,954,628.8,954,640.7z"/>
<path class="st1" d="M916.3,366.1l43.6,111.3c0,0,6,12,0,21.1s3,63.2-3,75.2s-6,33.1-6,33.1l-34.6,3l-7.5-132.3l-39.1-84.2
	C869.6,393.2,872.7,358.6,916.3,366.1z"/>
<path class="st6" d="M905,362.3c0,0,27.1,7.5,36.1,34.6L905,362.3z"/>
<path class="st7" d="M871.8,315c-3.4-0.2-6.7,0.9-10,1.4c-12,1.6-24.4-7.1-27-18.9c-0.2-1.6-0.7-3.1-1.4-4.5c-1.8-3-6-3.6-9.5-2.9
	s-6.7,2.3-10.2,2.5c-5.4,0.3-10.6-3.1-13.5-7.7s-3.7-10.3-3.3-15.7l2.6,2.7c1.1-2.2,1.5-4.7,1.2-7.2c2.8-0.7,5.8,0,7.9,2
	c2.3,0.2,0.6-4.3,2.3-5.8c0.7-0.7,1.8-0.5,2.8-0.5c4.9,0,8.8-3.7,12.7-6.7c6.7-5.2,14.5-8.8,22.8-10.4c5.5-1.1,11.4-1.2,16.6,0.8
	c4.3,1.7,7.9,4.8,11.2,8c8.2,7.9,15.4,17.1,18.9,28c2.8,8.9,2.8,18.4,0.2,27.3c-1.4,4.6-5.5,20.5-11.6,20.9
	C876.7,328.8,881.3,315.6,871.8,315z"/>
<polygon class="st6" points="869.3,425.7 904.8,477.6 916.1,598.3 "/>
<path class="st2" d="M706,596.2h58c6.6,0,12,5.4,12,12v3c0,6.6-5.4,12-12,12h-58c-6.6,0-12-5.4-12-12v-3
	C694,601.5,699.4,596.2,706,596.2z"/>
</svg>
