<?xml version="1.0" encoding="utf-8"?>
<!-- Generator: Adobe Illustrator 25.2.0, SVG Export Plug-In . SVG Version: 6.00 Build 0)  -->
<svg version="1.1" id="Layer_1" xmlns:svgjs="http://svgjs.com/svgjs"
	 xmlns="http://www.w3.org/2000/svg" xmlns:xlink="http://www.w3.org/1999/xlink" x="0px" y="0px" viewBox="0 0 512 512"
	 style="enable-background:new 0 0 512 512;" xml:space="preserve">
<style type="text/css">
	.st0{fill:#D4E1F4;}
	.st1{fill:#1AE5BE;}
	.st2{fill:#7703FC;}
</style>
<g>
	<g>
		<path class="st0" d="M68.5,245l-23.4,56h18.3l22-52.8C80,246.1,74.3,245,68.5,245z"/>
		<path class="st0" d="M135.8,61.9h-18.3C106.7,62,98,70.7,98,81.5v86.2h18.3V81.5C116.3,70.7,125,62,135.8,61.9z"/>
		<path class="st0" d="M110.2,239.1c-6-2.6-12.4-4.3-18.9-4.8l22.7-54.4c0.2-0.4,0.3-0.8,0.5-1.2H96.1c-0.2,0.4-0.3,0.8-0.5,1.2
			L73,234.3c6.5,0.5,12.9,2.1,18.9,4.8c5.6,2.3,10.5,4.2,20.8,4.2c3.1,0,6.1-0.2,9.1-0.6C117.8,241.9,113.9,240.7,110.2,239.1z"/>
		<path class="st0" d="M42.4,312h18.3v44.6H42.4V312z"/>
		<path class="st0" d="M42.4,367.6h18.3V385H42.4V367.6z"/>
	</g>
	<path class="st1" d="M49.4,461c9.9,0,18-8.1,18-18v-47h273.4v47c0,9.9,8,18,18,18c9.9,0,18-8,18-18l0,0V311.6c0-4-0.8-8-2.3-11.7
		l-51.7-124.2c-0.2-0.5-0.3-0.9-0.5-1.4c0.1-0.4,0.1-0.7,0.1-1.1c0-1.1-0.4-2.3-1-3.2c-0.1-0.6-0.1-1.2-0.1-1.8V81.5
		c0-16.8-13.7-30.5-30.5-30.5H117.5C100.7,51,87.1,64.6,87,81.5v86.7c0,0.6,0,1.2-0.1,1.8c-0.7,0.9-1,2-1,3.2c0,0.4,0,0.7,0.1,1.1
		c-0.2,0.5-0.3,0.9-0.5,1.4L33.8,299.8c-1.6,3.7-2.3,7.7-2.3,11.7V443C31.5,452.9,39.5,461,49.4,461L49.4,461z M68.5,245
		c9.3,0.2,14,2,19.3,4.2c7.8,3.5,16.4,5.2,24.9,5c8.6,0.2,17.1-1.5,24.9-5c5.6-2.3,10.5-4.2,20.8-4.2s15.2,1.9,20.8,4.2
		c7.8,3.5,16.4,5.2,24.9,5c8.6,0.2,17.1-1.5,24.9-5c5.6-2.3,10.5-4.2,20.8-4.2c10.4,0,15.2,1.9,20.9,4.2c16,6.7,33.9,6.7,49.9,0
		c5.3-2.1,9.8-4,18.9-4.2l23.3,56H45.2L68.5,245z M365.8,312v44.6H42.4V312H365.8z M365.8,367.6V385H42.4v-17.4H365.8z M56.5,443
		c0,3.9-3.1,7-7,7s-7-3.1-7-7l0,0v-47h14.1L56.5,443L56.5,443z M358.8,450c-3.9,0-7-3.1-7-7v-47h14.1v47
		C365.8,446.9,362.7,450,358.8,450L358.8,450z M117.5,61.9h173.2c10.8,0,19.5,8.7,19.5,19.5v86.2H257v-13c0-8.1-6.5-14.6-14.6-14.6
		h-76.5c-8.1,0-14.6,6.5-14.6,14.6v13H98V81.5C98,70.7,106.7,62,117.5,61.9L117.5,61.9z M162.2,154.7c0-2,1.6-3.7,3.7-3.7h76.5
		c2,0,3.7,1.6,3.7,3.7v25.2c0,2-1.6,3.7-3.7,3.7h-76.5c-2,0-3.7-1.6-3.7-3.7V154.7z M95.7,179.9c0.2-0.4,0.3-0.8,0.5-1.2h55.2v1.2
		c0,8.1,6.5,14.6,14.6,14.6h76.5c8.1,0,14.6-6.5,14.6-14.6v-1.2h55.2c0.2,0.4,0.3,0.8,0.5,1.2l22.7,54.4c-6.4,0.5-12.7,2.1-18.5,4.7
		c-5.6,2.3-10.5,4.2-20.9,4.2s-15.2-1.9-20.9-4.2c-7.8-3.5-16.4-5.2-24.9-5c-8.6-0.2-17.1,1.5-24.9,5c-5.6,2.3-10.5,4.2-20.8,4.2
		s-15.2-1.9-20.8-4.2c-7.8-3.5-16.4-5.2-24.9-5c-8.6-0.2-17.1,1.5-24.9,5c-5.6,2.3-10.5,4.2-20.8,4.2S98,241.3,92.4,239
		c-6-2.6-12.4-4.3-18.9-4.8L95.7,179.9z"/>
	<path class="st2" d="M480.4,124.3l-17.3-69.1c-0.6-2.4-2.8-4.1-5.3-4.1H406c-2.5,0-4.7,1.7-5.3,4.1l-17.3,69.1
		c-0.7,2.9,1.1,5.9,4,6.6c0.4,0.1,0.9,0.2,1.3,0.2h37.7v117.7h-29.1c-3,0-5.5,2.5-5.5,5.5v34.6c0,3,2.5,5.5,5.5,5.5h69.1
		c3,0,5.5-2.5,5.5-5.5v-34.6c0-3-2.5-5.5-5.5-5.5h-29.1V131.1h12.6v29.6c0,3,2.5,5.5,5.5,5.5s5.5-2.5,5.5-5.5v-29.6h14.2
		c3,0,5.5-2.5,5.5-5.5C480.5,125.2,480.5,124.7,480.4,124.3L480.4,124.3z M460.9,283.3h-58.2v-23.6h58.2V283.3z M395.7,120.1
		l14.5-58.2h43.3l14.5,58.2H395.7z"/>
</g>
</svg>
