<?xml version="1.0" encoding="utf-8"?>
<!-- Generator: Adobe Illustrator 25.2.0, SVG Export Plug-In . SVG Version: 6.00 Build 0)  -->
<svg version="1.1" id="Layer_1" xmlns:svgjs="http://svgjs.com/svgjs"
	 xmlns="http://www.w3.org/2000/svg" xmlns:xlink="http://www.w3.org/1999/xlink" x="0px" y="0px" viewBox="0 0 512 512"
	 style="enable-background:new 0 0 512 512;" xml:space="preserve">
<style type="text/css">
	.st0{fill:#1AE5BE;}
	.st1{fill:#7703FC;}
</style>
<path class="st0" d="M323.2,219.9c-2-0.8-4.3-0.3-5.8,1.3l-4.5,4.8l-4.8-4.9c-1-1-2.4-1.6-3.8-1.6l0,0c-1.4,0-2.8,0.6-3.8,1.7
	l-4.7,4.9l-4.7-4.9c-1-1-2.4-1.6-3.8-1.7l0,0c-1.4,0-2.8,0.6-3.8,1.6l-4.8,4.9l-4.6-4.8c-1.5-1.6-3.7-2.1-5.7-1.3s-3.3,2.8-3.2,5
	v49.9h10.7v-36.6c0.8,0.6,1.8,0.9,2.9,0.9c1.4,0,2.8-0.6,3.8-1.6l4.8-4.9l4.7,4.9c2.1,2.1,5.4,2.2,7.5,0.1l0.1-0.1l4.8-4.9l4.8,4.9
	c1,1,2.4,1.6,3.8,1.6c1,0,2.1-0.3,2.9-0.9v36.6h10.7v-49.9C326.5,222.7,325.2,220.7,323.2,219.9L323.2,219.9z"/>
<g>
	<path class="st1" d="M66.9,292.4c-3,0-5.4,2.4-5.4,5.4v5.6c0,3,2.4,5.4,5.4,5.4s5.4-2.4,5.4-5.4v-5.6
		C72.3,294.7,69.9,292.4,66.9,292.4z"/>
	<path class="st1" d="M66.9,314.9c-3,0-5.4,2.4-5.4,5.4v58.9c0,3,2.4,5.4,5.4,5.4s5.4-2.4,5.4-5.4v-58.9
		C72.3,317.3,69.9,314.9,66.9,314.9z"/>
	<path class="st1" d="M469.3,232.8H429v10.7h27.4l-25.7,25.9H152.8l25.8-25.9H198v-10.7H79c-1.4,0-2.8,0.5-3.8,1.5l-36.4,36.5
		c-1,1-1.5,2.4-1.4,3.8v180.7c-0.1,2.6,1.9,4.9,4.6,5c0.2,0,0.3,0,0.5,0h390.4c1.4,0.1,2.8-0.4,3.8-1.4l36.4-36.4
		c1-1,1.5-2.3,1.4-3.7V238C474.5,235.2,472.2,232.8,469.3,232.8L469.3,232.8z M314,280.1h43.7v23.2H314V280.1z M117.8,280.1h44.6
		v23.2h-44.6C117.8,303.3,117.8,280.1,117.8,280.1z M81.3,243.5h82.3l-25.8,25.9H55.5L81.3,243.5z M160.6,449.5h-41v-30.1
		c0.9,0.6,2,0.9,3.1,0.9c1.5,0,2.9-0.6,3.9-1.6l4.9-4.9l4.8,4.9c2.1,2.1,5.5,2.2,7.6,0.1l0.1-0.1l4.8-4.9l4.8,4.9
		c1.1,1,2.5,1.6,4,1.6c1.1,0,2.2-0.3,3.1-0.9L160.6,449.5z M238.2,341.6c-3,0-5.4,2.4-5.4,5.4v102.6h-61.5v-43.4
		c-0.1-3-2.6-5.4-5.6-5.3c-1.4,0-2.8,0.6-3.8,1.7l-4.6,4.8l-4.8-5c-1-1.1-2.4-1.7-3.8-1.8l0,0c-1.5,0.1-2.8,0.7-3.8,1.8l-4.7,5
		l-4.7-5c-1-1.1-2.4-1.7-3.8-1.7l0,0c-1.5,0.1-2.8,0.7-3.8,1.8l-4.8,5l-4.6-4.8c-2.1-2.2-5.6-2.2-7.8-0.1c-1,1-1.6,2.4-1.7,3.8v43.4
		H48.2V280.1h58.9v28.2c0.1,3.1,2.5,5.5,5.5,5.7h54.9c3.1-0.1,5.5-2.6,5.6-5.7v-28.2h59.8v31.2c0,3,2.4,5.4,5.4,5.4s5.4-2.4,5.4-5.4
		v-31.2h59.8v28.2c0,3,2,5.7,5,5.7h54.9c3,0,5.3-2.7,5.3-5.7v-28.2h58.9v169.4H367v-43.4c0-2.9-2.4-5.3-5.3-5.3
		c-1.5,0-2.9,0.6-3.9,1.7l-4.6,4.8l-4.8-5c-1-1.1-2.4-1.7-3.8-1.8l0,0c-1.5,0.1-2.8,0.7-3.8,1.8l-4.7,5l-4.7-5
		c-1-1.1-2.4-1.7-3.8-1.7l0,0c-1.5,0.1-2.8,0.7-3.8,1.8l-4.8,5l-4.6-4.8c-1.4-1.6-3.7-2.1-5.7-1.3c-2,0.8-3.3,2.8-3.2,5v43.4H244
		V347C243.5,344,241.1,341.6,238.2,341.6L238.2,341.6z M355.9,449.5h-40.1v-30.1c0.8,0.6,1.8,0.9,2.8,0.9c1.4,0,2.8-0.6,3.8-1.6
		l4.8-4.9l4.7,4.9c2,2.1,5.4,2.2,7.5,0.1l0.1-0.1l4.8-4.9l4.8,4.9c1,1,2.4,1.6,3.8,1.6c1.1,0,2.1-0.3,3-0.9L355.9,449.5z M437.9,442
		V276.8l25.9-25.5v165.2L437.9,442z"/>
</g>
<path class="st0" d="M429.4,51.8H234.6c-1.4-0.1-2.8,0.4-3.8,1.4l-36.6,37.3c-1,1-1.6,2.3-1.6,3.7v175.2h10.7V99h59.8v28
	c-0.1,2.7,2,4.9,4.7,5c0.1,0,0.3,0,0.4,0h54.9c2.7,0.1,5.1-2,5.2-4.7c0-0.1,0-0.2,0-0.3V99H388v170.3h16.1l28.9-28.2
	c0.9-1,1.4-2.4,1.4-3.8V56.8c0.2-2.6-1.8-4.8-4.4-5C429.8,51.8,429.6,51.8,429.4,51.8L429.4,51.8z M211.7,88.3l25.2-25.9h82.2
	l-25.8,25.9H211.7z M317.5,121.3h-43.7V99h43.7V121.3z M308.4,88.3l25.8-25.9h82.3l-25.8,25.9H308.4z M423.7,235.2l-25,25.8V95.5
	l25-25.8V235.2z"/>
</svg>
