<?xml version="1.0" encoding="utf-8"?>
<!-- Generator: Adobe Illustrator 25.2.0, SVG Export Plug-In . SVG Version: 6.00 Build 0)  -->
<svg version="1.1" id="Layer_1" xmlns:svgjs="http://svgjs.com/svgjs"
	 xmlns="http://www.w3.org/2000/svg" xmlns:xlink="http://www.w3.org/1999/xlink" x="0px" y="0px" viewBox="0 0 512 512"
	 style="enable-background:new 0 0 512 512;" xml:space="preserve">
<style type="text/css">
	.st0{fill:#7703FC;}
	.st1{fill:#1AE5BE;}
</style>
<g>
	<path class="st0" d="M220.6,441.4l1.8-9.5c-72.1-13.8-128.5-70.2-142.3-142.3l-9.5,1.8C85.2,367.4,144.6,426.8,220.6,441.4
		L220.6,441.4z"/>
	<path class="st0" d="M382.6,382.6c-25.3,25.4-57.7,42.6-93,49.3l1.8,9.5c76-14.6,135.4-74,150-150l-9.5-1.8
		C425.2,324.9,408,357.3,382.6,382.6L382.6,382.6z"/>
	<path class="st0" d="M291.4,70.6l-1.8,9.5c72.1,13.8,128.5,70.2,142.3,142.3l9.5-1.8C426.8,144.6,367.4,85.2,291.4,70.6L291.4,70.6
		z"/>
	<path class="st0" d="M156.8,284.5l-9.3,2.7c10.9,37.3,40,66.4,77.3,77.3l2.7-9.3C193.4,345.3,166.7,318.6,156.8,284.5L156.8,284.5z
		"/>
	<path class="st0" d="M284.5,355.2l2.7,9.3c37.3-10.9,66.4-40,77.3-77.3l-9.3-2.7C345.3,318.6,318.6,345.3,284.5,355.2z"/>
	<path class="st0" d="M355.2,227.5l9.3-2.7c-10.9-37.3-40-66.4-77.3-77.3l-2.7,9.3C318.6,166.7,345.3,193.4,355.2,227.5L355.2,227.5
		z"/>
	<path class="st0" d="M147.5,224.8l9.3,2.7c9.9-34.1,36.6-60.7,70.7-70.7l-2.7-9.3C187.5,158.4,158.4,187.5,147.5,224.8L147.5,224.8
		z"/>
	<path class="st0" d="M162.1,124.7c-1.6-2.1-4.7-2.5-6.8-0.9l0,0c-20.9,16.1-37.7,37-49,60.9c-1.2,2.4-0.2,5.3,2.2,6.5
		c2.4,1.2,5.3,0.2,6.5-2.2c0,0,0-0.1,0.1-0.1c10.6-22.5,26.4-42.2,46.1-57.4C163.3,129.8,163.7,126.8,162.1,124.7L162.1,124.7
		L162.1,124.7z"/>
	<path class="st0" d="M172.6,122.6c0.9,0,1.8-0.2,2.5-0.7c1.5-0.9,3.1-1.8,4.6-2.7c2.3-1.3,3.2-4.3,1.8-6.6
		c-1.3-2.3-4.3-3.2-6.6-1.8l0,0c-1.7,0.9-3.3,1.9-4.9,2.9c-2.3,1.4-3,4.4-1.6,6.6C169.3,121.7,170.9,122.6,172.6,122.6z"/>
	<path class="st0" d="M117.5,142.6c1.6-2.1,1.2-5.2-0.9-6.8c-2-1.6-4.9-1.3-6.6,0.6c-20,24.3-33.6,53.3-39.4,84.2l9.5,1.8
		C85.7,193.1,98.5,165.6,117.5,142.6z"/>
	<path class="st0" d="M139.1,114.7c1.7,1.7,4.5,1.9,6.4,0.4c22.4-17.7,48.8-29.7,76.9-35l-1.8-9.5c-29.6,5.6-57.4,18.2-81,36.9
		c-2.1,1.7-2.5,4.7-0.8,6.8C138.9,114.4,139,114.6,139.1,114.7L139.1,114.7z"/>
</g>
<path class="st1" d="M221.8,160.7c0.2,2.6,2.3,4.5,4.8,4.5h58.7c2.4,0,4.5-1.7,4.8-4.1l6.2-102c0.2-1.5-0.3-2.9-1.3-4
	c-0.9-1-2.2-1.5-3.5-1.5h-71.1c-2.7,0-4.8,2.2-4.8,4.8c0,0.1,0,0.2,0,0.3L221.8,160.7z M286.4,63.3l-5.6,92.3h-49.6l-5.6-92.3
	C225.6,63.3,286.4,63.3,286.4,63.3z"/>
<path class="st1" d="M220.5,458.4h71.1c2.7,0,4.8-2.2,4.8-4.8c0-0.1,0-0.2,0-0.3l-6.2-102c-0.2-2.6-2.3-4.5-4.8-4.5h-58.7
	c-2.6,0-4.7,2-4.8,4.5l-6.2,102c-0.2,2.7,1.9,5,4.5,5.1C220.3,458.4,220.4,458.4,220.5,458.4L220.5,458.4z M231.2,356.4h49.6
	l5.6,92.3h-60.8L231.2,356.4z"/>
<path class="st1" d="M453.3,215.6l-102,6.2c-2.6,0.2-4.5,2.3-4.5,4.8v58.7c0,2.6,2,4.7,4.5,4.8l102,6.2c0.1,0,0.2,0,0.3,0
	c2.7,0,4.8-2.2,4.8-4.8v-71.1c0-2.7-2.2-4.8-4.8-4.8C453.5,215.6,453.4,215.6,453.3,215.6L453.3,215.6z M448.7,286.4l-92.3-5.6
	v-49.6l92.3-5.6V286.4z"/>
<path class="st1" d="M165.2,285.3v-58.7c0-2.6-2-4.7-4.5-4.8l-102-6.2c-1.3-0.1-2.6,0.4-3.6,1.3c-1,0.9-1.5,2.2-1.5,3.5v71.1
	c0,2.7,2.2,4.8,4.8,4.8c0.1,0,0.2,0,0.3,0l102-6.2C163.3,290,165.3,287.9,165.2,285.3z M155.6,280.8l-92.3,5.6v-60.8l92.3,5.6V280.8
	z"/>
</svg>
