<?xml version="1.0" encoding="utf-8"?>
<!-- Generator: Adobe Illustrator 25.2.0, SVG Export Plug-In . SVG Version: 6.00 Build 0)  -->
<svg version="1.1" id="Layer_1" xmlns:svgjs="http://svgjs.com/svgjs"
	 xmlns="http://www.w3.org/2000/svg" xmlns:xlink="http://www.w3.org/1999/xlink" x="0px" y="0px" viewBox="0 0 512 512"
	 style="enable-background:new 0 0 512 512;" xml:space="preserve">
<style type="text/css">
	.st0{fill:#7703FC;}
	.st1{fill:#1AE5BE;}
</style>
<g>
	<g>
		<path class="st0" d="M236.4,121.3h163.9v10.4H236.4V121.3z"/>
		<path class="st0" d="M187.8,153.7h212.6v10.4H187.8V153.7z"/>
		<path class="st0" d="M187.8,186.2h212.6v10.4H187.8V186.2z"/>
		<path class="st0" d="M187.8,218.6h212.6V229H187.8V218.6z"/>
		<path class="st0" d="M187.8,251.1h155.8v10.4H187.8V251.1z"/>
	</g>
	<path class="st1" d="M55,435.8c1.9,0.8,4.2,0.4,5.7-1.1l58.6-58.5H379c2.9,0,5.2-2.3,5.2-5.2v-70.1h-10.4v64.9H117.1
		c-1.4,0-2.7,0.5-3.7,1.5l-51.3,51.1v-262H133V146H57c-2.9,0-5.2,2.3-5.2,5.2V431C51.8,433.1,53,435,55,435.8z"/>
	<path class="st1" d="M77.3,170.2h10.4V183H77.3V170.2z"/>
	<path class="st1" d="M77.3,193.3h10.4V328H77.3V193.3z"/>
	<path class="st0" d="M133,306h259.7l58.6,58.5c2,2,5.3,2,7.4,0c1-1,1.5-2.3,1.5-3.7V81.1c0-2.9-2.3-5.2-5.2-5.2H133
		c-2.9,0-5.2,2.3-5.2,5.2v219.8C127.8,303.7,130.2,306,133,306L133,306z M138.2,86.3h311.6v262l-51.3-51.1c-1-1-2.3-1.5-3.7-1.5
		H138.2V86.3z"/>
</g>
</svg>
