<?xml version="1.0" encoding="utf-8"?>
<!-- Generator: Adobe Illustrator 25.2.0, SVG Export Plug-In . SVG Version: 6.00 Build 0)  -->
<svg version="1.1" id="Layer_1" xmlns:svgjs="http://svgjs.com/svgjs"
	 xmlns="http://www.w3.org/2000/svg" xmlns:xlink="http://www.w3.org/1999/xlink" x="0px" y="0px" viewBox="0 0 512 512"
	 style="enable-background:new 0 0 512 512;" xml:space="preserve">
<style type="text/css">
	.st0{fill:#7703FC;}
	.st1{fill:#1AE5BE;}
</style>
<path class="st0" d="M458.6,122.6c0-20.9-17-37.9-37.9-37.9H91.3c-20.9,0-37.9,17-37.9,37.9v266.8c0,20.9,17,37.9,37.9,37.9h329.4
	c20.9,0,37.9-17,37.9-37.9V122.6z M448.7,139.1H134.1c-2.7,0-4.9,2.2-4.9,4.9s2.2,4.9,4.9,4.9h314.6v240.3c0,15.5-12.5,28.1-28,28.2
	H91.3c-15.5-0.1-28-12.7-28-28.2V148.9h36.2c2.7,0,4.9-2.2,4.9-4.9s-2.2-4.9-4.9-4.9H63.3v-16.3c0-15.5,12.5-28.1,28-28.2h329.4
	c15.5,0.1,28,12.7,28,28.2V139.1z"/>
<path class="st0" d="M92.5,112.4c-3.9,0-7,3.1-7,7s3.1,7,7,7s7-3.1,7-7l0,0C99.5,115.6,96.3,112.4,92.5,112.4z"/>
<path class="st0" d="M118.5,112.4c-3.9,0-7,3.1-7,7s3.1,7,7,7s7-3.1,7-7l0,0C125.5,115.6,122.4,112.4,118.5,112.4z"/>
<path class="st0" d="M145.4,112.4c-3.9,0-7,3.1-7,7s3.1,7,7,7s7-3.1,7-7l0,0C152.4,115.6,149.3,112.4,145.4,112.4z"/>
<path class="st0" d="M78.9,179.7c-2.7,0-4.9,2.2-4.9,4.9v69.6c0,2.7,2.2,4.9,4.9,4.9c2.7,0,4.9-2.2,4.9-4.9l0,0v-69.6
	C83.9,181.9,81.7,179.7,78.9,179.7L78.9,179.7z"/>
<path class="st0" d="M78.9,160.5c-2.7,0-4.9,2.2-4.9,4.9v3.8c0,2.7,2.2,4.9,4.9,4.9c2.7,0,4.9-2.2,4.9-4.9v-3.8
	C83.9,162.7,81.7,160.5,78.9,160.5z"/>
<g>
	<path class="st1" d="M134.3,233c-1.9-1.9-5.1-1.9-7,0l-36.8,36.8c-1.9,1.9-1.9,5.1,0,7l0,0l36.8,36.8c2,1.9,5.1,1.9,7-0.1
		c1.9-1.9,1.9-5,0-6.9L101,273.3l33.3-33.3C136.2,238,136.2,234.9,134.3,233z"/>
	<path class="st1" d="M193.2,233c-2-1.9-5.1-1.9-7,0.1c-1.9,1.9-1.9,5,0,6.9l33.3,33.3l-33.3,33.3c-2,1.9-2,5-0.1,7s5,2,7,0.1
		l0.1-0.1l36.8-36.8c1.9-1.9,1.9-5.1,0-7l0,0L193.2,233z"/>
	<path class="st1" d="M175.8,208.8c-2.7-0.6-5.3,1-6,3.6L141,331.7c-0.7,2.6,0.9,5.3,3.6,6c2.6,0.7,5.3-0.9,6-3.6V334l28.8-119.3
		C180.1,212.2,178.5,209.5,175.8,208.8L175.8,208.8L175.8,208.8z"/>
	<path class="st1" d="M258.3,218.9h-2.5c-2.7,0-4.9,2.2-4.9,4.9s2.2,4.9,4.9,4.9h2.5c2.7,0,4.9-2.2,4.9-4.9
		C263.3,221.2,261,218.9,258.3,218.9z"/>
	<path class="st1" d="M291.4,218.9h-8.5c-2.7,0-4.9,2.2-4.9,4.9s2.2,4.9,4.9,4.9h8.5c2.7,0,4.9-2.2,4.9-4.9
		C296.4,221.2,294.2,218.9,291.4,218.9z"/>
	<path class="st1" d="M418,218.9H316.5c-2.7,0-4.9,2.2-4.9,4.9s2.2,4.9,4.9,4.9H418c2.7,0,4.9-2.2,4.9-4.9
		C423,221.2,420.7,218.9,418,218.9z"/>
	<path class="st1" d="M258.3,251.9h-2.5c-2.7,0-4.9,2.2-4.9,4.9c0,2.7,2.2,4.9,4.9,4.9h2.5c2.7,0,4.9-2.2,4.9-4.9
		C263.3,254.1,261,251.9,258.3,251.9z"/>
	<path class="st1" d="M291.4,251.9h-8.5c-2.7,0-4.9,2.2-4.9,4.9c0,2.7,2.2,4.9,4.9,4.9h8.5c2.7,0,4.9-2.2,4.9-4.9
		C296.4,254.1,294.2,251.9,291.4,251.9z"/>
	<path class="st1" d="M418,251.9H316.5c-2.7,0-4.9,2.2-4.9,4.9c0,2.7,2.2,4.9,4.9,4.9H418c2.7,0,4.9-2.2,4.9-4.9
		C423,254.1,420.7,251.9,418,251.9z"/>
	<path class="st1" d="M258.3,284.8h-2.5c-2.7,0-4.9,2.2-4.9,4.9s2.2,4.9,4.9,4.9h2.5c2.7,0,4.9-2.2,4.9-4.9S261,284.8,258.3,284.8z"
		/>
	<path class="st1" d="M291.4,284.8h-8.5c-2.7,0-4.9,2.2-4.9,4.9s2.2,4.9,4.9,4.9h8.5c2.7,0,4.9-2.2,4.9-4.9S294.2,284.8,291.4,284.8
		z"/>
	<path class="st1" d="M418,284.8H316.5c-2.7,0-4.9,2.2-4.9,4.9s2.2,4.9,4.9,4.9H418c2.7,0,4.9-2.2,4.9-4.9S420.7,284.8,418,284.8z"
		/>
	<path class="st1" d="M258.3,317.8h-2.5c-2.7,0-4.9,2.2-4.9,4.9s2.2,4.9,4.9,4.9h2.5c2.7,0,4.9-2.2,4.9-4.9S261,317.8,258.3,317.8z"
		/>
	<path class="st1" d="M291.4,317.8h-8.5c-2.7,0-4.9,2.2-4.9,4.9s2.2,4.9,4.9,4.9h8.5c2.7,0,4.9-2.2,4.9-4.9S294.2,317.8,291.4,317.8
		z"/>
	<path class="st1" d="M418,317.8H316.5c-2.7,0-4.9,2.2-4.9,4.9s2.2,4.9,4.9,4.9H418c2.7,0,4.9-2.2,4.9-4.9S420.7,317.8,418,317.8z"
		/>
</g>
</svg>
