<?xml version="1.0" encoding="utf-8"?>
<!-- Generator: Adobe Illustrator 25.2.0, SVG Export Plug-In . SVG Version: 6.00 Build 0)  -->
<svg version="1.1" id="Layer_1" xmlns:svgjs="http://svgjs.com/svgjs"
	 xmlns="http://www.w3.org/2000/svg" xmlns:xlink="http://www.w3.org/1999/xlink" x="0px" y="0px" viewBox="0 0 512 512"
	 style="enable-background:new 0 0 512 512;" xml:space="preserve">
<style type="text/css">
	.st0{fill:#1AE5BE;}
	.st1{fill:#7703FC;}
</style>
<path class="st0" d="M332.7,248.6l7.1,5.6c15.4-19.3,24.6-42.7,26.6-67.3l-9.1-0.7C355.6,209,347,230.7,332.7,248.6L332.7,248.6z"/>
<path class="st0" d="M355.9,125.5c-20.2-45-64.9-73.9-114.2-73.9c-69,0-125.1,56.1-125.1,125c0,36.7,16,71.4,44,95.1l5.9-6.9
	c-25.9-22-40.8-54.3-40.7-88.2c0-63.9,52-115.9,116-115.9c45.7,0,87.2,26.9,105.9,68.6L355.9,125.5z"/>
<g>
	<path class="st1" d="M431.2,132.3c-4.3-23.5-26.9-39.2-50.4-34.8c-17.7,3.3-31.6,17.1-34.8,34.8c-15.5,1.2-27.3,14-27.2,29.5
		c0.2,16.1,13.2,29.1,29.4,29.2h81.4c16.2-0.1,29.3-13.4,29.2-29.6C458.6,146.1,446.6,133.4,431.2,132.3L431.2,132.3z M429.4,182
		h-81.3c-11.1,0-20.2-9.1-20.4-20.2c-0.1-11.2,9-20.4,20.2-20.5h2c2.4,0,4.3-1.8,4.5-4.1c1.6-18.9,18.3-32.9,37.1-31.2
		c16.7,1.4,29.8,14.6,31.2,31.2c0.2,2.4,2.2,4.2,4.5,4.2h2c11.2,0,20.4,9.1,20.3,20.4C449.5,172.9,440.6,181.9,429.4,182z"/>
	<g>
		<path class="st1" d="M477.8,453L297.5,184.2c-1-1.5-2.7-2.4-4.5-2.4h-75.2c-1.8,0-3.5,0.9-4.5,2.4L34.2,453
			c-1.1,1.6-1.2,3.8-0.3,5.6c0.9,1.8,2.8,2.9,4.8,2.9h434.5c2,0,3.9-1.1,4.8-2.9C478.9,456.8,478.8,454.6,477.8,453z M220.6,192.7
			H290l21.5,32L291,246.6c-1.5,1.6-3.7,2.6-6,2.6s-4.4-0.8-6.1-2.4l-7.6-7.8c-4-4.1-9.5-6.2-15.2-5.7c-5.7,0.5-10.8,3.3-14.1,8.1
			l-16.7,23.4c-1.8,2.6-4.8,3.9-8,3.4s-5.6-2.5-6.7-5.5l-12.5-36.6L220.6,192.7z M48.9,450.6l141.8-213.1l9.8,28.7
			c2.4,6.9,8.2,11.8,15.4,12.8c0.9,0.1,1.9,0.2,2.8,0.2c6.2,0,11.9-3,15.6-8.1l16.7-23.4c1.4-2,3.6-3.3,6.2-3.4
			c2.4-0.2,4.9,0.7,6.6,2.4l7.6,7.8c3.6,3.7,8.5,5.7,13.7,5.7h0.3c5.2-0.1,10.1-2.3,13.8-6.1l18.7-20.1L463,450.7L48.9,450.6
			L48.9,450.6z"/>
		<path class="st1" d="M305.5,319.7c-1.2-2.8-4.3-4.1-7.1-2.9c-2.8,1.2-4.1,4.3-2.9,7.1l30.6,73.3c0.9,2.1,2.9,3.3,5,3.3
			c0.7,0,1.4-0.2,2.1-0.5c2.8-1.2,4.1-4.3,2.9-7.1L305.5,319.7z"/>
		<path class="st1" d="M280.1,359.8c-1.1-2.8-4.2-4.3-7-3.2c-2.8,1.1-4.3,4.2-3.2,7l14.8,38.9c0.8,2.2,2.9,3.5,5.1,3.5
			c0.6,0,1.3-0.1,1.9-0.4c2.8-1.1,4.3-4.2,3.2-7L280.1,359.8z"/>
	</g>
</g>
</svg>
