<?xml version="1.0" encoding="utf-8"?>
<!-- Generator: Adobe Illustrator 25.2.0, SVG Export Plug-In . SVG Version: 6.00 Build 0)  -->
<svg version="1.1" id="Layer_1" xmlns:svgjs="http://svgjs.com/svgjs"
	 xmlns="http://www.w3.org/2000/svg" xmlns:xlink="http://www.w3.org/1999/xlink" x="0px" y="0px" viewBox="0 0 512 512"
	 style="enable-background:new 0 0 512 512;" xml:space="preserve">
<style type="text/css">
	.st0{fill:#7703FC;}
	.st1{fill:#1AE5BE;}
</style>
<g>
	<g>
		<path class="st0" d="M217.9,257.7c25.2,0,45.6-20.4,45.6-45.6s-20.4-45.6-45.6-45.6s-45.6,20.4-45.6,45.6l0,0
			C172.3,237.3,192.7,257.7,217.9,257.7z M217.9,177.5c19.1,0,34.6,15.5,34.6,34.6s-15.5,34.6-34.6,34.6s-34.6-15.5-34.6-34.6l0,0
			C183.3,193,198.8,177.5,217.9,177.5L217.9,177.5z"/>
		<path class="st0" d="M71.7,137.2h11.1v13.6H71.7V137.2z"/>
		<path class="st0" d="M71.7,161.8h11.1v115.5H71.7V161.8z"/>
	</g>
	<path class="st1" d="M338.5,201.6L338.5,201.6c-1.9,0-3.7,1-4.7,2.6L230.1,368.9l-74-78.3c-2.1-2.2-5.6-2.3-7.8-0.2
		c-0.1,0.1-0.2,0.1-0.2,0.2L43.7,401.1l8,7.6l100.4-106.3l100.4,106.3l8-7.6l-22.6-23.9l100.7-159.7l121,190.4l9.3-5.9L343.2,204.1
		C342.2,202.5,340.4,201.6,338.5,201.6L338.5,201.6z"/>
	<path class="st0" d="M463.8,101.6H48.2c-3.1,0-5.5,2.5-5.5,5.5v297.8c0,3.1,2.5,5.5,5.5,5.5h415.5c3.1,0,5.5-2.5,5.5-5.5V107.1
		C469.3,104.1,466.8,101.6,463.8,101.6z M458.2,399.4H53.8V112.6h404.4L458.2,399.4L458.2,399.4z"/>
</g>
</svg>
