<?xml version="1.0" encoding="utf-8"?>
<!-- Generator: Adobe Illustrator 25.2.0, SVG Export Plug-In . SVG Version: 6.00 Build 0)  -->
<svg version="1.1" id="Layer_1" xmlns:svgjs="http://svgjs.com/svgjs"
	 xmlns="http://www.w3.org/2000/svg" xmlns:xlink="http://www.w3.org/1999/xlink" x="0px" y="0px" viewBox="0 0 512 512"
	 style="enable-background:new 0 0 512 512;" xml:space="preserve">
<style type="text/css">
	.st0{fill:#7703FC;}
	.st1{fill:#1AE5BE;}
</style>
<g>
	<path class="st0" d="M447,285.3l-2.8,1.5c-10.1-12.6-27.7-17.6-41.1-10.7c0,0-0.1,0-0.1,0.1l-6.5,3.5
		c-14.6-12.1-35.5-14.4-51.4-5.1l-32.2,17.8H270c-9.3,0-18.5-2.2-26.9-6.3l-5.9-2.9c-34-16.8-74.6-12.8-104.7,10.4
		c-0.1,0.1-0.3,0.2-0.4,0.3l-14.2,12.8c-5.5,5-12,8.6-19.1,10.7l-8.2-27.3c-0.8-2.5-3.1-4.3-5.7-4.3H16.4c-3.3,0-6,2.7-6,6
		c0,0.2,0,0.5,0,0.7l22.9,190.6c0.4,3,2.9,5.3,5.9,5.3h103c3.3,0,6-2.7,6-6c0-0.6-0.1-1.2-0.3-1.7l-13.7-45.5l42.5-27.3
		c5.7-3.2,12.4-4.1,18.7-2.5c0.1,0,0.3,0.1,0.4,0.1l85.7,16c23.2,4.2,47.2,0.8,68.3-9.8c0.3-0.1,0.5-0.3,0.7-0.4L499,308.2
		c2.6-1.8,3.3-5.3,1.7-8C489.8,281.5,466,274.8,447,285.3L447,285.3z M408.6,286.8c7.7-3.9,18.2-1.1,24.9,5.9l-56.9,31.2l-3.7,2
		c-1.8-5.5-4.6-10.5-8.2-15L408.6,286.8z M351,285.2l0.1-0.1c10.2-6,23.4-5.4,33.7,1L355.7,302c-5.8-4.3-12.5-7.3-19.6-8.7
		L351,285.2z M44.6,476.6L23.1,298h57.5l53.6,178.6H44.6z M344.3,401.5c-18.7,9.3-39.9,12.3-60.4,8.5l-85.5-16
		c-9.3-2.3-19.2-1-27.6,3.8c-0.1,0.1-0.2,0.1-0.3,0.2l-39.7,25.5l-28.3-94.4c8.8-2.6,16.9-7.2,23.7-13.3l14-12.7
		c26.4-20.3,62.1-23.8,91.9-9l5.9,2.9c10,4.9,21,7.5,32.2,7.5h57c18,0,32.9,13.3,35.9,30.8l-41.9-1.9c-15-0.7-30,0-44.9,2.1
		c-3.3,0.4-5.6,3.4-5.2,6.7c0.4,3.3,3.4,5.6,6.7,5.2c0.1,0,0.1,0,0.2,0c14.1-2,28.4-2.7,42.7-2l48.6,2.2c0.1,0,0.2,0,0.3,0
		c3.3,0,6-2.7,6-6c0-1.2-0.1-2.3-0.1-3.4l6.9-3.7l70.5-38.6c11.5-6.3,25.8-3.8,34.5,6L344.3,401.5z"/>
	<path class="st0" d="M65.7,449.3c0.1,10.9,9,19.6,19.9,19.5s19.6-9,19.5-19.9c-0.1-10.8-8.9-19.5-19.7-19.5
		C74.4,429.4,65.6,438.3,65.7,449.3z M85.4,441.3c4.4-0.1,8.1,3.3,8.2,7.7c0.1,4.4-3.3,8.1-7.7,8.2c-4.4,0.1-8.1-3.3-8.2-7.7
		c0-0.1,0-0.1,0-0.2C77.6,445,81,441.4,85.4,441.3z"/>
	<g>
		<path class="st1" d="M386.1,178.6c-7.7-26.7-25.3-47.4-50.1-59.1c3.8-7.1,1.9-15.9-4.4-20.8c3.7-8.3,8-16.3,13.1-23.8
			C350,67,354.9,63.2,360,59.1c2-1.6,4.1-3.2,6.2-5.1c3.3-2.9,4.7-7.5,3.4-11.8c-1.5-5-6.1-8-11.6-7.6c-4.8,0.4-11.3-3.4-16.1-6.2
			c-2.1-1.3-4.3-2.5-6.6-3.5c-11.7-4.8-19.3,3.3-22.5,6.7c-1.1,1.2-5,3.3-6.9,4.1c-0.2,0.1-0.5,0.2-0.7,0.2
			c-5.5,1.6-8.4,1.4-13.6-3.3c-7.8-7.1-17-8.4-24.5-3.4c-2.9,1.9-4.4,5.1-5.9,8.5c-0.6,1.5-1.3,2.9-2.1,4.3
			c-0.2,0.4-0.5,0.9-0.9,1.2c-0.1,0-0.2,0-0.2,0.1c-1,0.2-1.2,0.2-3.3-1.3l-0.8-0.6c-4.7-3.6-9.8-6.6-15.2-8.9
			c-0.2-0.1-0.5-0.2-0.7-0.4c-0.8-0.4-1.9-0.9-3-1.3c-4.8-1.9-15.5-2.3-20.7-0.8c-1.4,0.3-2.8,0.9-4,1.8c-2.3,1.7-4,4.2-4.7,6.9
			c-1.7,6.2,0.7,12.7,6,16.3c7.7,5.1,14.3,11.7,19.7,19.2c4.9,7,8.7,14.7,11.3,22.8c-8.2,4.1-11.6,14.1-7.5,22.3
			c0.3,0.7,0.7,1.3,1.1,1.9c-13.9,7-38.4,21.4-49.2,51.6c-0.6,1.5-1.1,3.1-1.6,4.7c-12.2,40.1,10.4,82.6,50.5,94.8
			c7.2,2.2,14.8,3.3,22.3,3.3h54.5c23.8,0.1,46.2-11,60.6-29.9c14.3-18.4,19.2-42.5,13.1-65.1C386.4,179.9,386.3,179.2,386.1,178.6
			L386.1,178.6z M250.2,116.4c-2.6,0-4.7-2.1-4.7-4.7s2.1-4.7,4.7-4.7h71.1c2.6,0,4.7,2.1,4.7,4.7s-2.1,4.7-4.7,4.7H250.2z
			 M218.6,44.9c-1-0.6-1.6-1.9-1.3-3.1c0-0.1,0.1-0.3,0.2-0.4c0.1,0,0.2-0.1,0.3-0.1c2.7-0.8,10.6-0.5,13,0.5c0.7,0.3,1.5,0.7,2.2,1
			c0.3,0.2,0.7,0.3,0.9,0.5c4.6,2,9,4.6,13,7.6l0.9,0.7c3.1,2.3,6.7,4.5,12.4,3.5c5.3-0.9,7.8-4.2,9.5-7.1c1-1.8,1.9-3.6,2.7-5.4
			c0.5-1.2,1.1-2.4,1.7-3.5c2.8-1.7,6-0.9,9.6,2.4c7.9,7.2,15.1,8.9,25.1,5.9c0.6-0.2,1.1-0.4,1.7-0.6c1.5-0.6,8-3.6,11.2-7
			c4.1-4.4,6-5.2,9.2-3.8c1.7,0.8,3.4,1.7,5,2.7c5.5,3.3,12.9,7.6,20.5,7.9c-1.2,1-2.5,2-3.8,3c-5.4,4.2-11.4,9-17.8,18.5
			c-5.7,8.5-10.6,17.5-14.6,26.9H304c0.3-5,1.6-12.3,6.5-18c2-2.3,4.3-4.2,7-5.6c2.9-1.6,3.9-5.2,2.3-8.1s-5.2-3.9-8.1-2.3
			c-3.9,2.1-7.3,4.9-10.2,8.3c-7.3,8.4-9.1,19-9.4,25.8h-6.2c-2.5-7.6-7.6-20.6-10.8-25.7c-1.8-2.8-5.4-3.7-8.3-1.9
			c-2.8,1.8-3.7,5.4-1.9,8.3c2.1,3.4,5.8,12.6,8.3,19.4h-18.4c-3-10-7.6-19.4-13.5-27.9C235.1,58.3,227.4,50.8,218.6,44.9
			L218.6,44.9z M364,238.3c-12.1,15.9-31.1,25.3-51.1,25.2h-54.5c-20.4,0.1-39.7-9.6-51.8-26.1c-12.1-16.2-15.7-37.2-9.6-56.5
			c0.4-1.4,0.9-2.8,1.4-4.2c10.4-29,35.6-41.2,47.6-47c1-0.5,2-0.9,2.8-1.4c0.5,0,0.9,0.1,1.4,0.1h71.1c1.3,0,2.7-0.2,3.9-0.5
			c24.9,9.7,42,28.4,49.3,54c0.2,0.6,0.3,1.1,0.5,1.7C380.1,202.5,376,222.8,364,238.3z"/>
		<path class="st1" d="M287.7,148.2c-26.8,0-48.6,21.5-48.6,47.8s21.8,47.8,48.6,47.8c26.8,0,48.6-21.5,48.6-47.8
			S314.5,148.2,287.7,148.2z M287.7,231.9c-20.2,0-36.6-16.1-36.6-35.8s16.4-35.8,36.6-35.8s36.6,16.1,36.6,35.8
			S307.9,231.9,287.7,231.9L287.7,231.9z"/>
		<path class="st1" d="M294.3,170.5v-0.3c0-3.3-2.7-6-6-6s-6,2.7-6,6v0.4c-1.8,0.7-3.5,1.7-4.9,3.1c-3.1,3.2-4.8,7.5-4.7,12
			c0.1,7,5.3,12.9,12.6,14.3l1.7,0.3c0.2,0,0.3,0.1,0.5,0.1c0,0,0.1,0,0.2,0.1l0.7,0.3c0.2,0.1,0.3,0.2,0.5,0.3l0.4,0.2
			c0.1,0,0.1,0.1,0.2,0.1c1.3,0.8,3.2,2.5,3.3,4c0.1,1.8-0.5,2.4-0.7,2.7c-1.2,1-2.8,1.5-4.4,1.4c-1.1,0-4.1-1.3-4.2-2.9
			c-0.4-3.3-3.3-5.7-6.6-5.3s-5.7,3.3-5.3,6.6c0.7,6.6,6,10.8,10.9,12.5c0.1,3.3,2.9,5.9,6.2,5.7c3.2-0.1,5.7-2.7,5.8-5.9l0,0
			c2.3-0.8,4.3-2.1,6.1-3.7c3-3.1,4.6-7.3,4.2-11.6c-0.3-7.9-7-12.5-9-13.8l-0.3-0.2l-0.4-0.2c-0.4-0.2-0.6-0.3-1.2-0.6
			c-0.3-0.2-0.7-0.3-1-0.4l-0.7-0.3c-0.3-0.1-0.7-0.3-1-0.4c-0.6-0.2-1.1-0.3-1.7-0.4l-1.7-0.3c-2.1-0.4-2.9-1.7-2.9-2.7
			c0-1.2,0.3-2.3,1.1-3.3c0.8-0.6,1.9-0.9,2.9-0.7c2.2-0.1,4.2,1.3,4.8,3.4v-0.1l11.7-2.8C303.7,176.6,299.6,172.3,294.3,170.5
			L294.3,170.5z"/>
	</g>
</g>
</svg>
