<?xml version="1.0" encoding="utf-8"?>
<!-- Generator: Adobe Illustrator 25.2.0, SVG Export Plug-In . SVG Version: 6.00 Build 0)  -->
<svg version="1.1" id="Layer_1" xmlns:svgjs="http://svgjs.com/svgjs"
	 xmlns="http://www.w3.org/2000/svg" xmlns:xlink="http://www.w3.org/1999/xlink" x="0px" y="0px" viewBox="0 0 512 512"
	 style="enable-background:new 0 0 512 512;" xml:space="preserve">
<style type="text/css">
	.st0{fill:#7703FC;}
	.st1{fill:#1AE5BE;}
</style>
<g>
	<path class="st0" d="M326.6,204.5L326.6,204.5c16.6-0.3,29.8-13.9,29.5-30.5c-0.1-7.7-3.2-15-8.6-20.5c-5.6-5.6-13-8.2-20.8-8.2
		l0,0c-7.8-0.1-15.3,2.9-20.9,8.3c-5.5,5.4-8.7,12.8-8.6,20.5c0,7.9,3.1,15.5,8.6,21.1C311.3,200.9,318.7,204.5,326.6,204.5z
		 M312.9,160.2c3.6-3.6,8.6-5.7,13.7-5.7c10.9,0.2,19.5,9.3,19.3,20.1c-0.1,5-2.1,9.8-5.7,13.4c-3.7,3.7-8.5,6.2-13.7,6.2l0,0
		c-5.2,0-10-2.5-13.7-6.2c-3.7-3.8-5.7-8.9-5.7-14.2C307.2,168.8,309.3,163.9,312.9,160.2L312.9,160.2z"/>
	<path class="st0" d="M295.4,145.4c11.2-11.2,11.3-29.4,0-40.7c-11.2-11.2-29.4-11.3-40.7,0c-11.2,11.2-11.3,29.4,0,40.7
		c5.4,5.4,12.7,8.4,20.3,8.4C282.6,153.9,290,150.8,295.4,145.4L295.4,145.4z M261.9,112c7.3-7.2,19-7.2,26.3,0
		c7.2,7.3,7.2,19,0,26.3c-7.3,7.2-19,7.2-26.3,0S254.6,119.3,261.9,112L261.9,112z"/>
	<path class="st0" d="M222.8,128.4c10.6-10.6,10.7-27.9,0-38.5s-27.9-10.7-38.5,0s-10.7,27.9,0,38.5c5.1,5.1,12,8,19.3,8
		C210.8,136.4,217.7,133.5,222.8,128.4L222.8,128.4z M186.5,109.2c0-9.4,7.6-17,17.1-17c9.4,0,17,7.6,17,17.1s-7.6,17-17.1,17
		c-4.5,0-8.9-1.8-12-5C188.3,118.1,186.5,113.7,186.5,109.2z"/>
	<path class="st0" d="M116.2,115.1c-10.7,10.9-10.5,28.5,0.4,39.2c5,4.9,11.7,7.7,18.8,7.9l0,0c7.3-0.1,14.2-3.1,19.2-8.3
		c10.6-10.8,10.6-28,0-38.8C144,104.5,126.8,104.5,116.2,115.1z M147.5,146.7c-3.2,3.3-7.5,5.3-12.1,5.4l0,0
		c-4.6-0.1-8.9-2.1-12.1-5.4c-3.2-3.3-5-7.8-5-12.4c0-9.4,7.7-17.1,17.1-17.1c9.6,0.2,17.2,8,17,17.6
		C152.4,139.3,150.6,143.5,147.5,146.7z"/>
	<path class="st0" d="M342.5,277.1L342.5,277.1c17.2-0.2,31.1-14.2,31-31.4c0-8.2-3.2-16-9.1-21.7c-5.9-5.9-13.6-8.6-21.9-8.6l0,0
		c-8.3,0-16.1,2.8-21.9,8.7c-5.8,5.6-9.1,13.4-9.1,21.5C311.6,262.8,325.4,276.8,342.5,277.1L342.5,277.1z M327.8,231.2
		c3.9-3.9,9.2-5.6,14.8-5.6l0,0c5.6,0,10.8,1.7,14.7,5.7c3.9,3.7,6.1,8.9,6.1,14.3c0,11.6-9.3,21.1-20.9,21.4l0,0
		c-5.6-0.1-10.9-2.3-14.7-6.3c-3.9-4-6.1-9.4-6.1-15C321.7,240.2,323.9,235,327.8,231.2L327.8,231.2z"/>
	<path class="st0" d="M175,352.3L175,352.3c6.9,0,12.6-3.7,17.6-8.5v-0.1c10.1-9.8,10.3-25.8,0.6-35.9c-9.8-10.1-25.8-10.3-35.9-0.6
		c-0.2,0.1-0.3,0.3-0.4,0.4c-10,10.1-10,26.4,0,36.6C161.7,349.1,168.2,352.3,175,352.3L175,352.3z M164.1,314.5
		c6.1-6.1,15.9-6,22,0c6.1,6.1,6,15.9,0,22c-6.1,6-15.9,6-21.9,0C158,330.4,158,320.6,164.1,314.5C164,314.5,164,314.5,164.1,314.5z
		"/>
	<path class="st0" d="M126.2,300.4c14.6,0,26.4-11.8,26.4-26.4s-11.8-26.4-26.4-26.4S99.8,259.4,99.8,274c0,7,2.8,13.7,7.7,18.7
		C112.5,297.6,119.2,300.4,126.2,300.4z M114.7,262.4c6.4-6.4,16.7-6.3,23,0c6.4,6.4,6.3,16.7,0,23c-6.4,6.3-16.7,6.3-23,0
		C108.4,279.1,108.4,268.8,114.7,262.4L114.7,262.4z"/>
	<path class="st0" d="M91.6,221.1c10.3,10.3,27.1,10.4,37.4,0s10.4-27.1,0-37.4c-10.3-10.3-27.1-10.4-37.4,0l0,0
		c-10.3,10.3-10.4,27-0.1,37.3L91.6,221.1z M98.8,190.9c6.4-6.4,16.7-6.3,23,0c6.4,6.4,6.3,16.7,0,23c-6.4,6.3-16.7,6.3-23,0
		C92.4,207.6,92.4,197.3,98.8,190.9L98.8,190.9L98.8,190.9z"/>
	<path class="st0" d="M246.5,367.5L246.5,367.5c6.7,0,12.9-3.6,17.1-8.3v-0.1c9.7-9.1,10.2-24.2,1.1-33.9c-0.3-0.3-0.5-0.6-0.8-0.8
		c-4.7-4.7-10.7-6.7-17.3-6.7l0,0c-13.5-0.2-24.7,10.5-24.9,24.1c-0.1,6.7,2.5,13.2,7.3,17.9C233.6,364.3,239.9,367.5,246.5,367.5
		L246.5,367.5z M236.1,331.6c2.8-2.8,6.5-3.8,10.5-3.8l0,0c3.9,0,7.6,1,10.4,3.8c2.8,2.6,4.3,6.1,4.3,9.9c-0.1,3.9-1.7,7.7-4.4,10.5
		v0.1c-3.4,2.8-6.4,5.3-10.3,5.3l0,0c-4-0.1-7.7-1.8-10.4-4.6C230.3,346.9,230.3,337.5,236.1,331.6L236.1,331.6z"/>
	<path class="st0" d="M161.5,216.8c-2.8-0.2-5.2,1.9-5.4,4.7c-1.8,25.2,8.1,50.6,27.2,69.7c2,2,5.2,1.9,7.2-0.1c1.9-2,1.9-5.1,0-7.1
		c-17-17-25.9-39.6-24.3-61.8C166.4,219.4,164.3,217,161.5,216.8L161.5,216.8z"/>
	<path class="st0" d="M169.3,193.3c-2.5-1.2-5.6-0.1-6.7,2.5l0,0c-0.7,1.6-1.4,3.2-2,4.9c-1,2.6,0.4,5.5,3,6.5s5.5-0.4,6.5-3
		c0.5-1.4,1.1-2.8,1.7-4.2C173,197.5,171.9,194.5,169.3,193.3L169.3,193.3z"/>
	<path class="st0" d="M407,203.2c-9.7-31.1-27.6-60.2-51.5-84.1c-35.6-35.6-81.4-56.8-128.8-59.7c-3.7-0.2-7.4-0.3-11-0.3
		c-42.9,0-82.4,15.8-111.1,44.6c-65,65-58.2,177.7,15.3,251.1c23.8,23.8,52.9,41.6,83.9,51.4c18,5.7,36.8,8.6,55.7,8.7
		c11.7,0,23.3-1.2,34.8-3.6c12-2.6,19.7-14.4,17.1-26.4c-0.9-4.2-3-8.1-6-11.1c-12-11.9-16.9-29.1-12.9-45.5c0.3-1.2,0.6-2.4,1-3.5
		l-9.7-3.1c-0.4,1.4-0.8,2.8-1.2,4.2c-4.7,19.8,1.2,40.6,15.6,55c4.7,4.7,4.7,12.4,0,17.1c-1.6,1.6-3.7,2.8-6,3.3
		c-27.4,5.7-56.9,4.1-85.4-4.9c-29.5-9.3-57.1-26.2-79.8-48.9C57.5,278,50.7,171.8,111.7,110.7c26.8-26.8,63.8-41.6,104-41.6
		c3.4,0,6.9,0.1,10.4,0.3c45,2.7,88.4,22.9,122.2,56.8c22.8,22.8,39.8,50.5,49,80c9,28.6,10.5,58.2,4.6,85.7
		c-1.4,6.5-7.9,10.7-14.4,9.3c-2.3-0.5-4.3-1.6-6-3.2l-0.2-0.2c-15.1-15.1-37.1-20.8-57.6-15c-1.3,0.4-2.6,0.8-3.8,1.2l3.4,9.5
		c1-0.4,2.1-0.7,3.2-1c17-4.8,35.2-0.1,47.7,12.4l0.2,0.2c8.7,8.7,22.8,8.7,31.5,0c3-3,5.1-6.8,6-11
		C418.2,264.9,416.5,233.5,407,203.2L407,203.2z"/>
	<path class="st0" d="M421.4,198.7c-10.5-33.4-29.6-64.6-55.3-90.3c-38.2-38.2-87.4-61-138.5-64.1C175.9,41.2,128.4,58.4,93.9,93
		c-70.9,70.9-64,193.1,15.3,272.4c25.6,25.6,56.7,44.6,90.1,55.1c19.5,6.2,39.8,9.3,60.3,9.4c12.7,0,25.4-1.3,37.8-3.9
		c20.2-4.3,33-24.1,28.8-44.2c-1.5-7.1-5-13.5-10.1-18.6c-7.1-7.1-10.6-16.9-9.7-26.9l-10.1-1c-1.3,13,3.3,25.8,12.6,35
		c10.6,10.6,10.6,27.8,0,38.4c-3.7,3.7-8.4,6.3-13.6,7.4c-11.8,2.4-23.7,3.7-35.8,3.7c-19.4,0-38.7-3.1-57.2-8.9
		c-31.8-10-61.6-28.2-86-52.6C41,282.8,34.1,167.1,101.1,100.1c32.4-32.4,77.1-48.7,125.9-45.7c48.6,3,95.5,24.7,132,61.2
		c24.5,24.5,42.8,54.3,52.8,86.1c9.7,31.1,11.4,63.4,4.9,93.4c-3.2,14.7-17.7,24-32.3,20.8c-5.1-1.1-9.7-3.6-13.4-7.3l-0.2-0.2
		c-9.9-9.8-23.9-14.4-37.7-12.3l1.6,10c10.6-1.6,21.3,1.8,28.9,9.4l0.2,0.2c14.6,14.6,38.2,14.6,52.8,0c5.1-5.1,8.5-11.5,10.1-18.4
		C433.4,265.5,431.6,231.5,421.4,198.7L421.4,198.7z"/>
</g>
<path class="st1" d="M353.8,316.1c-21.1-25.5-45.4-48.1-72.5-67.1l-19.5-13.8c0,0-0.1,0-0.1-0.1l-4.3-12.2
	c-6.3-17.5-22.8-29.2-41.3-29.4h-18.4h-0.1c-2.7-0.1-4.9,1.9-5.1,4.6c0,0.1,0,0.2,0,0.2l-0.1,17.5c-0.1,19.1,11.9,36.1,30,42.2
	l11.6,4c0.1,0.2,0.3,0.5,0.4,0.7l13.8,19.5c19,27,41.6,51.4,67.1,72.5l134.4,110.9c4.6,3.8,11.3,3.1,15.1-1.4c3.3-4,3.3-9.7,0-13.7
	L353.8,316.1z M202.5,215.8l0.1-12.5l13.3,0.1c14.4,0.2,27.1,9.3,31.9,22.8l4.4,12.6l-13.9,13.9l-12.7-4.4
	C211.6,243.6,202.3,230.5,202.5,215.8z M245,260.3l14.3-14.3l16.1,11.3c7.6,5.3,14.9,10.9,22,16.8c-6.4,9.6-14.7,17.9-24.3,24.3
	c-5.9-7.1-11.5-14.5-16.8-22L245,260.3z M279.8,306.2c10-6.8,18.6-15.5,25.5-25.5c7.1,6.2,14,12.7,20.6,19.5
	c-7,10.5-16,19.6-26.6,26.6C292.5,320.1,286,313.3,279.8,306.2L279.8,306.2z M456.8,457.7c-0.2,0.2-0.6,0.2-0.8,0L321.6,346.9
	c-5.1-4.2-10-8.5-14.9-13c10.2-7.1,19.1-16,26.2-26.2c4.5,4.8,8.8,9.8,13,14.9L456.8,457C457,457.2,457,457.5,456.8,457.7z"/>
</svg>
