<?xml version="1.0" encoding="utf-8"?>
<!-- Generator: Adobe Illustrator 25.2.0, SVG Export Plug-In . SVG Version: 6.00 Build 0)  -->
<svg version="1.1" id="Layer_1" xmlns:svgjs="http://svgjs.com/svgjs"
	 xmlns="http://www.w3.org/2000/svg" xmlns:xlink="http://www.w3.org/1999/xlink" x="0px" y="0px" viewBox="0 0 512 512"
	 style="enable-background:new 0 0 512 512;" xml:space="preserve">
<style type="text/css">
	.st0{fill:#1AE5BE;}
	.st1{fill:#7703FC;}
</style>
<g>
	<path class="st0" d="M306.9,480.7c-10,2.4-20.2,4.1-30.4,5.1c-3.8,0.4-6.5,3.7-6.2,7.5c0.3,3.5,3.3,6.2,6.8,6.2c0.2,0,0.4,0,0.7,0
		c10.9-1,21.7-2.8,32.3-5.4c3.7-0.9,6-4.6,5.1-8.3S310.6,479.8,306.9,480.7L306.9,480.7z"/>
	<path class="st0" d="M277.2,55.8c3.8,0,6.8-3.1,6.8-6.9c0-3.5-2.7-6.4-6.2-6.8c-10.9-1-21.8-1.3-32.8-0.8c-3.8,0.2-6.7,3.4-6.5,7.2
		c0.1,1.8,0.9,3.6,2.3,4.8c1.3,1.2,3.1,1.8,4.9,1.7c10.3-0.5,20.6-0.2,30.8,0.7C276.8,55.8,277,55.8,277.2,55.8z"/>
	<path class="st0" d="M235.5,485.8c-10.2-1-20.4-2.7-30.4-5.1c-3.7-0.9-7.4,1.4-8.3,5.1c-0.9,3.7,1.4,7.4,5.1,8.3l0,0
		c10.6,2.6,21.4,4.4,32.3,5.4c0.2,0,0.4,0,0.6,0c3.8,0,6.8-3.1,6.8-6.9C241.6,489.1,238.9,486.2,235.5,485.8L235.5,485.8z"/>
	<path class="st0" d="M438.7,134.7c-3.7-0.6-7.3,1.9-7.9,5.6c-0.3,1.8,0.1,3.6,1.2,5.1c6,8.4,11.3,17.2,16.1,26.3
		c1.7,3.4,5.8,4.8,9.2,3.2c3.4-1.7,4.8-5.8,3.2-9.2c0-0.1-0.1-0.2-0.1-0.3c-5-9.7-10.7-19.1-17.1-28
		C442.1,136,440.5,135,438.7,134.7L438.7,134.7z"/>
	<path class="st0" d="M372.8,452.5c-8.6,5.6-17.7,10.5-27,14.8c-3.4,1.6-5,5.7-3.4,9.1s5.7,5,9.1,3.4l0,0
		c9.9-4.6,19.6-9.8,28.7-15.7c3.2-2.1,4-6.3,2-9.5C380.1,451.4,375.9,450.5,372.8,452.5L372.8,452.5z"/>
	<path class="st0" d="M210.1,52.5c-0.9-3.7-4.6-6-8.3-5.1c-10.6,2.6-21.1,5.9-31.2,10c-3.5,1.4-5.3,5.4-3.9,8.9
		c1.4,3.5,5.4,5.3,8.9,3.9c0,0,0.1,0,0.1-0.1c9.5-3.8,19.4-7,29.4-9.4C208.8,59.9,211,56.2,210.1,52.5L210.1,52.5z"/>
	<path class="st0" d="M435.4,403.1c-3-2.3-7.3-1.8-9.6,1.1l0,0c-6.4,8.1-13.3,15.7-20.7,22.8c-2.7,2.6-2.8,7-0.2,9.7
		c2.6,2.7,6.9,2.8,9.7,0.2c7.9-7.6,15.3-15.7,22.1-24.2C438.9,409.8,438.4,405.5,435.4,403.1z"/>
	<path class="st0" d="M476.6,245.9c0.3,0,0.7,0,1-0.1c3.8-0.5,6.4-4,5.8-7.8c-1.5-10.8-3.9-21.5-6.9-32c-1.1-3.6-4.9-5.7-8.5-4.7
		c-3.6,1.1-5.7,4.9-4.7,8.5l0,0c2.9,9.9,5.1,19.9,6.5,30.1C470.3,243.4,473.2,245.9,476.6,245.9L476.6,245.9z"/>
	<path class="st0" d="M468.9,337.2c-3.6-1.2-7.5,0.7-8.7,4.2c-3.4,9.7-7.4,19.2-12.1,28.3c-1.8,3.3-0.6,7.5,2.7,9.3
		c3.3,1.8,7.5,0.6,9.3-2.7c0.1-0.1,0.1-0.2,0.2-0.3c5-9.7,9.3-19.8,12.9-30.2C474.4,342.3,472.5,338.4,468.9,337.2L468.9,337.2
		L468.9,337.2z"/>
	<path class="st0" d="M35.8,235.3c3.7,0.7,7.3-1.7,8-5.4l0,0c1.9-10.1,4.6-20.1,8-29.8c1.2-3.6-0.7-7.5-4.2-8.7
		c-3.6-1.2-7.5,0.7-8.7,4.2l0,0c-3.6,10.3-6.4,20.9-8.5,31.7C29.7,231,32.1,234.6,35.8,235.3L35.8,235.3z"/>
	<path class="st0" d="M166.3,467.3c-9.4-4.3-18.4-9.2-27-14.8c-3.2-2.1-7.4-1.1-9.5,2.1c-2.1,3.2-1.1,7.4,2.1,9.5
		c9.2,5.9,18.8,11.2,28.8,15.7c0.9,0.4,1.9,0.6,2.9,0.6c3.8,0,6.9-3.1,6.9-6.9C170.3,470.9,168.7,468.4,166.3,467.3L166.3,467.3z"/>
	<path class="st0" d="M42.2,301.5C40.7,291.3,40,281,40,270.8c0-3.8-3-6.9-6.8-6.9s-6.9,3-6.9,6.8c0,0.1,0,0.1,0,0.2
		c0,10.9,0.8,21.9,2.3,32.7c0.5,3.4,3.4,5.9,6.8,5.9c0.3,0,0.7,0,1-0.1C40.1,308.7,42.7,305.3,42.2,301.5z"/>
	<path class="st0" d="M478.9,263.9c-3.8,0-6.9,3.1-6.9,6.9c0,10.3-0.7,20.6-2.2,30.8c-0.5,3.8,2.1,7.2,5.8,7.8c0.3,0,0.6,0.1,1,0.1
		c3.4,0,6.3-2.5,6.8-5.9c1.5-10.8,2.3-21.8,2.3-32.7C485.7,267,482.6,263.9,478.9,263.9L478.9,263.9z"/>
	<path class="st0" d="M141.3,79.5c-2.1-3.2-6.3-4.1-9.5-2.1c-9.2,5.9-18,12.5-26.2,19.7c-2.9,2.5-3.2,6.8-0.7,9.7s6.8,3.2,9.7,0.7
		l0,0c7.8-6.7,16-12.9,24.7-18.5C142.4,87,143.3,82.7,141.3,79.5z"/>
	<path class="st0" d="M51.8,341.4c-1.2-3.6-5.2-5.5-8.7-4.2c-3.6,1.2-5.5,5.2-4.2,8.7c3.6,10.3,7.9,20.4,12.9,30.1
		c1.7,3.4,5.8,4.8,9.2,3.2c3.4-1.7,4.8-5.8,3.2-9.2c0-0.1-0.1-0.2-0.1-0.3C59.2,360.6,55.2,351.1,51.8,341.4L51.8,341.4z"/>
	<path class="st0" d="M86.2,404.3c-2.3-3-6.7-3.5-9.6-1.1c-3,2.3-3.5,6.7-1.1,9.6l0,0c6.8,8.6,14.1,16.7,22.1,24.2
		c2.8,2.6,7.1,2.4,9.7-0.3c2.5-2.7,2.4-7-0.2-9.6C99.5,420,92.6,412.4,86.2,404.3z"/>
	<path class="st0" d="M85.1,127.6c-3-2.3-7.3-1.8-9.6,1.1c-6.8,8.6-12.9,17.7-18.4,27.1c-1.9,3.3-0.8,7.5,2.5,9.4
		c1,0.6,2.2,0.9,3.4,0.9c2.5,0,4.7-1.3,6-3.4c5.2-8.9,10.9-17.4,17.3-25.5C88.6,134.3,88,130,85.1,127.6z"/>
	<path class="st0" d="M337.9,45.3c-3.1-2.4-7.6-1.8-10,1.3s-1.8,7.6,1.3,10c3.1,2.4,7.6,1.8,10-1.3C341.6,52.2,341,47.7,337.9,45.3
		L337.9,45.3z"/>
	<path class="st0" d="M355.5,58.9c-3.1-2.4-7.6-1.8-10,1.3s-1.8,7.6,1.3,10c3.1,2.4,7.6,1.8,10-1.3c1.2-1.5,1.7-3.4,1.4-5.2
		C357.9,61.7,357,60,355.5,58.9L355.5,58.9z"/>
	<path class="st0" d="M373,72.4c-3.1-2.4-7.6-1.8-10,1.3c-2.4,3.1-1.8,7.6,1.3,10c3.1,2.4,7.6,1.8,10-1.3c1.2-1.5,1.7-3.4,1.4-5.2
		C375.5,75.3,374.5,73.6,373,72.4L373,72.4z"/>
	<path class="st0" d="M390.6,86c-3.1-2.4-7.6-1.8-10,1.3c-2.4,3.1-1.8,7.6,1.3,10c3.1,2.4,7.6,1.8,10-1.3
		C394.2,92.9,393.7,88.4,390.6,86L390.6,86z"/>
	<path class="st0" d="M408.4,163.2c4,1.1,8.3-0.3,10.8-3.6c0.4-0.6,0.8-1.2,1-1.8l10-31l27.6-17.6c0.6-0.4,1.1-0.8,1.5-1.4
		c3.5-4.5,2.6-10.9-1.9-14.4c-1.9-1.5-4.2-2.2-6.6-2.1L418.7,87l-16-12.4l22-28.5c3.3-4.2,2.5-10.3-1.7-13.6l0,0l-6.9-5.3
		c-5.1-3.9-12.2-3.7-17,0.5L372.2,51l-42.5-32.9c-10.7-8.2-26.1-6.2-34.3,4.5c-8.2,10.7-6.3,26,4.4,34.3l42.5,32.9l-15.8,32
		c-2.8,5.7-1.2,12.6,3.8,16.5l6.9,5.3c1.7,1.3,3.8,2,5.9,2c0.4,0,0.8,0,1.3-0.1c2.6-0.3,4.9-1.6,6.4-3.7l22-28.5l16,12.4l12.3,29.9
		C401.9,159.2,404.7,162.2,408.4,163.2L408.4,163.2z M399.3,119.6c-0.4-1-1-1.8-1.9-2.5l-30.8-23.8c-2.6-2-6.4-1.5-8.4,1.1
		s-1.5,6.4,1.1,8.4l4,3.1l-20.6,26.7l-5.1-3.9c-0.5-0.4-0.7-1.1-0.4-1.7l18-36.4c1.3-2.6,0.6-5.7-1.7-7.4L307,47.3
		c-5.5-4.2-6.5-12-2.2-17.5s12-6.5,17.5-2.2l0,0l46.4,35.9c2.3,1.7,5.4,1.7,7.6-0.2l30.6-26.6c0.5-0.4,1.2-0.5,1.8-0.1l5.1,3.9
		l-20.6,26.7l-4-3.1c-2.6-2-6.4-1.5-8.4,1.1s-1.5,6.4,1.1,8.4l0,0l30.8,23.8c0.8,0.6,1.8,1.1,2.9,1.2l30,4l-23.7,15.1
		c-1.2,0.8-2.1,1.9-2.5,3.2l-8.6,26.7L399.3,119.6z"/>
</g>
<path class="st1" d="M256,126.8c-79.4,0-144,64.6-144,144s64.6,144,144,144s144-64.6,144-144S335.4,126.8,256,126.8z M250.9,138.9
	l6.1,37.3c0.6,3.4-1,6.9-3.9,8.8L230,200.3c-7.1,4.6-10.6,13-9,21.3l3.1,16.3c1.3,6.5,5.5,12,11.4,14.9l16.3,7.8
	c3.6,1.7,5.6,5.6,4.9,9.5l-5.9,32.9c-0.2,1.4-0.8,2.6-1.6,3.7c-2.9,3.9-8.5,4.7-12.4,1.8c-1.2-0.9-2.1-2-2.7-3.4l-6-12.8
	c-3.4-7.3-10.8-12-18.9-12.1H185c-4.3,0-8.5,1.3-12,3.8l-16.2,11.4c-2.1,1.5-4.7,1.9-7.1,1.4l-24.1-5.7c-1-6.7-1.6-13.6-1.6-20.4
	C124,199.7,180.5,141.6,250.9,138.9L250.9,138.9z M128.3,304.1l18.6,4.4c5.8,1.4,11.9,0.2,16.8-3.2l16.2-11.4c1.5-1,3.3-1.6,5.1-1.6
	h24.1c3.4,0,6.6,2,8,5.1l6,12.8c3.1,6.7,9.4,11.2,16.7,11.9c0.7,0.1,1.5,0.1,2.2,0.1c6.6,0,12.7-3.1,16.6-8.4
	c1.9-2.6,3.2-5.6,3.8-8.8l5.9-32.9c1.6-9.2-3-18.4-11.5-22.5l-16.3-7.8c-2.5-1.2-4.3-3.6-4.8-6.3l-3.1-16.3c-0.7-3.5,0.8-7.1,3.8-9
	l23.2-15.2c6.9-4.5,10.5-12.7,9.1-20.8l-5.8-35.3c36.8,2,71.1,19.3,94.5,47.7l-10.2,7.3c-5.8,4.2-10,10.3-11.8,17.2l-3.2,12.7
	c-3,11.7,1.2,24,10.7,31.5c5.6,4.4,8.2,11.6,6.6,18.5L343,303c-0.8,3.4-2.5,6.6-5,9l-5.7,5.7c-6.6,6.5-9.9,15.7-8.8,24.9l4.2,38.8
	c-21.4,14-46.4,21.4-71.9,21.4C194.8,402.7,143.1,360.8,128.3,304.1L128.3,304.1z M339.1,373.2l-3.5-31.9
	c-0.6-5.6,1.3-11.1,5.3-15.1l5.7-5.7c4.1-4.1,7-9.3,8.3-14.9l6.5-29.2c2.5-11.5-1.7-23.3-10.9-30.6c-5.8-4.5-8.3-12-6.5-19l3.2-12.7
	c1.1-4.2,3.6-7.9,7.1-10.4l10.5-7.5C403.7,253,392.5,330,339.1,373.2L339.1,373.2z"/>
</svg>
