<?xml version="1.0" encoding="utf-8"?>
<!-- Generator: Adobe Illustrator 25.2.0, SVG Export Plug-In . SVG Version: 6.00 Build 0)  -->
<svg version="1.1" id="Layer_1" xmlns:svgjs="http://svgjs.com/svgjs"
	 xmlns="http://www.w3.org/2000/svg" xmlns:xlink="http://www.w3.org/1999/xlink" x="0px" y="0px" viewBox="0 0 512 512"
	 style="enable-background:new 0 0 512 512;" xml:space="preserve">
<style type="text/css">
	.st0{fill:#1AE5BE;}
	.st1{fill:#7703FC;}
</style>
<path class="st0" d="M273.8,181h-2.4v-35.1c0-8.5-6.9-15.3-15.3-15.3c-8.5,0-15.3,6.9-15.3,15.3V181h-2.4
	c-10.3,0-18.6,8.3-18.6,18.6s8.3,18.6,18.6,18.6h2.4v147.3c0,8.5,6.9,15.3,15.3,15.3c8.5,0,15.3-6.9,15.3-15.3V218.2h2.4
	c10.3,0,18.6-8.3,18.6-18.6C292.3,189.3,284,181,273.8,181z M250.4,145.9c0-3.1,2.5-5.6,5.6-5.6s5.6,2.5,5.6,5.6V181h-11.3
	L250.4,145.9L250.4,145.9z M261.6,365.5c0,3.1-2.5,5.6-5.6,5.6s-5.6-2.5-5.6-5.6l0,0V218.2h11.3L261.6,365.5L261.6,365.5z
	 M273.8,208.5h-35.5c-4.9,0-8.9-4-8.9-8.9s4-8.9,8.9-8.9h35.5c4.9,0,8.9,4,8.9,8.9S278.7,208.5,273.8,208.5z"/>
<path class="st0" d="M176.9,237.5h-2.4v-91.6c0-8.5-6.9-15.3-15.3-15.3s-15.3,6.9-15.3,15.3v91.6h-2.4c-10.3,0-18.6,8.3-18.6,18.6
	c0,10.3,8.3,18.6,18.6,18.6h2.4v90.8c0,8.5,6.9,15.3,15.3,15.3s15.3-6.9,15.3-15.3v-90.8h2.4c10.3,0,18.6-8.3,18.6-18.6
	S187.2,237.5,176.9,237.5z M153.5,145.9c0-3.1,2.5-5.6,5.6-5.6s5.6,2.5,5.6,5.6v91.6h-11.3L153.5,145.9L153.5,145.9z M164.8,365.5
	c0,3.1-2.5,5.6-5.6,5.6s-5.6-2.5-5.6-5.6l0,0v-90.8h11.3L164.8,365.5L164.8,365.5z M176.9,265h-35.5c-4.9,0-8.9-4-8.9-8.9
	s4-8.9,8.9-8.9h35.5c4.9,0,8.9,4,8.9,8.9C185.8,261,181.8,265,176.9,265z"/>
<path class="st0" d="M370.6,277.9h-2.4v-132c0-8.5-6.9-15.3-15.3-15.3c-8.5,0-15.3,6.9-15.3,15.3v132h-2.4
	c-10.3,0-18.6,8.3-18.6,18.6c0,10.3,8.3,18.6,18.6,18.6h2.4v50.4c0,8.5,6.9,15.3,15.3,15.3c8.5,0,15.3-6.9,15.3-15.3V315h2.4
	c10.3,0,18.6-8.3,18.6-18.6C389.2,286.2,380.9,277.9,370.6,277.9z M347.2,145.9c0-3.1,2.5-5.6,5.6-5.6s5.6,2.5,5.6,5.6v132h-11.3
	L347.2,145.9L347.2,145.9z M358.5,365.5c0,3.1-2.5,5.6-5.6,5.6s-5.6-2.5-5.6-5.6l0,0V315h11.3L358.5,365.5L358.5,365.5z
	 M370.6,305.3h-35.5c-4.9,0-8.9-4-8.9-8.9s4-8.9,8.9-8.9h35.5c4.9,0,8.9,4,8.9,8.9C379.5,301.4,375.5,305.3,370.6,305.3z"/>
<g>
	<path class="st1" d="M446.5,89.8c0-13.4-10.8-24.2-24.2-24.2H89.7c-13.4,0-24.2,10.8-24.2,24.2v333.3c0,13.4,10.8,24.2,24.2,24.2
		l0,0h332.5c13.4,0,24.2-10.8,24.2-24.2l0,0L446.5,89.8L446.5,89.8z M436.8,423.2c0,8-6.5,14.5-14.5,14.5H89.7
		c-8,0-14.5-6.5-14.5-14.5V89.8c0-8,6.5-14.5,14.5-14.5h332.5c8,0,14.5,6.5,14.5,14.5L436.8,423.2L436.8,423.2z"/>
	<path class="st1" d="M110.7,111.2c-2.7,0-4.8,2.2-4.8,4.8v3.7c0,2.7,2.2,4.8,4.8,4.8c2.7,0,4.8-2.2,4.8-4.8V116
		C115.6,113.4,113.4,111.2,110.7,111.2z"/>
	<path class="st1" d="M110.7,131.9c-2.7,0-4.8,2.2-4.8,4.8V193c0,2.7,2.2,4.8,4.8,4.8c2.7,0,4.8-2.2,4.8-4.8v-56.3
		C115.6,134.1,113.4,131.9,110.7,131.9z"/>
	<path class="st1" d="M427.1,89.7c0-2.6-2.1-4.7-4.7-4.7h-0.1H89.7c-2.7,0-4.8,2.2-4.8,4.8v38.7c0,2.7,2.2,4.8,4.8,4.8
		s4.8-2.2,4.8-4.8V94.7h322.8v323.7H94.6V162.5c0-2.7-2.2-4.8-4.8-4.8s-4.8,2.2-4.8,4.8v260.3c0,2.9,2.4,5.2,5.2,5.2h332.1
		c0.3-0.1,0.7-0.2,1-0.3c2.3-0.5,3.9-2.5,3.9-4.8L427.1,89.7z"/>
</g>
</svg>
