<?xml version="1.0" encoding="utf-8"?>
<!-- Generator: Adobe Illustrator 25.2.0, SVG Export Plug-In . SVG Version: 6.00 Build 0)  -->
<svg version="1.1" id="Layer_1" xmlns:svgjs="http://svgjs.com/svgjs"
	 xmlns="http://www.w3.org/2000/svg" xmlns:xlink="http://www.w3.org/1999/xlink" x="0px" y="0px" viewBox="0 0 512 512"
	 style="enable-background:new 0 0 512 512;" xml:space="preserve">
<style type="text/css">
	.st0{fill:#1AE5BE;}
	.st1{fill:#7703FC;}
</style>
<path class="st0" d="M262.2,213.6l-0.1-140.3h-10.5l0.1,139.2l-104.1-32.3l-3.1,10l107.2,33.3l0.1,215.7h10.5l-0.1-214.7l107.1-33.4
	l-3.1-10L262.2,213.6z"/>
<g>
	<path class="st1" d="M372.2,107.8L264.4,47.6c-4.8-2.6-10.6-2.6-15.4,0l-108.4,60.2c-5.2,2.9-8.6,8.3-8.6,13.7v29.3
		c-0.1,14.3-11.5,26-25.8,26.5c-8.5,0.2-15.3,7.2-15.2,15.7v59.6c0,87.7,52.5,167.2,133.7,202.5c0.5,0.2,1,0.3,1.5,0.4l25.5,9.8
		c1.8,0.7,3.7,1,5.6,1c2.3,0,4.5-0.5,6.5-1.5l22.9-10.7c39.9-16.8,73.9-45.1,97.8-81.2c23.8-35.7,36.4-78,36.4-122.4V193
		c0.1-8.5-6.7-15.5-15.2-15.7c-14.3-0.5-25.7-12.2-25.8-26.5v-29.3C380.1,115.8,377.1,110.6,372.2,107.8L372.2,107.8z M405.5,187.8
		c2.8,0.1,5.1,2.4,5,5.2v57.6c0,42.2-12,82.5-34.6,116.6c-22.8,34.4-55.2,61.4-93.2,77.4c-0.1,0-0.1,0.1-0.2,0.1l-23,10.7
		c-0.7,0.3-1.4,0.5-2.1,0.5c-0.6,0-1.3-0.1-1.9-0.3l-26-10c-0.4-0.1-0.8-0.2-1.2-0.3c-77-33.8-126.8-109.3-126.8-192.7V193
		c0-2.8,2.2-5.2,5-5.2c20-0.7,35.8-17,36-36.9v-29.3c0-1.7,1.3-3.5,3.2-4.6l108.4-60.2c1.6-0.9,3.6-0.9,5.2,0L367.1,117
		c2.2,1.2,2.4,3.6,2.4,4.6v29.3C369.7,170.8,385.5,187.1,405.5,187.8L405.5,187.8z"/>
	<path class="st1" d="M143.4,252.6v-8.8c0-2.9-2.3-5.2-5.2-5.2s-5.2,2.3-5.2,5.2v8.8c0,25.6,5.6,50.9,16.4,74.2
		c1.2,2.6,4.3,3.8,7,2.6c2.6-1.2,3.8-4.3,2.6-7C148.6,300.5,143.4,276.7,143.4,252.6z"/>
	<path class="st1" d="M138.1,232.4c2.9,0,5.2-2.3,5.2-5.2V222c0-2.9-2.3-5.2-5.2-5.2s-5.2,2.3-5.2,5.2l0,0v5.2
		C132.9,230.1,135.3,232.4,138.1,232.4z"/>
	<path class="st1" d="M395.9,197.1c-21.5-5.1-36.7-24.2-36.9-46.2v-23.2c0-1.9-1-3.7-2.7-4.6l-97.8-54.3c-1.6-0.9-3.5-0.9-5.1,0
		l-97.8,54.3c-1.7,0.9-2.7,2.7-2.7,4.6v23.2c-0.2,22.1-15.4,41.2-36.9,46.2c-2.4,0.5-4.1,2.7-4.1,5.1v25c0,2.9,2.3,5.2,5.2,5.2
		c2.9,0,5.2-2.3,5.2-5.2v-21c24-7.4,41-30.1,41-55.4v-20.1L256,79.3l92.5,51.4v20.1c0,25.3,17,48,41,55.4v44.4
		c0,38.1-10.8,74.3-31.1,104.9c-20.9,31.4-49.9,55.5-83.8,69.7c-0.2,0.1-0.5,0.2-0.7,0.3l-17.3,8L237,426
		c-66.2-28.9-110.1-91.9-114.2-162.6c-0.2-2.8-2.4-4.9-5.2-4.9c-2.9,0-5.2,2.3-5.2,5.2c0,0.1,0,0.2,0,0.3
		c4.4,74.6,50.7,141.2,120.6,171.6c0.1,0,0.2,0.1,0.2,0.1L255,444c1.3,0.5,2.8,0.4,4.1-0.1l19.2-8.9c0.1,0,0.3-0.1,0.4-0.1
		c35.9-15,66.5-40.5,88.6-73.6c21.5-32.3,32.9-70.6,32.9-110.7v-48.5C400,199.8,398.3,197.6,395.9,197.1L395.9,197.1z"/>
</g>
</svg>
