<?xml version="1.0" encoding="utf-8"?>
<!-- Generator: Adobe Illustrator 25.2.0, SVG Export Plug-In . SVG Version: 6.00 Build 0)  -->
<svg version="1.1" id="Layer_1" xmlns:svgjs="http://svgjs.com/svgjs"
	 xmlns="http://www.w3.org/2000/svg" xmlns:xlink="http://www.w3.org/1999/xlink" x="0px" y="0px" viewBox="0 0 512 512"
	 style="enable-background:new 0 0 512 512;" xml:space="preserve">
<style type="text/css">
	.st0{fill:#7703FC;}
	.st1{fill:#1AE5BE;}
</style>
<path class="st0" d="M306.4,33.2H153.5c-24,0.1-43.4,19.5-43.4,43.5v0.1v57.8H121V102h218.3v155.8h10.9v-181
	C350.1,52.7,330.5,33.2,306.4,33.2z M339.3,91.2H121V76.8c-0.1-18,14.4-32.7,32.3-32.8h0.1h152.9c18.1,0,32.8,14.7,32.9,32.8v14.4
	H339.3z"/>
<path class="st0" d="M339.3,435.2c-0.1,18.1-14.8,32.8-32.9,32.8H153.5c-18,0-32.5-14.7-32.5-32.6v-0.1v-39.7h183l-2.7-10.9H121V256
	h-10.9v179.2c-0.1,24,19.2,43.5,43.2,43.6h0.1h152.9c24.1,0,43.7-19.5,43.8-43.6v-13.4h-10.9v13.4H339.3z"/>
<path class="st0" d="M215,429.9c0,8.3,6.7,15,15,15s15-6.7,15-15s-6.7-15-15-15l0,0C221.7,414.9,215,421.6,215,429.9z M234.1,429.9
	c0,2.3-1.8,4.1-4.1,4.1s-4.1-1.8-4.1-4.1c0-2.3,1.8-4.1,4.1-4.1l0,0C232.2,425.8,234.1,427.6,234.1,429.9L234.1,429.9z"/>
<path class="st0" d="M140.1,66.7h-1.8c-3,0-5.4,2.4-5.4,5.4s2.4,5.4,5.4,5.4h1.8c3,0,5.4-2.4,5.4-5.4S143.1,66.7,140.1,66.7z"/>
<path class="st0" d="M241.5,66.7h-83.3c-3,0-5.4,2.4-5.4,5.4s2.4,5.4,5.4,5.4h83.3c3,0,5.4-2.4,5.4-5.4S244.5,66.7,241.5,66.7z"/>
<g>
	<path class="st1" d="M76.3,179h41.4c3,0,5.4-2.4,5.4-5.4s-2.4-5.4-5.4-5.4H76.3c-3,0-5.4,2.4-5.4,5.4S73.3,179,76.3,179L76.3,179z"
		/>
	<path class="st1" d="M192.2,168.1h-51.8c-3,0-5.4,2.4-5.4,5.4s2.4,5.4,5.4,5.4h51.8c3,0,5.4-2.4,5.4-5.4S195.2,168.1,192.2,168.1z"
		/>
	<path class="st1" d="M164.6,197.1c0-3-2.4-5.4-5.4-5.4H76.3c-3,0-5.4,2.4-5.4,5.4s2.4,5.4,5.4,5.4l0,0h82.9
		C162.2,202.6,164.6,200.1,164.6,197.1z"/>
	<path class="st1" d="M192.2,191.7h-10.4c-3,0-5.4,2.4-5.4,5.4s2.4,5.4,5.4,5.4h10.4c3,0,5.4-2.4,5.4-5.4S195.2,191.7,192.2,191.7z"
		/>
	<path class="st1" d="M76.3,215.2c-3,0-5.4,2.4-5.4,5.4s2.4,5.4,5.4,5.4h45.2c3,0,5.4-2.4,5.4-5.4s-2.4-5.4-5.4-5.4H76.3z"/>
	<path class="st1" d="M144.1,226.1h48c3,0,5.4-2.4,5.4-5.4s-2.4-5.4-5.4-5.4h-48c-3,0-5.4,2.4-5.4,5.4S141.1,226.1,144.1,226.1
		L144.1,226.1z"/>
	<path class="st1" d="M201.1,129.2h-29.3c-3,0-5.4,2.4-5.4,5.4s2.4,5.4,5.4,5.4h29.3c7.3,0,13.2,5.9,13.2,13.2v83.9
		c0,7.4-6,13.4-13.4,13.4l0,0h-16.1c-9.3,0-16.5,3.2-21.5,9.6c-7.8,9.9-7.7,25.4-6.6,35.6c-7.9-5-18.3-15.6-17.5-36.3
		c0.3-4.7-3.3-8.7-8-8.9c-0.1,0-0.2,0-0.3,0h-0.1H67.3c-7.3,0-13.3-6-13.3-13.3c0,0,0,0,0-0.1v-83.8c0-7.3,6-13.3,13.3-13.3l0,0
		h66.4c3,0,5.4-2.4,5.4-5.4s-2.4-5.4-5.4-5.4H67.3c-13.4,0-24.2,10.8-24.2,24.2l0,0v83.9c0,13.3,10.8,24.2,24.1,24.2l0,0h61.1
		c-0.1,19.9,8.7,32,16.3,38.8c5.1,4.6,11.2,8,17.8,10.1c0.5,0.1,0.9,0.2,1.4,0.2c2,0,3.8-1.1,4.8-2.8c0.7-1.2,0.8-2.7,0.5-4
		c-1.7-7.1-4.5-27.3,2.9-36.8c2.9-3.6,7.1-5.4,12.9-5.4h16.2c13.3,0,24.1-10.8,24.1-24.1v-84C225.2,140,214.4,129.2,201.1,129.2
		L201.1,129.2z"/>
	<path class="st1" d="M443,259c-2.4-8-8.6-14.2-16.6-16.7c-3.3-1.1-6.9-1.4-10.4-1c-7.1,0.8-13.5,4.6-17.7,10.4
		c-7.5-11.7-23.1-15.1-34.8-7.6c-4.5,2.9-8,7.1-9.9,12.1c-10.9-7.6-25.9-5.4-34.1,5.1l-23.3-76.1c-4.1-13.3-18.2-20.8-31.5-16.7
		c-13.3,4.1-20.8,18.2-16.7,31.5l23.5,76.6c0.9,2.9,3.9,4.5,6.7,3.6c2.9-0.9,4.5-3.9,3.7-6.8l0,0l-23.5-76.6
		c-1.6-5.2-0.1-10.8,3.7-14.5c0.5-0.5,1-0.9,1.5-1.3c6.4-4.7,15.5-3.2,20.1,3.2c0.9,1.3,1.6,2.7,2.1,4.2l42.9,140.1
		c0.9,2.9,3.9,4.5,6.8,3.6s4.5-3.9,3.6-6.8l-13.5-44.2c-2.4-7.6,1.9-15.6,9.4-18c7.6-2.4,15.6,1.9,18,9.4v0.1l13.5,44.2
		c0.9,2.9,3.9,4.5,6.8,3.6s4.5-3.9,3.6-6.8l-13.5-44.2c-2.3-7.6,2-15.6,9.6-17.9c7.5-2.3,15.5,2,17.8,9.5l13.5,44.2
		c0.9,2.9,3.9,4.5,6.8,3.6s4.5-3.9,3.6-6.8l-9.7-31.5c-1.6-5.2-0.1-10.8,3.7-14.6c0.5-0.5,1-0.9,1.5-1.3c4.5-3.2,10.3-3.6,15.2-1
		c3.4,1.8,5.9,4.8,7,8.5l22.8,74.4c9.8,32-8.2,65.8-40.2,75.6l-25,7.9c-32,9.8-65.8-8.2-75.6-40.2l-21.4-70
		c-0.9-2.9-3.9-4.5-6.7-3.6c-2.9,0.9-4.5,3.9-3.7,6.8l0,0l8.6,27.9c-16-4.6-33.1,2.4-41.4,16.9c-1.4,2.5-0.6,5.7,1.8,7.3l64.2,40.6
		c18.2,23.5,49,33.4,77.4,24.6l25.2-7.7c37.7-11.6,58.9-51.5,47.4-89.2L443,259z M262.2,359c7.9-9,21.1-11.2,31.5-5.2l1.6,0.9
		L304,383c0.3,1,0.7,2.1,1,3.1L262.2,359z"/>
</g>
</svg>
