<?xml version="1.0" encoding="utf-8"?>
<!-- Generator: Adobe Illustrator 25.2.0, SVG Export Plug-In . SVG Version: 6.00 Build 0)  -->
<svg version="1.1" id="Layer_1" xmlns:svgjs="http://svgjs.com/svgjs"
	 xmlns="http://www.w3.org/2000/svg" xmlns:xlink="http://www.w3.org/1999/xlink" x="0px" y="0px" viewBox="0 0 512 512"
	 style="enable-background:new 0 0 512 512;" xml:space="preserve">
<style type="text/css">
	.st0{fill:#1AE5BE;}
	.st1{fill:#7703FC;}
</style>
<path class="st0" d="M471.5,133H443v12h28.5c3.4,0.1,6.3,2.8,6.5,6.2v256.6c-0.2,3.4-3,6.1-6.5,6.2H287v-26h-12v23.8
	c-12.5-3.2-25.5-3.2-38,0V388h-12v26H40.5c-3.4-0.1-6.3-2.8-6.5-6.2V151.2c0.2-3.4,3-6.2,6.5-6.2H68v-12H40.5
	c-9.9,0-18.5,8.3-18.5,18.2v256.6c0,9.9,8.5,18.2,18.5,18.2H232c0.7,0,1.4-0.2,2.1-0.5c14.1-5.3,29.7-5.3,43.8,0.1
	c0.7,0.3,1.4,0.4,2.1,0.4h191.5c9.9,0,18.5-8.3,18.5-18.2V151.2C490,141.3,481.5,133,471.5,133L471.5,133z"/>
<g>
	<path class="st1" d="M100.1,385h101.4c2.9,0.1,5.9,0.7,8.6,1.8l33.2,12.2c8.2,3,17.2,3.1,25.4,0.1l33.2-12.3
		c2.7-1.1,5.7-1.7,8.6-1.7h101.4c20.3,0.2,36.9-16.1,37.1-36.4c0-0.1,0-0.2,0-0.3v-225c0-20.5-16.5-37.3-37.1-37.4H310.5
		c-4.3,0-8.6,0.8-12.7,2.3l-33.2,12.1c-5.6,2-11.6,2-17.2,0l-33.2-12.2c-4.1-1.5-8.4-2.3-12.7-2.3H100.1
		C79.5,86.1,63,102.8,63,123.4v224.9c0,20.3,16.5,36.7,36.8,36.7C99.9,385,100,385,100.1,385L100.1,385z M268.7,111.8l33.2-12.2
		c2.8-1,5.7-1.6,8.6-1.6h101.4c13.9,0.1,25.1,11.5,25.1,25.4v224.9c0,13.6-11.1,24.7-24.7,24.7c-0.1,0-0.2,0-0.4,0H310.5
		c-4.3,0.1-8.6,0.9-12.7,2.5l-33.2,12.2c-0.9,0.3-1.7,0.6-2.6,0.9v-275C264.3,113.2,266.5,112.6,268.7,111.8L268.7,111.8z M75,123.4
		c0-13.9,11.2-25.3,25.1-25.4h101.4c2.9,0,5.8,0.6,8.6,1.6l33.2,12.1c2.2,0.8,4.4,1.4,6.7,1.8v275c-0.9-0.2-1.7-0.5-2.6-0.8
		l-33.2-12.3c-4.1-1.6-8.4-2.4-12.7-2.5H100.1c-13.6,0.2-24.9-10.7-25.1-24.3c0-0.1,0-0.2,0-0.4V123.4z"/>
	<path class="st1" d="M301.9,169h39.9c3.3,0,6-2.7,6-6s-2.7-6-6-6h-39.9c-3.3,0-6,2.7-6,6S298.6,169,301.9,169z"/>
	<path class="st1" d="M301.9,218h94.4c3.3,0,6-2.7,6-6s-2.7-6-6-6h-94.4c-3.3,0-6,2.7-6,6S298.6,218,301.9,218z"/>
	<path class="st1" d="M301.9,267h94.4c3.3,0,6-2.7,6-6s-2.7-6-6-6h-94.4c-3.3,0-6,2.7-6,6S298.6,267,301.9,267z"/>
	<path class="st1" d="M301.9,316h94.4c3.3,0,6-2.7,6-6s-2.7-6-6-6h-94.4c-3.3,0-6,2.7-6,6S298.6,316,301.9,316z"/>
	<path class="st1" d="M115.6,267H210c3.3,0,6-2.7,6-6s-2.7-6-6-6h-94.4c-3.3,0-6,2.7-6,6S112.3,267,115.6,267z"/>
	<path class="st1" d="M115.6,316H210c3.3,0,6-2.7,6-6s-2.7-6-6-6h-94.4c-3.3,0-6,2.7-6,6S112.3,316,115.6,316z"/>
	<path class="st1" d="M216,163c0-3.3-2.7-6-6-6h-94c-3.3,0-6,2.7-6,6v53c0,3.3,2.7,6,6,6h94c3.3,0,6-2.7,6-6V163z M122,169h82v41
		h-82V169z"/>
</g>
</svg>
