<?xml version="1.0" encoding="utf-8"?>
<!-- Generator: Adobe Illustrator 25.2.0, SVG Export Plug-In . SVG Version: 6.00 Build 0)  -->
<svg version="1.1" id="Layer_1" xmlns:svgjs="http://svgjs.com/svgjs"
	 xmlns="http://www.w3.org/2000/svg" xmlns:xlink="http://www.w3.org/1999/xlink" x="0px" y="0px" viewBox="0 0 512 512"
	 style="enable-background:new 0 0 512 512;" xml:space="preserve">
<style type="text/css">
	.st0{fill:#1AE5BE;}
	.st1{fill:#7703FC;}
</style>
<g>
	<path class="st0" d="M256,439.4c11.7,0,21.3-9.5,21.3-21.3s-9.5-21.3-21.3-21.3c-11.7,0-21.3,9.5-21.3,21.3
		C234.8,429.9,244.3,439.4,256,439.4z M256,407.6c5.9,0,10.6,4.8,10.6,10.6s-4.8,10.6-10.6,10.6s-10.6-4.8-10.6-10.6
		C245.4,412.3,250.1,407.6,256,407.6z"/>
	<path class="st0" d="M256,299.1c-11.7,0-21.3,9.5-21.3,21.3c0,11.7,9.5,21.3,21.3,21.3c11.8,0,21.3-9.5,21.3-21.3
		C277.2,308.6,267.7,299.1,256,299.1z M256,331c-5.9,0-10.6-4.8-10.6-10.6c0-5.9,4.8-10.6,10.6-10.6c5.8,0,10.6,4.8,10.6,10.6
		S261.9,331,256,331L256,331z"/>
	<g>
		<path class="st1" d="M214.6,173.8c0-20.5,16.7-37.2,37.2-37.2h8.5c18.9,0,34.8,14.2,37,33h-48c-2.9,0-5.3,2.4-5.3,5.3v76.4
			c0,2.9,2.4,5.3,5.3,5.3l0,0h48.3v17.8h10.6V173.8c0-20-12.5-38-31.3-44.9V50.3c0-2.9-2.4-5.3-5.3-5.3h-30.9
			c-2.9,0-5.3,2.4-5.3,5.3v78.6c-18.8,6.9-31.3,24.9-31.3,44.9v100.6h10.6L214.6,173.8z M254.5,246v-65.8h42.9V246H254.5z
			 M266.1,55.7v14.9h-20.2v-15L266.1,55.7z M245.9,81.2h20.2v45.2c-2-0.2-3.9-0.4-5.9-0.4h-8.5c-2,0-3.9,0.1-5.9,0.4L245.9,81.2z"/>
		<path class="st1" d="M388.4,128.9V50.3c0-2.9-2.4-5.3-5.3-5.3h-30.9c-2.9,0-5.3,2.4-5.3,5.3v78.6c-18.8,6.9-31.3,24.9-31.3,44.9
			v100.6h10.6V173.8c0-20.5,16.7-37.2,37.2-37.2h8.5c18.9,0,34.8,14.2,37,33h-48c-2.9,0-5.3,2.4-5.3,5.3v76.4c0,2.9,2.4,5.3,5.3,5.3
			l0,0h48.3v17.8h10.6V173.8C419.7,153.8,407.2,135.9,388.4,128.9L388.4,128.9z M377.7,55.6v14.9h-20.2V55.6H377.7z M363.4,126
			c-2,0-3.9,0.1-5.9,0.4V81.2h20.2v45.2c-2-0.2-3.9-0.4-5.9-0.4C371.8,126,363.4,126,363.4,126z M366.1,246v-65.8H409V246H366.1z"/>
		<path class="st1" d="M185.8,274.5h10.6V173.8c0-20-12.5-38-31.3-44.9V50.3c0-2.9-2.4-5.3-5.3-5.3h-30.9c-2.9,0-5.3,2.4-5.3,5.3
			v78.6c-18.8,6.9-31.3,24.9-31.3,44.9v100.6h10.6V173.8c0-20.5,16.7-37.2,37.2-37.2h8.5c18.9,0,34.8,14.2,37,33h-48
			c-2.9,0-5.3,2.4-5.3,5.3v76.4c0,2.9,2.4,5.3,5.3,5.3l0,0h48.3v17.9H185.8z M154.5,55.6v14.9h-20.2V55.6H154.5z M140.1,126
			c-2,0-3.9,0.1-5.9,0.4V81.2h20.2v45.2c-2-0.2-3.9-0.4-5.9-0.4C148.5,126,140.1,126,140.1,126z M142.9,246v-65.8h42.9V246H142.9z"
			/>
	</g>
	<path class="st0" d="M43.5,467h425c2.9,0,5.3-2.4,5.3-5.3l0,0v-94.4v-0.1v-0.1v-93.3c0-2.9-2.4-5.3-5.3-5.3h-425
		c-2.9,0-5.3,2.4-5.3,5.3V367v0.1v0.1v94.5C38.2,464.6,40.6,467,43.5,467L43.5,467z M463.2,456.4H48.8v-83.8h414.4L463.2,456.4
		L463.2,456.4z M48.8,279h414.4v82.6H48.8V279z"/>
</g>
</svg>
