<?xml version="1.0" encoding="utf-8"?>
<!-- Generator: Adobe Illustrator 25.2.0, SVG Export Plug-In . SVG Version: 6.00 Build 0)  -->
<svg version="1.1" id="Layer_1" xmlns:svgjs="http://svgjs.com/svgjs"
	 xmlns="http://www.w3.org/2000/svg" xmlns:xlink="http://www.w3.org/1999/xlink" x="0px" y="0px" viewBox="0 0 512 512"
	 style="enable-background:new 0 0 512 512;" xml:space="preserve">
<style type="text/css">
	.st0{fill:#7703FC;}
	.st1{fill:#1AE5BE;}
</style>
<g>
	<path class="st0" d="M238.2,477.1c108.1,0,195.7-87.7,195.6-195.8c0-29.1-6.5-57.9-19.1-84.2l-9.7,4.7c11.9,24.9,18.1,52.1,18,79.7
		c0,0.6,0,1.2,0,1.8l-8,0.8c-0.4,0-0.8,0.1-1.2,0.1l-3.6,0.2c-8.8,0.4-16.6,5.7-20.1,13.8l-0.9,2.1c-3.5,8-11.5,13.2-20.3,13.2
		h-15.5c-4.8,0-8.9-3.7-9.4-8.5l-0.6-6.2c-0.7-7-4.5-13.3-10.4-17c-3.2-2-5.1-5.6-5.1-9.3v-6.2c0-4.1,1.8-8,4.9-10.8l26.4-23.3
		c7-6.2,9.7-15.8,7-24.7c-2.8-9.2-10.7-15.9-20.3-17.1l-2.7-0.3c-3.7-0.5-7.2-2.3-9.6-5.1c-2.7-3.1-3.1-7.5-1.1-11.1l16.2-27.8
		l-9.3-5.4l-16.3,27.8c-4.3,7.6-3.4,17,2.4,23.6c4.2,4.8,10.1,7.9,16.4,8.7l2.7,0.3c5.3,0.7,9.7,4.4,11.3,9.5
		c1.5,4.9,0,10.1-3.8,13.5l-26.4,23.3c-5.4,4.8-8.5,11.6-8.5,18.8v6.2c0,7.4,3.8,14.4,10,18.4c3.1,2,5.2,5.3,5.5,9.1l0.6,6.2
		c1,10.3,9.7,18.2,20.1,18.2h15.5c13.1,0,24.9-7.7,30.1-19.7l0.9-2.1c1.9-4.3,6.1-7.2,10.8-7.4l3.6-0.2c0.6,0,1.2-0.1,1.8-0.1
		l6.5-0.6c-6.6,96-86.8,172.1-184.4,172.1c-101.9,0-184.9-82.9-184.9-184.9c0-13.1,1.4-26.1,4.1-38.9l10.1-2
		c9.1-1.8,18.4,2.4,23.1,10.5c2.1,3.7,4.8,7,7.9,10l14.7,13.8c3.9,3.7,8.7,6.3,13.8,7.8l1.7,0.5c6.4,1.8,11.5,6.8,13.3,13.2
		l7.9,28.4c1.3,4.7,3.5,9.2,6.5,13.1l23.9,31.3c1.9,2.5,3.2,5.4,3.7,8.6l6.5,39.1c1.5,8.9,9.8,14.9,18.7,13.4
		c1.3-0.2,2.5-0.6,3.7-1.1c7.3-3.1,12.4-9.9,13.2-17.8c0.6-5.9,2.9-11.4,6.7-15.9l6.9-8.3c2.1-2.6,3.7-5.5,4.7-8.7l7.1-23
		c1.4-4.7,4.3-8.8,8.2-11.7l21.3-16.4c7.9-6.1,9.4-17.4,3.3-25.2c-0.2-0.2-0.4-0.5-0.6-0.7l-14.1-16.5c-0.6-0.8-1.3-1.6-1.9-2.4
		l-11.1-15.4c-7.6-10.6-19.7-17.1-32.7-17.6l-20.7-12.4c-9.7-5.8-21.7-6.1-31.6-0.8l-11.6,6.2c-5.5,2.9-12.4,1.1-15.8-4.1L133,220.6
		c-2.9-4.6-2.8-10.5,0.2-15c3.6-5.3,9.8-8.1,16.1-7.3l17,2.2c10.3,1.3,20.4-3.6,25.6-12.6c3.2-5.5,9.4-8.5,15.7-7.7l7.4,0.9
		c9.1,1.1,18.1-2.6,23.6-9.8l6.5-8.4c8.8-11.3,9.2-27,1-38.7l-18.7-26.9c3.5-0.2,7-0.3,10.5-0.3c32.4,0,64.3,8.5,92.4,24.7l5.4-9.3
		c-93.6-54-213.2-21.9-267.2,71.7s-21.9,213.2,71.7,267.2C170.1,468.1,203.9,477.1,238.2,477.1L238.2,477.1z M215.3,98l22.2,32
		c5.5,7.9,5.2,18.4-0.7,26l-6.5,8.4c-3.2,4.2-8.5,6.4-13.7,5.7l-7.4-0.9c-10.6-1.4-21,3.7-26.4,12.9c-3.1,5.2-9,8.1-15,7.4l-17-2.2
		c-10.4-1.3-20.6,3.3-26.4,11.9c-5.5,8.1-5.6,18.6-0.4,26.8l11.2,17.8c6.4,10,19.5,13.5,30,7.9l11.6-6.2c6.6-3.5,14.6-3.3,21,0.5
		l22,13.2c0.8,0.5,1.8,0.8,2.8,0.8c10.1,0,19.6,4.9,25.5,13.1l11.1,15.4c0.8,1.1,1.6,2.1,2.4,3.1l14.1,16.5c2.6,3,2.2,7.6-0.8,10.2
		c-0.1,0.1-0.2,0.2-0.3,0.2l-21.3,16.4c-5.7,4.3-9.8,10.3-11.9,17.1l-7.1,23c-0.6,1.8-1.5,3.5-2.7,5l-6.9,8.3
		c-5.1,6.2-8.3,13.7-9.1,21.7c-0.4,4-3,7.4-6.7,9c-2.8,1.2-6-0.1-7.2-3c-0.2-0.4-0.3-0.8-0.4-1.2l-6.5-39.1
		c-0.8-4.8-2.8-9.4-5.8-13.3l-24-31.2c-2.1-2.8-3.7-6-4.7-9.4l-7.9-28.4c-2.8-10.1-10.7-18-20.9-20.8l-1.7-0.5
		c-3.5-1-6.7-2.7-9.3-5.2l-14.7-13.8c-2.3-2.2-4.4-4.7-6-7.5c-7-12-20.9-18.3-34.5-15.6l-5.1,1C80.3,160.6,141.1,107.2,215.3,98z"/>
	<g>
		<path class="st1" d="M447.9,55.6c-27.3-27.5-71.8-27.6-99.3-0.2c-0.1,0.1-0.2,0.2-0.2,0.2c-12.7,12.8-20.3,29.8-21.5,47.7
			c-1.1,16.8,4.2,34.1,15,48.9l51.9,69.4c1.8,2.4,5.2,2.9,7.5,1.1c0.4-0.3,0.8-0.7,1.1-1.1l51.9-69.4c10.8-14.4,16.2-31.8,15-48.9
			C468.2,85.4,460.6,68.4,447.9,55.6L447.9,55.6z M445.7,145.8l-47.6,63.6l-47.6-63.6c-9.3-12.7-13.9-27.6-12.9-41.8
			c1-15.4,7.5-29.9,18.4-40.8c23.1-23.3,60.8-23.3,84-0.2c0.1,0.1,0.1,0.1,0.2,0.2c10.9,11,17.4,25.5,18.4,40.9
			C459.6,118.6,455,133.4,445.7,145.8L445.7,145.8z"/>
		<path class="st1" d="M397.3,74.7c-18.2,0-33,14.8-33,33s14.8,33,33,33s33-14.8,33-33S415.5,74.7,397.3,74.7z M412.9,123.4
			c-8.7,8.6-22.8,8.6-31.4-0.2s-8.6-22.8,0.2-31.4c8.7-8.6,22.8-8.6,31.4,0.2c4.1,4.2,6.4,9.8,6.4,15.7
			C419.5,113.6,417.1,119.3,412.9,123.4z"/>
	</g>
</g>
</svg>
