<?xml version="1.0" encoding="utf-8"?>
<!-- Generator: Adobe Illustrator 23.0.1, SVG Export Plug-In . SVG Version: 6.00 Build 0)  -->
<svg version="1.1" id="Layer_1" xmlns="http://www.w3.org/2000/svg" xmlns:xlink="http://www.w3.org/1999/xlink" x="0px" y="0px"
	 viewBox="0 0 500 375" style="enable-background:new 0 0 500 375;" xml:space="preserve">
<style type="text/css">
	.st0{clip-path:url(#SVGID_2_);}
	.st1{fill:#1B202E;}
	.st2{fill:none;stroke:#3E4556;stroke-linejoin:round;}
	.st3{fill:none;stroke:#3E4556;stroke-linejoin:round;stroke-dasharray:6.9269,6.9269;}
	.st4{fill:none;stroke:#3E4556;stroke-linejoin:round;stroke-dasharray:6.858,6.858;}
	.st5{fill:none;stroke:#3E4556;stroke-linejoin:round;stroke-miterlimit:10;}
	.st6{fill:none;stroke:#3E4556;stroke-linecap:round;stroke-linejoin:round;stroke-miterlimit:10;}
	.st7{fill:#5AE4A7;stroke:#1A2E35;stroke-linecap:round;stroke-linejoin:round;stroke-miterlimit:10;}
	.st8{opacity:0.3;fill-opacity:0.7;}
	.st9{clip-path:url(#XMLID_2_);fill:#1A2E35;}
	.st10{clip-path:url(#XMLID_2_);fill:#5AE4A7;stroke:#1A2E35;stroke-linecap:round;stroke-linejoin:round;stroke-miterlimit:10;}
	.st11{opacity:0.3;clip-path:url(#XMLID_2_);fill-opacity:0.7;}
	.st12{fill:#FFFFFF;stroke:#1A2E35;stroke-linecap:round;stroke-linejoin:round;stroke-miterlimit:10;}
	.st13{fill:#1A2E35;}
	.st14{fill:#BFBFBF;stroke:#1A2E35;stroke-linecap:round;stroke-linejoin:round;stroke-miterlimit:10;}
	.st15{opacity:0.4;fill:none;stroke:#000000;stroke-width:2;stroke-linecap:round;stroke-linejoin:round;stroke-miterlimit:10;}
	.st16{opacity:0.7;}
	.st17{fill:#FFFFFF;}
	.st18{opacity:0.4;fill:#5AE4A7;}
	.st19{fill:none;stroke:#1A2E35;stroke-linecap:round;stroke-linejoin:round;stroke-miterlimit:10;}
	.st20{opacity:0.5;clip-path:url(#XMLID_3_);fill:#5AE4A7;}
</style>
<g>
	<defs>
		<circle id="SVGID_1_" cx="250" cy="187.5" r="140"/>
	</defs>
	<clipPath id="SVGID_2_">
		<use xlink:href="#SVGID_1_"  style="overflow:visible;"/>
	</clipPath>
	<g class="st0">
		<path class="st1" d="M-65.4,210c-6.3-29.5-4.6-60.7,8.3-92.5c16.6-40.9,52.1-70,92-87C92.9,5.8,149.8,5.3,196.9-43
			c14.5-14.9,26.7-32,41.6-46.6c43.8-43.1,107.8-37.8,155.7-3.7c99.8,71.3,135.7,212.4,130.1,329c-2.5,52.4-27.5,101.1-67.1,135.4
			c-89.5,77.7-241.4,64.6-344.2,24.1C36.3,365-47.4,294.4-65.4,210z"/>
	</g>
	<g class="st0">
		<g>
			<g>
				<g>
					<line class="st2" x1="337.1" y1="117.5" x2="333.6" y2="117.5"/>
					<line class="st3" x1="326.7" y1="117.5" x2="205.5" y2="117.5"/>
					<line class="st2" x1="202" y1="117.5" x2="198.5" y2="117.5"/>
				</g>
			</g>
			<g>
				<g>
					<line class="st2" x1="338.5" y1="283.6" x2="338.5" y2="280.1"/>
					<line class="st4" x1="338.5" y1="273.3" x2="338.5" y2="125.8"/>
					<line class="st2" x1="338.5" y1="122.4" x2="338.5" y2="118.9"/>
				</g>
			</g>
			<rect x="337.1" y="116.1" class="st5" width="2.8" height="2.8"/>
		</g>
		<polygon class="st6" points="362.2,126 341.6,117.3 350.2,137.9 352.6,130.9 357.2,135.5 359.8,132.9 355.2,128.3 		"/>
		<g>
			<g>
				<path class="st6" d="M322.6,306.9h-20.3c-1.4,0-2.8-1.2-3-2.6l-2.3-14.1c-0.2-1.4,0.7-2.6,2.2-2.6h20.3c1.4,0,2.8,1.2,3,2.6
					l2.3,14.1C325,305.7,324,306.9,322.6,306.9z"/>
				<path class="st6" d="M322.6,306.9c1.4,0,2.6-1.2,2.6-2.6v-16c0-1.4-1.1-2.5-2.4-2.6l-0.6-1.6c-0.1-0.3-0.4-0.5-0.7-0.5h-6.6
					c-0.3,0-0.6,0.2-0.7,0.5l-0.6,1.6h-11.1c-1.1,0-2.1,0.7-2.5,1.8"/>
			</g>
			<g>
				<path class="st6" d="M246.4,306.9h-20.3c-1.4,0-2.8-1.2-3-2.6l-2.3-14.1c-0.2-1.4,0.7-2.6,2.2-2.6h20.3c1.4,0,2.8,1.2,3,2.6
					l2.3,14.1C248.8,305.7,247.8,306.9,246.4,306.9z"/>
				<path class="st6" d="M246.4,306.9c1.4,0,2.6-1.2,2.6-2.6v-16c0-1.4-1.1-2.5-2.4-2.6l-0.6-1.6c-0.1-0.3-0.4-0.5-0.7-0.5h-6.6
					c-0.3,0-0.6,0.2-0.7,0.5l-0.6,1.6h-11.1c-1.1,0-2.1,0.7-2.5,1.8"/>
			</g>
			<g>
				<path class="st6" d="M284.5,306.9h-20.3c-1.4,0-2.8-1.2-3-2.6l-2.3-14.1c-0.2-1.4,0.7-2.6,2.2-2.6h20.3c1.4,0,2.8,1.2,3,2.6
					l2.3,14.1C286.9,305.7,285.9,306.9,284.5,306.9z"/>
				<path class="st6" d="M284.5,306.9c1.4,0,2.6-1.2,2.6-2.6v-16c0-1.4-1.1-2.5-2.4-2.6l-0.6-1.6c-0.1-0.3-0.4-0.5-0.7-0.5h-6.6
					c-0.3,0-0.6,0.2-0.7,0.5l-0.6,1.6h-11.1c-1.1,0-2.1,0.7-2.5,1.8"/>
			</g>
		</g>
		<g>
			<path class="st7" d="M295.6,149l5.5-6.8c1.3-1.5,1.7-3.6,1.3-5.5l-5.2-24.2c-0.4-1.9-2-3.2-3.9-3.2h-10.1c-0.7,0-1.4,0.1-2.1,0.3
				l-97.7,40l24.8,128.5c3.5,5.2,101.1-28.5,101.1-28.5c3.2-1.1,5.1-4.4,4.3-7.7l-20-84.1C292.9,154.8,293.6,151.5,295.6,149z"/>
			<path class="st8" d="M281.3,112.2l30.9,132.5c0,0-104.5,38.9-99.6,26.9c0,0-24.9-118.4-22.8-118.8
				C192,152.4,281.3,112.2,281.3,112.2z"/>
			<g>
				<defs>
					<path id="XMLID_548_" d="M307.1,242.4L217,271l-22.1-115l-1.3-6.5l80.3-38.9c1.6-0.8,3.6,0.2,4.1,2l1.7,6.5l30.1,118.1
						C310.5,239.5,309.3,241.7,307.1,242.4z"/>
				</defs>
				<use xlink:href="#XMLID_548_"  style="overflow:visible;fill:#FFFFFF;"/>
				<clipPath id="XMLID_2_">
					<use xlink:href="#XMLID_548_"  style="overflow:visible;"/>
				</clipPath>
				<path class="st9" d="M279.8,119.1l-84.2,38.5l-1.9-8.2l80.3-38.9c1.6-0.8,3.6,0.2,4.1,2L279.8,119.1z"/>
				<path class="st10" d="M275.5,116.2c0,1.2-0.8,2.1-1.9,2c-1-0.1-1.9-1.1-1.9-2.3c0-1.2,0.8-2.1,1.9-2S275.5,115.1,275.5,116.2z"
					/>
				<path class="st10" d="M270.7,118.6c0,1.1-0.8,1.9-1.7,1.9c-1-0.1-1.7-1-1.7-2.1s0.8-1.9,1.7-1.9
					C270,116.6,270.7,117.5,270.7,118.6z"/>
				<path class="st10" d="M266.2,120.7c0,1-0.7,1.8-1.6,1.7c-0.9-0.1-1.6-0.9-1.6-2c0-1,0.7-1.8,1.6-1.7
					C265.5,118.8,266.2,119.7,266.2,120.7z"/>
				<path class="st11" d="M307.1,242.4L217,271l-22.1-115l-1.3-6.5l80.3-38.9c1.6-0.8,3.6,0.2,4.1,2l1.7,6.5l30.1,118.1
					C310.5,239.5,309.3,241.7,307.1,242.4z"/>
				
					<use xlink:href="#XMLID_548_"  style="overflow:visible;fill:none;stroke:#1A2E35;stroke-linecap:round;stroke-linejoin:round;stroke-miterlimit:10;"/>
			</g>
			<g>
				<path class="st12" d="M301.8,236.7l-88.9,34.9l-21.8-113.5l-1.2-6.5l79.2-44.5c1.6-0.9,3.6,0,4,1.7l1.6,6.4l29.7,116
					C305.1,233.6,303.9,235.9,301.8,236.7z"/>
				<path class="st13" d="M274.8,115.3l-83,44.4l-1.9-8l79.2-44.5c1.6-0.9,3.6,0,4,1.7L274.8,115.3z"/>
				<path class="st7" d="M270.6,112.8c0,1.2-0.8,2.1-1.8,2.1c-1,0-1.8-1-1.8-2.1s0.8-2.1,1.8-2.1
					C269.8,110.7,270.6,111.6,270.6,112.8z"/>
				<path class="st7" d="M265.9,115.5c0,1.1-0.8,2-1.7,2c-0.9,0-1.7-0.9-1.7-2s0.8-2,1.7-2C265.1,113.5,265.9,114.4,265.9,115.5z"/>
				<path class="st7" d="M261.4,117.9c0,1-0.7,1.8-1.6,1.8c-0.9,0-1.6-0.8-1.6-1.8c0-1,0.7-1.8,1.6-1.8
					C260.7,116,261.4,116.9,261.4,117.9z"/>
				<path class="st8" d="M273.9,118.2L300,220.7c0.1,0.4-0.1,0.9-0.5,1l-2.4,1.1c-0.5,0.2-1.1-0.1-1.2-0.6l-25.5-101.9
					c-0.1-0.5,0.1-1.1,0.6-1.3l2-1.1C273.3,117.7,273.8,117.8,273.9,118.2z"/>
				<path class="st14" d="M271.6,121.2l1.4-0.8c0.6-0.3,1.3,0,1.5,0.7l2.7,10.7c0.1,0.5-0.1,1.1-0.6,1.4l-1.8,0.9
					c-0.4,0.2-1,0-1.1-0.5l-2.8-11.1C270.9,122,271.1,121.4,271.6,121.2z"/>
				<line class="st15" x1="284.7" y1="236" x2="227.4" y2="259.6"/>
				<line class="st15" x1="292.4" y1="228.8" x2="219.7" y2="259.6"/>
				<g>
					<polygon class="st8" points="285.3,197.8 279.4,172.9 263.5,180.5 269.3,205.3 					"/>
					<polygon class="st8" points="257,152.7 262.5,176.4 278.4,168.7 272.7,144.4 					"/>
					<polygon class="st8" points="272.2,142.3 267.6,122.5 251.9,130.7 256.5,150.6 					"/>
					<polygon class="st8" points="269.9,207.8 275.2,230.7 291.3,223.7 285.9,200.6 					"/>
				</g>
			</g>
			<g>
				<path class="st7" d="M183.4,149.7l24.8,128.5c7.9-9,64.5-50.5,64.5-50.5c4.4-3.2,6.5-8.7,5.3-14l-26.2-112.3c-1-4.3-6.2-6-9.5-3
					C242.3,98.4,189.7,131.4,183.4,149.7z"/>
				<g>
					<g class="st16">
						<path class="st17" d="M273.5,217.8c-0.7,0-1.4-0.5-1.6-1.3c-0.4-1.8-0.9-3.7-1.3-5.5c-0.2-0.9,0.3-1.8,1.2-2
							c0.9-0.2,1.8,0.3,2,1.2c0.4,1.8,0.9,3.7,1.3,5.5c0.2,0.9-0.3,1.8-1.2,2C273.7,217.7,273.6,217.8,273.5,217.8z"/>
					</g>
					<g class="st16">
						<path class="st17" d="M270.1,203c-0.8,0-1.4-0.5-1.6-1.3L245.8,102c0,0,0-0.1-0.1-0.1c-0.1,0-0.2,0-0.2,0
							c-5.8,3.9-25.6,17.1-34.7,24.4c-5.8,4.9-11.2,10.4-17.3,18c-0.6,0.7-1.6,0.8-2.3,0.3c-0.7-0.6-0.8-1.6-0.3-2.3
							c6.3-7.8,11.7-13.5,17.8-18.5c9-7.2,27.4-19.6,35-24.6c1-0.6,2.2-0.8,3.3-0.3c1.1,0.4,1.9,1.4,2.1,2.5l22.7,99.7
							c0.2,0.9-0.4,1.8-1.2,2C270.3,203,270.2,203,270.1,203z"/>
					</g>
				</g>
			</g>
		</g>
		<g>
			<path class="st17" d="M203.9,325.7c-0.8-7-1.8-16.8-2.8-26.2c-1.3-13.6-2.4-26.2-1.8-27.8c1.3-3.6,1-6.2,1-6.2
				c2.8-0.3,4-4.1,4-4.1l-1.5-13.3c0,0,0.9-25.5-0.2-32.7c-1.1-7.2-5.8-12.1-5.9-14c-0.1-1.9,3.6-10.4,4.8-12.8
				c1.2-2.4,0.5-16.1-1.5-20.3c-0.6-1.2-1.4-1.9-2.2-2.3c-2.1-0.9-4.4,0.1-4.4,0.1c-0.5,8-2.9,13.3-5.1,17.1l0,0
				c-1.9,3.3-3.7,5.5-4,7.2c-0.7,3.8-9,13.5-10.5,18.5c-1.6,5-2.1,22.1-4.5,28.8c-1.2,3.2-5.3,13.2-6.4,44
				c-0.6,17.7-3.4,33.7-5.6,44.1H203.9z"/>
			<path class="st18" d="M201.7,188.5c-1.2,2.4-4.9,10.9-4.8,12.8c0.1,1.9,4.7,6.8,5.9,14c1.1,7.2,0.2,32.7,0.2,32.7l1.5,13.3
				c0,0-1.2,3.8-4,4.1c0,0,0.3,2.6-1,6.2c-0.6,1.6,0.5,14.2,1.8,27.8c-1.4-5.9-2.5-10.4-2.5-10.4s-0.6,7.2-1.4,12.9
				c-0.8,5.7-2.7,13.8-2.7,13.8s-4.2-39.3-3.2-45.9c1-6.6,3.4-5.5,1.5-8.6c-1.8-3.1-13.1-5.9-12-8.2c1.1-2.3,9.9,1.8,10.2,2
				c-0.3-0.2-5.2-4.1-5.1-5.9c0-1.9,7.8,2.9,7.8,2.9s3.2-1.9,5.6-4.7c2.4-2.7-1.2-28.8-1.8-30.7s-4.8-1.6-6.1-3.2
				c-1.2-1.6,2.1-2.3,1.5-4.7c-0.6-2.4-2.3-2.2-2.3-2.2s2.7-4,2.5-7.5c-0.2-3.5,4.3-7.7,4-10.2c-1.3-9.8-7.1-3.1-8.7-5.8l0,0
				c2.2-3.8,4.5-9.1,5.1-17.1c0,0,2.4-1,4.4-0.1c0.9,0.4,1.6,1.1,2.2,2.3C202.2,172.5,202.9,186.1,201.7,188.5z"/>
			<g>
				<path class="st19" d="M159.3,315.9c1.7-9.6,3.2-21.5,3.7-34.3c1.1-30.7,5.3-40.8,6.4-44c2.5-6.7,3-23.8,4.5-28.8
					c1.6-5,9.9-14.7,10.5-18.5c0.7-3.8,8.1-9.4,9.1-24.4c0,0,4.7-2.1,6.7,2.2c2,4.3,2.7,17.9,1.5,20.3c-1.2,2.4-4.9,10.9-4.8,12.8
					c0.1,1.9,4.7,6.8,5.9,14c1.1,7.2,0.2,32.7,0.2,32.7l1.5,13.3c0,0-1.2,3.8-4,4.1c0,0,0.3,2.6-1,6.2c-0.9,2.5,2.1,31.4,4.1,49.5"
					/>
				<path class="st19" d="M196.8,201.3c0,0-1.5,4.1-4.3,4.1"/>
				<path class="st19" d="M195.9,203.2c0,0,0.9,5-2.2,8.1"/>
				<path class="st19" d="M185.5,187.9c0,0,3.4-0.7,5.6,0.6"/>
				<path class="st19" d="M183.1,254c0,0,11.2,3.5,12.9,5.3s4.3,6.2,4.3,6.2"/>
				<path class="st19" d="M191.8,252.3c1.6,1.8,5.3,4,7.1,5.6c1.7,1.6,2.6,5.3,2.6,5.3"/>
				<path class="st19" d="M199.2,251.4c0,0,2.6-1.3,3.9-5.3"/>
				<path class="st19" d="M196.2,266.3c-2.4,1.2-2.5,15.3-1.2,31.2"/>
				<path class="st19" d="M197.5,269.2c0,1.6,2.1,13.4,3.1,23.4"/>
			</g>
		</g>
		<g>
			<g>
				<g>
					<defs>
						<path id="XMLID_542_" d="M296.5,173.6c0,0-4.6,8.3-4.5,10.2s8.7,15,9,16.5c0.2,1.5,6.5,4.4,8.8,5.9c2.3,1.5,5.2-9.5,4.8-17.5
							C314.2,180.8,296.5,173.6,296.5,173.6z"/>
					</defs>
					<use xlink:href="#XMLID_542_"  style="overflow:visible;fill:#FFFFFF;"/>
					<clipPath id="XMLID_3_">
						<use xlink:href="#XMLID_542_"  style="overflow:visible;"/>
					</clipPath>
					<path class="st20" d="M296.5,173.6c0,0-4.6,8.3-4.5,10.2s8.7,15,9,16.5c0.2,1.5,6.5,4.4,8.8,5.9c2.3,1.5,5.2-9.5,4.8-17.5
						C314.2,180.8,296.5,173.6,296.5,173.6z"/>
					
						<use xlink:href="#XMLID_542_"  style="overflow:visible;fill:none;stroke:#1A2E35;stroke-linecap:round;stroke-linejoin:round;stroke-miterlimit:10;"/>
				</g>
				<path class="st19" d="M299.6,189.1c0,0,4.5-2,9.4,3.4"/>
			</g>
			<g>
				<path class="st17" d="M392.3,266.8l-27.4,31c0,0-4.5-5.6-10.1-12.5c-8-9.7-18.3-22-21.2-24.2c-3.6-2.7-26.7-18.5-33.1-26.4
					c-0.9-1.1-1.7-2.1-2.4-3v0c-4.2-5.4-5.1-7.8-7.2-15.3c-2.4-8.9-5.1-13.8-5.8-17c0-0.1,0-0.2-0.1-0.3c-0.7-3.6-1.9-14.6-3.5-17.4
					c-1.7-2.9,4.9-4.3,7.4-2.7c2.5,1.6,8.8,9.3,8.4,16c0,0,4.9,12.1,7.4,11.8c0,0-0.3-12.1-2-15.1c-1-1.8-1.2-3.4-1.3-4.4
					c0-0.7,0-1.1,0-1.1s-7.7-8.3-10-14c-2.3-5.6-6.7-14.3-7.6-22.7c0,0-1-6,2.7-8.8c1.4-1,2.7-1.3,4,0.5c0.5,0.7,1.1,1.9,1.6,3.4
					c5.5,15.5,12.3,21.4,12.3,21.4s4.5,1.2,7.8,2.7c0.5,0.2,1,0.5,1.6,0.9c0,0,0,0,0,0c0,0,0,0,0,0c1.4,1,3.2,2.4,5,3.7
					c2.6,2,5.3,3.9,7.4,4.3c7.1,1.5,10.5,5.1,10.5,5.1s4.7-1,7.2,3.4c2.4,4.2,3.7,5.1,3.7,5.1c0,0,1.8,0,3.2,3.1
					c2.5,5.5,10.1,34.8,10.5,36c3,9.7,12.1,20.1,22.5,29.2c0,0,0,0,0,0C386.4,262.2,389.4,264.5,392.3,266.8z"/>
				<g>
					<path class="st18" d="M313.7,169.6C313.7,169.6,313.7,169.6,313.7,169.6C313.7,169.6,313.7,169.6,313.7,169.6
						C313.7,169.6,313.7,169.6,313.7,169.6z"/>
					<path class="st18" d="M321.3,181.5c0,0-8.2-1.5-9.8-5.2c-1.6-3.7-8.5-11.7-10.1-12.2c-1.6-0.5-2.7,0.6-2.7,0.6s-2.8-4.5-5-8.4
						c-2-3.7-12.1-14.7-3.3-15.2c0.5,0.7,1.1,1.9,1.6,3.4c5.5,15.5,12.3,21.4,12.3,21.4s4.5,1.2,7.8,2.7c0.5,0.2,1,0.5,1.6,0.9
						c-0.2-0.1-3.5-0.9-2.8,0.8c0.7,1.7,6,6.6,8.8,8.7C322.5,181.2,321.3,181.5,321.3,181.5z"/>
					<path class="st18" d="M383.6,259.7c-4.6-2.5-11.6-6.7-14-10c-3.6-5.1-6.3-7.6-8.7-10.6c-2.4-2.9-7-5.3-5.9-4.9
						c1.1,0.4,5.9,2.1,5.9,2.1s-3.6-4.5-6.4-11.9c-2.8-7.5-7.9-33.8-11.7-36.7c-3.8-2.9,0,25.8,0,25.8s-3.7-8.1-5.4-17.5
						c-1.7-9.4-3.3-14.1-5.4-15.4c-2.1-1.3-6,1.4-7.1,0c-1.1-1.4,0.1-1.9-6.3-7.1c2.6,2,5.3,3.9,7.4,4.3c7.1,1.5,10.5,5.1,10.5,5.1
						s4.7-1,7.2,3.4c2.4,4.2,3.7,5.1,3.7,5.1c0,0,1.8,0,3.2,3.1c2.5,5.5,10.1,34.8,10.5,36C364.2,240.1,373.3,250.5,383.6,259.7z"/>
					<path class="st18" d="M307.3,212.3c-0.3,1.8-2.5-3.4-2.7-2.6c-0.2,0.8-0.8,3.4-0.8,2.6c0-0.8-4.7-3.4-5.5-7.3
						c-0.8-3.9-1.3-5.5-1.7-6.5c-0.4-1-1.1,0.6-1.2-1.7c0-2.1-6.8-4.3-10.4,2.1c-0.7-3.6-1.9-14.6-3.5-17.4
						c-1.7-2.9,4.9-4.3,7.4-2.7c2.5,1.6,8.8,9.3,8.4,16c0,0,4.9,12.1,7.4,11.8c0,0-0.3-12.1-2-15.1c-1-1.8-1.2-3.4-1.3-4.4l2.4,0.3
						c0.7,1.4-0.6,3.5,0,4.6c0.6,1,4.6,8.6,3.3,12.6C305.8,208.6,307.6,210.5,307.3,212.3z"/>
					<path class="st18" d="M354.7,285.3c-8-9.7-18.3-22-21.2-24.2c-3.6-2.7-26.7-18.5-33.1-26.4c-0.9-1.1-1.7-2.1-2.4-3
						c3.4,4.2,7.6,6.3,9.4,7.3c3.2,1.7,12.5,3.2,19,10.3c3.1,3.4,4.9,5.9,8.8,10.2c3.9,4.3,9.5,4.5,12.8,10.4
						C349.7,272.8,352.4,279.4,354.7,285.3z"/>
				</g>
				<g>
					<path class="st19" d="M364.9,297.8c0,0-26.4-32.9-31.4-36.7c-3.6-2.7-26.7-18.5-33.1-26.4c-6.4-7.8-7.1-9.5-9.6-18.4
						c-2.4-8.9-5.1-13.8-5.8-17c-0.7-3.3-2-14.8-3.6-17.7c-1.7-2.9,4.9-4.3,7.4-2.7c2.5,1.6,8.8,9.4,8.4,16c0,0,4.9,12.1,7.4,11.8
						c0,0-0.3-12.1-2-15.1c-1.7-3-1.2-5.6-1.2-5.6s-7.7-8.3-10-14c-2.3-5.6-6.7-14.3-7.6-22.7c0,0-1-6,2.7-8.8
						c2-1.5,3.7-1.5,5.6,3.9c5.5,15.5,12.3,21.4,12.3,21.4s4.5,1.1,7.8,2.7s9.9,8.1,13.9,9c7.1,1.5,10.5,5.1,10.5,5.1s4.7-1,7.2,3.4
						c2.4,4.2,3.7,5.1,3.7,5.1s1.8,0,3.2,3.1c2.5,5.5,10.1,34.8,10.5,36c3.9,12.3,17.5,25.8,31.1,36.4"/>
					<path class="st19" d="M304.3,166c0,0,6.7,9.3,11.4,11.1"/>
					<path class="st19" d="M315.4,179.1c4.5,1.4,7.4,2.3,8.3,5.7c0.8,3.4,3.3,11.1,4.4,14.2c1.2,3,4,10.7,4,10.7"/>
					<path class="st19" d="M304.6,206.7c0,0,3.1,4,2.3,7.9"/>
					<path class="st19" d="M303.3,206.1c0,0-0.1,4.4,1,7.3"/>
					<path class="st19" d="M301.4,186.1c0,0,2.5,1.3,3.1,2.9"/>
					<path class="st19" d="M303.2,193.1c0,0,1.1,2.4,2.3,3.7c1.2,1.3,1.8,5.6,1.8,5.6"/>
					<path class="st19" d="M285,199.2c0,0,2.7-3,5.4-3.4"/>
					<path class="st19" d="M297.6,165.4c0,0,3.1-2.3,5.5-0.7"/>
					<path class="st19" d="M349.2,198.8c0.6,1.7,3.8,17,4.6,19.2"/>
					<path class="st19" d="M327.5,181.3c0,0,2.9-2.1,6.6,0.5c3.7,2.6,3.7,3.8,5.9,3.2c2.2-0.6,3.7,1.2,3.7,1.2"/>
					<path class="st19" d="M339.3,192.1c0.6,3.4,3.1,20.3,4.3,24.5"/>
				</g>
			</g>
		</g>
	</g>
</g>
</svg>
