<?xml version="1.0" encoding="utf-8"?>
<!-- Generator: Adobe Illustrator 23.0.1, SVG Export Plug-In . SVG Version: 6.00 Build 0)  -->
<svg version="1.1" id="bffbd0e8-c318-47ff-a00e-27da9c50196d"
	 xmlns="http://www.w3.org/2000/svg" xmlns:xlink="http://www.w3.org/1999/xlink" x="0px" y="0px" viewBox="0 0 834.6 583.6"
	 style="enable-background:new 0 0 834.6 583.6;" xml:space="preserve">
<style type="text/css">
	.st0{fill:#65657C;}
	.st1{fill:#819BC1;}
	.st2{fill:#55536E;}
	.st3{fill:#A0616A;}
	.st4{fill:#797BF2;}
	.st5{fill:#FF227D;}
	.st6{opacity:0.2;enable-background:new    ;}
	.st7{fill:#FFFFFF;}
</style>
<rect y="559.4" class="st0" width="606.1" height="2"/>
<polygon class="st1" points="176.2,535 211.1,535 233.4,339.7 274.5,535 298,535 298,302.1 186,268.6 "/>
<path class="st2" d="M287.4,563.9l32.7,6c4.5,0.6,8.7-2.5,9.5-7l0,0c0.6-3.5-1-7-4.1-8.9l-12.9-7.6L298,525.2l-25.3,4.9v17
	C272.7,555.6,279,562.8,287.4,563.9z"/>
<path class="st2" d="M198.1,583.6L198.1,583.6c9.6-0.2,17.2-8.2,17-17.8c0-0.5,0-1-0.1-1.5l-3.6-32.6h-31.1v34.5
	c0,9.6,7.8,17.4,17.4,17.4C197.8,583.6,198,583.6,198.1,583.6z"/>
<circle class="st3" cx="235.7" cy="60.3" r="30.4"/>
<path class="st3" d="M208.1,123.1h55.6c-7.7-13.9-12.5-27.7-9.8-41.7h-36.8C217.8,91.8,213.4,107.1,208.1,123.1z"/>
<path class="st4" d="M188.5,273.5C221.1,299,257.2,311.9,298,307c-17.2-60.5-22.3-120.6-5.7-179.8L258,111.6l-46.6-2.5l-28,8.2
	c-8.1,2.4-13.6,9.9-13.5,18.4C170.9,186.3,175.5,233.6,188.5,273.5z"/>
<path class="st3" d="M302,355.1L302,355.1c7,0.4,13-5,13.4-12.1c0.1-1.1,0-2.2-0.2-3.2l-5.7-28h-13.9l-5.4,28.1
	c-1.3,6.9,3.2,13.6,10.1,14.9C300.8,355,301.4,355.1,302,355.1z"/>
<path class="st3" d="M208,313.8L208,313.8c5.9-3.9,7.5-11.8,3.6-17.7c-0.6-0.9-1.3-1.7-2.1-2.4l-21.2-19.1l-11.2,8.3l12.4,25.8
	c3,6.3,10.7,9,17,6C207,314.4,207.5,314.1,208,313.8z"/>
<path class="st4" d="M178.7,289l13.1-12.3L177,210.5l7.8-93.6l0,0c-16.9,5.3-35,19.5-38,37l-10.7,62.3L178.7,289z"/>
<path class="st4" d="M291.5,311.9l21.2,2.5l-5-157.8c-0.5-14.4-9.3-27.2-22.6-32.7l-7.6-3.2l2,74L291.5,311.9z"/>
<path class="st5" d="M206.6,45c2.9-5.5,6.6-16.5,12.6-18.6c3.3-1.1,6.7-1.8,10.1-2.2l10,3.9l-5.5-4.3c1.1-0.1,2.1-0.1,3.2-0.2
	l6.8,2.6l-3.5-2.7c6.3-0.1,12.8,0.6,17.7,4.4c4.2,3.3,8.3,15.7,9,21c0.7,5,0.5,10.2-0.7,15.1l-1.7,1.6c-0.6-1.4-1.1-2.8-1.3-4.3
	c-1.2-5.6-4.8-10.3-9.7-13.2l-0.1-0.1c-2.9-1.6-6.4-1.5-9.7-1.4l-15.7,0.6c-3.8,0.1-7.8,0.4-10.8,2.7c-2,1.6-3.2,4-4.3,6.2
	c-1.5,2.9-4.3,14.1-4.3,14.1s-1.6-2.1-2.4-0.5c-1.2-4.1-2-8.3-2.2-12.5C203.8,53.1,204.7,48.8,206.6,45z"/>
<polygon class="st6" points="178.3,175 167.6,217.5 191.8,277.8 173.4,220.8 "/>
<polygon class="st6" points="283.5,197 291.7,288.1 277.8,197.7 "/>
<circle class="st0" cx="584.7" cy="334.8" r="9.8"/>
<circle class="st0" cx="625.7" cy="334.8" r="9.8"/>
<circle class="st0" cx="666.7" cy="334.8" r="9.8"/>
<path class="st0" d="M827.4,0H522c-4,0-7.2,3.2-7.2,7.2v41.6h2.9V7.2c0-2.4,1.9-4.3,4.3-4.3h305.5c2.4,0,4.3,1.9,4.3,4.3v244.2
	c0,2.4-1.9,4.3-4.3,4.3h-42.3v2.9h42.3c4,0,7.2-3.2,7.2-7.2V7.2C834.6,3.2,831.4,0,827.4,0z"/>
<path class="st0" d="M778.4,46H473c-4,0-7.2,3.2-7.2,7.2v244.2c0,4,3.2,7.2,7.2,7.2h305.5c4,0,7.2-3.2,7.2-7.2V53.2
	C785.6,49.2,782.4,46,778.4,46z M782.8,297.4c0,2.4-1.9,4.3-4.3,4.3H473c-2.4,0-4.3-1.9-4.3-4.3V53.2c0-2.4,1.9-4.3,4.3-4.3h305.5
	c2.4,0,4.3,1.9,4.3,4.3V297.4z"/>
<path class="st4" d="M625.7,246.7c-39.5,0-71.5-32-71.5-71.5s32-71.5,71.5-71.5s71.5,32,71.5,71.5c0,0,0,0,0,0
	C697.1,214.7,665.2,246.7,625.7,246.7z"/>
<path class="st7" d="M653.9,168.2h-21.1v-21.1c0-3.9-3.2-7-7.1-7c-3.9,0-7,3.2-7,7v21.1h-21.1c-3.9,0-7,3.2-7,7.1c0,3.9,3.2,7,7,7
	h21.1v21.1c0,3.9,3.2,7,7.1,7c3.9,0,7-3.2,7-7v-21.1h21.1c3.9,0,7.1-3.1,7.1-7C661,171.4,657.8,168.2,653.9,168.2
	C653.9,168.2,653.9,168.2,653.9,168.2z"/>
<path class="st0" d="M108.4,499.7c-1.6-10-4.6-19.8-9-28.9l-0.6-1.3l-4.8,5.3l3.5-7.9l-0.2-0.5c-3.1-6.2-6.6-12.2-10.4-18l-0.7-1.1
	l-0.9,1L86,447l-0.3-0.5c-4.7-7-8.3-11.5-8.3-11.5l-1-1.3l-0.7,1.5c-0.1,0.3-12,27.7-13.6,54.8l0,0.4l8,9.7l-8.2-5.1l0,1.9
	c0,3.2,0.2,6.4,0.6,9.5c0.4,2.7,0.8,5.4,1.3,8c0.8,0,1.5,0.3,2.2,0.7c-0.6-2.9-1.1-5.9-1.5-8.9c-0.3-2.4-0.5-4.9-0.6-7.4l15.8,9.9
	l-15.6-18.9c1.4-22.9,10.3-46,12.7-52.1c1.3,1.7,3.8,5.1,6.9,9.6l-5.5,12.2l7.8-8.6c3.4,5.3,6.5,10.7,9.3,16.3l-8.4,18.8l11.4-12.6
	c4,8.5,6.7,17.6,8.2,26.9c2,15,1.6,29.5-1.1,40.7c-2.6,10.7-7.1,17.3-12.5,18.1c-1.1,0.2-2.2,0.1-3.3-0.2c-0.9,0.6-1.9,0.9-3,0.9
	h-0.3c1.7,0.9,3.5,1.4,5.4,1.5c0.5,0,0.9,0,1.4-0.1c6.3-0.9,11.3-7.9,14.2-19.6C110.1,529.8,110.5,515,108.4,499.7z"/>
<path class="st0" d="M90.8,560.2c-8.2,0-20.1-4.5-31.9-12.8c-1.7-1.2-3.4-2.6-5-4l-1.3-1.2l5-1.4l-6.6-0.2l-0.3-0.3
	c-12.5-13-20.2-31.5-20.3-31.6l-0.6-1.5l1.6,0.1c0.2,0,3.9,0.2,9.5,1l0.4,0v0l1.2,0.2c4.6,0.7,9.1,1.7,13.6,2.9l0.5,0.1l1.5,3.7
	l-0.2-3.3l1.4,0.4c6.5,1.9,12.7,4.7,18.3,8.5c17.9,12.5,27.8,28.2,22.6,35.7C98.4,559,95.1,560.2,90.8,560.2z M56.7,543.1
	c1.1,0.9,2.2,1.8,3.4,2.6c16.4,11.5,34,15.8,38.5,9.5c4.4-6.3-5.7-21.4-22.1-32.9c-5.1-3.4-10.6-6-16.4-7.8l0.9,12.9l-5.8-14.4
	c-3.8-1-7.8-1.9-11.7-2.5l0.6,9.4l-4-9.9c-3.1-0.4-5.6-0.7-7.1-0.8c2.1,4.6,8.9,18.7,18.9,29.2l18.3,0.7L56.7,543.1z"/>
</svg>
