<?xml version="1.0" encoding="utf-8"?>
<!-- Generator: Adobe Illustrator 23.0.1, SVG Export Plug-In . SVG Version: 6.00 Build 0)  -->
<svg version="1.1" id="Layer_1" xmlns="http://www.w3.org/2000/svg" xmlns:xlink="http://www.w3.org/1999/xlink" x="0px" y="0px"
	 viewBox="0 0 961.1 805.5" style="enable-background:new 0 0 961.1 805.5;" xml:space="preserve">
<style type="text/css">
	.st0{opacity:0.1;fill:#E1E3FF;}
	.st1{fill:none;stroke:#535461;stroke-width:2;stroke-miterlimit:10;}
	.st2{fill:#797BF2;}
	.st3{fill:#671CC9;}
	.st4{fill:#65657C;}
	.st5{fill:#F1F1F4;}
	.st6{fill:#FFFFFF;}
	.st7{fill:#E1E3FF;}
	.st8{fill:url(#SVGID_1_);}
	.st9{fill:#575988;}
	.st10{opacity:5.000000e-02;enable-background:new    ;}
	.st11{fill:#67647E;}
	.st12{fill:#F7C4A7;}
	.st13{opacity:0.1;enable-background:new    ;}
	.st14{fill:#E6E6F0;}
	.st15{fill:#FF227D;}
</style>
<title>app installation</title>
<path class="st0" d="M97.4,24.1c-36.1,6.5-77.6,18-92.3,53.4C-8.2,110,7.5,146.5,18,180.1c10.4,33.1,15.8,67.6,16,102.3
	c0.3,48.8-9.2,100.3,10.1,144.7c21.8,50.1,75.8,79,94.7,130.3c7.9,21.5,8.9,45,12.7,67.8c8.4,50.4,31.3,97.9,64.9,134.8
	c22.3,24.5,51.4,45.1,83.6,45.5c24.4,0.4,47.5-10.7,70.2-20.4c26.4-11.3,53.5-21,81.1-29.1c11.6-3.4,23.6-6.5,35.6-5.5
	c23.2,2,42.5,19,64.5,27c59.6,21.6,121.2-25.3,184-30.3c53.9-4.3,108,22.8,160.9,11.5c7.8-1.7,16.1-4.7,20.2-11.9
	c6.8-11.9-1.6-28.4,4.4-40.8s22.3-13.7,31.8-23.1c9.7-9.6,10.5-26.1,5.6-39.1s-14.5-23.4-23.7-33.5
	c-45.4-50.2-87.3-103.5-125.2-159.6c-38.7-57.2-74.9-124.5-64-193.8c3.8-23.9,13-46.4,17.2-70.2c4.2-23.8,2.5-50.7-12.9-68.6
	c-9.2-10.7-22.1-16.9-34.6-22.8C598.4,40.3,473.5-16.1,347.3,4.8c-20.5,3.4-40.9,8.8-61.7,9.6c-30.1,1.1-58.4-12.4-87.8-8
	C164.5,11.3,130.7,18.2,97.4,24.1z"/>
<path class="st1" d="M189.6,170.8c0,0-41.1-22.6-53.3-57.2c-5-14.5-14.6-27.1-27.4-35.7c-6.1-4-12.5-7.5-19.2-10.4"/>
<path class="st2" d="M81.9,45.8c3.9,3.9,8.1,22.3,8.1,22.3s-18.4-4.3-22.3-8.2c-3.7-4.1-3.4-10.4,0.7-14.1
	C72.3,42.4,78.1,42.4,81.9,45.8z"/>
<path class="st2" d="M115.1,55.9c1.1,5.4-5.3,23.1-5.3,23.1S96.7,65.4,95.6,60c-0.9-5.5,2.8-10.6,8.3-11.5
	C108.9,47.7,113.8,50.9,115.1,55.9L115.1,55.9z"/>
<path class="st3" d="M151.4,93.4c-1.7,5.2-16.3,17.3-16.3,17.3s-4.4-18.3-2.7-23.6c1.7-5.2,7.4-8.1,12.7-6.3
	C150.4,82.5,153.2,88.2,151.4,93.4L151.4,93.4z"/>
<path class="st3" d="M172.5,128c-0.8,5.4-13.1,19.8-13.1,19.8s-7.5-17.3-6.6-22.8c0.6-5.5,5.5-9.5,11-8.9c5.5,0.6,9.5,5.5,8.9,11
	C172.6,127.4,172.6,127.7,172.5,128L172.5,128z"/>
<path class="st2" d="M95.7,94.5c5.5-0.1,21.4-10.2,21.4-10.2s-16.1-9.8-21.6-9.7c-5.5,0.1-9.9,4.6-9.9,10.1
	C85.6,90.2,90.1,94.6,95.7,94.5L95.7,94.5z"/>
<path class="st2" d="M120.8,134.7c5.2-1.7,17.3-16.2,17.3-16.2s-18.3-4.5-23.6-2.8c-5.2,1.9-7.8,7.7-5.9,12.8
	C110.5,133.4,115.8,136.1,120.8,134.7L120.8,134.7z"/>
<path class="st3" d="M150.6,170.3c5.5-0.8,19.8-13,19.8-13s-17.3-7.6-22.7-6.8c-5.5,0.6-9.5,5.5-8.9,11s5.5,9.5,11,8.9
	C150.1,170.4,150.3,170.4,150.6,170.3L150.6,170.3z"/>
<path class="st1" d="M152.6,308.9c0,0-41.1-22.6-53.3-57.2c-5-14.5-14.6-27.1-27.4-35.7c-6.1-4-12.5-7.5-19.2-10.4"/>
<path class="st2" d="M44.9,183.8c3.9,3.9,8.1,22.3,8.1,22.3s-18.4-4.3-22.3-8.2c-3.7-4.1-3.4-10.4,0.7-14.1
	C35.3,180.4,41.1,180.4,44.9,183.8z"/>
<path class="st2" d="M78.1,193.9c1.1,5.4-5.3,23.1-5.3,23.1s-13.1-13.6-14.2-19c-0.9-5.5,2.8-10.6,8.3-11.5
	C71.9,185.7,76.8,188.9,78.1,193.9L78.1,193.9z"/>
<path class="st2" d="M114.4,231.4c-1.7,5.2-16.3,17.3-16.3,17.3s-4.4-18.3-2.7-23.6c1.7-5.2,7.4-8.1,12.7-6.3
	S116.2,226.2,114.4,231.4L114.4,231.4z"/>
<path class="st3" d="M135.5,266c-0.8,5.5-13.1,19.8-13.1,19.8s-7.5-17.3-6.6-22.8c0.6-5.5,5.5-9.5,11-8.9c5.5,0.6,9.5,5.5,8.9,11
	C135.6,265.4,135.6,265.7,135.5,266L135.5,266z"/>
<path class="st2" d="M58.7,232.5c5.5-0.1,21.4-10.2,21.4-10.2s-16.1-9.8-21.6-9.7c-5.5,0.1-9.9,4.6-9.9,10.1
	C48.6,228.2,53.1,232.6,58.7,232.5L58.7,232.5z"/>
<path class="st2" d="M83.8,272.7c5.2-1.7,17.4-16.2,17.4-16.2s-18.3-4.5-23.6-2.8c-5.3,1.5-8.4,7-6.9,12.4s7,8.4,12.4,6.9
	C83.3,272.8,83.6,272.8,83.8,272.7L83.8,272.7z"/>
<path class="st2" d="M113.6,308.3c5.5-0.8,19.8-13,19.8-13s-17.3-7.6-22.7-6.8c-5.5,0.6-9.5,5.5-8.9,11s5.5,9.5,11,8.9
	C113.1,308.4,113.3,308.4,113.6,308.3L113.6,308.3z"/>
<path class="st2" d="M629.4,0H164.8c-23.5,0-42.6,19-42.6,42.5c0,0,0,0,0,0v643.7c0,23.5,19.1,42.5,42.6,42.5c0,0,0,0,0,0h464.6
	c23.5,0,42.6-19,42.6-42.5v0V42.5C672,19,652.9,0,629.4,0z"/>
<path class="st4" d="M148.8,8.7h496.7c11,0,20,9,20,20v673.4c0,11-9,20-20,20H148.8c-11,0-20-9-20-20V28.7
	C128.8,17.7,137.7,8.7,148.8,8.7z"/>
<rect x="156" y="76.2" class="st5" width="482.2" height="578.5"/>
<circle class="st6" cx="395" cy="41.5" r="6.5"/>
<circle class="st6" cx="395" cy="687.3" r="19.6"/>
<path class="st2" d="M226,151.4h70.3c6.5,0,11.9,5.3,11.9,11.9v70.3c0,6.5-5.3,11.9-11.9,11.9H226c-6.5,0-11.9-5.3-11.9-11.9v-70.3
	C214.1,156.7,219.4,151.4,226,151.4z"/>
<path class="st7" d="M568.3,245.4H498c-6.5,0-11.8-5.3-11.8-11.9v-70.3c0-6.5,5.3-11.9,11.8-11.9h70.3c6.5,0,11.8,5.3,11.8,11.9
	v70.3C580.1,240.1,574.8,245.4,568.3,245.4z"/>
<path class="st2" d="M362,151.4h70.3c6.5,0,11.9,5.3,11.9,11.9v70.3c0,6.5-5.3,11.9-11.9,11.9H362c-6.5,0-11.9-5.3-11.9-11.9v-70.3
	C350.1,156.7,355.4,151.4,362,151.4z"/>
<path class="st2" d="M226,317.4h70.3c6.5,0,11.9,5.3,11.9,11.9v70.3c0,6.5-5.3,11.9-11.9,11.9H226c-6.5,0-11.9-5.3-11.9-11.9v-70.3
	C214.1,322.7,219.4,317.4,226,317.4z"/>
<path class="st7" d="M568.3,411.4H498c-6.5,0-11.8-5.3-11.8-11.9v-70.3c0-6.5,5.3-11.9,11.8-11.9h70.3c6.5,0,11.8,5.3,11.8,11.9
	v70.3C580.1,406.1,574.8,411.4,568.3,411.4z"/>
<path class="st7" d="M362,317.4h70.3c6.5,0,11.9,5.3,11.9,11.9v70.3c0,6.5-5.3,11.9-11.9,11.9H362c-6.5,0-11.9-5.3-11.9-11.9v-70.3
	C350.1,322.7,355.4,317.4,362,317.4z"/>
<path class="st2" d="M226,483.4h70.3c6.5,0,11.9,5.3,11.9,11.9v70.3c0,6.5-5.3,11.8-11.9,11.8H226c-6.5,0-11.9-5.3-11.9-11.8v-70.3
	C214.1,488.7,219.4,483.4,226,483.4z"/>
<path class="st2" d="M568.3,577.4H498c-6.5,0-11.8-5.3-11.8-11.8v-70.3c0-6.5,5.3-11.8,11.8-11.8h70.3c6.5,0,11.8,5.3,11.8,11.8
	v70.3C580.1,572.1,574.8,577.4,568.3,577.4z"/>
<path class="st2" d="M362,483.4h70.3c6.5,0,11.9,5.3,11.9,11.9v70.3c0,6.5-5.3,11.8-11.9,11.8H362c-6.5,0-11.9-5.3-11.9-11.8v-70.3
	C350.1,488.7,355.4,483.4,362,483.4z"/>
<linearGradient id="SVGID_1_" gradientUnits="userSpaceOnUse" x1="802.251" y1="6.2467" x2="802.251" y2="558.3265" gradientTransform="matrix(1 0 0 -1 -119.47 758.73)">
	<stop  offset="0" style="stop-color:#808080;stop-opacity:0.25"/>
	<stop  offset="0.54" style="stop-color:#808080;stop-opacity:0.12"/>
	<stop  offset="1" style="stop-color:#808080;stop-opacity:0.1"/>
</linearGradient>
<path class="st8" d="M790,277.9c-0.2-1.1-0.6-2.1-1.2-3c-0.7-0.8-1.5-1.6-2.3-2.3c-4.7-4.4-2.2-12.4-4-18.6c-2-6.6-9-11.6-15.1-15
	c-1-0.6-2-1-3.1-1.3c-1.4-0.2-2.8-0.3-4.2-0.3c-2.2-0.1-4.3-0.6-6.3-1.4c-2.9-1.2-5.5-3-8.4-4c-0.6-0.2-1.2-0.3-1.8-0.3
	c-3.2-0.3-3.3,3.7-6.8,6c-1.4,1-2.8,2.4-2.8,4.1c0,2.4,2.4,3.9,4.5,4.9c2.1,1,2.6,0.8,3.1,0.8h0.2c0.3,0,0.6,0.3,1.4,1.2
	c-13.3,2.1-23.1,13.5-23.2,26.9c0,3.8,0.8,7.5,2.3,11c-0.1,0.6-0.2,1.3-0.3,2c-1.1,6.5-3,14.2-6.3,20.7c-2.7,0.6-4.5,1-4.5,1
	c0,0.1,0,0.3,0.1,0.4l-1,0.7l-4.2,3c-8.3-13.7-16.7-30.7-17.1-43.5c0,0-1,0.7-2.7,1.8v-9.1l-0.5-0.1l0.5-1l3.9-7.4
	c1.5-2.8,2.3-5.9,2.3-9c0.2-11.6-0.2-40.2-8.2-44.9c-10.1-6-12.1,19.9-17.5,33.2c-4,9.9-2,24.3-0.8,30.9c0.1,0.5,0.2,0.9,0.3,1.2
	c-3.3,1.2-6.5,2.7-9.6,4.4c2.1,0.8,3.7,7.5,4.6,12.3c0.1,0.5,0.2,1,0.3,1.5c-2,0.6-4.1,1.1-6.2,1.5l17.4,37.9
	c-3.7,4.3-11.5,11.8-17.4,7.9c-8.1-5.3-33-2.7-33-2.7s-14.2-37.8-13.6-49.1c0,0-0.8,0.4-2,1v-10.3c-0.5,0.3-0.9,0.6-1.5,0.8l0.5-0.9
	l0.8-1.4c1.5-2.6,2.3-5.5,2.6-8.5c0.8-11.6,2.1-41.5-7.1-45.2c-11.5-4.6-14.8,28.6-14.8,28.6l2.4,30.1l0,0.7
	c-5.4,0.5-9.9,0.5-9.9,0.5c1.4,1.4,1.8,8.8,2,13.5c0,0.5,0,0.9,0,1.3c-2.8,0.5-5.2,0.5-6.7-0.2l18.2,49.2c0,0,1.3,12,24.9,17.3
	c13.9,3.1,23.5,6,29.2,7.9c-9.6,22.8-43,105-33.2,125c0,0,5.2-2,10.6-3.8c1.2,17.2,3.4,43.3,6,60.1c-2.8,8.8-5,16.2-5.7,20.4
	c-0.1,0.3-0.1,0.7-0.2,1c-2,16-18.2,46.5,6.1,72.4c0,0,16.8,10,18.2,21.9c1.1,10.1,18.9,35.1,24.6,42.9
	c-4.5,7.8-17.2,28.2-28.6,33.5c-14.2,6.7-2.7,16,10.8,14c13.5-2,58-33.9,58-33.9s-0.3-20.9-4.5-22.4l0,0l-4-8.4
	c2.2-0.3,4.4-1,6.6-1.8c18.2-7.3,43.1-20.6,43.1-20.6s0.5-15.6-6.6-21.3c-3.6-11.2-20.4-21.2-20.4-21.2s-12.1-31.2-41.8-39.9
	c0,0-4.8-6.8-4.6-14.5c1.9-3.7,3.3-6.1,3.3-6.1l15.3-36.4c4-3.5,7.3-7.7,10-12.3c0.2-0.4,0.4-0.8,0.7-1.3c9.3,1.1,16.5,2.2,16.5,2.2
	l-0.7-31.9c-6.1-65.8,12.8-85.1,12.8-85.1s27-32.6,29.7-55.8c2.5-21.5-15.7-22.5-18.5-22.6c-0.5-3.2-0.4-6.4,0.3-9.6l0.3,0.2
	c0.6,0.5,1.3,0.8,2,0.8c0.1,0,0.3,0,0.4,0h0.2c0.7,0,1.3-0.2,1.9-0.6c7.1-3.7,12.5-10.4,20.3-12.3c1.6-0.4,3.3-0.6,4.9-1.1
	c3.6-1.3,6.5-4,8-7.5C790.5,285.4,790.9,281.6,790,277.9z M691,629.9c1.3,4.7,22.9,20.6,22.9,20.6l0.8,5.7
	c-5.5,5.2-11.3,10.2-17.4,14.8l-7.7-15.8c0,0-11.5-36.5-21.6-40.5c-1.9-0.7-2.5-3-2.2-6.2C672.5,613.3,689.9,626.2,691,629.9
	L691,629.9z"/>
<path class="st9" d="M650.8,360.6c0,0-45.8,106.1-34.7,129c0,0,18.3-7.2,21-5.9c2.7,1.3,28.8-136.9,28.8-136.9L650.8,360.6z"/>
<path class="st10" d="M650.8,360.6c0,0-45.8,106.1-34.7,129c0,0,18.3-7.2,21-5.9c2.7,1.3,28.8-136.9,28.8-136.9L650.8,360.6z"/>
<path class="st9" d="M675.7,698.4c0,0-15.7,29.5-29.5,36s-2.6,15.7,10.5,13.8s56.3-33.4,56.3-33.4s-0.3-20.6-4.4-22.1
	S675.7,698.4,675.7,698.4z"/>
<path class="st9" d="M716.9,650.6c0,0-22.3,22.3-32.1,24.2c-9.8,2,8.5,15.1,26.2,7.9c17.7-7.2,41.9-20.3,41.9-20.3s0.7-21-10.5-22.9
	S716.9,650.6,716.9,650.6z"/>
<path class="st11" d="M625.3,468.6c0,0,4.6,79.9,10.5,91c5.9,11.1,28.2,45.2,28.2,45.2s25.5,18.3,26.8,22.9
	c1.3,4.6,22.3,20.3,22.3,20.3l1.3,9.2c0,0,34.7-2,32.7-13.8c-2-11.8-20.3-22.9-20.3-22.9s-11.8-30.8-40.6-39.3
	c0,0-9.2-13.1-1.3-23.6c0,0,19.7-49.1,30.8-55s-4.6-39.9-4.6-39.9L625.3,468.6z"/>
<path class="st10" d="M625.3,468.6c0,0,4.6,79.9,10.5,91c5.9,11.1,28.2,45.2,28.2,45.2s25.5,18.3,26.8,22.9
	c1.3,4.6,22.3,20.3,22.3,20.3l1.3,9.2c0,0,34.7-2,32.7-13.8c-2-11.8-20.3-22.9-20.3-22.9s-11.8-30.8-40.6-39.3
	c0,0-9.2-13.1-1.3-23.6c0,0,19.7-49.1,30.8-55s-4.6-39.9-4.6-39.9L625.3,468.6z"/>
<path class="st11" d="M689.4,652.6l21,43.9c-3.3,11.1-34.7,7.2-34.7,7.2s-24.2-32.7-25.5-44.5c-1.3-11.8-17.7-21.6-17.7-21.6
	c-23.6-25.5-7.9-55.7-5.9-71.4c0-0.3,0.1-0.6,0.1-1c1.7-10.5,12.3-40.9,20.6-63.6c5.6-15.3,10.1-27.1,10.1-27.1s43.9,2,53,17.7
	c4.2,7.2,2.3,14.7-1,20.7c-2.6,4.5-5.8,8.6-9.7,12.1l-14.9,35.9c0,0-26.2,47.8-16.3,51.8S689.4,652.6,689.4,652.6z"/>
<path class="st12" d="M611.2,264.3c-0.2,2.9-1.1,5.8-2.5,8.3L608,274l-3.7,6.6h-11.8l-0.3-3.1l-2.4-29.6c0,0,3.3-32.7,14.4-28.2
	C613.3,223.4,612.1,252.9,611.2,264.3z"/>
<path class="st13" d="M608,274l-3.7,6.6h-11.8l-0.3-3.1C597.8,277.1,604.3,276.1,608,274z"/>
<path class="st14" d="M608.9,274.1v15.1l-24.2,6.5c0,0,0-1.6-0.1-3.8c-0.1-4.6-0.6-11.9-1.9-13.3
	C582.7,278.7,602.3,278.7,608.9,274.1z"/>
<path class="st13" d="M608.9,283v6.2l-24.2,6.5c0,0,0-1.6-0.1-3.8C592.7,290.6,604.3,285.2,608.9,283z"/>
<path class="st12" d="M750.2,307.8c-4.8,13.8,1.4,20,1.4,20s-58.9,3.9-44.5-6.5c8.4-6.1,12.1-19.6,13.8-29.8
	c0.7-4.2,1.1-8.5,1.3-12.7c0,0,47.1-0.7,37.3,12.4C755.6,296.2,752.5,301.8,750.2,307.8z"/>
<path class="st13" d="M759.5,291.1c-4.8,6.5-6.4,7.4-8,12.1c-1.5,0.2-3,0.4-4.5,0.4c-11.2,0-22.2-2.3-26.2-12.1
	c0.7-4.2,1.1-8.5,1.3-12.8C722.2,278.7,769.3,278,759.5,291.1z"/>
<circle class="st12" cx="745.8" cy="278.7" r="26.8"/>
<path class="st9" d="M610.9,283.3c0,0-25.5,13.1-32.7,9.8l17.7,48.5c0,0,1.3,11.8,24.2,17c22.9,5.2,34,9.8,34,9.8l42.6-50.4
	l-21.6,5.9c0,0-11.1,15.7-19,10.5s-32.1-2.6-32.1-2.6S610.2,294.4,610.9,283.3z"/>
<path class="st10" d="M610.9,283.3c0,0-25.5,13.1-32.7,9.8l17.7,48.5c0,0,1.3,11.8,24.2,17c22.9,5.2,34,9.8,34,9.8l42.6-50.4
	l-21.6,5.9c0,0-11.1,15.7-19,10.5s-32.1-2.6-32.1-2.6S610.2,294.4,610.9,283.3z"/>
<path class="st13" d="M710.4,314.2c0,0,34.6-9.9,38.3,8.5c0,0-16-7.8-38.9,6c-1.7,1-3.4,2.1-5,3.3c-20.2,14.1-34.3,36-39.9,60.8
	l-14.6,64.1l-1.3,17.2c0,0-21,4.1-24.9-2.1s-1.3-26.9,4.6-33.8s15-36.6,15-36.6l5.7-17.2c4.8-14.5,12.4-27.8,22.4-39.3l0,0l1.4-1.7
	c8.6-10.4,19.6-18.5,31.9-23.9C708.4,318.2,710.9,316.4,710.4,314.2z"/>
<path class="st14" d="M710.4,312.9c0,0,34.6-9.9,38.3,8.5c0,0-16-7.8-38.9,6c-1.7,1-3.4,2.1-5,3.3c-20.2,14.1-34.3,36-39.9,60.8
	l-14.6,64.1l-1.3,17.2c0,0-21,4.1-24.9-2.1s-1.3-26.9,4.6-33.8s15.1-36.5,15.1-36.5l5.7-17.2c4.8-14.5,12.4-27.8,22.4-39.3l0,0
	l1.4-1.7c8.6-10.4,19.6-18.5,31.9-23.9C708.4,316.9,710.9,315.1,710.4,312.9z"/>
<path class="st13" d="M623.3,444.9l0.3,11.3l9.2-5.9c0,0,16.3-59.4,27.8-75.6c1.3-1.9,2-4.8,3.3-5.2l46.8-45.2v-10.5
	c0,0-23.9,17.7-25.9,21c-0.8,1.4-13.4,8.3-21,19c-6.8,9.9-12.8,20.3-18,31.1l-15.7,35.4L623.3,444.9z"/>
<path class="st15" d="M710.7,313.1v10.1l-47.5,45.5c-1.3,0.5-1.9,3.3-3.3,5.2c-11.5,16.2-27.8,75.6-27.8,75.6l-9.2,5.9l-0.3-11.3
	l6.8-24.7l15.7-35.4c5.2-10.8,11.2-21.2,18-31.1c7.6-10.7,20.1-17.6,21-19c1.7-2.8,20.2-16.3,25.2-20L710.7,313.1z"/>
<path class="st13" d="M736.8,250.2c-2.1-1-4.4-2.5-4.4-4.9c0-1.7,1.3-3.1,2.7-4c3.7-2.5,3.4-7.2,7.8-5.7c2.9,1,5.4,2.8,8.2,4
	c2,0.8,4,1.3,6.2,1.4c1.3,0,2.7,0.1,4,0.3c1.1,0.3,2.1,0.7,3,1.3c6,3.3,10.4,8.9,12.4,15.4c1.8,6.1,1.6,13.3,6.2,17.6
	c0.8,0.7,1.6,1.4,2.3,2.2c0.6,0.9,1,1.9,1.2,3c0.8,3.6,0.5,7.4-0.9,10.9c-1.4,3.5-4.3,6.1-7.8,7.4c-1.6,0.5-3.2,0.7-4.8,1.1
	c-7.5,1.9-12.8,8.5-19.7,12.1c-0.5,0.3-1.2,0.5-1.8,0.6c-0.7-0.1-1.4-0.4-1.9-0.8c-2.7-1.9-4.8-4.8-4.8-8.1c0.2-2,0.8-4,1.8-5.8
	c1.4-3.4,2.5-6.9,3.3-10.5c0.2-0.8,0.3-1.7,0.1-2.5c-0.5-1.6-2.3-2.3-3.5-3.5c-2.3-2.1-2.6-5.8-1.7-8.9s2.7-5.7,4-8.6
	c0.5-0.9,0.7-1.8,0.8-2.8c0-3.8-5.2-5.9-7.4-8.4C739,249.5,740.9,252.2,736.8,250.2z"/>
<path class="st15" d="M737.5,250.2c-2.1-1-4.4-2.5-4.4-4.9c0-1.7,1.3-3.1,2.7-4c3.7-2.5,3.4-7.2,7.8-5.7c2.9,1,5.4,2.8,8.2,4
	c2,0.8,4,1.3,6.2,1.4c1.3,0.1,5.7-2,7-1.7c1.1,0.3,2.1,0.7,3,1.3c6,3.3,10.4,8.9,12.4,15.4c1.8,6.1,0.5,13.7,5.1,18
	c0.8,0.7-0.3,3,0.3,3.8c0.6,0.9,1,1.9,1.2,3c0.8,3.6,0.5,7.4-0.9,10.9c-1.4,3.5-4.3,6.1-7.8,7.4c-1.6,0.5-3.2,0.7-4.8,1.1
	c-7.5,1.9-12.8,8.5-19.7,12.1c-0.5,0.3-1.2,0.5-1.8,0.6c-0.7-0.1-1.4-0.4-1.9-0.8c-2.7-1.9-4.8-4.8-4.8-8.1c0.2-2,0.8-4,1.8-5.8
	c1.4-3.4,2.5-6.9,3.3-10.5c0.2-0.8,0.3-1.7,0.1-2.5c-0.5-1.6-2.3-2.3-3.5-3.5c-2.3-2.1-2.6-5.8-1.7-8.9s2.7-5.7,4-8.6
	c0.5-0.9,0.7-1.8,0.8-2.8c0-3.8-5.2-5.9-7.4-8.4C739.7,249.5,741.5,252.2,737.5,250.2z"/>
<path class="st13" d="M709.4,512.9c-12-1.4-27.1-2.8-33.8-1.7c-10.7,1.8-25.7-7.8-28.4-9.5c5.6-15.3,10.1-27.1,10.1-27.1
	s43.9,2,53,17.7C714.6,499.4,712.7,506.9,709.4,512.9z"/>
<path class="st9" d="M766.7,343.5c-2.6,22.9-28.8,55-28.8,55s-18.3,19-12.4,83.8l0.7,31.4c0,0-38.6-5.9-50.4-3.9
	c-11.8,2-28.8-9.8-28.8-9.8s-6.6-113.3,21.6-136.8c3.5-5.4,7.2-10.5,11.3-15.5c7.6-9.1,17.8-19.5,27.5-22c1.2-0.3,2.5-0.5,3.8-0.6
	c0,0,29.5-16.4,37.3-3.9C748.4,321.3,769.3,320.6,766.7,343.5z"/>
<path class="st13" d="M647.2,465.7c0,0,10.5-4.6,28.2-3.3c17.7,1.3,49.2-14.4,49.2-14.4"/>
<path class="st10" d="M666.2,611.7c0,0,0.7,2-7.9,4.6s-11.1,5.2-11.1,5.2"/>
<path class="st2" d="M675.6,259h-70.3c-6.5,0-11.8-5.3-11.8-11.9v-70.3c0-6.5,5.3-11.9,11.8-11.9h70.3c6.5,0,11.8,5.3,11.8,11.9
	v70.3C687.5,253.7,682.2,259,675.6,259z"/>
<path class="st12" d="M692.2,249.7c0,3.1-0.8,6.1-2.2,8.9l-3.8,7.3l-2.6,5l-16.4,1.3c0,0-0.3-1.4-0.8-3.6
	c-1.2-6.5-3.2-20.7,0.8-30.5c5.2-13.1,7.2-38.6,17-32.7C692,210,692.4,238.2,692.2,249.7z"/>
<path class="st13" d="M686.2,265.6v0.2l-2.6,5l-16.4,1.3c0,0-0.3-1.4-0.8-3.6C672.3,266.3,680,264.2,686.2,265.6z"/>
<path class="st14" d="M686.2,266.9v11.8l-23.6,12.4c0,0-0.3-2.1-0.8-4.9c-0.9-4.7-2.4-11.3-4.5-12.1
	C657.4,274.1,674.4,264.3,686.2,266.9z"/>
<path class="st10" d="M749.9,374c-5.8,5.1-13.5,7.6-21.2,6.8c-41.5-4.2-42.6-18.9-42.6-18.9l-6.4-14.1c7.6-9.1,17.8-19.5,27.5-22
	c6.9,11.1,13,19.1,13,19.1s30.8-23.6,40-1.3C765.5,356.5,757.5,367.2,749.9,374z"/>
<path class="st13" d="M686.2,274.1v4.6l-23.6,12.4c0,0-0.3-2.1-0.8-4.9C672,283,682,276.8,686.2,274.1z"/>
<path class="st9" d="M688.8,274.1c0,0-17.7,12.4-32.7,15.1l30.8,68.1c0,0,1.1,14.6,42.6,18.9c7.7,0.8,15.4-1.7,21.2-6.8
	c7.6-6.7,15.6-17.5,10.2-30.4c-9.2-22.3-40,1.3-40,1.3S689.4,299,688.8,274.1z"/>
<path class="st2" d="M793.4,714.3H944c1.5,0,2.7,1.2,2.7,2.7v8.7c0,1.5-1.2,2.7-2.7,2.7H793.4c-1.5,0-2.7-1.2-2.7-2.7V717
	C790.7,715.5,791.9,714.3,793.4,714.3z"/>
<path class="st3" d="M776.4,700.3H927c1.5,0,2.7,1.2,2.7,2.7v8.7c0,1.5-1.2,2.7-2.7,2.7H776.4c-1.5,0-2.7-1.2-2.7-2.7V703
	C773.7,701.5,774.9,700.3,776.4,700.3z"/>
<path class="st2" d="M776.4,700.3H927c1.5,0,2.7,1.2,2.7,2.7v8.7c0,1.5-1.2,2.7-2.7,2.7H776.4c-1.5,0-2.7-1.2-2.7-2.7V703
	C773.7,701.5,774.9,700.3,776.4,700.3z"/>
</svg>
