<?xml version="1.0" encoding="utf-8"?>
<!-- Generator: Adobe Illustrator 23.0.1, SVG Export Plug-In . SVG Version: 6.00 Build 0)  -->
<svg version="1.1" id="a3264d4e-838f-4e8b-aa0e-ebd578e83807"
	 xmlns="http://www.w3.org/2000/svg" xmlns:xlink="http://www.w3.org/1999/xlink" x="0px" y="0px" viewBox="0 0 917.4 680.1"
	 style="enable-background:new 0 0 917.4 680.1;" xml:space="preserve">
<style type="text/css">
	.st0{fill:#E6E6E6;}
	.st1{fill:#FFFFFF;}
	.st2{fill:#797BF2;}
	.st3{fill:#3F3D56;}
	.st4{fill:#FFB8B8;}
	.st5{fill:#2F2E41;}
</style>
<path class="st0" d="M144.4,235.1c-38.1,0-69-30.9-69-69s30.9-69,69-69l0,0h628c38.1,0,69,30.9,69,69s-30.9,69-69,69H144.4z"/>
<path class="st1" d="M144.4,106.1c-33.1,0-60,26.9-60,60s26.9,60,60,60h628c33.1,0,60-26.9,60-60s-26.9-60-60-60H144.4z"/>
<rect x="208.1" y="106.1" class="st0" width="2" height="120"/>
<rect x="332.9" y="106.1" class="st0" width="2" height="120"/>
<rect x="457.9" y="106.1" class="st0" width="2" height="120"/>
<rect x="581.9" y="106.1" class="st0" width="2" height="120"/>
<rect x="706.9" y="106.1" class="st0" width="2" height="120"/>
<path class="st0" d="M242.6,148.1c-1.6,0-2.9,1.3-2.9,2.9c0,1.6,1.3,2.9,2.9,2.9h58.7c1.6,0,2.9-1.3,2.9-2.9c0-1.6-1.3-2.9-2.9-2.9
	c0,0,0,0,0,0H242.6z"/>
<path class="st0" d="M242.6,163.1c-1.6,0-2.9,1.3-2.9,2.9c0,1.6,1.3,2.9,2.9,2.9h58.7c1.6,0,2.9-1.3,2.9-2.9c0-1.6-1.3-2.9-2.9-2.9
	c0,0,0,0,0,0H242.6z"/>
<path class="st0" d="M242.6,178.1c-1.6,0-2.9,1.3-2.9,2.9c0,1.6,1.3,2.9,2.9,2.9h58.7c1.6,0,2.9-1.3,2.9-2.9c0-1.6-1.3-2.9-2.9-2.9
	c0,0,0,0,0,0H242.6z"/>
<path class="st2" d="M366.6,148.1c-1.6,0-2.9,1.3-2.9,2.9c0,1.6,1.3,2.9,2.9,2.9h58.7c1.6,0,2.9-1.3,2.9-2.9c0-1.6-1.3-2.9-2.9-2.9
	H366.6z"/>
<path class="st2" d="M366.6,163.1c-1.6,0-2.9,1.3-2.9,2.9c0,1.6,1.3,2.9,2.9,2.9h58.7c1.6,0,2.9-1.3,2.9-2.9c0-1.6-1.3-2.9-2.9-2.9
	H366.6z"/>
<path class="st2" d="M366.6,178.1c-1.6,0-2.9,1.3-2.9,2.9c0,1.6,1.3,2.9,2.9,2.9h58.7c1.6,0,2.9-1.3,2.9-2.9c0-1.6-1.3-2.9-2.9-2.9
	H366.6z"/>
<path class="st0" d="M491.6,148.1c-1.6,0-2.9,1.3-2.9,2.9c0,1.6,1.3,2.9,2.9,2.9h58.7c1.6,0,2.9-1.3,2.9-2.9c0-1.6-1.3-2.9-2.9-2.9
	l0,0H491.6z"/>
<path class="st0" d="M491.6,163.1c-1.6,0-2.9,1.3-2.9,2.9c0,1.6,1.3,2.9,2.9,2.9h58.7c1.6,0,2.9-1.3,2.9-2.9c0-1.6-1.3-2.9-2.9-2.9
	l0,0H491.6z"/>
<path class="st0" d="M491.6,178.1c-1.6,0-2.9,1.3-2.9,2.9c0,1.6,1.3,2.9,2.9,2.9h58.7c1.6,0,2.9-1.3,2.9-2.9c0-1.6-1.3-2.9-2.9-2.9
	l0,0H491.6z"/>
<path class="st0" d="M616.1,148.1c-1.6,0-2.9,1.3-2.9,2.9c0,1.6,1.3,2.9,2.9,2.9h58.7c1.6,0,2.9-1.3,2.9-2.9c0-1.6-1.3-2.9-2.9-2.9
	l0,0H616.1z"/>
<path class="st0" d="M616.1,163.1c-1.6,0-2.9,1.3-2.9,2.9c0,1.6,1.3,2.9,2.9,2.9h58.7c1.6,0,2.9-1.3,2.9-2.9c0-1.6-1.3-2.9-2.9-2.9
	l0,0H616.1z"/>
<path class="st0" d="M616.1,178.1c-1.6,0-2.9,1.3-2.9,2.9c0,1.6,1.3,2.9,2.9,2.9h58.7c1.6,0,2.9-1.3,2.9-2.9c0-1.6-1.3-2.9-2.9-2.9
	l0,0H616.1z"/>
<path class="st0" d="M737.6,148.1c-1.6,0-2.9,1.3-2.9,2.9c0,1.6,1.3,2.9,2.9,2.9h58.7c1.6,0,2.9-1.3,2.9-2.9c0-1.6-1.3-2.9-2.9-2.9
	l0,0H737.6z"/>
<path class="st0" d="M737.6,163.1c-1.6,0-2.9,1.3-2.9,2.9c0,1.6,1.3,2.9,2.9,2.9h58.7c1.6,0,2.9-1.3,2.9-2.9c0-1.6-1.3-2.9-2.9-2.9
	l0,0H737.6z"/>
<path class="st0" d="M737.6,178.1c-1.6,0-2.9,1.3-2.9,2.9c0,1.6,1.3,2.9,2.9,2.9h58.7c1.6,0,2.9-1.3,2.9-2.9c0-1.6-1.3-2.9-2.9-2.9
	l0,0H737.6z"/>
<path class="st0" d="M117.6,148.1c-1.6,0-2.9,1.3-2.9,2.9c0,1.6,1.3,2.9,2.9,2.9h58.7c1.6,0,2.9-1.3,2.9-2.9c0-1.6-1.3-2.9-2.9-2.9
	c0,0,0,0,0,0H117.6z"/>
<path class="st0" d="M117.6,163.1c-1.6,0-2.9,1.3-2.9,2.9c0,1.6,1.3,2.9,2.9,2.9h58.7c1.6,0,2.9-1.3,2.9-2.9c0-1.6-1.3-2.9-2.9-2.9
	c0,0,0,0,0,0H117.6z"/>
<path class="st0" d="M117.6,178.1c-1.6,0-2.9,1.3-2.9,2.9c0,1.6,1.3,2.9,2.9,2.9h58.7c1.6,0,2.9-1.3,2.9-2.9c0-1.6-1.3-2.9-2.9-2.9
	c0,0,0,0,0,0H117.6z"/>
<circle class="st2" cx="396.1" cy="47.4" r="47.4"/>
<polygon class="st2" points="396.1,124.4 381.2,98.7 366.4,73.1 396.1,73.1 425.7,73.1 410.9,98.7 "/>
<circle class="st1" cx="396.4" cy="47.1" r="17"/>
<path class="st0" d="M888.6,137.2c-15.9,0-28.8,12.9-28.8,28.8c0,15.9,12.9,28.8,28.8,28.8c15.9,0,28.8-12.9,28.8-28.8c0,0,0,0,0,0
	C917.4,150.1,904.5,137.2,888.6,137.2z M888.6,190.5c-13.6,0-24.5-11-24.5-24.5s11-24.5,24.5-24.5s24.5,11,24.5,24.5
	C913.2,179.5,902.2,190.5,888.6,190.5C888.6,190.5,888.6,190.5,888.6,190.5z"/>
<path class="st2" d="M887.1,175.8c-0.4,0-0.8-0.2-1.1-0.4l-8.2-8.2c-0.6-0.6-0.6-1.6,0-2.1c0.6-0.6,1.6-0.6,2.1,0l7,7l12.3-16.8
	c0.5-0.7,1.4-0.8,2.1-0.3c0.7,0.5,0.8,1.4,0.3,2.1l-13.4,18.2c-0.3,0.4-0.7,0.6-1.1,0.6C887.1,175.8,887.1,175.8,887.1,175.8z"/>
<path class="st0" d="M28.8,137.2C12.9,137.2,0,150.1,0,166s12.9,28.8,28.8,28.8s28.8-12.9,28.8-28.8
	C57.6,150.1,44.7,137.2,28.8,137.2C28.8,137.2,28.8,137.2,28.8,137.2z M28.8,190.5c-13.6,0-24.5-11-24.5-24.5
	c0-13.6,11-24.5,24.5-24.5c13.6,0,24.5,11,24.5,24.5C53.3,179.5,42.4,190.5,28.8,190.5C28.8,190.5,28.8,190.5,28.8,190.5z"/>
<path class="st2" d="M21.1,175.6c-0.8,0-1.5-0.7-1.5-1.5c0-0.4,0.2-0.8,0.4-1.1l16.2-16.2c0.6-0.6,1.6-0.6,2.1,0
	c0.6,0.6,0.6,1.6,0,2.1l-16.2,16.2C21.9,175.4,21.5,175.6,21.1,175.6z"/>
<path class="st2" d="M36.5,175.6c-0.4,0-0.8-0.2-1.1-0.4L19.2,159c-0.6-0.6-0.6-1.6,0-2.1c0.6-0.6,1.6-0.6,2.1,0L37.6,173
	c0.6,0.6,0.6,1.6,0,2.1C37.3,175.4,36.9,175.6,36.5,175.6L36.5,175.6z"/>
<polygon class="st3" points="840.8,666.8 573.4,666.8 573.4,664.7 841.2,664.7 "/>
<rect x="639.8" y="637.2" class="st4" width="18.6" height="25.3"/>
<rect x="734.3" y="637.2" class="st4" width="18.6" height="25.3"/>
<path class="st4" d="M765.8,427.3L765.8,427.3c-6.1,0-11-4.9-11-11c0-0.6,0-1.1,0.1-1.7l3-19.4l0.9-5.8H773l0.7,8.2l2.9,16.8
	c1.1,6-3,11.7-9,12.8C767.1,427.3,766.5,427.3,765.8,427.3z"/>
<path class="st4" d="M627.4,425.1L627.4,425.1c-6.1,0-11-4.9-11-11c0-0.6,0-1.1,0.1-1.7l3-19.4l0.9-5.8h14.1l0.7,8.2l2.9,16.8
	c1.1,6-3,11.7-9,12.8C628.7,425.1,628.1,425.1,627.4,425.1z"/>
<polygon class="st5" points="755.2,642.4 732.8,641.7 696.4,421.4 659.9,642.4 638.3,641.7 632.4,387.2 757.4,387.2 "/>
<path class="st5" d="M657.9,680.1c-18.9,0.5-33.8-4.6-43.5-16.7c-2.1-2.6-2.3-6.3-0.6-9.1l0,0c1.6-2.7,4.7-4.2,7.8-3.8l6.2,0.7
	l12.8-6.4c-2.6,15.2,4.5,15.5,21.6,10.4l3.1,15.8c0.8,4.2-1.9,8.3-6.1,9.1C658.8,680,658.4,680,657.9,680.1z"/>
<path class="st5" d="M752.5,680.1c-18.9,0.5-33.8-4.6-43.5-16.7c-2.1-2.6-2.3-6.3-0.6-9.1l0,0c1.6-2.7,4.7-4.2,7.8-3.8l6.2,0.7
	l12.7-5.4c-2.6,15.2,4.6,14.5,21.7,9.4l3.1,15.8c0.8,4.2-1.9,8.3-6.1,9.1C753.3,680,752.9,680,752.5,680.1z"/>
<circle class="st4" cx="688.9" cy="124.5" r="29.8"/>
<polygon class="st4" points="718.7,178.8 686.7,180.3 685.2,146.8 712.7,136.4 "/>
<path class="st3" d="M764.8,397.6c-43.6-8.3-93.4-11.2-126.5,0l10.4-218.8l35-10.4l2.6-4.1l29.4-4.8l14.1,4.5l8.9,13.4l38.7,21.6
	C758.4,272.6,752.8,339.5,764.8,397.6z"/>
<path class="st3" d="M785.7,396.1l-32-3.7c6.7-32.5,3.9-74.8,5.6-117.2c1-26.9,6.6-51.4,8.6-81.5l0,0c12.1,3.2,18.4,14.4,18.5,27.7
	C786.6,284.4,792.6,343.4,785.7,396.1z"/>
<path class="st3" d="M646.5,393.1l-31.3-2.2l18.6-105.7l6.3-87.9c-1-12.8,5.9-20.3,16-20.7l0,0C678.4,202.8,680.9,239,674,280
	L646.5,393.1z"/>
<path class="st5" d="M698.6,146.4l-3.8-10.9c-4.4-12.5-15.3-21.5-28.4-23.6l0,0l-24.1-0.6l6.7-10.7c6.6-10.6,18.6-16.5,30.9-15.2
	l24,2.4c11.9,1.2,20.6,11.8,19.5,23.7l-2.2,23.6c-0.8,8.2-8,14.2-16.2,13.4C702.8,148.3,700.5,147.6,698.6,146.4z"/>
</svg>
