<svg id="bold" enable-background="new 0 0 32 32" height="512" viewBox="0 0 32 32" width="512" xmlns="http://www.w3.org/2000/svg"><path d="m26 32h-20c-3.314 0-6-2.686-6-6v-20c0-3.314 2.686-6 6-6h20c3.314 0 6 2.686 6 6v20c0 3.314-2.686 6-6 6z" fill="#f5e6fe"/><g fill="#be63f9"><path d="m14.833 19.667h-.333c-.093 0-.167.073-.167.167v1.666c0 .093.073.167.167.167h.333c.093 0 .167-.073.167-.167v-1.667c0-.093-.073-.166-.167-.166z"/><path d="m11.5 19.667h-.5v2h.5c.093 0 .167-.073.167-.167v-1.667c0-.093-.074-.166-.167-.166z"/><path d="m19.167 16.667c-1.38 0-2.5-1.12-2.5-2.5v-2.333c0-.953.547-1.78 1.333-2.2.007-.607.193-1.167.513-1.634h-8.68c-1.013 0-1.833.82-1.833 1.833v12.333c0 1.014.82 1.834 1.833 1.834h9.667c1.013 0 1.833-.82 1.833-1.833v-5.5zm-6.5 4.833c0 .64-.527 1.167-1.167 1.167h-1c-.273 0-.5-.227-.5-.5v-3c0-.273.227-.5.5-.5h1c.64 0 1.167.527 1.167 1.167zm3.333 0c0 .64-.527 1.167-1.167 1.167h-.333c-.64 0-1.167-.527-1.167-1.167v-1.667c0-.64.527-1.167 1.167-1.167h.333c.64 0 1.167.527 1.167 1.167zm1.833.167h1c.276 0 .5.224.5.5s-.224.5-.5.5h-1c-.643 0-1.167-.523-1.167-1.167v-1.667c0-.643.523-1.167 1.167-1.167h1c.276 0 .5.224.5.5s-.224.5-.5.5h-1c-.092 0-.167.075-.167.167v1.667c.001.092.076.167.167.167z"/></g><path d="m22.167 11.667h-2.333c-.276 0-.5-.224-.5-.5v-1.5c-.001-.919.747-1.667 1.666-1.667s1.667.748 1.667 1.667v1.5c0 .276-.224.5-.5.5zm-1.834-1h1.333v-1c.001-.368-.298-.667-.666-.667s-.667.299-.667.667z" fill="#d9a4fc"/><path d="m22.833 15.333h-3.667c-.643 0-1.167-.523-1.167-1.167v-2.333c0-.643.523-1.167 1.167-1.167h3.667c.643 0 1.167.523 1.167 1.167v2.333c0 .644-.523 1.167-1.167 1.167z" fill="#d9a4fc"/></svg>