<?xml version="1.0" encoding="utf-8"?>
<!-- Generator: Adobe Illustrator 23.0.1, SVG Export Plug-In . SVG Version: 6.00 Build 0)  -->
<svg version="1.1" id="Layer_1" xmlns="http://www.w3.org/2000/svg" xmlns:xlink="http://www.w3.org/1999/xlink" x="0px" y="0px"
	 viewBox="0 0 195.1 163.6" style="enable-background:new 0 0 195.1 163.6;" xml:space="preserve">
<style type="text/css">
	.st0{fill:url(#SVGID_1_);}
	.st1{fill:none;}
	.st2{fill:url(#SVGID_2_);}
	.st3{fill:url(#SVGID_3_);}
	.st4{fill:url(#SVGID_4_);}
	.st5{fill:url(#SVGID_5_);}
	.st6{fill:url(#SVGID_6_);}
	.st7{fill:url(#SVGID_7_);}
	.st8{fill:url(#SVGID_8_);}
	.st9{opacity:0.1;fill:#FFFFFF;}
	.st10{fill:url(#SVGID_9_);}
	.st11{fill:url(#SVGID_10_);}
	.st12{fill:url(#SVGID_11_);}
	.st13{fill:url(#SVGID_12_);}
	.st14{fill:url(#SVGID_13_);}
	.st15{fill:url(#SVGID_14_);}
	.st16{fill:url(#SVGID_15_);}
	.st17{fill:url(#SVGID_16_);}
	.st18{fill:url(#SVGID_17_);}
	.st19{fill:none;stroke:#FF7570;stroke-linecap:round;stroke-linejoin:round;stroke-miterlimit:10;}
	.st20{fill:url(#SVGID_18_);}
	.st21{fill:url(#SVGID_19_);}
	.st22{fill:none;stroke:#2A1F31;stroke-linecap:round;stroke-miterlimit:10;}
	.st23{fill:none;stroke:#F94848;stroke-linecap:round;stroke-linejoin:round;stroke-miterlimit:10;}
	.st24{fill:url(#SVGID_20_);}
	.st25{fill:url(#SVGID_21_);}
	.st26{fill:url(#SVGID_22_);}
	.st27{fill:url(#SVGID_23_);}
	.st28{fill:url(#SVGID_24_);}
	.st29{fill:url(#SVGID_25_);}
	.st30{fill:url(#SVGID_26_);}
	.st31{fill:url(#SVGID_27_);}
</style>
<linearGradient id="SVGID_1_" gradientUnits="userSpaceOnUse" x1="0.4898" y1="57.14" x2="195.4898" y2="57.14">
	<stop  offset="0" style="stop-color:#FFFFFF"/>
	<stop  offset="1" style="stop-color:#D8E0FF"/>
</linearGradient>
<rect x="0.5" y="-0.4" class="st0" width="195" height="115"/>
<g>
	<path class="st1" d="M195.1,16.8v102.9c-12.6,14-30,17.9-48,17.1c-3.6-0.2-7.2-0.5-10.8-1c-1.6-0.2-3.2-0.5-4.8-0.8
		c-4.4-0.8-8.7-1.7-13-2.8c-1.3-0.3-2.6-0.7-3.9-1c-2.8-0.8-5.4-1.5-8.1-2.4c-1.3-0.4-2.6-0.8-3.8-1.2c-1-0.3-2-0.6-2.9-1
		c-7.7-2.6-14.6-5.1-20-6.9c-13.7-4.6-28.1-6.6-42.2-5.3c-1.5,0.1-2.9,0.3-4.3,0.5c-11.6,1.6-23,5.5-33.4,11.9V16.8
		C0,7.9,7.2,0.7,16.1,0.7h163C187.9,0.7,195.1,7.9,195.1,16.8z"/>
	
		<linearGradient id="SVGID_2_" gradientUnits="userSpaceOnUse" x1="196.5027" y1="5.3662" x2="225.0039" y2="171.7625" gradientTransform="matrix(0.882 0.4713 -0.4713 0.882 12.6939 -164.0149)">
		<stop  offset="0" style="stop-color:#FFFFFF"/>
		<stop  offset="1" style="stop-color:#D8E0FF"/>
	</linearGradient>
	<path class="st2" d="M152.7,29.4c-11.5-6.1-18.9-16.9-21.3-28.7h-21.2c2.5,19.4,14.1,37.3,32.6,47.2c16.8,9,35.8,9.5,52.3,3.1V27.6
		C182.8,35.6,166.6,36.8,152.7,29.4z"/>
	<linearGradient id="SVGID_3_" gradientUnits="userSpaceOnUse" x1="87.1242" y1="58.8743" x2="93.1836" y2="109.1317">
		<stop  offset="0" style="stop-color:#FFFFFF"/>
		<stop  offset="1" style="stop-color:#FFFFFF;stop-opacity:0"/>
	</linearGradient>
	<path class="st3" d="M46.8,102.9c-0.7-9.3,8.7-10.1,8.7-10.1S51.8,73.4,65.2,69c13.5-4.5,18.3,7.1,18.3,7.1s-2.3-8.6,3.4-10.7
		c5.7-2.1,9.6,5.4,9.6,5.4s-1-8,7.8-11c8.8-3,33,8,31.5,27.9c-1.5,19.9-27.2,36.6-27.2,36.6"/>
	<linearGradient id="SVGID_4_" gradientUnits="userSpaceOnUse" x1="101.626" y1="139.896" x2="94.8537" y2="78.9455">
		<stop  offset="0" style="stop-color:#667AFF"/>
		<stop  offset="1" style="stop-color:#8DCFFF"/>
	</linearGradient>
	<path class="st4" d="M195.1,80v39.7c-12.6,14-30,17.9-48,17.1c-3.6-0.2-7.2-0.5-10.8-1c-1.6-0.2-3.2-0.5-4.8-0.8
		c-4.4-0.8-8.7-1.7-13-2.8c-1.3-0.3-2.6-0.7-3.9-1c-2.8-0.8-5.4-1.5-8.1-2.4c-1.3-0.4-2.6-0.8-3.8-1.2c-1-0.3-2-0.6-2.9-1
		c-7.7-2.6-14.6-5.1-20-6.9c-13.7-4.6-28.1-6.6-42.2-5.3c-1.5,0.1-2.9,0.3-4.3,0.5c-11.6,1.6-23,5.5-33.4,11.9V95.5
		c10.1-3.7,24.4-4,36.3,3.1c11.9,7.1,25.3-6.7,38.1-1.4c12.8,5.4,22.2-8.6,42.6-1.3c20.5,7.4,28.6-7.4,43.8-3.2
		C172.6,96,184.5,81.6,195.1,80z"/>
	<linearGradient id="SVGID_5_" gradientUnits="userSpaceOnUse" x1="98.8274" y1="119.2075" x2="94.5502" y2="71.4451">
		<stop  offset="0" style="stop-color:#667AFF"/>
		<stop  offset="1" style="stop-color:#8DCFFF"/>
	</linearGradient>
	<path class="st5" d="M195.1,83.5v36.2c-12.6,14-30,17.9-48,17.1c-3.6-0.2-7.2-0.5-10.8-1c-1.6-0.2-3.2-0.5-4.8-0.8
		c-4.4-0.8-8.7-1.7-13-2.8c-1.3-0.3-2.6-0.7-3.9-1c-2.8-0.8-5.4-1.5-8.1-2.4c-1.3-0.4-2.6-0.8-3.8-1.2c-1-0.3-2-0.6-2.9-1
		c-7.7-2.6-14.6-5.1-20-6.9c-13.7-4.6-28.1-6.6-42.2-5.3c-1.5,0.1-2.9,0.3-4.3,0.5c-11.6,1.6-23,5.5-33.4,11.9V99.1
		c10.1-3.7,24.4-4,36.3,3.1c11.9,7.1,25.3-6.7,38.1-1.4c12.8,5.4,22.2-8.6,42.6-1.3c20.5,7.4,28.6-7.4,43.8-3.2
		C172.6,99.6,184.5,85.1,195.1,83.5z"/>
	<linearGradient id="SVGID_6_" gradientUnits="userSpaceOnUse" x1="95.9516" y1="134.1924" x2="99.7536" y2="86.1922">
		<stop  offset="0" style="stop-color:#FFBFAB"/>
		<stop  offset="1" style="stop-color:#FFD8CC"/>
	</linearGradient>
	<path class="st6" d="M195.1,97v22.7c-12.6,14-30,17.9-48,17.1c-3.6-0.2-7.2-0.5-10.8-1c-1.6-0.2-3.2-0.5-4.8-0.8
		c-4.4-0.8-8.7-1.7-13-2.8c-1.3-0.3-2.6-0.7-3.9-1c-2.8-0.8-5.4-1.5-8.1-2.4c-1.3-0.4-2.6-0.8-3.8-1.2c-1-0.3-2-0.6-2.9-1
		c-7.7-2.6-14.6-5.1-20-6.9c-26.4-9-55.6-7.8-79.9,7.2v-19.2c17.4,1.5,43.4-4,68.9-1.3c29.6,3.1,63.5-6.3,85-5.1
		C167.1,102,184,99.2,195.1,97z"/>
	<linearGradient id="SVGID_7_" gradientUnits="userSpaceOnUse" x1="181.2248" y1="122.6715" x2="315.9576" y2="129.0874">
		<stop  offset="0" style="stop-color:#FFBFAB"/>
		<stop  offset="1" style="stop-color:#FFD8CC"/>
	</linearGradient>
	<path class="st7" d="M195.1,107.6v12.1c-12.6,14-30,17.9-48,17.1c-3.6-0.2-7.2-0.5-10.8-1c-1.6-0.2-3.2-0.5-4.8-0.8
		c-4.4-0.8-8.7-1.7-13-2.8c-1.3-0.3-2.6-0.7-3.9-1c-2.8-0.8-5.4-1.5-8.1-2.4c-1.3-0.4-2.6-0.8-3.8-1.2c-1-0.3-2-0.6-2.9-1
		c-7.7-2.6-14.6-5.1-20-6.9c-26.4-9-55.6-7.8-79.9,7.2v-10.4c12.2-0.8,28.7-8.4,50.7-5.1c24.6,3.7,51.2,16.7,90.3,12.8
		C163.6,121.9,182.9,113.9,195.1,107.6z"/>
	<g>
		<linearGradient id="SVGID_8_" gradientUnits="userSpaceOnUse" x1="125.4952" y1="160.9365" x2="136.4839" y2="65.2946">
			<stop  offset="3.409785e-07" style="stop-color:#671CC9"/>
			<stop  offset="1" style="stop-color:#6766C9"/>
		</linearGradient>
		<path class="st8" d="M171.8,111.3c-0.2,1-0.4,1.6-0.6,1.8c-0.2,0.1-1,0.2-2.2,0.4c-5,0.5-16.4,1.1-17.5,1.6
			c-0.4,0.2-1,2.8-1.7,6.5c-0.3,1.5-0.6,3.1-0.9,4.8c-0.6,3.4-1.2,7.2-1.7,10.4c-3.6-0.2-7.2-0.5-10.8-1c-1.6-0.2-3.2-0.5-4.8-0.8
			c-4.4-0.8-8.7-1.7-13-2.8c-1.3-0.3-2.6-0.7-3.9-1c-2.8-0.8-5.4-1.5-8.1-2.4c-1.3-0.4-2.6-0.8-3.8-1.2c-1-0.3-2-0.6-2.9-1
			c0.3-0.5,0.6-1.1,0.9-1.7c3.8-6.8,8-17.9,8-17.9s-10.1,1.1-14.4,0.4c-1.1-0.2-1.8-0.5-1.9-0.9c-0.2-0.7-0.1-1.6,0.1-2.7
			c0.5-2.5,1.7-5.8,1.1-8.9c-0.8-4.5-1.1-7.8,1-7.8c0.1,0,0.3,0,0.7,0c0.1,0,0.2,0,0.3,0h0.1c0.2,0,0.5,0,0.7-0.1c0.2,0,0.4,0,0.6,0
			c0.1,0,0.3,0,0.5,0c0.2,0,0.4,0,0.6-0.1c0.1,0,0.3,0,0.5,0c0.3,0,0.7-0.1,1.1-0.1c0.6,0,1.2-0.1,1.8-0.2c0.8-0.1,1.6-0.1,2.5-0.2
			c0.4,0,0.8-0.1,1.1-0.1c0.8-0.1,1.6-0.1,2.4-0.2c2.4-0.2,5-0.4,7.6-0.6c0.3,0,0.7-0.1,1-0.1c1.6-0.1,3.2-0.2,4.8-0.3
			c1.6-0.1,3.2-0.2,4.6-0.2c1.1,0,2.1,0,3,0c0.9,0,1.7,0,2.4,0.1l7.6,1.9l2.8,0.4l4.4,0.6l4.9,0.7l3.1,0.4l3.1,0.4l4.3,0.6l3.9,0.5
			c0,0,0.1,0,0.4,0.1c0,0,0.1,0,0.1,0c0.1,0,0.1,0.1,0.2,0.1c0.7,0.2,1.8,0.7,3,1.5c0,0,0,0,0,0c0.1,0.1,0.3,0.2,0.4,0.3
			c0.1,0.1,0.3,0.2,0.4,0.3c0.6,0.5,1.2,1.1,1.6,1.9c0.1,0.1,0.1,0.2,0.2,0.3c0,0,0,0.1,0.1,0.1c0.1,0.1,0.1,0.3,0.2,0.4
			c0.1,0.2,0.2,0.4,0.3,0.7C173.1,99.7,172.6,107.7,171.8,111.3z"/>
		<g>
			<path class="st9" d="M145.6,121c-7.8,0-14.1,6.3-14.1,14c1.6,0.3,3.2,0.5,4.8,0.8c0-0.2,0-0.5,0-0.7c0-5.1,4.2-9.3,9.3-9.3
				c1.1,0,2.3,0.2,3.3,0.6c0.3-1.7,0.6-3.3,0.9-4.8C148.5,121.2,147.1,121,145.6,121z"/>
			<path class="st9" d="M120.7,85.1c-1.5,0.1-3.1,0.2-4.8,0.3c-0.3,0-0.7,0-1,0.1c0.2,0.2,0.3,0.3,0.5,0.5c1.5,1.7,2.5,3.9,2.5,6.3
				c0,5.1-4.2,9.3-9.3,9.3c-1.7,0-3.3-0.5-4.6-1.2c-0.5-0.3-1-0.7-1.4-1c-2-1.7-3.2-4.2-3.2-7c0-2.2,0.7-4.1,2-5.7
				c-0.6,0.1-1.3,0.1-1.8,0.2c-0.4,0-0.8,0.1-1.1,0.1c-0.2,0-0.3,0-0.5,0c-0.2,0-0.4,0-0.6,0.1c-0.2,0-0.3,0-0.5,0
				c-0.2,0-0.4,0-0.6,0c-0.3,0-0.5,0-0.7,0.1c-0.7,1.6-1,3.4-1,5.2c0,3.9,1.6,7.4,4.1,10c0.7,0.7,1.5,1.3,2.3,1.8
				c2.2,1.4,4.8,2.3,7.7,2.3c7.8,0,14.1-6.3,14.1-14.1C122.7,89.6,122,87.2,120.7,85.1z"/>
			<path class="st9" d="M165.7,90.6c-0.3,2.6-2.2,4.6-4.6,5.2c-0.4,0.1-0.9,0.2-1.3,0.2c0,0-0.1,0-0.1,0c-3.4,0-6.1-2.7-6.1-6.1
				c0-0.3,0-0.7,0.1-1l-3.1-0.4c-0.1,0.5-0.1,0.9-0.1,1.4c0,5.1,4.1,9.3,9.3,9.3c0.5,0,1,0,1.6-0.1c0.1,0,0.3-0.1,0.4-0.1
				c3.4-0.8,6.2-3.4,7-6.9C167.6,91.3,166.4,90.9,165.7,90.6z"/>
			<path class="st9" d="M111.9,116.5c-5.1,0-9.3,4.2-9.3,9.3c0,0.6,0.1,1.3,0.2,1.9c1.3,0.4,2.5,0.8,3.8,1.2
				c-0.5-0.9-0.8-1.9-0.8-3.1c0-3.4,2.7-6.1,6.1-6.1c3.4,0,6.1,2.7,6.1,6.1c0,2.4-1.3,4.4-3.3,5.4c1.3,0.4,2.6,0.7,3.9,1
				c1.6-1.7,2.6-3.9,2.6-6.4C121.2,120.7,117,116.5,111.9,116.5z"/>
		</g>
		<linearGradient id="SVGID_9_" gradientUnits="userSpaceOnUse" x1="98.9972" y1="91.9504" x2="109.5715" y2="145.5346">
			<stop  offset="0" style="stop-color:#9275FF"/>
			<stop  offset="1" style="stop-color:#FFB3FF"/>
		</linearGradient>
		<path class="st10" d="M107.5,88.5c-0.4,8.6-5.1,17.4-13.2,19c-1.1-0.2-1.8-0.5-1.9-0.9c-0.7-2.3,2-7.1,1.2-11.7
			c-0.8-4.5-1.1-7.8,1-7.8c0.9,0,6.3-0.5,12.8-1.1C107.5,86.8,107.5,87.6,107.5,88.5z"/>
		<linearGradient id="SVGID_10_" gradientUnits="userSpaceOnUse" x1="163.8779" y1="95.9889" x2="199.9966" y2="143.87">
			<stop  offset="0" style="stop-color:#9275FF"/>
			<stop  offset="1" style="stop-color:#FFB3FF"/>
		</linearGradient>
		<path class="st11" d="M171.2,113.1c-0.2,0.1-1,0.2-2.2,0.4c-4.6-4.3-9-15.8-7.9-23.6l3.9,0.5c0,0,5.3,1.2,6.9,5.7
			C173.4,100.6,172.1,112.5,171.2,113.1z"/>
		<linearGradient id="SVGID_11_" gradientUnits="userSpaceOnUse" x1="135.676" y1="68.6352" x2="134.4879" y2="124.8332">
			<stop  offset="0" style="stop-color:#9275FF"/>
			<stop  offset="1" style="stop-color:#FFB3FF"/>
		</linearGradient>
		<path class="st12" d="M145.6,87.8c-1.2,3.8-4.1,9-10.5,9.1c-9.1,0.2-11.2-6-9.7-12.1c2.3-0.1,4.1,0,5.4,0.1l7.6,1.9L145.6,87.8z"
			/>
		<linearGradient id="SVGID_12_" gradientUnits="userSpaceOnUse" x1="138.4501" y1="114.0317" x2="142.0149" y2="39.8842">
			<stop  offset="0" style="stop-color:#2A1F31"/>
			<stop  offset="1" style="stop-color:#6A517F"/>
		</linearGradient>
		<path class="st13" d="M159.2,59.6c-0.4,0.8-1,1.7-1.4,2.5c-0.5,0.9-1.1,1.9-1.9,2.9c-1.8,2.5-4.2,5.4-6.2,7.8
			c-0.7,0.9-1.4,1.7-1.9,2.4c-2.7,3.4-5.6,6.3-8.6,3.7l-13.8-23.7c-1.6-2.8-2.5-6.4-2.6-9.9c-0.2-4.2,0.5-8.3,1.8-11.2
			c2.5,1.3,3.8,3.8,3.9,4.2c-0.1-0.3-0.8-3.9,0-6.5c3.1,2.5,33.7,5.8,28.8,21C161.4,54.6,160.7,57,159.2,59.6z"/>
		<linearGradient id="SVGID_13_" gradientUnits="userSpaceOnUse" x1="130.4352" y1="117.3419" x2="146.8313" y2="16.4706">
			<stop  offset="0" style="stop-color:#2A1F31"/>
			<stop  offset="1" style="stop-color:#6A517F"/>
		</linearGradient>
		<path class="st14" d="M159.2,59.6c-0.4,0.8-1,1.7-1.4,2.5c-0.5,0.9-1.1,1.9-1.9,2.9c-1.8,2.5-4.2,5.4-6.2,7.8
			c-0.7,0.9-1.4,1.7-1.9,2.4c-2.7,3.4-5.6,6.3-8.6,3.7l-13.8-23.7c-1.6-2.8-2.5-6.4-2.6-9.9c3,4.8,8.2,6.9,15.5,7.8
			c9.3,1.2,12.5-0.2,15,4.2C154.4,59.3,156.9,60,159.2,59.6z"/>
		<linearGradient id="SVGID_14_" gradientUnits="userSpaceOnUse" x1="149.7068" y1="54.9154" x2="118.9874" y2="117.1629">
			<stop  offset="0" style="stop-color:#FF7570"/>
			<stop  offset="1" style="stop-color:#FFBBBB"/>
		</linearGradient>
		<path class="st15" d="M128.9,79.9c-0.3,5.7-1.3,9.4-1.3,9.4s1.6,4.2,6.9,4.1c5.3-0.1,6.7-3.8,6.7-3.8s0.4-11.4,1.6-15L128.9,79.9z
			"/>
		<linearGradient id="SVGID_15_" gradientUnits="userSpaceOnUse" x1="171.648" y1="-6.3876" x2="131.0177" y2="75.9424">
			<stop  offset="0" style="stop-color:#FF7570"/>
			<stop  offset="1" style="stop-color:#FFBBBB"/>
		</linearGradient>
		<path class="st16" d="M151.5,68.8c-0.4,3.3-2.7,5.9-5,5.4c-5.3,9.1-12.5,9.3-16.2,8.6c-2.7-0.6-5.1-3-6.5-6.3
			c-0.5-1.3-0.9-2.6-1.1-4.1c-0.3-2.3-0.2-5.1,0.1-7.9c0.4-4,1.2-8.1,1.8-10.8c8.3,6.3,23.9,6.7,23.9,6.7s-1.1,1.3-1.8,3.1
			c-0.6,1.8-0.5,7.2-0.5,7.2s0.4-1.4,1.4-2.3S151.9,65.5,151.5,68.8z"/>
		<linearGradient id="SVGID_16_" gradientUnits="userSpaceOnUse" x1="163.3789" y1="36.3018" x2="82.8243" y2="104.4999">
			<stop  offset="0" style="stop-color:#FF7570"/>
			<stop  offset="1" style="stop-color:#FFBBBB"/>
		</linearGradient>
		<path class="st17" d="M123.8,76.4c-4.3,5.1-15.4,17.9-22.6,24.1c-3,2.5-6.9,3.8-10.7,3.2c-5.9-0.9-6.2-5.5-5.2-10.8
			c0-0.1,0-0.2,0.1-0.3c0,0,0,0,0,0c2-6.2,28.6-22.7,35.9-27.1c0.8-0.5,1.3-0.8,1.6-1c-0.3,2.8-0.4,5.6-0.1,7.9
			C122.9,73.8,123.3,75.2,123.8,76.4z"/>
		<linearGradient id="SVGID_17_" gradientUnits="userSpaceOnUse" x1="125.0387" y1="31.3884" x2="174.4644" y2="104.1011">
			<stop  offset="0" style="stop-color:#FF7570"/>
			<stop  offset="1" style="stop-color:#FFBBBB"/>
		</linearGradient>
		<path class="st18" d="M182.2,103.2c-0.7,5.4-2.4,9.6-8.3,8.7c-3.9-0.6-7.1-3.1-9.2-6.4c-0.4-0.6-0.7-1.2-1.1-1.9
			c-4.5-8.2-10.9-23.5-13.8-30.7c2-2.4,4.4-5.3,6.2-7.8c1.5,1.7,5.1,5.9,9.2,11.1v0C173,86,182.8,99.1,182.2,103.2z"/>
		<path class="st19" d="M131.4,65.5c-0.9,2.2-2.5,4.7-2.3,5.7c0.3,1,2.9,1,2.9,1"/>
		
			<linearGradient id="SVGID_18_" gradientUnits="userSpaceOnUse" x1="146.3648" y1="82.8875" x2="145.9193" y2="97.9474" gradientTransform="matrix(0.9959 9.000000e-02 -9.000000e-02 0.9959 5.648906e-02 -32.4292)">
			<stop  offset="0" style="stop-color:#2A1F31"/>
			<stop  offset="1" style="stop-color:#6A517F"/>
		</linearGradient>
		<path class="st20" d="M139.1,67.3c-0.1,1-0.7,1.7-1.4,1.6c-0.7-0.1-1.1-0.9-1-1.9c0.1-1,0.7-1.7,1.4-1.6
			C138.7,65.5,139.2,66.3,139.1,67.3z"/>
		
			<linearGradient id="SVGID_19_" gradientUnits="userSpaceOnUse" x1="135.0685" y1="82.1448" x2="134.623" y2="97.2052" gradientTransform="matrix(0.9959 9.000000e-02 -9.000000e-02 0.9959 5.648906e-02 -32.4292)">
			<stop  offset="0" style="stop-color:#2A1F31"/>
			<stop  offset="1" style="stop-color:#6A517F"/>
		</linearGradient>
		<path class="st21" d="M127.9,65.5c-0.1,1-0.7,1.7-1.4,1.6c-0.7-0.1-1.1-0.9-1-1.9c0.1-1,0.7-1.7,1.4-1.6
			C127.5,63.7,128,64.5,127.9,65.5z"/>
		<path class="st22" d="M125.4,61.6c0,0,1.9-1,3.4,0.5"/>
		<path class="st22" d="M137.1,63.1c0,0,2.1-0.7,3.3,1"/>
		<path class="st23" d="M130.5,77.1c1.8,1.8,4.7,1.2,5.3,0"/>
		<linearGradient id="SVGID_20_" gradientUnits="userSpaceOnUse" x1="194.0495" y1="131.8383" x2="142.5444" y2="58.4124">
			<stop  offset="0" style="stop-color:#FFBFAB"/>
			<stop  offset="1" style="stop-color:#FF8B88"/>
		</linearGradient>
		<path class="st24" d="M182.2,103.2c-0.7,5.4-2.4,9.6-8.3,8.7c-3.9-0.6-7.1-3.1-9.2-6.4c-0.4-0.6-0.7-1.2-1.1-1.9
			c0.9-0.2,2.4,0.8,4.3,2.8c3.2,3.2,8.3,4.3,10,0.6c1.8-3.7,2.5-6.9-2.4-13.5c-4.9-6.5-11.4-13.7-10.5-17.4
			C173,86,182.8,99.1,182.2,103.2z"/>
	</g>
	<linearGradient id="SVGID_21_" gradientUnits="userSpaceOnUse" x1="79.1099" y1="56.7533" x2="120.1001" y2="99.1692">
		<stop  offset="0" style="stop-color:#FFBFAB"/>
		<stop  offset="1" style="stop-color:#FF8B88"/>
	</linearGradient>
	<path class="st25" d="M123.8,76.4c-4.3,5.1-15.4,17.9-22.6,24.1c-3,2.5-6.9,3.8-10.7,3.2c-5.9-0.9-6.2-5.5-5.2-10.8
		c0-0.1,0-0.2,0.1-0.3c-0.7,4.8,0.9,8.6,10.1,8.2c11.6-0.5,25.7-25.1,25.8-29.6c0-1.7,0.1-3.8,0.1-5.8c0.8-0.5,1.3-0.8,1.6-1
		c-0.3,2.8-0.4,5.6-0.1,7.9C122.9,73.8,123.3,75.2,123.8,76.4z"/>
	<g>
		<g>
			<linearGradient id="SVGID_22_" gradientUnits="userSpaceOnUse" x1="12.2404" y1="81.3925" x2="39.0563" y2="113.3718">
				<stop  offset="0" style="stop-color:#2A1F31"/>
				<stop  offset="1" style="stop-color:#6A517F"/>
			</linearGradient>
			<path class="st26" d="M37.8,114.5c-1.5,0.1-2.9,0.3-4.3,0.5L13.3,80.5l3.5-2L37.8,114.5z"/>
		</g>
		<linearGradient id="SVGID_23_" gradientUnits="userSpaceOnUse" x1="88.0277" y1="214.0944" x2="6.8119" y2="24.3632">
			<stop  offset="0" style="stop-color:#FF227D"/>
			<stop  offset="1" style="stop-color:#FF967D"/>
		</linearGradient>
		<path class="st27" d="M68.8,73.5l-9.6,4.9L44.8,86l-18.1,9.3l-0.1,0.1h0l-3.5,1.8l-9.3,4.8L0,109.2V57.5l68.2,12
			C70.2,69.9,70.6,72.6,68.8,73.5z"/>
		<linearGradient id="SVGID_24_" gradientUnits="userSpaceOnUse" x1="79.0201" y1="129.1939" x2="-18.4058" y2="9.669">
			<stop  offset="3.409785e-07" style="stop-color:#671CC9"/>
			<stop  offset="1" style="stop-color:#6766C9"/>
		</linearGradient>
		<polygon class="st28" points="59.2,78.5 44.8,86 0,58.7 0,58 		"/>
		<linearGradient id="SVGID_25_" gradientUnits="userSpaceOnUse" x1="59.1439" y1="145.395" x2="-38.2819" y2="25.8702">
			<stop  offset="3.409785e-07" style="stop-color:#671CC9"/>
			<stop  offset="1" style="stop-color:#6766C9"/>
		</linearGradient>
		<polygon class="st29" points="26.8,95.3 26.6,95.4 26.6,95.4 23.1,97.2 13.8,102 0,64.4 0,60.5 14.7,79.7 26,94.3 26,94.3 		"/>
	</g>
	<linearGradient id="SVGID_26_" gradientUnits="userSpaceOnUse" x1="88.5136" y1="106.7619" x2="88.5136" y2="123.6926">
		<stop  offset="0" style="stop-color:#FF6D79"/>
		<stop  offset="1" style="stop-color:#FF8B88"/>
	</linearGradient>
	<path class="st30" d="M88.4,113.6c-1.3-0.2-2.9-0.3-2.6,0.3c0.3,0.6,1.3,1.7,1.3,1.7s-2.7,1.4-2.3,1.9c0.5,0.5,3.6-0.5,3.6-0.5
		s1.5,2.8,1.7,1.9c0.2-0.8,0.1-2.4,0.1-2.4s2-1,2.1-1.3c0.2-0.3-1.9-0.7-1.9-0.7s-0.1-1.5-0.3-1.5C89.8,112.9,88.4,113.6,88.4,113.6
		z"/>
	
		<linearGradient id="SVGID_27_" gradientUnits="userSpaceOnUse" x1="168.8923" y1="-5.3071" x2="168.8923" y2="11.6242" gradientTransform="matrix(0.868 -0.4965 0.4965 0.868 30.6197 202.8633)">
		<stop  offset="0" style="stop-color:#FF6D79"/>
		<stop  offset="1" style="stop-color:#FF8B88"/>
	</linearGradient>
	<path class="st31" d="M177.8,120.4c-1.2,0.5-2.7,1.2-2.1,1.6c0.6,0.4,1.9,0.8,1.9,0.8s-1.7,2.6-1,2.8c0.7,0.2,2.8-2.2,2.8-2.2
		s2.7,1.6,2.5,0.8c-0.3-0.8-1.1-2.1-1.1-2.1s1.2-1.8,1.2-2.2c0-0.3-2,0.3-2,0.3s-0.8-1.2-1-1.2C178.7,119.1,177.8,120.4,177.8,120.4
		z"/>
</g>
</svg>
