<?xml version="1.0" encoding="utf-8"?>
<!-- Generator: Adobe Illustrator 23.0.1, SVG Export Plug-In . SVG Version: 6.00 Build 0)  -->
<svg version="1.1" id="Layer_1" xmlns="http://www.w3.org/2000/svg" xmlns:xlink="http://www.w3.org/1999/xlink" x="0px" y="0px"
	 viewBox="0 0 198 190.3" style="enable-background:new 0 0 198 190.3;" xml:space="preserve">
<style type="text/css">
	.st0{opacity:0.59;clip-path:url(#SVGID_2_);fill:#121214;enable-background:new    ;}
	.st1{clip-path:url(#SVGID_4_);}
	.st2{clip-path:url(#SVGID_6_);fill:none;}
	.st3{opacity:0.59;clip-path:url(#SVGID_8_);fill:#3A3A3F;enable-background:new    ;}
	.st4{clip-path:url(#SVGID_10_);fill:none;}
	.st5{opacity:0.59;clip-path:url(#SVGID_12_);fill:#3A3A3F;enable-background:new    ;}
	.st6{clip-path:url(#SVGID_14_);fill:none;}
	.st7{opacity:0.59;clip-path:url(#SVGID_16_);fill:#3A3A3F;enable-background:new    ;}
	.st8{clip-path:url(#SVGID_18_);fill:none;}
	.st9{clip-path:url(#SVGID_20_);}
	.st10{fill:#F5F6F7;stroke:#2189FF;stroke-width:0.8542;stroke-linejoin:round;stroke-miterlimit:10;}
	.st11{fill:#5F6468;}
	.st12{fill:#797BF2;}
	.st13{fill:none;stroke:#5F6468;stroke-width:1.5;stroke-linejoin:round;stroke-miterlimit:10;}
	.st14{clip-path:url(#SVGID_22_);fill:none;}
	.st15{clip-path:url(#SVGID_24_);fill:#2189FF;}
	.st16{clip-path:url(#SVGID_26_);fill:none;}
	.st17{clip-path:url(#SVGID_28_);fill:#797BF2;}
	.st18{clip-path:url(#SVGID_30_);fill:none;}
	.st19{clip-path:url(#SVGID_32_);fill:#FFFFFF;}
	.st20{clip-path:url(#SVGID_34_);fill:none;}
	.st21{opacity:0.59;clip-path:url(#SVGID_36_);fill:#3A3A3F;enable-background:new    ;}
	.st22{fill:#FCD87E;}
</style>
<g>
	<g>
		<defs>
			<rect id="SVGID_1_" width="198" height="190.3"/>
		</defs>
		<clipPath id="SVGID_2_">
			<use xlink:href="#SVGID_1_"  style="overflow:visible;"/>
		</clipPath>
		<path class="st0" d="M198-45.7H0v222.1c42.7,8.8,84,15,119.5,13.7c23.9-0.9,50.6-5.3,78.5-11.5V-45.7z"/>
	</g>
	<g>
		<defs>
			<rect id="SVGID_3_" width="198" height="190.3"/>
		</defs>
		<clipPath id="SVGID_4_">
			<use xlink:href="#SVGID_3_"  style="overflow:visible;"/>
		</clipPath>
		<g class="st1">
			<g>
				<defs>
					<rect id="SVGID_5_" y="0" width="198" height="190.3"/>
				</defs>
				<clipPath id="SVGID_6_">
					<use xlink:href="#SVGID_5_"  style="overflow:visible;"/>
				</clipPath>
				<path class="st2" d="M198-45.7H0v222.1c42.7,8.8,84,15,119.5,13.7c23.9-0.9,50.6-5.3,78.5-11.5V-45.7z"/>
			</g>
			<g>
				<defs>
					<rect id="SVGID_7_" y="0" width="198" height="190.3"/>
				</defs>
				<clipPath id="SVGID_8_">
					<use xlink:href="#SVGID_7_"  style="overflow:visible;"/>
				</clipPath>
				<path class="st3" d="M26.4,102.6c-2.2,0-4.4,0.2-6.5,0.6C15.5,93,5.4,85.9-6.4,85.9c-15.8,0-28.6,12.8-28.6,28.6
					c0,0.5,0,1.1,0,1.6c-0.2,0-0.4,0-0.6,0c-14.7,0-26.6,11.9-26.6,26.6s11.9,26.6,26.6,26.6c0.2,0,0.3,0,0.5,0l0,0h61.5
					c18.4,0,33.3-14.9,33.3-33.3S44.8,102.6,26.4,102.6z"/>
			</g>
			<g>
				<defs>
					<rect id="SVGID_9_" y="0" width="198" height="190.3"/>
				</defs>
				<clipPath id="SVGID_10_">
					<use xlink:href="#SVGID_9_"  style="overflow:visible;"/>
				</clipPath>
				<path class="st4" d="M198-45.7H0v222.1c42.7,8.8,84,15,119.5,13.7c23.9-0.9,50.6-5.3,78.5-11.5V-45.7z"/>
			</g>
			<g>
				<defs>
					<rect id="SVGID_11_" y="0" width="198" height="190.3"/>
				</defs>
				<clipPath id="SVGID_12_">
					<use xlink:href="#SVGID_11_"  style="overflow:visible;"/>
				</clipPath>
				<path class="st5" d="M239.4-23.4c-2.2,0-4.4,0.2-6.5,0.6c-4.4-10.2-14.5-17.3-26.3-17.3c-15.8,0-28.6,12.8-28.6,28.6
					c0,0.5,0,1.1,0,1.6c-0.2,0-0.4,0-0.6,0c-14.7,0-26.6,11.9-26.6,26.6s11.9,26.6,26.6,26.6c0.2,0,0.3,0,0.5,0l0,0h61.5
					c18.4,0,33.3-14.9,33.3-33.3C272.7-8.4,257.8-23.4,239.4-23.4z"/>
			</g>
			<g>
				<defs>
					<rect id="SVGID_13_" y="0" width="198" height="190.3"/>
				</defs>
				<clipPath id="SVGID_14_">
					<use xlink:href="#SVGID_13_"  style="overflow:visible;"/>
				</clipPath>
				<path class="st6" d="M198-45.7H0v222.1c42.7,8.8,84,15,119.5,13.7c23.9-0.9,50.6-5.3,78.5-11.5V-45.7z"/>
			</g>
			<g>
				<defs>
					<rect id="SVGID_15_" y="0" width="198" height="190.3"/>
				</defs>
				<clipPath id="SVGID_16_">
					<use xlink:href="#SVGID_15_"  style="overflow:visible;"/>
				</clipPath>
				<path class="st7" d="M160.9,133.3c-1.5,0-2.8,0.4-4.1,1c-0.5-8.4-7.5-15-15.9-15c-8.8,0-16,7.2-16,16s7.2,16,16,16h20
					c5,0,9-4,9-9S165.9,133.3,160.9,133.3z"/>
			</g>
			<g>
				<defs>
					<rect id="SVGID_17_" y="0" width="198" height="190.3"/>
				</defs>
				<clipPath id="SVGID_18_">
					<use xlink:href="#SVGID_17_"  style="overflow:visible;"/>
				</clipPath>
				<path class="st8" d="M198-45.7H0v222.1c42.7,8.8,84,15,119.5,13.7c23.9-0.9,50.6-5.3,78.5-11.5V-45.7z"/>
			</g>
			<g>
				<defs>
					<rect id="SVGID_19_" y="0" width="198" height="190.3"/>
				</defs>
				<clipPath id="SVGID_20_">
					<use xlink:href="#SVGID_19_"  style="overflow:visible;"/>
				</clipPath>
				<g class="st9">
					<g>
						<path class="st10" d="M68.6,70.4c35.1-5.9,52.6-8.8,60.2-10.1c7.5-1.3,24.9,1.1,26,7.8c1.1,6.8-14.1,9.8-22.5,11.2
							c-8.3,1.4-46.6,6.4-53.1,7.5s-26.4,0-31-6.7c-4.7-6.7-12.5-21.7-12.5-21.7S44.4,55.6,50,61C55.4,66.5,65.4,70.9,68.6,70.4z"/>
						<path class="st11" d="M37.4,81.4c0.2,1.3,12.6,0.4,14.7,0s3.6-1.7,3.4-3.1c-0.2-1.3-2.1-2.2-4.2-1.8
							C49.3,76.9,37.2,80,37.4,81.4z"/>
						<path class="st12" d="M145.5,61.5c-0.3,0.1-8.9,1.5-8.9,1.5l3.1,3.4l12.4-2.1"/>
						<path class="st12" d="M124.2,68.7c0.1,1,1.2,1.7,2.2,1.6s1.7-1.2,1.6-2.2s-1.2-1.7-2.2-1.6C124.8,66.6,124,67.6,124.2,68.7z"
							/>
						<path class="st12" d="M116.2,70c0.1,1,1.2,1.7,2.2,1.6s1.7-1.2,1.6-2.2s-1.2-1.7-2.2-1.6C116.7,68,116.1,68.9,116.2,70z"/>
						<path class="st12" d="M108.2,71.3c0.1,1,1.2,1.7,2.2,1.6s1.7-1.2,1.6-2.2s-1.2-1.7-2.2-1.6C108.8,69.3,108,70.3,108.2,71.3z"
							/>
						<path class="st12" d="M100.2,72.7c0.1,1,1.2,1.7,2.2,1.6s1.7-1.2,1.6-2.2s-1.2-1.7-2.2-1.6C100.7,70.7,100,71.6,100.2,72.7z"
							/>
						<path class="st12" d="M92.2,74c0.1,1,1.2,1.7,2.2,1.6s1.7-1.2,1.6-2.2s-1.2-1.7-2.2-1.6C92.8,72,92,73,92.2,74z"/>
						<path class="st12" d="M84.2,75.4c0.1,1,1.2,1.7,2.2,1.6s1.7-1.2,1.6-2.2s-1.2-1.7-2.2-1.6C84.7,73.3,84,74.3,84.2,75.4z"/>
						<path class="st12" d="M76.2,76.7c0.1,1,1.2,1.7,2.2,1.6s1.7-1.2,1.6-2.2s-1.2-1.7-2.2-1.6C76.7,74.7,76,75.6,76.2,76.7z"/>
					</g>
					<g>
						<path class="st12" d="M54.7,84.5c7.9,2.8,19.7,3.2,24.4,2.5c6.5-1.1,44.8-6.1,53.1-7.5s23.7-4.5,22.5-11.2
							c0-0.1-0.1-0.3-0.1-0.4L54.7,84.5z"/>
					</g>
					<path class="st11" d="M84.9,87c0.2,1.3,24.7-1.6,28.9-2.4c4.2-0.7,8.9-2.5,8.6-3.8c-0.2-1.3-5.3-1.7-9.5-1
						C108.8,80.6,84.6,85.7,84.9,87z"/>
					<path class="st13" d="M68.6,70.4c35.1-5.9,52.6-8.8,60.2-10.1c7.5-1.3,24.9,1.1,26,7.8c1.1,6.8-14.1,9.8-22.5,11.2
						c-8.3,1.4-46.6,6.4-53.1,7.5s-26.4,0-31-6.7c-4.7-6.7-12.5-21.7-12.5-21.7S44.4,55.6,50,61C55.4,66.5,65.4,70.9,68.6,70.4z"/>
				</g>
			</g>
			<g>
				<defs>
					<rect id="SVGID_21_" y="0" width="198" height="190.3"/>
				</defs>
				<clipPath id="SVGID_22_">
					<use xlink:href="#SVGID_21_"  style="overflow:visible;"/>
				</clipPath>
				<path class="st14" d="M198-45.7H0v222.1c42.7,8.8,84,15,119.5,13.7c23.9-0.9,50.6-5.3,78.5-11.5V-45.7z"/>
			</g>
			<g>
				<defs>
					<rect id="SVGID_23_" y="0" width="198" height="190.3"/>
				</defs>
				<clipPath id="SVGID_24_">
					<use xlink:href="#SVGID_23_"  style="overflow:visible;"/>
				</clipPath>
				<circle class="st15" cx="40.9" cy="-5.7" r="4"/>
			</g>
			<g>
				<defs>
					<rect id="SVGID_25_" y="0" width="198" height="190.3"/>
				</defs>
				<clipPath id="SVGID_26_">
					<use xlink:href="#SVGID_25_"  style="overflow:visible;"/>
				</clipPath>
				<path class="st16" d="M198-45.7H0v222.1c42.7,8.8,84,15,119.5,13.7c23.9-0.9,50.6-5.3,78.5-11.5V-45.7z"/>
			</g>
			<g>
				<defs>
					<rect id="SVGID_27_" y="0" width="198" height="190.3"/>
				</defs>
				<clipPath id="SVGID_28_">
					<use xlink:href="#SVGID_27_"  style="overflow:visible;"/>
				</clipPath>
				<circle class="st17" cx="168.9" cy="111.3" r="4"/>
			</g>
			<g>
				<defs>
					<rect id="SVGID_29_" y="0" width="198" height="190.3"/>
				</defs>
				<clipPath id="SVGID_30_">
					<use xlink:href="#SVGID_29_"  style="overflow:visible;"/>
				</clipPath>
				<path class="st18" d="M198-45.7H0v222.1c42.7,8.8,84,15,119.5,13.7c23.9-0.9,50.6-5.3,78.5-11.5V-45.7z"/>
			</g>
			<g>
				<defs>
					<rect id="SVGID_31_" y="0" width="198" height="190.3"/>
				</defs>
				<clipPath id="SVGID_32_">
					<use xlink:href="#SVGID_31_"  style="overflow:visible;"/>
				</clipPath>
				<circle class="st19" cx="146.4" cy="-18.2" r="1.5"/>
			</g>
			<g>
				<defs>
					<rect id="SVGID_33_" y="0" width="198" height="190.3"/>
				</defs>
				<clipPath id="SVGID_34_">
					<use xlink:href="#SVGID_33_"  style="overflow:visible;"/>
				</clipPath>
				<path class="st20" d="M198-45.7H0v222.1c42.7,8.8,84,15,119.5,13.7c23.9-0.9,50.6-5.3,78.5-11.5V-45.7z"/>
			</g>
			<g>
				<defs>
					<rect id="SVGID_35_" y="0" width="198" height="190.3"/>
				</defs>
				<clipPath id="SVGID_36_">
					<use xlink:href="#SVGID_35_"  style="overflow:visible;"/>
				</clipPath>
				<circle class="st21" cx="83.4" cy="156.8" r="1.5"/>
			</g>
		</g>
	</g>
</g>
<path class="st22" d="M33,25.7c-3.2-3.3-3-8.6,0.2-11.7c-1.8,0.3-3.5,1.2-4.9,2.5c-4,3.8-4.1,10-0.3,14s10,4.1,14,0.3
	c1.4-1.4,2.3-3,2.8-4.8C41.4,29.2,36.1,29,33,25.7z"/>
</svg>
