<?xml version="1.0" encoding="utf-8"?>
<!-- Generator: Adobe Illustrator 23.0.1, SVG Export Plug-In . SVG Version: 6.00 Build 0)  -->
<svg version="1.1" id="Layer_1" xmlns="http://www.w3.org/2000/svg" xmlns:xlink="http://www.w3.org/1999/xlink" x="0px" y="0px"
	 viewBox="0 0 110 110" style="enable-background:new 0 0 110 110;" xml:space="preserve">
<style type="text/css">
	.st0{fill:#797BF2;}
	.st1{opacity:0.59;fill:#121214;enable-background:new    ;}
	.st2{opacity:0.59;fill:#3A3A3F;enable-background:new    ;}
	.st3{fill:url(#SVGID_1_);}
	.st4{fill:url(#SVGID_2_);}
	.st5{fill:url(#SVGID_3_);}
	.st6{opacity:0.15;fill:#FFFFFF;}
	.st7{fill:url(#SVGID_4_);}
	.st8{fill:url(#SVGID_5_);}
	.st9{opacity:0.15;}
	.st10{fill:url(#SVGID_6_);}
	.st11{fill:url(#SVGID_7_);}
	.st12{fill:url(#SVGID_8_);}
	.st13{fill:url(#SVGID_9_);}
	.st14{fill:url(#SVGID_10_);}
	.st15{fill:url(#SVGID_11_);}
	.st16{fill:url(#SVGID_12_);}
	.st17{fill:url(#SVGID_13_);}
	.st18{fill:url(#SVGID_14_);}
	.st19{fill:url(#SVGID_15_);}
	.st20{fill:url(#SVGID_16_);}
	.st21{fill:url(#SVGID_17_);}
	.st22{fill:url(#SVGID_18_);}
	.st23{opacity:0.15;fill:none;stroke:#000000;stroke-linecap:round;stroke-linejoin:round;stroke-miterlimit:10;}
	.st24{fill:#FEFEC6;}
</style>
<g>
	<path class="st0" d="M14.8,7.1c-0.3,0-0.6,0.3-0.6,0.6c0,0.3,0.3,0.6,0.6,0.6c0.3,0,0.6-0.3,0.6-0.6C15.4,7.4,15.2,7.1,14.8,7.1z"
		/>
	<circle class="st0" cx="19.7" cy="7.7" r="0.6"/>
	<path class="st0" d="M24.5,7.1c-0.3,0-0.6,0.3-0.6,0.6c0,0.3,0.3,0.6,0.6,0.6c0.3,0,0.6-0.3,0.6-0.6C25.1,7.4,24.8,7.1,24.5,7.1z"
		/>
	<path class="st0" d="M29.3,7.1c-0.3,0-0.6,0.3-0.6,0.6c0,0.3,0.3,0.6,0.6,0.6c0.3,0,0.6-0.3,0.6-0.6C29.9,7.4,29.7,7.1,29.3,7.1z"
		/>
	<path class="st0" d="M34.2,7.1c-0.3,0-0.6,0.3-0.6,0.6c0,0.3,0.3,0.6,0.6,0.6c0.3,0,0.6-0.3,0.6-0.6C34.8,7.4,34.5,7.1,34.2,7.1z"
		/>
	<path class="st0" d="M39,7.1c-0.3,0-0.6,0.3-0.6,0.6c0,0.3,0.3,0.6,0.6,0.6c0.3,0,0.6-0.3,0.6-0.6C39.6,7.4,39.3,7.1,39,7.1z"/>
	<path class="st0" d="M43.8,8.3c0.3,0,0.6-0.3,0.6-0.6c0-0.3-0.3-0.6-0.6-0.6c-0.3,0-0.6,0.3-0.6,0.6C43.3,8,43.5,8.3,43.8,8.3z"/>
	<path class="st0" d="M14.8,11.3c-0.3,0-0.6,0.3-0.6,0.6c0,0.3,0.3,0.6,0.6,0.6c0.3,0,0.6-0.3,0.6-0.6
		C15.4,11.6,15.2,11.3,14.8,11.3z"/>
	<path class="st0" d="M19.7,11.3c-0.3,0-0.6,0.3-0.6,0.6c0,0.3,0.3,0.6,0.6,0.6c0.3,0,0.6-0.3,0.6-0.6C20.3,11.6,20,11.3,19.7,11.3z
		"/>
	<path class="st0" d="M24.5,11.3c-0.3,0-0.6,0.3-0.6,0.6c0,0.3,0.3,0.6,0.6,0.6c0.3,0,0.6-0.3,0.6-0.6
		C25.1,11.6,24.8,11.3,24.5,11.3z"/>
	<path class="st0" d="M29.3,11.3c-0.3,0-0.6,0.3-0.6,0.6c0,0.3,0.3,0.6,0.6,0.6c0.3,0,0.6-0.3,0.6-0.6
		C29.9,11.6,29.7,11.3,29.3,11.3z"/>
	<path class="st0" d="M34.2,11.3c-0.3,0-0.6,0.3-0.6,0.6c0,0.3,0.3,0.6,0.6,0.6c0.3,0,0.6-0.3,0.6-0.6
		C34.8,11.6,34.5,11.3,34.2,11.3z"/>
	<path class="st0" d="M39,11.3c-0.3,0-0.6,0.3-0.6,0.6c0,0.3,0.3,0.6,0.6,0.6c0.3,0,0.6-0.3,0.6-0.6C39.6,11.6,39.3,11.3,39,11.3z"
		/>
	<path class="st0" d="M43.8,11.3c-0.3,0-0.6,0.3-0.6,0.6c0,0.3,0.3,0.6,0.6,0.6c0.3,0,0.6-0.3,0.6-0.6
		C44.4,11.6,44.2,11.3,43.8,11.3z"/>
	<path class="st0" d="M14.8,15.5c-0.3,0-0.6,0.3-0.6,0.6c0,0.3,0.3,0.6,0.6,0.6c0.3,0,0.6-0.3,0.6-0.6
		C15.4,15.8,15.2,15.5,14.8,15.5z"/>
	<path class="st0" d="M19.7,15.5c-0.3,0-0.6,0.3-0.6,0.6c0,0.3,0.3,0.6,0.6,0.6c0.3,0,0.6-0.3,0.6-0.6C20.3,15.8,20,15.5,19.7,15.5z
		"/>
	<path class="st0" d="M24.5,15.5c-0.3,0-0.6,0.3-0.6,0.6c0,0.3,0.3,0.6,0.6,0.6c0.3,0,0.6-0.3,0.6-0.6
		C25.1,15.8,24.8,15.5,24.5,15.5z"/>
	<path class="st0" d="M29.3,15.5c-0.3,0-0.6,0.3-0.6,0.6c0,0.3,0.3,0.6,0.6,0.6c0.3,0,0.6-0.3,0.6-0.6
		C29.9,15.8,29.7,15.5,29.3,15.5z"/>
	<path class="st0" d="M34.2,15.5c-0.3,0-0.6,0.3-0.6,0.6c0,0.3,0.3,0.6,0.6,0.6c0.3,0,0.6-0.3,0.6-0.6
		C34.8,15.8,34.5,15.5,34.2,15.5z"/>
	<path class="st0" d="M39,15.5c-0.3,0-0.6,0.3-0.6,0.6c0,0.3,0.3,0.6,0.6,0.6c0.3,0,0.6-0.3,0.6-0.6C39.6,15.8,39.3,15.5,39,15.5z"
		/>
	<path class="st0" d="M43.8,15.5c-0.3,0-0.6,0.3-0.6,0.6c0,0.3,0.3,0.6,0.6,0.6c0.3,0,0.6-0.3,0.6-0.6
		C44.4,15.8,44.2,15.5,43.8,15.5z"/>
	<path class="st0" d="M14.8,19.7c-0.3,0-0.6,0.3-0.6,0.6c0,0.3,0.3,0.6,0.6,0.6c0.3,0,0.6-0.3,0.6-0.6C15.4,20,15.2,19.7,14.8,19.7z
		"/>
	<path class="st0" d="M19.7,19.7c-0.3,0-0.6,0.3-0.6,0.6c0,0.3,0.3,0.6,0.6,0.6c0.3,0,0.6-0.3,0.6-0.6C20.3,20,20,19.7,19.7,19.7z"
		/>
	<path class="st0" d="M24.5,19.7c-0.3,0-0.6,0.3-0.6,0.6c0,0.3,0.3,0.6,0.6,0.6c0.3,0,0.6-0.3,0.6-0.6C25.1,20,24.8,19.7,24.5,19.7z
		"/>
	<path class="st0" d="M29.3,19.7c-0.3,0-0.6,0.3-0.6,0.6c0,0.3,0.3,0.6,0.6,0.6c0.3,0,0.6-0.3,0.6-0.6C29.9,20,29.7,19.7,29.3,19.7z
		"/>
	<path class="st0" d="M34.2,19.7c-0.3,0-0.6,0.3-0.6,0.6c0,0.3,0.3,0.6,0.6,0.6c0.3,0,0.6-0.3,0.6-0.6C34.8,20,34.5,19.7,34.2,19.7z
		"/>
	<path class="st0" d="M39,19.7c-0.3,0-0.6,0.3-0.6,0.6c0,0.3,0.3,0.6,0.6,0.6c0.3,0,0.6-0.3,0.6-0.6C39.6,20,39.3,19.7,39,19.7z"/>
	<path class="st0" d="M43.8,19.7c-0.3,0-0.6,0.3-0.6,0.6c0,0.3,0.3,0.6,0.6,0.6c0.3,0,0.6-0.3,0.6-0.6C44.4,20,44.2,19.7,43.8,19.7z
		"/>
	<path class="st0" d="M14.8,23.9c-0.3,0-0.6,0.3-0.6,0.6c0,0.3,0.3,0.6,0.6,0.6c0.3,0,0.6-0.3,0.6-0.6
		C15.4,24.2,15.2,23.9,14.8,23.9z"/>
	<path class="st0" d="M19.7,23.9c-0.3,0-0.6,0.3-0.6,0.6c0,0.3,0.3,0.6,0.6,0.6c0.3,0,0.6-0.3,0.6-0.6C20.3,24.2,20,23.9,19.7,23.9z
		"/>
	<path class="st0" d="M24.5,23.9c-0.3,0-0.6,0.3-0.6,0.6c0,0.3,0.3,0.6,0.6,0.6c0.3,0,0.6-0.3,0.6-0.6
		C25.1,24.2,24.8,23.9,24.5,23.9z"/>
	<path class="st0" d="M29.3,23.9c-0.3,0-0.6,0.3-0.6,0.6c0,0.3,0.3,0.6,0.6,0.6c0.3,0,0.6-0.3,0.6-0.6
		C29.9,24.2,29.7,23.9,29.3,23.9z"/>
	<path class="st0" d="M34.2,23.9c-0.3,0-0.6,0.3-0.6,0.6c0,0.3,0.3,0.6,0.6,0.6c0.3,0,0.6-0.3,0.6-0.6
		C34.8,24.2,34.5,23.9,34.2,23.9z"/>
	<path class="st0" d="M39,23.9c-0.3,0-0.6,0.3-0.6,0.6c0,0.3,0.3,0.6,0.6,0.6c0.3,0,0.6-0.3,0.6-0.6C39.6,24.2,39.3,23.9,39,23.9z"
		/>
	<path class="st0" d="M43.8,23.9c-0.3,0-0.6,0.3-0.6,0.6c0,0.3,0.3,0.6,0.6,0.6c0.3,0,0.6-0.3,0.6-0.6
		C44.4,24.2,44.2,23.9,43.8,23.9z"/>
	<path class="st0" d="M14.8,28.2c-0.3,0-0.6,0.3-0.6,0.6c0,0.3,0.3,0.6,0.6,0.6c0.3,0,0.6-0.3,0.6-0.6
		C15.4,28.4,15.2,28.2,14.8,28.2z"/>
	<circle class="st0" cx="19.7" cy="28.7" r="0.6"/>
	<path class="st0" d="M24.5,28.2c-0.3,0-0.6,0.3-0.6,0.6c0,0.3,0.3,0.6,0.6,0.6c0.3,0,0.6-0.3,0.6-0.6
		C25.1,28.4,24.8,28.2,24.5,28.2z"/>
	<path class="st0" d="M29.3,28.2c-0.3,0-0.6,0.3-0.6,0.6c0,0.3,0.3,0.6,0.6,0.6c0.3,0,0.6-0.3,0.6-0.6
		C29.9,28.4,29.7,28.2,29.3,28.2z"/>
	<path class="st0" d="M34.2,28.2c-0.3,0-0.6,0.3-0.6,0.6c0,0.3,0.3,0.6,0.6,0.6c0.3,0,0.6-0.3,0.6-0.6
		C34.8,28.4,34.5,28.2,34.2,28.2z"/>
	<path class="st0" d="M39,28.2c-0.3,0-0.6,0.3-0.6,0.6c0,0.3,0.3,0.6,0.6,0.6c0.3,0,0.6-0.3,0.6-0.6C39.6,28.4,39.3,28.2,39,28.2z"
		/>
	<path class="st0" d="M43.8,28.2c-0.3,0-0.6,0.3-0.6,0.6c0,0.3,0.3,0.6,0.6,0.6c0.3,0,0.6-0.3,0.6-0.6
		C44.4,28.4,44.2,28.2,43.8,28.2z"/>
	<path class="st0" d="M14.8,32.4c-0.3,0-0.6,0.3-0.6,0.6s0.3,0.6,0.6,0.6c0.3,0,0.6-0.3,0.6-0.6S15.2,32.4,14.8,32.4z"/>
	<circle class="st0" cx="19.7" cy="33" r="0.6"/>
	<path class="st0" d="M24.5,32.4c-0.3,0-0.6,0.3-0.6,0.6s0.3,0.6,0.6,0.6c0.3,0,0.6-0.3,0.6-0.6S24.8,32.4,24.5,32.4z"/>
	<path class="st0" d="M29.3,32.4c-0.3,0-0.6,0.3-0.6,0.6s0.3,0.6,0.6,0.6c0.3,0,0.6-0.3,0.6-0.6S29.7,32.4,29.3,32.4z"/>
	<path class="st0" d="M34.2,32.4c-0.3,0-0.6,0.3-0.6,0.6s0.3,0.6,0.6,0.6c0.3,0,0.6-0.3,0.6-0.6S34.5,32.4,34.2,32.4z"/>
	<path class="st0" d="M39,32.4c-0.3,0-0.6,0.3-0.6,0.6s0.3,0.6,0.6,0.6c0.3,0,0.6-0.3,0.6-0.6S39.3,32.4,39,32.4z"/>
	<path class="st0" d="M43.8,32.4c-0.3,0-0.6,0.3-0.6,0.6s0.3,0.6,0.6,0.6c0.3,0,0.6-0.3,0.6-0.6S44.2,32.4,43.8,32.4z"/>
	<path class="st0" d="M14.8,36.6c-0.3,0-0.6,0.3-0.6,0.6s0.3,0.6,0.6,0.6c0.3,0,0.6-0.3,0.6-0.6S15.2,36.6,14.8,36.6z"/>
	<circle class="st0" cx="19.7" cy="37.2" r="0.6"/>
	<path class="st0" d="M24.5,36.6c-0.3,0-0.6,0.3-0.6,0.6s0.3,0.6,0.6,0.6c0.3,0,0.6-0.3,0.6-0.6S24.8,36.6,24.5,36.6z"/>
	<path class="st0" d="M29.3,36.6c-0.3,0-0.6,0.3-0.6,0.6s0.3,0.6,0.6,0.6c0.3,0,0.6-0.3,0.6-0.6S29.7,36.6,29.3,36.6z"/>
	<path class="st0" d="M34.2,36.6c-0.3,0-0.6,0.3-0.6,0.6s0.3,0.6,0.6,0.6c0.3,0,0.6-0.3,0.6-0.6S34.5,36.6,34.2,36.6z"/>
	<path class="st0" d="M39,36.6c-0.3,0-0.6,0.3-0.6,0.6s0.3,0.6,0.6,0.6c0.3,0,0.6-0.3,0.6-0.6S39.3,36.6,39,36.6z"/>
	<path class="st0" d="M43.8,36.6c-0.3,0-0.6,0.3-0.6,0.6s0.3,0.6,0.6,0.6c0.3,0,0.6-0.3,0.6-0.6S44.2,36.6,43.8,36.6z"/>
</g>
<g>
	<path class="st0" d="M70.5,58.8c-0.3,0-0.6,0.3-0.6,0.6c0,0.3,0.3,0.6,0.6,0.6c0.3,0,0.6-0.3,0.6-0.6C71.1,59,70.8,58.8,70.5,58.8z
		"/>
	<path class="st0" d="M75.3,58.8c-0.3,0-0.6,0.3-0.6,0.6c0,0.3,0.3,0.6,0.6,0.6c0.3,0,0.6-0.3,0.6-0.6C75.9,59,75.7,58.8,75.3,58.8z
		"/>
	<path class="st0" d="M80.2,58.8c-0.3,0-0.6,0.3-0.6,0.6c0,0.3,0.3,0.6,0.6,0.6c0.3,0,0.6-0.3,0.6-0.6C80.8,59,80.5,58.8,80.2,58.8z
		"/>
	<path class="st0" d="M85,58.8c-0.3,0-0.6,0.3-0.6,0.6c0,0.3,0.3,0.6,0.6,0.6c0.3,0,0.6-0.3,0.6-0.6C85.6,59,85.3,58.8,85,58.8z"/>
	<path class="st0" d="M89.8,58.8c-0.3,0-0.6,0.3-0.6,0.6c0,0.3,0.3,0.6,0.6,0.6c0.3,0,0.6-0.3,0.6-0.6C90.4,59,90.2,58.8,89.8,58.8z
		"/>
	<path class="st0" d="M94.7,58.8c-0.3,0-0.6,0.3-0.6,0.6c0,0.3,0.3,0.6,0.6,0.6c0.3,0,0.6-0.3,0.6-0.6C95.3,59,95,58.8,94.7,58.8z"
		/>
	<path class="st0" d="M99.5,59.9c0.3,0,0.6-0.3,0.6-0.6c0-0.3-0.3-0.6-0.6-0.6s-0.6,0.3-0.6,0.6C98.9,59.6,99.2,59.9,99.5,59.9z"/>
	<path class="st0" d="M70.5,63c-0.3,0-0.6,0.3-0.6,0.6c0,0.3,0.3,0.6,0.6,0.6c0.3,0,0.6-0.3,0.6-0.6C71.1,63.2,70.8,63,70.5,63z"/>
	<path class="st0" d="M75.3,63c-0.3,0-0.6,0.3-0.6,0.6c0,0.3,0.3,0.6,0.6,0.6c0.3,0,0.6-0.3,0.6-0.6C75.9,63.2,75.7,63,75.3,63z"/>
	<path class="st0" d="M80.2,63c-0.3,0-0.6,0.3-0.6,0.6c0,0.3,0.3,0.6,0.6,0.6c0.3,0,0.6-0.3,0.6-0.6C80.8,63.2,80.5,63,80.2,63z"/>
	<path class="st0" d="M85,63c-0.3,0-0.6,0.3-0.6,0.6c0,0.3,0.3,0.6,0.6,0.6c0.3,0,0.6-0.3,0.6-0.6C85.6,63.2,85.3,63,85,63z"/>
	<path class="st0" d="M89.8,63c-0.3,0-0.6,0.3-0.6,0.6c0,0.3,0.3,0.6,0.6,0.6c0.3,0,0.6-0.3,0.6-0.6C90.4,63.2,90.2,63,89.8,63z"/>
	<path class="st0" d="M94.7,63c-0.3,0-0.6,0.3-0.6,0.6c0,0.3,0.3,0.6,0.6,0.6c0.3,0,0.6-0.3,0.6-0.6C95.3,63.2,95,63,94.7,63z"/>
	<path class="st0" d="M99.5,63c-0.3,0-0.6,0.3-0.6,0.6c0,0.3,0.3,0.6,0.6,0.6s0.6-0.3,0.6-0.6C100.1,63.2,99.8,63,99.5,63z"/>
	<path class="st0" d="M70.5,67.2c-0.3,0-0.6,0.3-0.6,0.6c0,0.3,0.3,0.6,0.6,0.6c0.3,0,0.6-0.3,0.6-0.6
		C71.1,67.4,70.8,67.2,70.5,67.2z"/>
	<path class="st0" d="M75.3,67.2c-0.3,0-0.6,0.3-0.6,0.6c0,0.3,0.3,0.6,0.6,0.6c0.3,0,0.6-0.3,0.6-0.6
		C75.9,67.4,75.7,67.2,75.3,67.2z"/>
	<path class="st0" d="M80.2,67.2c-0.3,0-0.6,0.3-0.6,0.6c0,0.3,0.3,0.6,0.6,0.6c0.3,0,0.6-0.3,0.6-0.6
		C80.8,67.4,80.5,67.2,80.2,67.2z"/>
	<path class="st0" d="M85,67.2c-0.3,0-0.6,0.3-0.6,0.6c0,0.3,0.3,0.6,0.6,0.6c0.3,0,0.6-0.3,0.6-0.6C85.6,67.4,85.3,67.2,85,67.2z"
		/>
	<path class="st0" d="M89.8,67.2c-0.3,0-0.6,0.3-0.6,0.6c0,0.3,0.3,0.6,0.6,0.6c0.3,0,0.6-0.3,0.6-0.6
		C90.4,67.4,90.2,67.2,89.8,67.2z"/>
	<path class="st0" d="M94.7,67.2c-0.3,0-0.6,0.3-0.6,0.6c0,0.3,0.3,0.6,0.6,0.6c0.3,0,0.6-0.3,0.6-0.6C95.3,67.4,95,67.2,94.7,67.2z
		"/>
	<path class="st0" d="M99.5,67.2c-0.3,0-0.6,0.3-0.6,0.6c0,0.3,0.3,0.6,0.6,0.6s0.6-0.3,0.6-0.6C100.1,67.4,99.8,67.2,99.5,67.2z"/>
	<path class="st0" d="M70.5,71.4c-0.3,0-0.6,0.3-0.6,0.6c0,0.3,0.3,0.6,0.6,0.6c0.3,0,0.6-0.3,0.6-0.6
		C71.1,71.6,70.8,71.4,70.5,71.4z"/>
	<path class="st0" d="M75.3,71.4c-0.3,0-0.6,0.3-0.6,0.6c0,0.3,0.3,0.6,0.6,0.6c0.3,0,0.6-0.3,0.6-0.6
		C75.9,71.6,75.7,71.4,75.3,71.4z"/>
	<path class="st0" d="M80.2,71.4c-0.3,0-0.6,0.3-0.6,0.6c0,0.3,0.3,0.6,0.6,0.6c0.3,0,0.6-0.3,0.6-0.6
		C80.8,71.6,80.5,71.4,80.2,71.4z"/>
	<path class="st0" d="M85,71.4c-0.3,0-0.6,0.3-0.6,0.6c0,0.3,0.3,0.6,0.6,0.6c0.3,0,0.6-0.3,0.6-0.6C85.6,71.6,85.3,71.4,85,71.4z"
		/>
	<path class="st0" d="M89.8,71.4c-0.3,0-0.6,0.3-0.6,0.6c0,0.3,0.3,0.6,0.6,0.6c0.3,0,0.6-0.3,0.6-0.6
		C90.4,71.6,90.2,71.4,89.8,71.4z"/>
	<path class="st0" d="M94.7,71.4c-0.3,0-0.6,0.3-0.6,0.6c0,0.3,0.3,0.6,0.6,0.6c0.3,0,0.6-0.3,0.6-0.6C95.3,71.6,95,71.4,94.7,71.4z
		"/>
	<path class="st0" d="M99.5,71.4c-0.3,0-0.6,0.3-0.6,0.6c0,0.3,0.3,0.6,0.6,0.6s0.6-0.3,0.6-0.6C100.1,71.6,99.8,71.4,99.5,71.4z"/>
	<path class="st0" d="M70.5,75.6c-0.3,0-0.6,0.3-0.6,0.6c0,0.3,0.3,0.6,0.6,0.6c0.3,0,0.6-0.3,0.6-0.6
		C71.1,75.9,70.8,75.6,70.5,75.6z"/>
	<path class="st0" d="M75.3,75.6c-0.3,0-0.6,0.3-0.6,0.6c0,0.3,0.3,0.6,0.6,0.6c0.3,0,0.6-0.3,0.6-0.6
		C75.9,75.9,75.7,75.6,75.3,75.6z"/>
	<path class="st0" d="M80.2,75.6c-0.3,0-0.6,0.3-0.6,0.6c0,0.3,0.3,0.6,0.6,0.6c0.3,0,0.6-0.3,0.6-0.6
		C80.8,75.9,80.5,75.6,80.2,75.6z"/>
	<path class="st0" d="M85,75.6c-0.3,0-0.6,0.3-0.6,0.6c0,0.3,0.3,0.6,0.6,0.6c0.3,0,0.6-0.3,0.6-0.6C85.6,75.9,85.3,75.6,85,75.6z"
		/>
	<path class="st0" d="M89.8,75.6c-0.3,0-0.6,0.3-0.6,0.6c0,0.3,0.3,0.6,0.6,0.6c0.3,0,0.6-0.3,0.6-0.6
		C90.4,75.9,90.2,75.6,89.8,75.6z"/>
	<path class="st0" d="M94.7,75.6c-0.3,0-0.6,0.3-0.6,0.6c0,0.3,0.3,0.6,0.6,0.6c0.3,0,0.6-0.3,0.6-0.6C95.3,75.9,95,75.6,94.7,75.6z
		"/>
	<path class="st0" d="M99.5,75.6c-0.3,0-0.6,0.3-0.6,0.6c0,0.3,0.3,0.6,0.6,0.6s0.6-0.3,0.6-0.6C100.1,75.9,99.8,75.6,99.5,75.6z"/>
	<path class="st0" d="M70.5,79.8c-0.3,0-0.6,0.3-0.6,0.6c0,0.3,0.3,0.6,0.6,0.6c0.3,0,0.6-0.3,0.6-0.6
		C71.1,80.1,70.8,79.8,70.5,79.8z"/>
	<path class="st0" d="M75.3,79.8c-0.3,0-0.6,0.3-0.6,0.6c0,0.3,0.3,0.6,0.6,0.6c0.3,0,0.6-0.3,0.6-0.6
		C75.9,80.1,75.7,79.8,75.3,79.8z"/>
	<path class="st0" d="M80.2,79.8c-0.3,0-0.6,0.3-0.6,0.6c0,0.3,0.3,0.6,0.6,0.6c0.3,0,0.6-0.3,0.6-0.6
		C80.8,80.1,80.5,79.8,80.2,79.8z"/>
	<path class="st0" d="M85,79.8c-0.3,0-0.6,0.3-0.6,0.6c0,0.3,0.3,0.6,0.6,0.6c0.3,0,0.6-0.3,0.6-0.6C85.6,80.1,85.3,79.8,85,79.8z"
		/>
	<path class="st0" d="M89.8,79.8c-0.3,0-0.6,0.3-0.6,0.6c0,0.3,0.3,0.6,0.6,0.6c0.3,0,0.6-0.3,0.6-0.6
		C90.4,80.1,90.2,79.8,89.8,79.8z"/>
	<path class="st0" d="M94.7,79.8c-0.3,0-0.6,0.3-0.6,0.6c0,0.3,0.3,0.6,0.6,0.6c0.3,0,0.6-0.3,0.6-0.6C95.3,80.1,95,79.8,94.7,79.8z
		"/>
	<path class="st0" d="M99.5,79.8c-0.3,0-0.6,0.3-0.6,0.6c0,0.3,0.3,0.6,0.6,0.6s0.6-0.3,0.6-0.6C100.1,80.1,99.8,79.8,99.5,79.8z"/>
	<path class="st0" d="M70.5,84c-0.3,0-0.6,0.3-0.6,0.6c0,0.3,0.3,0.6,0.6,0.6c0.3,0,0.6-0.3,0.6-0.6C71.1,84.3,70.8,84,70.5,84z"/>
	<path class="st0" d="M75.3,84c-0.3,0-0.6,0.3-0.6,0.6c0,0.3,0.3,0.6,0.6,0.6c0.3,0,0.6-0.3,0.6-0.6C75.9,84.3,75.7,84,75.3,84z"/>
	<path class="st0" d="M80.2,84c-0.3,0-0.6,0.3-0.6,0.6c0,0.3,0.3,0.6,0.6,0.6c0.3,0,0.6-0.3,0.6-0.6C80.8,84.3,80.5,84,80.2,84z"/>
	<path class="st0" d="M85,84c-0.3,0-0.6,0.3-0.6,0.6c0,0.3,0.3,0.6,0.6,0.6c0.3,0,0.6-0.3,0.6-0.6C85.6,84.3,85.3,84,85,84z"/>
	<path class="st0" d="M89.8,84c-0.3,0-0.6,0.3-0.6,0.6c0,0.3,0.3,0.6,0.6,0.6c0.3,0,0.6-0.3,0.6-0.6C90.4,84.3,90.2,84,89.8,84z"/>
	<path class="st0" d="M94.7,84c-0.3,0-0.6,0.3-0.6,0.6c0,0.3,0.3,0.6,0.6,0.6c0.3,0,0.6-0.3,0.6-0.6C95.3,84.3,95,84,94.7,84z"/>
	<path class="st0" d="M99.5,84c-0.3,0-0.6,0.3-0.6,0.6c0,0.3,0.3,0.6,0.6,0.6s0.6-0.3,0.6-0.6C100.1,84.3,99.8,84,99.5,84z"/>
	<path class="st0" d="M70.5,88.2c-0.3,0-0.6,0.3-0.6,0.6c0,0.3,0.3,0.6,0.6,0.6c0.3,0,0.6-0.3,0.6-0.6
		C71.1,88.5,70.8,88.2,70.5,88.2z"/>
	<path class="st0" d="M75.3,88.2c-0.3,0-0.6,0.3-0.6,0.6c0,0.3,0.3,0.6,0.6,0.6c0.3,0,0.6-0.3,0.6-0.6
		C75.9,88.5,75.7,88.2,75.3,88.2z"/>
	<path class="st0" d="M80.2,88.2c-0.3,0-0.6,0.3-0.6,0.6c0,0.3,0.3,0.6,0.6,0.6c0.3,0,0.6-0.3,0.6-0.6
		C80.8,88.5,80.5,88.2,80.2,88.2z"/>
	<path class="st0" d="M85,88.2c-0.3,0-0.6,0.3-0.6,0.6c0,0.3,0.3,0.6,0.6,0.6c0.3,0,0.6-0.3,0.6-0.6C85.6,88.5,85.3,88.2,85,88.2z"
		/>
	<path class="st0" d="M89.8,88.2c-0.3,0-0.6,0.3-0.6,0.6c0,0.3,0.3,0.6,0.6,0.6c0.3,0,0.6-0.3,0.6-0.6
		C90.4,88.5,90.2,88.2,89.8,88.2z"/>
	<path class="st0" d="M94.7,88.2c-0.3,0-0.6,0.3-0.6,0.6c0,0.3,0.3,0.6,0.6,0.6c0.3,0,0.6-0.3,0.6-0.6C95.3,88.5,95,88.2,94.7,88.2z
		"/>
	<path class="st0" d="M99.5,88.2c-0.3,0-0.6,0.3-0.6,0.6c0,0.3,0.3,0.6,0.6,0.6s0.6-0.3,0.6-0.6C100.1,88.5,99.8,88.2,99.5,88.2z"/>
</g>
<g>
	<path class="st1" d="M96.9,48.2c0,3-0.3,5.9-1,8.8c-0.1,0.5-0.2,1-0.4,1.5c-0.1,0.4-0.2,0.8-0.3,1.1c-0.1,0.4-0.3,0.9-0.4,1.3
		c0,0,0,0.1,0,0.1c-0.1,0.3-0.2,0.7-0.3,1c-0.1,0.2-0.2,0.5-0.3,0.7c-0.1,0.2-0.1,0.3-0.2,0.5c-0.1,0.2-0.2,0.4-0.2,0.6
		c-0.1,0.4-0.3,0.7-0.5,1.1c-0.5,1.2-1.1,2.3-1.7,3.4c0,0,0,0,0,0c-0.9,1.6-2,3.2-3.2,4.7c-0.1,0.1-0.2,0.3-0.3,0.4
		c-0.2,0.2-0.4,0.5-0.6,0.7c-0.8,0.9-1.6,1.8-2.4,2.6c-0.9,0.9-1.9,1.8-2.9,2.6c-0.8,0.6-1.5,1.2-2.3,1.8c0,0,0,0-0.1,0h0
		c-0.1,0.1-0.3,0.2-0.4,0.3c-0.1,0.1-0.3,0.2-0.4,0.3c-0.1,0.1-0.3,0.2-0.4,0.3c-1.1,0.7-2.3,1.4-3.5,2c0,0,0,0,0,0
		c-0.1,0-0.1,0.1-0.2,0.1c-0.9,0.4-1.7,0.8-2.6,1.2c-0.9,0.4-1.8,0.7-2.8,1c-1,0.3-2,0.6-3,0.9c-0.4,0.1-0.8,0.2-1.2,0.3l-1.2,0.2
		c-0.8,0.2-1.7,0.3-2.5,0.4c-1.3,0.2-2.7,0.2-4,0.3c-0.1,0-0.2,0-0.3,0c-0.2,0-0.3,0-0.5,0c-0.5,0-1,0-1.5,0c-0.3,0-0.6,0-0.8,0
		c-0.2,0-0.5,0-0.7-0.1h0c-0.1,0-0.2,0-0.4,0c-0.2,0-0.3,0-0.5,0c-0.1,0-0.3,0-0.4,0c-0.1,0-0.1,0-0.2,0c0,0-0.1,0-0.1,0
		c-0.3,0-0.6-0.1-0.9-0.1c-0.3,0-0.6-0.1-0.9-0.1c0,0,0,0,0,0c-0.3,0-0.5-0.1-0.8-0.1c-0.1,0-0.2,0-0.3-0.1
		c-0.4-0.1-0.7-0.1-1.1-0.2c-0.1,0-0.1,0-0.2,0c-0.3-0.1-0.5-0.1-0.8-0.2c-0.1,0-0.1,0-0.2,0c-0.2-0.1-0.4-0.1-0.6-0.2
		C46.2,87.1,46,87,45.8,87c0,0,0,0-0.1,0c-0.1,0-0.2-0.1-0.3-0.1c-0.2,0-0.3-0.1-0.5-0.1c-0.4-0.1-0.8-0.2-1.2-0.4
		c-0.1,0-0.3-0.1-0.4-0.1c-0.2-0.1-0.3-0.1-0.5-0.2c-0.3-0.1-0.6-0.2-0.9-0.3c-0.9-0.4-1.8-0.8-2.7-1.2c-0.5-0.2-0.9-0.4-1.4-0.7
		c-0.1-0.1-0.2-0.1-0.3-0.2c-0.1,0-0.1-0.1-0.2-0.1c-0.2-0.1-0.5-0.3-0.7-0.4c-0.2-0.1-0.3-0.2-0.5-0.3c-0.1-0.1-0.2-0.1-0.3-0.2
		c-0.7-0.4-1.4-0.8-2-1.3c-0.2-0.1-0.3-0.2-0.5-0.3c-0.6-0.4-1.2-0.9-1.8-1.3c-0.6-0.5-1.2-1-1.8-1.5c-0.2-0.1-0.3-0.3-0.5-0.4
		c-0.7-0.6-1.3-1.2-1.9-1.9c-0.3-0.3-0.5-0.5-0.7-0.8c-0.1-0.1-0.2-0.2-0.3-0.3c-0.3-0.4-0.7-0.8-1-1.2v0c-0.5-0.6-1-1.2-1.4-1.9
		c-0.2-0.2-0.3-0.5-0.5-0.7c-0.1-0.2-0.2-0.3-0.3-0.5c-0.2-0.2-0.3-0.5-0.5-0.7c-0.1-0.2-0.3-0.4-0.4-0.6c-0.1-0.2-0.3-0.4-0.4-0.7
		c-0.2-0.3-0.3-0.5-0.4-0.8c-0.5-0.8-0.9-1.7-1.3-2.6C19,62.6,18,59.8,17.4,57c0-0.2-0.1-0.4-0.1-0.6c-0.1-0.2-0.1-0.5-0.1-0.8
		c-0.3-1.4-0.4-2.8-0.6-4.2c0-0.2,0-0.4,0-0.6c-0.1-0.9-0.1-1.8-0.1-2.7c0-3.2,0.4-6.3,1.1-9.2c0.7-3,1.7-5.9,3.1-8.6
		c0.7-1.4,1.5-2.8,2.3-4.1C30,15.3,42.5,7.9,56.7,7.9c10.8,0,20.7,4.3,27.9,11.2c3.4,3.3,6.3,7.2,8.4,11.5c0.3,0.6,0.5,1.1,0.8,1.7
		C95.8,37.3,96.9,42.6,96.9,48.2z"/>
	<path class="st2" d="M95.3,59.6c-0.1,0.4-0.3,0.9-0.4,1.3c0,0,0,0.1,0,0.1c-0.1,0.3-0.2,0.7-0.3,1c-0.1,0.2-0.2,0.5-0.3,0.7
		c-0.1,0.2-0.1,0.3-0.2,0.5c-0.1,0.2-0.2,0.4-0.2,0.6c-0.1,0.4-0.3,0.7-0.5,1.1c-0.5,1.2-1.1,2.3-1.7,3.4c0,0,0,0,0,0
		c-0.9,1.6-2,3.2-3.2,4.7c-0.1,0.1-0.2,0.3-0.3,0.4c-0.2,0.2-0.4,0.5-0.6,0.7c-0.8,0.9-1.6,1.8-2.4,2.6c-0.9,0.9-1.9,1.8-2.9,2.6
		c-0.8,0.6-1.5,1.2-2.3,1.8c0,0,0,0-0.1,0h0c-0.1,0.1-0.3,0.2-0.4,0.3c-0.1,0.1-0.3,0.2-0.4,0.3c-0.1,0.1-0.3,0.2-0.4,0.3
		c-1.1,0.7-2.3,1.4-3.5,2c0,0,0,0,0,0c-0.1,0-0.1,0.1-0.2,0.1c-0.9,0.4-1.7,0.8-2.6,1.2c-0.9,0.4-1.8,0.7-2.8,1c-1,0.3-2,0.6-3,0.9
		c-0.4,0.1-0.8,0.2-1.2,0.3l-1.2,0.2c-0.8,0.2-1.7,0.3-2.5,0.4c-1.3,0.2-2.7,0.2-4,0.3c-0.1,0-0.2,0-0.3,0c-0.2,0-0.3,0-0.5,0
		c-0.5,0-1,0-1.5,0c-0.3,0-0.6,0-0.8,0c-0.2,0-0.5,0-0.7-0.1h0c-0.1,0-0.2,0-0.4,0c-0.2,0-0.3,0-0.5,0c-0.1,0-0.3,0-0.4,0
		c-0.1,0-0.1,0-0.2,0c0,0-0.1,0-0.1,0c-0.3,0-0.6-0.1-0.9-0.1c-0.3,0-0.6-0.1-0.9-0.1c0,0,0,0,0,0c-0.3,0-0.5-0.1-0.8-0.1
		c-0.1,0-0.2,0-0.3-0.1c-0.4-0.1-0.7-0.1-1.1-0.2c-0.1,0-0.1,0-0.2,0c-0.3-0.1-0.5-0.1-0.8-0.2c-0.1,0-0.1,0-0.2,0
		c-0.2-0.1-0.4-0.1-0.6-0.2C46.2,87.1,46,87,45.8,87l0,0l-5.6-4.8l-0.9-0.8l-1.2-1L37.5,80L34,77h0l-7.2-6.1L24,68.6l-0.1,0
		c3-2,5.6-3.9,8-5.5c9.9-6.7,15.7-9.4,23.2-4.1c0.9,0.7,2,1.2,3,1.7c1.2,0.5,2.4,0.9,3.7,1.2c0.8,0.2,1.6,0.3,2.5,0.5h0
		c0.4,0.1,0.7,0.1,1.1,0.1c3.3,0.4,6.8,0.3,10.1,0c0.7-0.1,1.4-0.1,2-0.2c1.2-0.2,2.4-0.3,3.6-0.5c3.4-0.6,6.4-1.2,8.6-1.7
		c0.9-0.2,1.9-0.3,2.9-0.4C93.6,59.5,94.5,59.5,95.3,59.6z"/>
	<linearGradient id="SVGID_1_" gradientUnits="userSpaceOnUse" x1="58.392" y1="62.5936" x2="64.7317" y2="93.0928">
		<stop  offset="4.000000e-07" style="stop-color:#C7FFAB"/>
		<stop  offset="1" style="stop-color:#83CFD3"/>
	</linearGradient>
	<path class="st3" d="M96,57c-0.1,0.5-0.2,1-0.4,1.5c-0.1,0.4-0.2,0.8-0.3,1.1c-0.1,0.4-0.3,0.9-0.4,1.3c0,0,0,0.1,0,0.1
		c-0.1,0.3-0.2,0.7-0.3,1c-0.1,0.2-0.2,0.5-0.3,0.7c-0.1,0.2-0.1,0.3-0.2,0.5c-0.1,0.2-0.2,0.4-0.2,0.6c-0.1,0.4-0.3,0.7-0.5,1.1
		c-0.5,1.2-1.1,2.3-1.7,3.4c0,0,0,0,0,0c-0.9,1.6-2,3.2-3.2,4.7c-0.1,0.1-0.2,0.3-0.3,0.4c-0.2,0.2-0.4,0.5-0.6,0.7
		c-0.8,0.9-1.6,1.8-2.4,2.6c-0.9,0.9-1.9,1.8-2.9,2.6c-0.8,0.6-1.5,1.2-2.3,1.8c0,0,0,0-0.1,0h0c-0.1,0.1-0.3,0.2-0.4,0.3
		c-0.1,0.1-0.3,0.2-0.4,0.3c-0.1,0.1-0.3,0.2-0.4,0.3c-1.1,0.7-2.3,1.4-3.5,2c0,0,0,0,0,0c-0.1,0-0.1,0.1-0.2,0.1
		c-0.9,0.4-1.7,0.8-2.6,1.2c-0.9,0.4-1.8,0.7-2.8,1c-1,0.3-2,0.6-3,0.9c-0.4,0.1-0.8,0.2-1.2,0.3l-1.2,0.2c-0.8,0.2-1.7,0.3-2.5,0.4
		c-1.3,0.2-2.7,0.2-4,0.3c-0.1,0-0.2,0-0.3,0c-0.2,0-0.3,0-0.5,0c-0.5,0-1,0-1.5,0c-0.3,0-0.6,0-0.8,0c-0.2,0-0.5,0-0.8,0
		c-0.1,0-0.2,0-0.4,0c-0.2,0-0.3,0-0.5,0c-0.1,0-0.3,0-0.4,0c-0.1,0-0.1,0-0.2,0c0,0-0.1,0-0.1,0c-0.3,0-0.6-0.1-0.9-0.1
		c-0.3,0-0.6-0.1-0.9-0.1c0,0,0,0,0,0c-0.3,0-0.5-0.1-0.8-0.1c-0.1,0-0.2,0-0.3-0.1c-0.4-0.1-0.7-0.1-1.1-0.2c-0.1,0-0.1,0-0.2,0
		c-0.3-0.1-0.5-0.1-0.8-0.2c-0.1,0-0.1,0-0.2,0c-0.2-0.1-0.4-0.1-0.6-0.2C46.2,87.1,46,87,45.8,87l0,0c0,0,0,0-0.1,0
		c-0.1,0-0.2-0.1-0.3-0.1c-0.2,0-0.3-0.1-0.5-0.1c-0.4-0.1-0.8-0.2-1.2-0.4c-0.1,0-0.3-0.1-0.4-0.1c-0.2-0.1-0.3-0.1-0.5-0.2
		c-0.3-0.1-0.6-0.2-0.9-0.3c-0.9-0.4-1.8-0.8-2.7-1.2c-0.5-0.2-0.9-0.4-1.4-0.7c-0.1-0.1-0.2-0.1-0.3-0.2c-0.1,0-0.1-0.1-0.2-0.1
		c-0.2-0.1-0.5-0.3-0.7-0.4c-0.2-0.1-0.3-0.2-0.5-0.3c-0.1-0.1-0.2-0.1-0.3-0.2c-0.7-0.4-1.4-0.8-2-1.3c-0.2-0.1-0.3-0.2-0.5-0.3
		c-0.6-0.4-1.2-0.9-1.8-1.3c-0.6-0.5-1.2-1-1.8-1.5c-0.2-0.1-0.3-0.3-0.5-0.4c-0.7-0.6-1.3-1.2-1.9-1.9c-0.3-0.3-0.5-0.5-0.7-0.8
		c-0.1-0.1-0.2-0.2-0.3-0.3c-0.3-0.4-0.7-0.8-1-1.2v0c-0.5-0.6-1-1.2-1.4-1.9c-0.2-0.2-0.3-0.5-0.5-0.7c-0.1-0.2-0.2-0.3-0.3-0.5
		c-0.2-0.2-0.3-0.5-0.5-0.7c-0.1-0.2-0.3-0.4-0.4-0.6c-0.1-0.2-0.3-0.4-0.4-0.7c-0.2-0.3-0.3-0.5-0.4-0.8c-0.5-0.8-0.9-1.7-1.3-2.6
		c4.3-2,8-2.8,11.9-2.2c3.9,0.6,8,2.6,13,6.2c4.4,3.1,8.7,4.8,12.7,5.1h0c1,0.1,1.9,0.1,2.9,0c0,0,0,0,0,0c0.3,0,0.5,0,0.8-0.1
		c4.4-0.5,8.3-2.7,11.7-6.1c0.1-0.1,0.3-0.3,0.4-0.4c0.1-0.1,0.2-0.2,0.3-0.3c0.4-0.4,0.8-0.9,1.1-1.3c0.2-0.2,0.4-0.4,0.5-0.7
		c0.7-1,1.5-2.1,2.1-3.2c0.2-0.3,0.4-0.7,0.6-1.1C83.7,51.2,89.7,51.5,96,57z"/>
	<linearGradient id="SVGID_2_" gradientUnits="userSpaceOnUse" x1="56.6858" y1="50.7984" x2="63.0827" y2="98.661">
		<stop  offset="4.000000e-07" style="stop-color:#C7FFAB"/>
		<stop  offset="1" style="stop-color:#83CFD3"/>
	</linearGradient>
	<path class="st4" d="M94.9,61c-0.1,0.3-0.2,0.7-0.3,1c-0.1,0.2-0.2,0.5-0.3,0.7c-0.1,0.2-0.1,0.3-0.2,0.5c-0.1,0.2-0.2,0.4-0.2,0.6
		c-0.1,0.4-0.3,0.7-0.5,1.1c-0.5,1.2-1.1,2.3-1.7,3.4c0,0,0,0,0,0c-0.9,1.6-2,3.2-3.2,4.7c-0.1,0.1-0.2,0.3-0.3,0.4
		c-0.2,0.2-0.4,0.5-0.6,0.7c-0.8,0.9-1.6,1.8-2.4,2.6c-0.9,0.9-1.9,1.8-2.9,2.6c-0.8,0.6-1.5,1.2-2.3,1.8c0,0,0,0-0.1,0h0
		c-0.1,0.1-0.3,0.2-0.4,0.3c-0.1,0.1-0.3,0.2-0.4,0.3c-0.1,0.1-0.3,0.2-0.4,0.3c-1.1,0.7-2.3,1.4-3.5,2c0,0,0,0,0,0
		c-0.1,0-0.1,0.1-0.2,0.1c-0.9,0.4-1.7,0.8-2.6,1.2c-0.9,0.4-1.8,0.7-2.8,1c-1,0.3-2,0.6-3,0.9c-0.4,0.1-0.8,0.2-1.2,0.3l-1.2,0.2
		c-0.8,0.2-1.7,0.3-2.5,0.4c-1.3,0.2-2.7,0.2-4,0.3c-0.1,0-0.2,0-0.3,0c-0.2,0-0.3,0-0.5,0c-0.5,0-1,0-1.5,0c-0.3,0-0.6,0-0.8,0
		c-0.2,0-0.5,0-0.8,0c-0.1,0-0.2,0-0.4,0c-0.2,0-0.3,0-0.5,0c-0.1,0-0.3,0-0.4,0c-0.1,0-0.1,0-0.2,0c0,0-0.1,0-0.1,0
		c-0.3,0-0.6-0.1-0.9-0.1c-0.3,0-0.6-0.1-0.9-0.1c0,0,0,0,0,0c-0.3,0-0.5-0.1-0.8-0.1c-0.1,0-0.2,0-0.3-0.1
		c-0.4-0.1-0.7-0.1-1.1-0.2c-0.1,0-0.1,0-0.2,0c-0.3-0.1-0.5-0.1-0.8-0.2c-0.1,0-0.1,0-0.2,0c-0.2-0.1-0.4-0.1-0.6-0.2
		C46.2,87.1,46,87,45.8,87l0,0c0,0,0,0-0.1,0c-0.1,0-0.2-0.1-0.3-0.1c-0.2,0-0.3-0.1-0.5-0.1c-0.4-0.1-0.8-0.2-1.2-0.4
		c-0.1,0-0.3-0.1-0.4-0.1c-0.2-0.1-0.3-0.1-0.5-0.2c-0.3-0.1-0.6-0.2-0.9-0.3c-0.9-0.4-1.8-0.8-2.7-1.2c-0.5-0.2-0.9-0.4-1.4-0.7
		c-0.1-0.1-0.2-0.1-0.3-0.2c-0.1,0-0.1-0.1-0.2-0.1c-0.2-0.1-0.5-0.3-0.7-0.4c-0.2-0.1-0.3-0.2-0.5-0.3c-0.1-0.1-0.2-0.1-0.3-0.2
		c-0.7-0.4-1.4-0.8-2-1.3c-0.2-0.1-0.3-0.2-0.5-0.3c-0.6-0.4-1.2-0.9-1.8-1.3c-0.6-0.5-1.2-1-1.8-1.5c-0.2-0.1-0.3-0.3-0.5-0.4
		c-0.7-0.6-1.3-1.2-1.9-1.9c-0.3-0.3-0.5-0.5-0.7-0.8c-0.1-0.1-0.2-0.2-0.3-0.3c-0.3-0.4-0.7-0.8-1-1.2v0c-0.5-0.6-1-1.2-1.4-1.9
		c-0.2-0.2-0.3-0.5-0.5-0.7c-0.1-0.2-0.2-0.3-0.3-0.5c-0.2-0.2-0.3-0.5-0.5-0.7c-0.1-0.2-0.3-0.4-0.4-0.6c0.6-0.2,1.2-0.4,1.7-0.6
		c6.7-2.1,12.5-0.5,21,5.5c1.9,1.3,3.8,2.4,5.6,3.2c1,0.4,1.9,0.8,2.9,1.1h0c2.2,0.7,4.3,0.9,6.3,0.9c0.7,0,1.4-0.1,2.1-0.2
		c2.2-0.3,4.2-1,6.1-2.1c0,0,0,0,0,0c0.2-0.1,0.5-0.3,0.7-0.4c1.1-0.7,2.2-1.5,3.3-2.5c1-0.9,1.9-1.9,2.8-3c1.1-1.4,2.2-2.9,3.1-4.6
		c0.1-0.2,0.2-0.3,0.3-0.5c0.1-0.3,0.3-0.5,0.4-0.8c0.8-1.4,1.7-2.6,2.5-3.6c3.6-4.1,7.5-4.3,11.5-2.1C93.5,59.9,94.2,60.4,94.9,61z
		"/>
	<linearGradient id="SVGID_3_" gradientUnits="userSpaceOnUse" x1="55.3621" y1="25.6486" x2="58.7799" y2="87.8525">
		<stop  offset="4.000000e-07" style="stop-color:#C7FFAB"/>
		<stop  offset="1" style="stop-color:#83CFD3"/>
	</linearGradient>
	<path class="st5" d="M91.6,68.2C91.6,68.3,91.6,68.3,91.6,68.2c-1,1.7-2,3.2-3.2,4.7c-0.1,0.1-0.2,0.3-0.3,0.4
		c-0.2,0.2-0.4,0.5-0.6,0.7c-0.8,0.9-1.6,1.8-2.4,2.6c-0.9,0.9-1.9,1.8-2.9,2.6c-0.8,0.6-1.5,1.2-2.3,1.8c0,0,0,0-0.1,0h0
		c-0.1,0.1-0.3,0.2-0.4,0.3c-0.1,0.1-0.3,0.2-0.4,0.3c-0.1,0.1-0.3,0.2-0.4,0.3c-1.1,0.7-2.3,1.4-3.5,2c0,0,0,0,0,0
		c-0.1,0-0.1,0.1-0.2,0.1c-0.9,0.4-1.7,0.8-2.6,1.2c-0.9,0.4-1.8,0.7-2.8,1c-1,0.3-2,0.6-3,0.9c-0.4,0.1-0.8,0.2-1.2,0.3l-1.2,0.2
		c-0.8,0.2-1.7,0.3-2.5,0.4c-1.3,0.2-2.7,0.2-4,0.3c-0.1,0-0.2,0-0.3,0c-0.2,0-0.3,0-0.5,0c-0.5,0-1,0-1.5,0c-0.3,0-0.6,0-0.8,0
		c-0.2,0-0.5,0-0.8,0c-0.1,0-0.2,0-0.4,0c-0.2,0-0.3,0-0.5,0c-0.1,0-0.3,0-0.4,0c-0.1,0-0.2,0-0.3,0c-0.3,0-0.6-0.1-0.9-0.1
		c-0.3,0-0.6-0.1-0.9-0.1c0,0,0,0,0,0c-0.4-0.1-0.7-0.1-1.1-0.2c-0.4-0.1-0.7-0.1-1.1-0.2c-0.3-0.1-0.7-0.1-1-0.2
		c-0.1,0-0.1,0-0.2,0c-0.2-0.1-0.4-0.1-0.6-0.2C46.2,87.1,46,87,45.8,87l0,0c0,0,0,0-0.1,0c-0.1,0-0.2-0.1-0.3-0.1
		c-0.2,0-0.3-0.1-0.5-0.1c-0.4-0.1-0.8-0.2-1.2-0.4c-0.1,0-0.3-0.1-0.4-0.1c-0.2-0.1-0.3-0.1-0.5-0.2c-0.3-0.1-0.6-0.2-0.9-0.3
		c-0.9-0.4-1.8-0.8-2.7-1.2c-0.5-0.2-0.9-0.4-1.4-0.7c-0.1-0.1-0.2-0.1-0.3-0.2c-0.1,0-0.1-0.1-0.2-0.1c-0.2-0.1-0.5-0.3-0.7-0.4
		c-0.2-0.1-0.3-0.2-0.5-0.3c-0.1-0.1-0.2-0.1-0.3-0.2c-0.7-0.4-1.4-0.8-2-1.3c-0.2-0.1-0.3-0.2-0.5-0.3c-0.6-0.4-1.2-0.9-1.8-1.3
		c-0.6-0.5-1.2-1-1.8-1.5c-0.2-0.1-0.3-0.3-0.5-0.4c-0.7-0.6-1.3-1.2-1.9-1.9c-0.3-0.3-0.5-0.5-0.7-0.8c-0.1-0.1-0.2-0.2-0.3-0.3
		c-0.3-0.4-0.7-0.8-1-1.2v0c-0.5-0.6-1-1.2-1.4-1.9c1-0.4,1.9-0.7,2.8-0.8c1.8-0.3,3.4-0.2,5.1,0.2c3.5,0.9,7,3.1,11.4,5.7
		c0.2,0.1,0.3,0.2,0.5,0.3c0.4,0.2,0.9,0.4,1.4,0.5c0.1,0,0.1,0,0.2,0.1c1.3,0.3,2.6,0.3,4,0c0.1,0,0.3-0.1,0.4-0.1
		c0.1,0,0.3-0.1,0.4-0.1c0.1,0,0.3-0.1,0.4-0.1c0.3-0.1,0.6-0.2,0.8-0.2c0.1,0,0.2-0.1,0.3-0.1c0.2-0.1,0.4-0.1,0.6-0.2
		c0.3-0.1,0.6-0.2,0.9-0.3c0.3-0.1,0.6-0.2,0.8-0.3c0.1,0,0.1,0,0.2-0.1c0.2-0.1,0.5-0.2,0.7-0.3c0.6-0.3,1.2-0.6,1.9-0.9
		c0.3-0.2,0.6-0.3,0.9-0.5h0c0.5-0.3,1-0.6,1.6-0.8c0.3-0.2,0.7-0.3,1-0.5c0.3-0.1,0.5-0.3,0.8-0.4c0.4-0.2,0.8-0.4,1.1-0.6
		c0.9-0.5,1.9-1,2.8-1.5c0.2-0.1,0.4-0.2,0.7-0.4c0.1-0.1,0.2-0.1,0.3-0.1c0.2-0.1,0.5-0.2,0.7-0.4c0.7-0.4,1.5-0.7,2.2-1.1
		c0.3-0.1,0.5-0.2,0.8-0.3c0.1,0,0.1-0.1,0.2-0.1c0,0,0,0,0,0c0.2-0.1,0.5-0.2,0.7-0.3c0.3-0.1,0.5-0.2,0.8-0.3
		c0.1,0,0.2-0.1,0.3-0.1c0.3-0.1,0.6-0.2,0.9-0.3c0.1,0,0.2-0.1,0.2-0.1c0.3-0.1,0.6-0.2,0.9-0.3c0.4-0.1,0.8-0.3,1.2-0.4
		c0.2,0,0.4-0.1,0.5-0.1c0.8-0.2,1.6-0.4,2.4-0.5c0.3,0,0.5-0.1,0.8-0.1c0.2,0,0.5-0.1,0.7-0.1c0.2,0,0.5,0,0.7-0.1
		c0.2,0,0.5,0,0.7,0c0.2,0,0.4,0,0.7,0c2.3,0,4.5,0.4,6.8,1.4C89.3,66.9,90.5,67.5,91.6,68.2z"/>
	<path class="st6" d="M88.2,66.4c-0.2,0.2-0.7,0.2-1.3,0.1c-4.8-1.2-10.7-0.1-17.9,2.9c-7.2,3.1-12.7,9.3-18.9,9.8
		c-6.2,0.5-8.3-1.6-12.8-4.8c-2.4-1.7-4-2.8-5.4-3.3c3.5,0.9,7,3.1,11.4,5.7C53.9,83,71.3,59.2,88.2,66.4z"/>
	<linearGradient id="SVGID_4_" gradientUnits="userSpaceOnUse" x1="67.3865" y1="97.9739" x2="58.0194" y2="73.7567">
		<stop  offset="4.000000e-07" style="stop-color:#5399A5"/>
		<stop  offset="1" style="stop-color:#83CFD3"/>
	</linearGradient>
	<path class="st7" d="M88.1,73.4c-0.2,0.2-0.4,0.5-0.6,0.7c-0.8,0.9-1.6,1.8-2.4,2.6c-0.9,0.9-1.9,1.8-2.9,2.6
		c-0.8,0.6-1.5,1.2-2.3,1.8c0,0,0,0-0.1,0h0c-0.1,0.1-0.3,0.2-0.4,0.3c-0.1,0.1-0.3,0.2-0.4,0.3c-0.1,0.1-0.3,0.2-0.4,0.3
		c-1.1,0.7-2.3,1.4-3.5,2c0,0,0,0,0,0c-0.1,0-0.1,0.1-0.2,0.1c-0.9,0.4-1.7,0.8-2.6,1.2c-0.9,0.4-1.8,0.7-2.8,1c-1,0.3-2,0.6-3,0.9
		c-0.4,0.1-0.8,0.2-1.2,0.3l-1.2,0.2c-0.8,0.2-1.7,0.3-2.5,0.4c-1.3,0.2-2.7,0.2-4,0.3c-0.1,0-0.2,0-0.3,0c-0.2,0-0.3,0-0.5,0
		c-0.5,0-1,0-1.5,0c-0.3,0-0.6,0-0.8,0c-0.2,0-0.5,0-0.8,0c-0.1,0-0.2,0-0.4,0c-0.2,0-0.3,0-0.5,0c-0.1,0-0.3,0-0.4,0
		c-0.1,0-0.2,0-0.3,0c-0.3,0-0.6-0.1-0.9-0.1c-0.3,0-0.6-0.1-0.9-0.1c0,0,0,0,0,0c-0.4-0.1-0.7-0.1-1.1-0.2
		c-0.4-0.1-0.7-0.1-1.1-0.2c-0.3-0.1-0.7-0.1-1-0.2c-0.1,0-0.1,0-0.2,0c-0.2-0.1-0.4-0.1-0.6-0.2C46.2,87.1,46,87,45.8,87l0,0
		c0,0,0,0-0.1,0c-0.1,0-0.2-0.1-0.3-0.1c-0.2,0-0.3-0.1-0.5-0.1c-0.4-0.1-0.8-0.2-1.2-0.4c-0.1,0-0.3-0.1-0.4-0.1
		c-0.2-0.1-0.3-0.1-0.5-0.2c-0.3-0.1-0.6-0.2-0.9-0.3c-0.9-0.4-1.8-0.8-2.7-1.2c-0.5-0.2-0.9-0.4-1.4-0.7c-0.1-0.1-0.2-0.1-0.3-0.2
		c-0.1,0-0.1-0.1-0.2-0.1c-0.2-0.1-0.5-0.3-0.7-0.4c-0.2-0.1-0.3-0.2-0.5-0.3c-0.1-0.1-0.2-0.1-0.3-0.2c-0.7-0.4-1.4-0.8-2-1.3
		c-0.2-0.1-0.3-0.2-0.5-0.3c-0.6-0.4-1.2-0.9-1.8-1.3c-0.6-0.5-1.2-1-1.8-1.5c-0.2-0.1-0.3-0.3-0.5-0.4c1.9,0.1,3.7,0.6,5.5,1.4
		c0.9,0.4,1.8,0.8,2.7,1.4c0.1,0.1,0.3,0.2,0.4,0.2c0.4,0.2,0.8,0.5,1.2,0.7c0.3,0.2,0.6,0.4,1,0.6c1,0.6,2,1.2,3,1.8
		c2.1,1.2,4.4,1.3,6.9,0.7c0.9-0.2,1.7-0.5,2.6-0.8c0.4-0.2,0.9-0.4,1.4-0.6c1.3-0.6,2.6-1.2,4-1.9c0.5-0.2,0.9-0.5,1.4-0.8
		c0.8-0.4,1.6-0.9,2.5-1.4c3.2-1.8,6.6-3.7,10.1-5c0.9-0.4,1.9-0.7,2.8-1c2.6-0.7,5.2-1.1,7.8-1c0.5,0,1.1,0.1,1.6,0.2h0
		c0.3,0,0.6,0.1,0.9,0.2C86.2,72.7,87.1,73,88.1,73.4z"/>
	<g>
		<linearGradient id="SVGID_5_" gradientUnits="userSpaceOnUse" x1="66.088" y1="93.6703" x2="66.2487" y2="64.9076">
			<stop  offset="2.700000e-07" style="stop-color:#8B69C5"/>
			<stop  offset="1" style="stop-color:#47457D"/>
		</linearGradient>
		<path class="st8" d="M75.1,84C75.1,84,75,84,75.1,84c-0.1,0.1-0.2,0.1-0.2,0.1c-0.9,0.4-1.7,0.8-2.6,1.2c-0.1,0-0.2,0.1-0.2,0.1
			c-0.8,0.3-1.7,0.7-2.5,0.9c-0.2-2.5-0.6-6.7-0.7-9.9c0-0.2,0-0.5,0-0.7c-0.1,0.2-0.4,0.6-0.7,1.1c0,0,0,0,0,0
			c-1.5,2.5-4.9,8.3-6.6,11.2c-1.3,0.2-2.7,0.2-4,0.3c-0.1,0-0.2,0-0.3,0c0.3-0.9,1.2-4.3,2.3-8.1c0.1-0.4,0.2-0.8,0.3-1.2
			c0.5-1.7,1.1-3.4,1.6-5c0.1-0.2,0.1-0.4,0.2-0.6v0c0.2-0.6,0.4-1.2,0.6-1.8c0.4-1,0.7-1.8,1-2.5c0.2-0.4,0.3-0.7,0.5-0.9
			c0,0,0,0,0-0.1c0.1-0.1,0.1-0.2,0.2-0.3l6.7-0.5l3.2-0.2l0.8-0.1c0,0,0,0,0,0c0,0.2,0.1,0.5,0.1,1c0,0.5,0.1,1.2,0.1,2
			c0,0.2,0,0.5,0,0.8c0,0.6,0,1.3,0,2C75,76.6,75.1,81,75.1,84z"/>
		<path class="st9" d="M74.9,70.3c-2.8-1.9-7.4-1.1-11.6-1c0.2-0.4,0.3-0.7,0.5-0.9c0,0,0,0,0-0.1c0.1-0.1,0.1-0.2,0.2-0.3l6.7-0.5
			l3.2-0.2l0.8-0.1c0,0,0,0,0,0c0,0.2,0.1,0.5,0.1,1C74.8,68.9,74.8,69.5,74.9,70.3z"/>
		<path class="st9" d="M72,85.4c-0.8,0.3-1.7,0.7-2.5,0.9c-0.2-2.5-0.6-6.7-0.7-9.9c0-0.2,0-0.5,0-0.7c2-3.8,3-4.4,3.1-2.3
			C72,75.3,71.4,81.4,72,85.4z"/>
		<g>
			<linearGradient id="SVGID_6_" gradientUnits="userSpaceOnUse" x1="71.3283" y1="27.8663" x2="69.6148" y2="38.0614">
				<stop  offset="2.700000e-07" style="stop-color:#8B69C5"/>
				<stop  offset="1" style="stop-color:#47457D"/>
			</linearGradient>
			<path class="st10" d="M74.4,40.1c-0.2,1.6-1.1,3.4-2.6,3.3c-2.6-0.2-3.4-1.9-3.4-1.9L66.7,39c-0.6-0.1-1-0.4-1.3-0.7
				c-0.9-1-0.8-2.6,0-3.8c0.2,0.4,0.9,0.7,1,0.8c-0.1,0-0.4-0.3-0.2-1.1c0.8,1,7.8-0.2,7.4,3.7C74.3,37.8,74.5,38.9,74.4,40.1z"/>
			<path class="st9" d="M74.4,40.1c-0.2,1.6-1.1,3.4-2.6,3.3c-2.6-0.2-3.4-1.9-3.4-1.9L66.7,39c-0.6-0.1-1-0.4-1.3-0.7
				c1.7,0.8,4.4,0.1,5.5,1C72.1,40.1,72.8,41.5,74.4,40.1z"/>
			<linearGradient id="SVGID_7_" gradientUnits="userSpaceOnUse" x1="67.2751" y1="43.9359" x2="74.0166" y2="39.1321">
				<stop  offset="4.470480e-03" style="stop-color:#FFC7D7"/>
				<stop  offset="1" style="stop-color:#FF97AB"/>
			</linearGradient>
			<path class="st11" d="M72.3,45.7c-0.8-0.2-2.7,0.1-2.7,0.1l-0.2-1.8c0,0-1.7,0.7-2.3,0.2c-0.5-0.6-0.9-3.2-0.3-5.3
				c0.9,0.8,2.1,0.2,2.3,0.3c0.1,0.1,0.2,1.1,0.5,1c0.3-0.1,0.2-0.7,0.5-0.8c0.3,0,0.9,0.4,0.8,0.9c0,0.5-0.4,1.1-0.7,0.9
				c-0.3-0.2-0.5-0.3-0.5,0c0.3,1.2,1.4,1.8,1.9,1.9c0.2,0.1,0.3,0.1,0.3,0.1S72,44.1,72.3,45.7z"/>
			<linearGradient id="SVGID_8_" gradientUnits="userSpaceOnUse" x1="71.0534" y1="48.1506" x2="70.4966" y2="41.7894">
				<stop  offset="4.470480e-03" style="stop-color:#FFC7D7"/>
				<stop  offset="1" style="stop-color:#FF97AB"/>
			</linearGradient>
			<path class="st12" d="M72.3,45.7c-0.8-0.2-2.7,0.1-2.7,0.1l-0.2-1.8c0.9-0.2,1.6-0.8,2.3-0.8c0.2,0.1,0.3,0.1,0.3,0.1
				S72,44.1,72.3,45.7z"/>
		</g>
		<linearGradient id="SVGID_9_" gradientUnits="userSpaceOnUse" x1="70.3072" y1="41.7871" x2="71.5923" y2="49.4407">
			<stop  offset="2.700000e-07" style="stop-color:#8B69C5"/>
			<stop  offset="1" style="stop-color:#CBB3FF"/>
		</linearGradient>
		<path class="st13" d="M69,46.1c0.2-0.5,0.1-0.9,0.8-1.1c0.7-0.2,2.2-0.3,2.6,0.1c0.5,0.4,0.8,1.6,0.8,1.6L69,46.1z"/>
		<linearGradient id="SVGID_10_" gradientUnits="userSpaceOnUse" x1="73.6008" y1="88.564" x2="67.26" y2="42.122">
			<stop  offset="1.918004e-07" style="stop-color:#797BF2"/>
			<stop  offset="1" style="stop-color:#7961F2"/>
		</linearGradient>
		<path class="st14" d="M75.9,57.5c0,0.6-0.1,1.2-0.1,1.8c0,0.3,0,0.6,0,0.9c0,0.6-0.1,1.2-0.1,1.8c0,0.4,0,0.8-0.1,1.1
			c0,0.7-0.1,1.3-0.1,1.8c0,0.6,0,1.1,0,1.4c0.1,2,0.1,2.4-2.5,1.7c-2.6-0.7-7.6,0.7-8.9,0.5c-0.1,0-0.2,0-0.3-0.1h0
			c-1-0.4-1.3-1.5-0.4-3.3c0-0.1,0.1-0.2,0.1-0.2c0.2-0.3,0.4-0.9,0.6-1.5c0.1-0.4,0.2-0.8,0.4-1.2c0.2-0.6,0.3-1.1,0.5-1.8
			c0.1-0.3,0.2-0.6,0.2-1c0.1-0.6,0.3-1.2,0.4-1.8c0.4-1.8,0.8-3.4,0.9-4l-0.1-1.9l-0.3-4c0.9-1.1,3.1-2.7,6-2.3
			c2.8,0.4,3.8,1.4,4,4.5C76.2,51.4,76.1,54.4,75.9,57.5z"/>
		<path class="st6" d="M75.6,63.1c0,0.7-0.1,1.3-0.1,1.8c-4.3-0.8-8.7,0-12.2,0.2c0-0.1,0.1-0.2,0.1-0.2c0.2-0.3,0.4-0.9,0.6-1.5
			C68.7,62.5,73.4,62.8,75.6,63.1z"/>
		<path class="st6" d="M75.8,60.2c0,0.6-0.1,1.2-0.1,1.8c-4-0.7-7.9-0.1-11.2,0.2c0.2-0.6,0.3-1.1,0.5-1.8
			C69.3,59.6,73.6,59.9,75.8,60.2z"/>
		<path class="st6" d="M75.9,57.5c0,0.6-0.1,1.2-0.1,1.8c-3.7-0.7-7.5-0.2-10.6,0.2c0.1-0.6,0.3-1.2,0.4-1.8
			C69.8,57,73.8,57.3,75.9,57.5z"/>
		<path class="st9" d="M65.2,62.9c-1.7,2.4-1.8,4.3-1.3,5.5c-1.1-0.4-1.3-1.6-0.3-3.5c1.1-2,2.6-9.7,3-11.2l-0.1-1.9l2.4-1.4
			C69.1,55.8,67.2,60.1,65.2,62.9z"/>
		<linearGradient id="SVGID_11_" gradientUnits="userSpaceOnUse" x1="49.9846" y1="67.9781" x2="63.8661" y2="59.362">
			<stop  offset="4.470480e-03" style="stop-color:#FFC7D7"/>
			<stop  offset="1" style="stop-color:#FF97AB"/>
		</linearGradient>
		<path class="st15" d="M55.3,63.7c-0.9-0.2-1.9,0.1-2.1,0.4s0.5,0.2,0.7,0.5c0.3,0.3-0.7,1.3-1.6,1.3s-0.8,0.2-0.3,0.5
			c0.5,0.2,1.2,0,1.2,0s-0.5,0.2-1,0.3c-0.5,0,0.4,0.6,1.5,0.6c1.2,0,1.6-1.1,2.3-2L55.3,63.7z"/>
		<linearGradient id="SVGID_12_" gradientUnits="userSpaceOnUse" x1="66.4757" y1="89.5325" x2="60.1359" y2="43.0977">
			<stop  offset="1.918004e-07" style="stop-color:#797BF2"/>
			<stop  offset="1" style="stop-color:#7961F2"/>
		</linearGradient>
		<path class="st16" d="M66.7,47.5c1.7-0.2,2.2,0.9,2,3.4c-0.3,2.5-2.9,7.7-4,8.8c-1.1,1.1-7.8,5.8-8.7,5.9
			c-0.9,0.1-0.9-1.6-0.6-2.3s6.4-5.7,6.4-5.7S65.1,47.6,66.7,47.5z"/>
	</g>
	<linearGradient id="SVGID_13_" gradientUnits="userSpaceOnUse" x1="79.7369" y1="69.5334" x2="91.3456" y2="80.9707">
		<stop  offset="4.000000e-07" style="stop-color:#C7FFAB"/>
		<stop  offset="1" style="stop-color:#83CFD3"/>
	</linearGradient>
	<path class="st17" d="M91.6,68.3c-0.9,1.6-2,3.2-3.2,4.7c-0.3,0.4-0.6,0.8-0.9,1.1c-0.8,0.9-1.6,1.8-2.4,2.6
		c-0.9,0.9-1.9,1.8-2.9,2.6c-0.8,0.6-1.5,1.2-2.3,1.8c0,0,0,0-0.1,0h0c-0.1,0.1-0.3,0.2-0.4,0.3c-0.1,0.1-0.3,0.2-0.4,0.3
		c-0.2-3.9,2-3.6,2-3.6s-2.1-3,0.2-5.1c2.2-2,4-0.1,4.2,0.1c-0.1-0.2-0.7-1.7,0.4-2.5c1.2-0.8,2.3,0.3,2.3,0.3S89.4,68.7,91.6,68.3z
		"/>
	<g>
		<linearGradient id="SVGID_14_" gradientUnits="userSpaceOnUse" x1="34.8514" y1="74.7552" x2="37.0789" y2="84.0935">
			<stop  offset="4.000000e-07" style="stop-color:#C7FFAB"/>
			<stop  offset="1" style="stop-color:#83CFD3"/>
		</linearGradient>
		<path class="st18" d="M37.8,83.8c-0.1-0.1-0.2-0.1-0.3-0.2c-0.4-0.2-0.9-0.5-1.3-0.8c-0.8-3.3-3.3-6.8-2.3-8.1
			c1.1-1.5,2.9,0.9,3.6,5.2c0.1,0.9,0.2,1.6,0.3,2.2c0,0,0,0,0,0C37.8,82.9,37.8,83.4,37.8,83.8z"/>
		<linearGradient id="SVGID_15_" gradientUnits="userSpaceOnUse" x1="35.068" y1="76.5285" x2="46.2573" y2="87.5526">
			<stop  offset="4.000000e-07" style="stop-color:#C7FFAB"/>
			<stop  offset="1" style="stop-color:#83CFD3"/>
		</linearGradient>
		<path class="st19" d="M39.7,83.3c-0.2,0.4-0.3,0.8-0.5,1.2c-0.5-0.2-0.9-0.4-1.4-0.7c-0.1-0.1-0.2-0.1-0.3-0.2
			c0.1-0.4,0.2-0.9,0.2-1.4c0,0,0,0,0,0c0.4-2.5,0.5-4.9,1.6-5.3C41.1,76.3,41.4,79.3,39.7,83.3z"/>
	</g>
	<g>
		<linearGradient id="SVGID_16_" gradientUnits="userSpaceOnUse" x1="51.9544" y1="81.312" x2="59.9859" y2="89.225">
			<stop  offset="4.000000e-07" style="stop-color:#C7FFAB"/>
			<stop  offset="1" style="stop-color:#83CFD3"/>
		</linearGradient>
		<path class="st20" d="M53.6,88.4c-0.4,0-0.8-0.1-1.3-0.1c-0.1,0-0.2,0-0.3,0c0.1-0.4,0.2-0.8,0.4-1.2c0.2-0.6,0.5-1.3,0.8-2.1
			c1.7-4,4-5.9,4.7-4.2C58.7,82.2,55,85.2,53.6,88.4z"/>
		<linearGradient id="SVGID_17_" gradientUnits="userSpaceOnUse" x1="51.9363" y1="81.2205" x2="50.9939" y2="87.9029">
			<stop  offset="4.000000e-07" style="stop-color:#C7FFAB"/>
			<stop  offset="1" style="stop-color:#83CFD3"/>
		</linearGradient>
		<path class="st21" d="M52.4,87c0,0.4-0.1,0.8-0.1,1.3c-0.1,0-0.2,0-0.3,0c-0.6-0.1-1.1-0.1-1.7-0.2c0-0.2,0-0.3-0.1-0.5
			c-0.6-4.3,0.4-7.1,1.9-6.1C53.1,82.1,52.7,84.5,52.4,87z"/>
	</g>
	<linearGradient id="SVGID_18_" gradientUnits="userSpaceOnUse" x1="68.8164" y1="75.7971" x2="68.8164" y2="75.7971">
		<stop  offset="4.000000e-07" style="stop-color:#C7FFAB"/>
		<stop  offset="1" style="stop-color:#83CFD3"/>
	</linearGradient>
	<path class="st22" d="M68.8,75.8"/>
	<path class="st2" d="M43.6,50.8c-4.4,0.1-16.7,0.1-27.1,0c-0.1-0.9-0.1-1.8-0.1-2.7c0-3.2,0.4-6.3,1.1-9.2c0.7-3,1.7-5.9,3.1-8.6
		c2.7,0.1,5.4,2.1,5.4,4.8c2.4-2.3,8.2-5.1,11.7-0.8c3.6,4.4,0.6,8.8,0.6,8.8s3.5-2.9,5.4-1.2c1.9,1.7,0.9,4,0.9,4.1
		c0.2-0.2,4.1-4,7-0.3C54.6,49.8,51.8,50.7,43.6,50.8z"/>
	<path class="st2" d="M93.7,32.4c-6.4,0-12.9,0-15.6,0c-5.9-0.1-7.9-0.7-5.8-3.4c2.1-2.7,4.9,0,5,0.2c0-0.1-0.7-1.8,0.6-3
		c1.4-1.3,3.9,0.8,3.9,0.8s-2.1-3.2,0.5-6.3c0.7-0.8,1.4-1.3,2.2-1.5c3.4,3.3,6.3,7.2,8.4,11.5C93.2,31.3,93.5,31.8,93.7,32.4z"/>
	<path class="st23" d="M31,29.7c0.1-2.2,2.3-0.2,2.3-0.2s-0.6-2.6,2.1-1.8"/>
	<path class="st23" d="M44.7,35.4c1.7-1.5,1.8,1.5,1.8,1.5s1.4-2.3,2.7,0.2"/>
	<path class="st23" d="M28.5,39.7c0.6-2.1,2.3,0.3,2.3,0.3s0-2.6,2.4-1.3"/>
	<circle class="st24" cx="60" cy="22.7" r="5.1"/>
</g>
</svg>
