<?xml version="1.0" encoding="utf-8"?>
<!-- Generator: Adobe Illustrator 23.0.1, SVG Export Plug-In . SVG Version: 6.00 Build 0)  -->
<svg version="1.1" id="Layer_1" xmlns="http://www.w3.org/2000/svg" xmlns:xlink="http://www.w3.org/1999/xlink" x="0px" y="0px"
	 viewBox="0 0 110 110" style="enable-background:new 0 0 110 110;" xml:space="preserve">
<style type="text/css">
	.st0{fill:#EAE3FF;}
	.st1{fill:#FF227D;}
	.st2{fill:#671CC9;}
	.st3{fill:#413456;}
	.st4{fill-rule:evenodd;clip-rule:evenodd;fill:#413456;}
</style>
<g>
	<path class="st0" d="M56,87.9c-0.4,0-0.7-0.1-1-0.2c-1.7,0.1-3.4,0.1-5.1,0.1c-0.3,0-0.5,0-0.7-0.1c-0.3,0.2-0.7,0.3-1.1,0.4
		c-1.3,0.2-2.5,0.2-3.8,0.2c3.2,1.9,6.9,2.9,10.8,2.9c4.3,0,8.2-1.3,11.6-3.4C63.1,88,59.5,87.9,56,87.9z"/>
	<path class="st0" d="M66.9,83.1c0.6,0,1.2-0.1,1.8-0.1c0.2,0,0.4,0,0.6,0c0.1,0,0.1,0,0.2,0c0.8,0,1.3,0.5,1.5,1.1
		c3.4-3.8,5.4-8.8,5.4-14.2c0-11.8-9.6-21.4-21.4-21.4S33.7,58,33.7,69.8c0,5.2,1.9,10,4.9,13.7c0.3-0.2,0.7-0.2,1.1-0.2
		c0.7,0.1,1.3,0.1,2,0.2v-19h-5.1l17.7-15l17.7,15h-5.1V83.1z"/>
	<g id="cGZn9b.tif_5_">
		<g>
			<g>
				<path class="st1" d="M61.4,22.3c-0.3-0.2-0.4-0.4-0.4-0.6c0-0.3,0.2-0.5,0.4-0.7c0,0,0.1,0,0.1-0.1c0.1,0,0.1-0.1,0.2-0.1
					c0.9-0.6,1.3-1.7,0.8-2.7c-0.2-0.4-0.4-0.8-0.7-1.2c-0.4-0.7-1.1-1-1.8-0.9c-0.4,0-0.8,0.2-1.2,0.4c-0.3,0.1-0.5,0.2-0.8,0
					c-0.2-0.1-0.3-0.3-0.4-0.6c0-0.1,0-0.2,0-0.2c0-0.1,0-0.1,0-0.2c0-1-0.7-1.7-1.6-1.9c-0.4-0.1-0.7-0.1-1.1-0.1l-0.1,0h0
					c-1.6,0-2.3,0.7-2.4,2.3c0,0.3-0.1,0.6-0.4,0.7c-0.2,0.1-0.5,0.1-0.8-0.1c-0.3-0.2-0.7-0.3-1.1-0.4c-0.7,0-1.4,0.3-2,1
					c-0.5,0.6-1,1.6-0.8,2.5c0.2,0.8,0.7,1.2,1.2,1.5c0.3,0.2,0.4,0.4,0.4,0.6c0,0.3-0.2,0.5-0.4,0.7l-0.1,0.1c0,0-0.1,0.1-0.1,0.1
					c-1,0.6-1.3,1.7-0.8,2.8c0.1,0.1,0.1,0.2,0.2,0.3c0.1,0.1,0.1,0.2,0.2,0.4c0.3,0.6,0.8,1.1,1.4,1.2c0.6,0.2,1.3,0.1,1.9-0.3
					c0.2-0.2,0.5-0.2,0.7-0.1c0.2,0.1,0.4,0.4,0.4,0.7c0,0.1,0,0.1,0,0.2c0,0.1,0,0.1,0,0.2c0,1,0.7,1.7,1.6,1.9
					c0.4,0.1,0.7,0.1,1.1,0.1l0.1,0h0c1.6,0,2.3-0.7,2.4-2.3c0-0.3,0.1-0.6,0.4-0.7c0.2-0.1,0.5-0.1,0.8,0.1
					c0.2,0.1,0.5,0.2,0.7,0.3c0.1,0,0.2,0.1,0.3,0.1l0.4,0.1l0.1-0.2c0.1,0,0.1,0,0.2,0c0.8-0.2,1.4-1,1.6-1.4
					c0.5-0.7,0.7-1.5,0.5-2.1C62.4,23,61.9,22.6,61.4,22.3z M55,19c3.3,0,3.3,5.2,0,5.2C51.6,24.2,51.6,19,55,19z"/>
			</g>
		</g>
	</g>
	<g>
		<path class="st2" d="M96.9,51.8l-14.4,0c-1.7-0.2-3-1.7-3-3.5c0-1.9,1.6-3.5,3.5-3.5c0,0,0,0,0,0c0.8-1.8,2.6-3,4.6-3
			c2.7,0,5,2.2,5,4.9c0.2,0,0.4,0,0.6,0c2.1,0,3.9,1.7,3.9,3.9c0,0.3,0,0.7-0.1,1L96.9,51.8z"/>
	</g>
	<polygon class="st2" points="49.1,47.3 59.6,47.3 59.6,54.5 54.5,50.1 49.1,54.3 	"/>
	<circle class="st2" cx="54.3" cy="63.7" r="3.7"/>
	<rect x="45" y="73.4" class="st1" width="18.6" height="9.4"/>
	<ellipse class="st2" cx="22.1" cy="48.5" rx="4.7" ry="7.2"/>
	<g>
		<g>
			<g>
				<path class="st3" d="M22.1,60.8c-7.3,0-13.2-5.9-13.2-13.2c0-7.3,5.9-13.2,13.2-13.2c7.3,0,13.2,5.9,13.2,13.2
					C35.4,54.9,29.4,60.8,22.1,60.8z M22.1,35.2c-6.8,0-12.4,5.6-12.4,12.4c0,6.8,5.6,12.4,12.4,12.4c6.8,0,12.4-5.6,12.4-12.4
					C34.5,40.8,29,35.2,22.1,35.2z"/>
			</g>
			<g>
				<path class="st3" d="M87.9,60.8c-7.3,0-13.2-5.9-13.2-13.2c0-7.3,5.9-13.2,13.2-13.2c7.3,0,13.2,5.9,13.2,13.2
					C101.1,54.9,95.2,60.8,87.9,60.8z M87.9,35.2c-6.8,0-12.4,5.6-12.4,12.4C75.5,54.4,81,60,87.9,60c6.8,0,12.4-5.6,12.4-12.4
					C100.3,40.8,94.7,35.2,87.9,35.2z"/>
			</g>
			<g>
				<path class="st3" d="M55,34.9c-7.3,0-13.2-5.9-13.2-13.2c0-7.3,5.9-13.2,13.2-13.2c7.3,0,13.2,5.9,13.2,13.2
					C68.2,29,62.3,34.9,55,34.9z M55,9.3c-6.8,0-12.4,5.6-12.4,12.4S48.2,34.1,55,34.1c6.8,0,12.4-5.6,12.4-12.4S61.8,9.3,55,9.3z"
					/>
			</g>
			<g>
				<g>
					<g>
						<path class="st4" d="M87.4,78.4l-1.6-0.5c-0.1,0.4-0.3,0.9-0.5,1.3c-0.2,0.4-0.3,0.8-0.5,1.3l1.5,0.7c0.2-0.4,0.4-0.9,0.5-1.3
							C87.1,79.3,87.3,78.9,87.4,78.4z"/>
					</g>
					<g>
						<path class="st4" d="M88.7,73.5l-1.6-0.3L87,73.8l-0.2,0.7c-0.1,0.4-0.2,0.9-0.3,1.3l1.6,0.4c0.1-0.5,0.2-0.9,0.3-1.4l0.2-0.7
							L88.7,73.5z"/>
					</g>
					<g>
						<path class="st4" d="M89.3,68.4l-1.7-0.1c0,0.5,0,0.9-0.1,1.4c0,0.5-0.1,0.9-0.1,1.4l1.6,0.2c0.1-0.5,0.1-0.9,0.1-1.4
							C89.2,69.4,89.3,68.9,89.3,68.4z"/>
					</g>
				</g>
				<g>
					<g>
						<path class="st4" d="M79.4,91.4l-1.2-1.2c-0.6,0.6-1.3,1.3-2,1.8l1.1,1.3C78,92.7,78.7,92.1,79.4,91.4z"/>
					</g>
					<g>
						<path class="st4" d="M82.7,87.5l-1.3-1c-0.3,0.4-0.6,0.7-0.8,1.1c-0.3,0.4-0.6,0.7-0.9,1l1.3,1.1c0.3-0.4,0.6-0.7,0.9-1.1
							C82.1,88.3,82.4,87.9,82.7,87.5z"/>
					</g>
					<g>
						<path class="st4" d="M85.4,83.2l-1.5-0.8c-0.2,0.4-0.4,0.8-0.7,1.2l-0.3,0.6l-0.4,0.6l1.4,0.9l0.4-0.6l0.4-0.6
							C84.9,84,85.2,83.6,85.4,83.2z"/>
					</g>
				</g>
				<g>
					<g>
						<path class="st4" d="M66.5,99.6L65.9,98l-1.3,0.4l-1.3,0.4l0.4,1.6l1.4-0.4C65.6,99.9,66,99.7,66.5,99.6z"/>
					</g>
					<g>
						<polygon class="st4" points="71.2,97.5 70.4,96 69.2,96.7 67.9,97.2 68.6,98.7 69.9,98.2 						"/>
					</g>
					<g>
						<path class="st4" d="M75.5,94.8l-1-1.3l-1.1,0.8c-0.4,0.3-0.8,0.5-1.1,0.7l0.9,1.4c0.4-0.3,0.8-0.5,1.2-0.8L75.5,94.8z"/>
					</g>
				</g>
				<g>
					<g>
						<path class="st4" d="M51.3,101.3l0.2-1.7l-1.3-0.2c-0.4-0.1-0.9-0.2-1.3-0.2l-0.3,1.6c0.5,0.1,0.9,0.2,1.4,0.2L51.3,101.3z"/>
					</g>
					<g>
						<polygon class="st4" points="56.4,101.5 56.4,99.9 55,99.9 53.6,99.9 53.6,101.5 55,101.5 						"/>
					</g>
					<g>
						<path class="st4" d="M61.5,100.9l-0.3-1.6c-0.4,0.1-0.9,0.2-1.3,0.2l-1.3,0.2l0.2,1.7l1.4-0.2C60.6,101.1,61,101,61.5,100.9z"
							/>
					</g>
				</g>
				<g>
					<g>
						<path class="st4" d="M36.9,96.4l0.9-1.4c-0.4-0.2-0.8-0.5-1.1-0.7l-1.1-0.8l-1,1.3l1.2,0.8C36.1,95.9,36.5,96.1,36.9,96.4z"/>
					</g>
					<g>
						<polygon class="st4" points="41.4,98.7 42.1,97.2 40.8,96.7 39.6,96 38.8,97.5 40.1,98.2 						"/>
					</g>
					<g>
						<polygon class="st4" points="46.2,100.4 46.7,98.8 45.3,98.4 44.1,98 43.5,99.6 44.9,100 						"/>
					</g>
				</g>
				<g>
					<g>
						<path class="st4" d="M26,85.6l1.4-0.9l-0.4-0.6l-0.3-0.6c-0.2-0.4-0.5-0.8-0.7-1.2l-1.5,0.8c0.2,0.4,0.5,0.8,0.7,1.3l0.4,0.6
							L26,85.6z"/>
					</g>
					<g>
						<path class="st4" d="M29.1,89.7l1.3-1.1c-0.3-0.3-0.6-0.7-0.9-1c-0.3-0.4-0.6-0.7-0.8-1.1l-1.3,1c0.3,0.4,0.6,0.8,0.9,1.1
							C28.5,89,28.8,89.4,29.1,89.7z"/>
					</g>
					<g>
						<path class="st4" d="M32.7,93.3l1.1-1.3c-0.7-0.6-1.3-1.2-2-1.8l-1.2,1.2C31.3,92,32,92.7,32.7,93.3z"/>
					</g>
				</g>
				<g>
					<g>
						<path class="st4" d="M20.9,71.2l1.6-0.2c-0.1-0.4-0.1-0.9-0.1-1.4c0-0.5-0.1-0.9-0.1-1.4l-1.7,0.1c0,0.5,0,1,0.1,1.4
							C20.8,70.3,20.9,70.8,20.9,71.2z"/>
					</g>
					<g>
						<path class="st4" d="M21.9,76.3l1.6-0.4c-0.1-0.4-0.2-0.9-0.3-1.3L23,73.8l-0.1-0.7l-1.6,0.3l0.1,0.7l0.2,0.7
							C21.7,75.3,21.8,75.8,21.9,76.3z"/>
					</g>
					<g>
						<path class="st4" d="M23.6,81.1l1.5-0.7c-0.2-0.4-0.4-0.8-0.5-1.3l-0.2-0.6l-0.2-0.6l-1.6,0.5l0.2,0.7l0.3,0.7
							C23.2,80.2,23.4,80.6,23.6,81.1z"/>
					</g>
				</g>
				<g>
					<g>
						<path class="st4" d="M20.7,66.1l1.7,0.1c0-0.5,0-0.9,0.1-1.4c0-0.5,0.1-0.9,0.1-1.4l-1.6-0.2c-0.1,0.5-0.1,0.9-0.1,1.4
							C20.8,65.1,20.7,65.6,20.7,66.1z"/>
					</g>
				</g>
				<g>
					<g>
						<path class="st4" d="M89.1,63.3l-1.6,0.2c0.1,0.4,0.1,0.9,0.1,1.4c0,0.5,0.1,0.9,0.1,1.4l1.7-0.1c0-0.5,0-1-0.1-1.4
							C89.2,64.2,89.1,63.7,89.1,63.3z"/>
					</g>
				</g>
			</g>
			<g>
				<g>
					<path class="st3" d="M66.9,83.6H41.7V64.4h-5.1l17.7-15l17.7,15h-5.1V83.6z M42.5,82.8h23.6V63.6h3.7L54.3,50.5L38.9,63.6h3.7
						V82.8z"/>
				</g>
				<g>
					<path class="st3" d="M54.3,67.7c-2.2,0-4-1.8-4-4c0-2.2,1.8-4,4-4c2.2,0,4,1.8,4,4C58.4,65.9,56.6,67.7,54.3,67.7z M54.3,60.4
						c-1.8,0-3.2,1.4-3.2,3.2c0,1.8,1.4,3.2,3.2,3.2c1.8,0,3.2-1.4,3.2-3.2C57.5,61.9,56.1,60.4,54.3,60.4z"/>
				</g>
				<g>
					<rect x="53.9" y="60" class="st3" width="0.8" height="7.2"/>
				</g>
				<g>
					<rect x="50.7" y="63.2" class="st3" width="7.2" height="0.8"/>
				</g>
				<g>
					<path class="st3" d="M64,83.6H44.6V70.5H64V83.6z M45.4,82.8h17.8V71.3H45.4V82.8z"/>
				</g>
				<g>
					<rect x="45" y="73.4" class="st3" width="18.6" height="0.8"/>
				</g>
				<g>
					<polygon class="st3" points="60,54.5 59.2,54.5 59.2,44.6 49.5,44.6 49.5,54.5 48.7,54.5 48.7,43.7 60,43.7 					"/>
				</g>
				<g>
					<rect x="49.1" y="46.9" class="st3" width="10.5" height="0.8"/>
				</g>
				<g>
					<path class="st3" d="M71.3,88.4h-34v-5.6h34V88.4z M38.2,87.6h32.3v-3.9H38.2V87.6z"/>
				</g>
			</g>
			<g>
				<g>
					<path class="st3" d="M22.1,55.9L22,55.8c-2.9-1.3-4.8-4.2-4.8-7.4c0-3.2,1.9-6.1,4.8-7.4l0.2-0.1l0.2,0.1
						c2.9,1.3,4.8,4.2,4.8,7.4c0,3.2-1.9,6.1-4.8,7.4L22.1,55.9z M22.1,41.8C19.6,43,18,45.6,18,48.4s1.6,5.4,4.2,6.6
						c2.5-1.2,4.2-3.8,4.2-6.6C26.3,45.6,24.7,43,22.1,41.8z"/>
				</g>
				<g>
					<rect x="21.7" y="41.3" class="st3" width="0.8" height="14.1"/>
				</g>
				<g>
					
						<rect x="19.8" y="44.5" transform="matrix(0.7533 -0.6577 0.6577 0.7533 -26.2725 24.9923)" class="st3" width="0.8" height="6"/>
				</g>
			</g>
			<g id="cGZn9b.tif_10_">
				<g>
					<g>
						<path class="st3" d="M55.2,29.9C55.2,29.9,55.2,29.9,55.2,29.9l-0.2,0c-0.4,0-0.7,0-1.1-0.1c-0.9-0.2-1.6-0.9-1.6-1.9
							c0-0.1,0-0.1,0-0.2c0-0.1,0-0.1,0-0.2c0-0.3-0.2-0.6-0.4-0.7c-0.2-0.1-0.5-0.1-0.7,0.1c-0.6,0.4-1.3,0.5-1.9,0.3
							C48.8,27,48.3,26.6,48,26c-0.1-0.1-0.1-0.3-0.2-0.4c-0.1-0.1-0.1-0.2-0.2-0.3c-0.5-1-0.2-2.2,0.8-2.8c0,0,0.1-0.1,0.1-0.1
							l0.1-0.1c0.3-0.2,0.4-0.4,0.4-0.7c0-0.2-0.2-0.5-0.4-0.6c-0.5-0.3-1-0.7-1.2-1.5c-0.2-0.9,0.2-1.9,0.8-2.5
							c0.6-0.7,1.3-1.1,2-1c0.4,0,0.8,0.2,1.1,0.4c0.3,0.2,0.6,0.2,0.8,0.1c0.2-0.1,0.3-0.4,0.4-0.7c0.1-1.6,0.8-2.3,2.4-2.3
							c0,0,0,0,0,0l0.1,0c0.4,0,0.7,0,1.1,0.1c0.9,0.2,1.5,0.9,1.6,1.9c0,0.1,0,0.1,0,0.2c0,0.1,0,0.2,0,0.2c0,0.3,0.2,0.5,0.4,0.6
							c0.2,0.1,0.5,0.1,0.8,0c0.4-0.2,0.8-0.4,1.2-0.4c0.7-0.1,1.3,0.2,1.8,0.9c0.2,0.4,0.5,0.8,0.7,1.2c0.5,1,0.2,2.1-0.8,2.7
							c-0.1,0-0.1,0.1-0.2,0.1c0,0-0.1,0-0.1,0.1c-0.3,0.2-0.4,0.4-0.4,0.7c0,0.2,0.2,0.5,0.4,0.6c0.5,0.3,1,0.7,1.2,1.5
							c0.1,0.6-0.1,1.3-0.5,2.1c-0.2,0.3-0.8,1.2-1.6,1.4c-0.1,0-0.1,0-0.2,0l-0.1,0.2l-0.4-0.1c-0.1,0-0.2-0.1-0.3-0.1
							c-0.2-0.1-0.5-0.2-0.7-0.3c-0.3-0.2-0.6-0.2-0.8-0.1c-0.2,0.1-0.3,0.4-0.4,0.7C57.6,29.2,56.8,29.9,55.2,29.9z M51.7,25.9
							c0.2,0,0.4,0.1,0.6,0.2c0.5,0.2,0.8,0.7,0.8,1.3c0,0.1,0,0.2,0,0.3c0,0.1,0,0.1,0,0.2c0,0.6,0.4,1.1,1,1.2
							c0.3,0.1,0.6,0.1,0.9,0.1l0.1,0c0,0,0,0,0,0c1.1,0,1.5-0.4,1.6-1.5c0-0.6,0.3-1.1,0.8-1.4c0.5-0.3,1.1-0.2,1.6,0.1
							c0.2,0.1,0.4,0.2,0.6,0.3c0,0,0.1,0,0.1,0l0.1,0c0,0,0.1,0,0.1,0c0.1,0,0.1,0,0.2,0c0.3-0.1,0.8-0.5,1.1-1
							c0.3-0.5,0.5-1.1,0.4-1.5c-0.1-0.4-0.3-0.7-0.8-1c-0.5-0.3-0.8-0.8-0.8-1.3c0-0.5,0.3-1.1,0.8-1.4c0,0,0.1-0.1,0.1-0.1
							c0,0,0.1,0,0.1-0.1c0.6-0.4,0.8-1.1,0.5-1.6c-0.2-0.4-0.4-0.8-0.6-1.1c-0.3-0.4-0.6-0.6-1-0.5c-0.3,0-0.6,0.1-0.9,0.3
							c-0.5,0.3-1.1,0.3-1.5,0c-0.4-0.2-0.7-0.7-0.8-1.2c0-0.1,0-0.2,0-0.3c0-0.1,0-0.1,0-0.2c0-0.6-0.4-1-0.9-1.1
							c-0.3-0.1-0.6-0.1-0.9-0.1l-0.1,0c0,0,0,0,0,0c-1.2,0-1.5,0.4-1.6,1.5c0,0.6-0.3,1.1-0.8,1.4c-0.5,0.3-1.1,0.3-1.6,0
							c-0.2-0.1-0.5-0.3-0.7-0.3c-0.4,0-0.9,0.3-1.3,0.7c-0.5,0.6-0.7,1.3-0.6,1.7c0.1,0.4,0.3,0.7,0.8,0.9c0.5,0.3,0.8,0.8,0.8,1.3
							c0,0.5-0.3,1.1-0.8,1.4l-0.2,0.1c-0.6,0.4-0.8,1.1-0.5,1.7c0.1,0.1,0.1,0.2,0.2,0.3c0.1,0.1,0.2,0.3,0.3,0.5
							c0.2,0.4,0.5,0.7,0.9,0.8c0.4,0.1,0.8,0,1.2-0.2C51.1,26,51.4,25.9,51.7,25.9z M55,24.9c-0.8,0-1.6-0.3-2.2-0.9
							c-0.6-0.6-1-1.4-1-2.3c0-0.8,0.3-1.6,0.9-2.3c0.6-0.6,1.4-1,2.3-1c0.9,0,1.6,0.3,2.3,0.9c0.6,0.6,1,1.4,1,2.3
							c0,0.8-0.3,1.6-0.9,2.3C56.7,24.5,55.9,24.9,55,24.9L55,24.9C55,24.9,55,24.9,55,24.9z M55,19.3C55,19.3,55,19.3,55,19.3
							c-0.6,0-1.2,0.3-1.7,0.7c-0.5,0.5-0.7,1.1-0.7,1.7c0,0.6,0.3,1.2,0.7,1.7c0.5,0.5,1,0.7,1.7,0.7l0,0c0.6,0,1.2-0.3,1.7-0.7
							c0.5-0.5,0.7-1.1,0.7-1.7c0-0.6-0.3-1.2-0.7-1.7C56.2,19.5,55.6,19.3,55,19.3z"/>
					</g>
				</g>
			</g>
			<g>
				<path class="st3" d="M96.9,51.8l-14.4,0c-1.7-0.2-3-1.7-3-3.5c0-1.9,1.6-3.5,3.5-3.5c0,0,0,0,0,0c0.8-1.8,2.6-3,4.6-3
					c2.7,0,5,2.2,5,4.9c0.2,0,0.4,0,0.6,0c2.1,0,3.9,1.7,3.9,3.9c0,0.3,0,0.7-0.1,1L96.9,51.8z M82.6,51h13.7c0-0.2,0-0.3,0-0.5
					c0-1.7-1.4-3.1-3.1-3.1c-0.3,0-0.6,0-0.9,0.1l-0.6,0.2l0.1-0.6c0-0.1,0-0.2,0-0.4c0-2.3-1.9-4.2-4.2-4.2c-1.8,0-3.4,1.1-4,2.8
					l-0.1,0.3l-0.3,0c-0.1,0-0.2,0-0.2,0c-1.5,0-2.7,1.2-2.7,2.7C80.3,49.6,81.2,50.8,82.6,51z"/>
			</g>
		</g>
	</g>
</g>
</svg>
