<?xml version="1.0" encoding="utf-8"?>
<!-- Generator: Adobe Illustrator 23.0.1, SVG Export Plug-In . SVG Version: 6.00 Build 0)  -->
<svg version="1.1" id="Layer_1" xmlns="http://www.w3.org/2000/svg" xmlns:xlink="http://www.w3.org/1999/xlink" x="0px" y="0px"
	 viewBox="0 0 110 110" style="enable-background:new 0 0 110 110;" xml:space="preserve">
<style type="text/css">
	.st0{fill:#797BF2;}
	.st1{fill:#D2D4FF;}
	.st2{fill:#FF227D;}
	.st3{fill:#6A6377;}
	.st4{fill:#9DA1EA;}
	.st5{fill-rule:evenodd;clip-rule:evenodd;fill:#6A6377;}
</style>
<g>
	<g>
		<path class="st0" d="M17.5,58l3.4-8.9l-6.1-0.2l11.8-11.8L23.2,46l6.1,0.2L17.5,58z"/>
	</g>
	<path class="st1" d="M68.3,53c0.2,0.5,0.3,1.1,0.3,1.7c0,0.2,0,0.4,0,0.6c0.1,0.5,0.1,1,0,1.5c0.4,1.6,0,3.4-1.2,4.5
		c-0.1,1.3-0.7,2.6-1.9,3.4c-1.3,2.6-2.6,5.2-3,8.2c0,0.4-0.1,0.8-0.2,1.1c0.3,0.2,0.5,0.4,0.7,0.6c0.2-0.1,0.4-0.1,0.6-0.1
		c0.4,0,0.9,0.2,1.2,0.5c0.3,0.3,0.4,0.7,0.5,1.2c0.1,0.6-0.1,1.2-0.5,1.6c-0.4,0.5-0.9,0.8-1.5,1c-0.5,0.2-1,0-1.4-0.2
		c-0.5,0.2-1.1,0.3-1.7,0.1c0,0,0,0,0,0c-0.2,0.1-0.5,0.2-0.8,0.3c-1.6,0.2-3.2,0.1-4.7-0.1c-2.3,0-4.7,0.1-7,0.3
		c-0.8,0.1-1.3-0.4-1.5-0.9c-1.3-0.4-2-2.3-0.5-3c0.8-0.4,1.7-0.6,2.6-0.6c-0.3-0.6-0.4-1.2-0.3-1.9c0-0.1,0-0.2,0-0.3
		c-0.2-0.2-0.3-0.4-0.5-0.6c-0.5-0.8-0.7-2-0.5-3c-0.1-0.1-0.1-0.2-0.1-0.4c-0.3-0.3-0.5-0.6-0.8-0.9c-0.3-0.4-0.4-0.9-0.5-1.4
		c-0.1-0.1-0.2-0.2-0.4-0.3c-0.5-0.5-0.9-1.2-1.1-2c-0.5-0.3-0.9-0.8-1.2-1.3c-0.4-0.6-0.6-1.3-0.6-1.9c-0.4-0.5-0.7-1-0.9-1.6
		c-0.3-0.9-0.2-2,0.2-2.9c-0.3-0.9-0.3-1.9-0.1-2.7c0-0.1,0-0.1,0.1-0.2c-4.8,3.9-7.8,9.9-7.8,16.6c0,11.8,9.6,21.5,21.5,21.5
		c11.8,0,21.5-9.6,21.5-21.5C76.5,63,73.3,56.9,68.3,53z"/>
	<g>
		<path class="st0" d="M89.3,55.4h-2.7v-1.9c-0.9-0.1-1.8-0.3-2.4-0.6l-0.3-0.2l0.7-2.8l0.5,0.2c0.3,0.1,1.3,0.6,2.4,0.6
			c0.5,0,1.2-0.1,1.2-0.7c0-0.3-0.1-0.6-1.5-1.1c-2.1-0.7-3.1-1.9-3.1-3.5c0-1.5,0.9-2.7,2.5-3.3v-2.4h2.7V42c0.7,0.1,1.4,0.2,2,0.5
			l0.3,0.1l-0.7,2.7l-0.4-0.2c-0.6-0.3-1.3-0.5-2-0.5c-0.7,0-1.1,0.2-1.1,0.6c0,0.4,0.3,0.6,1.7,1.1c2,0.7,3,1.9,3,3.5
			c0,1.6-1,2.8-2.6,3.4V55.4z"/>
	</g>
	<g>
		<path class="st2" d="M55,30.8l-5.4-8.3h2.9v-9.7h4.9v9.7h2.9L55,30.8z"/>
	</g>
	<path class="st2" d="M55,88L55,88c-4,0-7.3-3.3-7.3-7.3v-1.8h14.7v1.8C62.4,84.7,59.1,88,55,88z"/>
	<ellipse class="st0" cx="55" cy="58.8" rx="5.4" ry="8.2"/>
	<g>
		<g>
			<g>
				<path class="st3" d="M62.8,75H47.2v-0.4c0-3.6-1.2-7.1-3.4-9.9c-2.3-2.9-3.4-6.5-3.1-10.1C41.3,47.6,47,42,54,41.5
					c4-0.3,7.9,1.1,10.8,3.8c2.9,2.7,4.6,6.5,4.6,10.5c0,3.3-1.1,6.5-3.2,9c-2.2,2.7-3.4,6.2-3.4,9.8V75z M48,74.2l13.9,0
					c0.1-3.7,1.3-7.2,3.5-9.9c1.9-2.4,3-5.4,3-8.5c0-3.7-1.6-7.3-4.3-9.9c-2.8-2.6-6.4-3.9-10.2-3.6c-6.6,0.5-12,5.8-12.5,12.4
					c-0.3,3.5,0.8,6.9,2.9,9.6C46.7,67,47.9,70.5,48,74.2z"/>
			</g>
			<g>
				<path class="st3" d="M55,88.4c-4.3,0-7.8-3.5-7.8-7.8v-2.3h15.6v2.3C62.8,84.9,59.3,88.4,55,88.4z M48,79.1v1.5c0,3.8,3.1,7,7,7
					c3.8,0,7-3.1,7-7v-1.5H48z"/>
			</g>
			<g>
				<g>
					<path class="st4" d="M55,67.7l-0.2-0.1c-3.5-1.5-5.7-5-5.7-8.8c0-3.8,2.3-7.3,5.7-8.8L55,50l0.2,0.1c3.5,1.5,5.7,5,5.7,8.8
						c0,3.8-2.3,7.3-5.7,8.8L55,67.7z M55,50.9c-3.1,1.4-5.1,4.6-5.1,8c0,3.4,2,6.5,5.1,8c3.1-1.4,5.1-4.6,5.1-8
						C60.1,55.4,58.1,52.3,55,50.9z"/>
				</g>
				<g>
					<rect x="54.6" y="50.4" class="st4" width="0.8" height="23.9"/>
				</g>
				<g>
					
						<rect x="52.2" y="54.2" transform="matrix(0.7533 -0.6577 0.6577 0.7533 -25.027 48.8895)" class="st4" width="0.8" height="7.2"/>
				</g>
			</g>
			<g>
				<path class="st3" d="M63.3,79.1H46.7c-1.4,0-2.5-1.1-2.5-2.5c0-1.4,1.1-2.5,2.5-2.5h16.7c1.4,0,2.5,1.1,2.5,2.5
					C65.8,78,64.7,79.1,63.3,79.1z M46.7,75c-0.9,0-1.6,0.7-1.6,1.6c0,0.9,0.7,1.6,1.6,1.6h16.7c0.9,0,1.6-0.7,1.6-1.6
					c0-0.9-0.7-1.6-1.6-1.6H46.7z"/>
			</g>
			<g>
				<g>
					<path class="st3" d="M22.1,60.8c-7.3,0-13.3-5.9-13.3-13.3c0-7.3,5.9-13.3,13.3-13.3c7.3,0,13.3,5.9,13.3,13.3
						C35.3,54.9,29.4,60.8,22.1,60.8z M22.1,35.1c-6.9,0-12.4,5.6-12.4,12.4c0,6.9,5.6,12.4,12.4,12.4c6.9,0,12.4-5.6,12.4-12.4
						C34.5,40.7,28.9,35.1,22.1,35.1z"/>
				</g>
				<g>
					<path class="st0" d="M17.5,58l3.4-8.9l-6.1-0.2l11.8-11.8L23.2,46l6.1,0.2L17.5,58z M16.7,48.1l5.4,0.2l-2.4,6.4l7.7-7.7
						L22,46.8l2.4-6.4L16.7,48.1z"/>
				</g>
				<g>
					<path class="st0" d="M89.3,55.4h-2.7v-1.9c-0.9-0.1-1.8-0.3-2.4-0.6l-0.3-0.2l0.7-2.8l0.5,0.2c0.3,0.1,1.3,0.6,2.4,0.6
						c0.5,0,1.2-0.1,1.2-0.7c0-0.3-0.1-0.6-1.5-1.1c-2.1-0.7-3.1-1.9-3.1-3.5c0-1.5,0.9-2.7,2.5-3.3v-2.4h2.7V42
						c0.7,0.1,1.4,0.2,2,0.5l0.3,0.1l-0.7,2.7l-0.4-0.2c-0.6-0.3-1.3-0.5-2-0.5c-0.7,0-1.1,0.2-1.1,0.6c0,0.4,0.3,0.6,1.7,1.1
						c2,0.7,3,1.9,3,3.5c0,1.6-1,2.8-2.6,3.4V55.4z M87.4,54.5h1.1v-2l0.3-0.1c1.5-0.4,2.3-1.3,2.3-2.7c0-1.3-0.7-2.1-2.4-2.7
						c-1.2-0.4-2.2-0.8-2.2-1.9c0-0.7,0.6-1.4,1.9-1.4c0.7,0,1.3,0.1,1.9,0.3l0.3-1.1c-0.5-0.2-1.1-0.3-1.7-0.3l-0.4,0v-2.1h-1.1
						v2.2l-0.3,0.1c-1.4,0.4-2.2,1.3-2.2,2.6c0,1.2,0.8,2.1,2.6,2.7c1,0.4,2,0.8,2,1.9c0,0.7-0.5,1.5-2.1,1.5c-1,0-1.8-0.3-2.3-0.5
						l-0.3,1.1c0.5,0.2,1.3,0.4,2.2,0.4l0.4,0V54.5z"/>
				</g>
				<g>
					<path class="st3" d="M87.9,60.8c-7.3,0-13.3-5.9-13.3-13.3c0-7.3,5.9-13.3,13.3-13.3c7.3,0,13.3,5.9,13.3,13.3
						C101.2,54.9,95.3,60.8,87.9,60.8z M87.9,35.1c-6.9,0-12.4,5.6-12.4,12.4c0,6.9,5.6,12.4,12.4,12.4c6.9,0,12.4-5.6,12.4-12.4
						C100.4,40.7,94.8,35.1,87.9,35.1z"/>
				</g>
			</g>
			<g>
				<path class="st3" d="M55,34.8c-7.3,0-13.3-5.9-13.3-13.3c0-7.3,5.9-13.3,13.3-13.3c7.3,0,13.3,5.9,13.3,13.3
					C68.3,28.9,62.3,34.8,55,34.8z M55,9.1c-6.9,0-12.4,5.6-12.4,12.4C42.6,28.4,48.1,34,55,34c6.9,0,12.4-5.6,12.4-12.4
					C67.4,14.7,61.9,9.1,55,9.1z"/>
			</g>
			<g>
				<path class="st2" d="M55,30.8l-5.4-8.3h2.9v-9.7h4.9v9.7h2.9L55,30.8z M51.1,23.3l3.9,6l3.9-6h-2.2v-9.7h-3.3v9.7H51.1z"/>
			</g>
			<g>
				<g>
					<g>
						<path class="st5" d="M87.5,78.5l-1.6-0.5c-0.1,0.4-0.3,0.9-0.5,1.3c-0.2,0.4-0.3,0.8-0.5,1.3l1.5,0.7c0.2-0.4,0.4-0.9,0.6-1.3
							C87.2,79.4,87.4,78.9,87.5,78.5z"/>
					</g>
					<g>
						<path class="st5" d="M88.8,73.5l-1.6-0.3l-0.1,0.7l-0.2,0.7c-0.1,0.4-0.2,0.9-0.3,1.3l1.6,0.4c0.1-0.5,0.2-0.9,0.3-1.4
							l0.2-0.7L88.8,73.5z"/>
					</g>
					<g>
						<path class="st5" d="M89.4,68.4l-1.7-0.1c0,0.5,0,0.9-0.1,1.4c0,0.5-0.1,0.9-0.1,1.4l1.7,0.2c0.1-0.5,0.1-0.9,0.1-1.4
							C89.3,69.4,89.4,68.9,89.4,68.4z"/>
					</g>
				</g>
				<g>
					<g>
						<path class="st5" d="M79.4,91.5l-1.2-1.2c-0.6,0.6-1.3,1.3-2,1.9l1.1,1.3C78.1,92.8,78.7,92.2,79.4,91.5z"/>
					</g>
					<g>
						<path class="st5" d="M82.8,87.6l-1.3-1c-0.3,0.4-0.6,0.7-0.8,1.1c-0.3,0.4-0.6,0.7-0.9,1l1.3,1.1c0.3-0.4,0.6-0.7,0.9-1.1
							C82.2,88.3,82.5,88,82.8,87.6z"/>
					</g>
					<g>
						<path class="st5" d="M85.5,83.2L84,82.5c-0.2,0.4-0.4,0.8-0.7,1.2L83,84.2l-0.4,0.6l1.4,0.9l0.4-0.6l0.4-0.6
							C85,84.1,85.3,83.7,85.5,83.2z"/>
					</g>
				</g>
				<g>
					<g>
						<path class="st5" d="M66.5,99.7l-0.6-1.6l-1.3,0.4l-1.3,0.4l0.4,1.6l1.4-0.4C65.6,100,66,99.8,66.5,99.7z"/>
					</g>
					<g>
						<polygon class="st5" points="71.2,97.6 70.4,96.2 69.2,96.8 68,97.3 68.6,98.9 69.9,98.3 						"/>
					</g>
					<g>
						<path class="st5" d="M75.5,94.9l-1-1.3l-1.1,0.8c-0.4,0.3-0.8,0.5-1.1,0.7l0.9,1.4c0.4-0.3,0.8-0.5,1.2-0.8L75.5,94.9z"/>
					</g>
				</g>
				<g>
					<g>
						<path class="st5" d="M51.3,101.5l0.2-1.7l-1.4-0.2c-0.4-0.1-0.9-0.2-1.3-0.2l-0.3,1.6c0.5,0.1,0.9,0.2,1.4,0.2L51.3,101.5z"/>
					</g>
					<g>
						<polygon class="st5" points="56.4,101.6 56.4,100 55,100 53.6,100 53.6,101.6 55,101.7 						"/>
					</g>
					<g>
						<path class="st5" d="M61.5,101l-0.3-1.6c-0.4,0.1-0.9,0.2-1.3,0.2l-1.4,0.2l0.2,1.7l1.4-0.2C60.6,101.2,61,101.1,61.5,101z"/>
					</g>
				</g>
				<g>
					<g>
						<path class="st5" d="M36.8,96.5l0.9-1.4c-0.4-0.2-0.8-0.5-1.1-0.7l-1.1-0.8l-1,1.3l1.2,0.8C36,96,36.4,96.2,36.8,96.5z"/>
					</g>
					<g>
						<polygon class="st5" points="41.4,98.9 42,97.3 40.8,96.8 39.6,96.1 38.8,97.6 40.1,98.3 						"/>
					</g>
					<g>
						<polygon class="st5" points="46.2,100.5 46.6,98.9 45.3,98.5 44,98.1 43.5,99.7 44.8,100.1 						"/>
					</g>
				</g>
				<g>
					<g>
						<path class="st5" d="M26,85.7l1.4-0.9L27,84.2l-0.3-0.6c-0.2-0.4-0.5-0.8-0.7-1.2l-1.5,0.8c0.2,0.4,0.5,0.8,0.7,1.3l0.4,0.6
							L26,85.7z"/>
					</g>
					<g>
						<path class="st5" d="M29,89.8l1.3-1.1c-0.3-0.3-0.6-0.7-0.9-1c-0.3-0.4-0.6-0.7-0.8-1.1l-1.3,1c0.3,0.4,0.6,0.8,0.9,1.1
							C28.4,89.1,28.7,89.4,29,89.8z"/>
					</g>
					<g>
						<path class="st5" d="M32.7,93.4l1.1-1.3c-0.7-0.6-1.4-1.2-2-1.9l-1.2,1.2C31.2,92.1,31.9,92.8,32.7,93.4z"/>
					</g>
				</g>
				<g>
					<g>
						<path class="st5" d="M20.8,71.3l1.7-0.2c-0.1-0.4-0.1-0.9-0.1-1.4c0-0.5-0.1-0.9-0.1-1.4l-1.7,0.1c0,0.5,0,1,0.1,1.4
							C20.7,70.3,20.8,70.8,20.8,71.3z"/>
					</g>
					<g>
						<path class="st5" d="M21.8,76.3l1.6-0.4c-0.1-0.4-0.2-0.9-0.3-1.3l-0.2-0.7l-0.1-0.7l-1.6,0.3l0.1,0.7l0.2,0.7
							C21.6,75.4,21.7,75.9,21.8,76.3z"/>
					</g>
					<g>
						<path class="st5" d="M23.5,81.1l1.5-0.7c-0.2-0.4-0.4-0.8-0.5-1.3l-0.3-0.6L24,77.9l-1.6,0.5l0.2,0.7l0.3,0.7
							C23.1,80.3,23.3,80.7,23.5,81.1z"/>
					</g>
				</g>
				<g>
					<g>
						<path class="st5" d="M20.6,66.1l1.7,0.1c0-0.5,0-0.9,0.1-1.4c0-0.5,0.1-0.9,0.1-1.4l-1.7-0.2c-0.1,0.5-0.1,0.9-0.1,1.4
							C20.7,65.1,20.6,65.6,20.6,66.1z"/>
					</g>
				</g>
				<g>
					<g>
						<path class="st5" d="M89.2,63.3l-1.7,0.2c0.1,0.4,0.1,0.9,0.1,1.4c0,0.5,0.1,0.9,0.1,1.4l1.7-0.1c0-0.5,0-1-0.1-1.4
							C89.3,64.2,89.2,63.7,89.2,63.3z"/>
					</g>
				</g>
			</g>
		</g>
	</g>
</g>
</svg>
