<?xml version="1.0" encoding="utf-8"?>
<!-- Generator: Adobe Illustrator 25.2.0, SVG Export Plug-In . SVG Version: 6.00 Build 0)  -->
<svg version="1.1" id="Calque_1" xmlns="http://www.w3.org/2000/svg" xmlns:xlink="http://www.w3.org/1999/xlink" x="0px" y="0px"
	 viewBox="0 0 300 300" style="enable-background:new 0 0 300 300;" xml:space="preserve">
<style type="text/css">
	.st0{fill:#BDFFBD;}
	.st1{fill:#36D639;}
	.st2{fill:#231F20;}
	.st3{fill:#FFFFFF;}
	.st4{fill:#333333;}
</style>
<rect x="0.4" y="0.4" class="st0" width="299.6" height="299.6"/>
<g>
	<path class="st1" d="M118,112c-11.1-0.3-21,7.4-27.2,16.5c-8.8,13-12.1,29.4-9.5,44.9c2.6,15.5,10.9,29.8,22.7,40.1
		c12.4,11,30.7,17.5,45.8,10.8c4.3,11.8,18.8,17.5,31.1,15c12.3-2.6,22.3-11.6,29.6-21.8c18.6-25.9,22.4-61.7,9.8-91
		c-4.6-10.6-11.6-20.7-22.1-25.5c-12.4-5.7-26.9-2.7-40.2,0.4c14.7-4.3,27.1-15.6,32.9-29.7c5.8-14.2,4.8-30.9-2.7-44.3
		c0,7.7-9.4,11-16.5,13.9c-21.4,8.8-34.3,30.8-42.4,52.5c-2.8,7.6-6,16.2-13.4,19.5L118,112z"/>
	<g>
		<path class="st2" d="M171.3,242.7c-1.4,0-2.7-0.1-3.9-0.3c-3.1-0.6-6-1.9-8.8-3.2c-2.7-1.2-5.4-2.5-8.3-3c-1.3-0.3-2.6-0.4-4-0.4
			c-3.9,0-7.8,1-11.5,2l-0.5,0.1c-2.5,0.6-4.8,1.2-7.2,1.2c-0.3,0-0.6,0-0.8,0c-1.7-0.1-3.2-0.6-4.7-1.1c-0.5-0.2-1.1-0.4-1.6-0.5
			c-0.1,0-0.1,0-0.2,0c-0.3,0-0.6-0.1-1-0.2c-30.6-9.5-51.3-39.3-51.5-74.1c-0.1-16.1,5.3-30.4,15.1-40.3c9-9,21.1-13.8,35.1-13.8
			l0.6,0c0.2,0,0.4,0.1,0.5,0.2c0.1-0.2,0.2-0.3,0.3-0.4c17-11.2,34.7-17.1,51-17.1c3,0,6,0.2,8.9,0.6c8.4-3.8,14.3-11,17.2-20.9
			c4.2-14.2,1.4-32.8-6.7-45.5l-0.2-0.2l0.1-0.5c0.1-0.2,0.3-0.3,0.6-0.3h0.2l0.3,0.3c8.1,10.7,11.3,28,7.9,43.1
			c-2.5,11.1-8.3,19.7-16.5,24.5c2.4,0.4,4.6,0.9,6.6,1.6c21.4,6.4,35.9,22.6,40.6,45.7c2.1,10.3,2.7,21.1,1.6,32.1
			c-2.1,21.8-10.2,40.8-22.8,53.5c-6.9,7-15.4,12.1-24.6,14.8C179.9,241.6,175.6,242.7,171.3,242.7L171.3,242.7z M145.6,233.7
			c5.2,0,10.3,1.2,14.8,3.5c3.6,1.8,5.9,2.9,9.2,2.9c0.8,0,1.7-0.1,2.6-0.2c5.3-0.8,12.1-2,18.2-4.9c5.3-2.5,10-6.5,14.3-10.4
			c7.9-7.1,14.4-16.9,18.7-28.3c6.4-16.9,7.8-36,4.2-53.8c-5-24-20.9-42-41.6-47.1c-2.1-0.5-4.3-0.9-6.9-1.2l-0.3,0.1
			c-0.3,0.1-0.6,0.2-0.8,0.2c-0.4,0-0.6-0.3-0.7-0.4c0-0.1-0.1-0.1-0.1-0.2c-1.8-0.2-3.7-0.2-5.6-0.2c-20,0-39.1,9-51.6,16.5
			l-0.1,0.1l-0.3,0.1c-0.3,0-0.5-0.1-0.7-0.3c-0.1,0.2-0.3,0.4-0.6,0.4c-15,0.8-27.6,6.4-36.4,16.3c-9.1,10.2-13.6,24.5-12.6,40.3
			c2,32.4,22.1,60,50,68.7c0.7,0.2,1.1,0.4,1.3,0.7c1.9,0.3,4,0.6,6.1,0.6c0.9,0,1.8-0.1,2.6-0.2c1.8-0.3,3.5-0.8,5.2-1.4
			c0.9-0.3,1.8-0.6,2.8-0.8C140,234.1,142.8,233.7,145.6,233.7z"/>
		<path class="st2" d="M228.8,140.1c-4.6-22-18.5-38.8-40.3-45.3c-2.6-0.8-5.2-1.3-7.9-1.8c22.6-11.8,23.3-49.3,9.5-67.5
			c-0.2-0.2-0.5,0-0.4,0.2c12.9,19.9,13.4,56.1-10.8,67c-21-2.9-42,4.9-59.7,16.5c-0.4,0.3,0,1,0.4,0.7c17-10.2,37.8-18.2,58-16.3
			c-0.3,0.4,0,0.7,0.8,0.4c0.1-0.1,0.3-0.1,0.4-0.2c2.4,0.3,4.7,0.7,7.1,1.2c22.4,5.5,37.3,25,41.9,47.5c3.7,17.8,2.2,37-4.2,54
			c-4,10.7-10.2,20.8-18.8,28.4c-4.3,3.9-9.1,8-14.5,10.5c-5.7,2.7-12.1,4-18.3,4.9c-5.1,0.7-7.8-0.5-12.1-2.8
			c-6.9-3.5-15.2-4.4-22.7-2.4c-2.7,0.7-5.3,1.8-8.1,2.2c-3,0.4-6.1,0-9.1-0.5c0-0.1-0.3-0.4-1.1-0.7c-29.7-9.2-48.5-38.7-50.4-69.1
			c-1.9-31.3,17.1-55.3,49.4-57c0.4,0,0.4-0.6,0-0.6c-31.5-0.3-50.6,23.6-50.4,53.7c0.2,33,19,63.7,51.2,73.7
			c0.6,0.2,0.9,0.2,1.1,0.2c2,0.6,3.9,1.5,6.2,1.6c2.8,0.1,5.3-0.5,7.9-1.1c5.3-1.4,10.7-2.8,16.2-1.7c5.9,1.2,11.1,5.1,17.1,6.2
			c5.2,1,10.9-0.3,15.9-1.8c9.2-2.7,17.6-7.9,24.4-14.7c13.9-14,20.8-33.9,22.7-53.3C231.5,161.5,231,150.6,228.8,140.1z"/>
		<path class="st2" d="M142,242.3l-0.2-0.1c-1.4-0.5-2-1.9-1.9-3.1c0.1-1.4,0.9-2.4,2.1-2.7c0,0,0.1,0,0.1,0c0.6,0,0.9,0.3,1,0.7
			c0.1,0.4-0.2,0.8-0.6,1c-0.5,0.1-0.7,0.7-0.7,1.2c0,0.4,0.2,0.9,0.7,1.1c0.5,0.1,0.8,0.6,0.7,1.1C143,242,142.6,242.3,142,242.3
			L142,242.3z"/>
		<path class="st2" d="M142.2,240.8c-1.4-0.4-1.3-2.7,0.1-3.1c0.5-0.2,0.3-0.9-0.2-0.8c-2.3,0.6-2.3,4.2-0.1,4.9
			C142.6,242.1,142.9,241,142.2,240.8z"/>
		<path class="st2" d="M145.4,243.3c-0.3,0-0.5-0.1-0.7-0.3c-0.2-0.2-0.3-0.4-0.3-0.7c0-2.2,0.1-4.3,0.2-6.5c0-0.4,0.3-0.7,0.7-0.7
			c0.4,0,0.7,0.3,0.8,0.7c0.1,2.2,0.1,4.3,0.2,6.5c0,0.3-0.1,0.5-0.3,0.7C145.9,243.2,145.6,243.3,145.4,243.3L145.4,243.3z"/>
		<path class="st2" d="M145.1,235.9c-0.1,2.2-0.1,4.3-0.2,6.5c0,0.6,1,0.6,1,0c0-2.2-0.1-4.3-0.2-6.5
			C145.6,235.5,145.1,235.5,145.1,235.9z"/>
		<path class="st2" d="M148.5,243.4c-0.3,0-0.6-0.2-0.8-0.4c-1.2-1.9-1.5-4.1-0.8-6.2c0.1-0.3,0.4-0.5,0.7-0.5
			c0.2,0,0.4,0.1,0.6,0.3l0.1,0.2l0,0.4c-0.4,1.7-0.1,3.4,1,4.8c0.2,0.3,0.2,0.6,0.1,0.9C149.2,243.2,148.8,243.4,148.5,243.4
			L148.5,243.4z"/>
		<path class="st2" d="M147.9,237c0.1-0.3-0.4-0.4-0.5-0.1c-0.7,2-0.4,4,0.7,5.8c0.3,0.5,1.2,0,0.8-0.5
			C147.8,240.7,147.4,238.9,147.9,237z"/>
		<path class="st2" d="M150.6,244.5c-0.4,0-0.7-0.2-0.8-0.5c-1.2-2.6-1.4-5.1-0.7-7.2c0.1-0.3,0.4-0.5,0.7-0.5
			c0.2,0,0.4,0.1,0.6,0.3c0.1,0.2,0.2,0.4,0.2,0.6c-0.4,2.4,0,4.3,1,5.9c0.2,0.3,0.2,0.6,0.1,1C151.4,244.3,151,244.5,150.6,244.5
			L150.6,244.5z"/>
		<path class="st2" d="M150.1,237c0.1-0.4-0.4-0.5-0.6-0.2c-0.8,2.3-0.3,4.7,0.7,6.9c0.3,0.6,1.3,0,0.9-0.6
			C149.9,241.4,149.7,239.2,150.1,237z"/>
		<path class="st2" d="M153.8,242.4c-0.5,0-0.9-0.3-1-0.8c-0.2-0.8-0.4-1.6-0.6-2.4l-0.2-0.9c-0.1-0.3,0-0.5,0.1-0.7
			c0.2-0.2,0.4-0.3,0.7-0.3c0.4,0,0.7,0.2,0.8,0.6l0.3,0.9c0.3,0.8,0.6,1.6,0.9,2.3c0.1,0.3,0.1,0.6-0.1,0.9
			C154.5,242.2,154.2,242.4,153.8,242.4L153.8,242.4z"/>
		<path class="st2" d="M153.1,238c-0.2-0.5-0.9-0.3-0.8,0.2c0.3,1.1,0.6,2.2,0.9,3.3c0.2,0.8,1.5,0.4,1.2-0.3
			C154,240.1,153.6,239.1,153.1,238z"/>
		<path class="st2" d="M155.9,242.6c-0.4,0-0.8-0.2-1-0.6c-0.6-1.2-1.3-2.3-1.8-3.5c-0.2-0.3-0.1-0.6,0-0.9c0.2-0.3,0.5-0.4,0.8-0.4
			c0.3,0,0.6,0.1,0.8,0.4c0.8,1.1,1.5,2.1,2.3,3.2c0.2,0.3,0.3,0.8,0.1,1.1C156.8,242.3,156.4,242.6,155.9,242.6L155.9,242.6z"/>
		<path class="st2" d="M154.3,237.9c-0.4-0.5-1.1-0.1-0.8,0.5c0.6,1.2,1.2,2.3,1.8,3.5c0.4,0.8,1.7,0,1.2-0.7
			C155.9,240,155.1,238.9,154.3,237.9z"/>
		<path class="st2" d="M119.7,109.2c-0.4,0-0.8-0.2-1.1-0.5c-0.2-0.3-0.3-0.7-0.2-1.1c1.6-7.1-1.3-18.8-6.9-27.8
			c-4.1-6.5-9.1-10.7-14-11.8l-0.4-0.1L97,67.3c0-0.3,0.3-0.6,0.6-0.6c7.5,0.9,12,6.6,15.7,12.7c5,8.2,10.1,17.8,7.6,28.8
			C120.8,108.8,120.3,109.2,119.7,109.2L119.7,109.2z"/>
		<path class="st2" d="M120.5,108.1c2.4-10.4-2.2-19.7-7.6-28.4c-3.6-5.9-8-11.6-15.3-12.5c-0.2,0-0.2,0.3,0,0.3
			c13.9,3.1,24.1,27.9,21.3,40.1C118.6,108.7,120.2,109.2,120.5,108.1z"/>
		<path class="st2" d="M94.4,72.7c-0.4,0-0.7-0.3-0.8-0.7c-0.1-1.9,1-3.5,2.8-3.8h0.4l0.2,0.4l0.1,0.4l-0.4,0.2
			c-1,0.3-1.9,1.4-1.6,2.6c0.1,0.2,0,0.5-0.1,0.7C94.8,72.6,94.6,72.7,94.4,72.7L94.4,72.7z"/>
		<path class="st2" d="M96.5,68.8c0.1,0,0.1-0.2,0-0.2c-1.6,0.3-2.6,1.7-2.4,3.4c0,0.5,0.7,0.4,0.6-0.1
			C94.3,70.5,95.2,69.2,96.5,68.8z"/>
		<path class="st2" d="M91.5,74.1c-0.8,0-1.6-0.4-2.3-1c-2.2-2.2-0.7-5.8,0-7.3c3-7.1,8.9-12.7,16.6-15.8l0.1,0l0.3,0
			c0.4,0,0.8,0.3,0.9,0.8c0.1,0.5-0.2,1-0.6,1.1c-4.1,1.6-7.5,4-10.3,6.9c-1.4,1.5-2.7,3.2-3.8,5c-0.4,0.7-0.8,1.5-1.2,2.3
			c-0.8,1.1-1,2.1-0.8,3.1c0.3,1.2,1.4,2.2,3.2,3.2h0.3l0.2,0.4l0.1,0.3l-0.3,0.3C93,73.8,92.2,74.1,91.5,74.1L91.5,74.1z"/>
		<path class="st2" d="M93.4,72.8c0.1-0.1,0-0.2-0.1-0.1c-3.6-1.9-4.5-4.2-2.7-6.9c0.4-0.8,0.8-1.6,1.2-2.3c1.1-1.8,2.4-3.5,3.8-5.1
			c3-3.1,6.5-5.4,10.5-7c0.6-0.2,0.3-1.2-0.3-1c-7.2,2.9-13.2,8.3-16.3,15.5c-0.9,2-1.9,5-0.1,6.8C90.7,73.9,92.1,73.9,93.4,72.8z"
			/>
		<path class="st2" d="M107.5,54.3c-0.2,0-0.5-0.1-0.6-0.3c-0.1-0.2-0.2-0.4-0.1-0.6c0.2-0.6-0.1-1.1-0.7-1.3
			c-0.3-0.1-0.5-0.4-0.4-0.7c0-0.3,0.3-0.5,0.6-0.5c0.8,0.1,1.3,0.5,1.7,1.1c0.4,0.6,0.4,1.3,0.3,1.9
			C108.1,54.1,107.9,54.3,107.5,54.3L107.5,54.3z"/>
		<path class="st2" d="M106.2,51.6c0.9,0.3,1.2,1.1,1,1.9c-0.1,0.4,0.5,0.5,0.6,0.2c0.3-1.1-0.3-2.2-1.5-2.4
			C106.1,51.2,106,51.5,106.2,51.6z"/>
		<polygon class="st2" points="107.2,59.6 106.9,59.3 106.8,59.2 106.8,58.8 108.2,54.2 108.6,54.1 108.8,54.1 109,54.3 109.2,54.5 
			109.1,54.8 108,59.5 107.5,59.6 		"/>
		<path class="st2" d="M107.6,59c0.4-1.5,0.7-2.9,1.1-4.4c0-0.1-0.1-0.2-0.2,0c-0.4,1.4-0.8,2.9-1.2,4.3
			C107.2,59.1,107.6,59.2,107.6,59z"/>
		<path class="st2" d="M123.4,107c-0.4,0-0.7-0.2-0.9-0.4c-0.2-0.3-0.2-0.6-0.1-0.9c5.4-16.7-1.7-34.7-17.6-44.7l-0.3-0.2l0-0.5
			c0.1-0.2,0.3-0.4,0.6-0.4h0.1l0.1,0.1c11.1,5,18.8,15.7,20.6,28.5c4.7-30.9,27-53.1,55.5-54.6c0,0,0.3,0,0.3,0
			c3.4-2.1,5.3-4.4,5.8-6.7c0.1-0.6,0.6-1,1.1-1c0.5,0,1.1,0.3,1.3,0.8c0.2,0.4,0.1,0.8-0.1,1.2c-0.4,0.5-0.8,1.1-1.1,1.6
			c-0.7,1.1-1.4,2.2-2.5,3.1c-1.1,1-2.3,1.9-3.5,2.5c-0.3,0.3-0.8,0.6-1.4,0.6c-29.6,1.5-50.1,23.2-55,58l0,0.3l0,0
			c0,4.2-0.6,8.2-1.8,12C124.3,106.7,123.9,107,123.4,107z"/>
		<path class="st2" d="M105.1,60.3c-0.1-0.1-0.3,0.1-0.1,0.2c15.4,9.7,23.6,27.5,17.8,45.3c-0.2,0.8,1,1.1,1.2,0.3
			c1.3-3.9,1.8-8.1,1.8-12.2c0,0,0.1,0,0.1,0c4.6-32.4,23.6-56.8,55.5-58.3c0.6,0,1-0.2,1.1-0.5c1.3-0.6,2.5-1.5,3.5-2.5
			c1.5-1.4,2.3-3.1,3.5-4.7c0.7-0.9-1.3-1.9-1.5-0.6c-0.6,3.1-3.5,5.4-6.1,7c-0.1,0-0.2,0-0.4,0c-31.8,1.6-52.7,28.2-55.6,58.4
			C125.2,79.1,117.9,66,105.1,60.3z"/>
		<path class="st2" d="M130.6,102.2l-0.2-0.4l-0.1-0.3l0.3-0.2c25.1-13.7,43.9-33.2,56-58.1c0.2-0.4,0.5-0.6,0.9-0.6
			c0.4,0,0.8,0.2,1,0.6c0.2,0.3,0.2,0.7,0.1,1.1c-12.3,25.5-32.7,46.1-57.5,57.9l-0.1,0l-0.1,0H130.6z"/>
		<path class="st2" d="M131,101.8c25.2-12,45.2-32.6,57.3-57.7c0.4-0.7-0.7-1.4-1.1-0.6c-12.3,25.3-31.6,44.8-56.2,58.3
			C130.8,101.7,130.9,101.8,131,101.8z"/>
		<path class="st2" d="M151.8,86.8c-0.3,0-0.6-0.2-0.7-0.5c-0.5-1.8-1.1-3.6-1.6-5.4c-0.4-1.5-0.9-3-1.3-4.5l-0.1-0.2l0.1-0.2
			l0.1-0.2l0.3,0h0.3l0.1,0.3c0.5,1.5,1,3,1.5,4.5c0.6,1.8,1.2,3.5,1.8,5.3l0.1,0.2l-0.2,0.4C152.2,86.7,152,86.8,151.8,86.8
			L151.8,86.8z"/>
		<path class="st2" d="M152,86c-1.1-3.3-2.3-6.5-3.4-9.7c0,0-0.1,0-0.1,0c1,3.3,1.9,6.6,2.9,9.9C151.6,86.5,152.1,86.4,152,86z"/>
		<path class="st2" d="M164.9,79.6c-0.5,0-0.9-0.4-0.9-1c0-0.5,0.4-0.9,0.9-0.9l0.9,0c8.7,0,16.7-2.5,23.6-7.4l0.1-0.1l0.2,0h0.3
			l0.2,0.3l0.1,0.3l-0.3,0.3c-7.2,5.5-15.8,8.5-24.6,8.5L164.9,79.6z"/>
		<path class="st2" d="M164.9,79.1c9.1,0.1,17.6-2.8,24.9-8.4c0.1,0,0-0.2-0.1-0.1c-7.4,5.2-15.7,7.7-24.8,7.5
			C164.2,78.1,164.2,79.1,164.9,79.1z"/>
		<path class="st2" d="M172.2,65.7c-0.3,0-0.5-0.1-0.7-0.3c-4.7-4.8-7-11.4-6.4-18.3l0-0.4l0.5,0h0.2l0.3,0.3l0,0.2
			c-0.2,6.3,2.2,12.1,6.8,16.8c0.3,0.3,0.4,0.7,0.2,1.1C173,65.4,172.6,65.7,172.2,65.7L172.2,65.7z"/>
		<path class="st2" d="M172.7,64.2c-4.6-4.7-7.1-10.5-7-17.1c0-0.1-0.1-0.1-0.1,0c-0.6,6.7,1.5,13.2,6.2,18
			C172.4,65.6,173.2,64.7,172.7,64.2z"/>
		<path class="st2" d="M100.5,63.8l-0.2-0.4l-0.1-0.3l0.3-0.3l0.6-0.5c0.9-0.6,1.7-1.2,2.6-1.8l0.1-0.1l0.3,0c0.3,0,0.6,0.2,0.7,0.5
			c0.1,0.3,0,0.6-0.3,0.8c-0.8,0.5-1.7,1-2.5,1.5l-1,0.6l-0.2,0H100.5z"/>
		<path class="st2" d="M104,60.9c-1.1,0.8-2.1,1.5-3.2,2.3c-0.1,0.1,0,0.3,0.1,0.2c1.1-0.7,2.2-1.4,3.3-2.1
			C104.5,61.1,104.2,60.7,104,60.9z"/>
	</g>
	<g>
		<g>
			<g>
				<path class="st3" d="M115,182.3h-4.2l-6.8-11.9h-0.1c0.1,2.1,0.2,3.6,0.2,4.5v7.4h-3v-15.7h4.2l6.8,11.8h0.1
					c-0.1-2-0.2-3.5-0.2-4.3v-7.4h3V182.3z"/>
				<path class="st3" d="M128.6,182.3l-1.1-3.7h-5.7l-1.1,3.7H117l5.5-15.8h4.1l5.6,15.8H128.6z M126.7,175.8
					c-1.1-3.4-1.6-5.3-1.8-5.8c-0.1-0.4-0.2-0.8-0.3-1.1c-0.2,0.9-0.9,3.2-2,6.8H126.7z"/>
				<path class="st3" d="M140.3,182.3h-3.3v-12.9h-4.3v-2.8h11.9v2.8h-4.3V182.3z"/>
				<path class="st3" d="M159.7,166.6v10.2c0,1.2-0.3,2.2-0.8,3.1c-0.5,0.9-1.3,1.5-2.3,2c-1,0.5-2.1,0.7-3.5,0.7
					c-2,0-3.6-0.5-4.7-1.6c-1.1-1-1.7-2.5-1.7-4.3v-10.1h3.3v9.6c0,1.2,0.2,2.1,0.7,2.7c0.5,0.6,1.3,0.8,2.4,0.8
					c1.1,0,1.9-0.3,2.4-0.9c0.5-0.6,0.7-1.5,0.7-2.7v-9.6H159.7z"/>
				<path class="st3" d="M166.9,176.3v6h-3.3v-15.7h4.6c2.1,0,3.7,0.4,4.7,1.2c1,0.8,1.5,2,1.5,3.5c0,0.9-0.3,1.7-0.8,2.5
					c-0.5,0.7-1.2,1.3-2.2,1.7c2.4,3.5,3.9,5.8,4.6,6.8h-3.7l-3.8-6H166.9z M166.9,173.6h1.1c1.1,0,1.8-0.2,2.3-0.5
					c0.5-0.4,0.8-0.9,0.8-1.7c0-0.7-0.3-1.3-0.8-1.6c-0.5-0.3-1.3-0.5-2.4-0.5h-1V173.6z"/>
				<path class="st3" d="M187.8,182.3l-1.1-3.7h-5.7l-1.1,3.7h-3.6l5.5-15.8h4.1l5.6,15.8H187.8z M185.8,175.8
					c-1.1-3.4-1.6-5.3-1.8-5.8c-0.1-0.4-0.2-0.8-0.3-1.1c-0.2,0.9-0.9,3.2-2,6.8H185.8z"/>
				<path class="st3" d="M193.3,182.3v-15.7h3.3v13h6.4v2.8H193.3z"/>
			</g>
			<g>
				<path class="st3" d="M125,162.9h-3.3v-15.7h9v2.7H125v4.1h5.3v2.7H125V162.9z"/>
				<path class="st3" d="M148.1,155c0,2.6-0.6,4.6-1.9,6c-1.3,1.4-3.1,2.1-5.5,2.1c-2.4,0-4.3-0.7-5.5-2.1c-1.3-1.4-1.9-3.4-1.9-6
					c0-2.6,0.6-4.6,1.9-6c1.3-1.4,3.1-2.1,5.6-2.1c2.4,0,4.3,0.7,5.5,2.1C147.4,150.4,148.1,152.4,148.1,155z M136.6,155
					c0,1.8,0.3,3.1,1,4c0.7,0.9,1.7,1.3,3,1.3c2.7,0,4-1.8,4-5.3c0-3.5-1.3-5.3-4-5.3c-1.3,0-2.3,0.4-3,1.3
					C136.9,152,136.6,153.3,136.6,155z"/>
				<path class="st3" d="M165.6,155c0,2.6-0.6,4.6-1.9,6c-1.3,1.4-3.1,2.1-5.5,2.1c-2.4,0-4.3-0.7-5.5-2.1c-1.3-1.4-1.9-3.4-1.9-6
					c0-2.6,0.6-4.6,1.9-6c1.3-1.4,3.1-2.1,5.6-2.1c2.4,0,4.3,0.7,5.5,2.1C165,150.4,165.6,152.4,165.6,155z M154.1,155
					c0,1.8,0.3,3.1,1,4c0.7,0.9,1.7,1.3,3,1.3c2.7,0,4-1.8,4-5.3c0-3.5-1.3-5.3-4-5.3c-1.3,0-2.3,0.4-3,1.3
					C154.5,152,154.1,153.3,154.1,155z"/>
				<path class="st3" d="M181.9,154.9c0,2.6-0.7,4.6-2.2,5.9c-1.5,1.4-3.6,2.1-6.4,2.1h-4.5v-15.7h4.9c2.6,0,4.6,0.7,6,2
					C181.2,150.6,181.9,152.5,181.9,154.9z M178.4,155c0-3.4-1.5-5.1-4.5-5.1h-1.8v10.2h1.4C176.8,160.2,178.4,158.4,178.4,155z"/>
			</g>
		</g>
	</g>
	<path d="M83.4,153.5c2.6-11.9,9.5-22.1,20-28.5c0.7-0.4,0.1-1.5-0.6-1.1c-10.6,6.6-17.8,17.1-19.6,29.5
		C83.1,153.6,83.3,153.6,83.4,153.5L83.4,153.5z"/>
	<path d="M92.2,142c3.6-6.2,8.9-10.9,15.3-14c0.5-0.3,0.1-1-0.5-0.8c-6.6,3.1-11.8,8.2-15.1,14.7C91.8,142,92.1,142.2,92.2,142
		L92.2,142z"/>
	<path d="M192.3,135.3c2.5,1.5,4.5,3.5,5.6,6.2c0.2,0.5,0.9,0.2,0.7-0.3c-1.2-2.8-3.3-5.1-6.1-6.3
		C192.2,134.8,192,135.2,192.3,135.3L192.3,135.3z"/>
	<path d="M194.6,129.4c3.4,2.9,5.8,6.5,6.9,10.9c0.1,0.5,1,0.3,0.8-0.2c-1.2-4.4-3.7-8.4-7.4-11
		C194.6,128.9,194.4,129.2,194.6,129.4L194.6,129.4z"/>
	<g>
		<path class="st4" d="M208.1,83.5l-2.5,3.3l-0.9-0.7l5.9-8l2.2,1.7c1,0.7,1.6,1.5,1.8,2.2c0.2,0.7,0,1.5-0.5,2.2
			c-0.8,1.1-1.9,1.4-3.2,0.9l-0.4,5.3l-1.1-0.8l0.5-4.8L208.1,83.5z M208.7,82.7l1.3,1c0.7,0.5,1.3,0.7,1.8,0.7
			c0.5,0,0.9-0.3,1.3-0.8c0.4-0.5,0.5-1,0.4-1.5c-0.1-0.5-0.6-1-1.3-1.5l-1.2-0.9L208.7,82.7z"/>
		<path class="st4" d="M215.9,95.3l-4.2-3.8l6.6-7.5l4.2,3.8l-0.7,0.8l-3.4-3l-2.1,2.4l3.1,2.8l-0.7,0.8l-3.1-2.8l-2.4,2.8l3.3,3
			L215.9,95.3z"/>
		<path class="st4" d="M220.6,100.1l4.2-8.5l0,0c-0.5,0.5-1.1,1.1-1.8,1.8l-4.7,4.3l-0.7-0.8l7.4-6.7l1.2,1.3l-3.9,7.9l0,0l8.2-3.2
			l1.2,1.3l-7.4,6.7l-0.8-0.9l4.7-4.3c0.5-0.5,1.2-1,1.8-1.5l0,0l-8.8,3.4L220.6,100.1z"/>
		<path class="st4" d="M228.2,109.5l8.1-5.8l0.7,1l-8.1,5.8L228.2,109.5z"/>
		<path class="st4" d="M239.8,114.5c-0.9,0.5-1.7,0.6-2.5,0.3c-0.8-0.3-1.6-1-2.3-2.1l-0.6-1l-3.3,2.1l-0.6-1l8.5-5.2l1.4,2.2
			C241.7,111.9,241.5,113.5,239.8,114.5z M235.3,111.2l0.6,0.9c0.5,0.9,1.1,1.5,1.6,1.7c0.5,0.2,1.1,0.1,1.7-0.2
			c0.6-0.3,0.9-0.8,0.9-1.3c0-0.5-0.2-1.2-0.7-2l-0.7-1.1L235.3,111.2z"/>
		<path class="st4" d="M239.8,124c-0.8,0.4-1.5,0.4-2.3,0.1c-0.7-0.4-1.3-1-1.8-2c-0.5-1.1-0.8-2-0.8-2.7l1-0.5
			c0,0.5,0.1,0.9,0.2,1.4c0.1,0.5,0.3,0.9,0.5,1.4c0.4,0.7,0.8,1.2,1.2,1.4c0.4,0.2,0.9,0.2,1.4,0c0.3-0.2,0.5-0.3,0.7-0.6
			c0.1-0.2,0.2-0.5,0.2-0.9c0-0.4,0-0.9-0.1-1.6c-0.1-1-0.1-1.8,0.1-2.3c0.2-0.6,0.7-1,1.3-1.3c0.7-0.3,1.4-0.4,2,0
			c0.7,0.3,1.2,0.9,1.7,1.8c0.5,0.9,0.7,1.8,0.8,2.7l-1.1,0.1c-0.1-0.9-0.3-1.7-0.6-2.4c-0.3-0.6-0.6-0.9-1-1.1
			c-0.4-0.2-0.8-0.2-1.2,0c-0.3,0.2-0.5,0.3-0.7,0.6c-0.1,0.2-0.2,0.5-0.2,0.9c0,0.4,0,0.9,0.1,1.5c0.1,1.1,0.1,2-0.1,2.5
			C240.8,123.2,240.4,123.7,239.8,124z"/>
		<path class="st4" d="M250.4,130.6l-6,2.4c-1.1,0.4-2,0.4-2.9,0c-0.9-0.4-1.5-1.2-2-2.3c-0.4-1.1-0.5-2.1-0.1-3
			c0.4-0.9,1.1-1.5,2.1-1.9l6-2.3l0.4,1.1l-6.1,2.4c-0.8,0.3-1.3,0.8-1.5,1.3c-0.2,0.6-0.2,1.3,0.1,2.1c0.3,0.8,0.8,1.3,1.4,1.6
			c0.6,0.3,1.3,0.2,2-0.1l6-2.4L250.4,130.6z"/>
		<path class="st4" d="M243.1,141.1l7.7-5.6l0-0.1c-0.7,0.2-1.5,0.5-2.4,0.7l-6.1,1.6l-0.3-1.1l9.6-2.5l0.5,1.7l-7.1,5.2l0,0.1
			l8.8,1.1l0.5,1.7l-9.6,2.5l-0.3-1.1l6.2-1.6c0.7-0.2,1.5-0.4,2.3-0.5l0-0.1l-9.4-1.1L243.1,141.1z"/>
		<path class="st4" d="M251.5,160.4c-1.6,0.2-2.9-0.2-3.9-1c-1-0.8-1.5-2.1-1.7-3.8l-0.3-2.8l9.9-1l0.3,3.1c0.2,1.6-0.1,2.8-0.9,3.8
			C254.2,159.7,253.1,160.3,251.5,160.4z M251.4,159.2c1.3-0.1,2.2-0.6,2.8-1.3c0.6-0.7,0.8-1.7,0.7-3l-0.2-1.7l-7.9,0.8l0.1,1.4
			c0.1,1.4,0.6,2.4,1.3,3.1C249,159.1,250.1,159.3,251.4,159.2z"/>
		<path class="st4" d="M251.6,172c-1.6,0-2.9-0.4-3.8-1.3c-0.9-0.8-1.4-2-1.4-3.4c0-1.5,0.5-2.6,1.4-3.4c0.9-0.8,2.2-1.2,3.8-1.2
			c1.6,0,2.9,0.4,3.8,1.3c0.9,0.8,1.3,2,1.3,3.5c0,1.5-0.5,2.6-1.4,3.4C254.4,171.7,253.2,172,251.6,172z M251.6,164
			c-1.4,0-2.4,0.3-3.1,0.8c-0.7,0.6-1.1,1.4-1.1,2.5c0,1.1,0.3,2,1,2.6c0.7,0.6,1.7,0.9,3.1,0.9c1.3,0,2.4-0.3,3.1-0.8
			c0.7-0.6,1-1.4,1.1-2.5c0-1.1-0.3-2-1-2.6C253.9,164.3,252.9,164,251.6,164z"/>
		<path class="st4" d="M246.3,174.3l9.9,1l-0.1,1.2l-8.9-0.9l-0.4,4.4l-1-0.1L246.3,174.3z"/>
		<path class="st4" d="M248.8,191.2c-1.6-0.3-2.7-1-3.5-2c-0.7-1-1-2.2-0.7-3.6c0.3-1.5,0.9-2.5,2-3.1c1-0.6,2.4-0.8,4-0.4
			c1.6,0.3,2.8,1,3.5,1.9c0.7,1,0.9,2.2,0.7,3.7c-0.3,1.4-0.9,2.5-2,3.1C251.7,191.4,250.4,191.6,248.8,191.2z M250.3,183.3
			c-1.3-0.3-2.4-0.2-3.2,0.3c-0.8,0.4-1.3,1.2-1.5,2.3c-0.2,1.1,0,2,0.5,2.7c0.6,0.7,1.5,1.2,2.9,1.4c1.3,0.3,2.4,0.2,3.2-0.2
			c0.8-0.4,1.3-1.2,1.5-2.3c0.2-1.1,0-2-0.5-2.7C252.6,184.1,251.7,183.6,250.3,183.3z"/>
		<path class="st4" d="M246.9,194.7l-4-1.2l0.3-1.1l9.6,2.8l-0.8,2.7c-0.3,1.2-0.8,2-1.4,2.4c-0.6,0.4-1.4,0.5-2.3,0.3
			c-1.3-0.4-1.9-1.3-2-2.7l-5.1,1.4l0.4-1.3l4.7-1.2L246.9,194.7z M247.9,195l-0.4,1.6c-0.2,0.8-0.2,1.4,0,1.9
			c0.2,0.5,0.6,0.8,1.2,1c0.6,0.2,1.1,0.1,1.5-0.2c0.4-0.3,0.7-0.9,0.9-1.7l0.4-1.5L247.9,195z"/>
		<path class="st4" d="M239.5,210.5c-0.8-0.4-1.3-0.9-1.5-1.7c-0.2-0.8-0.1-1.7,0.4-2.7c0.5-1.1,1-1.9,1.5-2.4l1,0.5
			c-0.3,0.3-0.6,0.7-0.9,1.1c-0.3,0.4-0.5,0.8-0.7,1.3c-0.3,0.7-0.4,1.3-0.3,1.8c0.1,0.5,0.4,0.8,0.9,1c0.3,0.1,0.6,0.2,0.9,0.2
			c0.3,0,0.5-0.2,0.8-0.4c0.3-0.2,0.7-0.6,1.2-1.1c0.7-0.7,1.3-1.2,1.9-1.4c0.6-0.2,1.2-0.1,1.9,0.2c0.7,0.3,1.2,0.8,1.3,1.6
			c0.2,0.7,0.1,1.5-0.3,2.4c-0.4,0.9-0.9,1.7-1.6,2.3l-0.8-0.7c0.6-0.6,1.1-1.3,1.4-2c0.2-0.6,0.3-1.1,0.2-1.5s-0.4-0.7-0.8-0.9
			c-0.3-0.1-0.6-0.2-0.9-0.2c-0.3,0-0.5,0.1-0.8,0.4c-0.3,0.2-0.7,0.6-1.1,1c-0.8,0.8-1.4,1.3-2,1.5
			C240.7,210.8,240.1,210.8,239.5,210.5z"/>
		<path class="st4" d="M236.1,211.3l8.9,4.6l-0.5,1l-8.9-4.6L236.1,211.3z"/>
		<path class="st4" d="M232.7,217.5l0.6-1l7.7,4.6l1.6-2.8l0.9,0.5l-3.8,6.5l-0.9-0.5l1.6-2.8L232.7,217.5z"/>
		<path class="st4" d="M224.3,229.6l3.3,1l2.5-3.2l-1.8-2.9l0.7-0.9l5.5,9.3l-0.6,0.8l-10.4-3L224.3,229.6z M228.7,230.9l3.2,1
			c0.4,0.1,0.9,0.3,1.4,0.5c-0.3-0.3-0.6-0.8-0.9-1.2l-1.7-2.8L228.7,230.9z"/>
		<path class="st4" d="M219.6,234.9l8.8,3.7l0,0c-0.6-0.4-1.2-1-1.9-1.7l-4.6-4.4l0.8-0.8l7.2,7l-1.2,1.3l-8.2-3.5l0,0l3.7,8.1
			l-1.2,1.3l-7.2-7l0.8-0.8l4.6,4.5c0.5,0.5,1.1,1.1,1.7,1.8l0,0l-4-8.7L219.6,234.9z"/>
		<path class="st4" d="M209.4,244.2l4.3-3.6l6.4,7.7l-4.3,3.6l-0.7-0.8l3.4-2.9l-2.1-2.5l-3.2,2.7l-0.7-0.8l3.2-2.7l-2.4-2.8
			l-3.4,2.9L209.4,244.2z"/>
		<path class="st4" d="M205.1,247.4l1-0.7l5.2,7.3l2.6-1.9l0.6,0.8l-6.2,4.4l-0.6-0.8l2.6-1.9L205.1,247.4z"/>
		<path class="st4" d="M201.2,251.9l-0.2-0.1c-0.1-0.5-0.3-1-0.4-1.6c-0.1-0.6-0.2-1.2-0.3-1.8l0.7-0.5c0.1,0.5,0.3,1,0.6,1.7
			c0.2,0.7,0.5,1.2,0.6,1.6L201.2,251.9z"/>
		<path class="st4" d="M195.2,263.7c1-0.5,1.6-1.2,1.9-2.2c0.2-0.9,0.1-2-0.5-3.1c-0.6-1.2-1.3-2-2.2-2.3c-0.9-0.4-1.8-0.3-2.8,0.2
			c-0.6,0.3-1.3,0.8-2,1.4l-0.5-0.9c0.5-0.5,1.2-1,2.1-1.5c1.3-0.7,2.6-0.8,3.7-0.3c1.1,0.4,2,1.4,2.8,2.9c0.5,0.9,0.7,1.8,0.7,2.7
			c0,0.9-0.2,1.7-0.7,2.4c-0.5,0.7-1.1,1.3-2,1.7c-0.9,0.5-1.9,0.7-2.7,0.7l0-1.1C193.8,264.2,194.6,264.1,195.2,263.7z"/>
		<path class="st4" d="M180.6,265.3c-0.6-1.5-0.6-2.8-0.2-4c0.4-1.1,1.3-2,2.7-2.5c1.4-0.5,2.6-0.5,3.7,0.1c1.1,0.6,1.9,1.6,2.5,3.2
			c0.6,1.5,0.6,2.9,0.2,4c-0.4,1.1-1.4,1.9-2.8,2.5c-1.4,0.5-2.6,0.5-3.7-0.1C182,267.8,181.2,266.8,180.6,265.3z M188.1,262.5
			c-0.5-1.3-1.1-2.1-1.9-2.6c-0.8-0.5-1.7-0.5-2.7-0.1c-1,0.4-1.7,1-2,1.9c-0.3,0.9-0.2,1.9,0.3,3.2c0.5,1.3,1.1,2.1,1.9,2.6
			c0.8,0.5,1.7,0.5,2.7,0.1c1-0.4,1.7-1,2-1.9C188.7,264.8,188.6,263.7,188.1,262.5z"/>
		<path class="st4" d="M169,263.1l1.3-0.3l7.4,6.8l0.1,0c-0.3-0.9-0.6-1.8-0.8-2.6l-1.4-5.5l1.1-0.3l2.5,9.7l-1.3,0.3l-7.4-6.8
			l-0.1,0c0,0.1,0.2,0.5,0.4,1.1c0.2,0.6,0.3,1.1,0.4,1.4l1.4,5.6l-1.1,0.3L169,263.1z"/>
		<path class="st4" d="M161,267c-0.1-0.9,0.1-1.6,0.6-2.2c0.6-0.6,1.4-1,2.5-1.1c1.2-0.2,2.1-0.2,2.8,0.1l0.2,1.1
			c-0.4-0.1-0.9-0.2-1.4-0.2c-0.5,0-1,0-1.5,0.1c-0.8,0.1-1.3,0.3-1.7,0.7c-0.3,0.3-0.5,0.8-0.4,1.3c0.1,0.3,0.2,0.6,0.3,0.8
			c0.2,0.2,0.4,0.4,0.8,0.5c0.4,0.1,0.9,0.3,1.6,0.4c1,0.2,1.7,0.5,2.2,0.9c0.5,0.4,0.8,1,0.9,1.7c0.1,0.8-0.1,1.4-0.6,2
			c-0.5,0.5-1.2,0.9-2.2,1c-1,0.1-1.9,0.1-2.8-0.1l0.2-1.1c0.9,0.2,1.7,0.3,2.5,0.2c0.6-0.1,1.1-0.3,1.4-0.6
			c0.3-0.3,0.4-0.7,0.4-1.2c-0.1-0.3-0.2-0.6-0.3-0.8c-0.2-0.2-0.4-0.4-0.7-0.5c-0.3-0.1-0.8-0.3-1.5-0.4c-1.1-0.2-1.9-0.5-2.3-0.9
			C161.4,268.2,161.1,267.7,161,267z"/>
		<path class="st4" d="M153,264.9l5.6-0.4l0.7,10l-5.6,0.4l-0.1-1l4.4-0.3l-0.2-3.2l-4.2,0.3l-0.1-1l4.2-0.3l-0.3-3.7L153,266
			L153,264.9z"/>
		<path class="st4" d="M146.3,274c1.1,0,2-0.3,2.6-1c0.7-0.7,1-1.7,1-3c0-1.3-0.3-2.3-0.9-3.1c-0.6-0.7-1.5-1.1-2.6-1.1
			c-0.7,0-1.5,0.1-2.4,0.3l0-1c0.7-0.2,1.6-0.4,2.6-0.3c1.5,0,2.6,0.5,3.4,1.4c0.8,0.9,1.2,2.2,1.1,3.8c0,1-0.2,1.9-0.6,2.7
			c-0.4,0.8-1,1.4-1.7,1.8c-0.7,0.4-1.6,0.6-2.6,0.6c-1.1,0-2-0.2-2.8-0.6l0.5-1C144.7,273.8,145.5,274,146.3,274z"/>
		<path class="st4" d="M138.7,264.2l1.2,0.1l-0.9,8.9l3.2,0.4l-0.1,1l-7.5-0.9l0.1-1l3.2,0.4L138.7,264.2z"/>
		<path class="st4" d="M128.5,262.5l5.5,1.1l-1.9,9.8l-5.5-1.1l0.2-1l4.4,0.9l0.6-3.2l-4.1-0.8l0.2-1l4.1,0.8l0.7-3.6l-4.4-0.9
			L128.5,262.5z"/>
		<path class="st4" d="M123.4,261.1l1.1,0.3l-2.4,8.6l3.1,0.9l-0.3,1l-7.3-2.1l0.3-1l3.1,0.9L123.4,261.1z"/>
		<path class="st4" d="M108.1,266.3l2.3-6c0.4-1.1,1-1.8,1.9-2.1c0.9-0.4,1.9-0.3,3,0.1c1.1,0.4,1.9,1.1,2.3,1.9
			c0.4,0.9,0.4,1.8,0,2.9l-2.3,6l-1.1-0.4l2.3-6.1c0.3-0.8,0.3-1.5,0-2c-0.3-0.6-0.8-1-1.7-1.4c-0.8-0.3-1.5-0.3-2.1-0.1
			c-0.6,0.3-1,0.8-1.3,1.6l-2.3,6.1L108.1,266.3z"/>
		<path class="st4" d="M106.3,259l1.9-3.7l1,0.5l-4.5,8.9l-2.5-1.3c-1.1-0.6-1.8-1.2-2.1-1.9c-0.3-0.7-0.3-1.5,0.2-2.3
			c0.6-1.2,1.6-1.7,3-1.5l-0.4-5.3l1.2,0.6l0.3,4.8L106.3,259z M105.9,259.9l-1.4-0.7c-0.7-0.4-1.4-0.5-1.8-0.4
			c-0.5,0.1-0.9,0.5-1.2,1c-0.3,0.6-0.3,1.1-0.1,1.5c0.2,0.4,0.7,0.9,1.5,1.3l1.4,0.7L105.9,259.9z"/>
		<path class="st4" d="M93.1,246.2l-0.7,3.3l3.4,2.3l2.8-1.9l1,0.7l-8.9,6l-0.8-0.6l2.3-10.6L93.1,246.2z M92.1,250.6l-0.8,3.2
			c-0.1,0.4-0.2,0.9-0.4,1.5c0.3-0.3,0.7-0.6,1.2-0.9l2.7-1.9L92.1,250.6z"/>
		<path class="st4" d="M81.5,243.3c1.1-1.3,2.2-1.9,3.5-2c1.3-0.1,2.5,0.4,3.8,1.5l2.1,1.8l-6.4,7.6l-2.4-2c-1.2-1-1.9-2.1-2-3.4
			C80.1,245.7,80.5,244.5,81.5,243.3z M82.5,244.1c-0.8,1-1.2,2-1.1,2.9c0.1,0.9,0.6,1.8,1.6,2.7l1.3,1.1l5.1-6.1l-1.1-0.9
			c-1.1-0.9-2.1-1.3-3.1-1.3C84.3,242.5,83.4,243.1,82.5,244.1z"/>
		<path class="st4" d="M83.2,237.8l-7,7.1l-0.8-0.8l7-7.1L83.2,237.8z"/>
		<path class="st4" d="M70.8,234.9c0.7-0.7,1.6-0.9,2.4-0.8c0.9,0.2,1.7,0.7,2.6,1.7l0.8,0.9l2.9-2.6l0.8,0.9l-7.4,6.7l-1.8-2
			C69.5,237.8,69.4,236.2,70.8,234.9z M75.9,237.4l-0.7-0.8c-0.7-0.8-1.3-1.2-1.9-1.4c-0.6-0.1-1.1,0.1-1.7,0.5
			c-0.5,0.4-0.7,0.9-0.7,1.5c0.1,0.5,0.4,1.2,1,1.9l0.9,1L75.9,237.4z"/>
		<path class="st4" d="M74.8,228.5l-7.8,6.2l-0.7-0.9l7.8-6.2L74.8,228.5z"/>
		<path class="st4" d="M66.9,222.1c0.7-0.5,1.5-0.6,2.2-0.4c0.8,0.3,1.5,0.8,2.1,1.8c0.7,1,1.1,1.8,1.2,2.5l-0.9,0.6
			c-0.1-0.4-0.2-0.9-0.4-1.4c-0.2-0.5-0.4-0.9-0.7-1.3c-0.4-0.6-0.9-1.1-1.4-1.2c-0.5-0.2-0.9-0.1-1.3,0.2c-0.3,0.2-0.5,0.4-0.6,0.7
			c-0.1,0.2-0.1,0.6-0.1,0.9c0,0.4,0.2,0.9,0.3,1.6c0.3,1,0.3,1.7,0.2,2.3c-0.1,0.6-0.5,1.1-1.1,1.5c-0.6,0.4-1.3,0.5-2,0.3
			c-0.7-0.2-1.3-0.7-1.9-1.5c-0.6-0.8-1-1.7-1.1-2.6l1-0.3c0.2,0.9,0.5,1.7,1,2.3c0.4,0.5,0.7,0.8,1.2,1c0.4,0.1,0.8,0.1,1.2-0.2
			c0.3-0.2,0.5-0.4,0.6-0.6c0.1-0.2,0.1-0.5,0.1-0.9c0-0.4-0.1-0.9-0.3-1.5c-0.3-1.1-0.4-1.9-0.3-2.5C66,223,66.4,222.5,66.9,222.1z
			"/>
		<path class="st4" d="M58,219.6c0.6,1,1.3,1.6,2.3,1.7c1,0.2,2,0,3.1-0.7c1.1-0.6,1.9-1.4,2.2-2.3c0.3-0.9,0.2-1.8-0.4-2.8
			c-0.4-0.6-0.9-1.3-1.5-1.9l0.9-0.5c0.6,0.5,1.1,1.2,1.6,2.1c0.7,1.3,0.9,2.5,0.6,3.7c-0.4,1.2-1.3,2.1-2.7,3
			c-0.9,0.5-1.8,0.8-2.6,0.8c-0.9,0-1.7-0.1-2.4-0.6c-0.7-0.4-1.3-1.1-1.8-2c-0.5-0.9-0.8-1.8-0.9-2.7l1.1-0.1
			C57.4,218.2,57.6,219,58,219.6z"/>
		<path class="st4" d="M63.7,211l-9,4.4l-0.5-1.1l9-4.4L63.7,211z"/>
		<path class="st4" d="M59,200.1l0.5,1.3l-5.7,8.2l0,0.1c0.9-0.4,1.7-0.8,2.5-1.1l5.3-2.1l0.4,1l-9.3,3.7l-0.5-1.2l5.7-8.2l0-0.1
			c-0.1,0.1-0.5,0.2-1.1,0.5c-0.6,0.3-1,0.5-1.3,0.6l-5.3,2.1l-0.4-1L59,200.1z"/>
		<path class="st4" d="M51.8,194.6l-0.9-3.3l4.7-1.3c0.3,0.5,0.6,1,0.8,1.5c0.2,0.5,0.4,1.1,0.6,1.8c0.4,1.5,0.3,2.8-0.3,3.8
			c-0.6,1.1-1.7,1.8-3.3,2.2c-1,0.3-1.9,0.3-2.8,0.1c-0.9-0.2-1.6-0.6-2.2-1.3c-0.6-0.7-1.1-1.5-1.4-2.5c-0.3-1-0.4-2.1-0.3-3.1
			l1.1,0.2c-0.1,1-0.1,1.9,0.2,2.7c0.3,1.2,0.9,2,1.8,2.5c0.9,0.5,1.9,0.5,3.2,0.2c1.3-0.4,2.2-1,2.7-1.8c0.5-0.8,0.6-1.9,0.2-3.1
			c-0.2-0.7-0.5-1.3-0.8-1.9l-3,0.8l0.6,2.2L51.8,194.6z"/>
		<path class="st4" d="M53.9,178.2l0.8,5.6l-9.9,1.4l-0.8-5.6l1-0.1l0.6,4.4l3.2-0.4l-0.6-4.2l1-0.1l0.6,4.2l3.6-0.5l-0.6-4.4
			L53.9,178.2z"/>
		<path class="st4" d="M53.7,176l-10,0.6l-0.1-1.2l8.9-0.6l-0.3-4.5l1-0.1L53.7,176z"/>
		<path class="st4" d="M53.3,168.6l-10,0l0-1.2l10,0L53.3,168.6z"/>
		<path class="st4" d="M53.5,161.5l-0.1,1.2l-8.9-0.5l-0.2,3.2l-1-0.1l0.4-7.6l1,0.1l-0.2,3.2L53.5,161.5z"/>
		<path class="st4" d="M52.3,155.6l0.2-0.1c0.4,0.2,0.9,0.4,1.5,0.7c0.6,0.3,1.1,0.6,1.6,0.9l-0.1,0.9c-0.5-0.2-1-0.4-1.7-0.6
			c-0.7-0.2-1.2-0.4-1.6-0.5L52.3,155.6z"/>
		<path class="st4" d="M53.3,143.5c0.9,0.2,1.5,0.6,1.8,1.4c0.4,0.7,0.4,1.6,0.2,2.7c-0.2,1.2-0.6,2-1,2.6l-1.1-0.2
			c0.3-0.4,0.5-0.8,0.7-1.2c0.2-0.5,0.3-0.9,0.4-1.4c0.2-0.8,0.1-1.4-0.1-1.8c-0.2-0.4-0.6-0.7-1.1-0.8c-0.3-0.1-0.6-0.1-0.9,0
			c-0.2,0.1-0.5,0.3-0.7,0.6c-0.2,0.3-0.6,0.7-0.9,1.3c-0.5,0.9-1,1.4-1.6,1.7c-0.5,0.3-1.1,0.4-1.9,0.2c-0.8-0.2-1.3-0.6-1.6-1.2
			c-0.3-0.7-0.4-1.5-0.2-2.4c0.2-1,0.6-1.9,1.1-2.6l0.9,0.6c-0.5,0.7-0.8,1.5-1,2.3c-0.1,0.6-0.1,1.1,0.1,1.5c0.2,0.4,0.5,0.6,1,0.7
			c0.3,0.1,0.6,0.1,0.9,0c0.2-0.1,0.5-0.3,0.7-0.5c0.2-0.3,0.5-0.7,0.9-1.3c0.6-1,1.1-1.6,1.6-1.9C52.1,143.5,52.7,143.4,53.3,143.5
			z"/>
		<path class="st4" d="M58,136.6l-1.5,5.4l-9.6-2.8l1.5-5.4l1,0.3l-1.2,4.3l3.1,0.9l1.1-4l1,0.3l-1.1,4l3.5,1l1.2-4.3L58,136.6z"/>
		<path class="st4" d="M56.9,125.1c1.5,0.6,2.5,1.5,3,2.7c0.5,1.2,0.4,2.5-0.2,4.1l-1,2.6l-9.3-3.7l1.1-2.9c0.6-1.5,1.4-2.4,2.5-2.9
			C54.2,124.5,55.5,124.5,56.9,125.1z M56.5,126.3c-1.2-0.5-2.2-0.5-3.1-0.2c-0.9,0.4-1.5,1.2-2,2.4l-0.6,1.6l7.4,2.9l0.5-1.3
			c0.5-1.3,0.6-2.4,0.2-3.3C58.5,127.5,57.7,126.8,56.5,126.3z"/>
		<path class="st4" d="M63.7,112.1c1.4,0.8,2.3,1.8,2.6,3.1c0.3,1.2,0.1,2.6-0.8,4.1l-1.4,2.4l-8.7-5L57,114
			c0.8-1.4,1.7-2.2,2.9-2.6C61.1,111.1,62.4,111.3,63.7,112.1z M63.1,113.2c-1.1-0.6-2.2-0.8-3.1-0.6c-0.9,0.2-1.7,0.9-2.3,2.1
			l-0.8,1.5l6.9,4l0.7-1.2c0.7-1.2,0.9-2.3,0.7-3.3C65,114.7,64.3,113.8,63.1,113.2z"/>
		<path class="st4" d="M70.4,102.6c1.3,0.9,2.1,2,2.3,3.2c0.3,1.2,0,2.4-0.9,3.6c-0.9,1.2-1.9,1.9-3.1,2c-1.2,0.1-2.5-0.3-3.8-1.3
			c-1.3-1-2.1-2-2.4-3.2c-0.3-1.2,0.1-2.4,0.9-3.6c0.8-1.2,1.9-1.8,3.1-2C67.8,101.3,69.1,101.7,70.4,102.6z M65.7,109.2
			c1.1,0.8,2.1,1.2,3,1.1c0.9-0.1,1.7-0.5,2.3-1.4c0.6-0.9,0.9-1.8,0.6-2.7c-0.2-0.9-0.9-1.7-2-2.5c-1.1-0.8-2.1-1.2-3-1.1
			c-0.9,0.1-1.7,0.5-2.3,1.4c-0.7,0.9-0.9,1.8-0.6,2.7C64,107.5,64.6,108.4,65.7,109.2z"/>
		<path class="st4" d="M82.2,97l-3.9,4.1L71,94.2l3.9-4.1l0.8,0.7l-3.1,3.2l2.3,2.2l2.9-3l0.7,0.7l-2.9,3l2.7,2.5l3.1-3.2L82.2,97z"
			/>
		<path class="st4" d="M83.8,95.5L77,88.1l0.9-0.8l6.8,7.3L83.8,95.5z"/>
		<path class="st4" d="M86.3,80.2l4.1,5.1c0.7,0.9,1,1.8,0.9,2.8c-0.1,0.9-0.7,1.8-1.6,2.6c-0.9,0.8-1.9,1.1-2.8,1
			c-0.9-0.1-1.8-0.6-2.5-1.5l-4.1-5l0.9-0.7l4.1,5.1c0.5,0.7,1.1,1,1.7,1.1c0.6,0.1,1.3-0.2,2-0.8c0.7-0.5,1-1.1,1.1-1.8
			c0.1-0.6-0.2-1.3-0.7-1.9l-4.1-5.1L86.3,80.2z"/>
	</g>
	<path class="st2" d="M93.5,69.1c2.8-4.6,6.2-8.5,10.5-11.7c0.4-0.3,0-1-0.4-0.7c-4.3,3.2-8,7.4-10.5,12.1
		C93,69.2,93.3,69.4,93.5,69.1L93.5,69.1z"/>
	<path class="st2" d="M96.8,67.1c1.6-3.8,4.3-6.9,7.8-9c0.4-0.3,0-0.9-0.4-0.6c-3.6,2.3-6.2,5.5-7.8,9.5
		C96.4,67.1,96.7,67.3,96.8,67.1L96.8,67.1z"/>
	<path class="st2" d="M104.1,60.9c-0.4,2.4-0.5,4.8-0.8,7.1c0,0.4,0.6,0.4,0.6,0c0.2-2.4,0.5-4.7,0.6-7.1
		C104.6,60.7,104.2,60.6,104.1,60.9L104.1,60.9z"/>
	<path class="st2" d="M106,61.7c0,2.6-0.2,5.1-0.8,7.7c-0.1,0.4,0.6,0.6,0.7,0.2c0.5-2.6,0.8-5.3,0.5-7.9
		C106.4,61.4,106,61.4,106,61.7L106,61.7z"/>
	<path class="st2" d="M107.7,62c-0.3,2.8-0.3,5.7-0.5,8.5c0,0.5,0.7,0.5,0.7,0c0.1-2.8,0.3-5.7,0.2-8.5
		C108.2,61.7,107.8,61.7,107.7,62L107.7,62z"/>
	<path class="st2" d="M109.8,64.1c-0.3,3-0.6,5.9-0.8,8.9c0,0.4,0.6,0.4,0.6,0c0.3-2.9,0.4-5.9,0.5-8.9
		C110.3,63.8,109.9,63.9,109.8,64.1L109.8,64.1z"/>
	<path class="st2" d="M111.6,66.6c0.1,3.1-0.1,6.1-0.5,9.2c-0.1,0.5,0.7,0.5,0.8,0c0.4-3.1,0.4-6.1,0.2-9.2
		C112.1,66.3,111.6,66.3,111.6,66.6L111.6,66.6z"/>
	<path class="st2" d="M113.6,68.6c-0.7,3.2-1.1,6.4-1,9.7c0,0.5,0.7,0.5,0.8,0c0-3.2,0.2-6.3,0.8-9.5
		C114.2,68.4,113.6,68.2,113.6,68.6L113.6,68.6z"/>
	<path class="st2" d="M115.4,70.8c-0.5,3.8-1.1,7.6-1.5,11.4c0,0.4,0.7,0.6,0.8,0.1c0.5-3.8,0.9-7.6,1.3-11.5
		C116.1,70.5,115.5,70.4,115.4,70.8L115.4,70.8z"/>
	<path class="st2" d="M117.8,72.2c-0.7,4-1.5,8.1-2,12.2c0,0.4,0.7,0.5,0.8,0.1c0.8-4,1.3-8.1,1.9-12.2
		C118.5,71.9,117.9,71.8,117.8,72.2L117.8,72.2z"/>
	<path class="st2" d="M119.3,75.4c-0.9,4.2-1.7,8.6-2.2,12.9c-0.1,0.5,0.7,0.6,0.9,0.1c0.9-4.2,1.5-8.6,2-12.9
		C120,75.1,119.3,75,119.3,75.4L119.3,75.4z"/>
	<path class="st2" d="M120.8,77.9c-0.9,4.3-1.7,8.7-2.3,13.1c-0.1,0.5,0.7,0.8,0.8,0.2c0.8-4.4,1.5-8.8,2-13.2
		C121.4,77.6,120.8,77.5,120.8,77.9L120.8,77.9z"/>
	<path class="st2" d="M122,81c-0.9,4.2-1.7,8.5-2.3,12.8c-0.1,0.6,0.8,0.9,0.9,0.3c0.9-4.2,1.5-8.5,2.2-12.8
		C122.8,80.7,122.1,80.5,122,81L122,81z"/>
	<path class="st2" d="M123.6,83.1c-1.7,5.1-2.8,10.4-3.5,15.7c-0.1,0.7,0.9,1,1,0.3c0.8-5.3,2-10.5,3.3-15.7
		C124.5,82.8,123.7,82.5,123.6,83.1L123.6,83.1z"/>
	<path class="st2" d="M124.3,88.5c-1.2,4.4-2.3,8.9-3.4,13.4c-0.1,0.6,0.8,0.8,0.9,0.3c1.1-4.5,2.2-9,3.1-13.5
		C125,88.3,124.4,88.1,124.3,88.5L124.3,88.5z"/>
	<path class="st2" d="M125.3,92.7c-1.5,5.2-3,10.4-4.5,15.6c-0.2,0.6,0.8,0.9,1,0.3c1.4-5.2,2.7-10.5,4.1-15.7
		C125.9,92.5,125.4,92.4,125.3,92.7L125.3,92.7z"/>
	<path class="st2" d="M152.8,91.1c0,0.5,0,0.9-0.1,1.4c0,0.3,0.5,0.3,0.5,0c0-0.5,0-0.9-0.1-1.4C153.2,90.8,152.8,90.8,152.8,91.1
		L152.8,91.1z"/>
	<path class="st2" d="M154.5,89.6c0.1,1,0,1.8-0.3,2.8c-0.1,0.3,0.4,0.4,0.5,0.1c0.4-1,0.5-2,0.2-3
		C154.8,89.4,154.5,89.4,154.5,89.6L154.5,89.6z"/>
	<path class="st2" d="M156.7,88.2c0.2,1.4,0.1,2.8-0.3,4.2c-0.1,0.3,0.4,0.4,0.4,0.1c0.3-1.4,0.4-2.9,0.2-4.3
		C157,88,156.6,88,156.7,88.2L156.7,88.2z"/>
	<path class="st2" d="M159.1,87.5c-0.1,1.7-0.3,3.3-0.4,5c0,0.3,0.5,0.3,0.5,0c0.1-1.7,0.2-3.3,0.3-5
		C159.6,87.2,159.1,87.2,159.1,87.5L159.1,87.5z"/>
	<path class="st2" d="M160.9,85.4c-0.3,2.5-0.5,5-0.8,7.4c0,0.4,0.6,0.4,0.6,0c0.2-2.5,0.4-5,0.6-7.4
		C161.4,85.1,161,85.1,160.9,85.4L160.9,85.4z"/>
	<path class="st2" d="M162.7,83.6c-0.2,2.6-0.4,5.2-0.5,7.8c0,0.4,0.7,0.4,0.7,0c0.2-2.6,0.2-5.2,0.3-7.8
		C163.1,83.3,162.7,83.3,162.7,83.6L162.7,83.6z"/>
	<path class="st2" d="M164.5,83.3c-0.3,2.6-0.6,5.2-0.9,7.8c0,0.4,0.6,0.4,0.7,0c0.3-2.6,0.4-5.2,0.7-7.8
		C165,83,164.5,83,164.5,83.3L164.5,83.3z"/>
	<path class="st2" d="M165.8,82.9c0,2.6-0.3,5.2-0.7,7.7c-0.1,0.5,0.7,0.7,0.7,0.2c0.4-2.6,0.6-5.3,0.5-7.9
		C166.3,82.6,165.8,82.6,165.8,82.9L165.8,82.9z"/>
	<path class="st2" d="M168,82.1c-0.4,2.7-0.6,5.5-0.9,8.2c-0.1,0.5,0.8,0.5,0.8,0c0.2-2.7,0.5-5.4,0.6-8.1
		C168.5,81.9,168,81.8,168,82.1L168,82.1z"/>
	<path class="st2" d="M170.2,82.5c-0.4,2.6-0.6,5.2-0.9,7.9c0,0.5,0.7,0.5,0.7,0c0.2-2.6,0.5-5.2,0.6-7.8
		C170.6,82.3,170.2,82.2,170.2,82.5L170.2,82.5z"/>
	<path class="st2" d="M171.5,82.1c-0.4,2.7-0.6,5.5-0.8,8.2c0,0.5,0.7,0.5,0.8,0c0.3-2.7,0.5-5.4,0.5-8.1
		C172.1,81.9,171.6,81.8,171.5,82.1L171.5,82.1z"/>
	<path class="st2" d="M173.9,82.2c-0.3,2.8-0.7,5.7-0.9,8.5c0,0.4,0.7,0.5,0.7,0.1c0.4-2.8,0.6-5.7,0.9-8.6
		C174.6,81.8,174,81.8,173.9,82.2L173.9,82.2z"/>
	<path class="st2" d="M176.1,81.8c-0.4,3-0.8,6-1.1,8.9c0,0.4,0.6,0.5,0.7,0.1c0.4-3,0.7-6,1-9C176.7,81.5,176.1,81.4,176.1,81.8
		L176.1,81.8z"/>
	<path class="st2" d="M178.6,81.4c-0.4,2.9-0.8,5.9-1.2,8.8c-0.1,0.5,0.6,0.6,0.7,0.1c0.3-3,0.7-5.9,1-8.9
		C179.1,81.2,178.7,81.2,178.6,81.4L178.6,81.4z"/>
	<path class="st2" d="M181.2,80c-0.4,2.6-0.8,5.2-1.1,7.8c0,0.4,0.6,0.5,0.6,0.1c0.4-2.6,0.6-5.2,0.9-7.8
		C181.6,79.9,181.2,79.8,181.2,80L181.2,80z"/>
	<path class="st2" d="M184.2,78.2c-0.4,2.6-0.9,5.2-1.2,7.9c-0.1,0.4,0.7,0.5,0.8,0.1c0.4-2.6,0.7-5.3,1-7.9
		C184.8,78,184.3,77.9,184.2,78.2L184.2,78.2z"/>
	<path class="st2" d="M186,77.6c-0.2,2-0.5,4-0.6,6c0,0.5,0.7,0.5,0.8,0c0.2-2,0.3-4,0.4-6C186.7,77.2,186.1,77.2,186,77.6L186,77.6
		z"/>
	<path class="st2" d="M188.8,76.4c-0.3,1.5-0.6,3-0.9,4.6c-0.1,0.5,0.7,0.8,0.8,0.2c0.3-1.6,0.4-3.1,0.6-4.7
		C189.5,76.2,188.9,76.1,188.8,76.4L188.8,76.4z"/>
	<path class="st2" d="M191,74.7c-0.3,1.1-0.4,2.3-0.6,3.4c-0.1,0.5,0.7,0.8,0.8,0.2c0.1-0.6,0.3-1.1,0.4-1.7
		c0.1-0.5-0.7-0.7-0.8-0.2c-0.1,0.6-0.3,1.1-0.4,1.7c0.3,0,0.6,0.1,0.8,0.1c0.1-1.1,0.3-2.3,0.3-3.4C191.6,74.4,191.1,74.4,191,74.7
		L191,74.7z"/>
	<path class="st2" d="M169.9,75.1c0.1,0.5,0.2,0.8,0.1,1.3c-0.1,0.4,0.6,0.6,0.7,0.2c0.2-0.7,0.1-1.3-0.5-1.7
		C170,74.9,169.8,75,169.9,75.1L169.9,75.1z"/>
	<path class="st2" d="M171.7,73.7c0.2,0.7,0.3,1.3,0.1,2c-0.1,0.4,0.5,0.5,0.6,0.2c0.1-0.8,0.1-1.6-0.4-2.3
		C171.9,73.5,171.6,73.5,171.7,73.7L171.7,73.7z"/>
	<path class="st2" d="M173.6,71.9c0.1,1.1,0,2.1-0.2,3.1c-0.1,0.4,0.5,0.5,0.6,0.2c0.3-1.1,0.2-2.2,0.1-3.4
		C174,71.6,173.6,71.7,173.6,71.9L173.6,71.9z"/>
	<path class="st2" d="M175.4,69.8c0.1,1.4-0.1,2.8-0.4,4.2c-0.1,0.4,0.5,0.6,0.6,0.2c0.3-1.4,0.4-2.9,0.3-4.3
		C175.9,69.5,175.4,69.4,175.4,69.8L175.4,69.8z"/>
	<path class="st2" d="M177.9,66.3c-0.2,2.1-0.3,4.3-0.5,6.4c0,0.5,0.7,0.5,0.8,0c0.1-2.1,0.2-4.3,0.3-6.4
		C178.4,65.9,177.9,65.9,177.9,66.3L177.9,66.3z"/>
	<path class="st2" d="M179.9,63.8c-0.3,2.8-0.6,5.7-0.8,8.5c0,0.5,0.8,0.5,0.8,0c0.2-2.8,0.4-5.7,0.6-8.5
		C180.5,63.4,180,63.4,179.9,63.8L179.9,63.8z"/>
	<path class="st2" d="M181.8,61.3c-0.2,1.5-0.3,3-0.5,4.5c-0.1,1.3-0.7,3.3-0.5,4.6c0.1,0.6,0.5,1.1,1.1,0.5
		c0.1-0.1,0.1-0.3,0.1-0.4c0,0,0-0.1,0-0.1c-0.1-0.5-0.9-0.3-0.8,0.2c0.4-0.2,0.6-0.6,0.5-1.1c0-0.2,0-0.5,0.1-0.7
		c0.1-0.9,0.2-1.7,0.2-2.6c0.1-1.6,0.3-3.2,0.4-4.9C182.5,60.9,181.8,60.9,181.8,61.3L181.8,61.3z"/>
	<path class="st2" d="M183.4,60.2c-0.2,3.5-0.5,7.1-0.7,10.6c0,0.5,0.7,0.5,0.8,0c0.3-3.5,0.4-7.1,0.5-10.6
		C184.1,59.8,183.5,59.8,183.4,60.2L183.4,60.2z"/>
	<path class="st2" d="M184.9,57c0.4,4.4,0.4,8.7,0,13.1c-0.1,0.6,0.8,0.6,0.9,0c0.4-4.4,0.3-8.8-0.3-13.2
		C185.4,56.6,184.8,56.7,184.9,57L184.9,57z"/>
	<path class="st2" d="M188,55.6c-0.3,4.3-0.5,8.5-0.8,12.8c0,0.5,0.8,0.5,0.8,0c0.2-4.3,0.4-8.5,0.5-12.8
		C188.6,55.3,188.1,55.3,188,55.6L188,55.6z"/>
	<path class="st2" d="M189.2,51.7c0.2,5.1,0.2,10.2-0.2,15.2c0,0.5,0.8,0.5,0.8,0c0.2-5.1,0.2-10.2-0.2-15.2
		C189.7,51.4,189.2,51.4,189.2,51.7L189.2,51.7z"/>
	<path class="st2" d="M190.9,48.9c0.6,5.6,0.7,11.1,0.3,16.6c0,0.5,0.8,0.5,0.8,0c0.3-5.6,0.2-11.2-0.6-16.7
		C191.4,48.6,190.9,48.6,190.9,48.9L190.9,48.9z"/>
	<path class="st2" d="M192.3,45.7c0.8,6.9,1,13.6,0.7,20.5c0,0.5,0.7,0.5,0.8,0c0.4-6.9,0-13.8-1-20.6
		C192.7,45.4,192.3,45.5,192.3,45.7L192.3,45.7z"/>
	<path class="st2" d="M193.5,42.9c1.7,6.9,2,13.7,0.9,20.7c-0.1,0.5,0.7,0.8,0.8,0.2c1.1-7.1,0.7-14.1-1.2-21.1
		C193.9,42.5,193.4,42.6,193.5,42.9L193.5,42.9z"/>
	<path class="st2" d="M128.4,95.9c0.1,1.4,0.4,2.5,0.1,3.9c-0.1,0.5,0.6,0.6,0.7,0.2c0.3-1.3,0.3-3.1-0.6-4.2
		C128.5,95.8,128.4,95.8,128.4,95.9L128.4,95.9z"/>
	<path class="st2" d="M129.7,92.1c-0.1,1.9,0,3.8,0.3,5.7c0.1,0.4,0.7,0.2,0.6-0.2c-0.4-1.9-0.5-3.7-0.4-5.6
		C130.2,91.8,129.7,91.8,129.7,92.1L129.7,92.1z"/>
	<path class="st2" d="M131.2,89.6c0.2,2,0.3,4.1,0.6,6.1c0,0.3,0.5,0.2,0.5-0.1c-0.1-2-0.5-4-0.7-6
		C131.6,89.4,131.1,89.3,131.2,89.6L131.2,89.6z"/>
	<path class="st2" d="M132.9,87.2c0.4,2.6,0.6,5.1,0.6,7.7c0,0.4,0.6,0.4,0.6,0c0-2.6-0.3-5.3-0.8-7.9
		C133.3,86.8,132.9,86.9,132.9,87.2L132.9,87.2z"/>
	<path class="st2" d="M134.7,82.9c0.2,2.3,0.4,4.7,0.7,7c0.1,1-0.2,3,0.7,3.7c0.1,0.1,0.3,0.2,0.4,0.1c0.3-0.2,0.3-0.3,0.3-0.6
		c0-0.2-0.2-0.3-0.4-0.4c0,0-0.1,0-0.1,0c-0.4,0-0.5,0.6-0.1,0.7c-0.1,0-0.9-9.6-1-10.5C135.2,82.6,134.6,82.5,134.7,82.9
		L134.7,82.9z"/>
	<path class="st2" d="M136.8,80.4c0.4,3.8,0.9,7.6,1.3,11.3c0.1,0.5,0.8,0.4,0.7-0.1c-0.6-3.8-1-7.5-1.6-11.3
		C137.2,80.1,136.8,80.2,136.8,80.4L136.8,80.4z"/>
	<path class="st2" d="M139.3,80.8c0,3.3,0.3,6.5,0.9,9.7c0.1,0.5,0.8,0.3,0.7-0.2c-0.6-3.1-1-6.3-1.1-9.5
		C139.8,80.4,139.3,80.4,139.3,80.8L139.3,80.8z"/>
	<path class="st2" d="M141.1,78.4c0.6,3.6,1,7.3,1.2,10.9c0,0.5,0.7,0.5,0.7,0c-0.3-3.7-0.8-7.4-1.5-11.1
		C141.5,77.9,141,78.1,141.1,78.4L141.1,78.4z"/>
	<path class="st2" d="M142.8,75.5c0.5,4,1.1,8.1,1.6,12.1c0.1,0.4,0.7,0.3,0.7-0.2c-0.6-4-1.3-8-1.9-12
		C143.2,75.2,142.8,75.3,142.8,75.5L142.8,75.5z"/>
	<path class="st2" d="M145.3,77.3c0.5,2.6,0.6,5.1,0.6,7.7c0,0.3,0.5,0.3,0.5,0c0.1-2.6-0.2-5.3-0.8-7.8
		C145.7,76.9,145.3,77.1,145.3,77.3L145.3,77.3z"/>
	<path class="st2" d="M151,71.6c0.5,2.1,0.9,4.3,1.4,6.4c0.1,0.3,0.5,0.2,0.5-0.1c-0.5-2.1-1-4.2-1.6-6.3
		C151.2,71.4,150.9,71.5,151,71.6L151,71.6z"/>
	<path class="st2" d="M151.3,64.9c0.8,4.4,1.7,8.8,2.9,13.2c0.1,0.5,0.8,0.3,0.7-0.2c-1.3-4.3-2.3-8.7-3.1-13.1
		C151.8,64.4,151.3,64.6,151.3,64.9L151.3,64.9z"/>
	<path class="st2" d="M153.5,61.3c0.4,5.3,1.5,10.4,3.2,15.4c0.2,0.5,0.9,0.3,0.7-0.2c-1.7-4.9-2.9-10-3.4-15.2
		C154,61,153.5,61,153.5,61.3L153.5,61.3z"/>
	<path class="st2" d="M155.4,59.3c1,5.6,2.1,11.1,3.2,16.7c0.1,0.5,0.9,0.3,0.8-0.2c-1.1-5.5-2.3-11.1-3.5-16.6
		C155.8,58.8,155.3,58.9,155.4,59.3L155.4,59.3z"/>
	<path class="st2" d="M158.1,57.1c1,5.2,1.9,10.4,2.9,15.7c0.1,0.5,0.9,0.3,0.8-0.2c-1.1-5.2-2.1-10.4-3.2-15.6
		C158.5,56.7,158,56.8,158.1,57.1L158.1,57.1z"/>
	<path class="st2" d="M159.9,52.8c1,5.9,2.2,11.7,3.7,17.4c0.1,0.5,0.9,0.3,0.7-0.2c-1.5-5.7-2.8-11.5-3.9-17.4
		C160.3,52.4,159.8,52.5,159.9,52.8L159.9,52.8z"/>
	<path class="st2" d="M161.5,52.2c1.1,5.3,2.2,10.7,3.5,16c0.1,0.5,0.9,0.3,0.8-0.2c-1.2-5.3-2.5-10.6-3.8-15.9
		C161.9,51.7,161.5,51.9,161.5,52.2L161.5,52.2z"/>
	<path class="st2" d="M162.3,50c1.1,5.7,2.9,11.2,5.5,16.5c0.2,0.5,1,0.1,0.7-0.4c-2.7-5.1-4.6-10.5-5.7-16.2
		C162.8,49.5,162.2,49.7,162.3,50L162.3,50z"/>
	<path class="st2" d="M168,45.4c-0.2,5.2,1.3,10.3,4.4,14.4c0.3,0.4,0.9,0,0.6-0.4c-3-4.3-4.5-8.8-4.6-14.1
		C168.4,45.1,168,45.1,168,45.4L168,45.4z"/>
	<path class="st2" d="M170.5,43.9c0.7,5.4,2.3,10.6,4.7,15.5c0.3,0.5,1,0.1,0.8-0.4c-2.5-4.8-4.1-9.8-5-15.1
		C171,43.6,170.5,43.6,170.5,43.9L170.5,43.9z"/>
	<path class="st2" d="M173.2,43.6c0.4,4,1.5,8,2.7,11.8c0.2,0.5,1,0.3,0.8-0.2c-1.1-3.9-1.9-7.8-3-11.6
		C173.7,43.3,173.2,43.3,173.2,43.6L173.2,43.6z"/>
	<path class="st2" d="M175,41.9c0.9,3.7,1.8,7.3,2.7,11c0.1,0.5,0.9,0.3,0.8-0.2c-1-3.6-2.1-7.3-3.1-10.9
		C175.3,41.5,174.9,41.6,175,41.9L175,41.9z"/>
	<path class="st2" d="M176.9,40.8c0.8,3.3,1.7,6.7,2.5,10c0.1,0.5,1,0.3,0.8-0.2c-0.9-3.3-1.8-6.6-2.8-9.9
		C177.3,40.3,176.8,40.5,176.9,40.8L176.9,40.8z"/>
	<path class="st2" d="M179.4,41.1c0.5,2.3,1.1,4.5,1.6,6.8c0.1,0.4,0.8,0.2,0.7-0.2c-0.6-2.2-1.2-4.5-1.8-6.7
		C179.8,40.7,179.3,40.8,179.4,41.1L179.4,41.1z"/>
	<path class="st2" d="M181.2,40.4c0.3,1.6,0.6,3.2,1,4.7c0.1,0.4,0.7,0.2,0.7-0.2c-0.3-1.6-0.8-3.1-1.2-4.7
		C181.6,40,181.1,40.1,181.2,40.4L181.2,40.4z"/>
	<path class="st2" d="M182.7,39.3c0.1,1.3,0.4,2.6,1,3.8c0.2,0.4,0.8,0.1,0.6-0.3c-0.6-1.1-0.9-2.3-1.1-3.5
		C183.1,39,182.6,39.1,182.7,39.3L182.7,39.3z"/>
	<path class="st2" d="M184.3,38.7c0.2,0.7,0.3,2.2,1.1,2.5c0.1,0.1,0.3,0,0.4-0.1c0,0,0-0.1,0-0.1c0.1-0.1,0.1-0.2,0-0.3
		c0,0,0-0.1-0.1-0.1c-0.1-0.2-0.3-0.2-0.4-0.1c0,0,0,0-0.1,0c-0.4,0.2,0,0.7,0.3,0.5c0,0,0,0,0.1,0c-0.1,0-0.3-0.1-0.4-0.1
		c0,0,0-0.1,0-0.1c0.1,0,0.3-0.1,0.4-0.1c-0.4-0.2-0.7-1.6-0.9-2C184.7,38.2,184.2,38.4,184.3,38.7L184.3,38.7z"/>
	<path class="st2" d="M186.2,37.1c-0.4,0.1-0.8,0.7-0.3,1.1c0.5,0.4,1-0.1,1-0.6c0-0.4-0.5-0.4-0.6,0c0,0,0.1,0,0.1,0
		C186.7,37.4,186.5,37,186.2,37.1L186.2,37.1z"/>
	<path class="st2" d="M189.8,32.9c0.4,0,0.4-0.7,0-0.7C189.4,32.3,189.4,32.9,189.8,32.9L189.8,32.9z"/>
	<path class="st2" d="M155.5,225.6c1.6,1.5,3.4,2.8,5.4,3.9c0.4,0.2,0.7-0.4,0.3-0.6c-2-1-3.8-2.2-5.4-3.7
		C155.6,225.1,155.3,225.4,155.5,225.6L155.5,225.6z"/>
	<path class="st2" d="M156.7,223.4c1.8,2.1,4.2,3.7,6.8,4.8c0.3,0.1,0.5-0.4,0.2-0.6c-2.6-1-4.7-2.5-6.7-4.4
		C156.8,223,156.6,223.2,156.7,223.4L156.7,223.4z"/>
	<path class="st2" d="M164.5,231.3c0.8-0.5,1.4-1.1,1.8-1.9c0.2-0.3-0.3-0.7-0.5-0.3c-0.4,0.7-1,1.3-1.6,1.8
		C163.9,231.1,164.2,231.5,164.5,231.3L164.5,231.3z"/>
	<path class="st2" d="M166.6,232.1c0.3-0.9,0.8-1.6,1.5-2.3c0.3-0.3-0.2-0.8-0.5-0.5c-0.7,0.7-1.2,1.6-1.5,2.6
		C166,232.3,166.5,232.4,166.6,232.1L166.6,232.1z"/>
	<path class="st2" d="M168.7,232.6c0.6-0.7,1-1.4,1.6-2.1c0.3-0.4-0.4-0.8-0.6-0.4c-0.5,0.7-0.9,1.4-1.3,2.2
		C168.1,232.5,168.5,232.8,168.7,232.6L168.7,232.6z"/>
	<path class="st2" d="M170.5,232.6c0.8-0.7,1.5-1.4,2.2-2.1c0.3-0.3-0.2-0.7-0.4-0.4c-0.7,0.7-1.4,1.4-2.1,2.2
		C170,232.5,170.3,232.8,170.5,232.6L170.5,232.6z"/>
	<path class="st2" d="M172.9,232.7c0.9-0.4,1.6-1,2-1.8c0.2-0.4-0.4-0.7-0.6-0.3c-0.4,0.8-0.9,1.3-1.7,1.7
		C172.4,232.3,172.6,232.8,172.9,232.7L172.9,232.7z"/>
	<path class="st2" d="M175.7,232c0.9-0.4,1.6-0.9,2-1.8c0.2-0.4-0.4-0.7-0.6-0.3c-0.4,0.8-0.9,1.3-1.6,1.7
		C175.2,231.6,175.4,232.1,175.7,232L175.7,232z"/>
	<path class="st2" d="M179.7,230.6c0.8-0.4,1.3-1.1,1.6-2c0.1-0.5-0.6-0.7-0.7-0.2c-0.2,0.7-0.5,1.2-1.2,1.7
		C179.1,230.3,179.4,230.8,179.7,230.6L179.7,230.6z"/>
	<path class="st2" d="M182.6,229.8c0.5-0.5,1-0.9,1.5-1.4c0.3-0.3-0.2-0.8-0.5-0.5c-0.5,0.5-0.9,1-1.4,1.5
		C182,229.7,182.3,230,182.6,229.8L182.6,229.8z"/>
	<path class="st2" d="M187.5,227.7c0.6-0.3,1.2-0.6,1.8-1c0.4-0.2,0-0.8-0.3-0.6c-0.6,0.4-1.1,0.8-1.7,1.2
		C187,227.5,187.2,227.8,187.5,227.7L187.5,227.7z"/>
	<path class="st2" d="M192.5,225.2c0.4-0.5,0.7-0.9,1.1-1.4c0.3-0.4-0.2-0.8-0.5-0.4c-0.3,0.5-0.7,1-1,1.4
		C191.8,225.1,192.3,225.5,192.5,225.2L192.5,225.2z"/>
	<path class="st2" d="M197.2,221.3c0.1-0.2,0.2-0.5,0.4-0.7c0.2-0.4-0.4-0.8-0.6-0.4c-0.1,0.2-0.2,0.5-0.3,0.7
		C196.4,221.3,197,221.7,197.2,221.3L197.2,221.3z"/>
	<path class="st2" d="M200.8,217.9c0.4,0,0.4-0.7,0-0.7C200.4,217.2,200.4,217.9,200.8,217.9L200.8,217.9z"/>
	<path class="st2" d="M205,214c0-0.1,0-0.2,0-0.4c0-0.4-0.6-0.4-0.6,0c0,0.1,0,0.2,0,0.4C204.4,214.4,205,214.4,205,214L205,214z"/>
	<path class="st2" d="M208.3,210.8c0-0.1,0-0.2,0-0.4c0-0.5-0.7-0.5-0.7,0c0,0.1,0,0.2,0,0.4C207.5,211.3,208.3,211.3,208.3,210.8
		L208.3,210.8z"/>
	<path class="st2" d="M98.8,181.8c0.2,1.3,0.4,2.6,0.7,3.9c0.1,0.4,0.7,0.2,0.6-0.2c-0.3-1.3-0.5-2.6-0.8-3.9
		C99.2,181.4,98.8,181.5,98.8,181.8L98.8,181.8z"/>
	<path class="st2" d="M101.6,185.3c0,0.1,0,0.2,0,0.4c0,0,0,0,0,0C101.6,185.5,101.6,185.4,101.6,185.3
		C101.6,185.3,101.6,185.3,101.6,185.3L101.6,185.3z"/>
	<path class="st2" d="M101.4,185.4c0.2,0.4,0.4,0.7,0.7,1.1c0.2,0.3,0.7,0,0.5-0.3c-0.2-0.3-0.5-0.7-0.7-1
		C101.6,184.9,101.2,185.2,101.4,185.4L101.4,185.4z"/>
	<path class="st2" d="M104.8,187.5c32.6,0.6,65.2,0.6,97.8,1.8c0.5,0,0.5-0.8,0-0.8c-32.5-1.3-65.3-2.3-97.8-1.3
		C104.6,187.1,104.6,187.5,104.8,187.5L104.8,187.5z"/>
	<path class="st2" d="M203.8,183.6c0.1,0.8,0.2,1.7,0.2,2.5c0,0.4,0.6,0.3,0.5-0.1c-0.1-0.8-0.3-1.6-0.4-2.5
		C204,183.3,203.7,183.4,203.8,183.6L203.8,183.6z"/>
	<path class="st2" d="M205.8,182c-0.4,1.4-0.6,2.9-0.4,4.3c0,0.5,0.8,0.5,0.8,0c-0.1-1.4-0.1-2.8,0.2-4.2
		C206.5,181.8,205.9,181.7,205.8,182L205.8,182z"/>
	<path class="st2" d="M106.2,189.5c32.6,0.8,65.2,0.3,97.8,1.1c0.4,0,0.4-0.7,0-0.7c-32.5-0.8-65.3-1.9-97.8-0.8
		C106,189.1,106,189.5,106.2,189.5L106.2,189.5z"/>
</g>
</svg>
