<?xml version="1.0" encoding="utf-8"?>
<!-- Generator: Adobe Illustrator 25.2.0, SVG Export Plug-In . SVG Version: 6.00 Build 0)  -->
<svg version="1.1" id="Capa_1" xmlns="http://www.w3.org/2000/svg" xmlns:xlink="http://www.w3.org/1999/xlink" x="0px" y="0px"
	 viewBox="0 0 512 512" style="enable-background:new 0 0 512 512;" xml:space="preserve">
<style type="text/css">
	.st0{fill:#D18754;}
	.st1{fill:#FEC37D;}
	.st2{fill:#F9AE5D;}
	.st3{fill:#F2A559;}
	.st4{fill:#EA8F3D;}
	.st5{fill:#00E4FF;}
	.st6{fill:#55F7FF;}
</style>
<path class="st0" d="M319.3,268.4c-2.9-3.2-7.8-3.5-11-0.7c-4.9,4.4-9.8,9-14.5,13.6c-13.4,13.4-23,24.5-29.9,33.2V175
	c0-4.3-3.5-7.8-7.8-7.8c-4.3,0-7.8,3.5-7.8,7.8v139.8c-6.8-8.7-16.5-19.9-30.1-33.5c-4.2-4.2-8.5-8.2-12.8-12.1
	c-3.2-2.9-8.2-2.6-11,0.6c-2.9,3.2-2.6,8.2,0.6,11c4.1,3.7,8.2,7.6,12.2,11.5c28,28,38.5,45.2,41.1,49.9V393c0,4.3,3.5,7.8,7.8,7.8
	s7.8-3.5,7.8-7.8v-51c2.9-5.2,13.5-22.2,40.9-49.6c4.5-4.5,9.1-8.8,13.8-13C321.9,276.5,322.2,271.6,319.3,268.4z"/>
<path class="st1" d="M318.1,512H193.9c-7,0-13.2-4.7-15-11.5l-32.6-121.2h219.6l-32.6,121.2C331.3,507.3,325.2,512,318.1,512z"/>
<path class="st2" d="M316.2,379.3l-32.6,121.2c-1.8,6.8-8,11.5-15,11.5h49.5c7,0,13.2-4.7,15-11.5l32.6-121.2H316.2L316.2,379.3z"/>
<path class="st3" d="M371.4,407.3H140.6c-3.9,0-7.1-3.2-7.1-7.1v-27.1c0-3.9,3.2-7.1,7.1-7.1h230.8c3.9,0,7.1,3.2,7.1,7.1v27.1
	C378.5,404.1,375.3,407.3,371.4,407.3z"/>
<path class="st4" d="M371.4,366.1h-46.5v41.2h46.5c3.9,0,7.1-3.2,7.1-7.1v-27.1C378.5,369.2,375.3,366.1,371.4,366.1z"/>
<g>
	<path class="st5" d="M42.3,197.6c32,24.6,59.4,57.1,93.2,78.7c22.6,14.5,51.9,19.3,77.6,10.2c11.1-30.8-8.6-62.8-34.3-79
		C140.3,183.1,84.7,184.2,42.3,197.6z"/>
	<path class="st5" d="M469.7,197.6c-32,24.6-59.4,57.1-93.2,78.7c-22.6,14.5-51.9,19.3-77.6,10.2c-11.1-30.8,8.6-62.8,34.3-79
		C371.7,183.1,427.3,184.2,469.7,197.6z"/>
	<path class="st5" d="M256,0c-22.8,31.1-45.2,89.9-42.9,134.4c1.6,30.3,19,62.8,42.7,67.5c0.1-0.1,0.1-0.2,0.2-0.2
		c0.1,0.1,0.1,0.2,0.2,0.2c23.7-4.8,41.1-37.2,42.7-67.5C301.2,89.9,278.8,31.1,256,0z"/>
</g>
<g>
	<path class="st6" d="M256.8,201.8c23.4-5.2,40.4-37.3,42-67.4c2.3-44-19.5-101.8-42-133.2V201.8L256.8,201.8z"/>
	<path class="st6" d="M298.9,286.5c25.7,9.2,55,4.3,77.6-10.2c33.8-21.6,61.2-54.1,93.2-78.7C469.7,197.6,347.8,208.7,298.9,286.5z"
		/>
	<path class="st6" d="M213.1,286.5c-25.7,9.2-55,4.3-77.6-10.2c-33.8-21.6-61.2-54.1-93.2-78.7C42.3,197.6,164.2,208.7,213.1,286.5z
		"/>
</g>
</svg>
