<?xml version="1.0" encoding="utf-8"?>
<!-- Generator: Adobe Illustrator 25.2.0, SVG Export Plug-In . SVG Version: 6.00 Build 0)  -->
<svg version="1.1" id="Capa_1" xmlns="http://www.w3.org/2000/svg" xmlns:xlink="http://www.w3.org/1999/xlink" x="0px" y="0px"
	 viewBox="0 0 512 512" style="enable-background:new 0 0 512 512;" xml:space="preserve">
<style type="text/css">
	.st0{fill:#00E4FF;}
	.st1{fill:#55F7FF;}
	.st2{fill:#FFFFFF;stroke:#000000;stroke-width:15;stroke-linecap:round;stroke-linejoin:round;stroke-miterlimit:10;}
	.st3{fill:#FEC37D;}
	.st4{fill:#F9AE5D;}
	.st5{fill:#F2A559;}
	.st6{fill:#EA8F3D;}
</style>
<path class="st0" d="M408.9,45.5c2.3,6.2,27.4,79.8-24.2,166.6c-31.3,52.7-78.9,56.2-83.5,56.4c-2.7-3.8-29.6-43.2-7.8-100.5
	C329.4,73.7,402.7,47.6,408.9,45.5z"/>
<path class="st1" d="M408.9,45.5L301.2,268.6l0,0c4.7-0.2,52.2-3.7,83.5-56.4C436.3,125.3,411.2,51.7,408.9,45.5z"/>
<path class="st2" d="M297.9,275.5l3.3-6.9c-0.1-0.1-0.2-0.2-0.3-0.4C298.9,273,297.9,275.5,297.9,275.5z"/>
<path class="st0" d="M103.1,45.5c-2.3,6.2-27.4,79.8,24.2,166.6c31.3,52.7,78.9,56.2,83.5,56.4c2.7-3.8,29.6-43.2,7.8-100.5
	C182.6,73.7,109.3,47.6,103.1,45.5z"/>
<path class="st1" d="M218.5,168.1C182.6,73.7,109.3,47.6,103.1,45.5c63.7,121.6,98,199.5,107.9,222.7
	C214.8,262.8,239.8,223.9,218.5,168.1z"/>
<path class="st0" d="M256,0c-7.7,7.4-96.4,97.4-82.3,260.7c8.6,99.2,75.6,137.9,82.3,141.5c6.7-3.6,73.7-42.3,82.3-141.5
	C352.4,97.4,263.7,7.4,256,0z"/>
<path class="st1" d="M256,0v402.2c6.7-3.6,73.7-42.3,82.3-141.5C352.4,97.4,263.7,7.4,256,0z"/>
<path class="st0" d="M446,250c16.7-57.4,11-110.7,11-110.7s-32.2,14.3-112.9,66.5c-62.8,40.6-82.2,111.7-88.1,130.9h73.8
	C383.5,336.8,431,301.6,446,250z"/>
<path class="st1" d="M457,139.3c0,0-83,164-201,197.5h73.8c53.7,0,101.2-35.2,116.2-86.7C462.7,192.7,457,139.3,457,139.3z"/>
<path class="st0" d="M66,250c-16.7-57.4-11-110.7-11-110.7s32.2,14.3,112.9,66.5c62.8,40.6,82.2,111.7,88.1,130.9h-73.8
	C128.5,336.8,81,301.6,66,250z"/>
<path class="st1" d="M256,336.8c-5.8-19.2-25.3-90.3-88.1-130.9C87.1,153.7,55,139.3,55,139.3S138,303.4,256,336.8z"/>
<path class="st3" d="M309.4,512H202.6c-28.3,0-52.6-20.2-57.8-48L122,340.9h268L367.2,464C362,491.8,337.7,512,309.4,512z"/>
<path class="st4" d="M338.2,340.9L315.3,464c-5.2,27.8-29.5,48-57.8,48h51.9c28.3,0,52.6-20.2,57.8-48L390,340.9H338.2L338.2,340.9
	L338.2,340.9z"/>
<path class="st5" d="M394.7,368.6H117.3c-11.2,0-20.4-9.1-20.4-20.4l0,0c0-11.2,9.1-20.4,20.4-20.4h277.4c11.2,0,20.4,9.1,20.4,20.4
	l0,0C415.1,359.4,406,368.6,394.7,368.6z"/>
<path class="st6" d="M394.7,327.8h-32.6v40.7h32.6c11.2,0,20.4-9.1,20.4-20.4l0,0C415.1,337,406,327.8,394.7,327.8z"/>
</svg>
