<?xml version="1.0" encoding="utf-8"?>
<!-- Generator: Adobe Illustrator 25.2.0, SVG Export Plug-In . SVG Version: 6.00 Build 0)  -->
<svg version="1.1" id="Capa_1" xmlns="http://www.w3.org/2000/svg" xmlns:xlink="http://www.w3.org/1999/xlink" x="0px" y="0px"
	 viewBox="0 0 512 512" style="enable-background:new 0 0 512 512;" xml:space="preserve">
<style type="text/css">
	.st0{fill:#C6C5CA;}
	.st1{fill:#BBBBBC;}
	.st2{fill:#D18754;}
	.st3{fill:#BC7646;}
	.st4{fill:#00E4FF;}
	.st5{fill:#55F7FF;}
	.st6{fill:#F2A559;}
	.st7{fill:#FEC37D;}
	.st8{fill:#F9AE5D;}
	.st9{fill:#EA8F3D;}
</style>
<path class="st0" d="M247.9,382.8l16.5-36.5c2.4-5.4,7.7-8.8,13.6-8.8h20.6c3.5,0,6.9-1.2,9.6-3.5l17.7-14.9
	c6.5-5.4,15.2-7.3,23.4-4.9l0,0c6,1.8,11.1,5.7,14.4,11l2.1,3.4c1.8,2.9,4.5,5.1,7.8,6.2l7,2.5c4.2,1.5,7.5,4.7,9,8.8l0,0
	c1.1,2.9,3.1,5.4,5.6,7.1l3.1,2.1c3.6,2.4,6,6.3,6.5,10.6l0.6,4.9l-2.7,12L247.9,382.8L247.9,382.8z"/>
<path class="st1" d="M398.3,355.3l-3.1-2.1c-2.6-1.7-4.5-4.2-5.6-7.1c-1.6-4.1-4.9-7.4-9-8.8l-7-2.5c-3.2-1.1-6-3.3-7.8-6.2
	l-2.1-3.4c-3.3-5.3-8.4-9.2-14.4-11l0,0c-2.6-0.8-5.2-1.1-7.8-1v69.7h61.1l2.7-12l-0.6-4.9C404.3,361.6,401.9,357.7,398.3,355.3z"/>
<path class="st2" d="M237.1,290.3c44-57.1,58.3-87.1,71.5-126h-36.7c-9.1,29.4-30.6,56.4-58.2,81.9c-34.6-15.8-47.6-57.5-52.8-81.9
	h-35.5c5.1,39.6,30.6,73.9,58,111.6c-86.8,78.5-84.3,171.1-84.3,171.1h152.4C251.5,447.1,186.1,356.4,237.1,290.3z"/>
<path class="st3" d="M237.1,290.3c44-57.1,58.3-87.1,71.5-126h-14.5c-13.2,38.8-44.9,68.8-88.9,126c-51,66.1-53.9,156.8-53.9,156.8
	h100.2C251.5,447.1,186.1,356.4,237.1,290.3z"/>
<path class="st4" d="M456.7,80.3c-10.3-16.9-28-28.8-48.6-31.1c-13.8-18.8-36.1-31.1-61.2-31.1c-7.2,0-14.1,1-20.7,2.9
	c-6.6-1.9-13.5-2.9-20.7-2.9c-7.8,0-15.3,1.2-22.4,3.4C269.5,8.2,251,0,230.6,0c-27.9,0-52.2,15.2-65.1,37.8c-3-0.4-6.1-0.6-9.2-0.6
	c-38.3,0-69.3,31-69.3,69.3c0,0,0,0.1,0,0.1c-1-0.1-1.9-0.1-2.9-0.1c-27.7,0-49.9,23.4-48,51.5c1.6,23.7,20.8,42.9,44.5,44.6
	c14.3,1,27.4-4.2,36.8-13.3c8.4-8.1,21.9-8,30.4,0c10.7,10,24.3,20.1,36.3,20.1c13.3,0,25.5-5.1,34.6-13.5c6-5.6,14.8-6.7,22-2.7
	c11,6,23.6,9.5,37.1,9.5c26.2,0,49.4-13.1,63.3-33.1c1.9,0.1,3.8,0.2,5.7,0.2c5.7,0,11.3-0.7,16.7-1.9c3.4,3.1,1.2,3.5,17,8.4
	c11.9,13.2,29.4,21.2,48.8,20.4c32-1.3,58-27.2,59.5-59.2C489.9,113,476.7,91.3,456.7,80.3z"/>
<path class="st5" d="M488.9,135c0-0.7,0-1.4,0-2.1c0,0,0-0.1,0-0.1c-0.1-1.6-0.2-3.1-0.3-4.7c0,0,0,0,0,0l0,0
	c-2.2-20.6-14.5-38.2-31.8-47.7c-10.3-16.9-28-28.8-48.6-31.1c-13.8-18.8-36.1-31.1-61.2-31.1c-7.2,0-14.1,1-20.7,2.9
	c-6.6-1.9-13.5-2.9-20.7-2.9c-1.6,0-3.2,0.1-4.7,0.2c23.1,1.5,43.5,13.3,56.4,30.9c20.6,2.3,38.3,14.2,48.6,31.1
	c20,11,33.3,32.7,32.1,57.4c-0.2,3.5-0.6,7-1.4,10.3c-5.6,25.7-37.9,34.7-55.7,15.3c-0.1-0.1-0.2-0.2-0.3-0.3
	c-15.8-4.9-13.6-5.4-17-8.4c-5.4,1.2-11,1.9-16.7,1.9c-1.9,0-3.8-0.1-5.7-0.2c-13.9,20-37.1,33.1-63.3,33.1
	c-13.4,0-26.1-3.4-37.1-9.5c-7.2-3.9-16-2.8-22,2.7c-9.1,8.4-21.2,13.5-34.6,13.5c-12,0-25.7-10.2-36.3-20.1c-8.6-8-22-8.1-30.5,0
	c-9.4,9-22.5,14.2-36.8,13.2c-22.6-1.6-41-19.1-44.1-41.3c-0.5,3.3-0.6,6.7-0.4,10.2c1.7,24.1,21.4,43.4,45.5,44.6
	c13.9,0.7,26.6-4.5,35.8-13.3c8.4-8.1,21.9-8,30.4,0c10.7,10,24.3,20.1,36.4,20.1c13.3,0,25.5-5.1,34.6-13.5c6-5.6,14.8-6.7,22-2.7
	c11,6,23.6,9.5,37.1,9.5c26.2,0,49.4-13.1,63.3-33.1c1.9,0.1,3.8,0.2,5.7,0.2c5.7,0,11.3-0.7,16.7-1.9c3.4,3.1,1.2,3.5,17,8.4
	c5.7,6.3,12.7,11.5,20.6,15l0,0h0c2.1,1,4.3,1.8,6.5,2.5l1.2,0.4c0.4,0.1,1.7,0.5,2.2,0.6c0,0,0.1,0,0.1,0c1,0.3,2.1,0.5,3.2,0.7
	c0.1,0,0.2,0.1,0.4,0.1c1,0.2,2,0.4,3,0.5c0.2,0,0.4,0.1,0.6,0.1c0.9,0.1,1.9,0.2,2.9,0.3c0.3,0,0.5,0.1,0.8,0.1
	c0.9,0.1,1.9,0.1,2.8,0.1c0.3,0,0.6,0,0.8,0c1.2,0,2.5,0,3.7,0c32-1.3,58-27.2,59.5-59.2c0-0.8,0.1-1.6,0.1-2.4
	C488.9,135.2,488.9,135.1,488.9,135z"/>
<g>
	<path class="st6" d="M128,512h-20.2c-2.8,0-5.1-2.1-5.3-4.9l-3.5-44.5h37.7l-3.5,44.5C133.1,509.9,130.8,512,128,512z"/>
	<path class="st6" d="M373.8,512h-20.2c-2.8,0-5.1-2.1-5.3-4.9l-3.5-44.5h37.7l-3.5,44.5C378.9,509.9,376.6,512,373.8,512z"/>
</g>
<path class="st7" d="M393.5,485.2H88.1c-7.4,0-13.8-5.2-15.2-12.5L45,387.1h391.6l-27.9,85.6C407.3,479.9,400.9,485.2,393.5,485.2z"
	/>
<path class="st8" d="M385.8,387.1l-27.9,85.6c-1.5,7.3-7.8,12.5-15.2,12.5h50.8c7.4,0,13.8-5.2,15.2-12.5l27.9-85.6H385.8z"/>
<path class="st6" d="M450.7,398.3H31c-4.3,0-7.8-3.5-7.8-7.8v-15.5c0-4.3,3.5-7.8,7.8-7.8h419.7c4.3,0,7.8,3.5,7.8,7.8v15.5
	C458.5,394.8,455,398.3,450.7,398.3z"/>
<path class="st9" d="M450.7,367.2h-45.3v31.1h45.3c4.3,0,7.8-3.5,7.8-7.8v-15.5C458.5,370.7,455,367.2,450.7,367.2z"/>
</svg>
