<?xml version="1.0" encoding="utf-8"?>
<!-- Generator: Adobe Illustrator 19.0.0, SVG Export Plug-In . SVG Version: 6.00 Build 0)  -->
<svg version="1.1" xmlns="http://www.w3.org/2000/svg" xmlns:xlink="http://www.w3.org/1999/xlink" x="0px" y="0px"
	 viewBox="0 0 500 422.7" style="enable-background:new 0 0 500 422.7;" xml:space="preserve">
<style type="text/css">
	.st0{fill:#917FD3;}
	.st1{fill:#988BD8;}
	.st2{fill:#7158B7;}
	.st3{fill:#5D4394;}
	.st4{fill:#FDF3FF;}
	.st5{fill:#FCAE30;}
	.st6{fill:#513E84;}
</style>
<g id="OBJECTS">
	<g>
		<g>
			<path class="st0" d="M459.7,179.1c-0.6-5.2-4.8-9.5-10-10.2c-2.3-0.3-4.5,0.1-6.4,1c0-0.4,0.1-0.7,0.1-1.1
				c0-12.8-10.3-23.1-23.1-23.1c-4.9,0-9.4,1.5-13.2,4.1c-3.8-15.7-18.5-27.1-35.7-25.8c-16.3,1.2-29.6,14.3-31.2,30.6
				c-0.5,5.1,0.1,9.9,1.7,14.4c-0.5-0.1-1-0.1-1.5-0.1c-2.3,0-4.3,0.7-6.1,1.8c0-0.2,0-0.4,0-0.6c0-12.1-9.8-22-22-22
				c-12.1,0-22,9.8-22,22c0,1.2,0.1,2.3,0.3,3.5h-36.9c-5.1,0-9.2,4.1-9.2,9.2c0,5.1,4.1,9.2,9.2,9.2h198.4v-0.7
				C457,189.4,460.3,184.6,459.7,179.1z"/>
		</g>
		<path class="st1" d="M32.7,344.2c0,0,54.7-103.9,120-102.8c93.8,1.6,152.4,91.4,152.4,91.4L32.7,344.2z"/>
		<path class="st1" d="M169.6,344.2c0,0,77.4-132.2,142.6-131.1C406,214.7,454.8,342,454.8,342L169.6,344.2z"/>
		<path class="st2" d="M467.3,361.6c0,23-102.8,22.8-218.8,38.5C67.3,424.6,32.7,344.2,32.7,344.2c8.7-21.8,119.4-50.4,227.2-50.4
			S467.3,338.6,467.3,361.6z"/>
		<g>
			<path class="st0" d="M263.8,104.5h-35.7c1-3.7,0.9-7.9-1.3-12.3c-2.4-4.8-6.8-8.4-12.1-9.5c-3.3-0.7-6.4-0.4-9.2,0.5
				c0-0.2,0-0.4,0-0.6c0-17.4-14.1-31.5-31.5-31.5c-15.4,0-28.2,11-30.9,25.6c-1.3-0.2-2.6-0.4-3.9-0.4c-11,0-20,8.6-20.6,19.5
				l-48.5,0c-6,0-11.2,4.6-11.4,10.6c-0.2,6.2,4.8,11.3,10.9,11.3h194.3c3.7,0,6.6-3,6.6-6.6C270.4,107.5,267.5,104.5,263.8,104.5z"
				/>
		</g>
		<g>
			<path class="st0" d="M396.5,65.3h-21.3c0.6-2.2,0.5-4.7-0.8-7.3c-1.4-2.9-4.1-5-7.2-5.7c-2-0.4-3.8-0.2-5.5,0.3
				c0-0.1,0-0.2,0-0.3c0-10.3-8.4-18.7-18.7-18.7c-9.1,0-16.8,6.6-18.4,15.2c-0.8-0.1-1.5-0.2-2.3-0.2c-6.6,0-11.9,5.1-12.3,11.6
				h-28.9c-3.6,0-6.7,2.7-6.8,6.3c-0.1,3.7,2.8,6.7,6.5,6.7h115.6c2.2,0,3.9-1.8,3.9-3.9C400.4,67.1,398.7,65.3,396.5,65.3z"/>
		</g>
		<path class="st3" d="M74.1,320.6c18.1,21.4,71.4,62.4,207.9,44c68.7-9.3,132.8-13,173.6-19.3c-29.5-23.2-109.9-51.5-195.6-51.5
			C189.4,293.8,117.7,306,74.1,320.6z"/>
		<g>
			<path class="st4" d="M350.3,134.8c0.5-2.6-1.7-5.6-2.9-8c-0.9-1.9-1.8-3.8-2.7-5.7c-0.1-0.3-0.4-1.1-0.5-0.9
				c0.2-0.6,0.9-1.4,1.2-1.9c1.5-2.8,3.6-5.3,3.6-8.5v-7c0-1.3,0.4-3.4,0-4.7c-0.4-1.5-2-2.9-2.9-4.2c-0.8-1.1-1.6-2.2-2.5-3.3
				c-0.5-0.6-1-1.9-1.2-1.3c0.3-1.5,2.5-4,3.2-5.2c1.1-1.8,2.2-3.6,3.3-5.5c0.5-0.8-0.6-1.2-1.1-1.2h-81.2c0.1-0.1,0.1-0.3,0.1-0.4
				V28.8c0.7-0.8-0.1-2.4-1.4-2.1c-11.3,2-21.6,7.5-32.8,10.1c-0.5,0.1-0.8,0.5-0.9,0.9c-0.1,0.1-0.2,0.3-0.2,0.4v39.5H157
				c-0.5,0-1.4,0.5-1.4,1.1c0,5.5-0.1,10.9-0.1,16.4c0,1.7-0.1,2,1,3.2c1.5,1.6,3.7,3,5.6,4.3c0,0,0,0,0,0.1c-2,1-3.9,2.1-5.9,3.1
				c-0.3,0.2-0.7,0.5-0.7,0.9c0,5.9-0.1,11.8-0.1,17.7l-0.1,12.1c0,1.9-0.5,4.5,0,6.4c0.5,2.2,2.8,4.5,4,6.3
				c0.1,0.2,0.4,0.5,0.6,0.7c-0.4,0.4-0.5,0.8-0.1,1.1c0,0-0.1,0.1-0.1,0.1c-1.2,1.2-2.3,2.9-3.3,4.3c-1.4,2-1.1,3.4-1.1,5.9
				c0,3.4,0,6.8-0.1,10.2c0,0.7,0.6,0.9,1.2,0.9c21.6,0.7,43.2,1.4,64.8,2.1l12.4,0.4v161.4c-0.9,0.6-0.6,2.4,0.7,2.4l30.8,1.5
				c0.9,0,1.3-0.7,1.3-1.4c0.1-0.1,0.1-0.3,0.1-0.5V175.5c19.2,0.6,38.3,1.2,57.5,1.8c7.8,0.2,15.5,0.5,23.3,0.7c0.2,0,0.5,0,0.7,0
				c0.3,0,0.6-0.2,0.8-0.4c0.3-0.2,0.4-0.5,0.3-0.9c-1.7-7.7-3.3-15.5-5-23.2c-0.1-0.6-0.3-2.2-0.4-1.9c0.3-1.6,1.3-3.4,1.9-4.8
				C347.1,143,349.5,138.8,350.3,134.8z"/>
			<g>
				<g>
					<path class="st3" d="M350.3,134.8c0.5-2.6-1.7-5.6-2.9-8c-0.9-1.9-1.8-3.8-2.7-5.7c-0.1-0.3-0.4-1.1-0.5-0.9
						c0.2-0.6,0.9-1.4,1.2-1.9c1.5-2.8,3.6-5.3,3.6-8.5v-7c0-1.3,0.4-3.4,0-4.7c-0.4-1.5-2-2.9-2.9-4.2c-0.8-1.1-1.6-2.2-2.5-3.3
						c-0.5-0.6-1-1.9-1.2-1.3c0.3-1.5,2.5-4,3.2-5.2c1.1-1.8,2.2-3.6,3.3-5.5c0.5-0.8-0.6-1.2-1.1-1.2h-81.2
						c0.1-0.1,0.1-0.3,0.1-0.4V28.8c0.7-0.8-0.1-2.4-1.4-2.1c-11.3,2-21.6,7.5-32.8,10.1c-0.5,0.1-0.8,0.5-0.9,0.9
						c-0.1,0.1-0.2,0.3-0.2,0.4v39.5H157c-0.5,0-1.4,0.5-1.4,1.1c0,5.5-0.1,10.9-0.1,16.4c0,1.7-0.1,2,1,3.2c1.5,1.6,3.7,3,5.6,4.3
						c0,0,0,0,0,0.1c-2,1-3.9,2.1-5.9,3.1c-0.3,0.2-0.7,0.5-0.7,0.9c0,5.9-0.1,11.8-0.1,17.7l-0.1,12.1c0,1.9-0.5,4.5,0,6.4
						c0.5,2.2,2.8,4.5,4,6.3c0.1,0.2,0.4,0.5,0.6,0.7c-0.4,0.4-0.5,0.8-0.1,1.1c0,0-0.1,0.1-0.1,0.1c-1.2,1.2-2.3,2.9-3.3,4.3
						c-1.4,2-1.1,3.4-1.1,5.9c0,3.4,0,6.8-0.1,10.2c0,0.7,0.6,0.9,1.2,0.9c21.6,0.7,43.2,1.4,64.8,2.1l12.4,0.4v161.4
						c-0.9,0.6-0.6,2.4,0.7,2.4l30.8,1.5c0.9,0,1.3-0.7,1.3-1.4c0.1-0.1,0.1-0.3,0.1-0.5V175.5c19.2,0.6,38.3,1.2,57.5,1.8
						c7.8,0.2,15.5,0.5,23.3,0.7c0.2,0,0.5,0,0.7,0c0.3,0,0.6-0.2,0.8-0.4c0.3-0.2,0.4-0.5,0.3-0.9c-1.7-7.7-3.3-15.5-5-23.2
						c-0.1-0.6-0.3-2.2-0.4-1.9c0.3-1.6,1.3-3.4,1.9-4.8C347.1,143,349.5,138.8,350.3,134.8z M234,39.1c10.3-2.5,19.8-7.4,30.2-9.6
						v47.7c0,0.1,0,0.1,0,0.2H234V39.1z M263.8,337.1c-5.8-0.3-11.7-0.6-17.5-0.9c0.5-0.1,0.9-0.5,0.9-1.2v-36.3
						c0-1.7-2.6-1.7-2.6,0V335c0,0.6,0.4,1,0.8,1.2c-3.1-0.2-6.2-0.3-9.2-0.5V174.6c9.2,0.3,18.4,0.6,27.7,0.9V337.1z M341.5,154
						c-9.6,0.7-19.1,1-28.7,0.8c-0.8,0-2.7,1.2-1,1.3c10,0.2,20-0.1,30-0.9c0.9,4,1.7,8,2.6,12c-41.7,0.8-83.3,1-125,0.8
						c-1.5,0-1.9,1.9-0.2,1.9c41.9,0.3,83.7,0,125.6-0.8c0.5,2.3,1,4.6,1.5,7l-63.1-2c-34.3-1.1-68.6-2.2-102.8-3.3
						c-7.5-0.2-15.1-0.5-22.6-0.7c0-3.9,0.2-7.8,0.1-11.7c-0.1-2-0.2-1.3,1.1-3c1.2-1.5,2.3-2.9,3.5-4.4c10.3,0.5,20.7,0.8,31.1,1
						c1.4,0,1.9-1.8,0.2-1.8c-10.4-0.2-20.7-0.5-31.1-1c-1.3-1.9-2.5-3.8-3.8-5.6c-1.1-1.5-0.9-0.7-0.8-2.6
						c0.1-4.6,0.1-9.2,0.1-13.8c9.9-0.5,19.8-1,29.8-1.4c1.5-0.1,1.9-2,0.2-1.9c-10,0.5-20,1-30,1.4c0-0.1,0-0.3,0-0.4
						c0-5.5,0.1-11,0.1-16.5c0-0.5,0-1,0-1.5c0,0,0,0,0.1,0c1.8-0.3,3.9-1.8,5.6-2.9c0.6,0.2,1.2,0.2,2,0.2c0.6,0,1.1-0.4,1.3-0.8
						c13.7,0.2,27.5,0.4,41.2,0.5c1,0,2.7-1.4,1-1.5c-14.7-0.2-29.3-0.4-44-0.6c0,0,0,0-0.1-0.1c-2-1.6-4-3.4-6.2-4.8
						c-0.2-0.1-0.6-0.4-0.8-0.6c-0.2-0.8,0-2,0-2.8c0-4.7,0.1-9.4,0.1-14.1h187.6c-2,3.3-3.9,6.5-5.9,9.8c-0.1,0.2-0.1,0.6,0.1,0.8
						c2,2.6,4.8,5.4,6.2,8.3c0.1,0.3,0.2,0.3,0.2,0.3c0.1,0.5,0,1.2,0,1.8v6.7c0,3.9-0.1,4.7-1.9,8.1c-0.9,1.7-2.3,3.3-2.5,5
						c-10.8-0.2-21.5,0.1-32.2,0.9c-1.3,0.1-2.1,1.6-0.3,1.5c10.9-0.8,21.8-1,32.7-0.8c1,3.6,3.5,7.6,5.2,11
						c0.2,0.4,0.5,0.9,0.6,1.3c0,0,0,0,0,0c0,0,0,0,0,0.1c-0.1,1.3-1.2,3.1-1.7,4.4c-1.5,3.9-3.1,7.8-4.6,11.7
						C341.1,151.8,341.2,152.4,341.5,154z"/>
					<path class="st3" d="M338.9,87.3c-21.5-0.5-43-0.4-64.5,0.3c-1.3,0-2,1.6-0.3,1.5c21.3-0.7,42.6-0.8,63.9-0.3
						C339,88.8,340.6,87.3,338.9,87.3z"/>
					<path class="st3" d="M188.3,85c-8.2-0.2-16.3-0.4-24.5-0.5c-1.5,0-1.9,1.8-0.2,1.9c8.2,0.2,16.3,0.4,24.5,0.5
						C189.6,86.9,190,85,188.3,85z"/>
					<path class="st3" d="M198.3,160.7c-10.2-0.2-20.4-0.4-30.6-0.5c-1,0-2.7,1.5-0.9,1.6c10.2,0.2,20.4,0.4,30.6,0.5
						C198.4,162.3,200,160.7,198.3,160.7z"/>
					<path class="st3" d="M334.4,161h1.7c0.5,0,1.3-0.4,1.4-1c0.1-0.7-0.7-0.8-1.2-0.8h-1.7c-0.5,0-1.3,0.4-1.4,1
						C333.1,160.9,333.9,161,334.4,161z"/>
					<path class="st3" d="M171.5,142.6c-2.8-0.2-5.5-0.3-8.3-0.5c-0.5,0-1.4,0-1.8,0.5c-0.3,0.3-0.4,0.7,0.2,0.7l8.3,0.5
						c0.5,0,1.4,0,1.8-0.5C172,143,172.2,142.6,171.5,142.6z"/>
					<path class="st3" d="M334.1,114.1c-4.2-0.2-8.4-0.3-12.7-0.5c-0.9,0-2.7,1.2-1,1.3c4.2,0.2,8.4,0.3,12.7,0.5
						C334,115.5,335.8,114.2,334.1,114.1z"/>
					<path class="st3" d="M330.1,98.9h-14.8c-0.5,0-2.9,1-1.6,1h14.8C329,99.9,331.3,98.9,330.1,98.9z"/>
					<path class="st3" d="M257.6,251.7c-0.2-0.7-0.1-1.3,0.3-2c0.9-1.4-1.3-2.7-2.3-1.3c-0.8,1.2-1,2.6-0.6,4
						C255.6,254,258.1,253.4,257.6,251.7z"/>
					<path class="st3" d="M256.2,287.6v3.3c-0.1,0.1-0.1,0.2-0.1,0.3v30.4c0,1.1,2,0.8,2-0.1v-29.3c0.4-0.2,0.7-0.6,0.7-1.1v-3.5
						C258.8,285.9,256.2,285.9,256.2,287.6z"/>
					<path class="st5" d="M256.9,329.1c-1.7,0-1.7,2.6,0,2.6C258.6,331.7,258.6,329.1,256.9,329.1z"/>
					<path class="st3" d="M257.5,215.2c-0.2-9.9-0.4-19.8-0.5-29.7c0-1-2-0.6-2,0.2c0.2,9.9,0.4,19.8,0.5,29.7
						C255.5,216.4,257.5,216,257.5,215.2z"/>
					<path class="st3" d="M246.4,259.9v-67c0-0.6-2-0.2-2,0.5v67C244.4,261.1,246.4,260.7,246.4,259.9z"/>
					<path class="st3" d="M251.9,262.2v-29c0-1-2-0.8-2,0.2v29C249.9,263.4,251.9,263.1,251.9,262.2z"/>
					<path class="st3" d="M243.7,45.6c-0.7,0-2.1,1.1-0.8,1.1C243.6,46.7,245,45.6,243.7,45.6z"/>
					<path class="st3" d="M247.8,42.3v25.5c0,0.4,2,0.1,2-0.5V41.8C249.8,41.4,247.8,41.7,247.8,42.3z"/>
					<path class="st3" d="M243,52.5v19.3c0,0.9,2,0.6,2-0.2V52.3C245,51.4,243,51.7,243,52.5z"/>
					<path class="st3" d="M260.2,37.3v18.6c0,1,2,0.7,2-0.2V37.1C262.3,36.1,260.2,36.4,260.2,37.3z"/>
					<path class="st3" d="M245.7,286.3v-14.5c0-1-2-0.7-2,0.2v14.5C243.7,287.5,245.7,287.2,245.7,286.3z"/>
					<path class="st3" d="M242.2,189v-11.7c0-0.9-2-0.6-2,0.2v11.7C240.2,190.1,242.2,189.8,242.2,189z"/>
				</g>
			</g>
		</g>
		<path class="st3" d="M130.4,317.1v8.6c0,0.7,1.5,0.4,1.5-0.2V317C131.9,316.3,130.4,316.6,130.4,317.1z"/>
		<g>
			<g>
				<path class="st4" d="M122.5,324.5h21.7v-71.9c25.4-1.7,45.5-22.9,45.5-48.8c0-6.1-5-11.1-11.1-11.1c-6.1,0-11.1,5-11.1,11.1
					c0,13.6-10.2,24.8-23.3,26.4v-30.5c0-6-4.8-10.8-10.8-10.8c-6,0-10.8,4.8-10.8,10.8v55.6c-11.2-3.2-19.4-13.5-19.4-25.7
					c0-6.1-5-11.1-11.1-11.1c-6.1,0-11.1,5-11.1,11.1c0,24.5,18.1,44.8,41.7,48.3V324.5z"/>
			</g>
			<path class="st3" d="M121.4,278.2c0.9,0.8,0,6.4,0,7.6v29.4c0,2.9-0.3,6.2-0.1,9.3h2.3c-0.3-3.7,0-7.6,0-11.3v-35.1
				c0-0.5-0.3-1-0.8-1.1c-21.7-3.7-41.6-22.9-40.8-46.2c0.2-5.8,3.5-11,9.9-11c6.9,0,9.2,5.3,10,11c0.5,3.7,0.9,7.1,2.5,10.6
				c3.5,7.5,9.9,12.6,17.7,15.1c0.7,0.2,1.4-0.4,1.4-1.1v-51.4c0-4.7-0.1-9.8,4.8-12.6c7-4.1,13.9,1.6,14.6,8.7c0.1,1.3,0,2.8,0,4.1
				v26c0,0.8,0.7,1.2,1.4,1.1c8.4-1.4,15.8-5.9,20.2-13.3c1.8-3.1,3.1-6.5,3.6-10.1c0.8-4.9,0.2-9.8,5.3-12.8c7-4.1,14.3,1.3,15,8.6
				c-0.5,25.1-19.3,45.4-44.4,47.6c-0.6,0.1-1.1,0.5-1.1,1.1v69.1c0,0.9,0.1,1.8,0,2.8h2.4c0.3-3.9-0.2-8.1-0.2-11.8V264
				c0-2.8-0.9-7.3,0-9.9c0.2-0.5,0.2-0.7,0.2-0.8c0.1,0,0.1,0,0.3-0.1c1.4-0.8,6.7-0.6,8.9-1.2c6.7-1.9,12.9-5.3,18.2-9.7
				c11.5-9.5,17.6-23.5,17.9-38.3c-0.9-9.7-11.6-16.3-20-9.5c-3.9,3.2-4.1,7-4.6,11.6c-0.5,4.6-2,8.9-4.6,12.7
				c-3.8,5.3-8.4,6.8-13.7,9.7c-2.6,1.4-2,2.2-2.6,0.5c-0.4-1.3,0-3.5,0-4.8v-15.5c0-6.9,1.1-15-5.9-19.1c-8.3-4.8-17.4,1.5-18,10.4
				c-0.4,6.3,0,12.7,0,19v29c0,1.5,0.8,5.8,0,7.1c0.6-1-3.9-2.8-5.6-3.9c-4.8-3.1-8.5-7.9-10.3-13.4c-1.8-5.4-0.3-11.3-4.2-15.9
				c-3.1-3.6-8-5-12.5-3.8c-11.8,3.2-9.5,17.6-6.8,26.6c3.7,11.9,11.9,22.2,22.7,28.4c2.4,1.4,5,2.6,7.6,3.6c1.8,0.7,4,1.6,5.9,1.8
				C116.2,278.3,122.3,279.1,121.4,278.2z"/>
			<path class="st3" d="M136.2,210.1v35.4c0,0.6,1.2,0.4,1.2-0.1V210C137.4,209.4,136.2,209.6,136.2,210.1z"/>
			<path class="st3" d="M138.3,260.6v9.4c0,0.3,1.2,0.1,1.2-0.3v-9.4C139.5,260,138.3,260.2,138.3,260.6z"/>
			<path class="st3" d="M136.2,286.2V311c0,0.3,1.2,0.1,1.2-0.3v-24.8C137.4,285.6,136.2,285.8,136.2,286.2z"/>
			<path class="st3" d="M130.6,227.2v36.7c0,0.7,1.3,0.5,1.3-0.1v-36.7C131.9,226.4,130.6,226.6,130.6,227.2z"/>
			<path class="st3" d="M130.6,273.4v6.4c0,0.4,1.2,0.1,1.2-0.3v-6.4C131.9,272.7,130.6,272.9,130.6,273.4z"/>
			<path class="st3" d="M128.5,197.7v8.1c0,0.6,1.2,0.4,1.2-0.1v-8.1C129.7,197,128.5,197.2,128.5,197.7z"/>
			<path class="st3" d="M115,261.3c-10.1-8.2-18.8-19.1-18.1-32.7c0-0.2-1.2-0.1-1.2,0.3c-0.7,13.7,8.1,24.7,18.2,32.9
				C114.1,262,115.3,261.5,115,261.3z"/>
			<path class="st3" d="M104.5,260.2c-2.7-2.2-4.8-4.9-6.4-8c-0.2-0.5-1.4-0.1-1.2,0.3c1.5,3.2,3.7,5.9,6.5,8.2
				C103.7,261,104.9,260.5,104.5,260.2z"/>
			<path class="st3" d="M95.9,258c-7-7.7-10.6-17.6-10.1-28c0-0.7-1.2-0.5-1.3,0.1c-0.5,10.5,3.2,20.7,10.3,28.4
				C95.2,259,96.3,258.5,95.9,258z"/>
			<path class="st3" d="M173.6,205.4c-1.6,7.4-4.8,14.2-9.5,20.2c-0.1,0.1,1,0.1,1.2-0.2c4.7-6,7.9-12.8,9.5-20.2
				C174.8,204.9,173.6,205.1,173.6,205.4z"/>
			<path class="st3" d="M153.3,232.5c-1.4,1.8-3.4,2.6-5.7,2.3c-0.6-0.1-1.3,0.8-0.4,0.9c2.7,0.4,5.4-0.7,7.1-2.8
				C154.9,232.2,153.7,232,153.3,232.5z"/>
			<path class="st3" d="M180.9,197.9c0-0.3-1.3,0-1.2,0.3c0.5,4.5-0.3,8.8-2.5,12.7c-0.1,0.2,1,0.1,1.2-0.2
				C180.6,206.8,181.4,202.5,180.9,197.9z"/>
			<path class="st3" d="M183.4,212.6c-5.2,16-19.2,28.2-35.8,31.1c-0.6,0.1-1,0.9-0.1,0.8c17.2-2.9,31.8-15.4,37.2-32
				C184.8,212,183.5,212.1,183.4,212.6z"/>
			<path class="st3" d="M127.8,303.5v16.1c0,0.3,1.5,0.1,1.5-0.4v-16.1C129.3,302.8,127.8,303,127.8,303.5z"/>
		</g>
		<g>
			<path class="st4" d="M187.9,340.7c0,1.7-1.6,3-2.8,3.9c-0.4,0.3-0.5,1.2,0,1.6c2.6,2.1,6.4,5.1,5.4,9c-1.3,5.3-8.3,1.6-11.1-0.1
				c-0.5-0.3-1-0.2-1.3,0.2l-47.8,11.6c-0.5,0.1-0.8,0.5-0.8,1c-0.1,0.1-0.1,0.3-0.1,0.4c-0.2,4.6-4.3,8-8.9,6.8
				c-2.8-0.7-5.1-3.2-4-6.3c0.9-2.5,3.3-3.9,5.4-5.1c0.9-0.6,0.6-2-0.5-2.1c-2.1-0.1-4.2-0.6-6-1.8c-2.8-1.9-3.5-5.4-0.4-7.4
				c3.9-2.6,8.3,0.4,11.3,3.4c-0.7,0.7-0.2,2.2,1,1.9l49.2-12c0.5,0.2,1.1,0.1,1.3-0.5c0.3-0.3,0.3-0.7,0.3-1
				c0.7-2.3,2.2-4.3,4.5-5.4C184.3,338,187.9,337.4,187.9,340.7z"/>
			<path class="st6" d="M175.9,343.5L128.7,355c-4.1-4.3-12-9.2-16.7-2.8c-4,5.4,1.3,9.7,6.4,11.1c-2.2,1.6-4.1,3.5-4.4,6.3
				c-0.4,3.2,1.8,5.9,4.7,7.2c6,2.6,12.3-1.7,12.9-7.9l47.1-11.5c0.1,0,0.1,0,0.2-0.1c3.9,2.3,10.4,5,13.2,0.1c2.6-4.6-1-9-4.4-12
				c1.6-1.4,2.7-3.2,2.5-5.5c-0.2-2.2-1.9-3.6-4-4C181.4,335.2,177.2,339.2,175.9,343.5z M187.9,340.7c0,1.7-1.6,3-2.8,3.9
				c-0.4,0.3-0.5,1.2,0,1.6c2.6,2.1,6.4,5.1,5.4,9c-1.3,5.3-8.3,1.6-11.1-0.1c-0.5-0.3-1-0.2-1.3,0.2l-47.8,11.6
				c-0.5,0.1-0.8,0.5-0.8,1c-0.1,0.1-0.1,0.3-0.1,0.4c-0.2,4.6-4.3,8-8.9,6.8c-2.8-0.7-5.1-3.2-4-6.3c0.9-2.5,3.3-3.9,5.4-5.1
				c0.9-0.6,0.6-2-0.5-2.1c-2.1-0.1-4.2-0.6-6-1.8c-2.8-1.9-3.5-5.4-0.4-7.4c3.9-2.6,8.3,0.4,11.3,3.4c-0.7,0.7-0.2,2.2,1,1.9
				l49.2-12c0.5,0.2,1.1,0.1,1.3-0.5c0.3-0.3,0.3-0.7,0.3-1c0.7-2.3,2.2-4.3,4.5-5.4C184.3,338,187.9,337.4,187.9,340.7z"/>
			<path class="st3" d="M127.6,361.8l32.2-7.9c0.7-0.2,0-1.7-0.6-1.5l-32.2,7.9C126.4,360.5,127.1,362,127.6,361.8z"/>
			<path class="st3" d="M165.5,353l5.4-1.3c0.3-0.1-0.3-1.6-0.8-1.5l-5.4,1.3C164.5,351.6,165.1,353.1,165.5,353z"/>
		</g>
		<g>
			<path class="st3" d="M182.7,258.5c0-2.3,1.9-4.2,4.2-4.2s4.2,1.9,4.2,4.2c0,5.2,3.9,9.5,8.9,10.1v-11.6c0-2.3,1.9-4.1,4.1-4.1
				l0,0c2.3,0,4.1,1.9,4.1,4.1v21.3c4.3-1.2,7.4-5.1,7.4-9.8c0-2.3,1.9-4.2,4.2-4.2c2.3,0,4.2,1.9,4.2,4.2c0,9.4-6.9,17.1-15.9,18.5
				v18c0,2.3-1.9,4.1-4.1,4.1l0,0c-2.3,0-4.1-1.9-4.1-4.1v-27.7C190.3,276.5,182.7,268.4,182.7,258.5z"/>
		</g>
		<g>
			<path class="st3" d="M397.3,293.4c0-2.1,1.7-3.8,3.8-3.8s3.8,1.7,3.8,3.8c0,4.7,3.5,8.5,8,9.1V292c0-2.1,1.7-3.7,3.7-3.7l0,0
				c2.1,0,3.7,1.7,3.7,3.7v19.1c3.8-1.1,6.7-4.6,6.7-8.8c0-2.1,1.7-3.8,3.8-3.8c2.1,0,3.8,1.7,3.8,3.8c0,8.4-6.2,15.4-14.3,16.6V335
				c0,2.1-1.7,3.7-3.7,3.7l0,0c-2.1,0-3.7-1.7-3.7-3.7v-24.9C404.2,309.5,397.3,302.3,397.3,293.4z"/>
		</g>
		<g>
			<g>
				<g>
					<path class="st4" d="M412.4,239.5c-5,0-9.1,4.1-9.1,9.1v0.5c0,7.8-6.4,14.2-14.2,14.2h-5.3v-48.8c0-5.8-4.7-10.4-10.4-10.4
						c-5.8,0-10.4,4.7-10.4,10.4v27c-5.5-0.3-9.8-4.8-9.8-10.3v-1.4c0-5-4.1-9.1-9.1-9.1c-5,0-9.1,4.1-9.1,9.1v1.4
						c0,15.6,12.5,28.2,28,28.5v24h-5.8c-7.8,0-14.2-6.4-14.2-14.2c0-5-4.1-9.1-9.1-9.1s-9.1,4.1-9.1,9.1
						c0,17.8,14.5,32.4,32.4,32.4h5.8v20h20.8v-40.4h5.3c17.8,0,32.4-14.5,32.4-32.4v-0.5C421.5,243.6,417.4,239.5,412.4,239.5z"/>
				</g>
				<path class="st3" d="M412.8,238.5c-0.1-0.1-0.3-0.1-0.5-0.1c-0.2,0-0.3,0-0.5,0.1c-3.9,0.5-7.3,2.4-8.9,6.3
					c-1,2.5-0.5,5.2-1.2,7.8c-1.7,6-7,9.3-13,9.6c-1.3,0.1-3.5-0.5-4,0c0-0.5,0.1-1.1,0.1-1.4c0.3-3.9,0-7.9,0-11.7v-29.1
					c0-6.6,0-13.7-7.6-16.4c-8.2-3-15.1,3.6-15.4,11.6c-0.1,4,0,8,0,12c0,3,1.4,10.6,0,13.4c0,0,0,0.1,0,0.1c0,0-0.1,0-0.2,0
					c-1.1,0.3-5.9-4.5-6.3-5.1c-1.8-3.2-0.6-6.6-1.9-9.8c-1.5-3.8-5.3-6.3-9.4-6.3c-12.2,0-11.1,15-7.9,22.8c2,4.7,5.1,8.9,9.2,12
					c2,1.6,4.1,2.8,6.5,3.8c1.7,0.7,3.5,1.3,5.3,1.7c0,0,5.1,0.7,4.4,0.2c0.3,0.3,0.4,0.9,0.4,2.7v6c0,4.1,1,9.8,0,13.8
					c-0.6,0-1.4-0.1-1.9-0.1c-3.4-0.4-6.3,0.1-9.5-1.8c-8.2-4.8-3.8-14.6-10.8-19.6c-9.3-6.6-16.8,3.5-15.7,12.2
					c1.4,11.7,9.1,22,19.9,26.7c5,2.2,10.2,2.7,15.6,2.8c0.8,0,1.6,0,2.4,0c0.1,0,0.2,0,0.2,0c0.2,1.4-0.1,3.4-0.1,4.7
					c0,3.9-0.7,9.3-0.4,14.3h2.5c-0.3-6.6,0-13.4,0-20c0-0.6-0.5-1.1-1.1-1.1c-7.6,0-14.8-0.3-21.6-4.3c-9.1-5.4-18.8-19-14.3-29.9
					c0.6-3.4,2.9-5.1,6.9-5.2c4.9,0.5,7.6,3.1,8,8c0.4,1.6,0.3,3.2,0.8,4.9c1,2.8,2.7,5.3,5.1,7.1c4.5,3.5,9.7,3.2,15.1,3.2
					c0.6,0,1.1-0.5,1.1-1.1v-24c0-0.6-0.5-1-1.1-1.1c-13.5-0.7-29.9-13.5-26.9-28.9c0.8-4.3,3.5-7.4,8-8c5.6-0.8,7.2,4.9,8,8.7
					c0.3,1.6,0.1,3.1,0.7,4.6c1.6,4.4,5.4,6.8,9.9,7.4c0.7,0.1,1.3-0.3,1.3-1v-23c0-6.1,1.5-13.3,9.4-13.3c7.3,0,9.4,6.6,9.4,12.5
					v45.7c0,0.6,0.5,1.1,1.1,1.1c5.3,0,10.3,0.2,14.7-3.3c2.5-2,4.4-4.8,5.3-7.9c1.5-5.5,0.2-11.7,8.6-12.6
					c17,1.7,3.8,26.3-2.5,31.9c-7.6,6.7-16.4,7.9-26.1,7.9c-0.6,0-1.1,0.5-1.1,1.1v39.5c0,0.3,0,0.6,0,0.9h2.5
					c0.5-6.7-0.3-14-0.3-20.5v-14.7c0-1.1-0.3-2.8-0.1-4c0.5,0.3,2-0.1,3-0.1c13-0.1,25-6.3,31.1-18.2
					C423.3,255.6,425.8,240.2,412.8,238.5z"/>
			</g>
			<path class="st3" d="M377.4,248.6v32c0,0.4,1.4,0.1,1.4-0.4v-32C378.7,247.9,377.4,248.1,377.4,248.6z"/>
			<path class="st3" d="M370.8,260.7v9.2c0,0.6,1.4,0.3,1.4-0.2v-9.2C372.2,260,370.8,260.2,370.8,260.7z"/>
			<path class="st3" d="M371.5,286.7v20.9c0,0.2,1.4,0,1.4-0.4v-20.9C372.9,286.1,371.5,286.3,371.5,286.7z"/>
			<path class="st3" d="M375.3,211.2V226c0,0.3,1.4,0.1,1.4-0.4v-14.8C376.6,210.6,375.3,210.8,375.3,211.2z"/>
			<path class="st3" d="M368.9,218.9v4.2c0,0.6,1.4,0.4,1.4-0.1v-4.2C370.3,218.1,368.9,218.4,368.9,218.9z"/>
			<path class="st3" d="M410.2,252.2c-1.8,4.2-3.7,8.7-7,12c-4.6,4.6-10.3,4.7-16.4,4.4c-0.6,0-1.4,0.9-0.5,0.9
				c5.3,0.3,10.7,0.4,15.3-2.7c5-3.4,7.6-9.2,9.9-14.6C411.8,251.7,410.4,251.7,410.2,252.2z"/>
			<path class="st3" d="M413.7,259.4c-1.1,2.9-2.9,5.4-5.2,7.4c-0.3,0.3,1,0.2,1.2-0.1c2.3-2.1,4.1-4.6,5.3-7.6
				C415.2,258.9,413.8,259.1,413.7,259.4z"/>
			<path class="st3" d="M378.8,321.8V302c0-0.7-1.4-0.6-1.4,0.1v19.8H378.8z"/>
			<path class="st3" d="M378.1,292.5v2.8c0,0.7,1.4,0.5,1.4-0.1v-2.8C379.5,291.7,378.1,291.9,378.1,292.5z"/>
			<path class="st3" d="M355.2,288.7c-9.8-1.3-17.1-8.8-18.3-18.6c-0.1-0.5-1.4-0.2-1.4,0.4c1.3,10,8.9,17.6,18.9,19
				C354.8,289.5,356,288.8,355.2,288.7z"/>
			<path class="st3" d="M353.8,294.1c-1.2,0-2.4-0.2-3.5-0.7c-0.6-0.3-1.6,0.6-0.8,1c1.3,0.6,2.8,0.8,4.2,0.8
				C354.5,295.1,354.7,294.1,353.8,294.1z"/>
			<path class="st3" d="M352.6,250.7c-3-0.1-6.8-5.2-8.4-7.4c-2.6-3.5-4.1-7.4-3.5-11.8c0.1-0.5-1.3-0.2-1.4,0.2
				c-0.7,4.7,1,8.9,3.9,12.6c2,2.6,5.2,7.1,8.8,7.2C352.6,251.4,353.6,250.7,352.6,250.7z"/>
			<path class="st3" d="M353.6,242.4c-2.2-0.4-3.9-2.2-4.2-4.4c0-0.2-1.4,0-1.4,0.4c0.3,2.3,2.2,4.2,4.5,4.6c0.3,0.1,0.7,0,1-0.2
				C353.5,242.7,353.9,242.5,353.6,242.4z"/>
			<path class="st3" d="M366.8,237v12.7c0,0.3,1.4,0.1,1.4-0.4v-12.7C368.2,236.3,366.8,236.5,366.8,237z"/>
			<path class="st3" d="M377.7,233.7v4.9c0,0.6,1.4,0.3,1.4-0.2v-4.9C379.1,232.9,377.7,233.2,377.7,233.7z"/>
		</g>
		<g>
			<path class="st2" d="M78.6,298.2c-1.7,0-3.1,1.4-3.1,3.1v0.2c0,2.7-2.2,4.9-4.9,4.9h-1.8v-16.7c0-2-1.6-3.6-3.6-3.6l0,0
				c-2,0-3.6,1.6-3.6,3.6v9.2c-1.9-0.1-3.4-1.6-3.4-3.5v-0.5c0-1.7-1.4-3.1-3.1-3.1c-1.7,0-3.1,1.4-3.1,3.1v0.5
				c0,5.3,4.3,9.7,9.6,9.8v8.2h-2c-2.7,0-4.9-2.2-4.9-4.9c0-1.7-1.4-3.1-3.1-3.1c-1.7,0-3.1,1.4-3.1,3.1c0,6.1,5,11.1,11.1,11.1h2
				v7.6c0,2,1.6,3.6,3.6,3.6l0,0c2,0,3.6-1.6,3.6-3.6v-14.6h1.8c6.1,0,11.1-5,11.1-11.1v-0.2C81.7,299.6,80.3,298.2,78.6,298.2z"/>
		</g>
		<g>
			<path class="st4" d="M410.4,357.8c-1.4-0.2-2.9-0.2-4.4,0.3c-0.2,0-0.4,0.1-0.6,0.2c0.8-2.2,1.3-4.6,1.9-6.9
				c0.1-0.4-0.3-0.8-0.7-0.6c-1.7,0.9-3.3,2-4.8,3.2c-0.3-3.6-2.6-7-4.2-10.1c-0.2-0.3-0.6-0.4-0.9-0.1c-1.5,2.4-2.6,5-3.3,7.7
				c-0.3-0.5-0.7-1-1.1-1.4c-0.8-0.9-2.6-2.7-4-2.4c-1.5,0.3-0.8,2.8-0.7,3.8c0.1,1.9,0.4,3.8,0.9,5.7c-2,0.2-3.8,0.7-5.6,1.5
				c-1.9,0.9-2.5,1.5-0.8,3c3.7,3.3,7.9,6.6,13.1,6.6c0,0,0,0,0,0c0.1,0.1,0.1,0.1,0.2,0.1c0.1,0.1,0.3,0.1,0.5,0.1
				c0.3,0,0.5-0.1,0.8-0.3c5.8-1.1,10.9-4.5,15.7-7.9C414.3,358.8,411.9,358,410.4,357.8z"/>
			<path class="st6" d="M410.4,357.8c-1.4-0.2-2.9-0.2-4.4,0.3c-0.2,0-0.4,0.1-0.6,0.2c0.8-2.2,1.3-4.6,1.9-6.9
				c0.1-0.4-0.3-0.8-0.7-0.6c-1.7,0.9-3.3,2-4.8,3.2c-0.3-3.6-2.6-7-4.2-10.1c-0.2-0.3-0.6-0.4-0.9-0.1c-1.5,2.4-2.6,5-3.3,7.7
				c-0.3-0.5-0.7-1-1.1-1.4c-0.8-0.9-2.6-2.7-4-2.4c-1.5,0.3-0.8,2.8-0.7,3.8c0.1,1.9,0.4,3.8,0.9,5.7c-2,0.2-3.8,0.7-5.6,1.5
				c-1.9,0.9-2.5,1.5-0.8,3c3.7,3.3,7.9,6.6,13.1,6.6c0,0,0,0,0,0c0.1,0.1,0.1,0.1,0.2,0.1c0.1,0.1,0.3,0.1,0.5,0.1
				c0.3,0,0.5-0.1,0.8-0.3c5.8-1.1,10.9-4.5,15.7-7.9C414.3,358.8,411.9,358,410.4,357.8z M385,362.9c-0.8-0.6-1.8-1.3-2.4-2.1
				c-0.4-0.4-0.5-0.3-0.2-0.8c0.2-0.3,0.9-0.5,1.2-0.6c1.6-0.7,3.4-1.2,5.2-1.3c0,0.1,0,0.1,0.1,0.2c0.7,2.4,1.8,4.7,3.3,6.7
				c-2.2-1.1-4.2-2.6-5.8-4.6c-0.1-0.1-0.5,0-0.4,0.1c1.8,2.2,4,3.8,6.5,4.9c0.5,0.6,1,1.2,1.5,1.7
				C390.6,366.9,387.6,365.1,385,362.9z M395.6,366.7c-1.6-4.3-3-8.6-4.4-13c-0.1-0.2-0.5-0.1-0.4,0.1c1.4,4.4,2.9,8.8,4.5,13.2
				c0,0.1,0.1,0.1,0.2,0.1c0,0-0.1,0.1-0.1,0.1c-0.4-0.4-0.9-0.8-1.3-1.2c0,0,0-0.1-0.1-0.1c0,0,0,0,0,0c-1.6-1.8-2.9-3.9-3.7-6.2
				c-0.3-0.7-0.5-1.4-0.6-2.1c0-0.1,0-0.1-0.1-0.2c-0.2-0.9-0.4-1.9-0.6-2.9c-0.1-0.9-0.2-1.7-0.3-2.6c0-0.5-0.1-1.1-0.1-1.6
				c0-0.6-0.3-1.1,0.3-1.2c1.4-0.4,3.3,2.3,3.9,3.3c0.9,1.4,1.5,3.1,1.9,4.7c0.3,1.2,0.6,2.6,0.8,3.9c0,0.1,0,0.1,0,0.2
				C395.9,363,396,364.9,395.6,366.7z M396.8,358.9c0-0.1,0-0.3,0-0.4c0-0.5,0-1,0-1.5c0-0.8,0-1.6,0.1-2.3c0.1-1.5,0.2-3.1,0.4-4.6
				c0-0.2-0.4-0.2-0.4,0c-0.2,1.8-0.4,3.6-0.5,5.4c0,0.8-0.1,1.6-0.1,2.4c0,0.4-0.1,0.9,0,1.3c-0.3-1.5-0.7-2.9-1.2-4.2
				c-0.3-0.7-0.6-1.5-0.9-2.2c0.5-2.7,1.5-5.3,2.9-7.7c1.6,3,3.7,6.3,3.7,9.7c-1.5,1.3-2.8,2.8-4,4.4
				C396.8,359,396.8,359,396.8,358.9z M396.5,367.2c0.1-0.5,0.2-1.1,0.3-1.7c2.2-2.6,4.3-5.3,6.1-8.2c0.1-0.2-0.3-0.2-0.4-0.1
				c-1.7,2.7-3.6,5.2-5.7,7.6c0.1-1.3,0-2.6-0.2-3.9c1.4-2.1,3-3.9,4.8-5.5c0.1,0,0.2-0.1,0.3-0.3c1.3-1.1,2.8-2.2,4.3-3.1
				c-0.5,2.2-1,4.5-1.9,6.6c-0.2,0.1-0.3,0.3-0.4,0.5c0,0.1,0,0.2,0,0.3c-0.2,0.5-0.5,0.9-0.8,1.4c-0.9,1.4-2.1,2.6-3.4,3.7
				c-0.6,0.5-1.1,0.9-1.7,1.4C397.8,366.1,397,366.8,396.5,367.2z M411.3,359.9c-0.4,0.3-0.7,0.5-1.1,0.8c-1,0.7-2,1.3-2.9,2
				c-2.7,1.7-5.6,3.3-8.7,4.2c0,0,0.1-0.1,0.1-0.1c0.8-0.6,1.6-1.3,2.4-2c2.2-1.6,4.5-3.1,6.8-4.4c0.2-0.1-0.2-0.1-0.3-0.1
				c-1.9,1.1-3.7,2.2-5.5,3.5c0.3-0.3,0.6-0.6,0.9-1c0.7-0.9,1.3-1.9,1.8-2.9c0.1-0.1,0.2-0.1,0.2-0.2c0,0,0-0.1,0-0.1
				c0,0,0-0.1,0-0.1c0,0,0,0,0,0c0.6-0.5,2.9-0.7,3.4-0.7c0.9,0,2.6-0.1,3.3,0.5c0.1,0,0.3,0.1,0.4,0.1
				C411.8,359.4,411.5,359.7,411.3,359.9z"/>
		</g>
		<g>
			<path class="st4" d="M100.2,369.5c-1.4-0.2-2.9-0.2-4.4,0.3c-0.2,0-0.4,0.1-0.6,0.2c0.8-2.2,1.3-4.6,1.9-6.9
				c0.1-0.4-0.3-0.8-0.7-0.6c-1.7,0.9-3.3,2-4.8,3.2c-0.3-3.6-2.6-7-4.2-10.1c-0.2-0.3-0.6-0.4-0.9-0.1c-1.5,2.4-2.6,5-3.3,7.7
				c-0.3-0.5-0.7-1-1.1-1.4c-0.8-0.9-2.6-2.7-4-2.4c-1.5,0.3-0.8,2.8-0.7,3.8c0.1,1.9,0.4,3.8,0.9,5.7c-2,0.2-3.8,0.7-5.6,1.5
				c-1.9,0.9-2.5,1.5-0.8,3c3.7,3.3,7.9,6.6,13.1,6.6c0,0,0,0,0,0c0.1,0.1,0.1,0.1,0.2,0.1c0.1,0.1,0.3,0.1,0.5,0.1
				c0.3,0,0.5-0.1,0.8-0.3c5.8-1.1,10.9-4.5,15.7-7.9C104.2,370.5,101.7,369.7,100.2,369.5z"/>
			<path class="st3" d="M100.2,369.5c-1.4-0.2-2.9-0.2-4.4,0.3c-0.2,0-0.4,0.1-0.6,0.2c0.8-2.2,1.3-4.6,1.9-6.9
				c0.1-0.4-0.3-0.8-0.7-0.6c-1.7,0.9-3.3,2-4.8,3.2c-0.3-3.6-2.6-7-4.2-10.1c-0.2-0.3-0.6-0.4-0.9-0.1c-1.5,2.4-2.6,5-3.3,7.7
				c-0.3-0.5-0.7-1-1.1-1.4c-0.8-0.9-2.6-2.7-4-2.4c-1.5,0.3-0.8,2.8-0.7,3.8c0.1,1.9,0.4,3.8,0.9,5.7c-2,0.2-3.8,0.7-5.6,1.5
				c-1.9,0.9-2.5,1.5-0.8,3c3.7,3.3,7.9,6.6,13.1,6.6c0,0,0,0,0,0c0.1,0.1,0.1,0.1,0.2,0.1c0.1,0.1,0.3,0.1,0.5,0.1
				c0.3,0,0.5-0.1,0.8-0.3c5.8-1.1,10.9-4.5,15.7-7.9C104.2,370.5,101.7,369.7,100.2,369.5z M74.8,374.6c-0.8-0.6-1.8-1.3-2.4-2.1
				c-0.4-0.4-0.5-0.3-0.2-0.8c0.2-0.3,0.9-0.5,1.2-0.6c1.6-0.7,3.4-1.2,5.2-1.3c0,0.1,0,0.1,0.1,0.2c0.7,2.4,1.8,4.7,3.3,6.7
				c-2.2-1.1-4.2-2.6-5.8-4.6c-0.1-0.1-0.5,0-0.4,0.1c1.8,2.2,4,3.8,6.5,4.9c0.5,0.6,1,1.2,1.5,1.7
				C80.4,378.5,77.5,376.7,74.8,374.6z M85.4,378.4c-1.6-4.3-3-8.6-4.4-13c-0.1-0.2-0.5-0.1-0.4,0.1c1.4,4.4,2.9,8.8,4.5,13.2
				c0,0.1,0.1,0.1,0.2,0.1c0,0-0.1,0.1-0.1,0.1c-0.4-0.4-0.9-0.8-1.3-1.2c0,0,0-0.1-0.1-0.1c0,0,0,0,0,0c-1.6-1.8-2.9-3.9-3.7-6.2
				c-0.3-0.7-0.5-1.4-0.6-2.1c0-0.1,0-0.1-0.1-0.2c-0.2-0.9-0.4-1.9-0.6-2.9c-0.1-0.9-0.2-1.7-0.3-2.6c0-0.5-0.1-1.1-0.1-1.6
				c0-0.6-0.3-1.1,0.3-1.2c1.4-0.4,3.3,2.3,3.9,3.3c0.9,1.4,1.5,3.1,1.9,4.7c0.3,1.2,0.6,2.6,0.8,3.9c0,0.1,0,0.1,0,0.2
				C85.8,374.7,85.8,376.6,85.4,378.4z M86.7,370.6c0-0.1,0-0.3,0-0.4c0-0.5,0-1,0-1.5c0-0.8,0-1.6,0.1-2.3c0.1-1.5,0.2-3.1,0.4-4.6
				c0-0.2-0.4-0.2-0.4,0c-0.2,1.8-0.4,3.6-0.5,5.4c0,0.8-0.1,1.6-0.1,2.4c0,0.4-0.1,0.9,0,1.3c-0.3-1.5-0.7-2.9-1.2-4.2
				c-0.3-0.7-0.6-1.5-0.9-2.2c0.5-2.7,1.5-5.3,2.9-7.7c1.6,3,3.7,6.3,3.7,9.7c-1.5,1.3-2.8,2.8-4,4.4
				C86.7,370.7,86.7,370.7,86.7,370.6z M86.3,378.9c0.1-0.5,0.2-1.1,0.3-1.7c2.2-2.6,4.3-5.3,6.1-8.2c0.1-0.2-0.3-0.2-0.4-0.1
				c-1.7,2.7-3.6,5.2-5.7,7.6c0.1-1.3,0-2.6-0.2-3.9c1.4-2.1,3-3.9,4.8-5.5c0.1,0,0.2-0.1,0.3-0.3c1.3-1.1,2.8-2.2,4.3-3.1
				c-0.5,2.2-1,4.5-1.9,6.6c-0.2,0.1-0.3,0.3-0.4,0.5c0,0.1,0,0.2,0,0.3c-0.2,0.5-0.5,0.9-0.8,1.4c-0.9,1.4-2.1,2.6-3.4,3.7
				c-0.6,0.5-1.1,0.9-1.7,1.4C87.6,377.7,86.9,378.4,86.3,378.9z M101.1,371.5c-0.4,0.3-0.7,0.5-1.1,0.8c-1,0.7-2,1.3-2.9,2
				c-2.7,1.7-5.6,3.3-8.7,4.2c0,0,0.1-0.1,0.1-0.1c0.8-0.6,1.6-1.3,2.4-2c2.2-1.6,4.5-3.1,6.8-4.4c0.2-0.1-0.2-0.1-0.3-0.1
				c-1.9,1.1-3.7,2.2-5.5,3.5c0.3-0.3,0.6-0.6,0.9-1c0.7-0.9,1.3-1.9,1.8-2.9c0.1-0.1,0.2-0.1,0.2-0.2c0,0,0-0.1,0-0.1
				c0,0,0-0.1,0-0.1c0,0,0,0,0,0c0.6-0.5,2.9-0.7,3.4-0.7c0.9,0,2.6-0.1,3.3,0.5c0.1,0,0.3,0.1,0.4,0.1
				C101.7,371.1,101.4,371.3,101.1,371.5z"/>
		</g>
		<g>
			<g>
				<path class="st4" d="M276.7,331.8c-2.3-0.5-4.7-0.4-7,0.2c-0.3,0.1-0.6,0.1-1,0.2c1.4-3.5,2.3-7.3,3.4-11c0.2-0.6-0.4-1.3-1.1-1
					c-2.8,1.4-5.5,3-7.9,4.9c-0.3-5.8-3.8-11.3-6.2-16.4c-0.3-0.5-1-0.6-1.4-0.1c-2.6,3.8-4.5,7.9-5.7,12.3
					c-0.5-0.8-1.1-1.6-1.7-2.3c-1.3-1.5-4.1-4.5-6.3-4.1c-2.4,0.5-1.5,4.4-1.4,6.1c0.1,3.1,0.5,6.2,1.1,9.2
					c-3.2,0.2-6.2,0.9-9.1,2.1c-3.1,1.3-4.1,2.2-1.5,4.7c5.8,5.6,12.3,11,20.7,11.3c0,0,0,0,0,0c0.1,0.1,0.2,0.1,0.3,0.2
					c0.2,0.2,0.5,0.2,0.8,0.1c0.4,0,0.9-0.2,1.3-0.4c9.4-1.6,17.8-6.7,25.6-12C282.9,333.7,279.1,332.3,276.7,331.8z"/>
				<path class="st6" d="M276.7,331.8c-2.3-0.5-4.7-0.4-7,0.2c-0.3,0.1-0.6,0.1-1,0.2c1.4-3.5,2.3-7.3,3.4-11c0.2-0.6-0.4-1.3-1.1-1
					c-2.8,1.4-5.5,3-7.9,4.9c-0.3-5.8-3.8-11.3-6.2-16.4c-0.3-0.5-1-0.6-1.4-0.1c-2.6,3.8-4.5,7.9-5.7,12.3
					c-0.5-0.8-1.1-1.6-1.7-2.3c-1.3-1.5-4.1-4.5-6.3-4.1c-2.4,0.5-1.5,4.4-1.4,6.1c0.1,3.1,0.5,6.2,1.1,9.2
					c-3.2,0.2-6.2,0.9-9.1,2.1c-3.1,1.3-4.1,2.2-1.5,4.7c5.8,5.6,12.3,11,20.7,11.3c0,0,0,0,0,0c0.1,0.1,0.2,0.1,0.3,0.2
					c0.2,0.2,0.5,0.2,0.8,0.1c0.4,0,0.9-0.2,1.3-0.4c9.4-1.6,17.8-6.7,25.6-12C282.9,333.7,279.1,332.3,276.7,331.8z M235.6,338.8
					c-1.2-1.1-2.8-2.2-3.8-3.5c-0.5-0.7-0.8-0.5-0.2-1.3c0.3-0.4,1.4-0.7,1.9-0.9c2.7-1.1,5.5-1.7,8.4-1.9c0,0.1,0,0.2,0.1,0.3
					c1,3.9,2.6,7.7,4.9,11c-3.5-1.9-6.6-4.4-9-7.6c-0.1-0.2-0.8,0-0.6,0.2c2.7,3.6,6.2,6.4,10.2,8.3c0.7,1,1.5,1.9,2.3,2.8
					C244.4,345.5,239.7,342.4,235.6,338.8z M252.4,345.5c-2.3-7-4.4-14.1-6.4-21.2c-0.1-0.3-0.7-0.2-0.6,0.1
					c2,7.2,4.2,14.4,6.5,21.5c0,0.1,0.2,0.2,0.3,0.2c-0.1,0-0.1,0.1-0.1,0.1c-0.7-0.6-1.3-1.3-2-2c0-0.1,0-0.1-0.1-0.1
					c0,0,0,0-0.1,0c-2.5-3-4.4-6.5-5.7-10.2c-0.4-1.1-0.7-2.2-0.9-3.4c0-0.1,0-0.2-0.1-0.3c-0.3-1.5-0.6-3.1-0.8-4.6
					c-0.2-1.4-0.3-2.8-0.4-4.2c0-0.9-0.1-1.7-0.1-2.6c0-0.9-0.4-1.7,0.6-2c2.2-0.6,5.2,3.9,6.2,5.5c1.4,2.4,2.3,5,2.9,7.6
					c0.4,2,0.9,4.2,1.2,6.3c0,0.1,0,0.2,0,0.3C253.1,339.5,253.1,342.6,252.4,345.5z M254.8,333c0-0.2,0-0.4,0-0.6
					c0-0.8,0-1.6,0.1-2.4c0.1-1.2,0.1-2.5,0.3-3.7c0.2-2.5,0.5-5,0.9-7.4c0.1-0.3-0.6-0.3-0.6,0c-0.5,2.9-0.8,5.8-1,8.7
					c-0.1,1.3-0.2,2.5-0.2,3.8c0,0.6-0.2,1.4-0.1,2.2c-0.4-2.4-1-4.8-1.7-6.9c-0.4-1.2-0.9-2.4-1.4-3.5c1-4.4,2.7-8.5,5.1-12.3
					c2.5,4.9,5.7,10.2,5.5,15.8c-2.4,2-4.7,4.3-6.7,6.8C254.8,333.2,254.8,333.1,254.8,333z M253.8,346.3c0.3-0.9,0.4-1.8,0.6-2.7
					c3.7-4,7.1-8.3,10.2-12.8c0.2-0.3-0.4-0.4-0.6-0.2c-2.8,4.3-6,8.3-9.5,12c0.2-2.1,0.2-4.2-0.1-6.3c2.3-3.2,5-6.1,8-8.6
					c0.2,0,0.4-0.2,0.5-0.4c2.2-1.8,4.6-3.4,7.1-4.7c-1,3.5-1.8,7.2-3.4,10.6c-0.3,0.2-0.5,0.5-0.6,0.8c0,0.1,0,0.3,0,0.4
					c-0.4,0.7-0.8,1.5-1.3,2.2c-1.6,2.2-3.5,4-5.6,5.7c-0.9,0.7-1.9,1.4-2.8,2.1C256,344.5,254.8,345.6,253.8,346.3z M278,335.2
					c-0.6,0.4-1.2,0.8-1.8,1.2c-1.6,1-3.2,2.1-4.8,3c-4.5,2.7-9.2,5-14.2,6.3c0.1,0,0.1-0.1,0.2-0.1c1.4-1,2.7-2,3.9-3.1
					c3.6-2.5,7.4-4.7,11.2-6.8c0.3-0.2-0.3-0.2-0.5-0.1c-3.1,1.6-6.1,3.4-9.1,5.3c0.5-0.5,1-1,1.5-1.5c1.3-1.4,2.2-2.9,3.1-4.5
					c0.1-0.1,0.3-0.2,0.3-0.4c0,0,0-0.1,0-0.1c0-0.1,0-0.1,0-0.2c0,0,0,0,0-0.1c1.1-0.8,4.6-1,5.4-1c1.5,0,4.1,0,5.3,1
					c0.2,0.1,0.5,0.1,0.7,0.2C278.9,334.6,278.4,334.9,278,335.2z"/>
			</g>
			<g>
				<path class="st4" d="M255,328.1c-1.9,0.3-3.6,1-5.2,2.1c-0.2,0.1-0.4,0.3-0.6,0.4c0.1-3-0.3-6.1-0.5-9.1c0-0.5-0.7-0.9-1.1-0.4
					c-1.7,1.8-3.3,3.8-4.6,5.8c-1.8-4.3-5.9-7.4-9.2-10.5c-0.3-0.3-0.9-0.2-1.1,0.3c-0.9,3.5-1.2,7.1-0.9,10.7
					c-0.6-0.5-1.2-0.9-1.9-1.3c-1.4-0.8-4.3-2.2-5.8-1.3c-1.6,1,0.1,3.7,0.6,4.9c1,2.3,2.1,4.5,3.4,6.6c-2.3,1-4.4,2.4-6.2,4.1
					c-1.9,1.8-2.5,2.8,0.2,4c5.9,2.6,12.2,4.8,18.6,2.8c0,0,0,0,0,0c0.1,0,0.2,0,0.3,0c0.2,0.1,0.4,0,0.6-0.1
					c0.3-0.1,0.6-0.4,0.9-0.6c6.6-3.8,11.5-9.9,15.8-16C260.3,327.8,257,327.8,255,328.1z"/>
				<path class="st6" d="M255,328.1c-1.9,0.3-3.6,1-5.2,2.1c-0.2,0.1-0.4,0.3-0.6,0.4c0.1-3-0.3-6.1-0.5-9.1c0-0.5-0.7-0.9-1.1-0.4
					c-1.7,1.8-3.3,3.8-4.6,5.8c-1.8-4.3-5.9-7.4-9.2-10.5c-0.3-0.3-0.9-0.2-1.1,0.3c-0.9,3.5-1.2,7.1-0.9,10.7
					c-0.6-0.5-1.2-0.9-1.9-1.3c-1.4-0.8-4.3-2.2-5.8-1.3c-1.6,1,0.1,3.7,0.6,4.9c1,2.3,2.1,4.5,3.4,6.6c-2.3,1-4.4,2.4-6.2,4.1
					c-1.9,1.8-2.5,2.8,0.2,4c5.9,2.6,12.2,4.8,18.6,2.8c0,0,0,0,0,0c0.1,0,0.2,0,0.3,0c0.2,0.1,0.4,0,0.6-0.1
					c0.3-0.1,0.6-0.4,0.9-0.6c6.6-3.8,11.5-9.9,15.8-16C260.3,327.8,257,327.8,255,328.1z M226.3,344.6c-1.2-0.5-2.7-0.9-3.8-1.6
					c-0.6-0.4-0.7-0.1-0.5-0.9c0.1-0.4,0.9-0.9,1.2-1.2c1.7-1.6,3.7-2.8,5.8-3.7c0,0.1,0.1,0.1,0.1,0.2c1.8,2.7,4.1,5,6.7,6.9
					c-3.1-0.4-6.1-1.5-8.8-3.2c-0.2-0.1-0.6,0.2-0.4,0.3c3,1.9,6.4,3,9.9,3.4c0.8,0.5,1.6,1,2.5,1.4
					C234.7,347.1,230.3,346.1,226.3,344.6z M240.6,345c-3.6-4.6-7.2-9.3-10.6-14c-0.1-0.2-0.6,0.1-0.5,0.2
					c3.5,4.8,7.1,9.6,10.8,14.2c0.1,0.1,0.2,0.1,0.3,0c0,0-0.1,0.1-0.1,0.1c-0.7-0.3-1.4-0.6-2-1c0,0,0-0.1-0.1-0.1c0,0,0,0-0.1,0
					c-2.7-1.5-5.1-3.6-7-6.1c-0.6-0.7-1.1-1.5-1.6-2.3c0-0.1-0.1-0.2-0.1-0.2c-0.7-1.1-1.3-2.1-1.9-3.2c-0.5-1-1-2-1.4-3
					c-0.3-0.6-0.5-1.3-0.8-1.9c-0.3-0.7-0.8-1.2-0.1-1.7c1.5-1,5,1.5,6.1,2.4c1.7,1.4,3.1,3.1,4.2,4.9c0.9,1.4,1.8,2.9,2.6,4.4
					c0,0.1,0.1,0.2,0.1,0.2C239.6,340.3,240.4,342.6,240.6,345z M239,335c-0.1-0.2-0.1-0.3-0.2-0.5c-0.2-0.6-0.4-1.2-0.6-1.8
					c-0.3-0.9-0.6-1.9-0.8-2.9c-0.5-1.9-1-3.9-1.4-5.8c-0.1-0.3-0.5-0.1-0.5,0.2c0.5,2.3,1,4.5,1.6,6.8c0.3,1,0.6,1.9,0.9,2.9
					c0.1,0.5,0.3,1.1,0.5,1.6c-1-1.7-2.1-3.3-3.2-4.7c-0.6-0.8-1.3-1.6-2-2.3c-0.5-3.6-0.3-7.1,0.4-10.6c3.2,3,7.1,6.1,8.4,10.3
					c-1.3,2.2-2.3,4.5-3.1,6.9C239.1,335.1,239,335,239,335z M241.9,345.2c0-0.7-0.2-1.5-0.3-2.2c1.7-4,3.1-8.2,4.1-12.4
					c0.1-0.3-0.4-0.2-0.5,0c-1,4-2.2,7.8-3.8,11.6c-0.4-1.6-1-3.2-1.8-4.7c0.8-3.1,2.1-6,3.6-8.7c0.1-0.1,0.2-0.2,0.3-0.4
					c1.2-1.9,2.5-3.8,4-5.5c0.3,2.9,0.6,5.9,0.4,8.8c-0.1,0.2-0.2,0.5-0.2,0.8c0,0.1,0,0.2,0.1,0.3c-0.1,0.7-0.2,1.3-0.4,2
					c-0.6,2.1-1.5,4-2.6,5.8c-0.5,0.8-1,1.6-1.5,2.4C243.1,343.2,242.5,344.4,241.9,345.2z M256.9,330.2c-0.3,0.5-0.7,0.9-1,1.3
					c-0.9,1.2-1.8,2.4-2.8,3.6c-2.6,3.2-5.5,6.2-8.9,8.6c0,0,0.1-0.1,0.1-0.1c0.7-1.1,1.5-2.2,2.1-3.4c2-2.8,4.2-5.6,6.5-8.2
					c0.2-0.2-0.3,0-0.4,0.1c-1.9,2.1-3.6,4.2-5.3,6.5c0.2-0.5,0.5-1,0.7-1.5c0.5-1.4,0.9-2.8,1.1-4.2c0.1-0.1,0.1-0.2,0.1-0.4
					c0,0,0-0.1,0-0.1c0-0.1,0-0.1,0-0.1c0,0,0,0,0-0.1c0.6-0.9,3.2-2,3.8-2.3c1.1-0.4,3.1-1.1,4.2-0.7c0.2,0,0.4,0,0.6,0
					C257.5,329.5,257.2,329.9,256.9,330.2z"/>
			</g>
		</g>
		<g>
			<g>
				<path class="st4" d="M349.3,311.4c-1.2,8-5.7,15.3-12.5,19.9c-0.2-0.1-0.5,0-0.7,0.2c-2-0.8-3-3.3-4.2-5.1c-1-1.4-2.2-2.3-3.8-3
					c-0.3-0.1-0.6-0.3-0.9-0.4C335.4,321,342.9,317,349.3,311.4z"/>
				<path class="st4" d="M285.6,315.3c-0.3-4.2-0.2-9.5,2.1-13.3c0.3,0.9,0.2,2.7,0.3,3.4c0.1,0.9,0.3,1.8,0.5,2.6
					c0.5,2,1.2,3.9,2.2,5.7c1.8,2.9,4.5,5.1,7.7,6.1c-2.6,2.2-4.7,4.7-6.4,7.6C287.8,324.8,285.9,320,285.6,315.3z"/>
				<path class="st4" d="M335.3,344.2c-0.9,1.3-2.4,3.9-4,4.6c-1.6,0.7-2.2-0.8-3.6-0.6c-2.8,0.4-2.5,4.2-3.4,6.1
					c-1.6,3.4-5.1,6.1-7.9,8.6c-1,0.8-4.2,4.3-5.3,3.3c-0.1-0.1-0.2-0.9-0.3-1.1c-0.2-0.3-0.5-0.6-0.8-0.8c-1.6-1.1-3.7-0.5-4.9,0.9
					c-0.8,1-1.2,2.2-1.6,3.4c-0.5,1.6-0.9,1.9-2.7,2c-1,0.1-2.2,0-3.2-0.1c-2.1,0-4.2,0-6.2-0.1c-1.2-0.1-4-0.7-4.8-2
					c0.1-0.1,0.1-0.2,0.1-0.3c0.1-0.6,0.2-1.3,0.3-1.9c0,0,0,0,0,0c0.2-0.2,0.2-0.4,0.1-0.6c1-3.4,2.9-6.4,3.3-9.9
					c0.5-4.5-1.5-9-1.5-13.5c0.1-8.6,4.2-16.9,11-22.2c0.2-0.2,0.2-0.3,0.2-0.5c1.6-1.3,3.5-2,5.5-2.1c2.1-0.1,3.7,0.8,5.6,1.6
					c3.3,1.4,6.9-0.1,10.2,1c1.7,0.6,2.4,2.4,3.8,3.4c1.8,1.2,3.9,1.5,5.2,3.2c1.9,2.4,2.9,5.8,6.3,6.3
					C339.7,336.2,337.4,341,335.3,344.2z"/>
				<path class="st6" d="M350.7,309.9c0.1-0.6-0.7-0.8-1.1-0.4c-6.7,6.3-15,10.7-24,12.7c-0.1-0.1-0.2-0.2-0.3-0.3
					c-0.7-0.7-1.1-1.5-1.9-2.1c-1.1-0.9-2.5-1.2-3.9-1.3c-1.9-0.1-3.8,0.2-5.7,0c-2-0.3-3.7-1.5-5.6-2c-3.2-0.7-6.5,0.2-9,2.3
					c0,0-0.1,0-0.1,0c-4.4-1.2-7.5-4.7-8.9-8.9c-0.7-2.1-1-4.3-1.2-6.5c-0.1-1.1,0-2.2-1.1-2.8c-0.3-0.2-0.7,0-0.8,0.2
					c-3.1,4.2-3.3,11.1-2.6,16.1c0.6,4.7,2.8,9.1,6.9,11.7c-2,3.7-3.2,7.7-3.5,11.9c-0.2,2-0.1,4,0.2,6c0.4,2.8,1.4,5.5,1.3,8.4
					c-0.1,3.9-2.3,7.3-3.4,10.9c-1,1.4-0.8,3.3,0.5,4.5c2,2,5.8,1.6,8.3,1.6c2,0,4,0.1,6,0.1c1,0,2.1,0.1,2.9-0.7
					c0.8-0.9,0.9-2.3,1.3-3.3c0.4-1,0.9-1.9,1.8-2.5c0.5-0.3,0.9-0.4,1.6-0.3c1.1,0.2,1.1,0.6,1.5,1.7c0.7,2.3,2.6,0.8,3.9-0.2
					c2.9-2.3,5.8-4.7,8.3-7.4c2.3-2.4,3.5-4.6,4.3-7.7c0.1-0.4,0.2-1,0.4-1.3c2-2.4,1.5-0.5,2.3-0.1c0.3,0.1,0.5,0.4,0.8,0.4
					c1.3,0.3,2.3-0.8,3.1-1.6c3.7-3.7,9.1-11.6,5-16.6c0-0.1,0-0.2-0.1-0.3C345.2,326.9,349.9,318.8,350.7,309.9z M285.6,315.3
					c-0.3-4.2-0.2-9.5,2.1-13.3c0.3,0.9,0.2,2.7,0.3,3.4c0.1,0.9,0.3,1.8,0.5,2.6c0.5,2,1.2,3.9,2.2,5.7c1.8,2.9,4.5,5.1,7.7,6.1
					c-2.6,2.2-4.7,4.7-6.4,7.6C287.8,324.8,285.9,320,285.6,315.3z M335.3,344.2c-0.9,1.3-2.4,3.9-4,4.6c-1.6,0.7-2.2-0.8-3.6-0.6
					c-2.8,0.4-2.5,4.2-3.4,6.1c-1.6,3.4-5.1,6.1-7.9,8.6c-1,0.8-4.2,4.3-5.3,3.3c-0.1-0.1-0.2-0.9-0.3-1.1c-0.2-0.3-0.5-0.6-0.8-0.8
					c-1.6-1.1-3.7-0.5-4.9,0.9c-0.8,1-1.2,2.2-1.6,3.4c-0.3,0.9-0.6,1.4-1.1,1.7c-0.1-0.1-0.3-0.1-0.5-0.1c-0.7-0.1-1.3-0.3-2-0.4
					c0-0.4,0-0.9,0-1.3c0-0.6,0.1,0-0.1-0.9c0-0.3-0.8-0.1-0.8,0.2c0,0.3,0,0.7,0,1c0,0,0,0,0,0c-1.1,1.7-2,2-2.7,0.7
					c-0.7-0.8-0.6-1-0.5-2c0-0.3-0.7-0.1-0.8,0.1c-0.3,1.1-0.9,3.2-2.7,2.6c-1.5-0.5-0.7-2-0.4-3c0.1-0.3-0.7-0.1-0.8,0
					c-0.3,0.4-0.3,0.8-0.6,1.1c-1.5,1.9-2.7,1.6-3.5-0.1c-0.1-0.1-0.2-0.1-0.4-0.1c0,0,0-0.1,0-0.1c0.1-0.6,0.2-1.3,0.3-1.9
					c0,0,0,0,0,0c0.2-0.2,0.2-0.4,0.1-0.6c1-3.4,2.9-6.4,3.3-9.9c0.5-4.5-1.5-9-1.5-13.5c0.1-8.6,4.2-16.9,11-22.2
					c0.2-0.2,0.2-0.3,0.2-0.5c1.6-1.3,3.5-2,5.5-2.1c2.1-0.1,3.7,0.8,5.6,1.6c3.3,1.4,6.9-0.1,10.2,1c1.7,0.6,2.4,2.4,3.8,3.4
					c1.8,1.2,3.9,1.5,5.2,3.2c1.9,2.4,2.9,5.8,6.3,6.3C339.7,336.2,337.4,341,335.3,344.2z M336.8,331.3c-0.2-0.1-0.5,0-0.7,0.2
					c-2-0.8-3-3.3-4.2-5.1c-1-1.4-2.2-2.3-3.8-3c-0.3-0.1-0.6-0.3-0.9-0.4c8.2-2.1,15.7-6,22.1-11.6
					C348.1,319.5,343.5,326.7,336.8,331.3z"/>
				<path class="st3" d="M324.1,335.8c-0.2-4.4-3.6-8-8.1-8c-4.4,0-8.2,3.7-8.2,8.2c0,4.4,3.7,8.2,8.2,8.2c4.5,0,7.9-3.6,8.1-8
					c0,0,0-0.1,0-0.1C324.1,335.9,324.1,335.8,324.1,335.8z M317.6,338.6c0.5-0.9,0.9-2,0.9-3.1c0-0.2,0-0.3-0.1-0.4
					c0-0.2,0.1-0.4,0.1-0.6c0,1.6-0.3,3.1-1.2,4.5C317.5,338.9,317.5,338.7,317.6,338.6z M315.9,328.8c0.3,0,0.6,0,0.9,0.1
					c-0.1,0.2-0.1,0.3,0.1,0.5c0,0,0.1,0.1,0.1,0.1c-0.1,0.1-0.1,0.1-0.1,0.2c-0.3-0.4-0.7-0.8-1.2-0.9
					C315.7,328.8,315.8,328.8,315.9,328.8z M316.2,338.3C316.2,338.3,316.2,338.3,316.2,338.3c0,0.1-0.1,0.2-0.1,0.3
					c-0.2,0.3-0.4,0.5-0.6,0.7C315.8,338.9,316,338.6,316.2,338.3z M310.3,334c0,0.1-0.1,0.2-0.1,0.3c-0.1,0.1-0.2,0.2-0.2,0.4
					c0,0,0,0,0,0.1c0,0,0,0,0,0c-0.1,0-0.1,0-0.2,0C310,334.4,310.2,334.2,310.3,334C310.3,333.9,310.3,333.9,310.3,334z M309.4,333
					c0.6-1.2,1.5-2.3,2.6-3C311,330.9,310.1,332.1,309.4,333z M312.5,331.5C312.5,331.5,312.5,331.5,312.5,331.5
					c0.1-0.1,0.2-0.2,0.3-0.3c0,0.1,0,0.2,0,0.3c-0.1,0-0.1,0.1-0.2,0.1C312.6,331.5,312.6,331.5,312.5,331.5z M313.3,341.9
					c-0.2-0.1-0.4-0.1-0.5-0.3c0.1-0.1,0.1-0.2,0.2-0.3c0.1,0,0.3,0,0.4,0c0,0.1,0,0.3-0.1,0.4C313.3,341.8,313.3,341.8,313.3,341.9
					z M315.4,343c1.8-1,3.3-3.6,3.9-5.2c1-2.9,0.5-6.1-1.1-8.6c0.7,0.3,1.4,0.6,2,1.1c0,0.1,0,0.1,0,0.2c1.2,4.1,0.6,8.4-1.8,11.9
					c0,0.1-0.1,0.1-0.1,0.2c-0.7,0.3-1.5,0.4-2.4,0.4C315.8,343,315.6,343,315.4,343z M319.6,342c1.9-3.2,2.5-7,1.7-10.6
					c1,1.2,1.7,2.9,1.7,4.6C322.9,338.5,321.6,340.7,319.6,342z"/>
			</g>
			<path class="st3" d="M315,346.9c-5.5-1.4-9-6.2-8.7-11.9c0-0.4-0.8-0.2-0.8,0.1c-0.4,5.9,3.3,10.9,9,12.3
				C314.8,347.5,315.4,347,315,346.9z"/>
			<path class="st3" d="M320.8,353.4c-1.1,1.2-1.9,2.7-2.8,4c-1.3,1.9-2.8,3.2-4.7,4.5c-0.3,0.2,0.5,0.1,0.6,0c1.4-1,2.9-1.9,4-3.3
				c1.4-1.7,2.2-3.7,3.7-5.3C321.7,353.2,321,353.3,320.8,353.4z"/>
			<path class="st3" d="M325.8,347.6c-0.2,0-0.4,0-0.6,0.2c-0.3,0.3-0.6,0.5-0.9,0.8c-0.1,0.1-0.1,0.2,0.1,0.3c0.2,0,0.4,0,0.6-0.2
				c0.3-0.3,0.6-0.5,0.9-0.8C326,347.7,325.9,347.6,325.8,347.6z"/>
			<path class="st3" d="M335.1,341.4c-0.5,2.1-1.7,3.8-3.4,5.1c-0.4,0.3,0.4,0.3,0.6,0.1c1.8-1.3,3-3.2,3.6-5.3
				C336,341,335.2,341.2,335.1,341.4z"/>
			<path class="st3" d="M299.3,359.3c-0.7-1.5-0.9-2.9-1-4.5c0-1,0.3-2.3-0.3-3.3c-0.6-1-2-1.1-3-0.7c-1.6,0.7-2.1,2.4-2.3,3.9
				c-0.5,3.1-1.2,5.9-2.8,8.6c-0.1,0-0.3,0-0.4,0.1c-1,0.6-0.5,1.6,0.5,1.9c2.2,0.6,4.4-0.6,6.5-0.4c1.3,0.1,2.7,1.5,3.9,0.1
				C301.8,363.3,299.9,360.8,299.3,359.3z"/>
			<path class="st3" d="M290.9,322.9c-2.1-1.7-3.2-4.3-2.8-7c0-0.2-0.8-0.1-0.8,0.1c-0.4,2.8,0.6,5.4,2.8,7.2
				C290.3,323.3,291,323,290.9,322.9z"/>
			<path class="st3" d="M335.7,327.9c-2-0.9-2.4-4.1-4.9-4.2c-0.2,0-0.9,0.3-0.5,0.3c2.2,0.1,2.8,3.4,4.7,4.2
				C335.3,328.3,336,328,335.7,327.9z"/>
			<path class="st3" d="M306.6,344.7c-1.3-1.8-2.1-3.8-2.4-5.9c0-0.3-0.8-0.1-0.8,0.2c0.3,2.2,1.2,4.3,2.5,6.1
				C306.1,345.3,306.8,345,306.6,344.7z"/>
			<path class="st3" d="M298.2,346.5l-0.3-0.3c-0.2-0.2-0.9,0.1-0.7,0.3c0.1,0.1,0.2,0.2,0.3,0.3C297.6,347,298.4,346.7,298.2,346.5
				z"/>
			<path class="st3" d="M302.2,358.8c-1-1.2-1.6-2.7-1.6-4.3c0-0.4-0.8-0.3-0.8,0c0,1.7,0.6,3.3,1.7,4.6
				C301.7,359.5,302.4,359.1,302.2,358.8z"/>
			<path class="st3" d="M298.3,325c-4.2,4.4-7,9.7-8.2,15.7c0,0.1,0.8,0,0.8-0.2c1.1-5.9,3.9-11.3,8.1-15.6
				C299.2,324.8,298.5,324.9,298.3,325z"/>
			<path class="st3" d="M310.5,320.7c-1.5-1-3.3-1.4-5.1-1.2c-0.2,0-0.9,0.4-0.4,0.3c1.7-0.2,3.3,0.2,4.7,1.2
				C309.9,321.1,310.6,320.7,310.5,320.7z"/>
			<path class="st3" d="M344.2,319.9c-1,1.2-1.9,2.4-2.9,3.7c-0.2,0.3,0.6,0.2,0.7,0c1-1.2,1.9-2.4,2.9-3.7
				C345.2,319.7,344.4,319.7,344.2,319.9z"/>
			<path class="st3" d="M336.9,322.2c-0.2,0.2-0.3,0.3-0.5,0.5c-0.3,0.3,0.5,0.3,0.6,0.1c0.2-0.2,0.3-0.3,0.5-0.5
				C337.8,322,337.1,322,336.9,322.2z"/>
		</g>
	</g>
	<polygon id="XMLID_40_" class="st3" points="263.1,111.4 263.1,111.4 264.9,109.7 272.5,102 263.1,102 263.1,102 258.4,102 
		244.2,116.1 244.2,102 235.1,102 235.1,139.4 244.2,139.4 244.2,125.3 272.5,153.5 272.5,139.4 253.7,120.8 	"/>
</g>
<g id="DESIGNED_BY_FREEPIK">
</g>
</svg>
