<?xml version="1.0" encoding="utf-8"?>
<!-- Generator: Adobe Illustrator 23.0.1, SVG Export Plug-In . SVG Version: 6.00 Build 0)  -->
<svg version="1.1" id="Layer_1" xmlns="http://www.w3.org/2000/svg" xmlns:xlink="http://www.w3.org/1999/xlink" x="0px" y="0px"
	 viewBox="0 0 86 86" style="enable-background:new 0 0 86 86;" xml:space="preserve">
<style type="text/css">
	.st0{clip-path:url(#SVGID_2_);fill:#FFB6CB;}
	.st1{clip-path:url(#SVGID_4_);}
	.st2{fill:#1B4E61;}
	.st3{fill:#F92B60;}
	.st4{fill:#FFFFFF;}
	.st5{fill:#34977E;}
	.st6{fill:#38BC9C;}
	.st7{fill:#102F3B;}
	.st8{fill:#36758C;}
	.st9{fill:#E56F53;}
	.st10{fill:#E85F5B;}
	.st11{fill:#F7F6DA;}
	.st12{fill:#E8774F;}
	.st13{fill:#BEC6CA;}
	.st14{fill:#173541;}
	.st15{fill:#102F3A;}
	.st16{fill:#213E49;}
	.st17{fill:#13333E;}
	.st18{fill:#2F4B54;}
	.st19{fill:#304B55;}
	.st20{fill:#4D646D;}
	.st21{fill:#445C66;}
	.st22{fill:#AF3116;}
	.st23{fill:#7997A2;}
	.st24{fill:#DD4F31;}
	.st25{fill:#151C2C;}
	.st26{fill:#C56240;}
	.st27{fill:#C5613E;}
	.st28{fill:#C66543;}
	.st29{fill:#E68265;}
	.st30{fill:#C66441;}
	.st31{fill:#C4603D;}
	.st32{fill:#D3184E;}
	.st33{fill:#2D8771;}
	.st34{fill:#28846D;}
	.st35{fill:#29856F;}
	.st36{fill:#2E8872;}
	.st37{fill:#28856D;}
	.st38{fill:#509B89;}
	.st39{fill:#28856E;}
	.st40{fill:#2F8872;}
	.st41{fill:#2A866F;}
	.st42{fill:#D08469;}
	.st43{fill:#CA7A5D;}
	.st44{fill:#C56342;}
	.st45{fill:#3D907B;}
	.st46{fill:#3D917C;}
	.st47{fill:#479683;}
	.st48{fill:#358B76;}
	.st49{fill:#2F8973;}
	.st50{fill:#183642;}
	.st51{fill:#AB3E3A;}
	.st52{fill:#AB3E3B;}
</style>
<g>
	<g>
		<defs>
			<circle id="SVGID_1_" cx="43" cy="43" r="43"/>
		</defs>
		<clipPath id="SVGID_2_">
			<use xlink:href="#SVGID_1_"  style="overflow:visible;"/>
		</clipPath>
		<rect class="st0" width="86" height="86"/>
	</g>
	<g>
		<defs>
			<circle id="SVGID_3_" cx="43" cy="43" r="43"/>
		</defs>
		<clipPath id="SVGID_4_">
			<use xlink:href="#SVGID_3_"  style="overflow:visible;"/>
		</clipPath>
		<g class="st1">
			<g>
				<path class="st2" d="M44.6,13.2c0.9-0.2,1.9-0.2,2.9-0.2c0,0.1-0.1,0.3-0.2,0.4c0.3,0.9,1.1,1.4,1.8,2c0.7,0.5,1.4,1.1,1.9,1.8
					c0.8,0.9,1.4,2.2,1.3,3.5c0,0.4-0.2,0.8-0.3,1.2c1.1,0.3,2.1,0.9,2.8,1.8c0.9,1.2,1.3,2.7,1.4,4.1c0.2,2-0.3,4-0.8,5.9
					c-0.3,1.2-0.7,2.4-1.1,3.5c-0.4,1-0.7,2.2-1.3,3.1c-0.4,0.6-1.1,0.9-1.7,1.1c-1.9,0.7-4.1,0.5-6.1,0.2
					c-3.8-0.7-7.4-2.3-10.7-4.3c-1.8-1.1-3.8-2.1-5.7-2.9c-0.7-0.3-1.3-0.7-2.1-0.9c0.2,0.3,0.6,0.6,0.7,1c-0.1,0.1-0.1,0.2-0.2,0.3
					c-0.7-0.6-1.4-1.2-1.9-1.9c-0.6-0.9-0.7-2.1-0.6-3.2c0.2-2.1,1.2-4.2,3-5.3c-0.7-1.4-0.6-3,0-4.3c0.7-1.5,2-2.6,3.3-3.6
					c1-0.7,2-1.1,3.1-1.5C37.5,13.7,41.1,13.6,44.6,13.2z"/>
				<path class="st3" d="M26.9,57.2c0.8-0.5,1.7-0.9,2.4-1.5c0.7,0.5,1.4,0.9,2,1.4c0.2,0.2,0.4,0.6,0.8,0.7c0.7,0.2,1.3,0.8,2,1
					c0.8,0.2,1.7,0.4,2.5,0.8c0.3,0.3,0.4,0.7,0.7,0.9c0.5,0.4,1,0.9,1.3,1.5c0.1,0.4,0.3,0.8,0.4,1.2c-0.1,0.4-0.6,0.7-1,0.8
					c-0.8,0.2-1.5,0.4-2.3,0.4c-1.8,0-3.7-0.6-5.1-1.8c-0.7-0.5-1.3-1.1-2-1.7c-0.6-0.6-0.9-1.4-1.2-2.2
					C27.2,58.2,27.1,57.7,26.9,57.2z"/>
				<path class="st4" d="M49.9,63.2c0.4-0.6,0.7-1.3,1.2-1.8c0.3,0,0.2,0.2,0.1,0.4c-0.4,0.6-0.7,1.3-1,2c-0.5,1.2-1.2,2.3-1.6,3.5
					c-0.5,1.2-1,2.4-1.4,3.6c-0.4,1.3-0.7,2.7-1,4c-0.5,2-0.9,4.1-1.4,6.1c-0.7,2.9-1.4,5.7-1.8,8.6c0,0.2-0.1,0.4-0.2,0.6
					c-0.1-1.4-0.5-2.8-0.6-4.2c-0.2-1.3-0.2-2.6-0.3-4c-0.2-2.6-0.4-5.1-0.8-7.7c-0.5-2.3-0.5-4.7-1-7c-0.2-0.7-0.3-1.5-0.5-2.2
					c-0.1-0.5-0.2-1.1-0.1-1.6c0-0.1,0.1-0.2,0.2-0.3c0.1,0.2,0.2,0.4,0.2,0.5c0.6-0.2,1.2,0,1.7-0.1c1.4-0.2,2.7-0.2,4.1-0.3
					c0.8,0,1.6-0.1,2.4-0.1c0.2,0,0.3,0.1,0.5,0.2C48.9,63.4,49.4,63.2,49.9,63.2z"/>
				<path class="st5" d="M4.1,96.5c0.5-0.9,1-1.8,1.5-2.7c-0.2,1.2-0.7,2.3-1.3,3.4c-0.3,0.5-0.4,1-0.5,1.5
					c-0.1,0.8-0.5,1.6-0.7,2.4c-0.2,0.6-0.2,1.2-0.4,1.7c-0.3,0.6-0.7,1-1.1,1.6c-1.1,1.6-2.3,3.3-3.5,4.8c-0.6,0.8-1.3,1.5-2.1,2
					c0.1,0.4,0.2,0.7,0.2,1.1c-0.3,0.1-0.3,0.5-0.6,0.7c-0.1,0.2-0.3,0.3-0.5,0.4s-0.4-0.2-0.5-0.3c-0.9,0.2-1.9,0.5-2.8,0.5
					c-1.2,0.1-2.4,0.6-3.7,0.4c-0.4-0.1-0.9,0.1-1.3,0c-0.2,0-0.2-0.3-0.2-0.4c0.6-0.2,1.3,0,2-0.2c1.2-0.2,2.4-0.6,3.6-1
					c0.8-0.2,1.5-0.5,2.2-0.9c-0.1-0.5-0.6-0.5-1-0.7s-0.8-0.4-1.2-0.6c-0.5-0.1-1-0.1-1.3-0.5c-0.2,0-0.3,0-0.5,0
					c-0.1-0.1-0.2-0.3-0.3-0.4c-0.3-0.1-0.6-0.2-0.9-0.3c-0.2-0.2-0.4-0.5-0.7-0.6c-0.3-0.2-0.7-0.2-0.7-0.6c1,0,2,0.5,2.9,0
					c1.1-0.6,2.4-1,3.5-1.6c1.1-0.7,2-1.6,3-2.5c1.4-1.3,2.9-2.6,4.2-3.9C2.7,99,3.3,97.7,4.1,96.5z"/>
				<path class="st5" d="M74.3,94.2c0.2,0.2,0.5,0.3,0.7,0.5c0.2,0.4,0.2,0.8,0.4,1.1c0.4,0.8,0.5,1.8,0.8,2.7
					c0.8,2.3,1.5,4.6,2.4,6.9c0.5,1.4,1.1,2.7,1.6,4c0.3,0.7,0.6,1.4,1.3,1.8c0.6,0.2,1.3,0.3,1.9,0.2c2.4-0.3,4.6-1.6,6.9-2.3
					c0.9-0.2,1.7-0.7,2.6-0.8c0,0.2,0,0.5-0.3,0.6c-1.1,0.4-2.2,0.9-3.2,1.6c-1.5,1-3,1.9-4.4,3.1c-0.8,0.7-1.7,1.4-2.5,2.1
					c-0.2,0.2-0.4,0.4-0.6,0.6c1-0.2,2-0.5,3-0.8c1.3-0.3,2.6-0.5,3.9-0.5c-0.5,0.5-1.5,0.3-2,0.8c-0.4,0.3-0.9,0.5-1.3,0.7
					c-2,0.9-3.8,2-5.6,3.2c0.7,0.3,1.5,0.1,2.3,0.1c1.2-0.1,2.3-0.3,3.5-0.4c1.3-0.1,2.5-0.4,3.8-0.3c0.2,0,0.2,0.3,0.2,0.4
					c-1.1,0.5-2.4,0.5-3.6,0.9c-0.8,0.2-1.5,0.6-2.3,0.8c-1.3,0.4-2.5,0.9-3.6,1.6c-0.8,0.5-1.5,1.3-2.3,1.8v-0.2
					c0.3-0.6,0.8-1.1,1.1-1.8c0.3-0.5-0.2-0.9-0.2-1.4c0-0.7,0.9-1.2,0.7-2c-0.1-0.3-0.5-0.5-0.5-0.9c-0.2-0.7,0.1-1.4,0.3-2.1
					c-0.5-0.6-1-1.2-1.3-1.9c-0.4-0.9-0.9-1.7-1.2-2.6c-0.3-0.8-0.4-1.6-0.6-2.3c0.1-0.1,0.2-0.3,0.2-0.4c-0.3-1-0.7-2-1-2.9
					c-0.5-1.5-0.8-3-0.9-4.5c-0.1-1.3-0.3-2.6-0.3-3.8C74.3,96.6,74.2,95.4,74.3,94.2z"/>
				<path class="st5" d="M1.6,106.6c0.3,0.1,0.2,0.5,0.2,0.7c-0.2,2.6-0.1,5.3,0.1,7.9c0.1,1.8,0.3,3.6,0.6,5.4
					c0.2,1.1,0.7,2.2,0.8,3.4c-0.5-0.5-0.6-1.3-0.9-1.9c-0.2-0.2-0.4-0.3-0.6-0.5c-0.3-0.4-0.5-0.9-0.8-1.3c-0.4-0.4-0.5-1-1-1.3
					c-0.2-0.2-0.5-0.2-0.7-0.4c-0.2-0.1-0.3-0.3-0.3-0.5c0.2-1.6,0.4-3.2,0.9-4.8C0.3,111,0.9,108.8,1.6,106.6z"/>
				<path class="st3" d="M102.9,109.2c-0.1-0.9-0.4-1.8-0.5-2.6c-0.2-1.1-0.5-2.1-0.8-3.2c-0.2-0.6-0.5-1.1-0.6-1.7
					c-0.5-2.1-1.3-4.1-2.1-6.1c-0.9-2.2-1.7-4.4-2.7-6.5c-0.8-1.9-1.9-3.6-3-5.4c-0.8-1.3-1.6-2.7-2.6-3.9c-1.4-1.9-2.9-3.7-4.3-5.5
					C85,72.6,83.5,71,82,69.5c-1.5-1.6-3.1-3.2-4.9-4.6c-2.3-1.9-4.8-3.3-7.3-4.9c-1.6-1-3.1-2.1-4.6-3.3c-1.5-1.3-2.8-2.6-4.1-4.1
					c-1-0.9-1.8-2-2.8-2.8c-0.3-0.3-0.7-0.5-1.2-0.6c-0.3,0-0.6,0.2-0.9,0.2c-0.3,0-0.6,0-0.9,0c-1.3,0.2-2.6,0.6-3.8,0.9
					c-1.6,0.3-3.3,0.5-4.9,0.8c-1.4,0.3-2.7,0.8-4.1,1.1c-0.8,0.2-1.7,0.4-2.5,0.7c-2.5,0.8-5.1,1.1-7.7,1.8c0-0.1,0-0.2,0-0.3
					c-1,0.2-1.9,0.5-2.8,0.7c-0.1,0.1-0.1,0.3-0.2,0.4c0.7,0.5,1.4,0.9,2,1.4c0.3,0.2,0.4,0.6,0.8,0.7c0.7,0.2,1.3,0.8,2,1
					c0.8,0.2,1.7,0.4,2.5,0.8c0.3,0.3,0.4,0.7,0.7,0.9c0.5,0.4,1,0.9,1.3,1.5c0.1,0.4,0.3,0.8,0.4,1.2c-0.1,0.4-0.6,0.7-1,0.8
					c-0.8,0.2-1.5,0.4-2.3,0.4c-1.8,0-3.7-0.6-5.1-1.8c-0.7-0.5-1.3-1.1-2-1.7c-0.6-0.6-0.9-1.4-1.2-2.2c-0.2-0.5-0.4-1-0.5-1.5
					c-1.5,0.7-3,1.4-4.5,1.9c-1.7,0.6-3.3,1.3-5,1.9c-1.7,0.8-3.4,1.4-5.1,2.2c-1,0.5-2,1-3,1.4C8.6,64.8,7.8,65,7,65.3
					c-1.2,0.6-2.3,1.3-3.4,2c-1.6,1-3.2,2-4.7,3.1c-1.3,1-2.6,2-3.9,3c-1.6,1.4-3.3,2.8-4.8,4.4c-1.1,1.2-2.3,2.3-3.5,3.5
					c-3.4,3.7-6.3,7.8-8.8,12.2c-0.8,1.7-1.6,3.3-2.2,5.1c-0.7,2-1.4,4-1.7,6.1c-0.3,1.6-0.5,3.3-0.6,4.9c0,1.3-0.1,2.6,0.2,3.8
					c0.3,0.4,0.4,0.8,0.6,1.2c0.5,1.1,1,2.1,1.7,3.1c0.8,1.2,1.6,2.4,2.5,3.5c2,2.6,4.3,4.8,6.7,7c0.8,0.8,1.6,1.6,2.5,2.4
					c1,0.8,2.1,1.5,3.2,2.2c0.6,0.5,1.4,0.7,2,1.1c0.6,0.4,1.3,0.7,1.9,1c0.4,0.2,0.9,0.4,1.1,0.8c0.2,0.7,0.2,1.4-0.1,2
					c-0.2,0.5-0.1,1-0.4,1.5c-0.4,0.6,0.1,1.3,0,2c-0.1,0.3-0.5,0.3-0.7,0.1c-0.9-0.5-1.9-0.9-2.8-1.4c0.3,0.3,0.6,0.5,0.9,0.7
					c0,0.1,0,0.3,0,0.4c0.3,0,0.5-0.1,0.8,0c0.4,0.1,0.7,0.4,1.2,0.6c0.4,0.1,0.8,0.1,1.2,0.3c0.4,0.2,0.3,0.7,0.6,1
					c0.4,0.4,0.9,0.5,1.4,0.7c0.8,0.4,1.6,0.7,2.2,1.3c0.5,0.4,0.9,0.9,1.3,1.3c0.9,0.8,2,1.4,2.8,2.2c0.3,0.3,0.8,0.6,1,1.1
					c0.2,0.3,0,0.7-0.3,0.8c-0.4,0.2-0.9,0.1-1.3,0.1c-1-0.2-2-0.7-2.9-1.2c-1.2,1.1-2.3,2.5-2.8,4.2c-0.2,0.9-0.5,1.8-0.4,2.7
					c0.2,1.7,0.4,3.5,1,5.1c0.1,0.2-0.1,0.4-0.1,0.6c1.2,0.2,2.4,0.5,3.5,0.7c1.9,0.3,3.7,0.9,5.4,1.4c2,0.6,4.1,1,5.9,1.9
					c1.7,0.7,3.4,1.4,5,2.3c2.2,1.1,4.3,2.1,6.6,2.9c2,0.9,4.1,1.5,6.2,2.1c0.5,0.1,1,0.2,1.6,0.4c2,0.5,4.1,0.9,6.2,1.1
					c1.6,0.1,3.3,0,4.9,0.1c0.1,0,0.3,0,0.4,0c0.1,0.1,0.2,0.2,0.3,0.3c0-0.1-0.1-0.2-0.1-0.3c1-0.1,2-0.1,3-0.4
					c0.8-0.2,1.7-0.4,2.5-0.6c1.2-0.3,2.4-0.8,3.5-1.1c2.3-0.7,4.5-1.8,6.7-2.7c1.8-0.8,3.6-1.4,5.5-2c-0.3-0.1-0.6-0.2-0.9-0.4
					c-0.1-0.2,0-0.4,0-0.6c0.3-1.8,0.7-3.6,0.8-5.5c0.1-0.7,0.6-1.1,1.1-1.5c1-0.7,1.9-1.4,2.7-2.2c0.5-0.4,0.9-0.8,1.2-1.4
					c0.2-0.4,0.4-0.8,0.8-1.1l0,0c0.1-1.3,0.3-2.6,0.4-4c1.3-0.6,2.7-1.1,4-1.9c0.2,0.1,0.4,0.1,0.7,0.1c0.1-0.6,0.1-1.2,0.1-1.8
					c0-0.3,0.3-0.4,0.5-0.6c0.9-0.8,1.7-1.7,2.4-2.7c0.4-0.7,1-1.3,1.2-2.1c0.1-0.2,0.2-0.5,0.5-0.5c0.4,0,0.8,0.1,1.2,0
					c1.1-0.2,2.2-0.6,3.3-0.9c2-0.7,3.8-1.9,5.6-3c1.4-1,2.8-1.9,4-3.2c-1.4,0.6-2.8,1.3-4.3,1.6c-0.4,0.1-0.8,0.1-1.2,0
					c-0.3-0.1-0.3-0.5-0.1-0.7c0.4-0.3,0.8-0.5,1.2-0.7c0.9-0.5,1.7-0.9,2.6-1.4c1.1-0.6,2.2-1.2,3.2-2c1.3-1,2.7-2,3.5-3.5
					c-0.6,0.4-1.2,0.8-1.8,1.2c-0.8,0.5-1.5,0.9-2.4,1.2c-0.5,0.2-1,0.4-1.5,0.2c-0.4-0.1-0.4-0.6-0.1-0.8c0.9-0.8,2-1.6,2.9-2.4
					c1.6-1.4,2.9-3,4-4.8c0.9-1.6,1.6-3.3,1.9-5.2C103.5,114.9,103.4,112,102.9,109.2z M2.6,103.6c-0.4,1-0.7,2-1,3
					c-0.7,2.2-1.2,4.4-1.8,6.6c-0.4,1.6-0.7,3.2-0.9,4.8c-0.2-0.8-1-1.3-1.5-1.9c-0.6-0.9-0.8-2-1.7-2.6c0.2-0.4,0.4-0.7,0.4-1.1
					s-0.1-0.8-0.2-1.1c0.8-0.6,1.5-1.2,2.1-2c1.2-1.5,2.4-3.2,3.5-4.8c0.4-0.5,0.8-1,1.1-1.6C2.7,103.1,2.7,103.4,2.6,103.6z
					 M49.2,65.5c-0.7,1.5-1.4,3-1.9,4.6c-1.1,3-1.8,6.1-2.5,9.2c-0.4,1.5-0.7,3.1-1.1,4.6c-0.3,1.2-0.2,2.5-0.8,3.6
					c-0.2,0.3-0.6,0.3-0.8,0c-0.8-1.2-0.6-2.9-0.6-4.3c0-2.1-0.3-4.2-0.6-6.3c-0.3-2.1-0.6-4.2-0.7-6.3c-0.2-2.3-0.3-4.6-0.8-6.9
					c0-0.1,0-0.3,0.1-0.3l0.1-0.1c1.8-1.6,4.5-1.3,6.7-1.4c0.9,0,4-0.7,4.2,0.7C50.5,63.6,49.6,64.7,49.2,65.5z M79.1,122.6
					c-0.3,0.6-0.8,1.1-1.1,1.8c-0.5,0.8-0.8,1.7-1.1,2.6c-0.7,1.5-1.3,3-2.4,4.2c-0.2,0.2-0.3,0.4-0.6,0.5c0-1.4-0.3-2.8-0.3-4.2
					c0-1.2,0-2.3,0-3.5c0.1-3.2,0.3-6.5,0.8-9.7c0.2-1.5,0.5-3,0.8-4.5c0.2-0.8,0.3-1.6,0.6-2.3c0.2,0.7,0.4,1.4,0.5,2.1
					c0.2,0.8,0.4,1.6,0.6,2.3c0.3,0.9,0.8,1.7,1.2,2.6c0.3,0.7,0.8,1.3,1.3,1.9c-0.2,0.7-0.5,1.4-0.3,2.1c0.1,0.4,0.4,0.6,0.5,0.9
					c0.1,0.8-0.7,1.2-0.7,2C78.9,121.7,79.4,122.2,79.1,122.6z"/>
				<path class="st5" d="M-26.3,113.7c0.3,0.4,0.4,0.8,0.6,1.2c0.5,1.1,1,2.1,1.7,3.1c0.8,1.2,1.6,2.4,2.5,3.5c2,2.6,4.3,4.8,6.7,7
					c0.8,0.8,1.6,1.6,2.5,2.4c1,0.8,2.1,1.5,3.2,2.2c0.6,0.5,1.4,0.7,2,1.1c0.6,0.4,1.3,0.7,1.9,1c0.4,0.2,0.9,0.4,1.1,0.8
					c0.2,0.7,0.2,1.4-0.1,2c-0.2,0.5-0.1,1-0.4,1.5c-0.4,0.6,0.1,1.3,0,2c-0.1,0.3-0.5,0.3-0.7,0.1c-0.9-0.5-1.9-0.9-2.8-1.4
					c-0.7-0.4-1.2-1-1.8-1.5c-1-0.9-2.1-1.8-3-2.8c-0.5-0.6-1.2-1-1.7-1.6c-1.7-1.9-3.4-4-5-6c-1.3-1.9-2.8-3.7-3.7-5.9
					c-0.3-0.8-0.7-1.5-1-2.3c-0.4-1-0.9-1.8-1.2-2.8C-25.7,116.2-26.1,115-26.3,113.7z"/>
				<path class="st5" d="M74.2,114.8c0-0.2,0.1-0.4,0.2-0.5c-0.5,3.2-0.7,6.4-0.8,9.7c-0.1,1.2-0.1,2.3,0,3.5c0,1.4,0.3,2.8,0.3,4.2
					c0,0.4-0.3,0.7-0.5,1c-0.6,1.1-1.5,2-2.2,3c-0.3,0.3-0.5,0.7-0.9,0.8c-0.7,0.2-1.2,0.8-1.9,1c-0.4,0.1-0.5-0.4-0.3-0.6
					c0.9-1.1,1.8-2.3,2.4-3.6c-0.5,0-1-0.1-1.4,0.2c-0.3,0.2-0.9,0.2-0.9-0.2c0.2-0.4,0.6-0.7,0.9-1c0.7-0.7,1.2-1.6,1.8-2.4
					c0.4-0.6,0.8-1.3,0.7-2.1c-0.5,0.1-1,0.2-1.6,0.3c-0.3,0.1-0.6,0-0.9-0.2c-0.1-0.2-0.1-0.4,0-0.5c0.5-1,1.1-1.9,1.6-2.9
					s1-1.9,1.5-2.9c0.4-0.9,0.7-1.8,1.1-2.7C73.7,117.4,73.9,116.1,74.2,114.8z"/>
				<path class="st5" d="M101.3,122.9c0.9-1.6,1.6-3.3,1.9-5.2c0,1.4-0.2,2.7-0.4,4.1c-0.2,1.1-0.4,2.1-0.6,3.2s-0.6,2.1-0.9,3.2
					c-0.4,1.2-1,2.3-1.5,3.4c-0.7,1.7-1.7,3.2-2.7,4.7c-0.4,0.6-0.9,1.2-1.5,1.6c-0.4,0.3-0.6,0.7-1,1.1c-1.2,1.6-2.8,2.9-4.5,4
					c-1.5,1.1-3.2,2-4.9,2.6c-0.9,0.3-1.8,0.6-2.8,0.6c-0.5,0-0.9,0.2-1.3,0.5c-1.2,1.1-2.5,2.3-4.1,2.8c0.1-0.6,0.1-1.2,0.1-1.8
					c0-0.3,0.3-0.4,0.5-0.6c0.9-0.8,1.7-1.7,2.4-2.7c0.4-0.7,1-1.3,1.2-2.1c0.1-0.2,0.2-0.5,0.5-0.5c0.4,0,0.8,0.1,1.2,0
					c1.1-0.2,2.2-0.6,3.3-0.9c2-0.7,3.8-1.9,5.6-3c1.4-1,2.8-1.9,4-3.2c-1.4,0.6-2.8,1.3-4.3,1.6c-0.4,0.1-0.8,0.1-1.2,0
					c-0.3-0.1-0.3-0.5-0.1-0.7c0.4-0.3,0.8-0.5,1.2-0.7c0.9-0.5,1.7-0.9,2.6-1.4c1.1-0.6,2.2-1.2,3.2-2c1.3-1,2.7-2,3.5-3.5
					c-0.6,0.4-1.2,0.8-1.8,1.2c-0.8,0.5-1.6,0.9-2.4,1.2c-0.5,0.2-1,0.4-1.5,0.2c-0.4-0.1-0.4-0.6-0.1-0.8c0.9-0.8,2-1.6,2.9-2.4
					C98.9,126.3,100.2,124.7,101.3,122.9z"/>
				<path class="st5" d="M-7,141.4L-7,141.4c0.3,0,0.5-0.1,0.8,0c0.4,0.1,0.7,0.4,1.2,0.6c0.4,0.1,0.8,0.1,1.2,0.3s0.3,0.7,0.6,1
					c0.4,0.4,0.9,0.5,1.4,0.7c0.8,0.4,1.6,0.7,2.2,1.3c0.5,0.4,0.9,0.9,1.3,1.3c0.9,0.8,2,1.4,2.8,2.2c0.3,0.3,0.8,0.6,1,1.1
					c0.2,0.3,0,0.7-0.3,0.8c-0.4,0.2-0.9,0.1-1.3,0.1c-1-0.2-2-0.7-2.9-1.2c-1.2,1.1-2.3,2.5-2.8,4.2c-0.2,0.9-0.5,1.8-0.4,2.7
					c0.2,1.7,0.4,3.5,1,5.1c0.1,0.2-0.1,0.4-0.1,0.6c-0.7-0.1-1.4-0.2-2.1-0.4c-0.5-0.3-1.1-0.2-1.6-0.4c-0.6-0.2-1.3-0.3-1.8-0.9
					c0-1.8,0.1-3.7,0.5-5.5c-0.2-0.7-0.5-1.4-0.6-2.1c-0.3-1.4-0.5-2.8-0.4-4.2C-7.5,146.2-7.3,143.8-7,141.4z"/>
				<path class="st5" d="M70.9,156.4c0.2-0.4,0.4-0.8,0.8-1.1c-0.1,1.2-0.4,2.3-0.7,3.4c-0.5,1.8-1.1,3.6-1.5,5.4
					c-0.3,0.4-0.7,0.7-0.9,1.2c0.1,0.2,0.3,0.3,0.3,0.6s-0.1,0.7-0.5,0.7c-0.4,0.1-0.7,0.4-1,0.7c-0.5,0.2-1,0.5-1.5,0.6
					c-0.3-0.1-0.6-0.2-0.9-0.4c-0.1-0.2,0-0.4,0-0.6c0.3-1.8,0.6-3.6,0.8-5.5c0.1-0.7,0.6-1.1,1.1-1.5c1-0.7,1.9-1.4,2.7-2.2
					C70.1,157.4,70.6,157,70.9,156.4z"/>
				<path class="st6" d="M-6.8,160.3c0.4,0.5,1.1,0.7,1.8,0.9c0.5,0.2,1.1,0.1,1.6,0.4c-0.3,0-0.6,0-0.9,0c-0.4,0-0.8,0.1-1.2-0.1
					c-0.3-0.1-0.7-0.2-0.9-0.5C-6.7,160.9-6.8,160.6-6.8,160.3z"/>
				<path class="st7" d="M-5.5,161.5c0.4,0.2,0.8,0.1,1.2,0.1c1.1,0.3,2.3,0.5,3.4,0.9s2.3,0.5,3.4,0.8c2,0.5,4.1,1,6.1,1.5
					c1.3,0.2,2.7,0.5,4,1c0.3,0.1,0.7,0.2,1,0.3c1.7,0.7,3.4,1.4,5,2.3c2.2,1.1,4.3,2.1,6.6,2.9c2,0.9,4.1,1.5,6.2,2.1
					c0.8,0.4,1.7,0.6,2.6,0.8c1.2,0.3,2.4,0.5,3.6,0.7c0.8,0.1,1.7,0.3,2.5,0.3c1.3-0.1,2.7,0,4-0.3c0.1,0,0.3,0,0.4,0
					c0.1,0.1,0.2,0.2,0.3,0.3c0-0.1-0.1-0.2-0.1-0.3c1-0.1,2-0.1,3-0.4c0.8-0.2,1.7-0.4,2.5-0.6c1.2-0.3,2.4-0.8,3.5-1.1
					c2.3-0.7,4.5-1.8,6.7-2.7c1.8-0.8,3.6-1.4,5.5-2c0.5-0.2,1-0.4,1.5-0.6c0.4-0.1,0.8-0.3,1.1-0.4c0.1,0.6,0.1,1.3,0.2,1.9
					c-0.2,0-0.4,0.1-0.7,0.1c0.2,0.4,0.3,0.8,0.3,1.3c0.2,0,0.3-0.1,0.5-0.1c0,0.3,0,0.6,0,0.9c-2.2,0.2-4.4,0.8-6.5,1.3
					c-1.2,0.3-2.5,0.6-3.7,1c0.2,0.8,0.6,1.6,1,2.3c0.5,1,1.1,2.1,1.8,3c0.5,0.8,1.1,1.6,1.7,2.4c-0.2,0-0.4-0.1-0.6-0.3
					c-0.6-0.6-1.2-1.3-1.7-2c-0.2-0.3-0.6-0.6-0.9-0.9c-0.3-0.4-0.7-0.6-1-1c-0.6,0-0.7-0.7-1-1c-0.6-0.6-1.4-1.1-1.9-1.8
					c-0.4,0.1-0.8,0.2-1.1,0.3c0.5,0.7,1,1.3,1.5,2c0.7,0.9,1.4,1.8,2.2,2.5c0.7,0.7,1.3,1.4,2,2c0.6,0.5,1.2,1.1,1.8,1.6
					c1,0.8,1.8,1.6,2.8,2.3c0.7,0.5,1.5,1.1,2.2,1.6c0.2,0.1,0.4,0.3,0.5,0.5c-0.8-0.3-1.4-0.8-2-1.2c-1.2-0.9-2.4-1.8-3.5-2.8
					c-0.8-0.6-1.5-1.3-2.3-2c-0.5-0.4-1-0.9-1.4-1.4c-1.5-1.4-2.8-3.1-4.1-4.8c-0.1-0.1-0.2-0.3-0.4-0.2c-0.5,0.1-0.9,0.2-1.4,0.3
					c0.4,1.1,0.4,2.3,0.6,3.5c0.1,0.5,0,1-0.1,1.4c-0.1,0.6,0.1,1.2,0.2,1.8c0.1,0.8,0.2,1.5,0.3,2.3c0.1,0.6,0,1.2,0,1.9
					c0,0.4,0,0.7-0.1,1.1c-0.1-0.1-0.3-0.3-0.3-0.5c-0.1-0.7-0.2-1.5-0.3-2.2c-0.3-1.5-0.5-2.9-0.8-4.4c-0.2-1-0.5-2-0.7-3
					c-0.1-0.5-0.1-1-0.3-1.4c-0.2,0-0.5,0-0.7,0.1c-0.1,1.2-0.3,2.3-0.4,3.5c-0.1,0.7,0,1.5-0.2,2.2c-0.1,0.4-0.2,0.8-0.1,1.2
					c0,0.5-0.1,1.1-0.1,1.6c0,1,0,2.1-0.3,3.1c-0.2-0.6-0.1-1.1-0.1-1.7c0-1-0.2-2-0.2-3.1c-0.1-0.9-0.1-1.8-0.3-2.6
					c-0.3-1.2-0.5-2.5-0.7-3.7c-1,0.2-1.9,0.5-2.9,0.5c-1.5,0.2-2.9,0.1-4.4,0.2c-1.3,0-2.6-0.2-3.9-0.3c-2.3-0.3-4.7-0.7-6.9-1.4
					c-1.3-0.4-2.6-0.8-3.8-1.2c-1.9-0.8-3.9-1.5-5.8-2.3c-2.1-0.9-4.1-1.9-6.3-2.5c-0.8,2.2-1.3,4.4-1.9,6.7c-0.2,0.7-0.2,1.3-0.5,2
					c-0.2-0.1-0.5-0.2-0.4-0.5c0.2-2,0.1-4.1,0.1-6.1c0-0.4-0.1-0.9,0.2-1.3c0.2-0.4,0.2-1,0.1-1.4c-0.2-0.1-0.5-0.2-0.7-0.3
					c-0.3,0.8-0.7,1.6-1,2.4c-0.6,1.4-1.1,2.9-1.6,4.3c-0.3,0.8-0.5,1.5-0.7,2.3s-0.6,1.6-0.7,2.4c0,0.3-0.3,0.5-0.5,0.7
					c-0.1-1.1,0.4-2.1,0.6-3.2c0.2-1.2,0.7-2.3,0.7-3.5c0-0.7,0.3-1.3,0.4-2c0.1-0.5,0.3-1,0.6-1.5c-0.2-0.8,0.2-1.7,0.4-2.4
					c-0.2,0-0.5-0.1-0.6,0.1c-1.8,2.3-3.8,4.4-6,6.4c-1.1,1-2.3,1.9-3.5,2.7c-1.1,0.7-2.2,1.4-3.4,1.9c-0.9,0.3-1.7,0.8-2.6,1
					c0.4-0.4,0.9-0.5,1.4-0.7c1-0.4,2-0.9,2.9-1.4c1.7-1.1,3.4-2.3,4.9-3.7c1.1-1.1,2.3-2.3,3.3-3.5c1-1,1.8-2.1,2.6-3.2
					c-0.4-0.1-0.8-0.2-1.2-0.2c-0.6,0.8-1.5,1.4-2.1,2.2c-0.3,0.4-0.6,0.7-0.9,1s-0.5,0.6-0.8,0.8c-0.8,0.5-1.5,1.2-2.1,1.9
					s-1.3,1.3-2,1.8c-0.2,0.1-0.4,0.2-0.6,0.3c0.5-0.7,1.1-1.2,1.6-1.8c0.8-0.9,1.7-1.9,2.3-2.9c0.7-1.2,1.5-2.4,2.1-3.7
					c-2.2-0.4-4.5-0.6-6.7-0.9c-1.2-0.2-2.3-0.4-3.5-0.5C-5.4,163.8-5.3,162.6-5.5,161.5z"/>
				<path class="st2" d="M-4.3,161.6c0.3,0,0.6,0,0.9,0c0.7,0.2,1.4,0.3,2.1,0.4c1.2,0.2,2.4,0.5,3.5,0.7c1.9,0.3,3.7,0.9,5.4,1.4
					c2,0.6,4.1,1,5.9,1.9c-0.3-0.1-0.7-0.1-1-0.3c-1.3-0.5-2.6-0.7-4-1c-2-0.5-4.1-1-6.1-1.5c-1.1-0.3-2.3-0.4-3.4-0.8
					C-2,162.1-3.2,161.9-4.3,161.6z"/>
				<path class="st6" d="M68.5,165.3c0.3-0.4,0.6-0.8,0.9-1.2c-0.1,0.7-0.3,1.3-0.4,2c0,0.4-0.5,0.5-0.6,0.8
					c-0.4,0.1-0.8,0.3-1.1,0.4c0.2-0.3,0.5-0.6,1-0.7c0.4,0,0.4-0.4,0.5-0.7S68.7,165.5,68.5,165.3z"/>
				<path class="st2" d="M-5.8,167.7c0.1-0.9,0.1-1.9,0.2-2.8c1.2,0,2.4,0.3,3.5,0.5c2.2,0.3,4.5,0.5,6.7,0.9
					c-0.5,1.3-1.3,2.5-2.1,3.7c-0.7,1.1-1.5,2-2.3,2.9c-0.6,0.6-1.2,1.1-1.6,1.8c0.2-0.1,0.4-0.1,0.6-0.3c0.7-0.6,1.4-1.1,2-1.8
					s1.3-1.4,2.1-1.9c0.3-0.2,0.5-0.5,0.8-0.8s0.6-0.7,0.9-1c0.7-0.8,1.5-1.4,2.1-2.2c0.4,0.1,0.8,0.1,1.2,0.2
					c-0.7,1.2-1.6,2.2-2.6,3.2c-1.1,1.2-2.2,2.3-3.3,3.5c-1.5,1.4-3.2,2.6-4.9,3.7c-0.9,0.5-1.9,1-2.9,1.4c-0.5,0.2-1,0.4-1.4,0.7
					c0.9-0.2,1.7-0.7,2.6-1c1.2-0.5,2.3-1.2,3.4-1.9c1.2-0.8,2.4-1.7,3.5-2.7c2.1-2,4.2-4.1,6-6.4c0.1-0.3,0.4-0.2,0.6-0.1
					c-0.2,0.8-0.6,1.6-0.4,2.4c-0.3,0.4-0.5,0.9-0.6,1.5c-0.1,0.7-0.5,1.3-0.4,2c0,1.2-0.5,2.4-0.7,3.5s-0.7,2.1-0.6,3.2
					c0.2-0.2,0.5-0.4,0.5-0.7c0.1-0.8,0.5-1.6,0.7-2.4c0.2-0.8,0.4-1.6,0.7-2.3c0.6-1.4,1-2.9,1.6-4.3c0.4-0.8,0.7-1.6,1-2.4
					c0.2,0.1,0.5,0.1,0.7,0.3c0.2,0.4,0.2,1-0.1,1.4c-0.2,0.4-0.2,0.9-0.2,1.3c0,2.1,0.1,4.1-0.1,6.1c-0.1,0.3,0.3,0.4,0.4,0.5
					c0.2-0.6,0.3-1.3,0.5-2c0.6-2.2,1.1-4.5,1.9-6.7c2.2,0.6,4.2,1.6,6.3,2.5c1.9,0.8,3.9,1.5,5.8,2.3c1.3,0.4,2.6,0.8,3.8,1.2
					c2.2,0.7,4.6,1.1,6.9,1.4c1.3,0.2,2.6,0.3,3.9,0.3c1.5,0,2.9,0,4.4-0.2c1-0.1,2-0.3,2.9-0.5c0.3,1.2,0.5,2.4,0.7,3.7
					c0.2,0.9,0.2,1.8,0.3,2.6c0.1,1,0.3,2,0.2,3.1c0,0.6-0.1,1.2,0.1,1.7c0.3-1,0.3-2.1,0.3-3.1c0-0.5,0.1-1.1,0.1-1.6
					c0-0.4,0-0.8,0.1-1.2c0.2-0.7,0.1-1.5,0.2-2.2c0.2-1.2,0.3-2.3,0.4-3.5c0.2,0,0.5-0.1,0.7-0.1c0.2,0.5,0.2,0.9,0.3,1.4
					c0.2,1,0.4,2,0.7,3c0.3,1.4,0.5,2.9,0.8,4.4c0.1,0.7,0.2,1.5,0.3,2.2c0,0.2,0.2,0.3,0.3,0.5c0.1-0.3,0.1-0.7,0.1-1.1
					c-0.1-0.6,0-1.2,0-1.9c-0.1-0.8-0.2-1.5-0.3-2.3c-0.1-0.6-0.3-1.2-0.2-1.8c0.1-0.5,0.2-0.9,0.1-1.4c-0.1-1.2-0.2-2.4-0.6-3.5
					c0.5-0.1,0.9-0.2,1.4-0.3c0.2-0.1,0.3,0.1,0.4,0.2c1.2,1.7,2.5,3.4,4.1,4.8c0.5,0.5,0.9,1,1.4,1.4c0.8,0.6,1.5,1.3,2.3,2
					c1.1,1,2.3,1.9,3.5,2.8c0.7,0.4,1.3,1,2,1.2c-0.1-0.2-0.3-0.4-0.5-0.5c-0.8-0.5-1.5-1.1-2.2-1.6c-1-0.7-1.9-1.6-2.8-2.3
					c-0.6-0.5-1.2-1.1-1.8-1.6c-0.7-0.6-1.4-1.3-2-2c-0.8-0.8-1.5-1.7-2.2-2.5c-0.5-0.6-1-1.3-1.5-2c0.4-0.1,0.7-0.2,1.1-0.3
					c0.6,0.7,1.3,1.2,1.9,1.8c0.3,0.4,0.4,1,1,1c0.2,0.4,0.7,0.6,1,1c0.3,0.3,0.6,0.5,0.9,0.9c0.5,0.7,1.1,1.4,1.7,2
					c0.1,0.2,0.4,0.3,0.6,0.3c-0.6-0.8-1.1-1.6-1.7-2.4c-0.7-0.9-1.3-2-1.8-3c-0.4-0.8-0.8-1.5-1-2.3c1.2-0.3,2.5-0.7,3.7-1
					c2.2-0.5,4.3-1.1,6.5-1.3c0,1.2,0.1,2.4,0.1,3.7c0.2,4.8-0.3,9.7-0.5,14.5c-0.1,2.5-0.5,5-0.7,7.6c-0.1,1.4-0.3,2.8-0.4,4.2
					c-0.1,1.7-0.3,3.3-0.5,5c-0.1,1.4-0.3,2.9-0.5,4.3c-0.1,1-0.1,1.9-0.3,2.9c-0.1,0.6-0.3,1.3-0.4,2c-0.1,0.8,0,1.7-0.1,2.5
					c-0.3,2.8-0.6,5.7-0.4,8.6c0.1,1.2,0.1,2.4,0.2,3.6c-0.1,2.2-0.1,4.5-0.2,6.7c-0.1,1.6-0.1,3.2-0.3,4.8
					c-0.3,2.2-0.6,4.5-0.9,6.7c-0.3,2.4-0.9,4.8-1.5,7.1c-0.1,0.6-0.4,1.2-0.3,1.8c0.1,0.9,0.2,1.9,0.1,2.9c-0.1,1.1,0,2.2,0,3.3
					c-0.1,1.3-0.3,2.7-0.3,4c0,2.6-0.3,5.2-0.6,7.8c-0.1,0.6-0.3,1.3-0.3,1.9c0,0.8-0.3,1.7-0.2,2.5c-0.3,0.7-1,1.2-1.8,1.4
					c-1.3,0.5-2.5,1-3.8,1.1c-1.5,0.2-3,0.4-4.5,0.5c-2.2,0.1-4.4,0-6.6-0.3c-0.9-0.1-1.9-0.1-2.7-0.5c-0.5-0.2-1-0.4-1.5-0.6
					c-0.2-1.4-0.3-2.9-0.6-4.3s-0.4-2.9-0.6-4.3c-0.1-1.1-0.2-2.1-0.3-3.2c0-2.3-0.3-4.7,0-7c0.1-0.5,0.1-1,0.1-1.5
					c-0.1-1.1-0.1-2.1-0.2-3.2c-0.1-1.1-0.6-2.2-0.8-3.3c-0.2-1-0.5-1.9-0.5-2.9c-0.1-1.1,0.1-2.3,0.4-3.3c0.2-0.6-0.3-1-0.4-1.5
					c-0.5-1-0.5-2.2-0.3-3.2c0.1-0.4,0.3-0.8,0.4-1.2c-0.8-1.9-1.3-3.8-1.8-5.8c-0.4-2.2-0.8-4.4-1.2-6.6c-0.5-4-1-8-1.4-12.1
					c-0.3-2.5-0.7-5-0.9-7.6c-0.2-1.8-0.4-3.6-0.5-5.4c-0.6,2.5-2.8,11.4-3.3,13.3c-0.6,2.2-1.3,4.3-1.7,6.6c-0.5,2.7-1,5.5-1.5,8.2
					c-0.5,2.3-1.1,4.6-1.8,6.8c-0.6,1.9-1.1,3.9-1.7,5.9c-0.4,1.3-0.9,2.6-1.3,3.9c-0.1,0.3,0,0.6,0.1,0.9c0.1,0.7,0.2,1.5,0.2,2.2
					c0,1.1-0.3,2.3-0.6,3.4c-0.2,0.7-0.2,1.4,0,2c0.3,1.6,0.4,3.3,0.4,4.9c0,0.8-0.1,1.5-0.2,2.3c-0.2,0.9-0.4,1.8-0.3,2.7
					c0.3,2,0.3,4,0.3,6c0.1,1.6,0.2,3.3,0.2,4.9c0,0.8-0.1,1.5-0.2,2.3s-0.2,1.6-0.4,2.4c-0.6,0.4-1,0.9-1.6,1.2
					c-0.8,0.4-1.6,0.8-2.4,1c-1.8,0.5-3.6,0.9-5.5,1c-1.8,0.2-3.7,0.1-5.6-0.1C3,286,2,286,1,285.7c-0.6-0.2-1.2-0.4-1.7-0.8
					c-0.3-1.3-0.5-2.6-0.9-3.8c-0.2-1-0.4-1.9-0.7-2.9c-0.2-0.5-0.4-1-0.5-1.5c-0.5-1.8-0.5-3.6-0.8-5.4c-0.2-1-0.5-2-0.5-3
					c-0.1-1.5-0.2-3-0.3-4.5c-0.3-1.8-0.6-3.5-1-5.3c-0.3-1.1-0.1-2.3,0-3.4c-0.1-2.1-0.4-4.2-0.8-6.3c-0.5-2.6-0.6-5.2-0.7-7.8
					c0-2.7-0.1-5.5-0.3-8.2c-0.3-3-0.6-6-0.8-9c-0.1-1.5-0.2-2.9-0.2-4.4s0.2-2.9,0.3-4.4c0.1-1.2,0.1-2.3,0.1-3.5
					c0-3.1,0-6.1-0.1-9.2c-0.1-2.8-0.1-5.6,0.1-8.5c0.1-1.6,0.1-3.3,0.3-4.9c0.1-1.3,0.1-2.6,0.2-3.8c0.2-3,0.2-6.1,0.4-9.1
					c0.1-1.2,0.5-2.4,0.5-3.6C-6.2,170.9-5.9,169.3-5.8,167.7z"/>
				<path class="st2" d="M68,168.9c0.2,0,0.4-0.1,0.7-0.1c0,0.4,0,0.9,0.1,1.3c-0.2,0-0.3,0.1-0.5,0.1
					C68.3,169.7,68.2,169.3,68,168.9z"/>
				<path class="st2" d="M31.4,173.3c0.5,0.1,1,0.2,1.6,0.4c2,0.5,4.1,0.9,6.2,1.1c1.6,0.1,3.3,0,4.9,0.1c-1.3,0.2-2.7,0.2-4,0.3
					c-0.9,0.1-1.7-0.2-2.5-0.3c-1.2-0.2-2.4-0.4-3.6-0.7C33.1,173.9,32.2,173.7,31.4,173.3z"/>
				<path class="st8" d="M60.6,279.2c0.4,0.1,0.8,0.1,1.1,0.5c0.4,0.6,0.5,1.3,0.5,2c0.2,1.6,0,3.3-0.6,4.8
					c-0.3,0.5-0.7,1.1-1.2,1.4c-0.4,0.2-0.8,0.4-1.2,0.6c-0.5,0.2-1.1,0.3-1.6,0.5c-1.1,0.3-2.2,0.6-3.3,0.7
					c-1.5,0.1-2.9,0.2-4.4,0.3c-1.2,0.1-2.4,0.1-3.5-0.1c-1-0.2-2-0.3-2.9-0.5s-1.8-0.2-2.7-0.4c-0.4-0.1-0.9-0.3-1.2-0.7
					c-0.3-0.4-0.7-0.9-0.9-1.4c-0.2-0.7-0.2-1.4-0.2-2.1c-0.1-1.1-0.1-2.3,0.1-3.4c0.1-0.4,0.4-0.8,0.8-0.9l0.2,0.1
					c0.5,0.3,1,0.4,1.5,0.6c0.8,0.4,1.8,0.4,2.7,0.5c2.2,0.3,4.4,0.5,6.6,0.3c1.5-0.1,3-0.3,4.5-0.5c1.3-0.1,2.6-0.7,3.8-1.1
					C59.6,280.4,60.3,279.9,60.6,279.2z"/>
				<path class="st8" d="M17.4,284.3c0.6-0.3,1.1-0.8,1.6-1.2c0.1,0.4,0.3,0.8,0.3,1.2c0.1,0.9,0.3,1.8,0.2,2.6
					c-0.1,0.7-0.2,1.4-0.2,2.1c0,0.9-0.3,1.8-1.2,2.1c-0.4,0.2-0.8,0.4-1.2,0.5c-1.1,0.2-2.1,0.5-3.2,0.4c-2.8,0-5.6,0.9-8.4,0.6
					c-0.8-0.1-1.7-0.3-2.5-0.3c-0.4,0-0.8-0.1-1.2-0.1c-0.7-0.2-1.4-0.5-2.1-0.9c-0.4-0.4-0.8-0.8-0.9-1.4c-0.2-0.6-0.3-1.3-0.3-2
					c0-0.9,0-1.8,0.3-2.7c0.1-0.3,0.4-0.3,0.7-0.4c0.5,0.4,1.1,0.6,1.7,0.8c1,0.4,2,0.4,2.9,0.6c1.8,0.2,3.7,0.3,5.6,0.1
					c1.9-0.1,3.7-0.5,5.5-1C15.8,285.1,16.6,284.7,17.4,284.3z"/>
				<path class="st9" d="M55.9,316.9C55.9,316.8,55.9,316.8,55.9,316.9c-0.4-1.9-0.3-3.8-0.1-5.7c0.1-1.3,0.2-2.5,0.4-3.7
					c0.3-2.7,0.9-5.3,1.4-7.9c0.5-2.2,0.8-4.5,1.2-6.7c0.3-1.4,0.3-2.8,0.4-4.1c-0.5,0.2-1.1,0.3-1.6,0.5c-1.1,0.3-2.2,0.6-3.3,0.7
					c-1.5,0.1-2.9,0.2-4.4,0.3c-1.2,0.1-2.4,0.1-3.5-0.1c-1-0.2-2-0.3-2.9-0.5s-1.8-0.2-2.7-0.4c-0.1,2.3,0.1,4.6,0.2,6.9
					c0.1,2.8,0.2,5.6,0.6,8.3c0.3,2.8,0.7,5.7,0.3,8.6c0,1.2-0.3,2.4-0.5,3.6C46.1,314.9,51.6,314.4,55.9,316.9z"/>
				<path class="st10" d="M57.4,320.8c-0.3-0.7-0.6-1.5-0.8-2.2c-0.2-0.6-0.4-1.2-0.8-1.7c-4.3-2.4-9.8-2-14.4-0.4
					c0,0.1,0,0.2-0.1,0.3c-0.2,0-0.4,0-0.5,0.2c-0.4,0.6-0.4,1.3-0.6,2c-0.3,1.3-0.6,2.6-1,3.8c-0.3,0.9-0.5,1.8-0.7,2.7
					c0.6,0.2,1.3,0.5,1.9,0.6c0.7,0.1,1.5,0.2,2.2,0.1c0.9-0.1,1.7-0.2,2.6-0.4c1.4-0.3,2.8-0.4,4.2-0.6c1.5-0.2,2.9-0.2,4.4-0.2
					c1.2,0,2.5,0.2,3.7,0.3c0.5,0,1-0.1,1.5-0.3c0,0,0-0.1,0-0.2C58.7,323.4,57.9,322.1,57.4,320.8z"/>
				<path class="st9" d="M17.2,315c0-1.1,0-2.2-0.1-3.2c-0.1-1.4-0.1-2.9-0.1-4.3c0-1.5,0-3.1,0.1-4.6c0.1-1.3,0.3-2.6,0.4-4
					c0.1-1.9,0.4-3.9,0.5-5.8c0-0.6,0.2-1.3,0.1-1.9c-0.4,0.2-0.8,0.4-1.2,0.5c-1.1,0.2-2.1,0.5-3.2,0.4c-2.8,0-5.6,0.9-8.4,0.6
					c-0.8-0.1-1.7-0.3-2.5-0.3c-0.4,0-0.8-0.1-1.2-0.1c0.1,1.3,0.4,2.6,0.4,3.8c0.2,2.8,0.6,5.6,0.8,8.3c0.1,1.4,0.3,2.8,0.3,4.3
					c0,1.6-0.2,3.1-0.4,4.7c0,0.4,0,0.8-0.1,1.1C7.4,312.9,12.8,312.6,17.2,315z"/>
				<path class="st10" d="M18.1,319.7c0-1.1,0.4-2.2,0.1-3.3c-0.1-0.6-0.5-1-1-1.3V315c-4.4-2.4-9.8-2.2-14.6-0.5l0,0
					c-0.3,0.2-0.5,0.5-0.6,0.8c-0.4,1.2-0.8,2.4-1.3,3.6c-0.4,1-0.7,2-1.2,3c-0.5,0.9-1.1,1.7-1.6,2.6c-0.3,0.5-0.5,1.1-0.6,1.8
					c0.6-0.1,1.3,0,1.9-0.2c1.1-0.3,2.1-0.6,3.2-0.8c2-0.3,4.1,0.1,6.1,0.4c1.9,0.3,3.7,0.1,5.6,0.2c0.5,0,1-0.1,1.5-0.2
					c0.6-0.1,1.3-0.2,1.9-0.3c0.2-0.3,0.4-0.5,0.8-0.6C18.4,323.1,18.1,321.4,18.1,319.7z"/>
				<path class="st11" d="M59.1,324.7c0.2,0.8,0.3,1.7,0.2,2.6c-0.4,0.4-1,0.6-1.5,0.6c-0.6,0-1.1,0.2-1.6,0.2
					c-0.8,0.1-1.6,0.1-2.4,0.2c-1,0.1-1.9,0-2.9,0.1c-1.3,0.2-2.5,0.3-3.8,0.3c-2.2,0.2-4.5,0.3-6.7,0.1c-0.5-0.1-1-0.2-1.4-0.5
					c-0.2-0.3-0.4-0.7-0.4-1.1c0-0.6,0-1.1,0.1-1.7c0.6,0.2,1.3,0.5,1.9,0.6c0.7,0.1,1.5,0.2,2.2,0.1c0.9-0.1,1.7-0.2,2.6-0.4
					c1.4-0.3,2.8-0.4,4.2-0.6c1.5-0.2,2.9-0.2,4.4-0.2c1.2,0,2.5,0.2,3.7,0.3c0.5,0,1-0.1,1.5-0.3C59.1,324.9,59.1,324.8,59.1,324.7
					z"/>
				<path class="st11" d="M17.5,325.4c0.2-0.3,0.4-0.5,0.8-0.6c0.1,0.7-0.1,1.4-0.1,2.1c-0.1,0.4-0.1,0.8-0.3,1.2
					c-0.2,0.3-0.5,0.3-0.8,0.4c-1,0.1-2,0.3-3.1,0.2c-0.8,0-1.6,0.1-2.4,0.1c-0.6,0-1.2,0.1-1.9,0.1s-1.5,0-2.2,0
					c-0.6,0-1.2,0.1-1.9,0.1c-0.8,0-1.5,0.1-2.3,0.1c-1.4,0-2.7,0-4.1,0c-0.6,0-1.3-0.1-1.8-0.5c-0.3-0.7-0.4-1.6-0.2-2.3
					c0.6-0.1,1.3,0,1.9-0.2c1.1-0.4,2.1-0.6,3.2-0.8c2-0.3,4.1,0.1,6.1,0.4c1.8,0.3,3.7,0.1,5.6,0.2c0.5,0,1-0.1,1.5-0.2
					C16.2,325.6,16.9,325.5,17.5,325.4z"/>
			</g>
			<g>
				<path class="st12" d="M36.3,25.3c1.2-0.4,2.4-0.5,3.6-0.5c0.9,0,1.7,0.4,2.6,0.6c0.3,0.1,0.6,0.2,0.9,0.4c0,1.2-0.1,2.4,0.2,3.6
					c0.3,1.1,0.7,2.2,1.4,3.1c1.3,1.8,2.7,3.5,3.4,5.7c0.1,0,0.2,0,0.3,0c-0.1-1.4,0.1-2.8,0.9-4c0.4-0.5,0.9-1,1.6-1.1
					c1.1-0.3,2.3-0.1,3.2,0.6c1.1,0.8,1.6,2.3,1.6,3.7c0.1,1.4-0.7,2.7-1.6,3.8c0,1.1,0.4,2.1,0.6,3.2c0.4,1.6,0.9,3.1,1.7,4.5
					c0.5,0.9,0.6,2,0.5,3.1c-0.3,1.9-1.3,3.5-2.2,5.1c-0.7,1-1.4,2-2.1,3.1c-0.6,0.8-1.2,1.6-1.9,2.4c-0.6,0.8-1.6,1.1-2.6,1.3
					c-1.4,0.3-2.8,0.6-4.3,0.6c-1.6,0-3.4,0.1-4.9-0.7c0-0.4-0.1-0.7-0.4-1c-0.7-1.1-1.5-2.2-2.2-3.3c-1.3-0.2-2.5-0.4-3.7-0.9
					c-0.7-0.4-1.4-0.8-2.1-1.3c-1-0.8-1.6-2-2.3-3c-1.4-2.6-2.2-5.5-2.6-8.4c-0.4-3.2-0.6-6.4-0.4-9.7c0.1-1.4,0.1-2.8,0.3-4.2
					c0.2-1,0.5-2,0.8-3c0.4-1.2,0.9-2.4,1.6-3.4c0.1-0.1,0.3-0.3,0.4-0.4c0.5,0.2,1,0.5,1.5,0.5c1.2,0.1,2.4,0.1,3.5-0.1
					C34.6,25.6,35.5,25.5,36.3,25.3z"/>
				<path class="st12" d="M3.2,132.2c0.9-1,2-1.9,3.2-2.5c0.1,0.2,0.2,0.2,0.3,0.2c1.2-0.1,2.5-0.2,3.7-0.1c0.8,0,1.7,0,2.5-0.1
					c1.1,0,2.1,0.6,2.8,1.3c0.9,0.7,1.7,1.5,2.4,2.3c0.4,0.8,1.1,1.3,1.5,2.1c0.3,0.6-0.2,1.2-0.7,1.5c-0.4,0.2-0.9,0.3-1.4,0.3
					c-0.6-0.1-1.1-0.3-1.6-0.6c-0.9-0.7-1.7-1.6-2.7-2.2c-0.9,0.5-1.6,1.3-2.2,2.1c-1.2,1.5-2.1,3.1-2.9,4.8c-0.5,1-0.9,2.1-1.2,3.2
					c-0.4,1.5-0.8,3.1-0.9,4.7c0,0.3-0.3,0.4-0.5,0.5c-0.7-0.8-1.8-1.1-2.6-1.8c-1-0.8-1.9-1.6-2.8-2.5c-0.4-0.4-0.8-0.8-1-1.3
					c-0.1-1.2-0.1-2.4,0.1-3.5c0.2-1.4,0.5-2.8,1-4C1.1,134.8,2,133.4,3.2,132.2z"/>
				<path class="st12" d="M68.7,136.7c0.9-0.2,1.9-0.2,2.8-0.1c0.9,0.4,1.5,1.2,2,1.9c1.9,2.7,3,5.9,3.5,9.2c0.1,0.4,0.1,0.9,0,1.3
					c-0.7,1.7-2,3.1-3.3,4.3c-0.7,0.6-1.4,1.1-2.2,1.6c0.3-2.1,0.3-4.2-0.1-6.2c-0.3-0.9-0.5-1.9-0.8-2.8c-0.5-1.7-1.6-3.2-2.7-4.5
					c-0.9,0-1.8-0.2-2.7-0.3c-1.1-0.1-2.3-0.1-3.3-0.6c-0.3-0.2-0.6-0.6-0.4-0.9c0.3-0.6,0.8-1,1.4-1.2c1-0.3,2-0.6,3.1-0.9
					C67,137.2,67.8,136.9,68.7,136.7z"/>
			</g>
			<g>
				<path class="st7" d="M45.5,13.6c0.6-0.2,1.2-0.4,1.8-0.4c-1,0.3-2.1,0.6-3.1,1c-1.5,0.5-2.9,1.1-4.2,2.1
					c-0.9,0.8-1.8,1.7-2.2,2.9c-0.3,1.1,0,2.3,0.7,3.2c0.6,0.8,1.5,1.2,2,2c0.1,0.2,0.2,0.4,0.2,0.6c-0.3-0.2-0.4-0.6-0.7-0.8
					c-0.5-0.5-1.2-0.9-1.6-1.5c-0.7-0.9-1-2.1-0.8-3.2c0.1-0.7,0.6-1.3,1-1.9c1.6-1.8,3.8-2.8,6.1-3.6
					C44.9,13.8,45.2,13.7,45.5,13.6z"/>
				<path class="st13" d="M44.4,13.5c0.4,0,0.7,0,1.1,0c-0.3,0.1-0.6,0.2-0.8,0.3l-0.1-0.1C44.5,13.7,44.5,13.7,44.4,13.5L44.4,13.5
					z"/>
				<path class="st7" d="M40.6,14.4c0.7-0.4,1.4-0.6,2.1-0.8c-0.4,0.2-0.8,0.3-1.3,0.5c-2,0.9-3.8,2.2-5,4c-0.6,1-1.1,2.2-0.9,3.3
					c0.2,0.8,0.7,1.5,1.4,2c0.6,0.5,1.3,0.9,2,1.3c-0.5,0.1-0.9-0.3-1.4-0.5c-0.5-0.4-1.1-0.8-1.5-1.3c-0.8-0.9-0.8-2.2-0.5-3.3
					C36,18.2,37,17,38.1,16C38.9,15.5,39.7,14.9,40.6,14.4z"/>
				<path class="st7" d="M42.8,14.1c0.5-0.2,1.1-0.4,1.7-0.4c0,0,0,0,0,0.1c-1.5,0.2-2.8,1-4.1,1.8c-1.3,0.9-2.6,2-3.3,3.5
					c-0.4,0.8-0.6,1.8-0.3,2.7c0.3,0.7,0.7,1.4,1.4,1.8c0.6,0.4,1.1,0.8,1.7,1.1c0,0,0.1,0.1,0.1,0.2c-0.4-0.1-0.7-0.3-1-0.5
					c-0.5-0.3-1-0.6-1.4-1c-0.6-0.7-1-1.7-1-2.6c0.2-2.1,1.7-3.8,3.4-4.9C40.8,15.1,41.8,14.5,42.8,14.1z"/>
				<path class="st14" d="M46.9,13.6c0.1,0,0.3,0.1,0.3,0.2c0.4,1,1.1,1.8,2,2.4c0.7,0.5,1.5,1.1,1.8,1.9c0.5,0.9,0.4,1.9,0.4,2.9
					c0,0.4-0.1,0.7-0.2,1.1c0.2-0.1,0.5-0.2,0.7-0.3c-0.1,0.2-0.3,0.3-0.5,0.4c-0.4,0.1-0.8,0.3-1.3,0.4c-1.9,0.3-3.8,1.1-5.4,2.2
					c-0.5,0.4-0.9,0.8-1.4,1.1c0.2-0.3,0.5-0.5,0.6-0.8c0.1-1.1-0.2-2.3-0.9-3.2c-0.5-0.8-1.2-1.6-1.2-2.6c0.3,0.5,0.4,1.1,0.8,1.5
					c0.9,1.2,1.6,2.5,1.6,4c0.2-0.2,0.5-0.4,0.7-0.6c-0.1-0.8-0.3-1.6-0.7-2.3c-0.5-0.9-1.5-1.6-1.9-2.6c-0.2-0.5-0.4-1-0.2-1.6
					c0.1,0.5,0.2,1.1,0.4,1.6c0.3,0.7,1,1.2,1.5,1.8c0.7,0.8,1.1,2,1,3.1c0.2-0.1,0.4-0.2,0.5-0.4c-0.3-1-0.7-2-1.2-3
					c-0.4-0.7-1-1.3-1.3-2c-0.3-0.5-0.5-1-0.6-1.6c0-0.4,0-0.8,0.3-1.1c-0.1,0.4-0.2,0.8-0.1,1.3c0.4,1.6,1.7,2.8,2.5,4.2
					c0.3,0.6,0.6,1.3,0.4,2.1c0.2-0.1,0.3-0.2,0.5-0.3c0-1-0.5-2-0.9-2.9c-0.3-0.5-0.7-1.1-1.1-1.6c-0.3-0.3-0.5-0.7-0.7-1.2
					c-0.3-0.7-0.6-1.5,0-2.1c-0.1,0.4-0.2,0.9-0.1,1.3c0.2,0.7,0.5,1.4,1,1.9c0.4,0.5,0.8,0.9,1.1,1.4c0.6,0.8,1,1.9,1,2.9
					c0.2-0.1,0.4-0.2,0.6-0.3c0-0.7-0.1-1.4-0.3-2c-0.1-0.3-0.3-0.6-0.4-1c0.1,0,0.2,0.1,0.3,0.1c0.5,0.8,0.8,1.8,0.8,2.8
					c0.2-0.1,0.4-0.2,0.6-0.2c0-0.7,0-1.3-0.2-2c-0.1-0.4-0.3-0.7-0.5-1c0.1,0,0.2,0,0.4,0c0.5,0.9,0.8,1.9,0.7,2.9
					c0.2-0.1,0.5-0.1,0.7-0.2c0-0.7,0-1.4-0.2-2c-0.1-0.4-0.3-0.7-0.5-1c0.1,0,0.2,0,0.3,0c0.6,0.8,0.8,2,0.5,3
					c0.2,0,0.4-0.1,0.6-0.1c0.1-0.7,0.1-1.5-0.1-2.2c-0.1-0.4-0.3-0.7-0.4-1c-0.3-0.3-0.6-0.7-0.9-1c-0.7-0.7-1.5-1.4-2-2.3
					c-0.2-0.5-0.5-1-0.2-1.6c0.2,0.8,0.4,1.7,0.9,2.4c0.5,0.5,1,1.1,1.6,1.5c0.3,0.3,0.7,0.6,0.8,1c0.6,0.9,0.7,2.1,0.6,3.2
					c0.1,0,0.3-0.1,0.4-0.1c0.3-1.3,0.3-2.7-0.5-3.8c-0.6-1.1-1.8-1.6-2.6-2.6c-0.3-0.4-0.6-1-0.7-1.5c-0.1-0.2,0-0.3,0-0.5
					c0.3,0.9,0.7,1.8,1.5,2.5c0.5,0.6,1.3,0.9,1.7,1.6c0.9,1.2,1.2,2.8,0.8,4.2c0.2,0,0.3,0,0.5,0c0.1-1,0.2-1.9,0.1-2.9
					c0-0.1-0.1-0.3-0.1-0.4c-0.4-1.3-1.7-2.1-2.7-2.9C47.7,15.3,47.1,14.5,46.9,13.6z"/>
				<path class="st7" d="M39.5,14.2c0.5-0.2,1-0.5,1.5-0.5c-0.4,0.2-0.9,0.4-1.3,0.6c-1.9,0.9-3.7,2.3-4.8,4.1c-0.5,0.9-0.9,2-0.7,3
					c0.3,1.1,1.2,2,2.1,2.6c0.4,0.3,1,0.4,1.3,0.9c-1.1-0.3-2.1-1-2.8-1.9c-0.7-0.8-1.1-1.9-0.8-2.9c0.3-1.5,1.3-2.9,2.5-3.9
					C37.4,15.4,38.4,14.8,39.5,14.2z"/>
				<path class="st7" d="M44.6,14.2c0.6-0.2,1.1-0.5,1.8-0.5c-1.7,0.8-3.6,1.3-5.1,2.5C40.1,17,39,18,38.7,19.4
					c-0.1,0.7,0,1.5,0.4,2.1c0.5,0.8,1.3,1.4,1.9,2.2c0.3,0.5,0.7,1,0.5,1.6c-0.2-0.3-0.3-0.7-0.5-1.1c-0.5-0.7-1.1-1.3-1.6-2
					c-0.6-0.6-0.9-1.5-0.9-2.4c0.1-0.6,0.2-1.2,0.5-1.8c0.6-1.1,1.7-1.7,2.7-2.4C42.7,15.1,43.7,14.7,44.6,14.2z"/>
				<path class="st7" d="M37.6,14.6c0.5-0.3,1-0.6,1.5-0.6c-0.4,0.2-0.9,0.4-1.3,0.7c-0.6,0.4-1.2,0.8-1.7,1.3
					c-1.1,0.9-2.1,2-2.8,3.3c-0.2,0.6-0.5,1.2-0.5,1.8c0.1,0.9,0.5,1.7,1.1,2.3c0.5,0.6,1.2,1,1.9,1.3c0.3,0.1,0.6,0.2,0.7,0.5
					c-1.4-0.6-2.9-1.4-3.6-2.8c-0.4-0.8-0.4-1.9,0-2.7c0.3-0.8,0.7-1.5,1.3-2.1C35.3,16.3,36.4,15.4,37.6,14.6z"/>
				<path class="st7" d="M33.8,16.8c0.9-1,1.9-2,3.2-2.4c-1.6,1-3.1,2.2-4.1,3.9C32.5,19.1,32,20,32,20.9c0.1,0.9,0.4,1.8,1,2.5
					c0.7,0.9,1.8,1.3,2.7,2c-0.6,0-1.1-0.4-1.6-0.8c-0.7-0.4-1.3-0.9-1.8-1.6c-0.6-1-0.7-2.2-0.3-3.3C32.5,18.6,33.1,17.6,33.8,16.8
					z"/>
				<path class="st7" d="M42.9,15.7c0.8-0.4,1.6-0.9,2.5-1.2c-1,0.8-2.2,1.2-3.2,1.9c-0.8,0.6-1.7,1.3-2.1,2.3
					c-0.4,0.8-0.3,1.8,0.1,2.6c0.4,0.8,1.1,1.4,1.5,2.2c0.2,0.5,0.3,1,0.4,1.5c0,0.2-0.1,0.3-0.1,0.4c0-0.7-0.2-1.4-0.6-2.1
					c-0.4-0.7-1-1.2-1.4-1.9c-0.4-0.8-0.5-1.8-0.1-2.6C40.4,17.4,41.8,16.6,42.9,15.7z"/>
				<path class="st7" d="M34.1,15.6c0.4-0.4,0.9-0.7,1.4-0.9c-0.1,0.1-0.3,0.2-0.4,0.3c-0.4,0.2-0.8,0.5-1.1,0.8
					c-1.1,1-2.2,2.2-2.7,3.6c-0.3,0.9-0.5,2,0,2.9c0.5,1.1,1.4,1.8,2.4,2.5c0.3,0.2,0.7,0.4,0.9,0.8c-1.3-0.6-2.6-1.5-3.3-2.8
					c-0.4-0.8-0.6-1.7-0.4-2.5c0.1-0.9,0.5-1.6,1-2.4C32.5,17.1,33.3,16.4,34.1,15.6z"/>
				<path class="st7" d="M45.5,14.7c0.1,0.2,0.1,0.4,0.2,0.6c0.2,0.8,0.5,1.6,1.1,2.2c0.5,0.5,1,1,1.5,1.5c0.1,0.1,0.1,0.3,0.2,0.4
					c-0.2-0.1-0.3-0.2-0.4-0.3c-0.8-0.9-1.6-1.7-2.2-2.8c-0.1-0.3-0.2-0.5-0.3-0.8C45.5,15.2,45.5,14.9,45.5,14.7z"/>
				<path class="st7" d="M45,16.5c-0.1-0.4-0.3-0.9-0.1-1.3c0,0.5,0.1,1.1,0.3,1.6c0.3,0.7,0.8,1.3,1.3,1.9c0.3,0.3,0.7,0.6,1,1
					c-0.1,0-0.2,0.1-0.4,0.1c-0.6-0.9-1.5-1.5-1.9-2.5C45.2,16.9,45.1,16.7,45,16.5z"/>
				<path class="st7" d="M32.5,16.2c0.3-0.3,0.6-0.7,1.1-0.8c-0.2,0.2-0.4,0.4-0.6,0.6c-0.7,0.6-1.3,1.3-1.7,2.1
					c-0.6,1-1.2,2.2-0.9,3.5c0.2,1.3,1.1,2.3,2.1,3.1c0.4,0.4,0.9,0.7,1.3,1.1c-0.6-0.2-1.1-0.6-1.6-1.1c-0.9-0.8-1.8-1.8-2-3.1
					c-0.3-1.2,0.1-2.4,0.7-3.5C31.4,17.4,31.9,16.8,32.5,16.2z"/>
				<path class="st7" d="M44.4,17.6c-0.3-0.6-0.6-1.4-0.2-2.1c0,1.2,0.3,2.3,1.1,3.2l0,0c0.4,0.4,0.8,0.8,1.2,1.2
					c-0.1,0-0.2,0-0.3,0C45.5,19.2,44.8,18.5,44.4,17.6z"/>
				<path class="st7" d="M30.7,17.3c0.3-0.5,0.8-1,1.3-1.3c-0.2,0.4-0.6,0.8-0.9,1.2c-0.4,0.7-1,1.4-1.2,2.2
					c-0.3,1.1-0.4,2.4,0.2,3.4c0.6,1.3,1.7,2.1,2.7,3c-0.5-0.1-0.9-0.6-1.3-0.9c-1-0.8-1.8-1.9-2.1-3.2c-0.1-0.6,0-1.2,0.1-1.8
					C29.6,18.9,30.2,18.1,30.7,17.3z"/>
				<path class="st7" d="M40.6,19.1c0.3-0.9,0.8-1.7,1.7-2.2c-0.4,0.6-1,1-1.3,1.7s-0.3,1.5,0,2.2c0.6,1.1,1.3,2.2,1.5,3.5
					c0,0.4,0.1,0.8-0.1,1.2c-0.1-0.5,0-1.1-0.2-1.6c-0.3-1.2-1.1-2.1-1.5-3.2C40.5,20.2,40.5,19.6,40.6,19.1z"/>
				<path class="st15" d="M28.6,21.8c-0.3-1.4-0.1-3.1,1.1-4.1c-0.4,0.7-0.8,1.4-1,2.2c-0.1,1.1,0.1,2.2,0.6,3.2
					c0.6,1.1,1.6,1.9,2.5,2.8c-0.7-0.3-1.2-0.9-1.7-1.4C29.4,23.7,28.8,22.8,28.6,21.8z"/>
				<path class="st7" d="M41.4,19.6c0-0.5,0.1-1.1,0.4-1.5c0,0.4-0.2,0.8-0.2,1.2c0,0.6,0.3,1.2,0.5,1.7c0.6,1.1,1.3,2.3,1.3,3.6
					c0,0.4,0,0.8-0.3,1.1c0-0.6,0.1-1.1,0-1.7c-0.2-0.8-0.5-1.7-0.9-2.4C41.9,21,41.5,20.4,41.4,19.6z"/>
				<path class="st16" d="M27.8,20.3c0-0.2,0.1-0.4,0.3-0.6c0,0.6-0.1,1.3,0,1.9c0.1,1.1,0.6,2.2,1.4,3c0.4,0.4,0.8,0.8,1.2,1.2
					c-0.5-0.1-0.9-0.5-1.2-0.9c-0.3-0.4-0.7-0.8-0.9-1.3C28,22.6,27.7,21.5,27.8,20.3z"/>
				<path class="st7" d="M27.5,21.8c0.1,0.3,0.2,0.7,0.3,1c0.1,0.3,0.2,0.5,0.3,0.8c0.4,0.8,1,1.3,1.6,1.9c-0.6-0.2-1-0.8-1.4-1.3
					c-0.2-0.2-0.3-0.5-0.4-0.8s-0.2-0.6-0.4-1C27.5,22.3,27.5,22,27.5,21.8z"/>
				<path class="st7" d="M52.1,22.2c0.7,0.2,1.2,0.6,1.7,1c0.9,0.7,1.4,1.9,1.6,3c0,0.3,0.1,0.5,0,0.8c-0.2-0.8-0.4-1.6-0.7-2.3
					C54.3,23.5,53.3,22.7,52.1,22.2z"/>
				<path class="st7" d="M51.4,22.3c0.6,0.1,1,0.5,1.4,0.9c1.1,1.1,1.7,2.6,2,4.1c-0.2-0.4-0.2-0.9-0.4-1.3
					c-0.4-0.8-0.8-1.7-1.4-2.4c-0.4-0.4-0.8-0.7-1.2-1C51.5,22.5,51.4,22.4,51.4,22.3z"/>
				<path class="st7" d="M50.8,22.6c0.4,0.2,0.7,0.3,1,0.6c0.7,0.7,1.3,1.4,1.8,2.3c0.3,0.7,0.6,1.4,0.7,2.2
					c-0.2-0.4-0.3-0.9-0.5-1.4c-0.5-1.3-1.4-2.4-2.4-3.3c-0.2-0.1-0.4-0.2-0.6-0.3C50.7,22.7,50.8,22.7,50.8,22.6z"/>
				<path class="st7" d="M49.9,22.9c0.6,0.2,1.1,0.5,1.5,1c0.6,0.5,1.1,1.2,1.4,1.9c0,0.1,0.1,0.2,0.1,0.2c0.2,0.5,0.4,0.9,0.4,1.5
					c-0.4-1.5-1.3-2.9-2.5-3.8C50.5,23.4,50.1,23.3,49.9,22.9z"/>
				<path class="st7" d="M49.1,23.1c0.1,0,0.2,0.1,0.3,0.1c1.3,1,2.3,2.4,3,3.9c-0.6-1.1-1.2-2.2-2.1-3
					C49.9,23.7,49.5,23.4,49.1,23.1z"/>
				<path class="st7" d="M48,23.4c0.1,0.1,0.3,0.2,0.4,0.3c0.6,0.6,1.1,1.3,1.4,2.1c0.3,0.5,0.5,1,0.7,1.6c-0.3-0.8-0.7-1.5-1.1-2.3
					c-0.2-0.3-0.3-0.5-0.5-0.8C48.6,24.1,48.2,23.8,48,23.4z"/>
				<path class="st7" d="M48.6,23.4c0.3,0.2,0.6,0.5,0.8,0.7c0.8,1,1.6,2,2.1,3.2c-0.6-1-1.1-1.9-1.8-2.8
					C49.4,24.1,49,23.7,48.6,23.4z"/>
				<path class="st7" d="M47.3,23.6c0.5,0.4,0.9,1,1.3,1.6c0.4,0.7,0.7,1.5,1,2.2h-0.1c-0.4-0.9-0.9-1.8-1.5-2.6
					C47.8,24.4,47.5,24,47.3,23.6z"/>
				<path class="st7" d="M46.5,24c1,1,1.6,2.3,2.1,3.7c-0.3-0.7-0.6-1.4-1-2.1C47.2,25.1,46.8,24.6,46.5,24z"/>
				<path class="st17" d="M27.8,24.3c0.4,0.3,0.9,0.6,1.2,1.1c-0.2-0.1-0.4-0.1-0.5-0.2c-0.5,0.6-1,1.2-1.3,1.9
					c-0.1,0.2-0.1,0.4-0.2,0.6c-0.2,0.5-0.4,1.1-0.5,1.6c0,0.1-0.1,0.3-0.1,0.4s-0.1,0.3-0.1,0.4C26,30.8,26,31.4,25.8,32
					c0.1-1.1,0.3-2.2,0.6-3.2c0-0.1,0.1-0.2,0.1-0.3c0.1-0.2,0.1-0.4,0.2-0.7c0.1-0.2,0.1-0.4,0.2-0.5c0.4-0.8,0.7-1.7,1.4-2.2
					c-0.1,0-0.2-0.1-0.2-0.1c-0.5,0.4-1,0.9-1.4,1.5c-1,1.8-1.5,3.9-1.1,5.9c-0.3-0.5-0.3-1-0.3-1.6c0-1.1,0.2-2.3,0.7-3.3
					s1-2,1.9-2.6C27.8,24.6,27.8,24.4,27.8,24.3z"/>
				<path class="st7" d="M45.6,24.5c0.6,0.5,1,1.3,1.2,2c-0.1-0.3-0.3-0.6-0.5-0.9C46.1,25.2,45.7,24.9,45.6,24.5z"/>
				<path class="st7" d="M45,24.8c0.3,0.5,0.5,1.1,0.6,1.7c-0.1-0.4-0.3-0.8-0.5-1.1C45.1,25.2,45.1,25,45,24.8z"/>
				<path class="st7" d="M44.9,26.6c-0.2-0.5-0.3-0.9-0.3-1.4C44.7,25.7,44.8,26.1,44.9,26.6z"/>
				<path class="st7" d="M44.1,25.5c0.1,0.4,0.1,0.9,0.2,1.3C44.1,26.4,44,26,44.1,25.5z"/>
				<path class="st7" d="M46.3,26.7c0.2,0.7,0.4,1.3,0.7,2C46.6,28.1,46.3,27.4,46.3,26.7z"/>
				<path class="st7" d="M45.4,26.8c0.2,0.7,0.3,1.5,0.5,2.2c-0.2-0.4-0.3-0.9-0.4-1.4C45.4,27.4,45.4,27.1,45.4,26.8z"/>
				<path class="st7" d="M44.3,29.3c-0.4-0.7-0.6-1.6-0.4-2.4C44,27.8,44.1,28.6,44.3,29.3z"/>
				<path class="st7" d="M44.7,26.9c0.1,0.4,0.1,0.7,0.2,1.1c0.1,0.4,0.2,0.8,0.3,1.2c-0.2-0.5-0.3-1-0.4-1.4
					C44.6,27.5,44.6,27.2,44.7,26.9z"/>
				<path class="st7" d="M47.2,27.2c0.8,0.9,1.3,1.9,1.6,3c-0.2-0.3-0.3-0.7-0.4-1c-0.3-0.6-0.7-1.1-1.1-1.7
					C47.3,27.4,47.3,27.3,47.2,27.2z"/>
				<path class="st18" d="M55.2,28.3c0-0.4-0.2-0.7-0.1-1.1c0.5,1.3,0.5,2.7,0.2,4.1C55.2,30.3,55.4,29.3,55.2,28.3z"/>
				<path class="st7" d="M51.5,27.4c0.4,0.5,0.6,1.2,0.8,1.8c0.1,0.3,0.2,0.5,0.2,0.8c-0.2-0.5-0.4-1.1-0.6-1.6
					C51.8,28.1,51.6,27.8,51.5,27.4z"/>
				<path class="st7" d="M49.1,27.5c0.6,0.4,0.9,1.1,1.2,1.8c0.2,0.6,0.5,1.1,0.6,1.7c-0.4-0.7-0.6-1.5-1-2.3
					C49.6,28.3,49.3,27.9,49.1,27.5z"/>
				<path class="st19" d="M54.5,27.5c0.4,1.1,0.3,2.4,0.1,3.6C54.5,29.9,54.5,28.7,54.5,27.5z"/>
				<path class="st7" d="M50.5,27.9c0.5,0.4,0.7,1,0.9,1.6c0,0.2,0.1,0.3,0.1,0.5c0.1,0.6,0.3,1.1,0.3,1.7c-0.1-0.8-0.4-1.6-0.7-2.3
					C51,29.2,51,29,50.9,28.8C50.8,28.4,50.7,28.2,50.5,27.9z"/>
				<path class="st7" d="M53.4,28c0.3,0.1,0.4,0.5,0.4,0.7c0.2,0.8,0.3,1.6,0.2,2.4C54,30,53.8,29,53.4,28z"/>
				<path class="st7" d="M52.4,28c0.5,0.4,0.5,1.1,0.8,1.6c0.1,0.3,0.1,0.5,0.1,0.8C53,29.6,52.7,28.8,52.4,28z"/>
				<path class="st7" d="M48.7,28.4c0.6,0.6,0.9,1.4,1.1,2.2c-0.3-0.5-0.4-0.9-0.7-1.4C49.1,28.9,48.9,28.7,48.7,28.4z"/>
				<path class="st7" d="M46.8,28.7c0.1,0.1,0.1,0.2,0.2,0.4c0.1,0.2,0.1,0.4,0.2,0.6c0.2,0.5,0.5,0.9,0.7,1.3
					c-0.3-0.3-0.5-0.7-0.7-1.1S46.8,29.2,46.8,28.7z"/>
				<path class="st7" d="M47.4,28.8c0.4,0.5,0.7,1.1,0.9,1.7C48.1,29.9,47.7,29.3,47.4,28.8z"/>
				<path class="st7" d="M47.2,31.1c-0.6-0.6-1-1.4-1-2.2c0.1,0.2,0.1,0.3,0.1,0.5C46.6,30,46.8,30.6,47.2,31.1L47.2,31.1z"/>
				<path class="st7" d="M55.9,29.9c0-0.3,0-0.6,0.1-0.8c0.1,0.4,0.1,0.8,0,1.1c-0.1,0.4-0.2,0.8-0.3,1.2v-0.1
					C55.8,30.8,55.8,30.3,55.9,29.9z"/>
				<path class="st7" d="M46.4,31.2c-0.5-0.6-0.9-1.3-0.9-2.1c0,0.1,0.1,0.3,0.2,0.4c0.1,0.2,0.2,0.5,0.3,0.7
					C46,30.5,46.2,30.9,46.4,31.2z"/>
				<path class="st7" d="M44.7,29.4c0.3,0.8,0.6,1.6,1.1,2.3C45.2,31,44.9,30.2,44.7,29.4z"/>
				<path class="st7" d="M44.2,29.5c0.1,0.7,0.4,1.3,0.7,2C44.5,30.9,44.2,30.2,44.2,29.5z"/>
				<path class="st20" d="M52.1,29.6c0.4,0.4,0.3,1,0.3,1.6s0,1.2-0.2,1.8c-0.1-0.4-0.1-0.8-0.1-1.2C52.6,31.1,52.2,30.3,52.1,29.6z
					"/>
				<path class="st7" d="M52.9,30.3c0.1,0.2,0.1,0.4,0.2,0.6c0,0.6,0,1.1-0.1,1.7C53,31.9,53,31.1,52.9,30.3z"/>
				<path class="st7" d="M49.1,30.5c0.2,0.2,0.3,0.4,0.4,0.6c0.1,0.1,0.1,0.3,0.2,0.4c0.2,0.5,0.4,1,0.4,1.6
					c-0.2-0.6-0.4-1.2-0.6-1.7C49.4,31.1,49.2,30.8,49.1,30.5z"/>
				<path class="st7" d="M48.2,30.6c0.5,0.7,0.9,1.5,1.3,2.4c-0.2-0.3-0.4-0.7-0.6-1C48.7,31.5,48.3,31.1,48.2,30.6z"/>
				<path class="st7" d="M50.1,30.6c0.2,0.3,0.3,0.6,0.4,0.9c0.1,0.4,0.2,0.8,0.2,1.2C50.6,32,50.2,31.3,50.1,30.6z"/>
				<path class="st21" d="M53.4,30.9c0.1,0.1,0.2,0.3,0.2,0.5c0,0.6,0,1.2-0.2,1.7C53.4,32.4,53.5,31.6,53.4,30.9z"/>
				<path class="st7" d="M51.1,31.1c0.3,0.6,0.3,1.3,0.3,1.9c-0.1-0.3-0.1-0.6-0.1-0.9C51.2,31.7,51.1,31.4,51.1,31.1z"/>
				<path class="st7" d="M46.2,31.4c0.4,0.6,0.8,1.3,1.1,1.9c-0.4-0.5-0.8-1.1-1.1-1.7C46.2,31.5,46.2,31.4,46.2,31.4z"/>
				<path class="st7" d="M47,31.4c0.5,0.7,1,1.3,1.3,2c-0.2-0.3-0.4-0.6-0.6-0.8C47.4,32.2,47,31.9,47,31.4z"/>
				<path class="st7" d="M47.6,31.4c0.5,0.3,0.8,0.9,1.1,1.5C48.4,32.3,47.9,31.9,47.6,31.4z"/>
				<path class="st7" d="M54.3,31.3c0.1,0.7,0,1.4-0.2,2C54.1,32.7,54.2,32,54.3,31.3z"/>
				<path class="st7" d="M45.7,31.7c0.3,0.6,0.7,1.1,1,1.7c-0.3-0.3-0.4-0.6-0.7-0.9c-0.1-0.2-0.2-0.3-0.3-0.5
					C45.7,31.9,45.7,31.8,45.7,31.7z"/>
				<path class="st7" d="M54.5,33.6c0.1-0.7,0.1-1.3,0.2-2C54.8,32.3,54.7,33,54.5,33.6z"/>
				<path class="st7" d="M45.1,31.8c0.6,0.7,0.9,1.5,1.4,2.2c-0.6-0.5-1-1.2-1.4-1.9C45.1,32,45.1,31.9,45.1,31.8z"/>
				<path class="st7" d="M55.3,31.9L55.3,31.9c0.1,0.4,0,0.7-0.1,1.1c0,0.1,0,0.2-0.1,0.4S55,33.8,54.9,34
					C55,33.2,55.2,32.5,55.3,31.9z"/>
				<path class="st7" d="M47.4,32.9c0.6,0.6,0.8,1.4,1,2.1c-0.1-0.3-0.2-0.6-0.4-0.9C47.8,33.7,47.5,33.4,47.4,32.9z"/>
				<path class="st7" d="M46.9,33.6c0.2,0.1,0.4,0.2,0.5,0.4c0.4,0.6,0.6,1.4,0.9,2.1c0,0,0,0-0.1,0.1C48,35.1,47.3,34.4,46.9,33.6z
					"/>
				<path class="st7" d="M46.9,34.4c0.7,0.7,1.2,1.7,1.4,2.7C47.9,36.2,47.3,35.3,46.9,34.4z"/>
				<path class="st2" d="M35.8,35.8c1.2-0.8,2.7-0.9,4-0.5c0.5,0.1,0.9,0.4,1.2,0.7c0,0.1,0,0.2,0.1,0.2c-1.3,0-2.6,0.1-3.8,0.3
					c-0.7,0.1-1.4,0.2-2.2,0.2c0,0,0.2-0.5,0.3-0.7s0.2-0.4,0.3-0.6C35.8,35.5,35.8,35.7,35.8,35.8z"/>
				<path class="st22" d="M50.3,36.1c0.4-0.6,1.1-0.8,1.7-0.7c0.5,0.2,1,0.5,1.2,1c0.4,1.2,0,2.5-1,3.3c-0.5,0.4-1.1,0.5-1.6,0.3
					c-0.2,0-0.1-0.2-0.1-0.4c0.5,0,1.1,0.2,1.5-0.2c0.8-0.7,1.2-2,0.8-3.1c-0.3-0.5-0.9-0.8-1.4-0.6c-0.9,0.3-1,1.3-1.5,1.9
					C49.7,37.1,50,36.6,50.3,36.1z"/>
				<path class="st23" d="M35.1,36.7c-0.1-0.4,0-0.8,0.2-1.1c0,0.1,0.1,0.3,0.1,0.4C35.3,36.2,35.2,36.5,35.1,36.7z"/>
				<path class="st2" d="M25.5,36.6c0.9-0.8,2.3-0.9,3.4-0.6c0,0,0.1-0.1,0.2-0.1c0.1,0.1,0.2,0.3,0.3,0.4c0-0.1,0-0.3,0-0.4
					c0.3,0.3,0.2,0.7,0.3,1.1c-0.6,0-1.3,0-1.9,0c-0.7,0-1.5,0.2-2.2,0.3C25.6,37.1,25.6,36.9,25.5,36.6z"/>
				<path class="st24" d="M31.5,38.6c0.2-0.3,0.4-0.7,0.7-0.9c0.7,1.6,0.6,3.4,0.7,5c0,0.2,0.1,0.5-0.2,0.5
					c-0.7,0.1-1.5,0.2-2.2,0.2c-0.5,0-0.6-0.5-0.6-0.9C30.1,41.1,30.9,39.9,31.5,38.6z"/>
				<path class="st25" d="M37.7,38.9c-0.2-0.3,0-1,0.5-0.8c0.4,0.2,0.2,0.7,0.1,1C38.1,39,37.8,39.1,37.7,38.9z"/>
				<path class="st25" d="M27.7,38.5c0.3-0.2,0.6,0.1,0.6,0.4c0.1,0.3-0.1,0.8-0.5,0.7C27.3,39.6,27.3,38.8,27.7,38.5z"/>
				<path class="st26" d="M37.8,39.7c0.5,0,0.9-0.1,1.4-0.2c-0.4,0.4-0.9,0.4-1.4,0.5s-1.1,0.1-1.4-0.4
					C36.9,39.6,37.3,39.7,37.8,39.7z"/>
				<path class="st27" d="M37.7,40.4c0.5,0,1.1-0.2,1.6-0.3c-0.3,0.4-0.9,0.5-1.4,0.6c-0.4,0.1-0.9,0-1.2-0.2
					C36.9,40.4,37.3,40.5,37.7,40.4z"/>
				<path class="st28" d="M26.6,40.5c0.9,0.1,1.7,0,2.6,0c-0.5,0.3-1.1,0.4-1.6,0.5C27.2,40.9,26.8,40.8,26.6,40.5z"/>
				<path class="st29" d="M31,41c0.1-0.2,0.2-0.4,0.3-0.6c-0.1,0.8-0.4,1.5-0.7,2.2C30.7,42.1,30.9,41.5,31,41z"/>
				<path class="st30" d="M26.8,41.3c0.7,0.1,1.5,0,2.2-0.1c-0.6,0.5-1.5,0.6-2.2,0.3C26.8,41.5,26.8,41.4,26.8,41.3z"/>
				<path class="st22" d="M32,42.6c0.1-0.1,0.3-0.1,0.5,0c0.2,0.3-0.2,0.7-0.5,0.5C31.7,43.1,31.8,42.7,32,42.6z"/>
				<path class="st24" d="M39.6,43.1c0.5-0.1,1.1,0.2,1.3,0.7c0.2,0.7-0.2,1.4-0.8,1.6c-0.6,0.2-1.4-0.3-1.4-0.9
					C38.6,43.9,39,43.2,39.6,43.1z"/>
				<path class="st31" d="M30.5,43.5c0.7,0.1,1.5-0.1,2.2-0.2c-0.2,0.6-0.7,1-1.1,1.3c-0.2,0.1-0.4,0.3-0.7,0.3
					c-0.4-0.3-0.2-0.9-0.1-1.4C30.7,43.6,30.6,43.5,30.5,43.5z"/>
				<path class="st24" d="M27.1,43.9c0.7-0.2,1.2,0.5,1,1.2c-0.1,0.6-1,0.9-1.5,0.5C26.1,45.1,26.4,44.1,27.1,43.9z"/>
				<path class="st31" d="M34.7,46.8c-0.1-0.6-0.1-1.2,0.1-1.7c0.1,0.6,0,1.1,0.1,1.7c0.1,0.6,0.3,1.3,0.7,1.9
					c0.2,0.3,0.5,0.6,0.7,1C35.4,49,34.9,47.9,34.7,46.8z"/>
				<path class="st24" d="M31.1,46.8c0.1-0.4,0.1-0.9,0.5-1.2c0,0.4-0.1,0.8-0.2,1.1c0.1,0,0.3,0,0.5,0c0-0.4,0.1-0.7,0.2-1.1
					c0.1,0,0.2,0,0.2,0c0,0.4-0.1,0.7-0.3,1c0.8,0.1,1.6,0.5,2.4,0.8c-0.5,0.2-1.1,0-1.6,0c-1.2-0.1-2.4,0.1-3.6,0.3
					C29.7,47.3,30.4,46.9,31.1,46.8z"/>
				<path class="st24" d="M29.1,45.7c0.2,0.2,0.1,0.5,0.1,0.8c-0.2,1-0.6,2-1.1,2.9H28C28.6,48.3,28.9,46.9,29.1,45.7z"/>
				<path class="st31" d="M30.4,48.3c0.6-0.1,1.2-0.1,1.8-0.1c0.2,0,0.3,0,0.5,0.1C31.9,48.6,31,48.8,30.4,48.3z"/>
				<path class="st31" d="M30.2,51.1c0.4-0.6,1.1-0.8,1.8-0.8c0.5,0,1.1,0,1.6,0.1c0.2,0,0.3,0.1,0.4,0.2c-0.8,0.1-1.5,0.1-2.3,0.2
					C31.2,50.9,30.7,51.1,30.2,51.1z"/>
				<path class="st32" d="M35.5,59.9c0.3-0.2,0.5-0.5,0.9-0.4c-0.7,0.7-1.6,1.3-2.3,2.1C34.4,60.9,34.9,60.4,35.5,59.9z"/>
				<path class="st32" d="M52.4,60.7c0.3,0,0.5,0.4,0.6,0.6c0.4,0.7,0.9,1.4,1.3,2.1c0,0.1,0.2,0.3,0.1,0.4c-0.1,0-0.2-0.2-0.2-0.3
					C53.5,62.6,52.9,61.7,52.4,60.7z"/>
				<path class="st33" d="M4.9,67c0.2,0,0.4,0,0.5,0.1c0.5,0.4,0.6,1,0.9,1.5c1.1,2.2,1.9,4.5,2.4,6.8C8.8,76,8.9,76.6,9,77.2
					c0.3,1.4,0.3,2.9,0.4,4.4c0.1,1.8-0.3,3.6-0.8,5.3c0.1,0,0.2,0,0.3,0.1l-0.1,0.1c-0.2,0.1-0.3,0.2-0.5,0.3C8.5,86,9,84.6,9,83.1
					c0.1-1.5-0.2-3-0.3-4.5c-0.3-2.4-0.7-4.7-1.6-7c-0.5-1.3-1.1-2.4-1.7-3.7C5.4,67.5,5.1,67.3,4.9,67z"/>
				<path class="st34" d="M80.5,69.4c0.1-0.2,0.2-0.2,0.4-0.3c-0.1,0.4-0.4,0.8-0.6,1.2c-1.4,1.8-2.4,4-3.5,6.1
					c-0.3,0.7-0.7,1.5-1,2.2c-0.4,1.4-0.9,2.8-1.1,4.3c-0.1,0.8-0.1,1.7-0.2,2.5c-0.1,1.5,0,3.1-0.1,4.6c0,1.4,0,2.8,0,4.2
					c0,1.5,0.1,3,0.2,4.5c0.2,2.3,0.4,4.7,0.9,7c0.1,0.4,0.1,0.7,0.1,1.1c0,0,0.1,0.1,0.1,0.2c0,0-0.1-0.1-0.2-0.1
					c-0.2-0.8-0.5-1.6-0.7-2.4c-0.3-1.3-0.4-2.6-0.5-4c-0.2-1.7-0.3-3.4-0.4-5.2c0-1.8,0.2-7.9,0.2-9.2c0-0.4,0-0.8,0.1-1.3
					c0.1-0.7,0-1.4,0-2c0.2-1.6,0.7-3.1,1.2-4.6c0.5-1.3,1.2-2.5,1.8-3.7c0.5-1,1-2,1.6-2.9C79.4,70.9,80,70.2,80.5,69.4z"/>
				<path class="st34" d="M4.7,70c0.2-0.2,0.3-0.3,0.6-0.4c-0.3,0.6-0.9,1.1-1.4,1.7c-1.4,1.3-2.7,2.6-4.1,3.9
					c-0.3,0.2-0.5,0.6-0.9,0.6c1.3-1.2,2.5-2.4,3.8-3.7C3.3,71.4,4,70.7,4.7,70z"/>
				<path class="st35" d="M59.5,81c0.1-0.4,0.1-0.9,0.3-1.3c0.2,1.5-0.3,2.9-0.8,4.3c-1.2,2.9-2.5,5.7-3.7,8.6
					c-0.3,0.5-0.4,1.1-0.8,1.6c0.1-0.5,0.3-1,0.5-1.5c1-2.7,2.2-5.4,3.3-8.1C58.7,83.4,59.2,82.2,59.5,81z"/>
				<path class="st36" d="M21,79.9c0.1,0.1,0.2,0.2,0.2,0.3c0.6,2.7,1.1,5.5,1.8,8.2c0.1,0.2,0.1,0.4,0,0.6c-0.2-0.5-0.3-1-0.4-1.5
					c-0.5-2.1-1-4.2-1.5-6.3C21,80.8,20.9,80.4,21,79.9z"/>
				<path class="st37" d="M-5.8,83.9c0.3-0.6,0.5-1.2,1.1-1.6c0,0.2-0.1,0.3-0.1,0.5c-0.7,1.6-1.5,3.2-2.5,4.6
					c-1.1,1.5-2.2,2.9-3.4,4.2c0-0.1,0-0.2,0-0.3C-8.9,88.9-7.2,86.5-5.8,83.9z"/>
				<path class="st34" d="M8.4,87.4c0.1-0.1,0.3-0.2,0.5-0.3c0,0.2-0.1,0.4-0.2,0.6c-1,2.1-1.8,4.2-2.6,6.3
					c-0.4,1.1-0.9,2.2-1.3,3.4c-0.4,1-0.7,2-1.1,3c-0.2,0.6-0.5,1.3-0.7,1.9c-0.1,0.4-0.2,0.7-0.4,1c-0.2-0.9,0.1-1.8,0.3-2.7
					c0.4-1.3,0.9-2.5,1.4-3.8C5.7,93.6,6.8,90.4,8.4,87.4z"/>
				<path class="st4" d="M42.1,87.7c0.1-0.1,0.2-0.1,0.3-0.2c0.2,0.1,0.3,0.2,0.5,0.2c-0.2,0.1-0.5,0.2-0.8,0.4
					C42.1,88.1,42.1,87.8,42.1,87.7z"/>
				<path class="st35" d="M82.4,88.4c0-0.3,0.1-0.5,0.2-0.8c0.2,2.7-0.1,5.5-0.4,8.2c-0.3,2.8-0.6,5.6-0.7,8.4
					c0,0.3-0.1,0.5-0.2,0.8c-0.1-0.2,0-0.4,0-0.6c0-1.4,0-2.7,0.1-4.1c0.2-2.6,0.4-5.1,0.6-7.7C82.2,91.3,82.3,89.9,82.4,88.4z"/>
				<path class="st4" d="M42.2,88.7c0.2,0,0.3,0,0.5-0.1v0.1c-0.2,0.1-0.3,0.2-0.5,0.3C42.2,88.9,42.2,88.8,42.2,88.7z"/>
				<path class="st34" d="M4.6,90c0.2-0.4,0.3-0.9,0.6-1.3c0,0.6-0.2,1.1-0.4,1.6c-0.7,2.3-1.1,4.7-1.6,7c-0.5,2-0.6,4.1-0.8,6.2
					C2.1,103.6,2,103.2,2,103c-0.1-0.9,0.1-1.8,0.1-2.6c0.3-2.4,1-4.8,1.5-7.1C3.9,92.2,4.2,91.1,4.6,90z"/>
				<path class="st34" d="M71.7,89.9c0-0.3,0.1-0.5,0.2-0.7c0.1,0.5,0.1,0.9,0.1,1.4c0.1,2.9,0.4,5.7,0.8,8.6
					c0.2,1.3,0.5,2.5,0.7,3.8c0.2,1.1,0.4,2.3,0.9,3.4c0.1,0.4,0.4,0.7,0.4,1.2c-0.5-0.5-0.7-1.2-1-1.8c-0.5-1.4-0.8-2.8-1.1-4.2
					c-0.5-2.2-0.7-4.4-0.9-6.6C71.8,93.1,71.7,91.5,71.7,89.9z"/>
				<path class="st38" d="M42.3,89.9c0.1-0.1,0.3,0,0.2,0.2C42.4,90.2,42.2,90,42.3,89.9z"/>
				<path class="st34" d="M10.3,98.9c0.3-0.8,0.5-1.6,1.1-2.1c-0.1,0.6-0.4,1.2-0.6,1.7c-0.5,1.4-0.7,2.9-1.2,4.3
					c-0.8,2.8-1.8,5.5-2.8,8.2c-0.1,0.4-0.3,0.7-0.6,1c0-0.1,0-0.3,0-0.3c0.8-2.3,1.6-4.6,2.3-6.9C9.2,102.8,9.7,100.8,10.3,98.9z"
					/>
				<path class="st34" d="M85.9,97.4c0.1,0,0.2,0,0.2,0c-0.2,1-0.4,2-0.6,3c-0.4,1.8-1,3.6-1.5,5.4c-0.2,0.6-0.3,1.2-0.7,1.7
					c-0.1-0.4,0.1-0.8,0.2-1.3c0.5-2.1,1-4.3,1.6-6.4C85.4,99.1,85.6,98.2,85.9,97.4z"/>
				<path class="st37" d="M-20.7,100.4c0.1,0,0.2,0,0.2,0c-0.4,1.4-0.3,2.9,0.1,4.3c0.3,1.1,0.8,2.2,1.3,3.3c-0.1,0-0.3-0.1-0.3-0.3
					c-0.7-1.1-1.2-2.3-1.6-3.6C-21.3,102.9-21.2,101.6-20.7,100.4z"/>
				<path class="st34" d="M57.2,103.7c0.1,0,0.2,0,0.2,0c-0.8,2-1.6,4-2.3,6.1c-1,2.9-1.8,5.8-2.3,8.8c-0.1,0-0.2,0-0.2,0
					c0.2-2.5,0.9-4.9,1.6-7.4c0.5-1.8,1.1-3.5,1.8-5.2C56.4,105.3,56.7,104.5,57.2,103.7z"/>
				<path class="st34" d="M-14.2,106.4c0.3,0,0.5,0.2,0.7,0.4c2.3,2,5,3.6,8.1,4.2c0.5,0.1,1,0,1.4,0.4c-0.5,0.1-1,0.2-1.6,0.1
					c-2-0.3-3.8-1.2-5.5-2.3c-1.1-0.7-2-1.5-2.9-2.4C-14.1,106.7-14.2,106.6-14.2,106.4z"/>
				<path class="st34" d="M91.7,108.6c1.6-0.5,3.2-1,4.8-1.3c0,0.1,0,0.2,0,0.2c-0.9,0.3-1.7,0.5-2.6,0.8c-1.2,0.4-2.3,0.8-3.4,1.3
					c-1,0.5-1.9,1-2.9,1.5s-1.8,1.3-2.7,1.9c-0.8,0.5-1.4,1.3-2.2,1.9c-0.8,0.6-1.5,1.3-2.4,1.7c-0.3,0.1-0.6,0.2-0.9,0.2
					c0-0.1,0-0.2,0-0.3c1.7-0.9,3.2-2,4.6-3.3c0.7-0.6,1.4-1,2.1-1.6c0.8-0.6,1.7-1.1,2.6-1.6C89.7,109.5,90.7,109,91.7,108.6z"/>
				<path class="st34" d="M70.7,115.3c0.8-1.3,1.3-2.7,1.8-4c-0.2,2.1-1.2,4-2.3,5.7c-1.7,2.5-3.4,5-4.8,7.7
					c-0.1,0.3-0.3,0.6-0.6,0.7c0.2-0.8,0.7-1.4,1-2.1C67.3,120.6,69.1,118,70.7,115.3z"/>
				<path class="st34" d="M-15.6,113c0.4-0.1,0.9,0.1,1.3,0.2c1.7,0.5,3.6,0.5,5.3,0.4c0.9,0,1.8-0.2,2.7-0.2c0.6,0,1.1-0.2,1.7-0.2
					c0,0.1,0.1,0.2,0.1,0.3c-1.1,0.4-2.3,0.5-3.5,0.6c-1.1,0.1-2.3,0-3.4,0c-1.2-0.1-2.5-0.3-3.6-0.7
					C-15.2,113.3-15.4,113.1-15.6,113z"/>
				<path class="st34" d="M93.1,114c1.1-0.1,2.3-0.2,3.4-0.2c0,0.1-0.1,0.2-0.1,0.2c-0.5,0.2-1.1,0.2-1.6,0.2
					c-2.6,0.3-5.1,0.7-7.6,1.5c-1.8,0.6-3.5,1.6-5.1,2.6c-0.8,0.4-1.6,1-2.6,0.8c0.5-0.3,1-0.4,1.5-0.8c0.9-0.6,1.8-1.2,2.7-1.8
					c1.5-0.8,3-1.5,4.7-1.9C89.9,114.3,91.5,114.2,93.1,114z"/>
				<path class="st39" d="M-13.6,116.1c2.3,0.1,4.6,0,6.9-0.5c-0.2,0.3-0.6,0.4-1,0.5c-1.6,0.3-3.2,0.6-4.8,0.4
					C-12.9,116.4-13.3,116.4-13.6,116.1z"/>
				<path class="st37" d="M-8.9,117.8c1.4-0.2,2.7-0.6,4.1-1.1c-0.1,0.3-0.5,0.4-0.7,0.5c-1.8,0.7-3.6,1.3-5.6,1.2
					c-0.6,0-1.3,0-1.9-0.3C-11.7,118.1-10.3,118.1-8.9,117.8z"/>
				<path class="st34" d="M87.9,119.3c1.5-0.3,3.1-0.4,4.6-0.4c0.7,0,1.4,0.1,2.2,0.3c0,0.1,0,0.2,0,0.2c-1.6-0.3-3.1,0-4.7,0.2
					c-1.8,0.3-3.6,0.8-5.4,1.3c-1.1,0.3-2.2,0.8-3.3,1.2c-0.7,0.3-1.4,0.5-2.2,0.4c0.1-0.3,0.4-0.4,0.7-0.5c0.8-0.2,1.6-0.7,2.4-1
					C84.1,120.2,86,119.7,87.9,119.3z"/>
				<path class="st34" d="M30.6,119.2c0.1,0,0.2,0,0.2,0c0.3,1.3,0.9,2.5,1.3,3.8c0.7,2.1,1.1,4.4,1.5,6.6c0.2,1.3,0.4,2.7,0.4,4
					c0,0.3,0.1,0.7-0.2,0.8c0-1,0-1.9-0.1-2.9c-0.4-2.9-1-5.8-2-8.6C31.2,121.8,30.7,120.5,30.6,119.2z"/>
				<path class="st40" d="M8.3,123.4c-0.1-1-0.2-2,0.1-2.9c0.2,0.8,0.1,1.7,0.2,2.6c0.3,2.1,0.5,4.1,0.8,6.2c-0.3-0.2-0.3-0.6-0.3-1
					C8.8,126.7,8.5,125.1,8.3,123.4z"/>
				<path class="st35" d="M10.8,123.6c0-0.2,0.1-0.5,0.1-0.7c0.1,0.2,0.1,0.4,0.2,0.6c0.1,1.2,0.2,2.5,0.1,3.7
					c-0.1,0.8-0.1,1.7-0.2,2.5c0,0.1-0.1,0.2-0.2,0.3c0-0.7,0.1-1.4,0.1-2.2C10.9,126.4,10.7,125,10.8,123.6z"/>
				<path class="st37" d="M70.8,125.3c0.3-0.3,0.5-0.7,0.9-0.9c-0.1,0.7-0.6,1.2-1,1.7c-0.9,1.1-1.8,2.1-2.8,3
					c-0.5,0.4-0.9,0.8-1.5,1c0.1-0.4,0.5-0.6,0.8-0.8C68.5,128.1,69.7,126.7,70.8,125.3z"/>
				<path class="st37" d="M99.4,126.9c0.3-0.3,0.5-0.6,0.9-0.8c0,0.6-0.5,1-0.9,1.4c-1,0.8-2,1.6-3,2.2c-0.5,0.3-1,0.7-1.7,0.5
					c0.7-0.3,1.4-0.7,2.1-1.2C97.7,128.4,98.6,127.7,99.4,126.9z"/>
				<path class="st34" d="M15.5,130.7c0.7-0.5,1.6-0.7,2.4-0.8c0.4,0.1,0.7,0.5,1.1,0.8c0.5,0.4,0.9,0.9,1.4,1.4
					c0,0.2-0.2,0.2-0.3,0.3c-0.5,0.4-1,0.8-1.5,1.2c-0.1-0.1-0.2-0.2-0.2-0.3c0.5-0.4,1-0.9,1.5-1.3c-0.4-0.3-0.7-0.7-1.1-1
					c-0.3-0.3-0.6-0.7-1-0.9c-0.6,0.3-1.1,0.7-1.6,1.1C16,131.1,15.7,130.9,15.5,130.7z"/>
				<path class="st35" d="M70.4,131.2c0.3-0.2,0.6-0.5,0.9-0.6c-0.2,0.6-0.7,0.9-1.2,1.3c-1.1,0.9-2.2,1.6-3.4,2.4
					c-0.5,0.3-1,0.7-1.6,0.8c0.2-0.3,0.4-0.4,0.7-0.6C67.5,133.5,69,132.4,70.4,131.2z"/>
				<path class="st41" d="M55.2,132.5c0-0.2,0.2-0.2,0.3-0.3c-0.3,1.3-0.4,2.7-0.6,4c-0.4,1.8-1,3.6-1.7,5.3c-0.5,1.2-1,2.4-1.5,3.6
					c-0.2,0.4-0.4,0.8-0.7,1.1c0.1-0.6,0.5-1.2,0.7-1.8c1.3-3.2,2.6-6.4,3.1-9.8C54.9,133.9,55,133.2,55.2,132.5z"/>
				<path class="st34" d="M93.2,134.6c1.5-0.7,3-1.4,4.4-2.3c0,0.1,0,0.2-0.1,0.3c-1.5,1.1-3.3,1.8-5,2.5c-0.6,0.2-1.1,0.5-1.7,0.5
					C91.5,135.3,92.4,135,93.2,134.6z"/>
				<path class="st34" d="M13.1,134.3c0.3-0.2,0.4,0.3,0.2,0.4c-0.6,0.7-1.4,1.3-2,2c-1.2,1.5-2.3,3.1-2.9,5
					c-0.3,1.2-0.8,2.3-1.1,3.4c-0.2,1-0.5,2-0.7,3c-0.3,1.2-0.4,2.4-0.4,3.6c0.7,0.2,1.4,0.3,2,0.6c0.3,0.2,0.7,0.2,1,0.3
					c0.3-2.2,0.7-4.5,1.4-6.7c1.1-3.2,2.4-6.4,4.5-9.1c0.2-0.3,0.4-0.7,0.8-0.6c-0.1,0.5-0.4,0.8-0.7,1.2c-1.1,1.6-2.2,3.3-2.9,5.2
					c-0.7,1.8-1.4,3.5-1.8,5.3c-0.3,1.5-0.6,3-0.9,4.5c0,0.1,0,0.3-0.1,0.5c-0.2,0.1-0.4,0-0.6-0.1c-1.1-0.1-2.2-0.4-3.2-1
					c-0.5,1.2-1,2.4-1.7,3.6c-0.1,0-0.2,0-0.3,0c0.5-0.9,0.8-1.9,1.2-2.8c0.1-0.4,0.3-0.8,0.4-1.3c-0.2-0.7-0.3-1.5-0.4-2.3
					c0.4,0,0.7,0.2,1,0.4c0.1-1.3,0.5-2.6,0.8-3.8c0.2-0.9,0.4-1.8,0.8-2.7c0.7-2,1.6-4,2.9-5.8c0.5-0.8,1.2-1.5,1.8-2.2
					c0.2-0.1,0.4-0.2,0.6-0.3l0,0c0-0.1,0.1-0.2,0.1-0.2C12.9,134.4,13,134.3,13.1,134.3z"/>
				<path class="st42" d="M11,134.5c0.6-0.3,1.4-0.2,2-0.3c-0.1,0-0.2,0.1-0.2,0.1C12.3,134.5,11.7,134.7,11,134.5z"/>
				<path class="st43" d="M12.5,134.5c0.1,0,0.2,0.1,0.3,0.1l0,0c-0.2,0.1-0.4,0.2-0.6,0.3c-0.3,0.1-0.7,0.2-1.1,0.2
					C11.5,134.8,12,134.7,12.5,134.5z"/>
				<path class="st39" d="M63.3,136.3c0.3-0.2,0.7-0.3,1-0.3c0.6,0.6,1.5,0.9,1.9,1.7c-0.8-0.3-1.4-1-2.1-1.3
					c-0.2-0.1-0.4,0-0.6,0.1c-0.5,0.3-1.1,0.5-1.6,0.8c0.2,0.4,0.7,0.8,0.7,1.4c-0.5-0.4-0.7-1-1-1.5
					C62.2,136.9,62.7,136.6,63.3,136.3z"/>
				<path class="st39" d="M63.8,140.9c0.1,0,0.2,0,0.3,0c0.6,0.9,1.4,1.5,1.8,2.5c0.5,0.8,0.8,1.7,1.1,2.6c0.5,1.2,0.8,2.5,1.1,3.7
					c0.2,0.8,0.2,1.5,0.5,2.3c0.4,1.3,0.8,2.5,1.1,3.8c0.6-0.2,1.1-0.5,1.7-0.6c0-0.8,0.1-1.5,0.1-2.3c0.1-2.5-0.1-5.1-1-7.4
					c-0.2-0.6-0.5-1.1-0.7-1.7c-0.2-0.5-0.6-0.9-0.9-1.3c-0.3-0.4-0.7-0.7-0.9-1.1c0.1,0,0.2,0,0.3,0c0.2,0.2,0.4,0.4,0.6,0.6
					c0.7,0.8,1.2,1.7,1.6,2.6c1.1,2.2,1.4,4.7,1.4,7.2c0,1.1-0.1,2.2-0.1,3.3c0,0.3-0.3,0.4-0.5,0.5c-0.5,0.3-1.1,0.6-1.7,0.6
					c-0.2-0.1-0.2-0.4-0.3-0.6c-0.2-1.2-0.6-2.3-0.9-3.4c-0.3-0.9-0.4-1.7-0.6-2.6c-0.3-1.3-0.6-2.6-1.1-3.8s-0.9-2.4-1.8-3.4
					C64.4,141.9,64.1,141.4,63.8,140.9z"/>
				<path class="st44" d="M68.2,141.3c0.6-0.1,1.3-0.2,1.9-0.3c-0.5,0.3-1,0.3-1.6,0.5c0.6,0.2,1.3,0.4,2,0.6
					c-0.1,0-0.2,0.2-0.3,0.1c-0.5,0-0.9-0.2-1.4-0.2C68.6,141.8,68.4,141.5,68.2,141.3z"/>
				<path class="st34" d="M6.5,129.3c-0.6-0.6-1.1-1.2-1.6-1.8c-0.2-0.2-0.1-0.5-0.2-0.8c-0.3-2-1.5-3.6-2.6-5.3
					c-0.7-1.1-1.4-2.1-2.2-3c-0.2-0.3-0.6-0.5-1-0.5c0,0.1,0,0.3,0.1,0.4c0.5,0.4,0.8,0.9,1.2,1.4c0.9,1.3,1.8,2.5,2.6,3.8
					c0.7,1.1,1.2,2.4,1.5,3.8c-0.7,0-1.4,0.4-2.1,0.7c-0.3-1.5-1.1-2.9-2.1-4.1c-0.1,0-0.2,0-0.3,0c1,1.3,1.7,2.7,2.1,4.3
					c-0.3,0.3-0.7,0.5-1,0.7c-0.9,0.7-1.6,1.6-2.3,2.5c-0.9-0.5-1.7-1.2-2.5-1.9c-0.4-0.3-0.7-0.6-1.1-0.9c0.1,0.4,0.5,0.6,0.7,0.8
					c0.8,0.8,1.7,1.6,2.7,2.2c-0.8,1.1-1.3,2.2-1.9,3.4c-0.6-0.7-1.3-1.4-2-2c-0.3-0.2-0.6-0.6-1-0.6c0.2,0.3,0.6,0.5,0.9,0.8
					c0.7,0.7,1.3,1.4,2,2.1v0.1c-0.3,0.9-0.5,1.8-0.7,2.7c-1.5-0.7-2.7-1.8-4.1-2.6c0.2,0.4,0.7,0.6,1,0.9c1,0.7,1.9,1.5,3,2
					c0,0.6-0.1,1.2-0.1,1.7c-1.6-0.6-3.1-1.4-4.6-2.4c0.3,0.6,1,0.9,1.5,1.2c1,0.6,2,1.2,3.1,1.5c0,0.4,0.1,0.8,0.3,1.2
					c-0.6-0.1-1.1-0.3-1.6-0.6c-0.4-0.2-0.7-0.4-1.1-0.4c0.5,0.9,1.5,1.3,2.4,1.5c0.5,0,0.8,0.5,1.1,0.8c0.6,0.6,1.4,1,2.2,1.3
					c0.2,0.1,0.5,0.2,0.7,0.2c0.2-0.1,0.2-0.3,0.2-0.5c-0.3-2.5,0.3-5,1.2-7.2c0.3-0.7,0.7-1.3,1.1-2c1.2-1.9,2.8-3.6,4.7-4.8
					C6.8,129.9,6.7,129.5,6.5,129.3z M-4,138.7c0.7,0.8,1.7,1.5,2.7,2c0,0.3-0.1,0.6-0.1,0.9c-0.9-0.6-1.9-1.2-2.7-1.9
					C-4,139.4-4,139-4,138.7z M-4.1,140c0.7,0.9,1.7,1.5,2.7,2c0,0.3,0,0.6,0,0.9c-1-0.6-2-1.2-2.7-2.1
					C-4.1,140.5-4.1,140.3-4.1,140z M-2.6,142.9c-0.5-0.4-0.9-0.9-1.4-1.1c0-0.2,0-0.4,0-0.6c0.8,0.8,1.7,1.5,2.7,1.9
					c0,0.2,0.1,0.4,0.1,0.7C-1.7,143.5-2.2,143.2-2.6,142.9z M-1.3,140.5c-0.9-0.7-1.8-1.4-2.6-2.2c0-0.3,0.1-0.6,0.2-0.9
					C-3,138.3-2,139-1,139.6C-1.1,139.9-1.2,140.2-1.3,140.5z M-1,139.4c-0.9-0.6-1.7-1.3-2.5-2c-0.4-0.2-0.1-0.7,0-1
					c0.6,0.4,1,0.9,1.6,1.3c0.4,0.3,0.8,0.6,1.1,0.9C-0.8,138.8-0.9,139.1-1,139.4z M-0.7,138.3c-0.9-0.8-1.7-1.6-2.7-2.3
					c0.1-0.3,0.2-0.6,0.3-0.8c0.9,0.8,1.9,1.4,2.7,2.2C-0.4,137.7-0.6,138-0.7,138.3z M-0.3,137.3c-0.8-0.9-1.6-1.7-2.6-2.4
					c0.1-0.2,0.2-0.5,0.4-0.7c0.8,0.8,1.7,1.5,2.6,2.2C0,136.7-0.2,137-0.3,137.3z M0.2,136.1c-0.8-0.8-1.7-1.5-2.5-2.3
					c0.1-0.3,0.3-0.5,0.4-0.8c0.8,0.8,1.7,1.4,2.5,2.2C0.5,135.5,0.3,135.8,0.2,136.1z M0.8,135c-0.8-0.8-1.6-1.5-2.4-2.2
					c0.1-0.3,0.3-0.5,0.4-0.7c0.8,0.7,1.6,1.5,2.4,2.2C1.1,134.5,0.9,134.7,0.8,135z M1.3,134.1c-0.7-0.8-1.5-1.6-2.4-2.3
					c0.2-0.3,0.4-0.5,0.6-0.8c0.7,0.8,1.5,1.5,2.3,2.3C1.7,133.6,1.5,133.8,1.3,134.1z M1.9,133.2c-0.7-0.8-1.3-1.7-2.2-2.4
					c0.2-0.2,0.4-0.5,0.6-0.7c0.7,0.8,1.5,1.5,2.2,2.3C2.4,132.7,2.2,132.9,1.9,133.2z M2.7,132.2c-0.7-0.8-1.3-1.7-2.1-2.4
					c0.3-0.2,0.6-0.5,0.8-0.7c0.7,0.8,1.4,1.4,2,2.3C3.2,131.7,2.9,132,2.7,132.2z M3.6,131.3c-0.5-0.9-1.1-1.7-1.9-2.3
					c0.3-0.2,0.5-0.3,0.8-0.5c0.5,0.8,1.2,1.4,1.8,2.1C4.1,130.9,3.8,131.1,3.6,131.3z M4.5,130.5c-0.5-0.7-1.1-1.5-1.7-2.1
					c0.2-0.2,0.5-0.3,0.8-0.4c0.6,0.6,1.2,1.2,1.7,1.9C5.1,130.1,4.8,130.3,4.5,130.5z M5.6,129.8c-0.5-0.7-1-1.3-1.6-2
					c0.2,0,0.4,0,0.5,0.2c0.5,0.5,1,1.1,1.6,1.6C5.9,129.6,5.7,129.7,5.6,129.8z"/>
				<path class="st34" d="M83.5,143.8c-0.6,0-1.2-0.1-1.8-0.1c-0.2-1.5-0.8-2.9-1.5-4.3c0.8-0.1,1.4-0.6,2-1s1.3-0.7,1.8-1.3
					c-0.4,0.1-0.7,0.4-1,0.6c-0.9,0.6-1.9,1.1-2.9,1.5c-0.5-0.7-1-1.5-1.4-2.2s-1-1.3-1.6-2c0.6-0.5,1.1-1.1,1.5-1.7
					c0.2-0.3,0.5-0.6,0.6-1c-0.7,0.9-1.5,1.7-2.3,2.5c-0.4-0.6-1-1-1.6-1.5c0.1-0.7,0.7-1.1,1.1-1.6c0.5-0.6,0.9-1.3,1.2-2
					c-0.3,0.2-0.6,0.5-0.8,0.8c-0.4,0.5-0.8,0.9-1.1,1.5c-0.2,0.4-0.5,0.8-0.5,1.3c-0.5-0.3-1-0.5-1.6-0.8c-0.1,0-0.1,0.1-0.2,0.2
					c-0.3,0.3-0.6,0.6-0.9,1c-0.7,0.8-1.2,1.7-1.7,2.5c0,0,0.1,0,0.2,0c0.2-0.1,0.2-0.3,0.3-0.4c0.7-1,1.5-2,2.4-2.8
					c0.1,0,0.2,0.1,0.3,0.2c-1,1-2,2-2.6,3.3c-0.3,0-0.6-0.2-0.9-0.1c0,0.1,0,0.2,0,0.3c0.6,0.2,1.2,0.4,1.7,0.9
					c0.8,0.7,1.4,1.5,1.9,2.4c1.5,2.4,2.2,5.3,2.6,8.1c0.1,0.6,0,1.2,0.2,1.7c0.3-0.3,0.4-0.7,0.5-1.2c0.6-0.2,1.3-0.5,1.8-0.9
					c0.6-0.4,1.3-0.8,1.8-1.3c0,0.1,0,0.3,0.1,0.4c0.1,0,0.2,0,0.3,0c0.3-0.8,0.4-1.6,0.3-2.5c0.8,0.1,1.6,0.1,2.4-0.1
					c0.3-0.1,0.7-0.1,0.9-0.3C84.6,143.6,84.1,143.8,83.5,143.8z M71.6,136.3c0.7-1.2,1.7-2.2,2.7-3.2c0.2,0.1,0.4,0.3,0.6,0.4
					c-1.1,0.9-2.2,1.8-2.9,3C71.9,136.4,71.7,136.4,71.6,136.3z M72.1,136.5c0.7-0.9,1.5-1.7,2.4-2.5c0.2-0.2,0.3-0.3,0.6-0.4
					c0.2,0.1,0.4,0.3,0.5,0.5c-1.1,0.8-2.2,1.7-3,2.8C72.5,136.7,72.3,136.6,72.1,136.5z M72.8,136.9c0.4-0.6,1-1,1.6-1.5
					c0.5-0.4,0.9-0.8,1.4-1.2c0.2,0.2,0.4,0.4,0.5,0.6c-1.1,0.8-2.2,1.6-3.1,2.5C73,137.2,72.9,137.1,72.8,136.9z M73.4,137.5
					c1-0.9,2-1.7,3.1-2.5c0.2,0.2,0.4,0.4,0.6,0.6c-1.1,0.7-2.2,1.5-3.2,2.4C73.7,137.8,73.5,137.7,73.4,137.5z M74,138.1
					c1-0.9,2.1-1.6,3.2-2.4c0.2,0.2,0.4,0.4,0.6,0.6c-1.2,0.7-2.3,1.4-3.4,2.3C74.3,138.5,74.1,138.3,74,138.1z M74.5,138.8
					c1.1-0.9,2.3-1.5,3.4-2.3c0.1,0.2,0.3,0.4,0.4,0.5c-1.2,0.7-2.4,1.4-3.5,2.3C74.7,139.1,74.6,139,74.5,138.8z M74.9,139.4
					c1.2-0.7,2.4-1.4,3.6-2.2c0.1,0.2,0.3,0.5,0.4,0.7c-1.3,0.6-2.5,1.2-3.7,2.1C75.1,139.8,75,139.6,74.9,139.4z M75.3,140.2
					c1.2-0.7,2.5-1.3,3.7-2.1c0.2,0.3,0.3,0.5,0.5,0.8c-1.3,0.6-2.6,1.3-3.9,2.1C75.6,140.7,75.4,140.5,75.3,140.2z M75.8,141.1
					c0.7-0.4,1.4-0.8,2.2-1.1c0.6-0.3,1.2-0.5,1.7-0.9c0.1,0.2,0.2,0.3,0.3,0.5c-1.3,0.7-2.7,1.4-4,2.1
					C75.9,141.5,75.8,141.3,75.8,141.1z M76,141.8c1.3-0.7,2.8-1.3,4.1-2c0.1,0.2,0.2,0.4,0.2,0.5c-1.4,0.7-2.7,1.5-4.1,2
					C76.1,142.1,76.1,142,76,141.8z M76.2,142.4c0.8-0.2,1.5-0.5,2.3-0.9c0.7-0.3,1.4-0.6,2-1.1c0.1,0.2,0.2,0.5,0.2,0.7
					c-0.6,0.2-1,0.5-1.6,0.8c-0.9,0.4-1.7,0.9-2.6,1.3C76.4,143,76.3,142.7,76.2,142.4z M76.6,143.4c0.8-0.3,1.5-0.7,2.3-1
					c0.7-0.3,1.4-0.6,1.9-1.1c0.1,0.2,0.2,0.5,0.2,0.7c-1.4,0.7-2.8,1.3-4.3,1.9C76.7,143.7,76.6,143.6,76.6,143.4z M76.7,144
					c1.4-0.6,2.9-1,4.3-1.8c0,0.2,0.1,0.4,0.1,0.6c-1.3,0.8-2.8,1.2-4.2,2c0.5,0,1-0.2,1.5-0.4c0.9-0.4,1.9-0.7,2.8-1.2
					c0,0.2,0.1,0.3,0.1,0.5c-1.4,0.7-2.7,1.3-4.2,1.7C77,144.9,76.9,144.5,76.7,144z M77.2,145.5c1.4-0.4,2.9-0.7,4.2-1.5
					c0,0.2,0,0.4,0,0.6c-1.4,0.5-2.7,1.4-4.1,1.8C77.2,146.1,77.2,145.8,77.2,145.5z M81.3,145.8c-1.3,0.8-2.5,1.8-3.8,2.4
					c0-0.3,0-0.5,0-0.7c1.4-0.5,2.8-1.1,4-2C81.4,145.6,81.3,145.7,81.3,145.8z M80.7,145.6c-1,0.7-2.2,1.2-3.3,1.7
					c0-0.3-0.1-0.5-0.1-0.8c1.4-0.4,2.9-0.9,4.1-1.7C81.4,145.2,81,145.4,80.7,145.6z"/>
				<path class="st37" d="M31.1,146.1c0.2,0.5,0.3,1,0.4,1.5c0.7,2.3,0.7,4.7,1,7.1c0.1,1.6,0.3,3.3,0.5,4.9c-0.1,0-0.2-0.1-0.2-0.1
					c-0.2-0.9-0.3-1.8-0.4-2.7c-0.4-3-0.6-6-1.1-8.9C31.1,147.3,30.9,146.7,31.1,146.1z"/>
				<path class="st34" d="M38.6,148.8c-0.1-0.6,0.1-1.2,0.1-1.8C38.7,147.6,38.8,148.2,38.6,148.8z"/>
				<path class="st37" d="M3.2,147.9c0.1,0.1,0.2,0.2,0.3,0.2c-0.2,1.1-0.6,2.1-1,3.1c-0.4,0.9-0.8,1.8-1.3,2.7
					c-0.1,0.2-0.2,0.4-0.5,0.4C1.9,152.3,2.8,150.1,3.2,147.9z"/>
				<path class="st45" d="M20.1,162.6c0,0,0.1,0,0.2,0v0.1c-0.6,1.7-1,3.5-1.3,5.3c-0.1,0-0.2-0.1-0.3-0.1h0.2
					C18.9,166,19.5,164.3,20.1,162.6z"/>
				<path class="st46" d="M24.7,164.7L24.7,164.7L24.7,164.7c-0.3,1.8-1,3.4-1.2,5.2c-0.1-0.1-0.2-0.1-0.3-0.2l0,0h0.1h0.1
					c0.1-0.7,0.2-1.5,0.4-2.2C24,166.6,24.2,165.6,24.7,164.7z"/>
				<path class="st47" d="M67.4,166.6c0.1-0.5,0.2-1,0.3-1.4c0.1,0.2,0.2,0.3,0.2,0.5c-0.1,0.3-0.1,0.6-0.2,0.9
					C67.7,166.6,67.6,166.6,67.4,166.6z"/>
				<path class="st7" d="M7.3,165.9c0.1-0.2,0.5-0.3,0.6,0c0.1,0.2,0,0.4-0.1,0.6c-1.1,1.5-2.3,2.7-3.5,4c-1.5,1.5-3,2.9-4.7,4.2
					c-1.4,1.1-3,2-4.6,2.8c-0.5,0.2-0.9,0.5-1.5,0.5c0-0.1,0-0.3,0.1-0.4c0.5-0.4,1-0.6,1.5-0.9c0.8-0.5,1.7-0.9,2.5-1.5
					c1.8-1.2,3.4-2.5,5-3.9c1.3-1.2,2.4-2.5,3.6-3.8C6.6,167,6.9,166.4,7.3,165.9z"/>
				<path class="st48" d="M54.2,166.2c0.1-0.1,0.3-0.1,0.4-0.1c0.1,2,0.1,4-0.3,6c-0.1,0-0.2,0.1-0.3,0.1c0.3-2,0.4-4,0.4-6h-0.1
					H54.2z"/>
				<path class="st7" d="M9,167.1c0.1-0.3,0.2-0.9,0.7-0.8c0.1,0.5-0.1,1-0.3,1.6c-1.1,4.1-1.9,8.3-2.6,12.5
					c-0.1,0.4-0.1,0.9-0.4,1.3c0-0.1-0.1-0.2-0.2-0.2c0.4-2.5,0.7-4.9,1.1-7.4C7.8,171.8,8.2,169.4,9,167.1z"/>
				<path class="st49" d="M28.6,167c0-0.1,0-0.3,0.2-0.3h0.1c-0.3,1.6-0.7,3.2-1.2,4.8h-0.1c-0.1-0.2,0-0.3,0-0.5
					C27.9,169.7,28.3,168.3,28.6,167z"/>
				<path class="st7" d="M11.6,167.3c0-0.1,0.1-0.2,0.2-0.3c0.3,0.1,0.2,0.5,0.3,0.7c-0.1,3-0.2,6.1-0.2,9.1c0,0.3,0.1,0.8-0.2,1
					c-0.1-0.2-0.2-0.4-0.2-0.6c-0.1-1.9-0.1-3.7-0.1-5.6C11.4,170.2,11.4,168.8,11.6,167.3z"/>
				<path class="st32" d="M69.3,159.4c-0.8,0.3-1.7,0.6-2.5,0.9c1-1.5,1.8-3.2,2.1-4.9c0.1-0.3,0.1-0.6,0-0.9
					c-0.2,0.4-0.3,0.9-0.4,1.4c-0.3,1.2-0.8,2.2-1.4,3.3c-0.3,0.5-0.6,1.1-1.1,1.6c-1.9,0.9-3.8,1.6-5.7,2.4
					c1.4-1.6,2.3-3.6,2.8-5.7c0.1-0.2-0.2-0.1-0.3-0.2c-0.2,0.6-0.4,1.3-0.7,1.9c-0.6,1.5-1.5,2.8-2.4,4.1c-0.2,0.3-0.5,0.4-0.8,0.5
					c-2.1,1-4.3,1.9-6.5,2.8c0.9-0.8,1.3-1.9,1.7-3c0.9-2.4,1.4-4.8,1.8-7.3c-0.1,0-0.2,0-0.3,0c-0.3,1.1-0.5,2.2-0.8,3.3
					c-0.5,1.9-1.1,3.8-2,5.6c-0.3,0.6-0.7,1.1-1.1,1.7c-2,0.9-4.1,1.8-6.3,2.3c-1.2,0.2-2.5,0.1-3.7,0c-0.8,0-1.7,0-2.5-0.1
					c0.2-0.3,0.3-0.7,0.4-1c0.6-1.8,1.1-3.5,1.4-5.4c0.3-1.7,0.6-3.5,0.8-5.3c0.3-2.3,0.6-4.6,0.8-6.9c0.5-5.9,1.1-11.8,1.1-17.7
					c0-2.9-0.1-5.9-0.2-8.8c-0.2-3-0.2-5.9-0.4-8.9c-0.1-3.1-0.3-6.2-0.3-9.3c0-0.7-0.1-1.4,0.1-2.1c0-0.4,0.2-0.7,0.1-1.1
					c-0.1-0.5,0-1.1,0-1.6c0-3.1,0.2-6.2,0-9.3c0.1-1.5,0.3-2.9,0.6-4.4c0.2-1.3,0.5-2.6,0.8-3.8c0.3-1.3,0.5-2.6,0.8-3.8
					c0.4-1.5,0.6-3.1,1.1-4.6c0.7-2.6,1.6-5.1,2.6-7.5c0.1,0,0.2,0.1,0.3,0.1c2.1-0.9,4.1-2.1,5.8-3.6c1.2-1.1,2.4-2.3,3.3-3.7
					c1.4-2.1,2.3-4.4,2.4-6.9c0-0.5-0.1-1-0.1-1.5c-0.1,0-0.3,0.1-0.4,0.1c-0.7-0.8-1.4-1.5-2.4-2C57.5,50,57.2,50,57.1,50
					c1,0.7,2.1,1.4,3,2.3c0,0.2,0,0.5,0,0.7c-0.2-0.1-0.4-0.3-0.6-0.5c-0.7-0.6-1.4-1.2-2.2-1.6c0.1,0.2,0.2,0.4,0.5,0.6
					c0.8,0.5,1.6,1,2.4,1.6c0,0.3,0,0.5-0.1,0.8c-1-0.7-1.8-1.8-3-2.1c0.1,0.2,0.4,0.4,0.6,0.5c0.8,0.5,1.6,1.1,2.4,1.7
					c0,0.2-0.1,0.4-0.1,0.7c-0.8-0.9-1.8-1.7-2.9-2.1c0,0.1,0,0.2,0,0.3c1,0.6,2,1.2,2.9,2c0,0.2-0.1,0.4-0.1,0.6
					c-0.9-0.8-1.8-1.6-2.9-2.2c0,0.1,0,0.2,0,0.2c1,0.6,1.9,1.4,2.8,2.2c-0.1,0.2-0.1,0.5-0.2,0.7c-0.5-0.6-1-1.3-1.7-1.7
					c-0.4-0.3-0.7-0.6-1.2-0.7c0.9,0.9,2,1.5,2.8,2.5c-0.1,0.2-0.2,0.3-0.3,0.5c-0.8-1-1.8-1.9-2.9-2.5c0.5,0.4,1,0.7,1.4,1.2
					c0.5,0.5,1,1,1.5,1.4c-0.1,0.2-0.1,0.3-0.2,0.5c-0.8-1.1-1.8-2-2.9-2.6c0,0.4,0.3,0.6,0.6,0.8c0.8,0.7,1.6,1.3,2.3,2
					c0,0.2-0.1,0.3-0.1,0.5c-1-0.9-1.8-2.1-3-2.7c0,0.3,0.3,0.5,0.5,0.7c0.8,0.7,1.6,1.4,2.4,2.1c-0.1,0.2-0.2,0.4-0.3,0.6
					c-0.5-0.8-1.1-1.5-1.8-2.1c-0.3-0.3-0.7-0.6-1.1-0.8c0.1,0.3,0.4,0.5,0.6,0.7c0.8,0.7,1.5,1.6,2.3,2.3c-0.1,0.2-0.2,0.3-0.4,0.5
					c-0.8-1-1.5-2.3-2.7-2.9c0.1,0.4,0.5,0.6,0.7,0.9c0.7,0.7,1.3,1.4,2,2.1c-0.1,0.1-0.2,0.3-0.3,0.4c-0.6-0.9-1.2-1.7-2-2.3
					c-0.3-0.2-0.5-0.5-0.9-0.5c0.4,0.4,0.8,0.8,1.2,1.2c0.6,0.6,1.1,1.2,1.7,1.8c-0.1,0.2-0.2,0.3-0.3,0.5c-0.7-1.2-1.6-2.3-2.6-3.1
					c0,0-0.1,0.1-0.2,0.1c0.9,1,1.8,2,2.7,3.1c0,0.2-0.2,0.3-0.3,0.5c-0.5-0.7-1-1.4-1.6-2.1c-0.3-0.4-0.7-0.8-1.1-1.2
					c0,0.4,0.3,0.6,0.5,0.9c0.7,0.8,1.4,1.6,2.1,2.4c-0.1,0.1-0.3,0.3-0.4,0.4c-0.5-0.9-1.1-1.7-1.8-2.5c-0.2-0.3-0.5-0.6-0.8-0.8
					c0.1,0.4,0.4,0.7,0.7,1c0.6,0.8,1.3,1.5,1.9,2.3c-0.1,0.1-0.2,0.2-0.3,0.3c-0.3-0.4-0.6-0.9-0.9-1.3c-0.5-0.7-1-1.4-1.7-1.9
					c0.1,0.2,0.2,0.4,0.4,0.6c0.6,0.7,1.2,1.6,1.7,2.3c0.1,0.1,0.2,0.3,0.3,0.4c-0.1,0.1-0.2,0.2-0.3,0.4c-0.4-0.8-1-1.6-1.5-2.3
					c-0.3-0.3-0.5-0.7-0.9-0.9c0.4,0.8,1,1.4,1.5,2.1c0.3,0.4,0.6,0.8,0.8,1.2c-0.1,0.1-0.2,0.3-0.3,0.4c-0.6-1.1-1.2-2.1-2-3
					c-0.1-0.1-0.2-0.2-0.3-0.3c0.1,0.5,0.5,0.8,0.8,1.2c0.5,0.7,1,1.4,1.5,2.2c-0.1,0.1-0.3,0.2-0.4,0.3c-0.4-0.8-0.8-1.5-1.3-2.2
					c-0.3-0.4-0.5-0.8-0.9-1c0.2,0.3,0.4,0.6,0.6,0.9c0.6,0.8,1.1,1.6,1.6,2.4c-0.3,0.2-0.5,0.5-0.8,0.7c-0.3-0.5-0.5-1.1-0.7-1.6
					c-0.3-0.6-0.6-1.3-1.1-1.8c0,0.2,0.1,0.4,0.2,0.6c0.6,0.9,1.1,1.9,1.5,2.9c-0.1,0.1-0.2,0.2-0.3,0.2c-0.4-1.1-0.8-2.2-1.5-3.2
					c-0.1,0-0.2,0-0.2,0c0.5,1.1,1.2,2.2,1.7,3.3c-0.2,0.1-0.4,0.3-0.6,0.4c-0.2,0.2-0.4,0.3-0.6,0.5c-0.1-1.1-0.2-2.3-0.5-3.4
					c0.4,0.9,0.8,1.8,1.1,2.8c0.1-0.1,0.1-0.1,0.2-0.2c-0.2-0.6-0.4-1.2-0.6-1.8c-0.2-0.4-0.3-0.9-0.7-1.2c0,0.1,0,0.2,0,0.4
					c-0.1,0-0.2,0-0.3,0c-0.1,0.1-0.1,0.3-0.1,0.5c0.1,1.2,0.1,2.4,0.2,3.5c-0.2,0.1-0.4,0.2-0.6,0.3c0.2-1,0.3-2.1,0.4-3.1
					c0-0.3,0-0.6-0.2-0.9c0,0.1-0.1,0.2-0.2,0.3c-0.1,0.6,0,1.2-0.1,1.9c0,0.7-0.2,1.3-0.2,2c-0.3,0.2-0.6,0.3-1,0.5
					c0.3-0.7,0.6-1.4,0.8-2.1c0.2-0.6,0.4-1.3,0.4-2c-0.3-0.1-0.6-0.2-1-0.2c-0.2,0-0.2,0.2-0.2,0.4c0.1,0.1,0.2,0.2,0.3,0.4
					c-0.2,0-0.5-0.1-0.7,0c-0.1,0.3,0.2,0.4,0.4,0.5c0,0.1,0,0.2-0.1,0.2c-0.2,0-0.3-0.1-0.5-0.1s-0.2,0.2-0.3,0.3
					c0.2,0.1,0.4,0.3,0.6,0.3c0,0.1-0.1,0.2-0.1,0.3c-0.2-0.1-0.7-0.4-0.8,0s0.6,0.2,0.5,0.6c-0.2-0.1-0.8-0.4-0.8,0
					c-0.1,0.3,0.3,0.4,0.5,0.5c-0.1,0.1-0.1,0.3-0.2,0.4c-0.2-0.1-0.3-0.2-0.5-0.2S48,66.7,48,66.9c0.1,0.2,0.4,0.2,0.5,0.3
					c0,0.1-0.1,0.2-0.1,0.4c-0.2-0.1-0.6-0.3-0.6,0.1c-0.1,0.3,0.2,0.4,0.4,0.5c0,0.1-0.1,0.2-0.1,0.3c-0.2-0.1-0.6-0.2-0.7,0.1
					c-0.1,0.3,0.3,0.5,0.5,0.6c-0.2,0.1-0.6-0.1-0.7,0.2c-0.1,0.3,0.2,0.3,0.4,0.5c0,0.1,0,0.2-0.1,0.2c-0.2,0-0.5-0.1-0.6,0.1
					c0,0.3,0.3,0.4,0.4,0.6c-0.2,0-0.4,0-0.6,0.1c-0.2,0.3,0.1,0.5,0.4,0.7c-0.1,0.3-0.5,0.2-0.7,0.3c0,0.3,0.1,0.5,0.4,0.5
					c0,0.1-0.1,0.2-0.1,0.3c-0.2,0-0.6-0.2-0.6,0.1c-0.1,0.3,0.3,0.3,0.5,0.4c-0.1,0.3-0.6,0.1-0.7,0.4c0,0.2,0.2,0.3,0.4,0.4
					c0,0.1,0,0.2,0,0.2c-0.2,0-0.4-0.1-0.5,0.2c-0.1,0.3,0.2,0.3,0.4,0.4c0,0.1-0.1,0.2-0.1,0.3c-0.2,0-0.5-0.1-0.6,0.2
					c-0.1,0.3,0.2,0.3,0.4,0.4c0,0.1,0,0.2-0.1,0.3c-0.2,0-0.5,0-0.5,0.2c-0.1,0.3,0.3,0.3,0.4,0.5c-0.2,0.2-0.6,0.1-0.6,0.4
					c-0.1,0.3,0.4,0.4,0.4,0.7c-0.2,0-0.4,0-0.5,0.2c-0.2,0.3,0.2,0.5,0.3,0.8c-0.2,0-0.4,0-0.5,0.1c-0.2,0.3,0.2,0.5,0.3,0.8
					c-0.2,0-0.7,0-0.7,0.3c-0.1,0.3,0.3,0.4,0.5,0.5c0,0.1,0,0.2-0.1,0.3c-0.2,0-0.6,0-0.5,0.3c0,0.3,0.3,0.3,0.5,0.4
					c-0.2,0.1-0.7,0-0.7,0.4c0,0.2,0.3,0.3,0.4,0.4c0,0,0,0.1,0,0.2c-0.2,0-0.4-0.1-0.6,0c-0.1,0.2-0.2,0.4-0.2,0.6
					c0.1,0.2,0.3,0.2,0.5,0.3c0,0.1,0,0.2-0.1,0.3c-0.2,0-0.5-0.1-0.6,0.2c-0.2,0.3,0.2,0.5,0.5,0.6c-0.3,0-0.6,0-0.6,0.4
					c0.1,0.2,0.3,0.4,0.4,0.6c-0.2,0-0.7-0.1-0.7,0.3c-0.1,0.3,0.2,0.4,0.4,0.5c0,0.1,0,0.2,0,0.3c-0.2,0-0.5,0-0.6,0.2
					c-0.1,0.4,0.3,0.5,0.5,0.6c-0.1,0-0.3,0-0.4,0c-0.1,0.1-0.2,0.1-0.3,0.2c-0.1,0-0.3,0-0.4-0.1c0-0.1,0-0.2,0-0.3
					c0.1-0.1,0.3-0.1,0.4-0.2c0-0.3-0.3-0.4-0.5-0.4c0-0.1,0-0.3,0-0.4c0.2-0.1,0.6-0.2,0.5-0.5c-0.1-0.2-0.4-0.2-0.6-0.3
					c0.1-0.2,0.3-0.3,0.5-0.5c0.1-0.3-0.3-0.3-0.4-0.4c0-0.1,0-0.2,0-0.3c0.1-0.1,0.3-0.1,0.4-0.2c0.1-0.3-0.3-0.4-0.5-0.5
					c0-0.1,0-0.2,0-0.3c0.2,0,0.3-0.1,0.5-0.1c0-0.5-0.5-0.4-0.6-0.8c0.2-0.1,0.4-0.1,0.6-0.2c-0.1-0.1,0-0.3-0.2-0.4
					s-0.4-0.1-0.5-0.2c0.1-0.1,0.3-0.3,0.4-0.4c-0.2-0.2-0.5-0.3-0.6-0.6c0.2-0.1,0.7-0.2,0.5-0.5c-0.2-0.1-0.6-0.1-0.6-0.4
					c0.3-0.1,0.6-0.2,0.7-0.6c-0.2,0-0.5-0.1-0.7-0.1c0-0.1,0-0.2,0-0.3c0.2-0.1,0.6-0.1,0.5-0.5c-0.1-0.2-0.5-0.2-0.7-0.3
					c0.2-0.2,0.5-0.2,0.6-0.4c0-0.4-0.4-0.4-0.7-0.5c0.3-0.1,0.8-0.1,0.7-0.6c-0.3,0-0.6-0.1-0.8-0.2c0.3-0.1,1-0.2,0.8-0.7
					c-0.3-0.1-0.6-0.2-0.9-0.3c0.2-0.1,0.5-0.1,0.7-0.2c0-0.4-0.4-0.4-0.7-0.5c0-0.1,0-0.2-0.1-0.3c0.2-0.1,0.7-0.2,0.6-0.5
					c-0.1-0.3-0.5-0.2-0.8-0.3c0.2-0.1,0.5-0.1,0.7-0.3c0-0.4-0.4-0.3-0.7-0.4c0-0.2,0-0.4-0.1-0.6c0.2-0.1,0.6,0,0.6-0.4
					c0-0.3-0.5-0.4-0.7-0.5c0.1-0.2,0.4-0.3,0.6-0.4c0.1-0.4-0.3-0.5-0.6-0.5c0-0.1,0-0.3-0.1-0.4c0.3-0.1,0.8-0.1,0.6-0.5
					C41,69,40.6,69,40.4,69c0,0,0-0.1,0-0.2c0.2,0,0.4,0,0.6-0.1c0-0.1,0-0.3-0.1-0.4c-0.6-0.3-0.9-0.3-1-0.5
					c0.2-0.1,0.6-0.2,0.5-0.5c-0.1-0.2-0.6-0.1-0.6-0.5c0.2-0.1,0.4-0.1,0.6-0.3c0-0.4-0.4-0.4-0.7-0.6c0.2-0.1,0.4-0.3,0.5-0.5
					c0.1-0.3-0.3-0.5-0.6-0.6c0.2-0.1,0.4-0.2,0.4-0.4c0-0.3-0.3-0.3-0.5-0.4c0.3-0.1,0.6-0.4,0.3-0.6c-0.3-0.2-0.6-0.2-0.8-0.5
					c-0.5,0.7-0.5,1.6-0.5,2.4c-0.3-0.3-0.1-0.7-0.1-1c0.1-0.6,0.4-1.2,0.4-1.8c-0.6,0.7-0.7,1.7-0.7,2.5c-0.2-0.1-0.4-0.3-0.6-0.4
					c0.2-0.9,0.7-1.8,1-2.7c-0.1,0-0.3,0-0.4,0.2c-0.5,0.7-0.7,1.5-0.9,2.3c-0.2-0.2-0.5-0.4-0.7-0.6c0.4-0.9,1.1-1.7,1.5-2.6
					c-0.5,0.3-0.7,0.7-0.9,1.2c-0.3,0.4-0.4,0.9-0.7,1.3c-0.3-0.1-0.4-0.3-0.6-0.5c0.5-0.8,1.3-1.6,1.9-2.3c0-0.1-0.1-0.2-0.1-0.2
					c-0.8,0.6-1.4,1.5-1.9,2.4c-0.2-0.2-0.4-0.3-0.5-0.5c0.7-0.8,1.5-1.5,2.1-2.3c-0.1-0.1-0.3-0.1-0.4,0.1
					c-0.7,0.6-1.3,1.4-1.9,2.2c-0.1-0.1-0.3-0.3-0.4-0.4c0.7-0.7,1.5-1.3,2.2-2.1c0.2-0.1-0.1-0.4-0.2-0.2c-0.8,0.6-1.4,1.4-2.1,2.2
					c-0.2-0.2-0.3-0.4-0.5-0.6c-0.2-0.2-0.3-0.3-0.5-0.5c0.5-0.6,1.2-1.2,1.8-1.8c-0.1,0-0.3,0-0.4,0c-0.6,0.5-1.1,1-1.5,1.6
					c-0.1-0.1-0.2-0.3-0.3-0.4c0.5-0.5,1-0.9,1.5-1.4c-0.1,0-0.3-0.1-0.4,0c-0.5,0.3-0.8,0.8-1.2,1.3c-0.1-0.2-0.2-0.3-0.3-0.5
					c0.3-0.3,0.7-0.6,1-1c-0.1,0-0.2-0.1-0.3-0.1c-0.3,0.3-0.5,0.6-0.8,0.8c-0.2,0-0.3-0.2-0.2-0.4c0.2-0.2,0.4-0.4,0.5-0.7
					c-0.4-0.1-0.5,0.3-0.7,0.5c-0.1-0.1-0.1-0.3-0.2-0.4c0.1-0.1,0.3-0.3,0.3-0.4c-0.2,0-0.3,0.1-0.5,0.2c-0.2-0.3-0.4-0.7-0.8-0.9
					c0,0.2,0,0.4,0.1,0.6c0.5,1,1,2,1.7,2.9c1.1,1.3,2.2,2.6,3.6,3.6c0.8,0.6,1.6,1.1,2.5,1.6c0.2,1.2,0.2,2.4,0.4,3.5
					c0.2,1.2,0.2,2.5,0.4,3.7c0.4,2.9,0.9,5.7,1.2,8.5c0.2,1.9,0.2,3.7,0.5,5.6c0.1,0.9,0.3,1.8,0.5,2.6c0.1,0.5,0.3,1.1,0.2,1.6
					c-0.1,1,0.1,2,0.1,3c-0.1,1.2-0.1,2.3,0,3.5c0.1,0.8-0.1,1.6-0.1,2.4c-0.2,3.7,0,7.3,0.1,11c0.1,3.1,0.2,6.3,0.3,9.4
					c0.3,5.6,0.5,11.2,0.2,16.8c-0.1,2.5-0.3,5-0.5,7.6c-0.2,3.1-0.4,6.2-0.8,9.2c-0.3,2.5-0.6,5.1-1.1,7.6
					c-0.3,2.1-0.9,4.2-1.7,6.2c-0.2-0.1-0.3-0.3-0.5-0.4c0,0.2,0,0.4,0,0.6c-0.6,0-1.2-0.1-1.8-0.2c-1.7-0.4-3.3-0.8-4.9-1.4
					c-1.2-0.5-2.4-1.1-3.6-1.6c-2.1-0.9-4.2-1.8-6.3-2.8c-0.7-0.4-1.5-0.7-2.3-1c0.4-0.6,0.6-1.2,0.8-1.8c0.4-1.1,0.7-2.3,1-3.4
					c0.1-0.4,0.3-0.9,0.3-1.3c-0.2,0-0.4,0.1-0.4,0.3c-0.7,2-1.4,4.1-2.1,6.1c-1.8-0.8-3.6-1.3-5.4-2c-0.1-0.9-0.2-1.7-0.3-2.6
					c-0.1-1.1-0.1-2.2-0.2-3.3c0-0.2-0.2-0.4-0.4-0.2c-0.1,0.6,0,1.3,0,1.9c0,1.3,0,2.7,0.3,4c-1.7-0.5-3.4-1.2-5.2-1.6
					c-1.3-0.4-2.5-0.7-3.8-1.1c-0.9-0.3-1.8-0.6-2.6-0.9c-1.2-0.4-2.4-0.6-3.7-0.8c-0.1-0.5-0.4-0.9-0.6-1.3
					c-0.8-1.8-1.1-3.8-1.3-5.8c-0.1,0-0.2,0-0.3,0c0.1,1.2,0.1,2.5,0.4,3.7c0.3,1.1,0.5,2.3,1.3,3.2c-1.2-0.2-2.3-0.3-3.5-0.1
					c0,0.1,0,0.2,0,0.3c0.2,0,0.5,0.1,0.7,0.1c-0.4,1.8-0.4,3.7-0.3,5.6c0.1-0.4,0.1-0.9,0.1-1.3c0-1.4,0.2-2.9,0.5-4.3
					c0.3,0,0.6,0,0.8,0c-0.3,1.3-0.5,2.6-0.5,3.9c0,0.7,0.1,1.3,0.1,2c-0.6-0.1-1.1-0.3-1.6-0.5c-0.2,0.2-0.2,0.5,0.1,0.6
					c0.7,0.4,1.6,0.4,2.4,0.7c0,0.1,0.1,0.2,0.1,0.3c0-0.1,0-0.2,0.1-0.3c1.4,0.3,2.8,0.4,4.1,0.7c1.1,0.2,2.1,0.6,3.1,0.8
					c1.1,0.3,2.2,0.6,3.4,0.9c0.5,0.1,1,0.2,1.4,0.4c0.7,0.1,1.3,0.4,1.9,0.6c0.5,0.2,1,0.3,1.4,0.5c0.6,0.1,1.2,0.4,1.8,0.6
					c1.2,0.5,2.5,0.9,3.7,1.4c3.8,1.5,7.4,3.4,11.3,4.6c1.1,0.4,2.2,0.8,3.3,1.1s2.3,0.7,3.5,0.9c1.1,0.2,2.1,0.5,3.2,0.5
					c0.6,0,1.2,0.3,1.8,0.3c1.2,0.2,2.3,0,3.5,0c1.4-0.1,2.7-0.4,4.1-0.6c1.4-0.3,2.7-0.6,4.1-1.1c2-0.6,3.8-1.3,5.7-2.1
					c2.2-0.8,4.3-2,6.5-2.8c1-0.4,2-0.7,3-1.2c0.6-0.3,1.3-0.4,1.9-0.9c0.2-0.2-0.1-0.5,0-0.7c0.2-1.2,0.3-2.5,0.4-3.8
					c0.1-0.7,0-1.5,0-2.3c0.4-0.1,0.8-0.2,1.2-0.4c0-0.1,0-0.2,0-0.4C70.1,159.1,69.7,159.3,69.3,159.4z M51.6,62.6
					c0.3,1,0.4,2,0.5,3c-0.2,0.1-0.4,0.2-0.5,0.4C51.7,64.9,51.7,63.8,51.6,62.6z M50.4,63.9c-0.1,0.5-0.2,1-0.4,1.5
					c-0.2,0.6-0.5,1.1-0.6,1.8c-0.2,0.1-0.4,0.1-0.5,0.2C49.4,66.2,50,65.1,50.4,63.9z M38.6,65.4c0.1-0.4,0.1-0.8,0.2-1.2
					c0.1,0.5,0.2,1,0.3,1.5C38.9,65.6,38.7,65.5,38.6,65.4z M-4,161.2c-0.2,0-0.5-0.1-0.7-0.1c0-1.4-0.1-2.7,0.1-4.1
					c0.1-0.6,0.2-1.2,0.2-1.8c0.4,0,0.8,0,1.2,0.1C-3.8,157.2-4,159.2-4,161.2z M-3.8,161.3c0.1-2,0.4-4,0.8-6
					c0.4,0.1,0.9,0.1,1.3,0.2c-0.6,2-1,4-0.9,6.1C-3,161.5-3.4,161.4-3.8,161.3z M-2.4,161.6c0-1.6,0.2-3.3,0.6-4.8
					c0.1-0.4,0.1-0.8,0.3-1.2c0.4,0.1,0.8,0.2,1.2,0.2c-0.6,2-0.9,4-1,6C-1.7,161.7-2.1,161.7-2.4,161.6z M-1.2,161.8
					c0.2-1.4,0.3-2.9,0.6-4.3c0.1-0.6,0.3-1.1,0.3-1.7c0.4,0.1,0.9,0.2,1.3,0.3C0.4,158,0.1,160,0,162
					C-0.4,161.9-0.8,161.9-1.2,161.8z M0.1,162c0-0.5,0.1-1.1,0.2-1.6c0.2-1.4,0.5-2.8,0.8-4.2c0.3,0.1,0.7,0.2,1,0.3
					c-0.1,0.3-0.1,0.7-0.2,1c-0.3,1.5-0.6,3.1-0.9,4.6C0.7,162.1,0.4,162.1,0.1,162z M1.2,162.2c0.4-1.9,0.8-3.8,1-5.7
					c0.3,0.1,0.7,0.2,1,0.4c-0.3,1.9-0.8,3.7-1.1,5.6C1.8,162.4,1.5,162.3,1.2,162.2z M2.3,162.5c0.4-1.9,0.7-3.7,1-5.6
					c0.4,0.1,0.8,0.3,1.3,0.4c-0.5,1.8-1,3.7-0.8,5.6C3.2,162.8,2.7,162.7,2.3,162.5z M3.9,163c0-1.4,0.2-2.8,0.5-4.2
					c0.1-0.5,0.3-0.9,0.3-1.4c0.3,0.1,0.6,0.1,0.8,0.2c-0.5,1.8-0.7,3.7-0.8,5.6C4.4,163.1,4.1,163,3.9,163z M4.8,163.2
					c0.2-1.9,0.4-3.7,0.7-5.6c0.4,0.1,0.9,0.2,1.3,0.3c-0.6,1.8-0.9,3.6-1,5.5C5.5,163.3,5.2,163.3,4.8,163.2z M5.9,163.4
					c0-0.8,0.2-1.7,0.3-2.5c0.2-1,0.4-2,0.6-3c0.4,0.1,0.8,0.2,1.3,0.4c-0.7,1.7-1,3.6-1,5.5C6.7,163.7,6.3,163.5,5.9,163.4z
					 M8.2,164c-0.3-0.1-0.7-0.2-1-0.2c0.1-1.1,0.2-2.2,0.4-3.3c0.1-0.7,0.4-1.5,0.5-2.2c0.5,0.1,0.9,0.3,1.3,0.4
					C8.9,160.4,8.3,162.2,8.2,164z M8.4,164.1c0.2-1.8,0.7-3.6,1.2-5.4c0.4,0.1,0.7,0.2,1.1,0.4c-0.7,1.7-1.1,3.5-1.3,5.3
					C9,164.3,8.7,164.2,8.4,164.1z M9.5,164.4c0.4-1.8,0.7-3.6,1.3-5.3c0.3,0.1,0.6,0.2,1,0.3c-0.5,1-0.7,2.1-0.9,3.1
					c-0.2,0.7-0.2,1.5-0.3,2.2C10.2,164.7,9.8,164.6,9.5,164.4z M11.6,165.1c-0.3-0.1-0.6-0.2-0.9-0.3c0.3-1.8,0.6-3.6,1.1-5.4
					c0.3,0.1,0.6,0.2,0.9,0.3C12,161.5,11.7,163.3,11.6,165.1z M11.7,165.2c0.2-1.2,0.3-2.3,0.6-3.5c0.1-0.6,0.4-1.2,0.5-1.9
					c0.4,0.1,0.8,0.3,1.2,0.4c-0.7,1.7-1.2,3.5-1.2,5.3C12.5,165.4,12.1,165.3,11.7,165.2z M13,165.6c0.2-1.8,0.6-3.6,1.1-5.3
					c0.4,0.1,0.8,0.3,1.2,0.4c-0.7,1.7-1.1,3.5-1.2,5.4C13.8,165.9,13.4,165.8,13,165.6z M14.3,166.2c0.1-1,0.2-2,0.5-3
					c0.2-0.8,0.4-1.6,0.7-2.4c0.4,0.1,0.8,0.3,1.1,0.4c-0.6,1.7-1,3.6-1.1,5.4C15.1,166.4,14.7,166.3,14.3,166.2z M15.6,166.6
					c0.1-1.2,0.3-2.3,0.6-3.5c0.2-0.7,0.4-1.3,0.5-1.9c0.4,0.1,0.7,0.2,1.1,0.4c-0.6,1.7-1.1,3.5-1.2,5.4
					C16.2,166.9,15.9,166.7,15.6,166.6z M16.7,167c0-0.2,0-0.4,0.1-0.6c0.2-0.9,0.3-1.8,0.6-2.6c0.2-0.7,0.4-1.4,0.6-2.2
					c0.4,0.1,0.8,0.3,1.1,0.5c-0.4,0.9-0.7,1.9-0.9,2.8c-0.2,0.8-0.4,1.6-0.4,2.5C17.3,167.3,17,167.1,16.7,167z M18.7,167.8
					c-0.3-0.1-0.6-0.3-1-0.4c0.1-1,0.4-2,0.6-3c0.2-0.8,0.4-1.6,0.6-2.3c0.4,0.1,0.7,0.3,1.1,0.5C19.5,164.3,18.9,166,18.7,167.8
					L18.7,167.8z M20.1,168.5c0.2-1.1,0.4-2.2,0.7-3.2c0.2-0.6,0.3-1.3,0.4-1.9c-0.4,0.9-0.6,1.8-0.8,2.8
					C20.2,167,20,167.7,20.1,168.5c-0.5-0.1-0.8-0.3-1.2-0.4c0.3-1.8,0.7-3.6,1.3-5.3c0.8,0.4,1.6,0.7,2.4,1.1
					c-0.7,1.6-1.1,3.4-1.3,5.2C20.9,168.8,20.5,168.6,20.1,168.5z M21.4,169c0.3-1.7,0.7-3.5,1.4-5.1c0.3,0.1,0.5,0.2,0.8,0.4
					c-0.5,1-0.8,2.1-1.1,3.2c-0.2,0.6-0.3,1.2-0.3,1.9C21.9,169.2,21.6,169.1,21.4,169z M23.2,169.7L23.2,169.7
					c-0.4-0.1-0.6-0.3-0.9-0.4c0.3-1.8,0.9-3.4,1.4-5.1c0.4,0.1,0.7,0.3,1.1,0.5c-0.5,0.9-0.7,1.8-1,2.8
					C23.5,168.2,23.4,169,23.2,169.7L23.2,169.7z M24.5,170.3c-0.3-0.1-0.7-0.3-1-0.4c0.2-1.8,0.9-3.4,1.3-5.2
					c0.4,0.2,0.8,0.3,1.1,0.5c-0.6,1.6-1.1,3.1-1.5,4.8C24.4,170.1,24.5,170.2,24.5,170.3c0.3-1,0.6-1.9,0.8-2.8
					c0.2-0.7,0.5-1.4,0.6-2.2c0.3,0.1,0.6,0.2,0.9,0.3c0,0,0,0.1,0,0.2c-0.2,0.4-0.3,0.8-0.5,1.2c-0.4,1.2-0.7,2.4-0.8,3.7
					C25.2,170.6,24.8,170.5,24.5,170.3z M25.6,170.8c0.3-1.4,0.8-2.8,1.1-4.3c0.1-0.3,0.1-0.6,0.3-0.8c0.3,0.2,0.7,0.3,1.1,0.5
					c-0.4,0.8-0.6,1.7-0.9,2.5c-0.2,0.8-0.5,1.7-0.6,2.5C26.3,171.1,26,171,25.6,170.8z M26.7,171.3c0.4-1.2,0.7-2.4,1-3.6
					c0.1-0.5,0.3-1,0.4-1.5c0.5,0.2,1,0.5,1.5,0.7c-0.4,1.7-0.8,3.3-1.2,5C27.9,171.7,27.3,171.5,26.7,171.3z M28.5,171.9
					c0.4-1,0.7-2.1,0.9-3.2c0.1-0.6,0.3-1.2,0.3-1.7c0.3,0.1,0.6,0.2,0.9,0.4c-0.5,1.6-0.8,3.2-1.2,4.9
					C29.1,172.1,28.8,172,28.5,171.9z M29.6,172.3c0.5-1.6,0.9-3.2,1.2-4.9c0.3,0.1,0.5,0.2,0.8,0.3c-0.5,1.6-0.9,3.2-1.1,4.9
					C30.2,172.5,29.9,172.4,29.6,172.3z M32,173.1c0.2-1.3,0.4-2.6,0.6-3.9c0.1-0.3,0.1-0.6,0.1-0.9c-0.3,0.4-0.4,1-0.5,1.5
					c-0.2,1.1-0.3,2.2-0.4,3.3c-0.4-0.1-0.9-0.3-1.3-0.4c0.3-0.9,0.4-1.8,0.6-2.6c0.2-0.7,0.4-1.5,0.5-2.2c0.7,0.2,1.4,0.5,2.1,0.7
					c-0.4,1.7-0.7,3.3-0.6,5C32.8,173.3,32.4,173.2,32,173.1z M33.3,173.5c0.1-1.4,0.3-2.8,0.5-4.2c0-0.3,0-0.6,0-0.8
					c0.3,0.1,0.6,0.2,1,0.3c-0.5,1.6-0.7,3.3-0.6,5C33.9,173.7,33.6,173.6,33.3,173.5z M34.3,173.8c0.1-1.7,0.3-3.4,0.6-5
					c0.2,0.1,0.5,0.1,0.7,0.2c-0.5,1.5-0.6,3.2-0.7,4.8c0.4-1.6,0.4-3.2,0.8-4.7c0.2,0,0.4,0.1,0.7,0.2c-0.3,1.6-0.7,3.3-0.3,5
					C35.5,174,34.9,173.9,34.3,173.8z M38,172.8c0,0.5-0.1,1.1-0.3,1.6c-0.2,0-0.3,0-0.5-0.1c0.2-1.4,0.2-2.9,0.4-4.3
					c0-0.2,0.1-0.5-0.1-0.6l-0.1,0.1c-0.1,1-0.3,1.9-0.3,2.9c0,0.6,0,1.2,0,1.8c-0.3-0.1-0.6-0.1-0.9-0.2c0-1.7,0.3-3.3,0.5-5
					c0.6,0.1,1.1,0.2,1.7,0.2C38.2,170.5,38,171.7,38,172.8z M38.5,174.5c0-1.7,0.4-3.3,0.5-5c0.2,0,0.3,0,0.5,0
					c0,1.7-0.2,3.4-0.5,5C38.8,174.5,38.7,174.5,38.5,174.5z M40,174.8c-0.2-0.1-0.4-0.1-0.6-0.2c0.2-1.7,0.5-3.3,0.5-5
					c0.2,0,0.5,0,0.7,0C40.4,171.3,40.2,173.1,40,174.8z M42.4,172.2c0,0.9-0.1,1.7-0.1,2.6c-0.7,0-1.3,0-2,0
					c0.2-1.7,0.4-3.5,0.5-5.2c0.3,0,0.5,0,0.8,0c-0.1,1.7-0.2,3.5-0.3,5.2c0.1,0,0.2,0,0.2-0.1c0.1-1.7,0.3-3.5,0.2-5.2
					c0.2,0,0.5,0,0.7,0C42.4,170.4,42.5,171.3,42.4,172.2z M43.4,174.8c-0.3,0-0.7,0.1-1,0.1c0.4-1.7,0.4-3.5,0.3-5.3
					c0.3,0,0.5,0,0.8,0C43.6,171.3,43.6,173,43.4,174.8z M43.6,174.8c0.2-1.7,0.4-3.5,0.3-5.2c0.4,0,0.7,0,1.1,0c-0.1,1-0.1,2-0.3,3
					c-0.1,0.7-0.2,1.4-0.2,2.1C44.2,174.7,43.9,174.7,43.6,174.8z M44.7,174.6c0.4-1.7,0.5-3.4,0.6-5.1c0.3-0.1,0.6-0.1,1-0.2
					c-0.2,1.3-0.3,2.5-0.5,3.8c-0.1,0.4-0.1,0.9-0.1,1.3C45.3,174.5,45,174.6,44.7,174.6z M45.7,174.5c0-0.2,0.1-0.4,0.1-0.6
					c0.3-1,0.3-2,0.4-3.1c0.1-0.5,0.1-1,0.1-1.5c0.3-0.1,0.6-0.2,0.9-0.2c-0.2,1.2-0.2,2.3-0.3,3.5c-0.1,0.6-0.1,1.2-0.2,1.7
					C46.4,174.3,46,174.4,45.7,174.5z M47.7,174.1c-0.3,0.1-0.6,0.1-0.8,0.2c0.5-1.7,0.5-3.5,0.5-5.3c0.2-0.1,0.4-0.1,0.6-0.2
					C48,170.6,47.8,172.3,47.7,174.1z M49.3,173.7c-0.5,0.1-1,0.2-1.4,0.4c0.3-1.8,0.4-3.6,0.4-5.4c0.2-0.1,0.5-0.2,0.7-0.3
					c-0.1,1-0.2,2-0.2,3.1c0,0.8-0.2,1.5-0.1,2.3c0.4-0.8,0.3-1.7,0.4-2.5c0-1,0.1-2,0.1-3c0.3-0.1,0.6-0.2,0.9-0.3
					c-0.1,1.1-0.1,2.1-0.2,3.2c-0.1,0.8-0.1,1.6-0.2,2.3C49.6,173.6,49.4,173.6,49.3,173.7z M49.8,173.6c0.3-0.9,0.3-1.8,0.4-2.6
					c0.1-1,0.2-2,0.1-3c0.3-0.1,0.6-0.2,0.8-0.3c0,1-0.1,2-0.1,3c0,0.9-0.2,1.8-0.3,2.7C50.4,173.4,50.1,173.5,49.8,173.6z
					 M51.7,172.9c-0.2,0.2-0.5,0.2-0.7,0.3c0.2-1.5,0.3-3,0.4-4.5c0-0.4,0-0.8,0-1.2c0.4-0.2,0.7-0.3,1.1-0.4
					C52.1,169,52.1,171,51.7,172.9z M52.7,172.6c-0.2,0.1-0.5,0.2-0.7,0.3c0.2-1,0.3-2,0.4-2.9c0.1-1,0.2-2,0.2-3
					c0.3-0.1,0.5-0.2,0.8-0.4c-0.2,1.3-0.3,2.7-0.5,4C52.9,171.3,52.8,171.9,52.7,172.6z M53,172.5c0.5-2,0.6-4,0.7-6.1
					c0.2-0.1,0.4-0.2,0.6-0.3h0.1c0,2-0.1,4-0.4,6C53.7,172.2,53.4,172.4,53,172.5z M54.3,172c0.4-2,0.4-4,0.3-6
					c0.2-0.1,0.4-0.2,0.6-0.2c0,1.1,0.1,2.2,0,3.4c-0.1,0.8-0.2,1.7-0.2,2.5C54.8,171.9,54.6,171.9,54.3,172z M55.2,171.7
					c0.4-1.4,0.5-2.8,0.5-4.2c0-0.6-0.1-1.2-0.1-1.8c0.1-0.2,0.4-0.2,0.6-0.3c0,1.1,0.1,2.2,0,3.2c-0.1,0.9-0.2,1.8-0.2,2.7
					C55.7,171.5,55.4,171.6,55.2,171.7z M56.1,171.3c0.3-1.5,0.5-3.1,0.3-4.7c0-0.4-0.1-0.9-0.1-1.3c0.2-0.1,0.5-0.2,0.7-0.3
					c0,1,0.1,2,0.1,3s-0.2,1.9-0.3,2.9C56.9,171.2,56.4,171.2,56.1,171.3z M57.1,171c0.4-2,0.5-4.1,0.3-6.1c0.3-0.1,0.6-0.3,0.8-0.4
					c0,0.7,0,1.4,0,2c-0.1,0.8,0,1.5-0.1,2.3c-0.1,0.6-0.1,1.2-0.2,1.8C57.6,170.8,57.3,170.9,57.1,171z M58.1,170.6
					c0.2-0.9,0.4-1.8,0.4-2.8c0-1.2,0.2-2.3,0-3.5c0.2-0.1,0.4-0.2,0.7-0.3c-0.1,1.2,0,2.4-0.2,3.7c-0.1,0.9-0.1,1.7-0.3,2.6
					C58.5,170.5,58.3,170.5,58.1,170.6z M58.9,170.3c0.3-0.9,0.4-1.9,0.5-2.8c0.1-1.2,0.1-2.3,0-3.5c0.2-0.1,0.3-0.1,0.5-0.2
					c0.2,2.1,0.1,4.1-0.2,6.2C59.4,170,59.1,170.1,58.9,170.3z M60.6,169.5c-0.3,0.1-0.5,0.2-0.8,0.4c0.4-1.2,0.5-2.5,0.5-3.8
					c0-0.8-0.1-1.6-0.2-2.4c0.3-0.1,0.6-0.3,0.9-0.4c0,1.2,0.1,2.3-0.1,3.5C60.8,167.7,60.6,168.5,60.6,169.5
					c0.1-0.1,0.2-0.2,0.3-0.2c0.4-2,0.5-4,0.3-6c0.2-0.1,0.5-0.2,0.7-0.3c0,2.1,0,4.1-0.3,6.2C61.2,169.3,60.9,169.4,60.6,169.5
					L60.6,169.5z M61.7,169c0.5-2,0.5-4.1,0.3-6.2c0.3-0.1,0.6-0.3,0.9-0.4c0,1.1,0.1,2.2-0.1,3.3c-0.1,1-0.2,2-0.3,3
					C62.3,168.8,62,168.9,61.7,169z M64.4,167.8c-0.3,0.2-0.7,0.3-1,0.5c-0.2,0.1-0.4,0.2-0.6,0.3c0.3-1.2,0.4-2.5,0.5-3.8
					c0.1-0.8,0-1.6-0.1-2.4c0.2-0.1,0.4-0.2,0.7-0.3c0.1,2-0.1,3.9-0.4,5.9c0,0,0.1,0.1,0.1,0.2h0.1c0.3-0.9,0.4-1.8,0.5-2.7
					c0.1-1.1,0.1-2.3,0-3.4c0.2-0.1,0.3-0.1,0.5-0.2c0,1.5,0.1,2.9,0,4.4C64.5,166.7,64.3,167.2,64.4,167.8c0.3-0.1,0.3-0.4,0.3-0.6
					c0.4-1.8,0.3-3.8,0.2-5.6c0.3-0.1,0.5-0.2,0.8-0.3c0,2.1,0.1,4.2-0.3,6.2C65.1,167.6,64.8,167.8,64.4,167.8z M66.3,167.1
					c-0.2,0.1-0.4,0.2-0.6,0.2c0.3-0.9,0.4-1.9,0.4-2.9c0-1.1,0-2.2-0.1-3.4c0.2-0.1,0.4-0.2,0.7-0.3c0,1.5,0.2,2.9,0,4.4
					c0,0.4-0.1,0.9-0.3,1.3C66.3,166.7,66.3,166.9,66.3,167.1z M67.4,166.6L67.4,166.6c-0.3,0.1-0.6,0.2-0.9,0.3
					c0.4-1.4,0.6-2.9,0.5-4.4c-0.1-0.6,0-1.3-0.2-1.9c0.4-0.1,0.8-0.3,1.2-0.4c0.1,1.2,0,2.4-0.1,3.6c0,0.4,0,0.9-0.2,1.3
					C67.6,165.7,67.5,166.2,67.4,166.6z M68.9,161.4c0,1.7-0.4,3.3-0.5,4.9c-0.2,0.1-0.4,0.2-0.6,0.2c0.1-0.3,0.1-0.6,0.2-0.9
					c0.4-1.8,0.4-3.7,0.3-5.5c0.2-0.1,0.4-0.1,0.6-0.2C68.9,160.5,69,160.9,68.9,161.4z"/>
				<path class="st7" d="M55,173.5c0.5,0,0.9,0.4,1.3,0.7c1.2,1.1,2.4,2.1,3.5,3.2c0.7,0.7,1.5,1.3,2.1,2c0.9,1,1.9,1.9,2.9,2.8
					c0.8,0.8,1.7,1.4,2.5,2.2c0.2,0.2,0.4,0.4,0.6,0.6c0.1,0.1,0,0.3,0,0.4c-0.4,0-0.7-0.3-1-0.5c-0.9-0.8-1.8-1.4-2.7-2.3
					c-0.5-0.5-1-1-1.5-1.5c-0.8-0.7-1.5-1.5-2.3-2.2c-0.9-0.8-1.7-1.7-2.6-2.5c-0.9-0.9-1.8-1.8-2.8-2.6C55,173.8,55,173.6,55,173.5
					z"/>
				<path class="st34" d="M48.8,173.6C48.8,173.7,48.8,173.7,48.8,173.6L48.8,173.6z"/>
				<path class="st7" d="M52.8,175c0-0.3-0.2-0.8,0.2-1c0.4,0,0.4,0.4,0.4,0.7c0.4,2.5,0.5,5.1,0.6,7.7c0,1.6,0.2,3.2-0.2,4.8
					c-0.1,0-0.2,0-0.3,0c0.2-1.2,0.1-2.5,0.1-3.7C53.4,180.6,53.1,177.8,52.8,175z"/>
				<path class="st7" d="M50.1,175.7c0.1-0.2,0-0.6,0.3-0.7c0.4,0,0.3,0.4,0.3,0.7c0,2.9-0.3,5.7-0.6,8.6c-0.1,1.2-0.2,2.5-0.7,3.7
					c-0.1,0-0.2,0-0.2,0c0.5-1.6,0.5-3.2,0.6-4.8C50,180.6,50,178.2,50.1,175.7z"/>
				<path class="st7" d="M17.8,185.7c1.2,0,2.4,0.3,3.6,0.5c1,0.3,2,0.4,3,0.9c1.3,0.6,2.6,1,3.9,1.5c0.6,0.3,1.3,0.4,1.9,0.8
					c0.3,0.2,0.3,0.5,0.4,0.8c0.1,1.1,0.2,2.1,0.3,3.2c0.1,1.4,0.2,2.8,0.4,4.2c0,1.5,0.2,3.1,0.2,4.6c-0.1,0.9-0.1,1.8-0.3,2.6
					c-0.2-0.7-0.3-1.4-0.3-2.1c0-1.1-0.1-2.3-0.2-3.4c-0.1-2.1-0.4-4.1-0.5-6.2c-1.4,0-2.8-0.3-4.1-0.7c-1.1-0.4-2.3-0.5-3.4-0.9
					c-1.2-0.4-2.4-0.5-3.5-1c-0.5-0.2-1.1-0.3-1.7-0.6c0-0.1,0-0.2,0-0.3c1.2,0.1,2.4,0.5,3.6,0.8c1.1,0.2,2.2,0.6,3.4,0.8
					c1.3,0.2,2.5,0.7,3.7,1c0.7,0.1,1.3,0.2,2,0.3c-0.1-0.8-0.1-1.5-0.2-2.3c0-0.2,0-0.5-0.3-0.6c-0.9-0.5-1.9-0.8-2.9-1
					c-1-0.3-2-0.6-2.9-1.1c-0.6-0.3-1.2-0.4-1.8-0.5c-1.4-0.5-2.9-0.7-4.3-1.2V185.7z"/>
				<path class="st7" d="M29.8,206.8c0.1,0,0.2,0,0.2,0c0,0.8-0.3,1.5-0.6,2.2c-1.6,3.7-3.9,7.1-6.3,10.4c-1.2,1.7-2.4,3.4-3.6,5.1
					c-0.2,0.2-0.3,0.5-0.6,0.6c0.1-0.4,0.4-0.8,0.6-1.1c1.3-2,2.7-3.9,4-5.9c1.2-1.8,2.3-3.6,3.4-5.4c0.9-1.6,1.8-3.2,2.5-4.9
					C29.6,207.5,29.7,207.2,29.8,206.8z"/>
				<path class="st7" d="M26.9,217.7c0.3-0.6,0.5-1.2,1-1.7c0,0.5-0.2,0.9-0.4,1.4c-1.9,4.4-4.5,8.5-6.7,12.7
					c-1.5,2.9-3,5.7-4.1,8.8c-0.1,0-0.2,0-0.3,0c0.6-1.8,1.3-3.5,2.1-5.2c1.2-2.5,2.4-4.9,3.8-7.3C23.9,223.5,25.4,220.6,26.9,217.7
					z"/>
				<path class="st7" d="M-6.9,216.5c0,0,0.1,0,0.2,0c0.2,0.9,0.3,1.9,0.5,2.8c0.4,2.6,0.9,5.2,1.7,7.7c0.6,1.9,1.1,3.8,1.9,5.7
					c-0.1,0-0.2,0-0.2-0.1c-1-2.4-1.8-5-2.5-7.5C-6.3,222.3-6.7,219.4-6.9,216.5z"/>
				<path class="st7" d="M64.1,221.7c0,0,0.1,0,0.2,0c0,0.8,0,1.6-0.1,2.4c-0.7,4.7-1.4,9.4-2.3,14.1c-0.4,1.9-0.8,3.9-1.2,5.8
					c-0.3,1.4-0.6,2.9-1.2,4.3c-0.1,0-0.2,0-0.3,0c0.4-1.4,0.7-2.8,1-4.2c0.9-4.2,1.6-8.4,2.3-12.7c0.4-2.5,0.8-5.1,1.3-7.6
					C63.9,223,63.9,222.3,64.1,221.7z"/>
				<path class="st7" d="M-7.4,228c0.3,0.4,0.3,0.9,0.5,1.4c1.6,4.4,3.1,8.8,4.6,13.2c0.3,1,0.6,1.9,0.9,2.9
					c0.1,0.4,0.3,0.7,0.2,1.1c-0.3-0.1-0.3-0.5-0.4-0.7c-1.2-3.8-2.6-7.5-4-11.3c-0.5-1.4-1-2.9-1.4-4.3
					C-7.2,229.6-7.5,228.8-7.4,228z"/>
				<path class="st7" d="M36.9,241.9c0.5,0.3,0.8,0.8,1.1,1.3c0.9,1.4,1.9,2.9,2.8,4.3c1.1,1.7,2,3.6,2.9,5.4
					c0.5,1.1,1.1,2.1,1.5,3.3c-0.3,0.1-0.4-0.2-0.5-0.4c-0.8-1.6-1.7-3.2-2.7-4.8c-0.8-1.3-1.6-2.6-2.5-3.9
					c-0.6-0.9-1.2-1.9-1.7-2.9C37.7,243.4,37.3,242.7,36.9,241.9z"/>
				<path class="st7" d="M37.4,247.5c0.4,0,0.6,0.4,0.8,0.7c0.7,1.1,1.3,2.3,1.9,3.4c0.9,1.8,1.7,3.7,2.4,5.5c0.4,1,0.7,2,0.9,3.1
					c0,0.1,0,0.4-0.2,0.3c-0.2,0-0.2-0.2-0.2-0.3c-0.4-1.7-1.2-3.4-1.9-5c-0.9-2-1.9-3.9-2.9-5.8C37.8,248.8,37.4,248.2,37.4,247.5z
					"/>
				<path class="st7" d="M19.1,249c0.1-0.2,0.2-0.4,0.4-0.5c0,0.1,0.1,0.2,0.1,0.3c-0.2,1-0.6,1.9-0.9,2.8c-0.7,2.1-1.4,4.2-2.5,6.1
					c-0.7,1.4-1.5,2.8-2.2,4.1c-0.2,0.4-0.4,0.8-0.8,1.2c0-0.4,0.3-0.7,0.4-1.1c0.8-1.6,1.6-3.2,2.3-4.9c0.7-1.6,1.2-3.3,1.9-4.9
					C18.2,251.2,18.7,250.1,19.1,249z"/>
				<path class="st7" d="M-5.4,252.5c0.1,1,0.6,1.9,1,2.8c0.8,1.9,1.6,3.7,2.3,5.5c0.9,2.4,1.7,4.8,2.4,7.3c0,0-0.1,0-0.2,0
					c-0.6-1.8-1.2-3.5-1.9-5.3c-1-2.6-2.2-5.2-3.2-7.8C-5.2,254.3-5.5,253.4-5.4,252.5z"/>
				<path class="st7" d="M61,257.8c0.2-0.5,0.3-1,0.6-1.4c0.1,0.6-0.1,1.1-0.3,1.7c-0.5,1.8-1.2,3.6-1.9,5.4c-1,2.2-1.8,4.4-2.8,6.6
					c-0.2,0.4-0.4,1-0.8,1.3c0.1-0.4,0.3-0.7,0.4-1.1C58,266.1,59.6,262,61,257.8z"/>
				<path class="st7" d="M18.5,256.9c0.1-0.2,0.2-0.4,0.4-0.5c0.1,0.5-0.1,1-0.3,1.5c-0.5,1.7-1.3,3.2-2.1,4.8
					c-1.1,2-2.1,3.9-3.3,5.8c-0.1,0-0.2,0-0.3,0c1.6-3.1,3.3-6.2,4.6-9.5C17.9,258.3,18.2,257.6,18.5,256.9z"/>
				<path class="st7" d="M18.7,266.6c0,0,0.1,0,0.2,0.1c-0.1,0.9-0.4,1.7-0.8,2.5c-0.6,1.4-1.3,2.7-2,4c-0.4,0.7-0.7,1.5-1.2,2.2
					c-0.1,0-0.2,0-0.3,0C16,272.4,17.3,269.5,18.7,266.6z"/>
				<path class="st7" d="M57.2,274.4c0.1-0.2,0.2-0.3,0.4-0.3c0.2,0.4,0,0.9,0,1.3c-0.3,1.6-0.9,3.2-1.6,4.7c-0.2,0.5-0.4,1-0.7,1.4
					c-0.1,0.1-0.2,0.1-0.3,0.1c-0.2-0.2,0-0.4,0.1-0.6c0.5-1.5,1.1-3,1.5-4.6C56.7,275.7,56.9,275,57.2,274.4z"/>
				<path class="st7" d="M43,278.2c0.3,0.1,0.4,0.4,0.5,0.7c0.2,0.7,0.5,1.4,0.7,2c0.1,0.3,0.3,0.6,0.2,1c-0.5-0.6-0.7-1.3-1-2
					C43.2,279.3,42.8,278.8,43,278.2z"/>
				<path class="st50" d="M47.7,279.6c0.1,0,0.2,0,0.3,0.1c0.2,0.4,0.2,0.9,0.2,1.3c0,0.2-0.1,0.5-0.2,0.7
					C48,281,47.8,280.3,47.7,279.6z"/>
				<path class="st7" d="M1.5,281.7c-0.1-0.2,0.1-0.3,0.3-0.3c0.6,1.6,0.9,3.2,1.6,4.7c-0.2,0-0.3,0-0.5,0
					C2.2,284.7,1.6,283.2,1.5,281.7z"/>
				<path class="st7" d="M7,283.5c0-0.2,0-0.4,0.1-0.7c0.1,0.1,0.3,0.2,0.3,0.4c0.1,1,0.1,2,0.2,3.1c-0.4,0-0.4-0.4-0.4-0.6
					C7.1,285,7.1,284.2,7,283.5z"/>
				<path class="st51" d="M3.5,319.2c1.9-0.9,4-1.2,6.1-0.8c1.1,0.2,2.1,0.6,3.1,1.1c0.4,0.2,0.9,0.4,1.3,0.7
					c-1.3-0.3-2.6-1-3.9-1.3c-2.9-0.8-6,0-8.4,1.7c-0.7,0.4-1.3,0.9-2,1.2c0.2-0.4,0.7-0.7,1-1C1.7,320.2,2.5,319.6,3.5,319.2z"/>
				<path class="st52" d="M46.7,319.3c1.1-0.3,2.3-0.7,3.5-0.8c1.1-0.1,2.2,0,3.3,0.2s2.2,0.7,3,1.6c0.3,0.3,0.6,0.5,0.8,0.8
					c-0.7-0.3-1.3-0.8-1.9-1.2c-1.1-0.6-2.3-0.8-3.5-0.9c-1.4-0.2-2.8,0-4.1,0.4c-0.9,0.2-1.7,0.6-2.6,0.8
					C45.7,319.9,46.1,319.4,46.7,319.3z"/>
				<path class="st52" d="M44.4,325.4c4-0.5,8-1.2,11.9-0.6c0.9,0.1,1.7,0.2,2.6,0c-0.1,0.4-0.5,0.4-0.8,0.4
					c-1.4,0.1-2.8-0.2-4.2-0.2c-1.4-0.1-2.9-0.1-4.3,0.1c-2.9,0.3-5.7,0.9-8.5,1c-0.7,0-1.4,0-2.1-0.4c-0.2-0.1-0.3-0.3-0.4-0.5
					c0.4,0.1,0.8,0.4,1.3,0.4C41.4,325.8,42.9,325.6,44.4,325.4z"/>
				<path class="st52" d="M-1,325.7c1.2-0.4,2.5-0.8,3.7-0.9c2.7-0.2,5.3,0.2,7.9,0.6c0.7,0.1,1.3,0,2,0.1c1.8,0.1,3.6,0,5.3-0.4
					c0.1,0.2,0,0.3-0.2,0.4c-1.1,0.3-2.3,0.4-3.5,0.5c-1.5,0-3.1,0.1-4.6-0.2c-1.1-0.2-2.2-0.3-3.3-0.4c-1.4-0.1-2.8-0.2-4.2,0
					c-0.9,0.2-1.7,0.3-2.5,0.7c-0.6,0.2-1.3,0.4-2,0.3c-0.2,0-0.3-0.1-0.4-0.2C-2.1,326-1.5,325.9-1,325.7z"/>
			</g>
		</g>
	</g>
</g>
</svg>
