<?xml version="1.0" encoding="utf-8"?>
<!-- Generator: Adobe Illustrator 25.2.0, SVG Export Plug-In . SVG Version: 6.00 Build 0)  -->
<svg version="1.1" id="Calque_1" xmlns="http://www.w3.org/2000/svg" xmlns:xlink="http://www.w3.org/1999/xlink" x="0px" y="0px"
	 viewBox="0 0 800 421" style="enable-background:new 0 0 800 421;" xml:space="preserve">
<style type="text/css">
	.st0{fill:none;}
	.st1{fill:#FFFFFF;stroke:#C7BED3;stroke-miterlimit:10;}
	.st2{opacity:0.1;enable-background:new    ;}
</style>
<rect class="st0" width="800" height="421"/>
<path class="st1" d="M636.9,313.4H163.1c-23.8,0-43.1-19.3-43.1-43.1V135.6c0-23.8,19.3-43.1,43.1-43.1h473.8
	c23.8,0,43.1,19.3,43.1,43.1v134.6C680,294.1,660.7,313.4,636.9,313.4z"/>
<path id="XMLID_8_" class="st2" d="M191.3,226.5h53.4c1,0,1.8,1.4,1.8,3v5.6c0,1.7-0.8,3-1.8,3h-53.4c-1,0-1.8-1.4-1.8-3v-5.6
	C189.5,227.8,190.3,226.5,191.3,226.5z"/>
<path id="XMLID_1_" class="st2" d="M179.3,245.1h77.4c1.5,0,2.7,1.4,2.7,3v5.6c0,1.7-1.2,3-2.7,3h-77.4c-1.5,0-2.7-1.4-2.7-3v-5.6
	C176.6,246.5,177.8,245.1,179.3,245.1z"/>
<path class="st2" d="M218,211.1L218,211.1c-16.3,0-29.6-13.2-29.6-29.6l0,0c0-16.3,13.2-29.6,29.6-29.6l0,0
	c16.3,0,29.6,13.2,29.6,29.6l0,0C247.6,197.9,234.3,211.1,218,211.1z"/>
<path id="XMLID_3_" class="st2" d="M312.6,226.5H366c1,0,1.8,1.4,1.8,3v5.6c0,1.7-0.8,3-1.8,3h-53.4c-1,0-1.8-1.4-1.8-3v-5.6
	C310.8,227.8,311.6,226.5,312.6,226.5z"/>
<path id="XMLID_2_" class="st2" d="M300.6,245.1H378c1.5,0,2.7,1.4,2.7,3v5.6c0,1.7-1.2,3-2.7,3h-77.4c-1.5,0-2.7-1.4-2.7-3v-5.6
	C298,246.5,299.2,245.1,300.6,245.1z"/>
<path class="st2" d="M339.3,211.1L339.3,211.1c-16.3,0-29.6-13.2-29.6-29.6l0,0c0-16.3,13.2-29.6,29.6-29.6l0,0
	c16.3,0,29.6,13.2,29.6,29.6l0,0C368.9,197.9,355.7,211.1,339.3,211.1z"/>
<path id="XMLID_9_" class="st2" d="M434,226.5h53.4c1,0,1.8,1.4,1.8,3v5.6c0,1.7-0.8,3-1.8,3H434c-1,0-1.8-1.4-1.8-3v-5.6
	C432.1,227.8,433,226.5,434,226.5z"/>
<path id="XMLID_6_" class="st2" d="M421.9,245.1h77.4c1.5,0,2.7,1.4,2.7,3v5.6c0,1.7-1.2,3-2.7,3h-77.4c-1.5,0-2.7-1.4-2.7-3v-5.6
	C419.3,246.5,420.5,245.1,421.9,245.1z"/>
<path class="st2" d="M460.7,211.1L460.7,211.1c-16.3,0-29.6-13.2-29.6-29.6l0,0c0-16.3,13.2-29.6,29.6-29.6l0,0
	c16.3,0,29.6,13.2,29.6,29.6l0,0C490.2,197.9,477,211.1,460.7,211.1z"/>
<path id="XMLID_11_" class="st2" d="M555.3,226.5h53.4c1,0,1.8,1.4,1.8,3v5.6c0,1.7-0.8,3-1.8,3h-53.4c-1,0-1.8-1.4-1.8-3v-5.6
	C553.5,227.8,554.3,226.5,555.3,226.5z"/>
<path id="XMLID_10_" class="st2" d="M543.3,245.1h77.4c1.5,0,2.7,1.4,2.7,3v5.6c0,1.7-1.2,3-2.7,3h-77.4c-1.5,0-2.7-1.4-2.7-3v-5.6
	C540.6,246.5,541.8,245.1,543.3,245.1z"/>
<path class="st2" d="M582,211.1L582,211.1c-16.3,0-29.6-13.2-29.6-29.6l0,0c0-16.3,13.2-29.6,29.6-29.6l0,0
	c16.3,0,29.6,13.2,29.6,29.6l0,0C611.5,197.9,598.3,211.1,582,211.1z"/>
</svg>
