<?xml version="1.0" encoding="utf-8"?>
<!-- Generator: Adobe Illustrator 25.2.0, SVG Export Plug-In . SVG Version: 6.00 Build 0)  -->
<svg version="1.1" id="Calque_1" xmlns="http://www.w3.org/2000/svg" xmlns:xlink="http://www.w3.org/1999/xlink" x="0px" y="0px"
	 viewBox="0 0 800 421" style="enable-background:new 0 0 800 421;" xml:space="preserve">
<style type="text/css">
	.st0{fill:#FFFFFF;stroke:#C7BED3;stroke-miterlimit:10;}
	.st1{opacity:0.1;enable-background:new    ;}
</style>
<g>
	<path class="st0" d="M254.9,153.5H82.4c-11.5,0-20.8-9.3-20.8-20.8V99.9c0-11.5,9.3-20.8,20.8-20.8h172.5
		c11.5,0,20.8,9.3,20.8,20.8v32.8C275.7,144.1,266.4,153.5,254.9,153.5z"/>
	<path id="XMLID_7_" class="st1" d="M125.4,100.9h104.5c2.8,0,5.1,1.4,5.1,3.1v5.7c0,1.7-2.2,3.1-5.1,3.1H125.4
		c-2.8,0-5.1-1.4-5.1-3.1V104C120.3,102.3,122.6,100.9,125.4,100.9z"/>
	<path id="XMLID_1_" class="st1" d="M124.6,120.3h88.2c2.3,0,4.3,1.4,4.3,3.1v5.7c0,1.7-1.9,3.1-4.3,3.1h-88.2
		c-2.3,0-4.3-1.4-4.3-3.1v-5.7C120.3,121.7,122.2,120.3,124.6,120.3z"/>
	<circle class="st1" cx="97" cy="115.4" r="16.7"/>
	<path class="st0" d="M486.2,153.5H313.8c-11.5,0-20.8-9.3-20.8-20.8V99.9c0-11.5,9.3-20.8,20.8-20.8h172.5
		c11.5,0,20.8,9.3,20.8,20.8v32.8C507.1,144.1,497.7,153.5,486.2,153.5z"/>
	<path id="XMLID_3_" class="st1" d="M356.7,100.9h104.5c2.8,0,5.1,1.4,5.1,3.1v5.7c0,1.7-2.2,3.1-5.1,3.1H356.7
		c-2.8,0-5.1-1.4-5.1-3.1V104C351.7,102.3,353.9,100.9,356.7,100.9z"/>
	<path id="XMLID_2_" class="st1" d="M356,120.3h88.2c2.3,0,4.3,1.4,4.3,3.1v5.7c0,1.7-1.9,3.1-4.3,3.1H356c-2.3,0-4.3-1.4-4.3-3.1
		v-5.7C351.7,121.7,353.6,120.3,356,120.3z"/>
	<circle class="st1" cx="328.3" cy="115.4" r="16.7"/>
	<path class="st0" d="M717.6,153.5H545.1c-11.5,0-20.8-9.3-20.8-20.8V99.9c0-11.5,9.3-20.8,20.8-20.8h172.5
		c11.5,0,20.8,9.3,20.8,20.8v32.8C738.4,144.1,729.1,153.5,717.6,153.5z"/>
	<path id="XMLID_5_" class="st1" d="M588.1,100.9h104.5c2.8,0,5.1,1.4,5.1,3.1v5.7c0,1.7-2.2,3.1-5.1,3.1H588.1
		c-2.8,0-5.1-1.4-5.1-3.1V104C583,102.3,585.2,100.9,588.1,100.9z"/>
	<path id="XMLID_4_" class="st1" d="M587.3,120.3h88.2c2.3,0,4.3,1.4,4.3,3.1v5.7c0,1.7-1.9,3.1-4.3,3.1h-88.2
		c-2.3,0-4.3-1.4-4.3-3.1v-5.7C583,121.7,584.9,120.3,587.3,120.3z"/>
	<circle class="st1" cx="559.6" cy="115.4" r="16.7"/>
	<path class="st0" d="M254.9,247.7H82.4c-11.5,0-20.8-9.3-20.8-20.8v-32.8c0-11.5,9.3-20.8,20.8-20.8h172.5
		c11.5,0,20.8,9.3,20.8,20.8v32.8C275.7,238.4,266.4,247.7,254.9,247.7z"/>
	<path id="XMLID_12_" class="st1" d="M125.4,195.2h104.5c2.8,0,5.1,1.4,5.1,3.1v5.7c0,1.7-2.2,3.1-5.1,3.1H125.4
		c-2.8,0-5.1-1.4-5.1-3.1v-5.7C120.3,196.5,122.6,195.2,125.4,195.2z"/>
	<path id="XMLID_11_" class="st1" d="M124.6,214.6h88.2c2.3,0,4.3,1.4,4.3,3.1v5.7c0,1.7-1.9,3.1-4.3,3.1h-88.2
		c-2.3,0-4.3-1.4-4.3-3.1v-5.7C120.3,215.9,122.2,214.6,124.6,214.6z"/>
	<circle class="st1" cx="97" cy="209.6" r="16.7"/>
	<path class="st0" d="M486.2,247.7H313.8c-11.5,0-20.8-9.3-20.8-20.8v-32.8c0-11.5,9.3-20.8,20.8-20.8h172.5
		c11.5,0,20.8,9.3,20.8,20.8v32.8C507.1,238.4,497.7,247.7,486.2,247.7z"/>
	<path id="XMLID_10_" class="st1" d="M356.7,195.2h104.5c2.8,0,5.1,1.4,5.1,3.1v5.7c0,1.7-2.2,3.1-5.1,3.1H356.7
		c-2.8,0-5.1-1.4-5.1-3.1v-5.7C351.7,196.5,353.9,195.2,356.7,195.2z"/>
	<path id="XMLID_9_" class="st1" d="M356,214.6h88.2c2.3,0,4.3,1.4,4.3,3.1v5.7c0,1.7-1.9,3.1-4.3,3.1H356c-2.3,0-4.3-1.4-4.3-3.1
		v-5.7C351.7,215.9,353.6,214.6,356,214.6z"/>
	<circle class="st1" cx="328.3" cy="209.6" r="16.7"/>
	<path class="st0" d="M717.6,247.7H545.1c-11.5,0-20.8-9.3-20.8-20.8v-32.8c0-11.5,9.3-20.8,20.8-20.8h172.5
		c11.5,0,20.8,9.3,20.8,20.8v32.8C738.4,238.4,729.1,247.7,717.6,247.7z"/>
	<path id="XMLID_8_" class="st1" d="M588.1,195.2h104.5c2.8,0,5.1,1.4,5.1,3.1v5.7c0,1.7-2.2,3.1-5.1,3.1H588.1
		c-2.8,0-5.1-1.4-5.1-3.1v-5.7C583,196.5,585.2,195.2,588.1,195.2z"/>
	<path id="XMLID_6_" class="st1" d="M587.3,214.6h88.2c2.3,0,4.3,1.4,4.3,3.1v5.7c0,1.7-1.9,3.1-4.3,3.1h-88.2
		c-2.3,0-4.3-1.4-4.3-3.1v-5.7C583,215.9,584.9,214.6,587.3,214.6z"/>
	<circle class="st1" cx="559.6" cy="209.6" r="16.7"/>
	<path class="st0" d="M254.9,342H82.4c-11.5,0-20.8-9.3-20.8-20.8v-32.8c0-11.5,9.3-20.8,20.8-20.8h172.5c11.5,0,20.8,9.3,20.8,20.8
		v32.8C275.7,332.6,266.4,342,254.9,342z"/>
	<path id="XMLID_18_" class="st1" d="M125.4,289.4h104.5c2.8,0,5.1,1.4,5.1,3.1v5.7c0,1.7-2.2,3.1-5.1,3.1H125.4
		c-2.8,0-5.1-1.4-5.1-3.1v-5.7C120.3,290.8,122.6,289.4,125.4,289.4z"/>
	<path id="XMLID_17_" class="st1" d="M124.6,308.8h88.2c2.3,0,4.3,1.4,4.3,3.1v5.7c0,1.7-1.9,3.1-4.3,3.1h-88.2
		c-2.3,0-4.3-1.4-4.3-3.1v-5.7C120.3,310.2,122.2,308.8,124.6,308.8z"/>
	<circle class="st1" cx="97" cy="303.8" r="16.7"/>
	<path class="st0" d="M486.2,342H313.8c-11.5,0-20.8-9.3-20.8-20.8v-32.8c0-11.5,9.3-20.8,20.8-20.8h172.5
		c11.5,0,20.8,9.3,20.8,20.8v32.8C507.1,332.6,497.7,342,486.2,342z"/>
	<path id="XMLID_16_" class="st1" d="M356.7,289.4h104.5c2.8,0,5.1,1.4,5.1,3.1v5.7c0,1.7-2.2,3.1-5.1,3.1H356.7
		c-2.8,0-5.1-1.4-5.1-3.1v-5.7C351.7,290.8,353.9,289.4,356.7,289.4z"/>
	<path id="XMLID_15_" class="st1" d="M356,308.8h88.2c2.3,0,4.3,1.4,4.3,3.1v5.7c0,1.7-1.9,3.1-4.3,3.1H356c-2.3,0-4.3-1.4-4.3-3.1
		v-5.7C351.7,310.2,353.6,308.8,356,308.8z"/>
	<circle class="st1" cx="328.3" cy="303.8" r="16.7"/>
	<path class="st0" d="M717.6,342H545.1c-11.5,0-20.8-9.3-20.8-20.8v-32.8c0-11.5,9.3-20.8,20.8-20.8h172.5
		c11.5,0,20.8,9.3,20.8,20.8v32.8C738.4,332.6,729.1,342,717.6,342z"/>
	<path id="XMLID_14_" class="st1" d="M588.1,289.4h104.5c2.8,0,5.1,1.4,5.1,3.1v5.7c0,1.7-2.2,3.1-5.1,3.1H588.1
		c-2.8,0-5.1-1.4-5.1-3.1v-5.7C583,290.8,585.2,289.4,588.1,289.4z"/>
	<path id="XMLID_13_" class="st1" d="M587.3,308.8h88.2c2.3,0,4.3,1.4,4.3,3.1v5.7c0,1.7-1.9,3.1-4.3,3.1h-88.2
		c-2.3,0-4.3-1.4-4.3-3.1v-5.7C583,310.2,584.9,308.8,587.3,308.8z"/>
	<circle class="st1" cx="559.6" cy="303.8" r="16.7"/>
</g>
</svg>
