<?xml version="1.0" encoding="utf-8"?>
<!-- Generator: Adobe Illustrator 25.2.0, SVG Export Plug-In . SVG Version: 6.00 Build 0)  -->
<svg version="1.1" id="Calque_1" xmlns="http://www.w3.org/2000/svg" xmlns:xlink="http://www.w3.org/1999/xlink" x="0px" y="0px"
	 viewBox="0 0 800 421" style="enable-background:new 0 0 800 421;" xml:space="preserve">
<style type="text/css">
	.st0{fill:#FFFFFF;stroke:#C7BED3;stroke-miterlimit:10;}
	.st1{opacity:0.1;enable-background:new    ;}
</style>
<g>
	<path class="st0" d="M303.2,202.1H191.3c-7.1,0-12.8-5.2-12.8-11.6V57c0-6.4,5.7-11.6,12.8-11.6h111.9c7.1,0,12.8,5.2,12.8,11.6
		v133.5C316.1,196.9,310.3,202.1,303.2,202.1z"/>
	<path id="XMLID_4_" class="st1" d="M196.9,148.8h90.9c1.7,0,3.1,0.9,3.1,2.1v3.9c0,1.1-1.4,2.1-3.1,2.1h-90.9
		c-1.7,0-3.1-0.9-3.1-2.1v-3.9C193.8,149.7,195.3,148.8,196.9,148.8z"/>
	<path id="XMLID_1_" class="st1" d="M196.6,176.1h79.5c1.5,0,2.7,0.9,2.7,2.1v3.9c0,1.1-1.3,2.1-2.7,2.1h-79.5
		c-1.5,0-2.7-0.9-2.7-2.1v-3.9C193.8,177.1,195.1,176.1,196.6,176.1z"/>
	<path id="XMLID_3_" class="st1" d="M198.5,162.5h96.9c2.5,0,4.7,0.9,4.7,2.1v3.9c0,1.1-2.1,2.1-4.7,2.1h-96.9
		c-2.5,0-4.7-0.9-4.7-2.1v-3.9C193.9,163.4,195.9,162.5,198.5,162.5z"/>
	<path class="st1" d="M291.1,133.5h-87.8c-5,0-9.1-4.7-9.1-10.5V70.4c0-5.8,4-10.5,9.1-10.5h87.8c5,0,9.1,4.7,9.1,10.5v52.7
		C300.2,128.9,296.1,133.5,291.1,133.5z"/>
	<path class="st0" d="M455.9,202.1H344c-7.1,0-12.8-5.2-12.8-11.6V57c0-6.4,5.7-11.6,12.8-11.6H456c7.1,0,12.8,5.2,12.8,11.6v133.5
		C468.8,196.9,463,202.1,455.9,202.1z"/>
	<path id="XMLID_6_" class="st1" d="M349.6,148.8h90.9c1.7,0,3.1,0.9,3.1,2.1v3.9c0,1.1-1.4,2.1-3.1,2.1h-90.9
		c-1.7,0-3.1-0.9-3.1-2.1v-3.9C346.5,149.7,348,148.8,349.6,148.8z"/>
	<path id="XMLID_5_" class="st1" d="M349.3,176.1h79.5c1.5,0,2.7,0.9,2.7,2.1v3.9c0,1.1-1.3,2.1-2.7,2.1h-79.5
		c-1.5,0-2.7-0.9-2.7-2.1v-3.9C346.5,177.1,347.8,176.1,349.3,176.1z"/>
	<path id="XMLID_2_" class="st1" d="M351.3,162.5h96.9c2.5,0,4.7,0.9,4.7,2.1v3.9c0,1.1-2.1,2.1-4.7,2.1h-96.9
		c-2.5,0-4.7-0.9-4.7-2.1v-3.9C346.6,163.4,348.7,162.5,351.3,162.5z"/>
	<path class="st1" d="M443.8,133.5H356c-5,0-9.1-4.7-9.1-10.5V70.4c0-5.8,4-10.5,9.1-10.5h87.8c5,0,9.1,4.7,9.1,10.5v52.7
		C452.9,128.9,448.8,133.5,443.8,133.5z"/>
	<path class="st0" d="M608.6,202.1H496.8c-7.1,0-12.8-5.2-12.8-11.6V57c0-6.4,5.7-11.6,12.8-11.6h111.9c7.1,0,12.8,5.2,12.8,11.6
		v133.5C621.5,196.9,615.7,202.1,608.6,202.1z"/>
	<path id="XMLID_9_" class="st1" d="M502.4,148.8h90.9c1.7,0,3.1,0.9,3.1,2.1v3.9c0,1.1-1.4,2.1-3.1,2.1h-90.9
		c-1.7,0-3.1-0.9-3.1-2.1v-3.9C499.2,149.7,500.7,148.8,502.4,148.8z"/>
	<path id="XMLID_8_" class="st1" d="M502,176.1h79.5c1.5,0,2.7,0.9,2.7,2.1v3.9c0,1.1-1.3,2.1-2.7,2.1H502c-1.5,0-2.7-0.9-2.7-2.1
		v-3.9C499.2,177.1,500.5,176.1,502,176.1z"/>
	<path id="XMLID_7_" class="st1" d="M504,162.5h96.9c2.5,0,4.7,0.9,4.7,2.1v3.9c0,1.1-2.1,2.1-4.7,2.1H504c-2.5,0-4.7-0.9-4.7-2.1
		v-3.9C499.3,163.4,501.4,162.5,504,162.5z"/>
	<path class="st1" d="M596.5,133.5h-87.8c-5,0-9.1-4.7-9.1-10.5V70.4c0-5.8,4-10.5,9.1-10.5h87.8c5,0,9.1,4.7,9.1,10.5v52.7
		C605.6,128.9,601.5,133.5,596.5,133.5z"/>
	<path class="st0" d="M303.2,375.6H191.3c-7.1,0-12.8-5.2-12.8-11.6V230.5c0-6.4,5.7-11.6,12.8-11.6h111.9c7.1,0,12.8,5.2,12.8,11.6
		V364C316.1,370.4,310.3,375.6,303.2,375.6z"/>
	<path id="XMLID_18_" class="st1" d="M196.9,322.3h90.9c1.7,0,3.1,0.9,3.1,2.1v3.9c0,1.1-1.4,2.1-3.1,2.1h-90.9
		c-1.7,0-3.1-0.9-3.1-2.1v-3.9C193.8,323.2,195.3,322.3,196.9,322.3z"/>
	<path id="XMLID_17_" class="st1" d="M196.6,349.6h79.5c1.5,0,2.7,0.9,2.7,2.1v3.9c0,1.1-1.3,2.1-2.7,2.1h-79.5
		c-1.5,0-2.7-0.9-2.7-2.1v-3.9C193.8,350.6,195.1,349.6,196.6,349.6z"/>
	<path id="XMLID_16_" class="st1" d="M198.5,335.9h96.9c2.5,0,4.7,0.9,4.7,2.1v3.9c0,1.1-2.1,2.1-4.7,2.1h-96.9
		c-2.5,0-4.7-0.9-4.7-2.1V338C193.9,336.9,195.9,335.9,198.5,335.9z"/>
	<path class="st1" d="M291.1,307h-87.8c-5,0-9.1-4.7-9.1-10.5v-52.7c0-5.8,4-10.5,9.1-10.5h87.8c5,0,9.1,4.7,9.1,10.5v52.7
		C300.2,302.3,296.1,307,291.1,307z"/>
	<path class="st0" d="M455.9,375.6H344c-7.1,0-12.8-5.2-12.8-11.6V230.5c0-6.4,5.7-11.6,12.8-11.6H456c7.1,0,12.8,5.2,12.8,11.6V364
		C468.8,370.4,463,375.6,455.9,375.6z"/>
	<path id="XMLID_15_" class="st1" d="M349.6,322.3h90.9c1.7,0,3.1,0.9,3.1,2.1v3.9c0,1.1-1.4,2.1-3.1,2.1h-90.9
		c-1.7,0-3.1-0.9-3.1-2.1v-3.9C346.5,323.2,348,322.3,349.6,322.3z"/>
	<path id="XMLID_14_" class="st1" d="M349.3,349.6h79.5c1.5,0,2.7,0.9,2.7,2.1v3.9c0,1.1-1.3,2.1-2.7,2.1h-79.5
		c-1.5,0-2.7-0.9-2.7-2.1v-3.9C346.5,350.6,347.8,349.6,349.3,349.6z"/>
	<path id="XMLID_13_" class="st1" d="M351.3,335.9h96.9c2.5,0,4.7,0.9,4.7,2.1v3.9c0,1.1-2.1,2.1-4.7,2.1h-96.9
		c-2.5,0-4.7-0.9-4.7-2.1V338C346.6,336.9,348.7,335.9,351.3,335.9z"/>
	<path class="st1" d="M443.8,307H356c-5,0-9.1-4.7-9.1-10.5v-52.7c0-5.8,4-10.5,9.1-10.5h87.8c5,0,9.1,4.7,9.1,10.5v52.7
		C452.9,302.3,448.8,307,443.8,307z"/>
	<path class="st0" d="M608.6,375.6H496.8c-7.1,0-12.8-5.2-12.8-11.6V230.5c0-6.4,5.7-11.6,12.8-11.6h111.9c7.1,0,12.8,5.2,12.8,11.6
		V364C621.5,370.4,615.7,375.6,608.6,375.6z"/>
	<path id="XMLID_12_" class="st1" d="M502.4,322.3h90.9c1.7,0,3.1,0.9,3.1,2.1v3.9c0,1.1-1.4,2.1-3.1,2.1h-90.9
		c-1.7,0-3.1-0.9-3.1-2.1v-3.9C499.2,323.2,500.7,322.3,502.4,322.3z"/>
	<path id="XMLID_11_" class="st1" d="M502,349.6h79.5c1.5,0,2.7,0.9,2.7,2.1v3.9c0,1.1-1.3,2.1-2.7,2.1H502c-1.5,0-2.7-0.9-2.7-2.1
		v-3.9C499.2,350.6,500.5,349.6,502,349.6z"/>
	<path id="XMLID_10_" class="st1" d="M504,335.9h96.9c2.5,0,4.7,0.9,4.7,2.1v3.9c0,1.1-2.1,2.1-4.7,2.1H504c-2.5,0-4.7-0.9-4.7-2.1
		V338C499.3,336.9,501.4,335.9,504,335.9z"/>
	<path class="st1" d="M596.5,307h-87.8c-5,0-9.1-4.7-9.1-10.5v-52.7c0-5.8,4-10.5,9.1-10.5h87.8c5,0,9.1,4.7,9.1,10.5v52.7
		C605.6,302.3,601.5,307,596.5,307z"/>
</g>
</svg>
