<?xml version="1.0" encoding="utf-8"?>
<!-- Generator: Adobe Illustrator 25.2.0, SVG Export Plug-In . SVG Version: 6.00 Build 0)  -->
<svg version="1.1" id="Calque_1" xmlns="http://www.w3.org/2000/svg" xmlns:xlink="http://www.w3.org/1999/xlink" x="0px" y="0px"
	 viewBox="0 0 800 421" style="enable-background:new 0 0 800 421;" xml:space="preserve">
<style type="text/css">
	.st0{fill:#FFFFFF;stroke:#C7BED3;stroke-miterlimit:10;}
	.st1{opacity:0.1;enable-background:new    ;}
</style>
<path class="st0" d="M680.1,333.9H119.9c-18,0-32.6-14.6-32.6-32.6V119.7c0-18,14.6-32.6,32.6-32.6h560.1c18,0,32.6,14.6,32.6,32.6
	v181.7C712.6,319.3,698.1,333.9,680.1,333.9z"/>
<path id="XMLID_7_" class="st1" d="M130.9,202.7h118.2c3.1,0,5.7,1,5.7,2.2v4.2c0,1.2-2.5,2.2-5.7,2.2H130.9c-3.1,0-5.7-1-5.7-2.2
	v-4.2C125.1,203.6,127.7,202.7,130.9,202.7z"/>
<path id="XMLID_22_" class="st1" d="M171.4,164.9H221c1.3,0,2.4,1,2.4,2.2v4.2c0,1.2-1.1,2.2-2.4,2.2h-49.6c-1.3,0-2.4-1-2.4-2.2
	v-4.2C169,165.9,170.1,164.9,171.4,164.9z"/>
<path id="XMLID_3_" class="st1" d="M297.9,185.1h96.8c2.6,0,4.7,1,4.7,2.2v4.2c0,1.2-2.1,2.2-4.7,2.2h-96.8c-2.6,0-4.7-1-4.7-2.2
	v-4.2C293.2,186.1,295.3,185.1,297.9,185.1z"/>
<path id="XMLID_5_" class="st1" d="M297.9,206.2h96.8c2.6,0,4.7,1,4.7,2.2v4.2c0,1.2-2.1,2.2-4.7,2.2h-96.8c-2.6,0-4.7-1-4.7-2.2
	v-4.2C293.2,207.2,295.3,206.2,297.9,206.2z"/>
<path id="XMLID_6_" class="st1" d="M297.9,227.2h96.8c2.6,0,4.7,1,4.7,2.2v4.2c0,1.2-2.1,2.2-4.7,2.2h-96.8c-2.6,0-4.7-1-4.7-2.2
	v-4.2C293.2,228.2,295.3,227.2,297.9,227.2z"/>
<path id="XMLID_8_" class="st1" d="M297.9,248.3h96.8c2.6,0,4.7,1,4.7,2.2v4.2c0,1.2-2.1,2.2-4.7,2.2h-96.8c-2.6,0-4.7-1-4.7-2.2
	v-4.2C293.2,249.3,295.3,248.3,297.9,248.3z"/>
<path id="XMLID_9_" class="st1" d="M297.9,269.3h96.8c2.6,0,4.7,1,4.7,2.2v4.2c0,1.2-2.1,2.2-4.7,2.2h-96.8c-2.6,0-4.7-1-4.7-2.2
	v-4.2C293.2,270.3,295.3,269.3,297.9,269.3z"/>
<path id="XMLID_4_" class="st1" d="M295.6,155.6H344c1.3,0,2.3,1.5,2.3,3.5v6.6c0,1.9-1,3.5-2.3,3.5h-48.4c-1.3,0-2.3-1.5-2.3-3.5
	v-6.6C293.2,157.1,294.3,155.6,295.6,155.6z"/>
<path id="XMLID_15_" class="st1" d="M434.8,185.1h96.8c2.6,0,4.7,1,4.7,2.2v4.2c0,1.2-2.1,2.2-4.7,2.2h-96.8c-2.6,0-4.7-1-4.7-2.2
	v-4.2C430.1,186.1,432.1,185.1,434.8,185.1z"/>
<path id="XMLID_14_" class="st1" d="M434.8,206.2h96.8c2.6,0,4.7,1,4.7,2.2v4.2c0,1.2-2.1,2.2-4.7,2.2h-96.8c-2.6,0-4.7-1-4.7-2.2
	v-4.2C430.1,207.2,432.1,206.2,434.8,206.2z"/>
<path id="XMLID_13_" class="st1" d="M434.8,227.2h96.8c2.6,0,4.7,1,4.7,2.2v4.2c0,1.2-2.1,2.2-4.7,2.2h-96.8c-2.6,0-4.7-1-4.7-2.2
	v-4.2C430.1,228.2,432.1,227.2,434.8,227.2z"/>
<path id="XMLID_12_" class="st1" d="M434.8,248.3h96.8c2.6,0,4.7,1,4.7,2.2v4.2c0,1.2-2.1,2.2-4.7,2.2h-96.8c-2.6,0-4.7-1-4.7-2.2
	v-4.2C430.1,249.3,432.1,248.3,434.8,248.3z"/>
<path id="XMLID_11_" class="st1" d="M434.8,269.3h96.8c2.6,0,4.7,1,4.7,2.2v4.2c0,1.2-2.1,2.2-4.7,2.2h-96.8c-2.6,0-4.7-1-4.7-2.2
	v-4.2C430.1,270.3,432.1,269.3,434.8,269.3z"/>
<path id="XMLID_10_" class="st1" d="M432.4,155.6h48.4c1.3,0,2.3,1.5,2.3,3.5v6.6c0,1.9-1,3.5-2.3,3.5h-48.4c-1.3,0-2.3-1.5-2.3-3.5
	v-6.6C430.1,157.1,431.1,155.6,432.4,155.6z"/>
<path id="XMLID_21_" class="st1" d="M571.6,185.1h96.8c2.6,0,4.7,1,4.7,2.2v4.2c0,1.2-2.1,2.2-4.7,2.2h-96.8c-2.6,0-4.7-1-4.7-2.2
	v-4.2C566.9,186.1,569,185.1,571.6,185.1z"/>
<path id="XMLID_20_" class="st1" d="M571.6,206.2h96.8c2.6,0,4.7,1,4.7,2.2v4.2c0,1.2-2.1,2.2-4.7,2.2h-96.8c-2.6,0-4.7-1-4.7-2.2
	v-4.2C566.9,207.2,569,206.2,571.6,206.2z"/>
<path id="XMLID_19_" class="st1" d="M571.6,227.2h96.8c2.6,0,4.7,1,4.7,2.2v4.2c0,1.2-2.1,2.2-4.7,2.2h-96.8c-2.6,0-4.7-1-4.7-2.2
	v-4.2C566.9,228.2,569,227.2,571.6,227.2z"/>
<path id="XMLID_18_" class="st1" d="M571.6,248.3h96.8c2.6,0,4.7,1,4.7,2.2v4.2c0,1.2-2.1,2.2-4.7,2.2h-96.8c-2.6,0-4.7-1-4.7-2.2
	v-4.2C566.9,249.3,569,248.3,571.6,248.3z"/>
<path id="XMLID_17_" class="st1" d="M571.6,269.3h96.8c2.6,0,4.7,1,4.7,2.2v4.2c0,1.2-2.1,2.2-4.7,2.2h-96.8c-2.6,0-4.7-1-4.7-2.2
	v-4.2C566.9,270.3,569,269.3,571.6,269.3z"/>
<path id="XMLID_16_" class="st1" d="M569.2,155.6h48.4c1.3,0,2.3,1.5,2.3,3.5v6.6c0,1.9-1,3.5-2.3,3.5h-48.4c-1.3,0-2.3-1.5-2.3-3.5
	v-6.6C566.9,157.1,567.9,155.6,569.2,155.6z"/>
<path id="XMLID_1_" class="st1" d="M130,222.9h99.9c2.6,0,4.8,1,4.8,2.2v4.2c0,1.2-2.1,2.2-4.8,2.2H130c-2.6,0-4.8-1-4.8-2.2v-4.2
	C125.1,223.9,127.3,222.9,130,222.9z"/>
<path id="XMLID_2_" class="st1" d="M128.7,243.1H202c1.9,0,3.6,1,3.6,2.2v4.2c0,1.2-1.6,2.2-3.6,2.2h-73.3c-1.9,0-3.6-1-3.6-2.2
	v-4.2C125.1,244.1,126.7,243.1,128.7,243.1z"/>
<circle class="st1" cx="146.2" cy="169.5" r="16.3"/>
</svg>
