<?xml version="1.0" encoding="utf-8"?>
<!-- Generator: Adobe Illustrator 25.2.0, SVG Export Plug-In . SVG Version: 6.00 Build 0)  -->
<svg version="1.1" id="Calque_1" xmlns="http://www.w3.org/2000/svg" xmlns:xlink="http://www.w3.org/1999/xlink" x="0px" y="0px"
	 viewBox="0 0 800 421" style="enable-background:new 0 0 800 421;" xml:space="preserve">
<style type="text/css">
	.st0{fill:#18182F;stroke:#32324C;stroke-miterlimit:10;}
	.st1{opacity:0.1;fill:#A7A7BC;enable-background:new    ;}
</style>
<g>
	<path class="st0" d="M717.4,283.7H522.2c-15.3,0-27.8-12.4-27.8-27.8v-78.2c0-15.3,12.4-27.8,27.8-27.8h195.1
		c15.3,0,27.8,12.4,27.8,27.8v78.2C745.1,271.2,732.7,283.7,717.4,283.7z"/>
	<path class="st1" d="M604,258.6h-78.3c-4.5,0-8.1-5.3-8.1-11.9v-59.8c0-6.6,3.6-11.9,8.1-11.9H604c4.5,0,8.1,5.3,8.1,11.9v59.8
		C612.1,253.3,608.4,258.6,604,258.6z"/>
	<path id="XMLID_5_" class="st1" d="M629.6,207.6h67.9c1.3,0,2.3,0.7,2.3,1.6v2.9c0,0.8-1,1.6-2.3,1.6h-67.9c-1.3,0-2.3-0.7-2.3-1.6
		v-2.9C627.2,208.3,628.3,207.6,629.6,207.6z"/>
	<path id="XMLID_4_" class="st1" d="M628.5,186.7h35.9c0.7,0,1.2,1.3,1.2,2.9v5.4c0,1.6-0.6,2.9-1.2,2.9h-35.9
		c-0.7,0-1.2-1.3-1.2-2.9v-5.4C627.2,188.1,627.8,186.7,628.5,186.7z"/>
	<path id="XMLID_3_" class="st1" d="M629.3,228h59.3c1.1,0,2,0.7,2,1.6v2.9c0,0.8-0.9,1.6-2,1.6h-59.3c-1.1,0-2-0.7-2-1.6v-2.9
		C627.2,228.7,628.2,228,629.3,228z"/>
	<path id="XMLID_2_" class="st1" d="M628.5,243.7h33.9c0.7,0,1.1,0.7,1.1,1.6v2.9c0,0.8-0.5,1.6-1.1,1.6h-33.9
		c-0.7,0-1.1-0.7-1.1-1.6v-2.9C627.3,244.4,627.8,243.7,628.5,243.7z"/>
	<path id="XMLID_1_" class="st1" d="M630.8,217.8h72.3c1.9,0,3.5,0.7,3.5,1.6v2.9c0,0.8-1.6,1.6-3.5,1.6h-72.3
		c-1.9,0-3.5-0.7-3.5-1.6v-2.9C627.3,218.5,628.8,217.8,630.8,217.8z"/>
</g>
<g>
	<path class="st0" d="M266.1,283.7H70.9c-15.3,0-27.8-12.4-27.8-27.8v-78.2c0-15.3,12.4-27.8,27.8-27.8H266
		c15.3,0,27.8,12.4,27.8,27.8v78.2C293.8,271.2,281.4,283.7,266.1,283.7z"/>
	<path class="st1" d="M152.7,258.6H74.4c-4.5,0-8.1-5.3-8.1-11.9v-59.8c0-6.6,3.6-11.9,8.1-11.9h78.3c4.5,0,8.1,5.3,8.1,11.9v59.8
		C160.8,253.3,157.2,258.6,152.7,258.6z"/>
	<path id="XMLID_13_" class="st1" d="M178.3,207.6h67.9c1.3,0,2.3,0.7,2.3,1.6v2.9c0,0.8-1,1.6-2.3,1.6h-67.9
		c-1.3,0-2.3-0.7-2.3-1.6v-2.9C176,208.3,177,207.6,178.3,207.6z"/>
	<path id="XMLID_12_" class="st1" d="M177.2,186.7h35.9c0.7,0,1.2,1.3,1.2,2.9v5.4c0,1.6-0.6,2.9-1.2,2.9h-35.9
		c-0.7,0-1.2-1.3-1.2-2.9v-5.4C176,188.1,176.6,186.7,177.2,186.7z"/>
	<path id="XMLID_11_" class="st1" d="M178.1,228h59.3c1.1,0,2,0.7,2,1.6v2.9c0,0.8-0.9,1.6-2,1.6h-59.3c-1.1,0-2-0.7-2-1.6v-2.9
		C176,228.7,176.9,228,178.1,228z"/>
	<path id="XMLID_10_" class="st1" d="M177.2,243.7h33.9c0.7,0,1.1,0.7,1.1,1.6v2.9c0,0.8-0.5,1.6-1.1,1.6h-33.9
		c-0.7,0-1.1-0.7-1.1-1.6v-2.9C176,244.4,176.5,243.7,177.2,243.7z"/>
	<path id="XMLID_6_" class="st1" d="M179.5,217.8h72.3c1.9,0,3.5,0.7,3.5,1.6v2.9c0,0.8-1.6,1.6-3.5,1.6h-72.3
		c-1.9,0-3.5-0.7-3.5-1.6v-2.9C176,218.5,177.6,217.8,179.5,217.8z"/>
</g>
<g>
	<path class="st0" d="M532.9,306.4H252.6c-15.3,0-27.8-12.4-27.8-27.8V154.9c0-15.3,12.4-27.8,27.8-27.8h280.3
		c15.3,0,27.8,12.4,27.8,27.8v123.7C560.7,294,548.3,306.4,532.9,306.4z"/>
	<path class="st1" d="M371.6,272.8H266.7c-6,0-10.8-7.1-10.8-15.9v-80.1c0-8.8,4.8-15.9,10.8-15.9h104.9c6,0,10.8,7.1,10.8,15.9
		v80.1C382.5,265.7,377.6,272.8,371.6,272.8z"/>
	<path id="XMLID_9_" class="st1" d="M405.9,204.5h90.9c1.7,0,3.1,0.9,3.1,2.1v3.9c0,1.1-1.4,2.1-3.1,2.1h-90.9
		c-1.7,0-3.1-0.9-3.1-2.1v-3.9C402.8,205.4,404.2,204.5,405.9,204.5z"/>
	<path id="XMLID_19_" class="st1" d="M404.5,176.5h48c0.9,0,1.6,1.7,1.6,3.9v7.2c0,2.1-0.7,3.9-1.6,3.9h-48c-0.9,0-1.6-1.7-1.6-3.9
		v-7.2C402.8,178.3,403.6,176.5,404.5,176.5z"/>
	<path id="XMLID_8_" class="st1" d="M405.6,231.8h79.5c1.5,0,2.7,0.9,2.7,2.1v3.9c0,1.1-1.3,2.1-2.7,2.1h-79.5
		c-1.5,0-2.7-0.9-2.7-2.1v-3.9C402.8,232.8,404.1,231.8,405.6,231.8z"/>
	<path id="XMLID_20_" class="st1" d="M404.4,252.8h45.4c0.9,0,1.5,0.9,1.5,2.1v3.9c0,1.1-0.7,2.1-1.5,2.1h-45.4
		c-0.9,0-1.5-0.9-1.5-2.1v-3.9C402.8,253.7,403.5,252.8,404.4,252.8z"/>
	<path id="XMLID_7_" class="st1" d="M407.5,218.1h96.9c2.5,0,4.7,0.9,4.7,2.1v3.9c0,1.1-2.1,2.1-4.7,2.1h-96.9
		c-2.5,0-4.7-0.9-4.7-2.1v-3.9C402.8,219.1,404.9,218.1,407.5,218.1z"/>
</g>
</svg>
