<?xml version="1.0" encoding="utf-8"?>
<!-- Generator: Adobe Illustrator 25.2.0, SVG Export Plug-In . SVG Version: 6.00 Build 0)  -->
<svg version="1.1" id="Calque_1" xmlns="http://www.w3.org/2000/svg" xmlns:xlink="http://www.w3.org/1999/xlink" x="0px" y="0px"
	 viewBox="0 0 800 421" style="enable-background:new 0 0 800 421;" xml:space="preserve">
<style type="text/css">
	.st0{fill:#FFFFFF;stroke:#C7BED3;stroke-miterlimit:10;}
	.st1{opacity:0.1;enable-background:new    ;}
	.st2{fill:#8217FD;}
</style>
<path class="st0" d="M293.9,145H166c-8.3,0-15.1-6.7-15.1-15.1V54.7c0-8.3,6.7-15.1,15.1-15.1h127.9c8.3,0,15.1,6.7,15.1,15.1V130
	C309,138.3,302.2,145,293.9,145z"/>
<path class="st1" d="M289.8,134.7H170.1c-5.9,0-10.6-4.8-10.6-10.6V60.5c0-5.9,4.8-10.6,10.6-10.6h119.7c5.9,0,10.6,4.8,10.6,10.6
	v63.6C300.4,130,295.7,134.7,289.8,134.7z"/>
<path class="st0" d="M464,145H336.1c-8.3,0-15.1-6.7-15.1-15.1V54.7c0-8.3,6.7-15.1,15.1-15.1h127.9c8.3,0,15.1,6.7,15.1,15.1V130
	C479,138.3,472.3,145,464,145z"/>
<path class="st1" d="M459.8,134.7H340.2c-5.9,0-10.6-4.8-10.6-10.6V60.5c0-5.9,4.8-10.6,10.6-10.6h119.7c5.9,0,10.6,4.8,10.6,10.6
	v63.6C470.5,130,465.7,134.7,459.8,134.7z"/>
<path class="st0" d="M634,145H506.1c-8.3,0-15.1-6.7-15.1-15.1V54.7c0-8.3,6.7-15.1,15.1-15.1H634c8.3,0,15.1,6.7,15.1,15.1V130
	C649.1,138.3,642.4,145,634,145z"/>
<path class="st1" d="M629.9,134.7H510.3c-5.9,0-10.6-4.8-10.6-10.6V60.5c0-5.9,4.8-10.6,10.6-10.6h119.7c5.9,0,10.6,4.8,10.6,10.6
	v63.6C640.6,130,635.8,134.7,629.9,134.7z"/>
<path class="st0" d="M293.9,263.2H166c-8.3,0-15.1-6.7-15.1-15.1v-75.3c0-8.3,6.7-15.1,15.1-15.1h127.9c8.3,0,15.1,6.7,15.1,15.1
	v75.3C309,256.5,302.2,263.2,293.9,263.2z"/>
<path class="st1" d="M289.8,252.9H170.1c-5.9,0-10.6-4.8-10.6-10.6v-63.6c0-5.9,4.8-10.6,10.6-10.6h119.7c5.9,0,10.6,4.8,10.6,10.6
	v63.6C300.4,248.2,295.7,252.9,289.8,252.9z"/>
<path class="st0" d="M464,263.2H336.1c-8.3,0-15.1-6.7-15.1-15.1v-75.3c0-8.3,6.7-15.1,15.1-15.1h127.9c8.3,0,15.1,6.7,15.1,15.1
	v75.3C479,256.5,472.3,263.2,464,263.2z"/>
<path class="st1" d="M459.8,252.9H340.2c-5.9,0-10.6-4.8-10.6-10.6v-63.6c0-5.9,4.8-10.6,10.6-10.6h119.7c5.9,0,10.6,4.8,10.6,10.6
	v63.6C470.5,248.2,465.7,252.9,459.8,252.9z"/>
<path class="st0" d="M634,263.2H506.1c-8.3,0-15.1-6.7-15.1-15.1v-75.3c0-8.3,6.7-15.1,15.1-15.1H634c8.3,0,15.1,6.7,15.1,15.1v75.3
	C649.1,256.5,642.4,263.2,634,263.2z"/>
<path class="st1" d="M629.9,252.9H510.3c-5.9,0-10.6-4.8-10.6-10.6v-63.6c0-5.9,4.8-10.6,10.6-10.6h119.7c5.9,0,10.6,4.8,10.6,10.6
	v63.6C640.6,248.2,635.8,252.9,629.9,252.9z"/>
<path class="st0" d="M293.9,381.4H166c-8.3,0-15.1-6.7-15.1-15.1v-75.3c0-8.3,6.7-15.1,15.1-15.1h127.9c8.3,0,15.1,6.7,15.1,15.1
	v75.3C309,374.7,302.2,381.4,293.9,381.4z"/>
<path class="st1" d="M289.8,371.2H170.1c-5.9,0-10.6-4.8-10.6-10.6v-63.6c0-5.9,4.8-10.6,10.6-10.6h119.7c5.9,0,10.6,4.8,10.6,10.6
	v63.6C300.4,366.4,295.7,371.2,289.8,371.2z"/>
<path class="st0" d="M464,381.4H336.1c-8.3,0-15.1-6.7-15.1-15.1v-75.3c0-8.3,6.7-15.1,15.1-15.1h127.9c8.3,0,15.1,6.7,15.1,15.1
	v75.3C479,374.7,472.3,381.4,464,381.4z"/>
<path class="st1" d="M459.8,371.2H340.2c-5.9,0-10.6-4.8-10.6-10.6v-63.6c0-5.9,4.8-10.6,10.6-10.6h119.7c5.9,0,10.6,4.8,10.6,10.6
	v63.6C470.5,366.4,465.7,371.2,459.8,371.2z"/>
<path class="st0" d="M634,381.4H506.1c-8.3,0-15.1-6.7-15.1-15.1v-75.3c0-8.3,6.7-15.1,15.1-15.1H634c8.3,0,15.1,6.7,15.1,15.1v75.3
	C649.1,374.7,642.4,381.4,634,381.4z"/>
<path class="st1" d="M629.9,371.2H510.3c-5.9,0-10.6-4.8-10.6-10.6v-63.6c0-5.9,4.8-10.6,10.6-10.6h119.7c5.9,0,10.6,4.8,10.6,10.6
	v63.6C640.6,366.4,635.8,371.2,629.9,371.2z"/>
<g>
	<path class="st2" d="M240,76.5h-22.4c-2.2,0-4,1.8-4,4V103c0,2.2,1.8,4,4,4H240c2.2,0,4-1.8,4-4V80.6C244,78.4,242.2,76.5,240,76.5
		z M217.6,77.5H240c1.7,0,3,1.4,3,3v12.6l-6.2-8.8l-10.9,10.2l-3.9-5.1l-7.4,6v-15C214.5,78.9,215.9,77.5,217.6,77.5z M240,106
		h-22.4c-1.7,0-3-1.4-3-3v-6.1l7.2-5.9l4,5.1l10.9-10.2l6.4,9v8.1C243,104.7,241.7,106,240,106z"/>
	<path class="st2" d="M221.4,86.5c1.8,0,3.3-1.5,3.3-3.3s-1.5-3.3-3.3-3.3s-3.3,1.5-3.3,3.3S219.6,86.5,221.4,86.5z M221.4,80.9
		c1.2,0,2.3,1,2.3,2.3c0,1.2-1,2.3-2.3,2.3c-1.2,0-2.3-1-2.3-2.3C219.1,82,220.2,80.9,221.4,80.9z"/>
</g>
<g>
	<path class="st2" d="M411.4,76.5H389c-2.2,0-4,1.8-4,4V103c0,2.2,1.8,4,4,4h22.4c2.2,0,4-1.8,4-4V80.6
		C415.4,78.4,413.6,76.5,411.4,76.5z M389,77.5h22.4c1.7,0,3,1.4,3,3v12.6l-6.2-8.8l-10.9,10.2l-3.9-5.1l-7.4,6v-15
		C385.9,78.9,387.3,77.5,389,77.5z M411.4,106H389c-1.7,0-3-1.4-3-3v-6.1l7.2-5.9l4,5.1L408,85.9l6.4,9v8.1
		C414.4,104.7,413,106,411.4,106z"/>
	<path class="st2" d="M392.8,86.5c1.8,0,3.3-1.5,3.3-3.3s-1.5-3.3-3.3-3.3s-3.3,1.5-3.3,3.3S391,86.5,392.8,86.5z M392.8,80.9
		c1.2,0,2.3,1,2.3,2.3c0,1.2-1,2.3-2.3,2.3c-1.2,0-2.3-1-2.3-2.3C390.5,82,391.6,80.9,392.8,80.9z"/>
</g>
<g>
	<path class="st2" d="M582.4,76.5H560c-2.2,0-4,1.8-4,4V103c0,2.2,1.8,4,4,4h22.4c2.2,0,4-1.8,4-4V80.6
		C586.5,78.4,584.6,76.5,582.4,76.5z M560,77.5h22.4c1.7,0,3,1.4,3,3v12.6l-6.2-8.8l-10.9,10.2l-3.9-5.1l-7.4,6v-15
		C557,78.9,558.3,77.5,560,77.5z M582.4,106H560c-1.7,0-3-1.4-3-3v-6.1l7.2-5.9l4,5.1l10.9-10.2l6.4,9v8.1
		C585.5,104.7,584.1,106,582.4,106z"/>
	<path class="st2" d="M563.9,86.5c1.8,0,3.3-1.5,3.3-3.3s-1.5-3.3-3.3-3.3s-3.3,1.5-3.3,3.3S562.1,86.5,563.9,86.5z M563.9,80.9
		c1.2,0,2.3,1,2.3,2.3c0,1.2-1,2.3-2.3,2.3c-1.2,0-2.3-1-2.3-2.3C561.6,82,562.6,80.9,563.9,80.9z"/>
</g>
<g>
	<path class="st2" d="M240,195.3h-22.4c-2.2,0-4,1.8-4,4v22.4c0,2.2,1.8,4,4,4H240c2.2,0,4-1.8,4-4v-22.4
		C244,197.1,242.2,195.3,240,195.3z M217.6,196.3H240c1.7,0,3,1.4,3,3v12.6l-6.2-8.8l-10.9,10.2l-3.9-5.1l-7.4,6v-15
		C214.5,197.6,215.9,196.3,217.6,196.3z M240,224.8h-22.4c-1.7,0-3-1.4-3-3v-6.1l7.2-5.9l4,5.1l10.9-10.2l6.4,9v8.1
		C243,223.4,241.7,224.8,240,224.8z"/>
	<path class="st2" d="M221.4,205.2c1.8,0,3.3-1.5,3.3-3.3s-1.5-3.3-3.3-3.3s-3.3,1.5-3.3,3.3S219.6,205.2,221.4,205.2z M221.4,199.7
		c1.2,0,2.3,1,2.3,2.3c0,1.2-1,2.3-2.3,2.3c-1.2,0-2.3-1-2.3-2.3C219.1,200.7,220.2,199.7,221.4,199.7z"/>
</g>
<g>
	<path class="st2" d="M411.4,195.3H389c-2.2,0-4,1.8-4,4v22.4c0,2.2,1.8,4,4,4h22.4c2.2,0,4-1.8,4-4v-22.4
		C415.4,197.1,413.6,195.3,411.4,195.3z M389,196.3h22.4c1.7,0,3,1.4,3,3v12.6l-6.2-8.8l-10.9,10.2l-3.9-5.1l-7.4,6v-15
		C385.9,197.6,387.3,196.3,389,196.3z M411.4,224.8H389c-1.7,0-3-1.4-3-3v-6.1l7.2-5.9l4,5.1l10.9-10.2l6.4,9v8.1
		C414.4,223.4,413,224.8,411.4,224.8z"/>
	<path class="st2" d="M392.8,205.2c1.8,0,3.3-1.5,3.3-3.3s-1.5-3.3-3.3-3.3s-3.3,1.5-3.3,3.3S391,205.2,392.8,205.2z M392.8,199.7
		c1.2,0,2.3,1,2.3,2.3c0,1.2-1,2.3-2.3,2.3c-1.2,0-2.3-1-2.3-2.3C390.5,200.7,391.6,199.7,392.8,199.7z"/>
</g>
<g>
	<path class="st2" d="M582.4,195.3H560c-2.2,0-4,1.8-4,4v22.4c0,2.2,1.8,4,4,4h22.4c2.2,0,4-1.8,4-4v-22.4
		C586.5,197.1,584.6,195.3,582.4,195.3z M560,196.3h22.4c1.7,0,3,1.4,3,3v12.6l-6.2-8.8l-10.9,10.2l-3.9-5.1l-7.4,6v-15
		C557,197.6,558.3,196.3,560,196.3z M582.4,224.8H560c-1.7,0-3-1.4-3-3v-6.1l7.2-5.9l4,5.1l10.9-10.2l6.4,9v8.1
		C585.5,223.4,584.1,224.8,582.4,224.8z"/>
	<path class="st2" d="M563.9,205.2c1.8,0,3.3-1.5,3.3-3.3s-1.5-3.3-3.3-3.3s-3.3,1.5-3.3,3.3S562.1,205.2,563.9,205.2z M563.9,199.7
		c1.2,0,2.3,1,2.3,2.3c0,1.2-1,2.3-2.3,2.3c-1.2,0-2.3-1-2.3-2.3C561.6,200.7,562.6,199.7,563.9,199.7z"/>
</g>
<g>
	<path class="st2" d="M240,314h-22.4c-2.2,0-4,1.8-4,4v22.4c0,2.2,1.8,4,4,4H240c2.2,0,4-1.8,4-4v-22.4C244,315.8,242.2,314,240,314
		z M217.6,315H240c1.7,0,3,1.4,3,3v12.6l-6.2-8.8l-10.9,10.2l-3.9-5.1l-7.4,6v-15C214.5,316.4,215.9,315,217.6,315z M240,343.5
		h-22.4c-1.7,0-3-1.4-3-3v-6.1l7.2-5.9l4,5.1l10.9-10.2l6.4,9v8.1C243,342.1,241.7,343.5,240,343.5z"/>
	<path class="st2" d="M221.4,323.9c1.8,0,3.3-1.5,3.3-3.3s-1.5-3.3-3.3-3.3s-3.3,1.5-3.3,3.3S219.6,323.9,221.4,323.9z M221.4,318.4
		c1.2,0,2.3,1,2.3,2.3c0,1.2-1,2.3-2.3,2.3c-1.2,0-2.3-1-2.3-2.3C219.1,319.4,220.2,318.4,221.4,318.4z"/>
</g>
<g>
	<path class="st2" d="M411.4,314H389c-2.2,0-4,1.8-4,4v22.4c0,2.2,1.8,4,4,4h22.4c2.2,0,4-1.8,4-4v-22.4
		C415.4,315.8,413.6,314,411.4,314z M389,315h22.4c1.7,0,3,1.4,3,3v12.6l-6.2-8.8l-10.9,10.2l-3.9-5.1l-7.4,6v-15
		C385.9,316.4,387.3,315,389,315z M411.4,343.5H389c-1.7,0-3-1.4-3-3v-6.1l7.2-5.9l4,5.1l10.9-10.2l6.4,9v8.1
		C414.4,342.1,413,343.5,411.4,343.5z"/>
	<path class="st2" d="M392.8,323.9c1.8,0,3.3-1.5,3.3-3.3s-1.5-3.3-3.3-3.3s-3.3,1.5-3.3,3.3S391,323.9,392.8,323.9z M392.8,318.4
		c1.2,0,2.3,1,2.3,2.3c0,1.2-1,2.3-2.3,2.3c-1.2,0-2.3-1-2.3-2.3C390.5,319.4,391.6,318.4,392.8,318.4z"/>
</g>
<g>
	<path class="st2" d="M582.4,314H560c-2.2,0-4,1.8-4,4v22.4c0,2.2,1.8,4,4,4h22.4c2.2,0,4-1.8,4-4v-22.4
		C586.5,315.8,584.6,314,582.4,314z M560,315h22.4c1.7,0,3,1.4,3,3v12.6l-6.2-8.8l-10.9,10.2l-3.9-5.1l-7.4,6v-15
		C557,316.4,558.3,315,560,315z M582.4,343.5H560c-1.7,0-3-1.4-3-3v-6.1l7.2-5.9l4,5.1l10.9-10.2l6.4,9v8.1
		C585.5,342.1,584.1,343.5,582.4,343.5z"/>
	<path class="st2" d="M563.9,323.9c1.8,0,3.3-1.5,3.3-3.3s-1.5-3.3-3.3-3.3s-3.3,1.5-3.3,3.3S562.1,323.9,563.9,323.9z M563.9,318.4
		c1.2,0,2.3,1,2.3,2.3c0,1.2-1,2.3-2.3,2.3c-1.2,0-2.3-1-2.3-2.3C561.6,319.4,562.6,318.4,563.9,318.4z"/>
</g>
</svg>
