<?xml version="1.0" encoding="utf-8"?>
<!-- Generator: Adobe Illustrator 25.2.0, SVG Export Plug-In . SVG Version: 6.00 Build 0)  -->
<svg version="1.1" id="Calque_1" xmlns="http://www.w3.org/2000/svg" xmlns:xlink="http://www.w3.org/1999/xlink" x="0px" y="0px"
	 viewBox="0 0 800 421" style="enable-background:new 0 0 800 421;" xml:space="preserve">
<style type="text/css">
	.st0{fill:#18182F;stroke:#32324C;stroke-miterlimit:10;}
	.st1{opacity:0.1;fill:#A7A7BC;enable-background:new    ;}
</style>
<path class="st0" d="M631.9,347.1H168.1c-25.7,0-46.5-20.8-46.5-46.5V120.4c0-25.7,20.8-46.5,46.5-46.5h463.7
	c25.7,0,46.5,20.8,46.5,46.5v180.3C678.4,326.3,657.5,347.1,631.9,347.1z"/>
<path id="XMLID_12_" class="st1" d="M420.3,152.3h56.5c1.1,0,1.9,2,1.9,4.5v8.4c0,2.4-0.9,4.5-1.9,4.5h-56.5c-1.1,0-1.9-2-1.9-4.5
	v-8.4C418.4,154.3,419.3,152.3,420.3,152.3z"/>
<path id="XMLID_11_" class="st1" d="M422.5,178h86.1c2.3,0,4.1,2,4.1,4.5v8.4c0,2.4-1.8,4.5-4.1,4.5h-86.1c-2.3,0-4.1-2-4.1-4.5
	v-8.4C418.3,180,420.2,178,422.5,178z"/>
<path id="XMLID_2_" class="st1" d="M543.6,152.3h56.5c1.1,0,1.9,2,1.9,4.5v8.4c0,2.4-0.9,4.5-1.9,4.5h-56.5c-1.1,0-1.9-2-1.9-4.5
	v-8.4C541.7,154.3,542.6,152.3,543.6,152.3z"/>
<path id="XMLID_1_" class="st1" d="M545.9,178h86c2.3,0,4.2,2,4.2,4.5v8.4c0,2.4-1.9,4.5-4.2,4.5h-86c-2.3,0-4.2-2-4.2-4.5v-8.4
	C541.7,180,543.5,178,545.9,178z"/>
<path id="XMLID_6_" class="st1" d="M420.3,225.6h56.5c1.1,0,1.9,2,1.9,4.5v8.4c0,2.4-0.9,4.5-1.9,4.5h-56.5c-1.1,0-1.9-2-1.9-4.5
	v-8.4C418.4,227.6,419.3,225.6,420.3,225.6z"/>
<path id="XMLID_5_" class="st1" d="M422.5,251.3h86.1c2.3,0,4.1,2,4.1,4.5v8.4c0,2.4-1.8,4.5-4.1,4.5h-86.1c-2.3,0-4.1-2-4.1-4.5
	v-8.4C418.3,253.3,420.2,251.3,422.5,251.3z"/>
<path id="XMLID_4_" class="st1" d="M543.6,225.6h56.5c1.1,0,1.9,2,1.9,4.5v8.4c0,2.4-0.9,4.5-1.9,4.5h-56.5c-1.1,0-1.9-2-1.9-4.5
	v-8.4C541.7,227.6,542.6,225.6,543.6,225.6z"/>
<path id="XMLID_3_" class="st1" d="M545.9,251.3h86c2.3,0,4.2,2,4.2,4.5v8.4c0,2.4-1.9,4.5-4.2,4.5h-86c-2.3,0-4.2-2-4.2-4.5v-8.4
	C541.7,253.3,543.5,251.3,545.9,251.3z"/>
<path class="st1" d="M370.6,297.6H190.4c-12.9,0-23.4-10.5-23.4-23.4V146.7c0-12.9,10.5-23.4,23.4-23.4h180.2
	c12.9,0,23.4,10.5,23.4,23.4v127.5C394,287.2,383.5,297.6,370.6,297.6z"/>
</svg>
