<?xml version="1.0" encoding="utf-8"?>
<!-- Generator: Adobe Illustrator 25.2.0, SVG Export Plug-In . SVG Version: 6.00 Build 0)  -->
<svg version="1.1" id="Calque_1" xmlns="http://www.w3.org/2000/svg" xmlns:xlink="http://www.w3.org/1999/xlink" x="0px" y="0px"
	 viewBox="0 0 800 421" style="enable-background:new 0 0 800 421;" xml:space="preserve">
<style type="text/css">
	.st0{fill:#FFFFFF;stroke:#C7BED3;stroke-miterlimit:10;}
	.st1{opacity:0.1;enable-background:new    ;}
	.st2{fill:#8217FD;}
</style>
<path class="st0" d="M525.1,395.9H274.9c-18.6,0-33.6-15.1-33.6-33.6V62.9c0-18.6,15.1-33.6,33.6-33.6H525
	c18.6,0,33.6,15.1,33.6,33.6v299.4C558.7,380.9,543.6,395.9,525.1,395.9z"/>
<path id="XMLID_5_" class="st1" d="M285.4,185.2h199.4c3.8,0,6.8,2.1,6.8,4.8v8.9c0,2.6-3.1,4.8-6.8,4.8H285.4
	c-3.8,0-6.8-2.1-6.8-4.8V190C278.5,187.3,281.6,185.2,285.4,185.2z"/>
<path id="XMLID_6_" class="st1" d="M355.9,85.3h148.7c2.8,0,5.1,2.1,5.1,4.8V99c0,2.6-2.3,4.8-5.1,4.8H355.9c-2.8,0-5.1-2.1-5.1-4.8
	v-8.9C350.8,87.4,353.1,85.3,355.9,85.3z"/>
<path id="XMLID_8_" class="st1" d="M354.5,112.5h106.8c2,0,3.7,2.1,3.7,4.8v8.9c0,2.6-1.6,4.8-3.7,4.8H354.5c-2,0-3.7-2.1-3.7-4.8
	v-8.9C350.8,114.6,352.4,112.5,354.5,112.5z"/>
<path id="XMLID_7_" class="st1" d="M286.2,212.5H445c4.2,0,7.7,2.1,7.7,4.8v8.9c0,2.6-3.4,4.8-7.7,4.8H286.2c-4.2,0-7.7-2.1-7.7-4.8
	v-8.9C278.5,214.6,281.9,212.5,286.2,212.5z"/>
<path id="XMLID_4_" class="st1" d="M287.5,239.7h186.2c5,0,9,2.1,9,4.8v8.9c0,2.6-4,4.8-9,4.8H287.5c-5,0-9-2.1-9-4.8v-8.9
	C278.5,241.9,282.5,239.7,287.5,239.7z"/>
<path class="st1" d="M320.8,136.2h-25.4c-9.3,0-16.9-7.5-16.9-16.9V93.9c0-9.3,7.5-16.9,16.9-16.9h25.4c9.3,0,16.9,7.5,16.9,16.9
	v25.4C337.6,128.6,330.1,136.2,320.8,136.2z"/>
<path class="st2" d="M513.7,356.8h-222c-7.3,0-13.2-5.9-13.2-13.2v-23.2c0-7.3,5.9-13.2,13.2-13.2h222c7.3,0,13.2,5.9,13.2,13.2
	v23.2C526.9,350.9,521,356.8,513.7,356.8z"/>
</svg>
