<?xml version="1.0" encoding="utf-8"?>
<!-- Generator: Adobe Illustrator 25.2.0, SVG Export Plug-In . SVG Version: 6.00 Build 0)  -->
<svg version="1.1" id="Calque_1" xmlns="http://www.w3.org/2000/svg" xmlns:xlink="http://www.w3.org/1999/xlink" x="0px" y="0px"
	 viewBox="0 0 800 421" style="enable-background:new 0 0 800 421;" xml:space="preserve">
<style type="text/css">
	.st0{fill:#FFFFFF;stroke:#C7BED3;stroke-miterlimit:10;}
	.st1{opacity:0.1;enable-background:new    ;}
</style>
<g>
	<path class="st0" d="M230.9,339.4H69c-16.5,0-29.8-13.3-29.8-29.8V111.4C39.2,95,52.5,81.6,69,81.6h161.9
		c16.5,0,29.8,13.3,29.8,29.8v198.1C260.7,326,247.4,339.4,230.9,339.4z"/>
	<path class="st0" d="M480,339.4H318c-16.5,0-29.8-13.3-29.8-29.8V111.4c0-16.5,13.3-29.8,29.8-29.8h162c16.5,0,29.8,13.3,29.8,29.8
		v198.1C509.8,326,496.4,339.4,480,339.4z"/>
	<path class="st0" d="M731,339.4H569.1c-16.5,0-29.8-13.3-29.8-29.8V111.4c0-16.5,13.3-29.8,29.8-29.8H731
		c16.5,0,29.8,13.3,29.8,29.8v198.1C760.8,326,747.5,339.4,731,339.4z"/>
	<path id="XMLID_6_" class="st1" d="M115.3,122.3h95.6c1.8,0,3.3,1.4,3.3,3.1v5.7c0,1.7-1.5,3.1-3.3,3.1h-95.6
		c-1.8,0-3.3-1.4-3.3-3.1v-5.7C112,123.6,113.5,122.3,115.3,122.3z"/>
	<path id="XMLID_8_" class="st1" d="M114.4,139.8h68.7c1.3,0,2.4,1.4,2.4,3.1v5.7c0,1.7-1,3.1-2.4,3.1h-68.7c-1.3,0-2.4-1.4-2.4-3.1
		v-5.7C112,141.1,113.1,139.8,114.4,139.8z"/>
	<path class="st1" d="M92.7,155H76.4c-6,0-10.9-4.8-10.9-10.9v-16.3c0-6,4.8-10.9,10.9-10.9h16.3c6,0,10.9,4.8,10.9,10.9v16.3
		C103.5,150.1,98.7,155,92.7,155z"/>
	<path id="XMLID_5_" class="st1" d="M70.6,185.3h146c2.8,0,5,1.5,5,3.5v6.5c0,1.9-2.3,3.5-5,3.5h-146c-2.8,0-5-1.5-5-3.5v-6.5
		C65.5,186.8,67.8,185.3,70.6,185.3z"/>
	<path id="XMLID_7_" class="st1" d="M71.2,205.3h116.3c3.1,0,5.6,1.5,5.6,3.5v6.5c0,1.9-2.5,3.5-5.6,3.5H71.2
		c-3.1,0-5.6-1.5-5.6-3.5v-6.5C65.5,206.8,68,205.3,71.2,205.3z"/>
	<path id="XMLID_4_" class="st1" d="M72.1,225.2h136.3c3.7,0,6.6,1.5,6.6,3.5v6.5c0,1.9-2.9,3.5-6.6,3.5H72.1
		c-3.7,0-6.6-1.5-6.6-3.5v-6.5C65.5,226.8,68.5,225.2,72.1,225.2z"/>
	<circle class="st1" cx="156.6" cy="285.5" r="13.1"/>
	<circle class="st1" cx="190" cy="285.5" r="13.1"/>
	<circle class="st1" cx="223.3" cy="285.5" r="13.1"/>
	<path id="XMLID_10_" class="st1" d="M364.3,122.3H460c1.8,0,3.3,1.4,3.3,3.1v5.7c0,1.7-1.5,3.1-3.3,3.1h-95.6
		c-1.8,0-3.3-1.4-3.3-3.1v-5.7C361.1,123.6,362.5,122.3,364.3,122.3z"/>
	<path id="XMLID_9_" class="st1" d="M363.4,139.8h68.7c1.3,0,2.4,1.4,2.4,3.1v5.7c0,1.7-1,3.1-2.4,3.1h-68.7c-1.3,0-2.4-1.4-2.4-3.1
		v-5.7C361.1,141.1,362.1,139.8,363.4,139.8z"/>
	<path class="st1" d="M341.8,155h-16.3c-6,0-10.9-4.8-10.9-10.9v-16.3c0-6,4.8-10.9,10.9-10.9h16.3c6,0,10.9,4.8,10.9,10.9v16.3
		C352.6,150.1,347.7,155,341.8,155z"/>
	<path id="XMLID_3_" class="st1" d="M319.6,185.3h146c2.8,0,5,1.5,5,3.5v6.5c0,1.9-2.3,3.5-5,3.5h-146c-2.8,0-5-1.5-5-3.5v-6.5
		C314.6,186.8,316.8,185.3,319.6,185.3z"/>
	<path id="XMLID_2_" class="st1" d="M320.2,205.3h116.3c3.1,0,5.6,1.5,5.6,3.5v6.5c0,1.9-2.5,3.5-5.6,3.5H320.2
		c-3.1,0-5.6-1.5-5.6-3.5v-6.5C314.6,206.8,317.1,205.3,320.2,205.3z"/>
	<path id="XMLID_1_" class="st1" d="M321.2,225.2h136.3c3.7,0,6.6,1.5,6.6,3.5v6.5c0,1.9-2.9,3.5-6.6,3.5H321.2
		c-3.7,0-6.6-1.5-6.6-3.5v-6.5C314.6,226.8,317.5,225.2,321.2,225.2z"/>
	<circle class="st1" cx="405.7" cy="285.5" r="13.1"/>
	<circle class="st1" cx="439" cy="285.5" r="13.1"/>
	<circle class="st1" cx="472.4" cy="285.5" r="13.1"/>
	<path id="XMLID_15_" class="st1" d="M614.4,122.3H710c1.8,0,3.3,1.4,3.3,3.1v5.7c0,1.7-1.5,3.1-3.3,3.1h-95.6
		c-1.8,0-3.3-1.4-3.3-3.1v-5.7C611.1,123.6,612.6,122.3,614.4,122.3z"/>
	<path id="XMLID_14_" class="st1" d="M613.5,139.8h68.7c1.3,0,2.4,1.4,2.4,3.1v5.7c0,1.7-1,3.1-2.4,3.1h-68.7
		c-1.3,0-2.4-1.4-2.4-3.1v-5.7C611.1,141.1,612.1,139.8,613.5,139.8z"/>
	<path class="st1" d="M591.8,155h-16.3c-6,0-10.9-4.8-10.9-10.9v-16.3c0-6,4.8-10.9,10.9-10.9h16.3c6,0,10.9,4.8,10.9,10.9v16.3
		C602.6,150.1,597.8,155,591.8,155z"/>
	<path id="XMLID_13_" class="st1" d="M569.7,185.3h146c2.8,0,5,1.5,5,3.5v6.5c0,1.9-2.3,3.5-5,3.5h-146c-2.8,0-5-1.5-5-3.5v-6.5
		C564.6,186.8,566.9,185.3,569.7,185.3z"/>
	<path id="XMLID_12_" class="st1" d="M570.3,205.3h116.3c3.1,0,5.6,1.5,5.6,3.5v6.5c0,1.9-2.5,3.5-5.6,3.5H570.3
		c-3.1,0-5.6-1.5-5.6-3.5v-6.5C564.6,206.8,567.1,205.3,570.3,205.3z"/>
	<path id="XMLID_11_" class="st1" d="M571.2,225.2h136.3c3.7,0,6.6,1.5,6.6,3.5v6.5c0,1.9-2.9,3.5-6.6,3.5H571.2
		c-3.7,0-6.6-1.5-6.6-3.5v-6.5C564.6,226.8,567.6,225.2,571.2,225.2z"/>
	<circle class="st1" cx="655.7" cy="285.5" r="13.1"/>
	<circle class="st1" cx="689.1" cy="285.5" r="13.1"/>
	<circle class="st1" cx="722.4" cy="285.5" r="13.1"/>
</g>
</svg>
