<?xml version="1.0" encoding="utf-8"?>
<!-- Generator: Adobe Illustrator 25.2.0, SVG Export Plug-In . SVG Version: 6.00 Build 0)  -->
<svg version="1.1" id="Calque_1" xmlns="http://www.w3.org/2000/svg" xmlns:xlink="http://www.w3.org/1999/xlink" x="0px" y="0px"
	 viewBox="0 0 800 421" style="enable-background:new 0 0 800 421;" xml:space="preserve">
<style type="text/css">
	.st0{fill:#18182F;stroke:#32324C;stroke-miterlimit:10;}
	.st1{opacity:0.1;fill:#A7A7BC;enable-background:new    ;}
</style>
<path class="st0" d="M683.9,347.1H113.2c-31.6,0-57.2-20.8-57.2-46.5V120.4c0-25.7,25.6-46.5,57.2-46.5h570.6
	c31.6,0,57.2,20.8,57.2,46.5v180.3C741.1,326.3,715.4,347.1,683.9,347.1z"/>
<path id="XMLID_5_" class="st1" d="M98.9,228.6h159.6c3,0,5.4,2,5.4,4.5v8.4c0,2.4-2.5,4.5-5.4,4.5H98.9c-3,0-5.4-2-5.4-4.5v-8.4
	C93.4,230.6,95.9,228.6,98.9,228.6z"/>
<path id="XMLID_7_" class="st1" d="M100.1,254.3H238c3.7,0,6.7,2,6.7,4.5v8.4c0,2.4-3,4.5-6.7,4.5H100.1c-3.7,0-6.7-2-6.7-4.5v-8.4
	C93.4,256.3,96.3,254.3,100.1,254.3z"/>
<path id="XMLID_2_" class="st1" d="M98.9,279.9h159.6c3,0,5.4,2,5.4,4.5v8.4c0,2.4-2.5,4.5-5.4,4.5H98.9c-3,0-5.4-2-5.4-4.5v-8.4
	C93.4,281.9,95.9,279.9,98.9,279.9z"/>
<path class="st1" d="M247.9,211.1H109.5c-8.9,0-16.1-7.2-16.1-16.1v-66.5c0-8.9,7.2-16.1,16.1-16.1h138.3c8.9,0,16.1,7.2,16.1,16.1
	V195C263.9,203.9,256.7,211.1,247.9,211.1z"/>
<path id="XMLID_15_" class="st1" d="M320.2,228.6h159.6c3,0,5.4,2,5.4,4.5v8.4c0,2.4-2.5,4.5-5.4,4.5H320.2c-3,0-5.4-2-5.4-4.5v-8.4
	C314.7,230.6,317.2,228.6,320.2,228.6z"/>
<path id="XMLID_14_" class="st1" d="M321.4,254.3h137.9c3.7,0,6.7,2,6.7,4.5v8.4c0,2.4-3,4.5-6.7,4.5H321.4c-3.7,0-6.7-2-6.7-4.5
	v-8.4C314.7,256.3,317.7,254.3,321.4,254.3z"/>
<path id="XMLID_13_" class="st1" d="M320.2,279.9h159.6c3,0,5.4,2,5.4,4.5v8.4c0,2.4-2.5,4.5-5.4,4.5H320.2c-3,0-5.4-2-5.4-4.5v-8.4
	C314.7,281.9,317.2,279.9,320.2,279.9z"/>
<path class="st1" d="M469.2,211.1H330.8c-8.9,0-16.1-7.2-16.1-16.1v-66.5c0-8.9,7.2-16.1,16.1-16.1h138.3c8.9,0,16.1,7.2,16.1,16.1
	V195C485.2,203.9,478,211.1,469.2,211.1z"/>
<path id="XMLID_18_" class="st1" d="M536.4,228.6H696c3,0,5.4,2,5.4,4.5v8.4c0,2.4-2.5,4.5-5.4,4.5H536.4c-3,0-5.4-2-5.4-4.5v-8.4
	C530.9,230.6,533.4,228.6,536.4,228.6z"/>
<path id="XMLID_17_" class="st1" d="M537.6,254.3h137.9c3.7,0,6.7,2,6.7,4.5v8.4c0,2.4-3,4.5-6.7,4.5H537.6c-3.7,0-6.7-2-6.7-4.5
	v-8.4C530.9,256.3,533.9,254.3,537.6,254.3z"/>
<path id="XMLID_16_" class="st1" d="M536.4,279.9H696c3,0,5.4,2,5.4,4.5v8.4c0,2.4-2.5,4.5-5.4,4.5H536.4c-3,0-5.4-2-5.4-4.5v-8.4
	C530.9,281.9,533.4,279.9,536.4,279.9z"/>
<path class="st1" d="M685.4,211.1H547c-8.9,0-16.1-7.2-16.1-16.1v-66.5c0-8.9,7.2-16.1,16.1-16.1h138.3c8.9,0,16.1,7.2,16.1,16.1
	V195C701.4,203.9,694.2,211.1,685.4,211.1z"/>
</svg>
