<?xml version="1.0" encoding="utf-8"?>
<!-- Generator: Adobe Illustrator 25.2.0, SVG Export Plug-In . SVG Version: 6.00 Build 0)  -->
<svg version="1.1" id="Calque_1" xmlns="http://www.w3.org/2000/svg" xmlns:xlink="http://www.w3.org/1999/xlink" x="0px" y="0px"
	 viewBox="0 0 800 421" style="enable-background:new 0 0 800 421;" xml:space="preserve">
<style type="text/css">
	.st0{fill:#FFFFFF;stroke:#C7BED3;stroke-miterlimit:10;}
	.st1{opacity:0.1;enable-background:new    ;}
	.st2{fill:#8217FD;}
	.st3{fill:none;stroke:#C7BED3;stroke-miterlimit:10;}
</style>
<path class="st0" d="M675.7,368.4H124.3c-17.3,0-31.3-14-31.3-31.3V83.9c0-17.3,14-31.3,31.3-31.3h551.3c17.3,0,31.3,14,31.3,31.3
	v253.2C707,354.4,693,368.4,675.7,368.4z"/>
<g>
	<path id="XMLID_6_" class="st1" d="M152.4,141.7h153.5c4.1,0,7.4,2,7.4,4.6v8.5c0,2.5-3.3,4.6-7.4,4.6H152.4c-4.1,0-7.4-2-7.4-4.6
		v-8.5C145,143.7,148.3,141.7,152.4,141.7z"/>
	<path id="XMLID_9_" class="st1" d="M154,171.7h185.2c4.9,0,9,2,9,4.6v8.5c0,2.5-4,4.6-9,4.6H154c-4.9,0-9-2-9-4.6v-8.5
		C145,173.7,149,171.7,154,171.7z"/>
	<path id="XMLID_10_" class="st1" d="M154,201.6h185.2c4.9,0,9,2,9,4.6v8.5c0,2.5-4,4.6-9,4.6H154c-4.9,0-9-2-9-4.6v-8.5
		C145,203.6,149,201.6,154,201.6z"/>
	<path id="XMLID_11_" class="st1" d="M152,231.6h144.1c3.8,0,7,2,7,4.6v8.5c0,2.5-3.1,4.6-7,4.6H152c-3.8,0-7-2-7-4.6v-8.5
		C145,233.6,148.1,231.6,152,231.6z"/>
	<path id="XMLID_12_" class="st1" d="M149.5,261.6h92.6c2.4,0,4.5,2,4.5,4.6v8.5c0,2.5-2,4.6-4.5,4.6h-92.6c-2.4,0-4.5-2-4.5-4.6
		v-8.5C145,263.6,147,261.6,149.5,261.6z"/>
</g>
<path id="XMLID_3_" class="st1" d="M438.9,88.8h115.3c3,0,5.6,2,5.6,4.6v8.5c0,2.5-2.5,4.6-5.6,4.6H438.9c-3,0-5.6-2-5.6-4.6v-8.5
	C433.3,90.8,435.8,88.8,438.9,88.8z"/>
<path id="XMLID_2_" class="st1" d="M453.3,138.3h57.6c1.5,0,2.8,1,2.8,2.3v4.3c0,1.2-1.2,2.3-2.8,2.3h-57.6c-1.5,0-2.8-1-2.8-2.3
	v-4.3C450.5,139.3,451.7,138.3,453.3,138.3z"/>
<path id="XMLID_4_" class="st1" d="M453.3,190.7h57.6c1.5,0,2.8,1,2.8,2.3v4.3c0,1.2-1.2,2.3-2.8,2.3h-57.6c-1.5,0-2.8-1-2.8-2.3
	V193C450.5,191.7,451.7,190.7,453.3,190.7z"/>
<path id="XMLID_1_" class="st1" d="M453.3,242.2h57.6c1.5,0,2.8,1,2.8,2.3v4.3c0,1.2-1.2,2.3-2.8,2.3h-57.6c-1.5,0-2.8-1-2.8-2.3
	v-4.3C450.5,243.3,451.7,242.2,453.3,242.2z"/>
<path class="st2" d="M648,332.2H445.3c-6.7,0-12.1-5.9-12.1-13.2v-23.2c0-7.3,5.4-13.2,12.1-13.2H648c6.7,0,12.1,5.9,12.1,13.2V319
	C660.1,326.3,654.7,332.2,648,332.2z"/>
<path class="st3" d="M648.4,164.6H445c-6.5,0-11.7-5.2-11.7-11.7v-18.5c0-6.5,5.2-11.7,11.7-11.7h203.4c6.5,0,11.7,5.2,11.7,11.7
	v18.5C660.1,159.3,654.8,164.6,648.4,164.6z"/>
<path class="st3" d="M648.4,216.1H445c-6.5,0-11.7-5.2-11.7-11.7v-18.5c0-6.5,5.2-11.7,11.7-11.7h203.4c6.5,0,11.7,5.2,11.7,11.7
	v18.5C660.1,210.9,654.8,216.1,648.4,216.1z"/>
<path class="st3" d="M648.4,267.7H445c-6.5,0-11.7-5.2-11.7-11.7v-18.5c0-6.5,5.2-11.7,11.7-11.7h203.4c6.5,0,11.7,5.2,11.7,11.7
	v18.5C660.1,262.4,654.8,267.7,648.4,267.7z"/>
</svg>
