<?xml version="1.0" encoding="utf-8"?>
<!-- Generator: Adobe Illustrator 25.2.0, SVG Export Plug-In . SVG Version: 6.00 Build 0)  -->
<svg version="1.1" id="Calque_1" xmlns="http://www.w3.org/2000/svg" xmlns:xlink="http://www.w3.org/1999/xlink" x="0px" y="0px"
	 viewBox="0 0 800 421" style="enable-background:new 0 0 800 421;" xml:space="preserve">
<style type="text/css">
	.st0{fill:#18182F;stroke:#32324C;stroke-miterlimit:10;}
	.st1{opacity:0.1;fill:#A7A7BC;enable-background:new    ;}
</style>
<path class="st0" d="M246.7,282h-81.2c-17.1,0-30.9-13.9-30.9-30.9v-81.2c0-17.1,13.9-30.9,30.9-30.9h81.2
	c17.1,0,30.9,13.9,30.9,30.9v81.2C277.7,268.2,263.8,282,246.7,282z"/>
<path id="XMLID_7_" class="st1" d="M157.6,201.6h40.2c1.1,0,2,2,2,4.6v8.5c0,2.5-0.9,4.6-2,4.6h-40.2c-1.1,0-2-2-2-4.6v-8.5
	C155.6,203.6,156.5,201.6,157.6,201.6z"/>
<path id="XMLID_1_" class="st1" d="M214.4,201.6h40.2c1.1,0,2,2,2,4.6v8.5c0,2.5-0.9,4.6-2,4.6h-40.2c-1.1,0-2-2-2-4.6v-8.5
	C212.4,203.6,213.3,201.6,214.4,201.6z"/>
<path class="st0" d="M440.6,282h-81.2c-17.1,0-30.9-13.9-30.9-30.9v-81.2c0-17.1,13.9-30.9,30.9-30.9h81.2
	c17.1,0,30.9,13.9,30.9,30.9v81.2C471.5,268.2,457.7,282,440.6,282z"/>
<path id="XMLID_3_" class="st1" d="M351.5,201.6h40.2c1.1,0,2,2,2,4.6v8.5c0,2.5-0.9,4.6-2,4.6h-40.2c-1.1,0-2-2-2-4.6v-8.5
	C349.5,203.6,350.4,201.6,351.5,201.6z"/>
<path id="XMLID_2_" class="st1" d="M408.3,201.6h40.2c1.1,0,2,2,2,4.6v8.5c0,2.5-0.9,4.6-2,4.6h-40.2c-1.1,0-2-2-2-4.6v-8.5
	C406.3,203.6,407.2,201.6,408.3,201.6z"/>
<path class="st0" d="M634.5,282h-81.2c-17.1,0-30.9-13.9-30.9-30.9v-81.2c0-17.1,13.9-30.9,30.9-30.9h81.2
	c17.1,0,30.9,13.9,30.9,30.9v81.2C665.4,268.2,651.6,282,634.5,282z"/>
<path id="XMLID_5_" class="st1" d="M545.4,201.6h40.2c1.1,0,2,2,2,4.6v8.5c0,2.5-0.9,4.6-2,4.6h-40.2c-1.1,0-2-2-2-4.6v-8.5
	C543.4,203.6,544.3,201.6,545.4,201.6z"/>
<path id="XMLID_4_" class="st1" d="M602.2,201.6h40.2c1.1,0,2,2,2,4.6v8.5c0,2.5-0.9,4.6-2,4.6h-40.2c-1.1,0-2-2-2-4.6v-8.5
	C600.2,203.6,601.1,201.6,602.2,201.6z"/>
</svg>
