<?xml version="1.0" encoding="utf-8"?>
<!-- Generator: Adobe Illustrator 25.2.0, SVG Export Plug-In . SVG Version: 6.00 Build 0)  -->
<svg version="1.1" id="Calque_1" xmlns="http://www.w3.org/2000/svg" xmlns:xlink="http://www.w3.org/1999/xlink" x="0px" y="0px"
	 viewBox="0 0 800 421" style="enable-background:new 0 0 800 421;" xml:space="preserve">
<style type="text/css">
	.st0{fill:#FFFFFF;stroke:#C7BED3;stroke-miterlimit:10;}
	.st1{opacity:0.1;enable-background:new    ;}
	.st2{fill:#8217FD;}
</style>
<path class="st0" d="M525.1,395.9H274.9c-18.6,0-33.6-15.1-33.6-33.6V62.9c0-18.6,15.1-33.6,33.6-33.6H525
	c18.6,0,33.6,15.1,33.6,33.6v299.4C558.7,380.9,543.6,395.9,525.1,395.9z"/>
<path id="XMLID_5_" class="st1" d="M285.9,243.3h211.8c4,0,7.2,2.1,7.2,4.8v8.9c0,2.6-3.3,4.8-7.2,4.8H285.9c-4,0-7.2-2.1-7.2-4.8
	v-8.9C278.5,245.4,281.8,243.3,285.9,243.3z"/>
<path id="XMLID_7_" class="st1" d="M287.4,270.6h183.1c4.8,0,8.9,2.1,8.9,4.8v8.9c0,2.6-3.9,4.8-8.9,4.8H287.4
	c-4.8,0-8.9-2.1-8.9-4.8v-8.9C278.5,272.7,282.5,270.6,287.4,270.6z"/>
<path class="st2" d="M513.7,356.8h-222c-7.3,0-13.2-5.9-13.2-13.2v-23.2c0-7.3,5.9-13.2,13.2-13.2h222c7.3,0,13.2,5.9,13.2,13.2
	v23.2C526.9,350.9,521,356.8,513.7,356.8z"/>
<path class="st1" d="M298.7,225.3h208c11.2,0,20.2-9,20.2-20.2V89.6c0-11.2-9-20.2-20.2-20.2h-208c-11.2,0-20.2,9-20.2,20.2v115.5
	C278.5,216.3,287.5,225.3,298.7,225.3z"/>
</svg>
