<?xml version="1.0" encoding="utf-8"?>
<!-- Generator: Adobe Illustrator 25.2.0, SVG Export Plug-In . SVG Version: 6.00 Build 0)  -->
<svg version="1.1" id="Calque_1" xmlns="http://www.w3.org/2000/svg" xmlns:xlink="http://www.w3.org/1999/xlink" x="0px" y="0px"
	 viewBox="0 0 800 421" style="enable-background:new 0 0 800 421;" xml:space="preserve">
<style type="text/css">
	.st0{fill:#18182F;stroke:#32324C;stroke-miterlimit:10;}
	.st1{opacity:0.1;fill:#A7A7BC;enable-background:new    ;}
	.st2{opacity:0.1;enable-background:new    ;}
	.st3{fill:#8217FD;}
</style>
<g>
	<path class="st0" d="M511,383.1H288.9c-14.1,0-25.5-11.4-25.5-25.5V63.3c0-14.1,11.4-25.5,25.5-25.5h222.2
		c14.1,0,25.5,11.4,25.5,25.5v294.2C536.6,371.6,525.1,383.1,511,383.1z"/>
	<path id="XMLID_4_" class="st1" d="M296.2,228.9h161.7c3.1,0,5.5,1.6,5.5,3.7v6.9c0,2-2.5,3.7-5.5,3.7H296.2
		c-3.1,0-5.5-1.6-5.5-3.7v-6.9C290.6,230.5,293.2,228.9,296.2,228.9z"/>
	<path id="XMLID_1_" class="st1" d="M296.8,277.4h176.9c3.4,0,6,1.6,6,3.7v6.9c0,2-2.8,3.7-6,3.7H296.8c-3.4,0-6-1.6-6-3.7v-6.9
		C290.6,279.1,293.4,277.4,296.8,277.4z"/>
	<path class="st2" d="M520,64.8l-3.8-3.8l3.8-3.8c0.2-0.2,0.1-0.5-0.2-0.9l-0.9-0.9c-0.3-0.3-0.7-0.4-0.9-0.2l-3.8,3.8l-3.8-3.8
		c-0.2-0.2-0.5-0.1-0.9,0.2l-0.9,0.9c-0.3,0.3-0.4,0.7-0.2,0.9l3.8,3.8l-3.8,3.8c-0.2,0.2-0.1,0.5,0.2,0.9l0.9,0.9
		c0.3,0.3,0.7,0.4,0.9,0.2l3.8-3.8l3.8,3.8c0.2,0.2,0.5,0.1,0.9-0.2l0.9-0.9C520.1,65.3,520.2,65,520,64.8z"/>
	<path id="XMLID_3_" class="st1" d="M300.1,253.1h194c5.1,0,9.4,1.6,9.4,3.7v6.9c0,2-4.2,3.7-9.4,3.7h-194c-5.1,0-9.4-1.6-9.4-3.7
		v-6.9C290.7,254.9,294.9,253.1,300.1,253.1z"/>
	<path class="st1" d="M490.2,206.2H309.9c-10.3,0-18.6-8.3-18.6-18.6V94c0-10.3,8.3-18.6,18.6-18.6h180.3c10.3,0,18.6,8.3,18.6,18.6
		v93.7C508.9,198,500.5,206.2,490.2,206.2z"/>
	<path class="st1" d="M388.2,359.1h-92c-3,0-5.5-4.4-5.5-9.8v-17.3c0-5.4,2.4-9.8,5.5-9.8h92c3,0,5.5,4.4,5.5,9.8v17.3
		C393.6,354.8,391.2,359.1,388.2,359.1z"/>
	<path class="st3" d="M502.8,359.1h-92c-3,0-5.5-4.4-5.5-9.8v-17.3c0-5.4,2.4-9.8,5.5-9.8h92c3,0,5.5,4.4,5.5,9.8v17.3
		C508.3,354.8,505.8,359.1,502.8,359.1z"/>
</g>
</svg>
