<?xml version="1.0" encoding="utf-8"?>
<!-- Generator: Adobe Illustrator 25.2.0, SVG Export Plug-In . SVG Version: 6.00 Build 0)  -->
<svg version="1.1" id="Calque_1" xmlns="http://www.w3.org/2000/svg" xmlns:xlink="http://www.w3.org/1999/xlink" x="0px" y="0px"
	 viewBox="0 0 800 421" style="enable-background:new 0 0 800 421;" xml:space="preserve">
<style type="text/css">
	.st0{opacity:0.1;fill:#A7A7BC;enable-background:new    ;}
	.st1{fill:#8217FD;}
</style>
<g>
	<g>
		<path id="XMLID_4_" class="st0" d="M319.2,222.1h161.7c3.1,0,5.5,1.6,5.5,3.7v6.9c0,2-2.5,3.7-5.5,3.7H319.2
			c-3.1,0-5.5-1.6-5.5-3.7v-6.9C313.6,223.8,316.2,222.1,319.2,222.1z"/>
		<path id="XMLID_1_" class="st0" d="M311.6,270.7h176.9c3.4,0,6,1.6,6,3.7v6.9c0,2-2.8,3.7-6,3.7H311.6c-3.4,0-6-1.6-6-3.7v-6.9
			C305.4,272.4,308.2,270.7,311.6,270.7z"/>
		<path id="XMLID_3_" class="st0" d="M303,246.4h194c5.1,0,9.4,1.6,9.4,3.7v6.9c0,2-4.2,3.7-9.4,3.7H303c-5.1,0-9.4-1.6-9.4-3.7
			v-6.9C293.6,248.1,297.8,246.4,303,246.4z"/>
	</g>
	<path class="st0" d="M490.1,199.5H309.8c-10.3,0-18.6-8.3-18.6-18.6V87.2c0-10.3,8.3-18.6,18.6-18.6h180.3
		c10.3,0,18.6,8.3,18.6,18.6v93.7C508.8,191.2,500.4,199.5,490.1,199.5z"/>
	<g>
		<path class="st0" d="M388.7,352.4h-92c-3,0-5.5-4.4-5.5-9.8v-17.3c0-5.4,2.4-9.8,5.5-9.8h92c3,0,5.5,4.4,5.5,9.8v17.3
			C394.1,348,391.7,352.4,388.7,352.4z"/>
		<path class="st1" d="M503.3,352.4h-92c-3,0-5.5-4.4-5.5-9.8v-17.3c0-5.4,2.4-9.8,5.5-9.8h92c3,0,5.5,4.4,5.5,9.8v17.3
			C508.8,348,506.3,352.4,503.3,352.4z"/>
	</g>
</g>
</svg>
