<?xml version="1.0" encoding="utf-8"?>
<!-- Generator: Adobe Illustrator 25.2.0, SVG Export Plug-In . SVG Version: 6.00 Build 0)  -->
<svg version="1.1" id="Calque_1" xmlns="http://www.w3.org/2000/svg" xmlns:xlink="http://www.w3.org/1999/xlink" x="0px" y="0px"
	 viewBox="0 0 800 421" style="enable-background:new 0 0 800 421;" xml:space="preserve">
<style type="text/css">
	.st0{opacity:0.1;enable-background:new    ;}
</style>
<g>
	<path class="st0" d="M392.3,176.4c64.4,0,116.7,52.2,116.7,116.7h67.1c0-101.5-82.3-183.8-183.8-183.8s-183.8,82.3-183.8,183.8
		h67.1C275.7,228.6,327.9,176.4,392.3,176.4z"/>
	<path class="st0" d="M392.3,232.3c33.5,0,60.7,27.2,60.7,60.7H488c0-52.8-42.8-95.7-95.7-95.7s-95.7,42.8-95.7,95.7h34.9
		C331.6,259.5,358.8,232.3,392.3,232.3z"/>
	<path class="st0" d="M392.3,260.4c-18,0-32.7,14.6-32.7,32.7H425C425,275,410.4,260.4,392.3,260.4z"/>
</g>
</svg>
