<?xml version="1.0" encoding="utf-8"?>
<!-- Generator: Adobe Illustrator 25.2.0, SVG Export Plug-In . SVG Version: 6.00 Build 0)  -->
<svg version="1.1" id="Calque_1" xmlns="http://www.w3.org/2000/svg" xmlns:xlink="http://www.w3.org/1999/xlink" x="0px" y="0px"
	 viewBox="0 0 800 421" style="enable-background:new 0 0 800 421;" xml:space="preserve">
<style type="text/css">
	.st0{fill:#FFFFFF;stroke:#C7BED3;stroke-miterlimit:10;}
	.st1{opacity:0.1;enable-background:new    ;}
</style>
<g>
	<g>
		<path class="st0" d="M547.9,368.9H252.2c-16.4,0-29.8-13.3-29.8-29.8V218.4c0-16.4,13.3-29.8,29.8-29.8h295.7
			c16.4,0,29.8,13.3,29.8,29.8v120.8C577.7,355.6,564.4,368.9,547.9,368.9z"/>
		<g>
			<path id="XMLID_12_" class="st1" d="M362.2,237h49.4c0.9,0,1.6,1.1,1.6,2.3v4.4c0,1.3-0.7,2.3-1.6,2.3h-49.4
				c-0.9,0-1.6-1.1-1.6-2.3v-4.4C360.6,238,361.4,237,362.2,237z"/>
			<path id="XMLID_11_" class="st1" d="M362.3,221.9h85c1.6,0,3,1.1,3,2.3v4.4c0,1.3-1.3,2.3-3,2.3h-85c-1.6,0-3-1.1-3-2.3v-4.4
				C359.3,223,360.7,221.9,362.3,221.9z"/>
		</g>
		<g>
			<path id="XMLID_20_" class="st1" d="M475.6,314H525c0.9,0,1.6,1.1,1.6,2.3v4.4c0,1.3-0.7,2.3-1.6,2.3h-49.4
				c-0.9,0-1.6-1.1-1.6-2.3v-4.4C473.9,315,474.7,314,475.6,314z"/>
			<path id="XMLID_19_" class="st1" d="M475.7,298.9h85c1.6,0,3,1.1,3,2.3v4.4c0,1.3-1.3,2.3-3,2.3h-85c-1.6,0-3-1.1-3-2.3v-4.4
				C472.7,300,474,298.9,475.7,298.9z"/>
		</g>
		<path class="st1" d="M317.6,346.3h-50.4c-12.6,0-22.8-10.2-22.8-22.8v-91.8c0-12.6,10.2-22.8,22.8-22.8h50.4
			c12.6,0,22.8,10.2,22.8,22.8v91.8C340.4,336.1,330.2,346.3,317.6,346.3z"/>
		<path id="XMLID_22_" class="st1" d="M475.3,237h77.2c1.5,0,2.6,1.1,2.6,2.3v4.4c0,1.3-1.1,2.3-2.6,2.3h-77.2
			c-1.5,0-2.6-1.1-2.6-2.3v-4.4C472.7,238,473.9,237,475.3,237z"/>
		<path id="XMLID_21_" class="st1" d="M475.4,221.9h77c1.5,0,2.7,1.1,2.7,2.3v4.4c0,1.3-1.2,2.3-2.7,2.3h-77c-1.5,0-2.7-1.1-2.7-2.3
			v-4.4C472.7,223,473.9,221.9,475.4,221.9z"/>
		<path id="XMLID_24_" class="st1" d="M475.3,267.2h77.2c1.5,0,2.6,1.1,2.6,2.3v4.4c0,1.3-1.1,2.3-2.6,2.3h-77.2
			c-1.5,0-2.6-1.1-2.6-2.3v-4.4C472.7,268.2,473.9,267.2,475.3,267.2z"/>
		<path id="XMLID_23_" class="st1" d="M475.4,252.1h77c1.5,0,2.7,1.1,2.7,2.3v4.4c0,1.3-1.2,2.3-2.7,2.3h-77c-1.5,0-2.7-1.1-2.7-2.3
			v-4.4C472.7,253.2,473.9,252.1,475.4,252.1z"/>
		<path class="st1" d="M390.7,298.9h-20.4c-6,0-10.9-4.9-10.9-10.9v-18.2c0-6,4.9-10.9,10.9-10.9h20.4c6,0,10.9,4.9,10.9,10.9V288
			C401.6,294,396.7,298.9,390.7,298.9z"/>
		<path class="st1" d="M438.8,298.9h-20.4c-6,0-10.9-4.9-10.9-10.9v-18.2c0-6,4.9-10.9,10.9-10.9h20.4c6,0,10.9,4.9,10.9,10.9V288
			C449.7,294,444.8,298.9,438.8,298.9z"/>
		<path class="st1" d="M390.7,344.8h-20.4c-6,0-10.9-4.9-10.9-10.9v-18.2c0-6,4.9-10.9,10.9-10.9h20.4c6,0,10.9,4.9,10.9,10.9v18.2
			C401.6,339.9,396.7,344.8,390.7,344.8z"/>
		<path class="st1" d="M438.8,344.8h-20.4c-6,0-10.9-4.9-10.9-10.9v-18.2c0-6,4.9-10.9,10.9-10.9h20.4c6,0,10.9,4.9,10.9,10.9v18.2
			C449.7,339.9,444.8,344.8,438.8,344.8z"/>
	</g>
	<path class="st0" d="M220.6,67.8v89.6c0,8.7,7,15.7,15.7,15.7h140.2l23.5,23.5l23.5-23.5h140.2c8.7,0,15.7-7,15.7-15.7V67.8
		c0-8.7-7-15.7-15.7-15.7H236.4C227.7,52.1,220.6,59.1,220.6,67.8z"/>
	<g>
		<path id="XMLID_18_" class="st1" d="M243,90.3h51.3c1,0,1.7,1.1,1.7,2.4v4.5c0,1.4-0.7,2.4-1.7,2.4H243c-1,0-1.7-1.1-1.7-2.4v-4.5
			C241.3,91.3,242.1,90.3,243,90.3z"/>
		<path id="XMLID_17_" class="st1" d="M243.1,74.6h88.2c1.7,0,3.1,1.1,3.1,2.4v4.5c0,1.4-1.4,2.4-3.1,2.4h-88.2
			c-1.7,0-3.1-1.1-3.1-2.4V77C240,75.7,241.4,74.6,243.1,74.6z"/>
	</g>
	<g>
		<path id="XMLID_16_" class="st1" d="M249.8,135.7h166.4c3.2,0,5.5,1.4,5.5,3v5.6c0,1.7-2.4,3-5.5,3H249.8c-3.2,0-5.5-1.4-5.5-3
			v-5.6C244.2,137,246.9,135.7,249.8,135.7z"/>
		<path id="XMLID_15_" class="st1" d="M250,116.4h286.4c5.5,0,10,1.4,10,3v5.6c0,1.7-4.5,3-10,3H250c-5.5,0-10-1.4-10-3v-5.6
			C240,117.8,244.5,116.4,250,116.4z"/>
	</g>
	<path class="st1" d="M530.7,87.8h16.9c4.1,0,7.4-3.3,7.4-7.4l0,0c0-4.1-3.3-7.4-7.4-7.4h-16.9c-4.1,0-7.4,3.3-7.4,7.4l0,0
		C523.3,84.5,526.6,87.8,530.7,87.8z"/>
</g>
</svg>
