<?xml version="1.0" encoding="utf-8"?>
<!-- Generator: Adobe Illustrator 25.2.0, SVG Export Plug-In . SVG Version: 6.00 Build 0)  -->
<svg version="1.1" id="Calque_1" xmlns="http://www.w3.org/2000/svg" xmlns:xlink="http://www.w3.org/1999/xlink" x="0px" y="0px"
	 viewBox="0 0 800 421" style="enable-background:new 0 0 800 421;" xml:space="preserve">
<style type="text/css">
	.st0{fill:#18182F;stroke:#32324C;stroke-miterlimit:10;}
	.st1{opacity:0.1;fill:#A7A7BC;enable-background:new    ;}
	.st2{enable-background:new    ;}
	.st3{fill:#0C0C19;stroke:#32324C;stroke-miterlimit:10;}
	.st4{opacity:0.1;}
</style>
<g>
	<g>
		<path class="st0" d="M547.9,368.9H252.1c-16.4,0-29.8-13.3-29.8-29.8V218.4c0-16.4,13.3-29.8,29.8-29.8h295.7
			c16.4,0,29.8,13.3,29.8,29.8v120.8C577.6,355.6,564.3,368.9,547.9,368.9z"/>
		<g>
			<path id="XMLID_12_" class="st1" d="M362.2,237h49.4c0.9,0,1.6,1.1,1.6,2.3v4.4c0,1.3-0.7,2.3-1.6,2.3h-49.4
				c-0.9,0-1.6-1.1-1.6-2.3v-4.4C360.5,238,361.3,237,362.2,237z"/>
			<path id="XMLID_11_" class="st1" d="M362.2,221.9h85c1.6,0,3,1.1,3,2.3v4.4c0,1.3-1.3,2.3-3,2.3h-85c-1.6,0-3-1.1-3-2.3v-4.4
				C359.3,223,360.6,221.9,362.2,221.9z"/>
		</g>
		<g class="st2">
			<path id="XMLID_20_" class="st1" d="M475.5,314h49.4c0.9,0,1.6,1.1,1.6,2.3v4.4c0,1.3-0.7,2.3-1.6,2.3h-49.4
				c-0.9,0-1.6-1.1-1.6-2.3v-4.4C473.9,315,474.7,314,475.5,314z"/>
			<path id="XMLID_19_" class="st1" d="M475.6,298.9h85c1.6,0,3,1.1,3,2.3v4.4c0,1.3-1.3,2.3-3,2.3h-85c-1.6,0-3-1.1-3-2.3v-4.4
				C472.6,300,473.9,298.9,475.6,298.9z"/>
		</g>
		<path class="st1" d="M317.5,346.3h-50.4c-12.6,0-22.8-10.2-22.8-22.8v-91.8c0-12.6,10.2-22.8,22.8-22.8h50.4
			c12.6,0,22.8,10.2,22.8,22.8v91.8C340.3,336.1,330.1,346.3,317.5,346.3z"/>
		<path id="XMLID_22_" class="st1" d="M475.2,237h77.2c1.5,0,2.6,1.1,2.6,2.3v4.4c0,1.3-1.1,2.3-2.6,2.3h-77.2
			c-1.5,0-2.6-1.1-2.6-2.3v-4.4C472.6,238,473.8,237,475.2,237z"/>
		<path id="XMLID_21_" class="st1" d="M475.3,221.9h77c1.5,0,2.7,1.1,2.7,2.3v4.4c0,1.3-1.2,2.3-2.7,2.3h-77c-1.5,0-2.7-1.1-2.7-2.3
			v-4.4C472.6,223,473.8,221.9,475.3,221.9z"/>
		<path id="XMLID_24_" class="st1" d="M475.2,267.2h77.2c1.5,0,2.6,1.1,2.6,2.3v4.4c0,1.3-1.1,2.3-2.6,2.3h-77.2
			c-1.5,0-2.6-1.1-2.6-2.3v-4.4C472.6,268.2,473.8,267.2,475.2,267.2z"/>
		<path id="XMLID_23_" class="st1" d="M475.3,252.1h77c1.5,0,2.7,1.1,2.7,2.3v4.4c0,1.3-1.2,2.3-2.7,2.3h-77c-1.5,0-2.7-1.1-2.7-2.3
			v-4.4C472.6,253.2,473.8,252.1,475.3,252.1z"/>
		<path class="st1" d="M390.6,298.9h-20.4c-6,0-10.9-4.9-10.9-10.9v-18.2c0-6,4.9-10.9,10.9-10.9h20.4c6,0,10.9,4.9,10.9,10.9v18.2
			C401.6,294,396.7,298.9,390.6,298.9z"/>
		<path class="st1" d="M438.7,298.9h-20.4c-6,0-10.9-4.9-10.9-10.9v-18.2c0-6,4.9-10.9,10.9-10.9h20.4c6,0,10.9,4.9,10.9,10.9v18.2
			C449.6,294,444.7,298.9,438.7,298.9z"/>
		<path class="st1" d="M390.6,344.8h-20.4c-6,0-10.9-4.9-10.9-10.9v-18.2c0-6,4.9-10.9,10.9-10.9h20.4c6,0,10.9,4.9,10.9,10.9v18.2
			C401.6,339.9,396.7,344.8,390.6,344.8z"/>
		<path class="st1" d="M438.7,344.8h-20.4c-6,0-10.9-4.9-10.9-10.9v-18.2c0-6,4.9-10.9,10.9-10.9h20.4c6,0,10.9,4.9,10.9,10.9v18.2
			C449.6,339.9,444.7,344.8,438.7,344.8z"/>
	</g>
	<path class="st3" d="M220.6,67.8v89.6c0,8.7,7,15.7,15.7,15.7h140.2l23.5,23.5l23.5-23.5h140.2c8.7,0,15.7-7,15.7-15.7V67.8
		c0-8.7-7-15.7-15.7-15.7H236.3C227.6,52.1,220.6,59.1,220.6,67.8z"/>
	<g class="st2">
		<path id="XMLID_18_" class="st1" d="M242.9,90.3h51.3c1,0,1.7,1.1,1.7,2.4v4.5c0,1.4-0.7,2.4-1.7,2.4h-51.3c-1,0-1.7-1.1-1.7-2.4
			v-4.5C241.2,91.3,242.1,90.3,242.9,90.3z"/>
		<path id="XMLID_17_" class="st1" d="M243,74.6h88.2c1.7,0,3.1,1.1,3.1,2.4v4.5c0,1.4-1.4,2.4-3.1,2.4H243c-1.7,0-3.1-1.1-3.1-2.4
			V77C239.9,75.7,241.3,74.6,243,74.6z"/>
	</g>
	<g class="st2">
		<path id="XMLID_16_" class="st1" d="M249.7,135.7h166.4c3.2,0,5.5,1.4,5.5,3v5.6c0,1.7-2.4,3-5.5,3H249.7c-3.2,0-5.5-1.4-5.5-3
			v-5.6C244.2,137,246.8,135.7,249.7,135.7z"/>
		<path id="XMLID_15_" class="st1" d="M250,116.4h286.3c5.5,0,10,1.4,10,3v5.6c0,1.7-4.5,3-10,3H250c-5.5,0-10-1.4-10-3v-5.6
			C239.9,117.8,244.4,116.4,250,116.4z"/>
	</g>
	<path class="st4" d="M530.7,87.8h16.9c4.1,0,7.4-3.3,7.4-7.4v0c0-4.1-3.3-7.4-7.4-7.4h-16.9c-4.1,0-7.4,3.3-7.4,7.4v0
		C523.2,84.5,526.6,87.8,530.7,87.8z"/>
</g>
</svg>
