<?xml version="1.0" encoding="utf-8"?>
<!-- Generator: Adobe Illustrator 25.2.0, SVG Export Plug-In . SVG Version: 6.00 Build 0)  -->
<svg version="1.1" id="Calque_1" xmlns="http://www.w3.org/2000/svg" xmlns:xlink="http://www.w3.org/1999/xlink" x="0px" y="0px"
	 viewBox="0 0 800 421" style="enable-background:new 0 0 800 421;" xml:space="preserve">
<style type="text/css">
	.st0{fill:#18182F;stroke:#32324C;stroke-miterlimit:10;}
	.st1{opacity:0.1;fill:#A7A7BC;enable-background:new    ;}
	.st2{fill:#8217FD;}
</style>
<path class="st0" d="M214.7,363.1H80.1c-19.2,0-34.8-15.6-34.8-34.8V116.6c0-19.2,15.6-34.8,34.8-34.8h134.6
	c19.2,0,34.8,15.6,34.8,34.8v211.7C249.5,347.5,233.9,363.1,214.7,363.1z"/>
<path class="st0" d="M719.9,363.1H585.3c-19.2,0-34.8-15.6-34.8-34.8V116.6c0-19.2,15.6-34.8,34.8-34.8h134.6
	c19.2,0,34.8,15.6,34.8,34.8v211.7C754.6,347.5,739.1,363.1,719.9,363.1z"/>
<path class="st0" d="M486.5,391.4H310.8c-19.2,0-34.8-15.6-34.8-34.8V88.3c0-19.2,15.6-34.8,34.8-34.8h175.7
	c19.2,0,34.8,15.6,34.8,34.8v268.4C521.3,375.8,505.7,391.4,486.5,391.4z"/>
<circle class="st1" cx="400.8" cy="122.4" r="30.6"/>
<circle class="st1" cx="652.6" cy="147.9" r="23.5"/>
<circle class="st1" cx="147.4" cy="147.9" r="23.5"/>
<path id="XMLID_2_" class="st1" d="M337.3,192.9h127c2.4,0,4.3,2,4.3,4.5v8.5c0,2.4-2,4.5-4.3,4.5h-127c-2.4,0-4.3-2-4.3-4.5v-8.5
	C332.9,194.9,334.9,192.9,337.3,192.9z"/>
<path id="XMLID_7_" class="st1" d="M337.3,222.5h127c2.4,0,4.3,2,4.3,4.5v8.5c0,2.4-2,4.5-4.3,4.5h-127c-2.4,0-4.3-2-4.3-4.5V227
	C332.9,224.5,334.9,222.5,337.3,222.5z"/>
<path id="XMLID_13_" class="st1" d="M337.3,252h127c2.4,0,4.3,2,4.3,4.5v8.5c0,2.4-2,4.5-4.3,4.5h-127c-2.4,0-4.3-2-4.3-4.5v-8.5
	C332.9,254,334.9,252,337.3,252z"/>
<path id="XMLID_14_" class="st1" d="M337.3,281.6h127c2.4,0,4.3,2,4.3,4.5v8.5c0,2.4-2,4.5-4.3,4.5h-127c-2.4,0-4.3-2-4.3-4.5v-8.5
	C332.9,283.6,334.9,281.6,337.3,281.6z"/>
<path id="XMLID_18_" class="st1" d="M600.9,202.8h103.4c2,0,3.5,1.6,3.5,3.7v6.9c0,2-1.6,3.7-3.5,3.7H600.9c-2,0-3.5-1.6-3.5-3.7
	v-6.9C597.3,204.4,598.9,202.8,600.9,202.8z"/>
<path id="XMLID_17_" class="st1" d="M600.9,226.8h103.4c2,0,3.5,1.6,3.5,3.7v6.9c0,2-1.6,3.7-3.5,3.7H600.9c-2,0-3.5-1.6-3.5-3.7
	v-6.9C597.3,228.5,598.9,226.8,600.9,226.8z"/>
<path id="XMLID_16_" class="st1" d="M600.9,250.9h103.4c2,0,3.5,1.6,3.5,3.7v6.9c0,2-1.6,3.7-3.5,3.7H600.9c-2,0-3.5-1.6-3.5-3.7
	v-6.9C597.3,252.5,598.9,250.9,600.9,250.9z"/>
<path id="XMLID_15_" class="st1" d="M600.9,275h103.4c2,0,3.5,1.6,3.5,3.7v6.9c0,2-1.6,3.7-3.5,3.7H600.9c-2,0-3.5-1.6-3.5-3.7v-6.9
	C597.3,276.6,598.9,275,600.9,275z"/>
<path id="XMLID_24_" class="st1" d="M96.9,202.8h103.4c2,0,3.5,1.6,3.5,3.7v6.9c0,2-1.6,3.7-3.5,3.7H96.9c-2,0-3.5-1.6-3.5-3.7v-6.9
	C93.3,204.4,94.9,202.8,96.9,202.8z"/>
<path id="XMLID_23_" class="st1" d="M96.9,226.8h103.4c2,0,3.5,1.6,3.5,3.7v6.9c0,2-1.6,3.7-3.5,3.7H96.9c-2,0-3.5-1.6-3.5-3.7v-6.9
	C93.3,228.5,94.9,226.8,96.9,226.8z"/>
<path id="XMLID_22_" class="st1" d="M96.9,250.9h103.4c2,0,3.5,1.6,3.5,3.7v6.9c0,2-1.6,3.7-3.5,3.7H96.9c-2,0-3.5-1.6-3.5-3.7v-6.9
	C93.3,252.5,94.9,250.9,96.9,250.9z"/>
<path id="XMLID_21_" class="st1" d="M96.9,275h103.4c2,0,3.5,1.6,3.5,3.7v6.9c0,2-1.6,3.7-3.5,3.7H96.9c-2,0-3.5-1.6-3.5-3.7v-6.9
	C93.3,276.6,94.9,275,96.9,275z"/>
<path class="st2" d="M478.6,363.1H323.1c-5.1,0-9.2-4.7-9.2-10.5V334c0-5.8,4.1-10.5,9.2-10.5h155.4c5.1,0,9.2,4.7,9.2,10.5v18.5
	C487.8,358.4,483.7,363.1,478.6,363.1z"/>
<path class="st2" d="M717.7,338.5H587.5c-4.3,0-7.7-3.9-7.7-8.8v-15.5c0-4.9,3.5-8.8,7.7-8.8h130.2c4.3,0,7.7,3.9,7.7,8.8v15.5
	C725.4,334.6,722,338.5,717.7,338.5z"/>
<path class="st2" d="M213.7,338.5H83.5c-4.3,0-7.7-3.9-7.7-8.8v-15.5c0-4.9,3.5-8.8,7.7-8.8h130.2c4.3,0,7.7,3.9,7.7,8.8v15.5
	C221.4,334.6,217.9,338.5,213.7,338.5z"/>
</svg>
