<?xml version="1.0" encoding="utf-8"?>
<!-- Generator: Adobe Illustrator 25.2.0, SVG Export Plug-In . SVG Version: 6.00 Build 0)  -->
<svg version="1.1" id="Calque_1" xmlns="http://www.w3.org/2000/svg" xmlns:xlink="http://www.w3.org/1999/xlink" x="0px" y="0px"
	 viewBox="0 0 800 421" style="enable-background:new 0 0 800 421;" xml:space="preserve">
<style type="text/css">
	.st0{fill:#18182F;stroke:#32324C;stroke-miterlimit:10;}
	.st1{opacity:0.1;fill:#A7A7BC;enable-background:new    ;}
</style>
<path class="st0" d="M597.8,361.5H202.2c-15.8,0-28.6-12.8-28.6-28.6V88c0-15.8,12.8-28.6,28.6-28.6h395.6
	c15.8,0,28.6,12.8,28.6,28.6v245C626.4,348.7,613.6,361.5,597.8,361.5z"/>
<path id="XMLID_3_" class="st1" d="M210.1,97h74.3c2,0,3.6,2,3.6,4.6v8.5c0,2.5-1.6,4.6-3.6,4.6h-74.3c-2,0-3.6-2-3.6-4.6v-8.5
	C206.5,99,208.1,97,210.1,97z"/>
<path id="XMLID_1_" class="st1" d="M304.3,97h119.4c3.2,0,5.8,2,5.8,4.6v8.5c0,2.5-2.6,4.6-5.8,4.6H304.3c-3.2,0-5.8-2-5.8-4.6v-8.5
	C298.5,99,301.1,97,304.3,97z"/>
<path id="XMLID_2_" class="st1" d="M442,97h84.7c2.2,0,4.1,2,4.1,4.6v8.5c0,2.5-1.8,4.6-4.1,4.6H442c-2.2,0-4.1-2-4.1-4.6v-8.5
	C437.9,99,439.7,97,442,97z"/>
<path id="XMLID_4_" class="st1" d="M541.7,97h53c1.4,0,2.6,2,2.6,4.6v8.5c0,2.5-1.1,4.6-2.6,4.6h-53c-1.4,0-2.6-2-2.6-4.6v-8.5
	C539.1,99,540.3,97,541.7,97z"/>
<path id="XMLID_8_" class="st1" d="M210.1,131.9h74.3c2,0,3.6,2,3.6,4.6v8.5c0,2.5-1.6,4.6-3.6,4.6h-74.3c-2,0-3.6-2-3.6-4.6v-8.5
	C206.5,133.9,208.1,131.9,210.1,131.9z"/>
<path id="XMLID_7_" class="st1" d="M304.3,131.9h119.4c3.2,0,5.8,2,5.8,4.6v8.5c0,2.5-2.6,4.6-5.8,4.6H304.3c-3.2,0-5.8-2-5.8-4.6
	v-8.5C298.5,133.9,301.1,131.9,304.3,131.9z"/>
<path id="XMLID_6_" class="st1" d="M442,131.9h84.7c2.2,0,4.1,2,4.1,4.6v8.5c0,2.5-1.8,4.6-4.1,4.6H442c-2.2,0-4.1-2-4.1-4.6v-8.5
	C437.9,133.9,439.7,131.9,442,131.9z"/>
<path id="XMLID_5_" class="st1" d="M541.7,131.9h53c1.4,0,2.6,2,2.6,4.6v8.5c0,2.5-1.1,4.6-2.6,4.6h-53c-1.4,0-2.6-2-2.6-4.6v-8.5
	C539.1,133.9,540.3,131.9,541.7,131.9z"/>
<path id="XMLID_12_" class="st1" d="M210.1,166.8h74.3c2,0,3.6,2,3.6,4.6v8.5c0,2.5-1.6,4.6-3.6,4.6h-74.3c-2,0-3.6-2-3.6-4.6v-8.5
	C206.5,168.8,208.1,166.8,210.1,166.8z"/>
<path id="XMLID_11_" class="st1" d="M304.3,166.8h119.4c3.2,0,5.8,2,5.8,4.6v8.5c0,2.5-2.6,4.6-5.8,4.6H304.3c-3.2,0-5.8-2-5.8-4.6
	v-8.5C298.5,168.8,301.1,166.8,304.3,166.8z"/>
<path id="XMLID_10_" class="st1" d="M442,166.8h84.7c2.2,0,4.1,2,4.1,4.6v8.5c0,2.5-1.8,4.6-4.1,4.6H442c-2.2,0-4.1-2-4.1-4.6v-8.5
	C437.9,168.8,439.7,166.8,442,166.8z"/>
<path id="XMLID_9_" class="st1" d="M541.7,166.8h53c1.4,0,2.6,2,2.6,4.6v8.5c0,2.5-1.1,4.6-2.6,4.6h-53c-1.4,0-2.6-2-2.6-4.6v-8.5
	C539.1,168.8,540.3,166.8,541.7,166.8z"/>
<path id="XMLID_16_" class="st1" d="M210.1,201.6h74.3c2,0,3.6,2,3.6,4.6v8.5c0,2.5-1.6,4.6-3.6,4.6h-74.3c-2,0-3.6-2-3.6-4.6v-8.5
	C206.5,203.6,208.1,201.6,210.1,201.6z"/>
<path id="XMLID_15_" class="st1" d="M304.3,201.6h119.4c3.2,0,5.8,2,5.8,4.6v8.5c0,2.5-2.6,4.6-5.8,4.6H304.3c-3.2,0-5.8-2-5.8-4.6
	v-8.5C298.5,203.6,301.1,201.6,304.3,201.6z"/>
<path id="XMLID_14_" class="st1" d="M442,201.6h84.7c2.2,0,4.1,2,4.1,4.6v8.5c0,2.5-1.8,4.6-4.1,4.6H442c-2.2,0-4.1-2-4.1-4.6v-8.5
	C437.9,203.6,439.7,201.6,442,201.6z"/>
<path id="XMLID_13_" class="st1" d="M541.7,201.6h53c1.4,0,2.6,2,2.6,4.6v8.5c0,2.5-1.1,4.6-2.6,4.6h-53c-1.4,0-2.6-2-2.6-4.6v-8.5
	C539.1,203.6,540.3,201.6,541.7,201.6z"/>
<path id="XMLID_20_" class="st1" d="M210.1,236.5h74.3c2,0,3.6,2,3.6,4.6v8.5c0,2.5-1.6,4.6-3.6,4.6h-74.3c-2,0-3.6-2-3.6-4.6v-8.5
	C206.5,238.5,208.1,236.5,210.1,236.5z"/>
<path id="XMLID_19_" class="st1" d="M304.3,236.5h119.4c3.2,0,5.8,2,5.8,4.6v8.5c0,2.5-2.6,4.6-5.8,4.6H304.3c-3.2,0-5.8-2-5.8-4.6
	v-8.5C298.5,238.5,301.1,236.5,304.3,236.5z"/>
<path id="XMLID_18_" class="st1" d="M442,236.5h84.7c2.2,0,4.1,2,4.1,4.6v8.5c0,2.5-1.8,4.6-4.1,4.6H442c-2.2,0-4.1-2-4.1-4.6v-8.5
	C437.9,238.5,439.7,236.5,442,236.5z"/>
<path id="XMLID_17_" class="st1" d="M541.7,236.5h53c1.4,0,2.6,2,2.6,4.6v8.5c0,2.5-1.1,4.6-2.6,4.6h-53c-1.4,0-2.6-2-2.6-4.6v-8.5
	C539.1,238.5,540.3,236.5,541.7,236.5z"/>
<path id="XMLID_24_" class="st1" d="M210.1,271.4h74.3c2,0,3.6,2,3.6,4.6v8.5c0,2.5-1.6,4.6-3.6,4.6h-74.3c-2,0-3.6-2-3.6-4.6V276
	C206.5,273.4,208.1,271.4,210.1,271.4z"/>
<path id="XMLID_23_" class="st1" d="M304.3,271.4h119.4c3.2,0,5.8,2,5.8,4.6v8.5c0,2.5-2.6,4.6-5.8,4.6H304.3c-3.2,0-5.8-2-5.8-4.6
	V276C298.5,273.4,301.1,271.4,304.3,271.4z"/>
<path id="XMLID_22_" class="st1" d="M442,271.4h84.7c2.2,0,4.1,2,4.1,4.6v8.5c0,2.5-1.8,4.6-4.1,4.6H442c-2.2,0-4.1-2-4.1-4.6V276
	C437.9,273.4,439.7,271.4,442,271.4z"/>
<path id="XMLID_21_" class="st1" d="M541.7,271.4h53c1.4,0,2.6,2,2.6,4.6v8.5c0,2.5-1.1,4.6-2.6,4.6h-53c-1.4,0-2.6-2-2.6-4.6V276
	C539.1,273.4,540.3,271.4,541.7,271.4z"/>
<path id="XMLID_28_" class="st1" d="M210.1,306.2h74.3c2,0,3.6,2,3.6,4.6v8.5c0,2.5-1.6,4.6-3.6,4.6h-74.3c-2,0-3.6-2-3.6-4.6v-8.5
	C206.5,308.2,208.1,306.2,210.1,306.2z"/>
<path id="XMLID_27_" class="st1" d="M304.3,306.2h119.4c3.2,0,5.8,2,5.8,4.6v8.5c0,2.5-2.6,4.6-5.8,4.6H304.3c-3.2,0-5.8-2-5.8-4.6
	v-8.5C298.5,308.2,301.1,306.2,304.3,306.2z"/>
<path id="XMLID_26_" class="st1" d="M442,306.2h84.7c2.2,0,4.1,2,4.1,4.6v8.5c0,2.5-1.8,4.6-4.1,4.6H442c-2.2,0-4.1-2-4.1-4.6v-8.5
	C437.9,308.2,439.7,306.2,442,306.2z"/>
<path id="XMLID_25_" class="st1" d="M541.7,306.2h53c1.4,0,2.6,2,2.6,4.6v8.5c0,2.5-1.1,4.6-2.6,4.6h-53c-1.4,0-2.6-2-2.6-4.6v-8.5
	C539.1,308.2,540.3,306.2,541.7,306.2z"/>
</svg>
