<?xml version="1.0" encoding="utf-8"?>
<!-- Generator: Adobe Illustrator 25.2.0, SVG Export Plug-In . SVG Version: 6.00 Build 0)  -->
<svg version="1.1" id="Calque_1" xmlns="http://www.w3.org/2000/svg" xmlns:xlink="http://www.w3.org/1999/xlink" x="0px" y="0px"
	 viewBox="0 0 800 421" style="enable-background:new 0 0 800 421;" xml:space="preserve">
<style type="text/css">
	.st0{fill:#FFFFFF;stroke:#C7BED3;stroke-miterlimit:10;}
	.st1{opacity:0.1;enable-background:new    ;}
	.st2{fill:#8217FD;}
</style>
<path class="st0" d="M597.8,361.5H202.2c-15.8,0-28.6-12.8-28.6-28.6V88c0-15.8,12.8-28.6,28.6-28.6h395.6
	c15.8,0,28.6,12.8,28.6,28.6V333C626.4,348.7,613.6,361.5,597.8,361.5z"/>
<path id="XMLID_7_" class="st1" d="M444,173.1h139.7c3.7,0,6.8,2,6.8,4.6v8.5c0,2.5-3,4.6-6.8,4.6H444c-3.7,0-6.8-2-6.8-4.6v-8.5
	C437.3,175.1,440.2,173.1,444,173.1z"/>
<path id="XMLID_1_" class="st1" d="M443,200.3h118c3.1,0,5.7,2,5.7,4.6v8.5c0,2.5-2.5,4.6-5.7,4.6H443c-3.1,0-5.7-2-5.7-4.6v-8.5
	C437.3,202.3,439.8,200.3,443,200.3z"/>
<path id="XMLID_2_" class="st1" d="M443.6,227.5H574c3.4,0,6.3,2,6.3,4.6v8.5c0,2.5-2.8,4.6-6.3,4.6H443.6c-3.4,0-6.3-2-6.3-4.6
	v-8.5C437.3,229.5,440,227.5,443.6,227.5z"/>
<path id="XMLID_3_" class="st1" d="M442.3,254.7h104c2.8,0,5,2,5,4.6v8.5c0,2.5-2.2,4.6-5,4.6h-104c-2.8,0-5-2-5-4.6v-8.5
	C437.3,256.7,439.5,254.7,442.3,254.7z"/>
<path id="XMLID_4_" class="st1" d="M443.3,281.9h124.9c3.3,0,6.1,2,6.1,4.6v8.5c0,2.5-2.7,4.6-6.1,4.6H443.3c-3.3,0-6.1-2-6.1-4.6
	v-8.5C437.3,283.9,439.9,281.9,443.3,281.9z"/>
<path class="st1" d="M359.3,127.2H221.6c-8.3,0-15.1-6.8-15.1-15.1v0c0-8.3,6.8-15.1,15.1-15.1h137.7c8.3,0,15.1,6.8,15.1,15.1v0
	C374.4,120.5,367.6,127.2,359.3,127.2z"/>
<path class="st2" d="M276.5,125.1h-54.3c-7.1,0-12.9-5.8-12.9-12.9v0c0-7.1,5.8-12.9,12.9-12.9h54.3c7.1,0,12.9,5.8,12.9,12.9v0
	C289.4,119.3,283.7,125.1,276.5,125.1z"/>
<path class="st1" d="M386.3,303.5H228.1c-10.4,0-18.8-8.4-18.8-18.8V188c0-10.4,8.4-18.8,18.8-18.8h158.2c10.4,0,18.8,8.4,18.8,18.8
	v96.8C405.1,295.1,396.7,303.5,386.3,303.5z"/>
</svg>
