<?xml version="1.0" encoding="utf-8"?>
<!-- Generator: Adobe Illustrator 25.2.0, SVG Export Plug-In . SVG Version: 6.00 Build 0)  -->
<svg version="1.1" id="Calque_1" xmlns="http://www.w3.org/2000/svg" xmlns:xlink="http://www.w3.org/1999/xlink" x="0px" y="0px"
	 viewBox="0 0 800 421" style="enable-background:new 0 0 800 421;" xml:space="preserve">
<style type="text/css">
	.st0{opacity:0.1;enable-background:new    ;}
</style>
<g>
	<g>
		<path class="st0" d="M270,149.7v-17.8c0-6.5-3.5-12.6-9.1-15.8l-15.5-8.9c-5.7-3.3-12.6-3.3-18.3,0l-15.5,8.9
			c-5.7,3.3-9.1,9.3-9.1,15.8v17.8c0,6.5,3.5,12.6,9.1,15.8l15.5,8.9c5.7,3.3,12.6,3.3,18.3,0l15.5-8.9
			C266.5,162.2,270,156.2,270,149.7z"/>
		<path class="st0" d="M351.7,149.7v-17.8c0-6.5-3.5-12.6-9.1-15.8l-15.5-8.9c-5.7-3.3-12.6-3.3-18.3,0l-15.5,8.9
			c-5.7,3.3-9.1,9.3-9.1,15.8v17.8c0,6.5,3.5,12.6,9.1,15.8l15.5,8.9c5.7,3.3,12.6,3.3,18.3,0l15.5-8.9
			C348.2,162.2,351.7,156.2,351.7,149.7z"/>
		<path class="st0" d="M433.3,149.7v-17.8c0-6.5-3.5-12.6-9.1-15.8l-15.5-8.9c-5.7-3.3-12.6-3.3-18.3,0L375,116
			c-5.7,3.3-9.1,9.3-9.1,15.8v17.8c0,6.5,3.5,12.6,9.1,15.8l15.5,8.9c5.7,3.3,12.6,3.3,18.3,0l15.5-8.9
			C429.8,162.2,433.3,156.2,433.3,149.7z"/>
		<path class="st0" d="M514.9,149.7v-17.8c0-6.5-3.5-12.6-9.1-15.8l-15.5-8.9c-5.7-3.3-12.6-3.3-18.3,0l-15.5,8.9
			c-5.7,3.3-9.1,9.3-9.1,15.8v17.8c0,6.5,3.5,12.6,9.1,15.8l15.5,8.9c5.7,3.3,12.6,3.3,18.3,0l15.5-8.9
			C511.4,162.2,514.9,156.2,514.9,149.7z"/>
		<path class="st0" d="M596.6,149.7v-17.8c0-6.5-3.5-12.6-9.1-15.8l-15.5-8.9c-5.7-3.3-12.6-3.3-18.3,0l-15.5,8.9
			c-5.7,3.3-9.1,9.3-9.1,15.8v17.8c0,6.5,3.5,12.6,9.1,15.8l15.5,8.9c5.7,3.3,12.6,3.3,18.3,0l15.5-8.9
			C593.1,162.2,596.6,156.2,596.6,149.7z"/>
	</g>
	<g>
		<path class="st0" d="M270,289.2v-17.8c0-6.5-3.5-12.6-9.1-15.8l-15.5-8.9c-5.7-3.3-12.6-3.3-18.3,0l-15.5,8.9
			c-5.7,3.3-9.1,9.3-9.1,15.8v17.8c0,6.5,3.5,12.6,9.1,15.8l15.5,8.9c5.7,3.3,12.6,3.3,18.3,0l15.5-8.9
			C266.5,301.7,270,295.7,270,289.2z"/>
		<path class="st0" d="M351.7,289.2v-17.8c0-6.5-3.5-12.6-9.1-15.8l-15.5-8.9c-5.7-3.3-12.6-3.3-18.3,0l-15.5,8.9
			c-5.7,3.3-9.1,9.3-9.1,15.8v17.8c0,6.5,3.5,12.6,9.1,15.8l15.5,8.9c5.7,3.3,12.6,3.3,18.3,0l15.5-8.9
			C348.2,301.7,351.7,295.7,351.7,289.2z"/>
		<path class="st0" d="M433.3,289.2v-17.8c0-6.5-3.5-12.6-9.1-15.8l-15.5-8.9c-5.7-3.3-12.6-3.3-18.3,0l-15.5,8.9
			c-5.7,3.3-9.1,9.3-9.1,15.8v17.8c0,6.5,3.5,12.6,9.1,15.8l15.5,8.9c5.7,3.3,12.6,3.3,18.3,0l15.5-8.9
			C429.8,301.7,433.3,295.7,433.3,289.2z"/>
		<path class="st0" d="M514.9,289.2v-17.8c0-6.5-3.5-12.6-9.1-15.8l-15.5-8.9c-5.7-3.3-12.6-3.3-18.3,0l-15.5,8.9
			c-5.7,3.3-9.1,9.3-9.1,15.8v17.8c0,6.5,3.5,12.6,9.1,15.8l15.5,8.9c5.7,3.3,12.6,3.3,18.3,0l15.5-8.9
			C511.4,301.7,514.9,295.7,514.9,289.2z"/>
		<path class="st0" d="M596.6,289.2v-17.8c0-6.5-3.5-12.6-9.1-15.8l-15.5-8.9c-5.7-3.3-12.6-3.3-18.3,0l-15.5,8.9
			c-5.7,3.3-9.1,9.3-9.1,15.8v17.8c0,6.5,3.5,12.6,9.1,15.8l15.5,8.9c5.7,3.3,12.6,3.3,18.3,0l15.5-8.9
			C593.1,301.7,596.6,295.7,596.6,289.2z"/>
	</g>
	<path class="st0" d="M229.2,217.9v-17.8c0-6.5-3.5-12.6-9.1-15.8l-15.5-8.9c-5.7-3.3-12.6-3.3-18.3,0l-15.5,8.9
		c-5.7,3.3-9.1,9.3-9.1,15.8v17.8c0,6.5,3.5,12.6,9.1,15.8l15.5,8.9c5.7,3.3,12.6,3.3,18.3,0l15.5-8.9
		C225.7,230.5,229.2,224.4,229.2,217.9z"/>
	<path class="st0" d="M310.8,217.9v-17.8c0-6.5-3.5-12.6-9.1-15.8l-15.5-8.9c-5.7-3.3-12.6-3.3-18.3,0l-15.5,8.9
		c-5.7,3.3-9.1,9.3-9.1,15.8v17.8c0,6.5,3.5,12.6,9.1,15.8l15.5,8.9c5.7,3.3,12.6,3.3,18.3,0l15.5-8.9
		C307.4,230.5,310.8,224.4,310.8,217.9z"/>
	<path class="st0" d="M392.5,217.9v-17.8c0-6.5-3.5-12.6-9.1-15.8l-15.5-8.9c-5.7-3.3-12.6-3.3-18.3,0l-15.5,8.9
		c-5.7,3.3-9.1,9.3-9.1,15.8v17.8c0,6.5,3.5,12.6,9.1,15.8l15.5,8.9c5.7,3.3,12.6,3.3,18.3,0l15.5-8.9
		C389,230.5,392.5,224.4,392.5,217.9z"/>
	<path class="st0" d="M474.1,217.9v-17.8c0-6.5-3.5-12.6-9.1-15.8l-15.5-8.9c-5.7-3.3-12.6-3.3-18.3,0l-15.5,8.9
		c-5.7,3.3-9.1,9.3-9.1,15.8v17.8c0,6.5,3.5,12.6,9.1,15.8l15.5,8.9c5.7,3.3,12.6,3.3,18.3,0l15.5-8.9
		C470.6,230.5,474.1,224.4,474.1,217.9z"/>
	<path class="st0" d="M555.7,217.9v-17.8c0-6.5-3.5-12.6-9.1-15.8l-15.5-8.9c-5.7-3.3-12.6-3.3-18.3,0l-15.5,8.9
		c-5.7,3.3-9.1,9.3-9.1,15.8v17.8c0,6.5,3.5,12.6,9.1,15.8l15.5,8.9c5.7,3.3,12.6,3.3,18.3,0l15.5-8.9
		C552.3,230.5,555.7,224.4,555.7,217.9z"/>
	<path class="st0" d="M638.2,217.9v-17.8c0-6.5-3.5-12.6-9.1-15.8l-15.5-8.9c-5.7-3.3-12.6-3.3-18.3,0l-15.5,8.9
		c-5.7,3.3-9.1,9.3-9.1,15.8v17.8c0,6.5,3.5,12.6,9.1,15.8l15.5,8.9c5.7,3.3,12.6,3.3,18.3,0l15.5-8.9
		C634.8,230.5,638.2,224.4,638.2,217.9z"/>
</g>
</svg>
