<?xml version="1.0" encoding="utf-8"?>
<!-- Generator: Adobe Illustrator 25.2.0, SVG Export Plug-In . SVG Version: 6.00 Build 0)  -->
<svg version="1.1" id="Layer_1" xmlns="http://www.w3.org/2000/svg" xmlns:xlink="http://www.w3.org/1999/xlink" x="0px" y="0px"
	 viewBox="0 0 192.8 192.8" style="enable-background:new 0 0 192.8 192.8;" xml:space="preserve">
<style type="text/css">
	.st0{fill-rule:evenodd;clip-rule:evenodd;fill:#1D1D1B;}
	.st1{fill-rule:evenodd;clip-rule:evenodd;fill:#E1B800;}
	.st2{fill-rule:evenodd;clip-rule:evenodd;fill:#004995;}
	.st3{fill-rule:evenodd;clip-rule:evenodd;fill:#A3244A;}
	.st4{fill-rule:evenodd;clip-rule:evenodd;fill:#FFFFFF;}
	.st5{fill-rule:evenodd;clip-rule:evenodd;fill:#DB2F34;}
	.st6{fill-rule:evenodd;clip-rule:evenodd;fill:#FFDE00;}
</style>
<g>
	<path class="st0" d="M123.2,2c-8.8,6.1-17.4,9-26.8,9c-9.5,0-18-2.9-26.8-9l-2.3-1.6l-2.3,1.5c-10,6.6-18.1,7.8-30.5,7.8
		c-4.3,0-8.9-0.8-13.3-2.3l-2.9-1L16.4,9c-1,1.4-1.7,2.2-2.3,3c-0.8,1-1.6,2-2.6,3.5L10,17.9l1.7,2.3c7.6,10.1,10.4,20.4,10.4,30.2
		c0,18.2-9.9,34.2-17.8,42.3l-2.8,2.9l2.9,2.9c1.5,1.5,4.3,4.4,6.6,6.8c0,0.1-0.1,1.3-0.1,1.3l0,0.2c-0.1,1.8-0.1,3.5-0.1,5.2
		c0,18.5,5.5,33.8,16.2,45.7c12.5,13.7,32,21.9,55.1,23.2c5.7,5.2,11.6,9.6,11.8,9.8l2.5,1.8l2.5-1.8c0.3-0.2,6.1-4.5,11.8-9.7
		c23.1-1.3,42.6-9.5,55.1-23.2c10.8-11.9,16.2-27.2,16.2-45.7c0-1.7,0-3.5-0.1-5.2l0,0l0-0.2c0,0-0.1-1.1-0.1-1.2
		c2.1-2.2,4.9-5.2,6.6-6.8l2.9-2.9l-2.8-2.9c-7.8-8.1-17.8-24.2-17.8-42.3c0-9.7,2.9-20.1,10.4-30.2l1.7-2.3l-1.5-2.4
		c-0.9-1.5-1.7-2.5-2.6-3.5c-0.7-0.8-1.4-1.7-2.3-3l-1.8-2.5l-2.9,1c-4.4,1.5-9,2.3-13.3,2.3c-12.4,0-20.5-1.2-30.5-7.8l-2.3-1.5
		L123.2,2L123.2,2z"/>
	<path class="st1" d="M96.4,187.2c0,0-6.6-4.9-12.6-10.5c-39-1.6-71.3-23.5-68.8-69.8c0.1-1.2,0-1.1,0.2-3.2
		c-2.2-2.4-5.9-6.2-7.9-8.2C21.3,81,37.7,47.8,15,17.7c1.5-2.4,2.6-3.2,4.8-6.3c4.5,1.6,9.6,2.6,14.6,2.6c13,0,21.9-1.3,32.8-8.5
		c8.6,6,18,9.7,29.2,9.7c11.2,0,20.6-3.7,29.2-9.7c10.9,7.2,19.8,8.5,32.8,8.5c5.1,0,10.1-1,14.6-2.6c2.2,3.2,3.3,3.9,4.8,6.3
		c-22.7,30.1-6.3,63.3,7.7,77.9c-2,2-5.7,5.8-7.9,8.2c0.2,2.1,0.1,2,0.2,3.2c2.5,46.3-29.8,68.2-68.8,69.8
		C103,182.3,96.4,187.2,96.4,187.2L96.4,187.2z"/>
	<path class="st0" d="M22.4,104.2h-0.6l-0.2,2l-0.2,1.3c-0.9,17.8,3.5,32.3,13.2,42.9c11.1,12.2,29.1,19.1,52,20.1c0,0,0.4,0,0.4,0
		c6.9,0,13.4,0.1,18.9,0c23-1,41-7.9,52.1-20.1c9.7-10.6,14.1-25,13.2-42.9c0,0-0.2-1.3-0.2-1.3l-0.2-2l-0.6,0H22.4L22.4,104.2z"/>
	<path class="st2" d="M23,105.4c-0.1,0.4-0.1,0.9-0.1,0.9s-0.2,1.2-0.2,1.2c-0.1,1.5-0.1,3-0.1,4.4c0,15.5,4.4,28.1,13,37.6
		c2.1,2.3,4.4,4.3,6.9,6.2v-50.3C30.8,105.4,23.2,105.4,23,105.4L23,105.4z"/>
	<path class="st2" d="M170.1,107.6l-0.2-1.2c0,0-0.1-0.5-0.1-0.9c-0.2,0-7.9,0-19.6,0v50.3c2.5-1.9,4.9-4,6.9-6.2
		c8.7-9.5,13-22.1,13-37.6C170.2,110.5,170.1,109.1,170.1,107.6L170.1,107.6z"/>
	<path class="st3" d="M64.1,105.4c-8,0-15.3,0-21.5,0v50.3c6,4.4,13.2,7.8,21.5,10.1V105.4L64.1,105.4z"/>
	<path class="st3" d="M128.7,105.4v60.4c8.3-2.3,15.6-5.7,21.5-10.1v-50.3C144,105.4,136.7,105.4,128.7,105.4L128.7,105.4z"/>
	<path class="st2" d="M75.7,136.4c0-7.5,4-14,9.9-17.6v-13.4c-7.4,0-14.7,0-21.5,0v60.4c6.5,1.8,13.7,2.9,21.5,3.3V154
		C79.7,150.4,75.7,143.9,75.7,136.4L75.7,136.4z"/>
	<path class="st2" d="M107.2,105.4v13.4c5.9,3.6,9.9,10.2,9.9,17.6c0,7.5-4,14-9.9,17.6v15.1c7.8-0.4,15-1.5,21.5-3.3v-60.4
		C121.9,105.4,114.6,105.4,107.2,105.4L107.2,105.4z"/>
	<path class="st3" d="M107.2,118.8v-13.4c-7.1,0-14.4,0-21.5,0v13.4c3.1-1.9,6.8-3,10.8-3C100.3,115.8,104,116.9,107.2,118.8
		L107.2,118.8z"/>
	<path class="st3" d="M85.6,154v15.1c0.4,0,0.8,0,1.1,0.1l0.4,0c6.9,0,13.4,0.1,18.9,0c0.4,0,0.8,0,1.2-0.1V154
		c-3.1,1.9-6.8,3-10.8,3C92.4,157.1,88.7,155.9,85.6,154L85.6,154z"/>
	<path class="st1" d="M85.8,140.2c-3.7-3.4-3.7-10.3-2.7-14.9c0.3-1.3,0.6-2.5,1-4c-4.4,3.6-7.2,9-7.2,15.1c0,2.6,0.5,5,1.4,7.3
		c0.3,0,0.7,0.1,1,0.1C82.2,143.8,84.6,142.4,85.8,140.2L85.8,140.2z"/>
	<path class="st1" d="M105.9,141.6c-0.6,3.3-4.1,5.7-7.4,7.7c-3.4,2-8.9,3.1-13,3.3c3.1,2.1,6.8,3.3,10.9,3.3
		c7.4,0,13.8-4.1,17.1-10.1C112.9,141,108.3,140.4,105.9,141.6L105.9,141.6z"/>
	<path class="st1" d="M84,151.5c4.1,0,10.3-1,13.9-3.1c4.6-2.8,8.2-5.7,6.5-9.8c-0.9-2.1-3.7-4.5-7.5-1.8c-0.2,3.1-4,5.7-6.7,5.4
		c-1.4-0.2-2.5-0.6-3.5-1.2c-1.5,2.6-4.2,4.1-7.4,4.1c-0.2,0-0.3,0-0.5,0C80.1,147.5,81.8,149.7,84,151.5L84,151.5z"/>
	<path class="st1" d="M96.3,124.3c3.2-1.3,7.7,0.4,11.1,2.3c3.2,1.8,6.6,5.1,8.4,8.7c-0.6-10.2-9-18.2-19.3-18.3
		C93.5,118.9,93.9,122.7,96.3,124.3L96.3,124.3z"/>
	<path class="st1" d="M95.8,136.7c-4-2.9-3.7-7.5-2-10.2c0.4-0.7,0.9-1.2,1.5-1.6c-2.3-1.9-2.8-5.4-0.5-7.9
		c-3.4,0.3-6.5,1.4-9.1,3.2c-0.9,3.7-1.9,7-1.9,10.8c0.1,5.2,2.2,9.3,6.7,9.9C92.5,141.2,95.5,139,95.8,136.7L95.8,136.7z"/>
	<path class="st1" d="M115.8,138.2c-1.1-4-5.1-8.5-8.9-10.6c-4.7-2.6-9.9-4.1-12.1-0.5c-1.5,2.3-1.7,6.1,1.6,8.6
		c4.5-3.1,8.1-0.1,9.1,2.4c0.3,0.8,0.5,1.5,0.5,2.3c2.6-0.9,6.9-0.3,8.3,3.8C115.1,142.3,115.6,140.3,115.8,138.2L115.8,138.2z"/>
	<path class="st0" d="M78.6,81.7H65v19.2h4.2c0,0,0-7.5,0-7.9c0.4,0,5.7,0,5.7,0v-4c0,0-5.3,0-5.7,0c0-0.3,0-2.8,0-3.1
		c0.4,0,9.7,0,9.7,0v-4.1H78.6L78.6,81.7z"/>
	<path class="st0" d="M86.5,91.3c0,6,3.3,9.9,8.4,9.9c3.3,0,5.7-1.5,7.1-4.3l0.1-0.2l-3.5-2.1l-0.1,0.2c-1,1.7-1.9,2.3-3.5,2.3
		c-2.5,0-4.2-2.3-4.2-5.7c0-3.5,1.6-5.7,4.2-5.7c1.5,0,2.6,0.6,3.3,1.9l0.1,0.2l3.8-1.8l-0.1-0.2c-1.4-2.8-3.8-4.3-7-4.3
		C90,81.4,86.5,85.5,86.5,91.3L86.5,91.3z"/>
	<path class="st0" d="M125.3,90.5c1.2-0.8,1.8-2.1,1.8-3.6c0-3.2-2.3-5.2-6.1-5.2h-8.6h-0.2v19.2h8.7c4.3,0,6.9-2.3,6.9-6.3
		C127.8,92.8,126.9,91.3,125.3,90.5L125.3,90.5z M116.2,85.6c0.4,0,4.6,0,4.6,0c1.9,0,2.1,0.9,2.1,1.6c0,1.1-0.6,1.6-1.9,1.6
		c0,0-4.4,0-4.8,0C116.2,88.4,116.2,85.9,116.2,85.6L116.2,85.6z M121,96.9c0,0-4.4,0-4.8,0c0-0.4,0-4.1,0-4.5c0.4,0,4.8,0,4.8,0
		c1.7,0,2.5,0.7,2.5,2.2C123.5,96.1,122.7,96.9,121,96.9L121,96.9z"/>
	<path class="st0" d="M125.3,13.2c-9.3,5.6-18.8,8.3-29,8.4c-10.2,0-19.7-2.7-29-8.4L67.1,13l-0.3,0.2c-10.6,6-19.9,7.1-32.4,7.1
		c-3,0-6.1-0.3-9.2-0.9l-1.3-0.3l0.7,1.2c12.8,22,8.3,43.2,2.2,57.2l-0.4,0.9h140l-0.4-0.9c-6.1-13.9-10.6-35.2,2.2-57.2l0.7-1.2
		l-1.3,0.3c-3.1,0.6-6.2,0.9-9.2,0.9c-12.5,0-21.8-1.2-32.4-7.1l-0.3-0.2L125.3,13.2L125.3,13.2z"/>
	<path class="st4" d="M53.4,19.8c-5.9,1.4-11.9,1.8-19,1.8c-2.7,0-5.4-0.3-8.2-0.7c3.3,5.9,5.4,11.7,6.6,17.3c7.6,0,20.3,0,20.7,0
		C53.4,37.9,53.4,28,53.4,19.8L53.4,19.8z"/>
	<path class="st4" d="M95.8,38.1V22.8c-7.4-0.1-14.4-1.6-21.3-4.6c0,8.4,0,19.6,0,19.9C74.7,38.1,84.8,38.1,95.8,38.1L95.8,38.1z"/>
	<path class="st4" d="M33.4,59.2c-1,6.7-2.9,12.8-5.1,18c0.5,0,10.6,0,25.2,0c0-7.7,0-17.7,0-18C53.1,59.2,41,59.2,33.4,59.2
		L33.4,59.2z"/>
	<path class="st4" d="M74.5,77.2c6.9,0,14.1,0,21.3,0v-18c-10.9,0-21.1,0-21.3,0C74.5,59.4,74.5,69.5,74.5,77.2L74.5,77.2z"/>
	<path class="st5" d="M74.5,38.1c0-0.3,0-11.5,0-19.9c-2.5-1.1-4.9-2.3-7.4-3.8c-4.7,2.6-9.1,4.3-13.6,5.4c0,8.2,0,18.1,0,18.3
		c-0.3,0-13.1,0-20.7,0c0.9,4.1,1.2,8.1,1.2,12c0,3.1-0.2,6.1-0.7,9c7.7,0,19.8,0,20.1,0c0,0.3,0,10.3,0,18c6.3,0,13.5,0,21,0
		c0-7.7,0-17.7,0-18c0.2,0,10.4,0,21.3,0v-21C84.8,38.1,74.7,38.1,74.5,38.1L74.5,38.1z"/>
	<path class="st6" d="M125.7,14.4C125.7,14.5,125.7,14.5,125.7,14.4l0,62.7c2.5,0,5,0,7.4,0V17.9C130.6,17,128.2,15.8,125.7,14.4
		L125.7,14.4z"/>
	<path class="st6" d="M110.9,20.9v56.3c2.5,0,5,0,7.4,0V18.3C115.8,19.3,113.4,20.2,110.9,20.9L110.9,20.9z"/>
	<path class="st6" d="M97,22.8v54.4c2.2,0,4.3,0,6.5,0V22.3C101.4,22.6,99.2,22.8,97,22.8L97,22.8z"/>
	<path class="st6" d="M140.4,20.1v57.1c2.6,0,5.1,0,7.4,0v-56C145.3,20.9,142.8,20.6,140.4,20.1L140.4,20.1z"/>
	<path class="st6" d="M158.7,50.2c0-9.2,2.1-19.1,7.8-29.3c-2.8,0.5-5.5,0.7-8.2,0.7c-1.1,0-2.1,0-3.1,0v55.6c5.6,0,9,0,9.3,0
		C161.4,69.8,158.7,60.5,158.7,50.2L158.7,50.2z"/>
	<path class="st5" d="M147.8,21.2v56c2.7,0,5.2,0,7.4,0V21.6C152.6,21.5,150.2,21.4,147.8,21.2L147.8,21.2z"/>
	<path class="st5" d="M103.5,22.3v54.8c2.5,0,4.9,0,7.4,0V20.9C108.4,21.5,106,22,103.5,22.3L103.5,22.3z"/>
	<path class="st5" d="M118.3,18.3v58.9c2.5,0,5,0,7.4,0V14.5C123.2,15.9,120.7,17.2,118.3,18.3L118.3,18.3z"/>
	<path class="st5" d="M133,17.9v59.3c2.6,0,5,0,7.4,0V20.1C137.9,19.5,135.5,18.8,133,17.9L133,17.9z"/>
</g>
</svg>
