<?xml version="1.0" encoding="utf-8"?>
<!-- Generator: Adobe Illustrator 25.2.0, SVG Export Plug-In . SVG Version: 6.00 Build 0)  -->
<svg version="1.1" id="Layer_1" xmlns="http://www.w3.org/2000/svg" xmlns:xlink="http://www.w3.org/1999/xlink" x="0px" y="0px"
	 viewBox="0 0 192.8 192.8" style="enable-background:new 0 0 192.8 192.8;" xml:space="preserve">
<style type="text/css">
	.st0{fill:#FFFFFF;}
	.st1{fill:#FFDC00;}
	.st2{fill:#1D1D1B;}
	.st3{fill:#1D1D1B;stroke:#00151D;stroke-width:0.3082;stroke-miterlimit:10;}
	.st4{fill:#E3032E;}
</style>
<g>
	<ellipse id="kreis_x5F_hintergrund_x5F_weiß_1_" class="st0" cx="96.9" cy="96.5" rx="48.4" ry="48.5"/>
	<path id="banner_x5F_oben_x5F_gelb_1_" class="st1" d="M118.4,53.4c-6.5-3.1-13.8-5-21.5-5c-7.9,0-15.5,1.7-22.1,5.1
		c0,0-1.5,1.2-2.3-0.7l-7.8-20.8c0,0-0.5-1.2,0.9-1.7c0,0,14.2-6.7,30.1-7c0,0,16.2-0.2,31,6.9c0,0,2.3,0.8,1.5,2.7l-7.6,19.3
		C120.5,52.2,119.9,54.1,118.4,53.4z"/>
	<path id="banner_x5F_oben_x5F_kontur_1_" class="st2" d="M126.7,30.2c-14.8-7.1-31-6.9-31-6.9c-15.8,0.2-30.1,7-30.1,7
		c-1.4,0.5-0.9,1.7-0.9,1.7l7.8,20.8c0.8,1.9,2.3,0.7,2.3,0.7c6.6-3.4,14.2-5.1,22.1-5.1c7.7,0,15,1.9,21.5,5
		c1.5,0.7,2.1-1.3,2.1-1.3l7.6-19.3C129,31,126.7,30.2,126.7,30.2z M127.2,33.3l-7.4,17.8c0,0-0.6,1.8-2,1.2
		c-6.3-2.9-13.4-4.7-20.9-4.7c-7.7,0-15,1.6-21.4,4.7c0,0-1.5,1.1-2.3-0.7l-7.5-19.2c0,0-0.5-1.1,0.8-1.5c0,0,13.8-6.2,29.2-6.4
		c0,0,15.7-0.2,30.1,6.3C125.8,30.8,128,31.5,127.2,33.3z"/>
	<path id="banner_x5F_gelb_x5F_unten_1_" class="st1" d="M84.2,142.6c4.1,1,8.3,1.7,12.7,1.7c5.3,0,10.5-1.1,15.3-2.7
		c0,0,13.9-5.3,26.1-7.3c0,0,17.2-3.6,31.7-0.5c0,0,2.7,0.5,2,3.3l-5.8,20.6c0,0-0.7,3.1-2.8,2.4c0,0-5.8-1.6-13.6-1
		c0,0-4.7,0.3-10.2,2.2c0,0-15.5,5.1-20.6,6.1c0,0-11.1,2.2-19.9,2.2c0,0-11.3,0-21.1-1.7c0,0-9.4-1.8-16.8-4.6
		c0,0-8.5-3.4-18.6-3.8c0,0-6.7-0.4-11,1.1c0,0-2.1,0.9-3.1-1.9l-6.5-21.7c0,0-0.7-2.1,1.6-2.9c0,0,3.6-1.2,9.6-1.4
		c0,0,9-0.2,16.6,1c0,0,15.5,2.2,22.4,4.8C72.3,138.4,82.9,142.2,84.2,142.6z"/>
	<path id="banner_x5F_unten_x5F_kontur_1_" class="st2" d="M170,133.8c-14.6-3.1-31.7,0.5-31.7,0.5c-12.2,2-26.1,7.3-26.1,7.3
		c-4.8,1.6-9.9,2.7-15.3,2.7c-4.4,0-8.6-0.6-12.7-1.7c-1.4-0.3-11.9-4.2-11.9-4.2c-6.9-2.6-22.4-4.8-22.4-4.8
		c-7.6-1.2-16.6-1-16.6-1c-6,0.2-9.6,1.4-9.6,1.4c-2.3,0.8-1.6,2.9-1.6,2.9l6.5,21.7c0.9,2.7,3.1,1.9,3.1,1.9c4.3-1.6,11-1.1,11-1.1
		c10.1,0.4,18.6,3.8,18.6,3.8c7.4,2.7,16.8,4.6,16.8,4.6c9.8,1.7,21.1,1.7,21.1,1.7c8.8,0,19.9-2.2,19.9-2.2
		c5.2-1,20.6-6.1,20.6-6.1c5.5-1.9,10.2-2.2,10.2-2.2c7.8-0.7,13.6,1,13.6,1c2,0.8,2.8-2.4,2.8-2.4l5.8-20.6
		C172.7,134.3,170,133.8,170,133.8z M170.7,138.8l-5.7,18.7c0,0-0.4,1.9-2.5,1.2c0,0-5.9-1.3-13.7-0.7c0,0-4.7,0.6-10.2,2.3
		c0,0-15.3,5.1-20.5,6c0,0-11,2-19.7,2c0,0-11.2,0-20.9-1.6c0,0-9-2.3-16.3-4.8c0,0-8.6-3.3-18.5-3.6c0,0-7-0.4-11.2,1.1
		c0,0-1.2,0.7-1.9-1.4l-6-19.9c0,0-0.9-2.2,0-2.8c0,0,3.5-1.3,9.5-1.5c0,0,9-0.2,16.6,0.9c0,0,15.6,2.5,22.4,4.9
		c0,0,10.3,3.6,11.7,3.9c4,0.9,8.2,1.8,12.5,1.8c5.3,0,10.4-1,15.1-2.5c0,0,14-5.5,26-7.3c0,0,17-3.9,31.5-1.1
		C168.9,134.5,172.1,134.9,170.7,138.8z"/>
	<path id="ring_x5F_schwarz_1_" class="st2" d="M96.9,47.9c-26.7,0-48.4,21.7-48.4,48.5c0,26.8,21.7,48.5,48.4,48.5
		c26.7,0,48.4-21.7,48.4-48.5C145.3,69.6,123.7,47.9,96.9,47.9z M96.9,142.1c-25.3,0-45.8-20.4-45.8-45.6
		c0-25.2,20.5-45.6,45.8-45.6c25.3,0,45.9,20.4,45.9,45.6C142.8,121.6,122.2,142.1,96.9,142.1z"/>
	<path id="R_3_" class="st2" d="M136.4,100.1c-0.8-0.9-0.7-1.9-0.7-1.9c3.1,0,3.3-4.5,3.3-4.5c0-5.2-4.1-4.8-4.1-4.8h-10.7v15.2h3.3
		l0-5.9l3.4,0l4.3,5.9h4L136.4,100.1z M134.2,95.3h-6.6V92h7c0,0,1.5-0.1,1.5,1.7C136.1,93.6,136,95.3,134.2,95.3z"/>
	<polygon id="E_4_" class="st2" points="90.3,106.3 103,106.3 103,109.3 93.3,109.3 93.3,112.4 103,112.4 103,115.4 93.3,115.4 
		93.3,118.4 103,118.4 103,121.4 90.3,121.4 	"/>
	<path id="A_3_" class="st2" d="M82.4,89h-3.7l-7,15.2H75l1.1-2.6l9.2,0l1.5,2.5h3.7L82.4,89z M78.3,98.6l2.6-5.6l2.9,5.6H78.3z"/>
	<path id="B_6_" class="st2" d="M68.9,96.6c1.2-0.8,1.1-3.3,1.1-3.3c0-4.6-3.7-4.2-3.7-4.2H55.2l0,15.2h11.4c3.6,0,3.7-4.2,3.7-4.2
		C70.4,97.2,68.9,96.6,68.9,96.6z M58.1,92.1h7.4c0,0,1.5-0.1,1.5,1.5c0,0,0.1,1.5-1.5,1.5h-7.4V92.1z M66.2,101.1h-8v-3h8
		c0,0,1.6-0.1,1.6,1.5C67.7,99.6,67.8,101.1,66.2,101.1z"/>
	<path id="R_2_" class="st2" d="M101.3,135c-0.8-0.9-0.7-1.9-0.7-1.9c3.1,0,3.3-4.5,3.3-4.5c0-5.2-4.1-4.8-4.1-4.8H89.1V139h3.3
		l0-5.9l3.4,0l4.3,5.9h4L101.3,135z M99.1,130.2h-6.6v-3.3h7c0,0,1.5-0.1,1.5,1.7C101,128.5,100.9,130.2,99.1,130.2z"/>
	<polygon id="E_3_" class="st2" points="107.5,89 120.2,89 120.2,92 110.5,92 110.5,95.1 120.2,95.1 120.2,98.1 110.5,98.1 
		110.4,101.1 120.2,101.1 120.2,104.2 107.5,104.2 	"/>
	<polygon id="Y_1_" class="st2" points="87,89 91.4,89 96.8,94.6 101.8,89 106.3,89 98.5,98.3 98.4,104.2 95.1,104.2 95.1,98.3 	"/>
	<path id="A_2_" class="st2" d="M97.9,71.6h-3.7l-7,15.2h3.3l1.1-2.6l9.2,0l1.5,2.5h3.7L97.9,71.6z M93.8,81.2l2.6-5.6l2.9,5.6H93.8
		z"/>
	<path id="B_5_" class="st2" d="M102.8,61.9c1.2-0.8,1.1-3.3,1.1-3.3c0-4.5-3.7-4.1-3.7-4.1H89l0,14.8h11.4c3.6,0,3.7-4.1,3.7-4.1
		C104.2,62.5,102.8,61.9,102.8,61.9z M92,57.5h7.4c0,0,1.5-0.1,1.5,1.5c0,0,0.1,1.5-1.5,1.5H92V57.5z M100,66.3h-8v-2.9h8
		c0,0,1.6-0.1,1.6,1.5C101.6,64.8,101.7,66.3,100,66.3z"/>
	<g id="Leverkusen_1_">
		<path class="st2" d="M34.4,138.5l3.1,0l0.1,12l7.3-0.1l0,2.6l-10.4,0.1L34.4,138.5z"/>
		<path class="st2" d="M54.3,143.4c0.7,0.4,1.3,1,1.7,1.8c0.4,0.7,0.6,1.5,0.6,2.3c0,0.5,0,1.2-0.1,2.2l-7.9-0.8
			c-0.1,1.1,0.2,1.9,0.9,2.4c0.4,0.3,0.9,0.5,1.5,0.6c0.6,0.1,1.2-0.1,1.6-0.3c0.2-0.2,0.5-0.4,0.7-0.7l2.9,0.3
			c-0.1,0.6-0.6,1.2-1.2,1.8c-1.1,1-2.5,1.3-4.2,1.2c-1.4-0.1-2.7-0.7-3.7-1.7c-1-1-1.4-2.5-1.2-4.5c0.2-1.9,0.8-3.3,1.9-4.2
			c1.1-0.9,2.4-1.3,4-1.1C52.8,142.7,53.6,143,54.3,143.4z M49.9,145.4c-0.4,0.4-0.7,0.9-0.9,1.6l4.9,0.5c0-0.8-0.2-1.3-0.6-1.8
			c-0.4-0.4-1-0.7-1.6-0.7C50.9,144.9,50.3,145,49.9,145.4z"/>
		<path class="st2" d="M67.5,146.4l2.9,0.8l-6.7,9.4l-2.9-0.8l-0.8-11.5l3.1,0.9l0,8.3L67.5,146.4z"/>
		<path class="st2" d="M79.9,150.2c0.6,0.5,1.1,1.2,1.4,2c0.3,0.7,0.3,1.5,0.2,2.4c-0.1,0.5-0.2,1.2-0.5,2.1l-7.6-2.1
			c-0.2,1.1-0.1,1.9,0.5,2.5c0.3,0.4,0.8,0.6,1.4,0.8c0.6,0.2,1.2,0.1,1.6-0.1c0.3-0.1,0.5-0.3,0.8-0.6l2.8,0.8
			c-0.2,0.6-0.8,1.1-1.5,1.6c-1.2,0.8-2.7,0.9-4.3,0.5c-1.4-0.4-2.5-1.1-3.3-2.3c-0.8-1.1-1-2.7-0.5-4.6c0.5-1.8,1.3-3.1,2.6-3.8
			c1.2-0.7,2.6-0.9,4.1-0.4C78.5,149.2,79.3,149.6,79.9,150.2z M75.2,151.4c-0.5,0.3-0.9,0.8-1.2,1.4l4.7,1.3
			c0.1-0.7,0.1-1.4-0.3-1.9c-0.3-0.5-0.8-0.8-1.5-1C76.3,151.1,75.7,151.1,75.2,151.4z"/>
		<path class="st2" d="M91.7,152c0,0,0.1,0,0.2,0l-0.4,2.9c-0.2,0-0.3-0.1-0.5-0.1c-0.1,0-0.2,0-0.3-0.1c-1.1-0.2-1.9,0.1-2.4,0.8
			c-0.3,0.4-0.5,1-0.6,1.9l-0.7,5.1l-2.8-0.4l1.6-10.7l2.7,0.4l-0.3,1.9c0.5-0.7,1-1.1,1.3-1.3c0.6-0.4,1.3-0.5,2.1-0.4
			C91.6,152,91.7,152,91.7,152z"/>
		<path class="st2" d="M95,148.8l2.8-0.1l0.4,7.9l3.4-4.3l3.5-0.2l-3.7,4.2l4.4,6.5l-3.4,0.2l-2.9-4.5l-1.1,1.3l0.2,3.4l-2.8,0.1
			L95,148.8z"/>
		<path class="st2" d="M111.4,150.7l1.7,6.3c0.2,0.6,0.3,1,0.6,1.3c0.4,0.5,0.9,0.6,1.7,0.4c0.9-0.2,1.5-0.8,1.6-1.6
			c0.1-0.5,0-1-0.2-1.7l-1.5-5.7l2.8-0.7l2.8,10.5l-2.7,0.7l-0.4-1.5c0,0-0.1,0.2-0.1,0.3c-0.1,0.2-0.1,0.4-0.3,0.5
			c-0.3,0.5-0.7,0.9-1,1.1c-0.4,0.2-0.8,0.4-1.3,0.6c-1.5,0.4-2.7,0.1-3.6-0.8c-0.5-0.5-0.9-1.4-1.2-2.6l-1.7-6.3L111.4,150.7z"/>
		<path class="st2" d="M125.8,154.1c0.2,0.5,0.4,0.8,0.7,0.9c0.4,0.3,1.1,0.3,2,0c0.5-0.1,0.9-0.3,1.2-0.6c0.3-0.2,0.4-0.5,0.3-0.8
			c-0.1-0.3-0.3-0.5-0.6-0.6c-0.3-0.1-1.3-0.1-3.1-0.1c-1.3,0-2.2-0.1-2.8-0.4c-0.6-0.3-1-0.9-1.2-1.7c-0.3-1-0.1-1.9,0.5-2.8
			c0.6-0.9,1.6-1.5,2.9-1.9c1.3-0.3,2.4-0.4,3.4-0.1c1,0.3,1.7,1.1,2.1,2.3l-2.7,0.7c-0.1-0.3-0.3-0.6-0.5-0.8
			c-0.4-0.3-1-0.3-1.7-0.2c-0.6,0.2-1,0.4-1.2,0.6c-0.2,0.3-0.3,0.5-0.2,0.8c0.1,0.3,0.3,0.5,0.6,0.6c0.3,0.1,1.3,0.1,3.1,0
			c1.2,0,2.1,0.1,2.8,0.5c0.7,0.4,1.1,1,1.3,1.8c0.3,1,0.1,2-0.5,2.8c-0.6,0.9-1.7,1.5-3.3,1.9c-1.7,0.4-3,0.4-3.9-0.1
			c-1-0.5-1.6-1.3-1.9-2.3L125.8,154.1z"/>
		<path class="st3" d="M142.9,143.4c0.8,0.3,1.4,0.9,1.9,1.6c0.4,0.6,0.7,1.4,0.9,2.2c0.1,0.5,0.1,1.2,0.1,2.2h-7.9
			c0,1.1,0.4,1.8,1.1,2.3c0.4,0.3,1,0.4,1.6,0.4c0.6,0,1.2-0.2,1.6-0.5c0.2-0.2,0.4-0.4,0.6-0.7h2.9c-0.1,0.6-0.4,1.3-1.1,2
			c-1,1.1-2.3,1.6-4.1,1.6c-1.4,0-2.7-0.4-3.8-1.3c-1.1-0.9-1.7-2.3-1.7-4.3c0-1.9,0.5-3.3,1.5-4.3c1-1,2.3-1.5,3.9-1.5
			C141.2,142.9,142.1,143.1,142.9,143.4z M138.6,145.9c-0.4,0.4-0.7,1-0.8,1.7h4.9c-0.1-0.8-0.3-1.3-0.8-1.7c-0.5-0.4-1-0.6-1.7-0.6
			C139.6,145.2,139,145.4,138.6,145.9z"/>
		<path class="st2" d="M157.9,142.5c0.7,0.6,1.1,1.6,1.1,2.9v7.3h-2.9v-6.6c0-0.6-0.1-1-0.2-1.3c-0.3-0.6-0.8-0.8-1.6-0.8
			c-1,0-1.6,0.4-2,1.2c-0.2,0.4-0.3,1-0.3,1.7v5.9h-2.8v-10.8h2.7v1.6c0.4-0.6,0.7-1,1-1.2c0.6-0.4,1.3-0.7,2.2-0.7
			C156.3,141.6,157.2,141.9,157.9,142.5z"/>
	</g>
	<path class="st2" d="M74.2,37.7L73.7,36c0.9-0.3,1.4-0.5,1.8-0.7c0.5-0.3,0.9-0.6,1.1-1c0.2-0.3,0.2-0.6,0.2-1c0-0.2,0-0.4-0.1-0.5
		l2.3-0.7l4.1,12.4l-2.8,0.8l-2.8-8.6L74.2,37.7z"/>
	<path class="st2" d="M84.7,32.3c0.6-1,1.6-1.6,2.8-1.8c1.9-0.4,3.4,0.2,4.4,1.8c0.6,0.9,1,2.1,1.3,3.7c0.3,1.5,0.3,2.8,0.1,3.9
		c-0.4,2.1-1.6,3.3-3.5,3.6c-0.9,0.2-1.8,0.1-2.7-0.4c-0.9-0.4-1.4-1.1-1.7-2.2l2.5-0.5c0.1,0.4,0.3,0.6,0.6,0.8
		c0.3,0.2,0.7,0.2,1.1,0.2c0.8-0.1,1.3-0.7,1.5-1.7c0.1-0.5,0.1-1.3-0.1-2.2c-0.2,0.3-0.4,0.6-0.6,0.8c-0.4,0.4-1,0.6-1.6,0.7
		c-1,0.2-1.9,0-2.8-0.5c-0.9-0.5-1.5-1.5-1.7-2.8C83.9,34.5,84.1,33.3,84.7,32.3z M89.8,36.5c0.5-0.5,0.7-1.1,0.5-2
		c-0.1-0.7-0.4-1.2-0.8-1.6c-0.4-0.4-0.9-0.5-1.5-0.4c-0.4,0.1-0.8,0.3-1,0.6c-0.4,0.5-0.5,1.1-0.4,2c0.1,0.7,0.4,1.3,0.8,1.6
		c0.4,0.3,0.9,0.4,1.5,0.3C89.2,36.9,89.5,36.8,89.8,36.5z"/>
	<path class="st2" d="M104.8,32c0.6,1.2,0.7,2.9,0.5,5c-0.2,2.1-0.7,3.7-1.4,4.8c-0.8,1.1-1.9,1.5-3.6,1.4c-1.6-0.1-2.7-0.8-3.3-2
		c-0.6-1.2-0.7-2.8-0.5-5c0.2-2.1,0.7-3.7,1.4-4.8c0.8-1.1,1.9-1.6,3.6-1.4C103.1,30.1,104.2,30.8,104.8,32z M99.1,39.8
		c0.2,0.8,0.6,1.2,1.4,1.3c0.7,0.1,1.3-0.3,1.6-1c0.3-0.8,0.5-1.9,0.6-3.3c0.1-1.5,0.1-2.7,0-3.4c-0.2-0.8-0.6-1.2-1.4-1.2
		c-0.7-0.1-1.3,0.3-1.6,1c-0.3,0.7-0.5,1.8-0.7,3.4C99,37.9,99,39,99.1,39.8z"/>
	<path class="st2" d="M115.3,42.5l-1.4-0.3l-0.6,2.7l-2.4-0.6l0.6-2.7l-5-1.2l0.5-2.2l6.4-6.6l2.8,0.6l-1.8,7.9l1.4,0.3L115.3,42.5z
		 M111.9,39.7l1.3-5.5l-4.4,4.7L111.9,39.7z"/>
	<g id="löwe_x5F_links_x5F_rot_1_">
		<path id="löwe_x5F_hintergrund_x5F_rot_3_" class="st4" d="M59.7,47.8c0,0-0.4-2.8,2.5-4.9c0,0,1.9,0.6,3.1-0.4
			c0,0,1.3-1.3,2.3-1.3c0,0,1.6-0.4,2.1-2.7c0,0,0.4-2-1.2-2.2c0,0-1.8-0.4-2.3-2.5c0,0-0.4-1.5,1.1-2.9c0,0,1.5-1.3,0.5-2.4
			c0,0-0.9-1.3-3.7,0c0,0-2.1-2.2-4.4-0.2c0,0-2.7-1.1-4.9,3.9c0,0-3.7-1-7-1.3c0,0-0.9-1.8-5.3-1.9c0,0-0.4-0.2-0.5-1.3
			c0,0-0.5-1.3-2.2-1.8c0,0-1.6-0.3-1.6-1.2c0,0-0.1-1.1-1.9-0.9c0,0-2.9,0.2-2,3.1c0,0-1.4-0.1-2.4,0.2c0,0-1.8,0.6-2-0.1
			c0,0-0.9-2.1-1.8-1.5c0,0-3.4,1.7-2.4,3.6c0,0,1.3,1.6,0.8,2.1c0,0-1.3,1.8-2,1.1c0,0-1.3-2-1.9-1.5c0,0-2.8,2-1.7,3.5
			c0,0,0.7,1.2,1.3,1.6c0,0,0.5,0.3,0.3,2c0,0-0.4,2-0.2,2.7c0,0,0.1,0.7-0.4,0.7c0,0-1.5,0.1-1.9-0.4c0,0-1-1.4-1.6-0.1
			c0,0-1.7,3.8,3,4.7c0,0-0.4,3.1-0.3,4.2c0,0,0.1,1.2-1.8,0.8c0,0-1.6-0.8-1.9,0.5c0,0-0.8,3.1,3.9,3.3c0,0,0.5-0.1,0.6,1
			c0,0,0,1.2,0.4,1.7c0,0,0.7,1.4-0.1,1.6c0,0-0.6,0.3-1.4,0.1c0,0-1.5-0.6-1.5,0.6c0,0-0.2,3,2.6,3.5c0,0,0.6,0.1,1.5-0.1
			c0,0,0.8-0.3,0.7,0.6c0,0,0.3,4.8-1.3,4.9c0,0-0.5,0.1-1.7,0c0,0,1.7,3.4,4.2,3.8c0,0,0.4,2.4-2,5.5c0,0-3.3,5.3-3.6,6
			c0,0-1.4,3.1-2.7,4.3c0,0-2.5,3.6-2.1,8.1c0,0-8.9,1.4-10.1-9.4c0,0-0.3-4.7,4.4-11.5c0,0,3.6-3.9,3.6-11.1c0,0,0.1-4-0.7-5.9
			c0,0,4.5-4.3,0.8-8.6c0,0-2.5-3-5.4-3c0,0-2.9-0.5-6.9,2.9c0,0,3.4,3.6,3,5.6c0,0,0.7,3.2,5,3.1c0,0,3.1,7.2-1.9,14.5
			c0,0-5.7,7.7-5.7,13.8c0,0,0.2,14.9,15.9,14.3c0,0,1.6,2.6,3.3,3.1c0,0,0.9,3.8-1.7,7.4c0,0-2,2.4-3.3,3.1c0,0-2.3,1.3,1.7,4.5
			c0,0,10.6,6.8,12.3,14.5c0,0,7.2-1.1,14.7,0c0,0,2.2-1.6,1.7-4c0,0,4.8-2.9-0.1-7.1c0,0-1.7-1.3-4.4-1.2c0,0-1.6,0.3-3.5-1.6
			c0,0-1.2-0.7-1.8-1.1c0,0-5.3-3.4-3.7-4.8c0,0,11.4-5.2,11.2-11.3c0,0,0.5-7-7.4-7.4c0,0-0.2-5.9,3.9-9c0,0,5.6-4.1,7.4-8.7
			c0,0,3.6-1.4,8.2-10.2c0,0,4.4-8.3,4.9-9.3c0,0,3.1-0.7,4.9-2.1c0,0,1.8,1.7,4.1,0.5c0,0,1-0.3,1-2.1c0,0,1.7,0.9,2.2-0.4
			c0,0,0.9-1.5-1.3-4.8c0,0,0.9-2.7-1.8-4.1c0,0-4.7-0.8-7.7,2.6C61.6,47.5,60.7,48.6,59.7,47.8z"/>
		<g>
			<path class="st2" d="M71.1,49c0,0,0.9-2.7-1.8-4.1c0,0-4.7-0.8-7.7,2.6c0,0-0.9,1.1-1.9,0.3c0,0-0.4-2.8,2.5-4.9
				c0,0,1.9,0.6,3.1-0.4c0,0,1.3-1.3,2.3-1.3c0,0,1.6-0.4,2.1-2.7c0,0,0.4-2-1.2-2.2c0,0-1.8-0.4-2.3-2.5c0,0-0.4-1.5,1.1-2.9
				c0,0,1.5-1.3,0.5-2.4c0,0-0.9-1.3-3.7,0c0,0-2.1-2.2-4.4-0.2c0,0-2.7-1.1-4.9,3.9c0,0-3.7-1-7-1.3c0,0-0.9-1.8-5.3-1.9
				c0,0-0.4-0.2-0.5-1.3c0,0-0.5-1.3-2.2-1.8c0,0-1.6-0.3-1.6-1.2c0,0-0.1-1.1-1.9-0.9c0,0-2.9,0.2-2,3.1c0,0-1.4-0.1-2.4,0.2
				c0,0-1.8,0.6-2-0.1c0,0-0.9-2.1-1.8-1.5c0,0-3.4,1.7-2.4,3.6c0,0,1.3,1.6,0.8,2.1c0,0-1.3,1.8-2,1.1c0,0-1.3-2-1.9-1.5
				c0,0-2.8,2-1.7,3.5c0,0,0.7,1.2,1.3,1.6c0,0,0.5,0.3,0.3,2c0,0-0.4,2-0.2,2.7c0,0,0.1,0.7-0.4,0.7c0,0-1.5,0.1-1.9-0.4
				c0,0-1-1.4-1.6-0.1c0,0-1.7,3.8,3,4.7c0,0-0.4,3.1-0.3,4.2c0,0,0.1,1.2-1.8,0.8c0,0-1.6-0.8-1.9,0.5c0,0-0.8,3.1,3.9,3.3
				c0,0,0.5-0.1,0.6,1c0,0,0,1.2,0.4,1.7c0,0,0.7,1.4-0.1,1.6c0,0-0.6,0.3-1.4,0.1c0,0-1.5-0.6-1.5,0.6c0,0-0.2,3,2.6,3.5
				c0,0,0.6,0.1,1.5-0.1c0,0,0.8-0.3,0.7,0.6c0,0,0.3,4.8-1.3,4.9c0,0-0.5,0.1-1.7,0c0,0,1.7,3.4,4.2,3.8c0,0,0.4,2.4-2,5.5
				c0,0-3.3,5.3-3.6,6c0,0-1.4,3.1-2.7,4.3c0,0-2.5,3.6-2.1,8.1c0,0-8.9,1.4-10.1-9.4c0,0-0.3-4.7,4.4-11.5c0,0,3.6-3.9,3.6-11.1
				c0,0,0.1-4-0.7-5.9c0,0,4.5-4.3,0.8-8.6c0,0-2.5-3-5.4-3c0,0-2.9-0.5-6.9,2.9c0,0,3.4,3.6,3,5.6c0,0,0.7,3.2,5,3.1
				c0,0,3.1,7.2-1.9,14.5c0,0-5.7,7.7-5.7,13.8c0,0,0.2,14.9,15.9,14.3c0,0,1.6,2.6,3.3,3.1c0,0,0.9,3.8-1.7,7.4c0,0-2,2.4-3.3,3.1
				c0,0-2.3,1.3,1.7,4.5c0,0,10.6,6.8,12.3,14.5c0,0,7.2-1.1,14.7,0c0,0,2.2-1.6,1.7-4c0,0,4.8-2.9-0.1-7.1c0,0-1.7-1.3-4.4-1.2
				c0,0-1.6,0.3-3.5-1.6c0,0-1.2-0.7-1.8-1.1c0,0-5.3-3.4-3.7-4.8c0,0,11.4-5.2,11.2-11.3c0,0,0.5-7-7.4-7.4c0,0-0.2-5.9,3.9-9
				c0,0,5.6-4.1,7.4-8.7c0,0,3.6-1.4,8.2-10.2c0,0,4.4-8.3,4.9-9.3c0,0,3.1-0.7,4.9-2.1c0,0,1.8,1.7,4.1,0.5c0,0,1-0.3,1-2.1
				c0,0,1.7,0.9,2.2-0.4C72.4,53.8,73.3,52.3,71.1,49z M56,31.8c0,0,1-2.2,2.5-2.4c0,0-0.2,1.6,0.6,1.7c0,0,0.8,0.2,0.8-1
				c0,0,0.3-1.9,2-1.6c0,0,0.9,0.1,0.4,1.2c0,0-1,2.1,0.1,2.4c0,0,0.9,0.4,1-1.4c0,0,0.1-1.7,2.2-1.7c0,0,1.9,0.1,1,1.1
				c0,0-2.3,1.6-1.7,3.9c0,0,0.4,1.8,2.1,3c0,0,1.9,0.3,1.4,1.5c0,0-0.5,1.3-1.6,1.7c0,0-1.3,0.5-1.8,1.1c0,0-0.6,0.7-1.7,0.4
				c0,0-1.2,0.2-1.3-0.6c0,0-0.8-0.1-0.9,0.8c0,0,0,0.6-1,1.4c0,0-2.1,2.6-2.2,4.7c0,0-0.6,1.7-1.9,2.6c0,0-3.4,2.3-3.3,3.1
				c0,0-2.1,2.4-2.3,0.6c0,0-0.4-3.9-1-4.7c0,0-0.7-1,0.5-1.2c0,0,3.1-0.3,4.1-3.2c0-0.1,0.5-1.6-1.1-1.5c0,0-4.7,1.3-5.3,0
				c0,0-0.5-1.5,1.1-1.8c0,0,1.6-0.2,3,0c0,0,3.5,0.6,4.4-1.2c0,0,0.4-1.6,0.2-2.2c0,0-0.1-1.7,0.7-2.2c0,0,0.7-0.5,0.6-1.6
				c0,0,0.2-1.7-0.7-2.1C57,32.8,55.7,32.8,56,31.8z M42.6,30c3.6-0.2,4.3,1.3,4.3,1.3c0.5,0.9,2.5,0.9,2.5,0.9
				c1.1,0,2.3,0.3,2.3,0.3c0.3,0.5,3.9,1.2,3.9,1.2c0.7,0.1,0.7,1.2,0.7,1.2c0,0.9-0.3,1.3-0.3,1.3c-1.2,0.7-0.8,4.1-0.8,4.1
				c-0.2,1.3-3.2,0.8-3.2,0.8c-2.4-0.3-4.6,0-4.6,0c-0.9,0.1-0.9,2.3-0.9,2.3c-0.1,1.5,0.6,1.7,0.6,1.7c1.7,0.6,4.8,0,4.8,0
				c1.6-0.6,0.6,1,0.6,1c-2.1,2.1-8.2,1.7-8.2,1.7l-1.8,0c-1.1,0-2.2-1.1-2.2-1.1c-1.2-1.4-4.8-2.8-4.8-2.8
				c-2.2-1.1-2.8-2.7-2.8-2.7c-0.5-1.8,0.7-4.5,0.7-4.5c0.5-1.5-0.2-1.8-0.2-1.8c-1.2-0.6-1.4-2.1-1.4-2.1c0-2,2.7-1.8,2.7-1.8
				c1.1,0,2.6-0.7,2.6-0.7c1.2-0.9,2.4-0.6,2.4-0.6C40.1,29.9,42.6,30,42.6,30z M22.8,69.4c1.1,0,1.7-1.4,1.7-1.4
				c0.9-2.8,0.1-5.2,0.1-5.2c-0.5-1.1-1.4-0.7-1.4-0.7c-0.5,0.2-1.5,0-1.5,0c-1.6-0.3-1.8-2.1-1.8-2.1c-0.2-0.8,1.3-0.2,1.3-0.2
				c1.1,0,1.7-0.7,1.7-0.7c0.9-0.6,0-2.2,0-2.2C22.4,56,22.4,55,22.4,55c-0.1-1.2-0.7-1.2-0.7-1.2C18.6,53.7,18,52,18,52
				c-0.5-1.4,1-0.6,1-0.6c0.6,0.2,1.7-0.2,1.7-0.2c1-0.5,0.9-1.1,0.9-1.1c-0.2-0.8,0.5-4.9,0.5-4.9c-4.1-0.7-3.3-3-3.3-3
				c0-1.2,1.3-0.2,1.3-0.2c0.9,0.5,1.9,0.3,1.9,0.3c1.2,0,1-1.4,1-1.4c-0.2-0.9,0.3-3.7,0.3-3.7c0.1-1.8-1.5-2.9-1.5-2.9
				c-0.8-0.8,0.7-1.9,0.7-1.9c0.5-0.8,1-0.1,1-0.1l1,0.9c0.6,0.6,1.6-0.3,1.6-0.3l1.4-1.3c0.7-0.7-0.8-2.7-0.8-2.7
				c-0.7-1.1,1.3-2,1.3-2c0.5-0.7,1.2,0.7,1.2,0.7c0.9,0.9,2.2,0.7,2.2,0.7c1.3-0.7,4.3-0.5,4.3-0.5c0.1-0.7-0.6-1.5-0.6-1.5
				c-0.4-1.2,1.3-1.5,1.3-1.5c0.9-0.3,1.3,1,1.3,1c0.6,0.8,1.5,1.2,1.5,1.2c1,0.1,2.1,0.8,2.1,0.8c0.9,0.8-0.2,0.8-0.2,0.8h-1.4h-1
				c-1.3,0-2.4,1-2.4,1c-0.4,0.5-3.1,0.5-3.1,0.5c-1.3,0.2-2.3,1.5-2.3,1.5c-1.1,1.7,1.2,3.6,1.2,3.6c1.1,1.3-0.2,2.9-0.2,2.9
				c-0.7,1-0.5,3.8-0.5,3.8c0.2,2.3,4.8,3.9,4.8,3.9c1.4,0.3,3.4,2,3.4,2c0.9,1.1,2.7,1.2,2.7,1.2l5,0c1.7,0.2,2.1,4.2,2.1,4.2
				c0.3,1.9,1.4,3.4,1.4,3.4c1.2,1.5,3,1.1,3,1.1c1-0.3,1.1,0.8,1.1,0.8c0.2,1.2-0.8,2.1-0.8,2.1c-1.3,1.1-3.1,0.1-3.1,0.1
				c-1-0.3-0.5,1.3-0.5,1.3c0.3,0.4,0.1,2.4,0.1,2.4c0,0.6-0.3,0.9-0.3,0.9c-0.2,0.1-0.5,0.4-0.5,0.4c-0.6,2.1,0.7,2.6,0.7,2.6
				c0.7,0.2,0.6,0.9,0.6,0.9c0.1,1.8-2.3,1.6-2.3,1.6c-1.5,0.1-1.5-2.1-1.5-2.1c0.1-0.4-0.4-2.2-0.4-2.2c-0.9-2.1-2.3-1.7-2.3-1.7
				c-2.3,0.2-1.9,1.5-1.9,1.5c0.1,0.7-0.2,2.3-0.2,2.3C42.1,71.9,44,73,44,73c0.7,0.3,0.4,0.7,0.4,0.7c-1.2,1.9-3.3,0.8-3.3,0.8
				c-2.6-1.6-1.9-5.2-1.9-5.2c0.3-1.9-0.6-3.2-0.6-3.2c-1.2-1.5-2.6,0.1-2.6,0.1c-1.9,2-0.7,6.8-0.7,6.8c0.4,1.6-1.4,1.1-1.4,1.1
				C32.7,74,32,72,32,72c-0.6-1.2-0.2-2.5-0.2-2.5c0.2-0.2,0.5-2.7,0.5-2.7c0.1-2.4-1.7-2.1-1.8-2.1c-0.8-0.1-1.9,1.6-1.9,1.6
				c-0.5,0.7-0.5,1.6-0.5,1.6c0.1,0.9-0.5,1.8-0.5,1.8c-0.7,1.7-2,1.7-2,1.7C23.3,71.4,22.8,69.4,22.8,69.4z M3.1,92.7
				c0,0-2.1-4.8-1.1-9.5c0,0,1.9-5.7,4.5-8.7c0,0,6.2-7.4,2.3-17.1c0,0-3.9,0.3-4.5-2.4c0,0,0.1-2.4-2.6-5.2c0,0,2.2-2.1,5.5-2
				c0,0,5-0.2,6.1,5.8c0,0,0.4,1.8-2.2,4c0,0,2.1,8.5-0.8,14.1c0,0-2,3.8-3.4,5.5c0,0-3.1,4.9-2.9,9.8c0,0-0.1,6,4.9,8.8
				c0,0,1.5,1.3,6,1.4L16,100C16,100,8,101.5,3.1,92.7z M31.1,132.3c0,0-1.2,0.5-1.5-0.5c0,0-2-5.3-6-8.5c0,0-6.3-5.3-6.8-5.4
				c0,0-2.3-1.4-0.9-2.8c0,0,3.3-2.5,3.9-4.2c0,0,1.5-2.7,1.1-5.5c0,0,2,1,2,3.8c0,0-0.2,3.1-2.5,4.3c0,0-1.9,1-1.4,3
				c0,0,0.6,1.3,2.5,2.7c0,0,6.6,4.1,10.7,11.8C32.3,130.8,32.8,131.7,31.1,132.3z M45.7,78c-1.1,2-3,3.8-3,3.8
				c-0.5,0.5-2.7,2.3-2.7,2.3c-5.2,3.7-5.4,10.4-5.4,10.4c-1-0.3-2.5,0.1-2.5,0.1c-1.6,0.5-1.2,1-1.2,1c0.2,1.1,1.3,0.7,1.3,0.7
				c6.2-1.3,8.3,1.8,8.3,1.8c3.3,4.4,0.8,7.4,0.8,7.4c-2,3.3-9,6.8-9,6.8c-2.3,1.4-1.3,2.9-1.3,2.9c0.5,1.6,5.3,5.1,5.3,5.1
				c1.7,1.7,4.6,1.8,4.6,1.8c2.8,0.3,4.1,1.4,4.1,1.4c3,2.3,1.4,4.2,1.4,4.2c-0.7,1-1.2,0.2-1.2,0.2l-1.6-1.9
				c-0.8-0.9-1.6-0.2-1.6-0.2c-0.6,0.7,2.1,3.1,2.1,3.1c1.1,1,0.4,2.2,0.4,2.2c-0.5,1.3-2,1-2,1c-1.5,0-1.9-1.2-1.9-1.2
				c-0.9-2-1.8-2.9-1.8-2.9c-0.8-1.3-1.4-0.7-1.4-0.7c-0.9,0.7,0.4,1.4,0.4,1.4c1.2,0.6,1.5,2.4,1.5,2.4c0.1,1.4-2.8,1-2.8,1
				c-2.5-0.1-3.5-2.4-3.5-2.4c-3.5-7.2-8.7-10.2-8.7-10.2c-1.3-0.5-3.7-2.8-3.7-2.8c-1.2-2,1.3-3,1.3-3c2.3-2,2-4.9,2-4.9
				c-0.2-3.8-2.1-4.5-2.1-4.5c-4-2.9-5.4-5.6-5.4-5.6c-1.8-6,1-9.5,1-9.5c1.2-1.3,3.2-5,3.2-5c0.3-1.3,3.1-5.6,3.1-5.6
				c1.5-1.9,2.3-5,2.3-5c0.2-0.9,0.9-1.2,0.9-1.2c2.1-1.1,2.1-4,2.1-4c0.1-1.5,1.2-2.3,1.2-2.3c1.7-1,0.7,2.1,0.7,2.1
				c-1,3.3,0.4,5.5,0.4,5.5c1.9,2.6,4.1,1.7,4.1,1.7c2.1-0.6,1.2-1.7,1.2-1.7c-1.5-3.9,0.2-5.8,0.2-5.8c1.4-1.6,1.5,0.6,1.5,0.6
				c-0.2,0.7,0.2,3.9,0.2,3.9c1,4.4,6.8,5.2,6.8,5.2C46,77.5,45.7,78,45.7,78z M70.8,53.4c0,0-2.5-2.5-2.8-2.6c0,0-1.4-0.5-1,0.6
				c0,0,0.8,1,1.5,1.5c0,0,1.2,1,0.6,1.9c0,0-0.7,1.3-2.3,0.6c0,0-1.5-1.1-2.3-0.7c0,0-2.3,1.2-3.4,1.4c0,0-1.8,0.3-2.3,1.8
				c0,0-6.8,15.7-12.3,18c0,0-2.6,0.6-2.1-0.6c0,0,0-0.7,0.6-0.8c0-0.1,1.2-0.9,0-1.9c0,0-2.2-1.4-1.6-5.8c0,0,0-0.9,0.9-1
				c0,0,1-0.2,1.3,1.1c0,0,0.3,1.4,0.2,1.9c0,0,0.3,2.7,2.1,2.8c0,0,2.1,0.3,3.1-0.9c0,0,1.2-1.2,0.9-2.5c0,0-0.2-0.4-0.7-0.6
				c0,0-0.6-0.2-0.5-1.1c0,0,0.1-1.1,0.4-1.4c0,0,0.7-1,0.6-2.7c0,0,2.1,0.4,3.2-1.5c0,0,1.1-1.1,0.8-3.9c0,0-0.5-1.9-1.8-0.9
				c0,0-1.5,1.1-1.8-0.3c0,0-0.2-0.4,1.3-1.4c0,0,2.6-2,3.3-2.9c0,0,8.5-7.1,11.6-5.7c0,0,2.4,0.6,2.2,2.5c0,0-0.1,0.3-0.7,0.2
				c0,0-1.6-0.7-1.8-0.1c0,0-0.5,0.9,0.6,0.8c0,0,2.7,0.4,3,3.2C71.9,52.5,71.8,54.2,70.8,53.4z"/>
			<path class="st2" d="M41.4,34.7c0,0,0-2.4,1.3-2.8c0,0,1.6-0.2,2.6,1.7C45.3,33.6,44,35.9,41.4,34.7z"/>
		</g>
	</g>
	<g id="löwe_x5F_rechts_x5F_rot_1_">
		<path id="löwe_x5F_hintergrund_x5F_rot_2_" class="st4" d="M133,47.8c0,0,0.4-2.8-2.5-4.9c0,0-1.9,0.6-3.1-0.4
			c0,0-1.3-1.3-2.3-1.3c0,0-1.6-0.4-2.1-2.7c0,0-0.4-2,1.2-2.2c0,0,1.8-0.4,2.3-2.5c0,0,0.4-1.5-1.1-2.9c0,0-1.5-1.3-0.5-2.4
			c0,0,0.9-1.3,3.7,0c0,0,2.1-2.2,4.4-0.2c0,0,2.7-1.1,4.9,3.9c0,0,3.7-1,7-1.3c0,0,0.9-1.8,5.3-1.9c0,0,0.4-0.2,0.5-1.3
			c0,0,0.5-1.3,2.2-1.8c0,0,1.6-0.3,1.6-1.2c0,0,0.1-1.1,1.9-0.9c0,0,2.9,0.2,2,3.1c0,0,1.4-0.1,2.4,0.2c0,0,1.8,0.6,2-0.1
			c0,0,0.9-2.1,1.8-1.5c0,0,3.4,1.7,2.4,3.6c0,0-1.3,1.6-0.8,2.1c0,0,1.3,1.8,2,1.1c0,0,1.3-2,1.9-1.5c0,0,2.8,2,1.7,3.5
			c0,0-0.7,1.2-1.3,1.6c0,0-0.5,0.3-0.3,2c0,0,0.4,2,0.2,2.7c0,0-0.1,0.7,0.4,0.7c0,0,1.5,0.1,1.9-0.4c0,0,1-1.4,1.6-0.1
			c0,0,1.7,3.8-3,4.7c0,0,0.4,3.1,0.3,4.2c0,0-0.1,1.2,1.8,0.8c0,0,1.6-0.8,1.9,0.5c0,0,0.8,3.1-3.9,3.3c0,0-0.5-0.1-0.6,1
			c0,0,0,1.2-0.4,1.7c0,0-0.7,1.4,0.1,1.6c0,0,0.6,0.3,1.4,0.1c0,0,1.5-0.6,1.5,0.6c0,0,0.2,3-2.6,3.5c0,0-0.6,0.1-1.5-0.1
			c0,0-0.8-0.3-0.7,0.6c0,0-0.3,4.8,1.3,4.9c0,0,0.5,0.1,1.7,0c0,0-1.7,3.4-4.2,3.8c0,0-0.4,2.4,2,5.5c0,0,3.3,5.3,3.6,6
			c0,0,1.4,3.1,2.7,4.3c0,0,2.5,3.6,2.1,8.1c0,0,8.9,1.4,10.1-9.4c0,0,0.3-4.7-4.4-11.5c0,0-3.6-3.9-3.6-11.1c0,0-0.1-4,0.7-5.9
			c0,0-4.5-4.3-0.8-8.6c0,0,2.5-3,5.4-3c0,0,2.9-0.5,6.9,2.9c0,0-3.4,3.6-3,5.6c0,0-0.7,3.2-5,3.1c0,0-3.1,7.2,1.9,14.5
			c0,0,5.7,7.7,5.7,13.8c0,0-0.2,14.9-15.9,14.3c0,0-1.6,2.6-3.3,3.1c0,0-0.9,3.8,1.7,7.4c0,0,2,2.4,3.3,3.1c0,0,2.3,1.3-1.7,4.5
			c0,0-10.6,6.8-12.3,14.5c0,0-7.2-1.1-14.7,0c0,0-2.2-1.6-1.7-4c0,0-4.8-2.9,0.1-7.1c0,0,1.7-1.3,4.4-1.2c0,0,1.6,0.3,3.5-1.6
			c0,0,1.2-0.7,1.8-1.1c0,0,5.3-3.4,3.7-4.8c0,0-11.4-5.2-11.2-11.3c0,0-0.5-7,7.4-7.4c0,0,0.2-5.9-3.9-9c0,0-5.6-4.1-7.4-8.7
			c0,0-3.6-1.4-8.2-10.2c0,0-4.4-8.3-4.9-9.3c0,0-3.1-0.7-4.9-2.1c0,0-1.8,1.7-4.1,0.5c0,0-1-0.3-1-2.1c0,0-1.7,0.9-2.2-0.4
			c0,0-0.9-1.5,1.3-4.8c0,0-0.9-2.7,1.8-4.1c0,0,4.7-0.8,7.7,2.6C131.2,47.5,132.1,48.6,133,47.8z"/>
		<g>
			<path class="st2" d="M120.3,53.8c0.5,1.2,2.2,0.4,2.2,0.4c0,1.8,1,2.1,1,2.1c2.2,1.2,4.1-0.5,4.1-0.5c1.8,1.3,4.9,2.1,4.9,2.1
				c0.4,1,4.9,9.3,4.9,9.3c4.7,8.8,8.2,10.2,8.2,10.2c1.8,4.6,7.4,8.7,7.4,8.7c4.1,3.1,3.9,9,3.9,9c-7.9,0.4-7.4,7.4-7.4,7.4
				c-0.2,6.1,11.2,11.3,11.2,11.3c1.6,1.3-3.7,4.8-3.7,4.8c-0.6,0.3-1.8,1.1-1.8,1.1c-1.9,1.9-3.5,1.6-3.5,1.6
				c-2.7-0.2-4.4,1.2-4.4,1.2c-4.9,4.2-0.1,7.1-0.1,7.1c-0.5,2.4,1.7,4,1.7,4c7.4-1.1,14.7,0,14.7,0c1.8-7.6,12.3-14.5,12.3-14.5
				c4-3.2,1.7-4.5,1.7-4.5c-1.3-0.7-3.3-3.1-3.3-3.1c-2.7-3.6-1.7-7.4-1.7-7.4c1.7-0.6,3.3-3.1,3.3-3.1
				c15.7,0.7,15.9-14.3,15.9-14.3c0-6.1-5.7-13.8-5.7-13.8c-5-7.3-1.9-14.5-1.9-14.5c4.3,0.1,5-3.1,5-3.1c-0.4-1.9,3-5.6,3-5.6
				c-4-3.4-6.9-2.9-6.9-2.9c-2.9,0-5.4,3-5.4,3c-3.7,4.4,0.8,8.6,0.8,8.6c-0.8,1.9-0.7,5.9-0.7,5.9c0,7.2,3.6,11.1,3.6,11.1
				c4.7,6.8,4.4,11.5,4.4,11.5c-1.2,10.7-10.1,9.4-10.1,9.4c0.3-4.4-2.1-8.1-2.1-8.1c-1.3-1.2-2.7-4.3-2.7-4.3c-0.2-0.7-3.6-6-3.6-6
				c-2.4-3.2-2-5.5-2-5.5c2.6-0.4,4.2-3.8,4.2-3.8c-1.3,0.1-1.7,0-1.7,0c-1.7-0.2-1.3-4.9-1.3-4.9c-0.1-0.9,0.7-0.6,0.7-0.6
				c0.9,0.2,1.5,0.1,1.5,0.1c2.8-0.5,2.6-3.5,2.6-3.5c0-1.2-1.5-0.6-1.5-0.6c-0.8,0.2-1.4-0.1-1.4-0.1c-0.8-0.2-0.1-1.6-0.1-1.6
				c0.5-0.5,0.4-1.7,0.4-1.7c0-1.1,0.6-1,0.6-1c4.8-0.2,3.9-3.3,3.9-3.3c-0.3-1.3-1.9-0.5-1.9-0.5c-1.9,0.4-1.8-0.8-1.8-0.8
				c0.1-1-0.3-4.2-0.3-4.2c4.7-0.9,3-4.7,3-4.7c-0.6-1.3-1.6,0.1-1.6,0.1c-0.4,0.5-1.9,0.4-1.9,0.4c-0.6,0-0.4-0.7-0.4-0.7
				c0.1-0.7-0.2-2.7-0.2-2.7c-0.2-1.8,0.3-2,0.3-2c0.6-0.4,1.3-1.6,1.3-1.6c1.1-1.4-1.7-3.5-1.7-3.5c-0.6-0.6-1.9,1.5-1.9,1.5
				c-0.7,0.7-2-1.1-2-1.1c-0.5-0.5,0.8-2.1,0.8-2.1c1-1.9-2.4-3.6-2.4-3.6c-0.9-0.6-1.8,1.5-1.8,1.5c-0.2,0.7-2,0.1-2,0.1
				c-0.9-0.3-2.4-0.2-2.4-0.2c1-2.9-2-3.1-2-3.1c-1.8-0.2-1.9,0.9-1.9,0.9c0,0.9-1.6,1.2-1.6,1.2c-1.8,0.4-2.2,1.8-2.2,1.8
				c-0.1,1.1-0.5,1.3-0.5,1.3c-4.4,0.1-5.3,1.9-5.3,1.9c-3.3,0.3-7,1.3-7,1.3c-2.2-5-4.9-3.9-4.9-3.9c-2.2-2.1-4.4,0.2-4.4,0.2
				c-2.7-1.3-3.7,0-3.7,0c-1.1,1.1,0.5,2.4,0.5,2.4c1.5,1.3,1.1,2.9,1.1,2.9c-0.5,2.1-2.3,2.5-2.3,2.5c-1.6,0.2-1.2,2.2-1.2,2.2
				c0.6,2.2,2.1,2.7,2.1,2.7c1,0.1,2.3,1.3,2.3,1.3c1.2,1.1,3.1,0.4,3.1,0.4c2.9,2.1,2.5,4.9,2.5,4.9c-1,0.8-1.9-0.3-1.9-0.3
				c-3-3.4-7.7-2.6-7.7-2.6c-2.7,1.4-1.8,4.1-1.8,4.1C119.5,52.3,120.3,53.8,120.3,53.8z M135.7,32.8c-0.9,0.4-0.7,2.1-0.7,2.1
				c-0.1,1.1,0.6,1.6,0.6,1.6c0.7,0.4,0.7,2.2,0.7,2.2c-0.3,0.6,0.2,2.2,0.2,2.2c0.9,1.8,4.4,1.2,4.4,1.2c1.5-0.2,3,0,3,0
				c1.6,0.3,1.1,1.8,1.1,1.8c-0.7,1.3-5.3,0-5.3,0c-1.6-0.2-1.1,1.3-1.1,1.5c1,2.9,4.1,3.2,4.1,3.2c1.3,0.2,0.5,1.2,0.5,1.2
				c-0.6,0.8-1,4.7-1,4.7c-0.3,1.8-2.3-0.6-2.3-0.6c0.1-0.8-3.3-3.1-3.3-3.1c-1.4-0.9-1.9-2.6-1.9-2.6c-0.1-2.1-2.2-4.7-2.2-4.7
				c-0.9-0.8-1-1.4-1-1.4c0-0.9-0.9-0.8-0.9-0.8c-0.2,0.8-1.3,0.6-1.3,0.6c-1.2,0.2-1.7-0.4-1.7-0.4c-0.6-0.6-1.8-1.1-1.8-1.1
				c-1.1-0.5-1.6-1.7-1.6-1.7c-0.6-1.1,1.4-1.5,1.4-1.5c1.7-1.2,2.1-3,2.1-3c0.6-2.4-1.7-3.9-1.7-3.9c-0.9-1,1-1.1,1-1.1
				c2.1,0,2.2,1.7,2.2,1.7c0.2,1.8,1,1.4,1,1.4c1.1-0.2,0.1-2.4,0.1-2.4c-0.5-1.1,0.4-1.2,0.4-1.2c1.7-0.2,2,1.6,2,1.6
				c0,1.2,0.8,1,0.8,1c0.8-0.1,0.6-1.7,0.6-1.7c1.6,0.2,2.5,2.4,2.5,2.4C137.1,32.8,135.7,32.8,135.7,32.8z M153.3,29.7
				c0,0,1.1-0.3,2.4,0.6c0,0,1.5,0.6,2.6,0.7c0,0,2.7-0.2,2.7,1.8c0,0-0.2,1.5-1.4,2.1c0,0-0.7,0.3-0.2,1.8c0,0,1.3,2.7,0.7,4.5
				c0,0-0.6,1.6-2.8,2.7c0,0-3.6,1.4-4.8,2.8c0,0-1.1,1.1-2.2,1.1l-1.8,0c0,0-6.2,0.4-8.3-1.7c0,0-0.9-1.7,0.6-1c0,0,3.1,0.7,4.8,0
				c0,0,0.7-0.2,0.6-1.7c0,0,0-2.2-0.9-2.3c0,0-2.1-0.3-4.6,0c0,0-3,0.5-3.2-0.8c0,0,0.4-3.4-0.8-4.1c0,0-0.4-0.4-0.3-1.3
				c0,0,0-1.1,0.7-1.2c0,0,3.6-0.7,3.9-1.2c0,0,1.2-0.3,2.3-0.3c0,0,2,0,2.5-0.9c0,0,0.7-1.5,4.3-1.3
				C150.1,30,152.6,29.9,153.3,29.7z M167.1,71.5c0,0-1.3,0-2-1.7c0,0-0.6-0.9-0.5-1.8c0,0,0-1-0.5-1.6c0,0-1-1.7-1.9-1.6
				c-0.1,0-1.9-0.3-1.8,2.1c0,0,0.3,2.5,0.5,2.7c0,0,0.3,1.2-0.2,2.5c0,0-0.7,2-1.8,2.1c0,0-1.9,0.5-1.4-1.1c0,0,1.1-4.9-0.7-6.8
				c0,0-1.3-1.6-2.6-0.1c0,0-0.9,1.3-0.6,3.2c0,0,0.7,3.7-1.9,5.2c0,0-2.1,1.1-3.3-0.8c0,0-0.3-0.4,0.4-0.7c0,0,1.9-1.1,1.6-4.5
				c0,0-0.3-1.6-0.2-2.3c0,0,0.4-1.3-1.9-1.5c0,0-1.4-0.4-2.3,1.7c0,0-0.5,1.9-0.4,2.2c0,0,0,2.1-1.5,2.1c0,0-2.4,0.1-2.3-1.6
				c0,0-0.1-0.7,0.6-0.9c0,0,1.3-0.5,0.7-2.6c0,0-0.2-0.4-0.5-0.4c0,0-0.3-0.3-0.3-0.9c0,0-0.2-2,0.1-2.4c0,0,0.6-1.6-0.5-1.3
				c0,0-1.7,1-3.1-0.1c0,0-1-0.9-0.8-2.1c0,0,0-1.1,1.1-0.8c0,0,1.8,0.5,3-1.1c0,0,1-1.6,1.4-3.4c0,0,0.4-4,2.1-4.2l5,0
				c0,0,1.8-0.1,2.7-1.2c0,0,2-1.7,3.4-2c0,0,4.5-1.6,4.8-3.9c0,0,0.2-2.7-0.5-3.8c0,0-1.3-1.6-0.2-2.9c0,0,2.3-1.9,1.2-3.6
				c0,0-1-1.3-2.3-1.5c0,0-2.7,0.1-3.1-0.5c0,0-1.1-1-2.4-1h-1h-1.4c0,0-1,0-0.2-0.8c0,0,1.1-0.8,2.1-0.8c0,0,0.9-0.3,1.5-1.2
				c0,0,0.5-1.3,1.3-1c0,0,1.7,0.3,1.3,1.5c0,0-0.7,0.8-0.6,1.5c0,0,2.9-0.2,4.3,0.5c0,0,1.3,0.3,2.2-0.7c0,0,0.7-1.3,1.2-0.7
				c0,0,2,1,1.3,2c0,0-1.5,2-0.8,2.7l1.4,1.3c0,0,0.9,0.9,1.6,0.3l1-0.9c0,0,0.5-0.7,1,0.1c0,0,1.5,1.1,0.7,1.9c0,0-1.7,1.1-1.5,2.9
				c0,0,0.4,2.8,0.3,3.7c0,0-0.1,1.3,1,1.4c0,0,1,0.1,1.9-0.3c0,0,1.3-1,1.3,0.2c0,0,0.8,2.3-3.3,3c0,0,0.7,4.1,0.5,4.9
				c0,0-0.1,0.7,0.9,1.1c0,0,1,0.5,1.7,0.2c0,0,1.5-0.8,1,0.6c0,0-0.6,1.7-3.7,1.8c0,0-0.6,0-0.7,1.2c0,0,0,1-0.5,1.8
				c0,0-0.9,1.7,0,2.2c0,0,0.6,0.7,1.7,0.7c0,0,1.5-0.6,1.3,0.2c0,0-0.2,1.8-1.8,2.1c0,0-1,0.2-1.5,0c0,0-1-0.4-1.4,0.7
				c0,0-0.8,2.5,0.1,5.2c0,0,0.6,1.3,1.7,1.4C170,69.4,169.4,71.4,167.1,71.5z M176.8,100l1.1-2.7c4.5-0.1,6-1.4,6-1.4
				c5-2.8,4.9-8.8,4.9-8.8c0.2-4.9-2.9-9.8-2.9-9.8c-1.3-1.6-3.4-5.5-3.4-5.5c-2.9-5.6-0.8-14.1-0.8-14.1c-2.6-2.3-2.2-4-2.2-4
				c1-6.1,6.1-5.8,6.1-5.8c3.3,0,5.5,2,5.5,2c-2.7,2.7-2.6,5.2-2.6,5.2c-0.7,2.7-4.5,2.4-4.5,2.4c-3.9,9.7,2.3,17.1,2.3,17.1
				c2.6,3,4.5,8.7,4.5,8.7c1.1,4.6-1.1,9.5-1.1,9.5C184.8,101.5,176.8,100,176.8,100z M160.5,130.8c4.1-7.7,10.7-11.8,10.7-11.8
				c1.9-1.4,2.5-2.7,2.5-2.7c0.5-2.1-1.4-3-1.4-3c-2.2-1.2-2.5-4.3-2.5-4.3c0-2.8,2-3.8,2-3.8c-0.4,2.8,1.1,5.5,1.1,5.5
				c0.6,1.7,3.9,4.2,3.9,4.2c1.3,1.4-0.9,2.8-0.9,2.8c-0.5,0.1-6.8,5.4-6.8,5.4c-4,3.2-6,8.5-6,8.5c-0.3,1-1.5,0.5-1.5,0.5
				C159.9,131.7,160.5,130.8,160.5,130.8z M147.6,77.3c0,0,5.8-0.8,6.8-5.2c0,0,0.4-3.2,0.2-3.9c0,0,0-2.2,1.5-0.6
				c0,0,1.7,1.9,0.2,5.8c0,0-1,1.1,1.2,1.7c0,0,2.1,1,4.1-1.7c0,0,1.4-2.1,0.4-5.5c0,0-1-3.1,0.7-2.1c0,0,1.1,0.8,1.2,2.3
				c0,0-0.1,2.9,2.1,4c0,0,0.8,0.4,0.9,1.2c0,0,0.8,3.1,2.3,5c0,0,2.8,4.4,3.1,5.6c0,0,2,3.7,3.2,5c0,0,2.8,3.5,1,9.5
				c0,0-1.3,2.7-5.4,5.6c0,0-1.8,0.8-2.1,4.5c0,0-0.3,2.9,2,4.9c0,0,2.5,1,1.3,3c0,0-2.4,2.2-3.7,2.8c0,0-5.2,3-8.7,10.2
				c0,0-1,2.3-3.5,2.4c0,0-2.9,0.4-2.8-1c0,0,0.3-1.8,1.5-2.4c0,0,1.3-0.7,0.4-1.4c0,0-0.6-0.6-1.4,0.7c0,0-0.9,0.9-1.8,2.9
				c0,0-0.4,1.2-1.9,1.2c0,0-1.5,0.2-2-1c0,0-0.7-1.2,0.4-2.2c0,0,2.7-2.4,2.1-3.1c0,0-0.8-0.7-1.6,0.2l-1.6,1.9
				c0,0-0.5,0.8-1.2-0.2c0,0-1.6-1.9,1.4-4.2c0,0,1.3-1.1,4.1-1.4c0,0,2.9-0.2,4.6-1.8c0,0,4.8-3.6,5.3-5.1c0,0,1.1-1.4-1.3-2.9
				c0,0-7.1-3.5-9-6.8c0,0-2.5-3,0.8-7.4c0,0,2.1-3.1,8.3-1.8c0,0,1,0.4,1.3-0.7c0,0,0.4-0.5-1.2-1c0,0-1.4-0.4-2.5-0.1
				c0,0-0.2-6.7-5.4-10.4c0,0-2.2-1.8-2.7-2.3c0,0-1.9-1.8-3-3.8C147.1,78,146.7,77.5,147.6,77.3z M120.9,52.5c0.4-2.9,3-3.2,3-3.2
				c1.1,0.1,0.6-0.8,0.6-0.8c-0.2-0.5-1.8,0.1-1.8,0.1c-0.6,0.1-0.7-0.2-0.7-0.2c-0.1-1.8,2.2-2.5,2.2-2.5
				c3.1-1.4,11.6,5.7,11.6,5.7c0.8,0.9,3.3,2.9,3.3,2.9c1.5,1.1,1.3,1.4,1.3,1.4c-0.3,1.4-1.8,0.3-1.8,0.3c-1.3-1-1.8,0.9-1.8,0.9
				c-0.3,2.8,0.8,3.9,0.8,3.9c1.1,1.8,3.2,1.5,3.2,1.5c-0.1,1.7,0.6,2.7,0.6,2.7c0.3,0.2,0.4,1.4,0.4,1.4c0.1,0.9-0.5,1.1-0.5,1.1
				c-0.5,0.2-0.7,0.6-0.7,0.6c-0.3,1.2,0.9,2.5,0.9,2.5c1,1.3,3.1,0.9,3.1,0.9c1.7,0,2.1-2.8,2.1-2.8c-0.1-0.6,0.2-1.9,0.2-1.9
				c0.3-1.2,1.3-1.1,1.3-1.1c1,0.1,0.9,1,0.9,1c0.6,4.4-1.6,5.8-1.6,5.8c-1.1,1,0,1.8,0,1.9c0.6,0.1,0.6,0.8,0.6,0.8
				c0.6,1.2-2.1,0.6-2.1,0.6c-5.5-2.3-12.3-18-12.3-18c-0.5-1.5-2.3-1.8-2.3-1.8c-1.1-0.3-3.4-1.4-3.4-1.4c-0.8-0.4-2.3,0.7-2.3,0.7
				c-1.5,0.7-2.3-0.6-2.3-0.6c-0.6-0.9,0.6-1.9,0.6-1.9c0.8-0.4,1.5-1.5,1.5-1.5c0.4-1.1-1-0.6-1-0.6c-0.4,0.1-2.8,2.6-2.8,2.6
				C120.9,54.2,120.9,52.5,120.9,52.5z"/>
			<path class="st2" d="M151.4,34.7c0,0,0-2.4-1.3-2.8c0,0-1.6-0.2-2.6,1.7C147.4,33.6,148.7,35.9,151.4,34.7z"/>
		</g>
	</g>
</g>
</svg>
