<?xml version="1.0" encoding="utf-8"?>
<!-- Generator: Adobe Illustrator 25.2.0, SVG Export Plug-In . SVG Version: 6.00 Build 0)  -->
<svg version="1.1" id="Layer_1" xmlns="http://www.w3.org/2000/svg" xmlns:xlink="http://www.w3.org/1999/xlink" x="0px" y="0px"
	 viewBox="0 0 192.8 192.8" style="enable-background:new 0 0 192.8 192.8;" xml:space="preserve">
<style type="text/css">
	.st0{fill-rule:evenodd;clip-rule:evenodd;fill:#FFFFFF;}
	.st1{fill-rule:evenodd;clip-rule:evenodd;fill:#CE1329;}
	.st2{fill-rule:evenodd;clip-rule:evenodd;fill:#D10A10;}
	.st3{fill-rule:evenodd;clip-rule:evenodd;fill:#009982;}
	.st4{fill-rule:evenodd;clip-rule:evenodd;fill:#FFF047;}
</style>
<g>
	<path class="st0" d="M29,153.4c-0.4-0.3-0.8-0.7-1-1.1c0-0.1-0.1-0.3-0.3-0.6l0,0c-0.2-0.5-0.4-1-0.6-1.3l0,0
		c-0.3-0.7-0.2-1.5,0.1-2.2c0.7-1.3,2.3-1.7,3.5-1.1c0.5,0.2,0.9,0.5,1.4,0.7c-0.3-0.5-0.6-1.1-0.6-1.8c-0.1-0.5,0-1,0.1-1.5
		c0.4-1.5,1.4-2.4,2.8-2.8c0.1,0,0.1,0,0.2-0.1c-0.1-0.1-0.2-0.2-0.3-0.3c-0.3-0.3-0.7-0.5-1.2-0.7l0,0c-0.3-0.1-0.6-0.3-0.9-0.6
		c-0.7-0.7-0.9-1.6-0.6-2.5c-0.5-0.4-1-0.9-1.4-1.4c-0.1-0.1-0.1-0.1-0.2-0.2c-1-1.3-1.6-2.7-2-4.2c-0.4-1.6-0.5-3.3-0.4-5
		c0-0.4,0-0.7,0-1.1c0-0.6,0-1.1,0-1.8h0c0-0.4-0.1-0.9-0.2-1.4c-0.1-0.6-0.2-1.1-0.3-1.4l0-0.1c0,0,0-0.1-0.1-0.2
		c-0.2-0.3-0.2-0.7-0.2-1.1h0c0-0.7,0.3-1.3,0.7-1.7c0.1-0.2,0.3-0.3,0.4-0.4c0.6-0.5,1.4-0.7,2.1-0.5l0,0l0,0c0.1,0,0.1,0,0.2,0
		c0.3,0.1,0.7,0.2,1,0.3c0-0.2,0.1-0.3,0.1-0.5c0.4-1.4,0.9-2.7,1.5-4l0,0c0,0-0.1-0.1-0.1-0.2l0,0c-0.5-0.6-0.9-1.2-1.3-2
		c-0.3-0.7-0.5-1.4-0.7-2.2c-0.2-0.8-0.3-1.5-0.3-2.2c0-0.7,0.1-1.3,0.2-2.1c0.2-0.8,0.3-1.4,0.5-1.9c0.1-0.4,0.3-0.8,0.3-1.3
		c0-0.4,0-0.7,0-0.9c0-0.2,0-0.4-0.1-0.6l0,0l0,0c0,0,0,0.1,0-0.1c-0.1-0.2-0.1-0.4-0.1-0.5c-0.1-0.6,0-1,0.3-1.6
		c0.1-0.1,0.2-0.3,0.2-0.4c0.2-0.3,0.4-0.4,0.6-0.6c0.3-0.2,0.6-0.3,0.9-0.4v0c1.2-0.3,2,0.2,2.4,0.5c0.1,0.1,0.2,0.2,0.3,0.3
		c0.4,0.3,0.7,0.6,1,1c0.4,0.4,0.7,0.8,0.9,1.2c0.2,0.2,0.3,0.5,0.4,0.7c0.1,0,0.1,0,0.2,0c0-0.2,0-0.4,0-0.5c0-0.3,0-0.5,0-0.7
		c0-0.4,0-0.7-0.1-1.1c-0.1-0.3-0.1-0.5-0.3-0.9l0,0c-0.4-0.6-0.5-1.2-0.5-1.7c0-0.8,0.4-1.4,0.6-1.7l0,0c0.5-0.6,1.3-1,2.1-1
		c0.8,0,1.4,0.4,1.7,0.5c0.2,0.1,0.3,0.2,0.5,0.3c0-0.2,0-0.4,0-0.6c-0.5-5.4-0.7-11.1-0.7-16.8c0-5.1,0.2-10.1,0.5-15h-6.8
		c-1.4,0-2.6-1.2-2.6-2.6V45h0c0-1.4,1.2-2.6,2.6-2.6h1c0-0.2,0-0.3-0.1-0.6c0-0.4,0-0.6,0-0.9h0h0c0-0.3,0.1-0.4,0.1-0.6l0,0
		c0,0,0,0,0-0.1c0-0.2,0.1-0.3,0.1-0.4l0,0c0-0.1,0.1-0.2,0.1-0.3c0-0.1,0.1-0.1,0.1-0.2c0.1-0.2,0.2-0.4,0.4-0.6
		c0.1-0.2,0.2-0.3,0.4-0.5l0,0c0.1-0.1,0.2-0.2,0.3-0.3c0.1-0.1,0.2-0.2,0.4-0.3c0.1-0.1,0.3-0.2,0.4-0.3c0.2-0.1,0.3-0.2,0.5-0.2
		l0,0c0.2-0.1,0.4-0.2,0.6-0.2c0.1,0,0.3-0.1,0.5-0.1c0,0,0.1,0,0.1,0c0.3,0,0.5,0,0.8,0c0.2,0,0.3,0,0.5,0.1c0,0,0-0.1,0-0.1
		c0-0.1,0-0.2-0.1-0.4h0c0-0.1,0-0.2-0.1-0.2c0-0.1,0-0.1-0.1-0.3l0-0.1c-0.1-0.1-0.1-0.2-0.1-0.3l0,0l0,0c-0.1-0.1-0.1-0.2-0.1-0.3
		c0-0.1-0.1-0.1-0.1-0.2h0c-0.1-0.1-0.1-0.1-0.1-0.1c0,0-0.1-0.1-0.2-0.1l0,0c-0.9-0.6-1.4-1.8-1-2.9c0.5-1.5,1-1.7,2-1.8
		c0,0,0.1,0,0.1,0c0,0,0,0,0,0v0l0,0l0,0c0.2,0,0.3,0,0.5,0c0.5,0,1,0,1.5,0c-0.1-0.2-0.1-0.4-0.1-0.5c0-0.1,0-0.2,0-0.3
		c0-0.2,0-0.4,0-0.6c0-0.2,0-0.4,0.1-0.7c0,0,0-0.1,0-0.1c0.1-0.3,0.1-0.5,0.2-0.8c0.1-0.3,0.2-0.5,0.4-0.8l0,0
		c0.2-0.3,0.3-0.5,0.5-0.6l0,0l0,0c0.2-0.2,0.4-0.4,0.7-0.7l0,0c0.2-0.2,0.4-0.3,0.6-0.4c0.2-0.1,0.3-0.1,0.5-0.2l0,0
		c0.2-0.1,0.4-0.1,0.5-0.2l0,0l0,0c0.1,0,0.2-0.1,0.4-0.1c0-0.1,0-0.1,0-0.2l0-0.1c0.1-0.4,0.2-0.7,0.4-1.2l0,0l0-0.1
		c0.2-0.4,0.3-0.7,0.7-1.1l0,0c0.1-0.1,0.3-0.3,0.4-0.4c0.1-0.1,0.2-0.2,0.3-0.2c0.2-0.2,0.5-0.3,0.7-0.4c0.1,0,0.1,0,0.2-0.1v0
		c0.8-0.2,1.7,0,2.4,0.6c0.3,0.2,0.5,0.5,0.6,0.8c0.1,0.2,0.2,0.4,0.3,0.5c0.2,0.3,0.3,0.6,0.4,0.9c0,0.1,0.1,0.3,0.1,0.5
		c0,0.1,0,0.1,0.1,0.2c0,0.1,0.1,0.3,0.1,0.4l0.1,0v0c0.2,0,0.4,0.1,0.5,0.1c0.1,0,0.2,0.1,0.3,0.1c0.2,0.1,0.5,0.2,0.7,0.4v0
		c0.1,0.1,0.2,0.2,0.4,0.3c0.1,0.1,0.2,0.2,0.4,0.3c0.2,0.2,0.4,0.4,0.6,0.7c0.2,0.3,0.4,0.6,0.5,0.9l0,0l0,0
		c0.1,0.2,0.1,0.4,0.2,0.5c0,0.1,0,0.2,0.1,0.3c0,0.1,0,0.2,0,0.2c0,0.2,0,0.5,0,0.7l0,0c0,0,0.1-0.1,0.2-0.1l0,0
		c0.1-0.1,0.2-0.1,0.3-0.2c0.3-0.2,0,0,0.3-0.2l0,0c0.4-0.3,0.8-0.6,1.1-0.9c0.4-0.4,0.9-0.8,1.5-1.3c0.4-0.3,0.3-0.2,0.3-0.2
		c0.5-0.4,0.9-0.7,1.6-1.1v0c0.2-0.1,0.4-0.2,0.5-0.3c0-0.1,0-0.2,0-0.2l0,0c0-0.2,0-0.4,0.1-0.6c0-0.1,0.1-0.3,0.1-0.4
		c0,0,0-0.1,0-0.1c0.1-0.2,0.2-0.4,0.3-0.6l0,0c0.1-0.2,0.3-0.5,0.5-0.7l0,0c0,0,0.1-0.1,0.1-0.1c0.5-0.6,1.2-1,2-1h0.1v0
		c0.9,0,1.9,0.5,2.3,1.4l0,0c0.2,0,0.3,0,0.5,0c0.2,0,0.4,0,0.6,0c0.3,0,0.6,0,0.8,0c0.4,0,0.8,0,1.3,0l0,0l0,0l0.4,0
		c0.1-0.2,0.2-0.4,0.2-0.6c0.1-0.2,0.2-0.4,0.3-0.6c0-0.1,0.1-0.1,0.1-0.2c0.1-0.2,0.2-0.3,0.4-0.5c0.2-0.2,0.3-0.4,0.5-0.6
		c0.3-0.3,0.6-0.5,0.9-0.6c0.3-0.2,0.6-0.3,0.8-0.4l0,0l0,0c0.1,0,0.2-0.1,0.3-0.1c0.1,0,0.1,0,0.2-0.1c0.1,0,0.3-0.1,0.5-0.1
		c0,0,0.1,0,0.1,0c0.4,0,0.8-0.1,1.2,0c0.5,0.1,0.9,0.2,1.4,0.4l0,0l0,0c0.3,0.1,0.5,0.2,0.7,0.4c0.3,0.2,0.5,0.4,0.7,0.6l0,0
		c0.2,0.2,0.4,0.4,0.5,0.6c0.1,0.2,0.2,0.4,0.3,0.6c0,0.1,0.1,0.1,0.1,0.2l0,0.1c0.1,0,0.2,0,0.3,0c0.1-1.4,0.8-2.3,1.8-2.9
		c0.1-0.1,0.3-0.2,0.4-0.2c0-0.1-0.1-0.2-0.1-0.3C85.1,17.7,85,17.3,85,17c-0.1-0.3-0.1-0.6-0.2-1.1c-0.1-0.5-0.1-0.9-0.1-1.4l0,0
		l0-0.2c0-0.8-0.1-1.3,0-2.2h0c0-0.4,0-0.7,0.1-1c0-0.3,0.1-0.5,0.1-0.8c0-0.1,0-0.1,0-0.2l0,0c0.3-1.5,1-2.1,2.6-2.1v0
		c0.7,0,1.4,0.2,1.9,0.8c0,0,0,0,0.4,0.4l0,0c0,0,0.1,0.1,0.1,0.1c0.1,0,0.1,0.1,0.2,0.1c0.1,0,0.1,0.1,0.2,0.1c0,0,0.1,0,0.1,0.1
		c0-0.1,0-0.1,0-0.3c0-0.2,0-0.4,0-0.5h0l0-0.1c0-0.2,0.1-0.4,0.1-0.6c0-0.1,0.1-0.2,0.1-0.3c0,0,0-0.1,0.1-0.1
		c0.1-0.2,0.1-0.3,0.3-0.6c0.1-0.2,0.3-0.4,0.4-0.7c0.1-0.2,0.3-0.3,0.4-0.4c0.1-0.1,0.2-0.2,0.4-0.3l0,0c0.1-0.1,0.2-0.2,0.3-0.2
		c0.1-0.1,0.2-0.1,0.3-0.2l0,0l0,0C92.9,5.1,93,5,93.1,5c0.1-0.1,0.2-0.1,0.4-0.2l0,0c0.2-0.1,0.3-0.1,0.5-0.1
		c0-0.1,0.1-0.3,0.1-0.4c0.1-0.3,0.2-0.5,0.3-0.7c0,0,0-0.1,0.1-0.1l0.1-0.1l0,0c0.2-0.4,0.3-0.6,0.6-1l0,0l0,0
		c0.9-1.1,2.5-1.4,3.7-0.5c0.6,0.5,0.8,0.9,1.1,1.4l0,0l0,0c0.4,0.7,0.5,1.1,0.6,1.6c0.2,0.1,0.4,0.1,0.5,0.2c0.1,0,0.1,0.1,0.2,0.1
		c0.5,0.2,0.8,0.5,1.2,0.9c0.3,0.3,0.6,0.7,0.8,1.1c0,0.1,0.1,0.1,0.1,0.2c0.3,0.7,0.5,1.3,0.4,2.1l0,0.1c0.2-0.1,0.4-0.2,0.5-0.3
		c0.1-0.1,0.1-0.1,0.2-0.2c0.5-0.6,1.2-1,2.1-1c0.1,0,0.3,0,0.6,0.1c0.7,0.2,1.3,0.5,1.8,1.3c0.2,0.3,0.3,0.6,0.3,0.9
		c0.2,1.3,0.2,2.6,0.1,3.9c-0.1,1.3-0.3,2.7-0.6,4c0,0,0,0.1,0,0.1l0,0.1c0.3,0.1,0.5,0.3,0.8,0.5c0.8,0.6,1.3,1.5,1.4,2.6
		c0.1,0,0.2,0,0.3,0l0-0.1c0.1-0.3,0.2-0.5,0.4-0.7c0.1-0.2,0.2-0.3,0.3-0.5c0-0.1,0.1-0.1,0.2-0.2c0.2-0.3,0.5-0.5,0.7-0.6
		c0.2-0.2,0.5-0.3,0.7-0.4c0.5-0.2,0.9-0.3,1.4-0.4c0.4,0,0.8,0,1.2,0v0c0.2,0,0.3,0,0.4,0.1c0.1,0,0.1,0,0.2,0
		c0.1,0,0.3,0.1,0.6,0.2v0l0,0c0.3,0.1,0.6,0.2,0.8,0.4c0.2,0.1,0.5,0.3,0.7,0.5c0.1,0.1,0.1,0.1,0.2,0.2c0.2,0.2,0.4,0.4,0.5,0.6
		c0.1,0.1,0.2,0.2,0.3,0.4c0,0,0.1,0.1,0.1,0.1c0.2,0.3,0.3,0.5,0.4,0.7c0.1,0.2,0.2,0.4,0.3,0.6l0.3,0l0,0c0.5,0,0.9,0,1.3,0
		c0.2,0,0.5,0,0.8,0c0.2,0,0.4,0,0.6,0c0.2,0,0.3,0,0.5,0c0,0,0.1,0,0.1,0c0.4-0.8,1.3-1.4,2.3-1.4h0.1v0c0.7,0,1.4,0.3,1.9,0.9
		c0.1,0.1,0.1,0.1,0.2,0.2l0,0c0.2,0.2,0.3,0.4,0.5,0.6c0.1,0.2,0.2,0.4,0.3,0.6l0,0c0.1,0.2,0.1,0.3,0.1,0.4c0,0.2,0.1,0.4,0.1,0.6
		h0l0,0c0,0.1,0,0.1,0,0.2c0.1,0.1,0.3,0.1,0.5,0.3v0c0.7,0.4,1.1,0.7,1.6,1.1l0.3,0.2c0.7,0.5,1.1,0.9,1.5,1.3
		c0.3,0.3,0.6,0.6,1,0.9c0,0,0,0,0.1,0c0.2,0.2,0,0,0.3,0.2c0.1,0.1,0.2,0.1,0.3,0.2l0.2,0.1l0,0c0-0.2,0-0.4,0-0.7
		c0-0.2,0.1-0.4,0.1-0.6c0.1-0.2,0.1-0.4,0.2-0.5l0,0l0,0c0.1-0.3,0.3-0.6,0.5-0.9c0.2-0.3,0.4-0.5,0.6-0.7l0,0
		c0.1-0.1,0.2-0.2,0.3-0.3c0.2-0.1,0.3-0.2,0.4-0.3l0,0l0,0c0.3-0.2,0.5-0.3,0.7-0.4c0.2-0.1,0.4-0.2,0.7-0.2c0.1,0,0.1,0,0.2,0
		c0,0,0,0,0.1,0c0-0.1,0-0.3,0.1-0.4l0,0l0,0l0,0c0.1-0.5,0.2-0.8,0.5-1.4c0,0,0-0.1,0.1-0.1c0.1-0.2,0.2-0.3,0.3-0.5
		c0.1-0.2,0.3-0.4,0.4-0.5c0.6-0.7,1.6-1.1,2.6-0.9c0.5,0.1,0.9,0.4,1.3,0.7c0.1,0.1,0.2,0.2,0.4,0.3c0,0,0,0,0.1,0.1
		c0.4,0.4,0.5,0.7,0.7,1.1c0,0.1,0,0,0,0.1l0,0l0,0c0.2,0.5,0.3,0.8,0.4,1.2h0l0,0l0,0.1l0,0l0,0c0,0.1,0,0.1,0,0.2
		c0.1,0,0.2,0,0.4,0.1l0,0c0.2,0.1,0.4,0.1,0.5,0.2l0,0c0.2,0.1,0.3,0.1,0.5,0.2c0.2,0.1,0.5,0.2,0.7,0.4c0.3,0.2,0.5,0.4,0.7,0.6
		l0.1,0.1l0,0c0.1,0.1,0.2,0.2,0.4,0.4c0,0.1,0.1,0.1,0.1,0.2c0.2,0.3,0.3,0.5,0.4,0.8c0.1,0.3,0.2,0.5,0.2,0.8l0,0
		c0.1,0.3,0.1,0.5,0.1,0.8c0,0.2,0,0.4,0,0.5c0,0.1,0,0.2,0,0.3c0,0.2,0,0.3-0.1,0.6c0.4,0,0.9,0,1.3,0c0.3,0,0.5,0,0.8,0
		c0.9,0.2,1.4,0.3,1.8,1.3c0.5,0,0.5,0,0,0c0.1,0.2,0.1,0.3,0.2,0.5l0,0c0.3,1.1-0.1,2.3-1,2.9c-0.1,0-0.1,0.1-0.1,0.1
		c0,0,0,0-0.1,0.1c-0.1,0-0.1,0.1-0.1,0.1c-0.1,0.1-0.1,0.1-0.1,0.2c0,0-0.1,0.1-0.1,0.2c0,0,0,0.1-0.1,0.1
		c-0.1,0.1-0.1,0.2-0.1,0.3c0,0,0,0.1,0,0.1c0,0,0,0.1-0.1,0.3c0,0.1,0,0.1-0.1,0.2l0,0l0,0c0,0.2-0.1,0.3-0.1,0.4c0,0,0,0.1,0,0.1
		c0.2,0,0.3-0.1,0.5-0.1c0.3,0,0.5,0,0.8,0v0c0.1,0,0.2,0,0.3,0c0.1,0,0.2,0,0.3,0c0.1,0,0.3,0.1,0.4,0.1c0.1,0,0.1,0,0.2,0.1
		c0.2,0.1,0.3,0.1,0.5,0.2c0.2,0.1,0.3,0.2,0.4,0.2l0,0c0.2,0.1,0.3,0.2,0.4,0.3c0.1,0.1,0.2,0.2,0.3,0.3l0,0
		c0.1,0.1,0.1,0.2,0.2,0.2c0.1,0.1,0.1,0.1,0.2,0.2c0.1,0.1,0.2,0.3,0.3,0.4c0,0.1,0.1,0.1,0.1,0.2c0.2,0.3,0.2,0.5,0.3,0.8
		c0,0.1,0,0.1,0.1,0.2c0,0.2,0.1,0.3,0.1,0.6c0,0.2,0.1,0.5,0.1,0.7c0,0,0,0.1,0,0.1c0,0.2,0,0.4-0.1,0.6h0.9c1.4,0,2.6,1.2,2.6,2.6
		v13.1c0,1.4-1.2,2.6-2.6,2.6h-7.2c0.3,5.1,0.4,10.3,0.4,15.5c0,5.7-0.3,11.3-0.8,16.6l0,0.5c0.1-0.1,0.3-0.2,0.4-0.2
		c0.2-0.1,0.8-0.5,1.7-0.5c0.8,0,1.6,0.4,2.1,1l0,0c0.2,0.3,0.6,0.9,0.6,1.7c0,0.5-0.1,1-0.5,1.7l0,0c-0.2,0.4-0.2,0.5-0.3,0.9
		c-0.1,0.3-0.1,0.6-0.1,1.1c0,0.2,0,0.5,0,0.7c0,0.1,0,0.3,0,0.5c0.1,0,0.1,0,0.2,0c0.1-0.2,0.3-0.5,0.4-0.7
		c0.3-0.4,0.6-0.8,0.9-1.2c0.3-0.4,0.6-0.7,1-1c0.1-0.1,0.2-0.2,0.3-0.3c0.4-0.3,1.2-0.8,2.4-0.5l0,0c0.3,0.1,0.6,0.2,0.9,0.4
		c0.3,0.2,0.4,0.3,0.6,0.6c0.1,0.1,0.2,0.2,0.2,0.4c0.3,0.5,0.4,1,0.3,1.6c0,0.2-0.1,0.4-0.1,0.5c0,0.1,0,0,0,0.1l0,0l0,0
		c0,0.2-0.1,0.4-0.1,0.6c0,0.2,0,0.5,0,0.9c0,0.4,0.2,0.8,0.3,1.3c0.2,0.5,0.4,1.1,0.5,1.9c0.1,0.8,0.2,1.4,0.2,2.1
		c0,0.7-0.1,1.4-0.3,2.2c-0.2,0.9-0.4,1.6-0.7,2.2c-0.3,0.7-0.7,1.3-1.3,2h0c0,0.1-0.1,0.1-0.1,0.2l0,0c0.5,1.3,1.1,2.6,1.5,4
		c0,0.2,0.1,0.3,0.1,0.5c0.3-0.1,0.7-0.3,1-0.3c0.1,0,0.1,0,0.2,0l0,0l0,0c0.8-0.2,1.5,0,2.1,0.5c0.2,0.1,0.3,0.3,0.4,0.4
		c0.4,0.5,0.7,1,0.7,1.8h0c0,0.3-0.1,0.7-0.2,1.1c0,0.1-0.1,0.2-0.1,0.2l0,0.1c-0.1,0.3-0.2,0.8-0.3,1.4c-0.1,0.5-0.2,1.1-0.2,1.4h0
		c0,0.6,0,1.2,0,1.8c0,0.3,0,0.7,0,1.1c0.1,1.7,0,3.4-0.4,5c-0.4,1.5-1,2.9-2,4.2c-0.1,0.1-0.1,0.1-0.2,0.2c-0.4,0.5-0.9,1-1.4,1.4
		c0.2,0.9,0,1.8-0.6,2.5c-0.3,0.3-0.6,0.5-0.9,0.6l0,0c-0.4,0.2-0.8,0.4-1.2,0.7c-0.1,0.1-0.2,0.2-0.3,0.3c0.1,0,0.1,0,0.2,0.1
		c1.3,0.4,2.4,1.3,2.8,2.8c0.1,0.5,0.2,1.1,0.1,1.5c-0.1,0.8-0.4,1.5-0.9,2.1c0.3-0.1,0.5-0.3,0.8-0.5c0.4-0.3,0.8-0.5,1.3-0.6
		c1.4-0.2,2.8,0.8,3,2.2c0.2,1.2-0.2,2-0.6,2.7c-0.1,0.1-0.1,0.1-0.1,0.2l0,0c-0.2,0.6-0.5,1.2-1.1,1.6c0,0.4-0.1,0.7-0.3,1.1
		c-1,1.8-2.1,3.5-3.5,4.9c-0.6,0.7-1.3,1.3-2.1,1.9c0.9,0.8,2,1.6,3,2.4c0.5,0.4,1.1,0.8,1.7,1.3c0.2,0.1,0.3,0.3,0.5,0.4
		c0,0,0.1,0,0.1,0c1,0.2,1.6,0.6,2.2,1l0.1,0.1l0,0c0.3,0.2,0.6,0.4,0.8,0.7c0.8,1.2,0.6,2.8-0.6,3.6c-2,1.4-4.4,2.3-7.1,2.8
		c-2.8,0.5-5.8,0.6-8.9,0.2c-2.7-0.3-5.2-0.9-7.6-1.6c-1.1-0.4-2.2-0.7-3.3-1.2c0,0.1-0.1,0.3-0.1,0.4c-0.6,1.3-1.3,2.6-2.1,3.8
		c-0.8,1.2-1.7,2.3-2.6,3.5l0,0l0,0c-0.1,0.2-0.5,0.7-1.2,1.5c-1.3,1.7-2.6,3.3-4.1,4.7c-0.9,0.9-2,1.7-3.3,2.4
		c-0.1,0.3-0.2,0.7-0.4,0.9c-0.7,1-1.8,1.7-3.1,2.2c-1.1,0.4-2.5,0.6-3.8,0.6c-1.7,0-3.3-0.4-4.9-0.8c-0.2,0-0.4-0.1-0.9-0.2
		c-2.4-0.6-4.8-1.1-7.4-1.5c-2.6-0.4-5.2-0.7-8-0.8c-2.8-0.1-5.6,0.1-8.2,0.4c-2.7,0.3-5.2,0.8-7.6,1.4c-0.1,0-0.4,0.1-1,0.2
		c-2.9,0.7-6.3,1.5-9.7,0.2c0,0-0.1,0-0.2-0.1c-1-0.3-2-0.6-2.7-1.9c-0.1-0.1-0.1-0.3-0.2-0.4c-0.1,0-0.2-0.1-0.3-0.1l0,0
		c-1-0.4-1.9-1.1-2.7-1.9c-0.7-0.6-1.3-1.4-1.9-2c-1.6-1.8-3.1-3.8-4.6-5.9c-1.5-2.1-2.8-4.2-4-6.3c-0.1-0.2-0.2-0.3-0.3-0.5
		c-1,0.4-2.1,0.8-3.2,1.1c-2.4,0.8-4.9,1.3-7.8,1.6c-1.4,0.1-2.9,0.2-4.4,0.2c-1.5,0-3-0.1-4.4-0.4c-1.3-0.3-2.5-0.6-3.7-1.1
		c-1.2-0.4-2.3-1-3.3-1.6l0,0c-0.2-0.1-0.4-0.3-0.6-0.5c-0.9-1.1-0.8-2.7,0.3-3.7c0.6-0.5,1.2-0.8,1.8-1l0,0c0.1,0,0.2-0.1,0.4-0.2
		l0,0c0.2-0.1,0.5-0.2,0.7-0.2c0.1-0.2,0.3-0.3,0.5-0.5c1.3-0.9,2.5-1.8,3.7-2.8c0.4-0.3,0.7-0.6,1.1-0.9c-0.7-0.6-1.4-1.2-2-1.8
		c-1.4-1.4-2.5-3-3.5-4.9C29.2,154.2,29.1,153.8,29,153.4L29,153.4z M50.4,128.7c0,1.1-0.2,2.3-0.5,3.5c-0.3,1.2-0.9,2.4-1.7,3.5
		l0,0c-0.3,0.4-0.5,0.7-0.8,1c0,0,0.1-0.1-0.3,0.3l0,0c0,0.1,0.1,0.1,0.1,0.2c0.6,1.3,0,2.9-1.3,3.4c-0.4,0.2-0.7,0.4-1,0.6
		c-0.1,0.1-0.2,0.2-0.3,0.3c1.5,0.3,2.7,1.1,3,3.5c0,0.3,0,0.5,0,0.8c0,0.2,0,0.3-0.1,0.4c1.1-0.4,2.2-0.9,3.3-1.4
		c1.8-0.8,3.6-1.7,5.2-2.7C53.9,138,52,133.4,50.4,128.7L50.4,128.7z M137.1,142.7c1.6,0.9,3.3,1.8,5.1,2.6c1.2,0.5,2.4,1.1,3.6,1.5
		c-0.1-0.2-0.1-0.5-0.1-0.8c0-0.3,0-0.5,0-0.8c0.2-2.4,1.4-3.2,3-3.5c-0.1-0.1-0.2-0.2-0.3-0.3c-0.3-0.2-0.6-0.5-1-0.6
		c-1.3-0.6-1.9-2.1-1.3-3.4c0-0.1,0.1-0.1,0.1-0.2l0,0c-0.3-0.4-0.2-0.3-0.3-0.3c-0.3-0.3-0.5-0.7-0.8-1l0,0
		c-0.8-1.1-1.3-2.3-1.7-3.5c-0.3-1.2-0.5-2.5-0.5-3.7C141.1,133.5,139.2,138.2,137.1,142.7L137.1,142.7z M53.9,60.7L53.9,60.7
		c1.3,0.7,2.6,1.3,3.9,1.9c1.8,0.7,3.7,1.3,5.7,1.7c2.1,0.4,4.2,0.6,6.6,0.6c4.1-0.1,7.6-0.8,10.8-1.9c1.7-0.6,3.3-1.4,4.9-2.2H53.9
		L53.9,60.7z M107.3,60.7c1.8,1,3.8,2,6,2.7c3.1,1.1,6.5,1.8,10,1.9c2.3,0.1,4.5-0.2,6.5-0.7c2.1-0.5,4.1-1.2,6-1.8
		c1.6-0.5,3-1.2,4.2-2c0.1,0,0.1-0.1,0.2-0.1H107.3L107.3,60.7z"/>
	<g>
		<path class="st0" d="M46.3,61.5l-0.9,13.8c0,0,0.9,25.2,3.5,35.5c2.6,10.3,11.1,32.7,12.4,35.5c1.2,2.8,14.7,21.6,14.7,21.6
			s10.4-2.5,20.1-2.5c11.1,0,20.9,2.7,20.9,2.7l10.7-14.3c0,0,12-18.7,15.9-38.5c3.9-19.8,3.9-51.6,3.9-51.6S130.3,70,124.5,70
			c-5.8,0-27.5-9.9-27.5-9.9s-13,9.3-27.7,9.3C54.6,69.4,46.3,61.5,46.3,61.5L46.3,61.5L46.3,61.5z"/>
		<path class="st1" d="M45.2,58.9c0.5,0.1,1.3-0.1,1.9,0c0.6,0.2,1.6,1.4,2.2,1.8c2.2,1.7,4.8,3.1,7.6,4.2c3.8,1.5,8.2,2.5,13.3,2.4
			c8.8-0.2,15.3-3.1,20.7-6.8c0.6-0.4,1.6-1.4,2.3-1.6c0.9-0.2,2.6,0,3.6,0c1,0,2.7-0.1,3.4,0.1c0.8,0.2,1.6,1.1,2.4,1.7
			c5.1,3.7,12.4,6.9,20.7,7.2c5.2,0.2,9.4-1.3,13.4-2.6c3.6-1.2,6.2-2.9,8.8-5.2c0.3-0.3,0.8-0.8,1-0.9c0.6-0.2,1.4,0.1,1.9,0
			c0.7,11.1,0.7,22.7-0.3,33.4c-0.9,10.4-3,20.2-5.7,29c-4.8,15.4-11.2,29.1-20.2,40.5c-0.6,0.8-1.1,1.5-1.9,2.4
			c-0.5,0.7-1.6,2.1-2.2,2.2c-1,0.1-2.4-0.8-3.4-0.8c0-0.3,0.4-0.7,0.8-1c9.9-11.5,17.5-25.2,22.8-41.6c4-12.5,6.7-26.4,7.2-42.6
			c0.2-5.2,0.4-10.7-0.1-16c-0.9,0.3-1.7,0.9-2.6,1.4c-5.7,3.2-14,6-23.4,4.7c-9.5-1.3-16.8-5.3-22.7-10c-2.9,2.4-6.3,4.4-10.2,6.1
			c-3.8,1.7-7.7,3.3-12.6,3.7c-5.4,0.4-10.4,0.1-14.7-1.2c-4.1-1.2-7.7-3.2-11.1-5.2c-2.3,39.4,7.4,69.6,23,92.3
			c2,2.9,4,5.5,6.3,8.1c0.3,0.3,0.8,0.7,0.7,1c-1-0.1-2.4,0.9-3.4,0.7c-0.5-0.1-1.6-1.5-2.2-2.2c-9.7-11.9-17-26.4-21.9-42.9
			c-2.6-8.8-4.7-18.6-5.6-29c-0.9-10.7-1-22.3-0.1-33.2C45.1,59,45.1,58.9,45.2,58.9L45.2,58.9z"/>
		<path class="st2" d="M96.7,62.8c5.7,4.3,12.6,8.4,21.6,9.6c10,1.3,19.1-1.3,25.6-4.7c1.2,32.4-5.9,58.6-17.5,79.2
			c-3.3,5.9-7.1,11.6-11.7,16.6c-0.5,0.5-1.5,1.9-2,2c-0.3,0.1-1.3-0.2-1.4-0.3c-0.3-0.2-0.1-0.1,0.1-0.3c0.7-0.9,2-2.2,2.6-2.9
			c14.8-17.1,24-40.1,27.3-68.6C111.5,93,81.8,93.1,52,93.1c3,26.6,11.2,48.2,24.2,65c1.6,2.1,3.2,4.3,5.2,6.1
			c0.2,0.2,0.6,0.4,0.5,0.8c-0.5,0-0.9,0.2-1.4,0.2c-0.5,0-1.4-1.3-1.9-1.9c-9.4-10.7-16.7-24-21.4-39.1c-2.6-8.1-4.8-16.8-6.1-26.2
			c-1.3-9.5-1.8-19.9-1.3-30.6c6.5,3.3,15.5,6.4,25.2,4.9C83.8,70.9,90.9,67.2,96.7,62.8L96.7,62.8z"/>
		<path class="st3" d="M48.7,150.5c3.7-1.4,7.1-3.2,10-5c-0.3-0.3-0.3-1-0.8-1.3c-3.7,2.3-8.1,4.3-13,5.8c-2.3,0.7-5.2,1.4-7.9,1.3
			c-2.8-0.1-5.2-0.8-7.2-1.9c0.2,0.6,0.5,1.2,0.8,1.7C35.6,154.2,43.6,152.4,48.7,150.5L48.7,150.5z M113,186.4
			c-6-1.4-12.2-2.7-19.6-2.4c-3.7,0.2-7.4,0.8-10.8,1.5c-3.9,0.8-8.5,2.6-12.5,1.7c0.3,0.5,1,0.6,1.5,0.8c3,1.1,6.4,0.1,9.2-0.6
			c4.9-1.1,10.5-2.1,16.4-1.8c5.8,0.2,11.1,1.2,15.9,2.4c1.8,0.4,3.5,1,5.2,1c1.9,0,4.1-0.6,4.7-1.6
			C119.6,188.5,115.9,187.1,113,186.4L113,186.4z M124.6,172.8c-9.9-1.9-18.8-5.3-30.9-4.7c-5.4,0.3-10.4,1.1-15.4,2.2
			c-4.9,1.1-9.8,2.7-14.8,2.7c-2.7,0-5.1-0.6-6.4-1.8c-0.2-0.2-0.4-0.7-0.8-0.7c2.4,4.1,5.3,8.3,8.4,11.9c1,1.2,2.3,2.6,3.6,3.2
			c3.1,1.4,7.1,0,9.9-0.7c5.5-1.4,11.2-2.4,18-2.4c6.6,0,12.5,1.2,17.8,2.6c1.9,0.5,3.8,1.2,5.5,1.3c3.6,0.3,5.8-1.1,7.6-2.7
			c1.8-1.7,3.3-3.9,5-6c1.7-2.2,3.4-4.4,4.4-6.7c-0.8,0.4-1.2,1-1.8,1.3C131.8,173.8,127.9,173.4,124.6,172.8L124.6,172.8z
			 M162.8,168.5c-3.4,2-8.9,2.5-13.8,1.7c-4.5-0.7-8.8-2.3-12.3-3.9c-1.2,5.9-9.5,3.8-14.7,2.7c-2.9-0.6-5.7-1.5-8.6-2.1
			c-5.8-1.2-12.4-2.4-19.4-2.1c-5.7,0.3-11.2,1.1-16.7,2.4c-2.5,0.6-5.1,1.2-7.7,1.8c-4.9,1.1-12.6,1.9-13.4-3
			c-6.4,3.1-18.7,6.4-26.2,2.1c-0.5,0.3-1.2,0.5-1.6,0.8c1.8,1.1,3.9,1.9,6.2,2.4c2.5,0.5,5.1,0.4,8,0.2c5.3-0.4,9.5-2.2,13.4-3.8
			c1.3,3.8,6.5,4,11.2,3.3c3-0.4,5.9-1.3,8.5-1.9c5.8-1.3,11.7-2.3,18.1-2.6c10.6-0.5,18.8,1.8,27.1,3.9c5.7,1.4,14,2.9,16.2-2.4
			c3.7,1.7,8.2,3.3,13.2,3.9c5.5,0.6,10.8-0.1,14.2-2.6C163.9,168.9,163.4,168.6,162.8,168.5L162.8,168.5z M130.6,168.7
			c2-0.1,4.5-0.8,4.5-2.9c0-2.1-1.9-3.4-3.3-4.5c-1.4-1.1-3.4-2.3-5.1-2.9c-2,3-4.3,5.7-6.5,8.6c1.4,0.3,3.1,0.7,4.9,1
			C126.9,168.4,128.9,168.8,130.6,168.7L130.6,168.7z M59.1,162.7c-0.6,0.7-1.5,1.9-1.3,3.2c0.2,1.9,2.6,2.4,4.4,2.5
			c3.8,0.3,7.5-1.1,10.5-1.6c-2.1-2.7-4.4-5.7-6.5-8.6C63.9,159.4,60.9,160.7,59.1,162.7L59.1,162.7z M136.4,164.4
			c5.2,2.6,11.9,5.2,20.1,4.7c2-0.1,3.4-0.8,4.8-1.5c-2.5-2-5.3-3.7-7.2-6.3c3.2-1.7,5.6-4.2,7.2-7.4c-4.7,2-11,0.8-15.3-0.6
			c-4.5-1.5-8.5-3.8-12.3-5.8c0,0,0-0.1-0.1-0.1c-1.9,3.4-4,6.6-6,9.8C131.1,159,134.7,160.7,136.4,164.4L136.4,164.4z M31.6,153.3
			c1.6,3.3,4.2,5.8,7.2,7.7c-2.1,2.4-4.7,4.3-7.3,6.2c3.4,1.9,9.1,1.8,13.4,1c4.4-0.8,8.3-2.4,11.6-4c1.7-3.6,5.3-5.3,8.8-7.2
			c-2-3.2-4.1-6.5-6-9.9c-2.8,1.6-5.9,3.2-9.4,4.7C44.8,153.7,37.7,155.9,31.6,153.3L31.6,153.3z M154.8,153.3
			c3,0.1,5.4-0.6,7.7-1.6c0.2-0.6,0.7-1.2,0.6-1.9c-3.7,2.9-10.8,2.1-15.2,0.6c-4.7-1.5-9-3.6-12.8-5.8c-0.3,0.4-0.5,0.9-0.7,1.4
			c3.9,2.1,7.9,4.3,12.7,5.8C149.3,152.4,152.1,153.2,154.8,153.3L154.8,153.3z"/>
		<path class="st2" d="M58.4,95.7c0.9,0,1.5,0.1,2,0.5l0.6-1.2h-4.4c0.2,0.6,0.3,1.2,0.3,2v3.6c0,0.7-0.1,1.4-0.3,2h1.8
			c-0.2-0.6-0.3-1.2-0.3-2V99c0.8,0,1.4,0.1,1.9,0.4l0.7-1.1h-2.5v-2.6C58.2,95.7,58.3,95.7,58.4,95.7L58.4,95.7z M134.4,101.8
			c-0.1,0-0.2,0-0.3,0v-3.2c1.1,0.2,1.8,0.9,1.8,1.8C136,101.2,135.4,101.8,134.4,101.8L134.4,101.8z M134.2,95.6
			c0.9,0,1.5,0.5,1.5,1.2c0,0.8-0.6,1.4-1.5,1.5V95.6L134.2,95.6z M135.9,98.4c0.7-0.3,1.1-0.9,1.1-1.6c0-0.6-0.4-1.2-1-1.6
			c-0.4-0.2-1.1-0.3-2-0.3h-1.3c0.2,0.6,0.3,1.2,0.3,2v3.6c0,0.7-0.1,1.4-0.3,2h1.6c2,0,3-0.8,3-2.1C137.3,99.6,136.8,99,135.9,98.4
			L135.9,98.4z M131.2,94.9h-1.8c0.2,0.6,0.3,1.2,0.3,2v2.6c0,0.7,0,1.2-0.5,1.6c-0.4,0.3-0.8,0.5-1.3,0.5c-0.6,0-1.2-0.3-1.5-0.7
			c-0.2-0.3-0.2-0.7-0.2-1.3v-2.7c0-0.7,0.1-1.4,0.3-2h-1.8c0.2,0.6,0.3,1.2,0.3,2v2.8c0,0.1,0,0.2,0,0.2c0,0.5,0,1,0.3,1.4
			c0.2,0.3,0.4,0.5,0.7,0.7c0.5,0.3,1.1,0.5,1.6,0.5c0.7,0,1.5-0.3,2.3-0.9v0.8h1.4c-0.2-0.6-0.3-1.2-0.3-2v-3.6
			C130.9,96.1,131,95.5,131.2,94.9L131.2,94.9z M121.2,96.9c0-0.7,0.1-1.4,0.3-2h-1.8c0.2,0.6,0.3,1.2,0.3,2v3.6
			c0,0.7-0.1,1.4-0.3,2h3.8c0.2-0.4,0.4-0.9,0.6-1.4c-0.8,0.4-1.8,0.6-3,0.7V96.9L121.2,96.9z M113.1,98.7c0-1.9,1.1-3,2.8-3
			c0.8,0,1.5,0.2,2.1,0.6l0-1.3c-0.7-0.2-1.3-0.2-1.9-0.2c-1.2,0-2.2,0.3-3,0.9c-0.9,0.7-1.4,1.8-1.4,3c0,1.2,0.5,2.2,1.4,2.9
			c0.7,0.5,1.5,0.8,2.5,0.8c0.8,0,1.6-0.2,2.6-0.5l0-1.3c-0.8,0.6-1.6,0.9-2.4,0.9C114.2,101.6,113.1,100.5,113.1,98.7L113.1,98.7z
			 M105.5,96.9c0-0.7,0.1-1.4,0.3-2H104c0.2,0.6,0.3,1.2,0.3,2v3.6c0,0.7-0.1,1.4-0.3,2h3.8c0.2-0.4,0.4-0.9,0.6-1.4
			c-0.8,0.4-1.8,0.6-3,0.7V96.9L105.5,96.9z M100,96.9c0-0.7,0.1-1.4,0.3-2h-1.8c0.2,0.6,0.3,1.2,0.3,2v3.6c0,0.7-0.1,1.4-0.3,2h3.8
			c0.2-0.4,0.4-0.9,0.6-1.4c-0.8,0.4-1.8,0.6-3,0.7V96.9L100,96.9z M92.6,99.2l1-2.1l0.9,2.1H92.6L92.6,99.2z M93.6,94.7l-3,5.9
			c-0.4,0.7-0.7,1.3-1.1,1.8h1.8c0-0.1,0-0.1,0-0.2c0-0.3,0.1-0.7,0.3-1.1l0.5-1h2.8l0.5,1.2c0.1,0.2,0.2,0.5,0.2,0.8
			c0,0.1,0,0.2,0,0.3h2c-0.5-0.6-0.8-1.1-1-1.6L93.6,94.7L93.6,94.7z M86.3,101.8c-0.1,0-0.2,0-0.3,0v-3.2c1.1,0.2,1.8,0.9,1.8,1.8
			C87.9,101.2,87.3,101.8,86.3,101.8L86.3,101.8z M86.1,95.6c0.9,0,1.5,0.5,1.5,1.2c0,0.8-0.6,1.4-1.5,1.5V95.6L86.1,95.6z
			 M87.7,98.4c0.7-0.3,1.1-0.9,1.1-1.6c0-0.6-0.4-1.2-1-1.6c-0.4-0.2-1.1-0.3-1.9-0.3h-1.3c0.2,0.6,0.3,1.2,0.3,2v3.6
			c0,0.7-0.1,1.4-0.3,2h1.6c1.9,0,3-0.8,3-2.1C89.1,99.6,88.7,99,87.7,98.4L87.7,98.4z M77.4,96.2c0.6-0.3,1.4-0.4,2.4-0.5v4.7
			c0,0.7-0.1,1.4-0.3,2h1.8c-0.2-0.6-0.3-1.2-0.3-2v-4.7c0.9,0,1.5,0.1,2.1,0.4l0.5-1.3h-5.8L77.4,96.2L77.4,96.2z M73.7,101.6
			c-0.8,0-1.4-0.4-1.9-1.1c-0.4-0.6-0.6-1.3-0.6-2c0-1.6,0.9-2.8,2.2-2.8c0.8,0,1.5,0.4,2,1.3c0.3,0.5,0.5,1.2,0.5,1.9
			C75.9,100.5,74.9,101.6,73.7,101.6L73.7,101.6z M73.6,94.8c-1.1,0-2.1,0.5-2.8,1.4c-0.5,0.7-0.8,1.5-0.8,2.4c0,1.2,0.4,2.3,1.2,3
			c0.7,0.6,1.4,0.9,2.3,0.9c0.9,0,1.7-0.3,2.4-1c0.7-0.7,1.1-1.7,1.1-2.9c0-1.1-0.4-2.1-1.1-2.8C75.4,95.2,74.6,94.8,73.6,94.8
			L73.6,94.8z M65.6,101.6c-0.8,0-1.4-0.4-1.9-1.1c-0.4-0.6-0.6-1.3-0.6-2c0-1.6,0.9-2.8,2.2-2.8c0.8,0,1.5,0.4,2,1.3
			c0.3,0.5,0.5,1.2,0.5,1.9C67.8,100.5,66.9,101.6,65.6,101.6L65.6,101.6z M65.6,94.8c-1.1,0-2.1,0.5-2.8,1.4
			c-0.5,0.7-0.8,1.5-0.8,2.4c0,1.2,0.4,2.3,1.2,3c0.7,0.6,1.4,0.9,2.3,0.9c0.9,0,1.7-0.3,2.4-1c0.7-0.7,1.1-1.7,1.1-2.9
			c0-1.1-0.4-2.1-1.1-2.8C67.3,95.2,66.5,94.8,65.6,94.8L65.6,94.8z"/>
		<g>
			<path class="st4" d="M35.7,108.5c0,0-0.1,0.5-0.6,1.3c-0.5,0.8-0.6,1.4-0.6,1.4l-0.5-1.3l-0.3-3l1-3.6l1,1V108.5L35.7,108.5z"/>
			<path class="st4" d="M37.8,136.9c0,0-1.8,0-2.4-0.2c-0.6-0.2-1-4.1-1-4.1l1.7-6.2l3-6.5l2,3.5l2.4,3.4l0.9,3.8l-0.8,3.5l-1.2,2.7
				c0,0-1.6-0.1-2.2-0.1C39.6,136.7,37.8,136.9,37.8,136.9L37.8,136.9L37.8,136.9z"/>
			<path class="st2" d="M42.8,100.1c0,1.5-0.5,2.3-0.6,3.8c0,0.2-0.1,0.4,0,0.6c0,0-0.1,0.1-0.1,0c-0.1-0.3-0.3-0.4-0.4-0.6
				c-0.2-0.3-0.3-0.5-0.4-0.8c-0.1-0.3-0.2-0.5-0.2-0.9c-0.1-0.5-0.1-1-0.1-1.4c0,0,0,0,0,0c-0.1-0.5,0-1.2,0-1.8
				c0-0.7,0-1.4-0.2-2.3c-0.1-0.6-0.3-0.9-0.5-1.4c-0.1-0.2-0.3-0.5-0.2-0.5c0.1-0.1,0.3,0.1,0.4,0.1c1.7,1,2.4,2.7,2.4,4.8
				C42.8,100,42.8,100,42.8,100.1L42.8,100.1L42.8,100.1z"/>
			<path class="st2" d="M34,98.8c1.6,1.2,2.3,2.9,2.5,5.1c0.1,1,0,1.6-0.2,2.7c-0.1,0.2-0.1,0.4-0.2,0.6c-0.1,0.5-0.2,0.9-0.4,1.3
				c0,0.1-0.1,0.1-0.1,0c0-0.8,0.1-1.5-0.1-2.5c-0.1-0.7-0.3-1.3-0.6-1.8c0,0-0.1,0.1-0.1,0.2c-0.3,0.8-0.5,1.5-0.6,2.6
				c-0.2,1.6-0.1,2.8,0.3,4.1c0,0.1-0.1,0.2-0.2,0.1c-0.8-0.9-1.2-1.8-1.5-3.1c-0.3-1.2-0.2-2,0-3.2c0.3-1.4,0.8-2.1,0.9-3.4
				c0.1-1,0.1-1.7-0.2-2.6c0-0.1,0-0.1,0.1-0.1C33.7,98.6,33.9,98.8,34,98.8L34,98.8L34,98.8z"/>
			<path class="st2" d="M39.5,103.2c2.7,2.9,2.6,5.7,3.1,9.5c0.1,0.6,0.1,1.1,0.2,1.6c0.7-0.7,1.6-1.1,2.6-1c0,0.1,0,0.1-0.1,0.2
				c-0.9,1.5-0.9,3.6-0.4,5.3c0.2,1,0.6,1.9,1,2.8c0.2,0.6,0.5,1.2,0.7,1.9c0.5,1.4,0.7,3,0.7,4.5c0,2.1-0.4,4.3-1.7,6
				c-0.3,0.5-0.7,0.9-1,1.3c-0.5,0.4-1,0.9-1.6,1.2c-0.3,0.1-0.6,0.3-0.9,0.3c0.5-1.1,1.2-2.3,1.3-3.6c0.1-0.8,0.2-1.6,0.1-2.4
				c-0.1-1.8-0.8-3.4-1.8-4.9c-0.9-1.2-1.8-2.4-2.3-3.7c-0.4,1.6-1,3.3-1.9,4.7c-0.3,0.5-0.7,1-0.9,1.5c-0.8,1.2-1.4,2.5-1.7,4
				c-0.2,1.5-0.1,3.1,0.7,4.3c0,0.1-0.1,0-0.1,0.1l0,0l0,0c-1.4-0.2-2.6-1.2-3.5-2.3c-1.7-2.2-2.2-4.9-2-7.6c0-1.1,0.1-2.1,0-3.2
				c-0.1-1.4-0.3-2.8-0.9-4c0,0,0.1-0.1,0.1-0.1c0.7,0.2,1.4,0.5,2,1c0.7,0.5,1.2,1,1.7,1.7c-0.1-3.1,1.1-6.2,2.4-9
				c0.5-1.2,1.1-2.3,1.6-3.4c1-2.2,1.9-4.6,1.8-7.2c0-0.1,0-0.1,0-0.2C39,102.5,39.2,102.9,39.5,103.2L39.5,103.2L39.5,103.2z"/>
			<path class="st4" d="M39.7,108.8c0.5,2.8,1,5.7,1.9,8.3c0.4,1.3,0.9,2.5,1.4,3.8c0.7,1.7,1.5,3.3,2.1,5.1
				c0.7,2.2,0.6,4.7-0.2,6.8c-0.3,0.5-0.5,1.1-0.8,1.5c0-0.3,0.2-0.6,0.2-0.9c0.6-2.6,0.4-4.3-0.4-6.9c-0.3-0.9-0.6-1.4-1-2.3
				c-0.4-0.8-0.7-1.3-1.2-2.1c-0.1-0.1-0.1-0.2-0.2-0.3c-0.3-0.4-0.5-0.7-0.7-1.1c-0.3-0.5-0.4-0.8-0.6-1.4
				c-0.5-1.2-0.8-2.2-0.8-3.3c0-0.1-0.1,0-0.1,0c-0.9,1-1.4,2.2-1.7,3.4c-0.2,1-0.5,2-0.7,3c-0.5,1.6-1.2,3.1-1.9,4.5
				c-1,2.3-1.7,5-1.2,7.6c0,0,0,0,0-0.1c0,0,0,0-0.1,0c-0.6-0.6-1-1.3-1.3-2.1c-0.4-0.8-0.5-1.7-0.7-2.7c-0.2-1.8,0-3.6,0.4-5.4
				c0.4,0.3,0.7,0.7,1,1.1c0.2,0.3,0.3,0.6,0.5,0.8c0,0,0.1,0,0.1,0c0.1-2.3,0.9-4.3,1.7-6.4c0.4-0.9,0.8-1.9,1.2-2.8
				c0.5-1,1-2,1.4-2.9C38.8,112.4,39.4,110.6,39.7,108.8L39.7,108.8L39.7,108.8z"/>
			<path class="st2" d="M39.6,126.6c1.9,1.6,2.5,4.3,2.2,6.7c-0.2,0.8-0.4,1.5-0.7,2.2c-0.3,0.5-0.6,1-1.1,1.3
				c0-0.1-0.2-0.1-0.1-0.2c0.3-0.7,0.5-1.5,0.5-2.2c0-1.1-0.2-2.2-0.8-3c-0.1-0.1-0.1-0.2-0.2-0.2c-0.1,0.8-0.6,1.5-1,2.3
				c-0.2,0.4-0.4,0.8-0.5,1.3c-0.1,0.5-0.1,1.1-0.1,1.6c0.1,0.2,0.1,0.4,0.1,0.5c-0.3,0-0.4-0.2-0.6-0.4c-0.2-0.2-0.3-0.4-0.5-0.6
				c-0.5-0.9-0.5-1.6-0.4-2.6c0-0.4,0.1-0.6,0.2-1c0.3-1.1,0.7-1.6,1.3-2.6c0.6-1,1.2-1.4,1.4-2.4c0-0.2,0.1-0.6,0.1-0.6
				C39.5,126.4,39.5,126.5,39.6,126.6L39.6,126.6L39.6,126.6z"/>
		</g>
		<path class="st3" d="M101.9,33.9c0,0.3,0.2,0.5,0.4,0.7c0.3,0.2,0.4,0.2,0.8,0.2c0.4,0,0.5,0,0.8-0.2c0.2-0.2,0.4-0.4,0.5-0.7
			c0-0.5-0.4-1.1-0.2-1.6c0.2-0.2,0.5-0.5,0.5-0.5c0,0-0.1-0.1-0.1-0.1c-0.5,0.1-1,0.1-1.5,0.1c-0.5,0-1,0-1.5-0.1
			c0,0-0.1,0-0.1,0.1c0,0.1,0.3,0.4,0.5,0.5C102.3,32.8,101.8,33.4,101.9,33.9L101.9,33.9z M94.4,38.7c0,0.2-0.1,0.4-0.1,0.5
			c0,0-0.2-0.2-0.5-0.5l0,0c-0.5-0.6-1.3-1.4-1.7-1.9l0-0.1c0.8-0.9,0.8-0.9,2.3-2.6l0,0C94.7,35.6,94.8,37.2,94.4,38.7h5.1
			c0-0.1,0-0.1-0.1-0.2c-0.1-0.9-0.2-1.9-0.1-2.9c0.1,0.1,0.3,0.1,0.4,0.2c0.2,0.1,0.5,0.2,0.7,0.3c0,0.3-0.2,0.8,0.2,0.9
			c0.4,0,0.5-0.5,0.7-0.7c0.4,0.1,0.7,0.1,1.1,0.2c0,0.9,0,1.3,0,2.1l0.6,0l-0.6,0c0,0.2,0,0.4,0,0.6c-0.1-0.1-0.3-0.3-0.4-0.4
			c-0.4-0.2-1-0.3-1.4,0c-0.2,0.2-0.5,0.4-0.6,0.7c0,0.2-0.1,0.3-0.1,0.5c0,0,0,0-0.1,0c-0.2-0.3-0.3-0.6-0.3-1
			c0-0.2-0.1-0.3-0.1-0.5H94.4L94.4,38.7z M92.7,41.8c-0.8,0.7-1.6,0.8-2.6,0.6c-0.7-0.2-1-0.3-1.5-0.9c-0.1-0.2-0.2-0.3-0.1-0.5
			c0.5-0.6,1.4-1.6,2-2.2h0c0.3-0.3,0.5-0.6,0.5-0.6c0.2,0.2,0.3,0.4,0.5,0.6c0.7,0.8,1.4,1.5,2,2.2C93.2,41.3,93,41.6,92.7,41.8
			L92.7,41.8z M87.5,39.3c-0.1-0.2-0.1-0.4-0.2-0.6v0c-0.3-1.3-0.3-2.6-0.1-3.9c0-0.2,0.1-0.4,0.1-0.6c0.8,0.8,1.5,1.7,2.4,2.6
			c-0.5,0.6-1.1,1.3-1.7,1.9C87.9,38.9,87.7,39.1,87.5,39.3L87.5,39.3z M91.1,30.4c1.1,0.1,1.9,0.9,2.5,1.8
			c-0.2,0.4-2.1,2.5-2.7,3.2c-0.9-1.1-1.9-2.1-2.8-3.2C88.7,31.1,89.8,30.2,91.1,30.4L91.1,30.4z M95.4,26.5c-0.7-0.6-1.1-1-1.8-1.6
			c-0.6-0.7-0.9-1.1-1.5-1.8c-0.3-0.4-0.5-0.7-0.7-1c-0.4-0.6-0.6-1.2-1-2.1c-0.7-1.6-1.1-2.5-1.2-4.3c0-0.6-0.1-1,0-1.5
			c0,0,0,0,0,0c0-0.1,0.1-0.1,0.1-0.2c0.1,0,0.2,0,0.2,0c0.6,0.3,1.2,0.5,2.1,0.6c0.9,0.1,1.4,0.2,2.3,0.1c1.4-0.2,2.5-0.6,3.2-1.7
			c0.2,0.3,0.6,0.6,0.8,0.8c1.6,1.1,4,1,5.8,0.5c0.7-0.2,0.6-0.2,1-0.3c0.2,0.6,0.1,1.2,0,2c-0.1,1.4-0.4,2.2-0.9,3.5
			c-0.1,0.3-0.2,0.4-0.3,0.7c-0.3,0.7-0.6,1.3-0.9,1.8c-0.3,0.5-0.7,1.1-1.2,1.7c-1.4,1.8-2.7,2.8-4.4,3.9l-0.1,0
			C96.4,27.3,95.9,27,95.4,26.5L95.4,26.5z M100.3,32.3c0.6-1.1,1.7-2,3-1.8c0.8,0.1,1.4,0.5,1.9,1.1c0.1,0.1,0.2,0.3,0.3,0.4
			c0.1,0.2,0.3,0.5,0.4,0.7c0,0.1,0.1,0.3,0.2,0.5c-0.4,0-0.8,0-1.1,0.2c-0.1,0.2,0.2,0.2,0.3,0.3c0.2,0.1,0.4,0.4,0.5,0.6
			c0,0.3-0.3,0.6-0.6,0.8c-1.1,0.6-2.6,0.6-3.8,0.4c-0.2-0.1-0.4-0.1-0.6-0.2c-0.3-0.1-0.5-0.3-0.8-0.5c0-0.1-0.1-0.3-0.1-0.4
			c0.1-0.5,0.6-0.7,1-0.8c0.1,0,0.1-0.1,0-0.1c-0.3-0.3-0.7-0.3-1.1-0.3C100.1,32.7,100.2,32.5,100.3,32.3L100.3,32.3z M106.8,35.5
			c0.1,0.3,0,0.6,0.1,0.8v0.2l0,0l0,0.1c0,0.6-0.1,1.2-0.1,1.8c0,0.1-0.1,0.2-0.1,0.3c-0.1,0.4-0.2,0.8-0.3,1.1l-0.1,0.2
			c-0.1-0.1,0-0.2,0-0.2l0,0c-0.1-0.4-0.4-0.8-0.8-1c-0.5-0.2-1,0-1.4,0.3c-0.1,0.2-0.3,0.3-0.4,0.5c0-0.3,0-0.6,0-0.9l0,0
			c0-0.7,0-1.3,0-2.1c0.3,0,0.7-0.1,1-0.1c0.2,0.2,0.2,0.7,0.7,0.6c0.1,0,0.2-0.1,0.2-0.2c0.1-0.1,0.1-0.3,0.1-0.5
			c-0.1-0.3,0.3-0.2,0.5-0.4C106.3,35.9,106.5,35.7,106.8,35.5L106.8,35.5z M105.1,41.5c-0.3,0.6-0.9,1-1.6,1.2
			c-0.1-0.3-0.1-0.7,0-1c0-0.6,0.2-1.2,0.8-1.6c0.2-0.2,0.7-0.2,0.8,0.1C105.4,40.5,105.3,41.1,105.1,41.5L105.1,41.5z M102.5,42.6
			c-0.2,0-0.4-0.1-0.6-0.2c-0.3-0.2-0.6-0.4-0.7-0.7c-0.1-0.1-0.1-0.2-0.1-0.3c-0.2-0.3-0.2-0.7-0.1-1.1c0,0,0-0.1,0.1-0.2
			c0-0.1,0.1-0.2,0.2-0.3c0.1,0.1,0.2-0.1,0.3,0c0.1,0,0.1,0.1,0.2,0c0.1,0.1,0.2,0.1,0.3,0.2c0.1,0.2,0.3,0.4,0.3,0.6
			c0.1,0.3,0.2,0.6,0.3,1C102.5,42,102.5,42.3,102.5,42.6L102.5,42.6z M98,45v-6.2c0,0,0.1,0,0.1,0c0.4,1.8,1.5,3.8,3.3,4.7
			c0.3,0.1,0.5,0.2,0.8,0.3c0.3,0,0.7,0.1,1.1,0.1c1.9,0,3.5-1.7,4.2-3.3c0.3-0.6,0.5-1.2,0.6-1.8l0,0c0.2-1,0.3-2.1,0.2-3.1
			c-0.1-0.5-0.1-1-0.3-1.4c-0.3-1.1-0.7-2.2-1.4-3.1c-0.1-0.1-0.2-0.2-0.3-0.4c-0.4-0.4-0.9-0.8-1.4-1.1c-1-0.5-2.1-0.6-3.2-0.2
			c-0.8,0.3-1.5,0.8-2.1,1.5c-0.5,0.6-0.9,1.4-1.2,2.1c-0.1,0.5-0.3,0.9-0.4,1.3c0,0-0.1,0-0.1,0c0-1.7,0-2.9,0-4.9
			c0.5-0.4,1-0.8,1.5-1.2c1.9-1.6,3.5-3.5,4.8-5.6c0.1,0,0.1,0,0.1,0.1c0,0,0,0.3,0,0.4c0,0.3,0.1,0.5,0.2,0.8
			c0.1,0.2,0.2,0.4,0.2,0.4s0.3,0.6,0.6,0.9c0.2,0.3,0.4,0.4,0.6,0.6c0.4,0.4,0.7,0.5,1.1,0.9c0.3,0.3,0.4,0.4,0.7,0.7
			c0.3,0.4,0.5,0.7,0.6,1.2c0,0.2,0.1,0.2,0,0.4c0,0.2-0.1,0.4-0.1,0.6c0.1,0,0.5,0.1,0.7,0c0,0,0.2-0.1,0.3-0.2
			c0.1-0.1,0.1-0.1,0.2-0.2c0.1-0.1,0.2-0.2,0.2-0.4c0.1-0.1,0.1-0.2,0.1-0.3c0-0.1,0-0.2,0-0.4c0-0.1-0.1-0.2-0.1-0.3
			c0.4,0.1,0.6,0.3,1.1,0.3c0.5,0.1,0.9,0.1,1.4,0.1c-0.4,0.5-0.7,0.8-1.1,1.4c-0.2,0.3-0.3,0.4-0.5,0.7c-0.2,0.4-0.3,0.7-0.5,1.1
			c-0.1,0.3-0.2,0.4-0.2,0.7c-0.1,0.5-0.2,0.8-0.3,1.3c0,0.3-0.1,0.5-0.1,0.9c0,0.3,0,0.5,0,0.8c0,0.4,0.1,0.6,0.1,0.9
			c0.1,0.5,0.2,0.9,0.4,1.4c0.1,0.2,0.1,0.4,0.2,0.6c0.1,0.3,0.2,0.5,0.4,0.9c0.1,0.2,0.2,0.4,0.4,0.6c0.3,0.5,0.5,0.7,0.9,1.1
			c0.2,0.2,0.3,0.3,0.6,0.5c0.3,0.2,0.4,0.4,0.7,0.6c0.3,0.2,0.5,0.3,0.8,0.5c0.2,0.1,0.3,0.2,0.6,0.3c0.3,0.2,0.5,0.2,0.9,0.3
			c0.5,0.2,0.8,0.3,1.3,0.4c0.6,0.1,0.9,0.1,1.5,0.1c0.4,0,0.7,0,1.1,0c0.5,0,0.7,0,1.2-0.1c0.3-0.1,0.5-0.1,0.9-0.2
			c0.7-0.2,1.1-0.3,1.9-0.5c1.2-0.4,1.5-0.6,2.7-0.9c0.8-0.3,1.3-0.4,2.1-0.5c0.4-0.1,0.6-0.1,1-0.1c0.6-0.1,1-0.1,1.7,0
			c0.7,0.1,1.1,0.1,1.7,0.3c0.7,0.2,1.5,0.7,1.7,0.8c0-0.2,0-0.5-0.1-0.7c0-0.2-0.1-0.3-0.2-0.4c-0.1-0.1-0.1-0.2-0.2-0.4
			c-0.1-0.1-0.2-0.2-0.3-0.4c-0.1-0.1-0.2-0.2-0.4-0.3c-0.2-0.1-0.3-0.2-0.5-0.3c-0.4-0.2-0.7-0.2-1-0.3c0.3-0.2,0.6-0.4,1-0.6
			c0.9-0.5,1.4-0.7,2.3-1c0.6-0.2,0.9-0.3,1.5-0.5c0.6-0.2,0.9-0.3,1.4-0.4c0.5-0.1,0.7-0.2,1.2-0.2c0.3,0,0.5-0.1,0.9-0.1
			c0.4,0,0.7,0,1.2,0c0.5,0,0.7,0.1,1.2,0.2c0.3,0.1,0.5,0.2,0.8,0.3c0.4,0.2,0.6,0.3,0.9,0.5c0.1,0.1,0.2,0.2,0.4,0.3
			c0.2,0.2,0.2,0.3,0.4,0.5c0.1,0.1,0.1,0.2,0.2,0.4c0.1,0.2,0.1,0.2,0.2,0.4c0.1,0.3,0.1,0.5,0.1,0.8c0,0.2,0,0.3,0,0.5
			c-0.1,0.2-0.1,0.4-0.2,0.6c-0.1,0.2-0.3,0.4-0.4,0.5c-0.2,0.2-0.3,0.3-0.6,0.4c-0.2,0.1-0.3,0.1-0.4,0.2c-0.3,0.1-0.5,0.2-0.8,0.2
			c-0.3,0-0.5,0-0.8-0.1c-0.2-0.1-0.3-0.1-0.5-0.2c-0.1-0.1-0.2-0.1-0.3-0.2c0.1-0.1,0.2-0.2,0.4-0.3c0.1-0.1,0.1-0.2,0.2-0.3
			c0.1-0.1,0.1-0.2,0.1-0.4c0-0.1,0-0.2,0-0.3c0-0.1,0-0.2-0.1-0.3c-0.1-0.1-0.1-0.2-0.2-0.3c-0.1-0.2-0.2-0.3-0.4-0.4
			c-0.1-0.1-0.2-0.1-0.4-0.1c-0.2,0-0.3,0-0.4,0c-0.1,0-0.2,0-0.4,0.1c-0.1,0-0.2,0.1-0.3,0.1c-0.1,0.1-0.2,0.1-0.3,0.3
			c-0.1,0.1-0.1,0.2-0.2,0.3c0,0.1-0.1,0.2-0.1,0.3c-0.1,0.3-0.1,0.4,0,0.7c0,0.2,0.1,0.3,0.1,0.5c0.1,0.1,0.1,0.2,0.2,0.3
			c0.1,0.2,0.2,0.3,0.3,0.4c0.1,0.2,0.2,0.2,0.4,0.4c0.2,0.1,0.3,0.2,0.4,0.3c0.4,0.2,0.6,0.3,1,0.4c0.2,0.1,0.3,0.1,0.5,0.1
			c0.2,0,0.4,0,0.6,0c0.2,0,0.4,0,0.6,0c0.3,0,0.4,0,0.7-0.1c0.2-0.1,0.4-0.1,0.6-0.2c0.2-0.1,0.3-0.1,0.5-0.3
			c0.2-0.1,0.3-0.2,0.5-0.3c0.2-0.2,0.3-0.3,0.4-0.4c0.1-0.2,0.2-0.3,0.3-0.5c0.1-0.2,0.2-0.3,0.3-0.6c0.1-0.2,0.1-0.3,0.1-0.5
			c0.1-0.3,0.1-0.4,0.1-0.7c0-0.2,0-0.3,0-0.5c0-0.4-0.1-0.6-0.2-0.9c-0.1-0.2-0.1-0.3-0.2-0.4c-0.2-0.3-0.3-0.5-0.5-0.7
			c-0.2-0.2-0.3-0.3-0.5-0.5c-0.2-0.2-0.3-0.2-0.5-0.4c-0.2-0.1-0.3-0.2-0.5-0.3c-0.3-0.2-0.6-0.3-0.9-0.4c-0.3-0.1-0.4-0.1-0.7-0.2
			c-0.3-0.1-0.5-0.1-0.8-0.1c-0.5-0.1-0.8-0.1-1.4-0.1c-0.5,0-0.8,0-1.2,0.1c-0.4,0-0.7,0.1-1.1,0.1c-0.4,0.1-0.6,0.1-1,0.2
			c-0.6,0.2-0.9,0.3-1.5,0.5c-1,0.3-1.5,0.6-2.4,1c-0.7,0.3-1,0.5-1.7,0.8c-0.4,0.2-0.7,0.4-1,0.6c0-0.2,0.1-0.3,0.1-0.5
			c0-0.1,0-0.2,0-0.3c0-0.2-0.1-0.3-0.2-0.5c-0.1-0.1-0.1-0.1-0.3-0.2c-0.1-0.1-0.2-0.1-0.3-0.1c-0.2-0.1-0.5-0.1-0.5-0.1
			s0,0.1,0,0.1c0.1,0.2,0,0.4,0,0.6c0,0.2-0.1,0.3-0.1,0.4c-0.1,0.1-0.1,0.2-0.2,0.3c-0.1,0.1-0.2,0.2-0.3,0.3
			c-0.2,0.2-0.3,0.3-0.5,0.4c-0.2,0.2-0.4,0.3-0.6,0.4c-0.6,0.3-0.9,0.5-1.6,0.7c-0.9,0.4-1.5,0.6-2.4,0.8c0.2-0.3,0.4-0.6,0.6-1
			c0.1-0.2,0.2-0.3,0.2-0.6c0.1-0.3,0.1-0.5,0.1-0.8c0-0.4,0-0.7,0-1.1c-0.1-0.4-0.1-0.6-0.3-1c-0.1-0.2-0.1-0.3-0.2-0.5
			c-0.1-0.2-0.2-0.3-0.3-0.5c-0.1-0.2-0.2-0.3-0.4-0.4c-0.3-0.3-0.6-0.5-1-0.7c-0.2-0.1-0.3-0.1-0.4-0.2c-0.5-0.2-0.8-0.3-1.3-0.3
			c-0.3,0-0.4,0-0.6,0c-0.2,0-0.4,0-0.6,0.1c-0.2,0.1-0.3,0.1-0.5,0.2c-0.3,0.1-0.4,0.2-0.6,0.3c-0.1,0.1-0.2,0.1-0.3,0.2
			c-0.1,0.1-0.2,0.2-0.3,0.3c-0.1,0.2-0.2,0.4-0.2,0.6c0,0.1,0,0.2,0,0.3c0,0.3,0.1,0.4,0.2,0.6c0.1,0.2,0.2,0.4,0.4,0.5
			c0.1,0.1,0.2,0.2,0.3,0.2c0.1,0.1,0.2,0.1,0.3,0.1c0.2,0.1,0.3,0.1,0.5,0.1c0.1,0,0.2,0,0.4,0c0.2,0,0.3-0.1,0.4-0.1
			c0.1-0.1,0.2-0.1,0.3-0.2c0.1-0.1,0.2-0.2,0.2-0.3c0.1-0.1,0.1-0.2,0.1-0.3c0-0.1,0-0.2,0-0.3c0-0.1,0-0.2,0-0.3
			c0-0.1-0.1-0.2-0.1-0.3c-0.1-0.1-0.1-0.2-0.2-0.2c-0.1-0.1-0.3-0.2-0.5-0.3c0,0,0-0.1,0.1-0.1c0.1-0.1,0.2-0.1,0.3-0.1
			c0.2,0,0.4,0,0.6,0c0.4,0.1,0.6,0.2,0.9,0.4c0.2,0.1,0.3,0.2,0.5,0.4c0.2,0.2,0.3,0.3,0.5,0.5c0.1,0.1,0.2,0.2,0.2,0.4
			c0.1,0.2,0.1,0.3,0.2,0.5c0,0.2,0.1,0.3,0.1,0.5c0,0.3,0,0.5,0,0.8c0,0.2-0.1,0.3-0.1,0.5c-0.2,0.6-0.4,0.9-0.8,1.3
			c-0.1,0.1-0.2,0.2-0.4,0.3c-0.2,0.1-0.3,0.2-0.5,0.3c-0.3,0.1-0.4,0.2-0.7,0.2c-0.2,0-0.3,0-0.4,0c-0.3,0-0.5,0-0.7,0
			c-0.3,0-0.5-0.1-0.8-0.1c-0.3-0.1-0.4-0.2-0.7-0.3c-0.3-0.2-0.5-0.3-0.7-0.5c-0.2-0.2-0.3-0.4-0.4-0.7c-0.1-0.1-0.1-0.2-0.1-0.3
			c-0.1-0.3,0-0.5,0.1-0.8c-0.1,0-0.2,0-0.4,0.1c-0.1,0-0.2,0.1-0.3,0.1c-0.2,0.1-0.2,0.2-0.3,0.3c-0.1,0.1-0.2,0.2-0.3,0.4
			c-0.1,0.2-0.1,0.4-0.2,0.6c-0.2-0.1-0.5-0.2-0.7-0.4c-0.2-0.1-0.3-0.2-0.4-0.4c-0.1-0.2-0.2-0.3-0.3-0.4c-0.4-0.6-0.5-1.1-0.7-1.8
			c0-0.2,0-0.3-0.1-0.4c0-0.3,0-0.5,0-0.8c0-0.2,0.1-0.4,0.1-0.6c0.1-0.3,0.1-0.5,0.3-0.8c0.1-0.3,0.2-0.4,0.4-0.6
			c0.1-0.1,0.2-0.2,0.3-0.3c0.1-0.1,0.2-0.2,0.3-0.3c0.1-0.1,0.2-0.1,0.4-0.2c0.2-0.1,0.3-0.1,0.4-0.1c0.1,0,0.2,0,0.3,0
			c0.2,0,0.3,0,0.6,0.1c0.3,0.1,0.5,0.2,0.7,0.4c0,0,0,0,0.1-0.1c0.1-0.2,0.1-0.4,0.1-0.7c0-0.2,0-0.3,0-0.5c0-0.3-0.1-0.5-0.2-0.7
			c-0.1-0.1-0.1-0.2-0.2-0.3c-0.1-0.2-0.2-0.3-0.4-0.4c-0.1-0.1-0.2-0.2-0.3-0.2c-0.2-0.2-0.5-0.2-0.7-0.3c0,0,0-0.1,0.1-0.2
			c0.1-0.2,0.2-0.3,0.4-0.5c0.4-0.3,0.6-0.5,1-0.8c0.3-0.2,0.5-0.3,0.8-0.4c0.3-0.1,0.4-0.1,0.7-0.2c0.4-0.1,0.6-0.2,1-0.2
			c0.5-0.1,0.7-0.1,1.2,0c0.3,0,0.4,0,0.7,0.1c0.4,0.1,0.6,0.1,1,0.3c0.4,0.2,0.5,0.3,0.8,0.5c0.2,0.1,0.3,0.2,0.4,0.3
			c0.2,0.2,0.3,0.3,0.5,0.6c0.2,0.3,0.3,0.4,0.4,0.7c0.1,0.3,0.2,0.5,0.2,0.9c0,0.3,0,0.5,0,0.8c0,0.2,0,0.3-0.1,0.4
			c-0.1,0.2-0.1,0.4-0.2,0.6c0,0,0.3,0.1,0.6,0.1c0.2,0,0.3,0,0.4-0.1c0.2-0.1,0.3-0.1,0.5-0.2c0.2-0.1,0.3-0.2,0.5-0.4
			c0.3-0.2,0.4-0.4,0.6-0.7c0.1-0.2,0.1-0.3,0.2-0.4c0.1-0.3,0.2-0.5,0.3-0.7c0.2,0.2,0.3,0.3,0.4,0.5c0.1,0.2,0.2,0.3,0.3,0.5
			c0.2,0.3,0.2,0.5,0.3,0.9c0.1,0.4,0.1,0.7,0.2,1.1c0,0.3,0,0.4,0,0.7c0,0.6-0.1,1-0.1,1.4l0.1,0c0.2,0,0.4,0,0.5-0.1
			c0.2-0.1,0.3-0.2,0.4-0.3c0.2-0.1,0.3-0.2,0.4-0.4c0.2-0.2,0.2-0.3,0.4-0.5c0.1-0.2,0.1-0.3,0.2-0.4c0.2-0.4,0.3-0.8,0.4-1.1
			c0.2,0.2,0.4,0.4,0.6,0.6c0.2,0.2,0.3,0.3,0.5,0.5c0.4,0.3,0.6,0.5,1,0.6c0.1-0.2,0.2-0.3,0.2-0.5c0.1-0.3,0.1-0.6,0.2-0.9
			c0-0.2,0-0.4,0-0.6l0,0c0.1,0.1,0.2,0.1,0.2,0.1c0.3,0.2,0.5,0.4,0.8,0.5c0.1,0.1,0.2,0.1,0.4,0.2c0.2,0.1,0.3,0.1,0.5,0.2
			c0.6,0.2,1.1,0.2,1.7,0.2c4.1,0,8.2,0,12.2,0c-0.2,0.5-0.3,0.8-0.5,1.4c-0.1,0.3-0.1,0.5-0.2,0.9c0,0.3-0.1,0.5-0.1,0.8
			c0,0.5,0,0.7,0,1.2c0,0.4,0.1,0.6,0.2,1c0.1,0.6,0.2,0.9,0.4,1.4c0.1,0.2,0.1,0.4,0.2,0.6c0.1,0.3,0.2,0.4,0.3,0.6
			c0.1,0.2,0.2,0.3,0.3,0.5c0.1,0.2,0.2,0.3,0.4,0.4c0.2,0.2,0.3,0.2,0.4,0.4c0.2,0.1,0.3,0.2,0.5,0.3c0.3,0.2,0.5,0.2,0.8,0.3
			c0.2,0,0.3,0.1,0.5,0.1c0.3,0,0.4,0,0.6,0c0.2,0,0.4-0.1,0.6-0.1c0.2-0.1,0.2-0.1,0.4-0.2c0.2-0.1,0.3-0.2,0.5-0.3
			c0.1-0.1,0.2-0.2,0.3-0.3c0.1-0.1,0.1-0.2,0.2-0.3c0.1-0.1,0.1-0.2,0.1-0.4c0-0.2,0.1-0.3,0.1-0.5c0-0.3,0-0.4-0.1-0.7
			c-0.1-0.2-0.1-0.3-0.2-0.4c-0.1-0.2-0.2-0.3-0.3-0.5c-0.1-0.1-0.2-0.2-0.3-0.3c-0.1-0.1-0.2-0.1-0.4-0.2c-0.2-0.1-0.3-0.1-0.5-0.1
			c-0.3,0-0.4,0-0.7,0.1c-0.1,0.1-0.2,0.1-0.3,0.3l0,0.1c0.2,0.1,0.3,0.1,0.5,0.2c0.2,0.1,0.3,0.1,0.4,0.3c0.1,0.1,0.2,0.2,0.3,0.4
			c0,0.1,0.1,0.2,0.1,0.3c0,0.1,0,0.1,0,0.2c0,0.1,0,0.2,0,0.3c0,0.1-0.1,0.2-0.1,0.3c-0.1,0.1-0.1,0.1-0.2,0.2
			c-0.1,0.1-0.1,0.1-0.3,0.2c-0.2,0.1-0.3,0.1-0.5,0.1c-0.1,0-0.2,0-0.4,0c-0.2,0-0.3-0.1-0.4-0.1c-0.2-0.1-0.3-0.1-0.5-0.3
			c-0.3-0.2-0.4-0.5-0.6-0.8c-0.1-0.2-0.2-0.3-0.3-0.5c-0.2-0.3-0.2-0.5-0.4-0.8c-0.1-0.3-0.1-0.4-0.2-0.7c-0.1-0.3-0.1-0.8-0.1-0.8
			c0,0-0.1-0.7-0.1-1.2c0-0.6,0-1,0.2-1.6c0.1-0.3,0.1-0.5,0.2-0.8c0.1-0.3,0.2-0.5,0.3-0.7c0.2-0.4,0.4-0.7,0.7-1
			c0.3-0.3,0.5-0.5,0.8-0.7c0,0,0,0-0.1,0c-2.5,0-5,0-7.4,0c-0.2-0.2-0.2-0.3-0.4-0.5c-0.1-0.2-0.1-0.3-0.2-0.5
			c-0.1-0.3-0.1-0.6-0.1-0.9c0-0.4,0-0.6,0.1-1c0-0.2,0.1-0.3,0.1-0.5c0.1-0.3,0.2-0.4,0.3-0.6c0.1-0.2,0.2-0.2,0.3-0.4
			c0.2-0.1,0.3-0.2,0.4-0.2c0.1-0.1,0.2-0.1,0.4-0.1c0.1,0,0.2,0,0.3,0c0.1,0,0.2,0,0.3,0.1c0.1,0,0.1,0.1,0.2,0.2
			c0.1,0.1,0.2,0.2,0.2,0.3c0.1,0.2,0,0.3,0,0.5c0,0.1-0.1,0.2-0.2,0.3c-0.1,0.1-0.2,0.1-0.4,0.2c-0.2,0-0.3-0.1-0.5-0.2
			c0,0-0.2-0.1-0.2-0.1c0,0.2,0.1,0.3,0.2,0.5c0.1,0.2,0.2,0.3,0.3,0.4c0.1,0.1,0.2,0.1,0.3,0.1c0.2,0.1,0.3,0.1,0.4,0.1
			c0.3,0,0.4,0,0.6-0.1c0.2-0.1,0.3-0.2,0.5-0.4c0.1-0.1,0.2-0.2,0.2-0.3c0.1-0.2,0.1-0.4,0.1-0.5c0-0.2,0-0.4,0-0.6
			c-0.1-0.3-0.1-0.4-0.3-0.7c-0.1-0.1-0.2-0.2-0.3-0.3c-0.1-0.1-0.2-0.2-0.3-0.3c-0.2-0.1-0.3-0.2-0.5-0.3c-0.2-0.1-0.3-0.1-0.6-0.1
			c-0.3,0-0.5,0-0.8,0.1c-0.2,0.1-0.3,0.1-0.5,0.2c-0.3,0.1-0.5,0.3-0.7,0.5c0.1-0.5,0.1-1,0.1-1.6c0-0.5,0-0.9-0.1-1.4
			c-0.1-0.3-0.1-0.5-0.2-0.8c-0.1-0.2-0.1-0.4-0.3-0.5c-0.1-0.1-0.2-0.2-0.3-0.2c-0.2,0.2-0.3,0.3-0.4,0.6c-0.2,0.3-0.2,0.6-0.3,0.9
			c-0.1,0.3-0.1,0.5-0.1,0.8c0,0.3,0,0.4,0,0.7c0,0.6,0.1,1,0.2,1.5c-0.1,0-0.2-0.1-0.3-0.2c-0.2-0.1-0.3-0.2-0.5-0.3
			c-0.1-0.1-0.2-0.1-0.4-0.1c-0.3-0.1-0.5-0.1-0.8-0.1c-0.1,0-0.2,0-0.3,0c-0.3,0.1-0.4,0.1-0.7,0.3c-0.1,0.1-0.2,0.1-0.3,0.3
			c-0.2,0.2-0.3,0.4-0.5,0.7c-0.1,0.2-0.1,0.3-0.1,0.4c0,0.3,0,0.5,0.1,0.9c0.1,0.3,0.2,0.5,0.4,0.7c0.1,0.1,0.1,0.1,0.3,0.2
			c0.1,0.1,0.2,0.1,0.3,0.1c0.2,0.1,0.3,0.1,0.5,0.1c0.2,0,0.3,0,0.4-0.1c0.2-0.1,0.2-0.1,0.4-0.2c0.1-0.1,0.1-0.1,0.2-0.2
			c0.1-0.1,0.1-0.2,0.1-0.3c0-0.2,0-0.3,0-0.5c0,0,0,0-0.1,0c0,0-0.1,0.1-0.1,0.2c-0.1,0.1-0.1,0.1-0.2,0.1c-0.2,0.1-0.3,0-0.5,0
			c-0.1,0-0.1-0.1-0.2-0.1c-0.1-0.1-0.1-0.1-0.2-0.2c-0.1-0.1-0.1-0.2-0.1-0.4c0-0.2,0.1-0.3,0.2-0.4c0.1-0.2,0.3-0.2,0.5-0.2
			c0.1,0,0.2,0,0.4,0c0.2,0,0.4,0.1,0.6,0.2c0.1,0.1,0.2,0.1,0.3,0.3c0.1,0.1,0.2,0.2,0.2,0.3c0.1,0.1,0.1,0.2,0.2,0.4
			c0.1,0.3,0.2,0.6,0.2,0.9c0,0.3,0,0.4,0,0.7c0,0.2,0,0.4-0.1,0.6c0,0.2-0.1,0.3-0.1,0.5c-0.1,0.3-0.2,0.5-0.4,0.7
			c-1.9,0-3.2,0-5.3,0c0,0,0.2-0.2,0.4-0.3c0.1-0.1,0.2-0.2,0.3-0.3c0.1-0.1,0.2-0.2,0.2-0.3c0.1-0.2,0.2-0.3,0.2-0.6
			c0-0.1,0-0.1,0-0.1c0,0-0.1,0.1-0.2,0.1c-0.1,0-0.1,0-0.2,0.1c-0.2,0.1-0.3,0.1-0.6,0.2c-0.4,0.1-0.7,0.1-1.1,0
			c-0.2,0-0.3,0-0.5-0.1c-0.3-0.1-0.5-0.2-0.8-0.3c-0.4-0.2-0.6-0.3-0.9-0.6c-1.2-0.8-1.6-1.5-2.7-2.3c-0.6-0.5-0.9-0.7-1.6-1.1
			c-0.3-0.2-0.5-0.3-0.9-0.5c-0.7-0.3-1.2-0.5-1.8-0.6c0.1-0.1,0.2-0.1,0.3-0.2c0.1-0.1,0.1-0.1,0.2-0.3c0.1-0.1,0.1-0.2,0.2-0.4
			c0.1-0.1,0.1-0.2,0.1-0.4c0-0.1,0-0.2,0-0.3c0-0.1,0-0.2-0.1-0.3c-0.1-0.2-0.1-0.3-0.3-0.5c-0.1-0.1-0.1-0.1-0.1-0.1h-0.1
			c0,0-0.1,0.3-0.2,0.4c-0.1,0.2-0.2,0.3-0.4,0.4c-0.3,0.2-0.5,0.3-0.8,0.4c-0.2,0.1-0.3,0.1-0.5,0.1c-0.6,0.1-0.9,0.1-1.5,0.1
			c-0.8,0-1.3,0-2.1,0c-0.5,0-0.8,0-1.3,0.1c-0.7,0.1-1.2,0.2-1.8,0.4c0.1-0.3,0.2-0.6,0.2-0.9c0-0.3,0-0.5,0-0.8
			c0-0.2-0.1-0.3-0.1-0.4c-0.1-0.3-0.2-0.5-0.4-0.8c-0.2-0.2-0.2-0.4-0.5-0.5c-0.3-0.3-0.5-0.4-0.9-0.5c-0.2-0.1-0.4-0.1-0.6-0.1
			c-0.5-0.1-0.8,0-1.2,0.2c-0.3,0.1-0.4,0.2-0.6,0.4c-0.2,0.2-0.3,0.3-0.3,0.6c-0.1,0.1-0.1,0.2-0.1,0.4c0,0.2,0,0.3,0,0.4
			c0,0.3,0.1,0.4,0.3,0.6c0.1,0.1,0.1,0.1,0.2,0.2c0.1,0.1,0.1,0.1,0.2,0.1c0.1,0.1,0.2,0.1,0.3,0.1c0.1,0,0.2,0,0.4,0
			c0.1,0,0.2,0,0.3-0.1c0.1,0,0.2-0.1,0.2-0.1c0.1-0.1,0.2-0.2,0.3-0.3c0.1-0.1,0.1-0.2,0.1-0.3c0.1-0.2,0.1-0.3,0.1-0.5
			c0-0.2-0.1-0.3-0.1-0.5h0.1c0,0,0.3,0.2,0.4,0.3c0.1,0.1,0.1,0.1,0.2,0.2c0.1,0.2,0.1,0.3,0.2,0.4c0.1,0.2,0.1,0.4,0.1,0.6
			c0,0.1,0,0.2,0,0.3c0,0.1,0,0.2-0.1,0.4c-0.1,0.2-0.1,0.3-0.2,0.4c-0.1,0.2-0.2,0.3-0.3,0.5c-0.1,0.1-0.2,0.2-0.3,0.3
			c-0.2,0.1-0.3,0.2-0.4,0.3c-0.2,0.1-0.4,0.2-0.6,0.3c-0.2,0.1-0.3,0.1-0.6,0.2c-0.4,0.1-0.6,0.1-1,0.2c-0.6,0-0.9,0-1.5-0.1
			c-0.4-0.1-0.7-0.2-1-0.4v0c0,0,0.2-0.1,0.3-0.2c0.1-0.1,0.2-0.1,0.2-0.3c0.1-0.2,0.2-0.3,0.2-0.5c0-0.2,0-0.3,0-0.5
			c0-0.2-0.1-0.4-0.3-0.5c-0.1-0.1-0.2-0.2-0.2-0.2c-0.1,0.1-0.1,0.2-0.2,0.4c-0.1,0.1-0.2,0.2-0.3,0.3c-0.1,0.1-0.2,0.2-0.3,0.2
			c-0.1,0.1-0.2,0.1-0.4,0.2c-0.2,0.1-0.3,0.1-0.5,0.1c-0.2,0-0.3,0-0.5,0c-0.3,0-0.4,0-0.6-0.1c-0.2,0-0.3-0.1-0.6-0.2
			c-0.2-0.1-0.2-0.1-0.4-0.2c-0.2-0.1-0.3-0.2-0.5-0.3c-0.2-0.2-0.3-0.3-0.4-0.5c-0.1-0.1-0.1-0.2-0.2-0.4c-0.1-0.2-0.1-0.2-0.1-0.4
			c0-0.1,0-0.2,0-0.3c0.1,0,0.4,0.2,0.7,0.2c0.5,0,1.3-0.3,1.3-1.2c0-1-1-1.3-1.7-1.3c-0.7,0-1.1,0.3-1.1,0.3
			c-0.1,0.1-0.2,0.2-0.4,0.4c0,0-0.1,0-0.1-0.1c0-0.1,0-0.1,0-0.1c0.3-0.8,0.7-1.7,1-2.5l0.3-1c0.5-2.3,0.7-4.7,0.4-7c0,0,0,0-0.1,0
			c-0.4,0.5-0.9,0.8-1.6,1.2c-1.3,0.8-2.3,0.9-3.8,1c-0.1,0-0.2,0-0.3,0c-0.4,0-0.6,0-0.9-0.1c-0.3-0.1-0.5-0.2-0.7-0.3
			c-0.4-0.2-0.6-0.3-0.9-0.6c-0.6-0.6-0.8-1.6-0.5-2.1c0.2-0.5,0.5-0.8,1.1-0.8c0.5,0,0.9,0.2,1.1,0.6c0.2,0.3,0.1,0.6,0,0.9
			c0,0.1-0.2,0.2-0.1,0.3c0.4,0,0.7-0.2,1-0.5c0.4-0.5,0.4-1.1,0.1-1.7c-0.2-0.5-0.4-0.7-0.9-0.9c-0.8-0.4-1.5-0.1-2.1,0.3
			c0,0,0,0,0,0c0.1-0.3,0.1-0.6,0.1-1c0-0.3,0-0.5-0.1-0.8c-0.1-0.6-0.1-0.9-0.4-1.4c-0.1-0.3-0.2-0.5-0.4-0.6
			C97,4,96.9,4.2,96.8,4.5c-0.2,0.5-0.3,0.8-0.4,1.3c-0.1,0.3-0.1,0.6,0,0.9c0,0.4,0.1,0.6,0.1,0.9c-0.1-0.1-0.2-0.1-0.4-0.2
			c-0.2-0.1-0.3-0.1-0.5-0.2c-0.2,0-0.3,0-0.5,0c-0.3,0-0.4,0-0.7,0.1c-0.1,0-0.2,0.1-0.3,0.2c-0.1,0.1-0.2,0.1-0.3,0.2
			c-0.1,0.1-0.2,0.2-0.3,0.3c-0.2,0.2-0.2,0.3-0.3,0.6C93,8.7,93,8.8,92.9,9c0,0.2,0,0.2,0,0.4c0,0.2,0,0.3,0.1,0.4
			c0.1,0.2,0.1,0.3,0.2,0.4c0.1,0.1,0.1,0.2,0.3,0.3c0.1,0.1,0.2,0.1,0.3,0.2c0.2,0.1,0.1,0.1,0.4,0.1c0,0,0.1-0.1,0.1-0.1
			c0-0.1-0.1-0.1-0.1-0.2c0-0.1-0.1-0.1-0.1-0.2c0-0.1,0-0.2,0-0.3c0-0.1,0-0.2,0.1-0.4c0.1-0.2,0.2-0.4,0.4-0.5
			c0.1-0.1,0.2-0.1,0.3-0.1c0.1,0,0.2,0,0.3,0c0.1,0,0.1,0,0.2,0c0.2,0,0.3,0.1,0.5,0.2c0.2,0.2,0.3,0.3,0.4,0.6
			c0.1,0.1,0.1,0.2,0.1,0.4c0,0.2,0,0.3,0,0.5c0,0.3-0.1,0.4-0.2,0.6c-0.1,0.3-0.2,0.4-0.4,0.6c-0.1,0.1-0.2,0.2-0.3,0.3
			c-0.2,0.2-0.4,0.3-0.7,0.4c-0.3,0.1-0.5,0.2-0.8,0.2c-0.4,0.1-0.6,0.1-1,0.1c-0.7,0-1.2,0-1.9-0.2c-0.2-0.1-0.3-0.1-0.5-0.2
			c-0.5-0.2-0.9-0.3-1.4-0.6c-0.3-0.1-0.4-0.2-0.7-0.4c-0.2-0.1-0.3-0.2-0.5-0.4c-0.2-0.2-0.5-0.5-0.5-0.5h0c0,0,0,0,0,0.1
			c-0.1,0.5-0.1,0.9-0.2,1.6c-0.1,0.8,0,1.3,0,2.1c0,0.5,0,0.8,0.1,1.3c0.1,0.7,0.2,1.1,0.3,1.8c0.2,0.8,0.4,1.3,0.6,2.1
			c0.2,0.6,0.3,1,0.6,1.6c0,0-0.1,0-0.1,0.1c-0.2-0.2-0.3-0.3-0.4-0.4c0,0-0.5-0.3-1.1-0.3c-0.7,0-1.6,0.3-1.6,1.3
			c0,0.9,0.8,1.2,1.3,1.2c0.4,0,0.7-0.2,0.7-0.2c0.1,0.1,0,0.2,0,0.3c0,0.2,0,0.3-0.1,0.4c-0.1,0.2-0.1,0.3-0.2,0.4
			c-0.1,0.2-0.2,0.4-0.4,0.5c-0.2,0.2-0.3,0.2-0.5,0.3c-0.1,0.1-0.2,0.1-0.4,0.2c-0.2,0.1-0.3,0.1-0.6,0.2c-0.2,0.1-0.4,0.1-0.6,0.1
			c-0.2,0-0.3,0-0.5,0c-0.2,0-0.3,0-0.5-0.1c-0.2-0.1-0.2-0.1-0.4-0.2c-0.1-0.1-0.2-0.1-0.3-0.2c-0.1-0.1-0.2-0.2-0.3-0.3
			c-0.1-0.1-0.1-0.2-0.2-0.4c0,0-0.1,0.1-0.2,0.2c-0.1,0.2-0.2,0.3-0.3,0.5c0,0.2,0,0.3,0,0.5c0,0.2,0.1,0.3,0.2,0.5
			c0.1,0.1,0.1,0.2,0.2,0.3c0.1,0.1,0.3,0.2,0.3,0.2v0c-0.3,0.2-0.6,0.3-1,0.4c-0.6,0.2-0.9,0.2-1.5,0.1c-0.4,0-0.6-0.1-1-0.2
			c-0.2-0.1-0.4-0.1-0.6-0.2c-0.2-0.1-0.4-0.2-0.6-0.3c-0.2-0.1-0.3-0.2-0.4-0.3c-0.1-0.1-0.2-0.2-0.3-0.3c-0.1-0.2-0.2-0.3-0.3-0.5
			c-0.1-0.2-0.1-0.2-0.2-0.4c0-0.1-0.1-0.2-0.1-0.4c0-0.1,0-0.2,0-0.3c0-0.3,0-0.4,0.1-0.6c0.1-0.2,0.1-0.3,0.2-0.4
			c0.1-0.1,0.1-0.1,0.2-0.2c0.1-0.1,0.4-0.3,0.4-0.3h0.1c-0.1,0.2-0.1,0.3-0.1,0.5c0,0.2,0,0.3,0.1,0.5c0,0.1,0.1,0.2,0.1,0.3
			c0.1,0.1,0.2,0.2,0.3,0.3c0.1,0.1,0.1,0.1,0.2,0.1c0.1,0.1,0.2,0.1,0.3,0.1c0.1,0,0.2,0,0.4,0c0.1,0,0.2,0,0.3-0.1
			c0.1,0,0.2-0.1,0.2-0.1c0.1-0.1,0.1-0.1,0.2-0.2c0.2-0.2,0.3-0.4,0.3-0.6c0-0.2,0-0.3,0-0.4c0-0.2,0-0.2-0.1-0.4
			c-0.1-0.2-0.2-0.4-0.3-0.6c-0.2-0.2-0.4-0.3-0.6-0.4c-0.4-0.2-0.7-0.2-1.2-0.2c-0.2,0-0.4,0.1-0.6,0.1c-0.4,0.1-0.6,0.2-0.9,0.5
			c-0.2,0.2-0.3,0.3-0.5,0.5c-0.2,0.3-0.3,0.5-0.4,0.8c0,0.2-0.1,0.2-0.1,0.4c0,0.3,0,0.5,0,0.8c0,0.4,0.1,0.6,0.2,0.9
			c-0.6-0.2-1.1-0.3-1.8-0.4c-0.5-0.1-0.8-0.1-1.3-0.1c-0.8,0-1.3,0-2.1,0c-0.6,0-0.9,0-1.5-0.1c-0.2,0-0.3,0-0.5-0.1
			c-0.3-0.1-0.5-0.2-0.8-0.4c-0.2-0.1-0.2-0.2-0.4-0.4c-0.1-0.2-0.2-0.4-0.2-0.4h-0.1c0,0.1-0.1,0.1-0.1,0.1
			c-0.1,0.2-0.2,0.3-0.3,0.5c0,0.1-0.1,0.2-0.1,0.3c0,0.1,0,0.2,0,0.3c0,0.1,0,0.2,0.1,0.4c0.1,0.2,0.1,0.2,0.2,0.4
			c0.1,0.1,0.1,0.2,0.2,0.3c0.1,0.1,0.2,0.1,0.3,0.2c-0.6,0.2-1.1,0.4-1.8,0.6c-0.4,0.2-0.6,0.3-0.9,0.5c-0.7,0.4-1,0.6-1.6,1.1
			c-1.1,0.8-1.6,1.5-2.7,2.3c-0.3,0.2-0.5,0.4-0.9,0.6c-0.3,0.1-0.5,0.2-0.8,0.3c-0.2,0-0.3,0.1-0.5,0.1c-0.4,0.1-0.7,0.1-1.1,0
			c-0.2-0.1-0.3-0.1-0.6-0.2c-0.1,0-0.1,0-0.2-0.1c-0.1,0-0.2-0.1-0.2-0.1s0,0.1,0,0.1c0,0.3,0.1,0.4,0.2,0.6
			c0.1,0.1,0.1,0.2,0.2,0.3c0.1,0.1,0.2,0.2,0.3,0.3c0.1,0.1,0.4,0.3,0.4,0.3c-2.1,0-3.4,0-5.3,0c-0.2-0.2-0.3-0.4-0.4-0.7
			c-0.1-0.2-0.1-0.3-0.1-0.5c0-0.2-0.1-0.4-0.1-0.6c0-0.3,0-0.4,0-0.7c0-0.4,0.1-0.6,0.2-0.9c0.1-0.2,0.1-0.2,0.2-0.4
			c0.1-0.1,0.1-0.2,0.2-0.3c0.1-0.1,0.2-0.2,0.3-0.3c0.2-0.1,0.3-0.2,0.6-0.2c0.1,0,0.2,0,0.4,0c0.2,0,0.4,0.1,0.5,0.2
			c0.1,0.1,0.2,0.2,0.2,0.4c0,0.2,0,0.3-0.1,0.4c0,0.1-0.1,0.2-0.2,0.2c-0.1,0.1-0.1,0.1-0.2,0.1c-0.2,0.1-0.3,0.1-0.5,0
			c-0.1,0-0.1,0-0.2-0.1c-0.1-0.1-0.1-0.2-0.1-0.2c0,0-0.1,0-0.1,0c0,0.2,0,0.3,0,0.5c0,0.1,0.1,0.2,0.1,0.3
			c0.1,0.1,0.1,0.1,0.2,0.2c0.1,0.1,0.2,0.1,0.4,0.2c0.2,0,0.2,0.1,0.4,0.1c0.2,0,0.3-0.1,0.5-0.1c0.1,0,0.2-0.1,0.3-0.1
			c0.1-0.1,0.2-0.1,0.3-0.2c0.2-0.2,0.3-0.4,0.4-0.7c0.1-0.3,0.1-0.5,0.1-0.9c0-0.2-0.1-0.3-0.1-0.4c-0.1-0.3-0.2-0.4-0.5-0.7
			c-0.1-0.1-0.2-0.2-0.3-0.3c-0.2-0.2-0.4-0.2-0.7-0.3c-0.1,0-0.2,0-0.3,0c-0.3,0-0.5,0-0.8,0.1c-0.2,0-0.2,0.1-0.4,0.1
			c-0.2,0.1-0.3,0.2-0.5,0.3c-0.1,0.1-0.2,0.2-0.3,0.2c0.1-0.5,0.2-0.9,0.2-1.5c0-0.3,0-0.4,0-0.7c0-0.3,0-0.5-0.1-0.8
			c-0.1-0.4-0.1-0.6-0.3-0.9c-0.1-0.2-0.2-0.4-0.4-0.6c0,0-0.2,0.1-0.3,0.2c-0.2,0.2-0.2,0.3-0.3,0.5c-0.1,0.3-0.2,0.5-0.2,0.8
			c-0.1,0.5-0.1,0.8-0.1,1.4c0,0.6,0,1,0.1,1.6c-0.2-0.2-0.4-0.3-0.7-0.5c-0.2-0.1-0.3-0.1-0.5-0.2c-0.3-0.1-0.5-0.1-0.8-0.1
			c-0.2,0-0.4,0.1-0.6,0.1c-0.2,0.1-0.3,0.1-0.5,0.3c-0.1,0.1-0.2,0.2-0.3,0.3c-0.1,0.1-0.2,0.2-0.3,0.3c-0.2,0.2-0.2,0.4-0.3,0.7
			c-0.1,0.2,0,0.4,0,0.6c0,0.2,0,0.3,0.1,0.5c0.1,0.1,0.1,0.2,0.2,0.3c0.1,0.2,0.3,0.3,0.5,0.4c0.2,0.1,0.4,0.1,0.6,0.1
			c0.2,0,0.3,0,0.4-0.1c0.1,0,0.2-0.1,0.3-0.1c0.2-0.1,0.2-0.2,0.3-0.4c0.1-0.2,0.2-0.3,0.2-0.5c0-0.1-0.2,0-0.2,0.1
			c-0.2,0.1-0.3,0.2-0.5,0.2c-0.2,0-0.2-0.1-0.4-0.2c-0.1-0.1-0.1-0.2-0.2-0.3c-0.1-0.2-0.1-0.3,0-0.5c0-0.2,0.1-0.2,0.2-0.3
			c0.1-0.1,0.1-0.1,0.2-0.2c0.1-0.1,0.2-0.1,0.3-0.1c0.1,0,0.2,0,0.3,0c0.1,0,0.2,0,0.4,0.1c0.2,0.1,0.3,0.1,0.4,0.2
			c0.1,0.1,0.2,0.2,0.3,0.4c0.2,0.2,0.2,0.4,0.3,0.6c0.1,0.2,0.1,0.3,0.1,0.5c0.1,0.4,0.1,0.6,0.1,1c0,0.4,0,0.6-0.1,0.9
			c-0.1,0.2-0.1,0.3-0.2,0.5c-0.1,0.2-0.2,0.4-0.4,0.5c-2.5,0-5,0-7.4,0c0,0,0,0-0.1,0c0.3,0.2,0.5,0.4,0.8,0.7
			c0.3,0.4,0.5,0.6,0.7,1c0.1,0.3,0.2,0.4,0.3,0.7c0.1,0.3,0.2,0.5,0.2,0.8c0.1,0.6,0.2,1,0.2,1.6c0,0.5-0.1,1.2-0.1,1.2
			c0,0-0.1,0.5-0.1,0.8c-0.1,0.3-0.1,0.4-0.2,0.7c-0.1,0.3-0.2,0.5-0.4,0.8c-0.1,0.2-0.1,0.3-0.3,0.5c-0.2,0.3-0.3,0.5-0.6,0.8
			c-0.2,0.1-0.3,0.2-0.5,0.3c-0.2,0.1-0.3,0.1-0.4,0.1c-0.1,0-0.2,0-0.4,0c-0.2,0-0.3,0-0.5-0.1c-0.1-0.1-0.2-0.1-0.3-0.2
			c-0.1-0.1-0.1-0.1-0.2-0.2c-0.1-0.1-0.1-0.2-0.1-0.3c0-0.1,0-0.2,0-0.3c0-0.1,0-0.2,0-0.2c0-0.1,0-0.2,0.1-0.3
			c0.1-0.2,0.1-0.3,0.3-0.4c0.1-0.1,0.2-0.2,0.4-0.3c0.2-0.1,0.3-0.1,0.5-0.2l0-0.1c-0.1-0.1-0.2-0.2-0.3-0.3
			c-0.2-0.1-0.4-0.1-0.7-0.1c-0.2,0-0.3,0-0.5,0.1c-0.1,0.1-0.2,0.1-0.4,0.2c-0.1,0.1-0.2,0.1-0.3,0.3c-0.2,0.2-0.2,0.3-0.3,0.5
			c-0.1,0.2-0.1,0.3-0.2,0.4c-0.1,0.3-0.1,0.4-0.1,0.7c0,0.2,0,0.3,0.1,0.5c0,0.2,0.1,0.3,0.1,0.4c0.1,0.1,0.1,0.2,0.2,0.3
			c0.1,0.1,0.2,0.2,0.3,0.3c0.2,0.1,0.3,0.2,0.5,0.3c0.1,0.1,0.2,0.1,0.4,0.2c0.2,0.1,0.3,0.1,0.6,0.1c0.3,0,0.4,0,0.7,0
			c0.2,0,0.3,0,0.5-0.1c0.3-0.1,0.5-0.2,0.8-0.3c0.2-0.1,0.3-0.2,0.5-0.3c0.2-0.1,0.3-0.2,0.4-0.4c0.2-0.2,0.2-0.3,0.4-0.4
			c0.1-0.2,0.2-0.3,0.3-0.5c0.1-0.2,0.2-0.4,0.3-0.6c0.1-0.2,0.2-0.4,0.2-0.6c0.2-0.5,0.3-0.9,0.4-1.4c0.1-0.4,0.1-0.6,0.2-1
			c0-0.5,0-0.7,0-1.2c0-0.3,0-0.5-0.1-0.8c0-0.4-0.1-0.6-0.2-0.9c-0.1-0.5-0.2-0.8-0.5-1.4c4,0,8.1,0,12.2,0c0.6,0,1,0,1.7-0.2
			c0.2-0.1,0.3-0.1,0.5-0.2c0.1-0.1,0.2-0.1,0.4-0.2c0.3-0.2,0.5-0.3,0.8-0.5c0,0,0,0,0.2-0.1l0,0c0,0.2,0,0.4,0,0.6
			c0,0.4,0.1,0.6,0.2,0.9c0.1,0.2,0.1,0.4,0.2,0.5c0.4-0.2,0.6-0.3,1-0.6c0.2-0.2,0.3-0.3,0.5-0.5c0.2-0.2,0.4-0.4,0.6-0.6
			c0.1,0.4,0.2,0.7,0.4,1.1c0.1,0.2,0.1,0.3,0.2,0.4c0.1,0.2,0.2,0.3,0.4,0.5c0.1,0.2,0.2,0.3,0.4,0.4c0.1,0.1,0.2,0.2,0.4,0.3
			c0.2,0.1,0.4,0.1,0.5,0.1l0.1,0c0-0.5-0.1-0.9-0.1-1.4c0-0.3,0-0.4,0-0.7c0-0.4,0.1-0.7,0.2-1.1c0.1-0.4,0.2-0.6,0.3-0.9
			c0.1-0.2,0.1-0.3,0.3-0.5c0.1-0.2,0.2-0.4,0.4-0.5c0.1,0.2,0.1,0.4,0.3,0.7c0.1,0.2,0.1,0.3,0.2,0.4c0.2,0.3,0.3,0.5,0.6,0.7
			c0.2,0.2,0.3,0.3,0.5,0.4c0.2,0.1,0.3,0.2,0.5,0.2c0.2,0.1,0.3,0.1,0.4,0.1c0.2,0,0.6-0.1,0.6-0.1c-0.1-0.2-0.1-0.4-0.2-0.6
			c0-0.2-0.1-0.3-0.1-0.4c0-0.3,0-0.5,0-0.8c0-0.3,0.1-0.5,0.2-0.9c0.1-0.3,0.2-0.5,0.4-0.7c0.2-0.2,0.3-0.4,0.5-0.6
			c0.2-0.1,0.2-0.2,0.4-0.3c0.3-0.2,0.5-0.3,0.8-0.5c0.4-0.2,0.6-0.2,1-0.3c0.3-0.1,0.4-0.1,0.7-0.1c0.5,0,0.7,0,1.2,0
			c0.4,0.1,0.6,0.1,1,0.2c0.3,0.1,0.4,0.1,0.7,0.2c0.3,0.1,0.5,0.2,0.8,0.4c0.4,0.2,0.7,0.4,1,0.8c0.2,0.2,0.3,0.3,0.4,0.5
			c0,0.1,0.1,0.1,0.1,0.2c-0.2,0.1-0.4,0.2-0.7,0.3c-0.1,0.1-0.2,0.1-0.3,0.2c-0.2,0.1-0.2,0.2-0.3,0.4c-0.1,0.1-0.1,0.2-0.2,0.3
			c-0.1,0.3-0.2,0.4-0.2,0.7c0,0.2,0,0.3,0,0.5c0,0.3,0,0.5,0.1,0.7c0,0,0,0.1,0.1,0.1c0.2-0.2,0.4-0.3,0.7-0.4
			c0.2-0.1,0.3-0.1,0.6-0.1c0.1,0,0.2,0,0.3,0c0.2,0,0.3,0,0.4,0.1c0.2,0.1,0.2,0.1,0.4,0.2c0.1,0.1,0.2,0.2,0.3,0.3
			c0.1,0.1,0.2,0.2,0.3,0.3c0.2,0.2,0.3,0.4,0.4,0.6c0.2,0.3,0.2,0.5,0.3,0.8c0.1,0.2,0.1,0.4,0.1,0.6c0,0.3,0,0.5,0,0.8
			c0,0.2,0,0.3-0.1,0.4c-0.1,0.7-0.3,1.2-0.7,1.8c-0.1,0.2-0.2,0.3-0.3,0.4c-0.1,0.2-0.2,0.3-0.4,0.4c-0.3,0.2-0.5,0.3-0.7,0.4
			c-0.1-0.2-0.1-0.4-0.2-0.6c-0.1-0.2-0.2-0.3-0.3-0.4c-0.1-0.1-0.2-0.2-0.3-0.3c-0.1-0.1-0.2-0.1-0.3-0.1C77.9,39,77.8,39,77.7,39
			c0.1,0.3,0.1,0.5,0.1,0.8c0,0.1-0.1,0.2-0.1,0.3c-0.1,0.3-0.2,0.4-0.4,0.7c-0.2,0.2-0.4,0.3-0.7,0.5c-0.3,0.1-0.4,0.2-0.7,0.3
			c-0.3,0.1-0.5,0.1-0.8,0.1c-0.3,0-0.5,0-0.7,0c-0.2,0-0.3,0-0.4,0c-0.3-0.1-0.5-0.1-0.7-0.2c-0.2-0.1-0.3-0.2-0.5-0.3
			c-0.2-0.1-0.2-0.2-0.4-0.3c-0.4-0.4-0.6-0.7-0.8-1.3c-0.1-0.2-0.1-0.3-0.1-0.5c0-0.3-0.1-0.5,0-0.8c0-0.2,0-0.3,0.1-0.5
			c0.1-0.2,0.1-0.3,0.2-0.5c0.1-0.2,0.1-0.2,0.2-0.4c0.2-0.2,0.3-0.3,0.5-0.5c0.2-0.2,0.3-0.2,0.5-0.4c0.3-0.2,0.6-0.3,0.9-0.4
			c0.2,0,0.4,0,0.6,0c0.1,0,0.2,0,0.3,0.1c0,0,0.1,0,0.1,0.1c-0.2,0.1-0.3,0.1-0.5,0.3c-0.1,0.1-0.1,0.1-0.2,0.2
			c-0.1,0.1-0.1,0.2-0.1,0.3c0,0.1,0,0.2,0,0.3c0,0.1,0,0.2,0,0.3c0,0.1,0.1,0.2,0.1,0.3c0.1,0.1,0.1,0.2,0.2,0.3
			c0.1,0.1,0.2,0.1,0.3,0.2c0.2,0.1,0.2,0.1,0.4,0.1c0.1,0,0.2,0,0.4,0c0.2,0,0.3,0,0.5-0.1c0.1,0,0.2-0.1,0.3-0.1
			c0.1-0.1,0.2-0.1,0.3-0.2c0.2-0.2,0.3-0.3,0.4-0.5c0.1-0.2,0.2-0.4,0.2-0.6c0-0.1,0-0.2,0-0.3c0-0.3-0.1-0.4-0.2-0.6
			c-0.1-0.1-0.1-0.2-0.3-0.3c-0.1-0.1-0.2-0.2-0.3-0.2c-0.2-0.2-0.4-0.2-0.6-0.3c-0.2-0.1-0.3-0.1-0.5-0.2c-0.2-0.1-0.4-0.1-0.6-0.1
			c-0.3,0-0.4,0-0.6,0c-0.5,0-0.8,0.1-1.3,0.3c-0.2,0.1-0.3,0.1-0.4,0.2c-0.4,0.2-0.7,0.4-1,0.7c-0.2,0.1-0.2,0.2-0.4,0.4
			c-0.1,0.2-0.2,0.3-0.3,0.5c-0.1,0.2-0.2,0.3-0.2,0.5c-0.2,0.4-0.2,0.6-0.3,1c-0.1,0.4-0.1,0.7,0,1.1c0,0.3,0.1,0.5,0.1,0.8
			c0.1,0.2,0.1,0.4,0.2,0.6c0.2,0.4,0.4,0.6,0.6,1c-0.8-0.2-1.5-0.4-2.4-0.8c-0.6-0.3-1-0.4-1.6-0.7c-0.2-0.1-0.4-0.2-0.6-0.4
			c-0.2-0.1-0.3-0.2-0.5-0.4c-0.1-0.1-0.2-0.2-0.3-0.3c-0.1-0.1-0.1-0.2-0.2-0.3c-0.1-0.2-0.1-0.3-0.1-0.4c0-0.2-0.1-0.4,0-0.6
			c0-0.1,0-0.1,0-0.1s-0.3,0-0.5,0.1c-0.1,0-0.2,0.1-0.3,0.1c-0.1,0.1-0.2,0.1-0.3,0.2c-0.1,0.2-0.2,0.3-0.2,0.5c0,0.1,0,0.2,0,0.3
			c0,0.2,0,0.3,0.1,0.5c-0.3-0.2-0.6-0.4-1-0.6c-0.6-0.3-1-0.5-1.7-0.8c-0.9-0.4-1.5-0.6-2.4-1c-0.6-0.2-0.9-0.4-1.5-0.5
			c-0.4-0.1-0.6-0.2-1-0.2c-0.4-0.1-0.6-0.1-1.1-0.1c-0.5,0-0.8-0.1-1.2-0.1c-0.5,0-0.8,0-1.4,0.1c-0.3,0-0.5,0-0.8,0.1
			c-0.3,0.1-0.4,0.1-0.7,0.2c-0.4,0.1-0.6,0.2-0.9,0.4c-0.2,0.1-0.3,0.2-0.5,0.3c-0.2,0.1-0.3,0.2-0.5,0.4c-0.2,0.2-0.3,0.3-0.5,0.5
			c-0.2,0.3-0.3,0.4-0.5,0.7c-0.1,0.2-0.1,0.3-0.2,0.4c-0.1,0.4-0.2,0.6-0.2,0.9c0,0.2,0,0.3,0,0.5c0,0.3,0,0.4,0.1,0.7
			c0,0.2,0.1,0.3,0.1,0.5c0.1,0.2,0.1,0.4,0.3,0.6c0.1,0.2,0.2,0.3,0.3,0.5c0.2,0.2,0.3,0.3,0.4,0.4c0.2,0.1,0.3,0.2,0.5,0.3
			c0.2,0.1,0.3,0.2,0.5,0.3c0.2,0.1,0.3,0.2,0.6,0.2c0.3,0.1,0.4,0.1,0.7,0.1c0.2,0,0.4,0,0.6,0c0.2,0,0.4,0,0.6,0
			c0.2,0,0.3-0.1,0.5-0.1c0.4-0.1,0.7-0.2,1-0.4c0.2-0.1,0.3-0.2,0.4-0.3c0.2-0.1,0.2-0.2,0.4-0.4c0.1-0.2,0.2-0.2,0.3-0.4
			c0.1-0.1,0.1-0.2,0.2-0.3c0.1-0.2,0.1-0.3,0.1-0.5c0-0.3,0-0.4,0-0.7c0-0.1,0-0.2-0.1-0.3c0-0.1-0.1-0.2-0.2-0.3
			c-0.1-0.1-0.2-0.2-0.3-0.3c-0.1-0.1-0.1-0.1-0.2-0.1c-0.1-0.1-0.2-0.1-0.4-0.1c-0.2,0-0.3,0-0.4,0c-0.2,0-0.3,0-0.4,0.1
			c-0.2,0.1-0.3,0.2-0.4,0.4c-0.1,0.1-0.1,0.2-0.2,0.3c-0.1,0.1-0.1,0.2-0.1,0.3c0,0.1,0,0.2,0,0.3c0,0.2,0,0.2,0.1,0.4
			c0.1,0.1,0.1,0.2,0.2,0.3c0.1,0.1,0.2,0.2,0.4,0.3c-0.1,0.1-0.2,0.1-0.3,0.2c-0.2,0.1-0.3,0.1-0.5,0.2c-0.3,0.1-0.5,0.1-0.8,0.1
			c-0.3,0-0.5,0-0.8-0.2c-0.2-0.1-0.3-0.1-0.4-0.2c-0.2-0.1-0.4-0.2-0.6-0.4c-0.2-0.2-0.3-0.3-0.4-0.5c-0.1-0.2-0.2-0.4-0.2-0.6
			c0-0.2,0-0.3,0-0.5c0-0.3,0-0.5,0.1-0.8c0-0.2,0.1-0.2,0.2-0.4c0.1-0.2,0.1-0.2,0.2-0.4c0.1-0.2,0.2-0.3,0.4-0.5
			c0.1-0.1,0.2-0.2,0.4-0.3c0.3-0.2,0.5-0.4,0.9-0.5c0.3-0.1,0.5-0.2,0.8-0.3c0.4-0.1,0.7-0.2,1.2-0.2c0.4,0,0.7,0,1.1,0
			c0.4,0,0.5,0,0.9,0.1c0.5,0.1,0.7,0.1,1.2,0.2c0.6,0.1,0.9,0.2,1.4,0.4c0.6,0.2,0.9,0.3,1.5,0.5c0.9,0.4,1.4,0.6,2.3,1
			c0.4,0.2,0.7,0.4,1,0.6c-0.4,0.1-0.6,0.2-1,0.3c-0.2,0.1-0.3,0.1-0.5,0.3c-0.2,0.1-0.3,0.2-0.4,0.3c-0.1,0.1-0.2,0.2-0.3,0.4
			c-0.1,0.1-0.2,0.2-0.2,0.4c-0.1,0.2-0.1,0.2-0.2,0.4c-0.1,0.3-0.1,0.5-0.1,0.7c0.2-0.1,1-0.6,1.7-0.8c0.6-0.2,1-0.3,1.7-0.3
			c0.6-0.1,1,0,1.7,0c0.4,0,0.6,0.1,1,0.1c0.8,0.1,1.3,0.2,2.1,0.5c1.1,0.4,1.5,0.5,2.7,0.9c0.7,0.2,1.1,0.4,1.9,0.5
			c0.3,0.1,0.5,0.1,0.9,0.2c0.5,0.1,0.7,0.1,1.2,0.1c0.4,0,0.7,0,1.1,0c0.6,0,0.9,0,1.5-0.1c0.5-0.1,0.8-0.2,1.3-0.4
			c0.3-0.1,0.5-0.2,0.9-0.3c0.2-0.1,0.3-0.2,0.6-0.3c0.3-0.2,0.5-0.3,0.8-0.5c0.3-0.2,0.4-0.3,0.7-0.6c0.2-0.2,0.4-0.3,0.6-0.5
			c0.4-0.4,0.6-0.7,0.9-1.1c0.2-0.2,0.3-0.4,0.4-0.6c0.2-0.3,0.3-0.5,0.4-0.9c0.1-0.2,0.1-0.4,0.2-0.6c0.2-0.5,0.3-0.8,0.4-1.4
			c0.1-0.4,0.1-0.6,0.1-0.9c0-0.3,0-0.5,0-0.8c0-0.3,0-0.5-0.1-0.9c-0.1-0.5-0.1-0.8-0.3-1.3c-0.1-0.3-0.1-0.5-0.2-0.7
			c-0.2-0.5-0.3-0.7-0.5-1.1c-0.2-0.3-0.3-0.5-0.5-0.7c-0.4-0.6-0.8-0.9-1.2-1.4c0.5,0,0.8,0,1.4-0.1c0.4-0.1,0.7-0.2,1.1-0.3
			c0,0.1-0.1,0.2-0.1,0.3c0,0.1,0,0.2,0,0.4c0,0.1,0,0.2,0.1,0.3c0.1,0.2,0.1,0.3,0.2,0.4c0.1,0.1,0.1,0.1,0.2,0.2
			c0.1,0.1,0.3,0.2,0.3,0.2c0.2,0.1,0.6,0,0.7,0c-0.1-0.2-0.1-0.3-0.1-0.6c0-0.2,0-0.2,0-0.4c0.1-0.5,0.3-0.8,0.6-1.2
			c0.2-0.3,0.4-0.4,0.7-0.7c0.4-0.4,0.7-0.5,1.1-0.9c0.3-0.2,0.4-0.4,0.6-0.6c0.3-0.3,0.6-0.9,0.6-0.9s0.1-0.3,0.2-0.4
			c0.1-0.3,0.1-0.5,0.2-0.8c0-0.2,0-0.4,0-0.4c0,0,0.1-0.1,0.1-0.1c0.3,0.5,0.4,0.7,0.7,1.2c0.3,0.4,0.4,0.7,0.7,1.1
			c0.2,0.3,0.4,0.5,0.6,0.8c0.3,0.4,0.5,0.6,0.8,0.9c0.4,0.4,0.6,0.6,1,1c0.4,0.4,0.7,0.6,1.2,1c0.4,0.3,0.7,0.5,1.1,0.8v4.8
			c0,0,0,0-0.1,0c0,0-0.1-0.4-0.2-0.7c-0.1-0.3-0.2-0.5-0.3-0.7c-0.2-0.4-0.3-0.6-0.5-1c-0.2-0.4-0.4-0.7-0.7-1
			c-0.2-0.2-0.3-0.3-0.5-0.5c-0.3-0.3-0.5-0.5-0.8-0.7c-0.4-0.2-0.7-0.4-1.2-0.4c-0.2,0-0.2,0-0.4,0c-0.4,0-0.6,0-0.9,0
			c-0.1,0-0.2,0-0.3,0.1c-0.4,0.1-0.6,0.1-1,0.3c-0.4,0.2-0.6,0.4-1,0.7c-0.2,0.2-0.4,0.3-0.6,0.5c-0.2,0.2-0.3,0.4-0.5,0.7
			c-0.1,0.2-0.2,0.3-0.3,0.6c-0.2,0.3-0.3,0.5-0.4,0.8c-0.2,0.5-0.3,0.8-0.4,1.3c-0.1,0.4-0.2,0.7-0.2,1.1c-0.1,0.4-0.1,0.6-0.1,1
			c0,0.4,0,0.7,0.1,1.1c0,0.3,0,0.5,0.1,0.9c0,0.2,0.1,0.3,0.1,0.4c0,0.2,0.1,0.3,0.1,0.5c0.1,0.3,0.2,0.5,0.3,0.8
			c0.1,0.3,0.2,0.5,0.3,0.7c0.4,0.8,0.7,1.3,1.5,2c0.2,0.2,0.3,0.3,0.6,0.4c0.3,0.2,0.5,0.3,0.9,0.4c0.2,0.1,0.3,0.1,0.6,0.2
			c0.2,0,0.3,0.1,0.5,0.1c0.4,0,0.6,0,0.9,0c0.2,0,0.3-0.1,0.5-0.1c0.2-0.1,0.4-0.1,0.6-0.2c0.3-0.2,0.5-0.3,0.8-0.5
			c0.2-0.2,0.3-0.3,0.5-0.4c0.3-0.2,0.4-0.4,0.6-0.7c0.3-0.3,0.4-0.6,0.6-0.9c0.2-0.4,0.3-0.6,0.5-1c0.2-0.4,0.3-0.8,0.4-1.2
			c0.1,0,0,4,0,6.2l-60.4,0v13.1h122.8V45H98L98,45z M97.2,23.5c-0.2-0.2-0.2-0.7-0.2-1c0.1,0,0.3,0.1,0.4,0.1
			c0.1,0.3,0.1,0.6,0,0.9c0,0,0,0,0,0.1c0.1,0,0.1-0.1,0.2-0.1c0,0,0.1-0.1,0.1-0.1c0.1,0.5,0.2,1,0.4,1.5c0,0.1,0.1,0.1,0.1,0.2
			c0,0,0,0-0.1,0c0,0-0.1,0-0.1,0C98,25,97.9,25,97.8,25c-0.1,0-0.3-0.1-0.4,0c0,0,0,0.1,0,0.1c0,0-0.1,0-0.1,0
			c-0.1,0-0.2,0-0.2,0.1c0,0,0,0.1,0,0.1c0,0,0,0,0.1,0c0,0,0,0,0,0c0.1-0.1,0.2-0.1,0.3-0.1c0,0,0,0,0,0c0,0-0.1,0-0.1,0.1
			c0,0,0,0.1,0,0.1c0,0,0.1,0.1,0.1,0.1c0,0,0,0,0,0c0,0,0-0.1,0-0.1c0.1-0.1,0.3-0.1,0.5-0.1c0.3,0,0.7,0,1,0c0.1,0,0.1,0,0.1,0
			c0,0,0.1,0.1,0.1,0.1c0,0,0,0,0.1,0c0.1-0.1,0.1-0.1,0.1-0.2c0,0,0,0,0-0.1c-0.1-0.1-0.3-0.1-0.4-0.1c-0.1,0-0.2,0-0.3-0.1
			c-0.1-0.1-0.1-0.2-0.2-0.3c-0.1-0.4-0.2-0.9-0.2-1.3c0.1,0.1,0.2,0.1,0.3,0.1c0.1,0,0.1,0,0.2,0c-0.1-0.1-0.1-0.1-0.2-0.1
			c-0.3-0.3-0.4-0.7-0.3-1.2c0.1,0,0.1-0.1,0.3,0.1c0.1,0.1,0.1,0.2,0.2,0.3c0.1,0.2,0.1,0.4,0.1,0.6c0,0,0,0,0,0c0,0,0-0.1,0.1-0.1
			c0.1-0.4,0-0.9-0.2-1.3c-0.2-0.3-0.5-0.5-0.7-0.7c0.5,0.3,1.1,0.7,1.3,1c0.1,0.2,0.2,0.3,0.3,0.6c0.2,0.5,0.2,0.8,0.1,1.2
			c0,0,0,0.1,0,0.1c0,0,0.1,0,0.1-0.1c0.1-0.2,0.2-0.4,0.3-0.6c0.2-0.5,0.1-1.1-0.3-1.6c-0.3-0.3-0.7-0.6-1.1-0.8c0.1,0,0.1,0,0.2,0
			c0.2,0,0.4-0.1,0.6-0.3c0.2-0.1,0.1-0.3,0.2-0.5c0.2-0.3,0.3-0.4,0.5-0.7c0.1-0.3,0.2-0.4,0.3-0.7c0.1-0.4,0.3-0.6,0.4-0.9
			c0-0.2,0-0.3,0.1-0.5c0.1-0.2,0.3-0.3,0.4-0.6c0.2-0.4,0.2-0.7,0.2-1.1c0-0.2-0.1-0.4-0.1-0.5c0-0.2-0.1-0.3-0.2-0.4
			c0,0,0,0-0.1,0c0,0,0,0,0,0c0,0.1,0,0.2,0,0.3c0,0.1-0.1,0.3-0.1,0.4c-0.1,0.4-0.3,0.8-0.6,1.2c0-0.1,0-0.2,0-0.3
			c0-0.2,0-0.2-0.1-0.4c0-0.1,0-0.2-0.1-0.3c-0.1-0.2-0.4-0.5-0.4-0.4c0,0-0.1,0-0.1,0c0,0,0,0,0,0c0.1,0.1,0.1,0.3,0.1,0.5
			c-0.1,0.4-0.4,0.8-0.7,1.1c-0.4,0.5-0.9,0.8-1.3,1.2c-0.1,0.1-0.1,0.1-0.2,0.2c-0.2,0.2-0.3,0.4-0.4,0.6c-0.1,0.2-0.1,0.5-0.2,0.7
			c0,0.1,0,0.1-0.1,0.2c0,0-0.1,0.1-0.1,0.1c-0.1,0-0.1-0.1-0.1-0.1c-0.1-0.5,0.1-0.9,0.4-1.3c0.2-0.2,0.4-0.5,0.6-0.7
			c0.1-0.2,0.1-0.4,0-0.6c0-0.1-0.1-0.1-0.2-0.2c0,0,0,0,0,0c0.1,0,0.1,0,0.2,0c0.1,0,0.3,0,0.4-0.1c0.1,0,0.2-0.1,0.2-0.2
			c0,0,0-0.1,0-0.1c0,0,0,0,0,0c-0.1,0.1-0.2,0.1-0.3,0.1c-0.2,0-0.5-0.1-0.7-0.2c-0.2,0-0.3-0.1-0.5-0.1c-0.2,0-0.4-0.1-0.5,0.1
			c0,0,0,0.1,0,0.1c-0.1,0-0.2,0-0.3,0c0-0.1,0-0.1-0.1-0.2c-0.1,0-0.1,0-0.2,0c0,0.1,0.1,0.1,0.1,0.2c-0.1,0-0.3,0.1-0.4,0.2
			c0,0-0.1,0.1,0,0.1c0.1-0.1,0.3-0.1,0.4-0.1c0,0.1,0,0.2,0,0.2c-0.1,0-0.1,0-0.2,0c0,0,0,0,0,0c0,0.1,0.1,0.1,0.1,0.1
			c0,0.1-0.1,0.2-0.1,0.2c-0.1-0.1-0.1-0.1-0.2-0.1c-0.2,0-0.3,0.1-0.4,0.1c0,0-0.1,0-0.1,0c0,0,0,0.1,0,0.1c0,0,0.1,0,0.1,0
			c0,0,0.1,0,0.1,0c0.1,0,0.2-0.1,0.3-0.1c0,0,0.1,0,0.1,0c0,0,0,0-0.1,0.1c-0.1,0.1-0.3,0.1-0.4,0.3c0,0.1,0,0.1,0,0.2
			c0,0.1,0.1,0.1,0.2,0.1c0,0,0,0,0,0c0-0.1,0.1-0.2,0.2-0.2c0-0.1,0.1-0.1,0-0.2c0,0,0.1-0.1,0.1-0.1c0,0.1,0.1,0.1,0.1,0.2
			c0.1,0.1,0.2,0.1,0.3,0c0.1,0,0.2-0.2,0.2-0.3c-0.1,0.1-0.1,0.1-0.2,0.1c0,0-0.1-0.1-0.1-0.1c-0.1,0-0.2-0.1-0.2,0
			c0.1-0.1,0.1-0.2,0.2-0.3c0.1,0,0.3,0,0.4-0.1c0.2,0,0.4,0,0.5,0.1c0,0,0,0.1,0,0.1c0.1,0.2,0,0.4-0.2,0.5
			c-0.5,0.5-1.1,0.8-1.5,1.4c-0.1,0.1-0.1,0.2-0.2,0.3c-0.2,0.4-0.3,1.1,0,1.5c0.2,0.5,0.7,0.8,1.2,1c0,0,0.1,0,0.1,0.1
			c0,0.3-0.1,0.8-0.2,1.1c0.2,0,0.3-0.1,0.5-0.2c0,0.2-0.1,0.4-0.2,0.6c-0.2,0.5-0.4,0.7-0.6,1.1c0,0.1-0.1,0.1-0.2,0.2
			c-0.2,0.1-0.4-0.1-0.6-0.1c-0.1,0-0.1,0-0.2,0.1c0,0,0,0.1,0,0.1c-0.1,0-0.2,0-0.3,0.1c0,0-0.1,0.1,0,0.1c0,0,0,0.1,0.1,0.1
			c0.1-0.1,0.2-0.1,0.2-0.2c0,0,0.1,0,0.1,0c0,0,0,0,0,0c0,0-0.1,0-0.1,0.1c0,0-0.1,0.1,0,0.1c0,0.1,0.1,0.1,0.2,0.1c0,0,0,0,0,0
			c0-0.1,0.1-0.1,0.1-0.2c0.2-0.1,0.4-0.1,0.6-0.1c0.2,0,0.4,0,0.5,0c0.1,0,0.2,0,0.3,0.1c0,0,0,0,0,0.1c0,0,0.1,0,0.1,0
			c0.1,0,0.1-0.1,0.1-0.2c0-0.1-0.1-0.1-0.1-0.1c0,0,0,0,0,0c-0.1,0-0.3,0-0.4,0c0,0-0.1,0-0.1,0c0,0,0-0.1,0-0.1
			c0.2-0.4,0.5-0.7,0.8-1c0.1-0.2,0.2-0.4,0.2-0.6C97,23.4,97.1,23.5,97.2,23.5C97.2,23.5,97.2,23.5,97.2,23.5L97.2,23.5z"/>
		<path class="st0" d="M61,86.4c-0.5,0.6-1.1,1-1.8,1.3c-0.9,0.3-2,0.5-3,0.4c-0.1-2.7,0-5.4,0-8c0-1.4,0-2.9,1.1-3.8
			c0-0.1-0.1-0.2-0.1-0.3c-1.4,0-2.6,0-3.9,0c-0.1,0.1-0.2,0.2-0.2,0.3c0.3,0.3,0.6,0.6,0.7,1.1c0.2,0.8,0.2,1.7,0.2,2.5
			c0,2.4,0,4.8-0.1,7.1c0,0.9-0.2,1.8-1,2.4c0,0.1,0,0.2,0.1,0.2c2.4,0,4.8,0.1,7.2,0c0.4-1,0.8-2,1.1-3.1
			C61.2,86.5,61.1,86.4,61,86.4L61,86.4z M106,80.6c0,0.1-0.1,0.2-0.1,0.3c-0.2,0.6-0.8,1.2-1.4,1.5c-0.4,0.2-1,0.3-1.5,0.3
			c0,0-0.1,0-0.1-0.1c0.1-1.7,0-3.3,0.1-5c1.1,0,2.2,0.2,2.7,1.2C106.1,79.4,106.1,80,106,80.6L106,80.6z M108.1,78.5
			c-0.7-1.6-2.4-2.5-4.2-2.5c-1.3,0-2.6,0-3.9,0c-0.1,0.1-0.1,0.2-0.2,0.3c0.1,0.1,0.2,0.2,0.3,0.3c0.4,0.6,0.5,1.3,0.5,1.9
			c0,2.7-0.1,5.5-0.1,8.2c0,0.9-0.2,1.8-0.7,2.6c-0.1,0.1,0.1,0.2,0.1,0.3c1.2,0,2.4,0,3.5,0c0.1-0.1,0.1-0.2,0.1-0.2
			c-0.4-0.4-0.6-0.9-0.7-1.4c-0.2-1.3-0.1-2.4-0.1-3.7c0,0,0-0.1,0-0.1c1.9-0.1,3.9-0.6,4.8-2.5c0.4-0.8,0.6-1.4,0.5-2.3
			C108.3,79.1,108.2,78.6,108.1,78.5L108.1,78.5z M93.2,82.1c-0.3,0.1-0.6,0.3-1,0.2c0-0.8,0-2.7,0-2.7c0-0.8,0-1.3,0-1.9
			c0.1,0-0.1-0.1,0-0.1c0.3,0,0.6,0,0.8,0.1c0.7,0.1,1.2,0.4,1.6,1c0.4,0.6,0.4,1.5,0.1,2.2c-0.1,0.1-0.2,0.3-0.3,0.4
			c-0.2,0.2-0.3,0.4-0.7,0.6C93.6,81.9,93.4,81.9,93.2,82.1L93.2,82.1z M96.8,86.9c-0.8-1.2-1.6-2.5-2.3-3.8
			c0.4-0.3,0.8-0.5,1.3-0.8c0.8-0.6,1.4-1.6,1.5-2.6c0-0.2,0-0.4,0-0.6c-0.1-1.2-1-2.3-2.1-2.7c-0.6-0.3-1.3-0.4-2-0.4
			c-1.3,0-2.6,0-3.9,0c-0.1,0.1-0.1,0.2-0.2,0.3c0.2,0.1,0.2,0.2,0.3,0.3c0.4,0.5,0.5,1.2,0.5,1.8c0,2.5,0,5.1,0,7.7
			c0,0.5-0.1,0.9-0.1,1.4c-0.1,0.5-0.2,1-0.4,1.4c-0.1,0.3-0.4,0.4-0.5,0.6c0.1,0,0.1,0.1,0.2,0.2l3.2,0c0.3-0.1,0.8,0.2,0.8-0.2
			c-0.4-0.5-0.7-1-0.8-1.6c0,0,0-2.7-0.1-4c0,0,0.1-0.1,0.1-0.1c0.5,0.9,0.9,1.7,1.4,2.5c0.7,1.3,1.6,2.7,3,3.3c0,0,0,0.1,0.1,0
			c0.6,0.3,1.5,0.4,2.2,0.2c0-0.1,0.1-0.1,0.1-0.2C98,88.9,97.5,87.8,96.8,86.9L96.8,86.9z M117,86.7c-0.4,0.9-1.4,1.9-2.5,1.8
			c-0.9-0.1-1.8-0.8-2.2-1.6c-0.6-0.8-0.8-1.8-0.9-2.8c-0.2-1-0.1-2,0-3c0-0.3,0.2-0.7,0.3-1.1c0-0.2,0.1-0.4,0.2-0.7
			c0.4-0.9,1.3-1.7,2.3-1.8c0.9-0.1,1.7,0.4,2.2,1c1.1,1.4,1.3,3.2,1.3,4.9C117.6,84.6,117.5,85.7,117,86.7L117,86.7z M115.8,76.1
			c-0.7-0.2-1.4-0.2-2.1-0.1c-0.4,0.1-0.8,0.2-1.2,0.3c-0.8,0.3-1.5,1-2.1,1.6c-0.3,0.4-0.5,0.8-0.7,1.2c-0.3,0.8-0.6,1.6-0.7,2.5
			c-0.1,0.8-0.1,1.7,0,2.5c0.2,0.9,0.4,1.8,0.8,2.6c0.4,0.7,0.9,1.5,1.7,2.1c0.5,0.4,1,0.7,1.6,0.9c0.4,0.1,0.7,0.2,1.1,0.2
			c1.8,0.2,3.4-0.6,4.6-2c1.9-2.6,2-6.7,0.3-9.5C118.3,77.4,117.1,76.4,115.8,76.1L115.8,76.1z M129.8,85.5c-0.1,0.1,0,0.2-0.1,0.3
			c-0.3,1.2-1.1,2.5-2.5,2.6c-0.6,0-1.2-0.1-1.6-0.5c-0.5-0.4-0.9-0.9-1.2-1.5c-0.3-0.5-0.4-1-0.5-1.6c-0.1-0.3-0.1-0.6-0.2-1
			c-0.2-0.9-0.1-1.9,0-2.9c0.2-0.8,0.3-1.6,0.8-2.3c0,0,0.1,0.1,0.1,0c0,0,0,0-0.1,0c0.3-0.4,0.6-0.7,1.1-1c0.3-0.2,0.8-0.3,1.2-0.3
			l0,0c0-0.1,0.1,0,0.1,0c0.1,0,0.2,0,0.3,0c0.8,0.2,1.5,0.8,1.9,1.5c0,0.1,0.1,0.1,0.1,0.1C130.1,81,130.3,83.4,129.8,85.5
			L129.8,85.5z M131.1,78c-0.6-0.8-1.4-1.4-2.3-1.8c-0.1,0-0.2-0.1-0.3-0.1c-1.9-0.6-4.1-0.1-5.4,1.3c-0.2,0.2-0.3,0.4-0.5,0.5
			c-0.3,0.4-0.4,0.8-0.6,1.2c-0.7,1.6-0.9,3.7-0.6,5.5c0.3,1.2,0.7,2.4,1.5,3.4c0.9,1.3,2.4,2,4,2c1.5,0.1,2.8-0.6,3.9-1.6
			c0.8-0.9,1.3-2,1.6-3.1c0.3-1.6,0.3-3.2-0.1-4.8C132.1,79.6,131.7,78.8,131.1,78L131.1,78z M141.4,86.5
			C141.4,86.5,141.3,86.5,141.4,86.5c-1.2,1.4-3,1.8-4.8,1.7c-0.1-0.4,0-0.8,0-1.3c0-2.1-0.1-4.3,0-6.4c0-1.4-0.1-3.1,1.1-4.1
			c0-0.1,0-0.2-0.1-0.3c-0.6,0-1.2,0-1.8,0c-0.8,0-1.6,0-2.3,0c-0.1,0-0.1,0.2-0.2,0.3c0.1,0,0.1,0,0.1,0.1c0.7,0.4,0.8,1.2,0.8,1.9
			c0.1,1.1,0,2.1,0,3.2c0,1.7,0,3.4,0,5.2c-0.1,0.6-0.1,1.4-0.4,2c-0.1,0.4-0.3,0.7-0.6,0.9c0,0.1,0.1,0.2,0.1,0.3
			c2.4,0,4.9,0,7.3,0c0.4-0.8,0.6-1.7,0.9-2.5c0-0.2,0.1-0.4,0.2-0.6C141.5,86.6,141.5,86.5,141.4,86.5L141.4,86.5z M83.6,88
			c-0.1,0-0.2,0-0.3-0.1c0-0.9,0-3.9,0-4.4c0-0.1,0-0.2,0.1-0.3c1.1,0,2.3,0.2,3,1c0.1,0,0.2-0.1,0.2-0.1c0-0.8,0-1.7,0-2.5
			c-0.1-0.3,0.2-0.8-0.2-0.8c-0.3,0.3-0.6,0.6-1,0.7c-0.7,0.2-1.4,0.3-2.1,0.3l0,0c-0.1-1.4,0-2.8,0-4.2c0,0,0,0,0-0.1
			c1.4,0,2.9,0.1,3.9,1.2c0.1,0,0.2-0.1,0.2-0.1c-0.1-0.9-0.1-1.7-0.2-2.6c-1.4,0-2.9,0-4.3,0c-0.9,0-2,0-2.9,0l-0.1,0.3
			c0.2,0.1,0.4,0.3,0.5,0.5c0.7,1.2,0.4,2.6,0.4,3.9c0,2,0,4.1-0.1,6.1c-0.1,0.9-0.3,1.8-1,2.5c0,0-0.1,0.1-0.1,0.1
			c0.1,0.1,0,0.2,0.1,0.2c2.5,0,5,0.1,7.5,0.1c0.3-1,0.8-2.1,1.1-3.1c-0.1-0.1-0.1-0.1-0.2-0.1C87,87.7,85.3,88.1,83.6,88L83.6,88z
			 M75.3,75.9c0,0.1-0.1,0.2-0.1,0.3c0.2,0.1,0.4,0.3,0.5,0.5c0.3,0.8,0,1.7-0.2,2.4c-0.8,2.3-1.6,4.6-2.4,6.9
			c-0.3-0.7-0.5-1.5-0.7-2.2c0-0.1-1.1-3.4-1.7-5.1c-0.2-0.8-0.4-1.9,0.4-2.6c0-0.1-0.1-0.2-0.1-0.3c-1.4,0-2.8,0-4.2,0
			c0,0-0.1,0.1-0.1,0.2c-0.1,0.2,0.2,0.2,0.3,0.3c1,0.9,1.2,2.3,1.6,3.5c1.1,3.3,2.2,6.4,3.3,9.6c0.5,0,1.1,0,1.7,0
			c0.2,0.1,0.1-0.2,0.2-0.2c0,0,0.2-0.6,0.3-0.9c1-2.8,2-5.6,3-8.4c0.5-1.4,0.9-2.9,2.3-3.8c0-0.1,0-0.2-0.1-0.3
			C77.8,75.9,76.6,75.9,75.3,75.9L75.3,75.9z M65.4,88.8c-0.3-0.5-0.4-1.1-0.5-1.7c0-2.1,0-4.2,0-6.4c0-1.6-0.1-3.3,0.8-4.6
			l-0.1-0.2c-1.2,0-2.5,0-3.8,0l-0.1,0.3l0.2,0.2c0.1,0.1,0.1,0.2,0.2,0.3c0.6,1.2,0.3,2.6,0.4,3.9c0,1.6,0,3.3,0,4.9
			c0,0.6,0,1.5-0.2,2.1c-0.1,0.6-0.3,1.3-0.9,1.7c0,0.1,0.1,0.2,0.1,0.3c1.4,0,2.6,0,4.1,0c0.1-0.1,0.2-0.2,0.2-0.3
			C65.7,89.2,65.5,89,65.4,88.8L65.4,88.8z"/>
		<path class="st0" d="M90.8,171.1c-1.6,0.2-3.3,0.3-4.8,0.6c-0.1,0.6-0.1,1.3-0.1,2c0.1,0.1,0.2,0.1,0.3,0.2
			c0.1-0.1,0.1-0.3,0.2-0.4c0.4-0.8,1.3-1,2.1-1.1c0.1,0.7,0.2,1.5,0.2,2.2c0.1,1.2,0.3,2.5,0.2,3.7c-0.1,0.4-0.2,0.9-0.6,1.2
			c0,0.1,0.1,0.2,0.1,0.2c1-0.1,2.1-0.2,3.1-0.3c-0.2-0.4-0.7-0.8-0.7-1.3c-0.1-0.3-0.1-0.6-0.1-1l0-0.1c-0.2-1.6-0.3-3.1-0.4-4.7
			c0.1-0.1-0.1-0.1,0-0.2c0.6-0.1,1.1,0.1,1.6,0.2l0.4,0.3c0.1,0.2,0.3,0.2,0.4,0.4c0.1,0.1,0.2,0,0.3-0.1l-0.6-1.9
			C91.8,171,91.3,171.1,90.8,171.1L90.8,171.1z M105,174.6c-0.2,0.2-0.6,0.3-0.9,0.2c-0.2-0.1-0.3-0.1-0.4-0.2
			c-0.2-0.1-0.2-0.4-0.3-0.6c0-0.4,0.1-0.9,0.4-1.1c0.2-0.2,0.6-0.3,0.9-0.2c0.3,0.1,0.5,0.3,0.7,0.6
			C105.5,173.7,105.5,174.2,105,174.6L105,174.6z M104.9,177.9c0,0.5-0.4,0.9-0.8,1.1c-0.4,0.2-0.8,0-1.2-0.2
			c-0.1-0.2-0.3-0.3-0.3-0.5c-0.2-0.4-0.1-0.9,0.1-1.3c0.2-0.4,0.7-0.8,1.2-0.8c0.4,0.1,0.8,0.2,0.9,0.6
			C104.9,177.2,105,177.5,104.9,177.9L104.9,177.9z M105.9,172c-0.2-0.1-0.3-0.2-0.5-0.3c-0.8-0.5-1.8-0.3-2.5,0.3
			c-0.6,0.5-1,1.4-0.7,2.2c0.1,0.5,0.5,0.8,0.8,1.1c-0.1,0.1-0.3,0.1-0.4,0.2c-0.2,0.2-0.4,0.2-0.6,0.5c-0.7,0.6-1,1.7-0.7,2.6
			c0.2,0.6,0.6,1.1,1.2,1.3c0.6,0.3,1.5,0.4,2.2,0.1c0.9-0.3,1.6-1.1,1.7-2c0.1-0.8-0.3-1.7-1-2.2c-0.1,0-0.1,0-0.2-0.1
			c0.7-0.3,1.4-1,1.5-1.7C106.8,173.2,106.5,172.5,105.9,172L105.9,172z M95,174.5c-0.4-0.1-0.8,0-1,0.3c-0.2,0.2-0.3,0.6-0.1,0.9
			c0.1,0.3,0.5,0.6,0.8,0.5c0.4,0,0.7-0.2,0.8-0.6c0-0.3,0.2-0.7-0.1-0.9C95.4,174.7,95.2,174.6,95,174.5L95,174.5z M119.8,177.9
			c0.2-0.3,0.3-0.7,0.3-1.1c0-0.5-0.1-1-0.4-1.4c-0.1-0.1-0.2-0.2-0.2-0.3c-0.1-0.1-0.2-0.2-0.3-0.3c-0.8-0.7-2.2-0.8-3.2-0.3
			c-0.1,0-0.2,0.2-0.4,0.2c-0.2,0.2-0.4,0.3-0.6,0.5c-0.1,0.2-0.3,0.3-0.4,0.4c0.4,0.5,0.8,1,1.2,1.4c0.1,0,0.2,0,0.3-0.1
			c0-0.2,0-0.3,0-0.5c0.1-0.5,0.5-1,1-1c0.4-0.1,0.7,0,1,0.3c0,0.1,0.2,0.1,0.2,0.2c0.3,0.7,0,1.6-0.5,2.2c-1.3,1.3-3,2.3-4.7,3l0,0
			c-0.2,0.1-0.6,0.2-0.8,0.3c0.1,0.1,0,0.3,0.1,0.3c2.1,0.5,4.1,1,6.2,1.5c0.4-0.5,0.7-1,1.1-1.6l0-0.1c-0.1,0,0-0.2-0.1-0.1
			c-0.3,0.2-0.7,0.2-1,0.3c-0.6,0.1-1.2-0.1-1.8-0.2c-0.3-0.1-0.6,0-0.8-0.2c0,0,0-0.1,0-0.1C117.5,180.4,118.9,179.4,119.8,177.9
			L119.8,177.9z M111.8,176c-0.1,0.1-0.2,0.2-0.3,0.3c-0.3,0.2-0.8,0.3-1.1,0.1c-0.2-0.1-0.3-0.2-0.5-0.3c0,0,0,0,0,0
			c0-0.1,0,0-0.1,0c-0.1-0.3-0.3-0.5-0.2-0.8c0-0.4,0.2-0.8,0.5-1c0.3-0.3,0.9-0.4,1.3-0.2c0.2,0.1,0.4,0.2,0.5,0.4
			c0,0.1,0.1,0.2,0.1,0.3C112.2,175,112.1,175.6,111.8,176L111.8,176z M113.6,176c0.2-1-0.1-2-0.8-2.6c-0.4-0.3-0.9-0.6-1.4-0.7
			l-0.1,0c-0.9-0.1-1.8,0.2-2.4,0.9c-0.1,0.2-0.3,0.3-0.3,0.5c-0.4,0.8-0.4,1.7,0.1,2.4c0.6,0.8,1.6,1.2,2.6,0.9
			c-0.2,0.4-0.7,0.7-1,1.1c-0.8,0.7-1.7,1.3-2.7,1.5c-0.2,0-0.4,0.1-0.6,0c0,0.1,0,0.2,0.1,0.3c0.7,0.2,1.4,0.3,2.1,0.4
			c0.4,0,0.7-0.3,1.1-0.4c1-0.6,1.9-1.4,2.5-2.3C113,177.5,113.4,176.8,113.6,176L113.6,176z M78.4,179.3c-0.2,0.3-0.5,0.6-0.8,0.9
			c-0.3,0.2-0.7,0.5-1.1,0.7c-0.4,0.1-0.9,0.4-1.3,0.4c-0.2-0.5-0.3-1-0.4-1.5l0-0.1c-0.1-0.4-0.1-0.7-0.3-1.1
			c-0.1-0.1,0.1-0.1,0.2-0.2c0.7-0.2,1.6-0.2,2.2,0.4c0.1,0.1,0.2-0.1,0.3-0.1c-0.2-0.9-0.4-1.7-0.7-2.6c-0.1-0.1-0.2-0.1-0.3-0.1
			c-0.1,0.5-0.6,0.9-1,1.2c-0.3,0.1-0.7,0.3-1,0.4c-0.1,0,0-0.2-0.1-0.3c-0.2-0.7-0.3-1.3-0.5-1.9c0-0.3,0.3-0.3,0.5-0.3
			c0.9-0.3,2-0.3,2.9,0.1c0.2,0.1,0.1-0.1,0.3-0.2c-0.2-0.5-0.5-1-0.7-1.5c-1.7,0.3-3.4,0.8-5.1,1.2c-0.1,0-0.3,0-0.3,0.2
			c-0.1,0.2,0.3,0.2,0.4,0.4c0.3,0.2,0.4,0.5,0.6,0.8c0.2,0.3,0.2,0.7,0.4,1.1c0.1,0.7,0.4,1.5,0.6,2.2c0.1,0.6,0.3,1.2,0.3,1.8
			c0,0.2,0,0.3,0,0.5c0,0.4-0.1,0.7-0.4,1c0,0.1,0.1,0.2,0.2,0.2c1.7-0.4,3.5-0.9,5.2-1.3c0.1-0.1,0.3,0,0.4-0.1c0-0.7,0-1.4,0-2
			C78.5,179.4,78.5,179.3,78.4,179.3L78.4,179.3z M83.2,175.5c-0.7-0.2-1.6-0.2-2-0.9c-0.1-0.3-0.1-0.8,0.1-1.1
			c0.3-0.4,0.8-0.5,1.4-0.5c0.4,0,0.7,0.2,1.1,0.5c0.1,0.1,0.2,0.2,0.3,0.3c0.1-0.1,0.2-0.2,0.2-0.3c-0.1-0.5-0.3-1-0.4-1.5
			c-0.5,0-0.9,0-1.3,0c-0.8,0-1.5,0.1-2.1,0.5c-0.4,0.3-0.7,0.8-0.9,1.3c-0.1,0.5-0.1,1,0.1,1.4c0.4,0.9,1.5,1.3,2.4,1.5
			c0.6,0.2,1.3,0.3,1.7,0.8c0.3,0.3,0.3,0.8,0.2,1.2c-0.1,0.5-0.7,0.8-1.1,1l-0.4,0c-0.8,0-1.4-0.5-1.9-1c-0.1,0.1-0.2,0.1-0.2,0.2
			c0.2,0.6,0.4,1.2,0.6,1.8l0.1,0.1c0.9-0.3,1.9,0,2.8-0.3c0.5-0.2,0.9-0.5,1.2-0.9c0.6-0.7,0.7-1.8,0.3-2.6
			C85,176.2,84.1,175.8,83.2,175.5L83.2,175.5z M99.8,177.8c0.1-2.2,0.2-4.5,0.3-6.7c-0.3,0-0.5-0.1-0.8-0.1c-0.6,0.5-1.1,1-1.7,1.5
			c-0.2,0-0.1,0.2-0.1,0.3c0,0,0.1,0,0.1,0c0.6,0.3,0.9,1,0.8,1.6c0.1,0.8-0.1,1.8-0.1,2.7l0,0l0,0c0,0.1,0,0.3-0.1,0.4
			c-0.1,0.7-0.3,1.3-1,1.6c0,0.1,0.1,0.2,0.1,0.2c1,0.1,1.9,0.1,2.9,0.2c0.1,0,0.1-0.1,0.2-0.2c-0.4-0.3-0.5-0.8-0.6-1.3
			C99.8,178.1,99.9,177.9,99.8,177.8L99.8,177.8z"/>
		<path class="st1" d="M89,134.3c-0.3-3.3,1.4-6,3.4-7.6c0.1,0,0.1,0,0.1,0.1c-0.9,1.9-2,3.5-1.9,6.4c0.2,3.1,1.7,5.6,3.6,7.2
			c0.6,0.5,1.5,0.8,1.9,1.5C92.6,140.8,89.4,138.5,89,134.3L89,134.3z M95.9,150.7c0.6,0.4,1.1,1,2,1c-0.7-1.3-1.3-2.8-1.3-4.7
			c-1.6-0.3-2.9-0.8-4.2-1.4c-0.1,2.1-0.6,3.8-1.3,5.3c1.1,0,1.8-0.8,2.4-1.1c-0.7,2.6-2.2,5.5-3.6,7.9c-0.4,0.6-1,2-1.7,2.2
			c-1.2,0.4-2.6-1.1-4-0.2c-0.1,0.1,0,0.5-0.1,0.6c-1.2-0.4-2.6,0.6-1.6,1.5c0.5-0.5,1.2-1.1,2.2-0.8c-0.8,0.2-1.5,1.8-0.1,1.9
			c0.1-0.2,0.1-0.5,0.3-0.7c2-0.9,6.2-0.9,8.4-0.2c0.2,0.1,0.1,0.5,0.3,0.6c0.5-0.2,0.9-0.9,0.8-1.5c-0.4-1.2-2.8-0.4-3.8-0.9
			c0.1-0.9,0.8-1.5,1.3-2.1C93.5,155.9,95.5,153.9,95.9,150.7L95.9,150.7z M102,138.4c-0.1,0-0.1,0-0.2,0c0,0.1,0,0.2,0.1,0.2
			c1.8,1.6,4.4,3.2,6.1,5.4c2.2,2.8,3.9,7,2.6,11.3c0.8-0.7,1.3-1.7,1.7-2.7c0.4-1.1,0.8-2.4,0.8-3.8
			C113.2,141.9,107,140.3,102,138.4L102,138.4z M111.1,134.1c0-0.1-0.1-0.2-0.1-0.2c-1.5,0.9-3.1,1.6-5.2,1.9
			c0.8,0.3,2.8,0.7,3.8,0.3C110.4,135.7,110.6,134.5,111.1,134.1L111.1,134.1z M106.1,132.9c0.1,1.5-0.9,1.8-1.7,2.4
			c2.2-0.1,4.1-0.9,5.6-1.9c1.5-0.9,3-2,3.7-3.8c0,0-0.1,0-0.1,0C111.4,131.1,109.1,132.4,106.1,132.9L106.1,132.9z M107.1,129.9
			c0,0.5,0,1-0.2,1.4c-0.2,0.4-0.8,0.7-0.6,1c2.1-0.5,4-1.4,5.6-2.6c1.5-1.1,3.1-2.4,3.6-4.5c0,0-0.1,0-0.1,0
			C113,127.1,110.3,128.8,107.1,129.9L107.1,129.9z M107.5,127c0.3,1-0.3,1.8-0.4,2.3c3.3-1.4,6.4-3.4,8.6-6.1
			c0.7-0.8,1.7-1.9,1.5-3.2C114.4,122.8,111.3,125.3,107.5,127L107.5,127z M107.5,124.1c0.3,0.7,0.2,1.7-0.1,2.2
			c4-2.2,7.9-4.9,10.6-8.4c0.9-1.2,1.9-2.5,2-4.2c0,0-0.1,0-0.1,0C116.5,117.8,112.4,121.3,107.5,124.1L107.5,124.1z M102.7,123.1
			c-0.6,0.5-1.4,1-1.6,1.8c0.8-0.1,1.3-0.8,2-1.3c3.4-2.5,6.6-4.6,9.1-7.9c1.3-1.7,3.4-4.8,1.4-6.9c0,0-0.1,0-0.1,0
			c0,0.1,0,0.1,0,0.2c0,2.3-1,4-2.1,5.6C109,118.1,105.7,120.4,102.7,123.1L102.7,123.1z M113,119.4c1.6-1,3.1-2.5,4.6-4.1
			c1.6-1.7,4-4,2.9-7c-0.1,0-0.1-0.1-0.2-0.1c-1.5,4.1-3.7,7.2-6.4,10C113.6,118.5,113.1,118.8,113,119.4L113,119.4z M93.7,115.4
			c0-0.2,0-0.4,0-0.6c0.8,0.1,1.5,0.2,2.2,0.4C95.3,115.5,94.2,115.9,93.7,115.4L93.7,115.4z M90.7,117.3c0.2-0.4,0.2-0.9,0.3-1.3
			c0.6,0,1.2,0,1.6,0.2C92.5,117.2,91.4,117,90.7,117.3L90.7,117.3z M105.9,160.4c-0.3-0.1-0.5-0.4-0.6-0.7
			c-1.3-2.4-1.4-5.6-1.9-8.8c0.6,0.4,1.7,1,2.7,0.6c-1.8-1.5-3.2-3.9-2.7-7.3c-1.9-1.7-4.2-3.5-5.4-5.9c-0.4-0.8-0.8-1.9-0.5-2.9
			c0.9,2.8,2.5,4.6,4.6,6.5c2.2,2,4.8,4.1,4.4,8.5c0.6-0.3,0.6-1.2,0.7-1.8c0.4-5.6-3.8-7.7-6.5-10.2c-0.9-0.8-1.8-1.8-2-3
			c0.9,0.6,1.8,1.6,3,2.4c2,1.2,4.6,1.6,6.5,0.4c0.6-0.3,1.3-0.7,1.4-1.3c-2,0.1-3.6-0.2-5-0.6c-1-0.3-2-0.6-2.6-1.3
			c1.7-0.2,3-0.6,3.5-2c-1.1,0-2.6,0.2-3.3-0.3c2-0.3,3.9-0.7,4.4-2.5c-1.4,0-2.9,0.8-4.3,0.3c1.9-0.7,4.3-0.8,4.7-3
			c-1.4,0.1-3.1,1.3-4.7,1c1.9-0.9,4.8-1.3,4.7-3.9c-1.1,0.1-2.5,1.4-3.7,1.2c5.2-3.2,10.4-7.2,13.8-12.5c1.5-2.3,4.2-6.8,1.5-9.5
			c-0.1,0-0.1,0-0.2,0c0,0.1-0.1,0.1-0.1,0.2c-0.3,3.7-1.7,7.1-3.4,9.7c-1.6,2.6-3.6,4.8-5.8,6.7c-2.3,1.9-5,3.4-7.2,5.3
			c-1.3,1-1.9,2.1-2.5,3.8c-0.6,1.6-1.3,3.1-2.4,3.8c-0.4,0.2-1,0.7-1.5,0.3c0.5-0.5,1-0.7,1.3-1.1c0.6-0.8,1-2.1,1.4-3.4
			c0.4-1.2,0.9-2.4,1.5-3.4c2.2-3.7,6.9-6.2,9.8-9.6c1.5-1.7,3.2-3.8,3.3-6.4c0.1-2.1-0.7-3-2.2-3.3c0.1,0.7,0.6,1.3,0.5,2.5
			c-0.2,2.3-2.1,4.9-3.4,6.5c-1.5,1.8-3.2,3.3-5,4.9c-1.7,1.4-3.7,3-4.8,5.1c-0.5,1-1,2.6-1.3,3.7c-0.2,0.7-0.5,3.5-1.5,3.4
			c-0.6,0-0.8-1.3-0.8-2.2c0.1-4.7,4.5-6.8,6-9.9c0.1-0.3,0.3-0.9,0.3-1.3c0.2-1.6-0.7-2.2-1.4-2.9c2,0.3,4.7,0.1,4.5-1.9
			c-0.3,0.1-0.5,0.5-1,0.6c-2.9,0.9-7.9-3.5-10.1-0.9c-0.3,0.1,0.1,0.5-0.1,0.6c-0.5,0-1.1,0-1.5,0.1c-0.1-0.4-0.3-0.8-0.4-1.2
			c-0.3,0.1-0.7,0.1-1,0.2c0.2,0.3,0.5,0.6,0.5,1.1c-1.1,0.3-2.1,0.7-2.3,1.9c0.7-0.2,1.6-0.6,2.4-0.6c0,0.5-0.1,0.9-0.3,1.3
			c-0.2,0.2-1-0.1-1,0.2c-0.1,0.5,0.6,0.3,0.7,0.7c-0.2,0.4-0.5,0.8-0.8,1.1c-1-1.2-2.2-0.1-3.3,0.2c-0.3,0.1-0.5,0-0.7,0.1
			c0.9,1.5,2.5,0,3.8-0.1c-0.4,0.8-2.3,1.1-2.6,2.1c-0.2,0.7,0.1,1.6,1.1,1.6c-0.3-0.9,0.9-1.3,1.2-2c0.1-0.2-0.1-0.6,0-0.8
			c0.1-0.3,0.6-0.3,0.8-0.6c0.2,1.9,3.3,1.8,3.4-0.2c-0.4,0.2-0.6,0.5-1,0.5c-0.5-0.1-0.9-1.2-2-0.8c0.4-0.4,0.7-1.1,1.1-1.5
			c1.6-0.2,4.2-1,4.8,0.8c0.1,0.4,0.1,1.1-0.1,1.6c-0.5,1.2-2,2.3-3.1,3.1c-3.3,2.6-7.6,5.5-7.9,10.8c-0.3,4.8,2.2,7.5,5.1,9.3
			c2.8,1.7,5.9,2.4,9.5,3c0.6,1.4,0.8,3.7,0.2,5.2c0.8-0.1,1.2-1,1.7-1.2c0.4,2.8,1,5.2,1.9,7.4c0.3,0.7,0.8,1.4,0.8,2.2
			c-1.4,0.4-4.2-1.7-4.5,0.3c-1.3-0.3-2.1,0.9-1.3,1.6c0.4-0.5,0.9-0.9,1.8-0.8c-0.6,0.3-1.1,1.7,0.1,1.7c0.1-0.2,0.2-0.4,0.3-0.6
			c1.1-1.1,6-1,8.1-0.6c0.5,0.1,0.8,0.7,1,0.8c0.4-0.3,1-0.6,0.8-1.3C109.5,160,107,161,105.9,160.4L105.9,160.4z"/>
		<path class="st0" d="M46.1,48.5c1,0,1.5,1.2,1.7,2.4c0.2,1.2,0.1,3.6-1.6,3.5c-0.9-0.1-1.4-1.2-1.6-2.4c-0.1-0.7-0.1-1.4-0.1-1.8
			C44.7,49.3,45.2,48.5,46.1,48.5L46.1,48.5L46.1,48.5z M44.5,48.5c-0.3,0.3-0.6,0.8-0.9,1.6c-0.6,1.8,0.4,4.7,2.1,5
			c2.2,0.4,3.4-1.4,3.4-3.3c0-1-0.3-2.3-1-3.1C47.2,47.6,45.5,47.4,44.5,48.5L44.5,48.5L44.5,48.5z M140.8,48.6c1,0,1.5,1.2,1.7,2.4
			c0.2,1.2,0.1,3.6-1.6,3.5c-0.9,0-1.4-1.2-1.6-2.4c-0.1-0.7-0.1-1.4-0.1-1.8C139.4,49.3,139.9,48.5,140.8,48.6L140.8,48.6
			L140.8,48.6z M139.1,48.5c-0.3,0.3-0.6,0.8-0.9,1.6c-0.6,1.8,0.4,4.7,2.1,5c2.2,0.4,3.4-1.4,3.4-3.3c0-1-0.3-2.3-1-3.1
			C141.9,47.6,140.2,47.4,139.1,48.5L139.1,48.5L139.1,48.5z M51.9,47.9l-1.5,0l-0.9,0l-0.1,0.2c0.1,0,0.2,0.1,0.3,0.2
			c0.1,0.1,0.2,0.2,0.2,0.2c0.1,0.1,0.1,0.3,0.2,0.5c0,0.2,0,0.4,0.1,0.6c0,0.4,0,0.9,0,1.4c0,0.5,0,0.9,0,1.3c0,0.1,0,0.3,0,0.4
			c0,0.3,0,0.5,0,0.8c0.1,0.6,0.4,1.2,0.9,1.4c0.3,0.2,0.8,0.2,1.2,0.2c0.5,0,0.8-0.2,1.1-0.4c0.2-0.1,0.4-0.3,0.6-0.4
			c0,0,0.2-0.2,0.2-0.1c0,0.1,0,0.7,0,0.7l1.2,0l0.5,0l0.1-0.2c0,0-0.2-0.1-0.3-0.2c-0.1-0.1-0.2-0.4-0.3-0.5
			c-0.1-0.4-0.1-1.5-0.1-2.5c0-0.5,0-1,0-1.6c0-0.2,0-0.4,0-0.7c0-0.2,0-0.4,0.1-0.5c0.1-0.2,0.2-0.3,0.3-0.5c0,0,0.2-0.1,0.2-0.1
			c0-0.1,0-0.1-0.1-0.1c0,0-0.1-0.1-0.1-0.1c0,0-0.1,0-0.1,0l-1,0l-1,0c0,0-0.1,0.1-0.1,0.1c0,0,0,0.1,0,0.1c0,0,0.1,0,0.1,0.1
			c0,0,0.1,0.1,0.1,0.1c0.1,0.1,0.1,0.1,0.2,0.2c0.1,0.1,0.1,0.3,0.1,0.6c0,0.6,0,4,0,4s-1,1-1.8,1c-0.8,0-0.9-0.4-1-1
			c-0.1-0.6,0-3.6,0-3.6c0.1-0.5,0.1-0.8,0.3-1.1c0.1-0.1,0.2-0.2,0.4-0.3C52,48.1,51.9,48,51.9,47.9C51.9,48,51.9,47.9,51.9,47.9
			L51.9,47.9L51.9,47.9z M57.4,48l-1.1,0c0,0,0,0.1-0.1,0.2c0,0.1,0,0.1,0,0.2c0,0.2-0.1,0.6-0.1,0.8c-0.1,0.2-0.1,0.4-0.2,0.5
			c-0.1,0.1-0.2,0.2-0.2,0.3c0,0,0.1,0.2,0.2,0.2c0.4-0.2,0.7-0.4,0.9-0.8C57.1,48.9,57.3,48.5,57.4,48L57.4,48z M60.3,48H58
			c0,0,0,0.1-0.1,0.1c0,0,0,0.1,0,0.1c0,0,0.1,0,0.1,0.1c0.1,0.1,0.2,0.2,0.2,0.3c0.1,0.1,0.1,0.2,0.1,0.3c0,0.2,0,0.3,0.1,0.5
			c0,0.5,0,1.3,0,1.9c0,0.7,0.1,1.8-0.1,2.5c0,0.2-0.1,0.4-0.1,0.4c0,0.1-0.1,0.1-0.1,0.2c-0.1,0.1-0.2,0.2-0.2,0.3
			c-0.1,0-0.1,0.1-0.1,0.1c0,0,0,0.1,0,0.1c0,0.1,0.1,0.1,0.1,0.1l1.3,0l2.4,0l0.5-1.5c0,0,0-0.1-0.1-0.1c0,0-0.1,0-0.1,0
			c-0.1,0.1-0.1,0.1-0.2,0.2c-0.3,0.2-0.7,0.4-1,0.5c-0.3,0.1-0.6,0.1-0.8,0.1c-0.1,0-0.2,0-0.2,0c-0.1-0.2,0-3,0-3.3
			c0-0.4,0-0.8,0-1.2c0-0.2,0-0.4,0-0.6c0-0.2,0.1-0.4,0.2-0.5c0.1-0.1,0.2-0.3,0.4-0.4C60.3,48.1,60.3,48.1,60.3,48
			C60.3,48,60.3,48,60.3,48L60.3,48z M115.9,48l-2.2,0c0,0,0,0.1-0.1,0.1c0,0,0,0.1,0,0.1c0,0,0.1,0,0.1,0.1
			c0.1,0.1,0.2,0.2,0.2,0.3c0.1,0.1,0.1,0.2,0.1,0.3c0,0.2,0,0.3,0.1,0.5c0,0.5,0,1.3,0,1.9c0,0.7,0.1,1.8-0.1,2.5
			c0,0.2-0.1,0.4-0.1,0.4c0,0.1-0.1,0.1-0.1,0.2c-0.1,0.1-0.2,0.2-0.2,0.3c-0.1,0-0.1,0.1-0.1,0.1c0,0,0,0.1,0,0.1
			c0,0.1,0,0.1,0,0.1l1.3,0l2.4,0l0.5-1.5c0,0,0-0.1-0.1-0.1c0,0-0.1,0-0.1,0c-0.1,0.1-0.1,0.1-0.2,0.2c-0.3,0.2-0.7,0.4-1,0.5
			c-0.3,0.1-0.6,0.1-0.8,0.1c-0.1,0-0.2,0-0.2,0c0-0.2,0-3,0-3.3c0-0.4,0-0.8,0-1.2c0-0.2,0-0.4,0-0.6c0-0.2,0.1-0.4,0.2-0.5
			c0.1-0.1,0.2-0.3,0.4-0.4C115.9,48.1,115.9,48.1,115.9,48C115.9,48,115.9,48,115.9,48L115.9,48L115.9,48z M64.7,48h-2.2
			c0,0,0,0.1-0.1,0.1c0,0,0,0.1,0,0.1c0,0,0.1,0,0.1,0.1c0.1,0.1,0.2,0.2,0.2,0.3c0.1,0.1,0.1,0.2,0.1,0.3c0,0.2,0,0.3,0,0.5
			c0,0.5,0,1.3,0,1.9c0,0.7,0.1,1.8-0.1,2.5c0,0.2-0.1,0.4-0.1,0.4c0,0.1-0.1,0.1-0.1,0.2c-0.1,0.1-0.2,0.2-0.2,0.3
			c-0.1,0-0.1,0.1-0.1,0.1c0,0,0,0.1,0,0.1c0,0.1,0.1,0.1,0.1,0.1l1.3,0l2.4,0l0.5-1.5c0,0,0-0.1-0.1-0.1c0,0-0.1,0-0.1,0
			c0,0.1-0.1,0.1-0.2,0.2c-0.3,0.2-0.7,0.4-1,0.5c-0.3,0.1-0.6,0.1-0.8,0.1c-0.1,0-0.2,0-0.2,0c0-0.2,0-3,0-3.3c0-0.4,0-0.8,0-1.2
			c0-0.2,0-0.4,0-0.6c0-0.2,0.1-0.4,0.2-0.5c0.1-0.1,0.2-0.3,0.4-0.4C64.8,48.1,64.8,48.1,64.7,48C64.7,48,64.7,48,64.7,48L64.7,48
			L64.7,48z M136.2,48h-2.2c0,0,0,0.1-0.1,0.1c0,0,0,0.1,0,0.1c0,0,0.1,0,0.1,0.1c0.1,0.1,0.2,0.2,0.2,0.3c0.1,0.1,0.1,0.2,0.1,0.3
			c0,0.2,0,0.3,0.1,0.5c0,0.5,0,1.3,0,1.9c0,0.7,0.1,1.8-0.1,2.5c0,0.2-0.1,0.4-0.1,0.4c0,0.1-0.1,0.1-0.1,0.2
			c-0.1,0.1-0.2,0.2-0.2,0.3c-0.1,0-0.1,0.1-0.1,0.1c0,0,0,0.1,0,0.1c0,0.1,0.1,0.1,0.1,0.1l1.3,0l2.4,0l0.5-1.5c0,0,0-0.1-0.1-0.1
			c0,0-0.1,0-0.1,0c0,0.1-0.1,0.1-0.2,0.2c-0.3,0.2-0.7,0.4-1,0.5c-0.3,0.1-0.6,0.1-0.8,0.1c-0.1,0-0.2,0-0.2,0c-0.1-0.2,0-3,0-3.3
			c0-0.4,0-0.8,0-1.2c0-0.2,0-0.4,0-0.6c0-0.2,0.1-0.4,0.2-0.5c0.1-0.1,0.2-0.3,0.4-0.4C136.2,48.2,136.2,48.1,136.2,48
			C136.2,48.1,136.2,48,136.2,48L136.2,48L136.2,48z M70.5,48l-1.3,0l-0.6,0c0,0,0.2,0.2,0.3,0.5c0.1,0.1,0.1,0.2,0.1,0.3
			c0.1,0.2,0.1,0.3,0.2,0.5c0,0.1,0,0.2,0,0.2c0,0.2,0,0.4,0,0.6c0,0.1,0,0.4,0,0.7c0,0.3,0,0.7,0,1c0,0.3,0,0.6,0,0.8
			c0,0.1,0,0.4,0,0.8c0,0.2-0.1,0.5-0.1,0.7c-0.1,0.2-0.1,0.4-0.2,0.5c0,0.1-0.1,0.1-0.1,0.2c0,0-0.1,0-0.1,0.1c0,0,0,0,0,0.1
			c0,0.1,0.1,0.2,0.1,0.2h2c0,0,0.1-0.1,0.1-0.1c0,0,0-0.1,0-0.1c-0.1,0-0.1-0.1-0.2-0.1c-0.1-0.1-0.2-0.2-0.2-0.3
			c-0.1-0.2-0.1-0.5-0.2-0.7c0-0.2,0-0.4,0-0.6c0-0.1,0-0.2,0-0.3c0-0.6,0-1.2,0-1.8c0-0.3,0-0.7,0-1c0,0,0.1,0.1,0.3,0.3
			c0.2,0.2,0.4,0.6,0.7,1c0.1,0.2,0.3,0.4,0.4,0.5c0.2,0.3,0.5,0.7,0.7,0.9c0.1,0.1,0.5,0.7,0.8,1.2c0.1,0.2,0.2,0.3,0.3,0.4
			c0,0.1,0.1,0.2,0.1,0.3c0,0.1,0.1,0.1,0.1,0.2c0,0,0.2,0,0.3,0c0.4,0,1.1,0,1.2,0c0-0.1,0.1-0.2,0.1-0.2c0,0,0,0,0,0
			c-0.1-0.1-0.1-0.2-0.2-0.2c0,0,0-0.1-0.1-0.1c-0.1-0.2-0.1-0.6-0.2-1c0-0.1,0-0.3,0-0.4c0-0.2,0-0.4,0-0.5c0-0.4,0-0.8,0-1.2
			c0-0.6,0-1.2,0-1.7c0,0,0-0.4,0.1-0.7c0-0.2,0.1-0.3,0.2-0.5c0.1-0.1,0.1-0.1,0.2-0.2c0,0,0.1-0.1,0.1-0.1c0,0,0,0,0,0
			c0,0-0.1-0.2-0.1-0.2h-1.9c0,0-0.2,0.2-0.1,0.2c0.1,0,0.4,0.2,0.5,0.5c0.1,0.2,0.1,0.8,0.1,1c0,0.2,0,3.5,0,3.5
			c-0.6-0.8-2.9-3.9-3-4.6C70.6,48.4,70.5,48,70.5,48L70.5,48L70.5,48z M146.1,48.1l-1.3,0l-0.6,0c0,0,0.2,0.2,0.3,0.5
			c0.1,0.1,0.1,0.2,0.1,0.3c0.1,0.2,0.1,0.3,0.2,0.5c0,0.1,0,0.2,0,0.2c0,0.2,0,0.4,0,0.6c0,0.1,0,0.4,0,0.7c0,0.3,0,0.7,0,1
			c0,0.3,0,0.6,0,0.8c0,0.1,0,0.4,0,0.8c0,0.2-0.1,0.5-0.1,0.7c-0.1,0.2-0.1,0.4-0.2,0.5c0,0.1-0.1,0.1-0.1,0.2c0,0-0.1,0-0.1,0.1
			c0,0,0,0,0,0.1c0,0.1,0.1,0.2,0.1,0.2h2c0,0,0-0.1,0.1-0.1c0,0,0-0.1,0-0.1c-0.1,0-0.1-0.1-0.2-0.1c-0.1-0.1-0.2-0.2-0.2-0.3
			c-0.1-0.2-0.1-0.5-0.1-0.7c0-0.2,0-0.4,0-0.6c0-0.1,0-0.2,0-0.3c0-0.6,0-1.2,0-1.8c0-0.3,0-0.7,0-1c0,0,0.1,0.1,0.3,0.3
			c0.2,0.3,0.4,0.6,0.7,1c0.1,0.2,0.3,0.4,0.4,0.6c0.2,0.3,0.5,0.6,0.7,0.9c0.1,0.1,0.5,0.7,0.8,1.2c0.1,0.2,0.2,0.3,0.3,0.4
			c0.1,0.1,0.1,0.2,0.1,0.3c0,0.1,0.1,0.1,0.1,0.2c0,0,0.2,0,0.3,0c0.4,0,1.1,0,1.2,0c0-0.1,0.1-0.2,0.1-0.2c0,0,0,0,0,0
			c-0.1-0.1-0.1-0.2-0.2-0.2c0,0,0-0.1-0.1-0.1c-0.1-0.2-0.1-0.6-0.1-1c0-0.1,0-0.3,0-0.4c0-0.2,0-0.4,0-0.6c0-0.4,0-0.8,0-1.2
			c0-0.6,0-1.2,0-1.7c0,0,0-0.4,0.1-0.7c0-0.2,0.1-0.3,0.2-0.5c0.1-0.1,0.1-0.1,0.2-0.2c0,0,0.1-0.1,0.1-0.1c0,0,0,0,0,0
			c0,0-0.1-0.2-0.1-0.2h-1.9c0,0-0.2,0.2-0.1,0.2c0.1,0,0.4,0.2,0.5,0.5c0.1,0.2,0.1,0.8,0.1,1c0,0.2,0,3.5,0,3.5
			c-0.6-0.8-2.9-3.9-3-4.6C146.1,48.5,146.1,48.1,146.1,48.1L146.1,48.1L146.1,48.1z M79.4,48l-1.9,0l-1.7,0c0,0-0.2,0.2-0.1,0.2
			c0,0,0.2,0.1,0.3,0.3c0.1,0.2,0.1,0.4,0.2,0.7c0,0.3,0,0.7,0,0.9c0,0.8,0,1.8,0,2.5c0,0.5,0,0.8-0.1,1.2c-0.1,0.3-0.2,0.6-0.4,0.8
			c-0.1,0.1-0.2,0.2-0.2,0.2c0,0,0,0.1,0,0.1c0,0,0,0.1,0.1,0.1c0,0,0.4,0,0.4,0c0.3,0,0.7,0,1.2,0c1.1,0,2.3,0,2.3,0l0.5-1.5
			c0,0-0.1-0.1-0.1-0.1c0,0-0.1,0-0.1,0c0,0-0.1,0.1-0.3,0.2c-0.5,0.3-0.9,0.4-1.4,0.5c-0.1,0-0.8,0.1-0.8,0.1c0-0.1,0-0.6,0-1.2
			c0-0.7,0-1.3,0-1.3c0,0,0.4,0,0.7,0.1c0.4,0.1,0.5,0.2,0.8,0.5c0,0,0.1,0,0.1,0c0,0,0.1-0.1,0.1-0.1l0-1.9c0,0-0.1,0-0.1-0.1
			c0,0-0.1,0-0.1,0c0,0.1-0.2,0.2-0.3,0.3c-0.2,0.1-0.4,0.2-0.5,0.3c-0.2,0.1-0.4,0.1-0.7,0.2c0,0,0,0,0,0c0,0,0,0,0-0.1
			c0-0.3,0-0.7,0-1c0-0.2,0-0.4,0-0.7c0-0.1,0-0.3,0-0.4c0,0,0.1,0,0.2,0c0.3,0,0.8,0.1,1.2,0.2c0.2,0.1,0.3,0.1,0.5,0.2
			c0.1,0,0.1,0.1,0.2,0.1c0.1,0,0.2,0,0.2-0.1L79.4,48L79.4,48z M155.3,48.2l-1.9,0l-1.7,0c0,0-0.2,0.2-0.1,0.2c0,0,0.2,0.1,0.3,0.3
			c0.1,0.2,0.1,0.4,0.2,0.7c0,0.3,0,0.7,0,0.9c0,0.8,0,1.8,0,2.5c0,0.5,0,0.8-0.1,1.2c-0.1,0.3-0.2,0.6-0.4,0.8
			c-0.1,0.1-0.2,0.2-0.2,0.2c0,0,0,0.1,0,0.1c0,0,0,0.1,0.1,0.1c0,0,0.4,0,0.4,0c0.3,0,0.7,0,1.2,0c1.1,0,2.3,0,2.3,0l0.5-1.5
			c0,0-0.1-0.1-0.1-0.1c0,0-0.1,0-0.1,0c0,0-0.1,0.1-0.3,0.2c-0.5,0.3-0.9,0.4-1.4,0.5c-0.1,0-0.8,0.1-0.8,0.1c0-0.1,0-0.6,0-1.2
			c0-0.7,0-1.3,0-1.3s0.4,0,0.7,0.1c0.4,0.1,0.5,0.2,0.8,0.5c0,0,0.1,0,0.1,0c0,0,0.1-0.1,0.1-0.1l0-1.9c0,0-0.1,0-0.1-0.1
			c0,0-0.1,0-0.1,0c0,0.1-0.2,0.2-0.3,0.3c-0.2,0.1-0.4,0.2-0.5,0.3c-0.2,0.1-0.4,0.1-0.7,0.2c0,0,0,0,0,0c0,0,0,0,0-0.1
			c0-0.3,0-0.7,0-1c0-0.2,0-0.4,0-0.7c0-0.1,0-0.3,0-0.4c0,0,0.1,0,0.2,0c0.3,0,0.8,0.1,1.2,0.2c0.2,0.1,0.3,0.1,0.5,0.2
			c0.1,0,0.1,0.1,0.2,0.1c0.1,0,0.2,0,0.2-0.1L155.3,48.2L155.3,48.2z M91,48.1l-1.9,0l-1.7,0c0,0-0.2,0.2-0.1,0.2
			c0,0,0.2,0.1,0.3,0.3c0.1,0.2,0.1,0.4,0.2,0.7c0,0.3,0,0.7,0,0.9c0,0.8,0,1.8,0,2.5c0,0.5,0,0.8-0.1,1.2c-0.1,0.3-0.2,0.6-0.4,0.8
			c-0.1,0.1-0.2,0.2-0.2,0.2c0,0,0,0.1,0,0.1c0,0,0,0.1,0.1,0.1c0,0,0.4,0,0.4,0c0.3,0,0.7,0,1.2,0c1.1,0,2.3,0,2.3,0l0.5-1.5
			c0,0-0.1-0.1-0.1-0.1c0,0-0.1,0-0.1,0c0,0-0.1,0.1-0.3,0.2c-0.5,0.3-0.9,0.4-1.4,0.5c-0.1,0-0.8,0.1-0.8,0.1c0-0.1,0-0.6,0-1.2
			c0-0.7,0-1.3,0-1.3s0.4,0,0.7,0.1c0.4,0.1,0.5,0.2,0.8,0.5c0,0,0.1,0,0.1,0c0,0,0.1-0.1,0.1-0.1l0-1.9c0,0-0.1,0-0.1-0.1
			c0,0-0.1,0-0.1,0c0,0.1-0.2,0.2-0.3,0.3c-0.2,0.1-0.4,0.2-0.5,0.3c-0.2,0.1-0.4,0.1-0.7,0.2c0,0,0,0,0,0c0,0,0,0,0-0.1
			c0-0.3,0-0.7,0-1c0-0.2,0-0.4,0-0.7c0-0.1,0-0.3,0-0.4c0,0,0.1,0,0.2,0c0.3,0,0.8,0.1,1.2,0.2c0.2,0.1,0.3,0.1,0.5,0.2
			c0.1,0,0.1,0.1,0.2,0.1c0.1,0,0.2,0,0.2-0.1L91,48.1L91,48.1z M82.6,48l-2.2,0c0,0-0.2,0-0.3,0c-0.1,0-0.2,0.1-0.1,0.1
			c0.1,0.1,0.2,0.1,0.2,0.2c0.1,0.1,0.3,0.3,0.4,0.5c0.2,0.2,0.4,0.7,0.5,1c0.2,0.4,0.4,1,0.6,1.6c0.6,1.7,1.4,3.6,1.4,3.6h0.8
			l0.7-1.8l0.7-1.8l0.4-1.1c0.2-0.4,0.3-0.9,0.6-1.3c0.1-0.2,0.3-0.4,0.4-0.5c0.1-0.1,0.2-0.1,0.2-0.2c0,0,0-0.1,0-0.2
			c0,0,0-0.1-0.1-0.1c-0.1,0-0.5,0-0.9,0c-0.5,0-1.1,0-1.1,0c0,0-0.1,0-0.1,0.1c0,0,0.2,0.2,0.2,0.3c0,0.1,0.1,0.2,0.1,0.3
			c0,0.1,0.1,0.3,0,0.4c-0.1,0.4-1.4,4.5-1.4,4.5l-1.2-3.8c0,0-0.2-1.2,0.3-1.6C83.2,47.9,82.6,48,82.6,48L82.6,48L82.6,48z
			 M93.6,48.9l0,2.4c0,0,0.2,0,0.5-0.1c0.6-0.2,1-0.6,1-1.1c0-0.5-0.3-1-0.8-1.1C94,48.8,93.8,48.8,93.6,48.9L93.6,48.9L93.6,48.9z
			 M92.1,48C92.1,48,92,48.1,92.1,48c-0.1,0.1-0.1,0.2-0.1,0.2c0.1,0.1,0.2,0.1,0.2,0.2c0.1,0.1,0.2,0.4,0.2,0.6c0,0.2,0,0.3,0,0.5
			c0,0.4,0,0.9,0,1.5c0,0.4,0,0.8,0,1.2c0,0.5,0,1.1-0.1,1.6c0,0.2-0.1,0.4-0.2,0.6c0,0.1-0.2,0.3-0.3,0.3c0,0-0.1,0-0.1,0
			c0,0,0,0.1,0.1,0.2c0,0,0,0,0,0c0.2,0,0.5,0,0.8,0c0.4,0,0.8,0,1.1,0c0,0,0.1,0,0.1,0c0,0,0.1,0,0.1-0.1c0-0.1-0.1-0.1-0.1-0.1
			c-0.2-0.2-0.3-0.3-0.3-0.5c0-0.1,0-0.2,0-0.4c0-0.3,0-0.7,0-1.1c0-0.5,0-0.9,0-0.9s0.1,0,0.1,0c0,0,0.1,0.2,0.1,0.2
			c0.1,0.1,0.3,0.6,0.6,1.1c0.1,0.1,0.3,0.5,0.6,0.9c0.3,0.3,0.5,0.5,0.5,0.6c0.1,0.1,0.4,0.3,0.8,0.4c0.5,0.1,1,0.1,1.1,0
			c0.1-0.1,0.1-0.2,0.1-0.2c-0.1-0.1-0.3-0.1-0.5-0.2c-0.1-0.1-0.2-0.2-0.4-0.3c-0.1-0.2-0.3-0.4-0.5-0.6c-0.1-0.1-0.6-0.9-0.9-1.5
			c0,0-0.3-0.6-0.4-0.8c0,0,0-0.1,0-0.1c0.1,0,0.2-0.1,0.4-0.2c0.2-0.1,0.5-0.3,0.7-0.6c0.1-0.2,0.2-0.4,0.3-0.5c0-0.1,0-0.4,0-0.7
			c0-0.2-0.1-0.5-0.2-0.7c-0.2-0.2-0.4-0.4-0.6-0.6c-0.3-0.2-0.9-0.3-1.3-0.4c-0.1,0-0.2,0-0.3,0C93.2,48.1,92.6,48.1,92.1,48
			L92.1,48L92.1,48z M100.5,48l-1.2,0l-1,0c0,0-0.1,0-0.1,0c-0.1,0-0.2,0.1-0.2,0.2c0,0,0,0,0,0c0.2,0.1,0.4,0.2,0.6,0.4
			c0.3,0.4,0.5,1.1,0.6,1.6c0.2,0.6,0.5,1.5,0.7,2.3c0.4,1.3,0.8,2.4,0.8,2.4l0.3,0l0.3,0l0.5-1.6l0.8-2.3l1.3,4h0.7l0.8-2.3
			l0.8-2.3l0.3-0.8c0,0,0-0.1,0.1-0.3c0.1-0.3,0.4-0.8,0.7-0.9c0.1-0.1,0.2-0.1,0.3-0.1c0,0,0,0,0,0c0-0.1-0.2-0.1-0.2-0.2
			c-0.2-0.1-0.5,0-0.7,0c-0.6,0-1.4,0-1.4,0l-0.1,0.2c0,0,0.2,0,0.3,0.2c0.2,0.2,0.2,0.4,0.2,0.7c-0.2,0.9-1.1,3.6-1.1,3.6l-1.5-4.7
			l-0.2,0l-1.5,4.7l-0.9-3.2c0,0-0.1-0.5,0-0.9c0-0.1,0.1-0.2,0.1-0.2c0,0,0.3-0.2,0.3-0.2C100.6,48.1,100.5,48,100.5,48L100.5,48
			L100.5,48z M108.9,49.8l-1.2,3l2.3,0L108.9,49.8L108.9,49.8z M105.3,54.9l0.1,0.2l2.3,0c0.1,0,0.1-0.2,0.1-0.2
			c-0.1,0-0.2-0.1-0.3-0.2c-0.1-0.1-0.2-0.4-0.2-0.5c0-0.1,0-0.3,0.1-0.4c0.1-0.2,0.1-0.2,0.1-0.2l2.8,0l0.2,0.5c0,0,0,0.1,0,0.2
			c0,0.1,0,0.2-0.1,0.4c0,0.1-0.2,0.2-0.3,0.3c0,0-0.1,0-0.1,0c0,0,0.1,0.2,0.1,0.2h1.1h1.5c0,0,0.1,0,0.1-0.1c0,0,0.1-0.1,0-0.1
			c-0.1,0-0.2,0-0.2-0.1c-0.1-0.1-0.2-0.2-0.3-0.2c-0.1-0.1-0.3-0.4-0.4-0.5c-0.1-0.2-0.2-0.5-0.3-0.7c-0.2-0.5-0.5-1.2-0.8-1.9
			c-0.3-0.8-0.7-1.6-0.9-2.3c-0.3-0.6-0.5-1.1-0.5-1.1s-0.7-0.1-0.7,0c0,0-0.5,1.3-1,2.5c-0.4,0.9-1,2.6-1.6,3.5
			C106,54.3,105.6,54.8,105.3,54.9L105.3,54.9L105.3,54.9z M129.2,49.8l-1.2,3l2.3,0L129.2,49.8L129.2,49.8z M125.5,54.9l0.1,0.2
			l2.3,0c0.1,0,0.1-0.2,0.1-0.2c-0.1,0-0.2-0.1-0.3-0.2c-0.1-0.1-0.2-0.4-0.2-0.5c0-0.1,0-0.3,0.1-0.4c0.1-0.2,0.1-0.2,0.1-0.2
			l2.8,0l0.2,0.5c0,0,0,0.1,0,0.2c0,0.1,0,0.2-0.1,0.4c0,0.1-0.2,0.2-0.3,0.3c0,0-0.1,0-0.1,0c0,0,0.1,0.2,0.1,0.2h1.1h1.5
			c0,0,0.1,0,0.1-0.1c0,0,0.1-0.1,0-0.1c-0.1,0-0.2,0-0.2-0.1c-0.1-0.1-0.2-0.2-0.3-0.2c-0.1-0.1-0.3-0.4-0.4-0.5
			c-0.1-0.2-0.2-0.5-0.3-0.7c-0.2-0.5-0.5-1.2-0.8-1.9c-0.3-0.8-0.7-1.6-0.9-2.3c-0.3-0.6-0.5-1.1-0.5-1.1s-0.7-0.1-0.7,0
			c0,0-0.5,1.3-1,2.5c-0.4,0.9-1,2.6-1.6,3.5C126.3,54.4,125.8,54.9,125.5,54.9L125.5,54.9L125.5,54.9z M118.1,48.1
			c-0.1,0-0.1,0.2-0.1,0.2c0.1,0.1,0.3,0.1,0.4,0.2c0.1,0.1,0.2,0.3,0.2,0.5c0,0.2,0,1.1,0,2.1c0,1,0,2.1,0,2.1
			c0,0.3-0.1,0.8-0.2,1.2c-0.1,0.1-0.1,0.2-0.2,0.3c-0.1,0.1-0.3,0.1-0.2,0.1c0,0.1,0.1,0.3,0.1,0.3c0.1,0,0.5,0,1,0
			c0.6,0,1.2,0,1.2,0c0,0,0,0,0.1-0.1c0,0,0.1-0.2,0.1-0.2c-0.1-0.1-0.2-0.1-0.4-0.3c-0.1-0.2-0.2-0.4-0.2-0.6c0-0.3,0-0.6,0-0.8
			c0-0.8,0-1.6,0-1.6l2.8,3.6h1.8c0,0,0,0,0.1-0.1c0,0,0-0.1,0-0.1c-0.1-0.1-0.3-0.2-0.4-0.2c-0.1,0-0.1-0.1-0.2-0.1
			c-0.6-0.5-1.2-1.1-1.6-1.7c-0.7-0.9-1.4-1.8-1.4-1.8c0-0.1,0.6-0.6,1.1-1.2c0.5-0.5,1.1-1,1.1-1c0.3-0.3,0.6-0.5,1-0.5
			c0,0-0.1-0.2-0.2-0.2c-0.1,0-0.5,0-0.8,0c-0.6,0-1.2,0-1.5,0c0,0-0.2,0.1-0.1,0.2c0,0.1,0.1,0.1,0.1,0.3c-0.1,0.3-0.3,0.7-0.7,1
			c-0.4,0.5-1.1,1.2-1.1,1.3l0-1.6c0-0.2,0.2-0.7,0.5-0.9c0.1-0.1,0.1-0.1,0.2-0.1c0,0,0-0.1,0-0.1c0-0.1,0-0.1-0.1-0.1
			c-0.4,0-1.2,0-1.8,0C118.4,48.1,118.2,48.1,118.1,48.1L118.1,48.1L118.1,48.1z M39.5,54.8c0,0.1,0,0.2,0.1,0.2
			c0.8,0,1.5,0.1,2.2,0c0.1-0.1,0.1-0.2,0.1-0.2c-0.3-0.1-0.4-0.3-0.5-0.6c0-0.2-0.1-0.4-0.1-0.6c0-0.2,0-0.5,0-0.7
			c0-0.4,0-0.7,0-1.1c0.2-0.4,0.4-0.8,0.6-1.3c0.3-0.5,0.6-1.2,1-1.6c0,0,0.4-0.4,0.5-0.5c0.2-0.1,0.3-0.2,0.5-0.3c0,0,0-0.1,0-0.1
			l0,0c0,0-0.1-0.1-0.1-0.1c-0.7,0-1.4,0-2.1,0c-0.1,0.1-0.1,0.1-0.1,0.2c0.2,0.2,0.2,0.4,0.3,0.5c0,0.3-0.7,1.8-0.9,2
			c-0.2-0.3-0.4-0.6-0.6-0.9c-0.1-0.3-0.4-0.7-0.4-1c0-0.1,0-0.2,0-0.3c0.1-0.2,0.3-0.3,0.5-0.4c0-0.1,0-0.1-0.1-0.2
			c-1,0-1.9,0-2.8,0c-0.1,0.1-0.1,0.2-0.1,0.3c0.3,0.1,0.5,0.2,0.7,0.4c0.4,0.3,0.6,0.8,0.9,1.2c0,0,1,1.7,1.1,1.9v0.6
			c0,0.1,0,0.3,0,0.4c0,0.2,0,0.5,0,0.7c0,0.2,0,0.3-0.1,0.5c0,0.1-0.1,0.2-0.1,0.3C39.9,54.3,39.7,54.6,39.5,54.8L39.5,54.8
			L39.5,54.8z"/>
		<g>
			<path class="st4" d="M157.6,108.5c0,0,0.1,0.5,0.6,1.3c0.5,0.8,0.6,1.4,0.6,1.4l0.5-1.3l0.3-3l-1-3.6l-1,1V108.5L157.6,108.5z"/>
			<path class="st4" d="M155.5,136.9c0,0,1.8,0,2.4-0.2c0.6-0.2,1-4.1,1-4.1l-1.7-6.2l-3-6.5l-2,3.5l-2.4,3.4l-0.9,3.8l0.8,3.5
				l1.2,2.7c0,0,1.6-0.1,2.2-0.1C153.7,136.7,155.5,136.9,155.5,136.9L155.5,136.9L155.5,136.9z"/>
			<path class="st2" d="M150.5,100.1c0,1.5,0.5,2.3,0.6,3.8c0,0.2,0.1,0.4,0,0.6c0,0,0.1,0.1,0.1,0c0.1-0.3,0.3-0.4,0.4-0.6
				c0.2-0.3,0.3-0.5,0.4-0.8c0.1-0.3,0.2-0.5,0.2-0.9c0.1-0.5,0.1-1,0.1-1.4c0,0,0,0,0,0c0.1-0.5,0-1.2,0-1.8c0-0.7,0-1.4,0.2-2.3
				c0.1-0.6,0.3-0.9,0.5-1.4c0.1-0.2,0.3-0.5,0.2-0.5c-0.1-0.1-0.3,0.1-0.4,0.1c-1.7,1-2.4,2.7-2.4,4.8
				C150.5,100,150.5,100,150.5,100.1L150.5,100.1L150.5,100.1z"/>
			<path class="st2" d="M159.3,98.8c-1.6,1.2-2.3,2.9-2.5,5.1c-0.1,1,0,1.6,0.2,2.7c0.1,0.2,0.1,0.4,0.2,0.6
				c0.1,0.5,0.2,0.9,0.4,1.3c0,0.1,0.1,0.1,0.1,0c0-0.8-0.1-1.5,0.1-2.5c0.1-0.7,0.3-1.3,0.6-1.8c0,0,0.1,0.1,0.1,0.2
				c0.3,0.8,0.5,1.5,0.6,2.6c0.2,1.6,0.1,2.8-0.3,4.1c0,0.1,0.1,0.2,0.2,0.1c0.8-0.9,1.2-1.8,1.5-3.1c0.3-1.2,0.2-2,0-3.2
				c-0.3-1.4-0.8-2.1-0.9-3.4c-0.1-1-0.1-1.7,0.2-2.6c0-0.1,0-0.1-0.1-0.1C159.6,98.6,159.4,98.8,159.3,98.8L159.3,98.8L159.3,98.8z
				"/>
			<path class="st2" d="M153.8,103.2c-2.7,2.9-2.6,5.7-3.1,9.5c-0.1,0.6-0.1,1.1-0.2,1.6c-0.7-0.7-1.6-1.1-2.6-1
				c0,0.1,0,0.1,0.1,0.2c0.9,1.5,0.9,3.6,0.4,5.3c-0.2,1-0.6,1.9-1,2.8c-0.2,0.6-0.5,1.2-0.7,1.9c-0.5,1.4-0.7,3-0.8,4.5
				c0,2.1,0.4,4.3,1.7,6c0.3,0.5,0.7,0.9,1,1.3c0.5,0.4,1,0.9,1.6,1.2c0.3,0.1,0.6,0.3,0.9,0.3c-0.5-1.1-1.2-2.3-1.3-3.6
				c-0.1-0.8-0.2-1.6-0.1-2.4c0.1-1.8,0.8-3.4,1.8-4.9c0.9-1.2,1.8-2.4,2.3-3.7c0.4,1.6,1,3.3,1.9,4.7c0.3,0.5,0.7,1,0.9,1.5
				c0.8,1.2,1.4,2.5,1.7,4c0.2,1.5,0.1,3.1-0.7,4.3c0,0.1,0.1,0,0.1,0.1l0,0l0,0c1.4-0.2,2.6-1.2,3.5-2.3c1.7-2.2,2.2-4.9,2-7.6
				c0-1.1-0.1-2.1,0-3.2c0.1-1.4,0.3-2.8,0.9-4c0,0-0.1-0.1-0.1-0.1c-0.7,0.2-1.4,0.5-2,1c-0.7,0.5-1.2,1-1.7,1.7
				c0.1-3.1-1.1-6.2-2.4-9c-0.5-1.2-1.1-2.3-1.6-3.4c-1-2.2-1.9-4.6-1.8-7.2c0-0.1,0-0.1,0-0.2C154.3,102.5,154.1,102.9,153.8,103.2
				L153.8,103.2L153.8,103.2z"/>
			<path class="st4" d="M153.6,108.8c-0.5,2.8-1,5.7-1.9,8.3c-0.4,1.3-0.9,2.5-1.4,3.8c-0.7,1.7-1.5,3.3-2.1,5.1
				c-0.7,2.2-0.6,4.7,0.2,6.8c0.2,0.5,0.5,1.1,0.8,1.5c0-0.3-0.2-0.6-0.2-0.9c-0.6-2.6-0.4-4.3,0.4-6.9c0.3-0.9,0.6-1.4,1-2.3
				c0.4-0.8,0.7-1.3,1.2-2.1c0.1-0.1,0.1-0.2,0.2-0.3c0.3-0.4,0.5-0.7,0.7-1.1c0.3-0.5,0.4-0.8,0.6-1.4c0.5-1.2,0.8-2.2,0.8-3.3
				c0-0.1,0.1,0,0.1,0c0.9,1,1.4,2.2,1.7,3.4c0.2,1,0.5,2,0.7,3c0.5,1.6,1.2,3.1,1.9,4.5c1,2.3,1.7,5,1.2,7.6c0,0,0,0,0-0.1
				c0,0,0,0,0.1,0c0.6-0.6,1-1.3,1.3-2.1c0.4-0.8,0.5-1.7,0.7-2.7c0.3-1.8,0-3.6-0.4-5.4c-0.4,0.3-0.7,0.7-1,1.1
				c-0.2,0.3-0.3,0.6-0.5,0.8c0,0-0.1,0-0.1,0c-0.1-2.3-0.9-4.3-1.7-6.4c-0.4-0.9-0.8-1.9-1.2-2.8c-0.5-1-1-2-1.4-2.9
				C154.5,112.4,153.8,110.6,153.6,108.8L153.6,108.8L153.6,108.8z"/>
			<path class="st2" d="M153.7,126.6c-1.9,1.6-2.5,4.3-2.2,6.7c0.2,0.8,0.4,1.5,0.7,2.2c0.3,0.5,0.6,1,1.1,1.3
				c0-0.1,0.2-0.1,0.1-0.2c-0.3-0.7-0.5-1.5-0.5-2.2c0-1.1,0.2-2.2,0.8-3c0.1-0.1,0.1-0.2,0.2-0.2c0.1,0.8,0.6,1.5,1,2.3
				c0.2,0.4,0.4,0.8,0.5,1.3c0.1,0.5,0.1,1.1,0.1,1.6c-0.1,0.2-0.1,0.4-0.1,0.5c0.3,0,0.4-0.2,0.6-0.4c0.2-0.2,0.3-0.4,0.5-0.6
				c0.5-0.9,0.5-1.6,0.4-2.6c0-0.4-0.1-0.6-0.2-1c-0.3-1.1-0.7-1.6-1.3-2.6c-0.6-1-1.2-1.4-1.4-2.4c0-0.2-0.1-0.6-0.1-0.6
				C153.8,126.4,153.7,126.5,153.7,126.6L153.7,126.6L153.7,126.6z"/>
		</g>
		<path class="st3" d="M148.8,145.4c0.1-1.4,1.7-1.3,3.2-1.4c0-0.6,0-1.3,0-1.9c1.4,0,2.8,0,4.2,0c0,0.7-0.1,1.5,0.1,2
			c1.3-0.2,2.9-0.1,3.1,1c0.4,1.8-1.5,2.2-3.2,2c0,1,0,1.9,0,2.9c-1.5,0-2.9-0.1-4.1-0.3c-0.2-0.7,0-1.7-0.1-2.5
			C150.2,147.3,148.7,146.8,148.8,145.4L148.8,145.4z M44.5,145.4c-0.1-1.4-1.7-1.3-3.2-1.4c0-0.6,0-1.3,0-1.9c-1.4,0-2.8,0-4.2,0
			c0,0.7,0.1,1.5-0.1,2c-1.3-0.2-2.9-0.1-3.1,1c-0.4,1.8,1.5,2.2,3.2,2c0,1,0,1.9,0,2.9c1.5,0,2.9-0.1,4.1-0.3
			c0.2-0.7,0-1.7,0.1-2.5C43.1,147.3,44.6,146.8,44.5,145.4L44.5,145.4z M37.1,141.1c1.3-0.1,3-0.1,4.4,0c0.5-1.3,1.6-2.2,2.9-2.8
			c-0.4-0.5-1.3-0.5-2.1-0.7c-2-0.4-4.6-0.4-6.5,0c-0.7,0.1-1.4,0.2-1.9,0.6C35.2,138.8,36.3,139.8,37.1,141.1L37.1,141.1z
			 M156.2,141.1c-1.3-0.1-3-0.1-4.4,0c-0.5-1.3-1.6-2.2-2.9-2.8c0.4-0.5,1.3-0.5,2.1-0.7c2-0.4,4.6-0.4,6.5,0
			c0.7,0.1,1.4,0.2,1.9,0.6C158,138.8,157,139.8,156.2,141.1L156.2,141.1z"/>
	</g>
</g>
</svg>
