<?xml version="1.0" encoding="utf-8"?>
<!-- Generator: Adobe Illustrator 25.2.0, SVG Export Plug-In . SVG Version: 6.00 Build 0)  -->
<svg version="1.1" id="Layer_1" xmlns="http://www.w3.org/2000/svg" xmlns:xlink="http://www.w3.org/1999/xlink" x="0px" y="0px"
	 viewBox="0 0 192.8 192.8" style="enable-background:new 0 0 192.8 192.8;" xml:space="preserve">
<style type="text/css">
	.st0{fill-rule:evenodd;clip-rule:evenodd;fill:#FFFFFF;}
	.st1{fill-rule:evenodd;clip-rule:evenodd;fill:#312782;}
	.st2{fill-rule:evenodd;clip-rule:evenodd;fill:#E20613;}
	.st3{fill-rule:evenodd;clip-rule:evenodd;fill:#D6B36A;}
</style>
<g>
	<path class="st0" d="M96.4,2.7c51.6,0,93.7,42.1,93.7,93.7c0,51.6-42.1,93.7-93.7,93.7S2.7,148,2.7,96.4
		C2.7,44.8,44.8,2.7,96.4,2.7L96.4,2.7z"/>
	<path class="st1" d="M30.2,162.6L162.6,30.4c16.9,16.9,27.5,40.3,27.5,66c0,51.6-42.1,93.7-93.7,93.7
		C70.6,190.1,47.1,179.7,30.2,162.6L30.2,162.6z"/>
	<path class="st0" d="M117.7,120.7c9.1,0,16.6,7.5,16.6,16.8c0,9.1-7.5,16.6-16.6,16.6c-9.3,0-16.8-7.5-16.8-16.6
		C100.9,128.2,108.4,120.7,117.7,120.7L117.7,120.7z M134,112.1c-4.7-3-10.3-4.7-16.3-4.7c-16.5,0-30,13.6-30,30
		c0,16.5,13.6,30,30,30c6.1,0,11.6-1.8,16.3-4.8v0.7h21.9v-14.4h-7.6V63.1h-33.2v14.4H134V112.1L134,112.1z"/>
	<path class="st2" d="M162.6,30.2l-10,10V21.3C156.1,24.1,159.5,27,162.6,30.2L162.6,30.2z"/>
	<path class="st2" d="M115.1,4.5c-4-0.8-8-1.3-12-1.7H89.7c-4.1,0.4-8.2,1-12.1,1.7v35.7h37.5V4.5L115.1,4.5z"/>
	<path class="st2" d="M40.2,21.6c-7.1,5.3-13.4,11.6-18.8,18.6h18.8V21.6L40.2,21.6z"/>
	<polygon class="st2" points="40.2,40.2 77.6,40.2 77.6,77.6 40.2,77.6 40.2,40.2 	"/>
	<polygon class="st2" points="115.1,63.1 129.7,63.1 152.6,40.2 115.1,40.2 115.1,63.1 	"/>
	<polygon class="st2" points="115.1,77.6 77.6,115.1 77.6,77.6 115.1,77.6 	"/>
	<path class="st2" d="M4.6,115.1c-1.2-6.1-1.8-12.3-1.8-18.8c0-6.4,0.6-12.7,1.8-18.8h35.6v37.5H4.6L4.6,115.1z"/>
	<path class="st2" d="M77.6,115.1l-37.4,37.4H21.7c2.5,3.5,5.4,6.9,8.5,10l10-10v-37.4H77.6L77.6,115.1z"/>
	<path class="st3" d="M96.4,5l4.7,0.1l4.6,0.4l4.6,0.6l4.5,0.8l4.4,1l4.3,1.2l4.2,1.4l4.1,1.6l4,1.8l3.9,2l3.8,2.2l3.7,2.4l3.6,2.6
		l3.5,2.7l3.3,2.9l3.2,3l3,3.2l2.9,3.3l2.7,3.5l2.6,3.6l2.4,3.7l2.2,3.8l2,3.9l1.8,4l1.6,4.1l1.4,4.2l1.2,4.3l1,4.4l0.8,4.5l0.6,4.6
		l0.4,4.6l0.1,4.7l-0.1,4.7l-0.4,4.6l-0.6,4.6l-0.8,4.5l-1,4.4l-1.2,4.3l-1.4,4.2l-1.6,4.1l-1.8,4l-2,3.9l-2.2,3.8l-2.4,3.7
		l-2.6,3.6l-2.7,3.5l-2.9,3.3l-3,3.2l-3.2,3l-3.3,2.9l-3.5,2.7l-3.6,2.6l-3.7,2.4l-3.8,2.2l-3.9,2l-4,1.8l-4.1,1.6l-4.2,1.4
		l-4.3,1.2l-4.4,1l-4.5,0.8l-4.6,0.6l-4.6,0.4l-4.7,0.1l-4.7-0.1l-4.6-0.4l-4.6-0.6l-4.5-0.8l-4.4-1l-4.3-1.2l-4.2-1.4l-4.1-1.6
		l-4-1.8l-3.9-2l-3.8-2.2l-3.7-2.4l-3.6-2.6l-3.5-2.7L35,164l-3.2-3l-3-3.2l-2.9-3.3l-2.7-3.5l-2.6-3.6l-2.4-3.7l-2.2-3.8l-2-3.9
		l-1.8-4l-1.6-4.1l-1.4-4.2l-1.2-4.3l-1-4.4L6,110.3l-0.6-4.6l-0.4-4.6L5,96.4l0.1-4.7l0.4-4.6L6,82.5L6.8,78l1-4.4l1.2-4.3l1.4-4.2
		l1.6-4.1l1.8-4l2-3.9l2.2-3.8l2.4-3.7l2.6-3.6l2.7-3.5l2.9-3.3l3-3.2l3.2-3l3.3-2.9l3.5-2.7l3.6-2.6l3.7-2.4l3.8-2.2l3.9-2l4-1.8
		l4.1-1.6l4.2-1.4l4.3-1.2l4.4-1L82.5,6l4.6-0.6l4.6-0.4L96.4,5L96.4,5z M96.4,0.4l4.9,0.1l4.9,0.4l4.8,0.6l4.7,0.8l4.6,1.1l4.5,1.3
		l4.5,1.5l4.4,1.7l4.2,1.9l4.1,2.1l4,2.3l3.9,2.5l3.8,2.7l3.6,2.9l3.5,3l3.3,3.2l3.2,3.3l3,3.5l2.9,3.6l2.7,3.8l2.5,3.9l2.3,4
		l2.1,4.1l1.9,4.3l1.7,4.4l1.5,4.5l1.3,4.5l1.1,4.6l0.8,4.7l0.6,4.8l0.4,4.9l0.1,4.9l-0.1,4.9l-0.4,4.9l-0.6,4.8l-0.8,4.7l-1.1,4.6
		l-1.3,4.5l-1.5,4.5l-1.7,4.4l-1.9,4.2l-2.1,4.1l-2.3,4l-2.5,3.9l-2.7,3.8l-2.9,3.6l-3,3.5l-3.2,3.3l-3.3,3.2l-3.5,3l-3.6,2.9
		l-3.8,2.7l-3.9,2.5l-4,2.3l-4.1,2.1l-4.2,1.9l-4.4,1.7l-4.5,1.5l-4.5,1.3l-4.6,1.1l-4.7,0.8l-4.8,0.6l-4.9,0.4l-4.9,0.1l-4.9-0.1
		l-4.9-0.4l-4.8-0.6l-4.7-0.8l-4.6-1.1l-4.5-1.3l-4.5-1.5l-4.4-1.7l-4.3-1.9l-4.1-2.1l-4-2.3l-3.9-2.5l-3.8-2.7l-3.6-2.9l-3.5-3
		l-3.3-3.2l-3.2-3.3l-3-3.5l-2.9-3.6l-2.7-3.8l-2.5-3.9l-2.3-4l-2.1-4.1l-1.9-4.2l-1.7-4.4l-1.5-4.5l-1.3-4.5l-1.1-4.6L1.5,111
		l-0.6-4.8l-0.4-4.9l-0.1-4.9l0.1-4.9l0.4-4.9l0.6-4.8l0.8-4.7l1.1-4.6l1.3-4.5l1.5-4.5l1.7-4.4l1.9-4.3l2.1-4.1l2.3-4l2.5-3.9
		l2.7-3.8l2.9-3.6l3-3.5l3.2-3.3l3.3-3.2l3.5-3l3.6-2.9l3.8-2.7l3.9-2.5l4-2.3l4.1-2.1l4.3-1.9l4.4-1.7l4.5-1.5l4.5-1.3l4.6-1.1
		l4.7-0.8l4.8-0.6l4.9-0.4L96.4,0.4L96.4,0.4z"/>
	<path class="st3" d="M117.7,122.4l0.8,0l0.8,0.1l0.7,0.1l0.7,0.1l0.7,0.2l0.7,0.2l0.7,0.2l0.7,0.3l0.7,0.3l0.6,0.3l0.6,0.4l0.6,0.4
		l0.6,0.4l0.6,0.4l0.5,0.5l0.5,0.5l0.5,0.5l0.5,0.6l0.4,0.6l0.4,0.6l0.4,0.6l0.4,0.6l0.3,0.7l0.3,0.7l0.3,0.7l0.2,0.7l0.2,0.7
		l0.2,0.7l0.1,0.7l0.1,0.8l0.1,0.8l0,0.8l0,0.8l-0.1,0.8l-0.1,0.7l-0.1,0.7l-0.2,0.7l-0.2,0.7l-0.2,0.7l-0.3,0.7l-0.3,0.7l-0.3,0.6
		l-0.4,0.6l-0.4,0.6l-0.4,0.6l-0.4,0.6l-0.5,0.5l-0.5,0.5l-0.5,0.5l-0.5,0.5l-0.6,0.4l-0.6,0.4l-0.6,0.4l-0.6,0.4l-0.6,0.3l-0.7,0.3
		l-0.7,0.3l-0.7,0.2l-0.7,0.2l-0.7,0.2l-0.7,0.1l-0.7,0.1l-0.8,0.1l-0.8,0l-0.8,0l-0.8-0.1l-0.8-0.1l-0.7-0.1l-0.7-0.2l-0.7-0.2
		l-0.7-0.2l-0.7-0.3l-0.7-0.3l-0.7-0.3l-0.6-0.4l-0.6-0.4l-0.6-0.4L108,149l-0.6-0.5l-0.5-0.5l-0.5-0.5L106,147l-0.4-0.6l-0.4-0.6
		l-0.4-0.6l-0.4-0.6L104,144l-0.3-0.7l-0.3-0.7l-0.2-0.7l-0.2-0.7l-0.2-0.7l-0.1-0.7l-0.1-0.7l-0.1-0.8l0-0.8l0-0.8l0.1-0.8l0.1-0.8
		l0.1-0.7l0.2-0.7l0.2-0.7l0.2-0.7l0.3-0.7l0.3-0.7l0.3-0.7l0.4-0.6l0.4-0.6l0.4-0.6l0.4-0.6l0.5-0.5l0.5-0.5l0.5-0.5l0.5-0.5
		l0.6-0.4l0.6-0.4l0.6-0.4l0.6-0.4l0.7-0.3l0.7-0.3l0.7-0.3l0.7-0.2l0.7-0.2l0.7-0.2l0.7-0.1l0.8-0.1l0.8-0.1L117.7,122.4
		L117.7,122.4z M125.7,106.7l-0.6-0.1l-0.6-0.1l-0.6-0.1l-0.6-0.1l-0.6-0.1l-0.6-0.1l-0.6-0.1l-0.6-0.1l-0.6-0.1l-0.6,0l-0.6,0
		l-0.6,0l-0.6,0l-0.6,0l-1.6,0l-1.6,0.1l-1.6,0.2l-1.6,0.3l-1.5,0.4l-1.5,0.4l-1.5,0.5l-1.4,0.6l-1.4,0.6l-1.4,0.7l-1.3,0.8
		l-1.3,0.8l-1.2,0.9l-1.2,0.9l-1.2,1l-1.1,1.1l-1.1,1.1l-1,1.2l-0.9,1.2l-0.9,1.2l-0.8,1.3l-0.8,1.3l-0.7,1.4l-0.6,1.4l-0.6,1.4
		l-0.5,1.5l-0.4,1.5l-0.4,1.5l-0.3,1.6l-0.2,1.6l-0.1,1.6l0,1.6l0,1.6l0.1,1.6l0.2,1.6l0.3,1.6l0.4,1.5l0.4,1.5l0.5,1.5l0.6,1.4
		l0.6,1.4l0.7,1.4l0.8,1.3l0.8,1.3l0.9,1.2l0.9,1.2l1,1.2l1.1,1.1l1.1,1.1l1.2,1l1.2,0.9l1.2,0.9l1.3,0.8l1.3,0.8l1.4,0.7l1.4,0.6
		l1.4,0.6l1.5,0.5l1.5,0.4l1.5,0.4l1.6,0.3l1.6,0.2l1.6,0.1l1.6,0l0.6,0l0.6,0l0.6,0l0.6,0l0.6,0l0.6-0.1l0.6-0.1l0.6-0.1l0.6-0.1
		l0.6-0.1l0.6-0.1l0.6-0.1l0.6-0.1l0.6-0.1l0.5-0.2l0.5-0.2l0.5-0.2l0.5-0.2l0.5-0.2l0.5-0.2l0.5-0.2l0.5-0.2l0.5-0.2l0.5-0.2
		l0.5-0.2l0.5-0.2l0.5-0.3l0.5-0.3l0.4-0.2l0.4,0.1h23.7v-17.7H150V61.4h-36.5v17.7h18.9v30.1l-0.3-0.2l-0.5-0.2l-0.5-0.2l-0.5-0.2
		l-0.5-0.2l-0.5-0.2l-0.5-0.2l-0.5-0.2l-0.5-0.2l-0.5-0.2l-0.5-0.2l-0.5-0.2L125.7,106.7L125.7,106.7z M117.7,119l0.9,0l0.9,0.1
		l0.9,0.1l0.9,0.2l0.9,0.2l0.9,0.2l0.8,0.3l0.8,0.3l0.8,0.4l0.8,0.4l0.8,0.4l0.7,0.5l0.7,0.5l0.7,0.5l0.7,0.6l0.6,0.6l0.6,0.6
		l0.6,0.7l0.5,0.7l0.5,0.7l0.5,0.7l0.4,0.8l0.4,0.8l0.4,0.8l0.3,0.8l0.3,0.9l0.2,0.9l0.2,0.9l0.2,0.9l0.1,0.9l0.1,0.9l0,1l0,0.9
		l-0.1,0.9l-0.1,0.9l-0.2,0.9l-0.2,0.9l-0.2,0.9l-0.3,0.8l-0.3,0.8l-0.4,0.8l-0.4,0.8l-0.4,0.8l-0.5,0.7l-0.5,0.7l-0.5,0.7l-0.6,0.7
		l-0.6,0.6l-0.6,0.6l-0.7,0.6l-0.7,0.5l-0.7,0.5l-0.7,0.5l-0.8,0.4l-0.8,0.4l-0.8,0.4l-0.8,0.3l-0.8,0.3l-0.9,0.2l-0.9,0.2l-0.9,0.2
		l-0.9,0.1l-0.9,0.1l-0.9,0l-1,0l-0.9-0.1l-0.9-0.1l-0.9-0.2l-0.9-0.2l-0.9-0.2l-0.9-0.3l-0.8-0.3l-0.8-0.4l-0.8-0.4l-0.8-0.4
		l-0.7-0.5l-0.7-0.5l-0.7-0.5l-0.7-0.6l-0.6-0.6l-0.6-0.6l-0.6-0.7l-0.5-0.7l-0.5-0.7l-0.5-0.7l-0.4-0.8l-0.4-0.8l-0.4-0.8l-0.3-0.8
		l-0.3-0.8l-0.2-0.9l-0.2-0.9l-0.2-0.9l-0.1-0.9l-0.1-0.9l0-0.9l0-1l0.1-0.9l0.1-0.9l0.2-0.9l0.2-0.9l0.2-0.9l0.3-0.9l0.3-0.8
		l0.4-0.8l0.4-0.8l0.4-0.8l0.5-0.7l0.5-0.7l0.5-0.7l0.6-0.7l0.6-0.6l0.6-0.6l0.7-0.6l0.7-0.5l0.7-0.5l0.7-0.5l0.8-0.4l0.8-0.4
		l0.8-0.4l0.8-0.3l0.9-0.3l0.9-0.2l0.9-0.2l0.9-0.2l0.9-0.1l0.9-0.1L117.7,119L117.7,119z M135.7,115.1l-3-1.9l-0.4-0.3l-0.4-0.2
		l-0.4-0.2l-0.4-0.2l-0.4-0.2l-0.4-0.2l-0.5-0.2l-0.5-0.2l-0.5-0.2l-0.5-0.2l-0.5-0.2l-0.5-0.2l-0.5-0.2l-0.5-0.2l-0.5-0.1l-0.5-0.1
		l-0.5-0.1l-0.5-0.1l-0.5-0.1l-0.5-0.1l-0.5-0.1l-0.5-0.1l-0.5-0.1l-0.5-0.1l-0.5-0.1l-0.5-0.1l-0.5,0l-0.5,0l-0.5,0l-0.5,0l-0.5,0
		l-1.5,0l-1.4,0.1l-1.4,0.2l-1.4,0.3l-1.4,0.3l-1.3,0.4l-1.3,0.4l-1.3,0.5l-1.3,0.6l-1.2,0.6l-1.2,0.7l-1.2,0.7l-1.1,0.8l-1.1,0.8
		l-1,0.9l-1,0.9l-0.9,1l-0.9,1l-0.8,1.1l-0.8,1.1l-0.7,1.2l-0.7,1.2l-0.6,1.2l-0.6,1.3l-0.5,1.3l-0.4,1.3l-0.4,1.3l-0.3,1.4
		l-0.3,1.4l-0.2,1.4l-0.1,1.4l0,1.4l0,1.4l0.1,1.4l0.2,1.4l0.3,1.4l0.3,1.4l0.4,1.3l0.4,1.3l0.5,1.3l0.6,1.3l0.6,1.2l0.7,1.2
		l0.7,1.2l0.8,1.1l0.8,1.1l0.9,1l0.9,1l1,0.9l1,0.9l1.1,0.8l1.1,0.8l1.2,0.7l1.2,0.7l1.2,0.6l1.3,0.6l1.3,0.5l1.3,0.4l1.3,0.4
		l1.4,0.3l1.4,0.3l1.4,0.2l1.4,0.1l1.5,0l0.5,0l0.5,0l0.5,0l0.5,0l0.5,0l0.5-0.1l0.5-0.1l0.5-0.1l0.5-0.1l0.5-0.1l0.5-0.1l0.5-0.1
		l0.5-0.1l0.5-0.1l0.5-0.1l0.5-0.1l0.5-0.2l0.5-0.2l0.5-0.2l0.5-0.2l0.5-0.2l0.5-0.2l0.5-0.2l0.5-0.2l0.5-0.2l0.4-0.2l0.4-0.2
		l0.4-0.2l0.4-0.2l0.4-0.3l0.4-0.3l3-1.9v2.1h18.6v-11.1h-7.6V64.7h-29.8v11.1h18.9V115.1L135.7,115.1z"/>
	<path class="st3" d="M75.9,79.3H41.9v34.2h34.1V79.3L75.9,79.3z M165,30.1l-8.4,8.4l-5.7,5.7l-20.5,20.5h-16.9V41.9H79.3v34.1h39.9
		l-37.5,37.5l-5.7,5.7l-31.7,31.7l-5.7,5.7l-8.4,8.4l-1.7-1.8l-0.6-0.6l-0.6-0.6l-0.6-0.6l-0.6-0.6l-0.6-0.6l-0.6-0.6l-0.5-0.6
		l-0.5-0.6l-0.5-0.6l-0.5-0.7l-0.5-0.7l-0.5-0.7l-0.5-0.7l-0.5-0.7l-2.4-3.3h20.1v-34.1H3.2l-0.4-1.9l-0.1-0.6l-0.1-0.6l-0.1-0.6
		l-0.1-0.6L2.3,112l-0.1-0.6l-0.1-0.6l-0.1-0.6L2,109.6L1.9,109l-0.1-0.6l-0.1-0.6l-0.1-0.6l-0.1-0.6l-0.1-0.6l-0.1-0.6l-0.1-0.6
		l0-0.6l0-0.6l0-0.6l0-0.6l0-0.6l0-0.6l0-0.6l0-0.6l0-0.6l0-0.6l0-0.6l0-0.6l0-0.6l0-0.6l0-0.6l0-0.6l0-0.6l0-0.6l0-0.6l0-0.6l0-0.6
		l0-0.6l0-0.6l0-0.6l0-0.6l0-0.6l0-0.6l0-0.6l0.1-0.6l0.1-0.6l0.1-0.6l0.1-0.6l0.1-0.6l0.1-0.6l0.1-0.6L2,83.1l0.1-0.6L2.2,82
		l0.1-0.6l0.1-0.6l0.1-0.6l0.1-0.6L2.6,79l0.1-0.6l0.1-0.6l0.4-1.9h35.3V41.9H18.1l2.6-3.3l0.5-0.7l0.5-0.7l0.5-0.7l0.5-0.7l0.5-0.6
		l0.5-0.6l0.6-0.6l0.6-0.6l0.6-0.6l0.6-0.6l0.6-0.6l0.6-0.6l0.6-0.6l0.6-0.6l0.6-0.6l0.6-0.6l0.6-0.6l0.6-0.6l0.6-0.6l0.6-0.6
		l0.6-0.6l0.6-0.6l0.6-0.6l0.6-0.6l0.6-0.5l0.7-0.5l0.7-0.5l0.7-0.5l0.7-0.5l0.7-0.5l3.3-2.5v20.3h34.1V3.1L78,2.7l0.7-0.1l0.7-0.1
		l0.8-0.1L81,2.2l0.8-0.1L82.6,2l0.8-0.1l0.8-0.1l0.8-0.1l0.8-0.1l0.8-0.1l0.8-0.1L88,1.3l0.8-0.1l0.9-0.1h13.6l0.8,0.1l0.8,0.1
		l0.8,0.1l0.8,0.1l0.8,0.1l0.8,0.1l0.8,0.1l0.8,0.1l0.8,0.1l0.8,0.1l0.8,0.1l0.8,0.1l0.8,0.1l0.8,0.1l0.8,0.1l2.1,0.4v35.4h34.1
		V17.9l3.4,2.7l0.7,0.5l0.7,0.5l0.7,0.5l0.7,0.5l0.6,0.5l0.6,0.6l0.6,0.6l0.6,0.6l0.6,0.6l0.6,0.6l0.6,0.6l0.6,0.6l0.6,0.6l0.6,0.6
		L165,30.1L165,30.1z M160.2,30.2l-6,6V24.8l0.5,0.4l0.6,0.5l0.6,0.5l0.6,0.5l0.6,0.5l0.6,0.5l0.6,0.6l0.6,0.6l0.6,0.6L160.2,30.2
		L160.2,30.2z M79.4,5.9l0.7-0.1l0.7-0.1l0.7-0.1l0.7-0.1l0.7-0.1l0.8-0.1L84.6,5l0.8-0.1l0.8-0.1l0.8-0.1l0.8-0.1l0.8-0.1l0.8-0.1
		l0.7-0.1h13.3l0.7,0.1l0.7,0.1l0.7,0.1l0.7,0.1l0.7,0.1l0.7,0.1l0.7,0.1l0.7,0.1l0.7,0.1l0.7,0.1l0.7,0.1l0.7,0.1l0.7,0.1l0.7,0.1
		l0.1,0v32.7H79.3L79.4,5.9L79.4,5.9L79.4,5.9z M32.5,30.3l0.6-0.6l0.6-0.6l0.6-0.6l0.6-0.5l0.6-0.5l0.6-0.5l0.6-0.5l0.6-0.5
		l0.6-0.5l0.6-0.5v13.6H24.9l0.4-0.5l0.5-0.6l0.5-0.6l0.5-0.6l0.5-0.6l0.5-0.6l0.5-0.6l0.6-0.6l0.6-0.6l0.6-0.6l0.6-0.6l0.6-0.6
		l0.6-0.6L32.5,30.3L32.5,30.3z M41.9,41.9h34.1v34.1H41.9V41.9L41.9,41.9z M116.8,61.4V41.9h31.7L129,61.4H116.8L116.8,61.4z
		 M5.4,109.7l-0.1-0.6l-0.1-0.6L5.2,108l-0.1-0.6L5,106.9L5,106.3l-0.1-0.6l-0.1-0.6l-0.1-0.6l0-0.6l0-0.6l0-0.6l0-0.6l0-0.6l0-0.6
		l0-0.6l0-0.6l0-0.6l0-0.6l0-0.6l0-0.6l0-0.6l0-0.6l0-0.6l0-0.6l0-0.6l0-0.6l0-0.6l0-0.6l0-0.6l0-0.6l0-0.6l0-0.6l0-0.6l0-0.6l0-0.6
		l0-0.6l0.1-0.6L4.9,87L5,86.4L5,85.9l0.1-0.6l0.1-0.6l0.1-0.6l0.1-0.6L5.4,83l0.1-0.6l0.1-0.6l0.1-0.6l0.1-0.6l0.1-0.6l0.1-0.6
		L6,79.3h32.6v34.2H6l-0.1-0.3l-0.1-0.6L5.7,112l-0.1-0.6l-0.1-0.6l-0.1-0.6L5.4,109.7L5.4,109.7z M41.9,116.8h31.7l-31.7,31.7
		V116.8L41.9,116.8z M26,155.4l-0.5-0.6l-0.4-0.5h11.2l-6,6l-0.5-0.5l-0.5-0.6l-0.5-0.6l-0.5-0.6l-0.5-0.6l-0.5-0.6l-0.5-0.6
		L26,155.4L26,155.4z M79.3,111.1V79.3h31.8L79.3,111.1L79.3,111.1z"/>
</g>
</svg>
