<?xml version="1.0" encoding="utf-8"?>
<!-- Generator: Adobe Illustrator 25.2.0, SVG Export Plug-In . SVG Version: 6.00 Build 0)  -->
<svg version="1.1" id="Layer_1" xmlns="http://www.w3.org/2000/svg" xmlns:xlink="http://www.w3.org/1999/xlink" x="0px" y="0px"
	 viewBox="0 0 192.8 192.8" style="enable-background:new 0 0 192.8 192.8;" xml:space="preserve">
<style type="text/css">
	.st0{fill:#9EA176;}
	.st1{fill-rule:evenodd;clip-rule:evenodd;fill:#C6232D;}
	.st2{fill-rule:evenodd;clip-rule:evenodd;fill:#9EA176;}
	.st3{fill-rule:evenodd;clip-rule:evenodd;fill:#355170;}
	.st4{fill-rule:evenodd;clip-rule:evenodd;fill:#FFFFFF;}
	.st5{fill:#FFFFFF;}
</style>
<g>
	<g>
		<path class="st0" d="M60.4,58.8H60c-0.3,0-0.5-0.2-0.5-0.5c0-0.3,0.2-0.5,0.5-0.5h0.4c0.3,0,0.5,0.2,0.5,0.5
			C61,58.5,60.7,58.8,60.4,58.8z M43.9,37.8c-0.3,0-0.5-0.2-0.5-0.5v-0.2c0-0.3,0.2-0.5,0.5-0.5s0.5,0.2,0.5,0.5v0.2
			C44.4,37.6,44.1,37.8,43.9,37.8z"/>
	</g>
	<g>
		<path class="st1" d="M158.9,81v-0.8c1-19.5-1.8-41.7-8.5-66.4C113.8,1.9,77.7,1.9,42.2,13.6C30.1,58.7,30.9,96.8,44.8,128
			c0.2,0.3,0.3,0.5,0.4,0.9c0,0,1.2,2.4,3.7,7.2h-0.1c0.3,0.6,0.8,1.3,1.1,2c10.3,18.3,25.7,34,46.2,47.1
			c34.4-21.9,54.7-51.1,60.9-87.5c0.1-0.4,0.1-0.9,0.2-1.2h-0.1L158.9,81L158.9,81z"/>
	</g>
	<g>
		<path class="st2" d="M170.1,15.5C120.7-5.2,71.6-5.2,22.6,15.7C0.6,97.1,25.2,156.1,96.5,192.8C167.7,155.9,192.2,96.7,170.1,15.5
			L170.1,15.5z M153.8,14.9c4.1,1.4,8,2.8,11.8,4.5v0.1c5.8,22.2,8.1,42.6,6.7,61.5h-60.5c-4.7-2.8-9.8-4.1-15.5-4.1l-1.1,0.1
			C89.9,77,85,78.3,80.7,81H51.6c-2,0.1-3.7,0.7-4.9,2c-1.3,1.1-2,2.5-2.1,4.1h-3.1c-2.8,2.9-2.8,5.7,0,8.6h3.1
			c0.1,1.6,0.8,3,2.1,4.3c1.4,1.2,3,1.9,4.8,1.9c0.1,0,0.2,0,0.3,0.1l14.3-0.8c-0.4,2.2-0.7,4.4-0.6,6.6c0,1.5,0.1,2.8,0.2,4
			c-5.3,7.1-12,12.8-20.3,17.2l-2.5,1.3c-1.9,0.9-4.2,1.8-6.7,2.8c-18.1-30.7-21.2-68.6-9.1-113.7c3.7-1.6,7.5-3.1,11.4-4.4l3.9-1.3
			c35.5-11.8,71.6-11.7,108.2,0.2L153.8,14.9L153.8,14.9z M87,108c0,0.8,0.1,1.5,0.2,2.1l-12.9,7.5c-1.3-2.9-1.9-6.1-1.9-9.5
			c0-3.5,0.6-6.7,1.9-9.6l12.9,7.5C87.1,106.6,87,107.3,87,108L87,108z M96.2,104h0.1c0.5,0,1,0.1,1.5,0.3c0.2,0.1,0.6,0.3,1.1,0.7
			l0.2,0.2c0.6,0.6,1,1.3,1.1,2.2l-0.1,1.4c-0.2,0.7-0.5,1.3-1.1,2c-0.1,0-0.2,0.1-0.2,0.2c-0.5,0.4-0.9,0.6-1.3,0.8
			c-0.4,0.1-0.9,0.2-1.3,0.2l-1.2-0.2c-0.5-0.2-1-0.4-1.4-0.8c-0.1-0.1-0.2-0.1-0.2-0.2c-0.6-0.6-1-1.3-1.1-2l-0.1-0.8l0.1-0.6
			c0.1-0.8,0.5-1.6,1.1-2.2c0-0.1,0.1-0.2,0.2-0.2c0.4-0.4,0.8-0.6,1.2-0.8C95.1,104.2,95.6,104,96.2,104L96.2,104z M93.5,99.1
			c-1.3,0.4-2.5,1.1-3.5,2.1l-12.9-7.5c0.7-1,1.5-1.8,2.3-2.6c3.9-4,8.6-6.3,14.1-6.9V99.1z M79.4,124.9c-0.8-0.8-1.6-1.7-2.4-2.7
			l12.9-7.5c1,0.9,2.2,1.6,3.5,2.1v14.9C88,131.2,83.4,128.9,79.4,124.9z M71.7,126.5c0.5,0.7,1.4,1.7,2.7,3.1c6.1,6,13.3,9,21.9,9
			c8.5,0,15.8-3,21.8-9c6-6.1,9.1-13.4,9.1-21.9c0-1.2-0.1-2.3-0.2-3.4l12.5-2.7c2.5-0.7,3.8-2.1,4-4.1l26.8-1.8
			c-7.4,38.9-32.1,69.4-74,91.3c-0.1,0-0.2,0.1-0.2,0.1l-0.4-0.2c-25.1-13.4-43.9-29.6-56.4-48.7c1.9-0.3,4.2-0.7,7-1.3l2.6-0.7
			C55.7,134.1,63.3,130.9,71.7,126.5L71.7,126.5z M99,131.9v-14.9c1.4-0.5,2.6-1.2,3.6-2.1l13,7.5c-0.5,0.6-1.2,1.5-2.3,2.6
			C109.3,129,104.5,131.3,99,131.9L99,131.9z M115.6,93.7l-12.9,7.5c-1.1-1-2.4-1.8-3.7-2.1V84.2c5.5,0.5,10.3,2.8,14.3,6.9
			C114.4,92.2,115.2,93,115.6,93.7L115.6,93.7z M118.4,98.4c1,2.4,1.7,4.9,1.9,7.5l0.1,2.1c0,3.5-0.7,6.8-2,9.7l-12.9-7.6l0.2-0.6
			l0.1-1.6c0-0.5-0.1-1.2-0.2-2.1L118.4,98.4L118.4,98.4z"/>
	</g>
	<g>
		<path class="st2" d="M105.5,109.5l14.7-3.6c-0.2-2.6-0.8-5.1-1.9-7.5l-12.9,7.5c0.1,0.9,0.2,1.6,0.2,2.1L105.5,109.5z
			 M102.7,101.1l12.9-7.5c-0.5-0.6-1.2-1.5-2.3-2.6c-4.1-4.1-8.9-6.3-14.3-6.9V99C100.3,99.4,101.6,100.1,102.7,101.1z M98.9,105
			c-0.5-0.4-0.9-0.6-1.1-0.7c-0.5-0.2-1-0.3-1.5-0.3h-0.1c-0.6,0.1-1.1,0.2-1.3,0.3c-0.4,0.1-0.8,0.4-1.2,0.8
			c-0.1,0-0.2,0.1-0.2,0.2c-0.6,0.6-1,1.4-1.1,2.2l-0.1,0.6l0.1,0.8c0.1,0.7,0.4,1.3,1.1,2c0,0.1,0.1,0.1,0.2,0.2
			c0.4,0.4,0.9,0.6,1.4,0.8l1.2,0.2c0.4,0,0.9-0.1,1.3-0.2c0.4-0.2,0.9-0.4,1.3-0.8c0.1-0.1,0.1-0.2,0.2-0.2c0.5-0.6,0.9-1.3,1.1-2
			l0.1-1.4c-0.2-0.9-0.5-1.6-1.1-2.2L98.9,105L98.9,105z M90,101.2c1-1,2.1-1.7,3.5-2.1V84.2c-5.5,0.6-10.1,2.9-14.1,6.9
			c-0.7,0.6-1.5,1.5-2.3,2.6L90,101.2z M87,108c0-0.8,0.1-1.4,0.2-2l-12.9-7.5c-1.3,2.9-1.9,6.1-1.9,9.6c0,3.4,0.6,6.6,1.9,9.5
			l12.9-7.5C87.1,109.4,87,108.7,87,108z"/>
	</g>
	<g>
		<path class="st3" d="M161.1,95.8v0.1c-6.5,37.4-28.1,67.8-64.8,91.1c41.9-21.9,66.6-52.4,74.1-91.6L161.1,95.8L161.1,95.8z
			 M46,136.3l-6.7,1.8c12.6,19.1,31.4,35.3,56.4,48.7C73.7,172.7,57.2,155.9,46,136.3z M165.6,19.4c-3.8-1.6-7.7-3.1-11.8-4.5
			c7,23.9,9.9,46.1,8.8,66.6l9.6-0.1c1.4-19.1-0.8-39.7-6.6-61.9L165.6,19.4L165.6,19.4L165.6,19.4z M38.3,14.9
			c-3.9,1.3-7.7,2.8-11.4,4.4c-12,45-8.9,83.1,9.4,114.1l6.7-2.7C27.2,98.6,25.6,60,38.3,14.9z"/>
	</g>
	<g>
		<path class="st4" d="M53.8,31.4l-9.9,1.3c0.6,1.2,0.6,2.7-0.1,4.4v0.2c-2.3,7.4-4.9,14.3-8,20.9H43l1.2-5.4H51l1,5.4h8
			C57.5,49.8,55.5,40.8,53.8,31.4L53.8,31.4z M50.2,48.4h-4.5l2.9-8.6L50.2,48.4z"/>
	</g>
	<g>
		<path class="st0" d="M60,58.8h-8c-0.3,0-0.5-0.2-0.5-0.4l-0.9-4.9h-5.9l-1.1,5c-0.1,0.2-0.3,0.4-0.5,0.4h-7.1
			c-0.2,0-0.4-0.1-0.5-0.2c-0.1-0.2-0.1-0.3,0-0.5c3-6.4,5.6-13.2,8-20.8c0-0.1,0-0.2,0-0.3c0.6-1.5,0.7-2.8,0.1-3.9
			c-0.1-0.2-0.1-0.3,0-0.5c0.1-0.2,0.2-0.3,0.4-0.3l9.9-1.3c0.3,0,0.6,0.2,0.6,0.4c1.7,9.5,3.8,18.5,6.2,26.8c0,0.2,0,0.3-0.1,0.5
			C60.3,58.7,60.2,58.8,60,58.8z M52.5,57.7h6.8C57,49.8,55,41.1,53.4,32l-8.7,1.2c0.4,1.2,0.3,2.6-0.3,4.1c0,0.1,0,0.1,0,0.2
			c-2.3,7.4-4.8,14-7.7,20.2h5.9l1.1-5c0.1-0.2,0.3-0.4,0.5-0.4H51c0.3,0,0.5,0.2,0.5,0.4L52.5,57.7z M50.2,49h-4.5
			c-0.2,0-0.3-0.1-0.4-0.2c-0.1-0.1-0.1-0.3-0.1-0.5l2.9-8.6c0.1-0.2,0.3-0.4,0.5-0.4c0.2,0,0.4,0.2,0.5,0.4l1.6,8.6
			c0,0.2,0,0.3-0.1,0.4C50.6,48.9,50.4,49,50.2,49z M46.5,47.9h3.1l-1.1-6L46.5,47.9z"/>
	</g>
	<g>
		<path class="st4" d="M68,58.2c-1.3-10.6,0.7-15.5,6-14.7l0.4-4.8c-2.1-0.9-4.4,0.3-6.9,3.7l0.2-3.2l-6.4,0.3
			c0.6,6.5,0.3,12.8-0.8,18.8L68,58.2L68,58.2L68,58.2z"/>
	</g>
	<g>
		<path class="st0" d="M68,58.8h-7.5c-0.2,0-0.3-0.1-0.4-0.2c-0.1-0.1-0.1-0.3-0.1-0.4c1.1-5.9,1.4-12.2,0.8-18.6
			c0-0.1,0-0.3,0.1-0.4c0.1-0.1,0.2-0.2,0.4-0.2l6.4-0.3c0.2,0,0.3,0.1,0.4,0.2c0.1,0.1,0.2,0.3,0.2,0.4l-0.1,1.6
			c2.2-2.5,4.4-3.4,6.5-2.5c0.2,0.1,0.4,0.3,0.3,0.5l-0.4,4.8c0,0.1-0.1,0.3-0.2,0.4c-0.1,0.1-0.3,0.1-0.4,0.1
			c-1.6-0.3-2.8,0-3.8,0.9c-1.9,1.8-2.5,6.3-1.6,13.1c0,0.2,0,0.3-0.1,0.4C68.3,58.7,68.1,58.8,68,58.8z M61.1,57.7h6.3
			c-0.8-7-0.1-11.4,2-13.4c1-1,2.4-1.4,4.1-1.3l0.3-3.9c-1.8-0.5-3.7,0.7-5.9,3.6c-0.1,0.2-0.4,0.3-0.6,0.2
			c-0.2-0.1-0.4-0.3-0.4-0.5l0.1-2.6L61.8,40C62.3,46.1,62.1,52.1,61.1,57.7z"/>
	</g>
	<g>
		<path class="st4" d="M145.7,58.2h7.5c-1.6-7.9-2.8-16.4-3.5-25.4l-7.1-1.3C144.6,40.3,145.6,49.2,145.7,58.2L145.7,58.2z"/>
	</g>
	<g>
		<path class="st0" d="M153.2,58.8h-7.5c-0.3,0-0.5-0.2-0.5-0.5c0-8.9-1.1-17.9-3-26.6c0-0.2,0-0.4,0.1-0.5c0.1-0.1,0.3-0.2,0.5-0.2
			l7.1,1.3c0.2,0,0.4,0.2,0.4,0.5c0.7,8.9,1.9,17.4,3.5,25.3c0,0.2,0,0.3-0.1,0.4C153.5,58.7,153.3,58.8,153.2,58.8z M146.2,57.7
			h6.3c-1.5-7.7-2.7-15.9-3.3-24.4l-5.9-1.1C145.1,40.6,146.1,49.1,146.2,57.7z"/>
	</g>
	<g>
		<path class="st4" d="M106.5,54.6l-1.8-2c-4.1,3.2-7,2.6-8.7-1.5c2.3-1,5.8-2.4,10.4-4.2c0-2.2-0.7-4.3-2.1-6.3c-1.5-2-3.4-3-6.1-3
			c-2.6-0.1-4.9,1-7,3c-2,2-3,4.5-3,7.5c0,2.8,1,5.3,3,7.4c1.5,1.4,3.1,2.4,4.8,2.8h4.9c1.8-0.4,3.4-1.4,4.8-2.8L106.5,54.6z
			 M97.8,41.2c2,0.5,2.7,1.9,2.1,4l-4.9,2C94.5,43.9,95.5,41.8,97.8,41.2L97.8,41.2z"/>
	</g>
	<g>
		<path class="st0" d="M98.5,59c-0.8,0-1.5-0.1-2.6-0.3c0,0,0,0,0,0c-1.8-0.4-3.5-1.5-5.1-3c0,0,0,0,0,0c-2.1-2.2-3.1-4.8-3.1-7.8
			c0-3.1,1-5.7,3.1-7.8c0,0,0,0,0,0c2.2-2.2,4.7-3.2,7.4-3.2c2.8,0.1,4.9,1.1,6.5,3.2c0,0,0,0,0,0c1.5,2.1,2.2,4.3,2.2,6.6
			c0,0.2-0.1,0.4-0.3,0.5c-1.6,0.6-3,1.2-4.4,1.8c-2.3,0.9-4.1,1.7-5.5,2.3c0.7,1.5,1.6,2.4,2.6,2.6c1.3,0.4,3-0.3,5-1.8
			c0.2-0.2,0.5-0.1,0.7,0.1l1.8,2c0.2,0.2,0.2,0.5,0,0.7l-0.8,0.8c0,0,0,0,0,0c-1.5,1.5-3.2,2.5-5.1,3c0,0,0,0,0,0
			C99.9,59,99.2,59,98.5,59z M96.2,57.7c1,0.2,1.7,0.3,2.4,0.3c0.6,0,1.3-0.1,2.3-0.3c1.6-0.4,3.2-1.3,4.6-2.7l0.4-0.4l-1.2-1.3
			c-2.1,1.6-4,2.1-5.6,1.7c-1.5-0.4-2.7-1.7-3.5-3.7c-0.1-0.3,0-0.6,0.3-0.7c1.5-0.6,3.5-1.4,6.1-2.5c1.2-0.5,2.6-1,4-1.6
			c-0.1-2-0.7-3.8-2-5.6c-1.3-1.8-3.2-2.7-5.6-2.8c-2.5,0-4.6,0.9-6.6,2.9c-1.9,1.9-2.8,4.3-2.8,7.1c0,2.7,0.9,5,2.8,7
			C93,56.4,94.5,57.3,96.2,57.7z M106.4,46.8L106.4,46.8L106.4,46.8z M95,47.8c-0.1,0-0.2,0-0.3-0.1c-0.1-0.1-0.2-0.2-0.3-0.4
			c-0.5-3.7,0.6-5.9,3.2-6.7c0.1,0,0.2,0,0.3,0c1.1,0.3,1.9,0.8,2.4,1.6c0.5,0.8,0.5,1.8,0.1,3.1c0,0.2-0.2,0.3-0.3,0.3l-4.9,2
			C95.1,47.8,95,47.8,95,47.8z M97.8,41.7c-1.8,0.6-2.6,2.1-2.4,4.7l4-1.7c0.2-0.8,0.2-1.5-0.1-2C99.1,42.3,98.6,42,97.8,41.7z
			 M99.9,45.2L99.9,45.2L99.9,45.2z"/>
	</g>
	<g>
		<path class="st4" d="M125.5,58.2c-0.9-4.7-1.2-9.8-1.1-15.3c-2.8-5.3-6.6-5.9-11.3-1.8l-0.5-2.7l-6-0.1c1.5,5.5,1.7,12.1,0.9,19.9
			h7c-0.7-4.2-0.9-8.9-0.5-13.9c1.6-2.4,3-2.4,4.2,0c0.3,4.6,0.3,9.2,0,13.9H125.5L125.5,58.2z"/>
	</g>
	<g>
		<path class="st0" d="M125.5,58.8C125.5,58.8,125.5,58.8,125.5,58.8l-7.4,0c0,0,0,0,0,0c-0.1,0-0.1,0-0.2,0c0,0,0,0,0,0
			c-0.1,0-0.1-0.1-0.2-0.1c0,0,0,0,0,0c0,0,0,0,0,0c-0.1-0.1-0.1-0.1-0.1-0.2c0-0.1,0-0.1,0-0.2c0,0,0,0,0,0c0.3-4.5,0.3-9.1,0-13.7
			c-0.5-0.9-1-1.4-1.4-1.4c-0.5,0-1.1,0.5-1.7,1.5c-0.3,5-0.1,9.6,0.5,13.6c0,0,0,0,0,0.1c0,0.1,0,0.1,0,0.2c0,0.1-0.1,0.2-0.1,0.2
			l0,0c0,0,0,0,0,0c-0.1,0.1-0.1,0.1-0.2,0.1c-0.1,0-0.1,0-0.2,0c0,0,0,0-0.1,0h-7c0,0,0,0,0,0c-0.1,0-0.1,0-0.2,0
			c-0.1,0-0.1-0.1-0.2-0.1c0,0,0,0,0,0c0,0,0,0,0,0c-0.1-0.1-0.1-0.1-0.1-0.2c0-0.1,0-0.1,0-0.2c0,0,0,0,0,0
			c0.8-7.8,0.5-14.4-0.9-19.7c0-0.2,0-0.3,0.1-0.5c0.1-0.1,0.3-0.2,0.4-0.2l6,0.1c0.3,0,0.5,0.2,0.5,0.4l0.4,1.8
			c2.2-1.8,4.3-2.5,6.2-2.2c2,0.4,3.7,1.9,5.2,4.7c0,0.1,0.1,0.2,0.1,0.3c-0.1,5.7,0.2,10.6,1.1,15.2
			C126.1,58.4,125.9,58.7,125.5,58.8C125.6,58.8,125.6,58.8,125.5,58.8z M118.7,57.7h6.1c-0.8-4.4-1.1-9.2-1-14.6
			c-1.3-2.4-2.7-3.7-4.4-4c-1.7-0.3-3.8,0.5-6,2.5c-0.1,0.1-0.3,0.2-0.5,0.1c-0.2-0.1-0.3-0.2-0.4-0.4l-0.5-2.3l-4.9-0.1
			c1.3,5.2,1.5,11.5,0.8,18.8h5.8c-0.6-4-0.8-8.5-0.4-13.4c0-0.1,0-0.2,0.1-0.3c0.9-1.4,1.8-2.1,2.8-2.1c0.9,0,1.7,0.7,2.4,2.1
			c0,0.1,0.1,0.1,0.1,0.2C119,48.8,119,53.3,118.7,57.7z"/>
	</g>
	<g>
		<path class="st4" d="M86.9,42.7v-3.8c-5.6-2-9.8-1-12.7,3.2L74,42.3c-1.3,2.3-0.8,4.2,1.6,5.9c5.2,2,7.4,3.7,6.7,4.8l-0.1,0.3
			c-2,2.1-5,1.5-9-1.8l-0.1,5.3c1.5,0.7,2.8,1.2,3.9,1.5c2.1,0.5,4.1,0.5,5.9,0c1.7-0.6,3.3-1.7,4.8-3.4c2.5-4.2,0.3-7.7-6.6-10.5
			c-2.1-0.9-2.1-1.8-0.1-2.7C82.4,41.4,84.3,41.7,86.9,42.7z"/>
	</g>
	<g>
		<path class="st0" d="M80,59.2c-1,0-2.1-0.1-3.2-0.4c0,0,0,0,0,0c-1.2-0.4-2.5-0.9-3.9-1.5c-0.2-0.1-0.3-0.3-0.3-0.5l0.1-5.3
			c0-0.2,0.1-0.4,0.3-0.5c0.2-0.1,0.4-0.1,0.6,0.1c3.7,3.1,6.4,3.8,8.3,1.9c0-0.1,0-0.2,0.1-0.2c0.1-0.1,0.1-0.2,0-0.3
			c-0.2-0.5-1.2-1.7-6.4-3.7c0,0-0.1,0-0.1-0.1c-1.3-0.9-2.1-1.9-2.4-3c-0.3-1.1-0.1-2.3,0.7-3.6c0,0,0-0.1,0.1-0.1l0.1-0.1
			c3-4.4,7.5-5.5,13.3-3.4c0.2,0.1,0.4,0.3,0.4,0.5v3.8c0,0.2-0.1,0.3-0.2,0.4c-0.1,0.1-0.3,0.1-0.5,0.1c-2.3-0.9-4.1-1.2-5.5-1
			c-1,0.4-1.2,0.7-1.2,0.8c0,0,0,0.3,1.3,0.9c4.3,1.7,6.8,3.7,7.6,6.1c0.5,1.6,0.3,3.3-0.8,5.2c0,0,0,0.1-0.1,0.1
			c-1.6,1.7-3.3,2.9-5,3.5c0,0,0,0,0,0C82,59,81,59.2,80,59.2z M77.1,57.7c2,0.5,3.9,0.5,5.6,0c1.6-0.6,3.1-1.6,4.6-3.2
			c0.9-1.5,1.1-2.9,0.7-4.2c-0.7-2-3-3.8-7-5.4c0,0,0,0,0,0C80.1,44.5,79,43.9,79,43c0-0.9,1.1-1.5,1.9-1.8c0,0,0.1,0,0.1,0
			c1.4-0.3,3.2,0,5.4,0.7v-2.6c-5.2-1.8-9-0.8-11.7,3.1c0,0,0,0.1-0.1,0.1l-0.1,0.1c-1.1,2-0.7,3.6,1.4,5c5.7,2.3,6.8,3.6,7,4.4
			c0.1,0.4,0.1,0.8-0.2,1.2c0,0,0,0,0,0c0,0.1-0.1,0.2-0.1,0.3c-2.1,2.2-5.1,1.8-8.9-1.1l-0.1,3.9C74.8,57,76,57.4,77.1,57.7z"/>
	</g>
	<g>
		<path class="st4" d="M126.9,39.7c0,1.2,0,2.8,0.1,5.1c5-3.1,7.9-3.1,8.7,0.4c-7.4,1.5-10.6,4.2-9.8,8.1c0.6,2.6,1.6,4.3,3.1,5
			c1.8,0.9,3.9,0.9,6.2,0l1.8-1.1l1.3,1.2h6v-0.1c-1.4-3.8-2.1-8.4-2.1-13.9C140.7,39.8,135.6,38.3,126.9,39.7L126.9,39.7z
			 M136.2,48.7l0.3,5.3c-2.7,1.2-4.1,0.5-4.5-2c0.5-2.4,1.9-3.4,4-3.2H136.2z"/>
	</g>
	<g>
		<path class="st0" d="M131.9,59.4c-1.1,0-2.2-0.2-3.1-0.7c-1.6-0.8-2.7-2.6-3.4-5.4c-0.3-1.5-0.1-2.8,0.7-4
			c1.4-2.1,4.3-3.6,8.9-4.6c-0.3-0.8-0.7-1.3-1.2-1.5c-1.3-0.5-3.5,0.1-6.5,2c-0.2,0.1-0.4,0.1-0.5,0c-0.2-0.1-0.3-0.3-0.3-0.5
			l-0.2-5.1c0-0.1,0-0.3,0.2-0.4c0.1-0.1,0.2-0.2,0.4-0.2h0c8.9-1.5,14.2,0.2,15.8,5c0,0.1,0,0.1,0,0.2c0.1,5.5,0.7,10,2.1,13.8
			c0.1,0.2,0,0.3-0.1,0.5c-0.1,0.1-0.3,0.2-0.4,0.2h-6c-0.1,0-0.3-0.1-0.4-0.1l-1-0.9l-1.4,0.9c0,0-0.1,0-0.1,0.1
			C134.2,59.2,133,59.4,131.9,59.4z M132.8,42c0.5,0,1,0.1,1.4,0.3c1,0.4,1.7,1.4,2,2.8c0,0.1,0,0.3-0.1,0.4
			c-0.1,0.1-0.2,0.2-0.3,0.2c-4.6,0.9-7.6,2.4-8.8,4.2c-0.6,0.9-0.8,2-0.5,3.2c0.5,2.4,1.5,4,2.8,4.6c1.7,0.8,3.6,0.8,5.8,0l1.7-1.1
			c0.2-0.1,0.5-0.1,0.7,0.1l1.1,1.1h5c-1.2-3.7-1.9-8.1-1.9-13.3c-0.7-2.1-2.2-3.4-4.6-4.2c-2.4-0.7-5.6-0.8-9.6-0.1l0.1,3.7
			C129.7,42.6,131.5,42,132.8,42z M134.2,55c-0.5,0-0.9-0.1-1.3-0.3c-0.8-0.5-1.3-1.4-1.5-2.7c0-0.1,0-0.1,0-0.2
			c0.8-3.3,2.9-3.8,4.6-3.6c0,0,0,0,0,0c0,0,0,0,0.1,0c0.3,0,0.5,0.2,0.6,0.5l0.3,5.3c0,0.2-0.1,0.4-0.3,0.5
			C135.7,54.8,134.9,55,134.2,55z M132.5,51.9c0.1,1,0.4,1.6,0.9,1.8c0.5,0.3,1.3,0.2,2.4-0.2l-0.2-4.4C134,49.1,133,50,132.5,51.9z
			"/>
	</g>
	<g>
		<path class="st5" d="M96.3,139.1c-4.3,0-8.4-0.8-12.1-2.3c-3.7-1.5-7.1-3.8-10.2-6.9c0,0,0,0,0,0c-1.2-1.2-1.9-2.1-2.4-2.7
			c-8.1,4.2-15.5,7.4-22.1,9.3c-0.5,0.1-0.9,0.3-1.4,0.4c-0.2,0.1-0.4,0.1-0.7,0.2c-0.3,0.1-0.6-0.1-0.7-0.4
			c-0.1-0.3,0.1-0.6,0.4-0.7c0.2-0.1,0.5-0.1,0.7-0.2c0.5-0.1,0.9-0.2,1.3-0.4c0,0,0,0,0,0c6.6-2,14.1-5.1,22.3-9.4
			c0.2-0.1,0.5-0.1,0.7,0.2c0.5,0.6,1.3,1.6,2.6,3c6,6,13,8.9,21.5,8.9c8.3,0,15.5-3,21.4-8.9c5.9-6,8.9-13.2,8.9-21.5
			c0-1.2-0.1-2.3-0.2-3.4c0-0.3,0.2-0.5,0.4-0.6l12.5-2.7c2.2-0.6,3.4-1.8,3.6-3.6c0-0.3,0.2-0.5,0.5-0.5l16.7-1.2
			c0.3,0,0.6,0.2,0.6,0.5c0,0.3-0.2,0.6-0.5,0.6L144,98c-0.3,1.5-1.3,3.2-4.4,4.1c0,0,0,0,0,0l-12,2.6c0.1,1,0.1,2,0.1,3
			c0,8.6-3.1,16.1-9.2,22.2C112.4,136,104.9,139.1,96.3,139.1z M99,132.4c-0.1,0-0.3,0-0.4-0.1c-0.1-0.1-0.2-0.3-0.2-0.4v-14.9
			c0-0.2,0.2-0.4,0.4-0.5c1.3-0.4,2.5-1.1,3.5-2c0.2-0.2,0.4-0.2,0.6-0.1l13,7.5c0.1,0.1,0.2,0.2,0.3,0.4c0,0.2,0,0.3-0.1,0.4
			c-0.5,0.6-1.3,1.5-2.3,2.7c0,0,0,0,0,0C109.6,129.4,104.7,131.8,99,132.4C99,132.4,99,132.4,99,132.4z M99.5,117.3v13.9
			c5.1-0.7,9.6-2.9,13.4-6.7c0.8-0.9,1.4-1.6,1.9-2.1l-12.1-6.9C101.8,116.3,100.7,116.9,99.5,117.3z M93.5,132.4
			C93.4,132.4,93.4,132.4,93.5,132.4c-5.5-0.6-10.4-3-14.5-7l0,0c-0.9-0.9-1.7-1.8-2.4-2.7c-0.1-0.1-0.1-0.3-0.1-0.4
			c0-0.2,0.1-0.3,0.3-0.4l12.9-7.5c0.2-0.1,0.5-0.1,0.6,0.1c1,0.9,2.1,1.5,3.3,2c0.2,0.1,0.4,0.3,0.4,0.5v14.9
			c0,0.2-0.1,0.3-0.2,0.4C93.7,132.3,93.6,132.4,93.5,132.4z M77.9,122.4c0.6,0.7,1.2,1.5,1.9,2.1c0,0,0,0,0,0
			c3.7,3.7,8.2,6,13.1,6.6v-13.9c-1.1-0.4-2.1-1-3-1.8L77.9,122.4z M43.8,130.2c-0.2,0-0.4-0.1-0.5-0.3c-0.1-0.3,0-0.6,0.3-0.7
			c0.2-0.1,0.6-0.3,0.9-0.5c0.3-0.2,0.6-0.4,0.9-0.5c8-4.3,14.6-9.9,19.6-16.6c-0.1-1.1-0.2-2.3-0.2-3.9c0-2,0.2-4,0.5-6l-13.6,0.7
			c-0.1,0-0.2,0-0.3-0.1c0,0,0,0,0,0c0,0,0,0,0,0c-1.9-0.1-3.6-0.8-5.1-2.1c0,0,0,0,0,0c-1.3-1.2-2-2.6-2.3-4.1h-2.6
			c-0.1,0-0.3-0.1-0.4-0.2c-1.5-1.5-2.3-3.1-2.3-4.7c0-1.6,0.8-3.1,2.2-4.7c0.1-0.1,0.2-0.2,0.4-0.2H44c0.3-1.6,1-2.9,2.3-3.9
			c1.4-1.4,3.1-2.1,5.3-2.1c0,0,0,0,0,0h29c4.3-2.6,9.2-4,14.6-4.1l1.1-0.1c0,0,0,0,0,0c5.8,0,11,1.4,15.7,4.1h49.6
			c0.3,0,0.5,0.2,0.5,0.5c0,0.3-0.2,0.5-0.5,0.5h-49.7c-0.1,0-0.2,0-0.3-0.1c-4.6-2.7-9.5-4.1-15.2-4.1l-1.1,0.1c0,0,0,0,0,0
			c-5.2,0.1-10,1.5-14.2,4c-0.1,0.1-0.2,0.1-0.3,0.1H51.6c-1.9,0.1-3.4,0.7-4.6,1.8c0,0,0,0,0,0c-1.1,1-1.8,2.2-2,3.7
			c0,0.3-0.3,0.5-0.5,0.5h-2.9c-2.4,2.6-2.4,5,0,7.5h2.9c0.3,0,0.5,0.2,0.5,0.5c0.1,1.4,0.8,2.8,2,3.9c1.3,1.1,2.8,1.7,4.4,1.8
			c0.1,0,0.2,0,0.4,0l14.2-0.7c0.2,0,0.3,0.1,0.4,0.2s0.2,0.3,0.1,0.5c-0.4,2.1-0.6,4.3-0.6,6.4c0,1.7,0.1,2.9,0.2,4
			c0,0.1,0,0.3-0.1,0.4c-2.6,3.5-5.6,6.7-9,9.6c-3.3,2.8-7.1,5.4-11.2,7.6c0,0,0,0,0,0c-0.3,0.1-0.6,0.3-0.9,0.5
			c-0.3,0.2-0.7,0.4-1,0.5C44,130.2,43.9,130.2,43.8,130.2z M118.3,118.3c-0.1,0-0.2,0-0.3-0.1l-12.9-7.6c-0.2-0.1-0.3-0.4-0.3-0.6
			l0.2-0.6l0.1-1.5c0-0.4-0.1-0.9-0.2-1.6c0-0.1,0-0.3-0.1-0.4c0-0.2,0.1-0.4,0.3-0.5l12.9-7.5c0.1-0.1,0.3-0.1,0.4,0
			c0.1,0,0.3,0.2,0.3,0.3c1.1,2.4,1.7,5,1.9,7.7c0,0,0,0,0,0l0.1,2.1c0,0,0,0,0,0c0,3.5-0.7,6.8-2,9.9c-0.1,0.1-0.2,0.3-0.3,0.3
			C118.4,118.3,118.4,118.3,118.3,118.3z M106,109.9l12,7c1.1-2.8,1.7-5.8,1.7-8.9l-0.1-2.1c-0.2-2.3-0.7-4.6-1.6-6.8l-12.1,7
			c0,0,0,0.1,0,0.1c0.1,0.7,0.2,1.2,0.2,1.7c0,0,0,0,0,0l-0.1,1.6c0,0,0,0.1,0,0.1L106,109.9z M74.3,118.1c-0.1,0-0.1,0-0.2,0
			c-0.1,0-0.3-0.2-0.3-0.3c-1.3-3-2-6.2-2-9.7c0-3.6,0.6-6.8,2-9.8c0.1-0.1,0.2-0.3,0.3-0.3c0.1,0,0.3,0,0.4,0l12.9,7.5
			c0.2,0.1,0.3,0.3,0.3,0.6c-0.1,0.6-0.2,1.3-0.2,1.9c0,0,0,0,0,0c0,0.8,0.1,1.4,0.2,2c0,0.2-0.1,0.5-0.3,0.6L74.6,118
			C74.5,118,74.4,118.1,74.3,118.1z M74.6,99.2c-1.1,2.7-1.6,5.6-1.6,8.8c0,3.1,0.6,6.1,1.6,8.7l12-7c-0.1-0.5-0.1-1.1-0.1-1.8l0,0
			c0-0.6,0-1.2,0.1-1.8L74.6,99.2z M96.3,112.4C96.3,112.4,96.3,112.4,96.3,112.4l-1.3-0.2c0,0-0.1,0-0.1,0
			c-0.6-0.2-1.1-0.5-1.6-0.9c-0.2-0.1-0.2-0.2-0.3-0.3c-0.7-0.7-1.1-1.5-1.1-2.2l-0.1-0.8c0,0,0-0.1,0-0.1l0.1-0.6
			c0.1-0.9,0.5-1.8,1.2-2.4c0.1-0.2,0.2-0.3,0.4-0.4c0.4-0.3,0.8-0.6,1.2-0.8c0.3-0.1,0.8-0.2,1.4-0.3c0,0,0,0,0,0h0.1
			c0.7,0,1.2,0.1,1.7,0.3c0.3,0.1,0.8,0.4,1.3,0.8c0,0,0,0,0,0l0.2,0.2c0.7,0.7,1.1,1.5,1.3,2.5c0,0,0,0.1,0,0.1l-0.1,1.4
			c0,0,0,0.1,0,0.1c-0.2,0.7-0.6,1.5-1.2,2.2c-0.1,0.1-0.1,0.1-0.2,0.2c0,0-0.1,0.1-0.1,0.1c-0.6,0.4-1,0.7-1.5,0.9c0,0,0,0-0.1,0
			C97.3,112.4,96.8,112.4,96.3,112.4C96.3,112.4,96.3,112.4,96.3,112.4z M95.2,111.2l1.1,0.1c0.4,0,0.7,0,1.1-0.1
			c0.3-0.1,0.7-0.3,1.1-0.7c0.1-0.1,0.2-0.2,0.3-0.3c0.4-0.6,0.7-1.1,0.8-1.6l0-1.3c-0.1-0.7-0.5-1.3-1-1.9l-0.2-0.2
			c-0.6-0.5-0.9-0.6-0.9-0.6c0,0-0.1,0-0.1,0c-0.3-0.1-0.8-0.2-1.3-0.2h-0.1c-0.6,0-0.9,0.1-1.1,0.2c0,0-0.1,0-0.1,0
			c-0.2,0.1-0.5,0.3-1,0.6c0,0,0,0-0.1,0c0,0-0.1,0.1-0.1,0.1c-0.5,0.5-0.9,1.1-0.9,1.8l0,0.5l0.1,0.7c0,0,0,0,0,0
			c0,0.5,0.3,1.1,0.9,1.6c0,0,0.1,0.1,0.1,0.1c0,0,0.1,0,0.1,0.1C94.4,110.8,94.8,111.1,95.2,111.2z M94.9,104.3L94.9,104.3
			L94.9,104.3z M90,101.7c-0.1,0-0.2,0-0.3-0.1l-12.9-7.5c-0.1-0.1-0.2-0.2-0.3-0.4c0-0.2,0-0.3,0.1-0.4c0.7-1,1.5-1.9,2.4-2.7
			c4-4.1,8.9-6.4,14.4-7c0.2,0,0.3,0,0.4,0.1c0.1,0.1,0.2,0.3,0.2,0.4v14.9c0,0.2-0.2,0.4-0.4,0.5c-1.3,0.4-2.4,1.1-3.3,2
			C90.3,101.7,90.1,101.7,90,101.7z M77.9,93.5l12,7c0.9-0.8,1.9-1.4,3-1.9V84.8c-5,0.7-9.4,2.9-13.1,6.6c0,0,0,0,0,0
			C79.1,92.1,78.5,92.8,77.9,93.5z M93.5,99.1L93.5,99.1L93.5,99.1z M102.7,101.7c-0.1,0-0.3,0-0.4-0.1c-1.1-1-2.3-1.7-3.5-2
			c-0.2-0.1-0.4-0.3-0.4-0.5V84.2c0-0.2,0.1-0.3,0.2-0.4c0.1-0.1,0.3-0.2,0.4-0.1c5.6,0.6,10.6,2.9,14.7,7c0,0,0,0,0,0
			c1.1,1.1,1.9,2,2.3,2.7c0.1,0.1,0.1,0.3,0.1,0.4c0,0.2-0.1,0.3-0.3,0.4l-12.9,7.5C102.9,101.7,102.8,101.7,102.7,101.7z
			 M99.5,98.6c1.1,0.4,2.2,1,3.2,1.9l12.1-7c-0.5-0.6-1.1-1.2-1.9-2.1c-3.8-3.8-8.3-6-13.4-6.6V98.6z"/>
	</g>
</g>
</svg>
