<?xml version="1.0" encoding="utf-8"?>
<!-- Generator: Adobe Illustrator 25.2.0, SVG Export Plug-In . SVG Version: 6.00 Build 0)  -->
<svg version="1.1" id="Layer_1" xmlns="http://www.w3.org/2000/svg" xmlns:xlink="http://www.w3.org/1999/xlink" x="0px" y="0px"
	 viewBox="0 0 192.8 192.8" style="enable-background:new 0 0 192.8 192.8;" xml:space="preserve">
<style type="text/css">
	.st0{fill:#DBA111;}
	.st1{fill:#034694;}
	.st2{fill:#FFFFFF;}
	.st3{fill:#D1D3D4;}
	.st4{fill:#ED1C24;}
	.st5{fill:#6A7AB5;}
	.st6{fill:none;}
</style>
<g>
	<path class="st0" d="M192.8,96.4c0,53.2-43.2,96.4-96.4,96.4C43.2,192.8,0,149.6,0,96.4C0,43.2,43.2,0,96.4,0
		C149.6,0,192.8,43.2,192.8,96.4"/>
	<path class="st1" d="M189.6,96.4c0,51.5-41.7,93.2-93.2,93.2S3.2,147.9,3.2,96.4S44.9,3.2,96.4,3.2
		C147.9,3.2,189.6,44.9,189.6,96.4"/>
	<path class="st0" d="M162.8,96.4c0,36.7-29.7,66.4-66.4,66.4c-36.7,0-66.4-29.7-66.4-66.4C30,59.7,59.7,30,96.4,30
		C133.1,30,162.8,59.7,162.8,96.4"/>
	<path class="st2" d="M160.8,96.4c0,35.6-28.8,64.4-64.4,64.4C60.8,160.8,32,132,32,96.4C32,60.8,60.8,32,96.4,32
		C132,32,160.8,60.8,160.8,96.4"/>
	<path class="st0" d="M41.2,152c0.7,0.7,2.5,2.3,2.5,2.3l1.7-1.8l-5-4.8l-0.6,0.7l-6.7,7.1l2.6,2.4c0,0,2.2-2.3,2.9-3.1l2.2,2.1
		l1.7-1.8l-2.2-2.1C40.6,152.6,40.8,152.4,41.2,152 M53.3,160c-0.2-1.4-1-2.5-2.1-3.4c-1.1-0.8-2.5-1.1-3.9-0.9
		c-1.5,0.2-2.8,1.1-3.7,2.4c-0.9,1.3-1.3,2.8-1,4.3c0.2,1.3,1,2.5,2.1,3.4c1.1,0.8,2.5,1.1,3.9,0.9c1.5-0.2,2.8-1.1,3.7-2.4
		c0.7-1,1.1-2.2,1.1-3.4C53.4,160.6,53.4,160.3,53.3,160 M46.1,163.8c-1.2-0.8-0.2-2.6,0.5-3.5c0.7-1,2-2.4,3.2-1.6
		c1.2,0.9,0.1,2.8-0.5,3.5C48.7,162.9,47.3,164.6,46.1,163.8z M61.2,162.7c-2.7-1.4-5.8-0.2-7.2,2.6c-0.7,1.4-0.9,3-0.4,4.4
		c0.4,1.3,1.4,2.4,2.6,3c1.2,0.6,2.7,0.8,4,0.3c1.4-0.5,2.6-1.5,3.3-2.9C64.8,167.2,63.9,164.1,61.2,162.7 M58.2,170.6
		c-0.3,0.1-0.6,0.1-1-0.1c-0.5-0.3-0.7-0.8-0.7-1.3c0-0.8,0.4-1.6,0.7-2.2c0.5-1.1,1.6-2.7,2.9-2.1c0.3,0.2,0.5,0.4,0.6,0.7
		c0.2,0.6,0,1.7-0.6,2.9C59.6,169.6,58.8,170.4,58.2,170.6z M66.8,166.6l-0.5,1.4c0,0,1.3,0.4,1.7,0.6l-2.7,7.8l3.3,1.2
		c0,0,2.2-6.4,2.7-7.8l1.7,0.6l0.8-2.3l-6.6-2.3L66.8,166.6 M80.6,169.7l-4.5-0.9l-0.2,0.9l-2,9.5l4.6,1c1.5,0.3,2.4-0.1,3-0.4
		c0.7-0.5,1.2-1.2,1.4-2.1c0.1-0.2,0.1-0.5,0.1-0.7c0-0.6-0.2-1.2-0.6-1.7c0.5-0.4,0.9-1,1-1.7c0-0.2,0.1-0.4,0.1-0.6
		C83.4,171.7,82.7,170.1,80.6,169.7 M79.3,177c0,0.2-0.1,0.5-0.3,0.6c-0.2,0.1-0.4,0.1-0.8,0c0,0-0.2,0-0.4-0.1
		c0.1-0.7,0.2-1.1,0.4-1.8c0.2,0,0.4,0.1,0.4,0.1c0.6,0.1,0.7,0.6,0.7,0.9C79.4,176.8,79.3,176.9,79.3,177L79.3,177z M79,171.9
		c0.4,0.1,0.7,0.2,0.8,0.4c0.1,0.1,0.1,0.2,0.1,0.3c0,0.1,0,0.2,0,0.3c-0.1,0.3-0.1,0.7-0.9,0.5c0,0-0.1,0-0.2-0.1
		C78.8,172.7,78.9,172.4,79,171.9L79,171.9z M88.9,171.2l-4.9,10l2.8,0.2l1.1-2.2c0.6,0,1.2,0.1,1.8,0.1l0.8,2.4L94,182l-4.1-12.8
		L88.9,171.2 M99.9,179.2l-0.3-8.1l-3.5,0.1l0.4,10.7l7.1-0.3l-0.1-2.6C103.4,179.1,100.9,179.2,99.9,179.2 M109.5,178.2
		c-0.2-1.4-1.3-8-1.3-8l-0.9,0.1l-2.6,0.4l1.7,10.6l7-1.1l-0.4-2.5C113,177.6,110.5,178,109.5,178.2 M129.7,171.1
		c0,0.9-0.6,1.7-1.4,2c-0.5,0.2-0.9,0.2-1.4,0c-0.7-0.3-1.3-1-1.7-2c-0.4-1.1-0.5-2.1-0.2-2.7c0.2-0.5,0.6-0.8,1.2-1.1
		c0.7-0.3,1.3,0,2.1,0.5l0.8,0.5l1.3-2.1l-0.8-0.5c-1.4-0.9-3.2-1.1-4.7-0.5c-1.4,0.6-2.5,1.6-3.1,3c-0.6,1.4-0.6,2.9,0,4.4
		c1.1,2.8,4.3,4.2,7.1,3.1c2-0.8,3.1-2.3,3.3-4.4l0.1-0.9l-2.6-0.2L129.7,171.1 M138,168.2c-0.7-1.3-4-7.1-4-7.1l-0.8,0.5l-2.3,1.3
		l5.2,9.3l6.2-3.4l-1.2-2.2C141,166.4,138.8,167.7,138,168.2 M144.8,153.8l-0.8,0.6l-1.3,1l4.3,5.9c0.2,0.3,0.2,0.4,0.2,0.5
		c0,0.3-0.4,0.6-0.6,0.8c-0.2,0.1-0.5,0.2-0.8,0.2c-0.2,0-0.4-0.2-0.6-0.4l-4.3-5.8l-2.8,2.1l4.3,5.8c0.6,0.9,1.4,1.4,2.3,1.5
		c1,0.2,2.2-0.2,3.3-1c2.2-1.6,2.2-3.8,1.2-5.1L144.8,153.8 M157.8,151.6c-0.7-0.7-1.5-1-2.3-0.9c0-0.7-0.3-1.3-0.8-1.8
		c-0.9-0.9-2.9-1.6-4.7,0.1l-3.3,3.2l7.4,7.7l3.4-3.3c1.1-1,1.3-2,1.3-2.7C158.8,153.1,158.4,152.3,157.8,151.6 M152.2,151.4
		c0.1,0.1,0.2,0.3,0.2,0.4c0,0.2-0.1,0.4-0.3,0.6l-0.2,0.2c-0.4-0.4-0.6-0.6-1-1.1C151.6,150.8,151.9,151.1,152.2,151.4L152.2,151.4
		z M153.9,154c0.6-0.6,1.2-0.1,1.3,0.1c0.2,0.2,0.3,0.4,0.3,0.6v0c0,0.2-0.2,0.4-0.4,0.7c0,0-0.1,0.1-0.3,0.3
		c-0.5-0.5-0.8-0.8-1.3-1.3C153.8,154.2,153.9,154,153.9,154L153.9,154z"/>
	<path class="st2" d="M41.2,151c0.3,0.3,2.5,2.4,2.5,2.4l0.7-0.8l-4-3.8l-0.2,0.2l-6.2,6.5l1.5,1.5c0,0,2.7-2.8,2.9-3.1l2.2,2.1
		l0.7-0.8l-2.2-2.1C39.4,152.8,40.9,151.2,41.2,151 M50.8,157.2c-1-0.7-2.2-1-3.3-0.8c-1.3,0.2-2.4,1-3.2,2.1
		c-0.8,1.1-1.1,2.5-0.9,3.7c0.2,1.2,0.9,2.2,1.8,2.9c1,0.7,2.2,1,3.4,0.8c1.3-0.2,2.4-1,3.2-2.1c0.6-0.9,1-2,1-3
		c0-0.3,0-0.5-0.1-0.8C52.4,159,51.8,157.9,50.8,157.2 M49.9,162.6c-0.7,0.9-2.4,3-4.2,1.8c-1.7-1.2-0.4-3.6,0.3-4.5
		c0.7-0.9,2.4-3,4.1-1.8C51.9,159.3,50.5,161.6,49.9,162.6L49.9,162.6z M60.9,163.3c-2.3-1.2-5.1-0.2-6.3,2.3
		c-0.6,1.2-0.8,2.6-0.4,3.8c0.4,1.1,1.2,2,2.3,2.6c1.1,0.6,2.3,0.7,3.4,0.3c1.2-0.4,2.2-1.3,2.9-2.6C64,167.3,63.2,164.5,60.9,163.3
		 M56.9,171.1c-1.9-1-0.9-3.5-0.4-4.5c0.5-1,1.9-3.3,3.8-2.4c0.5,0.3,0.8,0.6,1,1.1c0.4,1.1-0.2,2.6-0.6,3.4
		c-0.4,0.8-1.2,2.1-2.4,2.5C57.9,171.4,57.4,171.4,56.9,171.1L56.9,171.1z M67.4,166.8l-0.3,0.8l1.7,0.6c-0.1,0.4-2.7,7.8-2.7,7.8
		l2,0.7c0,0,2.6-7.4,2.7-7.8l1.7,0.6l0.3-1l-5.3-1.9L67.4,166.8 M80.4,170.4l-3.8-0.8l-0.1,0.2l-1.9,8.9l3.9,0.8
		c1,0.2,1.8,0.1,2.4-0.3c0.6-0.4,0.9-0.9,1.1-1.6c0-0.2,0.1-0.4,0.1-0.6c0-0.8-0.4-1.4-1.1-1.9c0.8-0.2,1.4-0.8,1.5-1.7
		c0-0.1,0-0.3,0-0.5C82.7,172,82.2,170.7,80.4,170.4 M79.1,171.1c0.6,0.1,1.1,0.4,1.3,0.7c0.1,0.2,0.2,0.4,0.2,0.7
		c0,0.1,0,0.3,0,0.4c-0.2,1.2-1.2,1.2-1.7,1c0,0-0.6-0.1-0.9-0.2c0.1-0.4,0.5-2.5,0.6-2.8C78.7,171.1,79.1,171.1,79.1,171.1
		L79.1,171.1z M78.8,175.1c1.1,0.2,1.3,1.1,1.3,1.6c0,0.2,0,0.4,0,0.4c-0.1,0.5-0.3,0.9-0.6,1.1c-0.3,0.2-0.8,0.3-1.4,0.1
		c0,0-0.7-0.1-1.1-0.2l0.7-3.2C78,174.9,78.8,175.1,78.8,175.1z M89.5,171.5l-4.4,9.1l1.3,0.1c0,0,0.9-2,1.1-2.2l2.7,0.2
		c0.1,0.3,0.8,2.4,0.8,2.4l2.2,0.2L89.8,171L89.5,171.5 M89,175.2c0.2,0.7,0.6,2,0.8,2.4c-0.4,0-1.4-0.1-1.9-0.1L89,175.2z
		 M99.2,179.9l-0.3-8.1l-0.2,0l-1.9,0.1l0.4,9.3l5.7-0.2l-0.1-1.2C102.7,179.8,99.6,179.9,99.2,179.9 M108.9,179
		c-0.1-0.4-1.3-8-1.3-8l-0.2,0l-1.9,0.3l1.4,9.2l5.6-0.9l-0.2-1.1C112.4,178.4,109.3,178.9,108.9,179 M130.4,171.1
		c0,1.2-0.7,2.2-1.8,2.7c-0.6,0.3-1.3,0.2-1.9,0c-0.9-0.4-1.6-1.2-2.1-2.4c-0.5-1.3-0.6-2.4-0.2-3.3c0.3-0.6,0.8-1.1,1.6-1.4
		c1-0.4,2,0.1,2.7,0.5l0.2,0.1l0.6-0.9l-0.2-0.1c-1.2-0.8-2.7-1-4.1-0.4c-1.2,0.5-2.2,1.4-2.7,2.6c-0.5,1.2-0.5,2.6,0,3.9
		c1,2.5,3.7,3.7,6.2,2.7c1.8-0.7,2.7-2,2.8-3.8l0-0.2l-1.1-0.1L130.4,171.1 M137.7,169.1c-0.2-0.4-4-7.1-4-7.1l-0.2,0.1l-1.7,0.9
		l4.5,8.1l4.9-2.8l-0.6-1C140.8,167.4,138,168.9,137.7,169.1 M144.7,154.8l-0.2,0.1l-0.8,0.6l3.9,5.3c0.3,0.4,0.4,0.7,0.3,1.1
		c-0.1,0.6-0.7,1.1-0.9,1.3c-0.4,0.3-0.8,0.4-1.3,0.3c-0.4-0.1-0.8-0.3-1-0.6l-3.9-5.3l-1.7,1.3l3.8,5.2c0.5,0.7,1.1,1.1,1.9,1.2
		c1.1,0.2,2.2-0.5,2.8-0.9c1.9-1.4,1.9-3.1,1.1-4.1L144.7,154.8 M157.3,152.1c-0.7-0.7-1.6-0.9-2.6-0.5c0.1-0.2,0.1-0.4,0.1-0.7
		c0-0.6-0.2-1.1-0.7-1.5c-0.6-0.6-2.1-1.4-3.7,0.2l-2.8,2.7l6.5,6.7l2.9-2.8c0.7-0.7,1.1-1.4,1.1-2.2
		C158.1,153.3,157.8,152.7,157.3,152.1 M153.1,151.8c0,0.5-0.3,0.9-0.6,1.1c0,0-0.4,0.4-0.7,0.7c-0.3-0.3-1.8-1.8-2-2.1
		c0.2-0.2,0.4-0.4,0.4-0.4c0.9-0.9,1.6-0.9,2.3-0.2C153,151.2,153.1,151.6,153.1,151.8L153.1,151.8z M154.9,156.7
		c-0.3-0.3-2-2.1-2.3-2.4c0.2-0.2,0.8-0.8,0.8-0.8c1.1-1.1,2.3,0.1,2.3,0.1c0.4,0.4,0.5,0.7,0.5,1.1v0c0,0.4-0.2,0.8-0.6,1.2
		C155.7,155.9,155.1,156.5,154.9,156.7L154.9,156.7z"/>
	<path class="st0" d="M53.6,32.9l-3.9,1.1l0.4,1.4c0.5,1.7,0.1,3.5-1.3,4.6c-0.7,0.6-1.6,0.9-2.5,0.9c-1.4-0.1-3-1-4.3-2.5
		c-1.5-1.7-2.2-3.3-2.1-4.7c0.1-1,0.6-1.9,1.5-2.7c1-0.9,2.4-0.9,4.2-0.5l1.3,0.3l0.9-3.7l-1.3-0.3c-2.9-0.7-5.9,0-8,1.9
		c-4.2,3.7-4.5,9.7-0.8,14c3.5,4,9.5,4.4,13.5,1c2.8-2.5,3.8-5.7,2.9-9.2L53.6,32.9 M64.2,13.4l-4,1.9c0,0,2.2,4.7,3,6.3
		c-1.1,0.5-2.2,1.1-3.4,1.6l-3-6.3l-5.2,2.5l8,16.9l5.2-2.5c0,0-2.5-5.2-3.3-6.9c1.1-0.5,2.2-1.1,3.4-1.6l3.3,6.9l5.2-2.5l-8-16.9
		L64.2,13.4 M81.9,23.8c-0.3-1.3-0.5-2.5-0.8-3.8l5.9-1.2l-0.8-3.8l-5.9,1.2c-0.2-1.2-0.4-2.1-0.7-3.3l6.3-1.3L85.2,8l-1.4,0.3
		l-10.6,2.1L77,28.7L89,26.3l-0.8-3.8C88.3,22.5,83.6,23.5,81.9,23.8 M99,7.5l-5.8-0.1l0,1.4l-0.4,17.3l12.2,0.3l0.1-4.1
		c0,0-4.7-0.1-6.4-0.1L99,7.5 M117.8,17c-1.5-1.1-1.9-1.5-1.8-2.2c0.1-0.3,0.4-1.3,1.5-1c0.7,0.2,1.3,0.5,1.6,1.9l0.3,1.6l3.8-1.3
		l-0.2-1.2c-0.5-2.4-2.5-4.4-5-5c-1.8-0.4-3.6-0.2-5.1,0.7c-1.3,0.8-2.3,2.1-2.7,3.6c-1,3.8,1.6,5.7,3.3,6.9
		c1.8,1.3,2.2,1.7,1.9,2.8c-0.1,0.3-0.3,0.6-0.6,0.8c-0.4,0.2-0.8,0.3-1.2,0.2c-0.9-0.2-1.3-0.7-1.7-1.9l-0.5-1.4l-3.8,1.6l0.4,1.2
		c0.7,2.4,2.4,3.9,5.3,4.6c3.2,0.8,7-0.7,8-4.5C122.3,20.3,119.6,18.3,117.8,17 M131.7,27l5.4,2.7l1.7-3.4c0,0-3.9-2-5.4-2.7
		c0.5-1.1,1-1.9,1.5-3l5.7,2.9l1.7-3.4l-10.9-5.5l-0.6,1.2L123,31.2l11,5.5l1.7-3.4l-5.8-2.9C130.5,29.3,131.1,28.1,131.7,27
		 M153.4,28.7l-17.5,9l3.3,2.9c0,0,2.9-1.5,3.9-2.1l2.7,2.3c-0.4,1.1-1.4,4.2-1.4,4.2l4.6,4l7.5-22L153.4,28.7"/>
	<path class="st2" d="M52.9,34l-2.1,0.6l0.2,0.5c0.7,2.1,0.1,4.2-1.5,5.6c-0.9,0.8-2,1.2-3.2,1.1c-1.7-0.1-3.5-1.1-4.9-2.8
		c-1.7-1.9-2.5-3.8-2.4-5.4c0.1-1.3,0.7-2.4,1.8-3.4c1.5-1.3,3.3-1.1,5-0.7l0.4,0.1l0.5-1.9l-0.4-0.1c-2.6-0.6-5.3,0-7.2,1.7
		c-3.8,3.3-4.1,8.8-0.7,12.7c3.1,3.6,8.6,4,12.2,0.9c2.6-2.3,3.4-5,2.6-8.2L52.9,34 M64.5,14.2l-3.1,1.5l3,6.3
		c-0.7,0.3-4.4,2.1-5.1,2.4c-0.3-0.7-3-6.3-3-6.3l-3.6,1.7L60,35l3.6-1.7l-3.3-6.9c0.7-0.3,4.4-2.1,5.1-2.4c0.4,0.7,3.3,6.9,3.3,6.9
		l3.6-1.7L65,14L64.5,14.2 M81.2,24.9c-0.1-0.7-1-4.9-1.1-5.6l5.9-1.2l-0.4-1.9l-5.9,1.2c-0.1-0.7-0.9-4.4-1-5.1
		c0.8-0.2,6.3-1.3,6.3-1.3l-0.4-1.9l-10.1,2l3.3,16.5l10.2-2.1l-0.4-1.9L81.2,24.9 M98.1,8.5l-3.9-0.1l0,0.5l-0.3,16.4l10.3,0.2
		l0-2.2l-6.4-0.1C97.8,22.2,98.1,8.5,98.1,8.5 M117.7,12.9c1.2,0.3,2,1.1,2.3,2.6l0.1,0.5l2.1-0.7l-0.1-0.4c-0.4-2-2.1-3.7-4.3-4.3
		c-1.6-0.4-3.1-0.2-4.4,0.6c-1.1,0.7-2,1.8-2.3,3.1c-0.8,3.2,1.3,4.7,3,5.9c1.7,1.2,2.7,2.1,2.3,3.8c-0.1,0.6-0.5,1.1-1,1.3
		c-0.6,0.3-1.2,0.4-1.9,0.3c-1.2-0.3-1.9-1-2.4-2.5l-0.2-0.5l-2.1,0.9l0.1,0.4c0.6,2,2.1,3.3,4.6,3.9c2.7,0.7,6-0.6,6.8-3.8
		c0.8-3.4-1.4-5-3.2-6.4c-1.5-1.1-2.5-1.9-2.1-3.1C115.4,13.5,116.3,12.5,117.7,12.9 M134.5,19.3l5.7,2.9l0.9-1.8l-9.2-4.7l-0.2,0.4
		l-7.4,14.6l9.3,4.7l0.9-1.8l-5.8-2.9c0.3-0.7,2.3-4.5,2.6-5.1c0.7,0.4,5.4,2.7,5.4,2.7l0.9-1.8c0,0-4.7-2.4-5.4-2.7L134.5,19.3
		 M153.8,29.5l-16.2,8.4l1.8,1.6l3.9-2.1l3.7,3.2c-0.2,0.5-1.4,4.2-1.4,4.2l3.1,2.7l6.3-18.5L153.8,29.5 M145.2,36.5
		c0.8-0.4,2.7-1.4,3.9-2c-0.4,1.3-1.2,3.4-1.5,4.2C146.8,37.9,146,37.2,145.2,36.5L145.2,36.5z"/>
	<path class="st3" d="M142.5,93.9c-1.3-3.5-5.9-5.1-10.3-3.4c-1.8,0.7-3.3,1.8-4.3,3.2c2.9-8.2,14.5-9.9,14.5-17.5
		c0-12.7-18.1-9.2-15.5,0c0-4.2,6.6-4.9,6.6,0c0,4.9-11.5,8.2-11.5,16.5c0,9.2,9.2,10,8.2,18.4c-0.2,1.4-1.7,3.3-4,3.3
		c-14,0-9-17.3-13.9-22.6l0.3-3.6c2.8,1.7,10.4-2.3,5.4-8.5c0,3.1-6.4,2.9-6.4-2.9c0-7.8,7.3-3.7,7.7-2c-0.3-2.8-0.5-4.7,0-6.3
		c-3.9,1.3-4.3-1-3.8-1.9c0.6-1,1.3-2.2,2.9-2.2c0.8,0,1.3,0.1,1.6,0.3c0.5,0.3,0.8-0.4,0.8,0.3c0.4-0.6,0.3,0.2,0.7-0.5
		c0.4-0.6,1-1.4,2-2.3l0-1.4l1.1,0.4l1.1-1.8c-1.2-2.5-2.8-1.3-4-4.3c-1-0.3-16.5,1.4-16-4.7c-1.3,0-4.2,0.7-2.4,3.2
		c-1.4,0.2-2.5-1.5-4.6,3c2.7-0.5,1.3,2.5,1.3,3.4c0,5.6-7.4,5.5-7.4,2.9c-1.8,1.7-0.8,5.6,1.9,6.5c0,0-1,4.1-3.6,6.7
		c-3.8-0.2-9.9-0.8-13.3-4.1c-1.5-1.4-2.7-2.2-3.7-2.6v-1.8c1.5-0.7,3.1-2,4.8-4.2c1.3-1.6,2-3.7,1.8-5.9c0-0.3-0.1-0.5-0.1-0.8
		c0-0.1,0-0.2-0.1-0.2c0-0.2-0.1-0.4-0.1-0.5c0-0.1,0-0.2-0.1-0.3c-0.1-0.2-0.1-0.3-0.2-0.5c0-0.1,0-0.1-0.1-0.2
		c-0.1-0.2-0.2-0.4-0.3-0.7c0-0.1-0.1-0.2-0.1-0.2c-0.1-0.1-0.2-0.3-0.2-0.4c-0.1-0.1-0.1-0.2-0.2-0.3c-0.1-0.1-0.1-0.2-0.2-0.3
		c-0.1-0.1-0.2-0.2-0.3-0.3c-0.1-0.1-0.1-0.1-0.2-0.2c-0.4-0.4-0.8-0.8-1.2-1.1l-0.1-0.1c-0.2-0.1-0.3-0.2-0.5-0.3c0,0,0,0,0,0
		c-1.7-1-3.6-1.5-5.5-1.3c-4.9,0.4-8.5,4.5-8.1,9.1c0.3,3.6,3,6.5,6.5,7.4c-1.2,0.7-2.2,1.1-2.5,1.1c0,0,0.1,0.1,0.1,0.1l0,0
		c0,0,0.1,0.1,0.2,0.1l0,0l0.2,0.1l0,0c0.1,0.1,0.2,0.1,0.3,0.1c0.2,0.1,0.5,0.2,0.7,0.2c0,0,0.1,0,0.1,0c0.1,0,0.2,0.1,0.3,0.1
		l0.1,0c0.1,0,0.3,0,0.4,0.1c0,0,0,0,0,0v1.1c-0.1,0-0.1,0-0.2,0c-1.6,0.3-2.6,0.7-3.1,2.2c-0.5,1.4,0,1.9,0.8,2.9
		c-0.6,1.1-2.3,1.5-0.1,4c-0.2,0.9,0,2.4,1.4,2.9c0.4,0.2,0.8,0.2,1.2,0.3l0,18.6c-1.4,0.7-2,1.6-2.4,2.5c0,0-1.1-2.4-1,2.4
		c1.2-1,0.8,1.1,0.8,1.1c-1.7,2.2,0.5,2.1,0.5,2.1c1.5-1.5,1.2,0.7,1.2,0.7c0,2.6,1,3.6,1.1,3.6v14.2l-1.2,0l0,3.9l2.2,0
		c-1.2,0.5-2,1.7-1.9,3c0.1,1.7,1.7,2.9,3.4,2.8c1.8-0.1,3.1-1.6,2.9-3.3c-0.1-1.2-0.9-2.1-1.9-2.5l2,0l0-3.9l-1.2,0l0-12.6
		c0.2,0.1,0.5,0.2,0.8,0.3c0.1,0,0.2,0,0.3,0c0.1,0,0.1,0,0.2,0c-0.3-1.7,0.7-2.8,0.7-2.8c0.5-0.8,1.2-1.4,2.1-1.8
		c2.5-1.3,5.9-0.9,6.9,1.1c6.5-1.7,12-8.2,12-8.2l3.2,5.4c-6.7,2.3-21.4,15-11.2,19.4c0,1.3-0.2,10.8-6.3,10.1
		c-8.8-1.1-11,2.6-9.3,6.7c-0.8,3.5,1.9,4.7,1.9,4.7c-0.4-2,0.6-3.7,4.2-3.6c0,3.6,2.3,4.3,2.3,4.3c0-3.1,2.2-4.3,4.1-4.3
		c0,2.6,3,3.5,3,3.5s-0.8-3,2.6-3.5c8.5-1.5,0.5-10.3,13.5-12.7c0,0-6.5-1-6.5-4.5c0-3.2,5.9-5.4,7.9-5.4c4.1,7.9,8.6,8,9.8,8
		c1.8,2,1.2,8.9-1.4,8.8c-9.7-0.5-9.3,5.4-8.2,6.6c-0.1,2.3,1.7,3.6,1.7,3.6c0-2.4,2.3-3.1,5.3-3c-0.2,3,1.7,3.4,1.7,3.4
		c0.1-3,2.3-3.5,3.9-3.4c-0.1,2.1,2,2.7,2,2.7s-0.2-2.7,2.6-2.7c5.3,0-2.4-11.5,8-22.8c-9.2,4.2-14-6.4-14-8.4
		c4.7,5.5,20,6.6,20-2.8c0-9-9.9-12.4-5.3-15.8c2.7-2,8,2,5,6.2C141.4,101.6,143.8,97.4,142.5,93.9 M83.8,94.2
		c-3.5,2-5.8,4.6-8.9,5.7c-0.5,0.2-0.9,0.2-1.2,0.2V82.5c0.8,0.1,3,0.4,5.5,1.4c2.5,1.4,2.5,4.2-0.7,4.9c2,3.8,8.9,2,10.4-1.2
		c0.7-0.1,1.4,1.3,2,2.5C90.1,90.6,88.1,91.7,83.8,94.2L83.8,94.2z M122.5,65c-0.4,0.5-0.8,1-1.1,1.5c0.9,1.5,2.6,2.4,4.3,2.2
		c2.5-0.2,4.3-2.5,4.1-5c0-0.1,0-0.2,0-0.3c-0.3,1.3-1.8,2.4-3.7,2.6C124.7,66.2,123.3,65.8,122.5,65L122.5,65z"/>
	<path class="st1" d="M66.7,54.5C66.7,54.5,66.7,54.5,66.7,54.5L66.7,54.5C66.7,54.5,66.7,54.5,66.7,54.5 M66.8,128.1
		C66.8,128.1,66.8,128.1,66.8,128.1L66.8,128.1C66.8,128.1,66.8,128.1,66.8,128.1z M66.7,47L66.7,47L66.7,47z M65.4,127.7l2.2,0
		c-0.3,0.1-0.5,0.3-0.7,0.4c0.2-0.1,0.4-0.1,0.7-0.1c1.1,0,2,0.9,2,2c0,1.1-0.9,2-2,2c-0.9,0-1.6-0.6-1.9-1.4v0.2
		c0.1,1.7,1.7,2.9,3.4,2.8c1.8-0.1,3.1-1.6,2.9-3.3c-0.1-1.2-0.9-2.1-1.9-2.5l2,0l0-3.9l-1.2,0v-12.6c-1.2-0.6-1.8-2-1.6-3.3
		c0.7,0,1.4,0.2,1.9,0.5c-0.7,1.5,1,3.1,1,3.1c-0.3-1.7,0.7-2.7,0.7-2.7c0.5-0.8,1.2-1.4,2.1-1.8c2.5-1.3,5.9-0.9,6.9,1.1
		c6.5-1.7,12-8.2,12-8.2l3.2,5.4c7.4,0,4.9-5.6,4.4-6.1c1.7,0,4.1,1.3,4.1,4.1c0,6.9-19.9,7.8-19.9,16.2c0,3.5,3.5,4.8,3.5,4.8
		c0,7.6-5.2,12.1-8.8,12.1c-5.7,0-10.1-1.2-10.1,5.1h2c-1.9,1.9-0.1,4.7-0.1,4.7c-0.4-2,0.6-3.6,4.2-3.6h2.3
		c-1.4,1.4-0.6,3.6,0.1,4.3c0-3.1,2.2-4.3,4.1-4.3h1.6c-0.4,0.4,0.3,2.5,1.3,3.5c0,0-0.8-3,2.6-3.5c8.5-1.5,0.5-10.3,13.5-12.7
		c0,0-6.5-1-6.5-4.5c0-3.2,5.9-5.4,7.9-5.4c1.6-0.2,3.1-0.2,4.4,0.1c0.5,5.1,6.4,4.9,7.7,4.9c5,5-1.3,12.9-1.3,12.9
		c-7.6,0-10.6,1.1-10.6,5.5h1.4c-0.8,0.8-0.4,3,0.2,3.6c0-2.5,2.3-3.1,5.3-3h1.6c-0.8,0.8-0.6,2.6,0.2,3.4c0-3,2.3-3.5,3.9-3.4h1.3
		c-0.5,0.5,0,2.1,0.7,2.7c0,0-0.2-2.7,2.6-2.7c5.3,0-2.4-11.5,8-22.8c-9.2,4.2-14.1-6.4-14.1-8.4c4.7,5.5,20,6.6,20-2.8
		c0-7.6-7.1-11.2-6.5-14.2c0.2-2.3,2.2-4.1,4.5-4.1c2.5,0,4.5,2,4.5,4.5c0,1.8-1.1,3.5-2.8,4.2c0,0,0,0,0,0c0,0,0,0,0,0
		c4.3-1.6,6.8-5.8,5.4-9.3c-1.3-3.5-5.9-5.1-10.3-3.4c-1.8,0.7-3.3,1.8-4.3,3.2c2.9-8.2,14.5-9.9,14.5-17.5c0-12.7-18.1-9.2-15.5,0
		c0-0.1,0-0.3,0-0.4c0.5-5.2,9.7-6.2,9.7,0.5c0,5.8-11.9,9-11.9,16.7c0,8,8.8,10,8.8,18.4c0,1-0.5,5.3-6.4,5.3
		c-5.6,0-8.3-3.1-9.9-7.2c-2.9-5.5-1.8-14.2-5-17.6l0.3-3.5c2.8,1.7,10.4-2.3,5.4-8.6c0,3.1-6.4,2.9-6.4-2.9c0-7.8,7.3-3.7,7.7-2
		c-0.4-2.8-0.5-4.7,0-6.3c-3.9,1.3-4.3-1-3.8-1.9c0.6-1,1.3-2.2,2.9-2.2c2.2,0,2.1,0.8,2,2c0.8-1.3,1.1-2.2,3.1-4.2l0-1.4l1.1,0.4
		l1.1-1.8c-1.2-2.5-2.8-1.3-4-4.3c-1-0.3-14-1.5-13.5-7.6c-1.2,0-4.3,4-2.2,6.1h-2.7c-1.4,0.2-4.8-0.8-7,3.6c5.3-5.3,8.8,7.4-1,7.4
		v0c-1.4,0-2.7-0.6-2.8-1.6c-1,4.3,5.2,5.6,5.2,5.6c0,1.3-3.1,8.2-4.6,9.7c1,1,1.3,7.1-3.4,7.1c1.7-4.6-3.3-8.4-8.1-11h0
		c-0.9-0.3-1.7-0.7-2.5-1.2c-3-1.4-5.4-2.1-5.4-2.1v-3.6c1.5-0.7,3.1-2,4.8-4.2c1.3-1.6,2-3.7,1.8-5.9c0-0.3-0.1-0.5-0.1-0.8
		c0-0.1,0-0.2,0-0.2c0-0.2-0.1-0.4-0.1-0.5c-0.1-0.3-0.2-0.5-0.3-0.8c0-0.1-0.1-0.1-0.1-0.2c-0.1-0.2-0.2-0.4-0.3-0.6
		c0-0.1-0.1-0.2-0.1-0.3c-0.1-0.1-0.2-0.3-0.2-0.4c-0.1-0.1-0.1-0.2-0.2-0.3c-0.1-0.1-0.1-0.2-0.2-0.3c-0.1-0.1-0.2-0.2-0.3-0.3
		c-0.1-0.1-0.1-0.1-0.2-0.2c-0.2-0.2-0.5-0.5-0.7-0.7c0,0,0,0-0.1-0.1c-0.1-0.1-0.3-0.2-0.4-0.3c0,0-0.1-0.1-0.1-0.1
		c-0.2-0.1-0.3-0.2-0.5-0.3c0,0,0,0,0,0c-1.7-1-3.6-1.5-5.5-1.3c-0.4,0-0.9,0.1-1.3,0.2c-2.8,1.1-4.9,4.4-4.9,8.3
		c0,3.7,1.8,6.8,4.4,8.1c0,0,0.1,0,0.1,0c-1.2,0.7-2.2,1.1-2.5,1.1c0,0,0.1,0.1,0.1,0.1c0,0,0,0,0,0c0,0,0.1,0.1,0.2,0.1
		c0,0,0,0,0,0c0.1,0,0.2,0.1,0.2,0.1c0,0,0,0,0,0c0.1,0,0.2,0.1,0.3,0.1c0.3,0.1,0.5,0.2,0.8,0.3l0.1,0c0.1,0,0.2,0.1,0.3,0.1
		c0,0,0.1,0,0.1,0c0.1,0,0.3,0.1,0.4,0.1c0,0,0,0,0,0c0.9,0.1,2-0.2,2-0.2v2.1c-0.2,0-1.6-0.5-2-0.9c0,0-0.1,0-0.2,0
		c-1.6,0.3-2.6,0.7-3.1,2.2c-0.5,1.4,0,1.9,0.8,2.9c-0.6,1.1-2.3,1.5-0.1,4c-0.2,0.9,0,2.4,1.4,2.9c0.4,0.2,0.8,0.2,1.2,0.3
		c0.8,0,2,0.7,2,2.4v16c0.7,0,1.5,0.1,2.3,0.2V79.7c0.8,0.1,3,0.4,5.5,1.4c0,0,0.1,0,0.1,0c0,0,0,0,0,0c0.2,0,0.5,0.1,0.7,0.1
		c1.7,0.5,2.7,2,2.3,3.3c-0.4,1.3-2.1,1.9-3.8,1.4c2,3.8,8.9,2,10.4-1.2c0.7-0.1,1.4,1.3,2,2.5c0,0,1.7,0.7,6,0.7
		c0,0-17.4,11.1-22.5,11.1c-2.2,0-6.9,0-6.9,1.6c-1.3,0-3.2,2.2-3.2,3.5c1.2-1,2.3-1,2.3-1c1.1,0,1.7,0.3,1.7,0.3
		c-0.4,0.4-2.1,2.3-2.1,3.9c1.5-1.5,2.1-1.5,2.1-1.5s1.5-0.2,2.1,0.3c-0.4,0.4-1,1.7-1,3.2c0,0,0.9-1.7,2-1.7v16.7
		c0,0.5-2.3,1-3.3,1 M66.1,77.1c-0.4,0-0.6-0.5-0.6-0.7c0-0.2,0.2-0.8,0.6-0.8c1,0,3.1,0.5,3.1,0.7C69.1,76.4,67.1,77.1,66.1,77.1
		L66.1,77.1z M65.5,74.4c-0.6,0-0.8-0.8-0.8-1.1c0-0.3,0.3-1,0.9-1c1.4,0.1,4.2,1.1,4.1,1.4C69.7,73.9,66.9,74.5,65.5,74.4z
		 M65.2,70.8c-0.6-0.2-0.7-1.1-0.6-1.4c0.1-0.3,0.6-1.1,1.2-0.9c1.5,0.4,4.2,2,4.2,2.3C69.9,71.2,66.7,71.2,65.2,70.8L65.2,70.8z
		 M69.8,60.9c0.3-0.6,0.2-1.5,0-2.3l-0.1,0c-1.8,0-3.3-1.5-3.3-3.3v0c0-0.3,0-0.6,0.1-0.9h0c0,0,0,0,0,0c0.4-1.4,1.7-2.4,3.1-2.4
		c1.8,0,3.3,1.5,3.3,3.3C73.1,57.4,71.6,59.3,69.8,60.9L69.8,60.9z"/>
	<path class="st4" d="M118.7,63.7c0.9,1.5,2.6,2.4,4.3,2.2c2.5-0.2,4.3-2.5,4.1-5c0-0.1,0-0.2,0-0.3c-0.3,1.3-1.8,2.4-3.7,2.6
		c-1.5,0.1-2.8-0.3-3.6-1C119.4,62.7,119,63.3,118.7,63.7"/>
	<path class="st2" d="M112.6,55.3l1.6,0.1l-0.8,1.1C113.4,56.4,112.3,56.8,112.6,55.3 M108.8,55.3h2.3c0,0-0.1,1.8,1.6,2l-0.4,0.6
		C112.3,57.8,107.9,56.7,108.8,55.3z"/>
	<path class="st5" d="M70,70.9c0.1-0.3-2.7-1.9-4.2-2.3c-0.6-0.2-1.1,0.6-1.2,0.9c-0.1,0.3,0,1.2,0.6,1.4
		C66.7,71.2,69.9,71.2,70,70.9 M69.7,73.6c0-0.3-2.7-1.3-4.1-1.4c-0.6,0-0.9,0.7-0.9,1c0,0.3,0.2,1.1,0.8,1.1
		C66.9,74.5,69.7,73.9,69.7,73.6z M66.6,65.3v1.1c0.4,0.4,1.9,0.9,2,0.9v-2.1C68.7,65.2,67.6,65.4,66.6,65.3L66.6,65.3z M66.1,75.6
		c-0.4,0-0.6,0.6-0.6,0.8c0,0.2,0.2,0.8,0.6,0.7c1,0,3-0.7,3-0.9C69.1,76,67.1,75.6,66.1,75.6z M64,103.3c-1.7,2.2-0.5,4.2-0.5,4.2
		c0-1.5,1.7-3.5,2.1-3.9C65.6,103.6,65,103.3,64,103.3L64,103.3z M69.3,107.9c-0.3,1.6,0.7,3.2,2.4,3.6c0.1,0,0.2,0,0.4,0.1l0.2,0
		c0,0-1.7-1.6-1-3.1C70.8,108.1,70.1,107.9,69.3,107.9L69.3,107.9z M66.3,63.3c-2.6-1.2-4.4-4.4-4.4-8.1c0-3.9,2-7.2,4.9-8.3
		c-4.2,0.9-7.2,4.7-6.8,8.9C60.2,59.5,62.8,62.3,66.3,63.3z M93.4,54.3c2.7-0.5,3.6,1.9,3.6,2.8c0,3.3-2.6,4.6-4.7,4.6v0
		C102.2,61.7,98.8,49,93.4,54.3z M86.9,82.5c4.7,0,4.4-6.1,3.4-7.1c1.5-1.5,4.6-8.4,4.6-9.7c0,0-6.2-1.3-5.2-5.6c0,0,0,0,0,0l-0.1,0
		c-1.7,1.8-0.7,5.5,2,6.4c0,0-1,4.1-3.6,6.7c-2.5-0.1-6.1-0.4-9.2-1.6C83.6,74,88.6,77.9,86.9,82.5L86.9,82.5z M68.6,53.1
		c1.2-0.1,2.3,0.8,2.4,1.9c0.1,1.2-0.8,2.2-2,2.3c-1.2,0.1-2.3-0.8-2.4-1.9c0,1.8,1.5,3.3,3.3,3.3l0.1,0c0.2,0.8,0.2,1.6,0,2.3
		c1.8-1.5,3.2-3.4,3.2-5.5c0.5-1.7-0.5-3.5-2.3-4c-1.7-0.5-3.5,0.5-4,2.3c-0.1,0.3-0.1,0.6-0.1,0.9C67,53.7,67.7,53.2,68.6,53.1
		L68.6,53.1z M103.1,50.7c-2.1-2.1,1-6.1,2.2-6.1c-1.3,0-6.7,3.6-4.9,6.1H103.1L103.1,50.7z M75.8,86c1.7,0.5,3.4-0.1,3.8-1.4
		c0.4-1.3-0.7-2.8-2.3-3.3c-0.2-0.1-0.5-0.1-0.7-0.1C79,82.6,78.9,85.3,75.8,86z M70.9,68.1c0,0,2.4,0.8,5.4,2.1
		c-0.6-0.4-1.1-0.8-1.7-1.3c-1.5-1.4-2.7-2.2-3.7-2.6V68.1z M71.8,99.1c5,0,22.5-11.1,22.5-11.1c-4.3,0-6-0.7-6-0.7
		c-1,0.5-3,1.5-7.2,4c-3.5,2-5.8,4.6-8.9,5.7c-0.5,0.2-0.9,0.2-1.2,0.2c-0.7-0.1-1.5-0.2-2.3-0.2v-16c0-1.7-1.2-2.4-2-2.4v18.6
		c-1.4,0.7-2,1.6-2.4,2.5c0,0-2.6-0.3-2.5,4.5c0-1.3,1.9-3.5,3.2-3.5C64.9,99.1,69.7,99.1,71.8,99.1L71.8,99.1z M115.3,124.9
		c-1.3,0-7.1,0.2-7.7-4.9c-1.3-0.3-2.8-0.3-4.4-0.1c4.1,7.9,8.6,8,9.8,8c1.8,2,1.2,8.9-1.4,8.8c-9.7-0.5-9.3,5.4-8.2,6.6
		c0-4.4,3-5.5,10.6-5.5C114,137.8,120.3,129.9,115.3,124.9L115.3,124.9z M117.3,143.9H116c-0.1,2.1,2,2.7,2,2.7
		C117.3,146,116.8,144.4,117.3,143.9L117.3,143.9z M105,146.9c-0.6-0.6-1-2.8-0.2-3.6h-1.4C103.3,145.6,105,146.9,105,146.9z
		 M133.9,73.4c0-6.8-9.3-5.7-9.7-0.5c0.4-3.8,6.6-4.4,6.6,0.4c0,4.9-11.5,8.1-11.5,16.5c0,9.2,9.2,10,8.2,18.4
		c-0.2,1.5-1.7,3.3-4,3.3c-4.8,0-7.4-2-8.9-4.9c1.5,4.1,4.2,7.2,9.9,7.2c5.8,0,6.4-4.3,6.4-5.3c0-8.4-8.8-10.4-8.8-18.4
		C122.1,82.4,133.9,79.2,133.9,73.4L133.9,73.4z M65.6,106c0,2.6,1.1,3.6,1.1,3.6c0-1.6,0.6-2.9,1-3.2C67.1,105.8,65.6,106,65.6,106
		L65.6,106z M132.6,91.7c-2.3,0-4.3,1.8-4.5,4.1c0.1-0.6,0.5-1.1,1.2-1.6c2.7-2,8,2,5,6.2c1.7-0.7,2.8-2.3,2.8-4.2
		C137,93.7,135,91.7,132.6,91.7L132.6,91.7z M111.9,143.9h-1.6c-0.2,3,1.8,3.4,1.8,3.4C111.3,146.6,111.2,144.7,111.9,143.9z
		 M67.5,128c-0.2,0-0.5,0.1-0.7,0.1c-0.8,0.6-1.2,1.5-1.2,2.4c0.3,0.8,1,1.4,1.9,1.4c1.1,0,2-0.9,2-2C69.5,128.9,68.6,128,67.5,128z
		 M78.6,142.5h-2.3c0,3.6,2.3,4.3,2.3,4.3C78,146.2,77.1,144,78.6,142.5z M85.6,119.5c0-8.3,19.9-9.3,19.9-16.2
		c0-2.8-2.4-4.1-4.1-4.1c0.5,0.5,3.1,6.1-4.4,6.1c-6.7,2.3-21.4,15-11.2,19.4c0,1.3-0.2,10.8-6.3,10.1c-8.8-1.1-11,2.6-9.3,6.7
		c0-6.2,4.4-5.1,10.1-5.1c3.6,0,8.8-4.5,8.8-12.1C89.1,124.3,85.6,123,85.6,119.5z M68.7,124.6v-16.7c-1.1,0-2,1.7-2,1.7v14.3v-0.1
		l-1.2,0l0,1.8C66.4,125.6,68.7,125.1,68.7,124.6L68.7,124.6z M72.1,146.1c0,0-1.8-2.8,0.1-4.7h-2C69.4,145,72.1,146.1,72.1,146.1z
		 M84.4,142.6h-1.6c0,2.6,3,3.5,3,3.5C84.7,145.1,83.9,143,84.4,142.6z"/>
	<path class="st6" d="M165.4,77.3"/>
	<path class="st2" d="M28.9,114.8l-0.1-0.3l0-0.4c-0.2-1.2-0.5-3.4-2.2-3.8c-0.5-0.1-0.9-0.1-1.5,0.2c0.1-0.5,0.1-1,0-1.5
		c-0.6-1.7-2.9-1.6-4.1-1.6h-0.4l-0.4-0.1c-1.2-0.2-3.4-0.6-4.3,0.9c-0.2,0.4-0.3,0.9-0.3,1.4c-0.5-0.3-0.9-0.4-1.4-0.4
		c-1.8,0.1-2.5,2.2-2.8,3.4l-0.1,0.3l-0.2,0.3c-0.6,1.1-1.7,3-0.5,4.4c0.3,0.4,0.7,0.6,1.3,0.7c-0.4,0.3-0.7,0.7-0.8,1.2
		c-0.5,1.7,1.4,3,2.4,3.7l0.3,0.2l0.2,0.3c0.8,0.9,2.4,2.5,4,1.8c0.4-0.2,0.8-0.5,1.1-1c0.2,0.5,0.5,0.9,0.9,1.2
		c1.5,1,3.3-0.4,4.3-1.1l0.3-0.2l0.3-0.2c1.1-0.5,3.1-1.5,3-3.3c0-0.5-0.2-0.9-0.6-1.3c0.5,0,1-0.2,1.4-0.5
		C30,118.1,29.3,115.9,28.9,114.8"/>
	<path class="st4" d="M21.2,116.2c9.9,5.9,6.9-0.6,6.7-1.5C27.6,113.7,27.5,106.6,21.2,116.2 M20.5,117.7c-2.5,11.3,2.7,6.4,3.5,5.9
		C24.9,123,31.6,120.8,20.5,117.7 M18.9,117.6c-11.5,1.1-5.2,4.5-4.5,5.2C15.2,123.4,19.5,129.1,18.9,117.6 M18.6,116
		c-4.6-10.6-5.9-3.6-6.3-2.7C11.9,114.2,7.8,120.1,18.6,116"/>
	<path class="st2" d="M182.6,113.2l-0.2-0.3l-0.1-0.3c-0.4-1.2-1-3.3-2.8-3.4c-0.5,0-0.9,0.1-1.4,0.4c0-0.5-0.1-1-0.3-1.4
		c-0.9-1.5-3.1-1.1-4.3-0.9l-0.4,0.1h-0.4c-1.2,0-3.5,0-4.1,1.6c-0.2,0.4-0.2,0.9-0.1,1.5c-0.5-0.2-1-0.3-1.4-0.2
		c-1.7,0.4-2,2.6-2.2,3.8l-0.1,0.4l-0.1,0.3c-0.4,1.2-1.1,3.3,0.3,4.4c0.4,0.3,0.8,0.5,1.4,0.5c-0.4,0.4-0.6,0.9-0.6,1.3
		c-0.2,1.8,1.9,2.7,3,3.3l0.3,0.2l0.3,0.2c1,0.7,2.8,2.1,4.3,1.1c0.4-0.3,0.7-0.6,0.9-1.2c0.3,0.5,0.6,0.8,1.1,1
		c1.6,0.7,3.2-0.9,4-1.8l0.2-0.3l0.3-0.2c1-0.7,2.8-2,2.4-3.7c-0.1-0.5-0.4-0.9-0.8-1.2c0.5-0.1,1-0.4,1.3-0.7
		C184.3,116.3,183.2,114.3,182.6,113.2"/>
	<path class="st4" d="M173.8,115.2c-8.6-7.6-1.6-6.7-0.6-6.8C174.2,108.3,181,106.2,173.8,115.2 M172.6,116.2
		c-9.9,5.9-6.9-0.6-6.7-1.5C166.2,113.7,166.3,106.6,172.6,116.2 M173.2,117.7c2.5,11.3-2.7,6.4-3.5,5.9
		C168.9,123,162.1,120.8,173.2,117.7 M174.8,117.6c11.5,1.1,5.2,4.5,4.5,5.2C178.6,123.4,174.3,129.1,174.8,117.6 M175.2,116
		c4.6-10.6,5.9-3.6,6.3-2.7C181.9,114.2,186,120.1,175.2,116"/>
	<path class="st2" d="M177.4,116.3c0-0.1,0-0.2-0.1-0.3c0.9-0.7,1.9-1.4,1.9-1.4l-0.1-0.2l-2.3,0.4c-0.6-0.9-1.5-1.5-2.6-1.6
		c-0.2-0.7-0.5-1.4-0.7-2.1l-0.2,0c0,0-0.2,1.1-0.3,2.2c-0.7,0.2-1.3,0.6-1.7,1.1c-0.2,0.3-0.4,0.6-0.6,1c-1.1,0-2.3,0-2.3,0l0,0.2
		c0,0,1.1,0.5,2.1,1c0,0.1,0,0.2,0,0.3c0.1,0.9,0.5,1.7,1.2,2.3l-0.8,2.4l0.2,0.1c0,0,0.9-1,1.8-1.8c0.4,0.1,0.9,0.2,1.4,0.2
		c0.5,0,0.9-0.2,1.3-0.4c1,0.7,2,1.5,2,1.5l0.2-0.2c0,0-0.6-1.2-1.2-2.2C177.2,118.1,177.5,117.2,177.4,116.3"/>
	<path class="st4" d="M173.8,114.6c-0.5,0-1,0.3-1.4,0.7c-0.7,0.9-0.6,2.1,0.3,2.9s2.1,0.6,2.9-0.3c0.3-0.4,0.5-1,0.5-1.5
		C175.9,115.3,174.9,114.5,173.8,114.6C173.8,114.6,173.8,114.6,173.8,114.6 M19.9,115.2c8.6-7.6,1.6-6.7,0.6-6.8
		C19.6,108.3,12.7,106.2,19.9,115.2"/>
	<path class="st2" d="M23.2,116.7c1-0.5,2.1-1,2.1-1l-0.1-0.2c0,0-1.2,0-2.3,0c-0.1-0.4-0.3-0.7-0.6-1c-0.5-0.5-1.1-0.9-1.7-1.1
		l-0.3-2.2l-0.2,0c0,0-0.3,1.1-0.7,2.1c-1.1,0.1-2,0.7-2.6,1.6l-2.3-0.4l-0.1,0.2c0,0,1,0.7,1.9,1.4c0,0.1,0,0.2-0.1,0.3
		c-0.1,0.9,0.2,1.8,0.8,2.5c-0.6,1-1.2,2.2-1.2,2.2l0.2,0.2c0,0,1.1-0.8,2-1.5c0.4,0.2,0.8,0.3,1.3,0.4c0.5,0,0.9,0,1.4-0.2l1.8,1.8
		l0.2-0.1l-0.8-2.4c0.7-0.6,1.1-1.4,1.2-2.3C23.2,116.8,23.2,116.7,23.2,116.7"/>
	<path class="st4" d="M21.3,115.3c-0.3-0.4-0.8-0.7-1.4-0.7c-1.1-0.1-2.1,0.7-2.2,1.8c0,0,0,0,0,0c0,0.5,0.1,1.1,0.5,1.5
		c0.7,0.9,2,1,2.9,0.2c0.4-0.3,0.7-0.8,0.7-1.4C21.9,116.3,21.7,115.7,21.3,115.3"/>
	<path class="st2" d="M21.2,67.2c-4.8-0.9-9.5,2.4-10.3,7.2c-0.9,4.8,2.4,9.5,7.2,10.3c4.8,0.9,9.5-2.4,10.3-7.2
		C29.3,72.7,26.1,68,21.2,67.2"/>
	<path class="st4" d="M23.2,73.9c-0.1-0.1-0.3-0.2-0.4-0.2c-0.7-0.5-2.2-1.4-2.2-1.5c-0.2-0.1-0.4-0.3-0.6-0.4
		c-0.6-0.4-1.1-0.8-1.7-1.1c-0.2-0.1-0.4-0.2-0.6-0.3c-0.9-0.4-1.7-0.7-2.6-0.8c-0.7,0.5-1.4,1.2-1.9,2c2.2,0.8,4.4,2.1,8.9,4.9
		C22.3,75.9,23.2,74,23.2,73.9 M21.2,78.7c0.1-0.2,0.5-1.2,0.6-1.6c-4.6-2.9-6.8-4.1-9-4.9c-0.3,0.6-0.6,1.3-0.8,2
		C13.3,75.9,16.7,77.6,21.2,78.7 M20.7,71.4c1.7-1,3.7-0.7,5.2-0.2c-0.6-0.7-1.3-1.4-2-1.9c-1.4-0.3-3.4-0.3-5,0.9
		C19.4,70.6,20,71,20.7,71.4"/>
	<path class="st4" d="M13.8,79.7c0.2,0.2,0.5,0.3,0.7,0.5c0.5,0.3,1.1,0.5,1.6,0.7c0.2,0.1,0.5,0.2,0.7,0.3c0.9,0.3,2.9,0.8,3,0.8
		l1.1-2.6c-3.4-0.9-7.2-2.3-9-4.3c-0.1,0.9-0.1,1.8,0.1,2.6C12.4,78.5,13,79.1,13.8,79.7 M20,82.7l-0.7-0.2
		c-0.7-0.2-1.4-0.4-2.1-0.6c0.4,0.8,0.9,1.4,1.5,1.8c0.8,0.1,1.6,0.1,2.4,0C20.4,83.2,20,82.7,20,82.7 M27.2,73.7
		c-0.2-0.5-0.4-1-0.6-1.5c-1.4-0.6-3.4-1.2-5.2-0.3l2.5,1.6c0.5,0,1-0.1,1.4,0c0.2,0,0.5,0,0.7,0C26.4,73.5,26.8,73.6,27.2,73.7
		 M25.9,74.1c-0.1,4.1-2,7.2-3.7,9.2c2.6-0.9,4.7-3.1,5.2-6c0.2-1,0.2-1.9,0-2.9C26.9,74.3,26.4,74.2,25.9,74.1 M18.2,69.9
		c1.2-1,2.5-1.4,3.8-1.4c-0.3-0.1-0.7-0.2-1-0.2c-1.7-0.3-3.5,0-5.1,0.8C16.7,69.2,17.5,69.5,18.2,69.9"/>
	<path class="st4" d="M23.9,74.2c-0.6,1.2-0.9,2-1.2,2.7c-0.1,0.2-0.2,0.4-0.3,0.6c-0.1,0.3-0.6,1.4-0.6,1.4l-0.3,0.6l-1.1,2.7
		c0.3,0.4,0.7,0.7,1,1c1.6-1.9,3.7-5,3.7-9.1C24.8,74.1,24.3,74.1,23.9,74.2 M16.3,81.6c-0.6-0.2-1.1-0.4-1.6-0.7
		c0.2,0.6,0.5,1.1,0.8,1.6c0.6,0.4,1.2,0.7,1.9,0.9C16.9,82.9,16.5,82.3,16.3,81.6 M13.9,80.5c-0.4-0.2-0.7-0.5-1-0.7
		c0.4,0.6,0.8,1.2,1.3,1.8C14.1,81.2,14,80.9,13.9,80.5"/>
	<path class="st2" d="M164.4,77.5c0.9,4.8,5.5,8.1,10.3,7.2c4.8-0.9,8.1-5.5,7.2-10.3c-0.9-4.8-5.5-8.1-10.3-7.2
		C166.7,68,163.5,72.7,164.4,77.5"/>
	<path class="st4" d="M169.6,73.9l0.4-0.2c0.9-0.6,1.9-1.2,2.8-1.9c0.6-0.4,1.1-0.8,1.7-1.1c0.2-0.1,0.4-0.2,0.6-0.3
		c0.8-0.4,1.7-0.7,2.6-0.8c0.7,0.5,1.4,1.2,1.9,2c-2.2,0.8-4.4,2.1-8.9,4.9C170.5,75.9,169.6,74,169.6,73.9 M171.6,78.7
		c-0.1-0.2-0.5-1.2-0.6-1.6c4.6-2.9,6.8-4.1,9-4.9c0.3,0.6,0.6,1.3,0.8,2C179.5,75.9,176.1,77.6,171.6,78.7 M172.1,71.4
		c-1.7-1-3.7-0.7-5.2-0.2c0.6-0.7,1.3-1.4,2-1.9c1.4-0.3,3.4-0.3,5,0.9C173.3,70.6,172.7,71,172.1,71.4"/>
	<path class="st4" d="M179,79.7c-0.2,0.2-0.5,0.3-0.7,0.5c-0.5,0.3-1.1,0.5-1.6,0.7c-0.2,0.1-0.5,0.2-0.7,0.3
		c-0.9,0.3-2.8,0.8-3,0.8c0-0.1-0.8-1.9-1.1-2.6c3.4-0.9,7.2-2.3,9-4.3c0.1,0.9,0.1,1.8-0.1,2.6C180.4,78.5,179.8,79.1,179,79.7
		 M172.8,82.7l0.7-0.2c0.7-0.2,1.4-0.4,2.1-0.6c-0.4,0.8-0.9,1.4-1.5,1.8c-0.8,0.1-1.6,0.1-2.4,0C172.3,83.2,172.8,82.7,172.8,82.7
		 M165.6,73.7c0.2-0.5,0.4-1,0.7-1.5c1.4-0.6,3.4-1.2,5.2-0.3l-2.5,1.6c-0.5,0-1-0.1-1.4,0c-0.2,0-0.4,0-0.7,0
		C166.5,73.5,166.1,73.6,165.6,73.7 M166.9,74.1c0.1,4.1,2,7.2,3.7,9.2c-2.6-0.9-4.7-3.1-5.2-6c-0.2-1-0.2-1.9,0-2.9
		C165.9,74.3,166.4,74.2,166.9,74.1 M174.6,69.9c-1.2-1-2.5-1.4-3.8-1.4c0.3-0.1,0.7-0.2,1-0.2c1.7-0.3,3.5,0,5.1,0.8
		C176.1,69.2,175.3,69.5,174.6,69.9"/>
	<path class="st4" d="M168.9,74.2c0.4,0.9,0.8,1.8,1.2,2.7l0.3,0.6c0.1,0.3,0.6,1.4,0.6,1.4l0.3,0.6l1.1,2.7c-0.3,0.4-0.6,0.7-1,1
		c-1.6-1.9-3.7-5-3.7-9.1C168,74.1,168.5,74.1,168.9,74.2 M176.5,81.6c0.6-0.2,1.1-0.4,1.6-0.7c-0.2,0.6-0.4,1.1-0.8,1.6
		c-0.6,0.4-1.2,0.7-1.9,0.9C175.9,82.9,176.3,82.3,176.5,81.6 M178.9,80.5c0.4-0.2,0.7-0.5,1-0.7c-0.4,0.6-0.8,1.2-1.3,1.8
		C178.7,81.2,178.8,80.9,178.9,80.5"/>
</g>
</svg>
