<?xml version="1.0" encoding="utf-8"?>
<!-- Generator: Adobe Illustrator 25.2.0, SVG Export Plug-In . SVG Version: 6.00 Build 0)  -->
<svg version="1.1" id="Layer_1" xmlns="http://www.w3.org/2000/svg" xmlns:xlink="http://www.w3.org/1999/xlink" x="0px" y="0px"
	 viewBox="0 0 192.8 192.8" style="enable-background:new 0 0 192.8 192.8;" xml:space="preserve">
<style type="text/css">
	.st0{fill-rule:evenodd;clip-rule:evenodd;fill:#812B75;stroke:#FAD383;stroke-width:2.6968;stroke-miterlimit:2.6131;}
	.st1{fill-rule:evenodd;clip-rule:evenodd;fill:#FFFFFF;stroke:#FAD383;stroke-width:2.6968;stroke-miterlimit:2.6131;}
	.st2{fill-rule:evenodd;clip-rule:evenodd;fill:#FFFFFF;}
	.st3{fill-rule:evenodd;clip-rule:evenodd;fill:#E20613;}
	.st4{fill:none;stroke:#FAD383;stroke-width:2.6968;stroke-miterlimit:2.6131;}
</style>
<g>
	<polygon class="st0" points="150.7,72.8 159.9,69.9 96.4,189.4 32.9,69.9 44,72.8 150.7,72.8 	"/>
	<polygon class="st1" points="96.4,131.6 32,67.5 96.4,3.4 160.8,67.5 96.4,131.6 	"/>
	<path class="st2" d="M88.8,144.6l1.6-5.9l1.6,5.9H88.8L88.8,144.6z M93.8,150.9h4.8L93,134.4h-5.1l-5.6,16.5h4.7l0.7-2.7H93
		L93.8,150.9L93.8,150.9z"/>
	<path class="st2" d="M108.6,144.2l4,1.3c-0.3,1.3-0.7,2.3-1.3,3.1c-0.6,0.8-1.3,1.5-2.2,1.9c-0.9,0.4-2,0.6-3.3,0.6
		c-1.6,0-3-0.3-4-0.8c-1-0.5-1.9-1.4-2.7-2.8c-0.7-1.3-1.1-3-1.1-5c0-2.7,0.7-4.8,2-6.3c1.3-1.5,3.2-2.2,5.6-2.2
		c1.9,0,3.3,0.4,4.4,1.3c1.1,0.8,1.9,2.1,2.4,3.9l-4.1,1c-0.1-0.5-0.3-0.9-0.5-1.1c-0.3-0.4-0.6-0.7-0.9-0.9
		c-0.4-0.2-0.8-0.3-1.2-0.3c-1,0-1.8,0.5-2.4,1.4c-0.4,0.7-0.6,1.8-0.6,3.2c0,1.8,0.3,3.1,0.8,3.7c0.5,0.7,1.2,1,2.1,1
		c0.9,0,1.5-0.3,2-0.8C108,146,108.3,145.2,108.6,144.2L108.6,144.2z"/>
	<polygon class="st3" points="92.4,153.6 103.8,153.6 103.8,157.2 97.1,157.2 97.1,160.1 102.8,160.1 102.8,163.4 97.1,163.4 
		97.1,170.1 92.4,170.1 92.4,153.6 	"/>
	<path class="st3" d="M77.1,59.8c1.6,0,2.9-1.3,2.9-2.8c0-1.6-1.3-2.8-2.9-2.8c-1.6,0-2.9,1.3-2.9,2.8
		C74.3,58.5,75.6,59.8,77.1,59.8L77.1,59.8z"/>
	<path class="st4" d="M75.1,59l3.7-4.4 M77.4,57l-2.3-2.2"/>
	<path class="st3" d="M96.4,25.7c0,0,19.2,11.9,5.7,47.5c0,0,8.1-13.8,10.8-16.1l1.9,2.6c0,0-10.5,8.3-11.5,15.3
		c0,0,8.9-9.5,17.4-9.5c8.5,0,13.4,3.4,13.4,11c0,0,0.6,9.3-11.5,9.3c0,0-6.7-0.2-8.7,1.8c0,0-0.5-5.2,0.9-6.7
		c1.4-1.5,0.6-2.8-1-2.8c0,0-11.7,2.5-11.6,17.2c0,0,1,2,3.9,2c0,0-1.4,1.9-4.8,1.9c0,0,0.4,5.4,2.9,6.6c0,0-2-0.3-2.8-1
		c0,0-0.5,7.8-4.9,7.8h0c-4.4,0-4.9-7.8-4.9-7.8c-0.8,0.6-2.8,1-2.8,1c2.5-1.1,2.9-6.6,2.9-6.6c-3.5,0-4.8-1.9-4.8-1.9
		c2.9,0,3.9-2,3.9-2C90.7,80.6,79,78.1,79,78.1c-1.6,0-2.3,1.3-1,2.8c1.4,1.5,0.9,6.7,0.9,6.7c-2-2-8.7-1.8-8.7-1.8
		c-12.1,0-11.5-9.3-11.5-9.3c0-7.6,4.9-11,13.4-11c8.5,0,17.4,9.5,17.4,9.5c-1-7-11.5-15.3-11.5-15.3l1.9-2.6
		c2.7,2.3,10.8,16.1,10.8,16.1C77.1,37.6,96.4,25.7,96.4,25.7L96.4,25.7L96.4,25.7z"/>
	<path class="st3" d="M115.7,59.8c-1.6,0-2.9-1.3-2.9-2.8c0-1.6,1.3-2.8,2.9-2.8c1.6,0,2.9,1.3,2.9,2.8
		C118.5,58.5,117.2,59.8,115.7,59.8L115.7,59.8z"/>
	<path class="st4" d="M117.7,59l-3.7-4.4 M115.4,57l2.3-2.2"/>
</g>
</svg>
