<?xml version="1.0" encoding="utf-8"?>
<!-- Generator: Adobe Illustrator 25.2.0, SVG Export Plug-In . SVG Version: 6.00 Build 0)  -->
<svg version="1.1" id="Layer_1" xmlns="http://www.w3.org/2000/svg" xmlns:xlink="http://www.w3.org/1999/xlink" x="0px" y="0px"
	 viewBox="0 0 192.8 192.8" style="enable-background:new 0 0 192.8 192.8;" xml:space="preserve">
<style type="text/css">
	.st0{fill-rule:evenodd;clip-rule:evenodd;fill:#1D1D1B;}
	.st1{fill-rule:evenodd;clip-rule:evenodd;fill:#FFFFFF;}
	.st2{fill:#FFFFFF;}
	.st3{fill-rule:evenodd;clip-rule:evenodd;fill:#F4BC00;}
	.st4{fill:#1D1C1A;}
	.st5{fill:#F4BC00;}
	.st6{fill-rule:evenodd;clip-rule:evenodd;fill:#1D1C1A;}
</style>
<g>
	<polygon class="st0" points="138.1,150.2 138.1,77.6 119,46.2 119,182.5 138.1,150.2 	"/>
	<polygon class="st1" points="144.2,124.1 144.2,103.7 133.8,103.7 133.8,163.3 144.2,124.1 	"/>
	<polygon class="st1" points="118.9,181.6 118.9,46.2 104.2,38.4 104.2,189.4 118.9,181.6 	"/>
	<path class="st2" d="M103.7,189V38.8H88.9l0,150.2L103.7,189L103.7,189z M104.5,189.9l-0.4,0l-15.6,0l-0.4,0v-0.4l0-151.1v-0.4
		h16.5V189.9L104.5,189.9z"/>
	<polygon class="st0" points="73.6,182.5 73.6,46.2 54.5,77.6 54.5,150.2 73.6,182.5 	"/>
	<polygon class="st1" points="88.4,189.5 88.4,38.4 73.7,46.2 73.6,181.6 88.4,189.5 	"/>
	<polygon class="st1" points="58.8,160.7 58.8,106.4 48.3,106.4 48.4,128.4 58.8,160.7 	"/>
	<polygon class="st0" points="104.1,189.5 104.1,38.4 88.5,38.4 88.5,189.4 104.1,189.5 	"/>
	<polygon class="st3" points="76.3,23.5 65.8,31.3 69.3,18.3 60.5,11.3 71.8,11.3 76.2,0 76.2,0 80.6,11.3 91.9,11.3 83.1,18.3 
		86.6,31.3 76.2,23.5 76.3,23.5 	"/>
	<polygon class="st3" points="118.1,23.5 107.6,31.3 111.1,18.3 102.4,11.3 113.7,11.3 118.1,0 118.1,0 122.4,11.3 133.8,11.3 
		125,18.3 128.5,31.3 118,23.5 118.1,23.5 	"/>
	<path class="st4" d="M96.4,187.9c12.1,0,23.1-8.2,31.2-21.3c8.3-13.5,13.4-32.1,13.4-52.4c0-20.3-5.1-38.9-13.4-52.4
		c-8.1-13.1-19.1-21.3-31.2-21.3c-12.1,0-23.1,8.2-31.2,21.3C57,75.3,51.8,93.9,51.8,114.2c0,20.3,5.1,38.9,13.4,52.4
		C73.3,179.7,84.3,187.9,96.4,187.9L96.4,187.9z M96.4,191.3c-13.4,0-25.4-8.8-34.1-23c-8.6-14-13.9-33.2-13.9-54.1
		c0-21,5.3-40.2,13.9-54.1c8.7-14.1,20.7-23,34.1-23c13.4,0,25.4,8.8,34.1,23c8.6,14,13.9,33.2,13.9,54.1c0,21-5.3,40.2-13.9,54.1
		C121.8,182.5,109.8,191.3,96.4,191.3L96.4,191.3z"/>
	<path class="st1" d="M141.7,91.8l2,20.3C93.6,86.8,48.7,112,48.7,112c0.7-23.7,7.4-36.2,7.4-36.2s39.6,15.5,81,0L141.7,91.8
		L141.7,91.8z"/>
	<path class="st4" d="M142.6,91.6l0,0.2l2,20.3l0.2,1.6l-1.4-0.7c-49.8-25.2-94.1-0.2-94.2-0.2l-1.3,0.7l0-1.5
		c0.7-23.9,7.5-36.5,7.5-36.6l0.4-0.7l0.7,0.3c0.1,0,39.3,15.4,80.4,0l0.9-0.3l0.3,0.9L142.6,91.6L142.6,91.6z M140.9,92l-4.3-15
		c-38.1,13.9-74.4,2-80,0c-1.3,2.8-6.1,14.2-6.9,33.6c7.8-3.9,48.1-21.8,93.1,0.1L140.9,92L140.9,92z"/>
	<path class="st5" d="M96.4,189.3c12.5,0,23.9-8.3,32.2-21.7c8.5-13.6,13.7-32.5,13.7-53.4c0-20.9-5.2-39.8-13.7-53.4
		c-8.3-13.4-19.7-21.7-32.2-21.7c-12.5,0-23.9,8.3-32.2,21.7c-8.5,13.6-13.7,32.5-13.7,53.4c0,20.9,5.2,39.8,13.7,53.4
		C72.5,181,83.9,189.3,96.4,189.3L96.4,189.3z M96.4,192.8c-13.8,0-26.2-8.9-35.2-23.3C52.4,155.3,47,135.7,47,114.2
		c0-21.5,5.4-41.1,14.2-55.3c8.9-14.4,21.4-23.3,35.2-23.3c13.8,0,26.2,8.9,35.2,23.3c8.8,14.2,14.2,33.7,14.2,55.3
		c0,21.5-5.4,41.1-14.2,55.3C122.6,183.9,110.2,192.8,96.4,192.8L96.4,192.8z"/>
	<path class="st6" d="M59,96.6v3.3c0,1.2,0.6,1.6,1.5,1.6c1.3,0,1.6-0.8,1.6-1.7V83l1.4,0.2v16.5c0,2.3-1.5,3-2.9,3
		c-2.3,0-2.9-1.5-2.9-2.5v-3.6H59L59,96.6z"/>
	<path class="st6" d="M76.1,85.4v10c0,2-0.9,3.8-3.6,3.8c-2.7,0-3.4-1.7-3.4-3.6V84.3l1.4,0.2v10.7c0,2.2,0.9,2.8,2.1,2.8
		c1.2,0,2.2-0.6,2.2-2.7v-10L76.1,85.4L76.1,85.4z"/>
	<polygon class="st6" points="85.5,86.7 87,87 83.4,97.6 82.8,97.7 79.2,85.9 80.7,86.1 83.5,96.2 82.7,96.2 85.5,86.7 	"/>
	<polygon class="st6" points="95,97.2 89.8,97.2 89.8,87.2 94.9,87.2 94.9,88.4 91.2,88.4 91.2,90.8 94.5,90.8 94.5,92 91.2,92 
		91.2,96 95,96 95,97.2 	"/>
	<polygon class="st6" points="104.8,87.2 106.1,87.1 106.1,97.4 104.6,97.2 99.9,89.1 99.9,89.1 99.9,97.2 98.6,97.2 98.6,87.2 
		100.2,87.2 104.7,95.3 104.8,95.3 104.8,87.2 	"/>
	<path class="st6" d="M108.4,86.7c0,0,3.3,0,7.7-1.3v1.2l-3,0.7v10.5l-1.4-0.2v-10l-3.4,0.3V86.7L108.4,86.7z"/>
	<path class="st6" d="M125.5,83.5v11.9c0,2-0.9,3.8-3.6,3.8c-2.7,0-3.4-1.7-3.4-3.6V85l1.4-0.2v10.4c0,2.2,0.9,2.8,2.1,2.8
		c1.2,0,2.2-0.6,2.2-2.7V83.7L125.5,83.5L125.5,83.5z"/>
	<path class="st6" d="M132.6,87.8c0-2.9-0.6-4.6-1.4-4.6c-0.6,0-1.6-0.4-1.6,2.4c0,1.6,0.4,3.4,0.8,3.7l1.9,2.5
		c0.9,0.6,1.7,2.9,1.7,5.8c0,4.4-1.5,3.9-2.7,3.9c-1.3,0-1.8-1-2.1-1.8c-0.6-1.4-0.5-3-0.5-4.7h1.1c0,3.4,0.7,5.2,1.6,5.2
		c0.7,0,1.8,0.4,1.8-2.2c0-1.9-0.1-4.3-1.2-5l-1.7-2.2c-0.5-0.3-1.5-1.6-1.5-4.8c0-2.9,0.7-4,2.4-4c2.4,0,2.5,3.9,2.6,5.9H132.6
		L132.6,87.8z"/>
	<polygon class="st3" points="98.9,104.2 98.9,106.6 101.4,106.6 101.4,104.5 105.8,105.3 105.8,107.5 108.2,107.5 108.8,105.9 
		112.9,107.4 109.8,116.1 108.2,120.6 84.4,120.6 83,116.5 80,107.4 84.1,105.9 84.6,107.5 87.1,107.5 87.1,105.3 91.5,104.5 
		91.5,106.6 93.9,106.6 93.9,104.2 98.9,104.2 	"/>
	<path class="st4" d="M99.6,104.2v1.8h1.2v-1.5c0-0.4,0.4-0.7,0.8-0.6l4.4,0.9c0.3,0.1,0.5,0.4,0.5,0.6v1.5h1.4l0.4-1.2
		c0.1-0.3,0.5-0.5,0.8-0.4l4.1,1.5c0.3,0.1,0.5,0.5,0.4,0.8l-3.1,8.7l-1.6,4.5c-0.1,0.2-0.4,0.4-0.6,0.4H84.4
		c-0.2,0-0.6-0.2-0.6-0.4l-1.3-4.1l-3-9.2c-0.1-0.3,0.1-0.7,0.4-0.8l4.1-1.5c0.3-0.1,0.7,0.1,0.8,0.4l0.4,1.2h1.4v-1.5
		c0-0.3,0.3-0.6,0.5-0.6l4.4-0.9c0.4-0.1,0.8,0.3,0.8,0.6v1.5h1.2v-1.8c0-0.3,0.3-0.7,0.7-0.7h5C99.3,103.5,99.6,103.9,99.6,104.2
		L99.6,104.2z M98.3,104.8h-3.7v1.8c0,0.3-0.3,0.7-0.7,0.7h-2.5c-0.3,0-0.7-0.3-0.7-0.7v-1.4l-3.1,0.6v1.6c0,0.3-0.3,0.7-0.7,0.7
		h-2.5c-0.2,0-0.5-0.2-0.6-0.4l-0.4-1l-2.9,1l2.8,8.6l1.2,3.6h22.9l1.4-4.1l2.9-8.1l-2.8-1l-0.4,1c-0.1,0.2-0.4,0.4-0.6,0.4h-2.5
		c-0.3,0-0.7-0.3-0.7-0.7v-1.6l-3.1-0.6v1.4c0,0.3-0.3,0.7-0.7,0.7h-2.5c-0.3,0-0.7-0.3-0.7-0.7V104.8L98.3,104.8z"/>
	<path class="st6" d="M96.3,123.3c6.6,0,12.3-1.2,12.3-2.7c0-1.5-5.7-2.7-12.3-2.7c-6.6,0-12.3,1.2-12.3,2.7
		C84,122.1,89.7,123.3,96.3,123.3L96.3,123.3z"/>
	<path class="st6" d="M84.5,113.7c0.7,0,1.2-0.6,1.2-1.2s-0.6-1.2-1.2-1.2c-0.7,0-1.2,0.6-1.2,1.2S83.8,113.7,84.5,113.7L84.5,113.7
		z"/>
	<path class="st6" d="M90.2,112.4c0.7,0,1.2-0.6,1.2-1.2c0-0.7-0.6-1.2-1.2-1.2c-0.7,0-1.2,0.6-1.2,1.2
		C88.9,111.8,89.5,112.4,90.2,112.4L90.2,112.4z"/>
	<path class="st0" d="M96.4,112c0.7,0,1.2-0.6,1.2-1.2c0-0.7-0.6-1.2-1.2-1.2c-0.7,0-1.2,0.6-1.2,1.2C95.2,111.4,95.7,112,96.4,112
		L96.4,112z"/>
	<path class="st6" d="M103.1,112.4c0.7,0,1.2-0.6,1.2-1.2c0-0.7-0.6-1.2-1.2-1.2c-0.7,0-1.2,0.6-1.2,1.2
		C101.9,111.8,102.4,112.4,103.1,112.4L103.1,112.4z"/>
	<path class="st6" d="M108.6,113.4c0.7,0,1.2-0.6,1.2-1.2c0-0.7-0.6-1.2-1.2-1.2c-0.7,0-1.2,0.6-1.2,1.2
		C107.4,112.9,107.9,113.4,108.6,113.4L108.6,113.4z"/>
	<path class="st4" d="M109.3,117.1c0,0-9.3-3.6-20.1-1.4l-0.3-1.3c11.2-2.2,20.8,1.5,20.8,1.5L109.3,117.1L109.3,117.1z"/>
	<path class="st4" d="M83.1,116.3c0,0,1-0.7,2.6-1l0.2,1.3c-1.3,0.2-2.1,0.8-2.1,0.8L83.1,116.3L83.1,116.3z"/>
	<path class="st3" d="M96.1,125.8c0,0-4.1,4.9-13.1,7.8c0,0,3.2,7.7,1,28.9c0,0,4.9,1,12.2,7h0c7.3-6,12.2-7,12.2-7
		c-2.2-21.2,1-28.9,1-28.9c-9-2.9-13.1-7.8-13.1-7.8H96.1L96.1,125.8z"/>
	<path class="st4" d="M96.2,126.7c-1.2,1.2-5.2,5-12.4,7.4c0.7,2.2,2.6,10.5,0.9,28c1.5,0.4,5.7,2,11.5,6.6c5.7-4.6,10-6.2,11.5-6.6
		c-1.7-17.5,0.2-25.8,0.9-28C101.4,131.6,97.4,127.9,96.2,126.7L96.2,126.7z M96.8,170c-0.1,0.1-0.3,0.2-0.5,0.2h0
		c-0.2,0-0.4-0.1-0.5-0.2c-7.1-5.8-11.8-6.7-11.8-6.7c-0.3-0.1-0.5-0.4-0.5-0.7c2.2-21.1-1-28.6-1-28.6c-0.1-0.3,0.1-0.8,0.4-0.9
		c8.8-2.8,12.8-7.6,12.8-7.6c0.1-0.1,0.4-0.2,0.5-0.2h0.2c0.1,0,0.4,0.1,0.5,0.2c0,0,3.9,4.8,12.8,7.6c0.3,0.1,0.5,0.5,0.4,0.9
		c0,0-3.1,7.6-1,28.6c0,0.3-0.2,0.6-0.5,0.7C108.6,163.2,103.8,164.2,96.8,170L96.8,170z"/>
	<path class="st6" d="M91.8,135.1c0,0,1.2,0.9,3.6,1.6c0,0,3,0.9,4.2,3.5c0,0,0.7,2.9,0.6,8.3c0,0,0.1,2,1.7,2.2
		c0,0,1.2,0.5,0.7-1.9c-1-4.6-0.7-2.8-0.7-3.3c0,0-0.4-2.9,1.3-3.5c0,0,1.8-0.3,2.3,1.1c0,0,0.6,1.9-0.7,2.6c0,0-1.6-1.1-0.9-2.9
		c0,0-1.3,0.4-1,1.9c0,0,0.1,1.8,0.7,3.7c0,0,0.6,1.7-0.4,4c0,0,0.1,0.7-1.5,2.3c0,0-1.1,1.5-1.5,3.3l0,1.3c0,0-1.5,0.4-1.7,1.2v2.2
		l-2,0.1c0,0-0.3-1.6,0.6-3.1c0,0,1-0.7,0.3-2.2c0,0-1.2-1.5-1.5-3.2c0,0-1,0-2.2,0.7l-2.5,0.1c0,0-1.5,0-1.9,0.6h-1.6l-0.1-1.2
		c0,0,0.5-0.9,1.6-0.9c0,0,0.7,0.3,3-0.4c0,0-0.2-2.9,1.6-4.4l-0.1-1.7l-1.7-1.7l-1.6-0.8c0,0-0.2,1.1,0.8,2.1l-0.1,1.2l-1.5-0.1
		c0,0-1.3-1.6-0.3-3.8c0,0-1.6,0.1-2.8,0.8l-0.1-1c0,0,3.3-2.2,6.2,0l0.7-0.3l-1.6-2v-3.8c0,0-0.7-0.7-0.7-2.8H91.8L91.8,135.1z"/>
	<path class="st6" d="M89.7,143c0,0,0.2-0.2,0.5-0.7c0,0,0.2,0,0.8,0.8L89.7,143L89.7,143z"/>
</g>
</svg>
