<?xml version="1.0" encoding="utf-8"?>
<!-- Generator: Adobe Illustrator 25.2.0, SVG Export Plug-In . SVG Version: 6.00 Build 0)  -->
<svg version="1.1" id="Layer_1" xmlns="http://www.w3.org/2000/svg" xmlns:xlink="http://www.w3.org/1999/xlink" x="0px" y="0px"
	 viewBox="0 0 192.8 192.8" style="enable-background:new 0 0 192.8 192.8;" xml:space="preserve">
<style type="text/css">
	.st0{fill-rule:evenodd;clip-rule:evenodd;fill:#FFFFFF;}
	.st1{fill-rule:evenodd;clip-rule:evenodd;fill:#195F94;}
	.st2{fill-rule:evenodd;clip-rule:evenodd;fill:#F8C710;}
	.st3{fill:#195F94;}
	.st4{fill-rule:evenodd;clip-rule:evenodd;fill:#1D1D1B;}
	.st5{fill-rule:evenodd;clip-rule:evenodd;fill:#E12722;}
	.st6{fill-rule:evenodd;clip-rule:evenodd;fill:#362882;}
</style>
<g>
	<path class="st0" d="M31.2,124.2c0,35.8,29,64.9,64.9,64.9c35.8,0,64.9-29,64.9-64.9c0-35.8-29-64.9-64.9-64.9
		C60.2,59.4,31.2,88.4,31.2,124.2L31.2,124.2z"/>
	<path class="st1" d="M144.3,153.7c-12.5-12.3-65.4-65.5-76.9-76.8c-11.1,5.5-17.7,15.7-23.1,26.7c12.8,12.7,66.6,61.8,76.5,71.5
		C128.7,171.2,138,164.8,144.3,153.7L144.3,153.7z"/>
	<path class="st1" d="M143.9,154C131.4,141.7,78.5,88.6,67,77.2c-11.1,5.5-17.7,15.7-23.1,26.7c12.8,12.7,66.6,61.8,76.5,71.5
		C128.3,171.6,137.6,165.2,143.9,154L143.9,154z"/>
	<path class="st2" d="M96.4,56.3c-37.8,0-68.5,30.5-68.5,67.9c0,37.5,30.7,68,68.5,68c37.8,0,68.5-30.5,68.5-68
		C164.9,86.8,134.2,56.3,96.4,56.3L96.4,56.3L96.4,56.3z M96.2,183.7c-32.7,0-59.3-26.5-59.3-59.3c0-32.7,26.5-59.3,59.3-59.3
		c32.7,0,59.3,26.5,59.3,59.3C155.5,157.1,129,183.7,96.2,183.7L96.2,183.7z"/>
	<path class="st1" d="M27.3,124.2c0,37.8,31,68.6,69.1,68.6c38.1,0,69.1-30.8,69.1-68.6c0-37.8-31-68.5-69.1-68.5
		C58.3,55.7,27.3,86.4,27.3,124.2L27.3,124.2L27.3,124.2z M28.5,124.2c0-37.1,30.5-67.3,67.9-67.3c37.4,0,67.9,30.2,67.9,67.3
		c0,37.1-30.4,67.4-67.9,67.4C59,191.6,28.5,161.4,28.5,124.2L28.5,124.2z"/>
	<path class="st1" d="M36.3,124.4c0,33,26.9,59.9,59.9,59.9c33,0,59.9-26.9,59.9-59.9c0-33-26.9-59.9-59.9-59.9
		C63.2,64.5,36.3,91.3,36.3,124.4L36.3,124.4L36.3,124.4z M37.5,124.4c0-32.4,26.3-58.7,58.7-58.7c32.4,0,58.7,26.3,58.7,58.7
		c0,32.4-26.3,58.7-58.7,58.7C63.8,183.1,37.5,156.7,37.5,124.4L37.5,124.4z"/>
	<path class="st2" d="M151.9,124.2c0-19.1-10.2-37-26.7-47c-1.8,1.7-10,9.5-10,9.5l-4.8,4.6l-0.3,0.3l-0.4-0.1
		c-4.2-1.7-8.7-2.6-13.4-2.6c-4.1,0-10,0.9-14,2.9L82,92l-0.3-0.3c-4-3.8-5.8-5.6-14.5-14.2C50.7,87.6,40.9,105,40.9,124.2
		c0,12,4.1,23.6,11.3,33l5.5-5.2c-5.9-8-9.1-17.7-9.1-27.9c0-13.9,6.1-27,16.8-36.1l0.6-0.5l0.6,0.5c3,2.6,5.4,4.9,7.9,7.4L75,96
		l-0.5,0.4c-8.5,6.9-13.7,17.6-13.7,27.8c0,16,11,30.1,26.7,34.1l0.5,0.1c0,0,0,12.1,0,13.2c1,0,6.5,0,7.4,0c0-1.1,0-11.6,0-11.6
		l0-0.6l0.6,0l0.4,0c8.9,0,17.4-3.3,23.9-9.2c-0.7-0.7-4.9-4.8-5.5-5.4c-5,4.5-11.5,7.1-18.4,7.1l-0.3,0l-0.8,0v-8.9
		c0,0,5.7,0,6.7,0c0-1,0-6.8,0-7.8c-1,0-6.9,0-6.9,0v-5.9c0,0,7.6,0,8.6,0c0-1,0-6.4,0-7.4c-1.1,0-15.4,0-16.5,0
		c0,1.2,0,28.5,0,28.5l-0.8-0.3c-10.7-4.1-17.8-14.4-17.8-25.8c0-9.3,4.1-17.3,11.5-22.5l0.4-0.3l0.4,0.4c3.2,3.2,7.8,7.6,15.1,14.3
		c0.7-0.7,15.6-15,15.6-15l0.4,0.3c1.3,0.8,2.4,1.8,3.5,2.8c0.6-0.6,4.8-4.6,5.6-5.3c-1-1-2.1-1.9-3.2-2.8l-0.6-0.4l8.8-8.6l0.7,0.6
		c11.1,9.1,17.4,22.5,17.4,36.6c0,10.2-3.5,20.2-9.7,28.3l5.6,5.3C147.6,148.3,151.9,136.5,151.9,124.2z M95.8,104.3l-6-5.6
		l-0.5-0.5c2.1-0.8,5-1,7-1c2.1,0,4.1,0.2,6.1,0.7C100.6,99.7,95.8,104.3,95.8,104.3z"/>
	<path class="st3" d="M125.4,75.9l-0.4-0.2l-0.3,0.3l-8.9,8.5c-0.9,0.9-1.3,1.3-1.5,1.5c0,0,0-0.1,0-0.1s-4,3.9-4.5,4.3
		c-4.3-1.7-8.8-2.5-13.4-2.5c-5,0-10.4,1.1-14.2,2.9c-3.8-3.6-5.8-5.5-14.6-14.3l-0.3-0.3l-0.4,0.2c-17,10.3-27.2,28.3-27.2,48
		c0,12.7,4.5,25,12.3,34.8l0.4-0.4l0,0l6.5-6.1h0l0.4-0.4c-6.1-8-9.5-17.7-9.5-28c0-13.5,5.9-26.2,16.2-35c2.8,2.4,4.9,4.5,7.3,6.8
		c-8.4,7.2-13.6,17.9-13.6,28.3c0,16.4,11.1,30.8,27.1,35.1c0,0.8,0,13.5,0,13.5h9.8c0,0,0-11.1,0-12.2c9.3,0,18.2-3.6,25-10
		l0.5-0.4l-7.2-7.1l-0.4,0.4c-4.8,4.6-11.2,7.1-17.9,7.1c0-0.9,0-5.6,0-6.6c1,0,6.7,0,6.7,0v-10.2c0,0-5.9,0-6.9,0
		c0-0.8,0-2.7,0-3.5c1,0,8.6,0,8.6,0v-9.8l-18.9,0l0,0.6c0,0,0,25.6,0,27.3c-9.7-4.1-16.2-13.8-16.2-24.3c0-8.7,3.8-16.2,10.6-21.2
		c3.2,3.2,7.9,7.7,15.2,14.3l0.4,0.4c0,0,15.1-14.5,15.7-15.1c1.2,0.8,2.4,1.8,3.4,2.8l0.4,0.4l7.3-6.9l-0.4-0.4c-1-1-2.1-2-3.2-2.9
		c0.8-0.8,6.4-6.2,7.1-6.8c10.7,8.9,16.8,21.8,16.8,35.5c0,10.3-3.6,20.4-10.1,28.4l0.3,0.2l0.2,0.2l0.4,0.4l6,5.7l0.5,0.4
		c8.1-9.9,12.8-22.4,12.8-35.4C153.1,104.5,142.5,86,125.4,75.9z M140.2,157.8l-5.6-5.3c6.2-8.1,9.7-18.1,9.7-28.3
		c0-14.1-6.4-27.4-17.4-36.6l-0.7-0.6l-8.8,8.6l0.6,0.4c1.1,0.9,2.2,1.8,3.2,2.8c-0.7,0.7-4.9,4.7-5.6,5.3c-1.1-1-2.3-2-3.5-2.8
		l-0.4-0.3c0,0-14.9,14.3-15.6,15c-7.3-6.6-11.9-11.1-15.1-14.3l-0.4-0.4l-0.4,0.3c-7.4,5.2-11.5,13.2-11.5,22.5
		c0,11.3,7.2,21.7,17.8,25.8l0.8,0.3c0,0,0-27.4,0-28.5c1.1,0,15.4,0,16.5,0c0,1,0,6.4,0,7.4c-1,0-8.6,0-8.6,0v5.9c0,0,5.9,0,6.9,0
		c0,1,0,6.8,0,7.8c-1,0-6.7,0-6.7,0v8.9l0.8,0l0.3,0c6.8,0,13.3-2.5,18.4-7.1c0.6,0.6,4.8,4.7,5.5,5.4c-6.6,5.9-15,9.2-23.9,9.2
		l-0.4,0l-0.6,0l0,0.6c0,0,0,10.6,0,11.6c-1,0-6.5,0-7.4,0c0-1.1,0-13.2,0-13.2l-0.5-0.1c-15.7-4-26.7-18.1-26.7-34.1
		c0-10.2,5.3-20.8,13.7-27.8L75,96l-0.5-0.5c-2.6-2.5-4.9-4.8-7.9-7.4L66,87.6l-0.6,0.5c-10.7,9.1-16.8,22.2-16.8,36.1
		c0,10.2,3.2,19.9,9.1,27.9l-5.5,5.2c-7.2-9.4-11.3-21-11.3-33c0-19.1,9.8-36.6,26.2-46.7c8.7,8.7,10.6,10.4,14.5,14.2L82,92
		l0.4-0.2c4.1-2,10-2.9,14-2.9c4.6,0,9.1,0.9,13.4,2.6l0.4,0.1l0.3-0.3l4.8-4.6c0,0,8.2-7.8,10-9.5c16.5,10,26.7,28,26.7,47
		C151.9,136.5,147.6,148.3,140.2,157.8z"/>
	<path class="st1" d="M89.2,97.6l-0.9,0.3l1.2,1.1l6.4,6l8-7.6l-1.1-0.2c-2.1-0.5-4.2-0.7-6.3-0.7C95.1,96.6,91.7,96.7,89.2,97.6
		L89.2,97.6L89.2,97.6z M96.4,97.8c1.6,0,3.3,0.2,4.9,0.5c-1.2,1.1-4.9,4.6-5.5,5.2c-0.7-0.6-4.9-4.6-5.3-5
		C92.7,97.8,95.3,97.8,96.4,97.8L96.4,97.8z"/>
	<path class="st4" d="M130.3,53.6c0-0.1-0.1-0.1-0.2-0.2c-11.5-5.1-22.8-7.7-33.7-7.7c0,0,0,0,0,0c-10.9,0.1-22.3,2.6-33.7,7.7
		c-0.1,0-0.1,0.1-0.2,0.2c0,0.1,0,0.2,0,0.2l0.8,1.6l-0.1,2.3c0,0.1,0,0.2,0.1,0.3l1.8,1.2l0.9,1.9c0.1,0.1,0.2,0.2,0.4,0.1
		c10.3-4.7,20.1-6.9,30-6.8c9.9-0.1,19.7,2.1,30,6.8c0.1,0.1,0.3,0,0.4-0.1l0.9-1.9l1.8-1.3c0.1-0.1,0.1-0.2,0.1-0.3l-0.2-2.1
		l0.8-1.7C130.3,53.7,130.3,53.6,130.3,53.6L130.3,53.6z"/>
	<path class="st1" d="M62.6,53.3c-0.1,0-0.2,0.1-0.2,0.2c0,0,0,0.1,0,0.2c0,0.1,0,0.1,0,0.2c0,0,0.7,1.5,0.7,1.6
		c0,0.1-0.1,2.3-0.1,2.3c0,0,0,0,0,0c0,0.1,0.1,0.3,0.2,0.4c0,0,1.7,1.1,1.7,1.2c0,0.1,0.9,1.9,0.9,1.9c0.1,0.2,0.4,0.3,0.6,0.2
		c10.3-4.7,20.1-6.9,30-6.8c9.9-0.1,19.7,2.1,29.9,6.8c0.2,0.1,0.5,0,0.6-0.2c0,0,0.9-1.8,0.9-1.9c0.1,0,1.7-1.2,1.7-1.2
		c0.1-0.1,0.2-0.2,0.2-0.4c0,0,0,0,0,0c0,0-0.2-2-0.2-2.1c0-0.1,0.8-1.7,0.8-1.7c0-0.1,0-0.1,0-0.2c0-0.1,0-0.1,0-0.2v0
		c0-0.1-0.1-0.2-0.2-0.2c-11.5-5.1-22.8-7.7-33.7-7.7C85.5,45.6,74.1,48.2,62.6,53.3L62.6,53.3L62.6,53.3z M66.1,61l-0.9-1.9
		l-1.8-1.2c0,0-0.1-0.1-0.1-0.1l0.1-2.4l-0.8-1.6c0,0,0-0.1,0-0.1c0,0,0-0.1,0.1-0.1c11.4-5.1,22.8-7.6,33.7-7.7
		c10.9,0.1,22.2,2.6,33.6,7.7c0,0,0.1,0,0.1,0.1c0,0,0,0,0,0c0,0,0,0,0,0.1l-0.8,1.7c0,0,0.2,2.2,0.2,2.2c0,0,0,0.1-0.1,0.1
		l-1.8,1.3l-0.9,2c0,0.1-0.1,0.1-0.2,0.1c-10.3-4.7-20.1-6.9-30.1-6.8c-10-0.1-19.8,2.1-30.1,6.8C66.3,61.1,66.2,61.1,66.1,61
		L66.1,61z"/>
	<path class="st5" d="M126.7,56.4c0.2,0.4,0.7,1.6,0.9,2.1c0.4-0.3,1.2-0.9,1.4-1c0-0.2-0.1-1.3-0.1-1.7
		C128.4,55.9,127.1,56.3,126.7,56.4L126.7,56.4z"/>
	<path class="st1" d="M128.8,55.6l-2.3,0.7l1,2.4l1.6-1.1l-0.1-2L128.8,55.6L128.8,55.6L128.8,55.6z M128.4,56.1
		c0,0,0.2-0.1,0.4-0.1c0,0.3,0.1,1.3,0.1,1.5c-0.1,0.1-1,0.7-1.2,0.8c-0.1-0.2-0.7-1.5-0.8-1.7C127.2,56.4,128.4,56.1,128.4,56.1
		L128.4,56.1z"/>
	<path class="st2" d="M126,56.1c0-0.1,0.1-0.1,0.2-0.2l2.7-0.8c0.3-0.7,0.6-1.2,0.6-1.3c-11.3-4.9-22.4-7.5-33.2-7.5
		c-10.8,0.1-21.9,2.6-33.2,7.5c0.1,0.1,0.3,0.6,0.6,1.3l2.7,0.9c0.1,0,0.1,0.1,0.2,0.2c0,0.1,0,0.2,0,0.2l-1.1,2.5
		c0.4,0.9,0.7,1.5,0.8,1.7c10.3-4.6,20.1-6.8,30-6.7c9.9-0.1,19.7,2.1,30,6.7c0.1-0.1,0.4-0.8,0.8-1.6l-1.1-2.6
		C126,56.3,126,56.2,126,56.1L126,56.1z"/>
	<path class="st1" d="M63.2,53.7L63,53.7l0.7,1.5l2.8,1c0,0,0.1,0,0.1,0.1c0,0,0,0.1,0,0.1l-1.1,2.5l0.9,1.9l0.1-0.1
		c10.2-4.6,20-6.8,29.9-6.7c9.9-0.1,19.7,2.1,29.9,6.7l0.1,0.1l0.9-1.8l-1.1-2.6c0,0,0,0,0-0.1c0,0,0,0,0-0.1c0,0,0-0.1,0.1-0.1
		l2.8-0.9l0.7-1.5l-0.1-0.1c-11.3-5-22.5-7.5-33.2-7.6C85.7,46.2,74.5,48.7,63.2,53.7L63.2,53.7L63.2,53.7z M96.4,46.4
		c10.6,0.1,21.7,2.6,33,7.5c-0.1,0.2-0.5,1-0.5,1.1c-0.1,0-2.7,0.8-2.7,0.8c-0.1,0-0.2,0.1-0.3,0.2l0,0c0,0.1,0,0.1,0,0.2
		c0,0.1,0,0.1,0,0.2c0,0,1,2.4,1.1,2.5c-0.1,0.1-0.7,1.4-0.7,1.4c-10.2-4.6-20-6.8-29.9-6.7c-9.9-0.1-19.7,2-29.9,6.7
		c0-0.1-0.6-1.4-0.7-1.5c0.1-0.1,1.1-2.4,1.1-2.4c0-0.1,0-0.1,0-0.2c0-0.1,0-0.1,0-0.2c0-0.1-0.1-0.2-0.3-0.2c0,0-2.6-0.9-2.7-0.9
		c0-0.1-0.5-1-0.5-1.1C74.6,49,85.8,46.5,96.4,46.4L96.4,46.4z"/>
	<path class="st4" d="M87.1,48.5c-1.1,0-2.1,0.9-2.1,2c0,1.1,0.9,2.1,2.1,2.1c1.2,0,2.1-0.9,2.1-2.1C89.1,49.4,88.2,48.5,87.1,48.5
		L87.1,48.5z"/>
	<path class="st1" d="M84.8,50.5c0,1.2,1,2.2,2.2,2.2c1.2,0,2.2-1,2.2-2.2c0-1.2-1-2.2-2.2-2.2C85.9,48.3,84.8,49.3,84.8,50.5
		L84.8,50.5L84.8,50.5z M85.1,50.5c0-1,0.9-1.9,1.9-1.9c1.1,0,1.9,0.8,1.9,1.9c0,1.1-0.9,1.9-1.9,1.9C86,52.4,85.1,51.5,85.1,50.5
		L85.1,50.5z"/>
	<path class="st4" d="M123.4,53.2c-1,0-1.9,0.8-1.9,1.9c0,1,0.8,1.9,1.9,1.9c1,0,1.9-0.8,1.9-1.9C125.3,54,124.4,53.2,123.4,53.2
		L123.4,53.2z"/>
	<path class="st1" d="M121.3,55.1c0,1.1,0.9,2,2,2c1.1,0,2-0.9,2-2c0-1.1-0.9-2-2-2C122.3,53.1,121.3,54,121.3,55.1L121.3,55.1
		L121.3,55.1z M121.6,55.1c0-0.9,0.8-1.7,1.7-1.7c0.9,0,1.7,0.8,1.7,1.7c0,1-0.8,1.7-1.7,1.7C122.4,56.8,121.6,56,121.6,55.1
		L121.6,55.1z"/>
	<path class="st4" d="M105.7,48.5c-1.1,0-2.1,0.9-2.1,2c0,1.2,0.9,2.1,2.1,2.1c1.1,0,2.1-0.9,2.1-2.1
		C107.8,49.4,106.9,48.5,105.7,48.5L105.7,48.5z"/>
	<path class="st1" d="M103.5,50.5c0,1.2,1,2.2,2.2,2.2c1.2,0,2.2-1,2.2-2.2c0-1.2-1-2.2-2.2-2.2C104.5,48.3,103.5,49.3,103.5,50.5
		L103.5,50.5L103.5,50.5z M103.8,50.5c0-1,0.9-1.9,1.9-1.9c1,0,1.9,0.9,1.9,1.9c0,1.1-0.9,1.9-1.9,1.9
		C104.7,52.4,103.8,51.6,103.8,50.5L103.8,50.5z"/>
	<path class="st0" d="M87.1,49c-0.8,0-1.5,0.7-1.5,1.4c0,0.8,0.7,1.5,1.5,1.5c0.8,0,1.5-0.7,1.5-1.5C88.6,49.7,87.9,49,87.1,49
		L87.1,49z"/>
	<path class="st1" d="M85.4,50.5c0,0.9,0.7,1.6,1.6,1.6c0.9,0,1.7-0.7,1.7-1.6c0-0.9-0.8-1.6-1.7-1.6C86.2,48.9,85.4,49.6,85.4,50.5
		L85.4,50.5L85.4,50.5z M85.7,50.5c0-0.7,0.6-1.3,1.3-1.3c0.7,0,1.4,0.6,1.4,1.3c0,0.7-0.6,1.3-1.4,1.3
		C86.3,51.8,85.7,51.2,85.7,50.5L85.7,50.5z"/>
	<path class="st0" d="M123.4,53.8c-0.7,0-1.3,0.6-1.3,1.3c0,0.7,0.6,1.3,1.3,1.3c0.7,0,1.3-0.6,1.3-1.3
		C124.7,54.4,124.1,53.8,123.4,53.8L123.4,53.8z"/>
	<path class="st1" d="M121.9,55.1c0,0.8,0.7,1.5,1.5,1.5c0.8,0,1.4-0.6,1.4-1.5c0-0.8-0.6-1.4-1.4-1.4
		C122.6,53.6,121.9,54.3,121.9,55.1L121.9,55.1L121.9,55.1z M122.2,55.1c0-0.6,0.5-1.1,1.2-1.1c0.6,0,1.1,0.5,1.1,1.1
		c0,0.6-0.5,1.2-1.1,1.2C122.8,56.2,122.2,55.7,122.2,55.1L122.2,55.1z"/>
	<path class="st0" d="M105.7,49c-0.8,0-1.5,0.6-1.5,1.4c0,0.8,0.6,1.5,1.5,1.5c0.8,0,1.5-0.6,1.5-1.5C107.2,49.7,106.5,49,105.7,49
		L105.7,49z"/>
	<path class="st1" d="M104.1,50.5c0,0.9,0.7,1.6,1.6,1.6c0.9,0,1.6-0.7,1.6-1.6c0-0.9-0.7-1.6-1.6-1.6
		C104.8,48.9,104.1,49.6,104.1,50.5L104.1,50.5L104.1,50.5z M104.4,50.5c0-0.7,0.6-1.3,1.3-1.3c0.7,0,1.3,0.6,1.3,1.3
		c0,0.7-0.6,1.3-1.3,1.3C105,51.8,104.4,51.3,104.4,50.5L104.4,50.5z"/>
	<path class="st4" d="M83.6,50.8l-6-0.8c-0.1,0-0.2,0-0.2,0.1l-5,3.7c-0.1,0.1-0.1,0.2-0.1,0.3c0,0.1,0.1,0.2,0.2,0.2l6,0.8
		c0.1,0,0.2,0,0.2-0.1l5-3.7c0.1-0.1,0.1-0.2,0.1-0.3C83.9,50.9,83.8,50.8,83.6,50.8L83.6,50.8z"/>
	<path class="st1" d="M77.3,49.9l-5,3.7c-0.1,0.1-0.2,0.3-0.2,0.5c0,0.2,0.2,0.3,0.4,0.3l6,0.8c0.1,0,0.2,0,0.3-0.1l5-3.7
		c0.1-0.1,0.2-0.3,0.2-0.5c0-0.2-0.2-0.3-0.4-0.3l-6-0.8C77.5,49.8,77.4,49.8,77.3,49.9L77.3,49.9L77.3,49.9z M78.6,55l-6-0.8
		c-0.1,0-0.1,0-0.1-0.1c0-0.1,0-0.1,0.1-0.1l5-3.7c0,0,0.1,0,0.1,0l6,0.8c0.1,0,0.1,0.1,0.1,0.1c0,0,0,0,0,0c0,0,0,0.1-0.1,0.1
		l-5,3.7C78.7,55,78.7,55,78.6,55L78.6,55z"/>
	<path class="st4" d="M120.5,53.8l-5-3.7c-0.1,0-0.1-0.1-0.2-0.1l-6,0.8c-0.1,0-0.2,0.1-0.2,0.2c0,0.1,0,0.2,0.1,0.3l5,3.7
		c0.1,0,0.1,0.1,0.2,0.1l6-0.8c0.1,0,0.2-0.1,0.2-0.2C120.7,54,120.6,53.9,120.5,53.8L120.5,53.8z"/>
	<path class="st1" d="M115.3,49.9l-6,0.8c-0.2,0-0.3,0.2-0.4,0.3c0,0.2,0,0.4,0.2,0.5l5,3.7c0.1,0.1,0.2,0.1,0.3,0.1l6-0.8
		c0.2,0,0.3-0.2,0.4-0.3c0-0.2,0-0.4-0.2-0.5l-5-3.7C115.6,49.9,115.4,49.9,115.3,49.9L115.3,49.9L115.3,49.9z M114.2,55l-5-3.7
		c0,0-0.1-0.1-0.1-0.1c0-0.1,0.1-0.1,0.1-0.1l6-0.8c0,0,0.1,0,0.1,0l5,3.7c0,0,0.1,0.1,0.1,0.1c0,0,0,0,0,0c0,0.1-0.1,0.1-0.1,0.1
		l-6,0.8C114.3,55,114.3,55,114.2,55L114.2,55z"/>
	<path class="st6" d="M78.6,54.6c0.2-0.1,3.4-2.6,4.3-3.2c-1.1-0.1-5-0.7-5.2-0.7c-0.2,0.1-3.4,2.6-4.3,3.2
		C74.4,54,78.4,54.5,78.6,54.6L78.6,54.6z"/>
	<path class="st1" d="M77.6,50.5L73,53.9l5.6,0.8l4.6-3.5L77.6,50.5L77.6,50.5L77.6,50.5L77.6,50.5z M77.7,50.7
		c0.1,0,4.2,0.6,4.8,0.7c-0.4,0.3-3.9,2.9-4,3c-0.1,0-4.2-0.6-4.8-0.7C74.2,53.3,77.6,50.8,77.7,50.7L77.7,50.7z"/>
	<path class="st6" d="M110.1,51.3c0.9,0.7,4.1,3.1,4.3,3.2c0.2,0,4.2-0.6,5.2-0.7c-0.9-0.7-4.1-3.1-4.3-3.2
		C115.1,50.6,111.2,51.2,110.1,51.3L110.1,51.3z"/>
	<path class="st1" d="M115.3,50.5l-5.6,0.8l4.6,3.5L120,54L115.3,50.5L115.3,50.5L115.3,50.5L115.3,50.5z M113.3,51
		c0,0,1.9-0.3,2-0.3c0.1,0.1,3.5,2.6,4,3c-0.6,0.1-4.7,0.7-4.8,0.7c-0.1-0.1-3.6-2.7-4-3C111,51.4,113.3,51,113.3,51L113.3,51z"/>
	<path class="st4" d="M101.8,49.7l-5.3-2.2c-0.1,0-0.2,0-0.2,0l-5.3,2.2c-0.1,0-0.2,0.1-0.2,0.3c0,0.1,0.1,0.2,0.2,0.3l5.3,2.4
		c0.1,0,0.2,0,0.2,0l5.3-2.4c0.1,0,0.2-0.2,0.2-0.3C102,49.9,101.9,49.8,101.8,49.7L101.8,49.7z"/>
	<path class="st1" d="M96.2,47.4l-5.3,2.2c-0.2,0.1-0.3,0.2-0.3,0.4c0,0.2,0.1,0.3,0.3,0.4l5.3,2.4c0.1,0.1,0.2,0.1,0.4,0l5.3-2.4
		c0.2-0.1,0.3-0.2,0.3-0.4c0,0,0,0,0,0c0-0.2-0.1-0.3-0.3-0.4c0,0-5.3-2.2-5.3-2.2C96.4,47.3,96.3,47.3,96.2,47.4L96.2,47.4
		L96.2,47.4z M96.3,52.5L91,50.1c-0.1,0-0.1-0.1-0.1-0.1c0-0.1,0-0.1,0.1-0.1l5.3-2.2c0,0,0.1,0,0.1,0l5.3,2.2
		c0.1,0,0.1,0.1,0.1,0.1c0,0.1,0,0.1-0.1,0.1l-5.3,2.4C96.4,52.6,96.3,52.6,96.3,52.5L96.3,52.5L96.3,52.5z M101.9,49.6L101.9,49.6
		L101.9,49.6L101.9,49.6L101.9,49.6z"/>
	<path class="st5" d="M91.8,50c0.9,0.4,4.4,2,4.6,2.1c0.2-0.1,3.7-1.7,4.6-2.1c-0.9-0.4-4.4-1.8-4.6-1.9
		C96.2,48.2,92.7,49.6,91.8,50L91.8,50z"/>
	<path class="st1" d="M96.3,48l-4.9,2l5,2.3l5-2.3L96.3,48L96.3,48L96.3,48L96.3,48z M96.4,48.3c0.1,0,3.7,1.6,4.2,1.8
		c-0.5,0.2-4.1,1.9-4.2,1.9c-0.1-0.1-3.7-1.7-4.2-1.9C92.7,49.8,96.3,48.3,96.4,48.3L96.4,48.3z"/>
	<path class="st1" d="M142.4,39.6c0.6-0.5,0.9-1.3,0.9-2.1c0-0.2,0-0.5-0.1-0.7c-0.2-1-1-1.8-2-2.2c0.6-0.6,0.8-1.4,0.8-2.1
		c0-0.6-0.2-1.1-0.4-1.6c-0.5-1-1.5-1.7-2.5-1.7c0.3-0.5,0.5-1.1,0.5-1.6c0-0.7-0.2-1.4-0.6-1.9c-0.7-1.2-2-1.7-3.2-1.4
		c0.1-0.2,0.1-0.5,0.1-0.7c0-0.8-0.3-1.5-0.9-2.1c-1-0.9-2.5-1.2-3.8-0.8c0-0.1,0-0.2,0-0.2c0-0.9-0.5-1.8-1.3-2.3
		c-0.9-0.6-2.3-0.8-3.6-0.1c-0.5-1.2-1.5-2-2.7-2.2c-1.3-0.1-2.5,0.5-3.2,1.5c-0.4-0.5-1.1-0.9-2-0.9c0.1-0.3,0.1-0.5,0.1-0.8
		c0-0.9-0.4-1.7-1.1-2.4c-0.8-0.7-2.1-1.1-3.6-0.4c-0.1-1.9-1.1-2.7-1.7-3c-1.1-0.5-2.4-0.4-3.4,0.3c-0.3-1.1-1-1.9-2.1-2.2
		c-1.1-0.3-2.2-0.1-3.1,0.6c-0.2-0.6-0.8-1.2-1.5-1.5c-1-0.4-2-0.3-2.8,0.3c-0.2-1-0.8-1.6-1.8-1.7c0-0.3,0-1.2,0-1.6
		c0.4,0,1.8,0,1.8,0V1.7c0,0-1.4,0-1.8,0c0-0.4,0-1.7,0-1.7l-2.4,0c0,0,0,1.3,0,1.7c-0.4,0-1.8,0-1.8,0v2.4c0,0,1.4,0,1.8,0
		c0,0.4,0,1.3,0,1.6c-1,0.1-1.6,0.8-1.8,1.7c-0.8-0.6-1.8-0.7-2.8-0.2c-0.8,0.3-1.3,0.9-1.5,1.5c-0.9-0.7-2-1-3.1-0.6
		c-1.1,0.3-1.8,1.2-2.1,2.2c-1-0.7-2.3-0.8-3.5-0.2c-1.1,0.6-1.7,1.6-1.7,2.9c0,0,0,0,0,0.1c-1.4-0.6-2.8-0.2-3.6,0.5
		c-0.7,0.6-1.1,1.5-1.1,2.3c0,0.3,0.1,0.6,0.1,0.8c-0.9,0-1.6,0.4-2,0.9c-0.8-1-1.9-1.6-3.2-1.5C68,16.2,67,17,66.4,18.2
		c-1.3-0.8-2.7-0.6-3.6,0.1c-0.8,0.6-1.3,1.4-1.3,2.3c0,0.1,0,0.2,0,0.3c-1.3-0.4-2.8-0.2-3.8,0.8c-0.6,0.6-1,1.3-1,2.1
		c0,0.2,0,0.5,0.1,0.7c-1.3-0.3-2.5,0.2-3.2,1.4c-0.3,0.5-0.6,1.2-0.6,1.9c0,0.5,0.1,1.1,0.5,1.6c-1.1,0-2,0.8-2.5,1.7
		c-0.2,0.4-0.4,1-0.4,1.6c0,0.7,0.2,1.4,0.8,2.1c-1,0.3-1.7,1.1-2,2.1c-0.1,0.3-0.1,0.5-0.1,0.8c0,0.8,0.3,1.5,0.9,2.1
		c-1.1,1.5-1.7,3.1-1.7,4.6c0,0.8,0.2,1.6,0.6,2.4c1.1,2,3.5,3.1,6.6,2.9c0.5,0.4,0.9,0.6,1.3,0.8c0.3,0.2,0.6,0.3,1,0.6l0,0l0,0
		c0.5,0.2,1,0.3,1.6,0.3c0.7,0,1.4,0.1,2.2,0.5l0.1,0.1l0.1-0.1c11.6-5.2,23.1-7.9,34.3-8c11.2,0.1,22.7,2.7,34.2,8l0.1,0.1l0.1-0.1
		c0.7-0.4,1.5-0.4,2.2-0.5c0.6,0,1.1-0.1,1.6-0.3l0,0l0,0c0.4-0.3,0.7-0.5,1.1-0.6c0.4-0.2,0.8-0.4,1.3-0.8c3.1,0.2,5.5-0.9,6.6-2.9
		c0.4-0.7,0.6-1.5,0.6-2.4C144.1,42.8,143.5,41.2,142.4,39.6L142.4,39.6L142.4,39.6z M124.2,25.7c0.1-0.2,0.1-0.4,0.1-0.6
		c0-0.2,0-0.3-0.1-0.5c4.3,1.6,7.1,4,8.8,8c-2.5-1.4-4.8-2.3-7.4-3.1c-0.1-1.3-1-2.5-2.1-3C123.8,26.4,124,26.1,124.2,25.7
		L124.2,25.7L124.2,25.7z M100.1,15.6c0-0.2,0-0.4-0.1-0.5c4.8,0.7,14.1,3.1,16.2,11.3c-5.1-2.4-8.9-3.9-16-1.8
		c-0.2-0.6-0.6-1.1-1.1-1.5c0.6-0.5,0.9-1.2,1-2c0-0.1,0-0.2,0-0.4c0-1-0.4-2-1.1-2.9C99.8,17,100.1,16.3,100.1,15.6L100.1,15.6
		L100.1,15.6z M92.8,15.1c0,0.2-0.1,0.4-0.1,0.6c0,0.7,0.3,1.4,1.1,2.2c-0.7,0.9-1.1,2-1.1,2.9c0,0.1,0,0.2,0,0.4
		c0.1,0.8,0.4,1.4,1,1.9c-0.5,0.4-0.9,0.9-1.1,1.5c-7.1-2-11-0.6-16,1.8C78.7,18.1,88,15.7,92.8,15.1L92.8,15.1L92.8,15.1z
		 M68.6,24.7c0,0.2-0.1,0.3-0.1,0.5c0,0.2,0,0.4,0.1,0.6c0.1,0.3,0.4,0.6,0.7,0.9c-1.2,0.5-2,1.7-2.2,3c-2.6,0.7-4.9,1.6-7.4,3
		C61.5,28.7,64.3,26.3,68.6,24.7L68.6,24.7z"/>
	<path class="st1" d="M123.9,24.7l0.1,0.4c0,0.2,0,0.3-0.1,0.5c-0.1,0.3-0.3,0.5-0.6,0.8l-0.4,0.3l0.5,0.2c1.1,0.5,1.9,1.5,2,2.7
		l0,0.2l0.2,0.1c2.8,0.8,5.1,1.7,7.3,3l0.8,0.4l-0.3-0.8c-1.7-3.9-4.5-6.5-9-8.1l-0.5-0.2L123.9,24.7L123.9,24.7L123.9,24.7z
		 M124.4,25.8L124.4,25.8c0.1-0.2,0.1-0.4,0.1-0.7v0c3.7,1.4,6.2,3.6,7.8,6.8c-2-1.1-4-1.9-6.5-2.6c-0.2-1.2-0.9-2.2-1.9-2.8
		C124.2,26.3,124.3,26.1,124.4,25.8L124.4,25.8z"/>
	<path class="st1" d="M99.7,15.1l0,0.5c0,0.7-0.3,1.3-1,1.9l-0.2,0.2l0.2,0.2c0.7,0.9,1.1,1.8,1.1,2.7l0,0.3
		c-0.1,0.7-0.4,1.3-0.9,1.8L98.7,23l0.3,0.2c0.4,0.3,0.8,0.8,1,1.3l0.1,0.3l0.3-0.1c7-2,10.8-0.6,15.8,1.8l0.6,0.3l-0.2-0.6
		c-2.1-8.2-11.2-10.7-16.5-11.5l-0.4-0.1L99.7,15.1L99.7,15.1L99.7,15.1z M100.4,15.6c0,0,0-0.1,0-0.2c5,0.8,13.1,3.1,15.4,10.3
		c-4.7-2.2-8.6-3.5-15.4-1.6c-0.2-0.4-0.5-0.8-0.8-1.1c0.5-0.6,0.8-1.2,0.9-1.9c0,0,0-0.4,0-0.4c0-1-0.4-2-1-2.9
		C100,17.1,100.4,16.4,100.4,15.6L100.4,15.6z"/>
	<path class="st1" d="M92.7,14.8c-5.2,0.7-14.3,3.2-16.5,11.5l-0.2,0.6l0.6-0.3c5-2.4,8.8-3.8,15.8-1.8l0.3,0.1l0.1-0.3
		c0.2-0.5,0.5-1,1-1.3l0.3-0.2l-0.3-0.2C93.4,22.3,93,21.7,93,21c0,0,0-0.3,0-0.3c0-0.9,0.4-1.9,1.1-2.8l0.2-0.2L94,17.5
		c-0.7-0.6-1-1.3-1-1.9l0.1-0.9L92.7,14.8L92.7,14.8L92.7,14.8z M92.4,15.4c0,0.1,0,0.2,0,0.2c0,0.8,0.3,1.5,1,2.2
		c-0.7,0.9-1,1.9-1,2.9l0,0.4c0.1,0.7,0.4,1.3,0.9,1.9c-0.3,0.3-0.6,0.7-0.8,1.1c-6.8-1.9-10.6-0.6-15.4,1.6
		C79.4,18.6,87.5,16.2,92.4,15.4L92.4,15.4z"/>
	<path class="st1" d="M99.9,15.1l0.1,0.5c0,0.7-0.3,1.4-1,2.1l-0.1,0.1l0.1,0.1c0.7,0.9,1.1,1.9,1.1,2.8l0,0.3
		c-0.1,0.7-0.4,1.3-0.9,1.9L98.9,23l0.1,0.1c0.5,0.4,0.9,1,1.1,1.7l0,0.1l0.1,0c7-2,10.7-0.6,15.9,1.9l0.3,0.1l-0.1-0.3
		c-1.9-8.4-11.1-11-16.4-11.7l-0.2,0L99.9,15.1L99.9,15.1L99.9,15.1z M100.2,15.6c0,0,0-0.2,0-0.4c5.2,0.8,13.9,3.3,15.9,11.2
		c-5-2.4-8.8-3.7-15.7-1.8c-0.2-0.6-0.6-1.2-1-1.6c0.5-0.6,0.8-1.2,0.9-1.9l0-0.4c0-1-0.4-2-1.1-2.9
		C99.9,17.1,100.2,16.4,100.2,15.6L100.2,15.6z"/>
	<path class="st1" d="M92.7,14.9c-5.3,0.8-14.5,3.3-16.4,11.8L76.2,27l0.3-0.1c5.2-2.5,8.9-3.9,15.9-1.9l0.1,0l0-0.1
		c0.2-0.7,0.6-1.3,1.1-1.7l0.1-0.1l-0.1-0.1c-0.6-0.5-0.9-1.1-1-1.9l0-0.4c0-0.9,0.4-2,1.1-2.8l0.1-0.1l-0.1-0.1c-0.7-0.7-1-1.3-1-2
		l0.1-0.7L92.7,14.9L92.7,14.9L92.7,14.9z M92.6,15.2c0,0.2,0,0.4,0,0.4c0,0.8,0.3,1.5,1,2.2c-0.7,0.9-1.1,2-1.1,2.9l0,0.4
		c0.1,0.7,0.4,1.4,0.9,1.9c-0.5,0.4-0.9,1-1.1,1.6c-6.9-1.9-10.7-0.5-15.7,1.8C78.7,18.5,87.4,16,92.6,15.2L92.6,15.2z"/>
	<path class="st1" d="M124,24.7l0.1,0.4c0,0.2,0,0.4-0.1,0.5c-0.1,0.3-0.3,0.6-0.7,0.8l-0.2,0.2l0.2,0.1c1.2,0.5,2,1.7,2.1,3l0,0.3
		l0.1,0c2.9,0.8,5.2,1.8,7.5,3.2l0.4,0.2l-0.2-0.4c-1.6-4.1-4.5-6.8-9.1-8.5l-0.2-0.1L124,24.7L124,24.7L124,24.7z M124.3,25.8
		c0.1-0.2,0.1-0.4,0.1-0.6c0,0,0-0.1,0-0.2c4.2,1.6,6.9,4.1,8.5,7.8c-2.2-1.3-4.4-2.2-7.1-3c0,0,0-0.1,0-0.1
		c-0.1-1.3-0.9-2.6-2.1-3.1C124,26.3,124.2,26.1,124.3,25.8L124.3,25.8z"/>
	<path class="st2" d="M141.8,39.8l-0.2-0.2l0.2-0.2c0.7-0.5,1-1.4,0.8-2.4c-0.2-0.8-0.8-1.7-2-1.9L140,35l0.5-0.4
		c1.2-1,1.1-2.4,0.7-3.2c-0.5-0.9-1.4-1.6-2.6-1.3l-1.1,0.3l0.8-0.8c1-1,0.9-2.4,0.3-3.4c-0.5-0.8-1.6-1.6-3.1-1l-0.6,0.2l0.3-0.6
		c0.4-1,0.2-2-0.5-2.7c-0.9-0.9-2.4-1.1-3.6-0.5l-0.6,0.3l0.2-0.6c0.3-1-0.1-1.9-0.9-2.4c-0.8-0.6-2.1-0.7-3.2,0.1l-0.3,0.2
		l-0.1-0.4c-0.4-1.2-1.3-2-2.4-2.1c-1.2-0.1-2.3,0.5-2.9,1.6l-0.3,0.5l-0.2-0.5c-0.2-0.5-1-1.1-2-0.9l-0.6,0.1l0.2-0.5
		c0.4-1.1,0.2-2.2-0.7-3c-0.7-0.6-2-1-3.3-0.2l-0.5,0.3l0-0.5c0-1.4-0.5-2.4-1.4-2.9c-1-0.5-2.2-0.3-3.2,0.4l-0.4,0.3l-0.1-0.5
		c-0.1-1-0.8-1.9-1.8-2.2c-1-0.3-2.1,0-2.8,0.9l-0.5,0.6l0-0.8c0-0.6-0.5-1.2-1.3-1.6c-0.4-0.2-1.5-0.5-2.5,0.5l-0.5,0.5V7.9
		c0-1.1-0.6-1.7-1.6-1.7l-0.3,0V3.5c0,0,1.4,0,1.8,0c0-0.3,0-0.9,0-1.2c-0.4,0-1.8,0-1.8,0c0-1.7,0-1.7,0-1.7l-1.2,0v1.7
		c0,0-1.4,0-1.8,0c0,0.3,0,0.9,0,1.2c0.4,0,1.8,0,1.8,0v2.7l-0.3,0c-1,0-1.6,0.7-1.6,1.7l0,0.7l-0.5-0.5c-1-1-2.1-0.7-2.6-0.5
		c-0.8,0.3-1.3,1-1.3,1.6l0,0.8l-0.5-0.6c-0.7-0.9-1.8-1.2-2.8-0.9c-1,0.3-1.7,1.1-1.8,2.2l-0.1,0.6L84,11c-0.8-0.8-2.1-0.9-3.2-0.4
		c-1.1,0.5-1.6,1.6-1.4,2.9l0.1,0.6L79,13.7c-1.4-0.8-2.6-0.4-3.3,0.2c-0.9,0.8-1.1,1.9-0.6,3l0.2,0.5l-0.6-0.1
		c-1.1-0.2-1.8,0.4-2.1,0.9l-0.2,0.5l-0.3-0.5c-0.6-1.1-1.7-1.7-2.9-1.6c-1.1,0.1-2,0.9-2.4,2.1l-0.1,0.4l-0.3-0.2
		c-1.2-0.9-2.5-0.6-3.2-0.1c-0.9,0.6-1.2,1.5-1,2.5l0.2,0.6l-0.6-0.3c-1.2-0.6-2.6-0.4-3.6,0.5c-0.8,0.7-1,1.7-0.6,2.7l0.3,0.6
		l-0.6-0.2c-1.4-0.6-2.5,0.1-3.1,1c-0.6,0.9-0.8,2.4,0.3,3.4l0.8,0.8l-1.1-0.3c-1.1-0.3-2.1,0.4-2.6,1.3c-0.5,0.9-0.6,2.3,0.7,3.3
		l0.5,0.4l-0.6,0.1c-1,0.2-1.7,0.9-2,1.8c-0.2,0.9,0.1,1.9,0.8,2.4l0.2,0.2L51,39.8c-1.8,2.3-2.3,4.7-1.3,6.6c1,1.8,3.2,2.8,6.1,2.6
		l0.1,0l0.1,0.1c0.5,0.4,0.9,0.6,1.3,0.8c0.3,0.2,0.7,0.3,1.1,0.6c0.3,0.2,0.8,0.2,1.3,0.2c0.7,0,1.5,0.1,2.3,0.5
		c11.6-5.2,23.2-7.9,34.4-8h0c11.2,0.1,22.8,2.7,34.3,8c0.8-0.4,1.6-0.5,2.3-0.5c0.5,0,1-0.1,1.3-0.2c0.4-0.3,0.8-0.5,1.1-0.7
		c0.4-0.2,0.8-0.4,1.3-0.8l0.1-0.1l0.1,0c2.9,0.2,5.1-0.7,6.1-2.6C144,44.5,143.6,42.1,141.8,39.8L141.8,39.8L141.8,39.8z
		 M122.6,26.4c0.4-0.2,0.8-0.4,1-0.9c0.1-0.3,0.1-0.7-0.2-1.2l-0.3-0.6l0.7,0.2c5.3,1.8,8.5,4.7,10.2,9.7c0.7,1.9,1.1,4.1,1.3,6.7
		v0.4l-0.1,0.1c-2.4,2-2.6,4.2-0.7,6.6l0.4,0.5h-0.6c-2.4,0-2.6-0.1-3.4-1.5l-0.4-0.8l0.2-0.1c0.8-0.6,1.2-1.5,1.2-2.5
		c0-1.7-1.4-3.2-3.2-3.2c-1.6,0-3,1.3-3.2,2.9l0,0.2l-0.2,0.1c-1.3,0.6-2.3,0.7-3,0.4c-0.7-0.3-1.2-1-1.6-2.3l-0.1-0.3l0.3,0
		c2.4-0.3,4-1.3,4.4-2.7c0.5-1.5-0.4-3.3-2.4-5.1l-0.4-0.3l0.5-0.2c1.3-0.4,2-1.4,1.9-2.6c0,0,0,0,0,0c-0.1-1.1-0.9-2.4-2.3-2.8
		l-0.9-0.2L122.6,26.4L122.6,26.4L122.6,26.4z M128.3,48.1c-1.5-0.6-2.7-1.1-3.9-1.6l-0.9-0.3l3-0.8l0.2,0l0.1,0.1
		c0.3,0.2,0.6,0.4,1.1,0.5l0.2,0l0.9,2.4L128.3,48.1L128.3,48.1L128.3,48.1z M73.2,44.7l0.2-0.6c0.4-1,0.8-2,0.9-3.2l0-0.2l0.7-0.1
		l0.1,0l0.1,0.1c1.1,1.1,1.7,1.6,3,2.2l0.8,0.4l-0.8,0.2c-1.7,0.4-3.1,0.7-4.4,1.1L73.2,44.7L73.2,44.7L73.2,44.7z M83.3,42.4
		l0.5-0.6c0.5-0.6,0.7-0.8,0.9-1.6l0.1-0.2l0.2,0c0.7,0.1,1.4,0,1.9-0.1l0.2,0l2.2,1.8l-0.7,0.1c-1.4,0.1-2.8,0.3-4.5,0.6L83.3,42.4
		L83.3,42.4L83.3,42.4z M94.6,41.4l-0.8,0l0.9-0.9c0.6-0.6,0.9-1,1.3-1.8l0.2-0.4c0,0,0,0,0.1,0.1c0.1-0.2,0.1-0.3,0.1-0.3l0.3,0.6
		c0.4,0.7,0.7,1.1,1.1,1.6l1,1.1l-1.7-0.1h-1.6L94.6,41.4L94.6,41.4L94.6,41.4z M103.7,41.7l2.1-1.7l0.1-0.1l0.2,0
		c0.5,0.2,1.2,0.2,1.9,0.1l0.2,0l0.1,0.2c0.2,0.8,0.3,1,0.9,1.6l0.6,0.6l-0.8-0.1c-1.5-0.2-3-0.4-4.5-0.6L103.7,41.7L103.7,41.7
		L103.7,41.7z M113.5,43.3l0.8-0.4c1.4-0.6,2-1.2,3.2-2.3l0.1-0.1l0.8,0.2l0,0.2c0.1,1.3,0.5,2.2,1,3.4l0.2,0.6l-0.6-0.2
		c-1.8-0.5-3.3-0.9-4.7-1.2L113.5,43.3L113.5,43.3L113.5,43.3z M98.4,17.9l-0.2-0.2l0.2-0.2c1.2-1,1.2-1.9,0.9-2.7l-0.1-0.4l0.4,0.1
		c5,0.6,15.5,3.1,17.3,12.6c0.3,1.4,0.3,2.9,0.2,4.5l0,0.2l-0.2,0.1c-0.9,0.4-2.8,1.2-3.3,2.9c-0.4,1.3-0.1,2.9,1.1,4.7l0.1,0.2
		l-0.1,0.2c-0.8,1-2.3,1.1-3.3,0.7c-1-0.4-1.6-1.2-1.6-2.1v-0.1l0-0.1c0.8-1.3,0.8-2.6-0.1-3.5c-1.1-1.1-3-1.5-4.3-0.8
		c-1.2,0.7-1.6,2.2-1.1,4.2l0.1,0.2l-0.2,0.1c-1.5,0.8-3.2,1.5-4.9-0.2L98.7,38l0.5-0.1c1.9-0.6,2.8-2.4,2.9-3.9
		c0.1-1.6-0.7-3-2.1-3.6l-0.2-0.1v-0.2c0-1.1-0.3-1.5-1.3-1.6l-0.9-0.1l0.8-0.4c0.8-0.4,1.3-1.2,1.4-2.2c0-0.3,0-0.5-0.1-0.7
		c-0.2-0.7-0.6-1.3-1.2-1.6l-0.4-0.2l0.4-0.3c0.6-0.5,1-1.1,1-1.8C99.7,20,99.2,18.9,98.4,17.9L98.4,17.9L98.4,17.9z M93.1,14.4
		l0.4-0.1l-0.1,0.4c-0.3,0.9-0.2,1.8,0.9,2.7l0.2,0.2l-0.2,0.2c-0.8,0.9-1.2,2.1-1.1,3.1c0.1,0.7,0.4,1.3,1,1.8l0.4,0.3l-0.4,0.2
		c-0.6,0.3-1,0.9-1.2,1.6C93,25.2,93,25.4,93,25.7c0,1,0.5,1.8,1.4,2.2l0.8,0.4l-0.9,0.1c-0.8,0.1-1.3,0.4-1.3,1.6v0.2l-0.2,0.1
		c-1.4,0.6-2.2,2-2,3.6c0.1,1.5,1,3.3,2.9,3.8l0.5,0.1l-0.3,0.3c-1.6,1.6-3.3,1-4.9,0.2l-0.2-0.1l0.1-0.2c0.5-2,0.1-3.5-1.1-4.2
		c-1.3-0.7-3.2-0.4-4.3,0.8c-0.9,0.9-1,2.2-0.2,3.5l0,0.1v0.1c0,0.9-0.6,1.7-1.6,2.1c-1.1,0.4-2.5,0.3-3.4-0.7L78,39.6l0.1-0.2
		c1.1-1.9,1.5-3.5,1.1-4.8c-0.6-1.8-2.5-2.5-3.4-2.9l-0.2-0.1l0-0.2c-0.2-1.7-0.1-3.2,0.2-4.5C77.6,17.6,88.2,15.1,93.1,14.4
		L93.1,14.4L93.1,14.4z M69,23.9l0.7-0.2l-0.3,0.6c-0.2,0.5-0.3,0.9-0.2,1.2c0.1,0.4,0.5,0.7,1,0.9l0.9,0.4L70.1,27
		c-1.3,0.3-2.3,1.4-2.4,2.8c0,0,0,0,0,0c-0.1,1.2,0.6,2.2,1.9,2.7l0.5,0.2l-0.4,0.3c-2,1.8-2.8,3.6-2.4,5c0.4,1.4,2,2.4,4.4,2.7
		l0.3,0L72.1,41c-0.4,1.3-0.9,2-1.6,2.3c-0.8,0.3-1.7,0.2-3-0.4l-0.1-0.1l0-0.2c-0.2-1.7-1.5-2.9-3.2-2.9c-1.7,0-3.2,1.4-3.2,3.2
		c0,1,0.4,1.9,1.2,2.4l0.2,0.2l-0.4,0.9c-0.7,1.4-0.9,1.5-3.3,1.5h-0.6l0.4-0.5c1.9-2.4,1.7-4.6-0.7-6.6l-0.1-0.1l0-0.4
		c0.2-2.5,0.7-4.7,1.3-6.6C60.5,28.6,63.7,25.7,69,23.9L69,23.9L69,23.9z M64.3,47.9l-0.6,0.3l0.9-2.3l0.2,0
		c0.5-0.1,0.8-0.2,1.1-0.5l0.1-0.1l3.1,0.8l-0.9,0.3C66.9,46.8,65.6,47.3,64.3,47.9L64.3,47.9z"/>
	<path class="st1" d="M95.6,0.6c0,0,0,1.3,0,1.6c-0.3,0-1.8,0-1.8,0v1.5c0,0,1.6,0,1.8,0c0,0.3,0,2.1,0,2.4c-0.1,0-0.1,0-0.1,0
		c-1.1,0-1.7,0.7-1.7,1.8c0,0,0,0,0,0.1c0,0,0,0.2,0,0.3C93.7,8.2,93.6,8,93.6,8c-1.1-1-2.3-0.7-2.7-0.5c-0.8,0.3-1.4,1-1.4,1.7
		c0,0,0,0.2,0,0.4c-0.1-0.2-0.3-0.3-0.3-0.3c-0.8-0.9-1.9-1.2-3-0.9c-1,0.3-1.8,1.2-1.9,2.3c0,0,0,0.1,0,0.3
		c-0.1-0.1-0.2-0.2-0.2-0.2c-0.8-0.8-2.2-1-3.3-0.4c-1,0.5-1.5,1.4-1.5,2.5c0,0.2,0,0.3,0,0.5c0,0,0,0.1,0,0.3
		c-0.1-0.1-0.3-0.2-0.3-0.2c-1.4-0.9-2.8-0.4-3.5,0.2c-0.6,0.5-0.9,1.3-0.9,2c0,0.4,0.1,0.7,0.2,1.1c0,0,0.1,0.1,0.1,0.3
		c-0.1,0-0.3-0.1-0.3-0.1c-1.2-0.2-2,0.5-2.2,1c0,0-0.1,0.1-0.1,0.2c-0.1-0.1-0.1-0.2-0.1-0.2c-0.6-1.1-1.8-1.8-3-1.7
		c-1.2,0.1-2.1,0.9-2.5,2.2c0,0,0,0.1-0.1,0.2c-0.1-0.1-0.2-0.1-0.2-0.1c-1.2-0.9-2.6-0.6-3.4-0.1c-0.7,0.5-1.1,1.2-1.1,2
		c0,0.2,0,0.4,0.1,0.7c0,0,0,0.2,0.1,0.3c-0.1-0.1-0.3-0.1-0.3-0.1c-1.2-0.6-2.8-0.4-3.8,0.5c-0.5,0.5-0.8,1.1-0.8,1.8
		c0,0.4,0.1,0.7,0.2,1.1c0,0,0.1,0.2,0.1,0.3c-0.2-0.1-0.3-0.1-0.3-0.1c-1.5-0.6-2.7,0.2-3.2,1c-0.3,0.5-0.5,1.1-0.5,1.7
		c0,0.7,0.2,1.3,0.8,1.9c0,0,0.2,0.2,0.4,0.4c-0.3-0.1-0.5-0.2-0.5-0.2c-1.2-0.3-2.3,0.4-2.8,1.4c-0.2,0.4-0.3,0.9-0.3,1.4
		c0,0.7,0.3,1.5,1,2.1c0,0,0.1,0.1,0.2,0.2c-0.2,0-0.3,0.1-0.3,0.1c-1.1,0.2-1.8,0.9-2.1,2C50,37.2,50,37.4,50,37.6
		c0,0.8,0.3,1.5,0.9,1.9c0,0,0.1,0,0.1,0.1c0,0.1-0.1,0.1-0.1,0.1c-1.2,1.5-1.8,3.1-1.8,4.6c0,0.8,0.2,1.5,0.5,2.2
		c1,1.9,3.3,2.9,6.3,2.7c0,0,0,0,0.1,0c0,0,0,0,0,0c0.5,0.4,0.9,0.6,1.3,0.8c0.3,0.1,0.6,0.3,1.1,0.6c0.4,0.2,0.9,0.2,1.4,0.3
		c0.8,0,1.5,0.1,2.2,0.5l0.1,0l0.1,0c11.6-5.2,23.1-7.9,34.3-8c11.2,0.1,22.7,2.7,34.3,8l0.1,0l0.1,0c0.7-0.4,1.4-0.4,2.2-0.5
		c0.5,0,1-0.1,1.4-0.2c0.4-0.3,0.8-0.5,1.1-0.7c0.4-0.2,0.8-0.4,1.3-0.8c0,0,0,0,0,0c0,0,0.1,0,0.1,0c3,0.2,5.3-0.8,6.3-2.7
		c0.4-0.7,0.5-1.4,0.5-2.2c0-1.5-0.6-3.1-1.8-4.6c0,0,0-0.1-0.1-0.1c0.1,0,0.1-0.1,0.1-0.1c0.6-0.4,0.9-1.1,0.9-1.9
		c0-0.2,0-0.4-0.1-0.6c-0.2-0.8-0.8-1.8-2.1-2c0,0-0.2,0-0.3-0.1c0.1-0.1,0.2-0.2,0.2-0.2c0.8-0.6,1-1.4,1-2.1c0-0.5-0.1-1-0.3-1.4
		c-0.5-0.9-1.5-1.7-2.8-1.4c0,0-0.3,0.1-0.5,0.2c0.2-0.2,0.4-0.4,0.4-0.4c0.6-0.5,0.8-1.2,0.8-1.9c0-0.6-0.2-1.2-0.5-1.7
		c-0.6-0.9-1.7-1.7-3.3-1.1c0,0-0.2,0.1-0.3,0.1c0.1-0.2,0.1-0.3,0.1-0.3c0.1-0.4,0.2-0.7,0.2-1.1c0-0.7-0.3-1.3-0.8-1.8
		c-1-0.9-2.6-1.1-3.8-0.5c0,0-0.1,0.1-0.3,0.1c0-0.2,0.1-0.3,0.1-0.3c0.1-0.2,0.1-0.4,0.1-0.7c0-0.8-0.4-1.5-1.1-2
		c-0.9-0.6-2.2-0.8-3.4,0.1c0,0-0.1,0.1-0.2,0.1c0-0.1-0.1-0.2-0.1-0.2c-0.4-1.3-1.3-2.1-2.5-2.2c-1.2-0.1-2.4,0.5-3.1,1.7
		c0,0-0.1,0.1-0.1,0.2c-0.1-0.1-0.1-0.2-0.1-0.2c-0.2-0.5-1.1-1.2-2.2-1c0,0-0.1,0-0.3,0.1c0.1-0.1,0.1-0.3,0.1-0.3
		c0.2-0.4,0.2-0.7,0.2-1.1c0-0.8-0.3-1.5-0.9-2c-0.8-0.7-2.1-1.1-3.5-0.2c0,0-0.1,0.1-0.2,0.1c0-0.1,0-0.3,0-0.3c0-0.1,0-0.1,0-0.2
		c0-1.4-0.5-2.4-1.5-2.9c-1-0.5-2.3-0.3-3.3,0.5c0,0-0.1,0.1-0.2,0.2c0-0.1,0-0.3,0-0.3c-0.1-1.1-0.8-2-1.9-2.3
		c-1.1-0.3-2.3,0-3,0.9c0,0-0.1,0.2-0.3,0.3c0-0.2,0-0.4,0-0.4c0-0.6-0.6-1.3-1.4-1.7c-0.5-0.2-1.6-0.5-2.7,0.5c0,0-0.1,0.1-0.2,0.2
		c0-0.2,0-0.3,0-0.3c0-1.1-0.7-1.8-1.7-1.9c0,0-0.1,0-0.1,0c0-0.2,0-2.1,0-2.4c0.3,0,1.8,0,1.8,0V2.1c0,0-1.5,0-1.8,0
		c0-0.2,0-1.7,0-1.7l-1.5,0V0.6L95.6,0.6L95.6,0.6z M95.8,2.5h0.1c0,0,0-1.5,0-1.7c0.2,0,0.7,0,0.9,0c0,0.2,0,1.7,0,1.7s1.5,0,1.8,0
		c0,0.2,0,0.7,0,0.9c-0.3,0-1.8,0-1.8,0v3l0.4,0c0.9,0,1.4,0.6,1.4,1.6v1l0.7-0.7c0.9-0.9,2-0.6,2.4-0.4c0.7,0.3,1.2,0.9,1.2,1.4
		l0,1.2l0.8-1c0.7-0.8,1.7-1.1,2.7-0.8c0.9,0.3,1.6,1.1,1.7,2.1l0.1,0.8l0.6-0.5c0.9-0.7,2.1-0.9,3-0.4c0.9,0.5,1.4,1.4,1.3,2.8
		l0,0.8l0.7-0.4c1.3-0.8,2.5-0.4,3.2,0.2c0.8,0.7,1.1,1.8,0.6,2.8l-0.3,0.8l0.8-0.2c1-0.2,1.7,0.4,1.9,0.8l0.4,0.8l0.4-0.7
		c0.6-1,1.7-1.6,2.8-1.5c1.1,0.1,1.9,0.8,2.3,2l0.2,0.6l0.5-0.4c1.1-0.8,2.3-0.6,3.1-0.1c0.8,0.5,1.1,1.4,0.9,2.3l-0.3,0.9l0.9-0.4
		c1.1-0.5,2.6-0.3,3.4,0.5c0.7,0.7,0.9,1.6,0.5,2.5l-0.4,0.9l1-0.4c1.4-0.5,2.4,0.2,2.9,1c0.6,0.9,0.7,2.2-0.3,3.2l-1.3,1.2l1.7-0.5
		c1.1-0.3,2,0.4,2.4,1.2c0.4,0.8,0.5,2.1-0.6,3.1l-0.8,0.6l1,0.2c1.1,0.2,1.7,1,1.9,1.8c0.2,0.9-0.1,1.7-0.7,2.2l-0.4,0.3l0.3,0.4
		l0,0c1.7,2.2,2.2,4.7,1.2,6.5c-0.9,1.8-3.1,2.7-6,2.5l-0.2,0l-0.1,0.1c-0.5,0.4-0.8,0.6-1.2,0.8c-0.3,0.2-0.7,0.3-1.1,0.7
		c-0.3,0.1-0.7,0.2-1.2,0.2c-0.6,0-1.4,0.1-2.3,0.5c-11.6-5.2-23.1-7.9-34.3-8c-11.2,0.1-22.8,2.7-34.4,8c-0.8-0.4-1.7-0.5-2.3-0.5
		c-0.5,0-0.9-0.1-1.3-0.2c-0.4-0.3-0.7-0.5-1.1-0.6c-0.4-0.2-0.8-0.4-1.3-0.8L56,48.8l-0.2,0c-2.9,0.2-5-0.7-6-2.5
		c-1-1.8-0.5-4.2,1.3-6.4l0.3-0.4L51,39.3c-0.7-0.5-0.9-1.4-0.7-2.2c0.2-0.9,0.9-1.6,1.9-1.7l1-0.2l-0.8-0.6
		c-1.2-0.9-1.1-2.2-0.6-3.1c0.4-0.8,1.3-1.5,2.4-1.2l1.7,0.5l-1.3-1.2c-1-0.9-0.8-2.3-0.3-3.2c0.5-0.8,1.5-1.5,2.9-0.9l1,0.4
		l-0.4-0.9c-0.4-1-0.2-1.9,0.5-2.6c0.9-0.8,2.3-1,3.4-0.5l0.9,0.4l-0.3-1c-0.2-0.9,0.1-1.8,0.9-2.3c0.7-0.5,1.9-0.7,3,0.1l0.5,0.4
		l0.2-0.6c0.4-1.2,1.2-1.9,2.3-2c1.1-0.1,2.2,0.5,2.7,1.5l0.4,0.7l0.4-0.8c0.2-0.4,0.9-1,1.9-0.8l0.8,0.2l-0.3-0.8
		c-0.4-1-0.2-2.1,0.6-2.8c0.7-0.6,1.9-1,3.2-0.2l0.8,0.5l-0.1-0.9c-0.2-1.2,0.3-2.2,1.3-2.7c1-0.5,2.2-0.4,3,0.4l0.7,0.6l0.1-0.9
		c0.1-1,0.7-1.8,1.7-2.1c1-0.3,2,0,2.7,0.8l0.8,1l0-1.2c0-0.5,0.5-1.1,1.2-1.4c0.4-0.2,1.4-0.5,2.4,0.4L94.1,9l0-1.1
		c0-1,0.5-1.5,1.4-1.6l0.4,0v-3c0,0-1.6,0-1.8,0c0-0.2,0-0.7,0-0.9C94.4,2.5,95.8,2.5,95.8,2.5L95.8,2.5z"/>
	<path class="st1" d="M126.6,45.2l-3.6,1l1.3,0.5c1.1,0.4,2.4,0.9,3.9,1.6l0,0l1,0.4l-1.1-2.8l-0.2,0c-0.4-0.1-0.7-0.2-1-0.4
		L126.6,45.2L126.6,45.2L126.6,45.2L126.6,45.2z M126.6,45.5C126.6,45.5,126.6,45.5,126.6,45.5c0.1,0,0.1,0,0.1,0
		c0.3,0.3,0.6,0.4,1.1,0.5c0,0,0,0,0.1,0c0.1,0.1,0.6,1.5,0.8,2c-0.2-0.1-0.3-0.1-0.3-0.1c-1.5-0.7-2.7-1.2-3.9-1.6
		c0,0-0.2-0.1-0.4-0.2C124.7,46,126.6,45.5,126.6,45.5L126.6,45.5z"/>
	<path class="st1" d="M75.2,40.4l-0.9,0.2l0,0.3c-0.1,1.2-0.5,2.2-0.9,3.2L73,44.9l0.9-0.3c1.3-0.4,2.8-0.7,4.4-1.1l1.2-0.3
		l-1.1-0.5c-1.2-0.6-1.8-1.1-2.9-2.2L75.2,40.4L75.2,40.4L75.2,40.4L75.2,40.4z M75.1,40.7C75.1,40.7,75.2,40.7,75.1,40.7
		c0.1,0,0.1,0,0.1,0c1.1,1.1,1.8,1.6,3,2.2c0,0,0.2,0.1,0.4,0.2c-0.2,0-0.4,0.1-0.4,0.1c-1.7,0.4-3.1,0.7-4.5,1.1c0,0-0.1,0-0.3,0.1
		c0.1-0.1,0.1-0.3,0.1-0.3c0.4-1,0.8-2,0.9-3.3c0,0,0-0.1,0-0.1C74.7,40.8,75.1,40.7,75.1,40.7L75.1,40.7z"/>
	<path class="st1" d="M87.1,39.7l-0.2,0c-0.5,0.2-1.1,0.2-1.8,0.1l-0.4,0l-0.1,0.4c-0.2,0.7-0.3,0.9-0.8,1.5L83,42.6l1.2-0.2
		c1.6-0.2,3.1-0.4,4.5-0.6l1.1-0.1L87.1,39.7L87.1,39.7L87.1,39.7L87.1,39.7z M87,40C87,40,87,40,87,40c0.2,0.1,1.5,1.2,1.9,1.5
		c-0.2,0-0.3,0-0.3,0c-1.4,0.1-2.9,0.3-4.5,0.6c0,0-0.2,0-0.4,0.1c0.1-0.1,0.3-0.3,0.3-0.3c0.6-0.6,0.7-0.9,0.9-1.7c0,0,0-0.1,0-0.1
		c0.1,0,0.1,0,0.1,0C85.8,40.2,86.4,40.2,87,40L87,40z"/>
	<path class="st1" d="M96.3,38.1c0,0,0,0.1,0,0.1c0,0-0.1-0.1-0.1-0.1l-0.3,0.5c-0.4,0.8-0.7,1.1-1.3,1.7l-1.1,1.2l1.1-0.1l0,0
		l1-0.1h1.6l2,0.1L98,40.2c-0.4-0.5-0.8-0.8-1.1-1.5l-0.4-0.9L96.3,38.1L96.3,38.1L96.3,38.1z M96.5,38.5L96.5,38.5
		c0.1,0.1,0.1,0.3,0.1,0.3c0.4,0.7,0.7,1.1,1.2,1.6c0,0,0.5,0.5,0.8,0.8c-0.4,0-1.3-0.1-1.3-0.1l-1.6,0l-1,0.1c0,0-0.2,0-0.4,0
		c0.3-0.3,0.6-0.6,0.6-0.6c0.6-0.6,1-1,1.4-1.8c0,0,0-0.1,0.1-0.2c0,0,0.1,0.1,0.1,0.1L96.5,38.5L96.5,38.5z"/>
	<path class="st1" d="M105.8,39.8l-2.5,2.1l1,0.1c1.5,0.2,2.9,0.4,4.5,0.6l1.2,0.2l-0.8-0.9c-0.5-0.6-0.6-0.8-0.8-1.6l-0.1-0.4
		l-0.4,0c-0.7,0.1-1.3,0-1.8-0.1L105.8,39.8L105.8,39.8L105.8,39.8L105.8,39.8z M105.9,40.1C105.9,40.1,105.9,40.1,105.9,40.1
		c0.1,0,0.1,0,0.1,0c0.6,0.2,1.2,0.2,2,0.1c0,0,0.1,0,0.1,0c0,0.1,0,0.1,0,0.1c0.2,0.8,0.3,1.1,0.9,1.7c0,0,0.1,0.1,0.3,0.3
		c-0.2,0-0.4-0.1-0.4-0.1c-1.5-0.2-3-0.4-4.5-0.6c0,0-0.2,0-0.3,0C104.5,41.3,105.9,40.1,105.9,40.1L105.9,40.1z"/>
	<path class="st1" d="M117.4,40.4l-0.1,0.1c-1.2,1.1-1.8,1.7-3.1,2.3l-1.2,0.5l1.3,0.3c1.4,0.3,2.9,0.7,4.7,1.2l0.9,0.3l-0.4-0.9
		c-0.5-1.2-0.9-2.1-1-3.4l0-0.3L117.4,40.4L117.4,40.4L117.4,40.4L117.4,40.4z M114.3,43.1c1.4-0.6,2-1.2,3.2-2.3c0,0,0,0,0.1-0.1
		c0.1,0,0.5,0.1,0.6,0.1c0,0.1,0,0.1,0,0.1c0.1,1.3,0.5,2.3,1,3.5c0,0,0.1,0.1,0.1,0.3c-0.1,0-0.3-0.1-0.3-0.1
		c-1.8-0.5-3.3-0.9-4.7-1.2c0,0-0.2,0-0.4-0.1C114.1,43.1,114.3,43.1,114.3,43.1L114.3,43.1z"/>
	<path class="st5" d="M85.2,40.6c-0.1,0.4-0.3,0.7-0.5,1c1.1-0.2,2.1-0.3,3.1-0.4c-0.4-0.3-0.8-0.7-0.9-0.8
		C86.4,40.6,85.9,40.6,85.2,40.6L85.2,40.6z"/>
	<path class="st1" d="M86.9,40.3c-0.5,0.1-1.1,0.2-1.7,0.1l-0.1,0l0,0.1c-0.1,0.4-0.3,0.7-0.4,1l-0.2,0.3l3.8-0.5L88,41.1L86.9,40.3
		L86.9,40.3L86.9,40.3L86.9,40.3z M86.9,40.6c0.1,0.1,0.3,0.3,0.6,0.5c-0.5,0.1-2,0.3-2.5,0.3c0.1-0.2,0.2-0.4,0.3-0.7
		C85.9,40.8,86.4,40.7,86.9,40.6L86.9,40.6z"/>
	<path class="st5" d="M75,41.2c-0.1,1-0.4,1.8-0.7,2.6c1-0.3,2-0.5,3.1-0.8C76.6,42.5,75.9,42,75,41.2C75,41.2,75,41.2,75,41.2
		L75,41.2z"/>
	<path class="st1" d="M75,41l-0.2,0l0,0.1c-0.1,1.1-0.4,2-0.7,2.6L74,44l3.8-1l-0.3-0.2c-0.8-0.5-1.4-1-2.3-1.8L75,41L75,41L75,41
		L75,41z M75.1,41.4c0.7,0.7,1.3,1.2,1.9,1.6c-0.5,0.1-2.1,0.5-2.5,0.6C74.7,43,75,42.3,75.1,41.4L75.1,41.4z"/>
	<path class="st5" d="M76.4,27.1c-0.2,0.9-0.3,1.8-0.3,2.9c0,0.5,0,0.9,0.1,1.4c1,0.4,3,1.3,3.6,3.2c0.1,0.4,0.2,0.8,0.2,1.3
		c0,1.1-0.4,2.4-1.2,3.7c0.6,0.6,1.7,0.7,2.6,0.4c0.4-0.1,1.2-0.5,1.2-1.5c-0.4-0.7-0.6-1.4-0.6-2c0-0.8,0.3-1.5,0.9-2.1
		c1.3-1.3,3.5-1.7,5-0.9c0.7,0.4,1.6,1.2,1.6,3.1c0,0.4-0.1,1-0.2,1.5c1.4,0.7,2.6,1,3.7,0.1c-1.6-0.7-2.7-2.3-2.9-4.2
		c0-0.1,0-0.2,0-0.3c0-1.6,0.8-3.1,2.2-3.8c0-1,0.4-1.6,1.1-1.9c-0.7-0.6-1.1-1.4-1.1-2.4c0,0,0,0,0-0.1c0-0.2,0-0.4,0.1-0.6
		C85.4,23,81.6,24.5,76.4,27.1L76.4,27.1z"/>
	<path class="st1" d="M76.3,26.9L76.3,26.9L76.2,27C76.1,28,76,28.9,76,29.9l0.1,1.5l0.1,0c0.8,0.3,2.9,1.2,3.5,3.1
		c0.1,0.4,0.2,0.8,0.2,1.2c0,1.1-0.4,2.3-1.2,3.7l-0.1,0.1l0.1,0.1c0.7,0.6,1.8,0.8,2.7,0.4c0.3-0.1,1.3-0.6,1.3-1.6l0,0l0,0
		c-0.4-0.7-0.6-1.3-0.6-1.9c0-0.8,0.3-1.5,0.8-2c1.2-1.3,3.4-1.6,4.8-0.8c0.7,0.4,1.6,1.2,1.6,3c0,0.4-0.1,0.9-0.2,1.5l0,0.1
		l0.1,0.1c1.2,0.7,2.6,1.1,3.9,0.1l0.2-0.2L93,38.1c-1.6-0.7-2.6-2.3-2.8-4.1l0-0.3c0-1.6,0.8-2.9,2.2-3.6l0.1,0l0-0.1
		c0-1,0.4-1.5,1-1.8l0.2-0.1l-0.2-0.2c-0.7-0.6-1.1-1.4-1.1-2.3v-0.1l0.1-0.7l-0.1,0C85.4,22.9,81.7,24.3,76.3,26.9L76.3,26.9
		L76.3,26.9z M92.3,25.2c0,0.2,0,0.5,0,0.5v0.1c0,0.9,0.4,1.7,1,2.3c-0.6,0.3-1,0.9-1,1.8c-1.4,0.8-2.3,2.2-2.3,3.9l0,0.3
		c0.1,1.8,1.2,3.4,2.7,4.2c-1,0.6-2,0.4-3.2-0.2c0.1-0.5,0.2-1,0.2-1.4c0-2-1.1-2.9-1.7-3.2c-1.6-0.9-3.9-0.5-5.2,0.9
		c-0.6,0.6-0.9,1.4-0.9,2.2c0,0.6,0.2,1.3,0.6,2c0,0.9-0.8,1.2-1.1,1.3c-0.8,0.3-1.8,0.2-2.3-0.3c0.8-1.4,1.2-2.6,1.2-3.7
		c0-0.5-0.1-0.9-0.2-1.3c-0.7-2-2.7-2.9-3.6-3.2c0-0.2-0.1-1.3-0.1-1.3c0-0.9,0.1-1.9,0.3-2.8C81.7,24.6,85.4,23.2,92.3,25.2
		L92.3,25.2z"/>
	<path class="st5" d="M106.1,40.6c-0.1,0.1-0.5,0.4-0.9,0.8c1,0.1,2.1,0.3,3.1,0.4c-0.2-0.3-0.3-0.6-0.5-1
		C107.2,40.7,106.6,40.7,106.1,40.6L106.1,40.6z"/>
	<path class="st1" d="M106,40.4l-1.2,1l3.8,0.5l-0.2-0.3c-0.2-0.3-0.3-0.6-0.4-1l0-0.1l-0.1,0c-0.6,0-1.2,0-1.7-0.1L106,40.4
		L106,40.4L106,40.4L106,40.4z M105.9,40.9c0,0,0.2-0.1,0.2-0.2c0.5,0.1,1,0.2,1.6,0.1c0.1,0.3,0.2,0.5,0.3,0.7
		c-0.4-0.1-2-0.3-2.5-0.3C105.7,41.1,105.9,40.9,105.9,40.9L105.9,40.9z"/>
	<path class="st5" d="M126.5,46.3c-0.1,0-0.6,0.1-1.1,0.3c0.7,0.3,1.5,0.6,2.4,1c-0.2-0.4-0.3-0.7-0.3-0.8
		C127.2,46.6,126.8,46.5,126.5,46.3L126.5,46.3z"/>
	<path class="st1" d="M126.5,45.8l-1.5,0.4l3.2,1.3l-0.1-0.3l-0.3-0.9l-0.1,0c-0.4-0.1-0.7-0.2-1-0.4L126.5,45.8L126.5,45.8
		L126.5,45.8L126.5,45.8z M126.2,46.2c0,0,0.3-0.1,0.4-0.1c0.3,0.2,0.6,0.3,0.9,0.4c0,0.1,0.1,0.2,0.2,0.4c-0.4-0.2-1.2-0.5-1.7-0.7
		C126,46.3,126.2,46.2,126.2,46.2L126.2,46.2z"/>
	<path class="st5" d="M123.7,32.8c1.6,1.5,2.4,3,2.4,4.4c0,0.3,0,0.7-0.1,1c-0.5,1.5-2.1,2.6-4.6,3c0.3,0.9,0.7,1.4,1.2,1.6
		c0.6,0.2,1.4,0.1,2.4-0.3c0.2-1.8,1.8-3.2,3.7-3.2c2.1,0,3.8,1.7,3.8,3.7c0,1-0.5,2-1.2,2.7c0.1,0.2,0.2,0.4,0.2,0.4
		c0.5,1.1,0.6,1.2,2.3,1.2c-0.7-1-1.1-2.1-1.1-3c0-1.4,0.7-2.6,2.1-3.8c0-0.1,0-0.1,0-0.1c-0.2-2.6-0.7-4.8-1.4-6.7
		c-2.6-1.6-5-2.5-7.8-3.3C125.5,31.3,124.8,32.3,123.7,32.8L123.7,32.8z"/>
	<path class="st1" d="M125.5,30.2c-0.1,1.1-0.7,2-1.8,2.5l-0.2,0.1l0.2,0.2c1.5,1.5,2.4,3,2.4,4.3c0,0.3,0,0.6-0.1,0.9
		c-0.5,1.5-2.1,2.5-4.4,2.9l-0.2,0l0.1,0.2c0.3,0.9,0.7,1.5,1.3,1.7c0.6,0.3,1.4,0.2,2.5-0.3l0.1,0l0-0.1c0.2-1.8,1.8-3.1,3.6-3.1
		c2,0,3.6,1.6,3.6,3.6c0,1-0.4,1.9-1.2,2.6l-0.1,0.1l0.3,0.5c0.6,1.1,0.7,1.2,2.4,1.3l0.3,0l-0.2-0.2c-0.7-1-1.1-2-1.1-2.9
		c0-1.3,0.7-2.6,2-3.7l0,0l0-0.2c-0.3-2.7-0.7-4.9-1.4-6.8l0-0.1l0,0c-2.5-1.5-4.8-2.5-7.8-3.3l-0.2-0.1L125.5,30.2L125.5,30.2
		L125.5,30.2z M125.7,30.4c2.9,0.8,5.1,1.8,7.5,3.2c0.7,1.9,1.1,4,1.4,6.7c0,0,0,0,0,0.1c-1.4,1.2-2.1,2.5-2.1,3.9
		c0,0.9,0.3,1.9,1,2.9c-1.3,0-1.4-0.2-1.9-1.1c0,0-0.1-0.2-0.2-0.3c0.8-0.8,1.2-1.7,1.2-2.8c0-2.1-1.8-3.9-3.9-3.9
		c-1.9,0-3.5,1.4-3.8,3.3c-1,0.4-1.7,0.5-2.2,0.3c-0.4-0.2-0.7-0.6-1-1.4c2.4-0.4,4-1.5,4.5-3.1c0.1-0.3,0.2-0.7,0.2-1
		c0-1.4-0.8-2.9-2.3-4.4C125,32.3,125.6,31.4,125.7,30.4L125.7,30.4z"/>
	<path class="st5" d="M100.4,25c0,0.2,0.1,0.4,0.1,0.6c0,0,0,0,0,0.1c0,1-0.4,1.8-1.1,2.4c0.8,0.3,1.1,0.9,1.2,1.9
		c1.4,0.7,2.3,2.1,2.3,3.8c0,0.1,0,0.2,0,0.3c-0.1,1.9-1.2,3.5-2.9,4.2c1.1,0.8,2.2,0.6,3.7-0.1c-0.1-0.6-0.2-1.1-0.2-1.5
		c0-1.9,1-2.8,1.7-3.1c1.5-0.8,3.7-0.4,5,0.9c0.6,0.6,0.9,1.3,0.9,2.1c0,0.6-0.2,1.3-0.6,2c0,1,0.9,1.4,1.2,1.5
		c0.8,0.3,1.9,0.2,2.6-0.4c-0.8-1.4-1.2-2.6-1.2-3.7c0-0.5,0.1-0.9,0.2-1.3c0.6-1.9,2.6-2.8,3.6-3.2c0-0.5,0.1-1,0.1-1.4
		c0-1-0.1-2-0.3-2.8C111.3,24.5,107.5,23,100.4,25L100.4,25z"/>
	<path class="st1" d="M100.3,24.9l-0.1,0l0.1,0.7v0.1c0,0.9-0.4,1.7-1.1,2.3L99,28.1l0.2,0.1c0.7,0.3,1,0.8,1.1,1.7l0,0.1l0.1,0
		c1.4,0.7,2.2,2,2.2,3.6l0,0.3c-0.1,1.8-1.2,3.4-2.8,4.1l-0.2,0.1l0.2,0.2c1.2,0.9,2.4,0.6,3.9-0.1l0.1-0.1l0-0.1
		c-0.1-0.6-0.2-1.1-0.2-1.5c0-1.8,0.9-2.6,1.6-3c1.5-0.8,3.6-0.4,4.8,0.8c0.5,0.6,0.8,1.3,0.8,2c0,0.6-0.2,1.3-0.6,1.9l0,0v0
		c0,1.1,0.9,1.5,1.3,1.7c0.8,0.3,2,0.3,2.7-0.4l0.1-0.1l-0.1-0.1c-0.8-1.4-1.2-2.6-1.2-3.7c0-0.4,0.1-0.9,0.2-1.2
		c0.6-1.9,2.6-2.8,3.5-3.1l0.1,0l0.1-1.5c0-1-0.1-2-0.3-2.9l0-0.1l-0.1,0C111.1,24.3,107.4,22.9,100.3,24.9L100.3,24.9L100.3,24.9z
		 M116.3,27.2c0.2,0.9,0.3,1.8,0.3,2.7c0,0-0.1,1.2-0.1,1.3c-0.9,0.4-2.9,1.3-3.6,3.3c-0.1,0.4-0.2,0.9-0.2,1.3
		c0,1.1,0.4,2.3,1.2,3.7c-0.7,0.5-1.6,0.5-2.3,0.3c-0.3-0.1-1.1-0.5-1.1-1.4c0.4-0.7,0.6-1.4,0.6-2c0-0.8-0.3-1.6-0.9-2.2
		c-1.3-1.4-3.6-1.8-5.2-0.9c-0.6,0.4-1.7,1.3-1.7,3.3c0,0.4,0.1,0.9,0.2,1.4c-1.3,0.6-2.3,0.9-3.2,0.2c1.6-0.8,2.6-2.4,2.7-4.2
		l0-0.3c0-1.7-0.8-3.1-2.3-3.9c-0.1-0.9-0.4-1.5-1-1.8c0.7-0.6,1-1.4,1-2.3c0,0,0-0.1,0-0.1s0-0.3,0-0.4
		C107.4,23.2,111.1,24.6,116.3,27.2L116.3,27.2z"/>
	<path class="st5" d="M117.7,41.1c-0.9,0.9-1.6,1.4-2.5,1.9c1,0.2,2.2,0.5,3.4,0.9c-0.4-0.9-0.7-1.8-0.8-2.8
		C117.8,41.2,117.8,41.2,117.7,41.1L117.7,41.1z"/>
	<path class="st1" d="M117.6,41c-1,0.9-1.6,1.4-2.5,1.9l-0.3,0.2l0.4,0.1c1,0.2,2.1,0.5,3.4,0.9l0.3,0.1l-0.1-0.3
		c-0.3-0.8-0.6-1.7-0.8-2.8l0-0.1L117.6,41L117.6,41L117.6,41L117.6,41z M117.7,41.4c0.1,0.9,0.4,1.7,0.7,2.4
		c-1-0.3-1.9-0.5-2.8-0.7C116.3,42.6,116.9,42.1,117.7,41.4L117.7,41.4z"/>
	<path class="st5" d="M96.5,39.4C96.4,39.4,96.4,39.4,96.5,39.4c-0.4,0.5-0.7,0.9-1.1,1.3c0.1,0,0.2,0,0.2,0l1.7,0c0,0,0.1,0,0.2,0
		c0,0,0,0,0,0C97.1,40.3,96.8,39.9,96.5,39.4L96.5,39.4z"/>
	<path class="st1" d="M96.3,39.3c-0.3,0.5-0.6,0.9-1,1.3L95,40.9l0.6,0l1.7,0l0.6,0l-0.3-0.3c-0.4-0.4-0.7-0.8-1-1.3l-0.1-0.2
		L96.3,39.3L96.3,39.3L96.3,39.3z M96.4,39.6c0.2,0.4,0.5,0.7,0.7,1c-0.2,0-1.3,0-1.5,0C96,40.3,96.2,40,96.4,39.6L96.4,39.6z"/>
	<path class="st4" d="M70.3,24.2c0,1,0.8,1.9,1.9,1.9c1,0,1.9-0.8,1.9-1.9c0-1-0.8-1.9-1.9-1.9C71.1,22.3,70.3,23.1,70.3,24.2
		L70.3,24.2z"/>
	<path class="st1" d="M70.1,24.2c0,1.1,0.9,2,2,2c1.1,0,2-0.9,2-2c0-1.1-0.9-2-2-2C71,22.1,70.1,23.1,70.1,24.2L70.1,24.2L70.1,24.2
		z M70.4,24.2c0-0.9,0.8-1.7,1.7-1.7c1,0,1.7,0.8,1.7,1.7c0,1-0.8,1.7-1.7,1.7C71.2,25.9,70.4,25.1,70.4,24.2L70.4,24.2z"/>
	<path class="st4" d="M96.5,27.8c1.1,0,2.1-0.9,2.1-2.1c0-1.1-0.9-2.1-2.1-2.1c-1.1,0-2,0.9-2,2.1C94.5,26.9,95.4,27.8,96.5,27.8
		L96.5,27.8z"/>
	<path class="st1" d="M94.3,25.8c0,1.2,1,2.2,2.2,2.2c1.2,0,2.2-1,2.2-2.2c0-1.2-1-2.2-2.2-2.2C95.3,23.6,94.3,24.6,94.3,25.8
		L94.3,25.8L94.3,25.8z M94.6,25.8c0-1,0.9-1.9,1.9-1.9c1.1,0,1.9,0.9,1.9,1.9c0,1.1-0.9,1.9-1.9,1.9C95.5,27.7,94.6,26.8,94.6,25.8
		L94.6,25.8z"/>
	<path class="st4" d="M96.5,22.2c1.1,0,1.9-0.8,1.9-1.9c0-1.1-0.8-1.9-1.9-1.9c-1,0-1.9,0.8-1.9,1.9C94.6,21.3,95.5,22.2,96.5,22.2
		L96.5,22.2z"/>
	<path class="st1" d="M94.5,20.3c0,1.1,0.9,2,2,2c1.1,0,2-0.9,2-2c0-1.1-0.9-2-2-2C95.4,18.3,94.5,19.2,94.5,20.3L94.5,20.3
		L94.5,20.3z M94.8,20.3c0-1,0.8-1.7,1.7-1.7c1,0,1.7,0.8,1.7,1.7c0,1-0.8,1.7-1.7,1.7C95.5,22,94.8,21.3,94.8,20.3L94.8,20.3z"/>
	<path class="st4" d="M77.8,14.3c-1,0-1.9,0.9-1.9,1.9c0,1,0.8,1.9,1.9,1.9c1,0,1.9-0.8,1.9-1.9C79.6,15.2,78.8,14.3,77.8,14.3
		L77.8,14.3z"/>
	<path class="st1" d="M75.7,16.2c0,1.1,0.9,2,2,2c1.1,0,2-0.9,2-2c0-1.1-0.9-2-2-2C76.7,14.2,75.7,15.1,75.7,16.2L75.7,16.2
		L75.7,16.2z M76,16.2c0-0.9,0.8-1.7,1.7-1.7c0.9,0,1.7,0.8,1.7,1.7c0,0.9-0.8,1.7-1.7,1.7C76.8,17.9,76,17.1,76,16.2L76,16.2z"/>
	<path class="st4" d="M73.2,29.7c0-1.1-0.8-1.9-1.9-1.9c-1.1,0-1.9,0.8-1.9,1.9c0,1,0.8,1.9,1.9,1.9C72.4,31.6,73.2,30.7,73.2,29.7
		L73.2,29.7z"/>
	<path class="st1" d="M69.3,29.7c0,1.1,0.9,2,2,2c1.1,0,2-0.9,2-2c0-1.1-0.9-2-2-2C70.2,27.6,69.3,28.5,69.3,29.7L69.3,29.7
		L69.3,29.7z M69.6,29.7c0-1,0.8-1.7,1.7-1.7c1,0,1.7,0.8,1.7,1.7c0,1-0.8,1.7-1.7,1.7C70.3,31.4,69.6,30.7,69.6,29.7L69.6,29.7z"/>
	<path class="st4" d="M74.3,22.1c1,0,1.9-0.8,1.9-1.9c0-1-0.8-1.9-1.9-1.9c-1,0-1.9,0.8-1.9,1.9C72.5,21.2,73.3,22.1,74.3,22.1
		L74.3,22.1z"/>
	<path class="st1" d="M72.3,20.2c0,1.1,0.9,2,2,2c1.1,0,2-0.9,2-2c0-1.1-0.9-2-2-2C73.2,18.2,72.3,19.1,72.3,20.2L72.3,20.2
		L72.3,20.2z M72.6,20.2c0-0.9,0.8-1.7,1.7-1.7c1,0,1.7,0.8,1.7,1.7c0,1-0.8,1.7-1.7,1.7C73.4,21.9,72.6,21.1,72.6,20.2L72.6,20.2z"
		/>
	<path class="st4" d="M136.1,32.8c0,1.1,0.9,2.1,2.1,2.1c1.1,0,2.1-0.9,2.1-2.1c0-1.1-0.9-2.1-2.1-2.1
		C137,30.7,136.1,31.7,136.1,32.8L136.1,32.8z"/>
	<path class="st1" d="M135.9,32.8c0,1.2,1,2.2,2.2,2.2c1.2,0,2.2-1,2.2-2.2c0-1.2-1-2.2-2.2-2.2C136.9,30.6,135.9,31.6,135.9,32.8
		L135.9,32.8L135.9,32.8z M136.2,32.8c0-1.1,0.9-1.9,1.9-1.9c1.1,0,1.9,0.9,1.9,1.9c0,1.1-0.9,1.9-1.9,1.9
		C137.1,34.7,136.2,33.8,136.2,32.8L136.2,32.8z"/>
	<path class="st4" d="M138,27.9c0-1.1-0.9-2.1-2.1-2.1c-1.1,0-2.1,0.9-2.1,2.1c0,1.1,0.9,2,2.1,2C137.1,30,138,29.1,138,27.9
		L138,27.9z"/>
	<path class="st1" d="M133.8,27.9c0,1.2,1,2.2,2.2,2.2c1.2,0,2.2-1,2.2-2.2c0-1.2-1-2.2-2.2-2.2C134.8,25.7,133.8,26.7,133.8,27.9
		L133.8,27.9L133.8,27.9z M134.1,27.9c0-1.1,0.9-1.9,1.9-1.9c1.1,0,1.9,0.9,1.9,1.9c0,1-0.9,1.9-1.9,1.9
		C134.9,29.8,134.1,29,134.1,27.9L134.1,27.9z"/>
	<path class="st4" d="M127.9,19.5c-1,0-1.9,0.9-1.9,1.9c0,1,0.8,1.9,1.9,1.9c1,0,1.9-0.8,1.9-1.9C129.8,20.3,129,19.5,127.9,19.5
		L127.9,19.5z"/>
	<path class="st1" d="M125.9,21.4c0,1.1,0.9,2,2,2c1.1,0,2-0.9,2-2c0-1.1-0.9-2-2-2C126.8,19.3,125.9,20.3,125.9,21.4L125.9,21.4
		L125.9,21.4z M126.2,21.4c0-0.9,0.8-1.7,1.7-1.7c0.9,0,1.7,0.8,1.7,1.7c0,0.9-0.8,1.7-1.7,1.7C127,23.1,126.2,22.3,126.2,21.4
		L126.2,21.4z"/>
	<path class="st4" d="M123.4,17.6c-1,0-1.9,0.8-1.9,1.9c0,1,0.9,1.9,1.9,1.9c1,0,1.9-0.9,1.9-1.9C125.3,18.4,124.4,17.6,123.4,17.6
		L123.4,17.6z"/>
	<path class="st1" d="M121.3,19.5c0,1.1,0.9,2,2,2c1.1,0,2-0.9,2-2c0-1.1-0.9-2-2-2C122.3,17.5,121.3,18.4,121.3,19.5L121.3,19.5
		L121.3,19.5z M121.6,19.5c0-0.9,0.8-1.7,1.7-1.7c1,0,1.7,0.8,1.7,1.7c0,0.9-0.8,1.7-1.7,1.7C122.4,21.2,121.6,20.4,121.6,19.5
		L121.6,19.5z"/>
	<path class="st4" d="M134.6,24.1c0-1.1-0.9-2.1-2.1-2.1c-1.1,0-2,0.9-2,2.1c0,1.1,0.9,2.1,2,2.1C133.7,26.2,134.6,25.3,134.6,24.1
		L134.6,24.1z"/>
	<path class="st1" d="M130.4,24.1c0,1.2,1,2.2,2.2,2.2c1.2,0,2.2-1,2.2-2.2c0-1.2-1-2.2-2.2-2.2C131.3,21.9,130.4,22.9,130.4,24.1
		L130.4,24.1L130.4,24.1z M130.7,24.1c0-1.1,0.8-1.9,1.9-1.9c1.1,0,1.9,0.9,1.9,1.9c0,1.1-0.9,1.9-1.9,1.9
		C131.5,26,130.7,25.2,130.7,24.1L130.7,24.1z"/>
	<path class="st4" d="M119,24.1c0,1,0.8,1.9,1.9,1.9c1,0,1.9-0.8,1.9-1.9c0-1-0.8-1.9-1.9-1.9C119.8,22.3,119,23.1,119,24.1
		L119,24.1z"/>
	<path class="st1" d="M118.8,24.1c0,1.1,0.9,2,2,2c1.1,0,2-0.9,2-2c0-1.1-0.9-2-2-2C119.7,22.1,118.8,23,118.8,24.1L118.8,24.1
		L118.8,24.1z M119.1,24.1c0-1,0.8-1.7,1.7-1.7c0.9,0,1.7,0.8,1.7,1.7c0,1-0.8,1.7-1.7,1.7C119.9,25.9,119.1,25.1,119.1,24.1
		L119.1,24.1z"/>
	<path class="st4" d="M137.3,38.1c0,1.1,0.9,2.1,2.1,2.1c1.1,0,2.1-0.9,2.1-2.1c0-1.1-0.9-2.1-2.1-2.1
		C138.2,36,137.3,36.9,137.3,38.1L137.3,38.1z"/>
	<path class="st1" d="M137.1,38.1c0,1.2,1,2.2,2.2,2.2c1.2,0,2.2-1,2.2-2.2c0-1.2-1-2.2-2.2-2.2C138.1,35.9,137.1,36.9,137.1,38.1
		L137.1,38.1L137.1,38.1z M137.4,38.1c0-1.1,0.9-1.9,1.9-1.9c1.1,0,1.9,0.9,1.9,1.9c0,1.1-0.9,1.9-1.9,1.9
		C138.3,40,137.4,39.1,137.4,38.1L137.4,38.1z"/>
	<path class="st4" d="M116.9,16.2c0-1-0.9-1.9-1.9-1.9c-1,0-1.9,0.8-1.9,1.9c0,1,0.8,1.9,1.9,1.9C116.1,18,116.9,17.2,116.9,16.2
		L116.9,16.2z"/>
	<path class="st1" d="M113,16.2c0,1.1,0.9,2,2,2c1.1,0,2-0.9,2-2c0-1.1-0.9-2-2-2C113.9,14.1,113,15,113,16.2L113,16.2L113,16.2z
		 M113.3,16.2c0-1,0.8-1.7,1.7-1.7c0.9,0,1.7,0.8,1.7,1.7c0,0.9-0.8,1.7-1.7,1.7C114.1,17.9,113.3,17.1,113.3,16.2L113.3,16.2z"/>
	<path class="st4" d="M121.4,27.8c-1.1,0-1.9,0.8-1.9,1.9c0,1,0.8,1.9,1.9,1.9c1,0,1.9-0.8,1.9-1.9
		C123.3,28.6,122.5,27.8,121.4,27.8L121.4,27.8z"/>
	<path class="st1" d="M119.4,29.7c0,1.1,0.9,2,2,2c1.1,0,2-0.9,2-2c0-1.1-0.9-2-2-2C120.3,27.6,119.4,28.5,119.4,29.7L119.4,29.7
		L119.4,29.7z M119.7,29.7c0-1,0.8-1.7,1.7-1.7c1,0,1.7,0.8,1.7,1.7c0,1-0.8,1.7-1.7,1.7C120.4,31.4,119.7,30.6,119.7,29.7
		L119.7,29.7z"/>
	<path class="st4" d="M118.5,21.9c1,0,1.9-0.8,1.9-1.9c0-1-0.8-1.9-1.9-1.9c-1.1,0-1.9,0.8-1.9,1.9
		C116.6,21.1,117.4,21.9,118.5,21.9L118.5,21.9z"/>
	<path class="st1" d="M116.4,20c0,1.1,0.9,2,2,2c1.1,0,2-0.9,2-2c0-1.1-0.9-2-2-2C117.3,18,116.4,18.9,116.4,20L116.4,20L116.4,20z
		 M116.7,20c0-1,0.8-1.7,1.7-1.7c1,0,1.7,0.8,1.7,1.7c0,0.9-0.8,1.7-1.7,1.7C117.5,21.7,116.7,21,116.7,20L116.7,20z"/>
	<path class="st0" d="M72.1,25.5c0.7,0,1.3-0.6,1.3-1.3c0-0.7-0.6-1.3-1.3-1.3c-0.7,0-1.3,0.6-1.3,1.3
		C70.9,24.9,71.4,25.5,72.1,25.5L72.1,25.5z"/>
	<path class="st1" d="M70.7,24.2c0,0.8,0.6,1.5,1.4,1.5c0.8,0,1.5-0.7,1.5-1.5c0-0.8-0.6-1.4-1.5-1.4C71.3,22.7,70.7,23.4,70.7,24.2
		L70.7,24.2L70.7,24.2z M71,24.2c0-0.6,0.5-1.1,1.1-1.1c0.6,0,1.2,0.5,1.2,1.1c0,0.6-0.5,1.2-1.2,1.2C71.5,25.3,71,24.8,71,24.2
		L71,24.2z"/>
	<path class="st0" d="M96.5,27.2c0.8,0,1.5-0.6,1.5-1.5c0-0.8-0.7-1.5-1.5-1.5c-0.8,0-1.4,0.7-1.4,1.5C95,26.6,95.7,27.2,96.5,27.2
		L96.5,27.2z"/>
	<path class="st1" d="M94.9,25.8c0,0.9,0.7,1.6,1.6,1.6c0.9,0,1.6-0.7,1.6-1.6c0-0.9-0.7-1.6-1.6-1.6C95.6,24.1,94.9,24.9,94.9,25.8
		L94.9,25.8L94.9,25.8z M95.2,25.8c0-0.7,0.6-1.3,1.3-1.3c0.7,0,1.3,0.6,1.3,1.3c0,0.7-0.6,1.3-1.3,1.3
		C95.8,27.1,95.2,26.5,95.2,25.8L95.2,25.8z"/>
	<path class="st0" d="M96.5,21.6c0.7,0,1.3-0.6,1.3-1.3c0-0.7-0.6-1.3-1.3-1.3c-0.7,0-1.3,0.6-1.3,1.3C95.2,21,95.8,21.6,96.5,21.6
		L96.5,21.6z"/>
	<path class="st1" d="M95.1,20.3c0,0.8,0.6,1.4,1.4,1.4c0.8,0,1.5-0.6,1.5-1.4c0-0.8-0.6-1.5-1.5-1.5C95.7,18.9,95.1,19.5,95.1,20.3
		L95.1,20.3L95.1,20.3z M95.4,20.3c0-0.6,0.5-1.2,1.1-1.2c0.6,0,1.2,0.5,1.2,1.2c0,0.6-0.5,1.1-1.2,1.1
		C95.9,21.4,95.4,20.9,95.4,20.3L95.4,20.3z"/>
	<path class="st1" d="M76.3,16.2c0,0.8,0.7,1.4,1.5,1.4c0.8,0,1.4-0.6,1.4-1.4c0-0.8-0.6-1.5-1.4-1.5C77,14.7,76.3,15.4,76.3,16.2
		L76.3,16.2L76.3,16.2z M76.6,16.2c0-0.6,0.5-1.2,1.2-1.2c0.6,0,1.1,0.5,1.1,1.2c0,0.6-0.5,1.1-1.1,1.1
		C77.1,17.3,76.6,16.8,76.6,16.2L76.6,16.2z"/>
	<path class="st0" d="M72.6,29.7c0-0.7-0.6-1.3-1.3-1.3c-0.7,0-1.3,0.6-1.3,1.3c0,0.7,0.6,1.3,1.3,1.3C72.1,31,72.6,30.4,72.6,29.7
		L72.6,29.7z"/>
	<path class="st1" d="M69.9,29.7c0,0.8,0.6,1.4,1.5,1.4c0.8,0,1.5-0.6,1.5-1.4c0-0.8-0.6-1.5-1.5-1.5C70.5,28.2,69.9,28.9,69.9,29.7
		L69.9,29.7L69.9,29.7z M70.2,29.7c0-0.6,0.5-1.2,1.2-1.2c0.6,0,1.2,0.5,1.2,1.2c0,0.6-0.5,1.1-1.2,1.1
		C70.7,30.8,70.2,30.3,70.2,29.7L70.2,29.7z"/>
	<path class="st0" d="M74.3,21.5c0.7,0,1.3-0.6,1.3-1.3c0-0.7-0.6-1.3-1.3-1.3c-0.7,0-1.3,0.6-1.3,1.3C73,20.9,73.6,21.5,74.3,21.5
		L74.3,21.5z"/>
	<path class="st1" d="M72.9,20.2c0,0.8,0.6,1.5,1.4,1.5c0.8,0,1.5-0.7,1.5-1.5c0-0.8-0.6-1.4-1.5-1.4C73.5,18.8,72.9,19.4,72.9,20.2
		L72.9,20.2L72.9,20.2z M73.2,20.2c0-0.6,0.5-1.1,1.1-1.1c0.6,0,1.2,0.5,1.2,1.1c0,0.6-0.5,1.2-1.2,1.2
		C73.7,21.3,73.2,20.8,73.2,20.2L73.2,20.2z"/>
	<path class="st0" d="M138.1,34.3c0.8,0,1.5-0.7,1.5-1.5c0-0.8-0.6-1.5-1.5-1.5c-0.8,0-1.5,0.7-1.5,1.5
		C136.6,33.6,137.3,34.3,138.1,34.3L138.1,34.3z"/>
	<path class="st1" d="M136.5,32.8c0,0.9,0.8,1.6,1.6,1.6c0.9,0,1.6-0.7,1.6-1.6c0-0.9-0.7-1.6-1.6-1.6
		C137.2,31.2,136.5,31.9,136.5,32.8L136.5,32.8L136.5,32.8z M136.8,32.8c0-0.7,0.6-1.3,1.3-1.3c0.7,0,1.3,0.6,1.3,1.3
		c0,0.7-0.6,1.3-1.3,1.3C137.4,34.1,136.8,33.5,136.8,32.8L136.8,32.8z"/>
	<path class="st0" d="M137.5,27.9c0-0.8-0.6-1.5-1.5-1.5c-0.8,0-1.5,0.6-1.5,1.5c0,0.8,0.7,1.4,1.5,1.4
		C136.8,29.4,137.5,28.7,137.5,27.9L137.5,27.9z"/>
	<path class="st1" d="M134.4,27.9c0,0.9,0.7,1.6,1.6,1.6c0.9,0,1.6-0.7,1.6-1.6c0-0.9-0.7-1.6-1.6-1.6
		C135.1,26.3,134.4,27,134.4,27.9L134.4,27.9L134.4,27.9z M134.7,27.9c0-0.7,0.6-1.3,1.3-1.3c0.7,0,1.3,0.6,1.3,1.3
		c0,0.7-0.6,1.3-1.3,1.3C135.3,29.2,134.7,28.7,134.7,27.9L134.7,27.9z"/>
	<path class="st0" d="M127.9,20.1c-0.7,0-1.3,0.6-1.3,1.3c0,0.7,0.6,1.3,1.3,1.3c0.7,0,1.3-0.6,1.3-1.3
		C129.2,20.7,128.6,20.1,127.9,20.1L127.9,20.1z"/>
	<path class="st1" d="M126.5,21.4c0,0.8,0.7,1.4,1.5,1.4c0.8,0,1.4-0.6,1.4-1.4c0-0.8-0.6-1.5-1.4-1.5
		C127.1,19.9,126.5,20.6,126.5,21.4L126.5,21.4L126.5,21.4z M126.8,21.4c0-0.6,0.5-1.2,1.2-1.2c0.6,0,1.1,0.5,1.1,1.2
		c0,0.6-0.5,1.1-1.1,1.1C127.3,22.5,126.8,22,126.8,21.4L126.8,21.4z"/>
	<path class="st0" d="M123.4,18.2c-0.7,0-1.3,0.6-1.3,1.3c0,0.7,0.6,1.3,1.3,1.3c0.7,0,1.3-0.6,1.3-1.3
		C124.7,18.8,124.1,18.2,123.4,18.2L123.4,18.2z"/>
	<path class="st1" d="M121.9,19.5c0,0.8,0.7,1.5,1.5,1.5c0.8,0,1.5-0.7,1.5-1.5c0-0.8-0.7-1.4-1.5-1.4S121.9,18.7,121.9,19.5
		L121.9,19.5L121.9,19.5z M122.2,19.5c0-0.6,0.5-1.1,1.2-1.1c0.6,0,1.2,0.5,1.2,1.1c0,0.6-0.5,1.2-1.2,1.2
		C122.8,20.6,122.2,20.1,122.2,19.5L122.2,19.5z"/>
	<path class="st0" d="M132.6,22.7c-0.8,0-1.4,0.6-1.4,1.5c0,0.8,0.6,1.5,1.4,1.5c0.8,0,1.5-0.7,1.5-1.5
		C134,23.3,133.4,22.7,132.6,22.7L132.6,22.7z"/>
	<path class="st1" d="M131,24.1c0,0.9,0.7,1.6,1.6,1.6c0.9,0,1.6-0.7,1.6-1.6c0-0.9-0.7-1.6-1.6-1.6C131.7,22.5,131,23.2,131,24.1
		L131,24.1L131,24.1z M131.3,24.1c0-0.7,0.6-1.3,1.3-1.3c0.7,0,1.3,0.6,1.3,1.3c0,0.7-0.6,1.3-1.3,1.3
		C131.8,25.5,131.3,24.9,131.3,24.1L131.3,24.1z"/>
	<path class="st0" d="M120.9,25.4c0.7,0,1.3-0.6,1.3-1.3c0-0.7-0.6-1.3-1.3-1.3c-0.7,0-1.3,0.6-1.3,1.3
		C119.6,24.9,120.1,25.4,120.9,25.4L120.9,25.4z"/>
	<path class="st1" d="M119.4,24.1c0,0.8,0.7,1.5,1.5,1.5c0.8,0,1.4-0.7,1.4-1.5c0-0.8-0.6-1.4-1.4-1.4
		C120,22.7,119.4,23.3,119.4,24.1L119.4,24.1L119.4,24.1z M119.7,24.1c0-0.6,0.5-1.1,1.2-1.1c0.6,0,1.1,0.5,1.1,1.1
		c0,0.6-0.5,1.2-1.1,1.2C120.2,25.3,119.7,24.8,119.7,24.1L119.7,24.1z"/>
	<path class="st0" d="M137.9,38.1c0,0.8,0.7,1.5,1.5,1.5c0.8,0,1.5-0.7,1.5-1.5c0-0.8-0.6-1.5-1.5-1.5
		C138.5,36.6,137.9,37.3,137.9,38.1L137.9,38.1z"/>
	<path class="st1" d="M137.7,38.1c0,0.9,0.8,1.6,1.6,1.6c0.9,0,1.6-0.7,1.6-1.6c0-0.9-0.7-1.6-1.6-1.6
		C138.5,36.5,137.7,37.2,137.7,38.1L137.7,38.1L137.7,38.1z M138,38.1c0-0.7,0.6-1.3,1.3-1.3c0.7,0,1.3,0.6,1.3,1.3
		c0,0.7-0.6,1.3-1.3,1.3C138.6,39.4,138,38.8,138,38.1L138,38.1z"/>
	<path class="st1" d="M113.6,16.2c0,0.8,0.6,1.4,1.4,1.4c0.8,0,1.5-0.6,1.5-1.4c0-0.8-0.7-1.5-1.5-1.5
		C114.2,14.7,113.6,15.4,113.6,16.2L113.6,16.2L113.6,16.2z M113.9,16.2c0-0.6,0.5-1.2,1.1-1.2c0.6,0,1.2,0.5,1.2,1.2
		c0,0.6-0.5,1.1-1.2,1.1C114.4,17.3,113.9,16.8,113.9,16.2L113.9,16.2z"/>
	<path class="st0" d="M121.4,28.4c-0.7,0-1.3,0.6-1.3,1.3c0,0.7,0.6,1.3,1.3,1.3c0.7,0,1.3-0.6,1.3-1.3
		C122.7,28.9,122.1,28.4,121.4,28.4L121.4,28.4z"/>
	<path class="st1" d="M119.9,29.7c0,0.8,0.7,1.5,1.5,1.5c0.8,0,1.5-0.7,1.5-1.5c0-0.8-0.6-1.4-1.5-1.4
		C120.6,28.2,119.9,28.9,119.9,29.7L119.9,29.7L119.9,29.7z M120.2,29.7c0-0.6,0.5-1.1,1.2-1.1c0.6,0,1.2,0.5,1.2,1.1
		c0,0.6-0.5,1.2-1.2,1.2C120.8,30.8,120.2,30.3,120.2,29.7L120.2,29.7z"/>
	<path class="st0" d="M118.5,21.3c0.7,0,1.3-0.6,1.3-1.3c0-0.7-0.6-1.3-1.3-1.3c-0.7,0-1.3,0.6-1.3,1.3
		C117.2,20.7,117.7,21.3,118.5,21.3L118.5,21.3z"/>
	<path class="st1" d="M117,20c0,0.8,0.6,1.4,1.5,1.4c0.8,0,1.5-0.6,1.5-1.4c0-0.8-0.7-1.5-1.5-1.5C117.7,18.6,117,19.2,117,20
		L117,20L117,20z M117.3,20c0-0.6,0.5-1.2,1.2-1.2c0.6,0,1.2,0.5,1.2,1.2c0,0.6-0.5,1.1-1.2,1.1C117.8,21.1,117.3,20.6,117.3,20
		L117.3,20z"/>
	<path class="st0" d="M96.6,30.9c-1.3,0-2.4,1.1-2.4,2.3c0,1.3,1.1,2.3,2.4,2.3c1.3,0,2.3-1.1,2.3-2.3C99,31.9,97.9,30.9,96.6,30.9
		L96.6,30.9z"/>
	<path class="st1" d="M96.6,30.1c-1.7,0-3.2,1.4-3.2,3.1c0,1.7,1.4,3.1,3.2,3.1c1.7,0,3.1-1.4,3.1-3.1
		C99.7,31.5,98.3,30.1,96.6,30.1L96.6,30.1L96.6,30.1z M96.6,35.4c-1.2,0-2.2-1-2.2-2.1c0-1.2,1-2.2,2.2-2.2c1.2,0,2.1,1,2.1,2.2
		C98.8,34.4,97.8,35.4,96.6,35.4L96.6,35.4z"/>
	<path class="st0" d="M119.1,33.7c-1.3,0-2.4,1.1-2.4,2.3c0,1.3,1.1,2.3,2.4,2.3c1.3,0,2.3-1.1,2.3-2.3
		C121.4,34.8,120.4,33.7,119.1,33.7L119.1,33.7z"/>
	<path class="st1" d="M119.1,32.9c-1.7,0-3.2,1.4-3.2,3.1c0,1.7,1.4,3.1,3.2,3.1c1.7,0,3.1-1.4,3.1-3.1
		C122.2,34.3,120.8,32.9,119.1,32.9L119.1,32.9L119.1,32.9z M119.1,38.2c-1.2,0-2.2-1-2.2-2.1c0-1.2,1-2.1,2.2-2.1
		c1.2,0,2.1,1,2.1,2.1C121.2,37.3,120.3,38.2,119.1,38.2L119.1,38.2z"/>
	<path class="st0" d="M138.9,42.3c-1.3,0-2.4,1.1-2.4,2.3c0,1.3,1.1,2.3,2.4,2.3c1.3,0,2.3-1.1,2.3-2.3
		C141.2,43.4,140.2,42.3,138.9,42.3L138.9,42.3z"/>
	<path class="st1" d="M138.9,41.5c-1.7,0-3.2,1.4-3.2,3.1c0,1.7,1.4,3.1,3.2,3.1c1.7,0,3.1-1.4,3.1-3.1
		C142,42.9,140.6,41.5,138.9,41.5L138.9,41.5L138.9,41.5z M138.9,46.8c-1.2,0-2.2-1-2.2-2.2c0-1.2,1-2.1,2.2-2.1
		c1.2,0,2.2,1,2.2,2.1C141,45.9,140.1,46.8,138.9,46.8L138.9,46.8z"/>
	<path class="st0" d="M73.9,33.8c-1.3,0-2.4,1.1-2.4,2.3c0,1.3,1.1,2.3,2.4,2.3c1.3,0,2.3-1.1,2.3-2.3
		C76.2,34.9,75.1,33.8,73.9,33.8L73.9,33.8z"/>
	<path class="st1" d="M73.9,33.1c-1.7,0-3.2,1.4-3.2,3.1c0,1.7,1.4,3.1,3.2,3.1c1.7,0,3.1-1.4,3.1-3.1C77,34.5,75.6,33.1,73.9,33.1
		L73.9,33.1L73.9,33.1z M73.9,38.3c-1.2,0-2.2-1-2.2-2.1c0-1.2,1-2.1,2.2-2.1c1.2,0,2.1,1,2.1,2.1C76,37.4,75,38.3,73.9,38.3
		L73.9,38.3z"/>
</g>
</svg>
