<?xml version="1.0" encoding="utf-8"?>
<!-- Generator: Adobe Illustrator 25.2.0, SVG Export Plug-In . SVG Version: 6.00 Build 0)  -->
<svg version="1.1" id="Layer_1" xmlns="http://www.w3.org/2000/svg" xmlns:xlink="http://www.w3.org/1999/xlink" x="0px" y="0px"
	 viewBox="0 0 192.8 192.8" style="enable-background:new 0 0 192.8 192.8;" xml:space="preserve">
<style type="text/css">
	.st0{fill-rule:evenodd;clip-rule:evenodd;fill:#1D1D1B;}
	.st1{fill-rule:evenodd;clip-rule:evenodd;fill:#312782;}
	.st2{fill-rule:evenodd;clip-rule:evenodd;fill:#FFCB00;}
	.st3{fill-rule:evenodd;clip-rule:evenodd;fill:#FFFFFF;}
	.st4{fill-rule:evenodd;clip-rule:evenodd;fill:#E32213;}
	.st5{fill-rule:evenodd;clip-rule:evenodd;fill:#868686;}
</style>
<g>
	<path class="st0" d="M96.4,192.8c38.2-39.6,58.2-87.6,60-144H36.3C38.2,105.2,58.2,153.2,96.4,192.8L96.4,192.8z"/>
	<path class="st1" d="M96.4,192.1c37.8-39.4,57.7-87,59.5-142.8H36.9C38.8,105.2,58.6,152.8,96.4,192.1L96.4,192.1z"/>
	<path class="st0" d="M151.9,53.2c-2.6,51.7-21.1,96.1-55.5,133.2C62,149.3,43.5,104.9,40.9,53.2H151.9L151.9,53.2z"/>
	<path class="st2" d="M96.4,185.7c34-36.8,52.3-80.8,55-132H41.5C44.1,104.9,62.5,148.9,96.4,185.7L96.4,185.7z"/>
	<path class="st0" d="M148.8,56.1c-3.1,48.6-20.6,90.6-52.4,126c-31.9-35.4-49.3-77.4-52.4-126H148.8L148.8,56.1z"/>
	<path class="st3" d="M96.4,181.4c31.5-35.1,48.8-76.7,51.9-124.8H44.5C47.7,104.7,65,146.3,96.4,181.4L96.4,181.4z"/>
	<path class="st0" d="M146.2,58.6c-3.4,46-20,86-49.8,119.8C66.6,144.5,50,104.6,46.6,58.6H146.2L146.2,58.6z"/>
	<path class="st4" d="M96.4,177.7c29.4-33.6,45.8-73.1,49.2-118.6H47.1C50.6,104.5,67,144.1,96.4,177.7L96.4,177.7z"/>
	<path class="st0" d="M130,19.3c0-0.7-0.2-1.3-0.8-1.8c-0.5-0.5-1.1-0.8-1.8-0.7c-0.2,0-0.4,0-0.5,0c0.1-0.3,0.1-0.5,0.2-0.8
		c0-0.7-0.3-1.3-0.8-1.8c-0.5-0.5-1.1-0.8-1.8-0.8c-0.6,0-1.2,0.2-1.7,0.6c-0.1-0.4-0.4-0.8-0.7-1.1c-0.5-0.5-1.1-0.7-1.8-0.7
		c-0.7,0-1.3,0.2-1.8,0.7c-0.1,0.2-0.2,0.3-0.3,0.4c-0.1-0.2-0.2-0.4-0.4-0.5c-0.5-0.5-1.1-0.8-1.8-0.7c-0.6,0-1.2,0.2-1.6,0.5
		c-0.1-0.1-0.2-0.3-0.3-0.4c-0.6-0.6-1.2-0.8-2-0.8c0-0.1,0-0.1,0-0.2c0-0.8-0.3-1.4-0.8-1.9c-0.6-0.5-1.2-0.8-2-0.8
		c-0.4,0-0.7,0-1,0.2c-0.1-0.5-0.4-0.9-0.7-1.3c-0.6-0.6-1.2-0.8-2-0.8c-0.6,0-1.2,0.2-1.6,0.6c-0.1-0.4-0.4-0.7-0.6-0.9
		c-0.5-0.5-1.1-0.8-1.8-0.8c0,0-0.1,0-0.1,0c-0.8,0-1.4,0.3-1.9,0.8c-0.2,0.2-0.3,0.4-0.4,0.5c-0.1-0.4-0.4-0.8-0.7-1.1
		C98.2,5.3,98,5.1,97.7,5V3.7H99V1.2h-1.3V0h-2.5v1.2h-1.3v2.5h1.3V5c-0.3,0.1-0.5,0.3-0.8,0.5c-0.3,0.3-0.5,0.7-0.6,1.1
		c-0.2-0.2-0.3-0.4-0.4-0.5c-0.5-0.5-1.2-0.8-1.9-0.8c-0.2,0-0.4,0-0.6,0c-0.1,0-0.2,0.1-0.4,0.1c-0.4,0.1-0.7,0.4-1,0.7
		c-0.3,0.3-0.5,0.6-0.6,0.9c-0.4-0.3-0.9-0.5-1.4-0.6c-0.1,0-0.2,0-0.2,0c-0.7,0-1.4,0.3-1.9,0.8c-0.1,0.1-0.2,0.2-0.3,0.3
		c-0.2,0.3-0.4,0.6-0.4,1c-0.2-0.1-0.4-0.1-0.6-0.1c-0.1,0-0.2,0-0.4,0c-0.8,0-1.4,0.3-1.9,0.8c-0.6,0.5-0.8,1.2-0.8,1.9
		c0,0.1,0,0.1,0,0.2c-0.8,0-1.4,0.3-2,0.8c-0.1,0.1-0.3,0.3-0.4,0.4c-0.5-0.4-1-0.6-1.6-0.5c-0.7,0-1.3,0.2-1.8,0.7
		c-0.1,0.1-0.2,0.2-0.3,0.4c0,0.1-0.1,0.1-0.1,0.2c-0.1-0.1-0.1-0.2-0.2-0.2c0-0.1-0.1-0.1-0.1-0.2c-0.5-0.5-1.1-0.7-1.8-0.7
		c-0.7,0-1.3,0.2-1.8,0.7c-0.3,0.4-0.6,0.7-0.7,1.1c-0.5-0.4-1-0.6-1.6-0.6c-0.7,0-1.3,0.2-1.8,0.8c-0.5,0.5-0.8,1.1-0.8,1.8
		c0,0.3,0.1,0.6,0.2,0.8c-0.2,0-0.3-0.1-0.5,0c-0.7,0-1.3,0.2-1.8,0.7c-0.5,0.5-0.7,1.1-0.7,1.8c0,0.3,0.1,0.5,0.1,0.8
		c-0.2,0.1-0.4,0.3-0.6,0.5c-0.5,0.5-0.7,1.1-0.7,1.8c0,0.7,0.2,1.3,0.7,1.8c0,0,0.1,0.1,0.1,0.1c-0.2,0.1-0.3,0.2-0.4,0.4
		c-0.5,0.5-0.8,1.1-0.8,1.8c0,0.7,0.2,1.3,0.8,1.8c0.4,0.4,0.9,0.6,1.4,0.7c-0.1,0.1-0.2,0.2-0.4,0.3c-1.2,0.8-1.7,1.6-1.5,2.2
		c0.1,0.6,0.9,1.2,2.3,1.5c0,0,0.1,0,0.1,0c0,0,0.1-0.1,0.1-0.1c0.5-0.7,1-1.1,1.3-1c0.2,0.1,0.5,0.5,0.6,1.2
		c-0.4,0.5-0.5,1-0.5,1.6c0,0.6,0.2,1.1,0.6,1.5c0.5,0.5,1,0.7,1.7,0.7c0.2,0,0.5,0,0.7-0.1l3.3,3.7c-0.1,0-0.1,0.1-0.2,0.1
		c-0.1,0-0.1,0.1-0.1,0.1c-0.3,0.5-0.3,1-0.2,1.4c0.2,0.4,0.5,0.6,1,0.8c0.1,0,0.1,0,0.2,0c0.3-0.1,0.5-0.2,0.7-0.4l0.2,0.6
		l-1.7,2.2c0,0,0,0.1,0,0.1c0,0.1,0,0.1,0,0.2c0.1,0,0.1,0.1,0.1,0.1l2.6,0.6l0.5,1.4c-0.2,0.1-0.5,0.2-0.7,0.3
		c-0.1,0-0.1,0.1-0.1,0.1c-0.2,0.3-0.3,0.5-0.3,0.8c-0.1,0.6,0.3,1.1,1,1.4c0,0,0.1,0,0.1,0c0,0,0.1,0,0.1,0
		c0.3-0.1,0.5-0.2,0.8-0.3c0.2,0,0.3,0.1,0.5,0.2c5.6,2.4,12.3,3.5,20.1,3.6c7.8-0.1,14.5-1.2,20.1-3.6c0.2-0.1,0.3-0.2,0.5-0.2
		c0.3,0.1,0.5,0.2,0.7,0.3c0,0,0.1,0,0.1,0c0,0,0.1,0,0.1,0c0.8-0.4,1.1-0.9,1-1.4c-0.1-0.2-0.1-0.5-0.2-0.8c0,0-0.1-0.1-0.1-0.1
		c-0.2-0.1-0.5-0.2-0.7-0.3l0.5-1.4l2.6-0.6c0.1,0,0.1-0.1,0.1-0.1c0-0.1,0-0.1,0.1-0.2c0-0.1,0-0.1-0.1-0.1l-1.7-2.2l0.2-0.6
		c0.3,0.1,0.5,0.2,0.8,0.4c0,0,0.1,0,0.2,0c0.5-0.2,0.8-0.5,1-0.8c0.1-0.4,0.1-0.8-0.2-1.4c0-0.1-0.1-0.1-0.1-0.1
		c-0.1,0-0.1-0.1-0.2-0.1l3.3-3.7c0.2,0.1,0.4,0.1,0.7,0.1c0.6,0,1.2-0.2,1.6-0.7c0.4-0.4,0.6-0.9,0.7-1.5c0-0.6-0.2-1.1-0.6-1.6
		c0.1-0.8,0.4-1.1,0.6-1.2c0.3,0,0.7,0.3,1.3,1c0,0,0.1,0.1,0.1,0.1c0,0,0.1,0,0.1,0c1.4-0.4,2.2-0.9,2.3-1.5
		c0.2-0.6-0.3-1.4-1.5-2.2c-0.1-0.1-0.3-0.2-0.4-0.3c0.5-0.1,1-0.3,1.4-0.7c0.5-0.5,0.8-1.1,0.8-1.8c0-0.7-0.2-1.3-0.8-1.8
		c-0.1-0.1-0.3-0.3-0.4-0.4c0,0,0.1-0.1,0.1-0.1c0.5-0.5,0.8-1.1,0.8-1.8c0-0.7-0.2-1.3-0.8-1.8c-0.2-0.2-0.4-0.4-0.6-0.5
		C130,19.9,130,19.6,130,19.3L130,19.3z M115.9,17.8c5.5,0.3,8.6,3.1,9.3,8.6c-2.5-3.9-5.7-5.7-9.6-5.4c-0.1-0.2-0.3-0.5-0.5-0.7
		c-0.1-0.1-0.2-0.2-0.3-0.2c0.1-0.1,0.2-0.1,0.2-0.2C115.6,19.3,115.9,18.6,115.9,17.8L115.9,17.8z M91.9,15.8
		c-3.2,0.4-5.8,1.7-7.8,3.7c0.9-4.2,3.7-6.6,8.4-7.2C92.1,13.4,91.9,14.6,91.9,15.8L91.9,15.8z M101,15.8c0-0.3,0-0.6,0-0.9
		c-0.1-0.7-0.2-1.4-0.4-2.1c-0.1-0.2-0.1-0.3-0.2-0.5c4.7,0.6,7.5,2.9,8.4,7.2C106.8,17.5,104.2,16.2,101,15.8L101,15.8z M77,17.8
		c0,0.8,0.2,1.4,0.8,2c0.1,0.1,0.1,0.1,0.2,0.2c-0.1,0.1-0.2,0.2-0.3,0.2c-0.2,0.2-0.4,0.5-0.5,0.7c-3.4-0.2-6.3,1.2-8.7,4.2
		c-0.3,0.4-0.6,0.8-0.9,1.2c0.1-0.9,0.3-1.7,0.5-2.5C69.4,20.1,72.3,18.1,77,17.8L77,17.8z"/>
	<path class="st4" d="M76.5,49.6c-0.1,0-0.1,0-0.1,0.1C76.4,49.6,76.4,49.6,76.5,49.6c5.5,2.4,12.1,3.6,19.9,3.6
		c7.8,0,14.4-1.2,19.9-3.5c0,0,0,0,0.1,0c-0.1-0.1-0.1-0.1-0.1-0.1c-5.5-2.3-12.2-3.5-19.9-3.5C88.6,46.1,82,47.3,76.5,49.6
		L76.5,49.6z"/>
	<path class="st2" d="M96.4,44.2c-1.8,0-3.5,0.1-5.2,0.2c-4.1,0.3-7.9,1-11.4,2c-1.4,0.4-2.8,0.9-4.1,1.4c-0.2,0.1-0.3,0.1-0.5,0.2
		c-0.3,0.1-0.5,0.2-0.8,0.3c-0.1,0.2-0.2,0.4-0.2,0.5c0,0.4,0.2,0.6,0.6,0.9c0.2-0.1,0.5-0.3,0.7-0.4c0.2-0.1,0.4-0.2,0.6-0.2
		c5.6-2.3,12.3-3.5,20.1-3.5c7.8,0,14.5,1.2,20.1,3.5c0.2,0.1,0.4,0.2,0.6,0.2c0.3,0.1,0.5,0.2,0.7,0.4c0.4-0.3,0.6-0.6,0.6-0.9
		c0-0.2-0.1-0.4-0.2-0.5c-0.2-0.1-0.5-0.2-0.8-0.3c-0.1-0.1-0.3-0.1-0.5-0.2c-1.3-0.6-2.7-1-4.1-1.4c-3.5-1-7.3-1.7-11.4-2
		C99.9,44.2,98.2,44.2,96.4,44.2L96.4,44.2z"/>
	<path class="st2" d="M119,43l0.2-0.6c-1.4-0.6-2.9-1.2-4.5-1.6c-3.6-1.1-7.5-1.8-11.8-2.1c-2.1-0.2-4.2-0.3-6.4-0.3
		c-2.2,0-4.4,0.1-6.4,0.3c-4.3,0.4-8.2,1.1-11.8,2.1c-1.6,0.4-3.1,1-4.5,1.6l0.2,0.6l2.5,0.9c0,0,0.1,0.1,0.1,0.1c0,0,0,0.1,0.1,0.1
		c0,0.1,0,0.1-0.1,0.1l-1.6,1.8l0.5,1.3c0.1,0,0.1-0.1,0.2-0.1c1.3-0.6,2.7-1.1,4.2-1.5c3.5-1,7.3-1.7,11.4-2
		c1.7-0.2,3.4-0.2,5.2-0.2c1.8,0,3.5,0,5.2,0.2c4.2,0.3,8,0.9,11.5,2c1.4,0.4,2.8,0.9,4.2,1.5c0.1,0,0.2,0.1,0.2,0.1l0.4-1.3
		l-1.6-1.8c0,0-0.1-0.1-0.1-0.1c0-0.1,0-0.1,0.1-0.1c0-0.1,0-0.1,0.1-0.1L119,43L119,43z"/>
	<path class="st0" d="M114.3,42.5c0.5,1,0.2,1.8-0.7,2.5c0,0.1-0.1,0.1-0.1,0.1c-0.1,0-0.1,0-0.1,0c-3.5-1-7.3-1.7-11.5-2
		c0,0-0.1,0-0.1,0c0,0-0.1-0.1-0.1-0.1c-0.4-0.8-0.2-1.7,0.5-2.5c0,0,0.1-0.1,0.1-0.1c0,0,0.1,0,0.1,0c4.3,0.4,8.2,1,11.8,2.1
		C114.2,42.4,114.2,42.4,114.3,42.5C114.2,42.5,114.2,42.5,114.3,42.5L114.3,42.5z"/>
	<path class="st0" d="M78.6,42.5C78.6,42.5,78.6,42.5,78.6,42.5c0.1-0.1,0.1-0.1,0.1-0.1c3.6-1.1,7.5-1.7,11.7-2.1c0,0,0.1,0,0.1,0
		c0,0,0,0,0.1,0.1c0.7,0.8,0.9,1.7,0.5,2.5c0,0,0,0.1-0.1,0.1c0,0-0.1,0-0.1,0c-4.2,0.3-8,1-11.5,2c0,0-0.1,0-0.1,0
		c0,0-0.1,0-0.1-0.1C78.3,44.3,78.1,43.5,78.6,42.5L78.6,42.5z"/>
	<path class="st0" d="M95.4,39.9h2c0.4,0,0.8,0.2,1.1,0.5c0.3,0.3,0.5,0.7,0.5,1.1c0,0.4-0.2,0.8-0.5,1.1c-0.3,0.4-0.7,0.5-1.1,0.5
		h-2c-0.4,0-0.8-0.2-1.1-0.5c-0.3-0.3-0.5-0.7-0.5-1.1c0-0.4,0.2-0.8,0.5-1.1C94.6,40.1,95,39.9,95.4,39.9L95.4,39.9z"/>
	<path class="st4" d="M113.4,44.6c0.6-0.5,0.8-1.1,0.5-1.7c-3.5-1-7.3-1.7-11.4-2.1c-0.5,0.6-0.6,1.2-0.4,1.8
		C106.2,42.9,109.9,43.6,113.4,44.6L113.4,44.6z"/>
	<path class="st4" d="M79,42.9c-0.3,0.6-0.1,1.2,0.5,1.7c3.5-1,7.2-1.7,11.3-2c0.2-0.6,0.1-1.2-0.4-1.8C86.3,41.2,82.5,41.8,79,42.9
		L79,42.9z"/>
	<path class="st3" d="M97.4,40.4h-2c-0.3,0-0.6,0.1-0.8,0.3c-0.2,0.2-0.3,0.5-0.3,0.8c0,0.3,0.1,0.5,0.3,0.7
		c0.2,0.2,0.5,0.4,0.8,0.4h2c0.3,0,0.6-0.1,0.8-0.4c0.2-0.2,0.3-0.5,0.3-0.7c0-0.3-0.1-0.6-0.3-0.8C98,40.5,97.8,40.4,97.4,40.4
		L97.4,40.4z"/>
	<polygon class="st3" points="118.3,45.8 120.5,45.3 119.1,43.4 117,44.2 118.3,45.8 	"/>
	<polygon class="st3" points="72.4,45.3 74.6,45.8 75.9,44.2 73.8,43.4 72.4,45.3 	"/>
	<path class="st2" d="M120.4,40.8c-0.1,0-0.1-0.1-0.2-0.1c-0.1,0-0.1,0-0.2-0.1c-0.2-0.1-0.4-0.2-0.6-0.2c-6.4-2.6-14.2-3.9-23.1-4
		c-9,0.1-16.6,1.4-23.1,4c-0.2,0.1-0.4,0.2-0.6,0.2c-0.1,0-0.1,0-0.2,0.1c-0.1,0-0.1,0.1-0.2,0.1h0c-0.2,0.1-0.3,0.1-0.4,0.2
		c-0.2,0.4-0.2,0.7-0.1,0.9c0.1,0.2,0.3,0.4,0.6,0.5c0.3-0.1,0.6-0.3,0.8-0.4c0.1,0,0.1-0.1,0.1-0.1c1.5-0.6,3.1-1.2,4.8-1.7
		c3.6-1.1,7.6-1.8,11.9-2.1c2.1-0.2,4.2-0.2,6.5-0.3c2.2,0,4.4,0.1,6.4,0.3c4.3,0.4,8.3,1.1,11.9,2.1c1.7,0.5,3.2,1.1,4.8,1.7
		c0,0,0,0,0.1,0.1c0.3,0.1,0.6,0.2,0.9,0.4c0.3-0.1,0.5-0.3,0.5-0.5c0.1-0.2,0.1-0.5-0.1-0.9C120.8,40.9,120.6,40.9,120.4,40.8
		L120.4,40.8L120.4,40.8z"/>
	<path class="st2" d="M120.3,40.2c0,0,0.1,0,0.2,0.1l0.1,0l3-3.3c-5.2,1.7-9.1,0.3-11.9-4c-4.7,3.2-9.7,2.6-15.2-1.8
		C91,35.6,86,36.2,81.3,33c-2.8,4.3-6.7,5.7-11.9,4l3,3.3l0,0c0.1,0,0.1,0,0.2-0.1c0.1,0,0.2-0.1,0.2-0.1l-0.6-0.6
		c-0.1,0-0.1-0.1-0.1-0.1c0-0.1,0-0.1,0-0.1c0.1-0.1,0.1-0.1,0.1-0.1c0,0,0.1,0,0.1,0c3.9,0.4,6.9-1,9-4c0-0.1,0.1-0.1,0.1-0.1
		c0.1,0,0.1,0,0.2,0c4.2,2.4,9.1,1.8,14.6-1.9c0,0,0.1-0.1,0.1-0.1c0,0,0.1,0,0.1,0.1c5.5,3.6,10.4,4.2,14.6,1.9
		c0.1,0,0.1-0.1,0.2,0c0,0,0.1,0,0.1,0.1c2.1,3,5.1,4.4,9,4c0,0,0.1,0,0.1,0c0,0,0.1,0.1,0.1,0.1c0,0,0,0.1,0,0.1
		c0,0-0.1,0.1-0.1,0.1L120,40C120.1,40.1,120.2,40.2,120.3,40.2L120.3,40.2z"/>
	<path class="st4" d="M119.5,39.8l0.3-0.3c-0.4,0-0.7,0-1,0C119.1,39.6,119.3,39.8,119.5,39.8L119.5,39.8z"/>
	<path class="st4" d="M113.7,37.9c-0.9-0.6-1.8-1.4-2.5-2.4c-1.1,0.6-2.3,1.1-3.5,1.2C109.8,37.1,111.8,37.4,113.7,37.9L113.7,37.9z
		"/>
	<path class="st4" d="M73,39.6l0.3,0.3c0.2-0.1,0.5-0.2,0.7-0.3C73.7,39.6,73.4,39.6,73,39.6L73,39.6z"/>
	<path class="st4" d="M85.2,36.7c-1.2-0.2-2.4-0.6-3.5-1.2c-0.7,1-1.5,1.8-2.4,2.4C81.1,37.4,83.1,37,85.2,36.7L85.2,36.7z"/>
	<path class="st4" d="M91.4,36.1c1.7-0.1,3.3-0.2,5.1-0.2c1.7,0,3.4,0.1,5,0.2c-1.7-0.5-3.3-1.4-5-2.5C94.7,34.7,93,35.5,91.4,36.1
		L91.4,36.1z"/>
	<path class="st4" d="M125.3,28.9c0-0.5,0-0.9,0-1.4c-2.5-4.2-5.6-6.3-9.5-6.1c0.1,0.3,0.1,0.5,0.1,0.8c0,0.8-0.3,1.4-0.8,1.9
		c-0.1,0.1-0.2,0.2-0.4,0.3l0,0.8c0.1,0.2,0.3,0.3,0.5,0.5c0,0,0.1,0.1,0.1,0.2c-0.1,0.9-0.3,1.6-0.8,2.3c1.1-0.7,1.8-0.9,2.1-0.6
		c0.1,0.1,0.1,0.1,0.1,0.1c0.8,1,0.8,2,0,2.9c-0.1,0-0.1,0-0.1,0.1c0,0-0.1,0-0.1,0c-0.7-0.2-1.2,0-1.5,0.5c0.3,0.4,0.8,0.5,1.5,0.4
		c0,0,0.1,0,0.1,0c0,0,0.1,0.1,0.1,0.1c0.4,1.1,0.2,2.1-0.6,3c0,0-0.1,0-0.1,0.1c0,0-0.1,0-0.1,0.1c-1.5-0.1-2.7-0.8-3.7-2
		c-0.1,0-0.1,0-0.2,0c2.7,4.1,6.6,5.3,11.6,3.6c-0.1-0.1-0.2-0.1-0.3-0.2c-0.4-0.3-0.5-0.7-0.6-1.1c-1,0.6-2.2,0.8-3.7,0.4
		c0,0-0.1,0-0.1-0.1c-0.9-1-1.1-2-0.5-2.9c0-0.1,0.1-0.1,0.1-0.1c0.1-0.1,0.1,0,0.2,0c0.8,0.4,1.7,0.4,2.5,0.1
		c-0.5-0.8-1.3-1.3-2.4-1.6c-0.1,0-0.1,0-0.1-0.1c0-0.1-0.1-0.1-0.1-0.1c-0.1-1.1,0.2-1.8,1-2.2c0,0,0,0,0.1,0
		c1.3-0.1,2.3,0.2,3.1,0.9c0.7,0.6,1.2,1.6,1.4,2.9c0.1-0.1,0.3-0.1,0.4-0.1C124.7,30.7,124.9,29.6,125.3,28.9L125.3,28.9z"/>
	<path class="st4" d="M111,32.8c-0.3-0.1-0.5-0.3-0.8-0.5c-0.7,1-1.8,1.5-3.2,1.6c0,0-0.1,0-0.1,0c-1.2-0.4-1.7-1.2-1.6-2.6
		c0-0.1,0-0.1,0.1-0.2c0.1,0,0.1-0.1,0.2-0.1c0.8,0,1.4-0.3,1.8-0.8c-0.5-0.5-1.2-0.7-1.9-0.6c-0.1,0-0.1,0-0.1,0
		c-0.1,0-0.1-0.1-0.1-0.1c0,0-0.1-0.1-0.1-0.1c-0.1-1.3,0.2-2.3,1.1-2.9c0,0,0.1-0.1,0.2-0.1c0.8,0.1,1.6,0.5,2.5,1.4
		c-0.4-0.9-0.4-1.7-0.3-2.3c0,0,0-0.1,0.1-0.1c0.1-0.2,0.2-0.3,0.3-0.4c0.1-1.7,0.1-3.2-0.1-4.5c-2-2.3-4.7-3.7-8-4.2
		c0,0.7-0.1,1.5-0.1,2.2c-0.1,0.6-0.2,1.2-0.3,1.9c-0.1,0.2-0.1,0.4-0.2,0.6c-0.3,1.1-0.6,2.3-1.1,3.5c0,0.1,0.1,0.2,0.1,0.4
		c0,0.2,0.1,0.3,0.1,0.5c0,0.4-0.1,0.8-0.2,1.2c0.4-0.2,0.9-0.3,1.2-0.4c0.6-0.1,1.1-0.2,1.5-0.1c0.1,0,0.1,0.1,0.1,0.1
		c0.8,1,0.8,1.9,0,2.7c0,0-0.1,0.1-0.1,0.1c-0.1,0-0.1,0-0.1,0c-0.4-0.1-0.8-0.1-1.2,0.1c-0.2,0.1-0.4,0.1-0.5,0.2
		c0.1,0,0.1,0.1,0.2,0.1c0.5,0.3,1,0.4,1.5,0.4c0.1,0,0.1,0,0.1,0c0,0,0.1,0.1,0.1,0.1c0.5,0.9,0.3,1.8-0.6,2.7
		c-0.1,0.1-0.1,0.1-0.1,0.1c-1.5,0.2-2.8-0.4-3.9-1.8c-0.2,0.1-0.3,0.2-0.5,0.2C102,34.9,106.7,35.6,111,32.8L111,32.8z"/>
	<path class="st4" d="M84.1,20.2c-0.1,0.1-0.1,0.2-0.2,0.2c-0.1,0.9-0.2,1.8-0.2,2.9v0c0,0.5,0,1,0.1,1.6c0.1,0.1,0.2,0.2,0.4,0.4
		c0,0,0,0.1,0.1,0.1c0.1,0.7,0.1,1.5-0.3,2.3c0.8-0.8,1.7-1.3,2.4-1.4c0.1,0,0.2,0,0.2,0.1c0.8,0.6,1.2,1.5,1,2.9c0,0,0,0.1-0.1,0.1
		c0,0-0.1,0.1-0.1,0.1c0,0-0.1,0-0.1,0c-0.8-0.1-1.4,0.1-1.9,0.6c0.4,0.6,1,0.9,1.9,0.8c0.1,0,0.1,0,0.2,0.1c0,0.1,0.1,0.1,0.1,0.2
		c0.1,1.4-0.4,2.2-1.6,2.6c0,0-0.1,0-0.1,0c-1.4-0.1-2.5-0.6-3.2-1.6c-0.2,0.2-0.5,0.4-0.8,0.5c4.3,2.8,9,2.2,14-1.8
		c-0.2-0.1-0.4-0.1-0.5-0.2c-1.1,1.4-2.4,2-3.8,1.8c-0.1,0-0.1,0-0.2-0.1c-0.9-0.8-1.1-1.7-0.6-2.7c0,0,0.1-0.1,0.1-0.1
		c0,0,0.1-0.1,0.1,0c0.6,0,1.2-0.1,1.8-0.5c-0.6-0.4-1.2-0.5-1.8-0.4c0,0-0.1,0-0.1,0c-0.1,0-0.1-0.1-0.1-0.1
		c-0.8-0.8-0.8-1.8,0-2.7c0-0.1,0.1-0.1,0.2-0.1c0.7-0.1,1.5,0,2.7,0.5c-0.3-0.6-0.3-1.3,0-2c-1.2-3-1.7-5.8-1.7-8.2
		C88.6,16.7,86.1,18,84.1,20.2L84.1,20.2z"/>
	<path class="st4" d="M76.9,22.2c-0.1-0.3,0-0.6,0.1-0.8c-3.8-0.1-7,1.9-9.4,6.1c0,0.5,0,0.9,0,1.4c0.4,0.6,0.6,1.8,0.5,3.4
		c0.1,0,0.3,0,0.4,0.1c0.2-1.3,0.7-2.2,1.4-2.9c0.8-0.7,1.8-1,3.1-0.9c0,0,0.1,0,0.1,0c0.8,0.4,1.2,1.1,1.1,2.2
		c-0.1,0-0.1,0.1-0.1,0.1C74,31,74,31,74,31c-1.1,0.3-1.9,0.8-2.4,1.6c0.8,0.3,1.7,0.2,2.6-0.1c0,0,0.1-0.1,0.2,0c0,0,0.1,0,0.1,0.1
		c0.6,0.9,0.4,1.8-0.6,2.9c0,0-0.1,0-0.1,0.1c-1.5,0.4-2.7,0.2-3.7-0.4c-0.1,0.4-0.3,0.8-0.6,1.1c-0.1,0.1-0.1,0.1-0.2,0.2
		c5,1.8,8.9,0.6,11.6-3.6c-0.1,0-0.1,0-0.2-0.1c-0.9,1.2-2.2,1.9-3.7,2c0-0.1-0.1-0.1-0.1-0.1c0,0-0.1,0-0.1-0.1
		c-0.9-0.8-1.1-1.8-0.6-3c0-0.1,0.1-0.1,0.1-0.1c0,0,0.1-0.1,0.1,0c0.7,0.1,1.2-0.1,1.5-0.4c-0.3-0.5-0.8-0.6-1.5-0.5
		c-0.1,0-0.1,0-0.1,0c0,0-0.1,0-0.1-0.1c-0.8-0.9-0.8-1.8,0-2.9c0,0,0,0,0.1-0.1c0.4-0.3,1.1-0.1,2.2,0.6c-0.4-0.7-0.7-1.5-0.8-2.3
		c0-0.1,0-0.1,0-0.2c0.1-0.2,0.3-0.4,0.5-0.5l0.1-0.8c-0.1-0.1-0.3-0.2-0.4-0.3C77.1,23.6,76.9,23,76.9,22.2L76.9,22.2z"/>
	<path class="st2" d="M110.8,16.5c-0.2-0.1-0.4-0.2-0.6-0.4c-0.5-0.5-0.8-1.2-0.8-1.9c0-0.1,0-0.1,0-0.2c-0.8,0-1.4-0.3-1.9-0.8
		c-0.4-0.4-0.6-0.8-0.8-1.3c-0.3,0.1-0.6,0.2-1,0.2c-0.8,0-1.4-0.3-1.9-0.8c-0.3-0.3-0.5-0.6-0.6-0.9c-0.5,0.4-1.1,0.5-1.7,0.6
		c-0.2,0-0.5,0-0.6-0.1c-0.5-0.1-0.9-0.4-1.3-0.8c-0.3-0.3-0.5-0.6-0.7-1.1C98.8,9,98.7,9,98.7,9.1c0.6,0.8,1.1,1.7,1.4,2.5
		c0,0.1,0.1,0.2,0.1,0.2c5.2,0.6,8.3,3.2,9.1,8c0,0.1,0,0.3,0.1,0.4v0c0.2,1.2,0.2,2.7,0.1,4.2c0.6-0.4,1.3-0.3,2,0.3
		c0,0,0.1,0.1,0.1,0.1c0,0,0,0.1,0,0.1c-0.1,1,0,1.8,0.4,2.4c0.5-0.7,0.6-1.4,0.4-2.1c-0.1-0.1-0.1-0.1-0.1-0.2
		c0.1-0.1,0.1-0.1,0.1-0.1c0,0,0.1-0.1,0.2-0.1c-0.6-0.1-1.1-0.4-1.5-0.8c-0.6-0.6-0.8-1.2-0.8-1.9c0-0.8,0.3-1.4,0.8-2
		c0.1-0.1,0.2-0.2,0.2-0.2c-0.1-0.1-0.2-0.2-0.3-0.2c-0.5-0.5-0.8-1.2-0.8-2C110.4,17.3,110.5,16.9,110.8,16.5L110.8,16.5z"/>
	<path class="st2" d="M118.2,16c-0.1,0.1-0.2,0.2-0.3,0.4c-0.5,0.5-1.1,0.8-1.8,0.8c-0.1,0-0.2,0-0.3,0c0,0.1,0,0.1,0.1,0.2
		c6.2,0.3,9.5,3.7,9.9,10.1v0.1c0,0.2,0,0.5,0,0.8c0.3-0.2,0.7-0.4,1.1-0.3c-0.3-0.5-0.5-0.9-0.5-1.5c0-0.7,0.2-1.3,0.8-1.8
		c0-0.1,0.1-0.1,0.1-0.1c-0.2-0.1-0.3-0.2-0.4-0.3c-0.5-0.5-0.7-1.1-0.7-1.8c0-0.3,0-0.5,0.1-0.8c-0.2-0.2-0.4-0.3-0.6-0.5
		c-0.5-0.5-0.7-1.1-0.7-1.8c0-0.3,0.1-0.6,0.1-0.9c-0.2,0-0.4,0.1-0.5,0.1c-0.7,0-1.3-0.2-1.8-0.8c-0.4-0.4-0.6-0.7-0.7-1.2
		c-0.5,0.4-1,0.6-1.7,0.6c-0.7,0-1.3-0.2-1.8-0.8C118.4,16.3,118.3,16.2,118.2,16L118.2,16z"/>
	<path class="st2" d="M125.7,29.1C125.7,29.2,125.7,29.2,125.7,29.1c-0.4,0.6-0.5,1.7-0.5,3.2c0.4,0,0.7,0.1,1.1,0.3
		c0.2-0.8,0.5-1.3,1-1.4c0.4-0.1,1,0.3,1.7,1.1c1-0.3,1.6-0.6,1.7-1.1c0.1-0.5-0.4-1-1.3-1.7c-0.4-0.3-0.8-0.5-1.1-0.7
		c-0.3-0.2-0.5-0.3-0.7-0.4C126.7,28.2,126.1,28.4,125.7,29.1L125.7,29.1z"/>
	<path class="st2" d="M121.9,32.6c0,0,0,0.1,0,0.1c0,0,0,0.1-0.1,0.1c0,0-0.1,0.1-0.1,0.1c-1,0.4-2,0.4-3,0.1
		c-0.3,0.6-0.1,1.3,0.5,2c1.4,0.3,2.5,0.1,3.4-0.6c0-0.6,0.2-1.1,0.7-1.5c0.2-0.1,0.3-0.3,0.5-0.4c-0.2-1.2-0.7-2.1-1.3-2.7
		c-0.7-0.6-1.6-0.9-2.7-0.8c-0.5,0.3-0.8,0.8-0.7,1.5C120.5,30.9,121.4,31.6,121.9,32.6L121.9,32.6z"/>
	<path class="st2" d="M111.2,25.2c-0.6-0.4-1.2-0.4-1.7,0.1c-0.1,0.1-0.2,0.2-0.3,0.4c-0.2,1,0.1,2.2,0.9,3.6c0,0,0,0,0.1,0
		c0.4-0.4,0.9-0.6,1.5-0.6c0.6,0,1.1,0.2,1.5,0.6l0,0c0.9-0.9,1.5-2,1.6-3.2c-0.1-0.2-0.3-0.3-0.4-0.4v0c-0.5-0.5-1-0.5-1.4-0.2
		c0.2,0.9,0,1.8-0.7,2.7c0,0-0.1,0.1-0.1,0.1c-0.1,0-0.1,0-0.1,0c-0.1,0-0.1-0.1-0.1-0.1C111.2,27.3,111,26.4,111.2,25.2L111.2,25.2
		z"/>
	<path class="st2" d="M109.9,31.9c-0.2-0.4-0.4-0.8-0.4-1.2c0-0.4,0.1-0.8,0.3-1.1c-1.2-1.6-2.2-2.4-3.2-2.6
		c-0.6,0.5-0.9,1.1-0.8,2.1c0.9-0.1,1.6,0.2,2.2,0.9c0,0,0.1,0.1,0.1,0.1c0,0.1,0,0.1,0,0.1c-0.5,0.8-1.2,1.2-2.2,1.3
		c0,0.9,0.4,1.5,1.2,1.8h0C108.3,33.2,109.2,32.8,109.9,31.9L109.9,31.9z"/>
	<path class="st2" d="M113.8,30.7c0,0.6-0.2,1.1-0.6,1.5c-0.1,0.1-0.3,0.3-0.5,0.4c0.8,1,1.8,1.6,3.1,1.7c0.6-0.7,0.8-1.4,0.5-2.2
		c-0.9,0.1-1.6-0.2-1.9-0.8c0,0,0-0.1,0-0.1c0,0,0-0.1,0-0.1c0.4-0.8,1.1-1.1,2-0.9c0.5-0.6,0.5-1.4-0.1-2.1
		c-0.4-0.2-1.4,0.3-2.9,1.5C113.7,29.9,113.8,30.3,113.8,30.7L113.8,30.7z"/>
	<path class="st2" d="M98.5,3.2V1.7h-1.3V0.5h-1.5v1.2h-1.3v1.6h1.3v1.5c0.2-0.1,0.5-0.1,0.8-0.1h0.1c0.2,0,0.4,0,0.6,0.1
		c0,0,0.1,0,0.1,0V3.2H98.5L98.5,3.2z"/>
	<path class="st2" d="M94.2,9.1C94.1,9,94.1,9,94,8.9c-0.2,0.4-0.4,0.8-0.7,1.1c-0.5,0.5-1.2,0.8-2,0.8c-0.6,0-1.1-0.2-1.5-0.5
		c0,0-0.1,0-0.1-0.1c0,0,0,0,0,0.1c-0.1,0.3-0.4,0.6-0.6,0.9c-0.5,0.5-1.1,0.8-1.8,0.8c-0.1,0-0.1,0-0.2,0c-0.4,0-0.6-0.1-1-0.2
		c-0.1,0.2-0.2,0.4-0.3,0.6c-0.1,0.2-0.2,0.3-0.3,0.5c-0.1,0-0.1,0.1-0.2,0.1c-0.5,0.5-1.2,0.8-1.9,0.8c0,0.1,0,0.1,0,0.2
		c0,0.4-0.1,0.7-0.2,1c0,0.1-0.1,0.1-0.1,0.2c-0.1,0.3-0.3,0.5-0.6,0.8c-0.2,0.2-0.3,0.3-0.5,0.4c0.2,0.4,0.4,0.9,0.4,1.4
		c0,0.5-0.1,0.9-0.3,1.2c-0.1,0.2-0.2,0.4-0.4,0.6c-0.1,0.1-0.1,0.1-0.1,0.2c-0.1,0.1-0.2,0.2-0.3,0.2c0.1,0.1,0.2,0.1,0.3,0.2
		c0.5,0.5,0.8,1.2,0.8,2c0,0.7-0.2,1.3-0.7,1.9c0,0-0.1,0.1-0.1,0.1c-0.4,0.4-0.9,0.6-1.5,0.8c0.1,0,0.1,0.1,0.2,0.1
		c0,0,0.1,0.1,0.1,0.1c0,0,0,0.1,0,0.2c-0.2,0.7-0.1,1.4,0.4,2.1c0.4-0.6,0.5-1.4,0.4-2.4c0-0.1,0-0.1,0-0.1c0-0.1,0.1-0.1,0.1-0.1
		c0.8-0.6,1.4-0.6,2-0.3c0-0.3,0-0.5-0.1-0.8c0-1.2,0-2.4,0.2-3.5v0c0-0.1,0.1-0.3,0.1-0.4c0-0.1,0-0.2,0.1-0.2
		c0.1-0.3,0.1-0.6,0.2-0.9c0.1-0.5,0.4-1.1,0.6-1.6c1.4-3.1,4.1-4.8,8.3-5.3C93,10.8,93.5,9.9,94.2,9.1L94.2,9.1z"/>
	<path class="st2" d="M93.8,10.4c-0.3,0.5-0.6,1.1-0.8,1.7c-0.4,1.2-0.6,2.5-0.7,3.9c-0.1,2.2,0.4,4.7,1.3,7.4
		c0.1-0.5,0.3-0.9,0.6-1.3c-0.4-0.5-0.6-1.1-0.6-1.8c0-0.7,0.3-1.4,0.8-1.9c0.1-0.1,0.3-0.3,0.4-0.4c-0.2-0.1-0.3-0.3-0.4-0.4
		c-0.5-0.5-0.8-1.2-0.8-1.9c0-0.8,0.3-1.4,0.8-1.9c0.1-0.1,0.1-0.1,0.2-0.2c-0.1-0.1-0.1-0.1-0.2-0.2c-0.5-0.6-0.8-1.2-0.8-2
		C93.6,11.1,93.7,10.7,93.8,10.4L93.8,10.4z"/>
	<path class="st2" d="M99.2,11.9c0,0.1,0,0.2,0,0.2c-0.1,0.5-0.4,0.9-0.8,1.3c-0.1,0.1-0.1,0.1-0.2,0.2c0.1,0,0.1,0.1,0.2,0.2
		c0.5,0.5,0.8,1.2,0.8,1.9c0,0.3-0.1,0.6-0.1,0.9c0,0.1,0,0.1-0.1,0.2c-0.1,0.3-0.4,0.6-0.6,0.8c-0.1,0.1-0.3,0.3-0.4,0.4
		c0.1,0.1,0.3,0.2,0.4,0.4c0.5,0.5,0.8,1.1,0.8,1.8c0,0,0,0.1,0,0.1c0,0.4-0.1,0.8-0.2,1.2c-0.1,0.2-0.3,0.4-0.4,0.6
		c0.4,0.4,0.5,0.8,0.6,1.3c0.3-0.8,0.5-1.6,0.7-2.4c0-0.1,0.1-0.3,0.1-0.5c0.3-1,0.4-2,0.5-3c0-0.5,0.1-1.1,0.1-1.6
		c0-0.1,0-0.1,0-0.2c-0.1-1.3-0.3-2.5-0.7-3.6l0-0.1c0-0.1-0.1-0.2-0.1-0.3c-0.2-0.5-0.4-1-0.7-1.5c0.1,0.3,0.2,0.7,0.2,1.1
		C99.2,11.6,99.2,11.7,99.2,11.9L99.2,11.9z"/>
	<path class="st2" d="M68.4,18.5L68.4,18.5c-0.2,0-0.4,0-0.5-0.1c0.1,0.2,0.2,0.5,0.2,0.9v0c0,0.7-0.3,1.3-0.8,1.8
		c-0.2,0.2-0.4,0.3-0.6,0.5c0,0.1,0.1,0.2,0.1,0.4c0,0.1,0,0.3,0,0.4c0,0.1,0,0.3,0,0.4c-0.1,0.3-0.2,0.6-0.3,0.8
		c-0.1,0.2-0.2,0.4-0.4,0.6c-0.1,0.1-0.3,0.2-0.4,0.3c0,0,0.1,0.1,0.1,0.1c0.5,0.5,0.7,1.1,0.7,1.8c0,0.5-0.1,0.9-0.4,1.4
		c-0.1,0.1-0.1,0.1-0.1,0.2c0.4,0,0.8,0.1,1.1,0.3c0-0.2,0-0.5,0-0.8c0,0,0-0.1,0-0.1v-0.1c0.1-1.5,0.3-2.8,0.7-3.9
		c0.1-0.3,0.2-0.6,0.4-0.9c0.1-0.3,0.3-0.6,0.4-0.8c0,0,0-0.1,0.1-0.1c0.4-0.6,0.8-1.1,1.2-1.6c0.2-0.2,0.4-0.4,0.7-0.6
		c0.5-0.5,1.2-0.9,1.9-1.2c0.3-0.1,0.6-0.2,0.9-0.3c0.6-0.3,1.4-0.4,2.1-0.5c0.5-0.1,1-0.1,1.6-0.2c0,0,0,0,0.1,0
		c0-0.1,0-0.1,0.1-0.2c-0.1,0-0.2,0-0.3,0c-0.1,0-0.1,0-0.1,0c-0.3,0-0.6-0.1-0.8-0.2c-0.4-0.1-0.6-0.4-0.9-0.6
		c-0.1-0.1-0.2-0.2-0.3-0.4c-0.1,0.2-0.2,0.4-0.4,0.5c-0.4,0.4-0.9,0.6-1.5,0.7c-0.1,0-0.2,0-0.3,0c-0.2,0-0.4,0-0.5,0
		c-0.4-0.1-0.8-0.3-1.2-0.6c-0.1,0.4-0.3,0.8-0.6,1.2c-0.2,0.2-0.4,0.4-0.6,0.5C69.2,18.4,68.8,18.5,68.4,18.5L68.4,18.5z"/>
	<path class="st2" d="M83.7,25.6c-0.1-0.1-0.2-0.2-0.3-0.4c-0.5-0.5-1.1-0.5-1.7-0.1c0.2,1.2-0.1,2.2-0.7,2.9c0,0-0.1,0.1-0.1,0.1
		c-0.1,0-0.1,0-0.1,0c-0.1,0-0.1-0.1-0.1-0.1c-0.7-0.9-0.9-1.8-0.7-2.7c-0.5-0.3-1-0.3-1.5,0.2v0c-0.1,0.1-0.3,0.2-0.4,0.4
		c0.1,1.2,0.7,2.3,1.6,3.2l0,0c0.4-0.4,0.9-0.6,1.5-0.6c0.6,0,1.1,0.2,1.5,0.6c0,0,0,0,0.1,0C83.6,27.8,83.9,26.6,83.7,25.6
		L83.7,25.6z"/>
	<path class="st2" d="M76.5,28.1c-0.6,0.7-0.6,1.4-0.1,2.1c0.9-0.2,1.6,0.1,2,0.9c0,0,0,0.1,0,0.1c0,0,0,0.1,0,0.1
		c-0.3,0.6-0.9,0.8-1.8,0.8c-0.3,0.8-0.1,1.5,0.5,2.2c1.3-0.1,2.4-0.7,3.2-1.7c-0.2-0.1-0.4-0.2-0.5-0.4c-0.4-0.4-0.6-0.9-0.6-1.5
		c0-0.4,0.1-0.8,0.3-1.1C77.9,28.4,76.9,27.9,76.5,28.1L76.5,28.1z"/>
	<path class="st2" d="M84.9,30.1c0-0.1,0-0.1,0.1-0.1c0.6-0.6,1.3-0.9,2.2-0.9c0.1-0.9-0.2-1.6-0.8-2.1c-1,0.2-2.1,1.1-3.3,2.6
		c0.2,0.3,0.3,0.7,0.3,1.1c0,0.4-0.1,0.8-0.4,1.2c0.6,0.9,1.5,1.3,2.8,1.4h0c0.9-0.3,1.2-0.9,1.2-1.8c-1-0.1-1.7-0.5-2.2-1.3
		C84.9,30.2,84.8,30.2,84.9,30.1L84.9,30.1z"/>
	<path class="st2" d="M65.3,28.5c-0.2,0.1-0.5,0.2-0.7,0.4c-0.4,0.2-0.7,0.4-1.1,0.7c-0.9,0.7-1.4,1.3-1.3,1.7
		c0.1,0.4,0.7,0.8,1.7,1.1c0.7-0.8,1.2-1.2,1.7-1.1c0.4,0,0.8,0.5,1,1.4c0.3-0.2,0.7-0.3,1-0.3c0.1-1.5-0.1-2.6-0.5-3.1
		c0,0,0,0,0-0.1C66.8,28.4,66.2,28.2,65.3,28.5L65.3,28.5z"/>
	<path class="st2" d="M69,32.6c0.2,0.1,0.3,0.2,0.5,0.4c0.4,0.4,0.7,0.9,0.7,1.5c0.9,0.7,2,0.9,3.4,0.6c0.7-0.7,0.9-1.4,0.6-2
		c-1.1,0.4-2,0.3-3-0.1c-0.1,0-0.1-0.1-0.1-0.1c0,0,0-0.1,0-0.1c-0.1-0.1-0.1-0.1,0-0.1c0.5-1,1.4-1.7,2.7-2
		c0.1-0.8-0.2-1.2-0.7-1.5c-1.1-0.1-2,0.2-2.7,0.8C69.7,30.5,69.2,31.4,69,32.6L69,32.6z"/>
	<path class="st2" d="M98.9,24.6L98.9,24.6c-0.1,0-0.1,0-0.1,0c-0.5-0.4-1-0.4-1.6,0c0,0.1,0,0.1,0,0.2c0,0.2,0,0.5-0.1,0.8
		c-0.1,0.3-0.2,0.6-0.5,1c0,0-0.1,0.1-0.1,0.1c-0.1,0-0.1,0-0.1,0c-0.1,0-0.1-0.1-0.2-0.1v-0.1c-0.4-0.6-0.6-1.3-0.5-1.9
		c-0.6-0.3-1.1-0.3-1.7,0c0,0,0,0-0.1,0h0c-0.4,1.1-0.1,1.9,1,2.6c0,0,0,0,0.1,0c0.3-0.2,0.7-0.4,1.1-0.4c0.1,0,0.2,0,0.3,0
		c0.5,0,0.9,0.2,1.4,0.5c0,0,0.1,0,0.1,0c0.8-0.5,1.2-1.2,1.1-2c0-0.1,0-0.1,0-0.2C99,24.9,98.9,24.8,98.9,24.6L98.9,24.6z"/>
	<path class="st2" d="M101.8,26.5c-0.3,0-0.6,0-1,0.1c-0.7,0.1-1.6,0.5-2.6,1c0.2,0.4,0.4,0.8,0.4,1.3c0,0.5-0.2,0.9-0.4,1.3
		c-0.1,0.1-0.1,0.2-0.2,0.2c0,0-0.1,0-0.1,0c0.9,1.2,2,1.8,3.3,1.7c0.6-0.6,0.8-1.2,0.5-1.8c-0.7,0-1.3-0.2-1.9-0.5
		c-0.1-0.1-0.3-0.2-0.4-0.3c-0.1,0-0.1-0.1-0.1-0.1c0-0.1,0-0.1,0-0.2c0-0.1,0.1-0.1,0.1-0.1c0.5-0.4,0.9-0.6,1.4-0.6
		c0.3-0.1,0.6-0.1,0.9,0C102.3,27.9,102.3,27.2,101.8,26.5L101.8,26.5z"/>
	<path class="st2" d="M91.1,30.3c-0.3,0.6-0.1,1.3,0.5,1.8c1.2,0.1,2.4-0.4,3.3-1.7c0,0,0,0-0.1,0c-0.4-0.4-0.6-0.9-0.6-1.5
		c0-0.5,0.1-0.9,0.4-1.3c-1.6-0.8-2.8-1.2-3.6-1.1c-0.5,0.7-0.5,1.4,0,1.9c0.8-0.1,1.5,0.1,2.3,0.7c0,0,0,0.1,0.1,0.1
		c0,0.1,0,0.1,0,0.2c0,0-0.1,0.1-0.1,0.1C92.7,30,91.9,30.3,91.1,30.3L91.1,30.3z"/>
	<path class="st5" d="M110.2,12.2c0.4-0.4,0.9-0.7,1.5-0.8c0-0.1,0-0.2,0-0.2c0-0.6-0.2-1.2-0.7-1.6c-0.5-0.5-1-0.7-1.6-0.7
		c-0.4,0-0.8,0.1-1.1,0.3c-0.2,0.1-0.4,0.2-0.5,0.4c-0.5,0.4-0.7,1-0.7,1.6c0,0.1,0,0.2,0,0.2v0c0.1,0.5,0.3,0.9,0.7,1.3
		c0.4,0.5,0.9,0.7,1.6,0.7c0,0,0.1,0,0.1,0C109.6,13,109.8,12.5,110.2,12.2L110.2,12.2z"/>
	<path class="st5" d="M111.9,11.9c-0.5,0.1-1,0.3-1.4,0.6c-0.4,0.4-0.5,0.8-0.6,1.2c0,0.1-0.1,0.3-0.1,0.4c0,0.6,0.2,1.2,0.7,1.6
		c0.1,0.1,0.3,0.3,0.4,0.4c0.1-0.1,0.1-0.1,0.2-0.2c0.5-0.6,1.2-0.8,2-0.8c0.3,0,0.6,0.1,0.8,0.1c0.1,0,0.1,0,0.1,0.1
		c0.2-0.4,0.3-0.7,0.3-1.2c0-0.4-0.1-0.7-0.2-1v0c-0.1-0.2-0.2-0.4-0.4-0.6c-0.5-0.4-1-0.6-1.6-0.6C112.1,11.8,112,11.8,111.9,11.9
		L111.9,11.9L111.9,11.9z"/>
	<path class="st5" d="M113.8,15.7L113.8,15.7c-0.2-0.1-0.5-0.1-0.7-0.1c-0.6,0-1.2,0.2-1.6,0.6c-0.1,0.1-0.2,0.2-0.3,0.3
		c-0.3,0.4-0.4,0.8-0.4,1.3c0,0.6,0.2,1.2,0.7,1.6c0.1,0.1,0.2,0.2,0.4,0.4c0.4-0.2,0.8-0.4,1.3-0.4c0.4,0,0.9,0.1,1.2,0.3
		c0.1-0.1,0.2-0.2,0.4-0.3c0.4-0.5,0.6-1,0.6-1.6c0-0.1,0-0.1,0-0.2v0c-0.1-0.2-0.1-0.5-0.2-0.7c-0.1-0.2-0.2-0.5-0.4-0.7
		c-0.2-0.2-0.4-0.3-0.6-0.4l0,0C114,15.7,113.9,15.7,113.8,15.7L113.8,15.7z"/>
	<path class="st5" d="M118.5,13.9c-0.1,0.2-0.2,0.5-0.1,0.8c0,0.2,0,0.5,0.1,0.7c0.1,0.3,0.3,0.5,0.5,0.8c0.4,0.4,0.8,0.6,1.4,0.6
		c0.6,0,1.1-0.2,1.5-0.6c0-0.1,0.1-0.1,0.1-0.1V16c0-0.6,0.2-1.1,0.5-1.5c-0.1-0.5-0.3-0.9-0.6-1.2c-0.4-0.4-0.9-0.6-1.5-0.6
		c-0.6,0-1.1,0.2-1.4,0.6C118.7,13.4,118.5,13.7,118.5,13.9L118.5,13.9z"/>
	<path class="st5" d="M117.8,14.7c0-0.3,0.1-0.6,0.2-0.9c-0.1-0.3-0.3-0.5-0.5-0.7c-0.4-0.4-0.9-0.6-1.5-0.6c-0.5,0-1,0.2-1.4,0.5
		c0.1,0.3,0.2,0.7,0.2,1.1c0,0.5-0.1,1-0.4,1.4c0.2,0.1,0.4,0.2,0.5,0.4c0.2,0.2,0.4,0.4,0.5,0.7c0.1,0,0.3,0,0.5,0
		c0.6,0,1.1-0.2,1.5-0.6c0.2-0.2,0.3-0.4,0.4-0.6C117.9,15.2,117.8,15,117.8,14.7L117.8,14.7z"/>
	<path class="st5" d="M126,14.5c-0.4-0.4-0.9-0.6-1.4-0.6c-0.6,0-1.1,0.2-1.5,0.6c-0.1,0.1-0.1,0.1-0.2,0.2
		c-0.3,0.4-0.4,0.8-0.4,1.3c0,0,0,0.1,0,0.1v0c0,0.5,0.2,0.9,0.6,1.3c0.4,0.4,0.9,0.6,1.5,0.6c0.3,0,0.6-0.1,0.8-0.2
		c0.1-0.1,0.2-0.2,0.3-0.3c0.2-0.2,0.5-0.4,0.7-0.5c0.2-0.3,0.2-0.7,0.2-1.1C126.6,15.4,126.4,14.9,126,14.5L126,14.5z"/>
	<path class="st5" d="M125.7,18.2L125.7,18.2c-0.2,0.3-0.3,0.7-0.3,1.1c0,0.6,0.2,1.1,0.6,1.5c0.2,0.1,0.3,0.2,0.5,0.4
		c0.1-0.2,0.2-0.4,0.4-0.5c0.5-0.5,1.1-0.8,1.8-0.8c0.2,0,0.5,0.1,0.7,0.1c0.1-0.2,0.1-0.4,0.1-0.6c0-0.6-0.2-1.1-0.6-1.5
		c-0.4-0.4-0.9-0.6-1.5-0.6c-0.3,0-0.6,0.1-0.9,0.2c-0.2,0.1-0.4,0.2-0.6,0.4C125.9,18,125.8,18.1,125.7,18.2L125.7,18.2z"/>
	<path class="st5" d="M130.1,20.9c-0.2-0.2-0.4-0.4-0.7-0.5c-0.2-0.1-0.5-0.2-0.8-0.2c-0.6,0-1.1,0.2-1.5,0.6
		c-0.2,0.2-0.3,0.4-0.4,0.6c-0.1,0.3-0.2,0.5-0.2,0.8c0,0.6,0.2,1,0.6,1.4c0.2,0.1,0.3,0.3,0.5,0.4c0.4-0.3,0.8-0.4,1.3-0.4
		c0.3,0,0.6,0.1,0.9,0.2c0.1-0.1,0.1-0.2,0.2-0.2c0.4-0.4,0.6-0.9,0.6-1.4C130.7,21.8,130.5,21.3,130.1,20.9L130.1,20.9z"/>
	<path class="st5" d="M127.8,24.7L127.8,24.7c-0.1,0.1-0.2,0.2-0.3,0.3c-0.4,0.4-0.6,0.9-0.6,1.4c0,0.6,0.2,1.1,0.6,1.5
		c0.1,0.1,0.2,0.2,0.3,0.2c0.2,0.1,0.5,0.2,0.8,0.3c0.1,0,0.3,0.1,0.4,0.1c0.5,0,1-0.2,1.4-0.6c0.4-0.4,0.6-0.9,0.6-1.5
		c0-0.6-0.2-1-0.6-1.4c-0.2-0.2-0.4-0.3-0.6-0.4c-0.3-0.1-0.6-0.2-0.9-0.2C128.5,24.4,128.1,24.5,127.8,24.7L127.8,24.7z"/>
	<path class="st5" d="M124.2,33c-0.2,0.1-0.3,0.2-0.5,0.3c-0.4,0.4-0.6,0.8-0.6,1.4c0,0.4,0.2,0.9,0.6,1.2c0.1,0.1,0.3,0.3,0.5,0.4
		c0,0,0.1,0,0.1,0c0,0,0.1,0.1,0.1,0.1c0,0,0,0,0,0.1c0.2,0.1,0.4,0.1,0.5,0.1c0.5,0,0.9-0.2,1.3-0.5c0.3-0.4,0.5-0.8,0.5-1.2
		c0-0.5-0.2-1-0.5-1.4c-0.4-0.3-0.8-0.5-1.3-0.5C124.7,32.8,124.5,32.8,124.2,33L124.2,33L124.2,33z"/>
	<path class="st5" d="M115.5,22.2c0-0.4-0.1-0.7-0.2-0.9c-0.1-0.2-0.3-0.5-0.5-0.7c-0.2-0.1-0.3-0.3-0.5-0.4
		c-0.4-0.2-0.7-0.3-1.1-0.3c-0.4,0-0.8,0.1-1.2,0.3v0c-0.1,0.1-0.3,0.2-0.4,0.4c-0.5,0.4-0.7,1-0.7,1.6c0,0.6,0.2,1.1,0.7,1.6
		c0.4,0.5,0.9,0.7,1.6,0.7c0.5,0,0.9-0.1,1.2-0.3v0c0.1-0.1,0.3-0.2,0.4-0.4C115.2,23.4,115.5,22.9,115.5,22.2L115.5,22.2z"/>
	<path class="st5" d="M113,29.7c0-0.1-0.1-0.1-0.1-0.2c-0.4-0.3-0.7-0.5-1.2-0.5c-0.5,0-0.8,0.2-1.1,0.5c-0.1,0.1-0.2,0.2-0.2,0.3
		c-0.2,0.2-0.3,0.6-0.3,0.9c0,0.4,0.1,0.7,0.4,1c0,0.1,0.1,0.1,0.1,0.1c0.3,0.4,0.6,0.5,1.1,0.5c0.2,0,0.4,0,0.6-0.1
		c0.2-0.1,0.4-0.2,0.6-0.4c0.3-0.3,0.5-0.7,0.5-1.1C113.3,30.4,113.2,30,113,29.7L113,29.7L113,29.7z"/>
	<path class="st5" d="M101.7,5.7c-0.1,0-0.2,0-0.3,0c-0.6,0-1.2,0.2-1.6,0.7c-0.3,0.2-0.5,0.6-0.5,0.9c0,0.1-0.1,0.2-0.1,0.3
		c0,0.1,0,0.3,0,0.4c0,0.2,0,0.4,0.1,0.6c0.1,0.4,0.3,0.7,0.6,1c0.4,0.3,0.7,0.5,1.1,0.6c0.1,0,0.3,0.1,0.5,0.1
		c0.6,0,1.1-0.2,1.5-0.5c0-0.2-0.1-0.3-0.1-0.5c0-0.7,0.2-1.4,0.7-1.9c-0.1-0.4-0.3-0.7-0.6-0.9C102.7,6,102.3,5.8,101.7,5.7
		L101.7,5.7z"/>
	<path class="st5" d="M91.4,5.7c-0.1,0-0.2,0-0.3,0c-0.1,0-0.2,0.1-0.4,0.1c-0.4,0.1-0.7,0.3-0.9,0.6c-0.3,0.3-0.5,0.6-0.6,0.9
		c0.5,0.5,0.7,1.1,0.8,1.9c0,0.2,0,0.4-0.1,0.5c0.2,0.2,0.4,0.3,0.6,0.4c0.2,0.1,0.5,0.2,0.8,0.2c0.6,0,1.2-0.2,1.6-0.6
		c0.3-0.3,0.5-0.7,0.6-1.1c0.1-0.2,0.1-0.4,0.1-0.6c0-0.2,0-0.3-0.1-0.4c-0.1-0.4-0.3-0.8-0.6-1.2C92.5,5.9,92,5.7,91.4,5.7
		L91.4,5.7z"/>
	<path class="st5" d="M96.4,5.2c-0.3,0-0.5,0-0.8,0.1c-0.1,0-0.1,0-0.1,0.1c-0.3,0.1-0.5,0.3-0.7,0.5c-0.5,0.4-0.7,1-0.6,1.6
		c0,0.1,0,0.3,0.1,0.5c0,0.2,0.1,0.3,0.1,0.4c0.1,0.2,0.2,0.4,0.3,0.5l0,0c0,0,0.1,0.1,0.1,0.1c0,0,0.1,0.1,0.1,0.1
		c0.4-0.2,0.8-0.4,1.2-0.4c0.1,0,0.2,0,0.3,0h0.1c0.5,0,1,0.1,1.5,0.4c0,0,0.1-0.1,0.1-0.1c0,0,0.1-0.1,0.1-0.1l0,0
		c0.1-0.1,0.2-0.3,0.3-0.4c0.1-0.2,0.1-0.3,0.2-0.5c0-0.2,0-0.4,0.1-0.5c0-0.1,0-0.2,0-0.3c-0.1-0.5-0.3-1-0.6-1.3
		c-0.2-0.2-0.5-0.4-0.7-0.5c-0.2-0.1-0.3-0.1-0.5-0.1C96.7,5.2,96.6,5.2,96.4,5.2L96.4,5.2L96.4,5.2z"/>
	<path class="st5" d="M96.4,9.2c-0.2,0-0.3,0-0.4,0.1c-0.4,0.1-0.6,0.2-1,0.4c-0.1,0.1-0.1,0.1-0.2,0.2c-0.5,0.4-0.7,1-0.6,1.6
		c0,0.6,0.2,1.2,0.6,1.6c0.1,0.1,0.1,0.1,0.2,0.2c0.4-0.2,0.9-0.4,1.4-0.4h0.1c0.5,0,0.9,0.1,1.4,0.4c0.1-0.1,0.2-0.1,0.2-0.2
		c0.2-0.3,0.4-0.6,0.5-0.9c0-0.1,0.1-0.3,0.1-0.4c0-0.1,0-0.2,0-0.3c0-0.6-0.2-1.2-0.6-1.6c-0.1-0.1-0.2-0.1-0.2-0.2
		C97.4,9.4,97,9.2,96.4,9.2L96.4,9.2L96.4,9.2z"/>
	<path class="st5" d="M87.2,6.9L87.2,6.9c-0.5,0-1,0.2-1.4,0.5c-0.1,0.1-0.2,0.1-0.2,0.2c-0.4,0.3-0.6,0.7-0.6,1.2
		c0.2,0.1,0.4,0.2,0.5,0.4c0.5,0.5,0.8,1.2,0.8,1.9c0,0,0,0.1,0,0.1c0.3,0.1,0.6,0.2,0.9,0.2c0.3,0,0.5,0,0.8-0.1
		c0.3-0.1,0.6-0.3,0.8-0.5c0.2-0.2,0.3-0.4,0.4-0.6c0.1-0.2,0.2-0.3,0.2-0.5c0.1-0.2,0.1-0.4,0.1-0.5c0-0.6-0.2-1.1-0.7-1.6l0,0
		C88.3,7.1,87.8,6.9,87.2,6.9L87.2,6.9z"/>
	<path class="st5" d="M98.1,14.1c-0.1-0.1-0.2-0.2-0.4-0.3c-0.4-0.2-0.8-0.4-1.2-0.4h-0.1c-0.1,0-0.2,0-0.3,0
		c-0.4,0-0.6,0.2-0.9,0.4c-0.2,0.1-0.3,0.2-0.4,0.3c-0.5,0.5-0.7,1-0.6,1.6c0,0.6,0.2,1.2,0.6,1.6c0.2,0.2,0.4,0.4,0.7,0.5
		c0.2,0.1,0.4,0.2,0.6,0.2c0.1,0,0.2,0,0.3,0h0.1c0.3,0,0.6-0.1,0.9-0.2c0.3-0.1,0.5-0.3,0.7-0.5c0.1-0.1,0.3-0.3,0.4-0.5
		c0.1-0.1,0.1-0.2,0.1-0.3c0.1-0.2,0.2-0.5,0.2-0.8C98.7,15.1,98.5,14.6,98.1,14.1L98.1,14.1z"/>
	<path class="st5" d="M96,18.4c-0.2,0-0.4-0.1-0.6-0.1c-0.2,0.1-0.4,0.2-0.6,0.4c-0.5,0.5-0.7,1-0.6,1.6c0,0.6,0.2,1.1,0.6,1.6
		c0.3,0.3,0.7,0.5,1.1,0.6c0.2,0,0.3,0,0.5,0.1h0.1c0.6,0,1.2-0.2,1.6-0.7c0.1-0.1,0.2-0.2,0.3-0.3c0.2-0.4,0.4-0.8,0.4-1.3
		c0-0.1,0-0.2,0-0.3c-0.1-0.5-0.3-1-0.6-1.3c-0.2-0.2-0.4-0.3-0.6-0.4c-0.3,0.1-0.7,0.2-1,0.2h-0.1C96.3,18.5,96.1,18.5,96,18.4
		L96,18.4z"/>
	<path class="st5" d="M107.4,9.2c0.2-0.2,0.3-0.3,0.5-0.4c-0.1-0.5-0.3-0.9-0.6-1.2c-0.5-0.5-1-0.7-1.6-0.7c-0.6,0-1.2,0.2-1.6,0.6
		l0,0c-0.5,0.5-0.7,1-0.7,1.6c0,0.2,0,0.4,0.1,0.5c0.1,0.4,0.3,0.8,0.6,1.1c0.4,0.4,1,0.6,1.6,0.6c0.3,0,0.6-0.1,0.9-0.2
		c0-0.1,0-0.1,0-0.1C106.6,10.4,106.9,9.7,107.4,9.2L107.4,9.2z"/>
	<path class="st5" d="M73.6,13c-0.3-0.3-0.7-0.4-1.1-0.4c-0.6,0-1.1,0.2-1.5,0.6c-0.3,0.4-0.5,0.7-0.6,1.2v0.1
		c0.4,0.4,0.5,0.9,0.5,1.5c0,0,0,0,0,0.1c0,0,0.1,0.1,0.1,0.1c0.1,0.1,0.3,0.2,0.5,0.4c0.3,0.2,0.6,0.2,1,0.3c0.1,0,0.2,0,0.4,0
		c0.4-0.1,0.8-0.3,1.1-0.6c0.2-0.2,0.4-0.5,0.5-0.8c0.1-0.2,0.1-0.4,0.1-0.7c0-0.3-0.1-0.6-0.2-0.8s-0.2-0.5-0.5-0.6
		C73.8,13.2,73.7,13.1,73.6,13L73.6,13z"/>
	<path class="st5" d="M70,14.7c-0.1-0.1-0.1-0.1-0.2-0.2v0c-0.4-0.4-0.9-0.6-1.4-0.6c-0.6,0-1.1,0.2-1.5,0.6
		c-0.4,0.4-0.6,0.9-0.6,1.5c0,0.4,0.1,0.8,0.3,1.1c0,0,0.1,0.1,0.1,0.1c0.2,0.1,0.4,0.2,0.5,0.4c0.1,0.1,0.2,0.2,0.3,0.3
		C67.7,18,67.8,18,68,18c0.1,0,0.2,0,0.4,0c0.3,0,0.6-0.1,0.9-0.2c0.2-0.1,0.4-0.2,0.5-0.4c0.4-0.4,0.6-0.8,0.6-1.3v0
		c0,0,0-0.1,0-0.1C70.4,15.5,70.3,15.1,70,14.7L70,14.7z"/>
	<path class="st5" d="M66.1,17.4c-0.2-0.1-0.4-0.1-0.7-0.1c-0.6,0-1,0.2-1.4,0.6c-0.4,0.4-0.6,0.9-0.6,1.5c0,0.2,0,0.4,0.1,0.6
		c0.2-0.1,0.3-0.1,0.5-0.1c0.1,0,0.1,0,0.2,0c0.3,0,0.5,0,0.7,0.1c0.4,0.1,0.8,0.3,1.1,0.7c0.2,0.2,0.3,0.4,0.4,0.5
		c0.2-0.1,0.4-0.2,0.5-0.4c0.4-0.4,0.6-0.9,0.6-1.5c0-0.1,0-0.3,0-0.4c-0.1-0.3-0.1-0.5-0.3-0.7v0c-0.1-0.1-0.2-0.2-0.3-0.4
		c-0.2-0.2-0.4-0.3-0.6-0.4C66.2,17.4,66.2,17.4,66.1,17.4L66.1,17.4z"/>
	<path class="st5" d="M74.8,13.8c0.1,0.3,0.2,0.6,0.2,0.9c0,0.2,0,0.5-0.1,0.7c0.1,0.2,0.2,0.4,0.4,0.6c0.2,0.2,0.5,0.4,0.8,0.5
		c0,0,0.1,0,0.1,0.1c0.2,0,0.4,0,0.5,0c0.2,0,0.3,0,0.5,0c0.1-0.2,0.3-0.5,0.5-0.7c0.2-0.2,0.4-0.3,0.5-0.4
		c-0.2-0.4-0.4-0.9-0.4-1.4c0-0.4,0.1-0.7,0.2-1.1c-0.1-0.1-0.2-0.2-0.3-0.2c-0.3-0.2-0.7-0.3-1.1-0.3c-0.6,0-1.1,0.2-1.5,0.6
		c-0.1,0.1-0.2,0.2-0.2,0.2C75,13.5,74.9,13.7,74.8,13.8L74.8,13.8z"/>
	<path class="st5" d="M85.1,9.6c-0.2-0.2-0.3-0.4-0.5-0.4c-0.3-0.2-0.6-0.2-1-0.3c0,0-0.1,0-0.1,0c-0.6,0-1.2,0.2-1.6,0.7
		c-0.4,0.4-0.6,0.9-0.7,1.5c0,0,0,0.1,0,0.1c0,0.1,0,0.2,0,0.2c0.6,0.1,1.1,0.4,1.5,0.8c0.4,0.4,0.6,0.8,0.8,1.3c0,0,0.1,0,0.1,0
		c0.6,0,1.2-0.2,1.6-0.7c0.1-0.1,0.2-0.2,0.3-0.3c0-0.1,0.1-0.1,0.1-0.2c0.1-0.2,0.2-0.5,0.2-0.8v0c0-0.1,0-0.2,0-0.2
		C85.8,10.5,85.5,10,85.1,9.6L85.1,9.6z"/>
	<path class="st5" d="M80.9,11.9c-0.1,0-0.1,0-0.2,0h0c-0.6,0-1.2,0.2-1.6,0.6c-0.1,0.1-0.2,0.2-0.3,0.3c-0.1,0.1-0.1,0.2-0.2,0.3v0
		c-0.2,0.3-0.2,0.6-0.2,1c0,0.4,0.1,0.8,0.3,1.2c0,0,0.1,0,0.1-0.1c0.3-0.1,0.6-0.1,0.9-0.1c0.2,0,0.4,0,0.5,0.1
		c0.3,0,0.5,0.1,0.7,0.2c0.2,0.2,0.5,0.3,0.7,0.5c0.1,0.1,0.1,0.1,0.2,0.2c0.2-0.1,0.3-0.2,0.5-0.4c0.1-0.1,0.3-0.3,0.4-0.5
		c0.1-0.1,0.2-0.3,0.2-0.4c0.1-0.2,0.1-0.5,0.1-0.7c0-0.1,0-0.3,0-0.4c-0.1-0.4-0.3-0.8-0.6-1.2C81.9,12.1,81.5,11.9,80.9,11.9
		L80.9,11.9L80.9,11.9z"/>
	<path class="st5" d="M78.8,15.8L78.8,15.8c-0.3,0.1-0.5,0.3-0.6,0.5c-0.2,0.2-0.4,0.4-0.5,0.7c-0.1,0.2-0.1,0.4-0.2,0.7v0
		c0,0.1,0,0.1,0,0.2c0,0.6,0.2,1.2,0.7,1.6c0.1,0.1,0.2,0.2,0.3,0.3c0.4-0.2,0.8-0.3,1.2-0.3c0.2,0,0.5,0.1,0.8,0.1
		c0.2,0,0.3,0.1,0.5,0.2c0.1-0.1,0.2-0.1,0.2-0.2c0-0.1,0.1-0.1,0.1-0.1c0.1-0.1,0.2-0.2,0.3-0.4c0.2-0.4,0.4-0.8,0.4-1.2
		c0-0.5-0.1-0.9-0.4-1.3c-0.1-0.1-0.2-0.2-0.2-0.3c-0.1-0.1-0.3-0.3-0.5-0.4c-0.3-0.2-0.7-0.3-1.1-0.3c0,0-0.1,0-0.1,0
		c-0.3,0-0.5,0-0.8,0.1v0C78.9,15.7,78.9,15.7,78.8,15.8L78.8,15.8z"/>
	<path class="st5" d="M80.9,20.3L80.9,20.3C80.6,20.1,80.3,20,80,20c-0.1,0-0.2,0-0.3,0c-0.4,0-0.8,0.1-1.1,0.3
		c-0.2,0.1-0.4,0.3-0.5,0.4c-0.2,0.2-0.4,0.4-0.5,0.7c-0.1,0.3-0.2,0.6-0.2,0.9c0,0.6,0.2,1.1,0.7,1.6c0.1,0.1,0.3,0.3,0.4,0.4v0
		c0.4,0.2,0.8,0.3,1.2,0.3c0.5,0,1-0.2,1.4-0.5c0.1-0.1,0.1-0.1,0.2-0.2c0.5-0.4,0.7-0.9,0.7-1.6c0-0.6-0.2-1.2-0.7-1.6
		C81.2,20.5,81,20.4,80.9,20.3L80.9,20.3z"/>
	<path class="st5" d="M79.9,29.7L79.9,29.7c-0.2,0.4-0.3,0.7-0.3,1c0,0.4,0.1,0.8,0.4,1.1c0.2,0.2,0.4,0.4,0.6,0.4
		c0.2,0.1,0.4,0.1,0.6,0.1c0.5,0,0.9-0.2,1.2-0.5c0,0,0.1-0.1,0.1-0.1c0.2-0.3,0.4-0.6,0.4-1c0-0.4-0.1-0.7-0.3-0.9
		c-0.1-0.1-0.1-0.2-0.2-0.3c-0.3-0.3-0.7-0.5-1.2-0.5c-0.5,0-0.8,0.2-1.2,0.5C80,29.6,79.9,29.6,79.9,29.7L79.9,29.7z"/>
	<path class="st5" d="M65.7,20.9c-0.2-0.2-0.4-0.4-0.6-0.4c-0.2-0.1-0.5-0.2-0.8-0.2c-0.2,0-0.3,0.1-0.4,0.1c-0.1,0-0.2,0.1-0.4,0.1
		c-0.2,0.1-0.5,0.3-0.6,0.5c-0.4,0.4-0.6,0.9-0.6,1.5c0,0.6,0.2,1,0.6,1.4c0.1,0.1,0.1,0.1,0.2,0.2c0.3-0.2,0.6-0.2,0.9-0.2h0
		c0.5,0,0.9,0.1,1.3,0.4c0.2-0.1,0.4-0.3,0.5-0.4c0.1-0.1,0.1-0.1,0.2-0.2c0.2-0.3,0.3-0.6,0.4-0.9c0-0.1,0-0.2,0-0.3
		c0-0.2,0-0.4-0.1-0.6c0-0.1-0.1-0.1-0.1-0.2C66,21.3,65.9,21.1,65.7,20.9L65.7,20.9z"/>
	<path class="st5" d="M65,24.7L65,24.7c-0.3-0.2-0.7-0.3-1.1-0.3c-0.1,0-0.2,0-0.3,0c-0.2,0-0.4,0.1-0.6,0.2
		c-0.2,0.1-0.4,0.2-0.6,0.4c-0.4,0.4-0.6,0.9-0.6,1.4c0,0.6,0.2,1.1,0.6,1.5c0.4,0.4,0.9,0.6,1.5,0.6c0.1,0,0.3,0,0.5-0.1
		c0.2-0.1,0.5-0.2,0.7-0.3c0.1-0.1,0.2-0.2,0.3-0.2c0-0.1,0.1-0.1,0.2-0.2c0.3-0.4,0.4-0.8,0.4-1.3c0-0.6-0.2-1-0.6-1.4
		C65.2,24.9,65.1,24.8,65,24.7L65,24.7z"/>
	<path class="st5" d="M68.6,33L68.6,33c-0.2-0.1-0.5-0.2-0.8-0.2c-0.5,0-0.9,0.1-1.3,0.5c-0.4,0.4-0.5,0.8-0.5,1.4
		c0,0.4,0.2,0.9,0.5,1.2c0.4,0.3,0.8,0.5,1.3,0.5c0.2,0,0.4,0,0.5-0.1c0,0,0,0,0-0.1c0,0,0.1-0.1,0.1-0.1c0,0,0.1,0,0.1,0
		c0.2-0.1,0.3-0.2,0.5-0.4c0.4-0.4,0.6-0.8,0.6-1.2c0-0.5-0.2-1-0.6-1.4C69,33.1,68.8,33.1,68.6,33L68.6,33z"/>
	<path class="st5" d="M98.7,24c0-0.1,0-0.1,0-0.2c0-0.5-0.2-1-0.5-1.4c-0.5,0.5-1.1,0.7-1.8,0.7h-0.1c-0.2,0-0.4,0-0.5-0.1
		c-0.5-0.1-0.9-0.3-1.3-0.6c-0.4,0.4-0.5,0.9-0.5,1.4c0,0.1,0,0.1,0,0.2c0.6-0.3,1.3-0.2,2,0.3c0,0,0.1,0.1,0.1,0.1c0,0,0,0.1,0,0.1
		c-0.1,0.5-0.1,0.9,0.2,1.4c0.2-0.5,0.3-0.9,0.2-1.4c0-0.1,0-0.1,0-0.1c0-0.1,0.1-0.1,0.1-0.1C97.4,23.8,98.1,23.7,98.7,24L98.7,24z
		"/>
	<path class="st5" d="M97.6,30c0.3-0.3,0.5-0.7,0.5-1.1c0-0.5-0.2-0.8-0.5-1.2c-0.4-0.3-0.7-0.5-1.2-0.5c-0.2,0-0.3,0-0.5,0.1
		c-0.3,0.1-0.5,0.2-0.7,0.4c-0.3,0.3-0.5,0.7-0.5,1.2c0,0.5,0.1,0.9,0.5,1.1c0.1,0.1,0.1,0.1,0.2,0.2c0.3,0.2,0.6,0.4,1,0.4
		c0.4,0,0.7-0.1,1-0.4C97.5,30.2,97.5,30.1,97.6,30L97.6,30z"/>
	<path class="st0" d="M128.4,74.9c-0.2-0.4-0.4-0.6-0.5-0.9c-0.1-0.1-0.1-0.1-0.1-0.1c-0.1,0-0.1,0-0.2,0.1c-0.1,0-0.1,0.1-0.1,0.1
		c-0.4,0.8-0.9,1.3-1.6,1.5h0c-0.1,0.1-0.2,0.1-0.2,0.1c-0.8,0.5-1.8,0.6-2.8,0.5c-1.4-0.2-2.6,0-3.7,0.5h0.1
		c-0.2,0.1-0.4,0.2-0.6,0.3c-4.5,2.3-6.7,6.5-6.3,12.7v0.1c0.2,5.6,1.5,10.9,4,15.8c1.2,2.6,1.5,5.4,0.5,8.3v0
		c-0.1,0.5-0.2,0.9-0.4,1.1c-0.2,0.1-0.4,0-0.8-0.2l0,0c-0.8-0.8-1.3-1.7-1.6-2.8c-0.3-1.1-0.8-2.1-1.5-3.1
		c-0.7-1.1-1.7-1.9-2.8-2.5c-1.1-0.6-2.3-1-3.5-1.2c-1.2-0.3-2.3-0.8-3.3-1.5c-0.7-0.5-1.2-1.1-1.7-1.8c0.1,0,0.2,0,0.4,0.1
		c0.1,0,0.1,0,0.2-0.1c0.1,0,0.1-0.1,0.1-0.1c0-0.1,0-0.1-0.1-0.2c-0.2-0.4-0.5-0.7-0.7-1.1c0.7,0,1.5,0,2.2,0.1c0.1,0,0.2,0,0.2,0
		c0,0,0.1,0,0.1-0.1c0.1-0.1,0.1-0.1,0.1-0.1c0-0.1,0-0.1,0-0.2c-0.1,0-0.1-0.1-0.1-0.1c-0.4-0.2-0.6-0.5-0.8-0.9
		c1.2,0,2.5,0,3.8-0.1c1-0.1,1.9-0.2,2.9-0.6c0-0.1,0.1-0.1,0.1-0.1c0.1-0.1,0.1-0.2,0.1-0.2c-0.1,0-0.1-0.1-0.2-0.1
		c-0.1-0.1-0.3-0.2-0.5-0.4c-1-0.6-1.7-1.4-2.1-2.4c-0.2-0.2-0.2-0.5-0.3-0.8c0.9-0.1,1.8-0.4,2.5-0.9c0.7-0.5,1.3-1,1.7-1.6
		c0.1-0.1,0.1-0.1,0.1-0.1c0-0.1-0.1-0.2-0.1-0.2c-1-0.8-1.4-1.9-1.2-3.2c0.2-1.1,0.2-2.3,0.2-3.4c0-0.9,0.1-1.7,0.2-2.6
		c0.2-1.3,0.2-2.6-0.1-3.8c-0.2-1.2-0.7-2.2-1.3-3.2c0.2-0.2,0.4-0.2,0.5-0.2c0,0.1,0,0.1,0.1,0.1c0,0.1,0,0.1,0,0.2
		c0,0,0.1,0,0.1,0c0.6,0.1,1.2-0.1,1.6-0.5c0,0,0,0,0,0c-0.1,0.1-0.1,0.1,0,0.2c0,0.1,0,0.1,0.1,0.1c0.1,0,0.1,0,0.1,0
		c0.5-0.1,0.6-0.2,0.7-0.5c0.1-0.2,0-0.5-0.3-0.8c1.5-2.4,1.5-5.2-0.2-8.5c0.1-0.1,0.2-0.1,0.3-0.2c0.2-0.2,0.4-0.4,0.4-0.8
		c0-0.2,0-0.4-0.1-0.5l0.5-0.4l0.3,0.3c0,0.1,0.1,0.1,0.1,0.1c0.1,0,0.2,0,0.2-0.1l0.3-0.2c0-0.1,0-0.1,0-0.1
		c0.1-0.1,0.1-0.1,0.1-0.2c-0.1-0.1-0.1-0.1-0.1-0.1l-0.3-0.2l0.2-0.2c0,0,0,0,0-0.1c0-0.1,0-0.1,0-0.1c0-0.1,0-0.1,0-0.1l-0.3-0.4
		c-0.1-0.1-0.1-0.1-0.2-0.1c0-0.1-0.1,0-0.2,0.1l-0.2,0.2l-0.3-0.3c-0.1-0.1-0.1-0.1-0.1-0.1c-0.1,0-0.1,0-0.2,0.1l-0.3,0.2
		c0,0,0,0.1,0,0.1c0,0.1,0,0.1,0,0.1l0.3,0.3l-0.5,0.5c-0.1-0.1-0.2-0.1-0.3-0.1h-0.1c-0.4,0-0.6,0.1-0.8,0.3
		c-0.1,0.1-0.2,0.2-0.3,0.4c-2.7-1.6-5.2-1.9-7.3-0.9c-0.1,0-0.1,0-0.1-0.1c0,0,0,0-0.1,0c-0.3-0.4-0.5-0.5-0.8-0.4
		c-0.2,0-0.5,0.2-0.5,0.6c-0.1,0.1-0.1,0.1,0,0.2c0.1,0.1,0.1,0.1,0.1,0.1c0.1,0,0.1,0,0.2,0c0-0.1,0-0.1,0-0.1
		c-0.5,0.3-0.7,0.9-0.6,1.5c-0.1,0.1-0.1,0.1,0,0.1c0.1,0.1,0.1,0.1,0.1,0.1c0,0,0,0,0,0c0,0.2-0.1,0.2-0.2,0.4l-0.3,0.3
		c-0.1-0.1-0.2-0.1-0.3-0.1c-1.1-0.4-2.2-0.5-3.5-0.4c-0.9,0.1-1.6,0.5-1.9,1.3c-0.1,0.1-0.1,0.1-0.1,0.1c0,0,0,0,0.1,0.1
		c0.1,0.4,0.3,0.6,0.5,0.8c-0.1,0.2-0.1,0.4,0,0.7c-0.2-0.1-0.4-0.2-0.5-0.4c-0.1-0.1-0.1-0.1-0.1-0.1c-0.1-0.1-0.1-0.1-0.2-0.2
		c-0.1,0-0.1,0-0.1,0c-1.5-0.4-2.7,0-3.6,1.1c-0.8,0.9-1.8,1.4-2.9,1.6c-0.1,0-0.2,0-0.2,0c-0.1,0-0.1,0-0.1,0.1
		c-0.1,0.1-0.1,0.1-0.1,0.2c0.1,0.9,0.5,1.6,1.3,2.1c-0.2,0.7-0.1,1.3,0.2,1.7c0.3,0.5,0.8,0.7,1.6,0.7c1,0.1,1.9-0.3,2.6-1.1
		c0.7-0.9,1.6-0.9,2.5-0.1c0,0.1,0.1,0.2,0.1,0.3c0.2,1.2-0.3,2.1-1.5,2.4c-0.8,0.2-1.7,0.4-2.6,0.3c-0.4,0-0.7,0-1.1-0.1
		c-0.8-1.2-1.9-1.8-3.2-1.9c-1.2-0.1-2.3-0.5-3.3-1.2H84c-0.5-0.5-0.8-0.9-0.9-1.5c0-0.1-0.1-0.1-0.1-0.2c-0.1,0-0.1,0-0.1,0
		c-0.1,0-0.1,0-0.2,0.1c-0.1,0.1-0.1,0.1-0.1,0.2c-0.2,1.3,0,2.5,0.6,3.6c0.2,0.4,0.4,0.7,0.8,1c1.1,0.8,2.3,1.1,3.7,0.7
		c0.2-0.1,0.5-0.1,0.8-0.1c0.1,1,0.1,2.1,0,3.2V81c-0.1,0.3-0.2,0.7-0.4,0.9c-0.1,0.1-0.1,0.1-0.1,0.2c0,0.1,0,0.1,0.1,0.1
		c0.1,0.1,0.1,0.1,0.2,0.1c0.9,0.2,1.9,0.3,2.9,0.4c1.4,0.1,2.6,0,3.8-0.4c0.2,0,0.5-0.1,0.7-0.2c0.1,1.1-0.3,1.9-1.2,2.5
		c-0.3,0.2-0.7,0.5-1,0.8c-1.1-0.6-2.3-0.8-3.6-0.8c-0.5,0-0.9-0.1-1.2-0.3c-0.3-0.3-0.5-0.7-0.5-1.3c0,0,0-0.1-0.1-0.1
		C88.2,83,88.1,83,88.1,83C88,83,88,83,87.9,83c-0.6,0.5-1,1.1-1.1,1.8c-0.9-0.8-1.7-1.7-2.3-2.7v0c-0.4-0.6-0.5-1.2-0.4-1.9
		c0,0,0-0.1-0.1-0.2c0-0.1-0.1-0.1-0.1-0.1c-0.1,0-0.1,0-0.1,0c-1.2,0.7-2,1.8-2.4,3.1c0,0.1,0,0.2,0,0.4c-0.6-0.4-1.3-0.8-1.9-1
		C78.2,82,77,82,76,82.9v0.1c-0.1,0-0.1,0-0.1,0c-0.1,0.1-0.1,0.1-0.1,0.2c0,0.1,0,0.1,0.1,0.1c0,0.1,0.1,0.1,0.1,0.1
		c0.8,0.3,1.5,1,2,1.8c0.2,0.3,0.3,0.6,0.4,1c-0.9,0.4-1.9,0.7-2.9,1.1v0c-1.4,0.5-2.3,0.2-2.7-0.8c-0.5-1.1-0.5-2.2,0.1-3.3
		c0.5-1,1.1-2.1,1.8-3.1c0.6-1,1-2.1,1.2-3.4c0.2-0.8,0.2-1.6,0.4-2.4c0-0.2,0-0.5,0.1-0.7c0-0.1,0-0.1,0-0.1
		c-0.1-0.1-0.1-0.1-0.1-0.1c-0.1-0.1-0.1-0.1-0.1-0.1c-0.1,0-0.1,0.1-0.1,0.1c-0.6,0.6-1.3,1.2-1.9,1.7c0.4-0.5,0.6-1,0.9-1.5
		c0.5-1,0.8-2.1,1-3.3c0.2-1.5-0.2-2.7-0.9-3.8v0c-0.7-1.2-1.8-1.9-3.1-2.2c-0.1-0.1-0.3-0.1-0.5-0.2c0.4-1.4,0-2.4-0.9-3.1
		c-1-0.8-2.3-1.1-3.8-0.9h0c-0.4,0.1-0.6,0.2-0.7,0.5c-0.1,0.1-0.1,0.1-0.1,0.1c0,0.1,0.1,0.1,0.1,0.2c0,0.1,0,0.1,0.1,0.1
		c1.2,0.3,1.8,1.2,1.8,2.4c0,0.3,0,0.5-0.1,0.8c-0.9-0.5-2-0.7-3.2-0.5c-1,0.2-1.7,0.7-2,1.6c-0.1,0-0.1,0.1,0,0.2
		c0,0.1,0,0.1,0.1,0.1c0.1,0,0.1,0,0.2,0c1.2-0.2,2,0,2.5,0.8c-1.1,0.5-1.5,1.5-1.5,2.9v0.1c0.1,0.4,0.1,0.8,0.1,1.2
		c-0.5-0.1-1-0.3-1.4-0.8c-0.1,0-0.1-0.1-0.1-0.1c-0.1,0-0.2,0-0.2,0.1c0,0-0.1,0.1-0.1,0.1c-0.2,1.3,0.3,2.4,1.5,3.1h-0.1
		c0.5,0.4,1,0.6,1.5,0.8c0,1.2-0.3,2.3-0.8,3.2c-0.5,0.9-0.8,1.8-1,2.9V80c-0.2,1.1-0.2,2.1-0.2,3.2c0,0.1,0,0.1,0.1,0.2
		c0.1,0,0.1,0,0.2,0.1c0,0,0.1,0,0.1-0.1c0.1,0,0.1,0,0.1-0.1c0.4-0.9,1.1-1.8,1.9-2.4h0.1c-0.1,0.7-0.2,1.5-0.4,2.2
		c-0.4,1.2-0.5,2.4-0.4,3.7c0,0.9,0.3,1.8,0.8,2.5c0.1,0.1,0.1,0.1,0.2,0.1c0.1,0,0.1,0,0.2,0c0.1,0,0.1-0.1,0.1-0.1
		c0.3-0.8,0.7-1.6,1.2-2.3c-0.1,0.7-0.1,1.4-0.3,2c0,0,0,0,0,0.1c0,0.1,0,0.1,0,0.1c0,0.1,0,0.1,0.1,0.2c0.1,0.1,0.1,0.1,0.1,0.1
		c0.1,0,0.1,0,0.1,0c0.6-0.1,1.1-0.3,1.7-0.6c0,0.9,0,1.7-0.2,2.6c-0.2,0.9-0.5,1.7-1,2.3c0,0.1,0,0.1,0,0.1v0.1
		c0,0.1,0,0.1,0.1,0.1c0.1,0.1,0.1,0.1,0.2,0.1c1,0.1,2,0.2,3.1,0.4H71c0.9,0.2,1.9,0.2,2.9,0.2c0.4,0,0.9,0,1.3,0
		c-0.8,0.6-1.5,1.3-2.2,1.9c-0.1,0.1-0.3,0.2-0.4,0.3c-0.1,0.1-0.1,0.1-0.1,0.2c0,0,0,0.1,0.1,0.1c0.1,0.1,0.1,0.1,0.2,0.1
		c0.8,0.3,1.7,0.5,2.7,0.6c1,0.1,1.9,0.1,2.7,0.1c0.6,0,1-0.1,1.4-0.1c0.4,1.4,1.2,2.2,2.6,2.5c0.8,0.2,1.7,0.2,2.4,0.1
		c-0.1,0.2-0.2,0.4-0.2,0.5c-0.9,0.1-1.9,0.2-2.8,0.4c-0.9,0.1-1.9,0.1-2.9,0.1c0,0-0.1,0-0.2,0.1c-0.1,0.1-0.1,0.1-0.1,0.2
		c0,0.1,0,0.1,0,0.2c0.6,0.9,1.5,1.5,2.6,1.9c0,0-0.2,0-0.9,0.1c-0.6,0.1-1.5,0-2.7-0.1c-0.6-0.1-1.2-0.2-1.7-0.2
		c-0.5-0.6-1.1-1.2-1.7-1.8c-0.9-0.9-2.1-1.4-3.5-1.3c-1,0.1-2,0.1-3,0.1c-0.8-0.7-1.7-1.3-2.6-1.8c-1-0.5-2-0.7-3.2-0.7
		c-0.1-0.1-0.1,0-0.1,0.1c-0.1,0.1-0.1,0.1-0.1,0.1c0,0.1,0,0.1,0.1,0.2c0,0.1,0.1,0.1,0.1,0.1c0.9,0.5,1.4,1.3,1.5,2.4
		c0.2,0.7,0.2,1.5,0.2,2.2c-0.8-0.2-1.5-0.4-2.4-0.4h-0.1c-0.7-0.1-1.4-0.1-2.1-0.1c-0.1,0-0.1,0-0.1,0.1c-0.1,0.1-0.1,0.1-0.1,0.2
		c-0.1,0-0.1,0.1-0.1,0.1c0,0.1,0.1,0.1,0.1,0.1c0.9,0.8,1.7,1.6,2.5,2.5c0.5,0.6,1.2,1,1.9,1.3c-0.7,1.2-0.5,2.2,0.6,3.2
		c0.6,0.5,1.4,0.7,2.2,0.7c0.1,1.1-0.4,1.9-1.5,2.4c-0.2,0.1-0.4,0.2-0.5,0.3c-0.1,0.1-0.1,0.1-0.1,0.1c0,0.1,0,0.1,0.1,0.2
		c0,0.1,0.1,0.1,0.1,0.1c1.3,0.6,2.4,0.5,3.5-0.3c0.5-0.4,0.9-0.8,1.2-1.1c-0.1,0.3-0.2,0.6-0.2,0.9c-0.1,0.1-0.1,0.2-0.1,0.4
		c-0.1,0.1-0.1,0.1-0.1,0.1c0,0.1,0.1,0.1,0.1,0.2c0.1,0,0.1,0,0.1,0c1.4,0.2,2.7-0.1,3.7-0.9c0.3-0.2,0.7-0.5,1-0.8
		c-0.1,0.6-0.4,1.1-0.8,1.6c-0.1,0.1-0.1,0.1-0.1,0.1c0,0.1,0,0.1,0.1,0.2c0.1,0.1,0.1,0.1,0.1,0.1c1.2,0.3,2.3,0.1,3.3-0.8h0.1
		c0.8-0.7,1.5-1.7,1.9-2.8c0.2,0.7,0.2,1.5-0.1,2.2c0,0.1,0,0.1,0,0.2c0,0.1,0.1,0.1,0.1,0.1c0.1,0,0.1,0,0.1,0
		c1.1-0.2,2.2-0.8,3.3-1.6c0.7-0.5,1.2-1.2,1.7-1.8c0.5,0.1,0.9,0.1,1.1,0.4c0.2,0.2,0.2,0.6,0.2,1c0,0.1,0,0.1,0.1,0.1
		c0,0.1,0.1,0.1,0.1,0.2c0,0,0.1,0,0.1,0s0.1,0,0.1-0.1c0.5-0.6,1-1.3,1.5-2.1c1,0.6,1.6,1.4,1.7,2.5v0.1c0,0.1,0,0.3,0,0.4
		c0,0.1,0,0.1,0.1,0.2c0.1,0,0.1,0,0.1,0.1c0.1,0,0.1,0,0.2,0c1.1-0.5,1.9-1.5,2.5-2.8c0.7,0.1,1.2,0.6,1.7,1.3
		c0.5,0.9,1.2,1.6,2,2.2c-0.8,0.1-1.5,0.2-2.3,0.3c-1.2,0.2-2.5,0.3-3.7,0.4c-1.4,0.1-2.5,0.7-3.4,1.7h-0.1c-0.8,1-1.3,2.2-1.4,3.5
		c0,0.4,0,0.7,0,1.1c0,0.1,0,0.1,0,0.1c0.1,0.1,0.1,0.1,0.2,0.1c0.1,0,0.1,0,0.2,0c0.1-0.1,0.1-0.1,0.1-0.2c0.3-0.8,0.9-1.3,1.8-1.5
		c0,0,0.1,0,0.1,0c-0.4,0.6-0.7,1.3-1.1,2c-0.5,1.1-1.3,2.1-2.2,2.8c-0.8,0.6-1.7,1.2-2.6,1.6c-0.1,0.1-0.1,0.1-0.1,0.1
		c-0.1,0.1-0.1,0.1,0,0.2c0,0,0.1,0.1,0.1,0.1c0.8,0.5,1.8,0.7,2.8,0.8c0.7,0,1.4,0,2.1-0.1c-0.4,0.3-0.8,0.5-1.3,0.7h0.1
		c-0.4,0.1-0.8,0.3-1.2,0.4l0.1-0.1c-0.1,0.1-0.1,0.1-0.2,0.1c0,0.1,0,0.1,0,0.1c-0.1,0.1-0.1,0.1-0.1,0.2c0,0.1,0.1,0.1,0.1,0.1
		c0.6,0.7,1.6,1.1,2.7,1.2c0.4,0.1,0.9,0,1.4-0.1c-0.1,0.5-0.4,1-0.9,1.4c-0.1,0.1-0.1,0.1-0.1,0.2c0,0.1,0,0.1,0.1,0.1
		c0.1,0.1,0.1,0.1,0.2,0.1c1.4,0.2,2.6-0.1,3.7-0.8c0.4-0.2,0.7-0.5,1.1-0.7c-0.2,0.6-0.6,1.2-1,1.7c-0.7,0.8-1.7,1.5-2.7,1.9
		c-0.3,0.1-0.6,0.2-1,0.1c-1.1-0.1-2.2-0.2-3.4-0.5c-0.5-0.2-1-0.2-1.5-0.2c-0.5-0.8-1.2-1.5-1.9-2.1c-1-0.8-2.1-1.4-3.3-1.5
		c-1.1-0.2-2.3-0.2-3.4-0.3c-1.3-0.1-2.5,0.1-3.5,0.5h-0.1c-0.2,0.1-0.4,0.1-0.5,0.3c-0.1,0-0.1,0.1-0.1,0.1c0,0.1,0,0.1,0.1,0.1
		c0,0.1,0,0.1,0.1,0.2c0.9,0.4,1.8,1,2.8,1.8c0.4,0.4,0.7,0.9,0.8,1.5v0.1c-0.8,0.6-1.7,1.4-2.4,2.2h0c-0.2,0.3-0.4,0.6-0.5,1
		c0,0.1,0,0.1,0.1,0.2c0,0,0.1,0,0.1,0.1c0.1,0,0.1,0,0.2,0c1.3-0.3,2.3-0.2,3.2,0.3c0.8,0.5,1.2,0.9,1.4,1c0.1,0.1,0.2,0.5,0.6,1
		c0.2,0.4,0.3,1.2,0,2.4c-0.1,0.6-0.4,1.2-0.8,1.6c-0.1,0.1-0.1,0.1-0.1,0.1c0,0.1,0.1,0.2,0.1,0.2c0,0.1,0.1,0.1,0.1,0.1
		c1.1,0,2.2-0.1,3.4-0.2c1.1-0.1,2.1-0.5,3.2-1c0.3,0.4,0.6,0.9,0.9,1.5c0,0.1,0.1,0.1,0.1,0.1c0,0,0.1,0,0.1,0c0.1,0,0.1,0,0.1,0
		c0.5-0.6,0.9-1.4,1.2-2.2c1.2,0.2,2.1,0.9,2.8,1.8c0.1,0.2,0.1,0.2,0.2,0.3c0.1,0.1,0.1,0.1,0.1,0.1c0,0.1,0.1,0.1,0.1,0.1
		c0.1-0.1,0.1-0.1,0.1-0.1c0.5-0.5,0.8-1.2,0.8-2c0.7,0.1,1.3,0.3,1.8,0.7c0.1,0.1,0.1,0.1,0.2,0.1c0,0,0.1,0,0.1-0.1
		c0.8-0.5,1.2-1.3,0.9-2.4c1.2-0.2,2.1,0.2,2.7,1.2c0.1,0.1,0.1,0.2,0.1,0.4c0,0.1,0,0.1,0,0.1c0.1,0.1,0.1,0.1,0.2,0.1
		c0,0,0.1,0,0.1,0c1.2-0.4,1.9-1.4,2.3-2.9c0.4-1.7-0.1-2.7-1.5-3.1c-0.6-0.2-1.3-0.3-1.9-0.3c0.1-0.7,0.2-1.4,0.6-2.1
		c0.6-0.9,1.3-1.7,2-2.3c0.6,0.6,0.9,1.2,1,2c0,0.1,0,0.1,0.1,0.2c0.1,0,0.2,0,0.2,0c0.1,0,0.1,0,0.2,0c0.5-0.5,1-1.2,1.5-1.9
		c0.6-0.9,1-2,1-3.1c0.7,0.5,1.3,1,1.9,1.6c0.1,0.1,0.2,0.2,0.3,0.4c0,0.1,0.1,0.1,0.1,0.1c0.1,0,0.1,0,0.1,0
		c0.1-0.1,0.1-0.1,0.2-0.1c0,0,0-0.1,0.1-0.1c0-0.4,0-0.9,0.1-1.4c0.2-1.5-0.2-2.6-1.3-3.4c-0.4-0.3-0.8-0.7-1.2-1.2
		c-0.4-0.6-0.6-1.4-0.7-2.1c0.3-0.1,0.6-0.1,1,0c0.9,0.1,1.8,0.2,2.7,0.2c-0.1,0.9,0.1,1.8,0.5,2.6c0,0,0.1,0,0.1,0.1
		c0,0,0.1,0,0.1,0c0.1,0,0.1,0,0.1-0.1c0.5-0.6,1.2-1.1,1.9-1.7c-0.1,0.8-0.2,1.6-0.1,2.5c0.1,1.1,0.1,2.2-0.3,3.2
		c-0.2,0.6-0.4,1.2-0.8,1.6c-0.1,0-0.1,0.1-0.1,0.1c0,0.1,0.1,0.1,0.1,0.2c0.1,0.1,0.1,0.1,0.1,0.1c0.9-0.1,1.8-0.5,2.4-1.4
		c0.4-0.5,0.6-0.9,0.9-1.5c0.1,1.2,0.1,2.5,0,3.7c0,1.1-0.4,2.2-0.9,3.3c-0.4,0.5-0.8,1-1.3,1.5c-0.1,0.1-0.1,0.1-0.1,0.2
		c0,0.1,0,0.1,0,0.2c0.1,0,0.1,0,0.2,0.1c0.1,0,0.1,0,0.1,0c1.1-0.5,2.2-1,3.3-1.6c1.1-0.6,2.1-1.4,3-2.3c0.6-0.7,1.2-1.5,1.8-2.3
		c0.5,0.7,0.7,1.6,0.7,2.6c0,0.9-0.2,1.9-0.3,2.8v0.1c-0.1,0.5-0.3,0.9-0.8,1.3v0.1c-0.9,0.8-2,1.4-3.1,1.7
		c-1.1,0.3-2.1,0.4-3.3,0.2c-1.2-0.2-2.5-0.2-3.8-0.2h-0.1c-0.4-0.1-0.7,0.1-0.9,0.2c-0.1,0-0.1,0-0.1,0.1c-0.1,0.1-0.4,0.2-0.9,0.4
		c-0.7,0.2-1.5,0.8-2.3,1.6c-0.9,0.8-1.5,1.5-1.8,2.1c-0.3,0.4-0.5,0.7-0.5,0.7c0,0-0.1,0-0.1,0.1c-0.1,0.1-0.1,0.2-0.1,0.2
		c0,0.1,0.1,0.1,0.1,0.2c0.1,0.1,0.1,0.1,0.1,0.1c1.2,0.1,2.4,0.2,3.6,0.1c0.1,0,0.2,0,0.2,0c-0.2,0.8-0.3,1.7-0.2,2.6
		c0.1,1.2,0.7,2.1,1.8,2.8c0,0.1,0,0.1,0.1,0.1c0.1,0,0.1,0,0.2-0.1c0,0,0,0,0.1-0.1c0.4-1.2,1.1-2.1,2.3-2.4h-0.1
		c0.1,0,0.1,0,0.1,0c0.8,0.7,1.6,1.4,2.5,2c1,0.7,2.1,1.2,3.3,1.4c0.1,0.1,0.3,0.1,0.4,0.1c0.1,0,0.2,0,0.2-0.1
		c0.1-0.1,0.1-0.1,0.1-0.2c0,0,0-0.1-0.1-0.2c-0.8-0.9-0.7-1.9,0.1-2.9c0.7-0.9,1.4-1.8,2.1-2.8c0.1,0,0.1-0.1,0.2-0.1
		c0.8,0.1,1.4,0.6,1.8,1.5c0.1,0.2,0.1,0.5,0.1,0.8c0,0.1,0.1,0.2,0.1,0.2c0.1,0,0.1,0,0.1,0c0.1,0,0.1,0,0.2,0
		c1.1-0.8,1.8-1.8,2.3-3c0.4-1.2,1.2-1.9,2.2-1.9c0.2,0.1,0.2,0.2,0.2,0.4c0,0.1,0.1,0.1,0.1,0.2c0.1,0.1,0.1,0.1,0.1,0.1
		c0.1,0,0.1,0,0.2-0.1c0.1-0.1,0.1-0.1,0.1-0.1c0.2-1.3-0.2-2.1-1.3-2.6c0.2,0,0.4,0,0.8,0h0c0.1,0,0.2,0,0.2,0c0.1,0,0.1,0,0.2,0
		c0.1-0.1,0.1-0.1,0.1-0.1c0-0.1,0-0.1,0-0.1c-0.2-1-0.9-1.6-1.8-1.9c0.1-0.3,0.1-0.7,0.1-1c0-0.1,0-0.2-0.1-0.5
		c-0.1,0-0.1-0.1-0.1-0.1c0-0.1-0.1-0.1-0.1-0.1c-0.1,0-0.1,0-0.1,0.1c-0.4,0.2-0.8,0.4-1.3,0.6c-0.3-0.2-0.4-0.5-0.4-0.7
		c0-0.3,0.2-0.6,0.7-0.9c0.8-0.6,1.7-1,2.7-1.3c1.3-0.4,2.3-1.1,3-2.3c0.3-0.5,0.5-1.2,0.6-1.9c0-0.1,0-0.1-0.1-0.2
		c-0.1-0.1-0.1-0.1-0.1-0.1c-0.1,0-0.1,0-0.2,0.1c-0.6,0.2-1.2,0.4-1.8,0.6c0.5-0.5,0.9-1,1.3-1.5c0.2-0.4,0.2-0.8,0.2-1.3
		c0-0.1,0-0.1-0.1-0.1c0-0.1-0.1-0.1-0.1-0.1c-0.1,0-0.1,0-0.1,0.1c-0.5,0.1-1.2,0.2-1.8,0.2c0.2-0.7,0.2-1.4,0.1-2.1
		c-0.1-0.6-0.3-1.2-0.5-1.8c-0.1-0.1-0.1-0.1-0.1-0.1c-0.1-0.1-0.1-0.1-0.2,0c-0.1,0-0.1,0-0.1,0c0,0,0,0-0.1,0
		c-0.1,0.1-0.1,0.1-0.1,0.2c-0.2,1.2-1,1.8-2.4,2.1c-1.3,0.2-2.4,0.1-3.4-0.5h-0.1c0,0,0-0.1,0-0.2c-0.1-1.2,0.1-2.3,0.4-3.4
		c0.4-1.1,1-1.9,2.1-2.5c0.5-0.3,0.9-0.3,1.2,0c0.1,1.1,0,2.2-0.4,3.2l-0.1,0.1c-0.1,0.4-0.4,0.8-0.8,1.1c-0.1,0-0.1,0.1-0.1,0.1
		c-0.1,0.1-0.1,0.1-0.1,0.1c0,0.1,0.1,0.1,0.1,0.2c0.1,0.1,0.1,0.1,0.1,0.1c1.5,0.2,2.7-0.1,3.6-1c0.1-0.1,0.1-0.2,0.2-0.2
		c0.8,0.5,1.2,1.4,1.2,2.5c0,0.2,0,0.5,0,0.7c0,0.1,0,0.1,0.1,0.1c0,0.1,0.1,0.1,0.1,0.1c0.1,0,0.1,0,0.1,0c1.3-0.3,1.9-1.4,1.9-3
		c-0.1-0.6-0.1-1.2-0.2-1.8c0.7,0.2,1.3,0.7,1.7,1.4c0.1,0.1,0.1,0.1,0.2,0.1c0,0,0.1,0,0.1,0c0.1-0.1,0.1-0.1,0.1-0.2
		c0.5-1.1,0.4-2.2-0.2-3.3c-0.3-0.5-0.6-0.9-1-1.2c0.8-0.4,1.3-1.1,1.4-2.2c0.1-1.3,0.1-2.5,0.2-3.8v0c0.1-0.4,0-0.7-0.2-1
		c0-0.1,0-0.1-0.1-0.1c-0.1-0.1-0.2-0.1-0.2-0.1c-0.1,0-0.1,0.1-0.1,0.1c-0.7,1-1.5,1.8-2.4,2.4h-0.1c-0.5,0.3-1,0.6-1.5,0.8
		c-0.1,0-0.1,0-0.1,0c0.5-2.7,0.2-5.7-1.1-9.1v-0.1c-2.6-4.8-4.1-10.3-4.4-16.6c0.1-3.4,0.7-5.8,1.8-7.2c1-1.3,2.5-1.8,4.5-1.2
		c0.5,1,0.4,1.9-0.4,2.7v-0.1c-0.9,0.8-1.8,1.7-2.5,2.6c-0.7,0.9-0.9,1.9-0.6,3.3c0.2,0.9,0.7,1.7,1.5,2.3c0.1,0.1,0.2,0.1,0.2,0.1
		c0.1,0,0.1,0,0.2-0.1c0.1-0.1,0.1-0.1,0.1-0.2c0-1,0.4-1.8,1.2-2.4c0.7-0.5,1.4-0.7,2-0.5c0.2,1.2,0.2,2.3-0.1,3.5
		c-0.4,1.2-0.3,2.4,0.2,3.7c0,0.1,0,0.1,0.1,0.1c0.1,0,0.1,0,0.1,0c0.1,0,0.1,0,0.1,0c0.1-0.1,0.1-0.1,0.1-0.1
		c0.1-0.5,0.4-1,0.6-1.4c0.6,0.8,1.3,1.6,1.9,2.4c0.5,0.7,0.8,1.5,1,2.3c0,0.1,0.1,0.1,0.1,0.1c0.1,0,0.1,0,0.1,0.1
		c0.1,0,0.1,0,0.2-0.1c0.1,0,0.1,0,0.1-0.1c0.1-0.3,0.2-0.6,0.4-0.8c0.3-0.5,0.5-1.1,0.6-1.7c0.1-0.5,0.1-0.9,0.1-1.4
		c0.8,0.1,1.5-0.3,2-1.1c0.5-0.7,0.7-1.5,0.7-2.4c-0.1-0.2-0.1-0.4-0.1-0.6c0-0.1,0-0.1-0.1-0.2c-0.1,0-0.1-0.1-0.1-0.1
		c-0.1,0-0.2,0-0.2,0.1c-0.8,0.6-1.7,0.5-2.8-0.2c-0.2-0.1-0.3-0.3-0.3-0.6c-0.1-1.1-0.1-2.3,0-3.5c0-0.3,0-0.6,0-0.9
		c0.7,0,1.4,0,2.1,0c1.2,0,2.1-0.5,2.7-1.6c0-0.1,0-0.1,0-0.1c0-0.1,0-0.1-0.1-0.2c-0.1-0.1-0.1-0.1-0.2-0.1
		c-1.2,0.1-2.2-0.3-3.1-1.2c-0.1-0.2-0.3-0.4-0.3-0.6c0.8-0.5,1.4-1.4,1.7-2.5c0.1-0.7,0.2-1.5,0.2-2.4c0,0,0-0.1-0.1-0.1
		c-0.1-0.1-0.1-0.1-0.2-0.1c-0.1,0-0.1,0.1-0.1,0.1c-0.6,0.6-1.3,1.1-2.1,1.4C128.9,77,128.9,76,128.4,74.9L128.4,74.9z M109.6,67.6
		c0.3-0.4,0.5-0.8,0.8-1.2c0.7,1.6,0.9,3.1,0.6,4.6C110.9,69.7,110.4,68.6,109.6,67.6L109.6,67.6z M108.1,64.5
		c-0.4,0.2-0.8,0.5-1.2,0.8c-0.6-0.6-1.3-1.1-2.1-1.4C106,63.9,107,64.1,108.1,64.5L108.1,64.5z"/>
	<path class="st2" d="M128,75.1c-0.1-0.1-0.2-0.3-0.2-0.4c-0.4,0.7-1,1.2-1.7,1.5c-0.1,0.1-0.2,0.1-0.2,0.1h0.1
		c-0.9,0.5-2,0.6-3.1,0.5c-1.3-0.2-2.4,0-3.5,0.5c-0.2,0.1-0.4,0.1-0.5,0.2c0,0,0,0-0.1,0.1c-4.4,2.1-6.4,6.2-6.1,12.3
		c0.2,5.5,1.6,10.7,3.9,15.6c1.3,2.7,1.5,5.6,0.6,8.7c-0.1,0.7-0.3,1.2-0.6,1.4c-0.4,0.2-0.8,0.1-1.4-0.3c-0.9-0.8-1.5-1.9-1.8-3.1
		c-0.3-1.1-0.8-2-1.4-2.9c-0.7-1-1.5-1.8-2.6-2.3c-1.1-0.5-2.2-1-3.4-1.2c-1.3-0.3-2.5-0.8-3.5-1.6c-0.9-0.6-1.6-1.5-2.1-2.4
		c-0.4-0.1-0.7-0.3-1.1-0.4c-0.8-0.4-1.5-1-2.2-1.6c0,0.2,0,0.5,0,0.8c0,0.1,0,0.2-0.1,0.2c-0.1,0-0.1,0-0.2,0c0,0-0.1,0-0.1,0
		c-0.4-0.2-0.7-0.5-1-0.7c-1.2-0.1-2.4,0.1-3.4,0.5c-1.2,0.5-2.4,0.7-3.7,0.7c-1.2,0-2.4,0.1-3.6,0.2c-0.2,0-0.4,0-0.7,0.1
		c-1,0.1-2,0.2-2.9,0.4c-0.8,0.1-1.6,0.1-2.4,0.1c0.5,0.6,1.2,1,2,1.4c0.3,0.1,0.6,0.2,0.9,0.2c0,0.1,0.1,0.1,0.1,0.1
		c0.1,0.1,0.1,0.1,0.1,0.1v0.1c-0.1,0.1-0.1,0.1-0.1,0.1c-0.1,0.1-0.1,0.1-0.1,0.1c-0.4,0.1-0.6,0.2-1,0.2c-1.3,0.1-2.5,0.1-3.7-0.1
		c-0.6-0.1-1.2-0.2-1.8-0.2c-0.1,0-0.1-0.1-0.2-0.1c-0.5-0.6-1.1-1.3-1.7-1.8c-0.9-0.8-1.9-1.2-3.2-1.2h-0.1
		c-0.9,0.1-1.9,0.1-2.8,0.1c-0.1,0-0.2,0-0.2,0c-0.1,0-0.2,0-0.2-0.1c-0.8-0.7-1.6-1.3-2.5-1.7c-0.7-0.4-1.4-0.6-2.1-0.6
		c0.6,0.5,1,1.3,1.1,2.2c0.1,0.9,0.2,1.8,0.2,2.7c0,0.1,0,0.1-0.1,0.1c-0.1,0.1-0.1,0.1-0.1,0.1c-0.1,0-0.1,0-0.1,0
		c-0.9-0.4-1.8-0.5-2.6-0.5c-0.5-0.1-1-0.1-1.4-0.1c0.7,0.6,1.4,1.4,2,2.1c0.5,0.6,1.2,1,2,1.2c0.1,0.1,0.1,0.1,0.1,0.1
		c0,0.1,0,0.1,0.1,0.1v0.1c-0.1,0.1-0.1,0.1-0.1,0.1c-0.7,1-0.6,2,0.4,2.8h0c0.6,0.5,1.2,0.7,2.1,0.6H66c0.1-0.1,0.1,0,0.1,0
		c0.1,0.1,0.1,0.1,0.1,0.2c0.2,1.4-0.4,2.4-1.7,3.1c-0.1,0-0.1,0-0.1,0c0.9,0.4,1.8,0.2,2.5-0.4c0.9-0.7,1.5-1.4,1.8-2
		c0-0.1,0.1-0.1,0.1-0.2c0.1-0.1,0.1-0.1,0.1,0c0.1,0,0.1,0.1,0.1,0.1c0.1,0.1,0.1,0.1,0.1,0.1c-0.1,0.8-0.2,1.6-0.4,2.3
		c0,0,0,0,0,0c1.2,0.1,2.2-0.2,3.1-0.9c0.4-0.2,0.6-0.5,0.9-0.7c1.3-1.1,2.2-2.3,2.8-3.7c-0.3,1.4-0.9,2.7-1.9,3.9
		c-0.1,0.6-0.3,1.2-0.7,1.8c0.9,0.2,1.8-0.1,2.5-0.7v-0.1c0.8-0.7,1.4-1.5,1.8-2.6v0c0.1-0.2,0.1-0.4,0.2-0.5c0.1,0,0.1-0.1,0.2-0.1
		c0.1-0.1,0.1-0.1,0.2,0c0.1,0.1,0.1,0.1,0.1,0.1c0.4,0.9,0.5,1.8,0.3,2.7c0.9-0.2,1.8-0.7,2.7-1.4c0.6-0.5,1.2-1.1,1.6-1.8
		c0.1-0.1,0.1-0.1,0.1-0.1c0.1-0.1,0.1-0.1,0.1-0.1c0.7,0,1.2,0.2,1.6,0.5c0.2,0.2,0.3,0.4,0.4,0.8c0.4-0.5,0.7-1.1,1.1-1.7
		c0-0.1,0.1-0.1,0.1-0.1c0.1-0.1,0.1-0.1,0.2,0c1.4,0.7,2.1,1.7,2.1,3c0,0.1,0,0.1,0,0.1c0.8-0.5,1.5-1.3,1.9-2.4v0.1
		c0-0.1,0-0.1,0-0.1c0.1-0.1,0.1-0.1,0.1-0.1c0.1-0.1,0.1-0.1,0.1-0.1c0.1,0,0.1,0,0.1,0c0.9,0.1,1.6,0.6,2.1,1.5
		c0.6,1,1.4,1.9,2.4,2.5h0.1c0,0,0,0,0,0.1c1.1,0.6,2.2,0.9,3.6,1c1.2,0.1,2.4,0.2,3.6,0.2c1,0.1,2.1,0.1,3.3,0.1
		c0.3-1.6-0.1-3.3-1.4-5c1.7,1.7,2.3,3.5,1.9,5.2c0,0,0,0,0,0.1c-0.1,0.6-0.2,1.2-0.3,1.8c-0.4,1.2-1.1,2.2-2.1,2.9
		c-0.9,0.6-1.4,1.4-1.6,2.4v0.1c0,0.1,0,0.1,0,0.1c-0.1,0.7,0,1.5,0.3,2.1c0.6-0.6,1.4-1.3,2.2-1.8c0.1-0.1,0.1-0.1,0.1-0.1
		c0.1,0,0.1,0,0.2,0.1c0,0,0,0,0,0.1v0.1c0.1,0.1,0.1,0.1,0.1,0.1c-0.2,0.9-0.3,1.9-0.2,2.9c0.2,1.2,0.1,2.3-0.3,3.5
		c-0.1,0.4-0.3,0.9-0.5,1.2c0.5-0.2,1-0.5,1.4-1.1c0.5-0.7,0.9-1.5,1.2-2.5c0-0.2,0.1-0.5,0.2-0.7c0,0,0.1-0.1,0.1-0.1
		c0.1-0.1,0.1-0.1,0.1,0h0.1c0,0,0,0.1,0.1,0.1c0.1,0,0.1,0.1,0.1,0.2c-0.2,0.6-0.2,1.2-0.2,1.8c0,1.3,0,2.5,0,3.8
		c-0.1,1.2-0.4,2.4-1,3.5c-0.1,0.2-0.3,0.4-0.5,0.7c0.7-0.3,1.4-0.7,2.1-1.1c1.1-0.6,2.1-1.3,2.9-2.2c0.7-0.8,1.3-1.6,1.9-2.5
		c0.1-0.1,0.1-0.1,0.1-0.1c0.1-0.1,0.1-0.1,0.2,0c0,0,0,0,0,0c0.1,0,0.1,0,0.1,0.1c0.7,0.9,1.1,1.9,1,3.2c-0.1,1-0.2,1.9-0.4,2.9
		c-0.1,0.6-0.3,1.2-0.9,1.7h-0.1c-1,0.9-2.1,1.5-3.2,1.8c-1.1,0.3-2.2,0.4-3.5,0.2c-1.2-0.2-2.5-0.2-3.8-0.2c-0.2-0.1-0.4,0-0.6,0.1
		c-0.1,0.1-0.5,0.2-1.1,0.5c-0.6,0.2-1.4,0.7-2.2,1.5c-0.8,0.7-1.4,1.4-1.7,1.9c-0.2,0.2-0.3,0.4-0.4,0.6c1,0.1,2,0.1,3,0
		c0.2,0,0.4-0.1,0.6-0.1c0.1-0.1,0.2-0.1,0.2,0c0,0,0,0,0.1,0.1c0.1,0.1,0.1,0.2,0.1,0.2c-0.4,0.9-0.4,1.9-0.4,2.9
		c0,0.9,0.5,1.7,1.2,2.3c0.4-1.2,1.3-2,2.5-2.4v-0.1c0.1,0,0.2,0,0.2-0.1c0,0,0,0,0.1,0c0.1,0,0.1,0.1,0.2,0.1
		c0.8,0.7,1.7,1.4,2.5,2c0.9,0.6,1.9,1.1,2.9,1.3c-0.6-1-0.5-2,0.4-3.1c0.7-0.9,1.5-1.8,2.1-2.8c0.1-0.1,0.1-0.2,0.2-0.3
		c0-0.1,0-0.1,0.1-0.1c0.1-0.1,0.1-0.1,0.1-0.1c1.1,0.1,1.9,0.7,2.3,1.8c0.1,0.1,0.1,0.3,0.2,0.6c0.8-0.7,1.5-1.5,1.8-2.6
		c0.5-1.5,1.5-2.2,2.7-2.2c0.1,0,0.2,0,0.3,0.1c-0.1-0.6-0.5-1.1-1.3-1.3h-0.1c-0.1-0.1-0.1-0.1-0.1-0.1c-0.1,0-0.1,0-0.1-0.1
		c-0.1-0.1-0.1-0.1-0.1-0.1c0-0.1,0-0.2,0.1-0.2c0.3-0.5,0.8-0.6,1.5-0.5c-0.3-0.7-0.8-1.1-1.6-1.2c-0.1,0-0.1,0-0.1-0.1
		c-0.1-0.1-0.1-0.1-0.1-0.2c0,0,0-0.1,0-0.1c0.2-0.4,0.2-0.7,0.2-1.1v0c-0.3,0.2-0.8,0.4-1.2,0.5c-0.1,0-0.1,0-0.1,0
		c-0.1,0-0.1,0-0.1-0.1c-0.5-0.4-0.8-0.8-0.7-1.2c0-0.4,0.3-0.8,0.9-1.3c0.9-0.6,1.9-1.1,2.9-1.4c1.2-0.3,2.1-1,2.7-2
		c0.2-0.4,0.4-0.8,0.5-1.3c-0.8,0.3-1.5,0.5-2.3,0.6c-0.1,0-0.1,0-0.1-0.1c-0.1-0.1-0.1-0.1-0.1-0.1c0-0.1,0-0.1,0-0.1
		c-0.1-0.1-0.1-0.1,0-0.1c0-0.1,0.1-0.1,0.1-0.2c0.7-0.6,1.2-1.2,1.7-2c0.1-0.2,0.2-0.4,0.2-0.7c-0.6,0.1-1.2,0.2-2,0.1
		c-0.1,0-0.1,0-0.1-0.1c0,0,0,0,0-0.1c-0.1,0-0.1,0-0.1,0c-0.1-0.1-0.1-0.1,0-0.2c0.2-0.7,0.2-1.4,0.1-2.2c0-0.3-0.1-0.6-0.2-1
		c-0.4,0.9-1.2,1.5-2.5,1.8c-1.4,0.2-2.6,0.1-3.7-0.6h0.1c-0.2-0.1-0.3-0.2-0.3-0.6v-0.1c-0.1-1.2,0-2.4,0.4-3.5h0.1
		c0.4-1.2,1.1-2.1,2.2-2.8c0.8-0.5,1.5-0.4,1.9,0.2c0,0.1,0,0.1,0,0.1c0.1,1.2,0,2.4-0.5,3.5c-0.2,0.4-0.3,0.7-0.6,1
		c1,0.1,1.8-0.3,2.6-0.9c0.1-0.2,0.2-0.3,0.3-0.4c0.1-0.1,0.1-0.1,0.1-0.1c0.1-0.1,0.1-0.1,0.2,0c0,0,0,0,0,0.1
		c1.1,0.6,1.6,1.5,1.5,2.9c0,0.2,0,0.2,0,0.4c0.8-0.4,1.3-1.2,1.2-2.4v-0.1c-0.1-0.7-0.2-1.4-0.4-2.1c0,0,0-0.1,0.1-0.1
		c0-0.1,0.1-0.1,0.1-0.1l0.1-0.1c0,0,0,0,0.1,0c0.9,0.2,1.7,0.6,2.2,1.4c0.2-0.8,0.1-1.7-0.4-2.4c-0.3-0.6-0.8-1.1-1.4-1.4
		c-0.1-0.1-0.1-0.1-0.1-0.1c-0.1-0.1-0.1-0.1-0.1-0.2c0-0.1,0.1-0.1,0.1-0.1c0.1-0.1,0.1-0.1,0.2-0.1c1-0.2,1.5-0.8,1.6-1.9
		c0.1-1.2,0.1-2.5,0.2-3.7c0-0.1,0-0.2,0-0.3c-0.6,0.8-1.4,1.5-2.2,2.1c-0.5,0.4-1.1,0.7-1.7,0.9c-0.2,0.1-0.4,0.1-0.5,0.1
		c-0.1,0-0.1,0-0.1,0c-0.1-0.1-0.1-0.1-0.1-0.1c-0.1-0.1-0.1-0.1-0.1-0.2c0.6-2.7,0.3-5.8-0.9-9.3v0.1c-2.7-4.9-4.1-10.5-4.4-16.8
		c0.1-3.5,0.7-6,1.8-7.5c1.2-1.5,2.9-2,5.1-1.4c0.1,0,0.1,0.1,0.2,0.1c0.7,1.3,0.6,2.4-0.5,3.4c-0.9,0.8-1.7,1.6-2.4,2.5
		c-0.6,0.7-0.8,1.7-0.5,2.9c0.1,0.7,0.5,1.3,1,1.8c0.1-0.9,0.6-1.7,1.4-2.3c0.9-0.7,1.8-0.8,2.6-0.5c0.1,0,0.1,0,0.1,0
		c0,0.1,0,0.1,0.1,0.1c0.3,1.3,0.3,2.6-0.1,3.8c-0.2,0.8-0.3,1.8-0.1,2.7c0.2-0.4,0.4-0.7,0.6-1.1c0.1-0.1,0.1-0.1,0.1-0.1
		c0.1-0.1,0.1-0.1,0.2,0c0,0,0,0,0,0c0.1,0,0.2,0.2,0.6,0.6c0.4,0.4,0.9,1.1,1.6,2.1c0.4,0.5,0.7,1.2,0.9,1.8
		c0.1-0.1,0.1-0.2,0.2-0.2v-0.1c0.3-0.4,0.4-0.9,0.5-1.5c0.1-0.5,0.1-1.1,0.1-1.6c0-0.1,0-0.1,0.1-0.2c0-0.1,0.1-0.1,0.1-0.1
		c0.1-0.1,0.1-0.1,0.1,0c0.7,0.1,1.3-0.2,1.8-0.9c0.4-0.6,0.6-1.3,0.6-2.1v-0.1c0-0.1,0-0.1,0-0.1c-0.9,0.5-1.9,0.3-3-0.5
		c-0.4-0.2-0.5-0.5-0.5-0.9c-0.1-1.2-0.1-2.4,0-3.5c0.1-0.4,0.1-0.7,0-1.1c-0.1-0.1-0.1-0.1,0-0.1c0.1-0.1,0.1-0.1,0.1-0.1
		c0-0.1,0-0.1,0.1-0.1h0.1c0.8,0,1.5,0,2.4,0c0.9,0,1.6-0.3,2-1c-1.2,0-2.2-0.5-3-1.4c-0.2-0.3-0.4-0.6-0.5-0.9c0-0.1,0-0.1,0-0.1
		c0,0,0-0.1,0-0.1c0.1-0.1,0.1-0.1,0.1-0.1c0.1,0,0.1,0,0.1,0h-0.1c0.7-0.5,1.3-1.2,1.5-2.2c0.2-0.5,0.2-1.1,0.2-1.7
		c-0.7,0.6-1.5,1-2.5,1.3c-0.1,0-0.2,0-0.2-0.1c-0.1-0.1-0.1-0.1-0.1-0.2c-0.1,0-0.1-0.1,0-0.2C128.3,77.2,128.4,76.2,128,75.1
		L128,75.1z"/>
	<path class="st2" d="M87.1,85.6c0,0-0.1,0-0.1,0c-0.1-0.1-0.3-0.2-0.4-0.4c-0.9-0.8-1.7-1.8-2.3-2.7c-0.4-0.5-0.5-1.1-0.5-1.7
		c-0.9,0.6-1.5,1.5-1.7,2.5C82,83.4,82,83.5,82,83.6c0.3,2,1.1,3.6,2.3,4.8c-1.4-1.1-2.4-2.5-2.9-4.1c-0.1-0.1-0.1-0.2-0.1-0.3
		c-0.6-0.4-1.3-0.8-1.9-1c-1.1-0.4-2-0.4-2.8,0.1c0.7,0.4,1.4,1,1.8,1.8c0.2,0.4,0.4,0.8,0.5,1.3c0,0.1,0,0.1,0,0.2
		c-0.1,0.1-0.1,0.1-0.2,0.1c-1,0.4-2.1,0.9-3.2,1.2c-1.7,0.5-2.8,0.2-3.3-1c-0.6-1.2-0.6-2.5,0.2-3.7c0.5-1,1.1-2.1,1.7-3.1
		c0.5-1,0.9-2.1,1.1-3.2c0.1-0.8,0.2-1.6,0.3-2.4v-0.1c-0.8,0.7-1.6,1.4-2.5,2c-0.1,0.1-0.2,0.1-0.3,0.2c-0.1,0.1-0.1,0.1-0.2,0.1
		c0,0-0.1,0-0.1-0.1c-0.1-0.1-0.1-0.1-0.1-0.2c0-0.1,0-0.1,0.1-0.1c0.7-0.8,1.3-1.8,1.8-2.7c0.5-1,0.8-2,0.9-3.1
		c0.1-1.3-0.2-2.5-0.8-3.5c-0.7-1-1.6-1.7-2.8-1.9h0c-0.2-0.1-0.5-0.2-0.8-0.4c-0.1-0.1-0.1-0.1-0.1-0.1c0,0,0-0.1,0-0.1
		c0.3-1.3,0.1-2.2-0.7-2.8c-0.9-0.7-2.1-1-3.4-0.8c-0.1,0-0.1,0-0.2,0.1c1.2,0.5,1.8,1.4,1.8,2.8c0.1,0.5-0.1,0.9-0.2,1.3
		c-0.1,0.1-0.1,0.1-0.1,0.1c-0.1,0-0.1,0-0.1,0c-0.1,0-0.1,0-0.2,0c-0.9-0.6-1.9-0.8-3.1-0.6c-0.6,0.2-1.1,0.4-1.5,0.9
		c1.3-0.1,2.2,0.3,2.7,1.3c0.1,0.1,0.1,0.1,0.1,0.1C66,66.6,66,66.6,66,66.6c-0.1,0.1-0.1,0.1-0.1,0.1c-1.1,0.5-1.5,1.3-1.5,2.6
		c0,0.5,0,1,0,1.5c0,0.1,0,0.1,0,0.2c0,0,0,0-0.1,0.1c-0.1,0-0.1,0-0.2,0c-0.6,0-1.2-0.2-1.7-0.6c0,0.9,0.5,1.6,1.3,2.1
		c0.5,0.3,1,0.6,1.6,0.7c0,0,0.1,0,0.1,0.1c0.1,0.1,0.1,0.1,0.1,0.2v0c-0.1,1.3-0.3,2.5-0.8,3.6v0.1c-0.4,0.8-0.8,1.8-0.9,2.7
		c-0.1,0.7-0.2,1.5-0.2,2.3c0.4-0.6,1-1.3,1.7-1.8c0.1-0.2,0.4-0.2,0.5-0.4c0.1-0.1,0.1-0.1,0.2,0c0.1,0,0.1,0.1,0.2,0.1
		c0,0,0,0.1,0,0.1c-0.1,1-0.2,1.9-0.5,2.8c-0.3,1.2-0.5,2.4-0.4,3.6c0,0.7,0.2,1.3,0.5,1.8c0.4-0.9,0.9-1.7,1.6-2.5
		c0-0.1,0.1-0.2,0.3-0.2c0.1-0.1,0.1,0,0.2,0.1h0c0.1,0.1,0.1,0.1,0.1,0.1c0,0.1,0,0.2-0.1,0.2c0,0,0,0,0,0.1c0,0.9-0.1,1.7-0.2,2.5
		c0.5-0.2,1-0.4,1.4-0.7c0,0,0.1,0,0.2,0c0,0,0.1,0,0.1,0.1c0.1,0.1,0.1,0.1,0.1,0.2c0.1,1.1,0,2.1-0.2,3.1
		c-0.1,0.8-0.4,1.5-0.8,2.1c0.9,0.1,1.8,0.2,2.7,0.3c1,0.2,1.9,0.2,2.9,0.2c0.6,0,1.2,0,1.9,0.1c0.1,0,0.1,0,0.1,0.1
		c0.1,0.1,0.1,0.1,0.1,0.2c-0.1,0.1-0.1,0.1-0.1,0.2c-0.9,0.8-1.8,1.5-2.7,2.3c0,0,0,0,0,0.1c0.6,0.2,1.4,0.3,2.2,0.4
		c1,0.1,1.9,0.1,2.6,0.1c0.7-0.1,1.2-0.1,1.6-0.1c0.9-0.1,1.8-0.4,2.5-0.9c0.9-0.6,1.8-1.4,2.6-2.4c0.8-1,1.6-1.9,2.2-2.9
		c0.7-0.9,1.4-1.9,2.1-2.9c0,0,0-0.1,0.1-0.1c-0.1-0.1-0.2-0.3-0.3-0.4c0-0.1,0-0.2,0-0.2c0-0.1,0-0.1,0.1-0.2
		c0.1-0.1,0.1-0.1,0.2-0.1c0.4,0,0.9,0,1.3,0c1.2-0.2,2.2-0.6,3-1.5c-1-0.5-2.1-0.7-3.2-0.7H90c-0.6,0-1.2-0.1-1.5-0.5
		c-0.3-0.3-0.5-0.7-0.6-1.2c-0.4,0.5-0.6,1-0.6,1.7c0,0.1,0,0.1-0.1,0.2C87.3,85.6,87.2,85.6,87.1,85.6L87.1,85.6z"/>
	<path class="st2" d="M105.3,116.7c0.1-0.5,0.2-1,0.3-1.4c-1.1,0.1-2.2,0-3.3-0.1c-1.2,0-2.4-0.1-3.7-0.2c-1.4-0.1-2.6-0.4-3.8-1.1
		l0-0.1c-1,0.1-1.9,0.1-2.9,0.4c-1.2,0.2-2.5,0.3-3.8,0.4c-1.2,0.2-2.3,0.7-3.1,1.6c-0.8,0.9-1.2,1.9-1.3,3.1v0.1c0,0.1,0,0.1,0,0.1
		c0.4-0.5,0.9-0.9,1.7-1.1c0.2-0.1,0.4-0.2,0.7-0.2c0.1,0,0.1,0,0.2,0c0,0,0,0,0.1,0.1c0.1,0.1,0.1,0.1,0.1,0.1v0c0,0.1,0,0.1,0,0.2
		c-0.5,0.8-1,1.7-1.4,2.5c-0.6,1.2-1.4,2.2-2.4,3c-0.7,0.5-1.4,1-2.3,1.5c0.6,0.3,1.4,0.4,2.1,0.5c1,0.1,1.9-0.1,2.9-0.2
		c0.1,0,0.1,0,0.1,0c0.1,0,0.1,0.1,0.1,0.1c0,0,0,0,0.1,0.1c0,0.1,0,0.1,0,0.1c-0.1,0.1-0.1,0.1-0.1,0.2c-0.6,0.6-1.2,1-2,1.4
		c-0.3,0.1-0.6,0.2-0.9,0.3c0.5,0.4,1.3,0.7,2.2,0.8c0.5,0.1,1,0,1.6-0.1c0.1,0,0.1,0,0.1,0c0.1,0,0.1,0.1,0.1,0.1
		c0.1,0.1,0.1,0.1,0.1,0.1c-0.1,0.6-0.3,1.2-0.7,1.7c1,0,2-0.2,2.9-0.8c0.5-0.4,1.2-0.7,2.1-1.3c1.2-0.6,2.3-1.5,3.5-2.6
		c-1.1,1.4-2.2,2.5-3.5,3.5c-0.4,0.6-0.9,1.3-1.5,2c-0.8,0.8-1.8,1.5-2.9,2c-0.4,0.2-0.8,0.2-1.2,0.2c-1.2-0.1-2.3-0.2-3.5-0.5
		c-0.5-0.2-1-0.2-1.5-0.2c-0.1,0-0.1,0-0.1-0.1c-0.1-0.1-0.1-0.1-0.1-0.1c-0.5-0.8-1.1-1.5-1.9-2.1c-1-0.8-2-1.3-3.1-1.4
		c-1.1-0.2-2.3-0.2-3.4-0.3c-1.2-0.1-2.3,0.1-3.3,0.5c-0.1,0-0.1,0-0.1,0.1c0.8,0.4,1.7,1,2.5,1.7v0c0.5,0.5,0.8,1.1,0.9,1.8
		c0,0.1,0,0.2,0.1,0.2c0,0.1,0,0.1-0.1,0.2c0,0.1,0,0.1,0,0.1c-0.9,0.6-1.8,1.4-2.5,2.2c-0.1,0.1-0.1,0.2-0.2,0.3
		c1.2-0.3,2.3-0.2,3.1,0.5c0.9,0.6,1.4,1,1.5,1.2c0,0.1,0.2,0.5,0.6,1h-0.1c0.4,0.5,0.4,1.5,0.2,2.8c-0.1,0.5-0.3,1-0.6,1.4
		c0.9-0.1,1.8-0.1,2.8-0.2c1.1-0.1,2.2-0.4,3.2-1.1c0.1-0.1,0.1-0.1,0.2-0.1c0,0,0.1,0.1,0.1,0.1c0.4,0.4,0.6,0.9,0.9,1.5
		c0.4-0.5,0.7-1.2,0.9-1.9c0-0.1,0.1-0.1,0.1-0.1c0.1-0.1,0.1-0.1,0.2-0.1c1.4,0.3,2.4,1,3.3,2l0,0.1c0.4-0.5,0.5-1,0.5-1.7
		c0-0.1,0-0.1,0.1-0.1c0-0.1,0.1-0.1,0.1-0.1c0.1-0.1,0.1-0.1,0.1-0.1c0.8,0,1.6,0.2,2.3,0.7c0.5-0.4,0.7-1.1,0.5-1.9c0,0,0,0,0-0.1
		c0,0,0-0.1,0-0.2c0,0,0-0.1,0-0.1c0.1-0.1,0.1-0.1,0.2-0.1c1.5-0.2,2.6,0.2,3.4,1.5v0c0,0.1,0.1,0.2,0.1,0.3
		c0.9-0.4,1.5-1.2,1.8-2.4c0.3-1.3-0.1-2.2-1.2-2.5c-0.7-0.2-1.4-0.3-2.1-0.4c-0.1,0-0.1,0-0.1-0.1c-0.1-0.1-0.1-0.1-0.1-0.2
		c0-0.9,0.2-1.8,0.7-2.5c0.6-1,1.4-1.8,2.3-2.5c0-0.1,0.1-0.1,0.1-0.1c0.1,0,0.1,0,0.1,0.1c0.1,0.1,0.1,0.1,0.1,0.1
		c0.5,0.5,0.9,1.2,1.1,1.9c0.4-0.4,0.8-1,1.2-1.5c0.6-1,1-2.1,0.9-3.4c0-0.1,0-0.1,0.1-0.2c0.1,0,0.1-0.1,0.2-0.1
		c0.1,0,0.1,0,0.2,0.1c0.8,0.6,1.6,1.2,2.3,1.9c0.1-0.2,0.1-0.5,0.1-0.8c0.1-1.3-0.2-2.3-1.1-2.9c-0.5-0.3-0.9-0.8-1.2-1.3
		c-0.5-0.7-0.7-1.5-0.9-2.4c0,0,0-0.1,0-0.1c0-0.1,0-0.1,0.1-0.1c0,0,0.1-0.1,0.1-0.1c0.4-0.2,0.9-0.2,1.5-0.2
		c0.9,0.1,1.8,0.2,2.7,0.2c0.2-1,0.8-1.9,1.8-2.5h-0.1C104.4,118.7,105,117.8,105.3,116.7L105.3,116.7z"/>
	<path class="st2" d="M106.9,74.6c-0.2,0.1-0.4,0.4-0.4,0.6c-0.1,0.1,0,0.4,0.1,0.6c0,0.3,0.1,0.6,0.3,0.9c0.1,0.3,0.3,0.6,0.5,0.9
		c0,0.1,0,0.1,0,0.2c0,0-0.1,0.1-0.1,0.1c-0.1,0.1-0.1,0.1-0.1,0.1c-0.9-0.1-1.6-0.3-2.2-0.7c0,1,0,2,0,3.1c0,1.2,0,2.3-0.1,3.5
		c0,0.9,0,1.8,0,2.7c0.1,1-0.1,2.1-0.3,3c0,0.1,0,0.1-0.1,0.1c-0.1,0.1-0.1,0.1-0.2,0.1c0,0-0.1,0-0.1-0.1c-0.1-0.1-0.1-0.1-0.1-0.1
		c-0.1-0.6-0.3-1.2-0.5-1.8c-0.2,0.2-0.5,0.5-0.6,0.7c-0.8,1-1.5,1.9-2.2,2.9c-0.7,1-1.1,2.1-1.1,3.3c0,1.3,0.1,2.5,0.5,3.7
		c0.1,0.5,0.4,1,0.6,1.5c0.7,0,1.4,0,2.1,0.1c-0.3-0.3-0.5-0.7-0.7-1c-0.3-0.6-0.5-1.2-0.4-2c0.1-1.2,0.2-2.3,0.4-3.4
		c0.2-1.2,0.8-2.2,1.7-3.2c0.7-0.8,1.5-1.6,2.2-2.3c0.1-0.1,0.1-0.1,0.1-0.1c0.1-0.1,0.1-0.1,0.2,0c0.1,0.1,0.1,0.1,0.1,0.1v0
		c0.1,0.1,0.1,0.1,0.1,0.2c-0.2,1.1-0.3,2.3-0.3,3.5v0.1c-0.1,0.7,0,1.5,0.2,2.2c0.9,0,1.7-0.2,2.4-0.8c0.6-0.4,1.1-0.9,1.4-1.3
		c-1-0.9-1.4-2.1-1.2-3.5c0.1-1.1,0.2-2.2,0.2-3.4c0-0.9,0.1-1.7,0.2-2.6v-0.1c0.2-1.2,0.2-2.4-0.1-3.6c-0.2-1.1-0.6-2.1-1.2-3.1
		c-0.1-0.1-0.1-0.2-0.1-0.2c-0.1,0-0.1-0.1-0.1-0.1c-0.3-0.4-0.6-0.7-0.9-1C106.9,74.5,106.9,74.5,106.9,74.6L106.9,74.6z"/>
	<path class="st2" d="M103.1,75.2c-0.1,0.1-0.1,0.2-0.1,0.3c0,1.3,0,2.5,0,3.8c0,1.3-0.2,2.5-0.7,3.7c-0.4,1.2-1,2.3-1.7,3.4
		c-0.7,1-1.2,2.1-1.7,3.3c-0.5,1.1-1,2.3-1.5,3.4c-0.4,1.1-0.6,2.3-0.5,3.5c0.1,0.7,0.1,1.4,0.1,2.1c0.7,0.8,1.5,1.5,2.4,1.9h0
		c0.3,0.1,0.7,0.3,1.1,0.4c0.1,0.1,0.2,0.1,0.3,0.1c-0.2-0.4-0.4-0.6-0.6-1c-0.4-0.6-0.6-1.2-0.8-1.8h0.1C99.2,97.3,99,96,99,94.6
		c0.1-1.3,0.5-2.5,1.2-3.6c0.7-1,1.5-2,2.2-3c0.3-0.4,0.6-0.7,1-1c0,0,0,0,0.1,0c0-0.1,0-0.1,0.1-0.1c0.1,0,0.1,0,0.2,0.1
		c0,0,0,0,0.1,0.1c0.2,0.4,0.2,0.8,0.4,1.2c0.1-0.6,0.1-1.2,0.1-1.9c0-0.9,0-1.8,0-2.7c0.1-1.2,0.1-2.3,0.1-3.5c0-1.2,0-2.3,0-3.4
		c-0.1-0.2-0.3-0.4-0.4-0.5C103.7,75.9,103.4,75.5,103.1,75.2L103.1,75.2z"/>
	<path class="st2" d="M102.6,75.6c0-0.2,0-0.4,0-0.7c-0.4-0.3-0.8-0.6-1.2-0.8c0,1.2,0,2.3,0,3.5c0,0.6-0.1,1.2-0.2,1.8v-0.1
		c-0.4,1.2-1,2.2-2.1,2.9c-0.1,0.1-0.1,0.1-0.1,0.1s-0.1,0-0.1-0.1C98.8,82,98.7,82,98.7,82c-0.2-0.3-0.5-0.4-0.9-0.2h0
		c-0.5,0.1-1,0.2-1.5,0.4c0.1,1.4-0.4,2.4-1.4,3.1c-0.4,0.2-0.7,0.5-1.1,0.9c-0.1,0.1-0.2,0.2-0.2,0.2c-0.9,0.9-2,1.5-3.3,1.6
		c-0.3,0-0.6,0-0.9,0c0.1,0.1,0.1,0.1,0.1,0.2c0.3,0.2,0.7,0.4,1.1,0.4c0.1,0,0.2,0.1,0.2,0.1c0,0,0,0.1,0,0.1c0,0.1,0,0.1,0,0.2
		c-0.5,0.6-1.2,1-2.1,1.4c0.9,0.6,1.9,0.8,3.1,0.5c0.2-0.1,0.2-0.1,0.4-0.1c2.4-1.6,4.2-3.5,5.4-5.7c-1.2,2.6-2.8,4.7-4.9,6.3
		c-0.5,0.7-0.7,1.5-0.7,2.4c0,0.2,0,0.4,0,0.6c0.1,0.3,0.2,0.5,0.3,0.8c0.4-0.3,0.8-0.7,1.3-1c0.1-0.1,0.1-0.1,0.2-0.1
		c0.1,0,0.1,0.1,0.1,0.1c0.1,0.1,0.1,0.1,0.1,0.2c-0.1,1.1,0.2,2.1,0.6,3.1c0.3,0.7,0.8,1.4,1.3,1.9c0.1,0.2,0.4,0.4,0.6,0.5
		c0-0.3,0-0.6,0-1c-0.1-0.7-0.1-1.4-0.1-2.2c-0.1-1.3,0.1-2.5,0.5-3.7V93c0.4-1.2,0.9-2.3,1.5-3.4c0.5-1.2,1.1-2.3,1.8-3.4
		c0.7-1.1,1.2-2.2,1.7-3.3c0.4-1.2,0.6-2.4,0.6-3.6C102.6,78.1,102.6,76.8,102.6,75.6L102.6,75.6z"/>
	<path class="st2" d="M92.3,91.3c-0.1,0-0.2,0-0.3,0.1c-1.4,0.4-2.7,0.1-3.8-0.9c-0.1-0.1-0.2,0.1-0.3,0.2c-0.1,0.2-0.4,0.5-0.6,0.9
		c-0.6,0.9-1.4,1.8-2.2,2.9c-0.8,1-1.7,1.8-2.7,2.4c-0.8,0.5-1.6,0.8-2.5,0.9c0.3,1.1,1,1.8,2.1,2.1c1,0.1,1.9,0.1,2.8,0
		c0.1-0.1,0.1-0.1,0.1-0.1c1.2-0.3,2.3-0.8,3.2-1.6c0.9-0.8,1.7-1.7,2.3-2.6c0.5-0.6,0.8-1.3,1.2-2C91.6,92.8,91.8,92,92.3,91.3
		L92.3,91.3z"/>
	<path class="st2" d="M88.5,98.7L88.5,98.7c-1,0.8-2.1,1.4-3.5,1.7c-0.1,0.1-0.2,0.3-0.4,0.5c0.1,0,0.2,0,0.2,0
		c1.2-0.2,2.4-0.2,3.7-0.2c1.2,0,2.4-0.2,3.5-0.6c1-0.4,2-0.6,3.1-0.6c-0.4-0.5-0.7-1-1-1.6c-0.4-0.9-0.7-1.9-0.7-2.8
		c-0.3,0.2-0.7,0.5-1.1,0.8c-0.1,0.1-0.1,0.1-0.2,0.1c0,0-0.1,0-0.1-0.1c-0.3-0.4-0.5-0.7-0.5-1.1c-0.2,0.4-0.5,0.9-0.9,1.4
		C90.2,97,89.4,97.9,88.5,98.7L88.5,98.7z"/>
	<path class="st2" d="M104.1,90.7c-0.7,0.8-1.3,1.8-1.5,2.9c-0.2,1.1-0.4,2.2-0.4,3.3V97c0,0.6,0.1,1.1,0.3,1.7c0.1,0,0.1,0,0.2,0
		c1.2,0,2.5,0,3.7-0.1c0.8-0.1,1.6-0.2,2.3-0.4c-0.1,0-0.1,0-0.1,0c-1.1-0.6-1.8-1.5-2.3-2.6c-0.2-0.4-0.4-0.7-0.5-1.1
		c-0.2-0.8-0.3-1.7-0.2-2.6c0-1,0.1-2,0.2-2.9C105.3,89.5,104.7,90.1,104.1,90.7L104.1,90.7z"/>
	<path class="st2" d="M106.2,74.6c0.1-0.2,0.2-0.3,0.4-0.4c0.1,0,0.2-0.1,0.3-0.2c0.1-0.1,0.3-0.2,0.4-0.3c0.1-0.1,0.2-0.2,0.3-0.3
		c0-0.1,0.1-0.1,0.1-0.1c0.1-0.1,0.2-0.2,0.3-0.2c0.1-0.1,0.1-0.1,0.2-0.1c-0.1,0-0.1,0-0.2,0c-0.1,0-0.3,0-0.4,0.1
		c-0.1,0-0.2,0-0.2,0c-0.2,0-0.3,0-0.4,0.1h-0.1c-0.6,0.1-1.2,0.1-1.5,0c-0.2-0.1-0.4-0.1-0.6-0.3c0-0.1-0.1-0.1-0.2-0.1
		c-0.1-0.2-0.3-0.4-0.4-0.7c-0.1-0.2-0.1-0.6-0.2-0.9V71c-0.1-1.1-0.6-1.9-1.8-2.3c-0.1-0.1-0.1-0.1-0.1-0.1
		c-0.1-0.1-0.1-0.1-0.1-0.1c-0.2-0.9-0.8-1.5-1.6-1.9c-0.2-0.1-0.2-0.1-0.4-0.1c-0.1-0.1-0.1-0.1-0.1-0.1c-1-0.3-2.1-0.4-3.3-0.3
		c-0.7,0.1-1.2,0.4-1.5,0.9c0.3,0.7,1.1,1.2,2.2,1.3c0.5,0.1,0.8,0.4,0.7,0.9c0,0.1,0,0.1,0,0.1c-0.1,0.1-0.1,0.1-0.1,0.1
		c-1.4,0.5-2.6,0.2-3.7-0.9c0-0.1-0.1-0.1-0.1-0.1c-1.3-0.3-2.3,0-3.2,0.9c-0.9,1-2,1.5-3.2,1.7c0.1,0.7,0.5,1.2,1.1,1.5
		c0.1,0,0.1,0.1,0.1,0.1c0,0.1,0,0.1,0,0.1v0.1c-0.1,0.6-0.1,1.2,0.2,1.5c0.2,0.3,0.6,0.5,1.2,0.5h0.1c0.9,0.1,1.6-0.2,2.1-0.9
		c0.9-1.1,2-1.2,3.2-0.2c0.2,0.2,0.3,0.4,0.3,0.7c0.2,1.5-0.4,2.5-1.8,3c-0.9,0.2-1.8,0.4-2.7,0.3c-0.4,0-0.8,0-1.2-0.1
		c-0.4,0-0.8,0-1.2,0c-0.1-0.1-0.1-0.1-0.2,0c0.2,1.1,0.2,2.3,0,3.5C89,81.4,89,81.7,88.8,82c0.8,0.2,1.7,0.3,2.5,0.4
		c1.2,0.1,2.5,0,3.6-0.4c0.4-0.1,0.7-0.2,1-0.3c0.5-0.2,1.1-0.3,1.7-0.4c0.6-0.2,1.1-0.1,1.4,0.3c0.8-0.6,1.4-1.4,1.6-2.4
		c0.1-0.5,0.2-1.1,0.2-1.6c0-1.2,0-2.5,0-3.8c0-0.1,0-0.1,0-0.1c0.1-0.2,0.2-0.2,0.5-0.1c0.1,0,0.2,0.1,0.5,0.2
		c0.3,0.2,0.7,0.4,1.2,0.8c0.5,0.4,0.9,0.8,1.3,1.4c0.2,0.2,0.3,0.4,0.5,0.5c0.5,0.4,1.1,0.7,1.8,0.9c-0.2-0.4-0.5-0.9-0.6-1.4v-0.1
		c-0.1-0.3-0.1-0.5-0.1-0.8C106,74.9,106.1,74.7,106.2,74.6L106.2,74.6z"/>
	<path class="st2" d="M88.6,77.1c0.1-0.1,0.1-0.1,0.1-0.1c0.1,0,0.3,0,0.5,0.1h0c0.2,0,0.5,0,0.7,0c-0.7-0.9-1.6-1.4-2.7-1.5
		c-1.3-0.1-2.5-0.5-3.5-1.4c-0.2-0.2-0.5-0.4-0.6-0.7c0.1,0.8,0.2,1.5,0.6,2.3c0.1,0.4,0.3,0.6,0.7,0.8c0.9,0.7,2,0.9,3.3,0.6
		c0.2-0.1,0.5-0.1,0.8-0.1c0-0.1,0-0.1,0-0.1C88.5,77.1,88.6,77.1,88.6,77.1L88.6,77.1z"/>
	<path class="st2" d="M89.4,88.5c-0.1,0.4-0.4,0.9-0.9,1.4c0.6-0.1,1.1-0.4,1.4-0.9L89.4,88.5L89.4,88.5z"/>
	<path class="st2" d="M105.7,68.8c0-0.1,0-0.1-0.1-0.1c-1.3-0.4-2.1-1.1-2.4-2c-0.9,0-1.6-0.4-2.1-1.1c0,0.1,0,0.2-0.1,0.2
		c2.6,1.9,4.6,4.2,6.1,6.7c0.2,0,0.3,0,0.5-0.1c-0.1-0.2,0-0.5,0-0.8c-1.2-0.6-1.9-1.6-1.9-2.8C105.7,68.8,105.7,68.8,105.7,68.8
		L105.7,68.8z"/>
	<path class="st2" d="M105,72.4c0.4,0.2,0.9,0.3,1.7,0.2c-1.4-2.5-3.4-4.6-5.9-6.5l-0.1,0.1c0.8,0.4,1.4,1.1,1.7,2
		c1.3,0.6,1.9,1.5,2,2.7C104.5,71.6,104.7,72.1,105,72.4L105,72.4z"/>
	<path class="st2" d="M110.6,65.6c-0.3,0-0.5-0.1-0.7-0.3c-0.2-0.2-0.4-0.5-0.3-0.8c-2.7-1.6-5.1-1.8-7.2-0.8c0,0,0,0,0,0.1
		c-0.1,0.1-0.1,0.1-0.1,0.1c0.1,0,0.1,0.1,0.2,0.1c0.1,0.1,0.1,0.1,0.1,0.2c0.4-0.2,0.8-0.3,1.2-0.4h0.1c1.6-0.4,3.2-0.2,4.8,0.6
		c0.1,0,0.1,0.1,0.1,0.1c0,0.1,0,0.1,0,0.1c-0.1,0.1-0.1,0.1-0.1,0.1c-0.6,0.3-1.2,0.6-1.6,1.1c-0.2,0.2-0.5,0.5-0.6,0.9
		c0,0.1,0,0.1,0,0.1c0,0.1,0,0.2,0.1,0.3c0.2-0.2,0.3-0.3,0.4-0.4c-0.1-0.1-0.1-0.1,0-0.1c0,0,0-0.1,0.1-0.1c0.1-0.1,0.1-0.1,0.1,0
		c0.5,0.1,0.9,0.3,1.1,0.6c0.2,0.3,0.2,0.7,0.1,1.2c0,0.1,0,0.1-0.1,0.1c-0.1,0.1-0.1,0.1-0.2,0c-0.1,0-0.2,0.1-0.4,0.2
		c0.1,0.1,0.1,0.1,0.2,0.1c0.5-0.3,0.9-0.7,1.3-1.2c0.4-0.4,0.7-1,1-1.7c0.1,0,0.1,0,0.1-0.1c0-0.1,0.2-0.1,0.2,0
		c0.1,0.1,0.1,0.1,0.1,0.1c1.1,2.4,1.3,4.5,0.5,6.6c-0.2,0.4-0.4,0.9-0.7,1.3c0.1,0.1,0.1,0.1,0.1,0.2c0.1,0,0.1,0.1,0.1,0.2
		c0.1-0.1,0.1-0.1,0.2-0.1c0.1-0.1,0.1-0.1,0.1-0.1C112.5,71.7,112.4,68.9,110.6,65.6L110.6,65.6L110.6,65.6z"/>
	<path class="st2" d="M107.9,73.8C107.9,73.8,107.8,73.8,107.9,73.8c0.1,0.5,0.2,0.9,0.4,1.3c0.2-0.1,0.3-0.1,0.4-0.1
		C108.4,74.6,108.1,74.2,107.9,73.8L107.9,73.8z"/>
	<path class="st2" d="M107.5,74.1c-0.1,0-0.1,0-0.1,0c0.1,0.1,0.2,0.1,0.2,0.2C107.5,74.3,107.5,74.2,107.5,74.1L107.5,74.1z"/>
	<path class="st2" d="M110.2,74.1c0,0-0.1,0-0.1,0c-0.1,0-0.2,0-0.3,0.1c-0.3,0.1-0.5,0.2-0.6,0.4C109.5,74.5,109.9,74.4,110.2,74.1
		L110.2,74.1z"/>
	<path class="st2" d="M102.1,64.4c0-0.1,0-0.1,0.1-0.2l-0.1,0.1v0c-0.2,0.2-0.4,0.5-0.4,0.9c0.2-0.1,0.3-0.3,0.4-0.5
		C102.1,64.6,102.1,64.5,102.1,64.4L102.1,64.4z"/>
	<path class="st2" d="M111.4,64.6c0-0.1,0-0.2-0.1-0.2c-0.1-0.1-0.1-0.1-0.1-0.1l-0.3-0.4c-0.1,0-0.1,0-0.1,0c0-0.1-0.1-0.1-0.2-0.1
		c-0.2,0-0.4,0.1-0.5,0.2c-0.1,0.1-0.2,0.2-0.2,0.4v0.1c0,0.2,0,0.4,0.2,0.5c0.1,0.1,0.2,0.2,0.4,0.2h0.1c0,0,0.1,0,0.1,0h0.1
		c0.1-0.1,0.2-0.1,0.3-0.1C111.3,64.9,111.3,64.7,111.4,64.6L111.4,64.6z"/>
	<path class="st2" d="M109.4,75C109.4,75.1,109.4,75.1,109.4,75l0.1,0.1c0.4,0.1,0.8-0.1,1.1-0.4h0.1c0.2-0.2,0.3-0.4,0.5-0.4
		c0.1,0,0.1,0,0.1,0h-0.1c-0.1-0.1-0.1-0.1-0.1-0.1c-0.1,0-0.1,0-0.1,0c-0.1,0.1-0.3,0.1-0.4,0.2l-0.1,0.1
		C110,74.8,109.7,74.9,109.4,75L109.4,75z"/>
	<path class="st2" d="M101.9,63.3C101.9,63.4,101.9,63.4,101.9,63.3c0,0.2-0.1,0.3-0.4,0.6c-0.4,0.2-0.5,0.6-0.5,1c0,0,0,0,0.1,0.1
		h0c0.1,0,0.1-0.1,0.2-0.3c0.1-0.1,0.2-0.4,0.4-0.7c0-0.1,0-0.1,0.1-0.1c0.1-0.1,0.1-0.2,0.2-0.3C102,63.5,102,63.5,101.9,63.3
		C102,63.4,102,63.4,101.9,63.3L101.9,63.3z"/>
	<path class="st4" d="M105.3,66.6c0.3-0.2,0.6-0.2,0.8-0.1c0.1-0.3,0.3-0.5,0.5-0.8c-0.7-0.8-1.7-1.4-2.7-1.5h-0.1
		c-0.5,0.1-1,0.2-1.4,0.5c-0.1,0.1-0.1,0.2-0.1,0.2c-0.1,0.4-0.4,0.6-0.7,0.8c0.4,0.4,0.9,0.7,1.6,0.6c0.1-0.1,0.1,0,0.2,0
		c0,0,0,0.1,0.1,0.1c0.1,0.5,0.4,1,1,1.4C104.5,67.3,104.7,66.9,105.3,66.6L105.3,66.6z"/>
	<path class="st4" d="M109.4,67.9c-0.4,0.5-0.9,0.7-1.3,1c0.1,0.3,0,0.6-0.4,0.9c-0.5,0.3-0.8,0.4-1.2,0.4c0.2,0.5,0.7,0.9,1.4,1.2
		c0.1,0.1,0.1,0.1,0.1,0.1c0,0,0,0.1,0,0.1c0,0.3-0.1,0.6-0.1,0.8c0.3,0,0.6,0,0.9,0c0.1,0,0.1,0,0.1,0c0.1,0.1,0.1,0.1,0.1,0.2
		c0,0.1,0,0.1,0,0.1c-0.1,0.1-0.1,0.1-0.1,0.1c-0.2,0.2-0.5,0.4-0.8,0.6c0.1,0.4,0.3,0.6,0.6,0.9c0.1-0.3,0.4-0.5,0.8-0.6
		c0.1-0.1,0.2-0.1,0.3-0.1c0.3-0.5,0.5-1,0.8-1.5C110.7,70.6,110.3,69.2,109.4,67.9L109.4,67.9z"/>
	<path class="st2" d="M108,67.9c0.1-0.3,0.1-0.5-0.1-0.7c-0.2-0.2-0.4-0.3-0.7-0.4c-0.1,0.1-0.2,0.3-0.4,0.5
		c0.1,0.1,0.2,0.2,0.4,0.4c0.2,0.2,0.2,0.3,0.2,0.4C107.6,68,107.8,67.9,108,67.9L108,67.9z"/>
	<path class="st2" d="M106.1,67.3c-0.1-0.2-0.1-0.4-0.1-0.5c-0.2-0.1-0.4-0.1-0.5,0.1c-0.3,0.2-0.5,0.5-0.5,0.8c0.2,0,0.3,0,0.4,0.2
		C105.6,67.7,105.8,67.5,106.1,67.3L106.1,67.3z"/>
	<path class="st2" d="M107.7,69c-0.1-0.1-0.3-0.1-0.5-0.1c-0.2,0.2-0.5,0.3-0.7,0.4c0.1,0.1,0.1,0.3,0,0.5c0.3,0.1,0.5,0,0.9-0.2
		C107.6,69.3,107.7,69.2,107.7,69L107.7,69z"/>
	<path class="st2" d="M106.8,67.9c-0.1-0.1-0.3-0.3-0.4-0.3c-0.3,0.2-0.6,0.4-0.7,0.6v0.1c0.1,0.1,0.3,0.4,0.4,0.6c0,0,0,0,0.1,0
		c0.2,0,0.5-0.2,0.8-0.5C107,68.3,106.9,68.1,106.8,67.9L106.8,67.9z"/>
</g>
</svg>
