<?xml version="1.0" encoding="iso-8859-1"?>
<!-- Generator: Adobe Illustrator 19.0.0, SVG Export Plug-In . SVG Version: 6.00 Build 0)  -->
<svg version="1.1" id="Capa_1" xmlns="http://www.w3.org/2000/svg" xmlns:xlink="http://www.w3.org/1999/xlink" x="0px" y="0px"
	 viewBox="0 0 395.522 395.522" style="enable-background:new 0 0 395.522 395.522;" xml:space="preserve">
<g>
	<g>
		<path d="M136.34,139.121c-15.508-0.044-28.116,12.492-28.16,28c0,0.027,0,0.053,0,0.08c0,15.477,12.523,28.036,28,28.08
			c15.508,0.044,28.116-12.492,28.16-28C164.384,151.773,151.848,139.165,136.34,139.121z M136.339,179.44
			c-6.671,0.044-12.115-5.328-12.159-12c0-0.053,0-0.106,0-0.159c0-6.641,5.36-12.036,12-12.08v0.08
			c6.671-0.044,12.115,5.329,12.159,12C148.383,173.952,143.011,179.396,136.339,179.44z"/>
	</g>
</g>
<g>
	<g>
		<path d="M161.94,258.641c-15.508-0.088-28.151,12.412-28.24,27.92c-0.088,15.508,12.412,28.151,27.92,28.24
			c15.508,0.088,28.151-12.412,28.24-27.92c0-0.053,0-0.106,0-0.159C189.86,271.275,177.385,258.729,161.94,258.641z
			 M173.86,286.721c-0.043,6.578-5.342,11.913-11.92,12v-0.08c-6.671,0.088-12.15-5.249-12.238-11.92
			c-0.088-6.671,5.249-12.15,11.92-12.238c6.671-0.088,12.15,5.249,12.238,11.92C173.861,286.509,173.861,286.615,173.86,286.721z"
			/>
	</g>
</g>
<g>
	<g>
		<circle cx="247.14" cy="93.201" r="14.16"/>
	</g>
</g>
<g>
	<g>
		<circle cx="116.1" cy="230.401" r="14.16"/>
	</g>
</g>
<g>
	<g>
		<circle cx="238.74" cy="286.721" r="14.16"/>
	</g>
</g>
<g>
	<g>
		<path d="M349.86,182.081c-1.023-4.298-5.336-6.954-9.634-5.931c-0.015,0.004-0.03,0.007-0.046,0.011l-32,8l-39.2,9.44l-37.84,9.12
			l-41.28,9.84V57.921c0-4.418-3.582-8-8-8C86.425,49.906,9.048,127.259,9.033,222.693
			c-0.015,95.435,77.338,172.812,172.773,172.827c0.018,0,0.036,0,0.055,0c95.125,0.42,172.579-76.353,172.999-171.478
			C354.921,209.903,353.242,195.81,349.86,182.081z M264.82,211.041c0.284,5.033-2.928,9.602-7.76,11.04
			c-5.592,2.192-11.929-0.281-14.56-5.68L264.82,211.041z M181.642,230.933c0.692,0.019,1.384-0.053,2.058-0.212l42.88-10.56
			c4.751,10.409,14.894,17.314,26.32,17.92c15.508,0,28.08-12.572,28.08-28.08c0.064-1.066,0.064-2.134,0-3.2l22.8-5.52
			c0,1.52,0.64,3.04,0.8,4.48s0,2.48,0.48,3.76c0.499,4.249,0.766,8.522,0.8,12.8c0,68.329-55.391,123.72-123.72,123.72
			S58.42,290.649,58.42,222.321c-0.402-65.173,50.368-119.215,115.44-122.88v123.28
			C173.741,227.137,177.225,230.814,181.642,230.933z M182.115,379.535C95.516,379.455,25.38,309.189,25.46,222.59
			c0.077-83.278,65.241-151.968,148.4-156.43v17.12c-74.435,3.072-132.836,64.951-131.6,139.44
			c0,77.165,62.555,139.72,139.72,139.72s139.72-62.555,139.72-139.72c0-3.6,0-7.28-0.56-10.96c0-0.88,0-1.76,0-2.64
			c0-3.68-0.88-7.36-1.52-11.12l16.64-4c1.841,9.517,2.778,19.187,2.8,28.88C338.98,309.479,268.713,379.616,182.115,379.535z"/>
	</g>
</g>
<g>
	<g>
		<path d="M386.271,132.446c-0.004-0.015-0.007-0.03-0.011-0.045c-18.464-77.789-88.051-132.629-168-132.4c-4.418,0-8,3.582-8,8
			v164.8c0,4.418,3.582,8,8,8l0.24,0.64h1.84l50.88-12.24l37.84-9.12l39.28-10l32-8
			C384.638,141.058,387.294,136.744,386.271,132.446z M310.74,143.121c-6.925-8.143-17.873-11.648-28.24-9.04
			c-10.332,2.238-18.402,10.308-20.64,20.64l-35.6,8.56l0.24-113.2c28.119,1.303,54.942,12.201,76,30.88
			c23.44,19.6,33.92,48.4,33.92,56L310.74,143.121z M352.1,132.801c-7.393-27.898-24.104-52.429-47.36-69.52
			c-22.629-17.339-49.876-27.609-78.32-29.52l0.08-16.96c66.434,3.213,123.534,48.173,142.24,112L352.1,132.801z"/>
	</g>
</g>
<g>
</g>
<g>
</g>
<g>
</g>
<g>
</g>
<g>
</g>
<g>
</g>
<g>
</g>
<g>
</g>
<g>
</g>
<g>
</g>
<g>
</g>
<g>
</g>
<g>
</g>
<g>
</g>
<g>
</g>
</svg>
