<?xml version="1.0" encoding="utf-8"?>
<!-- Generator: Adobe Illustrator 23.0.1, SVG Export Plug-In . SVG Version: 6.00 Build 0)  -->
<svg version="1.1" id="Layer_1" xmlns="http://www.w3.org/2000/svg" xmlns:xlink="http://www.w3.org/1999/xlink" x="0px" y="0px"
	 viewBox="0 0 500 500" style="enable-background:new 0 0 500 500;" xml:space="preserve">
<style type="text/css">
	.st0{fill:#F5F5F5;}
	.st1{fill:#FAFAFA;}
	.st2{fill:#EBEBEB;}
	.st3{fill:#E0E0E0;}
	.st4{display:none;}
	.st5{display:inline;fill:#EBEBEB;}
	.st6{fill:#263238;}
	.st7{fill:#455A64;}
	.st8{fill:#E8505B;}
	.st9{fill:#E4DCF9;}
	.st10{fill:#D2BFF7;}
	.st11{fill:#BF9CF7;}
	.st12{fill:#671CC7;}
	.st13{opacity:0.3;}
	.st14{fill:#FFFFFF;}
	.st15{opacity:0.8;}
	.st16{opacity:0.6;}
	.st17{fill:#FFBE9D;}
	.st18{fill:#EB996E;}
</style>
<g id="Background_Complete">
	<g>
		<g>
			<path class="st0" d="M409.5,208.6c-13.2-19.2-44.1-23-61.5-7.4c-0.4-15.6-10.7-30.6-25.2-36.4c-14.5-5.8-32.3-2.2-43.4,8.8
				c2.5-8.7-6.7-17.3-15.8-17.8c-9.1-0.5-17.5,4.4-25.3,9.1c-7.8,4.7-16.2,9.5-25.3,8.9c-9.8-0.7-18-7.5-27.2-11.1
				c-22.5-8.7-50.9,6.7-55.9,30.3c-24.9-10-56.8,6.4-63.1,32.5l364.3,4.3C428.7,219.4,419.9,210.8,409.5,208.6z"/>
		</g>
	</g>
	<g>
		<g>
			<g>
				<path class="st1" d="M394.9,91.4c0.6-4.6-5.8-8.3-10.7-8.7c-2.3-0.2-4.7,0.2-6.9-0.6c-4.8-1.7-6.6-7.8-11.3-9.7
					c-3.5-1.5-7.5-0.2-10.8,1.5c-3.4,1.7-6.7,3.8-10.4,4.1c-3.3,0.2-6.8-1-9.7,0.6c-2.1,1.2-3.2,3.6-5.2,5.1
					c-1.9,1.4-4.4,1.7-6.8,1.8c-2.4,0.1-4.8,0.2-7,1.1c-2.2,1-4,3.3-3.5,5.6L394.9,91.4z"/>
			</g>
		</g>
	</g>
	<g>
		<g>
			<g>
				<path class="st1" d="M77.8,53.7c0.4-2.6-3.3-4.7-6-4.9c-1.3-0.1-2.6,0.1-3.9-0.3c-2.7-0.9-3.7-4.3-6.3-5.4
					c-1.9-0.8-4.2-0.1-6,0.9c-1.9,0.9-3.7,2.1-5.8,2.3c-1.8,0.1-3.8-0.6-5.4,0.3c-1.2,0.7-1.8,2-2.9,2.8c-1.1,0.8-2.5,1-3.8,1
					c-1.3,0.1-2.7,0.1-3.9,0.6c-1.2,0.6-2.2,1.8-2,3.1L77.8,53.7z"/>
			</g>
		</g>
	</g>
	<g>
		<g>
			<g>
				<path class="st2" d="M453.3,138c0.7-5.3-6.7-9.6-12.3-10c-2.7-0.2-5.4,0.2-7.9-0.7c-5.5-1.9-7.6-9-13-11.2
					c-4-1.7-8.6-0.2-12.4,1.8s-7.7,4.4-12,4.7c-3.8,0.2-7.8-1.2-11.1,0.7c-2.4,1.4-3.7,4.2-6,5.8c-2.2,1.6-5.1,2-7.8,2.1
					c-2.7,0.1-5.6,0.2-8.1,1.3s-4.6,3.8-4,6.5L453.3,138z"/>
			</g>
		</g>
	</g>
	<g>
		<g>
			<g>
				<path class="st2" d="M443.1,47.8c0.5-3.7-4.7-6.8-8.6-7.1c-1.9-0.2-3.8,0.1-5.6-0.5c-3.8-1.3-5.4-6.3-9.1-7.9
					c-2.8-1.2-6-0.1-8.8,1.2c-2.7,1.4-5.4,3.1-8.4,3.3c-2.6,0.2-5.5-0.8-7.8,0.5c-1.7,1-2.6,2.9-4.2,4.1c-1.6,1.1-3.6,1.4-5.5,1.5
					s-3.9,0.1-5.7,0.9c-1.8,0.8-3.2,2.7-2.8,4.6L443.1,47.8z"/>
			</g>
		</g>
	</g>
	<g>
		<g>
			<g>
				<path class="st2" d="M92.8,136.2c0.4-2.8-3.5-5-6.4-5.3c-1.4-0.1-2.8,0.1-4.2-0.4c-2.9-1-4-4.7-6.8-5.9
					c-2.1-0.9-4.5-0.1-6.5,0.9s-4,2.3-6.3,2.4c-2,0.1-4.1-0.6-5.8,0.4c-1.3,0.7-2,2.2-3.1,3.1c-1.2,0.9-2.7,1-4.1,1.1
					s-2.9,0.1-4.2,0.7c-1.3,0.6-2.4,2-2.1,3.4L92.8,136.2z"/>
			</g>
		</g>
	</g>
	<g>
		<g>
			<g>
				<path class="st0" d="M195.6,93.9c0.8-5.8-7.4-10.6-13.6-11.1c-2.9-0.2-6,0.2-8.8-0.8c-6-2.1-8.5-9.9-14.4-12.4
					c-4.4-1.9-9.5-0.2-13.8,1.9c-4.3,2.2-8.5,4.9-13.3,5.2c-4.2,0.3-8.7-1.3-12.3,0.8c-2.7,1.5-4.1,4.6-6.6,6.5
					c-2.4,1.8-5.6,2.2-8.7,2.3c-3,0.2-6.2,0.2-8.9,1.5c-2.8,1.3-5,4.2-4.5,7.2L195.6,93.9z"/>
			</g>
		</g>
	</g>
	<g>
		<g>
			<g>
				<g>
					<path class="st2" d="M27.9,302.9c0,0-8.5,1.2-3.7,19.9c4.8,18.7,8.9,28.3,8.9,28.3s0.7,4.2-2.8,4.1c-3.4-0.1-10.4-2.9-12.7,0.8
						c-2.4,3.8-0.3,8.4,5.1,13.2c5.4,4.8,16.7,15.7,17.7,16.7s1.8,3-0.6,3.3c-2.3,0.3-18.9-1.6-19.4,6.3
						c-0.4,7.9,16.7,18.8,18.6,20.1c1.9,1.2,2.1,2.2,1.7,3.3c-0.4,1.1-5.9-0.1-10.7-0.4c-4.7-0.3-10.3,0.1-10.2,4.7
						c0.1,4.6,9.1,16.2,35.4,24.7l12.4,3.2l9.1-9.1c18.4-20.6,20.4-35.1,18.2-39.2c-2.2-4-7.2-1.6-11.1,1.1s-8.1,6.5-9,5.7
						c-0.9-0.7-1.1-1.7-0.1-3.7s10.3-20,6-26.7c-4.4-6.6-17.8,3.3-19.9,4.3c-2.2,0.9-2.5-1.3-2.2-2.6c0.4-1.4,4.7-16.5,6.9-23.4
						c2.2-6.8,1.8-11.9-2.2-14c-3.9-2-8.5,3.9-11.4,5.7c-2.9,1.8-4.4-2.2-4.4-2.2s-1.3-10.4-6.5-28.9c-5.2-18.6-13.3-15.2-13.3-15.2
						"/>
				</g>
			</g>
		</g>
		<g>
			<g>
				<g>
					<g>
						<path class="st3" d="M67.8,454.1c-3.8-13.7-10-38-15.5-58.9s-10.5-39.8-14.1-53.5c-1.8-6.8-3.3-12.3-4.4-16.2
							c-0.5-1.9-0.9-3.4-1.2-4.4c-0.1-0.5-0.2-0.9-0.3-1.1c-0.1-0.3-0.1-0.4-0.1-0.4s0,0.1,0.1,0.4s0.2,0.6,0.3,1.1
							c0.3,1,0.7,2.5,1.3,4.4c1.1,3.8,2.6,9.3,4.5,16.2c3.8,13.7,8.8,32.6,14.3,53.4c5.5,20.9,11.7,45.3,15.4,59"/>
					</g>
				</g>
			</g>
		</g>
		<g>
			<g>
				<g>
					<g>
						<path class="st3" d="M27.2,360.2c0,0,0.3,0.1,0.8,0.4s1.2,0.8,2.1,1.3c1.8,1.1,4.2,2.8,6.9,4.7c2.6,1.9,5,3.5,6.8,4.8
							c0.8,0.6,1.5,1.1,2.1,1.4c0.5,0.3,0.8,0.5,0.7,0.6c0,0-0.3-0.1-0.8-0.4s-1.2-0.8-2.1-1.3c-1.8-1.2-4.2-2.8-6.8-4.7
							c-2.6-1.8-5-3.5-6.8-4.8c-0.8-0.6-1.5-1-2.1-1.4C27.5,360.4,27.2,360.2,27.2,360.2z"/>
					</g>
				</g>
			</g>
		</g>
		<g>
			<g>
				<g>
					<g>
						<path class="st3" d="M47.7,372.8c-0.1-0.1,3.1-5.2,7.1-11.5s7.3-11.4,7.4-11.3c0.1,0.1-3.1,5.2-7.1,11.5
							S47.8,372.9,47.7,372.8z"/>
					</g>
				</g>
			</g>
		</g>
		<g>
			<g>
				<g>
					<g>
						<path class="st3" d="M54.6,405.3c0,0,0.2-0.3,0.7-0.7c0.5-0.5,1.2-1,1.9-1.7c1.6-1.4,3.9-3.4,6.3-5.7c2.4-2.3,4.5-4.4,6-6
							c0.7-0.7,1.3-1.4,1.8-1.9c0.4-0.4,0.7-0.7,0.7-0.6c0,0-0.2,0.3-0.6,0.8s-1,1.1-1.7,1.9c-1.5,1.6-3.5,3.8-5.9,6.1
							c-2.4,2.3-4.7,4.3-6.3,5.6c-0.8,0.7-1.5,1.2-2,1.6C54.9,405.1,54.7,405.3,54.6,405.3z"/>
					</g>
				</g>
			</g>
		</g>
		<g>
			<g>
				<g>
					<g>
						<path class="st3" d="M33.6,397.9c0,0,0.3,0,0.9,0.2c0.6,0.2,1.4,0.4,2.3,0.7c1.9,0.6,4.5,1.5,7.4,2.4c2.9,1,5.5,1.9,7.4,2.5
							c0.9,0.3,1.6,0.6,2.2,0.8c0.5,0.2,0.8,0.3,0.8,0.4c0,0-0.3,0-0.9-0.2c-0.6-0.2-1.4-0.4-2.3-0.7c-1.9-0.6-4.5-1.5-7.5-2.4
							c-2.9-1-5.5-1.9-7.4-2.5c-0.9-0.3-1.6-0.6-2.2-0.8C33.9,398.1,33.6,398,33.6,397.9z"/>
					</g>
				</g>
			</g>
		</g>
		<g>
			<g>
				<g>
					<g>
						<path class="st3" d="M36.1,427.4c0,0,0.4,0.1,1.1,0.3c0.8,0.2,1.7,0.5,2.9,0.9c2.5,0.8,5.8,1.8,9.6,3c3.7,1.2,7.1,2.3,9.5,3.2
							c1.2,0.4,2.1,0.7,2.9,1c0.7,0.2,1,0.4,1,0.4s-0.4-0.1-1.1-0.3c-0.8-0.2-1.7-0.5-2.9-0.9c-2.5-0.8-5.8-1.8-9.6-3
							c-3.7-1.2-7.1-2.3-9.5-3.2c-1.2-0.4-2.1-0.7-2.9-1C36.5,427.6,36.1,427.4,36.1,427.4z"/>
					</g>
				</g>
			</g>
		</g>
		<g>
			<g>
				<g>
					<g>
						<path class="st3" d="M62.6,435.8c0,0,0.3-0.3,0.8-0.9c0.6-0.6,1.4-1.3,2.4-2.2c2-1.9,4.7-4.5,7.7-7.5s5.6-5.8,7.4-7.8
							c0.9-1,1.6-1.8,2.2-2.4c0.5-0.6,0.8-0.9,0.8-0.8c0,0-0.2,0.4-0.7,0.9c-0.5,0.6-1.2,1.4-2.1,2.5c-1.8,2.1-4.4,4.9-7.4,7.9
							s-5.7,5.6-7.8,7.4c-1,0.9-1.9,1.7-2.5,2.1C62.9,435.5,62.6,435.8,62.6,435.8z"/>
					</g>
				</g>
			</g>
		</g>
	</g>
	<g>
		<g>
			<g>
				<g>
					<g>
						<g>
							<g>
								<path class="st0" d="M422.1,455.2c-20.7-11.5-28.5-37-30.9-60.6c-0.4-3.9-1.4-8-0.1-11.7s5-6.6,8.5-5.4
									c2.9,1,4.5,4.2,6.4,6.8c2.5,3.4,6,6.1,9.8,7.6c2.5,1,5.5,1.4,7.6-0.3c2.9-2.3,2.7-7,2.1-10.9c-1-7.3-2-14.5-3.1-21.8
									c-0.5-3.9-1.1-7.9-0.5-11.7c0.6-3.9,2.7-7.6,6-9.2c3.3-1.5,7.9,0,9.1,3.7c0.5,1.5,0.4,3.2,0.8,4.8c0.3,1.6,1.3,3.3,2.8,3.5
									c1.5,0.3,2.8-1,3.8-2.3c3.2-4.5,5.1-9.9,6.8-15.2c1.7-5.4,3.3-10.9,6.2-15.6c2.8-4.8,7.1-8.8,12.3-9.9
									c5.2-1,11.2,1.6,13.3,6.9c2.1,5.3-0.2,11.3-2.8,16.2c-4,7.3-8.9,13.9-14.6,19.6c-1,1-2.1,2.1-2.4,3.6
									c-0.4,2.7,2.2,5,4.7,5.5c2.8,0.6,5.8-0.1,8.6-0.1c2.9,0,6.1,0.9,7.6,3.6c2,3.8-0.5,8.4-3.2,11.5
									c-5.4,6.3-11.8,11.6-18.9,15.6c-2.5,1.4-5.2,2.7-7.1,5s-2.7,6-1,8.6s5.1,3,7.9,2c2.7-0.9,5-2.9,7.6-4.4
									c4.7-2.7,11.3-3.2,15.1,1c2.5,2.8,3.3,7,2.7,10.7c-0.6,3.8-2.3,7.2-4.2,10.4c-6.7,11.2-15.9,20.7-26.9,26.6
									C444.9,455.4,434.3,458.1,422.1,455.2"/>
							</g>
						</g>
					</g>
				</g>
			</g>
		</g>
		<g>
			<g>
				<g>
					<g>
						<g>
							<g>
								<g>
									<path class="st3" d="M425.8,439.7c1.6-12.3,4.5-25.6,7.9-39.4c0.9-3.4,1.7-6.8,2.6-10.2c0.9-3.3,1.7-6.7,2.7-9.9
										c2-6.4,4.4-12.4,6.8-18s4.9-10.8,7.3-15.7c2.4-4.9,4.7-9.3,6.9-13.3c4.5-8,8.8-13.9,12-17.9c1.6-2,2.8-3.5,3.7-4.5
										c0.4-0.5,0.7-0.9,1-1.1c0.2-0.3,0.3-0.4,0.4-0.4c0,0-0.1,0.2-0.3,0.4c-0.2,0.3-0.5,0.7-0.9,1.2c-0.8,1-2.1,2.6-3.6,4.6
										c-3.1,4-7.3,10-11.8,18c-2.2,4-4.5,8.5-6.8,13.3c-2.3,4.9-4.8,10.1-7.2,15.7c-2.4,5.6-4.8,11.5-6.8,17.9
										c-1,3.2-1.8,6.5-2.7,9.8c-0.8,3.4-1.7,6.8-2.6,10.2c-3.4,13.8-6.3,27-7.9,39.3"/>
								</g>
							</g>
						</g>
					</g>
				</g>
			</g>
		</g>
		<g>
			<g>
				<g>
					<g>
						<g>
							<g>
								<g>
									<path class="st3" d="M439.2,380.2c0,0-0.2-0.6-0.6-1.6c-0.3-1.1-0.8-2.6-1.3-4.5c-1-3.8-2.3-9.1-3.7-15
										c-1.4-5.9-2.7-11.1-3.8-14.9c-0.5-1.9-1-3.4-1.3-4.5s-0.5-1.6-0.4-1.7c0,0,0.3,0.5,0.7,1.6c0.4,1,0.9,2.5,1.5,4.4
										c1.2,3.8,2.6,9,4,14.9c1.3,5.8,2.6,11,3.5,15c0.4,1.8,0.8,3.3,1.1,4.5C439.1,379.5,439.3,380.1,439.2,380.2z"/>
								</g>
							</g>
						</g>
					</g>
				</g>
			</g>
		</g>
		<g>
			<g>
				<g>
					<g>
						<g>
							<g>
								<g>
									<path class="st3" d="M484.8,364.3c0,0-0.6,0.2-1.8,0.5c-1.2,0.3-2.9,0.7-5,1.2c-4.2,1.1-10,2.8-16.3,5s-11.9,4.5-15.9,6.2
										c-2,0.9-3.6,1.6-4.7,2.1s-1.7,0.8-1.8,0.7c0,0,0.6-0.4,1.7-1s2.7-1.4,4.7-2.3c4-1.9,9.6-4.2,15.9-6.5
										c6.3-2.2,12.1-3.9,16.4-4.8c2.1-0.5,3.9-0.8,5.1-1C484.1,364.4,484.8,364.3,484.8,364.3z"/>
								</g>
							</g>
						</g>
					</g>
				</g>
			</g>
		</g>
		<g>
			<g>
				<g>
					<g>
						<g>
							<g>
								<g>
									<path class="st3" d="M426.3,438.7c0,0-0.2-0.2-0.4-0.6c-0.3-0.5-0.6-1-1-1.7c-0.9-1.5-2.2-3.7-3.7-6.4
										c-3-5.4-7-13.1-11.3-21.6s-8.2-16.2-11.1-21.6c-1.4-2.7-2.6-4.9-3.5-6.5c-0.4-0.7-0.7-1.3-0.9-1.8
										c-0.2-0.4-0.3-0.6-0.3-0.6s0.2,0.2,0.4,0.6c0.3,0.5,0.6,1,1,1.7c0.9,1.5,2.2,3.7,3.7,6.4c3,5.4,7,13.1,11.3,21.6
										s8.2,16.2,11.1,21.6c1.4,2.7,2.6,4.9,3.5,6.5c0.4,0.7,0.7,1.3,0.9,1.8C426.2,438.4,426.3,438.6,426.3,438.7z"/>
								</g>
							</g>
						</g>
					</g>
				</g>
			</g>
		</g>
		<g>
			<g>
				<g>
					<g>
						<g>
							<g>
								<g>
									<path class="st3" d="M485.7,408.6c0,0-0.2,0.1-0.6,0.4c-0.5,0.2-1,0.5-1.7,0.9c-1.6,0.8-3.7,1.9-6.4,3.2
										c-5.4,2.7-12.7,6.6-20.9,10.9c-8.1,4.3-15.6,8.1-21,10.7c-2.7,1.3-4.9,2.3-6.5,3c-0.7,0.3-1.3,0.6-1.8,0.8
										c-0.4,0.2-0.6,0.2-0.6,0.2s0.2-0.1,0.6-0.4c0.5-0.2,1-0.5,1.7-0.9c1.6-0.8,3.7-1.9,6.4-3.2c5.4-2.7,12.7-6.6,20.9-10.9
										c8.1-4.3,15.6-8.1,21-10.7c2.7-1.3,4.9-2.3,6.5-3c0.7-0.3,1.3-0.6,1.8-0.8C485.4,408.7,485.7,408.6,485.7,408.6z"/>
								</g>
							</g>
						</g>
					</g>
				</g>
			</g>
		</g>
	</g>
</g>
<g id="Background_Simple" class="st4">
	<path class="st5" d="M312.8,65.7L312,66c-6.8,2.9-11.7,9.2-12.3,16.6c-0.1,0.9-0.1,1.9-0.1,2.9c0.4,6.9,4.5,13.4,10.5,16.8
		c3.5,2,7.8,3,10.3,6.2c3.3,4.1,2.5,10,1.6,15.2c-1,5.2-1.7,11.1,1.6,15.2c2.1,2.5,5.4,3.8,8.7,4.1c8.7,0.9,17.3-4,22.3-11.2
		c5-7.1,6.8-16.2,6.4-24.9c-0.5-12.2-5.3-24.5-14.3-32.8C337.9,65.8,324.5,61.9,312.8,65.7z"/>
	<path class="st5" d="M141.8,165.8c4.2-4.3,13.8-7.4,19.6-6c5.8,1.5,10.7,6.2,12.3,11.9c2,7.1-0.4,15.6,4.1,21.4
		c3.2,4.1,8.7,5.3,13.3,7.6c10.3,5.2,16.4,17.6,14.4,29c-2.1,11.4-12.1,20.8-23.6,22.1c-11.7,1.3-23-5.1-31.5-13.3
		c-8.7-8.4-16.8-23.6-17.9-35.7C131.2,188.9,131.2,178,141.8,165.8"/>
	<circle class="st5" cx="281.1" cy="39.9" r="18.1"/>
	<path class="st5" d="M332.8,183.7c-4.2-9-16.1-13.4-25.1-9.4l-1.3,0.6c-8.7,4.7-12.5,16.8-8,25.6s16.6,12.8,25.5,8.4
		C332.7,204.7,337,192.7,332.8,183.7z"/>
</g>
<g id="Floor">
	<g>
		<g>
			<g>
				<path class="st6" d="M484.7,478.4c0,0.1-105.5,0.3-235.7,0.3s-235.7-0.1-235.7-0.3c0-0.1,105.5-0.3,235.7-0.3
					S484.7,478.2,484.7,478.4z"/>
			</g>
		</g>
	</g>
</g>
<g id="Device">
	<g>
		<g>
			<g>
				<g>
					<g>
						<g>
							<g>
								<g>
									<g>
										<g>
											<g>
												<path class="st7" d="M423.4,472.8H70.8c-8,0-14.6-6.5-14.6-14.6V235c0-8,6.5-14.6,14.6-14.6h352.6
													c8,0,14.6,6.5,14.6,14.6v223.3C437.9,466.3,431.4,472.8,423.4,472.8z"/>
											</g>
										</g>
									</g>
								</g>
							</g>
						</g>
						<g>
							<g>
								<g>
									<g>
										<g>
											<g>
												<path class="st7" d="M437.4,478.6H58.7c-9.6,0-17.4-7.8-17.4-17.4v-4.7h413.6v4.7C454.8,470.8,447,478.6,437.4,478.6z"
													/>
											</g>
										</g>
									</g>
								</g>
							</g>
						</g>
						<g>
							<g>
								<g>
									<g>
										<g>
											<g>
												<rect x="66.5" y="230.4" class="st6" width="360.2" height="213.2"/>
											</g>
										</g>
									</g>
								</g>
							</g>
						</g>
						<g>
							<g>
								<g>
									<g>
										<g>
											<g>
												<polygon class="st6" points="209.4,454.1 214.6,462.3 286.8,462.3 291.5,454.1 												"/>
											</g>
										</g>
									</g>
								</g>
							</g>
						</g>
					</g>
					<g>
						<g>
							<g>
								<g>
									<g>
										<g>
											<g>
												<g>
													<g>
														<g>
															<path class="st2" d="M416.7,442.9H77.1c-1.8,0-3.3-1.5-3.3-3.3V240.9c0-1.8,1.5-3.3,3.3-3.3h339.5
																c1.8,0,3.3,1.5,3.3,3.3v198.7C419.9,441.4,418.5,442.9,416.7,442.9z"/>
														</g>
													</g>
												</g>
											</g>
										</g>
									</g>
								</g>
								<g>
									<g>
										<g>
											<g>
												<g>
													<g>
														<g>
															<polygon class="st1" points="419.6,443.2 73.5,443.2 73.9,253 419.6,253 															"/>
														</g>
													</g>
												</g>
											</g>
										</g>
									</g>
								</g>
								<g>
									<g>
										<g>
											<g>
												<g>
													<g>
														<g>
															<path class="st6" d="M102.3,245.6c0,1.5-1.2,2.8-2.8,2.8c-1.5,0-2.8-1.2-2.8-2.8c0-1.5,1.2-2.8,2.8-2.8
																C101,242.8,102.3,244,102.3,245.6z"/>
														</g>
													</g>
												</g>
											</g>
										</g>
									</g>
								</g>
								<g>
									<g>
										<g>
											<g>
												<g>
													<g>
														<g>
															<path class="st6" d="M85.5,245.6c0,1.5-1.2,2.8-2.8,2.8c-1.5,0-2.8-1.2-2.8-2.8c0-1.5,1.2-2.8,2.8-2.8
																S85.5,244,85.5,245.6z"/>
														</g>
													</g>
												</g>
											</g>
										</g>
									</g>
								</g>
								<g>
									<g>
										<g>
											<g>
												<g>
													<g>
														<g>
															<path class="st6" d="M93.5,245.6c0,1.5-1.2,2.8-2.8,2.8c-1.5,0-2.8-1.2-2.8-2.8c0-1.5,1.2-2.8,2.8-2.8
																S93.5,244,93.5,245.6z"/>
														</g>
													</g>
												</g>
											</g>
										</g>
									</g>
								</g>
							</g>
						</g>
					</g>
					<g>
						<g>
							<g>
								<g>
									<g>
										<g>
											<path class="st6" d="M434.6,454.1c0,0.1-84.7,0.2-189.2,0.2s-189.2-0.1-189.2-0.2s84.7-0.2,189.2-0.2
												S434.6,454,434.6,454.1z"/>
										</g>
									</g>
								</g>
							</g>
						</g>
					</g>
				</g>
			</g>
		</g>
	</g>
	<g>
		<g>
			<g>
				<g>
					<path class="st8" d="M383.1,334.9c-9.7,8.1-14.2,22.1-11,34.4c-9-1.8-18.8,1.2-25.3,7.6c-6.5,6.5-9.5,16.2-7.8,25.2
						c-9.9-6.8-25.1-4.3-32.2,5.4c-0.2-6.4-0.4-13.1-3.8-18.6c-3.4-5.4-11-8.8-16.4-5.4c4.1-4.6,4.7-11.9,1.4-17.1
						c-3.2-5.2-10.1-7.9-16-6.4c-0.2-7.7-5-62.1-9-107.9h-34c-3.9,45.1-8.6,96.9-8.7,104.3c-5.9-1.6-12.8,1.1-16,6.4
						c-3.2,5.2-2.6,12.5,1.4,17.1c-5.4-3.5-13-0.1-16.4,5.4c-3.4,5.4-3.6,12.2-3.8,18.6c-7.1-9.7-22.3-12.2-32.2-5.4
						c1.7-9-1.3-18.8-7.8-25.2c-6.5-6.5-16.3-9.4-25.3-7.6c3.2-12.3-1.3-26.2-11-34.4c-9.7-8.1-24.2-10.1-35.8-4.7v116.6h345.3v-113
						C407.4,324.8,392.8,326.7,383.1,334.9z"/>
				</g>
			</g>
			<g>
				<g>
					<g>
						<path class="st9" d="M383.1,334.9c-9.7,8.1-14.2,22.1-11,34.4c-9-1.8-18.8,1.2-25.3,7.6c-6.5,6.5-9.5,16.2-7.8,25.2
							c-9.9-6.8-25.1-4.3-32.2,5.4c-0.2-6.4-0.4-13.1-3.8-18.6c-3.4-5.4-11-8.8-16.4-5.4c4.1-4.6,4.7-11.9,1.4-17.1
							c-3.2-5.2-10.1-7.9-16-6.4c-0.2-7.7-5-62.1-9-107.9h-34c-3.9,45.1-8.6,96.9-8.7,104.3c-5.9-1.6-12.8,1.1-16,6.4
							c-3.2,5.2-2.6,12.5,1.4,17.1c-5.4-3.5-13-0.1-16.4,5.4c-3.4,5.4-3.6,12.2-3.8,18.6c-7.1-9.7-22.3-12.2-32.2-5.4
							c1.7-9-1.3-18.8-7.8-25.2c-6.5-6.5-16.3-9.4-25.3-7.6c3.2-12.3-1.3-26.2-11-34.4c-9.7-8.1-24.2-10.1-35.8-4.7v116.6h345.3
							v-113C407.4,324.8,392.8,326.7,383.1,334.9z"/>
					</g>
				</g>
			</g>
		</g>
		<g>
			<g>
				<path class="st8" d="M381,419.8c-12.4-8.3-28.2-11.2-42.7-7.9c-14.5,3.3-27.5,12.9-34.9,25.8c-3-4.1-7-7.4-11.6-9.7
					c0.3-0.9,0.6-1.7,0.8-2.6c2-8.9-1.8-18.9-9.3-24.2c-5.3-3.7-12.2-4.9-18.6-3.5l-10.2-145.6h-13.4v133.8
					c-8.3,1.3-14.1,11.1-11.2,19c-5.8,0.8-11,4.7-13.5,10c-0.8,1.7-0.9,5.4-0.2,9.5c-10.1,0.1-20.1,5.1-26,13.3
					c-7.5-12.9-20.4-22.4-34.9-25.8c-14.5-3.3-30.3-0.4-42.7,7.9c-3.5-17-22.5-29.1-39.4-25v48.5l155.8-0.2c1,0.3,2.1,0.5,3.3,0.5
					l38.1-0.4l150.1,0.2v-48.5C403.6,390.8,384.5,402.8,381,419.8z"/>
			</g>
		</g>
		<g>
			<g>
				<path class="st10" d="M381,419.8c-12.4-8.3-28.2-11.2-42.7-7.9c-14.5,3.3-27.5,12.9-34.9,25.8c-3-4.1-7-7.4-11.6-9.7
					c0.3-0.9,0.6-1.7,0.8-2.6c2-8.9-1.8-18.9-9.3-24.2c-5.3-3.7-12.2-4.9-18.6-3.5l-10.2-145.6h-13.4v133.8
					c-8.3,1.3-14.1,11.1-11.2,19c-5.8,0.8-11,4.7-13.5,10c-0.8,1.7-0.9,5.4-0.2,9.5c-10.1,0.1-20.1,5.1-26,13.3
					c-7.5-12.9-20.4-22.4-34.9-25.8c-14.5-3.3-30.3-0.4-42.7,7.9c-3.5-17-22.5-29.1-39.4-25v48.5l155.8-0.2c1,0.3,2.1,0.5,3.3,0.5
					l38.1-0.4l150.1,0.2v-48.5C403.6,390.8,384.5,402.8,381,419.8z"/>
			</g>
		</g>
	</g>
</g>
<g id="Rocket">
	<g>
		<g>
			<g>
				<g>
					<g>
						<g>
							<g>
								<path class="st8" d="M233.3,206.5c-7.7,3.6-11.2,14.2-7.2,21.7c1.6,3,4.2,5.6,4.5,8.9c0.5,5.1-4.3,9.1-5.8,14
									c-1.8,5.8,2.1,12.6,7.9,14.1c2.6,0.7,5.8,0.6,7.5,2.6c2.2,2.6,0.6,7,2.5,9.9c1.7,2.6,5.8,2.7,8.4,1c2.6-1.7,4-4.7,5.1-7.7
									c1-3,1.8-6.1,3.6-8.6c2-2.8,4.9-4.8,7.3-7.3c5.7-6,7.5-15,6.2-23.2s-5.3-15.7-9.7-22.7"/>
							</g>
						</g>
					</g>
				</g>
				<g>
					<g>
						<g>
							<g>
								<g>
									<path class="st11" d="M233.3,206.5c-7.7,3.6-11.2,14.2-7.2,21.7c1.6,3,4.2,5.6,4.5,8.9c0.5,5.1-4.3,9.1-5.8,14
										c-1.8,5.8,2.1,12.6,7.9,14.1c2.6,0.7,5.8,0.6,7.5,2.6c2.2,2.6,0.6,7,2.5,9.9c1.7,2.6,5.8,2.7,8.4,1c2.6-1.7,4-4.7,5.1-7.7
										c1-3,1.8-6.1,3.6-8.6c2-2.8,4.9-4.8,7.3-7.3c5.7-6,7.5-15,6.2-23.2s-5.3-15.7-9.7-22.7"/>
								</g>
							</g>
						</g>
					</g>
				</g>
			</g>
			<g>
				<g>
					<g>
						<g>
							<path class="st12" d="M240,210.9c-6.5,2.9-9.4,11.9-5.7,18c2.2,3.7,6.6,7.1,5.6,11.3c-0.7,2.9-3.8,4.6-4.7,7.4
								c-1.2,3.7,2.4,7.7,6.3,8.2c3.9,0.5,7.7-1.6,10.6-4.2c10.2-9,12.7-26.6,6.3-38.6"/>
						</g>
					</g>
				</g>
			</g>
		</g>
		<g>
			<g>
				<g>
					<g>
						<path class="st12" d="M273.6,153.6c0,0,33.4,22.1,29.8,60.4l-30.7-13.8L273.6,153.6z"/>
					</g>
				</g>
			</g>
		</g>
		<g>
			<g>
				<polygon class="st6" points="218,199.4 225.6,212 265,212 272.6,200.1 				"/>
			</g>
		</g>
		<g>
			<g>
				<path class="st8" d="M243.3,72.4c-15.6,1-27.6,14.1-27.3,29.8l2,98h54.6l1.8-98C274.7,85,260.3,71.3,243.3,72.4z"/>
			</g>
		</g>
		<g>
			<g>
				<path class="st9" d="M243.3,72.4c-15.6,1-27.6,14.1-27.3,29.8l2,98h54.6l1.8-98C274.7,85,260.3,71.3,243.3,72.4z"/>
			</g>
		</g>
		<g>
			<g>
				<g>
					<g>
						<path class="st12" d="M217,153.6c0,0-33.4,22.1-29.8,60.4l30.7-13.8L217,153.6z"/>
					</g>
				</g>
			</g>
		</g>
		<g>
			<g>
				<g>
					<g>
						<path class="st12" d="M216.3,98.9c11.5-10.1,47.8-9.9,57.5-1.7c-2.5-36.4-30.3-50-30.3-50C215.1,66.9,216.3,98.9,216.3,98.9z"
							/>
					</g>
				</g>
			</g>
		</g>
		<g>
			<g>
				<g>
					<g>
						<g>
							<path class="st6" d="M243.6,47.3c0,0,0.1,0.1,0.3,0.3s0.5,0.5,0.9,0.9s0.9,0.9,1.5,1.4c0.3,0.3,0.6,0.6,1,0.9
								c0.3,0.3,0.7,0.7,1,1.1c0.7,0.8,1.5,1.7,2.4,2.6c0.8,1,1.7,2.1,2.7,3.3c0.5,0.6,0.9,1.3,1.4,1.9c0.5,0.7,1,1.3,1.4,2.1
								c0.9,1.5,1.9,3,2.7,4.8c1.8,3.4,3.4,7.3,4.5,11.7c0.6,2.2,1,4.5,1.3,6.9c0.2,1.2,0.3,2.4,0.4,3.6s0.1,2.5,0.1,3.8
								c0,10.2-0.1,21.3-0.3,33c-0.3,23.4-0.6,44.7-0.9,60c-0.1,7.7-0.2,13.9-0.3,18.2c0,2.1-0.1,3.8-0.1,4.9c0,0.6,0,1,0,1.3
								s0,0.4,0,0.4s0-0.1,0-0.4c0-0.3,0-0.7,0-1.3c0-1.1,0-2.8,0-4.9c0.1-4.3,0.1-10.5,0.2-18.2c0.2-15.4,0.5-36.6,0.8-60
								c0.1-11.7,0.3-22.9,0.3-33c0-1.3,0-2.5-0.1-3.7c-0.2-1.2-0.3-2.4-0.4-3.6c-0.3-2.4-0.7-4.7-1.3-6.9
								c-1.1-4.4-2.7-8.3-4.5-11.7c-0.8-1.7-1.8-3.3-2.7-4.7c-0.4-0.7-1-1.4-1.4-2.1c-0.5-0.7-0.9-1.3-1.4-1.9
								c-0.9-1.2-1.8-2.3-2.6-3.3c-0.9-1-1.7-1.9-2.4-2.7c-0.4-0.4-0.7-0.8-1-1.1s-0.7-0.6-1-0.9c-0.6-0.6-1.1-1.1-1.5-1.5
								s-0.7-0.7-0.9-0.9C243.7,47.4,243.6,47.3,243.6,47.3z"/>
						</g>
					</g>
				</g>
			</g>
		</g>
		<g>
			<g>
				<g>
					<g>
						<g>
							
								<ellipse transform="matrix(0.2156 -0.9765 0.9765 0.2156 72.8067 332.289)" class="st1" cx="243.2" cy="120.8" rx="14.4" ry="13.4"/>
						</g>
					</g>
				</g>
			</g>
			<g>
				<g>
					<g>
						<g>
							<g>
								<path class="st6" d="M246.3,106.7c0,0-0.1,0-0.2,0c-0.2,0-0.4-0.1-0.7-0.1c-0.1,0-0.3,0-0.5-0.1c-0.2,0-0.4,0-0.6,0
									c-0.2,0-0.4,0-0.7,0c-0.2,0-0.5,0-0.8,0c-0.6,0-1.2,0.1-1.8,0.2c-0.6,0.2-1.4,0.3-2.1,0.6c-1.4,0.6-3,1.5-4.4,2.8
									s-2.7,3.1-3.6,5.3c-0.2,0.5-0.4,1.1-0.6,1.7c-0.1,0.3-0.2,0.6-0.2,0.9c-0.1,0.3-0.1,0.6-0.2,0.9l-0.1,0.5v0.5
									c0,0.3,0,0.6-0.1,0.9c0,0.3,0,0.6,0,1v0.5l0.1,0.5c0.2,2.6,1.2,5.2,3,7.4c1.7,2.2,4.3,3.9,7.2,4.6c2.9,0.6,6,0.2,8.5-1.1
									s4.5-3.3,5.8-5.5l0.3-0.4l0.2-0.4c0.1-0.3,0.3-0.6,0.4-0.9c0.1-0.3,0.2-0.6,0.3-0.9l0.2-0.4l0.1-0.4
									c0.1-0.3,0.2-0.6,0.2-0.9c0.1-0.3,0.1-0.6,0.2-0.9c0.1-0.6,0.2-1.2,0.2-1.7c0.2-2.3-0.3-4.5-1-6.3c-0.7-1.8-1.8-3.3-2.8-4.4
									c-0.5-0.6-1.1-1-1.6-1.5c-0.6-0.4-1-0.7-1.5-1c-0.2-0.1-0.5-0.3-0.7-0.4s-0.4-0.2-0.6-0.3c-0.2-0.1-0.4-0.2-0.5-0.2
									c-0.2-0.1-0.3-0.1-0.5-0.1c-0.3-0.1-0.5-0.1-0.6-0.2C246.4,106.8,246.3,106.7,246.3,106.7s0.1,0,0.2,0
									c0.2,0,0.4,0.1,0.6,0.2c0.1,0,0.3,0.1,0.5,0.1c0.2,0.1,0.4,0.1,0.6,0.2c0.2,0.1,0.4,0.2,0.6,0.2c0.2,0.1,0.5,0.2,0.7,0.4
									c0.5,0.2,1,0.6,1.6,1c0.5,0.4,1.1,0.9,1.7,1.4c1.1,1.1,2.2,2.6,2.9,4.5c0.7,1.8,1.2,4,1.1,6.4c0,0.6-0.1,1.2-0.2,1.8
									c-0.1,0.3-0.1,0.6-0.2,0.9s-0.2,0.6-0.2,0.9l-0.1,0.5l-0.2,0.4c-0.1,0.3-0.2,0.6-0.3,0.9s-0.3,0.6-0.4,0.9l-0.2,0.4
									l-0.3,0.4c-1.3,2.3-3.3,4.3-5.9,5.6c-2.5,1.4-5.7,1.8-8.7,1.2c-3-0.7-5.6-2.4-7.4-4.7c-1.8-2.3-2.8-5-3-7.6l-0.1-0.5v-0.5
									c0-0.3,0-0.6,0-1c0-0.3,0-0.6,0.1-1v-0.5l0.1-0.5c0.1-0.3,0.1-0.6,0.2-0.9c0.1-0.3,0.2-0.6,0.2-0.9c0.1-0.6,0.4-1.1,0.6-1.7
									c0.9-2.2,2.2-4,3.7-5.3c1.5-1.4,3-2.3,4.5-2.8c0.7-0.3,1.5-0.5,2.1-0.6c0.7-0.1,1.3-0.2,1.8-0.2c0.3,0,0.5,0,0.8,0
									c0.2,0,0.5,0,0.7,0s0.4,0,0.6,0c0.2,0,0.3,0.1,0.5,0.1c0.3,0.1,0.5,0.1,0.7,0.1C246.3,106.7,246.3,106.7,246.3,106.7z"/>
							</g>
						</g>
					</g>
				</g>
			</g>
		</g>
		<g>
			<g>
				<path class="st3" d="M218,199.4"/>
			</g>
		</g>
		<g>
			<g>
				<g>
					<path class="st6" d="M229.4,118.6c0,0.2-3.1,0.1-6.8,0.8c-3.7,0.6-6.6,1.8-6.6,1.6c0-0.1,0.7-0.4,1.8-0.9
						c1.2-0.4,2.8-1,4.7-1.3s3.6-0.4,4.9-0.4C228.7,118.5,229.4,118.6,229.4,118.6z"/>
				</g>
			</g>
		</g>
		<g>
			<g>
				<g>
					<path class="st6" d="M273.6,118.6c0,0.1-0.9,0-2.5-0.2c-1.5-0.2-3.6-0.4-5.9-0.6s-4.4-0.2-5.9-0.2s-2.5,0-2.5-0.1
						s0.9-0.2,2.5-0.3c1.5-0.1,3.6-0.1,6,0.1c2.3,0.2,4.4,0.5,5.9,0.8C272.7,118.3,273.6,118.6,273.6,118.6z"/>
				</g>
			</g>
		</g>
		<g>
			<g>
				<g>
					<path class="st6" d="M273.9,174.7c0,0-0.2,0-0.6,0s-1-0.1-1.7-0.1c-1.5-0.1-3.6-0.3-6.1-0.5c-5.1-0.4-12.2-0.7-20-0.7
						s-14.9,0.4-20,0.7c-2.5,0.2-4.6,0.4-6.1,0.5c-0.7,0.1-1.2,0.1-1.7,0.1c-0.4,0-0.6,0-0.6,0s0.2-0.1,0.6-0.1
						c0.4-0.1,1-0.1,1.6-0.2c1.4-0.2,3.5-0.4,6.1-0.7c5.1-0.5,12.2-0.9,20.1-0.9c7.9,0,15,0.4,20.1,0.9c2.6,0.2,4.6,0.5,6.1,0.6
						c0.7,0.1,1.2,0.2,1.6,0.2C273.7,174.6,273.9,174.7,273.9,174.7z"/>
				</g>
			</g>
		</g>
		<g>
			<g>
				<g>
					<path class="st6" d="M230.9,132.7c0,0.1-0.3,0.1-0.6,0.5c-0.1,0.2-0.2,0.5-0.1,0.7c0.1,0.2,0.3,0.4,0.6,0.4s0.6-0.1,0.7-0.3
						c0.1-0.2,0.1-0.5,0-0.7C231.3,132.9,231,132.8,230.9,132.7c0.1-0.1,0.6-0.1,0.9,0.4c0.2,0.3,0.3,0.7,0.1,1.1
						c-0.2,0.4-0.7,0.7-1.2,0.7s-1-0.4-1.1-0.8c-0.1-0.5,0.1-0.8,0.3-1.1C230.4,132.5,230.9,132.6,230.9,132.7z"/>
				</g>
			</g>
		</g>
		<g>
			<g>
				<g>
					<path class="st6" d="M242.8,139.1c0,0.1-0.3,0.1-0.6,0.5c-0.1,0.2-0.2,0.5-0.1,0.7c0.1,0.2,0.3,0.4,0.6,0.4s0.6-0.1,0.7-0.3
						c0.1-0.2,0.1-0.5,0-0.7C243.2,139.3,242.9,139.2,242.8,139.1c0.1-0.1,0.6-0.1,0.9,0.4c0.2,0.3,0.3,0.7,0.1,1.1
						c-0.2,0.4-0.7,0.7-1.2,0.7s-1-0.4-1.1-0.8c-0.1-0.5,0.1-0.8,0.3-1.1C242.3,138.9,242.8,139,242.8,139.1z"/>
				</g>
			</g>
		</g>
		<g>
			<g>
				<g>
					<path class="st6" d="M255.9,133.6c0,0.1-0.3,0.1-0.6,0.5c-0.1,0.2-0.2,0.5-0.1,0.7c0.1,0.2,0.3,0.4,0.6,0.4
						c0.3,0,0.6-0.1,0.7-0.3s0.1-0.5,0-0.7c-0.2-0.4-0.5-0.5-0.5-0.6s0.5-0.1,0.8,0.4c0.2,0.3,0.3,0.7,0.1,1.1
						c-0.2,0.4-0.7,0.7-1.2,0.7c-0.5,0-1-0.4-1.1-0.8c-0.1-0.5,0.1-0.8,0.3-1.1C255.5,133.4,255.9,133.6,255.9,133.6z"/>
				</g>
			</g>
		</g>
		<g>
			<g>
				<g>
					<path class="st6" d="M260.2,123.8c0,0.1-0.3,0.1-0.6,0.5c-0.1,0.2-0.2,0.5-0.1,0.7s0.3,0.4,0.6,0.4c0.3,0,0.6-0.1,0.7-0.3
						c0.1-0.2,0.1-0.5,0-0.7c-0.2-0.4-0.5-0.5-0.5-0.6s0.5-0.1,0.8,0.4c0.2,0.3,0.3,0.7,0.1,1.1c-0.2,0.4-0.7,0.7-1.2,0.7
						s-1-0.4-1.1-0.8c-0.1-0.5,0.1-0.8,0.3-1.1C259.7,123.6,260.2,123.8,260.2,123.8z"/>
				</g>
			</g>
		</g>
		<g>
			<g>
				<g>
					<path class="st6" d="M226.5,122.9c0,0.1-0.3,0.1-0.6,0.5c-0.1,0.2-0.2,0.5-0.1,0.7c0.1,0.2,0.3,0.4,0.6,0.4s0.6-0.1,0.7-0.3
						c0.1-0.2,0.1-0.5,0-0.7C226.9,123.1,226.6,123,226.5,122.9c0.1-0.1,0.6-0.1,0.9,0.4c0.2,0.3,0.3,0.7,0.1,1.1s-0.7,0.7-1.2,0.7
						s-1-0.4-1.1-0.8c-0.1-0.5,0.1-0.8,0.3-1.1C226.1,122.7,226.6,122.8,226.5,122.9z"/>
				</g>
			</g>
		</g>
		<g>
			<g>
				<g>
					<path class="st6" d="M255.9,109.4c0-0.1,0.3-0.1,0.6-0.5c0.1-0.2,0.2-0.5,0.1-0.7s-0.3-0.4-0.6-0.4c-0.3,0-0.6,0.1-0.7,0.3
						c-0.1,0.2-0.1,0.5,0,0.7C255.5,109.2,255.8,109.3,255.9,109.4c-0.1,0.1-0.6,0.1-0.9-0.4c-0.2-0.3-0.3-0.7-0.1-1.1
						s0.7-0.7,1.2-0.7c0.5,0,1,0.4,1.1,0.8c0.1,0.5-0.1,0.8-0.3,1.1C256.3,109.6,255.8,109.5,255.9,109.4z"/>
				</g>
			</g>
		</g>
		<g>
			<g>
				<g>
					<path class="st6" d="M242.7,103.6c0-0.1,0.3-0.1,0.6-0.5c0.1-0.2,0.2-0.5,0.1-0.7c-0.1-0.2-0.3-0.4-0.6-0.4s-0.6,0.1-0.7,0.3
						c-0.1,0.2-0.1,0.5,0,0.7C242.3,103.4,242.6,103.5,242.7,103.6c-0.1,0.1-0.6,0.1-0.9-0.4c-0.2-0.3-0.3-0.7-0.1-1.1
						s0.7-0.7,1.2-0.7s1,0.4,1.1,0.8c0.1,0.5-0.1,0.8-0.3,1.1C243.2,103.8,242.7,103.7,242.7,103.6z"/>
				</g>
			</g>
		</g>
		<g>
			<g>
				<g>
					<path class="st6" d="M229.8,109.4c0-0.1,0.3-0.1,0.6-0.5c0.1-0.2,0.2-0.5,0.1-0.7c-0.1-0.2-0.3-0.4-0.6-0.4s-0.6,0.1-0.7,0.3
						c-0.1,0.2-0.1,0.5,0,0.7C229.4,109.2,229.7,109.3,229.8,109.4c-0.1,0.1-0.6,0.1-0.9-0.4c-0.2-0.3-0.3-0.7-0.1-1.1
						s0.7-0.7,1.2-0.7s1,0.4,1.1,0.8c0.1,0.5-0.1,0.8-0.3,1.1C230.2,109.6,229.7,109.5,229.8,109.4z"/>
				</g>
			</g>
		</g>
		<g>
			<g>
				<g>
					<g>
						<g>
							<g>
								<path class="st12" d="M241.1,157.6l1.2,58.5c0,1.7,1.4,3,3.1,3l0,0c1.7,0,3-1.4,3-3c0.1-10.5,0.5-46,0.6-58.6
									c0-2.4-2.1-4.3-4.5-3.9l0,0C242.5,153.9,241.1,155.6,241.1,157.6z"/>
							</g>
						</g>
					</g>
				</g>
			</g>
			<g class="st13">
				<g>
					<g>
						<g>
							<g>
								<path d="M241.1,157.6l1.2,58.5c0,1.7,1.4,3,3.1,3l0,0c1.7,0,3-1.4,3-3c0.1-10.5,0.5-46,0.6-58.6c0-2.4-2.1-4.3-4.5-3.9l0,0
									C242.5,153.9,241.1,155.6,241.1,157.6z"/>
							</g>
						</g>
					</g>
				</g>
			</g>
		</g>
		<g>
			<g>
				<g>
					<path class="st14" d="M242.9,50.6c0.2,0.2-1.8,2.1-4.6,5.4c-1.4,1.6-3,3.7-4.7,6c-1.6,2.4-3.3,5-4.9,7.9
						c-1.6,2.9-2.8,5.8-3.9,8.4c-1,2.7-1.8,5.1-2.4,7.2c-1.2,4.2-1.7,6.8-2,6.8c-0.2,0-0.1-2.8,0.8-7.1c0.4-2.2,1.2-4.7,2.1-7.5
						c1-2.7,2.3-5.7,3.9-8.7c1.6-3,3.4-5.7,5.1-8c1.8-2.3,3.5-4.3,5-5.9C240.5,52,242.8,50.5,242.9,50.6z"/>
				</g>
			</g>
		</g>
		<g>
			<g>
				<g>
					<path class="st14" d="M215.8,159.4c0.2,0.2-2.6,2-6.5,5.6c-0.5,0.5-1,0.9-1.5,1.4s-1,1.1-1.5,1.6c-1.1,1.1-2.1,2.4-3.2,3.7
						c-2.1,2.7-4.3,5.9-6.2,9.4c-1.8,3.5-3.3,7.1-4.3,10.4c-0.5,1.7-1,3.2-1.3,4.8c-0.2,0.8-0.4,1.5-0.5,2.2s-0.2,1.4-0.3,2
						c-0.8,5.2-0.7,8.5-1,8.5c-0.1,0-0.2-0.8-0.3-2.3c0-0.4,0-0.8-0.1-1.2c0-0.5,0-1,0-1.5c0-1.1,0-2.3,0.2-3.6
						c0.1-0.7,0.2-1.4,0.2-2.1c0.1-0.7,0.3-1.5,0.4-2.3c0.2-1.6,0.7-3.2,1.1-4.9c1-3.4,2.4-7.1,4.3-10.7c1.9-3.6,4.2-6.9,6.4-9.6
						c1.2-1.3,2.3-2.6,3.4-3.7c0.6-0.5,1.1-1.1,1.6-1.6c0.6-0.5,1.1-0.9,1.6-1.4c1-0.9,2-1.6,2.9-2.2c0.4-0.3,0.8-0.6,1.2-0.9
						c0.4-0.2,0.7-0.4,1.1-0.6C215,159.7,215.7,159.3,215.8,159.4z"/>
				</g>
			</g>
		</g>
	</g>
	<g>
		<g>
			<g>
				<path class="st8" d="M172.7,350.2c-2.7-1.5-4.2-4.8-3.7-7.8s3-5.6,6-6.2c2.7-0.5,6.2,0.2,7.9-2c1.6-2,0.4-4.6,1.1-7.8
					c0.7-3.1,3.4-4.7,6.5-4.7c3,0,5.8,2,7.4,4.6c1.5,2.6,2.5,6.7,2.1,9.7c-0.8,6.9-4.5,10.5-9.1,13.4
					C186.3,352.4,177.6,353.1,172.7,350.2"/>
			</g>
		</g>
		<g>
			<g>
				<g>
					<path class="st9" d="M172.7,350.2c-2.7-1.5-4.2-4.8-3.7-7.8s3-5.6,6-6.2c2.7-0.5,6.2,0.2,7.9-2c1.6-2,0.4-4.6,1.1-7.8
						c0.7-3.1,3.4-4.7,6.5-4.7c3,0,5.8,2,7.4,4.6c1.5,2.6,2.5,6.7,2.1,9.7c-0.8,6.9-4.5,10.5-9.1,13.4
						C186.3,352.4,177.6,353.1,172.7,350.2"/>
				</g>
			</g>
		</g>
	</g>
	<g>
		<g>
			<g>
				<path class="st8" d="M284.9,294.8c2.2-4.2,7.2-6.8,11.9-6.2c4.7,0.6,8.9,4.3,10,9c1,4.2,0,9.6,3.5,12.2
					c3.2,2.3,7.3,0.3,12.3,1.2c4.9,0.9,7.6,5.1,7.7,9.8c0.1,4.7-2.8,9.2-6.8,11.8s-10.3,4.3-15,3.9c-10.8-0.9-16.6-6.4-21.4-13.4
					C282.3,316.1,280.7,302.5,284.9,294.8"/>
			</g>
		</g>
		<g>
			<g>
				<g>
					<path class="st9" d="M284.9,294.8c2.2-4.2,7.2-6.8,11.9-6.2c4.7,0.6,8.9,4.3,10,9c1,4.2,0,9.6,3.5,12.2
						c3.2,2.3,7.3,0.3,12.3,1.2c4.9,0.9,7.6,5.1,7.7,9.8c0.1,4.7-2.8,9.2-6.8,11.8s-10.3,4.3-15,3.9c-10.8-0.9-16.6-6.4-21.4-13.4
						C282.3,316.1,280.7,302.5,284.9,294.8"/>
				</g>
			</g>
		</g>
	</g>
	<g>
		<g>
			<g>
				<path class="st8" d="M204.1,280.6c-1.9,0.8-4.1,3.5-4,6.6c0.1,4,4.3,7.3,8.2,6.6c3.9-0.7,6.7-5.3,5.4-9
					C212.6,281,207.7,278.9,204.1,280.6"/>
			</g>
		</g>
		<g>
			<g>
				<g>
					<path class="st9" d="M204.1,280.6c-1.9,0.8-4.1,3.5-4,6.6c0.1,4,4.3,7.3,8.2,6.6c3.9-0.7,6.7-5.3,5.4-9
						C212.6,281,207.7,278.9,204.1,280.6"/>
				</g>
			</g>
		</g>
	</g>
	<g>
		<g>
			<g>
				<path class="st8" d="M310.4,364.5c-0.9,0.4-2,1.8-2,3.3c0.1,2,2.1,3.7,4.1,3.3c2-0.3,3.3-2.6,2.7-4.5
					C314.7,364.7,312.2,363.6,310.4,364.5"/>
			</g>
		</g>
		<g class="st15">
			<g>
				<g>
					<path class="st14" d="M310.4,364.5c-0.9,0.4-2,1.8-2,3.3c0.1,2,2.1,3.7,4.1,3.3c2-0.3,3.3-2.6,2.7-4.5
						C314.7,364.7,312.2,363.6,310.4,364.5"/>
				</g>
			</g>
		</g>
	</g>
</g>
<g id="Button">
	<g>
		<g>
			<g>
				<path class="st12" d="M282.6,379.4h-62.2c-10.9,0-19.7-8.8-19.7-19.7v-2.8c0-10.9,8.8-19.7,19.7-19.7h62.2
					c10.9,0,19.7,8.8,19.7,19.7v2.8C302.3,370.5,293.5,379.4,282.6,379.4z"/>
			</g>
		</g>
		<g>
			<g>
				<path class="st14" d="M231.1,361.1l0.7-1.5c0.7,0.5,1.8,0.9,2.9,0.9c1.2,0,1.7-0.4,1.7-0.9c0-1.6-5.1-0.5-5.1-3.8
					c0-1.5,1.2-2.7,3.7-2.7c1.1,0,2.2,0.3,3,0.8l-0.6,1.5c-0.8-0.5-1.7-0.7-2.4-0.7c-1.2,0-1.7,0.5-1.7,1c0,1.6,5.1,0.5,5.1,3.7
					c0,1.5-1.2,2.7-3.7,2.7C233.2,362.1,231.8,361.7,231.1,361.1z"/>
			</g>
			<g>
				<path class="st14" d="M241.4,354.8h-2.8v-1.7h7.6v1.7h-2.8v7.1h-2V354.8z"/>
			</g>
			<g>
				<path class="st14" d="M252.7,360h-4.1l-0.8,1.9h-2.1l3.9-8.8h2l3.9,8.8h-2.1L252.7,360z M252.1,358.5l-1.4-3.4l-1.4,3.4H252.1z"
					/>
			</g>
			<g>
				<path class="st14" d="M262.1,361.9l-1.7-2.4h-0.1h-1.8v2.4h-2v-8.8h3.8c2.3,0,3.8,1.2,3.8,3.2c0,1.3-0.7,2.3-1.8,2.8l2,2.8
					H262.1z M260.2,354.8h-1.7v3.1h1.7c1.2,0,1.9-0.6,1.9-1.5C262.1,355.4,261.4,354.8,260.2,354.8z"/>
			</g>
			<g>
				<path class="st14" d="M267.4,354.8h-2.8v-1.7h7.6v1.7h-2.8v7.1h-2L267.4,354.8L267.4,354.8z"/>
			</g>
		</g>
	</g>
</g>
<g id="Character">
	<g>
		<g>
			<g>
				<g>
					<g>
						<g>
							<g>
								<path class="st12" d="M405.2,458.8l11.8,4.1l-0.1,11.4c-5.7,1.6-6.5,4.5-6.5,4.5l11.8-0.3l10.3-20.9l-8.1-5.3l-15.2-6.7"/>
							</g>
						</g>
					</g>
					<g class="st16">
						<g>
							<g>
								<polygon class="st14" points="432.5,457.5 422.2,478.4 410.4,478.7 411.7,476.9 421.3,476.2 430.8,456.4 								"/>
							</g>
						</g>
					</g>
				</g>
				<g>
					<g>
						<g>
							<g>
								<path class="st6" d="M416.8,469.1c0.1,0.1,0.8-0.3,1.7-0.3c0.9,0,1.6,0.4,1.7,0.3s-0.6-0.8-1.7-0.8
									C417.4,468.3,416.7,469,416.8,469.1z"/>
							</g>
						</g>
					</g>
				</g>
				<g>
					<g>
						<g>
							<g>
								<path class="st6" d="M417,466.2c0.1,0.1,0.6-0.6,1.6-0.8c0.9-0.2,1.7,0.2,1.8,0.1c0-0.1-0.1-0.2-0.4-0.4
									c-0.3-0.2-0.9-0.3-1.5-0.2c-0.6,0.1-1,0.5-1.2,0.8C416.9,466,416.9,466.2,417,466.2z"/>
							</g>
						</g>
					</g>
				</g>
				<g>
					<g>
						<g>
							<g>
								<path class="st6" d="M416.8,462.6c0.1,0.1,0.5-0.6,1.3-0.9s1.6-0.1,1.6-0.2s-0.1-0.2-0.5-0.3c-0.3-0.1-0.8-0.2-1.4,0
									c-0.5,0.2-0.9,0.6-1,0.9C416.7,462.4,416.7,462.6,416.8,462.6z"/>
							</g>
						</g>
					</g>
				</g>
				<g>
					<g>
						<g>
							<g>
								<path class="st6" d="M415.9,462.6c0.1,0,0.1-0.8,0.4-1.6c0.3-0.8,0.9-1.3,0.9-1.4s-0.9,0.2-1.3,1.2
									C415.4,461.8,415.8,462.7,415.9,462.6z"/>
							</g>
						</g>
					</g>
				</g>
				<g>
					<g>
						<g>
							<g>
								<path class="st6" d="M414.5,461.3c0.1,0,0.2-0.6,0.3-1.6c0.1-0.6,0.1-1.1,0.2-1.7c0-0.3,0.1-0.7,0-1.1
									c-0.1-0.2-0.2-0.4-0.4-0.6c-0.2-0.2-0.6-0.1-0.8,0c-0.4,0.3-0.5,0.7-0.7,1c-0.1,0.4-0.2,0.7-0.2,1.1c0,0.7,0.1,1.3,0.3,1.8
									c0.4,1,1,1.3,1,1.3c0.1-0.1-0.4-0.5-0.7-1.4c-0.1-0.4-0.2-1-0.2-1.6c0-0.3,0.1-0.6,0.2-0.9s0.3-0.7,0.5-0.8
									c0.1-0.1,0.2-0.1,0.2,0c0.1,0.1,0.2,0.2,0.2,0.3c0.1,0.3,0,0.6,0,0.9c0,0.6,0,1.2,0,1.7
									C414.4,460.7,414.5,461.3,414.5,461.3z"/>
							</g>
						</g>
					</g>
				</g>
				<g>
					<g>
						<g>
							<g>
								<path class="st6" d="M414.3,461.8c0,0-0.3-0.5-1.2-0.8c-0.9-0.3-2.4-0.2-3.4,1.2c0,0.1,0,0.3,0.1,0.5
									c0.1,0.1,0.2,0.2,0.3,0.3c0.2,0.1,0.4,0.1,0.6,0.1c0.3,0,0.7,0,1,0c0.6-0.1,1.1-0.2,1.6-0.4
									C414.1,462.2,414.5,461.8,414.3,461.8c0-0.1-0.4,0.2-1.3,0.4c-0.4,0.1-0.9,0.2-1.5,0.3c-0.3,0-0.6,0-0.9,0
									c-0.2,0-0.3,0-0.4-0.1s-0.1,0-0.1-0.1s0.1-0.2,0.2-0.3c0.1-0.1,0.2-0.2,0.3-0.3c0.2-0.2,0.5-0.3,0.8-0.4
									c0.5-0.2,1-0.2,1.4-0.1C413.9,461.5,414.3,461.9,414.3,461.8z"/>
							</g>
						</g>
					</g>
				</g>
				<g class="st16">
					<g>
						<g>
							<path class="st14" d="M423.1,457.4c0,0.8,0.7,1.4,1.4,1.4c0.8,0,1.4-0.7,1.4-1.4c0-0.8-0.7-1.4-1.4-1.4
								C423.7,456,423.1,456.6,423.1,457.4z"/>
						</g>
					</g>
				</g>
			</g>
		</g>
		<g>
			<g>
				<g>
					<g>
						<g>
							<path class="st12" d="M344.5,454l0.2,15.5c0,0-15.7,5.4-15.9,8.2l30,0.8l0.7-24.1L344.5,454z"/>
						</g>
					</g>
				</g>
				<g class="st16">
					<g>
						<g>
							<g>
								<path class="st14" d="M354,468.4c0.6,0.2,1,0.8,0.8,1.4s-0.8,1-1.4,0.8s-1.1-0.9-0.9-1.5s1-1,1.6-0.7"/>
							</g>
						</g>
					</g>
				</g>
				<g class="st16">
					<g>
						<g>
							<path class="st14" d="M358.8,478.5v-2.4l-28.8,0.2c0,0-1.4,0.5-1.2,1.5L358.8,478.5z"/>
						</g>
					</g>
				</g>
				<g>
					<g>
						<g>
							<g>
								<path class="st6" d="M344.2,469.3c0,0.1,0.7,0.2,1.4,0.7c0.7,0.5,1.1,1.1,1.2,1.1s-0.1-0.9-0.9-1.5
									C345.1,469,344.2,469.2,344.2,469.3z"/>
							</g>
						</g>
					</g>
				</g>
				<g>
					<g>
						<g>
							<g>
								<path class="st6" d="M341,470.5c0,0.1,0.6,0.4,1.1,1s0.6,1.3,0.8,1.3c0.1,0,0.3-0.8-0.4-1.6
									C341.9,470.5,341,470.4,341,470.5z"/>
							</g>
						</g>
					</g>
				</g>
				<g>
					<g>
						<g>
							<g>
								<path class="st6" d="M339.1,474.3c0.1,0,0.4-0.7,0-1.5s-1-1.2-1.1-1c-0.1,0.1,0.3,0.6,0.6,1.2
									C339,473.6,339,474.2,339.1,474.3z"/>
							</g>
						</g>
					</g>
				</g>
				<g>
					<g>
						<g>
							<g>
								<path class="st6" d="M344.6,465.8c0.1,0.1,0.7,0,1.6,0c0.8,0.1,1.5,0.4,1.5,0.2c0.1-0.1-0.5-0.7-1.5-0.7
									C345.2,465.2,344.5,465.7,344.6,465.8z"/>
							</g>
						</g>
					</g>
				</g>
			</g>
			<g class="st13">
				<g>
					<g>
						<polygon points="344.6,457.1 344.6,459.8 359.4,460.1 359.4,457.6 						"/>
					</g>
				</g>
			</g>
			<g>
				<g>
					<g>
						<g>
							<path class="st6" d="M344.6,462.7c0,0.1,0.6,0.2,1.5,0c0.5-0.1,1-0.2,1.6-0.4c0.3-0.1,0.6-0.3,0.9-0.4
								c0.1-0.1,0.3-0.2,0.5-0.3c0.2-0.1,0.3-0.5,0.1-0.8c-0.1-0.2-0.4-0.3-0.6-0.4c-0.2,0-0.4,0-0.6,0.1c-0.3,0.1-0.7,0.2-0.9,0.3
								c-0.6,0.2-1.1,0.6-1.4,0.9c-0.7,0.6-1,1.2-0.9,1.2s0.4-0.4,1.1-0.9c0.4-0.3,0.8-0.5,1.4-0.7c0.3-0.1,0.6-0.2,0.9-0.2
								c0.3-0.1,0.6-0.1,0.7,0.1c0,0.1,0,0.1,0,0.2c-0.1,0.1-0.2,0.2-0.3,0.2c-0.3,0.2-0.5,0.3-0.8,0.4c-0.5,0.2-1,0.4-1.5,0.5
								C345.2,462.6,344.6,462.6,344.6,462.7z"/>
						</g>
					</g>
				</g>
			</g>
			<g>
				<g>
					<g>
						<g>
							<path class="st6" d="M344.8,462.9c0.1,0,0.4-0.5,0.4-1.4c0-0.5,0-1-0.2-1.7c-0.1-0.3-0.2-0.6-0.4-0.9
								c-0.2-0.3-0.4-0.7-0.9-0.8c-0.3,0-0.5,0.2-0.6,0.4c-0.1,0.2-0.1,0.4-0.2,0.5c-0.1,0.3-0.1,0.7,0,1c0.1,0.6,0.3,1.2,0.6,1.6
								c0.6,0.8,1.2,1,1.2,0.9c0.1-0.1-0.5-0.4-0.9-1.1c-0.2-0.4-0.4-0.9-0.4-1.4c0-0.3,0-0.6,0-0.9c0.1-0.3,0.2-0.6,0.3-0.5
								c0.1,0,0.4,0.2,0.5,0.5s0.3,0.6,0.4,0.8c0.2,0.5,0.2,1.1,0.3,1.5C344.9,462.3,344.7,462.9,344.8,462.9z"/>
						</g>
					</g>
				</g>
			</g>
		</g>
		<g>
			<g>
				<g>
					<g>
						<g>
							<polygon class="st6" points="414.4,446.1 379.8,433.2 416.1,428.1 418,410.4 350,416.4 340.4,430.2 342.9,447.5 409.1,464.4 
															"/>
						</g>
					</g>
				</g>
				<g>
					<g>
						<g>
							<path class="st6" d="M341,458.5l-3.3-63.3c0.2-6.2,3.5-11.8,8.9-14.9l0,0c4.4-2.6,9.7-3.1,14.6-1.5l44.1,14.7l24.2,6.2
								c0,0,4.1,10.2,1.7,18.1c-2.4,7.7-10.9,12.9-18.3,10.7c-9.3-2.7-51.8-21-51.8-21V459L341,458.5z"/>
						</g>
					</g>
				</g>
				<g>
					<g>
						<g>
							<g>
								<path class="st7" d="M412.2,428.7c0,0-0.1,0-0.3-0.1c-0.2-0.1-0.4-0.2-0.8-0.3c-0.7-0.3-1.7-0.7-2.9-1.2
									c-2.5-1-6.1-2.5-10.6-4.3c-9-3.7-21.3-8.8-34.9-14.4c-0.6-0.3-1.2-0.5-1.8-0.7l0.3-0.2c0,14.3,0,27.2-0.1,36.5
									c0,4.6,0,8.4-0.1,11c0,1.3,0,2.3,0,3c0,0.3,0,0.6,0,0.8c0,0.2,0,0.3,0,0.3s0-0.1,0-0.3c0-0.2,0-0.5,0-0.8c0-0.7,0-1.7,0-3
									c0-2.6,0-6.4-0.1-11c0-9.3,0-22.2-0.1-36.5v-0.3l0.3,0.1c0.6,0.2,1.2,0.5,1.8,0.7c13.6,5.7,25.9,10.8,34.9,14.5
									c4.4,1.9,8,3.4,10.6,4.4c1.2,0.5,2.2,0.9,2.9,1.2c0.3,0.1,0.6,0.2,0.7,0.3C412.1,428.6,412.2,428.7,412.2,428.7z"/>
							</g>
						</g>
					</g>
				</g>
				<g>
					<g>
						<g>
							<g>
								<path class="st7" d="M371.5,428.8c0-0.1,2.2,0.3,4.5,1.6c2.4,1.3,3.8,2.9,3.8,3c-0.1,0.1-1.7-1.4-4-2.6
									C373.5,429.4,371.4,428.9,371.5,428.8z"/>
							</g>
						</g>
					</g>
				</g>
			</g>
			<g>
				<g>
					<g>
						<g>
							<path class="st7" d="M357.2,398.9c0.1-0.1,1.2,1.8,2.3,4.3c1.1,2.5,1.7,4.6,1.6,4.6s-0.9-2-2-4.4
								C358.1,400.9,357.1,399,357.2,398.9z"/>
						</g>
					</g>
				</g>
			</g>
		</g>
		<g>
			<g>
				<polygon class="st17" points="357.3,371 349.5,369.6 341.3,377.9 342.8,383.2 352.4,379.7 				"/>
			</g>
		</g>
		<g>
			<g>
				<g>
					<g>
						<path class="st17" d="M285.2,351.9l8.9-2l14.3,2.2l-0.6,9.1c0,0-4.4,0.6-6,0.1s-2.9-0.1-2.9-0.1s0.9,1.8-0.6,2.1
							c-1.5,0.3-3.9,0.9-4.4-1.2c0,0-1.1,0.2-1.7-1.2c0,0-1.2,0.4-1.7-1.6s-0.2-5.1,3.8-6c0.2,0,0.3-0.5-0.1-0.5l-6.3,1.2
							C287.8,354,283.6,354.2,285.2,351.9z"/>
					</g>
				</g>
			</g>
			<g>
				<g>
					<g>
						<g>
							<path class="st18" d="M292.8,358.3c0-0.1,0.6-0.2,1.5-0.3c0.5,0,1-0.2,1.7-0.1c0.3,0,0.7,0.1,1,0.5c0.3,0.3,0.3,0.8,0.1,1.2
								c-0.4,0.8-1.2,1-1.8,1.1c-0.6,0.2-1.2,0.3-1.6,0.4c-0.9,0.1-1.5,0.1-1.5,0s0.6-0.1,1.5-0.3c0.5-0.1,1-0.2,1.6-0.4
								c0.3-0.1,0.6-0.2,0.9-0.3c0.3-0.1,0.5-0.4,0.7-0.6c0.1-0.3,0.1-0.6,0-0.8c-0.2-0.2-0.5-0.3-0.7-0.4c-0.6,0-1.2,0.1-1.6,0.1
								C293.4,358.3,292.8,358.3,292.8,358.3z"/>
						</g>
					</g>
				</g>
			</g>
			<g>
				<g>
					<g>
						<g>
							<path class="st18" d="M294.3,356.3c0,0.1-0.4,0.3-0.8,0.9c-0.4,0.5-0.4,1.1-0.5,1.1s-0.3-0.6,0.2-1.3
								C293.6,356.3,294.3,356.2,294.3,356.3z"/>
						</g>
					</g>
				</g>
			</g>
			<g>
				<g>
					<g>
						<g>
							<path class="st18" d="M296.7,359.6c0,0,0.1,0,0.2,0c0.2,0,0.3,0.3,0.4,0.5c0.2,0.2,0.3,0.6,0.1,1c-0.1,0.4-0.5,0.7-0.9,0.8
								c-0.7,0.2-1.4,0.4-1.9,0.4c-0.5,0.1-0.8,0-0.8,0c0-0.1,0.3-0.1,0.8-0.2s1.1-0.3,1.9-0.5c0.4-0.1,0.6-0.3,0.7-0.5
								c0.1-0.3,0-0.5-0.1-0.7c-0.1-0.3-0.2-0.4-0.3-0.5C296.8,359.6,296.7,359.6,296.7,359.6z"/>
						</g>
					</g>
				</g>
			</g>
			<g>
				<g>
					<g>
						<g>
							<path class="st18" d="M297.3,361.1c0,0,0.1-0.2,0.4-0.2s0.7,0.1,1,0.3c0.4,0.3,0.5,0.7,0.5,0.9c0,0.3,0,0.4-0.1,0.4
								s-0.1-0.1-0.2-0.4c-0.1-0.2-0.2-0.5-0.4-0.7c-0.3-0.2-0.6-0.3-0.8-0.3C297.5,361.1,297.4,361.2,297.3,361.1z"/>
						</g>
					</g>
				</g>
			</g>
			<g>
				<g>
					<g>
						<g>
							<path class="st17" d="M301.7,354.1l-4,1.6l-3.8,2.7c0,0,0,0.9,2.1,0.6s3.8-1.5,3.8-1.5s2.8,1.8,5.3,1.4"/>
						</g>
					</g>
				</g>
				<g>
					<g>
						<g>
							<g>
								<path class="st18" d="M305.1,358.8c0,0-0.1,0.1-0.4,0.1s-0.6,0.1-1.1,0c-1-0.1-2.4-0.5-3.8-1.3h0.2
									c-1.2,0.8-2.9,1.5-4.7,1.6c-0.3,0-0.6,0-0.8-0.1c-0.3-0.1-0.6-0.3-0.6-0.7v-0.1l0.1-0.1c1.4-1,2.7-1.9,3.8-2.6l0,0l0,0
									c1.2-0.5,2.2-0.8,2.9-1.1c0.7-0.3,1.1-0.4,1.1-0.4s-0.4,0.2-1.1,0.5s-1.7,0.7-2.9,1.2l0,0c-1.1,0.8-2.4,1.7-3.8,2.7l0.1-0.2
									c0,0.1,0.2,0.3,0.4,0.4c0.2,0.1,0.5,0.1,0.7,0.1c1.7-0.1,3.3-0.7,4.5-1.5l0.1-0.1l0.1,0.1c1.4,0.8,2.7,1.3,3.7,1.4
									C304.6,358.8,305.1,358.7,305.1,358.8z"/>
							</g>
						</g>
					</g>
				</g>
			</g>
			<g>
				<g>
					<g>
						<g>
							<path class="st18" d="M295.9,353.9c0,0.1-0.5,0.1-0.9-0.2c-0.5-0.3-0.7-0.7-0.6-0.7c0.1-0.1,0.4,0.2,0.8,0.4
								C295.6,353.6,296,353.7,295.9,353.9z"/>
						</g>
					</g>
				</g>
			</g>
		</g>
		<g>
			<g>
				<g>
					<g>
						<g>
							<path class="st12" d="M307.6,363.7l33.9,4.9c3.4,1.1,7,0.8,10.2-0.8l30.2-15.5l-9-19.9l0,0c-1.3,0.5-2.8,1-3.4,1.4
								l-24.8,17.9l-36-1.3L307.6,363.7z"/>
						</g>
					</g>
				</g>
				<g>
					<g>
						<g>
							<g>
								<polygon class="st17" points="428.8,399.6 426.6,395.8 403.5,390.1 406.3,394.7 								"/>
							</g>
						</g>
					</g>
					<g>
						<g>
							<g>
								<path class="st12" d="M372.7,332.4c0,0.8-3.4,25.9-3.4,31s9.8,10.7,9.8,10.7l10.7,22.8H428l-13.1-24.5l-5.9-19.7
									c-2.2-7.4-2-11.3-7.6-16.7l-10.7-7.2L372.7,332.4z"/>
							</g>
						</g>
					</g>
					<g>
						<g>
							<g>
								<path class="st12" d="M383.9,352.2l6.4,26.9l-32.4-9.1l-5.5,9.8l42.1,19.2c5.2,2.4,11.3,0.7,14.6-4l0,0
									c2-2.8,2.6-6.4,1.8-9.7l-9.4-36.9c-1.3-5.1-6.6-8-11.6-6.3l0,0C385.6,343.5,383.1,347.8,383.9,352.2z"/>
							</g>
						</g>
					</g>
					<g>
						<g>
							<g>
								<g>
									<path class="st6" d="M379.8,375.3c0,0-0.7-1.3-1-1.4c-0.2-0.1-0.6-0.3-1-0.5c-0.9-0.5-2.1-1.3-3.6-2.4
										c-1.4-1.1-3.1-2.6-4.2-4.7c-1-2.2-1-5-0.6-7.7s1-5.3,1.3-7.6c0.4-2.3,0.6-4.5,0.7-6.2c0.1-1.8,0.2-3.2,0.2-4.2s0-1.6,0-1.6
										s0,0.1,0.1,0.4c0,0.3,0.1,0.7,0.1,1.2c0.1,1,0.1,2.5,0,4.3s-0.3,3.9-0.7,6.3c-0.3,2.4-0.9,4.9-1.2,7.6
										c-0.4,2.7-0.4,5.4,0.5,7.5c1,2.1,2.7,3.5,4,4.7c1.4,1.1,2.6,1.9,3.5,2.4C378.7,373.7,379.8,375.3,379.8,375.3z"/>
								</g>
							</g>
						</g>
					</g>
					<g>
						<g>
							<g>
								<g>
									<path class="st6" d="M392.6,330.5c0,0-0.2,0.3-0.6,0.7c-0.4,0.4-1,1-1.7,1.7c-1.5,1.4-3.6,3.2-6,5.1s-4.6,3.6-6.3,4.7
										c-0.8,0.6-1.5,1-2,1.3s-0.7,0.5-0.8,0.4c0,0,0.2-0.2,0.7-0.6s1.2-0.9,1.9-1.4c1.6-1.2,3.8-2.9,6.2-4.8c2.4-1.9,4.5-3.7,6-5
										c0.7-0.6,1.3-1.1,1.8-1.6C392.4,330.7,392.6,330.5,392.6,330.5z"/>
								</g>
							</g>
						</g>
					</g>
					<g>
						<g>
							<g>
								<g>
									<path class="st6" d="M383.9,352.2c0,0,0.1,0.2,0.2,0.5c0.1,0.4,0.2,0.9,0.4,1.5c0.3,1.3,0.8,3.3,1.4,5.6
										c1.2,4.8,2.8,11.5,4.7,19.3l0.1,0.3l-0.3-0.1c-2.6-0.7-5.4-1.5-8.3-2.3c-9.4-2.7-17.9-5.1-24.1-6.9l0.2-0.1
										c-1.7,3-3.1,5.4-4.1,7.1c-0.5,0.8-0.9,1.5-1.1,1.9c-0.1,0.2-0.2,0.4-0.3,0.5c-0.1,0.1-0.1,0.2-0.1,0.2s0-0.1,0.1-0.2
										s0.2-0.3,0.3-0.5c0.3-0.5,0.6-1.1,1.1-2c1-1.7,2.3-4.2,4-7.2l0.1-0.1h0.1c6.3,1.7,14.8,4.1,24.1,6.7
										c2.9,0.8,5.6,1.6,8.3,2.3l-0.2,0.2c-1.8-7.7-3.4-14.5-4.5-19.3c-0.5-2.4-1-4.3-1.3-5.6c-0.1-0.6-0.2-1.1-0.3-1.5
										C383.9,352.3,383.8,352.2,383.9,352.2z"/>
								</g>
							</g>
						</g>
					</g>
					<g>
						<g>
							<g>
								<g>
									<path class="st6" d="M401.6,350.5c0,0,0.1,0.2,0.2,0.5s0.2,0.8,0.4,1.3c0.3,1.2,0.8,2.9,1.3,5c1.1,4.2,2.5,10,4.2,16.4
										c0.8,3.2,1.6,6.3,2.2,9.1c0.6,2.8,0.9,5.4,0.6,7.6s-1.1,3.8-1.8,4.8c-0.7,1-1.3,1.4-1.3,1.4s0.5-0.5,1.2-1.5
										s1.4-2.6,1.7-4.8c0.3-2.1,0-4.7-0.7-7.5s-1.5-5.8-2.3-9c-1.6-6.4-3-12.2-4-16.4c-0.5-2.1-0.9-3.8-1.2-5
										c-0.1-0.6-0.2-1-0.3-1.4C401.6,350.7,401.6,350.5,401.6,350.5z"/>
								</g>
							</g>
						</g>
					</g>
					<g class="st13">
						<g>
							<g>
								<g>
									<path d="M407.5,396.8c4.7,0.4,7.5-2.3,8-6c0.3-2-0.4-4.1-1.1-6c-2.9-8.5-5.8-17.1-10.5-24.8c1.7,7.7,4,15.2,5.7,22.9
										c0.6,2.5,0.8,4,0.7,6.6C410.4,392.1,409.2,394.9,407.5,396.8"/>
								</g>
							</g>
						</g>
					</g>
				</g>
			</g>
			<g>
				<g>
					<g>
						<path class="st1" d="M368.6,358c0,0-0.8-0.7-1.9-2.1s-2.4-3.4-3.6-5.9c-1.1-2.4-1.8-4.8-2.2-6.5c-0.4-1.7-0.4-2.8-0.4-2.8
							c0.1,0,0.3,1.1,0.7,2.7c0.4,1.7,1.2,4,2.3,6.4c1.1,2.4,2.4,4.5,3.4,5.9C368,357.1,368.7,358,368.6,358z"/>
					</g>
				</g>
			</g>
			<g>
				<g>
					<g>
						<path class="st1" d="M359.3,363.5c-0.1,0-0.6-0.8-1.5-2.2c-0.9-1.4-2-3.3-3.2-5.5s-2.2-4.2-2.9-5.7c-0.7-1.5-1.1-2.4-1-2.5
							c0.1,0,0.6,0.9,1.3,2.3c0.9,1.6,1.9,3.5,3,5.6c1.2,2.1,2.2,4,3.1,5.6C358.9,362.6,359.4,363.5,359.3,363.5z"/>
					</g>
				</g>
			</g>
			<g>
				<g>
					<g>
						<path class="st1" d="M346.6,368.5c-0.1,0-0.8-3.6-1.6-8c-0.7-4.4-1.2-8.1-1.1-8.1s0.8,3.6,1.6,8
							C346.2,364.9,346.7,368.5,346.6,368.5z"/>
					</g>
				</g>
			</g>
			<g>
				<g>
					<g>
						<path class="st1" d="M335.2,367.7c-0.1,0-0.2-0.9-0.3-2.3c-0.1-1.4-0.1-3.4-0.1-5.5c0.1-2.2,0.2-4.1,0.3-5.5
							c0.2-1.4,0.3-2.3,0.4-2.3s0.1,0.9,0,2.3s-0.1,3.4-0.2,5.5c-0.1,2.2-0.1,4.1-0.1,5.5C335.3,366.9,335.3,367.7,335.2,367.7z"/>
					</g>
				</g>
			</g>
			<g>
				<g>
					<g>
						<path class="st1" d="M323.8,351.2c0.1,0,0.2,0.8,0.3,2.1c0.1,1.3,0.2,3.1,0.1,5.2c0,2-0.2,3.8-0.3,5.2
							c-0.1,1.3-0.3,2.1-0.4,2.1c-0.2,0,0.1-3.3,0.2-7.3C323.8,354.5,323.7,351.2,323.8,351.2z"/>
					</g>
				</g>
			</g>
			<g>
				<g>
					<g>
						<path class="st1" d="M314.5,352.4c0.1,0,0,2.7-0.3,6.1s-0.7,6.1-0.8,6.1c-0.1,0,0-2.7,0.3-6.1S314.3,352.4,314.5,352.4z"/>
					</g>
				</g>
			</g>
			<g>
				<g>
					<g>
						<path class="st1" d="M370.8,343.1c-0.1,0-0.8-1.6-1.8-3.5s-2-3.3-1.9-3.4s1.3,1.2,2.4,3.2
							C370.5,341.3,370.9,343.1,370.8,343.1z"/>
					</g>
				</g>
			</g>
			<g>
				<g>
					<g>
						<path class="st1" d="M388.4,370.4c0,0-0.3,0.1-0.8,0.1s-1.2,0-2.1,0c-1.8-0.1-4.3-0.6-6.9-1.5c-2.6-1-4.8-2.3-6.2-3.4
							c-0.7-0.5-1.3-1-1.7-1.4c-0.4-0.4-0.6-0.6-0.5-0.6c0.1-0.1,0.9,0.7,2.4,1.7s3.6,2.2,6.2,3.2s5,1.4,6.8,1.7
							C387.3,370.3,388.4,370.3,388.4,370.4z"/>
					</g>
				</g>
			</g>
			<g>
				<g>
					<g>
						<path class="st1" d="M384.7,357.6c0,0.1-0.8,0-2.1-0.2c-1.3-0.2-3-0.7-4.9-1.3c-1.9-0.6-3.5-1.4-4.7-2c-1.1-0.6-1.8-1-1.8-1.1
							c0.1-0.1,2.9,1.3,6.6,2.6C381.6,356.9,384.8,357.4,384.7,357.6z"/>
					</g>
				</g>
			</g>
			<g>
				<g>
					<g>
						<path class="st1" d="M382.6,348.4c0,0.1-2.5,0.3-5.3-0.8c-2.8-1.1-4.5-3-4.4-3c0.1-0.1,1.9,1.5,4.6,2.6
							C380.2,348.2,382.6,348.2,382.6,348.4z"/>
					</g>
				</g>
			</g>
			<g>
				<g>
					<g>
						<path class="st1" d="M397.6,341.9c0,0.1-0.8-0.5-2.3-0.8c-1.4-0.4-3.5-0.6-5.6,0.2c-2.1,0.8-3.6,2.3-4.4,3.5s-1.1,2.1-1.1,2.1
							s0.1-1,0.8-2.3c0.7-1.3,2.3-3,4.5-3.8s4.5-0.6,5.9-0.1C396.9,341.2,397.6,341.8,397.6,341.9z"/>
					</g>
				</g>
			</g>
			<g>
				<g>
					<g>
						<path class="st1" d="M399.3,354.1c0,0.1-0.6,0.5-1.7,0.9c-1.1,0.5-2.7,1-4.5,1.4s-3.5,0.5-4.7,0.4c-1.2,0-1.9-0.2-1.9-0.2
							c0-0.2,3,0,6.5-0.7C396.6,355.3,399.3,354,399.3,354.1z"/>
					</g>
				</g>
			</g>
			<g>
				<g>
					<g>
						<path class="st1" d="M404.5,369.6c0,0.1-3.1,0.6-7,0.9c-3.9,0.4-7.1,0.6-7.1,0.4c0-0.1,3.1-0.6,7-0.9
							C401.3,369.6,404.4,369.4,404.5,369.6z"/>
					</g>
				</g>
			</g>
			<g>
				<g>
					<g>
						<path class="st1" d="M409,390.9c0,0-0.3,0-0.8-0.2c-0.5-0.1-1.2-0.4-2.1-0.7c-1.7-0.7-4.1-1.8-6.4-3.4
							c-2.4-1.6-4.4-3.2-5.8-4.4c-1.4-1.2-2.3-2-2.2-2c0-0.1,1,0.6,2.5,1.7s3.5,2.7,5.9,4.2c2.4,1.6,4.6,2.8,6.3,3.5
							C407.9,390.5,409,390.8,409,390.9z"/>
					</g>
				</g>
			</g>
			<g>
				<g>
					<g>
						<path class="st1" d="M384.7,394.2c-0.1,0-0.2-0.9-0.2-2.3s0.2-3.4,0.7-5.4c0.5-2.1,1.2-3.9,1.9-5.2c0.6-1.3,1.1-2,1.2-1.9
							s-1.6,3.1-2.5,7.2C384.8,390.7,384.9,394.2,384.7,394.2z"/>
					</g>
				</g>
			</g>
			<g>
				<g>
					<g>
						<path class="st1" d="M372.5,387.6c-0.1,0-0.4-2.8,0.6-6.2c1-3.3,2.9-5.6,2.9-5.5c0.1,0.1-1.5,2.4-2.4,5.6
							C372.7,384.8,372.7,387.6,372.5,387.6z"/>
					</g>
				</g>
			</g>
			<g>
				<g>
					<g>
						<path class="st1" d="M365.7,371.7c0.1,0.1-2.1,2.1-3.7,5.4c-1.7,3.2-2,6.2-2.1,6.2s-0.1-0.8,0.2-1.9c0.2-1.2,0.7-2.8,1.5-4.5
							s1.9-3,2.7-3.9C365.1,372.1,365.7,371.6,365.7,371.7z"/>
					</g>
				</g>
			</g>
			<g>
				<g>
					<g>
						<path class="st1" d="M410.7,357.7c0.1,0.1-1,1.4-2.8,2.1c-1.9,0.7-3.5,0.6-3.5,0.4s1.6-0.2,3.3-0.9
							C409.4,358.6,410.6,357.6,410.7,357.7z"/>
					</g>
				</g>
			</g>
			<g>
				<g>
					<g>
						<path class="st1" d="M406.1,343.7c0.1,0.1-0.5,1.4-1.9,2.5s-2.8,1.5-2.8,1.3c-0.1-0.1,1.2-0.7,2.5-1.7
							C405.2,344.7,405.9,343.6,406.1,343.7z"/>
					</g>
				</g>
			</g>
			<g>
				<g>
					<g>
						<path class="st1" d="M389.8,334.3c0.1-0.1,1.2,0.8,2,2.3s1,2.9,0.8,2.9c-0.1,0-0.5-1.3-1.3-2.7
							C390.5,335.4,389.6,334.4,389.8,334.3z"/>
					</g>
				</g>
			</g>
			<g>
				<g>
					<g>
						<path class="st1" d="M414,370.9c0.1,0.1-1.2,1-3.1,1.5s-3.4,0.3-3.4,0.2c0-0.2,1.5-0.2,3.3-0.7
							C412.6,371.5,413.9,370.8,414,370.9z"/>
					</g>
				</g>
			</g>
			<g>
				<g>
					<g>
						<path class="st1" d="M421,383.2c0,0.1-2.4,0.5-5.4,0.7c-3,0.3-5.5,0.3-5.5,0.2c0-0.1,2.4-0.5,5.4-0.7S421,383.1,421,383.2z"/>
					</g>
				</g>
			</g>
			<g>
				<g>
					<g>
						<path class="st1" d="M425.9,393.1c0,0.1-3.6,0.2-8.1,0.1c-4.4-0.1-8-0.3-8-0.5c0-0.1,3.6-0.2,8.1-0.1
							C422.3,392.8,425.9,393,425.9,393.1z"/>
					</g>
				</g>
			</g>
		</g>
		<g>
			<g>
				<g>
					<g>
						<g>
							<path class="st6" d="M390.5,293.9c0.7,3.4,5.5,4.7,6,8.2c0.2,1.5-0.5,2.9-0.4,4.4c0.1,2,1.5,3.7,2.2,5.5
								c1.5,3.8-0.2,8.4-3.3,11.1c-3.1,2.7-7.3,3.8-11.4,3.9"/>
						</g>
					</g>
				</g>
			</g>
			<g>
				<g>
					<g>
						<g>
							<g>
								<path class="st6" d="M362.9,297.4c0.4,1.8-0.5,3.6-1.5,5.2s-2.1,3.2-2.1,5.1c0,3.3,3.7,5.8,3.5,9.1
									c-0.1,1.8-1.3,3.4-1.2,5.1c0,1.7,1.2,3.2,2.5,4.3c1.3,1.1,2.6,0.7,3.8,1.9c1.3,1.3,3.2,2.5,4.9,3.1c3.8,1.4,7.6-2.1,9.3-2.9
									"/>
							</g>
						</g>
					</g>
				</g>
				<g>
					<g>
						<g>
							<g>
								<path class="st6" d="M391.5,295.7c-0.2-1.7-2-2.7-3.6-3.1s-3.4-0.3-4.9-1c-1.3-0.6-2.4-1.8-3.6-2.7
									c-2.9-2.2-7.1-2.6-10.4-1.1s-5.7,4.9-6.1,8.5c-0.2,2.5,0.6,5.2,2.7,6.5c2.5,1.5,5.6,0.6,8.3-0.4c2.7-1,5.7-2.1,8.3-0.8
									c1.6,0.8,2.6,2.2,3.7,3.6c1.1,1.3,2.4,2.7,4.1,3s3.7-1,3.5-2.7"/>
							</g>
						</g>
					</g>
				</g>
				<g>
					<g>
						<g>
							<g>
								<g>
									<g>
										<g>
											<g>
												<g>
													<g>
														<path class="st17" d="M392.1,331.1l-4-32.4c-0.2-1.4-1.5-2.5-2.9-2.4l-15.3-1.4c-4.8,0.2-7,6.5-6.6,11.3
															c0.5,5.3,1.3,11.8,2.5,15.6c2.5,7.7,8.7,7.8,8.7,7.8s1.2,11.4,1.6,14.2"/>
													</g>
												</g>
											</g>
											<g>
												<g>
													<g>
														<g>
															<g>
																<g>
																	<g>
																		<g>
																			<g>
																				<g>
																					<g>
																						<path class="st6" d="M365.3,312.1c0.1,0.5,0.6,0.9,1.1,0.9c0.6-0.1,1-0.5,0.9-1.1c-0.1-0.5-0.6-0.9-1.1-0.9
																							C365.6,311.1,365.2,311.6,365.3,312.1z"/>
																					</g>
																				</g>
																			</g>
																		</g>
																	</g>
																</g>
															</g>
														</g>
													</g>
												</g>
												<g>
													<g>
														<g>
															<g>
																<g>
																	<g>
																		<g>
																			<g>
																				<g>
																					<g>
																						<g>
																							<path class="st6" d="M365,310.1c0.1,0.1,0.8-0.6,1.9-0.7c1.1-0.2,2,0.3,2.1,0.1c0-0.1-0.1-0.3-0.5-0.5
																								s-1-0.4-1.7-0.2c-0.7,0.1-1.2,0.4-1.5,0.8C365,309.8,364.9,310.1,365,310.1z"/>
																						</g>
																					</g>
																				</g>
																			</g>
																		</g>
																	</g>
																</g>
															</g>
														</g>
													</g>
												</g>
											</g>
											<g>
												<g>
													<g>
														<g>
															<g>
																<g>
																	<g>
																		<g>
																			<g>
																				<g>
																					<g>
																						<path class="st6" d="M376.2,310.5c0.1,0.5,0.6,0.9,1.1,0.9c0.6-0.1,1-0.5,0.9-1.1c-0.1-0.5-0.6-0.9-1.1-0.9
																							C376.6,309.5,376.2,310,376.2,310.5z"/>
																					</g>
																				</g>
																			</g>
																		</g>
																	</g>
																</g>
															</g>
														</g>
													</g>
												</g>
												<g>
													<g>
														<g>
															<g>
																<g>
																	<g>
																		<g>
																			<g>
																				<g>
																					<g>
																						<g>
																							<path class="st6" d="M375.7,308.7c0.1,0.1,0.8-0.6,1.9-0.7c1.1-0.2,2,0.3,2.1,0.1c0-0.1-0.1-0.3-0.5-0.5
																								s-1-0.4-1.7-0.2c-0.7,0.1-1.2,0.4-1.5,0.8C375.7,308.4,375.6,308.6,375.7,308.7z"/>
																						</g>
																					</g>
																				</g>
																			</g>
																		</g>
																	</g>
																</g>
															</g>
														</g>
													</g>
												</g>
											</g>
											<g>
												<g>
													<g>
														<g>
															<g>
																<g>
																	<g>
																		<g>
																			<g>
																				<g>
																					<g>
																						<path class="st6" d="M373,317.4c0-0.1-0.7-0.1-1.8,0c-0.3,0-0.6,0-0.6-0.2c-0.1-0.2,0-0.5,0.1-0.9
																							c0.2-0.7,0.3-1.5,0.5-2.2c0.7-3.2,1.1-5.8,1-5.8s-0.8,2.5-1.5,5.7c-0.2,0.8-0.3,1.5-0.5,2.3
																							c-0.1,0.3-0.2,0.7,0,1.1c0.1,0.2,0.3,0.3,0.5,0.3s0.3,0,0.5,0C372.3,317.5,373,317.4,373,317.4z"/>
																					</g>
																				</g>
																			</g>
																		</g>
																	</g>
																</g>
															</g>
														</g>
													</g>
												</g>
											</g>
											<g>
												<g>
													<g>
														<g>
															<g>
																<g>
																	<g>
																		<g>
																			<g>
																				<g>
																					<path class="st18" d="M374.4,329.6c0,0,5.3-0.4,10.1-4.3c-0.1,0-2.1,6.1-9.8,6.5L374.4,329.6z"/>
																				</g>
																			</g>
																		</g>
																	</g>
																</g>
															</g>
														</g>
													</g>
												</g>
											</g>
											<g>
												<g>
													<g>
														<g>
															<g>
																<g>
																	<g>
																		<g>
																			<g>
																				<g>
																					<path class="st18" d="M373.9,319.9c0.3-0.6,1-1,1.6-1c0.5,0,1,0.1,1.3,0.5c0.3,0.3,0.5,0.9,0.3,1.3
																						c-0.2,0.5-0.8,0.7-1.4,0.6c-0.5-0.1-1-0.3-1.5-0.6c-0.1-0.1-0.3-0.2-0.4-0.3
																						C373.8,320.3,373.8,320.1,373.9,319.9"/>
																				</g>
																			</g>
																		</g>
																	</g>
																</g>
															</g>
														</g>
													</g>
												</g>
											</g>
											<g>
												<g>
													<g>
														<g>
															<g>
																<g>
																	<g>
																		<g>
																			<g>
																				<g>
																					<g>
																						<path class="st6" d="M376.3,317.6c-0.2,0,0,1.2-0.9,2.2s-2.2,1.1-2.1,1.2c0,0.1,0.3,0.2,0.9,0.1
																							c0.5-0.1,1.3-0.3,1.8-1c0.5-0.6,0.7-1.3,0.7-1.8C376.6,317.9,376.4,317.6,376.3,317.6z"/>
																					</g>
																				</g>
																			</g>
																		</g>
																	</g>
																</g>
															</g>
														</g>
													</g>
												</g>
											</g>
										</g>
									</g>
								</g>
								<g>
									<g>
										<g>
											<g>
												<g>
													<g>
														<g>
															<g>
																<g>
																	<g>
																		<path class="st6" d="M374.7,305.7c0.2,0.3,1.2,0,2.5-0.1s2.4,0.1,2.5-0.1c0.1-0.1-0.2-0.4-0.6-0.6
																			c-0.5-0.2-1.2-0.4-1.9-0.4c-0.8,0-1.5,0.3-1.9,0.5C374.9,305.3,374.7,305.6,374.7,305.7z"/>
																	</g>
																</g>
															</g>
														</g>
													</g>
												</g>
											</g>
										</g>
									</g>
								</g>
								<g>
									<g>
										<g>
											<g>
												<g>
													<g>
														<g>
															<g>
																<g>
																	<g>
																		<path class="st6" d="M364.9,306.9c0.2,0.2,0.9-0.2,1.8-0.3c0.9-0.2,1.7-0.1,1.8-0.4c0.1-0.1-0.1-0.4-0.5-0.5
																			c-0.4-0.2-0.9-0.3-1.6-0.2c-0.6,0.1-1.1,0.4-1.4,0.7C364.8,306.5,364.8,306.8,364.9,306.9z"/>
																	</g>
																</g>
															</g>
														</g>
													</g>
												</g>
											</g>
										</g>
									</g>
								</g>
							</g>
						</g>
					</g>
				</g>
				<g>
					<g>
						<g>
							<g>
								<path class="st6" d="M392.5,323c-2.1,0.8-2.5-0.3-4.3-1.5c-1.9-1.3-3.1-3.4-3.1-5.7c-0.1-2,0.7-4.1-0.3-5.8
									c-1.3-2.3-4.8-2.5-6.1-4.8c-0.7-1.3-0.5-3-1.3-4.3c-0.8-1.2-2.2-1.7-3.7-2c-1.4-0.3-2.9-0.4-4.1-1.1
									c-1.3-0.7-2.2-2.2-1.7-3.5c6-0.2,12,0.3,17.9,1.5c1.4,0.3,2.8,0.6,3.8,1.7s1.2,2.7,1.4,4.1c0.8,7.1,1.6,14.3,2.4,21.4"/>
							</g>
						</g>
					</g>
				</g>
			</g>
			<g>
				<g>
					<g>
						<g>
							<path class="st6" d="M394.9,306.1c-0.2-2.6,1.6-5.3,4.1-6.2c2.5-0.9,5.5,0.1,7,2.3c1.5,2.1,1.5,4.8,0.8,7.3
								c-0.8,2.9-2.9,5.7-5.9,6.1c-2.8,0.3-5.4-1.8-6.6-4.3s-1.3-5.4-1.5-8.3"/>
						</g>
					</g>
				</g>
			</g>
			<g>
				<g>
					<g>
						<g>
							<g>
								<path class="st7" d="M398.2,316.7c0,0,0.2-0.2,0.3-0.5c0.2-0.4,0.3-0.9,0.3-1.7c0-0.7-0.2-1.6-0.5-2.5s-0.8-1.8-1.2-2.8
									c-0.4-1-0.7-2-0.6-2.9c0-0.9,0.3-1.7,0.4-2.4c0.1-0.7,0-1.3-0.2-1.7c-0.2-0.4-0.4-0.5-0.4-0.5s0.1,0.2,0.3,0.5
									c0.1,0.4,0.2,0.9,0.1,1.6s-0.4,1.5-0.5,2.5c0,1,0.2,2,0.6,3s0.9,1.9,1.2,2.8c0.3,0.9,0.5,1.7,0.5,2.4
									C398.7,315.9,398.1,316.7,398.2,316.7z"/>
							</g>
						</g>
					</g>
				</g>
			</g>
			<g>
				<g>
					<g>
						<g>
							<g>
								<path class="st7" d="M396.8,307.2c0,0,0.4,0.5,1.4,1c0.9,0.5,2.4,0.9,4.1,0.7c1.6-0.2,3-1,3.7-1.8c0.8-0.7,1.1-1.3,1.1-1.3
									s-0.4,0.5-1.2,1.2c-0.8,0.6-2.1,1.4-3.6,1.6c-1.6,0.2-3-0.1-3.9-0.5C397.3,307.5,396.8,307.1,396.8,307.2z"/>
							</g>
						</g>
					</g>
				</g>
			</g>
			<g>
				<g>
					<g>
						<g>
							<g>
								<path class="st7" d="M397.4,308.3c0,0,0.2,0.5,0.9,1.1c0.6,0.6,1.6,1.4,2.9,1.9s2.5,0.7,3.4,0.6c0.9,0,1.4-0.2,1.4-0.2
									c0-0.1-0.5,0-1.4,0s-2-0.2-3.3-0.7c-1.2-0.5-2.2-1.2-2.8-1.8C397.8,308.7,397.4,308.3,397.4,308.3z"/>
							</g>
						</g>
					</g>
				</g>
			</g>
			<g>
				<g>
					<g>
						<g>
							<g>
								<path class="st7" d="M397.1,319.6c0,0,0,0,0.1-0.1c0-0.1,0.1-0.2,0.2-0.4c0.1-0.3,0.3-0.8,0.3-1.5s-0.1-1.5-0.5-2.3
									s-1.2-1.7-2.2-2.2s-2.3-0.8-3.3-1.7c-0.5-0.5-0.7-1.1-0.7-1.8c0-0.7,0.2-1.4,0.4-2.2c0.4-1.5,0.1-3.3-0.8-4.7
									c-0.5-0.7-1.1-1.3-1.9-1.7c-0.8-0.4-1.7-0.6-2.6-0.6c-0.9-0.1-1.8,0-2.6-0.2c-0.8-0.1-1.6-0.3-2.3-0.8
									c-0.6-0.5-1-1.2-1.2-1.9c-0.2-0.7-0.4-1.5-0.7-2.2c-0.6-1.4-1.6-2.6-2.7-3.4s-2.4-1.1-3.6-1.1s-2.2,0.4-3,0.9
									c-0.8,0.6-1.2,1.2-1.5,1.8c-0.3,0.6-0.4,1.1-0.4,1.4s0,0.5,0,0.5c0.1,0-0.1-0.8,0.5-1.9c0.3-0.6,0.8-1.2,1.5-1.7
									s1.7-0.9,2.9-0.9c1.1,0,2.4,0.4,3.5,1.1c1.1,0.8,2,1.9,2.6,3.3c0.3,0.7,0.5,1.4,0.7,2.2c0.2,0.8,0.6,1.6,1.4,2.1
									c0.7,0.5,1.6,0.8,2.4,0.9c0.9,0.1,1.7,0.1,2.6,0.2s1.7,0.2,2.4,0.6c0.7,0.4,1.3,1,1.8,1.6c0.9,1.3,1.2,3,0.8,4.4
									c-0.2,0.7-0.4,1.5-0.4,2.2c0,0.8,0.3,1.5,0.8,2c1,1,2.4,1.2,3.4,1.7s1.8,1.2,2.2,2c0.4,0.8,0.5,1.6,0.5,2.2
									C397.5,318.9,397,319.5,397.1,319.6z"/>
							</g>
						</g>
					</g>
				</g>
			</g>
			<g>
				<g>
					<g>
						<g>
							<g>
								<path class="st7" d="M393.1,297.6c0,0,0.1-0.1,0-0.4c0-0.2-0.1-0.6-0.4-1s-0.8-0.7-1.5-0.9c-0.7-0.1-1.5,0-2.3,0.3
									s-1.6,0.8-2.5,1.1c-0.9,0.3-2,0.5-2.9,0s-1.5-1.5-2.1-2.6s-1.4-2.1-2.3-3c-1.9-1.8-4.3-2.8-6.6-2.9
									c-1.1-0.1-2.2,0.1-3.1,0.6c-0.9,0.4-1.6,1.1-2.1,1.9c-0.5,0.7-0.6,1.6-0.5,2.2c0.1,0.7,0.3,1.2,0.5,1.7
									c0.3,0.4,0.5,0.7,0.7,0.8c0.2,0.1,0.3,0.2,0.3,0.2s-0.5-0.3-0.9-1.1c-0.2-0.4-0.4-0.9-0.4-1.6c0-0.6,0.1-1.4,0.6-2.1
									c0.4-0.7,1.1-1.3,2-1.7c0.9-0.4,1.9-0.6,3-0.5c2.2,0.2,4.5,1.2,6.4,2.9c0.9,0.9,1.7,1.8,2.3,2.9c0.6,1,1.2,2.1,2.3,2.7
									c0.5,0.3,1.1,0.4,1.7,0.3c0.5,0,1.1-0.2,1.5-0.4c0.9-0.4,1.7-0.8,2.5-1.1c0.8-0.3,1.5-0.4,2.2-0.3c0.6,0.1,1.1,0.4,1.4,0.8
									c0.3,0.3,0.4,0.7,0.5,0.9C393.1,297.5,393.1,297.6,393.1,297.6z"/>
							</g>
						</g>
					</g>
				</g>
			</g>
		</g>
	</g>
</g>
</svg>
