<?xml version="1.0" encoding="utf-8"?>
<!-- Generator: Adobe Illustrator 23.0.1, SVG Export Plug-In . SVG Version: 6.00 Build 0)  -->
<svg version="1.1" id="Layer_1" xmlns="http://www.w3.org/2000/svg" xmlns:xlink="http://www.w3.org/1999/xlink" x="0px" y="0px"
	 viewBox="0 0 500 500" style="enable-background:new 0 0 500 500;" xml:space="preserve">
<style type="text/css">
	.st0{display:none;}
	.st1{display:inline;fill-rule:evenodd;clip-rule:evenodd;fill:#EBEBEB;}
	.st2{fill:#F5F5F5;}
	.st3{fill:#E1E1E1;}
	.st4{fill:#ECECEC;}
	.st5{opacity:0.8;}
	.st6{fill:#1A2E35;}
	.st7{fill:#375A64;}
	.st8{fill:#35167A;}
	.st9{fill:#FFBF9D;}
	.st10{fill:#671CC7;}
	.st11{fill:#FF9A6C;}
	.st12{opacity:0.6;}
	.st13{fill:#FFFFFF;}
	.st14{opacity:0.6;fill:#FFFFFF;enable-background:new    ;}
	.st15{opacity:0.3;enable-background:new    ;}
	.st16{fill:#FF4F5B;}
	.st17{opacity:0.3;}
	.st18{fill:#FAFAFA;}
</style>
<g id="Background_Simple" class="st0">
	<path class="st1" d="M466.8,94.6c-2.9-6.8-6.6-13.1-11.3-18.7c-28.5-33.8-95.4-43.2-127.6-9.3c-27,28.5-24,78.8-56,101.6
		c-19.5,13.9-46,12.5-69.2,6.7s-45.9-15.3-69.8-15.8c-34.9-0.8-69,19-87.2,48.8c-30,49.2-14,119.2,30.8,154.3
		c23.8,18.7,54.3,26.3,84,32.2c37.3,7.4,75.2,12.7,113.1,10.2c56.3-3.8,109.7-27.9,146.4-71.4c0.7-0.9,1.5-1.7,2.2-2.6
		c47.4-57.6,66.1-133.9,52.6-207.2C473.2,113.6,470.7,103.7,466.8,94.6z"/>
</g>
<g>
	<g>
		<g>
			<g>
				<g>
					<path class="st2" d="M75.2,434.3c0.9-3.4-1.4-6.9-3.9-9.4s-5.6-4.7-6.9-8c-2.2-5.3,0.7-12.3-3-16.7c-2.2-2.6-6-3.5-7.9-6.3
						c-1-1.5-1.3-3.3-1.7-5c-2-8.8-6.5-17.1-12.8-23.6c-0.4,7.9,1.4,15.8,5.1,22.8c1.5,2.8,3.3,5.5,3.8,8.6c0.8,5.1-2,10.3-0.7,15.3
						c1.5,5.7,7.9,9.5,8.2,15.3c0.3,5-4,9.3-3.7,14.3c0.1,2.1,1.1,4.1,2.2,5.9c3.9,6.4,9.5,10.7,18.1,10.5l10.5,0.3L75.2,434.3z"/>
				</g>
			</g>
		</g>
		<g>
			<g>
				<g>
					<g>
						<g>
							<g>
								<path class="st3" d="M84.6,458.7c0,0,1,0.2,2.9-0.1c0.9-0.1,2.1-0.4,3.4-0.9s2.8-1.2,4.2-2.3c0.7-0.6,1.4-1.3,1.7-2.3
									c0.4-1,0.4-2,0.5-3.1c0-1.1,0-2.2,0.2-3.4c0.2-1.2,0.6-2.3,1.3-3.4c1.2-2.2,3.3-4.2,3.9-7.2c0.7-2.9,0.2-6-0.3-9.2
									c-0.5-3.1-1-6.6,0.2-9.8c1.1-3.3,3.4-6.2,4.5-9.9c1.1-3.7,0.6-7.7,0.8-11.7c0.1-2,0.5-4,1.3-5.8c0.8-1.9,2-3.6,2.9-5.6
									c1.8-4,2.1-8.4,2.6-12.8c0.2-2.2,0.5-4.4,0.7-6.7c0.2-2.3,0.4-4.5,1.1-6.7c0.6-2.2,1.6-4.3,2.5-6.5c0.4-1.1,0.9-2.2,1.2-3.4
									c0.2-1.2,0.3-2.4,0.3-3.6c0.1-2.4,0-4.8-0.3-7.2c-0.3-2.4-0.7-4.8-1-7.2c0-0.1,0-0.3,0-0.4l-0.1-0.5l-0.4,0.2
									c-2.2,1.1-4.1,2.8-5.6,4.8s-2.6,4.2-3.4,6.4c-1.7,4.5-2.3,9.2-3.2,13.7c-0.8,4.5-1.9,8.9-4.2,12.7c-1.1,1.9-2.5,3.6-3.7,5.4
									s-2.3,3.8-2.6,6c-0.6,4.4,1.9,8.3,1.4,12.2c-0.2,1.9-0.9,3.8-1.9,5.4c-0.9,1.7-2,3.2-3.1,4.8c-1.1,1.6-2,3.2-2.8,4.8
									c-0.7,1.7-1.2,3.5-1.3,5.3c-0.2,3.5,0.3,6.9,0,10c-0.2,3.2-1.3,6-2.5,8.6c-1.3,2.6-2.6,4.9-3.8,7.2
									c-0.6,1.1-1.1,2.2-1.6,3.3c-0.5,1.1-0.7,2.2-0.9,3.3c-0.3,2.2-0.3,4.2,0,6c0.5,3.6,1.8,6.2,3,7.6c0.3,0.4,0.6,0.7,0.9,0.9
									c0.2,0.3,0.5,0.4,0.7,0.6C84.4,458.6,84.6,458.7,84.6,458.7c0-0.1-0.9-0.5-2-2c-1.2-1.5-2.5-4-2.9-7.6
									c-0.2-1.8-0.2-3.8,0.1-5.9c0.2-1.1,0.4-2.2,0.9-3.2c0.4-1.1,1-2.2,1.6-3.3c1.2-2.2,2.6-4.6,3.9-7.2s2.4-5.5,2.6-8.8
									c0.3-3.2-0.2-6.6,0-10c0.1-1.7,0.5-3.4,1.2-5.1c0.7-1.6,1.7-3.2,2.8-4.7c1.1-1.6,2.2-3.1,3.1-4.8c1-1.7,1.8-3.6,2-5.7
									c0.5-4.2-2-8.1-1.4-12.2c0.3-2,1.3-3.9,2.5-5.7c1.2-1.8,2.6-3.5,3.7-5.4c2.4-3.9,3.5-8.4,4.3-12.9c0.9-4.5,1.5-9.2,3.2-13.6
									c0.8-2.2,1.9-4.3,3.3-6.2c1.4-1.9,3.2-3.5,5.4-4.6l-0.5-0.3c0,0.1,0,0.3,0,0.4c0.3,2.4,0.7,4.8,1,7.2
									c0.3,2.4,0.4,4.8,0.3,7.1c-0.1,1.2-0.1,2.4-0.3,3.5c-0.2,1.1-0.7,2.2-1.2,3.3c-0.9,2.2-1.8,4.3-2.5,6.6
									c-0.7,2.2-0.9,4.6-1.1,6.8c-0.2,2.3-0.5,4.5-0.7,6.7c-0.5,4.4-0.8,8.8-2.5,12.6c-0.9,1.9-2,3.7-2.9,5.6s-1.3,4-1.4,6
									c-0.2,4,0.3,8-0.7,11.6c-1.1,3.6-3.3,6.6-4.5,9.9c-1.2,3.4-0.7,7-0.2,10.1s1,6.2,0.4,9s-2.6,4.9-3.8,7.1
									c-0.6,1.1-1.1,2.3-1.3,3.5c-0.2,1.2-0.2,2.3-0.2,3.4s-0.1,2.1-0.4,3s-1,1.6-1.6,2.2c-1.4,1.1-2.8,1.8-4.1,2.3
									c-1.3,0.5-2.4,0.8-3.3,0.9c-0.9,0.2-1.6,0.2-2.1,0.2C84.9,458.7,84.6,458.7,84.6,458.7z"/>
							</g>
						</g>
					</g>
				</g>
				<g>
					<g>
						<g>
							<g>
								<path class="st3" d="M117,335.2c0,0,0,0.1-0.1,0.3c-0.1,0.3-0.1,0.6-0.2,0.9c-0.2,0.8-0.4,2.1-0.8,3.6
									c-0.4,1.6-1.3,3.3-2.1,5.5c-0.8,2.1-1.7,4.6-2.4,7.4c-0.8,2.8-1.5,5.9-2.2,9.2c-0.7,3.3-1.5,6.9-3.3,10.2
									c-0.8,1.7-1.8,3.4-2.6,5.3c-0.8,1.9-1.2,3.9-1.5,6c-0.5,4.1-1.2,8.4-2.2,12.7c-2.1,8.6-4,16.8-5.8,24.2
									c-1.8,7.4-3.5,14.1-4.8,19.8c-1.3,5.6-2.4,10.1-3.2,13.3c-0.4,1.5-0.6,2.7-0.8,3.6c-0.1,0.4-0.1,0.7-0.2,0.9
									c0,0.2-0.1,0.3,0,0.3c0,0,0-0.1,0.1-0.3c0.1-0.2,0.2-0.6,0.3-0.9c0.2-0.9,0.6-2.1,1-3.6c0.8-3.2,2-7.7,3.4-13.3
									c1.4-5.6,3.1-12.3,5-19.7c1.8-7.5,3.8-15.6,5.8-24.2c1-4.3,1.7-8.6,2.2-12.7c0.3-2.1,0.7-4,1.4-5.9c0.7-1.8,1.7-3.6,2.5-5.3
									c1.8-3.4,2.6-7.1,3.3-10.4c0.7-3.3,1.4-6.4,2.1-9.2c0.7-2.8,1.5-5.3,2.3-7.4c0.8-2.2,1.7-3.9,2-5.5c0.4-1.6,0.5-2.8,0.7-3.7
									c0.1-0.4,0.1-0.7,0.2-1C117,335.4,117,335.2,117,335.2z"/>
							</g>
						</g>
					</g>
				</g>
			</g>
			<g>
				<g>
					<g>
						<g>
							<path class="st3" d="M86.5,458.7c6.8-4.1,8.7-16.4,5.8-23.9c-2.9-7.4-7.9-14.2-8.7-22.1c-0.6-6.1,1.3-12.3-0.1-18.3
								c-2-8-9.8-14.2-9.8-22.4c0-4.6,2.6-9,2.4-13.6c-0.3-5.7-4.7-10.1-7.4-15.1c-4.2-7.6-4.5-16.7-6-25.2
								c-1.5-8.6-4.8-17.7-12.4-21.9c-1.1,7.3-3,12.3-2.3,22.1c0.2,3.5,4.4,10.3,5,18.1c0.4,4.6,0.6,9.3,0.9,13.9
								c0.3,4.5,0.6,9.1,2.3,13.3c1.3,3.2,3.3,6.2,4.2,9.5c1.8,6.3-0.5,13.1,1,19.5c1.2,5.4,5,10,5.8,15.5c1.1,7.7-3.8,15.7-1.2,23
								c1.3,3.6,4.3,6.5,5.2,10.3c0.7,2.9,0,6,0.6,8.9c1,4.7,10,8.3,14.8,8"/>
						</g>
					</g>
				</g>
				<g>
					<g>
						<g>
							<g>
								<path class="st4" d="M52.2,303.4c0,0,0,0.1,0,0.4s0.1,0.7,0.2,1.2c0.2,1.1,0.3,2.6,0.7,4.6s1.4,4.3,2.3,7
									c0.9,2.7,1.8,5.8,2.6,9.3s1.5,7.4,2.2,11.6c0.7,4.1,1.5,8.7,3.6,13.1c1,2.2,2.1,4.4,2.9,6.7c0.8,2.3,1.2,4.8,1.5,7.4
									c0.4,5.2,1.1,10.5,2.1,15.9c2.2,10.8,4.2,21,6.1,30.4c2,9.3,3.7,17.7,5.2,24.7s2.7,12.7,3.6,16.7c0.4,1.9,0.8,3.4,1,4.5
									c0.1,0.5,0.2,0.9,0.3,1.2c0.1,0.3,0.1,0.4,0.1,0.4s0-0.1-0.1-0.4s-0.1-0.7-0.2-1.2c-0.2-1.1-0.5-2.6-0.9-4.6
									c-0.8-4-2-9.7-3.4-16.7c-1.5-7.1-3.2-15.5-5.1-24.8s-3.9-19.6-6-30.4c-1-5.4-1.7-10.7-2.1-15.9c-0.3-2.6-0.7-5.2-1.5-7.5
									c-0.8-2.4-1.9-4.6-2.9-6.7c-2.1-4.3-2.8-8.7-3.6-12.9c-0.7-4.2-1.4-8.1-2.3-11.6c-0.8-3.5-1.7-6.6-2.7-9.4
									c-0.9-2.7-2-5-2.4-6.9c-0.4-2-0.6-3.5-0.8-4.6c-0.1-0.5-0.2-0.9-0.2-1.2C52.3,303.6,52.2,303.4,52.2,303.4z"/>
							</g>
						</g>
					</g>
				</g>
			</g>
		</g>
	</g>
	<g>
		<path class="st3" d="M208.5,43.9c5.8-6.8,21-2.5,31.4,3c0,0,7.2,3.4,9.8,5.1h0.1l24.3-3c2-0.2,4,0.1,5.8,1l2,1c1,0.5,1,2-0.1,2.4
			l-17.9,7.7c0,0.1,0,0.1,0,0.2c9.5,6.3,17.7,11.6,17.7,11.6c0.1,0.1,0.2,0.1,0.3,0.2c3.3,2.1,7.3,2.9,11.3,2.2l9.5-1.7
			c0.5-0.1,1-0.1,1.4,0.1c1.7,0.7,2,2.9,0.6,4.1l-11,9.2c-1.7,1.4-4.1,1.8-6.1,0.8l-5.1-2.4l-26-12.4l3,14.8c0.1,0.6-0.4,1.2-1,1.1
			h-1.2c-1.7-0.1-3.2-1-4-2.4l-10.5-20L212,52C207.9,50.1,206.4,46.6,208.5,43.9z"/>
	</g>
	<g class="st5">
		<g>
			<g>
				<path class="st3" d="M38.2,109.4l77.1-1.7c0,0-7.1-12.3-26.9-10c-18.9,2.2-20.1-5.7-29.7-6.4S41.1,98.1,38.2,109.4z"/>
			</g>
		</g>
	</g>
	<g class="st5">
		<g>
			<g>
				<path class="st3" d="M398.8,151.1h72.7c0,0-6.4-11.7-25.1-10c-17.9,1.6-18.8-5.8-27.9-6.7C409.3,133.5,401.8,140.5,398.8,151.1z
					"/>
			</g>
		</g>
	</g>
	<g class="st5">
		<g>
			<g>
				<path class="st3" d="M82.1,71.1h55.4c0,0-4.9-8.9-19.2-7.6c-13.6,1.2-14.3-4.4-21.2-5.1C90.2,57.7,84.4,63,82.1,71.1z"/>
			</g>
		</g>
	</g>
	<g class="st5">
		<g>
			<g>
				<path class="st3" d="M398.8,187.7h36.3c0,0-3.2-5.8-12.5-5c-8.9,0.8-9.4-2.9-13.9-3.3C404.1,179,400.3,182.5,398.8,187.7z"/>
			</g>
		</g>
	</g>
	<g class="st5">
		<g>
			<g>
				<path class="st3" d="M380.7,87.4H417c0,0-3.2-5.8-12.5-5c-8.9,0.8-9.4-2.9-13.9-3.3C386,78.6,382.2,82.1,380.7,87.4z"/>
			</g>
		</g>
	</g>
	<g>
		<path class="st6" d="M472.6,458.8c0,0.1-100.9,0.3-225.4,0.3S21.8,459,21.8,458.8s100.9-0.3,225.4-0.3S472.6,458.7,472.6,458.8z"
			/>
	</g>
	<g>
		<g>
			<path class="st6" d="M403.5,282.5L403.5,282.5c-0.2-1.4-1.4-2.5-2.8-2.5h-21.4c-1.8,0-3.1,1.6-2.8,3.4l0,0
				c0.3,1.3,1.5,2.3,2.8,2.3h21.3C402.4,285.6,403.7,284.1,403.5,282.5z"/>
			<g>
				<g>
					<g>
						<g>
							<path class="st6" d="M450.1,451.8c-0.5,3.7,2,7.2,5.8,7.7c3.7,0.5,7.2-2,7.7-5.8c0.5-3.7-2-7.2-5.8-7.7
								C454.1,445.5,450.6,448.1,450.1,451.8z"/>
						</g>
						<g>
							<polygon class="st7" points="455.4,452.8 451.3,444.3 453.4,442.9 457.5,451.8 							"/>
						</g>
						<g>
							<polygon class="st6" points="417,347.2 391.2,279.9 386.3,282.4 411.3,349.1 							"/>
						</g>
						<g>
							<path class="st8" d="M438.4,451.2l38.1-15.1c1.4-0.6,2.1-2.2,1.5-3.6l-37.9-95.4c-3-7.5-11.5-11.2-19-8.2l-16,6.4
								c-7.5,3-11.2,11.5-8.2,19l37.9,95.4C435.4,451.1,437,451.8,438.4,451.2z"/>
						</g>
						<g>
							<g>
								<path class="st6" d="M434.8,450.1c0,0-0.1-0.2-0.2-0.6c-0.2-0.4-0.4-1-0.6-1.7c-0.6-1.5-1.4-3.7-2.5-6.5
									c-2.2-5.6-5.3-13.8-9.2-23.8c-3.9-10.1-8.6-22-13.8-35.3c-2.6-6.6-5.3-13.6-8.1-20.8c-0.7-1.8-1.4-3.6-2.1-5.5
									c-0.8-1.8-1-3.8-0.8-5.7c0.5-3.9,3.2-7.5,6.9-8.9c3.7-1.5,8.2-0.7,11.2,1.8c1.5,1.3,2.6,2.9,3.3,4.7
									c0.7,1.8,1.4,3.7,2.1,5.5c2.8,7.2,5.6,14.2,8.2,20.8c5.2,13.3,9.9,25.2,13.9,35.2s7.2,18.1,9.4,23.7c1.1,2.8,2,4.9,2.6,6.4
									c0.3,0.7,0.5,1.3,0.7,1.7c0.2,0.4,0.3,0.6,0.3,0.6s-0.1-0.2-0.2-0.6c-0.2-0.4-0.4-1-0.6-1.7c-0.6-1.5-1.4-3.7-2.5-6.5
									c-2.2-5.6-5.3-13.8-9.2-23.8c-3.9-10.1-8.6-22-13.8-35.3c-2.6-6.6-5.3-13.6-8.1-20.8c-0.7-1.8-1.4-3.6-2.1-5.5
									s-1.9-3.6-3.5-5c-3.1-2.7-7.8-3.5-11.8-1.9c-4,1.5-6.8,5.3-7.3,9.4c-0.2,2,0.1,4.1,0.8,6c0.7,1.8,1.4,3.7,2.1,5.5
									c2.8,7.2,5.6,14.2,8.2,20.8c5.2,13.3,9.9,25.2,13.9,35.2s7.2,18.1,9.4,23.7c1.1,2.8,2,4.9,2.6,6.4c0.3,0.7,0.5,1.3,0.7,1.7
									C434.7,449.9,434.8,450.1,434.8,450.1z"/>
							</g>
						</g>
						<g>
							<g>
								<path class="st6" d="M432.3,382.3c0.1,0.3,5.1-1.7,11.1-4.4c6.1-2.7,10.9-5.1,10.8-5.3c-0.1-0.3-5.1,1.7-11.1,4.4
									C437.1,379.7,432.2,382.1,432.3,382.3z"/>
							</g>
						</g>
					</g>
				</g>
			</g>
			<g>
				<path class="st9" d="M398.6,279.9l-4.5-8.8c-0.5-1-1.3-1.8-2.3-2.2l-7-2.9l-18.9-25.6l-1.8,19.6l12,12.4c0,0,7.5,15.9,13.7,15.1
					c0,0-0.2-2.3-1.2-4.1c-2-3.5,0.1-3.5,0.4-3.4h5.1L398.6,279.9z"/>
				<path class="st10" d="M367.8,266.4c0.6,0.9,5.2,7.2,5.2,7.2l13.2-9.6l-4.8-4.7L367.8,266.4z"/>
			</g>
			<path class="st9" d="M388.7,283.4c0,0,3.4,2,3.9,3.6v1l-4.1-0.6L388.7,283.4z"/>
			<path class="st9" d="M393.3,285.3c-0.6-0.5-1.2-1.1-1.4-1.8c-0.2-0.7,0-1.7,0.8-1.9c0.7-0.2,1.4,0.3,2,0.8c0.7,0.6,1.4,1.3,2,2
				c0.5,0.6,1.1,1.3,0.9,2.1c-0.2,0.6-0.8,1-1.4,1.1c-0.6,0-1.3-0.3-1.7-0.7S393.7,285.9,393.3,285.3"/>
			<path class="st9" d="M396.8,285c-0.6-0.5-1.2-1.1-1.4-1.8c-0.2-0.7,0-1.7,0.8-1.9c0.7-0.2,1.4,0.3,2,0.8c0.7,0.6,1.4,1.3,2,2
				c0.5,0.6,1.1,1.3,0.9,2.1c-0.2,0.6-0.8,1-1.4,1.1c-0.6,0-1.3-0.3-1.7-0.7S397.2,285.6,396.8,285"/>
			<g>
				<path class="st11" d="M386.3,269.9c0-0.1,0.9-0.1,1.9,0.8c0.5,0.5,0.8,1.2,1.2,1.9c0.4,0.8,0.8,1.7,0.7,2.7
					c-0.1,1.1-0.7,1.9-1.1,2.6s-0.7,1.4-0.8,2c-0.3,1.2-0.1,2-0.1,2c-0.1,0-0.5-0.8-0.2-2.1c0.1-0.6,0.3-1.4,0.8-2.2
					c0.4-0.7,0.9-1.5,1-2.4s-0.3-1.8-0.6-2.5c-0.4-0.7-0.7-1.5-1-1.9c-0.4-0.4-0.9-0.7-1.2-0.9C386.5,270,386.3,270,386.3,269.9z"/>
			</g>
		</g>
		<g>
			<g>
				<polygon class="st2" points="243.9,179.7 229.9,224.5 271.2,267.6 309,257.7 				"/>
				<g>
					<path class="st6" d="M243.9,179.7c0,0,0.1,0.1,0.3,0.4c0.2,0.3,0.5,0.6,0.9,1.1c0.8,1,2.1,2.5,3.7,4.4
						c3.2,3.8,7.9,9.4,13.7,16.3c11.7,14,28,33.5,46.6,55.7l0.3,0.3L309,258c-6.9,1.8-14,3.6-21.3,5.5c-5.6,1.5-11.1,2.9-16.5,4.3
						h-0.1l-0.1-0.1c-15.5-16.3-29.7-31.1-41.2-43.1l-0.1-0.1v-0.1c4.3-13.7,7.9-24.9,10.4-32.7c1.2-3.9,2.2-6.9,2.8-8.9
						c0.3-1,0.6-1.8,0.7-2.3C243.9,179.9,243.9,179.7,243.9,179.7c-0.5,1.6-5.4,17.6-13.8,44.9v-0.2c11.5,12,25.7,26.8,41.3,43
						l-0.3-0.1c5.4-1.4,10.9-2.8,16.5-4.3c7.3-1.9,14.4-3.8,21.3-5.5l-0.1,0.4c-18.4-22.2-34.6-41.7-46.2-55.7
						c-5.8-7-10.4-12.6-13.7-16.5c-1.6-1.9-2.8-3.4-3.7-4.5c-0.4-0.5-0.7-0.9-1-1.2C244.1,179.8,243.9,179.7,243.9,179.7z"/>
				</g>
			</g>
			<path class="st3" d="M245.2,209.2c2-3.4,7.1-4.4,10.2-2c2.6,2,3.8,5.8,6.9,6.8c2.2,0.7,4.7-0.3,7,0.1c2.7,0.5,4.7,3,5.5,5.6
				s0.6,5.5,0.4,8.2l-13.4,0.2L245.2,209.2z"/>
			<g>
				<polygon class="st2" points="220.4,183.8 307.3,273.3 271.9,269.7 222.4,217.4 				"/>
				<g>
					<path class="st6" d="M220.4,183.8c0.1,1.3,0.8,12.8,2.1,33.7v-0.1c12.7,13.3,30,31.6,49.6,52.2l-0.2-0.1
						c8.8,0.9,17.8,1.8,27.2,2.7c2.8,0.3,5.6,0.6,8.2,0.8l-0.2,0.4C258.8,223.5,222.4,185.8,220.4,183.8c1.9,2,38.5,39.6,87.1,89.4
						l0.5,0.5l-0.7-0.1c-2.6-0.3-5.4-0.5-8.2-0.8c-9.3-0.9-18.4-1.9-27.2-2.8h-0.1l-0.1-0.1c-19.6-20.7-36.8-39-49.5-52.4l0,0v-0.1
						C221.1,196.6,220.5,185.1,220.4,183.8z"/>
				</g>
			</g>
			<path class="st3" d="M254.4,219.4c-2.7,3.1-2.3,8,0,11.4c2.3,3.4,6.1,5.5,9.9,6.9c3.1,1.2,6.9,1.9,9.5-0.2"/>
			<path class="st3" d="M249.9,214.5c0.2,0.7-0.8,1.3-1.5,1.2c-0.8-0.1-1.5-0.5-2.2-0.5c-2.1-0.1-3.2,2.4-4.9,3.6
				c-2,1.4-5.1,0.8-6.4-1.3c-1.1-1.8-1.1-4.4-2.9-5.5c-1-0.6-2.3-0.5-3.4-0.3c-1.1,0.2-2.3,0.5-3.5,0.4c-1.2-0.2-2.3-1.1-2.3-2.2
				l-0.6-1l-1.5-24.7L249.9,214.5z"/>
			<path class="st3" d="M292.3,271.5c2,0.3,3.8-0.7,4.1-2.6c0.3-2-1.2-4-3.2-4.3c-1.8-0.2-3.6,0.8-5.3,0.3c-1.9-0.6-2.7-2.9-3.2-4.8
				c-0.5-2-1.2-4.2-3.1-5c-3.1-1.3-6.4,2.7-9.6,1.8c-2.4-0.7-3.3-3.5-5.2-5.2c-1.5-1.3-3.7-1.7-5.6-1.1c-1.9,0.6-3,1.7-3.4,3.7
				l14.3,15.1L292.3,271.5z"/>
		</g>
		<g>
			<g>
				<path class="st10" d="M268.5,422.8l-3.6,20.6c0,0-22.1,3.3-23.2,7l39.7,8.4l6.9-31.8L268.5,422.8z"/>
				<g class="st12">
					<path class="st13" d="M277.6,444.3c0.7,0.4,1.1,1.3,0.7,2.1c-0.3,0.7-1.3,1.1-2.1,0.7c-0.7-0.4-1.2-1.5-0.8-2.2
						c0.4-0.7,1.6-1.1,2.2-0.5"/>
				</g>
				<path class="st14" d="M281.5,458.8l0.7-3.2l-38.4-6.9c0,0-1.9,0.4-2,1.7L281.5,458.8z"/>
				<g>
					<path class="st6" d="M264.3,443.1c0,0.2,0.9,0.5,1.7,1.3c0.8,0.8,1.2,1.7,1.4,1.7c0.2,0,0.1-1.2-0.9-2.2
						C265.6,442.9,264.3,442.9,264.3,443.1z"/>
				</g>
				<g>
					<path class="st6" d="M259.8,443.9c-0.1,0.2,0.7,0.7,1.2,1.6s0.5,1.9,0.7,1.9c0.2,0.1,0.5-1-0.1-2.2
						C261,444.1,259.9,443.8,259.8,443.9z"/>
				</g>
				<g>
					<path class="st6" d="M256.4,448.4c0.2,0.1,0.6-0.8,0.4-2c-0.3-1.2-1.1-1.8-1.2-1.6c-0.1,0.1,0.3,0.8,0.5,1.8
						C256.3,447.5,256.2,448.4,256.4,448.4z"/>
				</g>
				<g>
					<path class="st6" d="M265.7,438.5c0,0.2,1,0.1,2.1,0.4s1.9,0.8,2,0.7c0.1-0.1-0.5-1-1.8-1.3
						C266.7,437.9,265.6,438.3,265.7,438.5z"/>
				</g>
			</g>
			<polygon class="st15" points="267.8,426.9 267.2,430.6 286.7,434.5 287.4,431.2 			"/>
			<g>
				<path class="st6" d="M266.5,434.3c0,0.1,0.7,0.4,2,0.4c0.6,0,1.4,0,2.2-0.2c0.4-0.1,0.8-0.2,1.3-0.4c0.2-0.1,0.4-0.2,0.7-0.3
					c0.3-0.2,0.5-0.6,0.3-1c-0.1-0.3-0.5-0.6-0.8-0.6c-0.3-0.1-0.5-0.1-0.8-0.1c-0.5,0-0.9,0.1-1.3,0.2c-0.8,0.2-1.5,0.5-2.1,0.8
					c-1.1,0.7-1.6,1.3-1.5,1.4s0.6-0.4,1.7-0.9c0.5-0.3,1.2-0.5,2-0.6c0.4-0.1,0.8-0.1,1.2-0.1c0.4,0,0.8,0.1,0.9,0.3
					c0,0.1,0,0.1-0.1,0.2s-0.3,0.2-0.5,0.2c-0.4,0.2-0.8,0.3-1.2,0.4c-0.8,0.2-1.5,0.3-2.1,0.3C267.3,434.3,266.5,434.2,266.5,434.3
					z"/>
			</g>
			<g>
				<path class="st6" d="M266.7,434.7c0.1,0,0.6-0.6,0.9-1.8c0.2-0.6,0.3-1.4,0.2-2.2c0-0.4-0.1-0.9-0.3-1.3c-0.1-0.4-0.3-1-1.1-1.3
					c-0.4-0.1-0.8,0.1-0.9,0.4c-0.2,0.2-0.3,0.5-0.4,0.7c-0.2,0.4-0.3,0.9-0.3,1.3c-0.1,0.9,0.1,1.6,0.4,2.2
					c0.6,1.2,1.3,1.6,1.3,1.5c0.1-0.1-0.5-0.6-0.9-1.7c-0.2-0.5-0.3-1.2-0.2-2c0-0.4,0.1-0.8,0.3-1.1c0.2-0.4,0.4-0.7,0.5-0.6
					c0.2,0,0.5,0.4,0.6,0.8s0.2,0.8,0.3,1.2c0.1,0.8,0.1,1.5,0,2.1C266.9,433.9,266.6,434.6,266.7,434.7z"/>
			</g>
		</g>
		<g>
			<g>
				<g>
					<path class="st10" d="M398.8,424.1l-8.6-11.2l-0.4-0.6l-14.6,10.9l13.5,14.9l-0.5,15c-7.5,1.9-8.7,5.7-8.7,5.7h15.7l14.2-27.4
						L398.8,424.1z"/>
					<polygon class="st14" points="409.5,431.4 395.2,458.8 379.6,458.8 381.3,456.4 394.1,455.7 407.2,429.8 					"/>
				</g>
				<g>
					<path class="st6" d="M388.3,446.2c0.1,0.2,1-0.4,2.2-0.3c1.2,0,2.1,0.5,2.2,0.4s-0.7-1.1-2.2-1.1
						C389.1,445.2,388.2,446.1,388.3,446.2z"/>
				</g>
				<g>
					<path class="st6" d="M388.6,442.5c0.2,0.1,0.9-0.8,2.1-1.1c1.2-0.3,2.2,0.3,2.3,0.2c0.1-0.1-0.1-0.3-0.6-0.6
						c-0.4-0.2-1.1-0.4-1.9-0.3c-0.8,0.2-1.4,0.6-1.7,1C388.6,442.1,388.5,442.4,388.6,442.5z"/>
				</g>
				<g>
					<path class="st6" d="M388.5,437.7c0.2,0.1,0.7-0.8,1.8-1.2c1.1-0.4,2.1,0,2.1-0.2c0-0.1-0.2-0.3-0.6-0.5s-1.1-0.2-1.8,0
						c-0.7,0.2-1.2,0.7-1.4,1.1C388.4,437.3,388.4,437.6,388.5,437.7z"/>
				</g>
				<g>
					<path class="st6" d="M384.3,434c0.2,0.1,0.6-0.8,1.6-1.5s1.9-0.7,2-0.9c0.1-0.2-1.2-0.4-2.3,0.3
						C384.3,432.7,384.1,433.9,384.3,434z"/>
				</g>
				<g>
					<path class="st6" d="M382.2,430.7c0.1,0.1,0.6-0.6,1.4-1.6c0.4-0.6,0.9-1.2,1.3-1.9c0.2-0.4,0.5-0.7,0.7-1.3
						c0.1-0.3,0.1-0.6-0.1-1c-0.2-0.3-0.6-0.5-0.9-0.5c-0.7,0.1-1.1,0.5-1.5,0.8s-0.7,0.7-1,1.1c-0.5,0.8-0.7,1.6-0.8,2.3
						c-0.2,1.4,0.3,2.2,0.4,2.1c0.1,0-0.1-0.8,0.1-2.1c0.1-0.6,0.4-1.3,0.9-2c0.2-0.3,0.5-0.6,0.9-0.9c0.3-0.3,0.8-0.6,1.1-0.6
						c0.2,0,0.2,0,0.3,0.1c0.1,0.1,0.1,0.3,0,0.4c-0.1,0.3-0.4,0.7-0.6,1.1c-0.4,0.7-0.8,1.3-1.2,2
						C382.5,430,382.2,430.7,382.2,430.7z"/>
				</g>
				<g>
					<path class="st6" d="M381.7,431.2c0.1,0,0-0.8-0.8-1.8c-0.8-0.9-2.6-1.8-4.6-0.8c-0.1,0.1-0.3,0.3-0.2,0.6
						c0,0.2,0.1,0.4,0.2,0.5c0.2,0.2,0.4,0.4,0.6,0.5c0.4,0.3,0.7,0.5,1.1,0.6c0.7,0.3,1.5,0.5,2.1,0.6c1.2,0.1,2-0.1,1.9-0.2
						c0-0.1-0.7-0.1-1.9-0.3c-0.6-0.1-1.2-0.3-1.9-0.7c-0.3-0.2-0.7-0.4-1-0.6c-0.2-0.1-0.3-0.2-0.4-0.4c-0.1-0.1-0.1-0.1,0-0.1
						c0.1-0.1,0.3-0.1,0.5-0.2c0.2,0,0.4-0.1,0.6-0.1c0.4,0,0.8,0,1.1,0.1c0.7,0.2,1.3,0.5,1.7,0.9
						C381.3,430.5,381.6,431.3,381.7,431.2z"/>
				</g>
				<path class="st14" d="M397,430.9c0,1,0.8,1.9,1.9,1.9c1,0,1.9-0.8,1.9-1.9c0-1-0.8-1.9-1.9-1.9C397.8,429.1,397,429.9,397,430.9
					z"/>
			</g>
			<polygon class="st15" points="376.6,424.7 379.6,428 392.2,415.5 390.5,413.2 			"/>
		</g>
		<g>
			<g>
				<g>
					<g>
						<path class="st16" d="M337.6,163.9c8.3-2.9,17.4-3.3,26-1.2c3.8,1,7.7,2.5,10.1,5.6c2.9,3.6,3.3,8.6,3.7,13.2
							c0.9,9.4,2.6,18.7,5.2,27.9c2.1,7.6,4.8,15,5.9,22.8s0.6,16.1-3.4,22.9c-6.1,10.5-19.1,15.1-31.3,15.3
							c-6.4,0.1-12.9-0.8-18.6-3.8s-10.4-8.1-11.8-14.4"/>
					</g>
					<g>
						<g>
							<path class="st8" d="M337.6,163.9c8.3-2.9,17.4-3.3,26-1.2c3.8,1,7.7,2.5,10.1,5.6c2.9,3.6,3.3,8.6,3.7,13.2
								c0.9,9.4,2.6,18.7,5.2,27.9c2.1,7.6,4.8,15,5.9,22.8s0.6,16.1-3.4,22.9c-6.1,10.5-19.1,15.1-31.3,15.3
								c-6.4,0.1-12.9-0.8-18.6-3.8s-10.4-8.1-11.8-14.4"/>
						</g>
					</g>
				</g>
				<g>
					<g>
						<path class="st3" d="M354.3,173.5c-0.1,0.1,1.7,1.2,3.5,3.9c0.9,1.3,1.8,3,2.7,5c0.9,1.9,1.9,4.1,3.2,6.3c1.4,2.1,3.1,3.9,5,5
							s4,1.4,5.7,1.1c1.7-0.3,2.9-1,3.5-1.6c0.3-0.3,0.6-0.6,0.7-0.8s0.2-0.3,0.2-0.3s-0.3,0.4-1,0.9c-0.7,0.6-1.9,1.2-3.4,1.4
							c-1.6,0.2-3.5-0.1-5.3-1.2c-1.8-1.1-3.4-2.8-4.8-4.8c-1.3-2.1-2.3-4.2-3.2-6.2c-0.9-1.9-1.9-3.7-2.9-5s-1.9-2.3-2.6-2.9
							C354.8,173.7,354.3,173.4,354.3,173.5z"/>
					</g>
				</g>
				<g>
					<g>
						<path class="st3" d="M371.9,267.1c0,0,0-0.3,0-0.8c0-0.6,0-1.3,0-2.2c0-1.9-0.1-4.8-0.3-8.2c-0.3-7-0.9-16.6-1.7-27.1
							c-0.8-10.6-1.8-20.2-2.6-27.1c-0.4-3.5-0.7-6.3-1-8.2c-0.1-0.9-0.2-1.6-0.3-2.2c-0.1-0.5-0.1-0.8-0.2-0.8c0,0,0,0.3,0,0.8
							c0,0.6,0.1,1.3,0.2,2.2c0.2,2,0.5,4.8,0.8,8.2c0.7,6.9,1.6,16.5,2.4,27.1s1.4,20.2,1.9,27.1c0.2,3.4,0.4,6.2,0.5,8.2
							c0.1,0.9,0.1,1.7,0.2,2.2C371.8,266.9,371.9,267.1,371.9,267.1z"/>
					</g>
				</g>
				<g>
					<g>
						<path class="st3" d="M369.4,224.6c0,0.2,3.8,0.1,8.5-0.5s8.4-1.5,8.4-1.6c0-0.2-3.8,0.4-8.4,1
							C373.2,224.1,369.4,224.4,369.4,224.6z"/>
					</g>
				</g>
				<g>
					<g>
						<path class="st3" d="M372.5,224.5c-0.1,0-0.3,0.7-0.5,1.8c-0.1,0.6-0.2,1.3-0.2,2c0,0.4,0,0.9,0.2,1.3
							c0.2,0.5,0.7,0.9,1.3,0.9c0.3,0,0.6-0.1,0.8-0.4c0.2-0.2,0.3-0.5,0.3-0.8c0-0.5-0.1-0.9-0.2-1.3c-0.2-0.8-0.4-1.4-0.7-2
							C373,225.1,372.6,224.6,372.5,224.5c-0.1,0.1,0.2,0.8,0.6,1.8c0.2,0.5,0.4,1.2,0.5,1.9c0.1,0.4,0.2,0.7,0.1,1.1
							c0,0.3-0.2,0.6-0.5,0.6c-0.7,0-0.9-0.8-0.9-1.5s0-1.4,0.1-2C372.5,225.3,372.6,224.6,372.5,224.5z"/>
					</g>
				</g>
			</g>
			<g>
				<g>
					<path class="st7" d="M329.4,167.5l40.2-4.7c5.3-0.6,9-5.4,8.4-10.6l-0.9-7.5c-0.6-5.3-5.4-9-10.6-8.4l-40.2,4.7
						c-5.3,0.6-9,5.4-8.4,10.6l0.9,7.5C319.4,164.4,324.1,168.1,329.4,167.5z"/>
				</g>
				<g>
					<g>
						<path class="st6" d="M365.8,136.9c0,0-0.1-0.1-0.4-0.2c-0.3-0.1-0.7-0.2-1.2-0.2c-1,0-2.6,0.3-4.1,1.4c-1.5,1.1-3.2,2.7-4.1,5
							c-1,2.3-1.4,5-1.1,7.8c0.2,2.8,1.2,5.5,2.7,7.4c1.5,2,3.5,3.2,5.2,3.8c1.8,0.6,3.3,0.6,4.3,0.5c0.5-0.1,0.9-0.2,1.2-0.2
							c0.3-0.1,0.4-0.1,0.4-0.2c0-0.1-0.6,0.1-1.6,0.1c-1,0.1-2.5,0-4.2-0.7c-1.7-0.6-3.5-1.8-4.9-3.7s-2.4-4.4-2.5-7.1
							c-0.2-2.7,0.1-5.4,1-7.6c0.9-2.2,2.5-3.7,3.9-4.8s2.9-1.5,3.8-1.5C365.2,136.8,365.8,137,365.8,136.9z"/>
					</g>
				</g>
				<g>
					<path class="st6" d="M342.8,139l6.2-0.6c-1.6,0.5-3,1.6-4,3.1c-0.9,1.4-1.4,3.1-1.7,4.8c-1.1,7.1,2.7,14.8,8.8,18.6l-5,0.7
						C347.1,165.5,332.8,152.7,342.8,139"/>
				</g>
			</g>
		</g>
		<g>
			<path class="st6" d="M335.8,152.1c3.2,0.9,6.8,0.2,9.4-1.9c2.6-2,4.2-5.3,4.1-8.6c-0.1-3.1-1.5-6.2-0.5-9.1
				c0.7-2,2.3-3.6,2.9-5.6c0.8-3-1-6.1-2.8-8.7c-1.1-1.7-2.3-3.4-3.8-4.7c-1.6-1.3-3.7-2.1-5.6-1.7"/>
			<g>
				<path class="st6" d="M307.4,112c0.2,2.3-1.4,4.4-2.9,6.1s-3.3,3.6-3.6,5.9c-0.6,4.1,3.4,7.9,2.6,11.9c-0.4,2.2-2.2,3.9-2.5,6.1
					c-0.3,2.1,0.8,4.2,2.2,5.8c1.4,1.6,3.1,3,4.4,4.7c1.3,1.8,2,4,3,6.1c0.9,2,2.2,4.1,4.2,5.2c3,1.6,7.2,0.9,9.4,3.4
					c2.2,2.4,4.9,2.8,7.6,4.6"/>
				<path class="st6" d="M343.1,115.6c0.1-2.1-1.9-3.7-3.9-4.5s-4.1-1.1-5.9-2.2c-1.5-1-2.6-2.7-3.9-4c-3.2-3.3-8.2-4.6-12.7-3.4
					c-4.4,1.2-8.1,4.9-9.2,9.4c-0.8,3-0.2,6.6,2.1,8.5c2.7,2.3,6.8,1.8,10.3,1.1c3.5-0.7,7.5-1.4,10.4,0.6c1.8,1.2,2.8,3.3,3.9,5.1
					c1.1,1.9,2.4,3.8,4.5,4.5c2,0.7,4.8-0.5,4.9-2.7"/>
				<g>
					<g>
						<g>
							<g>
								<g>
									<g>
										<g>
											<g>
												<g>
													<g>
														<g>
															<g>
																<g>
																	<path class="st9" d="M334.8,116c1.8,0.2,3.2,1.8,3.1,3.6l0,0l-2.1,47.6c-0.1,5.6-8.3,8.8-14.3,8.6l0,0
																		c-6.1-0.1-6.3-3.1-6.4-8.5c-0.1-8.9-0.1-12.3-0.1-12.2c0,0-7.7-1.3-9.3-11.3c-0.8-5-0.5-13.2-0.1-19.8
																		c0.4-6,4.4-13.4,10.4-12.7L334.8,116z"/>
																</g>
															</g>
														</g>
													</g>
												</g>
											</g>
											<g>
												<g>
													<g>
														<g>
															<g>
																<g>
																	<g>
																		<path class="st6" d="M307.6,129.7c0,0.7,0.5,1.3,1.2,1.3s1.3-0.5,1.3-1.2s-0.5-1.3-1.2-1.3
																			C308.2,128.5,307.6,129,307.6,129.7z"/>
																	</g>
																</g>
															</g>
														</g>
													</g>
												</g>
												<g>
													<g>
														<g>
															<g>
																<g>
																	<g>
																		<g>
																			<path class="st6" d="M307.5,128.2c0.2,0.2,1.1-0.6,2.5-0.5c1.4,0,2.4,0.7,2.5,0.5c0.1-0.1-0.1-0.4-0.5-0.7
																				c-0.4-0.3-1.2-0.6-2-0.6c-0.9,0-1.6,0.3-2,0.6C307.6,127.9,307.4,128.2,307.5,128.2z"/>
																		</g>
																	</g>
																</g>
															</g>
														</g>
													</g>
												</g>
											</g>
											<g>
												<g>
													<g>
														<g>
															<g>
																<g>
																	<g>
																		<path class="st6" d="M321.4,130.1c0,0.7,0.5,1.3,1.2,1.3s1.3-0.5,1.3-1.2s-0.5-1.3-1.2-1.3
																			C322,128.9,321.4,129.4,321.4,130.1z"/>
																	</g>
																</g>
															</g>
														</g>
													</g>
												</g>
												<g>
													<g>
														<g>
															<g>
																<g>
																	<g>
																		<g>
																			<path class="st6" d="M321.1,128.5c0.2,0.2,1.1-0.6,2.5-0.5c1.4,0,2.4,0.7,2.5,0.5c0.1-0.1-0.1-0.4-0.5-0.7
																				s-1.2-0.6-2-0.6c-0.9,0-1.6,0.3-2,0.6C321.2,128.2,321,128.5,321.1,128.5z"/>
																		</g>
																	</g>
																</g>
															</g>
														</g>
													</g>
												</g>
											</g>
											<g>
												<g>
													<g>
														<g>
															<g>
																<g>
																	<g>
																		<path class="st6" d="M316,138.8c0-0.1-0.9-0.2-2.2-0.4c-0.4,0-0.7-0.1-0.7-0.3c-0.1-0.3,0.1-0.6,0.2-1
																			c0.3-0.9,0.7-1.8,1.1-2.7c1.5-3.8,2.5-7,2.4-7c-0.2-0.1-1.5,3-2.9,6.8c-0.4,0.9-0.7,1.8-1,2.7
																			c-0.1,0.4-0.4,0.9-0.2,1.4c0.1,0.3,0.4,0.5,0.6,0.5c0.2,0.1,0.4,0.1,0.6,0.1C315.2,138.9,316,138.9,316,138.8z"/>
																	</g>
																</g>
															</g>
														</g>
													</g>
												</g>
											</g>
											<g>
												<g>
													<g>
														<g>
															<g>
																<g>
																	<path class="st11" d="M315.1,155.2c0,0,6.7,0.4,13.4-3.6c0,0-3.3,6.9-13.3,5.9L315.1,155.2z"/>
																</g>
															</g>
														</g>
													</g>
												</g>
											</g>
											<g>
												<g>
													<g>
														<g>
															<g>
																<g>
																	<path class="st11" d="M316.6,142.1c0.5-0.7,1.4-1,2.2-0.9c0.6,0.1,1.2,0.4,1.6,0.8c0.4,0.5,0.4,1.2,0.1,1.6
																		c-0.4,0.5-1.2,0.6-1.8,0.5c-0.7-0.2-1.2-0.6-1.8-1.1c-0.1-0.1-0.3-0.2-0.4-0.4
																		C316.5,142.5,316.4,142.3,316.6,142.1"/>
																</g>
															</g>
														</g>
													</g>
												</g>
											</g>
											<g>
												<g>
													<g>
														<g>
															<g>
																<g>
																	<g>
																		<path class="st6" d="M320.1,139.8c-0.2,0-0.2,1.5-1.5,2.6s-2.9,0.9-2.9,1.1c0,0.1,0.4,0.3,1,0.3
																			c0.7,0,1.6-0.2,2.4-0.8c0.8-0.7,1.1-1.5,1.2-2.1C320.4,140.1,320.2,139.7,320.1,139.8z"/>
																	</g>
																</g>
															</g>
														</g>
													</g>
												</g>
											</g>
										</g>
									</g>
								</g>
								<g>
									<g>
										<g>
											<g>
												<g>
													<g>
														<path class="st6" d="M320.5,126.1c0.1,0.4,1.5,0.2,3.1,0.4c1.6,0.2,2.9,0.6,3.2,0.3c0.1-0.2-0.1-0.5-0.7-0.9
															c-0.5-0.4-1.4-0.7-2.3-0.8c-1-0.1-1.9,0-2.5,0.3C320.7,125.6,320.4,125.9,320.5,126.1z"/>
													</g>
												</g>
											</g>
										</g>
									</g>
								</g>
								<g>
									<g>
										<g>
											<g>
												<g>
													<g>
														<path class="st6" d="M308,124.2c0.2,0.3,1.2,0,2.3,0c1.1-0.1,2.1,0.2,2.3-0.1c0.1-0.2-0.1-0.5-0.5-0.8
															s-1.1-0.5-1.9-0.5s-1.5,0.3-1.9,0.6C308,123.8,307.9,124.1,308,124.2z"/>
													</g>
												</g>
											</g>
										</g>
									</g>
								</g>
							</g>
						</g>
					</g>
				</g>
				<path class="st6" d="M341.8,149c-2.8,0.6-5.8-0.3-7.8-2.2s-3.1-4.8-2.8-7.6c0.3-2.5,1.6-5,0.8-7.3c-1.1-3.1-5.4-4-6.6-7.1
					c-0.7-1.8-0.1-3.9-0.8-5.6c-0.7-1.6-2.4-2.6-4.1-3.2s-3.5-1-4.9-2.1s-2.3-3.2-1.4-4.7c7.5,0.9,14.9,2.7,21.9,5.3
					c1.6,0.6,3.4,1.3,4.3,2.8c1,1.5,1,3.5,0.9,5.4c-0.4,9-0.8,18-1.3,27"/>
				<g>
					<path class="st6" d="M347.2,157.4c-0.1,0,0.1-1-0.5-2.5c-0.3-0.8-0.9-1.6-1.7-2.4c-0.8-0.8-1.9-1.6-3.2-2.3
						c-1.3-0.7-2.8-1.4-4.4-2.2c-1.5-0.9-3.1-2.1-4.2-3.9c-0.5-0.9-0.8-1.9-0.8-3s0.2-2.1,0.5-3.2c0.2-1,0.4-2.1,0.2-3.1
						c-0.2-1-0.9-1.9-1.9-2.4c-0.9-0.6-2-0.9-3.1-1.4c-1-0.5-2-1.1-2.6-2.2c-0.6-1-0.7-2.1-0.8-3.2c0-1.1,0-2.1,0-3
						c0-1-0.1-1.9-0.4-2.8c-0.3-0.8-0.8-1.6-1.5-2.1c-1.4-1-3-1.4-4.4-1.7c-1.4-0.4-2.8-0.8-3.8-1.5s-1.6-1.7-1.8-2.5
						c-0.2-0.8-0.1-1.5,0-1.9c0.2-0.4,0.3-0.6,0.3-0.6s-0.1,0.2-0.2,0.6s-0.2,1.1,0.1,1.8c0.2,0.8,0.8,1.7,1.8,2.3
						c1,0.7,2.3,1,3.7,1.4c1.4,0.4,3.1,0.7,4.6,1.8c0.7,0.5,1.4,1.3,1.7,2.2c0.3,0.9,0.4,1.9,0.5,2.9c0,1,0,2,0,3s0.2,2,0.7,2.9
						s1.4,1.5,2.4,2s2.1,0.8,3.1,1.4c0.5,0.3,1,0.7,1.4,1.2s0.6,1,0.7,1.6c0.2,1.2,0,2.3-0.2,3.4c-0.2,1.1-0.5,2.1-0.5,3.1
						s0.3,1.9,0.8,2.8c1,1.7,2.5,2.9,4,3.7c1.5,0.9,3,1.6,4.3,2.3s2.4,1.5,3.3,2.4c0.8,0.9,1.4,1.8,1.7,2.6c0.3,0.8,0.4,1.5,0.4,1.9
						c0,0.2,0,0.4,0,0.5C347.2,157.3,347.2,157.4,347.2,157.4z"/>
				</g>
				<g>
					<path class="st6" d="M318,164.2c0,0-0.2,0.1-0.5,0.1c-0.2,0-0.4,0.1-0.6,0.1s-0.5,0.1-0.9,0.1c-1.3,0-3.2-0.3-5.2-1.6
						c-1-0.7-1.9-1.6-2.6-2.7c-0.7-1.2-1.1-2.6-1.3-4.1c-0.3-1.5-0.5-3.1-1.3-4.4c-0.8-1.4-2.2-2.3-3.5-3.5
						c-1.4-1.2-2.2-2.8-2.5-4.5c-0.2-1.7,0.1-3.4,0.9-4.7s1.7-2.4,2.1-3.7c0.4-1.2,0.5-2.5,0.4-3.6c-0.2-2.2-0.9-4-1.3-5.2
						s-0.7-1.9-0.7-1.9s0.1,0.1,0.2,0.5c0.1,0.3,0.4,0.8,0.6,1.3c0.5,1.2,1.2,2.9,1.4,5.2c0.1,1.1,0.1,2.5-0.4,3.8
						c-0.4,1.3-1.4,2.5-2.1,3.8s-1.1,2.8-0.8,4.4c0.2,1.6,1,3.1,2.3,4.2c1.2,1.1,2.8,2.1,3.6,3.6c0.8,1.5,1.1,3.1,1.3,4.6
						c0.3,1.5,0.6,2.9,1.2,4s1.5,2,2.4,2.7c1.8,1.3,3.7,1.7,4.9,1.7C317.3,164.4,318,164.2,318,164.2z"/>
				</g>
			</g>
			<g>
				<path class="st7" d="M347.1,116.4c0,0,0.1,0.1,0.2,0.4s0,0.8-0.4,1.2c-0.4,0.4-1,0.9-1.8,0.9s-1.7-0.3-2.5-0.8
					c-0.9-0.4-1.8-0.8-2.9-0.9s-2.3,0.1-3.5,0.3c-1.2,0.2-2.6,0.5-4,0.5s-3-0.4-4.1-1.5s-1.8-2.4-2.4-3.7c-0.6-1.3-1.2-2.5-1.9-3.4
					c-1.5-2-4-2.6-5.8-2.1s-2.9,1.7-3.5,2.6s-0.7,1.5-0.7,1.5s0-0.2,0.1-0.4c0.1-0.3,0.2-0.7,0.5-1.2c0.5-0.9,1.6-2.3,3.6-2.8
					c1-0.3,2.1-0.3,3.2,0.1c1.1,0.3,2.2,1.1,3,2.1s1.4,2.3,2,3.5s1.2,2.5,2.3,3.5c1,1,2.4,1.4,3.8,1.4s2.7-0.3,3.9-0.5
					c1.3-0.2,2.5-0.4,3.7-0.3s2.2,0.5,3.1,1c0.8,0.4,1.6,0.8,2.4,0.8c0.7,0,1.3-0.4,1.6-0.7c0.4-0.4,0.5-0.8,0.4-1.1
					C347.2,116.6,347.1,116.4,347.1,116.4z"/>
			</g>
			<g>
				<path class="st6" d="M341.5,113.5c-3.3-0.8-5.8-4-5.7-7.4c0.1-3.4,2.8-6.5,6.1-7.1c1.6-0.3,3.4,0.1,4.4,1.4
					c0.9,1.3,0.9,3.1,2,4.1c1.3,1.1,3.2,0.6,4.8,1c2.5,0.5,4.2,3.3,3.9,5.9c-0.3,2.6-2.2,4.7-4.6,5.7s-5.1,0.9-7.6,0.1
					c-2.5-0.7-4.7-2-6.9-3.4"/>
				<g>
					<path class="st7" d="M353.6,106.3c0.1,0-0.1,0.8-0.7,1.8c-0.6,1.1-1.8,2.4-3.4,3.4s-3.3,1.4-4.5,1.5s-2-0.1-2-0.2
						s0.8,0,1.9-0.2c1.2-0.2,2.8-0.6,4.3-1.6s2.7-2.2,3.3-3.2C353.2,107,353.5,106.3,353.6,106.3z"/>
				</g>
			</g>
			<g>
				<path class="st10" d="M348.3,117.4c-0.1,0.1-1.7-2.4-4.7-4.2c-3.1-1.8-6-1.8-6-2c0-0.1,0.7-0.1,1.9,0c1.2,0.2,2.8,0.6,4.4,1.5
					s2.8,2.1,3.5,3C348,116.7,348.3,117.4,348.3,117.4z"/>
			</g>
		</g>
		<g>
			<path class="st9" d="M275.4,226.3l-16.2-3.1l2.9,4.2l-6.9,3.5l-5.8-2.7c0,0,0.4,1.3,1.7,3.4c1.3,2.1,3,3.8,4.1,3.9
				c1.6,0.1,1.9,0.2,0,0c0,0,0.4,2,2.1,3.9c1.1,1.1,3.9,2.9,7.3,2l10.9-3.9L275.4,226.3z"/>
			<g>
				<path class="st11" d="M259,234.4c0.1,0.1-0.8,0.9-2.2,1.1c-1.4,0.2-2.5-0.4-2.4-0.6c0.1-0.1,1.1,0.2,2.4,0
					C258,234.9,259,234.3,259,234.4z"/>
			</g>
			<g>
				<path class="st11" d="M261.2,237.9c0.1,0.1-0.6,0.9-1.8,1.2c-1.2,0.3-2.2,0-2.1-0.2c0-0.1,0.9-0.1,2-0.3
					C260.3,238.3,261.1,237.8,261.2,237.9z"/>
			</g>
			<g>
				<path class="st11" d="M265.2,225.6c0,0.1-0.6,0.3-1.4,0.8c-0.9,0.5-2,1.3-3.3,2.2s-2.6,1.5-3.6,1.8s-1.7,0.2-1.7,0.2
					c0-0.1,0.6-0.2,1.5-0.5c0.9-0.3,2.1-1,3.4-1.9s2.4-1.7,3.4-2.1C264.6,225.7,265.2,225.6,265.2,225.6z"/>
			</g>
		</g>
		<g>
			<path class="st6" d="M363.6,253.2c0,0,0.6,0.3,1.9,2.8c4.2,7.5,5.9,25.6-10,41.8c-20.6,20.9-44.8,55-44.8,55l-19,80.2l-28.6-6.2
				l14.8-83.3l40.5-75.1L363.6,253.2z"/>
			<polygon class="st6" points="395.2,408.3 351,340.8 337.7,282.5 303.6,299.3 320.7,358.4 375.2,426.4 			"/>
			<g>
				<path class="st7" d="M291.8,433c0,0,0-0.1,0.1-0.4s0.1-0.7,0.2-1.1c0.2-1,0.6-2.5,1-4.4c0.9-3.8,2.2-9.4,3.7-16.2
					c3.2-13.7,7.6-32.5,12.5-53.3c0.4-1.6,0.8-3.2,1.1-4.7v-0.1l0,0c12.5-16,23.9-30.1,32.3-40.2c4.2-5,7.6-9,10.1-11.7
					c1.2-1.4,2.2-2.4,2.8-3.1c0.3-0.3,0.6-0.6,0.7-0.8c0.2-0.2,0.3-0.3,0.3-0.3s-0.1,0.1-0.2,0.3c-0.2,0.2-0.4,0.5-0.7,0.8
					c-0.6,0.7-1.6,1.8-2.7,3.2c-2.4,2.7-5.8,6.8-9.9,11.8c-8.3,10.1-19.6,24.3-32.1,40.3V353c-0.4,1.5-0.7,3.1-1.1,4.7
					c-5,20.8-9.4,39.6-12.7,53.3c-1.6,6.8-3,12.3-3.9,16.1c-0.5,1.9-0.8,3.4-1.1,4.4c-0.1,0.5-0.2,0.9-0.3,1.1
					C291.8,432.8,291.8,433,291.8,433z"/>
			</g>
			<g>
				<path class="st7" d="M343.5,274.5c0,0-0.2,0.2-0.7,0.4c-0.5,0.2-1.2,0.5-2.1,0.7c-1.8,0.4-4.4,0.6-7.1-0.2
					c-2.7-0.8-4.8-2.3-6.1-3.6c-0.6-0.7-1.1-1.2-1.4-1.7c-0.3-0.4-0.4-0.7-0.4-0.7c0.1-0.1,0.7,0.9,2,2.1s3.4,2.6,6,3.4
					s5.1,0.7,6.9,0.3C342.4,274.9,343.5,274.4,343.5,274.5z"/>
			</g>
		</g>
		<g>
			<path class="st10" d="M367.8,256.6c-17.3,9.1-45.3,14.5-54.2,10.8l-0.3-33.2c0,0-12.3-20.2-12.3-27.9
				c-0.1-11,13.7-36.2,13.7-36.2l20.6-5.5c4.8,0,8.8,1.1,11.9,2.8c7.9,4.2,12.3,13.1,11.4,22l-5.2,33.1L367.8,256.6z"/>
			<g class="st17">
				<path d="M345.7,167.4c1.2-0.2,1.6,1.8,0.8,2.6c-0.9,0.9-2.2,0.9-3.4,1.1c-5.4,0.8-9.5,5.4-11.5,10.5s-2.1,10.6-2.5,16
					c-0.3,5.4-0.9,11-3.4,15.8c-4.7-8.4-5.5-19-2-27.9c3.5-9,11.2-16.2,20.4-19.2"/>
			</g>
			<path class="st6" d="M347.2,167.4c0,0-3-4.9-12.9-2.8c-6.6,1.4-21.2,15.4-17.1,37.8s14.9,30.3,14.9,30.3s-10-34.3-4.4-49.3
				C333.1,168.5,347.2,167.4,347.2,167.4z"/>
			<g class="st17">
				<path d="M313.7,241.3c4.1,1.3,8,3,12.3,3.5c4.3,0.6,8.8,0.4,12.7-1.3c5.5-2.3,9.6-7.3,11.7-12.9c2.1-5.6,2.4-11.7,1.8-17.7
					c-3.8,4.6-3.3,11.5-6.5,16.6c-2,3.2-5.2,5.3-8.6,7C329.9,240.1,321.8,241.5,313.7,241.3"/>
			</g>
			<path class="st6" d="M326,207.3c0,0-1.3,25.2,29.5,20.2l3.1,7.3c0,0-32.4,6.8-37-20L326,207.3z"/>
			<g>
				<path class="st10" d="M354.1,176c2.7,3.8,3.4,8.7,2.3,13.3l-7.7,34.3c-3.3,9.7-12.7,15.5-18.5,16.3l-54.7,5.8v-20.4l50.8-7.5
					l2.4-27.8c0.2-3.7,2.1-10.5,4.4-13.4c2.7-3.2,6.8-7.6,13.4-6.5C350.6,170.7,352.3,173.5,354.1,176z"/>
				<g>
					<path class="st6" d="M355.7,190.6c0,0,0,0.3-0.1,0.8s-0.1,1.3-0.3,2.2c-0.3,1.9-0.7,4.7-1.3,8.1c-0.6,3.4-1.4,7.4-2.4,11.9
						c-0.5,2.2-1.1,4.6-1.7,7c-0.7,2.4-1.5,4.9-2.7,7.2c-1.2,2.4-2.8,4.5-4.6,6.2c-1.9,1.7-3.9,3-6,4c-4.2,2-8.3,2.7-11.8,3.1
						c-3.4,0.4-6.2,0.4-8.2,0.4c-0.9,0-1.7,0-2.2,0s-0.8,0-0.8,0s0.3,0,0.8-0.1c0.6,0,1.3-0.1,2.2-0.1c1.9-0.1,4.7-0.2,8.1-0.6
						c3.4-0.4,7.5-1.2,11.6-3.1c2-1,4.1-2.2,5.9-3.9c1.8-1.6,3.3-3.7,4.5-6.1c1.2-2.3,2-4.8,2.7-7.2s1.2-4.7,1.8-6.9
						c1-4.4,1.9-8.5,2.5-11.9s1.1-6.1,1.4-8c0.2-0.9,0.3-1.6,0.4-2.2S355.7,190.6,355.7,190.6z"/>
				</g>
				<g>
					<path class="st6" d="M327.7,223.6c-0.1,0-0.7-1.3-1.2-3s-0.9-3.1-0.7-3.1c0.1,0,0.7,1.3,1.2,3
						C327.5,222.1,327.9,223.5,327.7,223.6z"/>
				</g>
				<g>
					<path class="st6" d="M330.8,222.8c-0.1,0.1-1.4-0.7-2.8-2.2c-1.4-1.4-2.1-2.8-2-2.9c0.1-0.1,1.1,1.2,2.4,2.5
						C329.7,221.7,330.9,222.7,330.8,222.8z"/>
				</g>
				<g>
					<path class="st6" d="M280.2,224.6c0,0,0.1,0,0.2-0.1c0.2,0,0.4-0.1,0.7-0.1c0.6-0.1,1.5-0.3,2.6-0.4c2.3-0.4,5.6-0.9,9.7-1.5
						c8.3-1.3,19.8-3,32.7-4.9l-0.2,0.2c0.2-1.9,0.4-3.9,0.6-5.9c0.7-7.2,1.3-14.1,1.7-20.4c0.3-3.2,0.8-6.1,1.7-8.8
						c0.9-2.7,2-5.1,3.6-6.9c3.2-3.5,6.9-5.4,9.5-5.7c1.3-0.2,2.4-0.1,3.1,0.1c0.3,0.1,0.6,0.2,0.8,0.2c0.2,0,0.3,0.1,0.3,0.1
						c0,0.1-1.4-0.5-4.1-0.1c-2.6,0.4-6.1,2.3-9.3,5.8c-1.5,1.8-2.6,4.2-3.4,6.8s-1.4,5.6-1.6,8.7c-0.3,6.3-1,13.2-1.6,20.4
						c-0.2,2-0.4,4-0.6,5.9v0.2h-0.2c-12.9,1.9-24.4,3.6-32.7,4.8c-4.1,0.6-7.4,1-9.8,1.4c-1.1,0.1-2,0.3-2.6,0.3
						c-0.3,0-0.5,0.1-0.7,0.1C280.3,224.6,280.2,224.6,280.2,224.6z"/>
				</g>
			</g>
			<g>
				<path class="st18" d="M311.5,241.2c-0.1,0-0.7-4.6-1.3-10.3c-0.6-5.7-0.9-10.4-0.8-10.4s0.7,4.6,1.3,10.3
					S311.7,241.2,311.5,241.2z"/>
			</g>
			<g>
				<path class="st18" d="M351.6,210.2c0,0.1-1.3,0.1-3.5,0.1c-2.1,0-5.1-0.1-8.4-0.2c-3.3-0.1-6.2-0.3-8.4-0.4
					c-2.1-0.1-3.5-0.2-3.5-0.3s1.3-0.1,3.5-0.1c2.1,0,5.1,0.1,8.4,0.2c3.3,0.1,6.2,0.3,8.4,0.4S351.6,210.1,351.6,210.2z"/>
			</g>
			<g>
				<path class="st18" d="M316.9,203.7c0,0.1-0.9,0.2-2.3,0.3s-3.4,0.2-5.5,0.1c-2.2,0-4.1-0.2-5.5-0.3c-1.4-0.2-2.3-0.3-2.3-0.4
					c0-0.1,0.9,0,2.3,0c1.4,0.1,3.3,0.1,5.5,0.2c2.1,0,4.1,0,5.5,0S316.9,203.6,316.9,203.7z"/>
			</g>
			<g>
				<path class="st18" d="M321.4,179.9c-0.1,0.1-2.2-1-4.9-2c-2.7-1-5-1.6-5-1.8c0-0.1,2.4,0.2,5.2,1.3
					C319.4,178.5,321.5,179.8,321.4,179.9z"/>
			</g>
			<g>
				<path class="st18" d="M361.1,242.3c0,0-0.1,0.1-0.4,0.2c-0.4,0.1-0.8,0.3-1.3,0.5c-1.1,0.5-2.8,1.1-4.9,1.8
					c-4.2,1.5-10,3.3-16.6,4.8s-12.6,2.4-17,2.9c-2.2,0.3-4,0.4-5.2,0.5c-0.6,0-1,0.1-1.4,0.1c-0.3,0-0.5,0-0.5,0s0.2-0.1,0.5-0.1
					c0.4,0,0.8-0.1,1.4-0.2c1.2-0.1,3-0.4,5.2-0.7c4.4-0.6,10.4-1.6,17-3.1s12.4-3.2,16.6-4.6c2.1-0.7,3.8-1.3,5-1.7
					c0.5-0.2,1-0.3,1.4-0.5C360.9,242.4,361.1,242.3,361.1,242.3z"/>
			</g>
			<g>
				<path class="st18" d="M357.8,182.5c0,0.1-5.9,0.1-13.2-0.2c-7.3-0.2-13.2-0.5-13.2-0.7c0-0.1,5.9-0.1,13.2,0.2
					C352,182.1,357.8,182.4,357.8,182.5z"/>
			</g>
			<g>
				<path class="st18" d="M287.4,244.2c-0.1,0-0.4-4.5-0.6-10s-0.3-10-0.1-10c0.1,0,0.4,4.5,0.6,10S287.5,244.2,287.4,244.2z"/>
			</g>
		</g>
	</g>
	<g>
		<g>
			<g>
				<g>
					<path class="st7" d="M175.5,141.9c8.8-1.7,18.2-0.7,26.5,2.8c3.7,1.5,7.4,3.7,9.4,7.2c2.4,4.1,2,9.2,1.7,14
						c-0.5,9.7-0.2,19.4,1,29c1,8,2.6,16,2.5,24c0,8.1-1.8,16.4-6.9,22.7c-7.8,9.7-21.7,12.4-34,10.7c-6.5-0.9-13-2.8-18.2-6.7
						c-5.3-3.9-9.3-9.8-9.7-16.3"/>
				</g>
			</g>
			<g>
				<g>
					<path class="st6" d="M190.9,154.1c-0.1,0.1,1.5,1.5,2.9,4.5c0.7,1.5,1.4,3.4,2,5.5s1.3,4.5,2.3,6.8c1.1,2.4,2.5,4.4,4.3,5.8
						c1.8,1.4,3.9,2,5.6,2c1.7,0,3.1-0.6,3.8-1.1c0.4-0.3,0.7-0.5,0.8-0.7c0.2-0.2,0.2-0.3,0.2-0.3s-0.4,0.3-1.2,0.8
						s-2.1,0.9-3.7,0.9c-1.6,0-3.5-0.6-5.2-2c-1.7-1.3-3.1-3.4-4.1-5.6c-1-2.3-1.7-4.6-2.3-6.7c-0.7-2.1-1.4-4-2.1-5.5
						c-0.8-1.5-1.6-2.6-2.2-3.3C191.4,154.4,190.9,154.1,190.9,154.1z"/>
				</g>
			</g>
			<g>
				<g>
					<path class="st6" d="M194.5,251.7c0,0,0.1-0.3,0.2-0.8c0.1-0.6,0.2-1.3,0.3-2.3c0.3-2,0.6-4.8,1-8.4c0.8-7.1,1.7-16.9,2.4-27.7
						c0.8-10.8,1.3-20.7,1.5-27.8c0.1-3.6,0.2-6.4,0.2-8.4c0-0.9,0-1.7,0-2.3c0-0.5,0-0.8,0-0.8s-0.1,0.3-0.1,0.8
						c0,0.6-0.1,1.4-0.1,2.3c-0.1,2.1-0.3,4.9-0.5,8.4c-0.4,7.1-0.9,16.9-1.7,27.8c-0.8,10.8-1.6,20.6-2.2,27.7
						c-0.3,3.5-0.6,6.3-0.7,8.4c-0.1,0.9-0.1,1.7-0.2,2.3C194.4,251.4,194.4,251.7,194.5,251.7z"/>
				</g>
			</g>
			<g>
				<g>
					<path class="st6" d="M198.4,208.2c0,0.2,3.9,0.7,8.7,0.8s8.7-0.2,8.7-0.4s-3.9-0.2-8.7-0.3C202.3,208.3,198.4,208,198.4,208.2z
						"/>
				</g>
			</g>
			<g>
				<g>
					<path class="st6" d="M201.5,208.6c-0.1,0-0.4,0.6-0.8,1.8c-0.2,0.6-0.4,1.3-0.5,2c-0.1,0.4-0.1,0.9,0,1.4s0.6,1,1.2,1.1
						c0.3,0.1,0.7,0,0.9-0.3c0.2-0.2,0.4-0.5,0.4-0.7c0.1-0.5,0-0.9,0-1.3c-0.1-0.8-0.2-1.5-0.4-2.1
						C202,209.3,201.6,208.7,201.5,208.6c-0.1,0.1,0.1,0.8,0.3,2c0.1,0.6,0.2,1.3,0.2,2c0,0.4,0.1,0.8,0,1.1s-0.3,0.5-0.6,0.5
						c-0.7-0.1-0.8-1-0.7-1.7c0.1-0.8,0.2-1.4,0.4-2C201.4,209.4,201.6,208.6,201.5,208.6z"/>
				</g>
			</g>
		</g>
		<g>
			<g>
				<path class="st6" d="M166.4,144.3l41.8,1.4c5.3,0.2,9.7-4,9.9-9.3l0.3-8.1c0.2-5.3-4-9.7-9.3-9.9l-41.8-1.4
					c-5.3-0.2-9.7,4-9.9,9.3l-0.3,8.1C156.9,139.7,161.1,144.1,166.4,144.3z"/>
			</g>
			<g>
				<g>
					<path class="st7" d="M208.1,118.9c0,0-0.1-0.1-0.4-0.2c-0.3-0.1-0.6-0.3-1.2-0.4c-1-0.2-2.7-0.1-4.4,0.8
						c-1.6,0.9-3.6,2.2-4.9,4.4c-1.4,2.1-2.1,4.9-2.3,7.8c-0.3,2.9,0.4,5.7,1.6,7.9c1.2,2.2,3,3.8,4.7,4.6c1.7,0.9,3.3,1.1,4.3,1.1
						c0.5,0,0.9,0,1.2-0.1c0.3,0,0.4-0.1,0.4-0.1c0-0.1-0.6,0-1.6-0.1s-2.5-0.4-4.1-1.3c-1.6-0.9-3.3-2.4-4.4-4.5
						c-1.1-2.1-1.7-4.8-1.5-7.6s0.9-5.4,2.2-7.5c1.2-2.1,3.1-3.4,4.7-4.3c1.6-0.9,3.1-1.1,4.1-1C207.6,118.7,208.1,119,208.1,118.9z
						"/>
				</g>
			</g>
			<g>
				<path class="st7" d="M184.6,117.5l6.4,0.3c-1.7,0.2-3.3,1.2-4.5,2.5s-1.9,2.9-2.5,4.6c-2.2,7,0.5,15.4,6,20.2l-5.1-0.1
					C184.9,145,172.3,129.9,184.6,117.5"/>
			</g>
		</g>
	</g>
	<g>
		<g>
			<path class="st6" d="M153.5,105.5c-2.6-6.3-2.7-17.2,1.2-23c4-5.7,11.4-9.5,18.2-11c1.1-0.2,2.4-0.4,3.4,0
				c1.1,0.5,1.9,1.7,1.4,2.8c1.4-0.9,2.8-1.7,4.4-2.1s3.4-0.1,4.5,1c1.2,1.1,1.3,3.3,0.1,4.3c1.9-0.7,4.2-0.2,5.6,1.3
				c1.4,1.5,1.8,3.8,1,5.7c-0.8,1.8-2.4,3.8-3.8,5.1c-1.4,1.3-1.7,2.7-1.4,4.6"/>
		</g>
		<g>
			<g>
				<g>
					<g>
						<g>
							<g>
								<g>
									<g>
										<g>
											<g>
												<g>
													<g>
														<g>
															<g>
																<g>
																	<g>
																		<path class="st9" d="M155.1,94l-1.8,38.5c-0.3,6.5,4.9,12,11.5,12l0,0c6.1,0,11.1-4.8,11.4-10.9
																			c0.1-2.9,0.3-5.3,0.3-5.6c0,0,9.8-0.5,11-10.1c0.6-4.7,0.9-14.4,1.2-23.2c0.3-9.4-6.8-17.5-16.2-18.5l-0.9-0.1
																			C161.4,75.5,155.3,83.8,155.1,94z"/>
																	</g>
																</g>
															</g>
														</g>
													</g>
												</g>
											</g>
										</g>
									</g>
									<g>
										<g>
											<g>
												<g>
													<g>
														<g>
															<g>
																<g>
																	<g>
																		<path class="st11" d="M176.5,127.7c0,0-6.2-0.2-12.2-4.9c0,0,1.9,6.1,11.7,6.2L176.5,127.7z"/>
																	</g>
																</g>
															</g>
														</g>
													</g>
												</g>
											</g>
										</g>
									</g>
								</g>
							</g>
						</g>
						<g>
							<g>
								<g>
									<g>
										<g>
											<g>
												<g>
													<g>
														<g>
															<g>
																<g>
																	<g>
																		<g>
																			<g>
																				<g>
																					<path class="st6" d="M185.1,100.8c-0.1,0.7-0.7,1.3-1.5,1.3s-1.3-0.7-1.3-1.4c0.1-0.7,0.7-1.3,1.5-1.3
																						S185.2,100,185.1,100.8z"/>
																				</g>
																			</g>
																		</g>
																	</g>
																</g>
															</g>
														</g>
													</g>
												</g>
												<g>
													<g>
														<g>
															<g>
																<g>
																	<g>
																		<g>
																			<g>
																				<g>
																					<g>
																						<path class="st6" d="M186.1,99.1c-0.2,0.2-1.2-0.7-2.6-0.9c-1.5-0.2-2.7,0.5-2.8,0.3
																							c-0.1-0.1,0.1-0.4,0.7-0.7c0.5-0.3,1.3-0.5,2.3-0.4c0.9,0.1,1.7,0.5,2.1,0.9C186,98.7,186.2,99,186.1,99.1z"
																							/>
																					</g>
																				</g>
																			</g>
																		</g>
																	</g>
																</g>
															</g>
														</g>
													</g>
												</g>
											</g>
											<g>
												<g>
													<g>
														<g>
															<g>
																<g>
																	<g>
																		<g>
																			<g>
																				<g>
																					<path class="st6" d="M170.5,99.7c-0.1,0.7-0.7,1.3-1.5,1.3s-1.3-0.7-1.3-1.4c0.1-0.7,0.7-1.3,1.5-1.3
																						C170,98.3,170.6,99,170.5,99.7z"/>
																				</g>
																			</g>
																		</g>
																	</g>
																</g>
															</g>
														</g>
													</g>
												</g>
												<g>
													<g>
														<g>
															<g>
																<g>
																	<g>
																		<g>
																			<g>
																				<g>
																					<g>
																						<path class="st6" d="M171.4,97.8c-0.2,0.2-1.2-0.7-2.6-0.9c-1.5-0.2-2.7,0.5-2.8,0.3
																							c-0.1-0.1,0.1-0.4,0.7-0.7c0.5-0.3,1.3-0.5,2.3-0.4c0.9,0.1,1.7,0.5,2.1,0.9
																							C171.4,97.4,171.5,97.7,171.4,97.8z"/>
																					</g>
																				</g>
																			</g>
																		</g>
																	</g>
																</g>
															</g>
														</g>
													</g>
												</g>
											</g>
											<g>
												<g>
													<g>
														<g>
															<g>
																<g>
																	<g>
																		<g>
																			<g>
																				<g>
																					<path class="st6" d="M175.6,109.4c0-0.1,0.9-0.1,2.5-0.2c0.4,0,0.8,0,0.8-0.3c0.1-0.3,0-0.7-0.1-1.2
																						c-0.3-1-0.5-2-0.8-3c-1.1-4.3-1.9-7.8-1.7-7.8s1.2,3.4,2.3,7.7c0.3,1.1,0.5,2.1,0.8,3c0.1,0.4,0.3,1,0,1.5
																						c-0.1,0.3-0.4,0.4-0.7,0.5c-0.3,0-0.5,0-0.7,0C176.6,109.6,175.6,109.5,175.6,109.4z"/>
																				</g>
																			</g>
																		</g>
																	</g>
																</g>
															</g>
														</g>
													</g>
												</g>
											</g>
											<g>
												<g>
													<g>
														<g>
															<g>
																<g>
																	<g>
																		<g>
																			<g>
																				<g>
																					<path class="st6" d="M171.1,110c0.2,0,0.1,1.6,1.3,2.9c1.3,1.3,3,1.3,3,1.5c0,0.1-0.4,0.3-1.1,0.2
																						c-0.7-0.1-1.7-0.4-2.5-1.2c-0.8-0.8-1-1.8-1-2.4C170.8,110.3,171,110,171.1,110z"/>
																				</g>
																			</g>
																		</g>
																	</g>
																</g>
															</g>
														</g>
													</g>
												</g>
											</g>
										</g>
									</g>
								</g>
								<g>
									<g>
										<g>
											<g>
												<g>
													<g>
														<g>
															<g>
																<g>
																	<path class="st6" d="M172.4,92c-0.2,0.4-1.7,0-3.4,0.1c-1.8,0-3.2,0.3-3.4,0c-0.1-0.2,0.2-0.5,0.8-0.9
																		c0.6-0.3,1.5-0.6,2.6-0.6s2,0.3,2.6,0.6C172.2,91.5,172.5,91.8,172.4,92z"/>
																</g>
															</g>
														</g>
													</g>
												</g>
											</g>
										</g>
									</g>
								</g>
								<g>
									<g>
										<g>
											<g>
												<g>
													<g>
														<g>
															<g>
																<g>
																	<path class="st6" d="M186,94.8c-0.3,0.3-1.3-0.2-2.5-0.3c-1.2-0.2-2.3,0-2.5-0.4c-0.1-0.2,0.1-0.5,0.6-0.8
																		s1.3-0.4,2.1-0.3s1.5,0.5,1.9,0.9C186,94.2,186.1,94.6,186,94.8z"/>
																</g>
															</g>
														</g>
													</g>
												</g>
											</g>
										</g>
									</g>
								</g>
							</g>
						</g>
					</g>
				</g>
			</g>
			<g>
				<g>
					<g>
						<g>
							<g>
								<g>
									<g>
										<g>
											<g>
												<g>
													<path class="st9" d="M155.1,101.2c-0.2-0.1-6.4-2.7-6.9,4c-0.5,6.6,6.3,5.8,6.3,5.6
														C154.5,110.6,155.1,101.2,155.1,101.2z"/>
												</g>
											</g>
										</g>
									</g>
								</g>
							</g>
						</g>
					</g>
				</g>
				<g>
					<g>
						<g>
							<g>
								<g>
									<g>
										<g>
											<g>
												<g>
													<g>
														<path class="st11" d="M152.7,108.1c0,0-0.1,0.1-0.3,0.1c-0.2,0.1-0.5,0.1-0.9,0c-0.7-0.3-1.2-1.5-1.1-2.7
															c0-0.6,0.2-1.2,0.4-1.6c0.2-0.5,0.6-0.8,0.9-0.8c0.4-0.1,0.6,0.2,0.7,0.4c0.1,0.2,0,0.3,0.1,0.3c0,0,0.2-0.1,0.1-0.4
															c0-0.1-0.1-0.3-0.2-0.4c-0.1-0.1-0.4-0.2-0.6-0.2c-0.5,0-1,0.4-1.3,0.9s-0.5,1.1-0.5,1.8c-0.1,1.3,0.5,2.6,1.5,3
															c0.5,0.2,0.9,0,1.1-0.1C152.6,108.2,152.7,108.1,152.7,108.1z"/>
													</g>
												</g>
											</g>
										</g>
									</g>
								</g>
							</g>
						</g>
					</g>
				</g>
			</g>
			<g>
				<g>
					<path class="st6" d="M193.8,82.4c0.1,8.7-10.8,11.4-15,6.3c-2-2.4-3.6-5.3-6.5-6.5c-1.9-0.8-4.2-0.6-6.1,0.2c0,0,0,0-0.1,0
						c-2.8,1.2-4.7,4.3-5.4,7.3c-0.9,4.2-0.5,8-1.9,11.8c-0.2,0.5-0.4,1.1-0.9,1.4c-0.8,0.5-2-0.1-2.6-0.9c-1-1.3-1.2-2.9-1.3-4.5
						c-0.3-3.6,0.1-7.3,1.2-10.7c1.2-3.4,3.2-6.6,6.1-8.8c3.6-2.8,8.3-3.9,12.8-3.3s8.7,2.7,12,5.8c1.5,1.4,2.9,3.1,3.6,5.1"/>
				</g>
			</g>
		</g>
		<g>
			<g>
				<path class="st7" d="M187.2,77.1c0,0,0.3-0.1,0.9,0.1c0.6,0.2,1.4,0.6,2.1,1.4c0.7,0.8,1.3,2,1.4,3.5c0.1,1.5-0.5,3-1.6,4.3
					s-2.5,2.1-3.8,2.5s-2.6,0.5-3.7,0.5c-1.1,0-1.9-0.1-2.5-0.3c-0.6-0.1-0.9-0.2-0.9-0.3c0-0.1,1.3,0.2,3.4,0.2
					c1,0,2.3-0.2,3.5-0.6c1.3-0.4,2.6-1.2,3.6-2.4c1-1.2,1.6-2.6,1.5-3.9c0-1.3-0.6-2.5-1.2-3.2c-0.6-0.8-1.4-1.2-1.9-1.4
					C187.5,77.2,187.2,77.2,187.2,77.1z"/>
			</g>
		</g>
		<g>
			<g>
				<path class="st7" d="M183,73.7c0,0,0.2-0.1,0.6,0.2c0.4,0.2,0.8,0.7,0.9,1.5c0.1,0.8-0.2,1.7-0.7,2.5s-1.2,1.7-2,2.4
					c-1.7,1.5-3.6,2.3-5,2.6c-1.4,0.3-2.3,0.3-2.3,0.2c0-0.1,0.9-0.1,2.2-0.6c1.3-0.4,3.1-1.2,4.7-2.7c0.8-0.7,1.4-1.5,2-2.3
					c0.5-0.8,0.8-1.5,0.7-2.2s-0.4-1.1-0.7-1.4C183.2,73.8,183,73.8,183,73.7z"/>
			</g>
		</g>
	</g>
	<g>
		<path class="st9" d="M154.9,168.2l3.1-22.7l-44.7,9l-40.7-14.1l-11,11.3l43.3,22.3c3.9,1.8,8.2,2.4,12.4,1.6L154.9,168.2z"/>
		<path class="st9" d="M72.6,140.4c0,0-15.6-7.4-16.5-7.7c-0.8-0.2-12.5-0.8-17.9-1.1c-2.1-0.1-2.4,3-0.3,3.3c0.1,0,0.1,0,0.2,0
			c3,0.2,9.6,1.7,9.6,1.7l-3,7c-0.3,0.7-0.1,1.5,0.5,2l9,6.7c2.4,1.1,5.2,0.8,7.4-0.7l0,0l4,0.8L72.6,140.4z"/>
		<g>
			<path class="st9" d="M44.6,144.1c0.3,1.3,3.4,4,5.8,4c0.5,0,1.1-0.2,1.4-0.5c0.4-0.4,0.5-0.9,0.3-1.4c-0.1-0.3-0.4-0.5-0.7-0.7
				c-1.8-1.4-3.5-2.7-5.3-4.1"/>
			<g>
				<path class="st11" d="M46.1,141.3c0-0.1,0.9,0.5,2.2,1.5c0.7,0.5,1.5,1.1,2.3,1.7c0.4,0.3,0.9,0.6,1.4,1.1
					c0.2,0.2,0.4,0.6,0.4,1s-0.1,0.7-0.3,1c-0.5,0.6-1.2,0.8-1.8,0.7c-0.6,0-1.2-0.2-1.7-0.4c-1-0.4-1.9-1-2.5-1.6s-1-1.1-1.3-1.5
					c-0.2-0.4-0.2-0.7-0.2-0.7s0.1,0.2,0.4,0.6c0.3,0.4,0.7,0.8,1.3,1.3s1.4,1,2.4,1.4c0.5,0.2,1,0.3,1.6,0.3c0.5,0,1.1-0.2,1.4-0.6
					c0.3-0.4,0.3-1-0.1-1.3c-0.4-0.4-0.9-0.7-1.3-1.1c-0.8-0.7-1.6-1.3-2.2-1.8C46.9,142,46.1,141.3,46.1,141.3z"/>
			</g>
		</g>
		<g>
			<path class="st11" d="M57.2,148.1c0,0-0.3-0.2-0.7-0.7c-0.3-0.5-0.6-1.3-0.7-2.2c0-0.9,0.2-1.7,0.5-2.3c0.3-0.5,0.6-0.8,0.6-0.7
				c0.1,0.1-0.7,1.3-0.6,3C56.4,146.9,57.3,148,57.2,148.1z"/>
		</g>
		<g>
			<path class="st9" d="M50.9,144.5c0.5,0.7,1.4,1.1,2.3,0.9c0.8-0.2,1.5-1.1,1.5-2c0-1.1-0.9-2-1.8-2.8c-1.3-1.2-2.6-2.3-3.9-3.5"
				/>
			<g>
				<path class="st11" d="M49,137.1c0-0.1,0.7,0.4,1.6,1.2c0.5,0.5,1.1,0.9,1.7,1.4c0.6,0.6,1.3,1.1,2,1.9c0.3,0.4,0.5,0.9,0.6,1.4
					s0,1-0.3,1.4c-0.4,0.8-1.3,1.2-2,1.2s-1.2-0.4-1.4-0.6c-0.3-0.3-0.3-0.5-0.3-0.5s0.2,0.1,0.4,0.3c0.3,0.2,0.7,0.4,1.3,0.4
					s1.2-0.4,1.6-1c0.4-0.7,0.2-1.5-0.3-2.3c-0.5-0.7-1.3-1.3-1.9-1.9c-0.6-0.5-1.1-1-1.6-1.5C49.5,137.7,49,137.2,49,137.1z"/>
			</g>
		</g>
		<g>
			<path class="st9" d="M57.6,136.5c-3.1,0.7-6.1,2-8.9,3.7c-0.2,0.1-0.3,0.2-0.4,0.4c-0.1,0.3,0.1,0.5,0.3,0.7
				c0.8,0.6,1.9,0.8,2.9,0.7s2-0.3,3.1-0.3c1.8,0,3.4,0.9,5.1,1.4c1.7,0.5,3.8,0.5,5-0.9"/>
			<g>
				<path class="st11" d="M64.8,142.2c0,0,0,0.1-0.2,0.2c-0.1,0.1-0.3,0.3-0.6,0.5c-0.6,0.4-1.7,0.7-3,0.5c-1.3-0.1-2.7-0.7-4.3-1.2
					c-0.8-0.2-1.6-0.4-2.5-0.3c-0.9,0-1.8,0.3-2.8,0.3c-1,0.1-2-0.1-2.8-0.7c-0.2-0.1-0.4-0.3-0.5-0.7c0-0.2,0-0.4,0.1-0.5
					s0.2-0.2,0.3-0.3c0.4-0.2,0.7-0.5,1.1-0.7c1.5-0.8,2.9-1.4,4-1.9c1.2-0.4,2.2-0.7,2.9-0.9s1.1-0.2,1.1-0.2
					c0,0.1-1.5,0.4-3.8,1.4c-1.2,0.5-2.5,1.1-3.9,1.9c-0.4,0.2-0.7,0.4-1.1,0.7c-0.2,0.1-0.2,0.2-0.2,0.3s0.2,0.3,0.3,0.4
					c0.7,0.5,1.6,0.6,2.5,0.6c0.9-0.1,1.9-0.3,2.8-0.3c0.9,0,1.8,0.1,2.7,0.4c1.6,0.5,3,1.1,4.2,1.3s2.2,0,2.8-0.3
					C64.5,142.4,64.8,142.1,64.8,142.2z"/>
			</g>
		</g>
		<g>
			<path class="st11" d="M114,162.3c-0.1,0-0.7-1.7-0.7-4c-0.1-2.3,0.4-4.1,0.5-4c0.2,0,0,1.8,0,4S114.1,162.3,114,162.3z"/>
		</g>
	</g>
	<g>
		<path class="st10" d="M153.1,134.9l-12.7,14.3c0,0-6.8,49.4-7.3,53.2c-0.5,3.9-1.8,16.3-1.8,19.7s-2.8,27.6-2.8,27.6
			s53.8,11.2,62.8,0l-2.8-20.7l2.4-51.5c0,0,4-35.7-14.8-44C176.2,133.5,164.3,140.7,153.1,134.9z"/>
		<path class="st6" d="M184.8,138.6c0,0-3.7-3.7-15.6-0.6c-12.5,3.2-19.1,14.9-16,48c2.6,27.3,13.4,31.2,13.4,31.2
			s-5.9-41.2-4.9-58.4c1.3-21.8,23.1-16.3,23.1-16.3C187.9,141.5,184.8,138.6,184.8,138.6z"/>
		<polygon class="st10" points="153.1,134.9 142.1,138 117.5,153.1 124.5,175.4 139,173.8 		"/>
		<g>
			<path class="st6" d="M138.8,150.4c0.1,0-0.5,8-1.4,17.8s-1.8,17.8-1.9,17.8c-0.1,0,0.5-8,1.4-17.8S138.7,150.4,138.8,150.4z"/>
		</g>
		<path class="st6" d="M189,219.7c0,0-3.5,11.3-15.9-7.3s-10.6-10.3-10.6-10.3l-2.5,3c0,0,13.6,30.7,28.9,25.9L189,219.7z"/>
		<polygon class="st15" points="138.3,155.8 128.6,174.9 136.6,174 		"/>
		<g class="st17">
			<path d="M133.8,206.6c7.2,7.8,15.7,14.3,25,19.2c3.9,2.1,8.3,3.9,12.7,3.3c4.8-0.6,9-4.1,11.3-8.4c2.3-4.3,2-6.4,2.5-11.2
				c0.6-5.3,0.6-12.5,0.9-17.3c0-0.9,0.1-1.9,0.1-2.8c0-2.1,1.4-4,3.4-4.6l0,0c0,0-2.9-1.4-4.9-1.1c-2,0.3-3.5,1.9-4.5,3.6
				c-5.5,9-3.1,22.3-13.6,27.9c-3.4,1.8-7.4,2.3-11.2,1.6c-8.6-1.4-15.1-7-21.4-12.5"/>
		</g>
		<ellipse class="st18" cx="145.7" cy="173.6" rx="4.7" ry="14.3"/>
	</g>
	<g>
		<g>
			<path class="st10" d="M148.2,421.9l1.1,23.5c0,0-23.5,9-23.8,13.4l45.7-0.5l-0.2-36.7L148.2,421.9z"/>
			<g class="st12">
				<path class="st13" d="M163.4,443.3c0.9,0.2,1.5,1.2,1.3,2.1s-1.2,1.5-2.1,1.3c-0.9-0.2-1.7-1.4-1.4-2.2c0.3-0.9,1.5-1.6,2.3-1.1
					"/>
			</g>
			<path class="st14" d="M171.2,458.3v-3.7l-43.9,1.8c0,0-2,0.9-1.8,2.3L171.2,458.3z"/>
			<g>
				<path class="st6" d="M148.6,445.2c0,0.2,1.1,0.3,2.2,1c1.1,0.7,1.7,1.6,1.9,1.5c0.2,0-0.1-1.4-1.5-2.2
					C149.9,444.7,148.5,445,148.6,445.2z"/>
			</g>
			<g>
				<path class="st6" d="M143.8,447.2c0,0.2,0.9,0.6,1.7,1.5s1,1.9,1.2,1.9s0.4-1.3-0.6-2.4C145.1,447.1,143.8,447,143.8,447.2z"/>
			</g>
			<g>
				<path class="st6" d="M141.1,453c0.2,0,0.5-1.1-0.1-2.3c-0.6-1.2-1.6-1.7-1.7-1.5c-0.1,0.2,0.6,0.8,1,1.8
					C140.8,452,140.9,453,141.1,453z"/>
			</g>
			<g>
				<path class="st6" d="M148.9,439.8c0.1,0.2,1.1-0.1,2.4,0c1.3,0,2.2,0.5,2.4,0.3c0.1-0.2-0.8-1-2.3-1
					C149.8,438.9,148.8,439.7,148.9,439.8z"/>
			</g>
		</g>
		<polygon class="st15" points="148.4,426.6 148.6,430.8 171.1,430.3 171.1,426.6 		"/>
		<g>
			<path class="st6" d="M148.8,435.1c0,0.1,0.9,0.2,2.3,0c0.7-0.1,1.5-0.4,2.4-0.8c0.4-0.2,0.9-0.4,1.3-0.7c0.2-0.1,0.5-0.3,0.7-0.5
				s0.4-0.8,0.1-1.2c-0.2-0.3-0.7-0.5-1-0.5s-0.6,0.1-0.9,0.1c-0.5,0.1-1,0.3-1.4,0.5c-0.9,0.4-1.6,0.9-2.1,1.4
				c-1,1-1.4,1.8-1.3,1.9c0.1,0.1,0.6-0.6,1.7-1.5c0.5-0.4,1.2-0.8,2-1.2c0.4-0.2,0.8-0.3,1.3-0.4s0.9-0.1,1,0.1
				c0,0.1,0.1,0.1,0,0.3c-0.1,0.1-0.3,0.3-0.5,0.4c-0.4,0.3-0.8,0.5-1.2,0.7c-0.8,0.4-1.6,0.7-2.2,0.9
				C149.6,434.9,148.8,435,148.8,435.1z"/>
		</g>
		<g>
			<path class="st6" d="M149.1,435.4c0.1,0,0.5-0.8,0.6-2.2c0-0.7-0.1-1.6-0.3-2.5c-0.1-0.5-0.3-0.9-0.6-1.4c-0.3-0.4-0.6-1-1.5-1.1
				c-0.5,0-0.8,0.3-0.9,0.6c-0.1,0.3-0.2,0.6-0.2,0.8c-0.1,0.5-0.1,1.1,0,1.5c0.2,1,0.6,1.8,1,2.4c0.9,1.2,1.8,1.4,1.9,1.4
				c0.1-0.1-0.7-0.5-1.4-1.7c-0.3-0.6-0.6-1.3-0.7-2.1c0-0.4,0-0.9,0-1.3c0.1-0.5,0.2-0.9,0.4-0.8c0.2,0,0.6,0.4,0.8,0.7
				c0.2,0.4,0.4,0.8,0.6,1.2c0.3,0.8,0.4,1.6,0.5,2.3C149.2,434.5,148.9,435.4,149.1,435.4z"/>
		</g>
	</g>
	<g>
		<g>
			<path class="st10" d="M192.5,407.7l18.5,14.6c0,0-8.6,23.7-5.5,26.7l29.6-34.8l-27.8-23.9L192.5,407.7z"/>
			<g class="st12">
				<path class="st13" d="M218.6,410.2c0.8-0.5,1.9-0.3,2.5,0.4c0.5,0.7,0.4,1.9-0.4,2.4c-0.7,0.5-2.1,0.4-2.6-0.4s-0.2-2.2,0.7-2.5
					"/>
			</g>
			<path class="st14" d="M235,414.2l-2.8-2.4l-27.4,34.3c0,0-0.6,2.1,0.6,2.9L235,414.2z"/>
			<g>
				<path class="st6" d="M210.3,422.7c0.2,0.1,1-0.6,2.2-1s2.3-0.2,2.4-0.4c0.1-0.2-1.1-0.8-2.6-0.3
					C210.7,421.4,210.1,422.6,210.3,422.7z"/>
			</g>
			<g>
				<path class="st6" d="M208.7,427.6c0.1,0.2,1-0.3,2.3-0.3c1.2,0,2.1,0.5,2.2,0.3c0.2-0.1-0.7-1.1-2.2-1.1
					C209.4,426.5,208.5,427.5,208.7,427.6z"/>
			</g>
			<g>
				<path class="st6" d="M211.3,433.4c0.2-0.1-0.5-1.1-1.8-1.4c-1.3-0.4-2.3,0.1-2.3,0.3c0.1,0.2,1,0.1,2.1,0.4
					C210.4,433,211.1,433.5,211.3,433.4z"/>
			</g>
			<g>
				<path class="st6" d="M206.4,418.9c0.2,0.1,0.6-0.9,1.5-1.8s1.8-1.4,1.8-1.6s-1.3,0-2.3,1.1C206.4,417.6,206.2,418.8,206.4,418.9
					z"/>
			</g>
		</g>
		<polygon class="st15" points="196.1,410.5 199.4,413.1 213.8,395.9 210.9,393.4 		"/>
		<g>
			<path class="st6" d="M202.8,415.9c0.1,0.1,0.7-0.5,1.5-1.7c0.4-0.6,0.7-1.4,1-2.3c0.1-0.5,0.2-0.9,0.3-1.5c0-0.2,0.1-0.5,0-0.9
				c0-0.3-0.4-0.8-0.8-0.8c-0.4,0-0.8,0.2-1,0.4c-0.2,0.2-0.4,0.5-0.5,0.7c-0.2,0.5-0.4,0.9-0.5,1.4c-0.3,0.9-0.3,1.8-0.3,2.5
				c0.1,1.4,0.5,2.3,0.5,2.2c0.1,0-0.1-0.9,0-2.2c0-0.7,0.2-1.5,0.4-2.3c0.1-0.4,0.3-0.8,0.5-1.3s0.5-0.8,0.7-0.7
				c0.1,0,0.1,0,0.2,0.2c0,0.2,0,0.4,0,0.6c-0.1,0.5-0.1,0.9-0.3,1.4c-0.2,0.9-0.5,1.6-0.8,2.2C203.2,415.1,202.7,415.8,202.8,415.9
				z"/>
		</g>
		<g>
			<path class="st6" d="M203.2,415.8c0.1,0-0.2-0.9-1.3-1.9c-0.5-0.5-1.2-1-2.1-1.4c-0.4-0.2-0.9-0.3-1.4-0.5
				c-0.5-0.1-1.2-0.2-1.8,0.4c-0.3,0.3-0.3,0.8-0.1,1.1c0.1,0.3,0.3,0.5,0.5,0.7c0.4,0.4,0.8,0.7,1.2,1c0.8,0.5,1.7,0.7,2.4,0.8
				c1.5,0.1,2.3-0.4,2.2-0.5c0-0.1-0.9,0.2-2.2,0c-0.6-0.1-1.4-0.4-2.1-0.8c-0.4-0.2-0.7-0.5-1-0.9s-0.5-0.8-0.3-0.9
				c0.1-0.2,0.7-0.2,1.1-0.1c0.5,0.1,0.9,0.2,1.3,0.4c0.8,0.3,1.5,0.7,2,1.1C202.6,415.2,203.1,415.9,203.2,415.8z"/>
		</g>
	</g>
	<g>
		<path class="st6" d="M141.3,322.5c0,0,1.2-56.2,0-56.2s-9.9-4.9-9.9-4.9l-10.8,83.5c0,0-1,9.4,10.6,16s63.4,52.7,63.4,52.7
			l17.5-21.4c0,0-34.1-35.6-48-47.3C153.2,335.6,141.3,322.5,141.3,322.5z"/>
		<g>
			<path class="st6" d="M173,309.4l1.2-8.9c0,0,8.5-18,9.8-25.7c1.2-7.7,0.4-24.3,0.4-24.3h-53.9c0,0,0.2,60.9,6.7,78
				c0,0,3.3,32.7,3.8,35.4c1,5.8,4.6,65.4,4.6,65.4l27.2-1c0,0,2.4-54.7,0.5-70.3c-0.9-7.7-1.4-15.9-1.6-22.7
				C171.4,326.7,171.9,318,173,309.4z"/>
			<g>
				<path class="st7" d="M131.9,268.3c0,0,0,0.1,0,0.3c0,0.2,0,0.5,0.1,0.8c0,0.7,0.1,1.7,0.1,3c0.1,2.6,0.3,6.4,0.6,11.1
					c0.5,9.4,1.5,22.4,3,36.7c1.5,14.3,3.1,27.2,4.2,36.6c0.6,4.6,1,8.4,1.4,11.1c0.1,1.3,0.3,2.3,0.3,3c0,0.3,0.1,0.6,0.1,0.8
					c0,0.2,0,0.3,0,0.3s0-0.1-0.1-0.3c0-0.2-0.1-0.5-0.1-0.8c-0.1-0.7-0.3-1.7-0.4-3c-0.4-2.7-0.9-6.4-1.5-11
					c-1.2-9.3-2.9-22.2-4.4-36.5s-2.4-27.3-2.9-36.7c-0.2-4.7-0.4-8.5-0.4-11.1c0-1.3,0-2.3,0-3c0-0.3,0-0.6,0-0.8
					C131.9,268.4,131.9,268.3,131.9,268.3z"/>
			</g>
			<g>
				<path class="st7" d="M171.7,340.4c0,0,0.1,0.3,0.2,0.9c0.1,0.6,0.2,1.5,0.4,2.5c0.3,2.2,0.6,5.4,0.9,9.4
					c0.6,7.9,1.1,19,1.3,31.1c0.1,12.2,0,23.2-0.5,31.1c-0.2,4-0.5,7.2-0.7,9.4c-0.1,1.1-0.2,1.9-0.3,2.6c-0.1,0.6-0.1,0.9-0.1,0.9
					s0-0.3,0-0.9s0.1-1.5,0.2-2.6c0.2-2.2,0.4-5.4,0.5-9.4c0.3-8,0.5-19,0.3-31.1c-0.2-12.2-0.6-23.2-1.2-31.1
					c-0.3-4-0.5-7.2-0.8-9.4c-0.1-1.1-0.2-1.9-0.3-2.6C171.7,340.7,171.6,340.4,171.7,340.4z"/>
			</g>
		</g>
	</g>
	<path class="st6" d="M182.3,137.3c0,0,8.8,2.4,10.7,15.5c1.9,13.2-1.6,16.9-1.6,16.9s1.4-24.5-9.5-27.8l0.4-4.1"/>
	<g>
		<polygon class="st6" points="122.1,180.3 76.5,179.4 77.1,181.6 121.9,182.3 		"/>
		<g>
			<path class="st10" d="M177.4,141.4c-1.7-0.5-3.5-0.2-5.1,0.4c-3.7,1.6-10.5,6-10.9,18.6c-0.8,20.4-0.8,20.4-0.8,20.4l29.2,3.8
				C189.7,184.7,192.2,145.4,177.4,141.4z"/>
			<path class="st9" d="M123.7,184.6l37,11.1l0.6-14.9l22.1,3.2l-1.2,24.2c-0.3,7.1-5.2,13.1-12.2,14.8l0,0
				c-3.9,0.9-7.9,0.3-11.4-1.6L119.3,199L123.7,184.6z"/>
			<g>
				<path class="st6" d="M189.7,184.7c0,0,0-0.1,0-0.3s0-0.6,0-1c0-0.9-0.1-2.1-0.1-3.7c-0.1-3.3-0.3-7.9-0.4-13.6
					c-0.1-2.9-0.2-6-0.3-9.4c0-0.8,0-1.7-0.1-2.6c0-0.4-0.1-0.9-0.1-1.3c-0.1-0.4-0.2-0.9-0.3-1.3c-0.4-1.7-1.3-3.4-2.4-4.9
					c-2.3-2.9-6-5.1-10.1-5.2c-2-0.1-4.1,0.6-5.9,1.7c-1.8,1.1-3.3,2.7-4.5,4.5c-1.8,2.6-2.8,5.5-3.3,8.5c-0.6,3-0.8,5.9-0.9,8.8
					c-0.2,5.7-0.3,11.1-0.5,16l-0.2-0.2c8.7,1.2,16,2.2,21.1,2.9c2.5,0.4,4.5,0.6,5.9,0.8c0.7,0.1,1.2,0.2,1.6,0.2
					C189.5,184.7,189.7,184.7,189.7,184.7s-0.2,0-0.5,0c-0.4,0-0.9-0.1-1.5-0.2c-1.4-0.2-3.4-0.4-5.9-0.7
					c-5.1-0.6-12.5-1.6-21.3-2.7h-0.2v-0.2c0.1-4.9,0.2-10.3,0.4-16.1c0.1-2.9,0.3-5.9,0.9-8.9c0.6-3,1.6-6,3.4-8.7
					c1.2-1.8,2.8-3.5,4.7-4.6s4-1.8,6.1-1.7c4.3,0.1,8.1,2.4,10.5,5.4c1.2,1.5,2,3.3,2.5,5c0.1,0.4,0.2,0.9,0.3,1.3
					c0,0.5,0.1,0.9,0.1,1.3c0,0.9,0,1.7,0.1,2.6c0.1,3.4,0.1,6.6,0.2,9.5c0.1,5.7,0.2,10.4,0.2,13.6c0,1.6,0,2.8,0.1,3.7
					c0,0.4,0,0.7,0,0.9C189.7,184.6,189.7,184.7,189.7,184.7z"/>
			</g>
		</g>
		<path class="st9" d="M124.5,185l-8.9-6.6c-1.6-1.2-4.1-1-6.1-1.1c-4-0.4-10.5,2-10.8,2.5l2.7,2.1l-17.3-0.5c0,0,1.5,3.6,6.3,4
			c0,0,0.6,3.9,5.6,4.6c0,0,1.3,3.2,4.1,4.1c0,0,0.6,3.5,5,3.3l15.1,1.7L124.5,185z"/>
		<g>
			<path class="st11" d="M101.2,186c0,0.1-2.5,0.1-5.5-0.1c-3-0.2-5.4-0.4-5.4-0.6c0-0.1,2.5-0.1,5.5,0.1
				C98.8,185.6,101.2,185.9,101.2,186z"/>
		</g>
		<g>
			<path class="st11" d="M105.6,190.2c0,0.1-2.1,0.3-4.8,0.3c-2.6,0-4.8-0.1-4.8-0.3c0-0.1,2.1-0.3,4.8-0.3
				C103.4,189.9,105.6,190,105.6,190.2z"/>
		</g>
		<g>
			<path class="st11" d="M110.2,194.1c0,0.1-2.1,0.3-4.8,0.3c-2.6,0-4.8-0.1-4.8-0.3s2.1-0.3,4.8-0.3S110.2,194,110.2,194.1z"/>
		</g>
		<g>
			<path class="st11" d="M163.1,203.3c-0.1,0.1-0.9-1.5-1.6-3.6c-0.7-2.1-1.1-3.8-1-3.9c0.1,0,0.7,1.6,1.4,3.7
				C162.7,201.5,163.3,203.2,163.1,203.3z"/>
		</g>
		<g>
			<path class="st11" d="M165.8,201.8c-0.1,0.1-1.3-1.4-2.8-3.1c-1.5-1.8-2.7-3.2-2.6-3.3c0.1-0.1,1.5,1.2,3,3
				S165.9,201.7,165.8,201.8z"/>
		</g>
	</g>
</g>
</svg>
