<?xml version="1.0" encoding="utf-8"?>
<!-- Generator: Adobe Illustrator 23.0.1, SVG Export Plug-In . SVG Version: 6.00 Build 0)  -->
<svg version="1.1" id="a43d4114-cd98-41f6-b9a0-b0700c71b140"
	 xmlns="http://www.w3.org/2000/svg" xmlns:xlink="http://www.w3.org/1999/xlink" x="0px" y="0px" viewBox="0 0 722 628.5"
	 style="enable-background:new 0 0 722 628.5;" xml:space="preserve">
<style type="text/css">
	.st0{fill:#E6E6E6;}
	.st1{fill:#797BF2;}
	.st2{fill:#FFFFFF;}
	.st3{fill:#E62965;}
	.st4{fill:#9F616A;}
	.st5{fill:#A9C3EA;}
	.st6{fill:#C8DBFB;}
	.st7{fill:#55536E;}
</style>
<ellipse class="st0" cx="325" cy="618.5" rx="199" ry="10"/>
<circle class="st0" cx="98.8" cy="98.8" r="98.8"/>
<circle class="st1" cx="98.8" cy="98.8" r="82.3"/>
<circle class="st0" cx="361" cy="98.8" r="98.8"/>
<circle class="st2" cx="361" cy="98.8" r="82.3"/>
<circle class="st0" cx="623.2" cy="98.8" r="98.8"/>
<circle class="st2" cx="623.2" cy="98.8" r="82.3"/>
<polygon class="st2" points="91.1,132.6 67.1,101.7 81.1,90.9 92.4,105.5 130.8,65 143.6,77.2 "/>
<path class="st3" d="M273.7,118.9c-6.5-15.7-7.5-30.4,1.6-43.6l0,0l0,0c0.7-18.2,16-32.4,34.2-31.7c0.3,0,0.7,0,1,0.1l6,0.4
	c12.6,0.8,23.5,8.7,28.3,20.4c11.1,27.6,11.5,64.2,8.7,103.5H272C276.8,149.5,279.3,132.3,273.7,118.9z"/>
<path class="st4" d="M168.5,166.9l-21.5-9.7c-8.3-3.7-12-13.4-8.2-21.7c0.3-0.7,0.7-1.4,1.1-2.1l0,0c4.9-7.7,15-9.9,22.7-5.1
	c1.5,0.9,2.8,2.1,3.9,3.5l10,12.2l46.4,41.2l30.8-20.6l14,23.7l-50,30.2L168.5,166.9z"/>
<path class="st1" d="M265.3,195.4l-17-32.5l66.2-29.5l0.6,6.2c1.1,11.7-4.1,23-13.6,29.8L265.3,195.4z"/>
<path class="st4" d="M351.1,131.4l-67.6,55.9l-3.9-5.4l18.6-33.4l8.5-3.9c2-8.7-3.2-20.3-10.1-32.6l32.6-4.7
	C331,117.9,338.1,126,351.1,131.4z"/>
<polygon class="st5" points="432.7,517.3 421.4,534 331.7,483.1 344.1,421.8 "/>
<path class="st6" d="M314.3,596.9l-18.2-8.2l-4.7-213.5l-17.5-116.1l67.9-12.8l14,30.3C390.1,323.7,340.1,468,314.3,596.9z"/>
<path class="st7" d="M315.7,594l3.7,8.1c2.5,5.4,0.1,11.9-5.3,14.4c-0.9,0.4-2,0.7-3,0.9l-49.5,7.1c-5,0.7-9.8-2.4-11.2-7.3l0,0
	c-1.3-4.5,0.6-9.3,4.7-11.6l41.6-20.8L315.7,594z"/>
<path class="st7" d="M430.3,514.1l8.9-0.7c6-0.4,11.2,4,11.6,10c0.1,1,0,2.1-0.2,3.1L440,575.4c-1.1,5-5.7,8.4-10.7,8l0,0
	c-4.6-0.4-8.4-3.8-9.2-8.4l-4.9-46.2L430.3,514.1z"/>
<circle class="st4" cx="308.4" cy="91.8" r="31.1"/>
<path class="st1" d="M340.3,251l-67.6,14l-1.6-45c-9.8-10.4,13-51.8,21-71.4l10.1-3.1l-17.1,31.1l59.8-48.9l11.6,3.1l3.1,56.7
	L340.3,251z"/>
<path class="st4" d="M344.9,278.1l-14.6,18.5c-5.6,7.1-15.9,8.3-23.1,2.7c-0.6-0.5-1.2-1-1.7-1.6l0,0c-6.2-6.6-6-17,0.6-23.2
	c1.3-1.2,2.8-2.2,4.4-3l14.3-6.7L376,230l-12.4-34.9l26.4-7.8l17.1,55.9L344.9,278.1z"/>
<path class="st3" d="M347.6,161.7h-56.3c2.1-10.6,7.8-20.3,23.3-27.2c11.3-21.6,16.1-41.2,0-54.3c-18.4-4.2-25.6-12-23.3-22.6
	l33-5.4C351.5,76.4,351.8,117.6,347.6,161.7z"/>
<path class="st1" d="M396.2,191.2l-35.7,8.5L348,128.3l6.2,1c11.6,1.8,21.3,9.6,25.6,20.5L396.2,191.2z"/>
</svg>
