<?xml version="1.0" encoding="utf-8"?>
<!-- Generator: Adobe Illustrator 23.0.1, SVG Export Plug-In . SVG Version: 6.00 Build 0)  -->
<svg version="1.1" id="ecd5be80-3d6a-430c-932f-46c231ffbb64"
	 xmlns="http://www.w3.org/2000/svg" xmlns:xlink="http://www.w3.org/1999/xlink" x="0px" y="0px" viewBox="0 0 1144 673.9"
	 style="enable-background:new 0 0 1144 673.9;" xml:space="preserve">
<style type="text/css">
	.st0{opacity:0.1;fill:#E6E6E6;enable-background:new    ;}
	.st1{opacity:0.1;fill:#C8DBFB;enable-background:new    ;}
	.st2{fill:#65657C;}
	.st3{opacity:0.7;fill:none;stroke:#3F3D56;stroke-linecap:round;stroke-miterlimit:10;enable-background:new    ;}
	.st4{fill:#3F3D56;}
	.st5{opacity:0.1;enable-background:new    ;}
	.st6{fill:#797BF2;}
	.st7{fill:#FFFFFF;}
	.st8{opacity:0.33;enable-background:new    ;}
	.st9{fill:url(#SVGID_1_);}
	.st10{fill:url(#SVGID_2_);}
	.st11{opacity:0.3;}
	.st12{fill:#7105FF;}
	.st13{fill:#689AF2;}
	.st14{fill:#7277DD;}
	.st15{opacity:0.1;fill:#797BF2;enable-background:new    ;}
	.st16{opacity:0.3;fill:#797BF2;enable-background:new    ;}
	.st17{fill:url(#SVGID_3_);}
	.st18{fill:#4C4981;}
	.st19{fill:#AE6E79;}
	.st20{fill:#444053;}
	.st21{fill:#C8DBFB;}
	.st22{fill:#E62965;}
</style>
<title>following</title>
<ellipse class="st0" cx="241" cy="658.4" rx="147.7" ry="10.5"/>
<path class="st1" d="M1144,396.2c0.1,33.1-9,65.6-26.1,93.9c0,34.6-16.1,66-42.3,88.9c-6.6,5.7-13.6,10.8-21.1,15.3
	c-0.3,0.2-0.6,0.4-0.9,0.5c-0.6,0.3-1.1,0.7-1.7,1l-0.5,0.3l0,0c-24.8,13.8-52.7,21-81.1,20.8H217.2c-6,0-11.9-0.2-17.8-0.7
	c-20.9-1.6-41.5-6.4-61.1-14.1c-3.8-1.5-7.6-3.1-11.2-4.9c-1.7-0.8-3.5-1.7-5.2-2.5c-1.1-0.5-2.1-1.1-3.2-1.7
	c-12.3-6.5-23.9-14.3-34.5-23.4c-34-29.2-55.1-69.6-55.1-114.2C10,426.1-0.1,391.8,0,356.7c0-99.1,79.2-179.5,177-179.5
	c3,0,6,0.1,9,0.3c0.4,0,0.9,0,1.3,0.1c16.5-28.1,38.5-53.9,65-76.6C324.5,39,430.1,0,547.7,0c98.9,0,189.2,27.5,258.4,73
	c26.2-14.8,55.8-22.6,85.9-22.5c97.7,0,177,80.4,177,179.5c0,6.3-0.3,12.5-1,18.8C1115.8,282.7,1144.2,337.7,1144,396.2z"/>
<path class="st2" d="M958,119.3v479.2c0,10.2-8.2,18.4-18.4,18.4l0,0H204.4c-1.7,0-3.4-0.2-5.1-0.7c-7.9-2.3-13.4-9.5-13.3-17.7
	V384.7c0-1.1,0-2.2,0-3.3V177.5c0.4,0,0.9,0,1.3,0.1c16.5-28.1,38.5-53.9,65-76.6h687.3C949.8,100.9,958,109.2,958,119.3z"/>
<line class="st3" x1="260" y1="240.9" x2="912" y2="240.9"/>
<line class="st3" x1="260" y1="361.4" x2="912" y2="361.4"/>
<line class="st3" x1="260" y1="481.9" x2="912" y2="481.9"/>
<line class="st3" x1="260" y1="605.4" x2="912" y2="605.4"/>
<ellipse class="st0" cx="963" cy="663.4" rx="147.7" ry="10.5"/>
<path class="st4" d="M532.6,163.1h101.9c9.9,0,18,8,18,18l0,0c0,9.9-8,18-18,18H532.6c-9.9,0-18-8-18-18l0,0
	C514.7,171.2,522.7,163.1,532.6,163.1z"/>
<path class="st5" d="M535.6,169.2h95.9c6.6,0,12,5.4,12,12l0,0c0,6.6-5.4,12-12,12h-95.9c-6.6,0-12-5.4-12-12l0,0
	C523.7,174.5,529,169.2,535.6,169.2z"/>
<path class="st6" d="M607.9,170.5h22c5.9,0,10.7,4.8,10.7,10.6l0,0c0,5.9-4.8,10.6-10.7,10.6h-22c-5.9,0-10.7-4.8-10.7-10.6l0,0
	C597.2,175.2,602,170.5,607.9,170.5z"/>
<circle class="st7" cx="618.5" cy="181.1" r="6.7"/>
<path class="st4" d="M532.6,400.2h101.9c9.9,0,18,8,18,18l0,0c0,9.9-8,18-18,18H532.6c-9.9,0-18-8-18-18l0,0
	C514.7,408.2,522.7,400.2,532.6,400.2z"/>
<path class="st5" d="M535.6,406.2h95.9c6.6,0,12,5.4,12,12l0,0c0,6.6-5.4,12-12,12h-95.9c-6.6,0-12-5.4-12-12l0,0
	C523.7,411.6,529,406.2,535.6,406.2z"/>
<path class="st6" d="M607.9,407.5h22c5.9,0,10.7,4.8,10.7,10.6l0,0c0,5.9-4.8,10.6-10.7,10.6h-22c-5.9,0-10.7-4.8-10.7-10.6l0,0
	C597.2,412.3,602,407.5,607.9,407.5z"/>
<circle class="st7" cx="618.5" cy="418.2" r="6.7"/>
<path class="st4" d="M532.6,518.7h101.9c9.9,0,18,8,18,18l0,0c0,9.9-8,18-18,18H532.6c-9.9,0-18-8-18-18l0,0
	C514.7,526.8,522.7,518.7,532.6,518.7z"/>
<path class="st5" d="M535.6,524.7h95.9c6.6,0,12,5.4,12,12l0,0c0,6.6-5.4,12-12,12h-95.9c-6.6,0-12-5.4-12-12l0,0
	C523.7,530.1,529,524.7,535.6,524.7z"/>
<path class="st6" d="M607.9,526h22c5.9,0,10.7,4.8,10.7,10.7l0,0c0,5.9-4.8,10.7-10.7,10.7h-22c-5.9,0-10.7-4.8-10.7-10.7l0,0
	C597.2,530.8,602,526,607.9,526z"/>
<circle class="st7" cx="618.5" cy="536.7" r="6.7"/>
<path class="st4" d="M532.6,281.7h101.9c9.9,0,18,8,18,18l0,0c0,9.9-8,18-18,18H532.6c-9.9,0-18-8-18-18l0,0
	C514.7,289.7,522.7,281.7,532.6,281.7z"/>
<path class="st5" d="M535.6,287.7h95.9c6.6,0,12,5.4,12,12l0,0c0,6.6-5.4,12-12,12h-95.9c-6.6,0-12-5.4-12-12l0,0
	C523.7,293,529,287.7,535.6,287.7z"/>
<path class="st6" d="M559.3,310.3h-22c-5.9,0-10.7-4.8-10.7-10.6l0,0c0-5.9,4.8-10.6,10.7-10.6h22c5.9,0,10.7,4.8,10.7,10.6l0,0
	C569.9,305.6,565.2,310.3,559.3,310.3z"/>
<circle class="st7" cx="548.6" cy="299.7" r="6.7"/>
<path class="st8" d="M379.5,181c0,16.6-8.7,31.9-22.9,40.4l-0.6,0.4l-1.2,0.7l0,0l-1.1,0.6l-0.2,0.1c-0.5,0.2-1,0.5-1.5,0.7
	c-1.6,0.7-3.2,1.4-4.9,1.9c-1.1,0.4-2.2,0.7-3.3,0.9c-2.3,0.6-4.6,0.9-6.9,1.1c-1.4,0.1-2.9,0.2-4.3,0.2c-1.7,0-3.5-0.1-5.2-0.3
	h-0.3c-0.6-0.1-1.2-0.1-1.8-0.2c-1.9-0.3-3.7-0.7-5.6-1.2l-0.9-0.3l-0.8-0.3l-0.3-0.1c-1.6-0.5-3.2-1.2-4.8-1.9l0,0
	c-2.7-1.2-5.2-2.7-7.6-4.4l-0.1-0.1l-0.1-0.1l-0.9-0.6l-0.6-0.5c-1.3-1-2.5-2-3.6-3.2c-1.1-1-2.1-2.1-3.1-3.3
	c-16.9-19.7-14.7-49.4,5-66.3s49.4-14.7,66.3,5C375.5,158.8,379.5,169.7,379.5,181z"/>
<linearGradient id="SVGID_1_" gradientUnits="userSpaceOnUse" x1="353.4705" y1="167.02" x2="353.4705" y2="100.1061" gradientTransform="matrix(1 0 0 1 -28 60.96)">
	<stop  offset="0" style="stop-color:#808080;stop-opacity:0.25"/>
	<stop  offset="0.54" style="stop-color:#808080;stop-opacity:0.12"/>
	<stop  offset="1" style="stop-color:#808080;stop-opacity:0.1"/>
</linearGradient>
<path class="st9" d="M354.7,222.2L354.7,222.2l-1.2,0.4c-0.7,0-1.3-0.2-1.8-0.6l-0.4-0.4c-0.2-0.3-0.6-0.5-0.9-0.5h-0.1
	c-0.1,0-0.3,0-0.4,0h-0.1c-0.1-0.1-0.2-0.2-0.2-0.4c-0.2-0.9-0.4-1.8-0.5-2.7c-0.1-1-0.1-2,0-3c0-0.8,0-1.6,0-2.4
	c0.1-0.9,0.2-1.8,0.2-2.7c0-1,0-1.9-0.3-2.9c-0.1-0.5-0.3-1-0.6-1.5l0,0c-0.2-1.4-0.4-2.7-0.5-4c-0.1-1-0.3-2-0.5-3
	c0-0.2,0.1-0.3,0.1-0.5c0.2-1.7-0.4-3.3-1.7-4.4c-0.4-0.3-0.8-0.6-1.3-0.8c-0.4-0.2-0.8-0.3-1.2-0.4l-6.3-2
	c-0.6-0.9-1.1-1.8-1.7-2.7c-0.5-0.8-0.9-1.7-1.3-2.5c4.2-3.2,5.4-9.1,2.6-13.6c-0.1-0.2-0.2-0.3-0.3-0.5l0,0c0-0.8,0-1.6-0.3-2.3
	c0,0,0,0,0-0.1c-0.1-0.6-0.4-1.2-0.9-1.7l-0.2-0.2c-0.1-0.1-0.2-0.2-0.3-0.3c-0.4-0.4-0.9-0.8-1.4-1.2c-2.1-1.6-4.9-3.5-7.4-4.1
	c-1.3-0.3-2.6-0.3-3.8,0l0,0l-0.2-0.1l-0.4-0.1l0.3,0.1c-1.3-0.3-2.7-0.3-4.1,0.1c-1.6,0.5-2.2,1.9-2.9,3.3c-1.1,2.4-2.8,4.4-5,5.9
	c-1.4,0.9-3,1.8-3.7,3.3s-0.2,3.1-0.1,4.7c0.4,4.3-1.4,8.5-4.8,11.3c-1.9,1.5-4.4,2.8-4.8,5.1c-0.3,1.7,0.6,3.4,1.4,4.9
	c1.5,3.3,2,7.4,0.3,10.6c-0.2,0.3-0.4,0.6-0.5,0.9c1,1.2,2,2.3,3,3.3c1.1,1.1,2.3,2.2,3.6,3.2l0.6,0.5l0.9,0.6l0.1,0.1l0.1,0.1
	c2.4,1.7,4.9,3.2,7.5,4.5c0-0.1,0-0.1,0.1-0.2c0,0.1,0,0.1,0,0.2c1.5,0.7,3.1,1.4,4.7,1.9l0.3,0.1l0.8,0.3l0.9,0.3
	c1.8,0.5,3.6,0.9,5.5,1.2c0.6,0.1,1.2,0.2,1.8,0.2h0.3c1.7,0.2,3.4,0.3,5.1,0.3c1.4,0,2.8-0.1,4.2-0.2c2.3-0.2,4.6-0.6,6.8-1.2
	c0.3-0.1,0.5-0.1,0.8-0.2c0.8-0.2,1.6-0.5,2.4-0.7c1.6-0.5,3.3-1.2,4.8-1.9c0.5-0.2,1-0.5,1.5-0.7l0.2-0.1L354.7,222.2L354.7,222.2
	C354.7,222.3,354.7,222.3,354.7,222.2z M314.7,220.9c0-0.1,0-0.2,0-0.3c0-0.3,0-0.5,0-0.8c0-0.2,0.1-0.3,0.2-0.4c0,0.2,0,0.3,0,0.5
	C314.8,220.2,314.8,220.5,314.7,220.9z"/>
<path class="st6" d="M354.7,222.3L354.7,222.3l-1.2,0.4c-0.7,0-1.3-0.2-1.9-0.6c-0.1-0.1-0.3-0.3-0.4-0.4c-0.2-0.3-0.6-0.5-0.9-0.5
	h-0.1c-0.1,0-0.3,0-0.4,0h-0.1c-0.1-0.1-0.2-0.2-0.2-0.4c-0.2-0.9-0.4-1.8-0.5-2.7c-0.1-1-0.1-2,0-3c0-0.8,0-1.6,0-2.4l0,0
	c0.1-0.9,0.2-1.8,0.2-2.7s0-1.9-0.3-2.8c-0.1-0.5-0.3-1-0.6-1.5l0,0c-0.2-1.3-0.4-2.7-0.5-4c-0.1-1-0.3-2-0.5-3
	c0-0.2,0.1-0.3,0.1-0.5c0.2-1.6-0.4-3.3-1.8-4.3c-0.4-0.3-0.8-0.6-1.3-0.8c-0.4-0.2-0.8-0.3-1.2-0.4l-6.4-2
	c-0.6-0.9-1.2-1.7-1.7-2.6c-0.5-0.8-1-1.6-1.3-2.5c4.3-3.1,5.5-9,2.6-13.5c-0.1-0.2-0.2-0.3-0.3-0.5l0,0c0-0.8,0-1.6-0.3-2.3
	c0,0,0,0,0-0.1c0-0.2-0.1-0.5-0.2-0.7c-0.2-0.3-0.4-0.7-0.6-1l-0.2-0.2c-0.1-0.1-0.2-0.2-0.3-0.3c-0.4-0.4-0.9-0.8-1.4-1.1
	c-2.1-1.5-4.9-3.4-7.5-4c-1.3-0.3-2.6-0.3-3.9,0l0,0l-0.2-0.1l-0.4-0.1l0.3,0.1c-1.4-0.3-2.8-0.3-4.1,0.1c-1.7,0.5-2.3,1.8-3,3.3
	c-1.1,2.3-2.9,4.4-5,5.8c-1.4,0.9-3,1.7-3.7,3.3s-0.2,3.1-0.1,4.6c0.4,4.3-1.5,8.4-4.8,11.1c-1.9,1.5-4.4,2.7-4.8,5.1
	c-0.3,1.7,0.7,3.3,1.4,4.9c1.5,3.3,2,7.3,0.3,10.5c-0.2,0.3-0.4,0.6-0.5,0.9c1,1.1,2,2.2,3.1,3.3c1.2,1.1,2.4,2.2,3.6,3.2l0.6,0.5
	l0.9,0.6l0.1,0.1l0.1,0.1c2.4,1.7,5,3.2,7.6,4.4c0-0.1,0-0.1,0.1-0.2c0.1-0.2,0.1-0.4,0.2-0.5c0.4-0.6,0.7-1.3,0.9-2
	c0-0.1,0-0.2,0-0.3c0-0.3,0-0.5,0-0.8c0-0.2,0.1-0.3,0.2-0.4c0.1-0.2,0.3-0.4,0.4-0.6c0.1-0.1,0.1-0.2,0.2-0.3l0,0
	c0.1,0.1,0.2,0.3,0.3,0.5c0.4,0.5,0.7,1.1,1.1,1.7c0.3,0.4,0.5,0.8,0.5,1.3c-0.1,0.3-0.1,0.6,0,0.8c0.1,0.4,0.6,0.6,0.5,1
	c-0.2,0.4-0.2,0.8,0,1.2c0.1,0.2,0.3,0.4,0.4,0.6l0.3,0.1l0.8,0.3l0.9,0.3c1.8,0.5,3.7,0.9,5.6,1.2c0.6,0.1,1.2,0.2,1.8,0.2h0.3
	c1.7,0.2,3.4,0.3,5.2,0.3c1.5,0,2.9-0.1,4.3-0.2c2.3-0.2,4.7-0.6,6.9-1.1c0.3-0.1,0.5-0.1,0.8-0.2c0.8-0.2,1.6-0.5,2.5-0.7
	c1.7-0.5,3.3-1.2,4.9-1.9c0.5-0.2,1-0.4,1.5-0.7l0.2-0.1L354.7,222.3L354.7,222.3L354.7,222.3z"/>
<path class="st8" d="M378.5,300c0,7.9-2,15.6-5.8,22.6c-0.8,1.5-1.7,2.9-2.6,4.2c-0.9,1.4-2,2.7-3.1,4c-0.1,0.1-0.1,0.2-0.2,0.2
	c-0.4,0.5-0.9,1-1.3,1.5L365,333c-0.5,0.5-1,1-1.6,1.5c-0.1,0.1-0.1,0.1-0.2,0.2c-0.3,0.2-0.5,0.5-0.8,0.7c-1.4,1.2-2.9,2.4-4.4,3.4
	c-0.8,0.5-1.6,1.1-2.4,1.5l-0.6,0.4l-1.2,0.7l0,0l-0.8,0.4l-0.3,0.2l-0.2,0.1c-0.3,0.2-0.7,0.3-1,0.5c-0.2,0.1-0.3,0.2-0.5,0.2
	l-1,0.4c-0.9,0.4-1.8,0.7-2.7,1.1l0,0l-1.2,0.4H346c-0.1,0-0.2,0.1-0.3,0.1l-0.2,0.1l-0.7,0.2l-0.2,0.1l-0.3,0.1l-0.4,0.1
	c-0.1,0-0.2,0.1-0.3,0.1l-0.7,0.2l0,0c-0.5,0.1-1,0.3-1.6,0.4c-1.8,0.4-3.6,0.6-5.4,0.8c-1.4,0.1-2.7,0.2-4.1,0.2h-0.3
	c-1.3,0-2.6-0.1-3.9-0.2l-1.1-0.1H326h-0.2l-1.6-0.2l-1.3-0.2l-0.3-0.1c-0.6-0.1-1.2-0.2-1.8-0.4h-0.1c-0.7-0.1-1.4-0.3-2.1-0.5
	l-0.9-0.3l-0.8-0.3l-0.3-0.1l0,0c-1.6-0.5-3.2-1.2-4.8-1.9l0,0c-1.1-0.5-2.1-1-3.1-1.6l-0.5-0.3l-0.7-0.4l-0.4-0.2c-1-0.6-2-1.3-3-2
	l-0.1-0.1l-0.1-0.1l-0.9-0.6l-0.6-0.5c-1.3-1-2.5-2-3.6-3.2c-1.1-1-2.1-2.1-3.1-3.3c-16.9-19.7-14.7-49.4,5-66.3s49.4-14.7,66.3,5
	C374.5,277.9,378.5,288.7,378.5,300z"/>
<linearGradient id="SVGID_2_" gradientUnits="userSpaceOnUse" x1="356.6058" y1="285.96" x2="356.6058" y2="224.9552" gradientTransform="matrix(1 0 0 1 -28 60.96)">
	<stop  offset="0" style="stop-color:#808080;stop-opacity:0.25"/>
	<stop  offset="0.54" style="stop-color:#808080;stop-opacity:0.12"/>
	<stop  offset="1" style="stop-color:#808080;stop-opacity:0.1"/>
</linearGradient>
<path class="st10" d="M351,341.8c-0.1-0.1-0.2-0.2-0.3-0.3c-0.1-0.1-0.1-0.1-0.2-0.2c-0.7-0.5-1-1.4-0.9-2.2c0-0.1,0-0.2,0-0.3
	c-0.3-1-0.7-2-1.2-3c-0.3-0.5-0.6-1.3-0.8-2.1c-0.4-1-0.6-1.9-0.6-1.9s0-0.1,0-0.3c-0.1-0.6-0.5-2.4-0.7-4.1c0-0.1,0-0.2,0-0.3
	c-0.4-2.1-3.9-7.8-3.9-7.8l0,0c0-0.1-0.1-0.1-0.1-0.2c-0.8-0.4-3.5-1.9-3.5-1.9c-2-2.5-3.9-3.1-5.2-3.2h-0.2H333c-0.1,0-0.2,0-0.3,0
	c-0.2,0-0.3,0.1-0.5,0.1l-0.2,0.1c-0.1,0-0.2,0.1-0.3,0.1l-0.1,0.5c-0.1-1.2,0-2.4,0.3-3.6l0.1-0.3c0.2,0,0.4,0,0.6,0
	c5.4-0.1,9.7-4.5,9.7-9.9c0-0.9-0.1-1.7-0.4-2.6v-0.1l0.3-0.1c1.2-0.5,2.7,0.3,3.7-0.5c0.4-0.4,0.6-0.8,0.7-1.3
	c0.3-0.7,0.4-1.3,0.5-2c0-0.2,0-0.4,0-0.6v-0.1l0,0c0-0.5-0.2-0.9-0.5-1.3c-0.6-0.8-1.7-0.9-2.5-1.5c-0.7-0.5-1.2-1.2-1.6-1.9
	c-0.4-0.7-0.9-1.4-1.5-1.9c-0.6-0.6-1.5-0.7-2.3-0.4c-0.2,0.2-0.5,0.3-0.8,0.4c-0.3,0-0.6-0.1-0.8-0.2c-2.8-1.3-6-1.1-9-0.7
	c-1.2,0.1-2.4,0.4-3.5,0.9s-2,1.5-2.4,2.6c-0.3,0.9-0.1,2-0.4,2.9c-0.2,0.6-0.6,1.2-0.8,1.8c-0.1,0.3-0.2,0.7-0.2,1c0,0,0,0,0-0.1
	s0,0.1,0,0.2v0.5c0.2,1.2,0.4,2.4,0.7,3.6c0.4,2,0.2,4.1,1,5.9c0.1,0.2,0.2,0.4,0.3,0.6c-0.3,0.6-0.6,1.3-0.9,1.9l0,0
	c-0.2,0-0.3-0.1-0.5-0.1h-0.2H321c-0.1,0-0.2,0-0.4,0l0,0c-0.1,0-0.2,0.1-0.3,0.1l-0.1,0.1h-0.1l-0.1,0.1c0,0,0,0,0,0.1
	c-0.1,0.1-0.1,0.2-0.1,0.4l0,0v0.1c0,0.2,0,0.4-0.1,0.6s0,0.3,0,0.4s0,0.2,0,0.3v0.1c0,0.1,0,0.3-0.1,0.4l-0.1,0.5l-0.1,0.1
	c-0.1,0.1-0.1,0.3-0.2,0.4l0,0L319,312c-0.1,0.1-0.2,0.2-0.2,0.4l0,0l0,0l-0.1,0.1c-0.1,0-0.1,0-0.2,0.1c-0.1-0.2-0.4-0.2-1.2,0.9
	c-1.2,1.2-2.5,2.3-4,3.1c0,0-5.9,4.2-6.2,6.1s-2.2,10.3-1.2,13.1c0.1,0.4,0.4,0.9,0.7,1.6v0.1c0,0,0.3,1.1,0.8,2.8
	c0.1,0.1,0.2,0.2,0.4,0.2l0.7,0.4l0.5,0.3c1,0.6,2.1,1.1,3.1,1.6l0,0c1.6,0.7,3.1,1.3,4.8,1.9l0,0l0.3,0.1l0.8,0.3l0.9,0.3
	c0.7,0.2,1.4,0.4,2.1,0.5h0.1c0.6,0.1,1.2,0.3,1.8,0.4l0.3,0.1l1.3,0.2l1.6,0.2h0.2h0.3l1.1,0.1c1.3,0.1,2.6,0.2,3.9,0.2h0.3
	c1.4,0,2.8-0.1,4.1-0.2c1.8-0.2,3.6-0.4,5.4-0.8c0.5-0.1,1.1-0.2,1.6-0.4l0,0l0.7-0.2c0.1,0,0.2,0,0.3-0.1l0.4-0.1l0.3-0.1l0.2-0.1
	l0.7-0.2l0.2-0.1c0.1,0,0.2-0.1,0.3-0.1h0.1l1.2-0.4l0,0c0.9-0.3,1.8-0.7,2.7-1.1l1-0.4c0.2-0.1,0.3-0.1,0.5-0.3
	C351.3,342.2,351.2,342,351,341.8z M331.6,315.3L331.6,315.3L331.6,315.3L331.6,315.3L331.6,315.3L331.6,315.3z"/>
<path class="st6" d="M351,341.8c-0.1-0.1-0.2-0.2-0.3-0.3c-0.1-0.1-0.1-0.1-0.2-0.2c-0.7-0.5-1-1.3-0.9-2.2c0-0.1,0-0.2,0-0.3
	c-0.3-1-0.7-2-1.2-2.9c-0.3-0.5-0.6-1.3-0.8-2.1c-0.4-1-0.6-1.9-0.6-1.9v-0.3c-0.1-0.6-0.5-2.4-0.7-4c0-0.1,0-0.2,0-0.3
	c-0.4-2.1-3.9-7.7-3.9-7.7l0,0c0-0.1-0.1-0.1-0.1-0.2c-0.8-0.4-3.5-1.9-3.5-1.9c-2-2.5-3.9-3.1-5.2-3.1h-0.2H333c-0.1,0-0.2,0-0.3,0
	c-0.2,0-0.3,0.1-0.5,0.1l-0.2,0.1c-0.1,0-0.2,0.1-0.3,0.1l-0.1,0.5c-0.1-1.2,0-2.4,0.3-3.6c0-0.1,0.1-0.2,0.1-0.3c0.2,0,0.4,0,0.6,0
	c5.3,0,9.7-4.3,9.7-9.7l0,0c0-0.9-0.1-1.8-0.4-2.7v0.1h0.2c1.2-0.4,2.7,0.3,3.7-0.5c0.4-0.4,0.6-0.8,0.7-1.3c0.3-0.6,0.4-1.3,0.5-2
	c0-0.2,0-0.4,0-0.6v-0.1l0,0c0-0.5-0.2-0.9-0.5-1.3c-0.6-0.8-1.7-0.9-2.5-1.5c-0.7-0.5-1.2-1.2-1.6-1.9c-0.4-0.7-0.9-1.4-1.5-1.9
	s-1.5-0.7-2.3-0.4c-0.2,0.2-0.5,0.3-0.8,0.4c-0.3,0-0.6-0.1-0.8-0.2c-2.8-1.3-6-1.1-9-0.7c-1.2,0.1-2.4,0.4-3.5,0.9s-2,1.4-2.4,2.6
	c-0.3,0.9-0.1,1.9-0.4,2.9c-0.2,0.6-0.6,1.2-0.8,1.8c-0.1,0.3-0.2,0.7-0.2,1c0,0,0,0,0-0.1s0,0.1,0,0.2v0.5c0.2,1.2,0.4,2.4,0.7,3.6
	c0.4,1.9,0.2,4,1,5.8c0.1,0.2,0.2,0.4,0.3,0.6c-0.3,0.6-0.6,1.2-0.9,1.8l0,0c-0.2,0-0.3-0.1-0.5-0.1H321h-0.2c-0.1,0-0.2,0-0.4,0
	l0,0c-0.1,0-0.2,0.1-0.2,0.1l-0.1,0.1H320l-0.1,0.1c0,0,0,0,0,0.1c-0.1,0.1-0.1,0.2-0.1,0.4l0,0v0.1c0,0.2,0,0.4-0.1,0.6
	s0,0.3,0,0.4s0,0.2,0,0.3s0,0,0,0.1s0,0.3-0.1,0.4l-0.1,0.5l-0.1,0.1c-0.1,0.1-0.1,0.3-0.2,0.4l0,0c-0.1,0.1-0.1,0.1-0.2,0.1
	c-0.1,0.1-0.2,0.2-0.2,0.4l0,0l0,0l-0.1,0.1c-0.1,0-0.1,0-0.2,0.1c-0.1-0.1-0.4-0.1-1.2,0.9c-1.2,1.2-2.5,2.3-4,3.1
	c0,0-5.9,4.1-6.2,6s-2.2,10.1-1.2,12.9c0.1,0.4,0.4,0.9,0.7,1.6v0.1c0,0,0.3,1.1,0.8,2.7l0.4,0.2l0.7,0.4l0.5,0.3
	c1,0.6,2.1,1.1,3.1,1.6l0,0c1.6,0.7,3.1,1.3,4.8,1.9l0,0l0.3,0.1l0.8,0.3l0.9,0.3c0.7,0.2,1.4,0.4,2.1,0.5h0.1
	c0.6,0.1,1.2,0.3,1.8,0.4l0.3,0.1l1.3,0.2l1.6,0.2h0.2h0.3l1.1,0.1c1.3,0.1,2.6,0.2,3.9,0.2h0.3c1.4,0,2.8-0.1,4.1-0.2
	c1.8-0.2,3.6-0.4,5.4-0.8c0.5-0.1,1.1-0.2,1.6-0.4l0,0l0.7-0.2c0.1,0,0.2,0,0.3-0.1l0.4-0.1l0.3-0.1l0.2-0.1l0.7-0.2l0.2-0.1
	c0.1,0,0.2-0.1,0.3-0.1h0.1l1.2-0.4l0,0c0.9-0.3,1.8-0.7,2.7-1.1l1-0.4c0.2-0.1,0.3-0.1,0.5-0.2C351.3,342.1,351.2,342,351,341.8z
	 M331.6,315.7L331.6,315.7L331.6,315.7L331.6,315.7L331.6,315.7L331.6,315.7z"/>
<path class="st8" d="M379.5,418c0,7.9-2,15.6-5.8,22.6c-0.8,1.5-1.7,2.9-2.6,4.2c-0.9,1.4-2,2.7-3.1,4c-0.1,0.1-0.1,0.2-0.2,0.2
	c-0.4,0.5-0.9,1-1.3,1.5L366,451c-0.5,0.5-1,1-1.6,1.5c-0.1,0.1-0.1,0.1-0.2,0.2c-0.3,0.2-0.5,0.5-0.8,0.7c-1.4,1.2-2.9,2.4-4.4,3.4
	c-0.8,0.5-1.6,1.1-2.4,1.5l-0.6,0.4l-1.2,0.7l0,0l-0.6,0.3h-0.1l-0.2,0.1l-0.3,0.2l-0.2,0.1l-1,0.5l-0.5,0.2l-1,0.4l-1.4,0.6l0,0
	l-0.8,0.3l-0.5,0.2l0,0l-1.2,0.4h-0.1l-0.3,0.1l-0.2,0.1l-0.7,0.2l-0.2,0.1h-0.1h-0.1h-0.1l-0.4,0.1c-0.1,0-0.2,0.1-0.3,0.1
	l-0.7,0.2l0,0c-0.5,0.1-1,0.3-1.6,0.3c-0.9,0.2-1.7,0.3-2.6,0.5s-1.8,0.3-2.8,0.3c-1.4,0.1-2.7,0.2-4.1,0.2h-0.3
	c-1.3,0-2.6-0.1-3.9-0.2l-1.1-0.1H327h-0.2c-0.5,0-1-0.1-1.4-0.2h-0.1l-1.3-0.2l-0.3-0.1c-0.6-0.1-1.2-0.2-1.8-0.4h-0.1
	c-0.7-0.2-1.4-0.3-2.1-0.5l-0.9-0.3l-0.8-0.3l-0.3-0.1l0,0l-0.7-0.3l-0.5-0.2l0,0c-0.4-0.1-0.7-0.3-1.1-0.4l0,0l-0.4-0.2l0,0
	l-0.5-0.2c-0.5-0.2-1-0.4-1.5-0.7l0,0c-1.1-0.5-2.1-1-3.1-1.6l-0.5-0.3l-0.7-0.4l-0.4-0.2c-0.5-0.3-1-0.6-1.5-1l0,0
	c-0.5-0.3-1-0.7-1.5-1l-0.1-0.1l-0.1-0.1l-0.9-0.6l-0.6-0.5c-1.3-1-2.5-2-3.6-3.2c-1.1-1-2.1-2.1-3.1-3.3
	c-17-19.6-14.9-49.3,4.8-66.3c19.6-17,49.3-14.9,66.3,4.8C375.5,395.6,379.5,406.6,379.5,418z"/>
<g class="st11">
	<path class="st12" d="M345.3,463.2v-0.1V463.2z"/>
	<path class="st12" d="M308.4,461.6l-0.2-0.1C308.3,461.5,308.3,461.6,308.4,461.6z"/>
</g>
<path class="st8" d="M379.5,537c0,7.9-2,15.6-5.8,22.6c-0.8,1.5-1.7,2.9-2.6,4.2c-0.9,1.4-2,2.7-3.1,4c-0.1,0.1-0.1,0.1-0.2,0.2l0,0
	c-0.4,0.5-0.9,1-1.3,1.5l-0.1,0.2l-0.4,0.4c-0.5,0.5-1,1-1.6,1.5c-0.1,0.1-0.1,0.1-0.2,0.2c-0.3,0.2-0.5,0.5-0.8,0.7
	c-1,0.9-2.1,1.8-3.3,2.6l-0.2,0.1l-0.4,0.3c-0.2,0.1-0.4,0.3-0.5,0.4c-0.8,0.5-1.6,1.1-2.4,1.5l-0.4,0.2l-0.3,0.2l-1.2,0.7l0,0
	l-0.6,0.3H354l-0.2,0.1l-0.3,0.2l-0.2,0.1l-1,0.5l-0.5,0.2l-1,0.4l-1.4,0.6l0,0l-0.8,0.3l-0.5,0.2l0,0l-0.2,0.1l-1,0.3h-0.1
	l-0.3,0.1l-0.2,0.1l-0.3,0.1l-0.4,0.1l-0.2,0.1h-0.1h-0.1h-0.1l-0.4,0.1c-0.1,0-0.2,0.1-0.3,0.1l-0.7,0.2l0,0
	c-0.5,0.1-1,0.3-1.6,0.3c-0.9,0.2-1.7,0.3-2.6,0.5c-0.5,0.1-1,0.1-1.6,0.2h-0.2l-1,0.1c-1.4,0.1-2.7,0.2-4.1,0.2h-1.1
	c-1,0-2.1-0.1-3.1-0.2h-0.3l-0.8-0.1H327h-0.2l-1-0.1l-0.5-0.1h-0.1l-1.3-0.2l-0.3-0.1l-0.8-0.2l-0.4-0.1l-0.6-0.1h-0.1
	c-0.7-0.2-1.4-0.3-2.1-0.5l-0.4-0.1h-0.1l-0.4-0.1l-0.4-0.1l-0.4-0.1l-0.3-0.1l0,0l-0.7-0.3l-0.5-0.2l0,0L316,581l-0.6-0.2l0,0
	l-0.4-0.2l0,0l-0.5-0.2c-0.5-0.2-1-0.4-1.5-0.7l0,0c-0.8-0.4-1.6-0.7-2.3-1.2c-0.3-0.1-0.5-0.3-0.8-0.4l-0.2-0.1l0,0l-0.2-0.1
	l-0.7-0.4l-0.4-0.2c-0.5-0.3-1-0.6-1.5-1l0,0c-0.5-0.3-1-0.7-1.5-1l-0.1-0.1l-0.1-0.1l-0.4-0.3l-0.5-0.3l-0.1-0.1
	c-0.2-0.2-0.4-0.3-0.6-0.4c-1.3-1-2.5-2-3.6-3.2c-1.1-1-2.1-2.1-3.1-3.3c-17-19.6-14.9-49.3,4.7-66.3s49.3-14.9,66.3,4.7
	C375.5,514.6,379.5,525.6,379.5,537z"/>
<path class="st6" d="M362.8,558c-0.4-0.8-1.3-1.1-2.1-0.7l-13.7,7c0-0.2-0.1-0.4-0.2-0.5l0,0c0-0.4-0.2-0.8-0.6-1
	c-0.1-0.1-0.2-0.2-0.3-0.3l0,0c0-0.1,0-0.2,0-0.3l0,0c0-0.2,0-0.5-0.2-0.7c0-0.5-0.3-1-0.8-1.3l0,0c0-0.1,0-0.2,0-0.3
	c0-0.2-0.1-0.4-0.2-0.6l0,0c0-0.7-0.5-1.3-1.5-2.1c-0.4-0.4-0.6-0.8-0.8-1.3c0,0,0,0,0-0.1c-0.2-0.7-0.3-1.4-0.6-2.1
	c-0.1-0.4-0.2-0.8-0.4-1.2c-0.7-1.9-1.5-1.7-1.9-2s-2.5-0.8-3.6-1.3c-0.9-0.5-4,0-4.9,0.2c0-0.1,0-0.1,0-0.2
	c4.6-1.4,7.4-6.1,6.4-10.8l-0.1-0.2c0.5,0,1-0.1,1.4-0.3c0.4-0.3,0.6-0.7,0.6-1.2c0.3-0.9,0.3-1.8,0.2-2.7c0-0.1-0.1-0.2-0.1-0.3
	s0-0.2-0.1-0.2l0,0l0,0l0,0c0-0.1,0-0.2,0-0.2c-0.1-0.3-0.2-0.6-0.3-0.8c0,0,0,0,0,0.1c-0.7-1.1-1.5-2.1-2.3-3.1
	c-0.8-1.2-1.3-2.7-2.5-3.5c-1.3-0.7-2.8-0.7-4.1-0.2c-0.6,0.2-1.3,0.4-1.9,0.5c-1.1,0-2.2,0-3.3-0.2c-1.6-0.1-3.1,0.3-4.4,1.2
	c-0.3,0.2-0.5,0.4-0.7,0.7c-0.2,0.4-0.3,0.9-0.3,1.3c-0.1,0.8-0.4,1.6-0.9,2.4c-0.3,0.6-0.8,1.1-1.1,1.7c-0.3,0.6-0.4,1.3-0.3,1.9
	c0.1,0.3,0.3,0.6,0.4,1c0,0.8-0.2,1.6-0.7,2.3c-0.3,0.7-0.5,1.4-0.5,2.2c0,0.6,0.3,1.1,0.6,1.6l0,0l0,0c0.1,0.1,0.1,0.3,0.2,0.4v0.1
	c0.1,0.1,0.1,0.2,0.2,0.3l0.1,0.1l0.2,0.2c0.6,0.4,1.3,0.6,2,0.6l0,0c0.1,0.1,0.1,0.2,0.2,0.3v0.2c0,0.1,0,0.1,0,0.2
	c-0.1,0-2.1,0.3-2.7,1.1c-0.7,0.6-1.5,0.9-2.4,1c0,0-2,0.7-1.9,0.8s-0.6,0.4-1.8,0.7s-3.3,1.5-3.3,1.8s-3.2,3.5-3.2,3.8
	c-0.6,1.1-0.9,2.4-0.9,3.7c0.1,2.2,0.3,4.9-0.2,5.3s0,2.2,0,2.2c0.3,0.4,0.3,0.9,0,1.3c-0.4,0.7,0.1,3.8,0.1,3.8v3.2
	c0.1,0.5,0.2,0.9,0.2,1.4l0.1,0.1l0.5,0.3l0.4,0.3l0.1,0.1l0.1,0.1c0.5,0.3,1,0.7,1.5,1l0,0c0.5,0.3,1,0.6,1.5,1l0.4,0.2l0.7,0.4
	l0.2,0.1l0,0l0.2,0.1c0.3,0.2,0.5,0.3,0.8,0.4c0.8,0.4,1.5,0.8,2.3,1.2l0,0c0.5,0.2,1,0.5,1.5,0.7l0.5,0.2l0,0l0.4,0.2l0,0l0.6,0.2
	l0.5,0.2l0,0l0.5,0.2l0.7,0.3l0,0l0.3,0.1l0.4,0.1l0.4,0.1l0.4,0.1h0.1l0.4,0.1c0.7,0.2,1.4,0.4,2.1,0.5h0.1l0.6,0.1l0.4,0.1
	l0.8,0.2l0.3,0.1l1.3,0.2h0.1l0.5,0.1l1,0.1h0.2h0.3l0.8,0.1h0.3c1,0.1,2,0.1,3.1,0.2h1.1c1.4,0,2.8-0.1,4.1-0.2l1-0.1h0.2
	c0.5-0.1,1-0.1,1.6-0.2c0.9-0.1,1.7-0.3,2.6-0.5c0.5-0.1,1.1-0.2,1.6-0.3l0,0l0.7-0.2c0.1,0,0.2,0,0.3-0.1l0.4-0.1h0.1h0.1h0.1
	l0.2-0.1l0.4-0.1l0.3-0.1l0.2-0.1l0.3-0.1h0.1l1-0.3l0.2-0.1l0,0l0.5-0.2l0.8-0.3l0,0l1.4-0.6l1-0.4l0.5-0.2l1-0.5l0.2-0.1l0.3-0.2
	l0.2-0.1h0.1l0.6-0.3l0,0l1.2-0.7l0.3-0.2l0.4-0.2c0.8-0.5,1.6-1,2.4-1.5c0.2-0.1,0.4-0.3,0.5-0.4h0.2l0.2-0.3l0.2-0.1
	c1.1-0.8,2.2-1.7,3.3-2.6c0.3-0.2,0.5-0.5,0.8-0.7c0.1-0.1,0.1-0.1,0.2-0.2c0.5-0.5,1.1-1,1.6-1.5l0.4-0.4l0.1-0.2
	c0.5-0.5,0.9-1,1.3-1.5l0,0L362.8,558z M340,573.6l-0.3,0.1c0-0.1,0-0.1,0.1-0.2c0,0-1.5,0.1-3.1,0.2c0-0.3,0-0.5,0.1-0.8
	c0.4-1.1,0.6-2.2,0.8-3.4l0,0l2.7,4.1L340,573.6z M340.5,581.4c0-0.1,0-0.3,0-0.4c0.1-0.1,0.1-0.1,0.2-0.2c0-0.4-0.1-0.9-0.1-1.3
	l0,0h0.2l2.8-0.4c0,0,0.4,0,1-0.1l0.2,0.5c-1.3,0.4-2.5,0.9-3.6,1.6C341.1,581.1,340.9,581.2,340.5,581.4L340.5,581.4z"/>
<path class="st6" d="M858.9,166.8l-4-4c-0.8-0.8-2.2-0.8-3,0l0,0L827,187.5l-10.5-10.6c-0.8-0.8-2.1-0.8-3,0l0,0l-4,4
	c-0.8,0.8-0.8,2.2,0,3l0,0l16,16.1c0.8,0.8,2.2,0.8,3,0l0,0l30.3-30.1C859.7,169.1,859.7,167.7,858.9,166.8
	C858.9,166.9,858.9,166.8,858.9,166.8z"/>
<path class="st6" d="M858.9,284l-4-4c-0.8-0.8-2.2-0.8-3,0l0,0l-24.8,24.7l-10.5-10.6c-0.8-0.8-2.1-0.8-3,0l0,0l-4,4
	c-0.8,0.8-0.8,2.2,0,3l0,0l16,16.1c0.8,0.8,2.2,0.8,3,0l0,0l30.3-30.2C859.7,286.1,859.7,284.8,858.9,284L858.9,284z"/>
<path class="st6" d="M858.9,520.4l-4-4c-0.8-0.8-2.2-0.8-3,0l0,0L827,541l-10.5-10.6c-0.8-0.8-2.2-0.8-3,0l0,0l-4,4
	c-0.8,0.8-0.8,2.2,0,3l0,0l16,16.1c0.8,0.8,2.2,0.8,3,0l30.3-30.1C859.7,522.6,859.7,521.3,858.9,520.4L858.9,520.4z"/>
<ellipse transform="matrix(0.7967 -0.6043 0.6043 0.7967 -21.5162 104.2588)" class="st12" cx="144.2" cy="84.1" rx="13.5" ry="27.1"/>
<ellipse transform="matrix(0.7967 -0.6043 0.6043 0.7967 -21.5162 104.2588)" class="st13" cx="144.2" cy="84.1" rx="13.5" ry="27.1"/>
<ellipse transform="matrix(0.7967 -0.6043 0.6043 0.7967 -21.5056 104.2272)" class="st6" cx="144.2" cy="84.1" rx="12.4" ry="26.4"/>
<path class="st13" d="M128.1,63.4c5.1,10.2,11.6,19.6,19.3,27.9c1.5,1.6,3,3.1,4.4,4.6l8.4,8.6"/>
<ellipse transform="matrix(0.7967 -0.6043 0.6043 0.7967 -1.6374 73.3553)" class="st12" cx="108.2" cy="39.1" rx="13.5" ry="27.1"/>
<ellipse transform="matrix(0.7967 -0.6043 0.6043 0.7967 -1.6374 73.3553)" class="st13" cx="108.2" cy="39.1" rx="13.5" ry="27.1"/>
<ellipse transform="matrix(0.7967 -0.6043 0.6043 0.7967 -1.63 73.3262)" class="st6" cx="108.2" cy="39.1" rx="12.4" ry="26.4"/>
<path class="st13" d="M92.1,18.4c5.1,10.2,11.6,19.6,19.3,27.9c1.5,1.6,3,3.1,4.4,4.6l8.4,8.6"/>
<ellipse transform="matrix(0.7966 -0.6045 0.6045 0.7966 0.8381 96.6726)" class="st12" cx="144.1" cy="47.1" rx="23.1" ry="11.5"/>
<ellipse transform="matrix(0.7966 -0.6045 0.6045 0.7966 0.8381 96.6726)" class="st13" cx="144.1" cy="47.1" rx="23.1" ry="11.5"/>
<ellipse transform="matrix(0.7966 -0.6045 0.6045 0.7966 0.8127 96.6444)" class="st6" cx="144" cy="47.1" rx="22.5" ry="10.6"/>
<path class="st13" d="M161.7,33.3c-8.7,4.3-16.7,9.9-23.8,16.4c-1.4,1.3-2.7,2.5-4,3.8l-7.3,7.1"/>
<ellipse transform="matrix(0.8669 -0.4985 0.4985 0.8669 -22.4717 63.4604)" class="st12" cx="107.6" cy="73.8" rx="23.1" ry="11.5"/>
<ellipse transform="matrix(0.8669 -0.4985 0.4985 0.8669 -22.4717 63.4604)" class="st13" cx="107.6" cy="73.8" rx="23.1" ry="11.5"/>
<ellipse transform="matrix(0.8669 -0.4985 0.4985 0.8669 -22.4558 63.4688)" class="st6" cx="107.6" cy="73.8" rx="22.5" ry="10.6"/>
<path class="st13" d="M88.1,84.7c7.4-6.3,15.6-11.5,24.4-15.6c1.7-0.8,3.4-1.5,5-2.2l9.4-4"/>
<ellipse transform="matrix(0.791 -0.6118 0.6118 0.791 -8.0904 84.474)" class="st12" cx="119.6" cy="54.1" rx="5" ry="10"/>
<ellipse transform="matrix(0.791 -0.6118 0.6118 0.791 -8.0904 84.474)" class="st13" cx="119.6" cy="54.1" rx="5" ry="10"/>
<ellipse transform="matrix(0.791 -0.6118 0.6118 0.791 -8.0943 84.4824)" class="st6" cx="119.6" cy="54.1" rx="4.6" ry="9.7"/>
<path class="st13" d="M113.8,46.4c3.1,2.8,5.8,6,8.1,9.5c0.4,0.7,0.8,1.3,1.2,2l2.3,3.8"/>
<ellipse transform="matrix(0.791 -0.6118 0.6118 0.791 -15.2897 95.4079)" class="st12" cx="132" cy="70.1" rx="5" ry="10"/>
<ellipse transform="matrix(0.791 -0.6118 0.6118 0.791 -15.2897 95.4079)" class="st13" cx="132" cy="70.1" rx="5" ry="10"/>
<ellipse transform="matrix(0.791 -0.6118 0.6118 0.791 -15.2939 95.424)" class="st6" cx="132" cy="70.1" rx="4.6" ry="9.7"/>
<path class="st13" d="M126.2,62.4c3.1,2.8,5.8,6,8.1,9.5c0.4,0.7,0.8,1.3,1.2,2l2.3,3.8"/>
<circle class="st14" cx="125.8" cy="62.2" r="2"/>
<path class="st6" d="M962.7,663.1c-0.3-1.4-6.5-34.4,12.3-78c7.4-17.1,6.8-31.8-1.8-43.7c-3.9-5.4-9.1-9.8-15-12.9l2.2-4.9
	c6.8,3.4,12.7,8.5,17.2,14.7c6.7,9.3,12.5,25.4,2.4,49c-18.2,42.1-12,74.5-12,74.8L962.7,663.1z"/>
<path class="st12" d="M990.7,581.8c7.6-0.7,13.9-1.4,14.1,1s-5.8,6.9-13.3,7.5s-13.9-0.7-14.1-3.1S983.1,582.4,990.7,581.8z"/>
<path class="st13" d="M990.7,581.8c7.6-0.7,13.9-1.4,14.1,1s-5.8,6.9-13.3,7.5s-13.9-0.7-14.1-3.1S983.1,582.4,990.7,581.8z"/>
<path class="st6" d="M990.7,581.8c7.4-0.6,13.5-1.6,13.7,0.4s-5.7,6.2-13,6.9s-13.5-0.5-13.7-2.5S983.3,582.4,990.7,581.8z"/>
<path class="st13" d="M977.8,586.7c5.7,0.1,11.5-0.2,17.2-1c1.1-0.2,2.2-0.3,3.2-0.5c2-0.3,4-2.7,6-3"/>
<path class="st12" d="M977.4,625.8c7.6-0.6,13.9-1.3,14.1,1s-5.8,6.9-13.3,7.5s-13.9-0.7-14.1-3.1S969.8,626.5,977.4,625.8z"/>
<path class="st13" d="M977.4,625.8c7.6-0.6,13.9-1.3,14.1,1s-5.8,6.9-13.3,7.5s-13.9-0.7-14.1-3.1S969.8,626.5,977.4,625.8z"/>
<path class="st6" d="M977.5,625.8c7.4-0.6,13.5-1.6,13.7,0.4s-5.7,6.2-13,6.9s-13.5-0.5-13.7-2.5S970.1,626.5,977.5,625.8z"/>
<path class="st13" d="M964.5,630.7c5.7,0.1,11.5-0.2,17.2-1c1.1-0.2,2.2-0.3,3.2-0.5c2-0.3,4-2.7,6-3"/>
<path class="st12" d="M966.1,577.9c-7.1-2.8-12.9-5.2-13.8-3s3.6,8.2,10.7,11s13.5,3.2,14.4,1S973.1,580.7,966.1,577.9z"/>
<path class="st13" d="M966.1,577.9c-7.1-2.8-12.9-5.2-13.8-3s3.6,8.2,10.7,11s13.5,3.2,14.4,1S973.1,580.7,966.1,577.9z"/>
<path class="st6" d="M966,578c-6.9-2.7-12.5-5.3-13.2-3.5s3.7,7.6,10.6,10.3s13.1,3.3,13.8,1.5S972.9,580.6,966,578z"/>
<path class="st13" d="M977.1,586.2c-5.6-1.5-11-3.4-16.2-5.8c-1-0.5-2-0.9-3-1.4c-1.8-0.9-3.1-3.7-4.9-4.6"/>
<path class="st12" d="M954.2,622c-7.1-2.8-12.9-5.2-13.8-3s3.6,8.2,10.7,11s13.5,3.2,14.4,1S961.3,624.8,954.2,622z"/>
<path class="st13" d="M954.2,622c-7.1-2.8-12.9-5.2-13.8-3s3.6,8.2,10.7,11s13.5,3.2,14.4,1S961.3,624.8,954.2,622z"/>
<path class="st6" d="M954.2,622c-6.9-2.7-12.5-5.3-13.2-3.5s3.7,7.6,10.6,10.3s13.1,3.3,13.8,1.5S961.1,624.7,954.2,622z"/>
<path class="st13" d="M965.3,630.4c-5.6-1.5-11-3.5-16.3-5.8c-1-0.5-2-0.9-3-1.4c-1.8-0.9-3.1-3.7-4.9-4.6"/>
<path class="st12" d="M951.6,631.2c-7.2,2.4-13.3,4.2-12.6,6.5s8,4.1,15.2,1.7s12.5-6.1,11.8-8.4S958.8,628.8,951.6,631.2z"/>
<path class="st13" d="M951.6,631.2c-7.2,2.4-13.3,4.2-12.6,6.5s8,4.1,15.2,1.7s12.5-6.1,11.8-8.4S958.8,628.8,951.6,631.2z"/>
<path class="st6" d="M951.5,631.2c-7,2.3-13,3.8-12.4,5.7s7.7,3.5,14.7,1.2s12.2-5.7,11.6-7.7S958.6,629,951.5,631.2z"/>
<path class="st13" d="M965.3,630.6c-5.2,2.4-10.7,4.3-16.2,5.8l-3.2,0.8c-2,0.5-4.7-0.9-6.7-0.4"/>
<ellipse transform="matrix(0.2362 -0.9717 0.9717 0.2362 238.7463 1362.7365)" class="st12" cx="986.2" cy="529.5" rx="10.6" ry="21.3"/>
<ellipse transform="matrix(0.2362 -0.9717 0.9717 0.2362 238.7463 1362.7365)" class="st13" cx="986.2" cy="529.5" rx="10.6" ry="21.3"/>
<ellipse transform="matrix(0.2362 -0.9717 0.9717 0.2362 238.7227 1362.8086)" class="st6" cx="986.2" cy="529.6" rx="9.8" ry="20.8"/>
<path class="st13" d="M966,524.8c8.2,3.7,16.8,6.2,25.7,7.5c1.7,0.2,3.4,0.4,5,0.6l9.4,1.1"/>
<ellipse transform="matrix(0.2209 -0.9753 0.9753 0.2209 262.4376 1332.462)" class="st12" cx="965.2" cy="502" rx="21.3" ry="10.6"/>
<ellipse transform="matrix(0.2209 -0.9753 0.9753 0.2209 262.4376 1332.462)" class="st13" cx="965.2" cy="502" rx="21.3" ry="10.6"/>
<ellipse transform="matrix(0.2209 -0.9753 0.9753 0.2209 262.511 1332.4834)" class="st6" cx="965.3" cy="501.9" rx="20.8" ry="9.8"/>
<path class="st13" d="M960.9,522.1c3.6-8.2,5.9-16.9,7.1-25.8c0.2-1.7,0.4-3.4,0.6-5l1-9.4"/>
<ellipse transform="matrix(0.2209 -0.9753 0.9753 0.2209 208.9897 1358.218)" class="st12" cx="954.6" cy="548.3" rx="21.3" ry="10.6"/>
<ellipse transform="matrix(0.2209 -0.9753 0.9753 0.2209 208.9897 1358.218)" class="st13" cx="954.6" cy="548.3" rx="21.3" ry="10.6"/>
<ellipse transform="matrix(0.2209 -0.9753 0.9753 0.2209 208.9519 1358.2905)" class="st6" cx="954.6" cy="548.4" rx="20.8" ry="9.8"/>
<path class="st13" d="M950.3,568.5c3.5-8.2,5.9-16.9,7.1-25.8c0.2-1.7,0.4-3.4,0.6-5l1-9.4"/>
<ellipse transform="matrix(0.2362 -0.9717 0.9717 0.2362 209.9444 1303.8962)" class="st12" cx="934.4" cy="518.4" rx="10.6" ry="21.3"/>
<ellipse transform="matrix(0.2362 -0.9717 0.9717 0.2362 209.9444 1303.8962)" class="st13" cx="934.4" cy="518.4" rx="10.6" ry="21.3"/>
<ellipse transform="matrix(0.2362 -0.9717 0.9717 0.2362 209.8548 1303.8523)" class="st6" cx="934.3" cy="518.4" rx="9.8" ry="20.8"/>
<path class="st13" d="M914.1,513.7c8.2,3.7,16.8,6.2,25.7,7.5c1.7,0.2,3.3,0.4,5,0.6l9.4,1.1"/>
<ellipse transform="matrix(0.7967 -0.6043 0.6043 0.7967 -128.5536 696.7783)" class="st12" cx="971.5" cy="539.5" rx="9.1" ry="18.3"/>
<ellipse transform="matrix(0.7967 -0.6043 0.6043 0.7967 -128.5536 696.7783)" class="st13" cx="971.5" cy="539.5" rx="9.1" ry="18.3"/>
<ellipse transform="matrix(0.7967 -0.6043 0.6043 0.7967 -128.6349 696.7753)" class="st6" cx="971.5" cy="539.6" rx="8.4" ry="17.8"/>
<path class="st13" d="M960.7,525.6c3.4,6.8,7.8,13.2,13,18.8c1,1.1,2,2.1,3,3.1l5.6,5.8"/>
<ellipse transform="matrix(0.8 -0.6 0.6 0.8 -119.6928 671.7496)" class="st12" cx="947.8" cy="515.4" rx="9.1" ry="18.3"/>
<ellipse transform="matrix(0.8 -0.6 0.6 0.8 -119.6928 671.7496)" class="st13" cx="947.8" cy="515.4" rx="9.1" ry="18.3"/>
<ellipse transform="matrix(0.7967 -0.6043 0.6043 0.7967 -115.1798 675.937)" class="st6" cx="947.2" cy="509.2" rx="8.4" ry="17.8"/>
<path class="st13" d="M936.4,495.2c3.4,6.8,7.8,13.2,13,18.8c1,1.1,2,2.1,3,3.1l5.6,5.8"/>
<ellipse transform="matrix(0.7966 -0.6045 0.6045 0.7966 -113.4882 691.9512)" class="st12" cx="971.5" cy="514.6" rx="15.6" ry="7.8"/>
<ellipse transform="matrix(0.7966 -0.6045 0.6045 0.7966 -113.4882 691.9512)" class="st13" cx="971.5" cy="514.6" rx="15.6" ry="7.8"/>
<ellipse transform="matrix(0.7966 -0.6045 0.6045 0.7966 -113.4349 691.9024)" class="st6" cx="971.5" cy="514.5" rx="15.2" ry="7.1"/>
<path class="st13" d="M983.3,505.3c-5.8,2.9-11.3,6.7-16.1,11.1c-0.9,0.8-1.8,1.7-2.7,2.5l-5,4.8"/>
<ellipse transform="matrix(0.8669 -0.4985 0.4985 0.8669 -139.4552 542.9088)" class="st12" cx="946.9" cy="532.6" rx="15.6" ry="7.8"/>
<ellipse transform="matrix(0.8669 -0.4985 0.4985 0.8669 -139.4552 542.9088)" class="st13" cx="946.9" cy="532.6" rx="15.6" ry="7.8"/>
<ellipse transform="matrix(0.8669 -0.4985 0.4985 0.8669 -139.4465 542.9144)" class="st6" cx="946.9" cy="532.6" rx="15.2" ry="7.1"/>
<path class="st13" d="M933.7,539.9c5-4.2,10.5-7.8,16.5-10.5c1.1-0.5,2.3-1,3.4-1.5l6.4-2.7"/>
<ellipse transform="matrix(0.791 -0.6118 0.6118 0.791 -118.1484 692.7555)" class="st12" cx="954.9" cy="519.3" rx="3.3" ry="6.7"/>
<ellipse transform="matrix(0.791 -0.6118 0.6118 0.791 -118.1484 692.7555)" class="st13" cx="954.9" cy="519.3" rx="3.3" ry="6.7"/>
<ellipse transform="matrix(0.791 -0.6118 0.6118 0.791 -118.0984 692.7995)" class="st6" cx="955" cy="519.3" rx="3.1" ry="6.5"/>
<path class="st13" d="M951,514.1c2.1,1.9,3.9,4,5.4,6.4c0.3,0.5,0.6,0.9,0.8,1.4l1.5,2.5"/>
<ellipse transform="matrix(0.791 -0.6118 0.6118 0.791 -122.9508 700.0994)" class="st12" cx="963.3" cy="530" rx="3.3" ry="6.7"/>
<ellipse transform="matrix(0.791 -0.6118 0.6118 0.791 -122.9508 700.0994)" class="st13" cx="963.3" cy="530" rx="3.3" ry="6.7"/>
<ellipse transform="matrix(0.791 -0.6118 0.6118 0.791 -122.9497 700.1049)" class="st6" cx="963.3" cy="530" rx="3.1" ry="6.5"/>
<path class="st13" d="M959.4,524.9c2.1,1.9,3.9,4,5.4,6.4c0.3,0.5,0.5,0.9,0.8,1.4l1.5,2.5"/>
<circle class="st12" cx="959.2" cy="524.7" r="1.4"/>
<circle class="st6" cx="959.2" cy="524.7" r="1.4"/>
<g>
	<path class="st6" d="M121.2,594.4c-0.7-7.7-0.6-15.5,0.3-23.3c0-0.3,0.1-0.7,0.1-1.1c0.1-0.6,0.1-1.3,0.2-2c0-0.2,0-0.4,0.1-0.6
		c0.1-0.8,0.2-1.6,0.3-2.4v-0.1c1.9-13.1,5.5-25.9,10.6-38.1l0.4-0.9c0.1-0.3,0.3-0.6,0.4-1s0.2-0.4,0.2-0.5s0.1-0.3,0.2-0.5
		c0.3-0.8,0.7-1.6,1-2.4v-0.1c4.8-12.7,4.8-23,2.7-31.2c-0.1-0.3-0.1-0.5-0.2-0.8c-1.3-4.7-3.4-9.1-6.2-13l-0.5-0.6
		c-0.3-0.4-0.6-0.8-1-1.3c-2.9-3.6-6.3-6.8-10.1-9.4l-0.6-0.4c-0.3-0.2-0.6-0.4-0.9-0.6s-0.5-0.3-0.8-0.5c-0.4-0.3-0.9-0.5-1.2-0.7
		l-0.6-0.3c-0.8-0.4-1.3-0.7-1.4-0.7l-0.1,0.3l-0.2,0.4v0.1l0,0l-0.1,0.2v0.1v0.1l-0.1,0.3v0.1l-0.1,0.3v0.1l-0.3,0.6l-0.5,1.1
		l-0.1,0.1l-0.1,0.3l-0.1,0.3l-0.3,0.6l0.4,0.2l0.2,0.1c0,0,0,0,0.1,0h0.1l0.1,0.1l0.2,0.1l0.7,0.4l0.4,0.3c0.8,0.5,1.8,1.1,2.9,1.9
		l1,0.8l0.5,0.4c0.5,0.4,1,0.8,1.4,1.2l0,0l0.4,0.4c0.3,0.2,0.6,0.5,0.9,0.8l0.1,0.1c0.8,0.8,1.6,1.6,2.5,2.5c1.1,1.2,2.1,2.4,3,3.7
		c0.3,0.4,0.6,0.9,0.9,1.3c1,1.5,1.9,3.2,2.7,4.8l0,0c1,2.2,1.8,4.5,2.3,6.8c0,0.2,0.1,0.3,0.1,0.5c1.8,8.4,0.6,17.8-3.5,28v0.1
		c-0.2,0.5-0.4,1.1-0.7,1.6v0.1c-0.1,0.1-0.1,0.3-0.2,0.4l-0.7,1.7c-0.1,0.3-0.3,0.7-0.4,1c-5,12.2-8.6,25-10.5,38v0.1
		c-0.1,0.8-0.2,1.5-0.3,2.2v0.2v0.1v0.2c-0.1,0.6-0.1,1.2-0.2,1.7l0,0l-0.1,0.6c0,0.2,0,0.3-0.1,0.5c-0.1,0.7-0.1,1.3-0.2,2
		c-0.1,0.5-0.1,0.9-0.1,1.4c-0.5,6-0.6,12.1-0.3,18.2L121.2,594.4z"/>
	<path class="st6" d="M144.4,519.7c7.5-0.6,13.7-1.3,13.9,1s-5.7,6.8-13.2,7.5s-13.7-0.7-13.9-3.1S136.9,520.3,144.4,519.7z"/>
	<path class="st15" d="M144.4,519.7c7.5-0.6,13.7-1.3,13.9,1s-5.7,6.8-13.2,7.5s-13.7-0.7-13.9-3.1S136.9,520.3,144.4,519.7z"/>
	<path class="st6" d="M144.4,519.7c7.3-0.6,13.4-1.6,13.5,0.4s-5.6,6.2-12.9,6.8s-13.4-0.5-13.5-2.5S137.1,520.3,144.4,519.7z"/>
	<path class="st16" d="M131.6,524.5c5.7,0.1,11.4-0.2,17-1l3.2-0.5c2-0.3,3.9-2.7,5.9-3L131.6,524.5z"/>
	<path class="st6" d="M131.2,563.2c7.5-0.6,13.7-1.3,13.9,1s-5.7,6.8-13.2,7.5s-13.7-0.7-14-3.1S123.7,563.9,131.2,563.2z"/>
	<path class="st15" d="M131.2,563.2c7.5-0.6,13.7-1.3,13.9,1s-5.7,6.8-13.2,7.5s-13.7-0.7-14-3.1S123.7,563.9,131.2,563.2z"/>
	<path class="st6" d="M131.3,563.3c7.3-0.6,13.4-1.6,13.5,0.4s-5.6,6.2-12.9,6.8s-13.3-0.5-13.5-2.5S124,563.9,131.3,563.3z"/>
	<path class="st16" d="M118.5,568.1c5.7,0.1,11.4-0.2,17-1c1.1-0.2,2.1-0.3,3.2-0.5c2-0.3,4-2.7,5.9-3L118.5,568.1z"/>
	<path class="st6" d="M120,515.8c-7-2.7-12.8-5.2-13.6-3c-0.9,2.2,3.6,8.2,10.6,10.9s13.4,3.2,14.2,1S127,518.6,120,515.8z"/>
	<path class="st15" d="M120,515.8c-7-2.7-12.8-5.2-13.6-3c-0.9,2.2,3.6,8.2,10.6,10.9s13.4,3.2,14.2,1S127,518.6,120,515.8z"/>
	<path class="st6" d="M120,515.9c-6.8-2.7-12.4-5.3-13.1-3.4c-0.7,1.8,3.6,7.5,10.5,10.2s12.9,3.3,13.7,1.5S126.8,518.5,120,515.9z"
		/>
	<path class="st16" d="M130.9,524.1c-5.5-1.5-10.8-3.4-16-5.8l-3-1.3c-1.8-0.8-3-3.7-4.8-4.5L130.9,524.1z"/>
	<path class="st6" d="M108.3,559.5c-7-2.7-12.8-5.2-13.7-3s3.6,8.2,10.6,10.9s13.4,3.2,14.2,1S115.3,562.2,108.3,559.5z"/>
	<path class="st15" d="M108.3,559.5c-7-2.7-12.8-5.2-13.7-3s3.6,8.2,10.6,10.9s13.4,3.2,14.2,1S115.3,562.2,108.3,559.5z"/>
	<path class="st6" d="M108.3,559.5c-6.8-2.7-12.4-5.3-13.1-3.4s3.6,7.5,10.5,10.2s12.9,3.3,13.7,1.5S115.1,562.2,108.3,559.5z"/>
	<path class="st16" d="M119.2,567.7c-5.5-1.5-10.8-3.4-16-5.8l-2.9-1.4c-1.8-0.8-3-3.7-4.8-4.5L119.2,567.7z"/>
	<path class="st6" d="M105.6,568.6c-7.1,2.3-13.2,4.2-12.4,6.4s7.9,4,15.1,1.7s12.3-6.1,11.6-8.3S112.8,566.2,105.6,568.6z"/>
	<path class="st15" d="M105.6,568.6c-7.1,2.3-13.2,4.2-12.4,6.4s7.9,4,15.1,1.7s12.3-6.1,11.6-8.3S112.8,566.2,105.6,568.6z"/>
	<path class="st6" d="M105.6,568.6c-7,2.3-12.9,3.8-12.3,5.7s7.6,3.5,14.5,1.2s12.1-5.7,11.5-7.6S112.6,566.3,105.6,568.6z"/>
	<path class="st16" d="M119.3,568c-5.2,2.3-10.6,4.3-16.1,5.7c-1,0.3-2.1,0.5-3.1,0.8c-1.9,0.5-4.7-0.9-6.6-0.4L119.3,568z"/>
	
		<ellipse transform="matrix(0.2362 -0.9717 0.9717 0.2362 -347.9545 493.2797)" class="st6" cx="139.8" cy="468" rx="10.5" ry="21.1"/>
	
		<ellipse transform="matrix(0.2362 -0.9717 0.9717 0.2362 -347.9545 493.2797)" class="st15" cx="139.8" cy="468" rx="10.5" ry="21.1"/>
	
		<ellipse transform="matrix(0.2362 -0.9717 0.9717 0.2362 -347.9917 493.3448)" class="st6" cx="139.8" cy="468" rx="9.7" ry="20.6"/>
	<path class="st16" d="M119.9,463.3c8.1,3.6,16.6,6.1,25.4,7.4c1.6,0.2,3.3,0.4,5,0.6l9.3,1.1L119.9,463.3z"/>
	
		<ellipse transform="matrix(0.2209 -0.9753 0.9753 0.2209 -337.0093 459.5785)" class="st6" cx="119.2" cy="440.7" rx="21.1" ry="10.5"/>
	
		<ellipse transform="matrix(0.2209 -0.9753 0.9753 0.2209 -337.0093 459.5785)" class="st15" cx="119.2" cy="440.7" rx="21.1" ry="10.5"/>
	
		<ellipse transform="matrix(0.2209 -0.9753 0.9753 0.2209 -336.936 459.5998)" class="st6" cx="119.2" cy="440.7" rx="20.6" ry="9.7"/>
	<path class="st16" d="M114.9,460.6c3.5-8.1,5.9-16.7,7-25.5c0.2-1.7,0.4-3.3,0.6-5l0.9-9.3L114.9,460.6z"/>
	
		<ellipse transform="matrix(0.2209 -0.9753 0.9753 0.2209 -389.9412 484.9612)" class="st6" cx="108.6" cy="486.5" rx="21.1" ry="10.5"/>
	
		<ellipse transform="matrix(0.2209 -0.9753 0.9753 0.2209 -389.9412 484.9612)" class="st15" cx="108.6" cy="486.5" rx="21.1" ry="10.5"/>
	
		<ellipse transform="matrix(0.2209 -0.9753 0.9753 0.2209 -389.8342 485.1023)" class="st6" cx="108.7" cy="486.6" rx="20.6" ry="9.7"/>
	<path class="st16" d="M104.4,506.5c3.5-8.1,5.9-16.7,7-25.5c0.2-1.7,0.4-3.3,0.6-5l0.9-9.3L104.4,506.5z"/>
	
		<ellipse transform="matrix(0.2362 -0.9717 0.9717 0.2362 -376.4261 435.0071)" class="st6" cx="88.5" cy="456.9" rx="10.5" ry="21.1"/>
	
		<ellipse transform="matrix(0.2362 -0.9717 0.9717 0.2362 -376.4261 435.0071)" class="st15" cx="88.5" cy="456.9" rx="10.5" ry="21.1"/>
	<ellipse transform="matrix(0.2362 -0.9717 0.9717 0.2362 -376.46 435.0737)" class="st6" cx="88.5" cy="457" rx="9.7" ry="20.6"/>
	<path class="st16" d="M68.6,452.3c8.1,3.6,16.6,6.1,25.4,7.4c1.7,0.2,3.3,0.4,5,0.6l9.3,1.1L68.6,452.3z"/>
	<ellipse transform="matrix(0.7967 -0.6043 0.6043 0.7967 -263.272 172.8842)" class="st6" cx="125.4" cy="477.8" rx="9" ry="18"/>
	<ellipse transform="matrix(0.7967 -0.6043 0.6043 0.7967 -263.272 172.8842)" class="st15" cx="125.4" cy="477.8" rx="9" ry="18"/>
	
		<ellipse transform="matrix(0.7967 -0.6043 0.6043 0.7967 -263.3006 172.9171)" class="st6" cx="125.4" cy="477.9" rx="8.3" ry="17.6"/>
	<path class="st16" d="M114.7,464.1c3.4,6.8,7.7,13,12.8,18.6c1,1,2,2.1,3,3.1l5.6,5.7L114.7,464.1z"/>
	<ellipse transform="matrix(0.7967 -0.6043 0.6043 0.7967 -250.0142 152.2871)" class="st6" cx="101.4" cy="447.8" rx="9" ry="18"/>
	
		<ellipse transform="matrix(0.7967 -0.6043 0.6043 0.7967 -250.0142 152.2871)" class="st15" cx="101.4" cy="447.8" rx="9" ry="18"/>
	
		<ellipse transform="matrix(0.7967 -0.6043 0.6043 0.7967 -250.0467 152.3189)" class="st6" cx="101.4" cy="447.9" rx="8.3" ry="17.6"/>
	<path class="st16" d="M90.7,434.1c3.4,6.8,7.7,13,12.8,18.6c1,1.1,2,2.1,3,3.1l5.6,5.7L90.7,434.1z"/>
	
		<ellipse transform="matrix(0.7966 -0.6045 0.6045 0.7966 -248.4705 167.9273)" class="st6" cx="125.3" cy="453.2" rx="15.4" ry="7.7"/>
	
		<ellipse transform="matrix(0.7966 -0.6045 0.6045 0.7966 -248.4705 167.9273)" class="st15" cx="125.3" cy="453.2" rx="15.4" ry="7.7"/>
	
		<ellipse transform="matrix(0.7966 -0.6045 0.6045 0.7966 -248.4513 167.931)" class="st6" cx="125.3" cy="453.2" rx="15" ry="7.1"/>
	<path class="st16" d="M137.1,444c-5.8,2.9-11.1,6.6-15.9,11c-0.9,0.8-1.8,1.7-2.6,2.5l-4.9,4.8L137.1,444z"/>
	<ellipse transform="matrix(0.8669 -0.4985 0.4985 0.8669 -221.3472 113.0404)" class="st6" cx="101" cy="471" rx="15.4" ry="7.7"/>
	
		<ellipse transform="matrix(0.8669 -0.4985 0.4985 0.8669 -221.3472 113.0404)" class="st15" cx="101" cy="471" rx="15.4" ry="7.7"/>
	<ellipse transform="matrix(0.8669 -0.4985 0.4985 0.8669 -221.3372 113.0484)" class="st6" cx="101" cy="471" rx="15" ry="7.1"/>
	<path class="st16" d="M88,478.2c4.9-4.2,10.4-7.7,16.3-10.4c1.1-0.5,2.2-1,3.4-1.5l6.3-2.7L88,478.2z"/>
	<ellipse transform="matrix(0.791 -0.6118 0.6118 0.791 -257.313 162.3507)" class="st6" cx="109" cy="457.8" rx="3.3" ry="6.6"/>
	<ellipse transform="matrix(0.791 -0.6118 0.6118 0.791 -257.313 162.3507)" class="st15" cx="109" cy="457.8" rx="3.3" ry="6.6"/>
	<ellipse transform="matrix(0.791 -0.6118 0.6118 0.791 -257.3159 162.355)" class="st6" cx="109" cy="457.8" rx="3" ry="6.5"/>
	<path class="st16" d="M105.1,452.7c2.1,1.9,3.9,4,5.4,6.3c0.3,0.4,0.6,0.9,0.8,1.3l1.5,2.5L105.1,452.7z"/>
	
		<ellipse transform="matrix(0.791 -0.6118 0.6118 0.791 -262.1074 169.6745)" class="st6" cx="117.3" cy="468.5" rx="3.3" ry="6.6"/>
	
		<ellipse transform="matrix(0.791 -0.6118 0.6118 0.791 -262.1074 169.6745)" class="st15" cx="117.3" cy="468.5" rx="3.3" ry="6.6"/>
	<ellipse transform="matrix(0.791 -0.6118 0.6118 0.791 -262.1062 169.6799)" class="st6" cx="117.3" cy="468.5" rx="3" ry="6.5"/>
	<path class="st16" d="M113.4,463.4c2.1,1.9,3.9,4,5.4,6.3c0.3,0.5,0.6,0.9,0.8,1.3l1.5,2.5L113.4,463.4z"/>
	<circle class="st6" cx="113.2" cy="463.2" r="1.3"/>
	<circle class="st16" cx="113.2" cy="463.2" r="1.3"/>
</g>
<linearGradient id="SVGID_3_" gradientUnits="userSpaceOnUse" x1="1483.2904" y1="601.1912" x2="1483.2904" y2="264.7566" gradientTransform="matrix(-1 0 0 1 1730 60.96)">
	<stop  offset="0" style="stop-color:#808080;stop-opacity:0.25"/>
	<stop  offset="0.54" style="stop-color:#808080;stop-opacity:0.12"/>
	<stop  offset="1" style="stop-color:#808080;stop-opacity:0.1"/>
</linearGradient>
<path class="st17" d="M163.7,448.1c1.8,2.7,3.6,8.8,3.5,9.8s5,6.7,6.4,8.5c1.2,1.6,2.2,3.4,3.1,5.2l4.7,8.8c2.9-1,5.8-2.3,8.5-3.8
	l1.7,0.2c1.3-0.1,2.6-0.3,3.9-0.6c0,0.2-0.1,0.4-0.1,0.7c-0.8,6.6-1.4,12-1.4,12s1.6,5.8,3.8,4l0.1-0.1c0.1,0.3,0.1,0.6,0.2,1
	c0.9,4.5,1.2,9.1,1.1,13.7c-0.4,6.8,1,17.1,1,17.1s3.1-0.3,7.7-0.5c0.1,0.3,0.3,0.7,0.4,1l0,0c0.4,1.1,0.9,2.4,1.4,3.7l0.1,0.2
	c0.1,0.2,0.1,0.3,0.2,0.5l0.1,0.3l0.2,0.4l0.2,0.5l0.1,0.3l0.3,0.7c0,0.1,0.1,0.1,0.1,0.2c0.1,0.2,0.1,0.4,0.2,0.5l0.1,0.2l0.2,0.5
	l0.1,0.2c0.3,0.7,0.6,1.4,0.9,1.9v0.1l0.3,0.5v0.1l0.3,0.4l0,0c0.1,0.2,0.2,0.3,0.2,0.4c2,3.1,3.5,8.6,3.5,8.6l1.9,11.3
	c0,0,0.4,2.8,0.6,5.2c0.1,0.9,0.1,1.8,0.1,2.4c0,0.2,0,0.6,0.1,1.1c0,0.1,0,0.2,0,0.2l0,0c0.2,2.1,0.6,6,1.1,10.6
	c0.1,0.9,0.2,1.9,0.3,2.8l0,0c-0.3,5.7-0.2,11.5,0.3,17.2c0,0-1.3,21.4-1,23.4c0.2,1.2-0.8,3.8-1.6,6l-0.3-0.2c0,0-4.8,5-4.7,10.8
	s0.5,13.5,0.5,13.5s0.4,3.2-0.5,4s0,5.3,0,5.3s8.4,7.7,15.4-0.6c0,0,1.4-4.8,0.8-7.8c0-0.3-0.1-0.6-0.2-1c-0.1-3.3-0.4-6.6-0.8-9.9
	l-0.8-6c0.9-0.1,2.2-4.8,1.6-6s0.5-6,0.5-6l2.1-6.5l0,0c0.1,0.2,0.2,0.4,0.3,0.7v0.1c0,0.1,0.1,0.2,0.1,0.3v0.1l0.4,1l0,0l0.1,0.3
	v0.1c0.1,0.4,0.3,0.7,0.4,1.1l0,0l0.1,0.3v0.1c0.1,0.4,0.2,0.7,0.3,1v0.1l0.1,0.3v0.1c0,0,0,0.2,0,0.3v0.1c0,0.2,0,0.3,0,0.5v0.1
	v0.3c0,0.1,0,0.1,0,0.2v0.2v0.1c-0.3,2.3-0.1,4.7,0.6,6.9v0.1c0,0.1,0.1,0.2,0.1,0.3s0,0.1,0.1,0.2c0,0.1,0.1,0.2,0.2,0.4l0,0
	c0.1,0.2,0.2,0.4,0.4,0.6l0,0l-0.3,23c0,0,3.3,5.1,10.9,4s6.5-9.3,5.4-10.7s-1.6-7.1-1.6-7.1s-1.3-9.5-2.2-12.9
	c-0.2-1.3-1-2.4-2.1-3c-0.3-1.1-0.8-2.1-0.9-2.2c-0.8-1.5-1.4-3-1.9-4.6c-0.2-0.5-0.2-1.1-0.1-1.7c0-0.4,0-0.7,0-1.1l0,0
	c0-0.1,0-0.2,0-0.3V614c0-0.1,0-0.2,0-0.3l0,0c-0.2-5.8-1.6-21.7-2.3-29.9l0,0c1.2-6.1,1.9-10.8,1.8-11.5
	c-0.5-1.6,0.7-13.1,0.7-13.1s1.4-11.7,3.4-15.4c1.3-2.4,3.9-11.6,5.4-17.6c0.1-0.4,0.2-0.7,0.3-1.1c1.7-0.1,3.3-0.4,4.8-1.2
	c0,0-1.2-10.2,1.7-15.5c2-3.6,3.3-19.7,3.4-30.2c0-0.5,0-1,0-1.5c2.4,2,4,4.7,4.6,4.5c5.8-3,11.4-6.5,16.7-10.3
	c6.5-5.3-11.7-34.9-13.7-37.2S263,405,263,405c0.6,0.8,1.5,1.4,2.5,1.8c1.3,0.3,3.8,2.1,6.6,4.4s15.4,0,15.4,0
	c9.2,0.4,10.9-7.4,10.9-7.4s4.5-10.6,4.7-14.3s7-19,7-19c-1.5-2.4-3.6-4.3-6.1-5.5c0.5-1.6,1.2-3,2.2-3.5c2.9-1.2,34.6-13,23.4-17
	s-28.5,9-28.5,9s-0.9,0.3-2.3,3.2c-0.8,1.5-1.7,4.1-2.5,6.3c-0.1,0.2-0.2,0.4-0.2,0.6h-0.5c0,0-4.1,8.9-4.1,11s-5,12.2-5,12.2
	s-2.5,2.6-1.6,4.6s-2,1.6-2,1.6l-3.9-3.1c0,0-3.4-2.2-5-2.5s-4.4-3.3-4.4-3.3s-3.2-2.1-2.9-2.5s-1.8-2-2.9-2.5s-1.7-1.7-2.9-3.8
	s-3-0.5-3.8-0.9s-12,1-13.1,1.3s-5.1,0.4-7.1-1.1c-1.4-0.8-3-1-4.5-0.5c-0.4-0.9-0.8-1.8-1-2.7c-0.1-0.2-0.1-0.3-0.1-0.5
	c7-3,11.6-9.9,11.6-17.6c0-4.6-1.7-9.1-4.8-12.6c-0.3-0.3-0.5-0.6-0.8-0.9l0,0c1.1-0.5,2.6-1.6,2.7-2.9c0-0.5-0.2-1-0.5-1.3
	c-0.4-0.5-1-0.7-1.4-1.1c-0.4-0.5-0.6-1.1-0.6-1.8c0-0.8,0.2-1.7,0.2-2.5c0-0.3,0-0.7-0.1-1c-0.5-1.4-1.8-2.4-3.3-2.6c0,0,0,0,0,0.1
	c-0.6-0.1-1.2-0.1-1.8-0.1c-2.1,0.2-4,1.1-6,1.4c-3.2,0.4-6.3-1-9.4-1.8s-6.9-0.8-9,1.5s-2,6.4-4.7,8.1c-1.2,0.8-2.8,0.9-4.1,1.5
	c-1.5,0.7-2.7,1.9-3.5,3.3c-2.1,3.3-3,7.1-2.6,11c0.2,2.1,0.8,4.1,1.1,6.2c0.3,2.2,0.1,4.4-0.4,6.5c-0.6,2.2-1.8,4.5-4,5.2
	c-0.5,0.1-1,0.3-1.5,0.5c-1.3,0.8-1.1,2.6-0.8,4l1.3,5.9c-1.3,0.9-3.2,0.5-4.4,1.5c-0.5,0.4-0.8,1-1,1.6c-1.1,3.1-0.3,6.6,2,8.9
	c0,0.1-0.1,0.2-0.1,0.3s-0.1,0.5-0.2,0.8c-1.1,5.1-0.7,5.7-1.4,6.6l0,0c-1.3,2.3-2.8,4.5-4.4,6.6c-1,1.2-1.5,2.7-1.6,4.2
	c0,0-5.4,7.8-7,8.7s-4.3,6.9-4.3,6.9s-4.2,2.7-4.2,5.8c-0.1,2.6-0.3,5.1-0.8,7.7C161.2,439.9,161.9,445.3,163.7,448.1z M179,443.3
	c0.8-1.2,0-3.6,0-3.6s5.3-6.9,6-10.8s5.5-6.6,5.5-6.6l0,0c0,0,2.5-1,2.7,0s0.6,3.1,0.6,3.1s-0.4,5.1,1.4,7.1s2.2,10.6,2.2,10.6
	s3,8.5,1.6,11.1c-0.5,0.9-1.3,5.5-2.1,11.1c-0.7-0.1-1.4-0.2-2-0.2c-0.6-0.5-4.2-3.8-6.1-4.5c-2.1-0.7-4-6.5-4.1-7.8
	s-1.9-5.7-3.7-6.5S178.2,444.6,179,443.3z"/>
<path class="st18" d="M310,371c-3-4.9-8.7-7.6-14.4-6.8v10.3h6.2l4.9-1.3L310,371z"/>
<path class="st5" d="M310,371c-3-4.9-8.7-7.6-14.4-6.8v10.3h6.2l4.9-1.3L310,371z"/>
<path class="st19" d="M295.2,366.9l7.6,5.4c0,0,0.1-1.1,0.3-2.5c0.4-2.8,1.2-6.9,3.1-7.7c2.8-1.2,34.1-13,23-17s-28.1,9-28.1,9
	s-0.9,0.3-2.3,3.2c-0.7,1.5-1.7,4.1-2.4,6.2C295.7,365.4,295.2,366.9,295.2,366.9z"/>
<polygon class="st18" points="234.1,375.1 233.2,374.7 230.8,377.5 232.8,381.8 236.2,380.4 235.4,377 "/>
<path class="st20" d="M245.6,624.6c0,0,2.2-0.3,3.1,3.2s2.2,12.9,2.2,12.9s0.5,5.8,1.6,7.1s2.1,9.6-5.4,10.6s-10.7-4-10.7-4l0.3-23
	L245.6,624.6z"/>
<path class="st20" d="M219.6,625.6c0,0-4.7,5-4.6,10.7s0.5,13.5,0.5,13.5s0.4,3.2-0.5,4s0,5.3,0,5.3s8.3,7.7,15.2-0.7
	c0,0,1.4-4.7,0.8-7.8s-2.1-16.8-2.1-16.8L219.6,625.6z"/>
<path class="st19" d="M208,520.6c0,0,4.8,13.3,6.8,16.3s3.4,8.6,3.4,8.6l1.8,11.3c0.4,2.5,0.6,5.1,0.6,7.7
	c-0.1,2.5,4.6,39.7,4.6,39.7l7.4,9.4c0,0,3.3,6.6,2.7,9.3s0.4,7.1,1.4,8.4c0,0,0.2,8.6,0.4,10.5s-1,7.4,0,8.3s13.9,0.5,14.2-1
	s-1.6-9.2-1.6-9.2l-1.1-7.4c0,0-2.3-4-1.8-5.4s-1-4.4-1-4.7s-2.5-4.6-2-6.2s-2.7-37.1-2.7-37.1l-9-63.5L208,520.6z"/>
<path class="st5" d="M208,520.6c0,0,0.7,2,1.7,4.6c1.6,4.1,3.8,9.8,5.1,11.7c2,3.1,3.4,8.6,3.4,8.6l1.8,11.3
	c0.4,2.5,0.6,5.1,0.6,7.6c0,1,0.7,7.4,1.5,14.8c1.3,11.3,3,24.9,3,24.9l7.4,9.4c0,0,0.4,0.8,0.8,1.8c0.9,2.2,2.2,5.7,1.9,7.5
	c-0.5,2.7,0.4,7.1,1.4,8.4c0,0,0.2,8.6,0.4,10.5s-1,7.4,0,8.3s13.9,0.5,14.2-1s-1.6-9.2-1.6-9.2l-1.1-7.4c0,0-2.3-4-1.8-5.4
	s-1-4.4-1-4.7s-2.5-4.6-2-6.2c0.3-1.3-1.4-22.1-2.3-31.9c-0.3-3.1-0.5-5.1-0.5-5.1l-7.8-54.6l-0.6-4.4l-0.6-4.5L208,520.6z"/>
<path class="st19" d="M215.9,652.7c-0.1,1,12.4,2.4,14.2,1.3s0-14.1,0-14.1l-0.8-6c0.9-0.1,2.2-4.8,1.6-6s0.5-6,0.5-6l2.1-6.5l1.3-4
	c2-4.5,5-17.5,6.9-27.1c1.2-6.1,1.9-10.8,1.7-11.4c-0.4-1.6,0.7-13.1,0.7-13.1s1.4-11.7,3.3-15.4c1.3-2.4,3.8-11.6,5.3-17.5
	c0.8-3,1.3-5.2,1.3-5.2s-13.3-1.1-21.3-1.5c-3.7-0.2-6.3-0.2-6,0.1s0.4,1.9,0.4,4.2c0,6-0.9,16.6-1.8,19.5c-1.2,4-2.5,15.8-1.9,17
	s0.4,8.8,0.4,8.8c-0.9,3.1-1.4,6.3-1.5,9.5c-0.3,5.7-0.2,11.5,0.3,17.2c0,0-1.3,21.3-1,23.4s-2.8,8.3-2.8,9.6s-0.9,9.6-0.9,9.6
	S216,651.7,215.9,652.7z"/>
<path class="st19" d="M208.9,396.1l1.5,1.6l1,1.1l5.8,6.2l14.8,1.7l7.9-2.1l2-0.5c0,0,0-4-0.4-8.7c-0.5-6.1-1.7-13.5-4.6-15.5
	c-1.4-1.1-2.6-2.6-3.4-4.2c-0.6-1.1-1-2.3-1.4-3.5c-0.1-0.2-0.1-0.3-0.1-0.5c-0.6-2.1-1.1-4.3-1.4-6.5c0,0-1.9-1-4.5-2.3
	c-6.9-3.2-18.8-7.6-14.6,2.3c0.6,1.4,1.1,2.9,1.6,4.5c0.1,0.2,0.1,0.4,0.2,0.7c1.4,5.5,0.5,8.9-0.6,10.7l0,0
	c-0.2,0.3-0.4,0.6-0.6,0.9c-0.3,0.4-0.6,0.7-1,1l-1.7,10.9l-0.1,0.9L208.9,396.1z"/>
<path class="st5" d="M211.5,365.6C212.3,367.4,211.1,364,211.5,365.6c3.1,2.2,10.5,8.6,14.6,8.6c2.8,0,3.6-0.5,6-1.6
	c-0.7-2.3-1.2-4.6-1.5-7C230.6,365.5,205.8,351.9,211.5,365.6z"/>
<path class="st19" d="M205.2,354c0,9.8,7.4,18,17.1,19c0.7,0.1,1.3,0.1,2,0.1c10.6,0,19.2-8.6,19.2-19.1c0-10.6-8.6-19.2-19.1-19.2
	S205.2,343.4,205.2,354L205.2,354L205.2,354z"/>
<path class="st5" d="M202.4,439l2.7,7.1c0,0,2.2,0.1,5.7,0.2c11.7,0.4,37.4,0.8,38.6-2.1c0.3-0.8,0.4-1.6,0.4-2.4
	c0.1-4.6-2-11.6-2-11.6s-1.2-14-1.2-14.7s1.1-10.6,1.1-10.6l-2.1-7.9l-5.9-4.1c0,0-2.6,4-4.2,4.4c-1.4,0.5-2.6,1.3-3.7,2.3
	c0,0-5.2,3.2-6.9,1.4s-14.7-9.5-14.7-9.5l-6.9,7.6L202.4,439z"/>
<path class="st7" d="M202.4,440l2.7,7.1c0,0,2.2,0.1,5.7,0.2h0.3c1.5,0,3.2,0.1,5,0.1c9.3,0.2,22.1,0.3,28.8-0.7
	c2.5-0.4,4.1-0.9,4.4-1.6c0.2-0.4,0.3-0.9,0.3-1.3c0-0.3,0.1-0.7,0.1-1c0.1-4.6-2-11.6-2-11.6s-1.2-14.1-1.2-14.7s1-10.5,1-10.5
	l-2.1-7.9l-4-2.8l-1.8-1.3c-0.6,0.9-1.3,1.8-2,2.6c-0.6,0.8-1.3,1.4-2.2,1.7c-1.4,0.5-2.6,1.3-3.7,2.3c0,0-5.2,3.2-6.9,1.4
	c-1.3-1.3-9.2-6.2-12.8-8.4l-1.8-1.1l-0.9,1l-5.9,6.5L202.4,440z"/>
<path class="st5" d="M295.2,366.9l7.6,5.4c0,0,0.1-1.1,0.3-2.5c-2.8-1.4-5.2-3.5-6.7-6.3C295.7,365.4,295.2,366.9,295.2,366.9z"/>
<path class="st4" d="M268.3,385.1l1.7-0.4c0,0,2.7,2.9,4.3,3.3s4.9,2.5,4.9,2.5l3.9,3.1c0,0,2.9,0.4,2-1.6s1.6-4.6,1.6-4.6
	s4.9-10.1,4.9-12.2s4-11,4-11s5.1,9.9,14.4,6.8c0,0-6.8,15.2-6.9,19s-4.7,14.3-4.7,14.3s-1.7,7.8-10.7,7.4c0,0-12.5,2.3-15.2,0
	s-5.2-4.2-6.5-4.4c-1-0.3-1.8-0.9-2.5-1.8V395L268.3,385.1z"/>
<path class="st5" d="M283.9,395c0,0-2.2,8.2-0.8,9L283.9,395z"/>
<path class="st5" d="M210.8,447.3c11.7,0.4,37.4,0.8,38.6-2.1c0.3-0.8,0.4-1.6,0.4-2.4l-38.2,2L210.8,447.3z"/>
<path class="st5" d="M208,520.6c0,0,0.7,2,1.7,4.6c4.9-0.3,11.3-0.6,17.4-0.7c2.2,0,4.3,0,6.3,0.1c3.4,0,6.9,0.4,10.2,1.1
	c3,0.9,6,1.3,9.1,1.2c0.8-3,1.3-5.2,1.3-5.2s-13.3-1.1-21.3-1.5l-0.6-4.5L208,520.6z"/>
<path class="st21" d="M197.7,488.4l1.5,3.2c0,0,0.2,0.9,0.5,2.4c0.9,4.5,1.2,9.1,1.1,13.6c-0.4,6.8,1,17,1,17s32.3-2.7,41.8,0
	s14.1,0,14.1,0s-1.1-10.2,1.7-15.5c1.9-3.6,3.3-19.6,3.3-30.2c0-4.9-0.3-8.5-0.9-9.3c-1.9-2.4-10.2-26.1-10.2-26.1l-1.9,0.1l-5,0.3
	l-28.6,1.5l-4.5,0.2l-0.5,1.5L197.7,488.4z"/>
<path class="st18" d="M183.5,477.9l-0.3,2.8c0,0,14.1-4.6,13.4-10.3s0-5,0-5l-11.4,1L183.5,477.9z"/>
<path class="st5" d="M183.5,477.9l-0.3,2.8c0,0,14.1-4.6,13.4-10.3s0-5,0-5l-11.4,1L183.5,477.9z"/>
<path class="st5" d="M274.5,397.3c-1.4,1.2-3.2,2.1-5,2.6c0.5-0.1,1-0.3,1.5-0.7c1-0.7,2-1.5,3-2.3c0.8-0.8,1.7-1.4,2.7-1.9
	C276,395.8,275.3,396.6,274.5,397.3z"/>
<path class="st5" d="M274.3,401c-0.5,0.5-0.8,1.1-1.1,1.7c-0.2,0.7-0.3,1.5-0.3,2.3c-0.1,1.1,0,2.2,0.4,3.2l2.3-5.5
	c0.4-0.9,0.8-1.9,1.3-2.8c0.2-0.4,1.5-2,1.4-2.3C277.8,396.7,274.7,400.4,274.3,401z"/>
<path class="st5" d="M211,431.3c-1.6-0.2-3-0.9-4.1-1.9c2.3,0.3,4.6,1.2,6.9,1.7c2.1,0.5,4.4,0.3,6.4-0.6
	C217.4,431.7,213.8,431.8,211,431.3z"/>
<path class="st5" d="M217.6,415.2c0.4,0.1,0.8,0,1.2-0.3c1.8-1,3.5-2,5.2-3.1c1.8-1,3.5-2.2,5.1-3.5
	C225.5,411.4,222.3,414.1,217.6,415.2z"/>
<path class="st5" d="M212.7,433.8c-0.9,0-1.8,0-2.7-0.2s-1.7-0.7-2.3-1.5c0.3-0.1,0.7,0,0.9,0.2c2.8,1.2,5.8,1.5,8.8,1
	C215.9,433.8,214.3,434,212.7,433.8z"/>
<path class="st5" d="M229.3,474.6c1.8,0.6,3.7,0.9,5.6,1.1c1.5,0.1,3,0,4.4-0.1l7.2-0.5l3.6-0.2c0.4,0,2.2,0,1.3-0.8
	c-0.4-0.4-2.8-0.2-3.5-0.2c-1.2,0-2.4-0.1-3.6-0.1c-2.4,0-4.8,0-7.1,0.2C234.6,474.1,232,474.3,229.3,474.6z"/>
<path class="st5" d="M237.6,478.1c1.2,0,2.8,0.7,4,0.8c1.4,0.2,2.8,0.2,4.2,0.2c2.8-0.1,5.6-0.6,8.2-1.7
	C248.6,477.8,243.1,478,237.6,478.1z"/>
<path class="st5" d="M253,482c-0.5,0.1-1,0.3-1.6,0.4c-3,0.9-6.3,0.1-9.3-0.7c0.9,1.1,2.2,1.8,3.5,2c2.3,0.6,4.6,0.7,6.9,0.3
	c0.7-0.1,2.5-0.4,2.9-1.2C256,481.6,253.7,481.8,253,482z"/>
<path class="st5" d="M236,487.6c-0.9,0.2-1.8,0.4-2.7,0.7c-3.4,0.8-6.9-0.3-10.4-1.1c-4.1-0.9-8.3-1.3-12.6-1.2
	c0.9,0.2,1.8,0.5,2.7,0.9c1,0.3,1.9,0.6,2.9,0.8c1.9,0.5,3.9,0.9,5.9,1.1c4,0.6,8,0.8,12,0.5c1.8-0.1,5,0.1,6.6-0.8
	C239.1,487.7,237.6,487.4,236,487.6z"/>
<path class="st5" d="M234.8,379.3c0,0-0.2,8.1,1.1,11.8c0.4,1.1,1.1,3.3,1.8,5.6c0.8,2.6,1.6,5.6,2.3,7.9l1.1,3.9
	c0,0,3,24.2,3.7,35.7c0,0.2,0,0.4,0,0.6c0,0.7,0.1,1.3,0.2,2c1.7,11.4,11.6,29.1,14.9,30.5c1,0.5,2,1.1,2.8,1.9
	c0-4.9-0.3-8.5-0.9-9.3c-1.9-2.4-10.2-26.1-10.2-26.1l-1.9,0.1c0-0.3,0.1-0.7,0.1-1c0.1-4.6-2-11.6-2-11.6s-1.2-14.1-1.2-14.7
	s1-10.5,1-10.5l-2.1-7.9l-4-2.8c-0.5-6.1-1.7-13.5-4.6-15.5c-1.4-1.1-2.6-2.6-3.4-4.2c-0.6,0.1,0.5-0.4,0.5-0.4L234.8,379.3z"/>
<path class="st4" d="M233.2,374.7c1.5-0.5,3.1-0.3,4.5,0.5c2,1.4,6,1.3,7,1.1s12-1.7,12.9-1.3s2.6-1.2,3.8,0.9s1.7,3.3,2.8,3.8
	s3.2,2.2,2.9,2.5s2.9,2.5,2.9,2.5l-6.4,20.8c0,0,4.1,26.3,6.1,28.6s19.9,31.9,13.5,37.2c-5.1,4-10.4,7.6-16.1,10.8
	c-0.7,0.3-3.3-4.4-6.8-5.9s-14.4-21.3-15.1-32.5s-3.8-36.3-3.8-36.3s-3.8-13.7-5.1-17.4s-1.1-11.8-1.1-11.8L233.2,374.7z"/>
<path class="st5" d="M197.7,488.4l1.5,3.2c0,0,0.2,0.9,0.5,2.4c0.3,0,0.5-0.1,0.8-0.3c2.2-1.8,15.1-15,15.7-26.8
	c0.4-8.7,0.2-16.2,0.1-19.5c0-1-0.1-1.7-0.1-1.8l0,0c0,0-10-12.1-8.9-16.4s3.7-27.3,3.7-27.3l0.4-3l0.7-5.1l1.6-12.3l-1.6,0.4
	c-0.3,0.4-0.6,0.7-1,1l-1.7,10.9l-5.9,6.5l-1,39.8l2.7,7.1c0,0,2.2,0.1,5.7,0.2h0.3L197.7,488.4z"/>
<path class="st4" d="M192.1,422.7c0,0,2.5-1,2.6,0s0.6,3.1,0.6,3.1s-0.4,5.1,1.4,7.1s2.2,10.5,2.2,10.5s3,8.4,1.6,11.1
	c-0.5,1-1.3,5.8-2.1,11.5c-0.5,3.6-1,7.5-1.4,11.1c-0.8,6.5-1.4,12-1.4,12s1.6,5.8,3.8,4s15.1-15,15.7-26.8c0.4-8.3,0.3-15.5,0.1-19
	c-0.1-1.5-0.1-2.3-0.1-2.3s-10-12.1-8.9-16.4s3.7-27.3,3.7-27.3l0.5-3.6l0.5-3.8l0.1-0.8l1.6-12.2l0,0c-0.3,0.1-10.1,2.3-11.4,3.6
	s-9.3,3.2-9.3,3.2c-2.5,0.7-4.4,2.6-5,5.1c-0.1,0.3-0.1,0.5-0.2,0.8c-1.1,5.1-0.7,5.7-1.4,6.6S192.1,422.7,192.1,422.7z"/>
<path class="st5" d="M197,477.2c3.6-0.7,8.9-2.4,8.8-6c-0.1-3.4-4.2-4.7-7.4-5.1C197.9,469.6,197.4,473.6,197,477.2z"/>
<path class="st19" d="M185.8,475.4c0.1,0.3,0.7,0.6,1.5,0.8c1.9,0.5,3.9,0.8,5.9,1c0,0,12.2-1,12-6.5c-0.1-4-5.6-5-8.7-5.3
	c-1.2-0.1-2.1-0.1-2.1-0.1S185.3,474.2,185.8,475.4z"/>
<path class="st5" d="M185.8,475.4c0.1,0.3,0.7,0.6,1.5,0.8c3.2-4.3,7.6-9.7,9.8-10.2c0,0-0.3-0.3-0.7-0.6c-1.2-0.1-2.1-0.1-2.1-0.1
	S185.3,474.2,185.8,475.4z"/>
<path class="st4" d="M188.9,399.6l-3.6,0.5c-1.3,2.3-2.7,4.5-4.3,6.6c-1,1.2-1.5,2.7-1.6,4.2c0,0-5.3,7.8-6.9,8.7s-4.2,6.8-4.2,6.8
	s-4.1,2.7-4.1,5.8c-0.1,2.6-0.3,5.1-0.8,7.6c-0.1,0.4,0.6,5.9,2.4,8.6s3.5,8.8,3.4,9.8s4.9,6.7,6.3,8.4c1.2,1.6,2.2,3.4,3.1,5.2
	l4.7,8.8c0,0,9.8-14.5,13.4-15.3c0,0-4-3.9-6.1-4.6s-4-6.5-4-7.8s-1.9-5.7-3.7-6.5s-2.8-1.6-2-2.8s0-3.6,0-3.6s5.2-6.8,5.9-10.8
	s5.4-6.6,5.4-6.6l2.7-6.7L188.9,399.6z"/>
<path class="st5" d="M175.8,432.4c-2-1.7-4.5-2.6-7.1-2.7c1.7,0.1,3.3,0.8,4.6,1.8c0.5,0.5,0.9,1.1,1.3,1.6c0.4,0.6,3.8,4.9,4.4,4.2
	C179.8,436.3,176.5,433,175.8,432.4z"/>
<path class="st5" d="M183.8,428.2c-1.1-0.1-2.1-0.8-2.5-1.8s-0.7-2-0.8-3.1c-0.3-1.8-0.6-3.6-1.1-5.3c-0.1-0.4-0.2-0.7-0.2-1.1
	s0.2-0.7,0.3-1.1c0.2-0.6,0.4-1.1,0.8-1.6c0.6,0.7,0.8,2.4,1.1,3.3c0.3,1.2,0.6,2.4,0.9,3.6C182.5,421.7,183.7,428.2,183.8,428.2z"
	/>
<path class="st5" d="M186.9,392.7c0.4,0.5,0.8,0.9,1.2,1.3c1.4,1.1,3.3,2.1,3.5,3.9c0,0.6,0,1.2,0.2,1.7c0.5,0.8,1.6,0.7,2.5,0.6
	c0.8-0.1,1.5-0.3,2.1-0.8c0.9-0.8,1-2.2,1.8-3.3c0.9-1.1,2.2-1.6,3.6-1.6c1.3,0,2.7,0.3,4,0.3c0.9,0,1.7,0,2.6-0.2
	c0.3,0,0.6-0.1,0.8-0.2c0.6-0.2,1.2-0.4,1.8-0.6c0.3-0.1,0.6-0.2,0.9-0.4c0.9-0.5,1.7-1,2.5-1.7c1.4-1.1,2.3-2.8,2.3-4.7
	c-0.2-1.1-0.4-2.1-0.8-3.2c-0.5-3.1,1.5-6,3.8-8.3c0.9-0.9,1.8-1.7,2.7-2.6c1.4-1.3,2.5-2.8,3.2-4.6c0.6-1.8,0.8-3.8,0.6-5.7
	c-0.2-2-0.3-3.9-0.2-5.9c0.7-7,6.6-12.3,12.6-15.2l0.3-0.1c-6.9-8-19-8.9-27-1.9c-8,6.9-8.9,19-1.9,27c0.9,1.1,2,2.1,3.2,2.9
	c0.1,0.2,0.1,0.4,0.2,0.7c1.4,5.5,0.5,8.9-0.6,10.7l0,0c-0.3,0.1-10.1,2.3-11.4,3.6s-9.3,3.2-9.3,3.2
	C189.4,388.3,187.5,390.2,186.9,392.7z"/>
<path class="st22" d="M240.1,336.4c-0.4-0.5-1-0.7-1.4-1.1c-1.3-1.4,0-3.5-0.5-5.3c-0.5-2-2.9-2.8-4.9-2.6s-3.9,1.1-5.9,1.4
	c-3.1,0.4-6.2-1-9.3-1.8s-6.8-0.8-8.9,1.5s-2,6.4-4.6,8c-1.2,0.8-2.7,0.9-4.1,1.5c-1.4,0.7-2.6,1.9-3.4,3.3c-2.1,3.3-3,7.1-2.6,11
	c0.2,2.1,0.8,4.1,1.1,6.2c0.3,2.2,0.1,4.4-0.4,6.5c-0.6,2.2-1.8,4.5-3.9,5.2c-0.5,0.1-1,0.3-1.5,0.5c-1.2,0.8-1.1,2.6-0.8,4l1.3,5.9
	c-1.2,0.9-3.1,0.5-4.3,1.5c-0.5,0.4-0.8,1-1,1.6c-1.2,3.4-0.2,7.2,2.6,9.5c1.4,1.1,3.3,2.1,3.5,3.9c-0.1,0.6,0,1.2,0.2,1.7
	c0.5,0.8,1.6,0.7,2.5,0.6c0.8-0.1,1.5-0.3,2.1-0.8c1-0.8,1-2.2,1.8-3.3c0.9-1,2.2-1.6,3.6-1.6c1.4,0,2.7,0.3,4,0.3
	c3.1,0.1,6.2-1,8.5-3.1c1.4-1.1,2.3-2.8,2.3-4.7c-0.2-1.1-0.4-2.1-0.8-3.2c-0.5-3.1,1.5-6,3.8-8.3s4.9-4.3,5.9-7.2
	c1.4-3.7,0-7.7,0.4-11.6c0.7-7,6.6-12.3,12.6-15.3C239.4,339.9,241.6,338.2,240.1,336.4z"/>
<path class="st5" d="M193.1,396.7c1-0.8,1-2.2,1.8-3.3c0.9-1,2.2-1.6,3.6-1.6c1.4,0,2.7,0.3,4,0.3c3.1,0.1,6.2-1,8.5-3.1
	c1.4-1.1,2.3-2.8,2.3-4.7c-0.2-1.1-0.4-2.1-0.8-3.2c-0.5-3.1,1.5-6,3.8-8.3s4.9-4.3,5.9-7.2c1.4-3.6,0-7.7,0.4-11.6
	c0.7-7,6.6-12.3,12.6-15.3c1.4-0.7,3.6-2.4,2.1-4.2c-0.4-0.5-1-0.7-1.4-1.1c-1.2-1.4,0-3.6-0.5-5.3c-0.1-0.4-0.2-0.7-0.5-1
	c1.5,0.1,2.8,1.1,3.2,2.6c0.4,1.8-0.8,4,0.5,5.3c0.4,0.4,1,0.7,1.4,1.1c1.5,1.8-0.7,3.5-2.1,4.2c-6,2.9-11.9,8.3-12.6,15.3
	c-0.4,3.9,0.9,8-0.4,11.6c-1.1,3-3.7,5-5.9,7.2s-4.3,5.2-3.8,8.3c0.3,1,0.6,2.1,0.8,3.2c0,1.8-0.9,3.5-2.3,4.7
	c-2.3,2.1-5.4,3.2-8.5,3.1c-1.4-0.1-2.7-0.4-4-0.3c-1.4,0-2.7,0.5-3.6,1.6c-0.7,1-0.8,2.5-1.8,3.3c-0.6,0.4-1.3,0.7-2.1,0.8
	c-0.9,0.2-2,0.2-2.5-0.6c-0.2-0.3-0.2-0.7-0.2-1C191.9,397.4,192.5,397.1,193.1,396.7z"/>
<path class="st6" d="M351,459.2c-0.1-0.1-0.2-0.2-0.3-0.3c-0.1-0.1-0.1-0.1-0.2-0.2c-0.7-0.5-1-1.3-0.9-2.2c0-0.1,0-0.2,0-0.3
	c-0.3-1-0.7-2-1.2-2.9c-0.3-0.5-0.6-1.3-0.8-2.1c-0.4-1-0.6-1.9-0.6-1.9V449c-0.1-0.6-0.5-2.4-0.7-4c0-0.1,0-0.2,0-0.3
	c-0.4-2.1-3.9-7.7-3.9-7.7l0,0c0-0.1-0.1-0.1-0.1-0.2c-0.8-0.4-3.5-1.9-3.5-1.9c-2-2.5-3.9-3.1-5.2-3.1h-0.2H333c-0.1,0-0.2,0-0.3,0
	c-0.2,0-0.3,0.1-0.5,0.1L332,432c-0.1,0-0.2,0.1-0.3,0.1l-0.1,0.5c-0.1-1.2,0-2.4,0.3-3.6c0-0.1,0.1-0.2,0.1-0.3c0.2,0,0.4,0,0.6,0
	c5.3,0,9.7-4.3,9.7-9.7l0,0c0-0.9-0.1-1.8-0.4-2.7v-0.1h0.2c1.2-0.4,2.7,0.3,3.7-0.5c0.4-0.4,0.6-0.8,0.7-1.3c0.3-0.6,0.4-1.3,0.5-2
	c0-0.2,0-0.4,0-0.6v-0.1l0,0c0-0.5-0.2-0.9-0.5-1.3c-0.6-0.8-1.7-0.9-2.5-1.5c-0.7-0.5-1.2-1.2-1.6-1.9c-0.4-0.7-0.9-1.4-1.5-1.9
	s-1.5-0.7-2.3-0.4c-0.2,0.2-0.5,0.3-0.8,0.4c-0.3,0-0.6-0.1-0.8-0.2c-2.8-1.3-6-1.1-9-0.7c-1.2,0.1-2.4,0.4-3.5,0.9s-2,1.4-2.4,2.6
	c-0.3,0.9-0.1,1.9-0.4,2.9c-0.2,0.6-0.6,1.2-0.8,1.8c-0.1,0.3-0.2,0.7-0.2,1c0,0,0,0,0-0.1s0,0.1,0,0.2v0.5c0.2,1.2,0.4,2.4,0.7,3.6
	c0.4,1.9,0.2,4,1,5.8c0.1,0.2,0.2,0.4,0.3,0.6c-0.3,0.6-0.6,1.2-0.9,1.8l0,0c-0.2,0-0.3-0.1-0.5-0.1H321h-0.2c-0.1,0-0.2,0-0.4,0
	l0,0c-0.1,0-0.2,0.1-0.2,0.1l-0.1,0.1H320l-0.1,0.1c0,0,0,0,0,0.1c-0.1,0.1-0.1,0.2-0.1,0.4l0,0v0.1c0,0.2,0,0.4-0.1,0.6
	s0,0.3,0,0.4s0,0.2,0,0.3s0,0,0,0.1s0,0.3-0.1,0.4l-0.1,0.5l-0.1,0.1c-0.1,0.1-0.1,0.3-0.2,0.4l0,0c-0.1,0.1-0.1,0.1-0.2,0.1
	c-0.1,0.1-0.2,0.2-0.2,0.4l0,0l0,0l-0.1,0.1c-0.1,0-0.1,0-0.2,0.1c-0.1-0.1-0.4-0.1-1.2,0.9c-1.2,1.2-2.5,2.3-4,3.1
	c0,0-5.9,4.1-6.2,6s-2.2,10.1-1.2,12.9c0.1,0.4,0.4,0.9,0.7,1.6v0.1c0,0,0.3,1.1,0.8,2.7l0.4,0.2l0.7,0.4l0.5,0.3
	c1,0.6,2.1,1.1,3.1,1.6l0,0c1.6,0.7,3.1,1.3,4.8,1.9l0,0l0.3,0.1l0.8,0.3l0.9,0.3c0.7,0.2,1.4,0.4,2.1,0.5h0.1
	c0.6,0.1,1.2,0.3,1.8,0.4l0.3,0.1l1.3,0.2l1.6,0.2h0.2h0.3l1.1,0.1c1.3,0.1,2.6,0.2,3.9,0.2h0.3c1.4,0,2.8-0.1,4.1-0.2
	c1.8-0.2,3.6-0.4,5.4-0.8c0.5-0.1,1.1-0.2,1.6-0.4l0,0l0.7-0.2c0.1,0,0.2,0,0.3-0.1l0.4-0.1l0.3-0.1l0.2-0.1l0.7-0.2l0.2-0.1
	c0.1,0,0.2-0.1,0.3-0.1h0.1l1.2-0.4l0,0c0.9-0.3,1.8-0.7,2.7-1.1l1-0.4c0.2-0.1,0.3-0.1,0.5-0.2C351.3,459.5,351.2,459.3,351,459.2z
	 M331.6,433L331.6,433L331.6,433L331.6,433L331.6,433L331.6,433z"/>
</svg>
