<?xml version="1.0" encoding="utf-8"?>
<!-- Generator: Adobe Illustrator 25.2.0, SVG Export Plug-In . SVG Version: 6.00 Build 0)  -->
<svg version="1.1" id="Layer_1" xmlns="http://www.w3.org/2000/svg" xmlns:xlink="http://www.w3.org/1999/xlink" x="0px" y="0px"
	 viewBox="0 0 273 434.7" style="enable-background:new 0 0 273 434.7;" xml:space="preserve">
<style type="text/css">
	.st0{fill:#F5CFBF;}
	.st1{fill:#E34998;}
</style>
<g>
	<path class="st0" d="M19.1,262.4c11-2.3,30.9-3.6,32.9,2.5c2,6.1-4.3,7.6-4.3,7.6s7.7,2.2,6.8,8.2c-0.8,5.6-6,6.2-6,6.2
		s4.8,3.6,3.1,8.6c-1.4,3.9-8.4,5.3-8.4,5.3s1.9,4.4-2.9,7.1s-24.3,2.9-29.2,0c-4.9-2.9,7.3-8.6,21.9-8.1c0,0-27,0.5-28.7-6.4
		c-1.4-5.8,28.5-6.9,28.5-6.9S1.2,287.5,0,280.7c-1.2-6.8,31.8-7.6,31.8-7.6s-21.4,0.6-22.5-4.4S15.6,263.1,19.1,262.4z"/>
	<g>
		<path class="st1" d="M3.8,283.8c1.5-0.2,3.7-0.4,4.6-1.8c1.1-1.7-0.4-3.6-2-4.2c-1.2-0.4-2.5-0.5-3.8-0.3c-1.8,0.9-2.8,2-2.6,3.3
			c0.2,1.3,1.6,2.3,3.5,3.1C3.7,283.8,3.7,283.8,3.8,283.8z"/>
		<path class="st1" d="M11.1,307.8c1,0.6,2.5,1,4.4,1.4c1-0.4,1.7-1.2,1.6-2.6c-0.2-2.5-2.9-2.8-5.3-2.6
			C9.8,305.3,9.3,306.8,11.1,307.8z"/>
		<path class="st1" d="M17.2,266.8c-0.6-2.7-3.5-2.5-6-2.3c-1.4,0.9-2.3,2.1-1.8,4.1c0.1,0.3,0.2,0.6,0.5,0.9
			C12.6,270.2,18,270.6,17.2,266.8z"/>
		<path class="st1" d="M8.9,296.5c1.8-0.1,4.2-1.3,3.7-3.5c-0.5-2.1-3.1-2.6-5.5-2.7c-1.9,0.8-3,1.9-2.7,3.1
			c0.3,1.3,1.5,2.3,3.2,3.2C7.9,296.5,8.4,296.5,8.9,296.5z"/>
	</g>
</g>
<g>
	<path class="st0" d="M19.1,47.5c11,2.3,30.9,3.6,32.9-2.5c2-6.1-4.3-7.6-4.3-7.6s7.7-2.2,6.8-8.2c-0.8-5.6-6-6.2-6-6.2
		s4.8-3.6,3.1-8.6c-1.4-3.9-8.4-5.3-8.4-5.3s1.9-4.4-2.9-7.1S16-0.8,11.1,2.1C6.2,5,18.4,10.7,33,10.1c0,0-27-0.5-28.7,6.4
		c-1.4,5.8,28.5,6.9,28.5,6.9S1.2,22.4,0,29.2s31.8,7.6,31.8,7.6s-21.4-0.6-22.5,4.4C8.2,46.3,15.6,46.8,19.1,47.5z"/>
	<g>
		<path class="st1" d="M3.8,26.1c1.5,0.2,3.7,0.4,4.6,1.8c1.1,1.7-0.4,3.6-2,4.2c-1.2,0.4-2.5,0.5-3.8,0.3c-1.8-0.9-2.8-2-2.6-3.3
			c0.2-1.3,1.6-2.3,3.5-3.1C3.7,26.1,3.7,26.1,3.8,26.1z"/>
		<path class="st1" d="M11.1,2.1c1-0.6,2.5-1,4.4-1.4c1,0.4,1.7,1.2,1.6,2.6c-0.2,2.5-2.9,2.8-5.3,2.6C9.8,4.6,9.3,3.1,11.1,2.1z"/>
		<path class="st1" d="M17.2,43.1c-0.6,2.7-3.5,2.5-6,2.3c-1.4-0.9-2.3-2.1-1.8-4.1c0.1-0.3,0.2-0.6,0.5-0.9
			C12.6,39.7,18,39.3,17.2,43.1z"/>
		<path class="st1" d="M8.9,13.4c1.8,0.1,4.2,1.3,3.7,3.5C12,19.1,9.4,19.6,7,19.7c-1.9-0.8-3-1.9-2.7-3.1c0.3-1.3,1.5-2.3,3.2-3.2
			C7.9,13.4,8.4,13.4,8.9,13.4z"/>
	</g>
</g>
</svg>
