<?xml version="1.0" encoding="utf-8"?>
<!-- Generator: Adobe Illustrator 25.2.0, SVG Export Plug-In . SVG Version: 6.00 Build 0)  -->
<svg version="1.1" id="Layer_1" xmlns="http://www.w3.org/2000/svg" xmlns:xlink="http://www.w3.org/1999/xlink" x="0px" y="0px"
	 viewBox="0 0 452.6 339.8" style="enable-background:new 0 0 452.6 339.8;" xml:space="preserve">
<style type="text/css">
	.st0{fill:#F5CFBF;}
	.st1{fill:#6512DD;}
	.st2{fill:#FFCB8A;}
	.st3{opacity:0.7;fill:#CBC7FF;}
	.st4{opacity:0.58;fill:#CBC7FF;}
	.st5{fill:#0D1D7E;}
	.st6{fill:#F29D9D;}
	.st7{fill:#BD422A;}
	.st8{fill:#FFFFFF;}
	.st9{opacity:0.16;}
	.st10{fill:#8217FD;}
	.st11{opacity:0.18;}
	.st12{fill:#292969;}
</style>
<g>
	<path class="st0" d="M217.8,285.8c-1.5,8.3-8.5,42.8-8.6,49.9c-0.1,6.1-16.5,3.2-27.7,3.3c-14.3,0.1-21,2.2-20.3-2.8
		c0.5-3.3,15.9-2.7,26.9-18.2l5.9-30.1L217.8,285.8z"/>
	<g>
		<path class="st1" d="M204.4,333.1c-3,0.7-16.8-1.4-16.8-1.4s-1.1-3.3-3.9-7.4c-8.8,4.9-24.5,9.2-24.8,13.2
			c-0.2,2.6,7.4,2.4,25.4,1.9c11.2-0.3,22.5,2,24.4-2.6c0.4-0.8,0.8-2.5,1.2-4.7C207.9,332.5,205.7,332.8,204.4,333.1z"/>
		<path class="st2" d="M209.3,335c-2,4.5-13.3,2.3-24.4,2.6c-16.7,0.5-24.4,0.7-25.3-1.4c-0.4,0.4-0.6,0.9-0.6,1.3
			c-0.2,2.6,7.4,2.4,25.4,1.9c11.2-0.3,22.5,2,24.4-2.6c0.2-0.5,0.4-1.3,0.7-2.3C209.4,334.8,209.3,334.9,209.3,335z"/>
	</g>
	<path class="st0" d="M378.6,160.9c-12.2,15.6-38.5,64.4-38.5,64.4s-36.5-65.5-44.7-80.5c-8.2-15-10.7-14.2-10.7-14.2
		s-9,6.3-3.4,18.2c2,4.2,3.2,9.3,6.1,19.1c3,9.8,20.1,84.8,50.6,89.1c30.5,4.3,69.1-57.3,76.5-68.4
		C429.9,165.5,398.8,135.1,378.6,160.9z"/>
	<path class="st3" d="M378.6,160.9c-12.2,15.6-38.5,64.4-38.5,64.4s-36.5-65.5-44.7-80.5c-8.2-15-10.7-14.2-10.7-14.2
		s-9,6.3-3.4,18.2c2,4.2,3.2,9.3,6.1,19.1c3,9.8,20.1,84.8,50.6,89.1c30.5,4.3,69.1-57.3,76.5-68.4
		C429.9,165.5,398.8,135.1,378.6,160.9z"/>
	<g>
		<path class="st0" d="M401.4,134.8c-11.6,11.6-32.3,7.8-36.5,5.1c-7.5-4.8-8.2-7.2-10.7-14.8c14.3-11.4,15.7-9.9,15.8-16.9
			c0.1-7.7-10.9-45.8-10.9-45.8l31.7-7.1c0,0,10.2,37.8,12.7,43.9c1.5,3.7,10.1,9.6,13.8,13.9C414.2,122.5,408.3,127.9,401.4,134.8z
			"/>
		<path class="st4" d="M369.6,87.1c-1.3,0.3-2.6,0.5-3.9,0.6c-3.3-13.1-6.7-25.3-6.7-25.3l22.7-5.1
			C384.2,71.7,380.3,84.6,369.6,87.1z"/>
		<path class="st0" d="M343.5,58.3c3.6,15.3,12.2,26.6,26.8,23c11.3-2.6,17.5-17.2,13.9-32.5c-3.6-15.3-10.3-26.8-26.8-23
			C339.2,30.1,340,43,343.5,58.3z"/>
		<path class="st5" d="M389.8,22.2c5.2,6.8,13.1,13.6,1.5,35.1L380,56.2l2.3-24.4L389.8,22.2z"/>
		<path d="M349.5,52c0.2,0.8,1,1.4,1.9,1.2c0.8-0.2,1.4-1,1.2-1.9c-0.2-0.8-1-1.4-1.9-1.2C349.8,50.3,349.3,51.2,349.5,52z"/>
		<g>
			<path class="st6" d="M377.1,61.4c6-1.4,9.7-7.4,8.3-13.4c-1.4-6-7.4-9.7-13.4-8.3L377.1,61.4z"/>
			<path class="st7" d="M375.9,56.2c3.2-0.7,5.1-3.9,4.4-7.1c-0.7-3.2-3.9-5.1-7.1-4.4L375.9,56.2z"/>
		</g>
		<path class="st6" d="M353.2,59.9c0.6,2.6,3.2,4.3,5.9,3.6c2.6-0.6,4.3-3.2,3.6-5.9c-0.6-2.6-3.2-4.3-5.9-3.6
			C354.3,54.7,352.6,57.3,353.2,59.9z"/>
		<path class="st6" d="M344.2,52.2l-4.6,10.4c-0.5,1.2,0.4,2.6,1.7,2.5l6.1-0.3L344.2,52.2z"/>
		<path class="st5" d="M372.5,42.3l2.1,8.5l-3,0.9c-0.3-2.2-2.1-7.2-2.7-8.8L372.5,42.3z"/>
		<path class="st5" d="M342.6,36.5c-4.5-2.3-6.4-11.1,4.3-18.3c9.1-6.1,18-7.5,26.6-6.3c7.6,1.1,11.3,5.1,12,5
			c-0.6-1.6-2.7-3.3-2-8.1c1.3-9,14.8-11.4,20.3-6c5.5,5.3,7.7,14.8-0.1,20.7c-3.5,2.6-11.5,0.1-14-1.3c0,2,3.5,5,3.4,12.5
			c-0.2,12.6-18,10.9-22.6,10c-6.1-1.2-10.1-7.2-14.1-15.1C356.5,29.6,351.2,28.7,342.6,36.5z"/>
		<path class="st5" d="M355.6,45.5c-0.8,0.3-1.6,0.6-2.5,0.8l-2.4,0.7c-0.8,0.2-1.6,0.5-2.4,0.8c-0.4,0.1-0.8,0.3-1.2,0.4l-1.2,0.5
			c0,0-0.1,0-0.1,0c0,0,0,0-0.2,0c-0.1,0-0.3-0.1-0.4-0.2c-0.2-0.2-0.1-0.5,0.1-0.7c0.2-0.2,0.5-0.1,0.7,0.1
			c-0.1-0.1-0.2-0.2-0.3-0.2c-0.2,0-0.1,0-0.1,0c0,0,0,0-0.1,0c0,0,0,0,0,0c0,0,0,0,0-0.1l0.1-0.1l0.2-0.2c0.2-0.2,0.3-0.3,0.5-0.5
			c0.4-0.3,0.8-0.5,1.2-0.8c0.8-0.5,1.6-0.8,2.5-1.1c1.7-0.5,3.5-0.7,5.3-0.5c0.3,0,0.5,0.3,0.4,0.5
			C355.8,45.3,355.7,45.5,355.6,45.5z"/>
		<path class="st5" d="M346.1,66c0,0-1.3,20.3,5.9,21.1c11,1.3,21.6-6.5,25.4-9.2c3.4-2.4-0.9-19.2-0.9-19.2l-1.8-8l-3,0.9
			c0,0,0.9,10.5-6.8,13C362.1,65.6,354,62.8,346.1,66z"/>
		<path class="st8" d="M347.2,69.5c-0.4,0.1-0.9,0.2-1.3,0.2c0,0.9,0,1.9,0.1,3c0.6,0,1.3,0,2-0.2c2.5-0.6,4.2-2.2,3.9-3.7
			C351.6,67.3,349.7,68.9,347.2,69.5z"/>
	</g>
	<path class="st1" d="M326.3,254.2c-14-20.5-48.8-78.8-88.4-74.8c-41.9,4.3-53.5,139.1-53.5,139.1l31.6,1.4l28.9-94.4l65.9,91.5
		l45.3-17.4L326.3,254.2z"/>
	<path class="st9" d="M242.5,199.8c-22.5,0.7-36.6,91.8-37.1,95.7l1.3,0.2c0-0.2,3.6-23.9,9.9-47.2c8.2-30.7,17.2-47,25.9-47.3
		c0.1,0,0.2,0,0.3,0c21.6,0,64.8,74.3,65.3,75l1.2-0.7C307.4,272.4,264.8,199.1,242.5,199.8z"/>
	<path class="st0" d="M66.5,332.8c-8.4,1.4-45.5,7.3-51.2,6.5c-4.9-0.6-5.8-12.1-9.2-22.8c-5.4-17.2-7.7-24.4-5.1-24.9
		c5-1.1,17.6,22.2,25.1,24.1l30.3-4.6L66.5,332.8z"/>
	<path class="st10" d="M412,260.4c-10.1,22.5-23.3,76-71.7,78.7c-48.4,2.7-102.3-10.9-141.1-10.1c-38.8,0.8-145,10.9-145,10.9
		s-2.7-9.3-3.5-19.8c-0.8-10.5,0-15.5,0-15.5s97.7-18.3,150-21.4c52.3-3.1,135.3,4.3,135.3,4.3l-29.5-8.5l24-45.3L412,260.4z"/>
	<path class="st11" d="M361.6,294.2c-1.5-0.7-5.2-3-9.1-8.3c-4.9-6.7-2.5-20.6-2.4-20.8l-1.3-0.2c-0.1,0.6-2.5,14.7,2.7,21.8
		c3.9,5.3,7.6,7.7,9.4,8.6c-5.5,6.9-12.5,13.4-21.1,16.9c-16.4,6.7-44.6,3.3-77.2-0.6c-15.8-1.9-32.2-3.9-48.9-4.9
		c-39.5-2.4-86.2,3.4-127.4,8.5c-12.5,1.6-24.4,3-35.4,4.2c0,0.2,0,0.5,0,0.7l0.1,0.7c11-1.2,22.9-2.6,35.5-4.2
		c41.2-5.1,87.9-11,127.2-8.5c16.6,1,33,3,48.8,4.9c32.8,3.9,61.1,7.3,77.9,0.5c24.6-10,36.6-43.7,36.8-44.1l-1.3-0.5
		C375.6,269.1,370.9,282.1,361.6,294.2z"/>
	<path class="st5" d="M354.2,125.1c0,0,8.2,15.3,26.2,14.4c18-0.9,36.9-26.4,36.9-26.4s47.2,21.4,32.5,79.8
		c-9.4,37.1-27.1,90.2-27.1,90.2s-54.1,3.6-102.8-29.6l4.5-92.3C324.5,161.4,329.8,143,354.2,125.1z"/>
	<path class="st12" d="M281.2,119.5l14.5,0.3c1.8,0,3.4,1.1,4.1,2.7l12.3,28.1c0.5,1.2-0.4,2.5-1.7,2.4l-15.5-0.8
		c-1.4-0.1-2.7-1-3.3-2.3l-11.7-28.4C279.3,120.5,280.1,119.5,281.2,119.5z"/>
	<path class="st0" d="M404.5,163.6c-12.2,15.6-45.5,67.7-45.5,67.7s-29.6-68.8-37.7-83.8c-8.2-15-17.4-13.3-17.4-13.3l3.1,3.4
		c0,0-5.7-1.3-5.8,0.2c-0.1,1.5,5.1,2.4,6.5,4.2c0,0-5.2-2.5-6.3-1.3c-1,1.3,5,3.3,6.1,4.8c0,0-4.8-2-5.3-0.8s2.7,2.6,5,6.7
		c2.3,4.1,3.2,9.3,6.1,19.1s10.7,86.8,41.1,91.2c30.5,4.3,78.5-59.3,85.9-70.5C455.8,168.2,424.7,137.8,404.5,163.6z"/>
	<path class="st6" d="M354.5,261.8c2.4,0.3,5,0.3,7.6-0.2c0-0.3,0.1-0.7,0.1-1.1c0-4-3.3-7.3-7.3-7.3c-3.7,0-6.7,2.7-7.2,6.2
		C349.7,260.7,352,261.5,354.5,261.8z"/>
	<g>
		<path class="st10" d="M17.8,334.1c-1.5-2.7-3.2-16.5-3.2-16.5s2.9-2,6-5.8c-7.1-7.1-15.6-21.1-19.5-20.2
			c-2.6,0.6-0.3,7.8,5.1,24.9c3.4,10.7,4.3,22.2,9.2,22.8c0.9,0.1,2.6,0.1,4.8-0.1C19.3,337.3,18.4,335.3,17.8,334.1z"/>
		<path class="st2" d="M17.3,339.3c-4.9-0.6-5.8-12.1-9.2-22.8c-5-15.9-7.3-23.3-5.6-24.7c-0.5-0.2-1-0.3-1.5-0.2
			c-2.6,0.6-0.3,7.8,5.1,24.9c3.4,10.7,4.3,22.2,9.2,22.8c0.5,0.1,1.4,0.1,2.4,0C17.6,339.3,17.4,339.3,17.3,339.3z"/>
	</g>
</g>
</svg>
