<?xml version="1.0" encoding="utf-8"?>
<!-- Generator: Adobe Illustrator 25.2.0, SVG Export Plug-In . SVG Version: 6.00 Build 0)  -->
<svg version="1.1" id="Layer_1" xmlns="http://www.w3.org/2000/svg" xmlns:xlink="http://www.w3.org/1999/xlink" x="0px" y="0px"
	 viewBox="0 0 283.8 324.9" style="enable-background:new 0 0 283.8 324.9;" xml:space="preserve">
<style type="text/css">
	.st0{fill:#F5CFBF;}
	.st1{fill:#0D1D7E;}
	.st2{opacity:0.3;fill:#3D6ACC;enable-background:new    ;}
	.st3{fill:#F29D9D;}
	.st4{fill:#BD422A;}
	.st5{fill:#6B15E5;}
	.st6{fill:#8217FD;}
	.st7{opacity:0.72;fill:url(#SVGID_1_);enable-background:new    ;}
	.st8{opacity:0.72;fill:url(#SVGID_2_);enable-background:new    ;}
	.st9{opacity:0.72;fill:url(#SVGID_3_);enable-background:new    ;}
	.st10{opacity:0.72;fill:url(#SVGID_4_);enable-background:new    ;}
	.st11{fill:#F6D5C7;}
</style>
<g>
	<path class="st0" d="M106.6,296.8c5.7,5.5,12.1,10.9,19.6,13.7c10.5-1,20.9-1.5,30.7-2.6c8.7-4.3,15.7-11,22.4-19.3
		c12-14.9,20.6-32.5,28.7-50.4c-36-9.1-42.5-1.7-47.4-15.8c-5.4-15.6-9.2-101-9.2-101l-69.6,7.4c0,0,5.1,84.1,4.3,98.3
		c-0.5,8.6-9.5,15.3-22.5,22.9C76.2,267,91.3,282.1,106.6,296.8z"/>
	<path class="st1" d="M79.6,237.1C60,252.8,49,252.4,31,265.7C13,279-0.4,317.8,0,335.1l283.8-8.6c0,0-10.7-71.2-54.9-83.5
		c-40.8-11.4-58.8-12.2-58.8-12.2s-25.5,43.9-34.1,44.7S79.6,237.1,79.6,237.1z"/>
	<path class="st2" d="M201.8,242.1c-0.6,25.6-10,85.8-10,85.8l36.5-2.4L201.8,242.1z"/>
	<path class="st2" d="M146.7,179c3-0.3,5.7-0.7,8.3-1.4c-2.2-29-3.7-56.2-3.7-56.2l-49.8,5.1C106.4,157.7,123.1,181.3,146.7,179z"/>
	<ellipse class="st3" cx="90.4" cy="111.3" rx="24" ry="24"/>
	<ellipse class="st4" cx="90.4" cy="111.3" rx="12.7" ry="12.7"/>
	<path class="st0" d="M180.1,102.3c3.2,33.7-6.6,62.6-39,65.4c-24.8,2.4-47.5-23-50.7-56.7s2.6-61.8,39-65.4
		C169.4,41.7,176.8,68.6,180.1,102.3z"/>
	<path d="M125.5,93.8c0.2,1.9-1.2,3.5-3,3.7c-1.9,0.2-3.5-1.2-3.7-3c-0.2-1.9,1.2-3.5,3-3.7C123.7,90.6,125.4,92,125.5,93.8z"/>
	<path d="M166.8,90.4c0.2,1.6-1,3.1-2.7,3.3c-1.6,0.2-3.1-1-3.3-2.7c-0.2-1.6,1-3.1,2.7-3.3C165.2,87.6,166.7,88.8,166.8,90.4z"/>
	<path class="st3" d="M171.1,112.6c0.5,5,4.5,8.9,9.3,9.4c0.5-6.3,0.4-12.9-0.3-19.8c0-0.4-0.1-0.7-0.1-1.1
		C174.5,102.1,170.5,107,171.1,112.6z"/>
	<path class="st3" d="M133.2,115.9c0.6,5.8-3.7,10.9-9.5,11.5s-10.9-3.7-11.5-9.5s3.7-10.9,9.5-11.5
		C127.5,105.9,132.6,110.1,133.2,115.9z"/>
	<path class="st3" d="M156.8,131.1c0.3,2-1.5,3.7-4,3.9s-4.7-1.3-5-3.2c-0.3-2,1.5-3.7,4-3.9S156.6,129.2,156.8,131.1z"/>
	<path class="st3" d="M150.6,89.9l10,15.1c1.2,1.8,0.1,4.2-2,4.5l-9.7,1.2L150.6,89.9z"/>
	<path class="st5" d="M88.9,92.1l1.5,18.8l6.7-0.3c-0.9-4.6-0.7-16.1-0.6-19.8L88.9,92.1z"/>
	<path class="st6" d="M109.1,69.4c1.2-0.4,2.4-0.8,3.6-1.1c1.2-0.2,2.5-0.5,3.8-0.5c2.6-0.2,5.1,0.1,7.7,0.6
		c1.3,0.4,2.5,0.7,3.7,1.2l0.9,0.4l1.7,0.9c0.3,0.2,0.6,0.4,0.8,0.5c2.2,1.4,4.1,3.2,5.5,5.6c0.3,0.5,0.1,1.1-0.4,1.4
		c-0.4,0.2-0.8,0.2-1.1-0.1l-0.1-0.1c-1.7-1.3-3.8-2.5-5.8-3.4s-4.1-1.6-6.3-2.2c-1.1-0.2-2.2-0.5-3.3-0.6c-1.1-0.2-2.2-0.3-3.4-0.4
		c-0.6-0.1-1.1-0.1-1.7-0.1l-1.7-0.1c-1.2,0-2.3,0-3.6-0.1h-0.1c-0.6,0-1-0.5-0.9-1.1C108.5,69.9,108.7,69.5,109.1,69.4z"/>
	<path class="st6" d="M164.8,55.5c7.5-7.7,7.1-41.9-23.5-45C117.7,8.1,95.9,18,85.2,30.1S65.3,50.6,48.8,44.8
		C32.2,39,15.6,46.8,8,61.5s2.6,31.3,16.3,32.9s19.3-12.5,33.1-5.9C78,98.4,88,97.8,96.8,92.9c11.7-6.6,17.1-15.4,19.7-34.2
		C116.5,58.7,150.5,60.6,164.8,55.5z"/>
	<path class="st2" d="M88.8,52.5C81,59.5,71.9,68.9,59,66.8c-12.8-2.1-26,4-31.1,11.9c-2.6,3.9-4.2,10.1-5.2,15.4
		c0.5,0.1,1,0.2,1.6,0.3C38,96,43.6,81.9,57.4,88.5C78,98.4,88,97.8,96.8,92.9c11.7-6.6,17.1-15.4,19.7-34.2
		C113.7,44.9,96.7,45.4,88.8,52.5z"/>
	<path class="st6" d="M154.4,85.9c0.6-0.8,1.4-1.5,2.1-2.3c0.8-0.7,1.6-1.3,2.4-1.9c0.9-0.6,1.8-1.1,2.7-1.6c1-0.4,1.9-0.9,3-1.2
		c2.1-0.7,4.3-1,6.6-0.6c0.6,0.1,1.1,0.2,1.7,0.4c0.5,0.2,1.1,0.4,1.6,0.7c1,0.6,1.9,1.2,2.7,2.2c0.3,0.4,0.2,1.1-0.2,1.4
		c-0.3,0.2-0.6,0.3-0.9,0.1l-0.3-0.1c-0.7-0.2-1.6-0.5-2.4-0.6c-0.8-0.2-1.7-0.2-2.5-0.2c-1.7,0.1-3.3,0.4-5,0.9
		c-0.8,0.2-1.7,0.6-2.5,0.9l-2.5,1.1c-0.8,0.4-1.7,0.8-2.5,1.2c-0.9,0.4-1.7,0.9-2.6,1.2h-0.1c-0.5,0.2-1.1-0.1-1.3-0.6
		C154.1,86.5,154.2,86.1,154.4,85.9z"/>
	<path class="st2" d="M178.2,135.4c-7.5-2.4-18.9-5.8-22-6c-4.7-0.3-3.9,2.5-3.9,2.5c0.6,6.1,11.5,14,11.5,14s-9.7,7.7-7.7,13.5
		c0.5,1.4,1.1,2.7,1.6,3.8C168.4,157.7,174.9,147.8,178.2,135.4z"/>
	<path class="st0" d="M152.7,130.8c1.5-3.1,17.1,2.5,26.1,6.2c8.9,3.7,24.9,12.5,42.8,35.3s32.4,68.5,40.5,100.6
		s10.3,53.4,10.3,53.4l-60.5-0.9c0,0-5.4-63.2-11.7-92.8c-6.4-29.6-11.3-43.1-11.3-43.1l-12.6-10.2c0,0,1.2,4.4-1.6,5.4
		c-2.8,0.9-9.1-7.3-11.9-12.1c-2.8-4.8,0.7-9.4,0.7-9.4s-2.5-2.5-1.1-5.6c1.3-3.1,2.7-3.2,2.7-3.2s-0.9-3.7,0.7-5.1
		c1.6-1.5,6.8-3.5,6.8-3.5s-7.5-5.3-12-7.4C155.9,136.1,151.2,133.8,152.7,130.8z"/>
	
		<linearGradient id="SVGID_1_" gradientUnits="userSpaceOnUse" x1="170.1599" y1="155.4565" x2="168.9446" y2="141.7844" gradientTransform="matrix(1 0 0 -1 0 326)">
		<stop  offset="0" style="stop-color:#F0C3A8"/>
		<stop  offset="1" style="stop-color:#FFFFFF"/>
	</linearGradient>
	<path class="st7" d="M174.6,184.7c2.8-0.9,1.6-5.4,1.6-5.4c-4.5-5.1-10-6.1-11.3-10.4c0.1,1.7-0.8,4.1-2.2,3.6
		C165.5,177.3,171.8,185.6,174.6,184.7z"/>
	
		<linearGradient id="SVGID_2_" gradientUnits="userSpaceOnUse" x1="165.1095" y1="163.4525" x2="168.4011" y2="166.9087" gradientTransform="matrix(1 0 0 -1 0 326)">
		<stop  offset="0" style="stop-color:#F0C3A8"/>
		<stop  offset="1" style="stop-color:#FFFFFF"/>
	</linearGradient>
	<path class="st8" d="M163.3,163.2c2.7-1.5,8.9,0.4,8.9,0.4s-0.5-4.9-4.3-6c-3.5-1-5.6-0.6-5.6-0.6s-0.8,1.8-0.2,4
		C162.3,162.1,163.3,163.2,163.3,163.2z"/>
	
		<linearGradient id="SVGID_3_" gradientUnits="userSpaceOnUse" x1="168.5497" y1="171.2085" x2="171.9304" y2="174.6626" gradientTransform="matrix(1 0 0 -1 0 326)">
		<stop  offset="0" style="stop-color:#F0C3A8"/>
		<stop  offset="1" style="stop-color:#FFFFFF"/>
	</linearGradient>
	<path class="st9" d="M164.9,154.4c2.9-1.7,10.4,2,10.4,2s1-5.9-2.6-6.9c-3.7-1-5.6-1.3-5.6-1.3s-2.1,0.7-2.4,3.4
		C164.6,152.8,164.9,154.4,164.9,154.4z"/>
	
		<linearGradient id="SVGID_4_" gradientUnits="userSpaceOnUse" x1="166.281" y1="182.7569" x2="170.2329" y2="191.7383" gradientTransform="matrix(1 0 0 -1 0 326)">
		<stop  offset="0" style="stop-color:#F0C3A8"/>
		<stop  offset="1" style="stop-color:#FFFFFF"/>
	</linearGradient>
	<path class="st10" d="M152.7,130.8c-1.5,3,3.3,5.3,7.7,7.4c4.5,2.1,12,7.4,12,7.4c5.6,0.3,10.8,2.5,10.8,2.5s2.7-5.2-2.5-10.3
		c-0.7-0.3-1.3-0.6-1.9-0.8C169.8,133.3,154.2,127.8,152.7,130.8z"/>
	<path class="st11" d="M152.4,131.4c1.3,0.9,2.9,1.7,4,1.4s1.8-2.6,1.8-2.6s-1.8-0.6-3.8-0.4C152.4,130.1,152.4,131.4,152.4,131.4z"
		/>
</g>
</svg>
