<?xml version="1.0" encoding="utf-8"?>
<!-- Generator: Adobe Illustrator 25.2.0, SVG Export Plug-In . SVG Version: 6.00 Build 0)  -->
<svg version="1.1" id="Layer_1" xmlns="http://www.w3.org/2000/svg" xmlns:xlink="http://www.w3.org/1999/xlink" x="0px" y="0px"
	 viewBox="0 0 365.2 488.3" style="enable-background:new 0 0 365.2 488.3;" xml:space="preserve">
<style type="text/css">
	.st0{fill:#E32B6B;}
	.st1{fill:#FAF8DC;}
	.st2{opacity:0.3;fill:#3D6ACC;}
	.st3{fill:#F5CFBF;}
	.st4{fill:#8217FD;}
	.st5{opacity:0.51;fill:#E1DEFF;}
	.st6{fill:#F29D9D;}
	.st7{fill:#103FCD;}
	.st8{fill:#C3B9DD;}
</style>
<g>
	<path class="st0" d="M104.6,329.2c-25.9,9.9-38.2,24-45.6,42.2c-7.4,18.2,7.4,117.8,7.4,117.8l155.3,7.9c0,0,43.7-125.5,35.4-141.8
		c-8.4-16.3-26.1-19.6-34.8-22.8C213.5,329.3,104.6,329.2,104.6,329.2z"/>
	<path class="st1" d="M180.5,424.9c-21,0-51.9-1.8-76.7-6.8l0.4-1.8c19.4,3.9,72,9.1,96.2,5.9l0.2,1.8
		C196.5,424.6,189.4,424.9,180.5,424.9z"/>
	<path class="st1" d="M178.5,447.7c-21,0-51.9-1.8-76.7-6.8l0.4-1.8c19.4,3.9,72,9.1,96.2,5.9l0.2,1.8
		C194.4,447.3,187.3,447.7,178.5,447.7z"/>
	<path class="st1" d="M176.5,470c-21,0-51.9-1.8-76.7-6.8l0.4-1.8c19.4,3.9,72,9.1,96.2,5.9l0.2,1.8
		C192.4,469.7,185.3,470,176.5,470z"/>
	<path class="st2" d="M82.9,440.9l10.5-51.3c0,0-4.6,27.5,5.1,42.2c9.7,14.7,6.9,62.6,6.9,62.6H77.1L82.9,440.9z"/>
	<path class="st2" d="M224.5,390.8c0,0-7.4,112.1-8.3,112.3c-0.9,0.2-42.4-3.5-42.4-3.5s0.8-29.1,20.6-43.9
		C214.1,440.8,224.5,390.8,224.5,390.8z"/>
	<path class="st3" d="M210.4,508.3c-8.7-0.9-15-30.5-1.8-60.2c13.2-29.7,43.2-101.2,48.6-104.7c5.4-3.6,20.4-6,33.2-12.2
		c12.8-6.2,26.4-19.4,28.7-17.7c2.3,1.7-11.7,24.6-22.8,31.9c-11.2,7.3-22.1,12.9-22.1,12.9s-9.9,37.7-13.4,70.2
		C257.2,460.8,232.9,510.7,210.4,508.3z"/>
	<path class="st3" d="M68.4,503.7c-18.9-3.3-27.7-32.6-28.9-69.2c-1.3-36.6-1.5-92.6-1.5-92.6s-14.5-3.6-24.8-12.4
		c-10.3-8.8-15.8-27.4-11.9-26.6c3.9,0.8,19.5,15.8,29.9,19c10.4,3.2,22.5,1.5,28.5,8.4c5.9,6.9,11.9,52.2,17.2,76.3
		c5.4,24.2,15.2,48.9,14.2,68.3C90,494.4,82.4,506.1,68.4,503.7z"/>
	<path class="st4" d="M137,227c-10.3-2.1-18.6-15-17.1-23.7c1.1-6.5,7.9-10.8,6.4-16.3c-2.9-10.5,6.1-25.3,18.7-26.1
		c16.2-1,19.2-9.8,21.8-21.8c2.8-12.9,2.4-24.5,25.8-33.6c23.4-9,28-15.5,25.7-28.5c-2.3-13.1,11.8-33.5,37.5-31.3
		c25.7,2.3,37.5,9.1,46.7-3c9.2-12.2,17.1-27,34.8-21.7c17.7,5.3,22.6,33.8,8.5,42.2S349,84.9,359,93.2c10,8.3,9.2,30.8-12.2,35.1
		c-21.4,4.3-22.2,12.1-22.1,25.4c0,13.2-15.3,22-26,20.8c-10.7-1.2-22.2-0.4-28.7,12.9s-7.4,19.7-22.9,21.7
		c-15.5,2.1-16.8,5.5-21.4,13.8c-4.6,8.2-21.9,11.2-21.9,11.2L137,227z"/>
	<path class="st5" d="M177.1,228.7l-7.6-10.9l36.4-24.1c14.4-21.3,20.5-20.8,35.6-25.2c15.1-4.4,3.8-19.6,14.5-32.8
		c10.8-13.2,21-1.9,33.3-10c12.3-8.1,0.8-18.9,17.4-27.7c15.6-8.3,24.5,2.6,45.4-10.7c2.4,2.1,4.9,4.1,7,5.8
		c10,8.3,9.2,30.8-12.2,35.1c-21.4,4.3-22.2,12.1-22.1,25.4c0,13.2-15.3,22-26,20.8c-10.7-1.2-22.2-0.4-28.7,12.9
		s-7.4,19.7-22.9,21.7c-15.5,2.1-16.7,4.5-21.3,12.8c-4.6,8.2-20.3,13.1-20.3,13.1L177.1,228.7z"/>
	<path class="st3" d="M222.3,332.5c-5.6,11.7-4.7,65.5-62.2,62.4c-55.8-3-53.3-54.4-55.5-65.6c3.6-1.2,29.8-11.3,31.3-16.3
		c3.5-12.4,4.8-81.3,4.8-81.3l48.5,1.9c0,0-2.3,68.1-1.4,79C188.1,316.6,217.2,329.8,222.3,332.5z"/>
	<path class="st2" d="M180.9,253.9c-3.7,9.4-17.9,35.1-42.3,35.1c0.4-12.1,0.7-25,0.9-35.5L180.9,253.9z"/>
	
		<ellipse transform="matrix(0.7287 -0.6848 0.6848 0.7287 -104.9137 196.478)" class="st3" cx="195.5" cy="230.7" rx="18.7" ry="18.7"/>
	
		<ellipse transform="matrix(0.9982 -6.016727e-02 6.016727e-02 0.9982 -13.5237 12.1822)" class="st6" cx="195.5" cy="230.7" rx="9.8" ry="9.8"/>
	<path class="st3" d="M125.2,228.1c-0.8,26.3,6.3,47.7,32.9,48.4c15.3,0.4,36.3-19.9,37.1-46.2c0.8-26.3-2.9-45.5-34-48.7
		C131.2,178.4,126,201.8,125.2,228.1z"/>
	<path d="M166.3,224.1c0,1.4,1,2.5,2.4,2.5c1.4,0,2.5-1,2.5-2.4c0-1.4-1-2.5-2.4-2.5C167.5,221.7,166.3,222.8,166.3,224.1z"/>
	<path d="M132.5,222.4c0,1.4,1,2.5,2.4,2.5c1.4,0,2.5-1,2.5-2.4c0-1.4-1-2.5-2.4-2.5C133.7,220,132.6,221,132.5,222.4z"/>
	<path class="st6" d="M125.4,227.8c1.2-0.5,2.5-0.7,3.8-0.5c4.5,0.5,7.8,4.5,7.3,9c-0.5,4.5-4.5,7.8-9,7.3c-0.7-0.1-1.3-0.2-1.9-0.5
		c-0.7-4.8-0.8-9.9-0.2-15.1C125.4,227.9,125.4,227.9,125.4,227.8z"/>
	<path class="st6" d="M164.1,237.3c-0.1,4.5,3.4,8.3,7.9,8.4c4.5,0.1,8.3-3.4,8.4-7.9c0.1-4.5-3.4-8.3-7.9-8.4
		C168,229.2,164.2,232.8,164.1,237.3z"/>
	<path class="st6" d="M150.9,224.2l-7.6,11.8c-0.9,1.4,0,3.3,1.6,3.4l7.5,0.9L150.9,224.2z"/>
	<path class="st7" d="M196.4,244.2c0,0.9,0.7,1.6,1.5,1.6c0.9,0,1.6-0.7,1.6-1.5c0-0.9-0.7-1.6-1.5-1.6
		C197.1,242.6,196.4,243.3,196.4,244.2z"/>
	<path class="st2" d="M214.2,233c-16.1,2.9-24.3-4.1-30.3-9.5c-6-5.4-1.2-24-10.7-29.2c-9.4-5.3-13.6,2.2-23.9-2.8
		c-12-5.9-17,2.5-17,2.5s3.5-10.7,23.6-13.5c20.1-2.8,40.5,1.5,49.1,15.3c2.8,4.6-1,12.8,2.3,17.3C215.5,224.4,214.2,233,214.2,233z
		"/>
	<path class="st4" d="M213.7,225.8c-16.2,1.9-22.4,2-28.1-3.8c-5.7-5.8,0.3-24-8.8-29.9c-9.1-5.9-13.4,1.7-24-2.6
		c-11.3-4.6-16.7-0.3-16.7-0.3s-0.9-15.8,19.3-17.3s45.4,9.3,53.1,23.7C216.1,210.1,213.7,225.8,213.7,225.8z"/>
	<g>
		<path class="st8" d="M177.5,215.6c-1.4-0.5-2.8-1.1-4.2-1.5c-1.4-0.4-2.8-0.7-4.3-0.8c-1.4-0.1-2.9-0.1-4.3,0.1
			c-1.4,0.2-2.9,0.6-4.1,1.3l0,0c-0.2,0.1-0.3,0-0.4-0.1c-0.1-0.1,0-0.3,0.1-0.4c1.3-1,2.7-1.6,4.3-1.9c1.5-0.4,3.1-0.4,4.7-0.3
			c1.6,0.2,3.1,0.5,4.6,1c0.7,0.3,1.4,0.6,2.1,0.9c0.7,0.4,1.3,0.8,2,1.2c0.1,0.1,0.2,0.3,0.1,0.4
			C177.8,215.6,177.6,215.6,177.5,215.6L177.5,215.6z"/>
	</g>
	<g>
		<path class="st8" d="M143.4,214.5c-1.3-0.5-2.5-0.9-3.8-1.3c-1.3-0.4-2.6-0.7-3.9-0.9c-1.3-0.2-2.6-0.3-3.9-0.2
			c-1.3,0.1-2.6,0.3-3.8,0.7l0,0c-0.2,0.1-0.3,0-0.4-0.2c-0.1-0.1,0-0.3,0.1-0.4c1.2-0.8,2.6-1.2,4-1.4c1.4-0.2,2.8-0.1,4.3,0
			c1.4,0.2,2.8,0.6,4.1,1.1c0.7,0.3,1.3,0.6,1.9,0.8c0.6,0.3,1.2,0.7,1.8,1.1c0.1,0.1,0.2,0.3,0.1,0.4
			C143.7,214.5,143.5,214.5,143.4,214.5L143.4,214.5z"/>
	</g>
	<path class="st6" d="M159.8,251.6c0.1-0.4-4.1-1.7-9.3-2.2s-9.4,0.1-9.5,0.6c-0.2,0.6,4.3-0.2,9.5,0.2
		C155.7,250.7,159.7,252.3,159.8,251.6z"/>
</g>
</svg>
