<?xml version="1.0" encoding="utf-8"?>
<!-- Generator: Adobe Illustrator 25.2.0, SVG Export Plug-In . SVG Version: 6.00 Build 0)  -->
<svg version="1.1" id="Layer_1" xmlns="http://www.w3.org/2000/svg" xmlns:xlink="http://www.w3.org/1999/xlink" x="0px" y="0px"
	 viewBox="0 0 256.6 489" style="enable-background:new 0 0 256.6 489;" xml:space="preserve">
<style type="text/css">
	.st0{fill:#F5CFBF;}
	.st1{opacity:0.61;fill:#CBC7FF;}
	.st2{fill:#F29D9D;}
	.st3{fill:#E32B6B;}
	.st4{opacity:0.71;fill:#E1DEFF;}
	.st5{opacity:0.58;fill:#CBC7FF;}
	.st6{fill:#C3B9DD;}
	.st7{fill:#1A1A1A;}
	.st8{fill:#0D1D7E;}
	.st9{fill:#292969;}
	.st10{fill:#7A56E0;}
	.st11{fill:#F8DBD0;}
	.st12{fill:#80A9FD;}
	.st13{fill:#4580FC;}
	.st14{fill:#103FCD;}
	.st15{fill:#246AFC;}
</style>
<g>
	<g>
		<path class="st0" d="M112.3,125.9c-2.1-7.8-1-51.6-1-51.6L77,75.6c0,0-0.4,43.2-1.3,50.1c-0.9,6.9-12.7,9.7-26.6,16.7
			c-1.9,1-4,3.2-5.9,4.8c2.2,5,48.4,21.9,51.7,26.2c3.6,4.8,37.9-20.6,41.9-31.6C120.7,133,114.3,133.3,112.3,125.9z"/>
		<path class="st1" d="M109.5,73.6l-31.7,1.2c0,0-0.1,10.1-0.4,22.4c2.4,5.7,7.3,14.9,15.8,14.8c9.8-0.2,12.8-8.7,15.9-13.7
			C109.1,85.3,109.5,73.6,109.5,73.6z"/>
		<path class="st0" d="M85.7,74.6c-0.4,6.1-5.8,10.8-11.9,10.3C67.6,84.5,63,79.2,63.4,73s5.8-10.8,11.9-10.3
			C81.5,63.1,86.1,68.4,85.7,74.6z"/>
		<path class="st2" d="M80.4,74.2c-0.2,3.2-3,5.7-6.3,5.4c-3.2-0.2-5.7-3-5.4-6.3c0.2-3.2,3-5.7,6.3-5.4
			C78.2,68.2,80.6,71,80.4,74.2z"/>
		<path class="st3" d="M67.7,70.9c-5.1-4.5-6.3-20.5,3.1-27c3.4-2.4,8-3.2,9-6.5c1.8-6.5,11.8-11.4,19.1-7.7
			c9.4,4.7,14,1.1,19.4-4.4c5.8-5.9,9.5-12.2,25.6-9.4c16.1,2.8,20.8,0.9,23.8-6.7c3-7.7,17.7-13.9,31.4-4.4
			c13.6,9.5,18,17,27.2,13.6c9.2-3.4,18.5-8.7,26.7-0.2s1.5,25.2-9.2,25c-10.7-0.2-5.3,12.5-2.5,20.1c2.9,7.6-5.1,19.3-18.5,14.6
			c-13.4-4.7-16.4-0.8-20.8,6.2c-4.4,7-15.8,6.7-21.4,2.5c-5.6-4.1-12.3-7.4-20.3-2.5c-8,4.9-10.6,8-20,4
			c-9.4-3.9-11.2-2.5-16.6,0.3c-5.3,2.8-16-1.2-16-1.2L67.7,70.9z"/>
		<path class="st4" d="M94.4,75.9l-0.7-8.2l31.3,2c12.5-7.3,15.5-7.2,25.4-4.7c9.9,2.6,8.6-9.1,19-12.6c10.4-3.5,12.4,5.8,22,5.5
			c9.6-0.3,6.7-9.7,18.9-9c11.5,0.7,12.9,9.3,29,9.1c0.7,1.9,1.4,3.7,2,5.3c2.9,7.6-5.1,19.3-18.5,14.6c-13.4-4.7-16.4-0.8-20.8,6.2
			c-4.4,7-15.8,6.7-21.4,2.5c-5.6-4.1-12.3-7.4-20.3-2.5c-8,4.9-10.6,8-20,4c-9.4-3.9-10.9-3-16.2-0.2c-5.3,2.8-15.7,0.3-15.7,0.3
			L94.4,75.9z"/>
		
			<ellipse transform="matrix(0.9998 -2.145583e-02 2.145583e-02 0.9998 -1.5571 2.459)" class="st0" cx="113.8" cy="73.8" rx="11.1" ry="11.1"/>
		<path class="st2" d="M108,74.2c0.2,3.2,3,5.7,6.3,5.4c3.2-0.2,5.7-3,5.4-6.3c-0.2-3.2-3-5.7-6.3-5.4C110.2,68.2,107.7,71,108,74.2
			z"/>
		<path class="st0" d="M73.1,78.5c1.1,15.7,6.5,27,22.4,26.7c10-0.2,18.4-11.2,18.3-26.9c-0.1-16.5-3.5-29.7-22.1-29.7
			C73.7,48.7,72,62.9,73.1,78.5z"/>
		<path class="st2" d="M100.6,87.3c0.2,2.7,2.5,4.7,5.2,4.5c2.7-0.2,4.7-2.5,4.5-5.2c-0.2-2.7-2.5-4.7-5.2-4.5
			C102.5,82.3,100.4,84.6,100.6,87.3z"/>
		<path class="st2" d="M76.3,87.2c0.2,2.7,2.5,4.7,5.2,4.5c2.7-0.2,4.7-2.5,4.5-5.2c-0.2-2.7-2.5-4.7-5.2-4.5
			C78.2,82.2,76.2,84.5,76.3,87.2z"/>
		<path class="st2" d="M93.7,78.3l-3.8,7.5c-0.5,0.9,0.2,1.9,1.2,1.9l4.5,0.1L93.7,78.3z"/>
		<path class="st5" d="M124.6,76.6c-9,3.7-13.4,0.4-17.6-2c-4.2-2.4-3.7-13.9-9.8-15.8c-6.2-1.9-7.7,3-14.3,1.3
			c-7.7-2-9.3,2.7-9.3,2.7s-0.2-5.8,11.2-9.8s24.4-4.1,31.2,2.9c2.2,2.3,2.1,5.8,4.6,8.1C126.8,69.5,124.6,76.6,124.6,76.6z"/>
		<path class="st6" d="M109.8,73c-0.5-0.1-1.1-0.2-1.6-0.3c-0.5-0.1-1-0.2-1.5-0.3c-1-0.1-2-0.2-3-0.2c-1,0-2,0.1-3,0.3
			c-1,0.2-2,0.5-2.9,0.9l-0.1,0c-0.2,0.1-0.5,0-0.5-0.2c-0.1-0.2,0-0.3,0.1-0.5c0.8-0.9,1.9-1.4,3-1.8c1.1-0.4,2.3-0.6,3.4-0.6
			c1.2,0,2.3,0.2,3.4,0.5c0.6,0.1,1.1,0.4,1.6,0.6c0.5,0.2,1,0.5,1.5,0.8c0.2,0.1,0.3,0.4,0.1,0.6C110.2,72.9,110,73,109.8,73
			L109.8,73z"/>
		<path class="st7" d="M100.8,78.3c0.7,0.1,1.3,0.3,2,0.4c0.7,0.1,1.3,0.1,1.9,0.1c0.6,0,1.3-0.1,1.9-0.2c0.6-0.1,1.3-0.3,1.8-0.6
			l0,0c0.1-0.1,0.3,0,0.4,0.1c0.1,0.1,0,0.2,0,0.3c-1.1,1.1-2.6,1.6-4.1,1.6c-0.7,0-1.5-0.1-2.2-0.3c-0.4-0.1-0.7-0.2-1-0.4
			c-0.3-0.2-0.6-0.3-0.9-0.5c-0.1-0.1-0.2-0.3-0.1-0.4C100.6,78.4,100.7,78.3,100.8,78.3L100.8,78.3z"/>
		<path class="st7" d="M79,78.3c0.7,0.1,1.3,0.3,2,0.4c0.7,0.1,1.3,0.1,1.9,0.1c0.6,0,1.3-0.1,1.9-0.2c0.6-0.1,1.3-0.3,1.8-0.6l0,0
			c0.1-0.1,0.3,0,0.4,0.1c0.1,0.1,0,0.2,0,0.3c-1.1,1.1-2.6,1.6-4.1,1.6c-0.7,0-1.5-0.1-2.2-0.3c-0.4-0.1-0.7-0.2-1-0.4
			c-0.3-0.2-0.6-0.3-0.9-0.5c-0.1-0.1-0.2-0.3-0.1-0.4C78.7,78.4,78.9,78.3,79,78.3L79,78.3z"/>
		<path class="st6" d="M88.8,72.7c-0.5-0.1-0.9-0.2-1.4-0.2c-0.5-0.1-0.9-0.2-1.4-0.2c-0.9-0.1-1.8-0.2-2.7-0.2
			c-0.9,0-1.8,0-2.6,0.2c-0.9,0.1-1.7,0.4-2.5,0.7l-0.1,0c-0.2,0.1-0.5,0-0.5-0.2c-0.1-0.2,0-0.3,0.1-0.4c0.8-0.8,1.7-1.3,2.7-1.6
			c1-0.3,2-0.4,3-0.4c1,0,2,0.2,3,0.5c0.5,0.1,0.9,0.3,1.4,0.5c0.4,0.2,0.9,0.5,1.3,0.7c0.2,0.1,0.3,0.4,0.1,0.6
			C89.1,72.6,89,72.7,88.8,72.7L88.8,72.7z"/>
		<path class="st2" d="M88.4,92.3c0,0.7,2.6,1.4,5.7,1.4c3.1-0.1,5.6-0.7,5.6-1.6c0-1.1-2.5,0.2-5.6,0.2
			C90.9,92.4,88.4,91.2,88.4,92.3z"/>
		<path class="st8" d="M71.9,94.8c-0.3,0-0.6-0.2-0.6-0.6V82.4c0-0.3,0.2-0.6,0.6-0.6c0.3,0,0.6,0.2,0.6,0.6v11.8
			C72.4,94.5,72.2,94.8,71.9,94.8z"/>
		<path class="st8" d="M115.2,95.3c-0.3,0-0.6-0.2-0.6-0.6V82.9c0-0.3,0.2-0.6,0.6-0.6c0.3,0,0.6,0.2,0.6,0.6v11.8
			C115.8,95,115.5,95.3,115.2,95.3z"/>
		<path class="st3" d="M124.8,69.7c-9,3.7-12.6,4.7-16.8,2.3c-4.2-2.4-3.7-13.9-9.8-15.8c-6.2-1.9-7.6,3.7-14.4,2.9
			c-7.3-0.9-10.5,2.3-10.5,2.3s-2.4-10.8,9-14.9c11.4-4.1,27.9-0.4,34.7,6.7C123.7,60.3,124.8,69.7,124.8,69.7z"/>
	</g>
	<path class="st8" d="M56,315.5c-20.9,0-26.2-22-21.8-44.7c5.3-26.5,31.8-39.2,56.4-39.2s50.4,15.2,57.3,41.3
		c5.4,20.3-1.8,42.6-22.7,42.6H56z"/>
	<path class="st9" d="M121.8,314.2H54.6c-4.6,0-8.4-3.8-8.4-8.4v-20.7c0-4.6,3.8-8.4,8.4-8.4h67.1c4.6,0,8.4,3.8,8.4,8.4v20.7
		C130.2,310.4,126.4,314.2,121.8,314.2z"/>
	<path class="st10" d="M68.5,132.8c0,0-20.9,7.6-28.3,15.3c-6.2,6.5-8.8,10.7-8.8,10.7l21.4,69.4h75.9l26.6-69.6
		c0,0-5.8-10.6-18.8-17.6c-12.9-7-16.6-7.7-18.1-8.6c0,0-18.5,22.6-23.3,22.8C90.5,155.5,68.5,132.8,68.5,132.8z"/>
	<path class="st3" d="M95.2,157.3c5.8,0.1,22.2-20.9,24.8-24.2c-0.7-0.3-1.1-0.5-1.5-0.7c0,0-18.5,22.6-23.3,22.8
		c-4.8,0.2-26.7-22.5-26.7-22.5s-0.6,0.2-1.6,0.6C69.3,135.9,89.4,157.2,95.2,157.3z"/>
	<path class="st0" d="M31.9,158.9c3.2,12.3,15.2,13.6,17.3,29.6C38.7,207.8,28,236.6,28,236.6s40.7,2,57.1,7L84.7,263
		c0,0-51.8,0-66.4,0s-21.5-9.9-16.8-32.3C7.4,202.5,23.3,171,31.9,158.9z"/>
	<path class="st0" d="M154.6,158.9c-1,12.5-20.7,21.2-17.3,29.6c7.7,19.1,19.9,48.6,19.9,48.6s-40.3-1.1-55.3,3.6V263
		c0,0,51.8,0,66.3,0s21.7-10.9,16.5-33.2C179.5,208,169.2,179.4,154.6,158.9z"/>
	<g>
		<path class="st0" d="M49.2,279.9C65.5,277.4,72,293.2,78,318s21.6,91.2,29.4,114c7.2,21-1.2,14.4-4.8,25.8
			c-3.3,10.6-8.8,18.5-16.8,18.9c-5.7,0.3-0.1-17.1,6.3-30.3C91.2,434,78.3,410,58.2,366.6c-19.8-42.8-20.2-49.6-21.4-64
			C35.6,288.2,43.2,280.8,49.2,279.9z"/>
		<path class="st2" d="M45.8,294.3c0,3.9,3.1,7,7,7s7-3.1,7-7c0-3.9-3.1-7-7-7S45.8,290.4,45.8,294.3z"/>
	</g>
	<path class="st2" d="M4.9,249c-1.5,0-2.9,0.4-4.1,1.2c1.4,6.2,5,10.1,10.2,11.8c1.2-1.4,1.8-3.1,1.8-5.1
		C12.8,252.5,9.2,249,4.9,249z"/>
	<path class="st2" d="M185.3,251.1c-1.3-0.9-2.8-1.4-4.5-1.4c-4.4,0-7.9,3.5-7.9,7.9c0,1.7,0.6,3.4,1.5,4.7
		C179.8,260.7,183.6,257,185.3,251.1z"/>
	<g>
		<path class="st11" d="M106.5,279.3c15.3,0,15,30.3,14.1,46.5c-0.9,16.2-10.5,67.2-22.5,101.7c-12,34.5-13.8,40.2-14.1,50.1
			c-0.3,9.9-11.4,11.7-18.9,11.4c-7.5-0.3-7.5-2.1,0.3-23.4c7.8-21.3,17.7-81.3,19.5-116.7C86.7,313.5,78.9,279.3,106.5,279.3z"/>
		<path class="st2" d="M96.8,294.6c0,3.9,3.1,7,7,7s7-3.1,7-7c0-3.9-3.1-7-7-7S96.8,290.7,96.8,294.6z"/>
	</g>
	<path class="st8" d="M34,291.7c6.4-10.7,77.6-10.9,99.1-1.4l-1.4-30.3l-91.4,1.7L34,291.7z"/>
	<g>
		<path class="st12" d="M137.5,262.3H38.6c-3.4,0-6.2-2.8-6.2-6.2V194c0-3.4,2.8-6.2,6.2-6.2h98.9c3.4,0,6.2,2.8,6.2,6.2v62.1
			C143.8,259.5,141,262.3,137.5,262.3z"/>
		<path class="st13" d="M143.8,263.7H32.4v-68.3c0-3.4,2.8-6.2,6.2-6.2h98.9c3.4,0,6.2,2.8,6.2,6.2V263.7z"/>
		<path class="st14" d="M143.8,263.7H32.4v2.2c0,0.7,0.6,1.4,1.4,1.4h108.7c0.7,0,1.4-0.6,1.4-1.4V263.7z"/>
		
			<ellipse transform="matrix(0.1602 -0.9871 0.9871 0.1602 -149.6961 276.4362)" class="st15" cx="87.6" cy="226.2" rx="9.8" ry="9.8"/>
	</g>
</g>
</svg>
