<?xml version="1.0" encoding="utf-8"?>
<!-- Generator: Adobe Illustrator 23.0.1, SVG Export Plug-In . SVG Version: 6.00 Build 0)  -->
<svg version="1.1" id="Layer_1" xmlns="http://www.w3.org/2000/svg" xmlns:xlink="http://www.w3.org/1999/xlink" x="0px" y="0px"
	 viewBox="0 0 64.7 32" style="enable-background:new 0 0 64.7 32;" xml:space="preserve">
<style type="text/css">
	.st0{opacity:0.3;}
	.st1{fill-rule:evenodd;clip-rule:evenodd;}
</style>
<g transform="translate(0 5)" class="st0">
	<path class="st1" d="M39,19.4c-3.2,2.4-7.9,3.6-11.9,3.6c-5.6,0-10.7-2.1-14.5-5.5c-0.3-0.3,0-0.7,0.3-0.5
		c4.2,2.4,9.2,3.9,14.6,3.9c3.6,0,7.5-0.7,11.1-2.2C39.1,18.4,39.6,19,39,19.4"/>
	<path class="st1" d="M40.3,17.9c-0.4-0.5-2.7-0.3-3.8-0.1c-0.3,0.1-0.4-0.3-0.1-0.5c1.8-1.3,4.9-0.9,5.2-0.5
		c0.3,0.5-0.1,3.5-1.8,4.9c-0.3,0.2-0.5,0.1-0.4-0.2C39.9,20.6,40.8,18.4,40.3,17.9"/>
	<path class="st1" d="M36.7,8.2V6.9c0-0.2,0.1-0.3,0.3-0.3h5.6c0.2,0,0.3,0.1,0.3,0.3V8c0,0.2-0.1,0.4-0.4,0.8l-3,4.2
		c1.1,0,2.2,0.1,3.2,0.7c0.2,0.1,0.3,0.3,0.3,0.5v1.3c0,0.2-0.2,0.4-0.4,0.3c-1.7-0.9-4-1-5.9,0c-0.2,0.1-0.4-0.1-0.4-0.3v-1.2
		c0-0.2,0-0.5,0.2-0.9L40,8.5h-3C36.9,8.5,36.7,8.3,36.7,8.2"/>
	<path class="st1" d="M16.2,16h-1.7c-0.1,0-0.3-0.1-0.3-0.3V6.9c0-0.2,0.1-0.3,0.3-0.3H16c0.2,0,0.3,0.1,0.3,0.3V8l0,0
		c0.4-1.1,1.2-1.6,2.2-1.6c1.1,0,1.7,0.5,2.2,1.6c0.4-1.1,1.4-1.6,2.4-1.6c0.7,0,1.5,0.3,2,1c0.5,0.7,0.5,1.8,0.5,2.8v5.5
		c0,0.2-0.1,0.3-0.3,0.3h-1.7c-0.2,0-0.3-0.1-0.3-0.3V11c0-0.4,0.1-1.3-0.1-1.6c-0.1-0.6-0.5-0.7-1-0.7c-0.4,0-0.9,0.3-1.1,0.7
		C21,9.8,21,10.6,21,11.1v4.7c0,0.2-0.1,0.3-0.3,0.3H19c-0.2,0-0.3-0.1-0.3-0.3v-4.7c0-1,0.1-2.4-1.1-2.4c-1.3,0-1.2,1.4-1.2,2.4
		v4.7C16.5,15.9,16.4,16,16.2,16"/>
	<path class="st1" d="M47.8,6.4c2.6,0,3.9,2.2,3.9,4.9c0,2.7-1.5,4.8-3.9,4.8c-2.5,0-3.9-2.2-3.9-4.9C44,8.6,45.4,6.4,47.8,6.4
		 M47.9,8.3c-1.3,0-1.3,1.7-1.3,2.8s0,3.4,1.3,3.4c1.3,0,1.4-1.8,1.4-3c0-0.7,0-1.6-0.3-2.3C48.8,8.5,48.4,8.3,47.9,8.3"/>
	<path class="st1" d="M55,16h-1.7c-0.2,0-0.3-0.1-0.3-0.3V6.9c0-0.1,0.1-0.3,0.3-0.3h1.6c0.1,0,0.3,0.1,0.3,0.3v1.3l0,0
		c0.5-1.2,1.1-1.8,2.3-1.8c0.8,0,1.5,0.3,2,1.1c0.5,0.7,0.5,1.8,0.5,2.7v5.5c0,0.1-0.1,0.3-0.3,0.3H58c-0.1,0-0.3-0.1-0.3-0.3V11
		c0-1,0.1-2.4-1.1-2.4c-0.4,0-0.8,0.3-1,0.7c-0.3,0.5-0.3,1.1-0.3,1.6v4.7C55.4,15.9,55.2,16,55,16"/>
	<path class="st1" d="M32.2,11.8c0,0.7,0,1.3-0.3,1.8c-0.3,0.5-0.7,0.8-1.2,0.8c-0.7,0-1.1-0.5-1.1-1.3c0-1.5,1.3-1.7,2.6-1.7
		C32.2,11.5,32.2,11.8,32.2,11.8z M34,16c-0.1,0.1-0.3,0.1-0.4,0.1c-0.6-0.5-0.7-0.7-1-1.1c-0.9,1-1.6,1.3-2.8,1.3
		c-1.5,0-2.6-0.9-2.6-2.7c0-1.4,0.7-2.3,1.8-2.8c0.9-0.4,2.2-0.5,3.2-0.6V9.8c0-0.4,0-0.9-0.2-1.3c-0.3-0.3-0.7-0.4-1-0.4
		c-0.7,0-1.3,0.3-1.4,1.1c0,0.1-0.1,0.3-0.3,0.3l-1.6-0.2c-0.1,0-0.3-0.1-0.3-0.3c0.4-2,2.2-2.6,3.8-2.6c0.9,0,1.9,0.2,2.6,0.9
		c0.9,0.8,0.7,1.8,0.7,3v2.7c0,0.8,0.3,1.2,0.7,1.6c0.1,0.1,0.1,0.3,0,0.5C34.9,15.2,34.3,15.7,34,16L34,16"/>
	<path class="st1" d="M9.8,11.8c0,0.7,0,1.3-0.3,1.8c-0.3,0.5-0.7,0.7-1.2,0.7c-0.7,0-1.1-0.5-1.1-1.3c0-1.5,1.3-1.7,2.6-1.7
		C9.8,11.4,9.8,11.8,9.8,11.8z M11.5,16c-0.1,0.1-0.3,0.1-0.4,0.1c-0.6-0.5-0.7-0.7-1-1.1c-1,0.9-1.6,1.3-2.8,1.3
		c-1.5,0-2.6-0.9-2.6-2.7c0-1.4,0.7-2.3,1.8-2.8c0.9-0.4,2.2-0.5,3.2-0.6V9.8c0-0.4,0-0.9-0.2-1.3c-0.3-0.3-0.7-0.4-1-0.4
		c-0.7,0-1.3,0.3-1.4,1.1c0,0.1-0.1,0.3-0.3,0.3L5.2,9.3C5.1,9.3,4.9,9.2,4.9,9c0.4-2,2.2-2.6,3.8-2.6c0.9,0,1.9,0.2,2.6,0.9
		c0.9,0.8,0.7,1.8,0.7,3v2.7c0,0.8,0.3,1.2,0.7,1.6c0.1,0.1,0.1,0.3,0,0.5C12.5,15.2,11.8,15.7,11.5,16L11.5,16"/>
</g>
</svg>
