<?xml version="1.0" encoding="utf-8"?>
<!-- Generator: Adobe Illustrator 25.2.0, SVG Export Plug-In . SVG Version: 6.00 Build 0)  -->
<svg version="1.1" id="Layer_1" xmlns="http://www.w3.org/2000/svg" xmlns:xlink="http://www.w3.org/1999/xlink" x="0px" y="0px"
	 viewBox="0 0 108.5 32" style="enable-background:new 0 0 108.5 32;" xml:space="preserve">
<style type="text/css">
	.st0{opacity:0.3;}
	.st1{fill-rule:evenodd;clip-rule:evenodd;}
</style>
<g class="st0">
	<path class="st1" d="M45.1,10.4v8.9c0,3.1,1.3,5.6,6.3,5.6h12.3V10.4H59v10.7h-6.5c-2,0-2.8-0.8-2.8-2.5v-8.2H45.1z M53.6,10.4V7.1
		H50v3.4H53.6z M58.8,10.4V7.1h-3.5v3.4H58.8z M85.9,24.9V16c0-3.1-1.3-5.6-6.3-5.6H66.9v14.5h4.6V14.2h6.9c2,0,2.8,0.8,2.8,2.5v8.2
		L85.9,24.9L85.9,24.9z M92.9,21.1c-0.5,0-0.9-0.4-0.9-0.9c0-0.5,0.4-0.9,0.9-0.9h7.8V16h-8c-2.5,0-4.5,2-4.5,4.5
		c0,2.5,2,4.5,4.5,4.5l14.3,0v-9.5c0-1.8-1.2-5-4.9-5H89v3.8h11.1c1.4,0,2.3,0.5,2.3,2.4v4.5L92.9,21.1L92.9,21.1z M38.3,21.1
		c0.5,0,0.9-0.4,0.9-0.9c0-0.5-0.4-0.9-0.9-0.9l0,0l-8.4,0c-2.5,0-4.5-2-4.5-4.5c0,0,0,0,0,0c0-2.5,2-4.5,4.4-4.5l12.3,0v3.8H30.5
		c-0.5,0-0.9,0.4-0.9,0.9S30,16,30.5,16l0,0l8.2,0c2.5,0,4.5,2,4.5,4.5c0,0,0,0,0,0c0,2.5-2,4.5-4.5,4.5c0,0,0,0,0,0H24.6v-3.8
		L38.3,21.1z M11.1,12.5h6.7V16H8.3v3.4h9.5v5.6h4.8V8.2H11.2c-7.9,0-9.9,5-9.9,8.2v8.5h4.8v-8.7C6.1,14.2,8.1,12.6,11.1,12.5z"/>
</g>
</svg>
