<?xml version="1.0" encoding="utf-8"?>
<!-- Generator: Adobe Illustrator 25.2.0, SVG Export Plug-In . SVG Version: 6.00 Build 0)  -->
<svg version="1.1" id="Layer_1" xmlns="http://www.w3.org/2000/svg" xmlns:xlink="http://www.w3.org/1999/xlink" x="0px" y="0px"
	 viewBox="0 0 52.6 32" style="enable-background:new 0 0 52.6 32;" xml:space="preserve">
<style type="text/css">
	.st0{opacity:0.3;}
</style>
<path class="st0" d="M34.5,19.5c-1.2,0-2.2-1-2.2-2.2c0-1.2,1-2.2,2.2-2.2c0.3,0,0.7,0.1,1,0.2l1.2-2.4c-0.7-0.4-1.4-0.5-2.2-0.5
	c-2.3,0-4.2,1.5-4.7,3.7c-0.5-2.1-2.4-3.7-4.7-3.7c-0.5,0-0.9,0-1.4,0.1v2.9c0.4-0.3,0.9-0.4,1.4-0.4c1.2,0,2.2,1,2.2,2.2
	c0,1.2-1,2.2-2.2,2.2c-1.2,0-2.2-1-2.2-2.2V8.9h-2.7v6.7c-0.7-1.9-2.5-3.2-4.6-3.2c-2.3,0-4.3,1.6-4.8,3.8c-0.5-2.2-2.5-3.8-4.8-3.8
	c-0.5,0-0.9,0-1.4,0.1v2.9C5.1,15.2,5.6,15,6.1,15c1.2,0,2.2,0.9,2.2,2.2c0,0,0,0,0,0.1c0,1.2-1,2.2-2.2,2.2c0,0,0,0-0.1,0
	c-1.2,0-2.2-1-2.2-2.2c0,0,0,0,0,0V8.9H1.1l0.1,8.4c0,2.7,2.1,4.8,4.7,4.9c0,0,0.1,0,0.1,0c2.3,0,4.3-1.6,4.8-3.8
	c0.5,2.2,2.5,3.8,4.8,3.8c2.3,0,4.2-1.6,4.7-3.7c0.5,2.1,2.5,3.7,4.8,3.7c2.3,0,4.2-1.5,4.7-3.7c0.5,2.1,2.4,3.7,4.7,3.7
	c0.9,0,1.7-0.2,2.4-0.6l-1.2-2.4C35.3,19.4,34.9,19.5,34.5,19.5L34.5,19.5z M15.6,19.5c-1.2,0-2.2-1-2.2-2.2c0,0,0,0,0-0.1
	c0-1.2,0.9-2.2,2.2-2.2c0,0,0,0,0.1,0c1.2,0,2.2,1,2.2,2.2c0,0,0,0,0,0C17.8,18.5,16.8,19.4,15.6,19.5
	C15.6,19.5,15.6,19.5,15.6,19.5z"/>
<path class="st0" d="M49.9,12.5V8.9h-2.6v3.6h-1.8v2.1c-0.9-1.4-2.4-2.3-4.1-2.3c-2.7,0-4.9,2.2-4.9,4.9c0,0,0,0,0,0c0,0,0,0,0,0
	c0,2.4,1.7,4.3,3.9,4.8c0.3,0.1,0.7,0.1,1,0.1c0.1,0,0.2,0,0.3,0c0.2,0,0.4,0,0.5-0.1c0.1,0,0.1,0,0.2,0c0.1,0,0.1,0,0.2,0v0
	c2.1-0.6,3.6-2.5,3.6-4.7c0-0.7-0.2-1.4-0.4-2h1.5v3.7c0,1.7,1.3,4,4.3,3.1v-2.6c-0.4,0.4-1.7,0.4-1.6-1v-3.2h1.6v0v-2.7H49.9z
	 M41.3,19.5c-1.2,0-2.2-1-2.2-2.2s1-2.2,2.2-2.2s2.2,1,2.2,2.2S42.5,19.5,41.3,19.5z"/>
</svg>
