<?xml version="1.0" encoding="utf-8"?>
<!-- Generator: Adobe Illustrator 23.0.1, SVG Export Plug-In . SVG Version: 6.00 Build 0)  -->
<svg version="1.1" id="Layer_1" xmlns="http://www.w3.org/2000/svg" xmlns:xlink="http://www.w3.org/1999/xlink" x="0px" y="0px"
	 viewBox="0 0 123.8 32" style="enable-background:new 0 0 123.8 32;" xml:space="preserve">
<style type="text/css">
	.st0{opacity:0.3;}
</style>
<path class="st0" d="M112.4,23.3v-8.8c0-3.9-2.5-5.9-5.3-5.9c-1.9,0-3.3,0.7-4.1,1.7V9h-4.3v14.3h4.3v-7.8c0-2,1.1-3,2.7-3
	c1.4,0,2.5,0.8,2.5,2.6v8.2L112.4,23.3L112.4,23.3z"/>
<path class="st0" d="M122.3,21.2c-1.5,0-1.5-1.3-1.5-1.3v-5.1h3l0-4.1h-3v-4l-4.3,1.3v2.7h-2.3v4.1h2.3V20c0,4,1.6,5.7,7.2,5.1
	L122.3,21.2z"/>
<path class="st0" d="M77.9,23.3v-8.8c0-3.9-2.5-5.9-5.3-5.9c-1.9,0-3.3,0.7-4.1,1.7V9h-4.3v14.3h4.3v-7.8c0-2,1.1-3,2.7-3
	c1.4,0,2.5,0.8,2.5,2.6v8.2L77.9,23.3L77.9,23.3z"/>
<path class="st0" d="M95.5,23.2V8.9v0h-4.3v1.4c-0.9-1.1-2.3-1.7-4.3-1.7c-3.7,0-6.8,3.3-6.8,7.6s3.1,7.6,6.8,7.6
	c1.9,0,3.3-0.7,4.3-1.7v1.4L95.5,23.2L95.5,23.2z M87.8,19.5c-2,0-3.4-1.3-3.4-3.5c0-2.1,1.4-3.5,3.4-3.5c2,0,3.4,1.3,3.4,3.5
	S89.8,19.5,87.8,19.5z"/>
<polygon class="st0" points="41.3,23.2 46.6,8.8 41.8,8.8 38.8,17.9 35.9,8.8 31.1,8.8 36.4,23.2 "/>
<path class="st0" d="M21.1,19.4L18.7,18l-2,3.6c0,0,3.1,3,6.6,2.6c3.5-0.4,5.1-1.7,5.1-1.7s5.3-3.8,2.8-9.6s-9-5-9-5s-3.7,0.6-5,2
	c0,0-0.9,0.7-1.7,2s-3.7,6.7-3.7,6.7s-1.3,1.7-4.2,1.2s-2.7-4.2-2.7-4.2S4.7,13,7.6,12.5s4.1,1,4.1,1l2.3-4c0,0-4.3-3.1-9.2-0.9
	s-5,7.2-5,7.2s0.4,4.4,2.6,6s3.1,2.6,8.1,2.3c5-0.3,6.8-6.1,6.8-6.1l2-3.8c0,0,1.8-3.2,6-1.3c0,0,2.8,2.4,0.9,5.1
	S21.1,19.4,21.1,19.4z"/>
<path class="st0" d="M61.7,16c0-4.3-3.1-7.6-7.3-7.6c-4.5,0-7.6,3.3-7.6,7.6s3,7.6,7.9,7.6c2.7,0,4.8-1,6.2-3l-3.4-2
	c-0.6,0.6-1.6,1.1-2.8,1.1c-1.6,0-2.9-0.5-3.4-2h10.2C61.7,17.2,61.7,16.6,61.7,16z M51.3,14.5c0.4-1.5,1.5-2.3,3.1-2.3
	c1.3,0,2.6,0.6,3,2.3C57.5,14.5,51.3,14.5,51.3,14.5z"/>
</svg>
