<?xml version="1.0" encoding="utf-8"?>
<!-- Generator: Adobe Illustrator 23.0.1, SVG Export Plug-In . SVG Version: 6.00 Build 0)  -->
<svg version="1.1" id="Layer_1" xmlns="http://www.w3.org/2000/svg" xmlns:xlink="http://www.w3.org/1999/xlink" x="0px" y="0px"
	 viewBox="0 0 81.8 32" style="enable-background:new 0 0 81.8 32;" xml:space="preserve">
<style type="text/css">
	.st0{opacity:0.3;}
</style>
<g class="st0">
	<path d="M12.7,12.8V22c0,0.8,0.2,1.5,0.5,2c0.4,0.5,0.9,0.8,1.6,0.8c0.3,0,0.6-0.1,1-0.2c0,0,0.7,0,1.7-0.6v0.6h3.2v-8.5h2.3v4.4
		c0,0.4,0,0.7,0,0.9c0,0.3,0.1,0.6,0.1,0.9c0.1,0.3,0.1,0.6,0.2,0.8c0.1,0.2,0.2,0.4,0.3,0.7c0.1,0.2,0.3,0.4,0.5,0.5
		c0.2,0.1,0.4,0.3,0.7,0.3c0.3,0.1,0.6,0.1,1,0.2c0.1,0,0.2,0,0.3,0c0.6,0,1.2-0.1,1.9-0.2v-2.6c0,0,0,0-0.1,0c-0.1,0-0.1,0-0.2,0
		c-0.1,0-0.2,0-0.3,0c-0.1,0-0.2,0-0.3,0c-0.7,0-1-0.3-1-1V15h1.6v-2.2h-1.6V9.2h-3.2v3.6H22h-1.3h-0.3h-2.9v8.6
		c-0.8,0.5-1.3,0.4-1.6,0.2v-8.8L12.7,12.8L12.7,12.8z"/>
	<path d="M10.8,13.7v-1.1c0-0.6,0-1.1-0.1-1.6c-0.1-0.5-0.3-0.9-0.5-1.3C10,9.3,9.7,9,9.3,8.7C8.9,8.4,8.5,8.2,8,8.1
		C7.4,7.9,6.8,7.8,6.1,7.8c-0.7,0-1.3,0.1-1.9,0.3c-0.5,0.2-1,0.4-1.4,0.7C2.5,9.2,2.2,9.6,2,10c-0.2,0.5-0.4,1-0.5,1.6
		c-0.1,0.6-0.2,1.2-0.2,2v5.5c0,0.9,0.1,1.7,0.2,2.4c0.1,0.7,0.4,1.3,0.7,1.8c0.3,0.5,0.8,0.9,1.4,1.2s1.3,0.4,2.1,0.4
		c1.2,0,2.1-0.5,2.6-1.6l0.2,1.4h2.3V16H6.2v2.2h1.5V20c0,1.5-0.5,2.2-1.4,2.2c-0.5,0-0.8-0.2-1-0.6C5.1,21.3,5,20.8,5,20.1v-7.6
		c0-0.3,0-0.5,0-0.6c0-0.2,0-0.3,0.1-0.6c0-0.2,0.1-0.4,0.2-0.5c0.1-0.1,0.2-0.2,0.4-0.3c0.2-0.1,0.3-0.1,0.6-0.1
		c0.2,0,0.4,0,0.6,0.1c0.2,0.1,0.3,0.2,0.3,0.3c0.1,0.1,0.1,0.3,0.2,0.4c0,0.2,0.1,0.4,0.1,0.5c0,0.2,0,0.4,0,0.6v1.3L10.8,13.7
		L10.8,13.7z"/>
	<polygon points="41,21.1 38.9,12.6 36.3,12.6 34.1,21.1 31.9,12.6 29.3,12.6 32.8,24.8 35.5,24.8 37.6,16.7 39.8,24.8 42.5,24.8 
		45.9,12.6 43.3,12.6 	"/>
	<path d="M78.9,12.6h-2.7c-0.8,4.3-4.1,3.6-4.1,3.6V6.9h-2.7v17.9h2.7v-5.7c1,0,1.4,0.7,1.4,0.7l3.6,5h3.3l-4.7-6.5
		C79,16.2,78.9,12.6,78.9,12.6z"/>
	<path d="M63.3,24.8v-6.5c0.7-3.5,4.3-2.9,4.3-2.9v-2.7c-3.3,0-4.3,1.8-4.3,1.8v-1.8h-2.7v12.1H63.3z"/>
	<path d="M60.5,12.6L60.5,12.6L60.5,12.6L60.5,12.6z"/>
	<path d="M52.3,25.1c3.5,0,6.4-2.8,6.4-6.3s-2.9-6.3-6.4-6.3s-6.4,2.8-6.4,6.3S48.8,25.1,52.3,25.1z M52.3,15.4
		c1.9,0,3.4,1.5,3.4,3.4c0,1.9-1.5,3.4-3.4,3.4s-3.4-1.5-3.4-3.4C48.9,16.9,50.4,15.4,52.3,15.4z"/>
</g>
</svg>
