<?xml version="1.0" encoding="utf-8"?>
<!-- Generator: Adobe Illustrator 25.2.0, SVG Export Plug-In . SVG Version: 6.00 Build 0)  -->
<svg version="1.1" id="Layer_1" xmlns="http://www.w3.org/2000/svg" xmlns:xlink="http://www.w3.org/1999/xlink" x="0px" y="0px"
	 viewBox="0 0 62.5 32" style="enable-background:new 0 0 62.5 32;" xml:space="preserve">
<style type="text/css">
	.st0{opacity:0.3;}
	.st1{fill-rule:evenodd;clip-rule:evenodd;}
</style>
<g class="st0">
	<path class="st1" d="M44,11.9h2.8V9.2H44V11.9z M27.9,18c0-3.1-2.4-4.4-4.5-4.4c-3,0-5.3,2.6-5.3,5.2c0,3.3,2.4,5.2,5.6,5.2
		c2.7,0,3.7-1.7,4-2.8l-0.3-0.1c-0.1,0.5-1,2.7-3.4,2.7c-2.7,0-2.9-2.5-2.9-4.7V18H27.9L27.9,18z M23.4,14c1.4,0,1.4,1.6,1.4,2.2
		v1.5h-3.7C21.3,16.2,21.3,14,23.4,14z"/>
	<path class="st1" d="M61,14.3V14h-2.9V8.6l-0.4,0.5c0,0-0.2,0.2-0.4,0.4c-0.2,0.2-0.4,0.4-0.5,0.4l-0.5,0.5
		c-0.1,0.1-0.4,0.2-0.6,0.4l-0.4,0.3V14h-3V8.6L52,9.1c0,0-0.2,0.2-0.4,0.4l-0.4,0.4c-0.2,0.2-0.4,0.3-0.6,0.5
		c-0.1,0.1-0.4,0.2-0.6,0.4c-0.3,0.1-0.5,0.3-0.5,0.3V14h-9v0.3h1.6l-2.2,6l-2.4-6h1.5V14h-5.7v0.3h1.1l0.6,1.6l-1.7,4.4l-2.3-6h1.4
		V14h-5.8v0.3h1.4l3.9,10.1h0.1l3-8.1l3.2,8.1h0.1l3.7-10.1H44v9.2h-1.5v0.3h5.8v-0.3h-1.5v-9.2h2.8v7c0,0,0,2.7,3.2,2.8h0.1
		c0.6,0,1.1-0.1,1.4-0.3c0.4-0.1,0.6-0.3,0.7-0.5c0.3-0.3,0.5-0.7,0.6-1.1c0.3,0.8,1,1.8,2.9,1.9h0.1c0.6,0,1-0.1,1.4-0.3
		c0.4-0.1,0.6-0.3,0.7-0.5c0.4-0.5,0.7-1.4,0.8-1.7v-0.1h0v0h-0.3c-0.4,1.2-0.9,1.8-1.4,1.9c-0.1,0.1-0.3,0.1-0.5,0.1
		c-1,0-1.1-0.8-1.1-1.7v-7.7 M54,23.6c-0.1,0.1-0.3,0.1-0.4,0.1c-1.1,0-1.2-0.8-1.2-1.7v-7.7h3v7c0,0,0,0.2,0.1,0.4
		C55.1,22.9,54.6,23.4,54,23.6L54,23.6z M16.4,7.9h2.1V7.6H11v0.3h2.1v7.5H6.5V7.9h2.1V7.6H1.1v0.3h2.1v15.6H1.1v0.3h7.5v-0.3H6.5
		v-7.8h6.6v7.8H11v0.3h7.5v-0.3h-2.1L16.4,7.9L16.4,7.9z"/>
</g>
</svg>
