<?xml version="1.0" encoding="utf-8"?>
<!-- Generator: Adobe Illustrator 25.2.0, SVG Export Plug-In . SVG Version: 6.00 Build 0)  -->
<svg version="1.1" id="Layer_1" xmlns="http://www.w3.org/2000/svg" xmlns:xlink="http://www.w3.org/1999/xlink" x="0px" y="0px"
	 viewBox="0 0 68.3 32" style="enable-background:new 0 0 68.3 32;" xml:space="preserve">
<style type="text/css">
	.st0{opacity:0.3;}
</style>
<path class="st0" d="M18.3,14.7c0-0.1,0-0.2,0-0.4c0-0.2,0-0.4-0.1-0.6c-0.1-1-0.4-2.1-0.7-3c-0.4-1.2-1.2-2-2.4-2.5
	c-1.3-0.5-2.6-0.8-4-0.9c-0.5,0-1-0.1-1.6-0.1C8,7.3,6.4,7.5,4.9,8c-1.5,0.5-2.5,1.4-3,3c-0.2,0.6-0.3,1.2-0.5,1.8
	c-0.2,1.1-0.3,2.1-0.3,3.2c0,1.1,0.1,2.2,0.3,3.2c0.1,0.6,0.3,1.2,0.5,1.8c0.5,1.5,1.5,2.5,3,3c1.5,0.5,3.1,0.7,4.7,0.7
	c0.5,0,1,0,1.6-0.1c1.4-0.1,2.7-0.3,4-0.9c1.2-0.5,1.9-1.3,2.4-2.5c0.4-1,0.6-2,0.7-3c0-0.2,0-0.4,0.1-0.6c0-0.1,0-0.2,0-0.4
	c0-0.2,0-0.4,0.1-0.7v-1.2C18.4,15.1,18.3,14.9,18.3,14.7z M14.7,16.3c-0.2,0.4-0.4,0.7-0.7,1c-0.3,0.3-0.6,0.5-1,0.7
	c-0.4,0.2-0.8,0.2-1.2,0.2c-0.2,0-0.5,0-0.7-0.1c-0.2-0.1-0.4-0.2-0.6-0.3v0l0,1.4c0,0.1,0,0.2-0.1,0.3c0,0.1-0.1,0.2-0.2,0.3
	c0,0,0,0,0,0c0,0,0,0,0,0c-0.1,0.1-0.2,0.1-0.3,0.2c-0.1,0-0.2,0.1-0.3,0.1c-0.1,0-0.2,0-0.3-0.1c-0.1,0-0.2-0.1-0.3-0.2
	c-0.1-0.1-0.1-0.2-0.2-0.3c0,0,0,0,0,0c0,0,0,0,0,0c0-0.1-0.1-0.2-0.1-0.3v-4.2c0-0.2,0-0.4,0-0.6c0-0.2-0.1-0.4-0.3-0.6
	c-0.2-0.3-0.6-0.5-1-0.4c-0.2,0-0.4,0-0.6,0.1c-0.2,0.1-0.3,0.2-0.4,0.3c-0.2,0.3-0.3,0.7-0.3,1.3v4.1c0,0.2-0.1,0.4-0.2,0.6
	C5.9,19.9,5.8,20,5.7,20c-0.1,0-0.2,0.1-0.3,0.1c-0.1,0-0.2,0-0.3-0.1c0,0,0,0,0,0c0,0,0,0,0,0c-0.1,0-0.2-0.1-0.3-0.2
	c-0.1-0.1-0.1-0.2-0.2-0.3c0-0.1-0.1-0.2-0.1-0.3v-4.2c0-0.4,0.1-0.9,0.2-1.3c0.1-0.4,0.3-0.7,0.6-1c0.3-0.3,0.6-0.5,0.9-0.7
	c0.4-0.2,0.8-0.3,1.3-0.2c0.2,0,0.4,0,0.7,0.1c0.2,0,0.4,0.1,0.6,0.2c0.4,0.1,0.7,0.4,1,0.7c0.2-0.2,0.5-0.4,0.8-0.5
	c0.4-0.2,0.8-0.2,1.2-0.2c0.4,0,0.8,0.1,1.2,0.2c0.2,0.1,0.3,0.2,0.5,0.3c0,0,0,0,0.1,0c0.1,0.1,0.3,0.2,0.4,0.3c0,0,0,0,0.1,0.1
	c0.1,0.1,0.3,0.3,0.4,0.4c0,0,0,0,0,0c0.1,0.2,0.2,0.3,0.3,0.5c0,0,0,0,0,0c0,0,0,0,0,0.1c0.1,0.2,0.1,0.3,0.1,0.5c0,0,0,0.1,0,0.1
	c0,0.2,0.1,0.4,0.1,0.6C14.9,15.5,14.8,15.9,14.7,16.3z"/>
<path class="st0" d="M21,15.4l0,4.5h-1.3v-7.2h0.4l4.3,4.6l0-4.5h1.3V20h-0.4L21,15.4z M34.6,14.9h1.3v1h-1.3v4h-1.2v-4h-1.1l2-2.5
	h0.3L34.6,14.9z M38.7,18.9c0.6,0,1.1-0.2,1.5-0.7l0.6,1c-0.4,0.4-1.1,0.8-2.1,0.8c-1.6,0-2.6-1.1-2.6-2.6s1-2.6,2.6-2.6
	c1.1,0,1.8,0.4,2.1,0.8l-0.6,1c-0.4-0.4-0.9-0.7-1.5-0.7c-0.8,0-1.4,0.6-1.4,1.5C37.4,18.3,37.9,18.9,38.7,18.9z M42.9,12.4v3
	c0.2-0.3,0.7-0.6,1.5-0.6c1.3,0,2,0.9,2,2.2v2.9h-1.2v-2.8c0-0.8-0.4-1.2-1.1-1.2c-0.7,0-1.1,0.4-1.1,1.2v2.8h-1.2v-7.5H42.9z"/>
<path class="st0" d="M52.5,12.9c1.4,0,2.5,0.9,2.5,2.4s-1,2.4-2.5,2.4h-1.4v2.3h-1.3v-7H52.5z M53.7,15.2c0-0.7-0.5-1.2-1.3-1.2
	h-1.2v2.4h1.2C53.2,16.4,53.7,15.9,53.7,15.2z M57.8,20c-1.3,0-2.4-1-2.4-2.6s1.1-2.6,2.4-2.6c0.6,0,1.1,0.2,1.5,0.6v-0.5h1.2v5
	h-1.2v-0.5C59,19.8,58.4,20,57.8,20z M56.7,17.4c0,1,0.6,1.5,1.4,1.5c0.7,0,1.3-0.6,1.3-1.5s-0.6-1.5-1.3-1.5
	C57.3,15.9,56.7,16.4,56.7,17.4L56.7,17.4z M66.4,14.9L63.9,22h-1.2l0.7-2.1l-2.2-5h1.3l1.4,3.5l1.2-3.5H66.4z"/>
<path class="st0" d="M28.9,19.9c-1.3,0-2.4-1-2.4-2.6s1.1-2.6,2.4-2.6c0.6,0,1.1,0.2,1.5,0.6v-0.5h1.2v5h-1.2v-0.5
	C30,19.7,29.5,19.9,28.9,19.9z M27.7,17.3c0,1,0.6,1.5,1.4,1.5c0.7,0,1.3-0.6,1.3-1.5c0-1-0.6-1.5-1.3-1.5
	C28.4,15.8,27.7,16.3,27.7,17.3L27.7,17.3z M32.3,14.8"/>
</svg>
