<?xml version="1.0" encoding="utf-8"?>
<!-- Generator: Adobe Illustrator 23.0.1, SVG Export Plug-In . SVG Version: 6.00 Build 0)  -->
<svg version="1.1" id="Layer_1" xmlns="http://www.w3.org/2000/svg" xmlns:xlink="http://www.w3.org/1999/xlink" x="0px" y="0px"
	 viewBox="0 0 105.5 32" style="enable-background:new 0 0 105.5 32;" xml:space="preserve">
<style type="text/css">
	.st0{opacity:0.3;}
</style>
<g class="st0">
	<path d="M46.7,7.5v14.1h1.8V14c0.9-0.3,1.7-0.5,2.6-0.5c1.4,0,1.9,0.5,1.9,1.9v6.2h1.8v-6.2c0-2.3-1.3-3.6-3.7-3.6
		c-0.9,0-1.7,0.2-2.6,0.6V7.5H46.7z"/>
	<path d="M59.6,15.4c-2,0-3.4,1.1-3.4,2.8v0.3c0,2,1.8,3.2,3.8,3.2c0.9,0,1.8-0.2,2.6-0.7v0.6h1.8v-6.7c0-2-1.3-3.1-3.7-3.1
		c-1.3,0-2.7,0.2-3.5,0.6v1.7c1.1-0.4,2.4-0.7,3.6-0.7c1.5,0,1.9,0.5,1.9,1.4v0.5C62.6,15.4,59.6,15.4,59.6,15.4z M62.6,19.5
		c-0.9,0.4-1.8,0.6-2.7,0.6c-1.4,0-2-0.6-2-1.5v-0.3c0-0.6,0.5-1.1,1.7-1.1h3V19.5z"/>
	<path d="M15.2,13.5v-1.1c0-1.5-0.5-2-2.8-2H8v5.6h4C14.3,15.9,15.2,15.3,15.2,13.5z"/>
	<path d="M29.1,28.7c1.5,0,2.7-1.2,2.6-2.6V6c0-1.5-1.2-2.7-2.7-2.7H2.7C1.2,3.3,0,4.5,0,6v20c0,1.5,1.2,2.7,2.7,2.7L29.1,28.7
		L29.1,28.7z M24.5,8.2h3.7l-6.3,7.7l6.8,7.8h-3.7l-6.6-7.8L24.5,8.2z M5.6,8.2h6.8c3.4,0,5.1,1.4,5.1,4.1v1.1
		c0,3.2-2.2,4.5-5.5,4.5H8v5.8H5.6V8.2z"/>
	<path d="M69.5,13.4c1.2,0,2.1,0.1,3.5,0.7v-1.7c-0.9-0.4-2.1-0.6-3.5-0.6c-1.9,0-3.4,0.9-3.4,2.7v0.3c0,3.7,5.8,2.2,5.8,3.9V19
		c0,0.4-0.1,1-2,1c-1.2,0-2.5-0.2-3.7-0.6v1.7c1.1,0.3,2.2,0.5,3.7,0.5c2.6,0,3.8-1.2,3.8-2.7v-0.4c0-3.5-5.8-1.8-5.8-3.8v-0.4
		C67.9,13.8,68.2,13.4,69.5,13.4z"/>
	<path d="M36.5,11.9v14.5h1.8v-5.1c0.7,0.3,1.4,0.5,2.3,0.5c2.4,0,4-1.3,4-3.9v-2.5c0-2.3-1.7-3.6-3.7-3.6c-1,0-1.8,0.2-2.6,0.6
		v-0.5C38.3,11.9,36.5,11.9,36.5,11.9z M40.9,13.5c1.1,0,1.9,0.5,1.9,1.9v2.5c0,1.7-0.8,2.2-2.3,2.2c-0.7,0-1.6-0.3-2.2-0.5V14
		C39.2,13.7,39.9,13.5,40.9,13.5z"/>
	<rect x="94.9" y="11.9" width="1.8" height="9.7"/>
	<rect x="94.9" y="9.2" width="1.8" height="1.6"/>
	<path d="M100.2,9v2.9h-1.4v1.6h1.4v5.4c0,1.8,1.1,2.8,3,2.8c0.9,0,1.6-0.1,2.3-0.2v-1.7c-0.8,0.2-1.4,0.3-2.3,0.3s-1.2-0.3-1.2-1.2
		v-5.3h2.5v-1.6H102V9H100.2z"/>
	<path d="M83.1,17.4v-2.8c0-1.6-1.3-2.8-3-2.8h-1.4c-2.4,0-3.7,1.2-3.7,3.4v2.9c0,2.3,1.7,3.5,4,3.5c1.3,0,2.4-0.2,3.3-0.6v-1.7
		C81,19.8,80.3,20,79,20c-1.5,0-2.2-0.6-2.2-1.8v-0.8L83.1,17.4z M76.8,15.3c0-1.3,0.4-1.7,1.9-1.7h1.4c0.8,0,1.2,0.4,1.2,1.1l0,1.2
		h-4.5V15.3z"/>
	<polygon points="85.1,7.5 85.1,21.6 86.9,21.6 86.9,17.1 87.5,16.6 91,21.6 91,21.6 93.3,21.6 88.9,15.5 93.3,11.9 90.5,11.9 
		86.9,15 86.9,7.5 	"/>
</g>
</svg>
