<?xml version="1.0" encoding="utf-8"?>
<!-- Generator: Adobe Illustrator 23.0.1, SVG Export Plug-In . SVG Version: 6.00 Build 0)  -->
<svg version="1.1" id="Layer_1" xmlns="http://www.w3.org/2000/svg" xmlns:xlink="http://www.w3.org/1999/xlink" x="0px" y="0px"
	 viewBox="0 0 68.9 32" style="enable-background:new 0 0 68.9 32;" xml:space="preserve">
<style type="text/css">
	.st0{opacity:0.3;}
</style>
<path class="st0" d="M14.1,4.3c-2.4,0.5-3.1,3-3.1,3L6.9,27.7c0,0,43,0.5,45.3,0.4c2.3-0.1,2.7-0.4,2.7-0.4c2.5-0.8,2.8-2.7,2.8-2.7
	L62,4L19.4,4C19.4,4,16.5,3.8,14.1,4.3z M41,19.1h-1.3v-6H41V19.1z M50.4,12h1.4v0.9h-1.4V12z M50.4,15h0.9v0.9h-0.9V15z M50.4,18.2
	h1.4v0.9h-1.4V18.2z M48.9,12h1.3v7.1h-1.3V12z M48.4,12L47,19.1h-1l1.2-7.1C47.2,12,48.4,12,48.4,12z M45.6,12l0.7,4.1l-0.5,3
	L44.4,12C44.4,12,45.6,12,45.6,12z M42.6,12h1.3v7.1h-1.3V12z M38.6,12h3.5v1h-3.5V12z M36.4,11.8c0.3,0,0.6,0.1,0.9,0.2
	c0.2,0.1,0.4,0.3,0.6,0.5c0.1,0.2,0.2,0.5,0.3,0.7s0.1,0.6,0.1,0.9v0.5H37v-0.6c0-0.1,0-0.3,0-0.4c0-0.1,0-0.3-0.1-0.4
	s-0.1-0.2-0.2-0.3c-0.1-0.1-0.2-0.1-0.3-0.1V11.8z M36.7,18.1c0.1-0.1,0.1-0.2,0.2-0.3s0.1-0.3,0.1-0.4s0-0.3,0-0.4v-0.7h1.2v0.5
	c0,0.3,0,0.6-0.1,0.9c-0.1,0.3-0.2,0.5-0.3,0.8s-0.3,0.4-0.6,0.5c-0.2,0.1-0.5,0.2-0.9,0.2v-1h0C36.6,18.2,36.7,18.2,36.7,18.1z
	 M34.3,14.3c0-0.3,0-0.6,0.1-0.9c0.1-0.3,0.2-0.5,0.3-0.8c0.1-0.2,0.3-0.4,0.6-0.5c0.2-0.1,0.5-0.2,0.9-0.2v1
	c-0.1,0-0.2,0.1-0.3,0.1s-0.1,0.2-0.2,0.3c0,0.1-0.1,0.2-0.1,0.4s0,0.3,0,0.4v3.1c0,0.1,0,0.3,0,0.4s0,0.2,0.1,0.4
	c0,0.1,0.1,0.2,0.2,0.3c0.1,0.1,0.2,0.1,0.3,0.1v1c-0.4,0-0.7-0.1-0.9-0.2c-0.2-0.1-0.4-0.3-0.6-0.5s-0.3-0.5-0.3-0.8
	c-0.1-0.3-0.1-0.6-0.1-0.9V14.3z M33.8,19.1h-1.3l-0.3-1.6h-0.9l0.1-0.7h0.7l-0.3-2.1l0.5-2.7L33.8,19.1z M31.2,12h1l-0.5,2.6
	l-0.8,4.5h-1.2L31.2,12z M27.2,18.3c0.1,0,0.3-0.1,0.3-0.1c0.1-0.1,0.2-0.2,0.2-0.3s0.1-0.2,0.1-0.4c0-0.1,0-0.3,0-0.4V14
	c0-0.1,0-0.3,0-0.4c0-0.1,0-0.3-0.1-0.4c0-0.1-0.1-0.2-0.2-0.3s-0.2-0.1-0.3-0.1l0-1c0.4,0,0.7,0.1,0.9,0.2c0.2,0.1,0.4,0.3,0.6,0.5
	c0.1,0.2,0.3,0.5,0.3,0.8c0.1,0.3,0.1,0.6,0.1,0.9v2.5c0,0.3,0,0.6-0.1,0.9c-0.1,0.3-0.2,0.5-0.3,0.8c-0.1,0.2-0.3,0.4-0.6,0.5
	c-0.2,0.1-0.6,0.2-0.9,0.2V18.3z M25.1,14.3c0-0.3,0-0.6,0.1-0.9c0.1-0.3,0.2-0.5,0.3-0.8c0.1-0.2,0.3-0.4,0.6-0.5
	c0.2-0.1,0.5-0.2,0.9-0.2v1c-0.1,0-0.2,0.1-0.3,0.1c-0.1,0.1-0.2,0.2-0.2,0.3c0,0.1-0.1,0.2-0.1,0.4s0,0.3,0,0.4v3.1
	c0,0.1,0,0.3,0,0.4s0,0.2,0.1,0.4c0,0.1,0.1,0.2,0.2,0.3c0.1,0.1,0.2,0.1,0.3,0.1v1c-0.4,0-0.7-0.1-0.9-0.2
	c-0.2-0.1-0.4-0.3-0.6-0.5c-0.1-0.2-0.3-0.5-0.3-0.8c-0.1-0.3-0.1-0.6-0.1-0.9L25.1,14.3L25.1,14.3z M23.2,13.6c0-0.1,0-0.2-0.1-0.3
	c0-0.1-0.1-0.2-0.2-0.3c-0.1-0.1-0.2-0.1-0.3-0.1h-0.5V12h0.2c0.3,0,0.6,0,0.9,0.1s0.5,0.2,0.7,0.3c0.2,0.1,0.3,0.3,0.4,0.6
	s0.1,0.5,0.1,0.8c0,0.2,0,0.3,0,0.5c0,0.2,0,0.3-0.1,0.5c-0.1,0.2-0.1,0.3-0.3,0.4c-0.1,0.1-0.3,0.3-0.5,0.3l1,3.5h-1.3l-0.8-3.3
	h-0.3l0-0.8h0.4c0.1,0,0.2,0,0.3-0.1c0.1-0.1,0.1-0.2,0.2-0.3c0-0.1,0.1-0.2,0.1-0.3c0-0.1,0-0.2,0-0.3
	C23.2,13.8,23.2,13.7,23.2,13.6z M20.7,12H22v7.1h-1.3V12z M19.7,12.5c0.1,0.2,0.2,0.4,0.3,0.6c0.1,0.2,0.1,0.5,0.1,0.8
	c0,0.4,0,0.7-0.1,1c-0.1,0.3-0.2,0.5-0.4,0.6c-0.2,0.2-0.4,0.3-0.6,0.4C18.8,16,18.5,16,18.1,16h0v-0.9h0.1c0.2,0,0.3,0,0.4-0.1
	c0.1,0,0.2-0.1,0.2-0.2c0-0.1,0.1-0.2,0.1-0.4c0-0.1,0-0.3,0-0.5c0-0.2,0-0.3,0-0.4c0-0.1-0.1-0.2-0.1-0.3S18.6,13,18.5,13
	c-0.1,0-0.3-0.1-0.5-0.1v6.2h-1.3V12h1.3v0.9h0.2V12h0h0.3c0.3,0,0.6,0,0.8,0.1C19.4,12.2,19.6,12.3,19.7,12.5z"/>
</svg>
