<?xml version="1.0" encoding="utf-8"?>
<!-- Generator: Adobe Illustrator 25.2.0, SVG Export Plug-In . SVG Version: 6.00 Build 0)  -->
<svg version="1.1" id="Layer_1" xmlns="http://www.w3.org/2000/svg" xmlns:xlink="http://www.w3.org/1999/xlink" x="0px" y="0px"
	 viewBox="0 0 68.3 32" style="enable-background:new 0 0 68.3 32;" xml:space="preserve">
<style type="text/css">
	.st0{opacity:0.3;}
</style>
<g class="st0">
	<path d="M1.4,8.8h12.3v3.2H9.6l0,12.2H5.4V12.1h-4V8.8z"/>
	<path d="M14.3,8.9h12.3l-1.2,3.3h-6.8V15h6.8v3.2h-6.8V21l8.1,0l-1.2,3.4H14.3V8.9z"/>
	<path d="M35.4,22.4l0,6.8l-4.2,1.5l0-6.3V12.1h-4V8.8l10.6,0.1v3.2h-2.4L35.4,22.4L35.4,22.4z"/>
	<path d="M42.7,24.3h-4.2v-7.5l0,0l0,0v-8l10.1,0c0.6,0,1.1,0.1,1.5,0.4c0.4,0.3,0.6,0.7,0.7,1.4c0,1.1,0,1.9,0,2.5
		c0,0.6,0,1.1,0,1.4s0,0.6,0,0.8s0,0.3,0,0.4c-0.1,0.5-0.3,1-0.6,1.2c-0.3,0.3-0.6,0.5-1.1,0.5v0.1h-1.6l3.2,6.8h-4.3l-3.1-6.7V15
		h3.1v-2.9h-3.8L42.7,24.3z"/>
	<path d="M51.4,24.3l5.6-15.6h4.5l5.3,15.6h-8.7V21h3.4l-2.3-7l-3.7,10.3H51.4z"/>
</g>
</svg>
