<?xml version="1.0" encoding="utf-8"?>
<!-- Generator: Adobe Illustrator 23.0.1, SVG Export Plug-In . SVG Version: 6.00 Build 0)  -->
<svg version="1.1" id="Layer_1" xmlns="http://www.w3.org/2000/svg" xmlns:xlink="http://www.w3.org/1999/xlink" x="0px" y="0px"
	 viewBox="0 0 68.9 32" style="enable-background:new 0 0 68.9 32;" xml:space="preserve">
<style type="text/css">
	.st0{opacity:0.3;}
</style>
<g class="st0">
	<polygon points="31.4,6 27.3,6.9 27.3,10.2 31.4,9.3 	"/>
	<path d="M23.2,25.9v-9.9c0,0,1.5-1.7,3-0.7v-3.9c0,0-0.8-0.4-2.3,0.1c0,0-0.9,0.5-1.1,1.1l-0.2-1.2l-3.5,0v0.1l0,0v14.4H23.2z"/>
	<path d="M10.7,8.9c0,0-0.2,11.2,0,13.3s1.8,3.3,1.8,3.3c3.5,1.2,5.3,0,5.3,0v-3.2c-3.1,0.9-3.1-1.3-3.1-1.3v-6h3.1v-3.5h-3V8
		L10.7,8.9z"/>
	<rect x="27.3" y="11.5" width="4.1" height="14.4"/>
	<path d="M36.5,6l-3.7,0.9v19.1h0.1H37V25c1.6,1.1,3.4,1,3.4,1c2.8-0.6,3.5-2,3.5-2s1-0.9,1.5-4.2s-1.1-5.9-1.1-5.9
		s-1.1-2.2-3.7-2.7c-2.6-0.5-3.9,1.2-3.9,1.2l-0.2,0.1V8.1V6z M37,15.6c0,0,0.5-0.9,2.1-0.8c1.6,0.1,2.3,2.7,2.3,2.7
		s0.4,3.6-1.4,4.6c-1.8,0.9-3-0.4-3-0.4L37,15.6L37,15.6z"/>
	<path d="M54.5,11.5c0,0-3.9-1.3-6.5,1.6c-2.6,2.9-1.7,7.3-1.7,7.3s0.4,3.7,3.8,5.1c3.5,1.4,7.3-0.6,7.3-0.6l0-3.2
		c-2.3,0.9-3.3,0.9-5.2,0.7c-1.9-0.2-1.9-2.3-1.9-2.3h7.9c0.3-2.4-0.2-3.7-0.2-3.7C57.5,12.8,54.5,11.5,54.5,11.5z M50.2,17.1
		L50.2,17.1c0-0.1-0.1-2.4,2-2.6c2.1-0.2,2.2,2.6,2.2,2.6H50.2z"/>
</g>
</svg>
