<?xml version="1.0" encoding="utf-8"?>
<!-- Generator: Adobe Illustrator 25.2.0, SVG Export Plug-In . SVG Version: 6.00 Build 0)  -->
<svg version="1.1" id="Layer_1" xmlns="http://www.w3.org/2000/svg" xmlns:xlink="http://www.w3.org/1999/xlink" x="0px" y="0px"
	 viewBox="0 0 90.1 32" style="enable-background:new 0 0 90.1 32;" xml:space="preserve">
<style type="text/css">
	.st0{opacity:0.3;}
</style>
<path class="st0" d="M15.5,7.8c0.6,1,0.8,2,0.8,3.2c0,4-3.4,9.4-6.2,13.1H3.7L1.1,8.6l5.8-0.4l1.4,11c1.2-2,2.8-5.4,2.8-7.6
	c0-1.2-0.2-2-0.6-2.8L15.5,7.8z M47.3,11.4c0,0.6,0,1.4-0.2,2L45.4,24H40l1.6-9.8c0-0.2,0.2-0.8,0.2-1c0-0.8-0.4-0.8-1-0.8
	c-0.8,0-1.4,0.4-1.8,0.6l-2,11h-5.4L34,8h4.8v1.2c1.2-0.8,2.6-1.6,4.6-1.6C46.2,8,47.3,9.4,47.3,11.4z M63.5,9.6
	c1.6-1.2,3-1.8,5-1.8c2.8,0,3.8,1.4,3.8,3.6c0,0.6,0,1.4-0.2,2L70.6,24h-5.4l1.6-10v-0.8c0-0.8-0.4-1-1-1s-1.4,0.2-1.8,0.6L62.1,24
	h-5.4l1.6-10v-0.8c0-0.8-0.4-1-1-1c-0.8,0-1.4,0.4-1.8,0.6L53.6,24h-5.4l2.4-16h4.6l0.2,1.4c1-0.8,2.6-1.6,4.6-1.6
	C61.7,8,62.9,8.6,63.5,9.6L63.5,9.6z M83.2,14.4c0-1.4-0.4-2.2-1.4-2.2c-2.2,0-2.6,3.8-2.6,5.8c0,1.4,0.4,2.4,1.4,2.4
	C82.8,20.2,83.2,16.2,83.2,14.4L83.2,14.4z M73.7,17.6c0-5,2.6-9.8,8.8-9.8c4.6,0,6.2,2.8,6.2,6.4c0,5-2.6,10-8.8,10
	C75.3,24.4,73.7,21.4,73.7,17.6L73.7,17.6z"/>
<path class="st0" d="M25.8,14.4c0-1.4-0.4-2.2-1.4-2.2c-2.2,0-2.6,3.8-2.6,5.8c0,1.4,0.4,2.4,1.4,2.4C25.4,20.2,25.8,16.2,25.8,14.4
	L25.8,14.4z M16.3,17.6c0-5,2.6-9.8,8.8-9.8c4.6,0,6.2,2.8,6.2,6.4c0,5-2.6,10-8.8,10C18,24.4,16.3,21.4,16.3,17.6L16.3,17.6z"/>
</svg>
