<?xml version="1.0" encoding="utf-8"?>
<!-- Generator: Adobe Illustrator 25.2.0, SVG Export Plug-In . SVG Version: 6.00 Build 0)  -->
<svg version="1.1" id="Layer_1" xmlns="http://www.w3.org/2000/svg" xmlns:xlink="http://www.w3.org/1999/xlink" x="0px" y="0px"
	 viewBox="0 0 426.5 372.6" style="enable-background:new 0 0 426.5 372.6;" xml:space="preserve">
<style type="text/css">
	.st0{opacity:0.41;fill:#BBCBED;}
	.st1{fill:#292969;}
	.st2{fill:#ACA0ED;}
	.st3{fill:#5F48DC;}
	.st4{opacity:0.3;fill:#3D6ACC;}
	.st5{fill:#7703FC;}
	.st6{fill:#171733;}
	.st7{opacity:0.7;}
	.st8{fill:#CBC7FF;}
	.st9{fill:url(#SVGID_1_);}
	.st10{fill:url(#SVGID_2_);}
	.st11{fill:url(#SVGID_3_);}
	.st12{fill:#9C5F2D;}
	.st13{fill:#D28D54;}
	.st14{fill:#60423A;}
	.st15{fill:#7ABA8E;}
	.st16{opacity:0.18;fill:#FFFFFF;}
	.st17{fill:#FFD6A3;}
	.st18{fill:#FFCB8A;}
	.st19{fill:#590CC6;}
	.st20{fill:#F5CFBF;}
	.st21{fill:#E32B6B;}
	.st22{fill:#786EDB;}
	.st23{fill:#9788E8;}
	.st24{fill:#FFD39C;}
	.st25{fill:#E3F5FF;}
	.st26{opacity:0.72;fill:url(#SVGID_4_);}
	.st27{opacity:0.72;fill:url(#SVGID_5_);}
	.st28{fill:url(#SVGID_6_);}
	.st29{fill:#F2F2F2;}
</style>
<path class="st0" d="M404,363.6H14.6c-1.7,0-3.2-1.4-3.2-3.2v0c0-1.7,1.4-3.2,3.2-3.2H404c1.7,0,3.2,1.4,3.2,3.2v0
	C407.1,362.2,405.7,363.6,404,363.6z"/>
<path class="st1" d="M222.7,68.9v-26c0-6.3-5.1-11.3-11.3-11.3c-6.3,0-11.3,5.1-11.3,11.3v26c-12.5,0-22.6,10.1-22.6,22.6h67.9
	C245.3,79,235.2,68.9,222.7,68.9z"/>
<rect x="209.9" class="st1" width="2.9" height="33.9"/>
<g>
	<path class="st2" d="M293,220.8c0,38-34.6,56.3-77.2,56.3s-77.2-18.3-77.2-56.3s21.5-81.1,77.2-81.1
		C275.1,139.7,293,182.9,293,220.8z"/>
	<path class="st3" d="M293.2,225.2c0,38-34.6,56.3-77.2,56.3c-42.7,0-77.2-18.3-77.2-56.3s21.5-81.1,77.2-81.1
		C275.3,144,293.2,187.2,293.2,225.2z"/>
	<path class="st4" d="M138.7,225.2c0,38,34.6,56.3,77.2,56.3c42.7,0,77.2-18.3,77.2-56.3c0-2.8-0.1-5.7-0.3-8.5H139.1
		C138.8,219.5,138.7,222.4,138.7,225.2z"/>
	<path class="st4" d="M154.4,223.1c0,29.3,26.7,43.5,59.7,43.5c33,0,59.7-14.2,59.7-43.5c0-2.2-0.1-4.4-0.2-6.6H154.7
		C154.5,218.8,154.4,221,154.4,223.1z"/>
	<g>
		<rect x="208.5" y="275.5" class="st1" width="9.9" height="66.6"/>
		<rect x="208.5" y="275.5" class="st4" width="9.9" height="8.6"/>
		<g>
			<path class="st1" d="M248.8,352.1h-3.7v-2.3c0-3-2.4-5.4-5.4-5.4h-52.4c-3,0-5.4,2.4-5.4,5.4v2.3h-3.7v-2.3c0-5,4.1-9.1,9.1-9.1
				h52.4c5,0,9.1,4.1,9.1,9.1V352.1z"/>
			<g>
				<circle class="st5" cx="190.6" cy="351.8" r="5.9"/>
				
					<ellipse transform="matrix(0.1602 -0.9871 0.9871 0.1602 -187.1722 483.5672)" class="st6" cx="190.6" cy="351.8" rx="3.1" ry="3.1"/>
			</g>
			<g>
				<circle class="st5" cx="236.5" cy="351.8" r="5.9"/>
				
					<ellipse transform="matrix(0.1602 -0.9871 0.9871 0.1602 -148.5988 528.9048)" class="st6" cx="236.5" cy="351.8" rx="3.1" ry="3.1"/>
			</g>
			<g class="st7">
				<g>
					<path class="st8" d="M231.2,349.3h10.7c-0.9-2-3-3.4-5.4-3.4C234.1,345.9,232.1,347.3,231.2,349.3z"/>
					<path class="st8" d="M185.2,349.3H196c-0.9-2-3-3.4-5.4-3.4S186.2,347.3,185.2,349.3z"/>
				</g>
				<g>
					<linearGradient id="SVGID_1_" gradientUnits="userSpaceOnUse" x1="236.5273" y1="345.8806" x2="236.5273" y2="349.33">
						<stop  offset="0" style="stop-color:#56BFF0"/>
						<stop  offset="0.5624" style="stop-color:#6E98FF"/>
						<stop  offset="1" style="stop-color:#8566FF"/>
					</linearGradient>
					<path class="st9" d="M231.2,349.3h10.7c-0.9-2-3-3.4-5.4-3.4C234.1,345.9,232.1,347.3,231.2,349.3z"/>
					<linearGradient id="SVGID_2_" gradientUnits="userSpaceOnUse" x1="190.5966" y1="345.8806" x2="190.5966" y2="349.33">
						<stop  offset="0" style="stop-color:#56BFF0"/>
						<stop  offset="0.5624" style="stop-color:#6E98FF"/>
						<stop  offset="1" style="stop-color:#8566FF"/>
					</linearGradient>
					<path class="st10" d="M185.2,349.3H196c-0.9-2-3-3.4-5.4-3.4S186.2,347.3,185.2,349.3z"/>
				</g>
			</g>
		</g>
		<path class="st1" d="M213.4,316.9L213.4,316.9c-4.2,0-7.6-3.4-7.6-7.6V308c0-4.2,3.4-7.6,7.6-7.6h0c4.2,0,7.6,3.4,7.6,7.6v1.2
			C221,313.5,217.6,316.9,213.4,316.9z"/>
	</g>
	<path class="st1" d="M241,261h-58.6c-7.5,0-13.9-2.4-13.4-15.7c0.5-13.3,13.5-27.8,13.5-27.8h59.8c0,0,11.5,16.9,12,27.6
		C254.7,255.9,248.5,261,241,261z"/>
	<g>
		
			<linearGradient id="SVGID_3_" gradientUnits="userSpaceOnUse" x1="2866.5322" y1="202.2802" x2="2892.4521" y2="202.2802" gradientTransform="matrix(-1 0 0 1 3006.7769 0)">
			<stop  offset="3.766030e-03" style="stop-color:#D6925A"/>
			<stop  offset="0.3296" style="stop-color:#C37B40"/>
			<stop  offset="1" style="stop-color:#804B1F"/>
		</linearGradient>
		<path class="st11" d="M131.7,213.4h-8.8c-3.2,0-5.9-2.4-6.3-5.5l-2.2-16.6h25.9l-2.2,16.6C137.6,211,134.9,213.4,131.7,213.4z"/>
		<g>
			<path class="st12" d="M124,192.2c-0.3,0-0.3-0.4,0-0.4C124.3,191.8,124.3,192.2,124,192.2z"/>
			<path class="st12" d="M121.1,192.3c0.3-0.3,1.1,0.4,0.1,0.4C121,192.5,121,192.4,121.1,192.3z"/>
			<path class="st12" d="M115.5,192.4c0,0.2,0.1,0.2,0,0.2c0.1,0,0,0,0.1,0.1c0.1,0.2-0.3,0.4-0.5-0.1
				C114.6,191.9,115.5,191.5,115.5,192.4z"/>
			<path class="st12" d="M138.1,191.5c0.1,0.2,0,0.8-0.2,0.5C137.4,191.5,137.6,190.9,138.1,191.5z"/>
			<path class="st12" d="M138.9,191.3c0-0.1,0.3-0.1,0.4,0.1C139.4,191.7,138.8,192.1,138.9,191.3z"/>
			<path class="st12" d="M132.2,191.2h0.5C132.8,191.5,132.3,191.5,132.2,191.2z"/>
			<path class="st12" d="M126.7,191.2c0.3,0,0.3,0,0.3,0.1C127,191.5,126.7,191.6,126.7,191.2z"/>
			<path class="st12" d="M129.3,209.1c0.2-0.2,0.6,0.2,0.4,0.6C129.6,210.8,128.5,209.7,129.3,209.1z"/>
			<path class="st12" d="M129.3,207.1c-0.1-0.2,0-0.5,0.2-0.6c0.2-0.2,0.5,0.2,0.2,0.4c-0.1,0-0.1,0.1,0,0.1
				C129.9,207.2,129.5,207.4,129.3,207.1z"/>
			<path class="st12" d="M128.7,209.4c0,0.2-0.4,0.2-0.4,0C127.7,208.9,128.8,208.2,128.7,209.4z"/>
			<path class="st12" d="M126.9,204.9c0.1,0.1,0.3,0.2,0.3,0.5c0,0.3-0.5,0.4-0.8-0.3C126.4,204.9,126.8,204.6,126.9,204.9z"/>
			<path class="st12" d="M128.6,203.7c0.1,0.6-0.8,0.2-0.4-0.1C128.4,203.4,128.6,203.6,128.6,203.7z"/>
			<path class="st12" d="M127.4,202.4c0.1-0.1,0.1,0,0.2-0.1c0.3-0.2,0.6,0.2,0.5,0.6C127.8,204.2,126.7,203.2,127.4,202.4z"/>
			<path class="st12" d="M125.2,203c0-0.3,0.5-0.5,0.5,0.1C125.8,203.5,125.2,203.6,125.2,203z"/>
			<path class="st12" d="M123.9,206.6c-0.2,0.5-0.5,0.2-0.5-0.1C123.5,206,124.1,206.1,123.9,206.6z"/>
			<path class="st12" d="M125.8,210.8c-0.1,0.3-0.3,0.4-0.3,0.6c0,0.3-0.4,0.3-0.4,0c0-0.4,0.3-0.5,0.3-0.7
				C125.5,210.5,125.9,210.5,125.8,210.8z"/>
			<path class="st12" d="M121.2,202.8c0.3,0,0.3,0.4,0,0.4C120.9,203.2,120.9,202.8,121.2,202.8z"/>
			<path class="st12" d="M131.3,208c0.2-0.2,0.5,0,0.4,0.3C131.5,209,130.8,208.2,131.3,208z"/>
			<path class="st12" d="M133.2,209.6c-0.2,0.8-1,0.3-0.7-0.7C132.7,208.3,133.5,208.1,133.2,209.6z"/>
			<path class="st12" d="M131.6,211.3c0.3-0.3,0.6,0.3,0.3,0.6C131.5,212.2,131.2,211.3,131.6,211.3z"/>
			<path class="st12" d="M131.4,213.1c0.1,0,0.5,0.2-0.2,0.2C131.2,213.2,131.3,213.1,131.4,213.1z"/>
			<path class="st12" d="M129,211.3c0.3,0,0.3,0.4,0,0.4C128.7,211.8,128.7,211.3,129,211.3z"/>
			<path class="st12" d="M136.7,210.2c0-0.1,0-0.1,0.1-0.2C136.8,210,137.1,209.7,136.7,210.2z"/>
			<path class="st12" d="M134.4,205.8c-0.2,0-0.3-0.5-0.2-0.6C134.4,204.7,135,206.1,134.4,205.8z"/>
			<path class="st12" d="M137.6,202.9c-0.1,0.1-0.3,0.2-0.3-0.3C137.2,202.4,137.8,202.5,137.6,202.9z"/>
			<path class="st12" d="M133.6,197.7c-0.2-0.4,0.5,0.2,0.5,0.4c0.2,0.5-0.2,0.8-0.4,0.6C133.3,198.7,132.9,197.6,133.6,197.7z"/>
			<path class="st12" d="M132.7,200.7c0.2,0.6-0.6,0.4-0.5-0.2C132.2,200.2,132.6,200.3,132.7,200.7z"/>
			<path class="st12" d="M132,203.8c-0.1,0.1-0.2,0.1-0.3,0c-0.4,0.5-0.8-0.1-0.6-0.6C131.1,202.4,132.3,203.2,132,203.8z"/>
			<path class="st12" d="M136.7,196.9c0.2-0.3,0.8,0.2,0.5,0.6C137.2,198.1,136.4,197.5,136.7,196.9z"/>
			<path class="st12" d="M139.2,196.9c0.2,0,0.1,0.7-0.3,0.2C138.8,197,139,196.6,139.2,196.9z"/>
			<path class="st12" d="M138.4,198c0.4-0.4,0.6,0.8,0.1,0.7C138.2,198.8,137.8,198.1,138.4,198z"/>
			<path class="st12" d="M136.9,198.2c0.1,0.1,0,0.3-0.2,0.2C136.4,198.3,136.7,197.9,136.9,198.2z"/>
			<path class="st12" d="M134.1,194.7c-0.7-0.1-0.6-1.3,0-0.8C134.2,193.8,134.4,194.7,134.1,194.7z"/>
			<path class="st12" d="M129.9,194.2c0,0-0.2-0.4,0.1-0.4C130.6,193.8,130,194.6,129.9,194.2z"/>
			<path class="st12" d="M130,195.8c0.3-0.2,0.6,0.7,0.2,0.8C129.8,196.9,129.6,196.2,130,195.8z"/>
			<path class="st12" d="M128.4,200.1c-0.2-0.3,0-0.5,0.1-0.4C129,199.9,128.6,200.3,128.4,200.1z"/>
			<path class="st12" d="M127,199.2c0-0.3,0.5-0.1,0.6,0.2C128,200.1,126.9,200.2,127,199.2z"/>
			<path class="st12" d="M127.9,198.5c0-0.3,0.4-0.2,0.3,0.1C128.4,199.1,127.8,198.8,127.9,198.5z"/>
			<path class="st12" d="M118.5,208.9c0.5-0.2,1,0.2,1,0.2c0.3,0.4,0,0.9-0.3,0.4c-0.2,0-0.4-0.1-0.4-0.2
				C118.3,209.3,118.3,209,118.5,208.9z"/>
			<path class="st12" d="M117.1,207.3c0.8,1.1-0.2,0.9-0.2,0.6C116.5,207.5,116.9,207,117.1,207.3z"/>
			<path class="st12" d="M118.4,208c0.3,0,0,0.8-0.3,0.1C118,207.9,118.2,207.8,118.4,208z"/>
			<path class="st12" d="M122.2,207.7c0.4,0.3,0,0.9-0.3,0.1C121.9,207.7,122.1,207.5,122.2,207.7z"/>
			<path class="st12" d="M118.9,199.7c-0.1-0.2-0.2-0.6,0-0.7c0.2-0.7,0.9,0.3,0.5,0.8C119.3,200.3,118.7,200,118.9,199.7z"/>
			<path class="st12" d="M117.1,197.4c-0.1,0.1-0.3,0.1-0.3-0.1c-0.2,0-0.3-0.2-0.3-0.3C116.6,196.3,117.5,196.9,117.1,197.4z"/>
			<path class="st12" d="M125.1,195.2c0.1-0.4,0.7,0.2,0.3,0.7C125.2,196.2,124.8,195.5,125.1,195.2z"/>
			<path class="st12" d="M122.1,195.2c0.1,0.1,0,0.4-0.2,0.2c-0.1,0-0.2-0.1-0.1-0.2C121.7,194.8,122.3,194.8,122.1,195.2z"/>
			<path class="st12" d="M123.7,195.7c0-0.2,0.2-0.2,0.4-0.1C124.9,196.1,123.5,197.5,123.7,195.7z"/>
			<path class="st12" d="M123.7,194.9c-0.1,0.1-0.3,0.1-0.3-0.1c-0.2,0-0.2-0.3-0.2-0.4C123.2,194,123.9,194.6,123.7,194.9z"/>
			<path class="st12" d="M124.6,194.7c-0.1,0-0.3-0.3-0.2-0.4C124.6,194.1,124.9,194.6,124.6,194.7z"/>
			<path class="st12" d="M115,195.4c0,0,0,1-0.2-0.3C114.9,195.1,115,195.2,115,195.4z"/>
			<path class="st12" d="M118.6,195.2c0.2,0.5-0.5,0.6-0.5,0.2C117.9,195,118.4,194.6,118.6,195.2z"/>
			<path class="st12" d="M116.9,195.6c0,0.3-0.5,0.1-0.4-0.2C116.6,195.2,116.9,195.1,116.9,195.6z"/>
			<path class="st12" d="M122,192.7c0.1-0.4,0.6-0.4,0.6-0.1c0,0.1,0,0.1-0.1,0.1h0C122.5,193.1,121.9,193.1,122,192.7z"/>
			<path class="st12" d="M121.5,192.7c-0.1,0-0.2,0.1-0.3,0H121.5z"/>
			<path class="st12" d="M116.3,192.6C116.3,192.6,116.3,192.6,116.3,192.6L116.3,192.6c0.1,0,0.2,0.1,0.2,0.2
				c0.1,0.2-0.2,0.4-0.3,0.2C116.1,192.8,116.1,192.6,116.3,192.6z"/>
			<path class="st12" d="M138.6,192.7c0-0.1,0.1-0.2,0.3-0.2c0.1-0.2,0.2-0.1,0.3,0c0.2,0.1,0.2,0.1-0.1,0.1c0.2,0,0.4,0.1,0,0.5
				C138.9,193.3,138.4,193,138.6,192.7z"/>
		</g>
		
			<ellipse transform="matrix(0.9732 -0.2298 0.2298 0.9732 -40.2703 34.3292)" class="st13" cx="127.3" cy="190.1" rx="13" ry="13"/>
		<circle class="st14" cx="127.3" cy="190.1" r="11.3"/>
		<path class="st15" d="M130.4,170.4c0.2,0,0,0.4,2.8-5.8c0.1-0.2-0.3-0.4-0.4-0.2C130.1,170.4,130,170.4,130.4,170.4z"/>
		<path class="st15" d="M132.1,171.3c6.3-6.3,6-5.9,5.8-6.1c-0.2-0.2,0.1-0.3-6.1,5.8C131.6,171.2,131.9,171.5,132.1,171.3z"/>
		<path class="st15" d="M133.4,172.9c5.4-3.3,5.3-3.2,5.2-3.4c-0.2-0.2,0-0.3-5.4,3.1C132.9,172.7,133.2,173.1,133.4,172.9z"/>
		<path class="st5" d="M132.8,191.2l1.6-14c0.5-4.1-2.7-7.7-6.9-7.7s-7.3,3.6-6.9,7.7l1.6,14C124.4,195.9,130.5,195.7,132.8,191.2z"
			/>
		<path class="st16" d="M126,191.3c-0.9-17.3-0.7-16.5-1.2-16.5c-0.6,0-0.4-0.5,0.4,16.5C125.2,191.9,126.1,191.8,126,191.3z"/>
		<path class="st16" d="M128.9,191.6c0.6,0,0.3,0.8,1.2-16.5c0-0.5-0.8-0.6-0.8,0C128.4,192.3,128.3,191.6,128.9,191.6z"/>
	</g>
	<g>
		<g>
			<polygon class="st17" points="109,357.2 99.9,357.2 124.7,221.1 133.8,221.1 			"/>
			<polygon class="st4" points="121,241.4 130.1,241.4 133.8,221.1 124.7,221.1 			"/>
		</g>
		<g>
			<polygon class="st17" points="343.7,357.2 352.8,357.2 327.9,221.1 318.8,221.1 			"/>
			<polygon class="st4" points="331.6,241.4 322.5,241.4 318.8,221.1 327.9,221.1 			"/>
		</g>
		<rect x="94" y="211.7" class="st18" width="261.5" height="9.9"/>
	</g>
	<path class="st19" d="M201.4,178.2c-19.4,1.2-52.9,10.5-54.2,24.4c-1.1,11.6,8,8.8,17.5,9.2c9.5,0.4,53.2-0.2,53.2-0.2L201.4,178.2
		z"/>
	<path class="st19" d="M229.1,177.8c19.4,1.2,60.1,11.2,60.6,25.1c0.4,9.8-9.1,9.5-21,9c-9.5-0.4-49.4-0.3-49.4-0.3L229.1,177.8z"/>
	<path class="st20" d="M151.7,209.4c-3.8-2.9-3.7-7.9-0.4-11.3c2.9-3,8.4-4.7,14-4.1c12,1.1,42.7,8.1,42.7,8.1l-0.4,8.9
		c0,0-17.4,0.4-33.4,0.6C165.2,211.6,156.1,212.7,151.7,209.4z"/>
	<g>
		<path class="st20" d="M196.3,240.9c9.7,1.1,17.6,7.2,11.8,23.8c-5.3,15.3-39.7,70.8-45.1,79.4c-0.4,0.7-0.5,1.6-0.3,2.4l2.9,9.3
			h-25.9c0,0,2.1-7.5,5-13c2.9-5.6,39.9-79.1,39.9-79.1s-6.6-4.6-7.9-6.6C175.6,255,177.2,238.8,196.3,240.9z"/>
		<path class="st4" d="M196.3,240.9c-19-2.1-20.7,14.1-19.5,16.1c1.2,2.1,7.9,6.6,7.9,6.6s-7.7,15.2-16.3,32.3
			c7.5-0.3,15.9,2.1,21.2,4c8.4-14.6,16.1-28.6,18.4-35.2C213.9,248.1,206,242,196.3,240.9z"/>
		<path class="st5" d="M154.9,347.3c-3.3,0.3-6.3,1.6-8.1,2.6c-1.2,0.7-2.7,0.7-3.9,0l-1-0.5c-1.3,3.5-2.1,6.4-2.1,6.4h25.9l-2-6.5
			l-0.2-0.2C163.4,349.2,160.2,346.8,154.9,347.3z"/>
		<path class="st1" d="M163.8,357.6h-22.1c-1,0-1.9-0.8-1.9-1.9v0h25.8l0,0C165.6,356.7,164.8,357.6,163.8,357.6z"/>
	</g>
	<g>
		<path class="st20" d="M225.5,240.9c-9.7,1.1-17.6,7.2-11.8,23.8c5.3,15.3,39.7,70.8,45.1,79.4c0.4,0.7,0.5,1.6,0.3,2.4l-2.9,9.3
			H282c0,0-2.1-7.5-5-13c-2.9-5.6-39.9-79.1-39.9-79.1s6.6-4.6,7.9-6.6C246.2,255,244.5,238.8,225.5,240.9z"/>
		<path class="st4" d="M225.5,240.9c19-2.1,20.7,14.1,19.5,16.1c-1.2,2.1-7.9,6.6-7.9,6.6s7.7,15.2,16.3,32.3
			c-7.5-0.3-15.9,2.1-21.2,4c-8.4-14.6-16.1-28.6-18.4-35.2C207.9,248.1,215.8,242,225.5,240.9z"/>
		<path class="st5" d="M266.9,347.3c3.3,0.3,6.3,1.6,8.1,2.6c1.2,0.7,2.7,0.7,3.9,0l1-0.5c1.3,3.5,2.1,6.4,2.1,6.4h-25.9l2-6.5
			l0.2-0.2C258.3,349.2,261.6,346.8,266.9,347.3z"/>
		<path class="st1" d="M258,357.6H280c1,0,1.9-0.8,1.9-1.9v0h-25.8l0,0C256.1,356.7,256.9,357.6,258,357.6z"/>
	</g>
	<path class="st20" d="M285.6,209.4c3.8-2.9,3.7-7.9,0.4-11.3c-2.9-3-8.4-4.7-14-4.1c-12,1.1-42.7,8.1-42.7,8.1l0.4,8.9
		c0,0,17.4,0.4,33.4,0.6C272.2,211.6,281.2,212.7,285.6,209.4z"/>
	<path class="st4" d="M199,181.6c-3.6,3.6-7.5,6.5-8.7,11.2c-1.2,4.7-0.8,5.6-0.8,5.6s-3.7,1.4-4.7,6.5c-0.9,5.1,0.3,7.1,0.3,7.1
		l67.4-0.5c0,0,1.7-3.3-1.4-8.1c-3.1-4.8-6.5-4.8-6.5-4.8s-5.1-2.3-6.1-5.6c-0.9-3.3-7.1-11.8-7.1-11.8L199,181.6z"/>
	<path class="st21" d="M243.1,238.6c-4.8-2.8-5.6-6.1-2.1-16c3.5-9.9-0.4-13-3.7-17.4c-3.1-4.1-5.1-7.4-1-12.9
		c3.2-4.3,0.9-11.2-3.3-13.1c-2.2-1-1.7-4.4-3.5-6.5c-2-2.4-6.8-3.4-10.4-2c-1-0.4-2.1-0.7-3.2-1c-9.2-1.8-18,4.1-19.8,13.2
		c-0.6,2.9-0.3,5.8,0.6,8.4c-0.6,1-3.5,6.5-2.3,9.9c1.4,3.7,2.1,5.1-1.4,10.6c-3.6,5.5-1.8,7.6,0.7,13.2c2.5,5.7-0.4,9.6-3.7,12.7
		c-3.3,3.1-4.7,10.4-0.4,14c4.2,3.6,6.5,6,2.1,14s2.5,14.4,7.9,13.5c5.4-0.9,14.4-2.9,13.2,3.9c-1.2,6.8,9.3,13,15.8,8.8
		c6.5-4.2,3.9-10.8,2.5-17c-1.4-6.3,4-8.2,11.8-15.8C250.7,251.5,248,241.4,243.1,238.6z"/>
	<path class="st4" d="M209.2,202.8c2.2,4.6,1.1,12.2-1.6,18.2c-2.7,6,5.2,6.5,6.5,13.6c1.3,7-5.1,7.2-5.9,13.4
		c-0.8,6.1,5.8,5.4,4.1,13.1c-1.6,7.3-7.5,7.1-8.9,17.4c-1.3,0.2-2.6,0.4-3.8,0.6c-5.4,0.9-12.4-5.4-7.9-13.5c4.4-8,2.1-10.4-2.1-14
		c-4.2-3.6-2.9-10.9,0.4-14c3.3-3.1,6.2-7,3.7-12.7c-2.5-5.7-4.3-7.7-0.7-13.2c3.6-5.5,3.1-6.6,1.7-10.3c-1.4-3.7,1.3-10.1,1.3-10.1
		S206.9,198.2,209.2,202.8z"/>
	<g>
		<path class="st3" d="M348.5,207.4H288l5.8-35.1c0.4-2.2,2.2-3.7,4.4-3.7h53.2c1.9,0,3.3,1.7,3,3.5L348.5,207.4z"/>
		<path class="st22" d="M349.6,207.4h-60.5l5.8-35.1c0.4-2.2,2.2-3.7,4.4-3.7h53.2c1.9,0,3.3,1.7,3,3.5L349.6,207.4z"/>
		<path class="st23" d="M273.3,212h76.3v-4.6h-71.8C275.3,207.4,273.3,209.4,273.3,212L273.3,212z"/>
		<circle class="st24" cx="324.6" cy="188.6" r="5.3"/>
	</g>
	<g>
		<g>
			<path class="st25" d="M315.9,209.1c0,0.8-1.5,2.4-2.2,2.9h-16c-1-0.6-2-2.4-2.2-2.9H315.9z"/>
			<linearGradient id="SVGID_4_" gradientUnits="userSpaceOnUse" x1="305.7026" y1="211.8677" x2="305.7026" y2="209.9447">
				<stop  offset="0" style="stop-color:#CBC7FF"/>
				<stop  offset="1" style="stop-color:#FFFFFF"/>
			</linearGradient>
			<path class="st26" d="M315.9,209.1c0,0.8-1.5,2.4-2.2,2.9h-16c-1-0.6-2-2.4-2.2-2.9H315.9z"/>
			<path class="st25" d="M313.3,198.1l-0.2,0l0.5-2.4c0-0.2-0.1-0.4-0.4-0.4h-15.1c-0.2,0-0.4,0.2-0.4,0.4l2.7,13.5h10.5l0.5-2.5
				l0.3,0.1h0c0.2,0,0.5,0.1,0.7,0.1c1.8,0,3.4-1.3,3.8-3.1l0.2-1.1C316.8,200.5,315.4,198.5,313.3,198.1z M314.9,202.3l-0.2,1.1
				c-0.2,1.3-1.5,2.1-2.8,1.9l-0.3,0l1.1-5.7l0.2,0C314.3,199.8,315.2,201,314.9,202.3z"/>
			<linearGradient id="SVGID_5_" gradientUnits="userSpaceOnUse" x1="299.5438" y1="202.1541" x2="305.6832" y2="202.1541">
				<stop  offset="0" style="stop-color:#CBC7FF"/>
				<stop  offset="1" style="stop-color:#FFFFFF"/>
			</linearGradient>
			<path class="st27" d="M313.3,198.1l-0.2,0l0.5-2.4c0-0.2-0.1-0.4-0.4-0.4h-15.1c-0.2,0-0.4,0.2-0.4,0.4l2.7,13.5h10.5l0.5-2.5
				l0.3,0.1h0c0.2,0,0.5,0.1,0.7,0.1c1.8,0,3.4-1.3,3.8-3.1l0.2-1.1C316.8,200.5,315.4,198.5,313.3,198.1z M314.9,202.3l-0.2,1.1
				c-0.2,1.3-1.5,2.1-2.8,1.9l-0.3,0l1.1-5.7l0.2,0C314.3,199.8,315.2,201,314.9,202.3z"/>
		</g>
		<circle class="st25" cx="305.7" cy="195.3" r="7.9"/>
		<circle class="st4" cx="305.7" cy="195.3" r="7"/>
		<linearGradient id="SVGID_6_" gradientUnits="userSpaceOnUse" x1="305.7071" y1="202.0413" x2="305.7071" y2="190.365">
			<stop  offset="0" style="stop-color:#996B5A"/>
			<stop  offset="1" style="stop-color:#5A3C37"/>
		</linearGradient>
		<ellipse class="st28" cx="305.7" cy="196.3" rx="6.9" ry="6"/>
		<path class="st29" d="M308.6,196.9l0.5-0.9c0.3-0.6-0.1-1.3-0.5-1.7c-0.4-0.4-1.9-1.2-2.5-1.3c-0.6-0.1-1.3,0.1-1.7,0.5
			c-0.4,0.5-1.2,2.2-1.3,2.5c-0.1,0.3-0.2,0.6-0.1,0.9c0.8,0.1,1.7,0.1,2.6,0.1C306.7,197,307.7,197,308.6,196.9z"/>
	</g>
</g>
</svg>
