<?xml version="1.0" encoding="utf-8"?>
<!-- Generator: Adobe Illustrator 25.2.0, SVG Export Plug-In . SVG Version: 6.00 Build 0)  -->
<svg version="1.1" id="Calque_1" xmlns="http://www.w3.org/2000/svg" xmlns:xlink="http://www.w3.org/1999/xlink" x="0px" y="0px"
	 viewBox="0 0 250 250" style="enable-background:new 0 0 250 250;" xml:space="preserve">
<style type="text/css">
	.st0{fill:#FF5A5F;}
</style>
<path class="st0" d="M185,152.9c-0.5-1.6-1.4-3.3-1.9-4.9c-1.1-2.4-2.2-4.6-3-6.8l0,0c-9.3-19.9-19-40.3-29.4-60.1l-0.3-0.8
	c-1.1-1.9-2.2-4.1-3.3-6.3c-1.4-2.4-2.7-4.9-4.9-7.3c-4.4-5.4-10.3-8.2-16.9-8.2c-6.5,0-12.5,3-17.1,7.9c-1.9,2.4-3.5,4.9-4.9,7.3
	c-1.1,2.2-2.2,4.4-3.3,6.3l-0.3,0.8c-10.3,19.9-20.1,40.3-29.4,60.1v0.3c-0.8,2.2-1.9,4.4-3,6.8c-0.5,1.4-1.4,3-1.9,4.9
	c-1.6,4.9-2.2,9.5-1.6,14.4c1.4,10.1,8.2,18.2,17.4,22c3.5,1.4,7.1,2.2,10.9,2.2c1.1,0,2.4,0,3.5-0.3c4.4-0.5,9-1.9,13.3-4.6
	c5.4-3,10.6-7.3,16.6-13.9c6,6.3,11.2,10.9,16.6,13.9c4.4,2.4,9,4.1,13.3,4.6c1.1,0,2.4,0.3,3.5,0.3c3.8,0,7.3-0.5,10.9-2.2
	c9.3-3.8,15.8-12.2,17.4-22C187.2,162.4,186.6,157.8,185,152.9z M124.8,159.7c-7.1-9-12-17.7-13.3-24.8c-0.5-3-0.8-5.7-0.3-8.2
	c0.3-2.2,1.1-4.1,2.2-5.7c2.4-3.5,6.8-6,11.7-6c4.9,0,9.3,2.2,11.7,6c1.1,1.6,1.9,3.5,2.2,5.7c0.3,2.4,0.3,5.2-0.3,8.2
	C136.8,142,131.9,150.7,124.8,159.7z M177.9,166c-0.8,6.8-5.7,12.8-12,15.5c-3.3,1.4-6.5,1.6-10.1,1.4c-3.3-0.3-6.5-1.4-10.1-3.5
	c-4.9-2.7-9.5-6.8-15.2-12.8c8.7-10.9,14.1-20.7,16.1-29.4c0.8-4.1,1.1-7.9,0.5-11.4c-0.5-3.3-1.6-6.3-3.5-9
	c-4.1-6-11.2-9.5-18.8-9.5c-7.6,0-14.7,3.5-18.8,9.5c-1.9,2.7-3,5.7-3.5,9c-0.5,3.5-0.3,7.3,0.5,11.4c1.9,8.7,7.3,18.8,16.1,29.7
	c-5.4,6-10.3,10.3-15.2,12.8c-3.5,1.9-6.8,3-10.1,3.5c-3.5,0.3-7.1,0-10.1-1.4c-6.5-2.7-11.2-8.7-12-15.5c-0.3-3.3,0-6.5,1.1-10.3
	c0.3-1.4,1.1-2.7,1.6-4.4c0.8-2.2,1.9-4.4,3-6.5v-0.3c9.3-19.9,19-40,29.4-59.9l0.3-0.8c1.1-1.9,2.2-4.1,3.3-6
	c1.1-2.2,2.2-4.1,3.8-6c2.7-3.3,6.5-4.9,10.6-4.9c4.1,0,7.9,1.6,10.6,4.9c1.4,1.6,2.7,3.8,3.8,6c1.1,1.9,2.2,4.1,3.3,6l0.3,0.8
	c10.1,19.9,19.9,40,29.1,59.9l0,0c1.1,2.2,1.9,4.6,3,6.5c0.5,1.6,1.4,3,1.6,4.4C178.2,159.1,178.5,162.7,177.9,166z"/>
</svg>
