<?xml version="1.0" encoding="utf-8"?>
<!-- Generator: Adobe Illustrator 25.2.0, SVG Export Plug-In . SVG Version: 6.00 Build 0)  -->
<svg version="1.1" id="Calque_1" xmlns="http://www.w3.org/2000/svg" xmlns:xlink="http://www.w3.org/1999/xlink" x="0px" y="0px"
	 viewBox="0 0 250 250" style="enable-background:new 0 0 250 250;" xml:space="preserve">
<style type="text/css">
	.st0{fill:#E74D89;}
	.st1{fill:#B2215A;}
</style>
<g>
	<path class="st0" d="M125,62c34.9,0,63,28.2,63,63s-28.2,63-63,63s-63-28.2-63-63S90.1,62,125,62z"/>
	<path class="st1" d="M125,192.5c-37.4,0-67.5-30.1-67.5-67.5S87.9,57.5,125,57.5s67.5,30.1,67.5,67.5S162.4,192.5,125,192.5
		L125,192.5z M181.9,134.2c-2-0.6-17.8-5.3-36-2.5c7.5,20.6,10.6,37.6,11.2,41C170.2,164,179.4,150.4,181.9,134.2z M147.6,178.3
		c-0.8-5-4.2-22.6-12.3-43.8H135c-32.6,11.4-44.3,34-45.2,36c9.8,7.5,22,12.3,35.4,12.3C133.1,182.7,140.6,181,147.6,178.3
		L147.6,178.3z M82.1,163.5c1.4-2.2,17.3-28.4,46.8-37.9c0.8-0.3,1.4-0.6,2.2-0.6c-1.4-3.3-3.1-6.4-4.7-9.8
		c-28.7,8.6-56.9,8.4-59.4,8.1c0,0.6,0,1.1,0,1.7C67.3,139.8,72.9,153.4,82.1,163.5L82.1,163.5z M68.4,113.3c2.5,0,26.2,0.3,53.3-7
		c-9.5-17-19.8-31.2-21.5-33.2C84.3,80.7,72.3,95.4,68.4,113.3z M111.6,69c1.7,2.2,12,16.5,21.5,33.7c20.6-7.8,29.3-19.2,30.1-20.9
		c-10.3-8.9-23.7-14.5-38.2-14.5C120.3,67.6,115.8,68.1,111.6,69z M169.6,88.5c-1.1,1.7-10.9,13.9-32.1,22.9
		c1.4,2.8,2.5,5.6,3.9,8.4c0.6,1.1,0.8,2,1.4,3.1c19.2-2.5,38.2,1.4,40.2,2C182.7,111.1,177.7,98.5,169.6,88.5L169.6,88.5z"/>
</g>
</svg>
