<?xml version="1.0" encoding="utf-8"?>
<!-- Generator: Adobe Illustrator 25.2.0, SVG Export Plug-In . SVG Version: 6.00 Build 0)  -->
<svg version="1.1" id="Calque_1" xmlns="http://www.w3.org/2000/svg" xmlns:xlink="http://www.w3.org/1999/xlink" x="0px" y="0px"
	 viewBox="0 0 250 250" style="enable-background:new 0 0 250 250;" xml:space="preserve">
<style type="text/css">
	.st0{fill:#E24329;}
	.st1{fill:#FC6D26;}
	.st2{fill:#FCA326;}
</style>
<g>
	<path class="st0" d="M125,191.5l26.7-82H98.3L125,191.5L125,191.5z"/>
	<path class="st1" d="M125,191.5l-26.7-82H61.2L125,191.5z"/>
	<path class="st2" d="M61.2,109.6l-8,25c-0.8,2.2,0,4.7,1.9,6.1l69.9,50.9L61.2,109.6L61.2,109.6z"/>
	<path class="st0" d="M61.2,109.6h37.4l-16-49.2c-0.8-2.5-4.4-2.5-5.2,0L61.2,109.6L61.2,109.6z"/>
	<path class="st1" d="M125,191.5l26.7-82h37.4L125,191.5L125,191.5z"/>
	<path class="st2" d="M188.8,109.6l8,25c0.8,2.2,0,4.7-1.9,6.1L125,191.5L188.8,109.6L188.8,109.6z"/>
	<path class="st0" d="M188.8,109.6h-37.1l16-49.2c0.8-2.5,4.4-2.5,5.2,0L188.8,109.6L188.8,109.6z"/>
</g>
</svg>
