<?xml version="1.0" encoding="utf-8"?>
<!-- Generator: Adobe Illustrator 25.2.0, SVG Export Plug-In . SVG Version: 6.00 Build 0)  -->
<svg version="1.1" id="Calque_1" xmlns="http://www.w3.org/2000/svg" xmlns:xlink="http://www.w3.org/1999/xlink" x="0px" y="0px"
	 viewBox="0 0 250 250" style="enable-background:new 0 0 250 250;" xml:space="preserve">
<style type="text/css">
	.st0{fill:#FF7A59;}
</style>
<path class="st0" d="M159.2,102.5V86.6c4.4-1.9,7.1-6.3,7.1-10.9v-0.3c0-6.8-5.5-12.3-12.3-12.3h-0.3c-6.8,0-12.3,5.5-12.3,12.3l0,0
	v0.3c0,4.6,2.7,9,7.1,10.9v15.8c-6,0.8-11.7,3.6-16.4,7.4L88.4,76c0.3-1.1,0.5-2.2,0.5-3.6c0-7.6-6-13.9-13.7-13.9
	s-13.9,6-13.9,13.7s6,13.9,13.7,13.9l0,0c2.5,0,4.6-0.5,6.8-1.9l42.9,33.3c-7.9,12-7.6,27.3,0.5,39.1l-13.1,13.1
	c-1.1-0.3-2.2-0.5-3.3-0.5c-6.3,0-11.2,5.2-11.2,11.2c0,6.3,5.2,11.2,11.2,11.2c6.3,0,11.2-5.2,11.2-11.2c0-1.1-0.3-2.2-0.5-3.3
	l12.8-12.8c15.3,11.7,37.2,9,48.9-6.3s9-37.2-6.3-48.9C170.4,105.5,164.9,103.3,159.2,102.5 M153.7,154.6c-9.8,0.3-18-7.4-18.3-17.5
	c-0.3-9.8,7.4-18,17.5-18.3c0.3,0,0.5,0,1.1,0c9.8,0.3,17.5,8.7,17.2,18.6C170.7,146.7,163.3,154.4,153.7,154.6"/>
</svg>
