<?xml version="1.0" encoding="utf-8"?>
<!-- Generator: Adobe Illustrator 25.2.0, SVG Export Plug-In . SVG Version: 6.00 Build 0)  -->
<svg version="1.1" id="Calque_1" xmlns="http://www.w3.org/2000/svg" xmlns:xlink="http://www.w3.org/1999/xlink" x="0px" y="0px"
	 viewBox="0 0 250 250" style="enable-background:new 0 0 250 250;" xml:space="preserve">
<style type="text/css">
	.st0{fill:#171826;}
	.st1{fill-rule:evenodd;clip-rule:evenodd;fill:#36C5F0;}
	.st2{fill-rule:evenodd;clip-rule:evenodd;fill:#2EB67D;}
	.st3{fill-rule:evenodd;clip-rule:evenodd;fill:#ECB22E;}
	.st4{fill-rule:evenodd;clip-rule:evenodd;fill:#E01E5A;}
</style>
<rect class="st0" width="250" height="250"/>
<g>
	<path class="st1" d="M106.8,56.7c-7.5,0-13.6,6.1-13.6,13.7c0,7.5,6.1,13.7,13.6,13.7h13.6V70.3C120.5,62.8,114.4,56.7,106.8,56.7
		C106.8,56.7,106.8,56.7,106.8,56.7 M106.8,93.1H70.5c-7.5,0-13.6,6.1-13.6,13.7c0,7.5,6.1,13.7,13.6,13.7h36.4
		c7.5,0,13.6-6.1,13.6-13.7C120.5,99.2,114.4,93.1,106.8,93.1L106.8,93.1z"/>
	<path class="st2" d="M193.2,106.8c0-7.5-6.1-13.7-13.6-13.7c-7.5,0-13.6,6.1-13.6,13.7v13.7h13.6
		C187.1,120.4,193.2,114.3,193.2,106.8z M156.8,106.8V70.3c0-7.5-6.1-13.6-13.6-13.7c-7.5,0-13.6,6.1-13.6,13.7v36.4
		c0,7.5,6.1,13.7,13.6,13.7C150.7,120.4,156.8,114.3,156.8,106.8z"/>
	<path class="st3" d="M143.2,193.3c7.5,0,13.6-6.1,13.6-13.7c0-7.5-6.1-13.7-13.6-13.7h-13.6v13.7
		C129.5,187.2,135.6,193.3,143.2,193.3z M143.2,156.9h36.4c7.5,0,13.6-6.1,13.6-13.7c0-7.5-6.1-13.7-13.6-13.7h-36.4
		c-7.5,0-13.6,6.1-13.6,13.7C129.5,150.8,135.6,156.9,143.2,156.9L143.2,156.9z"/>
	<path class="st4" d="M56.8,143.2c0,7.5,6.1,13.7,13.6,13.7c7.5,0,13.6-6.1,13.6-13.7v-13.7H70.5C62.9,129.6,56.8,135.7,56.8,143.2z
		 M93.2,143.2v36.4c0,7.5,6.1,13.7,13.6,13.7c7.5,0,13.6-6.1,13.6-13.7v-36.4c0-7.5-6.1-13.7-13.6-13.7
		C99.3,129.6,93.2,135.7,93.2,143.2C93.2,143.2,93.2,143.2,93.2,143.2"/>
</g>
</svg>
