<?xml version="1.0" encoding="utf-8"?>
<!-- Generator: Adobe Illustrator 25.2.0, SVG Export Plug-In . SVG Version: 6.00 Build 0)  -->
<svg version="1.1" id="Calque_1" xmlns="http://www.w3.org/2000/svg" xmlns:xlink="http://www.w3.org/1999/xlink" x="0px" y="0px"
	 viewBox="0 0 250 250" style="enable-background:new 0 0 250 250;" xml:space="preserve">
<style type="text/css">
	.st0{fill:#FF4422;}
</style>
<path class="st0" d="M115.8,110.5c-2.6-2.6-6-4-9.8-4H85.6v37h13.9v-23.1h4.4c1.2,0,2.4,0.4,3.2,1.4l4.8,4.8c0.8,0.8,1.4,2,1.4,3.2
	v13.7h13.9v-15.7c0-3.6-1.4-7.2-4-9.8C123.2,118,115.8,110.5,115.8,110.5z M187.5,106.5v13.7c0,1.2-0.4,2.4-1.4,3.2l-4.8,4.8
	c-0.8,0.8-2,1.4-3.2,1.4h-6.6c1.4-2.2,2.2-4.8,2.2-7.4v-15.7h-13.9v13.7c0,1.2-0.4,2.4-1.4,3.2l-4.8,4.8c-0.8,0.8-2,1.4-3.2,1.4
	h-4.4v-23.1H132v37h20.3c3.6,0,7.2-1.4,9.8-4l4.6-4.6v8.6H180c3.6,0,7.2-1.4,9.8-4l7.4-7.4c2.6-2.6,4-6,4-9.8v-15.7
	C201.3,106.5,187.5,106.5,187.5,106.5z M48.7,120.4h9.2v23.1h13.9v-23.1H81v-13.9H48.7V120.4z"/>
</svg>
