<?xml version="1.0" encoding="utf-8"?>
<!-- Generator: Adobe Illustrator 25.2.0, SVG Export Plug-In . SVG Version: 6.00 Build 0)  -->
<svg version="1.1"
	 id="svg2" inkscape:version="0.48.2 r9819" sodipodi:version="0.32" xmlns:cc="http://creativecommons.org/ns#" xmlns:dc="http://purl.org/dc/elements/1.1/" xmlns:inkscape="http://www.inkscape.org/namespaces/inkscape" xmlns:rdf="http://www.w3.org/1999/02/22-rdf-syntax-ns#" xmlns:sodipodi="http://sodipodi.sourceforge.net/DTD/sodipodi-0.dtd" xmlns:svg="http://www.w3.org/2000/svg"
	 xmlns="http://www.w3.org/2000/svg" xmlns:xlink="http://www.w3.org/1999/xlink" x="0px" y="0px" viewBox="0 0 4096 4096"
	 style="enable-background:new 0 0 4096 4096;" xml:space="preserve">
<style type="text/css">
	.st0{fill-rule:evenodd;clip-rule:evenodd;fill:#E4DEFF;}
	.st1{fill:#FFADC8;}
	.st2{fill:#FFFFFF;}
	.st3{fill:#939598;}
	.st4{fill:#666A70;}
	.st5{fill:#C07290;}
	.st6{fill:#000072;}
	.st7{fill:#020202;}
	.st8{opacity:0.66;fill:#FFFFFF;}
	.st9{opacity:0.22;fill:#666A70;}
</style>
<rect class="st0" width="4096" height="4096"/>
<defs>
	
		<inkscape:perspective  id="perspective10" inkscape:persp3d-origin="372.04724 : 350.78739 : 1" inkscape:vp_x="0 : 526.18109 : 1" inkscape:vp_y="0 : 1000 : 0" inkscape:vp_z="744.09448 : 526.18109 : 1" sodipodi:type="inkscape:persp3d">
		</inkscape:perspective>
	
		<inkscape:perspective  id="perspective2392" inkscape:persp3d-origin="372.04724 : 350.78739 : 1" inkscape:vp_x="0 : 526.18109 : 1" inkscape:vp_y="0 : 1000 : 0" inkscape:vp_z="744.09448 : 526.18109 : 1" sodipodi:type="inkscape:persp3d">
		</inkscape:perspective>
</defs>
<sodipodi:namedview  bordercolor="#666666" borderopacity="1.0" gridtolerance="10000" guidetolerance="10" id="base" inkscape:current-layer="layer6" inkscape:cx="1492.7692" inkscape:cy="1942.488" inkscape:document-units="px" inkscape:pageopacity="0.0" inkscape:pageshadow="2" inkscape:window-height="1058" inkscape:window-maximized="1" inkscape:window-width="1920" inkscape:window-x="-8" inkscape:window-y="-8" inkscape:zoom="0.16" objecttolerance="10" pagecolor="#ffffff" showgrid="false" showguides="true">
	<inkscape:grid  enabled="true" id="grid3209" type="xygrid" visible="true"></inkscape:grid>
</sodipodi:namedview>
<path class="st1" d="M3033.7,1791c0,0.1,0,0.2,0,0.3c-3.1,11.5-57,40.9-162.7,40.9c-12,0-23.7-0.4-35.3-1.2
	c-5.5-26.2-13-51.9-22.3-77.1c18.4-2.3,37.9-3.4,57.6-3.4C2976.5,1750.4,3030.6,1780,3033.7,1791z"/>
<path class="st2" d="M3029.5,1728.3c-41.5-18.8-101.2-27.7-158.5-27.7c-26.7,0-53.2,1.9-77.7,5.7c-30.8-64.8-74.3-125.3-129-179.2
	c76.2-20.2,146-18.9,208,3.7C2983.8,1571.5,3018.8,1665.4,3029.5,1728.3z"/>
<path class="st3" d="M2600.6,1108.5c86.2,179.6,12.9,280.1-48.4,328.2c-54-35.8-112.9-65.2-176.1-88
	c87.9-60.2,147.5-160,183.7-239.2c5.6-12.2,17.2-13.3,20.6-13.3C2584.5,1096,2595.1,1097.2,2600.6,1108.5z"/>
<path class="st3" d="M1740.8,1348.7c-63.2,22.8-122.2,52.3-176.1,88c-61.3-48.1-134.6-148.6-48.4-328.2
	c5.5-11.3,15.9-12.6,20.2-12.4c3.4,0,15,1.1,20.6,13.3C1593.3,1188.7,1652.9,1288.5,1740.8,1348.7z"/>
<path class="st2" d="M1541.7,1106.8c37.2,81.2,97.6,182.8,186,246.8c4.4-1.7,8.7-3.4,13.1-5c-87.9-60.2-147.5-160-183.7-239.2
	c-5.6-12.2-17.2-13.3-20.6-13.3c-1,0-2.4,0-3.9,0.2C1536,1098.5,1539.3,1101.7,1541.7,1106.8z"/>
<path class="st4" d="M1536.3,1102.6c0.5-2.4,1.2-4.5,2.1-6.4c-0.8-0.1-1.5-0.1-2-0.1c-4.3-0.2-14.7,1.1-20.2,12.4
	c-86.2,179.6-12.9,280.1,48.4,328.2c16.9-11.2,34.4-21.7,52.2-31.7C1556.2,1354.5,1506.1,1264,1536.3,1102.6z"/>
<path class="st2" d="M2575.2,1106.8c-37.2,81.2-97.6,182.8-186,246.8c-4.4-1.7-8.7-3.4-13.1-5c87.9-60.2,147.5-160,183.7-239.2
	c5.6-12.2,17.2-13.3,20.6-13.3c1,0,2.4,0,3.9,0.2C2580.9,1098.5,2577.5,1101.7,2575.2,1106.8z"/>
<path class="st4" d="M2580.6,1102.6c-0.5-2.4-1.2-4.5-2.1-6.4c0.8-0.1,1.5-0.1,2-0.1c4.3-0.2,14.7,1.1,20.2,12.4
	c86.2,179.6,12.9,280.1-48.4,328.2c-16.9-11.2-34.4-21.7-52.2-31.7C2560.7,1354.5,2610.7,1264,2580.6,1102.6z"/>
<path class="st1" d="M1303.4,1753.9c-9.3,25.2-16.8,51-22.3,77.1c-11.5,0.9-23.3,1.2-35.3,1.2c-105.8,0-159.7-29.5-162.7-40.6
	c0-0.1,0-0.2,0-0.2c3.1-11.4,57.1-41,162.7-41C1265.5,1750.4,1285,1751.6,1303.4,1753.9z"/>
<path class="st2" d="M1452.5,1527.1c-54.8,53.8-98.2,114.4-129,179.2c-0.7-0.1-1.4-0.2-2.1-0.3c-23.9-3.6-49.7-5.4-75.6-5.4
	c-57.3,0-116.9,8.9-158.4,27.7c9-53.1,35.3-128.1,110.3-174.7c13.9-8.7,29.4-16.3,46.8-22.7
	C1306.5,1508.2,1376.3,1506.9,1452.5,1527.1z"/>
<path class="st2" d="M2538.8,1487.8c20.8,14.5,40.5,29.8,59,45.8c0.8,0.7,1.6,1.5,2.4,2.1c69.1,60.3,121.7,131,155.2,207.6
	c16.3,37.3,28,75.8,34.9,115.3c4.9,27.9,7.4,56.2,7.4,84.8c0,14.3-0.6,28.7-1.9,42.9c-1.4-1.4-2.7-2.7-4-4
	c-3.4-3.4-6.8-6.7-10.2-9.8c-2.7-2.6-5.4-5.2-8.2-7.7c-9.3-8.6-18.9-17-28.8-25.2c-3.2-2.7-6.4-5.4-9.7-7.9
	c-7-5.7-14.2-11.3-21.6-16.8c-2.7-2.1-5.5-4.1-8.2-6.1c-3.4-2.6-6.8-5-10.2-7.4c-6.9-4.9-13.8-9.7-20.9-14.4
	c-3.6-2.4-7.1-4.7-10.7-7c-3.6-2.3-7.2-4.6-10.8-6.9c-5.9-3.7-11.8-7.4-17.9-10.9c-1.9-1.2-3.9-2.3-5.8-3.4c-3.4-2.1-6.9-4-10.4-6
	c-10.5-6-21.2-11.8-32-17.4c-13-6.7-26.1-13.1-39.5-19.3c-2.7-1.2-5.5-2.5-8.2-3.7c-8.6-3.9-17.3-7.7-26.2-11.3
	c-3.5-1.5-7-2.9-10.5-4.4c-4.7-1.9-9.3-3.7-14-5.5c-2.9-1.2-5.8-2.2-8.7-3.4c-19-7.2-38.4-13.9-58.2-20.1c-3.4-1.1-6.9-2.2-10.3-3.2
	c-4.4-1.4-8.8-2.7-13.2-3.9c-4.4-1.3-8.8-2.6-13.3-3.8c-4.3-1.2-8.6-2.4-13-3.5c-2.7-0.7-5.4-1.4-8.2-2.1c-3.6-0.9-7.2-1.9-10.9-2.7
	c-2.8-0.7-5.6-1.4-8.4-2.1c-4.1-1-8.2-1.9-12.3-2.9c-31.8-7.2-64.3-13.2-97.4-17.9c-2.8-0.4-5.6-0.8-8.5-1.2
	c-2.4-0.3-4.9-0.6-7.3-0.9c-4.7-0.6-9.5-1.2-14.3-1.7c-13-1.5-26.1-2.8-39.2-3.9c-3.7-0.3-7.3-0.6-11-0.9c-2.7-0.2-5.4-0.4-8-0.6
	c-3.7-0.2-7.5-0.5-11.3-0.7c-8-0.5-16.1-0.9-24.2-1.2c-3.6-0.1-7.3-0.2-10.9-0.4c-8.8-0.3-17.6-0.5-26.4-0.6
	c-4.9-0.1-9.8-0.1-14.8-0.1c-5,0-9.9,0-14.8,0.1c-8.8,0.1-17.6,0.3-26.4,0.6c-3.6,0.1-7.3,0.2-10.9,0.4c-8.1,0.3-16.2,0.7-24.2,1.2
	c-3.7,0.2-7.5,0.4-11.3,0.7c-2.7,0.2-5.4,0.4-8,0.6c-3.7,0.2-7.3,0.6-11,0.9c-13.1,1.1-26.3,2.4-39.2,3.9c-4.8,0.6-9.5,1.1-14.3,1.7
	c-2.4,0.3-4.9,0.6-7.3,0.9c-2.9,0.4-5.7,0.8-8.5,1.2c-33.1,4.7-65.5,10.7-97.4,17.9c-4.1,0.9-8.2,1.9-12.3,2.9
	c-2.8,0.7-5.6,1.4-8.4,2.1c-3.7,0.9-7.3,1.8-10.9,2.7c-2.7,0.7-5.5,1.4-8.2,2.1c-4.4,1.1-8.7,2.3-13,3.5c-4.5,1.2-8.9,2.5-13.3,3.8
	c-4.4,1.2-8.8,2.6-13.2,3.9c-3.4,1-6.9,2.1-10.3,3.2c-19.7,6.2-39.2,12.9-58.2,20.1c-2.9,1.1-5.9,2.2-8.7,3.4
	c-4.7,1.8-9.3,3.7-14,5.5c-3.5,1.4-7,2.9-10.5,4.4c-8.8,3.7-17.6,7.4-26.2,11.3c-2.7,1.2-5.5,2.5-8.2,3.7
	c-13.4,6.2-26.5,12.6-39.5,19.3c-10.8,5.6-21.5,11.4-32,17.4c-3.5,2-7,4-10.4,6c-1.9,1.1-3.9,2.2-5.8,3.4c-6,3.6-12,7.2-17.9,10.9
	c-3.6,2.2-7.2,4.5-10.8,6.9c-3.6,2.3-7.1,4.6-10.7,7c-7.1,4.7-14.1,9.5-20.9,14.4c-3.4,2.4-6.9,4.9-10.2,7.4c-2.7,2-5.5,4-8.2,6.1
	c-7.4,5.5-14.5,11.1-21.6,16.8c-3.2,2.6-6.5,5.2-9.7,7.9c-9.8,8.2-19.4,16.6-28.8,25.2c-2.7,2.5-5.5,5-8.2,7.7
	c-3.4,3.2-6.9,6.5-10.2,9.8c-1.4,1.3-2.7,2.6-4,4c-1.2-14.2-1.9-28.6-1.9-42.9c0-28.6,2.5-56.9,7.4-84.8
	c6.9-38.8,18.3-76.7,34.1-113.4c33.5-77.4,86.3-148.8,156-209.6c0.9-0.6,1.6-1.4,2.4-2.1c18.5-16,38.2-31.3,59-45.8
	c0.1,0,0.2-0.1,0.2-0.1c68.5-47.6,146.2-84.3,230.9-108.8c0.2-0.1,0.5-0.2,0.7-0.2c79.6-23.1,163.2-34.8,248.6-34.8
	c85.3,0,168.9,11.7,248.6,34.8c0.2,0.1,0.5,0.1,0.7,0.2c84.7,24.5,162.3,61.2,230.9,108.8
	C2538.7,1487.7,2538.8,1487.8,2538.8,1487.8z M2372.4,1644.9c0-36.8-29.7-66.5-66.5-66.5c-36.7,0-66.5,29.7-66.5,66.5
	c0,36.7,29.8,66.5,66.5,66.5C2342.7,1711.4,2372.4,1681.6,2372.4,1644.9z M1877.3,1644.9c0-36.8-29.8-66.5-66.5-66.5
	c-36.8,0-66.5,29.7-66.5,66.5c0,36.7,29.7,66.5,66.5,66.5C1847.5,1711.4,1877.3,1681.6,1877.3,1644.9z"/>
<path class="st1" d="M2058.4,1763.2c301.8,0,577,110.2,736,294.8c83.8,97.1,128.1,209.1,128.1,323.6c0,54.8-10.2,108.5-29.5,159.9
	c-66.7,177.7-242.5,328.4-484.9,405.5c-0.4,0.1-0.7,0.2-1.1,0.3l-1.4,0.5c-2.7,0.9-5.4,1.7-8.1,2.5c-0.7,0.2-1.4,0.4-2,0.7
	c-74.3,22.6-152.4,37.5-232.2,44.4c-34.7,3-69.9,4.5-104.8,4.5c-21.7,0-44.4-0.6-67.3-1.8c-93.3-5.2-184-21.1-269.6-47.1
	c-0.6-0.2-1.3-0.4-2-0.7c-3.2-0.9-6.4-1.9-9.8-3.1c-242.8-76.9-419.1-227.8-485.8-405.7c-19.4-51.5-29.5-105.1-29.5-159.9
	c0-114.4,44.2-226.1,127.6-323.2c0.2-0.1,0.3-0.2,0.4-0.4c10-11.5,20.3-22.8,31.1-33.8c5.4-5.4,10.9-10.8,16.6-16.2
	c2.8-2.6,5.6-5.3,8.5-7.9c5.7-5.2,11.6-10.4,17.5-15.5c23.7-20.4,49.1-39.5,75.9-57.3c3.4-2.2,6.7-4.4,10.2-6.6
	c10.2-6.5,20.6-12.9,31.1-19.1c7-4.1,14.1-8.2,21.4-12.1c14.5-7.9,29.2-15.4,44.3-22.7C1718.3,1800,1883.9,1763.2,2058.4,1763.2z
	 M2650.5,2349.5c32.3-22.5,30.9-80.2-3.1-128.8c-33.9-48.7-87.6-69.9-119.9-47.4c-32.3,22.5-30.9,80.2,3.1,128.8
	C2564.6,2350.9,2618.3,2372,2650.5,2349.5z M1586.1,2302.1c34-48.7,35.3-106.3,3.1-128.8c-32.3-22.5-86-1.2-119.9,47.4
	c-34,48.7-35.3,106.3-3.1,128.8C1498.6,2372,1552.3,2350.9,1586.1,2302.1z"/>
<path class="st5" d="M2794.4,2057.9c-33.3-38.6-71.7-74-114.3-105.7c62.9,87.1,96,184.1,96,283c0,54.8-10.2,108.5-29.5,159.9
	c-66.7,177.7-242.5,328.4-484.9,405.5c-0.4,0.1-0.7,0.2-1.1,0.3l-1.4,0.5c-2.7,0.9-5.4,1.7-8.1,2.5c-0.7,0.2-1.4,0.4-2,0.7
	c-74.3,22.6-152.4,37.5-232.2,44.4c-34.7,3-69.9,4.5-104.8,4.5c-21.7,0-44.4-0.6-67.3-1.8c-93.3-5.2-184-21.1-269.6-47.1
	c-0.6-0.2-1.3-0.4-2-0.7c-3.2-0.9-6.4-1.9-9.8-3.1c-104.5-33.1-196.6-79.9-273-136.7c88.8,123.4,234.8,224.6,419.4,283.1
	c3.4,1.1,6.6,2.2,9.8,3.1c0.7,0.2,1.4,0.4,2,0.7c85.7,26,176.3,41.9,269.6,47.1c22.9,1.2,45.6,1.8,67.3,1.8
	c34.9,0,70.1-1.6,104.8-4.5c79.8-6.9,157.9-21.7,232.2-44.4c0.6-0.2,1.3-0.4,2-0.7c2.7-0.7,5.4-1.6,8.1-2.5l1.4-0.5
	c0.4-0.1,0.7-0.2,1.1-0.3c242.4-77.1,418.2-227.8,484.9-405.5c19.4-51.4,29.5-105.1,29.5-159.9
	C2922.5,2267,2878.2,2155.1,2794.4,2057.9z"/>
<path class="st6" d="M2889.4,1484c197.7,72.1,194.9,286.4,194.1,307.3c0-27.5-21.4-48.3-54-63c-10.7-62.9-45.7-156.7-157.2-197.4
	c-62-22.7-131.8-23.9-208-3.7c-13.7-13.5-28.2-26.6-43.2-39.2C2717.9,1456.6,2810.4,1455.2,2889.4,1484z"/>
<path class="st6" d="M3083.5,1791.3c0,1-0.1,1.5-0.1,1.6c-0.8,13.2-11.8,23.3-24.8,23.3c-0.6,0-1.1,0-1.7-0.1
	c-13.1-0.8-23.3-11.8-23.3-24.9c0.1-0.1,0.1-0.1,0.1-0.2c0-0.1,0-0.1-0.1-0.1c0-0.4,0-0.9,0.1-1.3c0.2-2.7,1.4-27.6-4.2-61.4
	C3062.1,1743,3083.5,1763.8,3083.5,1791.3z"/>
<path class="st6" d="M3058.6,1816.2c13,0,24-10.1,24.8-23.3c-1.9,61.2-111,89.1-212.4,89.1c-9,0-18.1-0.2-26.9-0.7
	c-2-16.9-4.7-33.8-8.3-50.4c11.5,0.9,23.3,1.2,35.3,1.2c105.7,0,159.5-29.5,162.7-40.9c0,13,10.2,24,23.3,24.9
	C3057.5,1816.2,3058.1,1816.2,3058.6,1816.2z"/>
<path class="st6" d="M3029.5,1728.3c5.7,33.8,4.4,58.7,4.2,61.4c-0.1,0.4-0.1,0.9-0.1,1.3c-3.1-11-57.1-40.6-162.7-40.6
	c-19.7,0-39.2,1.1-57.6,3.4c-6-16.1-12.6-32-20.1-47.6c24.5-3.7,51-5.7,77.7-5.7C2928.3,1700.6,2988,1709.5,3029.5,1728.3z"/>
<path class="st7" d="M3033.7,1791c0.1,0.1,0.1,0.1,0.1,0.1c0,0.1,0,0.1-0.1,0.2C3033.7,1791.2,3033.7,1791.1,3033.7,1791z"/>
<path class="st6" d="M2892.9,2541.5c19.4-51.4,29.5-105.1,29.5-159.9c0-114.6-44.3-226.5-128.1-323.6c4.8,5.5,11.7,8.6,18.9,8.6
	c2.1,0,4.3-0.2,6.4-0.8c9.2-2.4,16.2-9.9,18.1-19.3c0.7-3.9,1.5-7.8,2.2-11.8c86.7,104.2,132.4,223.9,132.4,347
	c0,54.8-9.1,108.4-26.5,160c-5-4.2-10.2-8.2-15.5-11.8c-11.4-7.7-26.9-4.7-34.6,6.8c-1.1,1.6-1.9,3.2-2.6,5L2892.9,2541.5z"/>
<path class="st6" d="M1214.4,2571.1c9.8-6.6,13.5-19,9.4-29.6l0.1-0.1c66.7,177.9,243,328.8,485.8,405.7c3.4,1.1,6.6,2.2,9.8,3.1
	c0.7,0.2,1.4,0.4,2,0.7c85.7,26,176.3,41.9,269.6,47.1c22.9,1.2,45.6,1.8,67.3,1.8c34.9,0,70.1-1.6,104.8-4.5
	c79.8-6.9,157.9-21.7,232.2-44.4c0.6-0.2,1.3-0.4,2-0.7c2.7-0.7,5.4-1.6,8.1-2.5l1.4-0.5c0.4-0.1,0.7-0.2,1.1-0.3
	c242.4-77.1,418.2-227.8,484.9-405.5l0.1,0.1c-4,10.6-0.4,23,9.4,29.6c7.7,5.2,14.8,11.4,21.1,18.4c0.7,0.9,1.5,1.7,2.2,2.6
	c-80.4,177.5-260.8,325.6-503.6,402.6c-0.2,0.1-0.5,0.1-0.7,0.2l-0.6,0.2c-2.6,0.9-5.3,1.7-7.9,2.5c-0.5,0.2-1,0.4-1.5,0.5
	c-78.1,23.9-160.2,39.6-244.1,46.8c-36.1,3.1-72.8,4.7-109.1,4.7c-22.6,0-46.2-0.6-70-1.9c-98-5.5-193.2-22.2-283.1-49.7
	c-0.5-0.1-1-0.3-1.5-0.5c-3.1-0.9-6.2-1.9-9.3-2.9c-242.6-76.9-423-225-503.4-402.5c0.7-0.9,1.4-1.7,2.2-2.6
	C1199.5,2582.5,1206.7,2576.3,1214.4,2571.1z"/>
<path class="st6" d="M2835.7,1831c3.6,16.6,6.4,33.5,8.3,50.4c-10.8-0.5-21.6-1.3-32-2.5c-11.2-1.2-19.7-9.7-21.7-20.2
	c-0.5-2.4-0.6-4.8-0.3-7.4c1.6-13.6,13.9-23.5,27.6-21.9C2823.7,1830.1,2829.6,1830.6,2835.7,1831z"/>
<path class="st6" d="M2832.1,2025.4c-12.7-14.8-26.2-29.1-40.2-43c1.4,1.3,2.7,2.6,4,4c1.2-14.2,1.9-28.6,1.9-42.9
	c0-28.6-2.5-56.9-7.4-84.8h0.1c1.9,10.5,10.5,19,21.7,20.2c10.4,1.2,21.1,2,32,2.5c2.4,20.5,3.6,41.2,3.6,62
	c0,30.7-2.6,61.3-7.7,91.1C2837.4,2031.5,2834.7,2028.4,2832.1,2025.4z"/>
<path class="st6" d="M2793.3,1706.3c7.5,15.6,14.1,31.5,20.1,47.6c-10.3,1.2-20.4,2.7-29.8,4.7c-12,2.4-23.7-4.2-28.1-15.3
	c-0.5-1.4-0.9-2.8-1.2-4.3c-2.7-13.5,6-26.6,19.6-29.3C2780.2,1708.4,2786.7,1707.3,2793.3,1706.3z"/>
<path class="st6" d="M2790.4,1858.7c-6.9-39.5-18.7-78.1-34.9-115.3l0.1-0.1c4.4,11,16.1,17.6,28.1,15.3c9.5-1.9,19.5-3.5,29.8-4.7
	c9.3,25.2,16.8,51,22.3,77.1c-6.1-0.4-12.1-0.9-18-1.6c-13.7-1.6-26,8.3-27.6,21.9C2789.9,1853.9,2790,1856.3,2790.4,1858.7
	L2790.4,1858.7z"/>
<path class="st7" d="M2781.7,1972.5c-2.7-2.6-5.4-5.1-8.2-7.7C2776.3,1967.4,2779,1969.9,2781.7,1972.5z"/>
<path class="st6" d="M2755.4,1743.3c-33.5-76.6-86.1-147.3-155.2-207.6c6.5,5,15.3,6.8,23.6,3.9c13.6-4.8,27.2-9,40.4-12.5
	c54.8,53.8,98.2,114.4,129,179.2c-6.7,1-13.1,2.1-19.5,3.4c-13.5,2.7-22.2,15.8-19.6,29.3C2754.6,1740.5,2755,1741.9,2755.4,1743.3
	L2755.4,1743.3z"/>
<path class="st7" d="M2744.7,1939.7c-3.2-2.7-6.4-5.3-9.7-7.9C2738.3,1934.3,2741.6,1937,2744.7,1939.7z"/>
<path class="st7" d="M2713.5,1915c-2.7-2.1-5.5-4.1-8.2-6.1C2708,1910.9,2710.8,1912.9,2713.5,1915z"/>
<path class="st7" d="M2705.3,1908.9c-3.4-2.5-6.8-5-10.2-7.4C2698.5,1903.9,2701.9,1906.3,2705.3,1908.9z"/>
<path class="st7" d="M2674.1,1887.1c-3.5-2.4-7-4.7-10.7-7C2667,1882.3,2670.6,1884.6,2674.1,1887.1z"/>
<path class="st7" d="M2663.5,1880c-3.6-2.3-7.2-4.6-10.8-6.9C2656.3,1875.4,2659.9,1877.7,2663.5,1880z"/>
<path class="st6" d="M2647.5,2220.7c34,48.7,35.3,106.3,3.1,128.8c-32.3,22.5-86,1.3-119.9-47.4c-34-48.7-35.3-106.3-3.1-128.8
	C2559.9,2150.8,2613.6,2172.1,2647.5,2220.7z"/>
<path class="st6" d="M2645.4,1086.9c97.9,203.8,13,323.9-51.2,379.6c-8.8-6.7-17.9-13.3-27.2-19.7c-4.9-3.4-9.9-6.8-14.9-10
	c61.3-48.1,134.6-148.6,48.4-328.2c-5.5-11.3-16.1-12.5-20.2-12.4c-3.4,0-15,1.1-20.6,13.3c-36.3,79.2-95.8,179-183.7,239.2
	c-17.9-6.5-36.2-12.5-54.8-17.8c-3-0.9-6-1.7-9-2.6c98-47.4,163.8-155.8,202.2-239.6c11.8-25.9,36.9-42.1,65.5-42.4
	C2608.4,1046.1,2633.3,1061.6,2645.4,1086.9z"/>
<path class="st7" d="M2652.7,1873.2c-5.9-3.7-11.8-7.4-17.9-10.9C2640.9,1865.8,2646.9,1869.4,2652.7,1873.2z"/>
<path class="st7" d="M2634.8,1862.3c-1.9-1.2-3.9-2.3-5.8-3.4C2631,1860,2632.9,1861.1,2634.8,1862.3z"/>
<path class="st6" d="M2664.3,1527.1c-13.3,3.5-26.8,7.7-40.4,12.5c-8.3,2.9-17.1,1.2-23.6-3.9c-0.8-0.7-1.6-1.4-2.4-2.1
	c-2.5-2.6-4.5-5.7-5.7-9.2c-4.5-13,2.2-27.2,15.3-31.8c4.6-1.6,9.2-3.2,13.7-4.6C2636.1,1500.5,2650.6,1513.6,2664.3,1527.1z"/>
<path class="st7" d="M2597.8,1533.6c0.8,0.7,1.6,1.4,2.4,2.1C2599.4,1535.1,2598.6,1534.3,2597.8,1533.6z"/>
<path class="st7" d="M2586.6,1835.4c10.8,5.6,21.5,11.4,32,17.4C2608.1,1846.9,2597.5,1841.1,2586.6,1835.4z"/>
<path class="st6" d="M2567.1,1446.7c9.3,6.4,18.3,13,27.2,19.7c-9.8,8.5-19.2,15.6-27.3,21.2c-4.3,3-9.2,4.4-14.1,4.4
	c-4.9,0-9.8-1.4-14-4.3c-2.5-1.7-4.7-3.9-6.5-6.5c-7.8-11.3-5-26.9,6.4-34.6c4.4-3.1,8.9-6.4,13.5-10
	C2557.2,1440,2562.1,1443.3,2567.1,1446.7z"/>
<path class="st6" d="M2552.9,1492.1c4.9,0,9.8-1.4,14.1-4.4c8.1-5.6,17.4-12.6,27.3-21.2c9.2,7,18.1,14.1,26.9,21.4
	c-4.5,1.4-9.1,3-13.7,4.6c-13,4.6-19.8,18.8-15.3,31.8c1.2,3.6,3.2,6.7,5.7,9.2c-18.5-16-38.2-31.3-59-45.8
	C2543,1490.7,2547.9,1492.1,2552.9,1492.1z"/>
<path class="st7" d="M2547.1,1816.1c-2.7-1.2-5.5-2.5-8.2-3.7C2541.6,1813.6,2544.4,1814.9,2547.1,1816.1z"/>
<path class="st7" d="M2512.7,1801c-3.5-1.5-7-2.9-10.5-4.4C2505.7,1798.1,2509.3,1799.5,2512.7,1801z"/>
<path class="st7" d="M2488.2,1791.1c-2.9-1.2-5.8-2.2-8.7-3.4C2482.4,1788.9,2485.3,1789.9,2488.2,1791.1z"/>
<path class="st7" d="M2421.3,1767.6c-3.4-1.1-6.9-2.1-10.3-3.2C2414.4,1765.5,2417.9,1766.6,2421.3,1767.6z"/>
<path class="st7" d="M2411,1764.5c-4.4-1.4-8.8-2.7-13.2-3.9C2402.2,1761.8,2406.6,1763.1,2411,1764.5z"/>
<path class="st7" d="M2397.8,1760.5c-4.4-1.3-8.8-2.6-13.3-3.8C2389,1758,2393.4,1759.2,2397.8,1760.5z"/>
<path class="st7" d="M2384.5,1756.7c-4.3-1.2-8.6-2.4-13-3.5C2375.9,1754.4,2380.2,1755.6,2384.5,1756.7z"/>
<path class="st7" d="M2363.4,1751.1c-3.6-0.9-7.2-1.9-10.9-2.7C2356.1,1749.3,2359.7,1750.2,2363.4,1751.1z"/>
<path class="st6" d="M2336.4,1629.8c7.2,0,13.1-5.9,13.1-13c0-7.2-5.9-13.1-13.1-13.1c-7.2,0-13,5.9-13,13.1
	C2323.4,1624,2329.3,1629.8,2336.4,1629.8z M2306,1578.4c36.8,0,66.5,29.7,66.5,66.5c0,36.7-29.7,66.5-66.5,66.5
	c-36.7,0-66.5-29.8-66.5-66.5C2239.5,1608.2,2269.3,1578.4,2306,1578.4z"/>
<path class="st2" d="M2349.5,1616.8c0,7.2-5.9,13-13.1,13c-7.2,0-13-5.9-13-13c0-7.2,5.9-13.1,13-13.1
	C2343.7,1603.7,2349.5,1609.6,2349.5,1616.8z"/>
<path class="st6" d="M2376.1,1348.7c-16.3,11.1-33.5,20.9-51.6,28.9c-5.5,2.4-11.3,2.7-16.7,1.2c-0.2-0.1-0.5-0.2-0.7-0.2
	c-6.7-2.1-12.4-6.9-15.4-13.8c-5.5-12.6,0.2-27.3,12.8-32.8c2.7-1.2,5.4-2.4,8-3.7c3,0.8,6,1.7,9,2.6
	C2339.9,1336.2,2358.1,1342.2,2376.1,1348.7z"/>
<path class="st7" d="M2344,1746.3c-4-1-8.2-1.9-12.3-2.9C2335.8,1744.4,2339.9,1745.3,2344,1746.3z"/>
<path class="st6" d="M2538.6,1487.7c-68.5-47.6-146.2-84.3-230.9-108.8c5.4,1.4,11.2,1.2,16.7-1.2c18.2-8,35.4-17.8,51.6-28.9
	c63.2,22.8,122.1,52.3,176.1,88c-4.6,3.6-9.1,6.9-13.5,10c-11.3,7.8-14.1,23.3-6.4,34.6c1.8,2.6,4,4.8,6.5,6.5
	C2538.8,1487.8,2538.7,1487.7,2538.6,1487.7z"/>
<path class="st6" d="M2307,1378.6c-79.6-23.1-163.2-34.8-248.6-34.8c-85.3,0-168.9,11.7-248.6,34.8c6.7-2.1,12.4-6.9,15.4-13.8
	c5.5-12.6-0.2-27.3-12.8-32.8c-2.7-1.2-5.4-2.4-8-3.7c81.5-22.8,166.9-34.4,253.9-34.4c87,0,172.4,11.6,253.9,34.4
	c-2.6,1.2-5.3,2.5-8,3.7c-12.6,5.5-18.3,20.2-12.8,32.8C2294.6,1371.7,2300.3,1376.5,2307,1378.6z"/>
<path class="st7" d="M2234.3,1725.6c-2.8-0.4-5.6-0.8-8.5-1.2C2228.7,1724.8,2231.5,1725.2,2234.3,1725.6z"/>
<path class="st7" d="M2218.6,1723.5c-4.7-0.6-9.5-1.2-14.3-1.7C2209.1,1722.3,2213.8,1722.8,2218.6,1723.5z"/>
<path class="st7" d="M2165.1,1717.8c-3.6-0.3-7.3-0.6-11-0.9C2157.8,1717.2,2161.4,1717.5,2165.1,1717.8z"/>
<path class="st7" d="M2146.1,1716.3c-3.7-0.2-7.5-0.5-11.3-0.7C2138.5,1715.8,2142.3,1716.1,2146.1,1716.3z"/>
<path class="st7" d="M2110.6,1714.4c-3.6-0.1-7.2-0.2-10.9-0.4C2103.3,1714.1,2106.9,1714.2,2110.6,1714.4z"/>
<path class="st7" d="M2073.2,1713.4c8.8,0.1,17.6,0.3,26.4,0.6C2090.9,1713.7,2082.1,1713.5,2073.2,1713.4z"/>
<path class="st6" d="M2058.4,1713.3c5,0,9.9,0,14.8,0.1c8.8,0.1,17.6,0.3,26.4,0.6c3.7,0.1,7.3,0.2,10.9,0.4
	c8.1,0.3,16.2,0.7,24.2,1.2c3.7,0.2,7.5,0.4,11.3,0.7c2.7,0.2,5.4,0.4,8,0.6c3.7,0.2,7.4,0.6,11,0.9c13.1,1.1,26.3,2.4,39.2,3.9
	c4.7,0.6,9.5,1.1,14.3,1.7c2.4,0.3,4.9,0.6,7.3,0.9c2.9,0.4,5.7,0.8,8.5,1.2c33.1,4.7,65.5,10.7,97.4,17.9c4.2,0.9,8.3,1.9,12.3,2.9
	c2.8,0.7,5.6,1.4,8.4,2.1c3.7,0.9,7.3,1.8,10.9,2.7c2.7,0.7,5.5,1.4,8.2,2.1c4.4,1.1,8.7,2.3,13,3.5c4.5,1.2,8.9,2.5,13.3,3.8
	c4.4,1.2,8.8,2.6,13.2,3.9c3.4,1.1,6.9,2.1,10.3,3.2c19.7,6.2,39.2,12.9,58.2,20.1c2.9,1.1,5.9,2.2,8.7,3.4c4.7,1.8,9.3,3.7,14,5.5
	c3.6,1.4,7,2.9,10.5,4.4c8.8,3.7,17.6,7.4,26.2,11.3c2.7,1.2,5.5,2.5,8.2,3.7c13.4,6.2,26.5,12.6,39.5,19.3
	c10.8,5.7,21.5,11.5,32,17.4c3.5,2,7,4,10.4,6c1.9,1.1,3.9,2.2,5.8,3.4c6,3.6,12,7.2,17.9,10.9c3.6,2.2,7.2,4.5,10.8,6.9
	c3.6,2.3,7.2,4.7,10.7,7c7.1,4.7,14.1,9.5,20.9,14.4c3.4,2.4,6.9,4.9,10.2,7.4c2.7,2,5.5,4,8.2,6.1c7.4,5.5,14.5,11.1,21.6,16.8
	c3.2,2.6,6.5,5.2,9.7,7.9c9.8,8.2,19.4,16.6,28.8,25.2c2.7,2.6,5.5,5.1,8.2,7.7c3.4,3.2,6.9,6.5,10.2,9.8
	c14.1,13.9,27.5,28.2,40.2,43c2.6,3.1,5.2,6.1,7.8,9.2c-0.7,4-1.4,7.9-2.2,11.8c-1.9,9.4-8.8,16.9-18.1,19.3
	c-2.1,0.6-4.3,0.8-6.4,0.8c-7.2,0-14.1-3.1-18.9-8.6c-159-184.6-434.1-294.8-736-294.8c-174.5,0-340.1,36.8-479.4,103.6
	c-15.1,7.2-29.8,14.8-44.3,22.7c-7.2,3.9-14.3,8-21.4,12.1c-10.6,6.2-21,12.5-31.1,19.1c-3.4,2.2-6.8,4.4-10.2,6.6
	c-26.8,17.8-52.1,36.9-75.9,57.3c-5.9,5-11.8,10.2-17.5,15.5c-2.9,2.6-5.7,5.3-8.5,7.9c-5.7,5.3-11.2,10.7-16.6,16.2
	c-10.8,11-21.2,22.2-31.1,33.8c-0.1,0.2-0.2,0.3-0.4,0.4c-6.2,6.9-15.8,9.7-24.9,7.4c-9.2-2.4-16.2-9.9-18.1-19.3
	c-0.7-3.9-1.5-7.8-2.2-11.8c2.6-3.1,5.2-6.2,7.8-9.2c12.7-14.8,26.2-29.1,40.2-43c3.4-3.4,6.8-6.7,10.2-9.8c2.7-2.6,5.4-5.1,8.2-7.7
	c9.3-8.6,18.9-17,28.8-25.2c3.2-2.7,6.4-5.3,9.7-7.9c7-5.7,14.2-11.3,21.6-16.8c2.7-2.1,5.5-4.1,8.2-6.1c3.4-2.5,6.8-5,10.2-7.4
	c6.9-4.9,13.8-9.7,20.9-14.4c3.5-2.4,7-4.7,10.7-7c3.6-2.3,7.2-4.6,10.8-6.9c5.9-3.7,11.8-7.4,17.9-10.9c1.9-1.2,3.9-2.3,5.8-3.4
	c3.4-2.1,6.9-4,10.4-6c10.5-5.9,21.2-11.7,32-17.4c13-6.7,26.1-13.1,39.5-19.3c2.7-1.2,5.5-2.5,8.2-3.7c8.6-3.9,17.3-7.7,26.2-11.3
	c3.5-1.5,7-2.9,10.5-4.4c4.7-1.9,9.3-3.7,14-5.5c2.9-1.2,5.8-2.2,8.7-3.4c19-7.2,38.4-13.9,58.2-20.1c3.4-1.1,6.9-2.1,10.3-3.2
	c4.4-1.4,8.8-2.7,13.2-3.9c4.4-1.3,8.8-2.6,13.3-3.8c4.3-1.2,8.6-2.4,13-3.5c2.7-0.7,5.4-1.4,8.2-2.1c3.6-0.9,7.2-1.9,10.9-2.7
	c2.8-0.7,5.6-1.4,8.4-2.1c4-1,8.2-1.9,12.3-2.9c31.8-7.2,64.3-13.2,97.4-17.9c2.8-0.4,5.6-0.8,8.5-1.2c2.4-0.3,4.9-0.6,7.3-0.9
	c4.7-0.6,9.5-1.2,14.3-1.7c13-1.5,26.1-2.8,39.2-3.9c3.6-0.3,7.3-0.6,11-0.9c2.7-0.2,5.4-0.4,8-0.6c3.7-0.2,7.5-0.5,11.3-0.7
	c8-0.5,16.1-0.9,24.2-1.2c3.6-0.1,7.2-0.2,10.9-0.4c8.8-0.3,17.6-0.5,26.4-0.6C2048.5,1713.3,2053.4,1713.3,2058.4,1713.3z"/>
<path class="st7" d="M2043.6,1713.4c-8.8,0.1-17.6,0.3-26.4,0.6C2026,1713.7,2034.8,1713.5,2043.6,1713.4z"/>
<path class="st7" d="M2017.2,1714c-3.7,0.1-7.3,0.2-10.9,0.4C2009.9,1714.2,2013.6,1714.1,2017.2,1714z"/>
<path class="st7" d="M1982,1715.6c-3.7,0.2-7.5,0.4-11.3,0.7C1974.5,1716.1,1978.3,1715.8,1982,1715.6z"/>
<path class="st7" d="M1962.7,1716.9c-3.7,0.2-7.4,0.6-11,0.9C1955.4,1717.5,1959.1,1717.2,1962.7,1716.9z"/>
<path class="st7" d="M1912.5,1721.7c-4.7,0.6-9.5,1.1-14.3,1.7C1903,1722.8,1907.7,1722.3,1912.5,1721.7z"/>
<path class="st7" d="M1891,1724.4c-2.9,0.4-5.7,0.8-8.5,1.2C1885.3,1725.2,1888.1,1724.8,1891,1724.4z"/>
<path class="st6" d="M1812.5,1332c12.6,5.5,18.3,20.2,12.8,32.8c-3.1,6.9-8.8,11.7-15.4,13.8c-0.2,0.1-0.5,0.1-0.7,0.2
	c-5.4,1.4-11.2,1.2-16.7-1.2c-18.2-8-35.4-17.8-51.6-28.9c17.9-6.5,36.2-12.5,54.8-17.8c3-0.9,6-1.7,9-2.6
	C1807.2,1329.6,1809.9,1330.8,1812.5,1332z"/>
<path class="st6" d="M1804.6,1328.3c-3,0.8-6,1.7-9,2.6c-18.6,5.4-36.8,11.3-54.8,17.8c-87.9-60.2-147.5-160-183.7-239.2
	c-5.6-12.2-17.2-13.3-20.6-13.3c-4.3-0.2-14.7,1.1-20.2,12.4c-86.2,179.6-12.9,280.1,48.4,328.2c-5,3.2-9.9,6.5-14.8,10
	c-9.3,6.5-18.4,13.1-27.3,19.8c-64.2-55.8-149-175.8-51.2-379.6c12.1-25.1,36.9-40.6,64.9-40.6c0.2,0,0.5,0,0.7,0
	c28.5,0.3,53.6,16.6,65.5,42.4C1640.7,1172.5,1706.6,1280.9,1804.6,1328.3z"/>
<path class="st2" d="M1780.4,1603.7c7.2,0,13,5.9,13,13.1c0,7.2-5.9,13-13,13c-7.2,0-13.1-5.9-13.1-13
	C1767.3,1609.6,1773.2,1603.7,1780.4,1603.7z"/>
<path class="st7" d="M1785.1,1743.5c-4.2,0.9-8.3,1.9-12.3,2.9C1776.9,1745.3,1781,1744.4,1785.1,1743.5z"/>
<path class="st6" d="M1780.4,1603.7c-7.2,0-13.1,5.9-13.1,13.1c0,7.2,5.9,13,13.1,13c7.2,0,13-5.9,13-13
	C1793.4,1609.6,1787.5,1603.7,1780.4,1603.7z M1744.4,1644.9c0-36.8,29.7-66.5,66.5-66.5c36.7,0,66.5,29.7,66.5,66.5
	c0,36.7-29.8,66.5-66.5,66.5C1774.1,1711.4,1744.4,1681.6,1744.4,1644.9z"/>
<path class="st7" d="M1764.4,1748.4c-3.7,0.9-7.3,1.8-10.9,2.7C1757.1,1750.2,1760.7,1749.3,1764.4,1748.4z"/>
<path class="st7" d="M1745.3,1753.2c-4.4,1.1-8.7,2.3-13,3.5C1736.7,1755.6,1741,1754.4,1745.3,1753.2z"/>
<path class="st7" d="M1732.4,1756.7c-4.5,1.2-8.9,2.5-13.3,3.8C1723.4,1759.2,1727.9,1758,1732.4,1756.7z"/>
<path class="st7" d="M1719,1760.5c-4.4,1.2-8.8,2.6-13.2,3.9C1710.2,1763.1,1714.6,1761.8,1719,1760.5z"/>
<path class="st7" d="M1705.8,1764.5c-3.4,1.1-6.9,2.1-10.3,3.2C1699,1766.6,1702.4,1765.5,1705.8,1764.5z"/>
<path class="st7" d="M1637.4,1787.8c-2.9,1.1-5.9,2.2-8.7,3.4C1631.5,1789.9,1634.4,1788.9,1637.4,1787.8z"/>
<path class="st7" d="M1614.6,1796.7c-3.6,1.4-7,2.9-10.5,4.4C1607.6,1799.5,1611.1,1798.1,1614.6,1796.7z"/>
<path class="st6" d="M1589.2,2173.3c32.3,22.5,30.9,80.2-3.1,128.8c-33.9,48.7-87.6,69.9-119.9,47.4c-32.3-22.5-30.9-80.2,3.1-128.8
	C1503.2,2172.1,1556.9,2150.8,1589.2,2173.3z"/>
<path class="st6" d="M1578.2,1446.7c11.3,7.8,14.1,23.3,6.4,34.6c-1.8,2.6-4,4.8-6.5,6.5c-4.2,2.9-9.1,4.3-14,4.3
	c-4.9,0-9.8-1.4-14.1-4.4c-8.2-5.6-17.5-12.6-27.3-21.2c8.9-6.7,18-13.3,27.3-19.8c4.9-3.4,9.8-6.7,14.8-10
	C1569.3,1440.3,1573.7,1443.6,1578.2,1446.7z"/>
<path class="st6" d="M1809.1,1378.8c-84.7,24.5-162.3,61.2-230.9,108.8c-0.1,0.1-0.2,0.1-0.2,0.1c2.5-1.7,4.7-3.9,6.5-6.5
	c7.8-11.3,5-26.9-6.4-34.6c-4.4-3.1-8.9-6.4-13.5-10c53.9-35.8,112.9-65.2,176.1-88c16.3,11.2,33.5,20.9,51.6,28.9
	C1797.9,1380,1803.7,1380.3,1809.1,1378.8z"/>
<path class="st7" d="M1577.9,1812.4c-2.7,1.2-5.5,2.5-8.2,3.7C1572.4,1814.9,1575.2,1813.6,1577.9,1812.4z"/>
<path class="st7" d="M1534.7,1889.4c14.5-7.9,29.2-15.5,44.3-22.7C1563.9,1874,1549.1,1881.5,1534.7,1889.4z"/>
<path class="st6" d="M1564,1492.1c4.9,0,9.8-1.4,14-4.3c-20.8,14.5-40.5,29.8-59,45.8c2.5-2.6,4.5-5.7,5.7-9.2
	c4.5-13-2.2-27.2-15.3-31.8c-4.6-1.6-9.2-3.2-13.7-4.6c8.7-7.4,17.6-14.5,26.8-21.4c9.8,8.5,19.2,15.6,27.3,21.2
	C1554.2,1490.7,1559.1,1492.1,1564,1492.1z"/>
<path class="st6" d="M1509.5,1492.5c13,4.6,19.8,18.8,15.3,31.8c-1.2,3.6-3.2,6.7-5.7,9.2c-0.8,0.7-1.6,1.4-2.4,2.1
	c-6.5,5-15.3,6.8-23.6,3.9c-13.6-4.8-27.2-9-40.4-12.5c13.7-13.5,28.1-26.6,43.2-39.2C1500.3,1489.4,1504.8,1490.9,1509.5,1492.5z"
	/>
<path class="st7" d="M1516.6,1535.7c0.8-0.7,1.6-1.4,2.4-2.1C1518.2,1534.3,1517.4,1535.1,1516.6,1535.7z"/>
<path class="st7" d="M1498.2,1852.8c10.5-6,21.2-11.8,32-17.4C1519.4,1841.1,1508.7,1846.9,1498.2,1852.8z"/>
<path class="st7" d="M1482.2,1920.6c10.2-6.6,20.6-13,31.1-19.1C1502.7,1907.7,1492.3,1914.1,1482.2,1920.6z"/>
<path class="st7" d="M1487.8,1858.8c-1.9,1.1-3.9,2.2-5.8,3.4C1483.9,1861.1,1485.8,1860,1487.8,1858.8z"/>
<path class="st7" d="M1482,1862.3c-6,3.6-12,7.2-17.9,10.9C1470,1869.4,1475.9,1865.8,1482,1862.3z"/>
<path class="st7" d="M1464.1,1873.2c-3.6,2.2-7.2,4.5-10.8,6.9C1456.9,1877.7,1460.5,1875.4,1464.1,1873.2z"/>
<path class="st6" d="M1495.8,1487.9c-15.1,12.6-29.5,25.7-43.2,39.2c-76.2-20.2-146-18.9-208,3.7
	c-111.4,40.7-146.5,134.5-157.1,197.4c-32.6,14.7-54.1,35.6-54.1,63c-0.8-20.6-3.7-235.1,194.1-307.3
	C1306.4,1455.2,1398.9,1456.6,1495.8,1487.9z"/>
<path class="st7" d="M1453.3,1880c-3.6,2.3-7.2,4.7-10.7,7C1446.2,1884.6,1449.8,1882.3,1453.3,1880z"/>
<path class="st7" d="M1421.7,1901.4c-3.4,2.4-6.9,4.9-10.2,7.4C1414.9,1906.3,1418.3,1903.9,1421.7,1901.4z"/>
<path class="st7" d="M1411.5,1908.9c-2.7,2-5.5,4-8.2,6.1C1406,1912.9,1408.8,1910.9,1411.5,1908.9z"/>
<path class="st7" d="M1396.1,1984.6c23.7-20.4,49.1-39.5,75.9-57.3C1445.2,1945.1,1419.9,1964.2,1396.1,1984.6z"/>
<path class="st7" d="M1378.6,2000.1c5.7-5.3,11.6-10.5,17.5-15.5C1390.2,1989.7,1384.4,1994.8,1378.6,2000.1z"/>
<path class="st7" d="M1381.8,1931.8c-3.2,2.6-6.5,5.2-9.7,7.9C1375.3,1937,1378.5,1934.3,1381.8,1931.8z"/>
<path class="st6" d="M1516.6,1535.7c-69.7,60.8-122.5,132.2-156,209.6l-0.1-0.1c0.9-1.9,1.7-4,2.1-6.2c2.7-13.5-6-26.6-19.6-29.3
	c-6.4-1.3-12.8-2.4-19.5-3.4c30.8-64.8,74.3-125.3,129-179.2c13.3,3.5,26.8,7.7,40.4,12.5
	C1501.2,1542.5,1510.1,1540.8,1516.6,1535.7z"/>
<path class="st6" d="M1343,1709.7c13.5,2.7,22.2,15.8,19.6,29.3c-0.4,2.2-1.2,4.3-2.1,6.2c-4.9,9.8-16,15.6-27.2,13.3
	c-9.5-1.9-19.5-3.5-29.8-4.7c6-16.1,12.6-32,20.1-47.6C1330.2,1707.3,1336.6,1708.4,1343,1709.7z"/>
<path class="st7" d="M1353.6,2024.2c5.4-5.5,10.9-10.9,16.6-16.2C1364.5,2013.3,1359,2018.8,1353.6,2024.2z"/>
<path class="st7" d="M1343.3,1964.9c-2.7,2.6-5.5,5.1-8.2,7.7C1337.8,1969.9,1340.6,1967.4,1343.3,1964.9z"/>
<path class="st6" d="M1360.6,1745.3c-15.8,36.6-27.3,74.6-34.1,113.4h-0.1c0.5-2.4,0.6-4.8,0.3-7.4c-1.6-13.6-13.9-23.5-27.6-21.9
	c-5.9,0.7-11.9,1.2-18,1.6c5.5-26.2,13-51.9,22.3-77.1c10.3,1.2,20.4,2.7,29.8,4.7c11.2,2.3,22.3-3.5,27.2-13.3L1360.6,1745.3z"/>
<path class="st6" d="M1326.7,1851.3c0.2,2.6,0.2,5-0.3,7.4c-1.9,10.5-10.5,19-21.7,20.2c-10.4,1.2-21.1,2-32,2.5
	c2-16.9,4.7-33.8,8.3-50.4c6.1-0.4,12.1-0.9,18-1.6C1312.8,1827.8,1325.1,1837.7,1326.7,1851.3z"/>
<path class="st6" d="M1326.4,1858.7c-4.9,27.9-7.4,56.2-7.4,84.8c0,14.3,0.6,28.7,1.9,42.9c1.4-1.4,2.7-2.7,4-4
	c-14.1,13.9-27.5,28.2-40.2,43c-2.6,3.1-5.2,6.1-7.8,9.2c-5.1-29.8-7.7-60.5-7.7-91.1c0-20.8,1.2-41.6,3.6-62
	c10.8-0.5,21.6-1.3,32-2.5C1315.8,1877.7,1324.4,1869.2,1326.4,1858.7L1326.4,1858.7z"/>
<path class="st6" d="M1281.1,1831c-3.6,16.6-6.4,33.5-8.3,50.4c-8.8,0.5-17.9,0.7-26.9,0.7c-101.4,0-210.6-27.9-212.4-89.1
	c0.8,13.2,11.8,23.3,24.8,23.3c0.6,0,1.1-0.1,1.6-0.1c13.1-0.8,23.1-11.6,23.4-24.5c2.9,11,56.8,40.6,162.7,40.6
	C1257.8,1832.2,1269.6,1831.9,1281.1,1831z"/>
<path class="st6" d="M1194.4,2381.6c0,54.8,10.2,108.5,29.5,159.9l-0.1,0.1c-0.7-1.7-1.6-3.4-2.6-5c-7.7-11.5-23.2-14.5-34.6-6.8
	c-5.4,3.6-10.5,7.6-15.5,11.9c-17.4-51.6-26.5-105.3-26.5-160.1c0-123.1,45.7-242.8,132.4-347c0.7,4,1.4,7.9,2.2,11.8
	c1.9,9.4,8.8,16.9,18.1,19.3c9.1,2.4,18.6-0.4,24.9-7.4C1238.5,2155.4,1194.4,2267.2,1194.4,2381.6z"/>
<path class="st6" d="M1245.8,1750.4c-105.5,0-159.6,29.6-162.7,41c0-0.6,0-1.1-0.1-1.7c-0.2-2.8-1.4-27.7,4.3-61.5
	c41.5-18.8,101.2-27.7,158.4-27.7c26.7,0,53.2,1.9,77.7,5.7c-7.5,15.6-14.1,31.5-20.1,47.6C1285,1751.6,1265.5,1750.4,1245.8,1750.4
	z"/>
<path class="st7" d="M1083.1,1791.6c0-0.1,0-0.1,0.1-0.1c0,0.1,0,0.2,0,0.2C1083.1,1791.6,1083.1,1791.6,1083.1,1791.6z"/>
<path class="st6" d="M1083.1,1789.8c0.1,0.6,0.1,1.1,0.1,1.7c-0.1,0.1-0.1,0.1-0.1,0.1c0,0.1,0,0.1,0.1,0.1
	c-0.2,12.9-10.3,23.7-23.4,24.5c-0.6,0-1.1,0.1-1.6,0.1c-13,0-24-10.1-24.8-23.3c0-0.1-0.1-0.6-0.1-1.6c0-27.5,21.4-48.3,54.1-63
	C1081.7,1762.1,1082.9,1786.9,1083.1,1789.8z"/>
<path class="st8" d="M1258.2,2575.7c-19.4-51.5-29.5-105.1-29.5-159.9c0-114.4,44.2-226.1,127.6-323.2c0.2-0.1,0.3-0.2,0.4-0.4
	c10-11.5,20.3-22.8,31.1-33.8c5.4-5.4,10.9-10.8,16.6-16.2c2.8-2.6,5.6-5.3,8.5-7.9c5.7-5.2,11.6-10.4,17.5-15.5
	c23.7-20.4,49.1-39.5,75.9-57.3c3.4-2.2,6.7-4.4,10.2-6.6c10.2-6.5,20.6-12.9,31.1-19.1c7-4.1,14.1-8.2,21.4-12.1
	c14.5-7.9,29.2-15.4,44.3-22.7c139.4-66.8,304.9-103.6,479.4-103.6c271.6,0,521.5,89.3,684.7,241.6
	c-161.1-173.2-427.6-275.9-719-275.9c-174.5,0-340.1,36.8-479.4,103.6c-15.1,7.2-29.8,14.8-44.3,22.7c-7.2,3.9-14.3,8-21.4,12.1
	c-10.6,6.2-21,12.6-31.1,19.1c-3.4,2.2-6.8,4.4-10.2,6.6c-26.8,17.8-52.1,36.9-75.9,57.3c-5.9,5.1-11.8,10.3-17.5,15.5
	c-2.9,2.6-5.7,5.3-8.5,7.9c-5.7,5.4-11.2,10.8-16.6,16.2c-10.8,11-21.2,22.2-31.1,33.8c-0.1,0.2-0.2,0.3-0.4,0.4
	c-83.5,97.1-127.6,208.8-127.6,323.2c0,54.8,10.2,108.5,29.5,159.9c29.6,78.9,80.8,152.5,149.7,216.7
	C1321.8,2702.5,1282.6,2641,1258.2,2575.7z"/>
<path class="st9" d="M1321.4,1706c-23.9-3.6-49.7-5.4-75.6-5.4c-57.3,0-116.9,8.9-158.4,27.7c9-53.1,35.3-128.1,110.3-174.7
	C1225.9,1609,1271.2,1666.9,1321.4,1706z"/>
<path class="st9" d="M2795.4,1706c23.9-3.6,49.7-5.4,75.6-5.4c57.3,0,116.9,8.9,158.4,27.7c-9-53.1-35.3-128.1-110.3-174.7
	C2890.9,1609,2845.7,1666.9,2795.4,1706z"/>
</svg>
