<?xml version="1.0" encoding="utf-8"?>
<!-- Generator: Adobe Illustrator 25.2.0, SVG Export Plug-In . SVG Version: 6.00 Build 0)  -->
<svg version="1.1"
	 id="svg2" inkscape:version="0.48.2 r9819" sodipodi:version="0.32" xmlns:cc="http://creativecommons.org/ns#" xmlns:dc="http://purl.org/dc/elements/1.1/" xmlns:inkscape="http://www.inkscape.org/namespaces/inkscape" xmlns:rdf="http://www.w3.org/1999/02/22-rdf-syntax-ns#" xmlns:sodipodi="http://sodipodi.sourceforge.net/DTD/sodipodi-0.dtd" xmlns:svg="http://www.w3.org/2000/svg"
	 xmlns="http://www.w3.org/2000/svg" xmlns:xlink="http://www.w3.org/1999/xlink" x="0px" y="0px" viewBox="0 0 4096 4096"
	 style="enable-background:new 0 0 4096 4096;" xml:space="preserve">
<style type="text/css">
	.st0{fill-rule:evenodd;clip-rule:evenodd;fill:#7807E5;}
	.st1{fill-rule:evenodd;clip-rule:evenodd;fill:#FFFFFF;}
	.st2{fill:none;stroke:#000000;stroke-width:100;}
</style>
<rect class="st0" width="4096" height="4096"/>
<defs>
	
		<inkscape:perspective  id="perspective10" inkscape:persp3d-origin="372.04724 : 350.78739 : 1" inkscape:vp_x="0 : 526.18109 : 1" inkscape:vp_y="0 : 1000 : 0" inkscape:vp_z="744.09448 : 526.18109 : 1" sodipodi:type="inkscape:persp3d">
		</inkscape:perspective>
	
		<inkscape:perspective  id="perspective2392" inkscape:persp3d-origin="372.04724 : 350.78739 : 1" inkscape:vp_x="0 : 526.18109 : 1" inkscape:vp_y="0 : 1000 : 0" inkscape:vp_z="744.09448 : 526.18109 : 1" sodipodi:type="inkscape:persp3d">
		</inkscape:perspective>
</defs>
<sodipodi:namedview  bordercolor="#666666" borderopacity="1.0" gridtolerance="10000" guidetolerance="10" id="base" inkscape:current-layer="layer6" inkscape:cx="1492.7692" inkscape:cy="1942.488" inkscape:document-units="px" inkscape:pageopacity="0.0" inkscape:pageshadow="2" inkscape:window-height="1058" inkscape:window-maximized="1" inkscape:window-width="1920" inkscape:window-x="-8" inkscape:window-y="-8" inkscape:zoom="0.16" objecttolerance="10" pagecolor="#ffffff" showgrid="false" showguides="true">
	<inkscape:grid  enabled="true" id="grid3209" type="xygrid" visible="true"></inkscape:grid>
</sodipodi:namedview>
<g id="layer6" inkscape:groupmode="layer" inkscape:label="Color" sodipodi:insensitive="true">
	<path id="path3178" inkscape:connector-curvature="0" sodipodi:nodetypes="czzzz" class="st1" d="M1236,1659
		c-231.5,439.1-96.8,1002.1,242,1235.1s917.7,230.6,1268.4-175.8s362.3-1450.8-126.5-1680.7C2131.4,808,1467.7,1219.6,1236,1659z"/>
</g>
<g id="layer5" inkscape:groupmode="layer" inkscape:label="Spots" sodipodi:insensitive="true">
	<path id="path3203" inkscape:connector-curvature="0" sodipodi:nodetypes="czcc" class="st0" d="M1483.7,1341.4
		c91.4,85.6,190.3,353,94,553.7s-256.1,284.7-461,285C1115.9,1831.3,1240.9,1570,1483.7,1341.4L1483.7,1341.4z"/>
	<path id="path3205" inkscape:connector-curvature="0" sodipodi:nodetypes="cccz" class="st0" d="M2322.6,1533
		c-162.2-222.4-51.7-525.8,192.5-535.3c270.8,48.3,438.1,386.6,456.8,593.2C2922.1,1789.8,2484.8,1755.3,2322.6,1533L2322.6,1533z"
		/>
	
		<path id="path3207" inkscape:connector-curvature="0" inkscape:transform-center-x="-122.35951" inkscape:transform-center-y="-61.196382" sodipodi:nodetypes="czzzz" class="st0" d="
		M2621.4,2399.3c-18.7,267.9-218.1,451.8-473.4,466.3c-255.2,14.6-490.7-202-470-472.2c20.6-269.7,244.2-451.2,493.8-439.1
		C2421.3,1966.4,2640.1,2131.4,2621.4,2399.3z"/>
</g>
<g id="layer1" inkscape:groupmode="layer" inkscape:label="Outline" sodipodi:insensitive="true">
	<path id="path2383" inkscape:connector-curvature="0" sodipodi:nodetypes="czzzz" class="st2" d="M1236,1659
		c-231.5,439.1-96.8,1002.1,242,1235.1s917.7,230.6,1268.4-175.8s362.3-1450.8-126.5-1680.7C2131.4,808,1467.7,1219.6,1236,1659z"/>
</g>
</svg>
