<?xml version="1.0" encoding="utf-8"?>
<!-- Generator: Adobe Illustrator 25.2.0, SVG Export Plug-In . SVG Version: 6.00 Build 0)  -->
<svg version="1.1"
	 id="svg2" xmlns:cc="http://creativecommons.org/ns#" xmlns:dc="http://purl.org/dc/elements/1.1/" xmlns:inkscape="http://www.inkscape.org/namespaces/inkscape" xmlns:rdf="http://www.w3.org/1999/02/22-rdf-syntax-ns#" xmlns:sodipodi="http://sodipodi.sourceforge.net/DTD/sodipodi-0.dtd" xmlns:svg="http://www.w3.org/2000/svg"
	 xmlns="http://www.w3.org/2000/svg" xmlns:xlink="http://www.w3.org/1999/xlink" x="0px" y="0px" viewBox="0 0 4096 4096"
	 style="enable-background:new 0 0 4096 4096;" xml:space="preserve">
<style type="text/css">
	.st0{fill-rule:evenodd;clip-rule:evenodd;fill:#FEEBCD;}
	.st1{fill:#EDC391;}
	.st2{fill:#390075;}
	.st3{fill:#F8E9D4;}
	.st4{fill:#CB975C;}
	.st5{fill:#FEF2F4;}
	.st6{fill:#B9BBCC;}
	.st7{fill:#979CAF;}
	.st8{fill:#BEB9BF;}
	.st9{fill:#D9E3EF;}
	.st10{fill:#706F6B;}
	.st11{opacity:0.48;}
	.st12{fill:#2F2D30;}
	.st13{fill:#FFFFFF;}
</style>
<rect class="st0" width="4096" height="4096"/>
<defs>
	
		<inkscape:perspective  id="perspective10" inkscape:persp3d-origin="372.04724 : 350.78739 : 1" inkscape:vp_x="0 : 526.18109 : 1" inkscape:vp_y="0 : 1000 : 0" inkscape:vp_z="744.09448 : 526.18109 : 1" sodipodi:type="inkscape:persp3d">
		</inkscape:perspective>
	
		<inkscape:perspective  id="perspective2392" inkscape:persp3d-origin="372.04724 : 350.78739 : 1" inkscape:vp_x="0 : 526.18109 : 1" inkscape:vp_y="0 : 1000 : 0" inkscape:vp_z="744.09448 : 526.18109 : 1" sodipodi:type="inkscape:persp3d">
		</inkscape:perspective>
</defs>
<sodipodi:namedview  bordercolor="#666666" borderopacity="1.0" gridtolerance="10000" guidetolerance="10" id="base" inkscape:current-layer="layer6" inkscape:cx="1492.7692" inkscape:cy="1942.488" inkscape:document-units="px" inkscape:pageopacity="0.0" inkscape:pageshadow="2" inkscape:window-height="1058" inkscape:window-maximized="1" inkscape:window-width="1920" inkscape:window-x="-8" inkscape:window-y="-8" inkscape:zoom="0.16" objecttolerance="10" pagecolor="#ffffff" showgrid="false" showguides="true">
	<inkscape:grid  enabled="true" id="grid3209" type="xygrid" visible="true"></inkscape:grid>
</sodipodi:namedview>
<g>
	<g>
		<g>
			<g>
				<g>
					<path class="st1" d="M1846.6,2951.6c0,0-75.7,91.2-16.4,134.4c59.3,43.1,129.7-63.1,148.1-96.8"/>
				</g>
				<g>
					<path class="st2" d="M1860.1,3098.6c-11.1,0-21.6-3.5-31.4-10.6c-13.4-9.8-21.2-22.7-23.2-38.5c-5.6-44.9,37.3-97.3,39.2-99.5
						l3.8,3.2c-0.4,0.5-43.4,52.9-38,95.7c1.8,14.3,8.9,26.1,21.2,35.1c12.1,8.8,25.4,11.6,39.7,8.4
						c53.5-12,102.7-100.5,104.7-104.3l4.4,2.4c-2.1,3.8-52.3,94.3-108,106.8C1868.3,3098.2,1864.1,3098.6,1860.1,3098.6z"/>
				</g>
			</g>
			<g>
				<g>
					<path class="st2" d="M1860.2,3117.5c-15.1,0-29.6-4.8-42.5-14.2c-17.6-12.8-28.2-30.5-30.9-51.4c-6.5-52,38.2-107.7,43.4-113.9
						c7.5-9.1,21-10.3,30.1-2.8c9.1,7.5,10.3,21,2.8,30.1c-10.6,12.9-37.5,52.7-33.8,81.4c1.2,9.2,5.5,16.2,13.6,22.1
						c7.7,5.6,15.5,7.2,24.5,5.2c33.6-7.5,73.6-60.9,92.3-95c5.7-10.3,18.7-14.1,29-8.5c10.3,5.7,14.1,18.7,8.5,29
						c-5.7,10.4-57.6,102-120.4,116.1C1871.1,3116.9,1865.6,3117.5,1860.2,3117.5z"/>
				</g>
			</g>
		</g>
		<g>
			<g>
				<path class="st1" d="M1739.9,1246.4c0,0-79.3-292.5-276.6-240.2c-141.8,37.6-81.5,317.4,66.7,370.2"/>
			</g>
		</g>
		<g>
			<g>
				<path class="st3" d="M1463.3,1006.2c-37.8,10-61.1,37.3-72.3,72.8l5.3,9.2c0,0,48.8-74.7,124.8-51.1
					c76.1,23.6,136.4,117.1,136.4,117.1l39.8-11.2C1655.2,1064.6,1579.8,975.3,1463.3,1006.2z"/>
			</g>
		</g>
		<g>
			<g>
				<path class="st4" d="M1468.2,1096.9c-69,31.3,19.5,206.8,92.4,236.2C1633.6,1362.6,1537.2,1065.7,1468.2,1096.9z"/>
			</g>
		</g>
		<g>
			<g>
				<path class="st2" d="M1530,1397.7c-2.4,0-4.8-0.4-7.2-1.2c-105-37.4-165.4-170.1-161.2-271.6c3-73.2,38.1-124,96.2-139.4
					c90.3-23.9,171.8,13.9,235.5,109.3c45.9,68.7,66.3,142.9,67.2,146c3.1,11.4-3.6,23.1-15,26.2c-11.4,3.1-23.1-3.6-26.2-15l0,0
					c-0.7-2.7-76.1-271.4-250.5-225.2c-53,14-63.1,68.6-64.4,99.8c-3.6,86.7,48.9,199.7,132.8,229.6c11.1,4,16.9,16.2,13,27.3
					C1547,1392.3,1538.8,1397.7,1530,1397.7z"/>
			</g>
		</g>
		<g>
			<g>
				<path class="st5" d="M1304.4,1924.1c0,0-476.2,697.2,160.6,952s1330.8,143.1,1423.7-285.3c88.1-406.5-38.7-681.3-38.7-681.3"/>
			</g>
		</g>
		<g>
			<g>
				<path class="st6" d="M2888.8,2590.8c88.1-406.5-38.7-681.3-38.7-681.3s18.3,203.2,9,338.4c-9.3,135.2,53.1,329.4-265.2,527.4
					c-318.4,198-451.5-4.8-699.9-27.9s-328.6,46.1-487.9-59.5c-147.1-97.4-287.3-200.1-187.2-606.5
					c-99.9,221-199.6,616.2,246.2,794.6C2101.9,3130.9,2795.9,3019.2,2888.8,2590.8z"/>
			</g>
		</g>
		<g>
			<g>
				<path class="st7" d="M1133.5,2434.2c1.3,169.5,78.5,340.6,331.6,441.8c636.8,254.8,1330.8,143.1,1423.7-285.3
					c0.1-0.5,0.2-1,0.3-1.5c-146.9,319.1-685.3,439.8-1259.8,269.4c-574.9-170.5-489.6-435.2-489.6-435.2L1133.5,2434.2z"/>
			</g>
		</g>
		<g>
			<g>
				<path class="st2" d="M2138.4,3032.7c-216.5,0-453.9-45.8-681.2-136.8c-171.8-68.7-280.8-175.6-324.1-317.7
					c-91.8-301.7,143.6-651.5,153.7-666.2c6.7-9.7,19.9-12.3,29.7-5.6c9.7,6.7,12.3,19.9,5.6,29.7c-2.3,3.4-234,347.8-148.1,629.8
					c39.3,129,139.9,226.7,299,290.3c418,167.2,869.5,178.9,1150.4,29.7c132.7-70.5,217.2-174.1,244.4-299.6
					c85.4-393.9-36-665.2-37.2-667.9c-4.9-10.7-0.2-23.4,10.5-28.3c10.7-4.9,23.4-0.3,28.3,10.5c5.3,11.5,128.7,286,40.1,694.8
					c-30,138.2-122,251.7-266.2,328.3C2506.4,2996.5,2330.7,3032.7,2138.4,3032.7z"/>
			</g>
		</g>
		<g>
			<g>
				<path class="st5" d="M2771,2177.1c46.2-52.7,79.4-108.8,96-165.2c18.3-47.1,30.7-96.7,36.4-148.5
					c41.9-379-289.1-726.8-739.2-776.7c-436.7-48.4-825.1,201.3-886.1,562.4c-41.6,51.8-67.2,119.8-73.4,208.1
					c-24.1,348,350.3,554.5,786.3,602.8c40,4.4,79.9,6.1,119.3,5.2C2382.7,2468.2,2626.8,2356.1,2771,2177.1z"/>
			</g>
		</g>
		<g>
			<g>
				<path class="st8" d="M1700.2,2114.5c0,0-112.7,221.7,145.9,333.6c258.6,111.8,392.9-102.8,383.6-261.8L1700.2,2114.5z"/>
			</g>
		</g>
		<g>
			<g>
				<path class="st2" d="M2037.7,1661.2c0,0-54.5-53.3-25.4-56.9c29.1-3.6,85.7,3.3,73,19.7
					C2067.3,1647.1,2044,1669.1,2037.7,1661.2z"/>
			</g>
		</g>
		<g>
			<g>
				<path class="st6" d="M2164.2,1086.8c-436.7-48.4-825.1,201.3-886.1,562.4c-2.5,3.2-5,6.4-7.5,9.7
					c37.9-12.5,84.8-41.1,136.5-40.1c279.2,5.3,298.2,144,390.8,90.7c92.6-53.3,140-148,265.6-118.3
					c153.9,36.4,179.9,172.6,291.3,200.6s169.2-104.9,395.8-9.2c95.6,40.4,105.6,130.3,127.4,198.1c12.2-37.6,20.8-76.7,25.3-117.2
					C2945.3,1484.4,2614.3,1136.7,2164.2,1086.8z"/>
			</g>
		</g>
		<g>
			<g>
				<path class="st9" d="M2164.2,1086.8c-359.3-39.8-685.8,122.1-824.3,381.9l10.6,8.5c0,0,445.7-636.2,1238.2-211.8l-5.6-27.4
					C2465.4,1158.5,2322.2,1104.3,2164.2,1086.8z"/>
			</g>
		</g>
		<g>
			<g>
				<path class="st7" d="M2164.2,1086.8c-47.4-5.3-94.2-7-140.2-5.5c-5.7,143.3-3.3,365.4,77.1,378.1
					c81,12.8,142.2-202.6,192.5-342.5C2243.4,1102.7,2218.4,1092.8,2164.2,1086.8z"/>
			</g>
		</g>
		<g>
			<g>
				<path class="st6" d="M2119,1082.9c-8-0.5-15.9-1-23.8-1.3c-4.1-0.2-8.2-0.2-12.2-0.3c-7.3-0.2-14.7-0.4-21.9-0.4
					c-4.3,0-8.6,0.1-12.9,0.1c-7,0.1-14,0.1-20.9,0.3c-1.1,0-2.1,0.1-3.2,0.1c-0.5,12.4-0.9,25.4-1.3,38.9
					c80.2-3.5,167,3.9,260.4,26.2c3.5-10.1,7-20,10.4-29.6c-45-12.7-69.8-21.9-113.4-28.1c-5.3-0.7-10.6-1.4-16-2
					c-11.6-1.3-23.1-2.3-34.6-3.2C2126.1,1083.3,2122.6,1083.2,2119,1082.9z"/>
			</g>
		</g>
		<g>
			<g>
				<path class="st2" d="M1244.8,2091.1c-7.9,0-15.6-4.4-19.2-12.1c-33.4-68.9-47.6-144-42.1-223.2c6-86.9,31.1-159.4,74.5-215.6
					c66.2-371.9,464-624,908.6-574.7c461.1,51.1,801.2,410.1,758.1,800.3c-5.8,52.6-18.5,104.3-37.7,153.9
					c-4.3,11-16.6,16.5-27.7,12.2c-11-4.3-16.5-16.6-12.2-27.7c17.9-46.1,29.7-94.2,35.1-143.1c40.5-366.7-282.7-704.6-720.4-753.1
					c-424.2-47-803.2,192.2-862.7,544.7c-0.6,3.6-2.1,7-4.4,9.8c-40.6,50.6-63.1,114.7-68.7,196.2c-5,71.6,7.8,139.4,37.9,201.6
					c5.1,10.6,0.7,23.4-9.9,28.6C1251.1,2090.4,1247.9,2091.1,1244.8,2091.1z"/>
			</g>
		</g>
		<g>
			<g>
				<g>
					<path class="st10" d="M1876.8,2400.6c-426.5-161.7,131.6-694.4,230.2-635.9C2234.2,1840.1,2263.3,2547.2,1876.8,2400.6z"/>
				</g>
				<g>
					<path class="st2" d="M1974.8,2423.2c-28.9,0-61.6-6.1-98.8-20.2c-97.4-36.9-150.9-95.5-159.1-174.3
						c-16.2-155.9,152.8-352.6,281-434.7c50.7-32.4,89.9-43.6,110.5-31.4c86.3,51.2,122.9,365.7,39.6,538.7
						C2118.9,2361.4,2066.7,2423.1,1974.8,2423.2z M2088.3,1762.8c-20.9,0-51.5,12.2-87.8,35.4c-127.1,81.4-294.7,276.1-278.7,430
						c8,76.7,60.4,133.9,155.9,170.1c36.4,13.8,68.5,19.7,96.7,19.7c89.8,0,140.7-60.2,169-118.9c38-78.9,54-196.3,42.9-314.1
						c-10.3-109.6-42-195.3-80.6-218.2C2101.1,1764.1,2095.2,1762.8,2088.3,1762.8z"/>
				</g>
			</g>
			<g class="st11">
				<g>
					<path class="st12" d="M2166.8,2255.5c-48.1,71-156,171.4-298.1,86.3c-164.9-98.8-68.6-318-22.7-407.6
						c-130,155.2-208.1,368.9,35.8,461.4C2037,2454.5,2125.1,2375.7,2166.8,2255.5z"/>
				</g>
			</g>
			<g>
				<g>
					<path class="st1" d="M1872.4,2391.5c0,0,226.4-668,230.4-636.4c4,31.6-189.4,642-208.9,647.1S1872.4,2391.5,1872.4,2391.5z"/>
				</g>
			</g>
			<g>
				<g>
					<path class="st1" d="M2127.4,1771.3c0,0,13.4,457.6-126.8,642.4c0,0,67.3,8.7,90.3-17.3
						C2090.8,2396.4,2220.1,1894.3,2127.4,1771.3z"/>
				</g>
			</g>
			<g>
				<g>
					<path class="st1" d="M2059.4,1761.4c-154.9,69.9-289.2,409-330.5,522.8c14.2,29.7,37.7,56.8,72.8,79.9l6.6-1.5
						c-26.1-278.3,230.5-560,273-604.6C2074.7,1758,2067.4,1759.2,2059.4,1761.4z"/>
				</g>
			</g>
			<g>
				<g>
					<path class="st2" d="M1974.3,2441.8c-32.6,0-67.7-7-105.1-21.1c-104.6-39.7-162.2-103.6-171.2-190
						c-17-163.4,157.3-367.8,289.6-452.6c58.6-37.5,102.5-48.2,130.3-31.7c94,55.8,135.5,379.4,47,563.1
						C2122.8,2396.8,2056.9,2441.8,1974.3,2441.8z M2088.4,1781.6c-13.1,0-39.4,7.9-77.7,32.5c-119.9,76.8-285.1,267.7-270.1,412.1
						c7.2,69,55.6,121,143.8,154.4l0,0c111.5,42.3,192.9,12.1,242-89.7c80.7-167.6,38.6-467-30.2-507.8
						C2094.5,1782.1,2091.9,1781.6,2088.4,1781.6z"/>
				</g>
			</g>
		</g>
		<g>
			<g>
				<path class="st1" d="M2595.7,1347.4c0,0,157.5-232,322.2-111.4c118.4,86.6-16.7,313.7-174,308.9"/>
			</g>
		</g>
		<g>
			<g>
				<path class="st3" d="M2951.7,1311.9l7.7-14.3c-5.8-23.9-19.1-45.2-41.5-61.6c-120.4-88.1-236.9,12.1-290.9,72.4l0.8,7.8
					C2627.8,1316.2,2806.3,1150.6,2951.7,1311.9z"/>
			</g>
		</g>
		<g>
			<g>
				<path class="st2" d="M2589.8,1343.4c1.3-21.1,10.7-36.9,21.8-51.1c10.9-14.4,24.4-26.7,38.5-38.1c14.2-11.3,28.4-22.8,43.8-32.9
					c15.4-10.1,31.8-19,49.4-26.1c17.5-7,36.2-12.1,55.6-14.2c4.9-0.3,9.7-1,14.6-1l14.7,0.2l14.7,1.5c4.9,0.6,9.6,1.8,14.5,2.8
					c19,4.5,37.3,11.9,53.8,21.6c4.2,2.3,8,5.1,12,7.7c3.9,2.6,7.9,5.1,11.8,8.6c3.9,3.3,8,6.3,11.4,10.2c3.6,3.7,7.3,7.3,10.3,11.6
					c12.9,16.3,21.3,36.1,25,56c3.7,20,3,40-0.3,59c-7,38.1-23.9,72.4-45.7,102.5c-22.2,29.8-49.9,55.7-82.4,74.9
					c-8.2,4.6-16.6,9.1-25.4,12.8c-4.3,2.1-8.7,3.8-13.1,5.7l-6.6,2.9c-2.3,0.8-4.6,1.6-6.9,2.3c-4.6,1.5-9.3,2.9-14.2,3.3
					c-4.9,0.5-9.7,1.1-14.7,0.5c-4.9-0.6-9.9-1.3-14.7-3.3c-4.8-2.1-9.6-4.7-13.9-8.8c-3.8-3.6-4-9.5-0.5-13.3
					c0.1-0.1,0.2-0.2,0.2-0.2l0.7-0.7c4.2-4.2,8.1-7,11.9-9.2c3.8-2.3,7.4-4.4,11-5.7c3.6-1.2,7.2-2.8,10.8-3.8
					c3.6-0.9,7.2-2,10.9-2.8c1.8-0.4,3.7-0.7,5.6-1.1l5.5-1.5c3.7-1,7.4-2,10.9-3.7c7.1-2.9,14-6.6,20.8-10.4
					c26.9-15.8,50.6-37.9,69.5-63.3c18.6-25.5,32.7-54.8,38.1-84.6c5.5-29.8,0.9-59.8-16.2-81.2c-1.9-2.9-4.5-5.2-6.9-7.7
					c-2.2-2.7-5.2-4.7-7.8-7c-2.5-2.3-5.9-4.4-9.1-6.6c-3.3-2.1-6.3-4.5-9.7-6.3c-13.2-7.8-27.3-13.4-41.7-16.8
					c-28.9-7.2-59.7-2.7-88.5,8.8c-14.4,5.8-28.4,13.4-41.9,22.1c-13.4,8.8-26.4,18.7-38,30.2c-11.7,11.5-22.7,23.6-34.8,34.8
					c-6,5.6-12,11.4-19.1,16.3c-7,5-14.6,9.7-24,13.1l-0.8,0.3c-4.3,1.5-9-0.7-10.6-5C2589.9,1345.6,2589.7,1344.5,2589.8,1343.4z"
					/>
			</g>
		</g>
		<g>
			<g>
				<g>
					<g>
						<path class="st2" d="M1709.8,1539.7c19.9-48.6,68.6-75.1,108.9-59.1c40.2,16,56.7,68.4,36.8,117.1
							c-19.9,48.6-68.6,75.1-108.9,59.1C1706.4,1640.7,1689.9,1588.3,1709.8,1539.7z"/>
					</g>
					<g>
						<path class="st2" d="M1771,1664c-8.6,0-17.2-1.6-25.4-4.8c-17.5-7-31.5-21.1-39.5-39.9c-10.3-24.2-9.8-53.6,1.3-80.6l2.4,1
							l-2.4-1c20.4-49.9,70.8-77.1,112.3-60.6c17.5,7,31.5,21.1,39.5,39.9c10.3,24.2,9.8,53.6-1.3,80.7
							C1841.5,1638.6,1805.9,1664,1771,1664z M1794.1,1478.6c-32.7,0-66.4,24.2-81.9,62.1c-10.5,25.8-11,53.7-1.3,76.6
							c7.4,17.4,20.4,30.6,36.6,37c38.8,15.5,86.1-10.4,105.4-57.7c10.6-25.8,11-53.7,1.3-76.6c-7.4-17.4-20.4-30.6-36.6-37
							C1810.1,1480,1802.1,1478.6,1794.1,1478.6z"/>
					</g>
				</g>
			</g>
			<g>
				<g>
					<path class="st13" d="M1771.4,1536.2c8.6-21,28.9-32.7,45.3-26.1c16.5,6.5,22.8,28.9,14.3,49.9c-8.6,21-28.9,32.7-45.4,26.1
						C1769.2,1579.5,1762.8,1557.2,1771.4,1536.2z"/>
				</g>
				<g>
					<path class="st2" d="M1795.2,1590.3c-3.5,0-7-0.6-10.4-2c-7.3-2.9-13-8.7-16.4-16.6c-4.6-10.7-4.3-24,0.8-36.3l0,0
						c9.1-22.1,30.8-34.4,48.4-27.4c7.3,2.9,13,8.7,16.4,16.6c4.6,10.7,4.3,24-0.8,36.3C1825.9,1578.8,1810.2,1590.3,1795.2,1590.3z
						 M1773.6,1537.1c-4.6,11.2-4.9,23.1-0.8,32.7c2.9,6.8,7.6,11.6,13.7,14.1c15.2,6.1,34.2-5.1,42.3-24.8
						c4.6-11.2,4.9-23.1,0.8-32.7c-2.9-6.8-7.6-11.6-13.7-14.1C1800.6,1506.2,1781.7,1517.4,1773.6,1537.1L1773.6,1537.1z"/>
				</g>
			</g>
		</g>
		<g>
			<g>
				<path class="st4" d="M2885.4,1325.3c50.5,56.4-101.1,181.4-179.7,179C2627.1,1501.9,2834.9,1268.9,2885.4,1325.3z"/>
			</g>
		</g>
		<g>
			<g>
				<path class="st2" d="M2907.6,1344.7c-3.4-4.6-7.9-9.2-12.5-12.6c-4.6-3.5-9.7-5.9-14.8-7.3c-10.3-2.5-21-0.9-31.7,3.3
					c-10.4,4.2-21.6,10.9-32.2,17.7c-10.7,6.9-21.1,14.3-31.2,22.2c-20.2,15.8-39.2,33.3-55.8,52.5c-8.1,9.7-15.9,19.8-21.9,30.7
					c-6.2,10.8-10.7,22.4-12.2,34.7l0,0.2c-0.3,2.6-2.7,4.5-5.3,4.2c-2.2-0.3-3.8-1.9-4.2-4c-2.4-14.4,0.3-29.3,5.2-42.6
					c2.3-6.8,5.4-13.2,8.7-19.4c3.2-6.3,7-12.3,11-18c15.8-23.2,35.4-43,56.9-60.5c10.8-8.7,22.1-16.8,34.1-23.9
					c12.1-7.2,24.4-13.5,39.2-17.9c3.8-0.8,7.5-1.8,11.4-2.3l5.9-0.5c2-0.2,3.9-0.3,6-0.1c2,0.1,4,0.2,6,0.4c2,0.2,4,0.8,6,1.2
					c4,0.7,7.8,2.5,11.5,3.9c7.3,3.6,13.5,8.8,18.3,14.6c4.8,6.1,8.4,12.3,10.5,19.8c0.7,2.5-0.7,5.2-3.3,5.9c-2,0.6-4-0.2-5.1-1.7
					L2907.6,1344.7z"/>
			</g>
		</g>
		<g>
			<g>
				<path class="st2" d="M1427.2,1114.7c1.6-4.4,3.7-8.4,6.7-12.1c1.4-1.9,3.1-3.5,4.9-5.2c1.9-1.4,3.8-3.1,6-4.3
					c8.6-5.2,19.6-6.4,29.3-4.7c2.5,0.4,4.9,0.8,7.2,1.6c2.3,0.7,4.7,1.4,6.9,2.2c4.2,2,8.9,3.7,12.7,6.2c4,2.4,8.1,4.7,11.7,7.4
					c3.8,2.6,7.5,5.3,10.9,8.4c14,11.9,26.4,26.2,35.3,42.4c4.7,8,8.4,16.5,11.4,25.2c1.6,4.3,2.8,8.8,3.9,13.3
					c1.1,4.7,1.9,8.8,2.4,14.4c0.8,7.8-4.9,14.8-12.7,15.6c-6.8,0.7-13-3.6-15-9.9l-0.5-1.5c-0.9-2.8-2.1-6.9-3.4-10.4
					c-1.2-3.6-2.6-7.3-4-10.9c-2.9-7.2-5.9-14.4-9.5-21.2c-7-13.8-15.5-26.9-25.9-38.6c-2.5-3-5.3-5.7-8.1-8.5
					c-2.7-2.9-5.7-5.3-8.7-7.8c-1.5-1.3-3-2.5-4.6-3.5l-4.6-3.3c-1.6-1-3.2-1.7-4.8-2.7c-1.6-1-3.3-1.6-4.9-2.2
					c-6.6-2.7-13.6-3.5-20.6-1.6c-6.9,1.8-13.6,6.9-18.5,13.1l-0.2,0.2c-0.7,0.9-2,1-2.9,0.3
					C1427.2,1116.4,1426.9,1115.4,1427.2,1114.7z"/>
			</g>
		</g>
		<g>
			<g>
				<g>
					<path class="st1" d="M1618.1,2034c0,0,154.5-111.9,207.3-30.5s-57.9,173.9-154.8,173.6"/>
				</g>
				<g>
					<path class="st2" d="M1671.1,2179.6c-0.1,0-0.3,0-0.4,0l0-5c0.1,0,0.3,0,0.4,0c60.4,0,128.1-37.5,154.3-85.5
						c11-20.1,19.6-51.1-2-84.3c-9.6-14.7-23.3-23.9-40.9-27.2c-64.7-12.1-161.8,57.6-162.8,58.3l-2.9-4c4-2.9,99.8-71.6,166.7-59.1
						c19,3.5,33.9,13.4,44.2,29.4c18.1,27.9,18.8,58.8,2.2,89.4C1802.3,2141.8,1734.2,2179.6,1671.1,2179.6z"/>
				</g>
			</g>
			<g>
				<g>
					<path class="st2" d="M1616.4,2031.6c7-8.8,14.8-16.6,23.2-23.8c8.3-7.3,17.2-13.8,26.5-19.9c18.6-12,39-21.8,61.5-27.8
						c11.3-3,23.1-5,35.5-5.2c12.4-0.2,25.5,1.6,38.2,6.6c12.7,5,24.3,13.6,32.8,24l5.9,8.1l4.8,8.2c3,5.6,5.6,11.5,7.6,17.7
						c3.9,12.4,5.5,25.8,4.2,38.7c-1.2,13-5,25.4-10.3,36.7c-10.8,22.6-27.4,40.6-45.9,54.8c-9.3,7.1-19.2,13.3-29.6,18.4
						c-10.3,5.2-21,9.5-32.2,12.5c-22.2,5.8-46.1,6.8-67.9-0.6c-1.6-0.5-2.5-2.3-1.9-3.9c0.3-0.9,1-1.6,1.8-1.9l0.1,0
						c20.7-7.6,39.1-15,56.8-23.8c8.8-4.4,17.5-8.9,25.7-13.9c8.2-5.1,16.1-10.7,23.5-16.7c14.7-12,27.6-26,35.9-41.5
						c8.3-15.5,11-32.4,6.1-48.2c-1.2-4-2.9-7.8-4.8-11.6l-3.3-5.6c-1.2-1.6-2.4-3.1-3.6-4.7c-5.1-5.9-11.3-10.1-18.5-12.5
						c-14.6-5-33.2-3-51.8,1.2c-18.7,4.2-37.8,10.8-57.1,17.9c-19.4,7-39,14.7-59.7,21.6l-0.1,0c-1.6,0.5-3.3-0.3-3.8-1.9
						C1615.6,2033.4,1615.8,2032.4,1616.4,2031.6z"/>
				</g>
			</g>
		</g>
		<g>
			<g>
				<g>
					<path class="st1" d="M2364.6,2166.1c0,0-95-165.4-176.6-112.8c-81.6,52.6-18.5,182.3,70,221.8"/>
				</g>
				<g>
					<path class="st2" d="M2257,2277.4c-57.7-25.8-104.6-88.3-109-145.6c-2.7-34.7,10.7-62.6,38.6-80.6c16-10.3,33.6-13.2,52.4-8.6
						c66.1,16.1,125.3,118,127.7,122.3l-4.3,2.5c-0.6-1-60.6-104.4-124.6-119.9c-17.4-4.2-33.7-1.5-48.5,8
						c-33.2,21.4-38.1,53.2-36.3,76c4.2,54.6,50.8,116.7,106,141.4L2257,2277.4z"/>
				</g>
			</g>
			<g>
				<g>
					<path class="st2" d="M2362,2167.5c-16-14.8-30.8-29.9-45.6-44.2c-14.7-14.4-29.4-28.3-44.8-39.8
						c-15.2-11.4-31.4-20.9-46.8-22.3c-7.6-0.7-15,0.5-22,3.8c-1.7,1-3.5,1.9-5.2,2.9l-5.3,3.7c-3.3,2.7-6.4,5.5-9.1,8.6
						c-11,12.4-15.4,28.9-14.2,46.5c1.2,17.5,7.3,35.6,15.8,52.6c4.2,8.5,9.2,16.8,14.6,24.9c5.5,8,11.6,15.6,17.8,23.3
						c12.6,15.3,26.3,29.5,42.1,45l0.1,0.1c1.2,1.2,1.2,3.1,0.1,4.4c-0.7,0.7-1.6,1-2.5,0.9c-22.9-2.2-44.3-12.9-62.2-27.3
						c-8.9-7.2-16.9-15.6-24.2-24.6c-7.4-8.9-13.9-18.6-19.5-28.9c-11.1-20.6-18.9-43.8-19.4-68.8c-0.3-12.5,1.4-25.4,5.6-37.7
						c4.1-12.4,11.1-23.9,19.7-33.6c4.3-4.9,9.1-9.1,14.1-13l7.7-5.5l8.7-4.9c12-6,26.2-9.2,39.7-8.5c13.6,0.6,26.3,4.4,37.5,9.6
						c11.3,5.2,21.3,11.9,30.3,19.3c18.1,14.8,32.6,32.1,44.7,50.6c6,9.3,11.4,18.9,16,29c4.7,10,8.6,20.3,11.4,31.2
						c0.4,1.6-0.6,3.3-2.2,3.7C2363.9,2168.6,2362.8,2168.3,2362,2167.5L2362,2167.5z"/>
				</g>
			</g>
		</g>
		<g>
			<g>
				<path class="st7" d="M2446.5,1393.8c41.7,69.7-93.3,117.8-121.8,56.9C2296.3,1389.9,2413.7,1339.2,2446.5,1393.8z"/>
			</g>
		</g>
		<g>
			<g>
				<path class="st7" d="M1764.9,1310.7c-57.3,57.6,62.3,136.8,104.5,84.5C1911.7,1343,1809.8,1265.6,1764.9,1310.7z"/>
			</g>
		</g>
		<g>
			<g>
				<g>
					<path class="st1" d="M2222.6,2607.9c0,0,39.8-186.6,133.6-161.5c93.8,25.1,73.4,167.9,1.3,232.6"/>
				</g>
				<g>
					<path class="st2" d="M2359.1,2680.9l-3.3-3.7c45.1-40.4,70.4-113.8,57.6-167.1c-5.3-22.3-19.7-51-57.9-61.3
						c-17-4.5-33.3-2.1-48.6,7.2c-56.2,34.4-81.6,151.1-81.9,152.3l-4.9-1c1-4.9,26.2-120,84.2-155.5c16.5-10.1,34.1-12.7,52.5-7.8
						c32.1,8.6,53.4,31,61.5,64.9C2431.6,2564.8,2406.2,2638.7,2359.1,2680.9z"/>
				</g>
			</g>
			<g>
				<g>
					<path class="st2" d="M2219.7,2607.3c-0.7-11.2-0.1-22.3,1.3-33.2c1.3-11,3.5-21.8,6.4-32.5c5.8-21.4,14.4-42.3,27-61.9
						c6.4-9.8,13.8-19.2,22.9-27.6c9.1-8.4,20-15.9,32.8-20.6c12.7-4.8,27.1-6.1,40.4-4.1l9.8,2l9,2.9c6,2.2,11.8,4.8,17.5,8.1
						c11.2,6.6,21.3,15.4,29.1,25.9c7.8,10.5,13.3,22.2,16.9,34.2c7.2,24,6.9,48.5,2.6,71.5c-2.2,11.5-5.3,22.7-9.7,33.5
						c-4.2,10.8-9.2,21.2-15.5,30.8c-12.6,19.1-29.7,35.9-50.8,45c-1.6,0.7-3.4-0.1-4-1.6c-0.4-0.9-0.3-1.8,0.1-2.6l0-0.1
						c10.3-19.5,19-37.3,26.3-55.7c3.6-9.2,7-18.3,9.8-27.6c2.7-9.3,4.9-18.7,6.3-28.2c2.8-18.8,3.1-37.8-1.1-54.9
						c-4.2-17.1-13.5-31.5-27.8-39.9c-3.5-2.1-7.4-3.9-11.4-5.4l-6.2-1.9c-2-0.3-3.9-0.7-5.8-1.1c-7.7-1-15.1,0.1-22.2,3.1
						c-14.2,6.1-26.7,20-37.7,35.6c-11.1,15.7-20.8,33.4-30.4,51.6c-9.7,18.2-19.1,37-29.8,56l0,0.1c-0.8,1.5-2.7,2-4.1,1.1
						C2220.4,2609.3,2219.8,2608.3,2219.7,2607.3z"/>
				</g>
			</g>
			<g>
				<g>
					<path class="st2" d="M2401.6,2493.1l-41.1,49.3l15.7-62.2c2-7.8,9.9-12.6,17.7-10.6c7.8,2,12.6,9.9,10.6,17.7
						C2404,2489.5,2403,2491.5,2401.6,2493.1z"/>
				</g>
			</g>
			<g>
				<g>
					<path class="st2" d="M2344.7,2467.5l-35.8,54.7l9.1-64.7c1.1-8,8.5-13.5,16.5-12.4c8,1.1,13.5,8.5,12.4,16.5
						C2346.6,2463.8,2345.8,2465.8,2344.7,2467.5z"/>
				</g>
			</g>
		</g>
		<g>
			<g>
				<g>
					<path class="st1" d="M1589.4,2520.8c0,0-13.3-190.3-109.7-178.5c-96.4,11.7-96.2,156-33.8,230.1"/>
				</g>
				<g>
					<path class="st2" d="M1444.1,2574c-40.7-48.4-55.5-125.1-34.5-178.5c12.8-32.4,36.9-51.7,69.9-55.7c18.9-2.3,36,2.8,50.9,15.1
						c52.5,43.3,61.2,160.8,61.6,165.8l-5,0.3c-0.1-1.2-9-120.3-59.8-162.3c-13.8-11.4-29.7-16.1-47.1-14
						c-39.2,4.8-57.5,31.2-65.9,52.6c-20.1,51-5.3,127.2,33.7,173.5L1444.1,2574z"/>
				</g>
			</g>
			<g>
				<g>
					<path class="st2" d="M1586.8,2521c-8.1-9.8-12.6-19.6-16.5-29.3c-3.8-9.8-5.8-19.8-8.7-29.5c-5.6-19.5-11.9-38.6-20.3-55.8
						c-8.1-17.1-18.6-32.8-31.8-40.7c-6.6-4-13.7-6-21.4-6.2c-2,0.1-4,0.2-5.9,0.3l-6.4,1c-4.2,0.9-8.2,2-12.1,3.6
						c-15.3,6.2-27.1,18.8-34.2,35.2c-7.1,16.3-10.1,35.6-8.5,54.7c0.7,9.6,2.2,19.1,3.9,28.6c1.6,9.5,3.4,19.1,5.5,28.7
						c4.3,19.3,10.2,38.3,17.7,59.1l0,0.1c0.5,1.5-0.2,3.1-1.7,3.6c-0.8,0.3-1.7,0.2-2.4-0.2c-19.6-11.9-34.5-30.7-44.6-51.4
						c-5.1-10.4-8.9-21.4-11.4-32.7c-2.5-11.3-3.4-23-3.3-34.7c0.4-23.2,2.9-47.1,12.9-69.9c4.9-11.3,11.8-22.2,20.8-31.6
						c8.9-9.4,20-17,32-21.9c6-2.5,12.2-4.3,18.4-5.7c3.1-0.6,6.2-1.1,9.3-1.6l10-0.6c13.5-0.3,27.6,3.2,39.5,9.7
						c12,6.5,21.7,15.5,29.6,25c8,9.6,14.1,19.9,19.4,30.3c10.3,21,16.6,42.8,20.8,64.6c4.2,21.7,7,44.1-5.1,66.9
						c-0.8,1.5-2.7,2.1-4.3,1.3c-0.4-0.2-0.7-0.5-0.9-0.8L1586.8,2521z"/>
				</g>
			</g>
			<g>
				<g>
					<path class="st2" d="M1502.2,2347.6l6.1,72.1l-33.4-64.2c-3.7-7.1-0.9-15.9,6.2-19.6c7.1-3.7,15.9-0.9,19.6,6.2
						C1501.5,2343.8,1502.1,2345.8,1502.2,2347.6z"/>
				</g>
			</g>
			<g>
				<g>
					<path class="st2" d="M1457.1,2369l3,65.4l-30.5-58c-3.8-7.1-1-16,6.1-19.7c7.1-3.8,16-1,19.7,6.1
						C1456.5,2364.8,1457,2367,1457.1,2369z"/>
				</g>
			</g>
		</g>
		<g>
			<g>
				<path class="st2" d="M1751,2070.5c11.4-7.1,23-13.9,34.9-20.4c6-3.2,12-6.4,18.3-9.3c3.2-1.5,6.3-2.9,9.9-4.2
					c1.7-0.7,3.5-1.3,5.7-1.8c1.7-0.6,4.8-0.9,7.6-1c5.9-0.1,10.8,4.5,11,10.5c0.1,5.9-4.5,10.8-10.5,11c-0.4,0-0.8,0-1.2,0
					l-1.9-0.2c-0.5,0-0.8-0.5-2.3-0.4l-1.9,0l-2.2,0.2c-2.9,0.2-6.1,0.7-9.3,1.2c-6.4,1.1-12.8,2.5-19.3,4
					C1776.7,2063.1,1763.8,2066.6,1751,2070.5z"/>
			</g>
		</g>
		<g>
			<g>
				<path class="st2" d="M1737,2026.3c12.2-7.2,24.7-14,37.7-20.2c6.5-3.1,13.2-6,20.3-8.4c3.6-1.2,7.3-2.3,11.4-3.1
					c2.1-0.4,4.4-0.6,6.9-0.6c2.7,0.2,5.8,0.3,9.9,2.6c4.9,3.3,6.3,9.9,3,14.8c-3.3,4.9-9.9,6.3-14.8,3c1.1,0.4,0.7-0.2-0.1-0.5
					c-1-0.3-2.2-0.5-3.6-0.7c-2.8-0.2-6.1-0.2-9.4,0.1c-6.6,0.5-13.5,1.6-20.3,2.9C1764.3,2018.9,1750.6,2022.4,1737,2026.3z"/>
			</g>
		</g>
		<g>
			<g>
				<path class="st2" d="M2163.5,2087.6c6.6,3.7,12.7,7.5,18.8,11.6c6.1,4,12.1,8.3,17.8,12.8c5.8,4.5,11.3,9.3,16.4,14.7
					c4.8,5.4,9.9,11.5,10.7,18.8c-2.6-6.7-8.5-10.9-14.2-14.7c-5.8-3.7-12.1-6.8-18.4-9.6c-6.4-2.8-12.9-5.3-19.5-7.6
					c-6.5-2.3-13.3-4.4-19.8-6.2c-5.7-1.5-9.2-7.5-7.6-13.2c1.5-5.7,7.5-9.2,13.2-7.6C2161.9,2086.9,2162.7,2087.2,2163.5,2087.6z"
					/>
			</g>
		</g>
		<g>
			<g>
				<path class="st2" d="M2193.2,2056.4c10.3,6.8,20.5,13.7,30.5,20.8c5,3.6,10,7.2,14.9,10.9c4.8,3.8,9.9,7.5,13.7,12.4
					c-4.9-3.6-10.7-5.5-16.3-7.8c-5.6-2.2-11.4-4.1-17.1-6.1c-11.5-3.8-23.1-7.5-34.6-10.9l0,0c-5.7-1.7-9-7.7-7.3-13.4
					c1.7-5.7,7.7-9,13.4-7.3C2191.4,2055.4,2192.4,2055.8,2193.2,2056.4z"/>
			</g>
		</g>
		<g>
			<g>
				<g>
					<path class="st2" d="M2042.4,1668.7c-0.4,0-0.8,0-1.1,0c-25.9-0.9-44.5-37.1-47.9-44.4c-3.4-7.1-0.4-15.6,6.7-19
						c7.1-3.4,15.6-0.4,19,6.7l0,0c6.6,13.8,18.3,28,23.1,28.1c0.1,0,0.2,0,0.3,0c7.8,0,22.1-11.2,29.5-19.4
						c5.3-5.8,14.3-6.3,20.1-1.1c5.8,5.3,6.3,14.3,1.1,20.1C2088.7,1644.7,2066,1668.7,2042.4,1668.7z"/>
				</g>
			</g>
			<g>
				<g>
					<path class="st2" d="M2038.5,1694.3c-0.6,0-1.2,0-1.7-0.1c-7.8-1-13.4-8.1-12.4-15.9l3-24.6c1-7.8,8-13.4,15.9-12.4
						c7.8,1,13.4,8.1,12.4,15.9l-3,24.6C2051.7,1689,2045.6,1694.3,2038.5,1694.3z"/>
				</g>
			</g>
			<g>
				<g>
					<path class="st2" d="M2076.1,1715.4c-17.7,0-33.5-10.3-42.4-17.6c-11.1,8.4-22.1,11.4-32.9,8.9c-22.3-5.1-32.4-31.7-33.4-34.7
						c-2-5.6,0.9-11.7,6.5-13.7c5.5-2,11.6,0.9,13.6,6.5c1.7,4.8,8.8,19,18.1,21.1c7.1,1.6,15.2-4.5,20.7-9.9c2.1-2,4.9-3.2,7.7-3
						c2.9,0.1,5.6,1.3,7.6,3.4c5.1,5.3,21.5,19,36.5,17.7c8.1-0.7,15.2-5.8,21.6-15.5c3.3-4.9,9.9-6.3,14.8-3
						c4.9,3.3,6.3,9.9,3,14.8c-10.1,15.3-22.8,23.7-37.7,25C2078.6,1715.4,2077.4,1715.4,2076.1,1715.4z"/>
				</g>
			</g>
		</g>
		<g>
			<g>
				
					<ellipse transform="matrix(0.9878 -0.1559 0.1559 0.9878 -159.1593 303.2162)" class="st9" cx="1854" cy="1166.5" rx="60.8" ry="35.6"/>
			</g>
		</g>
		<g>
			<g>
				<g>
					<path class="st2" d="M1338.8,1604c-11.8-2.2-22.3-6.4-32.6-11.1c-10.2-4.8-19.8-10.4-29.1-16.6c-9.3-6.1-18.4-12.7-27.1-19.8
						c-8.7-7.2-17-14.8-24.6-23.8c-1.8-2.1-1.5-5.2,0.6-7c1.3-1.1,3-1.4,4.5-1c11.3,2.9,21.8,7.2,32.1,11.9
						c10.2,4.7,20,10,29.6,15.8c9.6,5.7,18.8,12,27.5,19.1c8.7,7.2,17,14.8,24.1,24.5c1.7,2.3,1.2,5.5-1.1,7.1
						C1341.5,1604,1340.1,1604.3,1338.8,1604z"/>
				</g>
			</g>
			<g>
				<g>
					<path class="st2" d="M1316.6,1655.1c-10.2,2.6-19.9,2.9-29.6,2.7c-9.6-0.4-19.1-1.7-28.4-3.6c-9.3-1.9-18.6-4.3-27.7-7.5
						c-9.1-3.1-18.1-6.8-26.9-12c-2.4-1.4-3.2-4.5-1.8-7c0.8-1.3,2.1-2.1,3.5-2.4c10-1.8,19.8-2.1,29.4-1.8
						c9.6,0.3,19.1,1.3,28.6,2.8c9.4,1.5,18.7,3.5,27.9,6.6c9.1,3.1,18.1,6.9,26.7,12.9c2.4,1.7,2.9,4.9,1.3,7.3
						C1318.8,1654.1,1317.7,1654.8,1316.6,1655.1z"/>
				</g>
			</g>
			<g>
				<g>
					<path class="st2" d="M1316.9,1720.1c-11.1,5.4-22.4,8.4-33.8,10.9c-11.4,2.3-22.8,3.7-34.3,4.5c-11.5,0.8-23,1.1-34.7,0.6
						c-11.6-0.5-23.3-1.5-35.1-4c-2.7-0.6-4.4-3.2-3.8-5.9c0.4-1.7,1.5-3,3-3.6c11.2-4.5,22.5-7.5,33.8-10
						c11.4-2.4,22.8-4.1,34.2-5.4c11.5-1.2,23-1.9,34.6-1.5c11.6,0.5,23.3,1.5,35.1,4.9c2.7,0.8,4.3,3.6,3.5,6.3
						C1319.1,1718.4,1318.1,1719.5,1316.9,1720.1z"/>
				</g>
			</g>
		</g>
		<g>
			<g>
				<g>
					<path class="st2" d="M2842.3,1787.6c9.2-7.7,19.2-13.1,29.3-18c10.2-4.8,20.6-8.6,31.3-11.9c10.7-3.3,21.5-6.1,32.5-8.2
						c11.1-2.1,22.3-3.7,34-3.8c2.8,0,5,2.2,5,4.9c0,1.7-0.8,3.2-2.1,4.1c-9.5,6.9-19.4,12.3-29.6,17.2c-10.1,4.9-20.5,9-31,12.7
						c-10.5,3.7-21.2,6.9-32.2,9.1c-11.1,2.1-22.3,3.6-34.3,2.9c-2.8-0.2-5-2.6-4.8-5.4C2840.5,1789.8,2841.2,1788.5,2842.3,1787.6z
						"/>
				</g>
			</g>
			<g>
				<g>
					<path class="st2" d="M2855.1,1842.1c9.8-3.8,19.4-5.2,29-6.1c9.6-0.8,19.1-0.5,28.6,0.3c9.5,0.8,19,2.1,28.4,4.2
						c9.4,2,18.8,4.7,28.1,8.8c2.6,1.1,3.7,4.1,2.6,6.7c-0.6,1.4-1.8,2.4-3.2,2.8c-9.7,3-19.4,4.4-29,5.2c-9.6,0.9-19.2,1-28.7,0.6
						c-9.5-0.3-19-1.3-28.4-3.3c-9.4-2.1-18.8-4.7-28-9.7c-2.5-1.4-3.5-4.6-2.1-7.1C2853,1843.3,2854,1842.5,2855.1,1842.1z"/>
				</g>
			</g>
			<g>
				<g>
					<path class="st2" d="M2841.7,1905.6c12.3-0.5,23.9,1.3,35.3,3.7c11.3,2.4,22.4,5.8,33.2,9.8c10.8,3.9,21.5,8.3,32,13.4
						c10.4,5.1,20.7,10.7,30.5,17.8c2.2,1.6,2.7,4.7,1.1,6.9c-1,1.4-2.6,2.1-4.2,2c-12.1-0.4-23.6-2.2-35-4.5
						c-11.4-2.3-22.5-5.4-33.5-8.9c-11-3.5-21.8-7.6-32.2-12.6c-10.4-5.1-20.7-10.8-30.2-18.7c-2.2-1.8-2.4-5-0.7-7.2
						C2838.9,1906.3,2840.3,1905.7,2841.7,1905.6z"/>
				</g>
			</g>
		</g>
		<g>
			<g>
				<g>
					<g>
						<path class="st2" d="M2460.7,1647.4c-4.7-52.4-43.5-92-86.7-88.5c-43.1,3.5-74.3,48.7-69.6,101.1c4.7,52.3,43.5,92,86.7,88.5
							C2434.3,1745,2465.4,1699.7,2460.7,1647.4z"/>
					</g>
					<g>
						<path class="st2" d="M2385.9,1751.3c-42.3,0-79.4-39.6-84.1-91.1c-2.6-29.1,5.6-57.4,22.5-77.5c13.1-15.6,30.7-25,49.5-26.5
							c44.6-3.6,84.7,37.2,89.5,90.9l0,0c2.6,29.1-5.6,57.4-22.5,77.4c-13.1,15.6-30.7,25-49.5,26.5
							C2389.6,1751.2,2387.7,1751.3,2385.9,1751.3z M2379.3,1561.3c-1.7,0-3.3,0.1-5,0.2c-17.4,1.4-33.6,10.1-45.9,24.6
							c-16,19-23.8,45.8-21.3,73.6c4.6,50.8,42.2,89.4,83.8,86.1c17.4-1.4,33.6-10.1,45.9-24.6c16-19,23.8-45.8,21.3-73.6l0,0
							C2453.7,1598.8,2418.9,1561.3,2379.3,1561.3z"/>
					</g>
				</g>
			</g>
			<g>
				<g>
					<path class="st13" d="M2402.9,1626c-2-22.6-18-39.7-35.7-38.3c-17.7,1.4-30.3,20.9-28.3,43.5s18,39.7,35.7,38.3
						C2392.2,1668,2404.9,1648.6,2402.9,1626z"/>
				</g>
				<g>
					<path class="st2" d="M2372.5,1671.9c-18,0-33.9-17.7-36-40.5c-1.2-13.3,2.4-26,9.9-35c5.6-6.6,12.7-10.4,20.5-11.1
						c19-1.6,36.1,16.6,38.2,40.5l0,0c1.2,13.3-2.4,26-9.9,35c-5.6,6.6-12.7,10.4-20.5,11.1
						C2374,1671.8,2373.3,1671.9,2372.5,1671.9z M2369.2,1590c-0.6,0-1.2,0-1.9,0.1c-6.6,0.5-12.5,3.8-17.3,9.4
						c-6.7,8-9.9,19.4-8.8,31.5c1.9,21.2,16.8,37.5,33.1,36.2c6.6-0.5,12.5-3.8,17.3-9.4c6.7-8,9.9-19.4,8.8-31.5
						C2398.6,1605.7,2384.8,1590,2369.2,1590z"/>
				</g>
			</g>
		</g>
	</g>
</g>
</svg>
