<?xml version="1.0" encoding="utf-8"?>
<!-- Generator: Adobe Illustrator 25.2.0, SVG Export Plug-In . SVG Version: 6.00 Build 0)  -->
<svg version="1.1"
	 id="svg2" inkscape:version="0.48.2 r9819" sodipodi:version="0.32" xmlns:cc="http://creativecommons.org/ns#" xmlns:dc="http://purl.org/dc/elements/1.1/" xmlns:inkscape="http://www.inkscape.org/namespaces/inkscape" xmlns:rdf="http://www.w3.org/1999/02/22-rdf-syntax-ns#" xmlns:sodipodi="http://sodipodi.sourceforge.net/DTD/sodipodi-0.dtd" xmlns:svg="http://www.w3.org/2000/svg"
	 xmlns="http://www.w3.org/2000/svg" xmlns:xlink="http://www.w3.org/1999/xlink" x="0px" y="0px" viewBox="0 0 4096 4096"
	 style="enable-background:new 0 0 4096 4096;" xml:space="preserve">
<style type="text/css">
	.st0{fill-rule:evenodd;clip-rule:evenodd;fill:#02E9B8;}
	.st1{fill-rule:evenodd;clip-rule:evenodd;fill:#000072;}
	.st2{fill-rule:evenodd;clip-rule:evenodd;fill:#BC9615;}
	.st3{fill-rule:evenodd;clip-rule:evenodd;fill:#E9C000;}
	.st4{fill-rule:evenodd;clip-rule:evenodd;fill:#FFFFFF;}
	.st5{fill-rule:evenodd;clip-rule:evenodd;fill:#E8BF00;}
	.st6{fill-rule:evenodd;clip-rule:evenodd;fill:#748792;}
	.st7{fill-rule:evenodd;clip-rule:evenodd;fill:#43525E;}
	.st8{fill-rule:evenodd;clip-rule:evenodd;fill:#455866;}
	.st9{fill-rule:evenodd;clip-rule:evenodd;fill:#455763;}
	.st10{fill-rule:evenodd;clip-rule:evenodd;fill:#798088;}
	.st11{fill-rule:evenodd;clip-rule:evenodd;fill:#E7BF00;}
	.st12{fill-rule:evenodd;clip-rule:evenodd;fill:#EBEEF1;}
	.st13{fill-rule:evenodd;clip-rule:evenodd;fill:#BB9715;}
	.st14{fill-rule:evenodd;clip-rule:evenodd;fill:#BB9815;}
	.st15{fill-rule:evenodd;clip-rule:evenodd;fill:#495765;}
	.st16{fill-rule:evenodd;clip-rule:evenodd;fill:#F3F7F8;}
	.st17{fill-rule:evenodd;clip-rule:evenodd;fill:#FFFCEE;}
	.st18{fill-rule:evenodd;clip-rule:evenodd;fill:#EFF2F5;}
</style>
<rect class="st0" width="4096" height="4096"/>
<defs>
	
		<inkscape:perspective  id="perspective10" inkscape:persp3d-origin="372.04724 : 350.78739 : 1" inkscape:vp_x="0 : 526.18109 : 1" inkscape:vp_y="0 : 1000 : 0" inkscape:vp_z="744.09448 : 526.18109 : 1" sodipodi:type="inkscape:persp3d">
		</inkscape:perspective>
	
		<inkscape:perspective  id="perspective2392" inkscape:persp3d-origin="372.04724 : 350.78739 : 1" inkscape:vp_x="0 : 526.18109 : 1" inkscape:vp_y="0 : 1000 : 0" inkscape:vp_z="744.09448 : 526.18109 : 1" sodipodi:type="inkscape:persp3d">
		</inkscape:perspective>
</defs>
<sodipodi:namedview  bordercolor="#666666" borderopacity="1.0" gridtolerance="10000" guidetolerance="10" id="base" inkscape:current-layer="layer6" inkscape:cx="1492.7692" inkscape:cy="1942.488" inkscape:document-units="px" inkscape:pageopacity="0.0" inkscape:pageshadow="2" inkscape:window-height="1058" inkscape:window-maximized="1" inkscape:window-width="1920" inkscape:window-x="-8" inkscape:window-y="-8" inkscape:zoom="0.16" objecttolerance="10" pagecolor="#ffffff" showgrid="false" showguides="true">
	<inkscape:grid  enabled="true" id="grid3209" type="xygrid" visible="true"></inkscape:grid>
</sodipodi:namedview>
<g>
	<path class="st1" d="M1918.6,864.3c-30.1,35.9-48.1,33.1-71.7,75.7l214.4,52.3c-51.7,116.8-91.4,38.3-371.8,119.8
		c-61.3,17.8-123.8,42.6-170.8,74.4c-89.3,60.5-53.5,79-91,166.7c-10.9,25.4-75.8,77.6-110.3,135.1
		c-32.7,54.7-51.6,119.7-51.3,194.9c0.6,175.4,91.1,249,175.7,327.5c-14.6,46.3-48.6,66.4-77.7,109.2
		c-90,132.5-125,272.1-143.9,441.2c-234.8,48.2-207.7,326.5-47.2,384.7c40.8-28,54.9-46.7,95.2-81.2c-4.7-91.8-46.6-129.3,83-107.5
		c-0.4,67.7-15.8,54.5-27.4,110.5l104.3,81.6c259.8-195.7,44.7-338.4,24.9-365.3c20.2-55.9,44.5-97,80.9-125.8
		c38.7,98.9,40.1,93.8,94,162.4c54.7,69.6,23,377.2,422,371.3c164.5-2.4,282.8-76.2,333.5-191.7c29.2-66.6,32.6-143.2,70.5-186.8
		c57.9-66.7,62.1-121.9,99.1-166.7c39.4,32.9,77.8,86.4,90.3,149c-48.8,46.2-121.3,80.1-97.5,194.2
		c14.7,70.5,89.9,146.6,135.5,166.3c27.1-29.3,58.2-54.9,92.4-91.4c-13.2-46.2-67.7-102.5,13.6-109.3c90.5-7.6,48.2,57.7,39.7,109.3
		c23,24.8,74.5,68.9,100.4,83.9c72.4-32.8,133.7-104.4,117.6-223.6c-16.7-123.2-89.7-119.3-170-168.3
		c-11.5-118.8-37.9-224-78.9-321.1c-52-123.3-110.7-158.4-160.4-236.5c22.7-29.4,36.7-31.1,62.4-53.8c184.3-162.4,213-404,84-596.5
		c-114.8-171.4-455.4-263.9-670.5-289.9l32-99c-38.1-8.4-72.4-14.4-111-20.6c-38.3-6.1-82.4-7.8-111.3-30.3
		c57.1-46.9,124.5,62.4,232.2-34.7c155.5-140-63.5-370.4-213.5-238.1C1860.1,706.7,1888.2,776.8,1918.6,864.3 M2004.7,663.1
		c129.3-64.6,199.8,141.9,81.2,190.6C1964.7,903.5,1870.9,729.9,2004.7,663.1z M1630.2,1297.7l-81.2,12.6l-55.3,14.1
		c18.3-93.7,67.9-107.7,151.4-139.5c219.7-83.8,473.2-99.4,693.2-23.1c-241,49-293,217.7-354.9,342.8
		C1925.3,1388,1809.1,1308.1,1630.2,1297.7z M2042.9,1523.4c15.1-167.5,182.3-312.6,369.9-316.2c211.5-4.1,334.1,132.6,385.1,288.8
		l28.7,61.2c2.2,11.9,2.2,45.7,0.7,67.1c-15.5,225-187.4,389.2-426.6,375.4c-12.4-0.7-95.3-6-100.4-18.5c-1.7-4.1-6.3-2.9-9.2-4.9
		c-93.7-30.8-163.4-96.7-204.3-166.1C2051.4,1750.4,1984.5,1593.1,2042.9,1523.4z M1311.9,1667.4c21.3-103.9,31.3-156,93.4-219.8
		c120.2-123.5,303.3-133.1,443.3-31.1c70.9,51.7,73.7,86,117.5,173c21.5,29,22.8,51.2,23.6,55c0.2,0.7,1.9,44.9,1.9,51.6
		c-0.1,44.1-0.9,60.8-14.9,100.5c-22.2,62.6-54.5,107.9-92.1,141.9c-60.9,55-258.9,132.9-347.7,58.1
		C1412.1,1967.1,1310.1,1833.2,1311.9,1667.4z M1594.4,2461c-31.3-86.7-76-317.4-85.2-417.5c67,12.3,102.9,25.5,178.9,17.9
		c61.4-6.1,91.8-28.8,138.2-36.4c34.5-36.9,74.3-57.4,112.7-102.2c30.4-35.5,45.9-92.1,76.2-134c33,36.2,54.4,85.8,88.1,122
		c141.8,152.5,299.4,143.2,472.1,110.2c-6.1,113.6-44.1,298.4-77.7,402.6c-44.3,137.6-99.1,201.5-229.2,249.6
		c-124.4,46-281.2,50.8-413.6,13.3C1716.4,2647.3,1632.1,2585.2,1594.4,2461z M1439.8,2162c44.9,32.7,39,31.7,53.1,96.4
		c8.4,40.4,44.8,153.2-6.4,156.7c-65.4,4.5,32.5,6.3-16.3,0l-89.9-41.4l-31.7-21.9l-33.2-15.9c2.5-52.8,39.8-127.8,69.7-171.5
		c1.4-2.1,14.8-19.8,15.2-20.2c13.6-15.1,4.2-5.5,19.7-16.4L1439.8,2162z M2706.1,2383.6l-94.6,44.7l-46.2-43.5l34.4-152.9
		c10.7-20,63.2-86.6,82.2-103.1c50.6,39.9,81.4,125.5,102.1,197.6C2757.4,2357.3,2745.4,2364.4,2706.1,2383.6z M1339.3,2590.7
		l-56-20.4c-17.4-13.6-27.8,18.8-6.8-104.6c6-35.1,13.4-67.5,18.7-102.7l38.8,19.3l49.9,23.9c25.2,12.4,51.3,24.6,81.8,35.9
		l-70.6,156.3L1339.3,2590.7z M2707,2418.2l88.1-53.1c19.6,58,39.3,150.4,33.5,213.2l-76.7,21.4l-46.6,6.5
		c-15.7-28.7-60.4-129.4-69.2-152.9L2707,2418.2z M1199.8,2846.4l-37.4,21.1c-126.9-122.9,7.2-296.3,130.1-240.8
		c335.6,41,164.9,236.8,122.6,230.9c-19.3-39.8,11.1-68.1-4.8-113.4c-11.6-33.1-45.4-50.4-86.5-54.4
		C1203.9,2678.2,1186.4,2739.1,1199.8,2846.4z M2774.2,2644.5c12.4-8.4-11.1-3,25.7-14l87.9,3.7c110.7,36,118.2,176,38.4,240.7
		l-26.8-19.8c-11.6-36.2,36.2-175.9-135.5-156.7c-143.1,16-59.3,121.4-86.5,173.1C2595,2866.4,2512.4,2645.4,2774.2,2644.5z
		 M2251.8,2736.5l112.2-45.2c-54,355-572,295.6-630.6,76.4l-21.7-77.2C1953,2769.7,1977.5,2784,2251.8,2736.5z"/>
	<path class="st2" d="M1826.3,2025c41.1,27.4,68.5,75.2,119.1,113.9c116.4,89.1,362.2,218,310.6,357.3
		c-47.1,126.9-362.6,152.5-532.3,63.3c-65-34.2-68.8-40.8-115.3-85.4l-14-13.1c37.7,124.2,122,186.4,260.4,225.6
		c132.4,37.5,289.2,32.7,413.6-13.3c130.1-48.1,184.9-112,229.2-249.6c33.6-104.2,71.6-289,77.7-402.6
		c-172.7,33-330.3,42.2-472.1-110.2c-33.7-36.2-55.1-85.8-88.1-122c-30.3,41.9-45.8,98.5-76.2,134
		C1900.7,1967.6,1860.8,1988.1,1826.3,2025"/>
	<path class="st3" d="M1594.4,2461l14,13.1c46.5,44.6,50.3,51.3,115.3,85.4c169.7,89.2,485.2,63.6,532.3-63.3
		c51.6-139.2-194.2-268.2-310.6-357.3c-50.6-38.7-78-86.5-119.1-113.9c-46.4,7.6-76.8,30.3-138.2,36.4c-76,7.6-111.9-5.6-178.9-17.9
		C1518.5,2143.6,1563.1,2374.2,1594.4,2461"/>
	<path class="st4" d="M2712.3,1659.7c40.6-176.1-94.1-324-230.5-351.5c-183.1-36.9-327.2,95.1-353.3,240.9
		C2060.2,1929.6,2621.2,2055,2712.3,1659.7 M2567.7,1554.4c43.6,167.9-135.5,270.2-249.5,164.9c-112.6-104-25.4-305.8,148-265
		c-22.9,41.3-20.4,46.2-9.5,92.5C2533.7,1579.9,2531.7,1534.6,2567.7,1554.4z"/>
	<path class="st4" d="M1590,1438.5c-351.4,102.1-183,573.7,120.2,489.3C2031.6,1838.4,1892.2,1350.6,1590,1438.5 M1767.2,1634
		c24.5,163-117,235.4-210.1,144.6c-92.8-90.6-17.2-250.5,125.2-219.2C1634.2,1651.4,1701.3,1645.2,1767.2,1634z"/>
	<path class="st5" d="M1549,1310.3c18.3-62.4,44.5-69.1,105.9-92.5c47.8-18.2,97.7-41.3,147-48.1c-46.1,45.6-134.9,62.2-171.8,128
		c178.9,10.4,295.1,90.2,353.2,206.9c61.9-125.1,113.9-293.8,354.9-342.8c-220-76.3-473.5-60.7-693.2,23.1
		c-83.5,31.8-133.1,45.8-151.4,139.5L1549,1310.3z"/>
	<path class="st1" d="M2576.1,1907.4c32.7-49.6,57.4-34.8,108.1-93.6c113.2-131.4,91.8-315.8-21.6-447.7
		c-166.7-197.6-509.5-98.4-569.8,160.6c-35.7,153.5,42.5,282.6,121,344C2323.3,1956.2,2440.3,1958.9,2576.1,1907.4 M2712.3,1659.7
		c-91.1,395.3-652.1,269.9-583.8-110.6c26.2-145.8,170.2-277.8,353.3-240.9C2618.1,1335.7,2752.8,1483.6,2712.3,1659.7z"/>
	<path class="st1" d="M2567.7,1554.4c-36.1-19.8-34.1,25.5-111-7.7c-10.9-46.3-13.4-51.2,9.5-92.5c-173.4-40.7-260.6,161.1-148,265
		C2432.3,1824.6,2611.3,1722.3,2567.7,1554.4"/>
	<path class="st1" d="M1690.1,1969.5c24-14.8,218.6-33.7,243.1-251.9c8.4-74.5-13.3-150-44.6-200c-47.9-76.6-83.6-59.7-154-107.5
		c-191.5-91.1-358.8,81-378.1,237.5C1332.8,1838.7,1496.6,2006,1690.1,1969.5 M1590,1438.5c302.2-87.9,441.6,399.9,120.2,489.3
		C1407,2012.1,1238.7,1540.6,1590,1438.5z"/>
	<path class="st6" d="M2042.9,1523.4c-58.4,69.7,8.5,227,43.9,286.9c40.9,69.4,110.7,135.2,204.3,166.1c108,12.8,226.5-14.3,285-69
		c-135.8,51.5-252.8,48.8-362.3-36.7c-78.5-61.3-156.7-190.4-121-344c60.3-258.9,403.1-358.2,569.8-160.6
		c0.6-37.6-6.2-12.6,18.5-20.1c-145.6-193.1-592.8-120.6-636,209.7L2042.9,1523.4z"/>
	<path class="st1" d="M1686.3,3192.1c95.4,62.4,631.1,66.1,726,0c-41.8-83.9-554.2-55.3-655.9-37.1
		C1712.5,3162.9,1703,3161.2,1686.3,3192.1"/>
	<path class="st7" d="M2251.8,2736.5c28.2,16.3,25.6,0.1-10.2,36.4c-50.4,51-153.2,81.3-233,66.5l-56.2,0.1
		c-101.5,16-73.5-17-100.9-54.2c-87.6,32.8,5.3,50.7-118.1-17.6c58.7,219.1,576.6,278.6,630.6-76.4L2251.8,2736.5z"/>
	<path class="st8" d="M2662.6,1366.1c113.5,131.9,134.8,316.3,21.6,447.7c-50.7,58.9-75.5,44-108.1,93.6c-58.5,54.7-177,81.8-285,69
		c2.9,1.9,7.5,0.7,9.2,4.9c5.1,12.5,88,17.8,100.4,18.5c239.2,13.8,411.1-150.4,426.6-375.4c1.5-21.4,1.5-55.3-0.7-67.1l-28.7-61.2
		l-6.1,33.8c-17.2-83.9-61.5-140.5-110.7-183.8C2656.3,1353.5,2663.2,1328.5,2662.6,1366.1"/>
	<path class="st1" d="M1767.2,1634c-65.9,11.2-133,17.4-84.8-74.6c-142.5-31.3-218,128.6-125.2,219.2
		C1650.2,1869.4,1791.8,1797,1767.2,1634"/>
	<path class="st9" d="M1690.1,1969.5c-16.1,13.8,3.9,5.3-33,20.3c-13.1,5.3-25,7.6-39.9,9.4c-35.3,4.3-46.2,2.8-80.3-2.6
		c88.8,74.8,286.8-3.1,347.7-58.1c37.6-34,69.9-79.3,92.1-141.9c14.1-39.7,14.9-56.4,14.9-100.5c0-6.7-1.8-50.9-1.9-51.6
		c-0.8-3.8-2.1-26-23.6-55l-1.3,55.3c-27.3-105.4-93.4-225.1-203.5-234.4l-26.8-0.4c70.4,47.8,106.1,30.9,154,107.5
		c31.3,50.1,53,125.6,44.6,200C1908.7,1935.8,1714.1,1954.7,1690.1,1969.5"/>
	<path class="st10" d="M1733.3,2767.7c123.5,68.3,30.5,50.4,118.1,17.6c27.5,37.2-0.6,70.2,100.9,54.2l56.2-0.1
		c79.8,14.8,182.6-15.5,233-66.5c35.9-36.3,38.4-20.1,10.2-36.4c-274.3,47.5-298.7,33.2-540.2-46L1733.3,2767.7z"/>
	<path class="st11" d="M2004.7,663.1c-133.8,66.8-40,240.4,81.2,190.6C2204.5,805,2134,598.5,2004.7,663.1 M2054,712.4l54,4.4
		l-2.5,54.6l-56.6-2.9L2054,712.4z"/>
	<path class="st6" d="M1311.9,1667.4c-1.7,165.7,100.2,299.7,225,329.3c34.1,5.3,45.1,6.9,80.3,2.6c15-1.8,26.8-4.1,39.9-9.4
		c36.9-15,16.9-6.5,33-20.3c-193.5,36.5-357.3-130.8-333.7-322c19.3-156.5,186.6-328.6,378.1-237.5l26.8,0.4
		c-64.3-80.7-238.9-17.9-299.2,24c-23.5,16.3-78,75.1-94.7,103.1C1342.1,1580.3,1332,1632.7,1311.9,1667.4"/>
	<path class="st11" d="M2899.4,2855.1c2.7-1.5,40.6,7.4,30.6-83.8c-9.3-84.4-64.9-125.2-155.9-126.8
		c-261.7,0.9-179.1,221.9-96.7,227c27.2-51.7-56.6-157.1,86.5-173.1C2935.7,2679.1,2887.8,2818.8,2899.4,2855.1"/>
	<path class="st11" d="M1199.8,2846.4c-13.4-107.3,4-168.2,124-156.5c41.1,4,74.9,21.2,86.5,54.4c15.9,45.4-14.6,73.7,4.8,113.4
		c42.3,5.9,213-190-122.6-230.9c-21.7,17.5-4.1,5.1-32,20.6c-40.1,22.4-96.2,43.9-94.9,135.7
		C1166.4,2834.5,1167.6,2832.9,1199.8,2846.4"/>
	<path class="st10" d="M2599.6,2231.9c9.6,40.2,28.9,54.8,46.8,83.1c9.2,14.5,12,24,20.7,37.5c31.1,48.4-2.6,21.7,39,31.1
		c39.3-19.3,51.4-26.4,77.9-57.2c-20.7-72.1-51.5-157.7-102.1-197.6C2662.8,2145.3,2610.4,2212,2599.6,2231.9"/>
	<path class="st12" d="M2042.9,1523.4l2.2,32.4c43.2-330.3,490.4-402.8,635.9-209.7c49.2,43.2,93.5,99.9,110.7,183.8l6.2-33.8
		c-51.1-156.2-173.6-292.9-385.1-288.8C2225.1,1210.8,2057.9,1355.9,2042.9,1523.4"/>
	<path class="st12" d="M1311.9,1667.4c20.1-34.7,30.2-87.1,55.6-129.8c16.7-28,71.2-86.7,94.7-103.1c60.3-41.9,234.9-104.7,299.2-24
		c110.1,9.3,176.2,129,203.5,234.4l1.3-55.3c-43.8-87.1-46.6-121.3-117.5-173c-140-102.1-323.1-92.4-443.3,31.1
		C1343.2,1511.4,1333.1,1563.5,1311.9,1667.4"/>
	<path class="st10" d="M2707,2418.2l44.9,181.5l76.7-21.4c5.8-62.8-13.8-155.2-33.5-213.2L2707,2418.2z"/>
	<path class="st13" d="M1199.8,2846.4c-32.2-13.6-33.5-12-34.2-63.3c-1.3-91.8,54.8-113.3,94.9-135.7c27.9-15.6,10.3-3.1,32-20.6
		c-122.9-55.5-257,117.9-130.1,240.8L1199.8,2846.4z"/>
	<path class="st10" d="M1348.6,2351.9l31.7,21.9c56.7,8.5,8.5,7,34-16.5c0.3-0.3,22.1-33.5,23.3-35.5c21.8-36.4,20.9-38.8,55.3-63.5
		c-14.1-64.7-8.2-63.7-53.1-96.4L1348.6,2351.9z"/>
	<path class="st14" d="M2899.4,2855.1l26.8,19.8c79.7-64.7,72.3-204.7-38.4-240.7l-87.9-3.7c-36.8,11.1-13.3,5.6-25.7,14
		c91,1.6,146.6,42.4,155.9,126.8C2940,2862.5,2902.1,2853.6,2899.4,2855.1"/>
	<path class="st9" d="M1339.3,2590.7l55.8,7.7l70.6-156.3c-30.5-11.3-56.6-23.5-81.8-35.9L1339.3,2590.7z"/>
	<path class="st9" d="M2706.1,2383.6c-41.6-9.3-7.9,17.4-39-31.1c-8.7-13.5-11.5-23-20.7-37.5c-17.9-28.3-37.2-42.9-46.8-83.1
		l-34.4,152.9l46.2,43.5L2706.1,2383.6z"/>
	<path class="st15" d="M2751.9,2599.7l-44.9-181.5l-71,35.1c8.8,23.5,53.5,124.2,69.2,152.9L2751.9,2599.7z"/>
	<path class="st16" d="M1348.6,2351.9l91.2-189.8l-19.9-34.1c-15.4,10.8-6,1.3-19.7,16.4c-0.3,0.4-13.7,18.1-15.2,20.2
		c-29.9,43.7-67.2,118.7-69.7,171.5L1348.6,2351.9z"/>
	<path class="st9" d="M1380.3,2373.8l89.9,41.4c48.8,6.2-49.1,4.4,16.3,0c51.2-3.5,14.8-116.4,6.4-156.7
		c-34.4,24.6-33.5,27.1-55.3,63.5c-1.1,1.9-22.9,35.2-23.3,35.5C1388.8,2380.8,1437,2382.3,1380.3,2373.8"/>
	<polygon class="st10" points="1283.3,2570.3 1339.3,2590.7 1383.8,2406.3 1333.9,2382.3 1296.6,2561.3 	"/>
	<path class="st17" d="M1549,1310.3l81.2-12.6c36.8-65.8,125.6-82.4,171.8-128c-49.4,6.8-99.3,30-147,48.1
		C1593.5,1241.2,1567.3,1247.9,1549,1310.3"/>
	<path class="st18" d="M1283.3,2570.3l13.4-9.1l37.3-178.9l-38.8-19.3c-5.4,35.1-12.8,67.6-18.7,102.7
		C1255.5,2589.1,1265.9,2556.8,1283.3,2570.3"/>
	<polygon class="st17" points="2048.9,768.6 2105.5,771.5 2108,716.8 2054,712.4 	"/>
</g>
</svg>
