<svg id="Layer_1" data-name="Layer 1" xmlns="http://www.w3.org/2000/svg" xmlns:xlink="http://www.w3.org/1999/xlink" viewBox="0 0 110 110"><defs><style>.cls-1{fill:url(#New_Gradient_Swatch_14);}.cls-2{fill:url(#New_Gradient_Swatch_14-2);}.cls-3{fill:url(#New_Gradient_Swatch_14-3);}.cls-4{fill:url(#New_Gradient_Swatch_14-4);}.cls-5{fill:url(#New_Gradient_Swatch_14-5);}</style><radialGradient id="New_Gradient_Swatch_14" cx="52.37" cy="14.34" r="26.72" gradientUnits="userSpaceOnUse"><stop offset="0.11" stop-color="#e5007e"/><stop offset="1" stop-color="#fcce00"/></radialGradient><radialGradient id="New_Gradient_Swatch_14-2" cx="122.49" cy="78.07" r="114.99" xlink:href="#New_Gradient_Swatch_14"/><radialGradient id="New_Gradient_Swatch_14-3" cx="68.89" cy="9" r="51.06" xlink:href="#New_Gradient_Swatch_14"/><radialGradient id="New_Gradient_Swatch_14-4" cx="122.49" cy="78.07" r="114.99" xlink:href="#New_Gradient_Swatch_14"/><radialGradient id="New_Gradient_Swatch_14-5" cx="81.63" cy="94.47" r="114.27" xlink:href="#New_Gradient_Swatch_14"/></defs><polygon class="cls-1" points="43.98 18.24 43.98 27.41 47.57 27.41 47.57 14.64 43.98 18.24"/><polygon class="cls-2" points="66.02 18.24 66.02 27.41 62.43 27.41 62.43 14.64 66.02 18.24"/><polygon class="cls-3" points="62.43 14.64 55 14.64 47.57 14.64 43.98 18.24 55 18.24 66.02 18.24 62.43 14.64"/><path class="cls-4" d="M85.34,81.11l-7.07-53.7H62.43v5.83l-5.84-5.83H31.73l-7.07,53.7a4.19,4.19,0,0,0,4.15,4.73H81.19A4.19,4.19,0,0,0,85.34,81.11ZM55,67.12l-6.45,3.43L55,56.62l6.45,13.93Zm7-3.38-1.64-3.53a6.46,6.46,0,1,0-10.74,0L48,63.74a10,10,0,1,1,14,0Z"/><path class="cls-5" d="M62.43,27.41v5.83l-5.84-5.83H31.73l-7.07,53.7a4.19,4.19,0,0,0,4.15,4.73H55a43.17,43.17,0,0,0,7.44-58.43ZM55,67.12l-6.45,3.43L55,56.62l6.45,13.93Zm5.37-6.91a6.46,6.46,0,1,0-10.74,0L48,63.74a10,10,0,1,1,14,0Z"/></svg>