<?xml version="1.0" encoding="utf-8"?>
<!-- Generator: Adobe Illustrator 25.2.0, SVG Export Plug-In . SVG Version: 6.00 Build 0)  -->
<svg version="1.1" id="Calque_1" xmlns="http://www.w3.org/2000/svg" xmlns:xlink="http://www.w3.org/1999/xlink" x="0px" y="0px"
	 viewBox="0 0 300 300" style="enable-background:new 0 0 300 300;" xml:space="preserve">
<style type="text/css">
	.st0{fill:#FFE7D2;}
	.st1{fill-rule:evenodd;clip-rule:evenodd;fill:#575756;}
	.st2{fill-rule:evenodd;clip-rule:evenodd;fill:#C09162;}
	.st3{fill-rule:evenodd;clip-rule:evenodd;fill:#FFFFFF;}
</style>
<rect x="0.4" y="0.4" class="st0" width="299.6" height="299.6"/>
<g>
	<g>
		<path class="st1" d="M215.8,65.4c-31.8,31.3-21.1,42.8-25,80.9c-4.3,42.6-43.6,10.9-58.5,51.3c-10.7,29.1,15.7,47.1,38,46.5
			c38.3-1,33.5-49.2,1.2-31.3c-11.3,6.3,4-18.7,23.6-14.7c20.1,4,28.9,19.4,24.9,33.7c-5.1,18.1-20.2,28.2-38.5,32.6
			c-11.9,2.9-23.3,3.9-34,3.4C7.8,251.3,19,44.8,137.5,32.9C193.3,27.2,229.4,52,215.8,65.4z"/>
		<path class="st2" d="M225.7,192.8c11,2.5,17.6-2.4,17.2-10.9c-0.3-5.5-0.5-11.1-0.8-16.6c4.7-7.5,5.2-5.3-0.8-12.1
			c0,0,4.2-1.9,6.7-5.1c2.5-3.3-4.5-8.7-3.6-10.2c0.9-1.4,13.4-9.5,9-10.5c-4.4-1-22.1-17.5-25-26.3c-5.1-15.1-8.1-27.1-12.6-35.8
			c-32.4,30.6-21.1,42.7-25,80.9c-4.3,42.6-43.6,10.9-58.5,51.3c-10.6,28.6,15,46.5,37,46.5C138.8,212.3,157,177,225.7,192.8z"/>
		<path class="st3" d="M217.5,64.9c-24,22.9-16.4,18.6-22.1,44.2c-12.5,55.6-87.9,90.3-113.8,44.9c-5.8-10.1-10.4-30.6,1.3-45.9
			l5.1-5.3l-1.2,5.5c-4.7,19.4,0.2,31.1,12.7,41.5c11.9,10,33.6,11.6,54.7-2.3c31.9-21,26.5-46.5,40-66.1
			C200.7,71.8,207.7,68.1,217.5,64.9z"/>
		<path class="st3" d="M200.6,82.4c-9.4,30.6-5.2,30.4-7.1,58.7c-1.7,26.5-18,34.6-38.7,44.6c-36,17.3-21.9,60.3,25,54.4l7.9-1.1
			l-6.8,4.7c-20.9,10.4-52.9-1.8-57.8-26.5c-4.3-21.6,12-39.7,31.3-47.2c34.7-13.5,25.9-27.6,31.8-58.3
			C189.5,95.5,190.4,94.5,200.6,82.4z"/>
	</g>
</g>
</svg>
