<?xml version="1.0" encoding="utf-8"?>
<!-- Generator: Adobe Illustrator 23.0.1, SVG Export Plug-In . SVG Version: 6.00 Build 0)  -->
<svg version="1.1" id="Layer_1" xmlns="http://www.w3.org/2000/svg" xmlns:xlink="http://www.w3.org/1999/xlink" x="0px" y="0px"
	 viewBox="0 0 195.5 139.6" style="enable-background:new 0 0 195.5 139.6;" xml:space="preserve">
<style type="text/css">
	.st0{fill:#FFFFFF;}
</style>
<g>
	<g>
		<path class="st0" d="M34.7,53.4l2.7,3.5l0.3,0.4l0.4,0.5c1.9-10.4,6.3-19.9,12.6-28c-2.1,4-3,8.2-2.6,12.4
			c-4.2,4.9-7.5,10.4-9.5,16.2l1.3,1.6c2-5.2,5-10.2,8.7-14.8c1.4,5.9,5.2,11.6,11.5,16.5c-2.7,5.2-4.8,10.5-6.4,15.8l3.6,4.5
			c1.5-5.9,3.6-12,6.3-17.9c7.1,4.5,15.7,7.6,24.9,9.2c-1.3,8.4-2.2,16.8-2.7,24.7c-0.7-0.1-1.4-0.3-2.1-0.4c0.7,0.3,1.4,0.5,2,0.8
			c1.9,0.7,3.8,1.4,5.6,2c2.2,0.8,4.4,1.5,6.6,2.2c9.1,0.4,18.4-0.3,27.1-2.3c0.2,3,0.3,5.8,0.3,8.6c0,0,0,0.1,0,0.1
			c1.9,0.3,3.7,0.5,5.5,0.8c0-0.8,0-1.5,0-2.3c0-2.8-0.1-5.6-0.3-8.6c5.7-1.7,11.1-3.9,16.1-6.7c4.2-2.3,7.7-4.9,10.7-7.7
			c0.4,2.8,0.7,5.6,0.7,8.4c0,4.4-0.6,8.4-1.7,12.1c-2.2,2-4.6,3.9-7.4,5.7c0.5,0,1.1,0,1.6,0c0.4,0,0.7,0,1.1-0.1
			c1.4-1,2.6-2.1,3.8-3.2c-0.4,1.1-0.9,2.1-1.4,3c0,0,0,0,0.1,0c0.4,0,0.7-0.1,1.1-0.1c1.6-0.2,3.2-0.4,4.7-0.6
			c7.9-11.3,12.5-25,12.5-39.8c0-38.5-31.3-69.8-69.8-69.8C89.5,0,77.2,3.6,66.8,9.9l1.3,0.1l-10.4,6.4
			C46.5,25.8,38.3,38.7,34.7,53.4z M53.9,26c1.5-1.6,3-3.2,4.7-4.7c4.1-2.7,9-4.7,14.3-5.7c-2.7,3.3-3.8,6.9-3.5,10.5
			c-7.4,3.6-13.9,8.3-19.1,13.7C49.8,35.1,51.1,30.4,53.9,26z M61.7,58.6c-6.1-4.7-9.8-10.2-11.1-15.9C55.9,37,62.3,32,69.6,28
			c0.8,3.6,3.2,7.1,7,10.1C70.9,44.3,65.8,51.3,61.7,58.6z M89,69.8c-8.8-1.5-17.1-4.4-23.9-8.8c3.8-7.5,8.4-14.8,13.7-21.4
			c4.3,2.8,9.6,4.6,15.2,5.6C92,53,90.3,61.4,89,69.8z M96.9,45.6c5.7,0.6,11.7,0.3,17.2-0.9c2.5,7.7,4.7,16,6.5,24.3
			c-8.7,2-18.1,2.4-27,1.4C94.5,61.9,95.6,53.5,96.9,45.6z M91.3,98.8c0.3-7.9,1-16.3,1.8-24.8c9.4,1,19.1,0.6,28.1-1.5
			c1.6,8.3,2.8,16.7,3.5,24.5C114,99.4,102.5,100,91.3,98.8z M116.9,44c2.9-0.9,5.7-2,8.2-3.4c2.1-1.2,3.9-2.5,5.4-3.9
			c6.1,5.9,11.5,12.6,15.9,19.7c-2.4,2.2-5.2,4.3-8.5,6.2c-3.9,2.2-8.3,4-12.9,5.3C122.8,59.6,120.1,51.5,116.9,44z M151.6,26.3
			c1.6,2.6,2.7,5.3,3.2,8.1c-5.2-4.9-11.6-8.9-18.9-11.7c-0.7-3.6-2.9-7.1-6.6-10.2c3,0.3,5.8,1,8.4,2
			C142.8,17.7,147.5,21.7,151.6,26.3z M155.2,37.3c0.3,5.7-1.8,11.4-6.2,16.5c-4.6-6.8-10.3-13.2-16.8-18.8c2.8-3.2,4.1-6.9,4-10.5
			C143.5,27.8,150,32.1,155.2,37.3z M146.2,89c-4.9,2.8-10.3,4.9-15.9,6.6c-0.8-7.8-2.3-16-4.3-24.3c4.8-1.4,9.3-3.2,13.4-5.6
			c3.5-1.9,6.4-4.1,8.9-6.4c4,7.2,7,14.7,8.5,22C153.8,84.1,150.3,86.7,146.2,89z M150.8,56.7c4.6-5.3,6.8-11.2,6.5-17.1
			c3.9,4.4,6.9,9.2,8.9,14.5c0.5,2.1,0.9,4.3,1.3,6.5c-0.4,6.1-2.9,12.2-7.7,17.7C158.2,70.9,155.1,63.6,150.8,56.7z M161,99.6
			c-0.5,0.7-1.1,1.5-1.7,2.2c1.2-3.7,1.8-7.8,1.8-12.2c0-2.8-0.2-5.5-0.7-8.3c4.4-5,6.9-10.6,7.6-16.2c0.1,1.6,0.2,3.1,0.2,4.7
			C168.2,80.5,165.5,90.7,161,99.6z M163.4,45.4c-1.8-3.2-3.9-6.1-6.5-8.9c-0.4-2.2-1.2-4.4-2.3-6.5
			C158.2,34.7,161.2,39.8,163.4,45.4z M105.1,16.7c0.1,0,0.1,0.1,0.2,0.1c7.7-3.3,15-4.8,21.5-4.6c3.4,2.8,5.4,6,6,9.2
			c-8.1-2.7-17.2-4-26.9-3.7c0,0.1,0,0.1,0,0.2c9.7,0.2,18.9,2.1,27,5.2c0.1,3.3-1.1,6.5-3.6,9.5c-7.2-5.7-15.3-10.4-23.8-13.7
			c0,0.1-0.1,0.1-0.2,0.2c8.1,3.7,15.7,8.9,22.5,15c-1.4,1.3-3,2.5-4.9,3.6c-2.3,1.3-4.8,2.3-7.4,3.1c-3.5-7.9-7.4-15.1-11.5-20.9
			c-0.1,0-0.2,0-0.3,0.1c3.3,6.1,6.4,13.4,9.2,21.5c-5,1.1-10.4,1.4-15.6,0.8c1.4-8.3,3-15.9,4.7-22.3c-0.1,0-0.2,0-0.3,0
			c-2.5,6.2-4.9,13.7-7.1,21.9c-5.1-0.9-9.9-2.6-13.8-5.1C86.9,30,93.5,24,100.4,19.4c0,0-0.1,0-0.1-0.1c0,0-0.1-0.1-0.1-0.1
			c-7.6,4.1-14.7,9.7-21.1,16.2c-3.5-2.7-5.6-5.9-6.4-9.2c8.1-4,17.2-6.8,26.8-8c0-0.1,0-0.1,0-0.2c-9.7,0.7-18.9,2.9-27,6.5
			c-0.3-3.3,0.8-6.6,3.2-9.5c7.3-1,15.5-0.4,24.2,2c0-0.1,0.1-0.1,0.1-0.2c-8.2-2.9-16-3.9-22.9-3.4c1.4-1.4,3.2-2.8,5.3-4
			c2.1-1.2,4.3-2.1,6.7-2.9c3.7,1.3,7.8,4.4,12.2,9.5c0.1,0,0.2-0.1,0.3-0.1c-3.5-5.3-6.9-8.6-9.9-10.1c5-1.2,10.4-1.6,15.6-1.1
			c-1.2,1.8-2.6,5.4-4,11.1c0.1,0,0.2,0,0.3,0c2.3-5.5,4.5-9.1,6.4-10.8c5.5,0.8,10.8,2.7,14.9,5.5c0.8,0,1.6,0,2.3,0
			c-4.6-3.1-10.4-5.1-16.5-6.1c0,0,0,0,0.1,0c8.3,1,16.1,3.6,23.2,7.4C126,9.8,116,11.1,105.1,16.7z M97.8,4.4
			c-2.5,0.2-5,0.6-7.3,1.2c-0.2-0.1-0.3-0.1-0.5-0.1C92.5,5,95.2,4.6,97.8,4.4z M86.7,6.2c0.3,0,0.7,0.1,1,0.2
			c-2.6,0.8-5.1,1.9-7.4,3.2c-2.3,1.3-4.3,2.8-5.9,4.4c-4.1,0.6-7.8,1.8-11.2,3.5C70.1,12.2,78,8.3,86.7,6.2z"/>
		<path class="st0" d="M124.5,131.6c1.9-1.8,3.5-4.7,4.5-8.6c-1.6-0.2-3.2-0.5-4.8-0.8c-1.5-0.3-3-0.5-4.5-0.8
			c-9.3,1.6-19,1.9-28.4,0.8c-0.2-2.5-0.3-5.2-0.3-8.3c-1.9-0.6-3.9-1.3-5.8-2c0,3.6,0.2,6.8,0.5,9.5c-10.8-1.8-21-5.4-29.3-10.8
			c-0.9-3.5-1.4-7.4-1.4-11.8c-0.7-0.3-1.3-0.7-2-1l-2.2-0.2c0.1,3.7,0.6,7.1,1.5,10.2c-3.3-2.6-6.1-5.4-8.3-8.3
			c-0.4-0.9-0.9-1.7-1.3-2.6l-0.5,0l-0.5,0L38,96.3c10.5,25.4,35.5,43.3,64.6,43.3c16.3,0,31.3-5.6,43.2-15
			c-2.2-0.1-4.3-0.2-6.5-0.4C134.7,127.2,129.8,129.7,124.5,131.6z M124.2,122.6c-0.9,5-2.4,8.4-4.2,10.3
			c-8.5,1.9-17.6,2.4-26.3,1.4c-0.9-1.8-1.6-5.1-2.1-10C102.4,125.6,113.7,125,124.2,122.6z M86,123.6c0.7,4.9,1.7,8.3,3.1,10.2
			c-1.8-0.3-3.7-0.7-5.5-1.2c-8.3-2.5-15.9-6.6-22.4-11.9c-1.7-2.2-3.1-4.8-4.1-7.7C65.3,118.2,75.4,121.8,86,123.6z M46.6,103.9
			c1.8,2.2,4,4.3,6.6,6.2c0.8,2.2,1.9,4.2,3.1,6C52.5,112.4,49.3,108.3,46.6,103.9z"/>
	</g>
	<g>
		<path class="st0" d="M188.8,77.9l2.3-4.1l3.1-5.5l-21-13.4c0,0,0,0,0,0c2.4,5.2,4.1,11.2,5.2,16.8c0,0,0,0,0,0c0,0,0,0,0,0
			c2.2,10.7,2.6,20.2,2.6,20.2l3.9-7c3.3,11.9-1.8,21.6-14.6,26.3c-1.8,0.7-3.7,1.2-5.8,1.7c-2.7,0.6-5.5,1.2-8.3,1.6
			c-1.6,0.2-3.3,0.4-5,0.6c-0.1,0-0.2,0-0.3,0c-0.4,0-0.7,0.1-1.1,0.1c-2.1,0.2-4.2,0.3-6.3,0.3c-1.4,0-2.8,0.1-4.3,0.1
			c-2.8,0-5.8-0.2-8.7-0.4c-1.8-0.1-3.6-0.3-5.4-0.5c-10.8-1.3-22.1-4-34-8.3c-1.9-0.7-3.8-1.4-5.7-2.2c-3.3-1.3-6.6-2.7-9.9-4.3
			l-7.7,0.4c5.7,2.8,11.5,5.3,17.5,7.6c1.9,0.7,3.8,1.4,5.8,2.1c11.2,3.9,22.7,6.8,33.7,8.6c1.7,0.3,3.4,0.6,5.1,0.8
			c1.4,0.2,2.7,0.3,4.1,0.5c3.4,0.4,6.8,0.6,10,0.8c2.1,0.1,4.2,0.1,6.3,0.1c8,0,15.4-0.8,21.9-2.3c2.3-0.5,4.4-1.2,6.4-1.9
			C197.4,109.5,200,94.7,188.8,77.9z"/>
		<path class="st0" d="M40.1,92.3l0.9,0.1l2.9,0.3l6.9,0.7l3.4,0.3h0l0.9,0.1l6.2,0.6L60.4,93l-1.8-2.3l-2.5-3.2l-3.8-4.8L51.7,82
			L38.5,65.1l-0.2-0.3l-1-1.2l-0.1-0.2L37,63.2l-1.6-2l-1.3,8.4l-0.7,4.9v0c-0.2-0.2-0.4-0.3-0.5-0.5c-1.1-0.9-2.3-1.8-3.3-2.8
			C6,50.6,3.1,30.2,25.3,22c1.8-0.7,3.7-1.2,5.8-1.7c4.8-1.1,10.3-1.7,16.2-1.9c1.9-1.4,4.6-3.3,7.7-5.2
			c-11.8-0.9-22.6-0.5-31.6,1.7c-2.3,0.5-4.5,1.2-6.4,1.9c-26.8,10-20.8,35.8,11.8,60.7c1.3,1,2.6,1.9,3.9,2.9v0L31.9,85l-1,6.5
			l5.5,0.5L40.1,92.3L40.1,92.3z"/>
	</g>
</g>
</svg>
