<?xml version="1.0" encoding="utf-8"?>
<!-- Generator: Adobe Illustrator 23.0.1, SVG Export Plug-In . SVG Version: 6.00 Build 0)  -->
<svg version="1.1" xmlns="http://www.w3.org/2000/svg" xmlns:xlink="http://www.w3.org/1999/xlink" x="0px" y="0px"
	 viewBox="0 0 500 500" style="enable-background:new 0 0 500 500;" xml:space="preserve">
<style type="text/css">
	.st0{fill:#E0E0E0;}
	.st1{fill:#EBEBEB;}
	.st2{fill:#FAFAFA;}
	.st3{fill:#F5F5F5;}
	.st4{fill:#FFFFFF;}
	.st5{fill:none;stroke:#FBFBFB;stroke-width:0.25;stroke-miterlimit:10;}
	.st6{display:none;}
	.st7{display:inline;fill:#EBEBEB;}
	.st8{fill:#263238;}
	.st9{fill:#FFBE9D;}
	.st10{fill:#EB996E;}
	.st11{fill:#455A64;}
	.st12{fill:#5A22C3;}
	.st13{opacity:0.4;}
	.st14{fill:#E8505B;}
	.st15{fill:#441CA5;}
	.st16{opacity:0.2;}
	.st17{fill:#D1C3FC;}
	.st18{opacity:0.3;}
</style>
<g id="Background_Complete">
	<g>
		<g>
			<g>
				<g>
					<g>
						<g>
							<g>
								<rect x="97" y="287" class="st0" width="107.8" height="178.5"/>
							</g>
						</g>
					</g>
				</g>
			</g>
		</g>
		<g>
			<g>
				<g>
					<g>
						<g>
							<g>
								<rect x="93.5" y="287" class="st1" width="107.8" height="178.5"/>
							</g>
						</g>
					</g>
				</g>
			</g>
		</g>
		<g>
			<g>
				<g>
					<g>
						<g>
							<g>
								<rect x="98" y="290.6" class="st2" width="98.6" height="171.2"/>
							</g>
						</g>
					</g>
				</g>
			</g>
		</g>
		<g>
			<g>
				<g>
					<g>
						<g>
							<g>
								<g>
									<rect x="116.8" y="312.9" class="st1" width="60.6" height="126.7"/>
								</g>
							</g>
						</g>
					</g>
				</g>
			</g>
			<g>
				<g>
					<g>
						<g>
							<g>
								<g>
									<path class="st0" d="M116.8,394.7c-0.1-11.8,10.5-23.4,22.2-25c5.6-0.8,11.5,0.3,16.8-1.8c9.3-3.8,12.3-16.2,21.7-19.9
										l0.4,91.6h-61.1V394.7z"/>
								</g>
							</g>
						</g>
					</g>
				</g>
			</g>
		</g>
	</g>
	<g>
		<g>
			<g>
				<g>
					<g>
						<g>
							<g>
								<rect x="39.8" y="236.8" class="st0" width="136.9" height="226.6"/>
							</g>
						</g>
					</g>
				</g>
			</g>
		</g>
		<g>
			<g>
				<g>
					<g>
						<g>
							<g>
								<rect x="35.2" y="236.8" class="st1" width="136.9" height="226.6"/>
							</g>
						</g>
					</g>
				</g>
			</g>
		</g>
		<g>
			<g>
				<g>
					<g>
						<g>
							<g>
								<rect x="41.1" y="241.3" class="st2" width="125.2" height="217.4"/>
							</g>
						</g>
					</g>
				</g>
			</g>
		</g>
		<g>
			<g>
				<g>
					<g>
						<g>
							<g>
								<g>
									<rect x="64.9" y="269.6" class="st1" width="77" height="160.9"/>
								</g>
							</g>
						</g>
					</g>
				</g>
			</g>
			<g>
				<g>
					<g>
						<g>
							<g>
								<g>
									<path class="st0" d="M64.9,373.5c-0.2-15,13.3-29.7,28.2-31.8c7.1-1,14.6,0.4,21.3-2.3c11.8-4.9,15.6-20.6,27.5-25.2
										l0.5,116.3H64.9V373.5z"/>
								</g>
							</g>
						</g>
					</g>
				</g>
			</g>
		</g>
	</g>
	<g>
		<g>
			<g>
				<g>
					<g>
						<g>
							<g>
								<rect x="161.7" y="63.4" class="st0" width="47" height="68.1"/>
							</g>
						</g>
					</g>
				</g>
			</g>
		</g>
		<g>
			<g>
				<g>
					<g>
						<g>
							<g>
								<rect x="159.3" y="63.4" class="st3" width="47" height="68.1"/>
							</g>
						</g>
					</g>
				</g>
			</g>
		</g>
		<g>
			<g>
				<g>
					<g>
						<g>
							<g>
								<g>
									<rect x="165.2" y="70.8" class="st4" width="35.3" height="53.3"/>
								</g>
							</g>
						</g>
					</g>
				</g>
			</g>
			<g>
				<g>
					<g>
						<g>
							<g>
								<g>
									<g>
										<path class="st0" d="M200.5,124.1c0,0,0-0.1,0-0.3c0-0.2,0-0.4,0-0.8c0-0.7,0-1.7,0-2.9c0-2.6,0-6.3,0-11
											c0-9.4,0-22.7-0.1-38.4l0.1,0.1c-10.8,0-22.7,0-35.3,0h0l0.1-0.1c0,20.1,0,38.7,0,53.3l-0.1-0.1c10.7,0,19.6,0,25.7,0.1
											c3.1,0,5.5,0,7.1,0c0.8,0,1.4,0,1.9,0C200.3,124.1,200.5,124.1,200.5,124.1s-0.2,0-0.6,0c-0.4,0-1,0-1.8,0
											c-1.6,0-4,0-7.1,0c-6.1,0-15,0-25.8,0.1l-0.1,0v-0.1c0-14.7,0-33.2,0-53.3l0-0.1h0.1h0c12.6,0,24.5,0,35.3,0l0.1,0l0,0.1
											c0,15.7,0,29.1-0.1,38.5c0,4.7,0,8.4,0,11c0,1.3,0,2.2,0,2.9c0,0.3,0,0.6,0,0.7C200.5,124,200.5,124.1,200.5,124.1z"/>
									</g>
								</g>
							</g>
						</g>
					</g>
				</g>
			</g>
		</g>
		<g>
			<g>
				<g>
					<g>
						<g>
							<g>
								<g>
									<path class="st5" d="M198.8,71.1"/>
								</g>
							</g>
						</g>
					</g>
				</g>
			</g>
		</g>
		<g>
			<g>
				<g>
					<g>
						<g>
							<g>
								<g>
									<path class="st0" d="M206.4,63.4c0,0-0.3,0.5-0.8,1.2c-0.5,0.7-1.3,1.7-2.2,2.8c-0.9,1.1-1.7,2-2.3,2.7
										c-0.6,0.7-1,1.1-1,1.1c0,0,0.3-0.5,0.9-1.2c0.6-0.8,1.4-1.7,2.3-2.7c0.9-1,1.6-2,2.3-2.7C206,63.8,206.4,63.4,206.4,63.4z"
										/>
								</g>
							</g>
						</g>
					</g>
				</g>
			</g>
		</g>
		<g>
			<g>
				<g>
					<g>
						<g>
							<g>
								<g>
									<path class="st4" d="M200.7,123.9c1.8,2.8,3.8,5.4,6.2,7.7"/>
								</g>
							</g>
						</g>
					</g>
				</g>
			</g>
			<g>
				<g>
					<g>
						<g>
							<g>
								<g>
									<g>
										<path class="st0" d="M206.8,131.6c0,0-0.4-0.3-1.1-1c-0.6-0.6-1.5-1.6-2.3-2.6c-0.9-1.1-1.6-2.1-2-2.8
											c-0.5-0.8-0.7-1.2-0.7-1.3c0,0,0.3,0.4,0.9,1.2c0.5,0.7,1.2,1.7,2.1,2.8c0.8,1.1,1.7,2,2.3,2.7
											C206.5,131.2,206.8,131.6,206.8,131.6z"/>
									</g>
								</g>
							</g>
						</g>
					</g>
				</g>
			</g>
		</g>
		<g>
			<g>
				<g>
					<g>
						<g>
							<g>
								<g>
									<path class="st4" d="M159.3,131.4c2.1-2.5,4.1-5.1,6.2-7.6"/>
								</g>
							</g>
						</g>
					</g>
				</g>
			</g>
			<g>
				<g>
					<g>
						<g>
							<g>
								<g>
									<g>
										<path class="st0" d="M165.5,123.8c0.1,0-1.3,1.8-3,3.9c-1.7,2.1-3.1,3.8-3.2,3.7c-0.1,0,1.3-1.8,3-3.9
											C164,125.5,165.4,123.8,165.5,123.8z"/>
									</g>
								</g>
							</g>
						</g>
					</g>
				</g>
			</g>
		</g>
		<g>
			<g>
				<g>
					<g>
						<g>
							<g>
								<g>
									<path class="st0" d="M159.3,63.4c0.1,0,1.4,1.6,3,3.6c1.6,2,2.8,3.7,2.8,3.7c-0.1,0-1.4-1.6-3-3.6
										C160.5,65.1,159.3,63.5,159.3,63.4z"/>
								</g>
							</g>
						</g>
					</g>
				</g>
			</g>
		</g>
		<g>
			<g>
				<g>
					<g>
						<g>
							<g>
								<rect x="177.7" y="81.6" class="st2" width="11.8" height="33.6"/>
							</g>
						</g>
					</g>
				</g>
			</g>
		</g>
	</g>
	<g>
		<g>
			<g>
				<g>
					<g>
						<g>
							<g>
								<rect x="406.3" y="133.1" class="st0" width="70.3" height="101.9"/>
							</g>
						</g>
					</g>
				</g>
			</g>
		</g>
		<g>
			<g>
				<g>
					<g>
						<g>
							<g>
								<rect x="402.7" y="133.1" class="st3" width="70.3" height="101.9"/>
							</g>
						</g>
					</g>
				</g>
			</g>
		</g>
		<g>
			<g>
				<g>
					<g>
						<g>
							<g>
								<g>
									<rect x="411.5" y="144.2" class="st4" width="52.8" height="79.8"/>
								</g>
							</g>
						</g>
					</g>
				</g>
			</g>
			<g>
				<g>
					<g>
						<g>
							<g>
								<g>
									<g>
										<path class="st0" d="M464.3,224c0,0,0-0.1,0-0.4c0-0.3,0-0.6,0-1.1c0-1,0-2.5,0-4.4c0-3.8,0-9.4,0-16.4
											c0-14.1-0.1-34-0.1-57.5l0.2,0.2c-16.1,0-34,0-52.8,0h0l0.2-0.2c0,30.1,0,57.9,0,79.8l-0.2-0.2c16.1,0,29.3,0.1,38.5,0.1
											c4.6,0,8.2,0,10.6,0c1.2,0,2.1,0,2.8,0C464,224,464.3,224,464.3,224s-0.3,0-0.9,0c-0.6,0-1.6,0-2.8,0c-2.4,0-6,0-10.6,0
											c-9.2,0-22.4,0-38.6,0.1l-0.2,0V224c0-22,0-49.7,0-79.8l0-0.2h0.2h0c18.8,0,36.7,0,52.8,0l0.2,0l0,0.2
											c0,23.5-0.1,43.5-0.1,57.6c0,7,0,12.6,0,16.4c0,1.9,0,3.3,0,4.3c0,0.5,0,0.9,0,1.1C464.3,223.9,464.3,224,464.3,224z"/>
									</g>
								</g>
							</g>
						</g>
					</g>
				</g>
			</g>
		</g>
		<g>
			<g>
				<g>
					<g>
						<g>
							<g>
								<g>
									<path class="st5" d="M461.9,144.7"/>
								</g>
							</g>
						</g>
					</g>
				</g>
			</g>
		</g>
		<g>
			<g>
				<g>
					<g>
						<g>
							<g>
								<g>
									<path class="st0" d="M473.2,133.1c0,0-0.4,0.7-1.3,1.8c-0.8,1.1-2,2.6-3.3,4.2c-1.3,1.6-2.6,3-3.5,4
										c-0.9,1-1.5,1.6-1.5,1.6c0,0,0.5-0.7,1.3-1.8c0.9-1.1,2.1-2.6,3.4-4.1c1.3-1.6,2.4-3,3.4-4.1
										C472.6,133.7,473.2,133.1,473.2,133.1z"/>
								</g>
							</g>
						</g>
					</g>
				</g>
			</g>
		</g>
		<g>
			<g>
				<g>
					<g>
						<g>
							<g>
								<g>
									<path class="st4" d="M464.6,223.7c2.6,4.2,5.7,8,9.2,11.5"/>
								</g>
							</g>
						</g>
					</g>
				</g>
			</g>
			<g>
				<g>
					<g>
						<g>
							<g>
								<g>
									<g>
										<path class="st0" d="M473.8,235.3c0,0-0.7-0.5-1.6-1.5c-0.9-1-2.2-2.3-3.5-3.9c-1.3-1.6-2.3-3.1-3.1-4.3
											c-0.7-1.1-1.1-1.9-1.1-1.9c0,0,0.5,0.6,1.3,1.7c0.8,1.1,1.9,2.6,3.1,4.2c1.3,1.6,2.5,3,3.4,4
											C473.3,234.6,473.8,235.2,473.8,235.3z"/>
									</g>
								</g>
							</g>
						</g>
					</g>
				</g>
			</g>
		</g>
		<g>
			<g>
				<g>
					<g>
						<g>
							<g>
								<g>
									<path class="st4" d="M402.7,235c3.1-3.8,6.1-7.6,9.2-11.4"/>
								</g>
							</g>
						</g>
					</g>
				</g>
			</g>
			<g>
				<g>
					<g>
						<g>
							<g>
								<g>
									<g>
										<path class="st0" d="M411.9,223.6c0.1,0.1-1.9,2.7-4.5,5.8c-2.5,3.1-4.7,5.6-4.8,5.6c-0.1-0.1,1.9-2.7,4.5-5.8
											C409.7,226,411.8,223.5,411.9,223.6z"/>
									</g>
								</g>
							</g>
						</g>
					</g>
				</g>
			</g>
		</g>
		<g>
			<g>
				<g>
					<g>
						<g>
							<g>
								<g>
									<path class="st0" d="M402.7,133.1c0.1-0.1,2.1,2.3,4.5,5.3c2.4,3,4.3,5.5,4.2,5.6c-0.1,0.1-2.1-2.3-4.5-5.3
										C404.5,135.7,402.6,133.2,402.7,133.1z"/>
								</g>
							</g>
						</g>
					</g>
				</g>
			</g>
		</g>
		<g>
			<g>
				<g>
					<g>
						<g>
							<g>
								<rect x="430.2" y="160.4" class="st0" width="17.7" height="50.2"/>
							</g>
						</g>
					</g>
				</g>
			</g>
		</g>
	</g>
	<g>
		<g>
			<g>
				<g>
					<g>
						<g>
							<g>
								<rect x="388.9" y="30.6" class="st0" width="47" height="68.1"/>
							</g>
						</g>
					</g>
				</g>
			</g>
		</g>
		<g>
			<g>
				<g>
					<g>
						<g>
							<g>
								<rect x="386.5" y="30.6" class="st3" width="47" height="68.1"/>
							</g>
						</g>
					</g>
				</g>
			</g>
		</g>
		<g>
			<g>
				<g>
					<g>
						<g>
							<g>
								<g>
									<rect x="392.4" y="38" class="st4" width="35.3" height="53.3"/>
								</g>
							</g>
						</g>
					</g>
				</g>
			</g>
			<g>
				<g>
					<g>
						<g>
							<g>
								<g>
									<g>
										<path class="st0" d="M427.7,91.3c0,0,0-0.1,0-0.3c0-0.2,0-0.4,0-0.8c0-0.7,0-1.7,0-2.9c0-2.6,0-6.3,0-11
											c0-9.4,0-22.7-0.1-38.4l0.1,0.1c-10.8,0-22.7,0-35.3,0h0l0.1-0.1c0,20.1,0,38.7,0,53.3l-0.1-0.1c10.7,0,19.6,0,25.7,0.1
											c3.1,0,5.5,0,7.1,0c0.8,0,1.4,0,1.9,0C427.4,91.3,427.7,91.3,427.7,91.3s-0.2,0-0.6,0c-0.4,0-1,0-1.8,0c-1.6,0-4,0-7.1,0
											c-6.1,0-15,0-25.8,0.1l-0.1,0v-0.1c0-14.7,0-33.2,0-53.3v-0.1h0.1h0c12.6,0,24.5,0,35.3,0l0.1,0l0,0.1
											c0,15.7,0,29.1-0.1,38.5c0,4.7,0,8.4,0,11c0,1.3,0,2.2,0,2.9c0,0.3,0,0.6,0,0.7C427.7,91.2,427.7,91.3,427.7,91.3z"/>
									</g>
								</g>
							</g>
						</g>
					</g>
				</g>
			</g>
		</g>
		<g>
			<g>
				<g>
					<g>
						<g>
							<g>
								<g>
									<path class="st5" d="M426,38.3"/>
								</g>
							</g>
						</g>
					</g>
				</g>
			</g>
		</g>
		<g>
			<g>
				<g>
					<g>
						<g>
							<g>
								<g>
									<path class="st0" d="M433.6,30.6c0,0-0.3,0.5-0.8,1.2c-0.5,0.7-1.3,1.7-2.2,2.8c-0.9,1.1-1.7,2-2.3,2.7
										c-0.6,0.7-1,1.1-1,1.1c0,0,0.3-0.5,0.9-1.2c0.6-0.8,1.4-1.7,2.3-2.7c0.9-1,1.6-2,2.3-2.7C433.2,31,433.6,30.6,433.6,30.6z"
										/>
								</g>
							</g>
						</g>
					</g>
				</g>
			</g>
		</g>
		<g>
			<g>
				<g>
					<g>
						<g>
							<g>
								<g>
									<path class="st4" d="M427.8,91.1c1.8,2.8,3.8,5.4,6.2,7.7"/>
								</g>
							</g>
						</g>
					</g>
				</g>
			</g>
			<g>
				<g>
					<g>
						<g>
							<g>
								<g>
									<g>
										<path class="st0" d="M434,98.8c0,0-0.4-0.3-1.1-1c-0.6-0.6-1.5-1.6-2.3-2.6c-0.9-1.1-1.6-2.1-2-2.8
											c-0.5-0.8-0.7-1.2-0.7-1.3c0,0,0.3,0.4,0.9,1.2c0.5,0.7,1.2,1.7,2.1,2.8c0.8,1.1,1.7,2,2.3,2.7
											C433.6,98.4,434,98.8,434,98.8z"/>
									</g>
								</g>
							</g>
						</g>
					</g>
				</g>
			</g>
		</g>
		<g>
			<g>
				<g>
					<g>
						<g>
							<g>
								<g>
									<path class="st4" d="M386.5,98.6c2.1-2.5,4.1-5.1,6.2-7.6"/>
								</g>
							</g>
						</g>
					</g>
				</g>
			</g>
			<g>
				<g>
					<g>
						<g>
							<g>
								<g>
									<g>
										<path class="st0" d="M392.7,91c0.1,0-1.3,1.8-3,3.9c-1.7,2.1-3.1,3.8-3.2,3.7c-0.1,0,1.3-1.8,3-3.9
											C391.2,92.6,392.6,91,392.7,91z"/>
									</g>
								</g>
							</g>
						</g>
					</g>
				</g>
			</g>
		</g>
		<g>
			<g>
				<g>
					<g>
						<g>
							<g>
								<g>
									<path class="st0" d="M386.5,30.6c0.1,0,1.4,1.6,3,3.6c1.6,2,2.8,3.7,2.8,3.7c-0.1,0-1.4-1.6-3-3.6
										C387.7,32.3,386.5,30.6,386.5,30.6z"/>
								</g>
							</g>
						</g>
					</g>
				</g>
			</g>
		</g>
		<g>
			<g>
				<g>
					<g>
						<g>
							<g>
								<rect x="404.8" y="48.8" class="st2" width="11.8" height="33.6"/>
							</g>
						</g>
					</g>
				</g>
			</g>
		</g>
	</g>
</g>
<g id="Background_Simple" class="st6">
	<path class="st7" d="M431.7,91l-2.4-3.8c-19.9-32.3-55.8-51.8-93.7-49.5c-4.9,0.3-9.7,1-14.5,2c-34.4,7.3-64.4,33-76.8,65.9
		c-7.3,19.4-9.3,41.7-23.2,57.1c-18,20-48.7,20.6-75.6,19.8s-57.6-0.1-75.5,20C58.7,215,55.1,232.9,56,249.7
		c2.4,44.6,33.9,84.5,73.9,104.3c40,19.8,87.2,21.6,131,12.9c61.4-12.2,119.8-45.8,154.8-97.6C450.9,217.5,459.8,146.9,431.7,91z"/>
</g>
<g id="Floor">
	<g>
		<g>
			<g>
				<g>
					<path class="st8" d="M467.6,463.9c0,0.1-97.4,0.3-217.5,0.3c-120.2,0-217.6-0.1-217.6-0.3c0-0.1,97.4-0.3,217.6-0.3
						C370.1,463.7,467.6,463.8,467.6,463.9z"/>
				</g>
			</g>
		</g>
	</g>
</g>
<g id="Character">
	<g>
		<g>
			<g>
				<g>
					<g>
						<g>
							<g>
								<g>
									<g>
										<g>
											<g>
												<g>
													<g>
														<g>
															<g>
																<g>
																	<g>
																		<g>
																			<g>
																				<g>
																					<g>
																						<g>
																							<path class="st9" d="M133.2,117.2l-2.9,35.7c-0.5,6.1,4.2,11.3,10.3,11.5l0,0c5.7,0.2,10.5-4.1,11-9.8
																								c0.2-2.7,0.4-4.9,0.4-5.2c0,0,9.2-0.1,10.5-9c0.7-4.3,1.3-13.3,1.8-21.5c0.5-8.8-5.8-16.5-14.4-17.7
																								l-0.9-0.1C139.6,100.3,133.7,107.8,133.2,117.2z"/>
																						</g>
																					</g>
																				</g>
																			</g>
																		</g>
																	</g>
																</g>
															</g>
														</g>
													</g>
												</g>
											</g>
											<g>
												<g>
													<g>
														<g>
															<g>
																<g>
																	<g>
																		<g>
																			<g>
																				<g>
																					<g>
																						<g>
																							<path class="st10" d="M152,149.3c0,0-5.7-0.3-11.2-5c0,0,1.8,6.8,10.9,7.3L152,149.3z"/>
																						</g>
																					</g>
																				</g>
																			</g>
																		</g>
																	</g>
																</g>
															</g>
														</g>
													</g>
												</g>
											</g>
										</g>
									</g>
								</g>
								<g>
									<g>
										<g>
											<g>
												<g>
													<g>
														<g>
															<g>
																<g>
																	<g>
																		<g>
																			<g>
																				<g>
																					<g>
																						<g>
																							<g>
																								<g>
																									<g>
																										<path class="st8" d="M161,123.5c-0.1,0.7-0.7,1.2-1.4,1.1c-0.7-0.1-1.2-0.7-1.2-1.3
																											c0.1-0.7,0.7-1.2,1.4-1.1C160.5,122.2,161.1,122.8,161,123.5z"/>
																									</g>
																								</g>
																							</g>
																						</g>
																					</g>
																				</g>
																			</g>
																		</g>
																	</g>
																</g>
															</g>
														</g>
														<g>
															<g>
																<g>
																	<g>
																		<g>
																			<g>
																				<g>
																					<g>
																						<g>
																							<g>
																								<g>
																									<g>
																										<g>
																											<path class="st8" d="M162,122.5c-0.2,0.1-1-0.7-2.4-0.9c-1.4-0.2-2.5,0.4-2.6,0.2
																												c-0.1-0.1,0.1-0.4,0.6-0.6c0.5-0.3,1.3-0.5,2.1-0.3c0.9,0.1,1.5,0.5,1.9,0.9
																												C162,122.1,162.1,122.4,162,122.5z"/>
																										</g>
																									</g>
																								</g>
																							</g>
																						</g>
																					</g>
																				</g>
																			</g>
																		</g>
																	</g>
																</g>
															</g>
														</g>
													</g>
													<g>
														<g>
															<g>
																<g>
																	<g>
																		<g>
																			<g>
																				<g>
																					<g>
																						<g>
																							<g>
																								<g>
																									<g>
																										<path class="st8" d="M147.7,122.2c-0.1,0.7-0.7,1.2-1.4,1.1c-0.7-0.1-1.2-0.7-1.2-1.3
																											c0.1-0.7,0.7-1.2,1.4-1.1C147.2,120.9,147.7,121.5,147.7,122.2z"/>
																									</g>
																								</g>
																							</g>
																						</g>
																					</g>
																				</g>
																			</g>
																		</g>
																	</g>
																</g>
															</g>
														</g>
														<g>
															<g>
																<g>
																	<g>
																		<g>
																			<g>
																				<g>
																					<g>
																						<g>
																							<g>
																								<g>
																									<g>
																										<g>
																											<path class="st8" d="M148.3,121c-0.2,0.1-1-0.7-2.4-0.9c-1.4-0.2-2.5,0.4-2.6,0.2
																												c-0.1-0.1,0.1-0.4,0.6-0.6c0.5-0.3,1.3-0.5,2.1-0.3c0.9,0.1,1.5,0.5,1.9,0.9
																												C148.3,120.6,148.4,120.9,148.3,121z"/>
																										</g>
																									</g>
																								</g>
																							</g>
																						</g>
																					</g>
																				</g>
																			</g>
																		</g>
																	</g>
																</g>
															</g>
														</g>
													</g>
													<g>
														<g>
															<g>
																<g>
																	<g>
																		<g>
																			<g>
																				<g>
																					<g>
																						<g>
																							<g>
																								<g>
																									<g>
																										<path class="st8" d="M151.7,132.2c0-0.1,0.9-0.1,2.3-0.1c0.4,0,0.7,0,0.8-0.2c0.1-0.2,0-0.6-0.1-1.1
																											c-0.2-0.9-0.4-1.8-0.7-2.8c-0.9-4-1.5-7.3-1.3-7.3c0.2,0,1,3.2,1.9,7.2c0.2,1,0.4,1.9,0.6,2.8
																											c0.1,0.4,0.2,0.9,0,1.4c-0.1,0.2-0.4,0.4-0.7,0.4c-0.2,0-0.4,0-0.6,0
																											C152.6,132.4,151.7,132.3,151.7,132.2z"/>
																									</g>
																								</g>
																							</g>
																						</g>
																					</g>
																				</g>
																			</g>
																		</g>
																	</g>
																</g>
															</g>
														</g>
													</g>
												</g>
											</g>
										</g>
										<g>
											<g>
												<g>
													<g>
														<g>
															<g>
																<g>
																	<g>
																		<g>
																			<g>
																				<g>
																					<g>
																						<path class="st8" d="M149.1,118.2c-0.2,0.4-1.5,0-3.2-0.1c-1.6-0.1-3,0.2-3.2-0.1c-0.1-0.2,0.2-0.5,0.8-0.8
																							c0.6-0.3,1.5-0.5,2.4-0.5c1,0,1.8,0.3,2.4,0.6C148.9,117.7,149.2,118,149.1,118.2z"/>
																					</g>
																				</g>
																			</g>
																		</g>
																	</g>
																</g>
															</g>
														</g>
													</g>
												</g>
											</g>
										</g>
										<g>
											<g>
												<g>
													<g>
														<g>
															<g>
																<g>
																	<g>
																		<g>
																			<g>
																				<g>
																					<g>
																						<path class="st8" d="M161.4,117c-0.3,0.3-1.2-0.2-2.3-0.4c-1.1-0.2-2.1-0.1-2.3-0.4c-0.1-0.2,0.1-0.5,0.6-0.7
																							c0.5-0.2,1.2-0.4,2-0.2c0.8,0.1,1.4,0.5,1.8,0.9C161.5,116.5,161.6,116.8,161.4,117z"/>
																					</g>
																				</g>
																			</g>
																		</g>
																	</g>
																</g>
															</g>
														</g>
													</g>
												</g>
											</g>
										</g>
									</g>
								</g>
								<g>
									<g>
										<g>
											<g>
												<g>
													<g>
														<g>
															<g>
																<g>
																	<g>
																		<g>
																			<g>
																				<g>
																					<path class="st9" d="M133,124c-0.1-0.1-5.9-2.7-6.6,3.4c-0.7,6.1,5.6,5.6,5.7,5.4C132.1,132.6,133,124,133,124
																						z"/>
																				</g>
																			</g>
																		</g>
																	</g>
																</g>
															</g>
														</g>
													</g>
												</g>
											</g>
										</g>
									</g>
									<g>
										<g>
											<g>
												<g>
													<g>
														<g>
															<g>
																<g>
																	<g>
																		<g>
																			<g>
																				<g>
																					<g>
																						<path class="st10" d="M130.4,130.3c0,0-0.1,0.1-0.3,0.1c-0.2,0.1-0.5,0.1-0.8-0.1c-0.6-0.3-1.1-1.4-1-2.5
																							c0-0.6,0.2-1.1,0.5-1.5c0.2-0.4,0.6-0.7,0.9-0.7c0.3,0,0.5,0.2,0.6,0.4c0.1,0.2,0,0.3,0,0.3
																							c0,0,0.1-0.1,0.1-0.3c0-0.1-0.1-0.3-0.2-0.4c-0.1-0.1-0.3-0.2-0.6-0.2c-0.5,0-1,0.4-1.2,0.8
																							c-0.3,0.5-0.5,1-0.6,1.7c-0.1,1.2,0.4,2.5,1.3,2.8c0.4,0.2,0.8,0.1,1-0.1
																							C130.4,130.4,130.5,130.3,130.4,130.3z"/>
																					</g>
																				</g>
																			</g>
																		</g>
																	</g>
																</g>
															</g>
														</g>
													</g>
												</g>
											</g>
										</g>
									</g>
								</g>
							</g>
						</g>
						<g>
							<g>
								<g>
									<g>
										<g>
											<g>
												<g>
													<g>
														<path class="st8" d="M129.6,123.3c1-0.1,2.5,1,2.7,1.9c0.3,0.9,0.2,1.9,0.5,2.9c0.3,0.9,1.1,1.8,2,1.8
															c0.7-0.1,1.2-0.6,1.5-1.2c0.3-0.6,0.3-1.3,0.3-2c0-2.9-0.1-5.8,0.1-8.7c0.3-2.9,1.1-5.8,3-8.1c1.9-2.2,4.9-3.6,7.7-3
															c1.9,0.4,3.5,1.7,5.3,2.2c2.2,0.6,4.7,0.2,6.5-1.2c0.1,0,0.2-0.1,0.3-0.2c0.7-0.4,1-1.1,0.9-1.8
															c-0.1-0.2-0.1-0.5-0.3-0.6c-3.3-4-9.9-5.9-15-5.4c-5.1,0.5-10.3,3.4-13.1,7.7C129.4,111.9,129.1,118.4,129.6,123.3"/>
													</g>
												</g>
											</g>
										</g>
									</g>
								</g>
							</g>
						</g>
					</g>
					<g>
						<g>
							<g>
								<g>
									<g>
										<g>
											<path class="st8" d="M154.7,136.2c0,0.1-0.9-0.1-2-0.4c-1-0.3-1.9-0.7-1.8-0.8c0-0.1,0.9,0.1,2,0.4
												C153.9,135.8,154.7,136.1,154.7,136.2z"/>
										</g>
									</g>
								</g>
							</g>
						</g>
					</g>
					<g>
						<g>
							<g>
								<g>
									<g>
										<g>
											<path class="st10" d="M161.6,142.8c0,0-0.1,0.7-0.7,1.7c-0.6,1-1.7,2.1-3.2,3c-1.5,0.9-3,1.3-4.1,1.6
												c-1.1,0.3-1.8,0.4-1.8,0.3c0-0.1,0.6-0.3,1.7-0.6c1-0.3,2.5-0.8,3.9-1.7c1.4-0.8,2.5-1.9,3.1-2.8
												C161.3,143.4,161.6,142.7,161.6,142.8z"/>
										</g>
									</g>
								</g>
							</g>
						</g>
					</g>
				</g>
			</g>
			<g>
				<g>
					<g>
						<g>
							<path class="st11" d="M133.8,105.4c0.1-0.1,1.6,1.2,3.8,1.9c2.3,0.8,4.2,0.5,4.2,0.7c0,0.1-2,0.6-4.4-0.2
								C135.1,107.1,133.7,105.5,133.8,105.4z"/>
						</g>
					</g>
				</g>
			</g>
			<g>
				<g>
					<g>
						<g>
							<path class="st11" d="M153.5,109c-0.1,0.1-0.8-0.8-2.4-1.6c-1.6-0.9-4-1.7-6.8-1.4c-1.4,0.1-2.7,0.4-3.9,0.6
								c-1.2,0.2-2.3,0.2-3.3,0.1c-0.9-0.1-1.7-0.4-2.1-0.6c-0.5-0.3-0.7-0.5-0.7-0.5c0-0.1,1,0.6,2.8,0.8c0.9,0.1,2,0,3.2-0.2
								c1.2-0.2,2.5-0.5,3.9-0.6c2.9-0.3,5.4,0.6,7,1.6c0.8,0.5,1.4,1,1.7,1.3C153.4,108.8,153.6,109,153.5,109z"/>
						</g>
					</g>
				</g>
			</g>
			<g>
				<g>
					<g>
						<g>
							<path class="st8" d="M134.3,105.8c0.1-1.3,0.2-2.6,0-3.8c-0.2-1.3-0.7-2.5-1.7-3.4c-1.2-1.1-2.9-1.4-4.5-1
								c-1.6,0.4-2.9,1.5-3.7,2.9c-1.1,1.8-1.2,4.2-0.1,6c1.1,1.8,3.6,2.7,5.5,1.7c0.7-0.4,1.2-0.9,1.9-1.3c0.7-0.4,1.6-0.5,2.1,0"
								/>
						</g>
					</g>
				</g>
				<g>
					<g>
						<g>
							<g>
								<path class="st12" d="M134.7,104.1c0.1,0.1-0.4,0.9-1.2,1.9c-0.8,0.9-1.5,1.6-1.6,1.5c-0.1-0.1,0.5-0.9,1.2-1.8
									C133.9,104.7,134.6,104,134.7,104.1z"/>
							</g>
						</g>
					</g>
				</g>
				<g>
					<g>
						<g>
							<g>
								<path class="st11" d="M127.2,98c0.1,0.1-0.6,0.4-1.2,1.4c-0.2,0.5-0.5,1.1-0.4,1.8c0.1,0.7,0.5,1.4,1.1,2
									c1.2,1.2,2.8,1.6,3.9,1.9c1.1,0.3,1.8,0.4,1.8,0.5c0,0.1-0.7,0.1-1.9-0.1c-1.1-0.2-2.8-0.6-4.2-1.9
									c-0.7-0.7-1.1-1.4-1.2-2.3c-0.1-0.8,0.2-1.6,0.5-2.1C126.4,98.2,127.2,98,127.2,98z"/>
							</g>
						</g>
					</g>
				</g>
				<g>
					<g>
						<g>
							<g>
								<path class="st11" d="M130.6,97.5c0,0.1-0.6,0.3-1,1c-0.2,0.4-0.4,0.9-0.4,1.4c0,0.6,0.2,1.2,0.5,1.8
									c0.6,1.2,1.6,2.1,2.4,2.6c0.8,0.5,1.3,0.7,1.3,0.8c0,0.1-0.6,0-1.5-0.5c-0.8-0.4-2-1.3-2.7-2.6c-0.3-0.7-0.5-1.4-0.5-2.1
									c0-0.7,0.3-1.2,0.6-1.6C129.8,97.5,130.6,97.5,130.6,97.5z"/>
							</g>
						</g>
					</g>
				</g>
			</g>
		</g>
		<g>
			<g>
				<g>
					<g>
						<g>
							<g>
								<polygon class="st9" points="153.5,409.9 145.2,447.9 159.4,448 169.8,414.7 								"/>
							</g>
						</g>
					</g>
				</g>
			</g>
			<g>
				<g>
					<g>
						<g>
							<g>
								<g>
									<g>
										<path class="st12" d="M166.1,432.9l-5.2,17.3c0,0,15.8,11.1,15.2,14.4l-33.9-8.9l7-27.3L166.1,432.9z"/>
									</g>
								</g>
							</g>
						</g>
					</g>
					<g>
						<g>
							<g>
								<g>
									<g>
										<g>
											<path class="st0" d="M150.8,446c-0.7,0-1.4,0.6-1.4,1.3c0,0.7,0.6,1.4,1.3,1.4c0.7,0,1.5-0.7,1.4-1.4
												c-0.1-0.7-0.8-1.4-1.5-1.3"/>
										</g>
									</g>
								</g>
							</g>
						</g>
					</g>
					<g class="st13">
						<g>
							<g>
								<g>
									<g>
										<path d="M142.1,455.7l0.8-2.7l32.2,9.5c0,0,1.3,1.1,0.9,2.1L142.1,455.7z"/>
									</g>
								</g>
							</g>
						</g>
					</g>
					<g>
						<g>
							<g>
								<g>
									<g>
										<g>
											<path class="st8" d="M161.5,450.2c0,0.2-0.9,0-1.9,0.3c-1,0.3-1.6,0.9-1.7,0.8c-0.1-0.1,0.4-1,1.5-1.4
												C160.6,449.6,161.5,450.1,161.5,450.2z"/>
										</g>
									</g>
								</g>
							</g>
						</g>
					</g>
					<g>
						<g>
							<g>
								<g>
									<g>
										<g>
											<path class="st8" d="M164.6,452.6c0,0.2-0.8,0.3-1.5,0.8c-0.8,0.5-1.1,1.3-1.3,1.2c-0.2,0,0-1,0.9-1.7
												C163.7,452.3,164.7,452.5,164.6,452.6z"/>
										</g>
									</g>
								</g>
							</g>
						</g>
					</g>
					<g>
						<g>
							<g>
								<g>
									<g>
										<g>
											<path class="st8" d="M165.5,457.4c-0.2,0-0.2-0.9,0.5-1.7c0.7-0.8,1.5-1,1.6-0.8c0.1,0.2-0.6,0.5-1.1,1.2
												C165.9,456.8,165.7,457.4,165.5,457.4z"/>
										</g>
									</g>
								</g>
							</g>
						</g>
					</g>
					<g>
						<g>
							<g>
								<g>
									<g>
										<g>
											<path class="st8" d="M162.2,446.1c-0.1,0.1-0.8-0.3-1.8-0.5c-0.9-0.2-1.8-0.1-1.8-0.2c-0.1-0.1,0.8-0.6,1.9-0.3
												C161.7,445.3,162.3,446,162.2,446.1z"/>
										</g>
									</g>
								</g>
							</g>
						</g>
					</g>
				</g>
				<g>
					<g>
						<g>
							<g>
								<g>
									<g>
										<path class="st8" d="M163.2,442.6c0,0.1-0.7,0-1.7-0.5c-0.5-0.2-1.1-0.6-1.6-1c-0.3-0.2-0.6-0.5-0.8-0.8
											c-0.1-0.1-0.3-0.3-0.4-0.5c-0.1-0.2-0.1-0.7,0.2-0.9c0.2-0.2,0.6-0.2,0.8-0.2c0.3,0.1,0.4,0.2,0.6,0.3
											c0.4,0.2,0.7,0.4,1,0.6c0.6,0.5,1,1,1.3,1.4c0.6,0.9,0.7,1.6,0.6,1.6c-0.1,0-0.3-0.6-1-1.4c-0.3-0.4-0.7-0.8-1.3-1.3
											c-0.3-0.2-0.6-0.4-0.9-0.6c-0.3-0.2-0.6-0.3-0.8-0.1c0,0.1-0.1,0.1,0,0.2c0.1,0.1,0.2,0.3,0.3,0.4
											c0.2,0.3,0.5,0.5,0.8,0.7c0.5,0.4,1,0.8,1.5,1.1C162.6,442.3,163.2,442.5,163.2,442.6z"/>
									</g>
								</g>
							</g>
						</g>
					</g>
				</g>
				<g>
					<g>
						<g>
							<g>
								<g>
									<g>
										<path class="st8" d="M162.9,442.8c-0.1,0-0.2-0.7,0-1.8c0.1-0.5,0.3-1.2,0.7-1.8c0.2-0.3,0.4-0.6,0.7-0.9
											c0.3-0.3,0.6-0.7,1.3-0.6c0.3,0.1,0.5,0.4,0.6,0.7c0.1,0.3,0,0.5,0,0.7c0,0.4-0.2,0.8-0.3,1.1c-0.3,0.7-0.7,1.2-1.2,1.6
											c-0.9,0.7-1.6,0.7-1.6,0.7c0-0.1,0.6-0.3,1.4-1c0.4-0.4,0.7-0.8,1-1.5c0.1-0.3,0.2-0.6,0.2-1c0-0.4,0-0.7-0.2-0.7
											c-0.2,0-0.5,0.1-0.7,0.4c-0.3,0.3-0.5,0.5-0.7,0.8c-0.4,0.6-0.6,1.1-0.8,1.6C163,442.1,163,442.8,162.9,442.8z"/>
									</g>
								</g>
							</g>
						</g>
					</g>
				</g>
			</g>
		</g>
		<g>
			<g>
				<g>
					<g>
						<g>
							<g>
								<polygon class="st9" points="116.2,416.4 117,455.3 130.9,452.1 133.1,417.3 								"/>
							</g>
						</g>
					</g>
				</g>
			</g>
			<g>
				<g>
					<g>
						<g>
							<g>
								<g>
									<g>
										<path class="st12" d="M133.8,435.8l-1,18c0,0,18,7,18.2,10.4l-35-0.6l0.4-28.2L133.8,435.8z"/>
									</g>
								</g>
							</g>
						</g>
					</g>
					<g>
						<g>
							<g>
								<g>
									<g>
										<g>
											<path class="st0" d="M122,452.2c-0.7,0.2-1.2,0.9-1,1.6c0.1,0.7,0.9,1.2,1.6,1c0.7-0.2,1.3-1,1.1-1.7
												c-0.2-0.7-1.1-1.2-1.8-0.9"/>
										</g>
									</g>
								</g>
							</g>
						</g>
					</g>
					<g class="st13">
						<g>
							<g>
								<g>
									<g>
										<path d="M115.9,463.7l0.1-2.8l33.5,1.7c0,0,1.5,0.7,1.4,1.8L115.9,463.7z"/>
									</g>
								</g>
							</g>
						</g>
					</g>
					<g>
						<g>
							<g>
								<g>
									<g>
										<g>
											<path class="st8" d="M133.4,453.7c0,0.2-0.9,0.2-1.7,0.8c-0.9,0.5-1.3,1.2-1.5,1.2c-0.2,0,0.1-1.1,1.2-1.7
												C132.4,453.3,133.4,453.6,133.4,453.7z"/>
										</g>
									</g>
								</g>
							</g>
						</g>
					</g>
					<g>
						<g>
							<g>
								<g>
									<g>
										<g>
											<path class="st8" d="M137,455.3c0,0.2-0.7,0.4-1.3,1.2c-0.6,0.7-0.8,1.5-0.9,1.5c-0.2,0-0.3-1,0.5-1.9
												C136,455.2,137,455.1,137,455.3z"/>
										</g>
									</g>
								</g>
							</g>
						</g>
					</g>
					<g>
						<g>
							<g>
								<g>
									<g>
										<g>
											<path class="st8" d="M139,459.7c-0.2,0-0.4-0.8,0.1-1.8c0.4-0.9,1.3-1.3,1.3-1.1c0.1,0.1-0.4,0.6-0.8,1.4
												C139.3,459,139.2,459.7,139,459.7z"/>
										</g>
									</g>
								</g>
							</g>
						</g>
					</g>
					<g>
						<g>
							<g>
								<g>
									<g>
										<g>
											<path class="st8" d="M133.1,449.6c-0.1,0.2-0.9-0.1-1.8,0c-1,0-1.7,0.3-1.8,0.2c-0.1-0.1,0.6-0.7,1.8-0.8
												C132.4,448.9,133.2,449.4,133.1,449.6z"/>
										</g>
									</g>
								</g>
							</g>
						</g>
					</g>
				</g>
				<g>
					<g>
						<g>
							<g>
								<g>
									<g>
										<path class="st8" d="M133.3,445.9c0,0.1-0.7,0.2-1.8,0c-0.5-0.1-1.2-0.3-1.8-0.6c-0.3-0.2-0.7-0.3-1-0.6
											c-0.2-0.1-0.3-0.2-0.5-0.4c-0.2-0.2-0.3-0.6-0.1-0.9c0.2-0.3,0.5-0.4,0.8-0.4c0.3,0,0.5,0.1,0.7,0.1
											c0.4,0.1,0.8,0.2,1.1,0.4c0.7,0.3,1.2,0.7,1.6,1.1c0.8,0.8,1.1,1.4,1,1.4c-0.1,0.1-0.5-0.5-1.3-1.1
											c-0.4-0.3-0.9-0.6-1.5-0.9c-0.3-0.1-0.6-0.2-1-0.3c-0.4-0.1-0.7-0.1-0.8,0.1c0,0.1,0,0.1,0,0.2c0.1,0.1,0.2,0.2,0.4,0.3
											c0.3,0.2,0.6,0.4,0.9,0.5c0.6,0.3,1.2,0.5,1.7,0.7C132.6,445.8,133.3,445.8,133.3,445.9z"/>
									</g>
								</g>
							</g>
						</g>
					</g>
				</g>
				<g>
					<g>
						<g>
							<g>
								<g>
									<g>
										<path class="st8" d="M133,446.2c-0.1,0-0.4-0.6-0.4-1.7c0-0.6,0-1.2,0.3-1.9c0.1-0.3,0.3-0.7,0.5-1.1
											c0.2-0.3,0.5-0.8,1.1-0.9c0.3,0,0.6,0.3,0.7,0.5c0.1,0.2,0.1,0.4,0.2,0.6c0.1,0.4,0,0.8,0,1.2c-0.1,0.7-0.4,1.4-0.8,1.8
											c-0.7,0.9-1.4,1.1-1.4,1c-0.1-0.1,0.5-0.4,1.1-1.3c0.3-0.4,0.5-1,0.6-1.6c0-0.3,0-0.7,0-1c0-0.4-0.2-0.7-0.3-0.6
											c-0.2,0-0.5,0.3-0.6,0.6c-0.2,0.3-0.3,0.6-0.5,0.9c-0.2,0.6-0.3,1.2-0.4,1.7C133,445.5,133.1,446.2,133,446.2z"/>
									</g>
								</g>
							</g>
						</g>
					</g>
				</g>
			</g>
		</g>
		<g>
			<g>
				<g>
					<g>
						<g>
							<path class="st8" d="M161.5,266.4c0,0,27.7,71.6,25.5,91.7c-2.3,20.1-16.9,85-16.9,85l-23.5-8.3l9.4-80l-18.1-55.1l5.7-31.2
								L161.5,266.4z"/>
						</g>
					</g>
				</g>
				<g>
					<g>
						<g>
							<g>
								<g>
									<g>
										<path class="st8" d="M108.2,260.4c0,0-0.1,14.1,1.6,19.9l1.4,8.4c-1,46-0.7,154.4-0.7,154.4l31.4,0.4l9.8-179.4
											L108.2,260.4z"/>
									</g>
								</g>
							</g>
						</g>
					</g>
				</g>
				<g>
					<g>
						<g>
							<g>
								<path class="st11" d="M152.5,280.8c0,0,0,0.1,0,0.4c0,0.3,0,0.7-0.1,1.2c-0.1,1.1-0.2,2.7-0.4,4.7
									c-0.3,4.1-0.8,10.1-1.3,17.4c-1.1,14.7-2.6,35-4,57.5c-1.3,22.5-2.5,42.8-3.4,57.5c-0.4,7.3-0.8,13.3-1,17.4
									c-0.1,2-0.2,3.6-0.3,4.7c0,0.5-0.1,0.9-0.1,1.2c0,0.3,0,0.4,0,0.4c0,0,0-0.1,0-0.4c0-0.3,0-0.7,0-1.2c0-1.1,0.1-2.7,0.2-4.7
									c0.2-4.1,0.5-10.1,0.9-17.4c0.8-14.7,1.9-35.1,3.3-57.5c1.4-22.5,2.9-42.8,4.1-57.5c0.6-7.3,1.1-13.3,1.5-17.4
									c0.2-2,0.3-3.6,0.5-4.7c0.1-0.5,0.1-0.9,0.1-1.2C152.5,280.9,152.5,280.8,152.5,280.8z"/>
							</g>
						</g>
					</g>
				</g>
				<g>
					<g>
						<g>
							<g>
								<path class="st11" d="M127.5,285.1c0-0.1,1.2-0.4,3.1-1.1c0.9-0.3,2.1-0.8,3.2-1.4c1.1-0.7,2.3-1.6,3.1-2.9
									c0.8-1.3,1.2-2.7,1.4-4c0.2-1.3,0.2-2.5,0.1-3.5c-0.1-2-0.2-3.3-0.2-3.3c0,0,0.1,0.3,0.2,0.9c0.1,0.6,0.2,1.4,0.3,2.4
									c0.1,1,0.1,2.2,0,3.6c-0.2,1.3-0.5,2.9-1.4,4.2c-0.9,1.4-2.1,2.3-3.3,3c-1.2,0.7-2.3,1.1-3.3,1.4c-1,0.3-1.8,0.5-2.3,0.6
									C127.8,285.1,127.5,285.1,127.5,285.1z"/>
							</g>
						</g>
					</g>
				</g>
				<g>
					<g>
						<g>
							<g>
								<path class="st11" d="M160.4,367.1c0,0-0.3-0.4-0.6-1.3c-0.4-0.8-0.9-2-1.5-3.6c-1.2-3-2.8-7.2-4.3-12
									c-1.5-4.7-2.7-9.1-3.5-12.2c-0.4-1.6-0.7-2.9-0.9-3.8c-0.2-0.9-0.3-1.4-0.2-1.4c0,0,0.2,0.5,0.4,1.3c0.3,1,0.6,2.2,1,3.7
									c0.9,3.1,2.1,7.4,3.6,12.2c1.5,4.7,3,9,4.1,12c0.5,1.5,1,2.7,1.3,3.6C160.3,366.6,160.4,367.1,160.4,367.1z"/>
							</g>
						</g>
					</g>
				</g>
			</g>
			<g>
				<g>
					<g>
						<g>
							<g>
								<g>
									<path class="st14" d="M147.6,161.9c0,0,43.1,41,42.9,50.6c-0.3,9.6-9.4,12.1-12.4,11.9c-3-0.2-26.8-24.3-26.8-24.3
										L147.6,161.9z"/>
								</g>
							</g>
						</g>
					</g>
				</g>
				<g>
					<g>
						<g>
							<g>
								<g>
									<path class="st15" d="M147.6,161.9c0,0,43.1,41,42.9,50.6c-0.3,9.6-9.4,12.1-12.4,11.9c-3-0.2-26.8-24.3-26.8-24.3
										L147.6,161.9z"/>
								</g>
							</g>
						</g>
					</g>
				</g>
			</g>
			<g>
				<g>
					<g>
						<g>
							<g>
								<g>
									<polygon class="st12" points="127.8,152.7 130.5,143 151.7,151.6 151.2,161.7 141,165.2 130.6,159.5 									"/>
								</g>
							</g>
						</g>
					</g>
				</g>
				<g>
					<g>
						<g>
							<g>
								<g>
									<path class="st12" d="M161.5,266.4l-3.6-82c-0.5-9.8-3.6-21.4-10-28.8l-0.1-1.3l-17.6-3.4c0,0-20.9,4.8-22.1,22.9
										c-0.9,14.4-2.2,71.6-2.2,92.7H161.5z"/>
								</g>
							</g>
						</g>
					</g>
				</g>
				<g>
					<g>
						<g>
							<g>
								<g>
									<g>
										<path class="st8" d="M134.1,150.8c-0.1,0,0.1-1.3,0.5-2.8c0.4-1.5,0.8-2.7,0.9-2.7c0.1,0-0.1,1.3-0.5,2.8
											C134.6,149.6,134.2,150.8,134.1,150.8z"/>
									</g>
								</g>
							</g>
						</g>
					</g>
				</g>
				<g>
					<g>
						<g>
							<g>
								<g>
									<g>
										<path class="st8" d="M142.1,147.7c0.1,0,0,1.3-0.3,2.8c-0.3,1.5-0.6,2.7-0.7,2.7c-0.1,0,0-1.3,0.3-2.8
											C141.6,148.9,141.9,147.7,142.1,147.7z"/>
									</g>
								</g>
							</g>
						</g>
					</g>
				</g>
				<g>
					<g>
						<g>
							<g>
								<g>
									<g>
										<path class="st8" d="M148.2,150.4c0.1,0,0,1.1-0.1,2.5c-0.1,1.4-0.1,2.5-0.2,2.5c-0.1,0-0.3-1.1-0.2-2.5
											C147.8,151.5,148.1,150.4,148.2,150.4z"/>
									</g>
								</g>
							</g>
						</g>
					</g>
				</g>
				<g class="st16">
					<g>
						<g>
							<g>
								<g>
									<g>
										<path d="M117,186c7,13.5,15.4,25.5,25,37.3c2.5,3,5.1,6.1,8.6,7.9c3.5,1.8,5.6,1.2,8.9-1c-3.8-1-4.8-1.3-8.1-3.5
											c-3.2-2.1-6-5.1-8.4-8.2c-8.5-10.5-16.7-21.4-25.2-31.9"/>
									</g>
								</g>
							</g>
						</g>
					</g>
				</g>
			</g>
			<g>
				<g>
					<g>
						<g>
							<path class="st8" d="M125.5,214.2c0.1,0.1-1.4,1.4-3.4,2.7c-2,1.3-3.7,2.1-3.8,2c-0.1-0.1,1.5-1.2,3.5-2.4
								C123.8,215.1,125.4,214.1,125.5,214.2z"/>
						</g>
					</g>
				</g>
			</g>
			<g>
				<g>
					<g>
						<g>
							<path class="st8" d="M115.9,204.7c-0.1,0-0.2-1.5-0.2-3.4c0-1.9,0.2-3.4,0.3-3.4c0.1,0,0.2,1.5,0.2,3.4
								C116.2,203.2,116.1,204.7,115.9,204.7z"/>
						</g>
					</g>
				</g>
			</g>
			<g>
				<g>
					<g>
						<g>
							<path class="st8" d="M116.2,240.7c-0.1,0.1-1.5-1.3-2.8-3.3c-1.3-2.1-1.8-3.9-1.7-4c0.1-0.1,0.9,1.7,2.1,3.7
								C115.1,239.1,116.3,240.6,116.2,240.7z"/>
						</g>
					</g>
				</g>
			</g>
			<g>
				<g>
					<g>
						<g>
							<path class="st8" d="M137.2,235c0.1,0.1-1.9,1.2-4.2,2.6c-2.3,1.4-4.2,2.7-4.2,2.5c-0.1-0.1,1.6-1.6,4-3
								C135.1,235.7,137.2,234.8,137.2,235z"/>
						</g>
					</g>
				</g>
			</g>
			<g>
				<g>
					<g>
						<g>
							<path class="st8" d="M133.4,226.9c-0.1,0.1-1.5-0.6-3.3-1.6c-1.7-1-3.1-2-3-2.1c0.1-0.1,1.5,0.6,3.3,1.6
								C132.2,225.8,133.5,226.8,133.4,226.9z"/>
						</g>
					</g>
				</g>
			</g>
			<g>
				<g>
					<g>
						<g>
							<path class="st8" d="M134.1,217.9c-0.1-0.1,0.5-1.2,1.5-2.5c0.9-1.3,1.8-2.3,1.9-2.2s-0.5,1.2-1.5,2.5
								C135,217,134.2,218,134.1,217.9z"/>
						</g>
					</g>
				</g>
			</g>
			<g>
				<g>
					<g>
						<g>
							<path class="st8" d="M117.8,264.9c-0.1,0.1-1.4-0.9-2.9-2.2c-1.5-1.3-2.7-2.5-2.6-2.6s1.4,0.9,2.9,2.2
								C116.7,263.6,117.9,264.8,117.8,264.9z"/>
						</g>
					</g>
				</g>
			</g>
			<g>
				<g>
					<g>
						<g>
							<path class="st8" d="M131.5,258.9c0.1,0.1-0.7,1.4-2,2.8c-1.3,1.4-2.6,2.2-2.7,2.1c-0.1-0.1,1-1.1,2.3-2.5
								C130.4,260,131.4,258.8,131.5,258.9z"/>
						</g>
					</g>
				</g>
			</g>
			<g>
				<g>
					<g>
						<g>
							<path class="st8" d="M110.3,209.8c0.1,0,0.2,1.8,0.1,4c-0.1,2.2-0.2,4-0.4,4c-0.1,0-0.2-1.8-0.1-4
								C110,211.6,110.2,209.8,110.3,209.8z"/>
						</g>
					</g>
				</g>
			</g>
			<g>
				<g>
					<g>
						<g>
							<path class="st8" d="M113,187.6c0,0.1-0.9,0.2-2,0.2c-1.1,0-2-0.2-2-0.3c0-0.1,0.9-0.2,2-0.2
								C112.2,187.3,113,187.5,113,187.6z"/>
						</g>
					</g>
				</g>
			</g>
			<g>
				<g>
					<g>
						<g>
							<path class="st8" d="M116.4,163.6c0.1,0.1-0.8,1.3-2,2.7c-1.2,1.4-2.3,2.5-2.4,2.4c-0.1-0.1,0.8-1.3,2-2.7
								C115.2,164.6,116.3,163.5,116.4,163.6z"/>
						</g>
					</g>
				</g>
			</g>
			<g>
				<g>
					<g>
						<g>
							<path class="st8" d="M129.3,161.1c-0.1,0-0.4-1.3-0.8-3c-0.4-1.6-0.8-3-0.6-3c0.1-0.1,0.7,1.2,1.2,2.9
								C129.4,159.7,129.4,161.1,129.3,161.1z"/>
						</g>
					</g>
				</g>
			</g>
			<g>
				<g>
					<g>
						<g>
							<g>
								<path class="st9" d="M162.8,155.9c-3,0.1-3.3,0-6.7,0.4c-0.5,0.1-1,0.1-1.5,0.3c-0.5,0.2-0.9,0.6-1,1.1
									c-0.2,0.9,0.8,1.7,1.7,1.9c0.9,0.2,1.9,0,2.8,0.1c1.4,0.3,2.9,0.9,3.8,2c2.1,2.6,4,1.2,5.4,2.1l3.4-2.4l-1.5-5L162.8,155.9"
									/>
							</g>
						</g>
					</g>
				</g>
			</g>
			<g>
				<g>
					<g>
						<g>
							<g>
								<g>
									<path class="st10" d="M167.8,163.8c0,0-0.3-0.2-1-0.2c-0.6-0.1-1.6,0.1-2.8-0.3c-0.6-0.2-1.1-0.6-1.6-1.2
										c-0.4-0.5-0.9-1-1.6-1.4c-0.7-0.4-1.4-0.6-2.2-0.8c-0.8-0.2-1.6,0-2.6-0.1c-0.9-0.1-1.9-0.5-2.2-1.5c-0.2-0.5,0-1,0.3-1.3
										c0.3-0.4,0.7-0.6,1.1-0.7c0.8-0.2,1.5-0.2,2.2-0.3c0.7-0.1,1.3-0.1,1.9-0.1c1.2,0,2.1,0,2.8,0c0.7,0,1,0,1,0
										c0,0-0.4,0.1-1,0.1c-0.7,0.1-1.6,0.1-2.8,0.2c-0.6,0-1.2,0.1-1.9,0.2c-0.7,0.1-1.4,0.1-2.1,0.3c-0.7,0.2-1.3,0.8-1.1,1.5
										c0.2,0.7,1.1,1.2,1.9,1.2c0.8,0.1,1.7-0.1,2.6,0.1c0.8,0.2,1.6,0.4,2.3,0.8c0.7,0.4,1.3,1,1.7,1.5c0.4,0.5,0.9,0.9,1.4,1.1
										c1,0.5,2,0.3,2.7,0.5c0.3,0.1,0.6,0.2,0.7,0.2C167.7,163.7,167.8,163.8,167.8,163.8z"/>
								</g>
							</g>
						</g>
					</g>
				</g>
			</g>
		</g>
		<g>
			<g>
				<g>
					<path class="st8" d="M159.7,153l17-9.1c0.5-0.3,1.1-0.1,1.4,0.3l0,0c0.4,0.5,0.2,1.3-0.4,1.6l-15.5,8.1L159.7,153z"/>
				</g>
			</g>
		</g>
		<g>
			<g>
				<g>
					<g>
						<g>
							<path class="st12" d="M106.3,251.4c0,0-0.2,0.1-0.6,0.2c-0.4,0.1-0.9,0.2-1.6,0.3c-1.4,0.2-3.5,0.3-6.1-0.1
								c-2.5-0.4-5.5-1.3-8.5-2.8c-1.5-0.8-3-1.7-4.5-2.8c-0.7-0.6-1.5-1.1-2.1-1.9c-0.3-0.4-0.6-0.8-0.7-1.4
								c-0.1-0.5,0-1.1,0.3-1.6c0.6-0.9,1.7-1.4,2.6-1.5c1-0.1,1.9,0,2.8,0.1c1.8,0.2,3.6,0.6,5.2,1.1c3.2,1,6,2.5,8,4.1
								c2.1,1.5,3.6,3,4.3,4.3c0.4,0.6,0.6,1.1,0.7,1.5C106.3,251.2,106.4,251.4,106.3,251.4c-0.1,0-0.2-0.8-1-2
								c-0.8-1.2-2.2-2.6-4.3-4.1c-2.1-1.5-4.8-2.9-8-3.9c-1.6-0.5-3.3-0.9-5.1-1.1c-0.9-0.1-1.8-0.2-2.7-0.1
								c-0.9,0.1-1.8,0.5-2.2,1.2c-0.5,0.7-0.2,1.7,0.4,2.4c0.6,0.7,1.3,1.3,2,1.8c1.4,1.1,2.9,2,4.4,2.8c3,1.6,5.9,2.5,8.4,2.9
								c2.5,0.4,4.6,0.4,6,0.3C105.6,251.6,106.3,251.4,106.3,251.4z"/>
						</g>
					</g>
				</g>
			</g>
			<g>
				<g>
					<g>
						<g>
							<path class="st12" d="M104.1,247.6c0,0-0.1-0.1-0.3-0.4c-0.2-0.3-0.5-0.7-0.8-1.1c-0.7-1-1.7-2.4-2.7-4.3
								c-1-1.9-2.1-4.3-2.4-7.1c-0.2-1.4-0.2-2.9,0.2-4.5c0.1-0.4,0.2-0.8,0.3-1.1c0.1-0.4,0.3-0.8,0.5-1.1c0.2-0.3,0.7-0.7,1.2-0.7
								c0.5,0,0.9,0.4,1.2,0.8c3.4,5.6,4.8,11.5,5.1,15.8c0.2,2.1,0.1,3.9,0,5.1c0,0.6-0.1,1.1-0.1,1.4c0,0.3-0.1,0.5-0.1,0.5
								c0,0,0-0.7,0-1.8c0-1.2,0-2.9-0.2-5c-0.4-4.2-1.8-10-5.2-15.5c-0.2-0.3-0.5-0.5-0.8-0.5c-0.3,0-0.6,0.2-0.8,0.5
								c-0.4,0.6-0.6,1.4-0.8,2.1c-0.3,1.5-0.4,2.9-0.2,4.3c0.3,2.8,1.3,5.1,2.3,7c1,1.9,1.9,3.3,2.5,4.3c0.3,0.5,0.5,0.8,0.7,1.2
								C104.1,247.5,104.1,247.6,104.1,247.6z"/>
						</g>
					</g>
				</g>
			</g>
			<g>
				<g>
					<g>
						<g>
							<path class="st12" d="M79.9,271c0-0.1,1.9,1,5.2,1c1.6,0,3.6-0.3,5.6-1.1c2-0.8,4-2.2,5.8-3.9c3.6-3.6,5.7-7.8,7.1-10.8
								c0.7-1.5,1.2-2.7,1.6-3.6c0.4-0.9,0.6-1.3,0.6-1.3c0,0-0.1,0.5-0.5,1.4c-0.3,0.9-0.8,2.1-1.5,3.7c-1.3,3-3.3,7.3-7,11
								c-1.8,1.8-3.9,3.2-6,4c-2.1,0.8-4.1,1.1-5.8,1.1c-1.7-0.1-3-0.4-3.9-0.7c-0.4-0.2-0.8-0.3-1-0.5C80,271.1,79.9,271,79.9,271z
								"/>
						</g>
					</g>
				</g>
			</g>
			<g>
				<g>
					<g>
						<g>
							<path class="st12" d="M102,286.5c0,0-0.2-0.5-0.3-1.4c0-0.2-0.1-0.5-0.1-0.8c0-0.3-0.1-0.6-0.1-0.9c0-0.7-0.2-1.4-0.2-2.2
								c-0.1-3.3,0.2-7.8,1-12.8c0.7-5,1.7-9.4,2.5-12.6c0.4-1.6,0.7-2.9,1-3.8c0.3-0.9,0.4-1.3,0.4-1.4c0,0,0,0.5-0.2,1.4
								c-0.2,1-0.5,2.3-0.8,3.8c-0.7,3.2-1.6,7.6-2.3,12.6c-0.7,4.9-1.2,9.4-1.1,12.7C101.7,284.5,102.1,286.5,102,286.5z"/>
						</g>
					</g>
				</g>
			</g>
			<g>
				<g>
					<g>
						<g>
							<path class="st4" d="M124.2,152.9c0,0,0.1-0.1,0.3-0.2c0.2-0.2,0.6-0.3,1.1-0.5c1-0.3,2.4-0.6,4.2-0.3c1.8,0.3,3.9,1,5.9,2.3
								c2,1.3,4,3,5.9,4.9c3.9,3.9,6.3,8.4,7.5,11.7c0.3,0.8,0.5,1.6,0.7,2.3c0.2,0.7,0.3,1.3,0.4,1.8c0.2,1,0.2,1.5,0.2,1.5
								c-0.1,0-0.4-2.2-1.7-5.5c-1.3-3.3-3.7-7.6-7.5-11.5c-1.9-1.9-3.9-3.6-5.8-4.9c-1.9-1.3-3.9-2-5.7-2.3
								c-1.7-0.3-3.2-0.1-4.1,0.1C124.7,152.7,124.2,153,124.2,152.9z"/>
						</g>
					</g>
				</g>
			</g>
			<g>
				<g>
					<g>
						<g>
							<path class="st14" d="M149,222.6c0,0,0.1,23.5-3.8,24.8c-4.9,1.7-39.3,0-39.3,0v8.4c0,0,34.2-2.2,37,2.2
								c2.6,4.2,27.1,80.5,32.1,103.5h15.4c0,0-8.2-39.4-11.1-49.4c-1.5-5.4-6.7-22.4-11.3-35.6c-4.3-12.4-6.4-25.4-6.1-38.5
								l0.4-17.5l-2.7-45h-9.9L149,222.6z"/>
						</g>
					</g>
				</g>
				<g>
					<g>
						<g>
							<path class="st17" d="M149,222.6c0,0,0.1,23.5-3.8,24.8c-4.9,1.7-39.3,0-39.3,0v8.4c0,0,34.2-2.2,37,2.2
								c2.6,4.2,27.1,80.5,32.1,103.5h15.4c0,0-8.2-39.4-11.1-49.4c-1.5-5.4-6.7-22.4-11.3-35.6c-4.3-12.4-6.4-25.4-6.1-38.5
								l0.4-17.5l-2.7-45h-9.9L149,222.6z"/>
						</g>
					</g>
				</g>
				<g>
					<g>
						<g>
							<g>
								<g>
									<path class="st12" d="M180.2,277.4c0.9-0.4,1.6-1.1,1.9-2c0.3-0.9,0.2-1.9-0.3-2.8c-0.6-1-1.7-1.8-2-2.9
										c-0.4,0.3-0.6,0.8-0.7,1.3c-0.7-0.7,0.1-2-0.7-2.6c-0.4-0.3-1-0.2-1.4,0.1c-1,0.6-1.5,1.8-1.6,3c-0.2,1.8,0.7,3.7,2.1,4.8
										c0.7,0.5,1.6,0.9,2.3,1.5"/>
								</g>
							</g>
						</g>
						<g>
							<g>
								<g>
									<path class="st8" d="M178.7,277.9l-1.1,14.4c-0.1,1,1.1,1.5,1.8,0.8c0,0,0,0,0,0c0.2-0.2,0.2-0.4,0.3-0.6l1.1-14.4
										L178.7,277.9z"/>
								</g>
							</g>
						</g>
						<g>
							<g>
								<g>
									<polygon class="st0" points="178.7,277.9 178.3,276.7 181.2,276.8 180.7,278 									"/>
								</g>
							</g>
						</g>
					</g>
					<g>
						<g>
							<g>
								<path class="st8" d="M173.4,288.1c-0.1-0.4-2-14.4-2.6-19.1c-0.1-0.8,0.5-1.6,1.4-1.6l0,0c0.7,0,1.3,0.5,1.4,1.2l3.3,20.1
									L173.4,288.1z"/>
							</g>
						</g>
					</g>
					<g>
						<g>
							<g>
								<path class="st14" d="M166.2,283.9h16.2c0,0,5,21.1-3.1,28.1l-5-0.9L166.2,283.9z"/>
							</g>
						</g>
					</g>
					<g>
						<g>
							<g>
								<path class="st17" d="M166.2,283.9h16.2c0,0,5,21.1-3.1,28.1l-5-0.9L166.2,283.9z"/>
							</g>
						</g>
					</g>
					<g>
						<g>
							<g>
								<g>
									<path class="st8" d="M180,311c0,0-0.4,0.1-1.1,0.1c-0.7,0-1.7-0.3-2.8-1c-1.1-0.7-2.2-1.8-3.1-3.2c-0.9-1.4-1.7-3-2.6-4.7
										c-1.7-3.4-2.9-6.7-3.7-9.1c-0.4-1.2-0.6-2.2-0.8-2.8c-0.2-0.7-0.2-1.1-0.2-1.1c0,0,0.2,0.4,0.4,1c0.3,0.8,0.6,1.7,1,2.8
										c0.8,2.3,2.1,5.5,3.8,8.9c0.9,1.7,1.7,3.3,2.5,4.7c0.9,1.4,1.9,2.5,2.9,3.1c1,0.7,2,1,2.7,1.1C179.7,311,180,310.9,180,311
										z"/>
								</g>
							</g>
						</g>
					</g>
				</g>
			</g>
		</g>
		<g>
			<g>
				<g>
					<g>
						<g>
							<g>
								<path class="st9" d="M183.9,202.5c0.1-0.9,0.2-1.9,0.6-2.7c0.4-0.8,1.2-1.5,2.1-1.6c0.9,0,1.9,0.8,1.7,1.7
									c-0.1,0.5-0.5,0.9-0.8,1.4c-0.9,1.4-0.8,3.3-0.7,5c0.1,1.7,0,3.7-1.4,4.7"/>
							</g>
						</g>
					</g>
				</g>
			</g>
			<g>
				<g>
					<g>
						<g>
							<g>
								<path class="st12" d="M119,165.7c-6.5,5-7.5,14.4-2.2,20.7l30.8,36.8c6.7,7.9,18,10,27.1,5h0c7.6-4.2,12-12.6,11.1-21.2
									l-7.5-33l-15.1,2.4l1.8,25.2l-25.8-33.1C134.3,162,125.3,160.8,119,165.7L119,165.7z"/>
							</g>
						</g>
					</g>
				</g>
			</g>
			<g>
				<g>
					<g>
						<g>
							<g>
								<path class="st9" d="M184.2,218.3c-3.9-0.7-4.6-1.3-8.4-2c-1.2-0.2-2.7-0.9-2.2-2.1c0.2-0.6,0.9-1.1,1.6-1
									c1.5,0,3.9,0.8,5.4,0.9c0.4,0,0.3-0.3,0.2-0.6c-2.4-0.6-4.8-1-7.2-1.2c-1.5-0.1-2.2-2.1-1-3.1c0.1-0.1,0.8-0.4,1-0.3
									c1.5,0.1,1.5,0.1,3.2,0.4c4.6,0.6,4-0.3,4-0.3c0-0.3-5.3-0.6-8-0.8c-0.6,0-1.2-0.1-1.6-0.5c-0.5-0.5-0.4-1.4,0.1-1.9
									c0.4-0.5,1.1-1,1.8-1c3-0.2,12.9,0.4,12.9,0.4s1.4,1.7,1.1,5.3C186.7,214.3,184.2,218.3,184.2,218.3z"/>
							</g>
						</g>
					</g>
				</g>
			</g>
			<g>
				<g>
					<g>
						<g>
							<g>
								<g>
									<path class="st8" d="M170.8,229.7c0,0-0.1,0-0.4,0.1c-0.3,0-0.7,0.1-1.2,0.2c-1.1,0.1-2.6,0.4-4.7,0.5
										c-2,0.1-4.6,0.1-7.4-0.7c-2.8-0.8-5.8-2.6-8.4-5.1c-2.7-2.5-5.3-5.6-8.1-8.9c-2.8-3.3-5.7-6.9-8.7-10.7
										c-3-3.8-6.2-7.8-9.4-12c-1.6-2.1-3.2-4.2-4.9-6.4c-0.4-0.5-0.8-1.1-1.2-1.6l-0.6-0.9c-0.2-0.3-0.4-0.6-0.5-0.9
										c-0.7-1.2-1.2-2.6-1.5-3.9c-0.3-1.4-0.4-2.8-0.3-4.2c0-0.7,0.2-1.4,0.3-2.1c0.2-0.7,0.3-1.3,0.6-2c0.2-0.7,0.6-1.3,0.9-1.9
										c0.4-0.6,0.7-1.2,1.1-1.7c0.8-1.1,1.8-2,2.9-2.8c1.1-0.8,2.3-1.4,3.5-1.9c1.2-0.4,2.5-0.8,3.8-0.9c2.6-0.3,5.1,0.2,7.4,1.2
										c2.2,1,4.1,2.6,5.5,4.4c1.4,1.8,2.8,3.6,4.1,5.3c2.6,3.4,5.1,6.6,7.3,9.5c4.4,5.8,8,10.5,10.5,13.8
										c1.2,1.6,2.2,2.9,2.8,3.8c0.3,0.4,0.6,0.8,0.7,1c0.2,0.2,0.2,0.3,0.2,0.3s-0.1-0.1-0.3-0.3c-0.2-0.2-0.4-0.5-0.8-1
										c-0.7-0.9-1.7-2.1-2.9-3.7c-2.5-3.3-6.2-7.9-10.6-13.7c-2.2-2.9-4.7-6.1-7.3-9.5c-1.3-1.7-2.7-3.5-4.1-5.3
										c-1.4-1.8-3.2-3.3-5.4-4.3c-2.2-1-4.7-1.4-7.2-1.2c-1.3,0.1-2.5,0.4-3.7,0.9c-1.2,0.5-2.3,1.1-3.4,1.9
										c-1,0.8-2,1.7-2.8,2.8c-0.4,0.5-0.7,1.1-1.1,1.7c-0.3,0.6-0.6,1.2-0.8,1.8c-0.3,0.6-0.4,1.3-0.6,1.9
										c-0.1,0.7-0.3,1.3-0.3,2c-0.1,1.4,0,2.7,0.3,4.1c0.3,1.3,0.8,2.6,1.4,3.8c0.7,1.2,1.5,2.3,2.3,3.3c1.7,2.2,3.3,4.3,4.9,6.4
										c3.2,4.2,6.4,8.2,9.4,12c3,3.8,5.9,7.4,8.7,10.7c2.8,3.3,5.4,6.4,8,8.9c2.6,2.5,5.5,4.3,8.3,5.1c2.8,0.8,5.3,0.8,7.4,0.7
										c2-0.1,3.6-0.3,4.7-0.4c0.5-0.1,0.9-0.1,1.2-0.1C170.7,229.7,170.8,229.7,170.8,229.7z"/>
								</g>
							</g>
						</g>
					</g>
				</g>
			</g>
			<g>
				<g>
					<g>
						<g>
							<g>
								<g>
									<path class="st8" d="M167.2,213.2c-0.1,0,0.7-2.9-0.1-6.5c-0.7-3.6-2.6-5.9-2.5-6c0,0,0.6,0.5,1.2,1.5
										c0.6,1,1.3,2.5,1.7,4.3c0.4,1.8,0.4,3.5,0.2,4.7C167.5,212.6,167.3,213.3,167.2,213.2z"/>
								</g>
							</g>
						</g>
					</g>
				</g>
			</g>
			<g>
				<g>
					<g>
						<g>
							<g>
								<path class="st8" d="M128.1,180.5c-0.1,0.1-1.8-0.7-3.9-1.8c-2.1-1.1-3.8-2.2-3.7-2.3c0.1-0.1,1.8,0.7,3.9,1.8
									C126.5,179.4,128.2,180.4,128.1,180.5z"/>
							</g>
						</g>
					</g>
				</g>
				<g>
					<g>
						<g>
							<g>
								<path class="st8" d="M138.6,186.8c-0.1,0-0.3-2.1,0-4.7c0.3-2.6,0.8-4.6,1-4.6c0.1,0-0.2,2.1-0.5,4.6
									C138.8,184.7,138.7,186.8,138.6,186.8z"/>
							</g>
						</g>
					</g>
				</g>
				<g>
					<g>
						<g>
							<g>
								<path class="st8" d="M139.7,199.4c0,0.1-1.7-0.1-3.7-0.8c-2-0.7-3.5-1.5-3.4-1.7c0.1-0.1,1.6,0.5,3.6,1.2
									C138.1,198.8,139.8,199.2,139.7,199.4z"/>
							</g>
						</g>
					</g>
				</g>
				<g>
					<g>
						<g>
							<g>
								<path class="st8" d="M151.8,206.2c-0.1,0-0.1-2,0.2-4.3c0.2-2.4,0.5-4.3,0.7-4.3c0.1,0,0.1,2-0.2,4.3
									C152.3,204.3,152,206.2,151.8,206.2z"/>
							</g>
						</g>
					</g>
				</g>
				<g>
					<g>
						<g>
							<g>
								<path class="st8" d="M154.1,218.6c-0.1,0.1-1.5-1.3-3-3.1c-1.6-1.8-2.7-3.4-2.6-3.5c0.1-0.1,1.5,1.3,3,3.1
									C153,217,154.2,218.5,154.1,218.6z"/>
							</g>
						</g>
					</g>
				</g>
				<g>
					<g>
						<g>
							<g>
								<path class="st8" d="M170.5,219.9c0,0.2-1.7,0.3-3.8,0.7c-2.1,0.4-3.8,0.9-3.8,0.7c-0.1-0.1,1.6-0.9,3.7-1.3
									C168.8,219.7,170.5,219.8,170.5,219.9z"/>
							</g>
						</g>
					</g>
				</g>
				<g>
					<g>
						<g>
							<g>
								<path class="st8" d="M172.5,197.1c-0.1-0.1,0.5-1.6,1.5-3.4c1-1.8,1.8-3.2,2-3.1c0.1,0.1-0.5,1.6-1.5,3.4
									C173.5,195.7,172.7,197.1,172.5,197.1z"/>
							</g>
						</g>
					</g>
				</g>
				<g>
					<g>
						<g>
							<g>
								<path class="st8" d="M172.7,184.2c-0.1,0.1-1.2-0.4-2.6-1.2c-1.4-0.8-2.4-1.5-2.4-1.6c0.1-0.1,1.2,0.4,2.6,1.2
									C171.7,183.3,172.7,184.1,172.7,184.2z"/>
							</g>
						</g>
					</g>
				</g>
			</g>
		</g>
		<g>
			<g>
				<g>
					<g>
						<g>
							<g>
								<g>
									<path class="st10" d="M156.5,148.2c-2.1,1.2-3.5,4.2-4.8,6.1c-0.4,0.6-0.8,1.2-0.9,1.9c-0.1,0.8,0.2,1.5,0.5,2.2
										c0.4,1,0.9,2.1,1.4,3.1c0.1,0.3,0.3,0.6,0.6,0.7c0.4,0.1,0.7-0.3,0.9-0.7c0.4-0.9,0.3-2,0.4-3c0.1-1,0.5-2.1,1.4-2.6"/>
								</g>
							</g>
						</g>
					</g>
				</g>
				<g>
					<g>
						<g>
							<g>
								<g>
									<g>
										<path class="st9" d="M160.3,156l-2.2-1.5c-0.3-0.2-0.7-0.2-0.9,0.1l-1,1.3c0,0,0,0,0,0l0.7,3.2c0.9,4.1-2.2,3.6-2.2,3.6
											l-0.3-0.8l-1.6-5c-0.4-2.4-0.2-2.7,0.9-4.5l2.4-3.8c0.5-0.8,1.5-1.2,2.4-0.9c3.8,1.2,11.9,3.3,12.9,6.4
											c1.9,5.6,3.9,19.8,3.9,20.1c0,0,0,0,0,0l-11.1,1.7c0,0,0,0,0,0l-0.5-9.6c0,0-1.7-0.9-2.3-2.6
											C161,162.1,160.3,156,160.3,156"/>
									</g>
								</g>
							</g>
						</g>
					</g>
					<g>
						<g>
							<g>
								<g>
									<g>
										<g>
											<path class="st10" d="M168.2,157.5c0,0-0.1,0.2-0.4,0.5c-0.3,0.3-0.8,0.7-1.5,0.9c-0.4,0.1-0.8,0.1-1.2,0
												c-0.4-0.1-0.9-0.3-1.2-0.7c-0.7-0.8-0.8-1.9-1.5-2.7c-0.3-0.4-0.8-0.6-1.2-0.9c-0.4-0.3-0.9-0.5-1.3-0.6
												c-0.4-0.2-0.9-0.4-1.2-0.3c-0.3,0.1-0.6,0.4-0.9,0.6c-1,1-1.5,1.7-1.6,1.7c0,0,0.1-0.2,0.3-0.5c0.2-0.3,0.5-0.8,1-1.3
												c0.3-0.3,0.5-0.6,1-0.7c0.1,0,0.2-0.1,0.4,0c0.1,0,0.2,0,0.3,0.1c0.2,0.1,0.5,0.1,0.7,0.2c0.4,0.2,0.9,0.4,1.4,0.6
												c0.5,0.3,0.9,0.5,1.3,1c0.7,0.9,0.8,2,1.4,2.7c0.6,0.7,1.5,0.8,2.1,0.6c0.7-0.1,1.1-0.5,1.5-0.7
												C168,157.6,168.2,157.5,168.2,157.5z"/>
										</g>
									</g>
								</g>
							</g>
						</g>
					</g>
				</g>
				<g>
					<g>
						<g>
							<g>
								<g>
									<g>
										<path class="st10" d="M167.1,161c0,0.1-1.5,0-3.2-0.4c-1.7-0.4-3.1-1-3-1.1c0-0.1,1.4,0.3,3.1,0.7
											C165.7,160.6,167.1,160.9,167.1,161z"/>
									</g>
								</g>
							</g>
						</g>
					</g>
				</g>
				<g>
					<g>
						<g>
							<g>
								<g>
									<g>
										<path class="st10" d="M162.4,153.6c0-0.1,0.2-0.1,0.5,0c0.3,0.1,0.7,0.5,0.8,1c0.1,0.5-0.1,1-0.4,1.2
											c-0.2,0.2-0.5,0.3-0.5,0.2c0-0.1,0.1-0.2,0.3-0.4c0.1-0.2,0.3-0.6,0.2-1c-0.1-0.4-0.3-0.7-0.5-0.8
											C162.5,153.7,162.4,153.6,162.4,153.6z"/>
									</g>
								</g>
							</g>
						</g>
					</g>
				</g>
			</g>
			<g>
				<g>
					<g>
						<g>
							<path class="st11" d="M145.2,161c-0.8-0.6-1.8-0.8-2.7-0.6s-1.8,0.8-2.2,1.6c-0.6,1-0.6,2.4-1.5,3.2c0.5,0.2,1,0.1,1.4-0.1
								c-0.2,0.9-1.8,1-1.9,1.9c-0.1,0.5,0.4,0.9,0.8,1.2c1.1,0.5,2.3,0.4,3.4-0.1c1.6-0.8,2.8-2.5,3-4.3c0.1-0.9,0-1.8,0.1-2.7"/>
						</g>
					</g>
				</g>
				<g>
					<g>
						<g>
							<path class="st8" d="M146.3,162.1l13-6.4c0.9-0.4,0.7-1.7-0.3-1.9c0,0,0,0,0,0c-0.2,0-0.5,0-0.7,0.1l-12.9,6.4L146.3,162.1z"
								/>
						</g>
					</g>
				</g>
				<g>
					<g>
						<g>
							<polygon class="st0" points="146.3,162.1 145.5,163 144.1,160.5 145.4,160.3 							"/>
						</g>
					</g>
				</g>
			</g>
		</g>
	</g>
</g>
<g id="Plant">
	<g>
		<g>
			<g>
				<g>
					<path class="st12" d="M428.1,394.5c1-3.3,3-6.5,6.1-7.8c3.3-1.4,7.1-0.6,10.4,0.6c3.4,1.2,6.6,2.8,10.2,3.1
						c3.6,0.2,7.6-1.5,8.6-4.9c1-3.2-0.9-6.6-3.3-8.9c-5.1-4.9-12.7-7-19.5-5.3c-6.8,1.6-12.7,6.9-15,13.6"/>
				</g>
			</g>
		</g>
		<g class="st18">
			<g>
				<g>
					<g>
						<path d="M428.1,394.5c1-3.3,3-6.5,6.1-7.8c3.3-1.4,7.1-0.6,10.4,0.6c3.4,1.2,6.6,2.8,10.2,3.1c3.6,0.2,7.6-1.5,8.6-4.9
							c1-3.2-0.9-6.6-3.3-8.9c-5.1-4.9-12.7-7-19.5-5.3c-6.8,1.6-12.7,6.9-15,13.6"/>
					</g>
				</g>
			</g>
		</g>
		<g>
			<g>
				<g>
					<path class="st12" d="M399.9,408.8c-5.2-5-5-13.6-2.4-20.3c2.6-6.7,8.3-11.9,14.6-15.3c12.3-6.6,27.7-7.1,40.4-1.3
						c-6.2,0.2-12.3,3.8-15.5,9.1c-2.9,4.8-3.5,10.5-5.9,15.5c-2.6,5.6-7.5,10.1-13.2,12.4C412.2,411.1,405.6,411.1,399.9,408.8"/>
				</g>
			</g>
		</g>
		<g>
			<g>
				<g>
					<path class="st12" d="M397.4,379c-5.8-6.8-6.5-17.8-5.7-26.7s2.9-17.9,1.5-26.7c-0.8-5.2-2.9-10.2-3.5-15.5
						c-0.7-5.3,0.3-11.2,4.4-14.6c4.7-3.9,12-3,16.9,0.7c4.9,3.7,7.7,9.4,9.7,15.1c4.5,12.6,6.2,26.5,2.5,39.4
						c-3.7,12.8-12.4,24.3-25.2,28.2"/>
				</g>
			</g>
		</g>
		<g>
			<g>
				<g>
					<g>
						<path class="st8" d="M394.6,434.9c0,0,0-0.3,0-0.8c0-0.5,0-1.3,0-2.3c0.1-2,0.3-4.8,0.7-8.3c0.4-3.5,1.1-7.6,2.2-12.1
							c1.1-4.5,2.9-9.3,5.5-14c2.6-4.7,5.8-8.7,9-12.1c3.2-3.3,6.5-5.9,9.5-7.9c1.4-1,2.8-1.8,4-2.5c1.2-0.6,2.3-1.2,3.2-1.6
							c0.9-0.4,1.6-0.7,2.1-0.9c0.5-0.2,0.7-0.3,0.7-0.3s-0.2,0.1-0.7,0.4c-0.5,0.2-1.2,0.6-2,1c-0.9,0.5-1.9,1-3.1,1.7
							c-1.2,0.7-2.6,1.5-4,2.5c-2.9,2-6.1,4.6-9.3,7.9c-3.2,3.3-6.3,7.3-8.9,12c-5.3,9.3-6.8,19.1-7.8,25.9
							c-0.5,3.5-0.7,6.3-0.9,8.2c-0.1,0.9-0.1,1.7-0.1,2.2C394.6,434.7,394.6,434.9,394.6,434.9z"/>
					</g>
				</g>
			</g>
		</g>
		<g>
			<g>
				<g>
					<g>
						<path class="st12" d="M344.7,352.1c-10.7,6.5-10.7,12.3-8.9,17.9c1.8,5.5,8.3,9.4,13.8,7.3c3.1-1.2,5.3-3.8,7.2-6.5
							c1.9-2.7,3.7-5.6,6.4-7.5s6.5-2.7,9.2-0.8"/>
					</g>
				</g>
			</g>
			<g class="st18">
				<g>
					<g>
						<g>
							<path d="M344.7,352.1c-10.7,6.5-10.7,12.3-8.9,17.9c1.8,5.5,8.3,9.4,13.8,7.3c3.1-1.2,5.3-3.8,7.2-6.5
								c1.9-2.7,3.7-5.6,6.4-7.5s6.5-2.7,9.2-0.8"/>
						</g>
					</g>
				</g>
			</g>
			<g>
				<g>
					<g>
						<path class="st12" d="M336.7,359.1c2.8-3.9,9.7-5,14.1-3.1c4.4,1.9,7.6,5.8,10.4,9.6c2.9,3.8,5.6,7.8,9.6,10.5
							c4,2.7,9.5,3.6,13.4,0.9c2.6-1.8,4.1-4.8,4.6-7.9c0.5-3.1,0-6.3-0.6-9.3c-0.9-4.5-2.5-9.2-6.1-12c-4-3.2-9.5-3.3-14.7-3.2
							c-5.9,0.2-11.8,0.6-17.3,2.7C344.7,349.4,339.1,353.8,336.7,359.1"/>
					</g>
				</g>
			</g>
			<g>
				<g>
					<g>
						<g>
							<path class="st8" d="M385.7,429.6c0,0,0-0.1,0-0.2c0-0.2,0-0.4,0-0.7c0-0.7-0.1-1.6-0.1-2.7c-0.1-2.4-0.2-5.9-0.3-10.1
								c-0.1-4.3-0.3-9.3-0.6-15c-0.3-5.6-0.6-11.8-1.4-18.3c-0.4-3.2-0.9-6.4-1.6-9.3c-0.2-0.7-0.4-1.5-0.6-2.2
								c-0.3-0.7-0.5-1.4-0.8-2.1c-0.3-0.7-0.6-1.3-0.8-2c-0.3-0.6-0.6-1.3-0.9-1.9c-2.5-5-5.7-9.1-8.8-12c-3.1-2.9-6.1-4.7-8.2-5.7
								c-0.5-0.2-1-0.5-1.4-0.7c-0.4-0.2-0.8-0.3-1.1-0.4c-0.3-0.1-0.5-0.2-0.7-0.3c-0.1-0.1-0.2-0.1-0.2-0.1c0,0,0.1,0,0.2,0.1
								c0.2,0.1,0.4,0.1,0.7,0.2c0.3,0.1,0.7,0.2,1.1,0.4c0.4,0.2,0.9,0.4,1.5,0.6c2.2,1,5.2,2.7,8.4,5.6c3.2,2.9,6.4,7,8.9,12
								c0.3,0.6,0.6,1.3,0.9,1.9c0.3,0.7,0.6,1.3,0.9,2c0.3,0.7,0.5,1.4,0.8,2.1c0.2,0.7,0.4,1.5,0.6,2.2c0.7,3,1.2,6.2,1.6,9.4
								c0.8,6.5,1.1,12.7,1.4,18.3c0.3,5.6,0.4,10.7,0.5,15c0.1,4.3,0.1,7.7,0.1,10.1c0,1.2,0,2.1,0,2.7c0,0.3,0,0.5,0,0.7
								C385.7,429.5,385.7,429.6,385.7,429.6z"/>
						</g>
					</g>
				</g>
			</g>
		</g>
		<g>
			<g>
				<g>
					<g>
						<path class="st8" d="M389.5,431.2c0,0-0.6-1.6-1.2-4.6c-0.6-3-1-7.4-0.5-12.9c0.5-5.5,1.8-11.9,4.1-18.7
							c2.2-6.9,5.2-14.2,7.7-22.1c1.3-4,2.3-7.9,3.1-11.7c0.7-3.8,1.2-7.6,1.5-11.2c0.6-7.2,0.5-13.7,0.3-19.1
							c-0.2-5.4-0.5-9.8-0.6-12.9c-0.1-1.5-0.2-2.7-0.2-3.5c0-0.4,0-0.7,0-0.9c0-0.2,0-0.3,0-0.3c0,0,0,0.1,0,0.3
							c0,0.2,0.1,0.5,0.1,0.9c0.1,0.8,0.2,2,0.3,3.5c0.2,3,0.6,7.4,0.8,12.9c0.2,5.4,0.3,12-0.2,19.2c-0.3,3.6-0.8,7.4-1.5,11.2
							c-0.7,3.9-1.8,7.8-3.1,11.8c-2.6,7.9-5.5,15.3-7.8,22.1c-2.2,6.8-3.7,13.2-4.2,18.6c-0.5,5.4-0.2,9.8,0.3,12.8
							c0.3,1.5,0.5,2.7,0.7,3.4c0.1,0.4,0.2,0.7,0.2,0.9C389.5,431.1,389.6,431.2,389.5,431.2z"/>
					</g>
				</g>
			</g>
		</g>
		<g>
			<g>
				<g>
					<polygon class="st8" points="416.1,436 365.9,436 364.7,426.4 416.1,426.4 					"/>
				</g>
			</g>
		</g>
		<g>
			<g>
				<g>
					<polygon class="st8" points="371.2,434.9 377.5,463.9 404.8,463.9 410.7,434.9 					"/>
				</g>
			</g>
		</g>
		<g>
			<g>
				<g>
					<g>
						<path class="st11" d="M416.1,436c0,0.1-11,0.2-24.7,0.2c-13.6,0-24.7-0.2-24.7-0.3s11-0.2,24.7-0.2
							C405,435.7,416.1,435.9,416.1,436z"/>
					</g>
				</g>
			</g>
		</g>
		<g>
			<g>
				<g>
					<g>
						<path class="st11" d="M407.4,450.3c-0.1,0.1-1.5-1.4-4.4-2.5c-1.5-0.6-3.3-1-5.4-1.1c-2.1-0.1-4.3,0.4-6.6,1.2
							c-2.3,0.8-4.4,1.7-6.5,2.2c-2.1,0.5-4,0.4-5.6,0.2c-1.6-0.3-2.8-0.7-3.6-1.2c-0.4-0.2-0.7-0.4-0.9-0.6
							c-0.2-0.1-0.3-0.2-0.3-0.2c0,0,0.4,0.2,1.2,0.6c0.8,0.4,2,0.8,3.6,1c1.6,0.2,3.5,0.2,5.5-0.3c2-0.5,4.1-1.4,6.4-2.2
							c2.3-0.8,4.6-1.3,6.8-1.2c2.1,0.1,4,0.6,5.5,1.2c1.5,0.6,2.6,1.4,3.3,1.9c0.4,0.3,0.6,0.5,0.8,0.7
							C407.4,450.2,407.4,450.3,407.4,450.3z"/>
					</g>
				</g>
			</g>
		</g>
		<g>
			<g>
				<g>
					<g>
						<path class="st4" d="M407.1,452.3c-0.1,0.1-1.4-1.3-4.3-2.5c-1.4-0.6-3.2-1-5.2-1.1c-2-0.1-4.2,0.4-6.4,1.2
							c-2.2,0.7-4.3,1.6-6.3,2.1c-2,0.5-3.9,0.7-5.4,0.6c-1.6-0.1-2.8-0.6-3.5-1c-0.4-0.2-0.7-0.4-0.8-0.5c-0.2-0.1-0.3-0.2-0.3-0.2
							c0,0,0.4,0.2,1.2,0.6c0.8,0.3,2,0.7,3.5,0.8c1.5,0.1,3.3-0.1,5.3-0.7c1.9-0.5,4-1.4,6.2-2.2c2.2-0.8,4.5-1.2,6.6-1.1
							c2.1,0.1,3.9,0.6,5.3,1.2c1.4,0.6,2.5,1.4,3.1,1.9c0.3,0.3,0.6,0.5,0.7,0.7C407,452.2,407.1,452.3,407.1,452.3z"/>
					</g>
				</g>
			</g>
		</g>
		<g>
			<g>
				<g>
					<g>
						<path class="st4" d="M407.9,448.4c-0.1,0.1-1.5-1.4-4.5-2.7c-1.5-0.6-3.4-1.2-5.5-1.3c-2.1-0.1-4.5,0.4-6.8,1.2
							c-2.4,0.8-4.6,1.8-6.7,2.2c-2.2,0.4-4.2,0.3-5.8,0c-1.6-0.3-2.9-0.8-3.7-1.2c-0.4-0.2-0.7-0.4-0.9-0.6
							c-0.2-0.1-0.3-0.2-0.3-0.2c0,0,0.4,0.3,1.3,0.6c0.8,0.4,2.1,0.8,3.7,1c1.6,0.2,3.6,0.3,5.7-0.1c2.1-0.4,4.3-1.4,6.7-2.2
							c2.4-0.8,4.8-1.4,7-1.2c2.2,0.2,4.1,0.8,5.6,1.5c1.5,0.7,2.6,1.5,3.3,2c0.4,0.3,0.6,0.5,0.8,0.7
							C407.9,448.3,407.9,448.4,407.9,448.4z"/>
					</g>
				</g>
			</g>
		</g>
	</g>
</g>
<g id="Blank_Canvas">
	<g>
		<g>
			<g>
				<g>
					<g>
						<g>
							<g>
								<polygon class="st8" points="254.5,321.1 221.8,464.3 229.5,464.3 261.5,321.1 								"/>
							</g>
						</g>
					</g>
					<g>
						<g>
							<g>
								<polygon class="st11" points="250.6,321.1 217.9,464.3 225.7,464.3 257.6,321.1 								"/>
							</g>
						</g>
					</g>
				</g>
				<g>
					<g>
						<g>
							<g>
								<path class="st8" d="M338.9,312.5c0,1.3,28.4,151.5,28.4,151.5h8.3l-29-151.5H338.9z"/>
							</g>
						</g>
					</g>
					<g>
						<g>
							<g>
								<path class="st11" d="M335.4,312.5c0,1.3,28.4,151.5,28.4,151.5h8.9l-29.5-151.5H335.4z"/>
							</g>
						</g>
					</g>
				</g>
				<g>
					<g>
						<g>
							<polygon class="st8" points="316.6,321.1 314.7,464.3 325.2,464.3 326.7,321.1 							"/>
						</g>
					</g>
				</g>
				<g>
					<g>
						<g>
							<polygon class="st11" points="240.5,312.5 239.9,322 327.9,325 328.9,313.7 							"/>
						</g>
					</g>
				</g>
				<g>
					<g>
						<g>
							<polygon class="st8" points="327.9,325 332.8,325 333.7,313.7 328.9,313.7 							"/>
						</g>
					</g>
				</g>
				<g>
					<g>
						<g>
							<polygon class="st11" points="246.5,358 313.6,361.1 313.6,372.6 244.5,369.2 							"/>
						</g>
					</g>
				</g>
				<g>
					<g>
						<g>
							<polygon class="st11" points="313.6,321.1 311.7,464.3 322.2,464.3 323.8,321.1 							"/>
						</g>
					</g>
				</g>
				<g>
					<g>
						<g>
							<path class="st11" d="M269.1,321.1c-0.3,1.9,0,7.7,0,7.7l36.2,2.1v-8.3L269.1,321.1z"/>
						</g>
					</g>
				</g>
			</g>
			<g>
				<g>
					<g>
						<g>
							<path class="st11" d="M300.6,48.2c0.4,1,6.1,38.9,6.1,38.9l6.8-0.5L308,48.2H300.6z"/>
						</g>
					</g>
				</g>
				<g>
					<g>
						<g>
							<polygon class="st8" points="311.3,51.1 308,48.2 313.5,86.6 316.3,86.4 							"/>
						</g>
					</g>
				</g>
				<g>
					<g>
						<g>
							<path class="st8" d="M320.2,66c0,0.7-0.5,20.3-0.5,20.3l7.2-0.5V66H320.2z"/>
						</g>
					</g>
				</g>
				<g>
					<g>
						<g>
							<path class="st11" d="M318.3,66c0,0.7-0.5,20.3-0.5,20.3l7.2-0.5V66H318.3z"/>
						</g>
					</g>
				</g>
				<g>
					<g>
						<g>
							<polygon class="st8" points="296.3,66.6 290.9,88.2 297.3,87.7 302.2,66.6 							"/>
						</g>
					</g>
				</g>
				<g>
					<g>
						<g>
							<polygon class="st11" points="293.5,66.6 288.2,88.2 294.6,87.7 299.4,66.6 							"/>
						</g>
					</g>
				</g>
			</g>
		</g>
		<g>
			<g>
				<g>
					<g>
						<polygon class="st0" points="375.2,80.7 379.6,84.6 374.1,314.2 367.7,314.2 						"/>
					</g>
				</g>
			</g>
			<g>
				<g>
					<g>
						<g>
							<polygon class="st2" points="230.9,92.9 212.1,311.6 367.7,314.2 375.2,80.7 							"/>
						</g>
					</g>
				</g>
				<g>
					<g>
						<g>
							<g>
								<path class="st11" d="M230.9,92.9c0,0,0.9-0.1,2.6-0.2c1.7-0.2,4.2-0.4,7.5-0.7c6.6-0.6,16.4-1.4,28.9-2.5
									c25.1-2.1,61.2-5.2,105.3-9l0.2,0l0,0.2c-2,63-4.6,143.9-7.4,231.8c0,0.6,0,1.1-0.1,1.7l0,0.3l-0.3,0
									c-55.7-0.9-108.6-1.8-155.6-2.6l-0.3,0l0-0.3c5.6-64.7,10.4-119.4,13.7-157.9c1.7-19.2,3-34.4,3.9-44.8
									c0.5-5.2,0.8-9.2,1.1-11.9c0.1-1.3,0.2-2.4,0.3-3C230.9,93.3,230.9,92.9,230.9,92.9s0,0.4-0.1,1c-0.1,0.7-0.1,1.7-0.2,3.1
									c-0.2,2.7-0.6,6.7-1,11.9c-0.9,10.4-2.2,25.6-3.8,44.9c-3.3,38.5-8,93.1-13.5,157.8l-0.2-0.3c47,0.8,99.9,1.6,155.6,2.5
									l-0.3,0.3c0-0.5,0-1.1,0.1-1.7c2.9-87.9,5.5-168.8,7.5-231.8l0.2,0.2c-44.1,3.7-80.2,6.7-105.2,8.8
									c-12.5,1-22.3,1.8-28.9,2.4c-3.3,0.3-5.9,0.5-7.6,0.6C231.8,92.9,230.9,92.9,230.9,92.9z"/>
							</g>
						</g>
					</g>
				</g>
			</g>
		</g>
	</g>
</g>
<g id="Speech_Bubble">
</g>
</svg>
