<?xml version="1.0" encoding="utf-8"?>
<!-- Generator: Adobe Illustrator 19.0.0, SVG Export Plug-In . SVG Version: 6.00 Build 0)  -->
<svg version="1.1" xmlns="http://www.w3.org/2000/svg" xmlns:xlink="http://www.w3.org/1999/xlink" x="0px" y="0px"
	 viewBox="0 0 500 327.7" style="enable-background:new 0 0 500 327.7;" xml:space="preserve">
<style type="text/css">
	.st0{opacity:0.3;fill:#6957AA;}
	.st1{fill:#513E84;}
	.st2{fill:#BEB7ED;}
	.st3{fill:#EFEFEF;}
	.st4{clip-path:url(#SVGID_2_);}
	.st5{fill:#F7F7F7;}
	.st6{fill:#FFFFFF;}
	.st7{fill:#F4F4F4;}
	.st8{fill:#6957AA;}
	.st9{fill:#5D4495;}
</style>
<g id="OBJECTS">
	<ellipse class="st0" cx="250.6" cy="321.3" rx="128.4" ry="6.3"/>
	<g>
		<g>
			<g>
				<path class="st1" d="M180.1,7c0.5-2.1,2.6-3.3,4.6-2.8c2.1,0.5,3.3,2.6,2.8,4.6c-0.1,0.5-0.3,0.9-0.6,1.3l65.8,84.5l-1.2,1
					l-65.8-84.5c-0.8,0.5-1.8,0.7-2.8,0.4C180.9,11.1,179.6,9,180.1,7z"/>
			</g>
			<g>
				<path class="st1" d="M326.9,7c-0.5-2.1-2.6-3.3-4.6-2.8c-2.1,0.5-3.3,2.6-2.8,4.6c0.1,0.5,0.3,0.9,0.6,1.3l-65.8,84.5l1.2,1
					l65.8-84.5c0.8,0.5,1.8,0.7,2.8,0.4C326.2,11.1,327.4,9,326.9,7z"/>
			</g>
		</g>
		<path class="st2" d="M340.4,245.3H174.2c-12.7,0-30.6-10.3-30.6-23v-106c0-12.7,17.9-23,30.6-23h166.2c12.7,0,23,10.3,23,23v106
			C363.4,235.1,353.1,245.3,340.4,245.3z"/>
		<g>
			<path class="st3" d="M348.1,170.8h-32.1c-1.1,0-1.9-0.9-1.9-1.9l0,0c0-1.1,0.9-1.9,1.9-1.9h32.1c1.1,0,1.9,0.9,1.9,1.9l0,0
				C350,170,349.2,170.8,348.1,170.8z"/>
			<path class="st3" d="M348.1,178.2h-32.1c-1.1,0-1.9-0.9-1.9-1.9l0,0c0-1.1,0.9-1.9,1.9-1.9h32.1c1.1,0,1.9,0.9,1.9,1.9l0,0
				C350,177.4,349.2,178.2,348.1,178.2z"/>
			<path class="st3" d="M348.1,185.6h-32.1c-1.1,0-1.9-0.9-1.9-1.9l0,0c0-1.1,0.9-1.9,1.9-1.9h32.1c1.1,0,1.9,0.9,1.9,1.9l0,0
				C350,184.8,349.2,185.6,348.1,185.6z"/>
			<path class="st3" d="M348.1,193h-32.1c-1.1,0-1.9-0.9-1.9-1.9l0,0c0-1.1,0.9-1.9,1.9-1.9h32.1c1.1,0,1.9,0.9,1.9,1.9l0,0
				C350,192.2,349.2,193,348.1,193z"/>
			<path class="st3" d="M348.1,200.4h-32.1c-1.1,0-1.9-0.9-1.9-1.9l0,0c0-1.1,0.9-1.9,1.9-1.9h32.1c1.1,0,1.9,0.9,1.9,1.9l0,0
				C350,199.6,349.2,200.4,348.1,200.4z"/>
			<path class="st3" d="M348.1,207.8h-32.1c-1.1,0-1.9-0.9-1.9-1.9l0,0c0-1.1,0.9-1.9,1.9-1.9h32.1c1.1,0,1.9,0.9,1.9,1.9l0,0
				C350,207,349.2,207.8,348.1,207.8z"/>
			<g>
				<circle class="st3" cx="332.1" cy="125.8" r="10.5"/>
				<path class="st3" d="M329.5,135.1L329.5,135.1c-0.9-0.2-1.4-1.1-1.1-2l4.3-15.4c0.2-0.9,1.1-1.4,2-1.1l0,0
					c0.9,0.2,1.4,1.1,1.1,2l-4.3,15.4C331.2,134.8,330.3,135.3,329.5,135.1z"/>
				<path class="st3" d="M326.7,120.4c-3,3-3,7.8,0,10.8c0.6,0.6,1.2,1,1.8,1.3l4-14.3C330.4,118.1,328.3,118.8,326.7,120.4z"/>
				<path class="st3" d="M337.5,120.4c-0.6-0.6-1.2-1-1.8-1.3l-4,14.3c2.1,0.1,4.2-0.6,5.8-2.2C340.4,128.2,340.4,123.4,337.5,120.4
					z"/>
			</g>
			<g>
				<circle class="st3" cx="332.1" cy="150.4" r="10.5"/>
				<path class="st3" d="M323.7,155.1L323.7,155.1c-0.4-0.8-0.2-1.8,0.6-2.2l14-7.8c0.8-0.4,1.8-0.2,2.2,0.6l0,0
					c0.4,0.8,0.2,1.8-0.6,2.2l-14,7.8C325.1,156.2,324.1,155.9,323.7,155.1z"/>
				<path class="st3" d="M332.1,142.8c-4.2,0-7.6,3.4-7.7,7.6c0,0.8,0.1,1.5,0.3,2.2l13-7.2C336.4,143.8,334.4,142.8,332.1,142.8z"
					/>
				<path class="st3" d="M339.7,150.5c0-0.8-0.1-1.5-0.3-2.2l-13,7.2c1.4,1.6,3.4,2.6,5.7,2.6C336.2,158.1,339.7,154.7,339.7,150.5z
					"/>
			</g>
			<line class="st3" x1="338.9" y1="112.8" x2="339" y2="113"/>
		</g>
		<path class="st3" d="M156.9,207.2v-89.8c0-5.9,4.8-10.7,10.7-10.7h131c5.9,0,10.7,4.8,10.7,10.7v89.8c0,5.9-4.8,10.7-10.7,10.7
			h-131C161.7,217.9,156.9,213.1,156.9,207.2z"/>
		<g>
			<defs>
				<path id="SVGID_1_" d="M156.9,207.2v-89.8c0-5.9,4.8-10.7,10.7-10.7h131c5.9,0,10.7,4.8,10.7,10.7v89.8
					c0,5.9-4.8,10.7-10.7,10.7h-131C161.7,217.9,156.9,213.1,156.9,207.2z"/>
			</defs>
			<clipPath id="SVGID_2_">
				<use xlink:href="#SVGID_1_"  style="overflow:visible;"/>
			</clipPath>
			<g class="st4">
				<polygon class="st5" points="172.8,128.8 198.6,128.8 198.6,125.1 157.1,125.1 157.1,132.2 172.8,132.2 				"/>
				<polygon class="st6" points="203.1,116 228.9,116 228.9,112.2 187.4,112.2 187.4,119.4 203.1,119.4 				"/>
				<polygon class="st7" points="255.4,144.1 281.2,144.1 281.2,140.3 239.7,140.3 239.7,147.5 255.4,147.5 				"/>
				<rect x="178" y="132.2" class="st6" width="8.3" height="8"/>
				<rect x="215.4" y="178.9" class="st6" width="12.7" height="12.1"/>
				<rect x="253.5" y="159.7" class="st5" width="8.3" height="8"/>
				<rect x="212.7" y="182.9" class="st5" width="8.3" height="8"/>
				<rect x="164.2" y="189.9" class="st5" width="14.3" height="13.7"/>
				<rect x="283.3" y="117.2" class="st5" width="12.8" height="12.3"/>
				<rect x="169.7" y="155.4" class="st6" width="67.2" height="4"/>
				<rect x="210.5" y="194.2" class="st5" width="67.2" height="4"/>
				<polygon class="st5" points="163.6,209.1 163.6,213 233.6,213 233.6,214.7 163.6,214.7 163.6,217.4 258.2,217.4 258.2,209.1 
									"/>
				<rect x="218.3" y="122.9" class="st6" width="67.2" height="4"/>
				<polygon class="st6" points="166.2,183.8 166.2,186.3 194,186.3 194,187.3 166.2,187.3 166.2,189.1 203.7,189.1 203.7,183.8 
									"/>
				<polygon class="st6" points="238.5,206 238.5,208.5 283.2,208.5 283.2,209.6 238.5,209.6 238.5,211.3 299,211.3 299,206 				"/>
				<polygon class="st6" points="211.3,108.3 211.3,113.5 302.5,113.5 302.5,115.6 211.3,115.6 211.3,119.2 334.6,119.2 
					334.6,108.3 				"/>
				<polygon class="st6" points="289.1,157.4 286.5,157.4 286.5,154.9 284.2,154.9 284.2,157.4 281.6,157.4 281.6,159.7 
					284.2,159.7 284.2,162.1 286.5,162.1 286.5,159.7 289.1,159.7 				"/>
				<polygon class="st5" points="173.7,146.2 170.1,146.2 170.1,142.8 166.7,142.8 166.7,146.2 163.1,146.2 163.1,149.4 
					166.7,149.4 166.7,152.9 170.1,152.9 170.1,149.4 173.7,149.4 				"/>
				<polygon class="st6" points="285.4,165.2 278.4,165.2 278.4,158.5 271.8,158.5 271.8,165.2 264.8,165.2 264.8,171.4 
					271.8,171.4 271.8,178.1 278.4,178.1 278.4,171.4 285.4,171.4 				"/>
				<polygon class="st6" points="253.5,147.9 250.2,147.9 250.2,144.7 247.1,144.7 247.1,147.9 243.8,147.9 243.8,150.9 
					247.1,150.9 247.1,154.1 250.2,154.1 250.2,150.9 253.5,150.9 				"/>
				<polygon class="st5" points="322.4,188.2 306.3,188.2 306.3,172.8 291.3,172.8 291.3,188.2 275.2,188.2 275.2,202.5 
					291.3,202.5 291.3,217.9 306.3,217.9 306.3,202.5 322.4,202.5 				"/>
				<polygon class="st6" points="308.7,164.2 306.3,164.2 306.3,161.9 304.1,161.9 304.1,164.2 301.7,164.2 301.7,166.3 
					304.1,166.3 304.1,168.6 306.3,168.6 306.3,166.3 308.7,166.3 				"/>
				<polygon class="st6" points="274.9,141.2 270.8,141.2 270.8,137.2 267,137.2 267,141.2 262.9,141.2 262.9,144.8 267,144.8 
					267,148.8 270.8,148.8 270.8,144.8 274.9,144.8 				"/>
				<polygon class="st6" points="201.3,175.1 197.5,175.1 197.5,171.5 194.1,171.5 194.1,175.1 190.3,175.1 190.3,178.4 
					194.1,178.4 194.1,182 197.5,182 197.5,178.4 201.3,178.4 				"/>
				<polygon class="st6" points="222.5,201.6 217.3,201.6 217.3,196.6 212.4,196.6 212.4,201.6 207.2,201.6 207.2,206.2 
					212.4,206.2 212.4,211.2 217.3,211.2 217.3,206.2 222.5,206.2 				"/>
				<polygon class="st6" points="197.3,142.1 194.8,142.1 194.8,139.7 192.4,139.7 192.4,142.1 189.8,142.1 189.8,144.4 
					192.4,144.4 192.4,146.9 194.8,146.9 194.8,144.4 197.3,144.4 				"/>
				<polygon class="st6" points="295.5,198.9 290.9,198.9 290.9,194.5 286.7,194.5 286.7,198.9 282.1,198.9 282.1,203 286.7,203 
					286.7,207.4 290.9,207.4 290.9,203 295.5,203 				"/>
				<polygon class="st6" points="188.9,203 185.3,203 185.3,199.6 182,199.6 182,203 178.5,203 178.5,206.2 182,206.2 182,209.6 
					185.3,209.6 185.3,206.2 188.9,206.2 				"/>
				<polygon class="st6" points="247.3,184 244.7,184 244.7,181.5 242.3,181.5 242.3,184 239.7,184 239.7,186.3 242.3,186.3 
					242.3,188.7 244.7,188.7 244.7,186.3 247.3,186.3 				"/>
				<polygon class="st6" points="177.5,172.4 174.9,172.4 174.9,169.9 172.5,169.9 172.5,172.4 169.9,172.4 169.9,174.6 
					172.5,174.6 172.5,177.1 174.9,177.1 174.9,174.6 177.5,174.6 				"/>
				<polygon class="st5" points="293.2,151.1 293.2,147.6 311.1,147.6 311.1,129.4 279.1,129.4 279.1,160 311.1,160 311.1,151.1 
									"/>
				<polygon class="st6" points="168.7,127.2 168.7,123.7 186.7,123.7 186.7,105.4 154.6,105.4 154.6,136.1 186.7,136.1 
					186.7,127.2 				"/>
				<polygon class="st6" points="278.4,191 278.4,188.5 291.1,188.5 291.1,175.5 268.4,175.5 268.4,197.3 291.1,197.3 291.1,191 
									"/>
				<polygon class="st6" points="288.6,143.7 288.6,141.9 298.2,141.9 298.2,132.1 281,132.1 281,148.5 298.2,148.5 298.2,143.7 
									"/>
				<polygon class="st5" points="163.9,165.6 163.9,163.2 176.1,163.2 176.1,150.9 154.3,150.9 154.3,171.7 176.1,171.7 
					176.1,165.6 				"/>
				<polygon class="st5" points="271.6,174.8 271.6,177.3 299.4,177.3 299.4,178.4 271.6,178.4 271.6,180.1 309.2,180.1 
					309.2,174.8 				"/>
				<polygon class="st6" points="194,134 194,137.5 215.8,137.5 215.8,140.6 194,140.6 194,144.1 228.3,144.1 228.3,134 				"/>
				<polygon class="st5" points="202.6,165.9 202.6,168.9 236.7,168.9 236.7,171.6 202.6,171.6 202.6,174.6 256.1,174.6 
					256.1,165.9 				"/>
			</g>
		</g>
		<g>
			<g>
				<path class="st3" d="M200.3,254.3h-20.7c-3.1,0-5.6-2.5-5.6-5.6v-3h31.9v3C205.9,251.8,203.4,254.3,200.3,254.3z"/>
				<polygon class="st3" points="182,254.3 157,320.6 163.9,320.6 198,254.3 				"/>
			</g>
			<g>
				<path class="st3" d="M306.7,254.3h20.7c3.1,0,5.6-2.5,5.6-5.6v-3h-31.9v3C301.1,251.8,303.6,254.3,306.7,254.3z"/>
				<polygon class="st3" points="325.1,254.3 350,320.6 343.1,320.6 309.1,254.3 				"/>
			</g>
		</g>
		<ellipse class="st3" cx="247.1" cy="160.3" rx="0.8" ry="0"/>
		<g>
			<g>
				<path class="st1" d="M200.3,255h-20.7c-3.5,0-6.3-2.8-6.3-6.3v-3c0-0.4,0.3-0.7,0.7-0.7h31.9c0.4,0,0.7,0.3,0.7,0.7v3
					C206.6,252.1,203.8,255,200.3,255z M174.7,246.3v2.3c0,2.7,2.2,4.9,4.9,4.9h20.7c2.7,0,4.9-2.2,4.9-4.9v-2.3H174.7z"/>
				<path class="st1" d="M163.9,321.3H157c-0.2,0-0.4-0.1-0.6-0.3c-0.1-0.2-0.2-0.4-0.1-0.6l24.9-66.4c0.1-0.3,0.4-0.5,0.7-0.5h16
					c0.2,0,0.5,0.1,0.6,0.3c0.1,0.2,0.1,0.5,0,0.7l-34,66.4C164.4,321.2,164.2,321.3,163.9,321.3z M158,319.9h5.5l33.3-65h-14.4
					L158,319.9z"/>
			</g>
			<g>
				<path class="st1" d="M327.4,255h-20.7c-3.5,0-6.3-2.8-6.3-6.3v-3c0-0.4,0.3-0.7,0.7-0.7H333c0.4,0,0.7,0.3,0.7,0.7v3
					C333.7,252.1,330.9,255,327.4,255z M301.8,246.3v2.3c0,2.7,2.2,4.9,4.9,4.9h20.7c2.7,0,4.9-2.2,4.9-4.9v-2.3H301.8z"/>
				<path class="st1" d="M350,321.3h-6.9c-0.3,0-0.5-0.1-0.6-0.4l-34-66.4c-0.1-0.2-0.1-0.5,0-0.7c0.1-0.2,0.4-0.3,0.6-0.3h16
					c0.3,0,0.6,0.2,0.7,0.5l24.9,66.4c0.1,0.2,0.1,0.5-0.1,0.6C350.5,321.2,350.3,321.3,350,321.3z M343.5,319.9h5.5l-24.4-65h-14.4
					L343.5,319.9z"/>
			</g>
		</g>
		<g>
			<path class="st1" d="M340.4,246H174.2c-12.3,0-31.3-10.2-31.3-23.7v-106c0-13.5,19-23.7,31.3-23.7h166.2
				c13,0,23.7,10.6,23.7,23.7v106C364.1,235.4,353.5,246,340.4,246z M174.2,94.2c-6.2,0-13.7,2.5-19.7,6.6
				c-6.6,4.5-10.2,10.1-10.2,15.7v106c0,5.6,3.6,11.1,10.2,15.7c5.9,4.1,13.5,6.6,19.7,6.6h166.2c12.3,0,22.3-10,22.3-22.3v-106
				c0-12.3-10-22.3-22.3-22.3H174.2z"/>
			<path class="st1" d="M340.9,222.5H166.2c-7.6,0-13.9-6.2-13.9-13.9V116c0-7.6,6.2-13.9,13.9-13.9h174.7c7.6,0,13.9,6.2,13.9,13.9
				v92.7C354.8,216.3,348.5,222.5,340.9,222.5z M166.2,103.5c-6.9,0-12.5,5.6-12.5,12.5v92.7c0,6.9,5.6,12.5,12.5,12.5h174.7
				c6.9,0,12.5-5.6,12.5-12.5V116c0-6.9-5.6-12.5-12.5-12.5H166.2z"/>
			<path class="st1" d="M348.1,171.5H316c-1.4,0-2.6-1.2-2.6-2.6c0-1.4,1.2-2.6,2.6-2.6h32.1c1.4,0,2.6,1.2,2.6,2.6
				C350.7,170.4,349.6,171.5,348.1,171.5z M316,167.7c-0.7,0-1.2,0.5-1.2,1.2c0,0.7,0.5,1.2,1.2,1.2h32.1c0.7,0,1.2-0.5,1.2-1.2
				c0-0.7-0.5-1.2-1.2-1.2H316z"/>
			<path class="st1" d="M348.1,178.9H316c-1.4,0-2.6-1.2-2.6-2.6c0-1.4,1.2-2.6,2.6-2.6h32.1c1.4,0,2.6,1.2,2.6,2.6
				C350.7,177.8,349.6,178.9,348.1,178.9z M316,175.1c-0.7,0-1.2,0.5-1.2,1.2s0.5,1.2,1.2,1.2h32.1c0.7,0,1.2-0.5,1.2-1.2
				s-0.5-1.2-1.2-1.2H316z"/>
			<path class="st1" d="M348.1,186.3H316c-1.4,0-2.6-1.2-2.6-2.6c0-1.4,1.2-2.6,2.6-2.6h32.1c1.4,0,2.6,1.2,2.6,2.6
				C350.7,185.2,349.6,186.3,348.1,186.3z M316,182.5c-0.7,0-1.2,0.5-1.2,1.2c0,0.7,0.5,1.2,1.2,1.2h32.1c0.7,0,1.2-0.5,1.2-1.2
				c0-0.7-0.5-1.2-1.2-1.2H316z"/>
			<path class="st1" d="M348.1,193.7H316c-1.4,0-2.6-1.2-2.6-2.6c0-1.4,1.2-2.6,2.6-2.6h32.1c1.4,0,2.6,1.2,2.6,2.6
				C350.7,192.6,349.6,193.7,348.1,193.7z M316,189.9c-0.7,0-1.2,0.5-1.2,1.2c0,0.7,0.5,1.2,1.2,1.2h32.1c0.7,0,1.2-0.5,1.2-1.2
				c0-0.7-0.5-1.2-1.2-1.2H316z"/>
			<path class="st1" d="M348.1,201.1H316c-1.4,0-2.6-1.2-2.6-2.6c0-1.4,1.2-2.6,2.6-2.6h32.1c1.4,0,2.6,1.2,2.6,2.6
				C350.7,200,349.6,201.1,348.1,201.1z M316,197.3c-0.7,0-1.2,0.5-1.2,1.2c0,0.7,0.5,1.2,1.2,1.2h32.1c0.7,0,1.2-0.5,1.2-1.2
				c0-0.7-0.5-1.2-1.2-1.2H316z"/>
			<path class="st1" d="M348.1,208.5H316c-1.4,0-2.6-1.2-2.6-2.6s1.2-2.6,2.6-2.6h32.1c1.4,0,2.6,1.2,2.6,2.6
				S349.6,208.5,348.1,208.5z M316,204.7c-0.7,0-1.2,0.5-1.2,1.2s0.5,1.2,1.2,1.2h32.1c0.7,0,1.2-0.5,1.2-1.2s-0.5-1.2-1.2-1.2H316z
				"/>
			<g>
				<path class="st1" d="M332.1,136.9c-6.2,0-11.2-5-11.2-11.2c0-6.2,5-11.2,11.2-11.2s11.2,5,11.2,11.2
					C343.2,131.9,338.2,136.9,332.1,136.9z M332.1,116c-5.4,0-9.7,4.4-9.7,9.7c0,5.4,4.4,9.7,9.7,9.7c5.4,0,9.8-4.4,9.8-9.7
					C341.8,120.4,337.5,116,332.1,116z"/>
				<path class="st1" d="M329.9,135.8c-0.2,0-0.4,0-0.6-0.1l0,0c-0.6-0.2-1.1-0.6-1.4-1.1c-0.3-0.5-0.4-1.2-0.2-1.8l4.3-15.4
					c0.3-1.2,1.6-2,2.9-1.6c0.6,0.2,1.1,0.6,1.4,1.1c0.3,0.5,0.4,1.2,0.2,1.8l-4.3,15.4c-0.2,0.6-0.6,1.1-1.1,1.4
					C330.7,135.7,330.3,135.8,329.9,135.8z M334.2,117.1c-0.2,0-0.3,0-0.4,0.1c-0.2,0.1-0.4,0.3-0.4,0.6l-4.3,15.4
					c-0.1,0.2,0,0.5,0.1,0.7c0.1,0.2,0.3,0.4,0.6,0.4l0,0c0.2,0.1,0.5,0,0.7-0.1c0.2-0.1,0.4-0.3,0.4-0.6l4.3-15.4
					c0.1-0.2,0-0.5-0.1-0.7c-0.1-0.2-0.3-0.4-0.6-0.4C334.4,117.2,334.3,117.1,334.2,117.1z"/>
				<path class="st1" d="M328.5,133.2c-0.1,0-0.2,0-0.3-0.1c-0.7-0.4-1.4-0.9-2-1.5c-1.6-1.6-2.4-3.7-2.4-5.9c0-2.2,0.9-4.3,2.4-5.9
					l0,0c1.7-1.7,4-2.6,6.4-2.4c0.2,0,0.4,0.1,0.5,0.3c0.1,0.2,0.2,0.4,0.1,0.6l-4,14.3c-0.1,0.2-0.2,0.4-0.4,0.5
					C328.7,133.2,328.6,133.2,328.5,133.2z M331.6,118.9c-1.7,0.1-3.2,0.8-4.4,2l0,0c-1.3,1.3-2,3-2,4.9c0,1.8,0.7,3.6,2,4.9
					c0.3,0.3,0.6,0.5,0.9,0.8L331.6,118.9z M326.7,120.4L326.7,120.4L326.7,120.4z"/>
				<path class="st1" d="M332.1,134.1c-0.2,0-0.3,0-0.5,0c-0.2,0-0.4-0.1-0.5-0.3c-0.1-0.2-0.2-0.4-0.1-0.6l4-14.3
					c0.1-0.2,0.2-0.4,0.4-0.5c0.2-0.1,0.4-0.1,0.6,0c0.7,0.4,1.4,0.9,2,1.5c1.6,1.6,2.4,3.7,2.4,5.9c0,2.2-0.9,4.3-2.4,5.9
					C336.4,133.2,334.3,134.1,332.1,134.1z M336.1,120.1l-3.5,12.5c1.7-0.1,3.2-0.8,4.4-2c1.3-1.3,2-3,2-4.9c0-1.8-0.7-3.6-2-4.9
					l0,0C336.7,120.6,336.4,120.4,336.1,120.1z"/>
			</g>
			<g>
				<path class="st1" d="M332.1,161.6c-2.9,0-5.8-1.1-7.9-3.3c-2.1-2.1-3.2-4.9-3.2-7.9c0-3,1.2-5.8,3.3-7.9
					c2.1-2.1,4.9-3.2,7.8-3.2c0,0,0,0,0.1,0c3,0,5.8,1.2,7.9,3.3c2.1,2.1,3.2,4.9,3.2,7.9s-1.2,5.8-3.3,7.9
					C337.8,160.5,334.9,161.6,332.1,161.6z M332.1,140.7c-2.6,0-5,1-6.9,2.8c-1.9,1.8-2.9,4.3-2.9,6.9c0,2.6,1,5.1,2.8,6.9
					c1.8,1.9,4.3,2.9,6.9,2.9c2.6,0.1,5.1-1,6.9-2.8c1.9-1.8,2.9-4.3,2.9-6.9c0-2.6-1-5.1-2.8-6.9
					C337.2,141.7,334.7,140.7,332.1,140.7C332.1,140.7,332.1,140.7,332.1,140.7z"/>
				<path class="st1" d="M325.1,156.6c-0.8,0-1.6-0.4-2-1.2c0,0,0,0,0,0c-0.6-1.1-0.2-2.5,0.9-3.2l14-7.8c1.1-0.6,2.5-0.2,3.2,0.9
					c0.3,0.5,0.4,1.2,0.2,1.8c-0.2,0.6-0.6,1.1-1.1,1.4l-14,7.8C325.8,156.5,325.5,156.6,325.1,156.6z M324.3,154.8
					c0.2,0.4,0.8,0.6,1.2,0.4l14-7.8c0.2-0.1,0.4-0.3,0.4-0.5c0.1-0.2,0-0.5-0.1-0.7c-0.2-0.4-0.8-0.6-1.2-0.4l-14,7.8
					C324.2,153.8,324,154.3,324.3,154.8L324.3,154.8z"/>
				<path class="st1" d="M324.8,153.3c-0.1,0-0.2,0-0.3-0.1c-0.2-0.1-0.3-0.2-0.4-0.4c-0.2-0.8-0.4-1.6-0.4-2.4
					c0-2.2,0.9-4.3,2.5-5.9c1.6-1.6,3.6-2.4,5.8-2.4c0,0,0,0,0,0c2.4,0,4.6,1,6.2,2.8c0.1,0.2,0.2,0.4,0.2,0.6
					c0,0.2-0.2,0.4-0.4,0.5l-13,7.2C325,153.3,324.9,153.3,324.8,153.3z M332.1,143.5c-1.8,0-3.6,0.7-4.9,2c-1.3,1.3-2,3-2.1,4.9
					c0,0.4,0,0.8,0.1,1.2l11.4-6.3C335.4,144.1,333.8,143.5,332.1,143.5L332.1,143.5C332.1,143.5,332.1,143.5,332.1,143.5z"/>
				<path class="st1" d="M332.1,158.7C332.1,158.7,332.1,158.7,332.1,158.7c-2.4,0-4.7-1-6.2-2.8c-0.1-0.2-0.2-0.4-0.2-0.6
					c0-0.2,0.2-0.4,0.4-0.5l13-7.2c0.2-0.1,0.4-0.1,0.6,0c0.2,0.1,0.3,0.2,0.4,0.4c0.2,0.8,0.4,1.6,0.4,2.4c0,0,0,0,0,0
					C340.4,155,336.7,158.7,332.1,158.7z M327.5,155.6c1.2,1.1,2.9,1.7,4.5,1.7c0,0,0,0,0,0c3.8,0,6.9-3.1,6.9-6.9
					c0-0.4,0-0.8-0.1-1.2L327.5,155.6z M339.7,150.5L339.7,150.5L339.7,150.5z"/>
			</g>
			<path class="st1" d="M339,113.7c-0.3,0-0.5-0.1-0.6-0.4l-0.1-0.2c-0.2-0.3,0-0.8,0.3-0.9c0.3-0.2,0.8,0,0.9,0.3l0.1,0.2
				c0.2,0.3,0,0.8-0.3,0.9C339.2,113.7,339.1,113.7,339,113.7z"/>
			<g>
				<g>
					<path class="st1" d="M220.3,238.8c-2.8,0-5.1-2.3-5.1-5.1c0-2.8,2.3-5.1,5.1-5.1c2.8,0,5.1,2.3,5.1,5.1
						C225.4,236.5,223.1,238.8,220.3,238.8z M220.3,230c-2,0-3.7,1.6-3.7,3.7c0,2,1.6,3.7,3.7,3.7c2,0,3.7-1.6,3.7-3.7
						C224,231.6,222.3,230,220.3,230z"/>
					<path class="st1" d="M220.3,237c-1.8,0-3.3-1.5-3.3-3.3c0-1.8,1.5-3.3,3.3-3.3c1.8,0,3.3,1.5,3.3,3.3
						C223.6,235.5,222.1,237,220.3,237z M220.3,231.7c-1.1,0-1.9,0.9-1.9,1.9c0,1.1,0.9,1.9,1.9,1.9c1.1,0,1.9-0.9,1.9-1.9
						C222.2,232.6,221.3,231.7,220.3,231.7z"/>
				</g>
				<g>
					<path class="st1" d="M238.8,238.8c-2.8,0-5.1-2.3-5.1-5.1c0-2.8,2.3-5.1,5.1-5.1c2.8,0,5.1,2.3,5.1,5.1
						C243.9,236.5,241.6,238.8,238.8,238.8z M238.8,230c-2,0-3.7,1.6-3.7,3.7c0,2,1.6,3.7,3.7,3.7c2,0,3.7-1.6,3.7-3.7
						C242.5,231.6,240.8,230,238.8,230z"/>
					<path class="st1" d="M238.8,237c-1.8,0-3.3-1.5-3.3-3.3c0-1.8,1.5-3.3,3.3-3.3c1.8,0,3.3,1.5,3.3,3.3
						C242.1,235.5,240.6,237,238.8,237z M238.8,231.7c-1.1,0-1.9,0.9-1.9,1.9c0,1.1,0.9,1.9,1.9,1.9c1.1,0,1.9-0.9,1.9-1.9
						C240.7,232.6,239.9,231.7,238.8,231.7z"/>
				</g>
				<g>
					<path class="st1" d="M257.3,238.8c-2.8,0-5.1-2.3-5.1-5.1c0-2.8,2.3-5.1,5.1-5.1c2.8,0,5.1,2.3,5.1,5.1
						C262.4,236.5,260.1,238.8,257.3,238.8z M257.3,230c-2,0-3.7,1.6-3.7,3.7c0,2,1.6,3.7,3.7,3.7c2,0,3.7-1.6,3.7-3.7
						C261,231.6,259.4,230,257.3,230z"/>
					<path class="st1" d="M257.3,237c-1.8,0-3.3-1.5-3.3-3.3c0-1.8,1.5-3.3,3.3-3.3c1.8,0,3.3,1.5,3.3,3.3
						C260.7,235.5,259.2,237,257.3,237z M257.3,231.7c-1.1,0-1.9,0.9-1.9,1.9c0,1.1,0.9,1.9,1.9,1.9s1.9-0.9,1.9-1.9
						C259.3,232.6,258.4,231.7,257.3,231.7z"/>
				</g>
				<g>
					<path class="st1" d="M275.9,238.8c-2.8,0-5.1-2.3-5.1-5.1c0-2.8,2.3-5.1,5.1-5.1c2.8,0,5.1,2.3,5.1,5.1
						C281,236.5,278.7,238.8,275.9,238.8z M275.9,230c-2,0-3.7,1.6-3.7,3.7c0,2,1.6,3.7,3.7,3.7c2,0,3.7-1.6,3.7-3.7
						C279.5,231.6,277.9,230,275.9,230z"/>
					<path class="st1" d="M275.9,237c-1.8,0-3.3-1.5-3.3-3.3c0-1.8,1.5-3.3,3.3-3.3c1.8,0,3.3,1.5,3.3,3.3
						C279.2,235.5,277.7,237,275.9,237z M275.9,231.7c-1.1,0-1.9,0.9-1.9,1.9c0,1.1,0.9,1.9,1.9,1.9c1.1,0,1.9-0.9,1.9-1.9
						C277.8,232.6,276.9,231.7,275.9,231.7z"/>
				</g>
				<g>
					<path class="st1" d="M294.4,238.8c-2.8,0-5.1-2.3-5.1-5.1c0-2.8,2.3-5.1,5.1-5.1c2.8,0,5.1,2.3,5.1,5.1
						C299.5,236.5,297.2,238.8,294.4,238.8z M294.4,230c-2,0-3.7,1.6-3.7,3.7c0,2,1.6,3.7,3.7,3.7c2,0,3.7-1.6,3.7-3.7
						C298.1,231.6,296.4,230,294.4,230z"/>
					<path class="st1" d="M294.4,237c-1.8,0-3.3-1.5-3.3-3.3c0-1.8,1.5-3.3,3.3-3.3c1.8,0,3.3,1.5,3.3,3.3
						C297.7,235.5,296.2,237,294.4,237z M294.4,231.7c-1.1,0-1.9,0.9-1.9,1.9c0,1.1,0.9,1.9,1.9,1.9c1.1,0,1.9-0.9,1.9-1.9
						C296.3,232.6,295.5,231.7,294.4,231.7z"/>
				</g>
			</g>
			<path class="st1" d="M298.6,218.7h-131c-6.3,0-11.4-5.1-11.4-11.4v-89.8c0-6.3,5.1-11.4,11.4-11.4h131c6.3,0,11.4,5.1,11.4,11.4
				v89.8C310.1,213.5,305,218.7,298.6,218.7z M167.6,107.4c-5.5,0-10,4.5-10,10v89.8c0,5.5,4.5,10,10,10h131c5.5,0,10-4.5,10-10
				v-89.8c0-5.5-4.5-10-10-10H167.6z"/>
			<path class="st1" d="M326.9,98.1H321c-0.4,0-0.7-0.3-0.7-0.7c0-0.4,0.3-0.7,0.7-0.7h5.9c0.4,0,0.7,0.3,0.7,0.7
				C327.6,97.8,327.3,98.1,326.9,98.1z"/>
			<path class="st1" d="M316.1,98.1h-27.4c-0.4,0-0.7-0.3-0.7-0.7c0-0.4,0.3-0.7,0.7-0.7h27.4c0.4,0,0.7,0.3,0.7,0.7
				C316.8,97.8,316.5,98.1,316.1,98.1z"/>
		</g>
		<g>
			<path class="st1" d="M182.7,272.9c-0.1,0-0.2,0-0.3-0.1c-0.4-0.2-0.5-0.6-0.3-0.9l1.8-3.9c0.2-0.4,0.6-0.5,0.9-0.3
				c0.4,0.2,0.5,0.6,0.3,0.9l-1.8,3.9C183.2,272.7,183,272.9,182.7,272.9z"/>
			<path class="st1" d="M169.8,300.4c-0.1,0-0.2,0-0.3-0.1c-0.4-0.2-0.5-0.6-0.3-0.9l11.7-25c0.2-0.4,0.6-0.5,0.9-0.3
				c0.4,0.2,0.5,0.6,0.3,0.9l-11.7,25C170.3,300.2,170.1,300.4,169.8,300.4z"/>
		</g>
		<g>
			<path class="st1" d="M324.3,272.9c-0.3,0-0.5-0.1-0.6-0.4l-1.9-3.9c-0.2-0.4,0-0.8,0.3-0.9c0.4-0.2,0.8,0,0.9,0.3l1.9,3.9
				c0.2,0.4,0,0.8-0.3,0.9C324.5,272.8,324.4,272.9,324.3,272.9z"/>
			<path class="st1" d="M337.3,300.4c-0.3,0-0.5-0.1-0.6-0.4l-11.7-25c-0.2-0.4,0-0.8,0.3-0.9c0.4-0.2,0.8,0,0.9,0.3l11.7,25
				c0.2,0.4,0,0.8-0.3,0.9C337.5,300.4,337.4,300.4,337.3,300.4z"/>
		</g>
	</g>
	<g>
		<polygon class="st8" points="123.3,155.1 125.4,164.3 134.5,166.4 125.4,168.4 123.3,177.6 121.2,168.4 112,166.4 121.2,164.3 		
			"/>
		<polygon class="st8" points="401.7,237.9 403.8,247 412.9,249.1 403.8,251.2 401.7,260.4 399.6,251.2 390.5,249.1 399.6,247 		"/>
		<polygon class="st8" points="393.9,162.9 396,172.1 405.2,174.1 396,176.2 393.9,185.4 391.9,176.2 382.7,174.1 391.9,172.1 		"/>
		<polygon class="st8" points="103.5,237 105.5,246.2 114.7,248.3 105.5,250.3 103.5,259.5 101.4,250.3 92.2,248.3 101.4,246.2 		
			"/>
		<polygon class="st8" points="127.9,103 128.9,107.6 133.5,108.6 128.9,109.7 127.9,114.3 126.8,109.7 122.2,108.6 126.8,107.6 		
			"/>
		<polygon class="st8" points="64.4,193.7 65.5,198.3 70.1,199.3 65.5,200.3 64.4,204.9 63.4,200.3 58.8,199.3 63.4,198.3 		"/>
		<polygon class="st8" points="435.6,164.5 436.6,169.1 441.2,170.1 436.6,171.1 435.6,175.7 434.5,171.1 429.9,170.1 434.5,169.1 
					"/>
	</g>
	<g id="XMLID_39_">
		<g id="XMLID_92_">
			<polygon id="XMLID_102_" class="st9" points="211.8,155.6 211.7,155.6 212.4,154.9 215.2,152.1 211.8,152.1 211.8,152.1 
				210,152.1 204.9,157.3 204.9,152.1 201.4,152.1 201.4,165.9 204.9,165.9 204.9,160.7 215.2,171 215.2,165.9 208.3,159 			"/>
			<path id="XMLID_99_" class="st9" d="M221.1,152.1c-1.9,0-3.5,0.7-4.9,2c-1.3,1.3-2,3-2,4.9c0,1.9,0.7,3.5,2,4.9
				c1.3,1.3,3,2,4.9,2c1.9,0,3.5-0.7,4.8-2c1.4-1.3,2-3,2-4.9c0-1.9-0.7-3.5-2-4.8C224.6,152.8,223,152.1,221.1,152.1z M223.5,161.4
				c-0.7,0.7-1.5,1-2.4,1c-0.9,0-1.8-0.3-2.4-1c-0.7-0.7-1-1.5-1-2.4c0-0.9,0.3-1.7,1-2.4c0.7-0.7,1.5-1,2.4-1c0.9,0,1.7,0.3,2.4,1
				s1,1.5,1,2.4C224.5,159.9,224.2,160.8,223.5,161.4z"/>
			<path id="XMLID_98_" class="st9" d="M235.9,152.1H229h-3.4l3.4,3.4v6.7l0,0v0.3l0,0v3.4l3.4-3.4h0v0l0,0l0,0v0l0,0v-6.9h3.4
				c0.9,0,1.7,0.3,2.4,1s1,1.5,1,2.4c0,0.9-0.3,1.8-1,2.4c-0.7,0.7-1.5,1-2.4,1h-1.7l-3.4,3.4h5.2c1.9,0,3.5-0.7,4.8-2
				c1.4-1.3,2-3,2-4.9c0-1.9-0.7-3.5-2-4.8C239.4,152.8,237.8,152.1,235.9,152.1z"/>
			<path id="XMLID_97_" class="st9" d="M243.8,159c0,1.9,0.7,3.5,2,4.9c1.3,1.3,3,2,4.9,2h6.9v-3.4h-6.9c-0.9,0-1.8-0.3-2.4-1
				c-0.2-0.2-0.4-0.5-0.6-0.7h9.9v-3.4h-13.8V159z"/>
			<polygon id="XMLID_96_" class="st9" points="245.5,155.5 257.5,155.5 257.5,152.1 242.1,152.1 			"/>
			<path id="XMLID_93_" class="st9" d="M272.3,159c0-1.9-0.7-3.5-2-4.8c-1.3-1.4-3-2-4.9-2h-6.9v13.8h3.4v-5.2l10.3,10.3v-5.2
				l-5.2-5.2h5.2V159z M262,157.3v-1.7h3.4c0.9,0,1.7,0.3,2.4,1c0.2,0.2,0.4,0.5,0.6,0.7H262z"/>
		</g>
	</g>
</g>
<g id="DESIGNED_BY_FREEPIK">
</g>
</svg>
