<svg id="bold" enable-background="new 0 0 32 32" height="512" viewBox="0 0 32 32" width="512" xmlns="http://www.w3.org/2000/svg"><path d="m26 32h-20c-3.314 0-6-2.686-6-6v-20c0-3.314 2.686-6 6-6h20c3.314 0 6 2.686 6 6v20c0 3.314-2.686 6-6 6z" fill="#e3f8fa"/><g fill="#26c6da"><path d="m14.667 19.667h-.333v.667h.333c.186-.001.333-.147.333-.334s-.147-.333-.333-.333z"/><path d="m11.333 19.667h-.333v.667h.333c.187 0 .333-.147.333-.333.001-.188-.146-.334-.333-.334z"/><path d="m19.5 18.333c-3.213 0-5.833-2.62-5.833-5.833 0-1.807.827-3.427 2.127-4.5h-5.96c-1.014 0-1.834.82-1.834 1.833v12.333c0 1.014.82 1.834 1.833 1.834h9.667c1.013 0 1.833-.82 1.833-1.833v-4.127c-.573.187-1.193.293-1.833.293zm-8.167 3h-.333v.833c0 .273-.227.5-.5.5s-.5-.227-.5-.5v-3c0-.273.227-.5.5-.5h.833c.733 0 1.333.6 1.333 1.333.001.734-.599 1.334-1.333 1.334zm3.334 0h-.333v.833c0 .273-.227.5-.5.5s-.5-.227-.5-.5v-3c0-.273.227-.5.5-.5h.833c.733.001 1.333.601 1.333 1.334s-.6 1.333-1.333 1.333zm4.166-1.666h-.333v2.5c0 .276-.224.5-.5.5s-.5-.224-.5-.5v-2.5h-.333c-.276 0-.5-.224-.5-.5s.224-.5.5-.5h1.667c.276 0 .5.224.5.5s-.225.5-.501.5z"/></g><path d="m19.5 8c-2.481 0-4.5 2.019-4.5 4.5s2.019 4.5 4.5 4.5 4.5-2.019 4.5-4.5-2.019-4.5-4.5-4.5zm1.833 5.167h-1.167v1.167c0 .368-.299.667-.667.667s-.667-.299-.667-.667v-1.167h-1.167c-.366 0-.665-.299-.665-.667s.299-.667.667-.667h1.167v-1.167c0-.368.299-.667.667-.667s.667.299.667.667v1.167h1.167c.368 0 .667.299.667.667s-.301.667-.669.667z" fill="#8ce1eb"/></svg>