<svg id="bold" enable-background="new 0 0 32 32" height="512" viewBox="0 0 32 32" width="512" xmlns="http://www.w3.org/2000/svg"><path d="m26 32h-20c-3.314 0-6-2.686-6-6v-20c0-3.314 2.686-6 6-6h20c3.314 0 6 2.686 6 6v20c0 3.314-2.686 6-6 6z" fill="#f5e6fe"/><path d="m20.833 8h-9.667c-1.011 0-1.833.822-1.833 1.833v12.333c0 1.011.822 1.833 1.833 1.833h9.667c1.011 0 1.833-.822 1.833-1.833v-12.333c.001-1.011-.822-1.833-1.833-1.833zm-.166 10.833c0 .276-.224.5-.5.5h-3.5v.513l1.416 1.133c.288.23.334.649.104.937-.132.165-.326.25-.521.25-.146 0-.293-.048-.416-.146l-1.25-1-1.25 1c-.287.229-.707.183-.937-.104s-.184-.707.104-.937l1.416-1.133v-.513h-3.5c-.276 0-.5-.224-.5-.5v-5c0-.276.224-.5.5-.5h8.333c.276 0 .5.224.5.5v5z" fill="#be63f9"/></svg>