<?xml version="1.0" encoding="utf-8"?>
<!-- Generator: Adobe Illustrator 23.0.1, SVG Export Plug-In . SVG Version: 6.00 Build 0)  -->
<svg version="1.1" id="Layer_1" xmlns="http://www.w3.org/2000/svg" xmlns:xlink="http://www.w3.org/1999/xlink" x="0px" y="0px"
	 viewBox="0 0 110 110" style="enable-background:new 0 0 110 110;" xml:space="preserve">
<style type="text/css">
	.st0{fill:#F2F4F8;}
	.st1{fill:#894EE5;}
	.st2{fill:url(#SVGID_1_);}
	.st3{fill:url(#SVGID_2_);}
	.st4{fill:url(#SVGID_3_);}
	.st5{fill:url(#SVGID_4_);}
	.st6{fill:url(#SVGID_5_);}
	.st7{fill:url(#SVGID_6_);}
	.st8{opacity:0.15;}
	.st9{fill:url(#SVGID_7_);}
	.st10{fill:url(#SVGID_8_);}
	.st11{fill:url(#SVGID_9_);}
	.st12{opacity:0.25;}
	.st13{fill:#FFFFFF;}
	.st14{fill:url(#SVGID_10_);}
	.st15{fill:url(#SVGID_11_);}
	.st16{fill:url(#SVGID_12_);}
	.st17{fill:url(#SVGID_13_);}
	.st18{fill:url(#SVGID_14_);}
	.st19{fill:url(#SVGID_15_);}
	.st20{opacity:0.45;fill:#FFFFFF;}
	.st21{fill:url(#SVGID_16_);}
	.st22{fill:url(#SVGID_17_);}
	.st23{fill:url(#SVGID_18_);}
	.st24{fill:url(#SVGID_19_);}
	.st25{fill:url(#SVGID_20_);}
	.st26{fill:url(#SVGID_21_);}
	.st27{fill:url(#SVGID_22_);}
	.st28{fill:url(#SVGID_23_);}
	.st29{fill:url(#SVGID_24_);}
	.st30{fill:url(#SVGID_25_);}
	.st31{fill:url(#SVGID_26_);}
	.st32{fill:url(#SVGID_27_);}
	.st33{opacity:0.25;fill:#FFFFFF;}
	.st34{fill:url(#SVGID_28_);}
</style>
<path class="st0" d="M77.2,17.8c5.1,4.3,7.2,12,7.9,19c0.7,7,0,13.3-0.9,20.8c-0.8,7.5-1.7,16.1-6.3,20.5c-4.7,4.3-13.2,4.3-21,3.4
	c-7.8-1-14.9-2.9-19.8-7.1s-7.6-10.8-10.7-17.9c-3.2-7.1-6.8-14.6-5.2-20.7c1.6-6.1,8.5-10.8,15.3-14.6c6.7-3.8,13.3-6.7,20.5-7.7
	C64.2,12.4,72.1,13.4,77.2,17.8z"/>
<g>
	<path class="st1" d="M4.6,16.1c-0.3,0-0.6,0.3-0.6,0.6c0,0.3,0.3,0.6,0.6,0.6c0.3,0,0.6-0.3,0.6-0.6C5.2,16.3,5,16.1,4.6,16.1z"/>
	<path class="st1" d="M9.5,16.1c-0.3,0-0.6,0.3-0.6,0.6c0,0.3,0.3,0.6,0.6,0.6c0.3,0,0.6-0.3,0.6-0.6C10.1,16.3,9.8,16.1,9.5,16.1z"
		/>
	<path class="st1" d="M14.4,16.1c-0.3,0-0.6,0.3-0.6,0.6c0,0.3,0.3,0.6,0.6,0.6c0.3,0,0.6-0.3,0.6-0.6
		C14.9,16.3,14.7,16.1,14.4,16.1z"/>
	<path class="st1" d="M19.2,16.1c-0.3,0-0.6,0.3-0.6,0.6c0,0.3,0.3,0.6,0.6,0.6c0.3,0,0.6-0.3,0.6-0.6
		C19.8,16.3,19.5,16.1,19.2,16.1z"/>
	<path class="st1" d="M24.1,16.1c-0.3,0-0.6,0.3-0.6,0.6c0,0.3,0.3,0.6,0.6,0.6c0.3,0,0.6-0.3,0.6-0.6
		C24.7,16.3,24.4,16.1,24.1,16.1z"/>
	<path class="st1" d="M28.9,16.1c-0.3,0-0.6,0.3-0.6,0.6c0,0.3,0.3,0.6,0.6,0.6c0.3,0,0.6-0.3,0.6-0.6
		C29.5,16.3,29.3,16.1,28.9,16.1z"/>
	<path class="st1" d="M33.8,17.2c0.3,0,0.6-0.3,0.6-0.6c0-0.3-0.3-0.6-0.6-0.6c-0.3,0-0.6,0.3-0.6,0.6C33.2,17,33.5,17.2,33.8,17.2z
		"/>
	<path class="st1" d="M4.6,20.3c-0.3,0-0.6,0.3-0.6,0.6c0,0.3,0.3,0.6,0.6,0.6c0.3,0,0.6-0.3,0.6-0.6C5.2,20.6,5,20.3,4.6,20.3z"/>
	<path class="st1" d="M9.5,20.3c-0.3,0-0.6,0.3-0.6,0.6c0,0.3,0.3,0.6,0.6,0.6c0.3,0,0.6-0.3,0.6-0.6C10.1,20.6,9.8,20.3,9.5,20.3z"
		/>
	<path class="st1" d="M14.4,20.3c-0.3,0-0.6,0.3-0.6,0.6c0,0.3,0.3,0.6,0.6,0.6c0.3,0,0.6-0.3,0.6-0.6
		C14.9,20.6,14.7,20.3,14.4,20.3z"/>
	<path class="st1" d="M19.2,20.3c-0.3,0-0.6,0.3-0.6,0.6c0,0.3,0.3,0.6,0.6,0.6c0.3,0,0.6-0.3,0.6-0.6
		C19.8,20.6,19.5,20.3,19.2,20.3z"/>
	<path class="st1" d="M24.1,20.3c-0.3,0-0.6,0.3-0.6,0.6c0,0.3,0.3,0.6,0.6,0.6c0.3,0,0.6-0.3,0.6-0.6
		C24.7,20.6,24.4,20.3,24.1,20.3z"/>
	<path class="st1" d="M28.9,20.3c-0.3,0-0.6,0.3-0.6,0.6c0,0.3,0.3,0.6,0.6,0.6c0.3,0,0.6-0.3,0.6-0.6
		C29.5,20.6,29.3,20.3,28.9,20.3z"/>
	<path class="st1" d="M33.8,20.3c-0.3,0-0.6,0.3-0.6,0.6c0,0.3,0.3,0.6,0.6,0.6c0.3,0,0.6-0.3,0.6-0.6
		C34.4,20.6,34.1,20.3,33.8,20.3z"/>
	<path class="st1" d="M4.6,24.5c-0.3,0-0.6,0.3-0.6,0.6s0.3,0.6,0.6,0.6c0.3,0,0.6-0.3,0.6-0.6S5,24.5,4.6,24.5z"/>
	<circle class="st1" cx="9.5" cy="25.1" r="0.6"/>
	<path class="st1" d="M14.4,24.5c-0.3,0-0.6,0.3-0.6,0.6s0.3,0.6,0.6,0.6c0.3,0,0.6-0.3,0.6-0.6S14.7,24.5,14.4,24.5z"/>
	<path class="st1" d="M19.2,24.5c-0.3,0-0.6,0.3-0.6,0.6s0.3,0.6,0.6,0.6c0.3,0,0.6-0.3,0.6-0.6S19.5,24.5,19.2,24.5z"/>
	<path class="st1" d="M24.1,24.5c-0.3,0-0.6,0.3-0.6,0.6s0.3,0.6,0.6,0.6c0.3,0,0.6-0.3,0.6-0.6S24.4,24.5,24.1,24.5z"/>
	<path class="st1" d="M28.9,24.5c-0.3,0-0.6,0.3-0.6,0.6s0.3,0.6,0.6,0.6c0.3,0,0.6-0.3,0.6-0.6S29.3,24.5,28.9,24.5z"/>
	<circle class="st1" cx="33.8" cy="25.1" r="0.6"/>
	<path class="st1" d="M4.6,28.8c-0.3,0-0.6,0.3-0.6,0.6c0,0.3,0.3,0.6,0.6,0.6c0.3,0,0.6-0.3,0.6-0.6C5.2,29,5,28.8,4.6,28.8z"/>
	<path class="st1" d="M9.5,28.8c-0.3,0-0.6,0.3-0.6,0.6c0,0.3,0.3,0.6,0.6,0.6c0.3,0,0.6-0.3,0.6-0.6C10.1,29,9.8,28.8,9.5,28.8z"/>
	<path class="st1" d="M14.4,28.8c-0.3,0-0.6,0.3-0.6,0.6c0,0.3,0.3,0.6,0.6,0.6c0.3,0,0.6-0.3,0.6-0.6C14.9,29,14.7,28.8,14.4,28.8z
		"/>
	<path class="st1" d="M19.2,28.8c-0.3,0-0.6,0.3-0.6,0.6c0,0.3,0.3,0.6,0.6,0.6c0.3,0,0.6-0.3,0.6-0.6C19.8,29,19.5,28.8,19.2,28.8z
		"/>
	<path class="st1" d="M24.1,28.8c-0.3,0-0.6,0.3-0.6,0.6c0,0.3,0.3,0.6,0.6,0.6c0.3,0,0.6-0.3,0.6-0.6C24.7,29,24.4,28.8,24.1,28.8z
		"/>
	<path class="st1" d="M28.9,28.8c-0.3,0-0.6,0.3-0.6,0.6c0,0.3,0.3,0.6,0.6,0.6c0.3,0,0.6-0.3,0.6-0.6C29.5,29,29.3,28.8,28.9,28.8z
		"/>
	<path class="st1" d="M33.8,28.8c-0.3,0-0.6,0.3-0.6,0.6c0,0.3,0.3,0.6,0.6,0.6c0.3,0,0.6-0.3,0.6-0.6C34.4,29,34.1,28.8,33.8,28.8z
		"/>
	<path class="st1" d="M4.6,33c-0.3,0-0.6,0.3-0.6,0.6c0,0.3,0.3,0.6,0.6,0.6c0.3,0,0.6-0.3,0.6-0.6C5.2,33.3,5,33,4.6,33z"/>
	<path class="st1" d="M9.5,33c-0.3,0-0.6,0.3-0.6,0.6c0,0.3,0.3,0.6,0.6,0.6c0.3,0,0.6-0.3,0.6-0.6C10.1,33.3,9.8,33,9.5,33z"/>
	<path class="st1" d="M14.4,33c-0.3,0-0.6,0.3-0.6,0.6c0,0.3,0.3,0.6,0.6,0.6c0.3,0,0.6-0.3,0.6-0.6C14.9,33.3,14.7,33,14.4,33z"/>
	<path class="st1" d="M19.2,33c-0.3,0-0.6,0.3-0.6,0.6c0,0.3,0.3,0.6,0.6,0.6c0.3,0,0.6-0.3,0.6-0.6C19.8,33.3,19.5,33,19.2,33z"/>
	<path class="st1" d="M24.1,33c-0.3,0-0.6,0.3-0.6,0.6c0,0.3,0.3,0.6,0.6,0.6c0.3,0,0.6-0.3,0.6-0.6C24.7,33.3,24.4,33,24.1,33z"/>
	<path class="st1" d="M28.9,33c-0.3,0-0.6,0.3-0.6,0.6c0,0.3,0.3,0.6,0.6,0.6c0.3,0,0.6-0.3,0.6-0.6C29.5,33.3,29.3,33,28.9,33z"/>
	<path class="st1" d="M33.8,33c-0.3,0-0.6,0.3-0.6,0.6c0,0.3,0.3,0.6,0.6,0.6c0.3,0,0.6-0.3,0.6-0.6C34.4,33.3,34.1,33,33.8,33z"/>
	<path class="st1" d="M4.6,37.2c-0.3,0-0.6,0.3-0.6,0.6c0,0.3,0.3,0.6,0.6,0.6c0.3,0,0.6-0.3,0.6-0.6C5.2,37.5,5,37.2,4.6,37.2z"/>
	<path class="st1" d="M9.5,37.2c-0.3,0-0.6,0.3-0.6,0.6c0,0.3,0.3,0.6,0.6,0.6c0.3,0,0.6-0.3,0.6-0.6C10.1,37.5,9.8,37.2,9.5,37.2z"
		/>
	<path class="st1" d="M14.4,37.2c-0.3,0-0.6,0.3-0.6,0.6c0,0.3,0.3,0.6,0.6,0.6c0.3,0,0.6-0.3,0.6-0.6
		C14.9,37.5,14.7,37.2,14.4,37.2z"/>
	<path class="st1" d="M19.2,37.2c-0.3,0-0.6,0.3-0.6,0.6c0,0.3,0.3,0.6,0.6,0.6c0.3,0,0.6-0.3,0.6-0.6
		C19.8,37.5,19.5,37.2,19.2,37.2z"/>
	<path class="st1" d="M24.1,37.2c-0.3,0-0.6,0.3-0.6,0.6c0,0.3,0.3,0.6,0.6,0.6c0.3,0,0.6-0.3,0.6-0.6
		C24.7,37.5,24.4,37.2,24.1,37.2z"/>
	<path class="st1" d="M28.9,37.2c-0.3,0-0.6,0.3-0.6,0.6c0,0.3,0.3,0.6,0.6,0.6c0.3,0,0.6-0.3,0.6-0.6
		C29.5,37.5,29.3,37.2,28.9,37.2z"/>
	<path class="st1" d="M33.8,37.2c-0.3,0-0.6,0.3-0.6,0.6c0,0.3,0.3,0.6,0.6,0.6c0.3,0,0.6-0.3,0.6-0.6
		C34.4,37.5,34.1,37.2,33.8,37.2z"/>
	<path class="st1" d="M4.6,41.5c-0.3,0-0.6,0.3-0.6,0.6c0,0.3,0.3,0.6,0.6,0.6c0.3,0,0.6-0.3,0.6-0.6C5.2,41.7,5,41.5,4.6,41.5z"/>
	<circle class="st1" cx="9.5" cy="42" r="0.6"/>
	<path class="st1" d="M14.4,41.5c-0.3,0-0.6,0.3-0.6,0.6c0,0.3,0.3,0.6,0.6,0.6c0.3,0,0.6-0.3,0.6-0.6
		C14.9,41.7,14.7,41.5,14.4,41.5z"/>
	<path class="st1" d="M19.2,41.5c-0.3,0-0.6,0.3-0.6,0.6c0,0.3,0.3,0.6,0.6,0.6c0.3,0,0.6-0.3,0.6-0.6
		C19.8,41.7,19.5,41.5,19.2,41.5z"/>
	<path class="st1" d="M24.1,41.5c-0.3,0-0.6,0.3-0.6,0.6c0,0.3,0.3,0.6,0.6,0.6c0.3,0,0.6-0.3,0.6-0.6
		C24.7,41.7,24.4,41.5,24.1,41.5z"/>
	<path class="st1" d="M28.9,41.5c-0.3,0-0.6,0.3-0.6,0.6c0,0.3,0.3,0.6,0.6,0.6c0.3,0,0.6-0.3,0.6-0.6
		C29.5,41.7,29.3,41.5,28.9,41.5z"/>
	<circle class="st1" cx="33.8" cy="42" r="0.6"/>
	<path class="st1" d="M4.6,45.7c-0.3,0-0.6,0.3-0.6,0.6c0,0.3,0.3,0.6,0.6,0.6c0.3,0,0.6-0.3,0.6-0.6C5.2,46,5,45.7,4.6,45.7z"/>
	<circle class="st1" cx="9.5" cy="46.3" r="0.6"/>
	<path class="st1" d="M14.4,45.7c-0.3,0-0.6,0.3-0.6,0.6c0,0.3,0.3,0.6,0.6,0.6c0.3,0,0.6-0.3,0.6-0.6C14.9,46,14.7,45.7,14.4,45.7z
		"/>
	<path class="st1" d="M19.2,45.7c-0.3,0-0.6,0.3-0.6,0.6c0,0.3,0.3,0.6,0.6,0.6c0.3,0,0.6-0.3,0.6-0.6C19.8,46,19.5,45.7,19.2,45.7z
		"/>
	<path class="st1" d="M24.1,45.7c-0.3,0-0.6,0.3-0.6,0.6c0,0.3,0.3,0.6,0.6,0.6c0.3,0,0.6-0.3,0.6-0.6C24.7,46,24.4,45.7,24.1,45.7z
		"/>
	<path class="st1" d="M28.9,45.7c-0.3,0-0.6,0.3-0.6,0.6c0,0.3,0.3,0.6,0.6,0.6c0.3,0,0.6-0.3,0.6-0.6C29.5,46,29.3,45.7,28.9,45.7z
		"/>
	<circle class="st1" cx="33.8" cy="46.3" r="0.6"/>
</g>
<g>
	<path class="st1" d="M66.5,51.6c-0.3,0-0.6,0.3-0.6,0.6c0,0.3,0.3,0.6,0.6,0.6c0.3,0,0.6-0.3,0.6-0.6
		C67.1,51.9,66.8,51.6,66.5,51.6z"/>
	<path class="st1" d="M71.4,51.6c-0.3,0-0.6,0.3-0.6,0.6c0,0.3,0.3,0.6,0.6,0.6s0.6-0.3,0.6-0.6C71.9,51.9,71.7,51.6,71.4,51.6z"/>
	<path class="st1" d="M76.2,51.6c-0.3,0-0.6,0.3-0.6,0.6c0,0.3,0.3,0.6,0.6,0.6c0.3,0,0.6-0.3,0.6-0.6
		C76.8,51.9,76.5,51.6,76.2,51.6z"/>
	<path class="st1" d="M81.1,51.6c-0.3,0-0.6,0.3-0.6,0.6c0,0.3,0.3,0.6,0.6,0.6c0.3,0,0.6-0.3,0.6-0.6
		C81.7,51.9,81.4,51.6,81.1,51.6z"/>
	<path class="st1" d="M85.9,51.6c-0.3,0-0.6,0.3-0.6,0.6c0,0.3,0.3,0.6,0.6,0.6c0.3,0,0.6-0.3,0.6-0.6
		C86.5,51.9,86.3,51.6,85.9,51.6z"/>
	<path class="st1" d="M90.8,51.6c-0.3,0-0.6,0.3-0.6,0.6c0,0.3,0.3,0.6,0.6,0.6c0.3,0,0.6-0.3,0.6-0.6
		C91.4,51.9,91.1,51.6,90.8,51.6z"/>
	<path class="st1" d="M95.7,52.8c0.3,0,0.6-0.3,0.6-0.6c0-0.3-0.3-0.6-0.6-0.6s-0.6,0.3-0.6,0.6C95.1,52.5,95.3,52.8,95.7,52.8z"/>
	<path class="st1" d="M66.5,55.8c-0.3,0-0.6,0.3-0.6,0.6c0,0.3,0.3,0.6,0.6,0.6c0.3,0,0.6-0.3,0.6-0.6
		C67.1,56.1,66.8,55.8,66.5,55.8z"/>
	<path class="st1" d="M71.4,55.8c-0.3,0-0.6,0.3-0.6,0.6c0,0.3,0.3,0.6,0.6,0.6s0.6-0.3,0.6-0.6C71.9,56.1,71.7,55.8,71.4,55.8z"/>
	<path class="st1" d="M76.2,55.8c-0.3,0-0.6,0.3-0.6,0.6c0,0.3,0.3,0.6,0.6,0.6c0.3,0,0.6-0.3,0.6-0.6
		C76.8,56.1,76.5,55.8,76.2,55.8z"/>
	<path class="st1" d="M81.1,55.8c-0.3,0-0.6,0.3-0.6,0.6c0,0.3,0.3,0.6,0.6,0.6c0.3,0,0.6-0.3,0.6-0.6
		C81.7,56.1,81.4,55.8,81.1,55.8z"/>
	<path class="st1" d="M85.9,55.8c-0.3,0-0.6,0.3-0.6,0.6c0,0.3,0.3,0.6,0.6,0.6c0.3,0,0.6-0.3,0.6-0.6
		C86.5,56.1,86.3,55.8,85.9,55.8z"/>
	<path class="st1" d="M90.8,55.8c-0.3,0-0.6,0.3-0.6,0.6c0,0.3,0.3,0.6,0.6,0.6c0.3,0,0.6-0.3,0.6-0.6
		C91.4,56.1,91.1,55.8,90.8,55.8z"/>
	<path class="st1" d="M95.7,55.8c-0.3,0-0.6,0.3-0.6,0.6c0,0.3,0.3,0.6,0.6,0.6s0.6-0.3,0.6-0.6C96.2,56.1,96,55.8,95.7,55.8z"/>
	<path class="st1" d="M66.5,60.1c-0.3,0-0.6,0.3-0.6,0.6c0,0.3,0.3,0.6,0.6,0.6c0.3,0,0.6-0.3,0.6-0.6
		C67.1,60.3,66.8,60.1,66.5,60.1z"/>
	<path class="st1" d="M71.4,60.1c-0.3,0-0.6,0.3-0.6,0.6c0,0.3,0.3,0.6,0.6,0.6s0.6-0.3,0.6-0.6C71.9,60.3,71.7,60.1,71.4,60.1z"/>
	<path class="st1" d="M76.2,60.1c-0.3,0-0.6,0.3-0.6,0.6c0,0.3,0.3,0.6,0.6,0.6c0.3,0,0.6-0.3,0.6-0.6
		C76.8,60.3,76.5,60.1,76.2,60.1z"/>
	<path class="st1" d="M81.1,60.1c-0.3,0-0.6,0.3-0.6,0.6c0,0.3,0.3,0.6,0.6,0.6c0.3,0,0.6-0.3,0.6-0.6
		C81.7,60.3,81.4,60.1,81.1,60.1z"/>
	<path class="st1" d="M85.9,60.1c-0.3,0-0.6,0.3-0.6,0.6c0,0.3,0.3,0.6,0.6,0.6c0.3,0,0.6-0.3,0.6-0.6
		C86.5,60.3,86.3,60.1,85.9,60.1z"/>
	<path class="st1" d="M90.8,60.1c-0.3,0-0.6,0.3-0.6,0.6c0,0.3,0.3,0.6,0.6,0.6c0.3,0,0.6-0.3,0.6-0.6
		C91.4,60.3,91.1,60.1,90.8,60.1z"/>
	<path class="st1" d="M95.7,60.1c-0.3,0-0.6,0.3-0.6,0.6c0,0.3,0.3,0.6,0.6,0.6s0.6-0.3,0.6-0.6C96.2,60.3,96,60.1,95.7,60.1z"/>
	<path class="st1" d="M66.5,64.3c-0.3,0-0.6,0.3-0.6,0.6c0,0.3,0.3,0.6,0.6,0.6c0.3,0,0.6-0.3,0.6-0.6
		C67.1,64.6,66.8,64.3,66.5,64.3z"/>
	<path class="st1" d="M71.4,64.3c-0.3,0-0.6,0.3-0.6,0.6c0,0.3,0.3,0.6,0.6,0.6s0.6-0.3,0.6-0.6C71.9,64.6,71.7,64.3,71.4,64.3z"/>
	<path class="st1" d="M76.2,64.3c-0.3,0-0.6,0.3-0.6,0.6c0,0.3,0.3,0.6,0.6,0.6c0.3,0,0.6-0.3,0.6-0.6
		C76.8,64.6,76.5,64.3,76.2,64.3z"/>
	<path class="st1" d="M81.1,64.3c-0.3,0-0.6,0.3-0.6,0.6c0,0.3,0.3,0.6,0.6,0.6c0.3,0,0.6-0.3,0.6-0.6
		C81.7,64.6,81.4,64.3,81.1,64.3z"/>
	<path class="st1" d="M85.9,64.3c-0.3,0-0.6,0.3-0.6,0.6c0,0.3,0.3,0.6,0.6,0.6c0.3,0,0.6-0.3,0.6-0.6
		C86.5,64.6,86.3,64.3,85.9,64.3z"/>
	<path class="st1" d="M90.8,64.3c-0.3,0-0.6,0.3-0.6,0.6c0,0.3,0.3,0.6,0.6,0.6c0.3,0,0.6-0.3,0.6-0.6
		C91.4,64.6,91.1,64.3,90.8,64.3z"/>
	<path class="st1" d="M95.7,64.3c-0.3,0-0.6,0.3-0.6,0.6c0,0.3,0.3,0.6,0.6,0.6s0.6-0.3,0.6-0.6C96.2,64.6,96,64.3,95.7,64.3z"/>
	<path class="st1" d="M66.5,68.5c-0.3,0-0.6,0.3-0.6,0.6c0,0.3,0.3,0.6,0.6,0.6c0.3,0,0.6-0.3,0.6-0.6
		C67.1,68.8,66.8,68.5,66.5,68.5z"/>
	<path class="st1" d="M71.4,68.5c-0.3,0-0.6,0.3-0.6,0.6c0,0.3,0.3,0.6,0.6,0.6s0.6-0.3,0.6-0.6C71.9,68.8,71.7,68.5,71.4,68.5z"/>
	<path class="st1" d="M76.2,68.5c-0.3,0-0.6,0.3-0.6,0.6c0,0.3,0.3,0.6,0.6,0.6c0.3,0,0.6-0.3,0.6-0.6
		C76.8,68.8,76.5,68.5,76.2,68.5z"/>
	<path class="st1" d="M81.1,68.5c-0.3,0-0.6,0.3-0.6,0.6c0,0.3,0.3,0.6,0.6,0.6c0.3,0,0.6-0.3,0.6-0.6
		C81.7,68.8,81.4,68.5,81.1,68.5z"/>
	<path class="st1" d="M85.9,68.5c-0.3,0-0.6,0.3-0.6,0.6c0,0.3,0.3,0.6,0.6,0.6c0.3,0,0.6-0.3,0.6-0.6
		C86.5,68.8,86.3,68.5,85.9,68.5z"/>
	<path class="st1" d="M90.8,68.5c-0.3,0-0.6,0.3-0.6,0.6c0,0.3,0.3,0.6,0.6,0.6c0.3,0,0.6-0.3,0.6-0.6
		C91.4,68.8,91.1,68.5,90.8,68.5z"/>
	<path class="st1" d="M95.7,68.5c-0.3,0-0.6,0.3-0.6,0.6c0,0.3,0.3,0.6,0.6,0.6s0.6-0.3,0.6-0.6C96.2,68.8,96,68.5,95.7,68.5z"/>
	<path class="st1" d="M66.5,72.8c-0.3,0-0.6,0.3-0.6,0.6c0,0.3,0.3,0.6,0.6,0.6c0.3,0,0.6-0.3,0.6-0.6C67.1,73,66.8,72.8,66.5,72.8z
		"/>
	<circle class="st1" cx="71.4" cy="73.4" r="0.6"/>
	<path class="st1" d="M76.2,72.8c-0.3,0-0.6,0.3-0.6,0.6c0,0.3,0.3,0.6,0.6,0.6c0.3,0,0.6-0.3,0.6-0.6C76.8,73,76.5,72.8,76.2,72.8z
		"/>
	<path class="st1" d="M81.1,72.8c-0.3,0-0.6,0.3-0.6,0.6c0,0.3,0.3,0.6,0.6,0.6c0.3,0,0.6-0.3,0.6-0.6C81.7,73,81.4,72.8,81.1,72.8z
		"/>
	<path class="st1" d="M85.9,72.8c-0.3,0-0.6,0.3-0.6,0.6c0,0.3,0.3,0.6,0.6,0.6c0.3,0,0.6-0.3,0.6-0.6C86.5,73,86.3,72.8,85.9,72.8z
		"/>
	<path class="st1" d="M90.8,72.8c-0.3,0-0.6,0.3-0.6,0.6c0,0.3,0.3,0.6,0.6,0.6c0.3,0,0.6-0.3,0.6-0.6C91.4,73,91.1,72.8,90.8,72.8z
		"/>
	<circle class="st1" cx="95.7" cy="73.4" r="0.6"/>
	<path class="st1" d="M66.5,77c-0.3,0-0.6,0.3-0.6,0.6s0.3,0.6,0.6,0.6c0.3,0,0.6-0.3,0.6-0.6S66.8,77,66.5,77z"/>
	<circle class="st1" cx="71.4" cy="77.6" r="0.6"/>
	<path class="st1" d="M76.2,77c-0.3,0-0.6,0.3-0.6,0.6s0.3,0.6,0.6,0.6c0.3,0,0.6-0.3,0.6-0.6S76.5,77,76.2,77z"/>
	<path class="st1" d="M81.1,77c-0.3,0-0.6,0.3-0.6,0.6s0.3,0.6,0.6,0.6c0.3,0,0.6-0.3,0.6-0.6S81.4,77,81.1,77z"/>
	<path class="st1" d="M85.9,77c-0.3,0-0.6,0.3-0.6,0.6s0.3,0.6,0.6,0.6c0.3,0,0.6-0.3,0.6-0.6S86.3,77,85.9,77z"/>
	<path class="st1" d="M90.8,77c-0.3,0-0.6,0.3-0.6,0.6s0.3,0.6,0.6,0.6c0.3,0,0.6-0.3,0.6-0.6S91.1,77,90.8,77z"/>
	<circle class="st1" cx="95.7" cy="77.6" r="0.6"/>
	<path class="st1" d="M66.5,81.2c-0.3,0-0.6,0.3-0.6,0.6s0.3,0.6,0.6,0.6c0.3,0,0.6-0.3,0.6-0.6S66.8,81.2,66.5,81.2z"/>
	<circle class="st1" cx="71.4" cy="81.8" r="0.6"/>
	<path class="st1" d="M76.2,81.2c-0.3,0-0.6,0.3-0.6,0.6s0.3,0.6,0.6,0.6c0.3,0,0.6-0.3,0.6-0.6S76.5,81.2,76.2,81.2z"/>
	<path class="st1" d="M81.1,81.2c-0.3,0-0.6,0.3-0.6,0.6s0.3,0.6,0.6,0.6c0.3,0,0.6-0.3,0.6-0.6S81.4,81.2,81.1,81.2z"/>
	<path class="st1" d="M85.9,81.2c-0.3,0-0.6,0.3-0.6,0.6s0.3,0.6,0.6,0.6c0.3,0,0.6-0.3,0.6-0.6S86.3,81.2,85.9,81.2z"/>
	<path class="st1" d="M90.8,81.2c-0.3,0-0.6,0.3-0.6,0.6s0.3,0.6,0.6,0.6c0.3,0,0.6-0.3,0.6-0.6S91.1,81.2,90.8,81.2z"/>
	<circle class="st1" cx="95.7" cy="81.8" r="0.6"/>
</g>
<g>
	<path class="st1" d="M96.5,48.3c0,9.4-3.2,18-8.6,24.9c-0.3,0.4-0.6,0.8-0.9,1.1c-0.8,0.9-1.6,1.8-2.4,2.6
		c-0.9,0.9-1.9,1.8-2.9,2.6c-0.9,0.7-1.9,1.5-2.8,2.1c-0.3,0.2-0.5,0.4-0.8,0.5c-1.2,0.7-2.3,1.4-3.6,2.1c-0.1,0-0.1,0.1-0.2,0.1
		c-0.9,0.4-1.7,0.8-2.6,1.2c-2.3,1-4.6,1.7-7.1,2.2l-1.2,0.2c-2.1,0.4-4.3,0.6-6.6,0.7c-0.3,0-0.5,0-0.8,0c-0.8,0-1.5,0-2.3-0.1
		c-4.4-0.2-8.6-1.2-12.5-2.7c-2.1-0.8-4.2-1.8-6.1-3c-0.7-0.4-1.4-0.8-2-1.3c-0.2-0.1-0.3-0.2-0.5-0.3c-0.6-0.4-1.2-0.9-1.8-1.3
		c-0.6-0.5-1.2-1-1.8-1.5c-1.2-1.1-2.3-2.2-3.4-3.4c-4.5-5.2-7.8-11.5-9.2-18.5c-0.6-2.7-0.8-5.4-0.8-8.3c0-8.1,2.4-15.6,6.5-22
		C29.2,15.2,41.8,7.8,56,7.8c16.1,0,29.9,9.3,36.5,22.9C95.1,36,96.5,42,96.5,48.3z"/>
	<linearGradient id="SVGID_1_" gradientUnits="userSpaceOnUse" x1="26.5463" y1="73.6197" x2="59.799" y2="10.3876">
		<stop  offset="0" style="stop-color:#FFFFFF;stop-opacity:0"/>
		<stop  offset="1" style="stop-color:#FFFFFF"/>
	</linearGradient>
	<path class="st2" d="M60,65.9c-3,8.4-16,13.2-26.9,15.8c-0.2-0.1-0.3-0.2-0.5-0.3c-0.6-0.4-1.2-0.9-1.8-1.3c-0.6-0.5-1.2-1-1.8-1.5
		c-1.2-1.1-2.3-2.2-3.4-3.4c-4.5-5.2-7.8-11.5-9.2-18.5c-0.6-2.7-0.8-5.4-0.8-8.3c0-8.1,2.4-15.6,6.5-22c2.8,0.1,5.2,2.1,5.6,5.8
		c3.8-4.1,18-1.2,15.9,10.9C49,40.9,65.4,51,60,65.9z"/>
	<linearGradient id="SVGID_2_" gradientUnits="userSpaceOnUse" x1="58.2238" y1="86.9454" x2="52.9402" y2="-18.4984">
		<stop  offset="0" style="stop-color:#FFFFFF;stop-opacity:0"/>
		<stop  offset="1" style="stop-color:#FFFFFF"/>
	</linearGradient>
	<path class="st3" d="M96.5,48.3c0,9.4-3.2,18-8.6,24.9c-0.3,0.4-0.6,0.8-0.9,1.1c-0.8,0.9-1.6,1.8-2.4,2.6
		c-0.9,0.9-1.9,1.8-2.9,2.6c-0.9,0.7-1.9,1.5-2.8,2.1c-0.3,0.2-0.5,0.4-0.8,0.5c-1.2,0.7-2.3,1.4-3.6,2.1c-0.1,0-0.1,0.1-0.2,0.1
		c-0.9,0.4-1.7,0.8-2.6,1.2c-2.3,1-4.6,1.7-7.1,2.2l-1.2,0.2c-2.1,0.4-4.3,0.6-6.6,0.7c-0.3,0-0.5,0-0.8,0c-0.8,0-1.5,0-2.3-0.1
		c-4.4-0.2-8.6-1.2-12.5-2.7c-2.1-0.8-4.2-1.8-6.1-3c-0.9-0.5-1.7-1.1-2.5-1.6c-0.6-0.4-1.2-0.9-1.8-1.3c-0.6-0.5-1.2-1-1.8-1.5
		c-1.2-1.1-2.3-2.2-3.4-3.4c-4.5-5.2-7.8-11.5-9.2-18.5c2.6-4.1,8.3-2.5,8.7,3.7c0-11.9,18.3-18.4,22.2-7.1c0.6-6.9,10.3-7.9,10.9,2
		c0.7-8.3,14-15.3,19.4-6.6c-0.8-10,8.7-10.4,10.7-5c-1.1-5.5,0.6-10.6,4.2-12.9C95.1,36,96.5,42,96.5,48.3z"/>
	<g>
		<linearGradient id="SVGID_3_" gradientUnits="userSpaceOnUse" x1="33.4402" y1="94.6956" x2="33.4402" y2="62.4193">
			<stop  offset="3.409785e-07" style="stop-color:#671CC9"/>
			<stop  offset="1" style="stop-color:#6766C9"/>
		</linearGradient>
		<path class="st4" d="M41.2,49.3V86c-1.9-0.8-3.8-1.7-5.6-2.7c-0.2-0.1-0.3-0.2-0.5-0.3c-0.7-0.4-1.5-0.9-2.2-1.4
			c-0.1-0.1-0.2-0.1-0.3-0.2c-0.4-0.3-0.9-0.6-1.3-1c-0.2-0.1-0.3-0.3-0.5-0.4c-0.5-0.4-1.1-0.9-1.6-1.3c-0.1-0.1-0.2-0.1-0.2-0.2
			c-0.4-0.3-0.7-0.6-1-1c-0.6-0.6-1.1-1.1-1.7-1.7c-0.2-0.2-0.4-0.5-0.7-0.7V49.3H41.2z"/>
		<linearGradient id="SVGID_4_" gradientUnits="userSpaceOnUse" x1="43.2643" y1="62.5127" x2="106.209" y2="118.4507">
			<stop  offset="3.409785e-07" style="stop-color:#671CC9"/>
			<stop  offset="1" style="stop-color:#6766C9"/>
		</linearGradient>
		<path class="st5" d="M56.9,49.3v39.4c-0.3,0-0.5,0-0.8,0c-0.8,0-1.5,0-2.3-0.1c-4.4-0.2-8.6-1.2-12.5-2.7V49.3H56.9z"/>
		<linearGradient id="SVGID_5_" gradientUnits="userSpaceOnUse" x1="32.0892" y1="43.3695" x2="36.9992" y2="67.569">
			<stop  offset="3.409785e-07" style="stop-color:#671CC9"/>
			<stop  offset="1" style="stop-color:#6766C9"/>
		</linearGradient>
		<rect x="25.1" y="46.3" class="st6" width="16.1" height="4.9"/>
		<linearGradient id="SVGID_6_" gradientUnits="userSpaceOnUse" x1="48.2273" y1="43.3695" x2="53.1374" y2="67.569">
			<stop  offset="3.409785e-07" style="stop-color:#671CC9"/>
			<stop  offset="1" style="stop-color:#6766C9"/>
		</linearGradient>
		<rect x="41.3" y="46.3" class="st7" width="16.1" height="4.9"/>
		<rect x="25.1" y="50.1" class="st8" width="32.3" height="1.1"/>
		<linearGradient id="SVGID_7_" gradientUnits="userSpaceOnUse" x1="48.5277" y1="35.7169" x2="0.4578" y2="64.2315">
			<stop  offset="3.409785e-07" style="stop-color:#671CC9"/>
			<stop  offset="1" style="stop-color:#6766C9"/>
		</linearGradient>
		<rect x="29.2" y="40.9" class="st9" width="12.1" height="5.3"/>
		<linearGradient id="SVGID_8_" gradientUnits="userSpaceOnUse" x1="45.5151" y1="25.3982" x2="48.2718" y2="53.8267">
			<stop  offset="3.409785e-07" style="stop-color:#671CC9"/>
			<stop  offset="1" style="stop-color:#6766C9"/>
		</linearGradient>
		<rect x="41.3" y="40.9" class="st10" width="12.1" height="5.3"/>
		<linearGradient id="SVGID_9_" gradientUnits="userSpaceOnUse" x1="42.3939" y1="33.6883" x2="40.671" y2="43.7963">
			<stop  offset="3.409785e-07" style="stop-color:#671CC9"/>
			<stop  offset="1" style="stop-color:#6766C9"/>
		</linearGradient>
		<rect x="29.8" y="39.8" class="st11" width="23" height="1.1"/>
		<g class="st12">
			<rect x="26.2" y="52.6" class="st13" width="14.4" height="1.7"/>
			<rect x="26.2" y="55.5" class="st13" width="14.4" height="1.7"/>
			<rect x="26.2" y="58.4" class="st13" width="14.4" height="1.7"/>
			<rect x="26.2" y="61.3" class="st13" width="14.4" height="1.7"/>
			<rect x="26.2" y="64.2" class="st13" width="14.4" height="1.7"/>
			<rect x="26.2" y="67.1" class="st13" width="14.4" height="1.7"/>
			<rect x="26.2" y="70" class="st13" width="14.4" height="1.7"/>
			<rect x="26.2" y="72.9" class="st13" width="14.4" height="1.7"/>
			<path class="st13" d="M40.6,75.8v1.7H28c-0.6-0.6-1.1-1.1-1.7-1.7H40.6z"/>
			<path class="st13" d="M40.6,78.7v1.7h-9.3c-0.2-0.1-0.3-0.3-0.5-0.4c-0.5-0.4-1.1-0.9-1.6-1.3H40.6z"/>
			<path class="st13" d="M40.6,81.6v1.7h-5c-0.2-0.1-0.3-0.2-0.5-0.3c-0.7-0.4-1.5-0.9-2.2-1.4H40.6z"/>
		</g>
		<g class="st12">
			<rect x="41.9" y="52.6" class="st13" width="14.4" height="1.7"/>
			<rect x="41.9" y="55.5" class="st13" width="14.4" height="1.7"/>
			<rect x="41.9" y="58.4" class="st13" width="14.4" height="1.7"/>
			<rect x="41.9" y="61.3" class="st13" width="14.4" height="1.7"/>
			<rect x="41.9" y="64.2" class="st13" width="14.4" height="1.7"/>
			<rect x="41.9" y="67.1" class="st13" width="14.4" height="1.7"/>
			<rect x="41.9" y="70" class="st13" width="14.4" height="1.7"/>
			<rect x="41.9" y="72.9" class="st13" width="14.4" height="1.7"/>
			<rect x="41.9" y="75.8" class="st13" width="14.4" height="1.7"/>
			<rect x="41.9" y="78.7" class="st13" width="14.4" height="1.7"/>
			<rect x="41.9" y="81.6" class="st13" width="14.4" height="1.7"/>
		</g>
	</g>
	<g>
		<g>
			<linearGradient id="SVGID_10_" gradientUnits="userSpaceOnUse" x1="78.424" y1="42.5995" x2="72.565" y2="84.7614">
				<stop  offset="0" style="stop-color:#FF227D"/>
				<stop  offset="1" style="stop-color:#FF967D"/>
			</linearGradient>
			<path class="st14" d="M78.9,62.7v19.1c-0.3,0.2-0.5,0.4-0.8,0.5c-0.1,0.1-0.2,0.1-0.3,0.2c-0.4,0.3-0.8,0.5-1.2,0.7
				c-0.2,0.1-0.5,0.3-0.7,0.4c-0.1,0.1-0.3,0.2-0.4,0.2c-0.3,0.2-0.6,0.3-0.9,0.5h-4.7V62.7H78.9z"/>
			<linearGradient id="SVGID_11_" gradientUnits="userSpaceOnUse" x1="83.5319" y1="58.7774" x2="83.1763" y2="87.1365">
				<stop  offset="0" style="stop-color:#FF227D"/>
				<stop  offset="1" style="stop-color:#FF967D"/>
			</linearGradient>
			<path class="st15" d="M88,62.7v10.6c-0.3,0.4-0.6,0.8-0.9,1.1c-0.1,0.1-0.2,0.2-0.3,0.4c-0.3,0.4-0.7,0.8-1.1,1.2
				c-0.2,0.2-0.5,0.5-0.7,0.7c-0.1,0.1-0.2,0.2-0.4,0.4c0,0-0.1,0.1-0.1,0.1c-0.5,0.5-0.9,0.9-1.4,1.3c-0.4,0.4-0.8,0.7-1.2,1
				c-0.1,0-0.1,0.1-0.2,0.1c-0.2,0.1-0.4,0.3-0.5,0.4c-0.2,0.1-0.4,0.3-0.5,0.4c-0.6,0.4-1.2,0.9-1.8,1.3V62.7H88z"/>
			<linearGradient id="SVGID_12_" gradientUnits="userSpaceOnUse" x1="75.5541" y1="46.0966" x2="73.8886" y2="65.5085">
				<stop  offset="0" style="stop-color:#FF227D"/>
				<stop  offset="1" style="stop-color:#FF967D"/>
			</linearGradient>
			<rect x="69.5" y="60.9" class="st16" width="9.4" height="2.9"/>
			<linearGradient id="SVGID_13_" gradientUnits="userSpaceOnUse" x1="83.4914" y1="55.8497" x2="83.6637" y2="70.38">
				<stop  offset="0" style="stop-color:#FF227D"/>
				<stop  offset="1" style="stop-color:#FF967D"/>
			</linearGradient>
			<rect x="78.9" y="60.9" class="st17" width="9.4" height="2.9"/>
			<linearGradient id="SVGID_14_" gradientUnits="userSpaceOnUse" x1="75.4133" y1="51.9354" x2="75.284" y2="67.0972">
				<stop  offset="0" style="stop-color:#FF227D"/>
				<stop  offset="1" style="stop-color:#FF967D"/>
			</linearGradient>
			<rect x="71.8" y="57.8" class="st18" width="7" height="3.1"/>
			<linearGradient id="SVGID_15_" gradientUnits="userSpaceOnUse" x1="82.298" y1="48.4355" x2="82.4272" y2="65.6218">
				<stop  offset="0" style="stop-color:#FF227D"/>
				<stop  offset="1" style="stop-color:#FF967D"/>
			</linearGradient>
			<rect x="78.9" y="57.8" class="st19" width="7" height="3.1"/>
			<g>
				<g>
					<path class="st20" d="M72,67h-1.2v-2c0-0.3,0.3-0.6,0.6-0.6l0,0c0.3,0,0.6,0.3,0.6,0.6V67z"/>
					<path class="st20" d="M74,67h-1.2v-2c0-0.3,0.3-0.6,0.6-0.6l0,0c0.3,0,0.6,0.3,0.6,0.6V67z"/>
					<path class="st20" d="M75.9,67h-1.2v-2c0-0.3,0.3-0.6,0.6-0.6l0,0c0.3,0,0.6,0.3,0.6,0.6V67z"/>
					<path class="st20" d="M77.8,67h-1.2v-2c0-0.3,0.3-0.6,0.6-0.6l0,0c0.3,0,0.6,0.3,0.6,0.6V67z"/>
				</g>
				<g>
					<path class="st20" d="M72,70.4h-1.2v-2c0-0.3,0.3-0.6,0.6-0.6l0,0c0.3,0,0.6,0.3,0.6,0.6V70.4z"/>
					<path class="st20" d="M74,70.4h-1.2v-2c0-0.3,0.3-0.6,0.6-0.6l0,0c0.3,0,0.6,0.3,0.6,0.6V70.4z"/>
					<path class="st20" d="M75.9,70.4h-1.2v-2c0-0.3,0.3-0.6,0.6-0.6l0,0c0.3,0,0.6,0.3,0.6,0.6V70.4z"/>
					<path class="st20" d="M77.8,70.4h-1.2v-2c0-0.3,0.3-0.6,0.6-0.6l0,0c0.3,0,0.6,0.3,0.6,0.6V70.4z"/>
				</g>
				<g>
					<path class="st20" d="M72,73.7h-1.2v-2c0-0.3,0.3-0.6,0.6-0.6l0,0c0.3,0,0.6,0.3,0.6,0.6V73.7z"/>
					<path class="st20" d="M74,73.7h-1.2v-2c0-0.3,0.3-0.6,0.6-0.6l0,0c0.3,0,0.6,0.3,0.6,0.6V73.7z"/>
					<path class="st20" d="M75.9,73.7h-1.2v-2c0-0.3,0.3-0.6,0.6-0.6l0,0c0.3,0,0.6,0.3,0.6,0.6V73.7z"/>
					<path class="st20" d="M77.8,73.7h-1.2v-2c0-0.3,0.3-0.6,0.6-0.6l0,0c0.3,0,0.6,0.3,0.6,0.6V73.7z"/>
				</g>
				<g>
					<path class="st20" d="M72,77.1h-1.2v-2c0-0.3,0.3-0.6,0.6-0.6l0,0c0.3,0,0.6,0.3,0.6,0.6V77.1z"/>
					<path class="st20" d="M74,77.1h-1.2v-2c0-0.3,0.3-0.6,0.6-0.6l0,0c0.3,0,0.6,0.3,0.6,0.6V77.1z"/>
					<path class="st20" d="M75.9,77.1h-1.2v-2c0-0.3,0.3-0.6,0.6-0.6l0,0c0.3,0,0.6,0.3,0.6,0.6V77.1z"/>
					<path class="st20" d="M77.8,77.1h-1.2v-2c0-0.3,0.3-0.6,0.6-0.6l0,0c0.3,0,0.6,0.3,0.6,0.6V77.1z"/>
				</g>
				<g>
					<path class="st20" d="M72,80.5h-1.2v-2c0-0.3,0.3-0.6,0.6-0.6l0,0c0.3,0,0.6,0.3,0.6,0.6V80.5z"/>
					<path class="st20" d="M74,80.5h-1.2v-2c0-0.3,0.3-0.6,0.6-0.6l0,0c0.3,0,0.6,0.3,0.6,0.6V80.5z"/>
					<path class="st20" d="M75.9,80.5h-1.2v-2c0-0.3,0.3-0.6,0.6-0.6l0,0c0.3,0,0.6,0.3,0.6,0.6V80.5z"/>
					<path class="st20" d="M77.8,80.5h-1.2v-2c0-0.3,0.3-0.6,0.6-0.6l0,0c0.3,0,0.6,0.3,0.6,0.6V80.5z"/>
				</g>
				<g>
					<path class="st20" d="M72,83.8h-1.2v-2c0-0.3,0.3-0.6,0.6-0.6l0,0c0.3,0,0.6,0.3,0.6,0.6V83.8z"/>
					<path class="st20" d="M74,83.8h-1.2v-2c0-0.3,0.3-0.6,0.6-0.6l0,0c0.3,0,0.6,0.3,0.6,0.6V83.8z"/>
					<path class="st20" d="M75.9,81.8v1.8c-0.1,0.1-0.3,0.2-0.4,0.2h-0.8v-2c0-0.3,0.3-0.6,0.6-0.6C75.6,81.2,75.9,81.5,75.9,81.8z"
						/>
					<path class="st20" d="M77.8,81.8v0.7c-0.4,0.3-0.8,0.5-1.2,0.7v-1.4c0-0.3,0.3-0.6,0.6-0.6C77.5,81.2,77.8,81.5,77.8,81.8z"/>
				</g>
			</g>
			<g>
				<g>
					<path class="st20" d="M81.2,67h-1.2v-2c0-0.3,0.3-0.6,0.6-0.6l0,0c0.3,0,0.6,0.3,0.6,0.6V67z"/>
					<path class="st20" d="M83.1,67h-1.2v-2c0-0.3,0.3-0.6,0.6-0.6l0,0c0.3,0,0.6,0.3,0.6,0.6V67z"/>
					<path class="st20" d="M85,67h-1.2v-2c0-0.3,0.3-0.6,0.6-0.6l0,0c0.3,0,0.6,0.3,0.6,0.6V67z"/>
					<path class="st20" d="M86.9,67h-1.2v-2.2c0-0.2,0.2-0.4,0.4-0.4h0.3c0.2,0,0.4,0.2,0.4,0.4V67z"/>
				</g>
				<g>
					<path class="st20" d="M81.2,70.4h-1.2v-2c0-0.3,0.3-0.6,0.6-0.6l0,0c0.3,0,0.6,0.3,0.6,0.6V70.4z"/>
					<path class="st20" d="M83.1,70.4h-1.2v-2c0-0.3,0.3-0.6,0.6-0.6l0,0c0.3,0,0.6,0.3,0.6,0.6V70.4z"/>
					<path class="st20" d="M85,70.4h-1.2v-2c0-0.3,0.3-0.6,0.6-0.6l0,0c0.3,0,0.6,0.3,0.6,0.6V70.4z"/>
					<path class="st20" d="M86.9,70.4h-1.2v-2.2c0-0.2,0.2-0.4,0.4-0.4h0.3c0.2,0,0.4,0.2,0.4,0.4V70.4z"/>
				</g>
				<g>
					<path class="st20" d="M81.2,73.7h-1.2v-2c0-0.3,0.3-0.6,0.6-0.6l0,0c0.3,0,0.6,0.3,0.6,0.6V73.7z"/>
					<path class="st20" d="M83.1,73.7h-1.2v-2c0-0.3,0.3-0.6,0.6-0.6l0,0c0.3,0,0.6,0.3,0.6,0.6V73.7z"/>
					<path class="st20" d="M85,73.7h-1.2v-2c0-0.3,0.3-0.6,0.6-0.6l0,0c0.3,0,0.6,0.3,0.6,0.6V73.7z"/>
					<path class="st20" d="M86.9,73.7h-1.2v-2.2c0-0.2,0.2-0.4,0.4-0.4h0.3c0.2,0,0.4,0.2,0.4,0.4V73.7z"/>
				</g>
				<g>
					<path class="st20" d="M81.2,77.1h-1.2v-2c0-0.3,0.3-0.6,0.6-0.6l0,0c0.3,0,0.6,0.3,0.6,0.6V77.1z"/>
					<path class="st20" d="M83.1,77.1h-1.2v-2c0-0.3,0.3-0.6,0.6-0.6l0,0c0.3,0,0.6,0.3,0.6,0.6V77.1z"/>
					<path class="st20" d="M85,75.1v1.6c-0.1,0.1-0.2,0.2-0.4,0.4c0,0-0.1,0.1-0.1,0.1h-0.7v-2c0-0.3,0.3-0.6,0.6-0.6
						C84.7,74.5,85,74.7,85,75.1z"/>
					<path class="st20" d="M86.7,74.7c-0.3,0.4-0.7,0.8-1.1,1.2v-0.8c0-0.3,0.3-0.6,0.6-0.6C86.5,74.5,86.6,74.6,86.7,74.7z"/>
				</g>
				<g>
					<path class="st20" d="M81.2,78.4v1.6c-0.2,0.1-0.4,0.3-0.5,0.4h-0.7v-2c0-0.3,0.3-0.6,0.6-0.6C80.9,77.8,81.2,78.1,81.2,78.4z"
						/>
					<path class="st20" d="M83.1,78.4L83.1,78.4c-0.4,0.4-0.8,0.7-1.2,1.1v-1.1c0-0.3,0.3-0.6,0.6-0.6
						C82.8,77.8,83.1,78.1,83.1,78.4z"/>
				</g>
			</g>
		</g>
		<g>
			<linearGradient id="SVGID_16_" gradientUnits="userSpaceOnUse" x1="77.6232" y1="38.2097" x2="76.4172" y2="58.0665">
				<stop  offset="8.100000e-07" style="stop-color:#FF696F"/>
				<stop  offset="1" style="stop-color:#FFA1C1"/>
			</linearGradient>
			<polygon class="st21" points="78.9,40.2 78.9,57.8 74,57.8 74.1,57.3 74.7,55.2 75,54.2 75.3,53.2 75.6,52.2 75.8,51.2 
				76.1,50.1 76.4,49.1 76.7,48.1 77,47.1 77.2,46 77.5,45 78.1,43 78.4,42 			"/>
			<linearGradient id="SVGID_17_" gradientUnits="userSpaceOnUse" x1="76.2008" y1="38.0131" x2="83.6094" y2="66.7431">
				<stop  offset="8.100000e-07" style="stop-color:#FF696F"/>
				<stop  offset="1" style="stop-color:#FFA1C1"/>
			</linearGradient>
			<polygon class="st22" points="83.7,57.8 78.9,57.8 78.9,40.2 79.4,42 79.6,43 80.2,45 80.5,46 80.8,47.1 81.1,48.1 81.3,49.1 
				81.6,50.1 81.9,51.2 82.2,52.2 82.5,53.2 82.7,54.2 83,55.2 83.3,56.3 83.6,57.3 			"/>
			<linearGradient id="SVGID_18_" gradientUnits="userSpaceOnUse" x1="78.0925" y1="42.4695" x2="79.6376" y2="42.4695">
				<stop  offset="0" style="stop-color:#FF227D"/>
				<stop  offset="1" style="stop-color:#FF967D"/>
			</linearGradient>
			<polygon class="st23" points="79.6,43 78.1,43 78.4,42 79.4,42 			"/>
			<linearGradient id="SVGID_19_" gradientUnits="userSpaceOnUse" x1="77.527" y1="44.5144" x2="80.2031" y2="44.5144">
				<stop  offset="0" style="stop-color:#FF227D"/>
				<stop  offset="1" style="stop-color:#FF967D"/>
			</linearGradient>
			<polygon class="st24" points="80.2,45 77.5,45 77.8,44 79.9,44 			"/>
			<linearGradient id="SVGID_20_" gradientUnits="userSpaceOnUse" x1="76.9616" y1="46.5578" x2="80.7686" y2="46.5578">
				<stop  offset="0" style="stop-color:#FF227D"/>
				<stop  offset="1" style="stop-color:#FF967D"/>
			</linearGradient>
			<polygon class="st25" points="80.8,47.1 77,47.1 77.2,46 80.5,46 			"/>
			<linearGradient id="SVGID_21_" gradientUnits="userSpaceOnUse" x1="76.3962" y1="48.6026" x2="81.334" y2="48.6026">
				<stop  offset="0" style="stop-color:#FF227D"/>
				<stop  offset="1" style="stop-color:#FF967D"/>
			</linearGradient>
			<polygon class="st26" points="81.3,49.1 76.4,49.1 76.7,48.1 81.1,48.1 			"/>
			<linearGradient id="SVGID_22_" gradientUnits="userSpaceOnUse" x1="75.8307" y1="50.6475" x2="81.8994" y2="50.6475">
				<stop  offset="0" style="stop-color:#FF227D"/>
				<stop  offset="1" style="stop-color:#FF967D"/>
			</linearGradient>
			<polygon class="st27" points="81.9,51.2 75.8,51.2 76.1,50.1 81.6,50.1 			"/>
			<linearGradient id="SVGID_23_" gradientUnits="userSpaceOnUse" x1="75.2681" y1="52.6909" x2="82.4621" y2="52.6909">
				<stop  offset="0" style="stop-color:#FF227D"/>
				<stop  offset="1" style="stop-color:#FF967D"/>
			</linearGradient>
			<polygon class="st28" points="82.5,53.2 75.3,53.2 75.6,52.2 82.2,52.2 			"/>
			<linearGradient id="SVGID_24_" gradientUnits="userSpaceOnUse" x1="74.7026" y1="54.7358" x2="83.0275" y2="54.7358">
				<stop  offset="0" style="stop-color:#FF227D"/>
				<stop  offset="1" style="stop-color:#FF967D"/>
			</linearGradient>
			<polygon class="st29" points="83,55.2 74.7,55.2 75,54.2 82.7,54.2 			"/>
			<linearGradient id="SVGID_25_" gradientUnits="userSpaceOnUse" x1="74.1371" y1="56.7806" x2="83.593" y2="56.7806">
				<stop  offset="0" style="stop-color:#FF227D"/>
				<stop  offset="1" style="stop-color:#FF967D"/>
			</linearGradient>
			<polygon class="st30" points="83.6,57.3 74.1,57.3 74.4,56.3 83.3,56.3 			"/>
		</g>
	</g>
	<g>
		<linearGradient id="SVGID_26_" gradientUnits="userSpaceOnUse" x1="58.2428" y1="28.4042" x2="59.4488" y2="80.6094">
			<stop  offset="4.000000e-07" style="stop-color:#C7FFAB"/>
			<stop  offset="1" style="stop-color:#83CFD3"/>
		</linearGradient>
		<path class="st31" d="M64.6,87.9v-2.2v-2.5v-2.5v-2.5v-2.5v-2.5v-2.5v-2.5v-2.5v-2.5V61v-2.5v-2.5v-2.5v-4.3l-1.2,4.3l-0.7,2.5
			l-0.7,2.5L61.4,61l-0.7,2.5L60,65.9l-0.7,2.5l-0.7,2.5L58,73.3l-0.7,2.5l-0.4,1.6l-0.2,0.9l-0.1,0.2L56,80.7L55.3,83l-0.1,0.2
			l-0.7,2.5l-0.7,2.5l-0.2,0.6c0.8,0,1.5,0.1,2.3,0.1c0.3,0,0.5,0,0.8,0c2.2,0,4.5-0.3,6.6-0.7L64.6,87.9z"/>
		<linearGradient id="SVGID_27_" gradientUnits="userSpaceOnUse" x1="70.4876" y1="102.0091" x2="66.7929" y2="44.1251">
			<stop  offset="4.000000e-07" style="stop-color:#C7FFAB"/>
			<stop  offset="1" style="stop-color:#83CFD3"/>
		</linearGradient>
		<path class="st32" d="M74.3,84.4c-0.9,0.4-1.7,0.8-2.6,1.2c-2.3,1-4.6,1.7-7.1,2.2V49.3l1.2,4.3l0.7,2.5l1.4,4.9l0.7,2.5l0.7,2.5
			l0.5,2l0.1,0.5l0.2,0.7l0.5,1.8l0.2,0.8l0.5,1.6l0.3,1l0.4,1.4l0.3,1.2l0.3,1.3l0.4,1.4l0.3,1.1l0.4,1.6l0.2,0.9L74.3,84.4
			L74.3,84.4z"/>
		<polygon class="st33" points="66.5,56.1 62.8,56.1 63.4,53.6 65.8,53.6 		"/>
		<polygon class="st33" points="67.8,61 61.4,61 62.1,58.5 67.2,58.5 		"/>
		<polygon class="st33" points="69.2,65.9 60,65.9 60.7,63.5 68.5,63.5 		"/>
		<polygon class="st33" points="70.6,70.9 58.7,70.9 59.4,68.4 69.9,68.4 		"/>
		<polygon class="st33" points="71.9,75.8 57.3,75.8 58,73.3 71.3,73.3 		"/>
		<polygon class="st33" points="73.3,80.7 56,80.7 56.6,78.2 72.6,78.2 		"/>
		<path class="st33" d="M74.3,84.4c-0.9,0.4-1.7,0.8-2.6,1.2H54.6l0.7-2.5H74L74.3,84.4L74.3,84.4z"/>
		<path class="st12" d="M63.5,88.1c-2.1,0.4-4.3,0.6-6.6,0.7c-0.3,0-0.5,0-0.8,0c-0.8,0-1.5,0-2.3-0.1l0.2-0.6H63.5z"/>
	</g>
</g>
<g>
	<g>
		<path class="st13" d="M50.5,3.8c0,0.3,0.3,0.6,0.6,0.6c0.3,0,0.6-0.3,0.6-0.6c0-0.3-0.3-0.6-0.6-0.6C50.8,3.2,50.5,3.5,50.5,3.8z"
			/>
		<path class="st13" d="M55.4,3.8c0,0.3,0.3,0.6,0.6,0.6c0.3,0,0.6-0.3,0.6-0.6c0-0.3-0.3-0.6-0.6-0.6C55.6,3.2,55.4,3.5,55.4,3.8z"
			/>
		<path class="st13" d="M60.2,3.8c0,0.3,0.3,0.6,0.6,0.6c0.3,0,0.6-0.3,0.6-0.6c0-0.3-0.3-0.6-0.6-0.6C60.5,3.2,60.2,3.5,60.2,3.8z"
			/>
		<path class="st13" d="M65.1,3.8c0,0.3,0.3,0.6,0.6,0.6c0.3,0,0.6-0.3,0.6-0.6c0-0.3-0.3-0.6-0.6-0.6C65.3,3.2,65.1,3.5,65.1,3.8z"
			/>
		<path class="st13" d="M69.9,3.8c0,0.3,0.3,0.6,0.6,0.6c0.3,0,0.6-0.3,0.6-0.6c0-0.3-0.3-0.6-0.6-0.6C70.2,3.2,69.9,3.5,69.9,3.8z"
			/>
		<path class="st13" d="M74.8,3.8c0,0.3,0.3,0.6,0.6,0.6c0.3,0,0.6-0.3,0.6-0.6c0-0.3-0.3-0.6-0.6-0.6C75.1,3.2,74.8,3.5,74.8,3.8z"
			/>
		<path class="st13" d="M79.7,3.8c0,0.3,0.3,0.6,0.6,0.6c0.3,0,0.6-0.3,0.6-0.6c0-0.3-0.3-0.6-0.6-0.6C79.9,3.2,79.7,3.5,79.7,3.8z"
			/>
	</g>
	<g>
		<circle class="st13" cx="51.1" cy="8" r="0.6"/>
		<path class="st13" d="M55.4,8c0,0.3,0.3,0.6,0.6,0.6c0.3,0,0.6-0.3,0.6-0.6c0-0.3-0.3-0.6-0.6-0.6C55.6,7.4,55.4,7.7,55.4,8z"/>
		<path class="st13" d="M60.2,8c0,0.3,0.3,0.6,0.6,0.6c0.3,0,0.6-0.3,0.6-0.6c0-0.3-0.3-0.6-0.6-0.6C60.5,7.4,60.2,7.7,60.2,8z"/>
		<path class="st13" d="M65.1,8c0,0.3,0.3,0.6,0.6,0.6c0.3,0,0.6-0.3,0.6-0.6c0-0.3-0.3-0.6-0.6-0.6C65.3,7.4,65.1,7.7,65.1,8z"/>
		<circle class="st13" cx="70.5" cy="8" r="0.6"/>
		<circle class="st13" cx="75.4" cy="8" r="0.6"/>
		<path class="st13" d="M79.7,8c0,0.3,0.3,0.6,0.6,0.6c0.3,0,0.6-0.3,0.6-0.6c0-0.3-0.3-0.6-0.6-0.6C79.9,7.4,79.7,7.7,79.7,8z"/>
	</g>
	<g>
		<circle class="st13" cx="51.1" cy="12.3" r="0.6"/>
		<path class="st13" d="M55.4,12.3c0,0.3,0.3,0.6,0.6,0.6c0.3,0,0.6-0.3,0.6-0.6c0-0.3-0.3-0.6-0.6-0.6
			C55.6,11.7,55.4,11.9,55.4,12.3z"/>
		<path class="st13" d="M60.2,12.3c0,0.3,0.3,0.6,0.6,0.6c0.3,0,0.6-0.3,0.6-0.6c0-0.3-0.3-0.6-0.6-0.6
			C60.5,11.7,60.2,11.9,60.2,12.3z"/>
		<path class="st13" d="M65.1,12.3c0,0.3,0.3,0.6,0.6,0.6c0.3,0,0.6-0.3,0.6-0.6c0-0.3-0.3-0.6-0.6-0.6
			C65.3,11.7,65.1,11.9,65.1,12.3z"/>
		<circle class="st13" cx="70.5" cy="12.3" r="0.6"/>
		<circle class="st13" cx="75.4" cy="12.3" r="0.6"/>
		<path class="st13" d="M79.7,12.3c0,0.3,0.3,0.6,0.6,0.6c0.3,0,0.6-0.3,0.6-0.6c0-0.3-0.3-0.6-0.6-0.6
			C79.9,11.7,79.7,11.9,79.7,12.3z"/>
	</g>
	<g>
		<path class="st13" d="M50.5,16.5c0,0.3,0.3,0.6,0.6,0.6c0.3,0,0.6-0.3,0.6-0.6c0-0.3-0.3-0.6-0.6-0.6
			C50.8,15.9,50.5,16.2,50.5,16.5z"/>
		<path class="st13" d="M55.4,16.5c0,0.3,0.3,0.6,0.6,0.6c0.3,0,0.6-0.3,0.6-0.6c0-0.3-0.3-0.6-0.6-0.6
			C55.6,15.9,55.4,16.2,55.4,16.5z"/>
		<path class="st13" d="M60.2,16.5c0,0.3,0.3,0.6,0.6,0.6c0.3,0,0.6-0.3,0.6-0.6c0-0.3-0.3-0.6-0.6-0.6
			C60.5,15.9,60.2,16.2,60.2,16.5z"/>
		<path class="st13" d="M65.1,16.5c0,0.3,0.3,0.6,0.6,0.6c0.3,0,0.6-0.3,0.6-0.6c0-0.3-0.3-0.6-0.6-0.6
			C65.3,15.9,65.1,16.2,65.1,16.5z"/>
		<path class="st13" d="M69.9,16.5c0,0.3,0.3,0.6,0.6,0.6c0.3,0,0.6-0.3,0.6-0.6c0-0.3-0.3-0.6-0.6-0.6
			C70.2,15.9,69.9,16.2,69.9,16.5z"/>
		<path class="st13" d="M74.8,16.5c0,0.3,0.3,0.6,0.6,0.6c0.3,0,0.6-0.3,0.6-0.6c0-0.3-0.3-0.6-0.6-0.6
			C75.1,15.9,74.8,16.2,74.8,16.5z"/>
		<path class="st13" d="M79.7,16.5c0,0.3,0.3,0.6,0.6,0.6c0.3,0,0.6-0.3,0.6-0.6c0-0.3-0.3-0.6-0.6-0.6
			C79.9,15.9,79.7,16.2,79.7,16.5z"/>
	</g>
	<g>
		<path class="st13" d="M50.5,20.7c0,0.3,0.3,0.6,0.6,0.6c0.3,0,0.6-0.3,0.6-0.6c0-0.3-0.3-0.6-0.6-0.6
			C50.8,20.2,50.5,20.4,50.5,20.7z"/>
		<path class="st13" d="M55.4,20.7c0,0.3,0.3,0.6,0.6,0.6c0.3,0,0.6-0.3,0.6-0.6c0-0.3-0.3-0.6-0.6-0.6
			C55.6,20.2,55.4,20.4,55.4,20.7z"/>
		<path class="st13" d="M60.2,20.7c0,0.3,0.3,0.6,0.6,0.6c0.3,0,0.6-0.3,0.6-0.6c0-0.3-0.3-0.6-0.6-0.6
			C60.5,20.2,60.2,20.4,60.2,20.7z"/>
		<path class="st13" d="M65.1,20.7c0,0.3,0.3,0.6,0.6,0.6c0.3,0,0.6-0.3,0.6-0.6c0-0.3-0.3-0.6-0.6-0.6
			C65.3,20.2,65.1,20.4,65.1,20.7z"/>
		<path class="st13" d="M69.9,20.7c0,0.3,0.3,0.6,0.6,0.6c0.3,0,0.6-0.3,0.6-0.6c0-0.3-0.3-0.6-0.6-0.6
			C70.2,20.2,69.9,20.4,69.9,20.7z"/>
		<path class="st13" d="M74.8,20.7c0,0.3,0.3,0.6,0.6,0.6c0.3,0,0.6-0.3,0.6-0.6c0-0.3-0.3-0.6-0.6-0.6
			C75.1,20.2,74.8,20.4,74.8,20.7z"/>
		<path class="st13" d="M79.7,20.7c0,0.3,0.3,0.6,0.6,0.6c0.3,0,0.6-0.3,0.6-0.6c0-0.3-0.3-0.6-0.6-0.6
			C79.9,20.2,79.7,20.4,79.7,20.7z"/>
	</g>
	<g>
		<path class="st13" d="M50.5,25c0,0.3,0.3,0.6,0.6,0.6c0.3,0,0.6-0.3,0.6-0.6c0-0.3-0.3-0.6-0.6-0.6C50.8,24.4,50.5,24.6,50.5,25z"
			/>
		<path class="st13" d="M55.4,25c0,0.3,0.3,0.6,0.6,0.6c0.3,0,0.6-0.3,0.6-0.6c0-0.3-0.3-0.6-0.6-0.6C55.6,24.4,55.4,24.6,55.4,25z"
			/>
		<path class="st13" d="M60.2,25c0,0.3,0.3,0.6,0.6,0.6c0.3,0,0.6-0.3,0.6-0.6c0-0.3-0.3-0.6-0.6-0.6C60.5,24.4,60.2,24.6,60.2,25z"
			/>
		<path class="st13" d="M65.1,25c0,0.3,0.3,0.6,0.6,0.6c0.3,0,0.6-0.3,0.6-0.6c0-0.3-0.3-0.6-0.6-0.6C65.3,24.4,65.1,24.6,65.1,25z"
			/>
		<path class="st13" d="M69.9,25c0,0.3,0.3,0.6,0.6,0.6c0.3,0,0.6-0.3,0.6-0.6c0-0.3-0.3-0.6-0.6-0.6C70.2,24.4,69.9,24.6,69.9,25z"
			/>
		<path class="st13" d="M74.8,25c0,0.3,0.3,0.6,0.6,0.6c0.3,0,0.6-0.3,0.6-0.6c0-0.3-0.3-0.6-0.6-0.6C75.1,24.4,74.8,24.6,74.8,25z"
			/>
		<path class="st13" d="M79.7,25c0,0.3,0.3,0.6,0.6,0.6c0.3,0,0.6-0.3,0.6-0.6c0-0.3-0.3-0.6-0.6-0.6C79.9,24.4,79.7,24.6,79.7,25z"
			/>
	</g>
	<g>
		<path class="st13" d="M50.5,29.2c0,0.3,0.3,0.6,0.6,0.6c0.3,0,0.6-0.3,0.6-0.6c0-0.3-0.3-0.6-0.6-0.6
			C50.8,28.6,50.5,28.9,50.5,29.2z"/>
		<path class="st13" d="M55.4,29.2c0,0.3,0.3,0.6,0.6,0.6c0.3,0,0.6-0.3,0.6-0.6c0-0.3-0.3-0.6-0.6-0.6
			C55.6,28.6,55.4,28.9,55.4,29.2z"/>
		<path class="st13" d="M60.2,29.2c0,0.3,0.3,0.6,0.6,0.6c0.3,0,0.6-0.3,0.6-0.6c0-0.3-0.3-0.6-0.6-0.6
			C60.5,28.6,60.2,28.9,60.2,29.2z"/>
		<path class="st13" d="M65.1,29.2c0,0.3,0.3,0.6,0.6,0.6c0.3,0,0.6-0.3,0.6-0.6c0-0.3-0.3-0.6-0.6-0.6
			C65.3,28.6,65.1,28.9,65.1,29.2z"/>
		<path class="st13" d="M69.9,29.2c0,0.3,0.3,0.6,0.6,0.6c0.3,0,0.6-0.3,0.6-0.6c0-0.3-0.3-0.6-0.6-0.6
			C70.2,28.6,69.9,28.9,69.9,29.2z"/>
		<path class="st13" d="M74.8,29.2c0,0.3,0.3,0.6,0.6,0.6c0.3,0,0.6-0.3,0.6-0.6c0-0.3-0.3-0.6-0.6-0.6
			C75.1,28.6,74.8,28.9,74.8,29.2z"/>
		<path class="st13" d="M79.7,29.2c0,0.3,0.3,0.6,0.6,0.6c0.3,0,0.6-0.3,0.6-0.6c0-0.3-0.3-0.6-0.6-0.6
			C79.9,28.6,79.7,28.9,79.7,29.2z"/>
	</g>
	<g>
		<circle class="st13" cx="51.1" cy="33.4" r="0.6"/>
		<path class="st13" d="M55.4,33.4c0,0.3,0.3,0.6,0.6,0.6c0.3,0,0.6-0.3,0.6-0.6c0-0.3-0.3-0.6-0.6-0.6
			C55.6,32.9,55.4,33.1,55.4,33.4z"/>
		<path class="st13" d="M60.2,33.4c0,0.3,0.3,0.6,0.6,0.6c0.3,0,0.6-0.3,0.6-0.6c0-0.3-0.3-0.6-0.6-0.6
			C60.5,32.9,60.2,33.1,60.2,33.4z"/>
		<path class="st13" d="M65.1,33.4c0,0.3,0.3,0.6,0.6,0.6c0.3,0,0.6-0.3,0.6-0.6c0-0.3-0.3-0.6-0.6-0.6
			C65.3,32.9,65.1,33.1,65.1,33.4z"/>
		<circle class="st13" cx="70.5" cy="33.4" r="0.6"/>
		<circle class="st13" cx="75.4" cy="33.4" r="0.6"/>
		<path class="st13" d="M79.7,33.4c0,0.3,0.3,0.6,0.6,0.6c0.3,0,0.6-0.3,0.6-0.6c0-0.3-0.3-0.6-0.6-0.6
			C79.9,32.9,79.7,33.1,79.7,33.4z"/>
	</g>
</g>
<linearGradient id="SVGID_28_" gradientUnits="userSpaceOnUse" x1="21.6536" y1="12.7619" x2="22.8022" y2="52.9638">
	<stop  offset="0" style="stop-color:#FF227D"/>
	<stop  offset="1" style="stop-color:#FF967D"/>
</linearGradient>
<path class="st34" d="M22,16c-5,0-8.8,3.2-8.1,9.8c0.7,6.6,6.1,8.1,8.1,12c2-3.9,7.4-5.5,8.1-12C30.8,19.2,27,16,22,16z M22,28.1
	c-1.5,0-2.7-1.2-2.7-2.7c0-1.5,1.2-2.7,2.7-2.7c1.5,0,2.7,1.2,2.7,2.7C24.7,26.8,23.5,28.1,22,28.1z"/>
</svg>
