<?xml version="1.0" encoding="utf-8"?>
<!-- Generator: Adobe Illustrator 25.2.0, SVG Export Plug-In . SVG Version: 6.00 Build 0)  -->
<svg version="1.1" id="Calque_1" xmlns="http://www.w3.org/2000/svg" xmlns:xlink="http://www.w3.org/1999/xlink" x="0px" y="0px"
	 viewBox="0 0 250 250" style="enable-background:new 0 0 250 250;" xml:space="preserve">
<style type="text/css">
	.st0{fill:#E23237;}
	.st1{fill:#B52E31;}
	.st2{fill:#FFFFFF;}
</style>
<rect x="0.7" class="st0" width="250" height="250"/>
<rect x="125" class="st1" width="125.7" height="250"/>
<g>
	<path class="st0" d="M21.7,51.1l102.9-36.6l105.6,36l-17.1,136.1l-88.5,49l-87.1-48.4L21.7,51.1z"/>
	<path class="st1" d="M230.2,50.4l-105.6-36v221.1l88.5-48.9L230.2,50.4L230.2,50.4z"/>
	<path class="st2" d="M124.8,40.3L124.8,40.3L60.7,182.9l23.9-0.4l12.9-32.2h27.4h0.1H155l14.1,32.6l22.9,0.4L124.8,40.3L124.8,40.3
		z M124.9,85.9l21.7,45.3h-20.8h-1.1h-18.9L124.9,85.9L124.9,85.9z"/>
</g>
</svg>
