<?xml version="1.0" encoding="utf-8"?>
<!-- Generator: Adobe Illustrator 25.2.0, SVG Export Plug-In . SVG Version: 6.00 Build 0)  -->
<svg version="1.1" id="Calque_1" xmlns="http://www.w3.org/2000/svg" xmlns:xlink="http://www.w3.org/1999/xlink" x="0px" y="0px"
	 viewBox="0 0 250 250" style="enable-background:new 0 0 250 250;" xml:space="preserve">
<style type="text/css">
	.st0{fill:#1A1918;}
	.st1{fill:#FFFFFF;}
</style>
<path class="st0" d="M200.5,125c0,41.7-33.8,75.5-75.5,75.5S49.5,166.7,49.5,125S83.3,49.5,125,49.5S200.5,83.3,200.5,125"/>
<path class="st1" d="M126.3,95.6l19.5,48.2l-29.5-23.3L126.3,95.6z M160.9,155l-30-72.4c-0.8-2.1-2.6-3.2-4.7-3.2
	c-2.1,0-3.9,1.1-4.8,3.2l-33,79.4h11.3l13-32.7l39,31.5c1.6,1.3,2.7,1.8,4.2,1.8c3,0,5.5-2.2,5.5-5.4
	C161.5,156.6,161.3,155.8,160.9,155L160.9,155z"/>
</svg>
