<?xml version="1.0" encoding="utf-8"?>
<!-- Generator: Adobe Illustrator 25.2.0, SVG Export Plug-In . SVG Version: 6.00 Build 0)  -->
<svg version="1.1" id="Calque_1" xmlns="http://www.w3.org/2000/svg" xmlns:xlink="http://www.w3.org/1999/xlink" x="0px" y="0px"
	 viewBox="0 0 480 480" style="enable-background:new 0 0 480 480;" xml:space="preserve">
<style type="text/css">
	.st0{fill:#8080F2;}
	.st1{fill:#4B32C3;}
</style>
<g>
	<path class="st0" d="M220.6,228l18.6-10.7c0.5-0.3,1.1-0.3,1.5,0l18.6,10.7c0.5,0.3,0.8,0.8,0.8,1.4v21.4c0,0.5-0.3,1.1-0.8,1.4
		l-18.6,10.7c-0.5,0.3-1.1,0.3-1.5,0L220.6,252c-0.5-0.3-0.8-0.8-0.8-1.4v-21.4C219.9,228.9,220,228.3,220.6,228"/>
	<path class="st1" d="M359.2,235.2l-54.7-95.3c-2-3.5-5.6-5.9-9.6-5.9H185.2c-4,0-7.6,2.6-9.6,5.9L120.8,235c-2,3.5-2,7.8,0,11.3
		l54.7,94.6c2,3.5,5.6,5.2,9.6,5.2h109.7c4,0,7.6-1.7,9.6-5.2l54.7-94.7C361.2,242.7,361.2,238.6,359.2,235.2 M313.9,281.1
		c0,1.4-0.9,2.7-2.1,3.4l-69.8,40.3c-1.2,0.8-2.7,0.8-4,0l-69.8-40.3c-1.2-0.8-2.1-2-2.1-3.4v-80.7c0-1.4,0.8-2.7,2-3.4l69.8-40.3
		c1.2-0.8,2.7-0.8,4,0l69.8,40.3c1.2,0.8,2.1,2,2.1,3.4L313.9,281.1z"/>
</g>
</svg>
