<?xml version="1.0" encoding="utf-8"?>
<!-- Generator: Adobe Illustrator 25.2.0, SVG Export Plug-In . SVG Version: 6.00 Build 0)  -->
<svg version="1.1" id="Calque_1" xmlns="http://www.w3.org/2000/svg" xmlns:xlink="http://www.w3.org/1999/xlink" x="0px" y="0px"
	 viewBox="0 0 250 250" style="enable-background:new 0 0 250 250;" xml:space="preserve">
<style type="text/css">
	.st0{fill-rule:evenodd;clip-rule:evenodd;fill:#3F7A9C;}
</style>
<symbol  id="A" viewBox="-30.3 -32 60.6 64">
	<path class="st0" d="M11.6-15.3l0.2,0.2c1.5,1.2,2.8,2.6,3.9,4.1l0.9,1.4l2.8-1.6l-1-1.6c-1-1.4-2.1-2.6-3.3-3.7
		c0.7-0.6,1.5-1.5,2.2-2.4c2.2-2.8,3.1-5.7,2.2-6.4s-3.4,1-5.6,3.8c-0.7,0.9-1.3,1.9-1.7,2.8c-3-1.9-6.5-3.2-10.3-3.5
		c0.2-1,0.3-2.1,0.3-3.3c0-3.5-1-6.4-2.1-6.4s-2.1,2.9-2.1,6.4c0,1.2,0.1,2.3,0.3,3.3c-3.8,0.3-7.3,1.5-10.3,3.5
		c-0.4-0.9-1-1.8-1.7-2.8c-2.2-2.8-4.7-4.5-5.6-3.8s0,3.6,2.2,6.4c0.7,0.9,1.5,1.8,2.2,2.4c-1.2,1.1-2.3,2.4-3.3,3.7
		c-0.4,0.5-0.7,1.1-1,1.6l2.8,1.6c0.3-0.5,0.6-1,0.9-1.4c1.1-1.6,2.4-3,3.9-4.1l0.2-0.2c3.2-2.4,7.2-3.9,11.6-3.9
		S8.4-17.8,11.6-15.3L11.6-15.3z M-15.7,11c3.6,5.1,9.5,8.2,15.7,8.2c6.3,0,12.1-3,15.7-8.2l2.6,1.8c-1,1.4-2.1,2.6-3.3,3.7
		c0.7,0.6,1.5,1.5,2.2,2.4c2.2,2.8,3.1,5.7,2.2,6.4s-3.4-1-5.6-3.8c-0.7-0.9-1.3-1.9-1.7-2.8c-3,1.9-6.5,3.2-10.3,3.5
		c0.2,1,0.3,2.1,0.3,3.3c0,3.5-1,6.4-2.1,6.4s-2.1-2.9-2.1-6.4c0-1.2,0.1-2.3,0.3-3.3c-3.8-0.3-7.3-1.5-10.3-3.5
		c-0.4,0.9-1,1.8-1.7,2.8c-2.2,2.8-4.7,4.5-5.6,3.8s0-3.6,2.2-6.4c0.7-0.9,1.5-1.8,2.2-2.4c-1.2-1.1-2.3-2.4-3.3-3.7L-15.7,11z
		 M14.5,8.5V-7.7h4.7l3.4,9.8L26-7.7h4.3V8.5h-3.8V3.4l0.9-6l-3.8,9.8h-2.1l-3.8-9.8l0.9,6v5.1L14.5,8.5z M0.9-7.7V8.5h10.7V5.1H5.1
		V-7.7H0.9z M-13.2-7.7V8.5h11.1V5.1H-9v-3h5.5v-3.4H-9v-3h6.4v-3.4H-13.2z M-26,8.5V2.1h5.1v6.4h4.3V-7.7h-4.3v6H-26v-6h-4.3V8.5
		H-26z"/>
</symbol>
<use xlink:href="#A"  width="60.6" height="64" x="-30.3" y="-32" transform="matrix(3.269 0 0 3.269 125 125)" style="overflow:visible;"/>
</svg>
