<?xml version="1.0" encoding="utf-8"?>
<!-- Generator: Adobe Illustrator 25.2.0, SVG Export Plug-In . SVG Version: 6.00 Build 0)  -->
<svg version="1.1" id="Calque_1" xmlns="http://www.w3.org/2000/svg" xmlns:xlink="http://www.w3.org/1999/xlink" x="0px" y="0px"
	 viewBox="0 0 250 250" style="enable-background:new 0 0 250 250;" xml:space="preserve">
<style type="text/css">
	.st0{fill:#E34F26;}
	.st1{fill:#FFFFFF;}
</style>
<g>
	<defs>
		<circle id="SVGID_1_" cx="-283" cy="174" r="123"/>
	</defs>
	<clipPath id="SVGID_2_">
		<use xlink:href="#SVGID_1_"  style="overflow:visible;"/>
	</clipPath>
</g>
<g>
	<g>
		<path class="st0" d="M71.4,184.3L59.5,50.6h131.1l-12,133.7l-53.8,15.1"/>
		<path class="st1" d="M125.1,111h-21.8l-1.5-16.9h23.3V77.8h-0.3h-41l0.3,4.4l4.1,45.4h36.9C125.1,127.6,125.1,111,125.1,111z
			 M125.1,153.8h-0.3l-18.3-4.9l-1.2-13.1h-8.7H89l2,25.9l33.7,9.3h0.3L125.1,153.8L125.1,153.8z"/>
		<path class="st1" d="M124.9,111v16.6h20.4l-2,21.2l-18.3,4.9v17.2l33.7-9.3l0.3-2.9l3.8-43.3l0.6-4.4h-4.7L124.9,111L124.9,111z
			 M124.9,77.9v10.2v6.1l0,0h39.8l0,0l0,0l0.3-3.5l0.9-8.4l0.3-4.4L124.9,77.9L124.9,77.9z"/>
	</g>
</g>
</svg>
