<?xml version="1.0" encoding="utf-8"?>
<!-- Generator: Adobe Illustrator 25.2.0, SVG Export Plug-In . SVG Version: 6.00 Build 0)  -->
<svg version="1.1" id="Calque_1" xmlns="http://www.w3.org/2000/svg" xmlns:xlink="http://www.w3.org/1999/xlink" x="0px" y="0px"
	 viewBox="0 0 250 250" style="enable-background:new 0 0 250 250;" xml:space="preserve">
<style type="text/css">
	.st0{fill:#326CE5;}
	.st1{fill:#FFFFFF;stroke:#FFFFFF;stroke-width:0.11;stroke-miterlimit:8;}
</style>
<g>
	<path class="st0" d="M124.5,48.3c-1.4,0.1-2.8,0.5-4.1,1.1L65.3,75.6c-2.9,1.4-5,4-5.7,7.1l-13.5,59c-0.6,2.8-0.1,5.7,1.5,8.1
		c0.2,0.3,0.4,0.6,0.6,0.8l38,47.3c2,2.4,5,3.9,8.2,3.9h61c3.2,0,6.2-1.5,8.2-3.9l38-47.3c2-2.4,2.8-5.7,2-8.8l-13.6-59
		c-0.7-3.1-2.8-5.7-5.7-7.1l-55-26.2C128,48.6,126.1,48.2,124.5,48.3L124.5,48.3z"/>
	<path class="st1" d="M125,68.4c-1.9,0.1-3.4,1.7-3.2,3.7v0.9c0.1,1,0.3,2.1,0.5,3.2c0.3,2,0.4,4,0.3,6c-0.2,0.6-0.6,1.2-1.1,1.7
		l-0.1,1.4c-2,0.2-4,0.5-5.9,0.9c-8.2,1.9-15.7,6.1-21.5,12.3l-1.2-0.9c-0.6,0.2-1.4,0.1-1.9-0.2c-1.6-1.2-3.1-2.5-4.4-4
		c-0.6-0.8-1.4-1.5-2.2-2.3l-0.7-0.6c-0.6-0.5-1.5-0.8-2.3-0.8c-1-0.1-2,0.4-2.6,1.2c-1.1,1.5-0.8,3.7,0.8,4.8l0.7,0.5
		c0.9,0.6,1.8,1.1,2.7,1.6c1.7,1,3.4,2.1,5,3.5c0.4,0.6,0.6,1.2,0.6,1.9l1.1,1c-5.8,8.7-8.2,19.3-6.7,29.7l-1.4,0.4
		c-0.4,0.6-0.8,1-1.4,1.4c-1.9,0.5-3.9,0.8-5.9,1c-1,0-2.1,0.1-3.2,0.3l-0.9,0.2h-0.1c-1.8,0.3-3.1,1.9-2.8,3.7
		c0.1,0.7,0.4,1.4,0.9,1.9c0.9,0.9,2.2,1.2,3.4,0.8h0.1l0.9-0.1c1-0.3,2-0.6,3-1.1c1.9-0.8,3.8-1.3,5.7-1.7c0.7,0.1,1.4,0.3,1.9,0.6
		l1.5-0.3c3.2,10,10,18.4,18.9,23.7l-0.6,1.3c0.3,0.6,0.4,1.2,0.3,1.9c-0.8,1.9-1.8,3.7-3,5.4c-0.6,0.8-1.2,1.7-1.7,2.6l-0.5,0.9
		c-0.9,1.6-0.4,3.6,1.2,4.5c0.6,0.3,1.3,0.5,2,0.5c1.2-0.1,2.3-1,2.7-2.1l0.4-0.8c0.4-1,0.7-2,1-3c0.9-2.2,1.4-4.4,2.5-5.9
		c0.4-0.4,0.9-0.6,1.4-0.7l0.8-1.4c9.8,3.7,20.6,3.8,30.4,0.1l0.6,1.3c0.6,0.1,1.3,0.5,1.7,1c0.9,1.7,1.7,3.6,2.3,5.5
		c0.3,1,0.6,2.1,1,3l0.4,0.8c0.6,1.7,2.6,2.6,4.3,1.9c0.6-0.3,1.2-0.7,1.6-1.3c0.7-1,0.7-2.4,0.1-3.5l-0.5-0.9
		c-0.5-0.9-1.2-1.8-1.7-2.6c-1.2-1.6-2.1-3.4-3-5.2c-0.1-0.7-0.1-1.4,0.3-2c-0.2-0.5-0.4-0.9-0.6-1.4c9-5.3,15.7-13.9,18.9-23.8
		l1.4,0.3c0.5-0.5,1.2-0.7,1.9-0.7c1.9,0.4,3.9,1,5.7,1.7c1,0.5,1.9,0.8,3,1.2c0.3,0.1,0.6,0.1,0.8,0.2h0.1c1.7,0.6,3.6-0.4,4.2-2.1
		c0.2-0.6,0.2-1.4,0-2.1c-0.4-1.2-1.4-2.1-2.7-2.2l-1-0.3c-1-0.1-2.1-0.3-3.2-0.3c-2-0.1-4-0.5-5.9-1c-0.6-0.3-1.1-0.8-1.4-1.4
		l-1.4-0.4c1.4-10.4-1-20.9-6.8-29.6l1.2-1.1c-0.1-0.7,0.2-1.4,0.6-1.9c1.5-1.3,3.2-2.4,4.9-3.4c1-0.5,1.9-1,2.7-1.6l0.7-0.6
		c1.5-1,2.1-3,1.1-4.6c-0.4-0.6-1-1.2-1.7-1.4c-1.2-0.5-2.5-0.1-3.4,0.8l-0.7,0.6c-0.8,0.7-1.5,1.5-2.2,2.3
		c-1.3,1.5-2.8,2.8-4.3,4.1c-0.6,0.3-1.4,0.3-2,0.2l-1.2,0.9c-7.2-7.5-16.9-12.2-27.3-13.2c0-0.5-0.1-1.2-0.1-1.5
		c-0.6-0.4-1-1-1.1-1.6c-0.1-2,0.1-4,0.4-6c0.2-1,0.4-2.1,0.5-3.2v-1C128.4,70.1,127,68.5,125,68.4L125,68.4z M120.9,93.9l-1,17.3
		h-0.1c-0.1,1.1-0.7,2-1.6,2.5c-1,0.5-2.1,0.4-3-0.3l-14.2-10.1c4.5-4.4,10.2-7.5,16.3-8.9C118.5,94.2,119.7,94,120.9,93.9
		L120.9,93.9z M129.1,93.9c7.4,0.9,14.4,4.3,19.7,9.5l-14,10c-0.8,0.7-2.1,0.8-3,0.4c-1-0.5-1.7-1.5-1.7-2.6L129.1,93.9z
		 M95.9,109.8l13,11.5v0.1c0.8,0.7,1.2,1.8,0.9,2.8c-0.3,1-1,1.9-2.1,2.1v0.1l-16.6,4.8C90.3,123.8,92,116.2,95.9,109.8L95.9,109.8z
		 M154,109.8c3.9,6.4,5.7,13.9,5,21.4l-16.6-4.8v-0.1c-1-0.3-1.8-1.1-2.1-2.1c-0.3-1,0.1-2.1,0.9-2.8L154,109.8L154,109.8z
		 M122.3,122.2h5.3l3.2,4.1l-1.2,5.2l-4.8,2.3l-4.8-2.3l-1.1-5.2L122.3,122.2z M139.3,136.3c0.2,0,0.5,0,0.6,0l17.1,2.9
		c-2.4,7.1-7.3,13.2-13.7,17.3l-6.6-16c-0.6-1.5,0.1-3.2,1.5-3.8C138.6,136.5,138.9,136.4,139.3,136.3L139.3,136.3z M110.6,136.4
		c1,0,1.9,0.5,2.4,1.4s0.6,1.8,0.3,2.7v0.1l-6.6,15.9c-6.3-4.1-11.1-10.1-13.7-17.1l17-2.9C110.1,136.4,110.3,136.4,110.6,136.4
		L110.6,136.4z M124.9,143.3c1.1-0.1,2.1,0.6,2.6,1.5h0.1l8.4,15.1l-3.4,1c-6.2,1.4-12.6,1.1-18.6-1l8.4-15.1
		C123,144,123.9,143.4,124.9,143.3L124.9,143.3z"/>
</g>
</svg>
