<?xml version="1.0" encoding="utf-8"?>
<!-- Generator: Adobe Illustrator 25.2.0, SVG Export Plug-In . SVG Version: 6.00 Build 0)  -->
<svg version="1.1" id="Calque_1" xmlns="http://www.w3.org/2000/svg" xmlns:xlink="http://www.w3.org/1999/xlink" x="0px" y="0px"
	 viewBox="0 0 250 250" style="enable-background:new 0 0 250 250;" xml:space="preserve">
<style type="text/css">
	.st0{fill:#599636;}
	.st1{fill:#6CAC48;}
	.st2{fill:#C2BFBF;}
</style>
<g>
	<path class="st0" d="M124.6,57.3l3.6,6.9c0.8,1.3,1.7,2.4,2.8,3.4c3,3,5.9,6.3,8.5,9.6c6.1,8.1,10.3,17.1,13.3,26.8
		c1.8,5.9,2.8,12,2.8,18.2c0.3,18.4-6,34.2-18.7,47.3c-2.1,2.1-4.3,4-6.7,5.7c-1.3,0-1.8-1-2.4-1.8c-1-1.6-1.6-3.5-1.8-5.3
		c-0.5-2.2-0.7-4.5-0.6-6.7v-1.1C125.3,159.9,124.1,57.7,124.6,57.3z"/>
	<path class="st1" d="M124.6,57c-0.1-0.3-0.3-0.1-0.5,0.1c0.1,1.5-0.5,2.8-1.3,4.1c-0.9,1.3-2.1,2.2-3.3,3.3
		c-6.6,5.7-11.8,12.6-16,20.3c-5.5,10.4-8.4,21.5-9.2,33.2c-0.4,4.2,1.3,19.1,2.6,23.5c3.6,11.4,10.2,21,18.6,29.3
		c2.1,2,4.3,3.8,6.6,5.7c0.7,0,0.7-0.6,0.9-1.1c0.3-0.9,0.5-1.9,0.7-2.9l1.5-11.1L124.6,57z"/>
	<path class="st2" d="M128.2,179.6c0.1-1.7,1-3.1,1.8-4.5c-0.9-0.4-1.6-1.1-2.1-1.9c-0.5-0.7-0.8-1.6-1.1-2.4
		c-1.1-3.1-1.3-6.4-1.6-9.6v-1.9c-0.4,0.3-0.5,2.8-0.5,3.2c-0.2,3.4-0.7,6.7-1.3,10c-0.2,1.3-0.4,2.6-1.2,3.8c0,0.1,0,0.3,0.1,0.5
		c1.3,4,1.7,7.9,1.9,12v1.5c0,1.8-0.1,1.4,1.4,2c0.6,0.2,1.3,0.3,1.8,0.7c0.5,0,0.5-0.4,0.5-0.7l-0.2-2.4v-6.9
		C127.8,181.9,128,180.7,128.2,179.6L128.2,179.6z"/>
</g>
</svg>
