<?xml version="1.0" encoding="utf-8"?>
<!-- Generator: Adobe Illustrator 25.2.0, SVG Export Plug-In . SVG Version: 6.00 Build 0)  -->
<svg version="1.1" id="Calque_1" xmlns="http://www.w3.org/2000/svg" xmlns:xlink="http://www.w3.org/1999/xlink" x="0px" y="0px"
	 viewBox="0 0 250 250" style="enable-background:new 0 0 250 250;" xml:space="preserve">
<style type="text/css">
	.st0{fill:#599636;}
	.st1{fill:#6CAC48;}
	.st2{fill:#C2BFBF;}
</style>
<g>
	<path class="st0" d="M124.4,22.3l5.5,10.4c1.2,1.9,2.6,3.6,4.2,5.2c4.6,4.6,9,9.5,12.9,14.6c9.3,12.3,15.6,25.9,20.1,40.6
		c2.7,9,4.2,18.2,4.3,27.6c0.5,27.9-9.1,51.9-28.4,71.8c-3.2,3.2-6.5,6.1-10.1,8.7c-1.9,0-2.8-1.5-3.6-2.8c-1.5-2.5-2.4-5.3-2.8-8.1
		c-0.7-3.4-1.1-6.8-0.9-10.2v-1.6C125.4,178,123.7,23,124.4,22.3z"/>
	<path class="st1" d="M124.4,21.9c-0.2-0.5-0.5-0.1-0.7,0.1c0.1,2.3-0.7,4.3-1.9,6.2c-1.4,1.9-3.2,3.4-5,5
		c-10,8.7-17.9,19.1-24.2,30.8c-8.4,15.8-12.7,32.6-13.9,50.4c-0.6,6.4,2,29,4,35.6c5.5,17.3,15.4,31.8,28.2,44.5
		c3.2,3,6.5,5.8,10,8.6c1,0,1.1-0.9,1.4-1.6c0.4-1.4,0.8-2.9,1-4.4l2.3-16.9L124.4,21.9z"/>
	<path class="st2" d="M129.9,207.9c0.2-2.6,1.5-4.7,2.8-6.9c-1.4-0.6-2.4-1.7-3.2-2.9c-0.7-1.1-1.2-2.5-1.7-3.7
		c-1.6-4.7-1.9-9.7-2.4-14.5V177c-0.6,0.5-0.7,4.3-0.7,4.8c-0.3,5.1-1,10.2-2,15.2c-0.3,2-0.6,4-1.8,5.8c0,0.2,0,0.5,0.1,0.8
		c2,6,2.6,12,2.9,18.2v2.3c0,2.7-0.1,2.1,2.1,3c0.9,0.3,1.9,0.5,2.8,1.1c0.7,0,0.8-0.6,0.8-1l-0.3-3.7v-10.4
		C129.3,211.4,129.6,209.6,129.9,207.9L129.9,207.9z"/>
</g>
</svg>
