<?xml version="1.0" encoding="utf-8"?>
<!-- Generator: Adobe Illustrator 25.2.0, SVG Export Plug-In . SVG Version: 6.00 Build 0)  -->
<svg version="1.1" id="Calque_1" xmlns="http://www.w3.org/2000/svg" xmlns:xlink="http://www.w3.org/1999/xlink" x="0px" y="0px"
	 viewBox="0 0 250 250" style="enable-background:new 0 0 250 250;" xml:space="preserve">
<g>
	<g>
		<path d="M168.8,188.3l-15.1-22.9c-8.3-12.6-25.3-38.3-37.7-57.1C103.6,89.4,93.2,73.8,93,73.5c-1-1.1-1.6-1.2-5.4-1.2
			c-3.2,0-3.5,0-4.3,0.4c-0.4,0.2-1.1,0.7-1.4,1.1l-0.6,0.7L81.2,112l0,37.4l0.4,0.8c0.3,0.5,0.7,1,1.3,1.4l0.9,0.5h3.2
			c2.8,0,3.3-0.1,3.9-0.4c0.8-0.4,1.2-0.8,1.6-1.7c0.3-0.6,0.4-1.7,0.4-28.6c0-15.4,0.1-28,0.2-27.9c0.1,0,8.7,12.7,19.3,28.3
			l19.1,28.3l15.3,20.6c8.4,11.4,15.4,20.8,15.6,20.9"/>
		<path d="M149.9,70c-0.6-0.3-1.1-0.4-3.9-0.4c-2.9,0-3.2,0-4,0.4c-0.9,0.5-1.6,1.3-1.8,2.4c-0.1,0.4-0.2,9.3-0.2,25.1v24.4l5.9,9.1
			l5.9,9.1l0.1-33.6c0-23.4,0-33.8-0.1-34.3C151.5,71.4,150.8,70.5,149.9,70z"/>
	</g>
	<path d="M162.4,191.7"/>
</g>
</svg>
