<?xml version="1.0" encoding="utf-8"?>
<!-- Generator: Adobe Illustrator 25.2.0, SVG Export Plug-In . SVG Version: 6.00 Build 0)  -->
<svg version="1.1" id="Calque_1" xmlns="http://www.w3.org/2000/svg" xmlns:xlink="http://www.w3.org/1999/xlink" x="0px" y="0px"
	 viewBox="0 0 250 250" style="enable-background:new 0 0 250 250;" xml:space="preserve">
<style type="text/css">
	.st0{fill:#333333;}
	.st1{fill:#539E43;}
</style>
<rect class="st0" width="250" height="250"/>
<g>
	<path class="st1" d="M125,197.9c-2,0-3.9-0.5-5.7-1.5l-17.9-10.7c-2.7-1.5-1.3-2-0.5-2.3c3.7-1.2,4.3-1.5,8-3.7
		c0.4-0.3,1-0.2,1.3,0.2l13.7,8.2c0.5,0.3,1.2,0.3,1.6,0l53.7-31.1c0.5-0.3,0.8-0.8,0.8-1.5v-62c0-0.7-0.3-1.2-0.8-1.5l-53.7-30.9
		c-0.5-0.3-1.2-0.3-1.6,0L70.3,92.2c-0.5,0.3-0.8,1-0.8,1.5v62c0,0.5,0.3,1.2,0.8,1.5l14.7,8.5c8,4,12.9-0.7,12.9-5.4V99
		c0-0.8,0.7-1.6,1.6-1.6h6.8c0.8,0,1.6,0.7,1.6,1.6v61.2c0,10.7-5.8,16.8-15.9,16.8c-3.1,0-5.5,0-12.4-3.3l-14.2-8
		c-3.5-2-5.7-5.8-5.7-9.8v-62c0-4,2.2-7.8,5.7-9.8L119,53c3.3-1.9,8-1.9,11.3,0l53.7,31.1c3.5,2,5.7,5.8,5.7,9.8v62
		c0,4-2.2,7.8-5.7,9.8l-53.7,31.1C128.9,197.5,126.9,197.9,125,197.9L125,197.9z M141.5,155.3c-23.5,0-28.4-10.7-28.4-19.9
		c0-0.8,0.7-1.6,1.6-1.6h7c0.8,0,1.5,0.5,1.5,1.3c1,7.2,4.2,10.7,18.4,10.7c11.3,0,16.2-2.5,16.2-8.6c0-3.5-1.3-6-19-7.8
		c-14.7-1.5-23.8-4.7-23.8-16.4c0-10.9,9.2-17.4,24.5-17.4c17.2,0,25.7,5.9,26.7,18.8c0,0.4-0.2,0.8-0.4,1.2c-0.3,0.3-0.7,0.5-1,0.5
		h-7c-0.7,0-1.3-0.5-1.5-1.2c-1.6-7.4-5.8-9.8-16.8-9.8c-12.4,0-13.9,4.3-13.9,7.5c0,3.9,1.7,5.1,18.4,7.3
		c16.5,2.2,24.4,5.2,24.4,16.8C168.3,148.6,158.6,155.3,141.5,155.3L141.5,155.3z"/>
</g>
</svg>
