<?xml version="1.0" encoding="utf-8"?>
<!-- Generator: Adobe Illustrator 25.2.0, SVG Export Plug-In . SVG Version: 6.00 Build 0)  -->
<svg version="1.1" id="Calque_1" xmlns="http://www.w3.org/2000/svg" xmlns:xlink="http://www.w3.org/1999/xlink" x="0px" y="0px"
	 viewBox="0 0 480 480" style="enable-background:new 0 0 480 480;" xml:space="preserve">
<style type="text/css">
	.st0{fill:#CF649A;}
</style>
<path class="st0" d="M349.7,255.8c-9.9,0.1-18.4,2.4-25.6,5.9c-2.6-5.3-5.3-9.8-5.8-13.2c-0.5-3.9-1.1-6.4-0.5-11.1
	c0.6-4.8,3.4-11.4,3.4-12c-0.1-0.5-0.6-2.9-6.2-3c-5.7-0.1-10.6,1.1-11.1,2.5c-0.5,1.5-1.6,4.9-2.4,8.4c-1,5.2-11.3,23.5-17.3,33.1
	c-1.9-3.8-3.6-7.1-3.9-9.7c-0.5-3.9-1.1-6.4-0.5-11.1c0.6-4.8,3.4-11.4,3.4-12c-0.1-0.5-0.6-2.9-6.2-3c-5.7-0.1-10.6,1.1-11.1,2.5
	s-1.2,5-2.4,8.4c-1.2,3.5-14.9,34-18.5,42c-1.8,4.1-3.5,7.3-4.6,9.5c-1.2,2.2-0.1,0.2-0.2,0.4c-1,1.9-1.6,2.9-1.6,2.9v0.1
	c-0.7,1.4-1.6,2.7-2,2.7c-0.2,0-0.8-3.7,0.1-8.7c2.1-10.6,7-27.2,6.9-27.8c0-0.2,0.9-3.2-3.2-4.7c-4-1.5-5.4,1-5.8,1
	s-0.6,0.9-0.6,0.9s4.4-18.7-8.6-18.7c-8.1,0-19.4,8.9-24.9,16.9c-3.5,1.9-11,6-18.9,10.4c-3,1.6-6.2,3.5-9.1,5l-0.6-0.7
	c-15.8-16.8-44.9-28.7-43.7-51.2c0.4-8.2,3.3-29.8,55.9-56.1c43.1-21.5,77.6-15.6,83.6-2.5c8.6,18.7-18.4,53.5-63.2,58.5
	c-17.1,1.9-26.1-4.7-28.3-7.2c-2.4-2.5-2.7-2.7-3.6-2.2c-1.4,0.7-0.6,3.1,0,4.4c1.3,3.5,6.8,9.6,16.2,12.7
	c8.2,2.7,28.3,4.2,52.5-5.2c27.1-10.5,48.3-39.7,42.1-64.1c-6.3-24.8-47.5-33-86.4-19.2c-23.2,8.2-48.3,21.1-66.4,38.1
	c-21.5,20.1-24.9,37.6-23.4,44.8c5,25.9,40.8,42.8,55.1,55.3c-0.7,0.4-1.4,0.7-2,1.1c-7.2,3.5-34.4,17.8-41.3,32.9
	c-7.7,17.1,1.2,29.4,7.2,31c18.4,5.1,37.2-4.1,47.4-19.2c10.1-15.1,8.9-34.8,4.3-43.7l-0.2-0.3l5.6-3.3c3.6-2.1,7.2-4.1,10.4-5.8
	c-1.7,4.8-3,10.4-3.7,18.7c-0.7,9.7,3.2,22.3,8.4,27.2c2.3,2.1,5.1,2.2,6.7,2.2c6.1,0,8.8-5,11.8-11c3.8-7.3,7.1-15.8,7.1-15.8
	s-4.1,22.9,7.2,22.9c4.1,0,8.2-5.3,10.1-8.1v0.1c0,0,0.1-0.2,0.3-0.6c0.2-0.3,0.4-0.7,0.7-1.1v-0.1c1.6-2.9,5.3-9.5,10.9-20.2
	c7.1-14,13.9-31.5,13.9-31.5s0.7,4.3,2.7,11.3c1.2,4.2,3.9,8.7,5.9,13.2c-1.6,2.3-2.6,3.6-2.6,3.6l0.1,0.1c-1.3,1.7-2.8,3.6-4.4,5.5
	c-5.6,6.7-12.3,14.4-13.2,16.6c-1.1,2.5-0.8,4.5,1.2,6.1c1.5,1.1,4.1,1.3,6.9,1.1c5.1-0.3,8.6-1.6,10.4-2.4c2.7-1,5.9-2.5,8.9-4.7
	c5.5-4.1,8.9-9.9,8.6-17.6c-0.2-4.3-1.6-8.4-3.3-12.4c0.5-0.7,1-1.4,1.5-2.2c8.7-12.7,15.5-26.7,15.5-26.7S306,250,308,257
	c1.1,3.6,3.1,7.5,5,11.3c-8.1,6.7-13.2,14.4-15,19.4c-3.3,9.4-0.7,13.6,4.1,14.6c2.1,0.4,5.3-0.6,7.6-1.6c2.9-0.9,6.3-2.5,9.5-4.9
	c5.5-4.1,10.8-9.8,10.5-17.4c-0.2-3.5-1.1-7-2.4-10.3c6.9-2.9,16-4.5,27.3-3.1c24.5,2.9,29.4,18.2,28.4,24.6
	c-0.9,6.4-6.1,9.9-7.7,11c-1.7,1.1-2.2,1.4-2.1,2.2c0.2,1.2,1,1.1,2.5,0.9c2.1-0.3,12.9-5.3,13.3-17
	C389.6,272.1,375.3,255.6,349.7,255.8L349.7,255.8z M160.7,319.5c-8.1,8.9-19.5,12.3-24.3,9.4c-5.3-3-3.2-16.1,6.7-25.5
	c6.1-5.8,13.9-11,19.1-14.2c1.2-0.7,2.9-1.7,5-3c0.3-0.2,0.6-0.3,0.6-0.3c0.4-0.2,0.8-0.5,1.2-0.7
	C172.8,298.3,169.3,310.1,160.7,319.5L160.7,319.5z M219.9,279.2c-2.8,6.9-8.7,24.6-12.3,23.6c-3.1-0.8-4.9-14.2-0.6-27.5
	c2.2-6.7,6.9-14.6,9.6-17.7c4.4-4.9,9.3-6.6,10.5-4.6C228.6,255.8,221.7,274.9,219.9,279.2z M268.8,302.5c-1.2,0.6-2.3,1.1-2.8,0.7
	c-0.4-0.2,0.5-1.1,0.5-1.1s6.1-6.6,8.6-9.6c1.4-1.7,3-3.8,4.8-6.1v0.7C279.8,295.1,272.2,300.4,268.8,302.5L268.8,302.5z M306.4,294
	c-0.9-0.7-0.7-2.7,2.2-9.1c1.2-2.5,3.8-6.7,8.4-10.8c0.6,1.6,0.9,3.3,0.8,4.8C317.8,288.7,310.7,292.4,306.4,294z"/>
</svg>
