<?xml version="1.0" encoding="utf-8"?>
<!-- Generator: Adobe Illustrator 25.2.0, SVG Export Plug-In . SVG Version: 6.00 Build 0)  -->
<svg version="1.1" id="Layer_1" xmlns="http://www.w3.org/2000/svg" xmlns:xlink="http://www.w3.org/1999/xlink" x="0px" y="0px"
	 viewBox="0 0 394 356" style="enable-background:new 0 0 394 356;" xml:space="preserve">
<style type="text/css">
	.st0{fill-rule:evenodd;clip-rule:evenodd;fill:#8E75FF;}
	.st1{opacity:0.405;fill-rule:evenodd;clip-rule:evenodd;fill:#8E75FF;enable-background:new    ;}
</style>
<desc>Created with Sketch.</desc>
<g>
	<path class="st0" d="M227.4,209.3v-58.8c0-2.1-1.7-3.8-3.8-3.8h-58.7V86.1h119.3c2.1,0,3.8,1.7,3.8,3.8c0,0,0,0,0,0v119.4H227.4z"
		/>
	<path class="st1" d="M164.9,86.1v60.7h-56c-1,0-1.9-0.8-1.9-1.9c0-0.5,0.2-1,0.6-1.3L164.9,86.1z M227.4,265.4v-56.1H288
		l-57.3,57.4c-0.7,0.7-1.9,0.7-2.7,0C227.6,266.4,227.4,265.9,227.4,265.4L227.4,265.4z M164.9,146.8h60.6c1,0,1.9,0.8,1.9,1.9v60.7
		h-58.7c-2.1,0-3.8-1.7-3.8-3.8L164.9,146.8z"/>
</g>
</svg>
