<?xml version="1.0" encoding="utf-8"?>
<!-- Generator: Adobe Illustrator 25.2.0, SVG Export Plug-In . SVG Version: 6.00 Build 0)  -->
<svg version="1.1" id="Calque_1" xmlns="http://www.w3.org/2000/svg" xmlns:xlink="http://www.w3.org/1999/xlink" x="0px" y="0px"
	 viewBox="0 0 250 250" style="enable-background:new 0 0 250 250;" xml:space="preserve">
<style type="text/css">
	.st0{fill:#090D28;}
	.st1{fill:#FF3E00;}
	.st2{fill:#FFFFFF;}
</style>
<rect class="st0" width="250" height="250"/>
<g>
	<path class="st1" d="M180.5,68.7c-14.1-20.4-42.3-26.3-62.5-13.5L82.3,78c-9.7,6.1-16.5,16.1-18.4,27.4c-1.7,9.5-0.3,19.2,4.3,27.6
		c-3.1,4.7-5.2,9.9-6.1,15.3c-2.1,11.5,0.6,23.5,7.4,32.9c14.3,20.4,42.3,26.3,62.5,13.5l35.7-22.7c9.7-6.1,16.5-16.1,18.4-27.4
		c1.7-9.5,0.3-19.2-4.3-27.6c3.1-4.7,5.2-9.9,6.1-15.3C190.1,90.1,187.4,78.2,180.5,68.7"/>
	<path class="st2" d="M114.5,183.2c-11.5,3-23.6-1.6-30.4-11.3c-4.2-5.7-5.7-12.8-4.5-19.8c0.3-1.2,0.5-2.2,0.8-3.4l0.6-2.1l1.8,1.3
		c4.3,3.1,8.9,5.4,14,7l1.3,0.4l-0.1,1.3c-0.1,1.8,0.4,3.8,1.4,5.3c2.1,3,5.7,4.4,9.2,3.5c0.8-0.3,1.6-0.5,2.2-0.9l35.5-22.7
		c1.8-1.2,3-2.9,3.4-4.9c0.4-2.1-0.1-4.3-1.3-6c-2.1-3-5.7-4.3-9.2-3.4c-0.8,0.3-1.6,0.5-2.2,0.9l-13.6,8.7
		c-2.2,1.4-4.7,2.5-7.3,3.1c-11.5,3-23.6-1.6-30.4-11.3c-4-5.7-5.7-12.8-4.4-19.8c1.2-6.7,5.3-12.8,11.2-16.5L128.2,70
		c2.2-1.4,4.7-2.5,7.3-3.2c11.5-3,23.6,1.6,30.4,11.3c4.2,5.7,5.7,12.8,4.5,19.8c-0.3,1.2-0.5,2.2-0.9,3.4l-0.6,2.1L167,102
		c-4.3-3.1-8.9-5.4-14-7l-1.3-0.4l0.1-1.3c0.1-1.8-0.4-3.8-1.4-5.3c-2.1-3-5.7-4.3-9.2-3.4c-0.8,0.3-1.6,0.5-2.2,0.9l-35.5,22.7
		c-1.8,1.2-3,2.9-3.4,4.9s0.1,4.3,1.3,6c2.1,3,5.7,4.3,9.2,3.4c0.8-0.3,1.6-0.5,2.2-0.9l13.6-8.7c2.2-1.4,4.7-2.5,7.3-3.2
		c11.5-3,23.6,1.6,30.4,11.3c4.2,5.7,5.7,12.8,4.5,19.8c-1.2,6.7-5.3,12.8-11.2,16.5L121.7,180C119.5,181.4,117.1,182.5,114.5,183.2
		"/>
</g>
</svg>
