<?xml version="1.0" encoding="utf-8"?>
<!-- Generator: Adobe Illustrator 25.2.0, SVG Export Plug-In . SVG Version: 6.00 Build 0)  -->
<svg version="1.1" id="Calque_1" xmlns="http://www.w3.org/2000/svg" xmlns:xlink="http://www.w3.org/1999/xlink" x="0px" y="0px"
	 viewBox="0 0 250 250" style="enable-background:new 0 0 250 250;" xml:space="preserve">
<style type="text/css">
	.st0{fill:#F05138;}
	.st1{fill:#FFFFFF;}
</style>
<rect x="0" class="st0" width="250" height="250"/>
<g>
	<g>
		<path class="st0" d="M217.4,75.8c0-1.9,0-3.7-0.1-5.6c-0.1-4-0.3-8.1-1.1-12.1c-0.7-4.1-1.9-7.8-3.8-11.5
			c-1.8-3.6-4.3-6.9-7.1-9.8c-2.9-2.9-6.2-5.3-9.8-7.1c-3.7-1.9-7.5-3.1-11.5-3.8c-4-0.7-8.1-1-12.1-1.1c-1.9-0.1-3.7-0.1-5.6-0.1
			c-2.2,0-4.4,0-6.6,0h-48.9H90.4c-2.2,0-4.4,0-6.6,0c-1.9,0-3.7,0-5.6,0.1c-1,0-2,0.1-3,0.1c-3,0.1-6.1,0.4-9.1,1
			c-3,0.5-5.9,1.4-8.7,2.5c-0.9,0.4-1.9,0.8-2.8,1.3c-2.7,1.4-5.3,3.1-7.6,5.1c-0.8,0.7-1.5,1.4-2.2,2.1c-2.9,2.9-5.3,6.2-7.1,9.8
			c-1.9,3.7-3.1,7.5-3.8,11.5c-0.7,4-1,8.1-1.1,12.1c-0.1,1.9-0.1,3.7-0.1,5.6c0,2.2,0,4.4,0,6.6v30.1v39.1c0,2.2,0,4.4,0,6.6
			c0,1.9,0,3.7,0.1,5.6c0.1,4,0.3,8.1,1.1,12.1c0.7,4.1,1.9,7.9,3.8,11.5c1.8,3.6,4.3,6.9,7.1,9.8c2.9,2.9,6.2,5.3,9.8,7.1
			c3.7,1.9,7.5,3.1,11.5,3.8c4,0.7,8.1,1,12.1,1.1c1.9,0,3.7,0.1,5.6,0.1c2.2,0,4.4,0,6.6,0h69.2c2.2,0,4.4,0,6.6,0
			c1.9,0,3.7,0,5.6-0.1c4.1-0.1,8.1-0.3,12.1-1.1c4.1-0.7,7.8-1.9,11.5-3.8c3.6-1.8,6.9-4.3,9.8-7.1c2.9-2.9,5.3-6.2,7.1-9.8
			c1.9-3.7,3.1-7.5,3.8-11.5c0.7-4,1-8.1,1.1-12.1c0.1-1.9,0.1-3.7,0.1-5.6c0-2.2,0-4.4,0-6.6V82.5
			C217.4,80.3,217.4,78.1,217.4,75.8z"/>
		<path class="st1" d="M179,138.7C179,138.7,179,138.7,179,138.7c0.2-0.7,0.4-1.4,0.6-2.1c7.7-30.6-11-66.7-42.7-85.7
			c13.9,18.8,20,41.6,14.6,61.5c-0.5,1.8-1.1,3.5-1.7,5.1c-0.7-0.5-1.6-1-2.8-1.6c0,0-31.5-19.5-65.7-53.9
			c-0.9-0.9,18.2,27.3,39.9,50.2c-10.2-5.7-38.7-26.5-56.7-42.9c2.2,3.7,4.8,7.2,7.7,10.7c15.1,19.1,34.7,42.6,58.2,60.7
			c-16.5,10.1-39.9,10.9-63.1,0c-5.8-2.7-11.2-5.9-16.2-9.6c9.8,15.7,25,29.3,43.4,37.2c22,9.5,43.9,8.8,60.2,0.2l0,0
			c0.1,0,0.2-0.1,0.2-0.1c0.7-0.4,1.3-0.7,2-1.1c7.8-4.1,23.3-8.2,31.6,8C190.6,179.2,194.9,158.3,179,138.7z"/>
	</g>
</g>
</svg>
