<?xml version="1.0" encoding="utf-8"?>
<!-- Generator: Adobe Illustrator 25.2.0, SVG Export Plug-In . SVG Version: 6.00 Build 0)  -->
<svg version="1.1" id="Calque_1" xmlns="http://www.w3.org/2000/svg" xmlns:xlink="http://www.w3.org/1999/xlink" x="0px" y="0px"
	 viewBox="0 0 250 250" style="enable-background:new 0 0 250 250;" xml:space="preserve">
<style type="text/css">
	.st0{fill:#F05138;}
</style>
<g>
	<path class="st0" d="M179.6,136.6c7.7-30.6-11-66.7-42.7-85.7c13.9,18.8,20,41.6,14.6,61.5c-0.5,1.8-1.1,3.5-1.7,5.1
		c-0.7-0.5-1.6-1-2.8-1.6c0,0-31.5-19.5-65.7-53.9c-0.9-0.9,18.2,27.3,39.9,50.2c-10.2-5.7-38.7-26.5-56.7-42.9
		c2.2,3.7,4.8,7.2,7.7,10.7c15.1,19.1,34.7,42.6,58.2,60.7c-16.5,10.1-39.9,10.9-63.1,0c-5.8-2.7-11.2-5.9-16.2-9.6
		c9.8,15.7,25,29.3,43.4,37.2c22,9.5,43.9,8.8,60.2,0.2c0.1,0,0.2-0.1,0.2-0.1c0.7-0.4,1.3-0.7,2-1.1c7.8-4.1,23.3-8.2,31.6,8
		c2.1,3.9,6.4-17-9.5-36.6C179.2,138,179.4,137.3,179.6,136.6z"/>
</g>
</svg>
