<?xml version="1.0" encoding="utf-8"?>
<!-- Generator: Adobe Illustrator 25.2.0, SVG Export Plug-In . SVG Version: 6.00 Build 0)  -->
<svg version="1.1" id="Calque_1" xmlns="http://www.w3.org/2000/svg" xmlns:xlink="http://www.w3.org/1999/xlink" x="0px" y="0px"
	 viewBox="0 0 250 250" style="enable-background:new 0 0 250 250;" xml:space="preserve">
<style type="text/css">
	.st0{fill:#182228;}
	.st1{fill:url(#SVGID_1_);}
	.st2{fill:url(#SVGID_2_);}
</style>
<rect class="st0" width="250" height="250"/>
<g>
	
		<linearGradient id="SVGID_1_" gradientUnits="userSpaceOnUse" x1="94.5702" y1="144.8584" x2="165.6108" y2="241.3372" gradientTransform="matrix(1 0 0 1 0 -94)">
		<stop  offset="0" style="stop-color:#41D1FF"/>
		<stop  offset="1" style="stop-color:#BD34FE"/>
	</linearGradient>
	<path class="st1" d="M185.3,82.1l-57.1,102.1c-1.2,2.1-4.2,2.1-5.4,0L64.7,82.2c-1.3-2.3,0.7-5.1,3.2-4.6L125,87.9
		c0.4,0.1,0.8,0.1,1.1,0l55.9-10.2C184.7,77.1,186.6,79.9,185.3,82.1z"/>
	
		<linearGradient id="SVGID_2_" gradientUnits="userSpaceOnUse" x1="128.1157" y1="159.5037" x2="140.9666" y2="247.6595" gradientTransform="matrix(1 0 0 1 0 -94)">
		<stop  offset="0" style="stop-color:#FFEA83"/>
		<stop  offset="8.333330e-02" style="stop-color:#FFDD35"/>
		<stop  offset="1" style="stop-color:#FFA800"/>
	</linearGradient>
	<path class="st2" d="M152.3,64.2L110,72.5c-0.7,0.1-1.2,0.7-1.3,1.4l-2.6,43.9c0,1,0.9,1.8,1.9,1.6l11.8-2.7
		c1.1-0.3,2.1,0.7,1.9,1.8l-3.5,17.1c-0.3,1.1,0.8,2.1,2,1.8l7.3-2.2c1.1-0.3,2.2,0.6,2,1.8l-5.5,26.9c-0.3,1.7,1.9,2.6,2.8,1.2
		l0.6-1l34.4-68.7c0.6-1.1-0.4-2.5-1.7-2.2L148,95.5c-1.1,0.2-2.1-0.8-1.8-2l7.9-27.4C154.3,65,153.4,64,152.3,64.2z"/>
</g>
</svg>
