<?xml version="1.0" encoding="utf-8"?>
<!-- Generator: Adobe Illustrator 19.0.0, SVG Export Plug-In . SVG Version: 6.00 Build 0)  -->
<svg version="1.1" xmlns="http://www.w3.org/2000/svg" xmlns:xlink="http://www.w3.org/1999/xlink" x="0px" y="0px"
	 viewBox="0 0 848.6 726" style="enable-background:new 0 0 848.6 726;" xml:space="preserve">
<style type="text/css">
	.st0{display:none;}
	.st1{display:inline;fill:#F3EFEC;}
	.st2{fill:#5D4298;}
	.st3{opacity:7.000000e-002;fill:#2B2B2B;}
	.st4{fill:#9B6D5C;}
	.st5{opacity:0.1;fill:#1E1E1E;}
	.st6{fill:#96685A;}
	.st7{fill:#77564D;}
	.st8{fill:#4F3934;}
	.st9{fill:#FFFFFF;}
	.st10{fill:#BFBEBE;}
	.st11{opacity:0.2;fill:#D6B4B4;}
	.st12{fill:#CECCCC;}
	.st13{fill:#A0A0A0;}
	.st14{fill:#141313;}
	.st15{opacity:0.3;fill:#FFFFFF;}
	.st16{opacity:0.2;fill:#FFFFFF;}
	.st17{fill:#373737;}
	.st18{fill:#C7C9C9;}
	.st19{fill:#78C2C5;}
	.st20{fill:#FCED7E;}
	.st21{fill:#6DB5B5;}
	.st22{opacity:0.1;fill:#2B2B2B;}
	.st23{fill:#EC008C;}
	.st24{fill:#5D4495;}
	.st25{fill:#F9AC7F;}
	.st26{fill:#FBC39D;}
	.st27{fill:#FCCFB2;}
	.st28{fill:#463272;}
	.st29{fill:#E0E1E2;}
	.st30{fill:#9E9CCC;}
	.st31{fill:#32F98C;}
	.st32{fill:#8486C1;}
	.st33{fill:#EFC3AB;}
	.st34{fill:#9B4B10;}
	.st35{fill:#59E293;}
	.st36{fill:#1AD86C;}
	.st37{fill:#D7D5D5;}
	.st38{fill:#F9F9F9;}
	.st39{fill:none;stroke:#E2E0E1;stroke-width:2;stroke-miterlimit:10;}
	.st40{fill:#489AFF;}
	.st41{fill:#E3EAFF;}
	.st42{fill:#6DB8FF;}
	.st43{fill:#2F6DFF;}
	.st44{fill:#C8D6F2;}
	.st45{opacity:0.2;fill:#424261;}
	.st46{opacity:0.21;fill:#E3EAFF;}
	.st47{fill:#F9FBFC;}
	.st48{fill:#9570EE;}
	.st49{fill:#BB87EE;}
	.st50{fill:#7F57EE;}
	.st51{fill:#CED6FF;}
	.st52{fill:#F7D3A9;}
	.st53{fill:#544DB8;}
	.st54{fill:#FF8B40;}
	.st55{fill:#CDD4FF;}
	.st56{fill:#FFC240;}
	.st57{fill:#90C240;}
	.st58{fill:#EB4F24;}
	.st59{fill:#FD4940;}
	.st60{fill:#00CCFF;}
	.st61{fill:#FF56A9;}
	.st62{fill:#FFC359;}
	.st63{fill:#FF4DD1;}
	.st64{fill:#F79A74;}
	.st65{fill:#FF4F72;}
	.st66{fill:#FEC800;}
</style>
<g id="BACKGROUND" class="st0">
	<rect x="0.8" y="92.6" class="st1" width="500" height="500"/>
</g>
<g id="OBJECTS">
	<g>
		<path class="st2" d="M-2636.8,698.9l77.7-31.1c-6.9-84.7-90.5-184.5-224.1-184.5c-133.6,0-217.8,99.8-224.6,184.5l77,31.1v394.6
			h294V698.9z"/>
	</g>
	<g>
		<path class="st3" d="M-2930.8,1016.9v20.6c45,11.9,87-28.6,87-28.6l207,3v-31.5l-294,7.9V1016.9z"/>
		<path class="st4" d="M-2729.1,489.2c-7.5-1.8-11.9-2.4-21.2-3.7l-4.9-50.8l-53.9-2l-2.1,52.1c-11.1,1.1-17,2.1-25.9,4.2
			c-0.2,2.7,0,5,0.1,7.8c1.3,33.1,26.5,58.8,56.2,57.3c29.7-1.5,52.8-29.5,51.5-62.7C-2729.2,491-2729.1,489.7-2729.1,489.2z"/>
		<path class="st5" d="M-2754.2,444.1l2.3,23.8c-9.5,1.5-20.6,2.9-31.5,2.7c-9.5,0-18.7-1.1-27-2.3l1-25.5L-2754.2,444.1z"/>
	</g>
	<g>
		<path class="st6" d="M-2589.9,297.3c-0.1,23.3-19,42-42.2,41.9c-23.2-0.1-41.9-19-41.8-42.3c0.1-23.3,19-42,42.2-41.9
			C-2608.6,255.1-2589.8,274-2589.9,297.3z"/>
		<path class="st6" d="M-2900.6,303.8c-0.1,23.3-19,42-42.2,41.9c-23.2-0.1-41.9-19-41.8-42.3c0.1-23.3,19-42,42.2-41.9
			C-2919.2,261.7-2900.5,280.6-2900.6,303.8z"/>
		<path class="st4" d="M-2626.3,294.9c0.1,90.7-71.7,164.2-159.3,164.3l0,0c-87.6,0.1-159.4-73.4-159.5-164.1l1.9-44.7
			c-0.1-90.7,69.8-164.2,157.3-164.3l0,0c87.6-0.1,157.5,73.4,157.6,164.1L-2626.3,294.9z"/>
		<path class="st7" d="M-2785.6,459.2c-87.6,0.1-159.4-73.4-159.5-164.1l0-7.5c0-1.1,0.1-2.2,0-3.2l17.4,1.1c0,0,3.8,82.3,61.3,81
			c20.3-0.5,46.9-27.3,82.1-27.8c36.8-0.5,60.3,26.3,81.6,26.3c57.4-0.1,58.8-83.4,58.8-83.4l17.3-1.3c0,1.3,0.1,2.7,0.3,4.2l0,10.5
			C-2626.3,385.6-2698,459.2-2785.6,459.2z"/>
		<path class="st8" d="M-2944.1,220.3c3.2-50.1,43.9-136.6,155.5-141.7c111.1,3.8,157.1,87.5,160.8,137.6c1.2,16.1,1.3,64,1.3,64
			l-17.3,1.3c0,0,6.6-147.5-82.2-122c-19.7,5.7-43.6,11.4-61.6,11.7c-19.4,0-39.1-3.2-58.8-8.6c-89-24.6-81.1,122.8-81.1,122.8
			l-17.4-1.1C-2945.1,284.4-2945.2,236.5-2944.1,220.3z"/>
	</g>
	<g>
		<path class="st9" d="M-2710.6,374l-135.8-2.5c0,0,23,48.4,67,48.4C-2736,419.9-2712.6,383.7-2710.6,374z"/>
		<path d="M-2726,320.5c2.8,10,12.6,16,22.1,13.4c9.4-2.6,14.8-12.8,12.1-22.8c-2.8-10-12.6-16-22.1-13.4
			C-2723.4,300.4-2728.8,310.6-2726,320.5z"/>
		<path d="M-2872.1,320.5c2.8,10,12.6,16,22.1,13.4c9.4-2.6,14.8-12.8,12.1-22.8c-2.8-10-12.6-16-22.1-13.4
			C-2869.4,300.4-2874.9,310.6-2872.1,320.5z"/>
	</g>
	<g>
		<path class="st10" d="M-3106.7,996.2h642c11.6,0,21.8-6.3,27.2-15.7H-3134C-3128.5,989.8-3118.4,996.2-3106.7,996.2z"/>
		<path class="st11" d="M-3138.2,964.7c0,5.7,1.6,11.1,4.2,15.7h696.5c2.7-4.6,4.2-10,4.2-15.7H-3138.2z"/>
	</g>
	<g>
		<path class="st12" d="M-2736.7,964.7c-2.4,3.5-6.5,5.9-11.1,5.9h-75.9c-4.6,0-8.7-2.3-11.1-5.9h-303.4c0,5.7,1.6,11.1,4.2,15.7
			h696.5c2.7-4.6,4.2-10,4.2-15.7H-2736.7z"/>
		<path class="st13" d="M-2823.7,970.6h75.9c4.6,0,8.7-2.3,11.1-5.9h-98.1C-2832.4,968.2-2828.3,970.6-2823.7,970.6z"/>
	</g>
	<path class="st14" d="M-2490,951.7c0,7.2-5.8,13-13,13h-565.5c-7.2,0-13-5.8-13-13V583.8c0-7.2,5.8-13,13-13h565.5
		c7.2,0,13,5.8,13,13V951.7z"/>
	<g>
		<polygon class="st15" points="-2915,570.8 -2701.9,964.7 -2592.5,964.7 -2874.3,570.8 		"/>
		<path class="st16" d="M-2490,951.7V831.9l-139.2-261h-209l279.7,393.9h55.5C-2495.8,964.7-2490,958.9-2490,951.7z"/>
	</g>
	<g>
		<circle cx="-2785.7" cy="584.9" r="4.2"/>
		<circle class="st16" cx="-2785.7" cy="584.9" r="1"/>
	</g>
	<rect x="-3047.9" y="601.3" class="st17" width="523.3" height="333.3"/>
	<g>
		<rect x="-3047.9" y="601" class="st18" width="523.3" height="24.8"/>
		<g>
			<circle class="st2" cx="-3033.6" cy="613.5" r="6.1"/>
			<circle class="st19" cx="-3013.9" cy="613.5" r="6.1"/>
			<circle class="st20" cx="-2994.2" cy="613.5" r="6.1"/>
		</g>
	</g>
	<g>
		<path class="st9" d="M-2937.5,651.7c0,4.1-3.3,7.4-7.4,7.4h-41.1c-4.1,0-7.4-3.3-7.4-7.4l0,0c0-4.1,3.3-7.4,7.4-7.4h41.1
			C-2940.8,644.3-2937.5,647.7-2937.5,651.7L-2937.5,651.7z"/>
		<path class="st21" d="M-2914.7,671.8c0,4.1-3.3,7.4-7.4,7.4h-41.1c-4.1,0-7.4-3.3-7.4-7.4l0,0c0-4.1,3.3-7.4,7.4-7.4h41.1
			C-2918.1,664.4-2914.7,667.7-2914.7,671.8L-2914.7,671.8z"/>
		<path class="st9" d="M-2776.9,691.9c0,4.1-3.3,7.4-7.4,7.4h-146.2c-4.1,0-7.4-3.3-7.4-7.4l0,0c0-4.1,3.3-7.4,7.4-7.4h146.2
			C-2780.2,684.5-2776.9,687.8-2776.9,691.9L-2776.9,691.9z"/>
		<path class="st2" d="M-2700.5,711.9c0,4.1-3.3,7.4-7.4,7.4h-222.6c-4.1,0-7.4-3.3-7.4-7.4l0,0c0-4.1,3.3-7.4,7.4-7.4h222.6
			C-2703.8,704.5-2700.5,707.8-2700.5,711.9L-2700.5,711.9z"/>
		<path class="st18" d="M-2643.2,732c0,4.1-3.3,7.4-7.4,7.4h-279.9c-4.1,0-7.4-3.3-7.4-7.4l0,0c0-4.1,3.3-7.4,7.4-7.4h279.9
			C-2646.5,724.6-2643.2,727.9-2643.2,732L-2643.2,732z"/>
		<path class="st21" d="M-2867,752.1c0,4.1-3.3,7.4-7.4,7.4h-88.8c-4.1,0-7.4-3.3-7.4-7.4l0,0c0-4.1,3.3-7.4,7.4-7.4h88.8
			C-2870.3,744.6-2867,748-2867,752.1L-2867,752.1z"/>
		<g>
			<path class="st18" d="M-2882,772.1c0,4.1-3.3,7.4-7.4,7.4h-41.1c-4.1,0-7.4-3.3-7.4-7.4l0,0c0-4.1,3.3-7.4,7.4-7.4h41.1
				C-2885.3,764.7-2882,768-2882,772.1L-2882,772.1z"/>
			<path class="st9" d="M-2822.1,772.1c0,4.1-3.3,7.4-7.4,7.4h-41.1c-4.1,0-7.4-3.3-7.4-7.4l0,0c0-4.1,3.3-7.4,7.4-7.4h41.1
				C-2825.4,764.7-2822.1,768-2822.1,772.1L-2822.1,772.1z"/>
		</g>
		<path class="st2" d="M-2843.8,792.2c0,4.1-3.3,7.4-7.4,7.4h-79.3c-4.1,0-7.4-3.3-7.4-7.4l0,0c0-4.1,3.3-7.4,7.4-7.4h79.3
			C-2847.1,784.8-2843.8,788.1-2843.8,792.2L-2843.8,792.2z"/>
		<path class="st9" d="M-2805.6,812.2c0,4.1-3.3,7.4-7.4,7.4h-117.5c-4.1,0-7.4-3.3-7.4-7.4l0,0c0-4.1,3.3-7.4,7.4-7.4h117.5
			C-2808.9,804.8-2805.6,808.1-2805.6,812.2L-2805.6,812.2z"/>
		<path class="st18" d="M-2882,832.3c0,4.1-3.3,7.4-7.4,7.4h-41.1c-4.1,0-7.4-3.3-7.4-7.4l0,0c0-4.1,3.3-7.4,7.4-7.4h41.1
			C-2885.3,824.9-2882,828.2-2882,832.3L-2882,832.3z"/>
		<g>
			<path class="st21" d="M-2882,852.4c0,4.1-3.3,7.4-7.4,7.4h-41.1c-4.1,0-7.4-3.3-7.4-7.4l0,0c0-4.1,3.3-7.4,7.4-7.4h41.1
				C-2885.3,845-2882,848.3-2882,852.4L-2882,852.4z"/>
			<path class="st2" d="M-2693.1,852.4c0,4.1-3.3,7.4-7.4,7.4h-170c-4.1,0-7.4-3.3-7.4-7.4l0,0c0-4.1,3.3-7.4,7.4-7.4h170
				C-2696.4,845-2693.1,848.3-2693.1,852.4L-2693.1,852.4z"/>
			<path class="st9" d="M-2623.8,852.4c0,4.1-3.3,7.4-7.4,7.4h-50.6c-4.1,0-7.4-3.3-7.4-7.4l0,0c0-4.1,3.3-7.4,7.4-7.4h50.6
				C-2627.1,845-2623.8,848.3-2623.8,852.4L-2623.8,852.4z"/>
		</g>
		<path class="st18" d="M-2914.7,872.4c0,4.1-3.3,7.4-7.4,7.4h-41.1c-4.1,0-7.4-3.3-7.4-7.4l0,0c0-4.1,3.3-7.4,7.4-7.4h41.1
			C-2918.1,865-2914.7,868.3-2914.7,872.4L-2914.7,872.4z"/>
		<path class="st2" d="M-2882,892.5c0,4.1-3.3,7.4-7.4,7.4h-41.1c-4.1,0-7.4-3.3-7.4-7.4l0,0c0-4.1,3.3-7.4,7.4-7.4h41.1
			C-2885.3,885.1-2882,888.4-2882,892.5L-2882,892.5z"/>
		<path class="st18" d="M-2776.9,912.5c0,4.1-3.3,7.4-7.4,7.4h-146.2c-4.1,0-7.4-3.3-7.4-7.4l0,0c0-4.1,3.3-7.4,7.4-7.4h146.2
			C-2780.2,905.1-2776.9,908.5-2776.9,912.5L-2776.9,912.5z"/>
	</g>
	<polygon class="st4" points="-2445,821.9 -2490,862 -2490,817.9 	"/>
	<polygon class="st22" points="-2490,824.8 -2459.5,834.9 -2447.1,823 -2480.2,816.5 	"/>
	<path class="st4" d="M-2508.2,745.9c-13,1.5-57.8,4.9-57.8,4.9c-7.4,0.9-13.2,7.7-12.3,15c0.9,7.1,7.2,12.3,14.3,11.8
		c0.2,0,38-2.7,38.2-2.7c-7.4,0.9-12.6,7.6-11.7,14.9c0.9,7.3,7.6,12.6,14.9,11.7c-7.4,0.9-12.4,7.5-11.6,14.9
		c0.9,7.4,7.7,12.6,15.1,11.7l6.7-0.8c1-0.1,11.4-1.2,24.8-2.7c14.4-0.6,26.3-1,33.7-0.3c0,0-0.1,0-0.1,0c29,1.5,28.8-71.3,2.1-78.2
		C-2467.5,741.8-2488.7,742.9-2508.2,745.9z"/>
	<path class="st4" d="M-2980.5,953.5c1.1-13.7,1.7-21.3,1.7-21.3c0.7-7.7,7.6-14.1,15.4-13.4c7.7,0.7,13.5,7.6,12.8,15.3
		c0.7-7.7,7.5-13.4,15.3-12.8c7.7,0.7,13.5,7.5,12.8,15.3c0.7-7.7,7.5-13.3,15.2-12.6c7.7,0.7,13.4,7.7,12.7,15.4l-0.6,7
		c-0.1,1.1-0.9,12-2,26.1c-0.2,15.2,0.8,20.3,0.8,20.3c2.5,30.4-73.8,32.5-82,4.7C-2983.5,981.4-2982.9,974.1-2980.5,953.5z"/>
	<g>
		<g>
			<g>
				<path id="Hair" class="st23" d="M-641.8,194.3c-3.3-18.6-16.5-37.3-46.7-39.5v-0.1c0,0-0.5,0-0.8,0c-1,0-2.1,0-3.1,0
					c-1,0-1.9,0-2.9,0c-0.3,0-0.5,0-0.5,0v0.1c-33.9,2.3-45.9,18.3-48.6,39.3c-3,23.6-3.2,114.6-3,124.7
					c3.1,15.8,10.3,17.7,20.1,27.5c9.7,9.7,22,15.5,35.4,15.5c13,0,22.1-18.7,31.7-28c9.2-8.9,19.2-7.9,22.8-22.2
					C-637.2,298.8-637.3,219.7-641.8,194.3z"/>
				<path class="st24" d="M-622.9,341l-130.5-2.2v-13.9c0-22.7,27.9-43.8,55.2-43.8h20.6c24.3,0,54.6,21.3,54.6,41.4V341z"/>
				<g>
					<path class="st25" d="M-702.4,271.9c0,0,1,7.4,12.5,7.4s12.5-7.4,12.5-7.4H-702.4z"/>
					<path class="st26" d="M-682.7,255.5h-14.4c-2.9,0-5.3,2.4-5.3,5.3v22.6c0,6.9,5.6,12.5,12.5,12.5c6.9,0,12.5-5.6,12.5-12.5
						v-22.6C-677.4,257.9-679.8,255.5-682.7,255.5z"/>
				</g>
				<g>
					<g id="Girl_2_">
						<g id="Head_3_">
							<g>
								<path class="st27" d="M-645.7,223.6c0.4,25.1-19.6,45.8-44.8,46.3l0,0c-25.1,0.4-45.8-19.6-46.3-44.8l-0.3-17
									c-0.4-25.1,19.6-45.8,44.8-46.3l0,0c25.1-0.4,45.8,19.6,46.3,44.8L-645.7,223.6z"/>
								
									<ellipse transform="matrix(0.9999 -1.645154e-002 1.645154e-002 0.9999 -3.7902 -12.1143)" class="st27" cx="-738.2" cy="224.3" rx="12.2" ry="12.2"/>
							</g>
						</g>
						<g>
							<path class="st28" d="M-782.8,187.6c0,3.5,2.3,6.4,5.2,6.4l43.1,0.1c2.9,0,5.2-2.8,5.2-6.4l0,0c0-3.5-2.3-6.4-5.2-6.4
								l-43.1-0.1C-780.5,181.2-782.8,184-782.8,187.6L-782.8,187.6z"/>
							<path class="st2" d="M-642,194.2c0.1-25.1-20.3-45.4-45.4-45.5l-12,0c-25.1-0.1-45.1,20.2-45.2,45.3L-642,194.2z"/>
							<path class="st27" d="M-695.9,187l26.9-0.1l0,0c0.1-6.8-5.1-12.2-11.6-12.2l-3.2,0C-690.4,174.7-695.8,180.2-695.9,187
								L-695.9,187z"/>
						</g>
						<path class="st23" d="M-719,193.8c0,0-9.2,35.8-12.2,74.8l-7.1-1.1c0,0-3.3-48.8,1.3-73.7H-719z"/>
					</g>
					<g>
						<g>
							<ellipse transform="matrix(-0.9641 0.2657 -0.2657 -0.9641 -1249.3445 626.3477)" cx="-667" cy="228.7" rx="5.2" ry="5.4"/>
							<ellipse transform="matrix(-0.964 0.2657 -0.2657 -0.964 -1332.728 637.6489)" cx="-709.5" cy="228.7" rx="5.2" ry="5.4"/>
						</g>
						<path class="st9" d="M-703.4,244.7l30.9-1.2c0,0-4.4,9.7-12.1,11.1C-695,256.4-702.9,247.1-703.4,244.7z"/>
					</g>
				</g>
			</g>
			<path class="st29" d="M-611.6,411.6H-768c-5,0-9.1-4.1-9.1-9.1v-89.8c0-5,4.1-9.1,9.1-9.1h156.5c5,0,9.1,4.1,9.1,9.1v89.8
				C-602.5,407.6-606.6,411.6-611.6,411.6z"/>
			<path class="st9" d="M-691.9,369.8c-6.7,0-12.2-5.5-12.2-12.2s5.5-12.2,12.2-12.2c6.7,0,12.2,5.5,12.2,12.2
				S-685.2,369.8-691.9,369.8z"/>
			<path class="st24" d="M-410.9,341l-130.5-2.2v-13.9c0-22.7,27.9-43.8,55.2-43.8h20.6c24.3,0,54.6,21.3,54.6,41.4V341z"/>
			<path class="st26" d="M-470.7,255.5h-14.4c-2.9,0-5.3,2.4-5.3,5.3v22.6c0,6.9,5.6,12.5,12.5,12.5c6.9,0,12.5-5.6,12.5-12.5v-22.6
				C-465.4,257.9-467.8,255.5-470.7,255.5z"/>
			<path class="st25" d="M-490.4,271.9c0,0,1,7.4,12.5,7.4c11.5,0,12.5-7.4,12.5-7.4H-490.4z"/>
			<path class="st29" d="M-399.6,411.6H-556c-5,0-9.1-4.1-9.1-9.1v-89.8c0-5,4.1-9.1,9.1-9.1h156.5c5,0,9.1,4.1,9.1,9.1v89.8
				C-390.5,407.6-394.6,411.6-399.6,411.6z"/>
			<path class="st9" d="M-479.9,369.8c-6.7,0-12.2-5.5-12.2-12.2s5.5-12.2,12.2-12.2c6.7,0,12.2,5.5,12.2,12.2
				S-473.2,369.8-479.9,369.8z"/>
			<g>
				<path class="st30" d="M-430.8,213.9c0,24.8-22.1,44.8-49.4,44.8c-27.3,0-49.4-20.1-49.4-44.8c0-24.5,21.4-46.3,48.6-44.8
					c0.3,0,0.6,0,0.9,0c0.2,0,0.5,0,0.7,0C-452.5,167.7-430.8,189.4-430.8,213.9z"/>
				<path class="st31" d="M-520.6,245.5c0,0-9.1,12.7,0.9,32.1c-1.1-10.7-4.1-19.4,4.3-32.1C-507.1,232.8-519.1,241.2-520.6,245.5z"
					/>
				<g>
					<g id="Girl_1_">
						<g id="Head_1_">
							<g>
								<path class="st26" d="M-438.5,233.9c0.4,22.3-17.4,40.7-39.8,41.1l0,0c-22.3,0.4-40.7-17.4-41.1-39.8l-0.2-15.1
									c-0.4-22.3,17.4-40.7,39.8-41.1l0,0c22.3-0.4,40.7,17.4,41.1,39.8L-438.5,233.9z"/>
								
									<ellipse transform="matrix(0.9999 -1.644085e-002 1.644085e-002 0.9999 -3.9271 -8.5297)" class="st26" cx="-520.7" cy="234.6" rx="10.9" ry="10.9"/>
							</g>
						</g>
					</g>
					<g>
						<path class="st9" d="M-458.4,249.6l-35.1-0.7c0,0,6,12.5,17.3,12.5C-465,261.5-458.9,252.2-458.4,249.6z"/>
						<ellipse transform="matrix(-0.9641 0.2657 -0.2657 -0.9641 -837.1447 582.496)" cx="-458" cy="234.6" rx="4.6" ry="4.8"/>
						<ellipse transform="matrix(-0.964 0.2657 -0.2657 -0.964 -911.2443 592.5417)" cx="-495.7" cy="234.6" rx="4.6" ry="4.8"/>
					</g>
				</g>
				<g>
					<path class="st30" d="M-510.7,162.2c5.8,6,5.6,15.6-0.4,21.4l-13.2,12.8c-6,5.8-15.6,5.6-21.4-0.4l0,0
						c-5.8-6-5.6-15.6,0.4-21.4c3.3-3.2,9.9-9.6,13.2-12.8C-526.1,156-516.5,156.1-510.7,162.2L-510.7,162.2z"/>
					<path class="st30" d="M-448.9,162c5.9-6,15.5-6,21.4-0.1c3.3,3.2,9.8,9.7,13.1,12.9c6,5.9,6,15.5,0.1,21.4l0,0
						c-5.9,6-15.5,6-21.4,0.1l-13.1-12.9C-454.8,177.5-454.8,167.9-448.9,162L-448.9,162z"/>
					<path class="st31" d="M-442.8,221.2c0,0,8.6,32.8,0,59.9C-435.9,273.8-429.6,241.4-442.8,221.2z"/>
					<path class="st30" d="M-477.6,191.7l-43.1,45.5c0,0-0.5-5.4-0.7-12.7c-0.3-13.8,0.4-34.3,7.8-38.4
						c11.2-6.3,35.6-13.2,35.6-13.2s29.3,7,35.2,21.2c6,14.2,6,39.7,6,39.7S-462.9,200.6-477.6,191.7z"/>
					<path class="st23" d="M-430,160c0,0-19.3,9.1-16.8,25.8l9.1,9C-437.7,194.7-440.9,167-430,160z"/>
					<path class="st32" d="M-422.2,167.1l8.9,8.9c0,0,0.3,17.4-18.1,23C-425.7,194.1-418,181.7-422.2,167.1z"/>
					<path class="st32" d="M-509,181.1c0,0,0.4-16.3-22.6-19.8l-7.6,7.3C-539.2,168.6-514.1,167.4-509,181.1z"/>
					<path class="st31" d="M-514.9,187l-11.6,11.1c0,0-21.2-5.6-20.1-22.2C-542.1,182.4-529.7,189.6-514.9,187z"/>
					<path class="st32" d="M-478.1,175c0,0,16.2-1.6,26.9,5.4c-6.9-0.1-25.7,4.5-25.7,4.5S-477.2,178.7-478.1,175z"/>
					<path class="st31" d="M-474.3,189.4c0,0,32.9,7.7,42.8,31.9c-1.1,6-2.5,8.5-2.5,8.5S-451.9,197.3-474.3,189.4z"/>
					<path class="st23" d="M-480.2,184.9c0,0-39.5,9.7-41.2,38.1L-480.2,184.9z"/>
					<path class="st32" d="M-481.1,170.5c0,0,1.9,3.6,1.9,9.4l-31.9,3.7C-511.1,183.6-500.7,173-481.1,170.5z"/>
					<path class="st30" d="M-480.2,169.1c0,0,4.8-8.4,18.5-3.9c-5.8,0.1-10.5,2.4-11.5,4.6C-474.3,171.9-478.9,170.7-480.2,169.1z"
						/>
					<path class="st30" d="M-480.2,169.1c0,0-6.4-6-14.9-2.9c4.9,0.4,9.2,3.7,9.3,4.3C-486.6,169.8-480.2,169.1-480.2,169.1z"/>
				</g>
			</g>
			<path class="st24" d="M-198.9,341l-130.5-2.2v-13.9c0-22.7,27.9-43.8,55.2-43.8h20.6c24.3,0,54.6,21.3,54.6,41.4V341z"/>
			<path class="st26" d="M-258.7,255.5h-14.4c-2.9,0-5.3,2.4-5.3,5.3v22.6c0,6.9,5.6,12.5,12.5,12.5c6.9,0,12.5-5.6,12.5-12.5v-22.6
				C-253.4,257.9-255.8,255.5-258.7,255.5z"/>
			<path class="st25" d="M-278.4,271.9c0,0,1,7.4,12.5,7.4c11.5,0,12.5-7.4,12.5-7.4H-278.4z"/>
			<path class="st29" d="M-187.6,411.6H-344c-5,0-9.1-4.1-9.1-9.1v-89.8c0-5,4.1-9.1,9.1-9.1h156.5c5,0,9.1,4.1,9.1,9.1v89.8
				C-178.5,407.6-182.6,411.6-187.6,411.6z"/>
			<path class="st9" d="M-267.9,369.8c-6.7,0-12.2-5.5-12.2-12.2s5.5-12.2,12.2-12.2c6.7,0,12.2,5.5,12.2,12.2
				S-261.2,369.8-267.9,369.8z"/>
			<g>
				<g id="Nerd_1_">
					<g id="Head_8_">
						<g id="teen_1_">
							<g>
								
									<ellipse transform="matrix(-0.9991 4.257907e-002 -4.257907e-002 -0.9991 -614.8356 467.894)" class="st33" cx="-312.4" cy="227.4" rx="12.5" ry="12.6"/>
								<path class="st27" d="M-313.1,230.7c1.1,25.8,22.9,45.8,48.7,44.7l0,0c25.8-1.1,45.8-22.9,44.7-48.7l-0.7-17.4
									c-0.4-10.4,0.1-25.1-6-32.6c-9-11.1-27.3-12.8-42.7-12.1l0,0c-25.8,1.1-45.8,22.9-44.7,48.7L-313.1,230.7z"/>
								
									<ellipse transform="matrix(-0.9991 4.255083e-002 -4.255083e-002 -0.9991 -428.5815 459.714)" class="st27" cx="-219.2" cy="225.3" rx="12.5" ry="12.6"/>
								<path class="st17" d="M-223.6,219.9c0,0,1.4-0.9,2.5-2c0,0,6-14.4,3.2-24.5c-1-4.5-4-10.2-7.8-15.8l-11.7,10.5
									C-232.6,194.9-226,203.5-223.6,219.9z"/>
								<path class="st17" d="M-300.7,184.2l-9.2-3.5c0,0-8.9,12.6-4.6,34.4l1.1,0.4C-313.4,215.5-312.9,193.7-300.7,184.2z"/>
								<path class="st17" d="M-226,177.2l-11.8,10.5c0,0-46,4.6-67.1-3.9c-10.2-4.1-12.9-6.4-15.5-29.5
									C-306.3,175.5-225.7,120.3-226,177.2z"/>
							</g>
						</g>
						<g>
							
								<ellipse transform="matrix(0.9881 0.1538 -0.1538 0.9881 33.5378 45.2724)" class="st34" cx="-275.9" cy="239.4" rx="1.1" ry="1.1"/>
							<path class="st34" d="M-269.3,236.4c-0.1,0.4-0.5,0.7-0.9,0.6c-0.4-0.1-0.7-0.5-0.7-0.9c0.1-0.4,0.5-0.7,0.9-0.6
								C-269.6,235.6-269.3,236-269.3,236.4z"/>
							
								<ellipse transform="matrix(0.988 0.1543 -0.1543 0.988 33.9829 43.9683)" class="st34" cx="-266.3" cy="240.9" rx="1.1" ry="1.1"/>
							
								<ellipse transform="matrix(0.9881 0.1538 -0.1538 0.9881 33.1846 43.3327)" class="st34" cx="-263.4" cy="236.1" rx="1" ry="0.9"/>
							
								<ellipse transform="matrix(0.988 0.1542 -0.1542 0.988 33.8968 42.7852)" class="st34" cx="-258.9" cy="239.9" rx="1.1" ry="1.1"/>
							
								<ellipse transform="matrix(0.9881 0.1539 -0.1539 0.9881 34.3293 41.8927)" class="st34" cx="-253.4" cy="242.7" rx="0.9" ry="0.9"/>
							
								<ellipse transform="matrix(0.988 0.1542 -0.1542 0.988 34.0306 46.3356)" class="st34" cx="-281.8" cy="242.6" rx="1" ry="0.9"/>
							
								<ellipse transform="matrix(0.9881 0.154 -0.154 0.9881 33.2216 46.1114)" class="st34" cx="-280.9" cy="237.4" rx="1" ry="0.9"/>
							
								<ellipse transform="matrix(0.988 0.1547 -0.1547 0.988 33.9206 47.4425)" class="st34" cx="-287.8" cy="241.6" rx="1" ry="0.9"/>
						</g>
					</g>
					<path d="M-316.8,223.5l0,0.2l0,0.2c0.1,0.4,2.3,11.5,3.5,14.6c1,2.5,3.9,7.2,7.8,7.2l20.7-0.1c7.2,0,9.5-17.7,9.9-21.4
						c0.6-1.4,1.9-2.3,3.4-2.3c1.6,0,3,1,3.7,2.5c0.8,4.1,4.6,21.1,11.7,21.1l20.7-0.1c3.9,0,6.4-4.7,7.2-7.2
						c1-3.1,2.2-14.2,2.2-14.6l0-0.2l0-0.2c-0.2-4.3-3.4-7.9-7.3-7.9l-27.8,0h-0.2l-20.8,0.2l-28,0.1
						C-314,215.6-317,219.2-316.8,223.5z M-264.4,222.7c0.8-1.1,2.1-1.8,3.4-1.8l27,0c2.3,0,3.1,2,3.3,4.5
						c-0.2,1.3-0.8,9.3-1.6,11.9c-0.7,2.2-1.4,5.2-4.3,5l-19.7,0c-4.1,0-7.6-11.4-8.7-17C-265.2,224.1-264.8,223.2-264.4,222.7z
						 M-312.5,225.6c0-2.5,1.1-4.6,3.4-4.6l27,0c1.3,0,2.7,0.7,3.6,1.8c0.4,0.6,1,1.5,0.8,2.6c-0.6,5.7-3,17-7.1,17l-19.7,0
						c-3.2-0.1-4.2-3.4-5-5.6C-310.6,234.1-312.3,226.9-312.5,225.6z"/>
				</g>
				<g>
					<path class="st9" d="M-255.8,250.5l-31.5-1.3c0,0,4.5,9.9,12.4,11.3C-264.4,262.5-256.4,253-255.8,250.5z"/>
				</g>
				<path d="M-241,234.2c0,1.4-1.1,2.5-2.5,2.5h-11.5c-1.4,0-2.5-1.1-2.5-2.5l0,0c0-1.4,1.1-2.5,2.5-2.5h11.5
					C-242.1,231.6-241,232.8-241,234.2L-241,234.2z"/>
				<path d="M-286,234.2c0,1.4-1.1,2.5-2.5,2.5h-11.5c-1.4,0-2.5-1.1-2.5-2.5l0,0c0-1.4,1.1-2.5,2.5-2.5h11.5
					C-287.1,231.6-286,232.8-286,234.2L-286,234.2z"/>
			</g>
		</g>
		<path id="XMLID_1703_" class="st35" d="M-883.4,300.1c0,0,23.1,2.6,34.5,18.3c11.4,15.7,7.1,38.4,7.1,38.4s-23.1-2.6-34.5-18.3
			C-887.9,322.8-883.4,300.1-883.4,300.1z"/>
		<path id="XMLID_1702_" class="st36" d="M-800,319.5c0,0,0.6,17.7-9.9,28c-10.5,10.4-28.2,9.5-28.2,9.5s-0.6-17.7,9.9-28
			C-817.7,318.7-800,319.5-800,319.5z"/>
		<path id="XMLID_1701_" class="st31" d="M-833.6,288.3c0,0,15.2,17.4,13.1,36.8c-2.1,19.2-20.7,33-20.7,33s-15.2-17.4-13.1-36.8
			C-852.1,301.9-833.6,288.3-833.6,288.3z"/>
		<polygon id="XMLID_1700_" class="st37" points="-866,353 -799.7,353 -812.9,411.3 -852.9,411.3 		"/>
		<polygon id="XMLID_1699_" class="st38" points="-880.9,353 -822,353 -827.9,411.3 -867.9,411.3 		"/>
	</g>
	<line class="st39" x1="-897" y1="412" x2="-134" y2="412"/>
	<g>
		<path class="st40" d="M667.3,519.2c28.3-17.3,37.2-54.3,19.9-82.6c-3.9-6.3-8.7-11.6-14.2-15.9c7.2-10.1,15.4-19.9,24.7-29.3
			c4.3-4.3,8.7-8.4,13.1-12.3c1.8,1.5,3.5,3,5.2,4.7l14.8-9c7.5-4.6,17.4-2.2,22,5.3l14.6,23.9c4.6,7.5,2.2,17.4-5.3,22l-14.8,9
			c3.3,11.2,4.9,22.7,4.7,34.1l16.7,4.7c8.5,2.4,13.5,11.2,11.1,19.7l-7.5,27c-2.4,8.5-11.2,13.5-19.7,11.1l-16.7-4.6
			c-4.4,7.5-9.7,14.5-15.9,21l9,14.8c4.6,7.5,2.2,17.4-5.3,22l-23.9,14.6c-7.5,4.6-17.4,2.2-22-5.3l-9-14.8
			c-8.6,2.6-17.4,4-26.2,4.5c-5-18-7.3-36.9-6.6-55.9C646.7,528,657.5,525.2,667.3,519.2z"/>
		<g>
			<g>
				<path class="st41" d="M643.9,588.9H91.4c-3.8,0-6.9-3.1-6.9-6.9V193.5c0-3.8,3.1-6.9,6.9-6.9h552.5c3.8,0,6.9,3.1,6.9,6.9V582
					C650.8,585.8,647.7,588.9,643.9,588.9z"/>
				<path class="st42" d="M637.9,583.7H97.4c-3,0-5.5-2.5-5.5-5.5V197.3c0-3,2.5-5.5,5.5-5.5h540.5c3,0,5.5,2.5,5.5,5.5v380.8
					C643.4,581.2,640.9,583.7,637.9,583.7z"/>
				<path class="st43" d="M616.1,549.1h-497c-1.9,0-3.4-1.5-3.4-3.4v-332c0-1.9,1.5-3.4,3.4-3.4h497c1.9,0,3.4,1.5,3.4,3.4v332
					C619.5,547.6,618,549.1,616.1,549.1z"/>
				<path class="st41" d="M70.7,568.1c-1.6,3-2.6,6.4-2.6,10.1c0,11.7,9.5,21.2,21.2,21.2H646c11.7,0,21.2-9.5,21.2-21.2
					c0-3.7-1-7.1-2.6-10.1H70.7z"/>
			</g>
			<path class="st44" d="M70.7,588.2c3.6,6.6,10.5,11.2,18.6,11.2H646c8.1,0,15-4.6,18.6-11.2H70.7z"/>
		</g>
		<path class="st45" d="M625.5,186.5H247.6v252.6c0,5.6,4.5,10.1,10.1,10.1h393.2V211.9C650.8,197.9,639.5,186.5,625.5,186.5z"/>
		<path class="st46" d="M701.1,437.8H264.2c-1.5,0-2.8-1.2-2.8-2.8V160c0-1.5,1.2-2.8,2.8-2.8h436.9c1.5,0,2.8,1.2,2.8,2.8v275.1
			C703.9,436.6,702.6,437.8,701.1,437.8z"/>
		<path class="st47" d="M718.8,418.9H281.9c-1.5,0-2.8-1.2-2.8-2.8V141c0-1.5,1.2-2.8,2.8-2.8h436.9c1.5,0,2.8,1.2,2.8,2.8v275.1
			C721.6,417.6,720.3,418.9,718.8,418.9z"/>
		<path class="st45" d="M202.1,329.8H148c-1,0-1.7-0.8-1.7-1.7v-56.6c0-1,0.8-1.7,1.7-1.7h54.1c1,0,1.7,0.8,1.7,1.7V328
			C203.8,329,203,329.8,202.1,329.8z"/>
		<path class="st42" d="M198.7,417h-54.1c-1,0-1.7-0.8-1.7-1.7v-56.6c0-1,0.8-1.7,1.7-1.7h54.1c1,0,1.7,0.8,1.7,1.7v56.6
			C200.5,416.2,199.7,417,198.7,417z"/>
		<path class="st42" d="M198.7,502.3h-54.1c-1,0-1.7-0.8-1.7-1.7V444c0-1,0.8-1.7,1.7-1.7h54.1c1,0,1.7,0.8,1.7,1.7v56.6
			C200.5,501.5,199.7,502.3,198.7,502.3z"/>
		<g>
			<path class="st48" d="M184.3,465.7c0-7.6-6.1-13.7-13.7-13.7c-7.6,0-13.7,6.1-13.7,13.7c0,0-1.9,14.5,13.7,26
				C186.2,480.1,184.3,465.7,184.3,465.7z"/>
			<path class="st47" d="M171.4,475.5c-6.1,0.5-11.2-4.6-10.7-10.7c0.4-4.8,4.3-8.7,9.1-9.1c6.1-0.5,11.2,4.6,10.7,10.7
				C180.1,471.3,176.2,475.2,171.4,475.5z"/>
		</g>
		<g>
			<g>
				<g>
					<circle class="st48" cx="170.3" cy="386.2" r="18.9"/>
					<circle class="st47" cx="170.3" cy="386.2" r="15.3"/>
					<path class="st49" d="M170.3,370.9c6.9,0,12.7,4.6,14.6,10.9c0.1,0.3,0.3,0.4,0.6,0.4l0,0c0.4,0,0.7-0.4,0.6-0.8
						c-2-6.8-8.3-11.8-15.8-11.8c-7.5,0-13.8,5-15.8,11.8c-0.1,0.4,0.2,0.8,0.6,0.8l0,0c0.3,0,0.5-0.2,0.6-0.4
						C157.6,375.5,163.4,370.9,170.3,370.9z"/>
					<path class="st50" d="M187.3,386.6c-0.9,0-1.7,0.7-1.8,1.6c-1,7.5-7.4,13.2-15.1,13.2c-7.7,0-14.1-5.7-15.1-13.2
						c-0.1-0.9-0.9-1.6-1.8-1.6l0,0c-1.1,0-2,1-1.8,2.1c1.2,9.2,9.2,16.4,18.7,16.4c9.6,0,17.5-7.1,18.7-16.4
						C189.2,387.6,188.4,386.6,187.3,386.6L187.3,386.6z"/>
					<circle class="st47" cx="170.3" cy="386.2" r="15.3"/>
					<path class="st48" d="M185.2,391.1c-0.3,0-0.5,0.2-0.6,0.4c-2.2,5.8-7.7,9.9-14.3,9.9c-6.5,0-12.1-4.1-14.3-9.9
						c-0.1-0.2-0.3-0.4-0.6-0.4l0,0c-0.4,0-0.7,0.4-0.6,0.8c2.3,6.3,8.4,10.7,15.4,10.7c7.1,0,13.1-4.5,15.4-10.7
						C185.9,391.5,185.6,391.1,185.2,391.1L185.2,391.1z"/>
				</g>
				<path class="st48" d="M170.3,387.5L170.3,387.5c-0.4,0-0.7-0.3-0.7-0.7V376c0-0.4,0.3-0.7,0.7-0.7l0,0c0.4,0,0.7,0.3,0.7,0.7
					v10.7C171,387.2,170.7,387.5,170.3,387.5z"/>
				<path class="st48" d="M169.8,386.4L169.8,386.4c0.3-0.3,0.7-0.3,1-0.1l6.6,5.6c0.3,0.3,0.3,0.7,0.1,1l0,0
					c-0.3,0.3-0.7,0.3-1,0.1l-6.6-5.6C169.5,387.1,169.5,386.7,169.8,386.4z"/>
			</g>
			<g>
				<rect x="169.9" y="371.9" class="st51" width="0.5" height="1.5"/>
				<rect x="169.9" y="398.7" class="st51" width="0.5" height="1.5"/>
			</g>
			<g>
				<rect x="156.1" y="385.8" class="st51" width="1.5" height="0.5"/>
				<rect x="182.8" y="385.8" class="st51" width="1.5" height="0.5"/>
			</g>
			<g>
				
					<rect x="160.5" y="375.9" transform="matrix(0.7074 -0.7068 0.7068 0.7074 -219.144 223.8)" class="st51" width="0.5" height="1.5"/>
				
					<rect x="179.4" y="394.8" transform="matrix(0.7071 -0.7071 0.7071 0.7071 -227.0355 242.8562)" class="st51" width="0.5" height="1.5"/>
			</g>
			<g>
				
					<rect x="160.5" y="394.8" transform="matrix(-0.7071 -0.7071 0.7071 -0.7071 -5.2692 788.7856)" class="st51" width="0.5" height="1.5"/>
				
					<rect x="179.4" y="375.9" transform="matrix(-0.7074 -0.7068 0.7068 -0.7074 40.5546 769.963)" class="st51" width="0.5" height="1.5"/>
			</g>
		</g>
		<g>
			<path class="st42" d="M198.7,327.9h-54.1c-1,0-1.7-0.8-1.7-1.7v-56.6c0-1,0.8-1.7,1.7-1.7h54.1c1,0,1.7,0.8,1.7,1.7v56.6
				C200.5,327.1,199.7,327.9,198.7,327.9z"/>
			<g>
				<polyline class="st52" points="140.2,321.7 144.9,318.4 147.1,310.6 144.7,310.1 143.3,312.9 144.7,299.4 142.3,299.9 
					140,312.9 137.1,319.1 139.7,320.7 				"/>
				<polygon class="st52" points="168.2,335.8 168.9,330.1 175.8,323.1 177.4,325.3 174.9,328.2 188.1,325 188.1,327.9 175.8,332.6 
					173.3,337 				"/>
				<g>
					<g>
						<polygon class="st53" points="81.7,476.4 107.6,602.8 127.1,600.7 113.8,595.9 118.7,594.5 111.8,476.4 						"/>
						<path class="st53" d="M122.9,474.3c0,0,32.8,30.7,27.9,67.8c-5.6,29.3-17.5,40.5-17.5,40.5l-3.5-0.7l5.4,14.3l-15.7-16.8
							c0,0,19.4-26.7,7.3-54.5s-38.3-37.7-38.3-37.7s22.5-20.4,24.1-19.9C114.4,467.8,122.9,474.3,122.9,474.3z"/>
						<g>
							<path class="st54" d="M136.9,316.9c0,0-54,65.5-60.3,78.6c0,0-2.6,4.7-2.6,18.3s4.7,63.9,4.7,63.9l55,3.1
								c0,0-17.8-61.3-18.3-62.9c-0.5-1.6-9.4-11-17.8-13.1l46.1-83.3L136.9,316.9z"/>
							<g>
								<path class="st52" d="M102.7,398.6c0,0,2.3,6.8,3.6,10.9c0,0-11.2-0.2-15.2-5.5l4.2-10L102.7,398.6z"/>
								<g>
									<path class="st52" d="M111.3,377.4c0,0,3.3,19.3,0,23.7c-3.3,4.4-14.7-3.1-19.5-10.1c-4.7-7-5.7-22.9,2.4-24.2
										C102.3,365.5,109.4,370.3,111.3,377.4z"/>
								</g>
							</g>
							<path class="st54" d="M106.2,413.2c0,0,43.3-27.2,46.8-32.8c3.5-5.6,13.3-47.1,13.3-47.1l8.4,2.1c0,0-4.9,46.4-6.3,51.3
								c-1.4,4.9-44,50.3-53.7,50.3C104.8,436.9,101.3,424.3,106.2,413.2z"/>
						</g>
					</g>
					<path class="st53" d="M88,367.7c0,0,5.7-7.9,15.8-6s12.6-0.3,12.6-0.3s-2.2,11.1-9.2,13.6c-7,2.5-8.8,1.9-8.8,1.9
						s3.8,3.8,4.7,6.6c0.9,2.8-3.2-3.5-4.7-1.3c-1.6,2.2,0,7,3.2,6.6c3.2-0.3,1.3,2.2,0,4.7c-1.3,2.5-3.2,5.7-5.1,4.7
						c-1.9-0.9-8.5-4.7-11.1-12.6C82.9,377.8,82.3,370.2,88,367.7z"/>
				</g>
			</g>
		</g>
		<path class="st41" d="M437.8,391.4H307.6c-0.7,0-1.3-0.6-1.3-1.3V168.9c0-0.7,0.6-1.3,1.3-1.3h130.1c0.7,0,1.3,0.6,1.3,1.3v221.1
			C439.1,390.8,438.5,391.4,437.8,391.4z"/>
		<path class="st42" d="M414,204.6h-83.9c-0.6,0-1-0.5-1-1v-16.9c0-0.6,0.5-1,1-1H414c0.6,0,1,0.5,1,1v16.9
			C415,204.1,414.6,204.6,414,204.6z"/>
		<path class="st42" d="M357.8,310h-17.1c-4,0-7.3-3.3-7.3-7.3l0,0c0-4,3.3-7.3,7.3-7.3h17.1c4,0,7.3,3.3,7.3,7.3l0,0
			C365.1,306.7,361.9,310,357.8,310z"/>
		<path class="st48" d="M407.1,310h-17.1c-4,0-7.3-3.3-7.3-7.3l0,0c0-4,3.3-7.3,7.3-7.3h17.1c4,0,7.3,3.3,7.3,7.3l0,0
			C414.4,306.7,411.2,310,407.1,310z"/>
		<rect x="327.2" y="223.6" class="st47" width="92.3" height="14.5"/>
		<rect x="327.2" y="248.2" class="st47" width="92.3" height="14.5"/>
		<rect x="347.1" y="271.9" class="st55" width="53.1" height="3.3"/>
		<path class="st48" d="M712.6,350H546.7c-10.2,0-18.5-8.3-18.5-18.5l0,0c0-10.2,8.3-18.5,18.5-18.5h165.9
			c10.2,0,18.5,8.3,18.5,18.5l0,0C731.1,341.7,722.8,350,712.6,350z"/>
		<g>
			<path class="st41" d="M568.9,193.2H465.6c-8.4,0-15.2-6.8-15.2-15.2l0,0c0-8.4,6.8-15.2,15.2-15.2h103.3
				c8.4,0,15.2,6.8,15.2,15.2l0,0C584.1,186.4,577.3,193.2,568.9,193.2z"/>
			<circle class="st56" cx="485.5" cy="178.1" r="4.7"/>
			<circle class="st57" cx="518.1" cy="178.1" r="4.7"/>
			<circle class="st58" cx="548.1" cy="178.1" r="4.7"/>
		</g>
		<g>
			<circle class="st9" cx="171.1" cy="301.5" r="11.5"/>
			<g>
				<path class="st48" d="M183,287.6h-2l-2.9-4.1c-0.2-0.3-0.6-0.5-1-0.5h-11.7c-0.4,0-0.8,0.2-1,0.5l-2.9,4.1h-2
					c-3.2,0-5.8,2.6-5.8,5.8v16.7c0,3.2,2.6,5.8,5.8,5.8H183c3.2,0,5.8-2.6,5.8-5.8v-16.7C188.8,290.2,186.2,287.6,183,287.6z
					 M171.2,310c-4.7,0-8.5-3.8-8.5-8.5c0-4.7,3.8-8.5,8.5-8.5c4.7,0,8.5,3.8,8.5,8.5C179.7,306.2,175.9,310,171.2,310z"/>
				<circle class="st42" cx="171.2" cy="301.6" r="5.6"/>
			</g>
		</g>
		<g>
			<path class="st41" d="M589.4,291.1h-97.6c-1.1,0-2-0.9-2-2v-62.7c0-1.1,0.9-2,2-2h97.6c1.1,0,2,0.9,2,2v62.7
				C591.4,290.2,590.5,291.1,589.4,291.1z"/>
			<path class="st59" d="M540.7,257.2h-0.2c-0.5,0-0.9-0.1-1.3-0.3L500,235.1c-1.3-0.7-1.8-2.3-1-3.6c0.7-1.3,2.3-1.8,3.6-1l38,21.1
				l38-21.1c1.3-0.7,2.9-0.3,3.6,1c0.7,1.3,0.3,2.9-1,3.6L542,256.8C541.6,257.1,541.1,257.2,540.7,257.2z"/>
		</g>
		<path class="st53" d="M738.7,284.2H616.3c-1,0-1.8-0.8-1.8-1.8V123c0-1,0.8-1.8,1.8-1.8h122.5c1,0,1.8,0.8,1.8,1.8v159.4
			C740.5,283.4,739.7,284.2,738.7,284.2z"/>
		<g>
			<path class="st60" d="M642.6,143h-8.4c-0.4,0-0.8-0.7-0.8-1.6l0,0c0-0.9,0.4-1.6,0.8-1.6h8.4c0.4,0,0.8,0.7,0.8,1.6l0,0
				C643.4,142.3,643.1,143,642.6,143z"/>
			<path class="st60" d="M694.6,143h-48.1c-0.4,0-0.8-0.7-0.8-1.6l0,0c0-0.9,0.4-1.6,0.8-1.6h48.1c0.4,0,0.8,0.7,0.8,1.6l0,0
				C695.4,142.3,695.1,143,694.6,143z"/>
			<path class="st61" d="M661.9,149.8h-15.3c-0.4,0-0.8-0.7-0.8-1.6l0,0c0-0.9,0.4-1.6,0.8-1.6h15.3c0.4,0,0.8,0.7,0.8,1.6l0,0
				C662.7,149,662.3,149.8,661.9,149.8z"/>
			<path class="st41" d="M687.1,149.8H665c-0.4,0-0.8-0.7-0.8-1.6l0,0c0-0.9,0.4-1.6,0.8-1.6h22.1c0.4,0,0.8,0.7,0.8,1.6l0,0
				C687.9,149,687.6,149.8,687.1,149.8z"/>
			<path class="st41" d="M694.6,182.4h-48.1c-0.4,0-0.8-0.7-0.8-1.6l0,0c0-0.9,0.4-1.6,0.8-1.6h48.1c0.4,0,0.8,0.7,0.8,1.6l0,0
				C695.4,181.7,695.1,182.4,694.6,182.4z"/>
			<path class="st60" d="M642.6,189.2h-8.4c-0.4,0-0.8-0.7-0.8-1.6l0,0c0-0.9,0.4-1.6,0.8-1.6h8.4c0.4,0,0.8,0.7,0.8,1.6l0,0
				C643.4,188.4,643.1,189.2,642.6,189.2z"/>
			<path class="st41" d="M661.9,189.2h-15.3c-0.4,0-0.8-0.7-0.8-1.6l0,0c0-0.9,0.4-1.6,0.8-1.6h15.3c0.4,0,0.8,0.7,0.8,1.6l0,0
				C662.7,188.4,662.3,189.2,661.9,189.2z"/>
			<path class="st61" d="M687.1,189.2H665c-0.4,0-0.8-0.7-0.8-1.6l0,0c0-0.9,0.4-1.6,0.8-1.6h22.1c0.4,0,0.8,0.7,0.8,1.6l0,0
				C687.9,188.4,687.6,189.2,687.1,189.2z"/>
			<path class="st61" d="M706.5,156.5h-60c-0.4,0-0.8-0.7-0.8-1.6l0,0c0-0.9,0.4-1.6,0.8-1.6h60c0.4,0,0.8,0.7,0.8,1.6l0,0
				C707.4,155.7,707,156.5,706.5,156.5z"/>
			<path class="st60" d="M694.6,163.2h-15.2c-0.1,0-0.2-0.1-0.2-0.2v-2.8c0-0.1,0.1-0.2,0.2-0.2h15.2c0.1,0,0.2,0.1,0.2,0.2v2.8
				C694.8,163.1,694.7,163.2,694.6,163.2z"/>
			<path class="st41" d="M666.5,163.2h-19.9c-0.4,0-0.8-0.7-0.8-1.6l0,0c0-0.9,0.4-1.6,0.8-1.6h19.9c0.4,0,0.8,0.7,0.8,1.6l0,0
				C667.3,162.5,666.9,163.2,666.5,163.2z"/>
			<path class="st60" d="M677.1,163.2h-7.9c-0.4,0-0.8-0.7-0.8-1.6l0,0c0-0.9,0.4-1.6,0.8-1.6h7.9c0.4,0,0.8,0.7,0.8,1.6l0,0
				C677.9,162.5,677.5,163.2,677.1,163.2z"/>
			<path class="st41" d="M642.6,169.7h-8.4c-0.4,0-0.8-0.7-0.8-1.6l0,0c0-0.9,0.4-1.6,0.8-1.6h8.4c0.4,0,0.8,0.7,0.8,1.6l0,0
				C643.4,168.9,643.1,169.7,642.6,169.7z"/>
			<path class="st41" d="M706.5,169.7h-60c-0.4,0-0.8-0.7-0.8-1.6l0,0c0-0.9,0.4-1.6,0.8-1.6h60c0.4,0,0.8,0.7,0.8,1.6l0,0
				C707.4,168.9,707,169.7,706.5,169.7z"/>
			<path class="st41" d="M642.6,195.4h-8.4c-0.4,0-0.8-0.7-0.8-1.6l0,0c0-0.9,0.4-1.6,0.8-1.6h8.4c0.4,0,0.8,0.7,0.8,1.6l0,0
				C643.4,194.7,643.1,195.4,642.6,195.4z"/>
			<path class="st41" d="M700.6,195.4h-21.1c-0.2,0-0.3-0.1-0.3-0.3v-2.7c0-0.2,0.1-0.3,0.3-0.3h21.1c0.2,0,0.3,0.1,0.3,0.3v2.7
				C700.8,195.3,700.7,195.4,700.6,195.4z"/>
			<path class="st41" d="M666.5,195.4h-19.9c-0.4,0-0.8-0.7-0.8-1.6l0,0c0-0.9,0.4-1.6,0.8-1.6h19.9c0.4,0,0.8,0.7,0.8,1.6l0,0
				C667.3,194.7,666.9,195.4,666.5,195.4z"/>
			<path class="st41" d="M677.1,195.4h-7.9c-0.4,0-0.8-0.7-0.8-1.6l0,0c0-0.9,0.4-1.6,0.8-1.6h7.9c0.4,0,0.8,0.7,0.8,1.6l0,0
				C677.9,194.7,677.5,195.4,677.1,195.4z"/>
			<path class="st62" d="M642.6,201.9h-8.4c-0.4,0-0.8-0.7-0.8-1.6l0,0c0-0.9,0.4-1.6,0.8-1.6h8.4c0.4,0,0.8,0.7,0.8,1.6l0,0
				C643.4,201.1,643.1,201.9,642.6,201.9z"/>
			<path class="st60" d="M657,201.9h-10.4c-0.4,0-0.8-0.7-0.8-1.6l0,0c0-0.9,0.4-1.6,0.8-1.6H657c0.4,0,0.8,0.7,0.8,1.6l0,0
				C657.8,201.1,657.4,201.9,657,201.9z"/>
			<path class="st60" d="M634.2,176.4c-0.4,0-0.8-0.7-0.8-1.6l0,0c0-0.9,0.4-1.6,0.8-1.6h8.4c0.4,0,0.8,0.7,0.8,1.6l0,0
				c0,0.9-0.4,1.6-0.8,1.6"/>
			<path class="st41" d="M703.4,176.4h-23.9c-0.2,0-0.3-0.1-0.3-0.3v-2.7c0-0.2,0.1-0.3,0.3-0.3h23.9c0.2,0,0.3,0.1,0.3,0.3v2.7
				C703.7,176.3,703.5,176.4,703.4,176.4z"/>
			<path class="st62" d="M666.5,176.4h-19.9c-0.4,0-0.8-0.7-0.8-1.6l0,0c0-0.9,0.4-1.6,0.8-1.6h19.9c0.4,0,0.8,0.7,0.8,1.6l0,0
				C667.3,175.7,666.9,176.4,666.5,176.4z"/>
			<path class="st62" d="M677.1,176.4h-7.9c-0.4,0-0.8-0.7-0.8-1.6l0,0c0-0.9,0.4-1.6,0.8-1.6h7.9c0.4,0,0.8,0.7,0.8,1.6l0,0
				C677.9,175.7,677.5,176.4,677.1,176.4z"/>
			<path class="st41" d="M694.6,208.8h-48.1c-0.4,0-0.8-0.7-0.8-1.6l0,0c0-0.9,0.4-1.6,0.8-1.6h48.1c0.4,0,0.8,0.7,0.8,1.6l0,0
				C695.4,208,695.1,208.8,694.6,208.8z"/>
			<path class="st41" d="M661.9,215.5h-15.3c-0.4,0-0.8-0.7-0.8-1.6l0,0c0-0.9,0.4-1.6,0.8-1.6h15.3c0.4,0,0.8,0.7,0.8,1.6l0,0
				C662.7,214.8,662.3,215.5,661.9,215.5z"/>
			<path class="st41" d="M687.1,215.5H665c-0.4,0-0.8-0.7-0.8-1.6l0,0c0-0.9,0.4-1.6,0.8-1.6h22.1c0.4,0,0.8,0.7,0.8,1.6l0,0
				C687.9,214.8,687.6,215.5,687.1,215.5z"/>
			<path class="st41" d="M694.6,248.2h-48.1c-0.4,0-0.8-0.7-0.8-1.6l0,0c0-0.9,0.4-1.6,0.8-1.6h48.1c0.4,0,0.8,0.7,0.8,1.6l0,0
				C695.4,247.5,695.1,248.2,694.6,248.2z"/>
			<path class="st61" d="M642.6,254.9h-8.4c-0.4,0-0.8-0.7-0.8-1.6l0,0c0-0.9,0.4-1.6,0.8-1.6h8.4c0.4,0,0.8,0.7,0.8,1.6l0,0
				C643.4,254.2,643.1,254.9,642.6,254.9z"/>
			<path class="st60" d="M661.9,254.9h-15.3c-0.4,0-0.8-0.7-0.8-1.6l0,0c0-0.9,0.4-1.6,0.8-1.6h15.3c0.4,0,0.8,0.7,0.8,1.6l0,0
				C662.7,254.2,662.3,254.9,661.9,254.9z"/>
			<path class="st41" d="M687.1,254.9H665c-0.4,0-0.8-0.7-0.8-1.6l0,0c0-0.9,0.4-1.6,0.8-1.6h22.1c0.4,0,0.8,0.7,0.8,1.6l0,0
				C687.9,254.2,687.6,254.9,687.1,254.9z"/>
			<path class="st61" d="M642.6,222.2h-8.4c-0.4,0-0.8-0.7-0.8-1.6l0,0c0-0.9,0.4-1.6,0.8-1.6h8.4c0.4,0,0.8,0.7,0.8,1.6l0,0
				C643.4,221.5,643.1,222.2,642.6,222.2z"/>
			<path class="st61" d="M690.2,222.2H646c-0.1,0-0.3-0.1-0.3-0.3v-2.7c0-0.1,0.1-0.3,0.3-0.3h44.2c0.1,0,0.3,0.1,0.3,0.3v2.7
				C690.4,222.1,690.3,222.2,690.2,222.2z"/>
			<path class="st41" d="M642.6,228.9h-8.4c-0.4,0-0.8-0.7-0.8-1.6l0,0c0-0.9,0.4-1.6,0.8-1.6h8.4c0.4,0,0.8,0.7,0.8,1.6l0,0
				C643.4,228.2,643.1,228.9,642.6,228.9z"/>
			<path class="st41" d="M666.5,228.9h-19.9c-0.4,0-0.8-0.7-0.8-1.6l0,0c0-0.9,0.4-1.6,0.8-1.6h19.9c0.4,0,0.8,0.7,0.8,1.6l0,0
				C667.3,228.2,666.9,228.9,666.5,228.9z"/>
			<path class="st41" d="M677.1,228.9h-7.9c-0.4,0-0.8-0.7-0.8-1.6l0,0c0-0.9,0.4-1.6,0.8-1.6h7.9c0.4,0,0.8,0.7,0.8,1.6l0,0
				C677.9,228.2,677.5,228.9,677.1,228.9z"/>
			<path class="st41" d="M642.6,235.4h-8.4c-0.4,0-0.8-0.7-0.8-1.6l0,0c0-0.9,0.4-1.6,0.8-1.6h8.4c0.4,0,0.8,0.7,0.8,1.6l0,0
				C643.4,234.7,643.1,235.4,642.6,235.4z"/>
			<path class="st41" d="M701.7,235.4h-55.7c-0.2,0-0.3-0.1-0.3-0.3v-2.6c0-0.2,0.1-0.3,0.3-0.3h55.7c0.2,0,0.3,0.1,0.3,0.3v2.6
				C702,235.3,701.9,235.4,701.7,235.4z"/>
			<path class="st41" d="M642.6,261.1h-8.4c-0.4,0-0.8-0.7-0.8-1.6l0,0c0-0.9,0.4-1.6,0.8-1.6h8.4c0.4,0,0.8,0.7,0.8,1.6l0,0
				C643.4,260.4,643.1,261.1,642.6,261.1z"/>
			<path class="st41" d="M706.5,261.1H680c-0.4,0-0.8-0.7-0.8-1.6l0,0c0-0.9,0.4-1.6,0.8-1.6h26.5c0.4,0,0.8,0.7,0.8,1.6l0,0
				C707.3,260.4,706.9,261.1,706.5,261.1z"/>
			<path class="st41" d="M666.5,261.1h-19.9c-0.4,0-0.8-0.7-0.8-1.6l0,0c0-0.9,0.4-1.6,0.8-1.6h19.9c0.4,0,0.8,0.7,0.8,1.6l0,0
				C667.3,260.4,666.9,261.1,666.5,261.1z"/>
			<path class="st41" d="M677.1,261.1h-7.9c-0.4,0-0.8-0.7-0.8-1.6l0,0c0-0.9,0.4-1.6,0.8-1.6h7.9c0.4,0,0.8,0.7,0.8,1.6l0,0
				C677.9,260.4,677.5,261.1,677.1,261.1z"/>
			<path class="st62" d="M682.7,267.6H646c-0.1,0-0.2-0.1-0.2-0.2v-2.8c0-0.1,0.1-0.2,0.2-0.2h36.7c0.1,0,0.2,0.1,0.2,0.2v2.8
				C682.9,267.5,682.8,267.6,682.7,267.6z"/>
			<path class="st61" d="M704.8,242.1h-25.3c-0.2,0-0.3-0.1-0.3-0.3v-2.6c0-0.2,0.1-0.3,0.3-0.3h25.3c0.2,0,0.3,0.1,0.3,0.3v2.6
				C705.1,242,705,242.1,704.8,242.1z"/>
			<path class="st62" d="M666.5,242.1h-19.9c-0.4,0-0.8-0.7-0.8-1.6l0,0c0-0.9,0.4-1.6,0.8-1.6h19.9c0.4,0,0.8,0.7,0.8,1.6l0,0
				C667.3,241.4,666.9,242.1,666.5,242.1z"/>
			<path class="st62" d="M677.1,242.1h-7.9c-0.4,0-0.8-0.7-0.8-1.6l0,0c0-0.9,0.4-1.6,0.8-1.6h7.9c0.4,0,0.8,0.7,0.8,1.6l0,0
				C677.9,241.4,677.5,242.1,677.1,242.1z"/>
		</g>
		<g>
			<circle class="st63" cx="730.4" cy="124.6" r="26.5"/>
			<g>
				<g>
					<path class="st47" d="M728.4,122.1l-10.5,3.9l10.5,3.8v4l-15.1-5.7v-4.1l15.1-5.7V122.1z"/>
				</g>
				<g>
					<path class="st47" d="M731.9,118.1l15.1,5.7v4.1l-15.1,5.7v-4l10.5-3.8l-10.5-3.9V118.1z"/>
				</g>
			</g>
		</g>
		<g>
			<circle class="st56" cx="554.8" cy="572.1" r="28.8"/>
			<g>
				<path class="st9" d="M570,570.5c0,1.8-0.3,3.4-0.9,4.9c-0.6,1.5-1.4,2.6-2.4,3.5c-1,0.8-2.3,1.3-3.6,1.3c-0.9,0-1.7-0.2-2.4-0.7
					c-0.7-0.4-1.2-1-1.5-1.7h-0.3c-1.3,1.6-3,2.4-5.1,2.4c-2.2,0-3.9-0.7-5.2-2c-1.3-1.3-1.9-3.1-1.9-5.4c0-2.6,0.8-4.7,2.5-6.3
					c1.7-1.6,3.8-2.4,6.5-2.4c1.1,0,2.2,0.1,3.5,0.3c1.3,0.2,2.3,0.4,3.2,0.7l-0.4,9.1c0,1.7,0.5,2.6,1.4,2.6c0.8,0,1.4-0.6,1.9-1.7
					c0.5-1.2,0.7-2.7,0.7-4.6c0-2-0.4-3.8-1.2-5.3c-0.8-1.5-2-2.7-3.5-3.5c-1.5-0.8-3.2-1.2-5.2-1.2c-2.5,0-4.7,0.5-6.5,1.5
					c-1.9,1-3.3,2.5-4.3,4.5c-1,1.9-1.5,4.2-1.5,6.7c0,3.4,0.9,6.1,2.7,7.9c1.8,1.8,4.5,2.7,8,2.7c1.3,0,2.8-0.1,4.3-0.4
					c1.6-0.3,3.1-0.7,4.7-1.3v3.6c-2.7,1.1-5.6,1.7-8.8,1.7c-4.7,0-8.4-1.2-11-3.7c-2.6-2.5-4-5.9-4-10.4c0-3.1,0.7-5.8,2-8.4
					c1.3-2.5,3.3-4.5,5.8-5.9c2.5-1.4,5.4-2.1,8.6-2.1c2.7,0,5.2,0.6,7.3,1.7c2.1,1.1,3.8,2.7,5,4.8
					C569.4,565.4,570,567.8,570,570.5z M550.9,572.8c0,2.6,1.1,3.9,3.2,3.9c1.1,0,2-0.4,2.6-1.2c0.6-0.8,0.9-2.1,1.1-3.8l0.2-4.1
					c-0.6-0.1-1.3-0.2-2.1-0.2c-1.6,0-2.8,0.5-3.6,1.5C551.4,569.8,550.9,571.1,550.9,572.8z"/>
			</g>
		</g>
		<g>
			<path class="st48" d="M410.1,74H229.4c-14.7,0-26.6,11.9-26.6,26.6c0,14.7,11.9,26.6,26.6,26.6h13.3l12.8,12.8l12.8-12.8h141.7
				c14.7,0,26.6-11.9,26.6-26.6C436.6,85.9,424.8,74,410.1,74z"/>
			<path class="st9" d="M358.4,109H239.5c-1.6,0-3-1.3-3-3l0,0c0-1.6,1.3-3,3-3h118.9c1.6,0,3,1.3,3,3l0,0
				C361.4,107.7,360,109,358.4,109z"/>
			<path class="st9" d="M321.2,92.7h-81.7c-1.6,0-3-1.3-3-3l0,0c0-1.6,1.3-3,3-3h81.7c1.6,0,3,1.3,3,3l0,0
				C324.2,91.4,322.9,92.7,321.2,92.7z"/>
		</g>
		<g>
			<path class="st52" d="M657,410.6c0,0-2.2,6.6-3.4,10.5c0,0,10.8-0.2,14.6-5.3l-4-9.7L657,410.6z"/>
			<g>
				<polygon class="st64" points="655.4,591.5 656.3,595.6 662.3,595.9 661,590.9 				"/>
				<path class="st53" d="M656.3,595.6c0,0-10,5.2-9.9,5.6c0.1,0.3,16.9-1.4,16.9-1.4l-1-3.8L656.3,595.6z"/>
			</g>
			<g>
				<polygon class="st64" points="705.9,583.2 708.2,586.7 713.9,584.8 710.9,580.6 				"/>
				<path class="st53" d="M708.2,586.7c0,0-7.5,8.5-7.3,8.8c0.2,0.3,15.3-7.4,15.3-7.4l-2.3-3.2L708.2,586.7z"/>
			</g>
			<path class="st56" d="M644.2,482.4c0,0-17.2,56.1,10.1,110.2h8.1c0,0-16.2-61.1,4-110.7L644.2,482.4z"/>
			<path class="st56" d="M659.2,484.4c0,0,2.7,58.6,46.5,100.4l7.6-2.7c0,0-35.8-52.2-33.4-105.6L659.2,484.4z"/>
			<g>
				<path class="st64" d="M651.3,352.4l0-3.5c0-0.2,0-0.3-0.1-0.4l-0.7-2.5l-2,0.5l-2-1.9c-0.8-0.8-2.2-0.5-2.7,0.5
					c-0.6,1.3-1.3,3-1.5,4.3c-0.1,0.5,0.1,1,0.4,1.4l3.1,3.4c0.4,0.5,1.1,0.7,1.7,0.5l2.5-0.7C650.8,353.8,651.3,353.1,651.3,352.4z
					"/>
				<path class="st65" d="M680.9,428.2c0,0-22.4-24-23.9-33c-1.5-9-4.8-42.4-4.8-42.4l-6.9,1.3c0,0-2.4,47.8-0.3,53.3
					c2.1,5.5,15.6,33.6,24.3,36.2C678.2,446.2,684.4,437.5,680.9,428.2z"/>
				<path class="st64" d="M649.8,388.6c0,0-5.1,16.8-1.9,21.1c3.2,4.2,15,0.4,19.6-6.4c4.6-6.8,5.5-22-2.3-23.3
					C657.4,378.7,651.6,381.8,649.8,388.6z"/>
				<path class="st65" d="M680.1,487c0,0,4.5-48.5,4.5-61.6c0-0.6,0-1.2,0-1.7c-3.4-8.5-11.8-8.4-15.1-7.7
					c-3.4,0.7-16.5,4.9-16.4,5.4l0,0c-4.5,3.3-8,7.2-8.3,8.1c0,0-12.1,25.3-1.5,55.6L680.1,487z"/>
				<path class="st64" d="M615.9,354.8l-0.6-3.4c0-0.1-0.1-0.3-0.1-0.4l-1.1-2.3l-1.9,0.8l-2.3-1.5c-1-0.6-2.3-0.1-2.6,1
					c-0.4,1.4-0.8,3.2-0.8,4.5c0,0.5,0.3,1,0.7,1.3l3.6,2.8c0.5,0.4,1.2,0.5,1.8,0.2l2.3-1.1C615.7,356.3,616,355.6,615.9,354.8z"/>
				<path class="st65" d="M658.4,424.3c0,0-26.3-19.7-29.3-28.3c-3-8.6-12.1-40.9-12.1-40.9l-6.6,2.5c0,0,6.1,47.5,9.1,52.6
					c3,5.1,21.2,30.3,30.3,31.3C658.9,442.5,663.4,432.9,658.4,424.3z"/>
				<path class="st53" d="M668.5,379.8c0,0-13.5-5.7-19.9,6.1c-3.4,7.4,7.4,0.3,9.4,2.7c2,2.4-2.7,7.1-1.3,8.8
					c1.3,1.7,3.7-3,5.1-0.3c1.3,2.7-2,3-4.4,6.1c-2.4,3,2,7.4-1.3,10.1c-3.4,2.7-12.8,4.7-7.1,19.2c5.7,14.5-9.4,18.2-3,38.1
					c6.4,19.9,49.9,31,57.9,7.4c8.1-23.6-18.9-29.3-17.2-39.8c1.7-10.4,7.7-13.1-0.3-23.6c-8.1-10.4-13.1-16.5-10.8-23.2
					C677.9,384.5,671.5,379.8,668.5,379.8z"/>
			</g>
		</g>
		<path class="st66" d="M705.2,298.4c-16,0-29,13-29,29c0,16,13,29,29,29c16,0,29-13,29-29C734.2,311.4,721.2,298.4,705.2,298.4z
			 M690.6,325.1c0-2,1.6-3.5,3.5-3.5s3.5,1.6,3.5,3.5c0,2-1.6,3.5-3.5,3.5S690.6,327.1,690.6,325.1z M705.2,343.2
			c-4.7,0-8.5-3.5-9.1-8h18.2C713.8,339.7,709.9,343.2,705.2,343.2z M716.3,328.6c-2,0-3.5-1.6-3.5-3.5c0-2,1.6-3.5,3.5-3.5
			c2,0,3.5,1.6,3.5,3.5C719.9,327.1,718.3,328.6,716.3,328.6z"/>
		<polygon class="st47" points="275,533.4 273.3,530 319.2,507 377.1,508 440,484.3 488.1,484.3 539.3,467.2 539.8,467.2 
			580.9,471.9 604.1,459.8 605.8,463.2 581.6,475.8 581,475.7 539.8,471 488.4,488.1 440.4,488.1 377.8,511.8 377.4,511.8 
			320,510.8 		"/>
		<g>
			<path class="st53" d="M443.5,442.4c0,0,45.5,73.7,39.8,125l31,0.6l-13.3-7.7l3.8-0.6c0,0-11.4-79.5-22.1-107.7
				c-11.3-29.5-14.5-18.6-14.5-18.6L443.5,442.4z"/>
			<path class="st53" d="M427.1,437.8c0,0,2.5,51.2-1.3,70.8c-3.8,19.6-15.2,58.1-15.2,58.1l29.1,0.6l-7.6-5.4l-4.8-2.8
				c0,0,20.7-55.6,22.6-82.2c1.9-26.5,5.1-41.7,5.1-41.7L427.1,437.8z"/>
			<g>
				<polyline class="st52" points="486.5,286.3 491.3,283 493.4,275.2 491,274.7 489.6,277.5 491,264 488.7,264.5 486.3,277.5 
					483.5,283.7 486.1,285.4 				"/>
				<polygon class="st52" points="514.6,300.4 515.2,294.7 522.2,287.7 523.8,289.9 521.2,292.8 534.5,289.6 534.5,292.5 
					522.2,297.2 519.6,301.6 				"/>
				<g>
					<g>
						<g>
							<path class="st42" d="M483.3,281.5c0,0-54,65.5-60.3,78.6c0,0-2.6,4.7-2.6,18.3s4.7,63.9,4.7,63.9l55,3.1
								c0,0-17.8-61.3-18.3-62.9c-0.5-1.6-9.4-11-17.8-13.1l46.1-83.3L483.3,281.5z"/>
							<g>
								<path class="st52" d="M449.1,363.2c0,0,2.3,6.8,3.6,10.9c0,0-11.2-0.2-15.2-5.5l4.2-10L449.1,363.2z"/>
								<g>
									<path class="st52" d="M457.6,342c0,0,3.3,19.3,0,23.7c-3.3,4.4-14.7-3.1-19.5-10.1c-4.7-7-5.7-22.9,2.4-24.2
										C448.6,330.1,455.7,334.9,457.6,342z"/>
								</g>
							</g>
							<path class="st42" d="M452.5,377.8c0,0,43.3-27.2,46.8-32.8c3.5-5.6,13.3-47.1,13.3-47.1l8.4,2.1c0,0-4.9,46.4-6.3,51.3
								c-1.4,4.9-44,50.3-53.7,50.3C451.1,401.5,447.6,388.9,452.5,377.8z"/>
						</g>
					</g>
				</g>
			</g>
			<path class="st53" d="M454.5,337.7c0,0,2.2-7.6-2.5-11.4c-4.7-3.8-13-3.2-14.2-1.9c0,2.2,5.1,3.5,3.8,4.7c-1.3,1.3-7.9,0-9.5,6.6
				c-1.6,6.6,0.6,7.9,0.6,7.9s-3.5,4.1,0.6,9.8c4.1,5.7,13.4,10.4,15.7,9.8c2.3-0.6,1-9.5,1-9.5s-5.4-0.6-5.7-4.1
				c-0.3-3.5,2.5-3.8,3.8-2.5c1.3,1.3,1.6,4.1,2.5,3.5c0.9-0.6-0.3-7.3-0.3-7.3S453.9,340.5,454.5,337.7z"/>
		</g>
		<g>
			<path class="st48" d="M480,531.3l-32.5,8.9c-8.9,2.5-14.2,11.8-11.8,20.7l6.1,22.4c2.5,8.9,11.8,14.2,20.7,11.8l9.7-2.7l9.6,9.5
				l3.4-13l9.7-2.7c8.9-2.5,14.2-11.8,11.8-20.7l-6.1-22.4C498.3,534.1,489,528.8,480,531.3z"/>
			<g>
				<circle class="st9" cx="454.9" cy="569" r="3.7"/>
				<circle class="st9" cx="471.3" cy="564.5" r="3.7"/>
				<circle class="st9" cx="487.7" cy="560" r="3.7"/>
			</g>
		</g>
		<circle class="st56" cx="319.3" cy="508" r="6"/>
		<circle class="st65" cx="539.9" cy="469.4" r="6"/>
	</g>
</g>
</svg>
