<?xml version="1.0" encoding="utf-8"?>
<!-- Generator: Adobe Illustrator 25.2.0, SVG Export Plug-In . SVG Version: 6.00 Build 0)  -->
<svg version="1.1" id="Layer_1" xmlns="http://www.w3.org/2000/svg" xmlns:xlink="http://www.w3.org/1999/xlink" x="0px" y="0px"
	 viewBox="0 0 468.2 135.2" style="enable-background:new 0 0 468.2 135.2;" xml:space="preserve">
<style type="text/css">
	.st0{fill:none;stroke:#7703FC;stroke-width:3;stroke-linecap:round;stroke-linejoin:round;stroke-miterlimit:10;}
	.st1{fill:#7703FC;}
	.st2{fill:none;stroke:#7703FC;stroke-width:3;stroke-miterlimit:10;stroke-dasharray:12.2724,12.2724;}
</style>
<polyline class="st0" points="32.2,97.3 12.5,97.6 10.8,77.6 "/>
<g>
	<path class="st1" d="M192.2,39.4c0.3,0.1,0.6,0.2,0.9,0.4s0.6,0.3,1,0.4c0.3,0.1,0.7,0.2,1.1,0.3c0.4,0.1,0.8,0.1,1.2,0.1
		c0.5,0,1-0.1,1.5-0.2c0.5-0.1,1-0.3,1.5-0.5s0.9-0.5,1.4-0.8c0.4-0.3,0.8-0.7,1.2-1.1c0.4-0.5,0.7-0.9,1-1.2c0.3-0.4,0.5-0.7,0.6-1
		c0.2-0.3,0.3-0.5,0.4-0.7c0.1-0.2,0.1-0.4,0.1-0.5c0-0.2-0.1-0.4-0.2-0.6c-0.2-0.2-0.4-0.3-0.6-0.4s-0.5-0.2-0.9-0.2
		c-0.3,0-0.7-0.1-1-0.1c-0.2,0-0.4,0-0.7,0s-0.6,0-0.8,0c-0.3,0-0.6,0-0.8,0c-0.3,0-0.5,0-0.7,0c-0.3,0-0.6,0-0.9-0.1
		c-0.3-0.1-0.6-0.2-0.9-0.3c-0.3-0.2-0.6-0.4-0.8-0.6c-0.3-0.3-0.5-0.6-0.6-1c-0.1-0.1-0.1-0.3-0.1-0.4c0-0.2-0.1-0.4-0.1-0.5
		c0-0.2,0-0.4,0-0.6s0.1-0.4,0.1-0.6c0.1-0.4,0.3-0.9,0.6-1.4s0.6-0.9,1-1.3s0.8-0.9,1.3-1.3s1-0.8,1.5-1.2c0.5-0.4,1-0.7,1.5-1
		s0.9-0.5,1.4-0.7c0.6-0.3,1.2-0.5,1.8-0.6s1.2-0.2,1.8-0.2c0.4,0,0.7,0,1,0.1s0.6,0.2,0.8,0.4s0.4,0.4,0.6,0.7s0.2,0.6,0.2,0.9
		c0,0.2,0,0.4-0.1,0.5c0,0.1-0.1,0.2-0.2,0.3c-0.1,0.1-0.1,0.1-0.2,0.2s-0.2,0.1-0.3,0.1c-0.2,0-0.5,0-0.7-0.1s-0.4-0.1-0.6-0.2
		c-0.2-0.1-0.4-0.1-0.6-0.2c-0.2-0.1-0.4-0.1-0.6-0.1c-0.7,0-1.3,0.1-2,0.4s-1.3,0.6-2,1c-0.6,0.4-1.3,0.9-1.8,1.4
		c-0.6,0.5-1.1,1-1.5,1.5c-0.2,0.2-0.4,0.5-0.5,0.7s-0.2,0.5-0.2,0.7c0,0.3,0.1,0.6,0.4,0.8c0.3,0.2,0.6,0.3,1,0.3
		c0.2,0,0.5,0,0.8,0s0.6,0,0.9,0c0.3,0,0.6,0,0.9,0c0.3,0,0.6,0,0.8,0c0.6,0,1.1,0.1,1.6,0.2c0.5,0.2,1,0.4,1.4,0.7s0.7,0.7,0.9,1.1
		c0.2,0.5,0.4,1,0.4,1.5c0,0.4-0.1,0.7-0.2,1.1c-0.1,0.4-0.3,0.7-0.4,1.1c-0.2,0.4-0.4,0.7-0.6,1.1c-0.2,0.4-0.5,0.7-0.8,1.1
		c-0.5,0.6-1,1.2-1.6,1.8s-1.2,1-1.9,1.4s-1.4,0.7-2.1,1s-1.5,0.4-2.3,0.4c-0.3,0-0.7,0-1-0.1c-0.4-0.1-0.7-0.2-1.1-0.3
		c-0.3-0.1-0.7-0.3-1-0.5s-0.6-0.4-0.8-0.6c-0.2-0.2-0.4-0.5-0.6-0.8c-0.1-0.3-0.2-0.6-0.2-0.9c0-0.2,0-0.3,0.1-0.5
		C191.8,39.5,192,39.4,192.2,39.4z"/>
	<path class="st1" d="M220.8,42.6c-0.2,0-0.4,0-0.5-0.1s-0.3-0.2-0.4-0.3c-0.1-0.1-0.2-0.2-0.2-0.4s-0.1-0.3-0.1-0.5
		c0-0.1,0-0.3,0.1-0.6c0.1-0.2,0.2-0.5,0.3-0.8s0.2-0.6,0.4-0.9s0.3-0.6,0.4-0.9s0.2-0.6,0.3-0.8s0.2-0.4,0.2-0.6
		c0-0.2,0.1-0.4,0.1-0.6c0.1-0.2,0.1-0.5,0.2-0.7c0.1-0.3,0.1-0.5,0.2-0.8c0.1-0.3,0.1-0.6,0.2-0.9c-0.1,0-0.3,0.1-0.5,0.1
		s-0.4,0-0.6,0.1c-0.3,0-0.6,0.1-0.9,0.1c-0.3,0.1-0.6,0.1-0.9,0.2c-0.3,0.1-0.6,0.1-0.9,0.2c-0.3,0.1-0.7,0.2-1,0.2
		c-0.5,0.1-1.1,0.2-1.6,0.4c-0.5,0.1-1.1,0.2-1.7,0.2c-0.2,0-0.3,0-0.5-0.1s-0.3-0.2-0.5-0.2c-0.2,0.3-0.3,0.6-0.5,0.9
		c-0.2,0.3-0.3,0.7-0.4,1c-0.1,0.3-0.3,0.7-0.4,1c-0.1,0.3-0.2,0.6-0.3,0.9c0,0.2-0.1,0.4-0.1,0.6c0,0.3-0.1,0.5-0.1,0.8
		s-0.1,0.5-0.1,0.8c0,0.2-0.1,0.4-0.1,0.6c0,0.1-0.1,0.3-0.2,0.4c-0.1,0.1-0.2,0.2-0.3,0.4c-0.1,0.1-0.2,0.2-0.4,0.3
		s-0.3,0.1-0.4,0.1c-0.2,0-0.5-0.1-0.6-0.2c-0.2-0.1-0.3-0.3-0.4-0.5s-0.2-0.5-0.2-0.7c0-0.3-0.1-0.5-0.1-0.7c0-0.5,0.1-1.1,0.2-1.7
		s0.3-1.2,0.5-1.8s0.5-1.2,0.8-1.8s0.6-1.2,1-1.8c0.3-0.5,0.7-1.2,1.1-1.9c0.4-0.7,0.9-1.4,1.5-2.2s1.1-1.5,1.8-2.2
		c0.6-0.7,1.3-1.4,2-1.9c0.7-0.6,1.4-1,2.1-1.4c0.7-0.3,1.4-0.5,2.1-0.5c0.7,0,1.4,0.1,1.9,0.4s0.9,0.6,1.2,1.1s0.5,1,0.6,1.6
		s0.2,1.2,0.2,1.9c0,0.6,0,1.2-0.1,1.8c-0.1,0.6-0.2,1.3-0.3,1.9c-0.1,0.6-0.2,1.2-0.4,1.8s-0.2,1.1-0.4,1.5l-0.5,1.8
		c0,0.1-0.1,0.2-0.1,0.3c0,0.2-0.1,0.4-0.2,0.6c-0.1,0.2-0.2,0.5-0.3,0.7s-0.2,0.5-0.3,0.8s-0.2,0.5-0.3,0.7s-0.2,0.4-0.2,0.5l0,0
		c-0.1,0.2-0.1,0.5-0.2,0.7s-0.2,0.5-0.3,0.6c-0.1,0.2-0.3,0.3-0.5,0.5C221.3,42.6,221.1,42.6,220.8,42.6z M221.5,25.9
		c-0.4,0-0.8,0.1-1.2,0.2s-0.8,0.4-1.2,0.6c-0.4,0.3-0.8,0.6-1.1,0.9c-0.4,0.4-0.7,0.7-1,1.1s-0.6,0.8-0.9,1.1
		c-0.3,0.4-0.5,0.7-0.8,1c0,0.1-0.1,0.1-0.1,0.2c-0.1,0.1-0.1,0.2-0.2,0.3c-0.1,0.1-0.1,0.2-0.2,0.3c-0.1,0.1-0.1,0.2-0.1,0.3h1.4
		c0.5,0,1.1,0,1.7-0.1c0.6-0.1,1.3-0.2,1.9-0.3c0.6-0.1,1.2-0.2,1.7-0.3c0.5-0.1,0.9-0.2,1.2-0.2c0-0.1,0.1-0.3,0.1-0.5
		s0.1-0.4,0.1-0.7c0-0.2,0-0.5,0.1-0.8c0-0.3,0-0.6,0-0.8c0-0.2,0-0.5,0-0.8s-0.1-0.6-0.2-0.8c-0.1-0.3-0.2-0.5-0.4-0.7
		S221.8,25.9,221.5,25.9z"/>
	<path class="st1" d="M230.4,27.3c0-0.2,0-0.4,0-0.6s0-0.3-0.1-0.5c0-0.1-0.1-0.3-0.1-0.4s0-0.3,0-0.5s0-0.4,0.1-0.6
		c0-0.2,0.1-0.4,0.2-0.6c0.1-0.2,0.2-0.3,0.4-0.4s0.4-0.2,0.6-0.2c0.4,0,0.6,0.1,0.9,0.2s0.4,0.3,0.5,0.6c0.1,0.2,0.2,0.5,0.2,0.8
		s0.1,0.6,0.1,0.9s0,0.7-0.1,1.2c0,0.5-0.1,1.2-0.2,2c-0.1,0.8-0.1,1.8-0.2,2.8c-0.1,1-0.1,2.2-0.1,3.5c0,0.4,0,0.9,0.1,1.4
		c0,0.5,0.1,1,0.2,1.4c0.1,0.5,0.3,0.9,0.5,1.2s0.5,0.6,0.8,0.7c0.8-0.8,1.6-1.6,2.3-2.5s1.3-1.8,1.9-2.7c0.6-0.9,1.1-1.8,1.5-2.7
		s0.8-1.7,1.2-2.4c0.3-0.7,0.6-1.3,0.9-1.9c0.3-0.6,0.5-1.1,0.7-1.6s0.4-0.9,0.6-1.4c0.2-0.4,0.3-0.8,0.4-1.2c0-0.1,0.1-0.2,0.2-0.4
		c0.1-0.2,0.2-0.3,0.4-0.4c0.2-0.2,0.6-0.3,1.1-0.3c0.3,0,0.5,0.1,0.7,0.2s0.2,0.3,0.2,0.6c0,0.1,0,0.2,0,0.3c0,0.1,0,0.2-0.1,0.3
		c-0.2,0.5-0.5,1.2-0.8,1.9c-0.3,0.7-0.7,1.4-1.1,2.2c-0.3,0.7-0.7,1.5-1.1,2.3c-0.4,0.8-0.8,1.5-1.1,2.3c-0.4,0.7-0.8,1.5-1.2,2.1
		c-0.4,0.7-0.8,1.3-1.2,1.9c-0.3,0.5-0.8,1.2-1.4,2s-1.4,1.8-2.3,2.9c-0.2,0.2-0.3,0.3-0.5,0.5s-0.3,0.3-0.5,0.4
		c-0.2,0.1-0.4,0.2-0.5,0.3c-0.2,0.1-0.4,0.1-0.6,0.1c-0.4,0-0.7-0.1-0.9-0.2c-0.3-0.2-0.5-0.3-0.7-0.6s-0.4-0.5-0.5-0.8
		c-0.2-0.3-0.3-0.5-0.4-0.8c-0.2-0.3-0.3-0.7-0.4-1.1c-0.1-0.4-0.2-0.8-0.3-1.2s-0.1-0.8-0.2-1.3s-0.1-0.9-0.1-1.3
		c0-0.1,0-0.2,0-0.5s0-0.6,0-1s0-0.9,0-1.4s0-1.1,0-1.7s0-1.2,0-1.8c0-0.6,0-1.2,0-1.7L230.4,27.3L230.4,27.3z"/>
	<path class="st1" d="M245.8,41.5c0-0.3,0-0.6,0.1-1c0.3-1.2,0.7-2.4,1.1-3.6c0.4-1.2,0.8-2.3,1.1-3.5c0.3-1.1,0.6-2.1,0.8-2.9
		s0.4-1.5,0.6-2c0.2-0.6,0.3-1.1,0.5-1.5c0.1-0.4,0.3-0.8,0.5-1.2c0.1-0.2,0.2-0.5,0.4-0.7c0.1-0.3,0.3-0.5,0.4-0.7s0.3-0.4,0.5-0.5
		s0.3-0.2,0.5-0.2c0.4,0,0.6,0.1,0.8,0.2s0.3,0.2,0.4,0.3l0.1,0.5c0.1,0,0.3,0,0.5-0.1c0.2,0,0.4-0.1,0.6-0.1c0.2,0,0.4-0.1,0.6-0.1
		s0.3-0.1,0.4-0.1c0.6-0.2,1.1-0.3,1.6-0.4s1-0.2,1.4-0.3c0.4-0.1,0.9-0.1,1.3-0.2c0.4,0,0.8-0.1,1.2-0.1c0.4,0,0.7,0,1,0.1
		c0.3,0,0.5,0.1,0.6,0.2s0.3,0.2,0.3,0.3c0.1,0.1,0.1,0.2,0.1,0.3c0,0.1,0,0.2-0.1,0.3s-0.2,0.2-0.3,0.3s-0.3,0.2-0.5,0.3
		s-0.5,0.1-0.8,0.2c-0.1,0-0.3,0.1-0.6,0.1c-0.3,0-0.6,0.1-0.9,0.2s-0.7,0.1-1,0.2s-0.5,0.1-0.6,0.1l0,0c-0.1,0-0.2,0-0.4,0.1
		c-0.2,0.1-0.4,0.1-0.7,0.2c-0.3,0.1-0.6,0.2-0.9,0.3c-0.3,0.1-0.7,0.2-1,0.3c-0.3,0.1-0.6,0.2-0.9,0.3c-0.3,0.1-0.5,0.2-0.7,0.2
		c-0.5,0.2-1,0.5-1.3,0.8s-0.5,0.7-0.7,1.2c0,0.1-0.1,0.2-0.2,0.4s-0.1,0.4-0.2,0.7c-0.1,0.2-0.2,0.5-0.3,0.8s-0.2,0.5-0.3,0.8
		s-0.2,0.5-0.2,0.7c-0.1,0.2-0.1,0.4-0.1,0.5s0,0.2-0.1,0.2s0,0.1,0,0.2c0,0.1,0,0.1,0,0.1c0.1,0,0.4-0.1,0.8-0.2
		c0.4-0.1,0.9-0.3,1.5-0.4c0.6-0.2,1.2-0.4,1.8-0.6c0.6-0.2,1.3-0.4,1.9-0.6c0.6-0.2,1.1-0.3,1.6-0.4s0.8-0.2,1-0.2
		c0.3,0,0.5,0.1,0.6,0.2s0.2,0.2,0.2,0.3c0,0.3-0.1,0.6-0.3,0.8c-0.2,0.2-0.5,0.5-0.8,0.6c-0.1,0.1-0.3,0.1-0.6,0.2
		c-0.3,0.1-0.6,0.2-0.9,0.3s-0.7,0.2-1,0.3c-0.3,0.1-0.5,0.2-0.7,0.2c-0.9,0.3-1.6,0.6-2.1,0.8s-1,0.4-1.3,0.5s-0.6,0.2-0.8,0.3
		s-0.4,0.1-0.5,0.2c-0.2,0-0.3,0.1-0.5,0.1s-0.4,0.1-0.8,0.2c-0.1,0.2-0.2,0.5-0.3,0.8c-0.1,0.4-0.2,0.8-0.3,1.2s-0.2,0.8-0.2,1.1
		c-0.1,0.3-0.1,0.6-0.1,0.7c0,0.2,0,0.3,0.1,0.4c0,0.1,0.1,0.1,0.2,0.2c0.1,0,0.1,0,0.2,0s0.1,0,0.1,0c0.4,0,0.9-0.1,1.5-0.2
		c0.6-0.1,1.2-0.3,1.8-0.5s1.1-0.4,1.5-0.6c0.4-0.2,0.8-0.4,1.2-0.6s0.7-0.4,1.1-0.5s0.7-0.2,1.2-0.2c0.1,0,0.2,0,0.3,0
		c0.1,0,0.2,0.1,0.3,0.1c0.1,0,0.2,0.1,0.3,0.2c0.1,0.1,0.1,0.2,0.1,0.3c0,0.3-0.2,0.5-0.4,0.8c-0.2,0.2-0.5,0.5-0.8,0.7
		s-0.7,0.5-1.1,0.7s-0.8,0.4-1.3,0.6c-0.4,0.2-0.9,0.4-1.3,0.5c-0.4,0.2-0.8,0.3-1.1,0.4c-0.8,0.3-1.6,0.5-2.4,0.6
		c-0.8,0.1-1.5,0.2-2.1,0.2c-0.7,0-1.2-0.1-1.6-0.4C245.9,42.5,245.8,42.1,245.8,41.5z"/>
	<path class="st1" d="M281.5,25.6c-0.2,0.1-0.7,0.3-1.5,0.5c-1.6,0.6-2.6,0.9-3,0.9c-0.3,0-0.5-0.1-0.6-0.2
		c-0.1-0.2-0.2-0.4-0.2-0.6c0-0.6,0.3-1.1,0.8-1.4s1.7-0.7,3.5-1.1s2.8-0.7,3.2-0.7c0.6,0,0.8,0.3,0.8,0.8c0,0.4-0.2,0.9-0.6,1.5
		c-0.9,1.6-2,4.1-3.3,7.7s-2.1,6.4-2.4,8.6c0,0.3-0.2,0.6-0.5,0.8s-0.6,0.3-0.9,0.3c-0.8,0-1.2-0.4-1.2-1.1c0-1.2,0.6-3.6,1.9-7.2
		C279,30.6,280.3,27.7,281.5,25.6z"/>
	<path class="st1" d="M303.1,29.2c0,2-0.6,4-1.7,6.2c-1.1,2.1-2.6,3.9-4.3,5.2c-1.7,1.4-3.5,2-5.1,2c-1.7,0-3.1-0.6-4.2-1.7
		c-1.1-1.2-1.6-2.7-1.6-4.8c0-1.9,0.6-4,1.8-6c1.2-2.1,2.7-3.8,4.5-5.1c1.8-1.3,3.5-2,5.1-2c1.7,0,3.1,0.6,4,1.7
		S303.1,27.2,303.1,29.2z M288.8,36.4c0,1.1,0.3,2.1,0.9,2.8s1.4,1.1,2.3,1.1c1.3,0,2.5-0.6,3.9-1.8s2.4-2.7,3.3-4.5
		s1.3-3.6,1.3-5.2c0-1.1-0.3-2-0.8-2.7c-0.5-0.6-1.2-0.9-2.2-0.9c-1.3,0-2.6,0.6-4,1.7s-2.5,2.6-3.4,4.4
		C289.2,33.1,288.8,34.8,288.8,36.4z"/>
	<path class="st1" d="M305,41.5c0-0.2,0.1-0.4,0.2-0.6c0.2-0.4,1.2-1.6,2.9-3.6c1.7-2,3.5-3.9,5.4-5.7c2.5-2.5,4.3-4.2,5.5-5.3
		c1.9-1.7,2.9-2.6,3.2-2.8c0.3-0.2,0.6-0.2,0.8-0.2c0.2,0,0.4,0.1,0.6,0.3c0.2,0.2,0.3,0.4,0.3,0.7c0,0.2-0.3,0.6-0.8,1
		c-2.9,2.4-5.8,5.2-8.7,8.2s-5.1,5.6-6.8,7.9c-0.6,0.8-1.1,1.2-1.7,1.2c-0.3,0-0.5-0.1-0.7-0.3C305.1,42.1,305,41.8,305,41.5z
		 M311.2,22.9c0.8,0,1.5,0.3,2.1,0.8c0.6,0.6,0.9,1.2,0.9,1.9c0,1.5-0.5,2.8-1.5,3.9s-2.3,1.7-3.8,1.7c-0.9,0-1.6-0.3-2.2-0.9
		s-0.9-1.3-0.9-2.1c0-1.3,0.5-2.5,1.6-3.7C308.6,23.5,309.8,22.9,311.2,22.9z M310.9,24.8c-0.8,0-1.5,0.3-2,1s-0.7,1.4-0.7,2.2
		c0,0.4,0.1,0.7,0.4,1c0.2,0.3,0.5,0.4,0.9,0.4c0.7,0,1.2-0.4,1.8-1.1c0.5-0.8,0.8-1.5,0.8-2.2c0-0.3-0.1-0.6-0.3-0.8
		C311.4,24.9,311.2,24.8,310.9,24.8z M319,34.2c0.8,0,1.5,0.3,2.1,0.8c0.6,0.6,0.9,1.2,0.9,1.9c0,1.5-0.5,2.8-1.5,3.9
		c-1,1.1-2.3,1.7-3.8,1.7c-0.9,0-1.6-0.3-2.2-0.9c-0.6-0.6-0.9-1.3-0.9-2.1c0-1.3,0.5-2.5,1.6-3.7C316.3,34.8,317.6,34.2,319,34.2z
		 M318.6,36.1c-0.8,0-1.5,0.4-2,1c-0.5,0.7-0.7,1.4-0.7,2.2c0,0.4,0.1,0.7,0.4,1c0.2,0.3,0.5,0.4,0.9,0.4c0.6,0,1.2-0.4,1.8-1.2
		c0.5-0.8,0.8-1.5,0.8-2.2c0-0.3-0.1-0.6-0.3-0.8S318.9,36.1,318.6,36.1z"/>
	<path class="st1" d="M352.1,36.5c0,0.6-0.2,1.3-0.6,2s-1,1.3-1.8,1.9c-0.3,0.2-0.6,0.4-0.9,0.6c-0.4,0.2-0.8,0.4-1.2,0.6
		c-0.4,0.2-0.9,0.4-1.4,0.6c-0.5,0.2-1,0.4-1.4,0.5c-0.5,0.2-1,0.3-1.4,0.4c-0.5,0.1-0.9,0.1-1.3,0.1c-0.2,0-0.4,0-0.5,0
		s-0.3-0.1-0.4-0.2c-0.1-0.1-0.2-0.2-0.4-0.3c-0.1-0.1-0.2-0.3-0.4-0.5c-0.2,0.2-0.4,0.3-0.7,0.4c-0.2,0.1-0.5,0.1-0.7,0.1h-0.4
		c-0.1,0-0.1,0-0.2-0.1c-0.1,0-0.1-0.1-0.2-0.2s-0.1-0.1-0.1-0.2c0-0.1,0-0.2,0-0.2c0-0.5,0.1-0.9,0.2-1.3c0.1-0.4,0.3-0.8,0.4-1.2
		c0.2-0.8,0.5-1.6,0.8-2.4c0.3-0.8,0.5-1.7,0.7-2.5s0.5-1.7,0.7-2.5s0.4-1.6,0.6-2.3l0.4-1.6c0,0,0-0.1,0-0.2s0-0.3,0-0.4
		s0-0.3,0-0.4V27l0.1-0.2l0,0c0-0.2,0.1-0.3,0.2-0.5s0.2-0.4,0.3-0.6s0.2-0.3,0.4-0.4s0.3-0.2,0.4-0.2c0.2,0,0.3,0,0.6,0
		s0.4,0,0.6,0c0.1,0,0.2,0,0.3,0s0.2,0,0.3-0.1c0.1,0,0.3-0.1,0.5-0.2s0.5-0.2,0.8-0.3c0.5-0.2,1-0.3,1.4-0.4s0.8-0.2,1.2-0.3
		c0.4-0.1,0.7-0.1,1.1-0.2s0.7-0.1,1.1-0.1c0.5,0,0.9,0,1.4,0.1s0.8,0.2,1.2,0.4c0.3,0.2,0.6,0.5,0.8,0.8s0.3,0.7,0.3,1.2
		c0,0.8-0.2,1.5-0.6,2.1s-1,1.2-1.8,1.8c-0.8,0.5-1.7,1-2.8,1.5c-1.1,0.5-2.3,0.9-3.6,1.4c1.1,0.2,2,0.3,2.7,0.6
		c0.8,0.2,1.4,0.5,1.9,0.8s0.9,0.6,1.1,1C352,35.6,352.1,36,352.1,36.5z M347.6,35.3c-0.1,0-0.3,0-0.5-0.1c-0.2,0-0.5-0.1-0.8-0.1
		c-0.3-0.1-0.7-0.1-1-0.2s-0.7-0.1-1-0.2c-0.3-0.1-0.6-0.1-0.9-0.2c-0.3-0.1-0.5-0.1-0.6-0.1c-0.3,1.1-0.6,2.1-0.9,3.1s-0.5,2-0.8,3
		l0.9,0.1c0.2,0,0.4,0,0.5,0c0.2,0,0.2,0,0.3,0c0.4,0,0.7-0.1,1.2-0.2c0.4-0.1,0.9-0.2,1.3-0.4c0.5-0.2,0.9-0.3,1.4-0.5
		s0.9-0.4,1.4-0.7c0.2-0.1,0.3-0.2,0.5-0.4s0.4-0.3,0.5-0.5c0.2-0.2,0.3-0.4,0.4-0.6c0.1-0.2,0.1-0.4,0.1-0.6c0-0.4-0.2-0.7-0.6-0.9
		C348.7,35.6,348.2,35.4,347.6,35.3z M343.4,32.2c0.5-0.2,1-0.3,1.6-0.6s1.1-0.5,1.7-0.7c0.6-0.3,1.2-0.5,1.8-0.8
		c0.6-0.3,1.2-0.6,1.8-0.9l0,0c0.2-0.1,0.4-0.3,0.6-0.4c0.2-0.2,0.4-0.3,0.6-0.5s0.3-0.4,0.4-0.6s0.2-0.4,0.2-0.6
		c0-0.1,0-0.3-0.1-0.4s-0.2-0.3-0.3-0.4S351.3,26,351,26s-0.5-0.1-0.8-0.1c-0.4,0-0.9,0.1-1.5,0.2s-1.1,0.3-1.6,0.4
		c-0.5,0.2-1,0.4-1.4,0.6s-0.7,0.4-0.8,0.6c0,0-0.1,0.1-0.1,0.3c0,0.2-0.1,0.3-0.2,0.5s-0.1,0.4-0.2,0.5c-0.1,0.2-0.1,0.3-0.2,0.4
		c0,0.1-0.1,0.2-0.1,0.4c-0.1,0.2-0.1,0.4-0.2,0.6s-0.2,0.5-0.3,0.8C343.6,31.5,343.5,31.8,343.4,32.2z"/>
	<path class="st1" d="M356.1,44.5c0-0.2,0.1-0.4,0.2-0.6c0.1-0.2,0.3-0.4,0.5-0.7c0.2-0.2,0.4-0.5,0.7-0.7s0.5-0.5,0.8-0.8
		c0.5-0.5,1.1-1.1,1.7-1.7c0.6-0.6,1.1-1.2,1.7-1.8c0.2-0.3,0.4-0.5,0.5-0.7s0.2-0.3,0.3-0.4c0.1-0.1,0.1-0.2,0.1-0.3s0-0.2,0-0.2
		c-0.4-0.5-0.7-1-1-1.6s-0.5-1.1-0.8-1.8c-0.2-0.6-0.4-1.2-0.6-1.9c-0.2-0.6-0.4-1.2-0.5-1.8c-0.2-0.5-0.3-1.1-0.4-1.6
		c-0.1-0.6-0.3-1-0.5-1.4c-0.2-0.3-0.3-0.6-0.4-0.9s-0.2-0.7-0.2-1.1c0-0.2,0-0.4,0.1-0.6c0-0.2,0.1-0.4,0.2-0.6s0.2-0.4,0.4-0.5
		c0.2-0.1,0.4-0.2,0.6-0.2c0.3,0,0.5,0.1,0.7,0.3s0.4,0.4,0.6,0.7c0.2,0.3,0.3,0.6,0.5,0.9c0.1,0.3,0.2,0.6,0.3,0.9
		c0.1,0.4,0.2,0.9,0.3,1.4s0.3,1.2,0.4,1.8c0.1,0.6,0.3,1.2,0.4,1.7s0.2,1,0.3,1.3c0.1,0.4,0.2,0.8,0.4,1.1c0.1,0.4,0.3,0.7,0.4,0.9
		s0.3,0.5,0.4,0.6s0.3,0.2,0.4,0.2s0.2-0.1,0.4-0.4c0.7-1,1.5-2,2.3-3.1s1.6-2.2,2.3-3.3c0.3-0.4,0.5-0.8,0.7-1.1s0.4-0.7,0.6-1
		s0.3-0.6,0.5-0.9s0.3-0.6,0.4-0.9l0.3-1.4c0-0.1,0.1-0.3,0.2-0.4s0.2-0.3,0.3-0.4c0.1-0.1,0.2-0.2,0.4-0.3c0.1-0.1,0.3-0.1,0.5-0.1
		s0.4,0,0.6,0.1s0.3,0.2,0.4,0.4c0.1,0.2,0.2,0.3,0.2,0.5c0.1,0.2,0.1,0.4,0.1,0.6s0,0.5-0.1,0.8s-0.2,0.6-0.4,1s-0.3,0.7-0.5,1
		s-0.4,0.6-0.5,0.9c-1.3,1.8-2.6,3.7-3.9,5.5s-2.6,3.7-4,5.4c-1.2,1.5-2.4,2.9-3.5,4.2c-1.2,1.3-2.2,2.4-3.2,3.4
		c-0.2,0.2-0.4,0.4-0.7,0.6c-0.3,0.2-0.5,0.3-0.8,0.3c-0.2,0-0.3,0-0.4-0.1s-0.2-0.2-0.2-0.3s-0.1-0.2-0.1-0.4
		S356.1,44.7,356.1,44.5z"/>
	<path class="st1" d="M192.6,69.6c0-0.5,0.1-1.1,0.2-1.8c0.1-0.7,0.3-1.3,0.7-1.9c0.4-0.9,0.9-1.7,1.4-2.5s1.1-1.5,1.6-2.2
		c0.6-0.7,1.1-1.3,1.7-1.8c0.6-0.5,1.1-0.9,1.6-1.2l0,0c0.3-0.2,0.6-0.4,1-0.6c0.3-0.2,0.7-0.4,1.1-0.6s0.7-0.3,1.1-0.4
		s0.7-0.2,1.1-0.2c0.4,0,0.7,0.1,1.1,0.2c0.3,0.2,0.6,0.4,0.9,0.6s0.5,0.6,0.6,0.9c0.1,0.3,0.2,0.7,0.2,1.1c0,0.3,0,0.5,0,0.6
		s-0.1,0.3-0.1,0.4c-0.1,0.1-0.2,0.1-0.3,0.1s-0.2,0-0.4,0s-0.3,0-0.5-0.1c-0.1-0.1-0.2-0.2-0.3-0.3s-0.1-0.3-0.2-0.4
		c0-0.1-0.1-0.3-0.1-0.4s-0.1-0.2-0.2-0.3c-0.1-0.1-0.2-0.1-0.3-0.1c-0.4,0-0.7,0.1-1.2,0.2c-0.4,0.2-0.8,0.4-1.3,0.6
		c-0.4,0.3-0.9,0.6-1.3,0.9c-0.4,0.3-0.8,0.7-1.2,1c-0.4,0.4-0.8,0.7-1.1,1.1c-0.3,0.3-0.6,0.7-0.9,0.9c-0.4,0.5-0.7,0.9-1,1.4
		s-0.5,0.9-0.8,1.4c-0.2,0.5-0.4,1-0.5,1.5s-0.2,1-0.2,1.6c0,0.4,0.1,0.8,0.2,1.1c0.1,0.3,0.3,0.6,0.4,0.8c0.2,0.3,0.4,0.5,0.6,0.6
		s0.5,0.2,0.9,0.2c0.8,0,1.5-0.1,2.1-0.2s1.3-0.3,1.8-0.6c0.6-0.2,1.2-0.5,1.7-0.9c0.6-0.3,1.1-0.7,1.7-1.1h0.3c0.1,0,0.2,0,0.4,0.1
		s0.2,0.1,0.3,0.2s0.2,0.2,0.2,0.3c0.1,0.1,0.1,0.3,0.1,0.4c0,0.3-0.1,0.6-0.3,0.9s-0.5,0.6-0.9,0.8c-0.4,0.3-0.8,0.5-1.2,0.7
		c-0.5,0.2-0.9,0.4-1.3,0.6c-0.4,0.2-0.9,0.3-1.2,0.5c-0.4,0.1-0.7,0.2-0.9,0.3c-0.2,0-0.4,0.1-0.6,0.1c-0.2,0-0.4,0.1-0.6,0.1
		s-0.5,0.1-0.9,0.1c-0.3,0-0.8,0-1.3,0c-0.3,0-0.6-0.1-0.9-0.2c-0.3-0.1-0.5-0.2-0.7-0.4c-0.2-0.1-0.4-0.3-0.5-0.4s-0.3-0.3-0.4-0.4
		c-0.5-0.6-0.9-1.2-1.1-1.8C192.7,71,192.6,70.3,192.6,69.6z"/>
	<path class="st1" d="M207.9,74.9c0-0.1,0-0.2,0-0.4s0.1-0.3,0.1-0.5s0.1-0.3,0.1-0.5s0.1-0.3,0.1-0.4l5.4-17.8
		c0-0.1,0.1-0.1,0.1-0.2c0,0,0.1-0.1,0.2-0.1c0.1,0,0.2,0,0.3,0h0.2c0.2,0,0.4,0,0.5,0.1s0.2,0.2,0.3,0.3s0.1,0.2,0.2,0.4
		s0,0.3,0,0.5c0,0.1,0,0.3,0,0.4c0,0.2,0,0.3-0.1,0.5c0,0.1-0.1,0.3-0.1,0.4c0,0.1-0.1,0.2-0.1,0.3l-2.8,9.5l1.3-0.1
		c1.4-0.3,2.9-0.6,4.3-1c1.5-0.3,2.9-0.7,4.3-1c0.2-0.1,0.3-0.2,0.4-0.5c0.1-0.2,0.2-0.6,0.4-1c0.1-0.4,0.3-0.9,0.4-1.4
		s0.3-1.1,0.5-1.8l0.3-0.9c0.1-0.4,0.2-0.9,0.3-1.4s0.2-0.9,0.3-1.3c0.1-0.4,0.3-0.7,0.5-0.9s0.5-0.4,0.8-0.4c0.5,0,0.8,0.1,1.1,0.4
		c0.2,0.3,0.4,0.7,0.4,1.1c0,0.3-0.1,0.7-0.3,1.4s-0.5,1.4-0.8,2.4c-0.1,0.3-0.2,0.7-0.4,1.1c-0.1,0.4-0.3,0.7-0.4,1
		c-0.1,0.3-0.2,0.6-0.3,0.9s-0.1,0.5-0.1,0.7s0,0.3,0.1,0.5c0,0.2,0.1,0.3,0.1,0.5c0,0.4-0.1,0.7-0.3,1s-0.5,0.5-0.9,0.8
		c0,0.1,0,0.2-0.1,0.3s-0.1,0.3-0.1,0.5l-0.2,0.7c-0.1,0.5-0.2,1-0.3,1.5s-0.2,1-0.2,1.5c-0.1,0.5-0.1,1-0.2,1.4
		c-0.1,0.5-0.2,1-0.3,1.4c0,0.2-0.1,0.3-0.2,0.5c-0.1,0.1-0.2,0.3-0.4,0.4c-0.1,0.1-0.3,0.2-0.5,0.2c-0.2,0.1-0.3,0.1-0.5,0.1
		s-0.4,0-0.5-0.1s-0.2-0.2-0.3-0.3c-0.1-0.1-0.1-0.3-0.2-0.4s0-0.3,0-0.4s0-0.3,0-0.5s0.1-0.5,0.1-0.9s0.1-0.7,0.2-1.1
		s0.1-0.8,0.2-1.2c0.2-0.9,0.4-1.9,0.6-3h-0.1c-0.2,0-0.5,0-0.7,0.1c-0.3,0-0.6,0.1-1,0.2c-0.2,0.1-0.4,0.1-0.8,0.2
		c-0.3,0.1-0.7,0.2-1.1,0.3c-0.4,0.1-0.9,0.2-1.4,0.4c-0.5,0.1-1,0.3-1.5,0.4l-3.6,1c-0.2,0.3-0.3,0.7-0.5,1.1
		c-0.1,0.4-0.3,0.8-0.4,1.2c-0.1,0.4-0.2,0.8-0.3,1.2c-0.1,0.4-0.2,0.8-0.3,1.1c0,0.1-0.1,0.2-0.2,0.3c-0.1,0.1-0.2,0.2-0.3,0.3
		c-0.1,0.1-0.2,0.2-0.3,0.2c-0.1,0.1-0.2,0.1-0.3,0.1c-0.2,0-0.4,0-0.5-0.1s-0.2-0.2-0.3-0.3c-0.1-0.1-0.1-0.3-0.2-0.5
		S207.9,75.1,207.9,74.9z"/>
	<path class="st1" d="M228.7,68.5c0.2-0.7,0.4-1.4,0.7-2.1s0.7-1.4,1.1-2.1c0.4-0.7,0.9-1.4,1.4-2.1c0.5-0.7,1-1.3,1.6-2
		c0.6-0.6,1.2-1.2,1.8-1.8s1.2-1.1,1.8-1.6c0.3-0.2,0.5-0.3,0.8-0.4c0.2-0.1,0.5-0.1,0.8-0.1s0.5,0,0.8,0.1s0.4,0.2,0.7,0.5
		c0.1,0.1,0.1,0.2,0.2,0.2c0.1,0.1,0.2,0.1,0.2,0.1s0,0,0.1-0.1l0.1-0.1c0-0.1,0.1-0.1,0.1-0.2c0-0.1,0.1-0.1,0.2-0.1
		c0.2-0.1,0.3-0.1,0.5-0.1s0.4,0,0.6,0c0.4,0,0.8,0.1,1.2,0.2s0.7,0.4,1,0.6c0.7,0.6,1.2,1.4,1.5,2.3c0.4,0.9,0.5,1.8,0.5,2.8
		c0,0.9-0.1,1.9-0.4,2.9c-0.2,0.9-0.6,1.8-1,2.7c-0.4,0.9-0.9,1.7-1.5,2.5s-1.2,1.5-2,2.1c-0.7,0.6-1.5,1.2-2.3,1.6
		c-0.8,0.5-1.7,0.8-2.5,1.1c-0.9,0.3-1.8,0.4-2.7,0.4c-0.8,0-1.6-0.1-2.3-0.4s-1.2-0.6-1.7-1.1s-0.8-1-1.1-1.7s-0.4-1.4-0.4-2.2
		c0-0.3,0-0.7,0.1-1C228.6,69.2,228.6,68.9,228.7,68.5z M231,69.4c-0.1,0.4-0.1,0.8-0.1,1.2c0,0.5,0.1,0.9,0.3,1.3s0.4,0.7,0.7,0.9
		c0.3,0.3,0.7,0.4,1.1,0.6c0.4,0.1,0.9,0.2,1.5,0.2s1.3-0.1,1.9-0.3c0.6-0.2,1.3-0.5,1.9-0.9c0.6-0.4,1.2-0.8,1.8-1.3
		s1.1-1.1,1.6-1.8c0.5-0.7,0.9-1.4,1.3-2.2c0.4-0.8,0.7-1.6,0.9-2.5c0.1-0.3,0.2-0.7,0.2-1s0.1-0.7,0.1-1c0-0.5-0.1-1-0.2-1.5
		c-0.1-0.5-0.3-0.9-0.6-1.3c-0.3-0.4-0.6-0.7-1.1-0.9s-1-0.3-1.6-0.3c-0.1,0-0.2,0-0.2,0.1s-0.1,0.2-0.2,0.3c0,0.1-0.1,0.2-0.2,0.3
		c-0.1,0.1-0.1,0.2-0.2,0.3s-0.2,0.2-0.3,0.2c-0.1,0.1-0.3,0.1-0.5,0.1s-0.3,0-0.4-0.1c-0.1-0.1-0.2-0.2-0.3-0.3s-0.1-0.1-0.1-0.1
		h-0.1c-0.1,0-0.2,0-0.3,0.1s-0.3,0.2-0.4,0.3c-0.1,0.1-0.3,0.2-0.4,0.3c-0.1,0.1-0.2,0.2-0.3,0.3c-0.6,0.6-1.2,1.3-1.8,2
		s-1.2,1.5-1.7,2.3s-1,1.6-1.3,2.4C231.4,67.9,231.1,68.7,231,69.4z"/>
	<path class="st1" d="M248.2,68.5c0.2-0.7,0.4-1.4,0.7-2.1s0.7-1.4,1.1-2.1c0.4-0.7,0.9-1.4,1.4-2.1c0.5-0.7,1-1.3,1.6-2
		c0.6-0.6,1.2-1.2,1.8-1.8s1.2-1.1,1.8-1.6c0.3-0.2,0.5-0.3,0.8-0.4c0.2-0.1,0.5-0.1,0.8-0.1s0.5,0,0.8,0.1s0.4,0.2,0.7,0.5
		c0.1,0.1,0.1,0.2,0.2,0.2c0.1,0.1,0.2,0.1,0.2,0.1s0,0,0.1-0.1l0.1-0.1c0-0.1,0.1-0.1,0.1-0.2c0-0.1,0.1-0.1,0.2-0.1
		c0.2-0.1,0.3-0.1,0.5-0.1s0.4,0,0.6,0c0.4,0,0.8,0.1,1.2,0.2s0.7,0.4,1,0.6c0.7,0.6,1.2,1.4,1.5,2.3c0.4,0.9,0.5,1.8,0.5,2.8
		c0,0.9-0.1,1.9-0.4,2.9c-0.2,0.9-0.6,1.8-1,2.7c-0.4,0.9-0.9,1.7-1.5,2.5s-1.2,1.5-2,2.1c-0.7,0.6-1.5,1.2-2.3,1.6
		c-0.8,0.5-1.7,0.8-2.5,1.1c-0.9,0.3-1.8,0.4-2.7,0.4c-0.8,0-1.6-0.1-2.3-0.4s-1.2-0.6-1.7-1.1s-0.8-1-1.1-1.7s-0.4-1.4-0.4-2.2
		c0-0.3,0-0.7,0.1-1C248.1,69.2,248.1,68.9,248.2,68.5z M250.5,69.4c-0.1,0.4-0.1,0.8-0.1,1.2c0,0.5,0.1,0.9,0.3,1.3
		s0.4,0.7,0.7,0.9c0.3,0.3,0.7,0.4,1.1,0.6c0.4,0.1,0.9,0.2,1.5,0.2s1.3-0.1,1.9-0.3c0.6-0.2,1.3-0.5,1.9-0.9s1.2-0.8,1.8-1.3
		c0.6-0.5,1.1-1.1,1.6-1.8c0.5-0.7,0.9-1.4,1.3-2.2c0.4-0.8,0.7-1.6,0.9-2.5c0.1-0.3,0.2-0.7,0.2-1s0.1-0.7,0.1-1
		c0-0.5-0.1-1-0.2-1.5s-0.3-0.9-0.6-1.3c-0.3-0.4-0.6-0.7-1.1-0.9s-1-0.3-1.6-0.3c-0.1,0-0.2,0-0.2,0.1s-0.1,0.2-0.2,0.3
		c0,0.1-0.1,0.2-0.2,0.3s-0.1,0.2-0.2,0.3s-0.2,0.2-0.3,0.2c-0.1,0.1-0.3,0.1-0.5,0.1s-0.3,0-0.4-0.1s-0.2-0.2-0.3-0.3
		c-0.1-0.1-0.1-0.1-0.1-0.1h-0.1c-0.1,0-0.2,0-0.3,0.1s-0.3,0.2-0.4,0.3s-0.3,0.2-0.4,0.3s-0.2,0.2-0.3,0.3c-0.6,0.6-1.2,1.3-1.8,2
		s-1.2,1.5-1.7,2.3s-1,1.6-1.3,2.4C250.9,67.9,250.6,68.7,250.5,69.4z"/>
	<path class="st1" d="M267.4,72.2c0.3,0.1,0.6,0.2,0.9,0.4c0.3,0.1,0.6,0.3,1,0.4s0.7,0.2,1.1,0.3c0.4,0.1,0.8,0.1,1.2,0.1
		c0.5,0,1-0.1,1.5-0.2s1-0.3,1.5-0.5s0.9-0.5,1.4-0.8c0.4-0.3,0.8-0.7,1.2-1.1c0.4-0.5,0.7-0.9,1-1.2s0.5-0.7,0.6-1
		c0.2-0.3,0.3-0.5,0.4-0.7s0.1-0.4,0.1-0.5c0-0.2-0.1-0.4-0.2-0.6s-0.4-0.3-0.6-0.4c-0.3-0.1-0.5-0.2-0.9-0.2c-0.3,0-0.7-0.1-1-0.1
		c-0.2,0-0.4,0-0.7,0c-0.3,0-0.6,0-0.8,0c-0.3,0-0.6,0-0.8,0s-0.5,0-0.7,0c-0.3,0-0.6,0-0.9-0.1s-0.6-0.2-0.9-0.3
		c-0.3-0.2-0.6-0.4-0.8-0.6c-0.3-0.3-0.5-0.6-0.6-1c-0.1-0.1-0.1-0.3-0.1-0.4c0-0.2-0.1-0.4-0.1-0.5c0-0.2,0-0.4,0-0.6
		c0-0.2,0.1-0.4,0.1-0.6c0.1-0.4,0.3-0.9,0.6-1.4c0.3-0.5,0.6-0.9,1-1.3c0.4-0.4,0.8-0.9,1.3-1.3c0.5-0.4,1-0.8,1.5-1.2s1-0.7,1.5-1
		s0.9-0.5,1.4-0.7c0.6-0.3,1.2-0.5,1.8-0.6c0.6-0.1,1.2-0.2,1.8-0.2c0.4,0,0.7,0,1,0.1s0.6,0.2,0.8,0.4s0.4,0.4,0.6,0.7
		s0.2,0.6,0.2,0.9c0,0.2,0,0.4-0.1,0.5c0,0.1-0.1,0.2-0.2,0.3s-0.1,0.1-0.2,0.2s-0.2,0.1-0.3,0.1c-0.2,0-0.5,0-0.7-0.1
		s-0.4-0.1-0.6-0.2c-0.2-0.1-0.4-0.1-0.6-0.2c-0.2-0.1-0.4-0.1-0.6-0.1c-0.7,0-1.3,0.1-2,0.4s-1.3,0.6-2,1c-0.6,0.4-1.3,0.9-1.8,1.4
		c-0.6,0.5-1.1,1-1.5,1.5c-0.2,0.2-0.4,0.5-0.5,0.7s-0.2,0.5-0.2,0.7c0,0.3,0.1,0.6,0.4,0.8s0.6,0.3,1,0.3c0.2,0,0.5,0,0.8,0
		s0.6,0,0.9,0s0.6,0,0.9,0s0.6,0,0.8,0c0.6,0,1.1,0.1,1.6,0.2s1,0.4,1.4,0.7s0.7,0.7,0.9,1.1c0.2,0.5,0.4,1,0.4,1.5
		c0,0.4-0.1,0.7-0.2,1.1s-0.3,0.7-0.4,1.1c-0.2,0.4-0.4,0.7-0.6,1.1s-0.5,0.7-0.8,1.1c-0.5,0.6-1,1.2-1.6,1.8
		c-0.6,0.6-1.2,1-1.9,1.4c-0.7,0.4-1.4,0.7-2.1,1c-0.7,0.2-1.5,0.4-2.3,0.4c-0.3,0-0.7,0-1-0.1s-0.7-0.2-1.1-0.3
		c-0.3-0.1-0.7-0.3-1-0.5s-0.6-0.4-0.8-0.6c-0.2-0.2-0.4-0.5-0.6-0.8c-0.1-0.3-0.2-0.6-0.2-0.9c0-0.2,0-0.3,0.1-0.5
		C267.1,72.3,267.2,72.2,267.4,72.2z"/>
	<path class="st1" d="M286,67.7c0.1-0.3,0.2-0.7,0.3-1.2c0.1-0.4,0.2-0.9,0.4-1.3c0.1-0.5,0.3-0.9,0.4-1.4s0.3-0.9,0.4-1.3
		s0.2-0.8,0.4-1.2c0.1-0.4,0.2-0.7,0.3-0.9c0.2-0.6,0.3-1.2,0.5-1.7c0.2-0.6,0.3-1.2,0.4-1.8c0.2-0.3,0.4-0.6,0.7-0.7
		c0.3-0.1,0.6-0.2,1-0.2c0.3,0.2,0.5,0.4,0.7,0.6c0.2,0.3,0.2,0.6,0.2,0.9c0,0.2,0,0.5-0.1,0.8s-0.2,0.6-0.3,1
		c-0.1,0.3-0.2,0.7-0.4,1.1c-0.1,0.4-0.3,0.8-0.4,1.2c-0.2,0.7-0.5,1.5-0.7,2.2s-0.5,1.5-0.7,2.3c-0.1,0.2-0.1,0.4-0.2,0.6
		s-0.1,0.4-0.2,0.7c-0.1,0.2-0.2,0.5-0.2,0.8c-0.1,0.3-0.2,0.7-0.3,1.1c-0.1,0.5-0.2,0.9-0.3,1.4s-0.2,1-0.2,1.4s-0.2,1-0.2,1.5
		s-0.2,1-0.3,1.5c0,0.2-0.1,0.3-0.2,0.5c-0.1,0.1-0.2,0.3-0.4,0.4c-0.1,0.1-0.3,0.2-0.5,0.2c-0.2,0.1-0.3,0.1-0.5,0.1s-0.3,0-0.4,0
		s-0.2-0.1-0.3-0.2c-0.1-0.1-0.2-0.2-0.3-0.4s-0.1-0.3-0.1-0.5v-0.1V75L286,67.7z"/>
	<path class="st1" d="M296.4,59.2c0.1-0.2,0.1-0.5,0.2-0.7c0.1-0.3,0.2-0.5,0.3-0.7c0.1-0.2,0.3-0.4,0.5-0.5s0.5-0.2,0.8-0.2
		s0.6,0.1,0.8,0.3s0.5,0.4,0.7,0.5c0.2,0.2,0.5,0.5,0.7,0.9c0.2,0.5,0.4,1,0.7,1.7c0.2,0.7,0.5,1.4,0.7,2.3s0.6,1.8,0.9,2.7
		s0.7,1.9,1.1,2.9s0.8,1.9,1.3,2.9c0.1,0.1,0.2,0.3,0.3,0.5c0.1,0.2,0.2,0.4,0.3,0.5c0.1,0.2,0.2,0.3,0.3,0.4
		c0.1,0.1,0.2,0.2,0.2,0.2s0.1-0.1,0.1-0.2s0.1-0.3,0.1-0.5s0.1-0.4,0.1-0.6s0.1-0.4,0.1-0.5c0.2-0.4,0.4-0.9,0.6-1.4
		s0.4-1.2,0.7-1.9c0.2-0.8,0.5-1.6,0.8-2.7c0.3-1,0.6-2.3,1-3.7c0.1-0.3,0.2-0.7,0.3-1.2c0.1-0.4,0.2-0.9,0.3-1.3s0.2-0.9,0.2-1.3
		s0.1-0.8,0.1-1.1c0-0.1,0-0.1,0-0.3s0-0.3,0-0.5s0.1-0.3,0.1-0.5s0.1-0.3,0.1-0.5c0.1-0.2,0.1-0.3,0.2-0.4s0.2-0.1,0.3-0.1
		s0.3,0,0.5,0.1c0.2,0,0.3,0.1,0.5,0.2c0.2,0.2,0.3,0.5,0.5,0.8c0.1,0.3,0.2,0.8,0.2,1.3c0,0.3,0,0.8-0.1,1.2
		c-0.1,0.5-0.2,1-0.3,1.6c-0.1,0.6-0.2,1.1-0.4,1.7c-0.1,0.6-0.3,1.2-0.4,1.7s-0.3,1-0.4,1.5c-0.1,0.5-0.2,0.8-0.3,1.1
		c-0.2,0.5-0.3,1-0.5,1.6c-0.2,0.5-0.4,1.1-0.6,1.7s-0.4,1.2-0.7,1.9s-0.5,1.4-0.8,2.2c-0.1,0.3-0.3,0.7-0.5,1s-0.4,0.7-0.6,0.9
		c-0.2,0.3-0.5,0.5-0.8,0.7s-0.6,0.3-0.9,0.3c-0.2,0-0.4,0-0.6-0.1s-0.4-0.2-0.6-0.4c-0.7-0.8-1.4-1.8-2-2.9s-1.1-2.2-1.5-3.4
		s-0.8-2.4-1.2-3.6c-0.3-1.2-0.7-2.3-0.9-3.4l-0.1-0.3c0-0.1-0.1-0.3-0.1-0.4s-0.1-0.2-0.1-0.4c0-0.1-0.1-0.2-0.1-0.3
		s-0.1-0.1-0.1-0.1c-0.1,0-0.1,0.1-0.2,0.3s-0.2,0.4-0.2,0.7c-0.1,0.2-0.2,0.5-0.2,0.7c-0.1,0.2-0.1,0.4-0.1,0.4
		c-0.1,0.2-0.2,0.6-0.3,1c-0.1,0.4-0.3,0.9-0.4,1.5c-0.2,0.5-0.3,1.1-0.5,1.7s-0.4,1.2-0.5,1.8c-0.2,0.6-0.3,1.1-0.5,1.6
		s-0.3,0.9-0.4,1.2c-0.1,0.2-0.2,0.5-0.3,0.9c-0.1,0.4-0.2,0.7-0.3,1.1c-0.1,0.4-0.2,0.7-0.3,1s-0.2,0.5-0.2,0.6
		c-0.1,0.3-0.3,0.6-0.5,0.8c-0.2,0.2-0.4,0.3-0.6,0.3c-0.1,0-0.3,0-0.4-0.1s-0.3-0.2-0.4-0.3s-0.2-0.3-0.3-0.4
		c-0.1-0.2-0.1-0.3-0.1-0.4s0-0.2,0.1-0.3c0-0.2,0.1-0.4,0.2-0.8l0.3-1.4L296.4,59.2z"/>
	<path class="st1" d="M328.5,65.9c-0.1,0-0.3,0.1-0.6,0.2s-0.6,0.2-0.9,0.3c-0.3,0.1-0.7,0.2-1.1,0.4c-0.4,0.1-0.8,0.3-1.1,0.4
		s-0.7,0.2-0.9,0.3s-0.4,0.1-0.5,0.2c-0.1,0-0.1,0-0.2,0.1c-0.1,0-0.2,0.1-0.3,0.1s-0.2,0.1-0.3,0.1s-0.2,0.1-0.2,0.1
		c-0.2,0-0.4,0-0.5-0.1s-0.3-0.2-0.4-0.3c-0.1-0.1-0.2-0.3-0.2-0.4c-0.1-0.2-0.1-0.3-0.1-0.5c0-0.4,0.1-0.7,0.3-0.9s0.4-0.4,0.7-0.5
		c0.3-0.1,0.6-0.2,0.9-0.2s0.6-0.1,0.7-0.1c0,0,0.1,0,0.2,0s0.2-0.1,0.3-0.1c0.1,0,0.2-0.1,0.3-0.1s0.2,0,0.2,0
		c0.2-0.1,0.4-0.2,0.7-0.3c0.3-0.1,0.7-0.3,1.1-0.4s0.8-0.3,1.2-0.4s0.7-0.2,1-0.2s0.6,0.1,0.9,0.2c0.2,0.1,0.5,0.2,0.6,0.4
		c0.2,0.2,0.3,0.4,0.4,0.6s0.1,0.5,0.1,0.8c0,0.1,0,0.3,0,0.4s0,0.3-0.1,0.5c-0.3,1-0.7,1.9-1.2,2.8s-1.2,1.6-1.9,2.3
		c-0.7,0.7-1.6,1.3-2.4,1.9c-0.9,0.5-1.8,1-2.8,1.3l0,0c-0.2,0.1-0.3,0.1-0.6,0.2c-0.2,0.1-0.4,0.1-0.7,0.2
		c-0.2,0.1-0.5,0.1-0.7,0.1s-0.4,0.1-0.6,0.1c-0.3,0-0.6,0-0.9,0c-0.2,0-0.4,0-0.6-0.1s-0.3-0.1-0.4-0.1s-0.2-0.1-0.3-0.1
		c-0.5-0.2-1-0.5-1.4-0.8s-0.8-0.7-1.1-1.1s-0.5-0.9-0.7-1.4s-0.3-1.1-0.3-1.7c0-0.7,0.1-1.3,0.3-2.1c0.2-0.7,0.5-1.4,0.9-2.2
		c0.4-0.7,0.8-1.5,1.3-2.2s1-1.4,1.6-2.1c0.6-0.7,1.2-1.3,1.8-1.8c0.6-0.6,1.3-1.1,1.9-1.5c0.4-0.3,0.8-0.5,1.2-0.8
		c0.4-0.3,0.9-0.5,1.4-0.7s0.9-0.4,1.4-0.5s0.9-0.2,1.4-0.2c0.4,0,0.7,0.1,1.1,0.2s0.7,0.3,1,0.4c0.3,0.2,0.5,0.4,0.7,0.7
		s0.3,0.6,0.3,0.9c0,0.2,0,0.3-0.1,0.5c0,0.1-0.1,0.2-0.1,0.4s-0.1,0.3-0.2,0.4l0,0c0,0.1-0.1,0.2-0.2,0.2s-0.2,0-0.3,0
		c-0.3,0-0.5-0.1-0.7-0.2c-0.2-0.1-0.4-0.3-0.5-0.4c-0.2-0.2-0.3-0.3-0.5-0.4c-0.2-0.1-0.3-0.2-0.6-0.2h-0.4
		c-0.7,0.2-1.4,0.4-2.2,0.8s-1.6,0.9-2.3,1.5c-0.8,0.6-1.5,1.3-2.2,2s-1.3,1.5-1.9,2.3c-0.5,0.8-1,1.6-1.3,2.4s-0.5,1.6-0.5,2.3
		c0,0.6,0.1,1.1,0.4,1.6c0.3,0.4,0.7,0.9,1.2,1.3l0,0c0.3,0.2,0.6,0.3,0.9,0.5s0.6,0.2,1,0.2c0.3,0,0.7-0.1,1-0.2s0.8-0.3,1.1-0.5
		s0.7-0.4,1.1-0.6s0.7-0.4,1-0.6c0.9-0.6,1.7-1.3,2.4-2.2s1.2-1.7,1.6-2.6c0,0,0-0.1,0.1-0.1C328.5,66,328.5,66,328.5,65.9
		L328.5,65.9z"/>
	<path class="st1" d="M351.6,73.2c0.3-1.5,0.7-3,1.1-4.5s0.8-3,1.2-4.5c0.2-0.6,0.3-1.2,0.4-1.7s0.2-1,0.3-1.4
		c0.1-0.4,0.2-0.8,0.2-1.1s0.1-0.6,0.1-0.9c0-0.1,0-0.1,0-0.2s0-0.1,0-0.2c-0.1,0-0.3,0-0.6,0.1c-0.3,0.1-0.7,0.2-1.1,0.4
		s-0.9,0.3-1.3,0.5c-0.5,0.2-0.9,0.4-1.3,0.6c-0.3,0.2-0.6,0.3-0.8,0.4c-0.2,0.1-0.4,0.2-0.5,0.2c-0.2,0.1-0.3,0.1-0.4,0.1
		s-0.3,0-0.4,0c-0.3,0-0.5-0.1-0.7-0.3s-0.3-0.5-0.3-0.8c0-0.2,0-0.4,0.1-0.5s0.1-0.3,0.2-0.4c0.1-0.1,0.2-0.2,0.3-0.3
		s0.3-0.2,0.5-0.3c2.3-1.2,4.5-2,6.8-2.6c2.3-0.5,4.6-0.8,7-0.8c0.2,0,0.4,0,0.7,0c0.3,0,0.5,0,0.8,0s0.5,0.1,0.8,0.1
		s0.5,0.1,0.7,0.1c0.2,0.1,0.4,0.2,0.5,0.4s0.2,0.4,0.2,0.6c0,0.2,0,0.4,0,0.5c0,0.2-0.1,0.3-0.2,0.4c-0.1,0.1-0.2,0.2-0.3,0.3
		c-0.1,0.1-0.3,0.1-0.5,0.1c-0.3,0-0.7-0.1-1.1-0.1c-0.4-0.1-0.8-0.1-1.2-0.1c-0.8,0-1.7,0-2.5,0.1s-1.7,0.2-2.6,0.4l-0.1,0.1
		c0,0.1,0,0.2,0,0.3c0,0.5-0.1,0.9-0.1,1.3c-0.1,0.4-0.1,0.7-0.2,1.1c-0.1,0.4-0.2,0.8-0.3,1.2c-0.1,0.4-0.3,0.9-0.5,1.5
		s-0.4,1.3-0.6,2.1s-0.5,1.8-0.8,3l-0.6,2.6c-0.2,0.6-0.3,1.1-0.4,1.6s-0.2,0.9-0.2,1.4c0,0.2-0.2,0.3-0.4,0.4
		c-0.2,0.1-0.5,0.2-0.8,0.2c-0.2,0-0.4-0.1-0.5-0.2c-0.2-0.1-0.3-0.2-0.4-0.4c-0.1-0.2-0.2-0.3-0.2-0.5
		C351.6,73.6,351.6,73.4,351.6,73.2z"/>
	<path class="st1" d="M363.6,68.5c0.2-0.7,0.4-1.4,0.7-2.1c0.3-0.7,0.7-1.4,1.1-2.1c0.4-0.7,0.9-1.4,1.4-2.1c0.5-0.7,1-1.3,1.6-2
		c0.6-0.6,1.2-1.2,1.8-1.8c0.6-0.6,1.2-1.1,1.8-1.6c0.3-0.2,0.5-0.3,0.8-0.4c0.2-0.1,0.5-0.1,0.8-0.1s0.5,0,0.8,0.1s0.4,0.2,0.7,0.5
		c0.1,0.1,0.1,0.2,0.2,0.2c0.1,0.1,0.2,0.1,0.2,0.1s0,0,0.1-0.1l0.1-0.1c0-0.1,0.1-0.1,0.1-0.2c0-0.1,0.1-0.1,0.2-0.1
		c0.2-0.1,0.3-0.1,0.5-0.1s0.4,0,0.6,0c0.4,0,0.8,0.1,1.2,0.2s0.7,0.4,1,0.6c0.7,0.6,1.2,1.4,1.5,2.3c0.4,0.9,0.5,1.8,0.5,2.8
		c0,0.9-0.1,1.9-0.4,2.9c-0.2,0.9-0.6,1.8-1,2.7c-0.4,0.9-0.9,1.7-1.5,2.5s-1.2,1.5-2,2.1c-0.7,0.6-1.5,1.2-2.3,1.6
		c-0.8,0.5-1.7,0.8-2.5,1.1c-0.9,0.3-1.8,0.4-2.7,0.4c-0.8,0-1.6-0.1-2.3-0.4s-1.2-0.6-1.7-1.1s-0.8-1-1.1-1.7s-0.4-1.4-0.4-2.2
		c0-0.3,0-0.7,0.1-1C363.5,69.2,363.5,68.9,363.6,68.5z M365.9,69.4c-0.1,0.4-0.1,0.8-0.1,1.2c0,0.5,0.1,0.9,0.3,1.3
		c0.2,0.4,0.4,0.7,0.7,0.9c0.3,0.3,0.7,0.4,1.1,0.6c0.4,0.1,0.9,0.2,1.5,0.2s1.3-0.1,1.9-0.3c0.6-0.2,1.3-0.5,1.9-0.9
		s1.2-0.8,1.8-1.3c0.6-0.5,1.1-1.1,1.6-1.8c0.5-0.7,0.9-1.4,1.3-2.2c0.4-0.8,0.7-1.6,0.9-2.5c0.1-0.3,0.2-0.7,0.2-1s0.1-0.7,0.1-1
		c0-0.5-0.1-1-0.2-1.5s-0.3-0.9-0.6-1.3c-0.3-0.4-0.6-0.7-1.1-0.9s-1-0.3-1.6-0.3c-0.1,0-0.2,0-0.2,0.1s-0.1,0.2-0.2,0.3
		c0,0.1-0.1,0.2-0.2,0.3s-0.1,0.2-0.2,0.3s-0.2,0.2-0.3,0.2c-0.1,0.1-0.3,0.1-0.5,0.1s-0.3,0-0.4-0.1s-0.2-0.2-0.3-0.3
		c-0.1-0.1-0.1-0.1-0.1-0.1h-0.1c-0.1,0-0.2,0-0.3,0.1s-0.3,0.2-0.4,0.3s-0.3,0.2-0.4,0.3s-0.2,0.2-0.3,0.3c-0.6,0.6-1.2,1.3-1.8,2
		s-1.2,1.5-1.7,2.3s-1,1.6-1.3,2.4C366.3,67.9,366.1,68.7,365.9,69.4z"/>
	<path class="st1" d="M409.9,69.3c0,0.6-0.2,1.3-0.6,2s-1,1.3-1.8,1.9c-0.3,0.2-0.6,0.4-0.9,0.6c-0.4,0.2-0.8,0.4-1.2,0.6
		c-0.4,0.2-0.9,0.4-1.4,0.6s-1,0.4-1.4,0.5c-0.5,0.2-1,0.3-1.4,0.4c-0.5,0.1-0.9,0.1-1.3,0.1c-0.2,0-0.4,0-0.5,0s-0.3-0.1-0.4-0.2
		s-0.2-0.2-0.4-0.3c-0.1-0.1-0.2-0.3-0.4-0.5c-0.2,0.2-0.4,0.3-0.7,0.4c-0.2,0.1-0.5,0.1-0.7,0.1h-0.4c-0.1,0-0.1,0-0.2-0.1
		s-0.1-0.1-0.2-0.2s-0.1-0.1-0.1-0.2s0-0.2,0-0.2c0-0.5,0.1-0.9,0.2-1.3s0.3-0.8,0.4-1.2c0.2-0.8,0.5-1.6,0.8-2.4s0.5-1.7,0.7-2.5
		s0.5-1.7,0.7-2.5s0.4-1.6,0.6-2.3l0.4-1.6c0,0,0-0.1,0-0.2c0-0.1,0-0.3,0-0.4c0-0.1,0-0.3,0-0.4v-0.2l0.1-0.2l0,0
		c0-0.2,0.1-0.3,0.2-0.5s0.2-0.4,0.3-0.6s0.2-0.3,0.4-0.4s0.3-0.2,0.4-0.2c0.2,0,0.3,0,0.6,0s0.4,0,0.6,0c0.1,0,0.2,0,0.3,0
		s0.2,0,0.3-0.1c0.1,0,0.3-0.1,0.5-0.2c0.2-0.1,0.5-0.2,0.8-0.3c0.5-0.2,1-0.3,1.4-0.4c0.4-0.1,0.8-0.2,1.2-0.3
		c0.4-0.1,0.7-0.1,1.1-0.2s0.7-0.1,1.1-0.1c0.5,0,0.9,0,1.4,0.1s0.8,0.2,1.2,0.4c0.3,0.2,0.6,0.5,0.8,0.8s0.3,0.7,0.3,1.2
		c0,0.8-0.2,1.5-0.6,2.1s-1,1.2-1.8,1.8c-0.8,0.5-1.7,1-2.8,1.5s-2.3,0.9-3.6,1.4c1.1,0.2,2,0.3,2.7,0.6c0.8,0.2,1.4,0.5,1.9,0.8
		s0.9,0.6,1.1,1C409.8,68.4,409.9,68.9,409.9,69.3z M405.4,68.1c-0.1,0-0.3,0-0.5-0.1c-0.2,0-0.5-0.1-0.8-0.1
		c-0.3-0.1-0.7-0.1-1-0.2c-0.4-0.1-0.7-0.1-1-0.2s-0.6-0.1-0.9-0.2s-0.5-0.1-0.6-0.1c-0.3,1.1-0.6,2.1-0.9,3.1s-0.5,2-0.8,3l0.9,0.1
		c0.2,0,0.4,0,0.5,0c0.2,0,0.2,0,0.3,0c0.4,0,0.7-0.1,1.2-0.2s0.9-0.2,1.3-0.4c0.5-0.2,0.9-0.3,1.4-0.5s0.9-0.4,1.4-0.7
		c0.2-0.1,0.3-0.2,0.5-0.4s0.4-0.3,0.5-0.5s0.3-0.4,0.4-0.6s0.1-0.4,0.1-0.6c0-0.4-0.2-0.7-0.6-0.9S406,68.3,405.4,68.1z M401.2,65
		c0.5-0.2,1-0.3,1.6-0.6c0.6-0.2,1.1-0.5,1.7-0.7c0.6-0.3,1.2-0.5,1.8-0.8c0.6-0.3,1.2-0.6,1.8-0.9l0,0c0.2-0.1,0.4-0.3,0.6-0.4
		c0.2-0.2,0.4-0.3,0.6-0.5s0.3-0.4,0.4-0.6c0.1-0.2,0.2-0.4,0.2-0.6c0-0.1,0-0.3-0.1-0.4s-0.2-0.3-0.3-0.4s-0.3-0.2-0.5-0.3
		s-0.5-0.1-0.8-0.1c-0.4,0-0.9,0.1-1.5,0.2c-0.6,0.1-1.1,0.3-1.6,0.4c-0.5,0.2-1,0.4-1.4,0.6c-0.4,0.2-0.7,0.4-0.8,0.6
		c0,0-0.1,0.1-0.1,0.3s-0.1,0.3-0.2,0.5s-0.1,0.4-0.2,0.5c-0.1,0.2-0.1,0.3-0.2,0.4c0,0.1-0.1,0.2-0.1,0.4c-0.1,0.2-0.1,0.4-0.2,0.6
		c-0.1,0.2-0.2,0.5-0.3,0.8C401.5,64.3,401.3,64.7,401.2,65z"/>
	<path class="st1" d="M412.8,74.3c0-0.3,0-0.6,0.1-1c0.3-1.2,0.7-2.4,1.1-3.6s0.8-2.3,1.1-3.5c0.3-1.1,0.6-2.1,0.8-2.9
		c0.2-0.8,0.4-1.5,0.6-2c0.2-0.6,0.3-1.1,0.5-1.5c0.1-0.4,0.3-0.8,0.5-1.2c0.1-0.2,0.2-0.5,0.4-0.7c0.1-0.3,0.3-0.5,0.4-0.7
		s0.3-0.4,0.5-0.5s0.3-0.2,0.5-0.2c0.4,0,0.6,0.1,0.8,0.2c0.2,0.1,0.3,0.2,0.4,0.3l0.1,0.5c0.1,0,0.3,0,0.5-0.1
		c0.2,0,0.4-0.1,0.6-0.1s0.4-0.1,0.6-0.1s0.3-0.1,0.4-0.1c0.6-0.2,1.1-0.3,1.6-0.4s1-0.2,1.4-0.3s0.9-0.1,1.3-0.2
		c0.4,0,0.8-0.1,1.2-0.1c0.4,0,0.7,0,1,0.1c0.3,0,0.5,0.1,0.6,0.2s0.3,0.2,0.3,0.3c0.1,0.1,0.1,0.2,0.1,0.3s0,0.2-0.1,0.3
		s-0.2,0.2-0.3,0.3s-0.3,0.2-0.5,0.3s-0.5,0.1-0.8,0.2c-0.1,0-0.3,0.1-0.6,0.1c-0.3,0-0.6,0.1-0.9,0.2c-0.3,0.1-0.7,0.1-1,0.2
		c-0.3,0.1-0.5,0.1-0.6,0.1l0,0c-0.1,0-0.2,0-0.4,0.1c-0.2,0.1-0.4,0.1-0.7,0.2c-0.3,0.1-0.6,0.2-0.9,0.3s-0.7,0.2-1,0.3
		s-0.6,0.2-0.9,0.3s-0.5,0.2-0.7,0.2c-0.5,0.2-1,0.5-1.3,0.8c-0.3,0.4-0.5,0.7-0.7,1.2c0,0.1-0.1,0.2-0.2,0.4s-0.1,0.4-0.2,0.7
		c-0.1,0.2-0.2,0.5-0.3,0.8c-0.1,0.3-0.2,0.5-0.3,0.8c-0.1,0.2-0.2,0.5-0.2,0.7c-0.1,0.2-0.1,0.4-0.1,0.5s0,0.2-0.1,0.2s0,0.1,0,0.2
		s0,0.1,0,0.1c0.1,0,0.4-0.1,0.8-0.2s0.9-0.3,1.5-0.4c0.6-0.2,1.2-0.4,1.8-0.6c0.6-0.2,1.3-0.4,1.9-0.6s1.1-0.3,1.6-0.4
		s0.8-0.2,1-0.2c0.3,0,0.5,0.1,0.6,0.2s0.2,0.2,0.2,0.3c0,0.3-0.1,0.6-0.3,0.8c-0.2,0.2-0.5,0.5-0.8,0.6c-0.1,0.1-0.3,0.1-0.6,0.2
		c-0.3,0.1-0.6,0.2-0.9,0.3c-0.3,0.1-0.7,0.2-1,0.3c-0.3,0.1-0.5,0.2-0.7,0.2c-0.9,0.3-1.6,0.6-2.1,0.8c-0.5,0.2-1,0.4-1.3,0.5
		s-0.6,0.2-0.8,0.3s-0.4,0.1-0.5,0.2s-0.3,0.1-0.5,0.1s-0.4,0.1-0.8,0.2c-0.1,0.2-0.2,0.5-0.3,0.8c-0.1,0.4-0.2,0.8-0.3,1.2
		c-0.1,0.4-0.2,0.8-0.2,1.1c-0.1,0.3-0.1,0.6-0.1,0.7c0,0.2,0,0.3,0.1,0.4c0,0.1,0.1,0.1,0.2,0.2c0.1,0,0.1,0,0.2,0s0.1,0,0.1,0
		c0.4,0,0.9-0.1,1.5-0.2s1.2-0.3,1.8-0.5c0.6-0.2,1.1-0.4,1.5-0.6s0.8-0.4,1.2-0.6s0.7-0.4,1.1-0.5s0.7-0.2,1.2-0.2
		c0.1,0,0.2,0,0.3,0c0.1,0,0.2,0.1,0.3,0.1c0.1,0,0.2,0.1,0.3,0.2c0.1,0.1,0.1,0.2,0.1,0.3c0,0.3-0.2,0.5-0.4,0.8
		c-0.2,0.2-0.5,0.5-0.8,0.7s-0.7,0.5-1.1,0.7s-0.8,0.4-1.3,0.6s-0.9,0.4-1.3,0.5c-0.4,0.2-0.8,0.3-1.1,0.4c-0.8,0.3-1.6,0.5-2.4,0.6
		S415.6,76,415,76c-0.7,0-1.2-0.1-1.6-0.4C413,75.3,412.8,74.9,412.8,74.3z"/>
	<path class="st1" d="M205.9,102.2c0,0.6-0.2,1.3-0.6,2c-0.4,0.7-1,1.3-1.8,1.9c-0.3,0.2-0.6,0.4-0.9,0.6c-0.4,0.2-0.8,0.4-1.2,0.6
		s-0.9,0.4-1.4,0.6s-1,0.4-1.4,0.5c-0.5,0.2-1,0.3-1.4,0.4c-0.5,0.1-0.9,0.1-1.3,0.1c-0.2,0-0.4,0-0.5,0s-0.3-0.1-0.4-0.2
		s-0.2-0.2-0.4-0.3s-0.2-0.3-0.4-0.5c-0.2,0.2-0.4,0.3-0.7,0.4c-0.2,0.1-0.5,0.1-0.7,0.1h-0.4c-0.1,0-0.1,0-0.2-0.1
		c-0.1,0-0.1-0.1-0.2-0.2c0-0.1-0.1-0.1-0.1-0.2s0-0.2,0-0.2c0-0.5,0.1-0.9,0.2-1.3c0.1-0.4,0.3-0.8,0.4-1.2
		c0.2-0.8,0.5-1.6,0.8-2.4s0.5-1.7,0.7-2.5s0.5-1.7,0.7-2.5s0.4-1.6,0.6-2.3l0.4-1.6c0,0,0-0.1,0-0.2s0-0.3,0-0.4s0-0.3,0-0.4v-0.2
		l0.1-0.2l0,0c0-0.2,0.1-0.3,0.2-0.5s0.2-0.4,0.3-0.6s0.2-0.3,0.4-0.4c0.1-0.1,0.3-0.2,0.4-0.2c0.2,0,0.3,0,0.6,0c0.2,0,0.4,0,0.6,0
		c0.1,0,0.2,0,0.3,0s0.2,0,0.3-0.1c0.1,0,0.3-0.1,0.5-0.2s0.5-0.2,0.8-0.3c0.5-0.2,1-0.3,1.4-0.4s0.8-0.2,1.2-0.3
		c0.4-0.1,0.7-0.1,1.1-0.2c0.4,0,0.7-0.1,1.1-0.1c0.5,0,0.9,0,1.4,0.1c0.4,0.1,0.8,0.2,1.2,0.4c0.3,0.2,0.6,0.5,0.8,0.8
		s0.3,0.7,0.3,1.2c0,0.8-0.2,1.5-0.6,2.1s-1,1.2-1.8,1.8c-0.8,0.5-1.7,1-2.8,1.5s-2.3,0.9-3.6,1.4c1.1,0.2,2,0.3,2.7,0.6
		c0.8,0.2,1.4,0.5,1.9,0.8s0.9,0.6,1.1,1C205.8,101.3,205.9,101.7,205.9,102.2z M201.4,101c-0.1,0-0.3,0-0.5-0.1
		c-0.2,0-0.5-0.1-0.8-0.1c-0.3-0.1-0.7-0.1-1-0.2c-0.4-0.1-0.7-0.1-1-0.2s-0.6-0.1-0.9-0.2c-0.3-0.1-0.5-0.1-0.6-0.1
		c-0.3,1.1-0.6,2.1-0.9,3.1c-0.3,1-0.5,2-0.8,3l0.9,0.1c0.2,0,0.4,0,0.5,0c0.2,0,0.2,0,0.3,0c0.4,0,0.7-0.1,1.2-0.2
		c0.4-0.1,0.9-0.2,1.3-0.4c0.5-0.2,0.9-0.3,1.4-0.5s0.9-0.4,1.4-0.7c0.2-0.1,0.3-0.2,0.5-0.4c0.2-0.2,0.4-0.3,0.5-0.5
		s0.3-0.4,0.4-0.6c0.1-0.2,0.1-0.4,0.1-0.6c0-0.4-0.2-0.7-0.6-0.9S202,101.1,201.4,101z M197.2,97.9c0.5-0.2,1-0.3,1.6-0.6
		c0.6-0.2,1.1-0.5,1.7-0.7c0.6-0.3,1.2-0.5,1.8-0.8s1.2-0.6,1.8-0.9l0,0c0.2-0.1,0.4-0.3,0.6-0.4s0.4-0.3,0.6-0.5
		c0.2-0.2,0.3-0.4,0.4-0.6c0.1-0.2,0.2-0.4,0.2-0.6c0-0.1,0-0.3-0.1-0.4s-0.2-0.3-0.3-0.4s-0.3-0.2-0.5-0.3
		c-0.2-0.1-0.5-0.1-0.8-0.1c-0.4,0-0.9,0.1-1.5,0.2s-1.1,0.3-1.6,0.4c-0.5,0.2-1,0.4-1.4,0.6s-0.7,0.4-0.8,0.6c0,0-0.1,0.1-0.1,0.3
		c0,0.2-0.1,0.3-0.2,0.5s-0.1,0.4-0.2,0.5c-0.1,0.2-0.1,0.3-0.2,0.4c0,0.1-0.1,0.2-0.1,0.4c-0.1,0.2-0.1,0.4-0.2,0.6
		c-0.1,0.2-0.2,0.5-0.3,0.8C197.4,97.2,197.3,97.5,197.2,97.9z"/>
	<path class="st1" d="M210.6,100.5c0.1-0.3,0.2-0.7,0.3-1.2c0.1-0.4,0.2-0.9,0.4-1.3c0.1-0.5,0.3-0.9,0.4-1.4
		c0.1-0.5,0.3-0.9,0.4-1.3s0.2-0.8,0.4-1.2c0.1-0.4,0.2-0.7,0.3-0.9c0.2-0.6,0.3-1.2,0.5-1.7s0.3-1.2,0.4-1.8
		c0.2-0.3,0.4-0.6,0.7-0.7s0.6-0.2,1-0.2c0.3,0.2,0.5,0.4,0.7,0.6s0.2,0.6,0.2,0.9c0,0.2,0,0.5-0.1,0.8s-0.2,0.6-0.3,1
		c-0.1,0.3-0.2,0.7-0.4,1.1c-0.1,0.4-0.3,0.8-0.4,1.2c-0.2,0.7-0.5,1.5-0.7,2.2s-0.5,1.5-0.7,2.3c-0.1,0.2-0.1,0.4-0.2,0.6
		c-0.1,0.2-0.1,0.4-0.2,0.7c-0.1,0.2-0.2,0.5-0.2,0.8c-0.1,0.3-0.2,0.7-0.3,1.1c-0.1,0.5-0.2,0.9-0.3,1.4s-0.2,1-0.2,1.4
		s-0.2,1-0.2,1.5s-0.2,1-0.3,1.5c0,0.2-0.1,0.3-0.2,0.5c-0.1,0.1-0.2,0.3-0.4,0.4c-0.1,0.1-0.3,0.2-0.5,0.2
		c-0.2,0.1-0.3,0.1-0.5,0.1s-0.3,0-0.4,0c-0.1,0-0.2-0.1-0.3-0.2s-0.2-0.2-0.3-0.4s-0.1-0.3-0.1-0.5v-0.1v-0.1L210.6,100.5z"/>
	<path class="st1" d="M218.3,101.3c0.4-1.2,0.8-2.4,1.1-3.5c0.4-1.1,0.7-2.2,1-3.1c0.3-1,0.5-1.8,0.7-2.6c0.2-0.7,0.3-1.3,0.3-1.8
		c0.1-0.4,0.3-0.8,0.6-1s0.6-0.4,0.9-0.4c0.2,0,0.4,0,0.5,0.1c0.2,0.1,0.3,0.2,0.4,0.4c0.1,0.2,0.2,0.3,0.2,0.5s0.1,0.4,0.1,0.6
		s0,0.3,0,0.4s0,0.2-0.1,0.4c-0.2,0.8-0.5,1.7-0.7,2.5s-0.6,1.8-0.9,2.7c-0.3,0.9-0.6,1.8-0.9,2.7s-0.6,1.8-0.8,2.6l-0.2,0.9
		c-0.1,0.5-0.2,0.9-0.3,1.3s-0.1,0.8-0.1,1c0,0.1,0,0.3,0.1,0.3s0.2,0.1,0.3,0.1c0.4,0,0.8-0.1,1.3-0.2s1-0.3,1.5-0.4s1-0.4,1.6-0.6
		c0.5-0.2,1-0.4,1.4-0.6c0.2-0.1,0.4-0.2,0.6-0.3s0.4-0.2,0.6-0.3s0.6-0.2,1-0.4c0.4-0.2,1-0.4,1.7-0.7c0.1,0,0.2-0.1,0.3-0.1
		s0.2,0,0.3,0s0.3,0,0.4,0.1s0.2,0.1,0.2,0.2c0.1,0.1,0.1,0.2,0.1,0.3c0,0.1,0,0.2,0,0.3c0,0.2,0,0.4,0,0.5s-0.1,0.3-0.1,0.4
		c-0.1,0.2-0.2,0.3-0.4,0.5c-0.2,0.1-0.3,0.3-0.5,0.4s-0.4,0.2-0.5,0.3c-0.2,0.1-0.3,0.1-0.4,0.2c-0.1,0.1-0.3,0.1-0.6,0.2
		s-0.5,0.2-0.8,0.3c-0.3,0.1-0.6,0.2-0.9,0.3c-0.3,0.1-0.6,0.2-0.8,0.3c-0.3,0.1-0.5,0.2-0.7,0.3c-0.2,0.1-0.3,0.1-0.4,0.2
		c-0.4,0.1-0.8,0.3-1.3,0.5s-0.9,0.3-1.4,0.5s-0.9,0.3-1.3,0.4c-0.4,0.1-0.8,0.2-1,0.2c-0.3,0-0.6,0-0.8-0.1s-0.4-0.1-0.5-0.2
		c-0.2-0.1-0.3-0.2-0.5-0.3c-0.2-0.1-0.4-0.3-0.6-0.4c-0.2-0.1-0.4-0.3-0.5-0.6c-0.1-0.2-0.1-0.5-0.1-0.8c0-0.1,0-0.3,0-0.5
		s0.1-0.4,0.1-0.6s0.1-0.4,0.1-0.6s0.1-0.4,0.1-0.5L218.3,101.3z"/>
	<path class="st1" d="M234.8,101.3c0.4-1.2,0.8-2.4,1.1-3.5c0.4-1.1,0.7-2.2,1-3.1c0.3-1,0.5-1.8,0.7-2.6c0.2-0.7,0.3-1.3,0.3-1.8
		c0.1-0.4,0.3-0.8,0.6-1s0.6-0.4,0.9-0.4c0.2,0,0.4,0,0.5,0.1c0.2,0.1,0.3,0.2,0.4,0.4c0.1,0.2,0.2,0.3,0.2,0.5s0.1,0.4,0.1,0.6
		s0,0.3,0,0.4s0,0.2-0.1,0.4c-0.2,0.8-0.5,1.7-0.7,2.5s-0.6,1.8-0.9,2.7c-0.3,0.9-0.6,1.8-0.9,2.7s-0.6,1.8-0.8,2.6l-0.2,0.9
		c-0.1,0.5-0.2,0.9-0.3,1.3s-0.1,0.8-0.1,1c0,0.1,0,0.3,0.1,0.3s0.2,0.1,0.3,0.1c0.4,0,0.8-0.1,1.3-0.2s1-0.3,1.5-0.4s1-0.4,1.6-0.6
		c0.5-0.2,1-0.4,1.4-0.6c0.2-0.1,0.4-0.2,0.6-0.3s0.4-0.2,0.6-0.3s0.6-0.2,1-0.4c0.4-0.2,1-0.4,1.7-0.7c0.1,0,0.2-0.1,0.3-0.1
		s0.2,0,0.3,0s0.3,0,0.4,0.1s0.2,0.1,0.2,0.2c0.1,0.1,0.1,0.2,0.1,0.3c0,0.1,0,0.2,0,0.3c0,0.2,0,0.4,0,0.5s-0.1,0.3-0.1,0.4
		c-0.1,0.2-0.2,0.3-0.4,0.5c-0.2,0.1-0.3,0.3-0.5,0.4s-0.4,0.2-0.5,0.3c-0.2,0.1-0.3,0.1-0.4,0.2c-0.1,0.1-0.3,0.1-0.6,0.2
		s-0.5,0.2-0.8,0.3c-0.3,0.1-0.6,0.2-0.9,0.3c-0.3,0.1-0.6,0.2-0.8,0.3c-0.3,0.1-0.5,0.2-0.7,0.3c-0.2,0.1-0.3,0.1-0.4,0.2
		c-0.4,0.1-0.8,0.3-1.3,0.5s-0.9,0.3-1.4,0.5s-0.9,0.3-1.3,0.4c-0.4,0.1-0.8,0.2-1,0.2c-0.3,0-0.6,0-0.8-0.1s-0.4-0.1-0.5-0.2
		c-0.2-0.1-0.3-0.2-0.5-0.3c-0.2-0.1-0.4-0.3-0.6-0.4c-0.2-0.1-0.4-0.3-0.5-0.6c-0.1-0.2-0.1-0.5-0.1-0.8c0-0.1,0-0.3,0-0.5
		s0.1-0.4,0.1-0.6s0.1-0.4,0.1-0.6s0.1-0.4,0.1-0.5L234.8,101.3z"/>
	<path class="st1" d="M249.8,107.2c0-0.3,0-0.6,0.1-1c0.3-1.2,0.7-2.4,1.1-3.6c0.4-1.2,0.8-2.3,1.1-3.5c0.3-1.1,0.6-2.1,0.8-2.9
		s0.4-1.5,0.6-2c0.2-0.6,0.3-1.1,0.5-1.5c0.1-0.4,0.3-0.8,0.5-1.2c0.1-0.2,0.2-0.5,0.4-0.7c0.1-0.3,0.3-0.5,0.4-0.7
		c0.2-0.2,0.3-0.4,0.5-0.5c0.2-0.1,0.3-0.2,0.5-0.2c0.4,0,0.6,0.1,0.8,0.2c0.2,0.1,0.3,0.2,0.4,0.3l0.1,0.5c0.1,0,0.3,0,0.5-0.1
		s0.4-0.1,0.6-0.1s0.4-0.1,0.6-0.1s0.3-0.1,0.4-0.1c0.6-0.2,1.1-0.3,1.6-0.4s1-0.2,1.4-0.3c0.4-0.1,0.9-0.1,1.3-0.2
		c0.4,0,0.8-0.1,1.2-0.1c0.4,0,0.7,0,1,0.1c0.3,0,0.5,0.1,0.6,0.2c0.2,0.1,0.3,0.2,0.3,0.3s0.1,0.2,0.1,0.3c0,0.1,0,0.2-0.1,0.3
		c-0.1,0.1-0.2,0.2-0.3,0.3c-0.1,0.1-0.3,0.2-0.5,0.3S266,91,265.7,91c-0.1,0-0.3,0.1-0.6,0.1c-0.3,0-0.6,0.1-0.9,0.2
		s-0.7,0.1-1,0.2s-0.5,0.1-0.6,0.1l0,0c-0.1,0-0.2,0-0.4,0.1c-0.2,0.1-0.4,0.1-0.7,0.2c-0.3,0.1-0.6,0.2-0.9,0.3
		c-0.3,0.1-0.7,0.2-1,0.3c-0.3,0.1-0.6,0.2-0.9,0.3c-0.3,0.1-0.5,0.2-0.7,0.2c-0.5,0.2-1,0.5-1.3,0.8c-0.3,0.4-0.5,0.7-0.7,1.2
		c0,0.1-0.1,0.2-0.2,0.4c-0.1,0.2-0.1,0.4-0.2,0.7c-0.1,0.2-0.2,0.5-0.3,0.8s-0.2,0.5-0.3,0.8c-0.1,0.2-0.2,0.5-0.2,0.7
		c-0.1,0.2-0.1,0.4-0.1,0.5s0,0.2-0.1,0.2s0,0.1,0,0.2s0,0.1,0,0.1c0.1,0,0.4-0.1,0.8-0.2c0.4-0.1,0.9-0.3,1.5-0.4
		c0.6-0.2,1.2-0.4,1.8-0.6c0.6-0.2,1.3-0.4,1.9-0.6s1.1-0.3,1.6-0.4s0.8-0.2,1-0.2c0.3,0,0.5,0.1,0.6,0.2s0.2,0.2,0.2,0.3
		c0,0.3-0.1,0.6-0.3,0.8c-0.2,0.2-0.5,0.5-0.8,0.6c-0.1,0.1-0.3,0.1-0.6,0.2c-0.3,0.1-0.6,0.2-0.9,0.3c-0.3,0.1-0.7,0.2-1,0.3
		c-0.3,0.1-0.5,0.2-0.7,0.2c-0.9,0.3-1.6,0.6-2.1,0.8c-0.5,0.2-1,0.4-1.3,0.5s-0.6,0.2-0.8,0.3s-0.4,0.1-0.5,0.2s-0.3,0.1-0.5,0.1
		s-0.4,0.1-0.8,0.2c-0.1,0.2-0.2,0.5-0.3,0.8c-0.1,0.4-0.2,0.8-0.3,1.2c-0.1,0.4-0.2,0.8-0.2,1.1c-0.1,0.3-0.1,0.6-0.1,0.7
		c0,0.2,0,0.3,0.1,0.4c0,0.1,0.1,0.1,0.2,0.2c0.1,0,0.1,0,0.2,0s0.1,0,0.1,0c0.4,0,0.9-0.1,1.5-0.2s1.2-0.3,1.8-0.5s1.1-0.4,1.5-0.6
		s0.8-0.4,1.2-0.6s0.7-0.4,1.1-0.5s0.7-0.2,1.2-0.2c0.1,0,0.2,0,0.3,0c0.1,0,0.2,0.1,0.3,0.1c0.1,0,0.2,0.1,0.3,0.2
		c0.1,0.1,0.1,0.2,0.1,0.3c0,0.3-0.2,0.5-0.4,0.8c-0.2,0.2-0.5,0.5-0.8,0.7s-0.7,0.5-1.1,0.7s-0.8,0.4-1.3,0.6s-0.9,0.4-1.3,0.5
		c-0.4,0.2-0.8,0.3-1.1,0.4c-0.8,0.3-1.6,0.5-2.4,0.6s-1.5,0.2-2.1,0.2c-0.7,0-1.2-0.1-1.6-0.4C250,108.2,249.8,107.8,249.8,107.2z"
		/>
	<path class="st1" d="M265.4,106.2c0.4-0.3,0.8-0.5,1.2-0.6c0.4-0.1,0.9-0.1,1.3-0.2l3.3-13.5c0,0-0.1,0-0.3,0s-0.3,0-0.5,0
		s-0.4-0.1-0.6-0.1c-0.2-0.1-0.3-0.1-0.4-0.2c0-0.1-0.1-0.1-0.2-0.2s-0.1-0.2-0.2-0.3c-0.1-0.1-0.1-0.2-0.2-0.4s-0.1-0.2-0.1-0.4
		c0-0.2,0.1-0.4,0.3-0.5c0.2-0.1,0.4-0.2,0.6-0.3c0.3-0.1,0.5-0.1,0.8-0.2c0.3,0,0.6-0.1,0.8-0.1c1.1,0,2.2,0,3.1,0.1
		c1,0.1,1.9,0.2,2.7,0.4c0.8,0.2,1.6,0.5,2.4,0.9c0.7,0.4,1.4,1,2.1,1.6c0.2,0.3,0.5,0.5,0.7,0.9c0.2,0.3,0.4,0.7,0.6,1
		c0.2,0.4,0.3,0.8,0.4,1.2c0.1,0.4,0.2,0.9,0.2,1.4c0,0.3,0,0.5,0,0.8s-0.1,0.5-0.1,0.7c-0.3,1-0.6,1.9-1.1,2.7s-1,1.5-1.6,2.1
		s-1.3,1.2-2,1.6c-0.7,0.5-1.5,0.9-2.3,1.2c-0.8,0.3-1.6,0.6-2.4,0.9c-0.8,0.2-1.6,0.5-2.4,0.7l0,0c-0.3,0.1-0.7,0.2-1.1,0.3
		s-0.8,0.1-1.2,0.2c-0.4,0.1-0.8,0.1-1.2,0.1s-0.8,0-1.1,0c-0.4,0-0.7,0-1-0.1s-0.5-0.1-0.6-0.2c-0.2-0.1-0.3-0.2-0.4-0.3
		c-0.1-0.1-0.1-0.2-0.1-0.3c0-0.2,0.1-0.4,0.2-0.6C265,106.5,265.2,106.3,265.4,106.2z M271.3,102.3c-0.1,0.5-0.2,0.9-0.3,1.4
		c-0.1,0.5-0.2,1-0.3,1.4l0.3-0.1c0.2,0,0.5-0.1,0.8-0.2s0.7-0.2,1.2-0.3s0.9-0.3,1.4-0.5s1-0.4,1.5-0.7s1.1-0.6,1.6-0.9
		s1-0.7,1.5-1.1s0.9-0.8,1.3-1.3s0.7-0.9,0.9-1.4c0.2-0.5,0.3-1,0.3-1.5s-0.1-1.1-0.3-1.5c-0.2-0.5-0.5-0.9-0.9-1.3
		s-0.8-0.8-1.3-1.1s-1-0.6-1.5-0.8c-0.5-0.2-1-0.4-1.6-0.5s-1-0.2-1.5-0.2c-0.7,1.7-1.2,3.5-1.7,5.3S271.8,100.5,271.3,102.3z"/>
	<path class="st1" d="M310.5,108.3c-0.2,0-0.4,0-0.5-0.1s-0.3-0.2-0.4-0.3c-0.1-0.1-0.2-0.2-0.2-0.4s-0.1-0.3-0.1-0.5
		c0-0.1,0-0.3,0.1-0.6s0.2-0.5,0.3-0.8s0.2-0.6,0.4-0.9c0.1-0.3,0.3-0.6,0.4-0.9s0.2-0.6,0.3-0.8c0.1-0.2,0.2-0.4,0.2-0.6
		s0.1-0.4,0.1-0.6s0.1-0.5,0.2-0.7c0.1-0.3,0.1-0.5,0.2-0.8s0.1-0.6,0.2-0.9c-0.1,0-0.3,0.1-0.5,0.1s-0.4,0-0.6,0.1
		c-0.3,0-0.6,0.1-0.9,0.1c-0.3,0.1-0.6,0.1-0.9,0.2s-0.6,0.1-0.9,0.2s-0.7,0.2-1,0.2c-0.5,0.1-1.1,0.2-1.6,0.4
		c-0.5,0.1-1.1,0.2-1.7,0.2c-0.2,0-0.3,0-0.5-0.1s-0.3-0.2-0.5-0.2c-0.2,0.3-0.3,0.6-0.5,0.9s-0.3,0.7-0.4,1s-0.3,0.7-0.4,1
		s-0.2,0.6-0.3,0.9c0,0.2-0.1,0.4-0.1,0.6s-0.1,0.5-0.1,0.8s-0.1,0.5-0.1,0.8c0,0.2-0.1,0.4-0.1,0.6c0,0.1-0.1,0.3-0.2,0.4
		s-0.2,0.2-0.3,0.4c-0.1,0.1-0.2,0.2-0.4,0.3c-0.1,0.1-0.3,0.1-0.4,0.1c-0.2,0-0.5-0.1-0.6-0.2c-0.2-0.1-0.3-0.3-0.4-0.5
		s-0.2-0.5-0.2-0.7c0-0.3-0.1-0.5-0.1-0.7c0-0.5,0.1-1.1,0.2-1.7s0.3-1.2,0.5-1.8c0.2-0.6,0.5-1.2,0.8-1.8c0.3-0.6,0.6-1.2,1-1.8
		c0.3-0.5,0.7-1.2,1.1-1.9c0.4-0.7,0.9-1.4,1.5-2.2s1.1-1.5,1.8-2.2c0.6-0.7,1.3-1.4,2-1.9c0.7-0.6,1.4-1,2.1-1.4s1.4-0.5,2.1-0.5
		s1.4,0.1,1.9,0.4s0.9,0.6,1.2,1.1c0.3,0.5,0.5,1,0.6,1.6s0.2,1.2,0.2,1.9c0,0.6,0,1.2-0.1,1.8c-0.1,0.6-0.2,1.3-0.3,1.9
		c-0.1,0.6-0.2,1.2-0.4,1.8c-0.1,0.6-0.2,1.1-0.4,1.5l-0.5,1.8c0,0.1-0.1,0.2-0.1,0.3c0,0.2-0.1,0.4-0.2,0.6s-0.2,0.5-0.3,0.7
		s-0.2,0.5-0.3,0.8c-0.1,0.3-0.2,0.5-0.3,0.7c-0.1,0.2-0.2,0.4-0.2,0.5l0,0c-0.1,0.2-0.1,0.5-0.2,0.7s-0.2,0.5-0.3,0.6
		s-0.3,0.3-0.5,0.5S310.8,108.3,310.5,108.3z M311.1,91.6c-0.4,0-0.8,0.1-1.2,0.2c-0.4,0.2-0.8,0.4-1.2,0.6
		c-0.4,0.3-0.8,0.6-1.1,0.9c-0.4,0.4-0.7,0.7-1,1.1s-0.6,0.8-0.9,1.1c-0.3,0.4-0.5,0.7-0.8,1c0,0.1-0.1,0.1-0.1,0.2
		c-0.1,0.1-0.1,0.2-0.2,0.3c-0.1,0.1-0.1,0.2-0.2,0.3c-0.1,0.1-0.1,0.2-0.1,0.3h1.4c0.5,0,1.1,0,1.7-0.1s1.3-0.2,1.9-0.3
		c0.6-0.1,1.2-0.2,1.7-0.3c0.5-0.1,0.9-0.2,1.2-0.2c0-0.1,0.1-0.3,0.1-0.5s0.1-0.4,0.1-0.7c0-0.2,0-0.5,0.1-0.8c0-0.3,0-0.5,0-0.8
		c0-0.2,0-0.5,0-0.8s-0.1-0.6-0.2-0.8c-0.1-0.3-0.2-0.5-0.4-0.7S311.5,91.6,311.1,91.6z"/>
	<path class="st1" d="M321.8,92c0.1-0.2,0.1-0.5,0.2-0.7c0.1-0.3,0.2-0.5,0.3-0.7c0.1-0.2,0.3-0.4,0.5-0.5s0.5-0.2,0.8-0.2
		s0.6,0.1,0.8,0.3s0.5,0.3,0.7,0.5s0.5,0.5,0.7,0.9c0.2,0.5,0.4,1,0.7,1.7c0.2,0.7,0.5,1.4,0.7,2.3s0.6,1.8,0.9,2.7s0.7,1.9,1.1,2.9
		s0.8,1.9,1.3,2.9c0.1,0.1,0.2,0.3,0.3,0.5c0.1,0.2,0.2,0.4,0.3,0.5c0.1,0.2,0.2,0.3,0.3,0.4c0.1,0.1,0.2,0.2,0.2,0.2
		s0.1-0.1,0.1-0.2s0.1-0.3,0.1-0.5s0.1-0.4,0.1-0.6s0.1-0.4,0.1-0.5c0.2-0.4,0.4-0.9,0.6-1.4s0.4-1.2,0.7-1.9
		c0.2-0.8,0.5-1.6,0.8-2.7c0.3-1,0.6-2.3,1-3.7c0.1-0.3,0.2-0.7,0.3-1.2c0.1-0.4,0.2-0.9,0.3-1.4s0.2-0.9,0.2-1.3s0.1-0.8,0.1-1.1
		c0-0.1,0-0.1,0-0.3s0-0.3,0-0.5s0.1-0.3,0.1-0.5s0.1-0.3,0.1-0.5s0.1-0.3,0.2-0.4s0.2-0.1,0.3-0.1s0.3,0,0.5,0.1
		c0.2,0,0.3,0.1,0.5,0.2c0.2,0.2,0.3,0.5,0.5,0.8c0.1,0.3,0.2,0.8,0.2,1.3c0,0.3,0,0.8-0.1,1.2c-0.1,0.5-0.2,1-0.3,1.6
		c-0.1,0.6-0.2,1.1-0.4,1.7c-0.1,0.6-0.3,1.2-0.4,1.7s-0.3,1-0.4,1.5s-0.2,0.8-0.3,1.1c-0.2,0.5-0.3,1-0.5,1.6
		c-0.2,0.5-0.4,1.1-0.6,1.7s-0.4,1.2-0.7,1.9s-0.5,1.4-0.8,2.2c-0.1,0.3-0.3,0.7-0.5,1s-0.4,0.7-0.6,0.9c-0.2,0.3-0.5,0.5-0.8,0.7
		s-0.6,0.3-0.9,0.3c-0.2,0-0.4,0-0.6-0.1s-0.4-0.2-0.6-0.4c-0.7-0.8-1.4-1.8-2-2.9s-1.1-2.2-1.5-3.4s-0.8-2.4-1.2-3.6
		c-0.3-1.2-0.7-2.3-0.9-3.4l-0.1-0.3c0-0.1-0.1-0.3-0.1-0.4s-0.1-0.2-0.1-0.4c0-0.1-0.1-0.2-0.1-0.3c0-0.1-0.1-0.1-0.1-0.1
		c-0.1,0-0.1,0.1-0.2,0.3s-0.2,0.4-0.2,0.7s-0.2,0.5-0.2,0.7c-0.1,0.2-0.1,0.4-0.1,0.4c-0.1,0.2-0.2,0.6-0.3,1
		c-0.1,0.4-0.3,0.9-0.4,1.5c-0.2,0.5-0.3,1.1-0.5,1.7s-0.4,1.2-0.5,1.8c-0.2,0.6-0.3,1.1-0.5,1.6s-0.3,0.9-0.4,1.2
		c-0.1,0.2-0.2,0.5-0.3,0.9c-0.1,0.4-0.2,0.7-0.3,1.1c-0.1,0.4-0.2,0.7-0.3,1s-0.2,0.5-0.2,0.6c-0.1,0.3-0.3,0.6-0.5,0.8
		c-0.2,0.2-0.4,0.3-0.6,0.3c-0.1,0-0.3,0-0.4-0.1s-0.3-0.2-0.4-0.3s-0.2-0.3-0.3-0.4c-0.1-0.2-0.1-0.3-0.1-0.4s0-0.2,0.1-0.3
		c0-0.2,0.1-0.4,0.2-0.8l0.3-1.4L321.8,92z"/>
	<path class="st1" d="M343.4,92c0.1-0.2,0.1-0.5,0.2-0.7c0.1-0.3,0.2-0.5,0.3-0.7c0.1-0.2,0.3-0.4,0.5-0.5s0.5-0.2,0.8-0.2
		s0.6,0.1,0.8,0.3s0.5,0.3,0.7,0.5s0.5,0.5,0.7,0.9c0.2,0.5,0.4,1,0.7,1.7c0.2,0.7,0.5,1.4,0.7,2.3s0.6,1.8,0.9,2.7s0.7,1.9,1.1,2.9
		s0.8,1.9,1.3,2.9c0.1,0.1,0.2,0.3,0.3,0.5c0.1,0.2,0.2,0.4,0.3,0.5c0.1,0.2,0.2,0.3,0.3,0.4c0.1,0.1,0.2,0.2,0.2,0.2
		s0.1-0.1,0.1-0.2s0.1-0.3,0.1-0.5s0.1-0.4,0.1-0.6s0.1-0.4,0.1-0.5c0.2-0.4,0.4-0.9,0.6-1.4s0.4-1.2,0.7-1.9
		c0.2-0.8,0.5-1.6,0.8-2.7c0.3-1,0.6-2.3,1-3.7c0.1-0.3,0.2-0.7,0.3-1.2c0.1-0.4,0.2-0.9,0.3-1.4s0.2-0.9,0.2-1.3s0.1-0.8,0.1-1.1
		c0-0.1,0-0.1,0-0.3s0-0.3,0-0.5s0.1-0.3,0.1-0.5s0.1-0.3,0.1-0.5s0.1-0.3,0.2-0.4s0.2-0.1,0.3-0.1s0.3,0,0.5,0.1
		c0.2,0,0.3,0.1,0.5,0.2c0.2,0.2,0.3,0.5,0.5,0.8c0.1,0.3,0.2,0.8,0.2,1.3c0,0.3,0,0.8-0.1,1.2c-0.1,0.5-0.2,1-0.3,1.6
		c-0.1,0.6-0.2,1.1-0.4,1.7c-0.1,0.6-0.3,1.2-0.4,1.7s-0.3,1-0.4,1.5s-0.2,0.8-0.3,1.1c-0.2,0.5-0.3,1-0.5,1.6
		c-0.2,0.5-0.4,1.1-0.6,1.7s-0.4,1.2-0.7,1.9s-0.5,1.4-0.8,2.2c-0.1,0.3-0.3,0.7-0.5,1s-0.4,0.7-0.6,0.9c-0.2,0.3-0.5,0.5-0.8,0.7
		s-0.6,0.3-0.9,0.3c-0.2,0-0.4,0-0.6-0.1s-0.4-0.2-0.6-0.4c-0.7-0.8-1.4-1.8-2-2.9s-1.1-2.2-1.5-3.4s-0.8-2.4-1.2-3.6
		c-0.3-1.2-0.7-2.3-0.9-3.4l-0.1-0.3c0-0.1-0.1-0.3-0.1-0.4s-0.1-0.2-0.1-0.4c0-0.1-0.1-0.2-0.1-0.3c0-0.1-0.1-0.1-0.1-0.1
		c-0.1,0-0.1,0.1-0.2,0.3s-0.2,0.4-0.2,0.7s-0.2,0.5-0.2,0.7c-0.1,0.2-0.1,0.4-0.1,0.4c-0.1,0.2-0.2,0.6-0.3,1
		c-0.1,0.4-0.3,0.9-0.4,1.5c-0.2,0.5-0.3,1.1-0.5,1.7s-0.4,1.2-0.5,1.8c-0.2,0.6-0.3,1.1-0.5,1.6s-0.3,0.9-0.4,1.2
		c-0.1,0.2-0.2,0.5-0.3,0.9c-0.1,0.4-0.2,0.7-0.3,1.1c-0.1,0.4-0.2,0.7-0.3,1s-0.2,0.5-0.2,0.6c-0.1,0.3-0.3,0.6-0.5,0.8
		c-0.2,0.2-0.4,0.3-0.6,0.3c-0.1,0-0.3,0-0.4-0.1s-0.3-0.2-0.4-0.3s-0.2-0.3-0.3-0.4c-0.1-0.2-0.1-0.3-0.1-0.4s0-0.2,0.1-0.3
		c0-0.2,0.1-0.4,0.2-0.8l0.3-1.4L343.4,92z"/>
	<path class="st1" d="M362.3,101.7c0.2-0.9,0.4-1.7,0.6-2.4c0.2-0.7,0.5-1.4,0.7-2s0.4-1.2,0.6-1.8c0.2-0.6,0.4-1.1,0.5-1.7l0.2-0.6
		c0-0.2,0.1-0.4,0.1-0.6s0.1-0.5,0.1-0.8s0.1-0.5,0.1-0.8s0.1-0.5,0.2-0.7s0.2-0.4,0.4-0.5c0.2-0.1,0.4-0.2,0.6-0.2
		c0.3,0,0.5,0,0.7,0.1s0.3,0.2,0.5,0.4c0.1,0.2,0.2,0.3,0.3,0.6c0.1,0.2,0.1,0.4,0.1,0.6s0,0.4,0,0.6s-0.1,0.4-0.1,0.5
		c-0.1,0.4-0.3,0.9-0.5,1.4s-0.5,1.1-0.7,1.8c-0.3,0.6-0.5,1.3-0.8,2.1c-0.3,0.8-0.5,1.5-0.7,2.4c-0.1,0.5-0.2,1-0.3,1.6
		c-0.1,0.6-0.1,1.1-0.1,1.5s0,0.7,0.1,1s0.2,0.6,0.3,0.9s0.4,0.4,0.6,0.6c0.3,0.1,0.6,0.2,1,0.2c0.3,0,0.7,0,1-0.1s0.8-0.2,1.2-0.4
		c0.7-0.3,1.4-0.7,2-1.2s1.2-1.1,1.7-1.7s1-1.3,1.5-2c0.4-0.7,0.9-1.5,1.2-2.3s0.7-1.6,1-2.4s0.5-1.6,0.7-2.4
		c0.1-0.3,0.1-0.6,0.2-0.9c0-0.3,0.1-0.6,0.1-0.9s0-0.6,0.1-1c0-0.3,0-0.7,0.1-1.2c0-0.4,0.1-0.7,0.3-0.9s0.4-0.4,0.8-0.4
		c0.2,0,0.4,0.1,0.6,0.3c0.2,0.2,0.3,0.4,0.4,0.7c0.1,0.3,0.2,0.5,0.2,0.8c0.1,0.3,0.1,0.6,0.1,0.8c0,0.4,0,0.9-0.1,1.4
		s-0.2,1-0.3,1.5c-0.3,1-0.6,2.1-0.9,3.1c-0.4,1-0.8,2-1.3,3s-1.1,1.9-1.7,2.9c-0.7,0.9-1.4,1.8-2.3,2.6c-0.4,0.4-0.9,0.8-1.4,1.2
		c-0.5,0.4-1,0.7-1.6,1c-0.5,0.3-1.1,0.6-1.7,0.8s-1.1,0.3-1.7,0.3c-0.8,0-1.5-0.1-2.1-0.3c-0.6-0.2-1.1-0.5-1.5-1s-0.7-0.9-0.9-1.5
		c-0.2-0.6-0.3-1.2-0.3-1.9c0-0.3,0-0.7,0.1-1.1C362.1,102.5,362.2,102.1,362.3,101.7z"/>
	<path class="st1" d="M391.9,108.3c-0.2,0-0.4,0-0.5-0.1s-0.3-0.2-0.4-0.3c-0.1-0.1-0.2-0.2-0.2-0.4s-0.1-0.3-0.1-0.5
		c0-0.1,0-0.3,0.1-0.6s0.2-0.5,0.3-0.8s0.2-0.6,0.4-0.9c0.1-0.3,0.3-0.6,0.4-0.9s0.2-0.6,0.3-0.8c0.1-0.2,0.2-0.4,0.2-0.6
		s0.1-0.4,0.1-0.6s0.1-0.5,0.2-0.7c0.1-0.3,0.1-0.5,0.2-0.8s0.1-0.6,0.2-0.9c-0.1,0-0.3,0.1-0.5,0.1s-0.4,0-0.6,0.1
		c-0.3,0-0.6,0.1-0.9,0.1c-0.3,0.1-0.6,0.1-0.9,0.2s-0.6,0.1-0.9,0.2s-0.7,0.2-1,0.2c-0.5,0.1-1.1,0.2-1.6,0.4
		c-0.5,0.1-1.1,0.2-1.7,0.2c-0.2,0-0.3,0-0.5-0.1s-0.3-0.2-0.5-0.2c-0.2,0.3-0.3,0.6-0.5,0.9s-0.3,0.7-0.4,1s-0.3,0.7-0.4,1
		s-0.2,0.6-0.3,0.9c0,0.2-0.1,0.4-0.1,0.6s-0.1,0.5-0.1,0.8s-0.1,0.5-0.1,0.8c0,0.2-0.1,0.4-0.1,0.6c0,0.1-0.1,0.3-0.2,0.4
		s-0.2,0.2-0.3,0.4c-0.1,0.1-0.2,0.2-0.4,0.3c-0.1,0.1-0.3,0.1-0.4,0.1c-0.2,0-0.5-0.1-0.6-0.2c-0.2-0.1-0.3-0.3-0.4-0.5
		s-0.2-0.5-0.2-0.7c0-0.3-0.1-0.5-0.1-0.7c0-0.5,0.1-1.1,0.2-1.7s0.3-1.2,0.5-1.8c0.2-0.6,0.5-1.2,0.8-1.8c0.3-0.6,0.6-1.2,1-1.8
		c0.3-0.5,0.7-1.2,1.1-1.9c0.4-0.7,0.9-1.4,1.5-2.2s1.1-1.5,1.8-2.2c0.6-0.7,1.3-1.4,2-1.9c0.7-0.6,1.4-1,2.1-1.4s1.4-0.5,2.1-0.5
		s1.4,0.1,1.9,0.4s0.9,0.6,1.2,1.1c0.3,0.5,0.5,1,0.6,1.6s0.2,1.2,0.2,1.9c0,0.6,0,1.2-0.1,1.8c-0.1,0.6-0.2,1.3-0.3,1.9
		c-0.1,0.6-0.2,1.2-0.4,1.8c-0.1,0.6-0.2,1.1-0.4,1.5l-0.5,1.8c0,0.1-0.1,0.2-0.1,0.3c0,0.2-0.1,0.4-0.2,0.6s-0.2,0.5-0.3,0.7
		s-0.2,0.5-0.3,0.8c-0.1,0.3-0.2,0.5-0.3,0.7c-0.1,0.2-0.2,0.4-0.2,0.5l0,0c-0.1,0.2-0.1,0.5-0.2,0.7s-0.2,0.5-0.3,0.6
		s-0.3,0.3-0.5,0.5S392.2,108.3,391.9,108.3z M392.6,91.6c-0.4,0-0.8,0.1-1.2,0.2c-0.4,0.2-0.8,0.4-1.2,0.6
		c-0.4,0.3-0.8,0.6-1.1,0.9c-0.4,0.4-0.7,0.7-1,1.1s-0.6,0.8-0.9,1.1c-0.3,0.4-0.5,0.7-0.8,1c0,0.1-0.1,0.1-0.1,0.2
		c-0.1,0.1-0.1,0.2-0.2,0.3c-0.1,0.1-0.1,0.2-0.2,0.3c-0.1,0.1-0.1,0.2-0.1,0.3h1.4c0.5,0,1.1,0,1.7-0.1s1.3-0.2,1.9-0.3
		c0.6-0.1,1.2-0.2,1.7-0.3c0.5-0.1,0.9-0.2,1.2-0.2c0-0.1,0.1-0.3,0.1-0.5s0.1-0.4,0.1-0.7c0-0.2,0-0.5,0.1-0.8c0-0.3,0-0.5,0-0.8
		c0-0.2,0-0.5,0-0.8s-0.1-0.6-0.2-0.8c-0.1-0.3-0.2-0.5-0.4-0.7S392.9,91.6,392.6,91.6z"/>
	<path class="st1" d="M400.6,101.3c0.4-1.2,0.8-2.4,1.1-3.5c0.4-1.1,0.7-2.2,1-3.1c0.3-1,0.5-1.8,0.7-2.6c0.2-0.7,0.3-1.3,0.3-1.8
		c0.1-0.4,0.3-0.8,0.6-1c0.3-0.2,0.6-0.4,0.9-0.4c0.2,0,0.4,0,0.5,0.1c0.2,0.1,0.3,0.2,0.4,0.4c0.1,0.2,0.2,0.3,0.2,0.5
		s0.1,0.4,0.1,0.6s0,0.3,0,0.4s0,0.2-0.1,0.4c-0.2,0.8-0.5,1.7-0.7,2.5s-0.6,1.8-0.9,2.7c-0.3,0.9-0.6,1.8-0.9,2.7s-0.6,1.8-0.8,2.6
		l-0.2,0.9c-0.1,0.5-0.2,0.9-0.3,1.3c-0.1,0.4-0.1,0.8-0.1,1c0,0.1,0,0.3,0.1,0.3s0.2,0.1,0.3,0.1c0.4,0,0.8-0.1,1.3-0.2
		s1-0.3,1.5-0.4s1-0.4,1.6-0.6c0.5-0.2,1-0.4,1.4-0.6c0.2-0.1,0.4-0.2,0.6-0.3s0.4-0.2,0.6-0.3s0.6-0.2,1-0.4c0.4-0.2,1-0.4,1.7-0.7
		c0.1,0,0.2-0.1,0.3-0.1s0.2,0,0.3,0c0.1,0,0.3,0,0.4,0.1s0.2,0.1,0.2,0.2c0.1,0.1,0.1,0.2,0.1,0.3c0,0.1,0,0.2,0,0.3
		c0,0.2,0,0.4,0,0.5s-0.1,0.3-0.1,0.4c-0.1,0.2-0.2,0.3-0.4,0.5c-0.2,0.1-0.3,0.3-0.5,0.4s-0.4,0.2-0.5,0.3
		c-0.2,0.1-0.3,0.1-0.4,0.2s-0.3,0.1-0.6,0.2s-0.5,0.2-0.8,0.3c-0.3,0.1-0.6,0.2-0.9,0.3c-0.3,0.1-0.6,0.2-0.8,0.3
		c-0.3,0.1-0.5,0.2-0.7,0.3c-0.2,0.1-0.3,0.1-0.4,0.2c-0.4,0.1-0.8,0.3-1.3,0.5s-0.9,0.3-1.4,0.5s-0.9,0.3-1.3,0.4s-0.8,0.2-1,0.2
		c-0.3,0-0.6,0-0.8-0.1c-0.2-0.1-0.4-0.1-0.5-0.2c-0.2-0.1-0.3-0.2-0.5-0.3c-0.2-0.1-0.4-0.3-0.6-0.4s-0.4-0.3-0.5-0.6
		c-0.1-0.2-0.1-0.5-0.1-0.8c0-0.1,0-0.3,0-0.5s0.1-0.4,0.1-0.6s0.1-0.4,0.1-0.6s0.1-0.4,0.1-0.5L400.6,101.3z"/>
	<path class="st1" d="M417,101.3c0.4-1.2,0.8-2.4,1.1-3.5c0.4-1.1,0.7-2.2,1-3.1c0.3-1,0.5-1.8,0.7-2.6c0.2-0.7,0.3-1.3,0.3-1.8
		c0.1-0.4,0.3-0.8,0.6-1c0.3-0.2,0.6-0.4,0.9-0.4c0.2,0,0.4,0,0.5,0.1c0.2,0.1,0.3,0.2,0.4,0.4c0.1,0.2,0.2,0.3,0.2,0.5
		s0.1,0.4,0.1,0.6s0,0.3,0,0.4s0,0.2-0.1,0.4c-0.2,0.8-0.5,1.7-0.7,2.5s-0.6,1.8-0.9,2.7c-0.3,0.9-0.6,1.8-0.9,2.7s-0.6,1.8-0.8,2.6
		l-0.2,0.9c-0.1,0.5-0.2,0.9-0.3,1.3c-0.1,0.4-0.1,0.8-0.1,1c0,0.1,0,0.3,0.1,0.3s0.2,0.1,0.3,0.1c0.4,0,0.8-0.1,1.3-0.2
		s1-0.3,1.5-0.4s1-0.4,1.6-0.6c0.5-0.2,1-0.4,1.4-0.6c0.2-0.1,0.4-0.2,0.6-0.3s0.4-0.2,0.6-0.3s0.6-0.2,1-0.4c0.4-0.2,1-0.4,1.7-0.7
		c0.1,0,0.2-0.1,0.3-0.1s0.2,0,0.3,0c0.1,0,0.3,0,0.4,0.1s0.2,0.1,0.2,0.2c0.1,0.1,0.1,0.2,0.1,0.3c0,0.1,0,0.2,0,0.3
		c0,0.2,0,0.4,0,0.5s-0.1,0.3-0.1,0.4c-0.1,0.2-0.2,0.3-0.4,0.5c-0.2,0.1-0.3,0.3-0.5,0.4s-0.4,0.2-0.5,0.3
		c-0.2,0.1-0.3,0.1-0.4,0.2s-0.3,0.1-0.6,0.2s-0.5,0.2-0.8,0.3c-0.3,0.1-0.6,0.2-0.9,0.3c-0.3,0.1-0.6,0.2-0.8,0.3
		c-0.3,0.1-0.5,0.2-0.7,0.3c-0.2,0.1-0.3,0.1-0.4,0.2c-0.4,0.1-0.8,0.3-1.3,0.5s-0.9,0.3-1.4,0.5s-0.9,0.3-1.3,0.4s-0.8,0.2-1,0.2
		c-0.3,0-0.6,0-0.8-0.1c-0.2-0.1-0.4-0.1-0.5-0.2c-0.2-0.1-0.3-0.2-0.5-0.3c-0.2-0.1-0.4-0.3-0.6-0.4s-0.4-0.3-0.5-0.6
		c-0.1-0.2-0.1-0.5-0.1-0.8c0-0.1,0-0.3,0-0.5s0.1-0.4,0.1-0.6s0.1-0.4,0.1-0.6s0.1-0.4,0.1-0.5L417,101.3z"/>
	<path class="st1" d="M433.1,110.2c0-0.2,0.1-0.4,0.2-0.6s0.3-0.4,0.5-0.7c0.2-0.2,0.4-0.5,0.7-0.7c0.3-0.3,0.5-0.5,0.8-0.8
		c0.5-0.5,1.1-1.1,1.7-1.7s1.1-1.2,1.7-1.8c0.2-0.3,0.4-0.5,0.5-0.7s0.2-0.3,0.3-0.4c0.1-0.1,0.1-0.2,0.1-0.3c0-0.1,0-0.2,0-0.2
		c-0.4-0.5-0.7-1-1-1.6s-0.5-1.1-0.8-1.8c-0.2-0.6-0.4-1.2-0.6-1.9c-0.2-0.6-0.4-1.2-0.5-1.8c-0.2-0.5-0.3-1.1-0.4-1.6
		c-0.1-0.6-0.3-1-0.5-1.4c-0.2-0.3-0.3-0.6-0.4-0.9s-0.2-0.7-0.2-1.1c0-0.2,0-0.4,0.1-0.6c0-0.2,0.1-0.4,0.2-0.6s0.2-0.4,0.4-0.5
		c0.2-0.1,0.4-0.2,0.6-0.2c0.3,0,0.5,0.1,0.7,0.3c0.2,0.2,0.4,0.4,0.6,0.7c0.2,0.3,0.3,0.6,0.5,0.9c0.1,0.3,0.2,0.6,0.3,0.9
		c0.1,0.4,0.2,0.9,0.3,1.4s0.3,1.2,0.4,1.8s0.3,1.2,0.4,1.7s0.2,1,0.3,1.3c0.1,0.4,0.2,0.8,0.4,1.1c0.1,0.4,0.3,0.7,0.4,0.9
		s0.3,0.5,0.4,0.6s0.3,0.2,0.4,0.2s0.2-0.1,0.4-0.4c0.7-1,1.5-2,2.3-3.1s1.6-2.2,2.3-3.3c0.3-0.4,0.5-0.8,0.7-1.1s0.4-0.7,0.6-1
		s0.3-0.6,0.5-0.9c0.1-0.3,0.3-0.6,0.4-0.9l0.3-1.4c0-0.1,0.1-0.3,0.2-0.4s0.2-0.3,0.3-0.4c0.1-0.1,0.2-0.2,0.4-0.3
		c0.1-0.1,0.3-0.1,0.5-0.1s0.4,0,0.6,0.1s0.3,0.2,0.4,0.4c0.1,0.2,0.2,0.3,0.2,0.5c0.1,0.2,0.1,0.4,0.1,0.6s0,0.5-0.1,0.8
		s-0.2,0.6-0.4,1c-0.2,0.3-0.3,0.7-0.5,1s-0.4,0.6-0.5,0.9c-1.3,1.8-2.6,3.7-3.9,5.5c-1.3,1.9-2.6,3.7-4,5.4
		c-1.2,1.5-2.4,2.9-3.5,4.2c-1.2,1.3-2.2,2.4-3.2,3.4c-0.2,0.2-0.4,0.4-0.7,0.6c-0.3,0.2-0.5,0.3-0.8,0.3c-0.2,0-0.3,0-0.4-0.1
		s-0.2-0.2-0.2-0.3s-0.1-0.2-0.1-0.4C433.1,110.5,433.1,110.4,433.1,110.2z"/>
</g>
<path class="st2" d="M23.6,86.4C40.4,75.2,111.7,30,169.3,57.5c4.7,2.2,9.5,5,14.2,8.5"/>
</svg>
