<?xml version="1.0" encoding="utf-8"?>
<!-- Generator: Adobe Illustrator 25.2.0, SVG Export Plug-In . SVG Version: 6.00 Build 0)  -->
<svg version="1.1" id="Layer_1" xmlns="http://www.w3.org/2000/svg" xmlns:xlink="http://www.w3.org/1999/xlink" x="0px" y="0px"
	 viewBox="0 0 115 157" style="enable-background:new 0 0 115 157;" xml:space="preserve">
<style type="text/css">
	.st0{opacity:0.12;fill:#18222D;}
	.st1{fill:#0A6159;}
	.st2{fill:#047A69;}
	.st3{fill:#2ABCAA;}
	.st4{fill:#F47856;}
	.st5{fill:#DD6043;}
	.st6{fill:#FFD8CF;}
</style>
<ellipse class="st0" cx="70.5" cy="153.5" rx="32.4" ry="3.5"/>
<g>
	<path class="st1" d="M34.3,96.8c-5-3.5-8.6-8-11.4-13.1c3.2-1.2,6.3-3,8-6.2c1.1-2,2-5.9-0.4-7.5c-2.1-1.4-5.1,0-6.6,1.6
		c-2.2,2.2-2.8,5.1-2.9,8.1c-1.5-3.4-2.7-6.9-3.7-10.5c3.4-1.4,6.6-3.4,8.1-6.9c0.9-2.1,1.4-5.5-0.7-7c-2.3-1.7-5.3,0-6.7,1.9
		c-1.3,1.8-1.9,4-2.2,6.2c-0.8-3.4-1.5-6.9-2.1-10.3c3.2-1.4,13.1-8.7,7.3-12.4c-4.4-2.9-6.8,2.2-8.1,6.8c-0.1-0.6-0.2-1.2-0.2-1.9
		c-0.3-2.9-0.5-5.9-0.6-8.8c0.1,0,0.2-0.1,0.3-0.2c3.2-3,4.5-7.4,3.9-11.8c-0.4-3.2-2.5-7.3-6.4-6.5C6.2,19.1,5,23.8,5.2,27
		c0.2,3.8,1.9,7.6,5.1,9.7c0.2,3.7,0.6,7.4,1.1,11C8.9,43,4.5,37.6,1,41.9c-2,2.5-0.3,5.7,1.6,7.6c2.6,2.6,6,4,9.6,3.8
		c0.6,3.9,1.4,7.7,2.3,11.5C10.6,60.7,4.1,56.1,1.1,62c-1.3,2.7-0.1,5.7,2.2,7.3c3.6,2.6,8.4,1.5,12.3,0.1c0.9,3.3,2,6.6,3.3,9.8
		c-1.9-1.5-4-2.7-6.2-3.1c-2.3-0.4-5,0.6-5.5,3.2C6.7,82,8.7,84,10.9,84.9c3.3,1.3,7.1,0.7,10.1-1c3,5.7,6.9,10.7,12.4,14.2
		C34.3,98.6,35.1,97.3,34.3,96.8z"/>
	<path class="st1" d="M54.5,96.8c5-3.5,8.6-8,11.4-13.1c-3.2-1.2-6.3-3-8-6.2c-1.1-2-2-5.9,0.4-7.5c2.1-1.4,5.1,0,6.6,1.6
		c2.2,2.2,2.8,5.1,2.9,8.1c1.5-3.4,2.7-6.9,3.7-10.5c-3.4-1.4-6.6-3.4-8.1-6.9c-0.9-2.1-1.4-5.5,0.7-7c2.3-1.7,5.3,0,6.7,1.9
		c1.3,1.8,1.9,4,2.2,6.2c0.8-3.4,1.5-6.9,2.1-10.3c-3.2-1.4-13.1-8.7-7.3-12.4c4.4-2.9,6.8,2.2,8.1,6.8c0.1-0.6,0.2-1.2,0.2-1.9
		c0.3-2.9,0.5-5.9,0.6-8.8c-0.1,0-0.2-0.1-0.3-0.2c-3.2-3-4.5-7.4-3.9-11.8c0.4-3.2,2.5-7.3,6.4-6.5c3.7,0.8,4.9,5.5,4.7,8.7
		c-0.2,3.8-1.9,7.6-5.1,9.7c-0.2,3.7-0.6,7.4-1.1,11c2.5-4.7,6.9-10.1,10.4-5.8c2,2.5,0.3,5.7-1.6,7.6c-2.6,2.6-6,4-9.6,3.8
		c-0.6,3.9-1.4,7.7-2.3,11.5c3.8-4.2,10.3-8.9,13.3-2.9c1.3,2.7,0.1,5.7-2.2,7.3c-3.6,2.6-8.4,1.5-12.3,0.1c-0.9,3.3-2,6.6-3.3,9.8
		c1.9-1.5,4-2.7,6.2-3.1c2.3-0.4,5,0.6,5.5,3.2s-1.5,4.6-3.7,5.5c-3.3,1.3-7.1,0.7-10.1-1c-3,5.7-6.9,10.7-12.4,14.2
		C54.5,98.6,53.8,97.3,54.5,96.8z"/>
	<path class="st2" d="M48.7,59.9c-1.6-2.1-4.7-1.8-6.7-0.5c-2.3,1.5-3.4,3.9-4.3,6.3c0-3.7-0.2-7.5-0.5-11.1c0-0.2,0-0.5-0.1-0.7
		c3.5-1.2,7.2-2.5,9.4-5.6c1.3-1.8,2.4-5,0.8-6.9c-1.6-2-5-1.4-6.9-0.3c-2,1.1-3.1,3.3-3.8,5.7c-0.2-3.1-0.3-6.2-0.3-9.3
		c3.9-0.5,7.5-2.1,10.2-5c1.9-2,4.3-5.5,2.3-8.1c-1.7-2.2-5.6-1.6-7.6-0.3c-2.3,1.5-3.7,4.6-4.7,7.6c0.3-4.1,0.9-8.2,2-12.2
		c4.2-1.1,8-3.6,10.4-7.3C51,9,52.2,3.9,48.6,1.1c-3.3-2.5-7.3-0.1-9.4,2.8c-3.1,4.4-4.5,10.4-2.5,15.5c-0.7,2.3-1.2,4.7-1.5,7.2
		c-0.5-1.2-1.1-2.3-1.9-3.3c-2-2.5-5.3-3.7-7.7-1C20.2,28.4,28,37,34.5,37.1c0,3.3,0.2,6.5,0.5,9.7c0.1,1,0.2,2.1,0.2,3.1
		c-2.7-4.9-8.3-13.3-11.7-6.6c-3,6,6.7,12.1,12,10.6c0.3,4.3,0.6,8.6,0.6,12.8c-0.9-3.1-2.3-6.1-5-7.8c-2.1-1.4-5-1.4-6.5,0.8
		c-1.6,2.4-0.6,5.8,1,7.8c2.4,3.2,6.5,4.3,10.3,4c-0.2,3.1-0.6,6.2-1.4,9.2c0-1.9-0.5-3.7-1.5-5.2c-1.5-2-4.2-3.2-6.4-1.6
		c-5.2,3.7,0.4,12.7,5.5,13.9c-1.1,2.3-2.4,4.6-4.1,6.7c-0.8,1,0.6,2.1,1.4,1.1c1.9-2.4,3.3-5,4.5-7.7c3.9,0.8,8.1,1.2,11.4-1.2
		c2.3-1.7,4-5.1,2.5-7.9c-3-5.7-8.7-0.4-12.2,4c1-3.6,1.6-7.4,1.9-11.2C42,71.2,53.6,66.2,48.7,59.9z"/>
	<path class="st2" d="M90.3,83.2c-0.2-2.1-2.4-3.2-4.3-3.1c-2.1,0-3.9,1.2-5.6,2.5c1.6-2.5,3-5.1,4.3-7.7c0.1-0.2,0.2-0.3,0.3-0.5
		c2.8,0.7,5.9,1.3,8.7,0.1c1.6-0.7,3.7-2.4,3.4-4.4c-0.2-2-2.8-3-4.5-3.1c-1.8,0-3.5,1-4.9,2.2c1.2-2.2,2.4-4.4,3.6-6.4
		c2.9,1.3,5.9,1.7,9,0.9c2.1-0.5,5.2-1.9,4.9-4.6c-0.2-2.2-3.1-3.4-5-3.4c-2.2,0.1-4.5,1.5-6.3,3.2c1.9-2.7,4-5.2,6.4-7.4
		c3.3,1,6.9,0.9,10.1-0.6c2.8-1.3,5.7-4.3,4.4-7.6c-1.2-3.1-4.9-3.2-7.5-2.1c-3.9,1.7-7.4,5.2-8.2,9.5c-1.4,1.3-2.8,2.7-4,4.2
		c0.2-1,0.2-2,0.1-3c-0.3-2.5-2.1-4.8-4.8-3.9c-6.1,1.9-4.4,11-0.1,13.8c-1.3,2.2-2.6,4.5-3.7,6.7c-0.4,0.7-0.8,1.5-1.1,2.2
		c0.2-4.5-0.1-12.4-5.1-9.3c-4.5,2.8-0.5,11,3.7,12.2c-1.6,3-3.2,6-5,8.9c0.7-2.5,1-5.1-0.1-7.4c-0.8-1.8-2.7-3-4.7-2.2
		c-2.1,0.9-2.8,3.6-2.6,5.7c0.3,3.2,2.6,5.6,5.3,7c-1.4,2-3,3.9-4.8,5.6c0.7-1.3,1.2-2.7,1.1-4.1c-0.1-2-1.5-3.9-3.7-3.8
		c-5.1,0.4-5.1,8.7-2.1,11.7c-1.7,1.1-3.5,2.1-5.6,2.8c-1,0.4-0.5,1.7,0.5,1.3c2.3-0.9,4.3-2,6.2-3.3c2.3,2.1,5,4.2,8.2,4
		c2.3-0.2,4.8-1.7,5-4.2c0.3-5.1-5.7-3.9-9.9-2.4c2.2-2,4.2-4.3,5.9-6.8C81,88,91,89.5,90.3,83.2z"/>
	<path class="st3" d="M62.3,54.3c-2.8,1.3-4.9,3.2-6.5,5.6c0.6-2.2,1.1-4.2,1.6-6.2c0.6-2.4,1.2-4.9,1.7-7.5
		c4.2-0.3,8.4-1.4,11.1-4.8c1.7-2.2,2.9-6,0.8-8.3c-2-2.2-5-1.2-7.1,0.3c-1.7,1.3-2.9,3-3.9,4.9c0.2-3.4,0-6.7-0.8-9.9
		c0.1,0,0.1-0.1,0.2-0.2c1.9-3.8,1.9-8.3-0.1-12c-1.5-2.9-4.2-5.5-7.5-3.8c-3.5,1.8-3.6,6.2-2.6,9.5c1.3,3.9,4.7,5.9,8.4,7.1
		c0.9,4.3,0.8,8.6,0.2,13c-1.3-5.6-4.4-14.1-9.5-9.4c-5.8,5.3,3.4,12.6,8.8,13.7c-0.7,3.5-1.6,6.9-2.5,10.4
		c-0.3-2.2-0.9-4.3-2.2-6.1c-1.6-2.2-4.2-3.7-6.5-1.5c-2.5,2.3-1.3,7.1-0.1,9.7c1.4,3.1,3.7,5.1,6.9,6c-0.1,0.7-0.3,1.4-0.4,2.1
		c-0.4,2.4-0.9,5-1.3,7.8c-0.6-2.6-1.4-5-3.1-6.7c-1.7-1.7-4.8-2.7-6.5-0.4c-1.7,2.3-0.8,6.7,0.3,9c1.7,3.7,4.8,6,8.5,7
		c-0.1,2.4,0.1,4.8,0.4,7.1c-3.3-4.8-8.6-10.4-11.8-4.4c-3.7,6.8,7.9,10.9,13.5,10.6c1.3,3,3.2,5.6,6,7.7c0.7,0.5,1.6-0.6,1-1.2
		c-1.9-1.9-3.3-4.1-4.4-6.4c3.7-0.3,7.3-2,9.9-4.7c2-2.1,3.6-5.5,1.1-7.9c-1.9-1.9-5.2-1.3-7.3-0.1c-2.9,1.7-4.5,4.6-5.5,7.7
		c-0.6-2.6-1-5.4-1-8.2c4.5,0,9.2-1,12.8-4c2.6-2.2,5.2-6.4,2.5-9.6c-5.4-6.2-12,2.6-15.1,8.7c0.3-4.6,1.2-9.3,2.3-13.8
		c4.7,1.4,9.8,0.8,13.7-2.2c2.4-1.8,5-5.5,2.8-8.5C69.1,51.8,64.8,53.1,62.3,54.3z"/>
	<g>
		<g>
			<path class="st4" d="M89,105.7c-0.2,1.2-1.1,2-2.3,2.1c-1,0.1-2.3,0.2-3.8,0.3l-1.8,8.3l-2.6,11.9l-4,18.4l0,0l-0.3,1.3
				c-1,4.8-5,8.3-9.8,8.9c-0.5,0.1-0.9,0.1-1.4,0.1H39.5c-0.1,0-0.3,0-0.4,0c-5.2-0.2-9.6-3.8-10.8-8.9V148l-4.1-18.9L21.3,116
				l-1.7-7.7c-1.3-0.1-2.6-0.2-3.9-0.4c-1.1-0.1-2-1-2.2-2.1c-0.4-3-0.9-9.1-0.1-14.2c0.2-1.2,1.2-2.1,2.4-2.1h70.7
				c1.2,0,2.3,0.9,2.4,2.1C89.4,94.5,89.8,100,89,105.7z"/>
			<path class="st5" d="M80.5,107.7c-9.1-1.7-19.3-0.6-28.5-0.6c-10-0.1-20.1-0.5-30.2-0.2c-1.1,0-1,1.5,0,1.6
				c10,1,20.1,1.1,30.2,1.3c9.2,0.2,19.5,1.3,28.5-0.5C81.3,109.1,81.3,107.8,80.5,107.7z"/>
		</g>
		<path class="st6" d="M33,121.6c0,2.7-1.5,5.3-3.8,6.6c-1.5,0.9-3.3,1.1-5,0.8l-2.9-13.1c0.2-0.2,0.4-0.3,0.6-0.4
			c1-0.5,2.2-0.9,3.4-0.9c0,0,0,0,0.1,0s0.3,0,0.4,0c0.3,0,0.9,0.1,0.9,0.1c0.1,0,0.7,0.1,1,0.1C30.7,115.7,32.9,118.5,33,121.6z"/>
		<path class="st6" d="M57.6,132.4c-0.4-1-0.8-1.6-1.6-2.4c-1.4-1.4-3.4-2.2-5.3-2.1c-2.5,0.1-4.6,1.4-6,3.5
			c-0.7,1.1-1.3,2.9-1.1,4.2c0,0.8,0.1,1.5,0.5,2.2c0.2,0.7,0.6,1.3,1.2,1.9c0.1,0,0.1,0.1,0.2,0.1c0.5,0.6,1.1,1.2,1.8,1.6
			c1,0.6,2.5,1,3.6,1c1.3-0.1,2.5-0.3,3.6-1c0.6-0.3,1.2-0.8,1.6-1.3c0.9-0.9,1.5-2,1.8-3.2l0.2-1.7c0-0.1,0-0.1,0-0.2
			C58.2,133.8,58,133.3,57.6,132.4z"/>
		<path class="st6" d="M81.1,116.4l-2.6,11.9c-0.4,0.1-0.9,0.1-1.3,0.2c-0.5-0.1-1-0.1-1.5-0.2c-1.1-0.4-1.4-0.5-2.1-1.1
			c-0.8-0.6-1-0.7-1.6-1.8c0,0,0-0.1-0.1-0.1c-0.2-0.2-0.4-0.5-0.6-0.8c-0.8-1.3-0.9-2.8-0.6-4.3c0.3-1.3,1.2-2.3,2.3-3.1
			c0.8-0.8,1.7-1.3,2.8-1.7c0.5-0.2,1.2-0.2,1.8-0.3C78.7,115.1,80.1,115.6,81.1,116.4z"/>
		<path class="st6" d="M39.9,154.6c-0.1,1.1,0,0.7-0.5,1.7c-0.1,0.2-0.2,0.5-0.3,0.7c-5.2-0.2-9.6-3.8-10.8-8.9
			c0.4-0.3,0.8-0.6,1.1-0.8c0.7-0.5,1.5-0.7,2.4-0.8c0.6-0.2,1.1-0.2,1.7,0c0.9,0,1.7,0.3,2.4,0.8c0.2,0.2,0.5,0.4,0.7,0.6
			c0.4,0.3,0.9,0.6,1.2,1l0,0l0,0c0.1,0.1,0.1,0.1,0.2,0.2c0,0.1,0.1,0.1,0.2,0.2c0.1,0.2,0.3,0.3,0.4,0.5c0.1,0.1,0.2,0.3,0.3,0.4
			v0.1c0,0,0,0.1,0.1,0.1c0.5,0.9,0.7,1.6,0.8,2.6C40,153.9,40,153.5,39.9,154.6z"/>
		<path class="st6" d="M74.5,146.6L74.5,146.6l-0.3,1.3c-1,4.8-5,8.3-9.8,8.9c0,0,0,0,0-0.1c-0.3-0.5-0.6-1.2-0.8-1.7
			c0-0.1-0.1-0.2-0.1-0.4c-0.1-0.5-0.2-1.3-0.2-1.8c0-0.3,0.1-0.8,0.1-1c0.1-0.4,0.1-0.8,0.2-1.1c0.2-0.6,0.5-1.2,0.8-1.7
			s0.7-1.1,1.1-1.4c1.9-1.8,4.6-2.5,7.1-1.8c0.4,0.1,1.3,0.5,1.6,0.7c0,0,0.1,0,0.1,0.1C74.4,146.6,74.5,146.6,74.5,146.6z"/>
	</g>
</g>
</svg>
