<?xml version="1.0" encoding="utf-8"?>
<!-- Generator: Adobe Illustrator 19.0.0, SVG Export Plug-In . SVG Version: 6.00 Build 0)  -->
<svg version="1.1" id="Capa_1" xmlns="http://www.w3.org/2000/svg" xmlns:xlink="http://www.w3.org/1999/xlink" x="0px" y="0px"
	 viewBox="-41 164.9 512 512" style="enable-background:new -41 164.9 512 512;" xml:space="preserve">
<style type="text/css">
	.st0{fill:#E6D9F9;}
	.st1{fill:#7E4CE8;}
	.st2{fill:none;stroke:#7E4CE8;stroke-width:24;stroke-miterlimit:10;}
	.st3{fill:#FFFFFF;}
</style>
<g>
	<g>
		<path class="st0" d="M173.6,334.7h237.7c10.6,0,19.2,8.6,19.2,19.2v208.6l6.8-0.8v96.6l-87.7-58.9h-176
			c-10.6,0-19.2-8.6-19.2-19.2V353.9C154.4,343.3,163,334.7,173.6,334.7z"/>
		<g>
			<path class="st1" d="M427.4,667.7L365.3,616h-198c-16.4,0-29.8-13.3-29.8-29.8V347.8c0-16.4,13.3-29.8,29.8-29.8h250.5
				c16.4,0,29.8,13.3,29.8,29.8v310.5c0,4.7-2.8,9.1-7,11.1c-1.6,0.8-3.4,1.1-5.2,1.1C432.5,670.6,429.7,669.6,427.4,667.7z
				 M167.3,338.4c-5.2,0-9.5,4.3-9.5,9.5v238.4c0,5.2,4.3,9.5,9.5,9.5h205.4l54.6,45.4V347.8c0-5.2-4.3-9.5-9.5-9.5H167.3z"/>
		</g>
		<path class="st2" d="M405.4,605.9"/>
	</g>
	<g>
		<path class="st3" d="M256.4,187.8H18.6c-10.6,0-19.2,8.6-19.2,19.2v208.6l-6.8-0.8v96.6l87.7-58.9h176c10.6,0,19.2-8.6,19.2-19.2
			V207.1C275.6,196.4,267,187.8,256.4,187.8z"/>
		<g>
			<path class="st1" d="M-5.3,523.7c-1.8,0-3.5-0.4-5.2-1.1c-4.3-2-7-6.4-7-11.1V201c0-16.4,13.3-29.8,29.8-29.8h250.5
				c16.4,0,29.8,13.3,29.8,29.8v238.4c0,16.4-13.3,29.8-29.8,29.8h-198L2.6,520.9C0.3,522.7-2.5,523.7-5.3,523.7z M12.3,191.5
				c-5.2,0-9.5,4.3-9.5,9.5v293.4l54.6-45.4h205.4c5.2,0,9.5-4.3,9.5-9.5V201c0-5.2-4.3-9.5-9.5-9.5H12.3z"/>
		</g>
		<path class="st2" d="M24.6,459"/>
	</g>
	<g>
		<path class="st1" d="M156.6,283.2L156.6,283.2c0,12.8-11.9,20.9-42.7,22.2l-1.3,1.3l5.7,39.5h25.4l2.7-14.9
			c26-4.6,47-17.4,47-48.6l0,0c0-32.3-23.9-51-59-51c-22.8-0.5-44.7,9.1-59.7,26.4l22.4,24.6c9.3-10.5,22.6-16.5,36.5-16.9
			C148.4,265.9,156.6,272.3,156.6,283.2z"/>
		<rect x="110.2" y="365.5" class="st1" width="39.5" height="39"/>
	</g>
</g>
</svg>
