<?xml version="1.0" encoding="utf-8"?>
<!-- Generator: Adobe Illustrator 23.0.1, SVG Export Plug-In . SVG Version: 6.00 Build 0)  -->
<svg version="1.1" xmlns="http://www.w3.org/2000/svg" xmlns:xlink="http://www.w3.org/1999/xlink" x="0px" y="0px"
	 viewBox="0 0 733 500" style="enable-background:new 0 0 733 500;" xml:space="preserve">
<style type="text/css">
	.st0{fill:#F6E0D5;}
	.st1{fill:none;stroke:#263238;stroke-linecap:round;stroke-linejoin:round;stroke-miterlimit:10;}
	.st2{opacity:0.2;clip-path:url(#XMLID_2_);}
	.st3{fill:#263238;}
	.st4{fill:#E9A681;stroke:#263238;stroke-linecap:round;stroke-linejoin:round;stroke-miterlimit:10;}
	.st5{fill:#92E3A9;stroke:#263238;stroke-linecap:round;stroke-linejoin:round;stroke-miterlimit:10;}
	.st6{opacity:0.2;}
	.st7{opacity:0.2;clip-path:url(#XMLID_3_);}
	.st8{opacity:0.4;}
	.st9{fill:#FFFFFF;}
	.st10{fill:#999999;stroke:#263238;stroke-linecap:round;stroke-linejoin:round;stroke-miterlimit:10;}
	.st11{opacity:0.2;clip-path:url(#XMLID_4_);}
	.st12{opacity:0.2;clip-path:url(#XMLID_5_);}
	.st13{opacity:0.2;fill:#FFFFFF;}
	.st14{opacity:0.7;clip-path:url(#XMLID_6_);}
	.st15{opacity:0.2;clip-path:url(#XMLID_6_);}
	.st16{opacity:0.2;clip-path:url(#XMLID_7_);}
	.st17{opacity:0.2;clip-path:url(#XMLID_8_);}
	.st18{fill:#F2BF75;stroke:#263238;stroke-linecap:round;stroke-linejoin:round;stroke-miterlimit:10;}
	.st19{clip-path:url(#XMLID_9_);fill:#E9A681;stroke:#2E353A;stroke-linecap:round;stroke-linejoin:round;stroke-miterlimit:10;}
	.st20{opacity:0.2;fill-opacity:0.7;}
	.st21{opacity:0.4;fill:#F9D3C0;}
	.st22{fill:#FFFFFF;stroke:#263238;stroke-linecap:round;stroke-linejoin:round;stroke-miterlimit:10;}
	.st23{opacity:0.4;fill:#92E3A9;}
</style>
<g id="Background_Simple">
</g>
<g id="Kitchen">
</g>
<g id="Dishes">
</g>
<g id="Character">
</g>
<g id="Plant">
	<g id="Picture">
	</g>
	<g id="Background_Simple_1_">
		<rect class="st0" width="733" height="500"/>
	</g>
	<g>
		<g>
			<g>
				<path class="st1" d="M541.1,314.8l-0.8,7l13.6-15.9c1.7,0.2,3.3,0.3,4.9,0.3"/>
				<path class="st1" d="M524.1,266.5c-1.8,2.7-2.9,5.7-3.3,9c-1.3,11.6,7.8,22.6,21.6,27.7l-0.7,6.3"/>
				<path class="st1" d="M529.4,260.7c-0.9,0.7-1.7,1.5-2.5,2.3"/>
				<path class="st1" d="M580.4,260.7c-5.6-4-12.8-6.8-20.9-7.7c-8.6-1-16.7,0.4-23.3,3.4"/>
				<path class="st1" d="M568.3,305.2c13-2.7,22.8-11,24-21.8c0.8-7.5-2.7-14.8-9-20.4"/>
				<path class="st1" d="M536.3,268.4c2.2,0.4,4.6-0.1,6.4-1.4c1.6,1.3,3.2,2.5,4.9,3.8c-0.3,0.1-0.3-0.6,0.1-0.6s0.6,0.3,0.9,0.6
					c1.1,1.2,3.1,1.2,4.7,0.9c1.6-0.4,3.2-1,4.9-0.9c1,0.1,1.9,0.4,2.9,0.7c6.7,2.1,13.6,3.1,20.6,4.1"/>
				<path class="st1" d="M530.5,275.5c1-0.1,6.6,0,7.4-0.7c0.5,0.8,0.9,1.6,1.4,2.4c0.5-0.5,1-1,1.5-1.5c0.3,1,0.5,2,0.8,2.9
					c1.1,0.3,1-1.9,1.9-2.6c0.6-0.4,1.4,0,1.8,0.5c0.4,0.6,0.4,1.3,0.5,2c2.3,0.2,4.6,0.4,6.8,0.6c0.4,0,0.9,0.1,1.3,0.1
					c0.5-0.7,1.2-1.3,2-1.6c-0.2,1.6,1.7,2.5,3.3,2.8c7.8,1.6,15.6,3,23.5,4.1"/>
				<path class="st1" d="M533.6,286.4c0.6,0.4,1.4-0.4,2.2-0.5c0.8-0.1,1.4,0.5,2.1,0.8s1.8,0.2,1.8-0.6c0.2,1,1.4,1.4,2.4,1.5
					c8.8,1.2,17.5,2.5,26.3,3.7"/>
			</g>
			<g>
				<path class="st1" d="M182.2,252.2l10.5,14.2l-2.1-18.5c0,0,3.6-1.7,7.2-4.3c10.8-7.8,15.1-20.3,11.2-30.5
					c-2.8-7.1-9.3-11.9-17.5-13.8"/>
				<path class="st1" d="M140.6,229.9c-0.3,3.2,0.1,6.4,1.3,9.4c4.3,10.9,17.4,16.4,32,14.5"/>
				<path class="st1" d="M142.6,222.3c-0.5,1.1-0.8,2.1-1.2,3.2"/>
				<path class="st1" d="M187.8,198.6c-6.8-0.9-14.5,0-22.1,2.9c-8,3.1-14.6,8.1-19,13.8"/>
				<path class="st1" d="M152.3,225.9c2.1-0.6,4-2.2,5-4.2c2,0.4,4,0.7,6.1,1.1c-0.3,0.3-0.6-0.4-0.3-0.6c0.3-0.2,0.7,0,1,0.1
					c1.6,0.5,3.3-0.3,4.6-1.4c1.3-1.1,2.4-2.4,3.9-3.1c0.9-0.4,1.9-0.6,2.9-0.8c6.9-1.3,13.5-3.6,20.1-5.9"/>
				<path class="st1" d="M150.5,234.9c0.9-0.5,5.8-3.1,6.2-4c0.8,0.5,1.5,1,2.3,1.5c0.2-0.7,0.4-1.3,0.7-2c0.7,0.8,1.4,1.5,2,2.3
					c1.1-0.3,0-2.2,0.5-3.2c0.3-0.6,1.2-0.7,1.8-0.4c0.6,0.3,1,0.9,1.3,1.5c2.1-0.9,4.2-1.8,6.3-2.7c0.4-0.2,0.8-0.3,1.2-0.5
					c0.1-0.9,0.5-1.7,1-2.3c0.5,1.5,2.7,1.4,4.2,0.9c7.6-2.2,15.2-4.6,22.7-7.3"/>
				<path class="st1" d="M158.3,243.1c0.8,0.1,1.1-1,1.7-1.4c0.6-0.4,1.5-0.2,2.2-0.2c0.8,0,1.7-0.7,1.4-1.3
					c0.6,0.8,1.9,0.6,2.8,0.2c8.3-3,16.6-6,25-8.9"/>
			</g>
		</g>
		<g>
			<g>
				<g>
					<defs>
						<path id="XMLID_89_" d="M487.1,322.9H237.8c-4.9,0-8.8-3.9-8.8-8.8V89.4c0-4.9,3.9-8.8,8.8-8.8h249.3c4.9,0,8.8,3.9,8.8,8.8
							v224.6C495.9,318.9,492,322.9,487.1,322.9z"/>
					</defs>
					<use xlink:href="#XMLID_89_"  style="overflow:visible;fill:#E9A681;"/>
					<clipPath id="XMLID_2_">
						<use xlink:href="#XMLID_89_"  style="overflow:visible;"/>
					</clipPath>
					<path class="st2" d="M495.9,213.3v101c0,4.7-3.8,8.5-8.5,8.5H237.5c-4.7,0-8.5-3.8-8.5-8.5v-20h0.5v13.5c0,5.4,4.4,9.8,9.8,9.8
						h241.4c5.4,0,9.8-4.4,9.8-9.8v-79.5c0-3.8-3-6.8-6.8-6.8H229v-8.2H495.9z"/>
					
						<use xlink:href="#XMLID_89_"  style="overflow:visible;fill:none;stroke:#263238;stroke-linecap:round;stroke-linejoin:round;stroke-miterlimit:10;"/>
				</g>
				<path class="st3" d="M472.7,242.1v-11.6c0-2.4-1.9-4.3-4.3-4.3H256.5c-2.4,0-4.3,1.9-4.3,4.3v11.6c0,2.4-1.9,4.3-4.3,4.3l0,0
					c-2.4,0-4.3,1.9-4.3,4.3v22.8c0,11,8.9,19.9,19.9,19.9l0,0c1.8,0,3.2,1.4,3.2,3.2v6.8c0,5.3,4.3,9.5,9.5,9.5h172.5
					c5.3,0,9.5-4.3,9.5-9.5v-6.8c0-1.8,1.4-3.2,3.2-3.2l0,0c11,0,19.9-8.9,19.9-19.9v-22.8c0-2.4-1.9-4.3-4.3-4.3l0,0
					C474.6,246.4,472.7,244.5,472.7,242.1z"/>
				<g>
					<path class="st4" d="M268.5,232.8H261c-1.9,0-3.4,1.5-3.4,3.4v1.9c0,3.9,3.2,8.9,7.1,8.9c3.9,0,7.1-5,7.1-8.9v-1.9
						C271.9,234.3,270.3,232.8,268.5,232.8z"/>
					<path class="st4" d="M286.2,232.8h-7.4c-1.9,0-3.4,1.5-3.4,3.4v1.9c0,3.9,3.2,8.9,7.1,8.9c3.9,0,7.1-5,7.1-8.9v-1.9
						C289.6,234.3,288.1,232.8,286.2,232.8z"/>
					<path class="st4" d="M304,232.8h-7.4c-1.9,0-3.4,1.5-3.4,3.4v1.9c0,3.9,3.2,8.9,7.1,8.9c3.9,0,7.1-5,7.1-8.9v-1.9
						C307.4,234.3,305.9,232.8,304,232.8z"/>
					<path class="st4" d="M321.7,232.8h-7.4c-1.9,0-3.4,1.5-3.4,3.4v1.9c0,3.9,3.2,8.9,7.1,8.9c3.9,0,7.1-5,7.1-8.9v-1.9
						C325.2,234.3,323.6,232.8,321.7,232.8z"/>
					<path class="st4" d="M339.5,232.8h-7.4c-1.9,0-3.4,1.5-3.4,3.4v1.9c0,3.9,3.2,8.9,7.1,8.9c3.9,0,7.1-5,7.1-8.9v-1.9
						C342.9,234.3,341.4,232.8,339.5,232.8z"/>
					<path class="st4" d="M357.3,232.8h-7.4c-1.9,0-3.4,1.5-3.4,3.4v1.9c0,3.9,3.2,8.9,7.1,8.9c3.9,0,7.1-5,7.1-8.9v-1.9
						C360.7,234.3,359.2,232.8,357.3,232.8z"/>
					<path class="st4" d="M375,232.8h-7.4c-1.9,0-3.4,1.5-3.4,3.4v1.9c0,3.9,3.2,8.9,7.1,8.9c3.9,0,7.1-5,7.1-8.9v-1.9
						C378.5,234.3,376.9,232.8,375,232.8z"/>
					<path class="st4" d="M392.8,232.8h-7.4c-1.9,0-3.4,1.5-3.4,3.4v1.9c0,3.9,3.2,8.9,7.1,8.9s7.1-5,7.1-8.9v-1.9
						C396.2,234.3,394.7,232.8,392.8,232.8z"/>
					<path class="st4" d="M410.6,232.8h-7.4c-1.9,0-3.4,1.5-3.4,3.4v1.9c0,3.9,3.2,8.9,7.1,8.9c3.9,0,7.1-5,7.1-8.9v-1.9
						C414,234.3,412.4,232.8,410.6,232.8z"/>
					<path class="st4" d="M428.3,232.8h-7.4c-1.9,0-3.4,1.5-3.4,3.4v1.9c0,3.9,3.2,8.9,7.1,8.9c3.9,0,7.1-5,7.1-8.9v-1.9
						C431.7,234.3,430.2,232.8,428.3,232.8z"/>
					<path class="st4" d="M446.1,232.8h-7.4c-1.9,0-3.4,1.5-3.4,3.4v1.9c0,3.9,3.2,8.9,7.1,8.9c3.9,0,7.1-5,7.1-8.9v-1.9
						C449.5,234.3,448,232.8,446.1,232.8z"/>
					<path class="st4" d="M463.8,232.8h-7.4c-1.9,0-3.4,1.5-3.4,3.4v1.9c0,3.9,3.2,8.9,7.1,8.9c3.9,0,7.1-5,7.1-8.9v-1.9
						C467.3,234.3,465.7,232.8,463.8,232.8z"/>
					<path class="st4" d="M268.5,270.4H261c-1.9,0-3.4,1.5-3.4,3.4v1.9c0,3.9,3.2,8.9,7.1,8.9c3.9,0,7.1-5,7.1-8.9v-1.9
						C271.9,272,270.3,270.4,268.5,270.4z"/>
					<path class="st5" d="M286.2,270.4h-7.4c-1.9,0-3.4,1.5-3.4,3.4v1.9c0,3.9,3.2,8.9,7.1,8.9c3.9,0,7.1-5,7.1-8.9v-1.9
						C289.6,272,288.1,270.4,286.2,270.4z"/>
					<path class="st4" d="M304,270.4h-7.4c-1.9,0-3.4,1.5-3.4,3.4v1.9c0,3.9,3.2,8.9,7.1,8.9c3.9,0,7.1-5,7.1-8.9v-1.9
						C307.4,272,305.9,270.4,304,270.4z"/>
					<path class="st5" d="M321.7,270.4h-7.4c-1.9,0-3.4,1.5-3.4,3.4v1.9c0,3.9,3.2,8.9,7.1,8.9c3.9,0,7.1-5,7.1-8.9v-1.9
						C325.2,272,323.6,270.4,321.7,270.4z"/>
					<path class="st4" d="M339.5,270.4h-7.4c-1.9,0-3.4,1.5-3.4,3.4v1.9c0,3.9,3.2,8.9,7.1,8.9c3.9,0,7.1-5,7.1-8.9v-1.9
						C342.9,272,341.4,270.4,339.5,270.4z"/>
					<path class="st4" d="M357.3,270.4h-7.4c-1.9,0-3.4,1.5-3.4,3.4v1.9c0,3.9,3.2,8.9,7.1,8.9c3.9,0,7.1-5,7.1-8.9v-1.9
						C360.7,272,359.2,270.4,357.3,270.4z"/>
					<path class="st4" d="M375,270.4h-7.4c-1.9,0-3.4,1.5-3.4,3.4v1.9c0,3.9,3.2,8.9,7.1,8.9c3.9,0,7.1-5,7.1-8.9v-1.9
						C378.5,272,376.9,270.4,375,270.4z"/>
					<path class="st4" d="M392.8,270.4h-7.4c-1.9,0-3.4,1.5-3.4,3.4v1.9c0,3.9,3.2,8.9,7.1,8.9s7.1-5,7.1-8.9v-1.9
						C396.2,272,394.7,270.4,392.8,270.4z"/>
					<path class="st4" d="M410.6,270.4h-7.4c-1.9,0-3.4,1.5-3.4,3.4v1.9c0,3.9,3.2,8.9,7.1,8.9c3.9,0,7.1-5,7.1-8.9v-1.9
						C414,272,412.4,270.4,410.6,270.4z"/>
					<path class="st4" d="M428.3,270.4h-7.4c-1.9,0-3.4,1.5-3.4,3.4v1.9c0,3.9,3.2,8.9,7.1,8.9c3.9,0,7.1-5,7.1-8.9v-1.9
						C431.7,272,430.2,270.4,428.3,270.4z"/>
					<path class="st5" d="M446.1,270.4h-7.4c-1.9,0-3.4,1.5-3.4,3.4v1.9c0,3.9,3.2,8.9,7.1,8.9c3.9,0,7.1-5,7.1-8.9v-1.9
						C449.5,272,448,270.4,446.1,270.4z"/>
					<path class="st5" d="M463.8,270.4h-7.4c-1.9,0-3.4,1.5-3.4,3.4v1.9c0,3.9,3.2,8.9,7.1,8.9c3.9,0,7.1-5,7.1-8.9v-1.9
						C467.3,272,465.7,270.4,463.8,270.4z"/>
					<path class="st4" d="M259.6,252.2h-7.4c-1.9,0-3.4,1.5-3.4,3.4v1.9c0,3.9,3.2,8.9,7.1,8.9s7.1-5,7.1-8.9v-1.9
						C263,253.7,261.5,252.2,259.6,252.2z"/>
					<path class="st4" d="M277.3,252.2h-7.4c-1.9,0-3.4,1.5-3.4,3.4v1.9c0,3.9,3.2,8.9,7.1,8.9c3.9,0,7.1-5,7.1-8.9v-1.9
						C280.8,253.7,279.2,252.2,277.3,252.2z"/>
					<path class="st5" d="M295.1,252.2h-7.4c-1.9,0-3.4,1.5-3.4,3.4v1.9c0,3.9,3.2,8.9,7.1,8.9c3.9,0,7.1-5,7.1-8.9v-1.9
						C298.5,253.7,297,252.2,295.1,252.2z"/>
					<path class="st4" d="M312.9,252.2h-7.4c-1.9,0-3.4,1.5-3.4,3.4v1.9c0,3.9,3.2,8.9,7.1,8.9c3.9,0,7.1-5,7.1-8.9v-1.9
						C316.3,253.7,314.7,252.2,312.9,252.2z"/>
					<path class="st4" d="M330.6,252.2h-7.4c-1.9,0-3.4,1.5-3.4,3.4v1.9c0,3.9,3.2,8.9,7.1,8.9c3.9,0,7.1-5,7.1-8.9v-1.9
						C334,253.7,332.5,252.2,330.6,252.2z"/>
					<path class="st4" d="M348.4,252.2H341c-1.9,0-3.4,1.5-3.4,3.4v1.9c0,3.9,3.2,8.9,7.1,8.9c3.9,0,7.1-5,7.1-8.9v-1.9
						C351.8,253.7,350.3,252.2,348.4,252.2z"/>
					<path class="st4" d="M366.1,252.2h-7.4c-1.9,0-3.4,1.5-3.4,3.4v1.9c0,3.9,3.2,8.9,7.1,8.9c3.9,0,7.1-5,7.1-8.9v-1.9
						C369.6,253.7,368,252.2,366.1,252.2z"/>
					<path class="st4" d="M383.9,252.2h-7.4c-1.9,0-3.4,1.5-3.4,3.4v1.9c0,3.9,3.2,8.9,7.1,8.9c3.9,0,7.1-5,7.1-8.9v-1.9
						C387.3,253.7,385.8,252.2,383.9,252.2z"/>
					<path class="st4" d="M401.7,252.2h-7.4c-1.9,0-3.4,1.5-3.4,3.4v1.9c0,3.9,3.2,8.9,7.1,8.9c3.9,0,7.1-5,7.1-8.9v-1.9
						C405.1,253.7,403.6,252.2,401.7,252.2z"/>
					<path class="st4" d="M419.4,252.2H412c-1.9,0-3.4,1.5-3.4,3.4v1.9c0,3.9,3.2,8.9,7.1,8.9c3.9,0,7.1-5,7.1-8.9v-1.9
						C422.9,253.7,421.3,252.2,419.4,252.2z"/>
					<path class="st4" d="M437.2,252.2h-7.4c-1.9,0-3.4,1.5-3.4,3.4v1.9c0,3.9,3.2,8.9,7.1,8.9c3.9,0,7.1-5,7.1-8.9v-1.9
						C440.6,253.7,439.1,252.2,437.2,252.2z"/>
					<path class="st4" d="M455,252.2h-7.4c-1.9,0-3.4,1.5-3.4,3.4v1.9c0,3.9,3.2,8.9,7.1,8.9c3.9,0,7.1-5,7.1-8.9v-1.9
						C458.4,253.7,456.8,252.2,455,252.2z"/>
					<path class="st4" d="M472.7,252.2h-7.4c-1.9,0-3.4,1.5-3.4,3.4v1.9c0,3.9,3.2,8.9,7.1,8.9c3.9,0,7.1-5,7.1-8.9v-1.9
						C476.1,253.7,474.6,252.2,472.7,252.2z"/>
					<path class="st4" d="M430.3,305.5H294.6c-1.8,0-3.2-1.4-3.2-3.2v-9.7c0-1.8,1.4-3.2,3.2-3.2h135.7c1.8,0,3.2,1.4,3.2,3.2v9.7
						C433.5,304.1,432.1,305.5,430.3,305.5z"/>
					<path class="st5" d="M448.5,290.3H441c-1.9,0-3.4,1.5-3.4,3.4v1.9c0,3.9,3.2,8.9,7.1,8.9c3.9,0,7.1-5,7.1-8.9v-1.9
						C451.9,291.9,450.3,290.3,448.5,290.3z"/>
					<path class="st5" d="M283.8,290.3h-7.4c-1.9,0-3.4,1.5-3.4,3.4v1.9c0,3.9,3.2,8.9,7.1,8.9c3.9,0,7.1-5,7.1-8.9v-1.9
						C287.3,291.9,285.7,290.3,283.8,290.3z"/>
				</g>
				<g>
					<path class="st6" d="M268.9,238.2c0.4,0,0.7,0,1.1,0.1c0-0.1,0-0.1,0-0.2v-1.9c0-0.8-0.7-1.5-1.5-1.5H261
						c-0.8,0-1.5,0.7-1.5,1.5v1.9c0,2.7,2,6.2,4.4,6.9C263.2,241.9,264.8,238.2,268.9,238.2z"/>
					<path class="st6" d="M287,237.7c0.2,0,0.5,0,0.7,0v-1.5c0-0.8-0.7-1.5-1.5-1.5h-7.4c-0.8,0-1.5,0.7-1.5,1.5v1.9
						c0,3,2.4,6.8,5,7C281.1,242,282.7,237.7,287,237.7z"/>
					<path class="st6" d="M305.3,237.4c0.1,0,0.1,0,0.1,0v-1.2c0-0.8-0.7-1.5-1.5-1.5h-7.4c-0.8,0-1.5,0.7-1.5,1.5v1.9
						c0,3.1,2.5,7,5.2,7c0.1,0,0.3,0,0.4,0C299.3,241.9,300.9,237.4,305.3,237.4z"/>
					<path class="st6" d="M321.9,236.9c0.5,0,0.9,0.1,1.3,0.1v-0.9c0-0.8-0.7-1.5-1.5-1.5h-7.4c-0.8,0-1.5,0.7-1.5,1.5v1.9
						c0,2.9,2.2,6.5,4.7,6.9C315.8,241.9,317.3,236.9,321.9,236.9z"/>
					<path class="st6" d="M340.6,236.9c0.1,0,0.2,0,0.4,0v-0.7c0-0.8-0.7-1.5-1.5-1.5h-7.4c-0.8,0-1.5,0.7-1.5,1.5v1.9
						c0,3.1,2.5,7,5.2,7c0.1,0,0.3,0,0.4,0C334.5,241.9,335.9,236.9,340.6,236.9z"/>
					<path class="st6" d="M358.5,237.1c0.1,0,0.2,0,0.2,0v-0.9c0-0.8-0.7-1.5-1.5-1.5h-7.4c-0.8,0-1.5,0.7-1.5,1.5v1.9
						c0,3.1,2.5,7,5.2,7c0.2,0,0.3,0,0.5,0C352.4,241.9,353.9,237.1,358.5,237.1z"/>
					<path class="st6" d="M375.7,236.9c0.3,0,0.6,0,0.8,0.1v-0.8c0-0.8-0.7-1.5-1.5-1.5h-7.4c-0.8,0-1.5,0.7-1.5,1.5v1.9
						c0,3,2.5,6.9,5.1,7C369.5,242,371,236.9,375.7,236.9z"/>
					<path class="st6" d="M394.3,237.2v-1c0-0.8-0.7-1.5-1.5-1.5h-7.4c-0.8,0-1.5,0.7-1.5,1.5v1.9c0,3.1,2.5,7,5.2,7
						c0.3,0,0.5,0,0.8-0.1C388.4,241.9,389.9,237.3,394.3,237.2z"/>
					<path class="st6" d="M410.6,236.8c0.5,0,1,0.1,1.5,0.2v-0.8c0-0.8-0.7-1.5-1.5-1.5h-7.4c-0.8,0-1.5,0.7-1.5,1.5v1.9
						c0,2.8,2.1,6.4,4.6,6.9C404.4,241.9,405.9,236.8,410.6,236.8z"/>
					<path class="st6" d="M428.7,236.8c0.4,0,0.7,0,1.1,0.1v-0.7c0-0.8-0.7-1.5-1.5-1.5h-7.4c-0.8,0-1.5,0.7-1.5,1.5v1.9
						c0,3,2.4,6.8,5,7C422.5,242,424,236.8,428.7,236.8z"/>
					<path class="st6" d="M446.8,237.3c0.3,0,0.5,0,0.8,0.1v-1.2c0-0.8-0.7-1.5-1.5-1.5h-7.4c-0.8,0-1.5,0.7-1.5,1.5v1.9
						c0,3,2.4,6.8,5,7C440.7,241.9,442.3,237.3,446.8,237.3z"/>
					<path class="st6" d="M465.3,237.1v-0.9c0-0.8-0.7-1.5-1.5-1.5h-7.4c-0.8,0-1.5,0.7-1.5,1.5v1.9c0,3.1,2.5,7,5.2,7
						c0.4,0,0.8-0.1,1.1-0.2C459.8,241.9,461.2,237.4,465.3,237.1z"/>
					<path class="st6" d="M269.4,274c0.2,0,0.4,0,0.6,0v-0.2c0-0.8-0.7-1.5-1.5-1.5H261c-0.8,0-1.5,0.7-1.5,1.5v1.9
						c0,3.1,2.5,7,5.2,7c0.2,0,0.4,0,0.6-0.1C263.1,279.6,264.4,274,269.4,274z"/>
					<path class="st6" d="M286.8,274c0.3,0,0.6,0,0.9,0.1v-0.3c0-0.8-0.7-1.5-1.5-1.5h-7.4c-0.8,0-1.5,0.7-1.5,1.5v1.9
						c0,3.1,2.5,7,5.2,7c0.1,0,0.1,0,0.2,0C280.4,279.7,281.8,274,286.8,274z"/>
					<path class="st6" d="M304.4,274.3c0.4,0,0.7,0,1,0.1v-0.5c0-0.8-0.7-1.5-1.5-1.5h-7.4c-0.8,0-1.5,0.7-1.5,1.5v1.9
						c0,3,2.5,6.9,5.1,7C298.2,279.6,299.6,274.3,304.4,274.3z"/>
					<path class="st6" d="M322.5,274.4c0.3,0,0.5,0,0.8,0.1v-0.6c0-0.8-0.7-1.5-1.5-1.5h-7.4c-0.8,0-1.5,0.7-1.5,1.5v1.9
						c0,3.1,2.5,7,5.2,7c0,0,0.1,0,0.1,0C316.2,279.6,317.7,274.4,322.5,274.4z"/>
					<path class="st6" d="M339.8,274c0.4,0,0.8,0,1.1,0.1v-0.3c0-0.8-0.7-1.5-1.5-1.5h-7.4c-0.8,0-1.5,0.7-1.5,1.5v1.9
						c0,3.1,2.5,7,5.2,7c0,0,0,0,0,0C333.5,279.7,334.9,274,339.8,274z"/>
					<path class="st6" d="M357.9,274.2c0.3,0,0.6,0,0.9,0.1v-0.4c0-0.8-0.7-1.5-1.5-1.5h-7.4c-0.8,0-1.5,0.7-1.5,1.5v1.9
						c0,3.1,2.5,7,5.2,7c0.1,0,0.1,0,0.2,0C351.6,279.6,353,274.2,357.9,274.2z"/>
					<path class="st6" d="M376.3,274.5c0.1,0,0.1,0,0.2,0v-0.7c0-0.8-0.7-1.5-1.5-1.5h-7.4c-0.8,0-1.5,0.7-1.5,1.5v1.9
						c0,3.1,2.5,7,5.2,7c0.2,0,0.4,0,0.6-0.1C370.1,279.5,371.6,274.5,376.3,274.5z"/>
					<path class="st6" d="M394.2,274.2C394.2,274.2,394.3,274.2,394.2,274.2l0.1-0.3c0-0.8-0.7-1.5-1.5-1.5h-7.4
						c-0.8,0-1.5,0.7-1.5,1.5v1.9c0,3.1,2.5,7,5.2,7c0.3,0,0.6-0.1,0.9-0.2C388,279.5,389.4,274.2,394.2,274.2z"/>
					<path class="st6" d="M411.5,273.8c0.2,0,0.4,0,0.6,0c0-0.8-0.7-1.4-1.5-1.4h-7.4c-0.8,0-1.5,0.7-1.5,1.5v1.9c0,3.1,2.5,7,5.2,7
						c0.2,0,0.5,0,0.7-0.1C405.1,279.6,406.4,273.8,411.5,273.8z"/>
					<path class="st6" d="M429.8,274C429.8,274,429.8,274,429.8,274l0-0.2c0-0.8-0.7-1.5-1.5-1.5h-7.4c-0.8,0-1.5,0.7-1.5,1.5v1.9
						c0,3.1,2.5,7,5.2,7c0.3,0,0.7-0.1,1-0.2C423.5,279.5,424.9,274,429.8,274z"/>
					<path class="st6" d="M447.2,274c0.1,0,0.3,0,0.4,0v-0.2c0-0.8-0.7-1.5-1.5-1.5h-7.4c-0.8,0-1.5,0.7-1.5,1.5v1.9
						c0,3.1,2.5,7,5.2,7c0.2,0,0.5,0,0.7-0.1C440.9,279.6,442.2,274,447.2,274z"/>
					<path class="st6" d="M464.7,274.8c0.2,0,0.4,0,0.6,0v-1c0-0.8-0.7-1.5-1.5-1.5h-7.4c-0.8,0-1.5,0.7-1.5,1.5v1.9
						c0,3.1,2.5,7,5.2,7c0,0,0,0,0,0C458.6,279.6,460.1,274.8,464.7,274.8z"/>
					<path class="st6" d="M260.9,256.1c0,0,0.1,0,0.1,0v-0.5c0-0.8-0.7-1.5-1.5-1.5h-7.4c-0.8,0-1.5,0.7-1.5,1.5v1.9
						c0,3.1,2.5,7,5.2,7c0.3,0,0.5,0,0.8-0.1C254.7,261.3,256.2,256.1,260.9,256.1z"/>
					<path class="st6" d="M278.3,256.1c0.2,0,0.3,0,0.5,0v-0.5c0-0.8-0.7-1.5-1.5-1.5h-7.4c-0.8,0-1.5,0.7-1.5,1.5v1.9
						c0,3.1,2.5,7,5.2,7c0.1,0,0.3,0,0.4,0C272.1,261.4,273.5,256.1,278.3,256.1z"/>
					<path class="st6" d="M296.5,256.1C296.5,256.1,296.5,256.1,296.5,256.1l0.1-0.5c0-0.8-0.7-1.5-1.5-1.5h-7.4
						c-0.8,0-1.5,0.7-1.5,1.5v1.9c0,3.1,2.5,7,5.2,7c0.3,0,0.5,0,0.8-0.1C290.3,261.3,291.7,256.1,296.5,256.1z"/>
					<path class="st6" d="M313.9,256c0.2,0,0.3,0,0.5,0v-0.4c0-0.8-0.7-1.5-1.5-1.5h-7.4c-0.8,0-1.5,0.7-1.5,1.5v1.9
						c0,3.1,2.5,7,5.2,7c0.2,0,0.4,0,0.5-0.1C307.6,261.4,309,256,313.9,256z"/>
					<path class="st6" d="M331.1,256.1c0.3,0,0.7,0,1,0.1v-0.6c0-0.8-0.7-1.5-1.5-1.5h-7.4c-0.8,0-1.5,0.7-1.5,1.5v1.9
						c0,3.1,2.5,7,5.2,7h0C324.9,261.4,326.3,256.1,331.1,256.1z"/>
					<path class="st6" d="M349.1,255.5c0.3,0,0.5,0,0.8,0.1c-0.1-0.8-0.7-1.4-1.5-1.4H341c-0.8,0-1.5,0.7-1.5,1.5v1.9
						c0,3.1,2.5,7,5.2,7c0.2,0,0.4,0,0.6-0.1C342.6,261.5,343.9,255.5,349.1,255.5z"/>
					<path class="st6" d="M367,256.3c0.2,0,0.5,0,0.7,0v-0.6c0-0.8-0.7-1.5-1.5-1.5h-7.4c-0.8,0-1.5,0.7-1.5,1.5v1.9
						c0,3.1,2.5,7,5.2,7c0.1,0,0.1,0,0.2,0C360.8,261.4,362.2,256.3,367,256.3z"/>
					<path class="st6" d="M385.4,255.6c0-0.8-0.7-1.5-1.5-1.5h-7.4c-0.8,0-1.5,0.7-1.5,1.5v1.9c0,3.1,2.5,7,5.2,7
						c0.5,0,1-0.2,1.5-0.4C379.7,261.1,380.9,256,385.4,255.6z"/>
					<path class="st6" d="M403.2,256v-0.4c0-0.8-0.7-1.5-1.5-1.5h-7.4c-0.8,0-1.5,0.7-1.5,1.5v1.9c0,3.1,2.5,7,5.2,7
						c0.4,0,0.8-0.1,1.2-0.3C397.4,261.2,398.7,256.3,403.2,256z"/>
					<path class="st6" d="M420.3,255.7c0.2,0,0.4,0,0.6,0v-0.1c0-0.8-0.7-1.5-1.5-1.5H412c-0.8,0-1.5,0.7-1.5,1.5v1.9
						c0,3.1,2.5,7,5.2,7c0.2,0,0.4,0,0.6-0.1C414,261.4,415.3,255.7,420.3,255.7z"/>
					<path class="st6" d="M438.7,256.4v-0.7c0-0.8-0.7-1.5-1.5-1.5h-7.4c-0.8,0-1.5,0.7-1.5,1.5v1.9c0,3.1,2.5,7,5.2,7
						c0.3,0,0.6-0.1,0.9-0.1C432.8,261.3,434.2,256.5,438.7,256.4z"/>
					<path class="st6" d="M455.6,255.9c0.3,0,0.6,0,0.8,0.1v-0.3c0-0.8-0.7-1.5-1.5-1.5h-7.4c-0.8,0-1.5,0.7-1.5,1.5v1.9
						c0,3.1,2.5,7,5.2,7c0.1,0,0.2,0,0.3,0C449.3,261.4,450.7,255.9,455.6,255.9z"/>
					<path class="st6" d="M473.5,256.6c0.2,0,0.5,0,0.7,0v-1c0-0.8-0.7-1.5-1.5-1.5h-7.4c-0.8,0-1.5,0.7-1.5,1.5v1.9
						c0,3,2.5,7,5.2,7C467.4,261.4,468.9,256.6,473.5,256.6z"/>
					<path class="st6" d="M293.3,302.4v-9.9c0-0.7,0.5-1.2,1.2-1.2h135.8c0.7,0,1.2,0.5,1.2,1.2v9.9c0,0.7-0.5,1.2-1.2,1.2H294.5
						C293.9,303.6,293.3,303.1,293.3,302.4z"/>
					<path class="st6" d="M449.9,294.8v-1c0-0.8-0.7-1.5-1.5-1.5H441c-0.8,0-1.5,0.7-1.5,1.5v1.9c0,3.1,2.5,7,5.2,7
						c0.2,0,0.4,0,0.7-0.1C443.9,299.4,445.4,294.8,449.9,294.8z"/>
					<path class="st6" d="M284.5,294.1c0.3,0,0.6,0,0.9,0.1v-0.4c0-0.8-0.7-1.5-1.5-1.5h-7.4c-0.8,0-1.5,0.7-1.5,1.5v1.9
						c0,3.1,2.5,7,5.2,7c0.1,0,0.1,0,0.2,0C278.2,299.6,279.6,294.1,284.5,294.1z"/>
				</g>
				<path class="st6" d="M491.4,147.9H233.5v-56c0-3.5,2.8-6.4,6.4-6.4H485c3.5,0,6.4,2.8,6.4,6.4V147.9z"/>
				<g>
					<defs>
						<path id="XMLID_86_" d="M465,96.1h-205c0,0-1.9-19.3-9-41.9H474C467,75.9,465,96.1,465,96.1z"/>
					</defs>
					<use xlink:href="#XMLID_86_"  style="overflow:visible;fill:#FFFFFF;"/>
					<clipPath id="XMLID_3_">
						<use xlink:href="#XMLID_86_"  style="overflow:visible;"/>
					</clipPath>
					<path class="st7" d="M467,82.6c-1.5,8.1-2,13.5-2,13.5h-205c0,0-0.5-5.3-2-13.5H467z"/>
					
						<use xlink:href="#XMLID_86_"  style="overflow:visible;fill:none;stroke:#263238;stroke-linecap:round;stroke-linejoin:round;stroke-miterlimit:10;"/>
				</g>
				<rect x="261.1" y="131.3" class="st3" width="201.1" height="82.7"/>
				<g class="st8">
					<path class="st9" d="M356.6,206.8c0.4,0,0.7,0,1.1,0.1c1.3-20.6,2.6-41.3,3.9-62C359.9,165.5,358.3,186.2,356.6,206.8z"/>
					<path class="st9" d="M353.2,206.5c0.4,0,0.7,0.1,1.1,0.1c2.3-20.5,4.6-41.1,6.9-61.8C358.5,165.5,355.9,186.1,353.2,206.5z"/>
					<path class="st9" d="M349.8,206.1c0.4,0,0.7,0.1,1.1,0.1c3.3-20.3,6.6-40.7,9.9-61.4C357.1,165.5,353.5,185.9,349.8,206.1z"/>
					<path class="st9" d="M346.5,205.6c0.4,0.1,0.7,0.1,1.1,0.2c4.2-20,8.5-40.3,12.9-61C355.7,165.5,351.1,185.7,346.5,205.6z"/>
					<path class="st9" d="M343.1,205c0.4,0.1,0.7,0.1,1.1,0.2c5.2-19.6,10.5-39.7,15.8-60.4C354.3,165.4,348.7,185.5,343.1,205z"/>
					<path class="st9" d="M339.8,204.2c0.4,0.1,0.7,0.2,1.1,0.3c6.1-19.2,12.4-39.1,18.7-59.7C352.9,165.4,346.2,185.2,339.8,204.2z
						"/>
					<path class="st9" d="M336.5,203.3c0.4,0.1,0.7,0.2,1.1,0.3c7-18.6,14.3-38.3,21.7-58.9C351.5,165.4,343.8,184.9,336.5,203.3z"
						/>
					<path class="st9" d="M333.1,202.3c0.4,0.1,0.7,0.2,1.1,0.4c7.9-18,16.2-37.3,24.6-57.9C350.1,165.3,341.4,184.5,333.1,202.3z"
						/>
					<path class="st9" d="M329.9,201.1c0.4,0.1,0.7,0.3,1.1,0.4c8.8-17.3,18.1-36.2,27.4-56.8C348.6,165.3,338.9,184.1,329.9,201.1z
						"/>
					<path class="st9" d="M326.6,199.8c0.4,0.2,0.7,0.3,1.1,0.5c9.6-16.5,19.9-35,30.3-55.6C347.2,165.2,336.5,183.6,326.6,199.8z"
						/>
					<path class="st9" d="M323.4,198.3c0.4,0.2,0.7,0.4,1.1,0.5c10.3-15.7,21.7-33.7,33.1-54.2C345.8,165.2,334,183,323.4,198.3z"/>
					<path class="st9" d="M320.2,196.7c0.4,0.2,0.7,0.4,1.1,0.6c11-14.7,23.4-32.2,35.9-52.6C344.3,165.1,331.6,182.4,320.2,196.7z"
						/>
					<path class="st9" d="M317.1,194.9c0.4,0.2,0.7,0.4,1.1,0.7c11.7-13.6,25-30.6,38.6-50.9C342.8,165,329.1,181.7,317.1,194.9z"/>
					<path class="st9" d="M314.1,192.9c0.4,0.3,0.7,0.5,1.1,0.7c12.3-12.4,26.6-28.8,41.2-49C341.4,164.9,326.6,181,314.1,192.9z"/>
					<path class="st9" d="M356,144.6c-16.1,20.2-31.9,35.5-44.8,46.1c0.4,0.3,0.7,0.6,1.1,0.8C325,180.4,340.4,164.8,356,144.6z"/>
					<path class="st9" d="M355.6,144.6c-17.1,20-33.9,34.6-47.3,43.8c0.3,0.3,0.7,0.6,1.1,0.9C322.6,179.5,338.9,164.6,355.6,144.6z
						"/>
					<path class="st9" d="M355.2,144.5c-18.2,19.9-35.9,33.6-49.6,41.3c0.3,0.3,0.7,0.7,1,1C320.2,178.5,337.5,164.4,355.2,144.5z"
						/>
					<path class="st9" d="M354.8,144.5c-19.2,19.6-37.8,32.5-51.7,38.6c0.3,0.4,0.6,0.7,1,1.1C317.9,177.4,336.1,164.2,354.8,144.5z
						"/>
					<path class="st9" d="M300.8,180.2c0.3,0.4,0.6,0.8,0.9,1.2c14-5.2,33-17.4,52.7-36.9C334.3,163.8,314.8,175.7,300.8,180.2z"/>
					<path class="st9" d="M298.8,177.1c0.3,0.4,0.5,0.8,0.8,1.3c14-3.5,33.9-14.8,54.4-34C333.1,163.4,312.8,174.3,298.8,177.1z"/>
					<path class="st9" d="M297,174c0.2,0.4,0.4,0.9,0.7,1.3c14-1.9,34.6-12.2,55.9-31C331.9,163,311,172.8,297,174z"/>
					<path class="st9" d="M295.6,170.9c0.2,0.4,0.4,0.9,0.6,1.3c13.9-0.3,35-9.6,57-27.9C330.9,162.4,309.5,171.2,295.6,170.9z"/>
					<path class="st9" d="M360,206.9c0.4,0,0.7,0,1.1,0c0.3-20.7,0.6-41.4,1-62.1C361.3,165.5,360.7,186.2,360,206.9z"/>
					<path class="st9" d="M363.4,206.9c0.4,0,0.7,0,1.1,0c-0.7-20.7-1.3-41.4-2-62.1C362.7,165.5,363,186.2,363.4,206.9z"/>
					<path class="st9" d="M366.8,206.8c0.4,0,0.7,0,1.1-0.1c-1.7-20.6-3.3-41.3-5-62C364.1,165.5,365.4,186.2,366.8,206.8z"/>
					<path class="st9" d="M370.1,206.6c0.4,0,0.7-0.1,1.1-0.1c-2.7-20.4-5.3-41-8-61.7C365.5,165.5,367.8,186.1,370.1,206.6z"/>
					<path class="st9" d="M373.5,206.3c0.4,0,0.7-0.1,1.1-0.1c-3.6-20.2-7.3-40.7-11-61.4C366.9,165.5,370.2,186,373.5,206.3z"/>
					<path class="st9" d="M376.9,205.8c0.4-0.1,0.7-0.1,1.1-0.2c-4.6-19.9-9.3-40.2-13.9-60.9C368.3,165.5,372.6,185.8,376.9,205.8z
						"/>
					<path class="st9" d="M380.2,205.3c0.4-0.1,0.7-0.1,1.1-0.2c-5.6-19.5-11.2-39.6-16.9-60.3C369.7,165.5,375,185.6,380.2,205.3z"
						/>
					<path class="st9" d="M383.6,204.6c0.4-0.1,0.7-0.2,1.1-0.3c-6.5-19-13.2-38.9-19.9-59.5C371.1,165.5,377.4,185.4,383.6,204.6z"
						/>
					<path class="st9" d="M386.9,203.8c0.4-0.1,0.7-0.2,1.1-0.3c-7.4-18.5-15.1-38-22.8-58.7C372.6,165.4,379.9,185.1,386.9,203.8z"
						/>
					<path class="st9" d="M390.2,202.8c0.4-0.1,0.7-0.2,1.1-0.4c-8.3-17.8-17-37-25.7-57.7C374,165.4,382.3,184.7,390.2,202.8z"/>
					<path class="st9" d="M393.5,201.7c0.4-0.1,0.7-0.3,1.1-0.4c-9.1-17.1-18.8-35.9-28.6-56.5C375.4,165.3,384.7,184.3,393.5,201.7
						z"/>
					<path class="st9" d="M396.8,200.4c0.4-0.2,0.7-0.3,1.1-0.5c-9.9-16.3-20.6-34.7-31.5-55.3C376.8,165.3,387.2,183.8,396.8,200.4
						z"/>
					<path class="st9" d="M400,199c0.4-0.2,0.7-0.3,1.1-0.5c-10.6-15.3-22.4-33.3-34.3-53.8C378.3,165.2,389.7,183.3,400,199z"/>
					<path class="st9" d="M403.2,197.5c0.4-0.2,0.7-0.4,1.1-0.6c-11.3-14.3-24.1-31.7-37.1-52.2
						C379.7,165.2,392.1,182.8,403.2,197.5z"/>
					<path class="st9" d="M406.3,195.7c0.4-0.2,0.7-0.4,1.1-0.7c-12-13.2-25.8-30-39.8-50.4C381.2,165.1,394.6,182.1,406.3,195.7z"
						/>
					<path class="st9" d="M368,144.6c14.7,20.4,29.1,36.8,41.4,49.2c0.4-0.2,0.7-0.5,1.1-0.7C398,181.1,383.1,165,368,144.6z"/>
					<path class="st9" d="M368.4,144.6c15.7,20.3,31.2,36,44,47.2c0.4-0.3,0.7-0.6,1.1-0.8C400.4,180.3,384.6,164.9,368.4,144.6z"/>
					<path class="st9" d="M368.8,144.6c16.8,20.2,33.2,35.1,46.5,44.9c0.4-0.3,0.7-0.6,1.1-0.9C402.9,179.4,386.1,164.7,368.8,144.6
						z"/>
					<path class="st9" d="M369.2,144.5c17.9,20,35.3,34.2,48.8,42.5c0.4-0.3,0.7-0.7,1-1C405.3,178.3,387.5,164.5,369.2,144.5z"/>
					<path class="st9" d="M369.6,144.5c18.9,19.9,37.2,33.1,51,39.8c0.3-0.4,0.7-0.7,1-1.1C407.7,177.2,388.9,164.3,369.6,144.5z"/>
					<path class="st9" d="M423.1,181.5c0.3-0.4,0.6-0.8,0.9-1.2c-14-4.4-33.7-16.3-54-35.8C389.9,164.1,409.1,176.4,423.1,181.5z"/>
					<path class="st9" d="M425.2,178.5c0.3-0.4,0.6-0.8,0.8-1.3c-14.1-2.7-34.5-13.6-55.7-32.8C391.2,163.7,411.2,175.1,425.2,178.5
						z"/>
					<path class="st9" d="M427.1,175.4c0.2-0.4,0.5-0.9,0.7-1.3c-14-1-35.1-10.9-57-29.7C392.4,163.3,413.1,173.6,427.1,175.4z"/>
					<path class="st9" d="M371.2,144.3c22.2,18.5,43.6,27.7,57.5,27.9c0.2-0.4,0.4-0.9,0.6-1.4C415.4,171.4,393.7,162.6,371.2,144.3
						z"/>
				</g>
				<path class="st6" d="M333.1,146.3c-3.8,9.7,0.3,38,27.7,38c27.3,0,37.3-19.9,36.2-32.1l36.5-5.9c0,0,11.2,30.9-12.6,52.6
					c-23.8,21.6-106.1,20.2-123.5,3.8c-17.4-16.4-7.8-48.9-7.8-48.9L333.1,146.3z"/>
			</g>
			<g>
				<path class="st10" d="M493.4,104.4v-6.8c0-0.5,0.3-1,0.8-1.1l5-1.6V88c0-1.7,1.4-3.1,3.1-3.1h6c0.6,0,1.1,0.5,1.1,1.1v2.2
					c0,0.6-0.5,1.1-1.1,1.1h-7.6v6.7c0,0.4-0.2,0.8-0.6,1l-4.3,2.6v4.8L493.4,104.4z"/>
				<g>
					<rect x="493.4" y="104.4" class="st3" width="6.6" height="19.7"/>
					<g>
						<defs>
							<rect id="XMLID_93_" x="500" y="102.7" width="8.2" height="23"/>
						</defs>
						<use xlink:href="#XMLID_93_"  style="overflow:visible;fill:#757575;"/>
						<clipPath id="XMLID_4_">
							<use xlink:href="#XMLID_93_"  style="overflow:visible;"/>
						</clipPath>
						<rect x="500" y="116.7" class="st11" width="8.2" height="9"/>
						
							<use xlink:href="#XMLID_93_"  style="overflow:visible;fill:none;stroke:#263238;stroke-linecap:round;stroke-linejoin:round;stroke-miterlimit:10;"/>
					</g>
					
						<rect x="224.9" y="104.4" transform="matrix(-1 -1.224647e-16 1.224647e-16 -1 456.3532 228.4076)" class="st3" width="6.6" height="19.7"/>
					<g>
						<defs>
							
								<rect id="XMLID_95_" x="216.7" y="102.7" transform="matrix(-1 -1.224647e-16 1.224647e-16 -1 441.5443 228.4076)" width="8.2" height="23"/>
						</defs>
						<use xlink:href="#XMLID_95_"  style="overflow:visible;fill:#757575;"/>
						<clipPath id="XMLID_5_">
							<use xlink:href="#XMLID_95_"  style="overflow:visible;"/>
						</clipPath>
						<rect x="216.7" y="116.7" class="st12" width="8.2" height="8.8"/>
						
							<use xlink:href="#XMLID_95_"  style="overflow:visible;fill:none;stroke:#263238;stroke-linecap:round;stroke-linejoin:round;stroke-miterlimit:10;"/>
					</g>
				</g>
				<path class="st4" d="M230.5,115.4L230.5,115.4c1.2-3.2,0.3-6.8-2.4-9l-4.8-4c-1.3-1.1-3.3-0.9-4.3,0.5l-19.2,26.5
					c-0.4,0.5-0.6,1.1-0.6,1.7v28.4c0,1.6,1.3,2.9,2.9,2.9l0,0c1.6,0,2.9-1.3,2.9-2.9v-23.1c0-0.6,0.2-1.1,0.5-1.6l14.4-20
					c0.5-0.7,1.6-0.9,2.3-0.3l2.6,2.2c0.7,0.6,1.5,0.9,2.3,0.9l0,0C228.6,117.7,229.9,116.8,230.5,115.4z"/>
				<circle class="st10" cx="226.5" cy="111.4" r="1.4"/>
				<rect x="237.6" y="94.9" class="st3" width="249.7" height="38.7"/>
				<path class="st13" d="M483.7,106.8H241.1c-0.8,0-1.4-0.6-1.4-1.4v-6.2c0-0.8,0.6-1.4,1.4-1.4h242.6c0.8,0,1.4,0.6,1.4,1.4v6.2
					C485.1,106.2,484.5,106.8,483.7,106.8z"/>
				<g>
					<defs>
						<path id="XMLID_91_" d="M465,141.3h-205c0,0-9-18.8-9-41.9H474C474,118.8,465,141.3,465,141.3z"/>
					</defs>
					<use xlink:href="#XMLID_91_"  style="overflow:visible;fill:#FFFFFF;"/>
					<clipPath id="XMLID_6_">
						<use xlink:href="#XMLID_91_"  style="overflow:visible;"/>
					</clipPath>
					<g class="st14">
						<path class="st1" d="M276.5,138.2c0,0,4.5-0.2,7-1.7c2.5-1.5,2.3,1.4,3.8,1.6c1.4,0.2,4.8-1,6.6-1c1.8,0,0.4,1.1,2.5,1
							c2-0.1,0.9,0.1,2-0.1s8.7-1.5,8.7-1.5s4.4-0.8,5.3-0.4c0.9,0.4,2.1,2.6,3.4,2c1.3-0.6,0.6-1,2.6-1c2,0,3.6,0.5,3.6,0.5
							s0.2-0.5,1.1-0.5c0.9,0,1.6,0,1.6,0s3.4,0.9,3.9,0.9c0.5,0,4.6-0.9,4.7-0.9c0.1,0,3.9-1,3.9-1s1.5,1.6,3,1.8
							c1.5,0.2,3-0.2,4.1,0.3c1.1,0.5,4.7-0.2,4.7-0.2s1.4,0,2.6,0.2c1.2,0.2,1.3,0.3,3.4-0.1c2.1-0.4,3-0.7,6.2-0.1
							s6.2-0.9,7.6-0.9c1.4,0,6.9,0.6,8.8,0.6c1.9,0,6.9,0.7,10.4,0.3c3.5-0.4,5.8,0.5,8.1,0.5c2.4,0,4.9-0.1,5.4-0.1
							c0.5,0,3.1-1.7,6.9-1.3c3.7,0.4,0.4-0.5,2.7,0c2.3,0.5,4.1,1,5.1,1.1c1,0.1,2.3-0.1,2.3-0.1l4-0.3c0,0,10.8,0,19.9,0"/>
						<path class="st1" d="M272.4,130.5c0,0,12.3,0,14.6-0.2c2.2-0.2,3.4-1.3,4.6-1.3s7.2,1.1,7.2,1.1s0.4-1.1,2-1.1
							c1.6,0,0.8,0.2,2.3,0.7s0.7,0,1.5,0.6c0.8,0.6,3.7,1.1,3.7,1.1s5.6,0.3,5.8-1.1c0.2-1.3,3,1.1,3,1.1s7.6-1.1,10.5-1.1
							c2.9,0,10.2-0.6,10.2-0.6s6,0.8,6.3,0.8c0.3,0,1.3,1.6,2.3,0.9c1.1-0.7,2.1-1.5,3.4-1.3c1.3,0.2,3.4,1.3,3.4,1.3l2.8-1.5
							l3.2,0.2c0,0,3.3,2.2,5.6,1.3c2.3-0.9,5.2-2.4,5.2-2.4l2.9,2.4h1.9l5.6-1.1c0,0,1.3,1.8,3.6,1.1c2.4-0.7,24.9,0,30.6,0
							c5.7,0,7-1.5,7-1.5l4.4,1.5h4.4h3H448"/>
					</g>
					<path class="st15" d="M467,135.5c-1.2,3.6-2.1,5.8-2.1,5.8h-205c0,0-1-2.1-2.4-5.8H467z"/>
					<path class="st15" d="M471.3,120.4c-0.7,3-1.5,5.9-2.2,8.5H255.4c-0.7-2.5-1.5-5.4-2.2-8.5H471.3z"/>
					
						<use xlink:href="#XMLID_91_"  style="overflow:visible;fill:none;stroke:#263238;stroke-linecap:round;stroke-linejoin:round;stroke-miterlimit:10;"/>
				</g>
				<g>
					<g>
						<defs>
							<rect id="XMLID_94_" x="231.4" y="92.9" width="6.1" height="42.7"/>
						</defs>
						<use xlink:href="#XMLID_94_"  style="overflow:visible;fill:#757575;"/>
						<clipPath id="XMLID_7_">
							<use xlink:href="#XMLID_94_"  style="overflow:visible;"/>
						</clipPath>
						<rect x="231.4" y="122.9" class="st16" width="5.9" height="12.7"/>
						
							<use xlink:href="#XMLID_94_"  style="overflow:visible;fill:none;stroke:#263238;stroke-linecap:round;stroke-linejoin:round;stroke-miterlimit:10;"/>
					</g>
					<g>
						<defs>
							<rect id="XMLID_92_" x="487.4" y="92.9" width="6.1" height="42.7"/>
						</defs>
						<use xlink:href="#XMLID_92_"  style="overflow:visible;fill:#757575;"/>
						<clipPath id="XMLID_8_">
							<use xlink:href="#XMLID_92_"  style="overflow:visible;"/>
						</clipPath>
						<rect x="487.3" y="122.9" class="st17" width="6.2" height="12.7"/>
						
							<use xlink:href="#XMLID_92_"  style="overflow:visible;fill:none;stroke:#263238;stroke-linecap:round;stroke-linejoin:round;stroke-miterlimit:10;"/>
					</g>
				</g>
				<polygon class="st10" points="487.4,91.1 487.4,122.2 237.5,122.2 237.5,91.1 235.1,91.1 235.1,124.3 489.8,124.3 489.8,91.1 
									"/>
			</g>
			<path class="st18" d="M502.2,143.5v69.8c0,2.5-2,4.4-4.4,4.4H227.1c-2.5,0-4.4-2-4.4-4.4v-69.8c0-2.5,2-4.4,4.4-4.4h124.7v4.4
				c0,0-21.3,18.5-58,25.3c5.3,23.8,34,42,68.7,42c34.7,0,63.4-18.2,68.7-42c-36.8-6.8-58-25.3-58-25.3v-4.4h124.7
				C500.2,139.1,502.2,141.1,502.2,143.5z"/>
			<g>
				<defs>
					<path id="XMLID_90_" d="M502.2,143.5v69.8c0,2.5-2,4.4-4.4,4.4H227.1c-2.4,0-4.4-2-4.4-4.4v-69.8c0-2.4,2-4.4,4.4-4.4h124.7
						v4.4c0,0-21.3,18.5-58,25.3c5.3,23.8,34,42,68.7,42c34.7,0,63.4-18.2,68.7-42c-36.8-6.8-58.1-25.3-58.1-25.3v-4.4h124.7
						C500.2,139.1,502.2,141.1,502.2,143.5z"/>
				</defs>
				<use xlink:href="#XMLID_90_"  style="overflow:visible;fill:#F4CCB8;"/>
				<clipPath id="XMLID_9_">
					<use xlink:href="#XMLID_90_"  style="overflow:visible;"/>
				</clipPath>
				<path class="st19" d="M496.2,144.6V209c0,1.8-1.5,3.3-3.3,3.3H229.8c-1.8,0-3.3-1.5-3.3-3.3v-64.5c0-1.8,1.5-3.3,3.3-3.3h122
					v2.2c0,0-21.3,18.5-58,25.3c5.3,23.8,34,42,68.7,42c34.7,0,63.4-18.2,68.7-42c-36.8-6.8-58.1-25.3-58.1-25.3v-2.2h119.9
					C494.7,141.3,496.2,142.8,496.2,144.6z"/>
				
					<use xlink:href="#XMLID_90_"  style="overflow:visible;fill:none;stroke:#263238;stroke-linecap:round;stroke-linejoin:round;stroke-miterlimit:10;"/>
			</g>
		</g>
		<g>
			<path class="st20" d="M412.8,238.5l13.3,37.1c0,0,5.8-40.8,9.2-40.8c3.4,0,10.8,22.3,10.8,22.3s4.6-11.6,8.9-12.1
				c4.3-0.4,8.2,28.6,8.2,28.6l0.7,64.4l-5.4,97.3c0,0-34.8-38.3-44.9-48.2c-10.1-9.9-19.8-31.6-22.6-36c-2.8-4.4-3.5-27.5-3.5-27.5
				s5.6-6.4,5.2-15.9c0,0,8.2-13.7,7.7-23.7C399.7,273.9,398.5,234.7,412.8,238.5z"/>
			<g>
				<path class="st9" d="M517.4,418.1l-52.6,27.7c0-0.3-6.9-11.5-15.3-24.2c-3.8-5.7-7.9-11.8-11.7-17.2
					c-6.3-8.9-14.4-16.6-15.1-18.3c-2-5-17.4-23.7-20.9-31c-3.4-7.3-4.2-29.9-5.8-35.3c-1.5-5.3,2.8-10.4,6.3-12.9
					c3.5-2.5,7.2-9,7.2-9s-3.9-15.1-3.9-22.8c0-7.7-2.6-34.4,0.5-36.9c3.1-2.5,5.9-1.4,6.7,0.3c2.6,5.7,4.9,19.9,6.8,26.5
					c2,6.6,5.7,25.6,7.5,27c1.8,1.4,5.1-3.8,5.1-3.8s0.3-16,1-22.6l-1-21c0,0-1.9-12.6,2.5-13.8c6-1.6,8.2,2.1,8.9,3.7
					c0.7,1.6,3.5,10.8,3.5,10.8s0.1,0.2,0.2,0.6c0,0.1,0,0.1,0.1,0.2c0,0,0,0.1,0,0.1c0,0.2,0.1,0.4,0.1,0.6
					c0.1,0.4,0.2,0.9,0.4,1.5c1.3,5.2,3.9,15.6,3.8,18.2c-0.2,3.5-1.4,22.7,0.3,26.7l2.7-26.5c0,0-4.4-20.4-3.1-23.4
					c1.3-3,7.1,0.3,7.8,1.5c0.7,1.2,6.4,8.2,7.4,10.9c1,2.7,1,2.7,1,2.7s1.4-6.3,4.7-4.7c3.3,1.6,3.7,9.7,4,13.2
					c0.2,3.5,2.6,26.2,3,26.2c0.4,0,4.2,11.8,3.7,19.6c-1.1,16.6,1.8,29,1.9,35.4c0.1,6.4-4.7,21.2-4.7,21.2s0,0,0,0
					c0.2,0.3,3.3,5.6,4.2,10.3c0.6,3.4,11.8,15.9,21,25.8c0,0,0,0,0,0C511.8,411.8,517.1,417.4,517.4,418.1z"/>
				<path class="st21" d="M449.5,421.6L449.5,421.6c-3.8-5.7-7.9-11.8-11.7-17.2c-6.3-8.9-14.4-16.6-15.1-18.3
					c-2-5-17.4-23.7-20.9-31c-3.4-7.3-4.2-29.9-5.8-35.3c-1.5-5.3,2.8-10.4,6.3-12.9c3.5-2.5,7.2-9,7.2-9s-3.9-15.1-3.9-22.8
					c0-7.7-2.6-34.4,0.5-36.9c3.1-2.5,5.9-1.4,6.7,0.3c2.6,5.7,4.9,19.9,6.8,26.5c2,6.6,5.7,25.6,7.5,27c1.8,1.4,5.1-3.8,5.1-3.8
					s0.3-16,1-22.6l-1-21c0,0-1.9-12.6,2.5-13.8c6-1.6,8.2,2.1,8.9,3.7c0.7,1.6,3.5,10.8,3.5,10.8s0.1,0.2,0.2,0.6
					c0,0.1,0,0.1,0.1,0.2c0,0,0,0.1,0,0.1c0,0.2,0.1,0.4,0.1,0.6c0.1,0.4,0.2,0.9,0.4,1.5c-1.6-2.4-3.7-4.5-6.5-5.1
					c-8-1.6-6.3,7.3-5.5,12.7c0.8,5.3-0.3,10.7-0.3,10.7l2-1.1c-1.4,2.6-3.5,23.9-3.5,28.7c0,4.8-3.8,6.3-7.1,4.9
					c-3.4-1.4-4.6-23.2-7.1-27.1c-2.6-3.9-9.7,3.6-10,10.4c-0.3,6.8,6,27.2,4.5,32c-1.5,4.8-1.5,23-1.5,23l-1.8-4.7
					c0.1,0.6,0,2.8-3.9,9.1c-4.9,8.2-2.1,15.6-2.1,15.6c2.3,5.1,14.2,18.8,16.2,20.2c0,0,1.5-5.9,6-4.4c0,0-2.4,3.6-3.3,8
					c-0.9,4.4,8.5,7.2,11.5,11.3C437.2,394.9,438.4,402.6,449.5,421.6z"/>
				<path class="st21" d="M505.5,405.1c-9.4-9.4-25.8-18.4-24.8-20.8c1.3-3.2-0.4-9.9-3.2-15.3c-2.9-5.5,1-14.3,1-14.3l1.8,5.1
					c0,0,2.3-7.9,0.5-18.1c-1.8-10.2-3.2-6.6-3.2-6.6s0.4-9.2,2-14.2c1.6-5,3-17.2,0.8-24.4c-2.2-7.2-7-5.9-8.3-3.4
					c-1.3,2.5,0.1,12.1,1.1,15.3c1,3.2-3.4,8.5-3.5,4.5c-0.1-4-1.8-15-1.8-15l3.4-22.2l-3.4-17.6c0,0,1.4-6.3,4.7-4.7
					c3.3,1.6,3.7,9.7,4,13.2c0.2,3.5,2.6,26.2,3,26.2c0.4,0,4.2,11.8,3.7,19.6c-1.1,16.6,1.8,29,1.9,35.4c0.1,6.4-4.7,21.2-4.7,21.2
					s0,0,0,0c0.2,0.3,3.3,5.6,4.2,10.3C485,382.7,496.3,395.1,505.5,405.1C505.5,405,505.5,405,505.5,405.1z"/>
				<path class="st21" d="M466.7,255.4c0.2,0.5,0.3,0.9,0.5,1.2c-3.2-7.4-8.6-5.1-9.6-3c-1,2.2,2.3,15.1,3,17.1
					c0.7,2-2.9,18.1-3.4,23.5c-0.5,5.3-1.9,6.4-1.9,6.4c-3.6,0.3-4-9.6-4-11c0.1,1.5,0.4,2.6,0.7,3.3l2.7-26.5
					c0,0-4.4-20.4-3.1-23.4c1.3-3,7.1,0.3,7.8,1.5C460,245.7,465.7,252.7,466.7,255.4z"/>
				<g>
					<path class="st1" d="M517.4,418.1c-0.7-1.5-31.9-33-33-38.8c-0.9-4.8-4.2-10.3-4.2-10.3s4.8-14.8,4.7-21.2
						c-0.1-6.4-3-18.8-1.9-35.4c0.5-7.8-3.3-19.5-3.7-19.6c-0.4,0-2.8-22.7-3-26.2c-0.2-3.5-0.6-11.6-3.9-13.2
						c-3.3-1.6-4.7,4.7-4.7,4.7s0,0-1-2.7c-1-2.7-6.7-9.7-7.4-10.9c-0.7-1.2-6.6-4.4-7.8-1.5c-1.3,3,3.1,23.4,3.1,23.4l-2.7,26.6
						c-1.7-4-0.5-23.2-0.4-26.7c0.2-3.5-4.6-21.2-4.6-21.2s-2.8-9.2-3.5-10.8c-0.7-1.6-2.9-5.4-8.9-3.7c-4.4,1.2-2.5,13.8-2.5,13.8
						l1,21c-0.7,6.7-1,22.6-1,22.6s-3.2,5.1-5.1,3.8c-1.8-1.4-5.5-20.4-7.5-27c-2-6.6-4.3-20.8-6.8-26.5c-0.8-1.7-3.6-2.8-6.7-0.3
						c-3.1,2.5-0.5,29.3-0.5,36.9c0,7.7,3.9,22.7,3.9,22.7s-3.7,6.5-7.2,9c-3.5,2.5-7.9,7.6-6.3,12.9c1.5,5.3,2.3,28,5.8,35.3
						c3.4,7.3,18.8,26,20.9,31c0.7,1.7,8.7,9.4,15.1,18.3c12.5,17.5,27,41,27,41.4"/>
					<path class="st1" d="M409.5,297.9c0,0,2.5,12.3,2.4,14.3c0,0-2.2,9.5-2.2,15.6c0,0-3.2,5-4.1,7.2c-0.8,2.2-2.3,7.7-1.7,10.7"/>
					<path class="st1" d="M405,316c0,0,6.1,0.1,5.7,2.6"/>
					<path class="st1" d="M409.7,327.9c0,0-3.9-1.7-5.3,0.6"/>
					<path class="st1" d="M432.2,288.2c0,0-0.3,9.4-2.8,8.7"/>
					<path class="st1" d="M451.9,293c0,0-0.7,5.2,1.2,6.7"/>
					<path class="st1" d="M467.7,258.1c0,0,2.7,13,3.3,16.1c0.6,3-3.1,18.8-3,22.9c0.1,4.1,1.8,9.9,1.6,12.7"/>
					<path class="st1" d="M478.5,356.8c0,0-0.9,8.5,1.7,12.1"/>
					<path class="st1" d="M426.1,373.6c0,0-5.8,5.3-3.7,11.8"/>
					<path class="st1" d="M464.3,307.6c0.1,3.7-2.1,8.1-2.3,13.3"/>
					<path class="st1" d="M445.8,304.2c1.2,3.1-1.5,9.7-1.9,12.2c-0.4,2.5,0.6,5.8,0.6,5.8"/>
					<path class="st1" d="M480.6,314.8c-0.5,3.2-2.8,5.6-3.2,15.6"/>
					<path class="st1" d="M423.8,303.3c1.7,1.8,0.5,10.6,1,12"/>
					<path class="st1" d="M455.1,252.9c0,0,5.7-4.2,10.6,0.8"/>
					<path class="st1" d="M435.5,243.3c0,0,1-1.7,5.8-1.3c4.8,0.4,5.7,3.1,5.7,3.1"/>
					<path class="st22" d="M421.4,271.8c0,0-1.6-2.4-5.9-1.6c-4.3,0.8-6.2,6.8-6.2,6.8"/>
					<path class="st1" d="M479.4,292.8c0,0-3.6-5.2-7.8-3"/>
				</g>
			</g>
		</g>
		<g>
			<path class="st20" d="M327.7,255c6,4.7,0.9,33.2,0.9,33.2l0.5,9.3l10.3-4.4l4.6,19.9c0,0-0.1,7.3,3.7,10c0,0,0.9,16.3,0,28.2
				c-0.9,11.9-20,25.9-26.6,38.4c-6.5,12.5-49.4,49.3-49.4,49.3l-36.3-17.3l26.2-105.9l23.5-30.2l13.9-34.8c0,0,2.4,22.7,1,38
				L327.7,255z"/>
			<g>
				<path class="st9" d="M337.8,318.4c-0.9,4.4,1.3,28.4,0.9,31.6c-0.4,3.2-19.5,24.9-20.4,26.6c-1,1.7-13.7,9-16.7,12.5
					c-13.9,16.2-21.5,31.1-27.5,46c0,0,0,0,0,0c-1.2,2.9-2.3,5.8-3.4,8.7l-55.1-32c4.6-5.7,9-10.8,13-15.5
					c8.1-9.4,14.4-16.9,17.5-24.1c0.5-1.2,2-3.4,3.3-5.2c1.2-1.8,2.3-3.2,2.3-3.2s-4-11.3-3.1-14.8c0.9-3.5-1.2-32.6-1.2-32.6
					s-2.7-19.8-5.4-24.8c-0.7-1.3-0.9-2.7-0.9-4.2c0.1-4.6,2.8-10.3,4.1-17.1c1.7-9,0.9-13.4,6.4-10.3c5.5,3.1,2.9,22,2.9,22
					l8.3,18.3c2.2-4.4,0-17.3-0.1-20.4c0-0.5,0-1.3-0.1-2.4c-0.2-5.3-0.5-16.2-0.1-20.5c0-0.2,0-0.5,0.1-0.7
					c0.7-4.5,3.1-18.7,4.6-20.2c2.3-2.3,5.9-4.3,9.2,1c1.9,3,1.1,26.8,1.1,26.8s7.8-9.5,10.2-11.8c2.4-2.3,9.6-6.5,11.5-1.6
					c1.9,4.9-5.2,20-5.2,20c1.5,3.5,1.7,13.2,1.7,13.2s3.4,12.1,5.4,12c0,0,0.1,0,0.1,0c0.6-0.1,1.3-2.3,1.9-5.4
					c1.7-7.6,3.6-20.5,5-21.7c0.2-0.2,0.5-0.5,1-0.8c0-0.1,0.1-0.1,0.2-0.1c0.1-0.1,0.2-0.2,0.4-0.3c3.5-3.1,11-10.1,11-10.1
					s0.5-3.3,7.1-2.3c6.5,1-2.9,20.3-2.9,20.3c-1.3,6.1-3.3,21.9-3.3,21.9c-0.6,6.6-0.3,24.2-0.3,24.2s3.1-10.3,2.9-14
					c-0.2-3.7,6.1-12.9,8-15.3c1.9-2.4,10.2-1.5,7.9,3C337.7,299.6,338.7,314.1,337.8,318.4z"/>
				<path class="st23" d="M246,372.5c0.5-1.2,2-3.4,3.3-5.2c0,0-3.3,9-3.6,13.8c-0.2,3.2-8.5,8.6-17.2,15.5
					C236.6,387.1,242.9,379.6,246,372.5z"/>
				<path class="st21" d="M249.3,367.3c1.2-1.8,2.3-3.2,2.3-3.2s-4-11.3-3.1-14.8c0.9-3.5-1.2-32.6-1.2-32.6s-2.7-19.8-5.4-24.8
					l6.2,10.9c0,0-0.6,8.6,1.2,13.3c1.8,4.7,4,19.1,4,19.1s-2.6,12.1-1.7,16.4c0.9,4.4,4.9,2.8,4.9,2.8S258.6,362.2,249.3,367.3z"/>
				<path class="st21" d="M263.8,285.4c4.3,25.1-3.1,18.2-5.8,12.8c-2.7-5.4-8.9-15.7-13.7-13.5c-1.5,0.7-2.5,1.7-3.2,2.9
					c0.1-4.6,2.8-10.3,4.1-17.1c1.7-9,0.9-13.4,6.4-10.3c5.5,3.1,2.9,22,2.9,22l8.3,18.3c2.2-4.4,0-17.3-0.1-20.4
					c0-0.5,0-1.3-0.1-2.4C262.9,280,263.3,282.6,263.8,285.4z"/>
				<path class="st21" d="M274.3,260.6c0,0-4.6-6.1-8.6-5.8c-1.3,0.1-2.4,0.7-3.1,2.3c0-0.2,0-0.5,0.1-0.7
					c0.7-4.5,3.1-18.7,4.6-20.2c2.3-2.3,5.9-4.3,9.2,1c1.9,3,1.1,26.8,1.1,26.8s7.8-9.5,10.2-11.8c2.4-2.3,9.6-6.5,11.5-1.6
					c1.9,4.9-5.2,20-5.2,20c1.5,3.5,1.7,13.2,1.7,13.2s3.4,12.1,5.4,12c-4.6,8.6-7.6-10.4-7.6-10.4c0.7-3.9-1.7-12.4-1.5-14.7
					c0.3-2.2-4.2-10.2-11.7-8c-7.5,2.2-2.1,31.7-2.1,31.7c-2.5,4.1-2.5,7.7-2.5,7.8c-2.3-2.9,0-11,0-11
					C273.8,283.5,274.3,260.6,274.3,260.6z"/>
				<path class="st23" d="M309.2,267.9c-3.2,3.4-2.8,11.8-6,22.5c1.7-7.6,3.6-20.5,5-21.7C308.4,268.6,308.8,268.3,309.2,267.9z"/>
				<path class="st21" d="M337.8,318.4c-0.9,4.4,1.3,28.4,0.9,31.6c-0.4,3.2-19.5,24.9-20.4,26.6c-1,1.7-13.7,9-16.7,12.5
					c-13.9,16.2-21.5,31.1-27.5,46c1.8-5.9,4.6-14.4,8.3-22.8c6.6-14.8,9.3-17.4,13.2-21.6c3.9-4.2,3.5-13.2,3.5-13.2s3.9-1,8.9-1
					s19.8-21.1,24.9-24.8c5.1-3.7,6-3.7,0-11.9s-4.3,1.3-6.1,1c-1.8-0.3-2.8,3.6-2.8,3.6c-0.6-8.3-6-18-7.1-20.4
					c-1.2-2.4,2.7-16.6,1.9-20.6c-0.8-4,3.4-28,3.4-28s-0.5-9.2-8.9-9.3c-1.5,0-2.7,0.4-3.6,1.1c3.5-3.1,11-10.1,11-10.1
					s0.5-3.3,7.1-2.3c6.5,1-2.9,20.3-2.9,20.3c-1.3,6.1-3.3,21.9-3.3,21.9c-0.6,6.6-0.3,24.2-0.3,24.2s3.1-10.3,2.9-14
					c-0.2-3.7,6.1-12.9,8-15.3c1.9-2.4,10.2-1.5,7.9,3C337.7,299.6,338.7,314.1,337.8,318.4z"/>
				<g>
					<path class="st1" d="M270.6,444c6.8-17.9,14.4-35.4,30.9-54.8c3-3.5,15.7-10.8,16.7-12.5c1-1.7,20.1-23.4,20.4-26.7
						c0.4-3.2-1.8-27.2-0.9-31.6c0.9-4.4-0.1-18.8,2.2-23.3c2.3-4.5-6-5.3-7.9-3c-1.8,2.4-8.2,11.6-8,15.3c0.2,3.7-2.9,14-2.9,14
						s-0.4-17.6,0.3-24.2c0,0,2-15.8,3.3-21.9c0,0,9.4-19.3,2.9-20.3c-6.5-1-7.1,2.3-7.1,2.3s-10.4,9.8-12.5,11.4
						c-2,1.6-4.9,26.6-6.9,27.1c-2.1,0.5-5.5-12-5.5-12s-0.2-9.7-1.7-13.2c0,0,7.1-15.1,5.2-20c-1.9-4.9-9.1-0.7-11.5,1.6
						c-2.4,2.3-10.2,11.8-10.2,11.8s0.8-23.8-1.1-26.8c-3.4-5.3-7-3.4-9.2-1c-1.5,1.6-3.9,15.8-4.6,20.2c-0.7,4.5,0,20.5,0.1,23.6
						c0.1,3.1,2.3,15.9,0.1,20.4l-8.3-18.3c0,0,2.6-18.9-2.9-22c-5.5-3.1-4.6,1.4-6.4,10.3c-1.7,9-5.9,16.3-3.2,21.3
						c2.7,5,5.4,24.8,5.4,24.8s2.1,29.1,1.1,32.6c-0.9,3.5,3.1,14.8,3.1,14.8s-4.6,6.1-5.6,8.4c-4.7,10.6-16.4,22.2-30.5,39.5"/>
					<path class="st1" d="M277.5,264.1c0,0-1.7,2-1.7,5.8c0,3.8,2.5,24.6,2.5,24.6s-1.8,2.1-1.9,4"/>
					<path class="st1" d="M321.3,321.4c0,0,0.3,5.5,2.7,10.1c2.3,4.6,1.6,7.2,0.8,9.9c-0.8,2.7-0.8,7.3-0.8,7.3"/>
					<path class="st1" d="M263.7,296.4c0,0,1.7,5.5-1.5,8.1"/>
					<path class="st1" d="M301.3,295.8c0,0,0.3,2.2-2.7,2.4"/>
					<path class="st1" d="M321.9,270.8c0,0-7.7-8.4-13.7-2.1"/>
					<path class="st1" d="M290.7,266.1c0,0-3.5-4.5-6.6-4.2c-3.1,0.3-7.2,2.1-7.7,4.6"/>
					<path class="st1" d="M325.4,338.7c0,0,2,2.7,2.7,5.9"/>
					<path class="st1" d="M305.4,304.6c-2.4,4.5-1.2,12-2.1,14.1"/>
					<path class="st1" d="M280,297.2c0.6,2.6-1.2,6.7-1.5,9.8c-0.3,3.1,2.2,7.8,1.8,12.1"/>
					<path class="st1" d="M263.8,307.7c0,0-2.1,4.8-2,8c0.1,3.2,1.2,10.1,1.2,10.1"/>
					<path class="st1" d="M248.4,307.4c0,0-0.8,5,1,8.5c1.8,3.5,3.5,11,3.5,11"/>
					<path class="st1" d="M251.7,364c0,0,2.8-0.5,3.5-4.1"/>
					<path class="st1" d="M301.9,379.3c0,0,1.9,7.1-1.8,11.6"/>
					<path class="st1" d="M241.3,286.7c0,0,5.4-5.3,9.5-0.8"/>
					<path class="st1" d="M262.6,256.5c0,0,4-4.2,8.7,0.3"/>
				</g>
			</g>
		</g>
	</g>
</g>
</svg>
