<?xml version="1.0" encoding="utf-8"?>
<!-- Generator: Adobe Illustrator 25.2.0, SVG Export Plug-In . SVG Version: 6.00 Build 0)  -->
<svg version="1.1" id="Layer_1" xmlns="http://www.w3.org/2000/svg" xmlns:xlink="http://www.w3.org/1999/xlink" x="0px" y="0px"
	 viewBox="0 0 467 130" style="enable-background:new 0 0 467 130;" xml:space="preserve">
<style type="text/css">
	.st0{fill:#671CC9;}
	.st1{fill:#FFFFFF;}
</style>
<path class="st0" d="M115.8,84.1l-35.1,35.1c-10.4,10.4-27.3,10.4-37.7,0L7.8,84.1c-10.4-10.4-10.4-27.3,0-37.7l35.1-35.1
	c10.4-10.4,27.3-10.4,37.7,0l35.1,35.1C126.2,56.8,126.2,73.7,115.8,84.1z"/>
<path class="st1" d="M63.6,63.4L54,54c-2.4-2.4-6.3-2.3-8.7,0.1l0,0c-2.4,2.4-2.3,6.3,0.1,8.7L55.7,73l3.2,3.1c3.1,3,8,2.9,11-0.1
	l3.1-3.2l5.1-5.3c2.4-2.4,2.3-6.3-0.1-8.7l0,0c-2.4-2.4-6.3-2.3-8.7,0.1l-4.4,4.5C64.7,63.8,64,63.8,63.6,63.4z"/>
<g>
	<path d="M163.1,83.3h31l5.5,15.1H144V28.3h19L163.1,83.3z"/>
	<path d="M221.5,98.4h-18.9V28.3h19L221.5,98.4z"/>
	<path d="M224.8,83.4l35.8-0.1l0.1-12.8h-26c-5.5,0-8.9-2.4-10-7.1c0-1.2,0-2.5,0.1-3.8c0-1.3,0.1-2.6,0.1-3.8h-0.1V36.4
		c0.6-2.9,1.7-5,3.4-6.3c1.6-1.3,3.9-1.9,6.6-1.9h45.8c-1.3,3.6-2.4,6.6-3.3,9c-0.9,2.4-1.6,4.4-2.2,6h-5.6l-24.6,0.1v12.5l25.8-0.1
		c2.8,0,5,0.6,6.6,1.9c1.6,1.3,2.8,3.4,3.4,6.3c0,0.2,0,0.3-0.1,0.5c0,0.2-0.1,0.4-0.1,0.5h0.2v26.2c-1.1,4.7-4.5,7.1-10,7.1
		l-14.5,0.2v0.1h-26.1L224.8,83.4z"/>
	<path d="M321.1,89.5l0.1,30.9l-19.1,6.9L302,98.7V42.9h-18.2V28.2l47.9,0.3v14.4H321v46.6H321.1z"/>
	<path d="M364.6,64.2l29,34.2h-22.4l-17.5-19v0.1v18.9h-18.9V76l-0.1-0.1l0.1-0.1V28.3h19l-0.1,20l13.8-20.1h22.7l-0.6,0.7h0.3
		L364.6,64.2z"/>
	<path d="M415.5,98.4h-18.9V28.3h19L415.5,98.4z"/>
	<path d="M455.8,89.5l0.1,30.9l-19.1,6.9l-0.1-28.5V42.9h-18.2V28.2l47.9,0.3v14.4h-10.7v46.6H455.8z"/>
</g>
</svg>
