<?xml version="1.0" encoding="utf-8"?>
<!-- Generator: Adobe Illustrator 25.2.0, SVG Export Plug-In . SVG Version: 6.00 Build 0)  -->
<svg version="1.1" id="Layer_1" xmlns="http://www.w3.org/2000/svg" xmlns:xlink="http://www.w3.org/1999/xlink" x="0px" y="0px"
	 viewBox="0 0 286.6 319.5" style="enable-background:new 0 0 286.6 319.5;" xml:space="preserve">
<style type="text/css">
	.st0{fill:none;stroke:#7703FC;stroke-width:14;stroke-miterlimit:10;}
</style>
<path class="st0" d="M279.6,221.1V98.4c0-10.7-5.7-20.6-15-26L158.3,11c-9.3-5.4-20.7-5.4-30,0L22,72.4c-9.3,5.4-15,15.3-15,26
	v122.8c0,10.7,5.7,20.6,15,26l106.3,61.4c9.3,5.4,20.7,5.4,30,0l106.3-61.4C273.9,241.8,279.6,231.9,279.6,221.1z"/>
<path class="st0" d="M180.7,241.5l44.3-44.3c7.6-7.6,10.5-18.6,7.8-29l-16.2-60.5c-2.8-10.4-10.9-18.4-21.2-21.2l-60.5-16.2
	c-10.4-2.8-21.4,0.2-29,7.8l-44.3,44.3c-7.6,7.6-10.5,18.6-7.8,29l16.2,60.5c2.8,10.4,10.9,18.4,21.2,21.2l60.5,16.2
	C162.1,252,173.2,249,180.7,241.5z"/>
</svg>
