<?xml version="1.0" encoding="utf-8"?>
<!-- Generator: Adobe Illustrator 25.2.0, SVG Export Plug-In . SVG Version: 6.00 Build 0)  -->
<svg version="1.1" id="Layer_1" xmlns="http://www.w3.org/2000/svg" xmlns:xlink="http://www.w3.org/1999/xlink" x="0px" y="0px"
	 viewBox="0 0 410.3 130" style="enable-background:new 0 0 410.3 130;" xml:space="preserve">
<style type="text/css">
	.st0{fill:#FFFFFF;}
	.st1{fill:#29EF95;}
</style>
<path class="st0" d="M63.6,63.4L54,54c-2.4-2.4-6.3-2.3-8.7,0.1l0,0c-2.4,2.4-2.3,6.3,0.1,8.7L55.7,73l3.2,3.1c3.1,3,8,2.9,11-0.1
	l3.1-3.2l5.1-5.3c2.4-2.4,2.3-6.3-0.1-8.7l0,0c-2.4-2.4-6.3-2.3-8.7,0.1l-4.4,4.5C64.7,63.8,64,63.8,63.6,63.4z"/>
<g>
	<path class="st1" d="M53.5,37.3L60,48.6l2.9,5l17.4,30.1l28.2-0.1L62.1,4.6L48.7,28.9L53.5,37.3z M102.9,83.6l-16.8,0.1"/>
	<path class="st1" d="M29.2,112.7l9.2-16l2.1-3.7l2.9-5l17.4-30.1L46.6,33.3L1.3,112.7H29.2z M49.5,38.4l2,3.3L58,52.9V53L49.5,38.4
		z"/>
	<path class="st1" d="M33.3,112.7h92.4l-15-24.7l-63,0.1L33.3,112.7z M44.6,93.1l-8.3,14.6l6.2-10.9L44.6,93.1z"/>
</g>
<g>
	<path d="M157.1,29.1h18.4l-18,69.3h-0.3l0.1,0.1H139v-0.1h-0.2l-18-69.3h18.4l9,34.4L157.1,29.1z"/>
	<path d="M233.4,98.1h-54.9V29h18.7l0.2,54.6h16.7V29.3h0.3V29h18.7L233.4,98.1z"/>
	<path d="M236.5,29h54.9l-5.4,14.9h-30.6v12.6h30.6V71h-30.6v12.2l36-0.1l-5.3,15.1h-49.5V29z"/>
	<path d="M313.4,98.3h-18.8V64.9l-0.1-0.1l0.1-0.1V29l45.2-0.1c2.7,0,4.9,0.6,6.5,1.9c1.6,1.3,2.7,3.3,3.3,6.2c0,4.7,0,8.5,0,11.3
		s0,4.9,0,6.5s0,2.7,0,3.4c0,0.7,0,1.3,0,1.8c-0.5,2.4-1.4,4.3-2.6,5.5c-1.2,1.3-2.8,2.1-4.8,2.4v0.3h-7.1l14.4,30.3h-19.4l-14.1-30
		V56.6h13.7V43.7h-17.1L313.4,98.3z"/>
	<path d="M362.6,98.3c-5.5,0-8.8-2.3-9.9-7c0.1-9.7,0.1-19,0.1-27.8c0-8.9,0-17.7-0.1-26.5c0.6-2.9,1.7-5,3.3-6.2
		c1.6-1.3,3.8-1.9,6.5-1.9h35.5c2.7,0,4.9,0.6,6.5,1.9c1.6,1.3,2.7,3.3,3.3,6.2c-0.1,8.8-0.1,17.6-0.1,26.5c0,8.9,0,18.1,0.1,27.8
		c-1.1,4.7-4.4,7-9.9,7H362.6z M372.6,83.1h15.5V43.8h-15.5V83.1z"/>
</g>
</svg>
