<?xml version="1.0" encoding="utf-8"?>
<!-- Generator: Adobe Illustrator 25.2.0, SVG Export Plug-In . SVG Version: 6.00 Build 0)  -->
<svg version="1.1" id="e37c00f5-ff96-45aa-87ea-1a24b78ba7bd"
	 xmlns="http://www.w3.org/2000/svg" xmlns:xlink="http://www.w3.org/1999/xlink" x="0px" y="0px" viewBox="0 0 1176.6 874"
	 style="enable-background:new 0 0 1176.6 874;" xml:space="preserve">
<style type="text/css">
	.st0{fill:#69FF97;}
	.st1{fill:#444053;}
	.st2{fill:none;stroke:#444053;stroke-miterlimit:10;}
	.st3{fill:none;stroke:#444053;stroke-width:0.75;stroke-miterlimit:10;}
	.st4{opacity:0.2;fill:#7703FC;enable-background:new    ;}
	.st5{fill:url(#SVGID_1_);}
	.st6{fill:#FFFFFF;}
	.st7{fill:#242C3A;}
	.st8{opacity:4.000000e-02;fill:#5A5773;enable-background:new    ;}
	.st9{fill:#4B5460;}
	.st10{fill:#2A3444;}
	.st11{fill:#151B28;}
	.st12{opacity:0.2;fill:none;stroke:#5A5773;stroke-miterlimit:10;enable-background:new    ;}
	.st13{opacity:0.2;fill:none;stroke:#5A5773;stroke-miterlimit:10;stroke-dasharray:12;enable-background:new    ;}
	.st14{fill:#7703FC;}
	.st15{opacity:0.5;fill:#7703FC;enable-background:new    ;}
	.st16{opacity:0.5;fill:#00E4FF;enable-background:new    ;}
	.st17{fill:url(#SVGID_2_);}
	.st18{fill:#2D293D;}
	.st19{opacity:0.1;enable-background:new    ;}
	.st20{fill:#575988;}
	.st21{opacity:5.000000e-02;enable-background:new    ;}
	.st22{opacity:5.000000e-02;}
	.st23{fill:#FFCDD3;}
	.st24{fill:#DCE6F2;}
	.st25{fill:#656691;}
	.st26{opacity:0.1;}
	.st27{fill:#FFD037;}
	.st28{fill:#65617D;}
	.st29{fill:#9D9CB5;}
</style>
<g>
	<path class="st0" d="M350.4,145c0,0-2.7,10.7,16.4,40.8s17.8,34.4,16.7,43c-1.1,8.6-1,13.3-12.1,23.9c0,0-33.2,10.9-37.7,17.7
		c-4.4,6.8,7.3,31.5,7.3,31.5s11.3,30-29.3,41.6c0,0-31.8,0-40.6,7.1c0,0,3.4-12.2-7.2-30.1s4-35.4,4-35.4s11.8-6.5,19.2-7
		c7.5-0.5,9.8-3.9,5-12.5c0,0-6.9-3.6-16.6,4.1s-16.8,13.3-25.2,12.6c-8.4-0.7-20.3-4.2-28.2-19.7c-7.8-15.5-12-37.4-17.9-47.5
		s-9.1-12.2-9.1-12.2s7.4,5.6,33.1-13.5s39-10.9,39-10.9s20.6,5.5,23.9,41.9c0,0,6,34.6,18.2,13.7c0,0-4.1-11.8-12.4-29.2
		c-8.2-17.4,13.8-33.8,30-39.2S350.4,145,350.4,145z"/>
	<path class="st1" d="M217.7,210.6l-0.1-0.2c5.1-2.1,28.5,10.6,47.2,21.6l-0.1,0.2C238.3,216.7,221.6,209,217.7,210.6z"/>
	<path class="st1" d="M264.3,231.9l0.2-0.1c14.9,8.8,32.9,20,46.3,29c1.3,0.9,2.6,1.7,4,2.5l-0.2,0.3c-1.4-0.8-2.7-1.7-4-2.5
		C297.2,252.1,279.2,240.7,264.3,231.9z"/>
	<path class="st1" d="M314.2,263.5l0.3-0.3c26.9,16.2,64.8,12.3,65.2,12.3l-4.2,4.7C375.1,280.3,341.3,279.8,314.2,263.5z"/>
	<path class="st2" d="M340.3,169.3c0,0-8.8,24.6-2.1,41.9s-7.2,60.2-7.2,60.2s-4.6,18-12.1,22.5c0,0-10.8,13.4-17.1,14.9
		c-6.3,1.5-20.9,15.1-20.5,22.7"/>
	<path class="st2" d="M352.2,171.1c0,0-6.2,12.6-15.5,12.5"/>
	<path class="st2" d="M364.7,187.5c0,0-3.8,17.3-27.1,22.2"/>
	<path class="st2" d="M374.4,213.3c0,0-11,17.6-34.6,15.4"/>
	<path class="st2" d="M372.3,246.2c0,0-20.6,13.5-36.2,6.1"/>
	<path class="st2" d="M325.7,171.1c0,0,5.4,11.4,11.4,8"/>
	<path class="st2" d="M306,188.4c0,0,7.2,15.3,29.9,12.6"/>
	<path class="st2" d="M303.8,211.4c0,0,19.9,12.1,36.1,8.8"/>
	<path class="st2" d="M314.3,235.9c0,0,15.8,12.6,23.2,9.7"/>
	<path class="st2" d="M310.6,245.3c0,0,4.3,13.2,0.1,15.7"/>
	<path class="st2" d="M296.6,265.2c0,0,8.1-8.1,5.9-9.6"/>
	<path class="st2" d="M281.6,198c0,0,7.1,33.8-2.1,43"/>
	<path class="st2" d="M251.9,278.5c0,0,32.2-20.7,35-32.9"/>
	<path class="st2" d="M233.2,263.9c0,0,30.3-14.1,38.5-27.7"/>
	<path class="st3" d="M253.6,187.2c0,0,14.7,24.5,5.5,41.6"/>
	<path class="st3" d="M223.3,241.7c0,0,22.5-9.1,27-17.9"/>
	<path class="st3" d="M228,194.7c0,0,7.5,13.9,4,19.9"/>
	<path class="st2" d="M305.9,276.6c0,0,20.3-2.7,22.5,2.6"/>
	<path class="st2" d="M338.3,318.2c0,0-1.1-22.2-13.8-30.8"/>
	<path class="st2" d="M282.7,285.6c0,0,21.3,2.5,28.8,16.4"/>
	<path class="st2" d="M318.4,334.3c0,0,3.3-16.3-12.3-27.7"/>
	<path class="st2" d="M267.4,305.2c0,0,17.7-0.9,27.1,7.5"/>
	<path class="st2" d="M291.7,337.3c0,0-1.7-12.9-6.3-15.3"/>
	<path class="st4" d="M565.7,281.9c-39.8,20-83.2,28.7-125.6,35.5c-42.4,6.7-85.2,11.9-127,26c-26.9,9-55.3,23.7-68.5,46.4
		c-12.8,21.8-8,45.1-1.3,65.4c5.1,15.3,11.6,30.7,25.5,40c9.7,6.5,22.2,9.5,32.7,15c36.6,19.2,42.5,64.1,36.6,105.5
		c-2.8,19.4-7.5,39-7.5,58.1c0.1,19,5.6,37.9,20.6,49.1c15,11.1,37.4,13.4,59.4,11.6c44.7-3.6,89.7-22.2,132.5-42.1
		c94.8-44.1,185.6-96.7,276.3-149.1c33.5-19.4,67.2-38.9,98-61.9c17.1-12.8,34.1-27.4,42-45c10.1-22.3,2.4-46.5-17.9-56.6
		c-34.1-16.8-91,5.4-120.4-16.6c-16.2-12.1-18.3-34.2-15.7-55c5.7-44.6,29.1-93.8,11.2-131.5c-12.3-25.9-44.6-41-79.8-37.3
		c-37,3.9-77.9,28.2-88.9,61C636.6,234.2,600.8,264.2,565.7,281.9z"/>
	<ellipse class="st4" cx="661" cy="690.5" rx="72.5" ry="17.9"/>
	
		<linearGradient id="SVGID_1_" gradientUnits="userSpaceOnUse" x1="637.05" y1="595.0898" x2="637.05" y2="205.0898" gradientTransform="matrix(1 0 0 1 0 32.1102)">
		<stop  offset="0" style="stop-color:#808080;stop-opacity:0.25"/>
		<stop  offset="0.54" style="stop-color:#808080;stop-opacity:0.12"/>
		<stop  offset="1" style="stop-color:#808080;stop-opacity:0.1"/>
	</linearGradient>
	<path class="st5" d="M301.8,237.2h670.5c5,0,9,4.1,9,9v372c0,5-4.1,9-9,9H301.8c-5,0-9-4.1-9-9v-372
		C292.8,241.3,296.9,237.2,301.8,237.2z"/>
	<path class="st6" d="M302.9,242.7h668.4c5,0,9,4.1,9,9V617c0,5-4.1,9-9,9H302.9c-5,0-9-4.1-9-9V251.8
		C293.9,246.8,297.9,242.7,302.9,242.7z"/>
	<path class="st7" d="M302.9,242.7h668.4c5,0,9,4.1,9,9V617c0,5-4.1,9-9,9H302.9c-5,0-9-4.1-9-9V251.8
		C293.9,246.8,297.9,242.7,302.9,242.7z"/>
	<path class="st8" d="M302.9,242.7h668.4c5,0,9,4.1,9,9V617c0,5-4.1,9-9,9H302.9c-5,0-9-4.1-9-9V251.8
		C293.9,246.8,297.9,242.7,302.9,242.7z"/>
	<path class="st9" d="M976.9,238.3H297.4c-1.9,0-3.5,1.6-3.5,3.5v14.8h686.5v-14.8C980.4,239.9,978.8,238.3,976.9,238.3z"/>
	<g id="_x34_856ee63-6c9d-47e3-9e79-3603b2312fc4">
		<circle class="st10" cx="307.6" cy="247.4" r="4.7"/>
		<circle class="st10" cx="320.3" cy="247.4" r="4.7"/>
		<circle class="st10" cx="333" cy="247.4" r="4.7"/>
	</g>
	<path class="st4" d="M347.2,341.4h557.6c4.1,0,7.4,3.3,7.4,7.4v205.5c0,4.1-3.3,7.4-7.4,7.4H347.2c-4.1,0-7.4-3.3-7.4-7.4V348.8
		C339.8,344.7,343.2,341.4,347.2,341.4z"/>
	<path class="st11" d="M361.2,320.1l557.5,14.2c4.1,0.1,7.3,3.5,7.2,7.6l-5.2,205.4c-0.1,4.1-3.5,7.3-7.6,7.2l-557.5-14.2
		c-4.1-0.1-7.3-3.5-7.2-7.6l5.2-205.4C353.7,323.2,357.1,320,361.2,320.1z"/>
	<line class="st12" x1="439.4" y1="366.6" x2="838.2" y2="376.8"/>
	<line class="st12" x1="438.6" y1="397.8" x2="837.4" y2="407.9"/>
	<line class="st12" x1="437.8" y1="428.9" x2="836.6" y2="439"/>
	<line class="st12" x1="437" y1="460.1" x2="835.8" y2="470.2"/>
	<line class="st13" x1="473.3" y1="452.5" x2="472.3" y2="492.1"/>
	<line class="st12" x1="436.3" y1="491.2" x2="835" y2="501.3"/>
	<line class="st13" x1="517.4" y1="493.3" x2="518.9" y2="434.2"/>
	<path class="st4" d="M781.2,429.6c-7.1,0.6-14-3.4-18.3-7.6c-4.4-4.3-7.6-9.7-10.7-14.9c-1-1.6-2-3.3-3-5
		c-5.4-8.5-10.8-14.3-16.9-18.1c-2.3-1.4-4.7-2.5-7.2-3.3c-0.2,0.6-0.6,1.1-1,1.6c-0.9,1-2.2,1.5-3.6,1.6h-0.2
		c-2.5-0.1-4.6-1.9-4.9-4.4c-2.3,0.1-4.5,0.6-6.7,1.4c-6.3,2.4-11.1,7.5-15.5,12.6c-5.3,6.1-10.4,12.5-15.1,19c-1,1.3-1.9,2.6-2.9,4
		c-5.2,7.2-10.5,14.6-17.4,20.5c-9.3,7.9-20.4,11.2-29.8,9.1c-11.3-2.6-19.3-12.6-25.1-21c-0.7-1.1-1.4-2.2-2.2-3.3
		c-5.4-8-10.9-16.2-19.1-21c-10.8-6.3-25.7-5.2-35.5,2.6c-4.8,3.8-8.3,9-11.8,14c-1.2,1.7-2.4,3.5-3.7,5.2
		c-6.5,8.8-13.1,13.5-20.2,14.5c-2.8,0.3-5.6,0.3-8.5,0c-1.9-0.1-3.8-0.3-5.7-0.2c-9.6,0.4-18.3,5.8-22.9,14.3l-1,41.7l313.2,8
		l1.8-69c-2.1,1.1-4.7,0.4-5.9-1.7C781.3,429.9,781.2,429.7,781.2,429.6L781.2,429.6z"/>
	<line class="st13" x1="566.2" y1="396.6" x2="563.7" y2="494.4"/>
	<line class="st13" x1="609.9" y1="434" x2="608.3" y2="495.6"/>
	<line class="st13" x1="653.3" y1="441.2" x2="651.9" y2="496.7"/>
	<line class="st13" x1="695.5" y1="391.6" x2="692.8" y2="497.7"/>
	<line class="st13" x1="738.4" y1="387.9" x2="735.6" y2="498.8"/>
	<line class="st13" x1="785.9" y1="429.6" x2="784.1" y2="500"/>
	<path class="st14" d="M724.6,375.9c-1-0.9-2.3-1.4-3.6-1.4c-2.5,0-4.5,1.9-4.9,4.3c0,0.3-0.1,0.6-0.1,0.9c0,0.2,0,0.4,0,0.6
		c0.2,1.1,0.7,2.2,1.5,3c0.9,0.9,2.1,1.4,3.4,1.4h0.2c1.3,0,2.6-0.6,3.6-1.6c0.4-0.5,0.8-1,1-1.6c0.2-0.5,0.3-0.9,0.4-1.4
		c0-0.2,0-0.4,0-0.7C726.1,378.1,725.6,376.8,724.6,375.9z M724.4,381.1c-0.2,0.4-0.4,0.7-0.7,0.9c-1.4,1.4-3.7,1.5-5.1,0.1
		c-0.5-0.5-0.9-1.2-1-2c0-0.2-0.1-0.4-0.1-0.6c0-0.3,0-0.6,0.1-0.9c0.4-1.6,1.8-2.8,3.5-2.8h0.2c1.9,0,3.5,1.6,3.5,3.5
		c0,0.1,0,0.2,0,0.2C724.7,380.2,724.6,380.7,724.4,381.1z"/>
	<circle class="st14" cx="785.9" cy="428.7" r="4.3"/>
	<path class="st14" d="M717.5,379.6c0,0.2,0,0.4,0.1,0.6c-0.5,0-1,0-1.4,0c-2.3,0.1-4.5,0.6-6.7,1.4c-6.3,2.4-11.1,7.5-15.5,12.6
		c-5.3,6.1-10.4,12.5-15.2,19c-1,1.3-1.9,2.7-2.9,4c-5.2,7.2-10.5,14.6-17.4,20.5c-9.3,7.8-20.4,11.2-29.8,9
		c-11.3-2.6-19.3-12.6-25.1-21c-0.7-1.1-1.5-2.2-2.2-3.3c-5.4-8-10.9-16.2-19.2-21c-10.8-6.3-25.7-5.2-35.5,2.6
		c-4.7,3.8-8.3,9-11.8,14c-1.2,1.7-2.4,3.5-3.7,5.2c-6.5,8.8-13.1,13.5-20.2,14.5c-2.8,0.3-5.6,0.3-8.5,0c-1.9-0.2-3.8-0.2-5.7-0.2
		c-10.3,0.4-19.5,6.6-23.8,16l-1.3-0.6c4.5-9.9,14.2-16.4,25-16.9c2,0,3.9,0,5.9,0.2c2.7,0.3,5.4,0.3,8.1,0c6.7-1,13-5.5,19.2-14
		c1.3-1.7,2.5-3.5,3.7-5.2c3.5-5.1,7.2-10.4,12.1-14.3c10.7-8.4,25.4-9.4,37.1-2.7c8.5,5,14.2,13.4,19.6,21.5
		c0.7,1.1,1.4,2.2,2.2,3.3c5.6,8.2,13.4,17.9,24.2,20.4c9,2.1,19.6-1.2,28.5-8.7c6.7-5.7,12-13,17.1-20.2c0.9-1.3,1.9-2.7,2.9-4
		c4.8-6.5,9.9-13,15.2-19.1c4.5-5.2,9.4-10.5,16.1-13c2.3-0.9,4.7-1.3,7.2-1.4c0.5,0,1,0,1.4,0C717.5,379.1,717.5,379.3,717.5,379.6
		z"/>
	<path class="st14" d="M786.2,429.3c-8.5,3.2-17.5-1.6-22.6-6.6c-4.4-4.3-7.6-9.7-10.7-14.9c-1-1.6-2-3.3-3-5
		c-5.4-8.5-10.8-14.3-16.9-18.1c-2.3-1.4-4.7-2.5-7.2-3.3c-0.5-0.2-0.9-0.3-1.4-0.4c0.2-0.4,0.3-0.9,0.4-1.4
		c0.5,0.1,0.9,0.3,1.4,0.4c2.7,0.8,5.2,2,7.6,3.5c6.4,3.9,11.9,9.8,17.4,18.5c1,1.7,2.1,3.4,3,5c3,5.1,6.2,10.4,10.5,14.6
		c4.8,4.7,13.2,9.2,21.1,6.3L786.2,429.3z"/>
	<path class="st15" d="M440.2,360.1l13.5,0.3c0.4,0,0.6,0.3,0.6,0.7l-0.1,5.2c0,0.4-0.3,0.6-0.7,0.6l-13.5-0.3
		c-0.4,0-0.6-0.3-0.6-0.7l0.1-5.2C439.6,360.4,439.9,360.1,440.2,360.1z"/>
	<path class="st14" d="M439.4,391.3l13.5,0.3c0.4,0,0.6,0.3,0.6,0.7l-0.1,5.2c0,0.4-0.3,0.6-0.7,0.6l-13.5-0.3
		c-0.4,0-0.6-0.3-0.6-0.7l0.1-5.2C438.8,391.6,439.1,391.3,439.4,391.3z"/>
	<path class="st15" d="M438.6,422.4l13.5,0.3c0.4,0,0.6,0.3,0.6,0.7l-0.1,5.2c0,0.4-0.3,0.6-0.7,0.6l-13.5-0.3
		c-0.4,0-0.6-0.3-0.6-0.7l0.1-5.2C438,422.7,438.3,422.4,438.6,422.4z"/>
	<path class="st15" d="M437.8,453.6l13.5,0.3c0.4,0,0.6,0.3,0.6,0.7l-0.1,5.2c0,0.4-0.3,0.6-0.7,0.6l-13.5-0.3
		c-0.4,0-0.6-0.3-0.6-0.7l0.1-5.2C437.2,453.9,437.5,453.6,437.8,453.6z"/>
	<path class="st15" d="M437,484.7l13.5,0.3c0.4,0,0.6,0.3,0.6,0.7L451,491c0,0.4-0.3,0.6-0.7,0.6l-13.5-0.3c-0.4,0-0.6-0.3-0.6-0.7
		l0.1-5.2C436.4,485,436.7,484.7,437,484.7z"/>
	<path class="st15" d="M464.5,498.5l13.5,0.3c0.4,0,0.6,0.3,0.6,0.7l-0.1,5.2c0,0.4-0.3,0.6-0.7,0.6l-13.5-0.3
		c-0.4,0-0.6-0.3-0.6-0.7l0.1-5.2C463.8,498.7,464.1,498.5,464.5,498.5z"/>
	<path class="st15" d="M510.5,499.6l13.5,0.3c0.4,0,0.6,0.3,0.6,0.7l-0.1,5.2c0,0.4-0.3,0.6-0.7,0.6l-13.5-0.3
		c-0.4,0-0.6-0.3-0.6-0.7l0.1-5.2C509.8,499.9,510.1,499.6,510.5,499.6z"/>
	<path class="st14" d="M555.1,499.6l13.5,0.4c0.4,0,0.6,0.3,0.6,0.7l-0.2,5.2c0,0.4-0.3,0.6-0.7,0.6l-13.5-0.4
		c-0.4,0-0.6-0.3-0.6-0.7l0.2-5.2C554.5,499.8,554.8,499.6,555.1,499.6z"/>
	<path class="st15" d="M601.4,502l13.5,0.3c0.4,0,0.6,0.3,0.6,0.7l-0.1,5.2c0,0.4-0.3,0.6-0.7,0.6l-13.5-0.3c-0.4,0-0.6-0.3-0.6-0.7
		l0.1-5.2C600.7,502.2,601,501.9,601.4,502z"/>
	<path class="st16" d="M645,503.1l13.5,0.3c0.4,0,0.6,0.3,0.6,0.7l-0.1,5.2c0,0.4-0.3,0.6-0.7,0.6l-13.5-0.3c-0.4,0-0.6-0.3-0.6-0.7
		l0.1-5.2C644.3,503.3,644.6,503.1,645,503.1z"/>
	<path class="st14" d="M685.8,504.1l13.5,0.3c0.4,0,0.6,0.3,0.6,0.7l-0.1,5.2c0,0.4-0.3,0.6-0.7,0.6l-13.5-0.3
		c-0.4,0-0.6-0.3-0.6-0.7l0.1-5.2C685.2,504.4,685.5,504.1,685.8,504.1z"/>
	<path class="st14" d="M728.9,505.2l13.5,0.3c0.4,0,0.6,0.3,0.6,0.7l-0.1,5.2c0,0.4-0.3,0.6-0.7,0.6l-13.5-0.3
		c-0.4,0-0.6-0.3-0.6-0.7l0.1-5.2C728.3,505.5,728.6,505.2,728.9,505.2z"/>
	<path class="st14" d="M775.9,506l12.8,0.4c0.6,0,1,0.5,1,1l-0.1,4.5c0,0.6-0.5,1-1,1l-12.8-0.4c-0.6,0-1-0.5-1-1l0.1-4.5
		C774.9,506.4,775.4,506,775.9,506z"/>
	<path class="st10" d="M318.4,275.9h159.1c1.5,0,2.8,1.3,2.8,2.8v11.7c0,1.5-1.3,2.8-2.8,2.8H318.4c-1.5,0-2.8-1.3-2.8-2.8v-11.7
		C315.6,277.2,316.8,275.9,318.4,275.9z"/>
	
		<linearGradient id="SVGID_2_" gradientUnits="userSpaceOnUse" x1="670.1302" y1="703.1701" x2="670.1302" y2="317.4066" gradientTransform="matrix(0.9993 -3.838781e-02 3.838781e-02 0.9993 -79.604 22.2989)">
		<stop  offset="0" style="stop-color:#808080;stop-opacity:0.25"/>
		<stop  offset="0.54" style="stop-color:#808080;stop-opacity:0.12"/>
		<stop  offset="1" style="stop-color:#808080;stop-opacity:0.1"/>
	</linearGradient>
	<path class="st17" d="M707.6,687.5c-1.2-4.3-2-8.2-2-8.2s0.1-4.8-2.2-8.3v-1.2l0,0L703,661c0.5-1.6,1.2-3.2,2.1-4.7
		c1.5-2.8-0.5-13-0.5-13s-6.5-14.1-5.4-23.3s-13.7-40-13.7-40c0-3,0.3-6,0.9-9c0.1-0.6,0.1-1.3,0.1-1.9c0-0.1,0-0.1,0-0.2v0.1
		c-0.4-6-5.6-17.1-5.6-17.1l-0.2-21.5c0,0,2.5-12.8-3.1-29.5c-1.9-5.9-3.2-10.5-4.1-14.2c-0.1-0.4-0.2-0.8-0.3-1.2
		c10.1-1.9,17.8-3.5,17.8-3.5s-6.8-24.5-11-28.6c-4.2-4.2-7.9-17.6-7.9-17.6s-2.7-17.4,0.4-22.6c3.2-5.2,3.3-14,3.3-14
		s7.4-5.9,8.3-8.4c0.9-2.5,2.2-8.1,2.1-11.1s-1.2-5.5-0.9-7.1s-2.5-7.3-1.3-10.1c0.3-0.9,0.4-1.8,0.4-2.7v-0.1l0,0
		c-0.1-2.4-0.4-4.8-0.9-7.2c-2.3-1.8-4.9-3.1-7.7-3.8l-0.2-0.7l-0.5-1.7c-0.3-0.2-0.5-0.3-0.8-0.4v-0.6l-0.2-2.5l1-5.7
		c2-9.9-11.2-10.9-11.2-10.9c-0.8-1.5-2.2-2.6-3.8-3.1c-2.7-0.8,0.1,14.8,1.4,15.7c0.9,0.7,4,5.5,5.5,7.9l0,0l0.2,0.4
		c-0.2,0.2-0.4,0.4-0.6,0.7l0.6,3.4l0.1,0.5c-0.8,1.1-1.5,2.3-1.9,3.6c0,0,2.5,2.5,2.1,5.5s1,6.6,1.1,6.8c-0.1-0.2-1.9-1.9-3.6-1.4
		s-6.3,2.1-6.3,2.1s-3.5,0.7-3.1,1.5c0.3,0.8-2.2,4.3-2.2,4.3l-9.8-8.6c-0.1-0.3-0.2-0.5-0.3-0.8c-0.4-1.3-0.8-2.6-1-3.9
		c1-0.3,2-0.6,3-1.1c1-0.4,1.8-1,2.5-1.8c0.9-1.2,1-2.7,1.4-4.1c0.6-2.8,2.2-5.3,3.2-7.9c1.8-4.5,2.2-9.3,1.3-14
		c-0.2-1.5-0.8-2.8-1.6-4c-1.6-2.1-4.4-2.8-6.5-4.4s-3.5-4.1-5.9-5.3c-2.2-1.1-4.8-0.8-7.2-0.3c-4.7,0.9-9.2,2.8-13.2,5.4
		c-1.3,0.9-2.8,1.9-4.4,1.6c-1.4-0.2-2.4-1.2-3.3-2.2v-0.1l-0.1-0.1c-0.9,2.3-1.3,4.7-1.2,7.1c0,0.4,0,0.8,0.1,1.1
		c0,0.1,0,0.3,0,0.4s0,0.2,0,0.3l0,0c0,0.2,0,0.3-0.1,0.5c-0.2,0.5-0.5,0.9-0.8,1.3c-0.3,0.3-0.5,0.7-0.7,1.1c0-0.1,0.1-0.3,0.1-0.4
		c-0.6,0.9-0.9,1.9-0.9,3c0,0.8,0.3,1.5,0.8,2.1c0.5,0.4,1,0.8,1.6,1.2c-0.1,1-0.2,2.1-0.2,3.2c0.3,6.4,3.9,12.2,9.5,15.2l0.3,0.8
		c1.3,3.1,2.4,6.8,2.1,10.2c0,0.3-0.1,0.5-0.1,0.7c-0.1,0.1-0.2,0.3-0.3,0.4l0,0c0,0-15.6,0.7-19.3-2.4c-3.8-3.2-8.9,8.5-8.9,8.5
		s-5.5,1.3-6.7,0.3s-7.7,0.1-7.7,0.1c-2.8-2.3-6.3-3.4-9.9-3.2c-2.2-1.6-4.7-2.8-7.3-3.7l0,0l-0.2-0.1l0,0c-1.1-0.4-2.3-0.5-3.5-0.3
		c0,0-7.9-6-10.3-9.3c-2.4-3.3-13.5-15.5-13.5-15.5l-0.1-0.6l-0.2-1.8c-0.3,0.1-0.6,0.1-0.9,0.1c-0.1-0.2-0.1-0.4-0.2-0.6
		c-0.7-1.8-1.5-3.5-2.5-5.1c0,0-0.1-2.3,0.6-2.9c0.7-0.6-0.6-9.1-0.6-9.1s-7.5-15.9-13.2-3.6c0,0-11.4,8.2-1.2,16.9
		c0,0,4,1.7,4.6,3.2c0.4,1,1.8,3.6,2.8,5.4l0.4,0.8l-0.1,0.1l0.2,1.5l0.1,0.6c-1.8,1.1-3,2.2-2.7,3c0.6,1.3,1,2.7,1.3,4.1
		c0,0,14.2,16.5,16.2,23.6c0,0,37.2,20.2,49.2,21.3l-1.7,10.9c0,0-0.4,6.5-0.1,8.8c0.2,2.3-0.9,12.9-0.9,12.9s-1.4,15.5-3.1,17.7
		s-1,11.5-1,11.5c-0.2,4.4-0.9,8.9-1.9,13.2c-1.5,5.9,0,13.1,0,13.1s-5.5,14.1,8.6,4.2c0,0,7.1-0.7,15.3-1.3c0,0.3,0,0.5,0,0.8
		c0,1.1,0,2.2,0.1,3.4c0.2,8,0.6,18.9,1.2,27.2c1.2,14.6,6.8,43.5,6.8,43.5l0.6,14.6c-0.2,1.4-0.3,2.8-0.3,4.2
		c0.1,5.1,1.6,10.1,4.5,14.4l1.5,9.7c0,0,2.9,6.3,3.1,10.1c0,0.3,0,0.6-0.1,0.9c-0.1,0.5-0.1,1-0.1,1.5c0,4.4,3.1,14.9,3.1,14.9
		s0.6,10.6,2.2,11.2c1.4,0.5-1.6,6.2-2.5,7.9c0-0.1-0.1-0.2-0.1-0.3l-0.2,0.3c-0.3,0.9-0.4,1.8-0.4,2.7c-0.1,1.5,0.6,2.9,1.9,3.7
		c3.1,1.7,4.8,3.2,2.2,3.9c-0.9,0.2-1.9,0.4-2.8,0.7l-0.1-0.3c-0.7,0.3-1.1,1.1-0.9,1.8c0,0.8,0.3,1.9,1.1,3.6
		c2.8,5.6,4.6,7.7,4.6,7.7l1.2-0.2c-0.2,0.5-0.4,0.9-0.7,1.3c-0.4,0.7-1,1.3-1.7,1.7s-1.4,0.7-2.2,0.8c-1.7,0.1-3.4,1-4.4,2.4
		c-1.5,2.1-2.4,5,0.8,7.3l11.5,3.5c0,0,19.7,1.8,18.5-2.6c-1.2-4.4-2-8.2-2-8.2c0-2.7-0.7-5.3-1.9-7.7c-0.2-0.4-0.5-0.8-0.7-1.1
		l0.7-0.1c0,0,1.1-9.8,2.9-11.7c0.4-0.4,0.5-0.8,0.4-1c0.2-0.5-0.3-0.8-1-1c0,0.1-0.1,0.3-0.1,0.4c-0.6-0.1-1.2-0.2-1.9-0.1
		c0,0-0.8-5.1,1.2-7c0.3-0.4,0.4-1,0.3-1.5c0-0.7-0.1-1.4-0.3-2.1c0,0,0,0.1-0.1,0.1c-1.2-4.6-5-11.8-5-11.8s-0.3-4.6,0.9-6.5
		s-1.1-25.1-1.1-25.1s0-11.3-1.6-16.5s1.3-11.5,1.3-11.5s0-0.1-0.1-0.3v-0.1c0,0-0.1-0.7-0.3-1.8v0.1c-0.4-3-1.3-8.3-1.8-10.8
		c-0.8-3.5-0.6-20.5-0.6-20.5l2.6-7.4l5.6,12.3l6.1,16.5c0,0,2.8,3.4,3,7c0,0.2,0,0.3,0,0.5c0,0.4,0,0.7,0,1.1
		c0,2.1,0.6,4.2,1.9,5.9c0,0,1.7,7.8,4,9.7s2.5,5.8,2.5,5.8s3.1,11.3,4.5,13.3c1.1,1.7,1.4,6.3,1.4,7.7l0,0c0,0.3,0,0.4,0,0.4
		s0.5,4.1,0.7,7.5c0,0.4,0,0.8,0,1.2v-0.1c0,0.9,0,1.9-0.2,2.8c0,0,0,0.1,0,0.2c0-0.2,0-0.4,0-0.6c-0.5,2.4-0.7,4.7-0.5,7.1
		c0.1,4.1,0.9,8.9,3.5,11.7c4.5,4.8,7.2,4.1,7.2,4.1s-1.8,6.3-4.3,7.6c-0.1,0-0.2,0.1-0.3,0.2c0-0.1-0.1-0.2-0.1-0.4
		c-0.5,0.6-0.8,1.5-0.7,2.3c-0.1,2.7,1.8,7.1,3.5,9c0.6,0.6,1.4,1,2.2,1.2c-0.1,0.1-0.3,0.2-0.4,0.3c-0.3,0.2-0.6,0.3-0.9,0.4
		c-0.4,0.2-0.8,0.3-1.3,0.4c-1.7,0.1-3.4,1-4.4,2.4c-1.5,2.1-2.4,4.9,0.8,7.3l11.6,3.5C689.1,690.1,708.8,691.9,707.6,687.5z"/>
	<path class="st18" d="M633,697.7l-11.2-3.5c-3.1-2.3-2.3-5.2-0.8-7.3c1-1.4,2.6-2.2,4.3-2.4c0.7-0.1,1.5-0.4,2.1-0.8
		c0.7-0.4,1.3-1,1.7-1.7c0.8-1.3,1.1-2.8,1.1-4.3c0,0,12-4,15.4-0.6c0.6,0.6,1.1,1.3,1.6,2.1c1.2,2.4,1.8,5,1.8,7.7
		c0,0,0.8,3.8,1.9,8.2C652.1,699.5,633,697.7,633,697.7z"/>
	<path class="st18" d="M686.8,690.2l-11.2-3.5c-3.1-2.3-2.3-5.2-0.8-7.3c1-1.4,2.6-2.2,4.3-2.4c0.4-0.1,0.9-0.2,1.2-0.4
		c0.3-0.1,0.6-0.3,0.8-0.4c3-1.8,2.8-6,2.8-6s12-4,15.4-0.6c0.5,0.5,0.9,1,1.2,1.5c2.2,3.5,2.2,8.3,2.2,8.3s0.8,3.8,1.9,8.2
		C705.9,692,686.8,690.2,686.8,690.2z"/>
	<path class="st19" d="M645.6,677.1c0.6,0.6,1.1,1.3,1.6,2.1l0,0l-18.1,2.8c0.8-1.3,1.1-2.8,1.1-4.3
		C630.2,677.7,642.2,673.7,645.6,677.1z"/>
	<path class="st19" d="M700.6,671.1l0.1,3.4c-2.6,4.8-16.3,4.3-20.4,2.1c0.3-0.1,0.6-0.3,0.8-0.4c3-1.8,2.8-6,2.8-6s12-4,15.4-0.6
		C699.9,670.1,700.3,670.6,700.6,671.1z"/>
	<path class="st20" d="M702.2,656.4c-0.8,1.5-1.5,3.1-2,4.7l0.5,12.2c-2.9,5.2-19,4.1-21.3,1.4s-4.9-9.9-2.4-11.2
		c2.4-1.3,4.2-7.6,4.2-7.6s-2.6,0.7-7-4.1s-3.5-15.8-2.9-18.4c0.6-2.7-0.4-11.4-0.4-11.4s-0.1-6.2-1.4-8.1s-4.3-13.3-4.3-13.3
		s-0.1-3.9-2.4-5.8s-3.9-9.7-3.9-9.7c-1.3-1.9-2-4.2-1.8-6.6c0.3-3.9-2.9-7.9-2.9-7.9l-5.9-16.5l-5.4-12.3l-2.5,7.4
		c0,0-0.1,17,0.6,20.5s2,12.9,2,12.9s-2.9,6.3-1.3,11.5s1.6,16.5,1.6,16.5s2.3,23.2,1.1,25.1c-1.2,1.9-0.8,6.5-0.8,6.5
		s6.8,13.3,4.9,15.3c-1.9,1.9-1.1,7-1.1,7s4.3-0.2,2.5,1.8c-1.8,1.9-2.8,11.7-2.8,11.7l-18.6,2.9c0,0-1.8-2.1-4.5-7.7
		c-2.7-5.6,0.3-5.1,2.7-5.8c2.5-0.7,0.8-2.2-2.2-3.9c-3-1.8-1.4-6-1.4-6s4.2-7.7,2.6-8.3c-1.6-0.6-2.1-11.2-2.1-11.2
		s-3.6-12.5-2.9-15.9c0.7-3.4-2.9-11.5-2.9-11.5l-1.4-9.7c-6-9.4-4.2-18.3-4.2-18.3l-0.6-15c0,0-5.4-28.8-6.6-43.5
		c-0.7-9.4-1.1-22.2-1.3-30.2c-0.1-4.5-0.1-7.5-0.1-7.5L670,477c0,0,0.1,3.1,1.6,9.9c0.8,3.6,2.1,8.3,4,14.2c5.4,16.8,3,29.5,3,29.5
		l0.2,21.5c0,0,6.4,14.1,5.4,19.1c-0.6,3-0.9,6-0.9,9c0,0,14.3,30.8,13.3,40s5.2,23.3,5.2,23.3S703.6,653.6,702.2,656.4z"/>
	<path class="st21" d="M661,577.5l20.2-3.5C681.2,574,670.2,586.2,661,577.5z"/>
	<path class="st19" d="M677.5,554.3c0,0,1,7.1-3.3,10C674.2,564.3,682,562.8,677.5,554.3z"/>
	<path class="st19" d="M675.4,531.5c0,0-16.4,14.6-22.6,13.7S675.4,531.5,675.4,531.5z"/>
	<path class="st19" d="M636.1,585c0,0-12.8,3.4-13,8.6C623,598.8,636.1,585,636.1,585z"/>
	<path class="st21" d="M641.4,649.2c0,0-18.1,4.1-12.8,6.2c5.3,2.1,13.8,3.6,13.8,3.6S648.3,659.2,641.4,649.2z"/>
	<g class="st22">
		<path d="M625.1,659.3c-0.9-0.5-1.6-1.5-1.8-2.6l-0.2,0.3c0,0-1.5,4.2,1.4,6c0.3,0.2,0.7,0.4,1,0.6c0.5-0.1,1.1-0.2,1.7-0.4
			C629.7,662.5,628.1,661,625.1,659.3z"/>
		<path d="M648.4,657.1c0.5-0.5,0.4-1.7,0.1-3.2c-0.8,1.2-0.9,3.1-0.9,4.5C647.8,658,648.1,657.5,648.4,657.1z"/>
		<path d="M642.7,580.5c-0.6,1.8-0.9,3.8-1,5.7c0.3-1.4,0.7-2.7,1.3-4C643,582.2,642.9,581.6,642.7,580.5z"/>
		<path d="M684.1,570.8c0.1-0.6,0.1-1.1,0.1-1.7c-0.2,1.2-0.3,2.2-0.4,3.2C683.9,571.8,684,571.3,684.1,570.8z"/>
		<path d="M644.4,635.3c0.2-0.4,0.3-1.7,0.3-3.4c-0.5,1.4-0.8,2.9-0.7,4.3C644.1,635.9,644.2,635.6,644.4,635.3z"/>
		<path d="M649.3,664.3c-1.1,3.5-1.8,9.6-1.8,9.6l-18.6,2.9c0,0-1.8-2.1-4.5-7.7c-0.2-0.5-0.4-0.9-0.6-1.3c-1.1,0.6-1.5,1.7,0.1,5.1
			c2.7,5.6,4.5,7.7,4.5,7.7l18.6-2.9c0,0,1-9.8,2.8-11.7C650.8,664.9,650.2,664.5,649.3,664.3z"/>
		<path d="M623.6,637.5c0,0,0.6,10.6,2.1,11.2l0,0c0.7-1.8,1.2-3.5,0.5-3.7c-1.6-0.6-2.1-11.2-2.1-11.2s-3.6-12.5-2.9-15.9
			s-2.9-11.5-2.9-11.5l-1.4-9.7c-5.9-9.4-4.1-18.2-4.1-18.2l-0.6-15c0,0-5.4-28.8-6.6-43.5c-0.7-9.4-1.1-22.2-1.3-30.2
			c0-1.4-0.1-2.7-0.1-3.8l-0.5,0.1c0,0,0,3,0.1,7.5c0.2,8,0.6,20.8,1.3,30.2c1.2,14.6,6.6,43.5,6.6,43.5l0.5,15
			c0,0-1.8,8.9,4.1,18.2l1.4,9.7c0,0,3.6,8,2.9,11.5C620,625,623.6,637.5,623.6,637.5z"/>
		<path d="M679.9,670.6c-1.6-2.1-2.7-4.6-3.2-7.2c-1.8,1.8,0.6,8.4,2.8,10.9c2.3,2.7,18.4,3.8,21.3-1.4l-0.1-2.9
			C696.6,674.2,682,673.1,679.9,670.6z"/>
		<path d="M702.7,652.3c-0.8,1.5-1.5,3.1-2,4.7l0.1,2.2c0.3-0.8,0.8-1.9,1.4-3.2C702.6,654.8,702.8,653.5,702.7,652.3
			C702.7,652.2,702.7,652.2,702.7,652.3z"/>
		<path d="M680.3,655.6c0.5-1.2,1-2.5,1.4-3.7c0,0-2.6,0.7-7-4.1c-3.2-3.5-3.6-10.3-3.3-14.7c-0.7,2.7-1.5,13.7,2.9,18.4
			C677.1,654.6,679.2,655.4,680.3,655.6z"/>
		<path d="M670.9,621.7c0.4,3,0.6,6.1,0.7,9.1c0.1-0.5,0.1-1,0.3-1.4c0.7-2.7-0.4-11.4-0.4-11.4s-0.1-6.2-1.4-8.1
			s-4.3-13.3-4.3-13.3s-0.1-3.9-2.4-5.8s-3.9-9.7-3.9-9.7c-1.3-1.9-2-4.2-1.8-6.6c0.3-3.9-2.9-7.9-2.9-7.9l-5.9-16.5l-5.4-12.3
			l-2.5,7.4c0,0,0,0.9,0,2.3l2-6l5.4,12.3l5.9,16.5c0,0,3.2,4.1,2.9,7.9c-0.2,2.3,0.5,4.7,1.8,6.6c0,0,1.7,7.8,3.9,9.7
			s2.4,5.8,2.4,5.8s3.1,11.3,4.3,13.3C670.8,615.5,670.9,621.7,670.9,621.7z"/>
	</g>
	<path class="st23" d="M672.9,337.3L672,343l0.2,2.5l0.1,1.8l-6.4,0.9l-0.8-1.3l0,0c-1.4-2.4-4.4-7.2-5.3-7.9
		c-1.2-0.9-4-16.5-1.4-15.7c1.6,0.5,2.9,1.7,3.7,3.1C662.1,326.5,674.8,327.4,672.9,337.3z"/>
	<path class="st19" d="M672.3,347.3l-6.4,0.9l-0.8-1.3l0,0c1.7-2.1,4.7-2.7,7.1-1.4L672.3,347.3z"/>
	<path class="st24" d="M674,350.3l-8.4,2.3l-0.2-1.3l-0.6-3.4c0,0,3.2-4.6,8.2-1.4l0.5,1.7L674,350.3z"/>
	<path class="st23" d="M536,343.2l-8.9,5.2c0,0-0.4-0.7-0.9-1.7c-0.9-1.8-2.3-4.4-2.7-5.4c-0.6-1.4-4.4-3.2-4.4-3.2
		c-9.8-8.7,1.2-16.9,1.2-16.9c5.5-12.3,12.8,3.6,12.8,3.6s1.2,8.5,0.6,9.1s-0.5,2.9-0.5,2.9c0.9,1.6,1.7,3.3,2.4,5.1
		C535.9,342.7,536,343.2,536,343.2z"/>
	<path class="st19" d="M536,343.2l-8.9,5.2c0,0-0.4-0.7-0.9-1.7c1.2-1.1,5.6-5,7.1-4.9c0.7,0.1,1.5,0.1,2.2,0
		C535.9,342.7,536,343.2,536,343.2z"/>
	<path class="st24" d="M537.1,345.9l-10,5.4l-0.3-2.2l-0.2-1.5c0,0,5.7-5.3,7.5-5.2c0.9,0.1,1.8,0.1,2.7-0.1l0.2,1.8L537.1,345.9z"
		/>
	<path class="st23" d="M649.7,375.7c0,0-44.2,6.7-36,3.7c5.7-2.1,7.9-5.9,8.2-10c0.3-3.4-0.7-7.1-2-10.2c-1.2-2.8-2.6-5.4-4.3-7.9
		c0,0,33.2-20,27.1-2.8c-1,2.6-1.5,5.3-1.6,8.1c-0.1,2.8,0.3,5.5,1.2,8.1C643.7,369.1,646.2,372.8,649.7,375.7z"/>
	<path class="st19" d="M642.6,348.6c-1,2.6-1.5,5.3-1.6,8.1c-3.1,2.8-6.6,2.8-11.1,2.9c-3.5,0.1-7.2,1.1-10.1-0.4
		c-1.2-2.8-2.6-5.4-4.3-7.9C615.6,351.3,648.8,331.4,642.6,348.6z"/>
	<circle class="st23" cx="628.6" cy="342.5" r="18.4"/>
	<path class="st19" d="M649.7,375.7c0,0-44.2,6.7-36,3.7c5.7-2.1,7.9-5.9,8.2-10c2.1-2.5,6.5-4.3,9.3-5.4c2.6-1,5.4-1.1,8-0.4
		c1,0.3,2.1,0.7,3,1.2C643.6,369.1,646.2,372.8,649.7,375.7z"/>
	<path class="st19" d="M674,350.3l-8.4,2.3l-0.2-1.3c1.8-2.6,5-3.9,8.1-3.1L674,350.3z"/>
	<path class="st19" d="M537.1,345.9l-10,5.4l-0.3-2.2c3.6-2.3,9.6-4.7,10.1-4.9L537.1,345.9z"/>
	<path class="st19" d="M671.6,486.9c-17.1,3.4-41.4,7.9-45.4,6.8c-3.3-0.9-13.5-0.4-22.5,0.3c-0.1-4.5-0.1-7.5-0.1-7.5L670,477
		C670,477,670,480.1,671.6,486.9z"/>
	<path class="st25" d="M688.6,482.2c0,0-56.2,11.9-62.4,10.3s-37.3,1.6-37.3,1.6c-13.7,9.9-8.3-4.2-8.3-4.2s-1.5-7.2,0-13.1
		c1-4.3,1.6-8.8,1.8-13.2c0,0-0.7-9.2,0.9-11.5s3-17.7,3-17.7s1.1-10.6,0.9-12.9c-0.2-2.3,0.1-8.8,0.1-8.8l1.6-10.9
		c-11.6-1.1-47.6-21.3-47.6-21.3c-2-7.2-15.7-23.6-15.7-23.6c-0.2-1.4-0.7-2.8-1.2-4.1c-1-2.4,12.7-7.9,12.7-7.9
		s10.8,12.3,13.1,15.6c2.3,3.3,9.9,9.3,9.9,9.3c1.1-0.2,2.3,0,3.4,0.3c0.1,0,0.1,0,0.2,0.1l0,0c2.5,0.9,4.9,2.1,7.1,3.7
		c5.5-0.5,9.5,3.2,9.5,3.2s6.3-1.2,7.4-0.1c1.1,1,6.5-0.2,6.5-0.2s5-11.6,8.6-8.4c3.7,3.2,18.7,2.4,18.7,2.4
		c1.9-2.7,6.7-4.8,9.7-5.9c2.6-1,5.4-1.1,8-0.4c1.2,0.3,2.3,0.8,3.2,1.4l9.5,8.6c0,0,2.5-3.5,2.2-4.3s3-1.5,3-1.5s4.4-1.6,6.1-2.1
		c1.7-0.5,3.3,1.2,3.4,1.4c-0.1-0.2-1.4-3.9-1-6.8c0.3-2.9-2.1-5.5-2.1-5.5c4.9-13.5,17.5-2.8,17.5-2.8s1.7,7.2,0.5,10
		s1.6,8.6,1.3,10.1c-0.2,1.6,0.8,4.1,0.9,7.1s-1.2,8.5-2.1,11s-8,8.3-8,8.3s-0.1,8.8-3.2,14c-3,5.2-0.4,22.6-0.4,22.6
		s3.6,13.5,7.6,17.6C681.9,457.7,688.6,482.2,688.6,482.2z"/>
	<path class="st19" d="M602.1,383.8c0,0-1.9-5-3.5-5.4c-1.6-0.5-3.1-1.1-4.6-1.8l0.9-1.9c0,0,5.9,1.4,6.8,3
		C602.9,379.3,602.1,383.8,602.1,383.8z"/>
	<path class="st19" d="M570.7,373.8c-0.3,1.6-13.9,3.5-13.9,3.5l6.7-7.2l0,0l0.2,0.1l0,0C566.1,370.9,568.5,372.2,570.7,373.8z"/>
	<circle class="st20" cx="530.1" cy="354.1" r="1.2"/>
	<circle class="st20" cx="531.8" cy="356.5" r="1.2"/>
	<circle class="st20" cx="533.4" cy="358.8" r="1.2"/>
	<circle class="st20" cx="535.1" cy="361.2" r="1.2"/>
	<circle class="st20" cx="680.6" cy="355.4" r="1"/>
	<circle class="st20" cx="680.8" cy="357.7" r="1"/>
	<circle class="st20" cx="681" cy="360" r="1"/>
	<path class="st19" d="M603.8,425.7c-0.2-0.2,36.3,42.4,62.3,16C666.1,441.6,623.7,449.1,603.8,425.7z"/>
	<path class="st19" d="M584.7,449.3c0,0,20.8-0.2,23.2,5.7l0.2,6.2c-1.2,0.7-2.6,0.8-3.9,0.2c-2.2-1.1-15-7-19.3-3.7L584.7,449.3z"
		/>
	<path class="st25" d="M585.1,449.2c0,0,19.9-0.2,22.2,5.4l0.2,5.9c-1.1,0.7-2.5,0.7-3.7,0.1c-2.1-1-14.3-6.6-18.4-3.5L585.1,449.2z
		"/>
	<path class="st19" d="M594.3,403.7c2.3,4.8,5.2,9.4,8.6,13.5c3.7,4.6,8.1,8.6,13.1,11.7C616,428.9,594.8,406.5,594.3,403.7z"/>
	<path class="st19" d="M586.6,379.7c0,0,4.1,14.9,13.2,19.6L586.6,379.7z"/>
	<path class="st19" d="M581.3,381.4c-0.1-0.3-2.6,12,12.2,18.1C593.6,399.5,587.3,397.7,581.3,381.4z"/>
	<path class="st19" d="M671.8,367.9c-0.2,0,7.4,4.5,9.5,6.6C681.3,374.5,676.2,367.4,671.8,367.9z"/>
	<path class="st18" d="M624.3,359.3c0.3,0.9,0.7,2,1.5,2.4c0.5,0.2,1.1,0.4,1.7,0.3c5.6,0.1,11.4,0.2,16.5-2.2c1-0.4,1.8-1,2.5-1.8
		c0.9-1.2,1-2.7,1.3-4.1c0.6-2.8,2.1-5.3,3.1-7.9c1.7-4.5,2.1-9.4,1.3-14.1c-0.2-1.5-0.7-2.8-1.6-4c-1.6-2.1-4.3-2.8-6.3-4.4
		s-3.4-4.1-5.7-5.3c-2.1-1.1-4.6-0.8-6.9-0.3c-4.6,1-8.9,2.8-12.7,5.4c-1.3,0.9-2.7,1.9-4.3,1.6c-1.4-0.2-2.4-1.3-3.3-2.3
		c-1,2.6-1.4,5.3-1.1,8c0.1,0.4,0.1,0.8,0,1.2c-0.2,0.5-0.4,0.9-0.8,1.3c-1.3,1.7-2.1,4.2-0.7,5.8c0.6,0.7,1.6,1,2.2,1.7
		c1.1,1.3,0.8,3.1,0.8,4.8c0,0.6,0.1,1.1,0.5,1.6c0.6,0.5,1.5,0.7,2.3,0.5c0.8-0.3,1.6-0.4,2.4-0.3c0.9,0.2,1.6,0.8,2.2,1.5
		C621.9,351.8,623.1,355.4,624.3,359.3z"/>
	<g class="st26">
		<path d="M647.1,356.7c-0.7,0.8-1.5,1.4-2.5,1.8c-5.1,2.4-10.9,2.3-16.5,2.2c-0.6,0-1.2-0.1-1.7-0.3c-0.9-0.5-1.2-1.5-1.5-2.4
			c-1.2-3.9-2.4-7.5-5.1-10.7c-0.5-0.7-1.3-1.3-2.2-1.5c-0.8-0.1-1.6,0.1-2.4,0.3c-0.8,0.3-1.7,0.1-2.3-0.4c-0.3-0.5-0.5-1-0.5-1.6
			c0-1.7,0.2-3.5-0.8-4.8c-0.6-0.7-1.5-1-2.2-1.7c-0.8-1-1-2.4-0.5-3.7c-0.9,1.6-1.3,3.6-0.1,4.9c0.6,0.7,1.6,1,2.2,1.7
			c1.1,1.2,0.8,3.1,0.8,4.8c0,0.6,0.1,1.1,0.5,1.6c0.6,0.5,1.5,0.7,2.3,0.5c0.8-0.3,1.6-0.4,2.4-0.3c0.9,0.2,1.6,0.8,2.2,1.5
			c2.7,3.2,3.9,6.8,5.1,10.7c0.3,0.9,0.7,2,1.5,2.4c0.5,0.2,1.1,0.4,1.7,0.3c5.6,0.1,11.4,0.2,16.5-2.2c1-0.4,1.8-1,2.5-1.8
			c0.3-0.5,0.6-1,0.7-1.5C647.3,356.5,647.2,356.6,647.1,356.7z"/>
		<path d="M610.4,331.3c0.2-0.3,0.4-0.6,0.5-0.9c0.1-0.4,0.1-0.8,0-1.2c-0.2-2.2,0-4.5,0.6-6.7l-0.1-0.1c-1,2.6-1.4,5.3-1.1,8
			C610.4,330.7,610.4,331,610.4,331.3z"/>
	</g>
	<path class="st19" d="M621.5,370.6c0,0,23,2.2,25-1.4"/>
	<path class="st19" d="M665.7,359.4c0,0,12.7-0.5,15.7,4.2"/>
	<path class="st0" d="M944.4,601.5c0,0,4.3,5.6-2,14.1s-11.5,15.6-9.4,20.9c0,0,9.5-15.8,17.2-16S952.8,610.9,944.4,601.5z"/>
	<path class="st19" d="M944.4,601.5c0.4,0.5,0.7,1.1,0.9,1.8c7.5,8.8,11.5,17.1,4.3,17.3c-6.7,0.2-14.8,12.2-16.8,15.3
		c0.1,0.2,0.1,0.5,0.2,0.7c0,0,9.5-15.8,17.2-16S952.8,610.9,944.4,601.5z"/>
	<path class="st27" d="M952.4,608.6c0,2-0.2,3.6-0.5,3.6s-0.5-1.6-0.5-3.6s0.3-1,0.6-1C952.2,607.6,952.4,606.6,952.4,608.6z"/>
	<path class="st27" d="M955.1,611c-1.7,0.9-3.3,1.5-3.4,1.3c-0.1-0.2,1.2-1.2,2.9-2.2s1.1-0.3,1.2,0
		C955.9,610.3,956.8,610,955.1,611z"/>
	<path class="st0" d="M921.7,601.5c0,0-4.3,5.6,2,14.1s11.5,15.6,9.4,20.9c0,0-9.5-15.8-17.2-16
		C908.1,620.3,913.2,610.9,921.7,601.5z"/>
	<path class="st19" d="M921.7,601.5c-0.4,0.5-0.7,1.1-0.9,1.8c-7.5,8.8-11.5,17.1-4.3,17.3c6.7,0.2,14.8,12.2,16.8,15.3
		c-0.1,0.2-0.1,0.5-0.2,0.7c0,0-9.5-15.8-17.2-16C908.1,620.3,913.2,610.9,921.7,601.5z"/>
	<path class="st27" d="M913.7,608.6c0,2,0.2,3.6,0.5,3.6s0.5-1.6,0.5-3.6s-0.3-1-0.6-1S913.7,606.6,913.7,608.6z"/>
	<path class="st27" d="M910.9,611c1.7,0.9,3.3,1.5,3.4,1.3c0.1-0.2-1.2-1.2-2.9-2.2s-1.1-0.3-1.2,0C910.1,610.3,909.2,610,910.9,611
		z"/>
	<ellipse class="st4" cx="933" cy="672.6" rx="44.9" ry="6.9"/>
	<path class="st28" d="M956.1,628.9l-0.2,1.8l-0.3,2.5l-0.1,1l-0.3,2.5l-0.1,1l-0.3,2.5l-3.4,28.2c-0.3,2.5-4.4,4.5-9.4,4.5h-17.9
		c-5,0-9.1-2-9.4-4.5l-3.4-28.2l-0.3-2.5l-0.1-1l-0.3-2.5l-0.1-1l-0.3-2.5l-0.2-1.8c-0.2-1.4,2.1-2.6,4.9-2.6h36.6
		C954.1,626.3,956.3,627.5,956.1,628.9z"/>
	<polygon class="st29" points="955.9,630.7 955.6,633.2 910.4,633.2 910.1,630.7 	"/>
	<polygon class="st29" points="955.5,634.2 955.2,636.7 910.8,636.7 910.5,634.2 	"/>
	<polygon class="st29" points="955.1,637.7 954.8,640.2 911.3,640.2 911,637.7 	"/>
</g>
</svg>
