<?xml version="1.0" encoding="utf-8"?>
<!-- Generator: Adobe Illustrator 25.2.0, SVG Export Plug-In . SVG Version: 6.00 Build 0)  -->
<svg version="1.1" id="e37c00f5-ff96-45aa-87ea-1a24b78ba7bd"
	 xmlns="http://www.w3.org/2000/svg" xmlns:xlink="http://www.w3.org/1999/xlink" x="0px" y="0px" viewBox="0 0 1176.6 803.7"
	 style="enable-background:new 0 0 1176.6 803.7;" xml:space="preserve">
<style type="text/css">
	.st0{fill:#67D8EB;}
	.st1{fill:#FDC435;}
	.st2{fill:#F1A12B;}
	.st3{fill:#FF821D;}
	.st4{fill:#FF5671;}
	.st5{fill:#E23F58;}
	.st6{fill:#F26200;}
	.st7{fill:#FEE434;}
	.st8{fill:#FDCE1A;}
	.st9{fill:#FF9A83;}
	.st10{fill:#68182B;}
</style>
<g>
	<g>
		<path class="st0" d="M688,614.4c-0.2,0-0.4-0.1-0.6-0.2c0,0-0.3-0.2-0.3-0.2c-6-4.1-12.6-4.2-19.6-4.2c-5,0-10.1-0.1-15.1-1.6
			c-0.3-0.1-0.6-0.3-0.7-0.6c-0.1-0.3-0.1-0.6,0.1-0.9c6.3-10,13.1-17,25.6-18.5c0.8-0.1,1.7-0.1,2.5-0.1c0.3,0,0.7,0,1,0
			c0.5,0,0.9,0.3,1,0.8c0.1,0.5-0.1,0.9-0.5,1.2c-0.4,0.2-0.8,0.5-1.2,0.7c-2.2,1.4-3.9,3.4-4.9,5.6c1.4-2.2,3-4.3,5.7-5.8
			c1.6-0.9,3.2-1.3,5-1.6c0.1,0,0.1,0,0.2,0c0.1,0,0.2,0,0.3,0c6.9,2.1,12.2,7.5,16.1,12c0.2,0.2,0.3,0.6,0.2,0.9
			c-0.1,0.3-0.2,0.6-0.5,0.7c-4.7,2.6-9.2,6.5-13.5,11.4C688.6,614.3,688.3,614.4,688,614.4z"/>
		<path class="st0" d="M703.2,633.1c-0.4,0-0.8-0.3-1-0.7c-2.2-5.3-5.2-9.8-9.2-13.7c-0.4-0.4-0.4-1-0.1-1.5
			c7.7-8.6,15.6-12.8,24.1-12.8c6.9,0,14.3,2.8,22.5,8.5c0.4,0.2,0.5,0.7,0.4,1.1c-0.1,0.4-0.4,0.7-0.9,0.8c-1.6,0.3-3.1,0.6-4.5,1
			c0.7,0,1.5-0.1,2.2-0.1c2.1-0.1,4.1-0.2,6.2-0.2c0.6,0,1.2,0,1.8,0c1.5,0.1,2.8,0.1,4.2,0.1l4.9,0l5.4,0c6,0,9,0.3,14.1,3.7
			c0.3,0.2,0.5,0.6,0.5,1c-0.1,0.4-0.3,0.7-0.7,0.9c-15.5,4.8-39.1,8.8-70,11.8C703.3,633.1,703.2,633.1,703.2,633.1z"/>
		<path class="st0" d="M623.3,637.3c-0.4,0-0.7-0.2-0.9-0.5c-5.6-8.8-11.3-12.9-19.9-14.2c-1.4-0.2-2.7-0.5-4.1-0.7
			c-0.4-0.1-0.7-0.4-0.8-0.7c-0.1-0.4,0-0.8,0.3-1.1c6.4-6.4,12.2-10.5,18.7-13.2c3.3-1.4,6.4-2,9.7-2c7.4,0,13.8,3.5,20.5,7.2
			c1,0.6,2.1,1.1,3.1,1.7c0.6,0.3,1.1,0.6,1.7,0.8c0.4,0.2,0.7,0.7,0.6,1.1c-0.1,0.5-0.5,0.8-1,0.9c-2,0.1-4,0.2-5.9,0.2
			c-3.3,0-6.5-0.2-9.5-0.4c4.1,1.2,9,1.9,14.5,1.9c4.3,0,8.7-0.4,13.2-1.1c2.1,0.1,3.9,0.1,5.8,0.1c10.6,0.1,20.6,0.1,27.1,15.1
			c0.1,0.3,0.1,0.7-0.1,1c-0.2,0.3-0.5,0.5-0.8,0.5c-19.7,1.8-34.9,2.5-36.5,2.5C647.8,636.9,635.8,637.2,623.3,637.3
			C623.3,637.3,623.3,637.3,623.3,637.3z"/>
		<path class="st0" d="M512.9,630.1c-6.7-1-12.2-1.9-17.4-2.8c-2.7-0.5-9.7-1.8-17.5-4.1c-0.8-0.2-1-0.9-0.6-1.5
			c2.9-5.4,6.2-8.7,10.2-10.1c2-0.7,4-0.8,6-0.8l3.2,0c5,0,7.7-1.2,10.6-2.7c3.7-1.9,6.8-4.5,10.1-7.2c1.9-1.6,3.9-3.2,6-4.7
			c1.4-1,2.4-1,2.9,0.2c2.7,5.6,5.8,10.8,9.2,15.6c0.6,0.8,0.5,1.2-0.4,1.6c-8.5,3.6-15.8,9.3-20,15.5
			C514.4,630.1,514.1,630.3,512.9,630.1z"/>
		<path class="st0" d="M613.8,637.3c-32.2-0.1-63.1-2.1-91.9-6c-0.9-0.1-1.2-1-0.7-1.7c7-8.6,19.4-13.9,32.3-13.9
			c7.5,0,14.4,1.7,20.1,5c4,2.3,11.9,4.9,18.1,5.7c8.2,1.7,16.7,3.4,22.8,9.1C616,636.9,615,637.3,613.8,637.3
			C613.8,637.3,613.8,637.3,613.8,637.3z"/>
		<path class="st1" d="M562.1,777.2c-11.7-2.3-22.9-5.9-32.9-11.4c-7.9-4.3-12.3-13.1-16.6-21.5c-2.6-5-5.2-10.2-8.5-14.3
			c-1.4-1.8-1-3,1.6-1.8c11.7,5.2,26.5,11.1,41.3,12.4c-4.9-1.8-9.8-3.5-14.6-5.1c-8.5-2.9-17.2-5.9-25.7-9.4
			c-5.1-2.1-9.2-3.9-12.8-5.7c-2.8-2.1-5.6-4-8.5-5.9c-14.3-9.2-15.6-24.4-16.8-39.1c0-2.9-0.2-3.2,3.2-2c2.9,1,6.1,2,10.1,3.1
			c41.9,11.3,88.7,12.8,129,12.8c7.6,0,15.2-0.1,22.7-0.1c45.1-0.4,92.6-2.5,135.3-14.5c1.9-0.5,3.7-1.1,5.5-1.9
			c0.1-0.1,0.3-0.1,0.4-0.1c0.2,0,0.4,0.1,0.6,0.2c0.3,0.2,0.4,0.6,0.4,0.9l-0.1,1.6c-1.7,21.5-3.3,28.8-15.8,37.6
			c-9.3,6.5-25.4,12.9-36.2,16.7c-8,2.9-16.1,5.4-24,7.9c-2.2,0.7-4.5,1.4-6.7,2.1c-2.1,0.7-1.3,1.3,0.2,1.1
			c7.9-0.7,23.2-5.8,23.2-5.8c7.7-2.5,15.8-5.2,23.4-8.2c2.1-0.8,2.5,0.5,1.1,2c-5.4,5.7-10.2,12.8-14.2,21.2
			c-0.5,1.1-1,2.2-1.4,3.1c-2,4.6-3.5,7.9-8.5,11.3c-5.5,3.8-11.8,6.7-18.5,8.9C665.7,784.5,590.3,782.8,562.1,777.2z"/>
		<g>
			<path class="st2" d="M740,727.1c-7.7,3.1-15.7,5.7-23.5,8.2c0,0-7.1,2.4-14.2,4.1c9.3,2.2,17.4,6,14.1,13.7
				c-2.8,6.5-12.1,9.8-18.1,12c-8.5,3.2-17.4,5.2-26.4,6.7c-24.3,4.2-49.5,4.2-73.9,2c-11.8-1.1-23.5-2.9-35.2-5.2
				c-7.2-1.4-14.5-2.9-21.4-5.5c-6.1-2.3-16-7-14.9-15c0.7-5.1,5.7-7.7,11.1-8.9c-11.6-2.4-22.8-6.9-32-11c-2.6-1.1-3,0-1.6,1.8
				c3.3,4.1,6,9.3,8.5,14.3c4.3,8.4,8.7,17.2,16.6,21.5c10,5.5,21.2,9,32.9,11.4c28.2,5.6,103.6,7.3,136.4-3.6
				c6.7-2.2,13-5.1,18.5-8.9c5-3.4,6.5-6.7,8.5-11.3c0.4-1,0.9-2,1.4-3.1c4-8.4,8.7-15.5,14.2-21.2
				C742.5,727.6,742.1,726.3,740,727.1z"/>
		</g>
		<path class="st3" d="M620.2,684.1c-33.5,0-67.4-2.1-100.8-6.2l-5.2-0.6c-19-2.2-42.6-5-56.9-17.8c-10-8.9-8.8-28.3-8-42.4
			c0.1-1.5,1.2-1.2,1.7-0.7c1,0.9,2.2,1.8,3.5,2.7c18.9,13.5,46.8,16,71.3,18.2c4.2,0.4,8.3,0.7,12.1,1.1c26,2.7,52.8,4.1,82,4.1
			c12.5,0,25.7-0.3,39.1-0.8c28.9-1.1,66.8-3.4,102.8-11.9c10.9-2.5,23-6,30.8-12.5c1.2-1,1.9-0.1,1.9,1c0.1,9.7,0.1,19.1-1.3,28.4
			c-2.6,18.3-22.9,22.8-37.8,26.1l-2.3,0.5c-38.7,8.7-80.3,10-119.5,10.7C629.2,684,624.7,684.1,620.2,684.1z"/>
		<path class="st1" d="M470.7,620.8c-12.1-4.3-18.8-9.1-20.1-14.3c-0.7-3.1,0.5-6.2,3.5-9.3c13.4-13.6,39.7-17.4,58.9-20.2
			c0,0,1.1-0.2,2.3-0.3c3.4-0.5,3.5,0.8,4.2,3c0.8,2.6,1.7,5.1,2.6,7.5c0.9,2.3,1,2.6-0.9,3.9c-4.6,3.1-10.8,9.5-15.4,11.7
			c-4.7,2.3-9.7,2.7-15.3,2.9c-9.8,0.4-15.5,8.1-18.6,14.5C471.7,621,471.3,621,470.7,620.8z M777.7,615.8
			c-9.4-7.1-11.1-7.4-19.5-6.5c-8,0.9-13.5,1-21.6-5c-4.8-3.6-9.6-6-18.2-6c-2.6,0-5.3,0.3-7.8,1c-2,0.5-1.7,1-3.3-0.8
			c-17.1-20.2-34.7-17.1-44.4-11.3c-5.2,3.1-10.2,8.3-15.3,16.4c-0.9,1.5-1.5,1.8-3,0.8c-1.5-1-3.1-1.8-4.7-2.5
			c-1.5-0.6-2-1.4-0.9-3.2c5.2-8.2,9.4-17.8,12.5-28.6c0.1-0.5,0.5-0.8,1-0.8c0,0,0,0,0,0c14,0.6,27.4,1.6,40.4,2.9
			c25.4,2.6,61.9,5.7,83.7,15.5c7.9,3.5,13.8,8,16.7,13.5c1.5,2.9,1.8,5.7,0,8.7c-1.6,2.8-4.9,5.2-9.8,7.5
			C780.4,618.9,780.3,617.7,777.7,615.8z"/>
		<g>
			<path class="st2" d="M783.6,617.4c1.7-0.8,3.2-1.6,4.5-2.5c-0.4-1.5-1.1-2.9-2.2-4.2c-5.1-6.4-14-9.3-21.5-11.6
				c-12.2-3.8-24.9-5.9-37.4-7.7c-10.5-1.5-21.1-2.7-31.8-3.6c4,2.4,8,5.9,12,10.7c1.6,1.9,1.3,1.3,3.3,0.8c2.6-0.7,5.2-1,7.8-1
				c8.6,0,13.4,2.5,18.2,6c8.1,6,13.6,5.9,21.6,5c8.4-1,10.1-0.6,19.5,6.5C780.3,617.7,780.4,618.9,783.6,617.4z"/>
			<path class="st2" d="M521.4,591.2c-14.7,2-29.3,4.7-43.4,9.1c-7.7,2.4-17.2,5.5-22.2,12.2c-0.2,0.2-0.3,0.4-0.4,0.6
				c3.4,2.8,8.5,5.4,15.4,7.8c0.6,0.2,1,0.1,1.3-0.5c3.1-6.4,8.9-14.1,18.6-14.5c5.6-0.2,10.6-0.6,15.3-2.9
				C510.5,600.7,516.8,594.2,521.4,591.2C521.4,591.2,521.4,591.2,521.4,591.2z"/>
			<path class="st2" d="M665.3,585.8c-6.4-0.3-12.8-0.5-19.3-0.7c-2.1,4.8-4.5,9.3-7.1,13.5c-1.1,1.8-0.6,2.6,0.9,3.2
				c1.7,0.7,3.2,1.5,4.7,2.5c1.5,1,2.1,0.7,3-0.8c5.1-8.1,10.1-13.2,15.3-16.4C663.7,586.6,664.5,586.2,665.3,585.8z"/>
		</g>
		<path class="st4" d="M648.5,485.7c-0.8-1.9-1.7-3.7-2.7-5.5c-0.3-0.6-0.1-1.3,0.7-1.5c13-3.1,26.1-10.7,37.7-17.4l4.9-2.8
			c14.8-8.4,29.8-18.6,48.8-32.9c23.3-17.6,52.2-39.4,66.9-70c0.3-0.6,1.7-1,2,0.2c2.8,11.9,3.2,24.8,1,37.4c0,0.2-0.1,0.3-0.2,0.4
			c-31.7,45.5-92.2,81-158,92.8C649.3,486.4,648.8,486.2,648.5,485.7z M621.4,598.7c3.2-8.3,4.4-17.8,5.5-26.9l0.5-4.3
			c2-15.6,2.6-30.2,1.6-44.5c-1.7-25.5-9.4-48.6-22.3-66.8c-0.6-0.8,0.2-1.9,1.1-1.6c17.8,5.2,31,18.4,38.2,38.2
			c11.4,31.7,5.3,78.4-13.8,106.3c-0.3,0.4-0.7,0.5-1,0.5c-0.9-0.1-1.7-0.1-2.6-0.1c-2,0-4.1,0.2-6.1,0.6
			C621.9,600.2,621.1,599.5,621.4,598.7z M561.3,468.7c-22.2-18-42.4-43.4-61.7-77.7c-6.8-12.1-12.9-25-18.7-37.4
			c-1.4-2.9-2.7-5.8-4.1-8.7c-7.4-15.6-14.5-32.4-16.4-50.2c0-0.3,0.1-0.6,0.3-0.9c5.4-5.3,11.3-9.8,17.5-13.4
			c0.3-0.2,0.7-0.1,0.8-0.1c27.3,8.6,48.2,32.3,63.9,72.5c6,15.3,10.4,31.2,14.3,46c2.9,11,4.9,20.1,6.5,28.7
			c1.1,6.1,2,12.5,2.7,20.4c0.1,1.5,0.3,3,0.5,4.6c0.5,4.6,1.1,9.3,0.5,13.9c0,0.4-0.3,0.7-0.6,0.8c-1.5,0.7-3,1.2-4.6,1.5
			C561.8,469,561.6,468.9,561.3,468.7z M569.3,464.2c0.5-6.6-0.5-13.7-1.5-20.5c-0.3-2-0.6-3.9-0.8-5.8c-1.5-12.5-4.5-24.8-7.1-35.2
			c-3.7-14.6-8.9-33.6-16.1-52.1c-14.6-37.3-35-61-60.9-70.5c-0.8-0.3-0.9-1.5-0.1-1.9c7.3-3.7,15.1-6.2,23.2-7.5
			c0.8-0.1,0.9-0.1,1.5,0.2c27.7,11.8,48.6,37.1,62,75.3c4.9,14,8.7,29.8,11.4,48.1c2.7,18.3,5.3,39.4,1.1,58.8
			c0,0.1-0.1,0.2-0.1,0.3c-3.3,5.2-7,9.2-11,11.9C570.2,465.6,569.2,465.1,569.3,464.2z M496.6,267.2
			c-14.1-32.1-23.3-66.8-30.4-96.5c-12.4-51.3-18.5-97.7-18.7-141.7c0-0.5,0.3-0.9,0.8-1c3-0.7,6-1,9.1-1l0.6,0
			c0.3,0,0.6,0.1,0.8,0.4c8.7,10,13.9,23.5,18.5,35.4c6.9,18,12.7,37.9,18.3,62.7c12.2,54.3,15.7,100,10.6,139.7
			c-0.1,0.5-0.4,0.8-0.9,0.9c-2.6,0.4-5.1,1-7.5,1.6C497.6,267.9,496.9,267.9,496.6,267.2z M590,619.9c-6.4-1.8-12.4-4-17.4-6
			c-0.3-0.1-0.5-0.3-0.6-0.6c-16.5-41.5-11.3-90.6-6.7-133.8l0.5-4.9c0-0.4,0.3-0.8,0.7-0.9c6.6-1.9,12.3-6.7,17.6-14.5
			c0.6-0.8,1.5-0.4,1.8,0.1c11.2,21,16.9,46,17.9,78.7c0.4,12.1-0.1,25.2-1.5,40c-0.2,1.8-0.3,3.7-0.5,5.6c-0.8,9.8-1.8,22-6,31.1
			c-0.1,0.1-0.1,0.2-0.2,0.3c-1.6,1.5-3.2,3-4.6,4.6C590.7,620,590.3,620,590,619.9z M567.2,611.7c-3.7-1.5-8-2.3-12.6-2.3
			c-0.9,0-1.9,0-2.9,0.1c-0.4,0-0.9-0.1-1.1-0.7c-1.3-4.1-3-8.2-4.7-12.1c-2.3-5.4-4.6-11-6.1-16.9c-2.7-10.8-4-22.6-4.1-38.2
			c-0.2-22.6,4.8-45.4,14.5-66c0.2-0.4,0.5-0.6,0.9-0.6c0,0,0,0,0.1,0c1.3,0.1,2.5,0.1,3.8,0.1c2.8,0,5.5-0.2,8-0.6
			c0.8-0.1,1.3,0.6,1.2,1.1l-0.3,2.9c-4.5,42.6-9.6,90.8,5.5,132.1C569.8,611.9,568.5,612.6,567.2,611.7z M643.8,475.5
			c25.1-40.9,47.9-71.9,71.8-97.6c19.7-21.1,46.3-46,77.7-50.6c0.1,0,0.1,0,0.2,0c0.3,0,0.7,0.2,0.9,0.4c4.8,6.8,8.5,14.4,11,22.6
			c0.1,0.3,0.1,0.6-0.1,0.8c-14,31.8-42.6,53.6-67.9,72.9c-14.5,11-29,21-43.3,29.7l-3.1,1.9c-13.3,8.2-30,18.3-45.7,21.8
			C644.1,477.7,643.3,476.2,643.8,475.5z M834.9,351c-9,0-17.3-1.4-24.6-4.1c-0.3-0.1-0.5-0.3-0.6-0.6c-0.5-1.3-0.9-2.5-1.4-3.8
			c-0.2-0.4-0.1-0.8,0.2-1.1c12.2-12.8,31.3-19.9,54-19.9c4.8,0,9.7,0.3,14.5,0.9c0.4,0,0.7,0.3,0.8,0.6c0.7,1.5,1.3,3,1.7,4.5
			c1.3,4.4,1.3,8.9,0,13.4c-0.1,0.3-0.3,0.6-0.6,0.7C864.3,347.6,848.7,351,834.9,351z M807.4,339.4c-0.3-0.1-0.6-0.3-0.8-0.6
			c-0.7-1.6-1.5-3.1-2.3-4.6c-0.2-0.4-0.2-0.8,0.1-1.1c13.4-17.5,28.2-27,44.2-28.2c0.7-0.1,1.4-0.1,2.1-0.1c9.8,0,19,5.3,24.7,14.2
			c0.6,0.9-0.1,1.8-1,1.6c-4-0.4-8.1-0.6-12.1-0.6c-22.5,0-41.7,6.8-54.1,19.2c-0.2,0.2-0.5,0.3-0.7,0.3
			C807.6,339.4,807.5,339.4,807.4,339.4z M641.6,473.1c-1.2-1.7-2.4-3.3-3.9-5.1c-0.3-0.3-0.3-0.7-0.2-1.1
			c4.6-30.2,15.6-60.8,32.8-91c18.5-32.6,37.6-51.4,58.1-57.5c0.1,0,0.2,0,0.3,0c0.1,0,0.1,0,0.2,0c1.9,0.4,3.8,0.6,5.7,0.6
			c9.7,0,19.7-5.3,29.8-15.6c0.3-0.3,0.9-0.4,1.2-0.2c10.3,5,19.2,12.2,26.2,21.2c0.7,0.8,0.4,1.5-0.6,1.7
			c-28.3,5.1-51.7,25.3-70.8,44.5c-32.4,32.4-58.2,71.9-77.1,102.6C642.9,473.8,642,473.7,641.6,473.1z M758.5,298.7
			c10.8-15.6,18.9-36.8,24.1-62.9c5-25,4.7-52.7-0.7-84.7c-0.2-1.2,0.8-1.7,1.7-1c2.6,2.2,5.1,4.5,7.3,6.9
			c13.4,14.5,17.3,34,12,61.5c-3.3,17.5-20.5,59.7-42.9,81.4C759.1,301.1,757.5,300.1,758.5,298.7z M735.6,313.1c-0.5,0-1-0.4-1-0.9
			c-5.2-32.7-0.9-65.9,3.5-91.2c1-5.6,1.9-11.3,2.8-17c3.6-22.2,7.3-45.2,14.9-66.7c0.3-0.7,0.7-0.8,1.2-0.7
			c7.7,1.7,15.2,5,22.2,10.1c0.2,0.2,0.4,0.4,0.4,0.7c5.8,32.3,6.3,61,1.5,87.9c-3.3,18.5-12.1,52.7-33.5,74.2
			C743.4,311.6,739.5,312.8,735.6,313.1C735.7,313.1,735.7,313.1,735.6,313.1z M731.8,313c-3.4-0.3-6.8-1.4-10-3.3
			c-0.2-0.1-0.3-0.2-0.4-0.4c-7.9-11-10.5-24.4-12.6-38.3c-2.6-17.4-3.4-35.7-2.2-55.9c1.3-23.5,5-57,22-76.2
			c0.1-0.1,0.3-0.2,0.5-0.3c1.7-0.6,3.3-1.1,4.9-1.5c4-1.1,8.2-1.6,12.4-1.6c2.3,0,4.6,0.2,7,0.5c0.9,0.1,1,0.8,0.8,1.4
			c-7.7,21.8-11.5,45.3-15.1,68.1c-1,6.2-2,12.3-3,18.4c-6,34.6-6.9,62.5-3,87.9c0.1,0.3-0.1,0.6-0.3,0.9c-0.2,0.2-0.5,0.3-0.8,0.3
			C731.9,313,731.8,313,731.8,313z M713.8,302.5c-0.3,0-0.6-0.1-0.8-0.4c-24.2-29.4-36.2-78.2-28-113.6c5.2-22.3,18-38.6,37-47.2
			c1.8-0.8,1.9,0.6,1.3,1.6c-13.4,19.3-16.3,49.2-17.8,65.2c-1.8,19-1.4,39.4,1.4,60.7c1.4,10.9,3.3,22.3,7.9,32.3
			c0.2,0.5,0,1-0.4,1.3C714.2,302.5,714,302.5,713.8,302.5z M634.7,464.7c-3.8-3.9-8.1-7.2-12.9-9.9c-0.4-0.2-0.6-0.7-0.5-1.1
			l0.1-0.5c1.5-45.4,14.4-125,83.3-150.1c1.4-0.5,2.1-0.2,2.9,0.9c1.4,1.8,2.9,3.5,4.4,5.1c3.6,3.3,7.5,5.8,11.4,7.5
			c1,0.4,0.8,1.6,0,1.9c-22.3,9-38.8,31.7-49.2,48c-19,29.6-32.3,64.3-37.6,97.6C636.4,465.1,635.3,465.3,634.7,464.7z M599.5,609.4
			c1.6-5.7,2.3-11.9,2.9-17.8c0.2-1.9,0.4-3.8,0.7-5.6c2-15.3,2.8-31.4,2.4-47.8c-0.7-32.4-7.2-59.7-19.1-81.3c-0.2-0.3-0.2-0.7,0-1
			c0.5-0.9,1-1.7,1.5-2.6c0.4-0.7,1-1,2.1-1c4.1,0,8.2,0.4,12.2,1.1c0.3,0,0.5,0.2,0.6,0.4c14.5,18.7,22.9,43,24.8,72
			c0.7,10.8,0.3,22.8-1.1,36.6l-0.4,3.5c-1.2,11.5-2.5,24.5-7.3,34.8c-0.1,0.3-0.4,0.5-0.6,0.6c-5.6,1.8-11.3,4.9-17,9.3
			C600.3,611.2,599.3,610.2,599.5,609.4z M585.2,442.7c1.5-15.1-0.3-30.6-2.4-46.4c-2.5-18.5-6.7-36.3-12.6-52.9
			c-8.4-23.8-25.1-55.6-57.1-71.7c-0.8-0.4-0.8-1.9,0.4-2c3.5-0.2,7.4-0.1,10.9,0.4c20.2,2.5,40.3,15.2,55.7,35.5
			c32,42.2,19,100.9,12,124.2c-1.5,4.9-3.2,9.5-4.9,13.5C586.8,444.2,585.1,443.9,585.2,442.7z M544.9,129.3c-6.6,0-15.6-0.9-21-5.2
			c-0.8-0.6-0.3-2,0.8-1.9c1.6,0.2,3.1,0.2,4.7,0.2c11.4,0,23.4-3.8,34.7-7.9c15.9-5.8,28.4-12.6,38.1-20.7c1.1-1,2-0.2,1.6,1.6
			c-0.1,0.8-0.2,1.6-0.3,2.4c-3.5,17.4-21.8,24.5-35.3,28.3C563.2,127.6,554.1,129.3,544.9,129.3z M529.8,120.8
			c-3.1,0-6-0.3-8.8-0.8c-0.3-0.1-0.6-0.3-0.8-0.6c-0.2-0.5-0.4-0.9-0.5-1.4c-0.1-0.3,0-0.7,0.2-1c19.2-24,50.5-40,79.5-40.6
			c0,0,0,0,0,0c0.4,0,0.7,0.2,0.9,0.5c2.3,3.6,3.6,7.8,3.8,12.6c0,0.3-0.1,0.6-0.3,0.8c-12.5,11.5-28.8,18.5-39.9,22.7
			C554.3,116.6,541.7,120.8,529.8,120.8z M519.3,112.2c0.3-2.8,1.2-5.9,2.8-9.2c8.9-14.2,20.3-24.9,34.9-32.9
			c6.1-3.3,12.7-5.1,19.3-5.1c8.5,0,15.9,2.8,21,8c0.8,0.8,0.4,1.7-0.7,1.8c-27.4,1.5-56.4,16.1-75.6,38.1
			C520.6,113.7,519.2,113.4,519.3,112.2z M507.9,264.4c5.1-40.1,1.5-85.2-11.3-141.9c-5.3-23.7-11.6-44.4-19-63.4
			c-4.1-10.4-8.6-21.3-15.3-30c-0.8-1,0.1-1.8,1-1.7c30.1,4.3,51,41.2,60.8,62.8c0.2,0.4,0.1,0.8-0.1,1.1c-2.4,3.1-4.5,6.1-6.3,9
			c-4.4,9.4-5,17.6-1.6,23.6c3.4,6.1,10.7,9.8,21.1,10.8c0.5,0.1,0.9,0.5,0.9,1l0,0.5c8.4,49.2,1.3,92.3-21.3,128.3
			c-0.2,0.3-0.5,0.5-0.9,0.5c-2,0.1-4.2,0.3-6.8,0.6C508.6,265.7,507.8,265.3,507.9,264.4z M484.9,271.6
			c-27.8-30.1-42-73.7-50.3-103.8C420.9,118.2,419,74.4,429,37.6c0.1-0.2,0.2-0.4,0.4-0.5c4.5-3.6,9.6-6.3,15.1-8
			c0.7-0.2,1.5,0.3,1.5,1c0.3,43,6.4,89.2,18.7,141.2c6.4,27.1,15.7,62.6,30.3,96.2c0.3,0.6-0.1,1.2-0.6,1.4
			c-2.8,0.9-5.6,1.9-8.3,3.1C485.8,272,485.2,272,484.9,271.6z M473.1,278c-48.9-32.2-69.7-110.2-68.7-173.2
			c0.3-19.4,4-46.1,19.8-62.9c0.7-0.7,2-0.1,1.8,1c-8.4,35.6-6.1,76.7,7,125.5c12.4,46.3,28.7,80.1,49.9,103.5
			c0.5,0.5,0.4,1.3-0.3,1.7c-2.8,1.4-5.7,2.9-8.4,4.5C473.8,278.2,473.5,278.2,473.1,278z M555.7,469.6c-2.3,0-4.7-0.1-7.4-0.4
			c-11.4-3.4-21.5-10.2-30.4-16.1c-11.6-7.7-22.7-17.1-33.9-28.6c-20.6-21.1-35.2-45.5-42.2-70.7c-0.1-0.4,0-0.8,0.4-1.1
			c10.2-8.2,7.2-22.9,4.1-33.3c-0.5-1.4-1.1-2.9-1.8-4.4c-0.1-0.3-0.1-0.7,0.1-1c4-6.1,8.3-11.7,12.9-16.6c0.6-0.6,1.7-0.3,1.8,0.6
			c2.1,14.6,7.3,28,12.2,39.2c7.5,17.1,15.4,33.6,23.6,49.1c18.5,34.9,39.5,62.3,62.4,81.5c0.7,0.6,0.6,1.8-0.7,1.9L555.7,469.6z
			 M424.8,353.4c-11.8,0-24.2-3.8-35.2-7.2l-3.3-1c-14.7-4.4-28.8-10.8-41.8-18.8c-27.8-17.1-43-34.2-46.5-52.3c0-0.1,0-0.3,0-0.4
			c1.3-5.9,3.3-11.4,6-16.3c0.1-0.1,0.2-0.3,0.3-0.4c4.3-3,9.4-4.5,15.7-4.5c6.9,0,13.9,1.8,20.5,3.7c11,3.2,22.2,8.6,35,17
			c25.7,16.7,48.2,41.9,64.8,72.9c0.2,0.4,0.1,0.9-0.2,1.2c-2.1,2.2-5,4-8.6,5.6C429.1,353.3,427,353.4,424.8,353.4z M440.8,343.8
			c-16.9-31-39.6-55.7-67.2-73.6c-11.3-7.3-33.1-19.6-52.2-19.6c-4.5,0-8.6,0.7-12.2,2.1c-0.1,0.1-0.3,0.1-0.4,0.1
			c-0.3,0-0.6-0.1-0.8-0.4c-0.3-0.4-0.3-0.9,0-1.3c8.7-11.7,21.3-18.2,35.4-18.2c8.5,0,17.4,2.3,26.5,6.9
			c28.8,14.5,59.3,49.2,71.2,80.9c1.8,6.2,2.9,10.8,3,16.5c0.1,2.4-0.4,4.6-1.5,6.6C442.2,344.5,441.2,344.5,440.8,343.8z
			 M390.6,360.6c-11,0-22.9-1.5-35.5-4.6c-36.3-8.8-57.2-31-58.8-62.5c-0.2-3.6-0.1-7.2,0.2-10.8c0-0.5,0.4-0.9,0.9-0.9
			c0,0,0.1,0,0.1,0c0.4,0,0.8,0.3,1,0.7c7.4,19.2,27.2,33.5,45.1,45.4c11.7,7.7,26.1,14,45.4,19.9c9.2,2.8,19.7,5.9,29.9,6.9
			c1.2,0.1,1.3,1.8,0.2,2.1l-3.2,0.8C408.1,359.6,399.6,360.6,390.6,360.6z M531,465.8c-6.7-1.8-13.2-4.1-18.1-5.9
			c-53.9-19.5-85.2-56.8-83.8-99.8c0-0.4,0.2-1,0.6-1.1c3.7-1.4,6.6-2.8,9.3-4.3c0.6-0.4,1.3,0,1.5,0.6c7,24.5,21.2,48.2,42.2,70.3
			c9,9.5,19.5,18.4,32,27.3c4.9,3.5,10.8,7.5,17.1,11C533.1,464.6,532.1,466.1,531,465.8z M541,610.7c-26.1-36-32.9-99.6-1.3-136.8
			c0.3-0.4,0.7-0.4,1-0.4c2.2,0.4,4.5,0.7,6.7,1c1,0.1,1.1,0.9,0.8,1.5c-8.8,19.2-13.6,40.7-14.1,62.2c-0.2,11.8,0.7,23.8,2.8,35.7
			c1,5.5,2.5,11.5,4.9,18.6c1,3,2.4,6,3.8,8.9c1.1,2.3,2.2,4.7,3.1,7.1c0.3,0.7-0.1,1.3-0.8,1.4c-2,0.3-4,0.7-5.8,1.2
			C541.8,611.2,541.3,611.2,541,610.7z M651.9,492.5c-0.4,0-0.8-0.3-1-0.7c0,0-0.7-2.1-0.9-2.6c-0.3-0.7,0.3-1.3,0.8-1.4
			c62.8-11.4,120-43.6,153.1-86.3c0.6-0.7,2.2-0.4,1.8,0.9c-2.2,7.9-5.2,15.3-9,22C771.9,467.5,705.1,491.3,651.9,492.5
			C651.9,492.5,651.9,492.5,651.9,492.5z M842.7,364c-9.8,0-20.3-2.6-29.6-7.2c-0.3-0.1-0.5-0.4-0.6-0.7c-0.4-1.8-0.9-3.7-1.4-5.5
			c-0.3-0.9,0.5-1.6,1.3-1.3c6.7,2.2,14.2,3.3,22.2,3.3c16.5,0,31.7-4.6,41.6-8.4c0.7-0.3,1.8,0.6,1.3,1.5
			c-2.7,5.1-7.2,9.7-12.8,12.9C858.5,362.2,851.1,364,842.7,364z"/>
		<g>
			<path class="st5" d="M562.2,468.9c1.6-0.4,3.2-0.9,4.6-1.5c0.3-0.1,0.6-0.5,0.6-0.8c0.6-4.6,0.1-9.3-0.5-13.9
				c-0.2-1.5-0.4-3.1-0.5-4.6c-0.3-3.4-0.6-6.6-1-9.5c-21,4.9-54.8-36.2-73.2-61.4c2.4,4.7,4.8,9.3,7.3,13.9
				c19.3,34.3,39.5,59.7,61.7,77.7C561.6,469,561.8,469,562.2,468.9z"/>
			<path class="st5" d="M570.9,465.1c4-2.7,7.7-6.7,11-11.9c0.1-0.1,0.1-0.2,0.1-0.3c1.7-8.1,2.3-16.4,2.1-24.8
				c-9.2,1-14.3-14.7-22.9-45.4c-6.5-23-19.5-43-27.3-53.6c3.5,6.5,6.8,13.6,9.8,21.4c7.2,18.5,12.4,37.5,16.1,52.1
				c2.6,10.4,5.6,22.7,7.1,35.2c0.2,1.9,0.5,3.8,0.8,5.8c1,6.8,2,13.9,1.5,20.5C569.2,465,570.1,465.6,570.9,465.1z"/>
			<path class="st5" d="M530.6,440.3c-17.9,5.4-58.5-36.3-76.5-56c7.6,14.2,17.6,27.7,29.7,40.1c11.3,11.5,22.4,20.9,33.9,28.6
				c8.9,6,19,12.8,30.4,16.1c2.7,0.3,5.1,0.4,7.4,0.4l1.2,0c0.4,0,0.8-0.3,1-0.7c0.1-0.4,0-0.9-0.3-1.2
				C548.2,459.9,539.3,450.7,530.6,440.3z"/>
			<path class="st5" d="M520,113.3c0.1,0.1,0.3,0.1,0.4,0.1c0.3,0,0.6-0.1,0.8-0.4c6.9-7.9,15.1-14.9,23.9-20.6
				c-6.9,2.8-14.5,5.3-18.8,4.6c-1.4,2-2.8,4-4.1,6.1c-1.6,3.3-2.5,6.4-2.8,9.2C519.3,112.7,519.5,113.1,520,113.3z"/>
			<path class="st5" d="M484.9,271.6c0.2,0.2,0.5,0.3,0.8,0.3c0.1,0,0.3,0,0.4-0.1c2.7-1.2,5.5-2.2,8.3-3.1c0.3-0.1,0.5-0.3,0.6-0.6
				c0.1-0.3,0.1-0.6,0-0.9c-4.9-11.2-9.1-22.5-12.9-33.8c-16.6,3-38.7-45.9-49.1-71.6c0.5,1.9,1,3.9,1.5,5.8
				C442.9,198,457.1,241.5,484.9,271.6z"/>
			<path class="st5" d="M507.9,264.4c0,0.3,0.1,0.6,0.3,0.9c0.2,0.2,0.5,0.3,0.7,0.3c0,0,0.1,0,0.1,0c2.5-0.3,4.7-0.5,6.8-0.6
				c0.3,0,0.7-0.2,0.9-0.5c5.1-8.1,9.4-16.6,12.9-25.5c-9.6-3-16.2-19.7-20.4-36.1C510.7,225.1,510.3,245.3,507.9,264.4z"/>
			<path class="st5" d="M587.3,443.2c1.8-4,3.4-8.6,4.9-13.5c1.8-5.8,3.9-13.8,5.6-23.2c-5.6-2.1-11.5-8.7-13.8-22.8
				c-1.9-11.8-6.9-24.2-11.7-34.2c4.8,14.8,8.4,30.5,10.6,46.7c2.1,15.8,3.9,31.3,2.4,46.4C585.1,443.9,586.8,444.2,587.3,443.2z"/>
			<path class="st5" d="M603.9,95.4l0.1-0.7c0.2-1.4-0.9-1.6-1.7-0.9c-1.3,1.1-2.7,2.2-4.1,3.2c-0.5,2.5-4.7,18.6-25.2,24.2
				c-17.4,4.8-30,2.9-38.3,1c-1.8,0.2-3.6,0.3-5.3,0.3c-1.6,0-3.2-0.1-4.7-0.2c0,0-0.1,0-0.1,0c-0.4,0-0.8,0.3-1,0.7
				c-0.2,0.4,0,0.9,0.3,1.2c5.4,4.3,14.4,5.2,21,5.2c9.1,0,18.3-1.7,23.3-3.1c13.5-3.8,31.9-11,35.3-28.3
				C603.7,97,603.8,96.2,603.9,95.4z"/>
			<path class="st5" d="M722.8,310.2c2.9,1.5,6,2.5,9,2.8c0.2,0,1.2-0.5,1.1-1.2c-3.9-25.4-2.9-53.3,3-87.9c1.1-6.1,2-12.3,3-18.4
				c0.5-3,0.9-5.9,1.4-8.9c-4.5,13.4-10.8,33.5-12,43.8c-1.6,13.7-2.5,42.6-17,45.1c1.9,8.2,4.5,15.9,9.2,22.7
				C721.4,309.4,721.7,309.6,722.8,310.2z"/>
			<path class="st5" d="M665.8,456.4c-4.2-6.8,4.2-20.8,4.2-20.8l-0.4,0.2c-8.4,12.1-17,25.3-25.8,39.7c-0.2,0.4,0.1,2.2,1.4,2
				c15.7-3.5,32.3-13.6,45.7-21.8l3.1-1.9c14.3-8.7,28.9-18.7,43.3-29.7c13.7-10.4,28.4-21.7,41.2-34.8
				c-2.2,1.5-58.3,43.1-74.4,53.8C685.2,455.7,670,463.2,665.8,456.4z"/>
			<path class="st5" d="M523.2,113.1c-1.1,1.3-2.2,2.6-3.3,3.9c-0.2,0.3-0.3,0.6-0.2,1c0.1,0.5,0.3,1,0.5,1.4
				c0.1,0.3,0.4,0.5,0.7,0.6c2.7,0.6,5.7,0.8,8.8,0.8c11.9,0,24.5-4.2,34.1-7.9c11.2-4.2,27.5-11.2,39.9-22.7
				c0.2-0.2,0.4-0.5,0.3-0.8c-0.2-4.8-1.5-9-3.8-12.6c-0.2-0.3-0.5-0.5-0.9-0.5c0,0,0,0,0,0c-0.3,0-0.6,0-0.9,0
				c-0.5,6.2-4.2,17.7-22.8,24.5C554.1,108.7,539.8,114.2,523.2,113.1z"/>
			<path class="st5" d="M734.6,312.2c0.1,0.5,0.5,0.9,1,0.9c0,0,0,0,0.1,0c3.8-0.2,7.7-1.4,11.9-3.6c21.4-21.5,30.2-55.7,33.5-74.2
				c1.9-10.7,3-21.7,3.2-33.1c-5,26.3-23.1,108.8-52,86.2C732.6,296.3,733.3,304.2,734.6,312.2z"/>
			<path class="st5" d="M621.8,454.8c4.8,2.7,9.1,6.1,12.9,9.9c0.6,0.6,1.6,0.3,1.8-0.6c2.6-16.6,7.3-33.6,13.6-50.1
				c-16.4,31.4-24.8,27.5-27.8,24c-0.5,5.3-0.7,10.4-0.9,15.1C621.4,453.4,621.4,454.6,621.8,454.8z"/>
			<path class="st5" d="M643.8,438.5c-2.7,9.5-4.8,19-6.2,28.4c-0.2,0.4-0.1,0.8,0.2,1.1c1.5,1.7,2.7,3.4,3.9,5.1
				c0.4,0.6,1.4,0.6,1.8,0c18.9-30.7,44.7-70.1,77.1-102.6c1-1,1.9-1.9,2.9-2.9c-18.3,14.6-45.6,44.8-61,65.8
				C649,451.5,644.8,441.7,643.8,438.5z"/>
			<path class="st5" d="M714.8,301c-4.6-9.9-6.5-21.4-7.9-32.3c-2.2-17.1-2.9-33.7-2.2-49.4c-2.6,17.8-7.1,42.2-12.5,45.5
				c5.2,13.9,12.2,26.9,20.8,37.3C713.8,303.1,715.4,302.3,714.8,301z"/>
			<path class="st5" d="M496.6,267.2c0.2,0.4,0.6,0.6,1,0.6c0.1,0,0.2,0,0.3,0c2.4-0.6,4.9-1.2,7.5-1.6c0.5-0.1,0.8-0.4,0.9-0.9
				c1.4-10.7,2.1-21.8,2.2-33.3c-12.9,17.3-34.8-41.6-43.9-68.5c0.6,2.5,1.1,4.9,1.7,7.3C473.4,200.4,482.6,235.1,496.6,267.2z"/>
			<path class="st5" d="M689,466.9c-1.5-2.9,0.5-7.1,1.9-9.4c-0.6,0.3-1.1,0.7-1.7,1l-4.9,2.8c-11.6,6.7-24.7,14.3-37.7,17.4
				c-0.7,0.2-1,0.9-0.7,1.5c1,1.8,1.8,3.6,2.7,5.5c0.2,0.5,0.8,0.7,1.1,0.6c54.5-9.8,105.3-35.8,139.1-70.3
				C722,463,691,471.1,689,466.9z"/>
			<path class="st5" d="M778.5,253.2c-5,18.3-11.7,33.5-20,45.5c-1,1.4,0.5,2.4,1.6,1.4c22.4-21.7,39.6-63.9,42.9-81.4
				c0.1-0.3,0.1-0.6,0.2-0.9C795.9,237.1,784.5,263.3,778.5,253.2z"/>
			<path class="st5" d="M705.6,472c-17.4,7-35.9,12.3-54.8,15.8c-0.6,0.1-1,0.8-0.8,1.4c0.2,0.5,0.9,2.6,0.9,2.6
				c0.1,0.4,0.5,0.7,1,0.7c0,0,0,0,0,0c35.4-0.8,76.9-11.6,107.9-31.6C721.8,480.3,708.7,474.2,705.6,472z"/>
			<path class="st5" d="M627.1,570.3l-0.2,1.4c-1.1,9.1-2.3,18.5-5.5,26.9c-0.3,0.9,0.5,1.5,1.2,1.4c2.1-0.4,4.1-0.6,6.1-0.6
				c0.9,0,1.7,0,2.6,0.1c0.2,0,0.7,0,1-0.5c8.9-13.1,15-30.2,17.7-48C644.4,566.9,633.9,578.9,627.1,570.3z"/>
			<path class="st5" d="M824.7,345.3c-7.3-1.3-7.5-7.3-6.3-12.2c-3.6,2.4-7,5.1-9.9,8.1c-0.3,0.3-0.4,0.7-0.2,1.1
				c0.5,1.3,1,2.5,1.4,3.8c0.1,0.3,0.3,0.5,0.6,0.6c7.3,2.7,15.6,4.1,24.6,4.1c13.8,0,29.4-3.4,44-9.5c0.3-0.1,0.5-0.4,0.6-0.7
				c0.4-1.4,0.6-2.8,0.8-4.2C864.4,348.2,837,347.5,824.7,345.3z"/>
			<path class="st5" d="M626.5,562.2c1.2-11.2,1.6-21.2,1.4-30.4c-2.7,15.8-11.2,59-24.1,47.7c-0.2,2.1-0.4,4.3-0.7,6.4
				c-0.2,1.8-0.4,3.7-0.7,5.6c-0.7,5.9-1.3,12.1-2.9,17.8c-0.3,0.9,0.8,1.7,1.7,1.1c5.7-4.4,11.4-7.5,17-9.3
				c0.3-0.1,0.5-0.3,0.6-0.6c4.8-10.3,6.1-23.4,7.3-34.8L626.5,562.2z"/>
			<path class="st5" d="M862.5,319.9c3.7,0,7.5,0.2,11.3,0.6c-0.2-0.1-0.3-0.2-0.5-0.2c-14-4.7-36.4-1.9-51,4.4
				c-7.8,3.4-8.5,0.4-7.5-3.2c-3.5,3.4-6.9,7.2-10.2,11.6c-0.3,0.3-0.3,0.8-0.1,1.1c0.8,1.5,1.6,3,2.3,4.6c0.3,0.8,1.2,0.8,1.7,0.3
				C820.7,326.7,839.9,319.9,862.5,319.9z"/>
			<path class="st5" d="M876.2,344.2c-2.3,0.9-4.8,1.8-7.6,2.7c-9.9,11.3-20.6,12.6-32.6,12.5c-11.8-0.1-17.2-7.7-17.5-8.4
				c-2.1-0.5-4.1-1-6.1-1.6c-1.1-0.3-1.5,0.8-1.3,1.3c0.5,1.8,1,3.6,1.4,5.5c0.1,0.3,0.3,0.6,0.6,0.7c9.3,4.6,19.8,7.2,29.6,7.2
				c8.4,0,15.8-1.8,22.1-5.4c5.5-3.2,10.1-7.7,12.8-12.9C878,344.7,876.9,343.9,876.2,344.2z"/>
			<path class="st5" d="M419,354.7c-10.3-1-20.7-4.1-29.9-6.9c-1.5-0.5-3-0.9-4.5-1.4c-30,12-60.6-6.5-78-20.7
				c9.8,14.5,26.2,25,48.5,30.4c12.6,3,24.5,4.6,35.5,4.6c9,0,17.6-1,25.4-3.1l3.2-0.8c0.5-0.1,0.8-0.6,0.8-1.1
				C419.9,355.1,419.5,354.7,419,354.7z"/>
			<path class="st5" d="M473.1,278c0.2,0.1,0.4,0.2,0.6,0.2c0.2,0,0.4-0.1,0.5-0.2c2.7-1.6,5.6-3.2,8.4-4.5c0.3-0.1,0.5-0.4,0.6-0.7
				c0.1-0.3,0-0.7-0.3-0.9c-9.1-10-17.2-21.9-24.6-35.9c-0.1,0-0.2-0.1-0.4-0.1c-13.4-2.7-27.6-18.5-37.7-32.3
				C431.5,234.7,448.8,262,473.1,278z"/>
			<path class="st5" d="M441.1,320.6c-1.8-4.9-4.2-10-6.9-15c-5.8,2.3-12.6-3.1-24.6-12.4c-36.2-28.3-56.7-34.6-57.1-34.6
				c8.4,3.8,15.8,8.2,21,11.6c27.6,17.9,50.3,42.7,67.2,73.6c0.2,0.3,0.5,0.5,0.9,0.5c0,0,0,0,0,0c0.4,0,0.7-0.2,0.9-0.6
				c1-2,1.5-4.3,1.5-6.6C444,331.4,442.9,326.8,441.1,320.6z"/>
			<path class="st5" d="M440.1,347.4c0.3-0.3,0.4-0.8,0.2-1.2c-5.2-9.8-11.1-18.8-17.4-27.4c-5.4,6.9-15.8,13.8-33.8,14.7
				c-24.1,1.1-65.7-26.8-81-37.7c7.8,10.4,19.9,20.6,36.5,30.8c13,8,27.1,14.3,41.8,18.8l3.3,1c11,3.4,23.4,7.2,35.2,7.2
				c2.2,0,4.3-0.1,6.6-0.5C435.1,351.4,438,349.5,440.1,347.4z"/>
			<path class="st5" d="M545.7,601.4c-1.4-2.9-2.8-5.9-3.8-8.9c-2.4-7.1-3.9-13-4.9-18.6c-2.1-11.9-3.1-24-2.8-35.7
				c0.3-17.8,3.8-35.6,9.9-52.1c-1.9,3.8-18,38.5-13.6,71.2c2,14.8-0.1,22.5-3.7,26.3c3.7,10,8.5,19.2,14.2,27.1
				c0.3,0.4,0.8,0.5,1.1,0.4c1.8-0.5,3.8-0.9,5.8-1.2c0.6-0.1,1.1-0.8,0.8-1.4C547.9,606.1,546.7,603.7,545.7,601.4z"/>
			<path class="st5" d="M563.9,478.6l0.3-2.9c0.1-0.7-0.6-1.2-1.2-1.1c-2.5,0.4-5.2,0.6-8,0.6c-0.6,0-2.5,0-3-0.1
				c-0.4,0-0.7-0.1-1,0c-0.7,0.2-0.7,0.5-0.6,1c0.4,1.1,1.6,3.9,4.2,6.1c3.3,2.8,4.7,8,4,19.9c-0.7,11.9-5.6,40.9-2.1,68
				c3.1,23.6-8.3,23.1-14,17.8c1.1,3,2.4,6,3.6,8.9c1.7,3.9,3.4,8,4.7,12.1c0.1,0.4,0.5,0.7,1,0.7c0,0,0,0,0.1,0
				c1-0.1,1.9-0.1,2.9-0.1c4.6,0,8.8,0.8,12.5,2.2c0.2,0.1,0.9,0.5,1.4,0.5c0.7-0.1,1.2-0.6,0.9-1.4
				C554.3,569.4,559.4,521.1,563.9,478.6z"/>
			<path class="st5" d="M531.8,463.9c-3.5-1.9-6.8-4-9.9-6.1c-47.3-10.4-73.8-48.4-79.9-65.4c-5.7-15.7-1-31-0.3-33.3
				c-0.4-1.3-0.9-2.5-1.2-3.8c-0.1-0.3-0.3-0.6-0.6-0.7c-0.1-0.1-0.3-0.1-0.4-0.1c-0.2,0-0.4,0-0.5,0.1c-2.7,1.5-5.6,2.8-9.3,4.3
				c-0.4,0.2-0.6,0.7-0.6,1.1c-1.4,43.1,29.9,80.4,83.8,99.8c4.9,1.8,11.4,4,18.1,5.9C532,466.1,533.1,464.6,531.8,463.9z"/>
			<path class="st5" d="M602.3,579.4c-18.5,19.7-31.5,3.3-34.7-8.4c-3.5-13.1-3.3-88.1,6.3-94.4c7.8-5.2,10.8-14.3,11.7-17.6
				c-0.5-0.3-1.1-0.2-1.4,0.3c-5.3,7.8-11,12.5-17.6,14.5c-0.4,0.1-0.7,0.5-0.7,0.9l-0.5,4.9c-4.6,43.2-9.8,92.3,6.7,133.8
				c0.1,0.3,0.3,0.5,0.6,0.6c5,2,11,4.3,17.4,6c0.3,0.1,0.7,0.1,1-0.3c1.5-1.5,3-3.1,4.6-4.6c0.1-0.1,0.2-0.2,0.2-0.3
				c4.2-9.1,5.2-21.3,6-31.1C602.1,582.2,602.2,580.8,602.3,579.4z"/>
		</g>
		<path class="st6" d="M793.3,646.3c-12,21.5-60.3,25.6-89.9,27.6c-52.8,3.7-123,3.9-174.1-1.1c-40.6-4-73.2-9.7-80.4-40.9
			c0.1,10.8,1.8,21.6,8.5,27.6c14.3,12.7,37.9,15.5,56.9,17.8l5.2,0.6c33.4,4.1,67.3,6.2,100.8,6.2c4.5,0,8.9,0,13.4-0.1
			c31.3-0.5,64.1-1.5,95.7-6.3c18.7-2.8,60.2-4.8,63.9-31C793.3,646.6,793.3,646.4,793.3,646.3z"/>
		<path class="st7" d="M774.6,673c-0.3,0-4.1,1.3-5.6,1.7c-42.7,12-90.3,14.1-135.3,14.5c-7.5,0.1-15,0.1-22.7,0.1
			c-40.3,0-87.1-1.5-129-12.8c-3.2-0.9-5.9-1.7-8.3-2.5c0,0-0.1,0-0.1,0c11.8,8.9,32.7,15.5,58.3,20c54.6,9.6,100.4,5.6,136.6,2.8
			C730.4,692.3,760.8,681.3,774.6,673z"/>
		<path class="st8" d="M790,619.2c-7.7,5.3-18.5,8.3-28.2,10.6c-36,8.4-73.8,10.8-102.8,11.9c-13.4,0.5-26.5,0.8-39.1,0.8
			c-29.2,0-56-1.3-82-4.1c-3.9-0.4-7.9-0.8-12.1-1.1c-24.5-2.2-52.2-4.7-71.1-18.1c4.1,5.5,9.9,10,15.5,12.9
			c12.4,6.5,25.9,9.6,39.6,11.7c29.7,4.6,60,6.1,89.9,6.9c52.2,1.4,127.3-1.8,163.6-16.2C775.1,629.8,784.6,624.5,790,619.2z"/>
		<path class="st9" d="M723.3,142.9c-1.7,2.5-3.2,5.1-4.6,7.9c-7.9,7.9-28,19.4-36.1,57.5c0.2-6.9,1-13.5,2.5-19.7
			c5.2-22.2,17.9-38.5,36.8-47.1c0.1,0,0.1-0.1,0.2-0.1C723.3,140.8,724.3,141.4,723.3,142.9z M744.3,135.6c-3.5,0.1-7,0.6-10.4,1.5
			c-1.1,0.3-2.1,0.6-3.2,1c-1.6,0.5-2,0.7-2.8,1.6c-16.4,19.3-20,52.2-21.3,75.4c-0.4,7.9-0.5,15.4-0.4,22.8
			C707.8,219.5,714.9,161.9,744.3,135.6z M763.5,138.5c-2.1-0.7-4.3-1.4-6.5-1.9c-0.5-0.1-1,0.1-1.2,0.7
			c-7.7,21.4-11.3,44.4-14.9,66.7c-0.9,5.7-1.8,11.4-2.8,17c-6.5,34-5.8,62.8-5.8,62.8c3.9-53.7,13.5-86.7,16.3-102.1
			C751,168.3,757.1,146.8,763.5,138.5z M781.4,241.7c12.8-46.6,5.2-82.8,4.1-89.9c-0.6-0.5-1.2-1.1-1.8-1.6c-1.1-0.9-1.9-0.1-1.7,1
			c5.4,32,5.7,59.7,0.7,84.7C782.2,237.9,781.8,239.8,781.4,241.7z M850.8,304.7c-0.7,0-1.4,0-2.1,0.1c-7.6,0.6-15,3.1-22.1,7.5
			l-0.4,0.7c0,0,19.8-6.6,38.6-4.4C860.5,306.1,855.7,304.7,850.8,304.7z M862.5,321.4c-15.4,0-29.1,3.3-40.2,9.4
			c5.9-1.1,27-7.2,57-4.1c-0.4-1.3-0.9-2.5-1.5-3.8c-0.2-0.3-0.5-0.6-0.8-0.6C872.1,321.7,867.2,321.4,862.5,321.4z M834.7,352.6
			c-2.4,0-4.7-0.1-7-0.3c6.2,3.1,21.7,3,34.4-3.5C854,351,844.6,352.6,834.7,352.6z M704.9,303.1c-49.2,17.8-69.9,63.5-78.3,104.7
			c8.3-17.8,22.8-44.9,34-63.6c12.9-21.7,43.4-36.7,48.1-39c-0.4-0.5-0.9-1-1.3-1.6C706.9,303,706.1,302.7,704.9,303.1z M777.1,310
			c-3.4-2.5-7.5-5-11.4-6.9c-0.1-0.1-0.7-0.3-1.2,0.2c-10.1,10.4-20.1,15.6-29.8,15.6c-1.2,0-2.4-0.1-3.6-0.2
			c-2.6-0.3-1.6-0.6-4,0.1c-19.5,6.4-37.6,24.3-55.2,54.6c14.9-16.4,38.2-40.6,48.5-44.7c15.8-6.3,27.7-6,35.1-9.8
			C761.1,315.9,769.6,310,777.1,310z M762.7,345.2c20-8.1,28.1-11.4,35.4-11.6c-1.1-1.9-2.2-3.7-3.4-5.4c-0.4-0.6-0.6-1.1-1.8-0.9
			c-31.3,4.8-57.7,29.5-77.3,50.5c-9.6,10.3-19.1,21.6-28.6,34C707.8,389.7,744.3,352.7,762.7,345.2z M806.8,355.7
			c-0.3-1.3-1.7-0.8-2-0.2c-14.7,30.6-43.7,52.5-66.9,70c-14.3,10.8-26.3,19.2-37.7,26.3l-0.3,0.4c0,0,50.1-25.9,78.2-50.8
			c14.8-13.1,24.4-27.2,30.2-37.6C807.9,361,807.4,358.4,806.8,355.7z M769.7,442.4c10.8-6.9,23.7-19.5,31.9-28.1
			c1.6-3.8,3-7.8,4.1-11.9c0.1-0.5-0.1-1-0.5-1.2c-0.2-0.1-0.3-0.1-0.5-0.1c-0.3,0-0.6,0.1-0.8,0.4c-19.4,25-47.1,46.4-79.2,62.1
			C736.1,459,757.4,450.3,769.7,442.4z M587.7,67c-3.4-1.2-7.2-1.9-11.3-1.9c-6.6,0-13.3,1.8-19.3,5.1c-6.9,3.8-13.1,8.2-18.7,13.3
			C549.8,77,568.6,68.1,587.7,67z M526.9,109.1c8.5-5.2,41.6-24.7,68-32.6C570.5,78.4,545.1,90.7,526.9,109.1z M564.2,114.5
			c-3.7,1.3-7.4,2.6-11.2,3.8c4.4-0.2,12.4-1,20.7-3.7c9.6-3.1,15.9-9.3,19.1-13.9C584.8,105.9,575.4,110.5,564.2,114.5z M521.2,95
			c0.9-1.2,1.8-2.5,2.8-3.7c0.2-0.3,0.3-0.7,0.1-1.1c-9.8-21.6-30.6-58.5-60.8-62.8C463.2,27.4,492.4,39.4,521.2,95z M495.7,125.5
			c-5.6-24.9-11.4-44.8-18.3-62.7c-4.6-11.9-9.8-25.4-18.5-35.4c-0.4-0.4-0.8-0.3-1.3-0.4c-2.1,0-4.2,0.2-6.3,0.5
			c8.2,6.2,14.9,17.8,20.5,33.3c7,19.3,20,64.2,23.5,80c2.5,11.3,8.6,40,11.8,55.5C505.1,174.4,501.4,150.9,495.7,125.5z
			 M464.7,171.2C452.4,119.2,446.3,73,446,30c0-0.8-0.9-1.1-1.5-1c-1.1,0.3-2.1,0.7-3.1,1.1c-0.3,7.7-0.7,27.8,1.5,49.2
			c2.8,27.4,8.4,63.8,16.5,89.8c4.7,15.2,9.9,26.7,13.4,33.7C469.7,191.6,467,180.9,464.7,171.2z M433,168.3
			c-13.1-48.9-15.4-89.9-7-125.5c0.3-1.1-1.1-1.7-1.8-1c-3.6,3.9-6.6,8.3-9.1,13c-0.9,12.8-1.6,30.2-0.6,43.9
			c1.5,21.8,14.3,73.6,28.5,101.9C439.4,190.6,436.1,179.8,433,168.3z M369.9,239.7c-9.1-4.5-18-6.9-26.5-6.9
			c-8.5,0-16.4,2.4-23.2,6.8c8.1-1.3,19.6-2,32.6,0.8c18.5,3.9,49.1,27.5,64.7,40.1C403.6,263.2,386.5,248.1,369.9,239.7z
			 M353.5,269.8c27.9,11.5,52.7,31.6,62.3,40c-12.1-14.6-25.7-27-40.4-36.5c-12.9-8.3-24-13.7-35-17c-6.6-1.9-13.6-3.7-20.5-3.7
			c-6.2,0-11.4,1.5-15.7,4.5c-0.1,0.1-0.2,0.2-0.3,0.4c-0.6,1.1-1.2,2.3-1.7,3.4C309.7,259.7,327.2,259,353.5,269.8z M343.7,327.9
			c-18-11.9-37.8-26.2-45.1-45.4c-0.5-1.2-1.9-0.6-2,0.3c-0.2,2.5-0.3,4.9-0.3,7.4c4.3,7.7,12.9,22,21.4,27.8
			c10.9,7.4,32.5,20.2,50.6,22.7C358.8,336.7,350.8,332.6,343.7,327.9z M576.2,311.6c7.4,12.9,17.3,32.8,24.3,51.1
			c-1.4-19.4-7-39.7-20.2-57.2c-16.9-22.2-39.2-35.3-61.4-36c0,0-0.4,0-0.4,0l-0.5,0l-1,0c-1.1,0-2.2,0-3.3,0.1
			C513.6,269.6,565.3,292.6,576.2,311.6z M549.2,314.7c13.3,21.9,28.9,75.3,33.4,91.4c-0.5-4.1-1.1-8.1-1.6-12
			c-2.7-18.4-6.5-34.1-11.4-48.1C556,307.6,535,282.2,507,270.5c-0.1-0.1-0.3-0.1-0.4-0.1c-0.1,0-0.1,0-0.2,0
			c-4.4,0.7-8.7,1.8-12.9,3.2C501.2,276.7,535.2,291.7,549.2,314.7z M557.3,398.9c-3.9-14.9-8.3-30.7-14.3-46
			c-15.7-40.2-36.6-63.9-63.9-72.5c-0.1,0-0.2,0-0.3,0c-0.2,0-0.4,0-0.5,0.1c-2.6,1.5-5.2,3.3-7.7,5.1c10.8,6.2,41.4,25.4,54,51.2
			c10.6,21.7,25.4,50.5,34.5,69.3C558.5,403.8,557.9,401.4,557.3,398.9z M495.1,386.1c-8.2-15.5-16.2-32-23.6-49.1
			c-4.9-11.2-10.2-24.6-12.2-39.2c-0.1-0.4-0.3-0.7-0.7-0.9c-0.1,0-0.2,0-0.3,0c-0.3,0-0.6,0.1-0.8,0.3c-1.7,1.8-3.3,3.8-5,5.7
			c3.1,11.9,12.8,45.4,29.7,73.7c11.7,19.5,23.9,33.4,32.5,42C507.9,408.7,501.3,397.9,495.1,386.1z M482.8,425.5
			c-14.6-15.3-25.8-31.4-33.7-48c1,6.9,3.7,18.9,11.4,29.4c10.5,14.3,19.9,22.8,32.3,28.2C489.2,432,485.9,428.8,482.8,425.5z
			 M646,492.8c-7.1-19.9-20.3-33.1-38.2-38.2c-0.8-0.2-1.7,0.6-1.1,1.6c0.7,1.2,1.5,2.3,1.8,2.8c33,12.7,40.1,49.5,43.2,69.8
			C651.7,516,649.9,503.5,646,492.8z M602.8,453.6c-0.2-0.2-0.4-0.3-0.6-0.4c-2-0.4-4-0.6-6-0.8c12.5,11.3,21.4,33.2,30.2,61.2
			C623.2,489.8,615.3,469.7,602.8,453.6z M542,473.8c-0.4-0.1-0.9-0.1-1.3-0.2c-0.1,0-0.1,0-0.2,0c-0.3,0-0.6,0.1-0.8,0.4
			c-13.6,16-20,36.9-21,58.3C524.7,501.3,540.5,476.4,542,473.8z M537.6,568.3c-0.7-23.7,4.5-66.9,9.6-85.9
			c-7.7,18.7-11.6,39-11.5,59.1C535.8,551.9,536.4,560.5,537.6,568.3z M603.9,538c-1-29.7-5.8-53-15-72.7c0,0,7.4,21.8,11.1,60.5
			c2.1,15.1,1.9,57.8,1.9,57.8c0.2-2,0.3-3.8,0.5-5.6C603.8,563.2,604.3,550.2,603.9,538z"/>
		<path class="st10" d="M873.9,360.1c9-6.6,14.3-17.1,12.2-32.1c-2-14.7-16.1-27.5-30.6-29.1c-3.2-0.4-6.3-0.4-9.3-0.1
			c0.5-1.3,1-2.6,1.7-3.7c0.3-0.5-0.4-1.1-0.9-0.7c-1.6,1.5-3.4,3.1-4.8,4.9c-16.4,2.9-30.3,14.5-40.9,27.5
			c-3.3-5.2-7.2-10-11.6-14.3c1.2-1.1,2.4-2.2,3.6-3.3c0.3-0.3,0-0.9-0.4-0.7c-1.8,0.7-3.6,1.2-5.4,1.9c-5.1-4.7-10.9-8.7-17.3-12
			c7.1-8.5,13.5-18.5,18.8-28.2c2.2-0.5,4.3-1.4,6.3-2.6c0.4-0.2,0.2-0.9-0.2-0.9c-1.4,0-2.8,0-4.2,0c4.4-8.3,8-16.1,10.6-22.3
			c8.3-19.6,11.6-40.7,8.2-59.7c0.7-1.4,1.3-2.9,2.2-4.2c0.4-0.6-0.3-1.1-0.9-0.9c-0.7,0.3-1.4,0.7-2.1,1.1
			c-4.4-19.1-16-35.6-36.4-45.5c1.1-1.3,1.9-2.7,2.6-4.2c0.2-0.6-0.6-0.9-0.9-0.6c-1,0.8-2.1,1.5-3.2,2.1c-0.6,0.3-1.2,0.7-1.7,1.2
			c-1.5-0.7-3.1-1.3-4.8-1.9c-29-10.5-55.1,4.5-71.1,27c-0.9-1.3-1.9-2.5-2.9-3.7c-0.4-0.5-1.3-0.1-1.3,0.5c0.1,2.4,0.2,5,1.5,7.1
			c-4.4,6.9-7.8,14.3-10.2,21.8c-5.8,18.5-6.3,38.6-2.5,58c-1-0.3-2-0.5-2.9-0.8c-0.8-0.3-1.1,0.7-0.7,1.2c1.3,1.6,2.7,3.4,4.7,4.2
			c4.2,18.1,12,35.4,22.5,50.3c-9.9,3.7-18.7,8.5-26.6,14.3c-0.1-0.4-0.2-0.9-0.3-1.3c-0.5-1.6-0.2-3.4-0.5-5
			c-0.1-0.4-0.6-0.4-0.8-0.1c-0.7,1.4-0.9,3-1.3,4.5c-0.4,1.5-0.9,3-0.8,4.6c-11.5,9.1-20.9,20.2-28.5,32.6
			c-1.2-1.7-2.8-3.2-4.3-4.4c-0.3-0.3-1,0-0.8,0.5c0.9,2.4,1.6,5.2,3.2,7.2c-16.9,29.3-24.1,65.4-25.6,99.9
			c-3.5-1.4-7.3-2.5-11.3-3.3c0.2-2.6-0.5-5.3-0.7-8c0-0.8-1.2-0.8-1.2,0c-0.1,2.6-0.9,5-1.5,7.4c-2.6-0.4-5.2-0.6-7.9-0.7
			c1.5-3.3,2.8-6.5,4-9.5c5-12.7,8.3-26.3,9.9-40.1c2.9,0,5.8-0.3,8.5-1.4c0.3-0.1,0.4-0.6,0-0.7c-2.6-0.6-5.4-0.8-8.2-0.9
			c3.6-37.5-5.9-76.2-32-103.8c-0.7-0.7-1.4-1.4-2.1-2.1c1.6-1.4,2.8-3.2,3.2-5.3c0.1-0.5-0.4-0.9-0.9-0.7c-1.7,0.8-3.4,2-5,3.1
			c-0.1,0.1-0.1,0.1-0.2,0.2c-13.9-12.8-29.7-19.2-45.6-20.4c3.7-6.3,7-12.7,9.8-19.2c2.7-1.3,5.2-2.9,8-4.1
			c0.9-0.4,0.2-1.8-0.6-1.5c-1.9,0.5-3.9,1-5.8,1.6c7.7-19.6,11.4-40.3,11.9-61.3c1.4-0.9,2.7-1.9,3.8-3.2c1.5-1.6,2.8-3.5,4.3-5.1
			c0.4-0.4-0.2-1-0.6-0.6c-2.2,1.9-4.8,3.3-7.4,4.7c0-13.1-1.1-26.2-3.3-39.4c10.5,0,21.9-1.7,32.3-5.4c1.9,0.7,3.9,1.1,5.9,1.5
			c0.8,0.2,1.3-0.7,0.8-1.3c-0.6-0.8-1.4-1.4-2.3-1.9c11.6-5,21.5-12.8,26.8-24.2c10-21.4-3.2-42-25-46.1c-5.4-1-10.9-0.7-16.2,0.5
			c0,0,0-0.1,0-0.1c0.1-1.5,0.8-2.9,0.9-4.5c0-0.6-0.7-0.7-1-0.3c-0.9,1.3-1.7,2.7-2.7,4c-0.5,0.7-1,1.3-1.4,2
			c-12.9,4.2-24.9,13.7-34.2,24.2C523.5,74,517.5,63,510.2,53.1c0.1-0.2,0.2-0.3,0.3-0.6c0.4-1.6,0.9-3.1,1.3-4.6
			c0.5-1.6,1.1-3.7,0.9-5.4c-0.1-0.5-0.7-0.7-0.9-0.3c-1,1.5-1.6,3.1-2.7,4.5c-0.7,0.9-1.2,1.8-1.6,2.7
			c-11.2-13.9-25.4-24.7-43.2-27.2c0.1-2.1-0.9-4.4-1.9-5.9c-0.4-0.6-1.5-0.4-1.5,0.4c0,1.4,0.1,2.7-0.2,4.1
			c-0.1,0.4-0.1,0.7-0.2,1.1c-0.4,0-0.9-0.1-1.3-0.1c-31.1-1.3-48.3,21-56,47.7c-0.6-0.7-1.2-1.5-1.6-2.4c-0.4-0.8-1.4-0.2-1.3,0.6
			c0.3,2.1,0.6,4.1,1.9,5.8c-0.5,2.1-1,4.2-1.4,6.3c-5.7,28.8-2.1,59.6,4.5,88.6c-0.4,0-0.8,0-1.2,0c-1.6,0.1-3.3-0.1-4.9-0.1
			c-0.9,0-1.2,1.2-0.4,1.6c1.3,0.8,2.9,1.2,4.4,1.8c1,0.3,2,0.7,3.1,0.9c1.3,5.5,2.7,10.9,4.2,16.2c5.5,19.8,14,41.1,26.1,59.5
			c-2.4,0.1-4.8,0.2-7.2,0c-0.6-0.1-0.8,0.8-0.3,1.1c3.2,1.8,6.8,2.8,10.4,3.2c7.8,11.2,17,21.1,27.7,28.7
			c-9.5,6.8-18.1,15.3-25.2,25.2c-11.2-22.7-30.1-46.1-52-62.1c-0.2-1.1-0.4-2.1-0.7-3.1c-0.5-1.8-0.6-3.7-0.4-5.6
			c0.1-0.6-0.9-0.7-1.1-0.1c-0.4,1.7-0.7,3.4-1.1,5c-0.1,0.4-0.2,0.9-0.3,1.3c-11.4-7.8-23.7-13.5-36-16c-5.5-1.1-10.7-1.3-15.4-0.8
			c-0.7-1.7-1.7-3.4-2.8-4.8c-0.4-0.5-1.2-0.2-1.1,0.4c0.4,1.6,0.7,3.2,1,4.8c-16.8,3-28.2,15.7-34.8,31.4c-0.5-0.2-0.9-0.4-1.4-0.6
			c-1.3-0.6-2.6-1.3-4-1.9c-0.8-0.3-1.1,0.7-0.7,1.2c1.3,1.6,2.9,3.5,4.7,4.8c-4.4,12-6.2,25.4-5.6,37.5
			c0.9,19.1,9.6,33.4,22.2,43.9c-2,0.5-4,1.2-5.8,1.9c-0.4,0.1-0.6,0.9,0,1c3.4,0.5,6.9,0.3,10.4,0.6c15.6,11.2,35.8,17.4,55,20.2
			c5,0.7,10.2,1.1,15.5,1.2c-0.5,0.6-1,1.1-1.6,1.7c-0.4,0.4,0,1.1,0.5,0.9c1.3-0.4,4.3-1.2,5.9-2.6c10.3-0.2,20.7-1.6,30.5-4.5
			c-0.2,31.4,14.9,55.7,36.8,74.1c-2.2,0.8-4.1,2.1-6.3,3.6c-0.4,0.3-0.2,1,0.3,0.8c3-0.8,6.3-1.4,9.4-1.6
			c14.3,11.2,31.1,20,48.3,26.7c6.5,2.5,13.7,5,21.1,6.9c-3.9,5.1-7.2,10.7-10,16.5c-1.2-1.3-2.4-2.6-3.7-3.8
			c-0.7-0.7-1.9,0-1.6,0.9c0.7,2.5,2,4.9,3.5,7.1c-7.1,17.3-9.6,37-7.9,56.3c-2.9-0.4-6.2,0.5-8.9,0.6c-0.7,0-0.7,0.9-0.1,1.1
			c2.8,1,6.2,2,9.4,2.1c0.6,5.6,1.6,11.1,2.9,16.6c-18.4,3.4-76.5,16.2-72.4,36.6c-0.2,14.6-3,32.8,2.7,46.3
			c3.4,8,8.9,13.2,15.5,16.9c2.1,21.5,3.3,38.9,22.8,51.4c13.5,8.7,23.4,21.4,29,36.4c1.7,4.5,4.5,7.7,8.2,10.6
			c25.1,19.4,68.5,18.9,98.4,19.2c31.6,0.3,74.2,0,101.5-18.6c3.4-2.3,6.1-5.3,8.1-8.9c7.9-14.8,13.5-26.5,27.2-36.8
			c8.5-6.4,15.1-10,19.9-20c4.7-10,4.6-22.5,5.6-33.3c19.5-12.1,18.4-34.5,18.2-58.8c0-1.9,0-8.2-0.1-8.9
			c-1.5-13.6-24.9-20.6-34.7-23.8c-35.2-11.5-74.7-14-111.6-15.6c0.4-1.9,0.8-3.8,1.2-5.7c2.5-0.7,4.4-2.3,6.3-4.2
			c0.5-0.5,0-1.4-0.7-1.2c-1.6,0.5-3.3,0.9-4.9,1.4c1-6.5,1.6-13.1,1.8-19.7c1.9-0.9,3.9-2,5.4-3.4c0.7-0.6-0.1-1.5-0.8-1.4
			c-1.5,0.3-3.1,0.5-4.6,0.9c-0.1-10.6-1.3-21.1-4-30.8c31.3-1.1,67.5-9.7,97.9-26.5c2.9,0.9,5.9,0.8,8.9,1.4c0.7,0.1,0.9-0.8,0.3-1
			c-1.8-0.7-3.6-1.7-5.3-2.6c21.6-12.6,39.8-29.5,50.6-50.8c0.6-1.1,1.1-2.2,1.6-3.3c2.6-0.6,5.2-2.1,7.2-3.8c0.4-0.3,0-0.9-0.4-0.9
			c-1.7,0-3.4,0.3-5.1,0.6c5.9-15,7.6-31.5,5.3-47.4c5,1.9,10.5,3.2,16.1,3.9c1.4,1.9,3.2,3.6,5.2,4.8c0.3,0.2,0.7-0.1,0.6-0.5
			c-0.5-1.4-1.3-2.7-2.2-4c12.7,1.1,25.9-0.9,35.7-6.8c2.6,0.9,5.4,2,8.2,2.1c0.5,0,0.6-0.6,0.4-0.9
			C877.9,361.7,875.9,360.8,873.9,360.1z M806.8,392.9c-34.8,50-98.3,81.8-157.3,92.4c-0.8-1.9-1.7-3.8-2.7-5.6
			c15-3.6,29.9-13,42.9-20.4c17.1-9.8,33.2-21.1,48.9-33c26-19.6,52.9-40.5,67.3-70.4C808.6,367.9,808.9,380.6,806.8,392.9z
			 M631.4,598.5c-3-0.3-6.1-0.1-9,0.5c3.7-9.8,4.8-21.3,6.1-31.4c1.9-14.9,2.6-29.7,1.6-44.7c-1.6-24.1-8.6-47.7-22.5-67.3
			C661.7,471.3,659.4,557.6,631.4,598.5z M673.9,600.7c2.3-3.6,3.7-7.1,7.6-9.3c1.4-0.8,3.1-1.2,4.7-1.5c6.2,1.9,11.2,6.6,15.6,11.7
			c-5,2.8-9.6,6.8-13.8,11.7c-0.2-0.1-0.3-0.2-0.5-0.4c-10.3-7-23.1-2.2-34.7-5.8c6-9.6,12.5-16.6,24.8-18c1.2-0.1,2.3-0.2,3.3-0.1
			c-0.4,0.2-0.9,0.5-1.3,0.8c-3.6,2.3-6.4,6.4-6.2,10.8C673.5,600.9,673.8,601,673.9,600.7z M730.6,617c4.8,0,9.5-0.6,14.3-0.4
			c1.5,0.1,2.8,0.1,4.2,0.1c0.7,0,1.5,0,2.3,0c12.4,0.1,15-0.9,21.7,3.5c-18.5,5.7-46.2,9.5-69.8,11.8c-2.2-5.6-5.4-10.1-9.5-14
			c14-15.7,28.3-16,45.3-4.2c-3.1,0.5-6.1,1.4-8.5,2.8C730.3,616.7,730.4,617,730.6,617z M649.5,614.8c0.6,0.3,1.2,0.6,1.8,0.9
			c-7.2,0.5-14,0-21.3-0.8c-0.1,0-0.2,0.2-0.1,0.2c8.8,4.9,22.4,5.1,33.9,3.2c12.5,0.6,24.4-2.3,31.8,14.5
			c-17.9,1.6-32.3,2.3-36.5,2.5c-11.9,0.5-23.8,0.8-35.7,0.9c-5.1-8-10.9-13.2-20.6-14.6c-1.4-0.2-2.7-0.5-4-0.7
			c5.4-5.4,11.1-9.9,18.4-13C629.8,602.6,639.1,609.1,649.5,614.8z M500.7,611.6c1.4,0.1,2.8,0.1,4.2,0.2c4.7,0.2,9.6,0.8,14.2-0.5
			c0.3-0.1,0.2-0.5-0.1-0.6c-3.8-0.4-7.5-1-11.2-1.7c6.1-3.2,10.8-8.2,16.7-12.4c0.2-0.1,0.4-0.3,0.6-0.5c2.8,5.8,6,11.3,9.6,16.4
			c-8.7,3.7-16.4,9.6-20.9,16.5c-6.1-0.9-12.1-1.9-18.1-2.9c-3-0.6-9.9-1.9-17.4-4.1c2.2-4.1,5.2-8.1,9.6-9.6
			C491.8,611.2,496.5,612.4,500.7,611.6z M573.1,621.6c2,1.1,4.1,2,6.3,2.8c-5.9,1-11.8,2.5-17.9,2.7c-0.2,0-0.3,0.3-0.1,0.4
			c5.2,1.6,10.3,1.1,15.7,0.1c5.6-1,10.6-0.7,13.9-0.2c2.4,0.3,17.8,4.1,22.8,8.9c-30.7-0.1-61.5-1.9-91.8-6
			C533.5,616.2,557.7,612.7,573.1,621.6z M478.8,281.4c32.9,10.4,51.3,41.4,63.2,71.9c5.8,14.9,10.2,30.4,14.2,45.9
			c2.5,9.5,4.7,19,6.5,28.6c1.2,6.7,2,13.5,2.6,20.3c0.5,6,1.8,12.3,1,18.3c-1.4,0.6-2.9,1.1-4.5,1.5
			c-25.7-20.8-45.3-48.8-61.4-77.4c-8.4-14.9-15.4-30.6-22.7-46c-7.5-15.8-14.4-32.3-16.3-49.8C466.8,289.5,472.6,285,478.8,281.4z
			 M506.6,271.5c31.8,13.3,50.8,43.3,61.9,74.9c5.5,15.5,9,31.7,11.4,48c2.8,19,5.2,39.4,1.1,58.4c-3,4.6-6.5,8.7-10.7,11.6
			c0.6-8.7-1.3-18.2-2.3-26.6c-1.5-12-4.2-23.7-7.1-35.4c-4.5-17.7-9.5-35.2-16.1-52.2c-11.7-29.9-30.3-59.6-61.5-71.1
			C490.4,275.4,498.2,272.8,506.6,271.5z M458,28.1c8.6,9.9,13.8,23.3,18.4,35.3c7.8,20.2,13.5,41.3,18.2,62.4
			c10.2,45.1,16.5,93.2,10.5,139.4c-2.5,0.4-5.1,1-7.6,1.7c-13.5-30.8-22.5-63.8-30.3-96.3c-11.1-46.2-18.4-93.8-18.6-141.4
			C451.9,28.3,455,28,458,28.1z M590.3,618.9c-5.9-1.6-11.4-3.7-17.2-6c-17-42.8-10.9-93.2-6.1-138.2c7.6-2.3,13.5-8,18.1-14.9
			c12.7,23.9,16.9,51.4,17.8,78.2c0.4,13.3-0.3,26.6-1.5,39.9c-1,10.8-1.5,25.6-6.4,36.3C593.4,615.8,591.8,617.4,590.3,618.9z
			 M563.2,475.5c-4.7,44.3-10.3,93,5.3,135.5c-0.3-0.1-0.5-0.2-0.8-0.3c-4.9-2-10.4-2.6-15.9-2.3c-3.1-9.7-8.3-18.9-10.8-29
			c-3.1-12.4-4-25.2-4.1-38c-0.2-22.5,4.8-45.2,14.4-65.5C555.2,476.2,559.3,476.1,563.2,475.5z M804.3,350.6c0,0.1-0.1,0.1-0.1,0.1
			c-13.7,31.2-41.1,52.3-67.5,72.4c-13.9,10.6-28.3,20.6-43.3,29.7c-14.2,8.6-31.7,19.9-48.5,23.6c-0.1-0.1-0.2-0.3-0.3-0.4
			c21.1-34.4,44.1-67.8,71.7-97.4c20.3-21.8,46.4-45.8,77.1-50.3C798.3,335.1,801.9,342.7,804.3,350.6z M809.2,342
			c16.8-17.7,44.1-21.7,67.6-18.6c0.6,1.4,1.2,2.8,1.6,4.3c1.3,4.5,1.2,8.8,0,12.8c-20.4,8.6-46.6,13.3-67.8,5.4
			C810.2,344.6,809.7,343.3,809.2,342z M848.8,305.8c10.7-0.8,20.3,5,25.9,13.6c-23.5-2.5-50,1.8-67,18.9c-0.7-1.6-1.5-3.1-2.3-4.7
			C816,319.7,830.6,307.2,848.8,305.8z M791.1,325c-28.2,5-51.8,25.1-71.4,44.8c-30.2,30.3-54.8,66.4-77.2,102.8
			c-1.2-1.8-2.6-3.5-3.9-5.1c0.1-0.1,0.1-0.3,0.2-0.5c4.7-31.8,16.7-62.6,32.6-90.5c12.5-22,31.6-49.3,57.5-57.1
			c13.2,2.8,25.6-4.2,36.4-15.3C775.8,309.3,784.4,316.5,791.1,325z M790.2,157.8c15.7,16.9,15.8,39.4,11.7,60.6
			c-3.4,17.9-20.8,59.7-42.6,80.9c12.9-18.5,20.2-42.4,24.3-63.3c5.6-28.1,4.1-57-0.7-85.1C785.5,153.1,788,155.4,790.2,157.8z
			 M778.6,147.6c5.2,29,6.7,58.3,1.5,87.5c-4.5,25.1-14.7,55-33.3,73.6c-3.7,1.9-7.4,3.1-11.2,3.3c-4.8-30.2-1.7-60.9,3.5-90.8
			c4.8-27.9,8.1-56.7,17.7-83.5C764.6,139.4,772,142.9,778.6,147.6z M753.1,137c-9.9,27.7-13.2,57.8-18.2,86.7
			c-5,29.1-7.5,59-3,88.3c-2.6-0.3-5.2-1-7.9-2.3c-1.2-0.6-1.9-1.1-2.6-2.2c-7.3-10.8-9.7-23.9-11.6-36.6
			c-2.8-18.4-3.3-37.1-2.2-55.7c1.3-22.3,4.6-54.1,19.9-73.3c1.4-1.8,3.2-2.8,6.7-3.7C740.6,136.4,747,136.2,753.1,137z
			 M722.5,142.3c-12.7,18.3-16,45.2-18,65.7c-1.9,20.3-1.2,40.7,1.4,60.9c1.4,11,3.3,22.4,8,32.6
			C679.6,259.8,664.4,168.5,722.5,142.3z M622.5,453.2c2-60,21.7-127.6,83.6-149.5c1.7,2.1,3.4,4.1,5.1,6.1c4,3.6,7.9,6.1,11.7,7.8
			c-21.5,8.6-37.7,29.7-49.7,48.4c-18.7,29.2-32.3,63.7-37.8,98c-3.8-3.9-8.2-7.3-13.1-10.1C622.4,453.7,622.5,453.5,622.5,453.2z
			 M589.3,453.1c4.5,0,8.7,0.4,12.7,1.2c15.9,20.5,22.9,45.7,24.6,71.5c0.8,12.1,0.2,24.3-1.1,36.4c-1.3,12-2.4,26.8-7.6,38.1
			c-6.1,2-12,5.4-17.3,9.5c2.1-7.7,2.7-16.2,3.6-23.6c2.1-15.9,2.8-32,2.4-48c-0.6-28.1-5.5-57.1-19.3-81.8c0.6-1.1,1.2-2.1,1.8-3.2
			C589.2,453.1,589.2,453.1,589.3,453.1z M579.4,306.2c26.4,34.7,23.8,83.6,11.8,123.2c-1.3,4.2-2.9,8.8-4.9,13.4
			c1.5-15.5-0.4-31.3-2.4-46.6c-2.4-18.1-6.5-35.9-12.6-53.1c-10.6-30-29-57.9-57.6-72.3c1.4-0.1,2.8-0.1,4.3-0.1c0.3,0,0.6,0,0.8,0
			C543.2,271.3,564.9,287.2,579.4,306.2z M567.9,125.2c-10.5,3-33.7,5.8-43.3-1.9c13.4,1.3,27.8-3.3,39.9-7.7
			c13.5-4.9,27.3-11.5,38.4-20.9c-0.1,1-0.2,2-0.4,3C599.3,113.9,582,121.1,567.9,125.2z M603.1,89.4
			c-11.2,10.3-25.6,17.2-39.6,22.5c-12.7,4.8-28.5,9.8-42.3,7c-0.2-0.4-0.3-0.9-0.5-1.3c18.5-23.1,48.9-39.6,78.7-40.2
			C601.6,80.7,602.9,84.7,603.1,89.4z M557.5,71.1c13.9-7.6,30.2-6.2,39.1,2.8c-28.8,1.6-57.4,16.8-76.3,38.5
			c0.3-2.6,1.1-5.5,2.7-8.8C531.8,89.5,543.1,78.9,557.5,71.1z M523.1,90.7c-2.4,3.1-4.6,6.1-6.4,9.1c-10.1,21.3-0.2,34,20.2,36
			c0,0.2-0.1,0.4,0,0.6c7.6,44.5,3.1,88.9-21.1,127.6c-2.3,0.1-4.6,0.3-6.9,0.6c6-47.2-0.9-96.2-11.3-142.3
			c-4.9-21.6-11-43-19.1-63.6c-4-10.2-8.6-21.3-15.4-30.2C491.6,32.6,512.3,66.7,523.1,90.7z M445,30c0.3,47.7,7.8,95.1,18.7,141.4
			c7.7,32.6,17,65.6,30.4,96.4c-2.8,0.9-5.6,1.9-8.4,3.1c-25.8-28-40.2-67.4-50.1-103.4c-11.4-41.4-17-87.6-5.5-129.7
			c4.2-3.4,9.1-6,14.8-7.8C444.9,30,444.9,30,445,30z M405.4,104.8c0.3-21.2,4.8-46.5,19.6-62.2c-9.7,41.3-3.8,85.6,7,126
			c9.7,36.1,24.6,75.7,50.1,104c-2.9,1.4-5.7,2.9-8.5,4.6C422.6,243.5,404.5,161.7,405.4,104.8z M458.2,298.1
			c1.9,13.7,6.7,26.7,12.3,39.4c7.3,16.6,15.2,33.1,23.7,49.1c15.9,30,36.4,59.8,62.6,81.9c-2.8,0.1-5.6-0.1-8.4-0.4
			c-10.8-3.2-20.7-9.7-30-16c-12.3-8.2-23.5-17.9-33.8-28.5c-19.2-19.6-34.6-43.6-41.9-70.3c10.2-8.3,7.9-22.8,4.5-34.4
			c-0.6-1.5-1.2-3-1.8-4.5C449.3,308.5,453.5,303,458.2,298.1z M431,352c-14.5,1.9-30.7-3.6-44.4-7.7c-14.6-4.4-28.6-10.7-41.6-18.7
			c-18.6-11.4-41.6-28.9-46-51.6c1.3-5.8,3.3-11.2,5.9-16c10.2-7.2,24.1-3.9,35.2-0.6c12.4,3.6,23.9,9.8,34.8,16.8
			c27.6,17.8,49,43.8,64.5,72.5C437.1,348.9,434.2,350.6,431,352z M369.4,240.7c29.4,14.8,59.3,49.8,70.7,80.3
			c1.7,5.5,2.9,10.3,3,16.2c0.1,2.3-0.5,4.4-1.4,6.1c-16.3-29.8-38.8-55.4-67.6-74c-15.9-10.3-45.1-25.5-65.3-17.6
			C321.5,234.6,343.6,227.7,369.4,240.7z M355.3,355c-31.7-7.7-56.3-27.1-58-61.5c-0.2-3.7-0.1-7.2,0.2-10.7
			c7.7,20.1,28.4,34.6,45.5,45.9c13.8,9.2,29.9,15.2,45.7,20c9.5,2.9,19.9,6,30.1,7c-1.1,0.3-2.2,0.5-3.2,0.8
			C396,361.7,374.9,359.8,355.3,355z M430.2,360.1c0-0.1,0-0.1,0-0.2c3.2-1.3,6.4-2.7,9.4-4.3c7.7,26.9,23.3,50.5,42.5,70.7
			c9.7,10.2,20.6,19.2,32.1,27.4c5.4,3.8,11.1,7.7,17.2,11.1c-6.2-1.7-12.2-3.8-18-5.9C469.9,443.2,428.5,410.1,430.2,360.1z
			 M540.5,474.7c2.3,0.4,4.5,0.7,6.8,1c-9,19.6-13.7,41-14.1,62.6c-0.2,12,0.8,24.1,2.8,35.9c1.1,6.4,2.9,12.6,4.9,18.7
			c1.8,5.5,4.9,10.6,6.9,16c-2,0.3-4,0.7-6,1.2C515.1,573.3,509.8,510.9,540.5,474.7z M455,598c14.2-14.5,43-17.6,62.9-20.6
			c0.9,2.9,1.8,5.8,2.9,8.7c1.1,2.9,0.4,3.8-0.9,4.9c-3.2,2.3-6.1,4.9-9.1,7.5c-6.1,5.3-12.4,6-20.1,6.3
			c-9.3,0.4-15.7,7.1-19.5,15.1C457.5,615,445.4,607.7,455,598z M769.9,700.6c-1.1,2.1-2.4,4.1-4.1,6c-6,7-16.3,11.5-24.5,15.2
			c-17.8,8-36.6,13.2-55,19.2c-0.3,0.1-0.4,0.6,0,0.7c9.7,1.9,20.2-2.1,29.3-5c8.5-2.8,16.9-5.5,25.2-8.8
			c-6.2,6.4-11,13.9-14.8,21.9c-3,6.3-3.8,10-9.6,14c-24.6,16.8-63.9,16.2-92.3,16.5c-30.3,0.3-67.1-0.4-94.4-15.4
			c-12.5-6.9-16.1-25.2-25.3-36.1c14.6,6.6,30.9,12.6,46.5,13.1c0.6,0,0.6-0.7,0.1-0.9c-14.6-5.5-29.5-10-44-15.9
			c-4.2-1.7-8.5-3.6-12.7-5.6c-2.7-2.1-5.5-4-8.4-5.9c-14.4-9.2-15.2-24.7-16.5-39.9c3.9,1.5,8,2.7,12.2,3.8
			c48.4,13,102.3,13.2,152,12.7c44.7-0.4,92.3-2.3,135.6-14.5c2-0.6,3.9-1.2,5.6-1.9C774.1,683.1,773.5,692.5,769.9,700.6z
			 M792.2,646.5c-2.6,18.5-24.1,22.3-39.3,25.7c-38.7,8.7-79.8,10-119.3,10.7c-38.1,0.6-76.3-1.4-114.1-6.1
			c-19.5-2.4-46.1-4.4-61.5-18.1c-9.4-8.3-8.5-26.9-7.6-41.6c1,0.9,2.2,1.8,3.5,2.8c22.5,16,57.6,16.8,83.9,19.5
			c40.2,4.2,80.8,4.8,121.2,3.3c34.3-1.3,69.4-4,103-11.9c8.8-2.1,22.9-5.6,31.4-12.9C793.6,627.5,793.6,637.2,792.2,646.5z
			 M735.8,579c14,2.4,46.4,6.6,55.8,21.2c2.4,3.7,3.4,6.6,0,10.5c-1.7,2-4.5,3.8-8,5.5c-2,0.9-2.5,0.7-3.9-0.3
			c-5-3.7-11.2-8.9-18-8.1c-7.7,0.9-14.9,2.4-22.5-3c-3.2-2.3-6-4.8-9.9-6c-7.4-2.2-14.2-2.1-20.4-0.2
			c-9.4-11.4-19.4-18.2-34.6-16.4c-13.4,1.5-21.5,11.1-28.1,21.8c-2.3-1.6-4.6-2.8-6.9-3.6c5.6-8.7,10.1-19,13.4-30
			C680.4,571.6,708.2,574.3,735.8,579z M651.9,491.4c-0.3-0.9-0.6-1.8-0.9-2.7c57-10.3,117.6-40.2,153.8-86.7
			c-2.1,7.5-5,14.9-8.9,21.7C769.9,468.8,700.2,490.4,651.9,491.4z M813.6,355.8c-0.4-1.9-0.9-3.7-1.5-5.5
			c20.4,6.6,44.6,2.6,64.5-5.1c-2.7,5.1-7.1,9.5-12.3,12.5C849.1,366.3,828.5,363.3,813.6,355.8z"/>
		<path class="st10" d="M549.7,339.9c1.9-1.4,2.1-3.4,2.9-5.4c0.2-0.6-0.7-1.1-1.1-0.6c-1.2,1.4-3,2.2-3.9,3.9
			C546.9,339,548.4,340.9,549.7,339.9z"/>
		<path class="st10" d="M514.7,349.8c-0.2-2.2-1.1-4.1-2.3-5.9c-0.3-0.5-1.1-0.3-1.1,0.3c-0.1,1.9-0.4,3.7-0.4,5.6
			C510.9,352.2,514.9,352.2,514.7,349.8z"/>
		<path class="st10" d="M433.7,98.9c0.7,1.4,2,2.6,3.1,3.7c1.3,1.3,2.8,3,4.6,3.4c1.1,0.2,2.5-0.8,2-2c-0.7-1.7-2.1-2.4-3.6-3.3
			c-0.9-0.5-1.9-0.7-2.8-1.2c-0.9-0.4-1.7-1-2.6-1.3C433.9,98,433.5,98.4,433.7,98.9z"/>
		<path class="st10" d="M473.3,108.3c0.5-2.5,0.2-5.7-0.8-8c-0.1-0.3-0.7-0.2-0.7,0.1c-0.2,1.1-0.2,2.1-0.4,3.2
			c-0.2,1.3-0.7,2.6-1,3.9C469.8,109.4,472.8,110.3,473.3,108.3z"/>
		<path class="st10" d="M486.8,179.5c1.2-1.9,2.2-4.3,2.3-6.6c0-0.5-0.8-0.9-1.1-0.5c-1.4,1.8-3.3,3.2-4.7,5
			C481.7,179.5,485.4,181.9,486.8,179.5z"/>
		<path class="st10" d="M387.4,312.6c-0.4-0.5-1.3-0.1-1.2,0.5c0,1.8,0.4,3.3,1.3,4.8c1.2,1.9,3.8,0.3,2.9-1.7
			C389.7,314.6,388.4,313.8,387.4,312.6z"/>
		<path class="st10" d="M341.9,291.2c-1.9-0.7-3.9-0.7-6-0.8c-0.7,0-0.8,0.9-0.3,1.2c1.6,1.2,3.5,1.9,5.5,2.5
			C343,294.8,343.7,291.9,341.9,291.2z"/>
		<path class="st10" d="M375.2,258.1c-0.5-1.5-1.7-2.6-2.7-3.7c-0.3-0.3-1-0.1-0.9,0.4c0.1,1.4,0.4,3.2,1.3,4.4
			C373.6,260.3,375.7,259.6,375.2,258.1z"/>
		<path class="st10" d="M539.8,422.8c0.7-0.2,1.2-0.8,1.2-1.5c0-2.6-3.5-2.6-5.3-3c-1-0.2-1.7,0.9-1,1.7
			C535.8,421.2,537.9,423.2,539.8,422.8z"/>
		<path class="st10" d="M488.4,323.9c1.8,1.4,3.8-1.2,1.9-2.5c-1.4-0.9-3.1-1.2-4.7-1.2c-0.8,0-0.9,1-0.4,1.4
			C486.3,322.4,487.4,323.1,488.4,323.9z"/>
		<path class="st10" d="M591,373.4c1.5-1.9,0.2-4.1-0.6-6.1c-0.2-0.6-1-0.5-1.1,0.1c-0.1,1.8-0.8,3.7-0.4,5.4
			C589.3,373.7,590.5,374.1,591,373.4z"/>
		<path class="st10" d="M477.1,385.7c1.8,0.6,3-2.3,1.3-3.1c-2.3-1.1-5-1.2-7.5-0.6c-0.5,0.1-0.4,0.7-0.1,0.9
			C472.6,384.2,475,385,477.1,385.7z"/>
		<path class="st10" d="M518.7,290.1c-0.7-1.4-1.8-2-2.8-3.2c-0.3-0.4-1-0.3-0.9,0.3c0.1,1.5,0,2.9,0.5,4.3
			C516.2,293.9,519.8,292.5,518.7,290.1z"/>
		<path class="st10" d="M671.9,355.6c0.4-2.7-0.7-4.8-1.7-7.3c-0.1-0.3-0.7-0.4-0.8,0c-0.3,2.1-0.4,4.3-0.8,6.4
			C668.2,356.9,671.6,357.7,671.9,355.6z"/>
		<path class="st10" d="M747.6,390.9c1-0.5,1.7-1.1,2.5-1.9c0.9-0.9,2.2-1.3,3.1-2.1c0.3-0.3,0-0.8-0.3-0.8c-1,0-1.8,0.2-2.8,0.4
			c-1.4,0.3-2.7,0.2-4,0.7C743.4,388.3,745,392.2,747.6,390.9z"/>
		<path class="st10" d="M771.8,364.6c1.9-1.2,3.5-2.9,4.8-4.7c0.3-0.4-0.3-0.9-0.7-0.7c-1.9,0.9-3.8,1.8-5.6,2.9
			C768.7,362.9,770.2,365.6,771.8,364.6z"/>
		<path class="st10" d="M678.4,398.9c-0.5,1-1.3,1.2-2,1.9c-0.6,0.5-1,1.1-1.5,1.8c-1.4,1.8,1.9,3.9,3.1,1.8c0.4-0.7,0.7-1.3,1-2.1
			c0.3-1,0-2.1,0.2-3.1C679.3,398.8,678.6,398.4,678.4,398.9z"/>
		<path class="st10" d="M719.8,343c-1.4,1.1-2.9,2.5-3.8,4c-0.9,1.6,1.4,2.8,2.4,1.4c1.1-1.4,1.6-3.3,2-5
			C720.5,343.2,720.1,342.8,719.8,343z"/>
		<path class="st10" d="M752.7,245.4c-1.8,1.4-4.4,1.9-5.2,4.4c-0.3,1.1,0.8,2.1,1.8,1.8c2.5-0.7,3.4-3.5,4.3-5.7
			C753.8,245.3,753,245.1,752.7,245.4z"/>
		<path class="st10" d="M767.2,200.8c3.2-4.1,2.7-7,0-4.6c-0.9,0.8-1.8,1.7-2.6,2.6C763,200.6,765.7,202.7,767.2,200.8z"/>
		<path class="st10" d="M724.4,194.9c-0.3-0.6-1.5-0.5-1.6,0.2c-0.3,1.7-0.3,3.6,0.2,5.3c0.7,1.9,3.6,1.1,3-0.8
			C725.7,198,725.1,196.4,724.4,194.9z"/>
		<path class="st10" d="M522.2,212.9c0.1,1.2,1.4,1.8,2.3,1c1.1-1.1,1.4-2.8,1.4-4.3c0-1.7-0.1-3.5-0.4-5.1c-0.1-0.6-1-0.5-1.1,0
			c-0.4,1.4-0.6,2.8-1.1,4.1C522.8,209.9,522.1,211.5,522.2,212.9z"/>
		<path class="st10" d="M524.1,158.2c0.6-2.7,0-5.5,0-8.3c0-0.5-0.7-0.6-0.9-0.1c-0.9,2.6-1.6,5.3-2,8
			C521,159.5,523.7,159.8,524.1,158.2z"/>
		<path class="st10" d="M501.6,81.9c0.8-2.5,0.6-4.8,0-7c-0.7-2.7-2-2.6-2.3,0.2c-0.2,2-0.5,4.1-0.9,6C498,83.1,500.9,84,501.6,81.9
			z"/>
		<path class="st10" d="M449.2,166.8c1.6,1.2,3.2-1.5,1.6-2.7c-2.2-1.6-4.4-3.4-6.5-5.1c-0.4-0.4-0.9,0.2-0.6,0.6
			C445.7,162,446.6,164.8,449.2,166.8z"/>
		<path class="st10" d="M745.3,438.7c-1.5-0.6-3.5-0.6-5.2-0.5c-1.6,0.1-3.6,0.2-4.7,1.4c-0.6,0.6-0.5,1.8,0.3,2.2
			c1.6,0.8,3.3,0.2,4.9-0.4c1.6-0.6,3.3-1.1,4.8-1.8C745.8,439.4,745.6,438.8,745.3,438.7z"/>
		<path class="st10" d="M589.7,543.1c-0.8,3.4-1,7.4-3.1,10.4c-1.4,2.1,1.9,3.9,3.3,1.9c2.5-3.4,1.7-8.5,0.9-12.3
			C590.6,542.6,589.8,542.6,589.7,543.1z"/>
		<path class="st10" d="M576.8,512.9c-0.3-0.4-1-0.4-1.1,0.1c-0.5,2.2-0.9,4.9-0.7,7.1c0.3,3.3,5.2,2.4,4.3-0.6
			C578.7,517.4,578.1,514.7,576.8,512.9z"/>
		<path class="st10" d="M612.9,511.3c0.5-1.5,0.6-2.9,0.6-4.6c0-0.5-0.7-0.9-1-0.4c-1.1,1.3-1.8,2.6-2.4,4.2
			C609.4,512.2,612.3,513.1,612.9,511.3z"/>
		<path class="st10" d="M640.5,506c-0.1-0.3-0.5-0.2-0.7,0c-0.6,0.9-1.2,1.7-1.9,2.4c-1.4,1.5,1.1,3.4,2.2,1.7
			C640.9,508.9,641.1,507.4,640.5,506z"/>
		<path class="st10" d="M585.4,586.6c-1.5,0.4-3.1,1.5-4,2.8c-1.6,2.3,2.6,4.6,3.7,2.1c0.6-1.3,1.2-2.9,1.1-4.3
			C586.2,586.8,585.8,586.5,585.4,586.6z"/>
		<path class="st10" d="M547.8,548.8c-0.9-1.7-2-3.2-2.9-5c-0.3-0.5-1.1-0.3-1.1,0.3c0.1,2.3,0,4.3,0.9,6.4
			C545.6,552.7,548.8,550.9,547.8,548.8z"/>
		<path class="st10" d="M584.9,488.2c0.1,0,0.1,0,0.2,0c0.5-0.1,1-0.6,1.1-1.1c0.4-1.8,0-3.3-0.5-5c-0.2-0.6-0.9-0.5-1.1,0
			c-0.5,1.4-1.2,2.7-1.5,4.1c-0.1,0.5,0,1.2,0.4,1.6C583.9,488.1,584.3,488.3,584.9,488.2z"/>
		<path class="st10" d="M525.9,390.2c-0.2-1.1-0.8-1.8-1.5-2.6c-0.2-0.3-0.7-0.4-0.9,0c-0.5,0.9-0.6,2-0.6,3
			C523.1,392.7,526.2,392.3,525.9,390.2z"/>
		<path class="st10" d="M579.2,327.6c0.5-1.6,0.3-3.6-0.3-5.1c-0.1-0.4-0.6-0.3-0.7,0c-0.6,1.5-1.1,2.9-1.6,4.4
			C576,328.5,578.7,329.3,579.2,327.6z"/>
		<path class="st10" d="M366.9,321.3c-1.4-0.6-2.6-0.7-4.1-0.6c-1.4,0.1-3.2,0-4.6,0.4c-0.4,0.1-0.5,0.6-0.2,0.8
			c0.9,0.9,2.8,1.3,4,1.5c1.7,0.3,3.4,0.7,4.9-0.3C367.5,322.8,367.7,321.7,366.9,321.3z"/>
		<path class="st10" d="M347.3,340c-2-1-3.9-0.7-6-1c-0.5-0.1-0.8,0.6-0.6,1c1.2,1.8,3,2.9,5.2,3.2
			C347.7,343.5,349.2,340.9,347.3,340z"/>
		<path class="st10" d="M414.1,296.3c0.3,0.5,0.9,0.7,1.1,0.9c0,0,0,0,0,0c0,0,0,0,0,0c0,0,0,0,0,0c0,0,0,0,0,0
			c0.1,0,0.1,0.1,0.2,0.1c0.2,0.1,0.5,0,0.6-0.2c2.2-2.4-1.5-6.6-3.1-8.5c-0.4-0.5-1.3-0.1-1.2,0.5c0.1,1.6,0.7,3.1,1.2,4.6
			C413.2,294.7,413.6,295.6,414.1,296.3z"/>
		<path class="st10" d="M414.4,332.5c-2.3-0.8-4.7-0.9-7-0.2c-0.4,0.1-0.4,0.7,0,0.9c2,0.7,3.8,1.6,5.8,2.4
			C415.3,336.5,416.6,333.3,414.4,332.5z"/>
		<path class="st10" d="M438.9,212.3c-1.1-1-2.2-2.1-3.2-3.2c-0.5-0.5-1.5,0-1.2,0.7c0.6,1.3,1.4,2.6,1.9,4c0.4,1.2,1.5,3,2.8,3.3
			c0.9,0.2,1.7-0.4,1.8-1.3C441.1,214.6,439.8,213.1,438.9,212.3z"/>
		<path class="st10" d="M493.9,225.7c1-2.3,0.8-4,0.5-6.4c-0.1-0.5-0.9-0.8-1.1-0.1c-0.3,1.7-1.5,3.4-2.2,4.9
			C490.3,226,493.1,227.6,493.9,225.7z"/>
		<path class="st10" d="M459.5,62c0.3,1.1,2.1,1.5,2.7,0.4c1-2.1-0.3-5-1.7-6.6c-0.2-0.3-0.7,0-0.7,0.3c0,1.1,0,2-0.3,3.1
			C459.3,60.1,459.2,61.1,459.5,62z"/>
		<path class="st10" d="M551.2,104.3c-0.9,0.4-1.9,0.7-2.6,1.5c-1.9,2.5,2.5,3.9,2.8,1.6c0.1-0.9,0.1-1.6,0.4-2.5
			C552,104.6,551.6,104.2,551.2,104.3z"/>
		<path class="st10" d="M582.2,95.5c-1.1-0.1-2.2,0-3.2,0.3c-2,0.6-1.1,3.8,0.8,3.1c1.3-0.5,2.3-1.2,2.9-2.4
			C582.9,96,582.7,95.6,582.2,95.5z"/>
		<path class="st10" d="M686.7,441.7c-2.3,0.2-4.7,0.7-7,1.3c-2.2,0.6-1.2,4.2,1,3.5c2.3-0.8,4.5-2.2,6.4-3.8
			C687.5,442.3,687.2,441.6,686.7,441.7z"/>
		<path class="st10" d="M838.9,341.7c0.9-0.8,1.9-1.5,2.6-2.5c0.9-1.1,1.6-2.3,2.4-3.5c0.3-0.4-0.3-0.9-0.7-0.7
			c-1.1,0.7-2.4,1.1-3.6,1.6c-1.2,0.5-2.3,1.5-3.3,2.5C834.6,340.8,837.2,343.4,838.9,341.7z"/>
		<path class="st10" d="M842.2,317.1c1.5-0.8,2.7-1.4,3.9-2.7c0.4-0.5,0.1-1.1-0.5-1.2c-1.9-0.1-3.4,0.1-5,1.2
			C839,315.6,840.4,318,842.2,317.1z"/>
		<path class="st10" d="M747.2,282.3c-1.4,0.7-2.8,1.8-3.8,3c-0.4,0.5-0.6,1.2-0.2,1.8c0.1,0.2,0.2,0.4,0.4,0.5c0,0,0.1,0,0.1,0
			c0.5,0.3,1.3,0.3,1.8-0.2c1.1-1.3,1.9-2.7,2.6-4.2C748.2,282.5,747.7,282,747.2,282.3z"/>
		<path class="st10" d="M733.5,160.3c0.4,2.2,0.4,4.5,0.5,6.8c0,1.9,2.9,1.9,2.9,0c0-2.7-0.9-5-2.3-7.2
			C734.2,159.3,733.4,159.7,733.5,160.3z"/>
		<path class="st10" d="M716.1,244.8c0.4,3,0.8,6.1,1.6,9.1c0.3,1.2,2.2,1,2.2-0.3c-0.2-3.2-1.8-6.1-3.1-9
			C716.7,244.3,716.1,244.4,716.1,244.8z"/>
		<path class="st10" d="M690,207.4c-0.1,2.8-0.2,5.9,0.8,8.6c0.6,1.7,3.3,1.5,3.2-0.4c-0.1-3-1.7-5.6-2.8-8.4
			C690.9,206.6,690,206.6,690,207.4z"/>
		<path class="st10" d="M772.3,177.5c1.5-2.9,2.5-6.7,0.6-9.7c-0.2-0.4-0.8-0.2-0.8,0.2c-0.1,2.9-1,5.5-2.1,8.1
			C769.2,177.7,771.4,179.1,772.3,177.5z"/>
		<path class="st10" d="M555,741.4c-0.4,0-0.5,0.5-0.2,0.7c1.9,0.9,4.1,1,6.2,0.7c0.3-0.1,0.4-0.6,0.1-0.8
			C559.2,741.2,557,741.6,555,741.4z"/>
	</g>
</g>
</svg>
