<?xml version="1.0" encoding="utf-8"?>
<!-- Generator: Adobe Illustrator 25.2.0, SVG Export Plug-In . SVG Version: 6.00 Build 0)  -->
<svg version="1.1" id="e37c00f5-ff96-45aa-87ea-1a24b78ba7bd"
	 xmlns="http://www.w3.org/2000/svg" xmlns:xlink="http://www.w3.org/1999/xlink" x="0px" y="0px" viewBox="0 0 1176.6 803.7"
	 style="enable-background:new 0 0 1176.6 803.7;" xml:space="preserve">
<style type="text/css">
	.st0{fill:#68182B;}
	.st1{fill:#FF821D;}
	.st2{fill:#B4D345;}
	.st3{fill:#91DEFF;}
	.st4{fill:#67D8EB;}
	.st5{fill:#00FF8B;}
	.st6{fill:#C0FFA8;}
	.st7{fill:#50A76E;}
	.st8{fill:#F26200;}
	.st9{fill:#FDC435;}
	.st10{fill:#D1FFFF;}
	.st11{fill:#DAE638;}
	.st12{fill:#AEAE38;}
</style>
<g>
	<g>
		<path class="st0" d="M848.6,144c2.2-3.4,2.5-7.8,2.4-11.8c0-0.3-0.5-0.4-0.6-0.1c-0.8,3.1-1.7,6.1-2.7,9.2
			c-8.1-20.8-22.2-39.3-41.1-54c1.7-3.6,3.7-6.8,4.6-10.9c0.9-4.3,0.5-8.9-1.1-13c-3.2-8.2-11.5-12-19.9-11.4
			c-6.3,0.7-14.8,2.6-19.4-3.7c-3-4.2-2.5-11.1-6.7-14.6c-4.4-3.7-9.5-5.3-15-2.3c-3.4,1.8-6.2,3.9-9.2,6.5
			c-7.9,6.7-12.8,3.8-20.3,7.7c-8.1,4.2-11.7,10-13.2,18.5c-9.3,2.7-17.9,6.9-25,13.3c-2.5-4.7-5.3-9.1-8.5-13.1c0,0,0,0,0,0
			c0.8-1.7,1-3.2,0.9-5.1c0-0.3-0.5-0.5-0.6-0.2c-0.6,1.2-1.2,2.4-1.8,3.7c-3.4-4.1-7.2-7.9-11.3-11.3c0.1-3.9-1.3-8.6-3.7-11.3
			c-0.3-0.4-0.8,0-0.8,0.5c0.4,2.4,1,4.7,1.3,7.1c0.1,0.5,0.2,1,0.3,1.5c-27-20.8-65.3-27.8-98.1-24.8c-4.7,0.4-9.3,1.1-13.9,2
			c0.1-1.8-0.5-3.7-1.5-5c-0.3-0.3-0.7,0-0.7,0.3c-0.2,1.4-0.3,2.8-0.4,4.3c0,0.3-0.1,0.6-0.1,0.9c-12.5,2.6-24.2,6.7-35,12.3
			c-3.4-10.8-8-27.8-22-23.3c-10.5,3.4-20.5,7.3-31.2,10.1c-8.5,2.2-19.2,5.1-24.6,12.8c-4.3,6.1-5.4,12-5.6,19.4
			c-0.4,13.6,0.1,25.6-1.7,39.3c-2.3,17.3,3.9,25.1,18.8,26.9c-1.1,4.7-2,9.4-2.6,14.1c-11.4-1.6-22.2-0.1-32,3.8
			c-1-2.1-2.9-4.1-4.4-5.3c-0.3-0.2-0.7,0-0.6,0.3c0.4,1.7,1,4.2,2.1,6.2c-7.9,3.6-15.2,8.8-21.7,15c-6.1-7.4-14.9-11.3-24.4-8.8
			c-3.8,1-8.6,3.9-9.5,8.1c-1.1,5.2,2,10.1,0.8,15c-2.8,5.5-8.8,7.2-14.1,9.7c-4.8,2.2-8.3,5.7-11.4,9.9c-7.3,9.8,5.3,17.9,6.5,26.9
			c-0.2,5-3.5,9.4-4.8,14.3c-1.2,4.6,0.6,9.2,2.8,13.1c5.1,9.2,15.5,13,25.5,13.6c2.8,11.2,7.3,22.3,13,32.5c-2,0.3-3.9,1-5.4,1.4
			c-0.4,0.1-0.4,0.8,0.1,0.8c2,0,3.9,0.3,5.9,0.4c0.3,0,0.6,0,0.9,0.1c0.6,1,1.2,1.9,1.8,2.9c-0.4,0.2-0.8,0.3-1.1,0.4
			c-1.3,0.5-2.8,0.8-4.1,1.3c-0.3,0.1-0.3,0.5,0,0.6c2,0.7,4.3,0.2,6.1-1c10,15.8,23,29.1,37.9,36.8c0,0,0,0,0,0
			c-4.8,11.8-6.2,24.9-4.8,39.4c-2.2,0.4-4.3,1.2-6.1,2.1c-0.3,0.1-0.2,0.6,0.1,0.7c1.9,0.4,4.2,0.6,6.4,0.5c0,0.3,0.1,0.7,0.1,1
			c1.1,8.4,2.9,16.6,5.2,24.5c-0.2-0.1-0.4-0.2-0.5-0.3c-1.4-0.8-2.7-1.7-4.1-2.5c-0.3-0.1-0.7,0.1-0.6,0.4c0.7,2.2,3.4,4.3,6,4.7
			c5.3,17.2,13.4,33.1,23.5,47.7c-25.6,14.1-33.5,38.4-16.7,56.6c-35.3,64.5-0.7,137.5,31.5,196c14.4,26,32.2,50.6,59.1,64.5
			c26.3,13.6,57.7,17,86.8,16.8c27-0.2,54.3-5.2,79.1-15.8c28.6-12.3,46.6-39.4,61.5-65.4c32.9-57.5,66.2-131.6,31.9-195.3
			c7.1-7.1,11.6-17.3,9.6-27.3c-3.9-19.2-21.2-28.4-38.1-35c6.6-13.5,12.4-27.4,17.1-41.8c1-0.3,1.9-0.7,2.8-1.1
			c2.2-0.9,4.2-2.2,5.2-4.4c0.1-0.3-0.1-0.8-0.5-0.6c-1.8,0.7-3.6,1.7-5.3,2.7c-0.4,0.2-0.8,0.4-1.3,0.6c8.4-26,16.8-57.3,9.9-84.8
			c0.1,0,0.2,0,0.3-0.1c17.8-9.1,33.4-21.5,46.4-36.1c2.4-0.4,4.8-1.8,6.5-3c0.3-0.2,0.1-0.7-0.2-0.6c-1.3,0.4-2.7,0.7-4,1.1
			c17.3-20.1,29.9-44.4,36.5-70.5C857.7,187.8,856.2,164.9,848.6,144z"/>
		<g>
			<path class="st1" d="M473.7,28.6c7.4,5.5,10.8,17.8,8.3,27.7c5.8-5.1,12-9.5,18.6-13.5c-1.7-5.5-3.1-12.5-6.2-16.7
				C489.8,19.9,479.8,26.3,473.7,28.6z"/>
			<path class="st1" d="M434.3,45.6c-3.1,6.8-2.8,14.4-2,21.9c1.9,8.8,4.1,19.8,14.8,18.5c5.6-0.7,10-3.6,14.4-6.4
				c5.1-7.4,10.9-14.1,17.2-20.1c1.3-6.2,2.2-12.6,0-18.8c-2.1-6-5.7-9-10.3-10.5C456.6,32.9,439.1,34.8,434.3,45.6z"/>
			<path class="st1" d="M790.3,59.7c-11.1,1.3-23.7,1.3-27.8-11.3c-6.4-19.5-16.2-2.3-24.7,0.7c-8.2,2.9-15.9,3.5-20.4,8.9
				c-4,4.8-4.3,13.4-0.6,18.8c7.2,10.5,25.4,7.1,34,19.1c4.7,6.7,8.7,20.8,20,15.3c7.9-3.8,12.1-2.1,18.7-0.6
				c5.2,1.2,10.6,1.5,10.1-4.8c-0.5-6.2-2.7-12.1-1.3-18.3c2.3-6.3,7.6-12,5.5-19.3C801.8,61.7,796.8,59.2,790.3,59.7z M786.3,73
				c-5.3-0.6-8.6-0.1-9.8-0.1c0.4,0.6,0.7,1.2,1,1.9c1.9,4.4,0.6,8.9-2.8,11.2c5.2,2,9.9,5.2,10.8,10.1c0.1,0.3-0.3,0.5-0.5,0.3
				c-3.4-2.8-6.6-5.4-10.6-7.1c-1.4-0.6-4.9-1.6-5.2-1.6c-6.8-0.1-13.7-3.1-18.1-8.3c-3.4-4-3.8-7.6-3.8-8.7c-0.5-0.5-1-1.1-1.5-1.6
				c-2.3-2.2-4.8-4.4-7.4-6.2c-0.3-0.2-0.2-0.7,0.2-0.7c3.3,0.4,7,2.3,9.7,4.9c1.9-3.1,6.2-4.7,10.7-4.4c6.1,0.5,12.4,3.5,16.3,8.4
				c3.6-1.2,8.1-0.9,11.2,1.2C786.7,72.4,786.7,72.9,786.3,73z"/>
			<path class="st1" d="M578.2,297.6c-2.9-3.2-3.7-8.3-4.8-12.3c-4-15-18.6-8.6-27.2-3.9c-13.2,7.1-32.6-5.7-37.3,15.4
				c-0.8,5-1,12-4.5,16c-5.5,6.3-17.5,12.1-16.5,21.8c1.9,17.6,22.5,18.6,25.7,34.9c3.7,18.8,16.7,30.8,35,18
				c1.3-0.9,11.4-9.8,14.9-10.5c7.9-1.5,13.3,1,21.2,0.8c17.4-0.6,16.1-16.9,11.5-28.7c-4.2-10.9,6.1-15.4,9.7-23.5
				C614.4,306.1,586.1,306.5,578.2,297.6z M588.9,318.3c-3.4,1.4-7.1,2.2-10.5,3.6c-2.1,0.8-4.3,1.9-5.7,3.7
				c-0.1,0.2-0.3,0.4-0.4,0.6c0.4,2.7,0.1,5.4-0.6,8c1,0.3,1.8,0.7,2.4,0.9c2.3,0.8,4.9,2,5.7,4.5c0.1,0.4-0.3,0.8-0.6,0.6
				c-1.5-0.6-2.8-1.6-4.4-2.1c-1.4-0.4-2.8-0.7-4.2-1c-1.3,2.7-3.2,5.2-5.9,7.2c-0.2,0.1-0.4,0.2-0.5,0.3c1,2.4,1.5,5.2,1.7,7.2
				c0.6,4.2,0.6,9.6-2.3,13c-0.1,0.1-0.4,0.1-0.4-0.1c-0.6-4.4,0.6-9-0.7-13.4c-0.5-1.5-1.3-3-2.1-4.5c-7.5,3.3-16,1.7-22.2-3.9
				c-2.7,1-5.3,2-7.8,3.7c-2.8,2-5.7,4.8-9.2,5.3c-0.2,0-0.3-0.3-0.2-0.4c1.9-3.7,6.6-6.7,10.1-8.8c1.5-0.9,3.1-1.8,4.7-2.4
				c0,0-0.1-0.1-0.1-0.1c-8.3-11.4-1.3-23.5,8.9-28.6c-1.1-2.4-2.4-4.9-4.1-6.9c-1.9-2.2-4.1-4-6.3-5.9c-0.2-0.1,0-0.4,0.2-0.3
				c6.2,1.2,10.1,6.5,12.8,12c0.8-0.3,1.7-0.6,2.5-0.8c0-3.3-0.9-6.4-1.7-9.5c-0.1-0.3,0.3-0.5,0.5-0.3c2.4,2,3.4,6.1,3.4,9.4
				c6.7-0.9,13.5,1.4,17.9,8.7c0.9,1.4,1.5,2.9,2,4.3c1.3-1,2.7-1.8,3.8-2.2c4.5-1.9,8.9-2.2,13.7-2.4
				C589.1,317.8,589.1,318.2,588.9,318.3z"/>
			<path class="st1" d="M348.2,213c-1.6,1.2-3.2,2.4-4.7,3.8c-2.4,2.2-4.6,4.5-6.8,6.9c-1.9,5.4-5.6,11.2-3.6,16
				c2.8,6.9,8.5,10.6,15.2,12.1c2.6,0.6,3.3,0.2,2.7-3.5c-1.5-10-1.7-19.9-0.3-29.1c0.2-1.4,0.5-2.7,0.7-4.1
				C352,212.4,352.5,209.9,348.2,213z"/>
			<path class="st1" d="M443.4,116.6c0.4-1.3,0.8-2.7,1.3-4c3.3-9.4,7.4-18.1,12.2-26.1c-5.3,2.2-11,3-15.8,1.4
				c-3.3-1.1-5.9-3.9-7.7-7.3c0,0.1,0,0.2,0,0.3C434,95.1,423.2,114.3,443.4,116.6z"/>
			<path class="st1" d="M333.9,208.2c1.3,2.3,2.3,4.5,2.9,6.9c0.7,2.5,0,4.9,2.7,2.1c0.7-0.8,1.5-1.5,2.3-2.2
				c2.8-2.5,7.3-7.1,11.4-7.6c1.2-4.4,2.7-8.7,4.5-13c0.6-4.6,0.7-9-0.2-13.9c-0.6-3.3-1.5-4.3-3.1-1.9c-5.2,7.5-15.1,7.6-21.4,14.2
				C326.8,199.3,330.3,202.1,333.9,208.2z"/>
			<path class="st1" d="M356.7,167.5c0.2,1,1.6,6.5,2.2,8.4c1.1,3.6,1.9,7.5,2.2,11.2c3.6-7.2,8-14,13-20.2c1.7-2.1,2.8-3.7,0.1-6.1
				c-4.6-4.2-11.7-6.7-17.2-2.8C353.9,160.3,356.1,164.6,356.7,167.5z"/>
		</g>
		<g>
			<path class="st2" d="M649.3,594.9c14,30.4,24.5,62.4,39.5,92.3c11-33.4,15.5-69.1,26-102.7c-9,2.1-17.8,3.8-26.1,5.2
				C675.7,591.8,662.5,593.5,649.3,594.9z"/>
			<path class="st2" d="M637.1,596c-22.5,1.8-45.1,2.3-67.7,1.2c-10.1-0.5-20.2-1.1-30.3-2c12.6,36.5,28.7,72,44.3,107.3
				C601.3,666.9,619.3,631.5,637.1,596z"/>
			<path class="st2" d="M528.9,594.2c-20.9-2.2-41.6-5.5-61.7-10.9c-2.7-0.7-5.3-1.5-8-2.2c9.7,36,23.2,71.6,36.3,106.5
				C505.7,656.1,520.1,626,528.9,594.2z"/>
			<path class="st2" d="M773,558.2c-12.8,11.1-29.5,18.3-46.7,23.3c10.7,24.3,17.6,50.9,25.2,76.5C766,626,776.5,591.6,773,558.2z"
				/>
			<path class="st2" d="M429.7,654c3.9-26.1,11.5-50.7,19.4-76.1c-14.2-4.8-28.1-11.2-38.6-21.5C406.7,588.9,416,622.6,429.7,654z"
				/>
			<path class="st2" d="M734.8,456.7c-1.5,2.9-3,5.8-4.5,8.6c17.4,7.5,41.3,25.8,14.8,40.4c-18,9.9-39,13.2-59.2,15.8
				c-27.4,3.5-55,5.6-82.6,5.9c-49.3,0.5-127.3-3.5-158.4-18.3c-24.3-11.5-21.7-28.8-0.4-40.1c-2.2-2.6-4.3-5.3-6.4-8
				c-17.5,9.5-34.9,30.6-14.6,47c12.9,10.4,29.9,15.1,45.9,18.1c42.4,8,86.2,10.6,129.3,10c43.2-0.6,90.4-1.1,132-14.1
				c12.5-3.9,30.5-9.6,36.2-23C776.5,476.6,752.3,463.5,734.8,456.7z"/>
		</g>
		<g>
			<path class="st3" d="M721.4,589.4c-10.1,33.6-14.6,69.1-25.9,102.3c18.2-6.1,35.4-14.3,50.7-25
				C738.3,641.2,731.7,614.2,721.4,589.4z"/>
			<path class="st3" d="M684.4,695.2c-16-30.5-26.6-63.4-40.9-94.7c-17.9,35.6-35.9,71.1-53.8,106.7c0.1,0,0.2,0,0.4,0
				C620.5,707.4,653.5,704,684.4,695.2z"/>
			<path class="st3" d="M449.7,475c-10.3,5.2-23.5,15.2-7.8,24c13.7,7.6,29.5,11,44.9,13.3c2.3,0.4,4.7,0.7,7,1
				c-8.7-5.9-17-12.3-24.9-19.3c-2.4,1-5.4,1-7.4-0.4c-0.3-0.2-0.2-0.7,0.2-0.7c1.6-0.1,3.4-0.5,5.2-0.7
				C460.9,486.8,455.1,481.1,449.7,475z"/>
			<path class="st3" d="M534,603.9c-9.7,31.8-24.2,62-33.7,93.8c25.3,6.4,52.3,8.5,76.7,9.2C562.1,672.9,546.5,638.9,534,603.9z"/>
			<path class="st3" d="M717.1,487.9c-4.9,7.9-10.1,15.8-15.4,23.5c0.6-0.1,1.2-0.2,1.7-0.3c13.1-2.6,32.2-5.1,42.1-15.1
				c11.7-11.9-9.8-20.4-19.1-23.9c-2.4,4.3-5,8.6-7.5,12.8c1.4-0.5,2.8-0.9,4.2-0.7c0.2,0,0.4,0.4,0.2,0.6
				C722,486.7,719.5,487.7,717.1,487.9z"/>
			<path class="st3" d="M453.5,589.6c-7.7,24.9-14.7,49.2-17.5,75.5c14.8,14,33.6,23.4,54,29.7C477,660.3,463.5,625.1,453.5,589.6z"
				/>
		</g>
		<g>
			<path class="st4" d="M690.3,537.7c-30.3,4.2-61,6-91.6,6.2c-32.8,0.1-65.7-1.1-98.2-5.2c-22.9-2.9-48-5.4-68.8-16.3
				c-3.3-1.7-6.3-3.6-8.9-5.6c-5.1,9.8-8.6,19.8-10.7,30c16.2,20.5,47.9,27.7,72.2,32.6c29.7,6,60.1,9.3,90.4,10.3
				c37.3,1.2,75.3-0.6,112.1-7.5c28.5-5.3,63.8-11.8,85-33.3c-2-10.8-5.6-21.4-11-31.8C740.2,530.9,714.3,534.5,690.3,537.7z"/>
			<path class="st4" d="M519.2,768.8c23.9,9.1,49.6,13,75.2,12.2c26.4-0.7,55.2-4.2,79-16.6c25.1-13,41.5-36.6,54.9-60.9
				c4.4-7.9,8.8-16.1,13.1-24.5c-23.2,14.3-50.2,23.7-78,29.3c-44.4,8.9-100.8,7.3-138.6,1.7c-29.7-4.4-59.1-12.9-82.4-29.7
				c4.2,8,8.4,15.7,12.7,23.2C470.5,730.6,488.9,757.3,519.2,768.8z"/>
		</g>
		<g>
			<path class="st5" d="M424.9,322.6c-0.9,1.1-1.6,2.1-2.4,3.2c-3.7,15.7,0.9,33,6,47.9c6.1,17.7,13.6,34.9,23,51.1
				c21.1,36,48.8,68.4,82.7,93c12.7,1,25.3,1.7,38,2C512.5,464.1,451.8,392.4,439,309.6C433.7,313.3,428.9,317.7,424.9,322.6z"/>
			<path class="st5" d="M460.2,298.7c10.2,4.2,19.4,10.1,28,17c5.2-6.2,10.9-9.6,13-19.3C488,293.1,473.6,294.2,460.2,298.7z"/>
			<path class="st5" d="M805.5,96.3c0.8,6,3.2,11.9-0.1,17.7c-0.3,0.5-0.6,0.9-0.9,1.3c16.9,30.9,18.2,69.5,11.2,103.4
				c-7.1,34.3-23.9,68.7-54.3,87.8c1,2.1,1.9,4.2,2.7,6.4C842.9,271.3,881,158.9,805.5,96.3z"/>
			<path class="st5" d="M607.5,302.8c3.8,3.1,6.5,6.6,7,11.9c0.7,7,0.3,12.8-4.6,18.3c-10.9,12.3,1.3,23.3-1.5,35.7
				c-2.5,11.1-9,14.4-16.9,15.3c4,9.2,7.5,18.4,10.5,27.7c9.6-41.4,24.1-84.5,52-117.1c8.1-9.5,19.3-20.7,31.8-26.4
				C657.2,267,626.8,278.6,607.5,302.8z"/>
			<path class="st5" d="M762.1,120.3c0.8,50.4-23.3,103.1-52.8,143.3c10.9,3,21.2,8.1,30.1,15.3c19.5-21.4,32.7-49.9,39.8-77.8
				c7-27.6,9.3-57.6-1.8-84.4C771.9,117.8,767.8,121.4,762.1,120.3z"/>
			<path class="st5" d="M812.5,214.9c5.7-32.2,4.8-67.8-11-97.1c-5.7,2.8-14-0.1-19.9-1.2c10.3,26.2,9,55.6,2.1,82.6
				c-7.5,29.5-20.6,59.4-41.3,82.1c3.7,3.3,7.2,7.1,10.4,11.2c1.4-1.5,3.1-2.9,4.9-3.4c0.3-0.1,0.6,0.2,0.5,0.5
				c-0.6,1.9-2.5,3.2-4.4,4c0.6,0.8,1.1,1.6,1.6,2.4c0.1,0.1,0.2,0.3,0.3,0.5c1.4,2,2.7,4.2,3.9,6.4
				C789.6,284.1,806.4,249,812.5,214.9z"/>
			<path class="st5" d="M621.1,519.4c34.2-33.2,58.1-78.1,76.9-121.4c9.6-22.1,18.3-44.9,24.3-68.3c4-15.3,8.2-32.1,6.1-48.1
				c-3.6-2.4-7.4-4.4-11.4-6.1c-18,7.6-30.4,27.9-39.6,43.9c-11.1,19.3-20.3,39.6-28.6,60.2c-16.5,41-23.8,84.1-33,127.2
				c-0.3,4.4-1,8.7-1.9,12.9C616.4,519.5,618.8,519.4,621.1,519.4C621.1,519.4,621.1,519.4,621.1,519.4z"/>
			<path class="st5" d="M368.7,188c-1.2,2.3-2.4,4.7-3.4,7.1c17.3,22.3,39.2,42.7,63.2,57.7c11.7,7.3,24.1,13.3,36.9,18.5
				c4.1,1.6,10.3,3.1,15.5,5.1c-5.9-8.2-11.5-16.9-16.6-26c-2-0.6-3.9-1.5-5.8-2.3c-0.4-0.2-0.1-0.8,0.3-0.7c1.5,0.3,3,0.7,4.4,1.2
				c-2.7-5-5.3-10.1-7.7-15.2c-1.9,0-3.9-0.3-5.4-1.6c-0.3-0.2-0.1-0.7,0.2-0.8c1.2-0.4,2.5-0.6,3.8-0.6c-1.7-3.9-3.3-7.8-4.8-11.7
				C426.6,199.8,397.5,193.1,368.7,188z"/>
			<path class="st5" d="M684.9,84.5c3.4,7.9,6.1,16.1,8,24.5c5.4-9,12.5-17.1,21.2-23c-4.2-4.4-6.5-8.8-7.5-14.1
				C698.4,74.6,691,78.5,684.9,84.5z"/>
			<path class="st5" d="M731.6,398.1c11.4-28.6,20.4-59.6,20.6-90.7c-4.9-9.4-11.6-17-19.6-23.1c1.1,14.8-2.3,30.1-5.9,44.2
				c-5.9,22.7-13.9,44.9-23.2,66.5c-18.9,44.1-42.5,89.7-76.7,124.1c9.4-0.3,18.8-0.9,28.2-1.6C687.3,482.8,714.1,442.3,731.6,398.1
				z"/>
			<path class="st5" d="M655.7,298.7c-27.9,34.1-42,77.9-51.3,120.4c1.8,6,3.3,12,4.7,18.1c0.5-1,1.1-1.9,1.5-2.9
				c0.2-0.4,0.7-0.2,0.7,0.2c0.1,2.1-0.4,4.3-1.6,6c1.2,5.8,2.2,11.6,3,17.6c1.2,9.5,2.5,19.4,3.1,29.4c4.1-20.2,8-40.4,13-60.4
				C634,407.1,641,388,649,369c8.9-21.2,18.7-42.5,31.4-61.8c8.2-12.5,18.2-26.5,31.9-33.7c-5.5-2-11.3-3.4-17.2-4.2
				C679.4,272.7,665,287.4,655.7,298.7z"/>
			<path class="st5" d="M577.9,519.8c4.8,0.1,9.5,0.1,14.3,0.1c-6.1-43.5-22.3-85.2-43.2-123.6c-12.5,6.5-27.2,6.7-37.2-5.5
				c-9.3-11.4-1.9-20.4-16.8-31.9c-7.1-5.5-11.6-10.5-14.2-19.2c-2-6.7,0.6-13.3,3.9-19c0.4-0.7,0.8-1.3,1.2-1.9
				c-9.5-7.5-19.6-14-31.1-18c-4.3,1.8-8.4,3.9-12.3,6.4c5.8,40.1,24.2,77.6,46.7,111C514.4,455.6,544.8,489.2,577.9,519.8z"/>
			<path class="st5" d="M596.7,519.9c3.1,0,6.3-0.1,9.4-0.1c5-20.7,1.7-45.1-1.7-65.7c-3.9-24.4-10.8-46.3-20.7-68.9
				c-0.1-0.2-0.1-0.4-0.1-0.5c-9,0.1-18.5-0.2-25.5,5.7c-1.8,1.5-3.7,2.9-5.7,4.1c21.3,39,37.6,81.3,43.7,125.5
				C596.3,519.9,596.5,519.9,596.7,519.9z"/>
			<path class="st5" d="M760.8,339.5c-0.5-8.8-2.3-16.7-4.9-23.8c-1.5,29.5-10.4,59.1-21.5,86.1c-17.7,42.5-42.8,81.4-73.8,115.4
				c10.3-0.9,20.5-2.1,30.6-3.8c0.1-0.1,0.1-0.3,0.2-0.4c19.2-27.4,37.7-56,49.7-87.5C751.3,398.9,762.4,368.3,760.8,339.5z"/>
			<path class="st5" d="M557.3,50.5c-4,9.2-7,18.9-9.6,28.6c-6.3,24.1-9.9,48.6-11,73.4c-1.7,38.2,1.5,78.6,9.6,116.2
				c0.6,2.8,1.4,3.1,3.5,1.9c6.8-3.9,14.6-5.5,20.6-2.9c2.2,0.9,3.2-0.2,4.7-3.7c15.2-35.6,19.1-74.7,22.6-113
				c3.5-39.5,4.7-79.5-2.9-118.7c-8-1.1-16.1-1.5-24.2-1.2C564.2,35.3,560.2,43.9,557.3,50.5z"/>
			<path class="st5" d="M361.5,205.3c2.2,19.7,12.7,38.2,23.7,54.2c12.7,18.5,28.9,33.7,47.7,45.8c16.1-12.3,35.9-19.6,55.8-18.6
				c-0.8-0.9-1.5-1.9-2.3-2.9c-0.4,0-0.8-0.2-1.1-0.5c-3.6-3.6-13.2-5.2-18-7.1c-5.1-2-10.1-4.1-15.1-6.3
				c-12-5.5-23.5-11.7-34.2-19.5c-20.3-14.8-38.9-31.6-54.5-51.2C362.9,201.2,362.2,203.2,361.5,205.3z"/>
			<path class="st5" d="M524.7,40.3c-5.7,5-10.5,11.8-14.2,17.2c-6,8.6-10.5,17.9-13.7,27.9c-7.1,22.4-10,46.3-9.4,69.8
				c0.6,23.6,4.3,47,10.4,69.7c4.8,17.7,8.5,37.7,19.4,52.9c7.9-1.4,17.5,0.1,26.5-3.8c-5.2-22.7-7.6-46.2-9.3-69.4
				c-1.8-22.9-2.4-45.4-0.4-68.3c2.1-23.7,6.3-47.4,13.5-70.1c3.3-10.2,7.7-25.8,16.5-34.7c-1.6,0.1-3.1,0.2-4.7,0.4
				C547.3,33.4,535.6,36.2,524.7,40.3z"/>
			<path class="st5" d="M450.4,120.2c-14.9,58.9,9,118.8,46.3,164.3c0.8,0.9,3.8,4.1,6.5,4.5c2.4-5.7,5.8-8.6,9.9-10.1
				c-12.3-17.7-17-42.6-21.7-63.1c-5.6-24.6-9-49.8-7.9-75.1c1.1-23.2,4.3-47.4,14.1-68.7c4.5-9.6,10.2-17.8,16.9-26
				c0.7-0.9,1.4-1.7,2.1-2.6C484.9,57.6,459.7,83.6,450.4,120.2z"/>
			<path class="st5" d="M411.7,329.4c4.3-7.8,10.3-15,18.2-21.6c-18.8-12.3-35.3-27.7-47.9-46.4c-9.6-14.3-18.8-30.1-22.7-47.1
				c-1.2,5.8-1.8,11.7-1.7,17.3C358.2,267.3,379,312,411.7,329.4z"/>
			<path class="st5" d="M375,177.7c-1.5,2.2-3,4.5-4.4,6.8c27.1,4.8,54.2,11.2,76.5,27.4c-5.6-16.6-9.1-33.7-9.6-50.8
				C419.6,152.4,388.8,163.2,375,177.7z"/>
			<path class="st5" d="M385.2,165.4c6-3.3,12.5-5.8,18.6-7.5c10.6-3,23.1-5.3,33.6-1.1c0-3.7,0.1-7.3,0.4-10.9
				C417.6,142.7,399.2,151.3,385.2,165.4z"/>
			<path class="st5" d="M742.6,98.9c-7.4-6.2-17.7-5-25.4-10.2c-9.9,6.4-17.6,15.7-23,26.1c1.2,6.4,2,12.8,2.5,19.4
				c1-1.3,2.2-2.5,3.6-3.6c0.2-0.2,0.7,0,0.6,0.3c-0.7,2.5-2.2,4.3-4,5.9c0.9,15.2-0.1,30.7-2.7,46
				C705.9,152.2,718.3,121.5,742.6,98.9z"/>
			<path class="st5" d="M416.6,401.6c14.4,50.1,51.1,87.6,94.9,114c5.2,0.6,10.3,1.1,15.5,1.6c-32.8-24.9-60.6-57.4-80.5-93.3
				c-9.5-17.2-17.8-35.6-23.5-54.5c-3.3-11.2-6.2-23.3-5.6-35.1C407.1,355,410.1,379,416.6,401.6z"/>
			<path class="st5" d="M685.4,218.4c0.2-0.1,0.3-0.1,0.5-0.2c1.8-0.8,3.5-1.6,5.3-2.1c0.4-0.1,0.6,0.3,0.5,0.6
				c-1,1.9-2.6,2.8-4.5,3.7c-0.9,0.4-1.9,0.8-2.8,1.2c-4.7,14-10.5,27.4-17.1,39.9c12.8-2,25.8-1.7,38.1,1.2
				c29.7-40.1,54.2-93,52.9-143.6c-6.1-3.2-8.8-11.4-12.4-16.6c-0.2-0.3-0.4-0.5-0.6-0.8c-29.7,27.7-41.3,67.8-56.3,104.6
				C687.9,210.4,686.7,214.4,685.4,218.4z"/>
			<path class="st5" d="M598.9,32.9c7.5,40,6.3,81.2,2.4,121.6c-3.7,38.3-7.7,76.8-23.1,112.3c-1.2,2.8-1.8,4.9-0.1,8.1
				c0.7,1.4,1.3,2.9,1.8,4.7c2.2,8.3,5.4,16.8,15.1,18.8c1.6,0.3,3.6,0.6,5.5,1.1c4-5.2,8.6-9.9,13.6-14.1c5.9-8.5,8.8-18.6,12-28.4
				c3.7-11.2,7.3-22.5,10.2-33.9c5.5-21.5,8.5-43.5,10.7-65.5c3.9-38.1,5.5-80.6-15.1-114.5C621.5,38.2,610.3,34.9,598.9,32.9z"/>
			<path class="st5" d="M638.2,46.5c18.7,35.2,16.4,78.5,12,116.9c-2.8,24.1-6.3,47.9-13.1,71.2c-4.1,14.1-7.8,30.6-14.8,44.4
				c7.3-5,15.2-9.1,23.6-12.1c-0.1-2.3,0.7-4.6,1.3-6.8c0.1-0.4,0.6-0.4,0.8,0c0.5,1.8,0.8,3.8,0.7,5.8c1.9-0.6,3.8-1.2,5.7-1.8
				c2.8-0.8,4-2.3,5.8-5.8c26.3-49.6,45.3-126.8,14.4-177.5C665.4,66,652.8,54.6,638.2,46.5z"/>
		</g>
		<g>
			<path class="st6" d="M505.6,448.6c-32.7-41.4-58.7-88.1-66.6-139c-1.1,0.8-2.2,1.6-3.2,2.4c2.1,12.1,7.7,40.4,18.3,59.7
				C467.1,395.4,486.2,429.9,505.6,448.6z"/>
			<path class="st6" d="M764.1,163.3c3.6-15.4,3.6-33.7,3.2-43.1c-1.6,0.4-3.3,0.6-5.2,0.2c0.6,36.7-12,74.6-30.3,108.1
				C743.1,217.3,759.1,184.6,764.1,163.3z"/>
			<path class="st6" d="M759.2,327.7c-0.9-4.2-2-8.3-3.4-12.1c-1.5,29.5-10.4,59.1-21.5,86.1c-4.7,11.3-9.9,22.3-15.6,33
				c13-17,28.1-52.1,31.5-61.7C753.1,364.7,757.3,340.2,759.2,327.7z"/>
			<path class="st6" d="M655.7,298.7c-15.7,19.2-27.1,41.5-35.6,65c8.2-15.7,22.2-41.7,30.3-51.3c11.9-14.1,24.3-28.9,35.3-34.5
				c5.5-2.8,10.1-5.7,13.3-7.9c-1.3-0.2-2.6-0.5-4-0.7C679.4,272.7,665,287.4,655.7,298.7z"/>
			<path class="st6" d="M466.2,296.9c8.1,0.6,22,2,33.1,4.9c0.7-1.6,1.4-3.4,1.8-5.5C490,293.6,477.9,294,466.2,296.9z"/>
			<path class="st6" d="M607.5,302.8c0.4,0.3,0.8,0.7,1.2,1.1c7.2-6.5,24.6-21.3,37-24.9c15.5-4.5,22.8-9,39.3-10.7
				C656.6,267.2,626.6,278.8,607.5,302.8z"/>
			<path class="st6" d="M483.8,322.3c0.3-0.6,0.6-1.1,0.9-1.6c0.4-0.7,0.8-1.3,1.2-1.9c-9.5-7.5-19.6-14-31.1-18
				c-1,0.4-1.9,0.8-2.9,1.3c3.5,1.9,14,7.7,21.1,12.7C477.5,317.9,481,320.3,483.8,322.3z"/>
			<path class="st6" d="M783.7,199.3c-0.5,1.8-1,3.7-1.5,5.5c7.9-19.7,11.6-42.1,10.3-60.5c-0.7-10.2-2.6-19.5-4.4-26.2
				c-2.4-0.5-4.6-1.1-6.6-1.4C791.8,142.8,790.6,172.3,783.7,199.3z"/>
			<path class="st6" d="M719.6,90.1c-0.8-0.4-1.7-0.9-2.4-1.4c-3.6,2.3-6.9,5-9.9,8C711.3,94.1,716.1,91.7,719.6,90.1z"/>
			<path class="st6" d="M423.1,145.6c-14.2,1.7-27.1,9-37.5,19.5l0,0.2c2.2-1.2,4.5-2.3,6.8-3.3C400,157.2,412.4,149.9,423.1,145.6z
				"/>
			<path class="st6" d="M683.2,323.3c5.1-9.7,12.2-19.9,19.2-28c5.6-6.4,12.5-14,17.6-18.6c-1-0.5-2-0.9-3-1.4
				c-18,7.6-30.4,27.9-39.6,43.9c-11.1,19.3-20.3,39.6-28.6,60.2c-5.2,12.9-9.5,26.1-13.2,39.4c8.7-19,22.6-49,26.2-55.7
				C667.1,353.2,678.1,333,683.2,323.3z"/>
			<path class="st6" d="M732.6,284.3c1.1,14.8-2.3,30.1-5.9,44.2c-5.9,22.7-13.9,44.9-23.2,66.5c-5.1,11.9-10.6,24-16.5,35.9
				c7.2-12.8,23.4-41.6,28.1-51c6.1-12.2,18.5-48.6,20.9-63c1.6-9.5,2-21.1,2.2-28C736.4,287.3,734.5,285.8,732.6,284.3z"/>
			<path class="st6" d="M464,451.7c-6.4-9-12.2-18.3-17.5-27.9c-9.5-17.2-17.8-35.6-23.5-54.5c-3.3-11.2-6.2-23.3-5.6-35.1
				c-1.5,3-2.7,6.1-3.7,9.2c0.9,10.5,3.2,28.1,9.5,43.8C431.1,407.2,448.2,434.3,464,451.7z"/>
			<path class="st6" d="M366.4,249.7c5.9,11.3,21.7,23.7,29.6,29.5c-5.1-5.6-9.8-11.5-14-17.8c-9.6-14.3-18.8-30.1-22.7-47.1
				c-0.8,4.1-1.4,8.2-1.6,12.2C359.8,234,362.7,242.7,366.4,249.7z"/>
			<path class="st6" d="M650.2,163.4c-1.1,9.7-2.4,19.4-3.9,28.9c7-30.3,12.9-70.5,10.9-94c-1.7-19.8-8.9-38.6-13.2-48.4
				c-1.9-1.2-3.8-2.4-5.7-3.4C656.9,81.7,654.6,125,650.2,163.4z"/>
			<path class="st6" d="M691.2,79.4c5.2-1.4,11.6-2.9,16.5-3.5c-0.4-1.3-0.8-2.6-1.1-4C701,73.7,695.9,76.1,691.2,79.4z"/>
			<path class="st6" d="M805.5,96.3c0.3,2.3,0.9,4.6,1.2,7c6.1,5.9,20.2,20.7,26.7,37.4c3.5,9,8.6,26.8,12.9,45.8
				C847.4,153.6,835.4,121,805.5,96.3z"/>
			<path class="st6" d="M533.6,194.7c-1.2-19.5-1.4-38.8,0.3-58.3c2.1-23.7,6.3-47.4,13.5-70.1c3.3-10.2,7.7-25.8,16.5-34.7
				c-1.6,0.1-3.1,0.2-4.7,0.4c-2.2,0.3-4.3,0.6-6.5,0.9C548,43.7,538,67.7,532.6,91.5C525.7,121.9,528,165.7,533.6,194.7z"/>
			<path class="st6" d="M375,177.7c-0.2,0.3-0.4,0.6-0.6,1c10-5.7,30.3-16.5,46.6-20.6C404.4,158.5,385.1,167.1,375,177.7z"/>
			<path class="st6" d="M745.8,102.4c-0.2-0.3-0.4-0.5-0.6-0.8c-15,14-25.4,31.1-33.9,49.4c12.3-18.7,30-38.6,36.4-45.7
				C747.1,104.3,746.5,103.3,745.8,102.4z"/>
			<path class="st6" d="M382.8,225.6c13,12.5,27.4,22.2,40.5,28.3c-1.7-1.2-3.4-2.3-5.1-3.5c-20.3-14.8-38.9-31.6-54.5-51.2
				c-0.4,1.1-0.8,2.2-1.2,3.4C365.2,206.7,371,214.3,382.8,225.6z"/>
			<path class="st6" d="M601.3,154.5c-2.4,24.5-4.9,49.1-10.4,72.9c4.1-8.2,9-19.5,10.9-29.4c3.4-18,10.2-82.7,9.2-120.2
				c-0.6-22.7-2.8-36.2-4.4-43.4c-2.5-0.6-5.1-1.1-7.7-1.5C606.4,73,605.2,114.1,601.3,154.5z"/>
			<path class="st6" d="M368.7,188c-0.7,1.2-1.3,2.5-1.9,3.8c10.5,1.8,36.1,6.2,53.2,9.6C403.8,194.8,386.2,191.1,368.7,188z"/>
			<path class="st6" d="M481.6,102.7c-3.9,29.7-10.2,45.2-2.9,80.7c4.3,21,11.9,40,17.3,52c-1.6-6.7-3.1-13.4-4.5-19.6
				c-5.6-24.6-9-49.8-7.9-75.1c1.1-23.2,4.3-47.4,14.1-68.7c4.5-9.6,10.2-17.8,16.9-26c0.7-0.9,1.4-1.7,2.1-2.6
				c-5.9,2.6-11.5,5.6-16.8,9C493.9,63,484.2,82.6,481.6,102.7z"/>
		</g>
		<g>
			<path class="st7" d="M621.1,519.4c33.8-32.8,57.4-76.9,76.1-119.7c-20.4,35.3-56.8,89.6-69.8,51.6c-4.1,18.3-7.7,36.8-11.7,55.3
				c-0.3,4.4-1,8.7-1.9,12.9C616.4,519.5,618.8,519.4,621.1,519.4C621.1,519.4,621.1,519.4,621.1,519.4z"/>
			<path class="st7" d="M590.5,465.6c-12.8-37.7-29.3-60-6.6-80.1c-0.1-0.1-0.1-0.2-0.2-0.4c-0.1-0.2-0.1-0.4-0.1-0.5
				c-9,0.1-18.5-0.2-25.5,5.7c-1.8,1.5-3.7,2.9-5.7,4.1c21.3,39,37.6,81.3,43.7,125.5c0.2,0,0.4,0,0.6,0c3.1,0,6.3-0.1,9.4-0.1
				c2.9-12,3-25.3,1.9-38.4C601.6,482.3,594.8,478.1,590.5,465.6z"/>
			<path class="st7" d="M609.1,437.3c0.5-1,1.1-1.9,1.5-2.9c0.2-0.4,0.7-0.2,0.7,0.2c0.1,2.1-0.4,4.3-1.6,6c1.2,5.8,2.2,11.6,3,17.6
				c1.2,9.5,2.5,19.4,3.1,29.4c4.1-20.2,8-40.4,13-60.4c2.1-8.4,4.6-16.6,7.4-24.8c-9.4,8.9-19.7,12.5-27.7-0.8
				c-1.5,5.8-2.8,11.7-4.1,17.5C606.2,425.1,607.7,431.1,609.1,437.3z"/>
			<path class="st7" d="M647.1,495.8c-6.4,8.2-13.1,16-20.4,23.3c9.4-0.3,18.8-0.9,28.2-1.6c27.8-29.9,51.5-64,68.7-101.1
				C705.4,446.5,669.4,499.8,647.1,495.8z"/>
			<path class="st7" d="M577.9,519.8c4.8,0.1,9.5,0.1,14.3,0.1c-2.2-15.9-5.8-31.6-10.5-47c-20.3,20.3-59.8-15.8-84.3-42.7
				C521,462.8,548.4,492.5,577.9,519.8z"/>
			<path class="st7" d="M696.6,134.1c1-1.3,2.2-2.5,3.6-3.6c0.2-0.2,0.7,0,0.6,0.3c-0.7,2.5-2.2,4.3-4,5.9c0.9,15.2-0.1,30.7-2.7,46
				c6.6-17.1,13.4-34.3,22.3-50c-14,7.8-18.6-13.3-19.4-23.2c-1,1.7-2,3.4-3,5.1C695.3,121.1,696.1,127.6,696.6,134.1z"/>
			<path class="st7" d="M578,274.9c0.7,1.4,1.3,2.9,1.8,4.7c2.2,8.3,5.4,16.8,15.1,18.8c1.6,0.3,3.6,0.6,5.5,1.1
				c4-5.2,8.6-9.9,13.6-14.1c5.9-8.5,8.8-18.6,12-28.4c3.7-11.2,7.3-22.5,10.2-33.9c2.4-9.6,4.4-19.2,6-28.9
				c-10.1,25.4-37.8,87.1-63,69.9c-0.4,0.9-0.7,1.8-1.1,2.6C576.9,269.6,576.4,271.7,578,274.9z"/>
			<path class="st7" d="M451.4,424.8c21.1,36,48.8,68.4,82.7,93c12.7,1,25.3,1.7,38,2c-9.1-8.5-18.3-17.4-27.3-26.6
				c-28.9,7.5-78.2-51.7-99.6-79.6C447.2,417.3,449.3,421.1,451.4,424.8z"/>
			<path class="st7" d="M437.5,156.8c0-3.7,0.1-7.3,0.4-10.9c-1.5-0.2-2.9-0.4-4.4-0.5c-1.2,2.6-4,6.7-9.6,9.1
				C428.6,154.5,433.2,155.1,437.5,156.8z"/>
			<path class="st7" d="M608.5,368.7c-2.5,11.1-9,14.4-16.9,15.3c4,9.2,7.5,18.4,10.5,27.7c7-30.3,16.7-61.6,32.3-88.9
				c-5.9,6.9-12.8,16.2-15.9,24.6c-4.7,12.9-11.2,2.5-12.5-7.5C603.2,349.6,610.7,358.7,608.5,368.7z"/>
			<path class="st7" d="M739.5,278.9c19-20.8,31.9-48.2,39.1-75.3c-24.8,64.2-45.2,41.9-51.3,32.8c-5.6,9.5-11.6,18.7-17.9,27.2
				C720.3,266.6,730.5,271.7,739.5,278.9z"/>
			<path class="st7" d="M689,206.3c-1.1,4.1-2.3,8.1-3.6,12.1c0.2-0.1,0.3-0.1,0.5-0.2c1.8-0.8,3.5-1.6,5.3-2.1
				c0.4-0.1,0.6,0.3,0.5,0.6c-1,1.9-2.6,2.8-4.5,3.7c-0.9,0.4-1.9,0.8-2.8,1.2c-4.7,14-10.5,27.4-17.1,39.9
				c12.8-2,25.8-1.7,38.1,1.2c4.1-5.5,8.1-11.3,11.9-17.2c-27.5,21.8-21-42.1-17.5-66.8C696.2,187.9,692.7,197.2,689,206.3z"/>
			<path class="st7" d="M688.7,94.3c1.7,4.8,3.1,9.7,4.2,14.7c2-3.3,4.2-6.5,6.6-9.5C695.1,100.4,691.3,97.6,688.7,94.3z"/>
			<path class="st7" d="M407.9,193c14,4.3,27.3,10.2,39.3,18.9c-5.6-16.6-9.1-33.7-9.6-50.8c-1.7-0.8-3.5-1.5-5.4-2
				C433,164.7,435.4,191.2,407.9,193z"/>
			<path class="st7" d="M463.5,231.8c8.7,18.9,20.1,36.6,33.3,52.6c0.8,0.9,3.8,4.1,6.5,4.5c2.4-5.7,5.8-8.6,9.9-10.1
				c-3.2-4.6-5.8-9.6-8.1-14.9C493.9,273.6,475.3,249.9,463.5,231.8z"/>
			<path class="st7" d="M492.3,201.1c1.5,8,3.3,16,5.4,23.8c4.8,17.7,8.5,37.7,19.4,52.9c7.9-1.4,17.5,0.1,26.5-3.8
				c-1.5-6.7-2.8-13.5-3.9-20.3C517.7,264.6,499.9,223,492.3,201.1z"/>
			<path class="st7" d="M536.5,186.5c0.8,27.6,4.1,55.6,9.8,82.1c0.6,2.8,1.4,3.1,3.5,1.9c6.8-3.9,14.6-5.5,20.6-2.9
				c2.2,0.9,3.2-0.2,4.7-3.7c1.7-3.9,3.2-7.9,4.6-11.9C551.9,264.3,540.8,219.1,536.5,186.5z"/>
			<path class="st7" d="M800.4,262.5c-9.2,17.7-22,33.3-39.1,44c1,2.1,1.9,4.2,2.7,6.4c39-20.6,68-58.5,78.3-99.1
				C828.6,250.1,810.8,260,800.4,262.5z"/>
			<path class="st7" d="M411.7,329.4c4.3-7.8,10.3-15,18.2-21.6c-10.3-6.8-19.9-14.5-28.6-23.1c2.2,12.6-12,22.1-29.5,0.9
				C381.1,304.2,394.8,320.4,411.7,329.4z"/>
			<path class="st7" d="M433,305.3c16.1-12.3,35.9-19.6,55.8-18.6c-0.8-0.9-1.5-1.9-2.3-2.9c-0.4,0-0.8-0.2-1.1-0.5
				c-3.6-3.6-13.2-5.2-18-7.1c-5.1-2-10.1-4.1-15.1-6.3c-4.8-2.2-9.4-4.5-14-6.9c-3.4,10.2-16.8,26.6-46.9,4.8
				C403.1,282.6,417.1,295,433,305.3z"/>
			<path class="st7" d="M633.3,248.3c-2.9,10.4-6.1,21.2-11,30.8c7.3-5,15.2-9.1,23.6-12.1c-0.1-2.3,0.7-4.6,1.3-6.8
				c0.1-0.4,0.6-0.4,0.8,0c0.5,1.8,0.8,3.8,0.7,5.8c1.9-0.6,3.8-1.2,5.7-1.8c2.8-0.8,4-2.3,5.8-5.8c16.3-30.8,29.8-72.2,30.3-111.3
				C681.8,180.6,658.5,259.7,633.3,248.3z"/>
			<path class="st7" d="M684.7,488c-7.6,10.1-15.6,19.8-24.2,29.1c10.3-0.9,20.5-2.1,30.6-3.8c0.1-0.1,0.1-0.3,0.2-0.4
				c19.2-27.4,37.7-56,49.7-87.5c3.8-9.9,7.7-20.3,11-30.9C738.2,428.9,706.8,498.2,684.7,488z"/>
			<path class="st7" d="M511.5,515.6c5.2,0.6,10.3,1.1,15.5,1.6c-11.5-8.7-22.4-18.4-32.5-28.8c-17.1,7.1-52.9-40.1-69.2-63.3
				C443.1,463.6,474.8,493.4,511.5,515.6z"/>
			<path class="st7" d="M759.1,259c-4.9,8-10.5,15.5-16.7,22.4c3.7,3.3,7.2,7.1,10.4,11.2c1.4-1.5,3.1-2.9,4.9-3.4
				c0.3-0.1,0.6,0.2,0.5,0.5c-0.6,1.9-2.5,3.2-4.4,4c0.6,0.8,1.1,1.6,1.6,2.4c0.1,0.1,0.2,0.3,0.3,0.5c1.4,2,2.7,4.2,3.9,6.4
				c20.9-13.3,35.4-34.3,44.4-57.3C778.4,293.6,751.4,286,759.1,259z"/>
			<path class="st7" d="M399.8,231.5c9.1,7.9,18.7,15.1,28.7,21.3c11.7,7.3,24.1,13.3,36.9,18.5c4.1,1.6,10.3,3.1,15.5,5.1
				c-5.9-8.2-11.5-16.9-16.6-26c-2-0.6-3.9-1.5-5.8-2.3c-0.4-0.2-0.1-0.8,0.3-0.7c1.5,0.3,3,0.7,4.4,1.2c-2.7-5-5.3-10.1-7.7-15.2
				c-1.9,0-3.9-0.3-5.4-1.6c-0.3-0.2-0.1-0.7,0.2-0.8c1.2-0.4,2.5-0.6,3.8-0.6c-1.7-3.9-3.3-7.8-4.8-11.7
				c-4.7-3.9-9.7-7.2-14.8-10.2C439.6,221.9,447,253.2,399.8,231.5z"/>
		</g>
		<g>
			<path class="st8" d="M508.9,296.8c-0.8,5-1,12-4.5,16c-5.5,6.3-17.5,12.1-16.5,21.8c1.9,17.6,22.5,18.6,25.7,34.9
				c3.7,18.8,16.7,30.8,35,18c1.3-0.9,11.4-9.8,14.9-10.5c7.9-1.5,13.3,1,21.2,0.8c10.4-0.3,14.1-6.3,14.4-13.7
				c-9.7,13.6-21.7,4.3-36.1,8c-13.6,3.4-36,21-43.8,1.4c-2.8-7.1-0.6-18.2-5.2-24.4c-2.7-3.7-12.3-6.6-16.2-8.8
				c-5.9-3.3-3.4-11.3,2.2-15.9c2.5-2.1,9.7-6.6,14.1-15.4c3-5.8-4.5-11.8,1.8-23.3C512.7,287.6,510.2,290.8,508.9,296.8z"/>
			<path class="st8" d="M716.7,76.8c7.2,10.5,25.4,7.1,34,19.1c4.7,6.7,8.7,20.8,20,15.3c7.9-3.8,12.1-2.1,18.7-0.6
				c4.5,1,9.3,1.4,10-2.7c-2.9-0.8-5.9-1.6-9-2.5c-6.1-1.7-12.5,1.4-18.6,2c-11,1-12.3-11.4-16.5-18.2c-4.5-7.4-14.7-5.8-22.6-8
				c-9.8-2.7-15.5-10.5-16.3-22C713.3,64.1,713.2,71.8,716.7,76.8z"/>
			<path class="st8" d="M348.2,213c-1.6,1.2-3.2,2.4-4.7,3.8c0,0-0.1,0.1-0.1,0.1c0.2,4.6,1.7,17.3,6.5,35.1c1.3,0,1.5-1,1.1-3.7
				c-1.5-10-1.7-19.9-0.3-29.1c0.2-1.4,0.5-2.7,0.7-4.1C352,212.4,352.5,209.9,348.2,213z"/>
			<path class="st8" d="M361,187.2c3.6-7.2,8-14,13-20.2c1.7-2.1,2.8-3.7,0.1-6.1c-0.3-0.2-0.5-0.5-0.8-0.7
				c-2.5,7.8-8.1,13.7-14.4,16.1C360,179.8,360.8,183.6,361,187.2z"/>
			<path class="st8" d="M443.4,116.6c0.4-1.3,0.8-2.7,1.3-4c3.3-9.4,7.4-18.1,12.2-26.1c-3.3,1.3-6.7,2.2-9.9,2.2
				c0.2,10.4-5.4,22-13.1,23.9C435.7,114.6,438.7,116.1,443.4,116.6z"/>
			<path class="st8" d="M449.8,79.5c-0.9,2.1-1.6,4.2-2.4,6.3c5.4-0.8,9.6-3.6,13.9-6.3c5.1-7.4,10.9-14.1,17.2-20.1
				c1.1-4.9,1.8-9.8,1-14.7C473.8,62.9,455.8,65.4,449.8,79.5z"/>
			<path class="st8" d="M481.9,42c1.2,4.7,1.3,9.7,0.1,14.3c5.8-5.1,12-9.5,18.6-13.5c-0.7-2.4-1.4-5-2.2-7.6
				C494.3,44.3,485.3,42,481.9,42z"/>
			<path class="st8" d="M353.2,207.5c1.2-4.4,2.7-8.7,4.5-13c0.6-4.6,0.7-9-0.2-13.9c-0.2-1.1-0.5-2-0.7-2.5c-0.5,0.6-1,1.3-1.5,1.9
				c1.7,14.3-9.7,22-11.6,33.5C346.4,210.9,349.9,207.9,353.2,207.5z"/>
		</g>
		<g>
			<path class="st9" d="M541.7,336c4.9,5.3,12.8,7.3,18.6,2c4.3-3.9,6.2-9.6,3-14.9C554.9,309,532.8,322.7,541.7,336z"/>
			<path class="st9" d="M764.9,79.4c2.1,0.5,7,1.8,5.5-1.7c-1.5-3.6-5.7-6-9.3-6.8c-5.3-1.3-6.4,0.6-4.5,3
				C758.7,76.5,761.7,78.6,764.9,79.4z"/>
		</g>
		<g>
			<path class="st10" d="M587.4,726.8c-3.8-1.9-8-1.4-12.1-1.6c-5.2-0.1-10.3-0.4-15.5-0.7c-10.3-0.7-20.6-1.5-30.9-3
				c-9.6-1.4-19.2-3.1-28.7-5.3c-5-1.1-10-2.4-15-3.7c-4.4-1.1-9.1-2.7-13.7-2.3c-0.4,0-0.6,0.5-0.3,0.8c6.5,5.9,17.7,7.5,25.9,9.6
				c10.3,2.7,20.7,4.9,31.1,6.7c9.8,1.7,19.8,3.1,29.7,3.9c5.1,0.4,10.3,0.7,15.5,0.8c4.6,0.2,9.7,0.9,14-1.3
				C588.9,730.2,588.9,727.6,587.4,726.8z"/>
			<path class="st10" d="M632.2,632.4c10-14.8,10.1-14.3,16.7-2.4c2.3,4.1,11.5,17.5,16.4,23c-7.2-17.5-13.9-35.2-21.8-52.4
				c-8.7,17.3-17.4,34.6-26.2,52c1.6-1.5,3-3.2,4.3-4.9C625.4,642.7,628.7,637.5,632.2,632.4z"/>
			<path class="st10" d="M608.4,726.4c-3.5,0.4-7.1,0.6-10.6,1c-1.9,0.2-2.5,2.9-0.5,3.5c4.5,1.3,9.1,1.3,13.8,0.7
				C624.1,729.9,620.7,724.9,608.4,726.4z"/>
			<path class="st10" d="M540.4,634.4c2.1,4.9,5.4,11.3,15.1,23.3c-7.6-17.8-14.9-35.7-21.4-53.9c-4.8,15.8-10.8,31.2-16.8,46.7
				c2.3-3.3,7.9-13.3,9.6-17C531.7,623.2,535.5,622.9,540.4,634.4z"/>
			<path class="st10" d="M733,629.4c1.3,2.2,2.7,4.5,4.2,6.6c-4.6-15.8-9.5-31.6-15.7-46.6c-4.8,16-8.4,32.4-12,48.8
				c2.5-4.1,4.7-8.4,6.8-12.7C725.7,605.9,723.7,614,733,629.4z"/>
			<path class="st10" d="M459.2,621.3c1.6,3.4,6.4,11.2,9.5,15.6c-5.5-15.7-10.7-31.5-15.2-47.3c-3.6,11.7-7.1,23.2-10,34.9
				C448.9,615.5,455.6,613.9,459.2,621.3z"/>
			<path class="st10" d="M442.9,558.1c7.2,4.7,16.2,7.3,24.3,9.5c11.5,3.1,23.2,5.3,35,7.3c11.7,2,23.5,3.4,35.3,4.5
				c12.1,1.1,24.9,1.9,36.9-0.4c1.5-0.3,1.5-2.7,0-3.1c-11.1-2.5-22.8-2.9-34.1-3.8c-12.1-1-24.2-2.4-36.2-4.2
				c-11-1.6-21.9-3.4-32.7-6c-9.5-2.3-17.9-6-26.8-9.7C437.5,549.1,436,553.6,442.9,558.1z"/>
			<path class="st10" d="M594.5,574.1c-3.1,0.3-6.1,0.5-9.2,0.6c-7.6,0.3-7.3,5.3,0.4,5.3c3.1,0,6.1,0,9.2-0.2
				C602.4,579.2,602.2,573.4,594.5,574.1z"/>
		</g>
		<g>
			<path class="st11" d="M569.4,597.2c-10.1-0.5-20.2-1.1-30.3-2c0.2,0.6,0.4,1.2,0.6,1.8c5.5,3.4,12.2,5.8,18,6.9
				c9.9,1.9,20.3,1.2,30.3,0.9c10-0.3,20-0.9,30-1.6c4-0.3,9.4-1.6,13.3-0.5c0.7,0.2,1.3,0.5,1.9,0.9c1.3-2.5,2.6-5.1,3.8-7.6
				C614.6,597.8,592,598.2,569.4,597.2z"/>
			<path class="st11" d="M467.1,583.3c-2.7-0.7-5.3-1.5-8-2.2c0.3,1.2,0.7,2.4,1,3.7c2.1,1.2,4.3,2.1,6.5,2.9c7,2.5,14,4.2,21.4,5.4
				c7.3,1.2,14.5,1.8,21.9,1.9c6.3,0.1,9.8,1.8,12.9,7.3c0.6,1.1,1.5,2.6,2.6,3.7c1.2-3.9,2.4-7.8,3.5-11.7
				C508,592,487.2,588.7,467.1,583.3z"/>
			<path class="st11" d="M448.5,577.7c-14-4.7-27.6-11.1-38-21.4c-0.3,2.2-0.5,4.4-0.6,6.6c0.6,0.6,1.1,1.2,1.7,1.8
				c4.2,4,9,7.3,14.3,9.7c4.6,2,9.6,3.4,12.7,7.6c1.6,2.1,3.3,3.9,4.5,6.3c0.6,1.2,1.1,2.4,1.5,3.7c1.4-4.4,2.7-8.9,4.1-13.4
				C448.7,578.3,448.6,578,448.5,577.7z"/>
			<path class="st11" d="M688.7,589.6c-13.1,2.2-26.2,3.9-39.4,5.3c1,2.2,2,4.4,3,6.6c3.3,0.7,7,0.6,10.3,0.6c7,0,14-0.7,20.8-2
				c6-1.2,12.5-4.4,18.7-4c3.5,0.2,5.7,2.6,8.2,4.4c1.4-5.4,2.9-10.8,4.6-16.1C705.9,586.6,697,588.2,688.7,589.6z"/>
			<path class="st11" d="M773,558.2c-12.8,11.1-29.5,18.3-46.7,23.3c0.8,1.8,1.5,3.6,2.3,5.4c0.1,0,0.2,0.1,0.3,0.1
				c2.6,0.6,5.3,0,7.8-0.7c4.4-1.3,8.5-3.4,12.8-5.1c7.1-2.9,13.9-6.1,21.3-4c0.8,0.2,1.8,0.6,2.8,1
				C773.8,571.4,773.7,564.8,773,558.2z"/>
		</g>
		<g>
			<path class="st12" d="M671.5,648.2c5.4,13.2,10.9,26.3,17.3,39c3.9-11.8,7-23.9,9.8-36.1C690.2,660.5,682.6,657.1,671.5,648.2z"
				/>
			<path class="st12" d="M598.5,672.6c-13.8,8.8-25.9-3.5-33.4-12c6.1,14,12.3,27.9,18.4,41.8C588.4,692.5,593.4,682.5,598.5,672.6z
				"/>
			<path class="st12" d="M510.8,646c-13.9,8.4-20.2,6.7-31.3-1.7c5.2,14.5,10.6,28.9,16,43.1C500,673.5,505.4,659.8,510.8,646z"/>
			<path class="st12" d="M740.8,621.5c3.7,12.1,7.2,24.4,10.8,36.4c6.6-14.6,12.3-29.6,16.3-44.8
				C763.6,618.8,752.5,631.4,740.8,621.5z"/>
			<path class="st12" d="M436.2,622.2c-10.9,1.8-18.4-9.8-22.6-16.4c3.6,16.3,9.3,32.5,16.1,48.2
				C431.3,643.2,433.5,632.6,436.2,622.2z"/>
		</g>
		<path class="st0" d="M593.6,769.5c-17.7-1.7-35.6-2.6-53-6.4c-19-4.1-33.9-13.1-49.9-23.6c-0.2-0.2-0.5,0.2-0.3,0.4
			c22.8,27.9,69.8,33.6,103.2,30.7C594.3,770.6,594.3,769.6,593.6,769.5z"/>
		<path class="st0" d="M598.4,769.8c-0.2,0-0.4,0.3-0.2,0.5c2.6,2.1,6.8,2.2,9.6,0.2c0.3-0.2,0.3-0.7-0.1-0.8
			C604.7,768.6,601.5,769.8,598.4,769.8z"/>
	</g>
</g>
</svg>
