<?xml version="1.0" encoding="utf-8"?>
<!-- Generator: Adobe Illustrator 25.2.0, SVG Export Plug-In . SVG Version: 6.00 Build 0)  -->
<svg version="1.1" id="e37c00f5-ff96-45aa-87ea-1a24b78ba7bd"
	 xmlns="http://www.w3.org/2000/svg" xmlns:xlink="http://www.w3.org/1999/xlink" x="0px" y="0px" viewBox="0 0 1176.6 803.7"
	 style="enable-background:new 0 0 1176.6 803.7;" xml:space="preserve">
<style type="text/css">
	.st0{fill:#A5603F;}
	.st1{fill:#FFA3BC;}
	.st2{fill:#B4D345;}
	.st3{fill:#AD8353;}
	.st4{fill:#FF7CC7;}
	.st5{fill:#F07493;}
	.st6{fill:#F85094;}
	.st7{fill:#895725;}
	.st8{fill:#84391C;}
	.st9{fill:#F89C5A;}
	.st10{fill:#D7BD8C;}
	.st11{fill:#FFE4DF;}
	.st12{fill:#FFBFE2;}
	.st13{fill:#68182B;}
</style>
<g>
	<g>
		<path class="st0" d="M773.9,597.9c-0.2,0-0.4-0.1-0.6-0.2c-10.9-7.2-23.9-9.9-37.5-12.3c-12.8-2.2-27-4.2-43.2-5.9
			c-0.5,0-0.8-0.4-0.9-0.8c-0.1-0.4,0.1-0.9,0.4-1.2c5.2-3.7,10.7-7.2,16-10.6c0.2-0.1,0.4-0.2,0.6-0.2c0.1,0,0.2,0,0.3,0l0.6,0.2
			l6.9,0.6c22,1.8,44.8,3.6,65.3,11.3c7.3,2.8,10.1,5.1,10.6,8.8c0,0.3,0,0.6-0.2,0.8c-2.6,3.7-8.5,6.7-18.1,9.4
			C774.1,597.8,774,597.9,773.9,597.9z"/>
		<path class="st0" d="M600.8,784.4c4.8,0,9.5,0,14.2-0.1c34.7-0.4,62.7-2.8,88.3-7.6l2.5-0.5c10.2-1.8,27.3-4.8,27.7-15.6
			c0.4-11.7,3.2-23.7,5.8-35.2l0.5-2.1c0.1-0.4,0-0.7-0.3-1c-0.2-0.2-0.5-0.3-0.8-0.3c-0.1,0-0.1,0-0.2,0c-11.7,2-24.1,2.8-33.1,3.4
			c-3.4,0.2-6.3,0.4-8.4,0.6c-37.8,3.6-71.4,5.4-102.4,5.4c-45.1,0-84.4-3.7-120.3-11.2c-0.1,0-0.2,0-0.2,0c-0.3,0-0.6,0.1-0.8,0.3
			c-0.3,0.3-0.4,0.6-0.3,1l1.3,6c2.3,10.6,4.7,21.5,5.8,32.3c1.2,12.3,21.2,15.6,33.1,17.6c1.5,0.3,2.9,0.5,4.1,0.7
			C547,783.7,577.5,784.4,600.8,784.4C600.8,784.4,600.8,784.4,600.8,784.4z"/>
		<path class="st0" d="M432.7,595.1c12-7.9,26.6-10.8,41.7-13.3c19-3.2,34.5-5.1,48.9-6c0.5,0,0.9-0.4,1-0.8
			c0.1-0.4-0.1-0.9-0.4-1.2c-3.3-2.3-6.6-4.6-10-7.1c0,0-0.6-0.4-0.6-0.4c-0.2-0.1-0.4-0.2-0.7-0.2c0,0-2.9,0.2-2.9,0.2
			c-56.9,2.9-85.6,9.9-87.9,21.4c-0.1,0.3,0,0.6,0.2,0.8c1.7,2.6,4.9,4.8,9.7,6.7c0.1,0.1,0.3,0.1,0.4,0.1
			C432.3,595.2,432.5,595.2,432.7,595.1z"/>
		<path class="st1" d="M547.2,352.9c-0.4,0-0.7-0.3-0.9-0.6c-8-17.2-21.3-33.5-40.9-49.6c-5.7-4.7-11.8-9.3-17.6-13.7
			c-14.3-10.7-29-21.9-40.3-36.1c-6-7.6-11.1-15.9-16.1-23.9c-8.3-13.5-16.8-27.4-29.6-37.7c-15.7-12.6-32-20-48.3-21.9
			c-0.5-0.1-0.9-0.4-1-0.9c-0.1-0.5,0.2-1,0.6-1.2c12.8-5.7,25.9-8.6,38.8-8.6c17.2,0,33.5,5.1,48.3,15.1
			c10.5,7.1,20.2,15.6,29.5,23.7c8,6.9,16.2,14.1,24.9,20.4c3.3,2.4,6.8,4.8,10.3,7.3c18.6,13,37.7,26.4,47.7,47
			c4.9,10.1,6.4,21,7.8,31.6c1.4,10.7,2.9,21.9,8.1,31.8c0.1,0.3,0.2,0.6,0.1,0.9c-0.1,0.3-0.3,0.5-0.6,0.6
			c-8.6,4-15.2,9.1-19.7,15.3c-0.2,0.3-0.5,0.5-0.9,0.5C547.3,352.9,547.3,352.9,547.2,352.9z"/>
		<path class="st1" d="M593.7,515.9c2.1-0.6,4.1-1.2,6.2-1.7c0.4-0.1,0.7-0.4,0.8-0.9c2.7-14.9,5.4-26.4,15.1-38.4
			c3.4-4.3,7.6-8.2,11.7-12c2.2-2.1,4.4-4.1,6.5-6.3c4.9-4.9,8.7-10.8,11.7-17.9c0.1-0.2,0.1-0.3,0.1-0.5c-0.1-0.7,0.2-1.4,0.8-2.1
			c0.1-0.1,0.2-0.2,0.2-0.4c2.3-6.2,3.9-12.8,5.1-17.8c3.8-16.6,8.4-32.5,23.2-44.7c5.5-4.5,12.3-8.2,19.4-12
			c9.6-5.1,19.4-10.4,26.3-18.2c0.4-0.4,0.4-1,0-1.4c-0.2-0.3-0.5-0.4-0.8-0.4c-0.2,0-0.4,0.1-0.6,0.2c-14.7,9-30.9,13.6-48.9,18.2
			c-16.7,4.3-35.1,11.2-45.4,30.4c-6,11.1-7.6,23.5-9.1,35.4c-1,7.7-2,15.7-4.3,23.2c-1.9,6.4-5.8,12.2-9.5,17.8
			c-1.8,2.8-3.7,5.6-5.4,8.5c-7.3,12.9-5.8,27.2-4.5,39.8c0,0.3,0.2,0.6,0.5,0.8c0.2,0.1,0.4,0.2,0.6,0.2
			C593.5,515.9,593.6,515.9,593.7,515.9z"/>
		<path class="st1" d="M581.2,520.3c2.8-1.2,5.7-2.3,8.8-3.2c0.5-0.2,0.8-0.6,0.8-1.2c-1-10-2.2-21.3,0.8-32.4
			c1.9-6.9,5.9-13,9.8-19c2.2-3.4,4.5-6.9,6.4-10.5c4.5-8.6,5.6-18.7,6.6-28.4c0.4-4,0.8-8.2,1.5-12.1c1.5-8.7,4.1-16.9,7.8-24.2
			c6-12.2,17.1-21.4,33-27.3c7.6-2.8,15.3-5,22.8-7.1c13.8-3.9,26.9-7.5,39.3-15c0.4-0.3,0.6-0.8,0.5-1.3c-0.1-0.5-0.6-0.8-1-0.8
			c0,0-0.1,0-0.1,0c-6.6,0.5-13.3,0.7-20.6,0.7c-16.8,0-33.9-1.3-50.4-2.6l-10.8-0.8c-6-0.4-12.1-0.7-17.9-0.7
			c-22.2,0-51.5,3.3-64.8,19.1c-6.2,7.4-8.4,16.9-6.4,28.3c0.9,4.9,2.3,9.5,3.7,14c2,6.4,3.9,12.4,4.2,19.3c0.4,7.4-1,15.1-2.4,22.6
			c-1,5.7-2.1,11.6-2.4,17.4c-0.7,14.5,7.3,25.6,14.9,36.4c6.1,8.5,12.4,17.4,14.3,27.8c0.1,0.3,0.3,0.6,0.6,0.8
			c0.2,0.1,0.3,0.1,0.5,0.1C580.9,520.3,581.1,520.3,581.2,520.3z"/>
		<path class="st1" d="M575,334.2c5.4-1.9,11.2-3.3,17.5-4.3c0.5-0.1,0.9-0.5,0.9-1.1c0-8.1,0.9-16.1,2.6-24.2l0.1-5.9
			c0.2-8.9,0.5-18.1-0.5-27.3c-1.4-13.9-4.8-28.4-10.8-45.6c-9.7-27.9-24.7-55.1-43.3-78.7c-7.7-9.8-16.4-19-24.8-27.9
			c-9.2-9.7-18.8-19.8-27-30.7c-12.8-17-20.5-36-23.4-58.1c-0.1-0.5-0.5-0.9-1.1-1c0,0,0,0,0,0c-0.5,0-1,0.4-1.1,0.9
			c-8.6,46.9,21.7,80.4,51,112.7c13,14.4,26.5,29.2,36.5,45.1c15.1,23.9,24.9,48.5,29.4,73.2c0.2,0.4,0.3,0.9,0.2,1.6l0.3,1.4
			c0.1,0.6,0.2,1.2,0.3,1.8c2.1,14.5,2.6,45.4-10.8,58.8c-0.1,0-0.3,0.2-0.3,0.2c-0.4,0.3-0.5,0.8-0.3,1.2c0.9,2.6,2,5.1,3.2,7.4
			c0.2,0.4,0.6,0.6,1,0.6C574.8,334.3,574.9,334.3,575,334.2z"/>
		<path class="st1" d="M599.1,291.7c0.5,0,0.9-0.3,1-0.7c0.5-1.4,1-2.8,1.6-4.1c0.1-0.2,0.1-0.4,0.1-0.6c-0.1-0.5-0.1-0.9,0.1-1.3
			c9.6-24.6,2.1-48.8-5.2-72.3c-2-6.5-4.1-13.3-5.8-19.9c-4.5-17.9-3-35.4,4.4-52.2c0.2-0.4,0.1-0.8-0.1-1.1
			c-0.3-0.4-0.5-0.9-0.5-1.3c-4.6-36.4-37.6-55.8-72.6-71.4C503.3,58.3,484,48,470,29.6c-0.2-0.3-0.5-0.4-0.9-0.4
			c-0.1,0-0.3,0-0.4,0.1c-0.5,0.2-0.7,0.7-0.7,1.2c3.4,24.7,13.4,46.1,31.3,67.2c6.4,7.5,13.2,14.8,19.8,21.9
			c10.9,11.6,22.1,23.6,31.5,36.9c15.4,21.7,27.9,46.1,37,72.3c4.6,13.4,7.8,26.7,9.3,39.6c1,8,1,15.8,1,22.3c0,0.5,0.4,1,0.9,1.1
			C599,291.7,599,291.7,599.1,291.7z"/>
		<path class="st1" d="M613.7,264.8c5-7.3,11-14.3,17.6-20.7c0.3-0.3,0.4-0.7,0.3-1.1c-4.9-15.4-2.3-32.1,0.5-46.7
			c3.3-16.8,8.9-32,17.7-47.7c3.8-6.8,8.1-13.5,12.6-20.6c14.8-23.2,30-47.2,29.5-74.2c0-0.5-0.4-1-0.9-1.1c-0.1,0-0.1,0-0.2,0
			c-0.4,0-0.9,0.3-1,0.7c-8,20.3-29.7,35.3-48.8,48.6c-8.4,5.8-16.3,11.3-22.8,16.9c-32.8,28.3-23.7,62-14.9,94.6
			c4.5,16.7,9.1,33.9,8.4,50.6c0,0.5,0.3,0.9,0.7,1.1c0.1,0,0.2,0.1,0.3,0.1C613.2,265.3,613.5,265.1,613.7,264.8z"/>
		<path class="st1" d="M634.4,241.3c2.7-2.4,5.5-4.8,8.4-7c0.3-0.3,0.4-0.8,0.3-1.2c-5.3-28.9,11.4-57.7,27.6-85.5
			c17.4-30,35.4-61,24.9-91.7c-0.2-0.4-0.6-0.7-1-0.7c-0.1,0-0.1,0-0.2,0c-0.5,0.1-0.9,0.5-0.9,1.1c-0.5,26.2-15.2,49.7-29.4,72.4
			l-2.6,4.1c-10.7,17.1-19.9,32.7-24.6,50.6c-4.8,18.1-9.4,39-4.3,57.5c0.1,0.4,0.4,0.7,0.8,0.8c0.1,0,0.2,0,0.3,0
			C634,241.6,634.2,241.5,634.4,241.3z"/>
		<path class="st1" d="M643.2,329.4c0.3,0,0.5-0.1,0.7-0.3c0.2-0.2,0.4-0.5,0.4-0.8c0.6-14.3,11.3-27.1,21.8-37.8
			c16.1-16.4,37-27,55.3-35.1c5.9-2.6,11.9-5.1,17.8-7.6c14.5-6.1,29.5-12.4,43.4-20.6c15.7-9.3,31.3-19.7,38.8-33.6
			c0.2-0.5,0.1-1-0.2-1.3c-0.2-0.2-0.5-0.3-0.7-0.3c-0.2,0-0.5,0.1-0.6,0.2c-1.7,1.2-3.5,2.4-5.7,3.7c-14.7,8.7-32.5,10.2-48,11
			c-5.2,0.3-10.3,0.4-15.3,0.6c-25.1,0.8-48.7,1.6-72.6,11.7c-47.7,20.2-78.8,62.8-79.2,108.6c0,0.3,0.1,0.6,0.4,0.8
			c0.2,0.2,0.5,0.3,0.7,0.3c0,0,0.1,0,0.1,0c2.5-0.2,4.9-0.4,7.2-0.5c2.7-0.1,5.5-0.1,8.2-0.1C623.6,328.4,632.1,328.7,643.2,329.4
			C643.1,329.4,643.2,329.4,643.2,329.4z"/>
		<path class="st1" d="M658.3,330.5c0.4,0,0.8-0.2,1-0.6c15.1-30.7,40-53.5,76.1-69.7c2.7-1.2,5.4-2.4,8.1-3.6
			c16.3-7.2,31.8-14,46.2-24.5c13-9.4,22.2-18.3,28.1-27.2c0.3-0.5,0.2-1.1-0.2-1.5c-0.2-0.2-0.4-0.2-0.7-0.2
			c-0.3,0-0.6,0.1-0.8,0.4c-5.2,5.7-11.4,10.6-17.3,15c-12.8,9.6-27.8,17.7-48.7,26.5l-7,2.9c-21.2,8.9-43.1,18-62.2,32
			c-12.7,9.3-34.2,28-35,48.5c0,0.6,0.4,1.1,1,1.1C650.7,330,654.4,330.2,658.3,330.5C658.2,330.5,658.2,330.5,658.3,330.5z"/>
		<path class="st1" d="M719.8,383.3c3.7-0.6,6.9-1.1,9.9-1.4c1.6-0.2,3.3-0.2,5-0.3c0.5,0,0.9-0.3,1-0.8c9.4-31,31.3-57.1,57.1-68.2
			c0.5-0.2,0.7-0.7,0.6-1.2c-0.1-0.5-0.5-0.9-1-0.9l-1,0c-19.6,0-37.2,16.9-43.9,24.1c-10.8,11.7-18.2,26.2-25.3,40.1
			c-1.2,2.3-2.4,4.6-3.6,6.9c-0.2,0.4-0.2,0.8,0.1,1.2c0.2,0.3,0.5,0.4,0.9,0.4C719.6,383.3,719.7,383.3,719.8,383.3z"/>
		<path class="st1" d="M608.2,512c7.4-1.8,15-3.7,22.3-6.3c2.5-0.9,5.3-2.3,8.9-4.3c0.2-0.1,0.4-0.3,0.5-0.5
			c6.5-15.3,13.8-31.5,24.7-45.6c11.2-14.5,28.1-25.1,50-31.7c10.8-3.2,22.1-4.8,33.1-6.4c11-1.5,22.3-3.1,33.1-6.4
			c14.2-4.2,28-12.3,43.2-25.5c0.4-0.3,0.5-0.9,0.2-1.4c-0.2-0.3-0.6-0.6-1-0.6c-0.1,0-0.2,0-0.4,0.1c-8.5,2.9-18.6,4.3-31.6,4.3
			c-7.2,0-14.2-0.4-21.1-0.8c-2.6-0.1-5.1-0.3-7.5-0.4c-3.9-0.2-7.7-0.3-11.3-0.3c-21.9,0-40.6,3.5-57,10.7
			c-14.7,6.4-23.9,18.2-32.8,29.6c-3.4,4.4-6.9,8.9-10.9,13.4c-3.3,8-7.4,14.6-12.8,20.6c-3,3.3-6.3,6.5-9.4,9.5
			c-2.9,2.8-6,5.7-8.8,8.8c-8.4,9.1-10.7,19.4-12.9,31.8c-0.1,0.4,0.1,0.7,0.4,1c0.2,0.2,0.5,0.3,0.8,0.3
			C608,512,608.1,512,608.2,512z"/>
		<path class="st1" d="M645,498l3.7-2.3c5.3-3.3,10.8-6.7,16.4-9.5c0.2-0.1,0.4-0.3,0.5-0.6c8.7-23.5,34.8-33.7,61.7-41.2
			c5.4-1.5,10.7-2.9,16.1-4.3c11.4-2.9,23.1-6,34.4-10c20.2-7.3,35.8-20.7,47.7-41.1c0.3-0.5,0.2-1-0.2-1.4
			c-0.2-0.2-0.5-0.3-0.7-0.3c-0.3,0-0.5,0.1-0.7,0.3c-10,8.4-19.5,14.8-29,19.5c-14.1,7-29.9,9.2-45.2,11.4
			c-4.2,0.6-8.3,1.2-12.4,1.9c-28.2,4.7-48.4,13.4-63.6,27.4c-14.3,13.2-22.8,31.4-30.3,48.9c-0.2,0.4-0.1,0.9,0.3,1.3
			c0.2,0.2,0.5,0.3,0.7,0.3C644.7,498.2,644.9,498.1,645,498z"/>
		<path class="st1" d="M606.1,613.7l3,0l3.7-0.1c0.3,0,0.6-0.1,0.8-0.4c0.2-0.2,0.3-0.6,0.3-0.9c-2.2-15.8-1.4-27.6,2.7-38.3
			c3.8-10,13.3-17.7,21.6-24.4c2-1.6,3.9-3.2,5.7-4.7c8.6-7.4,14.4-17.4,19.9-27.1c6.7-11.7,13.1-22.8,24.2-29.7
			c0.4-0.2,0.6-0.7,0.5-1.2c-0.1-0.5-0.5-0.8-0.9-0.9c-0.8-0.1-1.7-0.2-2.6-0.2c-11.5,0-26.4,9.2-38.3,16.6
			c-5.9,3.7-11.1,6.8-15,8.5c-7.8,3.3-16.4,5.4-24.8,7.4c-6,1.4-12.2,2.9-18.1,4.9c-15.4,5.1-25.1,13.1-28.1,23.1
			c-2.7,9,0.2,19,8.6,29.6c2.9,3.7,6,7.1,8.9,10.4c7.4,8.2,14.3,16,18.3,26.5c0.2,0.4,0.6,0.7,1,0.7
			C600.4,613.7,603.3,613.7,606.1,613.7z"/>
		<path class="st1" d="M616.7,613.6c3.3,0,6.5-0.1,9.8-0.1c0.6,0,1-0.5,1.1-1c1-20,12.8-37.5,25.4-53.5c2.6-3.3,5.5-6.5,8.6-10
			c7.5-8.3,15.2-17,18.9-26.6c1.9-4.9,3.2-9.8,4.4-14.6c1.5-5.7,2.9-11,5.2-16.4c0.2-0.4,0.1-1-0.3-1.3c-0.2-0.2-0.5-0.3-0.7-0.3
			c-0.2,0-0.4,0.1-0.6,0.2c-10.7,6.9-16.7,17.9-22.6,28.5c-4.2,7.6-8.5,15.4-14.4,21.7c-3.9,4.2-8.4,7.9-12.7,11.5
			c-5,4.2-10.2,8.5-14.6,13.5c-11.8,13.6-10.8,32.5-8.6,47.4C615.7,613.2,616.2,613.6,616.7,613.6
			C616.7,613.6,616.7,613.6,616.7,613.6z"/>
		<path class="st1" d="M634.3,613.3c1.4,0,2.8-0.1,4.2-0.2l2.9-0.1c0.4,0,0.8-0.3,0.9-0.6c0.9-1.9,1.6-4.2,2.2-6.5
			c0.5-1.8,1-3.6,1.6-4.8c2.2-4.9,5.2-9.9,8.7-14.4c8.2-10.5,18.1-18.6,30.3-24.7c5.8-2.9,12.1-5.2,18.9-7.6
			c13.3-4.8,27.1-9.8,36.5-20.1c0.5-0.7,1-1.3,1.5-2c0.3-0.4,0.3-0.9,0-1.3c-0.2-0.3-0.5-0.4-0.9-0.4c-0.1,0-0.2,0-0.3,0.1
			c-5.3,1.7-11,2.5-17.9,2.5c-4.7,0-9.3-0.4-14.3-0.7c-5-0.4-10.2-0.8-15.5-0.8c-3.4,0-6.5,0.2-9.6,0.5c-0.2,0-0.4,0-0.7-0.1
			c-0.1,0-0.2,0-0.2,0c-0.4,0-0.7,0.2-0.9,0.5c-1.8,2.7-4,5.3-6.1,7.8c-0.8,0.9-1.6,1.9-2.3,2.8c-2.1,2.6-4.4,5.3-6.7,8
			c-15,17.8-32,37.9-33.4,61.4c0,0.3,0.1,0.6,0.3,0.8C633.7,613.2,634,613.3,634.3,613.3C634.3,613.3,634.3,613.3,634.3,613.3z"/>
		<path class="st1" d="M649,612.7c2.1-0.1,4.1-0.1,6.2-0.2c0.4,0,0.8-0.3,1-0.7c8.7-22.2,27.9-34.6,46.4-46.6
			c7.4-4.8,15.1-9.7,22.1-15.3c0.4-0.3,0.5-1,0.2-1.4c-0.2-0.3-0.6-0.5-0.9-0.5c-0.2,0-0.3,0-0.5,0.1c-6.2,3-12.9,5.4-19.3,7.8
			c-2.6,0.9-5.1,1.9-7.5,2.8c-15.3,5.9-27.5,14-37.3,24.9c-4.4,4.9-8.2,10.7-11.9,18.4c-0.8,1.6-1.3,3.6-1.9,5.6
			c-0.4,1.2-0.7,2.5-1.1,3.7c-0.1,0.3-0.1,0.7,0.2,1c0.2,0.3,0.5,0.4,0.9,0.4C645.4,612.9,649,612.7,649,612.7z"/>
		<path class="st1" d="M589.2,613.6c0.4,0,0.7-0.2,0.9-0.5c0.2-0.3,0.2-0.7,0.1-1.1c-4-8.4-10.6-15.6-17.1-22.5
			c-8.7-9.3-16.9-18.1-19.2-29.9c0-0.2-0.2-0.4-0.3-0.6c-16.9-15-37.2-24.3-54.8-31.4c-0.1-0.1-0.3-0.1-0.4-0.1
			c-0.2,0-0.4,0.1-0.6,0.2c-0.3,0.2-0.5,0.5-0.5,0.9c0.1,11.9,5.9,22.4,17.9,32.1c0.3,0.1,0.5,0.3,0.9,0.8
			c5.9,4.6,12.2,8.5,18.8,12.4c15.9,9.5,28.5,21.7,38.3,37.3c0.2,0.4,0.4,0.8,0.4,1.2c0.1,0.5,0.5,1,1.1,1
			C579.5,613.4,584.4,613.5,589.2,613.6C589.2,613.6,589.2,613.6,589.2,613.6z"/>
		<path class="st1" d="M552.7,550.4c0.4-0.2,0.6-0.5,0.7-0.9c0.5-4.8,2.3-9.3,5.1-13.2c0.2-0.3,0.3-0.8,0.1-1.1
			c-5.4-11-17.6-18.3-27.5-24.2l-1.5-0.9c-6.8-4.1-14-7.8-22-11.3c-5.7-2.6-11.5-5-17.3-7.4c-11.2-4.7-22.8-9.6-33.8-15.3
			c-23.1-11.8-50-32-46.4-61.2c0.1-0.4-0.3-0.7-0.7-0.9c-0.1-0.1-0.3-0.1-0.5-0.1c-0.3,0-0.7,0.1-0.9,0.3c-2.6,1.7-5.5,2.9-8.4,4.1
			c-6.7,2.9-13.6,5.8-16.1,14.4c-5.9,20.2,15.6,36.7,24.8,43.8c15.6,12,34.5,23,56.1,32.7c9.2,4.1,18.7,7.8,27.8,11.3
			c21.2,8.1,41.3,15.8,59.3,29.8c0.2,0.2,0.4,0.2,0.7,0.2C552.5,550.5,552.6,550.5,552.7,550.4z"/>
		<path class="st1" d="M560.3,533.6c0.3,0,0.6-0.1,0.8-0.3c3.3-3.5,7.7-6.7,13-9.6c0.4-0.2,0.6-0.8,0.5-1.2
			c-0.1-1.4-0.4-2.8-0.7-4.5c-0.1-0.5-0.5-0.8-0.9-0.8c0,0-0.6-0.1-0.6-0.1c-30.6-10.6-37-32.8-44.5-58.5
			c-2.8-9.6-5.7-19.5-10.1-29.3c-9.3-20.8-28.7-32.5-57.9-34.7c-2.2-0.2-4.3-0.2-6.5-0.2c-8.2,0-16.4,1.2-24.5,3.5
			c-6.5,1.9-10.1,5.8-13.5,9.6c-0.8,0.9-1.7,1.9-2.5,2.8c-0.1,0.1-0.2,0.3-0.3,0.5c-7.8,35.1,26.8,56.1,57.9,70.4
			c7,3.2,14.2,6.2,21.1,9.1c8.7,3.6,17.6,7.4,26.2,11.5c16,7.7,33.6,17.2,41.4,31.3c0.2,0.3,0.5,0.5,0.8,0.6
			C560.2,533.6,560.3,533.6,560.3,533.6z"/>
		<path class="st1" d="M542.6,362.2c0.3-0.1,0.6-0.4,0.7-0.7c0.6-1.7,1.4-3.4,2.5-5.4c0.2-0.3,0.2-0.7,0.1-1
			c-11.9-28-35.5-46.3-58.2-64c-12.8-9.9-26-20.2-37-32.1c-8.1-8.7-14.3-19-20.4-29c-6.2-10.2-12.6-20.8-21.1-29.8
			c-16.1-17.1-38.2-28.2-59.2-29.6c0,0,0,0-0.1,0c-0.5,0-0.9,0.3-1,0.7c-0.2,0.5,0,1,0.4,1.3c8,5.9,11.8,15.5,15,24.8
			c5.7,16.5,12.7,25.5,27,34.4c10.9,6.8,20.6,13,29.8,20.9c12.4,10.7,22.2,24.1,31.6,37.1c6.8,9.4,13.8,19.1,21.8,27.7
			c11.2,12,25.7,20,39.7,27.7c9.3,5.1,18.9,10.3,27.4,16.7c0.2,0.1,0.4,0.2,0.7,0.2C542.4,362.3,542.5,362.3,542.6,362.2z"/>
		<path class="st2" d="M663.7,612c-0.4,0-0.7-0.2-0.9-0.5c-0.2-0.3-0.3-0.7-0.1-1.1c4.7-10.5,12.1-19.5,23.4-28.4
			c0.2-0.2,0.4-0.2,0.7-0.2c0,0,0.1,0,0.1,0c17.1,1.6,31.2,3.4,44.4,5.5l2.9,0.5c11.9,1.9,24.1,3.8,34.8,9.4
			c0.4,0.2,0.6,0.7,0.6,1.1c-0.1,0.5-0.4,0.8-0.8,0.9c-6.7,1.5-13.5,2.6-18,3.3c-1.5,0.2-2.8,0.4-3.8,0.6
			c-14.3,2.5-28.8,4.4-43.2,5.8C691.2,610.2,678.2,611.2,663.7,612C663.7,612,663.7,612,663.7,612z"/>
		<path class="st2" d="M565.7,613c0.4,0,0.8-0.2,1-0.6c0.2-0.4,0.2-0.8-0.1-1.1c-9.7-14.3-21.9-23.2-35.6-32.6
			c-0.2-0.1-0.4-0.2-0.6-0.2c0,0,0,0,0,0c-18.3,0.7-36.5,3.4-52.2,5.8c-12.2,1.9-27.3,4.2-40,11.1c-0.4,0.2-0.6,0.6-0.6,1.1
			c0,0.4,0.4,0.8,0.8,0.9c6.4,1.8,13.4,3,18.6,3.9c2.1,0.4,3.9,0.7,5.4,1c15.9,3.3,31.8,5.2,45.3,6.7
			C525.6,611,544.6,612.3,565.7,613C565.7,613,565.7,613,565.7,613z"/>
		<path class="st3" d="M600.4,724.4c-40.3-0.2-79.7-1-118.1-8.2c-1.4-0.3-3.1-0.5-4.8-0.8c-10.8-1.7-25.7-4-27.4-14.6
			c-1.4-8.8-3.8-17.7-6-26.2l-1.2-4.5c-2.8-10.8-5.8-21.6-8.7-32.4c-3.4-12.6-7-25.6-10.3-38.5c-0.1-0.4,0-0.9,0.4-1.1
			c0.2-0.2,0.4-0.2,0.7-0.2c0.2,0,0.3,0,0.5,0.1c5.3,2.7,11.8,4.2,17,5.5l2.3,0.6c15.2,3.8,31.1,6.7,48.6,8.9
			c31.9,4,64.8,6,100.8,6.3c0.5,0.1,0.8,0.1,1.1,0.1c0.2,0,0.5,0,0.7-0.1l7.1,0c3.9,0,7.8,0,11.7-0.1c44.2-0.5,80.1-2.9,112.9-7.5
			c2.2-0.3,5.2-0.6,8.5-1c14.4-1.5,38.4-4.1,52.3-11.7c0.2-0.1,0.3-0.1,0.5-0.1c0.2,0,0.5,0.1,0.7,0.2c0.3,0.3,0.5,0.7,0.4,1.2
			c-2.3,8.2-4.8,16.4-7.2,24.6c-5.5,18.7-11.2,38-15.9,57.2c-0.3,1.3-0.7,2.8-1.1,4.2c-1.6,5.7-3.3,12.1-2.2,17.4
			c0.2,0.8,0,1.6-0.5,2.4c-1.7,2.7-7.9,5.1-18.9,7.6c-0.8,0-1.2,0.1-1.5,0.3c-12.1,2.6-25.3,4.2-29.1,4.7
			c-32.9,3.8-68,5.7-107.3,5.7C606.2,724.4,600.4,724.4,600.4,724.4z"/>
		<path class="st4" d="M569.5,509.9c-0.1,0-0.3,0-0.4-0.1c-24.2-10.4-29.8-30.7-35.2-50.3c0-0.2-0.1-0.4,0-0.5c0-0.2,0-0.4,0-0.6
			c-0.2-0.4-0.4-0.8-0.5-1.2l-0.2-0.5c-0.8-3-1.7-5.9-2.5-8.9c-1.8-10.3-0.5-21,0.8-31.5c0.5-4.4,1.1-8.6,1.4-12.8
			c1.1-16.1,0.2-29-2.7-40.7c-0.1-0.4,0.1-0.9,0.4-1.2c0.2-0.1,0.4-0.2,0.6-0.2c0.2,0,0.4,0.1,0.6,0.2c3.6,2.4,6.7,4.7,9.4,6.9
			c0.3,0.2,0.4,0.6,0.4,1c-0.9,7.1,0.1,14.5,3.3,23.3c5.7,15.9,4,29,2.1,44.1c-0.3,2.3-0.6,4.6-0.9,7c-1.2,10.5-1.8,23.9,4.7,34.9
			c2.5,4.2,5.6,8.4,8.6,12.4c4.1,5.4,8.3,11,11.3,17.1c0.2,0.4,0.1,0.9-0.2,1.2C570.1,509.8,569.8,509.9,569.5,509.9z"/>
		<path class="st4" d="M569.2,317.9c0.4,0,0.7-0.2,0.9-0.5c7.7-11.6,7.7-31,7-44.7c-0.1-2.5-0.4-5.1-0.8-8.3c0-0.2-0.1-0.5-0.3-0.6
			c-10.9-10.6-23.8-18.2-38.5-22.4c-0.1,0-0.2,0-0.3,0c-0.4,0-0.8,0.2-1,0.6c-0.2,0.4-0.2,1,0.2,1.3c4.6,4.2,8.2,7.8,11.2,11.4
			c7.5,8.8,12.8,19.4,16,31.4c1.6,6,2.2,12.3,2.9,18.3c0.4,4.2,0.9,8.5,1.6,12.7c0.1,0.4,0.4,0.8,0.9,0.9
			C569.1,317.9,569.2,317.9,569.2,317.9z"/>
		<path class="st4" d="M709.2,204.2c7.9-1.1,16.6-1.2,23.4-1.2c3.7,0,7.6,0,11.4,0.1c3.9,0,7.9,0.1,11.8,0.1c0,0,0,0,0,0
			c24.6,0,52.1-1.7,67-21.4c1.8-2.3,1.5-4.2,0.9-5.4c-3.7-7.5-30.6-8.3-30.9-8.3l-1.4,0c-12.5,0-24.9,3.1-35.5,6
			c-18.6,5.1-32.5,15-47.7,28.3c-0.4,0.3-0.5,0.8-0.3,1.3c0.2,0.4,0.6,0.6,1,0.6C709.1,204.2,709.2,204.2,709.2,204.2z"/>
		<path class="st4" d="M658.8,421.2c7.1-9.2,13.2-16.7,21.8-22.7c9.2-6.5,21.1-11.4,34.4-14.3c0.3-0.1,0.6-0.3,0.7-0.6
			c1.6-3,3.1-6,4.7-9c8.5-16.4,17.2-33.3,30.8-46.2c6.7-6.3,20.2-17.3,35.8-19.3c0.5-0.1,0.9-0.5,1-1c0-0.5-0.3-1-0.8-1.1
			c-3.7-1.1-7.7-1.7-11.9-1.7c-12.1,0-24.5,4.5-36.5,8.8c-4.8,1.8-9.4,3.4-13.9,4.8c-7.5,2.2-15.1,3.3-23.3,3.3
			c-8.8,0-18.1-1.3-28.5-3.9c-0.1,0-0.2,0-0.3,0c-0.4,0-0.7,0.2-0.9,0.5c-2.2,3.4-4.3,7-6.2,10.6c-0.2,0.3-0.2,0.7,0,1
			c0.2,0.3,0.5,0.5,0.9,0.6c11.3,0.8,23.5,1.6,35.5,1.6c10.1,0,19.3-0.5,28.1-1.7c0.7,0,1.5,0.5,2,1.3c0.5,0.7,0.6,1.5,0.4,2.1
			c-5.4,12.8-15.3,19.2-26.8,26.5l-0.6,0.4c-3.7,2.4-7.7,4.6-11.5,6.8c-3.6,2-7.4,4.2-11,6.4c-15,9.5-20.5,24.4-24.2,39l-1.7,6.6
			c-0.1,0.5,0.1,1,0.6,1.3c0.2,0.1,0.3,0.1,0.5,0.1C658.3,421.6,658.6,421.5,658.8,421.2z"/>
		<path class="st4" d="M527.3,435.6c0.5-0.1,0.9-0.5,0.9-1c0.2-5.7,0.8-11.5,1.4-17.2l0.1-1.3c2-18.5,3.1-38.2-2.7-57.2
			c-0.1-0.3-0.2-0.5-0.5-0.6c-5.7-3.5-11.6-6.8-17.3-9.9c-10.3-5.7-20.9-11.5-30.3-19c-10.4-8.3-18.6-18.8-25.9-28.8
			c-0.2-0.2-0.4-0.4-0.7-0.4c-4.3-0.7-8.5-1.4-12.8-2c-15.3-2.3-29.8-4.4-44-10.7c-15.8-7-27.4-16.1-35.5-27.8
			c-0.1-0.2-0.8-0.5-1-0.6c-0.1-0.1-0.3-0.1-0.4-0.1c-0.3,0-0.5,0.1-0.7,0.3c-0.3,0.3-0.4,0.7-0.3,1.1
			c11.5,35.8,45.1,51.4,77.7,66.6c39.4,18.3,76.6,35.6,78.6,85.7c0,0.2,0.1,0.5,0.2,0.7c4.6,6,8.6,13.3,11.9,21.6
			c0.2,0.4,0.6,0.7,1,0.7C527.2,435.7,527.3,435.7,527.3,435.6z"/>
		<path class="st4" d="M449,297.9c0.4,0,0.7-0.2,0.9-0.5c0.2-0.4,0.2-0.9,0-1.2l-2.7-3.8c-5.3-7.4-10.7-15.1-16.6-22
			c-2.6-3.1-5.7-6.2-9.2-9.3c-0.2-0.2-0.5-0.3-0.7-0.3c-0.1,0-0.2,0-0.3,0c-11.3,2.8-21.4,4.2-30.8,4.2c-8.3,0-16.2-1.1-23.4-3.3
			c-0.1,0-0.2,0-0.3,0c-0.4,0-0.7,0.2-0.9,0.5c-0.3,0.4-0.2,0.9,0.1,1.3c8.7,10.4,20.6,18.5,36.5,24.7c12.5,4.9,25.7,6.7,38.4,8.5
			c2.9,0.4,5.9,0.8,8.8,1.3C448.9,297.9,449,297.9,449,297.9z"/>
		<g>
			<path class="st5" d="M633.4,241.5c0.1,0,0.2,0,0.3,0c0.3,0,0.5-0.1,0.7-0.3c2.7-2.4,5.5-4.8,8.4-7c0.3-0.3,0.4-0.8,0.3-1.2
				c-0.3-1.8-0.6-3.6-0.7-5.4c-3.3-0.5-6.3-2.6-8.1-5.7c-1.5-2.5-2.1-5.4-2.2-8.2c-0.1-1.7,0.1-3.3,0.2-4.9c0.1-0.7,0.1-1.5,0.1-2.2
				c0.1-0.9,0-2.2,0.4-3c0.2-0.3-0.3-0.4-0.3-0.1c-0.1,0-0.1,0-0.1,0.1c-2.2,12.5-3,25.4,0.3,37.3
				C632.8,241.1,633,241.4,633.4,241.5z"/>
			<path class="st5" d="M591.3,209.5c3.7,11.3,8.4,22,9.7,34c0.7,5.9,0.7,11.9-0.6,17.8c-0.7,3.1-2.2,6.5-3,9.9
				c-0.1-0.8-0.3-1.6-0.4-2.4c0.9,7.8,1,15.4,0.9,21.8c0,0.5,0.4,1,0.9,1.1c0.1,0,0.1,0,0.2,0c0.5,0,0.9-0.3,1-0.7
				c0.5-1.4,1-2.8,1.6-4.1c0.1-0.2,0.1-0.4,0.1-0.6c-0.1-0.5-0.1-0.9,0.1-1.3c9.6-24.6,2.1-48.8-5.2-72.3c-2-6.5-4.1-13.3-5.8-19.9
				c-1-3.9-1.6-7.8-2-11.6C587.7,190.7,588.3,200.1,591.3,209.5z"/>
			<path class="st5" d="M514.3,345.4c9.3,5.1,18.9,10.3,27.4,16.7c0.2,0.1,0.4,0.2,0.7,0.2c0.1,0,0.2,0,0.3,0
				c0.3-0.1,0.6-0.4,0.7-0.7c0.6-1.7,1.4-3.4,2.5-5.4c0.2-0.3,0.2-0.7,0.1-1c-1.2-2.8-2.5-5.5-3.9-8.1c-9.8-1.1-17.4-6.1-26-11.2
				c-8-4.8-16.9-7-25.1-11.3c-7.7-4-14.2-9.5-20.7-15.2c-3.3-2.9-6.7-5.9-9.9-9.2c4.5,6,9.1,11.9,14.2,17.4
				C485.7,329.7,500.2,337.7,514.3,345.4z"/>
			<path class="st5" d="M524.5,533.8c9.5,4.5,18.5,9.8,27.1,16.4c0.2,0.2,0.4,0.2,0.7,0.2c0.1,0,0.3,0,0.4-0.1
				c0.4-0.2,0.6-0.5,0.7-0.9c0.5-4.8,2.3-9.3,5.1-13.2c0.2-0.3,0.3-0.8,0.1-1.1c-5.4-11-17.6-18.3-27.5-24.2l-1.5-0.9
				c-2.7-1.6-5.4-3.1-8.2-4.6c0,0-0.1,0-0.1,0c-1.8-0.6-3.4-1.4-5-2.4c-0.5-0.3-1.1-0.7-1.6-1c-2.3-1.1-4.7-2.2-7.1-3.3
				c-1.3-0.6-2.6-1.1-3.9-1.7c1.1,1.6,2.3,2.6,3.8,3.8c2,1.6,3.9,3.3,5.7,5.1c1.6,1.6,3.1,3.3,4.6,5c1.6,1.8,3.4,3.4,4.9,5.2
				c2.7,3.3,4.7,8.1,3.7,12.3C526.1,530.4,525.3,532.2,524.5,533.8z"/>
			<path class="st5" d="M647,329.7c3.7,0.3,7.5,0.5,11.2,0.8c0,0,0.1,0,0.1,0c0.4,0,0.8-0.2,1-0.6c5-10.1,11-19.4,18.2-27.8
				c-3.7,1.9-7.4,3.9-10.8,6.4c-2.8,2-5.5,4.1-8.5,5.7c-1.5,0.8-3.2,1.6-4.9,1.7c-0.7,0-1.9,0.1-3-0.1c-0.1,0-0.1-0.1-0.1-0.1
				c-0.2-0.2-0.2-0.2-0.5-0.3c0,0,0.1,0,0.1,0.1c-0.2-0.1-0.3-0.2-0.5-0.3c-1.9,4.3-3.1,8.8-3.3,13.4
				C645.9,329.1,646.4,329.6,647,329.7z"/>
			<path class="st5" d="M569.1,193.4c8.6,8.6,8.8,23.8,11.5,35.1c1.5,6.3,3.1,12.2,3.7,18.7c0.5,6,0.7,12,0.8,18
				c0.1,11.1-0.9,22.4-2.5,33.3c-0.5,3.7-1.6,7.5-3,11.1c-1.9,6-4.5,11.4-8.4,15.2c-0.1,0-0.3,0.2-0.3,0.2c-0.4,0.3-0.5,0.8-0.3,1.2
				c0.9,2.6,2,5.1,3.2,7.4c0.2,0.4,0.6,0.6,1,0.6c0.1,0,0.2,0,0.4-0.1c5.4-1.9,11.2-3.3,17.5-4.3c0.5-0.1,0.9-0.5,0.9-1.1
				c0-8.1,0.9-16.1,2.6-24.2l0.1-5.9c0.2-8.9,0.5-18.1-0.5-27.3c-1.4-13.9-4.8-28.4-10.8-45.6c-4.2-12-9.4-23.9-15.4-35.4
				C568.5,191,567.8,192.2,569.1,193.4z"/>
			<path class="st5" d="M681,566.2c-8.3,4.8-15.4,10.6-21.6,17.5c-4.4,4.9-8.2,10.7-11.9,18.4c-0.8,1.6-1.3,3.6-1.9,5.6
				c-0.4,1.2-0.7,2.5-1.1,3.7c-0.1,0.3-0.1,0.7,0.2,1c0.2,0.3,0.5,0.4,0.9,0.4c0,0,3.6-0.1,3.6-0.1c2.1-0.1,4.1-0.1,6.2-0.2
				c0.4,0,0.8-0.3,1-0.7c0.2-0.5,0.4-0.9,0.6-1.3c0-1.1,0-2.1,0-3.2c0.1-3.2,0.2-6.1,1.5-9.1c1-2.4,2.2-4.8,3.5-7
				c2.9-5,6.4-9.7,10.2-14.1c2-2.3,4.3-4.4,6.3-6.7C679.3,569.1,680.6,567.8,681,566.2z"/>
			<path class="st5" d="M767.3,430.1c-1.8,0.5-3.5,1.1-5.2,1.8c-9.5,2.1-19.1,3.9-28.5,5.9c-10.6,2.2-20.5,4.9-30.4,9.3
				c-5.3,2.4-9.7,5.9-14.8,8.6c-2.5,1.4-5,2.6-7.5,3.9c-2,1-3.9,2.1-6,2.7c-0.5,0.1-0.9,0.3-1.4,0.4c-3.1,1.3-5.3,0-6.4-4.1
				c1.1-1.1-0.1-2.5-1.2-2.5c-0.5,0.6-1,1.2-1.4,1.7c-0.1,0.4-0.1,0.8-0.1,1.1c-1,0.9-1.8,2-2.6,3c-0.6,0.8-1.3,1.6-1.8,2.5
				c-0.5,0.9-1,1.6-1.6,2.3c-5.8,9.4-10.5,19.6-14.8,29.7c-0.2,0.4-0.1,0.9,0.3,1.3c0.2,0.2,0.5,0.3,0.7,0.3c0.2,0,0.4-0.1,0.6-0.2
				l3.7-2.3c5.3-3.3,10.8-6.7,16.4-9.5c0.2-0.1,0.4-0.3,0.5-0.6c8.7-23.5,34.8-33.7,61.7-41.2c5.4-1.5,10.7-2.9,16.1-4.3
				c11.4-2.9,23.1-6,34.4-10c5.6-2,10.8-4.5,15.7-7.5c-8,3.2-16.2,5.6-24.5,7.7C768.6,430,768,429.9,767.3,430.1z"/>
			<path class="st5" d="M573.2,589.5c-8.7-9.3-16.9-18.1-19.2-29.9c0-0.2-0.2-0.4-0.3-0.6c-16.9-15-37.2-24.3-54.8-31.4
				c-0.1-0.1-0.3-0.1-0.4-0.1c-0.2,0-0.4,0.1-0.6,0.2c-0.3,0.2-0.5,0.5-0.5,0.9c0,2.2,0.3,4.3,0.7,6.4c1.3,1.2,2.6,2.5,4.1,3.3
				c0.8,0.5,1.7,0.9,2.6,1.2c0.9,0.4,1.9,0.6,2.9,0.8c0.4,0.1,0.8,0.2,1.3,0.2c1.8,1,3.7,2,5.6,2.8c6.5,2.6,13.3,4,19.5,7.1
				c6,3,12.9,5.8,15.3,12.5c1.7,4.7,3.3,9.1,5.9,13.3c5.2,8.5,12.4,15.5,18.4,23.5c3.4,4.5,6.7,9.1,9.9,13.7c1.9,0,3.8,0.1,5.6,0.1
				c0,0,0,0,0,0c0.4,0,0.7-0.2,0.9-0.5c0.2-0.3,0.2-0.7,0.1-1.1C586.3,603.6,579.6,596.4,573.2,589.5z"/>
			<path class="st5" d="M644.7,605.3C644.7,605.3,644.7,605.3,644.7,605.3c0.5-1.7,0.9-3.2,1.4-4.3c0.4-0.8,0.8-1.7,1.2-2.5
				c0,0-0.1,0-0.1,0c-0.8,0.7-1.3,1.7-1.7,2.5c0.5-1.2,1.1-2.4,1.8-3.5c0.1,0,0.1-0.1,0.1-0.1c0,0,0,0,0-0.1
				c0.1-0.2,0.3-0.5,0.4-0.7c0.2-0.3-0.1-0.5-0.4-0.5c0.3-8.1,3.4-14.8,9-20.8c5.4-5.8,12.1-10.3,17.8-15.8
				c5.2-5,9.1-10.6,12.9-16.7c1.8-2.9,3.6-5.7,5-8.9c0.3-0.8,0.8-1.7,1.2-2.7c0,0-0.1,0-0.1,0c-3.4,0-6.5,0.2-9.6,0.5
				c-0.2,0-0.4,0-0.7-0.1c-0.1,0-0.2,0-0.2,0c-0.4,0-0.7,0.2-0.9,0.5c-1.8,2.7-4,5.3-6.1,7.8c-0.8,0.9-1.6,1.9-2.3,2.8
				c-2.1,2.6-4.4,5.3-6.7,8c-15,17.8-32,37.9-33.4,61.4c0,0.3,0.1,0.6,0.3,0.8c0.2,0.2,0.5,0.3,0.8,0.3c0,0,0,0,0,0
				c1.4,0,2.8-0.1,4.2-0.2l2.9-0.1c0.4,0,0.8-0.3,0.9-0.6c0.9-1.9,1.6-4.2,2.2-6.5C644.6,605.7,644.6,605.5,644.7,605.3z"/>
			<path class="st5" d="M613.7,613.2c0.2-0.2,0.3-0.6,0.3-0.9c-1-7.5-1.4-14.1-1-20.1c-0.5,2.6-0.9,5.2-1.2,7.7
				c0,0.4-0.1,0.7-0.1,1.1c-0.4-3.5-0.4-7-0.2-10.4c0-0.1-0.1-0.1-0.2-0.2c-0.1-0.6-0.1-1.2-0.4-1.8c-0.1-0.2-0.3-0.2-0.3,0
				c-1.3,3-4.7,6.3-8.1,6.3c-3.7,0-6.5-4.4-8.8-6.9c-5.3-5.7-10.6-11.5-15-18c-6.6-9.5-13.6-22.7-11.2-34.7
				c-3.3,3.3-5.6,6.9-6.7,10.9c-2.7,9,0.2,19,8.6,29.6c2.9,3.7,6,7.1,8.9,10.4c7.4,8.2,14.3,16,18.3,26.5c0.2,0.4,0.6,0.7,1,0.7
				c2.8,0,5.7,0,8.5,0l3,0l3.7-0.1C613.2,613.6,613.5,613.5,613.7,613.2z"/>
			<path class="st5" d="M627.9,591.9c-1.4-3.9-2.1-8-2.3-12.2c-0.2-4.1,0.5-8,1.8-11.9c1-2.9,2.1-5.7,2.8-8.6
				c-1.3,1.2-2.6,2.5-3.8,3.8c-0.2,0.6-0.4,1.1-0.6,1.7c-0.4,0-0.8,0-1.2,0.1c-0.1,0.1-0.2,0.2-0.3,0.3c-2.9,3.3-5,7-6.5,10.8
				c0,0,0,0.1,0,0.1c0,0.2,0.1,0.3,0.1,0.4c-0.1,0.3-0.3,0.5-0.4,0.8c-0.4,0.7-0.6,1.5-0.9,2.3c-3.3,10.9-2.3,22.9-0.9,33.1
				c0.1,0.5,0.5,0.9,1.1,0.9c0,0,0,0,0,0c3.3,0,6.5-0.1,9.8-0.1c0.6,0,1-0.5,1.1-1c0.3-5.2,1.2-10.2,2.8-15
				C629.4,595.6,628.6,593.8,627.9,591.9z"/>
			<path class="st5" d="M606,132.3c-17.8,25.3-10.1,53.7-2.7,81.3c4.5,16.7,9.1,33.9,8.4,50.6c0,0.5,0.3,0.9,0.7,1.1
				c0.1,0,0.2,0.1,0.3,0.1c0.4,0,0.7-0.2,0.9-0.5c5-7.3,11-14.3,17.6-20.7c0.3-0.3,0.4-0.7,0.3-1.1c-0.9-2.8-1.4-5.6-1.9-8.5
				c-0.2,0-0.4,0.1-0.5,0.3c-2.1,3.5-6.2,3.9-9.3,1.9c-3.1-1.9-3.5-4.7-4.1-8.1c-0.9-5.5,0.1-11-0.3-16.6
				c-0.8-9.5-5.1-18.3-8.6-27.1c-5.3-13.8-6.7-28.3-4.3-42.4C603.8,139.3,605.2,135.8,606,132.3z"/>
			<path class="st5" d="M690.4,269.2c-2.4,1.1-4.6,2.5-6.7,4.1c-2.6,1.5-5.2,3-7.5,4.4c-8.4,5.1-16.2,11.1-24.7,16
				c-8.3,4.8-15.4,11.6-24.1,15.8c-5.5,2.7-11.9,4.4-17.9,2c-3.7-1.5-6.1-3.9-7.5-7c-1.8,7.6-2.9,15.4-2.9,23.3
				c0,0.3,0.1,0.6,0.4,0.8c0.2,0.2,0.5,0.3,0.7,0.3c0,0,0.1,0,0.1,0c2.5-0.2,4.9-0.4,7.2-0.5c2.7-0.1,5.5-0.1,8.2-0.1
				c8,0,16.5,0.3,27.5,1.1c0,0,0,0,0.1,0c0.3,0,0.5-0.1,0.7-0.3c0.2-0.2,0.4-0.5,0.4-0.8c0.2-4.8,1.6-9.5,3.7-13.9
				c-0.1-0.1-0.3-0.1-0.4-0.2c0.5-1.2,1-2.5,1.7-3.7c1.7-2.9,3.7-5.7,5.8-8.2c2.7-3.2,5.6-6.3,8.6-9.3c0.8-0.9,1.6-1.7,2.4-2.5
				c0.6-0.6,1.2-1.1,1.8-1.7c0.2-0.2,0.3-0.3,0.5-0.5c0.2-0.2,0.5-0.5,0.8-0.7c8.4-7.9,17.9-14.4,27.5-19.9
				c-0.2,0.1-0.4,0.1-0.6,0.1C694.6,267.1,691.6,268.6,690.4,269.2z"/>
			<path class="st5" d="M560.2,533.6c0,0,0.1,0,0.1,0c0.3,0,0.6-0.1,0.8-0.3c3.3-3.5,7.7-6.7,13-9.6c0.4-0.2,0.6-0.8,0.5-1.2
				c-0.1-1.4-0.4-2.8-0.7-4.5c-0.1-0.5-0.5-0.8-0.9-0.8c0,0-0.6-0.1-0.6-0.1c-30.6-10.6-37-32.8-44.5-58.5
				c-2.8-9.6-5.7-19.5-10.1-29.3c-5.1-11.5-13.4-20.2-24.6-26c6.1,5.5,12.3,11.1,16.1,18.4c5.3,10.1,5.1,21.5,4.7,32.6
				c-0.4,9.8,1.6,20.6,6.4,29.2c2.5,4.5,6,8.4,9.6,12.1c1.9,2,4,4,5.5,6.4c2.3,3.6,1.6,6.2,0.8,9.7c9.6,5.9,18.2,12.8,23.1,21.5
				C559.5,533.3,559.8,533.5,560.2,533.6z"/>
			<path class="st5" d="M628.9,499.7c-4.7-1.1-4.7-6.4-3.3-10.1c3-7.9,10.3-13.8,15.5-20.2c4.8-6,7.8-12.7,11-19.5
				c1.5-3.2,2.8-6.3,4.1-9.6c1.3-3.5,2-7,3-10.5c-2.7,3.4-5.4,6.8-8.5,10.2c-3.3,8-7.4,14.6-12.8,20.6c-3,3.3-6.3,6.5-9.4,9.5
				c-2.9,2.8-6,5.7-8.8,8.8c-8.4,9.1-10.7,19.4-12.9,31.8c-0.1,0.4,0.1,0.7,0.4,1c0.2,0.2,0.5,0.3,0.8,0.3c0.1,0,0.2,0,0.3,0
				c7.4-1.8,15-3.7,22.3-6.3c2.5-0.9,5.3-2.3,8.9-4.3c0.2-0.1,0.4-0.3,0.5-0.5c0.7-1.8,1.5-3.5,2.3-5.3c-0.1,0-0.1,0-0.2,0
				C637.9,497.9,633.8,500.8,628.9,499.7z"/>
			<path class="st5" d="M580.3,520.2c0.2,0.1,0.3,0.1,0.5,0.1c0.1,0,0.3,0,0.4-0.1c2.8-1.2,5.7-2.3,8.8-3.2c0.5-0.2,0.8-0.6,0.8-1.2
				c-1-9.8-2.1-20.9,0.7-31.8c-0.9,0.9-1.6,2-2.5,2.8c-1.3,1.3-2.8,2.3-4.4,3.2c-3.3,1.8-7.1,2.9-10.9,2.7c-2.7-0.1-5.4-0.9-7.8-2.1
				c-1-1.3-2.1-2.7-3.1-4.1c-0.9-1.3-2-3.3-3.6-4c2,3.1,4.1,6.1,6.2,9.1c6.1,8.5,12.4,17.4,14.3,27.8
				C579.8,519.8,580,520.1,580.3,520.2z"/>
			<path class="st5" d="M601,486.2c-1-3.8,1.1-6.7,3.5-9.5c2.8-3.2,4.5-6,5.8-10c1.4-4.4,3.7-8.5,5.1-12.9c1.4-4.5,2.2-9.3,2.8-14
				c1.6-13.3,0.3-27.9,3.8-40.9c1.9-5.3,5-10.3,7.6-15.3c0-0.1,0-0.1,0-0.2c0.2-0.3,0.5-0.6,0.7-0.9c0,0,0-0.1,0,0
				c-0.3,0.3-0.4,0.6-0.7,0.9c0-0.1-0.1-0.1-0.1-0.1c-1.6,2.1-3.1,4.4-4.4,6.9c-6,11.1-7.6,23.5-9.1,35.4c-1,7.7-2,15.7-4.3,23.2
				c-1.9,6.4-5.8,12.2-9.5,17.8c-1.8,2.8-3.7,5.6-5.4,8.5c-7.3,12.9-5.8,27.2-4.5,39.8c0,0.3,0.2,0.6,0.5,0.8
				c0.2,0.1,0.4,0.2,0.6,0.2c0.1,0,0.2,0,0.3,0c2.1-0.6,4.1-1.2,6.2-1.7c0.4-0.1,0.7-0.4,0.8-0.9c1.6-8.5,3.2-15.9,6-22.9
				C604.2,490.7,601.8,489.3,601,486.2z"/>
			<path class="st5" d="M487.8,289c2.9,2.2,5.9,4.4,8.8,6.7c2.6,1.6,5.1,3.3,7.4,5.3c2.3,2,4.5,4.1,6.7,6.3
				c16.7,14.6,28.4,29.4,35.6,45.1c0.2,0.4,0.5,0.6,0.9,0.6c0,0,0.1,0,0.1,0c0.3,0,0.7-0.2,0.9-0.5c4.5-6.2,11.2-11.4,19.7-15.3
				c0.3-0.1,0.5-0.4,0.6-0.6c0.1-0.3,0.1-0.6-0.1-0.9c-0.8-1.5-1.5-3.1-2.1-4.7c-3.6-0.2-7.2,1.1-10.9,0.4c-4.9-1-9.3-3.9-13.1-7.1
				c-6.8-6-12.3-13-19.8-18.2c-11.2-7.8-24.4-11.4-36.1-17.9C487,288.3,487.4,288.7,487.8,289z"/>
		</g>
		<g>
			<path class="st6" d="M666.6,331.2c5.9,0.4,12.1,0.9,18.3,1.2c0.5-1.3,0.9-2.7,1.5-4c0.8-2,1.8-4.4,3-6.8
				c-5.2-0.6-10.5-1.6-16.3-3.1c-0.1,0-0.2,0-0.3,0c-0.4,0-0.7,0.2-0.9,0.5c-2.2,3.4-4.3,7-6.2,10.6c-0.2,0.3-0.2,0.7,0,1
				C665.9,330.9,666.2,331.1,666.6,331.2z"/>
			<path class="st6" d="M727.3,361.5c-2.4,1.8-4.8,3.6-7.3,5.3c-8.7,5.6-22.5,15.1-33,9.1c-1.1-0.6-2-1.3-2.8-2.1
				c-0.5,0.3-1.1,0.6-1.6,1c-15,9.5-20.5,24.4-24.2,39l-1.7,6.6c-0.1,0.5,0.1,1,0.6,1.3c0.2,0.1,0.3,0.1,0.5,0.1
				c0.3,0,0.7-0.2,0.9-0.4c7.1-9.2,13.2-16.7,21.8-22.7c9.2-6.5,21.1-11.4,34.4-14.3c0.3-0.1,0.6-0.3,0.7-0.6c1.6-3,3.1-6,4.7-9
				C722.6,370.3,724.9,365.9,727.3,361.5z"/>
			<path class="st6" d="M709.1,204.2c0,0,0.1,0,0.2,0c7.9-1.1,16.6-1.2,23.4-1.2c3.7,0,7.6,0,11.4,0.1c3.9,0,7.9,0.1,11.8,0.1
				c0,0,0,0,0,0c24.6,0,52.1-1.7,67-21.4c0.5-0.7,0.8-1.3,1-1.8c-1.8,0.3-2.7,1.5-2.8,2.8c-3,1.7-6.4,3-9.2,4.1
				c-4.4,1.7-8.8,3.2-13.4,4.1c-9.5,2-19.3,2.3-28.9,1c-8.7-1.1-17-0.9-25.7-0.1c-6.1,0.6-14.7,1.7-20.4-1.8
				c-5.1,3.7-10,7.7-15.2,12.2c-0.4,0.3-0.5,0.8-0.3,1.3C708.2,203.9,708.6,204.2,709.1,204.2z"/>
			<path class="st6" d="M364.9,262.4c0.3,0.1,0.6,0.1,0.9,0.2c0.2,0,0.3,0,0.5,0c3.9,7.7,11.6,13.1,18.8,17.5
				c0.8,0.5,1.6,0.9,2.4,1.4c0.9,0.5,1.7,1,2.6,1.4c0.1,0.1,0.3,0.1,0.4,0.2c3.4,1.7,7.1,3.4,10.9,4.9c0.5,0.2,1.1,0.4,1.6,0.6
				c0.8,0.3,1.5,0.6,2.3,0.8c0.9,0.3,1.8,0.6,2.7,0.9c10.5,3.2,21.4,4.8,31.9,6.3c2.9,0.4,5.9,0.8,8.8,1.3c0.1,0,0.1,0,0.2,0
				c0.4,0,0.7-0.2,0.9-0.5c0.2-0.4,0.2-0.9,0-1.2l-2.7-3.8c-3.1-4.3-6.2-8.8-9.5-13.1c-2.4,0.7-4.9,1.3-7.4,1.8
				c-8.1,1.5-16.6,1.4-24.6-0.4c-6.5-1.5-13-4-18.7-7.6c-3-1.9-5.8-4.1-8.1-6.8c-0.6-0.7-1.2-1.5-1.9-2.3c-3.8-0.6-7.4-1.3-10.9-2.4
				c-0.1,0-0.2,0-0.3,0c-0.4,0-0.7,0.2-0.9,0.5C364.9,262.2,365,262.3,364.9,262.4z"/>
			<path class="st6" d="M527.3,435.6c0.5-0.1,0.9-0.5,0.9-1c0.2-5.7,0.8-11.5,1.4-17.2l0.1-1.3c0.6-5.6,1.1-11.3,1.4-17.1
				c0-2,0.1-3.9,0.1-5.9c0-1.2,0-2.5,0.1-3.8c0-2-0.1-4.1-0.2-6.2c-0.1-0.9-0.3-1.8-0.6-2.6c0.1-0.1,0.3-0.2,0.4-0.3
				c0-0.5-0.1-0.9-0.2-1.4c-8.6,4.3-14.5-6.7-18.6-12.2c-3.3-4.5-7.6-8.2-12.2-11.4c-11.4-7.8-24.9-11.8-37.9-15.8
				c-1-0.3-1.9-0.6-2.9-0.9c29.4,15.3,53.1,34.4,54.6,74c0,0.2,0.1,0.5,0.2,0.7c4.6,6,8.6,13.3,11.9,21.6c0.2,0.4,0.6,0.7,1,0.7
				C527.2,435.7,527.3,435.7,527.3,435.6z"/>
		</g>
		<path class="st7" d="M742.6,714.1c0.3-0.2,0.7-0.3,1.5-0.3c11-2.4,17.2-4.9,18.9-7.6c0.5-0.8,0.7-1.6,0.5-2.4
			c-1.2-5.3,0.6-11.7,2.2-17.4c0.4-1.5,0.8-2.9,1.1-4.2c2.3-9.4,4.8-18.8,7.5-28.2c-5.2,5.5-10.7,10.9-16.4,15.9
			c-11.2,9.9-23.6,18.7-37.2,25.1c-15.5,7.3-32.4,10-49.4,11.3c-35.5,2.9-71.4,3.3-107,2.3c-16.9-0.5-33.9-1.2-50.8-2.8
			c-14.4-1.4-28.8-3.7-42.1-9.5c-12.2-5.4-21.4-14.2-28.2-25.1l0.9,3.3c2.3,8.6,4.6,17.4,6,26.2c1.7,10.6,16.6,12.9,27.4,14.6
			c1.7,0.3,3.4,0.5,4.8,0.8c38.4,7.2,77.8,8,118.1,8.2c0,0,5.8,0,5.8,0c39.3,0,74.4-1.9,107.3-5.7
			C717.3,718.3,730.6,716.7,742.6,714.1z"/>
		<path class="st8" d="M739.8,723.4c0.1-0.4,0-0.7-0.3-1c-0.2-0.2-0.5-0.3-0.8-0.3c-0.1,0-0.1,0-0.2,0c-11.7,2-24.1,2.8-33.1,3.4
			c-3.4,0.2-6.3,0.4-8.4,0.6c-37.8,3.6-71.4,5.4-102.4,5.4c-45.1,0-84.4-3.7-120.3-11.2c-0.1,0-0.2,0-0.2,0c-0.3,0-0.6,0.1-0.8,0.3
			c-0.3,0.3-0.4,0.6-0.3,1l1.3,6c0.7,3.2,1.4,6.5,2.1,9.7c31.1,7.2,62.6,11.5,94.8,12.8c43.3,1.8,86.6-1,129.5-6.9
			c11.9-1.6,23.7-3.4,35.4-6c0.2-0.1,0.5-0.1,0.8-0.2c0.8-3.9,1.7-7.7,2.5-11.5L739.8,723.4z"/>
		<path class="st9" d="M733.5,760.6c0-0.4,0.1-0.7,0.1-1.1c-7.9,3.8-16.2,6.6-24.6,8.9c-17.7,4.7-36,6.7-54.3,7.8
			c-41.2,2.5-83.7,4.6-124.7-1.1c-11.5-1.6-23-3.9-34.2-6.8c-4.6-1.2-9.1-2.5-13.3-4.8c-0.7-0.4-1.3-0.8-2-1.2
			c3.5,10.3,21.4,13.3,32.5,15.1c1.5,0.3,2.9,0.5,4.1,0.7c29.8,5.6,60.3,6.3,83.6,6.3c0,0,0,0,0,0c4.8,0,9.5,0,14.2-0.1
			c34.7-0.4,62.7-2.8,88.3-7.6l2.5-0.5C716,774.4,733.1,771.4,733.5,760.6z"/>
		<path class="st10" d="M788.8,598.9c-0.2,0-0.4,0-0.5,0.1c-13.8,7.5-37.9,10.1-52.3,11.7c-3.4,0.4-6.3,0.7-8.5,1
			c-32.9,4.6-68.7,6.9-112.9,7.5c-3.9,0-7.8,0.1-11.7,0.1l-7.1,0c-0.2,0.1-0.4,0.1-0.7,0.1c-0.3,0-0.6,0-1.1-0.1
			c-35.9-0.3-68.9-2.3-100.8-6.3c-17.4-2.2-33.3-5.1-48.6-8.9l-2.3-0.6c-5.2-1.3-11.6-2.8-17-5.5c-0.2-0.1-0.3-0.1-0.5-0.1
			c-0.2,0-0.5,0.1-0.7,0.2c-0.3,0.3-0.5,0.7-0.4,1.1c0.9,3.4,1.8,6.7,2.7,10.1c6.7,2.1,13.6,3.7,20.2,5.5
			c13.6,3.7,27.6,6.4,41.5,8.7c27.5,4.5,55.4,6.5,83.2,7c56.8,1.1,113.5-4.6,169.6-13c13.9-2.1,27.9-4.1,41.6-6.9
			c1.5-0.3,2.9-0.7,4.4-1c0.9-3.1,1.8-6.2,2.7-9.3c0.1-0.4,0-0.9-0.4-1.2C789.3,599,789,598.9,788.8,598.9z"/>
		<g>
			<path class="st11" d="M564.2,358.7c7.5-5.4,16.1-9.4,24.9-12c18.2-5.4,37.1-4.6,55.8-3.5c10.5,0.6,21,0,31.5-1
				c6.1-0.6,14.6-0.9,21-3.6c-16.7,0-33.8-1.3-50.3-2.6l-10.8-0.8c-6-0.4-12.1-0.7-17.9-0.7c-15.7,0-34.9,1.7-49.5,8.2
				c-5.9,3.2-11.5,7-15.9,11.7c-5.8,7.3-7.7,16.5-5.8,27.5c0.9,4.9,2.3,9.5,3.7,14c2,6.4,3.9,12.4,4.2,19.3c0.4,7.4-1,15.1-2.4,22.6
				c-1,5.7-2.1,11.6-2.4,17.4c-0.4,8.7,2.3,16.1,6.2,23.1c-0.5-5.5-0.6-11,0.4-16.5c1.6-8.8,5.3-17,6.6-25.9
				c1.5-9.7-0.3-19-3.2-28.3c-2.7-8.4-6.4-16.7-6.8-25.6C553.1,372.2,556.2,364.5,564.2,358.7z"/>
			<path class="st11" d="M475.3,400.9c3.9,0.4,7.8,1.2,11.6,2.4c3.2,1,5.7,1.3,8.6,1.1c-9.5-5.5-21.4-8.9-35.6-10
				c-2.2-0.2-4.3-0.2-6.5-0.2c-8.2,0-16.4,1.2-24.5,3.5c-6.5,1.9-10.1,5.8-13.5,9.6c-0.8,0.9-1.7,1.9-2.5,2.8
				c-0.1,0.1-0.2,0.3-0.3,0.5c-2.6,11.8-0.4,22.1,4.8,31c0.3,0.1,0.7,0.1,0.9-0.1c0.1-0.1,0.6-0.3,0.6-0.6c-0.1-1.6-1-3.2-1.4-4.7
				c-0.7-2.3-1.2-4.7-1.4-7.1c-0.3-4.6,1.6-8.3,2.5-12.6c0.2-1.1,0.5-2.1,0.8-3.1c2.1-2.8,4.4-5.3,7.3-7.2
				c7.2-4.9,15.5-5.9,24.1-6.2C459,399.7,467.2,400,475.3,400.9z"/>
			<path class="st11" d="M606.5,132.2c2.1-1.5,4.5-2.4,6.5-4c1.9-1.5,3.6-3.3,5.7-4.7c4.1-2.8,8.4-5.4,12.7-7.9
				c9-5.3,18.2-10.1,26.8-16c8.4-5.8,16.6-11.9,21.7-20.9c4.7-8.1,9.6-16.6,11.3-25.8c-0.1,0-0.1-0.1-0.2-0.1c-0.1,0-0.1,0-0.2,0
				c-0.4,0-0.9,0.3-1,0.7c-2.4,6.1-6,11.7-10.4,16.9c-1.6,2.6-3.4,5-5.6,7.3c-6.4,6.5-13.3,11.7-21.1,16.2
				c-3.9,2.8-7.8,5.5-11.6,8.2c-8.4,5.8-16.3,11.3-22.8,16.9c-5,4.4-9.1,8.8-12.3,13.4C606.1,132.4,606.3,132.4,606.5,132.2z"/>
			<path class="st11" d="M453,196.6c14.7,15.3,30.6,28.2,48.3,39.9c16.6,10.9,34.2,22,46.1,38.2c6.3,8.5,9.9,17.7,12.5,27.9
				c0.1,0.5,0.3,1.2,0.5,2c0-0.3-0.1-0.5-0.1-0.8c-1.4-10.6-2.9-21.5-7.8-31.6c-10-20.6-29.2-34-47.7-47c-3.5-2.4-6.9-4.8-10.3-7.3
				c-8.7-6.3-16.9-13.5-24.9-20.4c-9.3-8.1-19-16.6-29.5-23.7c-14.8-10-31-15.1-48.3-15.1c-12.9,0-26,2.9-38.8,8.6c0,0,0,0,0,0
				c2.7-1,5.3-2.1,8.1-3c5.1-1.8,10.2-2.1,15.6-2.4c9.8-0.6,19.6-0.1,29.1,2.4C425.1,169.4,439.6,182.7,453,196.6z"/>
			<path class="st11" d="M477.1,81.3c2.1,2.6,4.5,5.3,7.2,7.3c2.4,1.7,5.3,4.4,8.4,4.4c0.2,0,0.3-0.1,0.5-0.2
				c-1.1-1.4-2.3-2.8-3.4-4.3c-0.5-0.6-0.9-1.2-1.3-1.9c-0.4-0.4-0.8-0.7-1.1-1.1c-2.4-2.7-5-5.2-7.1-8.2c-0.8-1-1.5-2.1-2.2-3.2
				c0.1,0.1,0.2,0,0.2-0.1c-0.2-0.5-0.5-0.9-0.7-1.4c0.2,0.3,0.4,0.5,0.6,0.8c0.2,0.2,0.5,0,0.4-0.2c-0.9-2.2-1.5-4.5-2.4-6.7
				c-1-2.3-2-4.6-2.9-6.9c-0.9-2.1-1.6-4.3-2.4-6.4c-0.5-1.1-0.9-2.3-1.3-3.4c-0.2-0.6-0.4-1.1-0.5-1.7c-0.2-0.7-0.8-1.6-0.8-2.3
				c0-0.2-0.2-0.2-0.3-0.1c-0.5-3.2-0.8-6.5-1.1-9.7c-0.2-2.2-0.4-4.3-0.7-6.5c-0.2-0.1-0.4-0.2-0.6-0.2c0,0,0,0,0,0
				c-0.5,0-1,0.4-1.1,0.9c-1.6,8.6-1.8,16.7-1.1,24.4c1.1,2.8,2.2,5.5,3.4,8.3C469.5,69.5,472.6,75.7,477.1,81.3z"/>
			<path class="st11" d="M825.6,389c0.3-0.5,0.2-1-0.2-1.4c-0.2-0.2-0.5-0.3-0.7-0.3c-0.1,0-0.1,0-0.1,0.1c-0.1,0.1-0.2,0.1-0.2,0.2
				c-1.4,1.5-2.8,3.1-4.2,4.6c-0.7,0.5-1.5,1-2.2,1.5c-2.1,1.4-4,2.9-6,4.4c-2,1.4-3.9,2.8-5.9,4.2c-1.7,1.2-3.5,2.3-5.2,3.7
				c-4.1,2.2-8.3,4.2-12.8,5.4c-3,0.8-6,1.5-9,2.1c-1.4,0.3-2.8,0.5-4.3,0.7c-0.5,0.1-0.9,0.1-1.4,0.2c-0.6,0.1-1.3,0.3-1.9,0.4
				c-0.3,0.1-0.2,0.3-1.8,0.9c-0.2,0.1-0.2,0.4,0.1,0.4c1.9,0.2,2.6,0.4,4.5,0.1c1.6-0.2,3.2-0.5,4.8-0.8c3.2-0.6,6.4-1.3,9.5-2.2
				c6.3-1.8,12.6-3.2,18.5-6.1c3.8-1.9,7.4-4.1,10.9-6.5C820.5,397,823.2,393.2,825.6,389z"/>
			<path class="st11" d="M741.2,530.4c-0.1,0-0.2,0-0.3,0.1c-5.3,1.7-11,2.5-17.9,2.5c-4.7,0-9.3-0.4-14.3-0.7
				c-3.5-0.3-7.2-0.5-10.8-0.6c0.1,0.4,0.2,0.8,0.5,1.1c3.5,3.8,9,3.9,13.9,4.3c5.2,0.4,10.4,0.4,15.5,0.1c3.8-0.3,7.5-0.7,11.2-1.5
				c0.5-0.5,1-1,1.5-1.5c0.5-0.7,1-1.3,1.5-2c0.3-0.4,0.3-0.9,0-1.3C741.9,530.5,741.6,530.4,741.2,530.4z"/>
			<path class="st11" d="M675.6,220.5c-33.3,14.9-58.2,40.8-69.6,71c0,0.3,0,0.5,0.1,0.8c0.1,0.7,1.1,1,1.6,0.7
				c2.9-1.8,4.2-4.2,6.1-6.9c2.2-3.1,4.5-6.1,6.7-9.3c4.5-6.5,9.9-12.5,15.6-18c11.1-10.7,24.2-19.5,38.2-26
				c15-7,31.1-10.3,47.6-11.6c18.8-1.4,38-1.2,56.5-5.7c13.3-3.2,29.6-9.5,38.3-21c-0.8,0.5-1.6,1-2.5,1.6
				c-14.7,8.7-32.5,10.2-48,11c-1.1,0.1-2.2,0.1-3.3,0.1c-15.3,2.3-30.9,2.2-46.3,3.6C702.3,212,688.5,215.3,675.6,220.5z"/>
			<path class="st11" d="M720.8,343.2c0.2-0.3,0.3-0.6,0.2-0.9c-1.9,0.5-3.8,1-5.6,1.6c-6.5,3.6-13.3,6.4-20.4,8.8
				c-1.7,0.7-3.5,1.4-5.3,1.9c-0.8,0.2-1.7,0.4-2.5,0.6c-5.4,1.6-10.9,3.1-16.7,4.6c-12.3,3.1-25.5,7.8-35.7,17.6
				c0.1,0.1,0.2,0.2,0.4,0.1c3.6-1.1,6.7-3.8,10-5.5c4-2.1,8.1-3.7,12.4-5c8-2.6,16.1-4.6,24.4-6.4c4-0.9,8-1.9,12.1-2.7
				c3.6-0.7,7.1-1.1,10.6-2.1C710.6,352.2,716.4,348.2,720.8,343.2z"/>
			<path class="st11" d="M400.5,198.4c2.7,2.2,5.4,4.5,7.9,6.8c2.1,2,3.9,4.6,6.8,5.5c0.8,0.3,1.5-0.2,1.9-0.8
				c-2.5-3.3-5-6.6-7.9-9.6c-16.1-17.1-38.2-28.2-59.2-29.6c0,0,0,0-0.1,0c-0.5,0-0.9,0.3-1,0.7c-0.2,0.5,0,1,0.4,1.3
				c2.6,1.9,4.7,4.2,6.5,6.7c2.2,0.3,4.4,0.8,6.6,1.3c6.8,1.7,13.8,3.9,20.3,6.7C389.2,190.2,395,194.1,400.5,198.4z"/>
			<path class="st11" d="M407.6,414.8c-0.2,0-0.4,0-0.5-0.1c-2.3,1.4-4.8,2.5-7.3,3.6c-6.7,2.9-13.6,5.8-16.1,14.4
				c-3.1,10.6,1.4,20.2,7.8,28c-0.5-1.5-1-3-1.4-4.5c-1.4-5.3-1.4-10.7-0.2-16c1.2-4.9,3.9-8.7,7.6-12c3.7-3.3,9.1-5.3,11.6-9.8
				C409.8,417.1,409.2,415.2,407.6,414.8z"/>
			<path class="st11" d="M680.9,521.2c0.5-2.5,1-5,1.3-7.5c0.3-3.2,1.3-6.4,2.4-9.4c0.8-2.2,2-4.2,3-6.3c0.7-2.2,1.5-4.5,2.5-6.7
				c0.1-0.3,0.1-0.7-0.1-1c0,0,0,0-0.1,0c-1-0.1-1.8,0.8-2.3,1.5c-0.2,0.3-0.4,0.7-0.6,1c-2.1,1.2-4.4,2.5-6.3,3.9
				c-0.4,0.3-0.8,0.7-1.2,1c-2.9,3.3-5.5,6.9-7.8,10.6c0,0,0,0.1,0,0.1c0,0.2,0.1,0.3,0.3,0.2c0.3-0.2,0.6-0.1,0.9-0.2
				c0.3-0.1,0.5-0.3,0.7-0.4c0.6-0.2,1-0.4,1.6-0.8c1-0.7,1.8-1.8,2.7-2.7c1.7-1.7,3.4-3.4,5.2-4.9c0.5-0.5,1-0.9,1.6-1.4
				c-0.2,0.6-0.3,1.1-0.5,1.7c-0.5,1.5-0.9,3-1.3,4.6c-0.8,2.9-1.3,5.8-2,8.7c-0.8,3-0.7,6-0.5,9.1c0,0.1,0.1,0.1,0.1,0.1
				c0-0.1,0.1-0.2,0.1-0.3C680.7,521.9,680.8,521.5,680.9,521.2z"/>
			<path class="st11" d="M414.8,204.4c0.5,0.6,1,1.3,1.5,1.9C415.8,205.6,415.3,205,414.8,204.4z"/>
			<path class="st11" d="M694.9,55.2c-0.7,2.1-1.2,4.2-1.7,6.3c-2,21.2-12.8,40.7-24.5,59.6c2.2-1.8,4.4-3.5,6.4-5.8
				c2.2-2.5,4.1-5.1,6-7.8c4.3-6.1,8.1-12.5,11.6-19.1c2.2-4.2,4.2-8.4,6-12.8c0.1-6.6-0.8-13.2-3.1-19.8
				C695.5,55.5,695.2,55.3,694.9,55.2z"/>
			<path class="st11" d="M353.5,169.4c11.3,1.3,22.6,5.3,33.7,11.8c-0.7-0.4-1.3-0.9-2-1.4c-6.7-4.3-13.5-7.4-21.3-9.4
				c-3.4-0.9-7.3-1.8-11.3-2.3c0,0.1-0.1,0.2-0.1,0.4C352.6,168.9,353,169.3,353.5,169.4z"/>
			<path class="st11" d="M645.4,513.8c11.1-6,22.1-12.4,33-18.8c1.1-0.7,2.3-1.3,3.4-2c1.9-1.7,4-3.4,6.2-4.8
				c0.4-0.2,0.6-0.7,0.5-1.2c-0.1-0.5-0.5-0.8-0.9-0.9c-0.8-0.1-1.7-0.2-2.6-0.2c-11.5,0-26.4,9.2-38.3,16.6
				c-5.9,3.7-11.1,6.8-15,8.5c-7.8,3.3-16.4,5.4-24.8,7.4c-6,1.4-12.2,2.9-18.1,4.9c-6.5,2.1-11.9,4.8-16.3,7.9c1,0.3,2.1,0,3.5-0.3
				c3.6-0.8,7-1.8,10.6-2.5c6.8-1.3,13.6-1.7,20.5-2.6C620.5,524.1,633.6,520.2,645.4,513.8z"/>
			<path class="st11" d="M823.3,383.5c-0.1,0-0.2,0-0.4,0.1c-8.5,2.9-18.6,4.3-31.6,4.3c-7.2,0-14.2-0.4-21.1-0.8
				c-2.6-0.1-5.1-0.3-7.5-0.4c-3.9-0.2-7.7-0.3-11.3-0.3c-21.9,0-40.6,3.5-57,10.7c-12,5.2-20.3,14.1-27.8,23.3
				c3.3-1.7,6.4-3.3,9.6-5.4c3.6-2.4,7.2-4.6,11-6.7c7.2-3.9,14.9-7.1,22.7-9.4c17.5-5.2,35.3-4.8,53.3-4.2
				c16.1,0.5,32.7,0.8,48.2-4.2c4.4-1.4,8.8-3.4,13-5.7c0-0.2,0-0.5-0.1-0.7C824.1,383.7,823.7,383.5,823.3,383.5z"/>
			<path class="st11" d="M809.8,207c-0.6,0.6-1.2,1.1-1.6,1.8c-0.4,0.4-0.8,0.9-1.2,1.3c-0.3,0.3-0.5,0.6-0.7,1
				c3-2.5,5.8-5.1,8.2-7.8c-0.9,0.6-1.8,1.3-2.7,2C811.1,205.8,810.5,206.4,809.8,207z"/>
			<path class="st11" d="M793.5,311.4c-0.1-0.5-0.5-0.9-1-0.9l-1,0c-19.6,0-37.2,16.9-43.9,24.1c-4.9,5.3-9.1,11.2-12.8,17.3
				c0.7-0.7,1.5-1.5,2.3-2.1c2.9-2.3,5-5.7,7.5-8.4c5.2-5.7,11-10.9,17.5-15.1c6.2-3.9,13-6.2,19.8-7.9c3.6-2.2,7.3-4.2,11.1-5.9
				C793.3,312.4,793.6,311.9,793.5,311.4z"/>
			<path class="st11" d="M470,29.6c-0.2-0.3-0.5-0.4-0.9-0.4c-0.1,0-0.3,0-0.4,0.1c-0.5,0.2-0.7,0.7-0.7,1.2
				c0.1,0.8,0.3,1.6,0.4,2.4c3.6,8.5,9.5,16.5,15.6,22.6c9.8,9.9,21.6,16.9,34.7,21.6c15.8,5.6,31.3,10.1,45.9,18.5
				c6.4,3.7,12.6,7.8,18.1,12.8c-12-16.3-31.4-28-52.2-37.8c-13.4-4.2-25.9-9.1-36.6-18.7c-0.3-0.3-0.5-0.5-0.8-0.8
				C484.6,45.3,476.7,38.4,470,29.6z"/>
			<path class="st11" d="M817.5,203.5c-0.2-0.2-0.4-0.2-0.7-0.2c-0.3,0-0.6,0.1-0.8,0.4c-3.7,4-7.9,7.7-12.1,11
				c-0.1,0.2-0.1,0.4,0,0.5c-0.4,0.3-0.7,0.6-1.1,1c-1.7,1.2-3.3,2.4-5.1,3.5c-2,1.3-4,2.6-6,3.9c-7.9,5.3-16.7,10.2-27.1,15.1
				c0.4,0.4,0.9,0.7,1.5,0.6c12.4-1.9,23.2-9.6,33.6-16.1c1.5-0.9,3-1.8,4.5-2.7c5.6-5.2,10.1-10.2,13.5-15.3
				C818.1,204.5,818,203.9,817.5,203.5z"/>
			<path class="st11" d="M764.3,236.8c0.7-0.3,1.5-0.7,2.2-1.1c-0.4,0.1-0.8,0.2-1.2,0.3C764.8,236.1,764.5,236.4,764.3,236.8z"/>
		</g>
		<g>
			<path class="st12" d="M577.1,272.7c-0.1-2.5-0.4-5.1-0.8-8.3c0-0.2-0.1-0.5-0.3-0.6c-10.9-10.6-23.8-18.2-38.5-22.4
				c-0.1,0-0.2,0-0.3,0c-0.4,0-0.8,0.2-1,0.6c-0.2,0.4-0.2,1,0.2,1.3c1,0.9,1.9,1.7,2.8,2.6c5.6,2.5,11,5.6,16,9.2
				c5.9,4.3,10.9,9.5,15.6,14.9c2.2,2.6,4.2,5.2,6.5,7.7C577.3,275.9,577.2,274.3,577.1,272.7z"/>
			<path class="st12" d="M823.8,176.3c-3.7-7.5-30.6-8.3-30.9-8.3l-1.4,0c-12.5,0-24.9,3.1-35.5,6c-9.3,2.5-17.4,6.3-25.2,11
				c1.4-0.4,2.7-0.7,4.1-1.1c5.1-1.3,10.2-2.8,15.3-4.2c10.3-2.9,20.7-4.9,31.3-5.4c9.5-0.5,19.1,0.2,28.4,2.3c4.6,1,9,2.7,13.6,3.8
				C824.5,178.7,824.2,177.3,823.8,176.3z"/>
			<path class="st12" d="M787.2,307.1c-3.7-1.1-7.7-1.7-11.9-1.7c-12.1,0-24.5,4.5-36.5,8.8c-4.8,1.8-9.4,3.4-13.9,4.8
				c-7.5,2.2-15.1,3.3-23.3,3.3c-0.3,0-0.6,0-0.9,0c5.2,3.4,13.5,3.1,19.3,2.5c7.8-0.9,15.1-3.2,22.7-5c10.1-2.4,20.4-5.6,30.7-6.4
				c4.3-1.9,8.9-3.4,13.7-4.1c0.5-0.1,0.9-0.5,1-1C788,307.7,787.7,307.2,787.2,307.1z"/>
			<path class="st12" d="M383.6,264.8c0.1,0.1,0.2,0.2,0.3,0.3c1.8,1.3,4.3,2.1,6.5,2.5c4.8,0.8,9.7,0.9,14.5,0.7
				c5.1-0.1,10.4-0.6,15.4-1.7c1.7-0.4,3.5-0.9,5.1-1.7c-1.3-1.2-2.5-2.5-4-3.7c-0.2-0.2-0.5-0.3-0.7-0.3c-0.1,0-0.2,0-0.3,0
				c-11.3,2.8-21.4,4.2-30.8,4.2C387.6,265,385.6,264.9,383.6,264.8z"/>
			<path class="st12" d="M401.6,288.1c1.1,0.4,2.3,0.8,3.4,1.2c-1.1-0.7-2.5-1.1-4-1.5C401.2,288,401.4,288,401.6,288.1z"/>
			<path class="st12" d="M389.6,284.6c-3.5-1.6-6.8-3.5-10-5.6c-1.7-1.1-3.2-2.4-4.8-3.7c-2.8-2.2-5.3-4.5-7.6-6.9c0,0,0,0,0,0
				c-2.7-2.4-5.7-4.4-8.9-6.2c2,5.7,4.6,11,7.6,15.7c3.7,3.1,7.5,6,11.4,8.9c4.9,3.6,10.7,6.3,16.5,7.8c2.9,0.8,6.3,1.3,9.2,0.5
				c1-0.3,4.8-1.7,4.2-3.4c-3.9-1.2-7.8-2.6-11.6-4.3C393.5,286.5,391.5,285.6,389.6,284.6z"/>
		</g>
		<g>
			<path class="st13" d="M336.4,172.2c-0.4-1.2-0.3-2.5,0.5-3.5c0.4-0.5,0.9-0.9,1.4-1.1c24.4-14.3,50.5-19.6,78.2-12.3
				c27.2,7.2,48.6,29.3,69.1,47.2c12.6,11,26.6,19.9,39.7,30c0.6-0.2,1.3-0.4,2-0.2c17,2.8,32.2,9.5,45.4,19.9
				c-2.1-8.3-5-16.5-8.1-24.4c-11-28.4-28.9-54.3-49.6-76.5c-37.3-40-72.8-77.3-54-135.8c0.4-1.3,1.3-2.1,2.4-2.4
				c1.4-0.6,3-0.5,4.1,0.8c0.3,0.3,0.6,0.7,0.8,1.1c29.5,53.7,116.3,50.6,131.4,114.9c9.3-13.9,23.6-23.3,37.2-32.8
				c18.3-12.7,47.5-32.9,49.3-57.5c-0.4-1.8,0.9-3.4,2.6-4c0.1,0,0.2-0.1,0.3-0.1c0.3-0.1,0.7-0.2,1-0.2c0.2,0,0.4,0,0.6,0
				c0.1,0,0.2,0,0.2,0c1.3,0.2,2.4,0.9,2.8,2.2c18.2,27.3,10.5,54.3-2.3,82.8c-7.9,17.5-18,34-26.3,51.3
				c-7.9,16.6-18.3,37.6-16.2,56.7c13.6-9.4,28.9-16.8,44.7-21.6c0.2-0.3,0.4-0.7,0.7-1c12.8-11.7,25.8-25.4,42.3-31.9
				c20-7.9,40.6-12.6,62.1-12.2c7.6,0.1,28.9,1.1,31.3,11.3c0.2,0.7,0.3,1.4,0.4,2.1c0.1,0.2,0.2,0.4,0.3,0.7
				c5.8,29.1-23.5,52.4-44.7,67c-20,13.7-43.9,20.8-65.3,31.8c-17.3,8.9-32,22.4-43.4,38.2c28.9,6.3,51.1-2.9,78.9-11.1
				c17.3-5.1,33.6-3.8,47.8,7.1c0.1,0.1,0.3,0.2,0.4,0.3c0.2,0.1,0.3,0.2,0.5,0.4c1.7,1.3,1.6,3.1,0.7,4.4c-0.4,0.9-1.2,1.7-2.4,2
				c-29.4,8.6-51.2,36.1-60.6,64.6c29.8,0.5,69.1,8.1,90.9-9.8c1.1-0.9,2.2-1,3.3-0.8c1.9,0.2,3.7,1.5,3.4,3.5
				c0.1,0.7-0.2,1.4-0.7,2.1c-14.2,33.2-35.6,53.4-70.3,64.7c-27.7,9-77.3,12.4-94.2,40.9c8.1-2.5,15.8-2.6,22.6,2.2
				c0.4,0.3,0.7,0.6,0.9,0.9c1.1,1.1,1.5,2.7,0.5,4.4c-7,11.2-8.8,23.1-12.2,35.6c-0.1,0.4-0.3,0.7-0.4,1.1
				c21.9-1.5,41.8,7.4,62.2-5.7c3.5-2.3,6.8,2,5.3,5.3c-7.5,16.3-20.8,27-35.1,36.6c18.2,1.7,36.3,3.9,54.1,8.2
				c7.3,1.7,21.8,4.8,25.7,12.6c0.5,1,0.8,2,0.9,3c0.3,0.7,0.4,1.4,0.3,2.2c0,0.2-0.1,0.3-0.1,0.5c-0.2,2.8-1.2,5.7-2,8.7
				c-3.8,13.8-7.9,27.5-11.9,41.3c-4.2,14.4-8.3,28.8-12,43.3c-2.1,8.2-1.5,18.1-3.5,25.5c-2.1,7.5-11.6,12-23.4,14.9
				c-1.9,8.8-3.7,17.6-5.3,26.5c-0.9,4.9,0.6,13.3-1.1,17.5c-4,10.2-16,13-25.7,15.5c-32.1,8.4-66.9,9.4-99.9,10
				c-35.7,0.6-72.2-0.8-107.2-7.9c-10.4-2.1-27.4-5.1-33.2-15.1c-2-3.4-1.5-10.4-2.1-14c-1.9-11.5-4.4-22.9-6.7-34.3
				c-8.4-1.8-20.8-5.1-21.7-13.1c-1.1-9.4-3.4-18.6-5.8-27.8c-7.1-28.1-15.2-55.9-22.4-84c-0.5-1.9-0.8-3.6-0.9-5.2
				c-0.3-0.6-0.5-1.2-0.7-1.8c-0.4-1.6,0.1-2.8,1-3.6c1-3.7,3.8-6.6,9.3-9.4c22.9-11.8,53.5-13.2,79.7-14.7
				c-8.5-8.7-14-19.5-13.7-32.4c0-0.7,0.2-1.3,0.5-1.8c-19.5-7.6-39.4-14.7-57.5-24.9c-19.4-11-41.4-24.3-52.7-44.1
				c-5.8-10-7.8-33.6,5.2-40c10.1-4.9,17.5-8.3,25.4-16.6c5.1-5.4,13-8,19.9-10c18.2-5.2,40-2.8,57.7,3.2
				c6.7,2.3,12.4,5.8,17.4,10.1c-7.2-45.5-53.6-62-91.7-78.8c-32.3-14.3-58.3-34.8-65.7-70.8c0,0,0,0,0-0.1c-0.1-0.5-0.1-1,0-1.5
				c0-0.3,0.2-0.5,0.3-0.7c0.1-0.2,0.2-0.5,0.3-0.7c0,0,0.1-0.1,0.1-0.1c0.8-1.2,2.1-1.9,3.6-1.7c0.7,0,1.3,0.3,1.8,0.7
				c18.2,10.4,38.2,10.1,57.9,6c-14.3-10.8-30.4-19-43.2-31.9c-14-14.1-9.6-42.2-31.1-49c-0.4-0.1-0.7-0.3-1-0.5
				C337.1,173.7,336.6,173,336.4,172.2z M439.7,174.7c-27-18.3-57.8-19-86.1-6.4c18.1,2.1,34.6,10.7,48.9,22.1
				c20.6,16.6,29.8,41.5,45.9,61.8c15.9,20.1,38.3,33.6,57.8,49.7c16.8,13.9,32,30.1,41.2,50c5-6.9,12.1-12,20.2-15.7
				c-10.3-19.9-6-43.2-15.9-63.5c-11.7-24.2-36.7-38.6-57.6-53.8C475.1,205.1,459.1,187.9,439.7,174.7z M533.7,403.6
				c-1,14.1-4.7,29.6-2.2,43.9c0.9,2.9,1.7,5.9,2.5,8.8c0.2,0.6,0.4,1.1,0.7,1.7c0.2,0.4,0.2,0.9,0.1,1.3
				c5.8,20.8,11.5,39.7,34.6,49.6c-5.2-10.5-13.9-19.5-19.8-29.4c-6.4-10.7-6.3-23.7-4.8-35.6c2.2-18.4,5.3-32.5-1.2-50.5
				c-2.9-8-4.4-15.9-3.3-23.8c-3-2.5-6.1-4.7-9.3-6.9C534.4,375.9,534.7,389.7,533.7,403.6z M599.7,513.1
				c2.7-14.8,5.5-26.7,15.3-38.8c5.4-6.7,12.2-12.2,18.2-18.3c5.2-5.3,8.8-11.2,11.4-17.5c-0.1-0.9,0.2-1.9,1-2.8
				c0,0,0.1-0.1,0.1-0.1c2.1-5.6,3.6-11.6,5-17.7c4.1-18,9-33.2,23.6-45.3c13.2-10.9,33.9-16.8,45.6-30c-15.1,9.2-32,13.9-49.2,18.3
				c-18.8,4.8-35.1,12.1-44.7,29.9c-9.7,18.1-7.6,39.3-13.3,58.5c-2.9,9.8-10,17.8-15,26.6c-6.9,12.2-5.8,25.8-4.4,39.1
				C595.5,514.2,597.6,513.6,599.7,513.1z M590.5,483.1c3-11,11.2-19.7,16.4-29.7c6.3-12.1,5.7-27.1,8-40.2c1.5-8.5,4-16.8,7.8-24.5
				c6.8-13.9,19.4-22.6,33.6-27.8c21.2-7.9,42.7-10.4,62-21.9c-27.3,2.1-54.5-0.6-81.9-2.7c-30.4-2.2-96.2-1.5-88,45.5
				c2,11.5,7.4,21.5,8,33.4c0.7,13.3-4.2,26.9-4.8,40.1c-1.2,25.4,24.8,40.1,29.2,63.9c2.9-1.2,5.9-2.3,8.9-3.3
				C588.5,504.8,587.6,494.1,590.5,483.1z M537.2,242.4c4,3.6,7.8,7.4,11.3,11.6c7.8,9.3,13.1,20.1,16.2,31.8
				c2.7,10.3,2.7,20.9,4.5,31.1c7.7-11.6,7.4-31.6,6.8-44c-0.1-2.8-0.4-5.5-0.8-8.2C564.2,253.8,551.5,246.5,537.2,242.4z
				 M552.7,187.5c14.1,22.4,24.8,47.2,29.5,73.3c0.3,0.6,0.4,1.3,0.3,1.9c0.2,1.1,0.4,2.1,0.6,3.2c2.5,16.8,2,46.6-11.2,59.8
				c-0.1,0.1-0.2,0.1-0.3,0.2c0.8,2.4,1.9,4.8,3.1,7.2c5.8-2,11.8-3.4,17.7-4.3c0-8.4,0.9-16.4,2.6-24.2c0.2-11.1,0.8-22-0.3-33.1
				c-1.6-15.5-5.7-30.7-10.8-45.3c-9.7-27.9-24.8-55.2-43.1-78.4c-16.2-20.5-36.1-37.7-51.9-58.6c-13.6-17.9-20.8-37.1-23.7-58.7
				C453,97.4,519.9,135.5,552.7,187.5z M521.6,67.6c-21-9.4-39.2-19.8-52.5-37.4c3.5,25.4,13.8,46.3,31.1,66.7
				c16.9,19.9,36.2,37.5,51.4,58.8c15.7,22.1,28.2,47,37.1,72.6c4.5,12.8,7.8,26.3,9.4,39.8c0.9,7.6,1,15,1,22.4
				c0.5-1.4,1-2.8,1.6-4.2c-0.1-0.6-0.1-1.2,0.2-2c12.1-31.1-3.4-61.4-11-91.5c-4.6-18.3-3-36,4.5-52.9c-0.4-0.5-0.6-1.1-0.7-1.8
				C588.9,100.4,552.6,81.4,521.6,67.6z M618.9,119.8c-48.6,42-4.1,94.4-6.1,144.4c5.2-7.5,11.1-14.5,17.8-20.8
				c-4.8-15.2-2.5-31.8,0.5-47.2c3.3-17.3,9.2-32.7,17.8-48c16.3-29,42.6-59.5,41.9-94.3C679.4,83.2,640.8,100.8,618.9,119.8z
				 M694.6,56.2c-0.6,28.1-17.5,53.5-32.1,77c-9.9,15.9-19.6,32-24.4,50.3c-4.7,17.8-9.3,38.7-4.3,57c2.7-2.5,5.5-4.8,8.4-7.1
				c0-0.1-0.1-0.1-0.1-0.2C630.9,172.4,714.6,114.6,694.6,56.2z M600.2,327.9c2.5-0.2,4.9-0.4,7.2-0.5c12-0.4,23.9,0.1,35.8,0.9
				c0.6-15,12.1-28.4,22.1-38.5c15.6-15.8,35.6-26.4,55.6-35.4c20.5-9.2,41.7-16.7,61.1-28.2c13.2-7.8,30.5-18.6,38.4-33.2
				c-1.9,1.4-3.8,2.6-5.8,3.8c-14.5,8.6-32.1,10.3-48.5,11.1c-30.3,1.5-59,0.2-87.6,12.2C635.1,238.7,600.6,279.6,600.2,327.9z
				 M792.9,169.1c-12.4-0.2-24.7,2.7-36.6,5.9c-19.1,5.2-33.2,15.7-47.3,28c35.6-4.9,89.8,8.7,112.9-22
				C829.9,170.6,794,169.2,792.9,169.1z M734.9,259.2c18.8-8.4,37.4-15.8,54.1-28c9.2-6.6,20.6-16,27.9-26.9
				c-5.2,5.8-11.5,10.7-17.5,15.1c-15,11.2-31.8,19.4-48.9,26.6c-23.8,10-47.9,19.4-68.9,34.8c-14.3,10.4-33.8,28.5-34.5,47.7
				c3.7,0.3,7.5,0.5,11.2,0.8C674.6,296.3,701.6,274.1,734.9,259.2z M725.2,320.1c-17.5,5.3-35,3.8-52.4-0.5
				c-2.2,3.4-4.2,7-6.1,10.6c21,1.6,41.9,2.7,63.2,0c2.3-0.3,4.6,2.7,3.7,4.9c-5.6,13.4-15.9,19.8-27.8,27.4
				c-7.3,4.7-15.1,8.6-22.5,13.2c-14.1,8.9-19.8,22.8-23.7,38.3c-0.6,2.2-1.1,4.4-1.7,6.6c6.5-8.4,13-16.6,22-22.9
				c10.1-7.1,22.4-11.8,34.8-14.5c10.3-19.5,19.5-40.1,35.7-55.5c9.6-9.1,22.8-17.8,36.5-19.6C766.9,302.1,744.7,314.2,725.2,320.1z
				 M792.4,311.6c-16.6-0.5-33.5,12.3-44.1,23.7c-12.5,13.5-20.3,30.6-28.7,46.8c3.3-0.6,6.7-1.1,10-1.4c1.6-0.2,3.4-0.3,5.1-0.3
				C743.4,351.6,764.2,323.7,792.4,311.6z M762.7,387.7c-23.4-1.1-46.2,0.8-67.8,10.3c-20,8.7-29.3,27.1-43.2,42.4
				c-3,7.3-7,14.2-13,20.9c-5.7,6.4-12.4,12-18.2,18.3c-8.5,9.2-10.6,19.9-12.6,31.3c7.5-1.9,15.1-3.7,22.3-6.3
				c2.7-1,5.6-2.5,8.8-4.2c6.8-16.1,14-31.9,24.8-45.8c12.7-16.3,31.1-26.2,50.6-32c21.6-6.4,44.6-6.3,66.2-12.7
				c16.2-4.8,30.2-14.3,42.8-25.2C804.4,391,781.4,388.6,762.7,387.7z M727.1,443.3c16.9-4.7,34-8.3,50.5-14.3
				c21.5-7.7,36.4-22.2,47.1-40.6c-9,7.6-18.6,14.4-29.2,19.6c-18.1,8.9-38.3,10.1-57.9,13.3c-23.1,3.8-45.5,10.9-63,27.1
				c-14.1,13-22.5,31-30,48.6c6.3-3.9,13.2-8.3,20.2-11.8C674,460,703.3,450,727.1,443.3z M632.2,512.1c-13.6,5.7-28.9,7.7-43,12.3
				c-25.9,8.6-38.2,26.7-19,51c9.9,12.5,21.7,22.2,27.4,37.2c3.8,0,7.7,0,11.5,0c1.2,0,2.5,0,3.7-0.1c-1.8-13.1-2-26.2,2.7-38.8
				c4.8-12.6,17.9-21.2,27.7-29.6c18.6-15.9,23.4-43.9,44.2-56.8C670.9,485.1,645.1,506.7,632.2,512.1z M689.1,490.9
				c-17.9,11.6-22.4,34.7-36.9,50.1c-8.5,9-19.1,15.6-27.2,25c-11.1,12.8-10.7,30.6-8.4,46.5c3.3,0,6.5-0.1,9.8-0.1
				c1-20.5,13.2-38.4,25.6-54.1c8.8-11.2,22.2-22.9,27.4-36.3C683.6,511.3,684.7,500.9,689.1,490.9z M683.8,533
				c-0.5,0-0.8,0-1.2-0.1c-2.6,3.8-5.7,7.2-8.5,10.6c-16,19.5-38.3,42-39.8,68.7c2.3-0.1,4.7-0.2,7-0.3c1.6-3.3,2.5-8.5,3.8-11.3
				c2.3-5.2,5.4-10.2,8.9-14.7c8.4-10.7,18.6-18.9,30.7-25c17.4-8.8,41.3-12.4,54.9-27.2c0.6-0.7,1.1-1.4,1.7-2.2
				C722.6,537.5,704.6,530.8,683.8,533z M663.7,610.9c13.3-0.8,26.6-1.7,39.8-3c14.5-1.4,28.9-3.3,43.2-5.8
				c4.1-0.7,12.9-1.9,21.7-3.9c-11.3-5.9-24.9-7.7-37.3-9.8c-14.7-2.4-29.5-4.1-44.3-5.5C677.1,590.5,668.8,599.2,663.7,610.9z
				 M655.1,611.4c12.3-31.5,44.5-42.9,68.8-62.3c-8.8,4.2-18.3,7.3-26.9,10.6c-14.2,5.5-26.7,13.3-36.9,24.6
				c-4.9,5.4-8.6,11.7-11.8,18.2c-1.2,2.5-1.9,6.1-3,9.2C648.7,611.6,651.9,611.6,655.1,611.4z M781.5,579.9
				c-22.5-8.5-48.2-9.8-71.9-11.8c-0.3,0-0.6-0.2-0.8-0.2c-5.4,3.5-10.8,6.9-16,10.6c14.5,1.5,28.9,3.4,43.2,5.9
				c13.2,2.3,26.7,5,37.9,12.5c7.8-2.2,14.7-5.1,17.5-9C790.9,584.6,788.3,582.5,781.5,579.9z M481.1,759.7
				c1.3,13,25.9,15.4,36.3,17.3c32,6,65.2,6.5,97.6,6.2c29.4-0.3,59.1-2.2,88.1-7.6c8.9-1.7,28.9-4.2,29.3-15
				c0.4-12.5,3.5-25.1,6.3-37.5c-16.2,2.8-33.9,3.3-41.7,4c-72.4,7-151.4,9.3-223-5.8C476.7,734,479.8,746.8,481.1,759.7z
				 M444,669.8c2.6,10.2,5.5,20.4,7.2,30.8c1.9,11.4,21.4,12.6,31.3,14.5c38.6,7.3,78.7,8,117.9,8.2c37.7,0.2,75.5-1.3,113-5.7
				c2.2-0.3,16.2-1.9,28.7-4.5c0.6-0.3,1.2-0.4,1.8-0.4c10.4-2.3,19.3-5.3,18.5-8.7c-1.5-7,1.7-15.5,3.3-22.1
				c6.7-27.6,15.3-54.6,23.1-81.9c-17.2,9.4-49,11.1-61.2,12.8c-37.4,5.2-75.3,7-113.1,7.5c-6.2,0.1-12.3,0.1-18.5,0
				c-0.7,0.2-1.4,0.1-2.1,0c-33.7-0.2-67.4-2.1-100.9-6.3c-16.4-2-32.7-4.9-48.7-8.9c-5.6-1.4-13.2-3-19.4-6.1
				C431,622.7,437.8,646.2,444,669.8z M530.4,579.6c-17.5,0.7-34.7,3.1-52.1,5.8c-13.4,2.1-27.6,4.4-39.6,11
				c8.9,2.5,18.9,3.9,23.8,4.9c14.9,3.1,30.1,5,45.2,6.7c19.2,2.1,38.6,3.3,58,4C556.1,597.7,543.6,588.7,530.4,579.6z M422.8,587.8
				c1.8,2.6,5.1,4.6,9.2,6.3c12.5-8.2,27.6-11,42.1-13.5c16.3-2.7,32.5-4.9,49-6c-3.3-2.3-6.7-4.6-10-7.1c-0.2-0.1-0.4-0.3-0.6-0.4
				C498.8,567.9,426.2,570.6,422.8,587.8z M515.6,559.7c0.5,0.2,0.8,0.5,1.1,0.9c5.9,4.6,12.4,8.6,18.7,12.3
				c16,9.5,28.8,21.9,38.7,37.7c0.4,0.6,0.5,1.1,0.6,1.6c4.8,0.1,9.7,0.2,14.5,0.3c-9-19.2-32.2-31.5-36.4-52.6
				c-16-14.2-34.9-23.3-54.5-31.2C498.5,542,505.9,551.8,515.6,559.7z M384.7,433c-5.3,18.1,12,33,24.5,42.6
				c17,13.1,36.3,23.8,55.8,32.6c29.8,13.4,61.2,20.9,87.3,41.2c0.6-5.2,2.5-9.8,5.4-13.7c-5.5-11.2-18.3-18.4-28.6-24.6
				c-7.1-4.2-14.4-7.9-21.9-11.3c-17.1-7.6-34.5-14.2-51.2-22.7c-25.8-13.2-50.5-33.5-46.9-62.3c-0.1,0.1-0.2,0.2-0.4,0.3
				C399.8,420.8,388.1,421.4,384.7,433z M459.8,395.6c-10.3-0.8-20.7,0.4-30.6,3.2c-7.8,2.3-11,7.5-15.5,12.1
				c-7.8,35.1,28.3,55.8,57.3,69.2c15.6,7.2,31.8,13.2,47.3,20.7c14.3,7,33.7,16.9,41.9,31.7c3.6-3.8,8.1-7.1,13.3-9.9
				c0-0.1,0-0.1-0.1-0.2c-0.1-1.5-0.4-2.9-0.7-4.3c-0.3,0-0.5,0-0.8-0.1c-42.8-14.8-39.4-52.9-55.2-88.4
				C506.3,406.1,483.8,397.4,459.8,395.6z M515.1,412.5c0,0,0,0.1,0,0.1c5,6.6,9,14.1,12.1,21.9c0.2-6.2,0.9-12.4,1.6-18.5
				c2.1-19.1,3-38.3-2.7-56.8c-15.8-9.8-33-17.3-47.7-29c-10.2-8.1-18.4-18.4-26.1-29.1c-19.4-3.3-38.6-4.7-57-12.8
				c-14.5-6.4-27.1-15.2-36-28.1c-0.2-0.1-0.3-0.2-0.5-0.2C383.4,337.2,511.3,319.2,515.1,412.5z M365.9,262.7
				c9.4,11.3,22.1,18.9,36.1,24.4c15.2,5.9,31.1,7.3,47,9.8c-6.3-8.8-12.4-17.7-19.2-25.8c-2.8-3.4-5.9-6.4-9.1-9.2
				C402.4,266.4,383.6,268.1,365.9,262.7z M365.4,197.2c5.4,15.6,12.1,24.8,26.5,33.8c10.5,6.6,20.5,12.9,29.9,21
				c21.4,18.4,34.4,44.3,53.5,64.9c18.4,19.8,45.5,28.2,67,44.3c0.7-2,1.6-3.8,2.6-5.5c-18.5-43.4-64.3-62.7-95-95.8
				c-16.4-17.7-24.9-41.1-41.4-58.7c-15-16-36.3-27.8-58.4-29.3C358,177.7,361.9,186.9,365.4,197.2z"/>
			<path class="st13" d="M507.3,429.2c-7-5.5-13.5-11.2-21.4-15.5c-8-4.2-16.9-6.5-25-10.4c-0.5-0.2-0.2-0.9,0.2-0.9
				c17.4-0.2,39.2,10,46.6,26.4C507.9,429.1,507.6,429.4,507.3,429.2z"/>
			<path class="st13" d="M453.3,403.1c-1.5,0-2.6-0.3-3.9-0.8c-0.3-0.1-0.5-0.5-0.2-0.7c1.3-1.1,2.4-1.5,4.1-1.5
				c1.7,0,2.6,0.9,3.7,2.1c0.2,0.2,0.1,0.5-0.2,0.5C455.7,402.7,454.5,403.1,453.3,403.1z"/>
			<path class="st13" d="M549.8,291.9c-3.9-8.7-7.8-17-13.7-24.6c-5.9-7.7-13.4-13.9-20.1-20.8c-0.7-0.7,0.2-1.9,1.1-1.4
				c15.8,8.4,33.1,27.9,33.1,46.7C550.2,292,549.9,292.1,549.8,291.9z"/>
			<path class="st13" d="M512.8,243.2c-3-0.7-5.7-2.6-7-5.3c-0.2-0.3,0.1-0.7,0.4-0.6c2.9,0.8,5.4,2.9,6.8,5.6
				C513.1,243.1,512.9,243.2,512.8,243.2z"/>
			<path class="st13" d="M607.6,154.5c-3.4,11.1-2.3,22.6-1.6,33.9c0,0.6-0.8,0.6-1,0.1c-8.1-19.8-0.9-53.5,20.7-62.2
				c0.3-0.1,0.5,0.3,0.3,0.5C617.4,135,611.2,142.9,607.6,154.5z"/>
			<path class="st13" d="M607.8,193.4c1.2,1.2,1.4,3,1.7,4.6c0.4,1.9,0.7,3.5,0.3,5.4c-0.1,0.3-0.5,0.4-0.7,0.2
				c-1.3-1.5-1.7-3-2.1-5c-0.3-1.7-0.8-3.6,0.1-5.2C607.3,193.3,607.6,193.3,607.8,193.4z"/>
			<path class="st13" d="M627.7,272.8c-4,5.9-7.1,12.4-9.8,18.9c-2.8,6.7-3.6,14.8-7.9,20.7c-0.3,0.4-0.9,0.3-1-0.3
				c-0.9-7.2,3-15.2,5.8-21.7c3.2-7.5,7-14.6,11.7-21.2c7.2-10.1,17.4-19,29.4-22.4c0.2-0.1,0.3,0.2,0.1,0.3
				C644.6,254.1,635.3,261.8,627.7,272.8z"/>
			<path class="st13" d="M561.1,469.1c0.1,0.5-0.7,0.7-1,0.3c-6.3-11.7-1.9-24.9,1.5-36.9c2.3-7.9,3.7-15.6,3.6-23.9
				c-0.2-9.8-4.3-18.2-7.3-27.3c-0.1-0.3,0.3-0.5,0.5-0.3C582.3,406.6,557.4,440.1,561.1,469.1z"/>
			<path class="st13" d="M580.6,577.1c-9.4-7.4-16-22.3-8.6-33.3c0.1-0.2,0.5-0.1,0.4,0.2c-3.6,12,2.6,22.7,8.8,32.6
				C581.6,577,581,577.4,580.6,577.1z"/>
			<path class="st13" d="M589.5,585.9c-1.6-0.6-3-1.4-4.3-2.6c-1.3-1.3-1.7-2.3-2.1-4c-0.1-0.2,0.2-0.4,0.4-0.3
				c0.6,0.3,1.1,0.4,1.6,0.8c0.6,0.5,1.3,1.1,1.9,1.7c1.1,1.2,2.1,2.4,3,3.8C590.2,585.6,589.8,586,589.5,585.9z"/>
			<path class="st13" d="M585.9,136.9c-4.3-10.1-9.5-19.7-16.8-28c-8.3-9.5-19-15.1-29.4-21.8c-0.2-0.1-0.1-0.4,0.2-0.4
				c22.4,5.4,43.1,27.1,46.7,49.9C586.6,137,586.1,137.3,585.9,136.9z"/>
			<path class="st13" d="M696.1,406.5c-0.4,0.2-0.6-0.4-0.4-0.7c11.5-11.4,33.1-11.8,48-9.6c0.3,0,0.2,0.5-0.1,0.5
				C726.8,396.7,711.6,400.1,696.1,406.5z"/>
			<path class="st13" d="M684.5,413.5c-0.3,0.1-0.5-0.2-0.4-0.5c1.7-2.5,4.9-3.3,7.2-5.1c0.2-0.2,0.4,0.1,0.3,0.3
				C689.8,410.3,687.4,412.7,684.5,413.5z"/>
			<path class="st13" d="M560.8,628.6c28.2,0,56.4,2.2,84.7,1.5c30.5-0.8,60.3-4.7,90.5-9c0.2,0,0.3,0.3,0.1,0.4
				c-27.6,9.7-58.2,12.1-87.3,13.4c-29.3,1.2-59.4,0.9-88.2-5.1C560,629.6,560.2,628.6,560.8,628.6z"/>
			<path class="st13" d="M551.4,627.3c1.8,0.1,4.2-0.1,5.4,1.5c0,0,0,0.1,0,0.1c-1.2,1.6-3.6,1.2-5.4,1.2c-2.3-0.1-4.4-0.2-6.4-1.2
				c-0.3-0.1-0.3-0.7,0-0.8C547,627.1,549.1,627.1,551.4,627.3z"/>
		</g>
	</g>
</g>
</svg>
