<?xml version="1.0" encoding="utf-8"?>
<!-- Generator: Adobe Illustrator 25.2.0, SVG Export Plug-In . SVG Version: 6.00 Build 0)  -->
<svg version="1.1" id="e37c00f5-ff96-45aa-87ea-1a24b78ba7bd"
	 xmlns="http://www.w3.org/2000/svg" xmlns:xlink="http://www.w3.org/1999/xlink" x="0px" y="0px" viewBox="0 0 1176.6 803.7"
	 style="enable-background:new 0 0 1176.6 803.7;" xml:space="preserve">
<style type="text/css">
	.st0{fill:#FFFFFF;}
	.st1{fill:#68182B;}
	.st2{fill:#B4D345;}
	.st3{fill:#ACFF1D;}
	.st4{fill:#D1FFFF;}
	.st5{fill:#FF821D;}
	.st6{fill:#FDCE1A;}
	.st7{fill:#00FF8B;}
	.st8{fill:#98B718;}
	.st9{fill:#ACD0E0;}
	.st10{fill:#ECFFFE;}
	.st11{fill:#CFFF73;}
	.st12{fill:#F26200;}
	.st13{fill:#AEAE38;}
</style>
<g>
	<path class="st0" d="M533.5,493.7c-0.1,3.8-0.2,7.7-0.3,11.5c-8.2-5.8-16.5-11-24.7-15.6c3.5-3.6,6.8-7.4,9.9-11.2
		C523.4,482.3,528.7,487.6,533.5,493.7z M654.3,393.5c-5,0-9.9,0.3-14.6,0.8c-3.4,0.4-7.1,1-10.9,1.8c5.4-4.8,10.4-10.2,15.2-15.6
		c4.1,2.8,8.4,5.3,12.8,7.4c4.9,2.4,9.9,4.6,15.1,6.7C666,393.8,660.1,393.5,654.3,393.5z"/>
	<path class="st1" d="M774.5,281.4c-27.3-12.4-58.1-16.8-87.6-12.6c4.9-55.3-78.1-6.8-104.7,18.2c2.7-19,9-36.3,19.6-55
		c0,0,0-0.1,0-0.1c1,0.3,2.1,0.6,3.3,0.8c23.7,4.8,51.6-0.2,73.4-9.6c28.8-12.5,55.6-32.2,76.1-56c12.7-14.7,26.1-35.1,23.8-55.7
		c-5.4-49.2-71.4-42-104.7-28.8c-2,0.8-4,1.7-6.1,2.6c3.5-21.1,8.6-59.7-16.8-66.7c-30.9-8.6-56,16.8-70.5,41.6
		c-28.3,48.7-52.4,134.3-8.9,181.6c-0.4,0.7-0.7,1.3-1.1,2c-1.8,3-5.1,12.3-9.5,7.9c-1.9-1.9-3.7-3.9-5.4-6.1
		c-9.6-12.3-17.3-25.7-26.2-38.5c-0.3-0.4-0.6-0.7-0.9-0.9c2.2-8,1.6-17-0.2-25.3c-10.6-47.8-47.5-85.2-92.4-103.2
		c-18.7-6.3-45.4-11.2-61.8,3.7c-13.2,12-15.3,30-8.6,46.2c17.6,42.7,63.8,79.2,107,93.7c12.2,4.1,31.1,8.9,43.7,1.8
		c12,19.5,27.3,38.9,33.6,61.1c5.5,19.2,4,38.7,3.6,58.4c-0.1,5.3-0.2,10.5-0.4,15.8c-7.1-9.6-15.7-18.8-24-26.7
		c4.1-12.1,0.5-26.4-14.6-39.7c-0.1-0.1-0.2-0.1-0.3-0.2c-0.1-0.1-0.3-0.3-0.4-0.4c-37-28.3-97.6-49.7-142.7-27.4
		c-33.1,16.3-13.7,54,7.2,73.1c30,27.4,71.9,30.4,110.4,23.6c11.4-2,21.2-6.5,28.5-12.5c12.8,17.5,25.1,35.3,34.9,54.7
		c-0.4,15.9-0.8,31.7-1.2,47.6c-8.4-5.5-17.9-9.5-27.6-11.8c6.7-15.9,10.7-34.6-4.3-46.9c-14.4-11.8-38.8-8.5-55.7-6.7
		c-43.7,4.7-86.4,30.7-106,71.1c-14.1,28.9-8.2,69.7,31.9,69.8c13.8,0,28-2.4,41.8-6.9c4.4,19.9,13.2,37.5,24.3,53.8
		c-16.3,1.4-75.4,7.3-72.5,24.9c-1.3,34-4.9,69.8,36,76.8c1.8,0.3,3.7,0.5,5.5,0.8c-0.9,24.4-0.2,48.9-0.1,73.3
		c0,12.6,1.1,19.3,13.6,24.5c38.2,16.1,88,13.4,128.5,12.7c40.7-0.7,90,0.6,128.6-14.8c11.9-4.8,13.6-9.2,13.7-21.6
		c0.1-24.7,0.8-49.7-0.6-74.4c7.3-1.4,14.5-3.3,21.4-6c27.7-11.1,21.6-47,20.1-70.7c2.1-11.7-34.6-19.8-49.3-22.4
		c15.4-17.8,28-37.8,34.4-59.7c0.5-1.8,1.2-4,1.9-6.4c0.2-0.1,0.4-0.2,0.6-0.3c24.8-17.1,28.6-46.7,5.4-68
		c-25.1-23-67.1-35-100.8-31.2c-17.4,2-41,9.6-57.2,23.1c-0.3-10.5-0.7-21-1-31.6c0,0,0,0,0.1,0c23.8-2.5,43.9-26.1,58.2-43.8
		c6.9,6.1,14.5,11.4,22.4,15.3c41.3,20.5,104.3,30,144.4,2C851.4,345.3,807.7,296.5,774.5,281.4z M549.7,493.9
		c-0.4,14.6-0.8,29.2-1.2,43.7c-20.8-17.8-43.4-33.3-68.7-44.1c13.5-10.3,25.1-22.6,33.9-36.4c12.6,4.7,24.5,16.2,32.9,26.9
		C548.9,487.1,549.8,489.3,549.7,493.9z M624.9,522c-13.7,10.6-25.9,23-36.1,37.1c-0.7-18-1.4-36-2-53.9
		C598.1,513.4,612.3,518.9,624.9,522z"/>
	<g>
		<path class="st2" d="M550.6,459.6c-8.8-6.7-19.8-11.4-30.6-13.7c-0.8,1.6-1.6,3.2-2.5,4.8c12.4,5.2,23.8,15.4,32.6,26
			C550.3,470.9,550.5,465.3,550.6,459.6z"/>
		<path class="st2" d="M552.8,371.8c-7.1-11.7-17.3-23.1-27.2-32.7c-0.9,1.4-1.9,2.7-3,4c10.6,14.5,20.9,29.1,29.8,44.7
			C552.6,382.4,552.7,377.1,552.8,371.8z"/>
		<path class="st2" d="M522.1,218.4c10.5,17.4,22.2,34,30.7,52.5c8,17.5,8.9,35.1,8.6,54c-0.1,7-0.3,14.1-0.4,21.1
			c-0.2,8-1.9,81-2.2,92.6c-1.6,59.2-3.1,118.5-5.2,177.7c0.6,0,5,0,6.6,0.1c4.7-15,10.8-29.3,18.7-42.1c2.7-4.4,2.1-21.4,1.9-25.4
			c-0.7-16.8-1.3-33.5-1.9-50.3c-9.1-9.1-14.7-20.7-12.8-35.1c0.9-6.9,3.6-13.2,7.6-18.8c2.1-3,3.2-6,3-9.8
			c-1-29.9-1.9-59.8-2.9-89.7c-3.1-0.4-5.5-2.5-7.1-7.6c-2.1-6.6,0.4-15.2,6.4-19c0-0.2-0.1-0.3-0.1-0.5c-1.1-33.8,5.2-59.8,21.8-89
			c-2.2-1.3-4.1-2.8-5.7-4.5c-7.3,11.9-17.2,47.2-33.5,32.6c-12.8-11.5-21.1-28.4-30.5-42.7C524.2,215.8,523.2,217.1,522.1,218.4z"
			/>
		<path class="st2" d="M574.1,329.7c-0.4,1.3-0.2,8.9,1.3,8.6c14.1-3.7,28-11.7,42.9-11.2c-0.5-1-0.9-2-1.3-3.1
			c-0.9-2.2-1.4-4.3-1.6-6.4c-9.6-0.2-19.1,2-28.4,4.4C581.7,323.2,575.9,323.9,574.1,329.7z"/>
	</g>
	<path class="st3" d="M739.6,650.6c6.2-11.5,4.2-30,2.8-44.4c0,0-0.1,0.1-0.1,0.1c-19.2,11.9-49.6,11.6-71.2,13.5
		c-40.8,3.6-81.8,4.5-122.7,4.1c-38.1-0.4-76.4-2.3-114.2-6.9c-10.3-1.3-32.5-2.1-44.3-9.8c-0.9,15-1.9,32.1,3.9,44.9
		c6.9,15.2,30.7,16.2,44.6,17.6c67.1,7.1,203,9.9,271-2.7C720.8,664.9,733.7,661.5,739.6,650.6z"/>
	<path class="st4" d="M700.9,742.8c0.1-22.1,0.6-44.4-0.6-66.4c-9.7,1.4-19.6,2.1-29.2,3c-61.3,5.4-172.3,6.9-239.2-2.7
		c-0.6,19.1-0.2,38.3-0.1,57.4c0,16.6-4.2,27.8,13.2,33.9c36.2,12.8,79.8,10.9,117.5,10.5c40.1-0.4,82.2-1.7,121.2-11.7
		C700.3,762.4,700.8,759.5,700.9,742.8z"/>
	<g>
		<path class="st5" d="M371,513.3c2.6,1.6,5.7,2.9,9.3,4c42.8,12.8,92.4-24.5,118.5-54.1c10.6-12,28.1-37,22.5-55.3
			c-1-3.4-2.2-5-6.7-4c-29.2,6.4-57.2,22.9-81.3,39.7c-13.4,9.4-26,20-38.1,31.1c-9.9,9-18,19.3-26.5,29.4
			C366.1,507.1,367.4,511.2,371,513.3z"/>
		<path class="st5" d="M371,277.1c9.3-1.3,19.6-0.3,28.1,0.3c17.4,1.3,34.5,5.6,51,10.9c23.3,7.5,49.9,17.5,68.7,34.5
			c2.5,2.2,4.9,4.6,4.1-1.9c-1-8-5.7-16.2-13.7-23.3c-32.1-24.3-75-39.8-115.4-32.3c-8.5,1.6-17.6,3.6-24.8,8.6
			C364,277.5,368.8,277.4,371,277.1z"/>
		<path class="st5" d="M583.1,343.3c-0.6,0.2-1.1,0.4-1.7,0.6c0.5,16.8,1.1,33.7,1.6,50.5c0.1,0,0.2-0.1,0.3-0.1
			c20.9-2.2,40-25.7,52.7-41.4c-5.2-5.4-9.9-11.4-13.6-17.8C609.9,332.6,594.7,338.9,583.1,343.3z"/>
		<path class="st5" d="M576.4,616.4c9.8,0,19.7-0.1,29.6-0.3c24-12.3,44.1-34.2,62.6-53.1c10.2-10.4,20.2-20.9,29.6-32
			c5.8-6.8,11.1-14,16.2-21.5c2.8-4.1,5.9-7.8,8.4-11.8c1.9-3,2.1-5.7-2.9-5.9c-2.3-0.1-4.7,0.1-7,0.4c-9.6,1.4-19,3.8-28.3,6.7
			c-54.2,16.7-94.4,57.5-113.8,109.7C568.5,614.9,571.2,616.4,576.4,616.4z"/>
		<path class="st5" d="M644.9,281.3c10.9-5.2,22.5-8.8,34.3-11.1c5-36-43.5-11.7-58.6-2.9c-12.4,7.2-24.4,15.2-34.1,25.7
			c-4.3,4.7-5.8,7.8-6,14c-0.1,2.8-0.1,5.6,0,8.5c11.1-3.6,23.6-6.1,35.1-5.6C618.7,296.9,633.4,287.4,644.9,281.3z"/>
		<path class="st5" d="M571.5,229.9c2.7,3.7,4.1,3.5,6.2-0.7c1.9-4,4.1-7.9,7-11.5c-2.7-6.1-3.4-13.5-3.2-21.7
			c0.2-2.3,0.5-4.5,0.8-6.7c-1.2-12.7-2-25.1,0-38c2.8-19.1,9-37.8,16.2-55.7c9.3-23.3,22.1-51.3,43.1-67.2c2.1-1.6,2.9-3.6-1.3-3.9
			c-3.4-0.2-7.3,0.1-11.8,1.1c-28.2,6.6-45.6,42.9-55.6,67.1C556.7,131.9,544.7,192.3,571.5,229.9z"/>
		<path class="st5" d="M384.5,89.1c11.8,3.7,23.5,11.4,33.5,17.2c15.5,9,29.6,20.2,43.1,31.8c14.1,12.1,27.2,25.5,38.7,40.1
			c5.5,7,13.9,16.9,17.9,26.6c1,2.4,2.8,4,4.1-0.8c3-11.2-1.6-25.7-4.8-35.4c-12.8-38.4-46.1-68.6-83-83.4
			c-16.1-5.4-35.1-9.1-50.2-0.7C378.9,87.2,382.3,88.4,384.5,89.1z"/>
		<path class="st5" d="M472.6,498.8c-5.9,4-12.1,7.7-18.5,10.9c14.3,21.5,30.8,41.2,49.4,59c8.7,8.3,17.8,16.4,27.6,23.5
			c4.7,3.4,9.8,6.4,15.3,8.5c0.6-17.7,1.2-35.5,1.7-53.2C525.6,527.5,500.8,509.8,472.6,498.8z"/>
		<path class="st5" d="M509.6,615.2c12.1,0.5,24.2,0.8,36.4,1c0.1-3.9,0.3-7.7,0.4-11.6c-5.2-2.8-11.6-5.4-17.1-9.1
			c-9.3-6.4-17.6-14.1-25.9-21.7c-20.1-18.4-37.6-39.7-52.7-62.4c-4.1,2-8.3,3.8-12.5,5.4c8.1,37,31.8,65.8,57.1,92.7
			C498.8,613.2,502.9,614.9,509.6,615.2z"/>
		<path class="st5" d="M656.2,607.3c26.4-21.5,49.6-47,64.8-77.7c4-8.1,6.6-16.7,8.7-25.4c0.3-1.1,0.4-2.1,0.5-3
			c0.5-6.8-1.6-5.6-4.6-0.3c-5.1,8.9-12.3,17.3-18.3,24.8c-10.5,13.3-22,25.6-33.8,37.7c-17.7,18.1-36.9,39.2-59.4,52.5
			c8.3-0.2,16.7-0.6,25-1.1C645.2,614.5,651.4,611.2,656.2,607.3z"/>
		<path class="st5" d="M371.9,95.9c-7.9,15.2,3.1,36.3,11.3,48.9c20.6,31.3,56.6,56.4,91.3,69.4c10.8,4,27,8.1,37.9,2
			c2.8-1.6,3.6-4.7,2.1-8.2c-2.1-5.1-6-10.2-8.5-14.2c-4.6-7.2-9.8-14-15.2-20.5c-9.8-11.8-21-22.4-32.5-32.5
			C446,130,432.9,120,418.9,111.3c-6.6-4.1-13.6-7.8-20.6-11.3c-5.7-2.8-11.3-6-17.3-7.9C377.9,91.2,373.7,92.4,371.9,95.9z"/>
		<path class="st5" d="M749.3,480.8c0.7-3.4-0.1-5.7-2.4-7c-21.5-12.1-51-13.5-74.5-15.8c-16.9-1.7-33.8-2.1-50.7-0.8
			c-15,1.2-29.1,5.6-43.7,8.5c-4.3,0.9-6.4,2.7-5.6,8.2c3.2,23,41.4,38.2,59.8,42c0.3,0.1,0.5,0.2,0.7,0.3
			c20.3-14,43.6-24.2,69.1-29.7c9.8-2.1,22.8-5.5,31.6,0.7c3.7,2.6,4.8,7,4.6,11.7C744.6,493.2,748.1,487.1,749.3,480.8z"/>
		<path class="st5" d="M366.7,500.6c8.3-9.8,16.3-19.7,25.8-28.6c12.3-11.4,25.3-21.9,38.9-31.7c23.4-16.8,51.4-32.9,80.1-39.6
			c3.4-0.8,4.7-2.4,0.1-5.1c-7.6-4.5-18.3-6-29.9-5.6c-5.2,0.3-10.3,0.9-14.6,1.4l-0.1,0c-18.7,2.8-37.7,9.2-49.8,15.6
			c-16.7,8.9-31.4,21.4-43.3,37c-11.4,15-21.3,38.7-14.7,55.6C361.5,505.6,363.3,504.5,366.7,500.6z"/>
		<path class="st5" d="M817.6,354.5c2.4-5.3,1.6-7-3.5-9.7c-27.7-14.6-57.1-25.8-87.7-32.6c-16.9-3.7-34.1-5.6-51.4-5.9
			c-8.5-0.1-17.1,0.5-25.6,1.4c-6.9,0.8-13.4,2.9-20.1,4.8c-5,1.5-7.2,5.4-4.4,11.5c2,4.5,5.1,8.7,7.4,12.1
			c13.3,19.2,33.6,31.4,55.3,38.8c34.7,11.9,80.4,15.6,113-3.5C809.5,366.3,814.9,360.5,817.6,354.5z"/>
		<path class="st5" d="M645.9,30c-22.4,15.8-35.4,45.6-45,69.8c-6.3,15.9-11.3,32.4-14.4,49.2c-1.7,9-1.9,17.8-1.5,26.6
			c9.8-37.2,36.9-66.4,71-84.5c3.2-1.7,3.4-2.4,3.9-5.5c2.8-17.3,5.2-42.5-5.3-54.4C651.2,27.3,650.2,27,645.9,30z"/>
		<path class="st5" d="M359.5,290.5c0.5,12.6,12.3,28,18.7,35.8c18.5,22,47,29.4,74.6,30c16.6,0.4,35.4-0.9,50.8-7.4
			c7.5-3.2,12.7-7.5,15.8-12.4c2.5-4,2.1-5.7-1.4-9c-17-16.2-41-25.6-62.5-33.2c-14.1-5-28.6-8.8-43.4-11.3
			c-8.8-1.5-17.8-2.1-26.8-2.1c-5.8,0-12.7-0.3-18.8,1.2C362,283,359.3,285.1,359.5,290.5z"/>
		<path class="st5" d="M720.9,435.2c-21.6-12.6-49.6-18.1-74.2-17.6c-27.7,0.6-55,14.8-69.9,38.4c-3.7,5.9-1.7,6.4,2.9,5.4
			c11.6-2.5,23-5.7,34.8-7.3c19.2-2.5,38.7-1.7,57.9,0c14.9,1.4,29.8,3.5,44.4,6.2c9.6,1.7,19.3,4.1,28.1,8.2
			c3.5,1.7,4.3,0.2,2.9-3.7C743.8,453.3,733.5,442.5,720.9,435.2z"/>
		<path class="st5" d="M754.1,281.6c-33.7-11.1-73.3-8.8-105.3,6.3c-8.3,4.4-17.2,9-22.4,16.9c-2.6,4-0.6,4.9,3.3,3.8
			c5.3-1.5,10.6-3.1,16-4.1c8.5-1.6,17.5-1.8,26.2-1.9c17.6-0.3,35.2,1.9,52.4,5.3c31.7,6.2,62.2,18,90.8,33.1
			c3.1,1.6,5.1,1.8,4-2.9C812.9,313.3,774.9,288.5,754.1,281.6z"/>
		<path class="st5" d="M662.3,96.1c-39.2,18.7-69.4,56-73.2,99.9c-0.2,6.6,0.6,11.7,2.2,15.8c1.5,3.9,3.6,3.2,5.8,0
			c4.2-6.1,8-12.5,12.2-18.7c4.9-7.3,11.2-13.7,17.4-19.9c14-14.1,29.8-26.3,46.3-37.3c15.3-10.2,31.5-19.1,47.9-27.3
			c12-5.9,24.8-11.2,38-13.2c4.6-0.7,6.4-2.6,2.2-6.1C738.4,70.3,682.3,86.5,662.3,96.1z"/>
		<path class="st5" d="M761.6,98.9c-15.6,1.9-30.3,8.7-44.2,15.7c-15.6,7.9-30.7,16.7-45.3,26.4c-16.2,10.8-31.3,23.3-45.1,37.2
			c-10.6,10.6-17.7,23.3-26.2,35.2c-2.9,4.1-2.8,7.8,1.1,9.6c6.3,2.8,14.6,3.5,24.5,3.5c24.8,0.1,47.9-8.1,69.2-20.2
			c32-18,76.2-54,75.2-94.6c-0.1-2.2-0.3-4.2-0.6-6.1C769.2,100.2,767.4,98.2,761.6,98.9z"/>
	</g>
	<path class="st6" d="M421.1,424.7c-12.4,7.8-24.3,16.4-36.5,24.4c-0.8,0.6-1.7-0.6-1-1.3c10.6-11.5,21.7-21.9,34.7-30.6
		c6.4-4.3,13.2-8.2,20.3-11.4c6.8-3.1,13.1-4.2,20.4-4.6c1.5-0.1,2,2,0.7,2.7c-6.5,3.5-12.8,6.9-19.5,10.1
		C433.7,417.2,427.3,420.8,421.1,424.7z M471.4,398.5c-2.5-1.7-6.1-0.5-7.9,1.7c-0.4,0.5-0.4,1.2,0.2,1.5c2.5,1.4,6.1,0.6,7.9-1.6
		C472,399.6,472,398.9,471.4,398.5z M467.1,436.5c-12.2,2.6-22.3,9.6-32.1,17.1c-10.3,7.9-19.2,16.7-27.7,26.4
		c-0.6,0.7,0.2,1.9,1,1.3c9.7-6.9,19.1-14.3,28.7-21.4c10-7.5,21-13.7,31-21.2C469.1,437.9,468.5,436.3,467.1,436.5z M791.7,341.6
		c-9.2-6.1-18.2-11.2-28.7-14.8c-10.4-3.6-21.3-6-32.1-8.2c-10.8-2.2-21.8-3.8-32.8-4.6c-5.7-0.4-11.6-0.5-17.3-0.2
		c-6,0.3-11.5,1.7-17.4,2.7c-1.2,0.2-0.9,2.1,0.3,2.1c5.1-0.2,10.4,0.6,15.5,1c6,0.4,11.9,1.1,17.9,2c10.6,1.6,21,3.6,31.4,5.9
		c10.3,2.2,20.5,5,30.6,7.9c10.5,3,21.2,5.5,31.6,8.9C792.1,344.5,792.9,342.4,791.7,341.6z M696.2,283.4c-0.8,0.5-0.6,1.5,0.2,1.9
		c6,2.4,13.4,1.7,19.7,2.3c6.8,0.6,12.9,1.9,19.7,0.3c0.9-0.2,1.1-1.6,0.3-2c-6.4-3.4-12.9-4.1-20-4.8
		C709.9,280.5,701.7,279.6,696.2,283.4z M742.7,289.7c0.8,0.3,1.7,0.5,2.6,0.2c1.3-0.5,1.7-1.7,1.2-2.9c-1-2.4-6.6-2.4-5.9,0.9
		C740.8,289,741.8,289.3,742.7,289.7z M634.9,271.8c7.8-3.1,15.4-5.5,22.7-9.7c1-0.6,0.5-2.1-0.6-2.1c-8.8-0.1-16.7,2.1-24.8,5.6
		c-6.6,2.8-17.8,7-20.2,14.6c-0.2,0.5,0.3,1.2,0.9,1.2c3.2-0.3,6.3-2.1,9.1-3.6C626.2,275.6,630.5,273.6,634.9,271.8z M387.6,290.1
		c18.5,5.5,37.4,8.7,55.4,15.9c16.4,6.5,32.4,15.1,48,23.4c1.2,0.6,2.7-0.7,1.9-1.9c-4.6-7.4-11.5-11.9-19-16
		c-8.4-4.5-17.2-8.3-26-11.9c-19.2-7.7-39.5-11.2-60.1-11.1C386.9,288.5,386.7,289.8,387.6,290.1z M393.5,112.2
		c6.5,4.7,13.6,8.6,20.2,13.2c6.8,4.8,13.7,9.5,20.4,14.4c6.4,4.7,12.6,9.3,18.6,14.5c3.1,2.7,6.1,5.5,9.2,8.2c3.1,2.8,6.8,5,10,7.6
		c1.3,1,3.1-0.2,2.3-1.8c-3.9-7.5-8.2-13.5-14.4-19.3c-6.3-5.8-13.3-11-20.3-15.9c-7.2-5-15.1-9-22.6-13.4c-6.9-4-14.9-8.9-23-9.1
		C393,110.7,392.9,111.8,393.5,112.2z M480.6,179.9c0.9-0.4,1.1-1.6,1.1-2.5c0-1.1-0.7-2.2-1.4-3c-0.8-1-2.7-2.2-4-1.1
		c-1.3,1.1-0.4,3.2,0.2,4.4C477.4,179.3,478.8,180.8,480.6,179.9z M604.8,51.5c-11.2,14-19.9,29.3-27.3,45.6
		c-3.6,8-6.7,16.2-9.4,24.5c-3,9.1-4.4,17.8-5.2,27.3c-0.1,1.3,1.7,1.4,2.1,0.3c2.8-8.2,5.9-16.3,8.5-24.6
		c2.7-8.3,5.8-16.4,9.2-24.4c6.9-16.3,15.6-31.8,23.7-47.4C607,51.8,605.6,50.6,604.8,51.5z M609.1,102.5c4.7-7.5,7.7-15.9,12-23.6
		c2.3-4.1,5-8.1,7.4-12.1c2.5-4.1,4.4-8.1,6.6-12.3c0.6-1.1-0.8-2.3-1.7-1.3c-3.1,3.2-6.1,6.1-8.9,9.7c-3.2,4.1-6,8.5-8.7,13
		c-4.8,7.9-9.6,16.5-9.1,26C606.8,103.1,608.4,103.6,609.1,102.5z M638,49.7C638.2,49.7,638.2,49.7,638,49.7c0.4,0,0.7,0,1-0.1
		c0.5-0.1,0.9-0.2,1.3-0.5c0.9-0.6,1.9-1.5,2.1-2.6c0.2-0.8,0-1.6-0.6-2.1c-0.5-0.5-1.4-0.9-2.1-0.6c-1.1,0.5-1.9,1.2-2.4,2.3
		c-0.4,0.9-0.5,1.9-0.3,2.9C637.2,49.4,637.6,49.7,638,49.7z M619,144.6c-0.5,0.9,0.5,1.9,1.4,1.4c7.1-4.3,13.4-9.9,20.1-14.9
		c6.7-5.1,13.8-9.7,21.1-13.8c15.4-8.8,32.3-13.1,48.7-19.3c1.2-0.4,1-2.1-0.3-2.2c-17.9-1.2-35.3,6.5-50.7,15
		c-7.6,4.2-14.8,9.1-21.7,14.5C630.6,130.8,623.7,137,619,144.6z M718.1,98.6c0.6,0,1.3,0,1.9-0.2c0.8-0.2,1.2-0.7,1.7-1.2
		c0.6-0.5,0.6-1.8,0-2.3c-0.6-0.5-0.9-1-1.7-1.2c-0.9-0.3-2-0.1-2.9,0c-1.4,0.2-3.7,1.7-2.5,3.4C715.5,98.5,716.7,98.5,718.1,98.6z
		 M687.8,141.9c-9.2,1.7-17.1,7.8-24.4,13.4c-6.8,5.3-14.9,11.8-17.1,20.5c-0.2,0.7,0.6,1.3,1.2,0.9c7.2-4.5,13.3-10.9,20.1-15.9
		c7.2-5.3,15.8-9.4,21.5-16.6C690,143.1,689.2,141.7,687.8,141.9z M614.3,435.2c6.4-1.6,13.7-2.2,20.4-2.8c7-0.6,14.1-0.4,21.1,0.3
		c13.5,1.3,26.5,5.1,40,6.2c1.2,0.1,1.4-1.5,0.6-2.1c-11.7-8.4-26.5-10.8-40.6-11.7c-7.3-0.5-14.7-0.3-22,0.8
		c-3.8,0.6-7.5,1.4-11.1,2.5c-3.4,1.1-6.1,3.1-9.2,4.8C612.5,433.9,613.2,435.5,614.3,435.2z M706.4,439.5c-0.6-0.3-1.1-0.6-1.8-0.8
		c-0.9-0.2-1.5-0.1-2.3,0.2c-0.8,0.4-1.1,1.4-0.9,2.2c0.4,1.5,1.8,2.2,3.1,2.8c1,0.4,2.2-0.3,2.7-1.1
		C707.9,441.7,707.5,440.2,706.4,439.5z M651.3,467c0.9-0.3,1.1-1.5,0.3-2c-5.4-3.6-12.1-3.4-18.3-2.9c-6.4,0.5-14.3,0.9-19.7,4.7
		c-0.7,0.5-0.6,1.5,0.2,1.8c5.7,2,12.1,0.7,18,0.4C638.3,468.6,645.1,469.2,651.3,467z M685.9,528.4c-5.4,3.6-10.5,7.1-15.4,11.4
		c-5.4,4.8-11.1,9.4-16.8,13.9c-10.4,8.1-21.2,15.8-31.4,24c-0.6,0.5-0.1,1.6,0.6,1.5c6-0.4,11.1-3.1,16.1-6.3
		c6.2-3.9,12-8.2,17.8-12.5c5.6-4.2,11.1-8.8,16.4-13.4c5.8-5.1,10.2-10.3,14.4-16.8C688.4,529.2,687,527.7,685.9,528.4z
		 M695.9,517.1c-0.3,0-0.6,0.1-0.9,0.2c-1.6,0.3-2.7,1.3-3.8,2.6c-0.7,0.8-1.3,1.5-1.7,2.6c-0.2,0.6-0.1,1.3-0.3,1.9
		c-0.2,0.6,0.4,1.2,0.9,1.2c0.1,0,0.5,0.2,0.7,0.2c0.7,0.1,1.2,0,1.9-0.1c1.2-0.2,2.1-1.1,3-1.9c1.6-1.5,2.5-3.7,1.6-5.9
		C697.1,517.3,696.6,517,695.9,517.1z M517,530.1c-9.1-5.7-18.9-9.7-29.1-12.8c-1.1-0.3-1.6,1.1-0.7,1.7c7.9,5.4,16.3,10,24.3,15.2
		c8.3,5.3,15.6,12.4,24.3,16.9c0.8,0.4,2-0.3,1.6-1.3C534,540.7,524.9,535.1,517,530.1z M680.1,575.7c-3.5,2.5-7.1,4.9-10.5,7.6
		c-3.7,3-7.7,5.5-10.5,9.6c-0.7,1,0.4,2,1.4,1.8c9.1-1.5,17.1-9.8,20.8-17.9C681.5,576.2,680.8,575.2,680.1,575.7z M611.7,341.5
		c-2.7-0.7-4.9,0.3-7.3,1.2c-2.9,1.1-6.2,1.6-8.8,3.4c-1.4,1-1.3,3.1,0.5,3.6c5.1,1.6,15.9-0.5,16.6-7
		C612.7,342.2,612.2,341.6,611.7,341.5z"/>
	<g>
		<path class="st7" d="M454.7,580.7c-15.6,1.5-31.1,3.6-46.3,7.6c-15.9,4.2-19.9,10.5-5.8,14.9c22.6,7.2,47.6,8.1,71.1,9.8
			c5.1,0.4,10.3,0.7,15.4,1c-8.6-9.2-17-18.6-24.7-28.5C461.6,582,459.4,580.3,454.7,580.7z"/>
		<path class="st7" d="M660.6,613.4c17.6-1.4,35.1-3.5,52.4-6.4c6-1,37.8-6.3,22.9-14.2c-10.1-5.4-22.6-7.5-34.3-9.2
			c-5.2-0.7-9.4,0.9-12.4,4.1C680.1,597,670.4,605.6,660.6,613.4z"/>
	</g>
	<path class="st8" d="M739.6,650.6c1.1-2,1.9-4.2,2.5-6.6c-60,28.5-247.8,21.3-306.6,14.1c-15.7-1.9-30.9-4.7-41.8-17.2
		c-1.5-1.7-2.8-3.4-4-5.2c0.6,5.9,1.8,11.5,4.1,16.4c6.9,15.2,30.7,16.2,44.6,17.6c67.1,7.1,203,9.9,271-2.7
		C720.8,664.9,733.7,661.5,739.6,650.6z"/>
	<path class="st9" d="M671.1,679.4c-61.3,5.4-172.3,6.9-239.2-2.7c-0.2,6.3-0.3,12.5-0.3,18.8c10.4,1.4,20.9,2.5,31.4,3.5
		c22.3,2.2,44.8,3.2,67.2,3.7c45.1,1,90.3-0.9,135.1-5.7c11.5-1.2,23-2.7,34.5-4.7c0.4-0.1,0.8-0.1,1.1-0.2
		c-0.1-5.3-0.3-10.5-0.6-15.7C690.5,677.8,680.7,678.5,671.1,679.4z"/>
	<path class="st10" d="M477.5,765.5c-10.8-1.4-21.7-3.6-32-7.4c-5-1.8-9.8-4.1-14.1-7.2c0.4,7.6,2.9,13.3,13.5,17
		c36.2,12.8,79.8,10.9,117.5,10.5c40.1-0.4,82.2-1.7,121.2-11.7c15.6-4,17.1-6.9,17.2-20.9C654.4,768.9,523.5,771.5,477.5,765.5z"/>
	<path class="st11" d="M743.5,618.7c-0.3-4.3-0.7-8.5-1.1-12.5c0,0-0.1,0.1-0.1,0.1c-19.2,11.9-49.5,11.6-71.2,13.5
		c-40.8,3.6-81.8,4.5-122.7,4.1c-38.1-0.4-76.4-2.3-114.2-6.9c-10.3-1.3-32.5-2.1-44.3-9.8c-0.1,2.4-0.3,4.8-0.4,7.3
		c5.8,3.4,12,6,17.7,8.2c12.1,4.4,24.6,7.3,37.1,9c27.9,3.8,56.3,3.3,84.3,3.7c30.8,0.4,61.5,0.3,92.3-0.7
		C651.1,633.6,695,630.9,743.5,618.7z"/>
	<g>
		<path class="st12" d="M371,513.3c2.6,1.6,5.7,2.9,9.3,4c42.8,12.8,92.4-24.5,118.5-54.1c0.6-0.6,1.2-1.3,1.8-2.1
			c-75.3,48-114,50.5-120.6,29.6c-3.8,4.4-7.5,8.9-11.2,13.4C366.1,507.1,367.4,511.2,371,513.3z"/>
		<path class="st12" d="M456.5,519.9c-2-2.8-3.9-5.7-5.9-8.6c-4.1,2-8.3,3.8-12.5,5.4c8.1,37,31.8,65.8,57.1,92.7
			c3.5,3.8,7.7,5.4,14.3,5.7c6.7,0.3,13.5,0.5,20.2,0.7C471.6,582.1,448.6,552.9,456.5,519.9z"/>
		<path class="st12" d="M576.8,456c-3.7,5.9-1.7,6.4,2.9,5.4c11.6-2.5,23-5.7,34.8-7.3c2.4-0.3,4.7-0.6,7.1-0.8
			c-0.2-0.1-0.4-0.1-0.7-0.2c-1.2-0.2-2.5-0.2-3.7-0.4c-2.4-0.3-4.8-0.8-7.1-1.5c-4.5-1.3-9.3-3.3-12.2-7.2c-2-2.7-2.6-5.8-2-8.9
			C588.4,441,581.9,448,576.8,456z"/>
		<path class="st12" d="M621.3,290.6c-20.9,10.9-31.7,10.1-30.7-1.7c-1.4,1.3-2.8,2.7-4.1,4.1c-4.3,4.7-5.8,7.8-6,14
			c-0.1,2.8-0.1,5.6,0,8.5c11.1-3.6,23.6-6.1,35.1-5.6c3.1-13.1,17.7-22.5,29.3-28.6c2.8-1.3,5.7-2.6,8.6-3.7
			C644.2,276.7,634,283.9,621.3,290.6z"/>
		<path class="st12" d="M576.4,616.4c9.8,0,19.7-0.1,29.6-0.3c18.3-9.4,34.4-24.3,49.2-39.3c-62.7,40.8-65.3,8.5-65-1.8
			c0-1.8,0.2-3.6,0.5-5.5c-8,12-14.7,25.1-19.8,39C568.5,614.9,571.2,616.4,576.4,616.4z"/>
		<path class="st12" d="M371,277.1c9.3-1.3,19.6-0.3,28.1,0.3c13.5,1,26.9,3.8,40,7.5c-7.1-2.8-14.5-4.8-21.8-7.2
			c-5.1-1.7-11.3-3.4-15.5-6.9c-1.8-1.5-3.1-4.1-2.2-6.4c-1.9,0.3-3.9,0.5-5.8,0.9c-8.5,1.6-17.6,3.6-24.8,8.6
			C364,277.5,368.8,277.4,371,277.1z"/>
		<path class="st12" d="M577.7,229.1c1.9-4,4.1-7.9,7-11.5c-2.7-6.1-3.4-13.5-3.2-21.7c0.2-2.3,0.5-4.5,0.8-6.7
			c-1.2-12.7-2-25.1,0-38c0-0.2,0.1-0.4,0.1-0.5c-0.3,1.4-0.6,2.8-0.9,4.3c-1.8,7.9-4.8,16.6-11.8,21.3c-3.8,2.6-9.1,3.5-13.8,2.4
			c0.8,18.7,5.4,36.6,15.7,51.1C574.2,233.6,575.7,233.3,577.7,229.1z"/>
		<path class="st12" d="M547.3,575c-7,12.4-21.9,10.1-36.8,0.3c6.6,6,13.4,11.7,20.6,16.9c4.7,3.4,9.8,6.4,15.3,8.5
			C546.8,592.1,547.1,583.5,547.3,575z"/>
		<path class="st12" d="M818.6,351.8c-38,20.3-82.4,12.9-100.5,9.6c-38.9-7.1-86.4-25-79.2-51.6c-3.2,0.8-6.4,1.8-9.6,2.7
			c-5,1.5-7.2,5.4-4.4,11.5c2,4.5,5.1,8.7,7.4,12.1c13.3,19.2,33.6,31.4,55.3,38.8c34.7,11.9,80.4,15.6,113-3.5
			c8.9-5.2,14.3-11,16.9-17C818,353.5,818.4,352.6,818.6,351.8z"/>
		<path class="st12" d="M479.4,501.6c-2.2-1-4.5-1.9-6.8-2.8c-5.9,4-12.1,7.7-18.5,10.9c10.8,16.1,22.7,31.2,35.9,45.3
			c-5.9-7.2-10.5-15.2-14.2-23.7C473.9,526.8,466.8,511.8,479.4,501.6z"/>
		<path class="st12" d="M366.7,500.6c8.3-9.8,16.3-19.7,25.8-28.6c5.5-5.1,11.2-10.1,17-14.8c-44.1,25.6-46.6,19.2-47,6.5
			c-5.1,12.1-7.4,25.3-3.3,35.9C361.5,505.6,363.3,504.5,366.7,500.6z"/>
		<path class="st12" d="M371.9,95.9c-7.9,15.2,3.1,36.3,11.3,48.9c20.6,31.3,56.6,56.4,91.3,69.4c10.8,4,27,8.1,37.9,2
			c2.8-1.6,3.6-4.7,2.1-8.2c-0.3-0.7-0.7-1.5-1-2.2c-19.9,1.9-42.1-6.7-49.7-9.4c-15.7-5.7-30.4-14.2-43.1-25
			c-24.4-20.8-50.6-50.4-45.5-78.7C374,93.3,372.7,94.4,371.9,95.9z"/>
		<path class="st12" d="M597.7,115.4c-0.2-3.3,0.3-6.9,1.1-10.2c-5.3,14.2-9.5,28.9-12.3,43.8c-1.7,9-1.9,17.8-1.5,26.6
			c6.3-23.9,19.7-44.4,37.4-60.8c-4.6,1.7-9.3,3.4-14.1,4.7C604.4,120.6,598.1,121.1,597.7,115.4z"/>
		<path class="st12" d="M621,163.2c-4.1-0.4-7.9-2-9.9-5.8c-1.8-3.5-2.4-7.5-2.3-11.4c0-1.7,0.2-3.4,0.6-5.1
			c-11.2,16.2-18.5,35-20.2,55.2c-0.2,6.6,0.6,11.7,2.2,15.8c1.5,3.9,3.6,3.2,5.8,0c4.2-6.1,8-12.5,12.2-18.7
			c4.9-7.3,11.2-13.7,17.4-19.9c5.7-5.8,11.7-11.2,18-16.4c-0.4,0.2-0.9,0.4-1.3,0.6C636.6,160.6,628.7,164,621,163.2z"/>
		<path class="st12" d="M383.7,84.5c-4.8,2.7-1.5,3.9,0.7,4.6c11.8,3.7,23.5,11.4,33.5,17.2c2.8,1.6,5.6,3.3,8.3,5.1
			c-6.9-5.5-15.7-12.8-21.6-19.1c-5.3-5.7-5.6-10.4-5.4-12.4C393.8,80.4,388.6,81.8,383.7,84.5z"/>
		<path class="st12" d="M359.5,290.5c0.5,12.6,12.3,28,18.7,35.8c18.5,22,47,29.4,74.6,30c16.6,0.4,35.4-0.9,50.8-7.4
			c4.9-2.1,8.9-4.7,11.9-7.6c-25.7,9.9-60.4,11.3-88.8,3.8c-15.2-4-28.9-13.2-39.6-24.7c-4.9-5.2-18.7-19.2-20.6-38.4
			C362,283,359.3,285.1,359.5,290.5z"/>
		<path class="st12" d="M688.6,482c-11.8,2-23.5,6.1-34.6,10.6c-20.5,8.2-38.9-1.7-50.4-12.5c-3.1-2.9-6.2-5.8-8.1-9.6
			c-1.2-2.4-1.8-4.5-1.7-7.1c0-0.5,0-0.9,0.1-1.3c-5.2,1.2-10.5,2.5-15.7,3.5c-4.3,0.9-6.4,2.7-5.6,8.2c3.2,23,41.4,38.2,59.8,42
			c0.3,0.1,0.5,0.2,0.7,0.3c20.3-14,43.6-24.2,69.1-29.7c7.9-1.7,17.8-4.2,25.9-2c-1.6-0.9-3.3-1.8-4.5-2.1
			C712,479.6,700.1,480.1,688.6,482z"/>
		<path class="st12" d="M700.2,183.2c-14.6,7.7-29.6,15.8-45.8,19.7c-7.7,1.9-16.1,3.1-24,2.3c-4.8-0.5-10-2.3-12.5-6.8
			c-2-3.7-1.9-4.4,0.2-9.8c-6.1,8-11.3,16.5-17.2,24.7c-2.9,4.1-2.8,7.8,1.1,9.6c6.3,2.8,14.6,3.5,24.5,3.5
			c24.8,0.1,47.9-8.1,69.2-20.2c28.3-16,66.3-46,73.8-80.9C737.2,161.2,714.6,175.5,700.2,183.2z"/>
		<path class="st12" d="M656.2,607.3c3.1-2.5,6.2-5.1,9.2-7.7c-23.7,11-30,6.8-27.6-1c-7.5,6.5-15.3,12.5-23.6,17.4
			c8.3-0.2,16.7-0.6,25-1.1C645.2,614.5,651.4,611.2,656.2,607.3z"/>
		<path class="st12" d="M582.1,366.6c0.3,9.2,0.6,18.5,0.9,27.7c0.1,0,0.2-0.1,0.3-0.1c20.9-2.2,40-25.7,52.7-41.4
			c-5.2-5.4-9.9-11.4-13.6-17.8c-0.2,0-0.4-0.1-0.6-0.1C622.1,352.2,598.1,376.4,582.1,366.6z"/>
		<path class="st12" d="M667.7,280.7c-6.5,1.9-12.9,4.3-19,7.2c-8.3,4.4-17.2,9-22.4,16.9c-2.6,4-0.6,4.9,3.3,3.8
			c5.3-1.5,10.6-3.1,16-4.1c8.5-1.6,17.5-1.8,26.2-1.9c17.6-0.3,35.2,1.9,52.4,5.3c0.1,0,0.2,0,0.3,0.1c-16.9-7.5-35.3-10-42.5-11.4
			C674.1,295,659.4,288.4,667.7,280.7z"/>
	</g>
	<g>
		<path class="st13" d="M618.2,327c-0.5-1-0.9-2-1.3-3.1c-0.9-2.2-1.4-4.3-1.6-6.4c-3.8-0.1-7.7,0.2-11.5,0.8
			c-0.1,0.1-0.1,0.2-0.2,0.2c-2,2.1-3.9,4.3-5.9,6.3c-2,2.1-4.1,4.1-6.3,6.1c-1.1,1-2.2,2-3.2,3.1
			C598.1,330.5,607.9,326.7,618.2,327z"/>
		<path class="st13" d="M566.9,340.7c0,0.5,0,0.9,0,1.4c0.1,1.1,0.5,2.2,0.9,3.3c0,0,0.1,0.3,0.2,0.5c0,0.1,0,0.1,0,0.3
			c0,0.3,0.1,0.5,0.1,0.8c0.2,0.7,0.5,1.3,0.8,1.9c0.9,2,2.1,3.7,3.5,5.4c0.5,0.6,1.1,1.2,1.7,1.8c-0.1-3.6-0.2-7.1-0.3-10.7
			c-3-0.4-5.4-2.4-7-7.3c0,0.5,0,0.9,0,1.4C566.9,339.9,566.9,339.9,566.9,340.7z"/>
		<path class="st13" d="M576.8,520.4c0.9,1.4,2,2.8,3,4.1c-0.3-8.6-0.6-17.3-0.9-25.9c-7-7-11.9-15.5-12.9-25.7
			c-0.4,7.9,0.5,16,1.9,23.8C569.4,505,572,513.3,576.8,520.4z"/>
		<path class="st13" d="M522.1,218.4c5.5,9.1,11.3,18,16.9,27.1c-0.7-3.8-1.2-7.5-1.6-11.3c-4.2-6.6-8.1-13.4-12.3-19.8
			C524.2,215.8,523.2,217.1,522.1,218.4z"/>
		<path class="st13" d="M534.5,348.7c0-0.2,0-0.3,0-0.5c-3-3.2-6-6.3-9-9.2c-0.9,1.4-1.9,2.7-3,4c4.1,5.5,8.1,11.1,11.9,16.7
			C534.6,356,534.3,352.4,534.5,348.7z"/>
		<path class="st13" d="M587.3,243.6c2.2-4.8,4.7-9.6,7.5-14.6c-2.2-1.3-4.1-2.8-5.7-4.5c-1.9,3.1-3.9,7.7-6.2,12.6
			c0.4,0.7,0.8,1.4,1.2,2.1C585,240.8,586.1,242.2,587.3,243.6z"/>
		<path class="st13" d="M553.5,616.3c0.6,0,5,0,6.6,0.1c4.6-14.8,10.6-28.8,18.3-41.5c-5.5,4.7-10.4,9.8-14.8,15.5
			c-3.7,4.9-7,10-9.8,15.4C553.8,609.3,553.7,612.8,553.5,616.3z"/>
		<path class="st13" d="M520,445.8c-0.8,1.6-1.6,3.2-2.5,4.8c6.2,2.6,12.2,6.5,17.7,11c-0.8-3.8-1.2-7.6-1.3-11.5
			C529.4,448.3,524.7,446.8,520,445.8z"/>
	</g>
	<path class="st1" d="M528.5,663.8c63.1-0.5,125.9,0,188.6-7.1c0.2,0,0.2,0.3,0,0.4c-26.5,7-54.2,8.7-81.5,10
		c-35.8,1.7-71.5,1.1-107.2-2.2C527.8,664.8,527.8,663.8,528.5,663.8z M507,663.4c-0.5,0.2-0.5,0.9,0,1c4.4,1.4,9.6,2,14.2,1
		c0.2,0,0.2-0.3,0.1-0.4C517,662.7,511.5,662.1,507,663.4z M511,770.7c0.2,0,0.2-0.3,0-0.4c-21.8-3.8-43.1-8.3-64.7-12.9
		c-0.5-0.1-0.8,0.6-0.3,0.8C465.3,767.8,489.2,773.9,511,770.7z"/>
</g>
</svg>
