<?xml version="1.0" encoding="utf-8"?>
<!-- Generator: Adobe Illustrator 25.2.0, SVG Export Plug-In . SVG Version: 6.00 Build 0)  -->
<svg version="1.1" id="e37c00f5-ff96-45aa-87ea-1a24b78ba7bd"
	 xmlns="http://www.w3.org/2000/svg" xmlns:xlink="http://www.w3.org/1999/xlink" x="0px" y="0px" viewBox="0 0 1176.6 803.7"
	 style="enable-background:new 0 0 1176.6 803.7;" xml:space="preserve">
<style type="text/css">
	.st0{fill:#FFE40E;}
	.st1{fill:#AD8353;}
	.st2{fill:#FF821D;}
	.st3{fill:#FFA3BC;}
	.st4{fill:#FF5671;}
	.st5{fill:#F07493;}
	.st6{fill:#FAB301;}
	.st7{fill:#E23F58;}
	.st8{fill:#F26200;}
	.st9{fill:#FDCE1A;}
	.st10{fill:#FF9A83;}
	.st11{fill:#FBF686;}
	.st12{fill:#895725;}
	.st13{fill:#68182B;}
</style>
<g>
	<g>
		<g>
			<path class="st0" d="M696.2,523.5c-0.3,0-0.6-0.2-0.8-0.4c-0.3-0.4-0.3-0.9,0-1.3c10.5-12.3,18.2-28.5,24.4-41.5l0.2-0.4
				c15.4-32.3,23.9-70.4,25.2-113.1c2.3-73.8-28.5-159.3-82.3-228.7c-0.2-0.3-0.3-0.6-0.2-0.9c0.8-3.4,1.1-7.6,0.8-13
				c0-0.4,0.2-0.8,0.6-1c0.1-0.1,0.3-0.1,0.4-0.1c0.3,0,0.5,0.1,0.8,0.3c46.3,46.6,79.5,110.3,91.1,174.7c8.6,48,1.2,94.4-6.6,124.9
				c-5,19.7-13.6,38.4-21.1,55l-1.8,4c-6.2,13.9-15.6,34.9-30.3,41.5C696.5,523.5,696.4,523.5,696.2,523.5z"/>
			<path class="st1" d="M596,560.8c-30.5,0-61.5-1.3-92.3-3.8c-16.8-1.4-36.3-3.3-54.7-8.8c-5.3-1.6-7.9-3.5-7.9-6
				c0-4.8,10.7-8.5,15.3-9.9c10.2-3.1,21.1-4.5,31.6-5.9l1-0.1c0.3,0,0.5-0.1,0.8-0.3c0.2-0.1,0.3-0.1,0.5-0.1c0.2,0,0.4,0,0.6,0.2
				c5.6,3.5,11.4,5.5,17.9,6.1c0.2,0,0.4,0.1,0.6,0.2c8,6.4,16.4,9.5,25.8,9.5c2.5,0,5.1-0.2,7.7-0.7c0.1,0,0.1,0,0.2,0
				c0.2,0,0.4,0.1,0.6,0.2c6,3.8,12.2,5.6,19.2,5.6c4.4,0,9.1-0.8,14-2.3c0.2-0.1,0.4-0.1,0.7-0.1c0.2,0,0.4,0,0.5,0.1
				c5,3.5,10.6,5.1,16.9,5.1c1.6,0,3.2-0.1,4.8-0.3c2.2-0.3,4.1-1,5.6-2.1c0.2-0.1,0.4-0.2,0.6-0.2c0.1,0,0.1,0,0.2,0
				c2.9,0.5,5.7,0.8,8.3,0.8c6,0,11.1-1.4,15.2-4.2c0.2-0.1,0.4-0.2,0.6-0.2c0.1,0,0.2,0,0.3,0l0.5,1.2l0-1.1c0.9,0,1.7,0.1,2.6,0.1
				c7.7,0,15-1.7,21.6-4.9c0.1-0.1,0.3-0.1,0.5-0.1c0.2,0,0.3,0,0.5,0.1c0.4,0.2,0.6,0.3,0.9,0.3c1.6,0.2,3.3,0.3,4.9,0.3
				c8.4,0,16.4-2.9,23.8-8.6c0.2-0.1,0.4-0.2,0.6-0.2c0,0,0,0,0.1,0c0.1,0,0.3,0,0.4,0.1l0.7,0c5.4,0,10.7-1.6,15.8-4.8
				c0.2-0.1,0.4-0.2,0.6-0.2c0.1,0,0.3,0,0.4,0.1c0.4,0.2,0.6,0.3,0.8,0.3c15.3,2,30.7,4.1,44.6,10.1c3.8,1.6,5.5,3.4,5.3,5.4
				c-0.3,3.6-7.1,6.6-22.1,9.8l-0.7,0.1c-34.5,7.6-71.4,8.2-107.1,8.7l-9.6,0.2C609.1,560.7,602.6,560.8,596,560.8z"/>
			<path class="st0" d="M534.7,536.7c-26.6-0.4-44.5-32.8-55.7-57.1c-0.1-0.3-0.1-0.5,0-0.8c0.3-0.9,0.6-1.8,0.8-2.7
				c0,0.1-0.1,0.3-0.1,0.4c-0.1,0.4-0.5,0.7-1,0.7c0,0,0,0,0,0c-0.4,0-0.8-0.2-1-0.6c-2.2-4.9-4.2-9.6-6.1-14
				c-1.4-3.2-2.7-6.2-3.9-8.9c-16.3-36.6-27.3-76.3-32.7-118.1c-0.2-1.7-0.4-3.4-0.6-5.2c0-0.2,0-0.8,0.1-1c0.4-0.6,0.8-1.3,1.1-1.9
				c-0.2,0.1-0.4,0.2-0.6,0.2c-0.1,0-0.1,0-0.2,0c-0.5-0.1-0.8-0.5-0.9-0.9c-3.7-36.9,0.1-71.1,11.5-104.6
				c13.3-39.1,40.5-68,62.7-88.8c0.2-0.2,0.5-0.3,0.7-0.3c0.1,0,0.3,0,0.4,0.1c0.4,0.2,0.6,0.5,0.7,0.9l0.1,1.4
				c0,0.3-0.1,0.6-0.3,0.8c-0.1,0.1-0.3,0.3-0.4,0.4c-45.3,62.7-62.6,158.2-44,243.1c9.7,44.2,29.9,86.6,48.4,122.2
				c5.9,11.3,12.9,24.1,21.8,33c0.3,0.3,0.4,0.8,0.2,1.2C535.5,536.4,535.1,536.7,534.7,536.7C534.7,536.7,534.7,536.7,534.7,536.7z
				"/>
			<path class="st2" d="M547.2,65.3c-0.2,0-0.3,0-0.4-0.1c-2.6-1.2-5.1-2.2-7.6-2.9c-0.3-0.1-0.5-0.3-0.7-0.6
				c-0.1-0.3-0.1-0.6,0-0.9c6.2-13.6,29.8-15,37.5-15.4c1.5-0.1,3.5-0.2,5.9-0.2c11.7,0,19.3,2.2,22.5,6.4c0.2,0.3,0.3,0.6,0.2,0.9
				c-0.1,0.3-0.3,0.6-0.6,0.7c-2.8,1.4-4.9,2.9-6.1,4.4c-0.2,0.3-0.5,0.4-0.8,0.4c-0.1,0-0.2,0-0.2,0c-1-0.2-2-0.3-3-0.3
				c-3.8,0-7.6,1.7-10.8,3.3c-5.1,2.6-10.1,2.9-13.9,2.9c-1.8,0-3.6-0.1-5.5-0.2c-1.8-0.1-3.6-0.2-5.4-0.2c-4.2,0-7.5,0.5-10.6,1.6
				C547.5,65.3,547.3,65.3,547.2,65.3z"/>
			<path class="st0" d="M666.7,533.7c-0.4,0-0.8-0.2-1-0.6c-0.2-0.4-0.1-0.9,0.3-1.3c14.5-12.5,25.7-34.8,33.2-66.4
				c11.4-47.6,7.5-98.4,1.6-146.2c-4-32.3-13.4-66.3-28.7-103.9c-11.9-29.2-31.6-71.2-65.1-98c-0.3-0.2-0.4-0.6-0.4-0.9
				c0-0.4,0.2-0.7,0.5-0.8c2-1.1,3.9-2.3,5.8-3.4c0.2-0.1,0.4-0.1,0.5-0.1c0.3,0,0.6,0.1,0.8,0.4c3,3.3,5.7,7,8.3,10.6
				c2.9,4,5.7,7.7,8.6,10.7c4.7,4.9,13.7,13.1,21.4,13.1c1.7,0,3.3-0.4,4.7-1.2c0.7-0.4,1.3-0.9,2-1.6c0.2-0.2,0.5-0.3,0.8-0.3
				c0,0,0,0,0.1,0c0.3,0,0.6,0.2,0.8,0.4c34.2,44.8,59.7,98.9,71.6,152.5c0.1,0.4-0.1,0.9-0.5,1.1c-0.2,0.1-0.4,0.2-0.6,0.2
				c-0.2,0-0.5-0.1-0.7-0.2c-1.3-1.1-2.7-2.3-4.1-3.6c1.4,2.5,3.5,4.6,6,5.8c0.3,0.1,0.5,0.4,0.6,0.7c3.6,17.1,5.8,33.7,6.5,49.5
				c1.5,32.6-3.2,66.5-14,100.6c-9,28.5-28.6,77.3-58.8,82.9C666.8,533.7,666.8,533.7,666.7,533.7z"/>
			<path class="st0" d="M562.6,541.7c-16.5,0-26.6-12.4-35-25.9c-8.5-13.7-15.6-28.5-22.5-42.9l-1.7-3.6c-0.9-1.9-1.8-3.7-2.6-5.6
				l-0.9-2c-0.2-0.4-0.1-0.8,0.1-1.1c1.1-1.5,1.9-3.2,2.1-4.9c-0.4,1.2-1,2.3-1.5,3.4c-0.2,0.3-0.5,0.6-0.9,0.6c0,0,0,0,0,0
				c-0.4,0-0.8-0.3-0.9-0.6c-11.6-25.5-20.5-50.7-26.6-74.9c-0.1-0.2,0-0.4,0-0.6c0.8-2,1.1-4.1,1-6c-0.1,0.5-0.2,1-0.2,1.5
				c-0.1,0.5-0.5,0.9-1,0.9c0,0,0,0,0,0c-0.5,0-0.9-0.3-1-0.8c-1.8-7.7-3.1-14-4.2-20.1c-7.9-45-0.8-89.1,7.2-126.3
				c7.2-33.4,18.8-61.8,35.5-86.8c0.2-0.3,0.5-0.5,0.9-0.5c0.1,0,0.1,0,0.2,0c0.4,0.1,0.8,0.4,0.8,0.8c1.5,8.4,4,15.1,7.4,19.9
				c0.2,0.2,0.2,0.5,0.2,0.8c-13,69.7-10.3,145.2,8,224.3c0.6,2.5,1.2,5,1.8,7.6l1.1,4.8c0.1,0.5-0.1,1-0.5,1.2
				c-0.2,0.1-0.3,0.1-0.5,0.1c-0.3,0-0.6-0.1-0.8-0.4c-0.4-0.4-0.8-0.9-1.3-1.5c1,1.9,2.4,3.5,3.8,4.6c0.2,0.1,0.3,0.4,0.4,0.6
				c8.4,35.3,16.5,66.8,24.8,96.4c3.1,11.1,7.8,25,15.9,34.3c0.2,0.3,0.3,0.7,0.2,1c-0.1,0.4-0.4,0.6-0.8,0.7
				C568.1,541.4,565.2,541.7,562.6,541.7z"/>
			<path class="st0" d="M592.5,545c-10.9,0-19.5-8.3-26.3-25.5c-5-12.7-8.3-26.2-11.4-39.3l-0.7-2.9c-3.1-12.8-6.5-25.7-9.7-38.3
				c-5.3-20.7-10.9-42.1-15.5-63.3c-8.6-39.3-12.9-79.1-12.9-118.3c0-0.2,0-0.3,0.1-0.5c0.4-0.9,0.8-1.8,1.1-2.8c0,0-0.1,0-0.1,0
				c-0.1,0-0.2,0-0.3,0c-0.5-0.1-0.8-0.5-0.8-1c0.3-27.3,2.7-54.4,7.3-80.3c0.1-0.3,0.3-0.6,0.6-0.8c0.1-0.1,0.3-0.1,0.4-0.1
				c0.2,0,0.4,0.1,0.5,0.2c2.6,1.6,5.6,2.4,8.7,2.4l0.4,0c8.9-0.2,15.6-5.4,21.1-16.4c0.2-0.4,0.5-0.6,0.9-0.6c0.1,0,0.1,0,0.2,0
				c0.5,0.1,0.8,0.5,0.9,1c5.2,64.4,14.3,129,22.4,184.6c0.1,0.5-0.2,1-0.7,1.2c-0.1,0-0.2,0.1-0.4,0.1c-0.4,0-0.7-0.2-0.9-0.5
				c-0.1-0.2-0.2-0.4-0.3-0.5c0.5,2.2,1.4,4.9,3.1,6.8c0.1,0.2,0.2,0.3,0.3,0.5l3.1,20.8c7.5,51.1,15.3,104,21.2,156.3l0.1,0.8
				c0.8,7.1,1.7,15.1-9.7,16.5C594.3,544.9,593.4,545,592.5,545z"/>
			<path class="st0" d="M614.3,542.8c-1.2,0-2.5-0.1-3.8-0.2c-0.3,0-0.6-0.2-0.8-0.5c-0.2-0.3-0.2-0.6-0.1-0.9
				c2.8-8.4,0.5-21.1-1.2-30.4c-0.5-2.6-0.9-4.9-1.1-6.7l-1.6-13c-4.4-35-9-71.2-14.8-106.7c-15-91.8-24.4-168.4-29.6-240.9
				c0,0-0.2-0.6-0.2-0.6c-0.1-0.2-0.1-0.4,0-0.6c1.1-3.4,2-6.9,3-10.3c0.7-2.6,1.4-5.1,2.1-7.5c0.1-0.5,0.5-0.8,1-0.8
				c0,0,0.1,0,0.1,0c1.4,0.1,2.9,0.3,4.3,0.6c1.1,0.2,2.2,0.4,3.3,0.5c0.8,0.1,1.6,0.1,2.4,0.1c1.8,0,3.8-0.2,6.2-0.6
				c0.1,0,0.1,0,0.2,0c0.4,0,0.7,0.2,0.9,0.5c16.9,29.5,29.3,65.4,39.1,112.8c0.1,0.4-0.1,0.8-0.4,1.1c-0.2,0.1-0.4,0.2-0.6,0.2
				c-0.2,0-0.4,0-0.5-0.1c-0.7-0.4-1.4-0.8-2-1.3c-0.6-0.5-1.2-1.1-1.8-1.7c0.5,0.8,1.1,1.5,1.9,2.2c1,0.9,2.3,1.7,3.5,2.1
				c0.4,0.1,0.6,0.4,0.7,0.8c5.1,25.6,8.9,51.2,12.6,75.9l0.3,2c6,40.6,8,79.6,6.1,119.2l-0.3,6.3c-0.7,15.4-1.5,31.4-3,47.1
				c-0.3,2.8-0.4,6-0.6,9.2C638.2,519.4,636.9,542.8,614.3,542.8z"/>
			<path class="st0" d="M637.3,538.4c-0.4,0-0.7-0.2-0.9-0.5c-0.2-0.3-0.2-0.8,0-1.1c4.7-7.4,7.2-18.6,7.7-34.3
				c0.5-15.4,1.4-31,2.3-46.1c0.6-9,1.1-17.9,1.6-26.9c0-0.3,0.1-0.5,0.3-0.7c0.6-0.6,1.1-1.2,1.5-1.9c-0.2,0.1-0.4,0.2-0.6,0.2
				c-0.1,0-0.2,0-0.4-0.1c-0.4-0.2-0.7-0.6-0.7-1c0.8-16.2,1.5-37.6,0.1-59.6c-1.1-17.3-3.1-35.5-6.2-55.6c0-0.3,0-0.6,0.3-0.9
				c1.3-1.4,2.2-3,2.7-4.6c-0.4,1-0.9,1.9-1.4,2.9c-0.2,0.4-0.6,0.6-0.9,0.6c-0.1,0-0.1,0-0.2,0c-0.5-0.1-0.8-0.4-0.9-0.9
				c-3.4-22.2-8-45.6-13.9-71.7c-9-39.7-18.6-78.2-37.4-111.9c-0.2-0.3-0.2-0.6,0-0.9c0.1-0.3,0.4-0.5,0.7-0.6
				c2.9-0.7,5.9-1.8,9.1-3.3c0.1-0.1,0.3-0.1,0.5-0.1c0.2,0,0.4,0.1,0.6,0.2c32.1,24.1,51.2,62.6,65.7,97c1.9,4.5,3.8,9.2,6,15
				c0.2,0.4,0,0.9-0.3,1.2c-0.2,0.2-0.4,0.2-0.7,0.2c-0.1,0-0.2,0-0.3-0.1c0.7,0.5,1.4,1,2.2,1.5c0.2,0.1,0.4,0.3,0.5,0.5
				c8.9,23.8,15.3,46.9,19.2,68.7c5.4,31.1,7.9,63.1,7.4,95.3c0,0.5-0.3,0.9-0.8,1c-0.1,0-0.2,0-0.3,0c-0.3,0-0.7-0.2-0.9-0.5
				c-0.2-0.3-0.4-0.6-0.6-0.9c0.6,1.2,1.4,2.4,2.3,3.6c0.1,0.2,0.2,0.4,0.2,0.7c-0.2,9-0.6,16.9-1.1,24.2
				C697.3,459.1,686.5,534.4,637.3,538.4C637.4,538.4,637.4,538.4,637.3,538.4z"/>
			<path class="st3" d="M535.5,168.2c-8.7,0-15.7-12.5-18-21.3c-2.9-11.4-4.4-28.5,0-42.7c0.1-0.3,0.3-0.5,0.5-0.6
				c3.8-1.9,7.1-2.8,10.6-2.8c3.4,0,6.9,0.8,11.1,2.6l0.4,0.2c3,1.3,5.8,2.5,8.8,3.3c0.3,0.1,0.6,0.4,0.7,0.7c0.1,0.3,0,0.7-0.2,1
				c-8.2,10.4-11.8,24.2-9.5,35.6c0.3-1.8,0.5-3.6,0.7-5.3c1.5-11.5,2.9-22.4,12.5-30.9c0.2-0.2,0.4-0.3,0.7-0.3
				c3.8-0.1,7.3-1.9,10.8-5.5c0.2-0.2,0.5-0.3,0.8-0.3c0,0,0,0,0,0c0.3,0,0.5,0.1,0.7,0.3c0.6,0.6,1.2,1.1,1.8,1.7
				c0.4,0.3,0.5,0.9,0.2,1.4c-5.4,8.2-8.3,18.1-11.1,27.8c-2.7,9.3-5.4,18.9-10.5,27.1C543.3,165.4,539.6,168.2,535.5,168.2z
				 M485.9,131.4c0.5-0.3,0.9-0.6,1.1-0.7c6.9-3.9,14.1-6.6,22.1-8.6c0.4-0.1,0.7-0.5,0.7-1c0.2-3.7,0.5-7.1,0.9-10.3
				c0.1-0.4-0.2-0.9-0.5-1.1c-0.2-0.1-0.3-0.1-0.5-0.1c-0.2,0-0.5,0.1-0.7,0.3l-1.8,1.5c-7.6,6.5-15.5,13.3-24.7,13.3
				c-1.2,0-2.5-0.1-3.7-0.4c-0.1,0-0.1,0-0.2,0c-0.4,0-0.7,0.2-0.9,0.6c-1.9,3.5-2.4,6.5-1.4,8.9c0.3,0.8,1.1,1.2,2,1.2
				C480.1,135.1,483.1,133.3,485.9,131.4z M482.3,119.7c-3.4,0-7.6-1.8-8.3-10.3c-0.5-6.3,3-13.2,5.6-18.2
				c8.2-16,24.9-25.9,43.7-25.9c7.8,0,15.6,1.8,22.4,5.3c0.4,0.3,0.5,0.4,0.7,0.4c1.2,0.6,2,1.2,2.7,1.8c0.4,0.3,0.5,0.9,0.2,1.3
				c-0.2,0.4-0.6,0.6-0.9,0.6c-0.1,0-0.2,0-0.3,0c-2.7-0.7-5.6-1.1-8.8-1.1c-11.9,0-26.1,5.4-30.9,14.6c2-1.1,3.8-2.3,5.6-3.4
				c5.1-3.3,9.9-6.3,16.7-7.7c2.8-0.6,5.4-0.8,7.7-0.8c3.8,0,7.3,0.7,10.6,2.1c3.2,1.4,5.4,3.8,7.1,5.9c0.6,1.4,1.1,2.6,1.5,3.7
				c0.7,1.8,1.3,3.5,2,5.1c0.5,1.2,1.2,2.3,1.9,3.4c0.3,0.4,0.2,1-0.1,1.3c-2.6,2.7-5.6,4-9,4c-4,0-8.1-1.8-12-3.5
				c-2.6-1.1-5.3-2.3-8-2.9c-1.2-0.3-2.6-0.5-3.9-0.5c-6.4,0-12.9,3.7-17.1,6.4c-2.7,2-5.3,4.2-7.9,6.3c-3,2.4-6,4.9-9.2,7.2
				C492.2,116.3,487,119.7,482.3,119.7z M585.1,105.6c-8.7,0-17.2-8-20.9-15.5c-1-2-1.8-4.1-2.7-6.3c-1.9-4.5-3.8-9.2-6.8-12.9
				c-0.3-0.3-0.3-0.7-0.2-1.1c0.2-0.4,0.5-0.6,0.9-0.6c0.5,0,1,0,1.5,0c2.4,0,4.9,0.3,7.3,0.5c2,0.2,3.9,0.4,6,0.5l0.5,0
				c0.7,0,1.3,0,2-0.1c0,0,0.1,0,0.1,0c0.1,0,0.3,0,0.4,0.1c0.5,0.2,0.7,0.3,0.9,0.3c2.5,1.3,4.8,3.1,7,4.8c1.4,1.1,2.8,2.2,4.3,3.2
				c-1.4-3.1-3.8-5.6-7.3-7.8c-0.3-0.2-0.5-0.6-0.5-1c0-0.4,0.3-0.7,0.7-0.9c2.7-0.9,5.2-2.1,7.4-3.2c3.2-1.6,6-2.4,8.3-2.4
				c2.9,0,5.2,1.2,6.6,3.6c4.4,7.1,0.5,23.1-2.8,29.7C594.1,104,588.8,105.6,585.1,105.6z M580.3,118.9c-2.2,0-4.5-0.2-6.6-0.4
				c-1.4-0.1-2.7-0.2-4.1-0.3c-0.3,0-0.6-0.2-0.8-0.5c-0.2-0.3-0.2-0.6-0.1-0.9c1.2-3.4,2.4-6.1,3.7-8.4c0.1-0.2,0.4-0.4,0.7-0.5
				c0.1,0,0.2,0,0.3,0c0.2,0,0.4,0.1,0.5,0.2c3.4,2,6.8,3,10.2,3c5.9,0,11.5-3.1,15.9-8.6c0.2-0.3,0.5-0.4,0.8-0.4
				c0.1,0,0.3,0,0.4,0.1c2.5,1.1,5,2.6,7.5,4.7c0.3,0.2,0.4,0.6,0.4,0.9c0,0.3-0.2,0.7-0.5,0.8c-6.2,3.6-12.8,7.2-20.4,9.3
				C585.7,118.6,583.2,118.9,580.3,118.9z M652.7,141c-5.9,0-16.5-9.9-17.7-11c-3.9-3.8-7.4-8.4-10.8-12.8
				c-5.7-7.6-11.6-15.4-19.9-19.4c-0.5-0.3-0.7-0.9-0.5-1.4l0.4-0.7c0.9-2.1,1.8-4.5,2.5-6.9c0.1-0.3,0.3-0.5,0.5-0.6
				c0.9-0.5,1.8-0.9,2.7-1.3c0.1-0.1,0.3-0.1,0.4-0.1c0.1,0,0.2,0,0.3,0c9.8,2.7,17.3,6.9,23.3,13.4c2.9,3.1,5.6,6.9,8.1,11.5
				c0.9,1.7,1.5,3.5,2,5.2c0.4,1.2,0.7,2.3,1.2,3.4c0.8-4.7-2.3-11.7-8.9-19.9c-5.1-6.3-11.2-11-17.9-14c-0.4-0.2-0.7-0.6-0.6-1.1
				c0.1-0.5,0.4-0.8,0.9-0.9c2.3-0.4,4.6-0.6,7-0.6c5.1,0,10.4,0.9,15.7,2.6c0.2,0.1,0.3,0.1,0.4,0.3c9.3,9.5,15.1,22.1,16.2,35.4
				c0.4,5,0,10.4-1.2,15.6C656.3,139.8,654.8,141,652.7,141z M671.6,95.8c-2.3,0-5-1.3-8.1-4c0,0-0.3-0.2-0.3-0.2
				c-0.1-0.1-0.2-0.2-0.4-0.3c-11.1-8.2-24.6-12.8-37.1-12.8c-5.6,0-10.9,0.9-15.8,2.7c-0.1,0-0.2,0.1-0.4,0.1
				c-0.2,0-0.5-0.1-0.7-0.2c-0.3-0.2-0.4-0.6-0.4-0.9c0.4-3.5,0.3-6.7-0.3-9.5c-0.1-0.5,0.2-1.1,0.7-1.2c6-1.8,12.3-2.8,18.7-2.8
				c9.8,0,20.2,2.1,31.1,6.4c-6.7-6.4-17-9.9-29.5-9.9c-7.1,0-14.7,1.2-21.5,3.3c-0.1,0-0.2,0.1-0.3,0.1c-0.4,0-0.8-0.2-0.9-0.6
				c-0.9-1.8-2.2-3.3-3.7-4.5c-0.3-0.2-0.4-0.5-0.4-0.8c0-0.3,0.2-0.6,0.4-0.8c3-2.3,16.5-5.3,16.7-5.4c2.9-0.7,6-1,9.2-1
				c5.5,0,11.6,1,18.4,3c9.2,2.7,18.5,9.8,25.7,19.3c3.9,5.2,5.4,13.1,3.3,17.3C675.1,94.7,673.6,95.8,671.6,95.8z M656.9,54.5
				c-0.2,0-0.3,0-0.5-0.1c-8.3-4.1-18.1-6.3-28.3-6.3c-2,0-4,0.1-6,0.3c-2.4,0.2-6.9,1-11.3,2.3c-0.1,0-0.2,0-0.3,0
				c-0.4,0-0.7-0.2-0.9-0.5c-0.3-0.5-0.6-1-0.9-1.5c-0.2-0.3-0.3-0.6-0.2-0.9c0.1-0.3,0.3-0.6,0.6-0.7c7-3.2,15.5-5.2,23.2-5.3
				l0.8,0c11.3,0,20,3.9,24.6,11.1c0.3,0.4,0.2,0.9-0.1,1.3C657.5,54.4,657.2,54.5,656.9,54.5z M603.2,44c-0.2,0-0.3,0-0.5-0.1
				c-1.4-0.7-2.9-1.3-4.6-1.8c-0.4-0.1-0.7-0.4-0.7-0.9c-0.1-0.4,0.1-0.8,0.5-1c0.8-0.5,1.5-1,2.3-1.5c0.5-0.3,1-0.6,1.6-0.9
				c0.9-0.5,1.9-1.1,2.7-1.7c-3.5,0.4-7.1,2.7-9.9,4.7c-0.2,0.1-0.4,0.2-0.6,0.2c-0.1,0-0.1,0-0.2,0c-2.3-0.4-4.9-0.7-7.6-0.8
				c-0.4,0-0.8-0.3-0.9-0.6c-0.2-0.4-0.1-0.8,0.2-1.1c5.7-6.8,12.3-10,20.6-10l0.8,0c6.5,0.2,12.8,2.5,18.4,6.8
				c0.3,0.3,0.5,0.7,0.4,1.1c-0.1,0.4-0.5,0.7-0.9,0.8c-7.5,1-14.9,3.4-20.8,6.7C603.6,44,603.4,44,603.2,44z M552.7,43.9
				c-0.4,0-0.8-0.3-1-0.7c-1.2-3.5-4.3-7.1-8.3-10.1c-0.3-0.2-0.4-0.5-0.4-0.9c0-0.3,0.2-0.7,0.4-0.9c5.7-4.1,14.6-6.5,24.5-6.5
				c6.7,0,13.1,1.1,18.1,3.2c0.3,0.1,0.6,0.4,0.6,0.8c0.1,0.4-0.1,0.7-0.4,1c-3,2.6-5.8,5.9-8.6,9.8c-0.2,0.3-0.5,0.5-0.9,0.5
				l-0.7,0c-2.9,0-5.9,0.3-9,0.6c0,0-0.1,0-0.1,0c-0.4,0-0.8-0.2-1-0.6c-1.9-4.2-4.2-7.4-7-9.6c-0.4-0.3-0.7-0.4-1.2-0.4
				c-0.9,0-1.7,0.7-1.9,1.3c-0.2,0.5,0,1,0.5,1.4c2.3,1.9,4.2,4.3,5.8,7.3c0.2,0.3,0.2,0.6,0,1c-0.1,0.3-0.4,0.5-0.8,0.6
				c-3,0.6-5.8,1.3-8.4,2.2C552.9,43.9,552.8,43.9,552.7,43.9z M536.3,53.8c-0.2,0-0.4-0.1-0.6-0.2c-9.2-5.9-19.6-8.8-30.9-8.8
				c0,0-1.1,0-1.1,0c-0.5,0-0.9-0.3-1-0.7c-0.1-0.4,0-0.9,0.4-1.2c4.4-3.2,9.7-5.8,16.2-8c3.2-1.1,6.1-1.6,8.9-1.6
				c3.4,0,6.6,0.8,9.7,2.4c2.3,1.2,7.9,6.3,9,9.7c0.2,0.5-0.1,1-0.5,1.3c-1.3,0.7-2.6,1.4-3.8,2.3c-0.2,0.1-0.4,0.2-0.6,0.2
				c-0.2,0-0.4-0.1-0.6-0.2c-5.5-4-10.5-6-14.3-6c-0.1,0-0.2,0-0.2,0c1.1,0.5,2.2,1,3.3,1.4c1.1,0.4,2.2,0.8,3.2,1.3
				c1.9,0.9,3.8,2.1,6.3,3.8c0.3,0.2,0.4,0.5,0.4,0.8c0,0.3-0.1,0.6-0.4,0.9c-0.9,0.8-1.7,1.5-2.5,2.4
				C536.8,53.7,536.5,53.8,536.3,53.8z M449.4,103.5c-5.2,0-6.4-2.8-6.5-5.2c-0.4-9.7,5.8-20.6,18.2-32.6
				c7.8-7.6,19.2-12.7,32.1-14.6c0,0,0.4,0,0.5,0c0.2,0,0.4,0,0.6-0.1c3-0.4,5.9-0.6,8.7-0.6c11.3,0,21.6,2.7,29.9,7.7
				c0.4,0.3,0.6,0.8,0.4,1.3c-0.2,0.4-0.8,1.2-1.3,1.2c0,0,0,0-0.1,0c-2.7-0.4-5.5-0.6-8.3-0.6c-9.1,0-18.1,2.2-26.2,6.4
				c-0.1,0.1-0.3,0.1-0.4,0.1c-4.3,0.4-9,2.1-12.7,3.5l-1.1,0.4c-6.3,2.3-11,5.1-14.1,8.5c1.8-0.9,3.6-1.9,5.4-2.8
				c3.5-1.9,7-3.8,11-5.1c0.7-0.2,1.4-0.4,2.1-0.6c0.1,0,0.2,0,0.3,0c0.4,0,0.8,0.2,1,0.6c0.2,0.4,0.1,1-0.3,1.3
				c-7.6,6.1-13.4,14.1-16.7,23.1c-0.2,0.6-0.4,1.2-0.6,1.8c-0.1,0.3-0.4,0.6-0.7,0.7c-1.1,0.3-2.6,0.8-4.4,1.5
				C461,101.1,454.3,103.5,449.4,103.5z"/>
			<path class="st0" d="M498.3,524c-0.2,0-0.3,0-0.5-0.1c-19.6-9.3-33.5-37.3-43.7-57.7c-2.3-4.6-4.5-9-6.5-12.7
				c-15.8-29.2-27.4-63.1-34.6-100.8c-15.9-82.9,7.3-160.1,63.6-211.8c0.2-0.2,0.5-0.3,0.7-0.3c0,0,0.1,0,0.1,0c0.2,0,0.5,0,0.7,0
				c3.1,0,6.7-2.2,9.5-3.9c0.7-0.5,1.4-0.9,2.1-1.3c3.3-1.9,6.8-3.5,10.6-5c0.1,0,0.2-0.1,0.4-0.1c0.4,0,0.7,0.2,0.9,0.5
				c0.3,0.4,0.2,1-0.2,1.3c-32.1,30.8-51.6,60-63.4,94.8c-12.4,36.5-14.1,76.2-5.6,128.6c6.9,42.3,22,86.4,45,131
				c6.1,11.8,12.9,25.1,21.7,35.8c0.3,0.4,0.3,0.9,0,1.3C498.9,523.8,498.6,524,498.3,524z"/>
			<path class="st4" d="M595.2,779c-45.7,0-82.9-5.8-113.5-17.7c-17.1-6.6-28.1-15-33.5-25.5c-3.8-7.4-3.2-17.2-2.7-25.9
				c0.2-2.9,0.3-5.6,0.3-8.2l0-21.6c0-10.9,0-21.8,0-32.7c0-0.4,0.2-0.7,0.5-0.9c0.2-0.1,0.4-0.2,0.6-0.2c0.1,0,0.3,0,0.4,0.1
				c3.1,1.3,6.1,2.5,9,3.6c22.8,8.7,47.8,12.5,71.4,15.3c23.6,2.8,47.5,4.2,71,4.2c35,0,69.2-3.1,101.7-9.3c15-2.8,32.3-6.4,47-13.2
				c0.1-0.1,0.3-0.1,0.4-0.1c0.2,0,0.4,0.1,0.6,0.2c0.3,0.2,0.5,0.5,0.5,0.9c0,15.1,0,30.3,0,45.4l0,1.9c0,3.2,0.2,6.6,0.3,10
				c0.5,9.5,0.9,19.3-1.7,27.9c-3.9,12.6-17.6,20.4-30.5,26.3c-36.7,16.8-81.1,19.2-119.6,19.3L595.2,779z"/>
			<path class="st2" d="M590.8,663.8c-48.9,0-104.6-3-147.4-25.3c-21.1-11-21-23.9-21-45.4l0-16.1c0-11.7,0.1-23.4,0-35.1
				c-0.2-21.6,32.4-26.5,49.9-29.2c0,0,3.1-0.5,3.2-0.5c0.3,0,0.6,0.1,0.8,0.4c2.2,2.7,4.4,5.2,6.7,7.4c0.3,0.3,0.4,0.7,0.3,1.1
				c-0.1,0.4-0.5,0.7-0.9,0.7l-0.6,0.1c-16.5,2-35.2,4.2-46.8,14.8c-1.8,1.7-2.6,3.4-2.2,5.4c0.8,4.3,6.7,8.4,10.5,9.8
				c20.8,7.8,43.9,9.5,66.2,11l7,0.5c24.6,1.8,50.7,2.7,79.9,2.7c6.4,0,12.8,0,19.1-0.1c29.1-0.4,58.6-1.9,87.5-4.7
				c2.3-0.2,4.8-0.4,7.4-0.6c16-1.3,35.8-2.9,47.2-12.3c3.4-2.8,4.8-5.5,4.1-7.9c-1.9-7-20.8-14-50.5-18.6c-0.4-0.1-0.7-0.3-0.8-0.7
				c-0.1-0.4,0-0.8,0.3-1.1c2.2-2.2,4.4-4.7,6.5-7.6c0.2-0.3,0.5-0.4,0.8-0.4c0.1,0,3.5,0.5,3.5,0.5c17.7,2.6,44.4,6.4,50.1,24.6
				c3.1,9.9,2.1,23.3,1.3,35.2c-0.4,5.4-0.8,10.5-0.8,15c0,2.1,0,4.1,0.1,6.1c0.2,19,0.4,32.7-19.1,44.1c-43.9,25.7-105,26-154,26.3
				C596.4,663.8,593.6,663.8,590.8,663.8z"/>
			<g>
				<path class="st5" d="M604.3,36.2c-0.8,0.6-1.7,1.1-2.7,1.7c-0.5,0.3-1,0.6-1.6,0.9c-0.7,0.5-1.5,0.9-2.3,1.5
					c-0.3,0.2-0.5,0.6-0.5,1c0.1,0.4,0.4,0.7,0.7,0.9c1.7,0.5,3.2,1.1,4.6,1.8c0.2,0.1,0.3,0.1,0.5,0.1c0.2,0,0.4,0,0.5-0.1
					c5.9-3.3,13.3-5.6,20.8-6.7c0.4-0.1,0.8-0.4,0.9-0.8c0.1-0.4,0-0.8-0.4-1.1c-2.7-2-5.5-3.6-8.4-4.7c-0.4,0.1-0.8,0.2-1.3,0.3
					c-5.4,1.1-13.1,3.9-18.4,8.4C599.2,37.7,601.8,36.4,604.3,36.2z"/>
				<path class="st5" d="M656.8,137.5c0.3-1.2,0.5-2.4,0.7-3.7c-7,0-13-2.8-18.1-10.9c-4.5-7-7.2-15-11.7-22
					c-3-4.7-6.6-8.9-10.8-12.1c-2-0.8-4.1-1.5-6.3-2.1c-0.1,0-0.2,0-0.3,0c-0.1,0-0.3,0-0.4,0.1c-0.9,0.4-1.8,0.8-2.7,1.3
					c-0.3,0.1-0.4,0.4-0.5,0.6c-0.7,2.4-1.6,4.8-2.5,6.9l-0.4,0.7c-0.2,0.5,0,1.2,0.5,1.4c8.3,4,14.2,11.8,19.9,19.4
					c3.4,4.5,6.9,9.1,10.8,12.8c1.2,1.1,11.7,11,17.7,11C654.8,141,656.3,139.8,656.8,137.5z"/>
				<path class="st5" d="M447,103.2c0.7,0.2,1.5,0.3,2.4,0.3c4.8,0,11.6-2.4,16.5-4.2c1.8-0.6,3.3-1.2,4.4-1.5
					c0.3-0.1,0.6-0.4,0.7-0.7c0.2-0.6,0.4-1.2,0.6-1.8c3.3-9,9-16.9,16.5-22.9c-6.8,2.5-13.3,6.4-18.6,9.4
					C461.1,86.7,452.4,94.3,447,103.2z"/>
				<path class="st5" d="M568.1,105.2c0.3-0.4,0.2-1-0.2-1.4c-0.6-0.5-1.2-1.1-1.8-1.7c-0.2-0.2-0.5-0.3-0.7-0.3c0,0,0,0,0,0
					c-0.3,0-0.6,0.1-0.8,0.3c-3.5,3.6-7,5.4-10.8,5.5c-0.3,0-0.5,0.1-0.7,0.3c-2.1,1.8-3.7,3.8-5.1,5.8c1.5,3,2.5,6.5,2.7,10.9
					c0.7,16.6-6.1,32.3-17.6,43.2c0.8,0.2,1.6,0.3,2.4,0.3c4.1,0,7.8-2.7,11.1-8.1c5-8.3,7.8-17.9,10.5-27.1
					C559.8,123.3,562.7,113.3,568.1,105.2z"/>
				<path class="st5" d="M503,42.9c-0.4,0.3-0.5,0.8-0.4,1.2c0.1,0.4,0.5,0.7,1,0.7c0,0,1.1,0,1.1,0c11.4,0,21.8,3,30.9,8.8
					c0.2,0.1,0.4,0.2,0.6,0.2c0.3,0,0.6-0.1,0.8-0.4c0.6-0.7,1.3-1.3,2-2c-8.9-5.3-21.2-10.9-32.3-11
					C505.5,41.3,504.2,42.1,503,42.9z"/>
			</g>
			<g>
				<path class="st5" d="M482.3,119.7c4.7,0,9.9-3.4,12-4.9c3.2-2.3,6.2-4.8,9.2-7.2c2.6-2.2,5.3-4.3,7.9-6.3
					c4.3-2.8,10.7-6.4,17.1-6.4c1.3,0,2.6,0.2,3.9,0.5c2.6,0.6,5.4,1.8,8,2.9c4,1.7,8.1,3.5,12,3.5c3.4,0,6.4-1.3,9-4
					c0.3-0.3,0.4-0.9,0.1-1.3c-0.7-1.1-1.3-2.2-1.9-3.4c-0.7-1.5-1.3-3.1-1.9-4.8c-5.9,3.1-13.4,2.1-20.2,0.2
					c-7.9-2.2-16-0.8-23.4,2.2c-13.6,5.4-24.9,21.6-39,24.1C476.7,118.7,479.7,119.7,482.3,119.7z"/>
			</g>
			<g>
				<path class="st5" d="M585.1,105.6c3.8,0,9-1.6,12.8-9.1c1.7-3.3,3.5-9,4.3-14.8c-3,5.2-5,10.9-10.5,14.7
					c-6.3,4.3-17.3,1.5-21.6-4.3c-3.3-4.4-3.5-11.1-5.7-16c-0.9-2-2.5-4.5-4.4-6.8c-1-0.1-2-0.1-3-0.1c-0.5,0-1,0-1.5,0
					c-0.4,0-0.8,0.3-0.9,0.6c-0.2,0.4-0.1,0.8,0.2,1.1c3,3.6,4.9,8.3,6.8,12.9c0.9,2.1,1.8,4.3,2.7,6.3
					C567.8,97.6,576.4,105.6,585.1,105.6z"/>
			</g>
			<g>
				<path class="st5" d="M676.1,92.9c0.2-0.4,0.4-0.9,0.5-1.4c-3.6-0.1-7.4-1-11.5-3.3c-8.6-4.8-16.2-12-25.8-15
					c-9-2.8-20.9-4-31-1.3c0.4,2.5,0.5,5.2,0.2,8.1c0,0.4,0.1,0.7,0.4,0.9c0.2,0.1,0.4,0.2,0.7,0.2c0.1,0,0.2,0,0.4-0.1
					c4.9-1.8,10.2-2.7,15.8-2.7c12.5,0,26.1,4.7,37.1,12.8c0.1,0.1,0.2,0.2,0.4,0.3c0,0,0.3,0.2,0.3,0.2c3.1,2.6,5.8,4,8.1,4
					C673.6,95.8,675.1,94.7,676.1,92.9z"/>
			</g>
			<g>
				<path class="st5" d="M588.7,117.8c-0.2-0.1-0.5-0.1-0.7-0.2c-5.3-1.5-9.4-4.5-12.5-8.6c-0.5-0.3-1.1-0.5-1.6-0.8
					c-0.2-0.1-0.4-0.2-0.5-0.2c-0.1,0-0.2,0-0.3,0c-0.3,0.1-0.5,0.3-0.7,0.5c-1.3,2.2-2.5,5-3.7,8.4c-0.1,0.3-0.1,0.7,0.1,0.9
					c0.2,0.3,0.5,0.5,0.8,0.5c1.4,0.1,2.7,0.2,4.1,0.3c2.2,0.2,4.4,0.4,6.6,0.4c2.9,0,5.5-0.3,7.9-1
					C588.4,117.9,588.5,117.8,588.7,117.8z"/>
			</g>
			<g>
				<path class="st5" d="M510.7,110.9c0.1-0.4-0.2-0.9-0.5-1.1c-0.2-0.1-0.3-0.1-0.5-0.1c-0.2,0-0.5,0.1-0.7,0.3l-1.8,1.5
					c-3.2,2.7-6.4,5.5-9.8,7.8c-0.7,0.9-1.5,1.9-2.3,2.7c-3.1,3.5-6.5,6.7-9.9,9.9c0.2-0.1,0.5-0.3,0.7-0.4c0.5-0.3,0.9-0.6,1.1-0.7
					c6.9-3.9,14.1-6.6,22.1-8.6c0.4-0.1,0.7-0.5,0.7-1C509.9,117.6,510.2,114.1,510.7,110.9z"/>
			</g>
			<path class="st6" d="M726.9,482c-6.2,13.9-15.6,34.9-30.3,41.5c-0.1,0.1-0.3,0.1-0.4,0.1c-0.3,0-0.6-0.2-0.8-0.4
				c-0.3-0.4-0.3-0.9,0-1.3c10.5-12.3,18.2-28.5,24.4-41.5l0.2-0.4c15.4-32.3,23.9-70.4,25.2-113.1c0.9-30.4-3.8-62.8-13.4-95.2
				c7.3,18.7,21.3,61.4,17.4,104.2c-1.8,20.1-0.4,32,3,36.9c-0.8,3.6-1.6,7-2.4,10.3c-5,19.7-13.6,38.4-21.1,55L726.9,482z
				 M729.2,438.8c-7.4-1.7-13.7-10.8-14-34.2c-0.3-31.1-10.2-74.8-16.4-99c0.8,4.6,1.5,9.2,2,13.7c5.9,47.8,9.8,98.6-1.6,146.2
				c-7.5,31.6-18.7,53.9-33.2,66.4c-0.4,0.3-0.5,0.8-0.3,1.3c0.2,0.4,0.6,0.6,1,0.6c0.1,0,0.1,0,0.2,0c30.2-5.6,49.8-54.4,58.8-82.9
				C727,446.8,728.1,442.8,729.2,438.8z M642.5,308.8c0.1,0,0.1,0,0.2,0c0,0,0,0,0.1,0c-1.1-5-2.2-9.6-3.1-13.4
				c0.7,4.2,1.4,8.4,2,12.5C641.7,308.4,642.1,308.7,642.5,308.8z M656.7,428.2c1.8-40.4-7.2-89-13.9-118.9
				c-0.2,0.2-0.3,0.5-0.5,0.7c-0.2,0.2-0.3,0.6-0.3,0.9c3,20.1,5.1,38.3,6.2,55.6c1.4,22,0.7,43.4-0.1,59.6c0,0.5,0.3,0.9,0.7,1
				c0.1,0,0.2,0.1,0.4,0.1c0.2,0,0.4-0.1,0.6-0.2c-0.4,0.7-0.9,1.3-1.5,1.9c-0.2,0.2-0.3,0.4-0.3,0.7c-0.4,9-1,17.9-1.6,26.9
				c-0.9,15.1-1.9,30.6-2.3,46.1c-0.5,15.6-3,26.8-7.7,34.3c-0.2,0.3-0.2,0.8,0,1.1c0.2,0.3,0.5,0.5,0.9,0.5c0,0,0.1,0,0.1,0
				c31.9-2.6,47.6-35.3,55.3-66.7C676.2,479.8,654.7,473.6,656.7,428.2z M607.3,504.2c0.2,1.8,0.7,4.1,1.1,6.7
				c1.7,9.3,4,21.9,1.2,30.4c-0.1,0.3-0.1,0.6,0.1,0.9c0.2,0.3,0.5,0.4,0.8,0.5c1.3,0.1,2.6,0.2,3.8,0.2c22.6,0,23.9-23.5,25-42.4
				c-17.8,7.3-34.4-47.9-45.1-94.5c4.3,28.5,8,57.3,11.5,85.3L607.3,504.2z M554.8,480.2c3.2,13.1,6.5,26.6,11.4,39.3
				c6.7,17.2,15.3,25.5,26.3,25.5c0.9,0,1.8-0.1,2.7-0.2c11.4-1.4,10.5-9.4,9.7-16.5l-0.1-0.8c-2.1-18.8-4.5-37.6-7-56.5
				c-24.7,26.1-58-69.8-74.8-126c1.7,10.2,3.6,20.4,5.8,30.6c4.7,21.2,10.2,42.6,15.5,63.3c3.2,12.5,6.6,25.5,9.7,38.3L554.8,480.2z
				 M571,540.8c0.4-0.1,0.7-0.3,0.8-0.7c0.1-0.4,0-0.7-0.2-1c-8.1-9.3-12.8-23.2-15.9-34.3c-2.2-7.7-4.3-15.6-6.5-23.6
				c-7.8,7.3-20.4,7.6-40.2-15.6c-30.8-36.2-42.2-132.2-45.3-164.6c-1.1,18.9-0.6,38.4,2.9,58.2c1.1,6,2.4,12.4,4.2,20.1
				c0.1,0.5,0.5,0.8,1,0.8c0,0,0,0,0,0c0.5,0,0.9-0.4,1-0.9c0.1-0.5,0.2-1,0.2-1.5c0.1,2-0.3,4-1,6c-0.1,0.2-0.1,0.4,0,0.6
				c6.1,24.3,15,49.5,26.6,74.9c0.2,0.4,0.5,0.6,0.9,0.6c0,0,0,0,0,0c0.4,0,0.8-0.2,0.9-0.6c0.6-1.1,1.1-2.2,1.5-3.4
				c-0.3,1.6-1,3.3-2.1,4.9c-0.2,0.3-0.3,0.7-0.1,1.1l0.9,2c0.9,1.9,1.7,3.8,2.6,5.6l1.7,3.6c6.9,14.4,14,29.2,22.5,42.9
				c8.4,13.5,18.5,25.9,35,25.9C565.2,541.7,568.1,541.4,571,540.8z M478.5,477.2C478.6,477.2,478.6,477.2,478.5,477.2
				c0.5,0,0.9-0.3,1-0.7c0-0.1,0.1-0.3,0.1-0.4c-0.2,0.9-0.4,1.8-0.8,2.7c-0.1,0.3-0.1,0.5,0,0.8c11.2,24.3,29.1,56.7,55.7,57.1
				c0,0,0,0,0,0c0.4,0,0.8-0.3,1-0.6c0.2-0.4,0.1-0.9-0.2-1.2c-8.9-8.9-15.9-21.7-21.8-33c-9.2-17.6-18.7-36.9-27.2-57.3
				c0,15-3.1,25.3-16.1,4.8c-12-18.8-26.6-73.9-33.8-102.9c5.9,37.8,16.3,73.8,31.1,107.1c1.2,2.7,2.5,5.7,3.9,8.9
				c1.9,4.3,3.9,9.1,6.1,14C477.7,476.9,478.1,477.2,478.5,477.2z M413,352.6c7.2,37.8,18.9,71.7,34.6,100.8c2,3.7,4.2,8.1,6.5,12.7
				c10.1,20.4,24,48.4,43.7,57.7c0.1,0.1,0.3,0.1,0.5,0.1c0.3,0,0.6-0.1,0.8-0.4c0.3-0.4,0.3-0.9,0-1.3c-6.4-7.8-11.8-17-16.6-26
				c-45.4-38.3-68.4-159.5-74.3-195.3C408.1,317.8,409.7,335.1,413,352.6z"/>
			<path class="st7" d="M748.9,648.1c0-0.4-0.2-0.7-0.5-0.9c-0.2-0.1-0.4-0.2-0.6-0.2c-0.2,0-0.3,0-0.4,0.1
				c-14.7,6.8-32,10.4-47,13.2c-32.5,6.2-66.7,9.3-101.7,9.3c-23.5,0-47.4-1.4-71-4.2c-23.6-2.8-48.6-6.6-71.4-15.3
				c-2.9-1.1-5.9-2.3-9-3.6c-0.1-0.1-0.3-0.1-0.4-0.1c-0.2,0-0.4,0.1-0.6,0.2c-0.3,0.2-0.5,0.5-0.5,0.9c0,5.5,0,11,0,16.6
				c3.8,1,7.6,1.9,11.5,2.8c12.2,2.9,24.5,5.7,36.8,8.3c24.4,5,49.3,8.1,74.1,10.1c48.1,3.9,97,1.7,144.3-7.8
				c12.2-2.5,24.4-5.5,36.3-9.1C748.9,661.5,748.8,654.8,748.9,648.1z"/>
			<path class="st8" d="M772.2,605.9c-7.6,7.9-16.1,14.9-25.5,20.7c-11.1,6.8-23.2,11.7-35.9,14.7c-16.6,3.8-33.8,4.6-50.6,6.1
				c-65,5.5-133,9.4-195.3-13.8c-13.3-4.9-27.3-12.6-32.3-26.8c-3.1-9-3.9-18.6-6.7-27.6c-1.4-4.5-2.4-9.2-3.6-13.8
				c0,3.9,0,7.8,0,11.7l0,16.1c0,15.5,0,26.5,7.9,35.6c0.5,0.6,1.1,1.2,1.6,1.7c0.4,0.4,0.8,0.8,1.3,1.2c0.3,0.2,0.5,0.5,0.8,0.7
				c2.5,2.1,5.6,4.2,9.4,6.2c42.8,22.3,98.5,25.3,147.4,25.3c2.8,0,5.6,0,8.4,0c49-0.3,110.1-0.6,154-26.3
				C768.2,628.7,771.6,618.6,772.2,605.9z"/>
			<g>
				<path class="st9" d="M759.1,547.1c-0.4,0.4-0.8,0.8-1.3,1.3c-11.4,9.4-31.3,11-47.2,12.3c-2.6,0.2-5.1,0.4-7.4,0.6
					c-28.9,2.8-58.4,4.4-87.5,4.7c-6.4,0.1-12.8,0.1-19.1,0.1c-29.2,0-55.3-0.9-79.9-2.7l-7-0.5c-22.3-1.6-45.5-3.2-66.2-11
					c-2.8-1-6.7-3.5-8.9-6.5c0.4,11.7,15.2,14.5,24,16.6c28.4,6.5,57.9,9.3,87,11.4c57.7,4.1,115.8,2.8,173.3-3.5
					c12.4-1.4,30-1.1,37.5-13.2C757.9,553.9,758.8,550.5,759.1,547.1z"/>
				<path class="st9" d="M754.1,533.4c-1.1-0.8-2.3-1.4-3.8-1.8C751.7,532.2,753,532.8,754.1,533.4z"/>
			</g>
			<path class="st10" d="M747.5,733.3c0-0.1,0-0.2,0.1-0.3c-6.5,4.9-13.4,9.3-20.9,12.7c-11.6,5.4-24.3,8.1-36.9,10.3
				c-13.4,2.3-26.8,4.2-40.3,6.1c-28.2,3.9-56.7,6.7-85.1,5.8c-26-0.8-52.8-4.3-76.9-14.5c-12.1-5.1-23.8-12.2-33.5-21.1
				c-3.1-2.8-6.1-5.9-8.9-9.1c0.3,4.5,1.1,8.8,3,12.4c5.5,10.5,16.4,18.9,33.5,25.5c30.6,11.9,67.8,17.7,113.5,17.7l2.2,0
				c38.5-0.1,82.9-2.6,119.6-19.3C729.9,753.7,743.7,746,747.5,733.3z"/>
			<path class="st11" d="M752.3,279.1c-24.9-76.2-76.5-130.8-89.3-143.5c0.5-3.1,0.7-6.8,0.5-11.4c0-0.4,0.2-0.8,0.6-1
				c0.1-0.1,0.3-0.1,0.4-0.1c0.3,0,0.5,0.1,0.8,0.3C707,165.4,738.1,221.3,752.3,279.1z M739.7,350.2c-0.7-15.7-2.9-32.4-6.5-49.5
				c-0.1-0.3-0.3-0.6-0.6-0.7c-2.6-1.2-4.7-3.3-6-5.8c1.3,1.3,2.7,2.5,4.1,3.6c0.2,0.2,0.4,0.2,0.7,0.2c0.2,0,0.4-0.1,0.6-0.2
				c0.4-0.2,0.6-0.7,0.5-1.1c-11.9-53.6-37.4-107.8-71.6-152.5c-0.2-0.2-0.5-0.4-0.8-0.4c0,0,0,0-0.1,0c-0.3,0-0.6,0.1-0.8,0.3
				c-0.7,0.7-1.3,1.2-2,1.6c-1.4,0.8-3,1.2-4.7,1.2c-2.1,0-4.3-0.6-6.5-1.6c10.2,11.8,42.6,50.8,52.1,78.1
				c11.3,32.6,28.3,71.3,33,106.7c3.3,25.1,5.3,54.3,6.1,69.3C739.7,382.8,740.5,366.3,739.7,350.2z M693.4,303.6
				c-3.8-21.8-10.3-44.8-19.2-68.7c-0.1-0.2-0.2-0.4-0.5-0.5c-0.7-0.4-1.5-0.9-2.2-1.5c0.1,0,0.2,0.1,0.3,0.1c0.2,0,0.5-0.1,0.7-0.2
				c0.4-0.3,0.5-0.8,0.3-1.2c-2.2-5.8-4.1-10.5-6-15c-14.5-34.5-33.6-73-65.7-97c-0.2-0.1-0.4-0.2-0.6-0.2c-0.2,0-0.3,0-0.5,0.1
				c-2,1-3.9,1.7-5.8,2.3c8.2,7.3,35.1,33,50.6,69.3c18.4,43.2,49.4,124.8,55.9,207.9C701.3,366.7,698.8,334.7,693.4,303.6z
				 M636.8,316.7c-3.6-24.7-7.4-50.3-12.6-75.9c-0.1-0.4-0.4-0.7-0.7-0.8c-1.1-0.4-2.4-1.1-3.5-2.1c-0.7-0.6-1.3-1.4-1.9-2.2
				c0.6,0.6,1.2,1.1,1.8,1.7c0.6,0.5,1.3,0.9,2,1.3c0.2,0.1,0.3,0.1,0.5,0.1c0.2,0,0.4-0.1,0.6-0.2c0.3-0.2,0.5-0.7,0.4-1.1
				c-9.7-47.5-22.1-83.3-39.1-112.8c-0.2-0.3-0.5-0.5-0.9-0.5c-0.1,0-0.1,0-0.2,0c-2.4,0.4-4.4,0.6-6.2,0.6c-0.3,0-0.5,0-0.8,0
				c5.5,12.4,17.6,41,24.6,66.3c9.2,33.3,29,135.2,34.7,168.5c4,23.5,6.6,54,7.8,69.9c1.2-36.7-0.8-73-6.4-110.7L636.8,316.7z
				 M556.4,257.6c5.7,43.2,21.9,126,34.7,170.6c0.5,1.8,1,3.1,1.4,4.1c-2.9-20.5-5.9-40.9-8.8-61l-3.1-20.8c0-0.2-0.1-0.4-0.3-0.5
				c-1.7-1.9-2.6-4.6-3.1-6.8c0.1,0.2,0.2,0.4,0.3,0.5c0.2,0.3,0.5,0.5,0.9,0.5c0.1,0,0.2,0,0.4-0.1c0.5-0.2,0.8-0.7,0.7-1.2
				c-8.1-55.5-17.2-120.2-22.4-184.6c0-0.5-0.4-0.9-0.9-1c-0.1,0-0.1,0-0.2,0c-0.4,0-0.8,0.2-0.9,0.6c-1.9,3.8-4,6.9-6.2,9.4
				C550.1,189.6,552.6,228.4,556.4,257.6z M518.9,166.9c0.1-0.3,0-0.6-0.2-0.8c-1.2-1.7-2.2-3.7-3.2-5.8
				c-3.9,12.3-12.1,41.7-14.3,73.9c-2.2,33.3,6.4,94,23.6,147.6C508.5,306.2,506.4,233.9,518.9,166.9z M509.3,136.5
				c0.1-0.2,0.2-0.3,0.4-0.4c0.2-0.2,0.3-0.5,0.3-0.8l-0.1-1.4c0-0.4-0.3-0.8-0.7-0.9c-0.1-0.1-0.3-0.1-0.4-0.1
				c-0.3,0-0.5,0.1-0.7,0.3c-3.5,3.3-7.2,6.8-10.9,10.6c-10.3,16.4-25.4,43.4-32.1,69.3c-9.2,35.7-18.7,99.5-0.8,161.7
				C447.4,291.1,464.8,198.1,509.3,136.5z M500.7,130.3c-0.1,0-0.2,0-0.4,0.1c-3.8,1.4-7.3,3.1-10.6,5c-0.6,0.4-1.3,0.8-2.1,1.3
				c-2,1.3-4.4,2.7-6.8,3.5c-11.4,14.7-31,41.4-37,56.7c-7.6,19.7-28.9,60-15.8,123.4c-2.8-35.7,0.5-65.4,9.9-93.2
				c11.8-34.7,31.4-64,63.4-94.8c0.4-0.3,0.4-0.9,0.2-1.3C501.4,130.5,501.1,130.3,500.7,130.3z"/>
			<g>
				<path class="st9" d="M457.7,584.7c21,16.2,49.8,19.2,75.4,21.6c29.2,2.7,57.1,1,85.8-4.8c1.2-0.2,0.8-2-0.3-2.1
					c-26.3-1.8-52.6-1.8-78.9-3.3c-27.8-1.5-54.3-9.9-81.7-12.3C457.4,583.8,457.4,584.4,457.7,584.7L457.7,584.7z"/>
			</g>
			<g>
				<path class="st9" d="M629.2,601c3,3,7.3,2.6,11.3,2.3c5.4-0.3,10-1.7,14.7-4.6c0.7-0.4,0.6-1.5-0.2-1.7
					c-4.6-1.3-8.9-1.5-13.6-0.8c-4.1,0.6-9,0.5-12.1,3.6C628.9,600.2,628.9,600.7,629.2,601L629.2,601z"/>
			</g>
			<g>
				<path class="st12" d="M509.3,532.5c-0.2-0.1-0.4-0.2-0.6-0.2c-6.5-0.6-12.3-2.6-17.9-6.1c-0.2-0.1-0.4-0.2-0.6-0.2
					c-0.2,0-0.3,0-0.5,0.1c-0.3,0.1-0.5,0.2-0.8,0.3l-1,0.1c-10.5,1.4-21.4,2.9-31.6,5.9c-4.6,1.4-15.3,5.1-15.3,9.9
					c0,2.4,2.6,4.4,7.9,6c3.9,1.1,7.7,2.1,11.6,3c18.8-6.5,38.4-10.4,58.4-12.7C515.7,537,512.5,535,509.3,532.5z"/>
				<path class="st12" d="M755,541.7c0.2-2-1.5-3.8-5.3-5.4c-13.9-6-29.3-8-44.6-10.1c-0.2,0-0.4-0.1-0.8-0.3
					c-0.1-0.1-0.3-0.1-0.4-0.1c-0.2,0-0.4,0.1-0.6,0.2c-5,3.2-10.3,4.8-15.8,4.8l-0.7,0c-0.1,0-0.3-0.1-0.4-0.1c0,0,0,0-0.1,0
					c-0.2,0-0.5,0.1-0.6,0.2c-4.6,3.5-9.4,6-14.4,7.4c8.6,0.5,17.3,1,25.9,1.7c15.7,1.2,30.1,4.9,44,9.4
					C750.4,547,754.8,544.6,755,541.7z"/>
			</g>
			<path class="st8" d="M545.1,53.3c-2.9,2-5.2,4.4-6.6,7.6c-0.1,0.3-0.1,0.6,0,0.9c0.1,0.3,0.4,0.5,0.7,0.6
				c2.5,0.7,5.1,1.7,7.6,2.9c0.1,0.1,0.3,0.1,0.4,0.1c0.1,0,0.2,0,0.4-0.1c3.1-1.1,6.3-1.6,10.6-1.6c1.8,0,3.6,0.1,5.4,0.2
				c1.8,0.1,3.6,0.2,5.5,0.2c3.8,0,8.8-0.3,13.9-2.9c3.2-1.6,7.1-3.3,10.8-3.3c1,0,2,0.1,3,0.3c0.1,0,0.2,0,0.2,0
				c0.3,0,0.6-0.1,0.8-0.4c1.2-1.6,3.3-3.1,6.1-4.4c0.3-0.1,0.5-0.4,0.6-0.7c0.1-0.3,0-0.6-0.2-0.9c-1.7-2.3-4.7-3.9-8.9-5
				c-8.6,4.2-17.4,7.6-27,8.9C562.8,56.4,553,56.2,545.1,53.3z"/>
			<g>
				<path class="st13" d="M778,535.5c-3.7-21.2-36.7-26.4-55.3-29.2c7-11.2,12.4-24.4,16.9-35.6c1.8,0.1,3.9-0.5,5.4-0.8
					c1.9-0.4,4.6-1.2,5.4-3.3c0.1-0.3-0.2-0.6-0.5-0.5c-2,0.5-4,1.1-6,1.6c-1,0.2-2.1,0.3-3.2,0.4c1.6-4.1,3.1-7.9,4.5-11.1
					c5.1-12.1,9.2-24.7,12.3-37.4c2.9-0.7,5.6-2.3,7.2-4.5c0.2-0.3-0.1-0.7-0.5-0.6c-1.8,0.7-3.5,1.4-5.3,2.2
					c-0.3,0.1-0.5,0.2-0.8,0.3c6.9-29.6,8.9-60.5,7.6-90.8c-0.4-8.5-1.2-17-2.5-25.4c0,0,0.1,0,0.1-0.1c0.2-0.3,0.6-0.3,0.8-0.6
					c0.4-0.7,0.8-1.3,1.2-2c1.1-1.7,2-3.1,2.5-5.1c0.1-0.3-0.3-0.7-0.6-0.4c-1.5,1.1-2.4,2.2-3.4,3.9c-0.3,0.5-0.7,1.1-1,1.6
					c-0.2-1.4-0.5-2.8-0.7-4.2c2-3.1,3.2-6.9,2.9-10.3c0-0.4-0.5-0.5-0.7-0.2c-1.1,2.1-2,4.3-2.9,6.6c-7.3-39-23.2-77.6-44.8-112
					c1.2-3.8,0.6-8.5-0.2-12.2c-0.1-0.4-0.6-0.4-0.7,0c-0.6,2.6-1.1,5.6-1.4,8.6c-14.7-22.8-31.8-43.7-50.6-61.5
					c-0.2-0.2-0.3-0.2-0.5-0.3c-1.3-6.4-4-12.6-7.4-18.3c1.2,0.8,2.4,1.6,3.6,2.4c5,4.1,17.9,13.2,22.6,3.4c6.4-13-1.5-26.3-10.5-36
					c-1.3-1.4-2.7-2.7-4.2-3.9c0,0,0,0,0,0c-2.8-17.4-17.1-24.2-32.7-24.6c-7.9-9.2-19.1-13.2-31.2-13.5c-3.9-0.1-7.5,0.8-10.7,2.3
					c-14.3-8.9-43-8.1-55.7,4.1c-2-0.8-3.9-1.3-5.6-1.4c-14.5-0.9-31,7.1-40.2,18.2c-18.1,3.7-35.1,14.2-45.8,28.9
					c-4.9,6.8-13.1,23.5-7.6,32c7,10.8,20,2.5,30.4-1c-0.8,6.3-0.3,13,3.7,17c-2.4,4.7-3.5,11-1,15.3c-6.8,6.4-13.2,13-18.9,20
					c0,0-0.1-0.1-0.1-0.1c-1.5-1.7-2.4-3.9-3.5-5.9c-0.2-0.3-0.7-0.3-0.8,0.1c-0.5,2.7,0.5,5.3,2.2,7.4c0.2,0.2,0.3,0.4,0.5,0.6
					c-11.5,14.3-20.8,29.6-28,45.8c-0.1-0.6-0.2-1.2-0.3-1.8c-0.6-2.6-0.9-5.2-1.6-7.8c-0.1-0.4-0.7-0.4-0.8,0
					c-0.6,2.8-0.7,5.7-0.2,8.5c0.3,1.7,0.8,2.8,1.6,4c-12.7,29.6-18.6,61.7-18.6,94.7c-1.8-1.5-3.7-2.8-5.3-4.5
					c-0.2-0.2-0.6,0-0.5,0.3c1.1,2.8,3,5.5,5.8,6.7c0.1,16.2,1.7,32.7,4.5,49.1c3.4,19.8,8.8,39.2,15.7,58.1
					c-2.3-1.1-4.5-2.2-6.9-2.9c-0.3-0.1-0.6,0.4-0.4,0.6c2.1,2,5.2,4.3,8.4,5.5c7.4,19.5,16.4,38.3,26.9,56.1c1,1.6,1.9,3.3,2.9,5.1
					c-2.4-0.6-5-0.8-7.4-1.2c-0.3,0-0.5,0.3-0.2,0.5c2.3,1.5,5.5,2.5,8.4,2.1c5,9.1,10.1,19.2,16.2,28.3
					c-25.4,4.3-54.7,10.6-54.6,40.9c0.1,17.7-0.1,35.4-0.1,53.1c0,8.6-0.8,16.7,3,24.6c4,8.3,11.9,14.2,20.4,18.7
					c0,21.4,0,42.7-0.1,64.1c0,9.5-1.2,19.6,2.2,28.6c4.7,12.5,17,20.6,28.3,26.4c38,19.4,85.7,22.2,127.5,22.4
					c41.7,0.2,86.9-3.8,125.3-21.3c12.2-5.6,24.5-14,30.1-26.6c3.3-7.4,2.5-15.5,2.6-23.5c0-23.3-0.1-46.6-0.1-69.9
					c13.5-7.9,23.4-19.2,23.5-36.2C778.8,584.7,782,558.6,778,535.5z M755.3,298.3c7.3,40.7,3.6,84.6-6.5,124.4
					c-4.9,19.1-12.9,37-21.1,54.8c-6.1,13.4-15.8,37.9-31.5,44.9c10.7-12.5,18.6-29.2,24.8-42.2c16.8-35.2,24.1-74.7,25.3-113.5
					c2.5-80.1-34-166.7-82.6-229.3c1-4.2,1-9.1,0.8-13.3C710.5,170.5,743.8,234.4,755.3,298.3z M705,527.3c14.8,2,30.4,4,44.3,10
					c15.5,6.7-11.7,12.2-17.2,13.4c-37.5,8.2-78.1,8.2-116.4,8.9c-37.3,0.7-74.6-0.6-111.8-3.6c-18.4-1.5-36.8-3.5-54.5-8.7
					c-16.7-4.9,0-11.6,7.4-13.8c10.5-3.1,21.7-4.6,32.4-6c0.4-0.1,0.8-0.2,1.1-0.4c5.4,3.4,11.4,5.7,18.4,6.3
					c9.3,7.4,20.5,11.4,34.3,9c9.1,5.8,20.1,7.8,34.1,3.5c0.1,0,0.1-0.1,0.2-0.1c5.9,4.1,13.2,6.2,22.5,5c2.5-0.3,4.5-1.1,6.1-2.3
					c10.7,1.9,18.5,0.3,24.3-3.6c0.3,0.1,0.5,0.2,0.8,0.2c9.4,0.4,17.6-1.4,24.7-5c0.4,0.2,0.8,0.4,1.3,0.4
					c11.5,1.5,21.2-2.2,29.4-8.5c0.1,0,0.1,0,0.2,0c6.4,0.2,12.1-1.7,17.3-5C704.3,527.1,704.6,527.3,705,527.3z M480.7,470.2
					c-0.1-0.4-0.7-0.3-0.7,0.1c-0.2,2-0.8,3.9-1.4,5.8c-3.9-8.6-7.1-16.6-10-22.9c-16.6-37.3-27.4-77.3-32.6-117.8
					c-0.2-1.8-0.4-3.6-0.6-5.4c1.9-2.9,3.1-6.7,3.1-9.7c0-0.4-0.6-0.5-0.7-0.1c-0.8,2.2-1.7,4.3-2.7,6.4
					c-3.5-35.6-0.2-69.9,11.4-104.2c12-35.4,35.6-63.3,62.5-88.4c0,0.5,0,0.9,0.1,1.4c-0.2,0.2-0.3,0.3-0.5,0.5
					c-48.6,67.3-61.7,164-44.2,243.9c9.4,43,28.3,83.7,48.5,122.5c6.4,12.3,13.2,24.5,22,33.3c-25.3-0.4-42.7-30.2-54.8-56.5
					C480.9,476.2,481.5,473.1,480.7,470.2z M508.7,121.2c-7.9,1.9-15.1,4.7-22.2,8.7c-1.4,0.8-8.3,5.9-9.3,3.6c-1.1-2.5,0-5.6,1.3-8
					c12,2.5,22.1-7,31.1-14.7C509.2,113.9,508.9,117.4,508.7,121.2C508.7,121.2,508.7,121.2,508.7,121.2z M545.2,71.5
					c0.3,0.2,0.6,0.4,0.9,0.5c0.8,0.5,1.6,1,2.3,1.6c-14.9-4.1-37.4,3.2-41.9,16.3c-0.1,0.2,0.2,0.3,0.3,0.2
					C515.3,85.8,521.1,80,531,78c6.1-1.2,11.9-1.3,17.7,1.2c2.8,1.2,4.8,3.3,6.7,5.6c1.2,3,2.2,6,3.4,8.6c0.6,1.3,1.2,2.4,1.9,3.5
					c-8.4,8.5-18.2-0.3-28-2.7c-7.7-1.9-15.6,2-21.8,6.1c-5.9,4.4-11.3,9.3-17.2,13.6c-4.9,3.5-17.3,10.5-18.6-4.6
					c-0.5-6,2.9-12.6,5.5-17.7C492.5,68.2,522.3,60,545.2,71.5z M576.1,46.5c6.2-0.3,22.4-0.8,27.4,5.8c-2.7,1.3-5.1,2.9-6.5,4.8
					c-4.9-1.2-9.5,0.5-14.5,3c-12,6-23.3-0.2-35.2,4.1c-2.5-1.2-5.1-2.2-7.8-2.9C544.9,49.2,565,47.1,576.1,46.5z M660,144.8
					c33,43.2,59.2,97.2,71.4,152.1c-2.1-1.7-4.2-3.5-6-5.7c-0.3-0.4-1,0-0.9,0.5c1.1,4,4,7.4,7.7,9.2c3.5,16.5,5.7,33,6.5,49.3
					c1.5,33.9-3.8,68-14,100.3c-8,25.3-27.3,76.4-58,82.2c18.3-15.7,28-43.7,33.6-66.9c11.3-47.6,7.5-98.6,1.6-146.6
					c-4.4-36-15.1-70.6-28.8-104.2c-14.7-36.2-34.4-73.6-65.4-98.4c2-1.1,3.9-2.3,5.8-3.4c6.2,7,11.4,15.5,16.9,21.3
					c5.6,5.9,18.2,17.4,27.3,12.1C658.6,146.1,659.3,145.5,660,144.8z M528.5,515.3c-9.2-14.7-16.7-30.7-24.2-46.4
					c-1.2-2.5-2.4-5.1-3.5-7.6c2.2-3,3.2-6.9,1.7-10.5c-0.2-0.4-0.7-0.2-0.7,0.2c0.1,2.9-0.9,5.3-2.1,7.7
					c-11-24.2-20.1-49.1-26.5-74.7c1.4-3.5,1.6-7.4,0.2-10.9c-0.2-0.4-0.7-0.4-0.7,0.1c-0.1,2-0.3,3.8-0.6,5.7
					c-1.6-6.6-3-13.3-4.2-20c-7.4-42.2-1.7-84.5,7.2-125.9c6.8-31.4,17.6-59.9,35.4-86.5c1.4,7.8,3.8,15,7.6,20.3
					c-13.8,74.5-9,151.2,8,224.8c0.9,4.1,1.9,8.2,2.9,12.4c-1.4-1.5-2.7-3-3.9-4.7c-0.3-0.4-0.9-0.2-0.7,0.3c0.8,3.3,2.8,7,5.7,9.1
					c7.6,32.2,15.8,64.6,24.8,96.4c3.5,12.3,8.1,25.6,16.1,34.7C550.5,544.1,539.2,532.4,528.5,515.3z M539.8,147.7
					c0.1,0.3,0.6,0.4,0.7,0c2.5-14.4,1.7-28.7,13.4-39c4.6-0.1,8.4-2.5,11.6-5.8c0.6,0.6,1.2,1.2,1.9,1.7
					c-10.7,16.1-11.3,38.1-21.6,54.9c-10.8,17.8-23.7,0.5-27.1-12.9c-3.3-12.8-4-29.3,0-42.1c6.8-3.4,12.8-3.6,20.8-0.1
					c3.1,1.3,6.1,2.7,9.3,3.5C540.1,118.7,535.6,134.7,539.8,147.7z M570.1,71.3c0.9,0,1.8,0,2.7-0.1c0.3,0.1,0.5,0.2,0.8,0.3
					c4.5,2.3,8,6.2,12.4,8.7c0.4,0.3,1.1-0.2,0.9-0.7c-1.6-4.3-4.6-7.4-8.3-9.7c2.6-0.9,5.2-2.1,7.6-3.3
					c21.7-10.9,15.5,19.8,10.7,29.4c-8.3,16.6-25.9,5.8-31.8-6.4c-3.1-6.4-5.1-13.9-9.7-19.4C560.3,70,565,71.1,570.1,71.3z
					 M567.2,519.1c-5.3-13.6-8.7-27.9-12.1-42.1c-8.3-33.9-17.7-67.5-25.2-101.6c-8.5-38.5-12.9-78.4-12.9-118.1
					c0.8-1.7,1.4-3.5,1.8-5.4c0.1-0.5-0.6-0.9-0.9-0.4c-0.3,0.5-0.6,1-0.8,1.5c0.3-26.9,2.6-53.7,7.3-80.1c2.8,1.7,6,2.6,9.7,2.5
					c10.5-0.2,17.2-7.3,22-16.9c5,61.9,13.5,123.3,22.5,184.6c-0.6-1.1-1.2-2.1-1.8-3.2c-0.2-0.5-1.1-0.3-1,0.3
					c0.4,3.3,1.5,7.7,3.9,10.5c8.6,58.9,17.6,117.8,24.2,177c0.8,7.6,2,14.8-8.7,16.1C579.8,545.7,571.7,530.4,567.2,519.1z
					 M608.4,504c-5.1-40-10-79.9-16.5-119.7c-13-79.9-23.8-160.1-29.6-240.9c0-0.3-0.2-0.6-0.2-0.9c1.8-6,3.5-12.2,5.1-17.9
					c2.5,0.2,5.2,0.8,7.6,1c2.9,0.3,5.9,0,8.8-0.5c19.3,33.7,30.8,72.9,38.9,112.5c-0.7-0.4-1.3-0.8-1.9-1.2
					c-1.6-1.3-2.9-2.8-4.3-4.4c-0.3-0.3-0.8,0-0.7,0.4c0.5,2.3,1.9,4.5,3.7,6.1c1,0.9,2.4,1.8,3.9,2.3c5.3,26.3,9.1,52.8,12.8,77.9
					c5.9,39.8,8,78.8,6.1,119c-0.9,17.8-1.6,35.6-3.3,53.3c-1.9,20.2,1.1,53.5-28.2,50.4C614.4,530.5,609.4,512.2,608.4,504z
					 M645.2,502.6c0.7-24.5,2.7-48.7,3.9-72.9c1.8-1.7,2.9-4.1,2.8-6.6c0-0.3-0.5-0.5-0.6-0.2c-0.6,1.2-1.3,2.3-2,3.3
					c0.9-19.8,1.3-39.6,0.1-59.7c-1.2-18.5-3.4-37.1-6.2-55.7c2.4-2.7,3.9-6.2,3.1-9.8c-0.1-0.4-0.6-0.3-0.7,0
					c-0.7,2.5-1.8,4.7-2.9,6.9c-3.8-24.2-8.6-48.3-13.9-71.8c-8.6-38-18.4-77.9-37.5-112.2c3.2-0.8,6.3-2,9.3-3.4
					c31.4,23.6,50.5,61.2,65.3,96.6c2.1,4.9,4,9.9,6,15c-1.3-0.8-2.6-1.6-4-2.3c-0.3-0.1-0.8,0.2-0.5,0.5c1.5,2,3.5,3.8,5.8,5.1
					c8.3,22.2,15,45.2,19.1,68.5c5.4,31.1,7.9,63.3,7.4,95.1c-1.1-1.7-2.4-3.4-3.7-4.8c-0.3-0.3-0.7,0-0.6,0.4
					c0.8,2.8,2.3,5.7,4.2,8.3c-0.2,8.1-0.5,16.1-1.1,24.1c-2.7,37.1-15.2,106.6-61.2,110.5C643,528.5,644.8,515.8,645.2,502.6z
					 M587.9,116.9c-6.5,1.8-12.2,0.6-18.3,0.3c1.1-3.1,2.3-5.9,3.6-8.2c10.7,6.4,20.9,2.6,27.5-5.8c2.6,1.1,5,2.6,7.2,4.5
					C601.6,111.4,595.2,114.9,587.9,116.9z M656.9,122c0.4,5.1,0,10.3-1.2,15.2c-2.1,8.7-19-7.1-20-8.1c-10.5-10-17.5-25.9-31-32.4
					c0.1-0.3,0.3-0.5,0.4-0.8c0.9-2.1,1.8-4.4,2.6-7c0.9-0.5,1.7-0.9,2.6-1.3c8.9,2.4,16.4,6.3,22.8,13.1c3.2,3.4,5.8,7.2,8,11.3
					c1.8,3.3,2.2,7.1,4.1,10.3c0.1,0.2,0.4,0.2,0.5,0c3.3-7.1-4.3-17.6-8.5-22.8c-5.1-6.3-11.2-11.1-18.3-14.3
					c7.3-1.2,14.9-0.4,22.2,2C650.2,96.7,655.8,109,656.9,122z M671.9,76.2c6.8,9,5.6,26-7.7,14.8c-0.1-0.1-0.2-0.1-0.3-0.2
					c-0.1-0.1-0.3-0.3-0.5-0.4c-15.1-11.1-36-16.8-53.9-10.3c0.4-3.4,0.3-6.7-0.4-9.9c17.3-5.3,35.1-2.4,51.8,4.7
					c0.4,0.2,0.7-0.4,0.4-0.7c-12.3-14.5-36.9-14.4-54-8.9c-1-1.8-2.2-3.5-3.9-4.9c2.6-1.9,14.4-4.8,16.3-5.2c9.1-2,18.3-0.6,27,2
					C656.9,60.2,665.8,68,671.9,76.2z M656.9,53.4c-10.7-5.3-23-7.2-34.8-6.2c-2.4,0.2-6.9,1-11.5,2.4c-0.3-0.6-0.6-1.1-1-1.6
					c6.5-3,14.8-5.1,22.8-5.2c0.1,0,0.2,0,0.3,0C642.6,42.7,652,45.6,656.9,53.4z M606.6,29.6c6.5,0.2,12.7,2.7,17.8,6.6
					c-7.7,1.1-15.2,3.5-21.1,6.8c-1.5-0.8-3.1-1.4-4.8-1.9c0.7-0.5,1.5-1,2.2-1.4c2.1-1.3,4.2-2.2,5.8-3.9c0.2-0.2,0-0.6-0.2-0.6
					c-4.3-0.4-8.9,2.4-12.4,4.9c-2.6-0.4-5.2-0.7-7.8-0.8C591.3,33,597.5,29.3,606.6,29.6z M585.5,29c-3.4,2.9-6.3,6.4-8.7,10
					c-0.2,0-0.5,0-0.7,0c-2.8,0-5.9,0.2-9.1,0.6c-1.8-3.8-4-7.3-7.3-10c-2.8-2.3-6.8,1.7-4,4c2.4,1.9,4.1,4.3,5.5,7
					c-2.8,0.6-5.7,1.3-8.5,2.2c-1.4-3.9-4.7-7.7-8.7-10.6C554.2,24.8,573.8,24.2,585.5,29z M519.5,35.9c6.1-2.1,12-2.3,17.7,0.7
					c2.1,1.1,7.4,5.9,8.5,9.1c-1.4,0.7-2.7,1.5-4,2.3c-4.9-3.5-11.9-7.4-17.6-5.9c-0.2,0.1-0.2,0.3-0.1,0.4c2.5,1.8,5.8,2.6,8.6,4
					c2.1,1,4.2,2.3,6.1,3.7c-0.9,0.8-1.8,1.6-2.5,2.5c-10-6.4-21.3-9.2-32.6-9C508.4,40.3,513.9,37.9,519.5,35.9z M444,98.3
					c-0.4-12.1,9.9-24.2,17.9-31.8c8-7.7,19.5-12.6,31.5-14.3c0.4,0,0.8,0,1.2-0.1c13.3-1.6,27.1,0.6,37.7,7
					c-0.1,0.2-0.1,0.4-0.2,0.6c-12.1-1.8-24.5,0.3-35.2,5.9c-4.9,0.4-10.1,2.5-14.1,4c-6.1,2.2-12.5,5.6-16.4,11
					c-0.3,0.4,0.2,0.7,0.6,0.6c6.5-2.7,12-6.8,18.8-9c0.6-0.2,1.3-0.4,2-0.6c-7.5,6-13.5,13.9-17.1,23.6c-0.2,0.6-0.4,1.2-0.6,1.8
					C464.2,98.4,444.3,107.7,444,98.3z M448.6,452.9c-16.9-31.3-27.9-65.7-34.5-100.5c-14.8-77.3,4.2-156.5,63.2-210.8
					c4.5,0.5,9.4-3.3,12.9-5.3c3.4-2,6.9-3.5,10.5-4.9c-28.5,27.4-50.7,56.9-63.7,95.2c-14.3,42.2-12.7,85.7-5.6,129.1
					c7.5,45.9,23.9,90.1,45.1,131.3c6.1,11.8,13,25.2,21.8,35.9C474.7,511.8,459.7,473.4,448.6,452.9z M747.8,695.4
					c0,12,2.2,26-1.3,37.6c-3.9,12.9-18.7,20.5-30,25.6c-36.3,16.6-79.9,19.1-119.2,19.2c-38.6,0.1-79.1-3.5-115.3-17.6
					c-12.7-5-26.4-12.4-33-25c-5-9.5-2.2-23.4-2.2-33.6c0-18.1,0.1-36.2,0.1-54.3c3.1,1.3,6.1,2.5,9,3.6
					c22.8,8.7,47.5,12.5,71.7,15.3c57,6.8,116.5,5.6,173-5.1c13.9-2.6,32-6.3,47.2-13.3C747.8,663.8,747.8,679.6,747.8,695.4z
					 M752.7,636.6c-43.4,25.4-104.8,25.9-153.5,26.2c-50.2,0.3-109.7-1.4-155.3-25.1c-20.9-10.9-20.5-23.9-20.4-45.6
					c0-16.7,0.2-33.4,0-50.1c-0.2-21.9,35.5-26,52-28.6c2.1,2.7,4.4,5.2,6.8,7.5c-16.5,2-35.9,4.2-48,15.1
					c-7.5,6.8,2.8,14.7,8.6,16.9c23.1,8.7,49.2,9.8,73.6,11.6c33,2.5,66.1,3,99.2,2.6c29.2-0.4,58.5-1.9,87.6-4.7
					c16.5-1.6,41.6-2,55.2-13.2c19.7-16.3-28.4-25.5-46.9-28.3c2.3-2.3,4.5-4.9,6.6-7.7c17.1,2.6,46.7,5.7,52.7,24.4
					c4.4,14,0.4,35.2,0.5,49.8C771.3,609.9,773.6,624.3,752.7,636.6z"/>
				<path class="st13" d="M597.3,655.4c-27.5-2.8-55.2-3.4-82.6-7.3c-24.6-3.5-53.7-9.5-74.1-24.2c-0.2-0.2-0.5,0.2-0.3,0.4
					c8.2,8.7,20,12.8,31,16.6c13,4.5,26.1,8.1,39.7,10.5c28.1,5,57.9,7.7,86.4,5C598,656.3,597.9,655.5,597.3,655.4z"/>
				<path class="st13" d="M608.2,654.6c-1.9,0.2-3.9,0.2-5.9,0.4c-0.2,0-0.4,0.3-0.2,0.5c2.9,2.6,8.9,1.5,12.1,0.1
					c0.3-0.1,0.3-0.5,0-0.7C612.3,654.2,610.3,654.3,608.2,654.6z"/>
				<path class="st13" d="M688.2,758.2c-17.9,3.5-36.9,4.8-55.1,6.3c-20.8,1.7-42.3,3.4-63.1,2c-0.2,0-0.2,0.3,0,0.3
					c21,3.2,42,2.8,63.2,1.4c18.7-1.3,37.5-2.9,55.3-9.2C689,758.9,688.8,758.1,688.2,758.2z"/>
			</g>
		</g>
	</g>
</g>
</svg>
