<?xml version="1.0" encoding="utf-8"?>
<!-- Generator: Adobe Illustrator 23.0.1, SVG Export Plug-In . SVG Version: 6.00 Build 0)  -->
<svg version="1.1" id="Layer_1" xmlns="http://www.w3.org/2000/svg" xmlns:xlink="http://www.w3.org/1999/xlink" x="0px" y="0px"
	 viewBox="0 0 500 500" style="enable-background:new 0 0 500 500;" xml:space="preserve">
<style type="text/css">
	.st0{fill:#824DD6;}
	.st1{fill:#451493;}
	.st2{fill:#671CC9;}
	.st3{fill:#551EAD;}
	.st4{clip-path:url(#SVGID_2_);}
	.st5{fill:#F99D00;}
	.st6{fill:#FFCC00;}
	.st7{opacity:0.31;}
	.st8{fill:#FFFFFF;}
	.st9{fill:#E28B00;}
	.st10{fill:#FFD400;}
	.st11{fill:#4B219B;}
	.st12{fill:#D9C8FC;}
	.st13{fill:#EBEFFA;}
	.st14{fill:#D3D7DE;}
	.st15{enable-background:new    ;}
	.st16{fill:#FCCE00;}
	.st17{fill:#FDC801;}
	.st18{fill:#98CAFD;}
	.st19{fill:#2061C4;}
	.st20{fill:#976AEF;}
</style>
<g>
	<g>
		<g>
			<path class="st0" d="M316.1,170.5l-3.2-0.3v153.2l-3-0.5l-4.3,17.9c0,0,17.7-0.5,17.7-15.5V183.3
				C323.2,173.6,318.7,171,316.1,170.5z"/>
			<path class="st1" d="M306.5,170.8l-175.1-38.3v0c-3.3-0.9-6.8-1.5-10.3-1.5c-20.6,0-37.2,8.4-37.2,29c0,20.6,16.7,37.2,37.2,37.2
				c3.6,0,7.1-0.5,10.3-1.5v94.5c0,6.6,4.6,12.4,11.1,13.8l158.2,36.4c8.7,1.9,17-4.8,17-13.8V184.5
				C317.6,177.9,312.9,172.2,306.5,170.8z"/>
			<path class="st0" d="M271.7,195.7l-0.9-0.3v151l-3-0.5l-4.3,17.7c0,0,17.7-0.5,17.7-15.3V208.5
				C281.2,202.6,277.3,197.4,271.7,195.7z"/>
			<path class="st2" d="M265.6,197L96.6,159.6l-5.3-20c-6.4,9.9-6.5,17.5-6.5,17.5v154.2c0,6.6,4.6,12.4,11.1,13.8l163.9,38.3
				c8.7,1.9,17-4.8,17-13.8V210.8C276.8,204.2,272.1,198.4,265.6,197z"/>
			<path class="st0" d="M316.1,170.5l-185-40.7c-7.5-1.5-14.8-1.8-21.7-0.8c-8.1,1.2-14.9,4.3-19.1,10.6c-4.1,6.1-3.3,10.9-2,13.8
				c4.9,10.9,25.7,14.2,28.6,14.7l152.5,33.9c0,0,6.1,1.1,6.4,10.6c0,0,4.2-14.2-4.3-16.8c-0.2-0.1-0.4-0.2-0.6-0.2l-152.6-33.9
				c-0.1,0-0.2,0-0.2,0c-5.2-0.7-20.7-4.2-23.6-10.8c-0.3-0.8-1.4-3.1,1.5-7.4c3.2-4.7,8.3-6.9,14.6-7.8c6.1-0.9,12.7-0.6,19.4,0.8
				l183.1,40.3l0,0l0,0l0.2,0c0.6,0.1,3,0.8,3.9,3.5c0.7,2.1,0.8-1.5,0.8-3.9c0.5-0.4,0.8-1,1-1.7
				C319,172.6,317.8,170.8,316.1,170.5z"/>
		</g>
		<g>
			<g>
				<path class="st3" d="M291.6,261.1l-60.3-14.7c-4.7-1-9.2-0.5-13.3,1.2l0,0l-0.5,0.2c-0.5,0.2-1,0.5-1.5,0.8l-8.1,4.1l1.4,1.7
					c-2.9,3.7-4.6,8.3-4.6,13.5v1.3c0,10.3,7.2,19.3,17.3,21.5l60.5,14.7l3.5,4.4c0,0,5.3-2.6,7.2-3.6c0.1-0.1,0.3-0.1,0.4-0.2
					c0.1-0.1,0.2-0.1,0.2-0.1l0,0c2.1-1.2,3.6-3.5,3.6-6.2v-31.6C297.2,264.8,294.9,261.8,291.6,261.1z"/>
				<path class="st0" d="M280.1,311.1L213.4,295c-10.1-2.2-17.3-11.2-17.3-21.5v-1.3c0-14.1,13-24.5,26.7-21.5l60.3,14.7
					c3.3,0.7,5.7,3.7,5.7,7v31.6C288.8,308.7,284.5,312.1,280.1,311.1z"/>
			</g>
			<path class="st3" d="M229,273.7c0,5.8-4.7,10.4-10.4,10.4c-5.8,0-10.4-4.7-10.4-10.4c0-5.8,4.7-10.4,10.4-10.4
				C224.4,263.3,229,268,229,273.7z"/>
		</g>
		<g>
			<defs>
				<polygon id="SVGID_1_" points="113.8,160.6 250.9,191.1 286.5,107.3 118.9,66.8 				"/>
			</defs>
			<clipPath id="SVGID_2_">
				<use xlink:href="#SVGID_1_"  style="overflow:visible;"/>
			</clipPath>
			<g class="st4">
				<path class="st5" d="M247.1,146.5c-1.5-16.3-9.4-30.2-20.5-38.9c-3.6-2.8-7.5-5-11.6-6.6c-1.5-0.6-3-1-4.5-1.4
					c-2.2-0.6-4.5-1-6.8-1.1c-1.4-0.1-2.7-0.1-4.1-0.1l0,0l-0.4,0c-0.8,0-1.6,0-2.4,0.1c-0.8,0.1-1.6,0.2-2.4,0.3l-11.3,1l0.2,2.4
					c-17.8,8.4-29.3,29.5-27.1,52.8c1.6,17.4,10.5,32.2,22.8,40.6c2,1.4,4.1,2.6,6.2,3.6c1.4,0.7,2.9,1.3,4.4,1.8c1,0.3,2,0.6,3,0.9
					l0.2,2.4l20.3-1.9l0.7-0.8C235.1,195.6,249.6,172.5,247.1,146.5z"/>
				<g>
					<g>
						<path class="st6" d="M233.4,147.8c2.7,28.9-15.4,54.2-40.6,56.6c-1.4,0.1-2.8,0.2-4.2,0.2c-4.4,0-8.7-0.8-12.8-2.2
							c-1.5-0.5-3-1.1-4.4-1.8c-2.1-1-4.2-2.2-6.2-3.6c-12.3-8.4-21.2-23.2-22.8-40.6c-2.7-28.9,15.4-54.2,40.6-56.6
							c2.4-0.2,4.7-0.2,7,0c2.3,0.2,4.6,0.6,6.8,1.1c1.5,0.4,3,0.9,4.5,1.4c4.2,1.6,8.1,3.8,11.6,6.6
							C224,117.5,231.9,131.5,233.4,147.8z"/>
						<g class="st7">
							<path class="st8" d="M184.5,116c-17.3,1.6-29.9,19.1-28,39c1.9,19.9,17.5,34.7,34.8,33.1c17.3-1.6,29.9-19.1,28-39
								C217.4,129.2,201.8,114.3,184.5,116z"/>
						</g>
						<g>
							<path class="st9" d="M158.5,155.2c-2-21.4,11.4-40.1,30-41.9c0.2,0,0.4,0,0.6,0c-1.6-0.1-3.2-0.1-4.8,0
								c-18.6,1.8-32,20.5-30,41.9c2,21.1,18.4,36.9,36.7,35.5C174.4,189.6,160.3,174.7,158.5,155.2z"/>
							<path class="st5" d="M221.6,148.9c-1.8-19.5-15.9-34.4-32.5-35.5c-0.2,0-0.4,0-0.6,0c-18.6,1.8-32,20.5-30,41.9
								c1.8,19.5,15.9,34.4,32.5,35.5c0.2,0,0.4,0,0.6,0C210.2,189,223.6,170.2,221.6,148.9z"/>
						</g>
					</g>
				</g>
				<g>
					<path class="st10" d="M191.8,166.5l0.2,5.1l-6.2,0.2l-0.2-4.9c-4.4-0.1-8.7-1.2-11.4-2.9l3.1-8.1c3,1.7,6.9,2.7,10.3,2.6
						c2.9-0.1,4-0.8,3.9-1.9c-0.1-4.1-17.1-0.2-17.5-12.3c-0.2-5.2,3.3-9.8,10.5-11.1l-0.2-5.1l6.2-0.2l0.2,5c3.3,0.2,6.5,1,9,2.4
						l-2.9,8c-3.1-1.5-6-2.2-8.7-2.1c-3,0.1-4,1.1-3.9,2.2c0.1,3.9,17.1,0.1,17.5,12C201.8,160.6,198.5,165,191.8,166.5z"/>
				</g>
			</g>
		</g>
	</g>
	<g>
		<g>
			<path class="st11" d="M344.2,275.3l0.1,13.1l46.1,26.8l92.6-53.5l-0.1-13.1l-46.1-26.8"/>
			<g>
				<path class="st12" d="M426.2,233.5c5.8,3.4,15.2,3.4,21.1,0l15.4,8.9c-5.8,3.4-5.9,8.8-0.1,12.2l-61.7,35.6
					c-5.8-3.4-15.2-3.4-21.1,0l-15.4-8.9c5.8-3.4,5.9-8.8,0.1-12.2L426.2,233.5z M427.3,269.9c7.6-4.4,7.7-11.6,0.1-16
					c-7.6-4.4-19.9-4.4-27.6,0c-7.6,4.4-7.7,11.6-0.1,16C407.3,274.3,419.7,274.3,427.3,269.9"/>
			</g>
			<g>
				<path class="st2" d="M482.9,248.6L390.3,302l-46.1-26.8l92.6-53.5L482.9,248.6z M379.8,290.3c5.8-3.4,15.3-3.4,21.1,0l61.7-35.6
					c-5.8-3.4-5.8-8.8,0.1-12.2l-15.4-8.9c-5.8,3.4-15.3,3.4-21.1,0l-61.7,35.6c5.8,3.4,5.8,8.8-0.1,12.2L379.8,290.3"/>
			</g>
			<g>
				<polygon class="st13" points="384.2,252.2 430.2,278.9 444.4,270.8 398.3,244 				"/>
			</g>
			<g>
				<polygon class="st14" points="430.3,279 430.4,292 444.5,283.9 444.4,270.8 				"/>
			</g>
			<polygon class="st1" points="390.3,302 390.3,315.1 344.3,288.3 344.3,275.3 			"/>
		</g>
		<g>
			<path class="st11" d="M336.2,257.4l0.1,13.1l46.1,26.8l92.6-53.5l-0.1-13.1L428.8,204"/>
			<g>
				<path class="st12" d="M418.2,215.7c5.8,3.4,15.2,3.4,21.1,0l15.4,8.9c-5.8,3.4-5.9,8.8-0.1,12.2l-61.7,35.6
					c-5.8-3.4-15.2-3.4-21.1,0l-15.4-8.9c5.8-3.4,5.9-8.8,0.1-12.2L418.2,215.7z M419.3,252.1c7.6-4.4,7.7-11.6,0.1-16
					c-7.6-4.4-19.9-4.4-27.6,0c-7.6,4.4-7.7,11.6-0.1,16C399.3,256.5,411.7,256.5,419.3,252.1"/>
			</g>
			<g>
				<path class="st2" d="M474.9,230.8l-92.6,53.5l-46.1-26.8l92.6-53.5L474.9,230.8z M371.8,272.5c5.8-3.4,15.3-3.4,21.1,0
					l61.7-35.6c-5.8-3.4-5.8-8.8,0.1-12.2l-15.4-8.9c-5.8,3.4-15.3,3.4-21.1,0l-61.7,35.6c5.8,3.4,5.8,8.8-0.1,12.2L371.8,272.5"/>
			</g>
			<g>
				<polygon class="st13" points="376.2,234.3 422.2,261.1 436.4,253 390.3,226.2 				"/>
			</g>
			<g>
				<polygon class="st14" points="422.3,261.1 422.4,274.2 436.5,266 436.4,253 				"/>
			</g>
			<polygon class="st1" points="382.3,284.2 382.3,297.3 336.3,270.5 336.3,257.4 			"/>
		</g>
	</g>
	<g>
		<g>
			<g class="st15">
				<g>
					<path class="st16" d="M281.5,395.7c-6.5,3.8-10.6,8.5-12.2,13.4c0-3.8,0-7.6,0-11.5c1.6-4.9,5.7-9.6,12.2-13.4
						c17.4-10.1,45.8-10.1,63.3,0c8.8,5.1,13.2,11.7,13.2,18.3c0,3.8,0,7.6,0,11.5c0-6.6-4.4-13.3-13.2-18.3
						C327.2,385.5,298.9,385.5,281.5,395.7z"/>
				</g>
				<g>
					<path class="st16" d="M269.2,409c-0.5,1.6-0.8,3.2-0.8,4.8l0-11.5c0-1.6,0.3-3.2,0.8-4.8c0,1.9,0,3.8,0,5.7c0,0.5,0,1.1,0,1.5
						c0,0.7,0,1.5,0,2.2c0,0.4,0,1,0,1.4C269.2,408.6,269.3,408.8,269.2,409z"/>
				</g>
				<g>
					<path class="st17" d="M358,402.6l0,11.5c0,6.6-4.4,13.2-13,18.2c-17.4,10.1-45.8,10.1-63.3,0c-8.8-5.1-13.2-11.8-13.2-18.5
						l0-11.5c0,6.7,4.4,13.4,13.2,18.5c17.5,10.1,45.9,10.1,63.3,0C353.7,415.8,358,409.2,358,402.6z"/>
				</g>
				<g>
					<path class="st16" d="M358,414.1c0,0,0-0.1,0-0.1c0-3.8,0-7.6,0-11.5c0,0,0,0.1,0,0.1C358,406.1,358,410.7,358,414.1z"/>
				</g>
				<g>
					<path class="st5" d="M344.8,384.2c17.5,10.1,17.6,26.5,0.2,36.7c-17.4,10.1-45.8,10.1-63.3,0c-17.5-10.1-17.6-26.5-0.2-36.7
						C298.9,374.1,327.3,374.1,344.8,384.2z"/>
				</g>
				<path class="st9" d="M281.5,390.6c17.4-10.1,45.8-10.1,63.3,0c7.4,4.3,11.7,9.7,12.9,15.2c1.6-7.7-2.6-15.7-12.9-21.6
					c-17.5-10.1-45.9-10.1-63.3,0c-10.1,5.9-14.3,13.8-12.7,21.5C270,400.1,274.2,394.8,281.5,390.6z"/>
				<g>
					<path class="st5" d="M370.2,402.7l0,11.5c0,8.4-5.5,16.8-16.6,23.2c-22.2,12.9-58.3,12.9-80.6,0c-11.2-6.5-16.8-15-16.8-23.5
						l0-11.5c0,8.5,5.6,17,16.8,23.5c22.3,12.9,58.4,12.9,80.6,0C364.7,419.5,370.2,411.1,370.2,402.7z"/>
				</g>
				<g>
					<path class="st6" d="M353.4,379.2c22.3,12.9,22.4,33.8,0.3,46.7c-22.2,12.9-58.3,12.9-80.6,0c-22.3-12.9-22.4-33.8-0.3-46.7
						C295,366.3,331.1,366.3,353.4,379.2z M281.7,420.9c17.5,10.1,45.9,10.1,63.3,0c17.4-10.1,17.3-26.5-0.2-36.7
						c-17.5-10.1-45.9-10.1-63.3,0C264.1,394.3,264.1,410.7,281.7,420.9"/>
				</g>
			</g>
		</g>
		<g>
			<path class="st6" d="M316.2,415.4l-0.5,3.6l-6.6-0.9l0.5-3.5c-4.7-0.8-9.1-2.3-11.7-3.9l4.3-5.1c2.9,1.7,6.9,3.1,10.5,3.6
				c3.1,0.4,4.3,0.1,4.4-0.7c0.4-2.9-18.1-3-16.9-11.6c0.5-3.7,4.8-6.3,12.6-6l0.5-3.6l6.6,0.9l-0.5,3.5c3.4,0.7,6.7,1.8,9.2,3.2
				l-4.1,5.1c-3.1-1.6-6-2.6-8.9-2.9c-3.2-0.4-4.4,0.1-4.5,0.9c-0.4,2.7,18.1,2.9,16.9,11.4C327.6,412.9,323.6,415.5,316.2,415.4z"
				/>
		</g>
	</g>
	<g>
		<g>
			<g>
				<g class="st15">
					<g>
						<path class="st16" d="M46.7,362c-6.2,3.6-10,8-11.5,12.6c0-3.6,0-7.2,0-10.8c1.5-4.6,5.4-9,11.5-12.6
							c16.4-9.5,43.1-9.5,59.6,0c8.3,4.8,12.4,11,12.4,17.3c0,3.6,0,7.2,0,10.8c0-6.2-4.2-12.5-12.4-17.3
							C89.8,352.5,63.1,352.5,46.7,362z"/>
					</g>
					<g>
						<path class="st16" d="M35.2,374.6c-0.5,1.5-0.7,3-0.7,4.5l0-10.8c0-1.5,0.3-3,0.7-4.5c0,1.8,0,3.6,0,5.4c0,0.4,0,1,0,1.4
							c0,0.7,0,1.4,0,2.1c0,0.4,0,0.9,0,1.3C35.2,374.2,35.3,374.4,35.2,374.6z"/>
					</g>
					<g>
						<path class="st17" d="M118.8,368.6l0,10.8c0,6.2-4.1,12.4-12.3,17.1c-16.4,9.5-43.1,9.5-59.6,0c-8.3-4.8-12.5-11.1-12.4-17.4
							l0-10.8c0,6.3,4.1,12.6,12.4,17.4c16.5,9.5,43.2,9.5,59.6,0C114.7,381,118.8,374.8,118.8,368.6z"/>
					</g>
					<g>
						<path class="st16" d="M118.8,379.4c0,0,0-0.1,0-0.1c0-3.6,0-7.2,0-10.8c0,0,0,0.1,0,0.1C118.8,371.8,118.8,376.2,118.8,379.4z
							"/>
					</g>
					<g>
						<path class="st18" d="M106.4,351.2c16.5,9.5,16.6,25,0.2,34.5c-16.4,9.5-43.1,9.5-59.6,0c-16.5-9.5-16.6-25-0.2-34.5
							C63.2,341.7,89.9,341.7,106.4,351.2z"/>
					</g>
					<path class="st19" d="M46.8,357.3c16.4-9.5,43.1-9.5,59.6,0c7,4,11,9.1,12.1,14.3c1.5-7.2-2.5-14.8-12.1-20.4
						c-16.5-9.5-43.2-9.5-59.6,0c-9.5,5.5-13.5,13-11.9,20.2C36,366.2,39.9,361.2,46.8,357.3z"/>
					<g>
						<path class="st5" d="M130.3,368.6l0,10.8c0,7.9-5.2,15.8-15.6,21.8c-20.9,12.1-54.8,12.1-75.9,0C28.3,395.2,23,387.1,23,379.1
							l0-10.8c0,8,5.3,16,15.8,22.1c21,12.1,55,12.1,75.9,0C125.1,384.4,130.3,376.5,130.3,368.6z"/>
					</g>
					<g>
						<path class="st6" d="M114.5,346.5c21,12.1,21.1,31.8,0.2,43.9c-20.9,12.1-54.8,12.1-75.9,0c-21-12.1-21.1-31.8-0.3-43.9
							C59.5,334.4,93.5,334.4,114.5,346.5z M47,385.8c16.5,9.5,43.2,9.5,59.6,0c16.4-9.5,16.3-25-0.2-34.5
							c-16.5-9.5-43.2-9.5-59.6,0C30.4,360.8,30.4,376.2,47,385.8"/>
					</g>
				</g>
			</g>
			<g>
				<path class="st19" d="M79.4,380.6L79,384l-6.2-0.8l0.4-3.3c-4.4-0.8-8.5-2.2-11-3.7l4.1-4.8c2.7,1.6,6.5,2.9,9.9,3.4
					c3,0.4,4.1,0.1,4.2-0.6c0.4-2.7-17-2.8-15.9-10.9c0.5-3.5,4.5-5.9,11.8-5.6l0.5-3.4l6.2,0.8l-0.4,3.3c3.2,0.7,6.3,1.7,8.7,3
					l-3.8,4.8c-2.9-1.5-5.7-2.4-8.4-2.8c-3-0.4-4.1,0.1-4.2,0.8c-0.4,2.6,17,2.8,15.9,10.7C90.2,378.2,86.4,380.7,79.4,380.6z"/>
			</g>
		</g>
		<g>
			<g>
				<g class="st15">
					<g>
						<path class="st16" d="M50.2,347.9c-6.2,3.6-10,8-11.5,12.6c0-3.6,0-7.2,0-10.8c1.5-4.6,5.4-9,11.5-12.6
							c16.4-9.5,43.1-9.5,59.6,0c8.3,4.8,12.4,11,12.4,17.3c0,3.6,0,7.2,0,10.8c0-6.2-4.2-12.5-12.4-17.3
							C93.3,338.4,66.6,338.4,50.2,347.9z"/>
					</g>
					<g>
						<path class="st16" d="M38.7,360.5c-0.5,1.5-0.7,3-0.7,4.5l0-10.8c0-1.5,0.3-3,0.7-4.5c0,1.8,0,3.6,0,5.4c0,0.4,0,1,0,1.4
							c0,0.7,0,1.4,0,2.1c0,0.4,0,0.9,0,1.3C38.7,360.1,38.7,360.3,38.7,360.5z"/>
					</g>
					<g>
						<path class="st17" d="M122.3,354.5l0,10.8c0,6.2-4.1,12.4-12.3,17.1c-16.4,9.5-43.1,9.5-59.6,0c-8.3-4.8-12.5-11.1-12.4-17.4
							l0-10.8c0,6.3,4.1,12.6,12.4,17.4c16.5,9.5,43.2,9.5,59.6,0C118.2,366.9,122.3,360.7,122.3,354.5z"/>
					</g>
					<g>
						<path class="st16" d="M122.2,365.3c0,0,0-0.1,0-0.1c0-3.6,0-7.2,0-10.8c0,0,0,0.1,0,0.1C122.3,357.7,122.2,362.1,122.2,365.3z
							"/>
					</g>
					<g>
						<path class="st5" d="M109.8,337.1c16.5,9.5,16.6,25,0.2,34.5c-16.4,9.5-43.1,9.5-59.6,0c-16.5-9.5-16.6-25-0.2-34.5
							C66.6,327.6,93.3,327.6,109.8,337.1z"/>
					</g>
					<path class="st9" d="M50.2,343.1c16.4-9.5,43.1-9.5,59.6,0c7,4,11,9.1,12.1,14.3c1.5-7.2-2.5-14.8-12.1-20.4
						c-16.5-9.5-43.2-9.5-59.6,0c-9.5,5.5-13.5,13-11.9,20.2C39.4,352.1,43.4,347.1,50.2,343.1z"/>
					<g>
						<path class="st5" d="M133.8,354.5l0,10.8c0,7.9-5.2,15.8-15.6,21.8c-20.9,12.1-54.8,12.1-75.9,0C31.7,381.1,26.4,373,26.4,365
							l0-10.8c0,8,5.3,16,15.8,22.1c21,12.1,55,12.1,75.9,0C128.6,370.3,133.7,362.4,133.8,354.5z"/>
					</g>
					<g>
						<path class="st6" d="M117.9,332.4c21,12.1,21.1,31.8,0.2,43.9c-20.9,12.1-54.8,12.1-75.9,0c-21-12.1-21.1-31.8-0.3-43.9
							C62.9,320.3,96.9,320.3,117.9,332.4z M50.4,371.7c16.5,9.5,43.2,9.5,59.6,0c16.4-9.5,16.3-25-0.2-34.5
							c-16.5-9.5-43.2-9.5-59.6,0C33.8,346.7,33.9,362.1,50.4,371.7"/>
					</g>
				</g>
			</g>
			<g>
				<path class="st19" d="M82.9,366.5l-0.5,3.4l-6.2-0.8l0.4-3.3c-4.4-0.8-8.5-2.2-11-3.7l4.1-4.8c2.7,1.6,6.5,2.9,9.9,3.4
					c3,0.4,4.1,0.1,4.2-0.6c0.4-2.7-17-2.8-15.9-10.9c0.5-3.5,4.5-5.9,11.8-5.6l0.5-3.4l6.2,0.8l-0.4,3.3c3.2,0.7,6.3,1.7,8.7,3
					l-3.8,4.8c-2.9-1.5-5.7-2.4-8.4-2.8c-3-0.4-4.1,0.1-4.2,0.8c-0.4,2.6,17,2.8,15.9,10.7C93.7,364.1,89.8,366.6,82.9,366.5z"/>
			</g>
		</g>
		<g>
			<g>
				<g class="st15">
					<g>
						<path class="st16" d="M40.8,330.1c-6.2,3.6-10,8-11.5,12.6c0-3.6,0-7.2,0-10.8c1.5-4.6,5.4-9,11.5-12.6
							c16.4-9.5,43.1-9.5,59.6,0c8.3,4.8,12.4,11,12.4,17.3c0,3.6,0,7.2,0,10.8c0-6.2-4.2-12.5-12.4-17.3
							C83.9,320.6,57.2,320.6,40.8,330.1z"/>
					</g>
					<g>
						<path class="st16" d="M29.3,342.7c-0.5,1.5-0.7,3-0.7,4.5l0-10.8c0-1.5,0.3-3,0.7-4.5c0,1.8,0,3.6,0,5.4c0,0.4,0,1,0,1.4
							c0,0.7,0,1.4,0,2.1c0,0.4,0,0.9,0,1.3C29.3,342.3,29.3,342.5,29.3,342.7z"/>
					</g>
					<g>
						<path class="st17" d="M112.9,336.7l0,10.8c0,6.2-4.1,12.4-12.3,17.1c-16.4,9.5-43.1,9.5-59.6,0c-8.3-4.8-12.5-11.1-12.4-17.4
							l0-10.8c0,6.3,4.1,12.6,12.4,17.4c16.5,9.5,43.2,9.5,59.6,0C108.8,349.1,112.9,342.9,112.9,336.7z"/>
					</g>
					<g>
						<path class="st16" d="M112.8,347.5c0,0,0-0.1,0-0.1c0-3.6,0-7.2,0-10.8c0,0,0,0.1,0,0.1C112.9,339.9,112.9,344.2,112.8,347.5z
							"/>
					</g>
					<g>
						<path class="st18" d="M100.4,319.3c16.5,9.5,16.6,25,0.2,34.5c-16.4,9.5-43.1,9.5-59.6,0c-16.5-9.5-16.6-25-0.2-34.5
							C57.2,309.8,83.9,309.8,100.4,319.3z"/>
					</g>
					<path class="st19" d="M40.8,325.3c16.4-9.5,43.1-9.5,59.6,0c7,4,11,9.1,12.1,14.3c1.5-7.2-2.5-14.8-12.1-20.4
						c-16.5-9.5-43.2-9.5-59.6,0c-9.5,5.5-13.5,13-11.9,20.2C30,334.3,34,329.3,40.8,325.3z"/>
					<g>
						<path class="st5" d="M124.4,336.7l0,10.8c0,7.9-5.2,15.8-15.6,21.8c-20.9,12.1-54.8,12.1-75.9,0C22.3,363.2,17,355.2,17,347.2
							l0-10.8c0,8,5.3,16,15.8,22.1c21,12.1,55,12.1,75.9,0C119.2,352.5,124.4,344.6,124.4,336.7z"/>
					</g>
					<g>
						<path class="st6" d="M108.5,314.6c21,12.1,21.1,31.8,0.2,43.9c-20.9,12.1-54.8,12.1-75.9,0c-21-12.1-21.1-31.8-0.3-43.9
							C53.5,302.5,87.5,302.5,108.5,314.6z M41,353.8c16.5,9.5,43.2,9.5,59.6,0c16.4-9.5,16.3-25-0.2-34.5
							c-16.5-9.5-43.2-9.5-59.6,0C24.4,328.8,24.5,344.3,41,353.8"/>
					</g>
				</g>
			</g>
			<g>
				<path class="st19" d="M73.5,348.6l-0.5,3.4l-6.2-0.8l0.4-3.3c-4.4-0.8-8.5-2.2-11-3.7l4.1-4.8c2.7,1.6,6.5,2.9,9.9,3.4
					c3,0.4,4.1,0.1,4.2-0.6c0.4-2.7-17-2.8-15.9-10.9c0.5-3.5,4.5-5.9,11.8-5.6l0.5-3.4l6.2,0.8l-0.4,3.3c3.2,0.7,6.3,1.7,8.7,3
					l-3.8,4.8c-2.9-1.5-5.7-2.4-8.4-2.8c-3-0.4-4.1,0.1-4.2,0.8c-0.4,2.6,17,2.8,15.9,10.7C84.3,346.3,80.4,348.7,73.5,348.6z"/>
			</g>
		</g>
		<g>
			<g>
				<g class="st15">
					<g>
						<path class="st16" d="M41.5,313.7c-6.2,3.6-10,8-11.5,12.6c0-3.6,0-7.2,0-10.8c1.5-4.6,5.4-9,11.5-12.6
							c16.4-9.5,43.1-9.5,59.6,0c8.3,4.8,12.4,11,12.4,17.3c0,3.6,0,7.2,0,10.8c0-6.2-4.2-12.5-12.4-17.3
							C84.6,304.2,57.9,304.2,41.5,313.7z"/>
					</g>
					<g>
						<path class="st16" d="M30,326.3c-0.5,1.5-0.7,3-0.7,4.5l0-10.8c0-1.5,0.3-3,0.7-4.5c0,1.8,0,3.6,0,5.4c0,0.4,0,1,0,1.4
							c0,0.7,0,1.4,0,2.1c0,0.4,0,0.9,0,1.3C30,325.9,30,326.1,30,326.3z"/>
					</g>
					<g>
						<path class="st17" d="M113.6,320.3l0,10.8c0,6.2-4.1,12.4-12.3,17.1c-16.4,9.5-43.1,9.5-59.6,0c-8.3-4.8-12.5-11.1-12.4-17.4
							l0-10.8c0,6.3,4.1,12.6,12.4,17.4c16.5,9.5,43.2,9.5,59.6,0C109.5,332.7,113.5,326.5,113.6,320.3z"/>
					</g>
					<g>
						<path class="st16" d="M113.5,331.1c0,0,0-0.1,0-0.1c0-3.6,0-7.2,0-10.8c0,0,0,0.1,0,0.1C113.6,323.5,113.5,327.8,113.5,331.1z
							"/>
					</g>
					<g>
						<path class="st5" d="M101.1,302.9c16.5,9.5,16.6,25,0.2,34.5c-16.4,9.5-43.1,9.5-59.6,0c-16.5-9.5-16.6-25-0.2-34.5
							C57.9,293.4,84.6,293.4,101.1,302.9z"/>
					</g>
					<path class="st9" d="M41.5,308.9c16.4-9.5,43.1-9.5,59.6,0c7,4,11,9.1,12.1,14.3c1.5-7.2-2.5-14.8-12.1-20.4
						c-16.5-9.5-43.2-9.5-59.6,0c-9.5,5.5-13.5,13-11.9,20.2C30.7,317.9,34.7,312.9,41.5,308.9z"/>
					<g>
						<path class="st5" d="M125.1,320.3l0,10.8c0,7.9-5.2,15.8-15.6,21.8c-20.9,12.1-54.8,12.1-75.9,0
							c-10.6-6.1-15.9-14.1-15.8-22.1l0-10.8c0,8,5.3,16,15.8,22.1c21,12.1,55,12.1,75.9,0C119.8,336.1,125,328.2,125.1,320.3z"/>
					</g>
					<g>
						<path class="st6" d="M109.2,298.2c21,12.1,21.1,31.8,0.2,43.9c-20.9,12.1-54.8,12.1-75.9,0c-21-12.1-21.1-31.8-0.3-43.9
							C54.2,286.1,88.2,286.1,109.2,298.2z M41.7,337.4c16.5,9.5,43.2,9.5,59.6,0c16.4-9.5,16.3-25-0.2-34.5
							c-16.5-9.5-43.2-9.5-59.6,0C25.1,312.4,25.2,327.9,41.7,337.4"/>
					</g>
				</g>
			</g>
			<g>
				<path class="st6" d="M74.2,332.2l-0.5,3.4l-6.2-0.8l0.4-3.3c-4.4-0.8-8.5-2.2-11-3.7L61,323c2.7,1.6,6.5,2.9,9.9,3.4
					c3,0.4,4.1,0.1,4.2-0.6c0.4-2.7-17-2.8-15.9-10.9c0.5-3.5,4.5-5.9,11.8-5.6l0.5-3.4l6.2,0.8l-0.4,3.3c3.2,0.7,6.3,1.7,8.7,3
					l-3.8,4.8c-2.9-1.5-5.7-2.4-8.4-2.8c-3-0.4-4.1,0.1-4.2,0.8c-0.4,2.6,17,2.8,15.9,10.7C85,329.9,81.1,332.3,74.2,332.2z"/>
			</g>
		</g>
	</g>
	<g>
		<path class="st20" d="M179.5,53l1.7,4.5c1.1,2.8,3.3,5,6.1,6.1l4.5,1.7l-4.5,1.7c-2.8,1.1-5,3.3-6.1,6.1l-1.7,4.5l-1.7-4.5
			c-1.1-2.8-3.3-5-6.1-6.1l-4.5-1.7l4.5-1.7c2.8-1.1,5-3.3,6.1-6.1L179.5,53z"/>
		<path class="st20" d="M41.2,101.5l1.3,3.3c0.8,2,2.4,3.6,4.4,4.4l3.3,1.3l-3.3,1.3c-2,0.8-3.6,2.4-4.4,4.4l-1.3,3.3l-1.3-3.3
			c-0.8-2-2.4-3.6-4.4-4.4l-3.3-1.3l3.3-1.3c2-0.8,3.6-2.4,4.4-4.4L41.2,101.5z"/>
		<path class="st20" d="M297.2,93.2l1.2,3c0.7,1.9,2.2,3.4,4.1,4.1l3,1.2l-3,1.2c-1.9,0.7-3.4,2.2-4.1,4.1l-1.2,3l-1.2-3
			c-0.7-1.9-2.2-3.4-4.1-4.1l-3-1.2l3-1.2c1.9-0.7,3.4-2.2,4.1-4.1L297.2,93.2z"/>
		<path class="st20" d="M43.8,213.4l1,2.5c0.6,1.5,1.8,2.7,3.3,3.3l2.5,1l-2.5,1c-1.5,0.6-2.7,1.8-3.3,3.3l-1,2.5l-1-2.5
			c-0.6-1.5-1.8-2.7-3.3-3.3l-2.5-1l2.5-1c1.5-0.6,2.7-1.8,3.3-3.3L43.8,213.4z"/>
		<path class="st20" d="M359.3,163.7l1,2.5c0.6,1.5,1.8,2.7,3.3,3.3l2.5,1l-2.5,1c-1.5,0.6-2.7,1.8-3.3,3.3l-1,2.5l-1-2.5
			c-0.6-1.5-1.8-2.7-3.3-3.3l-2.5-1l2.5-1c1.5-0.6,2.7-1.8,3.3-3.3L359.3,163.7z"/>
	</g>
</g>
</svg>
